<?xml version="1.0" encoding="utf-8" standalone="no"?>
<!DOCTYPE svg PUBLIC "-//W3C//DTD SVG 1.1//EN"
  "http://www.w3.org/Graphics/SVG/1.1/DTD/svg11.dtd">
<!-- Created with matplotlib (https://matplotlib.org/) -->
<svg height="345.6pt" version="1.1" viewBox="0 0 460.8 345.6" width="460.8pt" xmlns="http://www.w3.org/2000/svg" xmlns:xlink="http://www.w3.org/1999/xlink">
 <defs>
  <style type="text/css">
*{stroke-linecap:butt;stroke-linejoin:round;}
  </style>
 </defs>
 <g id="figure_1">
  <g id="patch_1">
   <path d="M 0 345.6 
L 460.8 345.6 
L 460.8 0 
L 0 0 
z
" style="fill:#ffffff;"/>
  </g>
  <g id="axes_1">
   <g id="patch_2">
    <path d="M 57.6 298.944 
L 338.688 298.944 
L 338.688 27.648 
L 57.6 27.648 
z
" style="fill:#ffffff;"/>
   </g>
   <g id="line2d_1">
    <path d="M 36.60358 298.944 
L 36.60358 294.312795 
L 66.853775 294.312795 
L 66.853775 285.050384 
L 129.161557 285.050384 
L 129.161557 275.787974 
L 158.813727 275.787974 
L 158.813727 271.156769 
L 175.178647 271.156769 
L 175.178647 257.263153 
L 186.394199 257.263153 
L 186.394199 248.000743 
L 189.431465 248.000743 
L 189.431465 243.369538 
L 198.269956 243.369538 
L 198.269956 234.107127 
L 210.440014 234.107127 
L 210.440014 220.213512 
L 228.014264 220.213512 
L 228.014264 210.951101 
L 246.445112 210.951101 
L 246.445112 201.688691 
L 252.976542 201.688691 
L 252.976542 192.426281 
L 264.407036 192.426281 
L 264.407036 187.795075 
L 279.867155 187.795075 
L 279.867155 173.90146 
L 288.210593 173.90146 
L 288.210593 169.270255 
L 297.572108 169.270255 
L 297.572108 155.376639 
L 307.151675 155.376639 
L 307.151675 146.114229 
L 321.100084 146.114229 
L 321.100084 141.483024 
L 328.72718 141.483024 
L 328.72718 127.589408 
L 338.688 127.589408 
" style="fill:none;stroke:#f5deb3;stroke-linecap:square;stroke-width:4;"/>
   </g>
   <g id="line2d_2">
    <defs>
     <path d="M 0 7.778175 
L 7.778175 0 
L 0 -7.778175 
L -7.778175 0 
z
" id="mb9bd83f6c6" style="stroke:#f5deb3;stroke-linejoin:miter;stroke-width:1.5;"/>
    </defs>
    <g>
     <use style="fill:#f5deb3;stroke:#f5deb3;stroke-linejoin:miter;stroke-width:1.5;" x="158.813727" xlink:href="#mb9bd83f6c6" y="275.787974"/>
     <use style="fill:#f5deb3;stroke:#f5deb3;stroke-linejoin:miter;stroke-width:1.5;" x="198.269956" xlink:href="#mb9bd83f6c6" y="243.369538"/>
     <use style="fill:#f5deb3;stroke:#f5deb3;stroke-linejoin:miter;stroke-width:1.5;" x="252.976542" xlink:href="#mb9bd83f6c6" y="192.426281"/>
     <use style="fill:#f5deb3;stroke:#f5deb3;stroke-linejoin:miter;stroke-width:1.5;" x="321.100084" xlink:href="#mb9bd83f6c6" y="146.114229"/>
     <use style="fill:#f5deb3;stroke:#f5deb3;stroke-linejoin:miter;stroke-width:1.5;" x="328.72718" xlink:href="#mb9bd83f6c6" y="127.589408"/>
     <use style="fill:#f5deb3;stroke:#f5deb3;stroke-linejoin:miter;stroke-width:1.5;" x="338.688" xlink:href="#mb9bd83f6c6" y="127.589408"/>
    </g>
   </g>
   <g id="line2d_3">
    <path style="fill:none;stroke:#f5deb3;stroke-linecap:square;stroke-width:4;"/>
    <g/>
   </g>
   <g id="line2d_4">
    <path d="M 338.688 127.589408 
L 369.60768 35.706297 
" style="fill:none;stroke:#f5deb3;stroke-linecap:square;stroke-width:4;"/>
    <g>
     <use style="fill:#f5deb3;stroke:#f5deb3;stroke-linejoin:miter;stroke-width:1.5;" x="338.688" xlink:href="#mb9bd83f6c6" y="127.589408"/>
     <use style="fill:#f5deb3;stroke:#f5deb3;stroke-linejoin:miter;stroke-width:1.5;" x="369.60768" xlink:href="#mb9bd83f6c6" y="35.706297"/>
    </g>
   </g>
   <g id="matplotlib.axis_1">
    <g id="xtick_1">
     <g id="line2d_5">
      <path clip-path="url(#p991d1e551b)" d="M 57.6 298.944 
L 57.6 27.648 
" style="fill:none;stroke:#b0b0b0;stroke-linecap:square;stroke-width:0.8;"/>
     </g>
     <g id="line2d_6">
      <defs>
       <path d="M 0 0 
L 0 3.5 
" id="me047dc95c1" style="stroke:#000000;stroke-width:0.8;"/>
      </defs>
      <g>
       <use style="stroke:#000000;stroke-width:0.8;" x="57.6" xlink:href="#me047dc95c1" y="298.944"/>
      </g>
     </g>
     <g id="text_1">
      <!-- 0 -->
      <defs>
       <path d="M 31.78125 66.40625 
Q 24.171875 66.40625 20.328125 58.90625 
Q 16.5 51.421875 16.5 36.375 
Q 16.5 21.390625 20.328125 13.890625 
Q 24.171875 6.390625 31.78125 6.390625 
Q 39.453125 6.390625 43.28125 13.890625 
Q 47.125 21.390625 47.125 36.375 
Q 47.125 51.421875 43.28125 58.90625 
Q 39.453125 66.40625 31.78125 66.40625 
z
M 31.78125 74.21875 
Q 44.046875 74.21875 50.515625 64.515625 
Q 56.984375 54.828125 56.984375 36.375 
Q 56.984375 17.96875 50.515625 8.265625 
Q 44.046875 -1.421875 31.78125 -1.421875 
Q 19.53125 -1.421875 13.0625 8.265625 
Q 6.59375 17.96875 6.59375 36.375 
Q 6.59375 54.828125 13.0625 64.515625 
Q 19.53125 74.21875 31.78125 74.21875 
z
" id="DejaVuSans-48"/>
      </defs>
      <g transform="translate(51.2375 321.140875)scale(0.2 -0.2)">
       <use xlink:href="#DejaVuSans-48"/>
      </g>
     </g>
    </g>
    <g id="xtick_2">
     <g id="line2d_7">
      <path clip-path="url(#p991d1e551b)" d="M 137.910857 298.944 
L 137.910857 27.648 
" style="fill:none;stroke:#b0b0b0;stroke-linecap:square;stroke-width:0.8;"/>
     </g>
     <g id="line2d_8">
      <g>
       <use style="stroke:#000000;stroke-width:0.8;" x="137.910857" xlink:href="#me047dc95c1" y="298.944"/>
      </g>
     </g>
     <g id="text_2">
      <!-- 2 -->
      <defs>
       <path d="M 19.1875 8.296875 
L 53.609375 8.296875 
L 53.609375 0 
L 7.328125 0 
L 7.328125 8.296875 
Q 12.9375 14.109375 22.625 23.890625 
Q 32.328125 33.6875 34.8125 36.53125 
Q 39.546875 41.84375 41.421875 45.53125 
Q 43.3125 49.21875 43.3125 52.78125 
Q 43.3125 58.59375 39.234375 62.25 
Q 35.15625 65.921875 28.609375 65.921875 
Q 23.96875 65.921875 18.8125 64.3125 
Q 13.671875 62.703125 7.8125 59.421875 
L 7.8125 69.390625 
Q 13.765625 71.78125 18.9375 73 
Q 24.125 74.21875 28.421875 74.21875 
Q 39.75 74.21875 46.484375 68.546875 
Q 53.21875 62.890625 53.21875 53.421875 
Q 53.21875 48.921875 51.53125 44.890625 
Q 49.859375 40.875 45.40625 35.40625 
Q 44.1875 33.984375 37.640625 27.21875 
Q 31.109375 20.453125 19.1875 8.296875 
z
" id="DejaVuSans-50"/>
      </defs>
      <g transform="translate(131.548357 321.140875)scale(0.2 -0.2)">
       <use xlink:href="#DejaVuSans-50"/>
      </g>
     </g>
    </g>
    <g id="xtick_3">
     <g id="line2d_9">
      <path clip-path="url(#p991d1e551b)" d="M 218.221714 298.944 
L 218.221714 27.648 
" style="fill:none;stroke:#b0b0b0;stroke-linecap:square;stroke-width:0.8;"/>
     </g>
     <g id="line2d_10">
      <g>
       <use style="stroke:#000000;stroke-width:0.8;" x="218.221714" xlink:href="#me047dc95c1" y="298.944"/>
      </g>
     </g>
     <g id="text_3">
      <!-- 4 -->
      <defs>
       <path d="M 37.796875 64.3125 
L 12.890625 25.390625 
L 37.796875 25.390625 
z
M 35.203125 72.90625 
L 47.609375 72.90625 
L 47.609375 25.390625 
L 58.015625 25.390625 
L 58.015625 17.1875 
L 47.609375 17.1875 
L 47.609375 0 
L 37.796875 0 
L 37.796875 17.1875 
L 4.890625 17.1875 
L 4.890625 26.703125 
z
" id="DejaVuSans-52"/>
      </defs>
      <g transform="translate(211.859214 321.140875)scale(0.2 -0.2)">
       <use xlink:href="#DejaVuSans-52"/>
      </g>
     </g>
    </g>
    <g id="xtick_4">
     <g id="line2d_11">
      <path clip-path="url(#p991d1e551b)" d="M 298.532571 298.944 
L 298.532571 27.648 
" style="fill:none;stroke:#b0b0b0;stroke-linecap:square;stroke-width:0.8;"/>
     </g>
     <g id="line2d_12">
      <g>
       <use style="stroke:#000000;stroke-width:0.8;" x="298.532571" xlink:href="#me047dc95c1" y="298.944"/>
      </g>
     </g>
     <g id="text_4">
      <!-- 6 -->
      <defs>
       <path d="M 33.015625 40.375 
Q 26.375 40.375 22.484375 35.828125 
Q 18.609375 31.296875 18.609375 23.390625 
Q 18.609375 15.53125 22.484375 10.953125 
Q 26.375 6.390625 33.015625 6.390625 
Q 39.65625 6.390625 43.53125 10.953125 
Q 47.40625 15.53125 47.40625 23.390625 
Q 47.40625 31.296875 43.53125 35.828125 
Q 39.65625 40.375 33.015625 40.375 
z
M 52.59375 71.296875 
L 52.59375 62.3125 
Q 48.875 64.0625 45.09375 64.984375 
Q 41.3125 65.921875 37.59375 65.921875 
Q 27.828125 65.921875 22.671875 59.328125 
Q 17.53125 52.734375 16.796875 39.40625 
Q 19.671875 43.65625 24.015625 45.921875 
Q 28.375 48.1875 33.59375 48.1875 
Q 44.578125 48.1875 50.953125 41.515625 
Q 57.328125 34.859375 57.328125 23.390625 
Q 57.328125 12.15625 50.6875 5.359375 
Q 44.046875 -1.421875 33.015625 -1.421875 
Q 20.359375 -1.421875 13.671875 8.265625 
Q 6.984375 17.96875 6.984375 36.375 
Q 6.984375 53.65625 15.1875 63.9375 
Q 23.390625 74.21875 37.203125 74.21875 
Q 40.921875 74.21875 44.703125 73.484375 
Q 48.484375 72.75 52.59375 71.296875 
z
" id="DejaVuSans-54"/>
      </defs>
      <g transform="translate(292.170071 321.140875)scale(0.2 -0.2)">
       <use xlink:href="#DejaVuSans-54"/>
      </g>
     </g>
    </g>
    <g id="xtick_5">
     <g id="line2d_13">
      <path clip-path="url(#p991d1e551b)" d="M 97.755429 298.944 
L 97.755429 27.648 
" style="fill:none;stroke:#b0b0b0;stroke-linecap:square;stroke-width:0.8;"/>
     </g>
     <g id="line2d_14">
      <defs>
       <path d="M 0 0 
L 0 2 
" id="m894bed18bf" style="stroke:#000000;stroke-width:0.6;"/>
      </defs>
      <g>
       <use style="stroke:#000000;stroke-width:0.6;" x="97.755429" xlink:href="#m894bed18bf" y="298.944"/>
      </g>
     </g>
    </g>
    <g id="xtick_6">
     <g id="line2d_15">
      <path clip-path="url(#p991d1e551b)" d="M 178.066286 298.944 
L 178.066286 27.648 
" style="fill:none;stroke:#b0b0b0;stroke-linecap:square;stroke-width:0.8;"/>
     </g>
     <g id="line2d_16">
      <g>
       <use style="stroke:#000000;stroke-width:0.6;" x="178.066286" xlink:href="#m894bed18bf" y="298.944"/>
      </g>
     </g>
    </g>
    <g id="xtick_7">
     <g id="line2d_17">
      <path clip-path="url(#p991d1e551b)" d="M 258.377143 298.944 
L 258.377143 27.648 
" style="fill:none;stroke:#b0b0b0;stroke-linecap:square;stroke-width:0.8;"/>
     </g>
     <g id="line2d_18">
      <g>
       <use style="stroke:#000000;stroke-width:0.6;" x="258.377143" xlink:href="#m894bed18bf" y="298.944"/>
      </g>
     </g>
    </g>
    <g id="xtick_8">
     <g id="line2d_19">
      <path clip-path="url(#p991d1e551b)" d="M 338.688 298.944 
L 338.688 27.648 
" style="fill:none;stroke:#b0b0b0;stroke-linecap:square;stroke-width:0.8;"/>
     </g>
     <g id="line2d_20">
      <g>
       <use style="stroke:#000000;stroke-width:0.6;" x="338.688" xlink:href="#m894bed18bf" y="298.944"/>
      </g>
     </g>
    </g>
    <g id="text_5">
     <!-- log10(# f-evals / dimension) -->
     <defs>
      <path d="M 9.421875 75.984375 
L 18.40625 75.984375 
L 18.40625 0 
L 9.421875 0 
z
" id="DejaVuSans-108"/>
      <path d="M 30.609375 48.390625 
Q 23.390625 48.390625 19.1875 42.75 
Q 14.984375 37.109375 14.984375 27.296875 
Q 14.984375 17.484375 19.15625 11.84375 
Q 23.34375 6.203125 30.609375 6.203125 
Q 37.796875 6.203125 41.984375 11.859375 
Q 46.1875 17.53125 46.1875 27.296875 
Q 46.1875 37.015625 41.984375 42.703125 
Q 37.796875 48.390625 30.609375 48.390625 
z
M 30.609375 56 
Q 42.328125 56 49.015625 48.375 
Q 55.71875 40.765625 55.71875 27.296875 
Q 55.71875 13.875 49.015625 6.21875 
Q 42.328125 -1.421875 30.609375 -1.421875 
Q 18.84375 -1.421875 12.171875 6.21875 
Q 5.515625 13.875 5.515625 27.296875 
Q 5.515625 40.765625 12.171875 48.375 
Q 18.84375 56 30.609375 56 
z
" id="DejaVuSans-111"/>
      <path d="M 45.40625 27.984375 
Q 45.40625 37.75 41.375 43.109375 
Q 37.359375 48.484375 30.078125 48.484375 
Q 22.859375 48.484375 18.828125 43.109375 
Q 14.796875 37.75 14.796875 27.984375 
Q 14.796875 18.265625 18.828125 12.890625 
Q 22.859375 7.515625 30.078125 7.515625 
Q 37.359375 7.515625 41.375 12.890625 
Q 45.40625 18.265625 45.40625 27.984375 
z
M 54.390625 6.78125 
Q 54.390625 -7.171875 48.1875 -13.984375 
Q 42 -20.796875 29.203125 -20.796875 
Q 24.46875 -20.796875 20.265625 -20.09375 
Q 16.0625 -19.390625 12.109375 -17.921875 
L 12.109375 -9.1875 
Q 16.0625 -11.328125 19.921875 -12.34375 
Q 23.78125 -13.375 27.78125 -13.375 
Q 36.625 -13.375 41.015625 -8.765625 
Q 45.40625 -4.15625 45.40625 5.171875 
L 45.40625 9.625 
Q 42.625 4.78125 38.28125 2.390625 
Q 33.9375 0 27.875 0 
Q 17.828125 0 11.671875 7.65625 
Q 5.515625 15.328125 5.515625 27.984375 
Q 5.515625 40.671875 11.671875 48.328125 
Q 17.828125 56 27.875 56 
Q 33.9375 56 38.28125 53.609375 
Q 42.625 51.21875 45.40625 46.390625 
L 45.40625 54.6875 
L 54.390625 54.6875 
z
" id="DejaVuSans-103"/>
      <path d="M 12.40625 8.296875 
L 28.515625 8.296875 
L 28.515625 63.921875 
L 10.984375 60.40625 
L 10.984375 69.390625 
L 28.421875 72.90625 
L 38.28125 72.90625 
L 38.28125 8.296875 
L 54.390625 8.296875 
L 54.390625 0 
L 12.40625 0 
z
" id="DejaVuSans-49"/>
      <path d="M 31 75.875 
Q 24.46875 64.65625 21.28125 53.65625 
Q 18.109375 42.671875 18.109375 31.390625 
Q 18.109375 20.125 21.3125 9.0625 
Q 24.515625 -2 31 -13.1875 
L 23.1875 -13.1875 
Q 15.875 -1.703125 12.234375 9.375 
Q 8.59375 20.453125 8.59375 31.390625 
Q 8.59375 42.28125 12.203125 53.3125 
Q 15.828125 64.359375 23.1875 75.875 
z
" id="DejaVuSans-40"/>
      <path d="M 51.125 44 
L 36.921875 44 
L 32.8125 27.6875 
L 47.125 27.6875 
z
M 43.796875 71.78125 
L 38.71875 51.515625 
L 52.984375 51.515625 
L 58.109375 71.78125 
L 65.921875 71.78125 
L 60.890625 51.515625 
L 76.125 51.515625 
L 76.125 44 
L 58.984375 44 
L 54.984375 27.6875 
L 70.515625 27.6875 
L 70.515625 20.21875 
L 53.078125 20.21875 
L 48 0 
L 40.1875 0 
L 45.21875 20.21875 
L 30.90625 20.21875 
L 25.875 0 
L 18.015625 0 
L 23.09375 20.21875 
L 7.71875 20.21875 
L 7.71875 27.6875 
L 24.90625 27.6875 
L 29 44 
L 13.28125 44 
L 13.28125 51.515625 
L 30.90625 51.515625 
L 35.890625 71.78125 
z
" id="DejaVuSans-35"/>
      <path id="DejaVuSans-32"/>
      <path d="M 37.109375 75.984375 
L 37.109375 68.5 
L 28.515625 68.5 
Q 23.6875 68.5 21.796875 66.546875 
Q 19.921875 64.59375 19.921875 59.515625 
L 19.921875 54.6875 
L 34.71875 54.6875 
L 34.71875 47.703125 
L 19.921875 47.703125 
L 19.921875 0 
L 10.890625 0 
L 10.890625 47.703125 
L 2.296875 47.703125 
L 2.296875 54.6875 
L 10.890625 54.6875 
L 10.890625 58.5 
Q 10.890625 67.625 15.140625 71.796875 
Q 19.390625 75.984375 28.609375 75.984375 
z
" id="DejaVuSans-102"/>
      <path d="M 4.890625 31.390625 
L 31.203125 31.390625 
L 31.203125 23.390625 
L 4.890625 23.390625 
z
" id="DejaVuSans-45"/>
      <path d="M 56.203125 29.59375 
L 56.203125 25.203125 
L 14.890625 25.203125 
Q 15.484375 15.921875 20.484375 11.0625 
Q 25.484375 6.203125 34.421875 6.203125 
Q 39.59375 6.203125 44.453125 7.46875 
Q 49.3125 8.734375 54.109375 11.28125 
L 54.109375 2.78125 
Q 49.265625 0.734375 44.1875 -0.34375 
Q 39.109375 -1.421875 33.890625 -1.421875 
Q 20.796875 -1.421875 13.15625 6.1875 
Q 5.515625 13.8125 5.515625 26.8125 
Q 5.515625 40.234375 12.765625 48.109375 
Q 20.015625 56 32.328125 56 
Q 43.359375 56 49.78125 48.890625 
Q 56.203125 41.796875 56.203125 29.59375 
z
M 47.21875 32.234375 
Q 47.125 39.59375 43.09375 43.984375 
Q 39.0625 48.390625 32.421875 48.390625 
Q 24.90625 48.390625 20.390625 44.140625 
Q 15.875 39.890625 15.1875 32.171875 
z
" id="DejaVuSans-101"/>
      <path d="M 2.984375 54.6875 
L 12.5 54.6875 
L 29.59375 8.796875 
L 46.6875 54.6875 
L 56.203125 54.6875 
L 35.6875 0 
L 23.484375 0 
z
" id="DejaVuSans-118"/>
      <path d="M 34.28125 27.484375 
Q 23.390625 27.484375 19.1875 25 
Q 14.984375 22.515625 14.984375 16.5 
Q 14.984375 11.71875 18.140625 8.90625 
Q 21.296875 6.109375 26.703125 6.109375 
Q 34.1875 6.109375 38.703125 11.40625 
Q 43.21875 16.703125 43.21875 25.484375 
L 43.21875 27.484375 
z
M 52.203125 31.203125 
L 52.203125 0 
L 43.21875 0 
L 43.21875 8.296875 
Q 40.140625 3.328125 35.546875 0.953125 
Q 30.953125 -1.421875 24.3125 -1.421875 
Q 15.921875 -1.421875 10.953125 3.296875 
Q 6 8.015625 6 15.921875 
Q 6 25.140625 12.171875 29.828125 
Q 18.359375 34.515625 30.609375 34.515625 
L 43.21875 34.515625 
L 43.21875 35.40625 
Q 43.21875 41.609375 39.140625 45 
Q 35.0625 48.390625 27.6875 48.390625 
Q 23 48.390625 18.546875 47.265625 
Q 14.109375 46.140625 10.015625 43.890625 
L 10.015625 52.203125 
Q 14.9375 54.109375 19.578125 55.046875 
Q 24.21875 56 28.609375 56 
Q 40.484375 56 46.34375 49.84375 
Q 52.203125 43.703125 52.203125 31.203125 
z
" id="DejaVuSans-97"/>
      <path d="M 44.28125 53.078125 
L 44.28125 44.578125 
Q 40.484375 46.53125 36.375 47.5 
Q 32.28125 48.484375 27.875 48.484375 
Q 21.1875 48.484375 17.84375 46.4375 
Q 14.5 44.390625 14.5 40.28125 
Q 14.5 37.15625 16.890625 35.375 
Q 19.28125 33.59375 26.515625 31.984375 
L 29.59375 31.296875 
Q 39.15625 29.25 43.1875 25.515625 
Q 47.21875 21.78125 47.21875 15.09375 
Q 47.21875 7.46875 41.1875 3.015625 
Q 35.15625 -1.421875 24.609375 -1.421875 
Q 20.21875 -1.421875 15.453125 -0.5625 
Q 10.6875 0.296875 5.421875 2 
L 5.421875 11.28125 
Q 10.40625 8.6875 15.234375 7.390625 
Q 20.0625 6.109375 24.8125 6.109375 
Q 31.15625 6.109375 34.5625 8.28125 
Q 37.984375 10.453125 37.984375 14.40625 
Q 37.984375 18.0625 35.515625 20.015625 
Q 33.0625 21.96875 24.703125 23.78125 
L 21.578125 24.515625 
Q 13.234375 26.265625 9.515625 29.90625 
Q 5.8125 33.546875 5.8125 39.890625 
Q 5.8125 47.609375 11.28125 51.796875 
Q 16.75 56 26.8125 56 
Q 31.78125 56 36.171875 55.265625 
Q 40.578125 54.546875 44.28125 53.078125 
z
" id="DejaVuSans-115"/>
      <path d="M 25.390625 72.90625 
L 33.6875 72.90625 
L 8.296875 -9.28125 
L 0 -9.28125 
z
" id="DejaVuSans-47"/>
      <path d="M 45.40625 46.390625 
L 45.40625 75.984375 
L 54.390625 75.984375 
L 54.390625 0 
L 45.40625 0 
L 45.40625 8.203125 
Q 42.578125 3.328125 38.25 0.953125 
Q 33.9375 -1.421875 27.875 -1.421875 
Q 17.96875 -1.421875 11.734375 6.484375 
Q 5.515625 14.40625 5.515625 27.296875 
Q 5.515625 40.1875 11.734375 48.09375 
Q 17.96875 56 27.875 56 
Q 33.9375 56 38.25 53.625 
Q 42.578125 51.265625 45.40625 46.390625 
z
M 14.796875 27.296875 
Q 14.796875 17.390625 18.875 11.75 
Q 22.953125 6.109375 30.078125 6.109375 
Q 37.203125 6.109375 41.296875 11.75 
Q 45.40625 17.390625 45.40625 27.296875 
Q 45.40625 37.203125 41.296875 42.84375 
Q 37.203125 48.484375 30.078125 48.484375 
Q 22.953125 48.484375 18.875 42.84375 
Q 14.796875 37.203125 14.796875 27.296875 
z
" id="DejaVuSans-100"/>
      <path d="M 9.421875 54.6875 
L 18.40625 54.6875 
L 18.40625 0 
L 9.421875 0 
z
M 9.421875 75.984375 
L 18.40625 75.984375 
L 18.40625 64.59375 
L 9.421875 64.59375 
z
" id="DejaVuSans-105"/>
      <path d="M 52 44.1875 
Q 55.375 50.25 60.0625 53.125 
Q 64.75 56 71.09375 56 
Q 79.640625 56 84.28125 50.015625 
Q 88.921875 44.046875 88.921875 33.015625 
L 88.921875 0 
L 79.890625 0 
L 79.890625 32.71875 
Q 79.890625 40.578125 77.09375 44.375 
Q 74.3125 48.1875 68.609375 48.1875 
Q 61.625 48.1875 57.5625 43.546875 
Q 53.515625 38.921875 53.515625 30.90625 
L 53.515625 0 
L 44.484375 0 
L 44.484375 32.71875 
Q 44.484375 40.625 41.703125 44.40625 
Q 38.921875 48.1875 33.109375 48.1875 
Q 26.21875 48.1875 22.15625 43.53125 
Q 18.109375 38.875 18.109375 30.90625 
L 18.109375 0 
L 9.078125 0 
L 9.078125 54.6875 
L 18.109375 54.6875 
L 18.109375 46.1875 
Q 21.1875 51.21875 25.484375 53.609375 
Q 29.78125 56 35.6875 56 
Q 41.65625 56 45.828125 52.96875 
Q 50 49.953125 52 44.1875 
z
" id="DejaVuSans-109"/>
      <path d="M 54.890625 33.015625 
L 54.890625 0 
L 45.90625 0 
L 45.90625 32.71875 
Q 45.90625 40.484375 42.875 44.328125 
Q 39.84375 48.1875 33.796875 48.1875 
Q 26.515625 48.1875 22.3125 43.546875 
Q 18.109375 38.921875 18.109375 30.90625 
L 18.109375 0 
L 9.078125 0 
L 9.078125 54.6875 
L 18.109375 54.6875 
L 18.109375 46.1875 
Q 21.34375 51.125 25.703125 53.5625 
Q 30.078125 56 35.796875 56 
Q 45.21875 56 50.046875 50.171875 
Q 54.890625 44.34375 54.890625 33.015625 
z
" id="DejaVuSans-110"/>
      <path d="M 8.015625 75.875 
L 15.828125 75.875 
Q 23.140625 64.359375 26.78125 53.3125 
Q 30.421875 42.28125 30.421875 31.390625 
Q 30.421875 20.453125 26.78125 9.375 
Q 23.140625 -1.703125 15.828125 -13.1875 
L 8.015625 -13.1875 
Q 14.5 -2 17.703125 9.0625 
Q 20.90625 20.125 20.90625 31.390625 
Q 20.90625 42.671875 17.703125 53.65625 
Q 14.5 64.65625 8.015625 75.875 
z
" id="DejaVuSans-41"/>
     </defs>
     <g transform="translate(77.303219 342.217594)scale(0.17 -0.17)">
      <use xlink:href="#DejaVuSans-108"/>
      <use x="27.783203" xlink:href="#DejaVuSans-111"/>
      <use x="88.964844" xlink:href="#DejaVuSans-103"/>
      <use x="152.441406" xlink:href="#DejaVuSans-49"/>
      <use x="216.064453" xlink:href="#DejaVuSans-48"/>
      <use x="279.6875" xlink:href="#DejaVuSans-40"/>
      <use x="318.701172" xlink:href="#DejaVuSans-35"/>
      <use x="402.490234" xlink:href="#DejaVuSans-32"/>
      <use x="434.277344" xlink:href="#DejaVuSans-102"/>
      <use x="469.404297" xlink:href="#DejaVuSans-45"/>
      <use x="505.488281" xlink:href="#DejaVuSans-101"/>
      <use x="567.011719" xlink:href="#DejaVuSans-118"/>
      <use x="626.191406" xlink:href="#DejaVuSans-97"/>
      <use x="687.470703" xlink:href="#DejaVuSans-108"/>
      <use x="715.253906" xlink:href="#DejaVuSans-115"/>
      <use x="767.353516" xlink:href="#DejaVuSans-32"/>
      <use x="799.140625" xlink:href="#DejaVuSans-47"/>
      <use x="832.832031" xlink:href="#DejaVuSans-32"/>
      <use x="864.619141" xlink:href="#DejaVuSans-100"/>
      <use x="928.095703" xlink:href="#DejaVuSans-105"/>
      <use x="955.878906" xlink:href="#DejaVuSans-109"/>
      <use x="1053.291016" xlink:href="#DejaVuSans-101"/>
      <use x="1114.814453" xlink:href="#DejaVuSans-110"/>
      <use x="1178.193359" xlink:href="#DejaVuSans-115"/>
      <use x="1230.292969" xlink:href="#DejaVuSans-105"/>
      <use x="1258.076172" xlink:href="#DejaVuSans-111"/>
      <use x="1319.257812" xlink:href="#DejaVuSans-110"/>
      <use x="1382.636719" xlink:href="#DejaVuSans-41"/>
     </g>
    </g>
   </g>
   <g id="matplotlib.axis_2">
    <g id="ytick_1">
     <g id="line2d_21">
      <path clip-path="url(#p991d1e551b)" d="M 57.6 298.944 
L 338.688 298.944 
" style="fill:none;stroke:#b0b0b0;stroke-linecap:square;stroke-width:0.8;"/>
     </g>
     <g id="line2d_22">
      <defs>
       <path d="M 0 0 
L -3.5 0 
" id="m1c01767f25" style="stroke:#000000;stroke-width:0.8;"/>
      </defs>
      <g>
       <use style="stroke:#000000;stroke-width:0.8;" x="57.6" xlink:href="#m1c01767f25" y="298.944"/>
      </g>
     </g>
     <g id="text_6">
      <!-- 0.0 -->
      <defs>
       <path d="M 10.6875 12.40625 
L 21 12.40625 
L 21 0 
L 10.6875 0 
z
" id="DejaVuSans-46"/>
      </defs>
      <g transform="translate(25.155 305.02275)scale(0.16 -0.16)">
       <use xlink:href="#DejaVuSans-48"/>
       <use x="63.623047" xlink:href="#DejaVuSans-46"/>
       <use x="95.410156" xlink:href="#DejaVuSans-48"/>
      </g>
     </g>
    </g>
    <g id="ytick_2">
     <g id="line2d_23">
      <path clip-path="url(#p991d1e551b)" d="M 57.6 245.22202 
L 338.688 245.22202 
" style="fill:none;stroke:#b0b0b0;stroke-linecap:square;stroke-width:0.8;"/>
     </g>
     <g id="line2d_24">
      <g>
       <use style="stroke:#000000;stroke-width:0.8;" x="57.6" xlink:href="#m1c01767f25" y="245.22202"/>
      </g>
     </g>
     <g id="text_7">
      <!-- 0.2 -->
      <g transform="translate(25.155 251.30077)scale(0.16 -0.16)">
       <use xlink:href="#DejaVuSans-48"/>
       <use x="63.623047" xlink:href="#DejaVuSans-46"/>
       <use x="95.410156" xlink:href="#DejaVuSans-50"/>
      </g>
     </g>
    </g>
    <g id="ytick_3">
     <g id="line2d_25">
      <path clip-path="url(#p991d1e551b)" d="M 57.6 191.50004 
L 338.688 191.50004 
" style="fill:none;stroke:#b0b0b0;stroke-linecap:square;stroke-width:0.8;"/>
     </g>
     <g id="line2d_26">
      <g>
       <use style="stroke:#000000;stroke-width:0.8;" x="57.6" xlink:href="#m1c01767f25" y="191.50004"/>
      </g>
     </g>
     <g id="text_8">
      <!-- 0.4 -->
      <g transform="translate(25.155 197.57879)scale(0.16 -0.16)">
       <use xlink:href="#DejaVuSans-48"/>
       <use x="63.623047" xlink:href="#DejaVuSans-46"/>
       <use x="95.410156" xlink:href="#DejaVuSans-52"/>
      </g>
     </g>
    </g>
    <g id="ytick_4">
     <g id="line2d_27">
      <path clip-path="url(#p991d1e551b)" d="M 57.6 137.778059 
L 338.688 137.778059 
" style="fill:none;stroke:#b0b0b0;stroke-linecap:square;stroke-width:0.8;"/>
     </g>
     <g id="line2d_28">
      <g>
       <use style="stroke:#000000;stroke-width:0.8;" x="57.6" xlink:href="#m1c01767f25" y="137.778059"/>
      </g>
     </g>
     <g id="text_9">
      <!-- 0.6 -->
      <g transform="translate(25.155 143.856809)scale(0.16 -0.16)">
       <use xlink:href="#DejaVuSans-48"/>
       <use x="63.623047" xlink:href="#DejaVuSans-46"/>
       <use x="95.410156" xlink:href="#DejaVuSans-54"/>
      </g>
     </g>
    </g>
    <g id="ytick_5">
     <g id="line2d_29">
      <path clip-path="url(#p991d1e551b)" d="M 57.6 84.056079 
L 338.688 84.056079 
" style="fill:none;stroke:#b0b0b0;stroke-linecap:square;stroke-width:0.8;"/>
     </g>
     <g id="line2d_30">
      <g>
       <use style="stroke:#000000;stroke-width:0.8;" x="57.6" xlink:href="#m1c01767f25" y="84.056079"/>
      </g>
     </g>
     <g id="text_10">
      <!-- 0.8 -->
      <defs>
       <path d="M 31.78125 34.625 
Q 24.75 34.625 20.71875 30.859375 
Q 16.703125 27.09375 16.703125 20.515625 
Q 16.703125 13.921875 20.71875 10.15625 
Q 24.75 6.390625 31.78125 6.390625 
Q 38.8125 6.390625 42.859375 10.171875 
Q 46.921875 13.96875 46.921875 20.515625 
Q 46.921875 27.09375 42.890625 30.859375 
Q 38.875 34.625 31.78125 34.625 
z
M 21.921875 38.8125 
Q 15.578125 40.375 12.03125 44.71875 
Q 8.5 49.078125 8.5 55.328125 
Q 8.5 64.0625 14.71875 69.140625 
Q 20.953125 74.21875 31.78125 74.21875 
Q 42.671875 74.21875 48.875 69.140625 
Q 55.078125 64.0625 55.078125 55.328125 
Q 55.078125 49.078125 51.53125 44.71875 
Q 48 40.375 41.703125 38.8125 
Q 48.828125 37.15625 52.796875 32.3125 
Q 56.78125 27.484375 56.78125 20.515625 
Q 56.78125 9.90625 50.3125 4.234375 
Q 43.84375 -1.421875 31.78125 -1.421875 
Q 19.734375 -1.421875 13.25 4.234375 
Q 6.78125 9.90625 6.78125 20.515625 
Q 6.78125 27.484375 10.78125 32.3125 
Q 14.796875 37.15625 21.921875 38.8125 
z
M 18.3125 54.390625 
Q 18.3125 48.734375 21.84375 45.5625 
Q 25.390625 42.390625 31.78125 42.390625 
Q 38.140625 42.390625 41.71875 45.5625 
Q 45.3125 48.734375 45.3125 54.390625 
Q 45.3125 60.0625 41.71875 63.234375 
Q 38.140625 66.40625 31.78125 66.40625 
Q 25.390625 66.40625 21.84375 63.234375 
Q 18.3125 60.0625 18.3125 54.390625 
z
" id="DejaVuSans-56"/>
      </defs>
      <g transform="translate(25.155 90.134829)scale(0.16 -0.16)">
       <use xlink:href="#DejaVuSans-48"/>
       <use x="63.623047" xlink:href="#DejaVuSans-46"/>
       <use x="95.410156" xlink:href="#DejaVuSans-56"/>
      </g>
     </g>
    </g>
    <g id="ytick_6">
     <g id="line2d_31">
      <path clip-path="url(#p991d1e551b)" d="M 57.6 30.334099 
L 338.688 30.334099 
" style="fill:none;stroke:#b0b0b0;stroke-linecap:square;stroke-width:0.8;"/>
     </g>
     <g id="line2d_32">
      <g>
       <use style="stroke:#000000;stroke-width:0.8;" x="57.6" xlink:href="#m1c01767f25" y="30.334099"/>
      </g>
     </g>
     <g id="text_11">
      <!-- 1.0 -->
      <g transform="translate(25.155 36.412849)scale(0.16 -0.16)">
       <use xlink:href="#DejaVuSans-49"/>
       <use x="63.623047" xlink:href="#DejaVuSans-46"/>
       <use x="95.410156" xlink:href="#DejaVuSans-48"/>
      </g>
     </g>
    </g>
    <g id="text_12">
     <!-- Fraction of function,target pairs -->
     <defs>
      <path d="M 9.8125 72.90625 
L 51.703125 72.90625 
L 51.703125 64.59375 
L 19.671875 64.59375 
L 19.671875 43.109375 
L 48.578125 43.109375 
L 48.578125 34.8125 
L 19.671875 34.8125 
L 19.671875 0 
L 9.8125 0 
z
" id="DejaVuSans-70"/>
      <path d="M 41.109375 46.296875 
Q 39.59375 47.171875 37.8125 47.578125 
Q 36.03125 48 33.890625 48 
Q 26.265625 48 22.1875 43.046875 
Q 18.109375 38.09375 18.109375 28.8125 
L 18.109375 0 
L 9.078125 0 
L 9.078125 54.6875 
L 18.109375 54.6875 
L 18.109375 46.1875 
Q 20.953125 51.171875 25.484375 53.578125 
Q 30.03125 56 36.53125 56 
Q 37.453125 56 38.578125 55.875 
Q 39.703125 55.765625 41.0625 55.515625 
z
" id="DejaVuSans-114"/>
      <path d="M 48.78125 52.59375 
L 48.78125 44.1875 
Q 44.96875 46.296875 41.140625 47.34375 
Q 37.3125 48.390625 33.40625 48.390625 
Q 24.65625 48.390625 19.8125 42.84375 
Q 14.984375 37.3125 14.984375 27.296875 
Q 14.984375 17.28125 19.8125 11.734375 
Q 24.65625 6.203125 33.40625 6.203125 
Q 37.3125 6.203125 41.140625 7.25 
Q 44.96875 8.296875 48.78125 10.40625 
L 48.78125 2.09375 
Q 45.015625 0.34375 40.984375 -0.53125 
Q 36.96875 -1.421875 32.421875 -1.421875 
Q 20.0625 -1.421875 12.78125 6.34375 
Q 5.515625 14.109375 5.515625 27.296875 
Q 5.515625 40.671875 12.859375 48.328125 
Q 20.21875 56 33.015625 56 
Q 37.15625 56 41.109375 55.140625 
Q 45.0625 54.296875 48.78125 52.59375 
z
" id="DejaVuSans-99"/>
      <path d="M 18.3125 70.21875 
L 18.3125 54.6875 
L 36.8125 54.6875 
L 36.8125 47.703125 
L 18.3125 47.703125 
L 18.3125 18.015625 
Q 18.3125 11.328125 20.140625 9.421875 
Q 21.96875 7.515625 27.59375 7.515625 
L 36.8125 7.515625 
L 36.8125 0 
L 27.59375 0 
Q 17.1875 0 13.234375 3.875 
Q 9.28125 7.765625 9.28125 18.015625 
L 9.28125 47.703125 
L 2.6875 47.703125 
L 2.6875 54.6875 
L 9.28125 54.6875 
L 9.28125 70.21875 
z
" id="DejaVuSans-116"/>
      <path d="M 8.5 21.578125 
L 8.5 54.6875 
L 17.484375 54.6875 
L 17.484375 21.921875 
Q 17.484375 14.15625 20.5 10.265625 
Q 23.53125 6.390625 29.59375 6.390625 
Q 36.859375 6.390625 41.078125 11.03125 
Q 45.3125 15.671875 45.3125 23.6875 
L 45.3125 54.6875 
L 54.296875 54.6875 
L 54.296875 0 
L 45.3125 0 
L 45.3125 8.40625 
Q 42.046875 3.421875 37.71875 1 
Q 33.40625 -1.421875 27.6875 -1.421875 
Q 18.265625 -1.421875 13.375 4.4375 
Q 8.5 10.296875 8.5 21.578125 
z
M 31.109375 56 
z
" id="DejaVuSans-117"/>
      <path d="M 11.71875 12.40625 
L 22.015625 12.40625 
L 22.015625 4 
L 14.015625 -11.625 
L 7.71875 -11.625 
L 11.71875 4 
z
" id="DejaVuSans-44"/>
      <path d="M 18.109375 8.203125 
L 18.109375 -20.796875 
L 9.078125 -20.796875 
L 9.078125 54.6875 
L 18.109375 54.6875 
L 18.109375 46.390625 
Q 20.953125 51.265625 25.265625 53.625 
Q 29.59375 56 35.59375 56 
Q 45.5625 56 51.78125 48.09375 
Q 58.015625 40.1875 58.015625 27.296875 
Q 58.015625 14.40625 51.78125 6.484375 
Q 45.5625 -1.421875 35.59375 -1.421875 
Q 29.59375 -1.421875 25.265625 0.953125 
Q 20.953125 3.328125 18.109375 8.203125 
z
M 48.6875 27.296875 
Q 48.6875 37.203125 44.609375 42.84375 
Q 40.53125 48.484375 33.40625 48.484375 
Q 26.265625 48.484375 22.1875 42.84375 
Q 18.109375 37.203125 18.109375 27.296875 
Q 18.109375 17.390625 22.1875 11.75 
Q 26.265625 6.109375 33.40625 6.109375 
Q 40.53125 6.109375 44.609375 11.75 
Q 48.6875 17.390625 48.6875 27.296875 
z
" id="DejaVuSans-112"/>
     </defs>
     <g transform="translate(17.619531 298.435375)rotate(-90)scale(0.17 -0.17)">
      <use xlink:href="#DejaVuSans-70"/>
      <use x="57.410156" xlink:href="#DejaVuSans-114"/>
      <use x="98.523438" xlink:href="#DejaVuSans-97"/>
      <use x="159.802734" xlink:href="#DejaVuSans-99"/>
      <use x="214.783203" xlink:href="#DejaVuSans-116"/>
      <use x="253.992188" xlink:href="#DejaVuSans-105"/>
      <use x="281.775391" xlink:href="#DejaVuSans-111"/>
      <use x="342.957031" xlink:href="#DejaVuSans-110"/>
      <use x="406.335938" xlink:href="#DejaVuSans-32"/>
      <use x="438.123047" xlink:href="#DejaVuSans-111"/>
      <use x="499.304688" xlink:href="#DejaVuSans-102"/>
      <use x="534.509766" xlink:href="#DejaVuSans-32"/>
      <use x="566.296875" xlink:href="#DejaVuSans-102"/>
      <use x="601.501953" xlink:href="#DejaVuSans-117"/>
      <use x="664.880859" xlink:href="#DejaVuSans-110"/>
      <use x="728.259766" xlink:href="#DejaVuSans-99"/>
      <use x="783.240234" xlink:href="#DejaVuSans-116"/>
      <use x="822.449219" xlink:href="#DejaVuSans-105"/>
      <use x="850.232422" xlink:href="#DejaVuSans-111"/>
      <use x="911.414062" xlink:href="#DejaVuSans-110"/>
      <use x="974.792969" xlink:href="#DejaVuSans-44"/>
      <use x="1006.580078" xlink:href="#DejaVuSans-116"/>
      <use x="1045.789062" xlink:href="#DejaVuSans-97"/>
      <use x="1107.068359" xlink:href="#DejaVuSans-114"/>
      <use x="1148.166016" xlink:href="#DejaVuSans-103"/>
      <use x="1211.642578" xlink:href="#DejaVuSans-101"/>
      <use x="1273.166016" xlink:href="#DejaVuSans-116"/>
      <use x="1312.375" xlink:href="#DejaVuSans-32"/>
      <use x="1344.162109" xlink:href="#DejaVuSans-112"/>
      <use x="1407.638672" xlink:href="#DejaVuSans-97"/>
      <use x="1468.917969" xlink:href="#DejaVuSans-105"/>
      <use x="1496.701172" xlink:href="#DejaVuSans-114"/>
      <use x="1537.814453" xlink:href="#DejaVuSans-115"/>
     </g>
    </g>
   </g>
   <g id="line2d_33">
    <defs>
     <path d="M 0 1.5 
C 0.397805 1.5 0.77937 1.341951 1.06066 1.06066 
C 1.341951 0.77937 1.5 0.397805 1.5 0 
C 1.5 -0.397805 1.341951 -0.77937 1.06066 -1.06066 
C 0.77937 -1.341951 0.397805 -1.5 0 -1.5 
C -0.397805 -1.5 -0.77937 -1.341951 -1.06066 -1.06066 
C -1.341951 -0.77937 -1.5 -0.397805 -1.5 0 
C -1.5 0.397805 -1.341951 0.77937 -1.06066 1.06066 
C -0.77937 1.341951 -0.397805 1.5 0 1.5 
z
" id="m16282a6e83" style="stroke:#f5deb3;"/>
    </defs>
    <g>
     <use style="fill:#f5deb3;stroke:#f5deb3;" x="341.347276" xlink:href="#m16282a6e83" y="109.064587"/>
     <use style="fill:#f5deb3;stroke:#f5deb3;" x="341.347276" xlink:href="#m16282a6e83" y="109.064587"/>
    </g>
   </g>
   <g id="line2d_34">
    <defs>
     <path d="M 0 1.5 
C 0.397805 1.5 0.77937 1.341951 1.06066 1.06066 
C 1.341951 0.77937 1.5 0.397805 1.5 0 
C 1.5 -0.397805 1.341951 -0.77937 1.06066 -1.06066 
C 0.77937 -1.341951 0.397805 -1.5 0 -1.5 
C -0.397805 -1.5 -0.77937 -1.341951 -1.06066 -1.06066 
C -1.341951 -0.77937 -1.5 -0.397805 -1.5 0 
C -1.5 0.397805 -1.341951 0.77937 -1.06066 1.06066 
C -0.77937 1.341951 -0.397805 1.5 0 1.5 
z
" id="m048983b2c9" style="stroke:#000080;"/>
    </defs>
    <g>
     <use style="fill:#000080;stroke:#000080;" x="211.002486" xlink:href="#m048983b2c9" y="210.951101"/>
     <use style="fill:#000080;stroke:#000080;" x="211.002486" xlink:href="#m048983b2c9" y="210.951101"/>
    </g>
   </g>
   <g id="line2d_35">
    <path d="M 5.356583 298.944 
L 5.356583 291.070951 
L 64.079801 291.070951 
L 64.079801 287.829108 
L 77.609874 287.829108 
L 77.609874 286.439746 
L 78.154896 286.439746 
L 78.154896 285.050384 
L 78.941764 285.050384 
L 78.941764 283.661023 
L 91.029752 283.661023 
L 91.029752 281.808541 
L 91.535274 281.808541 
L 91.535274 280.419179 
L 93.754628 280.419179 
L 93.754628 278.566697 
L 96.768882 278.566697 
L 96.768882 277.177336 
L 97.403108 277.177336 
L 97.403108 275.787974 
L 101.646892 275.787974 
L 101.646892 274.398612 
L 104.942325 274.398612 
L 104.942325 272.54613 
L 105.677314 272.54613 
L 105.677314 271.156769 
L 112.242812 271.156769 
L 112.242812 269.304287 
L 115.365285 269.304287 
L 115.365285 267.914925 
L 116.768501 267.914925 
L 116.768501 264.673082 
L 120.382253 264.673082 
L 120.382253 261.894358 
L 120.921776 261.894358 
L 120.921776 260.504997 
L 125.875108 260.504997 
L 125.875108 258.652515 
L 127.373678 258.652515 
L 127.373678 257.263153 
L 132.386657 257.263153 
L 132.386657 255.873792 
L 137.107884 255.873792 
L 137.107884 252.631948 
L 138.409402 252.631948 
L 138.409402 250.779466 
L 140.484155 250.779466 
L 140.484155 249.390104 
L 144.641416 249.390104 
L 144.641416 247.537622 
L 151.292481 247.537622 
L 151.292481 246.148261 
L 152.260923 246.148261 
L 152.260923 244.758899 
L 155.313005 244.758899 
L 155.313005 241.053935 
L 157.953917 241.053935 
L 157.953917 239.664574 
L 168.835167 239.664574 
L 168.835167 236.88585 
L 173.524119 236.88585 
L 173.524119 233.644007 
L 175.93774 233.644007 
L 175.93774 230.865284 
L 183.275333 230.865284 
L 183.275333 229.012802 
L 183.653468 229.012802 
L 183.653468 225.770958 
L 184.445975 225.770958 
L 184.445975 222.992235 
L 185.355094 222.992235 
L 185.355094 221.602873 
L 189.514881 221.602873 
L 189.514881 220.213512 
L 199.611006 220.213512 
L 199.611006 216.508548 
L 210.99523 216.508548 
L 210.99523 213.729825 
L 211.002486 213.729825 
L 211.002486 210.951101 
L 338.688 210.951101 
" style="fill:none;stroke:#000080;stroke-linecap:square;stroke-width:1.5;"/>
   </g>
   <g id="line2d_36">
    <defs>
     <path d="M 0 6 
C 1.591219 6 3.117479 5.367802 4.242641 4.242641 
C 5.367802 3.117479 6 1.591219 6 0 
C 6 -1.591219 5.367802 -3.117479 4.242641 -4.242641 
C 3.117479 -5.367802 1.591219 -6 0 -6 
C -1.591219 -6 -3.117479 -5.367802 -4.242641 -4.242641 
C -5.367802 -3.117479 -6 -1.591219 -6 0 
C -6 1.591219 -5.367802 3.117479 -4.242641 4.242641 
C -3.117479 5.367802 -1.591219 6 0 6 
z
" id="mba7afb699d" style="stroke:#000080;stroke-width:1.5;"/>
    </defs>
    <g>
     <use style="fill-opacity:0;stroke:#000080;stroke-width:1.5;" x="78.941764" xlink:href="#mba7afb699d" y="283.661023"/>
     <use style="fill-opacity:0;stroke:#000080;stroke-width:1.5;" x="157.953917" xlink:href="#mba7afb699d" y="239.664574"/>
     <use style="fill-opacity:0;stroke:#000080;stroke-width:1.5;" x="211.002486" xlink:href="#mba7afb699d" y="213.729825"/>
     <use style="fill-opacity:0;stroke:#000080;stroke-width:1.5;" x="211.002486" xlink:href="#mba7afb699d" y="210.951101"/>
     <use style="fill-opacity:0;stroke:#000080;stroke-width:1.5;" x="211.002486" xlink:href="#mba7afb699d" y="210.951101"/>
     <use style="fill-opacity:0;stroke:#000080;stroke-width:1.5;" x="338.688" xlink:href="#mba7afb699d" y="210.951101"/>
    </g>
   </g>
   <g id="line2d_37">
    <path style="fill:none;stroke:#000080;stroke-linecap:square;stroke-width:1.5;"/>
    <g/>
   </g>
   <g id="line2d_38">
    <path clip-path="url(#p991d1e551b)" d="M 218.222325 210.951101 
" style="fill:none;stroke:#000080;stroke-linecap:square;stroke-width:1.5;"/>
    <defs>
     <path d="M -12 12 
L 12 -12 
M -12 -12 
L 12 12 
" id="m663740f6c2" style="stroke:#000080;"/>
    </defs>
    <g clip-path="url(#p991d1e551b)">
     <use style="fill:#000080;stroke:#000080;" x="218.222325" xlink:href="#m663740f6c2" y="210.951101"/>
    </g>
   </g>
   <g id="line2d_39">
    <defs>
     <path d="M 0 1.5 
C 0.397805 1.5 0.77937 1.341951 1.06066 1.06066 
C 1.341951 0.77937 1.5 0.397805 1.5 0 
C 1.5 -0.397805 1.341951 -0.77937 1.06066 -1.06066 
C 0.77937 -1.341951 0.397805 -1.5 0 -1.5 
C -0.397805 -1.5 -0.77937 -1.341951 -1.06066 -1.06066 
C -1.341951 -0.77937 -1.5 -0.397805 -1.5 0 
C -1.5 0.397805 -1.341951 0.77937 -1.06066 1.06066 
C -0.77937 1.341951 -0.397805 1.5 0 1.5 
z
" id="mc38061cd09" style="stroke:#ff00ff;"/>
    </defs>
    <g>
     <use style="fill:#ff00ff;stroke:#ff00ff;" x="203.137914" xlink:href="#mc38061cd09" y="214.192945"/>
     <use style="fill:#ff00ff;stroke:#ff00ff;" x="203.137914" xlink:href="#mc38061cd09" y="214.192945"/>
    </g>
   </g>
   <g id="line2d_40">
    <path d="M 5.356583 298.944 
L 5.356583 291.070951 
L 36.60358 291.070951 
L 36.60358 289.68159 
L 69.246464 289.68159 
L 69.246464 288.292228 
L 78.941764 288.292228 
L 78.941764 286.902867 
L 84.772922 286.902867 
L 84.772922 285.050384 
L 86.847358 285.050384 
L 86.847358 281.808541 
L 91.284345 281.808541 
L 91.284345 280.419179 
L 96.395835 280.419179 
L 96.395835 279.029818 
L 98.523051 279.029818 
L 98.523051 277.177336 
L 99.338119 277.177336 
L 99.338119 275.787974 
L 101.854917 275.787974 
L 101.854917 273.935492 
L 104.17499 273.935492 
L 104.17499 272.54613 
L 106.435663 272.54613 
L 106.435663 271.156769 
L 111.185562 271.156769 
L 111.185562 269.304287 
L 112.544146 269.304287 
L 112.544146 267.914925 
L 116.943478 267.914925 
L 116.943478 264.673082 
L 118.094355 264.673082 
L 118.094355 261.894358 
L 122.340747 261.894358 
L 122.340747 260.504997 
L 124.235556 260.504997 
L 124.235556 259.115635 
L 132.893889 259.115635 
L 132.893889 255.873792 
L 133.755823 255.873792 
L 133.755823 254.02131 
L 136.170062 254.02131 
L 136.170062 252.631948 
L 137.84096 252.631948 
L 137.84096 251.242587 
L 138.290362 251.242587 
L 138.290362 249.390104 
L 140.226464 249.390104 
L 140.226464 248.000743 
L 148.891932 248.000743 
L 148.891932 246.611381 
L 156.32159 246.611381 
L 156.32159 245.22202 
L 163.211658 245.22202 
L 163.211658 243.369538 
L 168.860316 243.369538 
L 168.860316 240.590815 
L 169.484666 240.590815 
L 169.484666 237.348971 
L 178.181007 237.348971 
L 178.181007 234.107127 
L 180.927596 234.107127 
L 180.927596 230.865284 
L 181.959144 230.865284 
L 181.959144 227.62344 
L 183.341827 227.62344 
L 183.341827 225.770958 
L 194.495064 225.770958 
L 194.495064 224.381596 
L 197.122975 224.381596 
L 197.122975 221.602873 
L 198.689196 221.602873 
L 198.689196 220.213512 
L 202.581835 220.213512 
L 202.581835 216.971668 
L 203.137914 216.971668 
L 203.137914 214.192945 
L 338.688 214.192945 
" style="fill:none;stroke:#ff00ff;stroke-linecap:square;stroke-width:1.5;"/>
   </g>
   <g id="line2d_41">
    <defs>
     <path d="M 0 8.485281 
L 5.091169 0 
L 0 -8.485281 
L -5.091169 0 
z
" id="mb2506553cd" style="stroke:#ff00ff;stroke-linejoin:miter;stroke-width:1.5;"/>
    </defs>
    <g>
     <use style="fill-opacity:0;stroke:#ff00ff;stroke-linejoin:miter;stroke-width:1.5;" x="122.340747" xlink:href="#mb2506553cd" y="261.894358"/>
     <use style="fill-opacity:0;stroke:#ff00ff;stroke-linejoin:miter;stroke-width:1.5;" x="169.484666" xlink:href="#mb2506553cd" y="237.348971"/>
     <use style="fill-opacity:0;stroke:#ff00ff;stroke-linejoin:miter;stroke-width:1.5;" x="203.137914" xlink:href="#mb2506553cd" y="214.192945"/>
     <use style="fill-opacity:0;stroke:#ff00ff;stroke-linejoin:miter;stroke-width:1.5;" x="203.137914" xlink:href="#mb2506553cd" y="214.192945"/>
     <use style="fill-opacity:0;stroke:#ff00ff;stroke-linejoin:miter;stroke-width:1.5;" x="338.688" xlink:href="#mb2506553cd" y="214.192945"/>
    </g>
   </g>
   <g id="line2d_42">
    <path style="fill:none;stroke:#ff00ff;stroke-linecap:square;stroke-width:1.5;"/>
    <g/>
   </g>
   <g id="line2d_43">
    <path clip-path="url(#p991d1e551b)" d="M 218.222063 214.192945 
" style="fill:none;stroke:#ff00ff;stroke-linecap:square;stroke-width:1.5;"/>
    <defs>
     <path d="M -12 12 
L 12 -12 
M -12 -12 
L 12 12 
" id="mfff62dee18" style="stroke:#ff00ff;"/>
    </defs>
    <g clip-path="url(#p991d1e551b)">
     <use style="fill:#ff00ff;stroke:#ff00ff;" x="218.222063" xlink:href="#mfff62dee18" y="214.192945"/>
    </g>
   </g>
   <g id="line2d_44">
    <defs>
     <path d="M 0 1.5 
C 0.397805 1.5 0.77937 1.341951 1.06066 1.06066 
C 1.341951 0.77937 1.5 0.397805 1.5 0 
C 1.5 -0.397805 1.341951 -0.77937 1.06066 -1.06066 
C 0.77937 -1.341951 0.397805 -1.5 0 -1.5 
C -0.397805 -1.5 -0.77937 -1.341951 -1.06066 -1.06066 
C -1.341951 -0.77937 -1.5 -0.397805 -1.5 0 
C -1.5 0.397805 -1.341951 0.77937 -1.06066 1.06066 
C -0.77937 1.341951 -0.397805 1.5 0 1.5 
z
" id="m1bfb4dbc4b" style="stroke:#ffa500;"/>
    </defs>
    <g>
     <use style="fill:#ffa500;stroke:#ffa500;" x="205.146257" xlink:href="#m1bfb4dbc4b" y="216.508548"/>
     <use style="fill:#ffa500;stroke:#ffa500;" x="205.146257" xlink:href="#m1bfb4dbc4b" y="216.508548"/>
    </g>
   </g>
   <g id="line2d_45">
    <path d="M 5.356583 298.944 
L 5.356583 291.070951 
L 70.538854 291.070951 
L 70.538854 289.68159 
L 83.830028 289.68159 
L 83.830028 288.292228 
L 85.840967 288.292228 
L 85.840967 286.902867 
L 86.847358 286.902867 
L 86.847358 285.513505 
L 88.255778 285.513505 
L 88.255778 284.124143 
L 88.846997 284.124143 
L 88.846997 280.8823 
L 90.640756 280.8823 
L 90.640756 279.492938 
L 92.267099 279.492938 
L 92.267099 277.640456 
L 97.580158 277.640456 
L 97.580158 275.787974 
L 100.493461 275.787974 
L 100.493461 273.935492 
L 100.715621 273.935492 
L 100.715621 272.54613 
L 102.728744 272.54613 
L 102.728744 270.693648 
L 105.677314 270.693648 
L 105.677314 269.304287 
L 108.810674 269.304287 
L 108.810674 267.914925 
L 114.182507 267.914925 
L 114.182507 266.525564 
L 114.351658 266.525564 
L 114.351658 263.746841 
L 120.967912 263.746841 
L 120.967912 262.357479 
L 129.894764 262.357479 
L 129.894764 259.115635 
L 130.438511 259.115635 
L 130.438511 255.873792 
L 131.938072 255.873792 
L 131.938072 254.48443 
L 133.5443 254.48443 
L 133.5443 253.095069 
L 135.800036 253.095069 
L 135.800036 251.242587 
L 136.664018 251.242587 
L 136.664018 249.853225 
L 139.675745 249.853225 
L 139.675745 248.000743 
L 151.023238 248.000743 
L 151.023238 246.611381 
L 155.603109 246.611381 
L 155.603109 245.22202 
L 158.053098 245.22202 
L 158.053098 243.369538 
L 162.916926 243.369538 
L 162.916926 240.590815 
L 176.297527 240.590815 
L 176.297527 237.812091 
L 176.3409 237.812091 
L 176.3409 234.570248 
L 176.614066 234.570248 
L 176.614066 231.328404 
L 191.613498 231.328404 
L 191.613498 228.086561 
L 191.90852 228.086561 
L 191.90852 226.697199 
L 195.054006 226.697199 
L 195.054006 225.307837 
L 202.919745 225.307837 
L 202.919745 222.065994 
L 202.960585 222.065994 
L 202.960585 220.213512 
L 205.146257 220.213512 
L 205.146257 216.508548 
L 338.688 216.508548 
" style="fill:none;stroke:#ffa500;stroke-linecap:square;stroke-width:1.5;"/>
   </g>
   <g id="line2d_46">
    <defs>
     <path d="M 0 -6 
L -1.347084 -1.854102 
L -5.706339 -1.854102 
L -2.179628 0.708204 
L -3.526712 4.854102 
L -0 2.291796 
L 3.526712 4.854102 
L 2.179628 0.708204 
L 5.706339 -1.854102 
L 1.347084 -1.854102 
z
" id="m6f181fb3ce" style="stroke:#ffa500;stroke-linejoin:bevel;stroke-width:1.5;"/>
    </defs>
    <g>
     <use style="fill-opacity:0;stroke:#ffa500;stroke-linejoin:bevel;stroke-width:1.5;" x="114.351658" xlink:href="#m6f181fb3ce" y="263.746841"/>
     <use style="fill-opacity:0;stroke:#ffa500;stroke-linejoin:bevel;stroke-width:1.5;" x="176.614066" xlink:href="#m6f181fb3ce" y="234.570248"/>
     <use style="fill-opacity:0;stroke:#ffa500;stroke-linejoin:bevel;stroke-width:1.5;" x="205.146257" xlink:href="#m6f181fb3ce" y="220.213512"/>
     <use style="fill-opacity:0;stroke:#ffa500;stroke-linejoin:bevel;stroke-width:1.5;" x="205.146257" xlink:href="#m6f181fb3ce" y="216.508548"/>
     <use style="fill-opacity:0;stroke:#ffa500;stroke-linejoin:bevel;stroke-width:1.5;" x="205.146257" xlink:href="#m6f181fb3ce" y="216.508548"/>
     <use style="fill-opacity:0;stroke:#ffa500;stroke-linejoin:bevel;stroke-width:1.5;" x="338.688" xlink:href="#m6f181fb3ce" y="216.508548"/>
    </g>
   </g>
   <g id="line2d_47">
    <path style="fill:none;stroke:#ffa500;stroke-linecap:square;stroke-width:1.5;"/>
    <g/>
   </g>
   <g id="line2d_48">
    <path clip-path="url(#p991d1e551b)" d="M 218.222237 216.508548 
" style="fill:none;stroke:#ffa500;stroke-linecap:square;stroke-width:1.5;"/>
    <defs>
     <path d="M -12 12 
L 12 -12 
M -12 -12 
L 12 12 
" id="m794381d489" style="stroke:#ffa500;"/>
    </defs>
    <g clip-path="url(#p991d1e551b)">
     <use style="fill:#ffa500;stroke:#ffa500;" x="218.222237" xlink:href="#m794381d489" y="216.508548"/>
    </g>
   </g>
   <g id="line2d_49">
    <defs>
     <path d="M 0 1.5 
C 0.397805 1.5 0.77937 1.341951 1.06066 1.06066 
C 1.341951 0.77937 1.5 0.397805 1.5 0 
C 1.5 -0.397805 1.341951 -0.77937 1.06066 -1.06066 
C 0.77937 -1.341951 0.397805 -1.5 0 -1.5 
C -0.397805 -1.5 -0.77937 -1.341951 -1.06066 -1.06066 
C -1.341951 -0.77937 -1.5 -0.397805 -1.5 0 
C -1.5 0.397805 -1.341951 0.77937 -1.06066 1.06066 
C -0.77937 1.341951 -0.397805 1.5 0 1.5 
z
" id="m512dfe4b71" style="stroke:#6495ed;"/>
    </defs>
    <g>
     <use style="fill:#6495ed;stroke:#6495ed;" x="213.083529" xlink:href="#m512dfe4b71" y="216.971668"/>
     <use style="fill:#6495ed;stroke:#6495ed;" x="213.083529" xlink:href="#m512dfe4b71" y="216.971668"/>
    </g>
   </g>
   <g id="line2d_50">
    <path d="M 5.356583 298.944 
L 5.356583 292.923433 
L 41.620548 292.923433 
L 41.620548 292.460313 
L 51.379845 292.460313 
L 51.379845 291.997192 
L 53.708537 291.997192 
L 53.708537 291.534072 
L 55.762588 291.534072 
L 55.762588 291.070951 
L 91.029752 291.070951 
L 91.029752 290.607831 
L 108.530893 290.607831 
L 108.530893 290.14471 
L 109.71213 290.14471 
L 109.71213 289.218469 
L 121.059819 289.218469 
L 121.059819 288.755349 
L 121.931406 288.755349 
L 121.931406 288.292228 
L 124.557288 288.292228 
L 124.557288 287.365987 
L 127.261631 287.365987 
L 127.277682 286.439746 
L 129.233413 286.439746 
L 129.233413 285.976625 
L 132.612604 285.976625 
L 132.612604 285.513505 
L 140.841591 285.513505 
L 140.841591 285.050384 
L 145.760622 285.050384 
L 145.760622 284.587264 
L 149.413639 284.587264 
L 149.413639 284.124143 
L 150.159417 284.124143 
L 150.159417 283.661023 
L 150.820621 283.661023 
L 150.820621 283.197902 
L 151.142054 283.197902 
L 151.195055 282.271661 
L 151.920633 282.271661 
L 151.920633 281.808541 
L 152.5194 281.808541 
L 152.5194 281.34542 
L 155.405981 281.34542 
L 155.405981 280.8823 
L 156.879909 280.8823 
L 156.879909 280.419179 
L 157.890255 280.419179 
L 157.890255 279.956059 
L 159.234659 279.956059 
L 159.234659 279.492938 
L 161.249588 279.492938 
L 161.249588 279.029818 
L 161.63189 279.029818 
L 161.63189 278.566697 
L 162.271149 278.566697 
L 162.365799 277.640456 
L 162.455671 277.640456 
L 162.455671 277.177336 
L 162.839849 277.177336 
L 162.839849 276.714215 
L 163.295251 276.714215 
L 163.295251 276.251095 
L 163.739064 276.251095 
L 163.739064 275.787974 
L 163.893045 275.787974 
L 163.893045 275.324854 
L 165.246397 275.324854 
L 165.246397 274.861733 
L 166.38849 274.861733 
L 166.38849 274.398612 
L 167.083081 274.398612 
L 167.083081 273.472371 
L 167.210292 273.472371 
L 167.315598 272.08301 
L 167.399386 272.08301 
L 167.399386 271.619889 
L 168.571145 271.619889 
L 168.571145 271.156769 
L 168.826282 271.156769 
L 168.826282 270.693648 
L 169.090875 270.693648 
L 169.090875 269.767407 
L 169.794259 269.767407 
L 169.794259 269.304287 
L 170.246535 269.304287 
L 170.246535 268.378046 
L 170.597954 268.378046 
L 170.597954 267.914925 
L 170.950302 267.914925 
L 170.950302 267.451805 
L 171.95293 267.451805 
L 171.95293 266.988684 
L 172.803442 266.988684 
L 172.803442 266.525564 
L 173.50714 266.525564 
L 173.50714 266.062443 
L 174.029253 266.062443 
L 174.114772 264.673082 
L 174.893355 264.673082 
L 174.893355 264.209961 
L 175.243353 264.209961 
L 175.320072 263.28372 
L 175.428944 263.28372 
L 175.428944 262.8206 
L 177.183696 262.8206 
L 177.183696 261.894358 
L 177.397017 261.894358 
L 177.397017 260.968117 
L 177.815988 260.968117 
L 177.884849 260.041876 
L 177.930605 260.041876 
L 177.930605 259.115635 
L 178.086329 259.115635 
L 178.086329 258.652515 
L 178.292396 258.652515 
L 178.292396 258.189394 
L 178.635866 258.189394 
L 178.744397 257.263153 
L 179.544346 257.263153 
L 179.544346 256.800033 
L 180.637326 256.800033 
L 180.637326 256.336912 
L 181.135774 256.336912 
L 181.135774 255.873792 
L 182.106394 255.873792 
L 182.106394 254.947551 
L 183.44526 254.947551 
L 183.44526 254.02131 
L 184.785578 254.02131 
L 184.785578 253.558189 
L 184.967906 253.558189 
L 184.967906 253.095069 
L 185.545227 253.095069 
L 185.545227 252.631948 
L 187.296451 252.631948 
L 187.399893 251.705707 
L 188.864768 251.705707 
L 188.864768 251.242587 
L 190.455536 251.242587 
L 190.455536 250.316346 
L 192.173412 250.316346 
L 192.173412 249.853225 
L 192.292991 249.853225 
L 192.292991 249.390104 
L 192.629871 249.390104 
L 192.629871 248.926984 
L 194.093803 248.926984 
L 194.093803 248.463863 
L 194.659148 248.463863 
L 194.659148 248.000743 
L 195.192375 248.000743 
L 195.192375 247.074502 
L 195.369788 247.074502 
L 195.369788 246.611381 
L 195.616001 246.611381 
L 195.616001 245.68514 
L 196.413797 245.68514 
L 196.469128 244.758899 
L 196.917109 244.758899 
L 196.978535 243.369538 
L 197.521842 243.369538 
L 197.588581 241.980176 
L 197.837863 241.980176 
L 197.837863 241.517056 
L 198.059543 241.517056 
L 198.059543 240.590815 
L 198.412545 240.590815 
L 198.412545 240.127694 
L 198.555594 240.127694 
L 198.616083 238.738333 
L 199.179073 238.738333 
L 199.179073 238.275212 
L 199.387264 238.275212 
L 199.387264 237.348971 
L 199.530208 237.348971 
L 199.530208 236.42273 
L 199.907591 236.42273 
L 199.971523 233.644007 
L 200.096962 233.644007 
L 200.140542 232.717766 
L 200.834291 232.717766 
L 200.883376 230.865284 
L 200.975041 230.865284 
L 200.975041 230.402163 
L 201.479645 230.402163 
L 201.588843 228.549681 
L 202.047604 228.549681 
L 202.047604 227.62344 
L 202.793478 227.62344 
L 202.793478 226.697199 
L 203.082329 226.697199 
L 203.082329 226.234079 
L 203.318378 226.234079 
L 203.406079 224.844717 
L 203.553903 224.844717 
L 203.553903 223.918476 
L 204.525198 223.918476 
L 204.525198 222.992235 
L 205.364867 222.992235 
L 205.364867 222.065994 
L 206.199696 222.065994 
L 206.199696 221.139753 
L 206.625151 221.139753 
L 206.625151 220.676632 
L 207.808228 220.676632 
L 207.808228 219.750391 
L 209.467085 219.750391 
L 209.467085 218.82415 
L 210.475943 218.82415 
L 210.475943 217.897909 
L 211.406561 217.897909 
L 211.406561 217.434789 
L 213.083529 217.434789 
L 213.083529 216.971668 
L 338.688 216.971668 
L 338.688 216.971668 
" style="fill:none;stroke:#6495ed;stroke-linecap:square;stroke-width:1.5;"/>
   </g>
   <g id="line2d_51">
    <defs>
     <path d="M -0 6 
L 6 -6 
L -6 -6 
z
" id="mda1b0ddb0b" style="stroke:#6495ed;stroke-linejoin:miter;stroke-width:1.5;"/>
    </defs>
    <g>
     <use style="fill-opacity:0;stroke:#6495ed;stroke-linejoin:miter;stroke-width:1.5;" x="145.760622" xlink:href="#mda1b0ddb0b" y="285.050384"/>
     <use style="fill-opacity:0;stroke:#6495ed;stroke-linejoin:miter;stroke-width:1.5;" x="207.808228" xlink:href="#mda1b0ddb0b" y="220.676632"/>
     <use style="fill-opacity:0;stroke:#6495ed;stroke-linejoin:miter;stroke-width:1.5;" x="213.083529" xlink:href="#mda1b0ddb0b" y="217.434789"/>
     <use style="fill-opacity:0;stroke:#6495ed;stroke-linejoin:miter;stroke-width:1.5;" x="213.083529" xlink:href="#mda1b0ddb0b" y="216.971668"/>
     <use style="fill-opacity:0;stroke:#6495ed;stroke-linejoin:miter;stroke-width:1.5;" x="338.688" xlink:href="#mda1b0ddb0b" y="216.971668"/>
    </g>
   </g>
   <g id="line2d_52">
    <path style="fill:none;stroke:#6495ed;stroke-linecap:square;stroke-width:1.5;"/>
    <g/>
   </g>
   <g id="line2d_53">
    <path clip-path="url(#p991d1e551b)" d="M 258.377221 216.971668 
" style="fill:none;stroke:#6495ed;stroke-linecap:square;stroke-width:1.5;"/>
    <defs>
     <path d="M -12 12 
L 12 -12 
M -12 -12 
L 12 12 
" id="m6e1c71d479" style="stroke:#6495ed;"/>
    </defs>
    <g clip-path="url(#p991d1e551b)">
     <use style="fill:#6495ed;stroke:#6495ed;" x="258.377221" xlink:href="#m6e1c71d479" y="216.971668"/>
    </g>
   </g>
   <g id="line2d_54">
    <defs>
     <path d="M 0 1.5 
C 0.397805 1.5 0.77937 1.341951 1.06066 1.06066 
C 1.341951 0.77937 1.5 0.397805 1.5 0 
C 1.5 -0.397805 1.341951 -0.77937 1.06066 -1.06066 
C 0.77937 -1.341951 0.397805 -1.5 0 -1.5 
C -0.397805 -1.5 -0.77937 -1.341951 -1.06066 -1.06066 
C -1.341951 -0.77937 -1.5 -0.397805 -1.5 0 
C -1.5 0.397805 -1.341951 0.77937 -1.06066 1.06066 
C -0.77937 1.341951 -0.397805 1.5 0 1.5 
z
" id="ma43149b436" style="stroke:#ff0000;"/>
    </defs>
    <g>
     <use style="fill:#ff0000;stroke:#ff0000;" x="300.834914" xlink:href="#ma43149b436" y="145.187988"/>
     <use style="fill:#ff0000;stroke:#ff0000;" x="300.834914" xlink:href="#ma43149b436" y="145.187988"/>
    </g>
   </g>
   <g id="line2d_55">
    <path d="M 5.356583 298.944 
L 5.356583 292.923433 
L 43.6746 292.923433 
L 43.6746 292.460313 
L 54.765787 292.460313 
L 54.765787 291.997192 
L 58.450865 291.997192 
L 58.450865 290.14471 
L 60.037348 290.14471 
L 60.037348 286.902867 
L 60.779557 286.902867 
L 60.779557 285.513505 
L 61.491463 285.513505 
L 61.491463 284.124143 
L 62.175444 284.124143 
L 62.175444 282.734782 
L 63.467834 282.734782 
L 63.467834 282.271661 
L 64.079801 282.271661 
L 64.079801 281.34542 
L 64.67102 281.34542 
L 64.67102 280.8823 
L 65.242851 280.8823 
L 65.242851 279.956059 
L 70.11861 279.956059 
L 70.11861 279.492938 
L 72.125336 279.492938 
L 72.125336 279.029818 
L 73.227131 279.029818 
L 73.227131 278.566697 
L 76.759008 278.566697 
L 76.759008 278.103577 
L 77.609874 278.103577 
L 77.609874 277.640456 
L 77.884514 277.640456 
L 77.884514 277.177336 
L 83.23881 277.177336 
L 83.23881 276.251095 
L 83.830028 276.251095 
L 83.830028 275.787974 
L 93.754628 275.787974 
L 93.863965 274.861733 
L 99.178125 274.861733 
L 99.178125 274.398612 
L 99.338119 274.398612 
L 99.338119 273.935492 
L 109.930396 273.935492 
L 109.930396 273.472371 
L 116.650866 273.472371 
L 116.650866 273.009251 
L 119.45259 273.009251 
L 119.45259 272.08301 
L 136.79465 272.08301 
L 136.79465 271.619889 
L 137.505069 271.619889 
L 137.505069 271.156769 
L 143.87806 271.156769 
L 143.87806 270.693648 
L 147.799224 270.693648 
L 147.799224 270.230528 
L 154.235652 270.230528 
L 154.235652 269.767407 
L 158.929063 269.767407 
L 158.929063 269.304287 
L 163.111226 269.304287 
L 163.111226 268.841166 
L 171.195104 268.841166 
L 171.195104 268.378046 
L 171.834917 268.378046 
L 171.834917 267.914925 
L 179.027252 267.914925 
L 179.135841 266.988684 
L 179.148138 266.988684 
L 179.221739 265.599323 
L 179.331561 265.599323 
L 179.331561 265.136202 
L 179.490589 265.136202 
L 179.546749 262.357479 
L 179.823292 262.357479 
L 179.906662 260.041876 
L 180.261603 260.041876 
L 180.261603 259.115635 
L 180.431453 259.115635 
L 180.431453 258.189394 
L 180.60268 258.189394 
L 180.60268 257.726274 
L 181.078644 257.726274 
L 181.078644 256.800033 
L 181.959144 256.800033 
L 181.959144 256.336912 
L 182.098092 256.336912 
L 182.098092 255.410671 
L 182.604128 255.410671 
L 182.604128 254.947551 
L 182.797317 254.947551 
L 182.797317 254.48443 
L 183.196892 254.48443 
L 183.303769 253.095069 
L 183.310871 253.095069 
L 183.34376 252.168828 
L 184.488865 252.168828 
L 184.488865 251.705707 
L 184.887303 251.705707 
L 184.887303 251.242587 
L 186.021357 251.242587 
L 186.021357 250.316346 
L 186.353586 250.316346 
L 186.386625 248.926984 
L 187.566564 248.926984 
L 187.566564 248.463863 
L 187.908595 248.463863 
L 187.908595 247.537622 
L 188.197773 247.537622 
L 188.253773 246.148261 
L 188.77157 246.148261 
L 188.77157 245.68514 
L 189.041321 245.68514 
L 189.041321 244.758899 
L 189.271684 244.758899 
L 189.36636 243.369538 
L 189.643302 243.369538 
L 189.643302 242.906417 
L 189.911936 242.906417 
L 189.911936 242.443297 
L 192.099866 242.443297 
L 192.099866 241.517056 
L 192.395277 241.517056 
L 192.458042 238.738333 
L 192.543408 238.738333 
L 192.652931 236.88585 
L 192.688783 236.88585 
L 192.688783 235.959609 
L 193.164064 235.959609 
L 193.164064 235.033368 
L 193.46558 235.033368 
L 193.46558 234.570248 
L 193.602424 234.570248 
L 193.602424 233.644007 
L 193.912693 233.644007 
L 194.015367 232.254645 
L 196.401613 232.254645 
L 196.401613 231.328404 
L 196.62054 231.328404 
L 196.62054 230.402163 
L 196.917996 230.402163 
L 197.012403 229.012802 
L 197.983736 229.012802 
L 197.983736 228.549681 
L 202.566649 228.549681 
L 202.626673 227.16032 
L 203.465318 227.16032 
L 203.465318 226.234079 
L 204.709724 226.234079 
L 204.776772 223.918476 
L 204.977687 223.918476 
L 204.977687 222.992235 
L 205.50012 222.992235 
L 205.50012 222.065994 
L 206.31968 222.065994 
L 206.31968 221.139753 
L 209.837513 221.139753 
L 209.837513 220.213512 
L 212.929013 220.213512 
L 212.929013 219.287271 
L 214.97226 219.287271 
L 214.97226 218.82415 
L 215.444854 218.82415 
L 215.444854 217.897909 
L 216.923287 217.897909 
L 216.923287 217.434789 
L 219.56838 217.434789 
L 219.56838 216.508548 
L 222.136182 216.508548 
L 222.191548 215.119186 
L 223.446859 215.119186 
L 223.446859 214.656066 
L 224.430312 214.656066 
L 224.492013 213.266704 
L 224.54191 213.266704 
L 224.622922 210.02486 
L 225.230365 210.02486 
L 225.230365 209.56174 
L 227.878366 209.56174 
L 227.979068 206.319896 
L 228.075376 206.319896 
L 228.075376 205.856776 
L 228.985283 205.856776 
L 228.985283 204.930535 
L 229.449891 204.930535 
L 229.449891 204.004294 
L 231.104631 204.004294 
L 231.104631 203.541173 
L 231.352215 203.541173 
L 231.352215 203.078053 
L 232.745837 203.078053 
L 232.745837 202.614932 
L 238.074706 202.614932 
L 238.074706 201.688691 
L 239.386757 201.688691 
L 239.386757 201.225571 
L 242.544456 201.225571 
L 242.544456 200.76245 
L 244.634629 200.76245 
L 244.634629 200.299329 
L 245.17739 200.299329 
L 245.17739 199.836209 
L 245.926972 199.836209 
L 245.926972 199.373088 
L 246.692532 199.373088 
L 246.746314 198.446847 
L 247.60614 198.446847 
L 247.65581 196.594365 
L 248.105536 196.594365 
L 248.105536 196.131245 
L 250.693338 196.131245 
L 250.798997 193.352522 
L 250.843363 193.352522 
L 250.904663 189.647558 
L 254.64664 189.647558 
L 254.64664 189.184437 
L 255.105708 189.184437 
L 255.105708 188.721316 
L 259.690578 188.721316 
L 259.74367 186.868834 
L 260.783224 186.868834 
L 260.790757 185.942593 
L 265.652552 185.942593 
L 265.652552 185.479473 
L 266.450324 185.479473 
L 266.450324 185.016352 
L 266.762787 185.016352 
L 266.762787 184.553232 
L 269.494163 184.553232 
L 269.494163 183.626991 
L 269.953934 183.626991 
L 269.953934 183.16387 
L 270.457753 183.16387 
L 270.461709 181.774509 
L 270.820196 181.774509 
L 270.820196 181.311388 
L 271.251335 181.311388 
L 271.251335 180.385147 
L 272.600342 180.385147 
L 272.600342 179.922027 
L 273.559358 179.922027 
L 273.559358 179.458906 
L 275.763741 179.458906 
L 275.766305 178.069545 
L 276.295477 178.069545 
L 276.297041 176.217062 
L 277.691556 176.217062 
L 277.722934 174.36458 
L 277.920416 174.36458 
L 277.920416 173.90146 
L 278.555826 173.90146 
L 278.555826 173.438339 
L 278.73198 173.438339 
L 278.73198 172.975219 
L 280.324437 172.975219 
L 280.324437 172.512098 
L 280.631477 172.512098 
L 280.632059 171.585857 
L 283.924663 171.585857 
L 283.924663 170.659616 
L 284.732061 170.659616 
L 284.732061 169.733375 
L 284.894615 169.733375 
L 284.900498 167.880893 
L 285.677002 167.880893 
L 285.765983 166.954652 
L 285.996058 166.954652 
L 286.00587 165.565291 
L 286.314341 165.565291 
L 286.381872 164.63905 
L 287.66169 164.63905 
L 287.66169 163.712808 
L 289.106165 163.712808 
L 289.106165 163.249688 
L 289.604447 163.249688 
L 289.604447 162.786567 
L 291.256282 162.786567 
L 291.259928 161.860326 
L 291.656496 161.860326 
L 291.659861 160.470965 
L 292.015964 160.470965 
L 292.015964 160.007844 
L 292.297585 160.007844 
L 292.297585 159.544724 
L 293.288769 159.544724 
L 293.288769 158.618483 
L 293.682932 158.618483 
L 293.770788 157.692242 
L 295.266282 157.692242 
L 295.266282 157.229121 
L 296.398184 157.229121 
L 296.398184 156.766001 
L 296.612777 156.766001 
L 296.612777 156.30288 
L 297.943351 156.30288 
L 297.943351 155.83976 
L 298.959491 155.83976 
L 298.959491 155.376639 
L 299.605294 155.376639 
L 299.615788 153.524157 
L 300.199105 153.524157 
L 300.281918 147.50359 
L 300.823284 147.50359 
L 300.834914 145.187988 
L 338.688 145.187988 
L 338.688 145.187988 
" style="fill:none;stroke:#ff0000;stroke-linecap:square;stroke-width:1.5;"/>
   </g>
   <g id="line2d_56">
    <defs>
     <path d="M 0 -6 
L -5.196152 -3 
L -5.196152 3 
L -0 6 
L 5.196152 3 
L 5.196152 -3 
z
" id="m19a7630b1f" style="stroke:#ff0000;stroke-linejoin:miter;stroke-width:1.5;"/>
    </defs>
    <g>
     <use style="fill-opacity:0;stroke:#ff0000;stroke-linejoin:miter;stroke-width:1.5;" x="119.45259" xlink:href="#m19a7630b1f" y="272.08301"/>
     <use style="fill-opacity:0;stroke:#ff0000;stroke-linejoin:miter;stroke-width:1.5;" x="209.837513" xlink:href="#m19a7630b1f" y="221.139753"/>
     <use style="fill-opacity:0;stroke:#ff0000;stroke-linejoin:miter;stroke-width:1.5;" x="278.73198" xlink:href="#m19a7630b1f" y="172.975219"/>
     <use style="fill-opacity:0;stroke:#ff0000;stroke-linejoin:miter;stroke-width:1.5;" x="300.834914" xlink:href="#m19a7630b1f" y="145.187988"/>
     <use style="fill-opacity:0;stroke:#ff0000;stroke-linejoin:miter;stroke-width:1.5;" x="338.688" xlink:href="#m19a7630b1f" y="145.187988"/>
    </g>
   </g>
   <g id="line2d_57">
    <path style="fill:none;stroke:#ff0000;stroke-linecap:square;stroke-width:1.5;"/>
    <g/>
   </g>
   <g id="line2d_58">
    <path clip-path="url(#p991d1e551b)" d="M 301.403103 145.187988 
" style="fill:none;stroke:#ff0000;stroke-linecap:square;stroke-width:1.5;"/>
    <defs>
     <path d="M -12 12 
L 12 -12 
M -12 -12 
L 12 12 
" id="m03330bbab6" style="stroke:#ff0000;"/>
    </defs>
    <g clip-path="url(#p991d1e551b)">
     <use style="fill:#ff0000;stroke:#ff0000;" x="301.403103" xlink:href="#m03330bbab6" y="145.187988"/>
    </g>
   </g>
   <g id="line2d_59">
    <path d="M 338.688 216.971668 
L 369.60768 293.571802 
" style="fill:none;stroke:#6495ed;stroke-linecap:square;stroke-width:1.5;"/>
    <g>
     <use style="fill-opacity:0;stroke:#6495ed;stroke-linejoin:miter;stroke-width:1.5;" x="338.688" xlink:href="#mda1b0ddb0b" y="216.971668"/>
     <use style="fill-opacity:0;stroke:#6495ed;stroke-linejoin:miter;stroke-width:1.5;" x="369.60768" xlink:href="#mda1b0ddb0b" y="293.571802"/>
    </g>
   </g>
   <g id="line2d_60">
    <path d="M 338.688 216.508548 
L 369.60768 241.998701 
" style="fill:none;stroke:#ffa500;stroke-linecap:square;stroke-width:1.5;"/>
    <g>
     <use style="fill-opacity:0;stroke:#ffa500;stroke-linejoin:bevel;stroke-width:1.5;" x="338.688" xlink:href="#m6f181fb3ce" y="216.508548"/>
     <use style="fill-opacity:0;stroke:#ffa500;stroke-linejoin:bevel;stroke-width:1.5;" x="369.60768" xlink:href="#m6f181fb3ce" y="241.998701"/>
    </g>
   </g>
   <g id="line2d_61">
    <path d="M 338.688 214.192945 
L 369.60768 190.4256 
" style="fill:none;stroke:#ff00ff;stroke-linecap:square;stroke-width:1.5;"/>
    <g>
     <use style="fill-opacity:0;stroke:#ff00ff;stroke-linejoin:miter;stroke-width:1.5;" x="338.688" xlink:href="#mb2506553cd" y="214.192945"/>
     <use style="fill-opacity:0;stroke:#ff00ff;stroke-linejoin:miter;stroke-width:1.5;" x="369.60768" xlink:href="#mb2506553cd" y="190.4256"/>
    </g>
   </g>
   <g id="line2d_62">
    <path d="M 338.688 210.951101 
L 369.60768 138.852499 
" style="fill:none;stroke:#000080;stroke-linecap:square;stroke-width:1.5;"/>
    <g>
     <use style="fill-opacity:0;stroke:#000080;stroke-width:1.5;" x="338.688" xlink:href="#mba7afb699d" y="210.951101"/>
     <use style="fill-opacity:0;stroke:#000080;stroke-width:1.5;" x="369.60768" xlink:href="#mba7afb699d" y="138.852499"/>
    </g>
   </g>
   <g id="line2d_63">
    <path d="M 338.688 145.187988 
L 369.60768 87.279398 
" style="fill:none;stroke:#ff0000;stroke-linecap:square;stroke-width:1.5;"/>
    <g>
     <use style="fill-opacity:0;stroke:#ff0000;stroke-linejoin:miter;stroke-width:1.5;" x="338.688" xlink:href="#m19a7630b1f" y="145.187988"/>
     <use style="fill-opacity:0;stroke:#ff0000;stroke-linejoin:miter;stroke-width:1.5;" x="369.60768" xlink:href="#m19a7630b1f" y="87.279398"/>
    </g>
   </g>
   <g id="line2d_64">
    <path d="M 338.688 298.944 
L 338.688 30.334099 
" style="fill:none;stroke:#000000;stroke-linecap:square;stroke-width:1.5;"/>
   </g>
   <g id="patch_3">
    <path d="M 57.6 298.944 
L 57.6 27.648 
" style="fill:none;stroke:#000000;stroke-linecap:square;stroke-linejoin:miter;stroke-width:0.8;"/>
   </g>
   <g id="patch_4">
    <path d="M 338.688 298.944 
L 338.688 27.648 
" style="fill:none;stroke:#000000;stroke-linecap:square;stroke-linejoin:miter;stroke-width:0.8;"/>
   </g>
   <g id="patch_5">
    <path d="M 57.6 298.944 
L 338.688 298.944 
" style="fill:none;stroke:#000000;stroke-linecap:square;stroke-linejoin:miter;stroke-width:0.8;"/>
   </g>
   <g id="patch_6">
    <path d="M 57.6 27.648 
L 338.688 27.648 
" style="fill:none;stroke:#000000;stroke-linecap:square;stroke-linejoin:miter;stroke-width:0.8;"/>
   </g>
   <g id="text_13">
    <!-- COMO-32 b -->
    <defs>
     <path d="M 64.40625 67.28125 
L 64.40625 56.890625 
Q 59.421875 61.53125 53.78125 63.8125 
Q 48.140625 66.109375 41.796875 66.109375 
Q 29.296875 66.109375 22.65625 58.46875 
Q 16.015625 50.828125 16.015625 36.375 
Q 16.015625 21.96875 22.65625 14.328125 
Q 29.296875 6.6875 41.796875 6.6875 
Q 48.140625 6.6875 53.78125 8.984375 
Q 59.421875 11.28125 64.40625 15.921875 
L 64.40625 5.609375 
Q 59.234375 2.09375 53.4375 0.328125 
Q 47.65625 -1.421875 41.21875 -1.421875 
Q 24.65625 -1.421875 15.125 8.703125 
Q 5.609375 18.84375 5.609375 36.375 
Q 5.609375 53.953125 15.125 64.078125 
Q 24.65625 74.21875 41.21875 74.21875 
Q 47.75 74.21875 53.53125 72.484375 
Q 59.328125 70.75 64.40625 67.28125 
z
" id="DejaVuSans-67"/>
     <path d="M 39.40625 66.21875 
Q 28.65625 66.21875 22.328125 58.203125 
Q 16.015625 50.203125 16.015625 36.375 
Q 16.015625 22.609375 22.328125 14.59375 
Q 28.65625 6.59375 39.40625 6.59375 
Q 50.140625 6.59375 56.421875 14.59375 
Q 62.703125 22.609375 62.703125 36.375 
Q 62.703125 50.203125 56.421875 58.203125 
Q 50.140625 66.21875 39.40625 66.21875 
z
M 39.40625 74.21875 
Q 54.734375 74.21875 63.90625 63.9375 
Q 73.09375 53.65625 73.09375 36.375 
Q 73.09375 19.140625 63.90625 8.859375 
Q 54.734375 -1.421875 39.40625 -1.421875 
Q 24.03125 -1.421875 14.8125 8.828125 
Q 5.609375 19.09375 5.609375 36.375 
Q 5.609375 53.65625 14.8125 63.9375 
Q 24.03125 74.21875 39.40625 74.21875 
z
" id="DejaVuSans-79"/>
     <path d="M 9.8125 72.90625 
L 24.515625 72.90625 
L 43.109375 23.296875 
L 61.8125 72.90625 
L 76.515625 72.90625 
L 76.515625 0 
L 66.890625 0 
L 66.890625 64.015625 
L 48.09375 14.015625 
L 38.1875 14.015625 
L 19.390625 64.015625 
L 19.390625 0 
L 9.8125 0 
z
" id="DejaVuSans-77"/>
     <path d="M 40.578125 39.3125 
Q 47.65625 37.796875 51.625 33 
Q 55.609375 28.21875 55.609375 21.1875 
Q 55.609375 10.40625 48.1875 4.484375 
Q 40.765625 -1.421875 27.09375 -1.421875 
Q 22.515625 -1.421875 17.65625 -0.515625 
Q 12.796875 0.390625 7.625 2.203125 
L 7.625 11.71875 
Q 11.71875 9.328125 16.59375 8.109375 
Q 21.484375 6.890625 26.8125 6.890625 
Q 36.078125 6.890625 40.9375 10.546875 
Q 45.796875 14.203125 45.796875 21.1875 
Q 45.796875 27.640625 41.28125 31.265625 
Q 36.765625 34.90625 28.71875 34.90625 
L 20.21875 34.90625 
L 20.21875 43.015625 
L 29.109375 43.015625 
Q 36.375 43.015625 40.234375 45.921875 
Q 44.09375 48.828125 44.09375 54.296875 
Q 44.09375 59.90625 40.109375 62.90625 
Q 36.140625 65.921875 28.71875 65.921875 
Q 24.65625 65.921875 20.015625 65.03125 
Q 15.375 64.15625 9.8125 62.3125 
L 9.8125 71.09375 
Q 15.4375 72.65625 20.34375 73.4375 
Q 25.25 74.21875 29.59375 74.21875 
Q 40.828125 74.21875 47.359375 69.109375 
Q 53.90625 64.015625 53.90625 55.328125 
Q 53.90625 49.265625 50.4375 45.09375 
Q 46.96875 40.921875 40.578125 39.3125 
z
" id="DejaVuSans-51"/>
     <path d="M 48.6875 27.296875 
Q 48.6875 37.203125 44.609375 42.84375 
Q 40.53125 48.484375 33.40625 48.484375 
Q 26.265625 48.484375 22.1875 42.84375 
Q 18.109375 37.203125 18.109375 27.296875 
Q 18.109375 17.390625 22.1875 11.75 
Q 26.265625 6.109375 33.40625 6.109375 
Q 40.53125 6.109375 44.609375 11.75 
Q 48.6875 17.390625 48.6875 27.296875 
z
M 18.109375 46.390625 
Q 20.953125 51.265625 25.265625 53.625 
Q 29.59375 56 35.59375 56 
Q 45.5625 56 51.78125 48.09375 
Q 58.015625 40.1875 58.015625 27.296875 
Q 58.015625 14.40625 51.78125 6.484375 
Q 45.5625 -1.421875 35.59375 -1.421875 
Q 29.59375 -1.421875 25.265625 0.953125 
Q 20.953125 3.328125 18.109375 8.203125 
L 18.109375 0 
L 9.078125 0 
L 9.078125 75.984375 
L 18.109375 75.984375 
z
" id="DejaVuSans-98"/>
    </defs>
    <g transform="translate(375.22944 298.262739)scale(0.17 -0.17)">
     <use xlink:href="#DejaVuSans-67"/>
     <use x="69.824219" xlink:href="#DejaVuSans-79"/>
     <use x="148.535156" xlink:href="#DejaVuSans-77"/>
     <use x="234.814453" xlink:href="#DejaVuSans-79"/>
     <use x="313.556641" xlink:href="#DejaVuSans-45"/>
     <use x="349.640625" xlink:href="#DejaVuSans-51"/>
     <use x="413.263672" xlink:href="#DejaVuSans-50"/>
     <use x="476.886719" xlink:href="#DejaVuSans-32"/>
     <use x="508.673828" xlink:href="#DejaVuSans-98"/>
    </g>
   </g>
   <g id="text_14">
    <!-- tfr-5-tol -->
    <defs>
     <path d="M 10.796875 72.90625 
L 49.515625 72.90625 
L 49.515625 64.59375 
L 19.828125 64.59375 
L 19.828125 46.734375 
Q 21.96875 47.46875 24.109375 47.828125 
Q 26.265625 48.1875 28.421875 48.1875 
Q 40.625 48.1875 47.75 41.5 
Q 54.890625 34.8125 54.890625 23.390625 
Q 54.890625 11.625 47.5625 5.09375 
Q 40.234375 -1.421875 26.90625 -1.421875 
Q 22.3125 -1.421875 17.546875 -0.640625 
Q 12.796875 0.140625 7.71875 1.703125 
L 7.71875 11.625 
Q 12.109375 9.234375 16.796875 8.0625 
Q 21.484375 6.890625 26.703125 6.890625 
Q 35.15625 6.890625 40.078125 11.328125 
Q 45.015625 15.765625 45.015625 23.390625 
Q 45.015625 31 40.078125 35.4375 
Q 35.15625 39.890625 26.703125 39.890625 
Q 22.75 39.890625 18.8125 39.015625 
Q 14.890625 38.140625 10.796875 36.28125 
z
" id="DejaVuSans-53"/>
    </defs>
    <g transform="translate(375.22944 246.689638)scale(0.17 -0.17)">
     <use xlink:href="#DejaVuSans-116"/>
     <use x="39.208984" xlink:href="#DejaVuSans-102"/>
     <use x="74.414062" xlink:href="#DejaVuSans-114"/>
     <use x="115.433594" xlink:href="#DejaVuSans-45"/>
     <use x="151.517578" xlink:href="#DejaVuSans-53"/>
     <use x="215.140625" xlink:href="#DejaVuSans-45"/>
     <use x="251.224609" xlink:href="#DejaVuSans-116"/>
     <use x="290.433594" xlink:href="#DejaVuSans-111"/>
     <use x="351.615234" xlink:href="#DejaVuSans-108"/>
    </g>
   </g>
   <g id="text_15">
    <!-- tfr-3-tol -->
    <g transform="translate(375.22944 195.116537)scale(0.17 -0.17)">
     <use xlink:href="#DejaVuSans-116"/>
     <use x="39.208984" xlink:href="#DejaVuSans-102"/>
     <use x="74.414062" xlink:href="#DejaVuSans-114"/>
     <use x="115.433594" xlink:href="#DejaVuSans-45"/>
     <use x="151.517578" xlink:href="#DejaVuSans-51"/>
     <use x="215.140625" xlink:href="#DejaVuSans-45"/>
     <use x="251.224609" xlink:href="#DejaVuSans-116"/>
     <use x="290.433594" xlink:href="#DejaVuSans-111"/>
     <use x="351.615234" xlink:href="#DejaVuSans-108"/>
    </g>
   </g>
   <g id="text_16">
    <!-- tfr-1-tol -->
    <g transform="translate(375.22944 143.543437)scale(0.17 -0.17)">
     <use xlink:href="#DejaVuSans-116"/>
     <use x="39.208984" xlink:href="#DejaVuSans-102"/>
     <use x="74.414062" xlink:href="#DejaVuSans-114"/>
     <use x="115.433594" xlink:href="#DejaVuSans-45"/>
     <use x="151.517578" xlink:href="#DejaVuSans-49"/>
     <use x="215.140625" xlink:href="#DejaVuSans-45"/>
     <use x="251.224609" xlink:href="#DejaVuSans-116"/>
     <use x="290.433594" xlink:href="#DejaVuSans-111"/>
     <use x="351.615234" xlink:href="#DejaVuSans-108"/>
    </g>
   </g>
   <g id="text_17">
    <!-- HMO-CMA-E -->
    <defs>
     <path d="M 9.8125 72.90625 
L 19.671875 72.90625 
L 19.671875 43.015625 
L 55.515625 43.015625 
L 55.515625 72.90625 
L 65.375 72.90625 
L 65.375 0 
L 55.515625 0 
L 55.515625 34.71875 
L 19.671875 34.71875 
L 19.671875 0 
L 9.8125 0 
z
" id="DejaVuSans-72"/>
     <path d="M 34.1875 63.1875 
L 20.796875 26.90625 
L 47.609375 26.90625 
z
M 28.609375 72.90625 
L 39.796875 72.90625 
L 67.578125 0 
L 57.328125 0 
L 50.6875 18.703125 
L 17.828125 18.703125 
L 11.1875 0 
L 0.78125 0 
z
" id="DejaVuSans-65"/>
     <path d="M 9.8125 72.90625 
L 55.90625 72.90625 
L 55.90625 64.59375 
L 19.671875 64.59375 
L 19.671875 43.015625 
L 54.390625 43.015625 
L 54.390625 34.71875 
L 19.671875 34.71875 
L 19.671875 8.296875 
L 56.78125 8.296875 
L 56.78125 0 
L 9.8125 0 
z
" id="DejaVuSans-69"/>
    </defs>
    <g transform="translate(375.22944 91.970336)scale(0.17 -0.17)">
     <use xlink:href="#DejaVuSans-72"/>
     <use x="75.195312" xlink:href="#DejaVuSans-77"/>
     <use x="161.474609" xlink:href="#DejaVuSans-79"/>
     <use x="240.216797" xlink:href="#DejaVuSans-45"/>
     <use x="276.300781" xlink:href="#DejaVuSans-67"/>
     <use x="346.125" xlink:href="#DejaVuSans-77"/>
     <use x="432.404297" xlink:href="#DejaVuSans-65"/>
     <use x="500.78125" xlink:href="#DejaVuSans-45"/>
     <use x="536.865234" xlink:href="#DejaVuSans-69"/>
    </g>
   </g>
   <g id="text_18">
    <!-- best 2016 -->
    <g transform="translate(375.22944 40.397235)scale(0.17 -0.17)">
     <use xlink:href="#DejaVuSans-98"/>
     <use x="63.476562" xlink:href="#DejaVuSans-101"/>
     <use x="125" xlink:href="#DejaVuSans-115"/>
     <use x="177.099609" xlink:href="#DejaVuSans-116"/>
     <use x="216.308594" xlink:href="#DejaVuSans-32"/>
     <use x="248.095703" xlink:href="#DejaVuSans-50"/>
     <use x="311.71875" xlink:href="#DejaVuSans-48"/>
     <use x="375.341797" xlink:href="#DejaVuSans-49"/>
     <use x="438.964844" xlink:href="#DejaVuSans-54"/>
    </g>
   </g>
   <g id="text_19">
    <!-- bbob-biobj f16, 20-D -->
    <defs>
     <path d="M 9.421875 54.6875 
L 18.40625 54.6875 
L 18.40625 -0.984375 
Q 18.40625 -11.421875 14.421875 -16.109375 
Q 10.453125 -20.796875 1.609375 -20.796875 
L -1.8125 -20.796875 
L -1.8125 -13.1875 
L 0.59375 -13.1875 
Q 5.71875 -13.1875 7.5625 -10.8125 
Q 9.421875 -8.453125 9.421875 -0.984375 
z
M 9.421875 75.984375 
L 18.40625 75.984375 
L 18.40625 64.59375 
L 9.421875 64.59375 
z
" id="DejaVuSans-106"/>
     <path d="M 19.671875 64.796875 
L 19.671875 8.109375 
L 31.59375 8.109375 
Q 46.6875 8.109375 53.6875 14.9375 
Q 60.6875 21.78125 60.6875 36.53125 
Q 60.6875 51.171875 53.6875 57.984375 
Q 46.6875 64.796875 31.59375 64.796875 
z
M 9.8125 72.90625 
L 30.078125 72.90625 
Q 51.265625 72.90625 61.171875 64.09375 
Q 71.09375 55.28125 71.09375 36.53125 
Q 71.09375 17.671875 61.125 8.828125 
Q 51.171875 0 30.078125 0 
L 9.8125 0 
z
" id="DejaVuSans-68"/>
    </defs>
    <g transform="translate(60.41088 38.111366)scale(0.102 -0.102)">
     <use xlink:href="#DejaVuSans-98"/>
     <use x="63.476562" xlink:href="#DejaVuSans-98"/>
     <use x="126.953125" xlink:href="#DejaVuSans-111"/>
     <use x="188.134766" xlink:href="#DejaVuSans-98"/>
     <use x="251.611328" xlink:href="#DejaVuSans-45"/>
     <use x="287.695312" xlink:href="#DejaVuSans-98"/>
     <use x="351.171875" xlink:href="#DejaVuSans-105"/>
     <use x="378.955078" xlink:href="#DejaVuSans-111"/>
     <use x="440.136719" xlink:href="#DejaVuSans-98"/>
     <use x="503.613281" xlink:href="#DejaVuSans-106"/>
     <use x="531.396484" xlink:href="#DejaVuSans-32"/>
     <use x="563.183594" xlink:href="#DejaVuSans-102"/>
     <use x="598.388672" xlink:href="#DejaVuSans-49"/>
     <use x="662.011719" xlink:href="#DejaVuSans-54"/>
     <use x="725.634766" xlink:href="#DejaVuSans-44"/>
     <use x="757.421875" xlink:href="#DejaVuSans-32"/>
     <use x="789.208984" xlink:href="#DejaVuSans-50"/>
     <use x="852.832031" xlink:href="#DejaVuSans-48"/>
     <use x="916.455078" xlink:href="#DejaVuSans-45"/>
     <use x="952.539062" xlink:href="#DejaVuSans-68"/>
    </g>
    <!-- 58 targets: 1..-1.0e-4 -->
    <defs>
     <path d="M 11.71875 12.40625 
L 22.015625 12.40625 
L 22.015625 0 
L 11.71875 0 
z
M 11.71875 51.703125 
L 22.015625 51.703125 
L 22.015625 39.3125 
L 11.71875 39.3125 
z
" id="DejaVuSans-58"/>
    </defs>
    <g transform="translate(60.41088 49.533135)scale(0.102 -0.102)">
     <use xlink:href="#DejaVuSans-53"/>
     <use x="63.623047" xlink:href="#DejaVuSans-56"/>
     <use x="127.246094" xlink:href="#DejaVuSans-32"/>
     <use x="159.033203" xlink:href="#DejaVuSans-116"/>
     <use x="198.242188" xlink:href="#DejaVuSans-97"/>
     <use x="259.521484" xlink:href="#DejaVuSans-114"/>
     <use x="300.619141" xlink:href="#DejaVuSans-103"/>
     <use x="364.095703" xlink:href="#DejaVuSans-101"/>
     <use x="425.619141" xlink:href="#DejaVuSans-116"/>
     <use x="464.828125" xlink:href="#DejaVuSans-115"/>
     <use x="516.927734" xlink:href="#DejaVuSans-58"/>
     <use x="550.619141" xlink:href="#DejaVuSans-32"/>
     <use x="582.40625" xlink:href="#DejaVuSans-49"/>
     <use x="646.029297" xlink:href="#DejaVuSans-46"/>
     <use x="677.816406" xlink:href="#DejaVuSans-46"/>
     <use x="709.603516" xlink:href="#DejaVuSans-45"/>
     <use x="745.6875" xlink:href="#DejaVuSans-49"/>
     <use x="809.310547" xlink:href="#DejaVuSans-46"/>
     <use x="841.097656" xlink:href="#DejaVuSans-48"/>
     <use x="904.720703" xlink:href="#DejaVuSans-101"/>
     <use x="966.244141" xlink:href="#DejaVuSans-45"/>
     <use x="1002.328125" xlink:href="#DejaVuSans-52"/>
    </g>
    <!-- 10, 3 instances -->
    <g transform="translate(60.41088 60.954904)scale(0.102 -0.102)">
     <use xlink:href="#DejaVuSans-49"/>
     <use x="63.623047" xlink:href="#DejaVuSans-48"/>
     <use x="127.246094" xlink:href="#DejaVuSans-44"/>
     <use x="159.033203" xlink:href="#DejaVuSans-32"/>
     <use x="190.820312" xlink:href="#DejaVuSans-51"/>
     <use x="254.443359" xlink:href="#DejaVuSans-32"/>
     <use x="286.230469" xlink:href="#DejaVuSans-105"/>
     <use x="314.013672" xlink:href="#DejaVuSans-110"/>
     <use x="377.392578" xlink:href="#DejaVuSans-115"/>
     <use x="429.492188" xlink:href="#DejaVuSans-116"/>
     <use x="468.701172" xlink:href="#DejaVuSans-97"/>
     <use x="529.980469" xlink:href="#DejaVuSans-110"/>
     <use x="593.359375" xlink:href="#DejaVuSans-99"/>
     <use x="648.339844" xlink:href="#DejaVuSans-101"/>
     <use x="709.863281" xlink:href="#DejaVuSans-115"/>
    </g>
   </g>
   <g id="text_20">
    <!-- v2.3.3.7, hv-hash=67c1f2bcb1c9af92 -->
    <defs>
     <path d="M 8.203125 72.90625 
L 55.078125 72.90625 
L 55.078125 68.703125 
L 28.609375 0 
L 18.3125 0 
L 43.21875 64.59375 
L 8.203125 64.59375 
z
" id="DejaVuSans-55"/>
     <path d="M 54.890625 33.015625 
L 54.890625 0 
L 45.90625 0 
L 45.90625 32.71875 
Q 45.90625 40.484375 42.875 44.328125 
Q 39.84375 48.1875 33.796875 48.1875 
Q 26.515625 48.1875 22.3125 43.546875 
Q 18.109375 38.921875 18.109375 30.90625 
L 18.109375 0 
L 9.078125 0 
L 9.078125 75.984375 
L 18.109375 75.984375 
L 18.109375 46.1875 
Q 21.34375 51.125 25.703125 53.5625 
Q 30.078125 56 35.796875 56 
Q 45.21875 56 50.046875 50.171875 
Q 54.890625 44.34375 54.890625 33.015625 
z
" id="DejaVuSans-104"/>
     <path d="M 10.59375 45.40625 
L 73.1875 45.40625 
L 73.1875 37.203125 
L 10.59375 37.203125 
z
M 10.59375 25.484375 
L 73.1875 25.484375 
L 73.1875 17.1875 
L 10.59375 17.1875 
z
" id="DejaVuSans-61"/>
     <path d="M 10.984375 1.515625 
L 10.984375 10.5 
Q 14.703125 8.734375 18.5 7.8125 
Q 22.3125 6.890625 25.984375 6.890625 
Q 35.75 6.890625 40.890625 13.453125 
Q 46.046875 20.015625 46.78125 33.40625 
Q 43.953125 29.203125 39.59375 26.953125 
Q 35.25 24.703125 29.984375 24.703125 
Q 19.046875 24.703125 12.671875 31.3125 
Q 6.296875 37.9375 6.296875 49.421875 
Q 6.296875 60.640625 12.9375 67.421875 
Q 19.578125 74.21875 30.609375 74.21875 
Q 43.265625 74.21875 49.921875 64.515625 
Q 56.59375 54.828125 56.59375 36.375 
Q 56.59375 19.140625 48.40625 8.859375 
Q 40.234375 -1.421875 26.421875 -1.421875 
Q 22.703125 -1.421875 18.890625 -0.6875 
Q 15.09375 0.046875 10.984375 1.515625 
z
M 30.609375 32.421875 
Q 37.25 32.421875 41.125 36.953125 
Q 45.015625 41.5 45.015625 49.421875 
Q 45.015625 57.28125 41.125 61.84375 
Q 37.25 66.40625 30.609375 66.40625 
Q 23.96875 66.40625 20.09375 61.84375 
Q 16.21875 57.28125 16.21875 49.421875 
Q 16.21875 41.5 20.09375 36.953125 
Q 23.96875 32.421875 30.609375 32.421875 
z
" id="DejaVuSans-57"/>
    </defs>
    <g style="fill:#808080;" transform="translate(103.757281 294.151352)scale(0.1 -0.1)">
     <use xlink:href="#DejaVuSans-118"/>
     <use x="59.179688" xlink:href="#DejaVuSans-50"/>
     <use x="122.802734" xlink:href="#DejaVuSans-46"/>
     <use x="154.589844" xlink:href="#DejaVuSans-51"/>
     <use x="218.212891" xlink:href="#DejaVuSans-46"/>
     <use x="250" xlink:href="#DejaVuSans-51"/>
     <use x="313.623047" xlink:href="#DejaVuSans-46"/>
     <use x="345.410156" xlink:href="#DejaVuSans-55"/>
     <use x="409.033203" xlink:href="#DejaVuSans-44"/>
     <use x="440.820312" xlink:href="#DejaVuSans-32"/>
     <use x="472.607422" xlink:href="#DejaVuSans-104"/>
     <use x="535.986328" xlink:href="#DejaVuSans-118"/>
     <use x="595.134766" xlink:href="#DejaVuSans-45"/>
     <use x="631.21875" xlink:href="#DejaVuSans-104"/>
     <use x="694.597656" xlink:href="#DejaVuSans-97"/>
     <use x="755.876953" xlink:href="#DejaVuSans-115"/>
     <use x="807.976562" xlink:href="#DejaVuSans-104"/>
     <use x="871.355469" xlink:href="#DejaVuSans-61"/>
     <use x="955.144531" xlink:href="#DejaVuSans-54"/>
     <use x="1018.767578" xlink:href="#DejaVuSans-55"/>
     <use x="1082.390625" xlink:href="#DejaVuSans-99"/>
     <use x="1137.371094" xlink:href="#DejaVuSans-49"/>
     <use x="1200.994141" xlink:href="#DejaVuSans-102"/>
     <use x="1236.199219" xlink:href="#DejaVuSans-50"/>
     <use x="1299.822266" xlink:href="#DejaVuSans-98"/>
     <use x="1363.298828" xlink:href="#DejaVuSans-99"/>
     <use x="1418.279297" xlink:href="#DejaVuSans-98"/>
     <use x="1481.755859" xlink:href="#DejaVuSans-49"/>
     <use x="1545.378906" xlink:href="#DejaVuSans-99"/>
     <use x="1600.359375" xlink:href="#DejaVuSans-57"/>
     <use x="1663.982422" xlink:href="#DejaVuSans-97"/>
     <use x="1725.261719" xlink:href="#DejaVuSans-102"/>
     <use x="1760.466797" xlink:href="#DejaVuSans-57"/>
     <use x="1824.089844" xlink:href="#DejaVuSans-50"/>
    </g>
   </g>
   <g id="text_21">
    <!-- 16 sep. Ellipsoid/Rastrigin -->
    <defs>
     <path d="M 44.390625 34.1875 
Q 47.5625 33.109375 50.5625 29.59375 
Q 53.5625 26.078125 56.59375 19.921875 
L 66.609375 0 
L 56 0 
L 46.6875 18.703125 
Q 43.0625 26.03125 39.671875 28.421875 
Q 36.28125 30.8125 30.421875 30.8125 
L 19.671875 30.8125 
L 19.671875 0 
L 9.8125 0 
L 9.8125 72.90625 
L 32.078125 72.90625 
Q 44.578125 72.90625 50.734375 67.671875 
Q 56.890625 62.453125 56.890625 51.90625 
Q 56.890625 45.015625 53.6875 40.46875 
Q 50.484375 35.9375 44.390625 34.1875 
z
M 19.671875 64.796875 
L 19.671875 38.921875 
L 32.078125 38.921875 
Q 39.203125 38.921875 42.84375 42.21875 
Q 46.484375 45.515625 46.484375 51.90625 
Q 46.484375 58.296875 42.84375 61.546875 
Q 39.203125 64.796875 32.078125 64.796875 
z
" id="DejaVuSans-82"/>
    </defs>
    <g transform="translate(68.792437 21.648)scale(0.2 -0.2)">
     <use xlink:href="#DejaVuSans-49"/>
     <use x="63.623047" xlink:href="#DejaVuSans-54"/>
     <use x="127.246094" xlink:href="#DejaVuSans-32"/>
     <use x="159.033203" xlink:href="#DejaVuSans-115"/>
     <use x="211.132812" xlink:href="#DejaVuSans-101"/>
     <use x="272.65625" xlink:href="#DejaVuSans-112"/>
     <use x="336.132812" xlink:href="#DejaVuSans-46"/>
     <use x="367.919922" xlink:href="#DejaVuSans-32"/>
     <use x="399.707031" xlink:href="#DejaVuSans-69"/>
     <use x="462.890625" xlink:href="#DejaVuSans-108"/>
     <use x="490.673828" xlink:href="#DejaVuSans-108"/>
     <use x="518.457031" xlink:href="#DejaVuSans-105"/>
     <use x="546.240234" xlink:href="#DejaVuSans-112"/>
     <use x="609.716797" xlink:href="#DejaVuSans-115"/>
     <use x="661.816406" xlink:href="#DejaVuSans-111"/>
     <use x="722.998047" xlink:href="#DejaVuSans-105"/>
     <use x="750.78125" xlink:href="#DejaVuSans-100"/>
     <use x="814.257812" xlink:href="#DejaVuSans-47"/>
     <use x="847.949219" xlink:href="#DejaVuSans-82"/>
     <use x="917.400391" xlink:href="#DejaVuSans-97"/>
     <use x="978.679688" xlink:href="#DejaVuSans-115"/>
     <use x="1030.779297" xlink:href="#DejaVuSans-116"/>
     <use x="1069.988281" xlink:href="#DejaVuSans-114"/>
     <use x="1111.101562" xlink:href="#DejaVuSans-105"/>
     <use x="1138.884766" xlink:href="#DejaVuSans-103"/>
     <use x="1202.361328" xlink:href="#DejaVuSans-105"/>
     <use x="1230.144531" xlink:href="#DejaVuSans-110"/>
    </g>
   </g>
  </g>
 </g>
 <defs>
  <clipPath id="p991d1e551b">
   <rect height="271.296" width="281.088" x="57.6" y="27.648"/>
  </clipPath>
 </defs>
</svg>
