<?xml version="1.0" encoding="utf-8" standalone="no"?>
<!DOCTYPE svg PUBLIC "-//W3C//DTD SVG 1.1//EN"
  "http://www.w3.org/Graphics/SVG/1.1/DTD/svg11.dtd">
<!-- Created with matplotlib (https://matplotlib.org/) -->
<svg height="345.6pt" version="1.1" viewBox="0 0 460.8 345.6" width="460.8pt" xmlns="http://www.w3.org/2000/svg" xmlns:xlink="http://www.w3.org/1999/xlink">
 <defs>
  <style type="text/css">
*{stroke-linecap:butt;stroke-linejoin:round;}
  </style>
 </defs>
 <g id="figure_1">
  <g id="patch_1">
   <path d="M 0 345.6 
L 460.8 345.6 
L 460.8 0 
L 0 0 
z
" style="fill:#ffffff;"/>
  </g>
  <g id="axes_1">
   <g id="patch_2">
    <path d="M 57.6 298.944 
L 338.688 298.944 
L 338.688 27.648 
L 57.6 27.648 
z
" style="fill:#ffffff;"/>
   </g>
   <g id="line2d_1">
    <path d="M 57.6 298.944 
L 57.6 294.312795 
L 74.704957 294.312795 
L 74.704957 285.050384 
L 85.66744 285.050384 
L 85.66744 275.787974 
L 95.259853 275.787974 
L 95.259853 271.156769 
L 108.948899 271.156769 
L 108.948899 257.263153 
L 136.707671 257.263153 
L 136.707671 248.000743 
L 145.851187 248.000743 
L 145.851187 243.369538 
L 152.637225 243.369538 
L 152.637225 234.107127 
L 159.337899 234.107127 
L 159.337899 220.213512 
L 165.120455 220.213512 
L 165.120455 210.951101 
L 170.137423 210.951101 
L 170.137423 201.688691 
L 174.767737 201.688691 
L 174.767737 192.426281 
L 178.911614 192.426281 
L 178.911614 187.795075 
L 187.808966 187.795075 
L 187.808966 173.90146 
L 209.471454 173.90146 
L 209.471454 169.270255 
L 212.430561 169.270255 
L 212.430561 155.376639 
L 216.541834 155.376639 
L 216.541834 146.114229 
L 233.021134 146.114229 
L 233.021134 141.483024 
L 235.717477 141.483024 
L 235.717477 127.589408 
L 238.969075 127.589408 
L 238.969075 122.958203 
L 239.692766 122.958203 
L 239.692766 109.064587 
L 241.55892 109.064587 
L 241.55892 99.802177 
L 244.301116 99.802177 
L 244.301116 90.539766 
L 248.41025 90.539766 
L 248.41025 85.908561 
L 251.772097 85.908561 
L 251.772097 76.646151 
L 256.372288 76.646151 
L 256.372288 62.752535 
L 338.688 62.752535 
" style="fill:none;stroke:#f5deb3;stroke-linecap:square;stroke-width:4;"/>
   </g>
   <g id="line2d_2">
    <defs>
     <path d="M 0 7.778175 
L 7.778175 0 
L 0 -7.778175 
L -7.778175 0 
z
" id="mcf9ccd5094" style="stroke:#f5deb3;stroke-linejoin:miter;stroke-width:1.5;"/>
    </defs>
    <g>
     <use style="fill:#f5deb3;stroke:#f5deb3;stroke-linejoin:miter;stroke-width:1.5;" x="108.948899" xlink:href="#mcf9ccd5094" y="271.156769"/>
     <use style="fill:#f5deb3;stroke:#f5deb3;stroke-linejoin:miter;stroke-width:1.5;" x="187.808966" xlink:href="#mcf9ccd5094" y="187.795075"/>
     <use style="fill:#f5deb3;stroke:#f5deb3;stroke-linejoin:miter;stroke-width:1.5;" x="244.301116" xlink:href="#mcf9ccd5094" y="90.539766"/>
     <use style="fill:#f5deb3;stroke:#f5deb3;stroke-linejoin:miter;stroke-width:1.5;" x="256.372288" xlink:href="#mcf9ccd5094" y="62.752535"/>
     <use style="fill:#f5deb3;stroke:#f5deb3;stroke-linejoin:miter;stroke-width:1.5;" x="338.688" xlink:href="#mcf9ccd5094" y="62.752535"/>
    </g>
   </g>
   <g id="line2d_3">
    <path style="fill:none;stroke:#f5deb3;stroke-linecap:square;stroke-width:4;"/>
    <g/>
   </g>
   <g id="line2d_4">
    <path d="M 338.688 62.752535 
L 369.60768 35.706297 
" style="fill:none;stroke:#f5deb3;stroke-linecap:square;stroke-width:4;"/>
    <g>
     <use style="fill:#f5deb3;stroke:#f5deb3;stroke-linejoin:miter;stroke-width:1.5;" x="338.688" xlink:href="#mcf9ccd5094" y="62.752535"/>
     <use style="fill:#f5deb3;stroke:#f5deb3;stroke-linejoin:miter;stroke-width:1.5;" x="369.60768" xlink:href="#mcf9ccd5094" y="35.706297"/>
    </g>
   </g>
   <g id="matplotlib.axis_1">
    <g id="xtick_1">
     <g id="line2d_5">
      <path clip-path="url(#pa328abc578)" d="M 57.6 298.944 
L 57.6 27.648 
" style="fill:none;stroke:#b0b0b0;stroke-linecap:square;stroke-width:0.8;"/>
     </g>
     <g id="line2d_6">
      <defs>
       <path d="M 0 0 
L 0 3.5 
" id="m5b2753c280" style="stroke:#000000;stroke-width:0.8;"/>
      </defs>
      <g>
       <use style="stroke:#000000;stroke-width:0.8;" x="57.6" xlink:href="#m5b2753c280" y="298.944"/>
      </g>
     </g>
     <g id="text_1">
      <!-- 0 -->
      <defs>
       <path d="M 31.78125 66.40625 
Q 24.171875 66.40625 20.328125 58.90625 
Q 16.5 51.421875 16.5 36.375 
Q 16.5 21.390625 20.328125 13.890625 
Q 24.171875 6.390625 31.78125 6.390625 
Q 39.453125 6.390625 43.28125 13.890625 
Q 47.125 21.390625 47.125 36.375 
Q 47.125 51.421875 43.28125 58.90625 
Q 39.453125 66.40625 31.78125 66.40625 
z
M 31.78125 74.21875 
Q 44.046875 74.21875 50.515625 64.515625 
Q 56.984375 54.828125 56.984375 36.375 
Q 56.984375 17.96875 50.515625 8.265625 
Q 44.046875 -1.421875 31.78125 -1.421875 
Q 19.53125 -1.421875 13.0625 8.265625 
Q 6.59375 17.96875 6.59375 36.375 
Q 6.59375 54.828125 13.0625 64.515625 
Q 19.53125 74.21875 31.78125 74.21875 
z
" id="DejaVuSans-48"/>
      </defs>
      <g transform="translate(51.2375 321.140875)scale(0.2 -0.2)">
       <use xlink:href="#DejaVuSans-48"/>
      </g>
     </g>
    </g>
    <g id="xtick_2">
     <g id="line2d_7">
      <path clip-path="url(#pa328abc578)" d="M 137.910857 298.944 
L 137.910857 27.648 
" style="fill:none;stroke:#b0b0b0;stroke-linecap:square;stroke-width:0.8;"/>
     </g>
     <g id="line2d_8">
      <g>
       <use style="stroke:#000000;stroke-width:0.8;" x="137.910857" xlink:href="#m5b2753c280" y="298.944"/>
      </g>
     </g>
     <g id="text_2">
      <!-- 2 -->
      <defs>
       <path d="M 19.1875 8.296875 
L 53.609375 8.296875 
L 53.609375 0 
L 7.328125 0 
L 7.328125 8.296875 
Q 12.9375 14.109375 22.625 23.890625 
Q 32.328125 33.6875 34.8125 36.53125 
Q 39.546875 41.84375 41.421875 45.53125 
Q 43.3125 49.21875 43.3125 52.78125 
Q 43.3125 58.59375 39.234375 62.25 
Q 35.15625 65.921875 28.609375 65.921875 
Q 23.96875 65.921875 18.8125 64.3125 
Q 13.671875 62.703125 7.8125 59.421875 
L 7.8125 69.390625 
Q 13.765625 71.78125 18.9375 73 
Q 24.125 74.21875 28.421875 74.21875 
Q 39.75 74.21875 46.484375 68.546875 
Q 53.21875 62.890625 53.21875 53.421875 
Q 53.21875 48.921875 51.53125 44.890625 
Q 49.859375 40.875 45.40625 35.40625 
Q 44.1875 33.984375 37.640625 27.21875 
Q 31.109375 20.453125 19.1875 8.296875 
z
" id="DejaVuSans-50"/>
      </defs>
      <g transform="translate(131.548357 321.140875)scale(0.2 -0.2)">
       <use xlink:href="#DejaVuSans-50"/>
      </g>
     </g>
    </g>
    <g id="xtick_3">
     <g id="line2d_9">
      <path clip-path="url(#pa328abc578)" d="M 218.221714 298.944 
L 218.221714 27.648 
" style="fill:none;stroke:#b0b0b0;stroke-linecap:square;stroke-width:0.8;"/>
     </g>
     <g id="line2d_10">
      <g>
       <use style="stroke:#000000;stroke-width:0.8;" x="218.221714" xlink:href="#m5b2753c280" y="298.944"/>
      </g>
     </g>
     <g id="text_3">
      <!-- 4 -->
      <defs>
       <path d="M 37.796875 64.3125 
L 12.890625 25.390625 
L 37.796875 25.390625 
z
M 35.203125 72.90625 
L 47.609375 72.90625 
L 47.609375 25.390625 
L 58.015625 25.390625 
L 58.015625 17.1875 
L 47.609375 17.1875 
L 47.609375 0 
L 37.796875 0 
L 37.796875 17.1875 
L 4.890625 17.1875 
L 4.890625 26.703125 
z
" id="DejaVuSans-52"/>
      </defs>
      <g transform="translate(211.859214 321.140875)scale(0.2 -0.2)">
       <use xlink:href="#DejaVuSans-52"/>
      </g>
     </g>
    </g>
    <g id="xtick_4">
     <g id="line2d_11">
      <path clip-path="url(#pa328abc578)" d="M 298.532571 298.944 
L 298.532571 27.648 
" style="fill:none;stroke:#b0b0b0;stroke-linecap:square;stroke-width:0.8;"/>
     </g>
     <g id="line2d_12">
      <g>
       <use style="stroke:#000000;stroke-width:0.8;" x="298.532571" xlink:href="#m5b2753c280" y="298.944"/>
      </g>
     </g>
     <g id="text_4">
      <!-- 6 -->
      <defs>
       <path d="M 33.015625 40.375 
Q 26.375 40.375 22.484375 35.828125 
Q 18.609375 31.296875 18.609375 23.390625 
Q 18.609375 15.53125 22.484375 10.953125 
Q 26.375 6.390625 33.015625 6.390625 
Q 39.65625 6.390625 43.53125 10.953125 
Q 47.40625 15.53125 47.40625 23.390625 
Q 47.40625 31.296875 43.53125 35.828125 
Q 39.65625 40.375 33.015625 40.375 
z
M 52.59375 71.296875 
L 52.59375 62.3125 
Q 48.875 64.0625 45.09375 64.984375 
Q 41.3125 65.921875 37.59375 65.921875 
Q 27.828125 65.921875 22.671875 59.328125 
Q 17.53125 52.734375 16.796875 39.40625 
Q 19.671875 43.65625 24.015625 45.921875 
Q 28.375 48.1875 33.59375 48.1875 
Q 44.578125 48.1875 50.953125 41.515625 
Q 57.328125 34.859375 57.328125 23.390625 
Q 57.328125 12.15625 50.6875 5.359375 
Q 44.046875 -1.421875 33.015625 -1.421875 
Q 20.359375 -1.421875 13.671875 8.265625 
Q 6.984375 17.96875 6.984375 36.375 
Q 6.984375 53.65625 15.1875 63.9375 
Q 23.390625 74.21875 37.203125 74.21875 
Q 40.921875 74.21875 44.703125 73.484375 
Q 48.484375 72.75 52.59375 71.296875 
z
" id="DejaVuSans-54"/>
      </defs>
      <g transform="translate(292.170071 321.140875)scale(0.2 -0.2)">
       <use xlink:href="#DejaVuSans-54"/>
      </g>
     </g>
    </g>
    <g id="xtick_5">
     <g id="line2d_13">
      <path clip-path="url(#pa328abc578)" d="M 97.755429 298.944 
L 97.755429 27.648 
" style="fill:none;stroke:#b0b0b0;stroke-linecap:square;stroke-width:0.8;"/>
     </g>
     <g id="line2d_14">
      <defs>
       <path d="M 0 0 
L 0 2 
" id="m75004dfc88" style="stroke:#000000;stroke-width:0.6;"/>
      </defs>
      <g>
       <use style="stroke:#000000;stroke-width:0.6;" x="97.755429" xlink:href="#m75004dfc88" y="298.944"/>
      </g>
     </g>
    </g>
    <g id="xtick_6">
     <g id="line2d_15">
      <path clip-path="url(#pa328abc578)" d="M 178.066286 298.944 
L 178.066286 27.648 
" style="fill:none;stroke:#b0b0b0;stroke-linecap:square;stroke-width:0.8;"/>
     </g>
     <g id="line2d_16">
      <g>
       <use style="stroke:#000000;stroke-width:0.6;" x="178.066286" xlink:href="#m75004dfc88" y="298.944"/>
      </g>
     </g>
    </g>
    <g id="xtick_7">
     <g id="line2d_17">
      <path clip-path="url(#pa328abc578)" d="M 258.377143 298.944 
L 258.377143 27.648 
" style="fill:none;stroke:#b0b0b0;stroke-linecap:square;stroke-width:0.8;"/>
     </g>
     <g id="line2d_18">
      <g>
       <use style="stroke:#000000;stroke-width:0.6;" x="258.377143" xlink:href="#m75004dfc88" y="298.944"/>
      </g>
     </g>
    </g>
    <g id="xtick_8">
     <g id="line2d_19">
      <path clip-path="url(#pa328abc578)" d="M 338.688 298.944 
L 338.688 27.648 
" style="fill:none;stroke:#b0b0b0;stroke-linecap:square;stroke-width:0.8;"/>
     </g>
     <g id="line2d_20">
      <g>
       <use style="stroke:#000000;stroke-width:0.6;" x="338.688" xlink:href="#m75004dfc88" y="298.944"/>
      </g>
     </g>
    </g>
    <g id="text_5">
     <!-- log10(# f-evals / dimension) -->
     <defs>
      <path d="M 9.421875 75.984375 
L 18.40625 75.984375 
L 18.40625 0 
L 9.421875 0 
z
" id="DejaVuSans-108"/>
      <path d="M 30.609375 48.390625 
Q 23.390625 48.390625 19.1875 42.75 
Q 14.984375 37.109375 14.984375 27.296875 
Q 14.984375 17.484375 19.15625 11.84375 
Q 23.34375 6.203125 30.609375 6.203125 
Q 37.796875 6.203125 41.984375 11.859375 
Q 46.1875 17.53125 46.1875 27.296875 
Q 46.1875 37.015625 41.984375 42.703125 
Q 37.796875 48.390625 30.609375 48.390625 
z
M 30.609375 56 
Q 42.328125 56 49.015625 48.375 
Q 55.71875 40.765625 55.71875 27.296875 
Q 55.71875 13.875 49.015625 6.21875 
Q 42.328125 -1.421875 30.609375 -1.421875 
Q 18.84375 -1.421875 12.171875 6.21875 
Q 5.515625 13.875 5.515625 27.296875 
Q 5.515625 40.765625 12.171875 48.375 
Q 18.84375 56 30.609375 56 
z
" id="DejaVuSans-111"/>
      <path d="M 45.40625 27.984375 
Q 45.40625 37.75 41.375 43.109375 
Q 37.359375 48.484375 30.078125 48.484375 
Q 22.859375 48.484375 18.828125 43.109375 
Q 14.796875 37.75 14.796875 27.984375 
Q 14.796875 18.265625 18.828125 12.890625 
Q 22.859375 7.515625 30.078125 7.515625 
Q 37.359375 7.515625 41.375 12.890625 
Q 45.40625 18.265625 45.40625 27.984375 
z
M 54.390625 6.78125 
Q 54.390625 -7.171875 48.1875 -13.984375 
Q 42 -20.796875 29.203125 -20.796875 
Q 24.46875 -20.796875 20.265625 -20.09375 
Q 16.0625 -19.390625 12.109375 -17.921875 
L 12.109375 -9.1875 
Q 16.0625 -11.328125 19.921875 -12.34375 
Q 23.78125 -13.375 27.78125 -13.375 
Q 36.625 -13.375 41.015625 -8.765625 
Q 45.40625 -4.15625 45.40625 5.171875 
L 45.40625 9.625 
Q 42.625 4.78125 38.28125 2.390625 
Q 33.9375 0 27.875 0 
Q 17.828125 0 11.671875 7.65625 
Q 5.515625 15.328125 5.515625 27.984375 
Q 5.515625 40.671875 11.671875 48.328125 
Q 17.828125 56 27.875 56 
Q 33.9375 56 38.28125 53.609375 
Q 42.625 51.21875 45.40625 46.390625 
L 45.40625 54.6875 
L 54.390625 54.6875 
z
" id="DejaVuSans-103"/>
      <path d="M 12.40625 8.296875 
L 28.515625 8.296875 
L 28.515625 63.921875 
L 10.984375 60.40625 
L 10.984375 69.390625 
L 28.421875 72.90625 
L 38.28125 72.90625 
L 38.28125 8.296875 
L 54.390625 8.296875 
L 54.390625 0 
L 12.40625 0 
z
" id="DejaVuSans-49"/>
      <path d="M 31 75.875 
Q 24.46875 64.65625 21.28125 53.65625 
Q 18.109375 42.671875 18.109375 31.390625 
Q 18.109375 20.125 21.3125 9.0625 
Q 24.515625 -2 31 -13.1875 
L 23.1875 -13.1875 
Q 15.875 -1.703125 12.234375 9.375 
Q 8.59375 20.453125 8.59375 31.390625 
Q 8.59375 42.28125 12.203125 53.3125 
Q 15.828125 64.359375 23.1875 75.875 
z
" id="DejaVuSans-40"/>
      <path d="M 51.125 44 
L 36.921875 44 
L 32.8125 27.6875 
L 47.125 27.6875 
z
M 43.796875 71.78125 
L 38.71875 51.515625 
L 52.984375 51.515625 
L 58.109375 71.78125 
L 65.921875 71.78125 
L 60.890625 51.515625 
L 76.125 51.515625 
L 76.125 44 
L 58.984375 44 
L 54.984375 27.6875 
L 70.515625 27.6875 
L 70.515625 20.21875 
L 53.078125 20.21875 
L 48 0 
L 40.1875 0 
L 45.21875 20.21875 
L 30.90625 20.21875 
L 25.875 0 
L 18.015625 0 
L 23.09375 20.21875 
L 7.71875 20.21875 
L 7.71875 27.6875 
L 24.90625 27.6875 
L 29 44 
L 13.28125 44 
L 13.28125 51.515625 
L 30.90625 51.515625 
L 35.890625 71.78125 
z
" id="DejaVuSans-35"/>
      <path id="DejaVuSans-32"/>
      <path d="M 37.109375 75.984375 
L 37.109375 68.5 
L 28.515625 68.5 
Q 23.6875 68.5 21.796875 66.546875 
Q 19.921875 64.59375 19.921875 59.515625 
L 19.921875 54.6875 
L 34.71875 54.6875 
L 34.71875 47.703125 
L 19.921875 47.703125 
L 19.921875 0 
L 10.890625 0 
L 10.890625 47.703125 
L 2.296875 47.703125 
L 2.296875 54.6875 
L 10.890625 54.6875 
L 10.890625 58.5 
Q 10.890625 67.625 15.140625 71.796875 
Q 19.390625 75.984375 28.609375 75.984375 
z
" id="DejaVuSans-102"/>
      <path d="M 4.890625 31.390625 
L 31.203125 31.390625 
L 31.203125 23.390625 
L 4.890625 23.390625 
z
" id="DejaVuSans-45"/>
      <path d="M 56.203125 29.59375 
L 56.203125 25.203125 
L 14.890625 25.203125 
Q 15.484375 15.921875 20.484375 11.0625 
Q 25.484375 6.203125 34.421875 6.203125 
Q 39.59375 6.203125 44.453125 7.46875 
Q 49.3125 8.734375 54.109375 11.28125 
L 54.109375 2.78125 
Q 49.265625 0.734375 44.1875 -0.34375 
Q 39.109375 -1.421875 33.890625 -1.421875 
Q 20.796875 -1.421875 13.15625 6.1875 
Q 5.515625 13.8125 5.515625 26.8125 
Q 5.515625 40.234375 12.765625 48.109375 
Q 20.015625 56 32.328125 56 
Q 43.359375 56 49.78125 48.890625 
Q 56.203125 41.796875 56.203125 29.59375 
z
M 47.21875 32.234375 
Q 47.125 39.59375 43.09375 43.984375 
Q 39.0625 48.390625 32.421875 48.390625 
Q 24.90625 48.390625 20.390625 44.140625 
Q 15.875 39.890625 15.1875 32.171875 
z
" id="DejaVuSans-101"/>
      <path d="M 2.984375 54.6875 
L 12.5 54.6875 
L 29.59375 8.796875 
L 46.6875 54.6875 
L 56.203125 54.6875 
L 35.6875 0 
L 23.484375 0 
z
" id="DejaVuSans-118"/>
      <path d="M 34.28125 27.484375 
Q 23.390625 27.484375 19.1875 25 
Q 14.984375 22.515625 14.984375 16.5 
Q 14.984375 11.71875 18.140625 8.90625 
Q 21.296875 6.109375 26.703125 6.109375 
Q 34.1875 6.109375 38.703125 11.40625 
Q 43.21875 16.703125 43.21875 25.484375 
L 43.21875 27.484375 
z
M 52.203125 31.203125 
L 52.203125 0 
L 43.21875 0 
L 43.21875 8.296875 
Q 40.140625 3.328125 35.546875 0.953125 
Q 30.953125 -1.421875 24.3125 -1.421875 
Q 15.921875 -1.421875 10.953125 3.296875 
Q 6 8.015625 6 15.921875 
Q 6 25.140625 12.171875 29.828125 
Q 18.359375 34.515625 30.609375 34.515625 
L 43.21875 34.515625 
L 43.21875 35.40625 
Q 43.21875 41.609375 39.140625 45 
Q 35.0625 48.390625 27.6875 48.390625 
Q 23 48.390625 18.546875 47.265625 
Q 14.109375 46.140625 10.015625 43.890625 
L 10.015625 52.203125 
Q 14.9375 54.109375 19.578125 55.046875 
Q 24.21875 56 28.609375 56 
Q 40.484375 56 46.34375 49.84375 
Q 52.203125 43.703125 52.203125 31.203125 
z
" id="DejaVuSans-97"/>
      <path d="M 44.28125 53.078125 
L 44.28125 44.578125 
Q 40.484375 46.53125 36.375 47.5 
Q 32.28125 48.484375 27.875 48.484375 
Q 21.1875 48.484375 17.84375 46.4375 
Q 14.5 44.390625 14.5 40.28125 
Q 14.5 37.15625 16.890625 35.375 
Q 19.28125 33.59375 26.515625 31.984375 
L 29.59375 31.296875 
Q 39.15625 29.25 43.1875 25.515625 
Q 47.21875 21.78125 47.21875 15.09375 
Q 47.21875 7.46875 41.1875 3.015625 
Q 35.15625 -1.421875 24.609375 -1.421875 
Q 20.21875 -1.421875 15.453125 -0.5625 
Q 10.6875 0.296875 5.421875 2 
L 5.421875 11.28125 
Q 10.40625 8.6875 15.234375 7.390625 
Q 20.0625 6.109375 24.8125 6.109375 
Q 31.15625 6.109375 34.5625 8.28125 
Q 37.984375 10.453125 37.984375 14.40625 
Q 37.984375 18.0625 35.515625 20.015625 
Q 33.0625 21.96875 24.703125 23.78125 
L 21.578125 24.515625 
Q 13.234375 26.265625 9.515625 29.90625 
Q 5.8125 33.546875 5.8125 39.890625 
Q 5.8125 47.609375 11.28125 51.796875 
Q 16.75 56 26.8125 56 
Q 31.78125 56 36.171875 55.265625 
Q 40.578125 54.546875 44.28125 53.078125 
z
" id="DejaVuSans-115"/>
      <path d="M 25.390625 72.90625 
L 33.6875 72.90625 
L 8.296875 -9.28125 
L 0 -9.28125 
z
" id="DejaVuSans-47"/>
      <path d="M 45.40625 46.390625 
L 45.40625 75.984375 
L 54.390625 75.984375 
L 54.390625 0 
L 45.40625 0 
L 45.40625 8.203125 
Q 42.578125 3.328125 38.25 0.953125 
Q 33.9375 -1.421875 27.875 -1.421875 
Q 17.96875 -1.421875 11.734375 6.484375 
Q 5.515625 14.40625 5.515625 27.296875 
Q 5.515625 40.1875 11.734375 48.09375 
Q 17.96875 56 27.875 56 
Q 33.9375 56 38.25 53.625 
Q 42.578125 51.265625 45.40625 46.390625 
z
M 14.796875 27.296875 
Q 14.796875 17.390625 18.875 11.75 
Q 22.953125 6.109375 30.078125 6.109375 
Q 37.203125 6.109375 41.296875 11.75 
Q 45.40625 17.390625 45.40625 27.296875 
Q 45.40625 37.203125 41.296875 42.84375 
Q 37.203125 48.484375 30.078125 48.484375 
Q 22.953125 48.484375 18.875 42.84375 
Q 14.796875 37.203125 14.796875 27.296875 
z
" id="DejaVuSans-100"/>
      <path d="M 9.421875 54.6875 
L 18.40625 54.6875 
L 18.40625 0 
L 9.421875 0 
z
M 9.421875 75.984375 
L 18.40625 75.984375 
L 18.40625 64.59375 
L 9.421875 64.59375 
z
" id="DejaVuSans-105"/>
      <path d="M 52 44.1875 
Q 55.375 50.25 60.0625 53.125 
Q 64.75 56 71.09375 56 
Q 79.640625 56 84.28125 50.015625 
Q 88.921875 44.046875 88.921875 33.015625 
L 88.921875 0 
L 79.890625 0 
L 79.890625 32.71875 
Q 79.890625 40.578125 77.09375 44.375 
Q 74.3125 48.1875 68.609375 48.1875 
Q 61.625 48.1875 57.5625 43.546875 
Q 53.515625 38.921875 53.515625 30.90625 
L 53.515625 0 
L 44.484375 0 
L 44.484375 32.71875 
Q 44.484375 40.625 41.703125 44.40625 
Q 38.921875 48.1875 33.109375 48.1875 
Q 26.21875 48.1875 22.15625 43.53125 
Q 18.109375 38.875 18.109375 30.90625 
L 18.109375 0 
L 9.078125 0 
L 9.078125 54.6875 
L 18.109375 54.6875 
L 18.109375 46.1875 
Q 21.1875 51.21875 25.484375 53.609375 
Q 29.78125 56 35.6875 56 
Q 41.65625 56 45.828125 52.96875 
Q 50 49.953125 52 44.1875 
z
" id="DejaVuSans-109"/>
      <path d="M 54.890625 33.015625 
L 54.890625 0 
L 45.90625 0 
L 45.90625 32.71875 
Q 45.90625 40.484375 42.875 44.328125 
Q 39.84375 48.1875 33.796875 48.1875 
Q 26.515625 48.1875 22.3125 43.546875 
Q 18.109375 38.921875 18.109375 30.90625 
L 18.109375 0 
L 9.078125 0 
L 9.078125 54.6875 
L 18.109375 54.6875 
L 18.109375 46.1875 
Q 21.34375 51.125 25.703125 53.5625 
Q 30.078125 56 35.796875 56 
Q 45.21875 56 50.046875 50.171875 
Q 54.890625 44.34375 54.890625 33.015625 
z
" id="DejaVuSans-110"/>
      <path d="M 8.015625 75.875 
L 15.828125 75.875 
Q 23.140625 64.359375 26.78125 53.3125 
Q 30.421875 42.28125 30.421875 31.390625 
Q 30.421875 20.453125 26.78125 9.375 
Q 23.140625 -1.703125 15.828125 -13.1875 
L 8.015625 -13.1875 
Q 14.5 -2 17.703125 9.0625 
Q 20.90625 20.125 20.90625 31.390625 
Q 20.90625 42.671875 17.703125 53.65625 
Q 14.5 64.65625 8.015625 75.875 
z
" id="DejaVuSans-41"/>
     </defs>
     <g transform="translate(77.303219 342.217594)scale(0.17 -0.17)">
      <use xlink:href="#DejaVuSans-108"/>
      <use x="27.783203" xlink:href="#DejaVuSans-111"/>
      <use x="88.964844" xlink:href="#DejaVuSans-103"/>
      <use x="152.441406" xlink:href="#DejaVuSans-49"/>
      <use x="216.064453" xlink:href="#DejaVuSans-48"/>
      <use x="279.6875" xlink:href="#DejaVuSans-40"/>
      <use x="318.701172" xlink:href="#DejaVuSans-35"/>
      <use x="402.490234" xlink:href="#DejaVuSans-32"/>
      <use x="434.277344" xlink:href="#DejaVuSans-102"/>
      <use x="469.404297" xlink:href="#DejaVuSans-45"/>
      <use x="505.488281" xlink:href="#DejaVuSans-101"/>
      <use x="567.011719" xlink:href="#DejaVuSans-118"/>
      <use x="626.191406" xlink:href="#DejaVuSans-97"/>
      <use x="687.470703" xlink:href="#DejaVuSans-108"/>
      <use x="715.253906" xlink:href="#DejaVuSans-115"/>
      <use x="767.353516" xlink:href="#DejaVuSans-32"/>
      <use x="799.140625" xlink:href="#DejaVuSans-47"/>
      <use x="832.832031" xlink:href="#DejaVuSans-32"/>
      <use x="864.619141" xlink:href="#DejaVuSans-100"/>
      <use x="928.095703" xlink:href="#DejaVuSans-105"/>
      <use x="955.878906" xlink:href="#DejaVuSans-109"/>
      <use x="1053.291016" xlink:href="#DejaVuSans-101"/>
      <use x="1114.814453" xlink:href="#DejaVuSans-110"/>
      <use x="1178.193359" xlink:href="#DejaVuSans-115"/>
      <use x="1230.292969" xlink:href="#DejaVuSans-105"/>
      <use x="1258.076172" xlink:href="#DejaVuSans-111"/>
      <use x="1319.257812" xlink:href="#DejaVuSans-110"/>
      <use x="1382.636719" xlink:href="#DejaVuSans-41"/>
     </g>
    </g>
   </g>
   <g id="matplotlib.axis_2">
    <g id="ytick_1">
     <g id="line2d_21">
      <path clip-path="url(#pa328abc578)" d="M 57.6 298.944 
L 338.688 298.944 
" style="fill:none;stroke:#b0b0b0;stroke-linecap:square;stroke-width:0.8;"/>
     </g>
     <g id="line2d_22">
      <defs>
       <path d="M 0 0 
L -3.5 0 
" id="m2152ae2a41" style="stroke:#000000;stroke-width:0.8;"/>
      </defs>
      <g>
       <use style="stroke:#000000;stroke-width:0.8;" x="57.6" xlink:href="#m2152ae2a41" y="298.944"/>
      </g>
     </g>
     <g id="text_6">
      <!-- 0.0 -->
      <defs>
       <path d="M 10.6875 12.40625 
L 21 12.40625 
L 21 0 
L 10.6875 0 
z
" id="DejaVuSans-46"/>
      </defs>
      <g transform="translate(25.155 305.02275)scale(0.16 -0.16)">
       <use xlink:href="#DejaVuSans-48"/>
       <use x="63.623047" xlink:href="#DejaVuSans-46"/>
       <use x="95.410156" xlink:href="#DejaVuSans-48"/>
      </g>
     </g>
    </g>
    <g id="ytick_2">
     <g id="line2d_23">
      <path clip-path="url(#pa328abc578)" d="M 57.6 245.22202 
L 338.688 245.22202 
" style="fill:none;stroke:#b0b0b0;stroke-linecap:square;stroke-width:0.8;"/>
     </g>
     <g id="line2d_24">
      <g>
       <use style="stroke:#000000;stroke-width:0.8;" x="57.6" xlink:href="#m2152ae2a41" y="245.22202"/>
      </g>
     </g>
     <g id="text_7">
      <!-- 0.2 -->
      <g transform="translate(25.155 251.30077)scale(0.16 -0.16)">
       <use xlink:href="#DejaVuSans-48"/>
       <use x="63.623047" xlink:href="#DejaVuSans-46"/>
       <use x="95.410156" xlink:href="#DejaVuSans-50"/>
      </g>
     </g>
    </g>
    <g id="ytick_3">
     <g id="line2d_25">
      <path clip-path="url(#pa328abc578)" d="M 57.6 191.50004 
L 338.688 191.50004 
" style="fill:none;stroke:#b0b0b0;stroke-linecap:square;stroke-width:0.8;"/>
     </g>
     <g id="line2d_26">
      <g>
       <use style="stroke:#000000;stroke-width:0.8;" x="57.6" xlink:href="#m2152ae2a41" y="191.50004"/>
      </g>
     </g>
     <g id="text_8">
      <!-- 0.4 -->
      <g transform="translate(25.155 197.57879)scale(0.16 -0.16)">
       <use xlink:href="#DejaVuSans-48"/>
       <use x="63.623047" xlink:href="#DejaVuSans-46"/>
       <use x="95.410156" xlink:href="#DejaVuSans-52"/>
      </g>
     </g>
    </g>
    <g id="ytick_4">
     <g id="line2d_27">
      <path clip-path="url(#pa328abc578)" d="M 57.6 137.778059 
L 338.688 137.778059 
" style="fill:none;stroke:#b0b0b0;stroke-linecap:square;stroke-width:0.8;"/>
     </g>
     <g id="line2d_28">
      <g>
       <use style="stroke:#000000;stroke-width:0.8;" x="57.6" xlink:href="#m2152ae2a41" y="137.778059"/>
      </g>
     </g>
     <g id="text_9">
      <!-- 0.6 -->
      <g transform="translate(25.155 143.856809)scale(0.16 -0.16)">
       <use xlink:href="#DejaVuSans-48"/>
       <use x="63.623047" xlink:href="#DejaVuSans-46"/>
       <use x="95.410156" xlink:href="#DejaVuSans-54"/>
      </g>
     </g>
    </g>
    <g id="ytick_5">
     <g id="line2d_29">
      <path clip-path="url(#pa328abc578)" d="M 57.6 84.056079 
L 338.688 84.056079 
" style="fill:none;stroke:#b0b0b0;stroke-linecap:square;stroke-width:0.8;"/>
     </g>
     <g id="line2d_30">
      <g>
       <use style="stroke:#000000;stroke-width:0.8;" x="57.6" xlink:href="#m2152ae2a41" y="84.056079"/>
      </g>
     </g>
     <g id="text_10">
      <!-- 0.8 -->
      <defs>
       <path d="M 31.78125 34.625 
Q 24.75 34.625 20.71875 30.859375 
Q 16.703125 27.09375 16.703125 20.515625 
Q 16.703125 13.921875 20.71875 10.15625 
Q 24.75 6.390625 31.78125 6.390625 
Q 38.8125 6.390625 42.859375 10.171875 
Q 46.921875 13.96875 46.921875 20.515625 
Q 46.921875 27.09375 42.890625 30.859375 
Q 38.875 34.625 31.78125 34.625 
z
M 21.921875 38.8125 
Q 15.578125 40.375 12.03125 44.71875 
Q 8.5 49.078125 8.5 55.328125 
Q 8.5 64.0625 14.71875 69.140625 
Q 20.953125 74.21875 31.78125 74.21875 
Q 42.671875 74.21875 48.875 69.140625 
Q 55.078125 64.0625 55.078125 55.328125 
Q 55.078125 49.078125 51.53125 44.71875 
Q 48 40.375 41.703125 38.8125 
Q 48.828125 37.15625 52.796875 32.3125 
Q 56.78125 27.484375 56.78125 20.515625 
Q 56.78125 9.90625 50.3125 4.234375 
Q 43.84375 -1.421875 31.78125 -1.421875 
Q 19.734375 -1.421875 13.25 4.234375 
Q 6.78125 9.90625 6.78125 20.515625 
Q 6.78125 27.484375 10.78125 32.3125 
Q 14.796875 37.15625 21.921875 38.8125 
z
M 18.3125 54.390625 
Q 18.3125 48.734375 21.84375 45.5625 
Q 25.390625 42.390625 31.78125 42.390625 
Q 38.140625 42.390625 41.71875 45.5625 
Q 45.3125 48.734375 45.3125 54.390625 
Q 45.3125 60.0625 41.71875 63.234375 
Q 38.140625 66.40625 31.78125 66.40625 
Q 25.390625 66.40625 21.84375 63.234375 
Q 18.3125 60.0625 18.3125 54.390625 
z
" id="DejaVuSans-56"/>
      </defs>
      <g transform="translate(25.155 90.134829)scale(0.16 -0.16)">
       <use xlink:href="#DejaVuSans-48"/>
       <use x="63.623047" xlink:href="#DejaVuSans-46"/>
       <use x="95.410156" xlink:href="#DejaVuSans-56"/>
      </g>
     </g>
    </g>
    <g id="ytick_6">
     <g id="line2d_31">
      <path clip-path="url(#pa328abc578)" d="M 57.6 30.334099 
L 338.688 30.334099 
" style="fill:none;stroke:#b0b0b0;stroke-linecap:square;stroke-width:0.8;"/>
     </g>
     <g id="line2d_32">
      <g>
       <use style="stroke:#000000;stroke-width:0.8;" x="57.6" xlink:href="#m2152ae2a41" y="30.334099"/>
      </g>
     </g>
     <g id="text_11">
      <!-- 1.0 -->
      <g transform="translate(25.155 36.412849)scale(0.16 -0.16)">
       <use xlink:href="#DejaVuSans-49"/>
       <use x="63.623047" xlink:href="#DejaVuSans-46"/>
       <use x="95.410156" xlink:href="#DejaVuSans-48"/>
      </g>
     </g>
    </g>
    <g id="text_12">
     <!-- Fraction of function,target pairs -->
     <defs>
      <path d="M 9.8125 72.90625 
L 51.703125 72.90625 
L 51.703125 64.59375 
L 19.671875 64.59375 
L 19.671875 43.109375 
L 48.578125 43.109375 
L 48.578125 34.8125 
L 19.671875 34.8125 
L 19.671875 0 
L 9.8125 0 
z
" id="DejaVuSans-70"/>
      <path d="M 41.109375 46.296875 
Q 39.59375 47.171875 37.8125 47.578125 
Q 36.03125 48 33.890625 48 
Q 26.265625 48 22.1875 43.046875 
Q 18.109375 38.09375 18.109375 28.8125 
L 18.109375 0 
L 9.078125 0 
L 9.078125 54.6875 
L 18.109375 54.6875 
L 18.109375 46.1875 
Q 20.953125 51.171875 25.484375 53.578125 
Q 30.03125 56 36.53125 56 
Q 37.453125 56 38.578125 55.875 
Q 39.703125 55.765625 41.0625 55.515625 
z
" id="DejaVuSans-114"/>
      <path d="M 48.78125 52.59375 
L 48.78125 44.1875 
Q 44.96875 46.296875 41.140625 47.34375 
Q 37.3125 48.390625 33.40625 48.390625 
Q 24.65625 48.390625 19.8125 42.84375 
Q 14.984375 37.3125 14.984375 27.296875 
Q 14.984375 17.28125 19.8125 11.734375 
Q 24.65625 6.203125 33.40625 6.203125 
Q 37.3125 6.203125 41.140625 7.25 
Q 44.96875 8.296875 48.78125 10.40625 
L 48.78125 2.09375 
Q 45.015625 0.34375 40.984375 -0.53125 
Q 36.96875 -1.421875 32.421875 -1.421875 
Q 20.0625 -1.421875 12.78125 6.34375 
Q 5.515625 14.109375 5.515625 27.296875 
Q 5.515625 40.671875 12.859375 48.328125 
Q 20.21875 56 33.015625 56 
Q 37.15625 56 41.109375 55.140625 
Q 45.0625 54.296875 48.78125 52.59375 
z
" id="DejaVuSans-99"/>
      <path d="M 18.3125 70.21875 
L 18.3125 54.6875 
L 36.8125 54.6875 
L 36.8125 47.703125 
L 18.3125 47.703125 
L 18.3125 18.015625 
Q 18.3125 11.328125 20.140625 9.421875 
Q 21.96875 7.515625 27.59375 7.515625 
L 36.8125 7.515625 
L 36.8125 0 
L 27.59375 0 
Q 17.1875 0 13.234375 3.875 
Q 9.28125 7.765625 9.28125 18.015625 
L 9.28125 47.703125 
L 2.6875 47.703125 
L 2.6875 54.6875 
L 9.28125 54.6875 
L 9.28125 70.21875 
z
" id="DejaVuSans-116"/>
      <path d="M 8.5 21.578125 
L 8.5 54.6875 
L 17.484375 54.6875 
L 17.484375 21.921875 
Q 17.484375 14.15625 20.5 10.265625 
Q 23.53125 6.390625 29.59375 6.390625 
Q 36.859375 6.390625 41.078125 11.03125 
Q 45.3125 15.671875 45.3125 23.6875 
L 45.3125 54.6875 
L 54.296875 54.6875 
L 54.296875 0 
L 45.3125 0 
L 45.3125 8.40625 
Q 42.046875 3.421875 37.71875 1 
Q 33.40625 -1.421875 27.6875 -1.421875 
Q 18.265625 -1.421875 13.375 4.4375 
Q 8.5 10.296875 8.5 21.578125 
z
M 31.109375 56 
z
" id="DejaVuSans-117"/>
      <path d="M 11.71875 12.40625 
L 22.015625 12.40625 
L 22.015625 4 
L 14.015625 -11.625 
L 7.71875 -11.625 
L 11.71875 4 
z
" id="DejaVuSans-44"/>
      <path d="M 18.109375 8.203125 
L 18.109375 -20.796875 
L 9.078125 -20.796875 
L 9.078125 54.6875 
L 18.109375 54.6875 
L 18.109375 46.390625 
Q 20.953125 51.265625 25.265625 53.625 
Q 29.59375 56 35.59375 56 
Q 45.5625 56 51.78125 48.09375 
Q 58.015625 40.1875 58.015625 27.296875 
Q 58.015625 14.40625 51.78125 6.484375 
Q 45.5625 -1.421875 35.59375 -1.421875 
Q 29.59375 -1.421875 25.265625 0.953125 
Q 20.953125 3.328125 18.109375 8.203125 
z
M 48.6875 27.296875 
Q 48.6875 37.203125 44.609375 42.84375 
Q 40.53125 48.484375 33.40625 48.484375 
Q 26.265625 48.484375 22.1875 42.84375 
Q 18.109375 37.203125 18.109375 27.296875 
Q 18.109375 17.390625 22.1875 11.75 
Q 26.265625 6.109375 33.40625 6.109375 
Q 40.53125 6.109375 44.609375 11.75 
Q 48.6875 17.390625 48.6875 27.296875 
z
" id="DejaVuSans-112"/>
     </defs>
     <g transform="translate(17.619531 298.435375)rotate(-90)scale(0.17 -0.17)">
      <use xlink:href="#DejaVuSans-70"/>
      <use x="57.410156" xlink:href="#DejaVuSans-114"/>
      <use x="98.523438" xlink:href="#DejaVuSans-97"/>
      <use x="159.802734" xlink:href="#DejaVuSans-99"/>
      <use x="214.783203" xlink:href="#DejaVuSans-116"/>
      <use x="253.992188" xlink:href="#DejaVuSans-105"/>
      <use x="281.775391" xlink:href="#DejaVuSans-111"/>
      <use x="342.957031" xlink:href="#DejaVuSans-110"/>
      <use x="406.335938" xlink:href="#DejaVuSans-32"/>
      <use x="438.123047" xlink:href="#DejaVuSans-111"/>
      <use x="499.304688" xlink:href="#DejaVuSans-102"/>
      <use x="534.509766" xlink:href="#DejaVuSans-32"/>
      <use x="566.296875" xlink:href="#DejaVuSans-102"/>
      <use x="601.501953" xlink:href="#DejaVuSans-117"/>
      <use x="664.880859" xlink:href="#DejaVuSans-110"/>
      <use x="728.259766" xlink:href="#DejaVuSans-99"/>
      <use x="783.240234" xlink:href="#DejaVuSans-116"/>
      <use x="822.449219" xlink:href="#DejaVuSans-105"/>
      <use x="850.232422" xlink:href="#DejaVuSans-111"/>
      <use x="911.414062" xlink:href="#DejaVuSans-110"/>
      <use x="974.792969" xlink:href="#DejaVuSans-44"/>
      <use x="1006.580078" xlink:href="#DejaVuSans-116"/>
      <use x="1045.789062" xlink:href="#DejaVuSans-97"/>
      <use x="1107.068359" xlink:href="#DejaVuSans-114"/>
      <use x="1148.166016" xlink:href="#DejaVuSans-103"/>
      <use x="1211.642578" xlink:href="#DejaVuSans-101"/>
      <use x="1273.166016" xlink:href="#DejaVuSans-116"/>
      <use x="1312.375" xlink:href="#DejaVuSans-32"/>
      <use x="1344.162109" xlink:href="#DejaVuSans-112"/>
      <use x="1407.638672" xlink:href="#DejaVuSans-97"/>
      <use x="1468.917969" xlink:href="#DejaVuSans-105"/>
      <use x="1496.701172" xlink:href="#DejaVuSans-114"/>
      <use x="1537.814453" xlink:href="#DejaVuSans-115"/>
     </g>
    </g>
   </g>
   <g id="line2d_33">
    <defs>
     <path d="M 0 1.5 
C 0.397805 1.5 0.77937 1.341951 1.06066 1.06066 
C 1.341951 0.77937 1.5 0.397805 1.5 0 
C 1.5 -0.397805 1.341951 -0.77937 1.06066 -1.06066 
C 0.77937 -1.341951 0.397805 -1.5 0 -1.5 
C -0.397805 -1.5 -0.77937 -1.341951 -1.06066 -1.06066 
C -1.341951 -0.77937 -1.5 -0.397805 -1.5 0 
C -1.5 0.397805 -1.341951 0.77937 -1.06066 1.06066 
C -0.77937 1.341951 -0.397805 1.5 0 1.5 
z
" id="mec4f03b9f7" style="stroke:#f5deb3;"/>
    </defs>
    <g>
     <use style="fill:#f5deb3;stroke:#f5deb3;" x="256.372288" xlink:href="#mec4f03b9f7" y="62.752535"/>
     <use style="fill:#f5deb3;stroke:#f5deb3;" x="256.372288" xlink:href="#mec4f03b9f7" y="62.752535"/>
    </g>
   </g>
   <g id="line2d_34">
    <defs>
     <path d="M 0 1.5 
C 0.397805 1.5 0.77937 1.341951 1.06066 1.06066 
C 1.341951 0.77937 1.5 0.397805 1.5 0 
C 1.5 -0.397805 1.341951 -0.77937 1.06066 -1.06066 
C 0.77937 -1.341951 0.397805 -1.5 0 -1.5 
C -0.397805 -1.5 -0.77937 -1.341951 -1.06066 -1.06066 
C -1.341951 -0.77937 -1.5 -0.397805 -1.5 0 
C -1.5 0.397805 -1.341951 0.77937 -1.06066 1.06066 
C -0.77937 1.341951 -0.397805 1.5 0 1.5 
z
" id="m6adf5d201c" style="stroke:#000080;"/>
    </defs>
    <g>
     <use style="fill:#000080;stroke:#000080;" x="217.045911" xlink:href="#m6adf5d201c" y="136.851818"/>
     <use style="fill:#000080;stroke:#000080;" x="217.045911" xlink:href="#m6adf5d201c" y="136.851818"/>
    </g>
   </g>
   <g id="line2d_35">
    <path d="M 38.440992 298.944 
L 38.440992 291.997192 
L 84.464254 291.997192 
L 84.464254 289.218469 
L 87.850195 289.218469 
L 87.850195 285.976625 
L 90.684409 285.976625 
L 90.684409 284.587264 
L 95.918017 284.587264 
L 95.918017 279.956059 
L 107.009204 279.956059 
L 107.009204 278.566697 
L 112.026172 278.566697 
L 112.026172 276.714215 
L 122.782271 276.714215 
L 122.782271 275.324854 
L 127.272333 275.324854 
L 127.272333 273.935492 
L 127.590383 273.935492 
L 127.590383 270.693648 
L 129.002426 270.693648 
L 129.002426 269.304287 
L 129.667765 269.304287 
L 129.667765 264.673082 
L 132.181982 264.673082 
L 132.181982 263.28372 
L 134.37898 263.28372 
L 134.37898 261.431238 
L 135.076644 261.431238 
L 135.076644 260.041876 
L 136.393441 260.041876 
L 136.393441 258.652515 
L 136.769843 258.652515 
L 136.769843 255.873792 
L 139.783113 255.873792 
L 139.783113 252.631948 
L 140.195896 252.631948 
L 140.195896 251.242587 
L 142.971369 251.242587 
L 142.971369 248.463863 
L 143.611807 248.463863 
L 143.611807 244.295779 
L 144.787023 244.295779 
L 144.826168 239.664574 
L 145.628555 239.664574 
L 145.628555 237.812091 
L 145.814278 237.812091 
L 145.814278 236.42273 
L 146.107383 236.42273 
L 146.107383 234.570248 
L 148.48143 234.570248 
L 148.48143 231.328404 
L 149.043029 231.328404 
L 149.043029 229.475922 
L 151.528368 229.475922 
L 151.528368 226.234079 
L 155.146121 226.234079 
L 155.146121 224.381596 
L 156.357959 224.381596 
L 156.357959 222.992235 
L 156.875011 222.992235 
L 156.875011 221.602873 
L 157.453162 221.602873 
L 157.453162 218.36103 
L 158.661402 218.36103 
L 158.661402 215.582307 
L 159.608019 215.582307 
L 159.608019 212.803583 
L 160.249422 212.803583 
L 160.249422 210.951101 
L 165.217881 210.951101 
L 165.217881 209.56174 
L 166.729224 209.56174 
L 166.729224 206.319896 
L 167.395635 206.319896 
L 167.395635 204.930535 
L 179.980262 204.930535 
L 179.980262 203.078053 
L 181.510261 203.078053 
L 181.519801 198.909968 
L 181.700078 198.909968 
L 181.700078 197.520606 
L 185.199202 197.520606 
L 185.199202 193.815642 
L 188.040172 193.815642 
L 188.076227 180.848268 
L 188.154636 180.848268 
L 188.255394 176.680183 
L 188.316863 176.680183 
L 188.410267 171.122737 
L 189.890703 171.122737 
L 189.890703 169.733375 
L 190.885702 169.733375 
L 190.885702 167.880893 
L 193.10956 167.880893 
L 193.10956 166.491532 
L 193.270742 166.491532 
L 193.270742 163.712808 
L 195.830053 163.712808 
L 195.830053 162.323447 
L 197.918589 162.323447 
L 197.918589 159.081603 
L 201.059307 159.081603 
L 201.059307 157.692242 
L 201.417972 157.692242 
L 201.417972 156.30288 
L 201.779858 156.30288 
L 201.779858 154.450398 
L 203.358228 154.450398 
L 203.358228 152.597916 
L 204.29373 152.597916 
L 204.29373 150.745434 
L 205.767163 150.745434 
L 205.767163 149.356072 
L 206.803168 149.356072 
L 206.803168 146.114229 
L 211.780933 146.114229 
L 211.780933 144.724867 
L 211.939998 144.724867 
L 211.939998 142.872385 
L 212.609518 142.872385 
L 212.609518 141.483024 
L 216.207075 141.483024 
L 216.207075 140.093662 
L 217.045911 140.093662 
L 217.045911 136.851818 
L 338.688 136.851818 
L 338.688 136.851818 
" style="fill:none;stroke:#000080;stroke-linecap:square;stroke-width:1.5;"/>
   </g>
   <g id="line2d_36">
    <defs>
     <path d="M 0 6 
C 1.591219 6 3.117479 5.367802 4.242641 4.242641 
C 5.367802 3.117479 6 1.591219 6 0 
C 6 -1.591219 5.367802 -3.117479 4.242641 -4.242641 
C 3.117479 -5.367802 1.591219 -6 0 -6 
C -1.591219 -6 -3.117479 -5.367802 -4.242641 -4.242641 
C -5.367802 -3.117479 -6 -1.591219 -6 0 
C -6 1.591219 -5.367802 3.117479 -4.242641 4.242641 
C -3.117479 5.367802 -1.591219 6 0 6 
z
" id="ma16fca65cf" style="stroke:#000080;stroke-width:1.5;"/>
    </defs>
    <g>
     <use style="fill-opacity:0;stroke:#000080;stroke-width:1.5;" x="140.195896" xlink:href="#ma16fca65cf" y="251.242587"/>
     <use style="fill-opacity:0;stroke:#000080;stroke-width:1.5;" x="188.154636" xlink:href="#ma16fca65cf" y="179.458906"/>
     <use style="fill-opacity:0;stroke:#000080;stroke-width:1.5;" x="217.045911" xlink:href="#ma16fca65cf" y="140.093662"/>
     <use style="fill-opacity:0;stroke:#000080;stroke-width:1.5;" x="217.045911" xlink:href="#ma16fca65cf" y="136.851818"/>
     <use style="fill-opacity:0;stroke:#000080;stroke-width:1.5;" x="338.688" xlink:href="#ma16fca65cf" y="136.851818"/>
    </g>
   </g>
   <g id="line2d_37">
    <path style="fill:none;stroke:#000080;stroke-linecap:square;stroke-width:1.5;"/>
    <g/>
   </g>
   <g id="line2d_38">
    <path clip-path="url(#pa328abc578)" d="M 218.224039 136.851818 
" style="fill:none;stroke:#000080;stroke-linecap:square;stroke-width:1.5;"/>
    <defs>
     <path d="M -12 12 
L 12 -12 
M -12 -12 
L 12 12 
" id="m8d35933f1f" style="stroke:#000080;"/>
    </defs>
    <g clip-path="url(#pa328abc578)">
     <use style="fill:#000080;stroke:#000080;" x="218.224039" xlink:href="#m8d35933f1f" y="136.851818"/>
    </g>
   </g>
   <g id="line2d_39">
    <defs>
     <path d="M 0 1.5 
C 0.397805 1.5 0.77937 1.341951 1.06066 1.06066 
C 1.341951 0.77937 1.5 0.397805 1.5 0 
C 1.5 -0.397805 1.341951 -0.77937 1.06066 -1.06066 
C 0.77937 -1.341951 0.397805 -1.5 0 -1.5 
C -0.397805 -1.5 -0.77937 -1.341951 -1.06066 -1.06066 
C -1.341951 -0.77937 -1.5 -0.397805 -1.5 0 
C -1.5 0.397805 -1.341951 0.77937 -1.06066 1.06066 
C -0.77937 1.341951 -0.397805 1.5 0 1.5 
z
" id="med595e0554" style="stroke:#ff00ff;"/>
    </defs>
    <g>
     <use style="fill:#ff00ff;stroke:#ff00ff;" x="216.450704" xlink:href="#med595e0554" y="129.905011"/>
     <use style="fill:#ff00ff;stroke:#ff00ff;" x="216.450704" xlink:href="#med595e0554" y="129.905011"/>
    </g>
   </g>
   <g id="line2d_40">
    <path d="M 38.440992 298.944 
L 38.440992 292.460313 
L 74.704957 292.460313 
L 74.704957 291.070951 
L 84.464254 291.070951 
L 84.464254 289.218469 
L 95.918017 289.218469 
L 95.918017 287.829108 
L 99.41757 287.829108 
L 99.41757 286.439746 
L 100.934985 286.439746 
L 100.934985 284.587264 
L 102.772397 284.587264 
L 102.772397 283.197902 
L 106.66386 283.197902 
L 106.66386 281.808541 
L 107.680028 281.808541 
L 107.680028 280.419179 
L 111.239304 280.419179 
L 111.239304 279.029818 
L 114.641021 279.029818 
L 114.641021 276.251095 
L 123.192626 276.251095 
L 123.192626 273.009251 
L 124.743806 273.009251 
L 124.743806 269.767407 
L 124.867052 269.767407 
L 124.867052 268.378046 
L 124.989434 268.378046 
L 124.989434 266.525564 
L 129.195127 266.525564 
L 129.195127 265.136202 
L 129.385722 265.136202 
L 129.385722 262.357479 
L 129.945319 262.357479 
L 129.945319 260.968117 
L 130.752422 260.968117 
L 130.752422 259.578756 
L 133.124876 259.578756 
L 133.124876 256.336912 
L 134.091907 256.336912 
L 134.091907 253.558189 
L 134.520763 253.558189 
L 134.520763 251.705707 
L 135.212889 251.705707 
L 135.212889 250.316346 
L 139.413734 250.316346 
L 139.413734 248.463863 
L 140.698504 248.463863 
L 140.698504 247.074502 
L 141.187031 247.074502 
L 141.187031 245.22202 
L 152.662192 245.22202 
L 152.662192 243.832658 
L 153.418948 243.832658 
L 153.418948 240.590815 
L 153.750233 240.590815 
L 153.750233 237.348971 
L 153.867041 237.348971 
L 153.867041 234.107127 
L 154.121296 234.107127 
L 154.121296 232.254645 
L 154.258434 232.254645 
L 154.281186 226.697199 
L 154.884527 226.697199 
L 154.884527 222.992235 
L 156.216093 222.992235 
L 156.216093 221.139753 
L 160.616915 221.139753 
L 160.616915 218.36103 
L 160.742945 218.36103 
L 160.742945 215.582307 
L 161.329454 215.582307 
L 161.329454 212.340463 
L 161.585586 212.340463 
L 161.585586 210.951101 
L 164.612418 210.951101 
L 164.612418 208.172378 
L 165.278497 208.172378 
L 165.278497 205.393655 
L 166.928532 205.393655 
L 166.928532 204.004294 
L 167.714267 204.004294 
L 167.714267 202.614932 
L 170.669617 202.614932 
L 170.669617 201.225571 
L 172.158878 201.225571 
L 172.158878 199.836209 
L 172.288901 199.836209 
L 172.288901 196.594365 
L 172.681171 196.594365 
L 172.775907 193.352522 
L 174.014225 193.352522 
L 174.014225 191.96316 
L 175.88973 191.96316 
L 175.88973 190.573799 
L 177.820411 190.573799 
L 177.896886 185.942593 
L 177.996389 185.942593 
L 177.996389 184.553232 
L 180.2131 184.553232 
L 180.2131 183.16387 
L 182.271148 183.16387 
L 182.271148 180.385147 
L 183.496853 180.385147 
L 183.496853 178.995786 
L 187.085973 178.995786 
L 187.085973 175.753942 
L 188.448772 175.753942 
L 188.448772 172.975219 
L 188.608298 172.975219 
L 188.668537 166.954652 
L 191.372181 166.954652 
L 191.372181 165.565291 
L 192.177295 165.565291 
L 192.177295 163.712808 
L 197.612381 163.712808 
L 197.612381 161.860326 
L 198.129595 161.860326 
L 198.129595 160.470965 
L 203.22 160.470965 
L 203.22 157.229121 
L 207.067438 157.229121 
L 207.111463 152.134795 
L 207.673895 152.134795 
L 207.673895 150.745434 
L 209.480093 150.745434 
L 209.480093 148.892952 
L 209.840051 148.892952 
L 209.840051 147.50359 
L 213.180702 147.50359 
L 213.180702 145.651108 
L 216.067536 145.651108 
L 216.146287 135.925577 
L 216.185529 135.925577 
L 216.185529 132.683734 
L 216.450704 132.683734 
L 216.450704 129.905011 
L 338.688 129.905011 
L 338.688 129.905011 
" style="fill:none;stroke:#ff00ff;stroke-linecap:square;stroke-width:1.5;"/>
   </g>
   <g id="line2d_41">
    <defs>
     <path d="M 0 8.485281 
L 5.091169 0 
L 0 -8.485281 
L -5.091169 0 
z
" id="mbe5b7d0200" style="stroke:#ff00ff;stroke-linejoin:miter;stroke-width:1.5;"/>
    </defs>
    <g>
     <use style="fill-opacity:0;stroke:#ff00ff;stroke-linejoin:miter;stroke-width:1.5;" x="114.641021" xlink:href="#mbe5b7d0200" y="279.029818"/>
     <use style="fill-opacity:0;stroke:#ff00ff;stroke-linejoin:miter;stroke-width:1.5;" x="165.278497" xlink:href="#mbe5b7d0200" y="208.172378"/>
     <use style="fill-opacity:0;stroke:#ff00ff;stroke-linejoin:miter;stroke-width:1.5;" x="203.22" xlink:href="#mbe5b7d0200" y="160.470965"/>
     <use style="fill-opacity:0;stroke:#ff00ff;stroke-linejoin:miter;stroke-width:1.5;" x="216.450704" xlink:href="#mbe5b7d0200" y="132.683734"/>
     <use style="fill-opacity:0;stroke:#ff00ff;stroke-linejoin:miter;stroke-width:1.5;" x="216.450704" xlink:href="#mbe5b7d0200" y="129.905011"/>
     <use style="fill-opacity:0;stroke:#ff00ff;stroke-linejoin:miter;stroke-width:1.5;" x="338.688" xlink:href="#mbe5b7d0200" y="129.905011"/>
    </g>
   </g>
   <g id="line2d_42">
    <path style="fill:none;stroke:#ff00ff;stroke-linecap:square;stroke-width:1.5;"/>
    <g/>
   </g>
   <g id="line2d_43">
    <path clip-path="url(#pa328abc578)" d="M 218.225783 129.905011 
" style="fill:none;stroke:#ff00ff;stroke-linecap:square;stroke-width:1.5;"/>
    <defs>
     <path d="M -12 12 
L 12 -12 
M -12 -12 
L 12 12 
" id="m6f9067ce4d" style="stroke:#ff00ff;"/>
    </defs>
    <g clip-path="url(#pa328abc578)">
     <use style="fill:#ff00ff;stroke:#ff00ff;" x="218.225783" xlink:href="#m6f9067ce4d" y="129.905011"/>
    </g>
   </g>
   <g id="line2d_44">
    <defs>
     <path d="M 0 1.5 
C 0.397805 1.5 0.77937 1.341951 1.06066 1.06066 
C 1.341951 0.77937 1.5 0.397805 1.5 0 
C 1.5 -0.397805 1.341951 -0.77937 1.06066 -1.06066 
C 0.77937 -1.341951 0.397805 -1.5 0 -1.5 
C -0.397805 -1.5 -0.77937 -1.341951 -1.06066 -1.06066 
C -1.341951 -0.77937 -1.5 -0.397805 -1.5 0 
C -1.5 0.397805 -1.341951 0.77937 -1.06066 1.06066 
C -0.77937 1.341951 -0.397805 1.5 0 1.5 
z
" id="mc3b33c1c30" style="stroke:#ffa500;"/>
    </defs>
    <g>
     <use style="fill:#ffa500;stroke:#ffa500;" x="218.202521" xlink:href="#mc3b33c1c30" y="147.04047"/>
     <use style="fill:#ffa500;stroke:#ffa500;" x="218.202521" xlink:href="#mc3b33c1c30" y="147.04047"/>
    </g>
   </g>
   <g id="line2d_45">
    <path d="M 38.440992 298.944 
L 38.440992 292.923433 
L 57.6 292.923433 
L 57.6 291.070951 
L 78.59642 291.070951 
L 78.59642 289.218469 
L 88.846997 289.218469 
L 88.846997 285.513505 
L 89.78989 285.513505 
L 89.78989 284.124143 
L 93.121756 284.124143 
L 93.121756 282.271661 
L 94.575872 282.271661 
L 94.575872 280.8823 
L 95.259853 280.8823 
L 95.259853 276.714215 
L 95.918017 276.714215 
L 95.918017 272.54613 
L 96.552242 272.54613 
L 96.552242 270.693648 
L 101.412804 270.693648 
L 101.412804 267.914925 
L 104.033617 267.914925 
L 104.033617 262.357479 
L 108.948899 262.357479 
L 108.948899 258.652515 
L 109.550313 258.652515 
L 109.550313 255.873792 
L 110.694282 255.873792 
L 110.694282 254.02131 
L 113.965867 254.02131 
L 113.965867 252.631948 
L 114.418861 252.631948 
L 114.418861 251.242587 
L 116.522527 251.242587 
L 116.522527 249.853225 
L 124.989434 249.853225 
L 124.989434 248.463863 
L 147.130404 248.463863 
L 147.130404 246.611381 
L 150.344189 246.611381 
L 150.344189 244.758899 
L 150.51433 244.758899 
L 150.51433 243.369538 
L 151.314058 243.369538 
L 151.314058 240.590815 
L 151.421542 240.590815 
L 151.421542 237.812091 
L 152.811246 237.812091 
L 152.811246 236.42273 
L 157.472107 236.42273 
L 157.472107 233.644007 
L 164.140886 233.644007 
L 164.140886 229.939043 
L 172.909242 229.939043 
L 172.909242 226.697199 
L 182.579015 226.697199 
L 182.579015 221.139753 
L 182.646201 221.139753 
L 182.646201 217.897909 
L 182.982689 217.897909 
L 182.982689 215.119186 
L 183.026484 215.119186 
L 183.026484 213.266704 
L 183.043972 213.266704 
L 183.043972 211.877342 
L 187.217174 211.877342 
L 187.217174 210.487981 
L 187.412143 210.487981 
L 187.412143 207.709258 
L 189.69187 207.709258 
L 189.69187 205.856776 
L 189.843426 205.856776 
L 189.843426 204.004294 
L 190.157181 204.004294 
L 190.157181 202.614932 
L 192.988923 202.614932 
L 192.988923 199.836209 
L 194.345428 199.836209 
L 194.345428 196.131245 
L 194.909885 196.131245 
L 194.909885 194.741883 
L 198.263384 194.741883 
L 198.263384 193.352522 
L 198.270686 193.352522 
L 198.270686 191.96316 
L 198.913838 191.96316 
L 198.913838 190.573799 
L 201.592313 190.573799 
L 201.592313 188.721316 
L 203.390914 188.721316 
L 203.390914 187.331955 
L 203.73447 187.331955 
L 203.73447 180.385147 
L 205.299071 180.385147 
L 205.299071 177.606424 
L 205.430295 177.606424 
L 205.430295 173.438339 
L 205.488301 173.438339 
L 205.488301 172.048978 
L 205.801561 172.048978 
L 205.801561 170.196496 
L 206.555271 170.196496 
L 206.555271 168.807134 
L 207.096067 168.807134 
L 207.096067 165.565291 
L 210.568193 165.565291 
L 210.568193 164.175929 
L 212.255478 164.175929 
L 212.255478 162.323447 
L 214.910518 162.323447 
L 214.910518 158.155362 
L 214.91614 158.155362 
L 214.91614 156.30288 
L 214.932995 156.30288 
L 214.932995 154.913519 
L 214.933697 154.913519 
L 214.933697 151.208554 
L 214.944223 151.208554 
L 214.944223 149.819193 
L 214.952639 149.819193 
L 214.952639 148.429831 
L 218.202521 148.429831 
L 218.202521 147.04047 
L 338.688 147.04047 
" style="fill:none;stroke:#ffa500;stroke-linecap:square;stroke-width:1.5;"/>
   </g>
   <g id="line2d_46">
    <defs>
     <path d="M 0 -6 
L -1.347084 -1.854102 
L -5.706339 -1.854102 
L -2.179628 0.708204 
L -3.526712 4.854102 
L -0 2.291796 
L 3.526712 4.854102 
L 2.179628 0.708204 
L 5.706339 -1.854102 
L 1.347084 -1.854102 
z
" id="m28715bdf1e" style="stroke:#ffa500;stroke-linejoin:bevel;stroke-width:1.5;"/>
    </defs>
    <g>
     <use style="fill-opacity:0;stroke:#ffa500;stroke-linejoin:bevel;stroke-width:1.5;" x="101.412804" xlink:href="#m28715bdf1e" y="270.693648"/>
     <use style="fill-opacity:0;stroke:#ffa500;stroke-linejoin:bevel;stroke-width:1.5;" x="182.982689" xlink:href="#m28715bdf1e" y="217.897909"/>
     <use style="fill-opacity:0;stroke:#ffa500;stroke-linejoin:bevel;stroke-width:1.5;" x="214.933697" xlink:href="#m28715bdf1e" y="154.913519"/>
     <use style="fill-opacity:0;stroke:#ffa500;stroke-linejoin:bevel;stroke-width:1.5;" x="218.202521" xlink:href="#m28715bdf1e" y="147.04047"/>
     <use style="fill-opacity:0;stroke:#ffa500;stroke-linejoin:bevel;stroke-width:1.5;" x="218.202521" xlink:href="#m28715bdf1e" y="147.04047"/>
     <use style="fill-opacity:0;stroke:#ffa500;stroke-linejoin:bevel;stroke-width:1.5;" x="338.688" xlink:href="#m28715bdf1e" y="147.04047"/>
    </g>
   </g>
   <g id="line2d_47">
    <path style="fill:none;stroke:#ffa500;stroke-linecap:square;stroke-width:1.5;"/>
    <g/>
   </g>
   <g id="line2d_48">
    <path clip-path="url(#pa328abc578)" d="M 218.225783 147.04047 
" style="fill:none;stroke:#ffa500;stroke-linecap:square;stroke-width:1.5;"/>
    <defs>
     <path d="M -12 12 
L 12 -12 
M -12 -12 
L 12 12 
" id="madb311d113" style="stroke:#ffa500;"/>
    </defs>
    <g clip-path="url(#pa328abc578)">
     <use style="fill:#ffa500;stroke:#ffa500;" x="218.225783" xlink:href="#madb311d113" y="147.04047"/>
    </g>
   </g>
   <g id="line2d_49">
    <defs>
     <path d="M 0 1.5 
C 0.397805 1.5 0.77937 1.341951 1.06066 1.06066 
C 1.341951 0.77937 1.5 0.397805 1.5 0 
C 1.5 -0.397805 1.341951 -0.77937 1.06066 -1.06066 
C 0.77937 -1.341951 0.397805 -1.5 0 -1.5 
C -0.397805 -1.5 -0.77937 -1.341951 -1.06066 -1.06066 
C -1.341951 -0.77937 -1.5 -0.397805 -1.5 0 
C -1.5 0.397805 -1.341951 0.77937 -1.06066 1.06066 
C -0.77937 1.341951 -0.397805 1.5 0 1.5 
z
" id="m977a56b017" style="stroke:#6495ed;"/>
    </defs>
    <g>
     <use style="fill:#6495ed;stroke:#6495ed;" x="223.839461" xlink:href="#m977a56b017" y="159.544724"/>
     <use style="fill:#6495ed;stroke:#6495ed;" x="223.839461" xlink:href="#m977a56b017" y="159.544724"/>
    </g>
   </g>
   <g id="line2d_50">
    <path d="M 38.440992 298.944 
L 38.440992 292.460313 
L 50.52898 292.460313 
L 50.52898 291.534072 
L 57.6 291.534072 
L 57.6 291.070951 
L 62.616969 291.070951 
L 62.616969 288.755349 
L 66.508432 288.755349 
L 66.508432 286.902867 
L 69.687988 286.902867 
L 69.687988 285.513505 
L 72.376266 285.513505 
L 72.376266 284.587264 
L 74.704957 284.587264 
L 74.704957 283.661023 
L 80.258561 283.661023 
L 80.258561 282.734782 
L 81.775977 282.734782 
L 81.775977 282.271661 
L 83.171864 282.271661 
L 83.171864 280.419179 
L 85.66744 280.419179 
L 85.66744 278.566697 
L 87.850195 278.566697 
L 87.850195 278.103577 
L 88.846997 278.103577 
L 88.846997 274.861733 
L 90.684409 274.861733 
L 90.684409 274.398612 
L 91.535274 274.398612 
L 91.535274 273.935492 
L 92.34655 273.935492 
L 92.34655 273.472371 
L 97.755429 273.472371 
L 97.755429 273.009251 
L 98.32726 273.009251 
L 98.32726 271.619889 
L 100.443706 271.619889 
L 100.443706 271.156769 
L 102.330873 271.156769 
L 102.330873 270.693648 
L 106.311539 270.693648 
L 106.311539 270.230528 
L 108.640231 270.230528 
L 108.640231 269.767407 
L 108.948899 269.767407 
L 108.948899 269.304287 
L 109.252198 269.304287 
L 109.252198 268.841166 
L 111.239304 268.841166 
L 111.239304 268.378046 
L 111.767808 268.378046 
L 111.767808 267.914925 
L 113.965867 267.914925 
L 113.965867 267.451805 
L 116.719583 267.451805 
L 116.719583 265.599323 
L 117.107138 265.599323 
L 117.107138 262.8206 
L 119.931767 262.8206 
L 119.931767 261.894358 
L 120.093994 261.894358 
L 120.093994 260.504997 
L 123.725164 260.504997 
L 123.725164 260.041876 
L 124.867052 260.041876 
L 124.867052 259.578756 
L 125.23165 259.578756 
L 125.23165 258.189394 
L 125.938745 258.189394 
L 125.938745 257.726274 
L 127.48501 257.726274 
L 127.48501 255.873792 
L 127.695124 255.873792 
L 127.695124 255.410671 
L 129.099042 255.410671 
L 129.099042 254.947551 
L 129.667765 254.947551 
L 129.667765 254.48443 
L 130.487516 254.48443 
L 130.487516 253.558189 
L 131.013364 253.558189 
L 131.013364 252.631948 
L 132.262533 252.631948 
L 132.262533 252.168828 
L 136.393441 252.168828 
L 136.393441 251.705707 
L 136.769843 251.705707 
L 136.769843 250.779466 
L 136.955041 250.779466 
L 136.955041 250.316346 
L 137.794206 250.316346 
L 137.794206 249.853225 
L 138.482688 249.853225 
L 138.482688 249.390104 
L 138.650644 249.390104 
L 138.650644 248.463863 
L 138.927025 248.463863 
L 138.927025 248.000743 
L 140.144829 248.000743 
L 140.144829 247.074502 
L 141.568232 247.074502 
L 141.568232 246.148261 
L 141.895083 246.148261 
L 141.987354 244.758899 
L 142.215919 244.758899 
L 142.215919 243.832658 
L 142.971369 243.832658 
L 142.971369 243.369538 
L 143.527762 243.369538 
L 143.527762 242.443297 
L 144.430703 242.443297 
L 144.430703 241.517056 
L 145.814278 241.517056 
L 145.814278 240.590815 
L 147.670154 240.590815 
L 147.670154 239.664574 
L 148.48143 239.664574 
L 148.48143 239.201453 
L 148.670646 239.201453 
L 148.670646 238.738333 
L 148.826773 238.738333 
L 148.826773 238.275212 
L 149.073705 238.275212 
L 149.073705 237.812091 
L 150.822008 237.812091 
L 150.932558 236.88585 
L 152.001148 236.88585 
L 152.027042 235.959609 
L 154.281186 235.959609 
L 154.281186 235.033368 
L 154.685723 235.033368 
L 154.685723 234.570248 
L 155.382516 234.570248 
L 155.382516 234.107127 
L 155.86668 234.107127 
L 155.86668 233.644007 
L 156.236431 233.644007 
L 156.236431 233.180886 
L 156.43851 233.180886 
L 156.43851 232.717766 
L 160.136022 232.717766 
L 160.136022 231.791525 
L 160.489968 231.791525 
L 160.489968 230.865284 
L 161.177012 230.865284 
L 161.177012 229.475922 
L 161.630398 229.475922 
L 161.630398 228.549681 
L 162.672723 228.549681 
L 162.672723 227.62344 
L 164.486229 227.62344 
L 164.486229 226.697199 
L 164.687696 226.697199 
L 164.687696 225.770958 
L 166.335035 225.770958 
L 166.335035 224.844717 
L 167.829655 224.844717 
L 167.829655 223.918476 
L 169.244833 223.918476 
L 169.244833 222.992235 
L 169.645097 222.992235 
L 169.645097 222.065994 
L 169.888352 222.065994 
L 169.888352 221.139753 
L 170.382987 221.139753 
L 170.43709 219.750391 
L 170.72284 219.750391 
L 170.72284 219.287271 
L 171.366236 219.287271 
L 171.366236 217.897909 
L 171.553027 217.897909 
L 171.553027 217.434789 
L 172.019658 217.434789 
L 172.019658 216.971668 
L 172.409924 216.971668 
L 172.409924 216.045427 
L 172.546075 216.045427 
L 172.562023 214.656066 
L 173.651125 214.656066 
L 173.651125 214.192945 
L 174.182087 214.192945 
L 174.182087 213.729825 
L 174.305129 213.729825 
L 174.305129 213.266704 
L 174.520166 213.266704 
L 174.520166 212.340463 
L 174.809827 212.340463 
L 174.809827 211.877342 
L 176.389606 211.877342 
L 176.389606 210.951101 
L 176.668945 210.951101 
L 176.668945 210.02486 
L 177.978871 210.02486 
L 177.978871 209.56174 
L 178.394524 209.56174 
L 178.394524 208.635499 
L 178.621232 208.635499 
L 178.666222 206.783017 
L 179.01652 206.783017 
L 179.109852 205.856776 
L 179.27877 205.856776 
L 179.27877 204.930535 
L 179.933319 204.930535 
L 179.933319 204.004294 
L 180.674658 204.004294 
L 180.754563 202.151812 
L 181.294218 202.151812 
L 181.294218 201.688691 
L 181.619658 201.688691 
L 181.619658 201.225571 
L 181.934481 201.225571 
L 182.031998 199.836209 
L 182.362263 199.836209 
L 182.362263 198.909968 
L 182.543076 198.909968 
L 182.543076 197.983727 
L 182.664074 197.983727 
L 182.708675 196.131245 
L 182.8064 196.131245 
L 182.8064 195.668124 
L 182.956359 195.668124 
L 182.956359 195.205004 
L 183.109394 195.205004 
L 183.109394 194.741883 
L 183.636792 194.741883 
L 183.712652 192.889401 
L 184.037617 192.889401 
L 184.037617 191.96316 
L 184.602123 191.96316 
L 184.602123 191.50004 
L 185.063517 191.50004 
L 185.160543 190.573799 
L 185.410311 190.573799 
L 185.410311 190.110678 
L 186.135184 190.110678 
L 186.135184 189.647558 
L 186.284597 189.647558 
L 186.284597 189.184437 
L 186.547496 189.184437 
L 186.547496 188.721316 
L 187.061696 188.721316 
L 187.061696 188.258196 
L 187.483428 188.258196 
L 187.483428 187.331955 
L 187.658698 187.331955 
L 187.658698 186.868834 
L 188.170926 186.868834 
L 188.242426 185.479473 
L 188.333003 185.479473 
L 188.333003 185.016352 
L 188.576509 185.016352 
L 188.627343 183.626991 
L 188.879315 183.626991 
L 188.879315 182.70075 
L 189.372593 182.70075 
L 189.372593 182.237629 
L 189.887752 182.237629 
L 189.887752 181.774509 
L 190.553675 181.774509 
L 190.553675 181.311388 
L 190.748593 181.311388 
L 190.829869 179.922027 
L 190.907985 179.922027 
L 190.933019 178.995786 
L 191.702424 178.995786 
L 191.702424 178.532665 
L 191.874449 178.532665 
L 191.948033 177.143304 
L 192.161759 177.143304 
L 192.161759 176.680183 
L 192.441862 176.680183 
L 192.441862 176.217062 
L 193.008676 176.217062 
L 193.016078 174.827701 
L 193.695789 174.827701 
L 193.695789 173.90146 
L 193.856369 173.90146 
L 193.856369 173.438339 
L 193.978175 173.438339 
L 194.05736 172.512098 
L 194.624318 172.512098 
L 194.624318 172.048978 
L 194.91431 172.048978 
L 194.91431 171.585857 
L 195.284231 171.585857 
L 195.284231 170.659616 
L 195.878265 170.659616 
L 195.932606 168.807134 
L 196.402019 168.807134 
L 196.402019 168.344014 
L 196.902607 168.344014 
L 196.902607 167.880893 
L 197.446718 167.880893 
L 197.446718 167.417773 
L 198.096447 167.417773 
L 198.147983 166.491532 
L 198.305326 166.491532 
L 198.305326 166.028411 
L 198.758366 166.028411 
L 198.758366 165.10217 
L 199.045258 165.10217 
L 199.045258 164.175929 
L 199.654215 164.175929 
L 199.654215 163.712808 
L 200.057473 163.712808 
L 200.057473 163.249688 
L 200.224687 163.249688 
L 200.224687 162.786567 
L 202.258241 162.786567 
L 202.258241 162.323447 
L 202.524803 162.323447 
L 202.524803 161.860326 
L 204.156239 161.860326 
L 204.156239 161.397206 
L 212.896659 161.397206 
L 212.896659 160.934085 
L 213.49453 160.934085 
L 213.49453 160.470965 
L 220.24577 160.470965 
L 220.24577 160.007844 
L 223.839461 160.007844 
L 223.839461 159.544724 
L 338.688 159.544724 
L 338.688 159.544724 
" style="fill:none;stroke:#6495ed;stroke-linecap:square;stroke-width:1.5;"/>
   </g>
   <g id="line2d_51">
    <defs>
     <path d="M -0 6 
L 6 -6 
L -6 -6 
z
" id="me5301407a1" style="stroke:#6495ed;stroke-linejoin:miter;stroke-width:1.5;"/>
    </defs>
    <g>
     <use style="fill-opacity:0;stroke:#6495ed;stroke-linejoin:miter;stroke-width:1.5;" x="92.34655" xlink:href="#me5301407a1" y="273.472371"/>
     <use style="fill-opacity:0;stroke:#6495ed;stroke-linejoin:miter;stroke-width:1.5;" x="145.814278" xlink:href="#me5301407a1" y="240.590815"/>
     <use style="fill-opacity:0;stroke:#6495ed;stroke-linejoin:miter;stroke-width:1.5;" x="192.161759" xlink:href="#me5301407a1" y="177.143304"/>
     <use style="fill-opacity:0;stroke:#6495ed;stroke-linejoin:miter;stroke-width:1.5;" x="223.839461" xlink:href="#me5301407a1" y="159.544724"/>
     <use style="fill-opacity:0;stroke:#6495ed;stroke-linejoin:miter;stroke-width:1.5;" x="223.839461" xlink:href="#me5301407a1" y="159.544724"/>
     <use style="fill-opacity:0;stroke:#6495ed;stroke-linejoin:miter;stroke-width:1.5;" x="338.688" xlink:href="#me5301407a1" y="159.544724"/>
    </g>
   </g>
   <g id="line2d_52">
    <path style="fill:none;stroke:#6495ed;stroke-linecap:square;stroke-width:1.5;"/>
    <g/>
   </g>
   <g id="line2d_53">
    <path clip-path="url(#pa328abc578)" d="M 258.37755 159.544724 
" style="fill:none;stroke:#6495ed;stroke-linecap:square;stroke-width:1.5;"/>
    <defs>
     <path d="M -12 12 
L 12 -12 
M -12 -12 
L 12 12 
" id="mebf4ed7141" style="stroke:#6495ed;"/>
    </defs>
    <g clip-path="url(#pa328abc578)">
     <use style="fill:#6495ed;stroke:#6495ed;" x="258.37755" xlink:href="#mebf4ed7141" y="159.544724"/>
    </g>
   </g>
   <g id="line2d_54">
    <defs>
     <path d="M 0 1.5 
C 0.397805 1.5 0.77937 1.341951 1.06066 1.06066 
C 1.341951 0.77937 1.5 0.397805 1.5 0 
C 1.5 -0.397805 1.341951 -0.77937 1.06066 -1.06066 
C 0.77937 -1.341951 0.397805 -1.5 0 -1.5 
C -0.397805 -1.5 -0.77937 -1.341951 -1.06066 -1.06066 
C -1.341951 -0.77937 -1.5 -0.397805 -1.5 0 
C -1.5 0.397805 -1.341951 0.77937 -1.06066 1.06066 
C -0.77937 1.341951 -0.397805 1.5 0 1.5 
z
" id="m2efa5eed40" style="stroke:#ff0000;"/>
    </defs>
    <g>
     <use style="fill:#ff0000;stroke:#ff0000;" x="266.679002" xlink:href="#m2efa5eed40" y="62.752535"/>
     <use style="fill:#ff0000;stroke:#ff0000;" x="266.679002" xlink:href="#m2efa5eed40" y="62.752535"/>
    </g>
   </g>
   <g id="line2d_55">
    <path d="M 38.440992 298.944 
L 38.440992 292.460313 
L 50.52898 292.460313 
L 50.52898 289.68159 
L 57.6 289.68159 
L 57.6 288.292228 
L 62.616969 288.292228 
L 62.616969 282.734782 
L 72.376266 282.734782 
L 72.376266 281.34542 
L 74.704957 281.34542 
L 74.704957 279.956059 
L 76.759008 279.956059 
L 76.759008 279.492938 
L 78.59642 279.492938 
L 78.59642 278.566697 
L 80.258561 278.566697 
L 80.258561 277.640456 
L 81.775977 277.640456 
L 81.775977 277.177336 
L 84.464254 277.177336 
L 84.464254 275.324854 
L 86.792945 275.324854 
L 86.792945 274.398612 
L 87.850195 274.398612 
L 87.850195 273.009251 
L 90.684409 273.009251 
L 90.684409 270.230528 
L 91.535274 270.230528 
L 91.535274 269.304287 
L 93.121756 269.304287 
L 93.121756 268.378046 
L 94.575872 268.378046 
L 94.575872 267.451805 
L 95.259853 267.451805 
L 95.259853 266.525564 
L 96.552242 266.525564 
L 96.552242 266.062443 
L 97.16421 266.062443 
L 97.16421 264.673082 
L 98.32726 264.673082 
L 98.32726 264.209961 
L 99.41757 264.209961 
L 99.41757 263.28372 
L 102.772397 263.28372 
L 102.772397 262.8206 
L 104.033617 262.8206 
L 104.033617 261.894358 
L 106.311539 261.894358 
L 106.311539 261.431238 
L 106.66386 261.431238 
L 106.66386 260.504997 
L 107.347841 260.504997 
L 107.347841 260.041876 
L 107.680028 260.041876 
L 107.680028 259.578756 
L 108.326001 259.578756 
L 108.326001 259.115635 
L 108.948899 259.115635 
L 108.948899 258.652515 
L 109.252198 258.652515 
L 109.252198 258.189394 
L 109.550313 258.189394 
L 109.550313 257.263153 
L 110.694282 257.263153 
L 110.694282 256.800033 
L 111.767808 256.800033 
L 111.767808 256.336912 
L 112.280765 256.336912 
L 112.280765 255.873792 
L 112.779064 255.873792 
L 112.779064 255.410671 
L 114.193835 255.410671 
L 114.193835 251.705707 
L 115.917635 251.705707 
L 115.917635 251.242587 
L 116.914437 251.242587 
L 116.914437 250.779466 
L 120.254726 250.779466 
L 120.254726 250.316346 
L 120.41399 250.316346 
L 120.41399 249.390104 
L 120.571812 249.390104 
L 120.571812 248.463863 
L 120.883236 248.463863 
L 120.883236 248.000743 
L 121.189196 248.000743 
L 121.189196 247.537622 
L 123.460928 247.537622 
L 123.460928 246.611381 
L 127.378995 246.611381 
L 127.378995 245.68514 
L 127.590383 245.68514 
L 127.590383 244.295779 
L 130.218525 244.295779 
L 130.218525 243.369538 
L 133.04822 243.369538 
L 133.04822 242.906417 
L 133.277185 242.906417 
L 133.277185 242.443297 
L 135.681535 242.443297 
L 135.681535 241.980176 
L 136.202149 241.980176 
L 136.202149 241.053935 
L 136.456742 241.053935 
L 136.456742 240.127694 
L 136.582658 240.127694 
L 136.582658 239.664574 
L 138.369812 239.664574 
L 138.369812 239.201453 
L 139.730821 239.201453 
L 139.730821 238.738333 
L 141.47371 238.738333 
L 141.47371 237.812091 
L 142.170445 237.812091 
L 142.170445 236.88585 
L 144.470655 236.88585 
L 144.470655 235.959609 
L 146.644018 235.959609 
L 146.714338 235.033368 
L 147.436066 235.033368 
L 147.436066 234.570248 
L 151.554972 234.570248 
L 151.554972 233.644007 
L 151.949246 233.644007 
L 151.949246 232.717766 
L 155.6368 232.717766 
L 155.6368 232.254645 
L 157.147202 232.254645 
L 157.147202 231.328404 
L 160.442124 231.328404 
L 160.442124 230.865284 
L 161.600536 230.865284 
L 161.600536 230.402163 
L 167.756314 230.402163 
L 167.756314 229.939043 
L 168.496336 229.939043 
L 168.496336 229.012802 
L 168.835167 229.012802 
L 168.835167 227.62344 
L 170.054794 227.62344 
L 170.054794 226.697199 
L 171.003983 226.697199 
L 171.003983 225.770958 
L 173.447772 225.770958 
L 173.447772 225.307837 
L 176.196549 225.307837 
L 176.196549 224.844717 
L 178.135904 224.844717 
L 178.135904 222.992235 
L 178.462846 222.992235 
L 178.462846 222.529114 
L 179.262495 222.529114 
L 179.262495 222.065994 
L 179.392276 222.065994 
L 179.488982 219.750391 
L 179.558493 219.750391 
L 179.654285 216.971668 
L 179.964628 216.971668 
L 179.964628 214.656066 
L 180.779458 214.656066 
L 180.779458 214.192945 
L 181.31353 214.192945 
L 181.409774 212.803583 
L 183.222213 212.803583 
L 183.265412 211.414222 
L 183.364365 211.414222 
L 183.364365 210.951101 
L 183.708446 210.951101 
L 183.708446 210.487981 
L 183.921659 210.487981 
L 183.959015 209.098619 
L 184.074726 209.098619 
L 184.074726 208.635499 
L 192.130645 208.635499 
L 192.130645 208.172378 
L 192.53593 208.172378 
L 192.53593 207.709258 
L 192.742612 207.709258 
L 192.742612 206.783017 
L 193.555255 206.783017 
L 193.555255 205.856776 
L 195.203911 205.856776 
L 195.203911 205.393655 
L 195.78802 205.393655 
L 195.78802 204.930535 
L 196.959756 204.930535 
L 196.959756 204.467414 
L 197.765218 204.467414 
L 197.765218 204.004294 
L 197.939061 204.004294 
L 197.959508 202.151812 
L 203.753138 202.151812 
L 203.753138 201.688691 
L 204.114518 201.688691 
L 204.114518 201.225571 
L 204.232901 201.225571 
L 204.232901 200.76245 
L 205.279547 200.76245 
L 205.279547 200.299329 
L 205.979581 200.299329 
L 206.019415 198.909968 
L 206.097647 198.909968 
L 206.097647 197.983727 
L 206.284215 197.983727 
L 206.284215 197.520606 
L 206.866825 197.520606 
L 206.866825 197.057486 
L 207.786352 197.057486 
L 207.786352 196.131245 
L 207.929582 196.131245 
L 207.929582 195.205004 
L 208.065403 195.205004 
L 208.11321 193.815642 
L 210.235972 193.815642 
L 210.235972 193.352522 
L 210.500443 193.352522 
L 210.500443 192.889401 
L 210.638375 192.889401 
L 210.701119 191.50004 
L 211.537023 191.50004 
L 211.537023 191.036919 
L 211.848923 191.036919 
L 211.848923 190.573799 
L 212.651171 190.573799 
L 212.651171 189.647558 
L 212.819176 189.647558 
L 212.819176 188.721316 
L 213.483091 188.721316 
L 213.483091 187.795075 
L 213.733018 187.795075 
L 213.733018 187.331955 
L 214.120449 187.331955 
L 214.147639 186.405714 
L 214.683429 186.405714 
L 214.683429 185.942593 
L 215.177656 185.942593 
L 215.177656 185.016352 
L 215.378608 185.016352 
L 215.436672 183.16387 
L 215.797761 183.16387 
L 215.797761 182.70075 
L 217.138941 182.70075 
L 217.138941 181.774509 
L 219.182955 181.774509 
L 219.182955 181.311388 
L 219.401632 181.311388 
L 219.401632 180.848268 
L 220.480217 180.848268 
L 220.480217 180.385147 
L 221.134257 180.385147 
L 221.134257 179.922027 
L 222.211027 179.922027 
L 222.211027 178.995786 
L 222.354258 178.995786 
L 222.354258 178.532665 
L 222.875682 178.532665 
L 222.875682 178.069545 
L 224.338555 178.069545 
L 224.369229 176.680183 
L 225.010662 176.680183 
L 225.010662 176.217062 
L 226.127722 176.217062 
L 226.166468 174.36458 
L 226.268639 174.36458 
L 226.268639 173.90146 
L 226.583131 173.90146 
L 226.583131 173.438339 
L 227.911781 173.438339 
L 227.966389 172.048978 
L 228.342305 172.048978 
L 228.342305 171.585857 
L 228.880528 171.585857 
L 228.880528 171.122737 
L 230.119746 171.122737 
L 230.119746 170.196496 
L 231.802177 170.196496 
L 231.802177 169.270255 
L 232.752863 169.270255 
L 232.847605 167.417773 
L 233.020139 167.417773 
L 233.094129 166.491532 
L 233.13249 166.491532 
L 233.226426 163.249688 
L 233.432004 163.249688 
L 233.448763 160.007844 
L 233.795616 160.007844 
L 233.795616 159.081603 
L 234.623392 159.081603 
L 234.623392 158.618483 
L 234.750931 158.618483 
L 234.777722 156.766001 
L 234.8847 156.766001 
L 234.8847 156.30288 
L 235.272526 156.30288 
L 235.350634 153.987278 
L 235.433161 153.987278 
L 235.484003 152.134795 
L 235.713853 152.134795 
L 235.783432 147.50359 
L 236.111808 147.50359 
L 236.111808 147.04047 
L 236.273809 147.04047 
L 236.326585 145.651108 
L 236.414874 145.651108 
L 236.521455 142.409265 
L 236.679713 142.409265 
L 236.773661 140.556783 
L 236.870898 140.556783 
L 236.960847 139.630541 
L 237.051126 139.630541 
L 237.157825 138.7043 
L 237.21054 138.7043 
L 237.21054 138.24118 
L 237.376653 138.24118 
L 237.487357 136.851818 
L 237.754349 136.851818 
L 237.754349 135.925577 
L 238.450369 135.925577 
L 238.525473 134.536216 
L 238.725738 134.536216 
L 238.725738 133.609975 
L 239.007421 133.609975 
L 239.007421 132.683734 
L 239.450097 132.683734 
L 239.528907 129.44189 
L 239.734804 129.44189 
L 239.828346 123.884444 
L 239.937461 123.884444 
L 240.003771 121.568841 
L 240.193618 121.568841 
L 240.193618 121.105721 
L 240.307689 121.105721 
L 240.405222 119.253239 
L 240.786804 119.253239 
L 240.876787 118.326998 
L 240.919074 118.326998 
L 240.991689 115.548274 
L 241.090494 115.548274 
L 241.090494 114.622033 
L 241.244416 114.622033 
L 241.313062 111.84331 
L 241.367415 111.84331 
L 241.465654 109.064587 
L 241.538627 109.064587 
L 241.636972 107.212105 
L 241.768094 107.212105 
L 241.829609 105.822744 
L 241.892554 105.822744 
L 241.943791 100.728418 
L 242.041959 100.728418 
L 242.041959 100.265297 
L 242.158447 100.265297 
L 242.246039 98.875936 
L 242.281479 98.875936 
L 242.298295 95.634092 
L 242.436451 95.634092 
L 242.455581 94.707851 
L 242.637998 94.707851 
L 242.724646 92.855369 
L 242.815122 92.855369 
L 242.815122 92.392249 
L 243.09955 92.392249 
L 243.09955 91.929128 
L 243.375703 91.929128 
L 243.375703 91.466008 
L 243.547023 91.466008 
L 243.547023 91.002887 
L 243.66148 91.002887 
L 243.66148 90.539766 
L 244.493805 90.539766 
L 244.59083 87.761043 
L 244.813416 87.761043 
L 244.813416 87.297923 
L 245.77905 87.297923 
L 245.77905 86.371682 
L 247.216033 86.371682 
L 247.311792 84.98232 
L 247.619993 84.98232 
L 247.704991 84.056079 
L 247.787871 84.056079 
L 247.787871 83.592959 
L 248.417455 83.592959 
L 248.417455 82.666718 
L 248.895624 82.666718 
L 248.981317 80.814236 
L 249.552412 80.814236 
L 249.552412 79.887995 
L 249.868491 79.887995 
L 249.868491 79.424874 
L 250.652251 79.424874 
L 250.652251 78.498633 
L 250.915233 78.498633 
L 250.936087 76.646151 
L 251.364273 76.646151 
L 251.364273 76.18303 
L 252.423424 76.18303 
L 252.423424 75.71991 
L 252.719173 75.71991 
L 252.719173 75.256789 
L 255.029994 75.256789 
L 255.029994 74.330548 
L 255.187957 74.330548 
L 255.187957 73.867428 
L 255.592441 73.867428 
L 255.592441 72.941187 
L 256.352321 72.941187 
L 256.352321 72.014946 
L 256.492517 72.014946 
L 256.492517 71.088705 
L 256.916897 71.088705 
L 256.916897 70.162464 
L 257.212405 70.162464 
L 257.236129 69.236223 
L 257.331072 69.236223 
L 257.331072 68.773102 
L 258.342812 68.773102 
L 258.400496 66.457499 
L 258.49504 66.457499 
L 258.540594 65.068138 
L 259.041606 65.068138 
L 259.041606 64.605017 
L 259.835431 64.605017 
L 259.835431 64.141897 
L 262.651978 64.141897 
L 262.651978 63.215656 
L 266.679002 63.215656 
L 266.679002 62.752535 
L 338.688 62.752535 
L 338.688 62.752535 
" style="fill:none;stroke:#ff0000;stroke-linecap:square;stroke-width:1.5;"/>
   </g>
   <g id="line2d_56">
    <defs>
     <path d="M 0 -6 
L -5.196152 -3 
L -5.196152 3 
L -0 6 
L 5.196152 3 
L 5.196152 -3 
z
" id="mc87d329b32" style="stroke:#ff0000;stroke-linejoin:miter;stroke-width:1.5;"/>
    </defs>
    <g>
     <use style="fill-opacity:0;stroke:#ff0000;stroke-linejoin:miter;stroke-width:1.5;" x="87.850195" xlink:href="#mc87d329b32" y="274.398612"/>
     <use style="fill-opacity:0;stroke:#ff0000;stroke-linejoin:miter;stroke-width:1.5;" x="151.554972" xlink:href="#mc87d329b32" y="234.570248"/>
     <use style="fill-opacity:0;stroke:#ff0000;stroke-linejoin:miter;stroke-width:1.5;" x="220.480217" xlink:href="#mc87d329b32" y="180.385147"/>
     <use style="fill-opacity:0;stroke:#ff0000;stroke-linejoin:miter;stroke-width:1.5;" x="249.552412" xlink:href="#mc87d329b32" y="80.814236"/>
     <use style="fill-opacity:0;stroke:#ff0000;stroke-linejoin:miter;stroke-width:1.5;" x="266.679002" xlink:href="#mc87d329b32" y="62.752535"/>
     <use style="fill-opacity:0;stroke:#ff0000;stroke-linejoin:miter;stroke-width:1.5;" x="338.688" xlink:href="#mc87d329b32" y="62.752535"/>
    </g>
   </g>
   <g id="line2d_57">
    <path style="fill:none;stroke:#ff0000;stroke-linecap:square;stroke-width:1.5;"/>
    <g/>
   </g>
   <g id="line2d_58">
    <path clip-path="url(#pa328abc578)" d="M 301.383987 62.752535 
" style="fill:none;stroke:#ff0000;stroke-linecap:square;stroke-width:1.5;"/>
    <defs>
     <path d="M -12 12 
L 12 -12 
M -12 -12 
L 12 12 
" id="maea3a6e853" style="stroke:#ff0000;"/>
    </defs>
    <g clip-path="url(#pa328abc578)">
     <use style="fill:#ff0000;stroke:#ff0000;" x="301.383987" xlink:href="#maea3a6e853" y="62.752535"/>
    </g>
   </g>
   <g id="line2d_59">
    <path d="M 338.688 159.544724 
L 369.60768 293.571802 
" style="fill:none;stroke:#6495ed;stroke-linecap:square;stroke-width:1.5;"/>
    <g>
     <use style="fill-opacity:0;stroke:#6495ed;stroke-linejoin:miter;stroke-width:1.5;" x="338.688" xlink:href="#me5301407a1" y="159.544724"/>
     <use style="fill-opacity:0;stroke:#6495ed;stroke-linejoin:miter;stroke-width:1.5;" x="369.60768" xlink:href="#me5301407a1" y="293.571802"/>
    </g>
   </g>
   <g id="line2d_60">
    <path d="M 338.688 147.04047 
L 369.60768 241.998701 
" style="fill:none;stroke:#ffa500;stroke-linecap:square;stroke-width:1.5;"/>
    <g>
     <use style="fill-opacity:0;stroke:#ffa500;stroke-linejoin:bevel;stroke-width:1.5;" x="338.688" xlink:href="#m28715bdf1e" y="147.04047"/>
     <use style="fill-opacity:0;stroke:#ffa500;stroke-linejoin:bevel;stroke-width:1.5;" x="369.60768" xlink:href="#m28715bdf1e" y="241.998701"/>
    </g>
   </g>
   <g id="line2d_61">
    <path d="M 338.688 136.851818 
L 369.60768 190.4256 
" style="fill:none;stroke:#000080;stroke-linecap:square;stroke-width:1.5;"/>
    <g>
     <use style="fill-opacity:0;stroke:#000080;stroke-width:1.5;" x="338.688" xlink:href="#ma16fca65cf" y="136.851818"/>
     <use style="fill-opacity:0;stroke:#000080;stroke-width:1.5;" x="369.60768" xlink:href="#ma16fca65cf" y="190.4256"/>
    </g>
   </g>
   <g id="line2d_62">
    <path d="M 338.688 129.905011 
L 369.60768 138.852499 
" style="fill:none;stroke:#ff00ff;stroke-linecap:square;stroke-width:1.5;"/>
    <g>
     <use style="fill-opacity:0;stroke:#ff00ff;stroke-linejoin:miter;stroke-width:1.5;" x="338.688" xlink:href="#mbe5b7d0200" y="129.905011"/>
     <use style="fill-opacity:0;stroke:#ff00ff;stroke-linejoin:miter;stroke-width:1.5;" x="369.60768" xlink:href="#mbe5b7d0200" y="138.852499"/>
    </g>
   </g>
   <g id="line2d_63">
    <path d="M 338.688 62.752535 
L 369.60768 87.279398 
" style="fill:none;stroke:#ff0000;stroke-linecap:square;stroke-width:1.5;"/>
    <g>
     <use style="fill-opacity:0;stroke:#ff0000;stroke-linejoin:miter;stroke-width:1.5;" x="338.688" xlink:href="#mc87d329b32" y="62.752535"/>
     <use style="fill-opacity:0;stroke:#ff0000;stroke-linejoin:miter;stroke-width:1.5;" x="369.60768" xlink:href="#mc87d329b32" y="87.279398"/>
    </g>
   </g>
   <g id="line2d_64">
    <path d="M 338.688 298.944 
L 338.688 30.334099 
" style="fill:none;stroke:#000000;stroke-linecap:square;stroke-width:1.5;"/>
   </g>
   <g id="patch_3">
    <path d="M 57.6 298.944 
L 57.6 27.648 
" style="fill:none;stroke:#000000;stroke-linecap:square;stroke-linejoin:miter;stroke-width:0.8;"/>
   </g>
   <g id="patch_4">
    <path d="M 338.688 298.944 
L 338.688 27.648 
" style="fill:none;stroke:#000000;stroke-linecap:square;stroke-linejoin:miter;stroke-width:0.8;"/>
   </g>
   <g id="patch_5">
    <path d="M 57.6 298.944 
L 338.688 298.944 
" style="fill:none;stroke:#000000;stroke-linecap:square;stroke-linejoin:miter;stroke-width:0.8;"/>
   </g>
   <g id="patch_6">
    <path d="M 57.6 27.648 
L 338.688 27.648 
" style="fill:none;stroke:#000000;stroke-linecap:square;stroke-linejoin:miter;stroke-width:0.8;"/>
   </g>
   <g id="text_13">
    <!-- COMO-32 b -->
    <defs>
     <path d="M 64.40625 67.28125 
L 64.40625 56.890625 
Q 59.421875 61.53125 53.78125 63.8125 
Q 48.140625 66.109375 41.796875 66.109375 
Q 29.296875 66.109375 22.65625 58.46875 
Q 16.015625 50.828125 16.015625 36.375 
Q 16.015625 21.96875 22.65625 14.328125 
Q 29.296875 6.6875 41.796875 6.6875 
Q 48.140625 6.6875 53.78125 8.984375 
Q 59.421875 11.28125 64.40625 15.921875 
L 64.40625 5.609375 
Q 59.234375 2.09375 53.4375 0.328125 
Q 47.65625 -1.421875 41.21875 -1.421875 
Q 24.65625 -1.421875 15.125 8.703125 
Q 5.609375 18.84375 5.609375 36.375 
Q 5.609375 53.953125 15.125 64.078125 
Q 24.65625 74.21875 41.21875 74.21875 
Q 47.75 74.21875 53.53125 72.484375 
Q 59.328125 70.75 64.40625 67.28125 
z
" id="DejaVuSans-67"/>
     <path d="M 39.40625 66.21875 
Q 28.65625 66.21875 22.328125 58.203125 
Q 16.015625 50.203125 16.015625 36.375 
Q 16.015625 22.609375 22.328125 14.59375 
Q 28.65625 6.59375 39.40625 6.59375 
Q 50.140625 6.59375 56.421875 14.59375 
Q 62.703125 22.609375 62.703125 36.375 
Q 62.703125 50.203125 56.421875 58.203125 
Q 50.140625 66.21875 39.40625 66.21875 
z
M 39.40625 74.21875 
Q 54.734375 74.21875 63.90625 63.9375 
Q 73.09375 53.65625 73.09375 36.375 
Q 73.09375 19.140625 63.90625 8.859375 
Q 54.734375 -1.421875 39.40625 -1.421875 
Q 24.03125 -1.421875 14.8125 8.828125 
Q 5.609375 19.09375 5.609375 36.375 
Q 5.609375 53.65625 14.8125 63.9375 
Q 24.03125 74.21875 39.40625 74.21875 
z
" id="DejaVuSans-79"/>
     <path d="M 9.8125 72.90625 
L 24.515625 72.90625 
L 43.109375 23.296875 
L 61.8125 72.90625 
L 76.515625 72.90625 
L 76.515625 0 
L 66.890625 0 
L 66.890625 64.015625 
L 48.09375 14.015625 
L 38.1875 14.015625 
L 19.390625 64.015625 
L 19.390625 0 
L 9.8125 0 
z
" id="DejaVuSans-77"/>
     <path d="M 40.578125 39.3125 
Q 47.65625 37.796875 51.625 33 
Q 55.609375 28.21875 55.609375 21.1875 
Q 55.609375 10.40625 48.1875 4.484375 
Q 40.765625 -1.421875 27.09375 -1.421875 
Q 22.515625 -1.421875 17.65625 -0.515625 
Q 12.796875 0.390625 7.625 2.203125 
L 7.625 11.71875 
Q 11.71875 9.328125 16.59375 8.109375 
Q 21.484375 6.890625 26.8125 6.890625 
Q 36.078125 6.890625 40.9375 10.546875 
Q 45.796875 14.203125 45.796875 21.1875 
Q 45.796875 27.640625 41.28125 31.265625 
Q 36.765625 34.90625 28.71875 34.90625 
L 20.21875 34.90625 
L 20.21875 43.015625 
L 29.109375 43.015625 
Q 36.375 43.015625 40.234375 45.921875 
Q 44.09375 48.828125 44.09375 54.296875 
Q 44.09375 59.90625 40.109375 62.90625 
Q 36.140625 65.921875 28.71875 65.921875 
Q 24.65625 65.921875 20.015625 65.03125 
Q 15.375 64.15625 9.8125 62.3125 
L 9.8125 71.09375 
Q 15.4375 72.65625 20.34375 73.4375 
Q 25.25 74.21875 29.59375 74.21875 
Q 40.828125 74.21875 47.359375 69.109375 
Q 53.90625 64.015625 53.90625 55.328125 
Q 53.90625 49.265625 50.4375 45.09375 
Q 46.96875 40.921875 40.578125 39.3125 
z
" id="DejaVuSans-51"/>
     <path d="M 48.6875 27.296875 
Q 48.6875 37.203125 44.609375 42.84375 
Q 40.53125 48.484375 33.40625 48.484375 
Q 26.265625 48.484375 22.1875 42.84375 
Q 18.109375 37.203125 18.109375 27.296875 
Q 18.109375 17.390625 22.1875 11.75 
Q 26.265625 6.109375 33.40625 6.109375 
Q 40.53125 6.109375 44.609375 11.75 
Q 48.6875 17.390625 48.6875 27.296875 
z
M 18.109375 46.390625 
Q 20.953125 51.265625 25.265625 53.625 
Q 29.59375 56 35.59375 56 
Q 45.5625 56 51.78125 48.09375 
Q 58.015625 40.1875 58.015625 27.296875 
Q 58.015625 14.40625 51.78125 6.484375 
Q 45.5625 -1.421875 35.59375 -1.421875 
Q 29.59375 -1.421875 25.265625 0.953125 
Q 20.953125 3.328125 18.109375 8.203125 
L 18.109375 0 
L 9.078125 0 
L 9.078125 75.984375 
L 18.109375 75.984375 
z
" id="DejaVuSans-98"/>
    </defs>
    <g transform="translate(375.22944 298.262739)scale(0.17 -0.17)">
     <use xlink:href="#DejaVuSans-67"/>
     <use x="69.824219" xlink:href="#DejaVuSans-79"/>
     <use x="148.535156" xlink:href="#DejaVuSans-77"/>
     <use x="234.814453" xlink:href="#DejaVuSans-79"/>
     <use x="313.556641" xlink:href="#DejaVuSans-45"/>
     <use x="349.640625" xlink:href="#DejaVuSans-51"/>
     <use x="413.263672" xlink:href="#DejaVuSans-50"/>
     <use x="476.886719" xlink:href="#DejaVuSans-32"/>
     <use x="508.673828" xlink:href="#DejaVuSans-98"/>
    </g>
   </g>
   <g id="text_14">
    <!-- tfr-5-tol -->
    <defs>
     <path d="M 10.796875 72.90625 
L 49.515625 72.90625 
L 49.515625 64.59375 
L 19.828125 64.59375 
L 19.828125 46.734375 
Q 21.96875 47.46875 24.109375 47.828125 
Q 26.265625 48.1875 28.421875 48.1875 
Q 40.625 48.1875 47.75 41.5 
Q 54.890625 34.8125 54.890625 23.390625 
Q 54.890625 11.625 47.5625 5.09375 
Q 40.234375 -1.421875 26.90625 -1.421875 
Q 22.3125 -1.421875 17.546875 -0.640625 
Q 12.796875 0.140625 7.71875 1.703125 
L 7.71875 11.625 
Q 12.109375 9.234375 16.796875 8.0625 
Q 21.484375 6.890625 26.703125 6.890625 
Q 35.15625 6.890625 40.078125 11.328125 
Q 45.015625 15.765625 45.015625 23.390625 
Q 45.015625 31 40.078125 35.4375 
Q 35.15625 39.890625 26.703125 39.890625 
Q 22.75 39.890625 18.8125 39.015625 
Q 14.890625 38.140625 10.796875 36.28125 
z
" id="DejaVuSans-53"/>
    </defs>
    <g transform="translate(375.22944 246.689638)scale(0.17 -0.17)">
     <use xlink:href="#DejaVuSans-116"/>
     <use x="39.208984" xlink:href="#DejaVuSans-102"/>
     <use x="74.414062" xlink:href="#DejaVuSans-114"/>
     <use x="115.433594" xlink:href="#DejaVuSans-45"/>
     <use x="151.517578" xlink:href="#DejaVuSans-53"/>
     <use x="215.140625" xlink:href="#DejaVuSans-45"/>
     <use x="251.224609" xlink:href="#DejaVuSans-116"/>
     <use x="290.433594" xlink:href="#DejaVuSans-111"/>
     <use x="351.615234" xlink:href="#DejaVuSans-108"/>
    </g>
   </g>
   <g id="text_15">
    <!-- tfr-1-tol -->
    <g transform="translate(375.22944 195.116537)scale(0.17 -0.17)">
     <use xlink:href="#DejaVuSans-116"/>
     <use x="39.208984" xlink:href="#DejaVuSans-102"/>
     <use x="74.414062" xlink:href="#DejaVuSans-114"/>
     <use x="115.433594" xlink:href="#DejaVuSans-45"/>
     <use x="151.517578" xlink:href="#DejaVuSans-49"/>
     <use x="215.140625" xlink:href="#DejaVuSans-45"/>
     <use x="251.224609" xlink:href="#DejaVuSans-116"/>
     <use x="290.433594" xlink:href="#DejaVuSans-111"/>
     <use x="351.615234" xlink:href="#DejaVuSans-108"/>
    </g>
   </g>
   <g id="text_16">
    <!-- tfr-3-tol -->
    <g transform="translate(375.22944 143.543437)scale(0.17 -0.17)">
     <use xlink:href="#DejaVuSans-116"/>
     <use x="39.208984" xlink:href="#DejaVuSans-102"/>
     <use x="74.414062" xlink:href="#DejaVuSans-114"/>
     <use x="115.433594" xlink:href="#DejaVuSans-45"/>
     <use x="151.517578" xlink:href="#DejaVuSans-51"/>
     <use x="215.140625" xlink:href="#DejaVuSans-45"/>
     <use x="251.224609" xlink:href="#DejaVuSans-116"/>
     <use x="290.433594" xlink:href="#DejaVuSans-111"/>
     <use x="351.615234" xlink:href="#DejaVuSans-108"/>
    </g>
   </g>
   <g id="text_17">
    <!-- HMO-CMA-E -->
    <defs>
     <path d="M 9.8125 72.90625 
L 19.671875 72.90625 
L 19.671875 43.015625 
L 55.515625 43.015625 
L 55.515625 72.90625 
L 65.375 72.90625 
L 65.375 0 
L 55.515625 0 
L 55.515625 34.71875 
L 19.671875 34.71875 
L 19.671875 0 
L 9.8125 0 
z
" id="DejaVuSans-72"/>
     <path d="M 34.1875 63.1875 
L 20.796875 26.90625 
L 47.609375 26.90625 
z
M 28.609375 72.90625 
L 39.796875 72.90625 
L 67.578125 0 
L 57.328125 0 
L 50.6875 18.703125 
L 17.828125 18.703125 
L 11.1875 0 
L 0.78125 0 
z
" id="DejaVuSans-65"/>
     <path d="M 9.8125 72.90625 
L 55.90625 72.90625 
L 55.90625 64.59375 
L 19.671875 64.59375 
L 19.671875 43.015625 
L 54.390625 43.015625 
L 54.390625 34.71875 
L 19.671875 34.71875 
L 19.671875 8.296875 
L 56.78125 8.296875 
L 56.78125 0 
L 9.8125 0 
z
" id="DejaVuSans-69"/>
    </defs>
    <g transform="translate(375.22944 91.970336)scale(0.17 -0.17)">
     <use xlink:href="#DejaVuSans-72"/>
     <use x="75.195312" xlink:href="#DejaVuSans-77"/>
     <use x="161.474609" xlink:href="#DejaVuSans-79"/>
     <use x="240.216797" xlink:href="#DejaVuSans-45"/>
     <use x="276.300781" xlink:href="#DejaVuSans-67"/>
     <use x="346.125" xlink:href="#DejaVuSans-77"/>
     <use x="432.404297" xlink:href="#DejaVuSans-65"/>
     <use x="500.78125" xlink:href="#DejaVuSans-45"/>
     <use x="536.865234" xlink:href="#DejaVuSans-69"/>
    </g>
   </g>
   <g id="text_18">
    <!-- best 2016 -->
    <g transform="translate(375.22944 40.397235)scale(0.17 -0.17)">
     <use xlink:href="#DejaVuSans-98"/>
     <use x="63.476562" xlink:href="#DejaVuSans-101"/>
     <use x="125" xlink:href="#DejaVuSans-115"/>
     <use x="177.099609" xlink:href="#DejaVuSans-116"/>
     <use x="216.308594" xlink:href="#DejaVuSans-32"/>
     <use x="248.095703" xlink:href="#DejaVuSans-50"/>
     <use x="311.71875" xlink:href="#DejaVuSans-48"/>
     <use x="375.341797" xlink:href="#DejaVuSans-49"/>
     <use x="438.964844" xlink:href="#DejaVuSans-54"/>
    </g>
   </g>
   <g id="text_19">
    <!-- bbob-biobj f45, 3-D -->
    <defs>
     <path d="M 9.421875 54.6875 
L 18.40625 54.6875 
L 18.40625 -0.984375 
Q 18.40625 -11.421875 14.421875 -16.109375 
Q 10.453125 -20.796875 1.609375 -20.796875 
L -1.8125 -20.796875 
L -1.8125 -13.1875 
L 0.59375 -13.1875 
Q 5.71875 -13.1875 7.5625 -10.8125 
Q 9.421875 -8.453125 9.421875 -0.984375 
z
M 9.421875 75.984375 
L 18.40625 75.984375 
L 18.40625 64.59375 
L 9.421875 64.59375 
z
" id="DejaVuSans-106"/>
     <path d="M 19.671875 64.796875 
L 19.671875 8.109375 
L 31.59375 8.109375 
Q 46.6875 8.109375 53.6875 14.9375 
Q 60.6875 21.78125 60.6875 36.53125 
Q 60.6875 51.171875 53.6875 57.984375 
Q 46.6875 64.796875 31.59375 64.796875 
z
M 9.8125 72.90625 
L 30.078125 72.90625 
Q 51.265625 72.90625 61.171875 64.09375 
Q 71.09375 55.28125 71.09375 36.53125 
Q 71.09375 17.671875 61.125 8.828125 
Q 51.171875 0 30.078125 0 
L 9.8125 0 
z
" id="DejaVuSans-68"/>
    </defs>
    <g transform="translate(60.41088 38.111366)scale(0.102 -0.102)">
     <use xlink:href="#DejaVuSans-98"/>
     <use x="63.476562" xlink:href="#DejaVuSans-98"/>
     <use x="126.953125" xlink:href="#DejaVuSans-111"/>
     <use x="188.134766" xlink:href="#DejaVuSans-98"/>
     <use x="251.611328" xlink:href="#DejaVuSans-45"/>
     <use x="287.695312" xlink:href="#DejaVuSans-98"/>
     <use x="351.171875" xlink:href="#DejaVuSans-105"/>
     <use x="378.955078" xlink:href="#DejaVuSans-111"/>
     <use x="440.136719" xlink:href="#DejaVuSans-98"/>
     <use x="503.613281" xlink:href="#DejaVuSans-106"/>
     <use x="531.396484" xlink:href="#DejaVuSans-32"/>
     <use x="563.183594" xlink:href="#DejaVuSans-102"/>
     <use x="598.388672" xlink:href="#DejaVuSans-52"/>
     <use x="662.011719" xlink:href="#DejaVuSans-53"/>
     <use x="725.634766" xlink:href="#DejaVuSans-44"/>
     <use x="757.421875" xlink:href="#DejaVuSans-32"/>
     <use x="789.208984" xlink:href="#DejaVuSans-51"/>
     <use x="852.832031" xlink:href="#DejaVuSans-45"/>
     <use x="888.916016" xlink:href="#DejaVuSans-68"/>
    </g>
    <!-- 58 targets: 1..-1.0e-4 -->
    <defs>
     <path d="M 11.71875 12.40625 
L 22.015625 12.40625 
L 22.015625 0 
L 11.71875 0 
z
M 11.71875 51.703125 
L 22.015625 51.703125 
L 22.015625 39.3125 
L 11.71875 39.3125 
z
" id="DejaVuSans-58"/>
    </defs>
    <g transform="translate(60.41088 49.533135)scale(0.102 -0.102)">
     <use xlink:href="#DejaVuSans-53"/>
     <use x="63.623047" xlink:href="#DejaVuSans-56"/>
     <use x="127.246094" xlink:href="#DejaVuSans-32"/>
     <use x="159.033203" xlink:href="#DejaVuSans-116"/>
     <use x="198.242188" xlink:href="#DejaVuSans-97"/>
     <use x="259.521484" xlink:href="#DejaVuSans-114"/>
     <use x="300.619141" xlink:href="#DejaVuSans-103"/>
     <use x="364.095703" xlink:href="#DejaVuSans-101"/>
     <use x="425.619141" xlink:href="#DejaVuSans-116"/>
     <use x="464.828125" xlink:href="#DejaVuSans-115"/>
     <use x="516.927734" xlink:href="#DejaVuSans-58"/>
     <use x="550.619141" xlink:href="#DejaVuSans-32"/>
     <use x="582.40625" xlink:href="#DejaVuSans-49"/>
     <use x="646.029297" xlink:href="#DejaVuSans-46"/>
     <use x="677.816406" xlink:href="#DejaVuSans-46"/>
     <use x="709.603516" xlink:href="#DejaVuSans-45"/>
     <use x="745.6875" xlink:href="#DejaVuSans-49"/>
     <use x="809.310547" xlink:href="#DejaVuSans-46"/>
     <use x="841.097656" xlink:href="#DejaVuSans-48"/>
     <use x="904.720703" xlink:href="#DejaVuSans-101"/>
     <use x="966.244141" xlink:href="#DejaVuSans-45"/>
     <use x="1002.328125" xlink:href="#DejaVuSans-52"/>
    </g>
    <!-- 10, 3 instances -->
    <g transform="translate(60.41088 60.954904)scale(0.102 -0.102)">
     <use xlink:href="#DejaVuSans-49"/>
     <use x="63.623047" xlink:href="#DejaVuSans-48"/>
     <use x="127.246094" xlink:href="#DejaVuSans-44"/>
     <use x="159.033203" xlink:href="#DejaVuSans-32"/>
     <use x="190.820312" xlink:href="#DejaVuSans-51"/>
     <use x="254.443359" xlink:href="#DejaVuSans-32"/>
     <use x="286.230469" xlink:href="#DejaVuSans-105"/>
     <use x="314.013672" xlink:href="#DejaVuSans-110"/>
     <use x="377.392578" xlink:href="#DejaVuSans-115"/>
     <use x="429.492188" xlink:href="#DejaVuSans-116"/>
     <use x="468.701172" xlink:href="#DejaVuSans-97"/>
     <use x="529.980469" xlink:href="#DejaVuSans-110"/>
     <use x="593.359375" xlink:href="#DejaVuSans-99"/>
     <use x="648.339844" xlink:href="#DejaVuSans-101"/>
     <use x="709.863281" xlink:href="#DejaVuSans-115"/>
    </g>
   </g>
   <g id="text_20">
    <!-- v2.3.3.7, hv-hash=67c1f2bcb1c9af92 -->
    <defs>
     <path d="M 8.203125 72.90625 
L 55.078125 72.90625 
L 55.078125 68.703125 
L 28.609375 0 
L 18.3125 0 
L 43.21875 64.59375 
L 8.203125 64.59375 
z
" id="DejaVuSans-55"/>
     <path d="M 54.890625 33.015625 
L 54.890625 0 
L 45.90625 0 
L 45.90625 32.71875 
Q 45.90625 40.484375 42.875 44.328125 
Q 39.84375 48.1875 33.796875 48.1875 
Q 26.515625 48.1875 22.3125 43.546875 
Q 18.109375 38.921875 18.109375 30.90625 
L 18.109375 0 
L 9.078125 0 
L 9.078125 75.984375 
L 18.109375 75.984375 
L 18.109375 46.1875 
Q 21.34375 51.125 25.703125 53.5625 
Q 30.078125 56 35.796875 56 
Q 45.21875 56 50.046875 50.171875 
Q 54.890625 44.34375 54.890625 33.015625 
z
" id="DejaVuSans-104"/>
     <path d="M 10.59375 45.40625 
L 73.1875 45.40625 
L 73.1875 37.203125 
L 10.59375 37.203125 
z
M 10.59375 25.484375 
L 73.1875 25.484375 
L 73.1875 17.1875 
L 10.59375 17.1875 
z
" id="DejaVuSans-61"/>
     <path d="M 10.984375 1.515625 
L 10.984375 10.5 
Q 14.703125 8.734375 18.5 7.8125 
Q 22.3125 6.890625 25.984375 6.890625 
Q 35.75 6.890625 40.890625 13.453125 
Q 46.046875 20.015625 46.78125 33.40625 
Q 43.953125 29.203125 39.59375 26.953125 
Q 35.25 24.703125 29.984375 24.703125 
Q 19.046875 24.703125 12.671875 31.3125 
Q 6.296875 37.9375 6.296875 49.421875 
Q 6.296875 60.640625 12.9375 67.421875 
Q 19.578125 74.21875 30.609375 74.21875 
Q 43.265625 74.21875 49.921875 64.515625 
Q 56.59375 54.828125 56.59375 36.375 
Q 56.59375 19.140625 48.40625 8.859375 
Q 40.234375 -1.421875 26.421875 -1.421875 
Q 22.703125 -1.421875 18.890625 -0.6875 
Q 15.09375 0.046875 10.984375 1.515625 
z
M 30.609375 32.421875 
Q 37.25 32.421875 41.125 36.953125 
Q 45.015625 41.5 45.015625 49.421875 
Q 45.015625 57.28125 41.125 61.84375 
Q 37.25 66.40625 30.609375 66.40625 
Q 23.96875 66.40625 20.09375 61.84375 
Q 16.21875 57.28125 16.21875 49.421875 
Q 16.21875 41.5 20.09375 36.953125 
Q 23.96875 32.421875 30.609375 32.421875 
z
" id="DejaVuSans-57"/>
    </defs>
    <g style="fill:#808080;" transform="translate(103.757281 294.151352)scale(0.1 -0.1)">
     <use xlink:href="#DejaVuSans-118"/>
     <use x="59.179688" xlink:href="#DejaVuSans-50"/>
     <use x="122.802734" xlink:href="#DejaVuSans-46"/>
     <use x="154.589844" xlink:href="#DejaVuSans-51"/>
     <use x="218.212891" xlink:href="#DejaVuSans-46"/>
     <use x="250" xlink:href="#DejaVuSans-51"/>
     <use x="313.623047" xlink:href="#DejaVuSans-46"/>
     <use x="345.410156" xlink:href="#DejaVuSans-55"/>
     <use x="409.033203" xlink:href="#DejaVuSans-44"/>
     <use x="440.820312" xlink:href="#DejaVuSans-32"/>
     <use x="472.607422" xlink:href="#DejaVuSans-104"/>
     <use x="535.986328" xlink:href="#DejaVuSans-118"/>
     <use x="595.134766" xlink:href="#DejaVuSans-45"/>
     <use x="631.21875" xlink:href="#DejaVuSans-104"/>
     <use x="694.597656" xlink:href="#DejaVuSans-97"/>
     <use x="755.876953" xlink:href="#DejaVuSans-115"/>
     <use x="807.976562" xlink:href="#DejaVuSans-104"/>
     <use x="871.355469" xlink:href="#DejaVuSans-61"/>
     <use x="955.144531" xlink:href="#DejaVuSans-54"/>
     <use x="1018.767578" xlink:href="#DejaVuSans-55"/>
     <use x="1082.390625" xlink:href="#DejaVuSans-99"/>
     <use x="1137.371094" xlink:href="#DejaVuSans-49"/>
     <use x="1200.994141" xlink:href="#DejaVuSans-102"/>
     <use x="1236.199219" xlink:href="#DejaVuSans-50"/>
     <use x="1299.822266" xlink:href="#DejaVuSans-98"/>
     <use x="1363.298828" xlink:href="#DejaVuSans-99"/>
     <use x="1418.279297" xlink:href="#DejaVuSans-98"/>
     <use x="1481.755859" xlink:href="#DejaVuSans-49"/>
     <use x="1545.378906" xlink:href="#DejaVuSans-99"/>
     <use x="1600.359375" xlink:href="#DejaVuSans-57"/>
     <use x="1663.982422" xlink:href="#DejaVuSans-97"/>
     <use x="1725.261719" xlink:href="#DejaVuSans-102"/>
     <use x="1760.466797" xlink:href="#DejaVuSans-57"/>
     <use x="1824.089844" xlink:href="#DejaVuSans-50"/>
    </g>
   </g>
   <g id="text_21">
    <!-- 45 Diff. Powers/Gallagher 101 -->
    <defs>
     <path d="M 19.671875 64.796875 
L 19.671875 37.40625 
L 32.078125 37.40625 
Q 38.96875 37.40625 42.71875 40.96875 
Q 46.484375 44.53125 46.484375 51.125 
Q 46.484375 57.671875 42.71875 61.234375 
Q 38.96875 64.796875 32.078125 64.796875 
z
M 9.8125 72.90625 
L 32.078125 72.90625 
Q 44.34375 72.90625 50.609375 67.359375 
Q 56.890625 61.8125 56.890625 51.125 
Q 56.890625 40.328125 50.609375 34.8125 
Q 44.34375 29.296875 32.078125 29.296875 
L 19.671875 29.296875 
L 19.671875 0 
L 9.8125 0 
z
" id="DejaVuSans-80"/>
     <path d="M 4.203125 54.6875 
L 13.1875 54.6875 
L 24.421875 12.015625 
L 35.59375 54.6875 
L 46.1875 54.6875 
L 57.421875 12.015625 
L 68.609375 54.6875 
L 77.59375 54.6875 
L 63.28125 0 
L 52.6875 0 
L 40.921875 44.828125 
L 29.109375 0 
L 18.5 0 
z
" id="DejaVuSans-119"/>
     <path d="M 59.515625 10.40625 
L 59.515625 29.984375 
L 43.40625 29.984375 
L 43.40625 38.09375 
L 69.28125 38.09375 
L 69.28125 6.78125 
Q 63.578125 2.734375 56.6875 0.65625 
Q 49.8125 -1.421875 42 -1.421875 
Q 24.90625 -1.421875 15.25 8.5625 
Q 5.609375 18.5625 5.609375 36.375 
Q 5.609375 54.25 15.25 64.234375 
Q 24.90625 74.21875 42 74.21875 
Q 49.125 74.21875 55.546875 72.453125 
Q 61.96875 70.703125 67.390625 67.28125 
L 67.390625 56.78125 
Q 61.921875 61.421875 55.765625 63.765625 
Q 49.609375 66.109375 42.828125 66.109375 
Q 29.4375 66.109375 22.71875 58.640625 
Q 16.015625 51.171875 16.015625 36.375 
Q 16.015625 21.625 22.71875 14.15625 
Q 29.4375 6.6875 42.828125 6.6875 
Q 48.046875 6.6875 52.140625 7.59375 
Q 56.25 8.5 59.515625 10.40625 
z
" id="DejaVuSans-71"/>
    </defs>
    <g transform="translate(48.436187 21.648)scale(0.2 -0.2)">
     <use xlink:href="#DejaVuSans-52"/>
     <use x="63.623047" xlink:href="#DejaVuSans-53"/>
     <use x="127.246094" xlink:href="#DejaVuSans-32"/>
     <use x="159.033203" xlink:href="#DejaVuSans-68"/>
     <use x="236.035156" xlink:href="#DejaVuSans-105"/>
     <use x="263.818359" xlink:href="#DejaVuSans-102"/>
     <use x="299.023438" xlink:href="#DejaVuSans-102"/>
     <use x="334.119141" xlink:href="#DejaVuSans-46"/>
     <use x="365.90625" xlink:href="#DejaVuSans-32"/>
     <use x="397.693359" xlink:href="#DejaVuSans-80"/>
     <use x="457.949219" xlink:href="#DejaVuSans-111"/>
     <use x="519.130859" xlink:href="#DejaVuSans-119"/>
     <use x="600.917969" xlink:href="#DejaVuSans-101"/>
     <use x="662.441406" xlink:href="#DejaVuSans-114"/>
     <use x="703.554688" xlink:href="#DejaVuSans-115"/>
     <use x="755.654297" xlink:href="#DejaVuSans-47"/>
     <use x="789.345703" xlink:href="#DejaVuSans-71"/>
     <use x="866.835938" xlink:href="#DejaVuSans-97"/>
     <use x="928.115234" xlink:href="#DejaVuSans-108"/>
     <use x="955.898438" xlink:href="#DejaVuSans-108"/>
     <use x="983.681641" xlink:href="#DejaVuSans-97"/>
     <use x="1044.960938" xlink:href="#DejaVuSans-103"/>
     <use x="1108.4375" xlink:href="#DejaVuSans-104"/>
     <use x="1171.816406" xlink:href="#DejaVuSans-101"/>
     <use x="1233.339844" xlink:href="#DejaVuSans-114"/>
     <use x="1274.453125" xlink:href="#DejaVuSans-32"/>
     <use x="1306.240234" xlink:href="#DejaVuSans-49"/>
     <use x="1369.863281" xlink:href="#DejaVuSans-48"/>
     <use x="1433.486328" xlink:href="#DejaVuSans-49"/>
    </g>
   </g>
  </g>
 </g>
 <defs>
  <clipPath id="pa328abc578">
   <rect height="271.296" width="281.088" x="57.6" y="27.648"/>
  </clipPath>
 </defs>
</svg>
