<?xml version="1.0" encoding="utf-8" standalone="no"?>
<!DOCTYPE svg PUBLIC "-//W3C//DTD SVG 1.1//EN"
  "http://www.w3.org/Graphics/SVG/1.1/DTD/svg11.dtd">
<!-- Created with matplotlib (https://matplotlib.org/) -->
<svg height="345.6pt" version="1.1" viewBox="0 0 460.8 345.6" width="460.8pt" xmlns="http://www.w3.org/2000/svg" xmlns:xlink="http://www.w3.org/1999/xlink">
 <defs>
  <style type="text/css">
*{stroke-linecap:butt;stroke-linejoin:round;}
  </style>
 </defs>
 <g id="figure_1">
  <g id="patch_1">
   <path d="M 0 345.6 
L 460.8 345.6 
L 460.8 0 
L 0 0 
z
" style="fill:#ffffff;"/>
  </g>
  <g id="axes_1">
   <g id="patch_2">
    <path d="M 57.6 298.944 
L 338.688 298.944 
L 338.688 27.648 
L 57.6 27.648 
z
" style="fill:#ffffff;"/>
   </g>
   <g id="line2d_1">
    <path d="M 63.467834 298.944 
L 63.467834 294.312795 
L 67.850577 294.312795 
L 67.850577 285.050384 
L 72.867545 285.050384 
L 72.867545 275.787974 
L 84.955534 275.787974 
L 84.955534 271.156769 
L 94.714831 271.156769 
L 94.714831 257.263153 
L 100.934985 257.263153 
L 100.934985 248.000743 
L 106.382575 248.000743 
L 106.382575 243.369538 
L 113.022974 243.369538 
L 113.022974 234.107127 
L 118.363901 234.107127 
L 118.363901 220.213512 
L 125.822869 220.213512 
L 125.822869 210.951101 
L 139.887228 210.951101 
L 139.887228 201.688691 
L 157.909655 201.688691 
L 157.909655 192.426281 
L 163.645619 192.426281 
L 163.645619 187.795075 
L 171.2274 187.795075 
L 171.2274 173.90146 
L 172.904553 173.90146 
L 172.904553 169.270255 
L 179.986511 169.270255 
L 179.986511 155.376639 
L 186.475144 155.376639 
L 186.475144 146.114229 
L 192.969643 146.114229 
L 192.969643 141.483024 
L 203.361772 141.483024 
L 203.361772 127.589408 
L 205.616916 127.589408 
L 205.616916 122.958203 
L 209.730855 122.958203 
L 209.730855 109.064587 
L 216.033959 109.064587 
L 216.033959 99.802177 
L 221.013918 99.802177 
L 221.013918 90.539766 
L 222.939045 90.539766 
L 222.939045 85.908561 
L 225.01523 85.908561 
L 225.01523 76.646151 
L 227.804533 76.646151 
L 227.804533 62.752535 
L 338.688 62.752535 
" style="fill:none;stroke:#f5deb3;stroke-linecap:square;stroke-width:4;"/>
   </g>
   <g id="line2d_2">
    <defs>
     <path d="M 0 7.778175 
L 7.778175 0 
L 0 -7.778175 
L -7.778175 0 
z
" id="m3d5946bc3c" style="stroke:#f5deb3;stroke-linejoin:miter;stroke-width:1.5;"/>
    </defs>
    <g>
     <use style="fill:#f5deb3;stroke:#f5deb3;stroke-linejoin:miter;stroke-width:1.5;" x="118.363901" xlink:href="#m3d5946bc3c" y="220.213512"/>
     <use style="fill:#f5deb3;stroke:#f5deb3;stroke-linejoin:miter;stroke-width:1.5;" x="203.361772" xlink:href="#m3d5946bc3c" y="127.589408"/>
     <use style="fill:#f5deb3;stroke:#f5deb3;stroke-linejoin:miter;stroke-width:1.5;" x="227.804533" xlink:href="#m3d5946bc3c" y="76.646151"/>
     <use style="fill:#f5deb3;stroke:#f5deb3;stroke-linejoin:miter;stroke-width:1.5;" x="227.804533" xlink:href="#m3d5946bc3c" y="62.752535"/>
     <use style="fill:#f5deb3;stroke:#f5deb3;stroke-linejoin:miter;stroke-width:1.5;" x="338.688" xlink:href="#m3d5946bc3c" y="62.752535"/>
    </g>
   </g>
   <g id="line2d_3">
    <path style="fill:none;stroke:#f5deb3;stroke-linecap:square;stroke-width:4;"/>
    <g/>
   </g>
   <g id="line2d_4">
    <path d="M 338.688 62.752535 
L 369.60768 35.706297 
" style="fill:none;stroke:#f5deb3;stroke-linecap:square;stroke-width:4;"/>
    <g>
     <use style="fill:#f5deb3;stroke:#f5deb3;stroke-linejoin:miter;stroke-width:1.5;" x="338.688" xlink:href="#m3d5946bc3c" y="62.752535"/>
     <use style="fill:#f5deb3;stroke:#f5deb3;stroke-linejoin:miter;stroke-width:1.5;" x="369.60768" xlink:href="#m3d5946bc3c" y="35.706297"/>
    </g>
   </g>
   <g id="matplotlib.axis_1">
    <g id="xtick_1">
     <g id="line2d_5">
      <path clip-path="url(#p5206d468d0)" d="M 57.6 298.944 
L 57.6 27.648 
" style="fill:none;stroke:#b0b0b0;stroke-linecap:square;stroke-width:0.8;"/>
     </g>
     <g id="line2d_6">
      <defs>
       <path d="M 0 0 
L 0 3.5 
" id="maf58f5370c" style="stroke:#000000;stroke-width:0.8;"/>
      </defs>
      <g>
       <use style="stroke:#000000;stroke-width:0.8;" x="57.6" xlink:href="#maf58f5370c" y="298.944"/>
      </g>
     </g>
     <g id="text_1">
      <!-- 0 -->
      <defs>
       <path d="M 31.78125 66.40625 
Q 24.171875 66.40625 20.328125 58.90625 
Q 16.5 51.421875 16.5 36.375 
Q 16.5 21.390625 20.328125 13.890625 
Q 24.171875 6.390625 31.78125 6.390625 
Q 39.453125 6.390625 43.28125 13.890625 
Q 47.125 21.390625 47.125 36.375 
Q 47.125 51.421875 43.28125 58.90625 
Q 39.453125 66.40625 31.78125 66.40625 
z
M 31.78125 74.21875 
Q 44.046875 74.21875 50.515625 64.515625 
Q 56.984375 54.828125 56.984375 36.375 
Q 56.984375 17.96875 50.515625 8.265625 
Q 44.046875 -1.421875 31.78125 -1.421875 
Q 19.53125 -1.421875 13.0625 8.265625 
Q 6.59375 17.96875 6.59375 36.375 
Q 6.59375 54.828125 13.0625 64.515625 
Q 19.53125 74.21875 31.78125 74.21875 
z
" id="DejaVuSans-48"/>
      </defs>
      <g transform="translate(51.2375 321.140875)scale(0.2 -0.2)">
       <use xlink:href="#DejaVuSans-48"/>
      </g>
     </g>
    </g>
    <g id="xtick_2">
     <g id="line2d_7">
      <path clip-path="url(#p5206d468d0)" d="M 137.910857 298.944 
L 137.910857 27.648 
" style="fill:none;stroke:#b0b0b0;stroke-linecap:square;stroke-width:0.8;"/>
     </g>
     <g id="line2d_8">
      <g>
       <use style="stroke:#000000;stroke-width:0.8;" x="137.910857" xlink:href="#maf58f5370c" y="298.944"/>
      </g>
     </g>
     <g id="text_2">
      <!-- 2 -->
      <defs>
       <path d="M 19.1875 8.296875 
L 53.609375 8.296875 
L 53.609375 0 
L 7.328125 0 
L 7.328125 8.296875 
Q 12.9375 14.109375 22.625 23.890625 
Q 32.328125 33.6875 34.8125 36.53125 
Q 39.546875 41.84375 41.421875 45.53125 
Q 43.3125 49.21875 43.3125 52.78125 
Q 43.3125 58.59375 39.234375 62.25 
Q 35.15625 65.921875 28.609375 65.921875 
Q 23.96875 65.921875 18.8125 64.3125 
Q 13.671875 62.703125 7.8125 59.421875 
L 7.8125 69.390625 
Q 13.765625 71.78125 18.9375 73 
Q 24.125 74.21875 28.421875 74.21875 
Q 39.75 74.21875 46.484375 68.546875 
Q 53.21875 62.890625 53.21875 53.421875 
Q 53.21875 48.921875 51.53125 44.890625 
Q 49.859375 40.875 45.40625 35.40625 
Q 44.1875 33.984375 37.640625 27.21875 
Q 31.109375 20.453125 19.1875 8.296875 
z
" id="DejaVuSans-50"/>
      </defs>
      <g transform="translate(131.548357 321.140875)scale(0.2 -0.2)">
       <use xlink:href="#DejaVuSans-50"/>
      </g>
     </g>
    </g>
    <g id="xtick_3">
     <g id="line2d_9">
      <path clip-path="url(#p5206d468d0)" d="M 218.221714 298.944 
L 218.221714 27.648 
" style="fill:none;stroke:#b0b0b0;stroke-linecap:square;stroke-width:0.8;"/>
     </g>
     <g id="line2d_10">
      <g>
       <use style="stroke:#000000;stroke-width:0.8;" x="218.221714" xlink:href="#maf58f5370c" y="298.944"/>
      </g>
     </g>
     <g id="text_3">
      <!-- 4 -->
      <defs>
       <path d="M 37.796875 64.3125 
L 12.890625 25.390625 
L 37.796875 25.390625 
z
M 35.203125 72.90625 
L 47.609375 72.90625 
L 47.609375 25.390625 
L 58.015625 25.390625 
L 58.015625 17.1875 
L 47.609375 17.1875 
L 47.609375 0 
L 37.796875 0 
L 37.796875 17.1875 
L 4.890625 17.1875 
L 4.890625 26.703125 
z
" id="DejaVuSans-52"/>
      </defs>
      <g transform="translate(211.859214 321.140875)scale(0.2 -0.2)">
       <use xlink:href="#DejaVuSans-52"/>
      </g>
     </g>
    </g>
    <g id="xtick_4">
     <g id="line2d_11">
      <path clip-path="url(#p5206d468d0)" d="M 298.532571 298.944 
L 298.532571 27.648 
" style="fill:none;stroke:#b0b0b0;stroke-linecap:square;stroke-width:0.8;"/>
     </g>
     <g id="line2d_12">
      <g>
       <use style="stroke:#000000;stroke-width:0.8;" x="298.532571" xlink:href="#maf58f5370c" y="298.944"/>
      </g>
     </g>
     <g id="text_4">
      <!-- 6 -->
      <defs>
       <path d="M 33.015625 40.375 
Q 26.375 40.375 22.484375 35.828125 
Q 18.609375 31.296875 18.609375 23.390625 
Q 18.609375 15.53125 22.484375 10.953125 
Q 26.375 6.390625 33.015625 6.390625 
Q 39.65625 6.390625 43.53125 10.953125 
Q 47.40625 15.53125 47.40625 23.390625 
Q 47.40625 31.296875 43.53125 35.828125 
Q 39.65625 40.375 33.015625 40.375 
z
M 52.59375 71.296875 
L 52.59375 62.3125 
Q 48.875 64.0625 45.09375 64.984375 
Q 41.3125 65.921875 37.59375 65.921875 
Q 27.828125 65.921875 22.671875 59.328125 
Q 17.53125 52.734375 16.796875 39.40625 
Q 19.671875 43.65625 24.015625 45.921875 
Q 28.375 48.1875 33.59375 48.1875 
Q 44.578125 48.1875 50.953125 41.515625 
Q 57.328125 34.859375 57.328125 23.390625 
Q 57.328125 12.15625 50.6875 5.359375 
Q 44.046875 -1.421875 33.015625 -1.421875 
Q 20.359375 -1.421875 13.671875 8.265625 
Q 6.984375 17.96875 6.984375 36.375 
Q 6.984375 53.65625 15.1875 63.9375 
Q 23.390625 74.21875 37.203125 74.21875 
Q 40.921875 74.21875 44.703125 73.484375 
Q 48.484375 72.75 52.59375 71.296875 
z
" id="DejaVuSans-54"/>
      </defs>
      <g transform="translate(292.170071 321.140875)scale(0.2 -0.2)">
       <use xlink:href="#DejaVuSans-54"/>
      </g>
     </g>
    </g>
    <g id="xtick_5">
     <g id="line2d_13">
      <path clip-path="url(#p5206d468d0)" d="M 97.755429 298.944 
L 97.755429 27.648 
" style="fill:none;stroke:#b0b0b0;stroke-linecap:square;stroke-width:0.8;"/>
     </g>
     <g id="line2d_14">
      <defs>
       <path d="M 0 0 
L 0 2 
" id="mcb0b52a895" style="stroke:#000000;stroke-width:0.6;"/>
      </defs>
      <g>
       <use style="stroke:#000000;stroke-width:0.6;" x="97.755429" xlink:href="#mcb0b52a895" y="298.944"/>
      </g>
     </g>
    </g>
    <g id="xtick_6">
     <g id="line2d_15">
      <path clip-path="url(#p5206d468d0)" d="M 178.066286 298.944 
L 178.066286 27.648 
" style="fill:none;stroke:#b0b0b0;stroke-linecap:square;stroke-width:0.8;"/>
     </g>
     <g id="line2d_16">
      <g>
       <use style="stroke:#000000;stroke-width:0.6;" x="178.066286" xlink:href="#mcb0b52a895" y="298.944"/>
      </g>
     </g>
    </g>
    <g id="xtick_7">
     <g id="line2d_17">
      <path clip-path="url(#p5206d468d0)" d="M 258.377143 298.944 
L 258.377143 27.648 
" style="fill:none;stroke:#b0b0b0;stroke-linecap:square;stroke-width:0.8;"/>
     </g>
     <g id="line2d_18">
      <g>
       <use style="stroke:#000000;stroke-width:0.6;" x="258.377143" xlink:href="#mcb0b52a895" y="298.944"/>
      </g>
     </g>
    </g>
    <g id="xtick_8">
     <g id="line2d_19">
      <path clip-path="url(#p5206d468d0)" d="M 338.688 298.944 
L 338.688 27.648 
" style="fill:none;stroke:#b0b0b0;stroke-linecap:square;stroke-width:0.8;"/>
     </g>
     <g id="line2d_20">
      <g>
       <use style="stroke:#000000;stroke-width:0.6;" x="338.688" xlink:href="#mcb0b52a895" y="298.944"/>
      </g>
     </g>
    </g>
    <g id="text_5">
     <!-- log10(# f-evals / dimension) -->
     <defs>
      <path d="M 9.421875 75.984375 
L 18.40625 75.984375 
L 18.40625 0 
L 9.421875 0 
z
" id="DejaVuSans-108"/>
      <path d="M 30.609375 48.390625 
Q 23.390625 48.390625 19.1875 42.75 
Q 14.984375 37.109375 14.984375 27.296875 
Q 14.984375 17.484375 19.15625 11.84375 
Q 23.34375 6.203125 30.609375 6.203125 
Q 37.796875 6.203125 41.984375 11.859375 
Q 46.1875 17.53125 46.1875 27.296875 
Q 46.1875 37.015625 41.984375 42.703125 
Q 37.796875 48.390625 30.609375 48.390625 
z
M 30.609375 56 
Q 42.328125 56 49.015625 48.375 
Q 55.71875 40.765625 55.71875 27.296875 
Q 55.71875 13.875 49.015625 6.21875 
Q 42.328125 -1.421875 30.609375 -1.421875 
Q 18.84375 -1.421875 12.171875 6.21875 
Q 5.515625 13.875 5.515625 27.296875 
Q 5.515625 40.765625 12.171875 48.375 
Q 18.84375 56 30.609375 56 
z
" id="DejaVuSans-111"/>
      <path d="M 45.40625 27.984375 
Q 45.40625 37.75 41.375 43.109375 
Q 37.359375 48.484375 30.078125 48.484375 
Q 22.859375 48.484375 18.828125 43.109375 
Q 14.796875 37.75 14.796875 27.984375 
Q 14.796875 18.265625 18.828125 12.890625 
Q 22.859375 7.515625 30.078125 7.515625 
Q 37.359375 7.515625 41.375 12.890625 
Q 45.40625 18.265625 45.40625 27.984375 
z
M 54.390625 6.78125 
Q 54.390625 -7.171875 48.1875 -13.984375 
Q 42 -20.796875 29.203125 -20.796875 
Q 24.46875 -20.796875 20.265625 -20.09375 
Q 16.0625 -19.390625 12.109375 -17.921875 
L 12.109375 -9.1875 
Q 16.0625 -11.328125 19.921875 -12.34375 
Q 23.78125 -13.375 27.78125 -13.375 
Q 36.625 -13.375 41.015625 -8.765625 
Q 45.40625 -4.15625 45.40625 5.171875 
L 45.40625 9.625 
Q 42.625 4.78125 38.28125 2.390625 
Q 33.9375 0 27.875 0 
Q 17.828125 0 11.671875 7.65625 
Q 5.515625 15.328125 5.515625 27.984375 
Q 5.515625 40.671875 11.671875 48.328125 
Q 17.828125 56 27.875 56 
Q 33.9375 56 38.28125 53.609375 
Q 42.625 51.21875 45.40625 46.390625 
L 45.40625 54.6875 
L 54.390625 54.6875 
z
" id="DejaVuSans-103"/>
      <path d="M 12.40625 8.296875 
L 28.515625 8.296875 
L 28.515625 63.921875 
L 10.984375 60.40625 
L 10.984375 69.390625 
L 28.421875 72.90625 
L 38.28125 72.90625 
L 38.28125 8.296875 
L 54.390625 8.296875 
L 54.390625 0 
L 12.40625 0 
z
" id="DejaVuSans-49"/>
      <path d="M 31 75.875 
Q 24.46875 64.65625 21.28125 53.65625 
Q 18.109375 42.671875 18.109375 31.390625 
Q 18.109375 20.125 21.3125 9.0625 
Q 24.515625 -2 31 -13.1875 
L 23.1875 -13.1875 
Q 15.875 -1.703125 12.234375 9.375 
Q 8.59375 20.453125 8.59375 31.390625 
Q 8.59375 42.28125 12.203125 53.3125 
Q 15.828125 64.359375 23.1875 75.875 
z
" id="DejaVuSans-40"/>
      <path d="M 51.125 44 
L 36.921875 44 
L 32.8125 27.6875 
L 47.125 27.6875 
z
M 43.796875 71.78125 
L 38.71875 51.515625 
L 52.984375 51.515625 
L 58.109375 71.78125 
L 65.921875 71.78125 
L 60.890625 51.515625 
L 76.125 51.515625 
L 76.125 44 
L 58.984375 44 
L 54.984375 27.6875 
L 70.515625 27.6875 
L 70.515625 20.21875 
L 53.078125 20.21875 
L 48 0 
L 40.1875 0 
L 45.21875 20.21875 
L 30.90625 20.21875 
L 25.875 0 
L 18.015625 0 
L 23.09375 20.21875 
L 7.71875 20.21875 
L 7.71875 27.6875 
L 24.90625 27.6875 
L 29 44 
L 13.28125 44 
L 13.28125 51.515625 
L 30.90625 51.515625 
L 35.890625 71.78125 
z
" id="DejaVuSans-35"/>
      <path id="DejaVuSans-32"/>
      <path d="M 37.109375 75.984375 
L 37.109375 68.5 
L 28.515625 68.5 
Q 23.6875 68.5 21.796875 66.546875 
Q 19.921875 64.59375 19.921875 59.515625 
L 19.921875 54.6875 
L 34.71875 54.6875 
L 34.71875 47.703125 
L 19.921875 47.703125 
L 19.921875 0 
L 10.890625 0 
L 10.890625 47.703125 
L 2.296875 47.703125 
L 2.296875 54.6875 
L 10.890625 54.6875 
L 10.890625 58.5 
Q 10.890625 67.625 15.140625 71.796875 
Q 19.390625 75.984375 28.609375 75.984375 
z
" id="DejaVuSans-102"/>
      <path d="M 4.890625 31.390625 
L 31.203125 31.390625 
L 31.203125 23.390625 
L 4.890625 23.390625 
z
" id="DejaVuSans-45"/>
      <path d="M 56.203125 29.59375 
L 56.203125 25.203125 
L 14.890625 25.203125 
Q 15.484375 15.921875 20.484375 11.0625 
Q 25.484375 6.203125 34.421875 6.203125 
Q 39.59375 6.203125 44.453125 7.46875 
Q 49.3125 8.734375 54.109375 11.28125 
L 54.109375 2.78125 
Q 49.265625 0.734375 44.1875 -0.34375 
Q 39.109375 -1.421875 33.890625 -1.421875 
Q 20.796875 -1.421875 13.15625 6.1875 
Q 5.515625 13.8125 5.515625 26.8125 
Q 5.515625 40.234375 12.765625 48.109375 
Q 20.015625 56 32.328125 56 
Q 43.359375 56 49.78125 48.890625 
Q 56.203125 41.796875 56.203125 29.59375 
z
M 47.21875 32.234375 
Q 47.125 39.59375 43.09375 43.984375 
Q 39.0625 48.390625 32.421875 48.390625 
Q 24.90625 48.390625 20.390625 44.140625 
Q 15.875 39.890625 15.1875 32.171875 
z
" id="DejaVuSans-101"/>
      <path d="M 2.984375 54.6875 
L 12.5 54.6875 
L 29.59375 8.796875 
L 46.6875 54.6875 
L 56.203125 54.6875 
L 35.6875 0 
L 23.484375 0 
z
" id="DejaVuSans-118"/>
      <path d="M 34.28125 27.484375 
Q 23.390625 27.484375 19.1875 25 
Q 14.984375 22.515625 14.984375 16.5 
Q 14.984375 11.71875 18.140625 8.90625 
Q 21.296875 6.109375 26.703125 6.109375 
Q 34.1875 6.109375 38.703125 11.40625 
Q 43.21875 16.703125 43.21875 25.484375 
L 43.21875 27.484375 
z
M 52.203125 31.203125 
L 52.203125 0 
L 43.21875 0 
L 43.21875 8.296875 
Q 40.140625 3.328125 35.546875 0.953125 
Q 30.953125 -1.421875 24.3125 -1.421875 
Q 15.921875 -1.421875 10.953125 3.296875 
Q 6 8.015625 6 15.921875 
Q 6 25.140625 12.171875 29.828125 
Q 18.359375 34.515625 30.609375 34.515625 
L 43.21875 34.515625 
L 43.21875 35.40625 
Q 43.21875 41.609375 39.140625 45 
Q 35.0625 48.390625 27.6875 48.390625 
Q 23 48.390625 18.546875 47.265625 
Q 14.109375 46.140625 10.015625 43.890625 
L 10.015625 52.203125 
Q 14.9375 54.109375 19.578125 55.046875 
Q 24.21875 56 28.609375 56 
Q 40.484375 56 46.34375 49.84375 
Q 52.203125 43.703125 52.203125 31.203125 
z
" id="DejaVuSans-97"/>
      <path d="M 44.28125 53.078125 
L 44.28125 44.578125 
Q 40.484375 46.53125 36.375 47.5 
Q 32.28125 48.484375 27.875 48.484375 
Q 21.1875 48.484375 17.84375 46.4375 
Q 14.5 44.390625 14.5 40.28125 
Q 14.5 37.15625 16.890625 35.375 
Q 19.28125 33.59375 26.515625 31.984375 
L 29.59375 31.296875 
Q 39.15625 29.25 43.1875 25.515625 
Q 47.21875 21.78125 47.21875 15.09375 
Q 47.21875 7.46875 41.1875 3.015625 
Q 35.15625 -1.421875 24.609375 -1.421875 
Q 20.21875 -1.421875 15.453125 -0.5625 
Q 10.6875 0.296875 5.421875 2 
L 5.421875 11.28125 
Q 10.40625 8.6875 15.234375 7.390625 
Q 20.0625 6.109375 24.8125 6.109375 
Q 31.15625 6.109375 34.5625 8.28125 
Q 37.984375 10.453125 37.984375 14.40625 
Q 37.984375 18.0625 35.515625 20.015625 
Q 33.0625 21.96875 24.703125 23.78125 
L 21.578125 24.515625 
Q 13.234375 26.265625 9.515625 29.90625 
Q 5.8125 33.546875 5.8125 39.890625 
Q 5.8125 47.609375 11.28125 51.796875 
Q 16.75 56 26.8125 56 
Q 31.78125 56 36.171875 55.265625 
Q 40.578125 54.546875 44.28125 53.078125 
z
" id="DejaVuSans-115"/>
      <path d="M 25.390625 72.90625 
L 33.6875 72.90625 
L 8.296875 -9.28125 
L 0 -9.28125 
z
" id="DejaVuSans-47"/>
      <path d="M 45.40625 46.390625 
L 45.40625 75.984375 
L 54.390625 75.984375 
L 54.390625 0 
L 45.40625 0 
L 45.40625 8.203125 
Q 42.578125 3.328125 38.25 0.953125 
Q 33.9375 -1.421875 27.875 -1.421875 
Q 17.96875 -1.421875 11.734375 6.484375 
Q 5.515625 14.40625 5.515625 27.296875 
Q 5.515625 40.1875 11.734375 48.09375 
Q 17.96875 56 27.875 56 
Q 33.9375 56 38.25 53.625 
Q 42.578125 51.265625 45.40625 46.390625 
z
M 14.796875 27.296875 
Q 14.796875 17.390625 18.875 11.75 
Q 22.953125 6.109375 30.078125 6.109375 
Q 37.203125 6.109375 41.296875 11.75 
Q 45.40625 17.390625 45.40625 27.296875 
Q 45.40625 37.203125 41.296875 42.84375 
Q 37.203125 48.484375 30.078125 48.484375 
Q 22.953125 48.484375 18.875 42.84375 
Q 14.796875 37.203125 14.796875 27.296875 
z
" id="DejaVuSans-100"/>
      <path d="M 9.421875 54.6875 
L 18.40625 54.6875 
L 18.40625 0 
L 9.421875 0 
z
M 9.421875 75.984375 
L 18.40625 75.984375 
L 18.40625 64.59375 
L 9.421875 64.59375 
z
" id="DejaVuSans-105"/>
      <path d="M 52 44.1875 
Q 55.375 50.25 60.0625 53.125 
Q 64.75 56 71.09375 56 
Q 79.640625 56 84.28125 50.015625 
Q 88.921875 44.046875 88.921875 33.015625 
L 88.921875 0 
L 79.890625 0 
L 79.890625 32.71875 
Q 79.890625 40.578125 77.09375 44.375 
Q 74.3125 48.1875 68.609375 48.1875 
Q 61.625 48.1875 57.5625 43.546875 
Q 53.515625 38.921875 53.515625 30.90625 
L 53.515625 0 
L 44.484375 0 
L 44.484375 32.71875 
Q 44.484375 40.625 41.703125 44.40625 
Q 38.921875 48.1875 33.109375 48.1875 
Q 26.21875 48.1875 22.15625 43.53125 
Q 18.109375 38.875 18.109375 30.90625 
L 18.109375 0 
L 9.078125 0 
L 9.078125 54.6875 
L 18.109375 54.6875 
L 18.109375 46.1875 
Q 21.1875 51.21875 25.484375 53.609375 
Q 29.78125 56 35.6875 56 
Q 41.65625 56 45.828125 52.96875 
Q 50 49.953125 52 44.1875 
z
" id="DejaVuSans-109"/>
      <path d="M 54.890625 33.015625 
L 54.890625 0 
L 45.90625 0 
L 45.90625 32.71875 
Q 45.90625 40.484375 42.875 44.328125 
Q 39.84375 48.1875 33.796875 48.1875 
Q 26.515625 48.1875 22.3125 43.546875 
Q 18.109375 38.921875 18.109375 30.90625 
L 18.109375 0 
L 9.078125 0 
L 9.078125 54.6875 
L 18.109375 54.6875 
L 18.109375 46.1875 
Q 21.34375 51.125 25.703125 53.5625 
Q 30.078125 56 35.796875 56 
Q 45.21875 56 50.046875 50.171875 
Q 54.890625 44.34375 54.890625 33.015625 
z
" id="DejaVuSans-110"/>
      <path d="M 8.015625 75.875 
L 15.828125 75.875 
Q 23.140625 64.359375 26.78125 53.3125 
Q 30.421875 42.28125 30.421875 31.390625 
Q 30.421875 20.453125 26.78125 9.375 
Q 23.140625 -1.703125 15.828125 -13.1875 
L 8.015625 -13.1875 
Q 14.5 -2 17.703125 9.0625 
Q 20.90625 20.125 20.90625 31.390625 
Q 20.90625 42.671875 17.703125 53.65625 
Q 14.5 64.65625 8.015625 75.875 
z
" id="DejaVuSans-41"/>
     </defs>
     <g transform="translate(77.303219 342.217594)scale(0.17 -0.17)">
      <use xlink:href="#DejaVuSans-108"/>
      <use x="27.783203" xlink:href="#DejaVuSans-111"/>
      <use x="88.964844" xlink:href="#DejaVuSans-103"/>
      <use x="152.441406" xlink:href="#DejaVuSans-49"/>
      <use x="216.064453" xlink:href="#DejaVuSans-48"/>
      <use x="279.6875" xlink:href="#DejaVuSans-40"/>
      <use x="318.701172" xlink:href="#DejaVuSans-35"/>
      <use x="402.490234" xlink:href="#DejaVuSans-32"/>
      <use x="434.277344" xlink:href="#DejaVuSans-102"/>
      <use x="469.404297" xlink:href="#DejaVuSans-45"/>
      <use x="505.488281" xlink:href="#DejaVuSans-101"/>
      <use x="567.011719" xlink:href="#DejaVuSans-118"/>
      <use x="626.191406" xlink:href="#DejaVuSans-97"/>
      <use x="687.470703" xlink:href="#DejaVuSans-108"/>
      <use x="715.253906" xlink:href="#DejaVuSans-115"/>
      <use x="767.353516" xlink:href="#DejaVuSans-32"/>
      <use x="799.140625" xlink:href="#DejaVuSans-47"/>
      <use x="832.832031" xlink:href="#DejaVuSans-32"/>
      <use x="864.619141" xlink:href="#DejaVuSans-100"/>
      <use x="928.095703" xlink:href="#DejaVuSans-105"/>
      <use x="955.878906" xlink:href="#DejaVuSans-109"/>
      <use x="1053.291016" xlink:href="#DejaVuSans-101"/>
      <use x="1114.814453" xlink:href="#DejaVuSans-110"/>
      <use x="1178.193359" xlink:href="#DejaVuSans-115"/>
      <use x="1230.292969" xlink:href="#DejaVuSans-105"/>
      <use x="1258.076172" xlink:href="#DejaVuSans-111"/>
      <use x="1319.257812" xlink:href="#DejaVuSans-110"/>
      <use x="1382.636719" xlink:href="#DejaVuSans-41"/>
     </g>
    </g>
   </g>
   <g id="matplotlib.axis_2">
    <g id="ytick_1">
     <g id="line2d_21">
      <path clip-path="url(#p5206d468d0)" d="M 57.6 298.944 
L 338.688 298.944 
" style="fill:none;stroke:#b0b0b0;stroke-linecap:square;stroke-width:0.8;"/>
     </g>
     <g id="line2d_22">
      <defs>
       <path d="M 0 0 
L -3.5 0 
" id="mf2e0ea163e" style="stroke:#000000;stroke-width:0.8;"/>
      </defs>
      <g>
       <use style="stroke:#000000;stroke-width:0.8;" x="57.6" xlink:href="#mf2e0ea163e" y="298.944"/>
      </g>
     </g>
     <g id="text_6">
      <!-- 0.0 -->
      <defs>
       <path d="M 10.6875 12.40625 
L 21 12.40625 
L 21 0 
L 10.6875 0 
z
" id="DejaVuSans-46"/>
      </defs>
      <g transform="translate(25.155 305.02275)scale(0.16 -0.16)">
       <use xlink:href="#DejaVuSans-48"/>
       <use x="63.623047" xlink:href="#DejaVuSans-46"/>
       <use x="95.410156" xlink:href="#DejaVuSans-48"/>
      </g>
     </g>
    </g>
    <g id="ytick_2">
     <g id="line2d_23">
      <path clip-path="url(#p5206d468d0)" d="M 57.6 245.22202 
L 338.688 245.22202 
" style="fill:none;stroke:#b0b0b0;stroke-linecap:square;stroke-width:0.8;"/>
     </g>
     <g id="line2d_24">
      <g>
       <use style="stroke:#000000;stroke-width:0.8;" x="57.6" xlink:href="#mf2e0ea163e" y="245.22202"/>
      </g>
     </g>
     <g id="text_7">
      <!-- 0.2 -->
      <g transform="translate(25.155 251.30077)scale(0.16 -0.16)">
       <use xlink:href="#DejaVuSans-48"/>
       <use x="63.623047" xlink:href="#DejaVuSans-46"/>
       <use x="95.410156" xlink:href="#DejaVuSans-50"/>
      </g>
     </g>
    </g>
    <g id="ytick_3">
     <g id="line2d_25">
      <path clip-path="url(#p5206d468d0)" d="M 57.6 191.50004 
L 338.688 191.50004 
" style="fill:none;stroke:#b0b0b0;stroke-linecap:square;stroke-width:0.8;"/>
     </g>
     <g id="line2d_26">
      <g>
       <use style="stroke:#000000;stroke-width:0.8;" x="57.6" xlink:href="#mf2e0ea163e" y="191.50004"/>
      </g>
     </g>
     <g id="text_8">
      <!-- 0.4 -->
      <g transform="translate(25.155 197.57879)scale(0.16 -0.16)">
       <use xlink:href="#DejaVuSans-48"/>
       <use x="63.623047" xlink:href="#DejaVuSans-46"/>
       <use x="95.410156" xlink:href="#DejaVuSans-52"/>
      </g>
     </g>
    </g>
    <g id="ytick_4">
     <g id="line2d_27">
      <path clip-path="url(#p5206d468d0)" d="M 57.6 137.778059 
L 338.688 137.778059 
" style="fill:none;stroke:#b0b0b0;stroke-linecap:square;stroke-width:0.8;"/>
     </g>
     <g id="line2d_28">
      <g>
       <use style="stroke:#000000;stroke-width:0.8;" x="57.6" xlink:href="#mf2e0ea163e" y="137.778059"/>
      </g>
     </g>
     <g id="text_9">
      <!-- 0.6 -->
      <g transform="translate(25.155 143.856809)scale(0.16 -0.16)">
       <use xlink:href="#DejaVuSans-48"/>
       <use x="63.623047" xlink:href="#DejaVuSans-46"/>
       <use x="95.410156" xlink:href="#DejaVuSans-54"/>
      </g>
     </g>
    </g>
    <g id="ytick_5">
     <g id="line2d_29">
      <path clip-path="url(#p5206d468d0)" d="M 57.6 84.056079 
L 338.688 84.056079 
" style="fill:none;stroke:#b0b0b0;stroke-linecap:square;stroke-width:0.8;"/>
     </g>
     <g id="line2d_30">
      <g>
       <use style="stroke:#000000;stroke-width:0.8;" x="57.6" xlink:href="#mf2e0ea163e" y="84.056079"/>
      </g>
     </g>
     <g id="text_10">
      <!-- 0.8 -->
      <defs>
       <path d="M 31.78125 34.625 
Q 24.75 34.625 20.71875 30.859375 
Q 16.703125 27.09375 16.703125 20.515625 
Q 16.703125 13.921875 20.71875 10.15625 
Q 24.75 6.390625 31.78125 6.390625 
Q 38.8125 6.390625 42.859375 10.171875 
Q 46.921875 13.96875 46.921875 20.515625 
Q 46.921875 27.09375 42.890625 30.859375 
Q 38.875 34.625 31.78125 34.625 
z
M 21.921875 38.8125 
Q 15.578125 40.375 12.03125 44.71875 
Q 8.5 49.078125 8.5 55.328125 
Q 8.5 64.0625 14.71875 69.140625 
Q 20.953125 74.21875 31.78125 74.21875 
Q 42.671875 74.21875 48.875 69.140625 
Q 55.078125 64.0625 55.078125 55.328125 
Q 55.078125 49.078125 51.53125 44.71875 
Q 48 40.375 41.703125 38.8125 
Q 48.828125 37.15625 52.796875 32.3125 
Q 56.78125 27.484375 56.78125 20.515625 
Q 56.78125 9.90625 50.3125 4.234375 
Q 43.84375 -1.421875 31.78125 -1.421875 
Q 19.734375 -1.421875 13.25 4.234375 
Q 6.78125 9.90625 6.78125 20.515625 
Q 6.78125 27.484375 10.78125 32.3125 
Q 14.796875 37.15625 21.921875 38.8125 
z
M 18.3125 54.390625 
Q 18.3125 48.734375 21.84375 45.5625 
Q 25.390625 42.390625 31.78125 42.390625 
Q 38.140625 42.390625 41.71875 45.5625 
Q 45.3125 48.734375 45.3125 54.390625 
Q 45.3125 60.0625 41.71875 63.234375 
Q 38.140625 66.40625 31.78125 66.40625 
Q 25.390625 66.40625 21.84375 63.234375 
Q 18.3125 60.0625 18.3125 54.390625 
z
" id="DejaVuSans-56"/>
      </defs>
      <g transform="translate(25.155 90.134829)scale(0.16 -0.16)">
       <use xlink:href="#DejaVuSans-48"/>
       <use x="63.623047" xlink:href="#DejaVuSans-46"/>
       <use x="95.410156" xlink:href="#DejaVuSans-56"/>
      </g>
     </g>
    </g>
    <g id="ytick_6">
     <g id="line2d_31">
      <path clip-path="url(#p5206d468d0)" d="M 57.6 30.334099 
L 338.688 30.334099 
" style="fill:none;stroke:#b0b0b0;stroke-linecap:square;stroke-width:0.8;"/>
     </g>
     <g id="line2d_32">
      <g>
       <use style="stroke:#000000;stroke-width:0.8;" x="57.6" xlink:href="#mf2e0ea163e" y="30.334099"/>
      </g>
     </g>
     <g id="text_11">
      <!-- 1.0 -->
      <g transform="translate(25.155 36.412849)scale(0.16 -0.16)">
       <use xlink:href="#DejaVuSans-49"/>
       <use x="63.623047" xlink:href="#DejaVuSans-46"/>
       <use x="95.410156" xlink:href="#DejaVuSans-48"/>
      </g>
     </g>
    </g>
    <g id="text_12">
     <!-- Fraction of function,target pairs -->
     <defs>
      <path d="M 9.8125 72.90625 
L 51.703125 72.90625 
L 51.703125 64.59375 
L 19.671875 64.59375 
L 19.671875 43.109375 
L 48.578125 43.109375 
L 48.578125 34.8125 
L 19.671875 34.8125 
L 19.671875 0 
L 9.8125 0 
z
" id="DejaVuSans-70"/>
      <path d="M 41.109375 46.296875 
Q 39.59375 47.171875 37.8125 47.578125 
Q 36.03125 48 33.890625 48 
Q 26.265625 48 22.1875 43.046875 
Q 18.109375 38.09375 18.109375 28.8125 
L 18.109375 0 
L 9.078125 0 
L 9.078125 54.6875 
L 18.109375 54.6875 
L 18.109375 46.1875 
Q 20.953125 51.171875 25.484375 53.578125 
Q 30.03125 56 36.53125 56 
Q 37.453125 56 38.578125 55.875 
Q 39.703125 55.765625 41.0625 55.515625 
z
" id="DejaVuSans-114"/>
      <path d="M 48.78125 52.59375 
L 48.78125 44.1875 
Q 44.96875 46.296875 41.140625 47.34375 
Q 37.3125 48.390625 33.40625 48.390625 
Q 24.65625 48.390625 19.8125 42.84375 
Q 14.984375 37.3125 14.984375 27.296875 
Q 14.984375 17.28125 19.8125 11.734375 
Q 24.65625 6.203125 33.40625 6.203125 
Q 37.3125 6.203125 41.140625 7.25 
Q 44.96875 8.296875 48.78125 10.40625 
L 48.78125 2.09375 
Q 45.015625 0.34375 40.984375 -0.53125 
Q 36.96875 -1.421875 32.421875 -1.421875 
Q 20.0625 -1.421875 12.78125 6.34375 
Q 5.515625 14.109375 5.515625 27.296875 
Q 5.515625 40.671875 12.859375 48.328125 
Q 20.21875 56 33.015625 56 
Q 37.15625 56 41.109375 55.140625 
Q 45.0625 54.296875 48.78125 52.59375 
z
" id="DejaVuSans-99"/>
      <path d="M 18.3125 70.21875 
L 18.3125 54.6875 
L 36.8125 54.6875 
L 36.8125 47.703125 
L 18.3125 47.703125 
L 18.3125 18.015625 
Q 18.3125 11.328125 20.140625 9.421875 
Q 21.96875 7.515625 27.59375 7.515625 
L 36.8125 7.515625 
L 36.8125 0 
L 27.59375 0 
Q 17.1875 0 13.234375 3.875 
Q 9.28125 7.765625 9.28125 18.015625 
L 9.28125 47.703125 
L 2.6875 47.703125 
L 2.6875 54.6875 
L 9.28125 54.6875 
L 9.28125 70.21875 
z
" id="DejaVuSans-116"/>
      <path d="M 8.5 21.578125 
L 8.5 54.6875 
L 17.484375 54.6875 
L 17.484375 21.921875 
Q 17.484375 14.15625 20.5 10.265625 
Q 23.53125 6.390625 29.59375 6.390625 
Q 36.859375 6.390625 41.078125 11.03125 
Q 45.3125 15.671875 45.3125 23.6875 
L 45.3125 54.6875 
L 54.296875 54.6875 
L 54.296875 0 
L 45.3125 0 
L 45.3125 8.40625 
Q 42.046875 3.421875 37.71875 1 
Q 33.40625 -1.421875 27.6875 -1.421875 
Q 18.265625 -1.421875 13.375 4.4375 
Q 8.5 10.296875 8.5 21.578125 
z
M 31.109375 56 
z
" id="DejaVuSans-117"/>
      <path d="M 11.71875 12.40625 
L 22.015625 12.40625 
L 22.015625 4 
L 14.015625 -11.625 
L 7.71875 -11.625 
L 11.71875 4 
z
" id="DejaVuSans-44"/>
      <path d="M 18.109375 8.203125 
L 18.109375 -20.796875 
L 9.078125 -20.796875 
L 9.078125 54.6875 
L 18.109375 54.6875 
L 18.109375 46.390625 
Q 20.953125 51.265625 25.265625 53.625 
Q 29.59375 56 35.59375 56 
Q 45.5625 56 51.78125 48.09375 
Q 58.015625 40.1875 58.015625 27.296875 
Q 58.015625 14.40625 51.78125 6.484375 
Q 45.5625 -1.421875 35.59375 -1.421875 
Q 29.59375 -1.421875 25.265625 0.953125 
Q 20.953125 3.328125 18.109375 8.203125 
z
M 48.6875 27.296875 
Q 48.6875 37.203125 44.609375 42.84375 
Q 40.53125 48.484375 33.40625 48.484375 
Q 26.265625 48.484375 22.1875 42.84375 
Q 18.109375 37.203125 18.109375 27.296875 
Q 18.109375 17.390625 22.1875 11.75 
Q 26.265625 6.109375 33.40625 6.109375 
Q 40.53125 6.109375 44.609375 11.75 
Q 48.6875 17.390625 48.6875 27.296875 
z
" id="DejaVuSans-112"/>
     </defs>
     <g transform="translate(17.619531 298.435375)rotate(-90)scale(0.17 -0.17)">
      <use xlink:href="#DejaVuSans-70"/>
      <use x="57.410156" xlink:href="#DejaVuSans-114"/>
      <use x="98.523438" xlink:href="#DejaVuSans-97"/>
      <use x="159.802734" xlink:href="#DejaVuSans-99"/>
      <use x="214.783203" xlink:href="#DejaVuSans-116"/>
      <use x="253.992188" xlink:href="#DejaVuSans-105"/>
      <use x="281.775391" xlink:href="#DejaVuSans-111"/>
      <use x="342.957031" xlink:href="#DejaVuSans-110"/>
      <use x="406.335938" xlink:href="#DejaVuSans-32"/>
      <use x="438.123047" xlink:href="#DejaVuSans-111"/>
      <use x="499.304688" xlink:href="#DejaVuSans-102"/>
      <use x="534.509766" xlink:href="#DejaVuSans-32"/>
      <use x="566.296875" xlink:href="#DejaVuSans-102"/>
      <use x="601.501953" xlink:href="#DejaVuSans-117"/>
      <use x="664.880859" xlink:href="#DejaVuSans-110"/>
      <use x="728.259766" xlink:href="#DejaVuSans-99"/>
      <use x="783.240234" xlink:href="#DejaVuSans-116"/>
      <use x="822.449219" xlink:href="#DejaVuSans-105"/>
      <use x="850.232422" xlink:href="#DejaVuSans-111"/>
      <use x="911.414062" xlink:href="#DejaVuSans-110"/>
      <use x="974.792969" xlink:href="#DejaVuSans-44"/>
      <use x="1006.580078" xlink:href="#DejaVuSans-116"/>
      <use x="1045.789062" xlink:href="#DejaVuSans-97"/>
      <use x="1107.068359" xlink:href="#DejaVuSans-114"/>
      <use x="1148.166016" xlink:href="#DejaVuSans-103"/>
      <use x="1211.642578" xlink:href="#DejaVuSans-101"/>
      <use x="1273.166016" xlink:href="#DejaVuSans-116"/>
      <use x="1312.375" xlink:href="#DejaVuSans-32"/>
      <use x="1344.162109" xlink:href="#DejaVuSans-112"/>
      <use x="1407.638672" xlink:href="#DejaVuSans-97"/>
      <use x="1468.917969" xlink:href="#DejaVuSans-105"/>
      <use x="1496.701172" xlink:href="#DejaVuSans-114"/>
      <use x="1537.814453" xlink:href="#DejaVuSans-115"/>
     </g>
    </g>
   </g>
   <g id="line2d_33">
    <defs>
     <path d="M 0 1.5 
C 0.397805 1.5 0.77937 1.341951 1.06066 1.06066 
C 1.341951 0.77937 1.5 0.397805 1.5 0 
C 1.5 -0.397805 1.341951 -0.77937 1.06066 -1.06066 
C 0.77937 -1.341951 0.397805 -1.5 0 -1.5 
C -0.397805 -1.5 -0.77937 -1.341951 -1.06066 -1.06066 
C -1.341951 -0.77937 -1.5 -0.397805 -1.5 0 
C -1.5 0.397805 -1.341951 0.77937 -1.06066 1.06066 
C -0.77937 1.341951 -0.397805 1.5 0 1.5 
z
" id="m1354f040c3" style="stroke:#f5deb3;"/>
    </defs>
    <g>
     <use style="fill:#f5deb3;stroke:#f5deb3;" x="227.804533" xlink:href="#m1354f040c3" y="62.752535"/>
     <use style="fill:#f5deb3;stroke:#f5deb3;" x="227.804533" xlink:href="#m1354f040c3" y="62.752535"/>
    </g>
   </g>
   <g id="line2d_34">
    <defs>
     <path d="M 0 1.5 
C 0.397805 1.5 0.77937 1.341951 1.06066 1.06066 
C 1.341951 0.77937 1.5 0.397805 1.5 0 
C 1.5 -0.397805 1.341951 -0.77937 1.06066 -1.06066 
C 0.77937 -1.341951 0.397805 -1.5 0 -1.5 
C -0.397805 -1.5 -0.77937 -1.341951 -1.06066 -1.06066 
C -1.341951 -0.77937 -1.5 -0.397805 -1.5 0 
C -1.5 0.397805 -1.341951 0.77937 -1.06066 1.06066 
C -0.77937 1.341951 -0.397805 1.5 0 1.5 
z
" id="m3ac54d23c4" style="stroke:#000080;"/>
    </defs>
    <g>
     <use style="fill:#000080;stroke:#000080;" x="229.361131" xlink:href="#m3ac54d23c4" y="85.908561"/>
     <use style="fill:#000080;stroke:#000080;" x="229.361131" xlink:href="#m3ac54d23c4" y="85.908561"/>
    </g>
   </g>
   <g id="line2d_35">
    <path d="M 75.555822 298.944 
L 75.555822 297.091518 
L 82.626842 297.091518 
L 82.626842 295.239036 
L 85.66744 295.239036 
L 85.66744 294.312795 
L 87.643811 294.312795 
L 87.643811 293.386554 
L 93.422441 293.386554 
L 93.422441 292.460313 
L 93.863965 292.460313 
L 93.863965 291.534072 
L 96.301313 291.534072 
L 96.301313 290.607831 
L 99.097574 290.607831 
L 99.097574 285.976625 
L 100.934985 285.976625 
L 100.934985 284.124143 
L 102.060491 284.124143 
L 102.060491 282.271661 
L 102.330873 282.271661 
L 102.330873 279.492938 
L 103.117741 279.492938 
L 103.117741 278.566697 
L 103.623262 278.566697 
L 103.623262 277.640456 
L 104.592361 277.640456 
L 104.592361 275.787974 
L 106.802819 275.787974 
L 106.802819 274.861733 
L 108.006005 274.861733 
L 108.006005 273.935492 
L 108.198707 273.935492 
L 108.198707 273.009251 
L 108.764355 273.009251 
L 108.764355 271.156769 
L 109.491096 271.156769 
L 109.491096 269.304287 
L 109.843417 269.304287 
L 109.843417 267.451805 
L 110.188761 267.451805 
L 110.188761 266.525564 
L 110.527398 266.525564 
L 110.527398 264.673082 
L 111.663381 264.673082 
L 111.663381 263.746841 
L 112.877038 263.746841 
L 112.877038 261.894358 
L 113.167699 261.894358 
L 113.167699 260.041876 
L 113.873839 260.041876 
L 113.873839 259.115635 
L 114.148479 259.115635 
L 114.148479 258.189394 
L 114.418861 258.189394 
L 114.418861 257.263153 
L 115.586238 257.263153 
L 115.586238 256.336912 
L 116.797786 256.336912 
L 116.797786 254.48443 
L 118.039942 254.48443 
L 118.039942 253.558189 
L 118.786692 253.558189 
L 118.786692 251.705707 
L 119.602714 251.705707 
L 119.602714 248.926984 
L 120.286695 248.926984 
L 120.286695 243.369538 
L 120.47729 243.369538 
L 120.47729 241.517056 
L 121.036887 241.517056 
L 121.036887 240.590815 
L 123.273551 240.590815 
L 123.273551 238.738333 
L 123.751369 238.738333 
L 123.829748 235.959609 
L 123.907776 235.959609 
L 123.907776 235.033368 
L 124.965026 235.033368 
L 124.965026 233.180886 
L 125.110962 233.180886 
L 125.183475 228.549681 
L 125.255688 228.549681 
L 125.255688 227.62344 
L 125.470548 227.62344 
L 125.470548 225.770958 
L 125.682793 225.770958 
L 125.682793 223.918476 
L 126.839037 223.918476 
L 126.839037 222.992235 
L 126.97016 222.992235 
L 126.97016 221.139753 
L 127.293718 221.139753 
L 127.293718 220.213512 
L 127.923363 220.213512 
L 127.923363 219.287271 
L 128.290519 219.287271 
L 128.290519 217.434789 
L 128.531065 217.434789 
L 128.531065 216.508548 
L 128.827155 216.508548 
L 128.885774 213.729825 
L 130.018593 213.729825 
L 130.018593 212.803583 
L 130.61164 212.803583 
L 130.61164 211.877342 
L 131.236397 211.877342 
L 131.338382 209.098619 
L 131.590764 209.098619 
L 131.590764 207.246137 
L 132.084827 207.246137 
L 132.084827 205.393655 
L 132.612604 205.393655 
L 132.70687 203.541173 
L 132.847322 203.541173 
L 132.847322 202.614932 
L 134.019394 202.614932 
L 134.019394 199.836209 
L 134.149701 199.836209 
L 134.149701 197.983727 
L 135.361539 197.983727 
L 135.361539 196.131245 
L 136.86886 196.131245 
L 136.86886 194.278763 
L 137.52291 194.278763 
L 137.52291 193.352522 
L 137.664982 193.352522 
L 137.664982 191.50004 
L 138.561269 191.50004 
L 138.561269 190.573799 
L 139.381706 190.573799 
L 139.381706 189.647558 
L 140.011351 189.647558 
L 140.042245 187.795075 
L 140.256979 187.795075 
L 140.256979 185.942593 
L 141.321401 185.942593 
L 141.321401 184.090111 
L 141.492656 184.090111 
L 141.492656 183.16387 
L 142.051655 183.16387 
L 142.051655 181.311388 
L 142.619936 181.311388 
L 142.619936 179.458906 
L 143.273169 179.458906 
L 143.273169 178.532665 
L 144.93531 178.532665 
L 144.93531 177.606424 
L 145.304409 177.606424 
L 145.304409 176.680183 
L 146.08557 176.680183 
L 146.194362 173.90146 
L 146.302479 173.90146 
L 146.367029 172.048978 
L 147.205618 172.048978 
L 147.205618 171.122737 
L 147.388869 171.122737 
L 147.4697 169.270255 
L 147.946974 169.270255 
L 147.946974 167.417773 
L 148.563676 167.417773 
L 148.563676 165.565291 
L 150.395406 165.565291 
L 150.395406 164.63905 
L 153.566437 164.63905 
L 153.566437 163.712808 
L 154.043103 163.712808 
L 154.043103 162.786567 
L 156.260804 162.786567 
L 156.260804 161.860326 
L 156.812195 161.860326 
L 156.812195 160.934085 
L 157.011638 160.934085 
L 157.011638 160.007844 
L 157.277891 160.007844 
L 157.335239 157.229121 
L 159.17036 157.229121 
L 159.17036 156.30288 
L 159.39565 156.30288 
L 159.39565 154.450398 
L 161.447441 154.450398 
L 161.447441 153.524157 
L 162.112973 153.524157 
L 162.112973 152.597916 
L 163.557683 152.597916 
L 163.557683 151.671675 
L 163.741046 151.671675 
L 163.741046 150.745434 
L 165.083779 150.745434 
L 165.083779 148.892952 
L 167.301055 148.892952 
L 167.301055 147.966711 
L 167.570541 147.966711 
L 167.570541 147.04047 
L 170.294256 147.04047 
L 170.294256 146.114229 
L 170.967341 146.114229 
L 170.967341 145.187988 
L 173.603137 145.187988 
L 173.603137 143.335506 
L 175.94365 143.335506 
L 175.94365 141.483024 
L 177.32165 141.483024 
L 177.32165 140.556783 
L 177.852218 140.556783 
L 177.852218 139.630541 
L 178.146322 139.630541 
L 178.146322 138.7043 
L 180.690668 138.7043 
L 180.690668 136.851818 
L 183.814124 136.851818 
L 183.814124 135.925577 
L 183.949061 135.925577 
L 183.949061 134.073095 
L 184.198675 134.073095 
L 184.198675 133.146854 
L 187.934858 133.146854 
L 187.934858 132.220613 
L 188.909308 132.220613 
L 188.909308 131.294372 
L 189.887162 131.294372 
L 189.887162 130.368131 
L 190.706968 130.368131 
L 190.706968 129.44189 
L 192.212976 129.44189 
L 192.212976 127.589408 
L 193.557646 127.589408 
L 193.557646 126.663167 
L 193.966032 126.663167 
L 194.028988 124.810685 
L 200.69311 124.810685 
L 200.799517 120.17948 
L 200.925978 120.17948 
L 200.925978 118.326998 
L 201.287061 118.326998 
L 201.287061 117.400757 
L 202.655862 117.400757 
L 202.655862 116.474516 
L 203.366678 116.474516 
L 203.366678 114.622033 
L 203.656117 114.622033 
L 203.656117 112.769551 
L 205.826901 112.769551 
L 205.826901 111.84331 
L 207.256179 111.84331 
L 207.256179 109.990828 
L 207.722149 109.990828 
L 207.722149 109.064587 
L 209.36784 109.064587 
L 209.36784 107.212105 
L 209.479325 107.212105 
L 209.479325 106.285864 
L 209.612974 106.285864 
L 209.612974 105.359623 
L 209.91041 105.359623 
L 209.914342 103.507141 
L 210.864624 103.507141 
L 210.864624 102.5809 
L 213.19172 102.5809 
L 213.19172 100.728418 
L 213.340937 100.728418 
L 213.340937 99.802177 
L 213.774776 99.802177 
L 213.774776 97.949695 
L 214.463154 97.949695 
L 214.463154 97.023454 
L 214.590327 97.023454 
L 214.590327 95.170972 
L 221.338668 95.170972 
L 221.338668 93.31849 
L 223.548599 93.31849 
L 223.548599 91.466008 
L 225.716549 91.466008 
L 225.723583 87.761043 
L 229.166889 87.761043 
L 229.166889 86.834802 
L 229.361131 86.834802 
L 229.361131 85.908561 
L 338.688 85.908561 
L 338.688 85.908561 
" style="fill:none;stroke:#000080;stroke-linecap:square;stroke-width:1.5;"/>
   </g>
   <g id="line2d_36">
    <defs>
     <path d="M 0 6 
C 1.591219 6 3.117479 5.367802 4.242641 4.242641 
C 5.367802 3.117479 6 1.591219 6 0 
C 6 -1.591219 5.367802 -3.117479 4.242641 -4.242641 
C 3.117479 -5.367802 1.591219 -6 0 -6 
C -1.591219 -6 -3.117479 -5.367802 -4.242641 -4.242641 
C -5.367802 -3.117479 -6 -1.591219 -6 0 
C -6 1.591219 -5.367802 3.117479 -4.242641 4.242641 
C -3.117479 5.367802 -1.591219 6 0 6 
z
" id="m3946a0828d" style="stroke:#000080;stroke-width:1.5;"/>
    </defs>
    <g>
     <use style="fill-opacity:0;stroke:#000080;stroke-width:1.5;" x="128.885774" xlink:href="#m3946a0828d" y="215.582307"/>
     <use style="fill-opacity:0;stroke:#000080;stroke-width:1.5;" x="184.198675" xlink:href="#m3946a0828d" y="134.073095"/>
     <use style="fill-opacity:0;stroke:#000080;stroke-width:1.5;" x="229.361131" xlink:href="#m3946a0828d" y="86.834802"/>
     <use style="fill-opacity:0;stroke:#000080;stroke-width:1.5;" x="229.361131" xlink:href="#m3946a0828d" y="85.908561"/>
     <use style="fill-opacity:0;stroke:#000080;stroke-width:1.5;" x="338.688" xlink:href="#m3946a0828d" y="85.908561"/>
    </g>
   </g>
   <g id="line2d_37">
    <path style="fill:none;stroke:#000080;stroke-linecap:square;stroke-width:1.5;"/>
    <g/>
   </g>
   <g id="line2d_38">
    <path clip-path="url(#p5206d468d0)" d="M 230.311098 85.908561 
" style="fill:none;stroke:#000080;stroke-linecap:square;stroke-width:1.5;"/>
    <defs>
     <path d="M -12 12 
L 12 -12 
M -12 -12 
L 12 12 
" id="m765d87da82" style="stroke:#000080;"/>
    </defs>
    <g clip-path="url(#p5206d468d0)">
     <use style="fill:#000080;stroke:#000080;" x="230.311098" xlink:href="#m765d87da82" y="85.908561"/>
    </g>
   </g>
   <g id="line2d_39">
    <defs>
     <path d="M 0 1.5 
C 0.397805 1.5 0.77937 1.341951 1.06066 1.06066 
C 1.341951 0.77937 1.5 0.397805 1.5 0 
C 1.5 -0.397805 1.341951 -0.77937 1.06066 -1.06066 
C 0.77937 -1.341951 0.397805 -1.5 0 -1.5 
C -0.397805 -1.5 -0.77937 -1.341951 -1.06066 -1.06066 
C -1.341951 -0.77937 -1.5 -0.397805 -1.5 0 
C -1.5 0.397805 -1.341951 0.77937 -1.06066 1.06066 
C -0.77937 1.341951 -0.397805 1.5 0 1.5 
z
" id="mb68535206a" style="stroke:#ff00ff;"/>
    </defs>
    <g>
     <use style="fill:#ff00ff;stroke:#ff00ff;" x="203.863929" xlink:href="#mb68535206a" y="90.539766"/>
     <use style="fill:#ff00ff;stroke:#ff00ff;" x="203.863929" xlink:href="#mb68535206a" y="90.539766"/>
    </g>
   </g>
   <g id="line2d_40">
    <path d="M 29.53256 298.944 
L 29.53256 287.829108 
L 63.467834 287.829108 
L 63.467834 286.902867 
L 75.555822 286.902867 
L 75.555822 283.197902 
L 76.759008 283.197902 
L 76.759008 280.419179 
L 80.881459 280.419179 
L 80.881459 279.492938 
L 82.626842 279.492938 
L 82.626842 278.566697 
L 88.846997 278.566697 
L 88.846997 276.714215 
L 92.026554 276.714215 
L 92.026554 273.935492 
L 92.504372 273.935492 
L 92.504372 273.009251 
L 98.100772 273.009251 
L 98.100772 271.156769 
L 102.859376 271.156769 
L 102.859376 269.304287 
L 105.057436 269.304287 
L 105.057436 266.525564 
L 106.382575 266.525564 
L 106.382575 264.673082 
L 106.802819 264.673082 
L 106.802819 261.894358 
L 107.009204 261.894358 
L 107.009204 259.115635 
L 108.577836 259.115635 
L 108.577836 258.189394 
L 110.188761 258.189394 
L 110.188761 256.336912 
L 110.358901 256.336912 
L 110.358901 253.558189 
L 112.128456 253.558189 
L 112.128456 249.853225 
L 112.58145 249.853225 
L 112.58145 248.000743 
L 113.022974 248.000743 
L 113.022974 246.148261 
L 114.284194 246.148261 
L 114.284194 245.22202 
L 114.552496 245.22202 
L 114.552496 244.295779 
L 114.816733 244.295779 
L 114.816733 240.590815 
L 115.586238 240.590815 
L 115.586238 236.88585 
L 116.202531 236.88585 
L 116.202531 235.959609 
L 116.562116 235.959609 
L 116.562116 230.402163 
L 116.797786 230.402163 
L 116.797786 229.475922 
L 117.598418 229.475922 
L 117.598418 227.62344 
L 118.576578 227.62344 
L 118.576578 223.918476 
L 119.097192 223.918476 
L 119.097192 222.992235 
L 119.602714 222.992235 
L 119.602714 221.139753 
L 120.093994 221.139753 
L 120.093994 220.213512 
L 120.759333 220.213512 
L 120.759333 217.434789 
L 121.219499 217.434789 
L 121.219499 215.582307 
L 123.751369 215.582307 
L 123.751369 214.656066 
L 124.368753 214.656066 
L 124.368753 212.803583 
L 124.891598 212.803583 
L 124.891598 207.246137 
L 125.541584 207.246137 
L 125.612332 205.393655 
L 125.682793 205.393655 
L 125.682793 203.541173 
L 125.822869 203.541173 
L 125.822869 202.614932 
L 126.372183 202.614932 
L 126.439646 199.836209 
L 127.165014 199.836209 
L 127.165014 196.131245 
L 127.293718 196.131245 
L 127.293718 195.205004 
L 128.046609 195.205004 
L 128.046609 193.352522 
L 128.650105 193.352522 
L 128.650105 191.50004 
L 129.06046 191.50004 
L 129.06046 190.573799 
L 130.127931 190.573799 
L 130.127931 188.721316 
L 131.133813 188.721316 
L 131.133813 187.795075 
L 131.839545 187.795075 
L 131.938072 185.942593 
L 138.324456 185.942593 
L 138.324456 182.237629 
L 138.828032 182.237629 
L 138.861092 179.458906 
L 139.123342 179.458906 
L 139.123342 177.606424 
L 141.350061 177.606424 
L 141.350061 176.680183 
L 141.69035 176.680183 
L 141.69035 172.975219 
L 142.752555 172.975219 
L 142.752555 172.048978 
L 143.42637 172.048978 
L 143.42637 171.122737 
L 144.794859 171.122737 
L 144.841802 167.417773 
L 145.732804 167.417773 
L 145.732804 166.491532 
L 146.019967 166.491532 
L 146.019967 164.63905 
L 146.875005 164.63905 
L 146.875005 163.712808 
L 147.12355 163.712808 
L 147.12355 162.786567 
L 147.287301 162.786567 
L 147.368603 159.081603 
L 148.083753 159.081603 
L 148.1808 155.376639 
L 148.258051 155.376639 
L 148.258051 153.524157 
L 149.699829 153.524157 
L 149.699829 152.597916 
L 150.085825 152.597916 
L 150.085825 151.671675 
L 151.676833 151.671675 
L 151.676833 149.819193 
L 153.279836 149.819193 
L 153.279836 148.892952 
L 153.764292 148.892952 
L 153.764292 147.04047 
L 155.232454 147.04047 
L 155.232454 146.114229 
L 155.361158 146.114229 
L 155.361158 144.261747 
L 155.539762 144.261747 
L 155.539762 143.335506 
L 156.297301 143.335506 
L 156.382164 141.483024 
L 157.15106 141.483024 
L 157.2549 137.778059 
L 157.392398 137.778059 
L 157.392398 136.851818 
L 157.641697 136.851818 
L 157.641697 134.999336 
L 157.98704 134.999336 
L 158.042106 133.146854 
L 158.228039 133.146854 
L 158.228039 131.294372 
L 160.132771 131.294372 
L 160.132771 130.368131 
L 161.329454 130.368131 
L 161.329454 129.44189 
L 162.500433 129.44189 
L 162.500433 127.589408 
L 164.973287 127.589408 
L 164.973287 126.663167 
L 165.439918 126.663167 
L 165.439918 123.884444 
L 165.957358 123.884444 
L 165.957358 122.031962 
L 166.829163 122.031962 
L 166.88223 119.253239 
L 166.96153 119.253239 
L 166.96153 118.326998 
L 167.119055 118.326998 
L 167.119055 117.400757 
L 168.354881 117.400757 
L 168.354881 116.474516 
L 168.52449 116.474516 
L 168.52449 115.548274 
L 170.851674 115.548274 
L 170.851674 114.622033 
L 171.273802 114.622033 
L 171.273802 112.769551 
L 171.590146 112.769551 
L 171.590146 111.84331 
L 172.186589 111.84331 
L 172.186589 109.990828 
L 174.283479 109.990828 
L 174.283479 108.138346 
L 175.223864 108.138346 
L 175.223864 106.285864 
L 175.601537 106.285864 
L 175.601537 104.433382 
L 177.08343 104.433382 
L 177.08343 103.507141 
L 177.656927 103.507141 
L 177.656927 102.5809 
L 180.585331 102.5809 
L 180.585331 100.728418 
L 183.271451 100.728418 
L 183.271451 99.802177 
L 185.484929 99.802177 
L 185.484929 98.875936 
L 185.760815 98.875936 
L 185.760815 97.949695 
L 187.540246 97.949695 
L 187.540246 96.097213 
L 189.115979 96.097213 
L 189.115979 94.244731 
L 189.793054 94.244731 
L 189.793054 93.31849 
L 196.351568 93.31849 
L 196.351568 91.466008 
L 203.863929 91.466008 
L 203.863929 90.539766 
L 338.688 90.539766 
L 338.688 90.539766 
" style="fill:none;stroke:#ff00ff;stroke-linecap:square;stroke-width:1.5;"/>
   </g>
   <g id="line2d_41">
    <defs>
     <path d="M 0 8.485281 
L 5.091169 0 
L 0 -8.485281 
L -5.091169 0 
z
" id="m662d2537ce" style="stroke:#ff00ff;stroke-linejoin:miter;stroke-width:1.5;"/>
    </defs>
    <g>
     <use style="fill-opacity:0;stroke:#ff00ff;stroke-linejoin:miter;stroke-width:1.5;" x="107.009204" xlink:href="#m662d2537ce" y="261.894358"/>
     <use style="fill-opacity:0;stroke:#ff00ff;stroke-linejoin:miter;stroke-width:1.5;" x="151.676833" xlink:href="#m662d2537ce" y="151.671675"/>
     <use style="fill-opacity:0;stroke:#ff00ff;stroke-linejoin:miter;stroke-width:1.5;" x="203.863929" xlink:href="#m662d2537ce" y="91.466008"/>
     <use style="fill-opacity:0;stroke:#ff00ff;stroke-linejoin:miter;stroke-width:1.5;" x="203.863929" xlink:href="#m662d2537ce" y="90.539766"/>
     <use style="fill-opacity:0;stroke:#ff00ff;stroke-linejoin:miter;stroke-width:1.5;" x="203.863929" xlink:href="#m662d2537ce" y="90.539766"/>
     <use style="fill-opacity:0;stroke:#ff00ff;stroke-linejoin:miter;stroke-width:1.5;" x="338.688" xlink:href="#m662d2537ce" y="90.539766"/>
    </g>
   </g>
   <g id="line2d_42">
    <path style="fill:none;stroke:#ff00ff;stroke-linecap:square;stroke-width:1.5;"/>
    <g/>
   </g>
   <g id="line2d_43">
    <path clip-path="url(#p5206d468d0)" d="M 218.223807 90.539766 
" style="fill:none;stroke:#ff00ff;stroke-linecap:square;stroke-width:1.5;"/>
    <defs>
     <path d="M -12 12 
L 12 -12 
M -12 -12 
L 12 12 
" id="m5a94cc945f" style="stroke:#ff00ff;"/>
    </defs>
    <g clip-path="url(#p5206d468d0)">
     <use style="fill:#ff00ff;stroke:#ff00ff;" x="218.223807" xlink:href="#m5a94cc945f" y="90.539766"/>
    </g>
   </g>
   <g id="line2d_44">
    <defs>
     <path d="M 0 1.5 
C 0.397805 1.5 0.77937 1.341951 1.06066 1.06066 
C 1.341951 0.77937 1.5 0.397805 1.5 0 
C 1.5 -0.397805 1.341951 -0.77937 1.06066 -1.06066 
C 0.77937 -1.341951 0.397805 -1.5 0 -1.5 
C -0.397805 -1.5 -0.77937 -1.341951 -1.06066 -1.06066 
C -1.341951 -0.77937 -1.5 -0.397805 -1.5 0 
C -1.5 0.397805 -1.341951 0.77937 -1.06066 1.06066 
C -0.77937 1.341951 -0.397805 1.5 0 1.5 
z
" id="m622f011b22" style="stroke:#ffa500;"/>
    </defs>
    <g>
     <use style="fill:#ffa500;stroke:#ffa500;" x="162.946002" xlink:href="#m622f011b22" y="163.712808"/>
     <use style="fill:#ffa500;stroke:#ffa500;" x="162.946002" xlink:href="#m622f011b22" y="163.712808"/>
    </g>
   </g>
   <g id="line2d_45">
    <path d="M 29.53256 298.944 
L 29.53256 293.386554 
L 41.620548 293.386554 
L 41.620548 291.534072 
L 57.6 291.534072 
L 57.6 291.070951 
L 65.796525 291.070951 
L 65.796525 290.14471 
L 74.263433 290.14471 
L 74.263433 289.68159 
L 77.884514 289.68159 
L 77.884514 288.755349 
L 79.938565 288.755349 
L 79.938565 287.829108 
L 83.438118 287.829108 
L 83.438118 287.365987 
L 90.509138 287.365987 
L 90.509138 286.439746 
L 92.504372 286.439746 
L 92.504372 285.976625 
L 92.969447 285.976625 
L 92.969447 282.734782 
L 94.294587 282.734782 
L 94.294587 282.271661 
L 94.714831 282.271661 
L 94.714831 280.419179 
L 95.125186 280.419179 
L 95.125186 278.103577 
L 97.043522 278.103577 
L 97.043522 275.324854 
L 97.403108 275.324854 
L 97.403108 273.472371 
L 100.343767 273.472371 
L 100.343767 270.230528 
L 100.934985 270.230528 
L 100.934985 268.841166 
L 101.223245 268.841166 
L 101.223245 267.914925 
L 102.859376 267.914925 
L 102.859376 266.062443 
L 105.057436 266.062443 
L 105.057436 264.673082 
L 105.951954 264.673082 
L 105.951954 263.28372 
L 107.009204 263.28372 
L 107.009204 262.8206 
L 108.006005 262.8206 
L 108.006005 261.894358 
L 108.764355 261.894358 
L 108.764355 258.652515 
L 110.016944 258.652515 
L 110.016944 258.189394 
L 110.358901 258.189394 
L 110.358901 256.800033 
L 112.877038 256.800033 
L 112.877038 256.336912 
L 113.311233 256.336912 
L 113.311233 254.947551 
L 113.594805 254.947551 
L 113.594805 254.48443 
L 114.418861 254.48443 
L 114.418861 252.631948 
L 114.552496 252.631948 
L 114.552496 251.705707 
L 115.586238 251.705707 
L 115.586238 249.853225 
L 116.323218 249.853225 
L 116.323218 248.463863 
L 116.680349 248.463863 
L 116.680349 246.148261 
L 117.709852 246.148261 
L 117.709852 245.68514 
L 118.681952 245.68514 
L 118.681952 244.295779 
L 119.502775 244.295779 
L 119.502775 243.832658 
L 120.47729 243.832658 
L 120.47729 242.906417 
L 122.104932 242.906417 
L 122.104932 241.053935 
L 122.44689 241.053935 
L 122.44689 240.127694 
L 123.593547 240.127694 
L 123.593547 239.201453 
L 124.139788 239.201453 
L 124.216444 237.812091 
L 124.669438 237.812091 
L 124.669438 236.88585 
L 125.327602 236.88585 
L 125.327602 236.42273 
L 125.822869 236.42273 
L 125.892487 234.107127 
L 126.236468 234.107127 
L 126.236468 231.791525 
L 126.372183 231.791525 
L 126.439646 229.939043 
L 126.839037 229.939043 
L 126.839037 228.549681 
L 127.674226 228.549681 
L 127.736845 224.381596 
L 128.885774 224.381596 
L 128.885774 223.455355 
L 130.018593 223.455355 
L 130.018593 222.992235 
L 130.290663 222.992235 
L 130.290663 222.065994 
L 130.76994 222.065994 
L 130.76994 221.602873 
L 132.470242 221.602873 
L 132.470242 220.676632 
L 133.216421 220.676632 
L 133.216421 220.213512 
L 133.844123 220.213512 
L 133.888106 218.36103 
L 134.019394 218.36103 
L 134.019394 217.434789 
L 134.192921 217.434789 
L 134.192921 216.971668 
L 134.364738 216.971668 
L 134.364738 216.045427 
L 135.076644 216.045427 
L 135.076644 215.582307 
L 135.280614 215.582307 
L 135.321124 214.656066 
L 135.760625 214.656066 
L 135.760625 213.729825 
L 135.878591 213.729825 
L 135.878591 212.803583 
L 136.380754 212.803583 
L 136.380754 212.340463 
L 136.570107 212.340463 
L 136.570107 211.877342 
L 137.235245 211.877342 
L 137.235245 210.951101 
L 137.980475 210.951101 
L 137.980475 209.56174 
L 138.153314 209.56174 
L 138.221972 207.246137 
L 138.594838 207.246137 
L 138.594838 206.783017 
L 139.02546 206.783017 
L 139.090775 204.930535 
L 139.381706 204.930535 
L 139.413734 202.614932 
L 139.541262 202.614932 
L 139.572998 201.688691 
L 140.165274 201.688691 
L 140.165274 201.225571 
L 141.492656 201.225571 
L 141.549369 199.836209 
L 141.634094 199.836209 
L 141.634094 198.446847 
L 141.858037 198.446847 
L 141.858037 197.983727 
L 142.051655 197.983727 
L 142.07914 196.131245 
L 142.405626 196.131245 
L 142.405626 195.668124 
L 143.247504 195.668124 
L 143.349938 193.815642 
L 143.527762 193.815642 
L 143.60342 191.50004 
L 143.853271 191.50004 
L 143.853271 191.036919 
L 144.53439 191.036919 
L 144.55823 189.184437 
L 145.212864 189.184437 
L 145.235796 188.258196 
L 145.998045 188.258196 
L 146.06373 185.479473 
L 146.216039 185.479473 
L 146.302479 184.553232 
L 147.082371 184.553232 
L 147.082371 183.626991 
L 147.70997 183.626991 
L 147.78933 182.70075 
L 148.449693 182.70075 
L 148.449693 182.237629 
L 148.882639 182.237629 
L 148.882639 181.774509 
L 149.268764 181.774509 
L 149.268764 180.848268 
L 149.395596 180.848268 
L 149.503579 179.458906 
L 149.805951 179.458906 
L 149.805951 178.995786 
L 150.327083 178.995786 
L 150.327083 177.143304 
L 150.632448 177.143304 
L 150.632448 176.217062 
L 150.783149 176.217062 
L 150.783149 175.290821 
L 151.243836 175.290821 
L 151.243836 174.827701 
L 152.885298 174.827701 
L 152.885298 174.36458 
L 153.323128 174.36458 
L 153.323128 173.90146 
L 154.303908 173.90146 
L 154.303908 173.438339 
L 154.787617 173.438339 
L 154.787617 172.975219 
L 155.514359 172.975219 
L 155.514359 172.048978 
L 156.800392 172.048978 
L 156.800392 171.585857 
L 156.988292 171.585857 
L 156.988292 171.122737 
L 157.104709 171.122737 
L 157.208825 169.270255 
L 157.720277 169.270255 
L 157.720277 168.807134 
L 158.0201 168.807134 
L 158.0201 168.344014 
L 159.446449 168.344014 
L 159.446449 167.880893 
L 159.946463 167.880893 
L 159.946463 167.417773 
L 160.31711 167.417773 
L 160.31711 166.954652 
L 160.566247 166.954652 
L 160.566247 166.028411 
L 160.86807 166.028411 
L 160.877419 165.10217 
L 161.955547 165.10217 
L 161.955547 164.63905 
L 162.879471 164.63905 
L 162.946002 163.712808 
L 338.688 163.712808 
L 338.688 163.712808 
" style="fill:none;stroke:#ffa500;stroke-linecap:square;stroke-width:1.5;"/>
   </g>
   <g id="line2d_46">
    <defs>
     <path d="M 0 -6 
L -1.347084 -1.854102 
L -5.706339 -1.854102 
L -2.179628 0.708204 
L -3.526712 4.854102 
L -0 2.291796 
L 3.526712 4.854102 
L 2.179628 0.708204 
L 5.706339 -1.854102 
L 1.347084 -1.854102 
z
" id="mf925ab59e8" style="stroke:#ffa500;stroke-linejoin:bevel;stroke-width:1.5;"/>
    </defs>
    <g>
     <use style="fill-opacity:0;stroke:#ffa500;stroke-linejoin:bevel;stroke-width:1.5;" x="77.884514" xlink:href="#mf925ab59e8" y="289.68159"/>
     <use style="fill-opacity:0;stroke:#ffa500;stroke-linejoin:bevel;stroke-width:1.5;" x="125.892487" xlink:href="#mf925ab59e8" y="235.033368"/>
     <use style="fill-opacity:0;stroke:#ffa500;stroke-linejoin:bevel;stroke-width:1.5;" x="162.946002" xlink:href="#mf925ab59e8" y="164.175929"/>
     <use style="fill-opacity:0;stroke:#ffa500;stroke-linejoin:bevel;stroke-width:1.5;" x="162.946002" xlink:href="#mf925ab59e8" y="163.712808"/>
     <use style="fill-opacity:0;stroke:#ffa500;stroke-linejoin:bevel;stroke-width:1.5;" x="162.946002" xlink:href="#mf925ab59e8" y="163.712808"/>
     <use style="fill-opacity:0;stroke:#ffa500;stroke-linejoin:bevel;stroke-width:1.5;" x="338.688" xlink:href="#mf925ab59e8" y="163.712808"/>
    </g>
   </g>
   <g id="line2d_47">
    <path style="fill:none;stroke:#ffa500;stroke-linecap:square;stroke-width:1.5;"/>
    <g/>
   </g>
   <g id="line2d_48">
    <path clip-path="url(#p5206d468d0)" d="M 258.377213 163.712808 
" style="fill:none;stroke:#ffa500;stroke-linecap:square;stroke-width:1.5;"/>
    <defs>
     <path d="M -12 12 
L 12 -12 
M -12 -12 
L 12 12 
" id="mb5981be49e" style="stroke:#ffa500;"/>
    </defs>
    <g clip-path="url(#p5206d468d0)">
     <use style="fill:#ffa500;stroke:#ffa500;" x="258.377213" xlink:href="#mb5981be49e" y="163.712808"/>
    </g>
   </g>
   <g id="line2d_49">
    <defs>
     <path d="M 0 1.5 
C 0.397805 1.5 0.77937 1.341951 1.06066 1.06066 
C 1.341951 0.77937 1.5 0.397805 1.5 0 
C 1.5 -0.397805 1.341951 -0.77937 1.06066 -1.06066 
C 0.77937 -1.341951 0.397805 -1.5 0 -1.5 
C -0.397805 -1.5 -0.77937 -1.341951 -1.06066 -1.06066 
C -1.341951 -0.77937 -1.5 -0.397805 -1.5 0 
C -1.5 0.397805 -1.341951 0.77937 -1.06066 1.06066 
C -0.77937 1.341951 -0.397805 1.5 0 1.5 
z
" id="m990efa2221" style="stroke:#6495ed;"/>
    </defs>
    <g>
     <use style="fill:#6495ed;stroke:#6495ed;" x="199.161134" xlink:href="#m990efa2221" y="118.790118"/>
     <use style="fill:#6495ed;stroke:#6495ed;" x="199.161134" xlink:href="#m990efa2221" y="118.790118"/>
    </g>
   </g>
   <g id="line2d_50">
    <path d="M 29.53256 298.944 
L 29.53256 293.386554 
L 48.691568 293.386554 
L 48.691568 290.607831 
L 57.6 290.607831 
L 57.6 290.14471 
L 63.467834 290.14471 
L 63.467834 289.218469 
L 67.850577 289.218469 
L 67.850577 287.829108 
L 74.263433 287.829108 
L 74.263433 286.902867 
L 76.759008 286.902867 
L 76.759008 285.050384 
L 81.775977 285.050384 
L 81.775977 284.587264 
L 87.643811 284.587264 
L 87.643811 283.661023 
L 88.255778 283.661023 
L 88.255778 281.808541 
L 92.969447 281.808541 
L 92.969447 280.8823 
L 95.918017 280.8823 
L 95.918017 280.419179 
L 96.676366 280.419179 
L 96.676366 279.956059 
L 100.934985 279.956059 
L 100.934985 278.566697 
L 101.223245 278.566697 
L 101.223245 278.103577 
L 101.506816 278.103577 
L 101.506816 277.640456 
L 102.330873 277.640456 
L 102.330873 276.251095 
L 105.951954 276.251095 
L 105.951954 273.935492 
L 107.213174 273.935492 
L 107.213174 273.472371 
L 107.811151 273.472371 
L 107.811151 272.08301 
L 108.006005 272.08301 
L 108.006005 270.693648 
L 110.188761 270.693648 
L 110.188761 270.230528 
L 111.185562 270.230528 
L 111.185562 269.304287 
L 111.505558 269.304287 
L 111.505558 267.914925 
L 112.877038 267.914925 
L 112.877038 266.988684 
L 114.148479 266.988684 
L 114.148479 266.062443 
L 114.418861 266.062443 
L 114.418861 265.599323 
L 115.33349 265.599323 
L 115.33349 263.28372 
L 116.680349 263.28372 
L 116.680349 262.8206 
L 117.030313 262.8206 
L 117.030313 262.357479 
L 117.486268 262.357479 
L 117.486268 261.431238 
L 118.576578 261.431238 
L 118.576578 260.968117 
L 119.40226 260.968117 
L 119.40226 260.504997 
L 119.996839 260.504997 
L 120.093994 258.652515 
L 120.286695 258.652515 
L 120.286695 257.263153 
L 123.434283 257.263153 
L 123.434283 256.336912 
L 123.829748 256.336912 
L 123.829748 255.410671 
L 124.139788 255.410671 
L 124.139788 254.02131 
L 124.817858 254.02131 
L 124.817858 253.095069 
L 125.038147 253.095069 
L 125.038147 252.168828 
L 125.470548 252.168828 
L 125.470548 251.705707 
L 126.640485 251.705707 
L 126.70692 250.316346 
L 127.165014 250.316346 
L 127.165014 248.463863 
L 127.293718 248.463863 
L 127.293718 248.000743 
L 127.54831 248.000743 
L 127.54831 247.537622 
L 129.06046 247.537622 
L 129.06046 246.611381 
L 129.404667 246.611381 
L 129.404667 246.148261 
L 129.963666 246.148261 
L 129.963666 244.295779 
L 131.690703 244.295779 
L 131.690703 243.832658 
L 131.938072 243.832658 
L 131.938072 242.906417 
L 132.70687 242.906417 
L 132.70687 241.980176 
L 133.931979 241.980176 
L 133.931979 240.127694 
L 134.534878 240.127694 
L 134.534878 239.664574 
L 135.280614 239.664574 
L 135.280614 238.738333 
L 135.602085 238.738333 
L 135.681535 236.42273 
L 136.494612 236.42273 
L 136.494612 235.959609 
L 137.48721 235.959609 
L 137.48721 235.033368 
L 138.728473 235.033368 
L 138.728473 234.107127 
L 139.317473 234.107127 
L 139.317473 233.180886 
L 139.445704 233.180886 
L 139.445704 232.254645 
L 139.636299 232.254645 
L 139.636299 231.791525 
L 139.887228 231.791525 
L 139.887228 230.865284 
L 140.165274 230.865284 
L 140.165274 229.939043 
L 140.408758 229.939043 
L 140.408758 229.012802 
L 141.492656 229.012802 
L 141.521035 228.086561 
L 141.605898 228.086561 
L 141.605898 227.62344 
L 141.746425 227.62344 
L 141.746425 227.16032 
L 142.106582 227.16032 
L 142.106582 226.697199 
L 143.853271 226.697199 
L 143.927534 225.307837 
L 144.099593 225.307837 
L 144.099593 224.381596 
L 144.221461 224.381596 
L 144.221461 223.455355 
L 144.53439 223.455355 
L 144.53439 222.992235 
L 145.02832 222.992235 
L 145.02832 221.602873 
L 145.395476 221.602873 
L 145.395476 220.213512 
L 145.843812 220.213512 
L 145.954117 218.82415 
L 145.976095 218.82415 
L 145.976095 217.434789 
L 146.172658 217.434789 
L 146.172658 216.971668 
L 146.665144 216.971668 
L 146.749392 215.582307 
L 146.916676 215.582307 
L 146.916676 215.119186 
L 147.307662 215.119186 
L 147.307662 214.656066 
L 148.083753 214.656066 
L 148.083753 214.192945 
L 148.200145 214.192945 
L 148.200145 213.266704 
L 148.373289 213.266704 
L 148.449693 212.340463 
L 148.563676 212.340463 
L 148.563676 211.877342 
L 149.012299 211.877342 
L 149.012299 210.951101 
L 149.752971 210.951101 
L 149.752971 210.02486 
L 150.172372 210.02486 
L 150.224095 208.635499 
L 150.446473 208.635499 
L 150.446473 207.709258 
L 150.632448 207.709258 
L 150.73306 206.783017 
L 150.932558 206.783017 
L 150.932558 205.856776 
L 151.178764 205.856776 
L 151.178764 204.930535 
L 151.421542 204.930535 
L 151.517715 203.078053 
L 151.565603 203.078053 
L 151.565603 202.151812 
L 152.632227 202.151812 
L 152.632227 201.688691 
L 153.279836 201.688691 
L 153.294279 199.836209 
L 153.580644 199.836209 
L 153.637357 197.520606 
L 154.167129 197.520606 
L 154.167129 196.594365 
L 154.426099 196.594365 
L 154.426099 196.131245 
L 154.707925 196.131245 
L 154.787617 194.741883 
L 155.603109 194.741883 
L 155.603109 194.278763 
L 155.841748 194.278763 
L 155.841748 193.352522 
L 156.454576 193.352522 
L 156.454576 192.889401 
L 156.586556 192.889401 
L 156.586556 192.426281 
L 156.882847 192.426281 
L 156.882847 191.96316 
L 157.1279 191.96316 
L 157.1279 191.50004 
L 157.820792 191.50004 
L 157.820792 190.573799 
L 158.042106 190.573799 
L 158.075062 188.721316 
L 158.530025 188.721316 
L 158.530025 187.795075 
L 158.721434 187.795075 
L 158.742573 186.868834 
L 158.973421 186.868834 
L 158.973421 186.405714 
L 159.375289 186.405714 
L 159.39565 185.016352 
L 160.025151 185.016352 
L 160.025151 184.090111 
L 160.365299 184.090111 
L 160.365299 183.626991 
L 160.914762 183.626991 
L 160.961329 182.237629 
L 161.447441 182.237629 
L 161.447441 181.774509 
L 161.770068 181.774509 
L 161.770068 181.311388 
L 161.999419 181.311388 
L 162.095552 178.532665 
L 162.243086 178.532665 
L 162.320689 176.680183 
L 162.568423 176.680183 
L 162.568423 176.217062 
L 162.921083 176.217062 
L 162.921083 175.290821 
L 163.501492 175.290821 
L 163.605703 173.438339 
L 164.01643 173.438339 
L 164.01643 172.512098 
L 164.637547 172.512098 
L 164.637547 172.048978 
L 164.965896 172.048978 
L 165.00282 171.122737 
L 165.367825 171.122737 
L 165.367825 170.659616 
L 165.661531 170.659616 
L 165.661531 170.196496 
L 166.20699 170.196496 
L 166.316801 167.417773 
L 166.323641 167.417773 
L 166.323641 166.954652 
L 166.493781 166.954652 
L 166.493781 166.028411 
L 167.047033 166.028411 
L 167.125588 163.712808 
L 167.493969 163.712808 
L 167.493969 163.249688 
L 167.829655 163.249688 
L 167.923499 160.934085 
L 167.973343 160.934085 
L 167.973343 160.470965 
L 168.464104 160.470965 
L 168.464104 160.007844 
L 168.876569 160.007844 
L 168.876569 159.544724 
L 168.988454 159.544724 
L 168.988454 159.081603 
L 169.342888 159.081603 
L 169.394577 158.155362 
L 169.639443 158.155362 
L 169.71843 157.229121 
L 170.069512 157.229121 
L 170.069512 156.766001 
L 170.402844 156.766001 
L 170.413666 155.376639 
L 171.381595 155.376639 
L 171.381595 154.450398 
L 171.76122 154.450398 
L 171.76122 153.524157 
L 172.029522 153.524157 
L 172.029522 153.061037 
L 172.152351 153.061037 
L 172.25973 149.819193 
L 172.899863 149.819193 
L 172.899863 148.892952 
L 173.294067 148.892952 
L 173.294067 148.429831 
L 173.444741 148.429831 
L 173.444741 147.966711 
L 173.697489 147.966711 
L 173.719878 147.04047 
L 174.209666 147.04047 
L 174.209666 146.577349 
L 174.37854 146.577349 
L 174.37854 145.651108 
L 174.50306 145.651108 
L 174.50306 145.187988 
L 174.626698 145.187988 
L 174.626698 144.724867 
L 174.925749 144.724867 
L 174.971626 143.335506 
L 175.195103 143.335506 
L 175.248478 141.019903 
L 175.464409 141.019903 
L 175.464409 140.093662 
L 175.986929 140.093662 
L 175.986929 138.7043 
L 176.55521 138.7043 
L 176.55521 137.778059 
L 176.916581 137.778059 
L 176.916581 137.314939 
L 177.574607 137.314939 
L 177.653356 135.925577 
L 177.742414 135.925577 
L 177.742414 135.462457 
L 178.305302 135.462457 
L 178.305302 134.536216 
L 178.703252 134.536216 
L 178.763676 133.609975 
L 179.308028 133.609975 
L 179.308028 133.146854 
L 179.476119 133.146854 
L 179.476119 132.683734 
L 180.179144 132.683734 
L 180.179144 132.220613 
L 180.436781 132.220613 
L 180.436781 131.294372 
L 180.615492 131.294372 
L 180.615492 130.831252 
L 181.399213 130.831252 
L 181.399213 129.905011 
L 181.522662 129.905011 
L 181.522662 128.97877 
L 182.168531 128.97877 
L 182.168531 128.515649 
L 183.426033 128.515649 
L 183.426033 128.052529 
L 183.926644 128.052529 
L 183.966477 127.126287 
L 184.478605 127.126287 
L 184.478605 126.663167 
L 184.99723 126.663167 
L 184.99723 125.736926 
L 185.834696 125.736926 
L 185.834696 125.273805 
L 187.657357 125.273805 
L 187.657357 124.810685 
L 187.974425 124.810685 
L 188.007987 122.958203 
L 188.365238 122.958203 
L 188.365238 122.031962 
L 188.70774 122.031962 
L 188.715317 121.105721 
L 189.316571 121.105721 
L 189.316571 120.6426 
L 189.514881 120.6426 
L 189.514881 120.17948 
L 192.359583 120.17948 
L 192.359583 119.716359 
L 199.161134 119.716359 
L 199.161134 118.790118 
L 338.688 118.790118 
L 338.688 118.790118 
" style="fill:none;stroke:#6495ed;stroke-linecap:square;stroke-width:1.5;"/>
   </g>
   <g id="line2d_51">
    <defs>
     <path d="M -0 6 
L 6 -6 
L -6 -6 
z
" id="mfcb68bc447" style="stroke:#6495ed;stroke-linejoin:miter;stroke-width:1.5;"/>
    </defs>
    <g>
     <use style="fill-opacity:0;stroke:#6495ed;stroke-linejoin:miter;stroke-width:1.5;" x="139.887228" xlink:href="#mfcb68bc447" y="231.791525"/>
     <use style="fill-opacity:0;stroke:#6495ed;stroke-linejoin:miter;stroke-width:1.5;" x="172.152351" xlink:href="#mfcb68bc447" y="152.134795"/>
     <use style="fill-opacity:0;stroke:#6495ed;stroke-linejoin:miter;stroke-width:1.5;" x="199.161134" xlink:href="#mfcb68bc447" y="119.716359"/>
     <use style="fill-opacity:0;stroke:#6495ed;stroke-linejoin:miter;stroke-width:1.5;" x="199.161134" xlink:href="#mfcb68bc447" y="118.790118"/>
     <use style="fill-opacity:0;stroke:#6495ed;stroke-linejoin:miter;stroke-width:1.5;" x="338.688" xlink:href="#mfcb68bc447" y="118.790118"/>
    </g>
   </g>
   <g id="line2d_52">
    <path style="fill:none;stroke:#6495ed;stroke-linecap:square;stroke-width:1.5;"/>
    <g/>
   </g>
   <g id="line2d_53">
    <path clip-path="url(#p5206d468d0)" d="M 258.377317 118.790118 
" style="fill:none;stroke:#6495ed;stroke-linecap:square;stroke-width:1.5;"/>
    <defs>
     <path d="M -12 12 
L 12 -12 
M -12 -12 
L 12 12 
" id="m623490866b" style="stroke:#6495ed;"/>
    </defs>
    <g clip-path="url(#p5206d468d0)">
     <use style="fill:#6495ed;stroke:#6495ed;" x="258.377317" xlink:href="#m623490866b" y="118.790118"/>
    </g>
   </g>
   <g id="line2d_54">
    <path d="M 338.688 163.712808 
L 369.60768 293.571802 
" style="fill:none;stroke:#ffa500;stroke-linecap:square;stroke-width:1.5;"/>
    <g>
     <use style="fill-opacity:0;stroke:#ffa500;stroke-linejoin:bevel;stroke-width:1.5;" x="338.688" xlink:href="#mf925ab59e8" y="163.712808"/>
     <use style="fill-opacity:0;stroke:#ffa500;stroke-linejoin:bevel;stroke-width:1.5;" x="369.60768" xlink:href="#mf925ab59e8" y="293.571802"/>
    </g>
   </g>
   <g id="line2d_55">
    <path d="M 338.688 118.790118 
L 369.60768 229.105426 
" style="fill:none;stroke:#6495ed;stroke-linecap:square;stroke-width:1.5;"/>
    <g>
     <use style="fill-opacity:0;stroke:#6495ed;stroke-linejoin:miter;stroke-width:1.5;" x="338.688" xlink:href="#mfcb68bc447" y="118.790118"/>
     <use style="fill-opacity:0;stroke:#6495ed;stroke-linejoin:miter;stroke-width:1.5;" x="369.60768" xlink:href="#mfcb68bc447" y="229.105426"/>
    </g>
   </g>
   <g id="line2d_56">
    <path d="M 338.688 90.539766 
L 369.60768 164.63905 
" style="fill:none;stroke:#ff00ff;stroke-linecap:square;stroke-width:1.5;"/>
    <g>
     <use style="fill-opacity:0;stroke:#ff00ff;stroke-linejoin:miter;stroke-width:1.5;" x="338.688" xlink:href="#m662d2537ce" y="90.539766"/>
     <use style="fill-opacity:0;stroke:#ff00ff;stroke-linejoin:miter;stroke-width:1.5;" x="369.60768" xlink:href="#m662d2537ce" y="164.63905"/>
    </g>
   </g>
   <g id="line2d_57">
    <path d="M 338.688 85.908561 
L 369.60768 100.172673 
" style="fill:none;stroke:#000080;stroke-linecap:square;stroke-width:1.5;"/>
    <g>
     <use style="fill-opacity:0;stroke:#000080;stroke-width:1.5;" x="338.688" xlink:href="#m3946a0828d" y="85.908561"/>
     <use style="fill-opacity:0;stroke:#000080;stroke-width:1.5;" x="369.60768" xlink:href="#m3946a0828d" y="100.172673"/>
    </g>
   </g>
   <g id="line2d_58">
    <path d="M 338.688 298.944 
L 338.688 30.334099 
" style="fill:none;stroke:#000000;stroke-linecap:square;stroke-width:1.5;"/>
   </g>
   <g id="patch_3">
    <path d="M 57.6 298.944 
L 57.6 27.648 
" style="fill:none;stroke:#000000;stroke-linecap:square;stroke-linejoin:miter;stroke-width:0.8;"/>
   </g>
   <g id="patch_4">
    <path d="M 338.688 298.944 
L 338.688 27.648 
" style="fill:none;stroke:#000000;stroke-linecap:square;stroke-linejoin:miter;stroke-width:0.8;"/>
   </g>
   <g id="patch_5">
    <path d="M 57.6 298.944 
L 338.688 298.944 
" style="fill:none;stroke:#000000;stroke-linecap:square;stroke-linejoin:miter;stroke-width:0.8;"/>
   </g>
   <g id="patch_6">
    <path d="M 57.6 27.648 
L 338.688 27.648 
" style="fill:none;stroke:#000000;stroke-linecap:square;stroke-linejoin:miter;stroke-width:0.8;"/>
   </g>
   <g id="text_13">
    <!-- COMO-3 bi -->
    <defs>
     <path d="M 64.40625 67.28125 
L 64.40625 56.890625 
Q 59.421875 61.53125 53.78125 63.8125 
Q 48.140625 66.109375 41.796875 66.109375 
Q 29.296875 66.109375 22.65625 58.46875 
Q 16.015625 50.828125 16.015625 36.375 
Q 16.015625 21.96875 22.65625 14.328125 
Q 29.296875 6.6875 41.796875 6.6875 
Q 48.140625 6.6875 53.78125 8.984375 
Q 59.421875 11.28125 64.40625 15.921875 
L 64.40625 5.609375 
Q 59.234375 2.09375 53.4375 0.328125 
Q 47.65625 -1.421875 41.21875 -1.421875 
Q 24.65625 -1.421875 15.125 8.703125 
Q 5.609375 18.84375 5.609375 36.375 
Q 5.609375 53.953125 15.125 64.078125 
Q 24.65625 74.21875 41.21875 74.21875 
Q 47.75 74.21875 53.53125 72.484375 
Q 59.328125 70.75 64.40625 67.28125 
z
" id="DejaVuSans-67"/>
     <path d="M 39.40625 66.21875 
Q 28.65625 66.21875 22.328125 58.203125 
Q 16.015625 50.203125 16.015625 36.375 
Q 16.015625 22.609375 22.328125 14.59375 
Q 28.65625 6.59375 39.40625 6.59375 
Q 50.140625 6.59375 56.421875 14.59375 
Q 62.703125 22.609375 62.703125 36.375 
Q 62.703125 50.203125 56.421875 58.203125 
Q 50.140625 66.21875 39.40625 66.21875 
z
M 39.40625 74.21875 
Q 54.734375 74.21875 63.90625 63.9375 
Q 73.09375 53.65625 73.09375 36.375 
Q 73.09375 19.140625 63.90625 8.859375 
Q 54.734375 -1.421875 39.40625 -1.421875 
Q 24.03125 -1.421875 14.8125 8.828125 
Q 5.609375 19.09375 5.609375 36.375 
Q 5.609375 53.65625 14.8125 63.9375 
Q 24.03125 74.21875 39.40625 74.21875 
z
" id="DejaVuSans-79"/>
     <path d="M 9.8125 72.90625 
L 24.515625 72.90625 
L 43.109375 23.296875 
L 61.8125 72.90625 
L 76.515625 72.90625 
L 76.515625 0 
L 66.890625 0 
L 66.890625 64.015625 
L 48.09375 14.015625 
L 38.1875 14.015625 
L 19.390625 64.015625 
L 19.390625 0 
L 9.8125 0 
z
" id="DejaVuSans-77"/>
     <path d="M 40.578125 39.3125 
Q 47.65625 37.796875 51.625 33 
Q 55.609375 28.21875 55.609375 21.1875 
Q 55.609375 10.40625 48.1875 4.484375 
Q 40.765625 -1.421875 27.09375 -1.421875 
Q 22.515625 -1.421875 17.65625 -0.515625 
Q 12.796875 0.390625 7.625 2.203125 
L 7.625 11.71875 
Q 11.71875 9.328125 16.59375 8.109375 
Q 21.484375 6.890625 26.8125 6.890625 
Q 36.078125 6.890625 40.9375 10.546875 
Q 45.796875 14.203125 45.796875 21.1875 
Q 45.796875 27.640625 41.28125 31.265625 
Q 36.765625 34.90625 28.71875 34.90625 
L 20.21875 34.90625 
L 20.21875 43.015625 
L 29.109375 43.015625 
Q 36.375 43.015625 40.234375 45.921875 
Q 44.09375 48.828125 44.09375 54.296875 
Q 44.09375 59.90625 40.109375 62.90625 
Q 36.140625 65.921875 28.71875 65.921875 
Q 24.65625 65.921875 20.015625 65.03125 
Q 15.375 64.15625 9.8125 62.3125 
L 9.8125 71.09375 
Q 15.4375 72.65625 20.34375 73.4375 
Q 25.25 74.21875 29.59375 74.21875 
Q 40.828125 74.21875 47.359375 69.109375 
Q 53.90625 64.015625 53.90625 55.328125 
Q 53.90625 49.265625 50.4375 45.09375 
Q 46.96875 40.921875 40.578125 39.3125 
z
" id="DejaVuSans-51"/>
     <path d="M 48.6875 27.296875 
Q 48.6875 37.203125 44.609375 42.84375 
Q 40.53125 48.484375 33.40625 48.484375 
Q 26.265625 48.484375 22.1875 42.84375 
Q 18.109375 37.203125 18.109375 27.296875 
Q 18.109375 17.390625 22.1875 11.75 
Q 26.265625 6.109375 33.40625 6.109375 
Q 40.53125 6.109375 44.609375 11.75 
Q 48.6875 17.390625 48.6875 27.296875 
z
M 18.109375 46.390625 
Q 20.953125 51.265625 25.265625 53.625 
Q 29.59375 56 35.59375 56 
Q 45.5625 56 51.78125 48.09375 
Q 58.015625 40.1875 58.015625 27.296875 
Q 58.015625 14.40625 51.78125 6.484375 
Q 45.5625 -1.421875 35.59375 -1.421875 
Q 29.59375 -1.421875 25.265625 0.953125 
Q 20.953125 3.328125 18.109375 8.203125 
L 18.109375 0 
L 9.078125 0 
L 9.078125 75.984375 
L 18.109375 75.984375 
z
" id="DejaVuSans-98"/>
    </defs>
    <g transform="translate(375.22944 298.262739)scale(0.17 -0.17)">
     <use xlink:href="#DejaVuSans-67"/>
     <use x="69.824219" xlink:href="#DejaVuSans-79"/>
     <use x="148.535156" xlink:href="#DejaVuSans-77"/>
     <use x="234.814453" xlink:href="#DejaVuSans-79"/>
     <use x="313.556641" xlink:href="#DejaVuSans-45"/>
     <use x="349.640625" xlink:href="#DejaVuSans-51"/>
     <use x="413.263672" xlink:href="#DejaVuSans-32"/>
     <use x="445.050781" xlink:href="#DejaVuSans-98"/>
     <use x="508.527344" xlink:href="#DejaVuSans-105"/>
    </g>
   </g>
   <g id="text_14">
    <!-- COMO-10 b -->
    <g transform="translate(375.22944 233.796363)scale(0.17 -0.17)">
     <use xlink:href="#DejaVuSans-67"/>
     <use x="69.824219" xlink:href="#DejaVuSans-79"/>
     <use x="148.535156" xlink:href="#DejaVuSans-77"/>
     <use x="234.814453" xlink:href="#DejaVuSans-79"/>
     <use x="313.556641" xlink:href="#DejaVuSans-45"/>
     <use x="349.640625" xlink:href="#DejaVuSans-49"/>
     <use x="413.263672" xlink:href="#DejaVuSans-48"/>
     <use x="476.886719" xlink:href="#DejaVuSans-32"/>
     <use x="508.673828" xlink:href="#DejaVuSans-98"/>
    </g>
   </g>
   <g id="text_15">
    <!-- chv-1e-1t -->
    <defs>
     <path d="M 54.890625 33.015625 
L 54.890625 0 
L 45.90625 0 
L 45.90625 32.71875 
Q 45.90625 40.484375 42.875 44.328125 
Q 39.84375 48.1875 33.796875 48.1875 
Q 26.515625 48.1875 22.3125 43.546875 
Q 18.109375 38.921875 18.109375 30.90625 
L 18.109375 0 
L 9.078125 0 
L 9.078125 75.984375 
L 18.109375 75.984375 
L 18.109375 46.1875 
Q 21.34375 51.125 25.703125 53.5625 
Q 30.078125 56 35.796875 56 
Q 45.21875 56 50.046875 50.171875 
Q 54.890625 44.34375 54.890625 33.015625 
z
" id="DejaVuSans-104"/>
    </defs>
    <g transform="translate(375.22944 169.329987)scale(0.17 -0.17)">
     <use xlink:href="#DejaVuSans-99"/>
     <use x="54.980469" xlink:href="#DejaVuSans-104"/>
     <use x="118.359375" xlink:href="#DejaVuSans-118"/>
     <use x="177.507812" xlink:href="#DejaVuSans-45"/>
     <use x="213.591797" xlink:href="#DejaVuSans-49"/>
     <use x="277.214844" xlink:href="#DejaVuSans-101"/>
     <use x="338.738281" xlink:href="#DejaVuSans-45"/>
     <use x="374.822266" xlink:href="#DejaVuSans-49"/>
     <use x="438.445312" xlink:href="#DejaVuSans-116"/>
    </g>
   </g>
   <g id="text_16">
    <!-- chvPlusRa -->
    <defs>
     <path d="M 19.671875 64.796875 
L 19.671875 37.40625 
L 32.078125 37.40625 
Q 38.96875 37.40625 42.71875 40.96875 
Q 46.484375 44.53125 46.484375 51.125 
Q 46.484375 57.671875 42.71875 61.234375 
Q 38.96875 64.796875 32.078125 64.796875 
z
M 9.8125 72.90625 
L 32.078125 72.90625 
Q 44.34375 72.90625 50.609375 67.359375 
Q 56.890625 61.8125 56.890625 51.125 
Q 56.890625 40.328125 50.609375 34.8125 
Q 44.34375 29.296875 32.078125 29.296875 
L 19.671875 29.296875 
L 19.671875 0 
L 9.8125 0 
z
" id="DejaVuSans-80"/>
     <path d="M 44.390625 34.1875 
Q 47.5625 33.109375 50.5625 29.59375 
Q 53.5625 26.078125 56.59375 19.921875 
L 66.609375 0 
L 56 0 
L 46.6875 18.703125 
Q 43.0625 26.03125 39.671875 28.421875 
Q 36.28125 30.8125 30.421875 30.8125 
L 19.671875 30.8125 
L 19.671875 0 
L 9.8125 0 
L 9.8125 72.90625 
L 32.078125 72.90625 
Q 44.578125 72.90625 50.734375 67.671875 
Q 56.890625 62.453125 56.890625 51.90625 
Q 56.890625 45.015625 53.6875 40.46875 
Q 50.484375 35.9375 44.390625 34.1875 
z
M 19.671875 64.796875 
L 19.671875 38.921875 
L 32.078125 38.921875 
Q 39.203125 38.921875 42.84375 42.21875 
Q 46.484375 45.515625 46.484375 51.90625 
Q 46.484375 58.296875 42.84375 61.546875 
Q 39.203125 64.796875 32.078125 64.796875 
z
" id="DejaVuSans-82"/>
    </defs>
    <g transform="translate(375.22944 104.863611)scale(0.17 -0.17)">
     <use xlink:href="#DejaVuSans-99"/>
     <use x="54.980469" xlink:href="#DejaVuSans-104"/>
     <use x="118.359375" xlink:href="#DejaVuSans-118"/>
     <use x="177.539062" xlink:href="#DejaVuSans-80"/>
     <use x="237.841797" xlink:href="#DejaVuSans-108"/>
     <use x="265.625" xlink:href="#DejaVuSans-117"/>
     <use x="329.003906" xlink:href="#DejaVuSans-115"/>
     <use x="381.103516" xlink:href="#DejaVuSans-82"/>
     <use x="450.554688" xlink:href="#DejaVuSans-97"/>
    </g>
   </g>
   <g id="text_17">
    <!-- best 2016 -->
    <g transform="translate(375.22944 40.397235)scale(0.17 -0.17)">
     <use xlink:href="#DejaVuSans-98"/>
     <use x="63.476562" xlink:href="#DejaVuSans-101"/>
     <use x="125" xlink:href="#DejaVuSans-115"/>
     <use x="177.099609" xlink:href="#DejaVuSans-116"/>
     <use x="216.308594" xlink:href="#DejaVuSans-32"/>
     <use x="248.095703" xlink:href="#DejaVuSans-50"/>
     <use x="311.71875" xlink:href="#DejaVuSans-48"/>
     <use x="375.341797" xlink:href="#DejaVuSans-49"/>
     <use x="438.964844" xlink:href="#DejaVuSans-54"/>
    </g>
   </g>
   <g id="text_18">
    <!-- bbob-biobj f13, 5-D -->
    <defs>
     <path d="M 9.421875 54.6875 
L 18.40625 54.6875 
L 18.40625 -0.984375 
Q 18.40625 -11.421875 14.421875 -16.109375 
Q 10.453125 -20.796875 1.609375 -20.796875 
L -1.8125 -20.796875 
L -1.8125 -13.1875 
L 0.59375 -13.1875 
Q 5.71875 -13.1875 7.5625 -10.8125 
Q 9.421875 -8.453125 9.421875 -0.984375 
z
M 9.421875 75.984375 
L 18.40625 75.984375 
L 18.40625 64.59375 
L 9.421875 64.59375 
z
" id="DejaVuSans-106"/>
     <path d="M 10.796875 72.90625 
L 49.515625 72.90625 
L 49.515625 64.59375 
L 19.828125 64.59375 
L 19.828125 46.734375 
Q 21.96875 47.46875 24.109375 47.828125 
Q 26.265625 48.1875 28.421875 48.1875 
Q 40.625 48.1875 47.75 41.5 
Q 54.890625 34.8125 54.890625 23.390625 
Q 54.890625 11.625 47.5625 5.09375 
Q 40.234375 -1.421875 26.90625 -1.421875 
Q 22.3125 -1.421875 17.546875 -0.640625 
Q 12.796875 0.140625 7.71875 1.703125 
L 7.71875 11.625 
Q 12.109375 9.234375 16.796875 8.0625 
Q 21.484375 6.890625 26.703125 6.890625 
Q 35.15625 6.890625 40.078125 11.328125 
Q 45.015625 15.765625 45.015625 23.390625 
Q 45.015625 31 40.078125 35.4375 
Q 35.15625 39.890625 26.703125 39.890625 
Q 22.75 39.890625 18.8125 39.015625 
Q 14.890625 38.140625 10.796875 36.28125 
z
" id="DejaVuSans-53"/>
     <path d="M 19.671875 64.796875 
L 19.671875 8.109375 
L 31.59375 8.109375 
Q 46.6875 8.109375 53.6875 14.9375 
Q 60.6875 21.78125 60.6875 36.53125 
Q 60.6875 51.171875 53.6875 57.984375 
Q 46.6875 64.796875 31.59375 64.796875 
z
M 9.8125 72.90625 
L 30.078125 72.90625 
Q 51.265625 72.90625 61.171875 64.09375 
Q 71.09375 55.28125 71.09375 36.53125 
Q 71.09375 17.671875 61.125 8.828125 
Q 51.171875 0 30.078125 0 
L 9.8125 0 
z
" id="DejaVuSans-68"/>
    </defs>
    <g transform="translate(60.41088 38.111366)scale(0.102 -0.102)">
     <use xlink:href="#DejaVuSans-98"/>
     <use x="63.476562" xlink:href="#DejaVuSans-98"/>
     <use x="126.953125" xlink:href="#DejaVuSans-111"/>
     <use x="188.134766" xlink:href="#DejaVuSans-98"/>
     <use x="251.611328" xlink:href="#DejaVuSans-45"/>
     <use x="287.695312" xlink:href="#DejaVuSans-98"/>
     <use x="351.171875" xlink:href="#DejaVuSans-105"/>
     <use x="378.955078" xlink:href="#DejaVuSans-111"/>
     <use x="440.136719" xlink:href="#DejaVuSans-98"/>
     <use x="503.613281" xlink:href="#DejaVuSans-106"/>
     <use x="531.396484" xlink:href="#DejaVuSans-32"/>
     <use x="563.183594" xlink:href="#DejaVuSans-102"/>
     <use x="598.388672" xlink:href="#DejaVuSans-49"/>
     <use x="662.011719" xlink:href="#DejaVuSans-51"/>
     <use x="725.634766" xlink:href="#DejaVuSans-44"/>
     <use x="757.421875" xlink:href="#DejaVuSans-32"/>
     <use x="789.208984" xlink:href="#DejaVuSans-53"/>
     <use x="852.832031" xlink:href="#DejaVuSans-45"/>
     <use x="888.916016" xlink:href="#DejaVuSans-68"/>
    </g>
    <!-- 58 targets: 1..-1.0e-4 -->
    <defs>
     <path d="M 11.71875 12.40625 
L 22.015625 12.40625 
L 22.015625 0 
L 11.71875 0 
z
M 11.71875 51.703125 
L 22.015625 51.703125 
L 22.015625 39.3125 
L 11.71875 39.3125 
z
" id="DejaVuSans-58"/>
    </defs>
    <g transform="translate(60.41088 49.533135)scale(0.102 -0.102)">
     <use xlink:href="#DejaVuSans-53"/>
     <use x="63.623047" xlink:href="#DejaVuSans-56"/>
     <use x="127.246094" xlink:href="#DejaVuSans-32"/>
     <use x="159.033203" xlink:href="#DejaVuSans-116"/>
     <use x="198.242188" xlink:href="#DejaVuSans-97"/>
     <use x="259.521484" xlink:href="#DejaVuSans-114"/>
     <use x="300.619141" xlink:href="#DejaVuSans-103"/>
     <use x="364.095703" xlink:href="#DejaVuSans-101"/>
     <use x="425.619141" xlink:href="#DejaVuSans-116"/>
     <use x="464.828125" xlink:href="#DejaVuSans-115"/>
     <use x="516.927734" xlink:href="#DejaVuSans-58"/>
     <use x="550.619141" xlink:href="#DejaVuSans-32"/>
     <use x="582.40625" xlink:href="#DejaVuSans-49"/>
     <use x="646.029297" xlink:href="#DejaVuSans-46"/>
     <use x="677.816406" xlink:href="#DejaVuSans-46"/>
     <use x="709.603516" xlink:href="#DejaVuSans-45"/>
     <use x="745.6875" xlink:href="#DejaVuSans-49"/>
     <use x="809.310547" xlink:href="#DejaVuSans-46"/>
     <use x="841.097656" xlink:href="#DejaVuSans-48"/>
     <use x="904.720703" xlink:href="#DejaVuSans-101"/>
     <use x="966.244141" xlink:href="#DejaVuSans-45"/>
     <use x="1002.328125" xlink:href="#DejaVuSans-52"/>
    </g>
    <!-- 10, 5 instances -->
    <g transform="translate(60.41088 60.954904)scale(0.102 -0.102)">
     <use xlink:href="#DejaVuSans-49"/>
     <use x="63.623047" xlink:href="#DejaVuSans-48"/>
     <use x="127.246094" xlink:href="#DejaVuSans-44"/>
     <use x="159.033203" xlink:href="#DejaVuSans-32"/>
     <use x="190.820312" xlink:href="#DejaVuSans-53"/>
     <use x="254.443359" xlink:href="#DejaVuSans-32"/>
     <use x="286.230469" xlink:href="#DejaVuSans-105"/>
     <use x="314.013672" xlink:href="#DejaVuSans-110"/>
     <use x="377.392578" xlink:href="#DejaVuSans-115"/>
     <use x="429.492188" xlink:href="#DejaVuSans-116"/>
     <use x="468.701172" xlink:href="#DejaVuSans-97"/>
     <use x="529.980469" xlink:href="#DejaVuSans-110"/>
     <use x="593.359375" xlink:href="#DejaVuSans-99"/>
     <use x="648.339844" xlink:href="#DejaVuSans-101"/>
     <use x="709.863281" xlink:href="#DejaVuSans-115"/>
    </g>
   </g>
   <g id="text_19">
    <!-- v2.3.1.83 -->
    <g style="fill:#808080;" transform="translate(174.511187 294.151352)scale(0.1 -0.1)">
     <use xlink:href="#DejaVuSans-118"/>
     <use x="59.179688" xlink:href="#DejaVuSans-50"/>
     <use x="122.802734" xlink:href="#DejaVuSans-46"/>
     <use x="154.589844" xlink:href="#DejaVuSans-51"/>
     <use x="218.212891" xlink:href="#DejaVuSans-46"/>
     <use x="250" xlink:href="#DejaVuSans-49"/>
     <use x="313.623047" xlink:href="#DejaVuSans-46"/>
     <use x="345.410156" xlink:href="#DejaVuSans-56"/>
     <use x="409.033203" xlink:href="#DejaVuSans-51"/>
    </g>
   </g>
   <g id="text_20">
    <!-- 13 sep. Ellipsoid/Rosenbrock -->
    <defs>
     <path d="M 9.8125 72.90625 
L 55.90625 72.90625 
L 55.90625 64.59375 
L 19.671875 64.59375 
L 19.671875 43.015625 
L 54.390625 43.015625 
L 54.390625 34.71875 
L 19.671875 34.71875 
L 19.671875 8.296875 
L 56.78125 8.296875 
L 56.78125 0 
L 9.8125 0 
z
" id="DejaVuSans-69"/>
     <path d="M 9.078125 75.984375 
L 18.109375 75.984375 
L 18.109375 31.109375 
L 44.921875 54.6875 
L 56.390625 54.6875 
L 27.390625 29.109375 
L 57.625 0 
L 45.90625 0 
L 18.109375 26.703125 
L 18.109375 0 
L 9.078125 0 
z
" id="DejaVuSans-107"/>
    </defs>
    <g transform="translate(54.723687 21.648)scale(0.2 -0.2)">
     <use xlink:href="#DejaVuSans-49"/>
     <use x="63.623047" xlink:href="#DejaVuSans-51"/>
     <use x="127.246094" xlink:href="#DejaVuSans-32"/>
     <use x="159.033203" xlink:href="#DejaVuSans-115"/>
     <use x="211.132812" xlink:href="#DejaVuSans-101"/>
     <use x="272.65625" xlink:href="#DejaVuSans-112"/>
     <use x="336.132812" xlink:href="#DejaVuSans-46"/>
     <use x="367.919922" xlink:href="#DejaVuSans-32"/>
     <use x="399.707031" xlink:href="#DejaVuSans-69"/>
     <use x="462.890625" xlink:href="#DejaVuSans-108"/>
     <use x="490.673828" xlink:href="#DejaVuSans-108"/>
     <use x="518.457031" xlink:href="#DejaVuSans-105"/>
     <use x="546.240234" xlink:href="#DejaVuSans-112"/>
     <use x="609.716797" xlink:href="#DejaVuSans-115"/>
     <use x="661.816406" xlink:href="#DejaVuSans-111"/>
     <use x="722.998047" xlink:href="#DejaVuSans-105"/>
     <use x="750.78125" xlink:href="#DejaVuSans-100"/>
     <use x="814.257812" xlink:href="#DejaVuSans-47"/>
     <use x="847.949219" xlink:href="#DejaVuSans-82"/>
     <use x="917.369141" xlink:href="#DejaVuSans-111"/>
     <use x="978.550781" xlink:href="#DejaVuSans-115"/>
     <use x="1030.650391" xlink:href="#DejaVuSans-101"/>
     <use x="1092.173828" xlink:href="#DejaVuSans-110"/>
     <use x="1155.552734" xlink:href="#DejaVuSans-98"/>
     <use x="1219.029297" xlink:href="#DejaVuSans-114"/>
     <use x="1260.111328" xlink:href="#DejaVuSans-111"/>
     <use x="1321.292969" xlink:href="#DejaVuSans-99"/>
     <use x="1376.273438" xlink:href="#DejaVuSans-107"/>
    </g>
   </g>
  </g>
 </g>
 <defs>
  <clipPath id="p5206d468d0">
   <rect height="271.296" width="281.088" x="57.6" y="27.648"/>
  </clipPath>
 </defs>
</svg>
