<?xml version="1.0" encoding="utf-8" standalone="no"?>
<!DOCTYPE svg PUBLIC "-//W3C//DTD SVG 1.1//EN"
  "http://www.w3.org/Graphics/SVG/1.1/DTD/svg11.dtd">
<!-- Created with matplotlib (https://matplotlib.org/) -->
<svg height="345.6pt" version="1.1" viewBox="0 0 460.8 345.6" width="460.8pt" xmlns="http://www.w3.org/2000/svg" xmlns:xlink="http://www.w3.org/1999/xlink">
 <defs>
  <style type="text/css">
*{stroke-linecap:butt;stroke-linejoin:round;}
  </style>
 </defs>
 <g id="figure_1">
  <g id="patch_1">
   <path d="M 0 345.6 
L 460.8 345.6 
L 460.8 0 
L 0 0 
z
" style="fill:#ffffff;"/>
  </g>
  <g id="axes_1">
   <g id="patch_2">
    <path d="M 57.6 298.944 
L 338.688 298.944 
L 338.688 27.648 
L 57.6 27.648 
z
" style="fill:#ffffff;"/>
   </g>
   <g id="line2d_1">
    <path d="M 53.708537 298.944 
L 53.708537 294.312795 
L 79.938565 294.312795 
L 79.938565 285.050384 
L 86.351421 285.050384 
L 86.351421 275.787974 
L 101.785851 275.787974 
L 101.785851 271.156769 
L 104.826449 271.156769 
L 104.826449 257.263153 
L 109.131511 257.263153 
L 109.131511 248.000743 
L 117.373392 248.000743 
L 117.373392 243.369538 
L 123.751369 243.369538 
L 123.751369 234.107127 
L 127.674226 234.107127 
L 127.674226 220.213512 
L 133.622529 220.213512 
L 133.622529 210.951101 
L 138.628343 210.951101 
L 138.628343 201.688691 
L 142.486301 201.688691 
L 142.486301 192.426281 
L 146.895853 192.426281 
L 146.895853 187.795075 
L 151.21133 187.795075 
L 151.21133 173.90146 
L 155.966049 173.90146 
L 155.966049 169.270255 
L 161.96433 169.270255 
L 161.96433 155.376639 
L 167.911015 155.376639 
L 167.911015 146.114229 
L 174.218366 146.114229 
L 174.218366 141.483024 
L 188.118089 141.483024 
L 188.118089 127.589408 
L 196.235057 127.589408 
L 196.235057 122.958203 
L 203.925002 122.958203 
L 203.925002 109.064587 
L 214.63794 109.064587 
L 214.63794 99.802177 
L 225.335466 99.802177 
L 225.335466 90.539766 
L 240.467703 90.539766 
L 240.467703 85.908561 
L 253.698313 85.908561 
L 253.698313 76.646151 
L 262.932641 76.646151 
L 262.932641 62.752535 
L 338.688 62.752535 
" style="fill:none;stroke:#f5deb3;stroke-linecap:square;stroke-width:4;"/>
   </g>
   <g id="line2d_2">
    <defs>
     <path d="M 0 7.778175 
L 7.778175 0 
L 0 -7.778175 
L -7.778175 0 
z
" id="meee5ce3dfc" style="stroke:#f5deb3;stroke-linejoin:miter;stroke-width:1.5;"/>
    </defs>
    <g>
     <use style="fill:#f5deb3;stroke:#f5deb3;stroke-linejoin:miter;stroke-width:1.5;" x="104.826449" xlink:href="#meee5ce3dfc" y="271.156769"/>
     <use style="fill:#f5deb3;stroke:#f5deb3;stroke-linejoin:miter;stroke-width:1.5;" x="151.21133" xlink:href="#meee5ce3dfc" y="187.795075"/>
     <use style="fill:#f5deb3;stroke:#f5deb3;stroke-linejoin:miter;stroke-width:1.5;" x="196.235057" xlink:href="#meee5ce3dfc" y="122.958203"/>
     <use style="fill:#f5deb3;stroke:#f5deb3;stroke-linejoin:miter;stroke-width:1.5;" x="262.932641" xlink:href="#meee5ce3dfc" y="76.646151"/>
     <use style="fill:#f5deb3;stroke:#f5deb3;stroke-linejoin:miter;stroke-width:1.5;" x="262.932641" xlink:href="#meee5ce3dfc" y="62.752535"/>
     <use style="fill:#f5deb3;stroke:#f5deb3;stroke-linejoin:miter;stroke-width:1.5;" x="338.688" xlink:href="#meee5ce3dfc" y="62.752535"/>
    </g>
   </g>
   <g id="line2d_3">
    <path style="fill:none;stroke:#f5deb3;stroke-linecap:square;stroke-width:4;"/>
    <g/>
   </g>
   <g id="line2d_4">
    <path d="M 338.688 62.752535 
L 369.60768 35.706297 
" style="fill:none;stroke:#f5deb3;stroke-linecap:square;stroke-width:4;"/>
    <g>
     <use style="fill:#f5deb3;stroke:#f5deb3;stroke-linejoin:miter;stroke-width:1.5;" x="338.688" xlink:href="#meee5ce3dfc" y="62.752535"/>
     <use style="fill:#f5deb3;stroke:#f5deb3;stroke-linejoin:miter;stroke-width:1.5;" x="369.60768" xlink:href="#meee5ce3dfc" y="35.706297"/>
    </g>
   </g>
   <g id="matplotlib.axis_1">
    <g id="xtick_1">
     <g id="line2d_5">
      <path clip-path="url(#p0f600aa83d)" d="M 57.6 298.944 
L 57.6 27.648 
" style="fill:none;stroke:#b0b0b0;stroke-linecap:square;stroke-width:0.8;"/>
     </g>
     <g id="line2d_6">
      <defs>
       <path d="M 0 0 
L 0 3.5 
" id="m0e78d464a8" style="stroke:#000000;stroke-width:0.8;"/>
      </defs>
      <g>
       <use style="stroke:#000000;stroke-width:0.8;" x="57.6" xlink:href="#m0e78d464a8" y="298.944"/>
      </g>
     </g>
     <g id="text_1">
      <!-- 0 -->
      <defs>
       <path d="M 31.78125 66.40625 
Q 24.171875 66.40625 20.328125 58.90625 
Q 16.5 51.421875 16.5 36.375 
Q 16.5 21.390625 20.328125 13.890625 
Q 24.171875 6.390625 31.78125 6.390625 
Q 39.453125 6.390625 43.28125 13.890625 
Q 47.125 21.390625 47.125 36.375 
Q 47.125 51.421875 43.28125 58.90625 
Q 39.453125 66.40625 31.78125 66.40625 
z
M 31.78125 74.21875 
Q 44.046875 74.21875 50.515625 64.515625 
Q 56.984375 54.828125 56.984375 36.375 
Q 56.984375 17.96875 50.515625 8.265625 
Q 44.046875 -1.421875 31.78125 -1.421875 
Q 19.53125 -1.421875 13.0625 8.265625 
Q 6.59375 17.96875 6.59375 36.375 
Q 6.59375 54.828125 13.0625 64.515625 
Q 19.53125 74.21875 31.78125 74.21875 
z
" id="DejaVuSans-48"/>
      </defs>
      <g transform="translate(51.2375 321.140875)scale(0.2 -0.2)">
       <use xlink:href="#DejaVuSans-48"/>
      </g>
     </g>
    </g>
    <g id="xtick_2">
     <g id="line2d_7">
      <path clip-path="url(#p0f600aa83d)" d="M 137.910857 298.944 
L 137.910857 27.648 
" style="fill:none;stroke:#b0b0b0;stroke-linecap:square;stroke-width:0.8;"/>
     </g>
     <g id="line2d_8">
      <g>
       <use style="stroke:#000000;stroke-width:0.8;" x="137.910857" xlink:href="#m0e78d464a8" y="298.944"/>
      </g>
     </g>
     <g id="text_2">
      <!-- 2 -->
      <defs>
       <path d="M 19.1875 8.296875 
L 53.609375 8.296875 
L 53.609375 0 
L 7.328125 0 
L 7.328125 8.296875 
Q 12.9375 14.109375 22.625 23.890625 
Q 32.328125 33.6875 34.8125 36.53125 
Q 39.546875 41.84375 41.421875 45.53125 
Q 43.3125 49.21875 43.3125 52.78125 
Q 43.3125 58.59375 39.234375 62.25 
Q 35.15625 65.921875 28.609375 65.921875 
Q 23.96875 65.921875 18.8125 64.3125 
Q 13.671875 62.703125 7.8125 59.421875 
L 7.8125 69.390625 
Q 13.765625 71.78125 18.9375 73 
Q 24.125 74.21875 28.421875 74.21875 
Q 39.75 74.21875 46.484375 68.546875 
Q 53.21875 62.890625 53.21875 53.421875 
Q 53.21875 48.921875 51.53125 44.890625 
Q 49.859375 40.875 45.40625 35.40625 
Q 44.1875 33.984375 37.640625 27.21875 
Q 31.109375 20.453125 19.1875 8.296875 
z
" id="DejaVuSans-50"/>
      </defs>
      <g transform="translate(131.548357 321.140875)scale(0.2 -0.2)">
       <use xlink:href="#DejaVuSans-50"/>
      </g>
     </g>
    </g>
    <g id="xtick_3">
     <g id="line2d_9">
      <path clip-path="url(#p0f600aa83d)" d="M 218.221714 298.944 
L 218.221714 27.648 
" style="fill:none;stroke:#b0b0b0;stroke-linecap:square;stroke-width:0.8;"/>
     </g>
     <g id="line2d_10">
      <g>
       <use style="stroke:#000000;stroke-width:0.8;" x="218.221714" xlink:href="#m0e78d464a8" y="298.944"/>
      </g>
     </g>
     <g id="text_3">
      <!-- 4 -->
      <defs>
       <path d="M 37.796875 64.3125 
L 12.890625 25.390625 
L 37.796875 25.390625 
z
M 35.203125 72.90625 
L 47.609375 72.90625 
L 47.609375 25.390625 
L 58.015625 25.390625 
L 58.015625 17.1875 
L 47.609375 17.1875 
L 47.609375 0 
L 37.796875 0 
L 37.796875 17.1875 
L 4.890625 17.1875 
L 4.890625 26.703125 
z
" id="DejaVuSans-52"/>
      </defs>
      <g transform="translate(211.859214 321.140875)scale(0.2 -0.2)">
       <use xlink:href="#DejaVuSans-52"/>
      </g>
     </g>
    </g>
    <g id="xtick_4">
     <g id="line2d_11">
      <path clip-path="url(#p0f600aa83d)" d="M 298.532571 298.944 
L 298.532571 27.648 
" style="fill:none;stroke:#b0b0b0;stroke-linecap:square;stroke-width:0.8;"/>
     </g>
     <g id="line2d_12">
      <g>
       <use style="stroke:#000000;stroke-width:0.8;" x="298.532571" xlink:href="#m0e78d464a8" y="298.944"/>
      </g>
     </g>
     <g id="text_4">
      <!-- 6 -->
      <defs>
       <path d="M 33.015625 40.375 
Q 26.375 40.375 22.484375 35.828125 
Q 18.609375 31.296875 18.609375 23.390625 
Q 18.609375 15.53125 22.484375 10.953125 
Q 26.375 6.390625 33.015625 6.390625 
Q 39.65625 6.390625 43.53125 10.953125 
Q 47.40625 15.53125 47.40625 23.390625 
Q 47.40625 31.296875 43.53125 35.828125 
Q 39.65625 40.375 33.015625 40.375 
z
M 52.59375 71.296875 
L 52.59375 62.3125 
Q 48.875 64.0625 45.09375 64.984375 
Q 41.3125 65.921875 37.59375 65.921875 
Q 27.828125 65.921875 22.671875 59.328125 
Q 17.53125 52.734375 16.796875 39.40625 
Q 19.671875 43.65625 24.015625 45.921875 
Q 28.375 48.1875 33.59375 48.1875 
Q 44.578125 48.1875 50.953125 41.515625 
Q 57.328125 34.859375 57.328125 23.390625 
Q 57.328125 12.15625 50.6875 5.359375 
Q 44.046875 -1.421875 33.015625 -1.421875 
Q 20.359375 -1.421875 13.671875 8.265625 
Q 6.984375 17.96875 6.984375 36.375 
Q 6.984375 53.65625 15.1875 63.9375 
Q 23.390625 74.21875 37.203125 74.21875 
Q 40.921875 74.21875 44.703125 73.484375 
Q 48.484375 72.75 52.59375 71.296875 
z
" id="DejaVuSans-54"/>
      </defs>
      <g transform="translate(292.170071 321.140875)scale(0.2 -0.2)">
       <use xlink:href="#DejaVuSans-54"/>
      </g>
     </g>
    </g>
    <g id="xtick_5">
     <g id="line2d_13">
      <path clip-path="url(#p0f600aa83d)" d="M 97.755429 298.944 
L 97.755429 27.648 
" style="fill:none;stroke:#b0b0b0;stroke-linecap:square;stroke-width:0.8;"/>
     </g>
     <g id="line2d_14">
      <defs>
       <path d="M 0 0 
L 0 2 
" id="mf219cff0b7" style="stroke:#000000;stroke-width:0.6;"/>
      </defs>
      <g>
       <use style="stroke:#000000;stroke-width:0.6;" x="97.755429" xlink:href="#mf219cff0b7" y="298.944"/>
      </g>
     </g>
    </g>
    <g id="xtick_6">
     <g id="line2d_15">
      <path clip-path="url(#p0f600aa83d)" d="M 178.066286 298.944 
L 178.066286 27.648 
" style="fill:none;stroke:#b0b0b0;stroke-linecap:square;stroke-width:0.8;"/>
     </g>
     <g id="line2d_16">
      <g>
       <use style="stroke:#000000;stroke-width:0.6;" x="178.066286" xlink:href="#mf219cff0b7" y="298.944"/>
      </g>
     </g>
    </g>
    <g id="xtick_7">
     <g id="line2d_17">
      <path clip-path="url(#p0f600aa83d)" d="M 258.377143 298.944 
L 258.377143 27.648 
" style="fill:none;stroke:#b0b0b0;stroke-linecap:square;stroke-width:0.8;"/>
     </g>
     <g id="line2d_18">
      <g>
       <use style="stroke:#000000;stroke-width:0.6;" x="258.377143" xlink:href="#mf219cff0b7" y="298.944"/>
      </g>
     </g>
    </g>
    <g id="xtick_8">
     <g id="line2d_19">
      <path clip-path="url(#p0f600aa83d)" d="M 338.688 298.944 
L 338.688 27.648 
" style="fill:none;stroke:#b0b0b0;stroke-linecap:square;stroke-width:0.8;"/>
     </g>
     <g id="line2d_20">
      <g>
       <use style="stroke:#000000;stroke-width:0.6;" x="338.688" xlink:href="#mf219cff0b7" y="298.944"/>
      </g>
     </g>
    </g>
    <g id="text_5">
     <!-- log10(# f-evals / dimension) -->
     <defs>
      <path d="M 9.421875 75.984375 
L 18.40625 75.984375 
L 18.40625 0 
L 9.421875 0 
z
" id="DejaVuSans-108"/>
      <path d="M 30.609375 48.390625 
Q 23.390625 48.390625 19.1875 42.75 
Q 14.984375 37.109375 14.984375 27.296875 
Q 14.984375 17.484375 19.15625 11.84375 
Q 23.34375 6.203125 30.609375 6.203125 
Q 37.796875 6.203125 41.984375 11.859375 
Q 46.1875 17.53125 46.1875 27.296875 
Q 46.1875 37.015625 41.984375 42.703125 
Q 37.796875 48.390625 30.609375 48.390625 
z
M 30.609375 56 
Q 42.328125 56 49.015625 48.375 
Q 55.71875 40.765625 55.71875 27.296875 
Q 55.71875 13.875 49.015625 6.21875 
Q 42.328125 -1.421875 30.609375 -1.421875 
Q 18.84375 -1.421875 12.171875 6.21875 
Q 5.515625 13.875 5.515625 27.296875 
Q 5.515625 40.765625 12.171875 48.375 
Q 18.84375 56 30.609375 56 
z
" id="DejaVuSans-111"/>
      <path d="M 45.40625 27.984375 
Q 45.40625 37.75 41.375 43.109375 
Q 37.359375 48.484375 30.078125 48.484375 
Q 22.859375 48.484375 18.828125 43.109375 
Q 14.796875 37.75 14.796875 27.984375 
Q 14.796875 18.265625 18.828125 12.890625 
Q 22.859375 7.515625 30.078125 7.515625 
Q 37.359375 7.515625 41.375 12.890625 
Q 45.40625 18.265625 45.40625 27.984375 
z
M 54.390625 6.78125 
Q 54.390625 -7.171875 48.1875 -13.984375 
Q 42 -20.796875 29.203125 -20.796875 
Q 24.46875 -20.796875 20.265625 -20.09375 
Q 16.0625 -19.390625 12.109375 -17.921875 
L 12.109375 -9.1875 
Q 16.0625 -11.328125 19.921875 -12.34375 
Q 23.78125 -13.375 27.78125 -13.375 
Q 36.625 -13.375 41.015625 -8.765625 
Q 45.40625 -4.15625 45.40625 5.171875 
L 45.40625 9.625 
Q 42.625 4.78125 38.28125 2.390625 
Q 33.9375 0 27.875 0 
Q 17.828125 0 11.671875 7.65625 
Q 5.515625 15.328125 5.515625 27.984375 
Q 5.515625 40.671875 11.671875 48.328125 
Q 17.828125 56 27.875 56 
Q 33.9375 56 38.28125 53.609375 
Q 42.625 51.21875 45.40625 46.390625 
L 45.40625 54.6875 
L 54.390625 54.6875 
z
" id="DejaVuSans-103"/>
      <path d="M 12.40625 8.296875 
L 28.515625 8.296875 
L 28.515625 63.921875 
L 10.984375 60.40625 
L 10.984375 69.390625 
L 28.421875 72.90625 
L 38.28125 72.90625 
L 38.28125 8.296875 
L 54.390625 8.296875 
L 54.390625 0 
L 12.40625 0 
z
" id="DejaVuSans-49"/>
      <path d="M 31 75.875 
Q 24.46875 64.65625 21.28125 53.65625 
Q 18.109375 42.671875 18.109375 31.390625 
Q 18.109375 20.125 21.3125 9.0625 
Q 24.515625 -2 31 -13.1875 
L 23.1875 -13.1875 
Q 15.875 -1.703125 12.234375 9.375 
Q 8.59375 20.453125 8.59375 31.390625 
Q 8.59375 42.28125 12.203125 53.3125 
Q 15.828125 64.359375 23.1875 75.875 
z
" id="DejaVuSans-40"/>
      <path d="M 51.125 44 
L 36.921875 44 
L 32.8125 27.6875 
L 47.125 27.6875 
z
M 43.796875 71.78125 
L 38.71875 51.515625 
L 52.984375 51.515625 
L 58.109375 71.78125 
L 65.921875 71.78125 
L 60.890625 51.515625 
L 76.125 51.515625 
L 76.125 44 
L 58.984375 44 
L 54.984375 27.6875 
L 70.515625 27.6875 
L 70.515625 20.21875 
L 53.078125 20.21875 
L 48 0 
L 40.1875 0 
L 45.21875 20.21875 
L 30.90625 20.21875 
L 25.875 0 
L 18.015625 0 
L 23.09375 20.21875 
L 7.71875 20.21875 
L 7.71875 27.6875 
L 24.90625 27.6875 
L 29 44 
L 13.28125 44 
L 13.28125 51.515625 
L 30.90625 51.515625 
L 35.890625 71.78125 
z
" id="DejaVuSans-35"/>
      <path id="DejaVuSans-32"/>
      <path d="M 37.109375 75.984375 
L 37.109375 68.5 
L 28.515625 68.5 
Q 23.6875 68.5 21.796875 66.546875 
Q 19.921875 64.59375 19.921875 59.515625 
L 19.921875 54.6875 
L 34.71875 54.6875 
L 34.71875 47.703125 
L 19.921875 47.703125 
L 19.921875 0 
L 10.890625 0 
L 10.890625 47.703125 
L 2.296875 47.703125 
L 2.296875 54.6875 
L 10.890625 54.6875 
L 10.890625 58.5 
Q 10.890625 67.625 15.140625 71.796875 
Q 19.390625 75.984375 28.609375 75.984375 
z
" id="DejaVuSans-102"/>
      <path d="M 4.890625 31.390625 
L 31.203125 31.390625 
L 31.203125 23.390625 
L 4.890625 23.390625 
z
" id="DejaVuSans-45"/>
      <path d="M 56.203125 29.59375 
L 56.203125 25.203125 
L 14.890625 25.203125 
Q 15.484375 15.921875 20.484375 11.0625 
Q 25.484375 6.203125 34.421875 6.203125 
Q 39.59375 6.203125 44.453125 7.46875 
Q 49.3125 8.734375 54.109375 11.28125 
L 54.109375 2.78125 
Q 49.265625 0.734375 44.1875 -0.34375 
Q 39.109375 -1.421875 33.890625 -1.421875 
Q 20.796875 -1.421875 13.15625 6.1875 
Q 5.515625 13.8125 5.515625 26.8125 
Q 5.515625 40.234375 12.765625 48.109375 
Q 20.015625 56 32.328125 56 
Q 43.359375 56 49.78125 48.890625 
Q 56.203125 41.796875 56.203125 29.59375 
z
M 47.21875 32.234375 
Q 47.125 39.59375 43.09375 43.984375 
Q 39.0625 48.390625 32.421875 48.390625 
Q 24.90625 48.390625 20.390625 44.140625 
Q 15.875 39.890625 15.1875 32.171875 
z
" id="DejaVuSans-101"/>
      <path d="M 2.984375 54.6875 
L 12.5 54.6875 
L 29.59375 8.796875 
L 46.6875 54.6875 
L 56.203125 54.6875 
L 35.6875 0 
L 23.484375 0 
z
" id="DejaVuSans-118"/>
      <path d="M 34.28125 27.484375 
Q 23.390625 27.484375 19.1875 25 
Q 14.984375 22.515625 14.984375 16.5 
Q 14.984375 11.71875 18.140625 8.90625 
Q 21.296875 6.109375 26.703125 6.109375 
Q 34.1875 6.109375 38.703125 11.40625 
Q 43.21875 16.703125 43.21875 25.484375 
L 43.21875 27.484375 
z
M 52.203125 31.203125 
L 52.203125 0 
L 43.21875 0 
L 43.21875 8.296875 
Q 40.140625 3.328125 35.546875 0.953125 
Q 30.953125 -1.421875 24.3125 -1.421875 
Q 15.921875 -1.421875 10.953125 3.296875 
Q 6 8.015625 6 15.921875 
Q 6 25.140625 12.171875 29.828125 
Q 18.359375 34.515625 30.609375 34.515625 
L 43.21875 34.515625 
L 43.21875 35.40625 
Q 43.21875 41.609375 39.140625 45 
Q 35.0625 48.390625 27.6875 48.390625 
Q 23 48.390625 18.546875 47.265625 
Q 14.109375 46.140625 10.015625 43.890625 
L 10.015625 52.203125 
Q 14.9375 54.109375 19.578125 55.046875 
Q 24.21875 56 28.609375 56 
Q 40.484375 56 46.34375 49.84375 
Q 52.203125 43.703125 52.203125 31.203125 
z
" id="DejaVuSans-97"/>
      <path d="M 44.28125 53.078125 
L 44.28125 44.578125 
Q 40.484375 46.53125 36.375 47.5 
Q 32.28125 48.484375 27.875 48.484375 
Q 21.1875 48.484375 17.84375 46.4375 
Q 14.5 44.390625 14.5 40.28125 
Q 14.5 37.15625 16.890625 35.375 
Q 19.28125 33.59375 26.515625 31.984375 
L 29.59375 31.296875 
Q 39.15625 29.25 43.1875 25.515625 
Q 47.21875 21.78125 47.21875 15.09375 
Q 47.21875 7.46875 41.1875 3.015625 
Q 35.15625 -1.421875 24.609375 -1.421875 
Q 20.21875 -1.421875 15.453125 -0.5625 
Q 10.6875 0.296875 5.421875 2 
L 5.421875 11.28125 
Q 10.40625 8.6875 15.234375 7.390625 
Q 20.0625 6.109375 24.8125 6.109375 
Q 31.15625 6.109375 34.5625 8.28125 
Q 37.984375 10.453125 37.984375 14.40625 
Q 37.984375 18.0625 35.515625 20.015625 
Q 33.0625 21.96875 24.703125 23.78125 
L 21.578125 24.515625 
Q 13.234375 26.265625 9.515625 29.90625 
Q 5.8125 33.546875 5.8125 39.890625 
Q 5.8125 47.609375 11.28125 51.796875 
Q 16.75 56 26.8125 56 
Q 31.78125 56 36.171875 55.265625 
Q 40.578125 54.546875 44.28125 53.078125 
z
" id="DejaVuSans-115"/>
      <path d="M 25.390625 72.90625 
L 33.6875 72.90625 
L 8.296875 -9.28125 
L 0 -9.28125 
z
" id="DejaVuSans-47"/>
      <path d="M 45.40625 46.390625 
L 45.40625 75.984375 
L 54.390625 75.984375 
L 54.390625 0 
L 45.40625 0 
L 45.40625 8.203125 
Q 42.578125 3.328125 38.25 0.953125 
Q 33.9375 -1.421875 27.875 -1.421875 
Q 17.96875 -1.421875 11.734375 6.484375 
Q 5.515625 14.40625 5.515625 27.296875 
Q 5.515625 40.1875 11.734375 48.09375 
Q 17.96875 56 27.875 56 
Q 33.9375 56 38.25 53.625 
Q 42.578125 51.265625 45.40625 46.390625 
z
M 14.796875 27.296875 
Q 14.796875 17.390625 18.875 11.75 
Q 22.953125 6.109375 30.078125 6.109375 
Q 37.203125 6.109375 41.296875 11.75 
Q 45.40625 17.390625 45.40625 27.296875 
Q 45.40625 37.203125 41.296875 42.84375 
Q 37.203125 48.484375 30.078125 48.484375 
Q 22.953125 48.484375 18.875 42.84375 
Q 14.796875 37.203125 14.796875 27.296875 
z
" id="DejaVuSans-100"/>
      <path d="M 9.421875 54.6875 
L 18.40625 54.6875 
L 18.40625 0 
L 9.421875 0 
z
M 9.421875 75.984375 
L 18.40625 75.984375 
L 18.40625 64.59375 
L 9.421875 64.59375 
z
" id="DejaVuSans-105"/>
      <path d="M 52 44.1875 
Q 55.375 50.25 60.0625 53.125 
Q 64.75 56 71.09375 56 
Q 79.640625 56 84.28125 50.015625 
Q 88.921875 44.046875 88.921875 33.015625 
L 88.921875 0 
L 79.890625 0 
L 79.890625 32.71875 
Q 79.890625 40.578125 77.09375 44.375 
Q 74.3125 48.1875 68.609375 48.1875 
Q 61.625 48.1875 57.5625 43.546875 
Q 53.515625 38.921875 53.515625 30.90625 
L 53.515625 0 
L 44.484375 0 
L 44.484375 32.71875 
Q 44.484375 40.625 41.703125 44.40625 
Q 38.921875 48.1875 33.109375 48.1875 
Q 26.21875 48.1875 22.15625 43.53125 
Q 18.109375 38.875 18.109375 30.90625 
L 18.109375 0 
L 9.078125 0 
L 9.078125 54.6875 
L 18.109375 54.6875 
L 18.109375 46.1875 
Q 21.1875 51.21875 25.484375 53.609375 
Q 29.78125 56 35.6875 56 
Q 41.65625 56 45.828125 52.96875 
Q 50 49.953125 52 44.1875 
z
" id="DejaVuSans-109"/>
      <path d="M 54.890625 33.015625 
L 54.890625 0 
L 45.90625 0 
L 45.90625 32.71875 
Q 45.90625 40.484375 42.875 44.328125 
Q 39.84375 48.1875 33.796875 48.1875 
Q 26.515625 48.1875 22.3125 43.546875 
Q 18.109375 38.921875 18.109375 30.90625 
L 18.109375 0 
L 9.078125 0 
L 9.078125 54.6875 
L 18.109375 54.6875 
L 18.109375 46.1875 
Q 21.34375 51.125 25.703125 53.5625 
Q 30.078125 56 35.796875 56 
Q 45.21875 56 50.046875 50.171875 
Q 54.890625 44.34375 54.890625 33.015625 
z
" id="DejaVuSans-110"/>
      <path d="M 8.015625 75.875 
L 15.828125 75.875 
Q 23.140625 64.359375 26.78125 53.3125 
Q 30.421875 42.28125 30.421875 31.390625 
Q 30.421875 20.453125 26.78125 9.375 
Q 23.140625 -1.703125 15.828125 -13.1875 
L 8.015625 -13.1875 
Q 14.5 -2 17.703125 9.0625 
Q 20.90625 20.125 20.90625 31.390625 
Q 20.90625 42.671875 17.703125 53.65625 
Q 14.5 64.65625 8.015625 75.875 
z
" id="DejaVuSans-41"/>
     </defs>
     <g transform="translate(77.303219 342.217594)scale(0.17 -0.17)">
      <use xlink:href="#DejaVuSans-108"/>
      <use x="27.783203" xlink:href="#DejaVuSans-111"/>
      <use x="88.964844" xlink:href="#DejaVuSans-103"/>
      <use x="152.441406" xlink:href="#DejaVuSans-49"/>
      <use x="216.064453" xlink:href="#DejaVuSans-48"/>
      <use x="279.6875" xlink:href="#DejaVuSans-40"/>
      <use x="318.701172" xlink:href="#DejaVuSans-35"/>
      <use x="402.490234" xlink:href="#DejaVuSans-32"/>
      <use x="434.277344" xlink:href="#DejaVuSans-102"/>
      <use x="469.404297" xlink:href="#DejaVuSans-45"/>
      <use x="505.488281" xlink:href="#DejaVuSans-101"/>
      <use x="567.011719" xlink:href="#DejaVuSans-118"/>
      <use x="626.191406" xlink:href="#DejaVuSans-97"/>
      <use x="687.470703" xlink:href="#DejaVuSans-108"/>
      <use x="715.253906" xlink:href="#DejaVuSans-115"/>
      <use x="767.353516" xlink:href="#DejaVuSans-32"/>
      <use x="799.140625" xlink:href="#DejaVuSans-47"/>
      <use x="832.832031" xlink:href="#DejaVuSans-32"/>
      <use x="864.619141" xlink:href="#DejaVuSans-100"/>
      <use x="928.095703" xlink:href="#DejaVuSans-105"/>
      <use x="955.878906" xlink:href="#DejaVuSans-109"/>
      <use x="1053.291016" xlink:href="#DejaVuSans-101"/>
      <use x="1114.814453" xlink:href="#DejaVuSans-110"/>
      <use x="1178.193359" xlink:href="#DejaVuSans-115"/>
      <use x="1230.292969" xlink:href="#DejaVuSans-105"/>
      <use x="1258.076172" xlink:href="#DejaVuSans-111"/>
      <use x="1319.257812" xlink:href="#DejaVuSans-110"/>
      <use x="1382.636719" xlink:href="#DejaVuSans-41"/>
     </g>
    </g>
   </g>
   <g id="matplotlib.axis_2">
    <g id="ytick_1">
     <g id="line2d_21">
      <path clip-path="url(#p0f600aa83d)" d="M 57.6 298.944 
L 338.688 298.944 
" style="fill:none;stroke:#b0b0b0;stroke-linecap:square;stroke-width:0.8;"/>
     </g>
     <g id="line2d_22">
      <defs>
       <path d="M 0 0 
L -3.5 0 
" id="mc31ea7159d" style="stroke:#000000;stroke-width:0.8;"/>
      </defs>
      <g>
       <use style="stroke:#000000;stroke-width:0.8;" x="57.6" xlink:href="#mc31ea7159d" y="298.944"/>
      </g>
     </g>
     <g id="text_6">
      <!-- 0.0 -->
      <defs>
       <path d="M 10.6875 12.40625 
L 21 12.40625 
L 21 0 
L 10.6875 0 
z
" id="DejaVuSans-46"/>
      </defs>
      <g transform="translate(25.155 305.02275)scale(0.16 -0.16)">
       <use xlink:href="#DejaVuSans-48"/>
       <use x="63.623047" xlink:href="#DejaVuSans-46"/>
       <use x="95.410156" xlink:href="#DejaVuSans-48"/>
      </g>
     </g>
    </g>
    <g id="ytick_2">
     <g id="line2d_23">
      <path clip-path="url(#p0f600aa83d)" d="M 57.6 245.22202 
L 338.688 245.22202 
" style="fill:none;stroke:#b0b0b0;stroke-linecap:square;stroke-width:0.8;"/>
     </g>
     <g id="line2d_24">
      <g>
       <use style="stroke:#000000;stroke-width:0.8;" x="57.6" xlink:href="#mc31ea7159d" y="245.22202"/>
      </g>
     </g>
     <g id="text_7">
      <!-- 0.2 -->
      <g transform="translate(25.155 251.30077)scale(0.16 -0.16)">
       <use xlink:href="#DejaVuSans-48"/>
       <use x="63.623047" xlink:href="#DejaVuSans-46"/>
       <use x="95.410156" xlink:href="#DejaVuSans-50"/>
      </g>
     </g>
    </g>
    <g id="ytick_3">
     <g id="line2d_25">
      <path clip-path="url(#p0f600aa83d)" d="M 57.6 191.50004 
L 338.688 191.50004 
" style="fill:none;stroke:#b0b0b0;stroke-linecap:square;stroke-width:0.8;"/>
     </g>
     <g id="line2d_26">
      <g>
       <use style="stroke:#000000;stroke-width:0.8;" x="57.6" xlink:href="#mc31ea7159d" y="191.50004"/>
      </g>
     </g>
     <g id="text_8">
      <!-- 0.4 -->
      <g transform="translate(25.155 197.57879)scale(0.16 -0.16)">
       <use xlink:href="#DejaVuSans-48"/>
       <use x="63.623047" xlink:href="#DejaVuSans-46"/>
       <use x="95.410156" xlink:href="#DejaVuSans-52"/>
      </g>
     </g>
    </g>
    <g id="ytick_4">
     <g id="line2d_27">
      <path clip-path="url(#p0f600aa83d)" d="M 57.6 137.778059 
L 338.688 137.778059 
" style="fill:none;stroke:#b0b0b0;stroke-linecap:square;stroke-width:0.8;"/>
     </g>
     <g id="line2d_28">
      <g>
       <use style="stroke:#000000;stroke-width:0.8;" x="57.6" xlink:href="#mc31ea7159d" y="137.778059"/>
      </g>
     </g>
     <g id="text_9">
      <!-- 0.6 -->
      <g transform="translate(25.155 143.856809)scale(0.16 -0.16)">
       <use xlink:href="#DejaVuSans-48"/>
       <use x="63.623047" xlink:href="#DejaVuSans-46"/>
       <use x="95.410156" xlink:href="#DejaVuSans-54"/>
      </g>
     </g>
    </g>
    <g id="ytick_5">
     <g id="line2d_29">
      <path clip-path="url(#p0f600aa83d)" d="M 57.6 84.056079 
L 338.688 84.056079 
" style="fill:none;stroke:#b0b0b0;stroke-linecap:square;stroke-width:0.8;"/>
     </g>
     <g id="line2d_30">
      <g>
       <use style="stroke:#000000;stroke-width:0.8;" x="57.6" xlink:href="#mc31ea7159d" y="84.056079"/>
      </g>
     </g>
     <g id="text_10">
      <!-- 0.8 -->
      <defs>
       <path d="M 31.78125 34.625 
Q 24.75 34.625 20.71875 30.859375 
Q 16.703125 27.09375 16.703125 20.515625 
Q 16.703125 13.921875 20.71875 10.15625 
Q 24.75 6.390625 31.78125 6.390625 
Q 38.8125 6.390625 42.859375 10.171875 
Q 46.921875 13.96875 46.921875 20.515625 
Q 46.921875 27.09375 42.890625 30.859375 
Q 38.875 34.625 31.78125 34.625 
z
M 21.921875 38.8125 
Q 15.578125 40.375 12.03125 44.71875 
Q 8.5 49.078125 8.5 55.328125 
Q 8.5 64.0625 14.71875 69.140625 
Q 20.953125 74.21875 31.78125 74.21875 
Q 42.671875 74.21875 48.875 69.140625 
Q 55.078125 64.0625 55.078125 55.328125 
Q 55.078125 49.078125 51.53125 44.71875 
Q 48 40.375 41.703125 38.8125 
Q 48.828125 37.15625 52.796875 32.3125 
Q 56.78125 27.484375 56.78125 20.515625 
Q 56.78125 9.90625 50.3125 4.234375 
Q 43.84375 -1.421875 31.78125 -1.421875 
Q 19.734375 -1.421875 13.25 4.234375 
Q 6.78125 9.90625 6.78125 20.515625 
Q 6.78125 27.484375 10.78125 32.3125 
Q 14.796875 37.15625 21.921875 38.8125 
z
M 18.3125 54.390625 
Q 18.3125 48.734375 21.84375 45.5625 
Q 25.390625 42.390625 31.78125 42.390625 
Q 38.140625 42.390625 41.71875 45.5625 
Q 45.3125 48.734375 45.3125 54.390625 
Q 45.3125 60.0625 41.71875 63.234375 
Q 38.140625 66.40625 31.78125 66.40625 
Q 25.390625 66.40625 21.84375 63.234375 
Q 18.3125 60.0625 18.3125 54.390625 
z
" id="DejaVuSans-56"/>
      </defs>
      <g transform="translate(25.155 90.134829)scale(0.16 -0.16)">
       <use xlink:href="#DejaVuSans-48"/>
       <use x="63.623047" xlink:href="#DejaVuSans-46"/>
       <use x="95.410156" xlink:href="#DejaVuSans-56"/>
      </g>
     </g>
    </g>
    <g id="ytick_6">
     <g id="line2d_31">
      <path clip-path="url(#p0f600aa83d)" d="M 57.6 30.334099 
L 338.688 30.334099 
" style="fill:none;stroke:#b0b0b0;stroke-linecap:square;stroke-width:0.8;"/>
     </g>
     <g id="line2d_32">
      <g>
       <use style="stroke:#000000;stroke-width:0.8;" x="57.6" xlink:href="#mc31ea7159d" y="30.334099"/>
      </g>
     </g>
     <g id="text_11">
      <!-- 1.0 -->
      <g transform="translate(25.155 36.412849)scale(0.16 -0.16)">
       <use xlink:href="#DejaVuSans-49"/>
       <use x="63.623047" xlink:href="#DejaVuSans-46"/>
       <use x="95.410156" xlink:href="#DejaVuSans-48"/>
      </g>
     </g>
    </g>
    <g id="text_12">
     <!-- Fraction of function,target pairs -->
     <defs>
      <path d="M 9.8125 72.90625 
L 51.703125 72.90625 
L 51.703125 64.59375 
L 19.671875 64.59375 
L 19.671875 43.109375 
L 48.578125 43.109375 
L 48.578125 34.8125 
L 19.671875 34.8125 
L 19.671875 0 
L 9.8125 0 
z
" id="DejaVuSans-70"/>
      <path d="M 41.109375 46.296875 
Q 39.59375 47.171875 37.8125 47.578125 
Q 36.03125 48 33.890625 48 
Q 26.265625 48 22.1875 43.046875 
Q 18.109375 38.09375 18.109375 28.8125 
L 18.109375 0 
L 9.078125 0 
L 9.078125 54.6875 
L 18.109375 54.6875 
L 18.109375 46.1875 
Q 20.953125 51.171875 25.484375 53.578125 
Q 30.03125 56 36.53125 56 
Q 37.453125 56 38.578125 55.875 
Q 39.703125 55.765625 41.0625 55.515625 
z
" id="DejaVuSans-114"/>
      <path d="M 48.78125 52.59375 
L 48.78125 44.1875 
Q 44.96875 46.296875 41.140625 47.34375 
Q 37.3125 48.390625 33.40625 48.390625 
Q 24.65625 48.390625 19.8125 42.84375 
Q 14.984375 37.3125 14.984375 27.296875 
Q 14.984375 17.28125 19.8125 11.734375 
Q 24.65625 6.203125 33.40625 6.203125 
Q 37.3125 6.203125 41.140625 7.25 
Q 44.96875 8.296875 48.78125 10.40625 
L 48.78125 2.09375 
Q 45.015625 0.34375 40.984375 -0.53125 
Q 36.96875 -1.421875 32.421875 -1.421875 
Q 20.0625 -1.421875 12.78125 6.34375 
Q 5.515625 14.109375 5.515625 27.296875 
Q 5.515625 40.671875 12.859375 48.328125 
Q 20.21875 56 33.015625 56 
Q 37.15625 56 41.109375 55.140625 
Q 45.0625 54.296875 48.78125 52.59375 
z
" id="DejaVuSans-99"/>
      <path d="M 18.3125 70.21875 
L 18.3125 54.6875 
L 36.8125 54.6875 
L 36.8125 47.703125 
L 18.3125 47.703125 
L 18.3125 18.015625 
Q 18.3125 11.328125 20.140625 9.421875 
Q 21.96875 7.515625 27.59375 7.515625 
L 36.8125 7.515625 
L 36.8125 0 
L 27.59375 0 
Q 17.1875 0 13.234375 3.875 
Q 9.28125 7.765625 9.28125 18.015625 
L 9.28125 47.703125 
L 2.6875 47.703125 
L 2.6875 54.6875 
L 9.28125 54.6875 
L 9.28125 70.21875 
z
" id="DejaVuSans-116"/>
      <path d="M 8.5 21.578125 
L 8.5 54.6875 
L 17.484375 54.6875 
L 17.484375 21.921875 
Q 17.484375 14.15625 20.5 10.265625 
Q 23.53125 6.390625 29.59375 6.390625 
Q 36.859375 6.390625 41.078125 11.03125 
Q 45.3125 15.671875 45.3125 23.6875 
L 45.3125 54.6875 
L 54.296875 54.6875 
L 54.296875 0 
L 45.3125 0 
L 45.3125 8.40625 
Q 42.046875 3.421875 37.71875 1 
Q 33.40625 -1.421875 27.6875 -1.421875 
Q 18.265625 -1.421875 13.375 4.4375 
Q 8.5 10.296875 8.5 21.578125 
z
M 31.109375 56 
z
" id="DejaVuSans-117"/>
      <path d="M 11.71875 12.40625 
L 22.015625 12.40625 
L 22.015625 4 
L 14.015625 -11.625 
L 7.71875 -11.625 
L 11.71875 4 
z
" id="DejaVuSans-44"/>
      <path d="M 18.109375 8.203125 
L 18.109375 -20.796875 
L 9.078125 -20.796875 
L 9.078125 54.6875 
L 18.109375 54.6875 
L 18.109375 46.390625 
Q 20.953125 51.265625 25.265625 53.625 
Q 29.59375 56 35.59375 56 
Q 45.5625 56 51.78125 48.09375 
Q 58.015625 40.1875 58.015625 27.296875 
Q 58.015625 14.40625 51.78125 6.484375 
Q 45.5625 -1.421875 35.59375 -1.421875 
Q 29.59375 -1.421875 25.265625 0.953125 
Q 20.953125 3.328125 18.109375 8.203125 
z
M 48.6875 27.296875 
Q 48.6875 37.203125 44.609375 42.84375 
Q 40.53125 48.484375 33.40625 48.484375 
Q 26.265625 48.484375 22.1875 42.84375 
Q 18.109375 37.203125 18.109375 27.296875 
Q 18.109375 17.390625 22.1875 11.75 
Q 26.265625 6.109375 33.40625 6.109375 
Q 40.53125 6.109375 44.609375 11.75 
Q 48.6875 17.390625 48.6875 27.296875 
z
" id="DejaVuSans-112"/>
     </defs>
     <g transform="translate(17.619531 298.435375)rotate(-90)scale(0.17 -0.17)">
      <use xlink:href="#DejaVuSans-70"/>
      <use x="57.410156" xlink:href="#DejaVuSans-114"/>
      <use x="98.523438" xlink:href="#DejaVuSans-97"/>
      <use x="159.802734" xlink:href="#DejaVuSans-99"/>
      <use x="214.783203" xlink:href="#DejaVuSans-116"/>
      <use x="253.992188" xlink:href="#DejaVuSans-105"/>
      <use x="281.775391" xlink:href="#DejaVuSans-111"/>
      <use x="342.957031" xlink:href="#DejaVuSans-110"/>
      <use x="406.335938" xlink:href="#DejaVuSans-32"/>
      <use x="438.123047" xlink:href="#DejaVuSans-111"/>
      <use x="499.304688" xlink:href="#DejaVuSans-102"/>
      <use x="534.509766" xlink:href="#DejaVuSans-32"/>
      <use x="566.296875" xlink:href="#DejaVuSans-102"/>
      <use x="601.501953" xlink:href="#DejaVuSans-117"/>
      <use x="664.880859" xlink:href="#DejaVuSans-110"/>
      <use x="728.259766" xlink:href="#DejaVuSans-99"/>
      <use x="783.240234" xlink:href="#DejaVuSans-116"/>
      <use x="822.449219" xlink:href="#DejaVuSans-105"/>
      <use x="850.232422" xlink:href="#DejaVuSans-111"/>
      <use x="911.414062" xlink:href="#DejaVuSans-110"/>
      <use x="974.792969" xlink:href="#DejaVuSans-44"/>
      <use x="1006.580078" xlink:href="#DejaVuSans-116"/>
      <use x="1045.789062" xlink:href="#DejaVuSans-97"/>
      <use x="1107.068359" xlink:href="#DejaVuSans-114"/>
      <use x="1148.166016" xlink:href="#DejaVuSans-103"/>
      <use x="1211.642578" xlink:href="#DejaVuSans-101"/>
      <use x="1273.166016" xlink:href="#DejaVuSans-116"/>
      <use x="1312.375" xlink:href="#DejaVuSans-32"/>
      <use x="1344.162109" xlink:href="#DejaVuSans-112"/>
      <use x="1407.638672" xlink:href="#DejaVuSans-97"/>
      <use x="1468.917969" xlink:href="#DejaVuSans-105"/>
      <use x="1496.701172" xlink:href="#DejaVuSans-114"/>
      <use x="1537.814453" xlink:href="#DejaVuSans-115"/>
     </g>
    </g>
   </g>
   <g id="line2d_33">
    <defs>
     <path d="M 0 1.5 
C 0.397805 1.5 0.77937 1.341951 1.06066 1.06066 
C 1.341951 0.77937 1.5 0.397805 1.5 0 
C 1.5 -0.397805 1.341951 -0.77937 1.06066 -1.06066 
C 0.77937 -1.341951 0.397805 -1.5 0 -1.5 
C -0.397805 -1.5 -0.77937 -1.341951 -1.06066 -1.06066 
C -1.341951 -0.77937 -1.5 -0.397805 -1.5 0 
C -1.5 0.397805 -1.341951 0.77937 -1.06066 1.06066 
C -0.77937 1.341951 -0.397805 1.5 0 1.5 
z
" id="m6c7cab539f" style="stroke:#f5deb3;"/>
    </defs>
    <g>
     <use style="fill:#f5deb3;stroke:#f5deb3;" x="262.932641" xlink:href="#m6c7cab539f" y="62.752535"/>
     <use style="fill:#f5deb3;stroke:#f5deb3;" x="262.932641" xlink:href="#m6c7cab539f" y="62.752535"/>
    </g>
   </g>
   <g id="line2d_34">
    <defs>
     <path d="M 0 1.5 
C 0.397805 1.5 0.77937 1.341951 1.06066 1.06066 
C 1.341951 0.77937 1.5 0.397805 1.5 0 
C 1.5 -0.397805 1.341951 -0.77937 1.06066 -1.06066 
C 0.77937 -1.341951 0.397805 -1.5 0 -1.5 
C -0.397805 -1.5 -0.77937 -1.341951 -1.06066 -1.06066 
C -1.341951 -0.77937 -1.5 -0.397805 -1.5 0 
C -1.5 0.397805 -1.341951 0.77937 -1.06066 1.06066 
C -0.77937 1.341951 -0.397805 1.5 0 1.5 
z
" id="m6182bedb2e" style="stroke:#000080;"/>
    </defs>
    <g>
     <use style="fill:#000080;stroke:#000080;" x="228.967446" xlink:href="#m6182bedb2e" y="93.31849"/>
     <use style="fill:#000080;stroke:#000080;" x="228.967446" xlink:href="#m6182bedb2e" y="93.31849"/>
    </g>
   </g>
   <g id="line2d_35">
    <path d="M 29.53256 298.944 
L 29.53256 288.755349 
L 72.867545 288.755349 
L 72.867545 286.902867 
L 75.555822 286.902867 
L 75.555822 285.976625 
L 78.941764 285.976625 
L 78.941764 284.124143 
L 80.881459 284.124143 
L 80.881459 283.197902 
L 82.626842 283.197902 
L 82.626842 281.34542 
L 87.643811 281.34542 
L 87.643811 280.419179 
L 92.504372 280.419179 
L 92.504372 279.492938 
L 93.422441 279.492938 
L 93.422441 278.566697 
L 93.863965 278.566697 
L 93.863965 275.787974 
L 94.294587 275.787974 
L 94.294587 273.935492 
L 95.918017 273.935492 
L 95.918017 273.009251 
L 96.676366 273.009251 
L 96.676366 272.08301 
L 97.043522 272.08301 
L 97.043522 271.156769 
L 97.403108 271.156769 
L 97.403108 270.230528 
L 97.755429 270.230528 
L 97.755429 262.8206 
L 98.771596 262.8206 
L 98.771596 260.968117 
L 100.040467 260.968117 
L 100.040467 257.263153 
L 102.597126 257.263153 
L 102.597126 256.336912 
L 104.114542 256.336912 
L 104.114542 255.410671 
L 105.732589 255.410671 
L 105.732589 254.48443 
L 105.951954 254.48443 
L 105.951954 253.558189 
L 106.802819 253.558189 
L 106.802819 252.631948 
L 107.811151 252.631948 
L 107.811151 250.779466 
L 108.948899 250.779466 
L 108.948899 249.853225 
L 109.668146 249.853225 
L 109.668146 248.926984 
L 111.346294 248.926984 
L 111.346294 247.074502 
L 112.877038 247.074502 
L 112.877038 246.148261 
L 115.33349 246.148261 
L 115.33349 244.295779 
L 115.711251 244.295779 
L 115.711251 242.443297 
L 115.958621 242.443297 
L 115.958621 240.590815 
L 116.081002 240.590815 
L 116.081002 239.664574 
L 117.145424 239.664574 
L 117.145424 237.812091 
L 120.852343 237.812091 
L 120.852343 235.959609 
L 125.327602 235.959609 
L 125.327602 234.107127 
L 125.682793 234.107127 
L 125.682793 232.254645 
L 126.50685 232.254645 
L 126.50685 230.402163 
L 127.923363 230.402163 
L 127.923363 229.475922 
L 128.046609 229.475922 
L 128.046609 228.549681 
L 129.630422 228.549681 
L 129.630422 226.697199 
L 130.127931 226.697199 
L 130.127931 225.770958 
L 131.338382 225.770958 
L 131.338382 223.918476 
L 132.230358 223.918476 
L 132.230358 222.992235 
L 132.659801 222.992235 
L 132.659801 221.139753 
L 132.986651 221.139753 
L 132.986651 219.287271 
L 133.307488 219.287271 
L 133.307488 217.434789 
L 133.888106 217.434789 
L 133.888106 216.508548 
L 134.534878 216.508548 
L 134.534878 214.656066 
L 135.076644 214.656066 
L 135.117629 211.877342 
L 136.831795 211.877342 
L 136.831795 210.02486 
L 137.70032 210.02486 
L 137.70032 208.172378 
L 137.945701 208.172378 
L 137.945701 207.246137 
L 138.256201 207.246137 
L 138.256201 206.319896 
L 139.02546 206.319896 
L 139.02546 204.467414 
L 140.317849 204.467414 
L 140.317849 203.541173 
L 141.407239 203.541173 
L 141.407239 201.688691 
L 143.375453 201.688691 
L 143.375453 200.76245 
L 144.981877 200.76245 
L 144.981877 198.909968 
L 145.258697 198.909968 
L 145.304409 197.057486 
L 145.755062 197.057486 
L 145.755062 195.205004 
L 145.976095 195.205004 
L 145.976095 194.278763 
L 146.516724 194.278763 
L 146.516724 193.352522 
L 148.142046 193.352522 
L 148.142046 192.426281 
L 148.733265 192.426281 
L 148.733265 191.50004 
L 150.49739 191.50004 
L 150.49739 189.647558 
L 153.178403 189.647558 
L 153.178403 187.795075 
L 153.395042 187.795075 
L 153.395042 185.942593 
L 156.236431 185.942593 
L 156.236431 185.016352 
L 157.346685 185.016352 
L 157.346685 184.090111 
L 157.876384 184.090111 
L 157.876384 183.16387 
L 158.540715 183.16387 
L 158.540715 181.311388 
L 159.688246 181.311388 
L 159.688246 180.385147 
L 160.680044 180.385147 
L 160.680044 179.458906 
L 161.072584 179.458906 
L 161.072584 177.606424 
L 161.256448 177.606424 
L 161.256448 176.680183 
L 161.492608 176.680183 
L 161.492608 175.753942 
L 161.937967 175.753942 
L 161.937967 174.827701 
L 162.90445 174.827701 
L 162.90445 173.90146 
L 163.185069 173.90146 
L 163.185069 172.975219 
L 163.66156 172.975219 
L 163.66156 171.122737 
L 164.302897 171.122737 
L 164.302897 169.270255 
L 165.09112 169.270255 
L 165.171671 167.417773 
L 165.810071 167.417773 
L 165.810071 166.491532 
L 168.041647 166.491532 
L 168.041647 165.565291 
L 168.287795 165.565291 
L 168.324419 162.786567 
L 168.835167 162.786567 
L 168.835167 161.860326 
L 169.029495 161.860326 
L 169.029495 160.934085 
L 171.655755 160.934085 
L 171.655755 160.007844 
L 172.730183 160.007844 
L 172.791647 157.229121 
L 174.309456 157.229121 
L 174.309456 156.30288 
L 175.083722 156.30288 
L 175.170413 154.450398 
L 175.605554 154.450398 
L 175.661693 151.671675 
L 176.120024 151.671675 
L 176.120024 149.819193 
L 176.520945 149.819193 
L 176.520945 148.892952 
L 178.709976 148.892952 
L 178.709976 147.966711 
L 180.151313 147.966711 
L 180.151313 147.04047 
L 180.412408 147.04047 
L 180.412408 145.187988 
L 180.932036 145.187988 
L 180.932036 144.261747 
L 181.670792 144.261747 
L 181.670792 143.335506 
L 181.789523 143.335506 
L 181.789523 142.409265 
L 183.180642 142.409265 
L 183.271451 140.556783 
L 185.232381 140.556783 
L 185.232381 138.7043 
L 185.38664 138.7043 
L 185.457555 135.925577 
L 187.968496 135.925577 
L 187.968496 134.999336 
L 188.231395 134.999336 
L 188.231395 134.073095 
L 189.314741 134.073095 
L 189.314741 133.146854 
L 192.147764 133.146854 
L 192.147764 132.220613 
L 192.274855 132.220613 
L 192.274855 130.368131 
L 192.911673 130.368131 
L 192.911673 129.44189 
L 193.114466 129.44189 
L 193.114466 128.515649 
L 193.599204 128.515649 
L 193.599204 127.589408 
L 195.285531 127.589408 
L 195.285531 126.663167 
L 195.859415 126.663167 
L 195.859415 124.810685 
L 197.50097 124.810685 
L 197.50097 122.958203 
L 198.968629 122.958203 
L 198.968629 122.031962 
L 199.22034 122.031962 
L 199.22034 121.105721 
L 202.822811 121.105721 
L 202.822811 120.17948 
L 203.52861 120.17948 
L 203.52861 119.253239 
L 204.386763 119.253239 
L 204.386763 118.326998 
L 205.222311 118.326998 
L 205.222311 116.474516 
L 208.008278 116.474516 
L 208.038323 113.695792 
L 209.290015 113.695792 
L 209.290015 111.84331 
L 210.807625 111.84331 
L 210.807625 110.917069 
L 212.243034 110.917069 
L 212.243034 109.064587 
L 213.542793 109.064587 
L 213.542793 108.138346 
L 215.52646 108.138346 
L 215.52646 106.285864 
L 217.430789 106.285864 
L 217.430789 104.433382 
L 219.791978 104.433382 
L 219.791978 103.507141 
L 220.203067 103.507141 
L 220.203067 101.654659 
L 223.875985 101.654659 
L 223.875985 99.802177 
L 224.675036 99.802177 
L 224.675036 98.875936 
L 225.685203 98.875936 
L 225.685203 97.949695 
L 227.264537 97.949695 
L 227.264537 97.023454 
L 228.344322 97.023454 
L 228.344322 95.170972 
L 228.774268 95.170972 
L 228.774268 94.244731 
L 228.967446 94.244731 
L 228.967446 93.31849 
L 338.688 93.31849 
L 338.688 93.31849 
" style="fill:none;stroke:#000080;stroke-linecap:square;stroke-width:1.5;"/>
   </g>
   <g id="line2d_36">
    <defs>
     <path d="M 0 6 
C 1.591219 6 3.117479 5.367802 4.242641 4.242641 
C 5.367802 3.117479 6 1.591219 6 0 
C 6 -1.591219 5.367802 -3.117479 4.242641 -4.242641 
C 3.117479 -5.367802 1.591219 -6 0 -6 
C -1.591219 -6 -3.117479 -5.367802 -4.242641 -4.242641 
C -5.367802 -3.117479 -6 -1.591219 -6 0 
C -6 1.591219 -5.367802 3.117479 -4.242641 4.242641 
C -3.117479 5.367802 -1.591219 6 0 6 
z
" id="mce1b136e4b" style="stroke:#000080;stroke-width:1.5;"/>
    </defs>
    <g>
     <use style="fill-opacity:0;stroke:#000080;stroke-width:1.5;" x="87.643811" xlink:href="#mce1b136e4b" y="281.34542"/>
     <use style="fill-opacity:0;stroke:#000080;stroke-width:1.5;" x="141.407239" xlink:href="#mce1b136e4b" y="203.541173"/>
     <use style="fill-opacity:0;stroke:#000080;stroke-width:1.5;" x="185.232381" xlink:href="#mce1b136e4b" y="140.556783"/>
     <use style="fill-opacity:0;stroke:#000080;stroke-width:1.5;" x="228.967446" xlink:href="#mce1b136e4b" y="94.244731"/>
     <use style="fill-opacity:0;stroke:#000080;stroke-width:1.5;" x="228.967446" xlink:href="#mce1b136e4b" y="93.31849"/>
     <use style="fill-opacity:0;stroke:#000080;stroke-width:1.5;" x="338.688" xlink:href="#mce1b136e4b" y="93.31849"/>
    </g>
   </g>
   <g id="line2d_37">
    <path style="fill:none;stroke:#000080;stroke-linecap:square;stroke-width:1.5;"/>
    <g/>
   </g>
   <g id="line2d_38">
    <path clip-path="url(#p0f600aa83d)" d="M 230.3104 93.31849 
" style="fill:none;stroke:#000080;stroke-linecap:square;stroke-width:1.5;"/>
    <defs>
     <path d="M -12 12 
L 12 -12 
M -12 -12 
L 12 12 
" id="m6f01ea74d5" style="stroke:#000080;"/>
    </defs>
    <g clip-path="url(#p0f600aa83d)">
     <use style="fill:#000080;stroke:#000080;" x="230.3104" xlink:href="#m6f01ea74d5" y="93.31849"/>
    </g>
   </g>
   <g id="line2d_39">
    <defs>
     <path d="M 0 1.5 
C 0.397805 1.5 0.77937 1.341951 1.06066 1.06066 
C 1.341951 0.77937 1.5 0.397805 1.5 0 
C 1.5 -0.397805 1.341951 -0.77937 1.06066 -1.06066 
C 0.77937 -1.341951 0.397805 -1.5 0 -1.5 
C -0.397805 -1.5 -0.77937 -1.341951 -1.06066 -1.06066 
C -1.341951 -0.77937 -1.5 -0.397805 -1.5 0 
C -1.5 0.397805 -1.341951 0.77937 -1.06066 1.06066 
C -0.77937 1.341951 -0.397805 1.5 0 1.5 
z
" id="m90044ad354" style="stroke:#ff00ff;"/>
    </defs>
    <g>
     <use style="fill:#ff00ff;stroke:#ff00ff;" x="215.941586" xlink:href="#m90044ad354" y="107.212105"/>
     <use style="fill:#ff00ff;stroke:#ff00ff;" x="215.941586" xlink:href="#m90044ad354" y="107.212105"/>
    </g>
   </g>
   <g id="line2d_40">
    <path d="M 29.53256 298.944 
L 29.53256 287.829108 
L 83.438118 287.829108 
L 83.438118 286.902867 
L 85.66744 286.902867 
L 85.66744 285.976625 
L 90.509138 285.976625 
L 90.509138 285.050384 
L 91.029752 285.050384 
L 91.029752 283.197902 
L 94.714831 283.197902 
L 94.714831 281.34542 
L 95.125186 281.34542 
L 95.125186 279.492938 
L 95.526106 279.492938 
L 95.526106 278.566697 
L 97.403108 278.566697 
L 97.403108 277.640456 
L 98.100772 277.640456 
L 98.100772 276.714215 
L 99.731799 276.714215 
L 99.731799 275.787974 
L 100.641881 275.787974 
L 100.641881 273.935492 
L 102.330873 273.935492 
L 102.330873 273.009251 
L 102.859376 273.009251 
L 102.859376 272.08301 
L 103.372333 272.08301 
L 103.372333 271.156769 
L 103.870632 271.156769 
L 103.870632 270.230528 
L 106.802819 270.230528 
L 106.802819 269.304287 
L 107.414787 269.304287 
L 107.414787 267.451805 
L 107.811151 267.451805 
L 107.811151 266.525564 
L 108.389302 266.525564 
L 108.389302 264.673082 
L 108.948899 264.673082 
L 108.948899 263.746841 
L 109.131511 263.746841 
L 109.131511 260.968117 
L 110.358901 260.968117 
L 110.358901 259.115635 
L 111.023335 259.115635 
L 111.023335 257.263153 
L 111.663381 257.263153 
L 111.663381 256.336912 
L 112.280765 256.336912 
L 112.280765 255.410671 
L 112.431755 255.410671 
L 112.431755 253.558189 
L 116.081002 253.558189 
L 116.081002 252.631948 
L 117.145424 252.631948 
L 117.145424 251.705707 
L 118.363901 251.705707 
L 118.363901 249.853225 
L 118.576578 249.853225 
L 118.576578 248.926984 
L 118.890808 248.926984 
L 118.890808 248.000743 
L 119.602714 248.000743 
L 119.602714 247.074502 
L 119.996839 247.074502 
L 119.996839 245.22202 
L 121.219499 245.22202 
L 121.219499 243.369538 
L 121.756135 243.369538 
L 121.756135 241.517056 
L 122.018385 241.517056 
L 122.018385 238.738333 
L 122.362027 238.738333 
L 122.44689 234.107127 
L 122.782271 234.107127 
L 122.782271 232.254645 
L 123.672636 232.254645 
L 123.672636 230.402163 
L 124.368753 230.402163 
L 124.368753 229.475922 
L 124.891598 229.475922 
L 124.891598 228.549681 
L 125.327602 228.549681 
L 125.327602 226.697199 
L 126.439646 226.697199 
L 126.439646 225.770958 
L 126.904721 225.770958 
L 126.904721 223.918476 
L 131.185181 223.918476 
L 131.185181 221.139753 
L 132.470242 221.139753 
L 132.470242 219.287271 
L 132.986651 219.287271 
L 132.986651 217.434789 
L 133.755823 217.434789 
L 133.844123 214.656066 
L 135.878591 214.656066 
L 135.878591 212.803583 
L 137.37967 212.803583 
L 137.37967 211.877342 
L 137.735587 211.877342 
L 137.735587 210.02486 
L 138.256201 210.02486 
L 138.256201 208.172378 
L 143.144465 208.172378 
L 143.144465 207.246137 
L 143.324386 207.246137 
L 143.324386 205.393655 
L 143.553018 205.393655 
L 143.578237 201.688691 
L 143.976867 201.688691 
L 143.976867 200.76245 
L 144.53439 200.76245 
L 144.53439 199.836209 
L 146.150926 199.836209 
L 146.150926 198.909968 
L 146.367029 198.909968 
L 146.367029 197.983727 
L 148.373289 197.983727 
L 148.373289 196.131245 
L 148.582601 196.131245 
L 148.582601 195.205004 
L 148.826773 195.205004 
L 148.826773 194.278763 
L 149.122675 194.278763 
L 149.122675 193.352522 
L 149.377533 193.352522 
L 149.377533 192.426281 
L 150.258492 192.426281 
L 150.258492 191.50004 
L 150.799813 191.50004 
L 150.899466 189.647558 
L 150.94908 189.647558 
L 150.94908 188.721316 
L 153.380683 188.721316 
L 153.380683 186.868834 
L 153.580644 186.868834 
L 153.580644 185.016352 
L 154.167129 185.016352 
L 154.167129 183.16387 
L 154.827327 183.16387 
L 154.827327 182.237629 
L 155.653621 182.237629 
L 155.653621 180.385147 
L 155.97843 180.385147 
L 155.97843 179.458906 
L 156.574599 179.458906 
L 156.622378 177.606424 
L 157.162628 177.606424 
L 157.162628 176.680183 
L 157.675417 176.680183 
L 157.675417 175.753942 
L 159.768105 175.753942 
L 159.768105 173.90146 
L 160.230035 173.90146 
L 160.230035 172.975219 
L 160.774311 172.975219 
L 160.774311 172.048978 
L 160.905434 172.048978 
L 160.905434 171.122737 
L 161.420284 171.122737 
L 161.420284 170.196496 
L 164.387164 170.196496 
L 164.387164 169.270255 
L 165.915403 169.270255 
L 165.915403 168.344014 
L 167.210292 168.344014 
L 167.210292 167.417773 
L 167.365597 167.417773 
L 167.365597 165.565291 
L 167.911015 165.565291 
L 167.911015 164.63905 
L 168.698434 164.63905 
L 168.78179 161.860326 
L 169.554414 161.860326 
L 169.554414 160.934085 
L 170.030851 160.934085 
L 170.030851 160.007844 
L 171.304668 160.007844 
L 171.304668 159.081603 
L 172.409924 159.081603 
L 172.409924 157.229121 
L 173.206721 157.229121 
L 173.206721 155.376639 
L 174.443058 155.376639 
L 174.443058 154.450398 
L 174.639439 154.450398 
L 174.639439 152.597916 
L 175.813167 152.597916 
L 175.813167 151.671675 
L 176.49043 151.671675 
L 176.49043 150.745434 
L 176.676501 150.745434 
L 176.676501 149.819193 
L 176.987223 149.819193 
L 176.987223 148.892952 
L 177.656927 148.892952 
L 177.656927 147.966711 
L 177.922694 147.966711 
L 177.922694 147.04047 
L 181.786705 147.04047 
L 181.786705 146.114229 
L 182.099476 146.114229 
L 182.099476 145.187988 
L 183.245554 145.187988 
L 183.245554 144.261747 
L 183.981391 144.261747 
L 183.981391 143.335506 
L 186.371467 143.335506 
L 186.371467 141.483024 
L 186.638049 141.483024 
L 186.638049 140.556783 
L 187.165502 140.556783 
L 187.165502 138.7043 
L 187.699566 138.7043 
L 187.699566 136.851818 
L 189.365904 136.851818 
L 189.365904 135.925577 
L 190.480801 135.925577 
L 190.480801 134.999336 
L 191.061518 134.999336 
L 191.061518 133.146854 
L 191.32278 133.146854 
L 191.32278 132.220613 
L 191.478648 132.220613 
L 191.478648 131.294372 
L 193.246416 131.294372 
L 193.246416 129.44189 
L 193.711914 129.44189 
L 193.711914 128.515649 
L 194.422512 128.515649 
L 194.520539 126.663167 
L 195.434325 126.663167 
L 195.434325 125.736926 
L 196.622044 125.736926 
L 196.622044 124.810685 
L 199.274178 124.810685 
L 199.274178 123.884444 
L 199.762442 123.884444 
L 199.762442 122.958203 
L 201.968951 122.958203 
L 201.968951 122.031962 
L 203.046561 122.031962 
L 203.046561 121.105721 
L 205.849605 121.105721 
L 205.849605 120.17948 
L 206.069431 120.17948 
L 206.069431 118.326998 
L 206.524148 118.326998 
L 206.524148 117.400757 
L 207.517804 117.400757 
L 207.517804 116.474516 
L 207.833242 116.474516 
L 207.833242 114.622033 
L 210.288821 114.622033 
L 210.288821 112.769551 
L 212.041375 112.769551 
L 212.041375 110.917069 
L 215.25611 110.917069 
L 215.25611 109.064587 
L 215.941586 109.064587 
L 215.941586 107.212105 
L 338.688 107.212105 
L 338.688 107.212105 
" style="fill:none;stroke:#ff00ff;stroke-linecap:square;stroke-width:1.5;"/>
   </g>
   <g id="line2d_41">
    <defs>
     <path d="M 0 8.485281 
L 5.091169 0 
L 0 -8.485281 
L -5.091169 0 
z
" id="m5451147982" style="stroke:#ff00ff;stroke-linejoin:miter;stroke-width:1.5;"/>
    </defs>
    <g>
     <use style="fill-opacity:0;stroke:#ff00ff;stroke-linejoin:miter;stroke-width:1.5;" x="131.185181" xlink:href="#m5451147982" y="223.918476"/>
     <use style="fill-opacity:0;stroke:#ff00ff;stroke-linejoin:miter;stroke-width:1.5;" x="187.165502" xlink:href="#m5451147982" y="140.556783"/>
     <use style="fill-opacity:0;stroke:#ff00ff;stroke-linejoin:miter;stroke-width:1.5;" x="215.941586" xlink:href="#m5451147982" y="109.064587"/>
     <use style="fill-opacity:0;stroke:#ff00ff;stroke-linejoin:miter;stroke-width:1.5;" x="215.941586" xlink:href="#m5451147982" y="107.212105"/>
     <use style="fill-opacity:0;stroke:#ff00ff;stroke-linejoin:miter;stroke-width:1.5;" x="215.941586" xlink:href="#m5451147982" y="107.212105"/>
     <use style="fill-opacity:0;stroke:#ff00ff;stroke-linejoin:miter;stroke-width:1.5;" x="338.688" xlink:href="#m5451147982" y="107.212105"/>
    </g>
   </g>
   <g id="line2d_42">
    <path style="fill:none;stroke:#ff00ff;stroke-linecap:square;stroke-width:1.5;"/>
    <g/>
   </g>
   <g id="line2d_43">
    <path clip-path="url(#p0f600aa83d)" d="M 218.222063 107.212105 
" style="fill:none;stroke:#ff00ff;stroke-linecap:square;stroke-width:1.5;"/>
    <defs>
     <path d="M -12 12 
L 12 -12 
M -12 -12 
L 12 12 
" id="m7c97d237a9" style="stroke:#ff00ff;"/>
    </defs>
    <g clip-path="url(#p0f600aa83d)">
     <use style="fill:#ff00ff;stroke:#ff00ff;" x="218.222063" xlink:href="#m7c97d237a9" y="107.212105"/>
    </g>
   </g>
   <g id="line2d_44">
    <defs>
     <path d="M 0 1.5 
C 0.397805 1.5 0.77937 1.341951 1.06066 1.06066 
C 1.341951 0.77937 1.5 0.397805 1.5 0 
C 1.5 -0.397805 1.341951 -0.77937 1.06066 -1.06066 
C 0.77937 -1.341951 0.397805 -1.5 0 -1.5 
C -0.397805 -1.5 -0.77937 -1.341951 -1.06066 -1.06066 
C -1.341951 -0.77937 -1.5 -0.397805 -1.5 0 
C -1.5 0.397805 -1.341951 0.77937 -1.06066 1.06066 
C -0.77937 1.341951 -0.397805 1.5 0 1.5 
z
" id="mdf5bfebb09" style="stroke:#ffa500;"/>
    </defs>
    <g>
     <use style="fill:#ffa500;stroke:#ffa500;" x="156.882847" xlink:href="#mdf5bfebb09" y="203.078053"/>
     <use style="fill:#ffa500;stroke:#ffa500;" x="156.882847" xlink:href="#mdf5bfebb09" y="203.078053"/>
    </g>
   </g>
   <g id="line2d_45">
    <path d="M 29.53256 298.944 
L 29.53256 288.292228 
L 41.620548 288.292228 
L 41.620548 287.829108 
L 48.691568 287.829108 
L 48.691568 287.365987 
L 53.708537 287.365987 
L 53.708537 286.439746 
L 83.438118 286.439746 
L 83.438118 285.513505 
L 87.009585 285.513505 
L 87.009585 285.050384 
L 89.418828 285.050384 
L 89.418828 284.587264 
L 92.504372 284.587264 
L 92.504372 284.124143 
L 94.714831 284.124143 
L 94.714831 282.734782 
L 99.731799 282.734782 
L 99.731799 282.271661 
L 100.934985 282.271661 
L 100.934985 281.34542 
L 102.060491 281.34542 
L 102.060491 280.8823 
L 102.330873 280.8823 
L 102.330873 280.419179 
L 103.117741 280.419179 
L 103.117741 279.956059 
L 103.870632 279.956059 
L 103.870632 279.492938 
L 104.114542 279.492938 
L 104.114542 279.029818 
L 104.355088 279.029818 
L 104.355088 278.566697 
L 104.592361 278.566697 
L 104.592361 277.177336 
L 105.057436 277.177336 
L 105.057436 276.251095 
L 105.732589 276.251095 
L 105.732589 275.787974 
L 106.382575 275.787974 
L 106.382575 275.324854 
L 108.764355 275.324854 
L 108.764355 274.398612 
L 109.131511 274.398612 
L 109.131511 273.935492 
L 109.843417 273.935492 
L 109.843417 273.009251 
L 110.188761 273.009251 
L 110.188761 272.54613 
L 110.358901 272.54613 
L 110.358901 270.693648 
L 110.527398 270.693648 
L 110.527398 269.767407 
L 111.819788 269.767407 
L 111.819788 269.304287 
L 114.0117 269.304287 
L 114.0117 268.841166 
L 114.418861 268.841166 
L 114.418861 268.378046 
L 117.259781 268.378046 
L 117.259781 267.914925 
L 117.709852 267.914925 
L 117.709852 266.988684 
L 117.930605 266.988684 
L 117.930605 266.525564 
L 118.363901 266.525564 
L 118.363901 265.599323 
L 118.681952 265.599323 
L 118.786692 264.673082 
L 119.199476 264.673082 
L 119.199476 264.209961 
L 119.602714 264.209961 
L 119.602714 263.746841 
L 120.47729 263.746841 
L 120.47729 262.8206 
L 121.219499 262.8206 
L 121.219499 262.357479 
L 122.104932 262.357479 
L 122.104932 260.968117 
L 122.276749 260.968117 
L 122.276749 260.504997 
L 122.44689 260.504997 
L 122.44689 260.041876 
L 123.907776 260.041876 
L 123.907776 259.115635 
L 124.062793 259.115635 
L 124.062793 258.652515 
L 124.292765 258.652515 
L 124.292765 256.336912 
L 124.669438 256.336912 
L 124.669438 255.873792 
L 124.965026 255.873792 
L 124.965026 255.410671 
L 125.612332 255.410671 
L 125.612332 254.947551 
L 126.304457 254.947551 
L 126.372183 254.02131 
L 126.70692 254.02131 
L 126.70692 253.558189 
L 126.839037 253.558189 
L 126.839037 252.631948 
L 127.985095 252.631948 
L 127.985095 252.168828 
L 128.107907 252.168828 
L 128.107907 251.242587 
L 128.531065 251.242587 
L 128.531065 250.779466 
L 128.650105 250.779466 
L 128.650105 250.316346 
L 128.827155 250.316346 
L 128.827155 249.853225 
L 129.06046 249.853225 
L 129.06046 248.926984 
L 129.853291 248.926984 
L 129.963666 248.000743 
L 130.018593 248.000743 
L 130.018593 247.074502 
L 130.505303 247.074502 
L 130.505303 246.611381 
L 130.874681 246.611381 
L 130.874681 245.68514 
L 131.133813 245.68514 
L 131.185181 243.832658 
L 131.590764 243.832658 
L 131.590764 243.369538 
L 131.790072 243.369538 
L 131.790072 242.443297 
L 132.133473 242.443297 
L 132.133473 241.517056 
L 132.278599 241.517056 
L 132.326708 240.127694 
L 133.931979 240.127694 
L 133.931979 239.201453 
L 134.279041 239.201453 
L 134.279041 238.738333 
L 134.492498 238.738333 
L 134.577155 236.88585 
L 134.787017 236.88585 
L 134.787017 236.42273 
L 135.562224 236.42273 
L 135.562224 235.033368 
L 136.034648 235.033368 
L 136.073445 233.644007 
L 137.016339 233.644007 
L 137.089613 232.717766 
L 137.558536 232.717766 
L 137.594091 230.865284 
L 137.70032 230.865284 
L 137.770782 229.475922 
L 138.187677 229.475922 
L 138.187677 229.012802 
L 138.358484 229.012802 
L 138.358484 228.549681 
L 139.285267 228.549681 
L 139.381706 227.16032 
L 139.69937 227.16032 
L 139.69937 226.234079 
L 139.856059 226.234079 
L 139.856059 225.307837 
L 140.073083 225.307837 
L 140.073083 224.381596 
L 140.438956 224.381596 
L 140.438956 223.455355 
L 140.619053 223.455355 
L 140.619053 222.529114 
L 141.148448 222.529114 
L 141.148448 222.065994 
L 142.378651 222.065994 
L 142.378651 221.602873 
L 142.619936 221.602873 
L 142.619936 220.676632 
L 142.778958 220.676632 
L 142.778958 220.213512 
L 143.170282 220.213512 
L 143.247504 217.434789 
L 143.47714 217.434789 
L 143.47714 216.971668 
L 143.678752 216.971668 
L 143.678752 216.045427 
L 144.958609 216.045427 
L 145.051495 215.119186 
L 145.189903 215.119186 
L 145.189903 214.192945 
L 146.08557 214.192945 
L 146.08557 213.266704 
L 146.40993 213.266704 
L 146.452726 211.414222 
L 146.665144 211.414222 
L 146.707319 210.02486 
L 146.999721 210.02486 
L 146.999721 209.098619 
L 148.005725 209.098619 
L 148.005725 208.635499 
L 148.23877 208.635499 
L 148.23877 207.709258 
L 148.639252 207.709258 
L 148.639252 207.246137 
L 150.051085 207.246137 
L 150.051085 206.319896 
L 151.195055 206.319896 
L 151.195055 205.393655 
L 152.587184 205.393655 
L 152.587184 204.930535 
L 153.279836 204.930535 
L 153.279836 204.004294 
L 154.906477 204.004294 
L 154.906477 203.541173 
L 156.882847 203.541173 
L 156.882847 203.078053 
L 338.688 203.078053 
L 338.688 203.078053 
" style="fill:none;stroke:#ffa500;stroke-linecap:square;stroke-width:1.5;"/>
   </g>
   <g id="line2d_46">
    <defs>
     <path d="M 0 -6 
L -1.347084 -1.854102 
L -5.706339 -1.854102 
L -2.179628 0.708204 
L -3.526712 4.854102 
L -0 2.291796 
L 3.526712 4.854102 
L 2.179628 0.708204 
L 5.706339 -1.854102 
L 1.347084 -1.854102 
z
" id="m05565b7932" style="stroke:#ffa500;stroke-linejoin:bevel;stroke-width:1.5;"/>
    </defs>
    <g>
     <use style="fill-opacity:0;stroke:#ffa500;stroke-linejoin:bevel;stroke-width:1.5;" x="111.819788" xlink:href="#m05565b7932" y="269.304287"/>
     <use style="fill-opacity:0;stroke:#ffa500;stroke-linejoin:bevel;stroke-width:1.5;" x="154.906477" xlink:href="#m05565b7932" y="203.541173"/>
     <use style="fill-opacity:0;stroke:#ffa500;stroke-linejoin:bevel;stroke-width:1.5;" x="156.882847" xlink:href="#m05565b7932" y="203.541173"/>
     <use style="fill-opacity:0;stroke:#ffa500;stroke-linejoin:bevel;stroke-width:1.5;" x="156.882847" xlink:href="#m05565b7932" y="203.078053"/>
     <use style="fill-opacity:0;stroke:#ffa500;stroke-linejoin:bevel;stroke-width:1.5;" x="156.882847" xlink:href="#m05565b7932" y="203.078053"/>
     <use style="fill-opacity:0;stroke:#ffa500;stroke-linejoin:bevel;stroke-width:1.5;" x="338.688" xlink:href="#m05565b7932" y="203.078053"/>
    </g>
   </g>
   <g id="line2d_47">
    <path style="fill:none;stroke:#ffa500;stroke-linecap:square;stroke-width:1.5;"/>
    <g/>
   </g>
   <g id="line2d_48">
    <path clip-path="url(#p0f600aa83d)" d="M 258.377213 203.078053 
" style="fill:none;stroke:#ffa500;stroke-linecap:square;stroke-width:1.5;"/>
    <defs>
     <path d="M -12 12 
L 12 -12 
M -12 -12 
L 12 12 
" id="m7e6e12befb" style="stroke:#ffa500;"/>
    </defs>
    <g clip-path="url(#p0f600aa83d)">
     <use style="fill:#ffa500;stroke:#ffa500;" x="258.377213" xlink:href="#m7e6e12befb" y="203.078053"/>
    </g>
   </g>
   <g id="line2d_49">
    <defs>
     <path d="M 0 1.5 
C 0.397805 1.5 0.77937 1.341951 1.06066 1.06066 
C 1.341951 0.77937 1.5 0.397805 1.5 0 
C 1.5 -0.397805 1.341951 -0.77937 1.06066 -1.06066 
C 0.77937 -1.341951 0.397805 -1.5 0 -1.5 
C -0.397805 -1.5 -0.77937 -1.341951 -1.06066 -1.06066 
C -1.341951 -0.77937 -1.5 -0.397805 -1.5 0 
C -1.5 0.397805 -1.341951 0.77937 -1.06066 1.06066 
C -0.77937 1.341951 -0.397805 1.5 0 1.5 
z
" id="mbf77d3cd6a" style="stroke:#6495ed;"/>
    </defs>
    <g>
     <use style="fill:#6495ed;stroke:#6495ed;" x="191.922314" xlink:href="#mbf77d3cd6a" y="164.175929"/>
     <use style="fill:#6495ed;stroke:#6495ed;" x="191.922314" xlink:href="#mbf77d3cd6a" y="164.175929"/>
    </g>
   </g>
   <g id="line2d_50">
    <path d="M 29.53256 298.944 
L 29.53256 288.292228 
L 60.779557 288.292228 
L 60.779557 287.829108 
L 63.467834 287.829108 
L 63.467834 287.365987 
L 71.35013 287.365987 
L 71.35013 286.902867 
L 77.884514 286.902867 
L 77.884514 285.976625 
L 79.938565 285.976625 
L 79.938565 285.513505 
L 81.775977 285.513505 
L 81.775977 284.124143 
L 87.009585 284.124143 
L 87.009585 282.734782 
L 90.509138 282.734782 
L 90.509138 282.271661 
L 97.755429 282.271661 
L 97.755429 280.8823 
L 99.731799 280.8823 
L 99.731799 280.419179 
L 101.506816 280.419179 
L 101.506816 279.029818 
L 103.870632 279.029818 
L 103.870632 278.103577 
L 107.009204 278.103577 
L 107.009204 277.640456 
L 109.843417 277.640456 
L 109.843417 277.177336 
L 110.016944 277.177336 
L 110.016944 276.714215 
L 110.694282 276.714215 
L 110.694282 276.251095 
L 111.505558 276.251095 
L 111.505558 275.787974 
L 112.58145 275.787974 
L 112.58145 274.398612 
L 112.877038 274.398612 
L 112.877038 273.935492 
L 113.453595 273.935492 
L 113.453595 273.472371 
L 113.73488 273.472371 
L 113.73488 273.009251 
L 113.873839 273.009251 
L 113.873839 272.54613 
L 115.958621 272.54613 
L 115.958621 272.08301 
L 116.443076 272.08301 
L 116.443076 271.619889 
L 119.702083 271.619889 
L 119.702083 270.693648 
L 119.89914 270.693648 
L 119.89914 270.230528 
L 120.286695 270.230528 
L 120.286695 269.304287 
L 121.036887 269.304287 
L 121.036887 268.841166 
L 121.310093 268.841166 
L 121.310093 268.378046 
L 121.489881 268.378046 
L 121.489881 267.914925 
L 121.931406 267.914925 
L 121.931406 266.988684 
L 122.699028 266.988684 
L 122.699028 266.525564 
L 123.434283 266.525564 
L 123.434283 266.062443 
L 124.368753 266.062443 
L 124.368753 265.599323 
L 124.817858 265.599323 
L 124.817858 265.136202 
L 127.48501 265.136202 
L 127.48501 264.209961 
L 127.861412 264.209961 
L 127.861412 261.894358 
L 128.046609 261.894358 
L 128.046609 260.968117 
L 128.168991 260.968117 
L 128.168991 260.504997 
L 128.411207 260.504997 
L 128.411207 260.041876 
L 128.768338 260.041876 
L 128.768338 259.578756 
L 129.404667 259.578756 
L 129.46138 257.726274 
L 130.45189 257.726274 
L 130.45189 256.800033 
L 130.926816 256.800033 
L 130.926816 255.873792 
L 131.133813 255.873792 
L 131.133813 254.48443 
L 131.389151 254.48443 
L 131.389151 254.02131 
L 132.278599 254.02131 
L 132.278599 253.558189 
L 133.032848 253.558189 
L 133.032848 253.095069 
L 134.149701 253.095069 
L 134.149701 252.631948 
L 134.534878 252.631948 
L 134.534878 251.705707 
L 134.703375 251.705707 
L 134.703375 251.242587 
L 135.035562 251.242587 
L 135.035562 250.779466 
L 135.280614 250.779466 
L 135.280614 250.316346 
L 136.86886 250.316346 
L 136.86886 249.853225 
L 137.48721 249.853225 
L 137.48721 249.390104 
L 138.392446 249.390104 
L 138.392446 248.926984 
L 138.728473 248.926984 
L 138.728473 248.000743 
L 139.918342 248.000743 
L 139.918342 247.074502 
L 140.438956 247.074502 
L 140.438956 246.611381 
L 140.708409 246.611381 
L 140.708409 246.148261 
L 140.973763 246.148261 
L 140.973763 245.22202 
L 141.746425 245.22202 
L 141.746425 244.295779 
L 142.726112 244.295779 
L 142.726112 243.369538 
L 142.962669 243.369538 
L 142.962669 241.980176 
L 143.196061 241.980176 
L 143.196061 241.053935 
L 143.553018 241.053935 
L 143.653678 239.201453 
L 146.129168 239.201453 
L 146.129168 238.275212 
L 147.509976 238.275212 
L 147.509976 237.348971 
L 148.025265 237.348971 
L 148.025265 236.42273 
L 148.714503 236.42273 
L 148.733265 233.644007 
L 149.214124 233.644007 
L 149.214124 232.717766 
L 149.413639 232.717766 
L 149.413639 232.254645 
L 149.610898 232.254645 
L 149.610898 230.402163 
L 150.327083 230.402163 
L 150.327083 229.939043 
L 150.480434 229.939043 
L 150.480434 229.475922 
L 150.783149 229.475922 
L 150.783149 229.012802 
L 150.932558 229.012802 
L 150.932558 228.086561 
L 151.080698 228.086561 
L 151.097081 227.16032 
L 151.517715 227.16032 
L 151.517715 226.697199 
L 152.299175 226.697199 
L 152.299175 225.770958 
L 152.766663 225.770958 
L 152.766663 224.844717 
L 153.294279 224.844717 
L 153.294279 223.918476 
L 153.509492 223.918476 
L 153.509492 222.992235 
L 155.488919 222.992235 
L 155.488919 221.139753 
L 155.666226 221.139753 
L 155.666226 220.676632 
L 155.779264 220.676632 
L 155.86668 218.82415 
L 155.891575 218.82415 
L 155.891575 217.897909 
L 156.272978 217.897909 
L 156.272978 216.971668 
L 156.764934 216.971668 
L 156.812195 215.582307 
L 157.1279 215.582307 
L 157.1279 214.656066 
L 157.742664 214.656066 
L 157.84305 212.803583 
L 158.358103 212.803583 
L 158.358103 212.340463 
L 158.625992 212.340463 
L 158.625992 211.414222 
L 159.056614 211.414222 
L 159.056614 210.487981 
L 159.190962 210.487981 
L 159.190962 210.02486 
L 159.618067 210.02486 
L 159.62811 208.635499 
L 159.748174 208.635499 
L 159.748174 208.172378 
L 160.268789 208.172378 
L 160.355672 206.783017 
L 160.528149 206.783017 
L 160.613753 204.004294 
L 160.783709 204.004294 
L 160.783709 203.541173 
L 161.283861 203.541173 
L 161.393084 202.614932 
L 161.447441 202.614932 
L 161.501628 201.225571 
L 162.034438 201.225571 
L 162.034438 200.299329 
L 162.474869 200.299329 
L 162.559939 198.909968 
L 162.946002 198.909968 
L 162.987455 197.520606 
L 163.201437 197.520606 
L 163.250446 196.594365 
L 163.517565 196.594365 
L 163.517565 196.131245 
L 163.804376 196.131245 
L 163.804376 195.205004 
L 164.295217 195.205004 
L 164.295217 194.741883 
L 164.425332 194.741883 
L 164.425332 194.278763 
L 164.77262 194.278763 
L 164.839766 193.352522 
L 165.017568 193.352522 
L 165.017568 192.889401 
L 165.375047 192.889401 
L 165.375047 191.96316 
L 165.725346 191.96316 
L 165.831189 189.647558 
L 165.859305 189.647558 
L 165.859305 188.721316 
L 166.915315 188.721316 
L 166.981298 186.405714 
L 167.216791 186.405714 
L 167.216791 185.942593 
L 167.449146 185.942593 
L 167.449146 185.479473 
L 167.898523 185.479473 
L 167.898523 185.016352 
L 168.373132 185.016352 
L 168.409578 184.090111 
L 168.917874 184.090111 
L 168.9532 183.16387 
L 169.146224 183.16387 
L 169.146224 182.70075 
L 169.267955 182.70075 
L 169.267955 182.237629 
L 169.78585 182.237629 
L 169.847424 181.311388 
L 169.964373 181.311388 
L 169.964373 180.848268 
L 171.170519 180.848268 
L 171.273802 179.458906 
L 171.590146 179.458906 
L 171.675893 178.069545 
L 172.639959 178.069545 
L 172.639959 177.606424 
L 172.97475 177.606424 
L 172.97475 177.143304 
L 173.128197 177.143304 
L 173.197501 176.217062 
L 173.367284 176.217062 
L 173.471997 174.827701 
L 173.728826 174.827701 
L 173.80915 173.90146 
L 174.719912 173.90146 
L 174.719912 173.438339 
L 175.273058 173.438339 
L 175.273058 172.512098 
L 176.413908 172.512098 
L 176.413908 171.585857 
L 177.094497 171.585857 
L 177.193782 170.659616 
L 177.401547 170.659616 
L 177.401547 170.196496 
L 178.006891 170.196496 
L 178.006891 169.733375 
L 178.503711 169.733375 
L 178.503711 168.807134 
L 178.68643 168.807134 
L 178.68643 168.344014 
L 180.345204 168.344014 
L 180.345204 167.880893 
L 182.357718 167.880893 
L 182.357718 166.954652 
L 184.272134 166.954652 
L 184.272134 166.491532 
L 184.507558 166.491532 
L 184.507558 166.028411 
L 184.770743 166.028411 
L 184.770743 165.10217 
L 191.922314 165.10217 
L 191.922314 164.175929 
L 338.688 164.175929 
L 338.688 164.175929 
" style="fill:none;stroke:#6495ed;stroke-linecap:square;stroke-width:1.5;"/>
   </g>
   <g id="line2d_51">
    <defs>
     <path d="M -0 6 
L 6 -6 
L -6 -6 
z
" id="m58ec4fbafb" style="stroke:#6495ed;stroke-linejoin:miter;stroke-width:1.5;"/>
    </defs>
    <g>
     <use style="fill-opacity:0;stroke:#6495ed;stroke-linejoin:miter;stroke-width:1.5;" x="97.755429" xlink:href="#m58ec4fbafb" y="280.8823"/>
     <use style="fill-opacity:0;stroke:#6495ed;stroke-linejoin:miter;stroke-width:1.5;" x="158.625992" xlink:href="#m58ec4fbafb" y="211.414222"/>
     <use style="fill-opacity:0;stroke:#6495ed;stroke-linejoin:miter;stroke-width:1.5;" x="191.922314" xlink:href="#m58ec4fbafb" y="165.10217"/>
     <use style="fill-opacity:0;stroke:#6495ed;stroke-linejoin:miter;stroke-width:1.5;" x="191.922314" xlink:href="#m58ec4fbafb" y="164.175929"/>
     <use style="fill-opacity:0;stroke:#6495ed;stroke-linejoin:miter;stroke-width:1.5;" x="191.922314" xlink:href="#m58ec4fbafb" y="164.175929"/>
     <use style="fill-opacity:0;stroke:#6495ed;stroke-linejoin:miter;stroke-width:1.5;" x="338.688" xlink:href="#m58ec4fbafb" y="164.175929"/>
    </g>
   </g>
   <g id="line2d_52">
    <path style="fill:none;stroke:#6495ed;stroke-linecap:square;stroke-width:1.5;"/>
    <g/>
   </g>
   <g id="line2d_53">
    <path clip-path="url(#p0f600aa83d)" d="M 258.377317 164.175929 
" style="fill:none;stroke:#6495ed;stroke-linecap:square;stroke-width:1.5;"/>
    <defs>
     <path d="M -12 12 
L 12 -12 
M -12 -12 
L 12 12 
" id="mdb14b60dcf" style="stroke:#6495ed;"/>
    </defs>
    <g clip-path="url(#p0f600aa83d)">
     <use style="fill:#6495ed;stroke:#6495ed;" x="258.377317" xlink:href="#mdb14b60dcf" y="164.175929"/>
    </g>
   </g>
   <g id="line2d_54">
    <path d="M 338.688 203.078053 
L 369.60768 293.571802 
" style="fill:none;stroke:#ffa500;stroke-linecap:square;stroke-width:1.5;"/>
    <g>
     <use style="fill-opacity:0;stroke:#ffa500;stroke-linejoin:bevel;stroke-width:1.5;" x="338.688" xlink:href="#m05565b7932" y="203.078053"/>
     <use style="fill-opacity:0;stroke:#ffa500;stroke-linejoin:bevel;stroke-width:1.5;" x="369.60768" xlink:href="#m05565b7932" y="293.571802"/>
    </g>
   </g>
   <g id="line2d_55">
    <path d="M 338.688 164.175929 
L 369.60768 229.105426 
" style="fill:none;stroke:#6495ed;stroke-linecap:square;stroke-width:1.5;"/>
    <g>
     <use style="fill-opacity:0;stroke:#6495ed;stroke-linejoin:miter;stroke-width:1.5;" x="338.688" xlink:href="#m58ec4fbafb" y="164.175929"/>
     <use style="fill-opacity:0;stroke:#6495ed;stroke-linejoin:miter;stroke-width:1.5;" x="369.60768" xlink:href="#m58ec4fbafb" y="229.105426"/>
    </g>
   </g>
   <g id="line2d_56">
    <path d="M 338.688 107.212105 
L 369.60768 164.63905 
" style="fill:none;stroke:#ff00ff;stroke-linecap:square;stroke-width:1.5;"/>
    <g>
     <use style="fill-opacity:0;stroke:#ff00ff;stroke-linejoin:miter;stroke-width:1.5;" x="338.688" xlink:href="#m5451147982" y="107.212105"/>
     <use style="fill-opacity:0;stroke:#ff00ff;stroke-linejoin:miter;stroke-width:1.5;" x="369.60768" xlink:href="#m5451147982" y="164.63905"/>
    </g>
   </g>
   <g id="line2d_57">
    <path d="M 338.688 93.31849 
L 369.60768 100.172673 
" style="fill:none;stroke:#000080;stroke-linecap:square;stroke-width:1.5;"/>
    <g>
     <use style="fill-opacity:0;stroke:#000080;stroke-width:1.5;" x="338.688" xlink:href="#mce1b136e4b" y="93.31849"/>
     <use style="fill-opacity:0;stroke:#000080;stroke-width:1.5;" x="369.60768" xlink:href="#mce1b136e4b" y="100.172673"/>
    </g>
   </g>
   <g id="line2d_58">
    <path d="M 338.688 298.944 
L 338.688 30.334099 
" style="fill:none;stroke:#000000;stroke-linecap:square;stroke-width:1.5;"/>
   </g>
   <g id="patch_3">
    <path d="M 57.6 298.944 
L 57.6 27.648 
" style="fill:none;stroke:#000000;stroke-linecap:square;stroke-linejoin:miter;stroke-width:0.8;"/>
   </g>
   <g id="patch_4">
    <path d="M 338.688 298.944 
L 338.688 27.648 
" style="fill:none;stroke:#000000;stroke-linecap:square;stroke-linejoin:miter;stroke-width:0.8;"/>
   </g>
   <g id="patch_5">
    <path d="M 57.6 298.944 
L 338.688 298.944 
" style="fill:none;stroke:#000000;stroke-linecap:square;stroke-linejoin:miter;stroke-width:0.8;"/>
   </g>
   <g id="patch_6">
    <path d="M 57.6 27.648 
L 338.688 27.648 
" style="fill:none;stroke:#000000;stroke-linecap:square;stroke-linejoin:miter;stroke-width:0.8;"/>
   </g>
   <g id="text_13">
    <!-- COMO-3 bi -->
    <defs>
     <path d="M 64.40625 67.28125 
L 64.40625 56.890625 
Q 59.421875 61.53125 53.78125 63.8125 
Q 48.140625 66.109375 41.796875 66.109375 
Q 29.296875 66.109375 22.65625 58.46875 
Q 16.015625 50.828125 16.015625 36.375 
Q 16.015625 21.96875 22.65625 14.328125 
Q 29.296875 6.6875 41.796875 6.6875 
Q 48.140625 6.6875 53.78125 8.984375 
Q 59.421875 11.28125 64.40625 15.921875 
L 64.40625 5.609375 
Q 59.234375 2.09375 53.4375 0.328125 
Q 47.65625 -1.421875 41.21875 -1.421875 
Q 24.65625 -1.421875 15.125 8.703125 
Q 5.609375 18.84375 5.609375 36.375 
Q 5.609375 53.953125 15.125 64.078125 
Q 24.65625 74.21875 41.21875 74.21875 
Q 47.75 74.21875 53.53125 72.484375 
Q 59.328125 70.75 64.40625 67.28125 
z
" id="DejaVuSans-67"/>
     <path d="M 39.40625 66.21875 
Q 28.65625 66.21875 22.328125 58.203125 
Q 16.015625 50.203125 16.015625 36.375 
Q 16.015625 22.609375 22.328125 14.59375 
Q 28.65625 6.59375 39.40625 6.59375 
Q 50.140625 6.59375 56.421875 14.59375 
Q 62.703125 22.609375 62.703125 36.375 
Q 62.703125 50.203125 56.421875 58.203125 
Q 50.140625 66.21875 39.40625 66.21875 
z
M 39.40625 74.21875 
Q 54.734375 74.21875 63.90625 63.9375 
Q 73.09375 53.65625 73.09375 36.375 
Q 73.09375 19.140625 63.90625 8.859375 
Q 54.734375 -1.421875 39.40625 -1.421875 
Q 24.03125 -1.421875 14.8125 8.828125 
Q 5.609375 19.09375 5.609375 36.375 
Q 5.609375 53.65625 14.8125 63.9375 
Q 24.03125 74.21875 39.40625 74.21875 
z
" id="DejaVuSans-79"/>
     <path d="M 9.8125 72.90625 
L 24.515625 72.90625 
L 43.109375 23.296875 
L 61.8125 72.90625 
L 76.515625 72.90625 
L 76.515625 0 
L 66.890625 0 
L 66.890625 64.015625 
L 48.09375 14.015625 
L 38.1875 14.015625 
L 19.390625 64.015625 
L 19.390625 0 
L 9.8125 0 
z
" id="DejaVuSans-77"/>
     <path d="M 40.578125 39.3125 
Q 47.65625 37.796875 51.625 33 
Q 55.609375 28.21875 55.609375 21.1875 
Q 55.609375 10.40625 48.1875 4.484375 
Q 40.765625 -1.421875 27.09375 -1.421875 
Q 22.515625 -1.421875 17.65625 -0.515625 
Q 12.796875 0.390625 7.625 2.203125 
L 7.625 11.71875 
Q 11.71875 9.328125 16.59375 8.109375 
Q 21.484375 6.890625 26.8125 6.890625 
Q 36.078125 6.890625 40.9375 10.546875 
Q 45.796875 14.203125 45.796875 21.1875 
Q 45.796875 27.640625 41.28125 31.265625 
Q 36.765625 34.90625 28.71875 34.90625 
L 20.21875 34.90625 
L 20.21875 43.015625 
L 29.109375 43.015625 
Q 36.375 43.015625 40.234375 45.921875 
Q 44.09375 48.828125 44.09375 54.296875 
Q 44.09375 59.90625 40.109375 62.90625 
Q 36.140625 65.921875 28.71875 65.921875 
Q 24.65625 65.921875 20.015625 65.03125 
Q 15.375 64.15625 9.8125 62.3125 
L 9.8125 71.09375 
Q 15.4375 72.65625 20.34375 73.4375 
Q 25.25 74.21875 29.59375 74.21875 
Q 40.828125 74.21875 47.359375 69.109375 
Q 53.90625 64.015625 53.90625 55.328125 
Q 53.90625 49.265625 50.4375 45.09375 
Q 46.96875 40.921875 40.578125 39.3125 
z
" id="DejaVuSans-51"/>
     <path d="M 48.6875 27.296875 
Q 48.6875 37.203125 44.609375 42.84375 
Q 40.53125 48.484375 33.40625 48.484375 
Q 26.265625 48.484375 22.1875 42.84375 
Q 18.109375 37.203125 18.109375 27.296875 
Q 18.109375 17.390625 22.1875 11.75 
Q 26.265625 6.109375 33.40625 6.109375 
Q 40.53125 6.109375 44.609375 11.75 
Q 48.6875 17.390625 48.6875 27.296875 
z
M 18.109375 46.390625 
Q 20.953125 51.265625 25.265625 53.625 
Q 29.59375 56 35.59375 56 
Q 45.5625 56 51.78125 48.09375 
Q 58.015625 40.1875 58.015625 27.296875 
Q 58.015625 14.40625 51.78125 6.484375 
Q 45.5625 -1.421875 35.59375 -1.421875 
Q 29.59375 -1.421875 25.265625 0.953125 
Q 20.953125 3.328125 18.109375 8.203125 
L 18.109375 0 
L 9.078125 0 
L 9.078125 75.984375 
L 18.109375 75.984375 
z
" id="DejaVuSans-98"/>
    </defs>
    <g transform="translate(375.22944 298.262739)scale(0.17 -0.17)">
     <use xlink:href="#DejaVuSans-67"/>
     <use x="69.824219" xlink:href="#DejaVuSans-79"/>
     <use x="148.535156" xlink:href="#DejaVuSans-77"/>
     <use x="234.814453" xlink:href="#DejaVuSans-79"/>
     <use x="313.556641" xlink:href="#DejaVuSans-45"/>
     <use x="349.640625" xlink:href="#DejaVuSans-51"/>
     <use x="413.263672" xlink:href="#DejaVuSans-32"/>
     <use x="445.050781" xlink:href="#DejaVuSans-98"/>
     <use x="508.527344" xlink:href="#DejaVuSans-105"/>
    </g>
   </g>
   <g id="text_14">
    <!-- COMO-10 b -->
    <g transform="translate(375.22944 233.796363)scale(0.17 -0.17)">
     <use xlink:href="#DejaVuSans-67"/>
     <use x="69.824219" xlink:href="#DejaVuSans-79"/>
     <use x="148.535156" xlink:href="#DejaVuSans-77"/>
     <use x="234.814453" xlink:href="#DejaVuSans-79"/>
     <use x="313.556641" xlink:href="#DejaVuSans-45"/>
     <use x="349.640625" xlink:href="#DejaVuSans-49"/>
     <use x="413.263672" xlink:href="#DejaVuSans-48"/>
     <use x="476.886719" xlink:href="#DejaVuSans-32"/>
     <use x="508.673828" xlink:href="#DejaVuSans-98"/>
    </g>
   </g>
   <g id="text_15">
    <!-- chv-1e-1t -->
    <defs>
     <path d="M 54.890625 33.015625 
L 54.890625 0 
L 45.90625 0 
L 45.90625 32.71875 
Q 45.90625 40.484375 42.875 44.328125 
Q 39.84375 48.1875 33.796875 48.1875 
Q 26.515625 48.1875 22.3125 43.546875 
Q 18.109375 38.921875 18.109375 30.90625 
L 18.109375 0 
L 9.078125 0 
L 9.078125 75.984375 
L 18.109375 75.984375 
L 18.109375 46.1875 
Q 21.34375 51.125 25.703125 53.5625 
Q 30.078125 56 35.796875 56 
Q 45.21875 56 50.046875 50.171875 
Q 54.890625 44.34375 54.890625 33.015625 
z
" id="DejaVuSans-104"/>
    </defs>
    <g transform="translate(375.22944 169.329987)scale(0.17 -0.17)">
     <use xlink:href="#DejaVuSans-99"/>
     <use x="54.980469" xlink:href="#DejaVuSans-104"/>
     <use x="118.359375" xlink:href="#DejaVuSans-118"/>
     <use x="177.507812" xlink:href="#DejaVuSans-45"/>
     <use x="213.591797" xlink:href="#DejaVuSans-49"/>
     <use x="277.214844" xlink:href="#DejaVuSans-101"/>
     <use x="338.738281" xlink:href="#DejaVuSans-45"/>
     <use x="374.822266" xlink:href="#DejaVuSans-49"/>
     <use x="438.445312" xlink:href="#DejaVuSans-116"/>
    </g>
   </g>
   <g id="text_16">
    <!-- chvPlusRa -->
    <defs>
     <path d="M 19.671875 64.796875 
L 19.671875 37.40625 
L 32.078125 37.40625 
Q 38.96875 37.40625 42.71875 40.96875 
Q 46.484375 44.53125 46.484375 51.125 
Q 46.484375 57.671875 42.71875 61.234375 
Q 38.96875 64.796875 32.078125 64.796875 
z
M 9.8125 72.90625 
L 32.078125 72.90625 
Q 44.34375 72.90625 50.609375 67.359375 
Q 56.890625 61.8125 56.890625 51.125 
Q 56.890625 40.328125 50.609375 34.8125 
Q 44.34375 29.296875 32.078125 29.296875 
L 19.671875 29.296875 
L 19.671875 0 
L 9.8125 0 
z
" id="DejaVuSans-80"/>
     <path d="M 44.390625 34.1875 
Q 47.5625 33.109375 50.5625 29.59375 
Q 53.5625 26.078125 56.59375 19.921875 
L 66.609375 0 
L 56 0 
L 46.6875 18.703125 
Q 43.0625 26.03125 39.671875 28.421875 
Q 36.28125 30.8125 30.421875 30.8125 
L 19.671875 30.8125 
L 19.671875 0 
L 9.8125 0 
L 9.8125 72.90625 
L 32.078125 72.90625 
Q 44.578125 72.90625 50.734375 67.671875 
Q 56.890625 62.453125 56.890625 51.90625 
Q 56.890625 45.015625 53.6875 40.46875 
Q 50.484375 35.9375 44.390625 34.1875 
z
M 19.671875 64.796875 
L 19.671875 38.921875 
L 32.078125 38.921875 
Q 39.203125 38.921875 42.84375 42.21875 
Q 46.484375 45.515625 46.484375 51.90625 
Q 46.484375 58.296875 42.84375 61.546875 
Q 39.203125 64.796875 32.078125 64.796875 
z
" id="DejaVuSans-82"/>
    </defs>
    <g transform="translate(375.22944 104.863611)scale(0.17 -0.17)">
     <use xlink:href="#DejaVuSans-99"/>
     <use x="54.980469" xlink:href="#DejaVuSans-104"/>
     <use x="118.359375" xlink:href="#DejaVuSans-118"/>
     <use x="177.539062" xlink:href="#DejaVuSans-80"/>
     <use x="237.841797" xlink:href="#DejaVuSans-108"/>
     <use x="265.625" xlink:href="#DejaVuSans-117"/>
     <use x="329.003906" xlink:href="#DejaVuSans-115"/>
     <use x="381.103516" xlink:href="#DejaVuSans-82"/>
     <use x="450.554688" xlink:href="#DejaVuSans-97"/>
    </g>
   </g>
   <g id="text_17">
    <!-- best 2016 -->
    <g transform="translate(375.22944 40.397235)scale(0.17 -0.17)">
     <use xlink:href="#DejaVuSans-98"/>
     <use x="63.476562" xlink:href="#DejaVuSans-101"/>
     <use x="125" xlink:href="#DejaVuSans-115"/>
     <use x="177.099609" xlink:href="#DejaVuSans-116"/>
     <use x="216.308594" xlink:href="#DejaVuSans-32"/>
     <use x="248.095703" xlink:href="#DejaVuSans-50"/>
     <use x="311.71875" xlink:href="#DejaVuSans-48"/>
     <use x="375.341797" xlink:href="#DejaVuSans-49"/>
     <use x="438.964844" xlink:href="#DejaVuSans-54"/>
    </g>
   </g>
   <g id="text_18">
    <!-- bbob-biobj f9, 5-D -->
    <defs>
     <path d="M 9.421875 54.6875 
L 18.40625 54.6875 
L 18.40625 -0.984375 
Q 18.40625 -11.421875 14.421875 -16.109375 
Q 10.453125 -20.796875 1.609375 -20.796875 
L -1.8125 -20.796875 
L -1.8125 -13.1875 
L 0.59375 -13.1875 
Q 5.71875 -13.1875 7.5625 -10.8125 
Q 9.421875 -8.453125 9.421875 -0.984375 
z
M 9.421875 75.984375 
L 18.40625 75.984375 
L 18.40625 64.59375 
L 9.421875 64.59375 
z
" id="DejaVuSans-106"/>
     <path d="M 10.984375 1.515625 
L 10.984375 10.5 
Q 14.703125 8.734375 18.5 7.8125 
Q 22.3125 6.890625 25.984375 6.890625 
Q 35.75 6.890625 40.890625 13.453125 
Q 46.046875 20.015625 46.78125 33.40625 
Q 43.953125 29.203125 39.59375 26.953125 
Q 35.25 24.703125 29.984375 24.703125 
Q 19.046875 24.703125 12.671875 31.3125 
Q 6.296875 37.9375 6.296875 49.421875 
Q 6.296875 60.640625 12.9375 67.421875 
Q 19.578125 74.21875 30.609375 74.21875 
Q 43.265625 74.21875 49.921875 64.515625 
Q 56.59375 54.828125 56.59375 36.375 
Q 56.59375 19.140625 48.40625 8.859375 
Q 40.234375 -1.421875 26.421875 -1.421875 
Q 22.703125 -1.421875 18.890625 -0.6875 
Q 15.09375 0.046875 10.984375 1.515625 
z
M 30.609375 32.421875 
Q 37.25 32.421875 41.125 36.953125 
Q 45.015625 41.5 45.015625 49.421875 
Q 45.015625 57.28125 41.125 61.84375 
Q 37.25 66.40625 30.609375 66.40625 
Q 23.96875 66.40625 20.09375 61.84375 
Q 16.21875 57.28125 16.21875 49.421875 
Q 16.21875 41.5 20.09375 36.953125 
Q 23.96875 32.421875 30.609375 32.421875 
z
" id="DejaVuSans-57"/>
     <path d="M 10.796875 72.90625 
L 49.515625 72.90625 
L 49.515625 64.59375 
L 19.828125 64.59375 
L 19.828125 46.734375 
Q 21.96875 47.46875 24.109375 47.828125 
Q 26.265625 48.1875 28.421875 48.1875 
Q 40.625 48.1875 47.75 41.5 
Q 54.890625 34.8125 54.890625 23.390625 
Q 54.890625 11.625 47.5625 5.09375 
Q 40.234375 -1.421875 26.90625 -1.421875 
Q 22.3125 -1.421875 17.546875 -0.640625 
Q 12.796875 0.140625 7.71875 1.703125 
L 7.71875 11.625 
Q 12.109375 9.234375 16.796875 8.0625 
Q 21.484375 6.890625 26.703125 6.890625 
Q 35.15625 6.890625 40.078125 11.328125 
Q 45.015625 15.765625 45.015625 23.390625 
Q 45.015625 31 40.078125 35.4375 
Q 35.15625 39.890625 26.703125 39.890625 
Q 22.75 39.890625 18.8125 39.015625 
Q 14.890625 38.140625 10.796875 36.28125 
z
" id="DejaVuSans-53"/>
     <path d="M 19.671875 64.796875 
L 19.671875 8.109375 
L 31.59375 8.109375 
Q 46.6875 8.109375 53.6875 14.9375 
Q 60.6875 21.78125 60.6875 36.53125 
Q 60.6875 51.171875 53.6875 57.984375 
Q 46.6875 64.796875 31.59375 64.796875 
z
M 9.8125 72.90625 
L 30.078125 72.90625 
Q 51.265625 72.90625 61.171875 64.09375 
Q 71.09375 55.28125 71.09375 36.53125 
Q 71.09375 17.671875 61.125 8.828125 
Q 51.171875 0 30.078125 0 
L 9.8125 0 
z
" id="DejaVuSans-68"/>
    </defs>
    <g transform="translate(60.41088 38.111366)scale(0.102 -0.102)">
     <use xlink:href="#DejaVuSans-98"/>
     <use x="63.476562" xlink:href="#DejaVuSans-98"/>
     <use x="126.953125" xlink:href="#DejaVuSans-111"/>
     <use x="188.134766" xlink:href="#DejaVuSans-98"/>
     <use x="251.611328" xlink:href="#DejaVuSans-45"/>
     <use x="287.695312" xlink:href="#DejaVuSans-98"/>
     <use x="351.171875" xlink:href="#DejaVuSans-105"/>
     <use x="378.955078" xlink:href="#DejaVuSans-111"/>
     <use x="440.136719" xlink:href="#DejaVuSans-98"/>
     <use x="503.613281" xlink:href="#DejaVuSans-106"/>
     <use x="531.396484" xlink:href="#DejaVuSans-32"/>
     <use x="563.183594" xlink:href="#DejaVuSans-102"/>
     <use x="598.388672" xlink:href="#DejaVuSans-57"/>
     <use x="662.011719" xlink:href="#DejaVuSans-44"/>
     <use x="693.798828" xlink:href="#DejaVuSans-32"/>
     <use x="725.585938" xlink:href="#DejaVuSans-53"/>
     <use x="789.208984" xlink:href="#DejaVuSans-45"/>
     <use x="825.292969" xlink:href="#DejaVuSans-68"/>
    </g>
    <!-- 58 targets: 1..-1.0e-4 -->
    <defs>
     <path d="M 11.71875 12.40625 
L 22.015625 12.40625 
L 22.015625 0 
L 11.71875 0 
z
M 11.71875 51.703125 
L 22.015625 51.703125 
L 22.015625 39.3125 
L 11.71875 39.3125 
z
" id="DejaVuSans-58"/>
    </defs>
    <g transform="translate(60.41088 49.533135)scale(0.102 -0.102)">
     <use xlink:href="#DejaVuSans-53"/>
     <use x="63.623047" xlink:href="#DejaVuSans-56"/>
     <use x="127.246094" xlink:href="#DejaVuSans-32"/>
     <use x="159.033203" xlink:href="#DejaVuSans-116"/>
     <use x="198.242188" xlink:href="#DejaVuSans-97"/>
     <use x="259.521484" xlink:href="#DejaVuSans-114"/>
     <use x="300.619141" xlink:href="#DejaVuSans-103"/>
     <use x="364.095703" xlink:href="#DejaVuSans-101"/>
     <use x="425.619141" xlink:href="#DejaVuSans-116"/>
     <use x="464.828125" xlink:href="#DejaVuSans-115"/>
     <use x="516.927734" xlink:href="#DejaVuSans-58"/>
     <use x="550.619141" xlink:href="#DejaVuSans-32"/>
     <use x="582.40625" xlink:href="#DejaVuSans-49"/>
     <use x="646.029297" xlink:href="#DejaVuSans-46"/>
     <use x="677.816406" xlink:href="#DejaVuSans-46"/>
     <use x="709.603516" xlink:href="#DejaVuSans-45"/>
     <use x="745.6875" xlink:href="#DejaVuSans-49"/>
     <use x="809.310547" xlink:href="#DejaVuSans-46"/>
     <use x="841.097656" xlink:href="#DejaVuSans-48"/>
     <use x="904.720703" xlink:href="#DejaVuSans-101"/>
     <use x="966.244141" xlink:href="#DejaVuSans-45"/>
     <use x="1002.328125" xlink:href="#DejaVuSans-52"/>
    </g>
    <!-- 10, 5 instances -->
    <g transform="translate(60.41088 60.954904)scale(0.102 -0.102)">
     <use xlink:href="#DejaVuSans-49"/>
     <use x="63.623047" xlink:href="#DejaVuSans-48"/>
     <use x="127.246094" xlink:href="#DejaVuSans-44"/>
     <use x="159.033203" xlink:href="#DejaVuSans-32"/>
     <use x="190.820312" xlink:href="#DejaVuSans-53"/>
     <use x="254.443359" xlink:href="#DejaVuSans-32"/>
     <use x="286.230469" xlink:href="#DejaVuSans-105"/>
     <use x="314.013672" xlink:href="#DejaVuSans-110"/>
     <use x="377.392578" xlink:href="#DejaVuSans-115"/>
     <use x="429.492188" xlink:href="#DejaVuSans-116"/>
     <use x="468.701172" xlink:href="#DejaVuSans-97"/>
     <use x="529.980469" xlink:href="#DejaVuSans-110"/>
     <use x="593.359375" xlink:href="#DejaVuSans-99"/>
     <use x="648.339844" xlink:href="#DejaVuSans-101"/>
     <use x="709.863281" xlink:href="#DejaVuSans-115"/>
    </g>
   </g>
   <g id="text_19">
    <!-- v2.3.1.83 -->
    <g style="fill:#808080;" transform="translate(174.511187 294.151352)scale(0.1 -0.1)">
     <use xlink:href="#DejaVuSans-118"/>
     <use x="59.179688" xlink:href="#DejaVuSans-50"/>
     <use x="122.802734" xlink:href="#DejaVuSans-46"/>
     <use x="154.589844" xlink:href="#DejaVuSans-51"/>
     <use x="218.212891" xlink:href="#DejaVuSans-46"/>
     <use x="250" xlink:href="#DejaVuSans-49"/>
     <use x="313.623047" xlink:href="#DejaVuSans-46"/>
     <use x="345.410156" xlink:href="#DejaVuSans-56"/>
     <use x="409.033203" xlink:href="#DejaVuSans-51"/>
    </g>
   </g>
   <g id="text_20">
    <!-- 9 Sphere/Schwefel -->
    <defs>
     <path d="M 53.515625 70.515625 
L 53.515625 60.890625 
Q 47.90625 63.578125 42.921875 64.890625 
Q 37.9375 66.21875 33.296875 66.21875 
Q 25.25 66.21875 20.875 63.09375 
Q 16.5 59.96875 16.5 54.203125 
Q 16.5 49.359375 19.40625 46.890625 
Q 22.3125 44.4375 30.421875 42.921875 
L 36.375 41.703125 
Q 47.40625 39.59375 52.65625 34.296875 
Q 57.90625 29 57.90625 20.125 
Q 57.90625 9.515625 50.796875 4.046875 
Q 43.703125 -1.421875 29.984375 -1.421875 
Q 24.8125 -1.421875 18.96875 -0.25 
Q 13.140625 0.921875 6.890625 3.21875 
L 6.890625 13.375 
Q 12.890625 10.015625 18.65625 8.296875 
Q 24.421875 6.59375 29.984375 6.59375 
Q 38.421875 6.59375 43.015625 9.90625 
Q 47.609375 13.234375 47.609375 19.390625 
Q 47.609375 24.75 44.3125 27.78125 
Q 41.015625 30.8125 33.5 32.328125 
L 27.484375 33.5 
Q 16.453125 35.6875 11.515625 40.375 
Q 6.59375 45.0625 6.59375 53.421875 
Q 6.59375 63.09375 13.40625 68.65625 
Q 20.21875 74.21875 32.171875 74.21875 
Q 37.3125 74.21875 42.625 73.28125 
Q 47.953125 72.359375 53.515625 70.515625 
z
" id="DejaVuSans-83"/>
     <path d="M 4.203125 54.6875 
L 13.1875 54.6875 
L 24.421875 12.015625 
L 35.59375 54.6875 
L 46.1875 54.6875 
L 57.421875 12.015625 
L 68.609375 54.6875 
L 77.59375 54.6875 
L 63.28125 0 
L 52.6875 0 
L 40.921875 44.828125 
L 29.109375 0 
L 18.5 0 
z
" id="DejaVuSans-119"/>
    </defs>
    <g transform="translate(104.819 21.648)scale(0.2 -0.2)">
     <use xlink:href="#DejaVuSans-57"/>
     <use x="63.623047" xlink:href="#DejaVuSans-32"/>
     <use x="95.410156" xlink:href="#DejaVuSans-83"/>
     <use x="158.886719" xlink:href="#DejaVuSans-112"/>
     <use x="222.363281" xlink:href="#DejaVuSans-104"/>
     <use x="285.742188" xlink:href="#DejaVuSans-101"/>
     <use x="347.265625" xlink:href="#DejaVuSans-114"/>
     <use x="388.347656" xlink:href="#DejaVuSans-101"/>
     <use x="449.871094" xlink:href="#DejaVuSans-47"/>
     <use x="483.5625" xlink:href="#DejaVuSans-83"/>
     <use x="547.039062" xlink:href="#DejaVuSans-99"/>
     <use x="602.019531" xlink:href="#DejaVuSans-104"/>
     <use x="665.398438" xlink:href="#DejaVuSans-119"/>
     <use x="747.185547" xlink:href="#DejaVuSans-101"/>
     <use x="808.708984" xlink:href="#DejaVuSans-102"/>
     <use x="843.914062" xlink:href="#DejaVuSans-101"/>
     <use x="905.4375" xlink:href="#DejaVuSans-108"/>
    </g>
   </g>
  </g>
 </g>
 <defs>
  <clipPath id="p0f600aa83d">
   <rect height="271.296" width="281.088" x="57.6" y="27.648"/>
  </clipPath>
 </defs>
</svg>
