<?xml version="1.0" encoding="utf-8" standalone="no"?>
<!DOCTYPE svg PUBLIC "-//W3C//DTD SVG 1.1//EN"
  "http://www.w3.org/Graphics/SVG/1.1/DTD/svg11.dtd">
<!-- Created with matplotlib (https://matplotlib.org/) -->
<svg height="345.6pt" version="1.1" viewBox="0 0 460.8 345.6" width="460.8pt" xmlns="http://www.w3.org/2000/svg" xmlns:xlink="http://www.w3.org/1999/xlink">
 <defs>
  <style type="text/css">
*{stroke-linecap:butt;stroke-linejoin:round;}
  </style>
 </defs>
 <g id="figure_1">
  <g id="patch_1">
   <path d="M 0 345.6 
L 460.8 345.6 
L 460.8 0 
L 0 0 
z
" style="fill:#ffffff;"/>
  </g>
  <g id="axes_1">
   <g id="patch_2">
    <path d="M 57.6 298.944 
L 338.688 298.944 
L 338.688 27.648 
L 57.6 27.648 
z
" style="fill:#ffffff;"/>
   </g>
   <g id="line2d_1">
    <path d="M 63.467834 298.944 
L 63.467834 294.312795 
L 71.35013 294.312795 
L 71.35013 285.050384 
L 78.941764 285.050384 
L 78.941764 275.787974 
L 85.66744 275.787974 
L 85.66744 271.156769 
L 95.526106 271.156769 
L 95.526106 257.263153 
L 100.641881 257.263153 
L 100.641881 248.000743 
L 106.802819 248.000743 
L 106.802819 243.369538 
L 111.023335 243.369538 
L 111.023335 234.107127 
L 122.44689 234.107127 
L 122.44689 220.213512 
L 160.830627 220.213512 
L 160.830627 210.951101 
L 163.605703 210.951101 
L 163.605703 201.688691 
L 164.302897 201.688691 
L 164.302897 192.426281 
L 166.500553 192.426281 
L 166.500553 187.795075 
L 171.605309 187.795075 
L 171.605309 173.90146 
L 187.865398 173.90146 
L 187.865398 169.270255 
L 195.609944 169.270255 
L 195.609944 155.376639 
L 205.73579 155.376639 
L 205.73579 146.114229 
L 217.788416 146.114229 
L 217.788416 141.483024 
L 235.634017 141.483024 
L 235.634017 127.589408 
L 237.576796 127.589408 
L 237.576796 122.958203 
L 259.829549 122.958203 
L 259.829549 109.064587 
L 261.57355 109.064587 
L 261.57355 99.802177 
L 264.614265 99.802177 
L 264.614265 90.539766 
L 275.33128 90.539766 
L 275.33128 85.908561 
L 283.665407 85.908561 
L 283.665407 76.646151 
L 283.982116 76.646151 
L 283.982116 62.752535 
L 338.688 62.752535 
" style="fill:none;stroke:#f5deb3;stroke-linecap:square;stroke-width:4;"/>
   </g>
   <g id="line2d_2">
    <defs>
     <path d="M 0 7.778175 
L 7.778175 0 
L 0 -7.778175 
L -7.778175 0 
z
" id="me25718407f" style="stroke:#f5deb3;stroke-linejoin:miter;stroke-width:1.5;"/>
    </defs>
    <g>
     <use style="fill:#f5deb3;stroke:#f5deb3;stroke-linejoin:miter;stroke-width:1.5;" x="111.023335" xlink:href="#me25718407f" y="234.107127"/>
     <use style="fill:#f5deb3;stroke:#f5deb3;stroke-linejoin:miter;stroke-width:1.5;" x="187.865398" xlink:href="#me25718407f" y="173.90146"/>
     <use style="fill:#f5deb3;stroke:#f5deb3;stroke-linejoin:miter;stroke-width:1.5;" x="264.614265" xlink:href="#me25718407f" y="90.539766"/>
     <use style="fill:#f5deb3;stroke:#f5deb3;stroke-linejoin:miter;stroke-width:1.5;" x="283.982116" xlink:href="#me25718407f" y="62.752535"/>
     <use style="fill:#f5deb3;stroke:#f5deb3;stroke-linejoin:miter;stroke-width:1.5;" x="338.688" xlink:href="#me25718407f" y="62.752535"/>
    </g>
   </g>
   <g id="line2d_3">
    <path style="fill:none;stroke:#f5deb3;stroke-linecap:square;stroke-width:4;"/>
    <g/>
   </g>
   <g id="line2d_4">
    <path d="M 338.688 62.752535 
L 369.60768 35.706297 
" style="fill:none;stroke:#f5deb3;stroke-linecap:square;stroke-width:4;"/>
    <g>
     <use style="fill:#f5deb3;stroke:#f5deb3;stroke-linejoin:miter;stroke-width:1.5;" x="338.688" xlink:href="#me25718407f" y="62.752535"/>
     <use style="fill:#f5deb3;stroke:#f5deb3;stroke-linejoin:miter;stroke-width:1.5;" x="369.60768" xlink:href="#me25718407f" y="35.706297"/>
    </g>
   </g>
   <g id="matplotlib.axis_1">
    <g id="xtick_1">
     <g id="line2d_5">
      <path clip-path="url(#p9b80ce9836)" d="M 57.6 298.944 
L 57.6 27.648 
" style="fill:none;stroke:#b0b0b0;stroke-linecap:square;stroke-width:0.8;"/>
     </g>
     <g id="line2d_6">
      <defs>
       <path d="M 0 0 
L 0 3.5 
" id="m18cc983302" style="stroke:#000000;stroke-width:0.8;"/>
      </defs>
      <g>
       <use style="stroke:#000000;stroke-width:0.8;" x="57.6" xlink:href="#m18cc983302" y="298.944"/>
      </g>
     </g>
     <g id="text_1">
      <!-- 0 -->
      <defs>
       <path d="M 31.78125 66.40625 
Q 24.171875 66.40625 20.328125 58.90625 
Q 16.5 51.421875 16.5 36.375 
Q 16.5 21.390625 20.328125 13.890625 
Q 24.171875 6.390625 31.78125 6.390625 
Q 39.453125 6.390625 43.28125 13.890625 
Q 47.125 21.390625 47.125 36.375 
Q 47.125 51.421875 43.28125 58.90625 
Q 39.453125 66.40625 31.78125 66.40625 
z
M 31.78125 74.21875 
Q 44.046875 74.21875 50.515625 64.515625 
Q 56.984375 54.828125 56.984375 36.375 
Q 56.984375 17.96875 50.515625 8.265625 
Q 44.046875 -1.421875 31.78125 -1.421875 
Q 19.53125 -1.421875 13.0625 8.265625 
Q 6.59375 17.96875 6.59375 36.375 
Q 6.59375 54.828125 13.0625 64.515625 
Q 19.53125 74.21875 31.78125 74.21875 
z
" id="DejaVuSans-48"/>
      </defs>
      <g transform="translate(51.2375 321.140875)scale(0.2 -0.2)">
       <use xlink:href="#DejaVuSans-48"/>
      </g>
     </g>
    </g>
    <g id="xtick_2">
     <g id="line2d_7">
      <path clip-path="url(#p9b80ce9836)" d="M 137.910857 298.944 
L 137.910857 27.648 
" style="fill:none;stroke:#b0b0b0;stroke-linecap:square;stroke-width:0.8;"/>
     </g>
     <g id="line2d_8">
      <g>
       <use style="stroke:#000000;stroke-width:0.8;" x="137.910857" xlink:href="#m18cc983302" y="298.944"/>
      </g>
     </g>
     <g id="text_2">
      <!-- 2 -->
      <defs>
       <path d="M 19.1875 8.296875 
L 53.609375 8.296875 
L 53.609375 0 
L 7.328125 0 
L 7.328125 8.296875 
Q 12.9375 14.109375 22.625 23.890625 
Q 32.328125 33.6875 34.8125 36.53125 
Q 39.546875 41.84375 41.421875 45.53125 
Q 43.3125 49.21875 43.3125 52.78125 
Q 43.3125 58.59375 39.234375 62.25 
Q 35.15625 65.921875 28.609375 65.921875 
Q 23.96875 65.921875 18.8125 64.3125 
Q 13.671875 62.703125 7.8125 59.421875 
L 7.8125 69.390625 
Q 13.765625 71.78125 18.9375 73 
Q 24.125 74.21875 28.421875 74.21875 
Q 39.75 74.21875 46.484375 68.546875 
Q 53.21875 62.890625 53.21875 53.421875 
Q 53.21875 48.921875 51.53125 44.890625 
Q 49.859375 40.875 45.40625 35.40625 
Q 44.1875 33.984375 37.640625 27.21875 
Q 31.109375 20.453125 19.1875 8.296875 
z
" id="DejaVuSans-50"/>
      </defs>
      <g transform="translate(131.548357 321.140875)scale(0.2 -0.2)">
       <use xlink:href="#DejaVuSans-50"/>
      </g>
     </g>
    </g>
    <g id="xtick_3">
     <g id="line2d_9">
      <path clip-path="url(#p9b80ce9836)" d="M 218.221714 298.944 
L 218.221714 27.648 
" style="fill:none;stroke:#b0b0b0;stroke-linecap:square;stroke-width:0.8;"/>
     </g>
     <g id="line2d_10">
      <g>
       <use style="stroke:#000000;stroke-width:0.8;" x="218.221714" xlink:href="#m18cc983302" y="298.944"/>
      </g>
     </g>
     <g id="text_3">
      <!-- 4 -->
      <defs>
       <path d="M 37.796875 64.3125 
L 12.890625 25.390625 
L 37.796875 25.390625 
z
M 35.203125 72.90625 
L 47.609375 72.90625 
L 47.609375 25.390625 
L 58.015625 25.390625 
L 58.015625 17.1875 
L 47.609375 17.1875 
L 47.609375 0 
L 37.796875 0 
L 37.796875 17.1875 
L 4.890625 17.1875 
L 4.890625 26.703125 
z
" id="DejaVuSans-52"/>
      </defs>
      <g transform="translate(211.859214 321.140875)scale(0.2 -0.2)">
       <use xlink:href="#DejaVuSans-52"/>
      </g>
     </g>
    </g>
    <g id="xtick_4">
     <g id="line2d_11">
      <path clip-path="url(#p9b80ce9836)" d="M 298.532571 298.944 
L 298.532571 27.648 
" style="fill:none;stroke:#b0b0b0;stroke-linecap:square;stroke-width:0.8;"/>
     </g>
     <g id="line2d_12">
      <g>
       <use style="stroke:#000000;stroke-width:0.8;" x="298.532571" xlink:href="#m18cc983302" y="298.944"/>
      </g>
     </g>
     <g id="text_4">
      <!-- 6 -->
      <defs>
       <path d="M 33.015625 40.375 
Q 26.375 40.375 22.484375 35.828125 
Q 18.609375 31.296875 18.609375 23.390625 
Q 18.609375 15.53125 22.484375 10.953125 
Q 26.375 6.390625 33.015625 6.390625 
Q 39.65625 6.390625 43.53125 10.953125 
Q 47.40625 15.53125 47.40625 23.390625 
Q 47.40625 31.296875 43.53125 35.828125 
Q 39.65625 40.375 33.015625 40.375 
z
M 52.59375 71.296875 
L 52.59375 62.3125 
Q 48.875 64.0625 45.09375 64.984375 
Q 41.3125 65.921875 37.59375 65.921875 
Q 27.828125 65.921875 22.671875 59.328125 
Q 17.53125 52.734375 16.796875 39.40625 
Q 19.671875 43.65625 24.015625 45.921875 
Q 28.375 48.1875 33.59375 48.1875 
Q 44.578125 48.1875 50.953125 41.515625 
Q 57.328125 34.859375 57.328125 23.390625 
Q 57.328125 12.15625 50.6875 5.359375 
Q 44.046875 -1.421875 33.015625 -1.421875 
Q 20.359375 -1.421875 13.671875 8.265625 
Q 6.984375 17.96875 6.984375 36.375 
Q 6.984375 53.65625 15.1875 63.9375 
Q 23.390625 74.21875 37.203125 74.21875 
Q 40.921875 74.21875 44.703125 73.484375 
Q 48.484375 72.75 52.59375 71.296875 
z
" id="DejaVuSans-54"/>
      </defs>
      <g transform="translate(292.170071 321.140875)scale(0.2 -0.2)">
       <use xlink:href="#DejaVuSans-54"/>
      </g>
     </g>
    </g>
    <g id="xtick_5">
     <g id="line2d_13">
      <path clip-path="url(#p9b80ce9836)" d="M 97.755429 298.944 
L 97.755429 27.648 
" style="fill:none;stroke:#b0b0b0;stroke-linecap:square;stroke-width:0.8;"/>
     </g>
     <g id="line2d_14">
      <defs>
       <path d="M 0 0 
L 0 2 
" id="m11a0da9963" style="stroke:#000000;stroke-width:0.6;"/>
      </defs>
      <g>
       <use style="stroke:#000000;stroke-width:0.6;" x="97.755429" xlink:href="#m11a0da9963" y="298.944"/>
      </g>
     </g>
    </g>
    <g id="xtick_6">
     <g id="line2d_15">
      <path clip-path="url(#p9b80ce9836)" d="M 178.066286 298.944 
L 178.066286 27.648 
" style="fill:none;stroke:#b0b0b0;stroke-linecap:square;stroke-width:0.8;"/>
     </g>
     <g id="line2d_16">
      <g>
       <use style="stroke:#000000;stroke-width:0.6;" x="178.066286" xlink:href="#m11a0da9963" y="298.944"/>
      </g>
     </g>
    </g>
    <g id="xtick_7">
     <g id="line2d_17">
      <path clip-path="url(#p9b80ce9836)" d="M 258.377143 298.944 
L 258.377143 27.648 
" style="fill:none;stroke:#b0b0b0;stroke-linecap:square;stroke-width:0.8;"/>
     </g>
     <g id="line2d_18">
      <g>
       <use style="stroke:#000000;stroke-width:0.6;" x="258.377143" xlink:href="#m11a0da9963" y="298.944"/>
      </g>
     </g>
    </g>
    <g id="xtick_8">
     <g id="line2d_19">
      <path clip-path="url(#p9b80ce9836)" d="M 338.688 298.944 
L 338.688 27.648 
" style="fill:none;stroke:#b0b0b0;stroke-linecap:square;stroke-width:0.8;"/>
     </g>
     <g id="line2d_20">
      <g>
       <use style="stroke:#000000;stroke-width:0.6;" x="338.688" xlink:href="#m11a0da9963" y="298.944"/>
      </g>
     </g>
    </g>
    <g id="text_5">
     <!-- log10(# f-evals / dimension) -->
     <defs>
      <path d="M 9.421875 75.984375 
L 18.40625 75.984375 
L 18.40625 0 
L 9.421875 0 
z
" id="DejaVuSans-108"/>
      <path d="M 30.609375 48.390625 
Q 23.390625 48.390625 19.1875 42.75 
Q 14.984375 37.109375 14.984375 27.296875 
Q 14.984375 17.484375 19.15625 11.84375 
Q 23.34375 6.203125 30.609375 6.203125 
Q 37.796875 6.203125 41.984375 11.859375 
Q 46.1875 17.53125 46.1875 27.296875 
Q 46.1875 37.015625 41.984375 42.703125 
Q 37.796875 48.390625 30.609375 48.390625 
z
M 30.609375 56 
Q 42.328125 56 49.015625 48.375 
Q 55.71875 40.765625 55.71875 27.296875 
Q 55.71875 13.875 49.015625 6.21875 
Q 42.328125 -1.421875 30.609375 -1.421875 
Q 18.84375 -1.421875 12.171875 6.21875 
Q 5.515625 13.875 5.515625 27.296875 
Q 5.515625 40.765625 12.171875 48.375 
Q 18.84375 56 30.609375 56 
z
" id="DejaVuSans-111"/>
      <path d="M 45.40625 27.984375 
Q 45.40625 37.75 41.375 43.109375 
Q 37.359375 48.484375 30.078125 48.484375 
Q 22.859375 48.484375 18.828125 43.109375 
Q 14.796875 37.75 14.796875 27.984375 
Q 14.796875 18.265625 18.828125 12.890625 
Q 22.859375 7.515625 30.078125 7.515625 
Q 37.359375 7.515625 41.375 12.890625 
Q 45.40625 18.265625 45.40625 27.984375 
z
M 54.390625 6.78125 
Q 54.390625 -7.171875 48.1875 -13.984375 
Q 42 -20.796875 29.203125 -20.796875 
Q 24.46875 -20.796875 20.265625 -20.09375 
Q 16.0625 -19.390625 12.109375 -17.921875 
L 12.109375 -9.1875 
Q 16.0625 -11.328125 19.921875 -12.34375 
Q 23.78125 -13.375 27.78125 -13.375 
Q 36.625 -13.375 41.015625 -8.765625 
Q 45.40625 -4.15625 45.40625 5.171875 
L 45.40625 9.625 
Q 42.625 4.78125 38.28125 2.390625 
Q 33.9375 0 27.875 0 
Q 17.828125 0 11.671875 7.65625 
Q 5.515625 15.328125 5.515625 27.984375 
Q 5.515625 40.671875 11.671875 48.328125 
Q 17.828125 56 27.875 56 
Q 33.9375 56 38.28125 53.609375 
Q 42.625 51.21875 45.40625 46.390625 
L 45.40625 54.6875 
L 54.390625 54.6875 
z
" id="DejaVuSans-103"/>
      <path d="M 12.40625 8.296875 
L 28.515625 8.296875 
L 28.515625 63.921875 
L 10.984375 60.40625 
L 10.984375 69.390625 
L 28.421875 72.90625 
L 38.28125 72.90625 
L 38.28125 8.296875 
L 54.390625 8.296875 
L 54.390625 0 
L 12.40625 0 
z
" id="DejaVuSans-49"/>
      <path d="M 31 75.875 
Q 24.46875 64.65625 21.28125 53.65625 
Q 18.109375 42.671875 18.109375 31.390625 
Q 18.109375 20.125 21.3125 9.0625 
Q 24.515625 -2 31 -13.1875 
L 23.1875 -13.1875 
Q 15.875 -1.703125 12.234375 9.375 
Q 8.59375 20.453125 8.59375 31.390625 
Q 8.59375 42.28125 12.203125 53.3125 
Q 15.828125 64.359375 23.1875 75.875 
z
" id="DejaVuSans-40"/>
      <path d="M 51.125 44 
L 36.921875 44 
L 32.8125 27.6875 
L 47.125 27.6875 
z
M 43.796875 71.78125 
L 38.71875 51.515625 
L 52.984375 51.515625 
L 58.109375 71.78125 
L 65.921875 71.78125 
L 60.890625 51.515625 
L 76.125 51.515625 
L 76.125 44 
L 58.984375 44 
L 54.984375 27.6875 
L 70.515625 27.6875 
L 70.515625 20.21875 
L 53.078125 20.21875 
L 48 0 
L 40.1875 0 
L 45.21875 20.21875 
L 30.90625 20.21875 
L 25.875 0 
L 18.015625 0 
L 23.09375 20.21875 
L 7.71875 20.21875 
L 7.71875 27.6875 
L 24.90625 27.6875 
L 29 44 
L 13.28125 44 
L 13.28125 51.515625 
L 30.90625 51.515625 
L 35.890625 71.78125 
z
" id="DejaVuSans-35"/>
      <path id="DejaVuSans-32"/>
      <path d="M 37.109375 75.984375 
L 37.109375 68.5 
L 28.515625 68.5 
Q 23.6875 68.5 21.796875 66.546875 
Q 19.921875 64.59375 19.921875 59.515625 
L 19.921875 54.6875 
L 34.71875 54.6875 
L 34.71875 47.703125 
L 19.921875 47.703125 
L 19.921875 0 
L 10.890625 0 
L 10.890625 47.703125 
L 2.296875 47.703125 
L 2.296875 54.6875 
L 10.890625 54.6875 
L 10.890625 58.5 
Q 10.890625 67.625 15.140625 71.796875 
Q 19.390625 75.984375 28.609375 75.984375 
z
" id="DejaVuSans-102"/>
      <path d="M 4.890625 31.390625 
L 31.203125 31.390625 
L 31.203125 23.390625 
L 4.890625 23.390625 
z
" id="DejaVuSans-45"/>
      <path d="M 56.203125 29.59375 
L 56.203125 25.203125 
L 14.890625 25.203125 
Q 15.484375 15.921875 20.484375 11.0625 
Q 25.484375 6.203125 34.421875 6.203125 
Q 39.59375 6.203125 44.453125 7.46875 
Q 49.3125 8.734375 54.109375 11.28125 
L 54.109375 2.78125 
Q 49.265625 0.734375 44.1875 -0.34375 
Q 39.109375 -1.421875 33.890625 -1.421875 
Q 20.796875 -1.421875 13.15625 6.1875 
Q 5.515625 13.8125 5.515625 26.8125 
Q 5.515625 40.234375 12.765625 48.109375 
Q 20.015625 56 32.328125 56 
Q 43.359375 56 49.78125 48.890625 
Q 56.203125 41.796875 56.203125 29.59375 
z
M 47.21875 32.234375 
Q 47.125 39.59375 43.09375 43.984375 
Q 39.0625 48.390625 32.421875 48.390625 
Q 24.90625 48.390625 20.390625 44.140625 
Q 15.875 39.890625 15.1875 32.171875 
z
" id="DejaVuSans-101"/>
      <path d="M 2.984375 54.6875 
L 12.5 54.6875 
L 29.59375 8.796875 
L 46.6875 54.6875 
L 56.203125 54.6875 
L 35.6875 0 
L 23.484375 0 
z
" id="DejaVuSans-118"/>
      <path d="M 34.28125 27.484375 
Q 23.390625 27.484375 19.1875 25 
Q 14.984375 22.515625 14.984375 16.5 
Q 14.984375 11.71875 18.140625 8.90625 
Q 21.296875 6.109375 26.703125 6.109375 
Q 34.1875 6.109375 38.703125 11.40625 
Q 43.21875 16.703125 43.21875 25.484375 
L 43.21875 27.484375 
z
M 52.203125 31.203125 
L 52.203125 0 
L 43.21875 0 
L 43.21875 8.296875 
Q 40.140625 3.328125 35.546875 0.953125 
Q 30.953125 -1.421875 24.3125 -1.421875 
Q 15.921875 -1.421875 10.953125 3.296875 
Q 6 8.015625 6 15.921875 
Q 6 25.140625 12.171875 29.828125 
Q 18.359375 34.515625 30.609375 34.515625 
L 43.21875 34.515625 
L 43.21875 35.40625 
Q 43.21875 41.609375 39.140625 45 
Q 35.0625 48.390625 27.6875 48.390625 
Q 23 48.390625 18.546875 47.265625 
Q 14.109375 46.140625 10.015625 43.890625 
L 10.015625 52.203125 
Q 14.9375 54.109375 19.578125 55.046875 
Q 24.21875 56 28.609375 56 
Q 40.484375 56 46.34375 49.84375 
Q 52.203125 43.703125 52.203125 31.203125 
z
" id="DejaVuSans-97"/>
      <path d="M 44.28125 53.078125 
L 44.28125 44.578125 
Q 40.484375 46.53125 36.375 47.5 
Q 32.28125 48.484375 27.875 48.484375 
Q 21.1875 48.484375 17.84375 46.4375 
Q 14.5 44.390625 14.5 40.28125 
Q 14.5 37.15625 16.890625 35.375 
Q 19.28125 33.59375 26.515625 31.984375 
L 29.59375 31.296875 
Q 39.15625 29.25 43.1875 25.515625 
Q 47.21875 21.78125 47.21875 15.09375 
Q 47.21875 7.46875 41.1875 3.015625 
Q 35.15625 -1.421875 24.609375 -1.421875 
Q 20.21875 -1.421875 15.453125 -0.5625 
Q 10.6875 0.296875 5.421875 2 
L 5.421875 11.28125 
Q 10.40625 8.6875 15.234375 7.390625 
Q 20.0625 6.109375 24.8125 6.109375 
Q 31.15625 6.109375 34.5625 8.28125 
Q 37.984375 10.453125 37.984375 14.40625 
Q 37.984375 18.0625 35.515625 20.015625 
Q 33.0625 21.96875 24.703125 23.78125 
L 21.578125 24.515625 
Q 13.234375 26.265625 9.515625 29.90625 
Q 5.8125 33.546875 5.8125 39.890625 
Q 5.8125 47.609375 11.28125 51.796875 
Q 16.75 56 26.8125 56 
Q 31.78125 56 36.171875 55.265625 
Q 40.578125 54.546875 44.28125 53.078125 
z
" id="DejaVuSans-115"/>
      <path d="M 25.390625 72.90625 
L 33.6875 72.90625 
L 8.296875 -9.28125 
L 0 -9.28125 
z
" id="DejaVuSans-47"/>
      <path d="M 45.40625 46.390625 
L 45.40625 75.984375 
L 54.390625 75.984375 
L 54.390625 0 
L 45.40625 0 
L 45.40625 8.203125 
Q 42.578125 3.328125 38.25 0.953125 
Q 33.9375 -1.421875 27.875 -1.421875 
Q 17.96875 -1.421875 11.734375 6.484375 
Q 5.515625 14.40625 5.515625 27.296875 
Q 5.515625 40.1875 11.734375 48.09375 
Q 17.96875 56 27.875 56 
Q 33.9375 56 38.25 53.625 
Q 42.578125 51.265625 45.40625 46.390625 
z
M 14.796875 27.296875 
Q 14.796875 17.390625 18.875 11.75 
Q 22.953125 6.109375 30.078125 6.109375 
Q 37.203125 6.109375 41.296875 11.75 
Q 45.40625 17.390625 45.40625 27.296875 
Q 45.40625 37.203125 41.296875 42.84375 
Q 37.203125 48.484375 30.078125 48.484375 
Q 22.953125 48.484375 18.875 42.84375 
Q 14.796875 37.203125 14.796875 27.296875 
z
" id="DejaVuSans-100"/>
      <path d="M 9.421875 54.6875 
L 18.40625 54.6875 
L 18.40625 0 
L 9.421875 0 
z
M 9.421875 75.984375 
L 18.40625 75.984375 
L 18.40625 64.59375 
L 9.421875 64.59375 
z
" id="DejaVuSans-105"/>
      <path d="M 52 44.1875 
Q 55.375 50.25 60.0625 53.125 
Q 64.75 56 71.09375 56 
Q 79.640625 56 84.28125 50.015625 
Q 88.921875 44.046875 88.921875 33.015625 
L 88.921875 0 
L 79.890625 0 
L 79.890625 32.71875 
Q 79.890625 40.578125 77.09375 44.375 
Q 74.3125 48.1875 68.609375 48.1875 
Q 61.625 48.1875 57.5625 43.546875 
Q 53.515625 38.921875 53.515625 30.90625 
L 53.515625 0 
L 44.484375 0 
L 44.484375 32.71875 
Q 44.484375 40.625 41.703125 44.40625 
Q 38.921875 48.1875 33.109375 48.1875 
Q 26.21875 48.1875 22.15625 43.53125 
Q 18.109375 38.875 18.109375 30.90625 
L 18.109375 0 
L 9.078125 0 
L 9.078125 54.6875 
L 18.109375 54.6875 
L 18.109375 46.1875 
Q 21.1875 51.21875 25.484375 53.609375 
Q 29.78125 56 35.6875 56 
Q 41.65625 56 45.828125 52.96875 
Q 50 49.953125 52 44.1875 
z
" id="DejaVuSans-109"/>
      <path d="M 54.890625 33.015625 
L 54.890625 0 
L 45.90625 0 
L 45.90625 32.71875 
Q 45.90625 40.484375 42.875 44.328125 
Q 39.84375 48.1875 33.796875 48.1875 
Q 26.515625 48.1875 22.3125 43.546875 
Q 18.109375 38.921875 18.109375 30.90625 
L 18.109375 0 
L 9.078125 0 
L 9.078125 54.6875 
L 18.109375 54.6875 
L 18.109375 46.1875 
Q 21.34375 51.125 25.703125 53.5625 
Q 30.078125 56 35.796875 56 
Q 45.21875 56 50.046875 50.171875 
Q 54.890625 44.34375 54.890625 33.015625 
z
" id="DejaVuSans-110"/>
      <path d="M 8.015625 75.875 
L 15.828125 75.875 
Q 23.140625 64.359375 26.78125 53.3125 
Q 30.421875 42.28125 30.421875 31.390625 
Q 30.421875 20.453125 26.78125 9.375 
Q 23.140625 -1.703125 15.828125 -13.1875 
L 8.015625 -13.1875 
Q 14.5 -2 17.703125 9.0625 
Q 20.90625 20.125 20.90625 31.390625 
Q 20.90625 42.671875 17.703125 53.65625 
Q 14.5 64.65625 8.015625 75.875 
z
" id="DejaVuSans-41"/>
     </defs>
     <g transform="translate(77.303219 342.217594)scale(0.17 -0.17)">
      <use xlink:href="#DejaVuSans-108"/>
      <use x="27.783203" xlink:href="#DejaVuSans-111"/>
      <use x="88.964844" xlink:href="#DejaVuSans-103"/>
      <use x="152.441406" xlink:href="#DejaVuSans-49"/>
      <use x="216.064453" xlink:href="#DejaVuSans-48"/>
      <use x="279.6875" xlink:href="#DejaVuSans-40"/>
      <use x="318.701172" xlink:href="#DejaVuSans-35"/>
      <use x="402.490234" xlink:href="#DejaVuSans-32"/>
      <use x="434.277344" xlink:href="#DejaVuSans-102"/>
      <use x="469.404297" xlink:href="#DejaVuSans-45"/>
      <use x="505.488281" xlink:href="#DejaVuSans-101"/>
      <use x="567.011719" xlink:href="#DejaVuSans-118"/>
      <use x="626.191406" xlink:href="#DejaVuSans-97"/>
      <use x="687.470703" xlink:href="#DejaVuSans-108"/>
      <use x="715.253906" xlink:href="#DejaVuSans-115"/>
      <use x="767.353516" xlink:href="#DejaVuSans-32"/>
      <use x="799.140625" xlink:href="#DejaVuSans-47"/>
      <use x="832.832031" xlink:href="#DejaVuSans-32"/>
      <use x="864.619141" xlink:href="#DejaVuSans-100"/>
      <use x="928.095703" xlink:href="#DejaVuSans-105"/>
      <use x="955.878906" xlink:href="#DejaVuSans-109"/>
      <use x="1053.291016" xlink:href="#DejaVuSans-101"/>
      <use x="1114.814453" xlink:href="#DejaVuSans-110"/>
      <use x="1178.193359" xlink:href="#DejaVuSans-115"/>
      <use x="1230.292969" xlink:href="#DejaVuSans-105"/>
      <use x="1258.076172" xlink:href="#DejaVuSans-111"/>
      <use x="1319.257812" xlink:href="#DejaVuSans-110"/>
      <use x="1382.636719" xlink:href="#DejaVuSans-41"/>
     </g>
    </g>
   </g>
   <g id="matplotlib.axis_2">
    <g id="ytick_1">
     <g id="line2d_21">
      <path clip-path="url(#p9b80ce9836)" d="M 57.6 298.944 
L 338.688 298.944 
" style="fill:none;stroke:#b0b0b0;stroke-linecap:square;stroke-width:0.8;"/>
     </g>
     <g id="line2d_22">
      <defs>
       <path d="M 0 0 
L -3.5 0 
" id="m3e60be46ef" style="stroke:#000000;stroke-width:0.8;"/>
      </defs>
      <g>
       <use style="stroke:#000000;stroke-width:0.8;" x="57.6" xlink:href="#m3e60be46ef" y="298.944"/>
      </g>
     </g>
     <g id="text_6">
      <!-- 0.0 -->
      <defs>
       <path d="M 10.6875 12.40625 
L 21 12.40625 
L 21 0 
L 10.6875 0 
z
" id="DejaVuSans-46"/>
      </defs>
      <g transform="translate(25.155 305.02275)scale(0.16 -0.16)">
       <use xlink:href="#DejaVuSans-48"/>
       <use x="63.623047" xlink:href="#DejaVuSans-46"/>
       <use x="95.410156" xlink:href="#DejaVuSans-48"/>
      </g>
     </g>
    </g>
    <g id="ytick_2">
     <g id="line2d_23">
      <path clip-path="url(#p9b80ce9836)" d="M 57.6 245.22202 
L 338.688 245.22202 
" style="fill:none;stroke:#b0b0b0;stroke-linecap:square;stroke-width:0.8;"/>
     </g>
     <g id="line2d_24">
      <g>
       <use style="stroke:#000000;stroke-width:0.8;" x="57.6" xlink:href="#m3e60be46ef" y="245.22202"/>
      </g>
     </g>
     <g id="text_7">
      <!-- 0.2 -->
      <g transform="translate(25.155 251.30077)scale(0.16 -0.16)">
       <use xlink:href="#DejaVuSans-48"/>
       <use x="63.623047" xlink:href="#DejaVuSans-46"/>
       <use x="95.410156" xlink:href="#DejaVuSans-50"/>
      </g>
     </g>
    </g>
    <g id="ytick_3">
     <g id="line2d_25">
      <path clip-path="url(#p9b80ce9836)" d="M 57.6 191.50004 
L 338.688 191.50004 
" style="fill:none;stroke:#b0b0b0;stroke-linecap:square;stroke-width:0.8;"/>
     </g>
     <g id="line2d_26">
      <g>
       <use style="stroke:#000000;stroke-width:0.8;" x="57.6" xlink:href="#m3e60be46ef" y="191.50004"/>
      </g>
     </g>
     <g id="text_8">
      <!-- 0.4 -->
      <g transform="translate(25.155 197.57879)scale(0.16 -0.16)">
       <use xlink:href="#DejaVuSans-48"/>
       <use x="63.623047" xlink:href="#DejaVuSans-46"/>
       <use x="95.410156" xlink:href="#DejaVuSans-52"/>
      </g>
     </g>
    </g>
    <g id="ytick_4">
     <g id="line2d_27">
      <path clip-path="url(#p9b80ce9836)" d="M 57.6 137.778059 
L 338.688 137.778059 
" style="fill:none;stroke:#b0b0b0;stroke-linecap:square;stroke-width:0.8;"/>
     </g>
     <g id="line2d_28">
      <g>
       <use style="stroke:#000000;stroke-width:0.8;" x="57.6" xlink:href="#m3e60be46ef" y="137.778059"/>
      </g>
     </g>
     <g id="text_9">
      <!-- 0.6 -->
      <g transform="translate(25.155 143.856809)scale(0.16 -0.16)">
       <use xlink:href="#DejaVuSans-48"/>
       <use x="63.623047" xlink:href="#DejaVuSans-46"/>
       <use x="95.410156" xlink:href="#DejaVuSans-54"/>
      </g>
     </g>
    </g>
    <g id="ytick_5">
     <g id="line2d_29">
      <path clip-path="url(#p9b80ce9836)" d="M 57.6 84.056079 
L 338.688 84.056079 
" style="fill:none;stroke:#b0b0b0;stroke-linecap:square;stroke-width:0.8;"/>
     </g>
     <g id="line2d_30">
      <g>
       <use style="stroke:#000000;stroke-width:0.8;" x="57.6" xlink:href="#m3e60be46ef" y="84.056079"/>
      </g>
     </g>
     <g id="text_10">
      <!-- 0.8 -->
      <defs>
       <path d="M 31.78125 34.625 
Q 24.75 34.625 20.71875 30.859375 
Q 16.703125 27.09375 16.703125 20.515625 
Q 16.703125 13.921875 20.71875 10.15625 
Q 24.75 6.390625 31.78125 6.390625 
Q 38.8125 6.390625 42.859375 10.171875 
Q 46.921875 13.96875 46.921875 20.515625 
Q 46.921875 27.09375 42.890625 30.859375 
Q 38.875 34.625 31.78125 34.625 
z
M 21.921875 38.8125 
Q 15.578125 40.375 12.03125 44.71875 
Q 8.5 49.078125 8.5 55.328125 
Q 8.5 64.0625 14.71875 69.140625 
Q 20.953125 74.21875 31.78125 74.21875 
Q 42.671875 74.21875 48.875 69.140625 
Q 55.078125 64.0625 55.078125 55.328125 
Q 55.078125 49.078125 51.53125 44.71875 
Q 48 40.375 41.703125 38.8125 
Q 48.828125 37.15625 52.796875 32.3125 
Q 56.78125 27.484375 56.78125 20.515625 
Q 56.78125 9.90625 50.3125 4.234375 
Q 43.84375 -1.421875 31.78125 -1.421875 
Q 19.734375 -1.421875 13.25 4.234375 
Q 6.78125 9.90625 6.78125 20.515625 
Q 6.78125 27.484375 10.78125 32.3125 
Q 14.796875 37.15625 21.921875 38.8125 
z
M 18.3125 54.390625 
Q 18.3125 48.734375 21.84375 45.5625 
Q 25.390625 42.390625 31.78125 42.390625 
Q 38.140625 42.390625 41.71875 45.5625 
Q 45.3125 48.734375 45.3125 54.390625 
Q 45.3125 60.0625 41.71875 63.234375 
Q 38.140625 66.40625 31.78125 66.40625 
Q 25.390625 66.40625 21.84375 63.234375 
Q 18.3125 60.0625 18.3125 54.390625 
z
" id="DejaVuSans-56"/>
      </defs>
      <g transform="translate(25.155 90.134829)scale(0.16 -0.16)">
       <use xlink:href="#DejaVuSans-48"/>
       <use x="63.623047" xlink:href="#DejaVuSans-46"/>
       <use x="95.410156" xlink:href="#DejaVuSans-56"/>
      </g>
     </g>
    </g>
    <g id="ytick_6">
     <g id="line2d_31">
      <path clip-path="url(#p9b80ce9836)" d="M 57.6 30.334099 
L 338.688 30.334099 
" style="fill:none;stroke:#b0b0b0;stroke-linecap:square;stroke-width:0.8;"/>
     </g>
     <g id="line2d_32">
      <g>
       <use style="stroke:#000000;stroke-width:0.8;" x="57.6" xlink:href="#m3e60be46ef" y="30.334099"/>
      </g>
     </g>
     <g id="text_11">
      <!-- 1.0 -->
      <g transform="translate(25.155 36.412849)scale(0.16 -0.16)">
       <use xlink:href="#DejaVuSans-49"/>
       <use x="63.623047" xlink:href="#DejaVuSans-46"/>
       <use x="95.410156" xlink:href="#DejaVuSans-48"/>
      </g>
     </g>
    </g>
    <g id="text_12">
     <!-- Fraction of function,target pairs -->
     <defs>
      <path d="M 9.8125 72.90625 
L 51.703125 72.90625 
L 51.703125 64.59375 
L 19.671875 64.59375 
L 19.671875 43.109375 
L 48.578125 43.109375 
L 48.578125 34.8125 
L 19.671875 34.8125 
L 19.671875 0 
L 9.8125 0 
z
" id="DejaVuSans-70"/>
      <path d="M 41.109375 46.296875 
Q 39.59375 47.171875 37.8125 47.578125 
Q 36.03125 48 33.890625 48 
Q 26.265625 48 22.1875 43.046875 
Q 18.109375 38.09375 18.109375 28.8125 
L 18.109375 0 
L 9.078125 0 
L 9.078125 54.6875 
L 18.109375 54.6875 
L 18.109375 46.1875 
Q 20.953125 51.171875 25.484375 53.578125 
Q 30.03125 56 36.53125 56 
Q 37.453125 56 38.578125 55.875 
Q 39.703125 55.765625 41.0625 55.515625 
z
" id="DejaVuSans-114"/>
      <path d="M 48.78125 52.59375 
L 48.78125 44.1875 
Q 44.96875 46.296875 41.140625 47.34375 
Q 37.3125 48.390625 33.40625 48.390625 
Q 24.65625 48.390625 19.8125 42.84375 
Q 14.984375 37.3125 14.984375 27.296875 
Q 14.984375 17.28125 19.8125 11.734375 
Q 24.65625 6.203125 33.40625 6.203125 
Q 37.3125 6.203125 41.140625 7.25 
Q 44.96875 8.296875 48.78125 10.40625 
L 48.78125 2.09375 
Q 45.015625 0.34375 40.984375 -0.53125 
Q 36.96875 -1.421875 32.421875 -1.421875 
Q 20.0625 -1.421875 12.78125 6.34375 
Q 5.515625 14.109375 5.515625 27.296875 
Q 5.515625 40.671875 12.859375 48.328125 
Q 20.21875 56 33.015625 56 
Q 37.15625 56 41.109375 55.140625 
Q 45.0625 54.296875 48.78125 52.59375 
z
" id="DejaVuSans-99"/>
      <path d="M 18.3125 70.21875 
L 18.3125 54.6875 
L 36.8125 54.6875 
L 36.8125 47.703125 
L 18.3125 47.703125 
L 18.3125 18.015625 
Q 18.3125 11.328125 20.140625 9.421875 
Q 21.96875 7.515625 27.59375 7.515625 
L 36.8125 7.515625 
L 36.8125 0 
L 27.59375 0 
Q 17.1875 0 13.234375 3.875 
Q 9.28125 7.765625 9.28125 18.015625 
L 9.28125 47.703125 
L 2.6875 47.703125 
L 2.6875 54.6875 
L 9.28125 54.6875 
L 9.28125 70.21875 
z
" id="DejaVuSans-116"/>
      <path d="M 8.5 21.578125 
L 8.5 54.6875 
L 17.484375 54.6875 
L 17.484375 21.921875 
Q 17.484375 14.15625 20.5 10.265625 
Q 23.53125 6.390625 29.59375 6.390625 
Q 36.859375 6.390625 41.078125 11.03125 
Q 45.3125 15.671875 45.3125 23.6875 
L 45.3125 54.6875 
L 54.296875 54.6875 
L 54.296875 0 
L 45.3125 0 
L 45.3125 8.40625 
Q 42.046875 3.421875 37.71875 1 
Q 33.40625 -1.421875 27.6875 -1.421875 
Q 18.265625 -1.421875 13.375 4.4375 
Q 8.5 10.296875 8.5 21.578125 
z
M 31.109375 56 
z
" id="DejaVuSans-117"/>
      <path d="M 11.71875 12.40625 
L 22.015625 12.40625 
L 22.015625 4 
L 14.015625 -11.625 
L 7.71875 -11.625 
L 11.71875 4 
z
" id="DejaVuSans-44"/>
      <path d="M 18.109375 8.203125 
L 18.109375 -20.796875 
L 9.078125 -20.796875 
L 9.078125 54.6875 
L 18.109375 54.6875 
L 18.109375 46.390625 
Q 20.953125 51.265625 25.265625 53.625 
Q 29.59375 56 35.59375 56 
Q 45.5625 56 51.78125 48.09375 
Q 58.015625 40.1875 58.015625 27.296875 
Q 58.015625 14.40625 51.78125 6.484375 
Q 45.5625 -1.421875 35.59375 -1.421875 
Q 29.59375 -1.421875 25.265625 0.953125 
Q 20.953125 3.328125 18.109375 8.203125 
z
M 48.6875 27.296875 
Q 48.6875 37.203125 44.609375 42.84375 
Q 40.53125 48.484375 33.40625 48.484375 
Q 26.265625 48.484375 22.1875 42.84375 
Q 18.109375 37.203125 18.109375 27.296875 
Q 18.109375 17.390625 22.1875 11.75 
Q 26.265625 6.109375 33.40625 6.109375 
Q 40.53125 6.109375 44.609375 11.75 
Q 48.6875 17.390625 48.6875 27.296875 
z
" id="DejaVuSans-112"/>
     </defs>
     <g transform="translate(17.619531 298.435375)rotate(-90)scale(0.17 -0.17)">
      <use xlink:href="#DejaVuSans-70"/>
      <use x="57.410156" xlink:href="#DejaVuSans-114"/>
      <use x="98.523438" xlink:href="#DejaVuSans-97"/>
      <use x="159.802734" xlink:href="#DejaVuSans-99"/>
      <use x="214.783203" xlink:href="#DejaVuSans-116"/>
      <use x="253.992188" xlink:href="#DejaVuSans-105"/>
      <use x="281.775391" xlink:href="#DejaVuSans-111"/>
      <use x="342.957031" xlink:href="#DejaVuSans-110"/>
      <use x="406.335938" xlink:href="#DejaVuSans-32"/>
      <use x="438.123047" xlink:href="#DejaVuSans-111"/>
      <use x="499.304688" xlink:href="#DejaVuSans-102"/>
      <use x="534.509766" xlink:href="#DejaVuSans-32"/>
      <use x="566.296875" xlink:href="#DejaVuSans-102"/>
      <use x="601.501953" xlink:href="#DejaVuSans-117"/>
      <use x="664.880859" xlink:href="#DejaVuSans-110"/>
      <use x="728.259766" xlink:href="#DejaVuSans-99"/>
      <use x="783.240234" xlink:href="#DejaVuSans-116"/>
      <use x="822.449219" xlink:href="#DejaVuSans-105"/>
      <use x="850.232422" xlink:href="#DejaVuSans-111"/>
      <use x="911.414062" xlink:href="#DejaVuSans-110"/>
      <use x="974.792969" xlink:href="#DejaVuSans-44"/>
      <use x="1006.580078" xlink:href="#DejaVuSans-116"/>
      <use x="1045.789062" xlink:href="#DejaVuSans-97"/>
      <use x="1107.068359" xlink:href="#DejaVuSans-114"/>
      <use x="1148.166016" xlink:href="#DejaVuSans-103"/>
      <use x="1211.642578" xlink:href="#DejaVuSans-101"/>
      <use x="1273.166016" xlink:href="#DejaVuSans-116"/>
      <use x="1312.375" xlink:href="#DejaVuSans-32"/>
      <use x="1344.162109" xlink:href="#DejaVuSans-112"/>
      <use x="1407.638672" xlink:href="#DejaVuSans-97"/>
      <use x="1468.917969" xlink:href="#DejaVuSans-105"/>
      <use x="1496.701172" xlink:href="#DejaVuSans-114"/>
      <use x="1537.814453" xlink:href="#DejaVuSans-115"/>
     </g>
    </g>
   </g>
   <g id="line2d_33">
    <defs>
     <path d="M 0 1.5 
C 0.397805 1.5 0.77937 1.341951 1.06066 1.06066 
C 1.341951 0.77937 1.5 0.397805 1.5 0 
C 1.5 -0.397805 1.341951 -0.77937 1.06066 -1.06066 
C 0.77937 -1.341951 0.397805 -1.5 0 -1.5 
C -0.397805 -1.5 -0.77937 -1.341951 -1.06066 -1.06066 
C -1.341951 -0.77937 -1.5 -0.397805 -1.5 0 
C -1.5 0.397805 -1.341951 0.77937 -1.06066 1.06066 
C -0.77937 1.341951 -0.397805 1.5 0 1.5 
z
" id="m942cd7981f" style="stroke:#f5deb3;"/>
    </defs>
    <g>
     <use style="fill:#f5deb3;stroke:#f5deb3;" x="283.982116" xlink:href="#m942cd7981f" y="62.752535"/>
     <use style="fill:#f5deb3;stroke:#f5deb3;" x="283.982116" xlink:href="#m942cd7981f" y="62.752535"/>
    </g>
   </g>
   <g id="line2d_34">
    <defs>
     <path d="M 0 1.5 
C 0.397805 1.5 0.77937 1.341951 1.06066 1.06066 
C 1.341951 0.77937 1.5 0.397805 1.5 0 
C 1.5 -0.397805 1.341951 -0.77937 1.06066 -1.06066 
C 0.77937 -1.341951 0.397805 -1.5 0 -1.5 
C -0.397805 -1.5 -0.77937 -1.341951 -1.06066 -1.06066 
C -1.341951 -0.77937 -1.5 -0.397805 -1.5 0 
C -1.5 0.397805 -1.341951 0.77937 -1.06066 1.06066 
C -0.77937 1.341951 -0.397805 1.5 0 1.5 
z
" id="mf168862c49" style="stroke:#000080;"/>
    </defs>
    <g>
     <use style="fill:#000080;stroke:#000080;" x="213.184737" xlink:href="#mf168862c49" y="136.851818"/>
     <use style="fill:#000080;stroke:#000080;" x="213.184737" xlink:href="#mf168862c49" y="136.851818"/>
    </g>
   </g>
   <g id="line2d_35">
    <path d="M 29.53256 298.944 
L 29.53256 297.091518 
L 48.691568 297.091518 
L 48.691568 295.239036 
L 65.796525 295.239036 
L 65.796525 294.312795 
L 72.867545 294.312795 
L 72.867545 289.68159 
L 84.955534 289.68159 
L 84.955534 285.976625 
L 86.351421 285.976625 
L 86.351421 285.050384 
L 87.643811 285.050384 
L 87.643811 282.271661 
L 88.846997 282.271661 
L 88.846997 278.566697 
L 93.422441 278.566697 
L 93.422441 274.861733 
L 97.043522 274.861733 
L 97.043522 273.009251 
L 97.403108 273.009251 
L 97.403108 268.378046 
L 99.41757 268.378046 
L 99.41757 265.599323 
L 101.223245 265.599323 
L 101.223245 263.746841 
L 102.859376 263.746841 
L 102.859376 262.8206 
L 105.51043 262.8206 
L 105.51043 256.336912 
L 106.802819 256.336912 
L 106.802819 245.22202 
L 107.213174 245.22202 
L 107.213174 241.517056 
L 108.577836 241.517056 
L 108.577836 240.590815 
L 108.948899 240.590815 
L 108.948899 237.812091 
L 109.131511 237.812091 
L 109.131511 235.033368 
L 109.31223 235.033368 
L 109.31223 234.107127 
L 109.843417 234.107127 
L 109.843417 233.180886 
L 110.188761 233.180886 
L 110.188761 220.213512 
L 110.859585 220.213512 
L 110.859585 217.434789 
L 111.346294 217.434789 
L 111.346294 216.508548 
L 111.974805 216.508548 
L 111.974805 215.582307 
L 113.022974 215.582307 
L 113.022974 214.656066 
L 114.552496 214.656066 
L 114.552496 212.803583 
L 115.711251 212.803583 
L 115.711251 210.02486 
L 117.259781 210.02486 
L 117.259781 209.098619 
L 118.039942 209.098619 
L 118.039942 208.172378 
L 119.702083 208.172378 
L 119.702083 205.393655 
L 120.382253 205.393655 
L 120.382253 202.614932 
L 120.944859 202.614932 
L 120.944859 200.76245 
L 121.400219 200.76245 
L 121.489881 198.909968 
L 122.104932 198.909968 
L 122.104932 197.983727 
L 123.593547 197.983727 
L 123.593547 196.131245 
L 124.292765 196.131245 
L 124.292765 194.278763 
L 124.519744 194.278763 
L 124.519744 192.426281 
L 124.891598 192.426281 
L 124.965026 190.573799 
L 125.038147 190.573799 
L 125.038147 188.721316 
L 128.046609 188.721316 
L 128.046609 186.868834 
L 128.411207 186.868834 
L 128.411207 184.090111 
L 129.404667 184.090111 
L 129.404667 182.237629 
L 129.853291 182.237629 
L 129.853291 181.311388 
L 131.987128 181.311388 
L 131.987128 180.385147 
L 132.517825 180.385147 
L 132.517825 178.532665 
L 132.893889 178.532665 
L 132.893889 177.606424 
L 133.443203 177.606424 
L 133.443203 175.753942 
L 133.931979 175.753942 
L 133.931979 174.827701 
L 134.236034 174.827701 
L 134.236034 173.90146 
L 136.720123 173.90146 
L 136.720123 172.048978 
L 137.875944 172.048978 
L 137.875944 170.196496 
L 138.187677 170.196496 
L 138.187677 169.270255 
L 138.527635 169.270255 
L 138.527635 168.344014 
L 138.661784 168.344014 
L 138.661784 167.417773 
L 141.032186 167.417773 
L 141.032186 166.491532 
L 142.51311 166.491532 
L 142.51311 164.63905 
L 143.170282 164.63905 
L 143.170282 163.712808 
L 145.051495 163.712808 
L 145.051495 162.786567 
L 146.452726 162.786567 
L 146.452726 161.860326 
L 147.388869 161.860326 
L 147.388869 160.934085 
L 148.733265 160.934085 
L 148.770728 158.155362 
L 149.682079 158.155362 
L 149.682079 157.229121 
L 152.176471 157.229121 
L 152.176471 156.30288 
L 154.098334 156.30288 
L 154.098334 155.376639 
L 156.212023 155.376639 
L 156.212023 153.524157 
L 159.190962 153.524157 
L 159.190962 152.597916 
L 165.604609 152.597916 
L 165.604609 150.745434 
L 166.124175 150.745434 
L 166.124175 149.819193 
L 166.385083 149.819193 
L 166.385083 148.892952 
L 166.668984 148.892952 
L 166.668984 147.966711 
L 170.521516 147.966711 
L 170.521516 147.04047 
L 175.809197 147.04047 
L 175.809197 146.114229 
L 176.979801 146.114229 
L 176.979801 144.261747 
L 180.759545 144.261747 
L 180.759545 143.335506 
L 192.310337 143.335506 
L 192.310337 142.409265 
L 203.563404 142.409265 
L 203.641637 137.778059 
L 213.184737 137.778059 
L 213.184737 136.851818 
L 338.688 136.851818 
L 338.688 136.851818 
" style="fill:none;stroke:#000080;stroke-linecap:square;stroke-width:1.5;"/>
   </g>
   <g id="line2d_36">
    <defs>
     <path d="M 0 6 
C 1.591219 6 3.117479 5.367802 4.242641 4.242641 
C 5.367802 3.117479 6 1.591219 6 0 
C 6 -1.591219 5.367802 -3.117479 4.242641 -4.242641 
C 3.117479 -5.367802 1.591219 -6 0 -6 
C -1.591219 -6 -3.117479 -5.367802 -4.242641 -4.242641 
C -5.367802 -3.117479 -6 -1.591219 -6 0 
C -6 1.591219 -5.367802 3.117479 -4.242641 4.242641 
C -3.117479 5.367802 -1.591219 6 0 6 
z
" id="m0e8ae3f5b6" style="stroke:#000080;stroke-width:1.5;"/>
    </defs>
    <g>
     <use style="fill-opacity:0;stroke:#000080;stroke-width:1.5;" x="109.131511" xlink:href="#m0e8ae3f5b6" y="237.812091"/>
     <use style="fill-opacity:0;stroke:#000080;stroke-width:1.5;" x="145.051495" xlink:href="#m0e8ae3f5b6" y="162.786567"/>
     <use style="fill-opacity:0;stroke:#000080;stroke-width:1.5;" x="213.184737" xlink:href="#m0e8ae3f5b6" y="137.778059"/>
     <use style="fill-opacity:0;stroke:#000080;stroke-width:1.5;" x="213.184737" xlink:href="#m0e8ae3f5b6" y="136.851818"/>
     <use style="fill-opacity:0;stroke:#000080;stroke-width:1.5;" x="213.184737" xlink:href="#m0e8ae3f5b6" y="136.851818"/>
     <use style="fill-opacity:0;stroke:#000080;stroke-width:1.5;" x="338.688" xlink:href="#m0e8ae3f5b6" y="136.851818"/>
    </g>
   </g>
   <g id="line2d_37">
    <path style="fill:none;stroke:#000080;stroke-linecap:square;stroke-width:1.5;"/>
    <g/>
   </g>
   <g id="line2d_38">
    <path clip-path="url(#p9b80ce9836)" d="M 230.309703 136.851818 
" style="fill:none;stroke:#000080;stroke-linecap:square;stroke-width:1.5;"/>
    <defs>
     <path d="M -12 12 
L 12 -12 
M -12 -12 
L 12 12 
" id="m94cde7f322" style="stroke:#000080;"/>
    </defs>
    <g clip-path="url(#p9b80ce9836)">
     <use style="fill:#000080;stroke:#000080;" x="230.309703" xlink:href="#m94cde7f322" y="136.851818"/>
    </g>
   </g>
   <g id="line2d_39">
    <defs>
     <path d="M 0 1.5 
C 0.397805 1.5 0.77937 1.341951 1.06066 1.06066 
C 1.341951 0.77937 1.5 0.397805 1.5 0 
C 1.5 -0.397805 1.341951 -0.77937 1.06066 -1.06066 
C 0.77937 -1.341951 0.397805 -1.5 0 -1.5 
C -0.397805 -1.5 -0.77937 -1.341951 -1.06066 -1.06066 
C -1.341951 -0.77937 -1.5 -0.397805 -1.5 0 
C -1.5 0.397805 -1.341951 0.77937 -1.06066 1.06066 
C -0.77937 1.341951 -0.397805 1.5 0 1.5 
z
" id="m2b4c44b309" style="stroke:#ff00ff;"/>
    </defs>
    <g>
     <use style="fill:#ff00ff;stroke:#ff00ff;" x="218.168268" xlink:href="#m2b4c44b309" y="113.695792"/>
     <use style="fill:#ff00ff;stroke:#ff00ff;" x="218.168268" xlink:href="#m2b4c44b309" y="113.695792"/>
    </g>
   </g>
   <g id="line2d_40">
    <path d="M 29.53256 298.944 
L 29.53256 298.017759 
L 87.643811 298.017759 
L 87.643811 297.091518 
L 88.846997 297.091518 
L 88.846997 296.165277 
L 94.294587 296.165277 
L 94.294587 293.386554 
L 100.641881 293.386554 
L 100.641881 292.460313 
L 100.934985 292.460313 
L 100.934985 291.534072 
L 104.114542 291.534072 
L 104.114542 290.607831 
L 105.732589 290.607831 
L 105.732589 285.050384 
L 105.951954 285.050384 
L 105.951954 284.124143 
L 106.802819 284.124143 
L 106.802819 283.197902 
L 107.009204 283.197902 
L 107.009204 282.271661 
L 107.213174 282.271661 
L 107.213174 281.34542 
L 108.006005 281.34542 
L 108.006005 278.566697 
L 108.389302 278.566697 
L 108.389302 277.640456 
L 108.577836 277.640456 
L 108.577836 273.009251 
L 109.131511 273.009251 
L 109.131511 272.08301 
L 109.843417 272.08301 
L 109.843417 270.230528 
L 110.188761 270.230528 
L 110.188761 268.378046 
L 110.859585 268.378046 
L 110.859585 267.451805 
L 111.346294 267.451805 
L 111.346294 266.525564 
L 111.819788 266.525564 
L 111.819788 263.746841 
L 112.431755 263.746841 
L 112.431755 262.8206 
L 112.72987 262.8206 
L 112.72987 261.894358 
L 113.594805 261.894358 
L 113.594805 260.968117 
L 113.73488 260.968117 
L 113.73488 258.189394 
L 114.418861 258.189394 
L 114.418861 257.263153 
L 115.958621 257.263153 
L 115.958621 256.336912 
L 117.820578 256.336912 
L 117.820578 254.48443 
L 118.786692 254.48443 
L 118.786692 252.631948 
L 119.80089 252.631948 
L 119.80089 250.779466 
L 120.190611 250.779466 
L 120.190611 248.000743 
L 120.47729 248.000743 
L 120.47729 246.148261 
L 120.852343 246.148261 
L 120.852343 245.22202 
L 122.191052 245.22202 
L 122.191052 244.295779 
L 122.947573 244.295779 
L 123.029641 241.517056 
L 123.192626 241.517056 
L 123.192626 238.738333 
L 124.669438 238.738333 
L 124.669438 237.812091 
L 125.183475 237.812091 
L 125.183475 235.033368 
L 125.612332 235.033368 
L 125.612332 233.180886 
L 126.372183 233.180886 
L 126.372183 232.254645 
L 126.50685 232.254645 
L 126.50685 230.402163 
L 126.773103 230.402163 
L 126.773103 229.475922 
L 127.861412 229.475922 
L 127.861412 227.62344 
L 128.944197 227.62344 
L 128.944197 225.770958 
L 130.290663 225.770958 
L 130.398313 222.992235 
L 131.590764 222.992235 
L 131.590764 221.139753 
L 132.278599 221.139753 
L 132.278599 220.213512 
L 132.612604 220.213512 
L 132.612604 219.287271 
L 133.488207 219.287271 
L 133.488207 218.36103 
L 133.755823 218.36103 
L 133.755823 216.508548 
L 134.149701 216.508548 
L 134.149701 214.656066 
L 134.407429 214.656066 
L 134.450015 212.803583 
L 134.661403 212.803583 
L 134.661403 210.951101 
L 135.641855 210.951101 
L 135.641855 209.098619 
L 135.917737 209.098619 
L 135.917737 208.172378 
L 136.942755 208.172378 
L 136.942755 207.246137 
L 138.426341 207.246137 
L 138.426341 206.319896 
L 138.861092 206.319896 
L 138.861092 204.467414 
L 139.090775 204.467414 
L 139.090775 202.614932 
L 139.285267 202.614932 
L 139.285267 200.76245 
L 139.667863 200.76245 
L 139.667863 199.836209 
L 140.915143 199.836209 
L 141.002999 196.131245 
L 142.805321 196.131245 
L 142.805321 194.278763 
L 142.936543 194.278763 
L 142.936543 193.352522 
L 144.124035 193.352522 
L 144.124035 191.50004 
L 145.508645 191.50004 
L 145.508645 190.573799 
L 146.495417 190.573799 
L 146.495417 188.721316 
L 147.449528 188.721316 
L 147.449528 187.795075 
L 147.848613 187.795075 
L 147.848613 186.868834 
L 148.122637 186.868834 
L 148.122637 185.942593 
L 148.525764 185.942593 
L 148.525764 185.016352 
L 148.919783 185.016352 
L 148.919783 184.090111 
L 149.770648 184.090111 
L 149.770648 183.16387 
L 150.275665 183.16387 
L 150.275665 182.237629 
L 151.865879 182.237629 
L 151.865879 180.385147 
L 153.679772 180.385147 
L 153.679772 179.458906 
L 154.029268 179.458906 
L 154.029268 177.606424 
L 154.439623 177.606424 
L 154.439623 176.680183 
L 155.386785 176.680183 
L 155.386785 175.753942 
L 156.272978 175.753942 
L 156.272978 174.827701 
L 157.380981 174.827701 
L 157.380981 173.90146 
L 157.664184 173.90146 
L 157.664184 172.975219 
L 158.325678 172.975219 
L 158.325678 172.048978 
L 160.200913 172.048978 
L 160.259108 170.196496 
L 160.613753 170.196496 
L 160.613753 168.344014 
L 162.585379 168.344014 
L 162.585379 166.491532 
L 162.762429 166.491532 
L 162.762429 164.63905 
L 163.66156 164.63905 
L 163.66156 163.712808 
L 164.742694 163.712808 
L 164.742694 162.786567 
L 165.047026 162.786567 
L 165.047026 161.860326 
L 165.447111 161.860326 
L 165.447111 160.934085 
L 166.729224 160.934085 
L 166.729224 160.007844 
L 167.294587 160.007844 
L 167.294587 159.081603 
L 169.122941 159.081603 
L 169.221681 156.30288 
L 171.149789 156.30288 
L 171.149789 155.376639 
L 172.970079 155.376639 
L 172.970079 153.524157 
L 174.425876 153.524157 
L 174.425876 152.597916 
L 175.379171 152.597916 
L 175.379171 151.671675 
L 175.613585 151.671675 
L 175.613585 150.745434 
L 176.444557 150.745434 
L 176.444557 148.892952 
L 177.04649 148.892952 
L 177.04649 147.966711 
L 177.426892 147.966711 
L 177.426892 147.04047 
L 179.15797 147.04047 
L 179.187431 145.187988 
L 181.915844 145.187988 
L 181.915844 144.261747 
L 182.719363 144.261747 
L 182.719363 142.409265 
L 184.806326 142.409265 
L 184.806326 141.483024 
L 185.220814 141.483024 
L 185.220814 140.556783 
L 187.505771 140.556783 
L 187.505771 139.630541 
L 187.715618 139.630541 
L 187.715618 138.7043 
L 189.030629 138.7043 
L 189.030629 136.851818 
L 189.684108 136.851818 
L 189.684108 134.999336 
L 191.381394 134.999336 
L 191.381394 133.146854 
L 193.136527 133.146854 
L 193.136527 132.220613 
L 195.103972 132.220613 
L 195.161648 130.368131 
L 196.133859 130.368131 
L 196.133859 129.44189 
L 197.858897 129.44189 
L 197.858897 127.589408 
L 198.287467 127.589408 
L 198.287467 126.663167 
L 201.952114 126.663167 
L 201.952114 125.736926 
L 204.117129 125.736926 
L 204.117129 124.810685 
L 204.395243 124.810685 
L 204.395243 123.884444 
L 205.674306 123.884444 
L 205.674306 122.958203 
L 209.373055 122.958203 
L 209.373055 121.105721 
L 209.756943 121.105721 
L 209.756943 120.17948 
L 209.889613 120.17948 
L 209.889613 118.326998 
L 212.574998 118.326998 
L 212.574998 117.400757 
L 217.246975 117.400757 
L 217.246975 115.548274 
L 218.168268 115.548274 
L 218.168268 113.695792 
L 338.688 113.695792 
L 338.688 113.695792 
" style="fill:none;stroke:#ff00ff;stroke-linecap:square;stroke-width:1.5;"/>
   </g>
   <g id="line2d_41">
    <defs>
     <path d="M 0 8.485281 
L 5.091169 0 
L 0 -8.485281 
L -5.091169 0 
z
" id="m076031123a" style="stroke:#ff00ff;stroke-linejoin:miter;stroke-width:1.5;"/>
    </defs>
    <g>
     <use style="fill-opacity:0;stroke:#ff00ff;stroke-linejoin:miter;stroke-width:1.5;" x="114.418861" xlink:href="#m076031123a" y="258.189394"/>
     <use style="fill-opacity:0;stroke:#ff00ff;stroke-linejoin:miter;stroke-width:1.5;" x="160.613753" xlink:href="#m076031123a" y="168.344014"/>
     <use style="fill-opacity:0;stroke:#ff00ff;stroke-linejoin:miter;stroke-width:1.5;" x="218.168268" xlink:href="#m076031123a" y="115.548274"/>
     <use style="fill-opacity:0;stroke:#ff00ff;stroke-linejoin:miter;stroke-width:1.5;" x="218.168268" xlink:href="#m076031123a" y="113.695792"/>
     <use style="fill-opacity:0;stroke:#ff00ff;stroke-linejoin:miter;stroke-width:1.5;" x="218.168268" xlink:href="#m076031123a" y="113.695792"/>
     <use style="fill-opacity:0;stroke:#ff00ff;stroke-linejoin:miter;stroke-width:1.5;" x="338.688" xlink:href="#m076031123a" y="113.695792"/>
    </g>
   </g>
   <g id="line2d_42">
    <path style="fill:none;stroke:#ff00ff;stroke-linecap:square;stroke-width:1.5;"/>
    <g/>
   </g>
   <g id="line2d_43">
    <path clip-path="url(#p9b80ce9836)" d="M 218.223109 113.695792 
" style="fill:none;stroke:#ff00ff;stroke-linecap:square;stroke-width:1.5;"/>
    <defs>
     <path d="M -12 12 
L 12 -12 
M -12 -12 
L 12 12 
" id="m082aefaf0d" style="stroke:#ff00ff;"/>
    </defs>
    <g clip-path="url(#p9b80ce9836)">
     <use style="fill:#ff00ff;stroke:#ff00ff;" x="218.223109" xlink:href="#m082aefaf0d" y="113.695792"/>
    </g>
   </g>
   <g id="line2d_44">
    <defs>
     <path d="M 0 1.5 
C 0.397805 1.5 0.77937 1.341951 1.06066 1.06066 
C 1.341951 0.77937 1.5 0.397805 1.5 0 
C 1.5 -0.397805 1.341951 -0.77937 1.06066 -1.06066 
C 0.77937 -1.341951 0.397805 -1.5 0 -1.5 
C -0.397805 -1.5 -0.77937 -1.341951 -1.06066 -1.06066 
C -1.341951 -0.77937 -1.5 -0.397805 -1.5 0 
C -1.5 0.397805 -1.341951 0.77937 -1.06066 1.06066 
C -0.77937 1.341951 -0.397805 1.5 0 1.5 
z
" id="m55dca03a43" style="stroke:#ffa500;"/>
    </defs>
    <g>
     <use style="fill:#ffa500;stroke:#ffa500;" x="160.239731" xlink:href="#m55dca03a43" y="172.048978"/>
     <use style="fill:#ffa500;stroke:#ffa500;" x="160.239731" xlink:href="#m55dca03a43" y="172.048978"/>
    </g>
   </g>
   <g id="line2d_45">
    <path d="M 29.53256 298.944 
L 29.53256 297.554638 
L 71.35013 297.554638 
L 71.35013 297.091518 
L 74.263433 297.091518 
L 74.263433 296.628397 
L 79.938565 296.628397 
L 79.938565 294.775915 
L 83.438118 294.775915 
L 83.438118 290.14471 
L 84.955534 290.14471 
L 84.955534 289.68159 
L 86.351421 289.68159 
L 86.351421 289.218469 
L 87.643811 289.218469 
L 87.643811 288.755349 
L 88.846997 288.755349 
L 88.846997 288.292228 
L 89.418828 288.292228 
L 89.418828 287.365987 
L 91.029752 287.365987 
L 91.029752 286.902867 
L 94.714831 286.902867 
L 94.714831 285.513505 
L 95.125186 285.513505 
L 95.125186 282.271661 
L 97.403108 282.271661 
L 97.403108 280.8823 
L 100.343767 280.8823 
L 100.343767 279.029818 
L 101.785851 279.029818 
L 101.785851 278.103577 
L 102.060491 278.103577 
L 102.060491 277.640456 
L 102.597126 277.640456 
L 102.597126 277.177336 
L 102.859376 277.177336 
L 102.859376 276.251095 
L 105.057436 276.251095 
L 105.057436 275.787974 
L 105.951954 275.787974 
L 105.951954 273.935492 
L 107.009204 273.935492 
L 107.009204 273.009251 
L 110.358901 273.009251 
L 110.358901 272.54613 
L 111.346294 272.54613 
L 111.346294 271.156769 
L 111.819788 271.156769 
L 111.819788 269.767407 
L 111.974805 269.767407 
L 111.974805 266.988684 
L 113.167699 266.988684 
L 113.167699 265.136202 
L 114.418861 265.136202 
L 114.418861 254.947551 
L 114.816733 254.947551 
L 114.816733 254.02131 
L 115.077025 254.02131 
L 115.077025 251.705707 
L 115.835374 251.705707 
L 115.835374 251.242587 
L 116.443076 251.242587 
L 116.443076 249.853225 
L 116.562116 249.853225 
L 116.562116 249.390104 
L 116.680349 249.390104 
L 116.680349 248.463863 
L 117.598418 248.463863 
L 117.598418 248.000743 
L 117.709852 248.000743 
L 117.820578 247.074502 
L 118.148599 247.074502 
L 118.148599 245.68514 
L 118.363901 245.68514 
L 118.363901 244.758899 
L 118.681952 244.758899 
L 118.681952 244.295779 
L 118.890808 244.295779 
L 118.890808 243.369538 
L 119.40226 243.369538 
L 119.40226 242.443297 
L 121.489881 242.443297 
L 121.489881 241.053935 
L 122.104932 241.053935 
L 122.104932 240.590815 
L 122.362027 240.590815 
L 122.362027 240.127694 
L 123.514096 240.127694 
L 123.514096 239.664574 
L 124.292765 239.664574 
L 124.292765 237.812091 
L 124.444412 237.812091 
L 124.519744 235.033368 
L 124.594752 235.033368 
L 124.594752 234.570248 
L 124.743806 234.570248 
L 124.743806 233.180886 
L 124.965026 233.180886 
L 124.965026 231.328404 
L 125.612332 231.328404 
L 125.612332 230.402163 
L 127.421479 230.402163 
L 127.48501 229.475922 
L 127.674226 229.475922 
L 127.674226 228.549681 
L 128.229861 228.549681 
L 128.229861 227.62344 
L 128.471239 227.62344 
L 128.471239 227.16032 
L 129.06046 227.16032 
L 129.06046 226.234079 
L 129.233413 226.234079 
L 129.233413 225.770958 
L 129.404667 225.770958 
L 129.404667 224.844717 
L 130.018593 224.844717 
L 130.073348 223.455355 
L 130.398313 223.455355 
L 130.398313 221.139753 
L 130.558552 221.139753 
L 130.61164 219.750391 
L 131.133813 219.750391 
L 131.133813 218.36103 
L 131.490249 218.36103 
L 131.490249 216.971668 
L 131.790072 216.971668 
L 131.839545 216.045427 
L 133.216421 216.045427 
L 133.216421 215.582307 
L 133.398082 215.582307 
L 133.398082 215.119186 
L 133.533096 215.119186 
L 133.533096 214.192945 
L 134.450015 214.192945 
L 134.450015 213.729825 
L 135.035562 213.729825 
L 135.035562 213.266704 
L 135.199312 213.266704 
L 135.199312 212.803583 
L 135.522271 212.803583 
L 135.522271 211.877342 
L 135.681535 211.877342 
L 135.721125 210.02486 
L 136.342635 210.02486 
L 136.342635 209.56174 
L 137.016339 209.56174 
L 137.016339 209.098619 
L 137.343676 209.098619 
L 137.343676 208.172378 
L 137.875944 208.172378 
L 137.910857 206.783017 
L 138.256201 206.783017 
L 138.324456 204.467414 
L 139.155847 204.467414 
L 139.220677 203.078053 
L 139.285267 203.078053 
L 139.317473 201.688691 
L 140.317849 201.688691 
L 140.378508 199.836209 
L 140.88576 199.836209 
L 140.88576 198.446847 
L 141.235139 198.446847 
L 141.292695 197.057486 
L 141.549369 197.057486 
L 141.549369 196.594365 
L 141.830201 196.594365 
L 141.830201 196.131245 
L 142.988757 196.131245 
L 142.988757 195.668124 
L 143.349938 195.668124 
L 143.375453 194.741883 
L 143.628567 194.741883 
L 143.628567 194.278763 
L 143.87806 194.278763 
L 143.87806 193.352522 
L 144.001481 193.352522 
L 144.001481 192.889401 
L 145.189903 192.889401 
L 145.212864 191.50004 
L 145.755062 191.50004 
L 145.821666 190.110678 
L 146.495417 190.110678 
L 146.495417 189.647558 
L 146.686244 189.647558 
L 146.686244 189.184437 
L 147.185137 189.184437 
L 147.226074 187.795075 
L 147.409112 187.795075 
L 147.449528 186.405714 
L 147.70997 186.405714 
L 147.70997 185.479473 
L 148.449693 185.479473 
L 148.48777 184.553232 
L 148.582601 184.553232 
L 148.582601 183.626991 
L 148.864037 183.626991 
L 148.901221 182.70075 
L 149.012299 182.70075 
L 149.012299 181.774509 
L 149.539426 181.774509 
L 149.628721 180.848268 
L 149.770648 180.848268 
L 149.770648 180.385147 
L 149.946449 180.385147 
L 149.946449 178.995786 
L 151.195055 178.995786 
L 151.195055 178.532665 
L 151.405461 178.532665 
L 151.405461 178.069545 
L 151.660987 178.069545 
L 151.660987 177.606424 
L 152.130233 177.606424 
L 152.237931 176.217062 
L 154.043103 176.217062 
L 154.043103 175.290821 
L 154.761093 175.290821 
L 154.761093 174.827701 
L 155.539762 174.827701 
L 155.539762 174.36458 
L 155.754208 174.36458 
L 155.754208 173.90146 
L 155.953659 173.90146 
L 155.953659 173.438339 
L 156.812195 173.438339 
L 156.812195 172.512098 
L 160.239731 172.512098 
L 160.239731 172.048978 
L 338.688 172.048978 
L 338.688 172.048978 
" style="fill:none;stroke:#ffa500;stroke-linecap:square;stroke-width:1.5;"/>
   </g>
   <g id="line2d_46">
    <defs>
     <path d="M 0 -6 
L -1.347084 -1.854102 
L -5.706339 -1.854102 
L -2.179628 0.708204 
L -3.526712 4.854102 
L -0 2.291796 
L 3.526712 4.854102 
L 2.179628 0.708204 
L 5.706339 -1.854102 
L 1.347084 -1.854102 
z
" id="m924567ecca" style="stroke:#ffa500;stroke-linejoin:bevel;stroke-width:1.5;"/>
    </defs>
    <g>
     <use style="fill-opacity:0;stroke:#ffa500;stroke-linejoin:bevel;stroke-width:1.5;" x="89.418828" xlink:href="#m924567ecca" y="287.365987"/>
     <use style="fill-opacity:0;stroke:#ffa500;stroke-linejoin:bevel;stroke-width:1.5;" x="124.965026" xlink:href="#m924567ecca" y="233.180886"/>
     <use style="fill-opacity:0;stroke:#ffa500;stroke-linejoin:bevel;stroke-width:1.5;" x="160.239731" xlink:href="#m924567ecca" y="172.512098"/>
     <use style="fill-opacity:0;stroke:#ffa500;stroke-linejoin:bevel;stroke-width:1.5;" x="160.239731" xlink:href="#m924567ecca" y="172.048978"/>
     <use style="fill-opacity:0;stroke:#ffa500;stroke-linejoin:bevel;stroke-width:1.5;" x="160.239731" xlink:href="#m924567ecca" y="172.048978"/>
     <use style="fill-opacity:0;stroke:#ffa500;stroke-linejoin:bevel;stroke-width:1.5;" x="338.688" xlink:href="#m924567ecca" y="172.048978"/>
    </g>
   </g>
   <g id="line2d_47">
    <path style="fill:none;stroke:#ffa500;stroke-linecap:square;stroke-width:1.5;"/>
    <g/>
   </g>
   <g id="line2d_48">
    <path clip-path="url(#p9b80ce9836)" d="M 258.377213 172.048978 
" style="fill:none;stroke:#ffa500;stroke-linecap:square;stroke-width:1.5;"/>
    <defs>
     <path d="M -12 12 
L 12 -12 
M -12 -12 
L 12 12 
" id="m05679932a9" style="stroke:#ffa500;"/>
    </defs>
    <g clip-path="url(#p9b80ce9836)">
     <use style="fill:#ffa500;stroke:#ffa500;" x="258.377213" xlink:href="#m05679932a9" y="172.048978"/>
    </g>
   </g>
   <g id="line2d_49">
    <defs>
     <path d="M 0 1.5 
C 0.397805 1.5 0.77937 1.341951 1.06066 1.06066 
C 1.341951 0.77937 1.5 0.397805 1.5 0 
C 1.5 -0.397805 1.341951 -0.77937 1.06066 -1.06066 
C 0.77937 -1.341951 0.397805 -1.5 0 -1.5 
C -0.397805 -1.5 -0.77937 -1.341951 -1.06066 -1.06066 
C -1.341951 -0.77937 -1.5 -0.397805 -1.5 0 
C -1.5 0.397805 -1.341951 0.77937 -1.06066 1.06066 
C -0.77937 1.341951 -0.397805 1.5 0 1.5 
z
" id="mbf8928f1f2" style="stroke:#6495ed;"/>
    </defs>
    <g>
     <use style="fill:#6495ed;stroke:#6495ed;" x="184.267247" xlink:href="#mbf8928f1f2" y="152.134795"/>
     <use style="fill:#6495ed;stroke:#6495ed;" x="184.267247" xlink:href="#mbf8928f1f2" y="152.134795"/>
    </g>
   </g>
   <g id="line2d_50">
    <path d="M 29.53256 298.944 
L 29.53256 297.554638 
L 41.620548 297.554638 
L 41.620548 294.775915 
L 53.708537 294.775915 
L 53.708537 293.849674 
L 65.796525 293.849674 
L 65.796525 291.997192 
L 67.850577 291.997192 
L 67.850577 291.534072 
L 69.687988 291.534072 
L 69.687988 290.607831 
L 72.867545 290.607831 
L 72.867545 289.68159 
L 79.938565 289.68159 
L 79.938565 289.218469 
L 80.881459 289.218469 
L 80.881459 288.755349 
L 81.775977 288.755349 
L 81.775977 287.365987 
L 87.009585 287.365987 
L 87.009585 285.050384 
L 88.255778 285.050384 
L 88.255778 284.124143 
L 102.330873 284.124143 
L 102.330873 279.492938 
L 105.285403 279.492938 
L 105.285403 279.029818 
L 106.168594 279.029818 
L 106.168594 275.787974 
L 106.382575 275.787974 
L 106.382575 275.324854 
L 106.593963 275.324854 
L 106.593963 273.472371 
L 111.505558 273.472371 
L 111.505558 273.009251 
L 115.586238 273.009251 
L 115.586238 270.230528 
L 117.486268 270.230528 
L 117.486268 263.746841 
L 117.709852 263.746841 
L 117.709852 263.28372 
L 119.097192 263.28372 
L 119.097192 262.357479 
L 119.40226 262.357479 
L 119.40226 261.894358 
L 121.219499 261.894358 
L 121.219499 261.431238 
L 121.756135 261.431238 
L 121.84399 260.504997 
L 122.018385 260.504997 
L 122.018385 260.041876 
L 122.699028 260.041876 
L 122.699028 259.578756 
L 123.907776 259.578756 
L 123.907776 258.652515 
L 124.062793 258.652515 
L 124.062793 258.189394 
L 125.470548 258.189394 
L 125.470548 256.336912 
L 126.70692 256.336912 
L 126.70692 255.873792 
L 126.904721 255.873792 
L 126.904721 255.410671 
L 127.293718 255.410671 
L 127.293718 251.705707 
L 127.861412 251.705707 
L 127.861412 251.242587 
L 128.168991 251.242587 
L 128.168991 250.779466 
L 128.650105 250.779466 
L 128.650105 250.316346 
L 128.885774 250.316346 
L 128.885774 249.853225 
L 129.175952 249.853225 
L 129.175952 249.390104 
L 130.558552 249.390104 
L 130.558552 248.000743 
L 131.236397 248.000743 
L 131.338382 246.611381 
L 131.690703 246.611381 
L 131.690703 245.68514 
L 131.839545 245.68514 
L 131.839545 243.369538 
L 132.181982 243.369538 
L 132.278599 241.980176 
L 132.70687 241.980176 
L 132.70687 240.590815 
L 133.533096 240.590815 
L 133.533096 240.127694 
L 134.062938 240.127694 
L 134.062938 239.664574 
L 136.150782 239.664574 
L 136.150782 238.738333 
L 136.494612 238.738333 
L 136.494612 237.348971 
L 136.645276 237.348971 
L 136.645276 236.88585 
L 136.905847 236.88585 
L 136.905847 236.42273 
L 137.162581 236.42273 
L 137.162581 234.570248 
L 137.84096 234.570248 
L 137.84096 233.644007 
L 139.730821 233.644007 
L 139.762215 231.328404 
L 139.887228 231.328404 
L 139.887228 230.865284 
L 140.165274 230.865284 
L 140.165274 229.939043 
L 140.708409 229.939043 
L 140.708409 229.475922 
L 140.826843 229.475922 
L 140.826843 229.012802 
L 141.605898 229.012802 
L 141.605898 228.549681 
L 142.726112 228.549681 
L 142.726112 225.307837 
L 143.653678 225.307837 
L 143.653678 224.381596 
L 143.927534 224.381596 
L 143.927534 223.455355 
L 144.197155 223.455355 
L 144.197155 222.065994 
L 144.53439 222.065994 
L 144.55823 220.676632 
L 145.212864 220.676632 
L 145.212864 219.750391 
L 145.976095 219.750391 
L 145.976095 218.82415 
L 146.388493 218.82415 
L 146.388493 218.36103 
L 146.538004 218.36103 
L 146.538004 217.897909 
L 146.77039 217.897909 
L 146.833235 215.582307 
L 147.888024 215.582307 
L 147.907696 214.192945 
L 149.214124 214.192945 
L 149.214124 213.729825 
L 149.981398 213.729825 
L 149.981398 213.266704 
L 150.155097 213.266704 
L 150.155097 212.803583 
L 150.649257 212.803583 
L 150.649257 211.877342 
L 150.783149 211.877342 
L 150.882897 210.487981 
L 151.517715 210.487981 
L 151.517715 209.56174 
L 151.818809 209.56174 
L 151.818809 209.098619 
L 152.360205 209.098619 
L 152.360205 208.172378 
L 153.163864 208.172378 
L 153.163864 205.856776 
L 153.552218 205.856776 
L 153.552218 204.930535 
L 154.029268 204.930535 
L 154.029268 204.004294 
L 154.426099 204.004294 
L 154.426099 203.078053 
L 155.425155 203.078053 
L 155.437927 201.688691 
L 155.539762 201.688691 
L 155.539762 201.225571 
L 156.052535 201.225571 
L 156.052535 200.76245 
L 156.285144 200.76245 
L 156.285144 200.299329 
L 156.634302 200.299329 
L 156.634302 199.836209 
L 156.859328 199.836209 
L 156.953214 198.909968 
L 157.023299 198.909968 
L 157.069866 197.520606 
L 157.335239 197.520606 
L 157.335239 197.057486 
L 157.56276 197.057486 
L 157.664184 194.741883 
L 157.697862 194.741883 
L 157.697862 193.352522 
L 158.476481 193.352522 
L 158.583406 191.96316 
L 158.594062 191.96316 
L 158.594062 191.50004 
L 158.753132 191.50004 
L 158.83738 189.647558 
L 160.210625 189.647558 
L 160.31711 188.721316 
L 161.519653 188.721316 
L 161.519653 188.258196 
L 161.858637 188.258196 
L 161.858637 187.795075 
L 162.043181 187.795075 
L 162.043181 186.868834 
L 162.363654 186.868834 
L 162.363654 185.942593 
L 163.004009 185.942593 
L 163.004009 185.016352 
L 163.127663 185.016352 
L 163.127663 184.553232 
L 163.565696 184.553232 
L 163.66156 183.16387 
L 164.210504 183.16387 
L 164.256762 182.237629 
L 164.569616 182.237629 
L 164.569616 181.774509 
L 164.802494 181.774509 
L 164.802494 180.848268 
L 165.105794 180.848268 
L 165.105794 180.385147 
L 165.230021 180.385147 
L 165.230021 179.922027 
L 165.375047 179.922027 
L 165.461488 178.995786 
L 165.604609 178.995786 
L 165.661531 178.069545 
L 166.500553 178.069545 
L 166.507321 177.143304 
L 166.862349 177.143304 
L 166.862349 176.217062 
L 167.493969 176.217062 
L 167.576907 174.36458 
L 167.991998 174.36458 
L 167.991998 173.90146 
L 168.554604 173.90146 
L 168.554604 172.975219 
L 169.198498 172.975219 
L 169.198498 172.512098 
L 169.514592 172.512098 
L 169.514592 171.585857 
L 169.650749 171.585857 
L 169.650749 170.659616 
L 170.04743 170.659616 
L 170.108089 169.270255 
L 170.261547 169.270255 
L 170.261547 168.344014 
L 170.719297 168.344014 
L 170.719297 167.880893 
L 171.103055 167.880893 
L 171.134225 166.491532 
L 171.463278 166.491532 
L 171.569909 165.10217 
L 171.625505 165.10217 
L 171.625505 164.175929 
L 172.351938 164.175929 
L 172.351938 163.712808 
L 172.549266 163.712808 
L 172.568398 162.786567 
L 172.782205 162.786567 
L 172.871698 161.860326 
L 173.197501 161.860326 
L 173.197501 161.397206 
L 173.639141 161.397206 
L 173.639141 160.934085 
L 173.80915 160.934085 
L 173.80915 160.470965 
L 174.65217 160.470965 
L 174.65217 160.007844 
L 174.7916 160.007844 
L 174.7916 159.544724 
L 175.009071 159.544724 
L 175.009071 159.081603 
L 175.158055 159.081603 
L 175.158055 158.155362 
L 175.781387 158.155362 
L 175.781387 157.229121 
L 177.506309 157.229121 
L 177.614026 156.30288 
L 179.401971 156.30288 
L 179.401971 155.83976 
L 179.559561 155.83976 
L 179.559561 154.913519 
L 181.085245 154.913519 
L 181.085245 153.987278 
L 182.060685 153.987278 
L 182.060685 153.524157 
L 182.660501 153.524157 
L 182.660501 153.061037 
L 183.338605 153.061037 
L 183.338605 152.597916 
L 184.267247 152.597916 
L 184.267247 152.134795 
L 338.688 152.134795 
L 338.688 152.134795 
" style="fill:none;stroke:#6495ed;stroke-linecap:square;stroke-width:1.5;"/>
   </g>
   <g id="line2d_51">
    <defs>
     <path d="M -0 6 
L 6 -6 
L -6 -6 
z
" id="m60d7b86636" style="stroke:#6495ed;stroke-linejoin:miter;stroke-width:1.5;"/>
    </defs>
    <g>
     <use style="fill-opacity:0;stroke:#6495ed;stroke-linejoin:miter;stroke-width:1.5;" x="128.168991" xlink:href="#m60d7b86636" y="250.779466"/>
     <use style="fill-opacity:0;stroke:#6495ed;stroke-linejoin:miter;stroke-width:1.5;" x="165.105794" xlink:href="#m60d7b86636" y="180.385147"/>
     <use style="fill-opacity:0;stroke:#6495ed;stroke-linejoin:miter;stroke-width:1.5;" x="184.267247" xlink:href="#m60d7b86636" y="152.597916"/>
     <use style="fill-opacity:0;stroke:#6495ed;stroke-linejoin:miter;stroke-width:1.5;" x="184.267247" xlink:href="#m60d7b86636" y="152.134795"/>
     <use style="fill-opacity:0;stroke:#6495ed;stroke-linejoin:miter;stroke-width:1.5;" x="184.267247" xlink:href="#m60d7b86636" y="152.134795"/>
     <use style="fill-opacity:0;stroke:#6495ed;stroke-linejoin:miter;stroke-width:1.5;" x="338.688" xlink:href="#m60d7b86636" y="152.134795"/>
    </g>
   </g>
   <g id="line2d_52">
    <path style="fill:none;stroke:#6495ed;stroke-linecap:square;stroke-width:1.5;"/>
    <g/>
   </g>
   <g id="line2d_53">
    <path clip-path="url(#p9b80ce9836)" d="M 258.377317 152.134795 
" style="fill:none;stroke:#6495ed;stroke-linecap:square;stroke-width:1.5;"/>
    <defs>
     <path d="M -12 12 
L 12 -12 
M -12 -12 
L 12 12 
" id="m46ccebc2d4" style="stroke:#6495ed;"/>
    </defs>
    <g clip-path="url(#p9b80ce9836)">
     <use style="fill:#6495ed;stroke:#6495ed;" x="258.377317" xlink:href="#m46ccebc2d4" y="152.134795"/>
    </g>
   </g>
   <g id="line2d_54">
    <path d="M 338.688 172.048978 
L 369.60768 293.571802 
" style="fill:none;stroke:#ffa500;stroke-linecap:square;stroke-width:1.5;"/>
    <g>
     <use style="fill-opacity:0;stroke:#ffa500;stroke-linejoin:bevel;stroke-width:1.5;" x="338.688" xlink:href="#m924567ecca" y="172.048978"/>
     <use style="fill-opacity:0;stroke:#ffa500;stroke-linejoin:bevel;stroke-width:1.5;" x="369.60768" xlink:href="#m924567ecca" y="293.571802"/>
    </g>
   </g>
   <g id="line2d_55">
    <path d="M 338.688 152.134795 
L 369.60768 229.105426 
" style="fill:none;stroke:#6495ed;stroke-linecap:square;stroke-width:1.5;"/>
    <g>
     <use style="fill-opacity:0;stroke:#6495ed;stroke-linejoin:miter;stroke-width:1.5;" x="338.688" xlink:href="#m60d7b86636" y="152.134795"/>
     <use style="fill-opacity:0;stroke:#6495ed;stroke-linejoin:miter;stroke-width:1.5;" x="369.60768" xlink:href="#m60d7b86636" y="229.105426"/>
    </g>
   </g>
   <g id="line2d_56">
    <path d="M 338.688 136.851818 
L 369.60768 164.63905 
" style="fill:none;stroke:#000080;stroke-linecap:square;stroke-width:1.5;"/>
    <g>
     <use style="fill-opacity:0;stroke:#000080;stroke-width:1.5;" x="338.688" xlink:href="#m0e8ae3f5b6" y="136.851818"/>
     <use style="fill-opacity:0;stroke:#000080;stroke-width:1.5;" x="369.60768" xlink:href="#m0e8ae3f5b6" y="164.63905"/>
    </g>
   </g>
   <g id="line2d_57">
    <path d="M 338.688 113.695792 
L 369.60768 100.172673 
" style="fill:none;stroke:#ff00ff;stroke-linecap:square;stroke-width:1.5;"/>
    <g>
     <use style="fill-opacity:0;stroke:#ff00ff;stroke-linejoin:miter;stroke-width:1.5;" x="338.688" xlink:href="#m076031123a" y="113.695792"/>
     <use style="fill-opacity:0;stroke:#ff00ff;stroke-linejoin:miter;stroke-width:1.5;" x="369.60768" xlink:href="#m076031123a" y="100.172673"/>
    </g>
   </g>
   <g id="line2d_58">
    <path d="M 338.688 298.944 
L 338.688 30.334099 
" style="fill:none;stroke:#000000;stroke-linecap:square;stroke-width:1.5;"/>
   </g>
   <g id="patch_3">
    <path d="M 57.6 298.944 
L 57.6 27.648 
" style="fill:none;stroke:#000000;stroke-linecap:square;stroke-linejoin:miter;stroke-width:0.8;"/>
   </g>
   <g id="patch_4">
    <path d="M 338.688 298.944 
L 338.688 27.648 
" style="fill:none;stroke:#000000;stroke-linecap:square;stroke-linejoin:miter;stroke-width:0.8;"/>
   </g>
   <g id="patch_5">
    <path d="M 57.6 298.944 
L 338.688 298.944 
" style="fill:none;stroke:#000000;stroke-linecap:square;stroke-linejoin:miter;stroke-width:0.8;"/>
   </g>
   <g id="patch_6">
    <path d="M 57.6 27.648 
L 338.688 27.648 
" style="fill:none;stroke:#000000;stroke-linecap:square;stroke-linejoin:miter;stroke-width:0.8;"/>
   </g>
   <g id="text_13">
    <!-- COMO-3 bi -->
    <defs>
     <path d="M 64.40625 67.28125 
L 64.40625 56.890625 
Q 59.421875 61.53125 53.78125 63.8125 
Q 48.140625 66.109375 41.796875 66.109375 
Q 29.296875 66.109375 22.65625 58.46875 
Q 16.015625 50.828125 16.015625 36.375 
Q 16.015625 21.96875 22.65625 14.328125 
Q 29.296875 6.6875 41.796875 6.6875 
Q 48.140625 6.6875 53.78125 8.984375 
Q 59.421875 11.28125 64.40625 15.921875 
L 64.40625 5.609375 
Q 59.234375 2.09375 53.4375 0.328125 
Q 47.65625 -1.421875 41.21875 -1.421875 
Q 24.65625 -1.421875 15.125 8.703125 
Q 5.609375 18.84375 5.609375 36.375 
Q 5.609375 53.953125 15.125 64.078125 
Q 24.65625 74.21875 41.21875 74.21875 
Q 47.75 74.21875 53.53125 72.484375 
Q 59.328125 70.75 64.40625 67.28125 
z
" id="DejaVuSans-67"/>
     <path d="M 39.40625 66.21875 
Q 28.65625 66.21875 22.328125 58.203125 
Q 16.015625 50.203125 16.015625 36.375 
Q 16.015625 22.609375 22.328125 14.59375 
Q 28.65625 6.59375 39.40625 6.59375 
Q 50.140625 6.59375 56.421875 14.59375 
Q 62.703125 22.609375 62.703125 36.375 
Q 62.703125 50.203125 56.421875 58.203125 
Q 50.140625 66.21875 39.40625 66.21875 
z
M 39.40625 74.21875 
Q 54.734375 74.21875 63.90625 63.9375 
Q 73.09375 53.65625 73.09375 36.375 
Q 73.09375 19.140625 63.90625 8.859375 
Q 54.734375 -1.421875 39.40625 -1.421875 
Q 24.03125 -1.421875 14.8125 8.828125 
Q 5.609375 19.09375 5.609375 36.375 
Q 5.609375 53.65625 14.8125 63.9375 
Q 24.03125 74.21875 39.40625 74.21875 
z
" id="DejaVuSans-79"/>
     <path d="M 9.8125 72.90625 
L 24.515625 72.90625 
L 43.109375 23.296875 
L 61.8125 72.90625 
L 76.515625 72.90625 
L 76.515625 0 
L 66.890625 0 
L 66.890625 64.015625 
L 48.09375 14.015625 
L 38.1875 14.015625 
L 19.390625 64.015625 
L 19.390625 0 
L 9.8125 0 
z
" id="DejaVuSans-77"/>
     <path d="M 40.578125 39.3125 
Q 47.65625 37.796875 51.625 33 
Q 55.609375 28.21875 55.609375 21.1875 
Q 55.609375 10.40625 48.1875 4.484375 
Q 40.765625 -1.421875 27.09375 -1.421875 
Q 22.515625 -1.421875 17.65625 -0.515625 
Q 12.796875 0.390625 7.625 2.203125 
L 7.625 11.71875 
Q 11.71875 9.328125 16.59375 8.109375 
Q 21.484375 6.890625 26.8125 6.890625 
Q 36.078125 6.890625 40.9375 10.546875 
Q 45.796875 14.203125 45.796875 21.1875 
Q 45.796875 27.640625 41.28125 31.265625 
Q 36.765625 34.90625 28.71875 34.90625 
L 20.21875 34.90625 
L 20.21875 43.015625 
L 29.109375 43.015625 
Q 36.375 43.015625 40.234375 45.921875 
Q 44.09375 48.828125 44.09375 54.296875 
Q 44.09375 59.90625 40.109375 62.90625 
Q 36.140625 65.921875 28.71875 65.921875 
Q 24.65625 65.921875 20.015625 65.03125 
Q 15.375 64.15625 9.8125 62.3125 
L 9.8125 71.09375 
Q 15.4375 72.65625 20.34375 73.4375 
Q 25.25 74.21875 29.59375 74.21875 
Q 40.828125 74.21875 47.359375 69.109375 
Q 53.90625 64.015625 53.90625 55.328125 
Q 53.90625 49.265625 50.4375 45.09375 
Q 46.96875 40.921875 40.578125 39.3125 
z
" id="DejaVuSans-51"/>
     <path d="M 48.6875 27.296875 
Q 48.6875 37.203125 44.609375 42.84375 
Q 40.53125 48.484375 33.40625 48.484375 
Q 26.265625 48.484375 22.1875 42.84375 
Q 18.109375 37.203125 18.109375 27.296875 
Q 18.109375 17.390625 22.1875 11.75 
Q 26.265625 6.109375 33.40625 6.109375 
Q 40.53125 6.109375 44.609375 11.75 
Q 48.6875 17.390625 48.6875 27.296875 
z
M 18.109375 46.390625 
Q 20.953125 51.265625 25.265625 53.625 
Q 29.59375 56 35.59375 56 
Q 45.5625 56 51.78125 48.09375 
Q 58.015625 40.1875 58.015625 27.296875 
Q 58.015625 14.40625 51.78125 6.484375 
Q 45.5625 -1.421875 35.59375 -1.421875 
Q 29.59375 -1.421875 25.265625 0.953125 
Q 20.953125 3.328125 18.109375 8.203125 
L 18.109375 0 
L 9.078125 0 
L 9.078125 75.984375 
L 18.109375 75.984375 
z
" id="DejaVuSans-98"/>
    </defs>
    <g transform="translate(375.22944 298.262739)scale(0.17 -0.17)">
     <use xlink:href="#DejaVuSans-67"/>
     <use x="69.824219" xlink:href="#DejaVuSans-79"/>
     <use x="148.535156" xlink:href="#DejaVuSans-77"/>
     <use x="234.814453" xlink:href="#DejaVuSans-79"/>
     <use x="313.556641" xlink:href="#DejaVuSans-45"/>
     <use x="349.640625" xlink:href="#DejaVuSans-51"/>
     <use x="413.263672" xlink:href="#DejaVuSans-32"/>
     <use x="445.050781" xlink:href="#DejaVuSans-98"/>
     <use x="508.527344" xlink:href="#DejaVuSans-105"/>
    </g>
   </g>
   <g id="text_14">
    <!-- COMO-10 b -->
    <g transform="translate(375.22944 233.796363)scale(0.17 -0.17)">
     <use xlink:href="#DejaVuSans-67"/>
     <use x="69.824219" xlink:href="#DejaVuSans-79"/>
     <use x="148.535156" xlink:href="#DejaVuSans-77"/>
     <use x="234.814453" xlink:href="#DejaVuSans-79"/>
     <use x="313.556641" xlink:href="#DejaVuSans-45"/>
     <use x="349.640625" xlink:href="#DejaVuSans-49"/>
     <use x="413.263672" xlink:href="#DejaVuSans-48"/>
     <use x="476.886719" xlink:href="#DejaVuSans-32"/>
     <use x="508.673828" xlink:href="#DejaVuSans-98"/>
    </g>
   </g>
   <g id="text_15">
    <!-- chvPlusRa -->
    <defs>
     <path d="M 54.890625 33.015625 
L 54.890625 0 
L 45.90625 0 
L 45.90625 32.71875 
Q 45.90625 40.484375 42.875 44.328125 
Q 39.84375 48.1875 33.796875 48.1875 
Q 26.515625 48.1875 22.3125 43.546875 
Q 18.109375 38.921875 18.109375 30.90625 
L 18.109375 0 
L 9.078125 0 
L 9.078125 75.984375 
L 18.109375 75.984375 
L 18.109375 46.1875 
Q 21.34375 51.125 25.703125 53.5625 
Q 30.078125 56 35.796875 56 
Q 45.21875 56 50.046875 50.171875 
Q 54.890625 44.34375 54.890625 33.015625 
z
" id="DejaVuSans-104"/>
     <path d="M 19.671875 64.796875 
L 19.671875 37.40625 
L 32.078125 37.40625 
Q 38.96875 37.40625 42.71875 40.96875 
Q 46.484375 44.53125 46.484375 51.125 
Q 46.484375 57.671875 42.71875 61.234375 
Q 38.96875 64.796875 32.078125 64.796875 
z
M 9.8125 72.90625 
L 32.078125 72.90625 
Q 44.34375 72.90625 50.609375 67.359375 
Q 56.890625 61.8125 56.890625 51.125 
Q 56.890625 40.328125 50.609375 34.8125 
Q 44.34375 29.296875 32.078125 29.296875 
L 19.671875 29.296875 
L 19.671875 0 
L 9.8125 0 
z
" id="DejaVuSans-80"/>
     <path d="M 44.390625 34.1875 
Q 47.5625 33.109375 50.5625 29.59375 
Q 53.5625 26.078125 56.59375 19.921875 
L 66.609375 0 
L 56 0 
L 46.6875 18.703125 
Q 43.0625 26.03125 39.671875 28.421875 
Q 36.28125 30.8125 30.421875 30.8125 
L 19.671875 30.8125 
L 19.671875 0 
L 9.8125 0 
L 9.8125 72.90625 
L 32.078125 72.90625 
Q 44.578125 72.90625 50.734375 67.671875 
Q 56.890625 62.453125 56.890625 51.90625 
Q 56.890625 45.015625 53.6875 40.46875 
Q 50.484375 35.9375 44.390625 34.1875 
z
M 19.671875 64.796875 
L 19.671875 38.921875 
L 32.078125 38.921875 
Q 39.203125 38.921875 42.84375 42.21875 
Q 46.484375 45.515625 46.484375 51.90625 
Q 46.484375 58.296875 42.84375 61.546875 
Q 39.203125 64.796875 32.078125 64.796875 
z
" id="DejaVuSans-82"/>
    </defs>
    <g transform="translate(375.22944 169.329987)scale(0.17 -0.17)">
     <use xlink:href="#DejaVuSans-99"/>
     <use x="54.980469" xlink:href="#DejaVuSans-104"/>
     <use x="118.359375" xlink:href="#DejaVuSans-118"/>
     <use x="177.539062" xlink:href="#DejaVuSans-80"/>
     <use x="237.841797" xlink:href="#DejaVuSans-108"/>
     <use x="265.625" xlink:href="#DejaVuSans-117"/>
     <use x="329.003906" xlink:href="#DejaVuSans-115"/>
     <use x="381.103516" xlink:href="#DejaVuSans-82"/>
     <use x="450.554688" xlink:href="#DejaVuSans-97"/>
    </g>
   </g>
   <g id="text_16">
    <!-- chv-1e-1t -->
    <g transform="translate(375.22944 104.863611)scale(0.17 -0.17)">
     <use xlink:href="#DejaVuSans-99"/>
     <use x="54.980469" xlink:href="#DejaVuSans-104"/>
     <use x="118.359375" xlink:href="#DejaVuSans-118"/>
     <use x="177.507812" xlink:href="#DejaVuSans-45"/>
     <use x="213.591797" xlink:href="#DejaVuSans-49"/>
     <use x="277.214844" xlink:href="#DejaVuSans-101"/>
     <use x="338.738281" xlink:href="#DejaVuSans-45"/>
     <use x="374.822266" xlink:href="#DejaVuSans-49"/>
     <use x="438.445312" xlink:href="#DejaVuSans-116"/>
    </g>
   </g>
   <g id="text_17">
    <!-- best 2016 -->
    <g transform="translate(375.22944 40.397235)scale(0.17 -0.17)">
     <use xlink:href="#DejaVuSans-98"/>
     <use x="63.476562" xlink:href="#DejaVuSans-101"/>
     <use x="125" xlink:href="#DejaVuSans-115"/>
     <use x="177.099609" xlink:href="#DejaVuSans-116"/>
     <use x="216.308594" xlink:href="#DejaVuSans-32"/>
     <use x="248.095703" xlink:href="#DejaVuSans-50"/>
     <use x="311.71875" xlink:href="#DejaVuSans-48"/>
     <use x="375.341797" xlink:href="#DejaVuSans-49"/>
     <use x="438.964844" xlink:href="#DejaVuSans-54"/>
    </g>
   </g>
   <g id="text_18">
    <!-- bbob-biobj f26, 5-D -->
    <defs>
     <path d="M 9.421875 54.6875 
L 18.40625 54.6875 
L 18.40625 -0.984375 
Q 18.40625 -11.421875 14.421875 -16.109375 
Q 10.453125 -20.796875 1.609375 -20.796875 
L -1.8125 -20.796875 
L -1.8125 -13.1875 
L 0.59375 -13.1875 
Q 5.71875 -13.1875 7.5625 -10.8125 
Q 9.421875 -8.453125 9.421875 -0.984375 
z
M 9.421875 75.984375 
L 18.40625 75.984375 
L 18.40625 64.59375 
L 9.421875 64.59375 
z
" id="DejaVuSans-106"/>
     <path d="M 10.796875 72.90625 
L 49.515625 72.90625 
L 49.515625 64.59375 
L 19.828125 64.59375 
L 19.828125 46.734375 
Q 21.96875 47.46875 24.109375 47.828125 
Q 26.265625 48.1875 28.421875 48.1875 
Q 40.625 48.1875 47.75 41.5 
Q 54.890625 34.8125 54.890625 23.390625 
Q 54.890625 11.625 47.5625 5.09375 
Q 40.234375 -1.421875 26.90625 -1.421875 
Q 22.3125 -1.421875 17.546875 -0.640625 
Q 12.796875 0.140625 7.71875 1.703125 
L 7.71875 11.625 
Q 12.109375 9.234375 16.796875 8.0625 
Q 21.484375 6.890625 26.703125 6.890625 
Q 35.15625 6.890625 40.078125 11.328125 
Q 45.015625 15.765625 45.015625 23.390625 
Q 45.015625 31 40.078125 35.4375 
Q 35.15625 39.890625 26.703125 39.890625 
Q 22.75 39.890625 18.8125 39.015625 
Q 14.890625 38.140625 10.796875 36.28125 
z
" id="DejaVuSans-53"/>
     <path d="M 19.671875 64.796875 
L 19.671875 8.109375 
L 31.59375 8.109375 
Q 46.6875 8.109375 53.6875 14.9375 
Q 60.6875 21.78125 60.6875 36.53125 
Q 60.6875 51.171875 53.6875 57.984375 
Q 46.6875 64.796875 31.59375 64.796875 
z
M 9.8125 72.90625 
L 30.078125 72.90625 
Q 51.265625 72.90625 61.171875 64.09375 
Q 71.09375 55.28125 71.09375 36.53125 
Q 71.09375 17.671875 61.125 8.828125 
Q 51.171875 0 30.078125 0 
L 9.8125 0 
z
" id="DejaVuSans-68"/>
    </defs>
    <g transform="translate(60.41088 38.111366)scale(0.102 -0.102)">
     <use xlink:href="#DejaVuSans-98"/>
     <use x="63.476562" xlink:href="#DejaVuSans-98"/>
     <use x="126.953125" xlink:href="#DejaVuSans-111"/>
     <use x="188.134766" xlink:href="#DejaVuSans-98"/>
     <use x="251.611328" xlink:href="#DejaVuSans-45"/>
     <use x="287.695312" xlink:href="#DejaVuSans-98"/>
     <use x="351.171875" xlink:href="#DejaVuSans-105"/>
     <use x="378.955078" xlink:href="#DejaVuSans-111"/>
     <use x="440.136719" xlink:href="#DejaVuSans-98"/>
     <use x="503.613281" xlink:href="#DejaVuSans-106"/>
     <use x="531.396484" xlink:href="#DejaVuSans-32"/>
     <use x="563.183594" xlink:href="#DejaVuSans-102"/>
     <use x="598.388672" xlink:href="#DejaVuSans-50"/>
     <use x="662.011719" xlink:href="#DejaVuSans-54"/>
     <use x="725.634766" xlink:href="#DejaVuSans-44"/>
     <use x="757.421875" xlink:href="#DejaVuSans-32"/>
     <use x="789.208984" xlink:href="#DejaVuSans-53"/>
     <use x="852.832031" xlink:href="#DejaVuSans-45"/>
     <use x="888.916016" xlink:href="#DejaVuSans-68"/>
    </g>
    <!-- 58 targets: 1..-1.0e-4 -->
    <defs>
     <path d="M 11.71875 12.40625 
L 22.015625 12.40625 
L 22.015625 0 
L 11.71875 0 
z
M 11.71875 51.703125 
L 22.015625 51.703125 
L 22.015625 39.3125 
L 11.71875 39.3125 
z
" id="DejaVuSans-58"/>
    </defs>
    <g transform="translate(60.41088 49.533135)scale(0.102 -0.102)">
     <use xlink:href="#DejaVuSans-53"/>
     <use x="63.623047" xlink:href="#DejaVuSans-56"/>
     <use x="127.246094" xlink:href="#DejaVuSans-32"/>
     <use x="159.033203" xlink:href="#DejaVuSans-116"/>
     <use x="198.242188" xlink:href="#DejaVuSans-97"/>
     <use x="259.521484" xlink:href="#DejaVuSans-114"/>
     <use x="300.619141" xlink:href="#DejaVuSans-103"/>
     <use x="364.095703" xlink:href="#DejaVuSans-101"/>
     <use x="425.619141" xlink:href="#DejaVuSans-116"/>
     <use x="464.828125" xlink:href="#DejaVuSans-115"/>
     <use x="516.927734" xlink:href="#DejaVuSans-58"/>
     <use x="550.619141" xlink:href="#DejaVuSans-32"/>
     <use x="582.40625" xlink:href="#DejaVuSans-49"/>
     <use x="646.029297" xlink:href="#DejaVuSans-46"/>
     <use x="677.816406" xlink:href="#DejaVuSans-46"/>
     <use x="709.603516" xlink:href="#DejaVuSans-45"/>
     <use x="745.6875" xlink:href="#DejaVuSans-49"/>
     <use x="809.310547" xlink:href="#DejaVuSans-46"/>
     <use x="841.097656" xlink:href="#DejaVuSans-48"/>
     <use x="904.720703" xlink:href="#DejaVuSans-101"/>
     <use x="966.244141" xlink:href="#DejaVuSans-45"/>
     <use x="1002.328125" xlink:href="#DejaVuSans-52"/>
    </g>
    <!-- 10, 5 instances -->
    <g transform="translate(60.41088 60.954904)scale(0.102 -0.102)">
     <use xlink:href="#DejaVuSans-49"/>
     <use x="63.623047" xlink:href="#DejaVuSans-48"/>
     <use x="127.246094" xlink:href="#DejaVuSans-44"/>
     <use x="159.033203" xlink:href="#DejaVuSans-32"/>
     <use x="190.820312" xlink:href="#DejaVuSans-53"/>
     <use x="254.443359" xlink:href="#DejaVuSans-32"/>
     <use x="286.230469" xlink:href="#DejaVuSans-105"/>
     <use x="314.013672" xlink:href="#DejaVuSans-110"/>
     <use x="377.392578" xlink:href="#DejaVuSans-115"/>
     <use x="429.492188" xlink:href="#DejaVuSans-116"/>
     <use x="468.701172" xlink:href="#DejaVuSans-97"/>
     <use x="529.980469" xlink:href="#DejaVuSans-110"/>
     <use x="593.359375" xlink:href="#DejaVuSans-99"/>
     <use x="648.339844" xlink:href="#DejaVuSans-101"/>
     <use x="709.863281" xlink:href="#DejaVuSans-115"/>
    </g>
   </g>
   <g id="text_19">
    <!-- v2.3.1.83 -->
    <g style="fill:#808080;" transform="translate(174.511187 294.151352)scale(0.1 -0.1)">
     <use xlink:href="#DejaVuSans-118"/>
     <use x="59.179688" xlink:href="#DejaVuSans-50"/>
     <use x="122.802734" xlink:href="#DejaVuSans-46"/>
     <use x="154.589844" xlink:href="#DejaVuSans-51"/>
     <use x="218.212891" xlink:href="#DejaVuSans-46"/>
     <use x="250" xlink:href="#DejaVuSans-49"/>
     <use x="313.623047" xlink:href="#DejaVuSans-46"/>
     <use x="345.410156" xlink:href="#DejaVuSans-56"/>
     <use x="409.033203" xlink:href="#DejaVuSans-51"/>
    </g>
   </g>
   <g id="text_20">
    <!-- 26 Attr. sector/Schwefel -->
    <defs>
     <path d="M 34.1875 63.1875 
L 20.796875 26.90625 
L 47.609375 26.90625 
z
M 28.609375 72.90625 
L 39.796875 72.90625 
L 67.578125 0 
L 57.328125 0 
L 50.6875 18.703125 
L 17.828125 18.703125 
L 11.1875 0 
L 0.78125 0 
z
" id="DejaVuSans-65"/>
     <path d="M 53.515625 70.515625 
L 53.515625 60.890625 
Q 47.90625 63.578125 42.921875 64.890625 
Q 37.9375 66.21875 33.296875 66.21875 
Q 25.25 66.21875 20.875 63.09375 
Q 16.5 59.96875 16.5 54.203125 
Q 16.5 49.359375 19.40625 46.890625 
Q 22.3125 44.4375 30.421875 42.921875 
L 36.375 41.703125 
Q 47.40625 39.59375 52.65625 34.296875 
Q 57.90625 29 57.90625 20.125 
Q 57.90625 9.515625 50.796875 4.046875 
Q 43.703125 -1.421875 29.984375 -1.421875 
Q 24.8125 -1.421875 18.96875 -0.25 
Q 13.140625 0.921875 6.890625 3.21875 
L 6.890625 13.375 
Q 12.890625 10.015625 18.65625 8.296875 
Q 24.421875 6.59375 29.984375 6.59375 
Q 38.421875 6.59375 43.015625 9.90625 
Q 47.609375 13.234375 47.609375 19.390625 
Q 47.609375 24.75 44.3125 27.78125 
Q 41.015625 30.8125 33.5 32.328125 
L 27.484375 33.5 
Q 16.453125 35.6875 11.515625 40.375 
Q 6.59375 45.0625 6.59375 53.421875 
Q 6.59375 63.09375 13.40625 68.65625 
Q 20.21875 74.21875 32.171875 74.21875 
Q 37.3125 74.21875 42.625 73.28125 
Q 47.953125 72.359375 53.515625 70.515625 
z
" id="DejaVuSans-83"/>
     <path d="M 4.203125 54.6875 
L 13.1875 54.6875 
L 24.421875 12.015625 
L 35.59375 54.6875 
L 46.1875 54.6875 
L 57.421875 12.015625 
L 68.609375 54.6875 
L 77.59375 54.6875 
L 63.28125 0 
L 52.6875 0 
L 40.921875 44.828125 
L 29.109375 0 
L 18.5 0 
z
" id="DejaVuSans-119"/>
    </defs>
    <g transform="translate(77.761187 21.648)scale(0.2 -0.2)">
     <use xlink:href="#DejaVuSans-50"/>
     <use x="63.623047" xlink:href="#DejaVuSans-54"/>
     <use x="127.246094" xlink:href="#DejaVuSans-32"/>
     <use x="159.033203" xlink:href="#DejaVuSans-65"/>
     <use x="227.425781" xlink:href="#DejaVuSans-116"/>
     <use x="266.634766" xlink:href="#DejaVuSans-116"/>
     <use x="305.84375" xlink:href="#DejaVuSans-114"/>
     <use x="346.816406" xlink:href="#DejaVuSans-46"/>
     <use x="378.603516" xlink:href="#DejaVuSans-32"/>
     <use x="410.390625" xlink:href="#DejaVuSans-115"/>
     <use x="462.490234" xlink:href="#DejaVuSans-101"/>
     <use x="524.013672" xlink:href="#DejaVuSans-99"/>
     <use x="578.994141" xlink:href="#DejaVuSans-116"/>
     <use x="618.203125" xlink:href="#DejaVuSans-111"/>
     <use x="679.384766" xlink:href="#DejaVuSans-114"/>
     <use x="720.498047" xlink:href="#DejaVuSans-47"/>
     <use x="754.189453" xlink:href="#DejaVuSans-83"/>
     <use x="817.666016" xlink:href="#DejaVuSans-99"/>
     <use x="872.646484" xlink:href="#DejaVuSans-104"/>
     <use x="936.025391" xlink:href="#DejaVuSans-119"/>
     <use x="1017.8125" xlink:href="#DejaVuSans-101"/>
     <use x="1079.335938" xlink:href="#DejaVuSans-102"/>
     <use x="1114.541016" xlink:href="#DejaVuSans-101"/>
     <use x="1176.064453" xlink:href="#DejaVuSans-108"/>
    </g>
   </g>
  </g>
 </g>
 <defs>
  <clipPath id="p9b80ce9836">
   <rect height="271.296" width="281.088" x="57.6" y="27.648"/>
  </clipPath>
 </defs>
</svg>
