<?xml version="1.0" encoding="utf-8" standalone="no"?>
<!DOCTYPE svg PUBLIC "-//W3C//DTD SVG 1.1//EN"
  "http://www.w3.org/Graphics/SVG/1.1/DTD/svg11.dtd">
<!-- Created with matplotlib (https://matplotlib.org/) -->
<svg height="345.6pt" version="1.1" viewBox="0 0 460.8 345.6" width="460.8pt" xmlns="http://www.w3.org/2000/svg" xmlns:xlink="http://www.w3.org/1999/xlink">
 <defs>
  <style type="text/css">
*{stroke-linecap:butt;stroke-linejoin:round;}
  </style>
 </defs>
 <g id="figure_1">
  <g id="patch_1">
   <path d="M 0 345.6 
L 460.8 345.6 
L 460.8 0 
L 0 0 
z
" style="fill:#ffffff;"/>
  </g>
  <g id="axes_1">
   <g id="patch_2">
    <path d="M 57.6 298.944 
L 338.688 298.944 
L 338.688 27.648 
L 57.6 27.648 
z
" style="fill:#ffffff;"/>
   </g>
   <g id="line2d_1">
    <path d="M 45.512012 298.944 
L 45.512012 285.050384 
L 64.67102 285.050384 
L 64.67102 275.787974 
L 76.759008 275.787974 
L 76.759008 271.156769 
L 91.535274 271.156769 
L 91.535274 257.263153 
L 96.86091 257.263153 
L 96.86091 248.000743 
L 105.951954 248.000743 
L 105.951954 243.369538 
L 114.751048 243.369538 
L 114.751048 234.107127 
L 124.743806 234.107127 
L 124.743806 220.213512 
L 132.30267 220.213512 
L 132.30267 210.951101 
L 136.361705 210.951101 
L 136.361705 201.688691 
L 140.871049 201.688691 
L 140.871049 192.426281 
L 147.317833 192.426281 
L 147.317833 187.795075 
L 154.405793 187.795075 
L 154.405793 173.90146 
L 160.961329 173.90146 
L 160.961329 169.270255 
L 169.099626 169.270255 
L 169.099626 155.376639 
L 178.101129 155.376639 
L 178.101129 146.114229 
L 188.302324 146.114229 
L 188.302324 141.483024 
L 196.346067 141.483024 
L 196.346067 127.589408 
L 204.519651 127.589408 
L 204.519651 122.958203 
L 212.18495 122.958203 
L 212.18495 109.064587 
L 219.327317 109.064587 
L 219.327317 99.802177 
L 226.477541 99.802177 
L 226.477541 90.539766 
L 233.032824 90.539766 
L 233.032824 85.908561 
L 238.24653 85.908561 
L 238.24653 76.646151 
L 243.967636 76.646151 
L 243.967636 62.752535 
L 338.688 62.752535 
" style="fill:none;stroke:#f5deb3;stroke-linecap:square;stroke-width:4;"/>
   </g>
   <g id="line2d_2">
    <defs>
     <path d="M 0 7.778175 
L 7.778175 0 
L 0 -7.778175 
L -7.778175 0 
z
" id="mb15479bc3e" style="stroke:#f5deb3;stroke-linejoin:miter;stroke-width:1.5;"/>
    </defs>
    <g>
     <use style="fill:#f5deb3;stroke:#f5deb3;stroke-linejoin:miter;stroke-width:1.5;" x="105.951954" xlink:href="#mb15479bc3e" y="248.000743"/>
     <use style="fill:#f5deb3;stroke:#f5deb3;stroke-linejoin:miter;stroke-width:1.5;" x="160.961329" xlink:href="#mb15479bc3e" y="169.270255"/>
     <use style="fill:#f5deb3;stroke:#f5deb3;stroke-linejoin:miter;stroke-width:1.5;" x="219.327317" xlink:href="#mb15479bc3e" y="109.064587"/>
     <use style="fill:#f5deb3;stroke:#f5deb3;stroke-linejoin:miter;stroke-width:1.5;" x="243.967636" xlink:href="#mb15479bc3e" y="76.646151"/>
     <use style="fill:#f5deb3;stroke:#f5deb3;stroke-linejoin:miter;stroke-width:1.5;" x="243.967636" xlink:href="#mb15479bc3e" y="62.752535"/>
     <use style="fill:#f5deb3;stroke:#f5deb3;stroke-linejoin:miter;stroke-width:1.5;" x="338.688" xlink:href="#mb15479bc3e" y="62.752535"/>
    </g>
   </g>
   <g id="line2d_3">
    <path style="fill:none;stroke:#f5deb3;stroke-linecap:square;stroke-width:4;"/>
    <g/>
   </g>
   <g id="line2d_4">
    <path d="M 338.688 62.752535 
L 369.60768 35.706297 
" style="fill:none;stroke:#f5deb3;stroke-linecap:square;stroke-width:4;"/>
    <g>
     <use style="fill:#f5deb3;stroke:#f5deb3;stroke-linejoin:miter;stroke-width:1.5;" x="338.688" xlink:href="#mb15479bc3e" y="62.752535"/>
     <use style="fill:#f5deb3;stroke:#f5deb3;stroke-linejoin:miter;stroke-width:1.5;" x="369.60768" xlink:href="#mb15479bc3e" y="35.706297"/>
    </g>
   </g>
   <g id="matplotlib.axis_1">
    <g id="xtick_1">
     <g id="line2d_5">
      <path clip-path="url(#p7ddc01dde0)" d="M 57.6 298.944 
L 57.6 27.648 
" style="fill:none;stroke:#b0b0b0;stroke-linecap:square;stroke-width:0.8;"/>
     </g>
     <g id="line2d_6">
      <defs>
       <path d="M 0 0 
L 0 3.5 
" id="me3495a3fdb" style="stroke:#000000;stroke-width:0.8;"/>
      </defs>
      <g>
       <use style="stroke:#000000;stroke-width:0.8;" x="57.6" xlink:href="#me3495a3fdb" y="298.944"/>
      </g>
     </g>
     <g id="text_1">
      <!-- 0 -->
      <defs>
       <path d="M 31.78125 66.40625 
Q 24.171875 66.40625 20.328125 58.90625 
Q 16.5 51.421875 16.5 36.375 
Q 16.5 21.390625 20.328125 13.890625 
Q 24.171875 6.390625 31.78125 6.390625 
Q 39.453125 6.390625 43.28125 13.890625 
Q 47.125 21.390625 47.125 36.375 
Q 47.125 51.421875 43.28125 58.90625 
Q 39.453125 66.40625 31.78125 66.40625 
z
M 31.78125 74.21875 
Q 44.046875 74.21875 50.515625 64.515625 
Q 56.984375 54.828125 56.984375 36.375 
Q 56.984375 17.96875 50.515625 8.265625 
Q 44.046875 -1.421875 31.78125 -1.421875 
Q 19.53125 -1.421875 13.0625 8.265625 
Q 6.59375 17.96875 6.59375 36.375 
Q 6.59375 54.828125 13.0625 64.515625 
Q 19.53125 74.21875 31.78125 74.21875 
z
" id="DejaVuSans-48"/>
      </defs>
      <g transform="translate(51.2375 321.140875)scale(0.2 -0.2)">
       <use xlink:href="#DejaVuSans-48"/>
      </g>
     </g>
    </g>
    <g id="xtick_2">
     <g id="line2d_7">
      <path clip-path="url(#p7ddc01dde0)" d="M 137.910857 298.944 
L 137.910857 27.648 
" style="fill:none;stroke:#b0b0b0;stroke-linecap:square;stroke-width:0.8;"/>
     </g>
     <g id="line2d_8">
      <g>
       <use style="stroke:#000000;stroke-width:0.8;" x="137.910857" xlink:href="#me3495a3fdb" y="298.944"/>
      </g>
     </g>
     <g id="text_2">
      <!-- 2 -->
      <defs>
       <path d="M 19.1875 8.296875 
L 53.609375 8.296875 
L 53.609375 0 
L 7.328125 0 
L 7.328125 8.296875 
Q 12.9375 14.109375 22.625 23.890625 
Q 32.328125 33.6875 34.8125 36.53125 
Q 39.546875 41.84375 41.421875 45.53125 
Q 43.3125 49.21875 43.3125 52.78125 
Q 43.3125 58.59375 39.234375 62.25 
Q 35.15625 65.921875 28.609375 65.921875 
Q 23.96875 65.921875 18.8125 64.3125 
Q 13.671875 62.703125 7.8125 59.421875 
L 7.8125 69.390625 
Q 13.765625 71.78125 18.9375 73 
Q 24.125 74.21875 28.421875 74.21875 
Q 39.75 74.21875 46.484375 68.546875 
Q 53.21875 62.890625 53.21875 53.421875 
Q 53.21875 48.921875 51.53125 44.890625 
Q 49.859375 40.875 45.40625 35.40625 
Q 44.1875 33.984375 37.640625 27.21875 
Q 31.109375 20.453125 19.1875 8.296875 
z
" id="DejaVuSans-50"/>
      </defs>
      <g transform="translate(131.548357 321.140875)scale(0.2 -0.2)">
       <use xlink:href="#DejaVuSans-50"/>
      </g>
     </g>
    </g>
    <g id="xtick_3">
     <g id="line2d_9">
      <path clip-path="url(#p7ddc01dde0)" d="M 218.221714 298.944 
L 218.221714 27.648 
" style="fill:none;stroke:#b0b0b0;stroke-linecap:square;stroke-width:0.8;"/>
     </g>
     <g id="line2d_10">
      <g>
       <use style="stroke:#000000;stroke-width:0.8;" x="218.221714" xlink:href="#me3495a3fdb" y="298.944"/>
      </g>
     </g>
     <g id="text_3">
      <!-- 4 -->
      <defs>
       <path d="M 37.796875 64.3125 
L 12.890625 25.390625 
L 37.796875 25.390625 
z
M 35.203125 72.90625 
L 47.609375 72.90625 
L 47.609375 25.390625 
L 58.015625 25.390625 
L 58.015625 17.1875 
L 47.609375 17.1875 
L 47.609375 0 
L 37.796875 0 
L 37.796875 17.1875 
L 4.890625 17.1875 
L 4.890625 26.703125 
z
" id="DejaVuSans-52"/>
      </defs>
      <g transform="translate(211.859214 321.140875)scale(0.2 -0.2)">
       <use xlink:href="#DejaVuSans-52"/>
      </g>
     </g>
    </g>
    <g id="xtick_4">
     <g id="line2d_11">
      <path clip-path="url(#p7ddc01dde0)" d="M 298.532571 298.944 
L 298.532571 27.648 
" style="fill:none;stroke:#b0b0b0;stroke-linecap:square;stroke-width:0.8;"/>
     </g>
     <g id="line2d_12">
      <g>
       <use style="stroke:#000000;stroke-width:0.8;" x="298.532571" xlink:href="#me3495a3fdb" y="298.944"/>
      </g>
     </g>
     <g id="text_4">
      <!-- 6 -->
      <defs>
       <path d="M 33.015625 40.375 
Q 26.375 40.375 22.484375 35.828125 
Q 18.609375 31.296875 18.609375 23.390625 
Q 18.609375 15.53125 22.484375 10.953125 
Q 26.375 6.390625 33.015625 6.390625 
Q 39.65625 6.390625 43.53125 10.953125 
Q 47.40625 15.53125 47.40625 23.390625 
Q 47.40625 31.296875 43.53125 35.828125 
Q 39.65625 40.375 33.015625 40.375 
z
M 52.59375 71.296875 
L 52.59375 62.3125 
Q 48.875 64.0625 45.09375 64.984375 
Q 41.3125 65.921875 37.59375 65.921875 
Q 27.828125 65.921875 22.671875 59.328125 
Q 17.53125 52.734375 16.796875 39.40625 
Q 19.671875 43.65625 24.015625 45.921875 
Q 28.375 48.1875 33.59375 48.1875 
Q 44.578125 48.1875 50.953125 41.515625 
Q 57.328125 34.859375 57.328125 23.390625 
Q 57.328125 12.15625 50.6875 5.359375 
Q 44.046875 -1.421875 33.015625 -1.421875 
Q 20.359375 -1.421875 13.671875 8.265625 
Q 6.984375 17.96875 6.984375 36.375 
Q 6.984375 53.65625 15.1875 63.9375 
Q 23.390625 74.21875 37.203125 74.21875 
Q 40.921875 74.21875 44.703125 73.484375 
Q 48.484375 72.75 52.59375 71.296875 
z
" id="DejaVuSans-54"/>
      </defs>
      <g transform="translate(292.170071 321.140875)scale(0.2 -0.2)">
       <use xlink:href="#DejaVuSans-54"/>
      </g>
     </g>
    </g>
    <g id="xtick_5">
     <g id="line2d_13">
      <path clip-path="url(#p7ddc01dde0)" d="M 97.755429 298.944 
L 97.755429 27.648 
" style="fill:none;stroke:#b0b0b0;stroke-linecap:square;stroke-width:0.8;"/>
     </g>
     <g id="line2d_14">
      <defs>
       <path d="M 0 0 
L 0 2 
" id="m5030b6ef1e" style="stroke:#000000;stroke-width:0.6;"/>
      </defs>
      <g>
       <use style="stroke:#000000;stroke-width:0.6;" x="97.755429" xlink:href="#m5030b6ef1e" y="298.944"/>
      </g>
     </g>
    </g>
    <g id="xtick_6">
     <g id="line2d_15">
      <path clip-path="url(#p7ddc01dde0)" d="M 178.066286 298.944 
L 178.066286 27.648 
" style="fill:none;stroke:#b0b0b0;stroke-linecap:square;stroke-width:0.8;"/>
     </g>
     <g id="line2d_16">
      <g>
       <use style="stroke:#000000;stroke-width:0.6;" x="178.066286" xlink:href="#m5030b6ef1e" y="298.944"/>
      </g>
     </g>
    </g>
    <g id="xtick_7">
     <g id="line2d_17">
      <path clip-path="url(#p7ddc01dde0)" d="M 258.377143 298.944 
L 258.377143 27.648 
" style="fill:none;stroke:#b0b0b0;stroke-linecap:square;stroke-width:0.8;"/>
     </g>
     <g id="line2d_18">
      <g>
       <use style="stroke:#000000;stroke-width:0.6;" x="258.377143" xlink:href="#m5030b6ef1e" y="298.944"/>
      </g>
     </g>
    </g>
    <g id="xtick_8">
     <g id="line2d_19">
      <path clip-path="url(#p7ddc01dde0)" d="M 338.688 298.944 
L 338.688 27.648 
" style="fill:none;stroke:#b0b0b0;stroke-linecap:square;stroke-width:0.8;"/>
     </g>
     <g id="line2d_20">
      <g>
       <use style="stroke:#000000;stroke-width:0.6;" x="338.688" xlink:href="#m5030b6ef1e" y="298.944"/>
      </g>
     </g>
    </g>
    <g id="text_5">
     <!-- log10(# f-evals / dimension) -->
     <defs>
      <path d="M 9.421875 75.984375 
L 18.40625 75.984375 
L 18.40625 0 
L 9.421875 0 
z
" id="DejaVuSans-108"/>
      <path d="M 30.609375 48.390625 
Q 23.390625 48.390625 19.1875 42.75 
Q 14.984375 37.109375 14.984375 27.296875 
Q 14.984375 17.484375 19.15625 11.84375 
Q 23.34375 6.203125 30.609375 6.203125 
Q 37.796875 6.203125 41.984375 11.859375 
Q 46.1875 17.53125 46.1875 27.296875 
Q 46.1875 37.015625 41.984375 42.703125 
Q 37.796875 48.390625 30.609375 48.390625 
z
M 30.609375 56 
Q 42.328125 56 49.015625 48.375 
Q 55.71875 40.765625 55.71875 27.296875 
Q 55.71875 13.875 49.015625 6.21875 
Q 42.328125 -1.421875 30.609375 -1.421875 
Q 18.84375 -1.421875 12.171875 6.21875 
Q 5.515625 13.875 5.515625 27.296875 
Q 5.515625 40.765625 12.171875 48.375 
Q 18.84375 56 30.609375 56 
z
" id="DejaVuSans-111"/>
      <path d="M 45.40625 27.984375 
Q 45.40625 37.75 41.375 43.109375 
Q 37.359375 48.484375 30.078125 48.484375 
Q 22.859375 48.484375 18.828125 43.109375 
Q 14.796875 37.75 14.796875 27.984375 
Q 14.796875 18.265625 18.828125 12.890625 
Q 22.859375 7.515625 30.078125 7.515625 
Q 37.359375 7.515625 41.375 12.890625 
Q 45.40625 18.265625 45.40625 27.984375 
z
M 54.390625 6.78125 
Q 54.390625 -7.171875 48.1875 -13.984375 
Q 42 -20.796875 29.203125 -20.796875 
Q 24.46875 -20.796875 20.265625 -20.09375 
Q 16.0625 -19.390625 12.109375 -17.921875 
L 12.109375 -9.1875 
Q 16.0625 -11.328125 19.921875 -12.34375 
Q 23.78125 -13.375 27.78125 -13.375 
Q 36.625 -13.375 41.015625 -8.765625 
Q 45.40625 -4.15625 45.40625 5.171875 
L 45.40625 9.625 
Q 42.625 4.78125 38.28125 2.390625 
Q 33.9375 0 27.875 0 
Q 17.828125 0 11.671875 7.65625 
Q 5.515625 15.328125 5.515625 27.984375 
Q 5.515625 40.671875 11.671875 48.328125 
Q 17.828125 56 27.875 56 
Q 33.9375 56 38.28125 53.609375 
Q 42.625 51.21875 45.40625 46.390625 
L 45.40625 54.6875 
L 54.390625 54.6875 
z
" id="DejaVuSans-103"/>
      <path d="M 12.40625 8.296875 
L 28.515625 8.296875 
L 28.515625 63.921875 
L 10.984375 60.40625 
L 10.984375 69.390625 
L 28.421875 72.90625 
L 38.28125 72.90625 
L 38.28125 8.296875 
L 54.390625 8.296875 
L 54.390625 0 
L 12.40625 0 
z
" id="DejaVuSans-49"/>
      <path d="M 31 75.875 
Q 24.46875 64.65625 21.28125 53.65625 
Q 18.109375 42.671875 18.109375 31.390625 
Q 18.109375 20.125 21.3125 9.0625 
Q 24.515625 -2 31 -13.1875 
L 23.1875 -13.1875 
Q 15.875 -1.703125 12.234375 9.375 
Q 8.59375 20.453125 8.59375 31.390625 
Q 8.59375 42.28125 12.203125 53.3125 
Q 15.828125 64.359375 23.1875 75.875 
z
" id="DejaVuSans-40"/>
      <path d="M 51.125 44 
L 36.921875 44 
L 32.8125 27.6875 
L 47.125 27.6875 
z
M 43.796875 71.78125 
L 38.71875 51.515625 
L 52.984375 51.515625 
L 58.109375 71.78125 
L 65.921875 71.78125 
L 60.890625 51.515625 
L 76.125 51.515625 
L 76.125 44 
L 58.984375 44 
L 54.984375 27.6875 
L 70.515625 27.6875 
L 70.515625 20.21875 
L 53.078125 20.21875 
L 48 0 
L 40.1875 0 
L 45.21875 20.21875 
L 30.90625 20.21875 
L 25.875 0 
L 18.015625 0 
L 23.09375 20.21875 
L 7.71875 20.21875 
L 7.71875 27.6875 
L 24.90625 27.6875 
L 29 44 
L 13.28125 44 
L 13.28125 51.515625 
L 30.90625 51.515625 
L 35.890625 71.78125 
z
" id="DejaVuSans-35"/>
      <path id="DejaVuSans-32"/>
      <path d="M 37.109375 75.984375 
L 37.109375 68.5 
L 28.515625 68.5 
Q 23.6875 68.5 21.796875 66.546875 
Q 19.921875 64.59375 19.921875 59.515625 
L 19.921875 54.6875 
L 34.71875 54.6875 
L 34.71875 47.703125 
L 19.921875 47.703125 
L 19.921875 0 
L 10.890625 0 
L 10.890625 47.703125 
L 2.296875 47.703125 
L 2.296875 54.6875 
L 10.890625 54.6875 
L 10.890625 58.5 
Q 10.890625 67.625 15.140625 71.796875 
Q 19.390625 75.984375 28.609375 75.984375 
z
" id="DejaVuSans-102"/>
      <path d="M 4.890625 31.390625 
L 31.203125 31.390625 
L 31.203125 23.390625 
L 4.890625 23.390625 
z
" id="DejaVuSans-45"/>
      <path d="M 56.203125 29.59375 
L 56.203125 25.203125 
L 14.890625 25.203125 
Q 15.484375 15.921875 20.484375 11.0625 
Q 25.484375 6.203125 34.421875 6.203125 
Q 39.59375 6.203125 44.453125 7.46875 
Q 49.3125 8.734375 54.109375 11.28125 
L 54.109375 2.78125 
Q 49.265625 0.734375 44.1875 -0.34375 
Q 39.109375 -1.421875 33.890625 -1.421875 
Q 20.796875 -1.421875 13.15625 6.1875 
Q 5.515625 13.8125 5.515625 26.8125 
Q 5.515625 40.234375 12.765625 48.109375 
Q 20.015625 56 32.328125 56 
Q 43.359375 56 49.78125 48.890625 
Q 56.203125 41.796875 56.203125 29.59375 
z
M 47.21875 32.234375 
Q 47.125 39.59375 43.09375 43.984375 
Q 39.0625 48.390625 32.421875 48.390625 
Q 24.90625 48.390625 20.390625 44.140625 
Q 15.875 39.890625 15.1875 32.171875 
z
" id="DejaVuSans-101"/>
      <path d="M 2.984375 54.6875 
L 12.5 54.6875 
L 29.59375 8.796875 
L 46.6875 54.6875 
L 56.203125 54.6875 
L 35.6875 0 
L 23.484375 0 
z
" id="DejaVuSans-118"/>
      <path d="M 34.28125 27.484375 
Q 23.390625 27.484375 19.1875 25 
Q 14.984375 22.515625 14.984375 16.5 
Q 14.984375 11.71875 18.140625 8.90625 
Q 21.296875 6.109375 26.703125 6.109375 
Q 34.1875 6.109375 38.703125 11.40625 
Q 43.21875 16.703125 43.21875 25.484375 
L 43.21875 27.484375 
z
M 52.203125 31.203125 
L 52.203125 0 
L 43.21875 0 
L 43.21875 8.296875 
Q 40.140625 3.328125 35.546875 0.953125 
Q 30.953125 -1.421875 24.3125 -1.421875 
Q 15.921875 -1.421875 10.953125 3.296875 
Q 6 8.015625 6 15.921875 
Q 6 25.140625 12.171875 29.828125 
Q 18.359375 34.515625 30.609375 34.515625 
L 43.21875 34.515625 
L 43.21875 35.40625 
Q 43.21875 41.609375 39.140625 45 
Q 35.0625 48.390625 27.6875 48.390625 
Q 23 48.390625 18.546875 47.265625 
Q 14.109375 46.140625 10.015625 43.890625 
L 10.015625 52.203125 
Q 14.9375 54.109375 19.578125 55.046875 
Q 24.21875 56 28.609375 56 
Q 40.484375 56 46.34375 49.84375 
Q 52.203125 43.703125 52.203125 31.203125 
z
" id="DejaVuSans-97"/>
      <path d="M 44.28125 53.078125 
L 44.28125 44.578125 
Q 40.484375 46.53125 36.375 47.5 
Q 32.28125 48.484375 27.875 48.484375 
Q 21.1875 48.484375 17.84375 46.4375 
Q 14.5 44.390625 14.5 40.28125 
Q 14.5 37.15625 16.890625 35.375 
Q 19.28125 33.59375 26.515625 31.984375 
L 29.59375 31.296875 
Q 39.15625 29.25 43.1875 25.515625 
Q 47.21875 21.78125 47.21875 15.09375 
Q 47.21875 7.46875 41.1875 3.015625 
Q 35.15625 -1.421875 24.609375 -1.421875 
Q 20.21875 -1.421875 15.453125 -0.5625 
Q 10.6875 0.296875 5.421875 2 
L 5.421875 11.28125 
Q 10.40625 8.6875 15.234375 7.390625 
Q 20.0625 6.109375 24.8125 6.109375 
Q 31.15625 6.109375 34.5625 8.28125 
Q 37.984375 10.453125 37.984375 14.40625 
Q 37.984375 18.0625 35.515625 20.015625 
Q 33.0625 21.96875 24.703125 23.78125 
L 21.578125 24.515625 
Q 13.234375 26.265625 9.515625 29.90625 
Q 5.8125 33.546875 5.8125 39.890625 
Q 5.8125 47.609375 11.28125 51.796875 
Q 16.75 56 26.8125 56 
Q 31.78125 56 36.171875 55.265625 
Q 40.578125 54.546875 44.28125 53.078125 
z
" id="DejaVuSans-115"/>
      <path d="M 25.390625 72.90625 
L 33.6875 72.90625 
L 8.296875 -9.28125 
L 0 -9.28125 
z
" id="DejaVuSans-47"/>
      <path d="M 45.40625 46.390625 
L 45.40625 75.984375 
L 54.390625 75.984375 
L 54.390625 0 
L 45.40625 0 
L 45.40625 8.203125 
Q 42.578125 3.328125 38.25 0.953125 
Q 33.9375 -1.421875 27.875 -1.421875 
Q 17.96875 -1.421875 11.734375 6.484375 
Q 5.515625 14.40625 5.515625 27.296875 
Q 5.515625 40.1875 11.734375 48.09375 
Q 17.96875 56 27.875 56 
Q 33.9375 56 38.25 53.625 
Q 42.578125 51.265625 45.40625 46.390625 
z
M 14.796875 27.296875 
Q 14.796875 17.390625 18.875 11.75 
Q 22.953125 6.109375 30.078125 6.109375 
Q 37.203125 6.109375 41.296875 11.75 
Q 45.40625 17.390625 45.40625 27.296875 
Q 45.40625 37.203125 41.296875 42.84375 
Q 37.203125 48.484375 30.078125 48.484375 
Q 22.953125 48.484375 18.875 42.84375 
Q 14.796875 37.203125 14.796875 27.296875 
z
" id="DejaVuSans-100"/>
      <path d="M 9.421875 54.6875 
L 18.40625 54.6875 
L 18.40625 0 
L 9.421875 0 
z
M 9.421875 75.984375 
L 18.40625 75.984375 
L 18.40625 64.59375 
L 9.421875 64.59375 
z
" id="DejaVuSans-105"/>
      <path d="M 52 44.1875 
Q 55.375 50.25 60.0625 53.125 
Q 64.75 56 71.09375 56 
Q 79.640625 56 84.28125 50.015625 
Q 88.921875 44.046875 88.921875 33.015625 
L 88.921875 0 
L 79.890625 0 
L 79.890625 32.71875 
Q 79.890625 40.578125 77.09375 44.375 
Q 74.3125 48.1875 68.609375 48.1875 
Q 61.625 48.1875 57.5625 43.546875 
Q 53.515625 38.921875 53.515625 30.90625 
L 53.515625 0 
L 44.484375 0 
L 44.484375 32.71875 
Q 44.484375 40.625 41.703125 44.40625 
Q 38.921875 48.1875 33.109375 48.1875 
Q 26.21875 48.1875 22.15625 43.53125 
Q 18.109375 38.875 18.109375 30.90625 
L 18.109375 0 
L 9.078125 0 
L 9.078125 54.6875 
L 18.109375 54.6875 
L 18.109375 46.1875 
Q 21.1875 51.21875 25.484375 53.609375 
Q 29.78125 56 35.6875 56 
Q 41.65625 56 45.828125 52.96875 
Q 50 49.953125 52 44.1875 
z
" id="DejaVuSans-109"/>
      <path d="M 54.890625 33.015625 
L 54.890625 0 
L 45.90625 0 
L 45.90625 32.71875 
Q 45.90625 40.484375 42.875 44.328125 
Q 39.84375 48.1875 33.796875 48.1875 
Q 26.515625 48.1875 22.3125 43.546875 
Q 18.109375 38.921875 18.109375 30.90625 
L 18.109375 0 
L 9.078125 0 
L 9.078125 54.6875 
L 18.109375 54.6875 
L 18.109375 46.1875 
Q 21.34375 51.125 25.703125 53.5625 
Q 30.078125 56 35.796875 56 
Q 45.21875 56 50.046875 50.171875 
Q 54.890625 44.34375 54.890625 33.015625 
z
" id="DejaVuSans-110"/>
      <path d="M 8.015625 75.875 
L 15.828125 75.875 
Q 23.140625 64.359375 26.78125 53.3125 
Q 30.421875 42.28125 30.421875 31.390625 
Q 30.421875 20.453125 26.78125 9.375 
Q 23.140625 -1.703125 15.828125 -13.1875 
L 8.015625 -13.1875 
Q 14.5 -2 17.703125 9.0625 
Q 20.90625 20.125 20.90625 31.390625 
Q 20.90625 42.671875 17.703125 53.65625 
Q 14.5 64.65625 8.015625 75.875 
z
" id="DejaVuSans-41"/>
     </defs>
     <g transform="translate(77.303219 342.217594)scale(0.17 -0.17)">
      <use xlink:href="#DejaVuSans-108"/>
      <use x="27.783203" xlink:href="#DejaVuSans-111"/>
      <use x="88.964844" xlink:href="#DejaVuSans-103"/>
      <use x="152.441406" xlink:href="#DejaVuSans-49"/>
      <use x="216.064453" xlink:href="#DejaVuSans-48"/>
      <use x="279.6875" xlink:href="#DejaVuSans-40"/>
      <use x="318.701172" xlink:href="#DejaVuSans-35"/>
      <use x="402.490234" xlink:href="#DejaVuSans-32"/>
      <use x="434.277344" xlink:href="#DejaVuSans-102"/>
      <use x="469.404297" xlink:href="#DejaVuSans-45"/>
      <use x="505.488281" xlink:href="#DejaVuSans-101"/>
      <use x="567.011719" xlink:href="#DejaVuSans-118"/>
      <use x="626.191406" xlink:href="#DejaVuSans-97"/>
      <use x="687.470703" xlink:href="#DejaVuSans-108"/>
      <use x="715.253906" xlink:href="#DejaVuSans-115"/>
      <use x="767.353516" xlink:href="#DejaVuSans-32"/>
      <use x="799.140625" xlink:href="#DejaVuSans-47"/>
      <use x="832.832031" xlink:href="#DejaVuSans-32"/>
      <use x="864.619141" xlink:href="#DejaVuSans-100"/>
      <use x="928.095703" xlink:href="#DejaVuSans-105"/>
      <use x="955.878906" xlink:href="#DejaVuSans-109"/>
      <use x="1053.291016" xlink:href="#DejaVuSans-101"/>
      <use x="1114.814453" xlink:href="#DejaVuSans-110"/>
      <use x="1178.193359" xlink:href="#DejaVuSans-115"/>
      <use x="1230.292969" xlink:href="#DejaVuSans-105"/>
      <use x="1258.076172" xlink:href="#DejaVuSans-111"/>
      <use x="1319.257812" xlink:href="#DejaVuSans-110"/>
      <use x="1382.636719" xlink:href="#DejaVuSans-41"/>
     </g>
    </g>
   </g>
   <g id="matplotlib.axis_2">
    <g id="ytick_1">
     <g id="line2d_21">
      <path clip-path="url(#p7ddc01dde0)" d="M 57.6 298.944 
L 338.688 298.944 
" style="fill:none;stroke:#b0b0b0;stroke-linecap:square;stroke-width:0.8;"/>
     </g>
     <g id="line2d_22">
      <defs>
       <path d="M 0 0 
L -3.5 0 
" id="mb6f9125983" style="stroke:#000000;stroke-width:0.8;"/>
      </defs>
      <g>
       <use style="stroke:#000000;stroke-width:0.8;" x="57.6" xlink:href="#mb6f9125983" y="298.944"/>
      </g>
     </g>
     <g id="text_6">
      <!-- 0.0 -->
      <defs>
       <path d="M 10.6875 12.40625 
L 21 12.40625 
L 21 0 
L 10.6875 0 
z
" id="DejaVuSans-46"/>
      </defs>
      <g transform="translate(25.155 305.02275)scale(0.16 -0.16)">
       <use xlink:href="#DejaVuSans-48"/>
       <use x="63.623047" xlink:href="#DejaVuSans-46"/>
       <use x="95.410156" xlink:href="#DejaVuSans-48"/>
      </g>
     </g>
    </g>
    <g id="ytick_2">
     <g id="line2d_23">
      <path clip-path="url(#p7ddc01dde0)" d="M 57.6 245.22202 
L 338.688 245.22202 
" style="fill:none;stroke:#b0b0b0;stroke-linecap:square;stroke-width:0.8;"/>
     </g>
     <g id="line2d_24">
      <g>
       <use style="stroke:#000000;stroke-width:0.8;" x="57.6" xlink:href="#mb6f9125983" y="245.22202"/>
      </g>
     </g>
     <g id="text_7">
      <!-- 0.2 -->
      <g transform="translate(25.155 251.30077)scale(0.16 -0.16)">
       <use xlink:href="#DejaVuSans-48"/>
       <use x="63.623047" xlink:href="#DejaVuSans-46"/>
       <use x="95.410156" xlink:href="#DejaVuSans-50"/>
      </g>
     </g>
    </g>
    <g id="ytick_3">
     <g id="line2d_25">
      <path clip-path="url(#p7ddc01dde0)" d="M 57.6 191.50004 
L 338.688 191.50004 
" style="fill:none;stroke:#b0b0b0;stroke-linecap:square;stroke-width:0.8;"/>
     </g>
     <g id="line2d_26">
      <g>
       <use style="stroke:#000000;stroke-width:0.8;" x="57.6" xlink:href="#mb6f9125983" y="191.50004"/>
      </g>
     </g>
     <g id="text_8">
      <!-- 0.4 -->
      <g transform="translate(25.155 197.57879)scale(0.16 -0.16)">
       <use xlink:href="#DejaVuSans-48"/>
       <use x="63.623047" xlink:href="#DejaVuSans-46"/>
       <use x="95.410156" xlink:href="#DejaVuSans-52"/>
      </g>
     </g>
    </g>
    <g id="ytick_4">
     <g id="line2d_27">
      <path clip-path="url(#p7ddc01dde0)" d="M 57.6 137.778059 
L 338.688 137.778059 
" style="fill:none;stroke:#b0b0b0;stroke-linecap:square;stroke-width:0.8;"/>
     </g>
     <g id="line2d_28">
      <g>
       <use style="stroke:#000000;stroke-width:0.8;" x="57.6" xlink:href="#mb6f9125983" y="137.778059"/>
      </g>
     </g>
     <g id="text_9">
      <!-- 0.6 -->
      <g transform="translate(25.155 143.856809)scale(0.16 -0.16)">
       <use xlink:href="#DejaVuSans-48"/>
       <use x="63.623047" xlink:href="#DejaVuSans-46"/>
       <use x="95.410156" xlink:href="#DejaVuSans-54"/>
      </g>
     </g>
    </g>
    <g id="ytick_5">
     <g id="line2d_29">
      <path clip-path="url(#p7ddc01dde0)" d="M 57.6 84.056079 
L 338.688 84.056079 
" style="fill:none;stroke:#b0b0b0;stroke-linecap:square;stroke-width:0.8;"/>
     </g>
     <g id="line2d_30">
      <g>
       <use style="stroke:#000000;stroke-width:0.8;" x="57.6" xlink:href="#mb6f9125983" y="84.056079"/>
      </g>
     </g>
     <g id="text_10">
      <!-- 0.8 -->
      <defs>
       <path d="M 31.78125 34.625 
Q 24.75 34.625 20.71875 30.859375 
Q 16.703125 27.09375 16.703125 20.515625 
Q 16.703125 13.921875 20.71875 10.15625 
Q 24.75 6.390625 31.78125 6.390625 
Q 38.8125 6.390625 42.859375 10.171875 
Q 46.921875 13.96875 46.921875 20.515625 
Q 46.921875 27.09375 42.890625 30.859375 
Q 38.875 34.625 31.78125 34.625 
z
M 21.921875 38.8125 
Q 15.578125 40.375 12.03125 44.71875 
Q 8.5 49.078125 8.5 55.328125 
Q 8.5 64.0625 14.71875 69.140625 
Q 20.953125 74.21875 31.78125 74.21875 
Q 42.671875 74.21875 48.875 69.140625 
Q 55.078125 64.0625 55.078125 55.328125 
Q 55.078125 49.078125 51.53125 44.71875 
Q 48 40.375 41.703125 38.8125 
Q 48.828125 37.15625 52.796875 32.3125 
Q 56.78125 27.484375 56.78125 20.515625 
Q 56.78125 9.90625 50.3125 4.234375 
Q 43.84375 -1.421875 31.78125 -1.421875 
Q 19.734375 -1.421875 13.25 4.234375 
Q 6.78125 9.90625 6.78125 20.515625 
Q 6.78125 27.484375 10.78125 32.3125 
Q 14.796875 37.15625 21.921875 38.8125 
z
M 18.3125 54.390625 
Q 18.3125 48.734375 21.84375 45.5625 
Q 25.390625 42.390625 31.78125 42.390625 
Q 38.140625 42.390625 41.71875 45.5625 
Q 45.3125 48.734375 45.3125 54.390625 
Q 45.3125 60.0625 41.71875 63.234375 
Q 38.140625 66.40625 31.78125 66.40625 
Q 25.390625 66.40625 21.84375 63.234375 
Q 18.3125 60.0625 18.3125 54.390625 
z
" id="DejaVuSans-56"/>
      </defs>
      <g transform="translate(25.155 90.134829)scale(0.16 -0.16)">
       <use xlink:href="#DejaVuSans-48"/>
       <use x="63.623047" xlink:href="#DejaVuSans-46"/>
       <use x="95.410156" xlink:href="#DejaVuSans-56"/>
      </g>
     </g>
    </g>
    <g id="ytick_6">
     <g id="line2d_31">
      <path clip-path="url(#p7ddc01dde0)" d="M 57.6 30.334099 
L 338.688 30.334099 
" style="fill:none;stroke:#b0b0b0;stroke-linecap:square;stroke-width:0.8;"/>
     </g>
     <g id="line2d_32">
      <g>
       <use style="stroke:#000000;stroke-width:0.8;" x="57.6" xlink:href="#mb6f9125983" y="30.334099"/>
      </g>
     </g>
     <g id="text_11">
      <!-- 1.0 -->
      <g transform="translate(25.155 36.412849)scale(0.16 -0.16)">
       <use xlink:href="#DejaVuSans-49"/>
       <use x="63.623047" xlink:href="#DejaVuSans-46"/>
       <use x="95.410156" xlink:href="#DejaVuSans-48"/>
      </g>
     </g>
    </g>
    <g id="text_12">
     <!-- Fraction of function,target pairs -->
     <defs>
      <path d="M 9.8125 72.90625 
L 51.703125 72.90625 
L 51.703125 64.59375 
L 19.671875 64.59375 
L 19.671875 43.109375 
L 48.578125 43.109375 
L 48.578125 34.8125 
L 19.671875 34.8125 
L 19.671875 0 
L 9.8125 0 
z
" id="DejaVuSans-70"/>
      <path d="M 41.109375 46.296875 
Q 39.59375 47.171875 37.8125 47.578125 
Q 36.03125 48 33.890625 48 
Q 26.265625 48 22.1875 43.046875 
Q 18.109375 38.09375 18.109375 28.8125 
L 18.109375 0 
L 9.078125 0 
L 9.078125 54.6875 
L 18.109375 54.6875 
L 18.109375 46.1875 
Q 20.953125 51.171875 25.484375 53.578125 
Q 30.03125 56 36.53125 56 
Q 37.453125 56 38.578125 55.875 
Q 39.703125 55.765625 41.0625 55.515625 
z
" id="DejaVuSans-114"/>
      <path d="M 48.78125 52.59375 
L 48.78125 44.1875 
Q 44.96875 46.296875 41.140625 47.34375 
Q 37.3125 48.390625 33.40625 48.390625 
Q 24.65625 48.390625 19.8125 42.84375 
Q 14.984375 37.3125 14.984375 27.296875 
Q 14.984375 17.28125 19.8125 11.734375 
Q 24.65625 6.203125 33.40625 6.203125 
Q 37.3125 6.203125 41.140625 7.25 
Q 44.96875 8.296875 48.78125 10.40625 
L 48.78125 2.09375 
Q 45.015625 0.34375 40.984375 -0.53125 
Q 36.96875 -1.421875 32.421875 -1.421875 
Q 20.0625 -1.421875 12.78125 6.34375 
Q 5.515625 14.109375 5.515625 27.296875 
Q 5.515625 40.671875 12.859375 48.328125 
Q 20.21875 56 33.015625 56 
Q 37.15625 56 41.109375 55.140625 
Q 45.0625 54.296875 48.78125 52.59375 
z
" id="DejaVuSans-99"/>
      <path d="M 18.3125 70.21875 
L 18.3125 54.6875 
L 36.8125 54.6875 
L 36.8125 47.703125 
L 18.3125 47.703125 
L 18.3125 18.015625 
Q 18.3125 11.328125 20.140625 9.421875 
Q 21.96875 7.515625 27.59375 7.515625 
L 36.8125 7.515625 
L 36.8125 0 
L 27.59375 0 
Q 17.1875 0 13.234375 3.875 
Q 9.28125 7.765625 9.28125 18.015625 
L 9.28125 47.703125 
L 2.6875 47.703125 
L 2.6875 54.6875 
L 9.28125 54.6875 
L 9.28125 70.21875 
z
" id="DejaVuSans-116"/>
      <path d="M 8.5 21.578125 
L 8.5 54.6875 
L 17.484375 54.6875 
L 17.484375 21.921875 
Q 17.484375 14.15625 20.5 10.265625 
Q 23.53125 6.390625 29.59375 6.390625 
Q 36.859375 6.390625 41.078125 11.03125 
Q 45.3125 15.671875 45.3125 23.6875 
L 45.3125 54.6875 
L 54.296875 54.6875 
L 54.296875 0 
L 45.3125 0 
L 45.3125 8.40625 
Q 42.046875 3.421875 37.71875 1 
Q 33.40625 -1.421875 27.6875 -1.421875 
Q 18.265625 -1.421875 13.375 4.4375 
Q 8.5 10.296875 8.5 21.578125 
z
M 31.109375 56 
z
" id="DejaVuSans-117"/>
      <path d="M 11.71875 12.40625 
L 22.015625 12.40625 
L 22.015625 4 
L 14.015625 -11.625 
L 7.71875 -11.625 
L 11.71875 4 
z
" id="DejaVuSans-44"/>
      <path d="M 18.109375 8.203125 
L 18.109375 -20.796875 
L 9.078125 -20.796875 
L 9.078125 54.6875 
L 18.109375 54.6875 
L 18.109375 46.390625 
Q 20.953125 51.265625 25.265625 53.625 
Q 29.59375 56 35.59375 56 
Q 45.5625 56 51.78125 48.09375 
Q 58.015625 40.1875 58.015625 27.296875 
Q 58.015625 14.40625 51.78125 6.484375 
Q 45.5625 -1.421875 35.59375 -1.421875 
Q 29.59375 -1.421875 25.265625 0.953125 
Q 20.953125 3.328125 18.109375 8.203125 
z
M 48.6875 27.296875 
Q 48.6875 37.203125 44.609375 42.84375 
Q 40.53125 48.484375 33.40625 48.484375 
Q 26.265625 48.484375 22.1875 42.84375 
Q 18.109375 37.203125 18.109375 27.296875 
Q 18.109375 17.390625 22.1875 11.75 
Q 26.265625 6.109375 33.40625 6.109375 
Q 40.53125 6.109375 44.609375 11.75 
Q 48.6875 17.390625 48.6875 27.296875 
z
" id="DejaVuSans-112"/>
     </defs>
     <g transform="translate(17.619531 298.435375)rotate(-90)scale(0.17 -0.17)">
      <use xlink:href="#DejaVuSans-70"/>
      <use x="57.410156" xlink:href="#DejaVuSans-114"/>
      <use x="98.523438" xlink:href="#DejaVuSans-97"/>
      <use x="159.802734" xlink:href="#DejaVuSans-99"/>
      <use x="214.783203" xlink:href="#DejaVuSans-116"/>
      <use x="253.992188" xlink:href="#DejaVuSans-105"/>
      <use x="281.775391" xlink:href="#DejaVuSans-111"/>
      <use x="342.957031" xlink:href="#DejaVuSans-110"/>
      <use x="406.335938" xlink:href="#DejaVuSans-32"/>
      <use x="438.123047" xlink:href="#DejaVuSans-111"/>
      <use x="499.304688" xlink:href="#DejaVuSans-102"/>
      <use x="534.509766" xlink:href="#DejaVuSans-32"/>
      <use x="566.296875" xlink:href="#DejaVuSans-102"/>
      <use x="601.501953" xlink:href="#DejaVuSans-117"/>
      <use x="664.880859" xlink:href="#DejaVuSans-110"/>
      <use x="728.259766" xlink:href="#DejaVuSans-99"/>
      <use x="783.240234" xlink:href="#DejaVuSans-116"/>
      <use x="822.449219" xlink:href="#DejaVuSans-105"/>
      <use x="850.232422" xlink:href="#DejaVuSans-111"/>
      <use x="911.414062" xlink:href="#DejaVuSans-110"/>
      <use x="974.792969" xlink:href="#DejaVuSans-44"/>
      <use x="1006.580078" xlink:href="#DejaVuSans-116"/>
      <use x="1045.789062" xlink:href="#DejaVuSans-97"/>
      <use x="1107.068359" xlink:href="#DejaVuSans-114"/>
      <use x="1148.166016" xlink:href="#DejaVuSans-103"/>
      <use x="1211.642578" xlink:href="#DejaVuSans-101"/>
      <use x="1273.166016" xlink:href="#DejaVuSans-116"/>
      <use x="1312.375" xlink:href="#DejaVuSans-32"/>
      <use x="1344.162109" xlink:href="#DejaVuSans-112"/>
      <use x="1407.638672" xlink:href="#DejaVuSans-97"/>
      <use x="1468.917969" xlink:href="#DejaVuSans-105"/>
      <use x="1496.701172" xlink:href="#DejaVuSans-114"/>
      <use x="1537.814453" xlink:href="#DejaVuSans-115"/>
     </g>
    </g>
   </g>
   <g id="line2d_33">
    <defs>
     <path d="M 0 1.5 
C 0.397805 1.5 0.77937 1.341951 1.06066 1.06066 
C 1.341951 0.77937 1.5 0.397805 1.5 0 
C 1.5 -0.397805 1.341951 -0.77937 1.06066 -1.06066 
C 0.77937 -1.341951 0.397805 -1.5 0 -1.5 
C -0.397805 -1.5 -0.77937 -1.341951 -1.06066 -1.06066 
C -1.341951 -0.77937 -1.5 -0.397805 -1.5 0 
C -1.5 0.397805 -1.341951 0.77937 -1.06066 1.06066 
C -0.77937 1.341951 -0.397805 1.5 0 1.5 
z
" id="m0ef890005b" style="stroke:#f5deb3;"/>
    </defs>
    <g>
     <use style="fill:#f5deb3;stroke:#f5deb3;" x="243.967636" xlink:href="#m0ef890005b" y="62.752535"/>
     <use style="fill:#f5deb3;stroke:#f5deb3;" x="243.967636" xlink:href="#m0ef890005b" y="62.752535"/>
    </g>
   </g>
   <g id="line2d_34">
    <defs>
     <path d="M 0 1.5 
C 0.397805 1.5 0.77937 1.341951 1.06066 1.06066 
C 1.341951 0.77937 1.5 0.397805 1.5 0 
C 1.5 -0.397805 1.341951 -0.77937 1.06066 -1.06066 
C 0.77937 -1.341951 0.397805 -1.5 0 -1.5 
C -0.397805 -1.5 -0.77937 -1.341951 -1.06066 -1.06066 
C -1.341951 -0.77937 -1.5 -0.397805 -1.5 0 
C -1.5 0.397805 -1.341951 0.77937 -1.06066 1.06066 
C -0.77937 1.341951 -0.397805 1.5 0 1.5 
z
" id="m1a54a25f4c" style="stroke:#000080;"/>
    </defs>
    <g>
     <use style="fill:#000080;stroke:#000080;" x="229.289445" xlink:href="#m1a54a25f4c" y="72.941187"/>
     <use style="fill:#000080;stroke:#000080;" x="229.289445" xlink:href="#m1a54a25f4c" y="72.941187"/>
    </g>
   </g>
   <g id="line2d_35">
    <path d="M 45.512012 298.944 
L 45.512012 281.34542 
L 64.67102 281.34542 
L 64.67102 278.566697 
L 69.687988 278.566697 
L 69.687988 277.640456 
L 81.775977 277.640456 
L 81.775977 271.156769 
L 88.846997 271.156769 
L 88.846997 268.378046 
L 96.86091 268.378046 
L 96.86091 263.746841 
L 97.755429 263.746841 
L 97.755429 262.8206 
L 99.41757 262.8206 
L 99.41757 261.894358 
L 100.192776 261.894358 
L 100.192776 260.041876 
L 101.646892 260.041876 
L 101.646892 257.263153 
L 105.398279 257.263153 
L 105.398279 256.336912 
L 106.48859 256.336912 
L 106.48859 253.558189 
L 107.514726 253.558189 
L 107.514726 250.779466 
L 108.006005 250.779466 
L 108.006005 249.853225 
L 109.843417 249.853225 
L 109.843417 246.148261 
L 110.694282 246.148261 
L 110.694282 244.295779 
L 111.104637 244.295779 
L 111.104637 242.443297 
L 111.505558 242.443297 
L 111.505558 239.664574 
L 111.897469 239.664574 
L 111.897469 238.738333 
L 113.022974 238.738333 
L 113.022974 235.033368 
L 114.418861 235.033368 
L 114.418861 233.180886 
L 114.751048 233.180886 
L 114.751048 230.402163 
L 117.765302 230.402163 
L 117.765302 226.697199 
L 119.602714 226.697199 
L 119.602714 225.770958 
L 120.093994 225.770958 
L 120.093994 222.992235 
L 122.148045 222.992235 
L 122.148045 221.139753 
L 122.362027 221.139753 
L 122.362027 220.213512 
L 125.470548 220.213512 
L 125.470548 219.287271 
L 125.822869 219.287271 
L 125.822869 218.36103 
L 126.338353 218.36103 
L 126.338353 216.508548 
L 126.50685 216.508548 
L 126.50685 215.582307 
L 126.673734 215.582307 
L 126.673734 213.729825 
L 129.290685 213.729825 
L 129.290685 212.803583 
L 129.433047 212.803583 
L 129.433047 211.877342 
L 130.531948 211.877342 
L 130.531948 210.02486 
L 130.796184 210.02486 
L 130.796184 208.172378 
L 130.926816 208.172378 
L 130.926816 206.319896 
L 131.565689 206.319896 
L 131.565689 204.467414 
L 131.938072 204.467414 
L 131.938072 203.541173 
L 133.57787 203.541173 
L 133.57787 201.688691 
L 135.076644 201.688691 
L 135.076644 200.76245 
L 135.97629 200.76245 
L 135.97629 198.909968 
L 137.107884 198.909968 
L 137.107884 197.057486 
L 141.591783 197.057486 
L 141.591783 195.205004 
L 142.147664 195.205004 
L 142.147664 194.278763 
L 143.778691 194.278763 
L 143.778691 192.426281 
L 144.390658 192.426281 
L 144.390658 190.573799 
L 144.806606 190.573799 
L 144.806606 189.647558 
L 145.155404 189.647558 
L 145.155404 187.795075 
L 145.270136 187.795075 
L 145.270136 186.868834 
L 145.384119 186.868834 
L 145.384119 185.942593 
L 145.943118 185.942593 
L 145.943118 184.090111 
L 146.270114 184.090111 
L 146.377764 180.385147 
L 147.818997 180.385147 
L 147.818997 179.458906 
L 148.112924 179.458906 
L 148.112924 178.532665 
L 149.15016 178.532665 
L 149.15016 176.680183 
L 150.932558 176.680183 
L 150.932558 175.753942 
L 151.541675 175.753942 
L 151.541675 174.827701 
L 152.168773 174.827701 
L 152.168773 172.975219 
L 153.573542 172.975219 
L 153.573542 172.048978 
L 154.303908 172.048978 
L 154.303908 171.122737 
L 156.357959 171.122737 
L 156.418408 168.344014 
L 156.806295 168.344014 
L 156.806295 166.491532 
L 157.329512 166.491532 
L 157.329512 165.565291 
L 158.994256 165.565291 
L 158.994256 164.63905 
L 159.226956 164.63905 
L 159.226956 163.712808 
L 160.176607 163.712808 
L 160.176607 162.786567 
L 160.914762 162.786567 
L 160.938061 160.934085 
L 162.367945 160.934085 
L 162.367945 160.007844 
L 164.991751 160.007844 
L 164.991751 159.081603 
L 165.643763 159.081603 
L 165.643763 157.229121 
L 166.030537 157.229121 
L 166.030537 156.30288 
L 166.220754 156.30288 
L 166.220754 154.450398 
L 167.076532 154.450398 
L 167.076532 153.524157 
L 167.336582 153.524157 
L 167.336582 152.597916 
L 168.125111 152.597916 
L 168.125111 151.671675 
L 169.041203 151.671675 
L 169.041203 150.745434 
L 170.432588 150.745434 
L 170.432588 149.819193 
L 170.925369 149.819193 
L 170.925369 147.966711 
L 172.191475 147.966711 
L 172.240256 146.114229 
L 173.632396 146.114229 
L 173.632396 144.261747 
L 174.445204 144.261747 
L 174.445204 142.409265 
L 174.605444 142.409265 
L 174.605444 141.483024 
L 175.767465 141.483024 
L 175.767465 140.556783 
L 175.984964 140.556783 
L 175.984964 139.630541 
L 176.725536 139.630541 
L 176.725536 138.7043 
L 177.107399 138.7043 
L 177.107399 136.851818 
L 177.345294 136.851818 
L 177.345294 135.925577 
L 178.022633 135.925577 
L 178.022633 134.999336 
L 178.420176 134.999336 
L 178.420176 134.073095 
L 178.758649 134.073095 
L 178.758649 133.146854 
L 180.358972 133.146854 
L 180.358972 132.220613 
L 181.267628 132.220613 
L 181.267628 131.294372 
L 181.426562 131.294372 
L 181.426562 129.44189 
L 183.990085 129.44189 
L 183.990085 128.515649 
L 187.730654 128.515649 
L 187.730654 127.589408 
L 189.474129 127.589408 
L 189.474129 126.663167 
L 189.824183 126.663167 
L 189.824183 124.810685 
L 190.682452 124.810685 
L 190.69091 122.031962 
L 190.813084 122.031962 
L 190.813084 120.17948 
L 191.966381 120.17948 
L 191.966381 118.326998 
L 192.602992 118.326998 
L 192.602992 117.400757 
L 193.297461 117.400757 
L 193.297461 116.474516 
L 193.561233 116.474516 
L 193.561233 115.548274 
L 195.306958 115.548274 
L 195.306958 113.695792 
L 196.504303 113.695792 
L 196.60097 111.84331 
L 197.076427 111.84331 
L 197.076427 110.917069 
L 199.609485 110.917069 
L 199.609485 109.064587 
L 199.793576 109.064587 
L 199.793576 107.212105 
L 200.285761 107.212105 
L 200.285761 106.285864 
L 202.936721 106.285864 
L 202.936721 105.359623 
L 203.656921 105.359623 
L 203.656921 104.433382 
L 203.777109 104.433382 
L 203.777109 103.507141 
L 205.75291 103.507141 
L 205.75291 102.5809 
L 206.657674 102.5809 
L 206.657674 101.654659 
L 207.472641 101.654659 
L 207.472641 100.728418 
L 207.666975 100.728418 
L 207.666975 98.875936 
L 207.806961 98.875936 
L 207.806961 97.023454 
L 209.234629 97.023454 
L 209.234629 95.170972 
L 210.461934 95.170972 
L 210.461934 94.244731 
L 210.769432 94.244731 
L 210.769432 93.31849 
L 215.456097 93.31849 
L 215.456097 91.466008 
L 215.644115 91.466008 
L 215.644115 89.613525 
L 216.068523 89.613525 
L 216.068523 87.761043 
L 218.863724 87.761043 
L 218.863724 85.908561 
L 219.307664 85.908561 
L 219.307664 84.056079 
L 219.543663 84.056079 
L 219.543663 83.129838 
L 219.689357 83.129838 
L 219.689357 82.203597 
L 219.852913 82.203597 
L 219.852913 81.277356 
L 223.440461 81.277356 
L 223.440461 80.351115 
L 223.868291 80.351115 
L 223.868291 79.424874 
L 225.297384 79.424874 
L 225.297384 77.572392 
L 226.169601 77.572392 
L 226.169601 76.646151 
L 226.976529 76.646151 
L 226.976529 74.793669 
L 227.624114 74.793669 
L 227.624114 73.867428 
L 229.289445 73.867428 
L 229.289445 72.941187 
L 338.688 72.941187 
L 338.688 72.941187 
" style="fill:none;stroke:#000080;stroke-linecap:square;stroke-width:1.5;"/>
   </g>
   <g id="line2d_36">
    <defs>
     <path d="M 0 6 
C 1.591219 6 3.117479 5.367802 4.242641 4.242641 
C 5.367802 3.117479 6 1.591219 6 0 
C 6 -1.591219 5.367802 -3.117479 4.242641 -4.242641 
C 3.117479 -5.367802 1.591219 -6 0 -6 
C -1.591219 -6 -3.117479 -5.367802 -4.242641 -4.242641 
C -5.367802 -3.117479 -6 -1.591219 -6 0 
C -6 1.591219 -5.367802 3.117479 -4.242641 4.242641 
C -3.117479 5.367802 -1.591219 6 0 6 
z
" id="m525657650e" style="stroke:#000080;stroke-width:1.5;"/>
    </defs>
    <g>
     <use style="fill-opacity:0;stroke:#000080;stroke-width:1.5;" x="126.338353" xlink:href="#m525657650e" y="218.36103"/>
     <use style="fill-opacity:0;stroke:#000080;stroke-width:1.5;" x="175.767465" xlink:href="#m525657650e" y="141.483024"/>
     <use style="fill-opacity:0;stroke:#000080;stroke-width:1.5;" x="226.169601" xlink:href="#m525657650e" y="76.646151"/>
     <use style="fill-opacity:0;stroke:#000080;stroke-width:1.5;" x="229.289445" xlink:href="#m525657650e" y="72.941187"/>
     <use style="fill-opacity:0;stroke:#000080;stroke-width:1.5;" x="229.289445" xlink:href="#m525657650e" y="72.941187"/>
     <use style="fill-opacity:0;stroke:#000080;stroke-width:1.5;" x="338.688" xlink:href="#m525657650e" y="72.941187"/>
    </g>
   </g>
   <g id="line2d_37">
    <path style="fill:none;stroke:#000080;stroke-linecap:square;stroke-width:1.5;"/>
    <g/>
   </g>
   <g id="line2d_38">
    <path clip-path="url(#p7ddc01dde0)" d="M 230.310575 72.941187 
" style="fill:none;stroke:#000080;stroke-linecap:square;stroke-width:1.5;"/>
    <defs>
     <path d="M -12 12 
L 12 -12 
M -12 -12 
L 12 12 
" id="m4c374ade9b" style="stroke:#000080;"/>
    </defs>
    <g clip-path="url(#p7ddc01dde0)">
     <use style="fill:#000080;stroke:#000080;" x="230.310575" xlink:href="#m4c374ade9b" y="72.941187"/>
    </g>
   </g>
   <g id="line2d_39">
    <defs>
     <path d="M 0 1.5 
C 0.397805 1.5 0.77937 1.341951 1.06066 1.06066 
C 1.341951 0.77937 1.5 0.397805 1.5 0 
C 1.5 -0.397805 1.341951 -0.77937 1.06066 -1.06066 
C 0.77937 -1.341951 0.397805 -1.5 0 -1.5 
C -0.397805 -1.5 -0.77937 -1.341951 -1.06066 -1.06066 
C -1.341951 -0.77937 -1.5 -0.397805 -1.5 0 
C -1.5 0.397805 -1.341951 0.77937 -1.06066 1.06066 
C -0.77937 1.341951 -0.397805 1.5 0 1.5 
z
" id="ma2eed16ab7" style="stroke:#ff00ff;"/>
    </defs>
    <g>
     <use style="fill:#ff00ff;stroke:#ff00ff;" x="217.779296" xlink:href="#ma2eed16ab7" y="84.056079"/>
     <use style="fill:#ff00ff;stroke:#ff00ff;" x="217.779296" xlink:href="#ma2eed16ab7" y="84.056079"/>
    </g>
   </g>
   <g id="line2d_40">
    <path d="M 45.512012 298.944 
L 45.512012 284.124143 
L 64.67102 284.124143 
L 64.67102 270.230528 
L 73.579452 270.230528 
L 73.579452 267.451805 
L 81.775977 267.451805 
L 81.775977 265.599323 
L 90.242884 265.599323 
L 90.242884 264.673082 
L 93.863965 264.673082 
L 93.863965 262.8206 
L 95.918017 262.8206 
L 95.918017 261.894358 
L 97.755429 261.894358 
L 97.755429 256.336912 
L 101.646892 256.336912 
L 101.646892 248.926984 
L 102.989037 248.926984 
L 102.989037 247.074502 
L 105.951954 247.074502 
L 105.951954 243.369538 
L 109.401893 243.369538 
L 109.401893 240.590815 
L 110.274038 240.590815 
L 110.274038 238.738333 
L 110.694282 238.738333 
L 110.694282 236.88585 
L 113.022974 236.88585 
L 113.022974 235.033368 
L 113.382559 235.033368 
L 113.382559 232.254645 
L 114.080224 232.254645 
L 114.080224 231.328404 
L 114.751048 231.328404 
L 114.751048 227.62344 
L 117.765302 227.62344 
L 117.765302 225.770958 
L 118.310324 225.770958 
L 118.310324 222.992235 
L 118.576578 222.992235 
L 118.576578 222.065994 
L 121.489881 222.065994 
L 121.489881 221.139753 
L 122.782271 221.139753 
L 122.782271 220.213512 
L 123.790603 220.213512 
L 123.790603 218.36103 
L 127.642832 218.36103 
L 127.642832 216.508548 
L 129.574256 216.508548 
L 129.574256 215.582307 
L 130.127931 215.582307 
L 130.127931 213.729825 
L 130.531948 213.729825 
L 130.531948 211.877342 
L 131.185181 211.877342 
L 131.185181 210.02486 
L 131.312942 210.02486 
L 131.312942 208.172378 
L 133.009765 208.172378 
L 133.009765 207.246137 
L 134.450015 207.246137 
L 134.450015 206.319896 
L 136.645276 206.319896 
L 136.645276 204.467414 
L 139.253002 204.467414 
L 139.253002 203.541173 
L 139.964909 203.541173 
L 139.964909 201.688691 
L 140.723258 201.688691 
L 140.723258 200.76245 
L 141.941279 200.76245 
L 141.941279 199.836209 
L 143.590833 199.836209 
L 143.590833 198.909968 
L 143.716296 198.909968 
L 143.716296 197.983727 
L 144.148442 197.983727 
L 144.148442 197.057486 
L 146.107383 197.057486 
L 146.107383 196.131245 
L 146.591092 196.131245 
L 146.644018 192.426281 
L 147.917524 192.426281 
L 147.917524 191.50004 
L 148.306159 191.50004 
L 148.306159 189.647558 
L 148.54473 189.647558 
L 148.54473 188.721316 
L 148.826773 188.721316 
L 148.826773 187.795075 
L 149.012299 187.795075 
L 149.012299 186.868834 
L 149.646525 186.868834 
L 149.646525 184.090111 
L 150.301393 184.090111 
L 150.301393 182.237629 
L 150.640855 182.237629 
L 150.640855 181.311388 
L 150.973835 181.311388 
L 151.015013 178.532665 
L 151.936246 178.532665 
L 151.975216 176.680183 
L 154.906477 176.680183 
L 154.906477 175.753942 
L 155.167744 175.753942 
L 155.200129 172.048978 
L 155.488919 172.048978 
L 155.488919 171.122737 
L 156.175347 171.122737 
L 156.175347 170.196496 
L 156.98245 170.196496 
L 156.98245 168.344014 
L 158.438903 168.344014 
L 158.438903 167.417773 
L 158.915995 167.417773 
L 158.915995 166.491532 
L 159.149734 166.491532 
L 159.149734 165.565291 
L 159.32939 165.565291 
L 159.405822 162.786567 
L 159.807898 162.786567 
L 159.807898 161.860326 
L 161.955547 161.860326 
L 161.955547 160.934085 
L 163.287113 160.934085 
L 163.287113 160.007844 
L 163.649606 160.007844 
L 163.748975 157.229121 
L 163.985177 157.229121 
L 163.985177 156.30288 
L 165.429123 156.30288 
L 165.429123 155.376639 
L 165.820633 155.376639 
L 165.820633 153.524157 
L 166.476842 153.524157 
L 166.476842 152.597916 
L 168.430803 152.597916 
L 168.430803 151.671675 
L 168.686493 151.671675 
L 168.686493 150.745434 
L 169.51744 150.745434 
L 169.51744 148.892952 
L 169.911564 148.892952 
L 169.911564 147.04047 
L 170.324185 147.04047 
L 170.392016 144.261747 
L 173.268827 144.261747 
L 173.268827 143.335506 
L 173.766803 143.335506 
L 173.766803 142.409265 
L 174.530849 142.409265 
L 174.530849 141.483024 
L 174.690307 141.483024 
L 174.690307 140.556783 
L 175.242328 140.556783 
L 175.303734 137.778059 
L 175.547218 137.778059 
L 175.547218 136.851818 
L 177.829252 136.851818 
L 177.829252 135.925577 
L 178.083716 135.925577 
L 178.083716 134.073095 
L 178.334521 134.073095 
L 178.334521 133.146854 
L 178.792138 133.146854 
L 178.792138 132.220613 
L 180.541504 132.220613 
L 180.541504 131.294372 
L 181.541248 131.294372 
L 181.541248 130.368131 
L 182.486773 130.368131 
L 182.500302 128.515649 
L 183.026484 128.515649 
L 183.026484 127.589408 
L 183.739965 127.589408 
L 183.739965 126.663167 
L 185.697882 126.663167 
L 185.776513 122.958203 
L 186.688115 122.958203 
L 186.688115 121.105721 
L 188.263494 121.105721 
L 188.263494 120.17948 
L 188.427926 120.17948 
L 188.427926 119.253239 
L 190.206514 119.253239 
L 190.206514 118.326998 
L 190.640103 118.326998 
L 190.640103 116.474516 
L 191.43171 116.474516 
L 191.43171 114.622033 
L 192.659729 114.622033 
L 192.659729 112.769551 
L 193.268311 112.769551 
L 193.268311 111.84331 
L 193.814006 111.84331 
L 193.814006 110.917069 
L 194.391081 110.917069 
L 194.391081 109.990828 
L 196.385761 109.990828 
L 196.385761 108.138346 
L 196.543638 108.138346 
L 196.543638 107.212105 
L 197.210755 107.212105 
L 197.210755 106.285864 
L 199.713117 106.285864 
L 199.713117 105.359623 
L 200.263799 105.359623 
L 200.263799 103.507141 
L 200.90622 103.507141 
L 200.90622 102.5809 
L 201.065527 102.5809 
L 201.065527 101.654659 
L 202.428734 101.654659 
L 202.428734 99.802177 
L 204.286623 99.802177 
L 204.286623 98.875936 
L 204.496679 98.875936 
L 204.496679 97.023454 
L 206.924697 97.023454 
L 206.924697 96.097213 
L 208.305193 96.097213 
L 208.322122 93.31849 
L 210.761409 93.31849 
L 210.761409 92.392249 
L 211.719009 92.392249 
L 211.719009 91.466008 
L 212.941175 91.466008 
L 212.941175 89.613525 
L 216.499216 89.613525 
L 216.499216 88.687284 
L 216.674468 88.687284 
L 216.674468 86.834802 
L 217.532501 86.834802 
L 217.532501 85.908561 
L 217.779296 85.908561 
L 217.779296 84.056079 
L 338.688 84.056079 
L 338.688 84.056079 
" style="fill:none;stroke:#ff00ff;stroke-linecap:square;stroke-width:1.5;"/>
   </g>
   <g id="line2d_41">
    <defs>
     <path d="M 0 8.485281 
L 5.091169 0 
L 0 -8.485281 
L -5.091169 0 
z
" id="m9fd7698d1f" style="stroke:#ff00ff;stroke-linejoin:miter;stroke-width:1.5;"/>
    </defs>
    <g>
     <use style="fill-opacity:0;stroke:#ff00ff;stroke-linejoin:miter;stroke-width:1.5;" x="81.775977" xlink:href="#m9fd7698d1f" y="265.599323"/>
     <use style="fill-opacity:0;stroke:#ff00ff;stroke-linejoin:miter;stroke-width:1.5;" x="158.438903" xlink:href="#m9fd7698d1f" y="167.417773"/>
     <use style="fill-opacity:0;stroke:#ff00ff;stroke-linejoin:miter;stroke-width:1.5;" x="197.210755" xlink:href="#m9fd7698d1f" y="106.285864"/>
     <use style="fill-opacity:0;stroke:#ff00ff;stroke-linejoin:miter;stroke-width:1.5;" x="217.779296" xlink:href="#m9fd7698d1f" y="84.056079"/>
     <use style="fill-opacity:0;stroke:#ff00ff;stroke-linejoin:miter;stroke-width:1.5;" x="217.779296" xlink:href="#m9fd7698d1f" y="84.056079"/>
     <use style="fill-opacity:0;stroke:#ff00ff;stroke-linejoin:miter;stroke-width:1.5;" x="338.688" xlink:href="#m9fd7698d1f" y="84.056079"/>
    </g>
   </g>
   <g id="line2d_42">
    <path style="fill:none;stroke:#ff00ff;stroke-linecap:square;stroke-width:1.5;"/>
    <g/>
   </g>
   <g id="line2d_43">
    <path clip-path="url(#p7ddc01dde0)" d="M 218.22433 84.056079 
" style="fill:none;stroke:#ff00ff;stroke-linecap:square;stroke-width:1.5;"/>
    <defs>
     <path d="M -12 12 
L 12 -12 
M -12 -12 
L 12 12 
" id="m630d5b8c5d" style="stroke:#ff00ff;"/>
    </defs>
    <g clip-path="url(#p7ddc01dde0)">
     <use style="fill:#ff00ff;stroke:#ff00ff;" x="218.22433" xlink:href="#m630d5b8c5d" y="84.056079"/>
    </g>
   </g>
   <g id="line2d_44">
    <defs>
     <path d="M 0 1.5 
C 0.397805 1.5 0.77937 1.341951 1.06066 1.06066 
C 1.341951 0.77937 1.5 0.397805 1.5 0 
C 1.5 -0.397805 1.341951 -0.77937 1.06066 -1.06066 
C 0.77937 -1.341951 0.397805 -1.5 0 -1.5 
C -0.397805 -1.5 -0.77937 -1.341951 -1.06066 -1.06066 
C -1.341951 -0.77937 -1.5 -0.397805 -1.5 0 
C -1.5 0.397805 -1.341951 0.77937 -1.06066 1.06066 
C -0.77937 1.341951 -0.397805 1.5 0 1.5 
z
" id="mb63ff5f590" style="stroke:#ffa500;"/>
    </defs>
    <g>
     <use style="fill:#ffa500;stroke:#ffa500;" x="163.985177" xlink:href="#mb63ff5f590" y="185.016352"/>
     <use style="fill:#ffa500;stroke:#ffa500;" x="163.985177" xlink:href="#mb63ff5f590" y="185.016352"/>
    </g>
   </g>
   <g id="line2d_45">
    <path d="M 45.512012 298.944 
L 45.512012 282.734782 
L 57.6 282.734782 
L 57.6 280.8823 
L 64.67102 280.8823 
L 64.67102 274.861733 
L 69.687988 274.861733 
L 69.687988 272.54613 
L 73.579452 272.54613 
L 73.579452 271.619889 
L 79.447285 271.619889 
L 79.447285 271.156769 
L 81.775977 271.156769 
L 81.775977 269.304287 
L 83.830028 269.304287 
L 83.830028 267.451805 
L 87.329581 267.451805 
L 87.329581 265.599323 
L 90.242884 265.599323 
L 90.242884 262.357479 
L 92.73846 262.357479 
L 92.73846 261.431238 
L 93.863965 261.431238 
L 93.863965 260.968117 
L 94.921215 260.968117 
L 94.921215 260.504997 
L 96.86091 260.504997 
L 96.86091 256.336912 
L 97.755429 256.336912 
L 97.755429 255.410671 
L 99.41757 255.410671 
L 99.41757 254.947551 
L 102.330873 254.947551 
L 102.330873 253.095069 
L 103.623262 253.095069 
L 103.623262 252.168828 
L 105.398279 252.168828 
L 105.398279 251.705707 
L 106.48859 251.705707 
L 106.48859 250.779466 
L 108.006005 250.779466 
L 108.006005 249.390104 
L 108.483824 249.390104 
L 108.483824 248.463863 
L 109.843417 248.463863 
L 109.843417 246.148261 
L 110.274038 246.148261 
L 110.274038 245.68514 
L 110.694282 245.68514 
L 110.694282 243.832658 
L 111.104637 243.832658 
L 111.104637 243.369538 
L 113.73488 243.369538 
L 113.73488 242.443297 
L 114.080224 242.443297 
L 114.080224 241.053935 
L 115.077025 241.053935 
L 115.077025 237.812091 
L 115.711251 237.812091 
L 115.711251 236.42273 
L 116.621333 236.42273 
L 116.621333 235.033368 
L 118.039942 235.033368 
L 118.039942 234.107127 
L 118.838828 234.107127 
L 118.838828 232.254645 
L 119.602714 232.254645 
L 119.602714 230.865284 
L 119.850084 230.865284 
L 119.850084 229.475922 
L 120.8059 229.475922 
L 120.8059 228.549681 
L 121.036887 228.549681 
L 121.036887 227.62344 
L 121.264855 227.62344 
L 121.264855 226.697199 
L 121.489881 226.697199 
L 121.489881 226.234079 
L 123.593547 226.234079 
L 123.593547 225.307837 
L 123.790603 225.307837 
L 123.790603 224.381596 
L 125.110962 224.381596 
L 125.110962 223.918476 
L 125.291682 223.918476 
L 125.291682 222.992235 
L 126.338353 222.992235 
L 126.338353 222.065994 
L 127.954256 222.065994 
L 127.954256 221.139753 
L 129.290685 221.139753 
L 129.290685 220.213512 
L 130.531948 220.213512 
L 130.531948 218.82415 
L 131.312942 218.82415 
L 131.312942 217.897909 
L 131.439773 217.897909 
L 131.439773 216.045427 
L 132.181982 216.045427 
L 132.181982 215.119186 
L 133.124876 215.119186 
L 133.124876 214.192945 
L 133.57787 214.192945 
L 133.57787 213.266704 
L 134.019394 213.266704 
L 134.12805 212.340463 
L 135.582166 212.340463 
L 135.582166 211.414222 
L 135.878591 211.414222 
L 135.878591 210.487981 
L 136.170062 210.487981 
L 136.170062 210.02486 
L 136.361705 210.02486 
L 136.361705 209.098619 
L 136.551264 209.098619 
L 136.551264 208.172378 
L 137.558536 208.172378 
L 137.647286 205.856776 
L 140.723258 205.856776 
L 140.79731 204.004294 
L 141.235139 204.004294 
L 141.235139 203.541173 
L 141.378673 203.541173 
L 141.378673 202.614932 
L 143.778691 202.614932 
L 143.778691 201.688691 
L 144.747789 201.688691 
L 144.747789 201.225571 
L 145.777292 201.225571 
L 145.777292 200.299329 
L 146.107383 200.299329 
L 146.107383 199.373088 
L 146.538004 199.373088 
L 146.538004 196.594365 
L 147.266916 196.594365 
L 147.266916 196.131245 
L 147.769524 196.131245 
L 147.769524 195.205004 
L 148.826773 195.205004 
L 148.826773 194.741883 
L 149.911431 194.741883 
L 149.911431 193.815642 
L 150.258492 193.815642 
L 150.258492 193.352522 
L 150.598782 193.352522 
L 150.598782 192.426281 
L 150.808139 192.426281 
L 150.808139 191.96316 
L 151.015013 191.96316 
L 151.015013 191.036919 
L 152.168773 191.036919 
L 152.168773 190.573799 
L 153.502361 190.573799 
L 153.502361 189.647558 
L 154.269814 189.647558 
L 154.269814 187.795075 
L 155.0376 187.795075 
L 155.0376 187.331955 
L 155.361158 187.331955 
L 155.361158 186.868834 
L 155.83551 186.868834 
L 155.83551 185.942593 
L 156.052535 185.942593 
L 156.052535 185.479473 
L 163.985177 185.479473 
L 163.985177 185.016352 
L 338.688 185.016352 
L 338.688 185.016352 
" style="fill:none;stroke:#ffa500;stroke-linecap:square;stroke-width:1.5;"/>
   </g>
   <g id="line2d_46">
    <defs>
     <path d="M 0 -6 
L -1.347084 -1.854102 
L -5.706339 -1.854102 
L -2.179628 0.708204 
L -3.526712 4.854102 
L -0 2.291796 
L 3.526712 4.854102 
L 2.179628 0.708204 
L 5.706339 -1.854102 
L 1.347084 -1.854102 
z
" id="m052870ed4b" style="stroke:#ffa500;stroke-linejoin:bevel;stroke-width:1.5;"/>
    </defs>
    <g>
     <use style="fill-opacity:0;stroke:#ffa500;stroke-linejoin:bevel;stroke-width:1.5;" x="99.41757" xlink:href="#m052870ed4b" y="254.947551"/>
     <use style="fill-opacity:0;stroke:#ffa500;stroke-linejoin:bevel;stroke-width:1.5;" x="147.769524" xlink:href="#m052870ed4b" y="196.131245"/>
     <use style="fill-opacity:0;stroke:#ffa500;stroke-linejoin:bevel;stroke-width:1.5;" x="163.985177" xlink:href="#m052870ed4b" y="185.479473"/>
     <use style="fill-opacity:0;stroke:#ffa500;stroke-linejoin:bevel;stroke-width:1.5;" x="163.985177" xlink:href="#m052870ed4b" y="185.016352"/>
     <use style="fill-opacity:0;stroke:#ffa500;stroke-linejoin:bevel;stroke-width:1.5;" x="163.985177" xlink:href="#m052870ed4b" y="185.016352"/>
     <use style="fill-opacity:0;stroke:#ffa500;stroke-linejoin:bevel;stroke-width:1.5;" x="338.688" xlink:href="#m052870ed4b" y="185.016352"/>
    </g>
   </g>
   <g id="line2d_47">
    <path style="fill:none;stroke:#ffa500;stroke-linecap:square;stroke-width:1.5;"/>
    <g/>
   </g>
   <g id="line2d_48">
    <path clip-path="url(#p7ddc01dde0)" d="M 258.377404 185.016352 
" style="fill:none;stroke:#ffa500;stroke-linecap:square;stroke-width:1.5;"/>
    <defs>
     <path d="M -12 12 
L 12 -12 
M -12 -12 
L 12 12 
" id="m062f5a8cb7" style="stroke:#ffa500;"/>
    </defs>
    <g clip-path="url(#p7ddc01dde0)">
     <use style="fill:#ffa500;stroke:#ffa500;" x="258.377404" xlink:href="#m062f5a8cb7" y="185.016352"/>
    </g>
   </g>
   <g id="line2d_49">
    <defs>
     <path d="M 0 1.5 
C 0.397805 1.5 0.77937 1.341951 1.06066 1.06066 
C 1.341951 0.77937 1.5 0.397805 1.5 0 
C 1.5 -0.397805 1.341951 -0.77937 1.06066 -1.06066 
C 0.77937 -1.341951 0.397805 -1.5 0 -1.5 
C -0.397805 -1.5 -0.77937 -1.341951 -1.06066 -1.06066 
C -1.341951 -0.77937 -1.5 -0.397805 -1.5 0 
C -1.5 0.397805 -1.341951 0.77937 -1.06066 1.06066 
C -0.77937 1.341951 -0.397805 1.5 0 1.5 
z
" id="m44f4d04e48" style="stroke:#6495ed;"/>
    </defs>
    <g>
     <use style="fill:#6495ed;stroke:#6495ed;" x="182.412173" xlink:href="#m44f4d04e48" y="150.745434"/>
     <use style="fill:#6495ed;stroke:#6495ed;" x="182.412173" xlink:href="#m44f4d04e48" y="150.745434"/>
    </g>
   </g>
   <g id="line2d_50">
    <path d="M 45.512012 298.944 
L 45.512012 282.734782 
L 57.6 282.734782 
L 57.6 280.419179 
L 69.687988 280.419179 
L 69.687988 274.861733 
L 73.579452 274.861733 
L 73.579452 270.693648 
L 79.447285 270.693648 
L 79.447285 269.304287 
L 81.775977 269.304287 
L 81.775977 261.894358 
L 85.66744 261.894358 
L 85.66744 257.726274 
L 87.329581 257.726274 
L 87.329581 256.336912 
L 88.846997 256.336912 
L 88.846997 255.873792 
L 90.242884 255.873792 
L 90.242884 254.947551 
L 91.535274 254.947551 
L 91.535274 253.558189 
L 102.330873 253.558189 
L 102.330873 253.095069 
L 102.989037 253.095069 
L 102.989037 250.779466 
L 104.826449 250.779466 
L 104.826449 250.316346 
L 105.398279 250.316346 
L 105.398279 249.390104 
L 107.009204 249.390104 
L 107.009204 248.463863 
L 107.514726 248.463863 
L 107.514726 247.074502 
L 108.006005 247.074502 
L 108.006005 246.148261 
L 109.401893 246.148261 
L 109.401893 244.295779 
L 109.843417 244.295779 
L 109.843417 241.980176 
L 112.280765 241.980176 
L 112.280765 241.053935 
L 112.655818 241.053935 
L 112.655818 240.127694 
L 113.382559 240.127694 
L 113.382559 239.201453 
L 115.077025 239.201453 
L 115.077025 237.812091 
L 116.323218 237.812091 
L 116.323218 236.88585 
L 116.914437 236.88585 
L 116.914437 236.42273 
L 117.202696 236.42273 
L 117.202696 235.496489 
L 117.765302 235.496489 
L 117.765302 234.570248 
L 118.310324 234.570248 
L 118.310324 233.644007 
L 119.097192 233.644007 
L 119.097192 231.791525 
L 119.351785 231.791525 
L 119.351785 230.865284 
L 119.850084 230.865284 
L 119.850084 229.939043 
L 120.093994 229.939043 
L 120.093994 229.012802 
L 121.036887 229.012802 
L 121.036887 228.549681 
L 122.148045 228.549681 
L 122.148045 227.62344 
L 123.985457 227.62344 
L 123.985457 226.697199 
L 125.470548 226.697199 
L 125.470548 226.234079 
L 126.338353 226.234079 
L 126.338353 225.307837 
L 126.50685 225.307837 
L 126.50685 224.844717 
L 127.165014 224.844717 
L 127.165014 224.381596 
L 127.325746 224.381596 
L 127.325746 223.455355 
L 127.48501 223.455355 
L 127.48501 222.529114 
L 127.642832 222.529114 
L 127.642832 221.139753 
L 127.799239 221.139753 
L 127.799239 220.676632 
L 128.709321 220.676632 
L 128.709321 219.750391 
L 129.433047 219.750391 
L 129.433047 218.82415 
L 130.398313 218.82415 
L 130.398313 217.897909 
L 131.439773 217.897909 
L 131.439773 216.971668 
L 131.938072 216.971668 
L 131.938072 216.508548 
L 133.46572 216.508548 
L 133.46572 215.582307 
L 135.178927 215.582307 
L 135.178927 215.119186 
L 135.381712 215.119186 
L 135.482227 213.266704 
L 135.681535 213.266704 
L 135.681535 212.340463 
L 135.97629 212.340463 
L 136.073445 210.487981 
L 137.289545 210.487981 
L 137.289545 210.02486 
L 138.84457 210.02486 
L 138.84457 209.56174 
L 139.090775 209.56174 
L 139.090775 209.098619 
L 142.215919 209.098619 
L 142.215919 208.172378 
L 142.486301 208.172378 
L 142.486301 207.246137 
L 142.686372 207.246137 
L 142.686372 206.783017 
L 144.087359 206.783017 
L 144.087359 206.319896 
L 144.923649 206.319896 
L 144.923649 205.856776 
L 145.832743 205.856776 
L 145.832743 204.930535 
L 145.998045 204.930535 
L 145.998045 204.467414 
L 146.324022 204.467414 
L 146.324022 204.004294 
L 147.620256 204.004294 
L 147.71991 202.151812 
L 147.86833 202.151812 
L 147.86833 201.688691 
L 148.639252 201.688691 
L 148.639252 200.76245 
L 148.966103 200.76245 
L 148.966103 199.836209 
L 149.646525 199.836209 
L 149.735275 198.446847 
L 149.823575 198.446847 
L 149.823575 197.520606 
L 150.129152 197.520606 
L 150.129152 197.057486 
L 150.556607 197.057486 
L 150.598782 194.741883 
L 151.219462 194.741883 
L 151.219462 194.278763 
L 151.501723 194.278763 
L 151.541675 193.352522 
L 151.936246 193.352522 
L 151.936246 192.889401 
L 152.130233 192.889401 
L 152.168773 191.036919 
L 152.662192 191.036919 
L 152.662192 190.573799 
L 154.029268 190.573799 
L 154.029268 189.184437 
L 154.507086 189.184437 
L 154.507086 188.721316 
L 154.674612 188.721316 
L 154.674612 188.258196 
L 155.102793 188.258196 
L 155.102793 187.795075 
L 155.425155 187.795075 
L 155.488919 186.868834 
L 155.86668 186.868834 
L 155.897793 185.942593 
L 156.205916 185.942593 
L 156.236431 185.016352 
L 157.156845 185.016352 
L 157.156845 184.090111 
L 157.300853 184.090111 
L 157.300853 183.626991 
L 157.86528 183.626991 
L 157.86528 183.16387 
L 158.51933 183.16387 
L 158.51933 182.70075 
L 159.507213 182.70075 
L 159.507213 182.237629 
L 159.758143 182.237629 
L 159.758143 181.774509 
L 160.961329 181.774509 
L 160.961329 180.848268 
L 161.283861 180.848268 
L 161.352206 178.532665 
L 161.397621 178.532665 
L 161.397621 177.606424 
L 162.281931 177.606424 
L 162.281931 177.143304 
L 162.728843 177.143304 
L 162.791763 176.217062 
L 163.020547 176.217062 
L 163.020547 175.753942 
L 163.52961 175.753942 
L 163.52961 175.290821 
L 163.808326 175.290821 
L 163.887148 173.438339 
L 163.926426 173.438339 
L 163.926426 172.512098 
L 164.467222 172.512098 
L 164.467222 172.048978 
L 165.175324 172.048978 
L 165.175324 171.122737 
L 165.320804 171.122737 
L 165.338904 170.196496 
L 165.803027 170.196496 
L 165.803027 169.733375 
L 166.030537 169.733375 
L 166.030537 169.270255 
L 166.459886 169.270255 
L 166.459886 168.344014 
L 166.595075 168.344014 
L 166.595075 167.417773 
L 166.779265 167.417773 
L 166.779265 166.491532 
L 167.027338 166.491532 
L 167.027338 166.028411 
L 167.656285 166.028411 
L 167.687935 165.10217 
L 167.782543 165.10217 
L 167.782543 164.175929 
L 168.293904 164.175929 
L 168.293904 163.712808 
L 168.731229 163.712808 
L 168.731229 162.786567 
L 169.201398 162.786567 
L 169.201398 161.860326 
L 169.939378 161.860326 
L 169.939378 161.397206 
L 170.727268 161.397206 
L 170.727268 160.934085 
L 170.872762 160.934085 
L 170.951613 160.007844 
L 171.160157 160.007844 
L 171.160157 159.081603 
L 171.455636 159.081603 
L 171.455636 158.618483 
L 171.683438 158.618483 
L 171.683438 158.155362 
L 172.068921 158.155362 
L 172.068921 157.692242 
L 172.518131 157.692242 
L 172.518131 157.229121 
L 172.909242 157.229121 
L 172.909242 156.766001 
L 174.261802 156.766001 
L 174.261802 156.30288 
L 175.149812 156.30288 
L 175.149812 155.83976 
L 175.303734 155.83976 
L 175.303734 155.376639 
L 175.737594 155.376639 
L 175.737594 154.913519 
L 176.61217 154.913519 
L 176.61217 154.450398 
L 176.94078 154.450398 
L 176.94078 153.524157 
L 178.900534 153.524157 
L 178.900534 153.061037 
L 179.69669 153.061037 
L 179.69669 152.134795 
L 180.351324 152.134795 
L 180.351324 151.671675 
L 181.143816 151.671675 
L 181.143816 151.208554 
L 182.412173 151.208554 
L 182.412173 150.745434 
L 338.688 150.745434 
L 338.688 150.745434 
" style="fill:none;stroke:#6495ed;stroke-linecap:square;stroke-width:1.5;"/>
   </g>
   <g id="line2d_51">
    <defs>
     <path d="M -0 6 
L 6 -6 
L -6 -6 
z
" id="m4c2ebae678" style="stroke:#6495ed;stroke-linejoin:miter;stroke-width:1.5;"/>
    </defs>
    <g>
     <use style="fill-opacity:0;stroke:#6495ed;stroke-linejoin:miter;stroke-width:1.5;" x="117.202696" xlink:href="#m4c2ebae678" y="236.42273"/>
     <use style="fill-opacity:0;stroke:#6495ed;stroke-linejoin:miter;stroke-width:1.5;" x="170.727268" xlink:href="#m4c2ebae678" y="160.934085"/>
     <use style="fill-opacity:0;stroke:#6495ed;stroke-linejoin:miter;stroke-width:1.5;" x="182.412173" xlink:href="#m4c2ebae678" y="151.208554"/>
     <use style="fill-opacity:0;stroke:#6495ed;stroke-linejoin:miter;stroke-width:1.5;" x="182.412173" xlink:href="#m4c2ebae678" y="150.745434"/>
     <use style="fill-opacity:0;stroke:#6495ed;stroke-linejoin:miter;stroke-width:1.5;" x="182.412173" xlink:href="#m4c2ebae678" y="150.745434"/>
     <use style="fill-opacity:0;stroke:#6495ed;stroke-linejoin:miter;stroke-width:1.5;" x="338.688" xlink:href="#m4c2ebae678" y="150.745434"/>
    </g>
   </g>
   <g id="line2d_52">
    <path style="fill:none;stroke:#6495ed;stroke-linecap:square;stroke-width:1.5;"/>
    <g/>
   </g>
   <g id="line2d_53">
    <path clip-path="url(#p7ddc01dde0)" d="M 258.37723 150.745434 
" style="fill:none;stroke:#6495ed;stroke-linecap:square;stroke-width:1.5;"/>
    <defs>
     <path d="M -12 12 
L 12 -12 
M -12 -12 
L 12 12 
" id="me0af3ceb75" style="stroke:#6495ed;"/>
    </defs>
    <g clip-path="url(#p7ddc01dde0)">
     <use style="fill:#6495ed;stroke:#6495ed;" x="258.37723" xlink:href="#me0af3ceb75" y="150.745434"/>
    </g>
   </g>
   <g id="line2d_54">
    <path d="M 338.688 185.016352 
L 369.60768 293.571802 
" style="fill:none;stroke:#ffa500;stroke-linecap:square;stroke-width:1.5;"/>
    <g>
     <use style="fill-opacity:0;stroke:#ffa500;stroke-linejoin:bevel;stroke-width:1.5;" x="338.688" xlink:href="#m052870ed4b" y="185.016352"/>
     <use style="fill-opacity:0;stroke:#ffa500;stroke-linejoin:bevel;stroke-width:1.5;" x="369.60768" xlink:href="#m052870ed4b" y="293.571802"/>
    </g>
   </g>
   <g id="line2d_55">
    <path d="M 338.688 150.745434 
L 369.60768 229.105426 
" style="fill:none;stroke:#6495ed;stroke-linecap:square;stroke-width:1.5;"/>
    <g>
     <use style="fill-opacity:0;stroke:#6495ed;stroke-linejoin:miter;stroke-width:1.5;" x="338.688" xlink:href="#m4c2ebae678" y="150.745434"/>
     <use style="fill-opacity:0;stroke:#6495ed;stroke-linejoin:miter;stroke-width:1.5;" x="369.60768" xlink:href="#m4c2ebae678" y="229.105426"/>
    </g>
   </g>
   <g id="line2d_56">
    <path d="M 338.688 84.056079 
L 369.60768 164.63905 
" style="fill:none;stroke:#ff00ff;stroke-linecap:square;stroke-width:1.5;"/>
    <g>
     <use style="fill-opacity:0;stroke:#ff00ff;stroke-linejoin:miter;stroke-width:1.5;" x="338.688" xlink:href="#m9fd7698d1f" y="84.056079"/>
     <use style="fill-opacity:0;stroke:#ff00ff;stroke-linejoin:miter;stroke-width:1.5;" x="369.60768" xlink:href="#m9fd7698d1f" y="164.63905"/>
    </g>
   </g>
   <g id="line2d_57">
    <path d="M 338.688 72.941187 
L 369.60768 100.172673 
" style="fill:none;stroke:#000080;stroke-linecap:square;stroke-width:1.5;"/>
    <g>
     <use style="fill-opacity:0;stroke:#000080;stroke-width:1.5;" x="338.688" xlink:href="#m525657650e" y="72.941187"/>
     <use style="fill-opacity:0;stroke:#000080;stroke-width:1.5;" x="369.60768" xlink:href="#m525657650e" y="100.172673"/>
    </g>
   </g>
   <g id="line2d_58">
    <path d="M 338.688 298.944 
L 338.688 30.334099 
" style="fill:none;stroke:#000000;stroke-linecap:square;stroke-width:1.5;"/>
   </g>
   <g id="patch_3">
    <path d="M 57.6 298.944 
L 57.6 27.648 
" style="fill:none;stroke:#000000;stroke-linecap:square;stroke-linejoin:miter;stroke-width:0.8;"/>
   </g>
   <g id="patch_4">
    <path d="M 338.688 298.944 
L 338.688 27.648 
" style="fill:none;stroke:#000000;stroke-linecap:square;stroke-linejoin:miter;stroke-width:0.8;"/>
   </g>
   <g id="patch_5">
    <path d="M 57.6 298.944 
L 338.688 298.944 
" style="fill:none;stroke:#000000;stroke-linecap:square;stroke-linejoin:miter;stroke-width:0.8;"/>
   </g>
   <g id="patch_6">
    <path d="M 57.6 27.648 
L 338.688 27.648 
" style="fill:none;stroke:#000000;stroke-linecap:square;stroke-linejoin:miter;stroke-width:0.8;"/>
   </g>
   <g id="text_13">
    <!-- COMO-3 bi -->
    <defs>
     <path d="M 64.40625 67.28125 
L 64.40625 56.890625 
Q 59.421875 61.53125 53.78125 63.8125 
Q 48.140625 66.109375 41.796875 66.109375 
Q 29.296875 66.109375 22.65625 58.46875 
Q 16.015625 50.828125 16.015625 36.375 
Q 16.015625 21.96875 22.65625 14.328125 
Q 29.296875 6.6875 41.796875 6.6875 
Q 48.140625 6.6875 53.78125 8.984375 
Q 59.421875 11.28125 64.40625 15.921875 
L 64.40625 5.609375 
Q 59.234375 2.09375 53.4375 0.328125 
Q 47.65625 -1.421875 41.21875 -1.421875 
Q 24.65625 -1.421875 15.125 8.703125 
Q 5.609375 18.84375 5.609375 36.375 
Q 5.609375 53.953125 15.125 64.078125 
Q 24.65625 74.21875 41.21875 74.21875 
Q 47.75 74.21875 53.53125 72.484375 
Q 59.328125 70.75 64.40625 67.28125 
z
" id="DejaVuSans-67"/>
     <path d="M 39.40625 66.21875 
Q 28.65625 66.21875 22.328125 58.203125 
Q 16.015625 50.203125 16.015625 36.375 
Q 16.015625 22.609375 22.328125 14.59375 
Q 28.65625 6.59375 39.40625 6.59375 
Q 50.140625 6.59375 56.421875 14.59375 
Q 62.703125 22.609375 62.703125 36.375 
Q 62.703125 50.203125 56.421875 58.203125 
Q 50.140625 66.21875 39.40625 66.21875 
z
M 39.40625 74.21875 
Q 54.734375 74.21875 63.90625 63.9375 
Q 73.09375 53.65625 73.09375 36.375 
Q 73.09375 19.140625 63.90625 8.859375 
Q 54.734375 -1.421875 39.40625 -1.421875 
Q 24.03125 -1.421875 14.8125 8.828125 
Q 5.609375 19.09375 5.609375 36.375 
Q 5.609375 53.65625 14.8125 63.9375 
Q 24.03125 74.21875 39.40625 74.21875 
z
" id="DejaVuSans-79"/>
     <path d="M 9.8125 72.90625 
L 24.515625 72.90625 
L 43.109375 23.296875 
L 61.8125 72.90625 
L 76.515625 72.90625 
L 76.515625 0 
L 66.890625 0 
L 66.890625 64.015625 
L 48.09375 14.015625 
L 38.1875 14.015625 
L 19.390625 64.015625 
L 19.390625 0 
L 9.8125 0 
z
" id="DejaVuSans-77"/>
     <path d="M 40.578125 39.3125 
Q 47.65625 37.796875 51.625 33 
Q 55.609375 28.21875 55.609375 21.1875 
Q 55.609375 10.40625 48.1875 4.484375 
Q 40.765625 -1.421875 27.09375 -1.421875 
Q 22.515625 -1.421875 17.65625 -0.515625 
Q 12.796875 0.390625 7.625 2.203125 
L 7.625 11.71875 
Q 11.71875 9.328125 16.59375 8.109375 
Q 21.484375 6.890625 26.8125 6.890625 
Q 36.078125 6.890625 40.9375 10.546875 
Q 45.796875 14.203125 45.796875 21.1875 
Q 45.796875 27.640625 41.28125 31.265625 
Q 36.765625 34.90625 28.71875 34.90625 
L 20.21875 34.90625 
L 20.21875 43.015625 
L 29.109375 43.015625 
Q 36.375 43.015625 40.234375 45.921875 
Q 44.09375 48.828125 44.09375 54.296875 
Q 44.09375 59.90625 40.109375 62.90625 
Q 36.140625 65.921875 28.71875 65.921875 
Q 24.65625 65.921875 20.015625 65.03125 
Q 15.375 64.15625 9.8125 62.3125 
L 9.8125 71.09375 
Q 15.4375 72.65625 20.34375 73.4375 
Q 25.25 74.21875 29.59375 74.21875 
Q 40.828125 74.21875 47.359375 69.109375 
Q 53.90625 64.015625 53.90625 55.328125 
Q 53.90625 49.265625 50.4375 45.09375 
Q 46.96875 40.921875 40.578125 39.3125 
z
" id="DejaVuSans-51"/>
     <path d="M 48.6875 27.296875 
Q 48.6875 37.203125 44.609375 42.84375 
Q 40.53125 48.484375 33.40625 48.484375 
Q 26.265625 48.484375 22.1875 42.84375 
Q 18.109375 37.203125 18.109375 27.296875 
Q 18.109375 17.390625 22.1875 11.75 
Q 26.265625 6.109375 33.40625 6.109375 
Q 40.53125 6.109375 44.609375 11.75 
Q 48.6875 17.390625 48.6875 27.296875 
z
M 18.109375 46.390625 
Q 20.953125 51.265625 25.265625 53.625 
Q 29.59375 56 35.59375 56 
Q 45.5625 56 51.78125 48.09375 
Q 58.015625 40.1875 58.015625 27.296875 
Q 58.015625 14.40625 51.78125 6.484375 
Q 45.5625 -1.421875 35.59375 -1.421875 
Q 29.59375 -1.421875 25.265625 0.953125 
Q 20.953125 3.328125 18.109375 8.203125 
L 18.109375 0 
L 9.078125 0 
L 9.078125 75.984375 
L 18.109375 75.984375 
z
" id="DejaVuSans-98"/>
    </defs>
    <g transform="translate(375.22944 298.262739)scale(0.17 -0.17)">
     <use xlink:href="#DejaVuSans-67"/>
     <use x="69.824219" xlink:href="#DejaVuSans-79"/>
     <use x="148.535156" xlink:href="#DejaVuSans-77"/>
     <use x="234.814453" xlink:href="#DejaVuSans-79"/>
     <use x="313.556641" xlink:href="#DejaVuSans-45"/>
     <use x="349.640625" xlink:href="#DejaVuSans-51"/>
     <use x="413.263672" xlink:href="#DejaVuSans-32"/>
     <use x="445.050781" xlink:href="#DejaVuSans-98"/>
     <use x="508.527344" xlink:href="#DejaVuSans-105"/>
    </g>
   </g>
   <g id="text_14">
    <!-- COMO-10 b -->
    <g transform="translate(375.22944 233.796363)scale(0.17 -0.17)">
     <use xlink:href="#DejaVuSans-67"/>
     <use x="69.824219" xlink:href="#DejaVuSans-79"/>
     <use x="148.535156" xlink:href="#DejaVuSans-77"/>
     <use x="234.814453" xlink:href="#DejaVuSans-79"/>
     <use x="313.556641" xlink:href="#DejaVuSans-45"/>
     <use x="349.640625" xlink:href="#DejaVuSans-49"/>
     <use x="413.263672" xlink:href="#DejaVuSans-48"/>
     <use x="476.886719" xlink:href="#DejaVuSans-32"/>
     <use x="508.673828" xlink:href="#DejaVuSans-98"/>
    </g>
   </g>
   <g id="text_15">
    <!-- chv-1e-1t -->
    <defs>
     <path d="M 54.890625 33.015625 
L 54.890625 0 
L 45.90625 0 
L 45.90625 32.71875 
Q 45.90625 40.484375 42.875 44.328125 
Q 39.84375 48.1875 33.796875 48.1875 
Q 26.515625 48.1875 22.3125 43.546875 
Q 18.109375 38.921875 18.109375 30.90625 
L 18.109375 0 
L 9.078125 0 
L 9.078125 75.984375 
L 18.109375 75.984375 
L 18.109375 46.1875 
Q 21.34375 51.125 25.703125 53.5625 
Q 30.078125 56 35.796875 56 
Q 45.21875 56 50.046875 50.171875 
Q 54.890625 44.34375 54.890625 33.015625 
z
" id="DejaVuSans-104"/>
    </defs>
    <g transform="translate(375.22944 169.329987)scale(0.17 -0.17)">
     <use xlink:href="#DejaVuSans-99"/>
     <use x="54.980469" xlink:href="#DejaVuSans-104"/>
     <use x="118.359375" xlink:href="#DejaVuSans-118"/>
     <use x="177.507812" xlink:href="#DejaVuSans-45"/>
     <use x="213.591797" xlink:href="#DejaVuSans-49"/>
     <use x="277.214844" xlink:href="#DejaVuSans-101"/>
     <use x="338.738281" xlink:href="#DejaVuSans-45"/>
     <use x="374.822266" xlink:href="#DejaVuSans-49"/>
     <use x="438.445312" xlink:href="#DejaVuSans-116"/>
    </g>
   </g>
   <g id="text_16">
    <!-- chvPlusRa -->
    <defs>
     <path d="M 19.671875 64.796875 
L 19.671875 37.40625 
L 32.078125 37.40625 
Q 38.96875 37.40625 42.71875 40.96875 
Q 46.484375 44.53125 46.484375 51.125 
Q 46.484375 57.671875 42.71875 61.234375 
Q 38.96875 64.796875 32.078125 64.796875 
z
M 9.8125 72.90625 
L 32.078125 72.90625 
Q 44.34375 72.90625 50.609375 67.359375 
Q 56.890625 61.8125 56.890625 51.125 
Q 56.890625 40.328125 50.609375 34.8125 
Q 44.34375 29.296875 32.078125 29.296875 
L 19.671875 29.296875 
L 19.671875 0 
L 9.8125 0 
z
" id="DejaVuSans-80"/>
     <path d="M 44.390625 34.1875 
Q 47.5625 33.109375 50.5625 29.59375 
Q 53.5625 26.078125 56.59375 19.921875 
L 66.609375 0 
L 56 0 
L 46.6875 18.703125 
Q 43.0625 26.03125 39.671875 28.421875 
Q 36.28125 30.8125 30.421875 30.8125 
L 19.671875 30.8125 
L 19.671875 0 
L 9.8125 0 
L 9.8125 72.90625 
L 32.078125 72.90625 
Q 44.578125 72.90625 50.734375 67.671875 
Q 56.890625 62.453125 56.890625 51.90625 
Q 56.890625 45.015625 53.6875 40.46875 
Q 50.484375 35.9375 44.390625 34.1875 
z
M 19.671875 64.796875 
L 19.671875 38.921875 
L 32.078125 38.921875 
Q 39.203125 38.921875 42.84375 42.21875 
Q 46.484375 45.515625 46.484375 51.90625 
Q 46.484375 58.296875 42.84375 61.546875 
Q 39.203125 64.796875 32.078125 64.796875 
z
" id="DejaVuSans-82"/>
    </defs>
    <g transform="translate(375.22944 104.863611)scale(0.17 -0.17)">
     <use xlink:href="#DejaVuSans-99"/>
     <use x="54.980469" xlink:href="#DejaVuSans-104"/>
     <use x="118.359375" xlink:href="#DejaVuSans-118"/>
     <use x="177.539062" xlink:href="#DejaVuSans-80"/>
     <use x="237.841797" xlink:href="#DejaVuSans-108"/>
     <use x="265.625" xlink:href="#DejaVuSans-117"/>
     <use x="329.003906" xlink:href="#DejaVuSans-115"/>
     <use x="381.103516" xlink:href="#DejaVuSans-82"/>
     <use x="450.554688" xlink:href="#DejaVuSans-97"/>
    </g>
   </g>
   <g id="text_17">
    <!-- best 2016 -->
    <g transform="translate(375.22944 40.397235)scale(0.17 -0.17)">
     <use xlink:href="#DejaVuSans-98"/>
     <use x="63.476562" xlink:href="#DejaVuSans-101"/>
     <use x="125" xlink:href="#DejaVuSans-115"/>
     <use x="177.099609" xlink:href="#DejaVuSans-116"/>
     <use x="216.308594" xlink:href="#DejaVuSans-32"/>
     <use x="248.095703" xlink:href="#DejaVuSans-50"/>
     <use x="311.71875" xlink:href="#DejaVuSans-48"/>
     <use x="375.341797" xlink:href="#DejaVuSans-49"/>
     <use x="438.964844" xlink:href="#DejaVuSans-54"/>
    </g>
   </g>
   <g id="text_18">
    <!-- bbob-biobj f23, 2-D -->
    <defs>
     <path d="M 9.421875 54.6875 
L 18.40625 54.6875 
L 18.40625 -0.984375 
Q 18.40625 -11.421875 14.421875 -16.109375 
Q 10.453125 -20.796875 1.609375 -20.796875 
L -1.8125 -20.796875 
L -1.8125 -13.1875 
L 0.59375 -13.1875 
Q 5.71875 -13.1875 7.5625 -10.8125 
Q 9.421875 -8.453125 9.421875 -0.984375 
z
M 9.421875 75.984375 
L 18.40625 75.984375 
L 18.40625 64.59375 
L 9.421875 64.59375 
z
" id="DejaVuSans-106"/>
     <path d="M 19.671875 64.796875 
L 19.671875 8.109375 
L 31.59375 8.109375 
Q 46.6875 8.109375 53.6875 14.9375 
Q 60.6875 21.78125 60.6875 36.53125 
Q 60.6875 51.171875 53.6875 57.984375 
Q 46.6875 64.796875 31.59375 64.796875 
z
M 9.8125 72.90625 
L 30.078125 72.90625 
Q 51.265625 72.90625 61.171875 64.09375 
Q 71.09375 55.28125 71.09375 36.53125 
Q 71.09375 17.671875 61.125 8.828125 
Q 51.171875 0 30.078125 0 
L 9.8125 0 
z
" id="DejaVuSans-68"/>
    </defs>
    <g transform="translate(60.41088 38.111366)scale(0.102 -0.102)">
     <use xlink:href="#DejaVuSans-98"/>
     <use x="63.476562" xlink:href="#DejaVuSans-98"/>
     <use x="126.953125" xlink:href="#DejaVuSans-111"/>
     <use x="188.134766" xlink:href="#DejaVuSans-98"/>
     <use x="251.611328" xlink:href="#DejaVuSans-45"/>
     <use x="287.695312" xlink:href="#DejaVuSans-98"/>
     <use x="351.171875" xlink:href="#DejaVuSans-105"/>
     <use x="378.955078" xlink:href="#DejaVuSans-111"/>
     <use x="440.136719" xlink:href="#DejaVuSans-98"/>
     <use x="503.613281" xlink:href="#DejaVuSans-106"/>
     <use x="531.396484" xlink:href="#DejaVuSans-32"/>
     <use x="563.183594" xlink:href="#DejaVuSans-102"/>
     <use x="598.388672" xlink:href="#DejaVuSans-50"/>
     <use x="662.011719" xlink:href="#DejaVuSans-51"/>
     <use x="725.634766" xlink:href="#DejaVuSans-44"/>
     <use x="757.421875" xlink:href="#DejaVuSans-32"/>
     <use x="789.208984" xlink:href="#DejaVuSans-50"/>
     <use x="852.832031" xlink:href="#DejaVuSans-45"/>
     <use x="888.916016" xlink:href="#DejaVuSans-68"/>
    </g>
    <!-- 58 targets: 1..-1.0e-4 -->
    <defs>
     <path d="M 10.796875 72.90625 
L 49.515625 72.90625 
L 49.515625 64.59375 
L 19.828125 64.59375 
L 19.828125 46.734375 
Q 21.96875 47.46875 24.109375 47.828125 
Q 26.265625 48.1875 28.421875 48.1875 
Q 40.625 48.1875 47.75 41.5 
Q 54.890625 34.8125 54.890625 23.390625 
Q 54.890625 11.625 47.5625 5.09375 
Q 40.234375 -1.421875 26.90625 -1.421875 
Q 22.3125 -1.421875 17.546875 -0.640625 
Q 12.796875 0.140625 7.71875 1.703125 
L 7.71875 11.625 
Q 12.109375 9.234375 16.796875 8.0625 
Q 21.484375 6.890625 26.703125 6.890625 
Q 35.15625 6.890625 40.078125 11.328125 
Q 45.015625 15.765625 45.015625 23.390625 
Q 45.015625 31 40.078125 35.4375 
Q 35.15625 39.890625 26.703125 39.890625 
Q 22.75 39.890625 18.8125 39.015625 
Q 14.890625 38.140625 10.796875 36.28125 
z
" id="DejaVuSans-53"/>
     <path d="M 11.71875 12.40625 
L 22.015625 12.40625 
L 22.015625 0 
L 11.71875 0 
z
M 11.71875 51.703125 
L 22.015625 51.703125 
L 22.015625 39.3125 
L 11.71875 39.3125 
z
" id="DejaVuSans-58"/>
    </defs>
    <g transform="translate(60.41088 49.533135)scale(0.102 -0.102)">
     <use xlink:href="#DejaVuSans-53"/>
     <use x="63.623047" xlink:href="#DejaVuSans-56"/>
     <use x="127.246094" xlink:href="#DejaVuSans-32"/>
     <use x="159.033203" xlink:href="#DejaVuSans-116"/>
     <use x="198.242188" xlink:href="#DejaVuSans-97"/>
     <use x="259.521484" xlink:href="#DejaVuSans-114"/>
     <use x="300.619141" xlink:href="#DejaVuSans-103"/>
     <use x="364.095703" xlink:href="#DejaVuSans-101"/>
     <use x="425.619141" xlink:href="#DejaVuSans-116"/>
     <use x="464.828125" xlink:href="#DejaVuSans-115"/>
     <use x="516.927734" xlink:href="#DejaVuSans-58"/>
     <use x="550.619141" xlink:href="#DejaVuSans-32"/>
     <use x="582.40625" xlink:href="#DejaVuSans-49"/>
     <use x="646.029297" xlink:href="#DejaVuSans-46"/>
     <use x="677.816406" xlink:href="#DejaVuSans-46"/>
     <use x="709.603516" xlink:href="#DejaVuSans-45"/>
     <use x="745.6875" xlink:href="#DejaVuSans-49"/>
     <use x="809.310547" xlink:href="#DejaVuSans-46"/>
     <use x="841.097656" xlink:href="#DejaVuSans-48"/>
     <use x="904.720703" xlink:href="#DejaVuSans-101"/>
     <use x="966.244141" xlink:href="#DejaVuSans-45"/>
     <use x="1002.328125" xlink:href="#DejaVuSans-52"/>
    </g>
    <!-- 10, 5 instances -->
    <g transform="translate(60.41088 60.954904)scale(0.102 -0.102)">
     <use xlink:href="#DejaVuSans-49"/>
     <use x="63.623047" xlink:href="#DejaVuSans-48"/>
     <use x="127.246094" xlink:href="#DejaVuSans-44"/>
     <use x="159.033203" xlink:href="#DejaVuSans-32"/>
     <use x="190.820312" xlink:href="#DejaVuSans-53"/>
     <use x="254.443359" xlink:href="#DejaVuSans-32"/>
     <use x="286.230469" xlink:href="#DejaVuSans-105"/>
     <use x="314.013672" xlink:href="#DejaVuSans-110"/>
     <use x="377.392578" xlink:href="#DejaVuSans-115"/>
     <use x="429.492188" xlink:href="#DejaVuSans-116"/>
     <use x="468.701172" xlink:href="#DejaVuSans-97"/>
     <use x="529.980469" xlink:href="#DejaVuSans-110"/>
     <use x="593.359375" xlink:href="#DejaVuSans-99"/>
     <use x="648.339844" xlink:href="#DejaVuSans-101"/>
     <use x="709.863281" xlink:href="#DejaVuSans-115"/>
    </g>
   </g>
   <g id="text_19">
    <!-- v2.3.1.83 -->
    <g style="fill:#808080;" transform="translate(174.511187 294.151352)scale(0.1 -0.1)">
     <use xlink:href="#DejaVuSans-118"/>
     <use x="59.179688" xlink:href="#DejaVuSans-50"/>
     <use x="122.802734" xlink:href="#DejaVuSans-46"/>
     <use x="154.589844" xlink:href="#DejaVuSans-51"/>
     <use x="218.212891" xlink:href="#DejaVuSans-46"/>
     <use x="250" xlink:href="#DejaVuSans-49"/>
     <use x="313.623047" xlink:href="#DejaVuSans-46"/>
     <use x="345.410156" xlink:href="#DejaVuSans-56"/>
     <use x="409.033203" xlink:href="#DejaVuSans-51"/>
    </g>
   </g>
   <g id="text_20">
    <!-- 23 Attr. sector/Diff. Powers -->
    <defs>
     <path d="M 34.1875 63.1875 
L 20.796875 26.90625 
L 47.609375 26.90625 
z
M 28.609375 72.90625 
L 39.796875 72.90625 
L 67.578125 0 
L 57.328125 0 
L 50.6875 18.703125 
L 17.828125 18.703125 
L 11.1875 0 
L 0.78125 0 
z
" id="DejaVuSans-65"/>
     <path d="M 4.203125 54.6875 
L 13.1875 54.6875 
L 24.421875 12.015625 
L 35.59375 54.6875 
L 46.1875 54.6875 
L 57.421875 12.015625 
L 68.609375 54.6875 
L 77.59375 54.6875 
L 63.28125 0 
L 52.6875 0 
L 40.921875 44.828125 
L 29.109375 0 
L 18.5 0 
z
" id="DejaVuSans-119"/>
    </defs>
    <g transform="translate(63.069 21.648)scale(0.2 -0.2)">
     <use xlink:href="#DejaVuSans-50"/>
     <use x="63.623047" xlink:href="#DejaVuSans-51"/>
     <use x="127.246094" xlink:href="#DejaVuSans-32"/>
     <use x="159.033203" xlink:href="#DejaVuSans-65"/>
     <use x="227.425781" xlink:href="#DejaVuSans-116"/>
     <use x="266.634766" xlink:href="#DejaVuSans-116"/>
     <use x="305.84375" xlink:href="#DejaVuSans-114"/>
     <use x="346.816406" xlink:href="#DejaVuSans-46"/>
     <use x="378.603516" xlink:href="#DejaVuSans-32"/>
     <use x="410.390625" xlink:href="#DejaVuSans-115"/>
     <use x="462.490234" xlink:href="#DejaVuSans-101"/>
     <use x="524.013672" xlink:href="#DejaVuSans-99"/>
     <use x="578.994141" xlink:href="#DejaVuSans-116"/>
     <use x="618.203125" xlink:href="#DejaVuSans-111"/>
     <use x="679.384766" xlink:href="#DejaVuSans-114"/>
     <use x="720.498047" xlink:href="#DejaVuSans-47"/>
     <use x="754.189453" xlink:href="#DejaVuSans-68"/>
     <use x="831.191406" xlink:href="#DejaVuSans-105"/>
     <use x="858.974609" xlink:href="#DejaVuSans-102"/>
     <use x="894.179688" xlink:href="#DejaVuSans-102"/>
     <use x="929.275391" xlink:href="#DejaVuSans-46"/>
     <use x="961.0625" xlink:href="#DejaVuSans-32"/>
     <use x="992.849609" xlink:href="#DejaVuSans-80"/>
     <use x="1053.105469" xlink:href="#DejaVuSans-111"/>
     <use x="1114.287109" xlink:href="#DejaVuSans-119"/>
     <use x="1196.074219" xlink:href="#DejaVuSans-101"/>
     <use x="1257.597656" xlink:href="#DejaVuSans-114"/>
     <use x="1298.710938" xlink:href="#DejaVuSans-115"/>
    </g>
   </g>
  </g>
 </g>
 <defs>
  <clipPath id="p7ddc01dde0">
   <rect height="271.296" width="281.088" x="57.6" y="27.648"/>
  </clipPath>
 </defs>
</svg>
