<?xml version="1.0" encoding="utf-8" standalone="no"?>
<!DOCTYPE svg PUBLIC "-//W3C//DTD SVG 1.1//EN"
  "http://www.w3.org/Graphics/SVG/1.1/DTD/svg11.dtd">
<!-- Created with matplotlib (http://matplotlib.org/) -->
<svg height="345pt" version="1.1" viewBox="0 0 460 345" width="460pt" xmlns="http://www.w3.org/2000/svg" xmlns:xlink="http://www.w3.org/1999/xlink">
 <defs>
  <style type="text/css">
*{stroke-linecap:butt;stroke-linejoin:round;}
  </style>
 </defs>
 <g id="figure_1">
  <g id="patch_1">
   <path d="M 0 345.6 
L 460.8 345.6 
L 460.8 0 
L 0 0 
z
" style="fill:#ffffff;"/>
  </g>
  <g id="axes_1">
   <g id="patch_2">
    <path d="M 56.66 294.16 
L 333.168 294.16 
L 333.168 24.84 
L 56.66 24.84 
z
" style="fill:#ffffff;"/>
   </g>
   <g id="matplotlib.axis_1">
    <g id="xtick_1">
     <g id="line2d_1">
      <path clip-path="url(#p0598004cc3)" d="M 56.66 294.16 
L 56.66 24.84 
" style="fill:none;stroke:#b0b0b0;stroke-linecap:square;stroke-width:0.8;"/>
     </g>
     <g id="line2d_2">
      <defs>
       <path d="M 0 0 
L 0 3.5 
" id="mcd8ac5e783" style="stroke:#000000;stroke-width:0.8;"/>
      </defs>
      <g>
       <use style="stroke:#000000;stroke-width:0.8;" x="56.66" xlink:href="#mcd8ac5e783" y="294.16"/>
      </g>
     </g>
     <g id="text_1">
      <!-- 0 -->
      <defs>
       <path d="M 31.78125 66.40625 
Q 24.171875 66.40625 20.328125 58.90625 
Q 16.5 51.421875 16.5 36.375 
Q 16.5 21.390625 20.328125 13.890625 
Q 24.171875 6.390625 31.78125 6.390625 
Q 39.453125 6.390625 43.28125 13.890625 
Q 47.125 21.390625 47.125 36.375 
Q 47.125 51.421875 43.28125 58.90625 
Q 39.453125 66.40625 31.78125 66.40625 
z
M 31.78125 74.21875 
Q 44.046875 74.21875 50.515625 64.515625 
Q 56.984375 54.828125 56.984375 36.375 
Q 56.984375 17.96875 50.515625 8.265625 
Q 44.046875 -1.421875 31.78125 -1.421875 
Q 19.53125 -1.421875 13.0625 8.265625 
Q 6.59375 17.96875 6.59375 36.375 
Q 6.59375 54.828125 13.0625 64.515625 
Q 19.53125 74.21875 31.78125 74.21875 
z
" id="DejaVuSans-30"/>
      </defs>
      <g transform="translate(50.2975 316.356875)scale(0.2 -0.2)">
       <use xlink:href="#DejaVuSans-30"/>
      </g>
     </g>
    </g>
    <g id="xtick_2">
     <g id="line2d_3">
      <path clip-path="url(#p0598004cc3)" d="M 135.662286 294.16 
L 135.662286 24.84 
" style="fill:none;stroke:#b0b0b0;stroke-linecap:square;stroke-width:0.8;"/>
     </g>
     <g id="line2d_4">
      <g>
       <use style="stroke:#000000;stroke-width:0.8;" x="135.662286" xlink:href="#mcd8ac5e783" y="294.16"/>
      </g>
     </g>
     <g id="text_2">
      <!-- 2 -->
      <defs>
       <path d="M 19.1875 8.296875 
L 53.609375 8.296875 
L 53.609375 0 
L 7.328125 0 
L 7.328125 8.296875 
Q 12.9375 14.109375 22.625 23.890625 
Q 32.328125 33.6875 34.8125 36.53125 
Q 39.546875 41.84375 41.421875 45.53125 
Q 43.3125 49.21875 43.3125 52.78125 
Q 43.3125 58.59375 39.234375 62.25 
Q 35.15625 65.921875 28.609375 65.921875 
Q 23.96875 65.921875 18.8125 64.3125 
Q 13.671875 62.703125 7.8125 59.421875 
L 7.8125 69.390625 
Q 13.765625 71.78125 18.9375 73 
Q 24.125 74.21875 28.421875 74.21875 
Q 39.75 74.21875 46.484375 68.546875 
Q 53.21875 62.890625 53.21875 53.421875 
Q 53.21875 48.921875 51.53125 44.890625 
Q 49.859375 40.875 45.40625 35.40625 
Q 44.1875 33.984375 37.640625 27.21875 
Q 31.109375 20.453125 19.1875 8.296875 
z
" id="DejaVuSans-32"/>
      </defs>
      <g transform="translate(129.299786 316.356875)scale(0.2 -0.2)">
       <use xlink:href="#DejaVuSans-32"/>
      </g>
     </g>
    </g>
    <g id="xtick_3">
     <g id="line2d_5">
      <path clip-path="url(#p0598004cc3)" d="M 214.664571 294.16 
L 214.664571 24.84 
" style="fill:none;stroke:#b0b0b0;stroke-linecap:square;stroke-width:0.8;"/>
     </g>
     <g id="line2d_6">
      <g>
       <use style="stroke:#000000;stroke-width:0.8;" x="214.664571" xlink:href="#mcd8ac5e783" y="294.16"/>
      </g>
     </g>
     <g id="text_3">
      <!-- 4 -->
      <defs>
       <path d="M 37.796875 64.3125 
L 12.890625 25.390625 
L 37.796875 25.390625 
z
M 35.203125 72.90625 
L 47.609375 72.90625 
L 47.609375 25.390625 
L 58.015625 25.390625 
L 58.015625 17.1875 
L 47.609375 17.1875 
L 47.609375 0 
L 37.796875 0 
L 37.796875 17.1875 
L 4.890625 17.1875 
L 4.890625 26.703125 
z
" id="DejaVuSans-34"/>
      </defs>
      <g transform="translate(208.302071 316.356875)scale(0.2 -0.2)">
       <use xlink:href="#DejaVuSans-34"/>
      </g>
     </g>
    </g>
    <g id="xtick_4">
     <g id="line2d_7">
      <path clip-path="url(#p0598004cc3)" d="M 293.666857 294.16 
L 293.666857 24.84 
" style="fill:none;stroke:#b0b0b0;stroke-linecap:square;stroke-width:0.8;"/>
     </g>
     <g id="line2d_8">
      <g>
       <use style="stroke:#000000;stroke-width:0.8;" x="293.666857" xlink:href="#mcd8ac5e783" y="294.16"/>
      </g>
     </g>
     <g id="text_4">
      <!-- 6 -->
      <defs>
       <path d="M 33.015625 40.375 
Q 26.375 40.375 22.484375 35.828125 
Q 18.609375 31.296875 18.609375 23.390625 
Q 18.609375 15.53125 22.484375 10.953125 
Q 26.375 6.390625 33.015625 6.390625 
Q 39.65625 6.390625 43.53125 10.953125 
Q 47.40625 15.53125 47.40625 23.390625 
Q 47.40625 31.296875 43.53125 35.828125 
Q 39.65625 40.375 33.015625 40.375 
z
M 52.59375 71.296875 
L 52.59375 62.3125 
Q 48.875 64.0625 45.09375 64.984375 
Q 41.3125 65.921875 37.59375 65.921875 
Q 27.828125 65.921875 22.671875 59.328125 
Q 17.53125 52.734375 16.796875 39.40625 
Q 19.671875 43.65625 24.015625 45.921875 
Q 28.375 48.1875 33.59375 48.1875 
Q 44.578125 48.1875 50.953125 41.515625 
Q 57.328125 34.859375 57.328125 23.390625 
Q 57.328125 12.15625 50.6875 5.359375 
Q 44.046875 -1.421875 33.015625 -1.421875 
Q 20.359375 -1.421875 13.671875 8.265625 
Q 6.984375 17.96875 6.984375 36.375 
Q 6.984375 53.65625 15.1875 63.9375 
Q 23.390625 74.21875 37.203125 74.21875 
Q 40.921875 74.21875 44.703125 73.484375 
Q 48.484375 72.75 52.59375 71.296875 
z
" id="DejaVuSans-36"/>
      </defs>
      <g transform="translate(287.304357 316.356875)scale(0.2 -0.2)">
       <use xlink:href="#DejaVuSans-36"/>
      </g>
     </g>
    </g>
    <g id="xtick_5">
     <g id="line2d_9">
      <defs>
       <path d="M 0 0 
L 0 2 
" id="mf986f5d2b1" style="stroke:#000000;stroke-width:0.6;"/>
      </defs>
      <g>
       <use style="stroke:#000000;stroke-width:0.6;" x="56.66" xlink:href="#mf986f5d2b1" y="294.16"/>
      </g>
     </g>
    </g>
    <g id="xtick_6">
     <g id="line2d_10">
      <g>
       <use style="stroke:#000000;stroke-width:0.6;" x="96.161143" xlink:href="#mf986f5d2b1" y="294.16"/>
      </g>
     </g>
    </g>
    <g id="xtick_7">
     <g id="line2d_11">
      <g>
       <use style="stroke:#000000;stroke-width:0.6;" x="135.662286" xlink:href="#mf986f5d2b1" y="294.16"/>
      </g>
     </g>
    </g>
    <g id="xtick_8">
     <g id="line2d_12">
      <g>
       <use style="stroke:#000000;stroke-width:0.6;" x="175.163429" xlink:href="#mf986f5d2b1" y="294.16"/>
      </g>
     </g>
    </g>
    <g id="xtick_9">
     <g id="line2d_13">
      <g>
       <use style="stroke:#000000;stroke-width:0.6;" x="214.664571" xlink:href="#mf986f5d2b1" y="294.16"/>
      </g>
     </g>
    </g>
    <g id="xtick_10">
     <g id="line2d_14">
      <g>
       <use style="stroke:#000000;stroke-width:0.6;" x="254.165714" xlink:href="#mf986f5d2b1" y="294.16"/>
      </g>
     </g>
    </g>
    <g id="xtick_11">
     <g id="line2d_15">
      <g>
       <use style="stroke:#000000;stroke-width:0.6;" x="293.666857" xlink:href="#mf986f5d2b1" y="294.16"/>
      </g>
     </g>
    </g>
    <g id="xtick_12">
     <g id="line2d_16">
      <g>
       <use style="stroke:#000000;stroke-width:0.6;" x="333.168" xlink:href="#mf986f5d2b1" y="294.16"/>
      </g>
     </g>
    </g>
    <g id="text_5">
     <!-- log10(# (f+g)-evals / dimension) -->
     <defs>
      <path d="M 9.421875 75.984375 
L 18.40625 75.984375 
L 18.40625 0 
L 9.421875 0 
z
" id="DejaVuSans-6c"/>
      <path d="M 30.609375 48.390625 
Q 23.390625 48.390625 19.1875 42.75 
Q 14.984375 37.109375 14.984375 27.296875 
Q 14.984375 17.484375 19.15625 11.84375 
Q 23.34375 6.203125 30.609375 6.203125 
Q 37.796875 6.203125 41.984375 11.859375 
Q 46.1875 17.53125 46.1875 27.296875 
Q 46.1875 37.015625 41.984375 42.703125 
Q 37.796875 48.390625 30.609375 48.390625 
z
M 30.609375 56 
Q 42.328125 56 49.015625 48.375 
Q 55.71875 40.765625 55.71875 27.296875 
Q 55.71875 13.875 49.015625 6.21875 
Q 42.328125 -1.421875 30.609375 -1.421875 
Q 18.84375 -1.421875 12.171875 6.21875 
Q 5.515625 13.875 5.515625 27.296875 
Q 5.515625 40.765625 12.171875 48.375 
Q 18.84375 56 30.609375 56 
z
" id="DejaVuSans-6f"/>
      <path d="M 45.40625 27.984375 
Q 45.40625 37.75 41.375 43.109375 
Q 37.359375 48.484375 30.078125 48.484375 
Q 22.859375 48.484375 18.828125 43.109375 
Q 14.796875 37.75 14.796875 27.984375 
Q 14.796875 18.265625 18.828125 12.890625 
Q 22.859375 7.515625 30.078125 7.515625 
Q 37.359375 7.515625 41.375 12.890625 
Q 45.40625 18.265625 45.40625 27.984375 
z
M 54.390625 6.78125 
Q 54.390625 -7.171875 48.1875 -13.984375 
Q 42 -20.796875 29.203125 -20.796875 
Q 24.46875 -20.796875 20.265625 -20.09375 
Q 16.0625 -19.390625 12.109375 -17.921875 
L 12.109375 -9.1875 
Q 16.0625 -11.328125 19.921875 -12.34375 
Q 23.78125 -13.375 27.78125 -13.375 
Q 36.625 -13.375 41.015625 -8.765625 
Q 45.40625 -4.15625 45.40625 5.171875 
L 45.40625 9.625 
Q 42.625 4.78125 38.28125 2.390625 
Q 33.9375 0 27.875 0 
Q 17.828125 0 11.671875 7.65625 
Q 5.515625 15.328125 5.515625 27.984375 
Q 5.515625 40.671875 11.671875 48.328125 
Q 17.828125 56 27.875 56 
Q 33.9375 56 38.28125 53.609375 
Q 42.625 51.21875 45.40625 46.390625 
L 45.40625 54.6875 
L 54.390625 54.6875 
z
" id="DejaVuSans-67"/>
      <path d="M 12.40625 8.296875 
L 28.515625 8.296875 
L 28.515625 63.921875 
L 10.984375 60.40625 
L 10.984375 69.390625 
L 28.421875 72.90625 
L 38.28125 72.90625 
L 38.28125 8.296875 
L 54.390625 8.296875 
L 54.390625 0 
L 12.40625 0 
z
" id="DejaVuSans-31"/>
      <path d="M 31 75.875 
Q 24.46875 64.65625 21.28125 53.65625 
Q 18.109375 42.671875 18.109375 31.390625 
Q 18.109375 20.125 21.3125 9.0625 
Q 24.515625 -2 31 -13.1875 
L 23.1875 -13.1875 
Q 15.875 -1.703125 12.234375 9.375 
Q 8.59375 20.453125 8.59375 31.390625 
Q 8.59375 42.28125 12.203125 53.3125 
Q 15.828125 64.359375 23.1875 75.875 
z
" id="DejaVuSans-28"/>
      <path d="M 51.125 44 
L 36.921875 44 
L 32.8125 27.6875 
L 47.125 27.6875 
z
M 43.796875 71.78125 
L 38.71875 51.515625 
L 52.984375 51.515625 
L 58.109375 71.78125 
L 65.921875 71.78125 
L 60.890625 51.515625 
L 76.125 51.515625 
L 76.125 44 
L 58.984375 44 
L 54.984375 27.6875 
L 70.515625 27.6875 
L 70.515625 20.21875 
L 53.078125 20.21875 
L 48 0 
L 40.1875 0 
L 45.21875 20.21875 
L 30.90625 20.21875 
L 25.875 0 
L 18.015625 0 
L 23.09375 20.21875 
L 7.71875 20.21875 
L 7.71875 27.6875 
L 24.90625 27.6875 
L 29 44 
L 13.28125 44 
L 13.28125 51.515625 
L 30.90625 51.515625 
L 35.890625 71.78125 
z
" id="DejaVuSans-23"/>
      <path id="DejaVuSans-20"/>
      <path d="M 37.109375 75.984375 
L 37.109375 68.5 
L 28.515625 68.5 
Q 23.6875 68.5 21.796875 66.546875 
Q 19.921875 64.59375 19.921875 59.515625 
L 19.921875 54.6875 
L 34.71875 54.6875 
L 34.71875 47.703125 
L 19.921875 47.703125 
L 19.921875 0 
L 10.890625 0 
L 10.890625 47.703125 
L 2.296875 47.703125 
L 2.296875 54.6875 
L 10.890625 54.6875 
L 10.890625 58.5 
Q 10.890625 67.625 15.140625 71.796875 
Q 19.390625 75.984375 28.609375 75.984375 
z
" id="DejaVuSans-66"/>
      <path d="M 46 62.703125 
L 46 35.5 
L 73.1875 35.5 
L 73.1875 27.203125 
L 46 27.203125 
L 46 0 
L 37.796875 0 
L 37.796875 27.203125 
L 10.59375 27.203125 
L 10.59375 35.5 
L 37.796875 35.5 
L 37.796875 62.703125 
z
" id="DejaVuSans-2b"/>
      <path d="M 8.015625 75.875 
L 15.828125 75.875 
Q 23.140625 64.359375 26.78125 53.3125 
Q 30.421875 42.28125 30.421875 31.390625 
Q 30.421875 20.453125 26.78125 9.375 
Q 23.140625 -1.703125 15.828125 -13.1875 
L 8.015625 -13.1875 
Q 14.5 -2 17.703125 9.0625 
Q 20.90625 20.125 20.90625 31.390625 
Q 20.90625 42.671875 17.703125 53.65625 
Q 14.5 64.65625 8.015625 75.875 
z
" id="DejaVuSans-29"/>
      <path d="M 4.890625 31.390625 
L 31.203125 31.390625 
L 31.203125 23.390625 
L 4.890625 23.390625 
z
" id="DejaVuSans-2d"/>
      <path d="M 56.203125 29.59375 
L 56.203125 25.203125 
L 14.890625 25.203125 
Q 15.484375 15.921875 20.484375 11.0625 
Q 25.484375 6.203125 34.421875 6.203125 
Q 39.59375 6.203125 44.453125 7.46875 
Q 49.3125 8.734375 54.109375 11.28125 
L 54.109375 2.78125 
Q 49.265625 0.734375 44.1875 -0.34375 
Q 39.109375 -1.421875 33.890625 -1.421875 
Q 20.796875 -1.421875 13.15625 6.1875 
Q 5.515625 13.8125 5.515625 26.8125 
Q 5.515625 40.234375 12.765625 48.109375 
Q 20.015625 56 32.328125 56 
Q 43.359375 56 49.78125 48.890625 
Q 56.203125 41.796875 56.203125 29.59375 
z
M 47.21875 32.234375 
Q 47.125 39.59375 43.09375 43.984375 
Q 39.0625 48.390625 32.421875 48.390625 
Q 24.90625 48.390625 20.390625 44.140625 
Q 15.875 39.890625 15.1875 32.171875 
z
" id="DejaVuSans-65"/>
      <path d="M 2.984375 54.6875 
L 12.5 54.6875 
L 29.59375 8.796875 
L 46.6875 54.6875 
L 56.203125 54.6875 
L 35.6875 0 
L 23.484375 0 
z
" id="DejaVuSans-76"/>
      <path d="M 34.28125 27.484375 
Q 23.390625 27.484375 19.1875 25 
Q 14.984375 22.515625 14.984375 16.5 
Q 14.984375 11.71875 18.140625 8.90625 
Q 21.296875 6.109375 26.703125 6.109375 
Q 34.1875 6.109375 38.703125 11.40625 
Q 43.21875 16.703125 43.21875 25.484375 
L 43.21875 27.484375 
z
M 52.203125 31.203125 
L 52.203125 0 
L 43.21875 0 
L 43.21875 8.296875 
Q 40.140625 3.328125 35.546875 0.953125 
Q 30.953125 -1.421875 24.3125 -1.421875 
Q 15.921875 -1.421875 10.953125 3.296875 
Q 6 8.015625 6 15.921875 
Q 6 25.140625 12.171875 29.828125 
Q 18.359375 34.515625 30.609375 34.515625 
L 43.21875 34.515625 
L 43.21875 35.40625 
Q 43.21875 41.609375 39.140625 45 
Q 35.0625 48.390625 27.6875 48.390625 
Q 23 48.390625 18.546875 47.265625 
Q 14.109375 46.140625 10.015625 43.890625 
L 10.015625 52.203125 
Q 14.9375 54.109375 19.578125 55.046875 
Q 24.21875 56 28.609375 56 
Q 40.484375 56 46.34375 49.84375 
Q 52.203125 43.703125 52.203125 31.203125 
z
" id="DejaVuSans-61"/>
      <path d="M 44.28125 53.078125 
L 44.28125 44.578125 
Q 40.484375 46.53125 36.375 47.5 
Q 32.28125 48.484375 27.875 48.484375 
Q 21.1875 48.484375 17.84375 46.4375 
Q 14.5 44.390625 14.5 40.28125 
Q 14.5 37.15625 16.890625 35.375 
Q 19.28125 33.59375 26.515625 31.984375 
L 29.59375 31.296875 
Q 39.15625 29.25 43.1875 25.515625 
Q 47.21875 21.78125 47.21875 15.09375 
Q 47.21875 7.46875 41.1875 3.015625 
Q 35.15625 -1.421875 24.609375 -1.421875 
Q 20.21875 -1.421875 15.453125 -0.5625 
Q 10.6875 0.296875 5.421875 2 
L 5.421875 11.28125 
Q 10.40625 8.6875 15.234375 7.390625 
Q 20.0625 6.109375 24.8125 6.109375 
Q 31.15625 6.109375 34.5625 8.28125 
Q 37.984375 10.453125 37.984375 14.40625 
Q 37.984375 18.0625 35.515625 20.015625 
Q 33.0625 21.96875 24.703125 23.78125 
L 21.578125 24.515625 
Q 13.234375 26.265625 9.515625 29.90625 
Q 5.8125 33.546875 5.8125 39.890625 
Q 5.8125 47.609375 11.28125 51.796875 
Q 16.75 56 26.8125 56 
Q 31.78125 56 36.171875 55.265625 
Q 40.578125 54.546875 44.28125 53.078125 
z
" id="DejaVuSans-73"/>
      <path d="M 25.390625 72.90625 
L 33.6875 72.90625 
L 8.296875 -9.28125 
L 0 -9.28125 
z
" id="DejaVuSans-2f"/>
      <path d="M 45.40625 46.390625 
L 45.40625 75.984375 
L 54.390625 75.984375 
L 54.390625 0 
L 45.40625 0 
L 45.40625 8.203125 
Q 42.578125 3.328125 38.25 0.953125 
Q 33.9375 -1.421875 27.875 -1.421875 
Q 17.96875 -1.421875 11.734375 6.484375 
Q 5.515625 14.40625 5.515625 27.296875 
Q 5.515625 40.1875 11.734375 48.09375 
Q 17.96875 56 27.875 56 
Q 33.9375 56 38.25 53.625 
Q 42.578125 51.265625 45.40625 46.390625 
z
M 14.796875 27.296875 
Q 14.796875 17.390625 18.875 11.75 
Q 22.953125 6.109375 30.078125 6.109375 
Q 37.203125 6.109375 41.296875 11.75 
Q 45.40625 17.390625 45.40625 27.296875 
Q 45.40625 37.203125 41.296875 42.84375 
Q 37.203125 48.484375 30.078125 48.484375 
Q 22.953125 48.484375 18.875 42.84375 
Q 14.796875 37.203125 14.796875 27.296875 
z
" id="DejaVuSans-64"/>
      <path d="M 9.421875 54.6875 
L 18.40625 54.6875 
L 18.40625 0 
L 9.421875 0 
z
M 9.421875 75.984375 
L 18.40625 75.984375 
L 18.40625 64.59375 
L 9.421875 64.59375 
z
" id="DejaVuSans-69"/>
      <path d="M 52 44.1875 
Q 55.375 50.25 60.0625 53.125 
Q 64.75 56 71.09375 56 
Q 79.640625 56 84.28125 50.015625 
Q 88.921875 44.046875 88.921875 33.015625 
L 88.921875 0 
L 79.890625 0 
L 79.890625 32.71875 
Q 79.890625 40.578125 77.09375 44.375 
Q 74.3125 48.1875 68.609375 48.1875 
Q 61.625 48.1875 57.5625 43.546875 
Q 53.515625 38.921875 53.515625 30.90625 
L 53.515625 0 
L 44.484375 0 
L 44.484375 32.71875 
Q 44.484375 40.625 41.703125 44.40625 
Q 38.921875 48.1875 33.109375 48.1875 
Q 26.21875 48.1875 22.15625 43.53125 
Q 18.109375 38.875 18.109375 30.90625 
L 18.109375 0 
L 9.078125 0 
L 9.078125 54.6875 
L 18.109375 54.6875 
L 18.109375 46.1875 
Q 21.1875 51.21875 25.484375 53.609375 
Q 29.78125 56 35.6875 56 
Q 41.65625 56 45.828125 52.96875 
Q 50 49.953125 52 44.1875 
z
" id="DejaVuSans-6d"/>
      <path d="M 54.890625 33.015625 
L 54.890625 0 
L 45.90625 0 
L 45.90625 32.71875 
Q 45.90625 40.484375 42.875 44.328125 
Q 39.84375 48.1875 33.796875 48.1875 
Q 26.515625 48.1875 22.3125 43.546875 
Q 18.109375 38.921875 18.109375 30.90625 
L 18.109375 0 
L 9.078125 0 
L 9.078125 54.6875 
L 18.109375 54.6875 
L 18.109375 46.1875 
Q 21.34375 51.125 25.703125 53.5625 
Q 30.078125 56 35.796875 56 
Q 45.21875 56 50.046875 50.171875 
Q 54.890625 44.34375 54.890625 33.015625 
z
" id="DejaVuSans-6e"/>
     </defs>
     <g transform="translate(54.915016 337.433594)scale(0.17 -0.17)">
      <use xlink:href="#DejaVuSans-6c"/>
      <use x="27.783203" xlink:href="#DejaVuSans-6f"/>
      <use x="88.964844" xlink:href="#DejaVuSans-67"/>
      <use x="152.441406" xlink:href="#DejaVuSans-31"/>
      <use x="216.064453" xlink:href="#DejaVuSans-30"/>
      <use x="279.6875" xlink:href="#DejaVuSans-28"/>
      <use x="318.701172" xlink:href="#DejaVuSans-23"/>
      <use x="402.490234" xlink:href="#DejaVuSans-20"/>
      <use x="434.277344" xlink:href="#DejaVuSans-28"/>
      <use x="473.291016" xlink:href="#DejaVuSans-66"/>
      <use x="508.496094" xlink:href="#DejaVuSans-2b"/>
      <use x="592.285156" xlink:href="#DejaVuSans-67"/>
      <use x="655.761719" xlink:href="#DejaVuSans-29"/>
      <use x="694.775391" xlink:href="#DejaVuSans-2d"/>
      <use x="730.859375" xlink:href="#DejaVuSans-65"/>
      <use x="792.382812" xlink:href="#DejaVuSans-76"/>
      <use x="851.5625" xlink:href="#DejaVuSans-61"/>
      <use x="912.841797" xlink:href="#DejaVuSans-6c"/>
      <use x="940.625" xlink:href="#DejaVuSans-73"/>
      <use x="992.724609" xlink:href="#DejaVuSans-20"/>
      <use x="1024.511719" xlink:href="#DejaVuSans-2f"/>
      <use x="1058.203125" xlink:href="#DejaVuSans-20"/>
      <use x="1089.990234" xlink:href="#DejaVuSans-64"/>
      <use x="1153.466797" xlink:href="#DejaVuSans-69"/>
      <use x="1181.25" xlink:href="#DejaVuSans-6d"/>
      <use x="1278.662109" xlink:href="#DejaVuSans-65"/>
      <use x="1340.185547" xlink:href="#DejaVuSans-6e"/>
      <use x="1403.564453" xlink:href="#DejaVuSans-73"/>
      <use x="1455.664062" xlink:href="#DejaVuSans-69"/>
      <use x="1483.447266" xlink:href="#DejaVuSans-6f"/>
      <use x="1544.628906" xlink:href="#DejaVuSans-6e"/>
      <use x="1608.007812" xlink:href="#DejaVuSans-29"/>
     </g>
    </g>
   </g>
   <g id="matplotlib.axis_2">
    <g id="ytick_1">
     <g id="line2d_17">
      <path clip-path="url(#p0598004cc3)" d="M 56.66 294.16 
L 333.168 294.16 
" style="fill:none;stroke:#b0b0b0;stroke-linecap:square;stroke-width:0.8;"/>
     </g>
     <g id="line2d_18">
      <defs>
       <path d="M 0 0 
L -3.5 0 
" id="m539f847fdb" style="stroke:#000000;stroke-width:0.8;"/>
      </defs>
      <g>
       <use style="stroke:#000000;stroke-width:0.8;" x="56.66" xlink:href="#m539f847fdb" y="294.16"/>
      </g>
     </g>
     <g id="text_6">
      <!-- 0.0 -->
      <defs>
       <path d="M 10.6875 12.40625 
L 21 12.40625 
L 21 0 
L 10.6875 0 
z
" id="DejaVuSans-2e"/>
      </defs>
      <g transform="translate(24.215 300.23875)scale(0.16 -0.16)">
       <use xlink:href="#DejaVuSans-30"/>
       <use x="63.623047" xlink:href="#DejaVuSans-2e"/>
       <use x="95.410156" xlink:href="#DejaVuSans-30"/>
      </g>
     </g>
    </g>
    <g id="ytick_2">
     <g id="line2d_19">
      <path clip-path="url(#p0598004cc3)" d="M 56.66 240.829307 
L 333.168 240.829307 
" style="fill:none;stroke:#b0b0b0;stroke-linecap:square;stroke-width:0.8;"/>
     </g>
     <g id="line2d_20">
      <g>
       <use style="stroke:#000000;stroke-width:0.8;" x="56.66" xlink:href="#m539f847fdb" y="240.829307"/>
      </g>
     </g>
     <g id="text_7">
      <!-- 0.2 -->
      <g transform="translate(24.215 246.908057)scale(0.16 -0.16)">
       <use xlink:href="#DejaVuSans-30"/>
       <use x="63.623047" xlink:href="#DejaVuSans-2e"/>
       <use x="95.410156" xlink:href="#DejaVuSans-32"/>
      </g>
     </g>
    </g>
    <g id="ytick_3">
     <g id="line2d_21">
      <path clip-path="url(#p0598004cc3)" d="M 56.66 187.498614 
L 333.168 187.498614 
" style="fill:none;stroke:#b0b0b0;stroke-linecap:square;stroke-width:0.8;"/>
     </g>
     <g id="line2d_22">
      <g>
       <use style="stroke:#000000;stroke-width:0.8;" x="56.66" xlink:href="#m539f847fdb" y="187.498614"/>
      </g>
     </g>
     <g id="text_8">
      <!-- 0.4 -->
      <g transform="translate(24.215 193.577364)scale(0.16 -0.16)">
       <use xlink:href="#DejaVuSans-30"/>
       <use x="63.623047" xlink:href="#DejaVuSans-2e"/>
       <use x="95.410156" xlink:href="#DejaVuSans-34"/>
      </g>
     </g>
    </g>
    <g id="ytick_4">
     <g id="line2d_23">
      <path clip-path="url(#p0598004cc3)" d="M 56.66 134.167921 
L 333.168 134.167921 
" style="fill:none;stroke:#b0b0b0;stroke-linecap:square;stroke-width:0.8;"/>
     </g>
     <g id="line2d_24">
      <g>
       <use style="stroke:#000000;stroke-width:0.8;" x="56.66" xlink:href="#m539f847fdb" y="134.167921"/>
      </g>
     </g>
     <g id="text_9">
      <!-- 0.6 -->
      <g transform="translate(24.215 140.246671)scale(0.16 -0.16)">
       <use xlink:href="#DejaVuSans-30"/>
       <use x="63.623047" xlink:href="#DejaVuSans-2e"/>
       <use x="95.410156" xlink:href="#DejaVuSans-36"/>
      </g>
     </g>
    </g>
    <g id="ytick_5">
     <g id="line2d_25">
      <path clip-path="url(#p0598004cc3)" d="M 56.66 80.837228 
L 333.168 80.837228 
" style="fill:none;stroke:#b0b0b0;stroke-linecap:square;stroke-width:0.8;"/>
     </g>
     <g id="line2d_26">
      <g>
       <use style="stroke:#000000;stroke-width:0.8;" x="56.66" xlink:href="#m539f847fdb" y="80.837228"/>
      </g>
     </g>
     <g id="text_10">
      <!-- 0.8 -->
      <defs>
       <path d="M 31.78125 34.625 
Q 24.75 34.625 20.71875 30.859375 
Q 16.703125 27.09375 16.703125 20.515625 
Q 16.703125 13.921875 20.71875 10.15625 
Q 24.75 6.390625 31.78125 6.390625 
Q 38.8125 6.390625 42.859375 10.171875 
Q 46.921875 13.96875 46.921875 20.515625 
Q 46.921875 27.09375 42.890625 30.859375 
Q 38.875 34.625 31.78125 34.625 
z
M 21.921875 38.8125 
Q 15.578125 40.375 12.03125 44.71875 
Q 8.5 49.078125 8.5 55.328125 
Q 8.5 64.0625 14.71875 69.140625 
Q 20.953125 74.21875 31.78125 74.21875 
Q 42.671875 74.21875 48.875 69.140625 
Q 55.078125 64.0625 55.078125 55.328125 
Q 55.078125 49.078125 51.53125 44.71875 
Q 48 40.375 41.703125 38.8125 
Q 48.828125 37.15625 52.796875 32.3125 
Q 56.78125 27.484375 56.78125 20.515625 
Q 56.78125 9.90625 50.3125 4.234375 
Q 43.84375 -1.421875 31.78125 -1.421875 
Q 19.734375 -1.421875 13.25 4.234375 
Q 6.78125 9.90625 6.78125 20.515625 
Q 6.78125 27.484375 10.78125 32.3125 
Q 14.796875 37.15625 21.921875 38.8125 
z
M 18.3125 54.390625 
Q 18.3125 48.734375 21.84375 45.5625 
Q 25.390625 42.390625 31.78125 42.390625 
Q 38.140625 42.390625 41.71875 45.5625 
Q 45.3125 48.734375 45.3125 54.390625 
Q 45.3125 60.0625 41.71875 63.234375 
Q 38.140625 66.40625 31.78125 66.40625 
Q 25.390625 66.40625 21.84375 63.234375 
Q 18.3125 60.0625 18.3125 54.390625 
z
" id="DejaVuSans-38"/>
      </defs>
      <g transform="translate(24.215 86.915978)scale(0.16 -0.16)">
       <use xlink:href="#DejaVuSans-30"/>
       <use x="63.623047" xlink:href="#DejaVuSans-2e"/>
       <use x="95.410156" xlink:href="#DejaVuSans-38"/>
      </g>
     </g>
    </g>
    <g id="ytick_6">
     <g id="line2d_27">
      <path clip-path="url(#p0598004cc3)" d="M 56.66 27.506535 
L 333.168 27.506535 
" style="fill:none;stroke:#b0b0b0;stroke-linecap:square;stroke-width:0.8;"/>
     </g>
     <g id="line2d_28">
      <g>
       <use style="stroke:#000000;stroke-width:0.8;" x="56.66" xlink:href="#m539f847fdb" y="27.506535"/>
      </g>
     </g>
     <g id="text_11">
      <!-- 1.0 -->
      <g transform="translate(24.215 33.585285)scale(0.16 -0.16)">
       <use xlink:href="#DejaVuSans-31"/>
       <use x="63.623047" xlink:href="#DejaVuSans-2e"/>
       <use x="95.410156" xlink:href="#DejaVuSans-30"/>
      </g>
     </g>
    </g>
    <g id="text_12">
     <!-- Fraction of function,target pairs -->
     <defs>
      <path d="M 9.8125 72.90625 
L 51.703125 72.90625 
L 51.703125 64.59375 
L 19.671875 64.59375 
L 19.671875 43.109375 
L 48.578125 43.109375 
L 48.578125 34.8125 
L 19.671875 34.8125 
L 19.671875 0 
L 9.8125 0 
z
" id="DejaVuSans-46"/>
      <path d="M 41.109375 46.296875 
Q 39.59375 47.171875 37.8125 47.578125 
Q 36.03125 48 33.890625 48 
Q 26.265625 48 22.1875 43.046875 
Q 18.109375 38.09375 18.109375 28.8125 
L 18.109375 0 
L 9.078125 0 
L 9.078125 54.6875 
L 18.109375 54.6875 
L 18.109375 46.1875 
Q 20.953125 51.171875 25.484375 53.578125 
Q 30.03125 56 36.53125 56 
Q 37.453125 56 38.578125 55.875 
Q 39.703125 55.765625 41.0625 55.515625 
z
" id="DejaVuSans-72"/>
      <path d="M 48.78125 52.59375 
L 48.78125 44.1875 
Q 44.96875 46.296875 41.140625 47.34375 
Q 37.3125 48.390625 33.40625 48.390625 
Q 24.65625 48.390625 19.8125 42.84375 
Q 14.984375 37.3125 14.984375 27.296875 
Q 14.984375 17.28125 19.8125 11.734375 
Q 24.65625 6.203125 33.40625 6.203125 
Q 37.3125 6.203125 41.140625 7.25 
Q 44.96875 8.296875 48.78125 10.40625 
L 48.78125 2.09375 
Q 45.015625 0.34375 40.984375 -0.53125 
Q 36.96875 -1.421875 32.421875 -1.421875 
Q 20.0625 -1.421875 12.78125 6.34375 
Q 5.515625 14.109375 5.515625 27.296875 
Q 5.515625 40.671875 12.859375 48.328125 
Q 20.21875 56 33.015625 56 
Q 37.15625 56 41.109375 55.140625 
Q 45.0625 54.296875 48.78125 52.59375 
z
" id="DejaVuSans-63"/>
      <path d="M 18.3125 70.21875 
L 18.3125 54.6875 
L 36.8125 54.6875 
L 36.8125 47.703125 
L 18.3125 47.703125 
L 18.3125 18.015625 
Q 18.3125 11.328125 20.140625 9.421875 
Q 21.96875 7.515625 27.59375 7.515625 
L 36.8125 7.515625 
L 36.8125 0 
L 27.59375 0 
Q 17.1875 0 13.234375 3.875 
Q 9.28125 7.765625 9.28125 18.015625 
L 9.28125 47.703125 
L 2.6875 47.703125 
L 2.6875 54.6875 
L 9.28125 54.6875 
L 9.28125 70.21875 
z
" id="DejaVuSans-74"/>
      <path d="M 8.5 21.578125 
L 8.5 54.6875 
L 17.484375 54.6875 
L 17.484375 21.921875 
Q 17.484375 14.15625 20.5 10.265625 
Q 23.53125 6.390625 29.59375 6.390625 
Q 36.859375 6.390625 41.078125 11.03125 
Q 45.3125 15.671875 45.3125 23.6875 
L 45.3125 54.6875 
L 54.296875 54.6875 
L 54.296875 0 
L 45.3125 0 
L 45.3125 8.40625 
Q 42.046875 3.421875 37.71875 1 
Q 33.40625 -1.421875 27.6875 -1.421875 
Q 18.265625 -1.421875 13.375 4.4375 
Q 8.5 10.296875 8.5 21.578125 
z
M 31.109375 56 
z
" id="DejaVuSans-75"/>
      <path d="M 11.71875 12.40625 
L 22.015625 12.40625 
L 22.015625 4 
L 14.015625 -11.625 
L 7.71875 -11.625 
L 11.71875 4 
z
" id="DejaVuSans-2c"/>
      <path d="M 18.109375 8.203125 
L 18.109375 -20.796875 
L 9.078125 -20.796875 
L 9.078125 54.6875 
L 18.109375 54.6875 
L 18.109375 46.390625 
Q 20.953125 51.265625 25.265625 53.625 
Q 29.59375 56 35.59375 56 
Q 45.5625 56 51.78125 48.09375 
Q 58.015625 40.1875 58.015625 27.296875 
Q 58.015625 14.40625 51.78125 6.484375 
Q 45.5625 -1.421875 35.59375 -1.421875 
Q 29.59375 -1.421875 25.265625 0.953125 
Q 20.953125 3.328125 18.109375 8.203125 
z
M 48.6875 27.296875 
Q 48.6875 37.203125 44.609375 42.84375 
Q 40.53125 48.484375 33.40625 48.484375 
Q 26.265625 48.484375 22.1875 42.84375 
Q 18.109375 37.203125 18.109375 27.296875 
Q 18.109375 17.390625 22.1875 11.75 
Q 26.265625 6.109375 33.40625 6.109375 
Q 40.53125 6.109375 44.609375 11.75 
Q 48.6875 17.390625 48.6875 27.296875 
z
" id="DejaVuSans-70"/>
     </defs>
     <g transform="translate(16.679531 294.639375)rotate(-90)scale(0.17 -0.17)">
      <use xlink:href="#DejaVuSans-46"/>
      <use x="57.410156" xlink:href="#DejaVuSans-72"/>
      <use x="98.523438" xlink:href="#DejaVuSans-61"/>
      <use x="159.802734" xlink:href="#DejaVuSans-63"/>
      <use x="214.783203" xlink:href="#DejaVuSans-74"/>
      <use x="253.992188" xlink:href="#DejaVuSans-69"/>
      <use x="281.775391" xlink:href="#DejaVuSans-6f"/>
      <use x="342.957031" xlink:href="#DejaVuSans-6e"/>
      <use x="406.335938" xlink:href="#DejaVuSans-20"/>
      <use x="438.123047" xlink:href="#DejaVuSans-6f"/>
      <use x="499.304688" xlink:href="#DejaVuSans-66"/>
      <use x="534.509766" xlink:href="#DejaVuSans-20"/>
      <use x="566.296875" xlink:href="#DejaVuSans-66"/>
      <use x="601.501953" xlink:href="#DejaVuSans-75"/>
      <use x="664.880859" xlink:href="#DejaVuSans-6e"/>
      <use x="728.259766" xlink:href="#DejaVuSans-63"/>
      <use x="783.240234" xlink:href="#DejaVuSans-74"/>
      <use x="822.449219" xlink:href="#DejaVuSans-69"/>
      <use x="850.232422" xlink:href="#DejaVuSans-6f"/>
      <use x="911.414062" xlink:href="#DejaVuSans-6e"/>
      <use x="974.792969" xlink:href="#DejaVuSans-2c"/>
      <use x="1006.580078" xlink:href="#DejaVuSans-74"/>
      <use x="1045.789062" xlink:href="#DejaVuSans-61"/>
      <use x="1107.068359" xlink:href="#DejaVuSans-72"/>
      <use x="1148.166016" xlink:href="#DejaVuSans-67"/>
      <use x="1211.642578" xlink:href="#DejaVuSans-65"/>
      <use x="1273.166016" xlink:href="#DejaVuSans-74"/>
      <use x="1312.375" xlink:href="#DejaVuSans-20"/>
      <use x="1344.162109" xlink:href="#DejaVuSans-70"/>
      <use x="1407.638672" xlink:href="#DejaVuSans-61"/>
      <use x="1468.917969" xlink:href="#DejaVuSans-69"/>
      <use x="1496.701172" xlink:href="#DejaVuSans-72"/>
      <use x="1537.814453" xlink:href="#DejaVuSans-73"/>
     </g>
    </g>
   </g>
   <g id="line2d_29">
    <defs>
     <path d="M 0 1.5 
C 0.397805 1.5 0.77937 1.341951 1.06066 1.06066 
C 1.341951 0.77937 1.5 0.397805 1.5 0 
C 1.5 -0.397805 1.341951 -0.77937 1.06066 -1.06066 
C 0.77937 -1.341951 0.397805 -1.5 0 -1.5 
C -0.397805 -1.5 -0.77937 -1.341951 -1.06066 -1.06066 
C -1.341951 -0.77937 -1.5 -0.397805 -1.5 0 
C -1.5 0.397805 -1.341951 0.77937 -1.06066 1.06066 
C -0.77937 1.341951 -0.397805 1.5 0 1.5 
z
" id="m8bce4c60d2" style="stroke:#000080;"/>
    </defs>
    <g>
     <use style="fill:#000080;stroke:#000080;" x="217.900154" xlink:href="#m8bce4c60d2" y="105.551451"/>
     <use style="fill:#000080;stroke:#000080;" x="217.900154" xlink:href="#m8bce4c60d2" y="105.551451"/>
    </g>
   </g>
   <g id="line2d_30">
    <path d="M 49.704194 294.16 
L 49.704194 277.250268 
L 61.595223 277.250268 
L 61.595223 272.697648 
L 80.442058 272.697648 
L 80.442058 266.193905 
L 89.205337 266.193905 
L 89.205337 264.893156 
L 92.333087 264.893156 
L 92.333087 263.592408 
L 94.977561 263.592408 
L 94.977561 261.641285 
L 100.216423 261.641285 
L 100.216423 255.787916 
L 104.924422 255.787916 
L 104.924422 251.235296 
L 123.771257 251.235296 
L 123.771257 248.633799 
L 128.006173 248.633799 
L 128.006173 246.032301 
L 129.046196 246.032301 
L 129.046196 244.081178 
L 130.184869 244.081178 
L 130.184869 237.577435 
L 139.073598 237.577435 
L 139.073598 234.325564 
L 141.597119 234.325564 
L 141.597119 233.024815 
L 141.758201 233.024815 
L 141.758201 232.374441 
L 142.46492 232.374441 
L 142.46492 231.073692 
L 144.148863 231.073692 
L 144.148863 229.122569 
L 145.998127 229.122569 
L 145.998127 228.472195 
L 147.667303 228.472195 
L 147.667303 224.569949 
L 149.851209 224.569949 
L 149.851209 222.618826 
L 150.148704 222.618826 
L 150.197789 220.667703 
L 151.381371 220.667703 
L 151.381371 219.366955 
L 152.185665 219.366955 
L 152.185665 217.415832 
L 152.531372 217.415832 
L 152.531372 214.814335 
L 154.39437 214.814335 
L 154.39437 211.562463 
L 155.544658 211.562463 
L 155.544658 207.660217 
L 155.829397 207.660217 
L 155.829397 207.009843 
L 157.857823 207.009843 
L 157.857823 205.05872 
L 158.291369 205.05872 
L 158.291369 203.107597 
L 158.504101 203.107597 
L 158.504101 202.457223 
L 160.362842 202.457223 
L 160.362842 201.156474 
L 165.660086 201.156474 
L 165.660086 200.5061 
L 168.224769 200.5061 
L 168.224769 199.855726 
L 168.647956 199.855726 
L 168.698044 193.351983 
L 168.946314 193.351983 
L 168.946314 191.40086 
L 170.545483 191.40086 
L 170.545483 190.100111 
L 171.0325 190.100111 
L 171.0325 187.498614 
L 172.104162 187.498614 
L 172.104162 186.84824 
L 172.388845 186.84824 
L 172.388845 185.547491 
L 173.164276 185.547491 
L 173.164276 184.246742 
L 173.583179 184.246742 
L 173.583179 182.295619 
L 174.307546 182.295619 
L 174.307546 180.344496 
L 174.851823 180.344496 
L 174.851823 179.043748 
L 174.979458 179.043748 
L 174.979458 177.742999 
L 176.302731 177.742999 
L 176.302731 173.840753 
L 176.808881 173.840753 
L 176.808881 173.190379 
L 176.974332 173.190379 
L 176.974332 172.540005 
L 177.290424 172.540005 
L 177.391159 170.588882 
L 177.67011 170.588882 
L 177.67011 169.288133 
L 178.696177 169.288133 
L 178.696177 167.987385 
L 179.380466 167.987385 
L 179.442962 162.78439 
L 181.178992 162.78439 
L 181.178992 161.483642 
L 181.592772 161.483642 
L 181.592772 159.532519 
L 183.075633 159.532519 
L 183.075633 158.882144 
L 183.340389 158.882144 
L 183.340389 157.581396 
L 183.899238 157.581396 
L 183.899238 156.931021 
L 184.029331 156.931021 
L 184.029331 154.979899 
L 184.259696 154.979899 
L 184.259696 153.67915 
L 184.599544 153.67915 
L 184.599544 153.028776 
L 184.841954 153.028776 
L 184.841954 152.378401 
L 185.036019 152.378401 
L 185.036019 149.776904 
L 185.151412 149.776904 
L 185.151412 147.175407 
L 185.360972 147.175407 
L 185.373591 143.273161 
L 185.809498 143.273161 
L 185.809498 142.622787 
L 186.264568 142.622787 
L 186.264568 140.671664 
L 187.853294 140.671664 
L 187.853294 139.370915 
L 188.572148 139.370915 
L 188.572148 138.070167 
L 188.844767 138.070167 
L 188.844767 137.419792 
L 189.745433 137.419792 
L 189.745433 136.769418 
L 190.203638 136.769418 
L 190.203638 136.119044 
L 190.507902 136.119044 
L 190.577895 134.167921 
L 192.137009 134.167921 
L 192.204908 132.867172 
L 192.78374 132.867172 
L 192.78374 131.566424 
L 193.319882 131.566424 
L 193.319882 130.265675 
L 193.708361 130.265675 
L 193.708361 128.964926 
L 193.970188 128.964926 
L 193.970188 128.314552 
L 194.1753 128.314552 
L 194.1753 127.013803 
L 194.355585 127.013803 
L 194.355585 125.713055 
L 194.482151 125.713055 
L 194.513647 123.761932 
L 194.611471 123.761932 
L 194.611471 122.461183 
L 194.77085 122.461183 
L 194.77085 121.160435 
L 195.015268 121.160435 
L 195.015268 120.51006 
L 196.721594 120.51006 
L 196.721594 119.209312 
L 197.755777 119.209312 
L 197.836795 117.908563 
L 200.087464 117.908563 
L 200.087464 117.258189 
L 200.491941 117.258189 
L 200.494554 115.307066 
L 200.86922 115.307066 
L 200.86922 114.006317 
L 204.796159 114.006317 
L 204.796159 112.705569 
L 205.271328 112.705569 
L 205.271328 112.055194 
L 207.369186 112.055194 
L 207.369186 111.40482 
L 208.40468 111.40482 
L 208.40468 110.754446 
L 208.531874 110.754446 
L 208.531874 110.104071 
L 209.934738 110.104071 
L 209.934738 109.453697 
L 213.971411 109.453697 
L 213.976174 107.502574 
L 214.088309 107.502574 
L 214.088309 106.8522 
L 216.151353 106.8522 
L 216.151353 106.201826 
L 217.900154 106.201826 
L 217.900154 105.551451 
L 333.168 105.551451 
L 333.168 105.551451 
" style="fill:none;stroke:#000080;stroke-linecap:square;stroke-width:1.5;"/>
   </g>
   <g id="line2d_31">
    <defs>
     <path d="M 0 6 
C 1.591219 6 3.117479 5.367802 4.242641 4.242641 
C 5.367802 3.117479 6 1.591219 6 0 
C 6 -1.591219 5.367802 -3.117479 4.242641 -4.242641 
C 3.117479 -5.367802 1.591219 -6 0 -6 
C -1.591219 -6 -3.117479 -5.367802 -4.242641 -4.242641 
C -5.367802 -3.117479 -6 -1.591219 -6 0 
C -6 1.591219 -5.367802 3.117479 -4.242641 4.242641 
C -3.117479 5.367802 -1.591219 6 0 6 
z
" id="m44fe96452d" style="stroke:#000080;stroke-width:1.5;"/>
    </defs>
    <g>
     <use style="fill:none;stroke:#000080;stroke-width:1.5;" x="100.216423" xlink:href="#m44fe96452d" y="261.641285"/>
     <use style="fill:none;stroke:#000080;stroke-width:1.5;" x="160.362842" xlink:href="#m44fe96452d" y="202.457223"/>
     <use style="fill:none;stroke:#000080;stroke-width:1.5;" x="193.970188" xlink:href="#m44fe96452d" y="128.314552"/>
     <use style="fill:none;stroke:#000080;stroke-width:1.5;" x="217.900154" xlink:href="#m44fe96452d" y="105.551451"/>
     <use style="fill:none;stroke:#000080;stroke-width:1.5;" x="217.900154" xlink:href="#m44fe96452d" y="105.551451"/>
     <use style="fill:none;stroke:#000080;stroke-width:1.5;" x="333.168" xlink:href="#m44fe96452d" y="105.551451"/>
    </g>
   </g>
   <g id="line2d_32">
    <path style="fill:none;stroke:#000080;stroke-linecap:square;stroke-width:1.5;"/>
    <g/>
   </g>
   <g id="line2d_33">
    <path clip-path="url(#p0598004cc3)" d="M 179.580541 162.78439 
" style="fill:none;stroke:#000080;stroke-linecap:square;stroke-width:1.5;"/>
    <defs>
     <path d="M -12 12 
L 12 -12 
M -12 -12 
L 12 12 
" id="m096256ee7a" style="stroke:#000080;stroke-width:3;"/>
    </defs>
    <g clip-path="url(#p0598004cc3)">
     <use style="fill:#000080;stroke:#000080;stroke-width:3;" x="179.580541" xlink:href="#m096256ee7a" y="162.78439"/>
    </g>
   </g>
   <g id="line2d_34">
    <defs>
     <path d="M 0 1.5 
C 0.397805 1.5 0.77937 1.341951 1.06066 1.06066 
C 1.341951 0.77937 1.5 0.397805 1.5 0 
C 1.5 -0.397805 1.341951 -0.77937 1.06066 -1.06066 
C 0.77937 -1.341951 0.397805 -1.5 0 -1.5 
C -0.397805 -1.5 -0.77937 -1.341951 -1.06066 -1.06066 
C -1.341951 -0.77937 -1.5 -0.397805 -1.5 0 
C -1.5 0.397805 -1.341951 0.77937 -1.06066 1.06066 
C -0.77937 1.341951 -0.397805 1.5 0 1.5 
z
" id="m2bf8e5e930" style="stroke:#ff00ff;"/>
    </defs>
    <g>
     <use style="fill:#ff00ff;stroke:#ff00ff;" x="234.530966" xlink:href="#m2bf8e5e930" y="27.506535"/>
     <use style="fill:#ff00ff;stroke:#ff00ff;" x="234.530966" xlink:href="#m2bf8e5e930" y="27.506535"/>
    </g>
   </g>
   <g id="line2d_35">
    <path d="M 49.704194 294.16 
L 49.704194 277.900642 
L 68.551029 277.900642 
L 68.551029 276.599894 
L 73.486252 276.599894 
L 73.486252 270.746525 
L 77.314308 270.746525 
L 77.314308 268.795402 
L 80.442058 268.795402 
L 80.442058 267.494653 
L 85.377281 267.494653 
L 85.377281 266.193905 
L 92.333087 266.193905 
L 92.333087 265.543531 
L 96.161143 265.543531 
L 96.161143 262.291659 
L 104.224115 262.291659 
L 104.224115 260.340536 
L 104.924422 260.340536 
L 104.924422 259.039787 
L 110.696646 259.039787 
L 110.696646 256.43829 
L 114.622453 256.43829 
L 114.622453 255.137542 
L 116.468871 255.137542 
L 116.468871 253.836793 
L 117.815061 253.836793 
L 117.815061 250.584922 
L 118.450509 250.584922 
L 118.450509 245.381927 
L 120.226763 245.381927 
L 120.226763 244.731553 
L 122.09039 244.731553 
L 122.09039 244.081178 
L 122.340835 244.081178 
L 122.340835 242.78043 
L 123.307577 242.78043 
L 123.307577 240.829307 
L 123.771257 240.829307 
L 123.771257 238.878184 
L 126.317421 238.878184 
L 126.317421 236.276687 
L 126.513482 236.276687 
L 126.513482 234.325564 
L 128.3599 234.325564 
L 128.3599 232.374441 
L 128.534065 232.374441 
L 128.534065 230.423318 
L 130.650648 230.423318 
L 130.650648 225.220324 
L 133.469288 225.220324 
L 133.469288 224.569949 
L 133.981419 224.569949 
L 133.981419 222.618826 
L 134.842431 222.618826 
L 134.842431 220.017329 
L 136.002002 220.017329 
L 136.002002 218.066206 
L 140.163178 218.066206 
L 140.163178 216.765458 
L 141.597119 216.765458 
L 141.597119 216.115083 
L 141.997024 216.115083 
L 141.997024 214.814335 
L 144.630201 214.814335 
L 144.630201 212.863212 
L 145.48979 212.863212 
L 145.48979 211.562463 
L 145.872448 211.562463 
L 145.872448 210.261715 
L 146.613072 210.261715 
L 146.613072 209.61134 
L 147.724014 209.61134 
L 147.724014 208.960966 
L 150.099479 208.960966 
L 150.099479 207.660217 
L 153.689266 207.660217 
L 153.689266 205.05872 
L 155.181957 205.05872 
L 155.181957 204.408346 
L 156.453289 204.408346 
L 156.453289 201.156474 
L 157.120888 201.156474 
L 157.120888 199.855726 
L 157.283806 199.855726 
L 157.283806 199.205351 
L 157.509322 199.205351 
L 157.509322 198.554977 
L 157.63687 198.554977 
L 157.63687 194.652731 
L 159.415728 194.652731 
L 159.415728 194.002357 
L 160.281345 194.002357 
L 160.281345 193.351983 
L 163.612116 193.351983 
L 163.612116 192.051234 
L 165.818564 192.051234 
L 165.818564 190.100111 
L 167.861043 190.100111 
L 167.861043 188.148988 
L 169.044624 188.148988 
L 169.044624 186.84824 
L 169.207233 186.84824 
L 169.207233 184.897117 
L 169.448293 184.897117 
L 169.448293 183.596368 
L 169.79583 183.596368 
L 169.79583 180.994871 
L 170.090413 180.994871 
L 170.090413 180.344496 
L 170.575396 180.344496 
L 170.575396 177.092625 
L 170.856998 177.092625 
L 170.856998 175.791876 
L 171.003374 175.791876 
L 171.003374 173.840753 
L 171.786849 173.840753 
L 171.828572 169.938508 
L 172.199583 169.938508 
L 172.199583 167.33701 
L 172.748058 167.33701 
L 172.748058 165.385887 
L 172.866144 165.385887 
L 172.866144 164.085139 
L 173.532944 164.085139 
L 173.532944 162.134016 
L 174.59367 162.134016 
L 174.59367 160.833267 
L 176.152246 160.833267 
L 176.152246 160.182893 
L 176.515444 160.182893 
L 176.515444 159.532519 
L 177.270206 159.532519 
L 177.350936 157.581396 
L 177.441306 157.581396 
L 177.511265 154.329524 
L 177.571005 154.329524 
L 177.571005 153.67915 
L 177.86662 153.67915 
L 177.964037 148.476156 
L 178.724079 148.476156 
L 178.724079 143.923535 
L 178.899746 143.923535 
L 178.899746 143.273161 
L 179.137254 143.273161 
L 179.137254 141.972412 
L 180.167135 141.972412 
L 180.167135 140.671664 
L 180.286328 140.671664 
L 180.286328 140.02129 
L 180.746727 140.02129 
L 180.746727 138.070167 
L 181.138675 138.070167 
L 181.138675 136.769418 
L 181.888961 136.769418 
L 181.888961 135.468669 
L 182.511197 135.468669 
L 182.511197 134.167921 
L 183.233548 134.167921 
L 183.233548 132.867172 
L 183.622089 132.867172 
L 183.622089 132.216798 
L 184.300029 132.216798 
L 184.300029 130.265675 
L 184.678539 130.265675 
L 184.678539 127.664178 
L 185.373591 127.664178 
L 185.373591 125.713055 
L 186.059764 125.713055 
L 186.059764 122.461183 
L 186.258579 122.461183 
L 186.258579 121.810809 
L 188.26851 121.810809 
L 188.353542 119.209312 
L 190.009792 119.209312 
L 190.009792 117.908563 
L 190.239296 117.908563 
L 190.239296 116.607815 
L 190.470456 116.607815 
L 190.559258 112.055194 
L 190.591859 112.055194 
L 190.689292 109.453697 
L 190.717029 109.453697 
L 190.799971 106.201826 
L 190.834412 106.201826 
L 190.834412 105.551451 
L 191.105222 105.551451 
L 191.168326 102.29958 
L 191.262548 102.29958 
L 191.347353 100.998831 
L 191.376269 100.998831 
L 191.376269 99.047708 
L 191.882124 99.047708 
L 191.972517 97.096585 
L 192.032515 97.096585 
L 192.14126 95.145462 
L 192.26621 95.145462 
L 192.26621 93.844714 
L 193.795438 93.844714 
L 193.795438 93.19434 
L 194.014075 93.19434 
L 194.014075 92.543965 
L 194.785431 92.543965 
L 194.785431 91.893591 
L 195.185202 91.893591 
L 195.185202 91.243217 
L 197.911359 91.243217 
L 198.008264 86.690596 
L 198.029389 86.690596 
L 198.125631 84.089099 
L 198.206418 84.089099 
L 198.304643 82.788351 
L 198.366858 82.788351 
L 198.425902 80.837228 
L 198.503823 80.837228 
L 198.503823 79.536479 
L 198.747059 79.536479 
L 198.747059 78.886105 
L 198.863805 78.886105 
L 198.961205 76.934982 
L 199.093524 76.934982 
L 199.157184 75.634233 
L 199.229049 75.634233 
L 199.229049 74.983859 
L 203.079589 74.983859 
L 203.171465 70.431239 
L 203.243946 70.431239 
L 203.292837 69.13049 
L 203.363703 69.13049 
L 203.422169 67.829742 
L 203.773153 67.829742 
L 203.773153 67.179367 
L 203.978003 67.179367 
L 203.978003 66.528993 
L 207.040595 66.528993 
L 207.147281 63.277121 
L 207.228627 63.277121 
L 207.228627 62.626747 
L 207.355182 62.626747 
L 207.366561 61.325999 
L 207.836949 61.325999 
L 207.926958 60.02525 
L 210.234953 60.02525 
L 210.280052 58.724501 
L 210.349319 58.724501 
L 210.457081 56.773378 
L 210.792857 56.773378 
L 210.818636 54.171881 
L 212.972349 54.171881 
L 212.972349 53.521507 
L 213.123153 53.521507 
L 213.181235 51.570384 
L 213.380831 51.570384 
L 213.460759 50.269635 
L 215.35005 50.269635 
L 215.428987 47.668138 
L 215.545086 47.668138 
L 215.624215 46.36739 
L 215.774418 46.36739 
L 215.774418 45.717015 
L 217.375089 45.717015 
L 217.406796 44.416267 
L 217.493328 44.416267 
L 217.553835 43.115518 
L 219.109067 43.115518 
L 219.109067 42.465144 
L 219.321785 42.465144 
L 219.322657 41.164395 
L 220.831685 41.164395 
L 220.889068 39.213272 
L 222.388621 39.213272 
L 222.388621 38.562898 
L 222.546102 38.562898 
L 222.642631 36.611775 
L 223.767567 36.611775 
L 223.876542 34.010278 
L 223.91427 34.010278 
L 223.91427 33.359903 
L 224.995717 33.359903 
L 225.052301 32.059155 
L 226.278899 32.059155 
L 226.303579 30.758406 
L 227.374893 30.758406 
L 227.374893 30.108032 
L 228.5772 30.108032 
L 228.5772 29.457658 
L 229.43423 29.457658 
L 229.43423 28.807283 
L 231.335728 28.807283 
L 231.335728 28.156909 
L 234.530966 28.156909 
L 234.530966 27.506535 
L 333.168 27.506535 
L 333.168 27.506535 
" style="fill:none;stroke:#ff00ff;stroke-linecap:square;stroke-width:1.5;"/>
   </g>
   <g id="line2d_36">
    <defs>
     <path d="M -0 8.485281 
L 5.091169 0 
L 0 -8.485281 
L -5.091169 -0 
z
" id="mde51bb4395" style="stroke:#ff00ff;stroke-linejoin:miter;stroke-width:1.5;"/>
    </defs>
    <g>
     <use style="fill:none;stroke:#ff00ff;stroke-linejoin:miter;stroke-width:1.5;" x="96.161143" xlink:href="#mde51bb4395" y="262.291659"/>
     <use style="fill:none;stroke:#ff00ff;stroke-linejoin:miter;stroke-width:1.5;" x="150.099479" xlink:href="#mde51bb4395" y="207.660217"/>
     <use style="fill:none;stroke:#ff00ff;stroke-linejoin:miter;stroke-width:1.5;" x="191.972517" xlink:href="#mde51bb4395" y="97.74696"/>
     <use style="fill:none;stroke:#ff00ff;stroke-linejoin:miter;stroke-width:1.5;" x="234.530966" xlink:href="#mde51bb4395" y="28.156909"/>
     <use style="fill:none;stroke:#ff00ff;stroke-linejoin:miter;stroke-width:1.5;" x="234.530966" xlink:href="#mde51bb4395" y="27.506535"/>
     <use style="fill:none;stroke:#ff00ff;stroke-linejoin:miter;stroke-width:1.5;" x="333.168" xlink:href="#mde51bb4395" y="27.506535"/>
    </g>
   </g>
   <g id="line2d_37">
    <path style="fill:none;stroke:#ff00ff;stroke-linecap:square;stroke-width:1.5;"/>
    <g/>
   </g>
   <g id="line2d_38">
    <path clip-path="url(#p0598004cc3)" d="M 179.995411 141.972412 
" style="fill:none;stroke:#ff00ff;stroke-linecap:square;stroke-width:1.5;"/>
    <defs>
     <path d="M -12 12 
L 12 -12 
M -12 -12 
L 12 12 
" id="me1f0186df8" style="stroke:#ff00ff;stroke-width:3;"/>
    </defs>
    <g clip-path="url(#p0598004cc3)">
     <use style="fill:#ff00ff;stroke:#ff00ff;stroke-width:3;" x="179.995411" xlink:href="#me1f0186df8" y="141.972412"/>
    </g>
   </g>
   <g id="line2d_39">
    <defs>
     <path d="M 0 1.5 
C 0.397805 1.5 0.77937 1.341951 1.06066 1.06066 
C 1.341951 0.77937 1.5 0.397805 1.5 0 
C 1.5 -0.397805 1.341951 -0.77937 1.06066 -1.06066 
C 0.77937 -1.341951 0.397805 -1.5 0 -1.5 
C -0.397805 -1.5 -0.77937 -1.341951 -1.06066 -1.06066 
C -1.341951 -0.77937 -1.5 -0.397805 -1.5 0 
C -1.5 0.397805 -1.341951 0.77937 -1.06066 1.06066 
C -0.77937 1.341951 -0.397805 1.5 0 1.5 
z
" id="mf72f64baef" style="stroke:#ffa500;"/>
    </defs>
    <g>
     <use style="fill:#ffa500;stroke:#ffa500;" x="199.452571" xlink:href="#mf72f64baef" y="27.506535"/>
     <use style="fill:#ffa500;stroke:#ffa500;" x="199.452571" xlink:href="#mf72f64baef" y="27.506535"/>
    </g>
   </g>
   <g id="line2d_40">
    <path d="M 49.704194 294.16 
L 49.704194 279.201391 
L 61.595223 279.201391 
L 61.595223 276.599894 
L 77.314308 276.599894 
L 77.314308 270.746525 
L 80.442058 270.746525 
L 80.442058 266.844279 
L 83.086532 266.844279 
L 83.086532 253.836793 
L 85.377281 253.836793 
L 85.377281 244.081178 
L 87.397864 244.081178 
L 87.397864 242.130056 
L 123.307577 242.130056 
L 123.307577 234.975938 
L 133.469288 234.975938 
L 133.469288 233.67519 
L 133.981419 233.67519 
L 133.981419 233.024815 
L 134.107098 233.024815 
L 134.107098 229.122569 
L 143.217458 229.122569 
L 143.217458 227.821821 
L 146.060623 227.821821 
L 146.060623 185.547491 
L 148.0604 185.547491 
L 148.0604 144.57391 
L 148.979161 144.57391 
L 148.979161 139.370915 
L 152.141957 139.370915 
L 152.141957 134.818295 
L 156.039892 134.818295 
L 156.039892 96.446211 
L 176.953738 96.446211 
L 176.953738 68.480116 
L 178.099499 68.480116 
L 178.099499 63.927496 
L 178.424091 63.927496 
L 178.424091 54.171881 
L 180.072899 54.171881 
L 180.072899 48.318512 
L 181.395085 48.318512 
L 181.395085 44.416267 
L 188.000036 44.416267 
L 188.000036 36.611775 
L 188.61136 36.611775 
L 188.61136 34.010278 
L 188.788004 34.010278 
L 188.788004 31.40878 
L 189.708732 31.40878 
L 189.708732 30.108032 
L 194.664762 30.108032 
L 194.664762 28.807283 
L 195.081653 28.807283 
L 195.081653 28.156909 
L 199.452571 28.156909 
L 199.452571 27.506535 
L 333.168 27.506535 
" style="fill:none;stroke:#ffa500;stroke-linecap:square;stroke-width:1.5;"/>
   </g>
   <g id="line2d_41">
    <defs>
     <path d="M 0 -6 
L -1.347084 -1.854102 
L -5.706339 -1.854102 
L -2.179628 0.708204 
L -3.526712 4.854102 
L -0 2.291796 
L 3.526712 4.854102 
L 2.179628 0.708204 
L 5.706339 -1.854102 
L 1.347084 -1.854102 
z
" id="m05beaecf6a" style="stroke:#ffa500;stroke-linejoin:bevel;stroke-width:1.5;"/>
    </defs>
    <g>
     <use style="fill:none;stroke:#ffa500;stroke-linejoin:bevel;stroke-width:1.5;" x="146.060623" xlink:href="#m05beaecf6a" y="185.547491"/>
     <use style="fill:none;stroke:#ffa500;stroke-linejoin:bevel;stroke-width:1.5;" x="156.039892" xlink:href="#m05beaecf6a" y="96.446211"/>
     <use style="fill:none;stroke:#ffa500;stroke-linejoin:bevel;stroke-width:1.5;" x="199.452571" xlink:href="#m05beaecf6a" y="28.156909"/>
     <use style="fill:none;stroke:#ffa500;stroke-linejoin:bevel;stroke-width:1.5;" x="199.452571" xlink:href="#m05beaecf6a" y="27.506535"/>
     <use style="fill:none;stroke:#ffa500;stroke-linejoin:bevel;stroke-width:1.5;" x="199.452571" xlink:href="#m05beaecf6a" y="27.506535"/>
     <use style="fill:none;stroke:#ffa500;stroke-linejoin:bevel;stroke-width:1.5;" x="333.168" xlink:href="#m05beaecf6a" y="27.506535"/>
    </g>
   </g>
   <g id="line2d_42">
    <path style="fill:none;stroke:#ffa500;stroke-linecap:square;stroke-width:1.5;"/>
    <g/>
   </g>
   <g id="line2d_43">
    <path clip-path="url(#p0598004cc3)" d="M 175.220517 96.446211 
" style="fill:none;stroke:#ffa500;stroke-linecap:square;stroke-width:1.5;"/>
    <defs>
     <path d="M -12 12 
L 12 -12 
M -12 -12 
L 12 12 
" id="mcdce95f302" style="stroke:#ffa500;stroke-width:3;"/>
    </defs>
    <g clip-path="url(#p0598004cc3)">
     <use style="fill:#ffa500;stroke:#ffa500;stroke-width:3;" x="175.220517" xlink:href="#mcdce95f302" y="96.446211"/>
    </g>
   </g>
   <g id="line2d_44">
    <defs>
     <path d="M 0 1.5 
C 0.397805 1.5 0.77937 1.341951 1.06066 1.06066 
C 1.341951 0.77937 1.5 0.397805 1.5 0 
C 1.5 -0.397805 1.341951 -0.77937 1.06066 -1.06066 
C 0.77937 -1.341951 0.397805 -1.5 0 -1.5 
C -0.397805 -1.5 -0.77937 -1.341951 -1.06066 -1.06066 
C -1.341951 -0.77937 -1.5 -0.397805 -1.5 0 
C -1.5 0.397805 -1.341951 0.77937 -1.06066 1.06066 
C -0.77937 1.341951 -0.397805 1.5 0 1.5 
z
" id="mb4e9bc6bf7" style="stroke:#6495ed;"/>
    </defs>
    <g>
     <use style="fill:#6495ed;stroke:#6495ed;" x="227.460001" xlink:href="#mb4e9bc6bf7" y="248.633799"/>
     <use style="fill:#6495ed;stroke:#6495ed;" x="227.460001" xlink:href="#mb4e9bc6bf7" y="248.633799"/>
    </g>
   </g>
   <g id="line2d_45">
    <path d="M 49.704194 294.16 
L 49.704194 277.250268 
L 83.086532 277.250268 
L 83.086532 265.543531 
L 175.266052 265.543531 
L 175.266052 264.242782 
L 175.322801 264.242782 
L 175.322801 260.340536 
L 187.174125 260.340536 
L 187.174125 257.088665 
L 194.097722 257.088665 
L 194.097722 256.43829 
L 199.031048 256.43829 
L 199.031048 255.787916 
L 199.045267 255.787916 
L 199.045267 253.836793 
L 202.83519 253.836793 
L 202.83519 253.186419 
L 202.857966 253.186419 
L 202.857966 252.536044 
L 202.869343 252.536044 
L 202.869343 251.235296 
L 212.933174 251.235296 
L 212.933174 250.584922 
L 217.874089 250.584922 
L 217.874089 249.934547 
L 219.233948 249.934547 
L 219.233948 249.284173 
L 227.460001 249.284173 
L 227.460001 248.633799 
L 333.168 248.633799 
" style="fill:none;stroke:#6495ed;stroke-linecap:square;stroke-width:1.5;"/>
   </g>
   <g id="line2d_46">
    <defs>
     <path d="M -0 6 
L 6 -6 
L -6 -6 
z
" id="m8af90e41b3" style="stroke:#6495ed;stroke-linejoin:miter;stroke-width:1.5;"/>
    </defs>
    <g>
     <use style="fill:none;stroke:#6495ed;stroke-linejoin:miter;stroke-width:1.5;" x="83.086532" xlink:href="#m8af90e41b3" y="277.250268"/>
     <use style="fill:none;stroke:#6495ed;stroke-linejoin:miter;stroke-width:1.5;" x="83.086532" xlink:href="#m8af90e41b3" y="265.543531"/>
     <use style="fill:none;stroke:#6495ed;stroke-linejoin:miter;stroke-width:1.5;" x="202.869343" xlink:href="#m8af90e41b3" y="251.235296"/>
     <use style="fill:none;stroke:#6495ed;stroke-linejoin:miter;stroke-width:1.5;" x="227.460001" xlink:href="#m8af90e41b3" y="249.284173"/>
     <use style="fill:none;stroke:#6495ed;stroke-linejoin:miter;stroke-width:1.5;" x="227.460001" xlink:href="#m8af90e41b3" y="248.633799"/>
     <use style="fill:none;stroke:#6495ed;stroke-linejoin:miter;stroke-width:1.5;" x="333.168" xlink:href="#m8af90e41b3" y="248.633799"/>
    </g>
   </g>
   <g id="line2d_47">
    <path style="fill:none;stroke:#6495ed;stroke-linecap:square;stroke-width:1.5;"/>
    <g/>
   </g>
   <g id="line2d_48">
    <path clip-path="url(#p0598004cc3)" d="M 175.2433 265.543531 
" style="fill:none;stroke:#6495ed;stroke-linecap:square;stroke-width:1.5;"/>
    <defs>
     <path d="M -12 12 
L 12 -12 
M -12 -12 
L 12 12 
" id="mf55d71c37b" style="stroke:#6495ed;stroke-width:3;"/>
    </defs>
    <g clip-path="url(#p0598004cc3)">
     <use style="fill:#6495ed;stroke:#6495ed;stroke-width:3;" x="175.2433" xlink:href="#mf55d71c37b" y="265.543531"/>
    </g>
   </g>
   <g id="line2d_49">
    <defs>
     <path d="M 0 1.5 
C 0.397805 1.5 0.77937 1.341951 1.06066 1.06066 
C 1.341951 0.77937 1.5 0.397805 1.5 0 
C 1.5 -0.397805 1.341951 -0.77937 1.06066 -1.06066 
C 0.77937 -1.341951 0.397805 -1.5 0 -1.5 
C -0.397805 -1.5 -0.77937 -1.341951 -1.06066 -1.06066 
C -1.341951 -0.77937 -1.5 -0.397805 -1.5 0 
C -1.5 0.397805 -1.341951 0.77937 -1.06066 1.06066 
C -0.77937 1.341951 -0.397805 1.5 0 1.5 
z
" id="mf03451cd79" style="stroke:#ff0000;"/>
    </defs>
    <g>
     <use style="fill:#ff0000;stroke:#ff0000;" x="221.825014" xlink:href="#mf03451cd79" y="242.130056"/>
     <use style="fill:#ff0000;stroke:#ff0000;" x="221.825014" xlink:href="#mf03451cd79" y="242.130056"/>
    </g>
   </g>
   <g id="line2d_50">
    <path d="M 49.704194 294.16 
L 49.704194 290.908128 
L 61.595223 290.908128 
L 61.595223 288.306631 
L 68.551029 288.306631 
L 68.551029 287.005883 
L 73.486252 287.005883 
L 73.486252 286.355508 
L 80.442058 286.355508 
L 80.442058 283.754011 
L 85.377281 283.754011 
L 85.377281 282.453262 
L 87.397864 282.453262 
L 87.397864 281.802888 
L 90.840395 281.802888 
L 90.840395 278.551017 
L 93.70623 278.551017 
L 93.70623 277.900642 
L 98.308333 277.900642 
L 98.308333 277.250268 
L 106.244699 277.250268 
L 106.244699 276.599894 
L 107.470586 276.599894 
L 107.470586 275.299145 
L 116.115144 275.299145 
L 116.115144 273.998397 
L 119.654872 273.998397 
L 119.654872 272.697648 
L 126.513482 272.697648 
L 126.513482 271.396899 
L 134.355728 271.396899 
L 134.355728 270.096151 
L 145.745841 270.096151 
L 145.745841 268.145028 
L 146.246757 268.145028 
L 146.246757 266.193905 
L 148.335769 266.193905 
L 148.335769 264.893156 
L 148.552925 264.893156 
L 148.552925 264.242782 
L 161.891631 264.242782 
L 161.891631 263.592408 
L 163.065293 263.592408 
L 163.065293 262.291659 
L 165.134682 262.291659 
L 165.134682 260.99091 
L 174.909957 260.99091 
L 174.909957 259.039787 
L 175.35676 259.039787 
L 175.35676 258.389413 
L 176.6942 258.389413 
L 176.6942 257.088665 
L 177.719449 257.088665 
L 177.719449 256.43829 
L 178.00285 256.43829 
L 178.00285 255.787916 
L 179.708252 255.787916 
L 179.708252 255.137542 
L 179.778309 255.137542 
L 179.778309 253.836793 
L 181.671214 253.836793 
L 181.671214 253.186419 
L 184.063403 253.186419 
L 184.063403 251.88567 
L 187.151395 251.88567 
L 187.151395 251.235296 
L 188.532847 251.235296 
L 188.532847 250.584922 
L 191.271495 250.584922 
L 191.271495 249.934547 
L 194.07495 249.934547 
L 194.07495 247.983424 
L 198.994024 247.983424 
L 198.994024 247.33305 
L 199.700602 247.33305 
L 199.700602 246.682676 
L 205.933666 246.682676 
L 205.933666 246.032301 
L 206.354626 246.032301 
L 206.354626 245.381927 
L 208.981323 245.381927 
L 208.981323 244.731553 
L 210.860801 244.731553 
L 210.860801 244.081178 
L 213.196815 244.081178 
L 213.196815 243.430804 
L 214.970618 243.430804 
L 214.970618 242.78043 
L 221.825014 242.78043 
L 221.825014 242.130056 
L 333.168 242.130056 
" style="fill:none;stroke:#ff0000;stroke-linecap:square;stroke-width:1.5;"/>
   </g>
   <g id="line2d_51">
    <defs>
     <path d="M 0 -6 
L -5.196152 -3 
L -5.196152 3 
L -0 6 
L 5.196152 3 
L 5.196152 -3 
z
" id="ma0894869f0" style="stroke:#ff0000;stroke-linejoin:miter;stroke-width:1.5;"/>
    </defs>
    <g>
     <use style="fill:none;stroke:#ff0000;stroke-linejoin:miter;stroke-width:1.5;" x="126.513482" xlink:href="#ma0894869f0" y="272.697648"/>
     <use style="fill:none;stroke:#ff0000;stroke-linejoin:miter;stroke-width:1.5;" x="181.671214" xlink:href="#ma0894869f0" y="253.186419"/>
     <use style="fill:none;stroke:#ff0000;stroke-linejoin:miter;stroke-width:1.5;" x="221.825014" xlink:href="#ma0894869f0" y="242.78043"/>
     <use style="fill:none;stroke:#ff0000;stroke-linejoin:miter;stroke-width:1.5;" x="221.825014" xlink:href="#ma0894869f0" y="242.130056"/>
     <use style="fill:none;stroke:#ff0000;stroke-linejoin:miter;stroke-width:1.5;" x="221.825014" xlink:href="#ma0894869f0" y="242.130056"/>
     <use style="fill:none;stroke:#ff0000;stroke-linejoin:miter;stroke-width:1.5;" x="333.168" xlink:href="#ma0894869f0" y="242.130056"/>
    </g>
   </g>
   <g id="line2d_52">
    <path style="fill:none;stroke:#ff0000;stroke-linecap:square;stroke-width:1.5;"/>
    <g/>
   </g>
   <g id="line2d_53">
    <path clip-path="url(#p0598004cc3)" d="M 175.163429 259.039787 
" style="fill:none;stroke:#ff0000;stroke-linecap:square;stroke-width:1.5;"/>
    <defs>
     <path d="M -12 12 
L 12 -12 
M -12 -12 
L 12 12 
" id="m0ae17b37b3" style="stroke:#ff0000;stroke-width:3;"/>
    </defs>
    <g clip-path="url(#p0598004cc3)">
     <use style="fill:#ff0000;stroke:#ff0000;stroke-width:3;" x="175.163429" xlink:href="#m0ae17b37b3" y="259.039787"/>
    </g>
   </g>
   <g id="line2d_54">
    <path d="M 333.168 248.633799 
L 363.58388 288.826931 
" style="fill:none;stroke:#6495ed;stroke-linecap:square;stroke-width:1.5;"/>
    <g>
     <use style="fill:none;stroke:#6495ed;stroke-linejoin:miter;stroke-width:1.5;" x="333.168" xlink:href="#m8af90e41b3" y="248.633799"/>
     <use style="fill:none;stroke:#6495ed;stroke-linejoin:miter;stroke-width:1.5;" x="363.58388" xlink:href="#m8af90e41b3" y="288.826931"/>
    </g>
   </g>
   <g id="line2d_55">
    <path d="M 333.168 242.130056 
L 363.58388 224.830099 
" style="fill:none;stroke:#ff0000;stroke-linecap:square;stroke-width:1.5;"/>
    <g>
     <use style="fill:none;stroke:#ff0000;stroke-linejoin:miter;stroke-width:1.5;" x="333.168" xlink:href="#ma0894869f0" y="242.130056"/>
     <use style="fill:none;stroke:#ff0000;stroke-linejoin:miter;stroke-width:1.5;" x="363.58388" xlink:href="#ma0894869f0" y="224.830099"/>
    </g>
   </g>
   <g id="line2d_56">
    <path d="M 333.168 105.551451 
L 363.58388 160.833267 
" style="fill:none;stroke:#000080;stroke-linecap:square;stroke-width:1.5;"/>
    <g>
     <use style="fill:none;stroke:#000080;stroke-width:1.5;" x="333.168" xlink:href="#m44fe96452d" y="105.551451"/>
     <use style="fill:none;stroke:#000080;stroke-width:1.5;" x="363.58388" xlink:href="#m44fe96452d" y="160.833267"/>
    </g>
   </g>
   <g id="line2d_57">
    <path d="M 333.168 27.506535 
L 363.58388 96.836436 
" style="fill:none;stroke:#ff00ff;stroke-linecap:square;stroke-width:1.5;"/>
    <g>
     <use style="fill:none;stroke:#ff00ff;stroke-linejoin:miter;stroke-width:1.5;" x="333.168" xlink:href="#mde51bb4395" y="27.506535"/>
     <use style="fill:none;stroke:#ff00ff;stroke-linejoin:miter;stroke-width:1.5;" x="363.58388" xlink:href="#mde51bb4395" y="96.836436"/>
    </g>
   </g>
   <g id="line2d_58">
    <path d="M 333.168 27.506535 
L 363.58388 32.839604 
" style="fill:none;stroke:#ffa500;stroke-linecap:square;stroke-width:1.5;"/>
    <g>
     <use style="fill:none;stroke:#ffa500;stroke-linejoin:bevel;stroke-width:1.5;" x="333.168" xlink:href="#m05beaecf6a" y="27.506535"/>
     <use style="fill:none;stroke:#ffa500;stroke-linejoin:bevel;stroke-width:1.5;" x="363.58388" xlink:href="#m05beaecf6a" y="32.839604"/>
    </g>
   </g>
   <g id="line2d_59">
    <path d="M 333.168 294.16 
L 333.168 27.506535 
" style="fill:none;stroke:#000000;stroke-linecap:square;stroke-width:1.5;"/>
   </g>
   <g id="patch_3">
    <path d="M 56.66 294.16 
L 56.66 24.84 
" style="fill:none;stroke:#000000;stroke-linecap:square;stroke-linejoin:miter;stroke-width:0.8;"/>
   </g>
   <g id="patch_4">
    <path d="M 333.168 294.16 
L 333.168 24.84 
" style="fill:none;stroke:#000000;stroke-linecap:square;stroke-linejoin:miter;stroke-width:0.8;"/>
   </g>
   <g id="patch_5">
    <path d="M 56.66 294.16 
L 333.168 294.16 
" style="fill:none;stroke:#000000;stroke-linecap:square;stroke-linejoin:miter;stroke-width:0.8;"/>
   </g>
   <g id="patch_6">
    <path d="M 56.66 24.84 
L 333.168 24.84 
" style="fill:none;stroke:#000000;stroke-linecap:square;stroke-linejoin:miter;stroke-width:0.8;"/>
   </g>
   <g id="text_13">
    <!-- fmin slsqp from scipy.optimize.slsqp 1000D on bbob-constrained -->
    <defs>
     <path d="M 14.796875 27.296875 
Q 14.796875 17.390625 18.875 11.75 
Q 22.953125 6.109375 30.078125 6.109375 
Q 37.203125 6.109375 41.296875 11.75 
Q 45.40625 17.390625 45.40625 27.296875 
Q 45.40625 37.203125 41.296875 42.84375 
Q 37.203125 48.484375 30.078125 48.484375 
Q 22.953125 48.484375 18.875 42.84375 
Q 14.796875 37.203125 14.796875 27.296875 
z
M 45.40625 8.203125 
Q 42.578125 3.328125 38.25 0.953125 
Q 33.9375 -1.421875 27.875 -1.421875 
Q 17.96875 -1.421875 11.734375 6.484375 
Q 5.515625 14.40625 5.515625 27.296875 
Q 5.515625 40.1875 11.734375 48.09375 
Q 17.96875 56 27.875 56 
Q 33.9375 56 38.25 53.625 
Q 42.578125 51.265625 45.40625 46.390625 
L 45.40625 54.6875 
L 54.390625 54.6875 
L 54.390625 -20.796875 
L 45.40625 -20.796875 
z
" id="DejaVuSans-71"/>
     <path d="M 32.171875 -5.078125 
Q 28.375 -14.84375 24.75 -17.8125 
Q 21.140625 -20.796875 15.09375 -20.796875 
L 7.90625 -20.796875 
L 7.90625 -13.28125 
L 13.1875 -13.28125 
Q 16.890625 -13.28125 18.9375 -11.515625 
Q 21 -9.765625 23.484375 -3.21875 
L 25.09375 0.875 
L 2.984375 54.6875 
L 12.5 54.6875 
L 29.59375 11.921875 
L 46.6875 54.6875 
L 56.203125 54.6875 
z
" id="DejaVuSans-79"/>
     <path d="M 5.515625 54.6875 
L 48.1875 54.6875 
L 48.1875 46.484375 
L 14.40625 7.171875 
L 48.1875 7.171875 
L 48.1875 0 
L 4.296875 0 
L 4.296875 8.203125 
L 38.09375 47.515625 
L 5.515625 47.515625 
z
" id="DejaVuSans-7a"/>
     <path d="M 19.671875 64.796875 
L 19.671875 8.109375 
L 31.59375 8.109375 
Q 46.6875 8.109375 53.6875 14.9375 
Q 60.6875 21.78125 60.6875 36.53125 
Q 60.6875 51.171875 53.6875 57.984375 
Q 46.6875 64.796875 31.59375 64.796875 
z
M 9.8125 72.90625 
L 30.078125 72.90625 
Q 51.265625 72.90625 61.171875 64.09375 
Q 71.09375 55.28125 71.09375 36.53125 
Q 71.09375 17.671875 61.125 8.828125 
Q 51.171875 0 30.078125 0 
L 9.8125 0 
z
" id="DejaVuSans-44"/>
     <path d="M 48.6875 27.296875 
Q 48.6875 37.203125 44.609375 42.84375 
Q 40.53125 48.484375 33.40625 48.484375 
Q 26.265625 48.484375 22.1875 42.84375 
Q 18.109375 37.203125 18.109375 27.296875 
Q 18.109375 17.390625 22.1875 11.75 
Q 26.265625 6.109375 33.40625 6.109375 
Q 40.53125 6.109375 44.609375 11.75 
Q 48.6875 17.390625 48.6875 27.296875 
z
M 18.109375 46.390625 
Q 20.953125 51.265625 25.265625 53.625 
Q 29.59375 56 35.59375 56 
Q 45.5625 56 51.78125 48.09375 
Q 58.015625 40.1875 58.015625 27.296875 
Q 58.015625 14.40625 51.78125 6.484375 
Q 45.5625 -1.421875 35.59375 -1.421875 
Q 29.59375 -1.421875 25.265625 0.953125 
Q 20.953125 3.328125 18.109375 8.203125 
L 18.109375 0 
L 9.078125 0 
L 9.078125 75.984375 
L 18.109375 75.984375 
z
" id="DejaVuSans-62"/>
    </defs>
    <g transform="translate(369.11404 293.517868)scale(0.17 -0.17)">
     <use xlink:href="#DejaVuSans-66"/>
     <use x="35.205078" xlink:href="#DejaVuSans-6d"/>
     <use x="132.617188" xlink:href="#DejaVuSans-69"/>
     <use x="160.400391" xlink:href="#DejaVuSans-6e"/>
     <use x="223.779297" xlink:href="#DejaVuSans-20"/>
     <use x="255.566406" xlink:href="#DejaVuSans-73"/>
     <use x="307.666016" xlink:href="#DejaVuSans-6c"/>
     <use x="335.449219" xlink:href="#DejaVuSans-73"/>
     <use x="387.548828" xlink:href="#DejaVuSans-71"/>
     <use x="451.025391" xlink:href="#DejaVuSans-70"/>
     <use x="514.501953" xlink:href="#DejaVuSans-20"/>
     <use x="546.289062" xlink:href="#DejaVuSans-66"/>
     <use x="581.494141" xlink:href="#DejaVuSans-72"/>
     <use x="622.576172" xlink:href="#DejaVuSans-6f"/>
     <use x="683.757812" xlink:href="#DejaVuSans-6d"/>
     <use x="781.169922" xlink:href="#DejaVuSans-20"/>
     <use x="812.957031" xlink:href="#DejaVuSans-73"/>
     <use x="865.056641" xlink:href="#DejaVuSans-63"/>
     <use x="920.037109" xlink:href="#DejaVuSans-69"/>
     <use x="947.820312" xlink:href="#DejaVuSans-70"/>
     <use x="1011.296875" xlink:href="#DejaVuSans-79"/>
     <use x="1070.257812" xlink:href="#DejaVuSans-2e"/>
     <use x="1102.044922" xlink:href="#DejaVuSans-6f"/>
     <use x="1163.226562" xlink:href="#DejaVuSans-70"/>
     <use x="1226.703125" xlink:href="#DejaVuSans-74"/>
     <use x="1265.912109" xlink:href="#DejaVuSans-69"/>
     <use x="1293.695312" xlink:href="#DejaVuSans-6d"/>
     <use x="1391.107422" xlink:href="#DejaVuSans-69"/>
     <use x="1418.890625" xlink:href="#DejaVuSans-7a"/>
     <use x="1471.380859" xlink:href="#DejaVuSans-65"/>
     <use x="1532.904297" xlink:href="#DejaVuSans-2e"/>
     <use x="1564.691406" xlink:href="#DejaVuSans-73"/>
     <use x="1616.791016" xlink:href="#DejaVuSans-6c"/>
     <use x="1644.574219" xlink:href="#DejaVuSans-73"/>
     <use x="1696.673828" xlink:href="#DejaVuSans-71"/>
     <use x="1760.150391" xlink:href="#DejaVuSans-70"/>
     <use x="1823.626953" xlink:href="#DejaVuSans-20"/>
     <use x="1855.414062" xlink:href="#DejaVuSans-31"/>
     <use x="1919.037109" xlink:href="#DejaVuSans-30"/>
     <use x="1982.660156" xlink:href="#DejaVuSans-30"/>
     <use x="2046.283203" xlink:href="#DejaVuSans-30"/>
     <use x="2109.90625" xlink:href="#DejaVuSans-44"/>
     <use x="2186.908203" xlink:href="#DejaVuSans-20"/>
     <use x="2218.695312" xlink:href="#DejaVuSans-6f"/>
     <use x="2279.876953" xlink:href="#DejaVuSans-6e"/>
     <use x="2343.255859" xlink:href="#DejaVuSans-20"/>
     <use x="2375.042969" xlink:href="#DejaVuSans-62"/>
     <use x="2438.519531" xlink:href="#DejaVuSans-62"/>
     <use x="2501.996094" xlink:href="#DejaVuSans-6f"/>
     <use x="2563.177734" xlink:href="#DejaVuSans-62"/>
     <use x="2626.654297" xlink:href="#DejaVuSans-2d"/>
     <use x="2662.738281" xlink:href="#DejaVuSans-63"/>
     <use x="2717.71875" xlink:href="#DejaVuSans-6f"/>
     <use x="2778.900391" xlink:href="#DejaVuSans-6e"/>
     <use x="2842.279297" xlink:href="#DejaVuSans-73"/>
     <use x="2894.378906" xlink:href="#DejaVuSans-74"/>
     <use x="2933.587891" xlink:href="#DejaVuSans-72"/>
     <use x="2974.701172" xlink:href="#DejaVuSans-61"/>
     <use x="3035.980469" xlink:href="#DejaVuSans-69"/>
     <use x="3063.763672" xlink:href="#DejaVuSans-6e"/>
     <use x="3127.142578" xlink:href="#DejaVuSans-65"/>
     <use x="3188.666016" xlink:href="#DejaVuSans-64"/>
    </g>
   </g>
   <g id="text_14">
    <!-- random search of cocoex.solvers 1000D on bbob -->
    <defs>
     <path d="M 54.890625 33.015625 
L 54.890625 0 
L 45.90625 0 
L 45.90625 32.71875 
Q 45.90625 40.484375 42.875 44.328125 
Q 39.84375 48.1875 33.796875 48.1875 
Q 26.515625 48.1875 22.3125 43.546875 
Q 18.109375 38.921875 18.109375 30.90625 
L 18.109375 0 
L 9.078125 0 
L 9.078125 75.984375 
L 18.109375 75.984375 
L 18.109375 46.1875 
Q 21.34375 51.125 25.703125 53.5625 
Q 30.078125 56 35.796875 56 
Q 45.21875 56 50.046875 50.171875 
Q 54.890625 44.34375 54.890625 33.015625 
z
" id="DejaVuSans-68"/>
     <path d="M 54.890625 54.6875 
L 35.109375 28.078125 
L 55.90625 0 
L 45.3125 0 
L 29.390625 21.484375 
L 13.484375 0 
L 2.875 0 
L 24.125 28.609375 
L 4.6875 54.6875 
L 15.28125 54.6875 
L 29.78125 35.203125 
L 44.28125 54.6875 
z
" id="DejaVuSans-78"/>
    </defs>
    <g transform="translate(369.11404 229.521037)scale(0.17 -0.17)">
     <use xlink:href="#DejaVuSans-72"/>
     <use x="41.113281" xlink:href="#DejaVuSans-61"/>
     <use x="102.392578" xlink:href="#DejaVuSans-6e"/>
     <use x="165.771484" xlink:href="#DejaVuSans-64"/>
     <use x="229.248047" xlink:href="#DejaVuSans-6f"/>
     <use x="290.429688" xlink:href="#DejaVuSans-6d"/>
     <use x="387.841797" xlink:href="#DejaVuSans-20"/>
     <use x="419.628906" xlink:href="#DejaVuSans-73"/>
     <use x="471.728516" xlink:href="#DejaVuSans-65"/>
     <use x="533.251953" xlink:href="#DejaVuSans-61"/>
     <use x="594.53125" xlink:href="#DejaVuSans-72"/>
     <use x="635.613281" xlink:href="#DejaVuSans-63"/>
     <use x="690.59375" xlink:href="#DejaVuSans-68"/>
     <use x="753.972656" xlink:href="#DejaVuSans-20"/>
     <use x="785.759766" xlink:href="#DejaVuSans-6f"/>
     <use x="846.941406" xlink:href="#DejaVuSans-66"/>
     <use x="882.146484" xlink:href="#DejaVuSans-20"/>
     <use x="913.933594" xlink:href="#DejaVuSans-63"/>
     <use x="968.914062" xlink:href="#DejaVuSans-6f"/>
     <use x="1030.095703" xlink:href="#DejaVuSans-63"/>
     <use x="1085.076172" xlink:href="#DejaVuSans-6f"/>
     <use x="1146.257812" xlink:href="#DejaVuSans-65"/>
     <use x="1207.765625" xlink:href="#DejaVuSans-78"/>
     <use x="1266.945312" xlink:href="#DejaVuSans-2e"/>
     <use x="1298.732422" xlink:href="#DejaVuSans-73"/>
     <use x="1350.832031" xlink:href="#DejaVuSans-6f"/>
     <use x="1412.013672" xlink:href="#DejaVuSans-6c"/>
     <use x="1439.796875" xlink:href="#DejaVuSans-76"/>
     <use x="1498.976562" xlink:href="#DejaVuSans-65"/>
     <use x="1560.5" xlink:href="#DejaVuSans-72"/>
     <use x="1601.613281" xlink:href="#DejaVuSans-73"/>
     <use x="1653.712891" xlink:href="#DejaVuSans-20"/>
     <use x="1685.5" xlink:href="#DejaVuSans-31"/>
     <use x="1749.123047" xlink:href="#DejaVuSans-30"/>
     <use x="1812.746094" xlink:href="#DejaVuSans-30"/>
     <use x="1876.369141" xlink:href="#DejaVuSans-30"/>
     <use x="1939.992188" xlink:href="#DejaVuSans-44"/>
     <use x="2016.994141" xlink:href="#DejaVuSans-20"/>
     <use x="2048.78125" xlink:href="#DejaVuSans-6f"/>
     <use x="2109.962891" xlink:href="#DejaVuSans-6e"/>
     <use x="2173.341797" xlink:href="#DejaVuSans-20"/>
     <use x="2205.128906" xlink:href="#DejaVuSans-62"/>
     <use x="2268.605469" xlink:href="#DejaVuSans-62"/>
     <use x="2332.082031" xlink:href="#DejaVuSans-6f"/>
     <use x="2393.263672" xlink:href="#DejaVuSans-62"/>
    </g>
   </g>
   <g id="text_15">
    <!-- fmin2 from cma.evolution strategy 1000D on bbob-constrained-001 -->
    <g transform="translate(369.11404 165.524205)scale(0.17 -0.17)">
     <use xlink:href="#DejaVuSans-66"/>
     <use x="35.205078" xlink:href="#DejaVuSans-6d"/>
     <use x="132.617188" xlink:href="#DejaVuSans-69"/>
     <use x="160.400391" xlink:href="#DejaVuSans-6e"/>
     <use x="223.779297" xlink:href="#DejaVuSans-32"/>
     <use x="287.402344" xlink:href="#DejaVuSans-20"/>
     <use x="319.189453" xlink:href="#DejaVuSans-66"/>
     <use x="354.394531" xlink:href="#DejaVuSans-72"/>
     <use x="395.476562" xlink:href="#DejaVuSans-6f"/>
     <use x="456.658203" xlink:href="#DejaVuSans-6d"/>
     <use x="554.070312" xlink:href="#DejaVuSans-20"/>
     <use x="585.857422" xlink:href="#DejaVuSans-63"/>
     <use x="640.837891" xlink:href="#DejaVuSans-6d"/>
     <use x="738.25" xlink:href="#DejaVuSans-61"/>
     <use x="799.529297" xlink:href="#DejaVuSans-2e"/>
     <use x="831.316406" xlink:href="#DejaVuSans-65"/>
     <use x="892.839844" xlink:href="#DejaVuSans-76"/>
     <use x="952.019531" xlink:href="#DejaVuSans-6f"/>
     <use x="1013.201172" xlink:href="#DejaVuSans-6c"/>
     <use x="1040.984375" xlink:href="#DejaVuSans-75"/>
     <use x="1104.363281" xlink:href="#DejaVuSans-74"/>
     <use x="1143.572266" xlink:href="#DejaVuSans-69"/>
     <use x="1171.355469" xlink:href="#DejaVuSans-6f"/>
     <use x="1232.537109" xlink:href="#DejaVuSans-6e"/>
     <use x="1295.916016" xlink:href="#DejaVuSans-20"/>
     <use x="1327.703125" xlink:href="#DejaVuSans-73"/>
     <use x="1379.802734" xlink:href="#DejaVuSans-74"/>
     <use x="1419.011719" xlink:href="#DejaVuSans-72"/>
     <use x="1460.125" xlink:href="#DejaVuSans-61"/>
     <use x="1521.404297" xlink:href="#DejaVuSans-74"/>
     <use x="1560.613281" xlink:href="#DejaVuSans-65"/>
     <use x="1622.136719" xlink:href="#DejaVuSans-67"/>
     <use x="1685.613281" xlink:href="#DejaVuSans-79"/>
     <use x="1744.792969" xlink:href="#DejaVuSans-20"/>
     <use x="1776.580078" xlink:href="#DejaVuSans-31"/>
     <use x="1840.203125" xlink:href="#DejaVuSans-30"/>
     <use x="1903.826172" xlink:href="#DejaVuSans-30"/>
     <use x="1967.449219" xlink:href="#DejaVuSans-30"/>
     <use x="2031.072266" xlink:href="#DejaVuSans-44"/>
     <use x="2108.074219" xlink:href="#DejaVuSans-20"/>
     <use x="2139.861328" xlink:href="#DejaVuSans-6f"/>
     <use x="2201.042969" xlink:href="#DejaVuSans-6e"/>
     <use x="2264.421875" xlink:href="#DejaVuSans-20"/>
     <use x="2296.208984" xlink:href="#DejaVuSans-62"/>
     <use x="2359.685547" xlink:href="#DejaVuSans-62"/>
     <use x="2423.162109" xlink:href="#DejaVuSans-6f"/>
     <use x="2484.34375" xlink:href="#DejaVuSans-62"/>
     <use x="2547.820312" xlink:href="#DejaVuSans-2d"/>
     <use x="2583.904297" xlink:href="#DejaVuSans-63"/>
     <use x="2638.884766" xlink:href="#DejaVuSans-6f"/>
     <use x="2700.066406" xlink:href="#DejaVuSans-6e"/>
     <use x="2763.445312" xlink:href="#DejaVuSans-73"/>
     <use x="2815.544922" xlink:href="#DejaVuSans-74"/>
     <use x="2854.753906" xlink:href="#DejaVuSans-72"/>
     <use x="2895.867188" xlink:href="#DejaVuSans-61"/>
     <use x="2957.146484" xlink:href="#DejaVuSans-69"/>
     <use x="2984.929688" xlink:href="#DejaVuSans-6e"/>
     <use x="3048.308594" xlink:href="#DejaVuSans-65"/>
     <use x="3109.832031" xlink:href="#DejaVuSans-64"/>
     <use x="3173.308594" xlink:href="#DejaVuSans-2d"/>
     <use x="3209.392578" xlink:href="#DejaVuSans-30"/>
     <use x="3273.015625" xlink:href="#DejaVuSans-30"/>
     <use x="3336.638672" xlink:href="#DejaVuSans-31"/>
    </g>
   </g>
   <g id="text_16">
    <!-- fmin2 from cma.evolution strategy 1000D on bbob-constrained-005 -->
    <defs>
     <path d="M 10.796875 72.90625 
L 49.515625 72.90625 
L 49.515625 64.59375 
L 19.828125 64.59375 
L 19.828125 46.734375 
Q 21.96875 47.46875 24.109375 47.828125 
Q 26.265625 48.1875 28.421875 48.1875 
Q 40.625 48.1875 47.75 41.5 
Q 54.890625 34.8125 54.890625 23.390625 
Q 54.890625 11.625 47.5625 5.09375 
Q 40.234375 -1.421875 26.90625 -1.421875 
Q 22.3125 -1.421875 17.546875 -0.640625 
Q 12.796875 0.140625 7.71875 1.703125 
L 7.71875 11.625 
Q 12.109375 9.234375 16.796875 8.0625 
Q 21.484375 6.890625 26.703125 6.890625 
Q 35.15625 6.890625 40.078125 11.328125 
Q 45.015625 15.765625 45.015625 23.390625 
Q 45.015625 31 40.078125 35.4375 
Q 35.15625 39.890625 26.703125 39.890625 
Q 22.75 39.890625 18.8125 39.015625 
Q 14.890625 38.140625 10.796875 36.28125 
z
" id="DejaVuSans-35"/>
    </defs>
    <g transform="translate(369.11404 101.527373)scale(0.17 -0.17)">
     <use xlink:href="#DejaVuSans-66"/>
     <use x="35.205078" xlink:href="#DejaVuSans-6d"/>
     <use x="132.617188" xlink:href="#DejaVuSans-69"/>
     <use x="160.400391" xlink:href="#DejaVuSans-6e"/>
     <use x="223.779297" xlink:href="#DejaVuSans-32"/>
     <use x="287.402344" xlink:href="#DejaVuSans-20"/>
     <use x="319.189453" xlink:href="#DejaVuSans-66"/>
     <use x="354.394531" xlink:href="#DejaVuSans-72"/>
     <use x="395.476562" xlink:href="#DejaVuSans-6f"/>
     <use x="456.658203" xlink:href="#DejaVuSans-6d"/>
     <use x="554.070312" xlink:href="#DejaVuSans-20"/>
     <use x="585.857422" xlink:href="#DejaVuSans-63"/>
     <use x="640.837891" xlink:href="#DejaVuSans-6d"/>
     <use x="738.25" xlink:href="#DejaVuSans-61"/>
     <use x="799.529297" xlink:href="#DejaVuSans-2e"/>
     <use x="831.316406" xlink:href="#DejaVuSans-65"/>
     <use x="892.839844" xlink:href="#DejaVuSans-76"/>
     <use x="952.019531" xlink:href="#DejaVuSans-6f"/>
     <use x="1013.201172" xlink:href="#DejaVuSans-6c"/>
     <use x="1040.984375" xlink:href="#DejaVuSans-75"/>
     <use x="1104.363281" xlink:href="#DejaVuSans-74"/>
     <use x="1143.572266" xlink:href="#DejaVuSans-69"/>
     <use x="1171.355469" xlink:href="#DejaVuSans-6f"/>
     <use x="1232.537109" xlink:href="#DejaVuSans-6e"/>
     <use x="1295.916016" xlink:href="#DejaVuSans-20"/>
     <use x="1327.703125" xlink:href="#DejaVuSans-73"/>
     <use x="1379.802734" xlink:href="#DejaVuSans-74"/>
     <use x="1419.011719" xlink:href="#DejaVuSans-72"/>
     <use x="1460.125" xlink:href="#DejaVuSans-61"/>
     <use x="1521.404297" xlink:href="#DejaVuSans-74"/>
     <use x="1560.613281" xlink:href="#DejaVuSans-65"/>
     <use x="1622.136719" xlink:href="#DejaVuSans-67"/>
     <use x="1685.613281" xlink:href="#DejaVuSans-79"/>
     <use x="1744.792969" xlink:href="#DejaVuSans-20"/>
     <use x="1776.580078" xlink:href="#DejaVuSans-31"/>
     <use x="1840.203125" xlink:href="#DejaVuSans-30"/>
     <use x="1903.826172" xlink:href="#DejaVuSans-30"/>
     <use x="1967.449219" xlink:href="#DejaVuSans-30"/>
     <use x="2031.072266" xlink:href="#DejaVuSans-44"/>
     <use x="2108.074219" xlink:href="#DejaVuSans-20"/>
     <use x="2139.861328" xlink:href="#DejaVuSans-6f"/>
     <use x="2201.042969" xlink:href="#DejaVuSans-6e"/>
     <use x="2264.421875" xlink:href="#DejaVuSans-20"/>
     <use x="2296.208984" xlink:href="#DejaVuSans-62"/>
     <use x="2359.685547" xlink:href="#DejaVuSans-62"/>
     <use x="2423.162109" xlink:href="#DejaVuSans-6f"/>
     <use x="2484.34375" xlink:href="#DejaVuSans-62"/>
     <use x="2547.820312" xlink:href="#DejaVuSans-2d"/>
     <use x="2583.904297" xlink:href="#DejaVuSans-63"/>
     <use x="2638.884766" xlink:href="#DejaVuSans-6f"/>
     <use x="2700.066406" xlink:href="#DejaVuSans-6e"/>
     <use x="2763.445312" xlink:href="#DejaVuSans-73"/>
     <use x="2815.544922" xlink:href="#DejaVuSans-74"/>
     <use x="2854.753906" xlink:href="#DejaVuSans-72"/>
     <use x="2895.867188" xlink:href="#DejaVuSans-61"/>
     <use x="2957.146484" xlink:href="#DejaVuSans-69"/>
     <use x="2984.929688" xlink:href="#DejaVuSans-6e"/>
     <use x="3048.308594" xlink:href="#DejaVuSans-65"/>
     <use x="3109.832031" xlink:href="#DejaVuSans-64"/>
     <use x="3173.308594" xlink:href="#DejaVuSans-2d"/>
     <use x="3209.392578" xlink:href="#DejaVuSans-30"/>
     <use x="3273.015625" xlink:href="#DejaVuSans-30"/>
     <use x="3336.638672" xlink:href="#DejaVuSans-35"/>
    </g>
   </g>
   <g id="text_17">
    <!-- fmin cobyla rho-9 catol-9 from scipy.optimize.cobyla 1000D on bbo -->
    <defs>
     <path d="M 10.984375 1.515625 
L 10.984375 10.5 
Q 14.703125 8.734375 18.5 7.8125 
Q 22.3125 6.890625 25.984375 6.890625 
Q 35.75 6.890625 40.890625 13.453125 
Q 46.046875 20.015625 46.78125 33.40625 
Q 43.953125 29.203125 39.59375 26.953125 
Q 35.25 24.703125 29.984375 24.703125 
Q 19.046875 24.703125 12.671875 31.3125 
Q 6.296875 37.9375 6.296875 49.421875 
Q 6.296875 60.640625 12.9375 67.421875 
Q 19.578125 74.21875 30.609375 74.21875 
Q 43.265625 74.21875 49.921875 64.515625 
Q 56.59375 54.828125 56.59375 36.375 
Q 56.59375 19.140625 48.40625 8.859375 
Q 40.234375 -1.421875 26.421875 -1.421875 
Q 22.703125 -1.421875 18.890625 -0.6875 
Q 15.09375 0.046875 10.984375 1.515625 
z
M 30.609375 32.421875 
Q 37.25 32.421875 41.125 36.953125 
Q 45.015625 41.5 45.015625 49.421875 
Q 45.015625 57.28125 41.125 61.84375 
Q 37.25 66.40625 30.609375 66.40625 
Q 23.96875 66.40625 20.09375 61.84375 
Q 16.21875 57.28125 16.21875 49.421875 
Q 16.21875 41.5 20.09375 36.953125 
Q 23.96875 32.421875 30.609375 32.421875 
z
" id="DejaVuSans-39"/>
    </defs>
    <g transform="translate(369.11404 37.530541)scale(0.17 -0.17)">
     <use xlink:href="#DejaVuSans-66"/>
     <use x="35.205078" xlink:href="#DejaVuSans-6d"/>
     <use x="132.617188" xlink:href="#DejaVuSans-69"/>
     <use x="160.400391" xlink:href="#DejaVuSans-6e"/>
     <use x="223.779297" xlink:href="#DejaVuSans-20"/>
     <use x="255.566406" xlink:href="#DejaVuSans-63"/>
     <use x="310.546875" xlink:href="#DejaVuSans-6f"/>
     <use x="371.728516" xlink:href="#DejaVuSans-62"/>
     <use x="435.205078" xlink:href="#DejaVuSans-79"/>
     <use x="494.384766" xlink:href="#DejaVuSans-6c"/>
     <use x="522.167969" xlink:href="#DejaVuSans-61"/>
     <use x="583.447266" xlink:href="#DejaVuSans-20"/>
     <use x="615.234375" xlink:href="#DejaVuSans-72"/>
     <use x="656.332031" xlink:href="#DejaVuSans-68"/>
     <use x="719.710938" xlink:href="#DejaVuSans-6f"/>
     <use x="780.908203" xlink:href="#DejaVuSans-2d"/>
     <use x="816.992188" xlink:href="#DejaVuSans-39"/>
     <use x="880.615234" xlink:href="#DejaVuSans-20"/>
     <use x="912.402344" xlink:href="#DejaVuSans-63"/>
     <use x="967.382812" xlink:href="#DejaVuSans-61"/>
     <use x="1028.662109" xlink:href="#DejaVuSans-74"/>
     <use x="1067.871094" xlink:href="#DejaVuSans-6f"/>
     <use x="1129.052734" xlink:href="#DejaVuSans-6c"/>
     <use x="1156.835938" xlink:href="#DejaVuSans-2d"/>
     <use x="1192.919922" xlink:href="#DejaVuSans-39"/>
     <use x="1256.542969" xlink:href="#DejaVuSans-20"/>
     <use x="1288.330078" xlink:href="#DejaVuSans-66"/>
     <use x="1323.535156" xlink:href="#DejaVuSans-72"/>
     <use x="1364.617188" xlink:href="#DejaVuSans-6f"/>
     <use x="1425.798828" xlink:href="#DejaVuSans-6d"/>
     <use x="1523.210938" xlink:href="#DejaVuSans-20"/>
     <use x="1554.998047" xlink:href="#DejaVuSans-73"/>
     <use x="1607.097656" xlink:href="#DejaVuSans-63"/>
     <use x="1662.078125" xlink:href="#DejaVuSans-69"/>
     <use x="1689.861328" xlink:href="#DejaVuSans-70"/>
     <use x="1753.337891" xlink:href="#DejaVuSans-79"/>
     <use x="1812.298828" xlink:href="#DejaVuSans-2e"/>
     <use x="1844.085938" xlink:href="#DejaVuSans-6f"/>
     <use x="1905.267578" xlink:href="#DejaVuSans-70"/>
     <use x="1968.744141" xlink:href="#DejaVuSans-74"/>
     <use x="2007.953125" xlink:href="#DejaVuSans-69"/>
     <use x="2035.736328" xlink:href="#DejaVuSans-6d"/>
     <use x="2133.148438" xlink:href="#DejaVuSans-69"/>
     <use x="2160.931641" xlink:href="#DejaVuSans-7a"/>
     <use x="2213.421875" xlink:href="#DejaVuSans-65"/>
     <use x="2274.945312" xlink:href="#DejaVuSans-2e"/>
     <use x="2306.732422" xlink:href="#DejaVuSans-63"/>
     <use x="2361.712891" xlink:href="#DejaVuSans-6f"/>
     <use x="2422.894531" xlink:href="#DejaVuSans-62"/>
     <use x="2486.371094" xlink:href="#DejaVuSans-79"/>
     <use x="2545.550781" xlink:href="#DejaVuSans-6c"/>
     <use x="2573.333984" xlink:href="#DejaVuSans-61"/>
     <use x="2634.613281" xlink:href="#DejaVuSans-20"/>
     <use x="2666.400391" xlink:href="#DejaVuSans-31"/>
     <use x="2730.023438" xlink:href="#DejaVuSans-30"/>
     <use x="2793.646484" xlink:href="#DejaVuSans-30"/>
     <use x="2857.269531" xlink:href="#DejaVuSans-30"/>
     <use x="2920.892578" xlink:href="#DejaVuSans-44"/>
     <use x="2997.894531" xlink:href="#DejaVuSans-20"/>
     <use x="3029.681641" xlink:href="#DejaVuSans-6f"/>
     <use x="3090.863281" xlink:href="#DejaVuSans-6e"/>
     <use x="3154.242188" xlink:href="#DejaVuSans-20"/>
     <use x="3186.029297" xlink:href="#DejaVuSans-62"/>
     <use x="3249.505859" xlink:href="#DejaVuSans-62"/>
     <use x="3312.982422" xlink:href="#DejaVuSans-6f"/>
    </g>
   </g>
   <g id="text_18">
    <!-- bbob-constrained f3, 3-D -->
    <defs>
     <path d="M 40.578125 39.3125 
Q 47.65625 37.796875 51.625 33 
Q 55.609375 28.21875 55.609375 21.1875 
Q 55.609375 10.40625 48.1875 4.484375 
Q 40.765625 -1.421875 27.09375 -1.421875 
Q 22.515625 -1.421875 17.65625 -0.515625 
Q 12.796875 0.390625 7.625 2.203125 
L 7.625 11.71875 
Q 11.71875 9.328125 16.59375 8.109375 
Q 21.484375 6.890625 26.8125 6.890625 
Q 36.078125 6.890625 40.9375 10.546875 
Q 45.796875 14.203125 45.796875 21.1875 
Q 45.796875 27.640625 41.28125 31.265625 
Q 36.765625 34.90625 28.71875 34.90625 
L 20.21875 34.90625 
L 20.21875 43.015625 
L 29.109375 43.015625 
Q 36.375 43.015625 40.234375 45.921875 
Q 44.09375 48.828125 44.09375 54.296875 
Q 44.09375 59.90625 40.109375 62.90625 
Q 36.140625 65.921875 28.71875 65.921875 
Q 24.65625 65.921875 20.015625 65.03125 
Q 15.375 64.15625 9.8125 62.3125 
L 9.8125 71.09375 
Q 15.4375 72.65625 20.34375 73.4375 
Q 25.25 74.21875 29.59375 74.21875 
Q 40.828125 74.21875 47.359375 69.109375 
Q 53.90625 64.015625 53.90625 55.328125 
Q 53.90625 49.265625 50.4375 45.09375 
Q 46.96875 40.921875 40.578125 39.3125 
z
" id="DejaVuSans-33"/>
    </defs>
    <g transform="translate(59.42508 35.283606)scale(0.102 -0.102)">
     <use xlink:href="#DejaVuSans-62"/>
     <use x="63.476562" xlink:href="#DejaVuSans-62"/>
     <use x="126.953125" xlink:href="#DejaVuSans-6f"/>
     <use x="188.134766" xlink:href="#DejaVuSans-62"/>
     <use x="251.611328" xlink:href="#DejaVuSans-2d"/>
     <use x="287.695312" xlink:href="#DejaVuSans-63"/>
     <use x="342.675781" xlink:href="#DejaVuSans-6f"/>
     <use x="403.857422" xlink:href="#DejaVuSans-6e"/>
     <use x="467.236328" xlink:href="#DejaVuSans-73"/>
     <use x="519.335938" xlink:href="#DejaVuSans-74"/>
     <use x="558.544922" xlink:href="#DejaVuSans-72"/>
     <use x="599.658203" xlink:href="#DejaVuSans-61"/>
     <use x="660.9375" xlink:href="#DejaVuSans-69"/>
     <use x="688.720703" xlink:href="#DejaVuSans-6e"/>
     <use x="752.099609" xlink:href="#DejaVuSans-65"/>
     <use x="813.623047" xlink:href="#DejaVuSans-64"/>
     <use x="877.099609" xlink:href="#DejaVuSans-20"/>
     <use x="908.886719" xlink:href="#DejaVuSans-66"/>
     <use x="944.091797" xlink:href="#DejaVuSans-33"/>
     <use x="1007.714844" xlink:href="#DejaVuSans-2c"/>
     <use x="1039.501953" xlink:href="#DejaVuSans-20"/>
     <use x="1071.289062" xlink:href="#DejaVuSans-33"/>
     <use x="1134.912109" xlink:href="#DejaVuSans-2d"/>
     <use x="1170.996094" xlink:href="#DejaVuSans-44"/>
    </g>
    <!-- 41 targets: 100..1e-06 -->
    <defs>
     <path d="M 11.71875 12.40625 
L 22.015625 12.40625 
L 22.015625 0 
L 11.71875 0 
z
M 11.71875 51.703125 
L 22.015625 51.703125 
L 22.015625 39.3125 
L 11.71875 39.3125 
z
" id="DejaVuSans-3a"/>
    </defs>
    <g transform="translate(59.42508 46.705375)scale(0.102 -0.102)">
     <use xlink:href="#DejaVuSans-34"/>
     <use x="63.623047" xlink:href="#DejaVuSans-31"/>
     <use x="127.246094" xlink:href="#DejaVuSans-20"/>
     <use x="159.033203" xlink:href="#DejaVuSans-74"/>
     <use x="198.242188" xlink:href="#DejaVuSans-61"/>
     <use x="259.521484" xlink:href="#DejaVuSans-72"/>
     <use x="300.619141" xlink:href="#DejaVuSans-67"/>
     <use x="364.095703" xlink:href="#DejaVuSans-65"/>
     <use x="425.619141" xlink:href="#DejaVuSans-74"/>
     <use x="464.828125" xlink:href="#DejaVuSans-73"/>
     <use x="516.927734" xlink:href="#DejaVuSans-3a"/>
     <use x="550.619141" xlink:href="#DejaVuSans-20"/>
     <use x="582.40625" xlink:href="#DejaVuSans-31"/>
     <use x="646.029297" xlink:href="#DejaVuSans-30"/>
     <use x="709.652344" xlink:href="#DejaVuSans-30"/>
     <use x="773.275391" xlink:href="#DejaVuSans-2e"/>
     <use x="805.0625" xlink:href="#DejaVuSans-2e"/>
     <use x="836.849609" xlink:href="#DejaVuSans-31"/>
     <use x="900.472656" xlink:href="#DejaVuSans-65"/>
     <use x="961.996094" xlink:href="#DejaVuSans-2d"/>
     <use x="998.080078" xlink:href="#DejaVuSans-30"/>
     <use x="1061.703125" xlink:href="#DejaVuSans-36"/>
    </g>
    <!-- 5, 15 instances -->
    <g transform="translate(59.42508 58.127144)scale(0.102 -0.102)">
     <use xlink:href="#DejaVuSans-35"/>
     <use x="63.623047" xlink:href="#DejaVuSans-2c"/>
     <use x="95.410156" xlink:href="#DejaVuSans-20"/>
     <use x="127.197266" xlink:href="#DejaVuSans-31"/>
     <use x="190.820312" xlink:href="#DejaVuSans-35"/>
     <use x="254.443359" xlink:href="#DejaVuSans-20"/>
     <use x="286.230469" xlink:href="#DejaVuSans-69"/>
     <use x="314.013672" xlink:href="#DejaVuSans-6e"/>
     <use x="377.392578" xlink:href="#DejaVuSans-73"/>
     <use x="429.492188" xlink:href="#DejaVuSans-74"/>
     <use x="468.701172" xlink:href="#DejaVuSans-61"/>
     <use x="529.980469" xlink:href="#DejaVuSans-6e"/>
     <use x="593.359375" xlink:href="#DejaVuSans-63"/>
     <use x="648.339844" xlink:href="#DejaVuSans-65"/>
     <use x="709.863281" xlink:href="#DejaVuSans-73"/>
    </g>
   </g>
   <g id="text_19">
    <!-- v2.2.1.112 -->
    <g style="fill:#808080;" transform="translate(168.099937 289.387113)scale(0.1 -0.1)">
     <use xlink:href="#DejaVuSans-76"/>
     <use x="59.179688" xlink:href="#DejaVuSans-32"/>
     <use x="122.802734" xlink:href="#DejaVuSans-2e"/>
     <use x="154.589844" xlink:href="#DejaVuSans-32"/>
     <use x="218.212891" xlink:href="#DejaVuSans-2e"/>
     <use x="250" xlink:href="#DejaVuSans-31"/>
     <use x="313.623047" xlink:href="#DejaVuSans-2e"/>
     <use x="345.410156" xlink:href="#DejaVuSans-31"/>
     <use x="409.033203" xlink:href="#DejaVuSans-31"/>
     <use x="472.65625" xlink:href="#DejaVuSans-32"/>
    </g>
   </g>
   <g id="text_20">
    <!-- 3 Sphere, 6 constraints -->
    <defs>
     <path d="M 53.515625 70.515625 
L 53.515625 60.890625 
Q 47.90625 63.578125 42.921875 64.890625 
Q 37.9375 66.21875 33.296875 66.21875 
Q 25.25 66.21875 20.875 63.09375 
Q 16.5 59.96875 16.5 54.203125 
Q 16.5 49.359375 19.40625 46.890625 
Q 22.3125 44.4375 30.421875 42.921875 
L 36.375 41.703125 
Q 47.40625 39.59375 52.65625 34.296875 
Q 57.90625 29 57.90625 20.125 
Q 57.90625 9.515625 50.796875 4.046875 
Q 43.703125 -1.421875 29.984375 -1.421875 
Q 24.8125 -1.421875 18.96875 -0.25 
Q 13.140625 0.921875 6.890625 3.21875 
L 6.890625 13.375 
Q 12.890625 10.015625 18.65625 8.296875 
Q 24.421875 6.59375 29.984375 6.59375 
Q 38.421875 6.59375 43.015625 9.90625 
Q 47.609375 13.234375 47.609375 19.390625 
Q 47.609375 24.75 44.3125 27.78125 
Q 41.015625 30.8125 33.5 32.328125 
L 27.484375 33.5 
Q 16.453125 35.6875 11.515625 40.375 
Q 6.59375 45.0625 6.59375 53.421875 
Q 6.59375 63.09375 13.40625 68.65625 
Q 20.21875 74.21875 32.171875 74.21875 
Q 37.3125 74.21875 42.625 73.28125 
Q 47.953125 72.359375 53.515625 70.515625 
z
" id="DejaVuSans-53"/>
    </defs>
    <g transform="translate(78.459312 18.84)scale(0.2 -0.2)">
     <use xlink:href="#DejaVuSans-33"/>
     <use x="63.623047" xlink:href="#DejaVuSans-20"/>
     <use x="95.410156" xlink:href="#DejaVuSans-53"/>
     <use x="158.886719" xlink:href="#DejaVuSans-70"/>
     <use x="222.363281" xlink:href="#DejaVuSans-68"/>
     <use x="285.742188" xlink:href="#DejaVuSans-65"/>
     <use x="347.265625" xlink:href="#DejaVuSans-72"/>
     <use x="388.347656" xlink:href="#DejaVuSans-65"/>
     <use x="449.871094" xlink:href="#DejaVuSans-2c"/>
     <use x="481.658203" xlink:href="#DejaVuSans-20"/>
     <use x="513.445312" xlink:href="#DejaVuSans-36"/>
     <use x="577.068359" xlink:href="#DejaVuSans-20"/>
     <use x="608.855469" xlink:href="#DejaVuSans-63"/>
     <use x="663.835938" xlink:href="#DejaVuSans-6f"/>
     <use x="725.017578" xlink:href="#DejaVuSans-6e"/>
     <use x="788.396484" xlink:href="#DejaVuSans-73"/>
     <use x="840.496094" xlink:href="#DejaVuSans-74"/>
     <use x="879.705078" xlink:href="#DejaVuSans-72"/>
     <use x="920.818359" xlink:href="#DejaVuSans-61"/>
     <use x="982.097656" xlink:href="#DejaVuSans-69"/>
     <use x="1009.880859" xlink:href="#DejaVuSans-6e"/>
     <use x="1073.259766" xlink:href="#DejaVuSans-74"/>
     <use x="1112.46875" xlink:href="#DejaVuSans-73"/>
    </g>
   </g>
  </g>
 </g>
 <defs>
  <clipPath id="p0598004cc3">
   <rect height="269.32" width="276.508" x="56.66" y="24.84"/>
  </clipPath>
 </defs>
</svg>
