<?xml version="1.0" encoding="utf-8" standalone="no"?>
<!DOCTYPE svg PUBLIC "-//W3C//DTD SVG 1.1//EN"
  "http://www.w3.org/Graphics/SVG/1.1/DTD/svg11.dtd">
<!-- Created with matplotlib (http://matplotlib.org/) -->
<svg height="345pt" version="1.1" viewBox="0 0 460 345" width="460pt" xmlns="http://www.w3.org/2000/svg" xmlns:xlink="http://www.w3.org/1999/xlink">
 <defs>
  <style type="text/css">
*{stroke-linecap:butt;stroke-linejoin:round;}
  </style>
 </defs>
 <g id="figure_1">
  <g id="patch_1">
   <path d="M 0 345.6 
L 460.8 345.6 
L 460.8 0 
L 0 0 
z
" style="fill:#ffffff;"/>
  </g>
  <g id="axes_1">
   <g id="patch_2">
    <path d="M 56.66 294.16 
L 307.518 294.16 
L 307.518 24.84 
L 56.66 24.84 
z
" style="fill:#ffffff;"/>
   </g>
   <g id="matplotlib.axis_1">
    <g id="xtick_1">
     <g id="line2d_1">
      <path clip-path="url(#p45dae3c8ab)" d="M 56.66 294.16 
L 56.66 24.84 
" style="fill:none;stroke:#b0b0b0;stroke-linecap:square;stroke-width:0.8;"/>
     </g>
     <g id="line2d_2">
      <defs>
       <path d="M 0 0 
L 0 3.5 
" id="m6d96254577" style="stroke:#000000;stroke-width:0.8;"/>
      </defs>
      <g>
       <use style="stroke:#000000;stroke-width:0.8;" x="56.66" xlink:href="#m6d96254577" y="294.16"/>
      </g>
     </g>
     <g id="text_1">
      <!-- 0 -->
      <defs>
       <path d="M 31.78125 66.40625 
Q 24.171875 66.40625 20.328125 58.90625 
Q 16.5 51.421875 16.5 36.375 
Q 16.5 21.390625 20.328125 13.890625 
Q 24.171875 6.390625 31.78125 6.390625 
Q 39.453125 6.390625 43.28125 13.890625 
Q 47.125 21.390625 47.125 36.375 
Q 47.125 51.421875 43.28125 58.90625 
Q 39.453125 66.40625 31.78125 66.40625 
z
M 31.78125 74.21875 
Q 44.046875 74.21875 50.515625 64.515625 
Q 56.984375 54.828125 56.984375 36.375 
Q 56.984375 17.96875 50.515625 8.265625 
Q 44.046875 -1.421875 31.78125 -1.421875 
Q 19.53125 -1.421875 13.0625 8.265625 
Q 6.59375 17.96875 6.59375 36.375 
Q 6.59375 54.828125 13.0625 64.515625 
Q 19.53125 74.21875 31.78125 74.21875 
z
" id="DejaVuSans-30"/>
      </defs>
      <g transform="translate(50.2975 316.356875)scale(0.2 -0.2)">
       <use xlink:href="#DejaVuSans-30"/>
      </g>
     </g>
    </g>
    <g id="xtick_2">
     <g id="line2d_3">
      <path clip-path="url(#p45dae3c8ab)" d="M 128.333714 294.16 
L 128.333714 24.84 
" style="fill:none;stroke:#b0b0b0;stroke-linecap:square;stroke-width:0.8;"/>
     </g>
     <g id="line2d_4">
      <g>
       <use style="stroke:#000000;stroke-width:0.8;" x="128.333714" xlink:href="#m6d96254577" y="294.16"/>
      </g>
     </g>
     <g id="text_2">
      <!-- 2 -->
      <defs>
       <path d="M 19.1875 8.296875 
L 53.609375 8.296875 
L 53.609375 0 
L 7.328125 0 
L 7.328125 8.296875 
Q 12.9375 14.109375 22.625 23.890625 
Q 32.328125 33.6875 34.8125 36.53125 
Q 39.546875 41.84375 41.421875 45.53125 
Q 43.3125 49.21875 43.3125 52.78125 
Q 43.3125 58.59375 39.234375 62.25 
Q 35.15625 65.921875 28.609375 65.921875 
Q 23.96875 65.921875 18.8125 64.3125 
Q 13.671875 62.703125 7.8125 59.421875 
L 7.8125 69.390625 
Q 13.765625 71.78125 18.9375 73 
Q 24.125 74.21875 28.421875 74.21875 
Q 39.75 74.21875 46.484375 68.546875 
Q 53.21875 62.890625 53.21875 53.421875 
Q 53.21875 48.921875 51.53125 44.890625 
Q 49.859375 40.875 45.40625 35.40625 
Q 44.1875 33.984375 37.640625 27.21875 
Q 31.109375 20.453125 19.1875 8.296875 
z
" id="DejaVuSans-32"/>
      </defs>
      <g transform="translate(121.971214 316.356875)scale(0.2 -0.2)">
       <use xlink:href="#DejaVuSans-32"/>
      </g>
     </g>
    </g>
    <g id="xtick_3">
     <g id="line2d_5">
      <path clip-path="url(#p45dae3c8ab)" d="M 200.007429 294.16 
L 200.007429 24.84 
" style="fill:none;stroke:#b0b0b0;stroke-linecap:square;stroke-width:0.8;"/>
     </g>
     <g id="line2d_6">
      <g>
       <use style="stroke:#000000;stroke-width:0.8;" x="200.007429" xlink:href="#m6d96254577" y="294.16"/>
      </g>
     </g>
     <g id="text_3">
      <!-- 4 -->
      <defs>
       <path d="M 37.796875 64.3125 
L 12.890625 25.390625 
L 37.796875 25.390625 
z
M 35.203125 72.90625 
L 47.609375 72.90625 
L 47.609375 25.390625 
L 58.015625 25.390625 
L 58.015625 17.1875 
L 47.609375 17.1875 
L 47.609375 0 
L 37.796875 0 
L 37.796875 17.1875 
L 4.890625 17.1875 
L 4.890625 26.703125 
z
" id="DejaVuSans-34"/>
      </defs>
      <g transform="translate(193.644929 316.356875)scale(0.2 -0.2)">
       <use xlink:href="#DejaVuSans-34"/>
      </g>
     </g>
    </g>
    <g id="xtick_4">
     <g id="line2d_7">
      <path clip-path="url(#p45dae3c8ab)" d="M 271.681143 294.16 
L 271.681143 24.84 
" style="fill:none;stroke:#b0b0b0;stroke-linecap:square;stroke-width:0.8;"/>
     </g>
     <g id="line2d_8">
      <g>
       <use style="stroke:#000000;stroke-width:0.8;" x="271.681143" xlink:href="#m6d96254577" y="294.16"/>
      </g>
     </g>
     <g id="text_4">
      <!-- 6 -->
      <defs>
       <path d="M 33.015625 40.375 
Q 26.375 40.375 22.484375 35.828125 
Q 18.609375 31.296875 18.609375 23.390625 
Q 18.609375 15.53125 22.484375 10.953125 
Q 26.375 6.390625 33.015625 6.390625 
Q 39.65625 6.390625 43.53125 10.953125 
Q 47.40625 15.53125 47.40625 23.390625 
Q 47.40625 31.296875 43.53125 35.828125 
Q 39.65625 40.375 33.015625 40.375 
z
M 52.59375 71.296875 
L 52.59375 62.3125 
Q 48.875 64.0625 45.09375 64.984375 
Q 41.3125 65.921875 37.59375 65.921875 
Q 27.828125 65.921875 22.671875 59.328125 
Q 17.53125 52.734375 16.796875 39.40625 
Q 19.671875 43.65625 24.015625 45.921875 
Q 28.375 48.1875 33.59375 48.1875 
Q 44.578125 48.1875 50.953125 41.515625 
Q 57.328125 34.859375 57.328125 23.390625 
Q 57.328125 12.15625 50.6875 5.359375 
Q 44.046875 -1.421875 33.015625 -1.421875 
Q 20.359375 -1.421875 13.671875 8.265625 
Q 6.984375 17.96875 6.984375 36.375 
Q 6.984375 53.65625 15.1875 63.9375 
Q 23.390625 74.21875 37.203125 74.21875 
Q 40.921875 74.21875 44.703125 73.484375 
Q 48.484375 72.75 52.59375 71.296875 
z
" id="DejaVuSans-36"/>
      </defs>
      <g transform="translate(265.318643 316.356875)scale(0.2 -0.2)">
       <use xlink:href="#DejaVuSans-36"/>
      </g>
     </g>
    </g>
    <g id="xtick_5">
     <g id="line2d_9">
      <defs>
       <path d="M 0 0 
L 0 2 
" id="m0ccc7bb48f" style="stroke:#000000;stroke-width:0.6;"/>
      </defs>
      <g>
       <use style="stroke:#000000;stroke-width:0.6;" x="56.66" xlink:href="#m0ccc7bb48f" y="294.16"/>
      </g>
     </g>
    </g>
    <g id="xtick_6">
     <g id="line2d_10">
      <g>
       <use style="stroke:#000000;stroke-width:0.6;" x="92.496857" xlink:href="#m0ccc7bb48f" y="294.16"/>
      </g>
     </g>
    </g>
    <g id="xtick_7">
     <g id="line2d_11">
      <g>
       <use style="stroke:#000000;stroke-width:0.6;" x="128.333714" xlink:href="#m0ccc7bb48f" y="294.16"/>
      </g>
     </g>
    </g>
    <g id="xtick_8">
     <g id="line2d_12">
      <g>
       <use style="stroke:#000000;stroke-width:0.6;" x="164.170571" xlink:href="#m0ccc7bb48f" y="294.16"/>
      </g>
     </g>
    </g>
    <g id="xtick_9">
     <g id="line2d_13">
      <g>
       <use style="stroke:#000000;stroke-width:0.6;" x="200.007429" xlink:href="#m0ccc7bb48f" y="294.16"/>
      </g>
     </g>
    </g>
    <g id="xtick_10">
     <g id="line2d_14">
      <g>
       <use style="stroke:#000000;stroke-width:0.6;" x="235.844286" xlink:href="#m0ccc7bb48f" y="294.16"/>
      </g>
     </g>
    </g>
    <g id="xtick_11">
     <g id="line2d_15">
      <g>
       <use style="stroke:#000000;stroke-width:0.6;" x="271.681143" xlink:href="#m0ccc7bb48f" y="294.16"/>
      </g>
     </g>
    </g>
    <g id="xtick_12">
     <g id="line2d_16">
      <g>
       <use style="stroke:#000000;stroke-width:0.6;" x="307.518" xlink:href="#m0ccc7bb48f" y="294.16"/>
      </g>
     </g>
    </g>
    <g id="text_5">
     <!-- log10(# (f+g)-evals / dimension) -->
     <defs>
      <path d="M 9.421875 75.984375 
L 18.40625 75.984375 
L 18.40625 0 
L 9.421875 0 
z
" id="DejaVuSans-6c"/>
      <path d="M 30.609375 48.390625 
Q 23.390625 48.390625 19.1875 42.75 
Q 14.984375 37.109375 14.984375 27.296875 
Q 14.984375 17.484375 19.15625 11.84375 
Q 23.34375 6.203125 30.609375 6.203125 
Q 37.796875 6.203125 41.984375 11.859375 
Q 46.1875 17.53125 46.1875 27.296875 
Q 46.1875 37.015625 41.984375 42.703125 
Q 37.796875 48.390625 30.609375 48.390625 
z
M 30.609375 56 
Q 42.328125 56 49.015625 48.375 
Q 55.71875 40.765625 55.71875 27.296875 
Q 55.71875 13.875 49.015625 6.21875 
Q 42.328125 -1.421875 30.609375 -1.421875 
Q 18.84375 -1.421875 12.171875 6.21875 
Q 5.515625 13.875 5.515625 27.296875 
Q 5.515625 40.765625 12.171875 48.375 
Q 18.84375 56 30.609375 56 
z
" id="DejaVuSans-6f"/>
      <path d="M 45.40625 27.984375 
Q 45.40625 37.75 41.375 43.109375 
Q 37.359375 48.484375 30.078125 48.484375 
Q 22.859375 48.484375 18.828125 43.109375 
Q 14.796875 37.75 14.796875 27.984375 
Q 14.796875 18.265625 18.828125 12.890625 
Q 22.859375 7.515625 30.078125 7.515625 
Q 37.359375 7.515625 41.375 12.890625 
Q 45.40625 18.265625 45.40625 27.984375 
z
M 54.390625 6.78125 
Q 54.390625 -7.171875 48.1875 -13.984375 
Q 42 -20.796875 29.203125 -20.796875 
Q 24.46875 -20.796875 20.265625 -20.09375 
Q 16.0625 -19.390625 12.109375 -17.921875 
L 12.109375 -9.1875 
Q 16.0625 -11.328125 19.921875 -12.34375 
Q 23.78125 -13.375 27.78125 -13.375 
Q 36.625 -13.375 41.015625 -8.765625 
Q 45.40625 -4.15625 45.40625 5.171875 
L 45.40625 9.625 
Q 42.625 4.78125 38.28125 2.390625 
Q 33.9375 0 27.875 0 
Q 17.828125 0 11.671875 7.65625 
Q 5.515625 15.328125 5.515625 27.984375 
Q 5.515625 40.671875 11.671875 48.328125 
Q 17.828125 56 27.875 56 
Q 33.9375 56 38.28125 53.609375 
Q 42.625 51.21875 45.40625 46.390625 
L 45.40625 54.6875 
L 54.390625 54.6875 
z
" id="DejaVuSans-67"/>
      <path d="M 12.40625 8.296875 
L 28.515625 8.296875 
L 28.515625 63.921875 
L 10.984375 60.40625 
L 10.984375 69.390625 
L 28.421875 72.90625 
L 38.28125 72.90625 
L 38.28125 8.296875 
L 54.390625 8.296875 
L 54.390625 0 
L 12.40625 0 
z
" id="DejaVuSans-31"/>
      <path d="M 31 75.875 
Q 24.46875 64.65625 21.28125 53.65625 
Q 18.109375 42.671875 18.109375 31.390625 
Q 18.109375 20.125 21.3125 9.0625 
Q 24.515625 -2 31 -13.1875 
L 23.1875 -13.1875 
Q 15.875 -1.703125 12.234375 9.375 
Q 8.59375 20.453125 8.59375 31.390625 
Q 8.59375 42.28125 12.203125 53.3125 
Q 15.828125 64.359375 23.1875 75.875 
z
" id="DejaVuSans-28"/>
      <path d="M 51.125 44 
L 36.921875 44 
L 32.8125 27.6875 
L 47.125 27.6875 
z
M 43.796875 71.78125 
L 38.71875 51.515625 
L 52.984375 51.515625 
L 58.109375 71.78125 
L 65.921875 71.78125 
L 60.890625 51.515625 
L 76.125 51.515625 
L 76.125 44 
L 58.984375 44 
L 54.984375 27.6875 
L 70.515625 27.6875 
L 70.515625 20.21875 
L 53.078125 20.21875 
L 48 0 
L 40.1875 0 
L 45.21875 20.21875 
L 30.90625 20.21875 
L 25.875 0 
L 18.015625 0 
L 23.09375 20.21875 
L 7.71875 20.21875 
L 7.71875 27.6875 
L 24.90625 27.6875 
L 29 44 
L 13.28125 44 
L 13.28125 51.515625 
L 30.90625 51.515625 
L 35.890625 71.78125 
z
" id="DejaVuSans-23"/>
      <path id="DejaVuSans-20"/>
      <path d="M 37.109375 75.984375 
L 37.109375 68.5 
L 28.515625 68.5 
Q 23.6875 68.5 21.796875 66.546875 
Q 19.921875 64.59375 19.921875 59.515625 
L 19.921875 54.6875 
L 34.71875 54.6875 
L 34.71875 47.703125 
L 19.921875 47.703125 
L 19.921875 0 
L 10.890625 0 
L 10.890625 47.703125 
L 2.296875 47.703125 
L 2.296875 54.6875 
L 10.890625 54.6875 
L 10.890625 58.5 
Q 10.890625 67.625 15.140625 71.796875 
Q 19.390625 75.984375 28.609375 75.984375 
z
" id="DejaVuSans-66"/>
      <path d="M 46 62.703125 
L 46 35.5 
L 73.1875 35.5 
L 73.1875 27.203125 
L 46 27.203125 
L 46 0 
L 37.796875 0 
L 37.796875 27.203125 
L 10.59375 27.203125 
L 10.59375 35.5 
L 37.796875 35.5 
L 37.796875 62.703125 
z
" id="DejaVuSans-2b"/>
      <path d="M 8.015625 75.875 
L 15.828125 75.875 
Q 23.140625 64.359375 26.78125 53.3125 
Q 30.421875 42.28125 30.421875 31.390625 
Q 30.421875 20.453125 26.78125 9.375 
Q 23.140625 -1.703125 15.828125 -13.1875 
L 8.015625 -13.1875 
Q 14.5 -2 17.703125 9.0625 
Q 20.90625 20.125 20.90625 31.390625 
Q 20.90625 42.671875 17.703125 53.65625 
Q 14.5 64.65625 8.015625 75.875 
z
" id="DejaVuSans-29"/>
      <path d="M 4.890625 31.390625 
L 31.203125 31.390625 
L 31.203125 23.390625 
L 4.890625 23.390625 
z
" id="DejaVuSans-2d"/>
      <path d="M 56.203125 29.59375 
L 56.203125 25.203125 
L 14.890625 25.203125 
Q 15.484375 15.921875 20.484375 11.0625 
Q 25.484375 6.203125 34.421875 6.203125 
Q 39.59375 6.203125 44.453125 7.46875 
Q 49.3125 8.734375 54.109375 11.28125 
L 54.109375 2.78125 
Q 49.265625 0.734375 44.1875 -0.34375 
Q 39.109375 -1.421875 33.890625 -1.421875 
Q 20.796875 -1.421875 13.15625 6.1875 
Q 5.515625 13.8125 5.515625 26.8125 
Q 5.515625 40.234375 12.765625 48.109375 
Q 20.015625 56 32.328125 56 
Q 43.359375 56 49.78125 48.890625 
Q 56.203125 41.796875 56.203125 29.59375 
z
M 47.21875 32.234375 
Q 47.125 39.59375 43.09375 43.984375 
Q 39.0625 48.390625 32.421875 48.390625 
Q 24.90625 48.390625 20.390625 44.140625 
Q 15.875 39.890625 15.1875 32.171875 
z
" id="DejaVuSans-65"/>
      <path d="M 2.984375 54.6875 
L 12.5 54.6875 
L 29.59375 8.796875 
L 46.6875 54.6875 
L 56.203125 54.6875 
L 35.6875 0 
L 23.484375 0 
z
" id="DejaVuSans-76"/>
      <path d="M 34.28125 27.484375 
Q 23.390625 27.484375 19.1875 25 
Q 14.984375 22.515625 14.984375 16.5 
Q 14.984375 11.71875 18.140625 8.90625 
Q 21.296875 6.109375 26.703125 6.109375 
Q 34.1875 6.109375 38.703125 11.40625 
Q 43.21875 16.703125 43.21875 25.484375 
L 43.21875 27.484375 
z
M 52.203125 31.203125 
L 52.203125 0 
L 43.21875 0 
L 43.21875 8.296875 
Q 40.140625 3.328125 35.546875 0.953125 
Q 30.953125 -1.421875 24.3125 -1.421875 
Q 15.921875 -1.421875 10.953125 3.296875 
Q 6 8.015625 6 15.921875 
Q 6 25.140625 12.171875 29.828125 
Q 18.359375 34.515625 30.609375 34.515625 
L 43.21875 34.515625 
L 43.21875 35.40625 
Q 43.21875 41.609375 39.140625 45 
Q 35.0625 48.390625 27.6875 48.390625 
Q 23 48.390625 18.546875 47.265625 
Q 14.109375 46.140625 10.015625 43.890625 
L 10.015625 52.203125 
Q 14.9375 54.109375 19.578125 55.046875 
Q 24.21875 56 28.609375 56 
Q 40.484375 56 46.34375 49.84375 
Q 52.203125 43.703125 52.203125 31.203125 
z
" id="DejaVuSans-61"/>
      <path d="M 44.28125 53.078125 
L 44.28125 44.578125 
Q 40.484375 46.53125 36.375 47.5 
Q 32.28125 48.484375 27.875 48.484375 
Q 21.1875 48.484375 17.84375 46.4375 
Q 14.5 44.390625 14.5 40.28125 
Q 14.5 37.15625 16.890625 35.375 
Q 19.28125 33.59375 26.515625 31.984375 
L 29.59375 31.296875 
Q 39.15625 29.25 43.1875 25.515625 
Q 47.21875 21.78125 47.21875 15.09375 
Q 47.21875 7.46875 41.1875 3.015625 
Q 35.15625 -1.421875 24.609375 -1.421875 
Q 20.21875 -1.421875 15.453125 -0.5625 
Q 10.6875 0.296875 5.421875 2 
L 5.421875 11.28125 
Q 10.40625 8.6875 15.234375 7.390625 
Q 20.0625 6.109375 24.8125 6.109375 
Q 31.15625 6.109375 34.5625 8.28125 
Q 37.984375 10.453125 37.984375 14.40625 
Q 37.984375 18.0625 35.515625 20.015625 
Q 33.0625 21.96875 24.703125 23.78125 
L 21.578125 24.515625 
Q 13.234375 26.265625 9.515625 29.90625 
Q 5.8125 33.546875 5.8125 39.890625 
Q 5.8125 47.609375 11.28125 51.796875 
Q 16.75 56 26.8125 56 
Q 31.78125 56 36.171875 55.265625 
Q 40.578125 54.546875 44.28125 53.078125 
z
" id="DejaVuSans-73"/>
      <path d="M 25.390625 72.90625 
L 33.6875 72.90625 
L 8.296875 -9.28125 
L 0 -9.28125 
z
" id="DejaVuSans-2f"/>
      <path d="M 45.40625 46.390625 
L 45.40625 75.984375 
L 54.390625 75.984375 
L 54.390625 0 
L 45.40625 0 
L 45.40625 8.203125 
Q 42.578125 3.328125 38.25 0.953125 
Q 33.9375 -1.421875 27.875 -1.421875 
Q 17.96875 -1.421875 11.734375 6.484375 
Q 5.515625 14.40625 5.515625 27.296875 
Q 5.515625 40.1875 11.734375 48.09375 
Q 17.96875 56 27.875 56 
Q 33.9375 56 38.25 53.625 
Q 42.578125 51.265625 45.40625 46.390625 
z
M 14.796875 27.296875 
Q 14.796875 17.390625 18.875 11.75 
Q 22.953125 6.109375 30.078125 6.109375 
Q 37.203125 6.109375 41.296875 11.75 
Q 45.40625 17.390625 45.40625 27.296875 
Q 45.40625 37.203125 41.296875 42.84375 
Q 37.203125 48.484375 30.078125 48.484375 
Q 22.953125 48.484375 18.875 42.84375 
Q 14.796875 37.203125 14.796875 27.296875 
z
" id="DejaVuSans-64"/>
      <path d="M 9.421875 54.6875 
L 18.40625 54.6875 
L 18.40625 0 
L 9.421875 0 
z
M 9.421875 75.984375 
L 18.40625 75.984375 
L 18.40625 64.59375 
L 9.421875 64.59375 
z
" id="DejaVuSans-69"/>
      <path d="M 52 44.1875 
Q 55.375 50.25 60.0625 53.125 
Q 64.75 56 71.09375 56 
Q 79.640625 56 84.28125 50.015625 
Q 88.921875 44.046875 88.921875 33.015625 
L 88.921875 0 
L 79.890625 0 
L 79.890625 32.71875 
Q 79.890625 40.578125 77.09375 44.375 
Q 74.3125 48.1875 68.609375 48.1875 
Q 61.625 48.1875 57.5625 43.546875 
Q 53.515625 38.921875 53.515625 30.90625 
L 53.515625 0 
L 44.484375 0 
L 44.484375 32.71875 
Q 44.484375 40.625 41.703125 44.40625 
Q 38.921875 48.1875 33.109375 48.1875 
Q 26.21875 48.1875 22.15625 43.53125 
Q 18.109375 38.875 18.109375 30.90625 
L 18.109375 0 
L 9.078125 0 
L 9.078125 54.6875 
L 18.109375 54.6875 
L 18.109375 46.1875 
Q 21.1875 51.21875 25.484375 53.609375 
Q 29.78125 56 35.6875 56 
Q 41.65625 56 45.828125 52.96875 
Q 50 49.953125 52 44.1875 
z
" id="DejaVuSans-6d"/>
      <path d="M 54.890625 33.015625 
L 54.890625 0 
L 45.90625 0 
L 45.90625 32.71875 
Q 45.90625 40.484375 42.875 44.328125 
Q 39.84375 48.1875 33.796875 48.1875 
Q 26.515625 48.1875 22.3125 43.546875 
Q 18.109375 38.921875 18.109375 30.90625 
L 18.109375 0 
L 9.078125 0 
L 9.078125 54.6875 
L 18.109375 54.6875 
L 18.109375 46.1875 
Q 21.34375 51.125 25.703125 53.5625 
Q 30.078125 56 35.796875 56 
Q 45.21875 56 50.046875 50.171875 
Q 54.890625 44.34375 54.890625 33.015625 
z
" id="DejaVuSans-6e"/>
     </defs>
     <g transform="translate(42.090016 337.433594)scale(0.17 -0.17)">
      <use xlink:href="#DejaVuSans-6c"/>
      <use x="27.783203" xlink:href="#DejaVuSans-6f"/>
      <use x="88.964844" xlink:href="#DejaVuSans-67"/>
      <use x="152.441406" xlink:href="#DejaVuSans-31"/>
      <use x="216.064453" xlink:href="#DejaVuSans-30"/>
      <use x="279.6875" xlink:href="#DejaVuSans-28"/>
      <use x="318.701172" xlink:href="#DejaVuSans-23"/>
      <use x="402.490234" xlink:href="#DejaVuSans-20"/>
      <use x="434.277344" xlink:href="#DejaVuSans-28"/>
      <use x="473.291016" xlink:href="#DejaVuSans-66"/>
      <use x="508.496094" xlink:href="#DejaVuSans-2b"/>
      <use x="592.285156" xlink:href="#DejaVuSans-67"/>
      <use x="655.761719" xlink:href="#DejaVuSans-29"/>
      <use x="694.775391" xlink:href="#DejaVuSans-2d"/>
      <use x="730.859375" xlink:href="#DejaVuSans-65"/>
      <use x="792.382812" xlink:href="#DejaVuSans-76"/>
      <use x="851.5625" xlink:href="#DejaVuSans-61"/>
      <use x="912.841797" xlink:href="#DejaVuSans-6c"/>
      <use x="940.625" xlink:href="#DejaVuSans-73"/>
      <use x="992.724609" xlink:href="#DejaVuSans-20"/>
      <use x="1024.511719" xlink:href="#DejaVuSans-2f"/>
      <use x="1058.203125" xlink:href="#DejaVuSans-20"/>
      <use x="1089.990234" xlink:href="#DejaVuSans-64"/>
      <use x="1153.466797" xlink:href="#DejaVuSans-69"/>
      <use x="1181.25" xlink:href="#DejaVuSans-6d"/>
      <use x="1278.662109" xlink:href="#DejaVuSans-65"/>
      <use x="1340.185547" xlink:href="#DejaVuSans-6e"/>
      <use x="1403.564453" xlink:href="#DejaVuSans-73"/>
      <use x="1455.664062" xlink:href="#DejaVuSans-69"/>
      <use x="1483.447266" xlink:href="#DejaVuSans-6f"/>
      <use x="1544.628906" xlink:href="#DejaVuSans-6e"/>
      <use x="1608.007812" xlink:href="#DejaVuSans-29"/>
     </g>
    </g>
   </g>
   <g id="matplotlib.axis_2">
    <g id="ytick_1">
     <g id="line2d_17">
      <path clip-path="url(#p45dae3c8ab)" d="M 56.66 294.16 
L 307.518 294.16 
" style="fill:none;stroke:#b0b0b0;stroke-linecap:square;stroke-width:0.8;"/>
     </g>
     <g id="line2d_18">
      <defs>
       <path d="M 0 0 
L -3.5 0 
" id="m55e221e641" style="stroke:#000000;stroke-width:0.8;"/>
      </defs>
      <g>
       <use style="stroke:#000000;stroke-width:0.8;" x="56.66" xlink:href="#m55e221e641" y="294.16"/>
      </g>
     </g>
     <g id="text_6">
      <!-- 0.0 -->
      <defs>
       <path d="M 10.6875 12.40625 
L 21 12.40625 
L 21 0 
L 10.6875 0 
z
" id="DejaVuSans-2e"/>
      </defs>
      <g transform="translate(24.215 300.23875)scale(0.16 -0.16)">
       <use xlink:href="#DejaVuSans-30"/>
       <use x="63.623047" xlink:href="#DejaVuSans-2e"/>
       <use x="95.410156" xlink:href="#DejaVuSans-30"/>
      </g>
     </g>
    </g>
    <g id="ytick_2">
     <g id="line2d_19">
      <path clip-path="url(#p45dae3c8ab)" d="M 56.66 240.829307 
L 307.518 240.829307 
" style="fill:none;stroke:#b0b0b0;stroke-linecap:square;stroke-width:0.8;"/>
     </g>
     <g id="line2d_20">
      <g>
       <use style="stroke:#000000;stroke-width:0.8;" x="56.66" xlink:href="#m55e221e641" y="240.829307"/>
      </g>
     </g>
     <g id="text_7">
      <!-- 0.2 -->
      <g transform="translate(24.215 246.908057)scale(0.16 -0.16)">
       <use xlink:href="#DejaVuSans-30"/>
       <use x="63.623047" xlink:href="#DejaVuSans-2e"/>
       <use x="95.410156" xlink:href="#DejaVuSans-32"/>
      </g>
     </g>
    </g>
    <g id="ytick_3">
     <g id="line2d_21">
      <path clip-path="url(#p45dae3c8ab)" d="M 56.66 187.498614 
L 307.518 187.498614 
" style="fill:none;stroke:#b0b0b0;stroke-linecap:square;stroke-width:0.8;"/>
     </g>
     <g id="line2d_22">
      <g>
       <use style="stroke:#000000;stroke-width:0.8;" x="56.66" xlink:href="#m55e221e641" y="187.498614"/>
      </g>
     </g>
     <g id="text_8">
      <!-- 0.4 -->
      <g transform="translate(24.215 193.577364)scale(0.16 -0.16)">
       <use xlink:href="#DejaVuSans-30"/>
       <use x="63.623047" xlink:href="#DejaVuSans-2e"/>
       <use x="95.410156" xlink:href="#DejaVuSans-34"/>
      </g>
     </g>
    </g>
    <g id="ytick_4">
     <g id="line2d_23">
      <path clip-path="url(#p45dae3c8ab)" d="M 56.66 134.167921 
L 307.518 134.167921 
" style="fill:none;stroke:#b0b0b0;stroke-linecap:square;stroke-width:0.8;"/>
     </g>
     <g id="line2d_24">
      <g>
       <use style="stroke:#000000;stroke-width:0.8;" x="56.66" xlink:href="#m55e221e641" y="134.167921"/>
      </g>
     </g>
     <g id="text_9">
      <!-- 0.6 -->
      <g transform="translate(24.215 140.246671)scale(0.16 -0.16)">
       <use xlink:href="#DejaVuSans-30"/>
       <use x="63.623047" xlink:href="#DejaVuSans-2e"/>
       <use x="95.410156" xlink:href="#DejaVuSans-36"/>
      </g>
     </g>
    </g>
    <g id="ytick_5">
     <g id="line2d_25">
      <path clip-path="url(#p45dae3c8ab)" d="M 56.66 80.837228 
L 307.518 80.837228 
" style="fill:none;stroke:#b0b0b0;stroke-linecap:square;stroke-width:0.8;"/>
     </g>
     <g id="line2d_26">
      <g>
       <use style="stroke:#000000;stroke-width:0.8;" x="56.66" xlink:href="#m55e221e641" y="80.837228"/>
      </g>
     </g>
     <g id="text_10">
      <!-- 0.8 -->
      <defs>
       <path d="M 31.78125 34.625 
Q 24.75 34.625 20.71875 30.859375 
Q 16.703125 27.09375 16.703125 20.515625 
Q 16.703125 13.921875 20.71875 10.15625 
Q 24.75 6.390625 31.78125 6.390625 
Q 38.8125 6.390625 42.859375 10.171875 
Q 46.921875 13.96875 46.921875 20.515625 
Q 46.921875 27.09375 42.890625 30.859375 
Q 38.875 34.625 31.78125 34.625 
z
M 21.921875 38.8125 
Q 15.578125 40.375 12.03125 44.71875 
Q 8.5 49.078125 8.5 55.328125 
Q 8.5 64.0625 14.71875 69.140625 
Q 20.953125 74.21875 31.78125 74.21875 
Q 42.671875 74.21875 48.875 69.140625 
Q 55.078125 64.0625 55.078125 55.328125 
Q 55.078125 49.078125 51.53125 44.71875 
Q 48 40.375 41.703125 38.8125 
Q 48.828125 37.15625 52.796875 32.3125 
Q 56.78125 27.484375 56.78125 20.515625 
Q 56.78125 9.90625 50.3125 4.234375 
Q 43.84375 -1.421875 31.78125 -1.421875 
Q 19.734375 -1.421875 13.25 4.234375 
Q 6.78125 9.90625 6.78125 20.515625 
Q 6.78125 27.484375 10.78125 32.3125 
Q 14.796875 37.15625 21.921875 38.8125 
z
M 18.3125 54.390625 
Q 18.3125 48.734375 21.84375 45.5625 
Q 25.390625 42.390625 31.78125 42.390625 
Q 38.140625 42.390625 41.71875 45.5625 
Q 45.3125 48.734375 45.3125 54.390625 
Q 45.3125 60.0625 41.71875 63.234375 
Q 38.140625 66.40625 31.78125 66.40625 
Q 25.390625 66.40625 21.84375 63.234375 
Q 18.3125 60.0625 18.3125 54.390625 
z
" id="DejaVuSans-38"/>
      </defs>
      <g transform="translate(24.215 86.915978)scale(0.16 -0.16)">
       <use xlink:href="#DejaVuSans-30"/>
       <use x="63.623047" xlink:href="#DejaVuSans-2e"/>
       <use x="95.410156" xlink:href="#DejaVuSans-38"/>
      </g>
     </g>
    </g>
    <g id="ytick_6">
     <g id="line2d_27">
      <path clip-path="url(#p45dae3c8ab)" d="M 56.66 27.506535 
L 307.518 27.506535 
" style="fill:none;stroke:#b0b0b0;stroke-linecap:square;stroke-width:0.8;"/>
     </g>
     <g id="line2d_28">
      <g>
       <use style="stroke:#000000;stroke-width:0.8;" x="56.66" xlink:href="#m55e221e641" y="27.506535"/>
      </g>
     </g>
     <g id="text_11">
      <!-- 1.0 -->
      <g transform="translate(24.215 33.585285)scale(0.16 -0.16)">
       <use xlink:href="#DejaVuSans-31"/>
       <use x="63.623047" xlink:href="#DejaVuSans-2e"/>
       <use x="95.410156" xlink:href="#DejaVuSans-30"/>
      </g>
     </g>
    </g>
    <g id="text_12">
     <!-- Fraction of function,target pairs -->
     <defs>
      <path d="M 9.8125 72.90625 
L 51.703125 72.90625 
L 51.703125 64.59375 
L 19.671875 64.59375 
L 19.671875 43.109375 
L 48.578125 43.109375 
L 48.578125 34.8125 
L 19.671875 34.8125 
L 19.671875 0 
L 9.8125 0 
z
" id="DejaVuSans-46"/>
      <path d="M 41.109375 46.296875 
Q 39.59375 47.171875 37.8125 47.578125 
Q 36.03125 48 33.890625 48 
Q 26.265625 48 22.1875 43.046875 
Q 18.109375 38.09375 18.109375 28.8125 
L 18.109375 0 
L 9.078125 0 
L 9.078125 54.6875 
L 18.109375 54.6875 
L 18.109375 46.1875 
Q 20.953125 51.171875 25.484375 53.578125 
Q 30.03125 56 36.53125 56 
Q 37.453125 56 38.578125 55.875 
Q 39.703125 55.765625 41.0625 55.515625 
z
" id="DejaVuSans-72"/>
      <path d="M 48.78125 52.59375 
L 48.78125 44.1875 
Q 44.96875 46.296875 41.140625 47.34375 
Q 37.3125 48.390625 33.40625 48.390625 
Q 24.65625 48.390625 19.8125 42.84375 
Q 14.984375 37.3125 14.984375 27.296875 
Q 14.984375 17.28125 19.8125 11.734375 
Q 24.65625 6.203125 33.40625 6.203125 
Q 37.3125 6.203125 41.140625 7.25 
Q 44.96875 8.296875 48.78125 10.40625 
L 48.78125 2.09375 
Q 45.015625 0.34375 40.984375 -0.53125 
Q 36.96875 -1.421875 32.421875 -1.421875 
Q 20.0625 -1.421875 12.78125 6.34375 
Q 5.515625 14.109375 5.515625 27.296875 
Q 5.515625 40.671875 12.859375 48.328125 
Q 20.21875 56 33.015625 56 
Q 37.15625 56 41.109375 55.140625 
Q 45.0625 54.296875 48.78125 52.59375 
z
" id="DejaVuSans-63"/>
      <path d="M 18.3125 70.21875 
L 18.3125 54.6875 
L 36.8125 54.6875 
L 36.8125 47.703125 
L 18.3125 47.703125 
L 18.3125 18.015625 
Q 18.3125 11.328125 20.140625 9.421875 
Q 21.96875 7.515625 27.59375 7.515625 
L 36.8125 7.515625 
L 36.8125 0 
L 27.59375 0 
Q 17.1875 0 13.234375 3.875 
Q 9.28125 7.765625 9.28125 18.015625 
L 9.28125 47.703125 
L 2.6875 47.703125 
L 2.6875 54.6875 
L 9.28125 54.6875 
L 9.28125 70.21875 
z
" id="DejaVuSans-74"/>
      <path d="M 8.5 21.578125 
L 8.5 54.6875 
L 17.484375 54.6875 
L 17.484375 21.921875 
Q 17.484375 14.15625 20.5 10.265625 
Q 23.53125 6.390625 29.59375 6.390625 
Q 36.859375 6.390625 41.078125 11.03125 
Q 45.3125 15.671875 45.3125 23.6875 
L 45.3125 54.6875 
L 54.296875 54.6875 
L 54.296875 0 
L 45.3125 0 
L 45.3125 8.40625 
Q 42.046875 3.421875 37.71875 1 
Q 33.40625 -1.421875 27.6875 -1.421875 
Q 18.265625 -1.421875 13.375 4.4375 
Q 8.5 10.296875 8.5 21.578125 
z
M 31.109375 56 
z
" id="DejaVuSans-75"/>
      <path d="M 11.71875 12.40625 
L 22.015625 12.40625 
L 22.015625 4 
L 14.015625 -11.625 
L 7.71875 -11.625 
L 11.71875 4 
z
" id="DejaVuSans-2c"/>
      <path d="M 18.109375 8.203125 
L 18.109375 -20.796875 
L 9.078125 -20.796875 
L 9.078125 54.6875 
L 18.109375 54.6875 
L 18.109375 46.390625 
Q 20.953125 51.265625 25.265625 53.625 
Q 29.59375 56 35.59375 56 
Q 45.5625 56 51.78125 48.09375 
Q 58.015625 40.1875 58.015625 27.296875 
Q 58.015625 14.40625 51.78125 6.484375 
Q 45.5625 -1.421875 35.59375 -1.421875 
Q 29.59375 -1.421875 25.265625 0.953125 
Q 20.953125 3.328125 18.109375 8.203125 
z
M 48.6875 27.296875 
Q 48.6875 37.203125 44.609375 42.84375 
Q 40.53125 48.484375 33.40625 48.484375 
Q 26.265625 48.484375 22.1875 42.84375 
Q 18.109375 37.203125 18.109375 27.296875 
Q 18.109375 17.390625 22.1875 11.75 
Q 26.265625 6.109375 33.40625 6.109375 
Q 40.53125 6.109375 44.609375 11.75 
Q 48.6875 17.390625 48.6875 27.296875 
z
" id="DejaVuSans-70"/>
     </defs>
     <g transform="translate(16.679531 294.639375)rotate(-90)scale(0.17 -0.17)">
      <use xlink:href="#DejaVuSans-46"/>
      <use x="57.410156" xlink:href="#DejaVuSans-72"/>
      <use x="98.523438" xlink:href="#DejaVuSans-61"/>
      <use x="159.802734" xlink:href="#DejaVuSans-63"/>
      <use x="214.783203" xlink:href="#DejaVuSans-74"/>
      <use x="253.992188" xlink:href="#DejaVuSans-69"/>
      <use x="281.775391" xlink:href="#DejaVuSans-6f"/>
      <use x="342.957031" xlink:href="#DejaVuSans-6e"/>
      <use x="406.335938" xlink:href="#DejaVuSans-20"/>
      <use x="438.123047" xlink:href="#DejaVuSans-6f"/>
      <use x="499.304688" xlink:href="#DejaVuSans-66"/>
      <use x="534.509766" xlink:href="#DejaVuSans-20"/>
      <use x="566.296875" xlink:href="#DejaVuSans-66"/>
      <use x="601.501953" xlink:href="#DejaVuSans-75"/>
      <use x="664.880859" xlink:href="#DejaVuSans-6e"/>
      <use x="728.259766" xlink:href="#DejaVuSans-63"/>
      <use x="783.240234" xlink:href="#DejaVuSans-74"/>
      <use x="822.449219" xlink:href="#DejaVuSans-69"/>
      <use x="850.232422" xlink:href="#DejaVuSans-6f"/>
      <use x="911.414062" xlink:href="#DejaVuSans-6e"/>
      <use x="974.792969" xlink:href="#DejaVuSans-2c"/>
      <use x="1006.580078" xlink:href="#DejaVuSans-74"/>
      <use x="1045.789062" xlink:href="#DejaVuSans-61"/>
      <use x="1107.068359" xlink:href="#DejaVuSans-72"/>
      <use x="1148.166016" xlink:href="#DejaVuSans-67"/>
      <use x="1211.642578" xlink:href="#DejaVuSans-65"/>
      <use x="1273.166016" xlink:href="#DejaVuSans-74"/>
      <use x="1312.375" xlink:href="#DejaVuSans-20"/>
      <use x="1344.162109" xlink:href="#DejaVuSans-70"/>
      <use x="1407.638672" xlink:href="#DejaVuSans-61"/>
      <use x="1468.917969" xlink:href="#DejaVuSans-69"/>
      <use x="1496.701172" xlink:href="#DejaVuSans-72"/>
      <use x="1537.814453" xlink:href="#DejaVuSans-73"/>
     </g>
    </g>
   </g>
   <g id="line2d_29">
    <defs>
     <path d="M 0 1.5 
C 0.397805 1.5 0.77937 1.341951 1.06066 1.06066 
C 1.341951 0.77937 1.5 0.397805 1.5 0 
C 1.5 -0.397805 1.341951 -0.77937 1.06066 -1.06066 
C 0.77937 -1.341951 0.397805 -1.5 0 -1.5 
C -0.397805 -1.5 -0.77937 -1.341951 -1.06066 -1.06066 
C -1.341951 -0.77937 -1.5 -0.397805 -1.5 0 
C -1.5 0.397805 -1.341951 0.77937 -1.06066 1.06066 
C -0.77937 1.341951 -0.397805 1.5 0 1.5 
z
" id="m1880fa07b7" style="stroke:#000080;"/>
    </defs>
    <g>
     <use style="fill:#000080;stroke:#000080;" x="213.713855" xlink:href="#m1880fa07b7" y="157.581396"/>
     <use style="fill:#000080;stroke:#000080;" x="213.713855" xlink:href="#m1880fa07b7" y="157.581396"/>
    </g>
   </g>
   <g id="line2d_30">
    <path d="M 56.66 294.16 
L 56.66 266.844279 
L 73.758526 266.844279 
L 73.758526 265.543531 
L 84.546495 265.543531 
L 84.546495 264.893156 
L 86.945658 264.893156 
L 86.945658 262.291659 
L 90.857052 262.291659 
L 90.857052 259.690162 
L 102.48651 259.690162 
L 102.48651 256.43829 
L 104.044184 256.43829 
L 104.044184 255.137542 
L 109.067748 255.137542 
L 109.067748 253.186419 
L 112.43299 253.186419 
L 112.43299 251.235296 
L 117.231315 251.235296 
L 117.231315 249.284173 
L 121.387814 249.284173 
L 121.387814 247.33305 
L 123.64739 247.33305 
L 123.64739 244.731553 
L 126.520011 244.731553 
L 126.520011 240.178933 
L 128.79376 240.178933 
L 128.79376 238.878184 
L 131.806665 238.878184 
L 131.806665 234.975938 
L 141.56525 234.975938 
L 141.56525 233.67519 
L 141.829049 233.67519 
L 141.829049 232.374441 
L 167.518511 232.374441 
L 167.518511 231.724067 
L 167.779884 231.724067 
L 167.779884 231.073692 
L 168.921816 231.073692 
L 168.921816 230.423318 
L 169.070207 230.423318 
L 169.070207 229.772944 
L 170.240636 229.772944 
L 170.240636 229.122569 
L 171.698134 229.122569 
L 171.698134 227.171447 
L 172.058554 227.171447 
L 172.058554 224.569949 
L 172.438289 224.569949 
L 172.502206 215.464709 
L 172.951278 215.464709 
L 172.951278 213.513586 
L 173.396361 213.513586 
L 173.42215 210.261715 
L 173.669266 210.261715 
L 173.669266 209.61134 
L 174.857046 209.61134 
L 174.857046 206.359469 
L 177.639726 206.359469 
L 177.639726 205.05872 
L 177.776681 205.05872 
L 177.776681 204.408346 
L 179.017949 204.408346 
L 179.017949 203.757972 
L 180.200867 203.757972 
L 180.200867 203.107597 
L 180.416076 203.107597 
L 180.437981 201.156474 
L 180.709228 201.156474 
L 180.736095 199.855726 
L 180.954668 199.855726 
L 180.996961 195.95348 
L 181.149316 195.95348 
L 181.253526 194.652731 
L 181.531458 194.652731 
L 181.562035 192.701608 
L 181.678694 192.701608 
L 181.678694 192.051234 
L 181.9492 192.051234 
L 181.9492 190.750485 
L 182.087633 190.750485 
L 182.087633 190.100111 
L 182.258961 190.100111 
L 182.258961 188.148988 
L 182.399504 188.148988 
L 182.399504 186.84824 
L 182.953972 186.84824 
L 182.953972 185.547491 
L 184.721282 185.547491 
L 184.721282 184.897117 
L 186.050897 184.897117 
L 186.050897 184.246742 
L 186.638702 184.246742 
L 186.638702 183.596368 
L 186.882945 183.596368 
L 186.882945 182.945994 
L 187.094895 182.945994 
L 187.094895 182.295619 
L 187.254634 182.295619 
L 187.300477 180.994871 
L 187.388259 180.994871 
L 187.388259 180.344496 
L 187.641786 180.344496 
L 187.641786 179.694122 
L 189.128927 179.694122 
L 189.128927 179.043748 
L 190.193737 179.043748 
L 190.231701 177.742999 
L 190.509219 177.742999 
L 190.509219 177.092625 
L 190.728291 177.092625 
L 190.801572 175.791876 
L 191.016594 175.791876 
L 191.024912 174.491128 
L 191.307822 174.491128 
L 191.307822 173.840753 
L 191.819208 173.840753 
L 191.895405 172.540005 
L 193.464806 172.540005 
L 193.464806 171.889631 
L 193.860209 171.889631 
L 193.860209 171.239256 
L 194.153139 171.239256 
L 194.153139 170.588882 
L 194.987347 170.588882 
L 195.023834 169.288133 
L 196.49747 169.288133 
L 196.590795 167.987385 
L 196.627582 167.987385 
L 196.627582 167.33701 
L 197.017173 167.33701 
L 197.017173 166.686636 
L 198.436643 166.686636 
L 198.436643 166.036262 
L 198.898026 166.036262 
L 198.993003 164.735513 
L 199.024534 164.735513 
L 199.024534 164.085139 
L 200.94658 164.085139 
L 200.96708 162.78439 
L 204.427148 162.78439 
L 204.499619 161.483642 
L 204.821627 161.483642 
L 204.821627 160.833267 
L 205.529497 160.833267 
L 205.529497 160.182893 
L 205.813947 160.182893 
L 205.813947 159.532519 
L 206.170995 159.532519 
L 206.170995 158.882144 
L 207.355485 158.882144 
L 207.355485 158.23177 
L 213.713855 158.23177 
L 213.713855 157.581396 
L 307.518 157.581396 
L 307.518 157.581396 
" style="fill:none;stroke:#000080;stroke-linecap:square;stroke-width:1.5;"/>
   </g>
   <g id="line2d_31">
    <defs>
     <path d="M 0 6 
C 1.591219 6 3.117479 5.367802 4.242641 4.242641 
C 5.367802 3.117479 6 1.591219 6 0 
C 6 -1.591219 5.367802 -3.117479 4.242641 -4.242641 
C 3.117479 -5.367802 1.591219 -6 0 -6 
C -1.591219 -6 -3.117479 -5.367802 -4.242641 -4.242641 
C -5.367802 -3.117479 -6 -1.591219 -6 0 
C -6 1.591219 -5.367802 3.117479 -4.242641 4.242641 
C -3.117479 5.367802 -1.591219 6 0 6 
z
" id="m797cb209eb" style="stroke:#000080;stroke-width:1.5;"/>
    </defs>
    <g>
     <use style="fill:none;stroke:#000080;stroke-width:1.5;" x="131.806665" xlink:href="#m797cb209eb" y="238.878184"/>
     <use style="fill:none;stroke:#000080;stroke-width:1.5;" x="181.531458" xlink:href="#m797cb209eb" y="194.002357"/>
     <use style="fill:none;stroke:#000080;stroke-width:1.5;" x="213.713855" xlink:href="#m797cb209eb" y="158.23177"/>
     <use style="fill:none;stroke:#000080;stroke-width:1.5;" x="213.713855" xlink:href="#m797cb209eb" y="157.581396"/>
     <use style="fill:none;stroke:#000080;stroke-width:1.5;" x="307.518" xlink:href="#m797cb209eb" y="157.581396"/>
    </g>
   </g>
   <g id="line2d_32">
    <path style="fill:none;stroke:#000080;stroke-linecap:square;stroke-width:1.5;"/>
    <g/>
   </g>
   <g id="line2d_33">
    <path clip-path="url(#p45dae3c8ab)" d="M 168.181944 231.073692 
" style="fill:none;stroke:#000080;stroke-linecap:square;stroke-width:1.5;"/>
    <defs>
     <path d="M -12 12 
L 12 -12 
M -12 -12 
L 12 12 
" id="m74e6bc42e8" style="stroke:#000080;stroke-width:3;"/>
    </defs>
    <g clip-path="url(#p45dae3c8ab)">
     <use style="fill:#000080;stroke:#000080;stroke-width:3;" x="168.181944" xlink:href="#m74e6bc42e8" y="231.073692"/>
    </g>
   </g>
   <g id="line2d_34">
    <defs>
     <path d="M 0 1.5 
C 0.397805 1.5 0.77937 1.341951 1.06066 1.06066 
C 1.341951 0.77937 1.5 0.397805 1.5 0 
C 1.5 -0.397805 1.341951 -0.77937 1.06066 -1.06066 
C 0.77937 -1.341951 0.397805 -1.5 0 -1.5 
C -0.397805 -1.5 -0.77937 -1.341951 -1.06066 -1.06066 
C -1.341951 -0.77937 -1.5 -0.397805 -1.5 0 
C -1.5 0.397805 -1.341951 0.77937 -1.06066 1.06066 
C -0.77937 1.341951 -0.397805 1.5 0 1.5 
z
" id="m9eda2a19b6" style="stroke:#ff00ff;"/>
    </defs>
    <g>
     <use style="fill:#ff00ff;stroke:#ff00ff;" x="208.202235" xlink:href="#m9eda2a19b6" y="79.536479"/>
     <use style="fill:#ff00ff;stroke:#ff00ff;" x="208.202235" xlink:href="#m9eda2a19b6" y="79.536479"/>
    </g>
   </g>
   <g id="line2d_35">
    <path d="M 56.66 294.16 
L 56.66 270.096151 
L 67.447969 270.096151 
L 67.447969 267.494653 
L 78.235938 267.494653 
L 78.235938 266.193905 
L 81.708888 266.193905 
L 81.708888 264.893156 
L 93.980241 264.893156 
L 93.980241 263.592408 
L 95.334464 263.592408 
L 95.334464 262.942033 
L 98.807414 262.942033 
L 98.807414 261.641285 
L 102.48651 261.641285 
L 102.48651 258.389413 
L 111.543391 258.389413 
L 111.543391 257.739039 
L 122.100782 257.739039 
L 122.100782 255.787916 
L 123.435635 255.787916 
L 123.435635 253.186419 
L 127.204242 253.186419 
L 127.204242 251.88567 
L 133.681258 251.88567 
L 133.681258 249.934547 
L 154.464689 249.934547 
L 154.464689 249.284173 
L 156.553823 249.284173 
L 156.553823 244.731553 
L 157.078072 244.731553 
L 157.078072 243.430804 
L 158.007172 243.430804 
L 158.007172 241.479681 
L 159.251157 241.479681 
L 159.251157 239.528558 
L 159.442126 239.528558 
L 159.442126 236.276687 
L 159.858294 236.276687 
L 159.96062 227.171447 
L 162.216337 227.171447 
L 162.216337 222.618826 
L 162.391804 222.618826 
L 162.496142 212.212837 
L 163.421327 212.212837 
L 163.421327 210.261715 
L 163.808424 210.261715 
L 163.808424 208.310592 
L 164.41762 208.310592 
L 164.41762 207.660217 
L 164.570058 207.660217 
L 164.570058 206.359469 
L 164.76602 206.359469 
L 164.855639 202.457223 
L 165.906573 202.457223 
L 165.906573 200.5061 
L 166.264377 200.5061 
L 166.264377 193.351983 
L 166.60083 193.351983 
L 166.60083 190.750485 
L 167.779884 190.750485 
L 167.779884 188.799362 
L 169.081563 188.799362 
L 169.081563 188.148988 
L 169.194672 188.148988 
L 169.194672 186.197865 
L 169.759079 186.197865 
L 169.759079 184.246742 
L 170.890725 184.246742 
L 170.921014 180.994871 
L 171.041586 180.994871 
L 171.041586 179.694122 
L 171.220711 179.694122 
L 171.220711 179.043748 
L 171.388011 179.043748 
L 171.388011 177.092625 
L 171.543845 177.092625 
L 171.553533 173.840753 
L 171.926736 173.840753 
L 171.926736 171.889631 
L 173.092287 171.889631 
L 173.092287 167.33701 
L 173.42215 167.33701 
L 173.42215 165.385887 
L 173.686165 165.385887 
L 173.686165 162.134016 
L 173.962377 162.134016 
L 173.962377 158.882144 
L 174.233773 158.882144 
L 174.233773 154.329524 
L 174.942969 154.329524 
L 174.942969 153.028776 
L 175.680798 153.028776 
L 175.680798 151.077653 
L 175.989729 151.077653 
L 176.08774 145.224284 
L 176.159945 145.224284 
L 176.159945 141.972412 
L 176.760527 141.972412 
L 176.760527 141.322038 
L 177.184429 141.322038 
L 177.224846 140.02129 
L 177.362149 140.02129 
L 177.362149 139.370915 
L 177.527969 139.370915 
L 177.527969 137.419792 
L 177.708354 137.419792 
L 177.796147 136.119044 
L 177.963848 136.119044 
L 177.963848 135.468669 
L 178.66628 135.468669 
L 178.66628 134.818295 
L 179.632175 134.818295 
L 179.632175 132.867172 
L 180.242485 132.867172 
L 180.242485 131.566424 
L 180.399627 131.566424 
L 180.399627 130.916049 
L 180.604004 130.916049 
L 180.682315 128.314552 
L 181.010154 128.314552 
L 181.081203 127.013803 
L 181.211926 127.013803 
L 181.211926 125.713055 
L 181.408545 125.713055 
L 181.488037 121.160435 
L 181.556943 121.160435 
L 181.567125 119.859686 
L 181.734179 119.859686 
L 181.749278 118.558937 
L 181.89946 118.558937 
L 182.001257 114.656692 
L 182.229724 114.656692 
L 182.229724 113.355943 
L 182.799573 113.355943 
L 182.799573 112.705569 
L 183.111464 112.705569 
L 183.111464 111.40482 
L 183.242262 111.40482 
L 183.349292 110.104071 
L 184.059076 110.104071 
L 184.059076 109.453697 
L 184.175724 109.453697 
L 184.225143 108.152949 
L 184.400066 108.152949 
L 184.400066 107.502574 
L 184.56675 107.502574 
L 184.614945 106.201826 
L 186.176305 106.201826 
L 186.176305 105.551451 
L 186.293199 105.551451 
L 186.293199 104.901077 
L 186.717497 104.901077 
L 186.76677 103.600328 
L 187.0162 103.600328 
L 187.096679 102.29958 
L 187.134094 102.29958 
L 187.203341 100.348457 
L 187.438947 100.348457 
L 187.438947 99.698083 
L 187.562352 99.698083 
L 187.665881 98.397334 
L 187.990935 98.397334 
L 188.074919 96.446211 
L 188.548408 96.446211 
L 188.548408 95.795837 
L 189.188301 95.795837 
L 189.188301 95.145462 
L 190.238991 95.145462 
L 190.342144 93.19434 
L 190.81422 93.19434 
L 190.81422 92.543965 
L 191.038765 92.543965 
L 191.038765 91.893591 
L 191.154645 91.893591 
L 191.154645 91.243217 
L 191.511979 91.243217 
L 191.511979 90.592842 
L 191.766441 90.592842 
L 191.766441 89.942468 
L 192.546047 89.942468 
L 192.546047 89.292094 
L 193.462436 89.292094 
L 193.462436 88.641719 
L 194.084976 88.641719 
L 194.180321 87.340971 
L 194.206325 87.340971 
L 194.206325 86.690596 
L 194.328977 86.690596 
L 194.389384 85.389848 
L 196.488692 85.389848 
L 196.488692 84.739474 
L 196.631449 84.739474 
L 196.631449 84.089099 
L 197.240011 84.089099 
L 197.240011 83.438725 
L 197.815819 83.438725 
L 197.815819 82.788351 
L 199.373706 82.788351 
L 199.373706 82.137976 
L 199.790364 82.137976 
L 199.790364 81.487602 
L 199.94036 81.487602 
L 199.94036 80.837228 
L 202.850223 80.837228 
L 202.850223 80.186853 
L 208.202235 80.186853 
L 208.202235 79.536479 
L 307.518 79.536479 
L 307.518 79.536479 
" style="fill:none;stroke:#ff00ff;stroke-linecap:square;stroke-width:1.5;"/>
   </g>
   <g id="line2d_36">
    <defs>
     <path d="M -0 8.485281 
L 5.091169 0 
L 0 -8.485281 
L -5.091169 -0 
z
" id="m2918c63c8d" style="stroke:#ff00ff;stroke-linejoin:miter;stroke-width:1.5;"/>
    </defs>
    <g>
     <use style="fill:none;stroke:#ff00ff;stroke-linejoin:miter;stroke-width:1.5;" x="111.543391" xlink:href="#m2918c63c8d" y="258.389413"/>
     <use style="fill:none;stroke:#ff00ff;stroke-linejoin:miter;stroke-width:1.5;" x="180.604004" xlink:href="#m2918c63c8d" y="130.265675"/>
     <use style="fill:none;stroke:#ff00ff;stroke-linejoin:miter;stroke-width:1.5;" x="208.202235" xlink:href="#m2918c63c8d" y="79.536479"/>
     <use style="fill:none;stroke:#ff00ff;stroke-linejoin:miter;stroke-width:1.5;" x="208.202235" xlink:href="#m2918c63c8d" y="79.536479"/>
     <use style="fill:none;stroke:#ff00ff;stroke-linejoin:miter;stroke-width:1.5;" x="307.518" xlink:href="#m2918c63c8d" y="79.536479"/>
    </g>
   </g>
   <g id="line2d_37">
    <path style="fill:none;stroke:#ff00ff;stroke-linecap:square;stroke-width:1.5;"/>
    <g/>
   </g>
   <g id="line2d_38">
    <path clip-path="url(#p45dae3c8ab)" d="M 167.872177 188.799362 
" style="fill:none;stroke:#ff00ff;stroke-linecap:square;stroke-width:1.5;"/>
    <defs>
     <path d="M -12 12 
L 12 -12 
M -12 -12 
L 12 12 
" id="md504498065" style="stroke:#ff00ff;stroke-width:3;"/>
    </defs>
    <g clip-path="url(#p45dae3c8ab)">
     <use style="fill:#ff00ff;stroke:#ff00ff;stroke-width:3;" x="167.872177" xlink:href="#md504498065" y="188.799362"/>
    </g>
   </g>
   <g id="line2d_39">
    <defs>
     <path d="M 0 1.5 
C 0.397805 1.5 0.77937 1.341951 1.06066 1.06066 
C 1.341951 0.77937 1.5 0.397805 1.5 0 
C 1.5 -0.397805 1.341951 -0.77937 1.06066 -1.06066 
C 0.77937 -1.341951 0.397805 -1.5 0 -1.5 
C -0.397805 -1.5 -0.77937 -1.341951 -1.06066 -1.06066 
C -1.341951 -0.77937 -1.5 -0.397805 -1.5 0 
C -1.5 0.397805 -1.341951 0.77937 -1.06066 1.06066 
C -0.77937 1.341951 -0.397805 1.5 0 1.5 
z
" id="m7e6d1c9ebf" style="stroke:#ffa500;"/>
    </defs>
    <g>
     <use style="fill:#ffa500;stroke:#ffa500;" x="219.961277" xlink:href="#m7e6d1c9ebf" y="47.017764"/>
     <use style="fill:#ffa500;stroke:#ffa500;" x="219.961277" xlink:href="#m7e6d1c9ebf" y="47.017764"/>
    </g>
   </g>
   <g id="line2d_40">
    <path d="M 56.66 294.16 
L 56.66 270.746525 
L 78.235938 270.746525 
L 78.235938 266.193905 
L 81.708888 266.193905 
L 81.708888 261.641285 
L 84.546495 261.641285 
L 84.546495 260.99091 
L 89.023907 260.99091 
L 89.023907 259.690162 
L 92.496857 259.690162 
L 92.496857 255.137542 
L 93.980241 255.137542 
L 93.980241 252.536044 
L 95.334464 252.536044 
L 95.334464 251.88567 
L 97.733627 251.88567 
L 97.733627 238.878184 
L 98.807414 238.878184 
L 98.807414 218.066206 
L 100.755422 218.066206 
L 100.755422 216.765458 
L 102.48651 216.765458 
L 102.48651 208.310592 
L 103.284826 208.310592 
L 103.284826 201.806849 
L 104.044184 201.806849 
L 104.044184 185.547491 
L 104.76821 185.547491 
L 104.76821 170.588882 
L 106.757776 170.588882 
L 106.757776 156.931021 
L 110.599845 156.931021 
L 110.599845 156.280647 
L 111.078767 156.280647 
L 111.078767 148.476156 
L 119.309565 148.476156 
L 119.309565 140.02129 
L 120.64061 140.02129 
L 120.64061 138.070167 
L 120.893685 138.070167 
L 120.893685 134.818295 
L 121.14271 134.818295 
L 121.14271 121.810809 
L 122.33136 121.810809 
L 122.33136 117.258189 
L 125.433727 117.258189 
L 125.433727 114.656692 
L 129.093072 114.656692 
L 129.093072 114.006317 
L 131.428579 114.006317 
L 131.428579 113.355943 
L 155.611863 113.355943 
L 155.611863 108.803323 
L 156.477467 108.803323 
L 156.477467 99.698083 
L 159.399891 99.698083 
L 159.399891 94.495088 
L 165.136075 94.495088 
L 165.238132 88.641719 
L 165.361167 88.641719 
L 165.361167 87.991345 
L 166.045165 87.991345 
L 166.045165 86.690596 
L 170.335185 86.690596 
L 170.335185 85.389848 
L 171.654894 85.389848 
L 171.659705 80.837228 
L 172.822375 80.837228 
L 172.902509 77.585356 
L 175.553989 77.585356 
L 175.62498 72.382362 
L 175.978801 72.382362 
L 175.978801 71.081613 
L 178.390972 71.081613 
L 178.390972 70.431239 
L 179.196776 70.431239 
L 179.247073 69.13049 
L 179.914874 69.13049 
L 179.971367 67.829742 
L 184.361836 67.829742 
L 184.361836 67.179367 
L 184.775215 67.179367 
L 184.853705 65.878619 
L 186.100421 65.878619 
L 186.100421 65.228244 
L 188.088314 65.228244 
L 188.148451 63.277121 
L 188.493062 63.277121 
L 188.507732 61.976373 
L 189.55815 61.976373 
L 189.584017 59.374876 
L 191.19171 59.374876 
L 191.19171 58.724501 
L 191.451417 58.724501 
L 191.474324 56.123004 
L 192.399564 56.123004 
L 192.399564 55.47263 
L 194.760072 55.47263 
L 194.768791 54.171881 
L 196.148418 54.171881 
L 196.166356 52.871133 
L 200.247582 52.871133 
L 200.265197 51.570384 
L 201.220355 51.570384 
L 201.243373 50.269635 
L 201.732986 50.269635 
L 201.732986 49.619261 
L 202.638752 49.619261 
L 202.638752 48.968887 
L 208.473344 48.968887 
L 208.473344 48.318512 
L 209.907538 48.318512 
L 209.907538 47.668138 
L 219.961277 47.668138 
L 219.961277 47.017764 
L 307.518 47.017764 
L 307.518 47.017764 
" style="fill:none;stroke:#ffa500;stroke-linecap:square;stroke-width:1.5;"/>
   </g>
   <g id="line2d_41">
    <defs>
     <path d="M 0 -6 
L -1.347084 -1.854102 
L -5.706339 -1.854102 
L -2.179628 0.708204 
L -3.526712 4.854102 
L -0 2.291796 
L 3.526712 4.854102 
L 2.179628 0.708204 
L 5.706339 -1.854102 
L 1.347084 -1.854102 
z
" id="mf915c5042f" style="stroke:#ffa500;stroke-linejoin:bevel;stroke-width:1.5;"/>
    </defs>
    <g>
     <use style="fill:none;stroke:#ffa500;stroke-linejoin:bevel;stroke-width:1.5;" x="121.14271" xlink:href="#mf915c5042f" y="134.818295"/>
     <use style="fill:none;stroke:#ffa500;stroke-linejoin:bevel;stroke-width:1.5;" x="186.100421" xlink:href="#mf915c5042f" y="65.878619"/>
     <use style="fill:none;stroke:#ffa500;stroke-linejoin:bevel;stroke-width:1.5;" x="219.961277" xlink:href="#mf915c5042f" y="47.017764"/>
     <use style="fill:none;stroke:#ffa500;stroke-linejoin:bevel;stroke-width:1.5;" x="219.961277" xlink:href="#mf915c5042f" y="47.017764"/>
     <use style="fill:none;stroke:#ffa500;stroke-linejoin:bevel;stroke-width:1.5;" x="307.518" xlink:href="#mf915c5042f" y="47.017764"/>
    </g>
   </g>
   <g id="line2d_42">
    <path style="fill:none;stroke:#ffa500;stroke-linecap:square;stroke-width:1.5;"/>
    <g/>
   </g>
   <g id="line2d_43">
    <path clip-path="url(#p45dae3c8ab)" d="M 164.294586 94.495088 
" style="fill:none;stroke:#ffa500;stroke-linecap:square;stroke-width:1.5;"/>
    <defs>
     <path d="M -12 12 
L 12 -12 
M -12 -12 
L 12 12 
" id="mb8b0573c5d" style="stroke:#ffa500;stroke-width:3;"/>
    </defs>
    <g clip-path="url(#p45dae3c8ab)">
     <use style="fill:#ffa500;stroke:#ffa500;stroke-width:3;" x="164.294586" xlink:href="#mb8b0573c5d" y="94.495088"/>
    </g>
   </g>
   <g id="line2d_44">
    <defs>
     <path d="M 0 1.5 
C 0.397805 1.5 0.77937 1.341951 1.06066 1.06066 
C 1.341951 0.77937 1.5 0.397805 1.5 0 
C 1.5 -0.397805 1.341951 -0.77937 1.06066 -1.06066 
C 0.77937 -1.341951 0.397805 -1.5 0 -1.5 
C -0.397805 -1.5 -0.77937 -1.341951 -1.06066 -1.06066 
C -1.341951 -0.77937 -1.5 -0.397805 -1.5 0 
C -1.5 0.397805 -1.341951 0.77937 -1.06066 1.06066 
C -0.77937 1.341951 -0.397805 1.5 0 1.5 
z
" id="m22c9f011f9" style="stroke:#6495ed;"/>
    </defs>
    <g>
     <use style="fill:#6495ed;stroke:#6495ed;" x="199.547803" xlink:href="#m22c9f011f9" y="131.566424"/>
     <use style="fill:#6495ed;stroke:#6495ed;" x="199.547803" xlink:href="#m22c9f011f9" y="131.566424"/>
    </g>
   </g>
   <g id="line2d_45">
    <path d="M 56.66 294.16 
L 56.66 270.096151 
L 90.857052 270.096151 
L 90.857052 267.494653 
L 101.645021 267.494653 
L 101.645021 265.543531 
L 102.48651 265.543531 
L 102.48651 262.942033 
L 104.76821 262.942033 
L 104.76821 262.291659 
L 105.460046 262.291659 
L 105.460046 259.690162 
L 106.122433 259.690162 
L 106.122433 256.43829 
L 112.43299 256.43829 
L 112.43299 254.487167 
L 114.072795 254.487167 
L 114.072795 253.836793 
L 118.743548 253.836793 
L 118.743548 252.536044 
L 120.64061 252.536044 
L 120.64061 250.584922 
L 121.629117 250.584922 
L 121.629117 247.33305 
L 123.64739 247.33305 
L 123.64739 245.381927 
L 134.329842 245.381927 
L 134.329842 239.528558 
L 137.043434 239.528558 
L 137.043434 238.878184 
L 137.132117 238.878184 
L 137.132117 233.024815 
L 137.395172 233.024815 
L 137.395172 228.472195 
L 138.405067 228.472195 
L 138.405067 222.618826 
L 138.48634 222.618826 
L 138.48634 216.765458 
L 138.807253 216.765458 
L 138.807253 210.912089 
L 140.391374 210.912089 
L 140.391374 208.960966 
L 140.675651 208.960966 
L 140.675651 207.009843 
L 149.395428 207.009843 
L 149.395428 203.757972 
L 150.962674 203.757972 
L 150.962674 201.806849 
L 151.14344 201.806849 
L 151.14344 187.498614 
L 151.32213 187.498614 
L 151.32213 186.84824 
L 151.428368 186.84824 
L 151.428368 182.945994 
L 151.846212 182.945994 
L 151.846212 179.043748 
L 153.288939 179.043748 
L 153.288939 168.637759 
L 166.60083 168.637759 
L 166.60083 166.686636 
L 167.55612 166.686636 
L 167.55612 164.735513 
L 169.562205 164.735513 
L 169.562205 164.085139 
L 170.060461 164.085139 
L 170.060461 162.78439 
L 170.150809 162.78439 
L 170.150809 162.134016 
L 170.465557 162.134016 
L 170.465557 159.532519 
L 170.512225 159.532519 
L 170.512225 157.581396 
L 170.961309 157.581396 
L 170.961309 156.931021 
L 172.593063 156.931021 
L 172.593063 156.280647 
L 173.879193 156.280647 
L 173.879193 147.825781 
L 173.91252 147.825781 
L 173.91252 145.224284 
L 173.945776 145.224284 
L 173.945776 141.972412 
L 176.753595 141.972412 
L 176.753595 141.322038 
L 177.08632 141.322038 
L 177.08632 140.02129 
L 178.205743 140.02129 
L 178.205743 139.370915 
L 178.365985 139.370915 
L 178.365985 138.720541 
L 178.558593 138.720541 
L 178.558593 138.070167 
L 180.016414 138.070167 
L 180.016414 137.419792 
L 183.541008 137.419792 
L 183.541008 136.769418 
L 183.85611 136.769418 
L 183.85611 136.119044 
L 183.884642 136.119044 
L 183.884642 135.468669 
L 187.826704 135.468669 
L 187.826704 134.818295 
L 188.059835 134.818295 
L 188.059835 134.167921 
L 190.77061 134.167921 
L 190.77061 133.517546 
L 191.023526 133.517546 
L 191.023526 132.867172 
L 197.793407 132.867172 
L 197.793407 132.216798 
L 199.547803 132.216798 
L 199.547803 131.566424 
L 307.518 131.566424 
" style="fill:none;stroke:#6495ed;stroke-linecap:square;stroke-width:1.5;"/>
   </g>
   <g id="line2d_46">
    <defs>
     <path d="M -0 6 
L 6 -6 
L -6 -6 
z
" id="m299b8b706c" style="stroke:#6495ed;stroke-linejoin:miter;stroke-width:1.5;"/>
    </defs>
    <g>
     <use style="fill:none;stroke:#6495ed;stroke-linejoin:miter;stroke-width:1.5;" x="102.48651" xlink:href="#m299b8b706c" y="265.543531"/>
     <use style="fill:none;stroke:#6495ed;stroke-linejoin:miter;stroke-width:1.5;" x="151.846212" xlink:href="#m299b8b706c" y="182.945994"/>
     <use style="fill:none;stroke:#6495ed;stroke-linejoin:miter;stroke-width:1.5;" x="199.547803" xlink:href="#m299b8b706c" y="132.216798"/>
     <use style="fill:none;stroke:#6495ed;stroke-linejoin:miter;stroke-width:1.5;" x="199.547803" xlink:href="#m299b8b706c" y="131.566424"/>
     <use style="fill:none;stroke:#6495ed;stroke-linejoin:miter;stroke-width:1.5;" x="307.518" xlink:href="#m299b8b706c" y="131.566424"/>
    </g>
   </g>
   <g id="line2d_47">
    <path style="fill:none;stroke:#6495ed;stroke-linecap:square;stroke-width:1.5;"/>
    <g/>
   </g>
   <g id="line2d_48">
    <path clip-path="url(#p45dae3c8ab)" d="M 164.638171 168.637759 
" style="fill:none;stroke:#6495ed;stroke-linecap:square;stroke-width:1.5;"/>
    <defs>
     <path d="M -12 12 
L 12 -12 
M -12 -12 
L 12 12 
" id="m7322f5cc5f" style="stroke:#6495ed;stroke-width:3;"/>
    </defs>
    <g clip-path="url(#p45dae3c8ab)">
     <use style="fill:#6495ed;stroke:#6495ed;stroke-width:3;" x="164.638171" xlink:href="#m7322f5cc5f" y="168.637759"/>
    </g>
   </g>
   <g id="line2d_49">
    <path d="M 307.518 157.581396 
L 335.11238 288.826931 
" style="fill:none;stroke:#000080;stroke-linecap:square;stroke-width:1.5;"/>
    <g>
     <use style="fill:none;stroke:#000080;stroke-width:1.5;" x="307.518" xlink:href="#m797cb209eb" y="157.581396"/>
     <use style="fill:none;stroke:#000080;stroke-width:1.5;" x="335.11238" xlink:href="#m797cb209eb" y="288.826931"/>
    </g>
   </g>
   <g id="line2d_50">
    <path d="M 307.518 131.566424 
L 335.11238 203.497822 
" style="fill:none;stroke:#6495ed;stroke-linecap:square;stroke-width:1.5;"/>
    <g>
     <use style="fill:none;stroke:#6495ed;stroke-linejoin:miter;stroke-width:1.5;" x="307.518" xlink:href="#m299b8b706c" y="131.566424"/>
     <use style="fill:none;stroke:#6495ed;stroke-linejoin:miter;stroke-width:1.5;" x="335.11238" xlink:href="#m299b8b706c" y="203.497822"/>
    </g>
   </g>
   <g id="line2d_51">
    <path d="M 307.518 79.536479 
L 335.11238 118.168713 
" style="fill:none;stroke:#ff00ff;stroke-linecap:square;stroke-width:1.5;"/>
    <g>
     <use style="fill:none;stroke:#ff00ff;stroke-linejoin:miter;stroke-width:1.5;" x="307.518" xlink:href="#m2918c63c8d" y="79.536479"/>
     <use style="fill:none;stroke:#ff00ff;stroke-linejoin:miter;stroke-width:1.5;" x="335.11238" xlink:href="#m2918c63c8d" y="118.168713"/>
    </g>
   </g>
   <g id="line2d_52">
    <path d="M 307.518 47.017764 
L 335.11238 32.839604 
" style="fill:none;stroke:#ffa500;stroke-linecap:square;stroke-width:1.5;"/>
    <g>
     <use style="fill:none;stroke:#ffa500;stroke-linejoin:bevel;stroke-width:1.5;" x="307.518" xlink:href="#mf915c5042f" y="47.017764"/>
     <use style="fill:none;stroke:#ffa500;stroke-linejoin:bevel;stroke-width:1.5;" x="335.11238" xlink:href="#mf915c5042f" y="32.839604"/>
    </g>
   </g>
   <g id="line2d_53">
    <path d="M 307.518 294.16 
L 307.518 27.506535 
" style="fill:none;stroke:#000000;stroke-linecap:square;stroke-width:1.5;"/>
   </g>
   <g id="patch_3">
    <path d="M 56.66 294.16 
L 56.66 24.84 
" style="fill:none;stroke:#000000;stroke-linecap:square;stroke-linejoin:miter;stroke-width:0.8;"/>
   </g>
   <g id="patch_4">
    <path d="M 307.518 294.16 
L 307.518 24.84 
" style="fill:none;stroke:#000000;stroke-linecap:square;stroke-linejoin:miter;stroke-width:0.8;"/>
   </g>
   <g id="patch_5">
    <path d="M 56.66 294.16 
L 307.518 294.16 
" style="fill:none;stroke:#000000;stroke-linecap:square;stroke-linejoin:miter;stroke-width:0.8;"/>
   </g>
   <g id="patch_6">
    <path d="M 56.66 24.84 
L 307.518 24.84 
" style="fill:none;stroke:#000000;stroke-linecap:square;stroke-linejoin:miter;stroke-width:0.8;"/>
   </g>
   <g id="text_13">
    <!-- fmin2 from cma.evolution strategy 1000D on bbob-constrained-001 -->
    <defs>
     <path d="M 32.171875 -5.078125 
Q 28.375 -14.84375 24.75 -17.8125 
Q 21.140625 -20.796875 15.09375 -20.796875 
L 7.90625 -20.796875 
L 7.90625 -13.28125 
L 13.1875 -13.28125 
Q 16.890625 -13.28125 18.9375 -11.515625 
Q 21 -9.765625 23.484375 -3.21875 
L 25.09375 0.875 
L 2.984375 54.6875 
L 12.5 54.6875 
L 29.59375 11.921875 
L 46.6875 54.6875 
L 56.203125 54.6875 
z
" id="DejaVuSans-79"/>
     <path d="M 19.671875 64.796875 
L 19.671875 8.109375 
L 31.59375 8.109375 
Q 46.6875 8.109375 53.6875 14.9375 
Q 60.6875 21.78125 60.6875 36.53125 
Q 60.6875 51.171875 53.6875 57.984375 
Q 46.6875 64.796875 31.59375 64.796875 
z
M 9.8125 72.90625 
L 30.078125 72.90625 
Q 51.265625 72.90625 61.171875 64.09375 
Q 71.09375 55.28125 71.09375 36.53125 
Q 71.09375 17.671875 61.125 8.828125 
Q 51.171875 0 30.078125 0 
L 9.8125 0 
z
" id="DejaVuSans-44"/>
     <path d="M 48.6875 27.296875 
Q 48.6875 37.203125 44.609375 42.84375 
Q 40.53125 48.484375 33.40625 48.484375 
Q 26.265625 48.484375 22.1875 42.84375 
Q 18.109375 37.203125 18.109375 27.296875 
Q 18.109375 17.390625 22.1875 11.75 
Q 26.265625 6.109375 33.40625 6.109375 
Q 40.53125 6.109375 44.609375 11.75 
Q 48.6875 17.390625 48.6875 27.296875 
z
M 18.109375 46.390625 
Q 20.953125 51.265625 25.265625 53.625 
Q 29.59375 56 35.59375 56 
Q 45.5625 56 51.78125 48.09375 
Q 58.015625 40.1875 58.015625 27.296875 
Q 58.015625 14.40625 51.78125 6.484375 
Q 45.5625 -1.421875 35.59375 -1.421875 
Q 29.59375 -1.421875 25.265625 0.953125 
Q 20.953125 3.328125 18.109375 8.203125 
L 18.109375 0 
L 9.078125 0 
L 9.078125 75.984375 
L 18.109375 75.984375 
z
" id="DejaVuSans-62"/>
    </defs>
    <g transform="translate(340.12954 293.517868)scale(0.17 -0.17)">
     <use xlink:href="#DejaVuSans-66"/>
     <use x="35.205078" xlink:href="#DejaVuSans-6d"/>
     <use x="132.617188" xlink:href="#DejaVuSans-69"/>
     <use x="160.400391" xlink:href="#DejaVuSans-6e"/>
     <use x="223.779297" xlink:href="#DejaVuSans-32"/>
     <use x="287.402344" xlink:href="#DejaVuSans-20"/>
     <use x="319.189453" xlink:href="#DejaVuSans-66"/>
     <use x="354.394531" xlink:href="#DejaVuSans-72"/>
     <use x="395.476562" xlink:href="#DejaVuSans-6f"/>
     <use x="456.658203" xlink:href="#DejaVuSans-6d"/>
     <use x="554.070312" xlink:href="#DejaVuSans-20"/>
     <use x="585.857422" xlink:href="#DejaVuSans-63"/>
     <use x="640.837891" xlink:href="#DejaVuSans-6d"/>
     <use x="738.25" xlink:href="#DejaVuSans-61"/>
     <use x="799.529297" xlink:href="#DejaVuSans-2e"/>
     <use x="831.316406" xlink:href="#DejaVuSans-65"/>
     <use x="892.839844" xlink:href="#DejaVuSans-76"/>
     <use x="952.019531" xlink:href="#DejaVuSans-6f"/>
     <use x="1013.201172" xlink:href="#DejaVuSans-6c"/>
     <use x="1040.984375" xlink:href="#DejaVuSans-75"/>
     <use x="1104.363281" xlink:href="#DejaVuSans-74"/>
     <use x="1143.572266" xlink:href="#DejaVuSans-69"/>
     <use x="1171.355469" xlink:href="#DejaVuSans-6f"/>
     <use x="1232.537109" xlink:href="#DejaVuSans-6e"/>
     <use x="1295.916016" xlink:href="#DejaVuSans-20"/>
     <use x="1327.703125" xlink:href="#DejaVuSans-73"/>
     <use x="1379.802734" xlink:href="#DejaVuSans-74"/>
     <use x="1419.011719" xlink:href="#DejaVuSans-72"/>
     <use x="1460.125" xlink:href="#DejaVuSans-61"/>
     <use x="1521.404297" xlink:href="#DejaVuSans-74"/>
     <use x="1560.613281" xlink:href="#DejaVuSans-65"/>
     <use x="1622.136719" xlink:href="#DejaVuSans-67"/>
     <use x="1685.613281" xlink:href="#DejaVuSans-79"/>
     <use x="1744.792969" xlink:href="#DejaVuSans-20"/>
     <use x="1776.580078" xlink:href="#DejaVuSans-31"/>
     <use x="1840.203125" xlink:href="#DejaVuSans-30"/>
     <use x="1903.826172" xlink:href="#DejaVuSans-30"/>
     <use x="1967.449219" xlink:href="#DejaVuSans-30"/>
     <use x="2031.072266" xlink:href="#DejaVuSans-44"/>
     <use x="2108.074219" xlink:href="#DejaVuSans-20"/>
     <use x="2139.861328" xlink:href="#DejaVuSans-6f"/>
     <use x="2201.042969" xlink:href="#DejaVuSans-6e"/>
     <use x="2264.421875" xlink:href="#DejaVuSans-20"/>
     <use x="2296.208984" xlink:href="#DejaVuSans-62"/>
     <use x="2359.685547" xlink:href="#DejaVuSans-62"/>
     <use x="2423.162109" xlink:href="#DejaVuSans-6f"/>
     <use x="2484.34375" xlink:href="#DejaVuSans-62"/>
     <use x="2547.820312" xlink:href="#DejaVuSans-2d"/>
     <use x="2583.904297" xlink:href="#DejaVuSans-63"/>
     <use x="2638.884766" xlink:href="#DejaVuSans-6f"/>
     <use x="2700.066406" xlink:href="#DejaVuSans-6e"/>
     <use x="2763.445312" xlink:href="#DejaVuSans-73"/>
     <use x="2815.544922" xlink:href="#DejaVuSans-74"/>
     <use x="2854.753906" xlink:href="#DejaVuSans-72"/>
     <use x="2895.867188" xlink:href="#DejaVuSans-61"/>
     <use x="2957.146484" xlink:href="#DejaVuSans-69"/>
     <use x="2984.929688" xlink:href="#DejaVuSans-6e"/>
     <use x="3048.308594" xlink:href="#DejaVuSans-65"/>
     <use x="3109.832031" xlink:href="#DejaVuSans-64"/>
     <use x="3173.308594" xlink:href="#DejaVuSans-2d"/>
     <use x="3209.392578" xlink:href="#DejaVuSans-30"/>
     <use x="3273.015625" xlink:href="#DejaVuSans-30"/>
     <use x="3336.638672" xlink:href="#DejaVuSans-31"/>
    </g>
   </g>
   <g id="text_14">
    <!-- fmin slsqp from scipy.optimize.slsqp 1000D on bbob-constrained -->
    <defs>
     <path d="M 14.796875 27.296875 
Q 14.796875 17.390625 18.875 11.75 
Q 22.953125 6.109375 30.078125 6.109375 
Q 37.203125 6.109375 41.296875 11.75 
Q 45.40625 17.390625 45.40625 27.296875 
Q 45.40625 37.203125 41.296875 42.84375 
Q 37.203125 48.484375 30.078125 48.484375 
Q 22.953125 48.484375 18.875 42.84375 
Q 14.796875 37.203125 14.796875 27.296875 
z
M 45.40625 8.203125 
Q 42.578125 3.328125 38.25 0.953125 
Q 33.9375 -1.421875 27.875 -1.421875 
Q 17.96875 -1.421875 11.734375 6.484375 
Q 5.515625 14.40625 5.515625 27.296875 
Q 5.515625 40.1875 11.734375 48.09375 
Q 17.96875 56 27.875 56 
Q 33.9375 56 38.25 53.625 
Q 42.578125 51.265625 45.40625 46.390625 
L 45.40625 54.6875 
L 54.390625 54.6875 
L 54.390625 -20.796875 
L 45.40625 -20.796875 
z
" id="DejaVuSans-71"/>
     <path d="M 5.515625 54.6875 
L 48.1875 54.6875 
L 48.1875 46.484375 
L 14.40625 7.171875 
L 48.1875 7.171875 
L 48.1875 0 
L 4.296875 0 
L 4.296875 8.203125 
L 38.09375 47.515625 
L 5.515625 47.515625 
z
" id="DejaVuSans-7a"/>
    </defs>
    <g transform="translate(340.12954 208.188759)scale(0.17 -0.17)">
     <use xlink:href="#DejaVuSans-66"/>
     <use x="35.205078" xlink:href="#DejaVuSans-6d"/>
     <use x="132.617188" xlink:href="#DejaVuSans-69"/>
     <use x="160.400391" xlink:href="#DejaVuSans-6e"/>
     <use x="223.779297" xlink:href="#DejaVuSans-20"/>
     <use x="255.566406" xlink:href="#DejaVuSans-73"/>
     <use x="307.666016" xlink:href="#DejaVuSans-6c"/>
     <use x="335.449219" xlink:href="#DejaVuSans-73"/>
     <use x="387.548828" xlink:href="#DejaVuSans-71"/>
     <use x="451.025391" xlink:href="#DejaVuSans-70"/>
     <use x="514.501953" xlink:href="#DejaVuSans-20"/>
     <use x="546.289062" xlink:href="#DejaVuSans-66"/>
     <use x="581.494141" xlink:href="#DejaVuSans-72"/>
     <use x="622.576172" xlink:href="#DejaVuSans-6f"/>
     <use x="683.757812" xlink:href="#DejaVuSans-6d"/>
     <use x="781.169922" xlink:href="#DejaVuSans-20"/>
     <use x="812.957031" xlink:href="#DejaVuSans-73"/>
     <use x="865.056641" xlink:href="#DejaVuSans-63"/>
     <use x="920.037109" xlink:href="#DejaVuSans-69"/>
     <use x="947.820312" xlink:href="#DejaVuSans-70"/>
     <use x="1011.296875" xlink:href="#DejaVuSans-79"/>
     <use x="1070.257812" xlink:href="#DejaVuSans-2e"/>
     <use x="1102.044922" xlink:href="#DejaVuSans-6f"/>
     <use x="1163.226562" xlink:href="#DejaVuSans-70"/>
     <use x="1226.703125" xlink:href="#DejaVuSans-74"/>
     <use x="1265.912109" xlink:href="#DejaVuSans-69"/>
     <use x="1293.695312" xlink:href="#DejaVuSans-6d"/>
     <use x="1391.107422" xlink:href="#DejaVuSans-69"/>
     <use x="1418.890625" xlink:href="#DejaVuSans-7a"/>
     <use x="1471.380859" xlink:href="#DejaVuSans-65"/>
     <use x="1532.904297" xlink:href="#DejaVuSans-2e"/>
     <use x="1564.691406" xlink:href="#DejaVuSans-73"/>
     <use x="1616.791016" xlink:href="#DejaVuSans-6c"/>
     <use x="1644.574219" xlink:href="#DejaVuSans-73"/>
     <use x="1696.673828" xlink:href="#DejaVuSans-71"/>
     <use x="1760.150391" xlink:href="#DejaVuSans-70"/>
     <use x="1823.626953" xlink:href="#DejaVuSans-20"/>
     <use x="1855.414062" xlink:href="#DejaVuSans-31"/>
     <use x="1919.037109" xlink:href="#DejaVuSans-30"/>
     <use x="1982.660156" xlink:href="#DejaVuSans-30"/>
     <use x="2046.283203" xlink:href="#DejaVuSans-30"/>
     <use x="2109.90625" xlink:href="#DejaVuSans-44"/>
     <use x="2186.908203" xlink:href="#DejaVuSans-20"/>
     <use x="2218.695312" xlink:href="#DejaVuSans-6f"/>
     <use x="2279.876953" xlink:href="#DejaVuSans-6e"/>
     <use x="2343.255859" xlink:href="#DejaVuSans-20"/>
     <use x="2375.042969" xlink:href="#DejaVuSans-62"/>
     <use x="2438.519531" xlink:href="#DejaVuSans-62"/>
     <use x="2501.996094" xlink:href="#DejaVuSans-6f"/>
     <use x="2563.177734" xlink:href="#DejaVuSans-62"/>
     <use x="2626.654297" xlink:href="#DejaVuSans-2d"/>
     <use x="2662.738281" xlink:href="#DejaVuSans-63"/>
     <use x="2717.71875" xlink:href="#DejaVuSans-6f"/>
     <use x="2778.900391" xlink:href="#DejaVuSans-6e"/>
     <use x="2842.279297" xlink:href="#DejaVuSans-73"/>
     <use x="2894.378906" xlink:href="#DejaVuSans-74"/>
     <use x="2933.587891" xlink:href="#DejaVuSans-72"/>
     <use x="2974.701172" xlink:href="#DejaVuSans-61"/>
     <use x="3035.980469" xlink:href="#DejaVuSans-69"/>
     <use x="3063.763672" xlink:href="#DejaVuSans-6e"/>
     <use x="3127.142578" xlink:href="#DejaVuSans-65"/>
     <use x="3188.666016" xlink:href="#DejaVuSans-64"/>
    </g>
   </g>
   <g id="text_15">
    <!-- fmin2 from cma.evolution strategy 1000D on bbob-constrained-005 -->
    <defs>
     <path d="M 10.796875 72.90625 
L 49.515625 72.90625 
L 49.515625 64.59375 
L 19.828125 64.59375 
L 19.828125 46.734375 
Q 21.96875 47.46875 24.109375 47.828125 
Q 26.265625 48.1875 28.421875 48.1875 
Q 40.625 48.1875 47.75 41.5 
Q 54.890625 34.8125 54.890625 23.390625 
Q 54.890625 11.625 47.5625 5.09375 
Q 40.234375 -1.421875 26.90625 -1.421875 
Q 22.3125 -1.421875 17.546875 -0.640625 
Q 12.796875 0.140625 7.71875 1.703125 
L 7.71875 11.625 
Q 12.109375 9.234375 16.796875 8.0625 
Q 21.484375 6.890625 26.703125 6.890625 
Q 35.15625 6.890625 40.078125 11.328125 
Q 45.015625 15.765625 45.015625 23.390625 
Q 45.015625 31 40.078125 35.4375 
Q 35.15625 39.890625 26.703125 39.890625 
Q 22.75 39.890625 18.8125 39.015625 
Q 14.890625 38.140625 10.796875 36.28125 
z
" id="DejaVuSans-35"/>
    </defs>
    <g transform="translate(340.12954 122.85965)scale(0.17 -0.17)">
     <use xlink:href="#DejaVuSans-66"/>
     <use x="35.205078" xlink:href="#DejaVuSans-6d"/>
     <use x="132.617188" xlink:href="#DejaVuSans-69"/>
     <use x="160.400391" xlink:href="#DejaVuSans-6e"/>
     <use x="223.779297" xlink:href="#DejaVuSans-32"/>
     <use x="287.402344" xlink:href="#DejaVuSans-20"/>
     <use x="319.189453" xlink:href="#DejaVuSans-66"/>
     <use x="354.394531" xlink:href="#DejaVuSans-72"/>
     <use x="395.476562" xlink:href="#DejaVuSans-6f"/>
     <use x="456.658203" xlink:href="#DejaVuSans-6d"/>
     <use x="554.070312" xlink:href="#DejaVuSans-20"/>
     <use x="585.857422" xlink:href="#DejaVuSans-63"/>
     <use x="640.837891" xlink:href="#DejaVuSans-6d"/>
     <use x="738.25" xlink:href="#DejaVuSans-61"/>
     <use x="799.529297" xlink:href="#DejaVuSans-2e"/>
     <use x="831.316406" xlink:href="#DejaVuSans-65"/>
     <use x="892.839844" xlink:href="#DejaVuSans-76"/>
     <use x="952.019531" xlink:href="#DejaVuSans-6f"/>
     <use x="1013.201172" xlink:href="#DejaVuSans-6c"/>
     <use x="1040.984375" xlink:href="#DejaVuSans-75"/>
     <use x="1104.363281" xlink:href="#DejaVuSans-74"/>
     <use x="1143.572266" xlink:href="#DejaVuSans-69"/>
     <use x="1171.355469" xlink:href="#DejaVuSans-6f"/>
     <use x="1232.537109" xlink:href="#DejaVuSans-6e"/>
     <use x="1295.916016" xlink:href="#DejaVuSans-20"/>
     <use x="1327.703125" xlink:href="#DejaVuSans-73"/>
     <use x="1379.802734" xlink:href="#DejaVuSans-74"/>
     <use x="1419.011719" xlink:href="#DejaVuSans-72"/>
     <use x="1460.125" xlink:href="#DejaVuSans-61"/>
     <use x="1521.404297" xlink:href="#DejaVuSans-74"/>
     <use x="1560.613281" xlink:href="#DejaVuSans-65"/>
     <use x="1622.136719" xlink:href="#DejaVuSans-67"/>
     <use x="1685.613281" xlink:href="#DejaVuSans-79"/>
     <use x="1744.792969" xlink:href="#DejaVuSans-20"/>
     <use x="1776.580078" xlink:href="#DejaVuSans-31"/>
     <use x="1840.203125" xlink:href="#DejaVuSans-30"/>
     <use x="1903.826172" xlink:href="#DejaVuSans-30"/>
     <use x="1967.449219" xlink:href="#DejaVuSans-30"/>
     <use x="2031.072266" xlink:href="#DejaVuSans-44"/>
     <use x="2108.074219" xlink:href="#DejaVuSans-20"/>
     <use x="2139.861328" xlink:href="#DejaVuSans-6f"/>
     <use x="2201.042969" xlink:href="#DejaVuSans-6e"/>
     <use x="2264.421875" xlink:href="#DejaVuSans-20"/>
     <use x="2296.208984" xlink:href="#DejaVuSans-62"/>
     <use x="2359.685547" xlink:href="#DejaVuSans-62"/>
     <use x="2423.162109" xlink:href="#DejaVuSans-6f"/>
     <use x="2484.34375" xlink:href="#DejaVuSans-62"/>
     <use x="2547.820312" xlink:href="#DejaVuSans-2d"/>
     <use x="2583.904297" xlink:href="#DejaVuSans-63"/>
     <use x="2638.884766" xlink:href="#DejaVuSans-6f"/>
     <use x="2700.066406" xlink:href="#DejaVuSans-6e"/>
     <use x="2763.445312" xlink:href="#DejaVuSans-73"/>
     <use x="2815.544922" xlink:href="#DejaVuSans-74"/>
     <use x="2854.753906" xlink:href="#DejaVuSans-72"/>
     <use x="2895.867188" xlink:href="#DejaVuSans-61"/>
     <use x="2957.146484" xlink:href="#DejaVuSans-69"/>
     <use x="2984.929688" xlink:href="#DejaVuSans-6e"/>
     <use x="3048.308594" xlink:href="#DejaVuSans-65"/>
     <use x="3109.832031" xlink:href="#DejaVuSans-64"/>
     <use x="3173.308594" xlink:href="#DejaVuSans-2d"/>
     <use x="3209.392578" xlink:href="#DejaVuSans-30"/>
     <use x="3273.015625" xlink:href="#DejaVuSans-30"/>
     <use x="3336.638672" xlink:href="#DejaVuSans-35"/>
    </g>
   </g>
   <g id="text_16">
    <!-- fmin cobyla rho-9 catol-9 from scipy.optimize.cobyla 1000D on bbo -->
    <defs>
     <path d="M 54.890625 33.015625 
L 54.890625 0 
L 45.90625 0 
L 45.90625 32.71875 
Q 45.90625 40.484375 42.875 44.328125 
Q 39.84375 48.1875 33.796875 48.1875 
Q 26.515625 48.1875 22.3125 43.546875 
Q 18.109375 38.921875 18.109375 30.90625 
L 18.109375 0 
L 9.078125 0 
L 9.078125 75.984375 
L 18.109375 75.984375 
L 18.109375 46.1875 
Q 21.34375 51.125 25.703125 53.5625 
Q 30.078125 56 35.796875 56 
Q 45.21875 56 50.046875 50.171875 
Q 54.890625 44.34375 54.890625 33.015625 
z
" id="DejaVuSans-68"/>
     <path d="M 10.984375 1.515625 
L 10.984375 10.5 
Q 14.703125 8.734375 18.5 7.8125 
Q 22.3125 6.890625 25.984375 6.890625 
Q 35.75 6.890625 40.890625 13.453125 
Q 46.046875 20.015625 46.78125 33.40625 
Q 43.953125 29.203125 39.59375 26.953125 
Q 35.25 24.703125 29.984375 24.703125 
Q 19.046875 24.703125 12.671875 31.3125 
Q 6.296875 37.9375 6.296875 49.421875 
Q 6.296875 60.640625 12.9375 67.421875 
Q 19.578125 74.21875 30.609375 74.21875 
Q 43.265625 74.21875 49.921875 64.515625 
Q 56.59375 54.828125 56.59375 36.375 
Q 56.59375 19.140625 48.40625 8.859375 
Q 40.234375 -1.421875 26.421875 -1.421875 
Q 22.703125 -1.421875 18.890625 -0.6875 
Q 15.09375 0.046875 10.984375 1.515625 
z
M 30.609375 32.421875 
Q 37.25 32.421875 41.125 36.953125 
Q 45.015625 41.5 45.015625 49.421875 
Q 45.015625 57.28125 41.125 61.84375 
Q 37.25 66.40625 30.609375 66.40625 
Q 23.96875 66.40625 20.09375 61.84375 
Q 16.21875 57.28125 16.21875 49.421875 
Q 16.21875 41.5 20.09375 36.953125 
Q 23.96875 32.421875 30.609375 32.421875 
z
" id="DejaVuSans-39"/>
    </defs>
    <g transform="translate(340.12954 37.530541)scale(0.17 -0.17)">
     <use xlink:href="#DejaVuSans-66"/>
     <use x="35.205078" xlink:href="#DejaVuSans-6d"/>
     <use x="132.617188" xlink:href="#DejaVuSans-69"/>
     <use x="160.400391" xlink:href="#DejaVuSans-6e"/>
     <use x="223.779297" xlink:href="#DejaVuSans-20"/>
     <use x="255.566406" xlink:href="#DejaVuSans-63"/>
     <use x="310.546875" xlink:href="#DejaVuSans-6f"/>
     <use x="371.728516" xlink:href="#DejaVuSans-62"/>
     <use x="435.205078" xlink:href="#DejaVuSans-79"/>
     <use x="494.384766" xlink:href="#DejaVuSans-6c"/>
     <use x="522.167969" xlink:href="#DejaVuSans-61"/>
     <use x="583.447266" xlink:href="#DejaVuSans-20"/>
     <use x="615.234375" xlink:href="#DejaVuSans-72"/>
     <use x="656.332031" xlink:href="#DejaVuSans-68"/>
     <use x="719.710938" xlink:href="#DejaVuSans-6f"/>
     <use x="780.908203" xlink:href="#DejaVuSans-2d"/>
     <use x="816.992188" xlink:href="#DejaVuSans-39"/>
     <use x="880.615234" xlink:href="#DejaVuSans-20"/>
     <use x="912.402344" xlink:href="#DejaVuSans-63"/>
     <use x="967.382812" xlink:href="#DejaVuSans-61"/>
     <use x="1028.662109" xlink:href="#DejaVuSans-74"/>
     <use x="1067.871094" xlink:href="#DejaVuSans-6f"/>
     <use x="1129.052734" xlink:href="#DejaVuSans-6c"/>
     <use x="1156.835938" xlink:href="#DejaVuSans-2d"/>
     <use x="1192.919922" xlink:href="#DejaVuSans-39"/>
     <use x="1256.542969" xlink:href="#DejaVuSans-20"/>
     <use x="1288.330078" xlink:href="#DejaVuSans-66"/>
     <use x="1323.535156" xlink:href="#DejaVuSans-72"/>
     <use x="1364.617188" xlink:href="#DejaVuSans-6f"/>
     <use x="1425.798828" xlink:href="#DejaVuSans-6d"/>
     <use x="1523.210938" xlink:href="#DejaVuSans-20"/>
     <use x="1554.998047" xlink:href="#DejaVuSans-73"/>
     <use x="1607.097656" xlink:href="#DejaVuSans-63"/>
     <use x="1662.078125" xlink:href="#DejaVuSans-69"/>
     <use x="1689.861328" xlink:href="#DejaVuSans-70"/>
     <use x="1753.337891" xlink:href="#DejaVuSans-79"/>
     <use x="1812.298828" xlink:href="#DejaVuSans-2e"/>
     <use x="1844.085938" xlink:href="#DejaVuSans-6f"/>
     <use x="1905.267578" xlink:href="#DejaVuSans-70"/>
     <use x="1968.744141" xlink:href="#DejaVuSans-74"/>
     <use x="2007.953125" xlink:href="#DejaVuSans-69"/>
     <use x="2035.736328" xlink:href="#DejaVuSans-6d"/>
     <use x="2133.148438" xlink:href="#DejaVuSans-69"/>
     <use x="2160.931641" xlink:href="#DejaVuSans-7a"/>
     <use x="2213.421875" xlink:href="#DejaVuSans-65"/>
     <use x="2274.945312" xlink:href="#DejaVuSans-2e"/>
     <use x="2306.732422" xlink:href="#DejaVuSans-63"/>
     <use x="2361.712891" xlink:href="#DejaVuSans-6f"/>
     <use x="2422.894531" xlink:href="#DejaVuSans-62"/>
     <use x="2486.371094" xlink:href="#DejaVuSans-79"/>
     <use x="2545.550781" xlink:href="#DejaVuSans-6c"/>
     <use x="2573.333984" xlink:href="#DejaVuSans-61"/>
     <use x="2634.613281" xlink:href="#DejaVuSans-20"/>
     <use x="2666.400391" xlink:href="#DejaVuSans-31"/>
     <use x="2730.023438" xlink:href="#DejaVuSans-30"/>
     <use x="2793.646484" xlink:href="#DejaVuSans-30"/>
     <use x="2857.269531" xlink:href="#DejaVuSans-30"/>
     <use x="2920.892578" xlink:href="#DejaVuSans-44"/>
     <use x="2997.894531" xlink:href="#DejaVuSans-20"/>
     <use x="3029.681641" xlink:href="#DejaVuSans-6f"/>
     <use x="3090.863281" xlink:href="#DejaVuSans-6e"/>
     <use x="3154.242188" xlink:href="#DejaVuSans-20"/>
     <use x="3186.029297" xlink:href="#DejaVuSans-62"/>
     <use x="3249.505859" xlink:href="#DejaVuSans-62"/>
     <use x="3312.982422" xlink:href="#DejaVuSans-6f"/>
    </g>
   </g>
   <g id="text_17">
    <!-- bbob-constrained f48, 2-D -->
    <g transform="translate(59.16858 35.283606)scale(0.102 -0.102)">
     <use xlink:href="#DejaVuSans-62"/>
     <use x="63.476562" xlink:href="#DejaVuSans-62"/>
     <use x="126.953125" xlink:href="#DejaVuSans-6f"/>
     <use x="188.134766" xlink:href="#DejaVuSans-62"/>
     <use x="251.611328" xlink:href="#DejaVuSans-2d"/>
     <use x="287.695312" xlink:href="#DejaVuSans-63"/>
     <use x="342.675781" xlink:href="#DejaVuSans-6f"/>
     <use x="403.857422" xlink:href="#DejaVuSans-6e"/>
     <use x="467.236328" xlink:href="#DejaVuSans-73"/>
     <use x="519.335938" xlink:href="#DejaVuSans-74"/>
     <use x="558.544922" xlink:href="#DejaVuSans-72"/>
     <use x="599.658203" xlink:href="#DejaVuSans-61"/>
     <use x="660.9375" xlink:href="#DejaVuSans-69"/>
     <use x="688.720703" xlink:href="#DejaVuSans-6e"/>
     <use x="752.099609" xlink:href="#DejaVuSans-65"/>
     <use x="813.623047" xlink:href="#DejaVuSans-64"/>
     <use x="877.099609" xlink:href="#DejaVuSans-20"/>
     <use x="908.886719" xlink:href="#DejaVuSans-66"/>
     <use x="944.091797" xlink:href="#DejaVuSans-34"/>
     <use x="1007.714844" xlink:href="#DejaVuSans-38"/>
     <use x="1071.337891" xlink:href="#DejaVuSans-2c"/>
     <use x="1103.125" xlink:href="#DejaVuSans-20"/>
     <use x="1134.912109" xlink:href="#DejaVuSans-32"/>
     <use x="1198.535156" xlink:href="#DejaVuSans-2d"/>
     <use x="1234.619141" xlink:href="#DejaVuSans-44"/>
    </g>
    <!-- 41 targets: 100..1e-06 -->
    <defs>
     <path d="M 11.71875 12.40625 
L 22.015625 12.40625 
L 22.015625 0 
L 11.71875 0 
z
M 11.71875 51.703125 
L 22.015625 51.703125 
L 22.015625 39.3125 
L 11.71875 39.3125 
z
" id="DejaVuSans-3a"/>
    </defs>
    <g transform="translate(59.16858 46.705375)scale(0.102 -0.102)">
     <use xlink:href="#DejaVuSans-34"/>
     <use x="63.623047" xlink:href="#DejaVuSans-31"/>
     <use x="127.246094" xlink:href="#DejaVuSans-20"/>
     <use x="159.033203" xlink:href="#DejaVuSans-74"/>
     <use x="198.242188" xlink:href="#DejaVuSans-61"/>
     <use x="259.521484" xlink:href="#DejaVuSans-72"/>
     <use x="300.619141" xlink:href="#DejaVuSans-67"/>
     <use x="364.095703" xlink:href="#DejaVuSans-65"/>
     <use x="425.619141" xlink:href="#DejaVuSans-74"/>
     <use x="464.828125" xlink:href="#DejaVuSans-73"/>
     <use x="516.927734" xlink:href="#DejaVuSans-3a"/>
     <use x="550.619141" xlink:href="#DejaVuSans-20"/>
     <use x="582.40625" xlink:href="#DejaVuSans-31"/>
     <use x="646.029297" xlink:href="#DejaVuSans-30"/>
     <use x="709.652344" xlink:href="#DejaVuSans-30"/>
     <use x="773.275391" xlink:href="#DejaVuSans-2e"/>
     <use x="805.0625" xlink:href="#DejaVuSans-2e"/>
     <use x="836.849609" xlink:href="#DejaVuSans-31"/>
     <use x="900.472656" xlink:href="#DejaVuSans-65"/>
     <use x="961.996094" xlink:href="#DejaVuSans-2d"/>
     <use x="998.080078" xlink:href="#DejaVuSans-30"/>
     <use x="1061.703125" xlink:href="#DejaVuSans-36"/>
    </g>
    <!-- 5 instances -->
    <g transform="translate(59.16858 58.127144)scale(0.102 -0.102)">
     <use xlink:href="#DejaVuSans-35"/>
     <use x="63.623047" xlink:href="#DejaVuSans-20"/>
     <use x="95.410156" xlink:href="#DejaVuSans-69"/>
     <use x="123.193359" xlink:href="#DejaVuSans-6e"/>
     <use x="186.572266" xlink:href="#DejaVuSans-73"/>
     <use x="238.671875" xlink:href="#DejaVuSans-74"/>
     <use x="277.880859" xlink:href="#DejaVuSans-61"/>
     <use x="339.160156" xlink:href="#DejaVuSans-6e"/>
     <use x="402.539062" xlink:href="#DejaVuSans-63"/>
     <use x="457.519531" xlink:href="#DejaVuSans-65"/>
     <use x="519.042969" xlink:href="#DejaVuSans-73"/>
    </g>
   </g>
   <g id="text_18">
    <!-- v2.2.1.112 -->
    <g style="fill:#808080;" transform="translate(155.274937 289.387113)scale(0.1 -0.1)">
     <use xlink:href="#DejaVuSans-76"/>
     <use x="59.179688" xlink:href="#DejaVuSans-32"/>
     <use x="122.802734" xlink:href="#DejaVuSans-2e"/>
     <use x="154.589844" xlink:href="#DejaVuSans-32"/>
     <use x="218.212891" xlink:href="#DejaVuSans-2e"/>
     <use x="250" xlink:href="#DejaVuSans-31"/>
     <use x="313.623047" xlink:href="#DejaVuSans-2e"/>
     <use x="345.410156" xlink:href="#DejaVuSans-31"/>
     <use x="409.033203" xlink:href="#DejaVuSans-31"/>
     <use x="472.65625" xlink:href="#DejaVuSans-32"/>
    </g>
   </g>
   <g id="text_19">
    <!-- 48 Separable Rastrigin, 3n+6 constraints -->
    <defs>
     <path d="M 53.515625 70.515625 
L 53.515625 60.890625 
Q 47.90625 63.578125 42.921875 64.890625 
Q 37.9375 66.21875 33.296875 66.21875 
Q 25.25 66.21875 20.875 63.09375 
Q 16.5 59.96875 16.5 54.203125 
Q 16.5 49.359375 19.40625 46.890625 
Q 22.3125 44.4375 30.421875 42.921875 
L 36.375 41.703125 
Q 47.40625 39.59375 52.65625 34.296875 
Q 57.90625 29 57.90625 20.125 
Q 57.90625 9.515625 50.796875 4.046875 
Q 43.703125 -1.421875 29.984375 -1.421875 
Q 24.8125 -1.421875 18.96875 -0.25 
Q 13.140625 0.921875 6.890625 3.21875 
L 6.890625 13.375 
Q 12.890625 10.015625 18.65625 8.296875 
Q 24.421875 6.59375 29.984375 6.59375 
Q 38.421875 6.59375 43.015625 9.90625 
Q 47.609375 13.234375 47.609375 19.390625 
Q 47.609375 24.75 44.3125 27.78125 
Q 41.015625 30.8125 33.5 32.328125 
L 27.484375 33.5 
Q 16.453125 35.6875 11.515625 40.375 
Q 6.59375 45.0625 6.59375 53.421875 
Q 6.59375 63.09375 13.40625 68.65625 
Q 20.21875 74.21875 32.171875 74.21875 
Q 37.3125 74.21875 42.625 73.28125 
Q 47.953125 72.359375 53.515625 70.515625 
z
" id="DejaVuSans-53"/>
     <path d="M 44.390625 34.1875 
Q 47.5625 33.109375 50.5625 29.59375 
Q 53.5625 26.078125 56.59375 19.921875 
L 66.609375 0 
L 56 0 
L 46.6875 18.703125 
Q 43.0625 26.03125 39.671875 28.421875 
Q 36.28125 30.8125 30.421875 30.8125 
L 19.671875 30.8125 
L 19.671875 0 
L 9.8125 0 
L 9.8125 72.90625 
L 32.078125 72.90625 
Q 44.578125 72.90625 50.734375 67.671875 
Q 56.890625 62.453125 56.890625 51.90625 
Q 56.890625 45.015625 53.6875 40.46875 
Q 50.484375 35.9375 44.390625 34.1875 
z
M 19.671875 64.796875 
L 19.671875 38.921875 
L 32.078125 38.921875 
Q 39.203125 38.921875 42.84375 42.21875 
Q 46.484375 45.515625 46.484375 51.90625 
Q 46.484375 58.296875 42.84375 61.546875 
Q 39.203125 64.796875 32.078125 64.796875 
z
" id="DejaVuSans-52"/>
     <path d="M 40.578125 39.3125 
Q 47.65625 37.796875 51.625 33 
Q 55.609375 28.21875 55.609375 21.1875 
Q 55.609375 10.40625 48.1875 4.484375 
Q 40.765625 -1.421875 27.09375 -1.421875 
Q 22.515625 -1.421875 17.65625 -0.515625 
Q 12.796875 0.390625 7.625 2.203125 
L 7.625 11.71875 
Q 11.71875 9.328125 16.59375 8.109375 
Q 21.484375 6.890625 26.8125 6.890625 
Q 36.078125 6.890625 40.9375 10.546875 
Q 45.796875 14.203125 45.796875 21.1875 
Q 45.796875 27.640625 41.28125 31.265625 
Q 36.765625 34.90625 28.71875 34.90625 
L 20.21875 34.90625 
L 20.21875 43.015625 
L 29.109375 43.015625 
Q 36.375 43.015625 40.234375 45.921875 
Q 44.09375 48.828125 44.09375 54.296875 
Q 44.09375 59.90625 40.109375 62.90625 
Q 36.140625 65.921875 28.71875 65.921875 
Q 24.65625 65.921875 20.015625 65.03125 
Q 15.375 64.15625 9.8125 62.3125 
L 9.8125 71.09375 
Q 15.4375 72.65625 20.34375 73.4375 
Q 25.25 74.21875 29.59375 74.21875 
Q 40.828125 74.21875 47.359375 69.109375 
Q 53.90625 64.015625 53.90625 55.328125 
Q 53.90625 49.265625 50.4375 45.09375 
Q 46.96875 40.921875 40.578125 39.3125 
z
" id="DejaVuSans-33"/>
    </defs>
    <g transform="translate(-24.590688 18.84)scale(0.2 -0.2)">
     <use xlink:href="#DejaVuSans-34"/>
     <use x="63.623047" xlink:href="#DejaVuSans-38"/>
     <use x="127.246094" xlink:href="#DejaVuSans-20"/>
     <use x="159.033203" xlink:href="#DejaVuSans-53"/>
     <use x="222.509766" xlink:href="#DejaVuSans-65"/>
     <use x="284.033203" xlink:href="#DejaVuSans-70"/>
     <use x="347.509766" xlink:href="#DejaVuSans-61"/>
     <use x="408.789062" xlink:href="#DejaVuSans-72"/>
     <use x="449.902344" xlink:href="#DejaVuSans-61"/>
     <use x="511.181641" xlink:href="#DejaVuSans-62"/>
     <use x="574.658203" xlink:href="#DejaVuSans-6c"/>
     <use x="602.441406" xlink:href="#DejaVuSans-65"/>
     <use x="663.964844" xlink:href="#DejaVuSans-20"/>
     <use x="695.751953" xlink:href="#DejaVuSans-52"/>
     <use x="765.203125" xlink:href="#DejaVuSans-61"/>
     <use x="826.482422" xlink:href="#DejaVuSans-73"/>
     <use x="878.582031" xlink:href="#DejaVuSans-74"/>
     <use x="917.791016" xlink:href="#DejaVuSans-72"/>
     <use x="958.904297" xlink:href="#DejaVuSans-69"/>
     <use x="986.6875" xlink:href="#DejaVuSans-67"/>
     <use x="1050.164062" xlink:href="#DejaVuSans-69"/>
     <use x="1077.947266" xlink:href="#DejaVuSans-6e"/>
     <use x="1141.326172" xlink:href="#DejaVuSans-2c"/>
     <use x="1173.113281" xlink:href="#DejaVuSans-20"/>
     <use x="1204.900391" xlink:href="#DejaVuSans-33"/>
     <use x="1268.523438" xlink:href="#DejaVuSans-6e"/>
     <use x="1331.902344" xlink:href="#DejaVuSans-2b"/>
     <use x="1415.691406" xlink:href="#DejaVuSans-36"/>
     <use x="1479.314453" xlink:href="#DejaVuSans-20"/>
     <use x="1511.101562" xlink:href="#DejaVuSans-63"/>
     <use x="1566.082031" xlink:href="#DejaVuSans-6f"/>
     <use x="1627.263672" xlink:href="#DejaVuSans-6e"/>
     <use x="1690.642578" xlink:href="#DejaVuSans-73"/>
     <use x="1742.742188" xlink:href="#DejaVuSans-74"/>
     <use x="1781.951172" xlink:href="#DejaVuSans-72"/>
     <use x="1823.064453" xlink:href="#DejaVuSans-61"/>
     <use x="1884.34375" xlink:href="#DejaVuSans-69"/>
     <use x="1912.126953" xlink:href="#DejaVuSans-6e"/>
     <use x="1975.505859" xlink:href="#DejaVuSans-74"/>
     <use x="2014.714844" xlink:href="#DejaVuSans-73"/>
    </g>
   </g>
  </g>
 </g>
 <defs>
  <clipPath id="p45dae3c8ab">
   <rect height="269.32" width="250.858" x="56.66" y="24.84"/>
  </clipPath>
 </defs>
</svg>
