<?xml version="1.0" encoding="utf-8" standalone="no"?>
<!DOCTYPE svg PUBLIC "-//W3C//DTD SVG 1.1//EN"
  "http://www.w3.org/Graphics/SVG/1.1/DTD/svg11.dtd">
<!-- Created with matplotlib (http://matplotlib.org/) -->
<svg height="345pt" version="1.1" viewBox="0 0 460 345" width="460pt" xmlns="http://www.w3.org/2000/svg" xmlns:xlink="http://www.w3.org/1999/xlink">
 <defs>
  <style type="text/css">
*{stroke-linecap:butt;stroke-linejoin:round;}
  </style>
 </defs>
 <g id="figure_1">
  <g id="patch_1">
   <path d="M 0 345.6 
L 460.8 345.6 
L 460.8 0 
L 0 0 
z
" style="fill:#ffffff;"/>
  </g>
  <g id="axes_1">
   <g id="patch_2">
    <path d="M 56.66 294.16 
L 333.168 294.16 
L 333.168 24.84 
L 56.66 24.84 
z
" style="fill:#ffffff;"/>
   </g>
   <g id="matplotlib.axis_1">
    <g id="xtick_1">
     <g id="line2d_1">
      <path clip-path="url(#p55f95679df)" d="M 56.66 294.16 
L 56.66 24.84 
" style="fill:none;stroke:#b0b0b0;stroke-linecap:square;stroke-width:0.8;"/>
     </g>
     <g id="line2d_2">
      <defs>
       <path d="M 0 0 
L 0 3.5 
" id="me0326dc79d" style="stroke:#000000;stroke-width:0.8;"/>
      </defs>
      <g>
       <use style="stroke:#000000;stroke-width:0.8;" x="56.66" xlink:href="#me0326dc79d" y="294.16"/>
      </g>
     </g>
     <g id="text_1">
      <!-- 0 -->
      <defs>
       <path d="M 31.78125 66.40625 
Q 24.171875 66.40625 20.328125 58.90625 
Q 16.5 51.421875 16.5 36.375 
Q 16.5 21.390625 20.328125 13.890625 
Q 24.171875 6.390625 31.78125 6.390625 
Q 39.453125 6.390625 43.28125 13.890625 
Q 47.125 21.390625 47.125 36.375 
Q 47.125 51.421875 43.28125 58.90625 
Q 39.453125 66.40625 31.78125 66.40625 
z
M 31.78125 74.21875 
Q 44.046875 74.21875 50.515625 64.515625 
Q 56.984375 54.828125 56.984375 36.375 
Q 56.984375 17.96875 50.515625 8.265625 
Q 44.046875 -1.421875 31.78125 -1.421875 
Q 19.53125 -1.421875 13.0625 8.265625 
Q 6.59375 17.96875 6.59375 36.375 
Q 6.59375 54.828125 13.0625 64.515625 
Q 19.53125 74.21875 31.78125 74.21875 
z
" id="DejaVuSans-30"/>
      </defs>
      <g transform="translate(50.2975 316.356875)scale(0.2 -0.2)">
       <use xlink:href="#DejaVuSans-30"/>
      </g>
     </g>
    </g>
    <g id="xtick_2">
     <g id="line2d_3">
      <path clip-path="url(#p55f95679df)" d="M 135.662286 294.16 
L 135.662286 24.84 
" style="fill:none;stroke:#b0b0b0;stroke-linecap:square;stroke-width:0.8;"/>
     </g>
     <g id="line2d_4">
      <g>
       <use style="stroke:#000000;stroke-width:0.8;" x="135.662286" xlink:href="#me0326dc79d" y="294.16"/>
      </g>
     </g>
     <g id="text_2">
      <!-- 2 -->
      <defs>
       <path d="M 19.1875 8.296875 
L 53.609375 8.296875 
L 53.609375 0 
L 7.328125 0 
L 7.328125 8.296875 
Q 12.9375 14.109375 22.625 23.890625 
Q 32.328125 33.6875 34.8125 36.53125 
Q 39.546875 41.84375 41.421875 45.53125 
Q 43.3125 49.21875 43.3125 52.78125 
Q 43.3125 58.59375 39.234375 62.25 
Q 35.15625 65.921875 28.609375 65.921875 
Q 23.96875 65.921875 18.8125 64.3125 
Q 13.671875 62.703125 7.8125 59.421875 
L 7.8125 69.390625 
Q 13.765625 71.78125 18.9375 73 
Q 24.125 74.21875 28.421875 74.21875 
Q 39.75 74.21875 46.484375 68.546875 
Q 53.21875 62.890625 53.21875 53.421875 
Q 53.21875 48.921875 51.53125 44.890625 
Q 49.859375 40.875 45.40625 35.40625 
Q 44.1875 33.984375 37.640625 27.21875 
Q 31.109375 20.453125 19.1875 8.296875 
z
" id="DejaVuSans-32"/>
      </defs>
      <g transform="translate(129.299786 316.356875)scale(0.2 -0.2)">
       <use xlink:href="#DejaVuSans-32"/>
      </g>
     </g>
    </g>
    <g id="xtick_3">
     <g id="line2d_5">
      <path clip-path="url(#p55f95679df)" d="M 214.664571 294.16 
L 214.664571 24.84 
" style="fill:none;stroke:#b0b0b0;stroke-linecap:square;stroke-width:0.8;"/>
     </g>
     <g id="line2d_6">
      <g>
       <use style="stroke:#000000;stroke-width:0.8;" x="214.664571" xlink:href="#me0326dc79d" y="294.16"/>
      </g>
     </g>
     <g id="text_3">
      <!-- 4 -->
      <defs>
       <path d="M 37.796875 64.3125 
L 12.890625 25.390625 
L 37.796875 25.390625 
z
M 35.203125 72.90625 
L 47.609375 72.90625 
L 47.609375 25.390625 
L 58.015625 25.390625 
L 58.015625 17.1875 
L 47.609375 17.1875 
L 47.609375 0 
L 37.796875 0 
L 37.796875 17.1875 
L 4.890625 17.1875 
L 4.890625 26.703125 
z
" id="DejaVuSans-34"/>
      </defs>
      <g transform="translate(208.302071 316.356875)scale(0.2 -0.2)">
       <use xlink:href="#DejaVuSans-34"/>
      </g>
     </g>
    </g>
    <g id="xtick_4">
     <g id="line2d_7">
      <path clip-path="url(#p55f95679df)" d="M 293.666857 294.16 
L 293.666857 24.84 
" style="fill:none;stroke:#b0b0b0;stroke-linecap:square;stroke-width:0.8;"/>
     </g>
     <g id="line2d_8">
      <g>
       <use style="stroke:#000000;stroke-width:0.8;" x="293.666857" xlink:href="#me0326dc79d" y="294.16"/>
      </g>
     </g>
     <g id="text_4">
      <!-- 6 -->
      <defs>
       <path d="M 33.015625 40.375 
Q 26.375 40.375 22.484375 35.828125 
Q 18.609375 31.296875 18.609375 23.390625 
Q 18.609375 15.53125 22.484375 10.953125 
Q 26.375 6.390625 33.015625 6.390625 
Q 39.65625 6.390625 43.53125 10.953125 
Q 47.40625 15.53125 47.40625 23.390625 
Q 47.40625 31.296875 43.53125 35.828125 
Q 39.65625 40.375 33.015625 40.375 
z
M 52.59375 71.296875 
L 52.59375 62.3125 
Q 48.875 64.0625 45.09375 64.984375 
Q 41.3125 65.921875 37.59375 65.921875 
Q 27.828125 65.921875 22.671875 59.328125 
Q 17.53125 52.734375 16.796875 39.40625 
Q 19.671875 43.65625 24.015625 45.921875 
Q 28.375 48.1875 33.59375 48.1875 
Q 44.578125 48.1875 50.953125 41.515625 
Q 57.328125 34.859375 57.328125 23.390625 
Q 57.328125 12.15625 50.6875 5.359375 
Q 44.046875 -1.421875 33.015625 -1.421875 
Q 20.359375 -1.421875 13.671875 8.265625 
Q 6.984375 17.96875 6.984375 36.375 
Q 6.984375 53.65625 15.1875 63.9375 
Q 23.390625 74.21875 37.203125 74.21875 
Q 40.921875 74.21875 44.703125 73.484375 
Q 48.484375 72.75 52.59375 71.296875 
z
" id="DejaVuSans-36"/>
      </defs>
      <g transform="translate(287.304357 316.356875)scale(0.2 -0.2)">
       <use xlink:href="#DejaVuSans-36"/>
      </g>
     </g>
    </g>
    <g id="xtick_5">
     <g id="line2d_9">
      <defs>
       <path d="M 0 0 
L 0 2 
" id="m50a92d65d4" style="stroke:#000000;stroke-width:0.6;"/>
      </defs>
      <g>
       <use style="stroke:#000000;stroke-width:0.6;" x="56.66" xlink:href="#m50a92d65d4" y="294.16"/>
      </g>
     </g>
    </g>
    <g id="xtick_6">
     <g id="line2d_10">
      <g>
       <use style="stroke:#000000;stroke-width:0.6;" x="96.161143" xlink:href="#m50a92d65d4" y="294.16"/>
      </g>
     </g>
    </g>
    <g id="xtick_7">
     <g id="line2d_11">
      <g>
       <use style="stroke:#000000;stroke-width:0.6;" x="135.662286" xlink:href="#m50a92d65d4" y="294.16"/>
      </g>
     </g>
    </g>
    <g id="xtick_8">
     <g id="line2d_12">
      <g>
       <use style="stroke:#000000;stroke-width:0.6;" x="175.163429" xlink:href="#m50a92d65d4" y="294.16"/>
      </g>
     </g>
    </g>
    <g id="xtick_9">
     <g id="line2d_13">
      <g>
       <use style="stroke:#000000;stroke-width:0.6;" x="214.664571" xlink:href="#m50a92d65d4" y="294.16"/>
      </g>
     </g>
    </g>
    <g id="xtick_10">
     <g id="line2d_14">
      <g>
       <use style="stroke:#000000;stroke-width:0.6;" x="254.165714" xlink:href="#m50a92d65d4" y="294.16"/>
      </g>
     </g>
    </g>
    <g id="xtick_11">
     <g id="line2d_15">
      <g>
       <use style="stroke:#000000;stroke-width:0.6;" x="293.666857" xlink:href="#m50a92d65d4" y="294.16"/>
      </g>
     </g>
    </g>
    <g id="xtick_12">
     <g id="line2d_16">
      <g>
       <use style="stroke:#000000;stroke-width:0.6;" x="333.168" xlink:href="#m50a92d65d4" y="294.16"/>
      </g>
     </g>
    </g>
    <g id="text_5">
     <!-- log10(# (f+g)-evals / dimension) -->
     <defs>
      <path d="M 9.421875 75.984375 
L 18.40625 75.984375 
L 18.40625 0 
L 9.421875 0 
z
" id="DejaVuSans-6c"/>
      <path d="M 30.609375 48.390625 
Q 23.390625 48.390625 19.1875 42.75 
Q 14.984375 37.109375 14.984375 27.296875 
Q 14.984375 17.484375 19.15625 11.84375 
Q 23.34375 6.203125 30.609375 6.203125 
Q 37.796875 6.203125 41.984375 11.859375 
Q 46.1875 17.53125 46.1875 27.296875 
Q 46.1875 37.015625 41.984375 42.703125 
Q 37.796875 48.390625 30.609375 48.390625 
z
M 30.609375 56 
Q 42.328125 56 49.015625 48.375 
Q 55.71875 40.765625 55.71875 27.296875 
Q 55.71875 13.875 49.015625 6.21875 
Q 42.328125 -1.421875 30.609375 -1.421875 
Q 18.84375 -1.421875 12.171875 6.21875 
Q 5.515625 13.875 5.515625 27.296875 
Q 5.515625 40.765625 12.171875 48.375 
Q 18.84375 56 30.609375 56 
z
" id="DejaVuSans-6f"/>
      <path d="M 45.40625 27.984375 
Q 45.40625 37.75 41.375 43.109375 
Q 37.359375 48.484375 30.078125 48.484375 
Q 22.859375 48.484375 18.828125 43.109375 
Q 14.796875 37.75 14.796875 27.984375 
Q 14.796875 18.265625 18.828125 12.890625 
Q 22.859375 7.515625 30.078125 7.515625 
Q 37.359375 7.515625 41.375 12.890625 
Q 45.40625 18.265625 45.40625 27.984375 
z
M 54.390625 6.78125 
Q 54.390625 -7.171875 48.1875 -13.984375 
Q 42 -20.796875 29.203125 -20.796875 
Q 24.46875 -20.796875 20.265625 -20.09375 
Q 16.0625 -19.390625 12.109375 -17.921875 
L 12.109375 -9.1875 
Q 16.0625 -11.328125 19.921875 -12.34375 
Q 23.78125 -13.375 27.78125 -13.375 
Q 36.625 -13.375 41.015625 -8.765625 
Q 45.40625 -4.15625 45.40625 5.171875 
L 45.40625 9.625 
Q 42.625 4.78125 38.28125 2.390625 
Q 33.9375 0 27.875 0 
Q 17.828125 0 11.671875 7.65625 
Q 5.515625 15.328125 5.515625 27.984375 
Q 5.515625 40.671875 11.671875 48.328125 
Q 17.828125 56 27.875 56 
Q 33.9375 56 38.28125 53.609375 
Q 42.625 51.21875 45.40625 46.390625 
L 45.40625 54.6875 
L 54.390625 54.6875 
z
" id="DejaVuSans-67"/>
      <path d="M 12.40625 8.296875 
L 28.515625 8.296875 
L 28.515625 63.921875 
L 10.984375 60.40625 
L 10.984375 69.390625 
L 28.421875 72.90625 
L 38.28125 72.90625 
L 38.28125 8.296875 
L 54.390625 8.296875 
L 54.390625 0 
L 12.40625 0 
z
" id="DejaVuSans-31"/>
      <path d="M 31 75.875 
Q 24.46875 64.65625 21.28125 53.65625 
Q 18.109375 42.671875 18.109375 31.390625 
Q 18.109375 20.125 21.3125 9.0625 
Q 24.515625 -2 31 -13.1875 
L 23.1875 -13.1875 
Q 15.875 -1.703125 12.234375 9.375 
Q 8.59375 20.453125 8.59375 31.390625 
Q 8.59375 42.28125 12.203125 53.3125 
Q 15.828125 64.359375 23.1875 75.875 
z
" id="DejaVuSans-28"/>
      <path d="M 51.125 44 
L 36.921875 44 
L 32.8125 27.6875 
L 47.125 27.6875 
z
M 43.796875 71.78125 
L 38.71875 51.515625 
L 52.984375 51.515625 
L 58.109375 71.78125 
L 65.921875 71.78125 
L 60.890625 51.515625 
L 76.125 51.515625 
L 76.125 44 
L 58.984375 44 
L 54.984375 27.6875 
L 70.515625 27.6875 
L 70.515625 20.21875 
L 53.078125 20.21875 
L 48 0 
L 40.1875 0 
L 45.21875 20.21875 
L 30.90625 20.21875 
L 25.875 0 
L 18.015625 0 
L 23.09375 20.21875 
L 7.71875 20.21875 
L 7.71875 27.6875 
L 24.90625 27.6875 
L 29 44 
L 13.28125 44 
L 13.28125 51.515625 
L 30.90625 51.515625 
L 35.890625 71.78125 
z
" id="DejaVuSans-23"/>
      <path id="DejaVuSans-20"/>
      <path d="M 37.109375 75.984375 
L 37.109375 68.5 
L 28.515625 68.5 
Q 23.6875 68.5 21.796875 66.546875 
Q 19.921875 64.59375 19.921875 59.515625 
L 19.921875 54.6875 
L 34.71875 54.6875 
L 34.71875 47.703125 
L 19.921875 47.703125 
L 19.921875 0 
L 10.890625 0 
L 10.890625 47.703125 
L 2.296875 47.703125 
L 2.296875 54.6875 
L 10.890625 54.6875 
L 10.890625 58.5 
Q 10.890625 67.625 15.140625 71.796875 
Q 19.390625 75.984375 28.609375 75.984375 
z
" id="DejaVuSans-66"/>
      <path d="M 46 62.703125 
L 46 35.5 
L 73.1875 35.5 
L 73.1875 27.203125 
L 46 27.203125 
L 46 0 
L 37.796875 0 
L 37.796875 27.203125 
L 10.59375 27.203125 
L 10.59375 35.5 
L 37.796875 35.5 
L 37.796875 62.703125 
z
" id="DejaVuSans-2b"/>
      <path d="M 8.015625 75.875 
L 15.828125 75.875 
Q 23.140625 64.359375 26.78125 53.3125 
Q 30.421875 42.28125 30.421875 31.390625 
Q 30.421875 20.453125 26.78125 9.375 
Q 23.140625 -1.703125 15.828125 -13.1875 
L 8.015625 -13.1875 
Q 14.5 -2 17.703125 9.0625 
Q 20.90625 20.125 20.90625 31.390625 
Q 20.90625 42.671875 17.703125 53.65625 
Q 14.5 64.65625 8.015625 75.875 
z
" id="DejaVuSans-29"/>
      <path d="M 4.890625 31.390625 
L 31.203125 31.390625 
L 31.203125 23.390625 
L 4.890625 23.390625 
z
" id="DejaVuSans-2d"/>
      <path d="M 56.203125 29.59375 
L 56.203125 25.203125 
L 14.890625 25.203125 
Q 15.484375 15.921875 20.484375 11.0625 
Q 25.484375 6.203125 34.421875 6.203125 
Q 39.59375 6.203125 44.453125 7.46875 
Q 49.3125 8.734375 54.109375 11.28125 
L 54.109375 2.78125 
Q 49.265625 0.734375 44.1875 -0.34375 
Q 39.109375 -1.421875 33.890625 -1.421875 
Q 20.796875 -1.421875 13.15625 6.1875 
Q 5.515625 13.8125 5.515625 26.8125 
Q 5.515625 40.234375 12.765625 48.109375 
Q 20.015625 56 32.328125 56 
Q 43.359375 56 49.78125 48.890625 
Q 56.203125 41.796875 56.203125 29.59375 
z
M 47.21875 32.234375 
Q 47.125 39.59375 43.09375 43.984375 
Q 39.0625 48.390625 32.421875 48.390625 
Q 24.90625 48.390625 20.390625 44.140625 
Q 15.875 39.890625 15.1875 32.171875 
z
" id="DejaVuSans-65"/>
      <path d="M 2.984375 54.6875 
L 12.5 54.6875 
L 29.59375 8.796875 
L 46.6875 54.6875 
L 56.203125 54.6875 
L 35.6875 0 
L 23.484375 0 
z
" id="DejaVuSans-76"/>
      <path d="M 34.28125 27.484375 
Q 23.390625 27.484375 19.1875 25 
Q 14.984375 22.515625 14.984375 16.5 
Q 14.984375 11.71875 18.140625 8.90625 
Q 21.296875 6.109375 26.703125 6.109375 
Q 34.1875 6.109375 38.703125 11.40625 
Q 43.21875 16.703125 43.21875 25.484375 
L 43.21875 27.484375 
z
M 52.203125 31.203125 
L 52.203125 0 
L 43.21875 0 
L 43.21875 8.296875 
Q 40.140625 3.328125 35.546875 0.953125 
Q 30.953125 -1.421875 24.3125 -1.421875 
Q 15.921875 -1.421875 10.953125 3.296875 
Q 6 8.015625 6 15.921875 
Q 6 25.140625 12.171875 29.828125 
Q 18.359375 34.515625 30.609375 34.515625 
L 43.21875 34.515625 
L 43.21875 35.40625 
Q 43.21875 41.609375 39.140625 45 
Q 35.0625 48.390625 27.6875 48.390625 
Q 23 48.390625 18.546875 47.265625 
Q 14.109375 46.140625 10.015625 43.890625 
L 10.015625 52.203125 
Q 14.9375 54.109375 19.578125 55.046875 
Q 24.21875 56 28.609375 56 
Q 40.484375 56 46.34375 49.84375 
Q 52.203125 43.703125 52.203125 31.203125 
z
" id="DejaVuSans-61"/>
      <path d="M 44.28125 53.078125 
L 44.28125 44.578125 
Q 40.484375 46.53125 36.375 47.5 
Q 32.28125 48.484375 27.875 48.484375 
Q 21.1875 48.484375 17.84375 46.4375 
Q 14.5 44.390625 14.5 40.28125 
Q 14.5 37.15625 16.890625 35.375 
Q 19.28125 33.59375 26.515625 31.984375 
L 29.59375 31.296875 
Q 39.15625 29.25 43.1875 25.515625 
Q 47.21875 21.78125 47.21875 15.09375 
Q 47.21875 7.46875 41.1875 3.015625 
Q 35.15625 -1.421875 24.609375 -1.421875 
Q 20.21875 -1.421875 15.453125 -0.5625 
Q 10.6875 0.296875 5.421875 2 
L 5.421875 11.28125 
Q 10.40625 8.6875 15.234375 7.390625 
Q 20.0625 6.109375 24.8125 6.109375 
Q 31.15625 6.109375 34.5625 8.28125 
Q 37.984375 10.453125 37.984375 14.40625 
Q 37.984375 18.0625 35.515625 20.015625 
Q 33.0625 21.96875 24.703125 23.78125 
L 21.578125 24.515625 
Q 13.234375 26.265625 9.515625 29.90625 
Q 5.8125 33.546875 5.8125 39.890625 
Q 5.8125 47.609375 11.28125 51.796875 
Q 16.75 56 26.8125 56 
Q 31.78125 56 36.171875 55.265625 
Q 40.578125 54.546875 44.28125 53.078125 
z
" id="DejaVuSans-73"/>
      <path d="M 25.390625 72.90625 
L 33.6875 72.90625 
L 8.296875 -9.28125 
L 0 -9.28125 
z
" id="DejaVuSans-2f"/>
      <path d="M 45.40625 46.390625 
L 45.40625 75.984375 
L 54.390625 75.984375 
L 54.390625 0 
L 45.40625 0 
L 45.40625 8.203125 
Q 42.578125 3.328125 38.25 0.953125 
Q 33.9375 -1.421875 27.875 -1.421875 
Q 17.96875 -1.421875 11.734375 6.484375 
Q 5.515625 14.40625 5.515625 27.296875 
Q 5.515625 40.1875 11.734375 48.09375 
Q 17.96875 56 27.875 56 
Q 33.9375 56 38.25 53.625 
Q 42.578125 51.265625 45.40625 46.390625 
z
M 14.796875 27.296875 
Q 14.796875 17.390625 18.875 11.75 
Q 22.953125 6.109375 30.078125 6.109375 
Q 37.203125 6.109375 41.296875 11.75 
Q 45.40625 17.390625 45.40625 27.296875 
Q 45.40625 37.203125 41.296875 42.84375 
Q 37.203125 48.484375 30.078125 48.484375 
Q 22.953125 48.484375 18.875 42.84375 
Q 14.796875 37.203125 14.796875 27.296875 
z
" id="DejaVuSans-64"/>
      <path d="M 9.421875 54.6875 
L 18.40625 54.6875 
L 18.40625 0 
L 9.421875 0 
z
M 9.421875 75.984375 
L 18.40625 75.984375 
L 18.40625 64.59375 
L 9.421875 64.59375 
z
" id="DejaVuSans-69"/>
      <path d="M 52 44.1875 
Q 55.375 50.25 60.0625 53.125 
Q 64.75 56 71.09375 56 
Q 79.640625 56 84.28125 50.015625 
Q 88.921875 44.046875 88.921875 33.015625 
L 88.921875 0 
L 79.890625 0 
L 79.890625 32.71875 
Q 79.890625 40.578125 77.09375 44.375 
Q 74.3125 48.1875 68.609375 48.1875 
Q 61.625 48.1875 57.5625 43.546875 
Q 53.515625 38.921875 53.515625 30.90625 
L 53.515625 0 
L 44.484375 0 
L 44.484375 32.71875 
Q 44.484375 40.625 41.703125 44.40625 
Q 38.921875 48.1875 33.109375 48.1875 
Q 26.21875 48.1875 22.15625 43.53125 
Q 18.109375 38.875 18.109375 30.90625 
L 18.109375 0 
L 9.078125 0 
L 9.078125 54.6875 
L 18.109375 54.6875 
L 18.109375 46.1875 
Q 21.1875 51.21875 25.484375 53.609375 
Q 29.78125 56 35.6875 56 
Q 41.65625 56 45.828125 52.96875 
Q 50 49.953125 52 44.1875 
z
" id="DejaVuSans-6d"/>
      <path d="M 54.890625 33.015625 
L 54.890625 0 
L 45.90625 0 
L 45.90625 32.71875 
Q 45.90625 40.484375 42.875 44.328125 
Q 39.84375 48.1875 33.796875 48.1875 
Q 26.515625 48.1875 22.3125 43.546875 
Q 18.109375 38.921875 18.109375 30.90625 
L 18.109375 0 
L 9.078125 0 
L 9.078125 54.6875 
L 18.109375 54.6875 
L 18.109375 46.1875 
Q 21.34375 51.125 25.703125 53.5625 
Q 30.078125 56 35.796875 56 
Q 45.21875 56 50.046875 50.171875 
Q 54.890625 44.34375 54.890625 33.015625 
z
" id="DejaVuSans-6e"/>
     </defs>
     <g transform="translate(54.915016 337.433594)scale(0.17 -0.17)">
      <use xlink:href="#DejaVuSans-6c"/>
      <use x="27.783203" xlink:href="#DejaVuSans-6f"/>
      <use x="88.964844" xlink:href="#DejaVuSans-67"/>
      <use x="152.441406" xlink:href="#DejaVuSans-31"/>
      <use x="216.064453" xlink:href="#DejaVuSans-30"/>
      <use x="279.6875" xlink:href="#DejaVuSans-28"/>
      <use x="318.701172" xlink:href="#DejaVuSans-23"/>
      <use x="402.490234" xlink:href="#DejaVuSans-20"/>
      <use x="434.277344" xlink:href="#DejaVuSans-28"/>
      <use x="473.291016" xlink:href="#DejaVuSans-66"/>
      <use x="508.496094" xlink:href="#DejaVuSans-2b"/>
      <use x="592.285156" xlink:href="#DejaVuSans-67"/>
      <use x="655.761719" xlink:href="#DejaVuSans-29"/>
      <use x="694.775391" xlink:href="#DejaVuSans-2d"/>
      <use x="730.859375" xlink:href="#DejaVuSans-65"/>
      <use x="792.382812" xlink:href="#DejaVuSans-76"/>
      <use x="851.5625" xlink:href="#DejaVuSans-61"/>
      <use x="912.841797" xlink:href="#DejaVuSans-6c"/>
      <use x="940.625" xlink:href="#DejaVuSans-73"/>
      <use x="992.724609" xlink:href="#DejaVuSans-20"/>
      <use x="1024.511719" xlink:href="#DejaVuSans-2f"/>
      <use x="1058.203125" xlink:href="#DejaVuSans-20"/>
      <use x="1089.990234" xlink:href="#DejaVuSans-64"/>
      <use x="1153.466797" xlink:href="#DejaVuSans-69"/>
      <use x="1181.25" xlink:href="#DejaVuSans-6d"/>
      <use x="1278.662109" xlink:href="#DejaVuSans-65"/>
      <use x="1340.185547" xlink:href="#DejaVuSans-6e"/>
      <use x="1403.564453" xlink:href="#DejaVuSans-73"/>
      <use x="1455.664062" xlink:href="#DejaVuSans-69"/>
      <use x="1483.447266" xlink:href="#DejaVuSans-6f"/>
      <use x="1544.628906" xlink:href="#DejaVuSans-6e"/>
      <use x="1608.007812" xlink:href="#DejaVuSans-29"/>
     </g>
    </g>
   </g>
   <g id="matplotlib.axis_2">
    <g id="ytick_1">
     <g id="line2d_17">
      <path clip-path="url(#p55f95679df)" d="M 56.66 294.16 
L 333.168 294.16 
" style="fill:none;stroke:#b0b0b0;stroke-linecap:square;stroke-width:0.8;"/>
     </g>
     <g id="line2d_18">
      <defs>
       <path d="M 0 0 
L -3.5 0 
" id="m2f7482aa9a" style="stroke:#000000;stroke-width:0.8;"/>
      </defs>
      <g>
       <use style="stroke:#000000;stroke-width:0.8;" x="56.66" xlink:href="#m2f7482aa9a" y="294.16"/>
      </g>
     </g>
     <g id="text_6">
      <!-- 0.0 -->
      <defs>
       <path d="M 10.6875 12.40625 
L 21 12.40625 
L 21 0 
L 10.6875 0 
z
" id="DejaVuSans-2e"/>
      </defs>
      <g transform="translate(24.215 300.23875)scale(0.16 -0.16)">
       <use xlink:href="#DejaVuSans-30"/>
       <use x="63.623047" xlink:href="#DejaVuSans-2e"/>
       <use x="95.410156" xlink:href="#DejaVuSans-30"/>
      </g>
     </g>
    </g>
    <g id="ytick_2">
     <g id="line2d_19">
      <path clip-path="url(#p55f95679df)" d="M 56.66 240.829307 
L 333.168 240.829307 
" style="fill:none;stroke:#b0b0b0;stroke-linecap:square;stroke-width:0.8;"/>
     </g>
     <g id="line2d_20">
      <g>
       <use style="stroke:#000000;stroke-width:0.8;" x="56.66" xlink:href="#m2f7482aa9a" y="240.829307"/>
      </g>
     </g>
     <g id="text_7">
      <!-- 0.2 -->
      <g transform="translate(24.215 246.908057)scale(0.16 -0.16)">
       <use xlink:href="#DejaVuSans-30"/>
       <use x="63.623047" xlink:href="#DejaVuSans-2e"/>
       <use x="95.410156" xlink:href="#DejaVuSans-32"/>
      </g>
     </g>
    </g>
    <g id="ytick_3">
     <g id="line2d_21">
      <path clip-path="url(#p55f95679df)" d="M 56.66 187.498614 
L 333.168 187.498614 
" style="fill:none;stroke:#b0b0b0;stroke-linecap:square;stroke-width:0.8;"/>
     </g>
     <g id="line2d_22">
      <g>
       <use style="stroke:#000000;stroke-width:0.8;" x="56.66" xlink:href="#m2f7482aa9a" y="187.498614"/>
      </g>
     </g>
     <g id="text_8">
      <!-- 0.4 -->
      <g transform="translate(24.215 193.577364)scale(0.16 -0.16)">
       <use xlink:href="#DejaVuSans-30"/>
       <use x="63.623047" xlink:href="#DejaVuSans-2e"/>
       <use x="95.410156" xlink:href="#DejaVuSans-34"/>
      </g>
     </g>
    </g>
    <g id="ytick_4">
     <g id="line2d_23">
      <path clip-path="url(#p55f95679df)" d="M 56.66 134.167921 
L 333.168 134.167921 
" style="fill:none;stroke:#b0b0b0;stroke-linecap:square;stroke-width:0.8;"/>
     </g>
     <g id="line2d_24">
      <g>
       <use style="stroke:#000000;stroke-width:0.8;" x="56.66" xlink:href="#m2f7482aa9a" y="134.167921"/>
      </g>
     </g>
     <g id="text_9">
      <!-- 0.6 -->
      <g transform="translate(24.215 140.246671)scale(0.16 -0.16)">
       <use xlink:href="#DejaVuSans-30"/>
       <use x="63.623047" xlink:href="#DejaVuSans-2e"/>
       <use x="95.410156" xlink:href="#DejaVuSans-36"/>
      </g>
     </g>
    </g>
    <g id="ytick_5">
     <g id="line2d_25">
      <path clip-path="url(#p55f95679df)" d="M 56.66 80.837228 
L 333.168 80.837228 
" style="fill:none;stroke:#b0b0b0;stroke-linecap:square;stroke-width:0.8;"/>
     </g>
     <g id="line2d_26">
      <g>
       <use style="stroke:#000000;stroke-width:0.8;" x="56.66" xlink:href="#m2f7482aa9a" y="80.837228"/>
      </g>
     </g>
     <g id="text_10">
      <!-- 0.8 -->
      <defs>
       <path d="M 31.78125 34.625 
Q 24.75 34.625 20.71875 30.859375 
Q 16.703125 27.09375 16.703125 20.515625 
Q 16.703125 13.921875 20.71875 10.15625 
Q 24.75 6.390625 31.78125 6.390625 
Q 38.8125 6.390625 42.859375 10.171875 
Q 46.921875 13.96875 46.921875 20.515625 
Q 46.921875 27.09375 42.890625 30.859375 
Q 38.875 34.625 31.78125 34.625 
z
M 21.921875 38.8125 
Q 15.578125 40.375 12.03125 44.71875 
Q 8.5 49.078125 8.5 55.328125 
Q 8.5 64.0625 14.71875 69.140625 
Q 20.953125 74.21875 31.78125 74.21875 
Q 42.671875 74.21875 48.875 69.140625 
Q 55.078125 64.0625 55.078125 55.328125 
Q 55.078125 49.078125 51.53125 44.71875 
Q 48 40.375 41.703125 38.8125 
Q 48.828125 37.15625 52.796875 32.3125 
Q 56.78125 27.484375 56.78125 20.515625 
Q 56.78125 9.90625 50.3125 4.234375 
Q 43.84375 -1.421875 31.78125 -1.421875 
Q 19.734375 -1.421875 13.25 4.234375 
Q 6.78125 9.90625 6.78125 20.515625 
Q 6.78125 27.484375 10.78125 32.3125 
Q 14.796875 37.15625 21.921875 38.8125 
z
M 18.3125 54.390625 
Q 18.3125 48.734375 21.84375 45.5625 
Q 25.390625 42.390625 31.78125 42.390625 
Q 38.140625 42.390625 41.71875 45.5625 
Q 45.3125 48.734375 45.3125 54.390625 
Q 45.3125 60.0625 41.71875 63.234375 
Q 38.140625 66.40625 31.78125 66.40625 
Q 25.390625 66.40625 21.84375 63.234375 
Q 18.3125 60.0625 18.3125 54.390625 
z
" id="DejaVuSans-38"/>
      </defs>
      <g transform="translate(24.215 86.915978)scale(0.16 -0.16)">
       <use xlink:href="#DejaVuSans-30"/>
       <use x="63.623047" xlink:href="#DejaVuSans-2e"/>
       <use x="95.410156" xlink:href="#DejaVuSans-38"/>
      </g>
     </g>
    </g>
    <g id="ytick_6">
     <g id="line2d_27">
      <path clip-path="url(#p55f95679df)" d="M 56.66 27.506535 
L 333.168 27.506535 
" style="fill:none;stroke:#b0b0b0;stroke-linecap:square;stroke-width:0.8;"/>
     </g>
     <g id="line2d_28">
      <g>
       <use style="stroke:#000000;stroke-width:0.8;" x="56.66" xlink:href="#m2f7482aa9a" y="27.506535"/>
      </g>
     </g>
     <g id="text_11">
      <!-- 1.0 -->
      <g transform="translate(24.215 33.585285)scale(0.16 -0.16)">
       <use xlink:href="#DejaVuSans-31"/>
       <use x="63.623047" xlink:href="#DejaVuSans-2e"/>
       <use x="95.410156" xlink:href="#DejaVuSans-30"/>
      </g>
     </g>
    </g>
    <g id="text_12">
     <!-- Fraction of function,target pairs -->
     <defs>
      <path d="M 9.8125 72.90625 
L 51.703125 72.90625 
L 51.703125 64.59375 
L 19.671875 64.59375 
L 19.671875 43.109375 
L 48.578125 43.109375 
L 48.578125 34.8125 
L 19.671875 34.8125 
L 19.671875 0 
L 9.8125 0 
z
" id="DejaVuSans-46"/>
      <path d="M 41.109375 46.296875 
Q 39.59375 47.171875 37.8125 47.578125 
Q 36.03125 48 33.890625 48 
Q 26.265625 48 22.1875 43.046875 
Q 18.109375 38.09375 18.109375 28.8125 
L 18.109375 0 
L 9.078125 0 
L 9.078125 54.6875 
L 18.109375 54.6875 
L 18.109375 46.1875 
Q 20.953125 51.171875 25.484375 53.578125 
Q 30.03125 56 36.53125 56 
Q 37.453125 56 38.578125 55.875 
Q 39.703125 55.765625 41.0625 55.515625 
z
" id="DejaVuSans-72"/>
      <path d="M 48.78125 52.59375 
L 48.78125 44.1875 
Q 44.96875 46.296875 41.140625 47.34375 
Q 37.3125 48.390625 33.40625 48.390625 
Q 24.65625 48.390625 19.8125 42.84375 
Q 14.984375 37.3125 14.984375 27.296875 
Q 14.984375 17.28125 19.8125 11.734375 
Q 24.65625 6.203125 33.40625 6.203125 
Q 37.3125 6.203125 41.140625 7.25 
Q 44.96875 8.296875 48.78125 10.40625 
L 48.78125 2.09375 
Q 45.015625 0.34375 40.984375 -0.53125 
Q 36.96875 -1.421875 32.421875 -1.421875 
Q 20.0625 -1.421875 12.78125 6.34375 
Q 5.515625 14.109375 5.515625 27.296875 
Q 5.515625 40.671875 12.859375 48.328125 
Q 20.21875 56 33.015625 56 
Q 37.15625 56 41.109375 55.140625 
Q 45.0625 54.296875 48.78125 52.59375 
z
" id="DejaVuSans-63"/>
      <path d="M 18.3125 70.21875 
L 18.3125 54.6875 
L 36.8125 54.6875 
L 36.8125 47.703125 
L 18.3125 47.703125 
L 18.3125 18.015625 
Q 18.3125 11.328125 20.140625 9.421875 
Q 21.96875 7.515625 27.59375 7.515625 
L 36.8125 7.515625 
L 36.8125 0 
L 27.59375 0 
Q 17.1875 0 13.234375 3.875 
Q 9.28125 7.765625 9.28125 18.015625 
L 9.28125 47.703125 
L 2.6875 47.703125 
L 2.6875 54.6875 
L 9.28125 54.6875 
L 9.28125 70.21875 
z
" id="DejaVuSans-74"/>
      <path d="M 8.5 21.578125 
L 8.5 54.6875 
L 17.484375 54.6875 
L 17.484375 21.921875 
Q 17.484375 14.15625 20.5 10.265625 
Q 23.53125 6.390625 29.59375 6.390625 
Q 36.859375 6.390625 41.078125 11.03125 
Q 45.3125 15.671875 45.3125 23.6875 
L 45.3125 54.6875 
L 54.296875 54.6875 
L 54.296875 0 
L 45.3125 0 
L 45.3125 8.40625 
Q 42.046875 3.421875 37.71875 1 
Q 33.40625 -1.421875 27.6875 -1.421875 
Q 18.265625 -1.421875 13.375 4.4375 
Q 8.5 10.296875 8.5 21.578125 
z
M 31.109375 56 
z
" id="DejaVuSans-75"/>
      <path d="M 11.71875 12.40625 
L 22.015625 12.40625 
L 22.015625 4 
L 14.015625 -11.625 
L 7.71875 -11.625 
L 11.71875 4 
z
" id="DejaVuSans-2c"/>
      <path d="M 18.109375 8.203125 
L 18.109375 -20.796875 
L 9.078125 -20.796875 
L 9.078125 54.6875 
L 18.109375 54.6875 
L 18.109375 46.390625 
Q 20.953125 51.265625 25.265625 53.625 
Q 29.59375 56 35.59375 56 
Q 45.5625 56 51.78125 48.09375 
Q 58.015625 40.1875 58.015625 27.296875 
Q 58.015625 14.40625 51.78125 6.484375 
Q 45.5625 -1.421875 35.59375 -1.421875 
Q 29.59375 -1.421875 25.265625 0.953125 
Q 20.953125 3.328125 18.109375 8.203125 
z
M 48.6875 27.296875 
Q 48.6875 37.203125 44.609375 42.84375 
Q 40.53125 48.484375 33.40625 48.484375 
Q 26.265625 48.484375 22.1875 42.84375 
Q 18.109375 37.203125 18.109375 27.296875 
Q 18.109375 17.390625 22.1875 11.75 
Q 26.265625 6.109375 33.40625 6.109375 
Q 40.53125 6.109375 44.609375 11.75 
Q 48.6875 17.390625 48.6875 27.296875 
z
" id="DejaVuSans-70"/>
     </defs>
     <g transform="translate(16.679531 294.639375)rotate(-90)scale(0.17 -0.17)">
      <use xlink:href="#DejaVuSans-46"/>
      <use x="57.410156" xlink:href="#DejaVuSans-72"/>
      <use x="98.523438" xlink:href="#DejaVuSans-61"/>
      <use x="159.802734" xlink:href="#DejaVuSans-63"/>
      <use x="214.783203" xlink:href="#DejaVuSans-74"/>
      <use x="253.992188" xlink:href="#DejaVuSans-69"/>
      <use x="281.775391" xlink:href="#DejaVuSans-6f"/>
      <use x="342.957031" xlink:href="#DejaVuSans-6e"/>
      <use x="406.335938" xlink:href="#DejaVuSans-20"/>
      <use x="438.123047" xlink:href="#DejaVuSans-6f"/>
      <use x="499.304688" xlink:href="#DejaVuSans-66"/>
      <use x="534.509766" xlink:href="#DejaVuSans-20"/>
      <use x="566.296875" xlink:href="#DejaVuSans-66"/>
      <use x="601.501953" xlink:href="#DejaVuSans-75"/>
      <use x="664.880859" xlink:href="#DejaVuSans-6e"/>
      <use x="728.259766" xlink:href="#DejaVuSans-63"/>
      <use x="783.240234" xlink:href="#DejaVuSans-74"/>
      <use x="822.449219" xlink:href="#DejaVuSans-69"/>
      <use x="850.232422" xlink:href="#DejaVuSans-6f"/>
      <use x="911.414062" xlink:href="#DejaVuSans-6e"/>
      <use x="974.792969" xlink:href="#DejaVuSans-2c"/>
      <use x="1006.580078" xlink:href="#DejaVuSans-74"/>
      <use x="1045.789062" xlink:href="#DejaVuSans-61"/>
      <use x="1107.068359" xlink:href="#DejaVuSans-72"/>
      <use x="1148.166016" xlink:href="#DejaVuSans-67"/>
      <use x="1211.642578" xlink:href="#DejaVuSans-65"/>
      <use x="1273.166016" xlink:href="#DejaVuSans-74"/>
      <use x="1312.375" xlink:href="#DejaVuSans-20"/>
      <use x="1344.162109" xlink:href="#DejaVuSans-70"/>
      <use x="1407.638672" xlink:href="#DejaVuSans-61"/>
      <use x="1468.917969" xlink:href="#DejaVuSans-69"/>
      <use x="1496.701172" xlink:href="#DejaVuSans-72"/>
      <use x="1537.814453" xlink:href="#DejaVuSans-73"/>
     </g>
    </g>
   </g>
   <g id="line2d_29">
    <defs>
     <path d="M 0 1.5 
C 0.397805 1.5 0.77937 1.341951 1.06066 1.06066 
C 1.341951 0.77937 1.5 0.397805 1.5 0 
C 1.5 -0.397805 1.341951 -0.77937 1.06066 -1.06066 
C 0.77937 -1.341951 0.397805 -1.5 0 -1.5 
C -0.397805 -1.5 -0.77937 -1.341951 -1.06066 -1.06066 
C -1.341951 -0.77937 -1.5 -0.397805 -1.5 0 
C -1.5 0.397805 -1.341951 0.77937 -1.06066 1.06066 
C -0.77937 1.341951 -0.397805 1.5 0 1.5 
z
" id="mf1d575d29c" style="stroke:#000080;"/>
    </defs>
    <g>
     <use style="fill:#000080;stroke:#000080;" x="236.255581" xlink:href="#mf1d575d29c" y="183.596368"/>
     <use style="fill:#000080;stroke:#000080;" x="236.255581" xlink:href="#mf1d575d29c" y="183.596368"/>
    </g>
   </g>
   <g id="line2d_30">
    <path d="M 89.205337 294.16 
L 89.205337 291.558503 
L 108.052172 291.558503 
L 108.052172 282.453262 
L 114.622453 282.453262 
L 114.622453 280.50214 
L 115.385029 280.50214 
L 115.385029 275.949519 
L 116.815451 275.949519 
L 116.815451 272.047274 
L 118.759619 272.047274 
L 118.759619 262.942033 
L 119.063258 262.942033 
L 119.063258 257.739039 
L 120.505714 257.739039 
L 120.505714 245.381927 
L 127.276058 245.381927 
L 127.276058 244.081178 
L 128.534065 244.081178 
L 128.534065 240.178933 
L 131.399899 240.178933 
L 131.399899 237.577435 
L 179.505231 237.577435 
L 179.505231 236.927061 
L 179.681907 236.927061 
L 179.681907 235.626312 
L 179.804507 235.626312 
L 179.913235 230.423318 
L 179.91757 230.423318 
L 179.965181 226.521072 
L 180.332927 226.521072 
L 180.442572 222.618826 
L 180.480364 222.618826 
L 180.484557 220.017329 
L 180.750856 220.017329 
L 180.829124 217.415832 
L 180.97645 217.415832 
L 180.97645 216.765458 
L 191.557549 216.765458 
L 191.581722 214.814335 
L 191.776061 214.814335 
L 191.877808 212.863212 
L 191.933835 212.863212 
L 191.933835 211.562463 
L 192.056028 211.562463 
L 192.132756 209.61134 
L 192.238757 209.61134 
L 192.308361 208.310592 
L 198.352066 208.310592 
L 198.352066 207.660217 
L 198.616403 207.660217 
L 198.626601 205.05872 
L 198.881034 205.05872 
L 198.951204 201.156474 
L 203.613811 201.156474 
L 203.681197 199.855726 
L 203.934235 199.855726 
L 203.934235 199.205351 
L 207.359559 199.205351 
L 207.359559 198.554977 
L 207.54761 198.554977 
L 207.557132 197.254228 
L 207.790059 197.254228 
L 207.790059 196.603854 
L 210.498686 196.603854 
L 210.606966 194.652731 
L 210.716727 194.652731 
L 210.716727 194.002357 
L 215.348401 194.002357 
L 215.348401 192.701608 
L 215.529869 192.701608 
L 215.584696 190.750485 
L 219.190079 190.750485 
L 219.298231 188.799362 
L 220.764495 188.799362 
L 220.764495 188.148988 
L 221.028141 188.148988 
L 221.079758 186.84824 
L 223.75579 186.84824 
L 223.75579 186.197865 
L 225.088155 186.197865 
L 225.088155 185.547491 
L 227.330677 185.547491 
L 227.33341 184.246742 
L 236.255581 184.246742 
L 236.255581 183.596368 
L 333.168 183.596368 
L 333.168 183.596368 
" style="fill:none;stroke:#000080;stroke-linecap:square;stroke-width:1.5;"/>
   </g>
   <g id="line2d_31">
    <defs>
     <path d="M 0 6 
C 1.591219 6 3.117479 5.367802 4.242641 4.242641 
C 5.367802 3.117479 6 1.591219 6 0 
C 6 -1.591219 5.367802 -3.117479 4.242641 -4.242641 
C 3.117479 -5.367802 1.591219 -6 0 -6 
C -1.591219 -6 -3.117479 -5.367802 -4.242641 -4.242641 
C -5.367802 -3.117479 -6 -1.591219 -6 0 
C -6 1.591219 -5.367802 3.117479 -4.242641 4.242641 
C -3.117479 5.367802 -1.591219 6 0 6 
z
" id="ma0a58e559c" style="stroke:#000080;stroke-width:1.5;"/>
    </defs>
    <g>
     <use style="fill:none;stroke:#000080;stroke-width:1.5;" x="114.622453" xlink:href="#ma0a58e559c" y="282.453262"/>
     <use style="fill:none;stroke:#000080;stroke-width:1.5;" x="131.399899" xlink:href="#ma0a58e559c" y="237.577435"/>
     <use style="fill:none;stroke:#000080;stroke-width:1.5;" x="227.33341" xlink:href="#ma0a58e559c" y="184.897117"/>
     <use style="fill:none;stroke:#000080;stroke-width:1.5;" x="236.255581" xlink:href="#ma0a58e559c" y="183.596368"/>
     <use style="fill:none;stroke:#000080;stroke-width:1.5;" x="333.168" xlink:href="#ma0a58e559c" y="183.596368"/>
    </g>
   </g>
   <g id="line2d_32">
    <path style="fill:none;stroke:#000080;stroke-linecap:square;stroke-width:1.5;"/>
    <g/>
   </g>
   <g id="line2d_33">
    <path clip-path="url(#p55f95679df)" d="M 179.913235 230.423318 
" style="fill:none;stroke:#000080;stroke-linecap:square;stroke-width:1.5;"/>
    <defs>
     <path d="M -12 12 
L 12 -12 
M -12 -12 
L 12 12 
" id="m4b79d2683c" style="stroke:#000080;stroke-width:3;"/>
    </defs>
    <g clip-path="url(#p55f95679df)">
     <use style="fill:#000080;stroke:#000080;stroke-width:3;" x="179.913235" xlink:href="#m4b79d2683c" y="230.423318"/>
    </g>
   </g>
   <g id="line2d_34">
    <defs>
     <path d="M 0 1.5 
C 0.397805 1.5 0.77937 1.341951 1.06066 1.06066 
C 1.341951 0.77937 1.5 0.397805 1.5 0 
C 1.5 -0.397805 1.341951 -0.77937 1.06066 -1.06066 
C 0.77937 -1.341951 0.397805 -1.5 0 -1.5 
C -0.397805 -1.5 -0.77937 -1.341951 -1.06066 -1.06066 
C -1.341951 -0.77937 -1.5 -0.397805 -1.5 0 
C -1.5 0.397805 -1.341951 0.77937 -1.06066 1.06066 
C -0.77937 1.341951 -0.397805 1.5 0 1.5 
z
" id="ma204121ab6" style="stroke:#ff00ff;"/>
    </defs>
    <g>
     <use style="fill:#ff00ff;stroke:#ff00ff;" x="231.378951" xlink:href="#ma204121ab6" y="138.070167"/>
     <use style="fill:#ff00ff;stroke:#ff00ff;" x="231.378951" xlink:href="#ma204121ab6" y="138.070167"/>
    </g>
   </g>
   <g id="line2d_35">
    <path d="M 89.205337 294.16 
L 89.205337 290.257754 
L 90.840395 290.257754 
L 90.840395 287.656257 
L 96.161143 287.656257 
L 96.161143 284.404385 
L 99.288893 284.404385 
L 99.288893 275.299145 
L 103.494 275.299145 
L 103.494 270.746525 
L 104.224115 270.746525 
L 104.224115 262.291659 
L 106.86859 262.291659 
L 106.86859 261.641285 
L 109.68723 261.641285 
L 109.68723 248.633799 
L 112.107452 248.633799 
L 112.107452 244.731553 
L 116.468871 244.731553 
L 116.468871 242.130056 
L 123.771257 242.130056 
L 123.771257 241.479681 
L 126.317421 241.479681 
L 126.317421 240.829307 
L 131.834229 240.829307 
L 131.834229 238.22781 
L 134.600805 238.22781 
L 134.600805 233.67519 
L 136.553662 233.67519 
L 136.553662 231.073692 
L 140.250929 231.073692 
L 140.250929 230.423318 
L 142.310368 230.423318 
L 142.310368 229.772944 
L 143.653629 229.772944 
L 143.653629 223.919575 
L 144.148863 223.919575 
L 144.148863 223.269201 
L 149.649974 223.269201 
L 149.649974 218.716581 
L 179.58496 218.716581 
L 179.602628 217.415832 
L 179.782678 217.415832 
L 179.782678 216.765458 
L 180.029893 216.765458 
L 180.029893 215.464709 
L 180.429957 215.464709 
L 180.429957 214.814335 
L 180.589073 214.814335 
L 180.605737 212.863212 
L 180.705379 212.863212 
L 180.754985 208.960966 
L 180.960143 208.960966 
L 180.964221 206.359469 
L 181.243304 206.359469 
L 181.243304 205.709094 
L 181.38713 205.709094 
L 181.403036 202.457223 
L 181.612416 202.457223 
L 181.694677 198.554977 
L 182.380284 198.554977 
L 182.443995 196.603854 
L 191.378492 196.603854 
L 191.378492 194.002357 
L 191.495864 194.002357 
L 191.495864 193.351983 
L 191.621205 193.351983 
L 191.621205 192.051234 
L 191.882124 192.051234 
L 191.963928 189.449737 
L 192.004684 189.449737 
L 192.090172 187.498614 
L 192.24087 187.498614 
L 192.344107 184.246742 
L 192.542507 184.246742 
L 192.652204 182.295619 
L 192.867479 182.295619 
L 192.867479 181.645245 
L 192.983221 181.645245 
L 192.983221 180.994871 
L 193.416843 180.994871 
L 193.416843 180.344496 
L 198.38607 180.344496 
L 198.464172 179.043748 
L 198.590151 179.043748 
L 198.645523 177.742999 
L 198.928323 177.742999 
L 198.968345 175.791876 
L 199.14871 175.791876 
L 199.157184 173.840753 
L 199.304814 173.840753 
L 199.413665 171.889631 
L 199.640302 171.889631 
L 199.640302 171.239256 
L 203.396821 171.239256 
L 203.396821 170.588882 
L 203.58111 170.588882 
L 203.63884 168.637759 
L 203.746158 168.637759 
L 203.830242 166.036262 
L 203.983332 166.036262 
L 203.983332 165.385887 
L 204.118158 165.385887 
L 204.122387 164.085139 
L 204.553546 164.085139 
L 204.553546 163.434765 
L 207.252427 163.434765 
L 207.328016 160.182893 
L 207.374435 160.182893 
L 207.374435 159.532519 
L 207.525083 159.532519 
L 207.557997 158.23177 
L 207.822469 158.23177 
L 207.927805 156.931021 
L 207.976009 156.931021 
L 207.976009 156.280647 
L 210.434412 156.280647 
L 210.434412 155.630273 
L 210.592471 155.630273 
L 210.702325 153.67915 
L 210.860801 153.67915 
L 210.94198 151.728027 
L 213.040375 151.728027 
L 213.040375 151.077653 
L 213.181858 151.077653 
L 213.206779 149.776904 
L 213.325895 149.776904 
L 213.419612 148.476156 
L 215.705671 148.476156 
L 215.705671 147.825781 
L 217.418489 147.825781 
L 217.508354 145.874658 
L 217.717342 145.874658 
L 217.732651 144.57391 
L 217.886416 144.57391 
L 217.888311 143.273161 
L 219.366623 143.273161 
L 219.366623 142.622787 
L 220.898216 142.622787 
L 220.898216 141.972412 
L 221.044312 141.972412 
L 221.044312 141.322038 
L 223.600928 141.322038 
L 223.600928 140.671664 
L 227.65526 140.671664 
L 227.65526 140.02129 
L 230.382513 140.02129 
L 230.44462 138.720541 
L 231.378951 138.720541 
L 231.378951 138.070167 
L 333.168 138.070167 
L 333.168 138.070167 
" style="fill:none;stroke:#ff00ff;stroke-linecap:square;stroke-width:1.5;"/>
   </g>
   <g id="line2d_36">
    <defs>
     <path d="M -0 8.485281 
L 5.091169 0 
L 0 -8.485281 
L -5.091169 -0 
z
" id="mb0dcc77e10" style="stroke:#ff00ff;stroke-linejoin:miter;stroke-width:1.5;"/>
    </defs>
    <g>
     <use style="fill:none;stroke:#ff00ff;stroke-linejoin:miter;stroke-width:1.5;" x="140.250929" xlink:href="#mb0dcc77e10" y="230.423318"/>
     <use style="fill:none;stroke:#ff00ff;stroke-linejoin:miter;stroke-width:1.5;" x="199.640302" xlink:href="#mb0dcc77e10" y="171.239256"/>
     <use style="fill:none;stroke:#ff00ff;stroke-linejoin:miter;stroke-width:1.5;" x="231.378951" xlink:href="#mb0dcc77e10" y="138.070167"/>
     <use style="fill:none;stroke:#ff00ff;stroke-linejoin:miter;stroke-width:1.5;" x="231.378951" xlink:href="#mb0dcc77e10" y="138.070167"/>
     <use style="fill:none;stroke:#ff00ff;stroke-linejoin:miter;stroke-width:1.5;" x="333.168" xlink:href="#mb0dcc77e10" y="138.070167"/>
    </g>
   </g>
   <g id="line2d_37">
    <path style="fill:none;stroke:#ff00ff;stroke-linecap:square;stroke-width:1.5;"/>
    <g/>
   </g>
   <g id="line2d_38">
    <path clip-path="url(#p55f95679df)" d="M 179.624687 217.415832 
" style="fill:none;stroke:#ff00ff;stroke-linecap:square;stroke-width:1.5;"/>
    <defs>
     <path d="M -12 12 
L 12 -12 
M -12 -12 
L 12 12 
" id="mee2b2a88b7" style="stroke:#ff00ff;stroke-width:3;"/>
    </defs>
    <g clip-path="url(#p55f95679df)">
     <use style="fill:#ff00ff;stroke:#ff00ff;stroke-width:3;" x="179.624687" xlink:href="#mee2b2a88b7" y="217.415832"/>
    </g>
   </g>
   <g id="line2d_39">
    <defs>
     <path d="M 0 1.5 
C 0.397805 1.5 0.77937 1.341951 1.06066 1.06066 
C 1.341951 0.77937 1.5 0.397805 1.5 0 
C 1.5 -0.397805 1.341951 -0.77937 1.06066 -1.06066 
C 0.77937 -1.341951 0.397805 -1.5 0 -1.5 
C -0.397805 -1.5 -0.77937 -1.341951 -1.06066 -1.06066 
C -1.341951 -0.77937 -1.5 -0.397805 -1.5 0 
C -1.5 0.397805 -1.341951 0.77937 -1.06066 1.06066 
C -0.77937 1.341951 -0.397805 1.5 0 1.5 
z
" id="m88655ad72c" style="stroke:#ffa500;"/>
    </defs>
    <g>
     <use style="fill:#ffa500;stroke:#ffa500;" x="230.995241" xlink:href="#m88655ad72c" y="157.581396"/>
     <use style="fill:#ffa500;stroke:#ffa500;" x="230.995241" xlink:href="#m88655ad72c" y="157.581396"/>
    </g>
   </g>
   <g id="line2d_40">
    <path d="M 83.086532 294.16 
L 83.086532 255.787916 
L 85.377281 255.787916 
L 85.377281 233.67519 
L 120.505714 233.67519 
L 120.505714 231.724067 
L 121.578259 231.724067 
L 121.578259 229.122569 
L 131.545901 229.122569 
L 131.545901 225.220324 
L 131.976596 225.220324 
L 131.976596 224.569949 
L 132.534536 224.569949 
L 132.534536 222.618826 
L 146.246757 222.618826 
L 146.246757 212.212837 
L 147.206735 212.212837 
L 147.206735 211.562463 
L 150.681064 211.562463 
L 150.681064 210.912089 
L 164.207152 210.912089 
L 164.207152 208.310592 
L 175.288774 208.310592 
L 175.288774 207.009843 
L 175.441365 207.009843 
L 175.497538 205.05872 
L 175.945883 205.05872 
L 175.945883 204.408346 
L 176.720331 204.408346 
L 176.720331 203.757972 
L 178.118763 203.757972 
L 178.118763 200.5061 
L 178.248237 200.5061 
L 178.295943 197.904603 
L 178.400432 197.904603 
L 178.400432 196.603854 
L 179.146324 196.603854 
L 179.146324 195.303106 
L 183.74736 195.303106 
L 183.74736 193.351983 
L 183.981516 193.351983 
L 183.981516 190.100111 
L 186.760313 190.100111 
L 186.760313 188.799362 
L 187.145708 188.799362 
L 187.244961 186.84824 
L 187.321138 186.84824 
L 187.321138 186.197865 
L 187.872387 186.197865 
L 187.872387 185.547491 
L 188.616582 185.547491 
L 188.686916 182.945994 
L 188.756964 182.945994 
L 188.808667 180.994871 
L 191.109737 180.994871 
L 191.109737 180.344496 
L 192.041069 180.344496 
L 192.119992 178.393374 
L 194.133716 178.393374 
L 194.203595 175.791876 
L 195.147782 175.791876 
L 195.24384 172.540005 
L 197.544563 172.540005 
L 197.586395 171.239256 
L 198.875293 171.239256 
L 198.875293 170.588882 
L 199.853141 170.588882 
L 199.853141 169.938508 
L 200.063372 169.938508 
L 200.063372 169.288133 
L 201.716928 169.288133 
L 201.761873 167.33701 
L 202.726588 167.33701 
L 202.788404 166.036262 
L 202.991735 166.036262 
L 202.991735 165.385887 
L 205.050418 165.385887 
L 205.050418 164.735513 
L 206.062553 164.735513 
L 206.062553 164.085139 
L 210.233472 164.085139 
L 210.233472 163.434765 
L 211.393494 163.434765 
L 211.393494 162.78439 
L 212.407773 162.78439 
L 212.407773 162.134016 
L 213.517712 162.134016 
L 213.517712 161.483642 
L 214.275342 161.483642 
L 214.275342 160.833267 
L 217.444769 160.833267 
L 217.444769 160.182893 
L 221.985863 160.182893 
L 221.985863 159.532519 
L 222.546463 159.532519 
L 222.546463 158.882144 
L 226.457249 158.882144 
L 226.457249 158.23177 
L 230.995241 158.23177 
L 230.995241 157.581396 
L 333.168 157.581396 
L 333.168 157.581396 
" style="fill:none;stroke:#ffa500;stroke-linecap:square;stroke-width:1.5;"/>
   </g>
   <g id="line2d_41">
    <defs>
     <path d="M 0 -6 
L -1.347084 -1.854102 
L -5.706339 -1.854102 
L -2.179628 0.708204 
L -3.526712 4.854102 
L -0 2.291796 
L 3.526712 4.854102 
L 2.179628 0.708204 
L 5.706339 -1.854102 
L 1.347084 -1.854102 
z
" id="m01f4176589" style="stroke:#ffa500;stroke-linejoin:bevel;stroke-width:1.5;"/>
    </defs>
    <g>
     <use style="fill:none;stroke:#ffa500;stroke-linejoin:bevel;stroke-width:1.5;" x="85.377281" xlink:href="#m01f4176589" y="233.67519"/>
     <use style="fill:none;stroke:#ffa500;stroke-linejoin:bevel;stroke-width:1.5;" x="187.145708" xlink:href="#m01f4176589" y="188.148988"/>
     <use style="fill:none;stroke:#ffa500;stroke-linejoin:bevel;stroke-width:1.5;" x="230.995241" xlink:href="#m01f4176589" y="158.23177"/>
     <use style="fill:none;stroke:#ffa500;stroke-linejoin:bevel;stroke-width:1.5;" x="230.995241" xlink:href="#m01f4176589" y="157.581396"/>
     <use style="fill:none;stroke:#ffa500;stroke-linejoin:bevel;stroke-width:1.5;" x="333.168" xlink:href="#m01f4176589" y="157.581396"/>
    </g>
   </g>
   <g id="line2d_42">
    <path style="fill:none;stroke:#ffa500;stroke-linecap:square;stroke-width:1.5;"/>
    <g/>
   </g>
   <g id="line2d_43">
    <path clip-path="url(#p55f95679df)" d="M 175.362413 207.009843 
" style="fill:none;stroke:#ffa500;stroke-linecap:square;stroke-width:1.5;"/>
    <defs>
     <path d="M -12 12 
L 12 -12 
M -12 -12 
L 12 12 
" id="m9e37b297e7" style="stroke:#ffa500;stroke-width:3;"/>
    </defs>
    <g clip-path="url(#p55f95679df)">
     <use style="fill:#ffa500;stroke:#ffa500;stroke-width:3;" x="175.362413" xlink:href="#m9e37b297e7" y="207.009843"/>
    </g>
   </g>
   <g id="line2d_44">
    <defs>
     <path d="M 0 1.5 
C 0.397805 1.5 0.77937 1.341951 1.06066 1.06066 
C 1.341951 0.77937 1.5 0.397805 1.5 0 
C 1.5 -0.397805 1.341951 -0.77937 1.06066 -1.06066 
C 0.77937 -1.341951 0.397805 -1.5 0 -1.5 
C -0.397805 -1.5 -0.77937 -1.341951 -1.06066 -1.06066 
C -1.341951 -0.77937 -1.5 -0.397805 -1.5 0 
C -1.5 0.397805 -1.341951 0.77937 -1.06066 1.06066 
C -0.77937 1.341951 -0.397805 1.5 0 1.5 
z
" id="m27c622726c" style="stroke:#6495ed;"/>
    </defs>
    <g>
     <use style="fill:#6495ed;stroke:#6495ed;" x="229.18193" xlink:href="#m27c622726c" y="27.506535"/>
     <use style="fill:#6495ed;stroke:#6495ed;" x="229.18193" xlink:href="#m27c622726c" y="27.506535"/>
    </g>
   </g>
   <g id="line2d_45">
    <path d="M 85.377281 294.16 
L 85.377281 270.746525 
L 87.397864 270.746525 
L 87.397864 266.844279 
L 94.977561 266.844279 
L 94.977561 266.193905 
L 96.161143 266.193905 
L 96.161143 258.389413 
L 116.815451 258.389413 
L 116.815451 251.88567 
L 160.605036 251.88567 
L 160.605036 249.284173 
L 164.907458 249.284173 
L 164.907458 239.528558 
L 172.708515 239.528558 
L 172.708515 233.024815 
L 175.2433 233.024815 
L 175.2433 210.261715 
L 175.368065 210.261715 
L 175.446991 206.359469 
L 175.65385 206.359469 
L 175.759114 204.408346 
L 176.03851 204.408346 
L 176.03851 203.757972 
L 181.355273 203.757972 
L 181.355273 203.107597 
L 182.70387 203.107597 
L 182.70387 201.806849 
L 182.890758 201.806849 
L 182.941707 199.205351 
L 185.889247 199.205351 
L 185.932035 197.254228 
L 186.044608 197.254228 
L 186.087011 194.652731 
L 187.111546 194.652731 
L 187.213829 184.246742 
L 187.256268 184.246742 
L 187.357695 168.637759 
L 187.514287 168.637759 
L 187.553213 167.33701 
L 191.249119 167.33701 
L 191.311697 165.385887 
L 191.362929 165.385887 
L 191.39404 162.78439 
L 191.475989 162.78439 
L 191.506895 160.182893 
L 193.254271 160.182893 
L 193.355564 158.23177 
L 193.383265 158.23177 
L 193.456262 155.630273 
L 193.511297 155.630273 
L 193.511297 154.329524 
L 194.059751 154.329524 
L 194.156411 149.12653 
L 194.18285 149.12653 
L 194.286325 136.769418 
L 194.305071 136.769418 
L 194.355585 134.818295 
L 196.927047 134.818295 
L 197.031256 132.867172 
L 197.090294 132.867172 
L 197.193519 128.314552 
L 198.41116 128.314552 
L 198.486212 126.363429 
L 198.540456 126.363429 
L 198.581392 123.111558 
L 198.676047 123.111558 
L 198.676047 122.461183 
L 199.011122 122.461183 
L 199.103442 115.95744 
L 199.123261 115.95744 
L 199.195268 112.055194 
L 201.376652 112.055194 
L 201.474388 109.453697 
L 202.387238 109.453697 
L 202.489866 106.8522 
L 202.506137 106.8522 
L 202.549064 105.551451 
L 202.864793 105.551451 
L 202.964612 101.649206 
L 202.990605 101.649206 
L 203.03797 95.145462 
L 204.623508 95.145462 
L 204.713626 93.19434 
L 204.794126 93.19434 
L 204.794126 92.543965 
L 205.698044 92.543965 
L 205.796134 88.641719 
L 206.01812 88.641719 
L 206.127575 85.389848 
L 206.162341 85.389848 
L 206.175478 84.089099 
L 207.498186 84.089099 
L 207.606388 81.487602 
L 207.618464 81.487602 
L 207.725912 78.886105 
L 208.257439 78.886105 
L 208.341967 77.585356 
L 208.418676 77.585356 
L 208.418676 76.934982 
L 208.639455 76.934982 
L 208.70352 73.032736 
L 208.756053 73.032736 
L 208.833346 70.431239 
L 208.867855 70.431239 
L 208.867855 69.780865 
L 209.983638 69.780865 
L 210.021908 67.179367 
L 210.713127 67.179367 
L 210.749806 64.57787 
L 210.99872 64.57787 
L 211.070791 61.325999 
L 212.172669 61.325999 
L 212.249201 58.074127 
L 212.7513 58.074127 
L 212.7513 57.423753 
L 212.964142 57.423753 
L 213.074914 51.570384 
L 213.14191 51.570384 
L 213.14191 50.92001 
L 214.628508 50.92001 
L 214.628508 50.269635 
L 214.801266 50.269635 
L 214.838101 48.968887 
L 216.318334 48.968887 
L 216.318334 47.668138 
L 216.472388 47.668138 
L 216.512996 43.765892 
L 217.342833 43.765892 
L 217.342833 43.115518 
L 217.97764 43.115518 
L 218.062754 40.514021 
L 218.741056 40.514021 
L 218.741056 39.863646 
L 219.192715 39.863646 
L 219.192715 39.213272 
L 219.389649 39.213272 
L 219.417846 37.912524 
L 220.061016 37.912524 
L 220.109377 36.611775 
L 220.602641 36.611775 
L 220.602641 35.961401 
L 222.371479 35.961401 
L 222.474435 34.010278 
L 222.881958 34.010278 
L 222.911331 32.709529 
L 223.934936 32.709529 
L 223.992135 31.40878 
L 225.884456 31.40878 
L 225.884456 30.758406 
L 226.745256 30.758406 
L 226.745256 30.108032 
L 227.457831 30.108032 
L 227.457831 29.457658 
L 228.42096 29.457658 
L 228.42096 28.807283 
L 229.165976 28.807283 
L 229.18193 27.506535 
L 333.168 27.506535 
L 333.168 27.506535 
" style="fill:none;stroke:#6495ed;stroke-linecap:square;stroke-width:1.5;"/>
   </g>
   <g id="line2d_46">
    <defs>
     <path d="M -0 6 
L 6 -6 
L -6 -6 
z
" id="ma541d3d800" style="stroke:#6495ed;stroke-linejoin:miter;stroke-width:1.5;"/>
    </defs>
    <g>
     <use style="fill:none;stroke:#6495ed;stroke-linejoin:miter;stroke-width:1.5;" x="116.815451" xlink:href="#ma541d3d800" y="251.88567"/>
     <use style="fill:none;stroke:#6495ed;stroke-linejoin:miter;stroke-width:1.5;" x="203.03797" xlink:href="#ma541d3d800" y="95.145462"/>
     <use style="fill:none;stroke:#6495ed;stroke-linejoin:miter;stroke-width:1.5;" x="229.18193" xlink:href="#ma541d3d800" y="28.156909"/>
     <use style="fill:none;stroke:#6495ed;stroke-linejoin:miter;stroke-width:1.5;" x="229.18193" xlink:href="#ma541d3d800" y="27.506535"/>
     <use style="fill:none;stroke:#6495ed;stroke-linejoin:miter;stroke-width:1.5;" x="333.168" xlink:href="#ma541d3d800" y="27.506535"/>
    </g>
   </g>
   <g id="line2d_47">
    <path style="fill:none;stroke:#6495ed;stroke-linecap:square;stroke-width:1.5;"/>
    <g/>
   </g>
   <g id="line2d_48">
    <path clip-path="url(#p55f95679df)" d="M 175.277417 210.261715 
" style="fill:none;stroke:#6495ed;stroke-linecap:square;stroke-width:1.5;"/>
    <defs>
     <path d="M -12 12 
L 12 -12 
M -12 -12 
L 12 12 
" id="m3e7c54bc3b" style="stroke:#6495ed;stroke-width:3;"/>
    </defs>
    <g clip-path="url(#p55f95679df)">
     <use style="fill:#6495ed;stroke:#6495ed;stroke-width:3;" x="175.277417" xlink:href="#m3e7c54bc3b" y="210.261715"/>
    </g>
   </g>
   <g id="line2d_49">
    <path d="M 333.168 183.596368 
L 363.58388 288.826931 
" style="fill:none;stroke:#000080;stroke-linecap:square;stroke-width:1.5;"/>
    <g>
     <use style="fill:none;stroke:#000080;stroke-width:1.5;" x="333.168" xlink:href="#ma0a58e559c" y="183.596368"/>
     <use style="fill:none;stroke:#000080;stroke-width:1.5;" x="363.58388" xlink:href="#ma0a58e559c" y="288.826931"/>
    </g>
   </g>
   <g id="line2d_50">
    <path d="M 333.168 157.581396 
L 363.58388 203.497822 
" style="fill:none;stroke:#ffa500;stroke-linecap:square;stroke-width:1.5;"/>
    <g>
     <use style="fill:none;stroke:#ffa500;stroke-linejoin:bevel;stroke-width:1.5;" x="333.168" xlink:href="#m01f4176589" y="157.581396"/>
     <use style="fill:none;stroke:#ffa500;stroke-linejoin:bevel;stroke-width:1.5;" x="363.58388" xlink:href="#m01f4176589" y="203.497822"/>
    </g>
   </g>
   <g id="line2d_51">
    <path d="M 333.168 138.070167 
L 363.58388 118.168713 
" style="fill:none;stroke:#ff00ff;stroke-linecap:square;stroke-width:1.5;"/>
    <g>
     <use style="fill:none;stroke:#ff00ff;stroke-linejoin:miter;stroke-width:1.5;" x="333.168" xlink:href="#mb0dcc77e10" y="138.070167"/>
     <use style="fill:none;stroke:#ff00ff;stroke-linejoin:miter;stroke-width:1.5;" x="363.58388" xlink:href="#mb0dcc77e10" y="118.168713"/>
    </g>
   </g>
   <g id="line2d_52">
    <path d="M 333.168 27.506535 
L 363.58388 32.839604 
" style="fill:none;stroke:#6495ed;stroke-linecap:square;stroke-width:1.5;"/>
    <g>
     <use style="fill:none;stroke:#6495ed;stroke-linejoin:miter;stroke-width:1.5;" x="333.168" xlink:href="#ma541d3d800" y="27.506535"/>
     <use style="fill:none;stroke:#6495ed;stroke-linejoin:miter;stroke-width:1.5;" x="363.58388" xlink:href="#ma541d3d800" y="32.839604"/>
    </g>
   </g>
   <g id="line2d_53">
    <path d="M 333.168 294.16 
L 333.168 27.506535 
" style="fill:none;stroke:#000000;stroke-linecap:square;stroke-width:1.5;"/>
   </g>
   <g id="patch_3">
    <path d="M 56.66 294.16 
L 56.66 24.84 
" style="fill:none;stroke:#000000;stroke-linecap:square;stroke-linejoin:miter;stroke-width:0.8;"/>
   </g>
   <g id="patch_4">
    <path d="M 333.168 294.16 
L 333.168 24.84 
" style="fill:none;stroke:#000000;stroke-linecap:square;stroke-linejoin:miter;stroke-width:0.8;"/>
   </g>
   <g id="patch_5">
    <path d="M 56.66 294.16 
L 333.168 294.16 
" style="fill:none;stroke:#000000;stroke-linecap:square;stroke-linejoin:miter;stroke-width:0.8;"/>
   </g>
   <g id="patch_6">
    <path d="M 56.66 24.84 
L 333.168 24.84 
" style="fill:none;stroke:#000000;stroke-linecap:square;stroke-linejoin:miter;stroke-width:0.8;"/>
   </g>
   <g id="text_13">
    <!-- fmin2 from cma.evolution strategy 1000D on bbob-constrained-001 -->
    <defs>
     <path d="M 32.171875 -5.078125 
Q 28.375 -14.84375 24.75 -17.8125 
Q 21.140625 -20.796875 15.09375 -20.796875 
L 7.90625 -20.796875 
L 7.90625 -13.28125 
L 13.1875 -13.28125 
Q 16.890625 -13.28125 18.9375 -11.515625 
Q 21 -9.765625 23.484375 -3.21875 
L 25.09375 0.875 
L 2.984375 54.6875 
L 12.5 54.6875 
L 29.59375 11.921875 
L 46.6875 54.6875 
L 56.203125 54.6875 
z
" id="DejaVuSans-79"/>
     <path d="M 19.671875 64.796875 
L 19.671875 8.109375 
L 31.59375 8.109375 
Q 46.6875 8.109375 53.6875 14.9375 
Q 60.6875 21.78125 60.6875 36.53125 
Q 60.6875 51.171875 53.6875 57.984375 
Q 46.6875 64.796875 31.59375 64.796875 
z
M 9.8125 72.90625 
L 30.078125 72.90625 
Q 51.265625 72.90625 61.171875 64.09375 
Q 71.09375 55.28125 71.09375 36.53125 
Q 71.09375 17.671875 61.125 8.828125 
Q 51.171875 0 30.078125 0 
L 9.8125 0 
z
" id="DejaVuSans-44"/>
     <path d="M 48.6875 27.296875 
Q 48.6875 37.203125 44.609375 42.84375 
Q 40.53125 48.484375 33.40625 48.484375 
Q 26.265625 48.484375 22.1875 42.84375 
Q 18.109375 37.203125 18.109375 27.296875 
Q 18.109375 17.390625 22.1875 11.75 
Q 26.265625 6.109375 33.40625 6.109375 
Q 40.53125 6.109375 44.609375 11.75 
Q 48.6875 17.390625 48.6875 27.296875 
z
M 18.109375 46.390625 
Q 20.953125 51.265625 25.265625 53.625 
Q 29.59375 56 35.59375 56 
Q 45.5625 56 51.78125 48.09375 
Q 58.015625 40.1875 58.015625 27.296875 
Q 58.015625 14.40625 51.78125 6.484375 
Q 45.5625 -1.421875 35.59375 -1.421875 
Q 29.59375 -1.421875 25.265625 0.953125 
Q 20.953125 3.328125 18.109375 8.203125 
L 18.109375 0 
L 9.078125 0 
L 9.078125 75.984375 
L 18.109375 75.984375 
z
" id="DejaVuSans-62"/>
    </defs>
    <g transform="translate(369.11404 293.517868)scale(0.17 -0.17)">
     <use xlink:href="#DejaVuSans-66"/>
     <use x="35.205078" xlink:href="#DejaVuSans-6d"/>
     <use x="132.617188" xlink:href="#DejaVuSans-69"/>
     <use x="160.400391" xlink:href="#DejaVuSans-6e"/>
     <use x="223.779297" xlink:href="#DejaVuSans-32"/>
     <use x="287.402344" xlink:href="#DejaVuSans-20"/>
     <use x="319.189453" xlink:href="#DejaVuSans-66"/>
     <use x="354.394531" xlink:href="#DejaVuSans-72"/>
     <use x="395.476562" xlink:href="#DejaVuSans-6f"/>
     <use x="456.658203" xlink:href="#DejaVuSans-6d"/>
     <use x="554.070312" xlink:href="#DejaVuSans-20"/>
     <use x="585.857422" xlink:href="#DejaVuSans-63"/>
     <use x="640.837891" xlink:href="#DejaVuSans-6d"/>
     <use x="738.25" xlink:href="#DejaVuSans-61"/>
     <use x="799.529297" xlink:href="#DejaVuSans-2e"/>
     <use x="831.316406" xlink:href="#DejaVuSans-65"/>
     <use x="892.839844" xlink:href="#DejaVuSans-76"/>
     <use x="952.019531" xlink:href="#DejaVuSans-6f"/>
     <use x="1013.201172" xlink:href="#DejaVuSans-6c"/>
     <use x="1040.984375" xlink:href="#DejaVuSans-75"/>
     <use x="1104.363281" xlink:href="#DejaVuSans-74"/>
     <use x="1143.572266" xlink:href="#DejaVuSans-69"/>
     <use x="1171.355469" xlink:href="#DejaVuSans-6f"/>
     <use x="1232.537109" xlink:href="#DejaVuSans-6e"/>
     <use x="1295.916016" xlink:href="#DejaVuSans-20"/>
     <use x="1327.703125" xlink:href="#DejaVuSans-73"/>
     <use x="1379.802734" xlink:href="#DejaVuSans-74"/>
     <use x="1419.011719" xlink:href="#DejaVuSans-72"/>
     <use x="1460.125" xlink:href="#DejaVuSans-61"/>
     <use x="1521.404297" xlink:href="#DejaVuSans-74"/>
     <use x="1560.613281" xlink:href="#DejaVuSans-65"/>
     <use x="1622.136719" xlink:href="#DejaVuSans-67"/>
     <use x="1685.613281" xlink:href="#DejaVuSans-79"/>
     <use x="1744.792969" xlink:href="#DejaVuSans-20"/>
     <use x="1776.580078" xlink:href="#DejaVuSans-31"/>
     <use x="1840.203125" xlink:href="#DejaVuSans-30"/>
     <use x="1903.826172" xlink:href="#DejaVuSans-30"/>
     <use x="1967.449219" xlink:href="#DejaVuSans-30"/>
     <use x="2031.072266" xlink:href="#DejaVuSans-44"/>
     <use x="2108.074219" xlink:href="#DejaVuSans-20"/>
     <use x="2139.861328" xlink:href="#DejaVuSans-6f"/>
     <use x="2201.042969" xlink:href="#DejaVuSans-6e"/>
     <use x="2264.421875" xlink:href="#DejaVuSans-20"/>
     <use x="2296.208984" xlink:href="#DejaVuSans-62"/>
     <use x="2359.685547" xlink:href="#DejaVuSans-62"/>
     <use x="2423.162109" xlink:href="#DejaVuSans-6f"/>
     <use x="2484.34375" xlink:href="#DejaVuSans-62"/>
     <use x="2547.820312" xlink:href="#DejaVuSans-2d"/>
     <use x="2583.904297" xlink:href="#DejaVuSans-63"/>
     <use x="2638.884766" xlink:href="#DejaVuSans-6f"/>
     <use x="2700.066406" xlink:href="#DejaVuSans-6e"/>
     <use x="2763.445312" xlink:href="#DejaVuSans-73"/>
     <use x="2815.544922" xlink:href="#DejaVuSans-74"/>
     <use x="2854.753906" xlink:href="#DejaVuSans-72"/>
     <use x="2895.867188" xlink:href="#DejaVuSans-61"/>
     <use x="2957.146484" xlink:href="#DejaVuSans-69"/>
     <use x="2984.929688" xlink:href="#DejaVuSans-6e"/>
     <use x="3048.308594" xlink:href="#DejaVuSans-65"/>
     <use x="3109.832031" xlink:href="#DejaVuSans-64"/>
     <use x="3173.308594" xlink:href="#DejaVuSans-2d"/>
     <use x="3209.392578" xlink:href="#DejaVuSans-30"/>
     <use x="3273.015625" xlink:href="#DejaVuSans-30"/>
     <use x="3336.638672" xlink:href="#DejaVuSans-31"/>
    </g>
   </g>
   <g id="text_14">
    <!-- fmin cobyla rho-9 catol-9 from scipy.optimize.cobyla 1000D on bbo -->
    <defs>
     <path d="M 54.890625 33.015625 
L 54.890625 0 
L 45.90625 0 
L 45.90625 32.71875 
Q 45.90625 40.484375 42.875 44.328125 
Q 39.84375 48.1875 33.796875 48.1875 
Q 26.515625 48.1875 22.3125 43.546875 
Q 18.109375 38.921875 18.109375 30.90625 
L 18.109375 0 
L 9.078125 0 
L 9.078125 75.984375 
L 18.109375 75.984375 
L 18.109375 46.1875 
Q 21.34375 51.125 25.703125 53.5625 
Q 30.078125 56 35.796875 56 
Q 45.21875 56 50.046875 50.171875 
Q 54.890625 44.34375 54.890625 33.015625 
z
" id="DejaVuSans-68"/>
     <path d="M 10.984375 1.515625 
L 10.984375 10.5 
Q 14.703125 8.734375 18.5 7.8125 
Q 22.3125 6.890625 25.984375 6.890625 
Q 35.75 6.890625 40.890625 13.453125 
Q 46.046875 20.015625 46.78125 33.40625 
Q 43.953125 29.203125 39.59375 26.953125 
Q 35.25 24.703125 29.984375 24.703125 
Q 19.046875 24.703125 12.671875 31.3125 
Q 6.296875 37.9375 6.296875 49.421875 
Q 6.296875 60.640625 12.9375 67.421875 
Q 19.578125 74.21875 30.609375 74.21875 
Q 43.265625 74.21875 49.921875 64.515625 
Q 56.59375 54.828125 56.59375 36.375 
Q 56.59375 19.140625 48.40625 8.859375 
Q 40.234375 -1.421875 26.421875 -1.421875 
Q 22.703125 -1.421875 18.890625 -0.6875 
Q 15.09375 0.046875 10.984375 1.515625 
z
M 30.609375 32.421875 
Q 37.25 32.421875 41.125 36.953125 
Q 45.015625 41.5 45.015625 49.421875 
Q 45.015625 57.28125 41.125 61.84375 
Q 37.25 66.40625 30.609375 66.40625 
Q 23.96875 66.40625 20.09375 61.84375 
Q 16.21875 57.28125 16.21875 49.421875 
Q 16.21875 41.5 20.09375 36.953125 
Q 23.96875 32.421875 30.609375 32.421875 
z
" id="DejaVuSans-39"/>
     <path d="M 5.515625 54.6875 
L 48.1875 54.6875 
L 48.1875 46.484375 
L 14.40625 7.171875 
L 48.1875 7.171875 
L 48.1875 0 
L 4.296875 0 
L 4.296875 8.203125 
L 38.09375 47.515625 
L 5.515625 47.515625 
z
" id="DejaVuSans-7a"/>
    </defs>
    <g transform="translate(369.11404 208.188759)scale(0.17 -0.17)">
     <use xlink:href="#DejaVuSans-66"/>
     <use x="35.205078" xlink:href="#DejaVuSans-6d"/>
     <use x="132.617188" xlink:href="#DejaVuSans-69"/>
     <use x="160.400391" xlink:href="#DejaVuSans-6e"/>
     <use x="223.779297" xlink:href="#DejaVuSans-20"/>
     <use x="255.566406" xlink:href="#DejaVuSans-63"/>
     <use x="310.546875" xlink:href="#DejaVuSans-6f"/>
     <use x="371.728516" xlink:href="#DejaVuSans-62"/>
     <use x="435.205078" xlink:href="#DejaVuSans-79"/>
     <use x="494.384766" xlink:href="#DejaVuSans-6c"/>
     <use x="522.167969" xlink:href="#DejaVuSans-61"/>
     <use x="583.447266" xlink:href="#DejaVuSans-20"/>
     <use x="615.234375" xlink:href="#DejaVuSans-72"/>
     <use x="656.332031" xlink:href="#DejaVuSans-68"/>
     <use x="719.710938" xlink:href="#DejaVuSans-6f"/>
     <use x="780.908203" xlink:href="#DejaVuSans-2d"/>
     <use x="816.992188" xlink:href="#DejaVuSans-39"/>
     <use x="880.615234" xlink:href="#DejaVuSans-20"/>
     <use x="912.402344" xlink:href="#DejaVuSans-63"/>
     <use x="967.382812" xlink:href="#DejaVuSans-61"/>
     <use x="1028.662109" xlink:href="#DejaVuSans-74"/>
     <use x="1067.871094" xlink:href="#DejaVuSans-6f"/>
     <use x="1129.052734" xlink:href="#DejaVuSans-6c"/>
     <use x="1156.835938" xlink:href="#DejaVuSans-2d"/>
     <use x="1192.919922" xlink:href="#DejaVuSans-39"/>
     <use x="1256.542969" xlink:href="#DejaVuSans-20"/>
     <use x="1288.330078" xlink:href="#DejaVuSans-66"/>
     <use x="1323.535156" xlink:href="#DejaVuSans-72"/>
     <use x="1364.617188" xlink:href="#DejaVuSans-6f"/>
     <use x="1425.798828" xlink:href="#DejaVuSans-6d"/>
     <use x="1523.210938" xlink:href="#DejaVuSans-20"/>
     <use x="1554.998047" xlink:href="#DejaVuSans-73"/>
     <use x="1607.097656" xlink:href="#DejaVuSans-63"/>
     <use x="1662.078125" xlink:href="#DejaVuSans-69"/>
     <use x="1689.861328" xlink:href="#DejaVuSans-70"/>
     <use x="1753.337891" xlink:href="#DejaVuSans-79"/>
     <use x="1812.298828" xlink:href="#DejaVuSans-2e"/>
     <use x="1844.085938" xlink:href="#DejaVuSans-6f"/>
     <use x="1905.267578" xlink:href="#DejaVuSans-70"/>
     <use x="1968.744141" xlink:href="#DejaVuSans-74"/>
     <use x="2007.953125" xlink:href="#DejaVuSans-69"/>
     <use x="2035.736328" xlink:href="#DejaVuSans-6d"/>
     <use x="2133.148438" xlink:href="#DejaVuSans-69"/>
     <use x="2160.931641" xlink:href="#DejaVuSans-7a"/>
     <use x="2213.421875" xlink:href="#DejaVuSans-65"/>
     <use x="2274.945312" xlink:href="#DejaVuSans-2e"/>
     <use x="2306.732422" xlink:href="#DejaVuSans-63"/>
     <use x="2361.712891" xlink:href="#DejaVuSans-6f"/>
     <use x="2422.894531" xlink:href="#DejaVuSans-62"/>
     <use x="2486.371094" xlink:href="#DejaVuSans-79"/>
     <use x="2545.550781" xlink:href="#DejaVuSans-6c"/>
     <use x="2573.333984" xlink:href="#DejaVuSans-61"/>
     <use x="2634.613281" xlink:href="#DejaVuSans-20"/>
     <use x="2666.400391" xlink:href="#DejaVuSans-31"/>
     <use x="2730.023438" xlink:href="#DejaVuSans-30"/>
     <use x="2793.646484" xlink:href="#DejaVuSans-30"/>
     <use x="2857.269531" xlink:href="#DejaVuSans-30"/>
     <use x="2920.892578" xlink:href="#DejaVuSans-44"/>
     <use x="2997.894531" xlink:href="#DejaVuSans-20"/>
     <use x="3029.681641" xlink:href="#DejaVuSans-6f"/>
     <use x="3090.863281" xlink:href="#DejaVuSans-6e"/>
     <use x="3154.242188" xlink:href="#DejaVuSans-20"/>
     <use x="3186.029297" xlink:href="#DejaVuSans-62"/>
     <use x="3249.505859" xlink:href="#DejaVuSans-62"/>
     <use x="3312.982422" xlink:href="#DejaVuSans-6f"/>
    </g>
   </g>
   <g id="text_15">
    <!-- fmin2 from cma.evolution strategy 1000D on bbob-constrained-005 -->
    <defs>
     <path d="M 10.796875 72.90625 
L 49.515625 72.90625 
L 49.515625 64.59375 
L 19.828125 64.59375 
L 19.828125 46.734375 
Q 21.96875 47.46875 24.109375 47.828125 
Q 26.265625 48.1875 28.421875 48.1875 
Q 40.625 48.1875 47.75 41.5 
Q 54.890625 34.8125 54.890625 23.390625 
Q 54.890625 11.625 47.5625 5.09375 
Q 40.234375 -1.421875 26.90625 -1.421875 
Q 22.3125 -1.421875 17.546875 -0.640625 
Q 12.796875 0.140625 7.71875 1.703125 
L 7.71875 11.625 
Q 12.109375 9.234375 16.796875 8.0625 
Q 21.484375 6.890625 26.703125 6.890625 
Q 35.15625 6.890625 40.078125 11.328125 
Q 45.015625 15.765625 45.015625 23.390625 
Q 45.015625 31 40.078125 35.4375 
Q 35.15625 39.890625 26.703125 39.890625 
Q 22.75 39.890625 18.8125 39.015625 
Q 14.890625 38.140625 10.796875 36.28125 
z
" id="DejaVuSans-35"/>
    </defs>
    <g transform="translate(369.11404 122.85965)scale(0.17 -0.17)">
     <use xlink:href="#DejaVuSans-66"/>
     <use x="35.205078" xlink:href="#DejaVuSans-6d"/>
     <use x="132.617188" xlink:href="#DejaVuSans-69"/>
     <use x="160.400391" xlink:href="#DejaVuSans-6e"/>
     <use x="223.779297" xlink:href="#DejaVuSans-32"/>
     <use x="287.402344" xlink:href="#DejaVuSans-20"/>
     <use x="319.189453" xlink:href="#DejaVuSans-66"/>
     <use x="354.394531" xlink:href="#DejaVuSans-72"/>
     <use x="395.476562" xlink:href="#DejaVuSans-6f"/>
     <use x="456.658203" xlink:href="#DejaVuSans-6d"/>
     <use x="554.070312" xlink:href="#DejaVuSans-20"/>
     <use x="585.857422" xlink:href="#DejaVuSans-63"/>
     <use x="640.837891" xlink:href="#DejaVuSans-6d"/>
     <use x="738.25" xlink:href="#DejaVuSans-61"/>
     <use x="799.529297" xlink:href="#DejaVuSans-2e"/>
     <use x="831.316406" xlink:href="#DejaVuSans-65"/>
     <use x="892.839844" xlink:href="#DejaVuSans-76"/>
     <use x="952.019531" xlink:href="#DejaVuSans-6f"/>
     <use x="1013.201172" xlink:href="#DejaVuSans-6c"/>
     <use x="1040.984375" xlink:href="#DejaVuSans-75"/>
     <use x="1104.363281" xlink:href="#DejaVuSans-74"/>
     <use x="1143.572266" xlink:href="#DejaVuSans-69"/>
     <use x="1171.355469" xlink:href="#DejaVuSans-6f"/>
     <use x="1232.537109" xlink:href="#DejaVuSans-6e"/>
     <use x="1295.916016" xlink:href="#DejaVuSans-20"/>
     <use x="1327.703125" xlink:href="#DejaVuSans-73"/>
     <use x="1379.802734" xlink:href="#DejaVuSans-74"/>
     <use x="1419.011719" xlink:href="#DejaVuSans-72"/>
     <use x="1460.125" xlink:href="#DejaVuSans-61"/>
     <use x="1521.404297" xlink:href="#DejaVuSans-74"/>
     <use x="1560.613281" xlink:href="#DejaVuSans-65"/>
     <use x="1622.136719" xlink:href="#DejaVuSans-67"/>
     <use x="1685.613281" xlink:href="#DejaVuSans-79"/>
     <use x="1744.792969" xlink:href="#DejaVuSans-20"/>
     <use x="1776.580078" xlink:href="#DejaVuSans-31"/>
     <use x="1840.203125" xlink:href="#DejaVuSans-30"/>
     <use x="1903.826172" xlink:href="#DejaVuSans-30"/>
     <use x="1967.449219" xlink:href="#DejaVuSans-30"/>
     <use x="2031.072266" xlink:href="#DejaVuSans-44"/>
     <use x="2108.074219" xlink:href="#DejaVuSans-20"/>
     <use x="2139.861328" xlink:href="#DejaVuSans-6f"/>
     <use x="2201.042969" xlink:href="#DejaVuSans-6e"/>
     <use x="2264.421875" xlink:href="#DejaVuSans-20"/>
     <use x="2296.208984" xlink:href="#DejaVuSans-62"/>
     <use x="2359.685547" xlink:href="#DejaVuSans-62"/>
     <use x="2423.162109" xlink:href="#DejaVuSans-6f"/>
     <use x="2484.34375" xlink:href="#DejaVuSans-62"/>
     <use x="2547.820312" xlink:href="#DejaVuSans-2d"/>
     <use x="2583.904297" xlink:href="#DejaVuSans-63"/>
     <use x="2638.884766" xlink:href="#DejaVuSans-6f"/>
     <use x="2700.066406" xlink:href="#DejaVuSans-6e"/>
     <use x="2763.445312" xlink:href="#DejaVuSans-73"/>
     <use x="2815.544922" xlink:href="#DejaVuSans-74"/>
     <use x="2854.753906" xlink:href="#DejaVuSans-72"/>
     <use x="2895.867188" xlink:href="#DejaVuSans-61"/>
     <use x="2957.146484" xlink:href="#DejaVuSans-69"/>
     <use x="2984.929688" xlink:href="#DejaVuSans-6e"/>
     <use x="3048.308594" xlink:href="#DejaVuSans-65"/>
     <use x="3109.832031" xlink:href="#DejaVuSans-64"/>
     <use x="3173.308594" xlink:href="#DejaVuSans-2d"/>
     <use x="3209.392578" xlink:href="#DejaVuSans-30"/>
     <use x="3273.015625" xlink:href="#DejaVuSans-30"/>
     <use x="3336.638672" xlink:href="#DejaVuSans-35"/>
    </g>
   </g>
   <g id="text_16">
    <!-- fmin slsqp from scipy.optimize.slsqp 1000D on bbob-constrained -->
    <defs>
     <path d="M 14.796875 27.296875 
Q 14.796875 17.390625 18.875 11.75 
Q 22.953125 6.109375 30.078125 6.109375 
Q 37.203125 6.109375 41.296875 11.75 
Q 45.40625 17.390625 45.40625 27.296875 
Q 45.40625 37.203125 41.296875 42.84375 
Q 37.203125 48.484375 30.078125 48.484375 
Q 22.953125 48.484375 18.875 42.84375 
Q 14.796875 37.203125 14.796875 27.296875 
z
M 45.40625 8.203125 
Q 42.578125 3.328125 38.25 0.953125 
Q 33.9375 -1.421875 27.875 -1.421875 
Q 17.96875 -1.421875 11.734375 6.484375 
Q 5.515625 14.40625 5.515625 27.296875 
Q 5.515625 40.1875 11.734375 48.09375 
Q 17.96875 56 27.875 56 
Q 33.9375 56 38.25 53.625 
Q 42.578125 51.265625 45.40625 46.390625 
L 45.40625 54.6875 
L 54.390625 54.6875 
L 54.390625 -20.796875 
L 45.40625 -20.796875 
z
" id="DejaVuSans-71"/>
    </defs>
    <g transform="translate(369.11404 37.530541)scale(0.17 -0.17)">
     <use xlink:href="#DejaVuSans-66"/>
     <use x="35.205078" xlink:href="#DejaVuSans-6d"/>
     <use x="132.617188" xlink:href="#DejaVuSans-69"/>
     <use x="160.400391" xlink:href="#DejaVuSans-6e"/>
     <use x="223.779297" xlink:href="#DejaVuSans-20"/>
     <use x="255.566406" xlink:href="#DejaVuSans-73"/>
     <use x="307.666016" xlink:href="#DejaVuSans-6c"/>
     <use x="335.449219" xlink:href="#DejaVuSans-73"/>
     <use x="387.548828" xlink:href="#DejaVuSans-71"/>
     <use x="451.025391" xlink:href="#DejaVuSans-70"/>
     <use x="514.501953" xlink:href="#DejaVuSans-20"/>
     <use x="546.289062" xlink:href="#DejaVuSans-66"/>
     <use x="581.494141" xlink:href="#DejaVuSans-72"/>
     <use x="622.576172" xlink:href="#DejaVuSans-6f"/>
     <use x="683.757812" xlink:href="#DejaVuSans-6d"/>
     <use x="781.169922" xlink:href="#DejaVuSans-20"/>
     <use x="812.957031" xlink:href="#DejaVuSans-73"/>
     <use x="865.056641" xlink:href="#DejaVuSans-63"/>
     <use x="920.037109" xlink:href="#DejaVuSans-69"/>
     <use x="947.820312" xlink:href="#DejaVuSans-70"/>
     <use x="1011.296875" xlink:href="#DejaVuSans-79"/>
     <use x="1070.257812" xlink:href="#DejaVuSans-2e"/>
     <use x="1102.044922" xlink:href="#DejaVuSans-6f"/>
     <use x="1163.226562" xlink:href="#DejaVuSans-70"/>
     <use x="1226.703125" xlink:href="#DejaVuSans-74"/>
     <use x="1265.912109" xlink:href="#DejaVuSans-69"/>
     <use x="1293.695312" xlink:href="#DejaVuSans-6d"/>
     <use x="1391.107422" xlink:href="#DejaVuSans-69"/>
     <use x="1418.890625" xlink:href="#DejaVuSans-7a"/>
     <use x="1471.380859" xlink:href="#DejaVuSans-65"/>
     <use x="1532.904297" xlink:href="#DejaVuSans-2e"/>
     <use x="1564.691406" xlink:href="#DejaVuSans-73"/>
     <use x="1616.791016" xlink:href="#DejaVuSans-6c"/>
     <use x="1644.574219" xlink:href="#DejaVuSans-73"/>
     <use x="1696.673828" xlink:href="#DejaVuSans-71"/>
     <use x="1760.150391" xlink:href="#DejaVuSans-70"/>
     <use x="1823.626953" xlink:href="#DejaVuSans-20"/>
     <use x="1855.414062" xlink:href="#DejaVuSans-31"/>
     <use x="1919.037109" xlink:href="#DejaVuSans-30"/>
     <use x="1982.660156" xlink:href="#DejaVuSans-30"/>
     <use x="2046.283203" xlink:href="#DejaVuSans-30"/>
     <use x="2109.90625" xlink:href="#DejaVuSans-44"/>
     <use x="2186.908203" xlink:href="#DejaVuSans-20"/>
     <use x="2218.695312" xlink:href="#DejaVuSans-6f"/>
     <use x="2279.876953" xlink:href="#DejaVuSans-6e"/>
     <use x="2343.255859" xlink:href="#DejaVuSans-20"/>
     <use x="2375.042969" xlink:href="#DejaVuSans-62"/>
     <use x="2438.519531" xlink:href="#DejaVuSans-62"/>
     <use x="2501.996094" xlink:href="#DejaVuSans-6f"/>
     <use x="2563.177734" xlink:href="#DejaVuSans-62"/>
     <use x="2626.654297" xlink:href="#DejaVuSans-2d"/>
     <use x="2662.738281" xlink:href="#DejaVuSans-63"/>
     <use x="2717.71875" xlink:href="#DejaVuSans-6f"/>
     <use x="2778.900391" xlink:href="#DejaVuSans-6e"/>
     <use x="2842.279297" xlink:href="#DejaVuSans-73"/>
     <use x="2894.378906" xlink:href="#DejaVuSans-74"/>
     <use x="2933.587891" xlink:href="#DejaVuSans-72"/>
     <use x="2974.701172" xlink:href="#DejaVuSans-61"/>
     <use x="3035.980469" xlink:href="#DejaVuSans-69"/>
     <use x="3063.763672" xlink:href="#DejaVuSans-6e"/>
     <use x="3127.142578" xlink:href="#DejaVuSans-65"/>
     <use x="3188.666016" xlink:href="#DejaVuSans-64"/>
    </g>
   </g>
   <g id="text_17">
    <!-- bbob-constrained f34, 3-D -->
    <defs>
     <path d="M 40.578125 39.3125 
Q 47.65625 37.796875 51.625 33 
Q 55.609375 28.21875 55.609375 21.1875 
Q 55.609375 10.40625 48.1875 4.484375 
Q 40.765625 -1.421875 27.09375 -1.421875 
Q 22.515625 -1.421875 17.65625 -0.515625 
Q 12.796875 0.390625 7.625 2.203125 
L 7.625 11.71875 
Q 11.71875 9.328125 16.59375 8.109375 
Q 21.484375 6.890625 26.8125 6.890625 
Q 36.078125 6.890625 40.9375 10.546875 
Q 45.796875 14.203125 45.796875 21.1875 
Q 45.796875 27.640625 41.28125 31.265625 
Q 36.765625 34.90625 28.71875 34.90625 
L 20.21875 34.90625 
L 20.21875 43.015625 
L 29.109375 43.015625 
Q 36.375 43.015625 40.234375 45.921875 
Q 44.09375 48.828125 44.09375 54.296875 
Q 44.09375 59.90625 40.109375 62.90625 
Q 36.140625 65.921875 28.71875 65.921875 
Q 24.65625 65.921875 20.015625 65.03125 
Q 15.375 64.15625 9.8125 62.3125 
L 9.8125 71.09375 
Q 15.4375 72.65625 20.34375 73.4375 
Q 25.25 74.21875 29.59375 74.21875 
Q 40.828125 74.21875 47.359375 69.109375 
Q 53.90625 64.015625 53.90625 55.328125 
Q 53.90625 49.265625 50.4375 45.09375 
Q 46.96875 40.921875 40.578125 39.3125 
z
" id="DejaVuSans-33"/>
    </defs>
    <g transform="translate(59.42508 35.283606)scale(0.102 -0.102)">
     <use xlink:href="#DejaVuSans-62"/>
     <use x="63.476562" xlink:href="#DejaVuSans-62"/>
     <use x="126.953125" xlink:href="#DejaVuSans-6f"/>
     <use x="188.134766" xlink:href="#DejaVuSans-62"/>
     <use x="251.611328" xlink:href="#DejaVuSans-2d"/>
     <use x="287.695312" xlink:href="#DejaVuSans-63"/>
     <use x="342.675781" xlink:href="#DejaVuSans-6f"/>
     <use x="403.857422" xlink:href="#DejaVuSans-6e"/>
     <use x="467.236328" xlink:href="#DejaVuSans-73"/>
     <use x="519.335938" xlink:href="#DejaVuSans-74"/>
     <use x="558.544922" xlink:href="#DejaVuSans-72"/>
     <use x="599.658203" xlink:href="#DejaVuSans-61"/>
     <use x="660.9375" xlink:href="#DejaVuSans-69"/>
     <use x="688.720703" xlink:href="#DejaVuSans-6e"/>
     <use x="752.099609" xlink:href="#DejaVuSans-65"/>
     <use x="813.623047" xlink:href="#DejaVuSans-64"/>
     <use x="877.099609" xlink:href="#DejaVuSans-20"/>
     <use x="908.886719" xlink:href="#DejaVuSans-66"/>
     <use x="944.091797" xlink:href="#DejaVuSans-33"/>
     <use x="1007.714844" xlink:href="#DejaVuSans-34"/>
     <use x="1071.337891" xlink:href="#DejaVuSans-2c"/>
     <use x="1103.125" xlink:href="#DejaVuSans-20"/>
     <use x="1134.912109" xlink:href="#DejaVuSans-33"/>
     <use x="1198.535156" xlink:href="#DejaVuSans-2d"/>
     <use x="1234.619141" xlink:href="#DejaVuSans-44"/>
    </g>
    <!-- 41 targets: 100..1e-06 -->
    <defs>
     <path d="M 11.71875 12.40625 
L 22.015625 12.40625 
L 22.015625 0 
L 11.71875 0 
z
M 11.71875 51.703125 
L 22.015625 51.703125 
L 22.015625 39.3125 
L 11.71875 39.3125 
z
" id="DejaVuSans-3a"/>
    </defs>
    <g transform="translate(59.42508 46.705375)scale(0.102 -0.102)">
     <use xlink:href="#DejaVuSans-34"/>
     <use x="63.623047" xlink:href="#DejaVuSans-31"/>
     <use x="127.246094" xlink:href="#DejaVuSans-20"/>
     <use x="159.033203" xlink:href="#DejaVuSans-74"/>
     <use x="198.242188" xlink:href="#DejaVuSans-61"/>
     <use x="259.521484" xlink:href="#DejaVuSans-72"/>
     <use x="300.619141" xlink:href="#DejaVuSans-67"/>
     <use x="364.095703" xlink:href="#DejaVuSans-65"/>
     <use x="425.619141" xlink:href="#DejaVuSans-74"/>
     <use x="464.828125" xlink:href="#DejaVuSans-73"/>
     <use x="516.927734" xlink:href="#DejaVuSans-3a"/>
     <use x="550.619141" xlink:href="#DejaVuSans-20"/>
     <use x="582.40625" xlink:href="#DejaVuSans-31"/>
     <use x="646.029297" xlink:href="#DejaVuSans-30"/>
     <use x="709.652344" xlink:href="#DejaVuSans-30"/>
     <use x="773.275391" xlink:href="#DejaVuSans-2e"/>
     <use x="805.0625" xlink:href="#DejaVuSans-2e"/>
     <use x="836.849609" xlink:href="#DejaVuSans-31"/>
     <use x="900.472656" xlink:href="#DejaVuSans-65"/>
     <use x="961.996094" xlink:href="#DejaVuSans-2d"/>
     <use x="998.080078" xlink:href="#DejaVuSans-30"/>
     <use x="1061.703125" xlink:href="#DejaVuSans-36"/>
    </g>
    <!-- 5 instances -->
    <g transform="translate(59.42508 58.127144)scale(0.102 -0.102)">
     <use xlink:href="#DejaVuSans-35"/>
     <use x="63.623047" xlink:href="#DejaVuSans-20"/>
     <use x="95.410156" xlink:href="#DejaVuSans-69"/>
     <use x="123.193359" xlink:href="#DejaVuSans-6e"/>
     <use x="186.572266" xlink:href="#DejaVuSans-73"/>
     <use x="238.671875" xlink:href="#DejaVuSans-74"/>
     <use x="277.880859" xlink:href="#DejaVuSans-61"/>
     <use x="339.160156" xlink:href="#DejaVuSans-6e"/>
     <use x="402.539062" xlink:href="#DejaVuSans-63"/>
     <use x="457.519531" xlink:href="#DejaVuSans-65"/>
     <use x="519.042969" xlink:href="#DejaVuSans-73"/>
    </g>
   </g>
   <g id="text_18">
    <!-- v2.2.1.112 -->
    <g style="fill:#808080;" transform="translate(168.099937 289.387113)scale(0.1 -0.1)">
     <use xlink:href="#DejaVuSans-76"/>
     <use x="59.179688" xlink:href="#DejaVuSans-32"/>
     <use x="122.802734" xlink:href="#DejaVuSans-2e"/>
     <use x="154.589844" xlink:href="#DejaVuSans-32"/>
     <use x="218.212891" xlink:href="#DejaVuSans-2e"/>
     <use x="250" xlink:href="#DejaVuSans-31"/>
     <use x="313.623047" xlink:href="#DejaVuSans-2e"/>
     <use x="345.410156" xlink:href="#DejaVuSans-31"/>
     <use x="409.033203" xlink:href="#DejaVuSans-31"/>
     <use x="472.65625" xlink:href="#DejaVuSans-32"/>
    </g>
   </g>
   <g id="text_19">
    <!-- 34 Bent Cigar, n/2+6 constraints -->
    <defs>
     <path d="M 19.671875 34.8125 
L 19.671875 8.109375 
L 35.5 8.109375 
Q 43.453125 8.109375 47.28125 11.40625 
Q 51.125 14.703125 51.125 21.484375 
Q 51.125 28.328125 47.28125 31.5625 
Q 43.453125 34.8125 35.5 34.8125 
z
M 19.671875 64.796875 
L 19.671875 42.828125 
L 34.28125 42.828125 
Q 41.5 42.828125 45.03125 45.53125 
Q 48.578125 48.25 48.578125 53.8125 
Q 48.578125 59.328125 45.03125 62.0625 
Q 41.5 64.796875 34.28125 64.796875 
z
M 9.8125 72.90625 
L 35.015625 72.90625 
Q 46.296875 72.90625 52.390625 68.21875 
Q 58.5 63.53125 58.5 54.890625 
Q 58.5 48.1875 55.375 44.234375 
Q 52.25 40.28125 46.1875 39.3125 
Q 53.46875 37.75 57.5 32.78125 
Q 61.53125 27.828125 61.53125 20.40625 
Q 61.53125 10.640625 54.890625 5.3125 
Q 48.25 0 35.984375 0 
L 9.8125 0 
z
" id="DejaVuSans-42"/>
     <path d="M 64.40625 67.28125 
L 64.40625 56.890625 
Q 59.421875 61.53125 53.78125 63.8125 
Q 48.140625 66.109375 41.796875 66.109375 
Q 29.296875 66.109375 22.65625 58.46875 
Q 16.015625 50.828125 16.015625 36.375 
Q 16.015625 21.96875 22.65625 14.328125 
Q 29.296875 6.6875 41.796875 6.6875 
Q 48.140625 6.6875 53.78125 8.984375 
Q 59.421875 11.28125 64.40625 15.921875 
L 64.40625 5.609375 
Q 59.234375 2.09375 53.4375 0.328125 
Q 47.65625 -1.421875 41.21875 -1.421875 
Q 24.65625 -1.421875 15.125 8.703125 
Q 5.609375 18.84375 5.609375 36.375 
Q 5.609375 53.953125 15.125 64.078125 
Q 24.65625 74.21875 41.21875 74.21875 
Q 47.75 74.21875 53.53125 72.484375 
Q 59.328125 70.75 64.40625 67.28125 
z
" id="DejaVuSans-43"/>
    </defs>
    <g transform="translate(30.298375 18.84)scale(0.2 -0.2)">
     <use xlink:href="#DejaVuSans-33"/>
     <use x="63.623047" xlink:href="#DejaVuSans-34"/>
     <use x="127.246094" xlink:href="#DejaVuSans-20"/>
     <use x="159.033203" xlink:href="#DejaVuSans-42"/>
     <use x="227.636719" xlink:href="#DejaVuSans-65"/>
     <use x="289.160156" xlink:href="#DejaVuSans-6e"/>
     <use x="352.539062" xlink:href="#DejaVuSans-74"/>
     <use x="391.748047" xlink:href="#DejaVuSans-20"/>
     <use x="423.535156" xlink:href="#DejaVuSans-43"/>
     <use x="493.359375" xlink:href="#DejaVuSans-69"/>
     <use x="521.142578" xlink:href="#DejaVuSans-67"/>
     <use x="584.619141" xlink:href="#DejaVuSans-61"/>
     <use x="645.898438" xlink:href="#DejaVuSans-72"/>
     <use x="687.011719" xlink:href="#DejaVuSans-2c"/>
     <use x="718.798828" xlink:href="#DejaVuSans-20"/>
     <use x="750.585938" xlink:href="#DejaVuSans-6e"/>
     <use x="813.964844" xlink:href="#DejaVuSans-2f"/>
     <use x="847.65625" xlink:href="#DejaVuSans-32"/>
     <use x="911.279297" xlink:href="#DejaVuSans-2b"/>
     <use x="995.068359" xlink:href="#DejaVuSans-36"/>
     <use x="1058.691406" xlink:href="#DejaVuSans-20"/>
     <use x="1090.478516" xlink:href="#DejaVuSans-63"/>
     <use x="1145.458984" xlink:href="#DejaVuSans-6f"/>
     <use x="1206.640625" xlink:href="#DejaVuSans-6e"/>
     <use x="1270.019531" xlink:href="#DejaVuSans-73"/>
     <use x="1322.119141" xlink:href="#DejaVuSans-74"/>
     <use x="1361.328125" xlink:href="#DejaVuSans-72"/>
     <use x="1402.441406" xlink:href="#DejaVuSans-61"/>
     <use x="1463.720703" xlink:href="#DejaVuSans-69"/>
     <use x="1491.503906" xlink:href="#DejaVuSans-6e"/>
     <use x="1554.882812" xlink:href="#DejaVuSans-74"/>
     <use x="1594.091797" xlink:href="#DejaVuSans-73"/>
    </g>
   </g>
  </g>
 </g>
 <defs>
  <clipPath id="p55f95679df">
   <rect height="269.32" width="276.508" x="56.66" y="24.84"/>
  </clipPath>
 </defs>
</svg>
