<?xml version="1.0" encoding="utf-8" standalone="no"?>
<!DOCTYPE svg PUBLIC "-//W3C//DTD SVG 1.1//EN"
  "http://www.w3.org/Graphics/SVG/1.1/DTD/svg11.dtd">
<!-- Created with matplotlib (http://matplotlib.org/) -->
<svg height="353pt" version="1.1" viewBox="0 0 546 353" width="546pt" xmlns="http://www.w3.org/2000/svg" xmlns:xlink="http://www.w3.org/1999/xlink">
 <defs>
  <style type="text/css">
*{stroke-linecap:butt;stroke-linejoin:round;}
  </style>
 </defs>
 <g id="figure_1">
  <g id="patch_1">
   <path d="M 0 353.22225 
L 546.075 353.22225 
L 546.075 0 
L 0 0 
z
" style="fill:#ffffff;"/>
  </g>
  <g id="axes_1">
   <g id="patch_2">
    <path d="M 94.4775 298.245375 
L 451.5975 298.245375 
L 451.5975 32.133375 
L 94.4775 32.133375 
z
" style="fill:#ffffff;"/>
   </g>
   <g id="matplotlib.axis_1">
    <g id="xtick_1">
     <g id="line2d_1">
      <path clip-path="url(#p025d55ec49)" d="M 94.4775 298.245375 
L 94.4775 32.133375 
" style="fill:none;stroke:#b0b0b0;stroke-linecap:square;stroke-width:0.8;"/>
     </g>
     <g id="line2d_2">
      <defs>
       <path d="M 0 0 
L 0 3.5 
" id="m7851fc838f" style="stroke:#000000;stroke-width:0.8;"/>
      </defs>
      <g>
       <use style="stroke:#000000;stroke-width:0.8;" x="94.4775" xlink:href="#m7851fc838f" y="298.245375"/>
      </g>
     </g>
     <g id="text_1">
      <!-- 0 -->
      <defs>
       <path d="M 31.78125 66.40625 
Q 24.171875 66.40625 20.328125 58.90625 
Q 16.5 51.421875 16.5 36.375 
Q 16.5 21.390625 20.328125 13.890625 
Q 24.171875 6.390625 31.78125 6.390625 
Q 39.453125 6.390625 43.28125 13.890625 
Q 47.125 21.390625 47.125 36.375 
Q 47.125 51.421875 43.28125 58.90625 
Q 39.453125 66.40625 31.78125 66.40625 
z
M 31.78125 74.21875 
Q 44.046875 74.21875 50.515625 64.515625 
Q 56.984375 54.828125 56.984375 36.375 
Q 56.984375 17.96875 50.515625 8.265625 
Q 44.046875 -1.421875 31.78125 -1.421875 
Q 19.53125 -1.421875 13.0625 8.265625 
Q 6.59375 17.96875 6.59375 36.375 
Q 6.59375 54.828125 13.0625 64.515625 
Q 19.53125 74.21875 31.78125 74.21875 
z
" id="DejaVuSans-30"/>
      </defs>
      <g transform="translate(88.115 320.44225)scale(0.2 -0.2)">
       <use xlink:href="#DejaVuSans-30"/>
      </g>
     </g>
    </g>
    <g id="xtick_2">
     <g id="line2d_3">
      <path clip-path="url(#p025d55ec49)" d="M 176.763214 298.245375 
L 176.763214 32.133375 
" style="fill:none;stroke:#b0b0b0;stroke-linecap:square;stroke-width:0.8;"/>
     </g>
     <g id="line2d_4">
      <g>
       <use style="stroke:#000000;stroke-width:0.8;" x="176.763214" xlink:href="#m7851fc838f" y="298.245375"/>
      </g>
     </g>
     <g id="text_2">
      <!-- 2 -->
      <defs>
       <path d="M 19.1875 8.296875 
L 53.609375 8.296875 
L 53.609375 0 
L 7.328125 0 
L 7.328125 8.296875 
Q 12.9375 14.109375 22.625 23.890625 
Q 32.328125 33.6875 34.8125 36.53125 
Q 39.546875 41.84375 41.421875 45.53125 
Q 43.3125 49.21875 43.3125 52.78125 
Q 43.3125 58.59375 39.234375 62.25 
Q 35.15625 65.921875 28.609375 65.921875 
Q 23.96875 65.921875 18.8125 64.3125 
Q 13.671875 62.703125 7.8125 59.421875 
L 7.8125 69.390625 
Q 13.765625 71.78125 18.9375 73 
Q 24.125 74.21875 28.421875 74.21875 
Q 39.75 74.21875 46.484375 68.546875 
Q 53.21875 62.890625 53.21875 53.421875 
Q 53.21875 48.921875 51.53125 44.890625 
Q 49.859375 40.875 45.40625 35.40625 
Q 44.1875 33.984375 37.640625 27.21875 
Q 31.109375 20.453125 19.1875 8.296875 
z
" id="DejaVuSans-32"/>
      </defs>
      <g transform="translate(170.400714 320.44225)scale(0.2 -0.2)">
       <use xlink:href="#DejaVuSans-32"/>
      </g>
     </g>
    </g>
    <g id="xtick_3">
     <g id="line2d_5">
      <path clip-path="url(#p025d55ec49)" d="M 259.048929 298.245375 
L 259.048929 32.133375 
" style="fill:none;stroke:#b0b0b0;stroke-linecap:square;stroke-width:0.8;"/>
     </g>
     <g id="line2d_6">
      <g>
       <use style="stroke:#000000;stroke-width:0.8;" x="259.048929" xlink:href="#m7851fc838f" y="298.245375"/>
      </g>
     </g>
     <g id="text_3">
      <!-- 4 -->
      <defs>
       <path d="M 37.796875 64.3125 
L 12.890625 25.390625 
L 37.796875 25.390625 
z
M 35.203125 72.90625 
L 47.609375 72.90625 
L 47.609375 25.390625 
L 58.015625 25.390625 
L 58.015625 17.1875 
L 47.609375 17.1875 
L 47.609375 0 
L 37.796875 0 
L 37.796875 17.1875 
L 4.890625 17.1875 
L 4.890625 26.703125 
z
" id="DejaVuSans-34"/>
      </defs>
      <g transform="translate(252.686429 320.44225)scale(0.2 -0.2)">
       <use xlink:href="#DejaVuSans-34"/>
      </g>
     </g>
    </g>
    <g id="xtick_4">
     <g id="line2d_7">
      <path clip-path="url(#p025d55ec49)" d="M 341.334643 298.245375 
L 341.334643 32.133375 
" style="fill:none;stroke:#b0b0b0;stroke-linecap:square;stroke-width:0.8;"/>
     </g>
     <g id="line2d_8">
      <g>
       <use style="stroke:#000000;stroke-width:0.8;" x="341.334643" xlink:href="#m7851fc838f" y="298.245375"/>
      </g>
     </g>
     <g id="text_4">
      <!-- 6 -->
      <defs>
       <path d="M 33.015625 40.375 
Q 26.375 40.375 22.484375 35.828125 
Q 18.609375 31.296875 18.609375 23.390625 
Q 18.609375 15.53125 22.484375 10.953125 
Q 26.375 6.390625 33.015625 6.390625 
Q 39.65625 6.390625 43.53125 10.953125 
Q 47.40625 15.53125 47.40625 23.390625 
Q 47.40625 31.296875 43.53125 35.828125 
Q 39.65625 40.375 33.015625 40.375 
z
M 52.59375 71.296875 
L 52.59375 62.3125 
Q 48.875 64.0625 45.09375 64.984375 
Q 41.3125 65.921875 37.59375 65.921875 
Q 27.828125 65.921875 22.671875 59.328125 
Q 17.53125 52.734375 16.796875 39.40625 
Q 19.671875 43.65625 24.015625 45.921875 
Q 28.375 48.1875 33.59375 48.1875 
Q 44.578125 48.1875 50.953125 41.515625 
Q 57.328125 34.859375 57.328125 23.390625 
Q 57.328125 12.15625 50.6875 5.359375 
Q 44.046875 -1.421875 33.015625 -1.421875 
Q 20.359375 -1.421875 13.671875 8.265625 
Q 6.984375 17.96875 6.984375 36.375 
Q 6.984375 53.65625 15.1875 63.9375 
Q 23.390625 74.21875 37.203125 74.21875 
Q 40.921875 74.21875 44.703125 73.484375 
Q 48.484375 72.75 52.59375 71.296875 
z
" id="DejaVuSans-36"/>
      </defs>
      <g transform="translate(334.972143 320.44225)scale(0.2 -0.2)">
       <use xlink:href="#DejaVuSans-36"/>
      </g>
     </g>
    </g>
    <g id="xtick_5">
     <g id="line2d_9">
      <path clip-path="url(#p025d55ec49)" d="M 423.620357 298.245375 
L 423.620357 32.133375 
" style="fill:none;stroke:#b0b0b0;stroke-linecap:square;stroke-width:0.8;"/>
     </g>
     <g id="line2d_10">
      <g>
       <use style="stroke:#000000;stroke-width:0.8;" x="423.620357" xlink:href="#m7851fc838f" y="298.245375"/>
      </g>
     </g>
     <g id="text_5">
      <!-- 8 -->
      <defs>
       <path d="M 31.78125 34.625 
Q 24.75 34.625 20.71875 30.859375 
Q 16.703125 27.09375 16.703125 20.515625 
Q 16.703125 13.921875 20.71875 10.15625 
Q 24.75 6.390625 31.78125 6.390625 
Q 38.8125 6.390625 42.859375 10.171875 
Q 46.921875 13.96875 46.921875 20.515625 
Q 46.921875 27.09375 42.890625 30.859375 
Q 38.875 34.625 31.78125 34.625 
z
M 21.921875 38.8125 
Q 15.578125 40.375 12.03125 44.71875 
Q 8.5 49.078125 8.5 55.328125 
Q 8.5 64.0625 14.71875 69.140625 
Q 20.953125 74.21875 31.78125 74.21875 
Q 42.671875 74.21875 48.875 69.140625 
Q 55.078125 64.0625 55.078125 55.328125 
Q 55.078125 49.078125 51.53125 44.71875 
Q 48 40.375 41.703125 38.8125 
Q 48.828125 37.15625 52.796875 32.3125 
Q 56.78125 27.484375 56.78125 20.515625 
Q 56.78125 9.90625 50.3125 4.234375 
Q 43.84375 -1.421875 31.78125 -1.421875 
Q 19.734375 -1.421875 13.25 4.234375 
Q 6.78125 9.90625 6.78125 20.515625 
Q 6.78125 27.484375 10.78125 32.3125 
Q 14.796875 37.15625 21.921875 38.8125 
z
M 18.3125 54.390625 
Q 18.3125 48.734375 21.84375 45.5625 
Q 25.390625 42.390625 31.78125 42.390625 
Q 38.140625 42.390625 41.71875 45.5625 
Q 45.3125 48.734375 45.3125 54.390625 
Q 45.3125 60.0625 41.71875 63.234375 
Q 38.140625 66.40625 31.78125 66.40625 
Q 25.390625 66.40625 21.84375 63.234375 
Q 18.3125 60.0625 18.3125 54.390625 
z
" id="DejaVuSans-38"/>
      </defs>
      <g transform="translate(417.257857 320.44225)scale(0.2 -0.2)">
       <use xlink:href="#DejaVuSans-38"/>
      </g>
     </g>
    </g>
    <g id="text_6">
     <!-- log10 of # (f+g)-evals / dimension -->
     <defs>
      <path d="M 9.421875 75.984375 
L 18.40625 75.984375 
L 18.40625 0 
L 9.421875 0 
z
" id="DejaVuSans-6c"/>
      <path d="M 30.609375 48.390625 
Q 23.390625 48.390625 19.1875 42.75 
Q 14.984375 37.109375 14.984375 27.296875 
Q 14.984375 17.484375 19.15625 11.84375 
Q 23.34375 6.203125 30.609375 6.203125 
Q 37.796875 6.203125 41.984375 11.859375 
Q 46.1875 17.53125 46.1875 27.296875 
Q 46.1875 37.015625 41.984375 42.703125 
Q 37.796875 48.390625 30.609375 48.390625 
z
M 30.609375 56 
Q 42.328125 56 49.015625 48.375 
Q 55.71875 40.765625 55.71875 27.296875 
Q 55.71875 13.875 49.015625 6.21875 
Q 42.328125 -1.421875 30.609375 -1.421875 
Q 18.84375 -1.421875 12.171875 6.21875 
Q 5.515625 13.875 5.515625 27.296875 
Q 5.515625 40.765625 12.171875 48.375 
Q 18.84375 56 30.609375 56 
z
" id="DejaVuSans-6f"/>
      <path d="M 45.40625 27.984375 
Q 45.40625 37.75 41.375 43.109375 
Q 37.359375 48.484375 30.078125 48.484375 
Q 22.859375 48.484375 18.828125 43.109375 
Q 14.796875 37.75 14.796875 27.984375 
Q 14.796875 18.265625 18.828125 12.890625 
Q 22.859375 7.515625 30.078125 7.515625 
Q 37.359375 7.515625 41.375 12.890625 
Q 45.40625 18.265625 45.40625 27.984375 
z
M 54.390625 6.78125 
Q 54.390625 -7.171875 48.1875 -13.984375 
Q 42 -20.796875 29.203125 -20.796875 
Q 24.46875 -20.796875 20.265625 -20.09375 
Q 16.0625 -19.390625 12.109375 -17.921875 
L 12.109375 -9.1875 
Q 16.0625 -11.328125 19.921875 -12.34375 
Q 23.78125 -13.375 27.78125 -13.375 
Q 36.625 -13.375 41.015625 -8.765625 
Q 45.40625 -4.15625 45.40625 5.171875 
L 45.40625 9.625 
Q 42.625 4.78125 38.28125 2.390625 
Q 33.9375 0 27.875 0 
Q 17.828125 0 11.671875 7.65625 
Q 5.515625 15.328125 5.515625 27.984375 
Q 5.515625 40.671875 11.671875 48.328125 
Q 17.828125 56 27.875 56 
Q 33.9375 56 38.28125 53.609375 
Q 42.625 51.21875 45.40625 46.390625 
L 45.40625 54.6875 
L 54.390625 54.6875 
z
" id="DejaVuSans-67"/>
      <path d="M 12.40625 8.296875 
L 28.515625 8.296875 
L 28.515625 63.921875 
L 10.984375 60.40625 
L 10.984375 69.390625 
L 28.421875 72.90625 
L 38.28125 72.90625 
L 38.28125 8.296875 
L 54.390625 8.296875 
L 54.390625 0 
L 12.40625 0 
z
" id="DejaVuSans-31"/>
      <path id="DejaVuSans-20"/>
      <path d="M 37.109375 75.984375 
L 37.109375 68.5 
L 28.515625 68.5 
Q 23.6875 68.5 21.796875 66.546875 
Q 19.921875 64.59375 19.921875 59.515625 
L 19.921875 54.6875 
L 34.71875 54.6875 
L 34.71875 47.703125 
L 19.921875 47.703125 
L 19.921875 0 
L 10.890625 0 
L 10.890625 47.703125 
L 2.296875 47.703125 
L 2.296875 54.6875 
L 10.890625 54.6875 
L 10.890625 58.5 
Q 10.890625 67.625 15.140625 71.796875 
Q 19.390625 75.984375 28.609375 75.984375 
z
" id="DejaVuSans-66"/>
      <path d="M 51.125 44 
L 36.921875 44 
L 32.8125 27.6875 
L 47.125 27.6875 
z
M 43.796875 71.78125 
L 38.71875 51.515625 
L 52.984375 51.515625 
L 58.109375 71.78125 
L 65.921875 71.78125 
L 60.890625 51.515625 
L 76.125 51.515625 
L 76.125 44 
L 58.984375 44 
L 54.984375 27.6875 
L 70.515625 27.6875 
L 70.515625 20.21875 
L 53.078125 20.21875 
L 48 0 
L 40.1875 0 
L 45.21875 20.21875 
L 30.90625 20.21875 
L 25.875 0 
L 18.015625 0 
L 23.09375 20.21875 
L 7.71875 20.21875 
L 7.71875 27.6875 
L 24.90625 27.6875 
L 29 44 
L 13.28125 44 
L 13.28125 51.515625 
L 30.90625 51.515625 
L 35.890625 71.78125 
z
" id="DejaVuSans-23"/>
      <path d="M 31 75.875 
Q 24.46875 64.65625 21.28125 53.65625 
Q 18.109375 42.671875 18.109375 31.390625 
Q 18.109375 20.125 21.3125 9.0625 
Q 24.515625 -2 31 -13.1875 
L 23.1875 -13.1875 
Q 15.875 -1.703125 12.234375 9.375 
Q 8.59375 20.453125 8.59375 31.390625 
Q 8.59375 42.28125 12.203125 53.3125 
Q 15.828125 64.359375 23.1875 75.875 
z
" id="DejaVuSans-28"/>
      <path d="M 46 62.703125 
L 46 35.5 
L 73.1875 35.5 
L 73.1875 27.203125 
L 46 27.203125 
L 46 0 
L 37.796875 0 
L 37.796875 27.203125 
L 10.59375 27.203125 
L 10.59375 35.5 
L 37.796875 35.5 
L 37.796875 62.703125 
z
" id="DejaVuSans-2b"/>
      <path d="M 8.015625 75.875 
L 15.828125 75.875 
Q 23.140625 64.359375 26.78125 53.3125 
Q 30.421875 42.28125 30.421875 31.390625 
Q 30.421875 20.453125 26.78125 9.375 
Q 23.140625 -1.703125 15.828125 -13.1875 
L 8.015625 -13.1875 
Q 14.5 -2 17.703125 9.0625 
Q 20.90625 20.125 20.90625 31.390625 
Q 20.90625 42.671875 17.703125 53.65625 
Q 14.5 64.65625 8.015625 75.875 
z
" id="DejaVuSans-29"/>
      <path d="M 4.890625 31.390625 
L 31.203125 31.390625 
L 31.203125 23.390625 
L 4.890625 23.390625 
z
" id="DejaVuSans-2d"/>
      <path d="M 56.203125 29.59375 
L 56.203125 25.203125 
L 14.890625 25.203125 
Q 15.484375 15.921875 20.484375 11.0625 
Q 25.484375 6.203125 34.421875 6.203125 
Q 39.59375 6.203125 44.453125 7.46875 
Q 49.3125 8.734375 54.109375 11.28125 
L 54.109375 2.78125 
Q 49.265625 0.734375 44.1875 -0.34375 
Q 39.109375 -1.421875 33.890625 -1.421875 
Q 20.796875 -1.421875 13.15625 6.1875 
Q 5.515625 13.8125 5.515625 26.8125 
Q 5.515625 40.234375 12.765625 48.109375 
Q 20.015625 56 32.328125 56 
Q 43.359375 56 49.78125 48.890625 
Q 56.203125 41.796875 56.203125 29.59375 
z
M 47.21875 32.234375 
Q 47.125 39.59375 43.09375 43.984375 
Q 39.0625 48.390625 32.421875 48.390625 
Q 24.90625 48.390625 20.390625 44.140625 
Q 15.875 39.890625 15.1875 32.171875 
z
" id="DejaVuSans-65"/>
      <path d="M 2.984375 54.6875 
L 12.5 54.6875 
L 29.59375 8.796875 
L 46.6875 54.6875 
L 56.203125 54.6875 
L 35.6875 0 
L 23.484375 0 
z
" id="DejaVuSans-76"/>
      <path d="M 34.28125 27.484375 
Q 23.390625 27.484375 19.1875 25 
Q 14.984375 22.515625 14.984375 16.5 
Q 14.984375 11.71875 18.140625 8.90625 
Q 21.296875 6.109375 26.703125 6.109375 
Q 34.1875 6.109375 38.703125 11.40625 
Q 43.21875 16.703125 43.21875 25.484375 
L 43.21875 27.484375 
z
M 52.203125 31.203125 
L 52.203125 0 
L 43.21875 0 
L 43.21875 8.296875 
Q 40.140625 3.328125 35.546875 0.953125 
Q 30.953125 -1.421875 24.3125 -1.421875 
Q 15.921875 -1.421875 10.953125 3.296875 
Q 6 8.015625 6 15.921875 
Q 6 25.140625 12.171875 29.828125 
Q 18.359375 34.515625 30.609375 34.515625 
L 43.21875 34.515625 
L 43.21875 35.40625 
Q 43.21875 41.609375 39.140625 45 
Q 35.0625 48.390625 27.6875 48.390625 
Q 23 48.390625 18.546875 47.265625 
Q 14.109375 46.140625 10.015625 43.890625 
L 10.015625 52.203125 
Q 14.9375 54.109375 19.578125 55.046875 
Q 24.21875 56 28.609375 56 
Q 40.484375 56 46.34375 49.84375 
Q 52.203125 43.703125 52.203125 31.203125 
z
" id="DejaVuSans-61"/>
      <path d="M 44.28125 53.078125 
L 44.28125 44.578125 
Q 40.484375 46.53125 36.375 47.5 
Q 32.28125 48.484375 27.875 48.484375 
Q 21.1875 48.484375 17.84375 46.4375 
Q 14.5 44.390625 14.5 40.28125 
Q 14.5 37.15625 16.890625 35.375 
Q 19.28125 33.59375 26.515625 31.984375 
L 29.59375 31.296875 
Q 39.15625 29.25 43.1875 25.515625 
Q 47.21875 21.78125 47.21875 15.09375 
Q 47.21875 7.46875 41.1875 3.015625 
Q 35.15625 -1.421875 24.609375 -1.421875 
Q 20.21875 -1.421875 15.453125 -0.5625 
Q 10.6875 0.296875 5.421875 2 
L 5.421875 11.28125 
Q 10.40625 8.6875 15.234375 7.390625 
Q 20.0625 6.109375 24.8125 6.109375 
Q 31.15625 6.109375 34.5625 8.28125 
Q 37.984375 10.453125 37.984375 14.40625 
Q 37.984375 18.0625 35.515625 20.015625 
Q 33.0625 21.96875 24.703125 23.78125 
L 21.578125 24.515625 
Q 13.234375 26.265625 9.515625 29.90625 
Q 5.8125 33.546875 5.8125 39.890625 
Q 5.8125 47.609375 11.28125 51.796875 
Q 16.75 56 26.8125 56 
Q 31.78125 56 36.171875 55.265625 
Q 40.578125 54.546875 44.28125 53.078125 
z
" id="DejaVuSans-73"/>
      <path d="M 25.390625 72.90625 
L 33.6875 72.90625 
L 8.296875 -9.28125 
L 0 -9.28125 
z
" id="DejaVuSans-2f"/>
      <path d="M 45.40625 46.390625 
L 45.40625 75.984375 
L 54.390625 75.984375 
L 54.390625 0 
L 45.40625 0 
L 45.40625 8.203125 
Q 42.578125 3.328125 38.25 0.953125 
Q 33.9375 -1.421875 27.875 -1.421875 
Q 17.96875 -1.421875 11.734375 6.484375 
Q 5.515625 14.40625 5.515625 27.296875 
Q 5.515625 40.1875 11.734375 48.09375 
Q 17.96875 56 27.875 56 
Q 33.9375 56 38.25 53.625 
Q 42.578125 51.265625 45.40625 46.390625 
z
M 14.796875 27.296875 
Q 14.796875 17.390625 18.875 11.75 
Q 22.953125 6.109375 30.078125 6.109375 
Q 37.203125 6.109375 41.296875 11.75 
Q 45.40625 17.390625 45.40625 27.296875 
Q 45.40625 37.203125 41.296875 42.84375 
Q 37.203125 48.484375 30.078125 48.484375 
Q 22.953125 48.484375 18.875 42.84375 
Q 14.796875 37.203125 14.796875 27.296875 
z
" id="DejaVuSans-64"/>
      <path d="M 9.421875 54.6875 
L 18.40625 54.6875 
L 18.40625 0 
L 9.421875 0 
z
M 9.421875 75.984375 
L 18.40625 75.984375 
L 18.40625 64.59375 
L 9.421875 64.59375 
z
" id="DejaVuSans-69"/>
      <path d="M 52 44.1875 
Q 55.375 50.25 60.0625 53.125 
Q 64.75 56 71.09375 56 
Q 79.640625 56 84.28125 50.015625 
Q 88.921875 44.046875 88.921875 33.015625 
L 88.921875 0 
L 79.890625 0 
L 79.890625 32.71875 
Q 79.890625 40.578125 77.09375 44.375 
Q 74.3125 48.1875 68.609375 48.1875 
Q 61.625 48.1875 57.5625 43.546875 
Q 53.515625 38.921875 53.515625 30.90625 
L 53.515625 0 
L 44.484375 0 
L 44.484375 32.71875 
Q 44.484375 40.625 41.703125 44.40625 
Q 38.921875 48.1875 33.109375 48.1875 
Q 26.21875 48.1875 22.15625 43.53125 
Q 18.109375 38.875 18.109375 30.90625 
L 18.109375 0 
L 9.078125 0 
L 9.078125 54.6875 
L 18.109375 54.6875 
L 18.109375 46.1875 
Q 21.1875 51.21875 25.484375 53.609375 
Q 29.78125 56 35.6875 56 
Q 41.65625 56 45.828125 52.96875 
Q 50 49.953125 52 44.1875 
z
" id="DejaVuSans-6d"/>
      <path d="M 54.890625 33.015625 
L 54.890625 0 
L 45.90625 0 
L 45.90625 32.71875 
Q 45.90625 40.484375 42.875 44.328125 
Q 39.84375 48.1875 33.796875 48.1875 
Q 26.515625 48.1875 22.3125 43.546875 
Q 18.109375 38.921875 18.109375 30.90625 
L 18.109375 0 
L 9.078125 0 
L 9.078125 54.6875 
L 18.109375 54.6875 
L 18.109375 46.1875 
Q 21.34375 51.125 25.703125 53.5625 
Q 30.078125 56 35.796875 56 
Q 45.21875 56 50.046875 50.171875 
Q 54.890625 44.34375 54.890625 33.015625 
z
" id="DejaVuSans-6e"/>
     </defs>
     <g transform="translate(117.430313 342.278812)scale(0.18 -0.18)">
      <use xlink:href="#DejaVuSans-6c"/>
      <use x="27.783203" xlink:href="#DejaVuSans-6f"/>
      <use x="88.964844" xlink:href="#DejaVuSans-67"/>
      <use x="152.441406" xlink:href="#DejaVuSans-31"/>
      <use x="216.064453" xlink:href="#DejaVuSans-30"/>
      <use x="279.6875" xlink:href="#DejaVuSans-20"/>
      <use x="311.474609" xlink:href="#DejaVuSans-6f"/>
      <use x="372.65625" xlink:href="#DejaVuSans-66"/>
      <use x="407.861328" xlink:href="#DejaVuSans-20"/>
      <use x="439.648438" xlink:href="#DejaVuSans-23"/>
      <use x="523.4375" xlink:href="#DejaVuSans-20"/>
      <use x="555.224609" xlink:href="#DejaVuSans-28"/>
      <use x="594.238281" xlink:href="#DejaVuSans-66"/>
      <use x="629.443359" xlink:href="#DejaVuSans-2b"/>
      <use x="713.232422" xlink:href="#DejaVuSans-67"/>
      <use x="776.708984" xlink:href="#DejaVuSans-29"/>
      <use x="815.722656" xlink:href="#DejaVuSans-2d"/>
      <use x="851.806641" xlink:href="#DejaVuSans-65"/>
      <use x="913.330078" xlink:href="#DejaVuSans-76"/>
      <use x="972.509766" xlink:href="#DejaVuSans-61"/>
      <use x="1033.789062" xlink:href="#DejaVuSans-6c"/>
      <use x="1061.572266" xlink:href="#DejaVuSans-73"/>
      <use x="1113.671875" xlink:href="#DejaVuSans-20"/>
      <use x="1145.458984" xlink:href="#DejaVuSans-2f"/>
      <use x="1179.150391" xlink:href="#DejaVuSans-20"/>
      <use x="1210.9375" xlink:href="#DejaVuSans-64"/>
      <use x="1274.414062" xlink:href="#DejaVuSans-69"/>
      <use x="1302.197266" xlink:href="#DejaVuSans-6d"/>
      <use x="1399.609375" xlink:href="#DejaVuSans-65"/>
      <use x="1461.132812" xlink:href="#DejaVuSans-6e"/>
      <use x="1524.511719" xlink:href="#DejaVuSans-73"/>
      <use x="1576.611328" xlink:href="#DejaVuSans-69"/>
      <use x="1604.394531" xlink:href="#DejaVuSans-6f"/>
      <use x="1665.576172" xlink:href="#DejaVuSans-6e"/>
     </g>
    </g>
   </g>
   <g id="matplotlib.axis_2">
    <g id="ytick_1">
     <g id="line2d_11">
      <path clip-path="url(#p025d55ec49)" d="M 94.4775 298.245375 
L 451.5975 298.245375 
" style="fill:none;stroke:#b0b0b0;stroke-linecap:square;stroke-width:0.8;"/>
     </g>
     <g id="line2d_12">
      <defs>
       <path d="M 0 0 
L -3.5 0 
" id="m797caa0862" style="stroke:#000000;stroke-width:0.8;"/>
      </defs>
      <g>
       <use style="stroke:#000000;stroke-width:0.8;" x="94.4775" xlink:href="#m797caa0862" y="298.245375"/>
      </g>
     </g>
     <g id="text_7">
      <!-- 0.0 -->
      <defs>
       <path d="M 10.6875 12.40625 
L 21 12.40625 
L 21 0 
L 10.6875 0 
z
" id="DejaVuSans-2e"/>
      </defs>
      <g transform="translate(55.67125 305.843812)scale(0.2 -0.2)">
       <use xlink:href="#DejaVuSans-30"/>
       <use x="63.623047" xlink:href="#DejaVuSans-2e"/>
       <use x="95.410156" xlink:href="#DejaVuSans-30"/>
      </g>
     </g>
    </g>
    <g id="ytick_2">
     <g id="line2d_13">
      <path clip-path="url(#p025d55ec49)" d="M 94.4775 245.549929 
L 451.5975 245.549929 
" style="fill:none;stroke:#b0b0b0;stroke-linecap:square;stroke-width:0.8;"/>
     </g>
     <g id="line2d_14">
      <g>
       <use style="stroke:#000000;stroke-width:0.8;" x="94.4775" xlink:href="#m797caa0862" y="245.549929"/>
      </g>
     </g>
     <g id="text_8">
      <!-- 0.2 -->
      <g transform="translate(55.67125 253.148367)scale(0.2 -0.2)">
       <use xlink:href="#DejaVuSans-30"/>
       <use x="63.623047" xlink:href="#DejaVuSans-2e"/>
       <use x="95.410156" xlink:href="#DejaVuSans-32"/>
      </g>
     </g>
    </g>
    <g id="ytick_3">
     <g id="line2d_15">
      <path clip-path="url(#p025d55ec49)" d="M 94.4775 192.854484 
L 451.5975 192.854484 
" style="fill:none;stroke:#b0b0b0;stroke-linecap:square;stroke-width:0.8;"/>
     </g>
     <g id="line2d_16">
      <g>
       <use style="stroke:#000000;stroke-width:0.8;" x="94.4775" xlink:href="#m797caa0862" y="192.854484"/>
      </g>
     </g>
     <g id="text_9">
      <!-- 0.4 -->
      <g transform="translate(55.67125 200.452921)scale(0.2 -0.2)">
       <use xlink:href="#DejaVuSans-30"/>
       <use x="63.623047" xlink:href="#DejaVuSans-2e"/>
       <use x="95.410156" xlink:href="#DejaVuSans-34"/>
      </g>
     </g>
    </g>
    <g id="ytick_4">
     <g id="line2d_17">
      <path clip-path="url(#p025d55ec49)" d="M 94.4775 140.159038 
L 451.5975 140.159038 
" style="fill:none;stroke:#b0b0b0;stroke-linecap:square;stroke-width:0.8;"/>
     </g>
     <g id="line2d_18">
      <g>
       <use style="stroke:#000000;stroke-width:0.8;" x="94.4775" xlink:href="#m797caa0862" y="140.159038"/>
      </g>
     </g>
     <g id="text_10">
      <!-- 0.6 -->
      <g transform="translate(55.67125 147.757476)scale(0.2 -0.2)">
       <use xlink:href="#DejaVuSans-30"/>
       <use x="63.623047" xlink:href="#DejaVuSans-2e"/>
       <use x="95.410156" xlink:href="#DejaVuSans-36"/>
      </g>
     </g>
    </g>
    <g id="ytick_5">
     <g id="line2d_19">
      <path clip-path="url(#p025d55ec49)" d="M 94.4775 87.463593 
L 451.5975 87.463593 
" style="fill:none;stroke:#b0b0b0;stroke-linecap:square;stroke-width:0.8;"/>
     </g>
     <g id="line2d_20">
      <g>
       <use style="stroke:#000000;stroke-width:0.8;" x="94.4775" xlink:href="#m797caa0862" y="87.463593"/>
      </g>
     </g>
     <g id="text_11">
      <!-- 0.8 -->
      <g transform="translate(55.67125 95.06203)scale(0.2 -0.2)">
       <use xlink:href="#DejaVuSans-30"/>
       <use x="63.623047" xlink:href="#DejaVuSans-2e"/>
       <use x="95.410156" xlink:href="#DejaVuSans-38"/>
      </g>
     </g>
    </g>
    <g id="ytick_6">
     <g id="line2d_21">
      <path clip-path="url(#p025d55ec49)" d="M 94.4775 34.768147 
L 451.5975 34.768147 
" style="fill:none;stroke:#b0b0b0;stroke-linecap:square;stroke-width:0.8;"/>
     </g>
     <g id="line2d_22">
      <g>
       <use style="stroke:#000000;stroke-width:0.8;" x="94.4775" xlink:href="#m797caa0862" y="34.768147"/>
      </g>
     </g>
     <g id="text_12">
      <!-- 1.0 -->
      <g transform="translate(55.67125 42.366585)scale(0.2 -0.2)">
       <use xlink:href="#DejaVuSans-31"/>
       <use x="63.623047" xlink:href="#DejaVuSans-2e"/>
       <use x="95.410156" xlink:href="#DejaVuSans-30"/>
      </g>
     </g>
    </g>
    <g id="text_13">
     <!-- Proportion of function+target pairs -->
     <defs>
      <path d="M 19.671875 64.796875 
L 19.671875 37.40625 
L 32.078125 37.40625 
Q 38.96875 37.40625 42.71875 40.96875 
Q 46.484375 44.53125 46.484375 51.125 
Q 46.484375 57.671875 42.71875 61.234375 
Q 38.96875 64.796875 32.078125 64.796875 
z
M 9.8125 72.90625 
L 32.078125 72.90625 
Q 44.34375 72.90625 50.609375 67.359375 
Q 56.890625 61.8125 56.890625 51.125 
Q 56.890625 40.328125 50.609375 34.8125 
Q 44.34375 29.296875 32.078125 29.296875 
L 19.671875 29.296875 
L 19.671875 0 
L 9.8125 0 
z
" id="DejaVuSans-50"/>
      <path d="M 41.109375 46.296875 
Q 39.59375 47.171875 37.8125 47.578125 
Q 36.03125 48 33.890625 48 
Q 26.265625 48 22.1875 43.046875 
Q 18.109375 38.09375 18.109375 28.8125 
L 18.109375 0 
L 9.078125 0 
L 9.078125 54.6875 
L 18.109375 54.6875 
L 18.109375 46.1875 
Q 20.953125 51.171875 25.484375 53.578125 
Q 30.03125 56 36.53125 56 
Q 37.453125 56 38.578125 55.875 
Q 39.703125 55.765625 41.0625 55.515625 
z
" id="DejaVuSans-72"/>
      <path d="M 18.109375 8.203125 
L 18.109375 -20.796875 
L 9.078125 -20.796875 
L 9.078125 54.6875 
L 18.109375 54.6875 
L 18.109375 46.390625 
Q 20.953125 51.265625 25.265625 53.625 
Q 29.59375 56 35.59375 56 
Q 45.5625 56 51.78125 48.09375 
Q 58.015625 40.1875 58.015625 27.296875 
Q 58.015625 14.40625 51.78125 6.484375 
Q 45.5625 -1.421875 35.59375 -1.421875 
Q 29.59375 -1.421875 25.265625 0.953125 
Q 20.953125 3.328125 18.109375 8.203125 
z
M 48.6875 27.296875 
Q 48.6875 37.203125 44.609375 42.84375 
Q 40.53125 48.484375 33.40625 48.484375 
Q 26.265625 48.484375 22.1875 42.84375 
Q 18.109375 37.203125 18.109375 27.296875 
Q 18.109375 17.390625 22.1875 11.75 
Q 26.265625 6.109375 33.40625 6.109375 
Q 40.53125 6.109375 44.609375 11.75 
Q 48.6875 17.390625 48.6875 27.296875 
z
" id="DejaVuSans-70"/>
      <path d="M 18.3125 70.21875 
L 18.3125 54.6875 
L 36.8125 54.6875 
L 36.8125 47.703125 
L 18.3125 47.703125 
L 18.3125 18.015625 
Q 18.3125 11.328125 20.140625 9.421875 
Q 21.96875 7.515625 27.59375 7.515625 
L 36.8125 7.515625 
L 36.8125 0 
L 27.59375 0 
Q 17.1875 0 13.234375 3.875 
Q 9.28125 7.765625 9.28125 18.015625 
L 9.28125 47.703125 
L 2.6875 47.703125 
L 2.6875 54.6875 
L 9.28125 54.6875 
L 9.28125 70.21875 
z
" id="DejaVuSans-74"/>
      <path d="M 8.5 21.578125 
L 8.5 54.6875 
L 17.484375 54.6875 
L 17.484375 21.921875 
Q 17.484375 14.15625 20.5 10.265625 
Q 23.53125 6.390625 29.59375 6.390625 
Q 36.859375 6.390625 41.078125 11.03125 
Q 45.3125 15.671875 45.3125 23.6875 
L 45.3125 54.6875 
L 54.296875 54.6875 
L 54.296875 0 
L 45.3125 0 
L 45.3125 8.40625 
Q 42.046875 3.421875 37.71875 1 
Q 33.40625 -1.421875 27.6875 -1.421875 
Q 18.265625 -1.421875 13.375 4.4375 
Q 8.5 10.296875 8.5 21.578125 
z
M 31.109375 56 
z
" id="DejaVuSans-75"/>
      <path d="M 48.78125 52.59375 
L 48.78125 44.1875 
Q 44.96875 46.296875 41.140625 47.34375 
Q 37.3125 48.390625 33.40625 48.390625 
Q 24.65625 48.390625 19.8125 42.84375 
Q 14.984375 37.3125 14.984375 27.296875 
Q 14.984375 17.28125 19.8125 11.734375 
Q 24.65625 6.203125 33.40625 6.203125 
Q 37.3125 6.203125 41.140625 7.25 
Q 44.96875 8.296875 48.78125 10.40625 
L 48.78125 2.09375 
Q 45.015625 0.34375 40.984375 -0.53125 
Q 36.96875 -1.421875 32.421875 -1.421875 
Q 20.0625 -1.421875 12.78125 6.34375 
Q 5.515625 14.109375 5.515625 27.296875 
Q 5.515625 40.671875 12.859375 48.328125 
Q 20.21875 56 33.015625 56 
Q 37.15625 56 41.109375 55.140625 
Q 45.0625 54.296875 48.78125 52.59375 
z
" id="DejaVuSans-63"/>
     </defs>
     <g transform="translate(47.927812 323.17875)rotate(-90)scale(0.18 -0.18)">
      <use xlink:href="#DejaVuSans-50"/>
      <use x="60.287109" xlink:href="#DejaVuSans-72"/>
      <use x="101.369141" xlink:href="#DejaVuSans-6f"/>
      <use x="162.550781" xlink:href="#DejaVuSans-70"/>
      <use x="226.027344" xlink:href="#DejaVuSans-6f"/>
      <use x="287.208984" xlink:href="#DejaVuSans-72"/>
      <use x="328.322266" xlink:href="#DejaVuSans-74"/>
      <use x="367.53125" xlink:href="#DejaVuSans-69"/>
      <use x="395.314453" xlink:href="#DejaVuSans-6f"/>
      <use x="456.496094" xlink:href="#DejaVuSans-6e"/>
      <use x="519.875" xlink:href="#DejaVuSans-20"/>
      <use x="551.662109" xlink:href="#DejaVuSans-6f"/>
      <use x="612.84375" xlink:href="#DejaVuSans-66"/>
      <use x="648.048828" xlink:href="#DejaVuSans-20"/>
      <use x="679.835938" xlink:href="#DejaVuSans-66"/>
      <use x="715.041016" xlink:href="#DejaVuSans-75"/>
      <use x="778.419922" xlink:href="#DejaVuSans-6e"/>
      <use x="841.798828" xlink:href="#DejaVuSans-63"/>
      <use x="896.779297" xlink:href="#DejaVuSans-74"/>
      <use x="935.988281" xlink:href="#DejaVuSans-69"/>
      <use x="963.771484" xlink:href="#DejaVuSans-6f"/>
      <use x="1024.953125" xlink:href="#DejaVuSans-6e"/>
      <use x="1088.332031" xlink:href="#DejaVuSans-2b"/>
      <use x="1172.121094" xlink:href="#DejaVuSans-74"/>
      <use x="1211.330078" xlink:href="#DejaVuSans-61"/>
      <use x="1272.609375" xlink:href="#DejaVuSans-72"/>
      <use x="1313.707031" xlink:href="#DejaVuSans-67"/>
      <use x="1377.183594" xlink:href="#DejaVuSans-65"/>
      <use x="1438.707031" xlink:href="#DejaVuSans-74"/>
      <use x="1477.916016" xlink:href="#DejaVuSans-20"/>
      <use x="1509.703125" xlink:href="#DejaVuSans-70"/>
      <use x="1573.179688" xlink:href="#DejaVuSans-61"/>
      <use x="1634.458984" xlink:href="#DejaVuSans-69"/>
      <use x="1662.242188" xlink:href="#DejaVuSans-72"/>
      <use x="1703.355469" xlink:href="#DejaVuSans-73"/>
     </g>
    </g>
   </g>
   <g id="line2d_23">
    <defs>
     <path d="M 0 1.5 
C 0.397805 1.5 0.77937 1.341951 1.06066 1.06066 
C 1.341951 0.77937 1.5 0.397805 1.5 0 
C 1.5 -0.397805 1.341951 -0.77937 1.06066 -1.06066 
C 0.77937 -1.341951 0.397805 -1.5 0 -1.5 
C -0.397805 -1.5 -0.77937 -1.341951 -1.06066 -1.06066 
C -1.341951 -0.77937 -1.5 -0.397805 -1.5 0 
C -1.5 0.397805 -1.341951 0.77937 -1.06066 1.06066 
C -0.77937 1.341951 -0.397805 1.5 0 1.5 
z
" id="m67114808f4" style="stroke:#000080;"/>
    </defs>
    <g>
     <use style="fill:#000080;stroke:#000080;" x="270.154169" xlink:href="#m67114808f4" y="34.768147"/>
     <use style="fill:#000080;stroke:#000080;" x="270.154169" xlink:href="#m67114808f4" y="34.768147"/>
    </g>
   </g>
   <g id="line2d_24">
    <path d="M 65.719877 298.245375 
L 65.719877 296.990722 
L 106.862734 296.990722 
L 106.862734 295.736068 
L 117.365374 295.736068 
L 117.365374 291.972108 
L 131.633202 291.972108 
L 131.633202 290.717454 
L 132.504991 290.717454 
L 132.504991 289.462801 
L 138.272343 289.462801 
L 138.272343 288.208147 
L 140.581113 288.208147 
L 140.581113 286.953494 
L 141.114529 286.953494 
L 141.114529 284.444187 
L 141.632482 284.444187 
L 141.632482 283.189533 
L 142.135843 283.189533 
L 142.135843 281.93488 
L 142.625411 281.93488 
L 142.625411 280.680226 
L 146.899994 280.680226 
L 146.899994 279.425573 
L 148.359427 279.425573 
L 148.359427 278.17092 
L 150.346819 278.17092 
L 150.346819 275.661613 
L 156.178911 275.661613 
L 156.178911 274.406959 
L 158.508231 274.406959 
L 158.508231 271.897652 
L 158.705671 271.897652 
L 158.705671 269.388345 
L 160.568619 269.388345 
L 160.568619 268.133692 
L 161.177324 268.133692 
L 161.177324 265.624385 
L 162.012435 265.624385 
L 162.012435 264.369731 
L 162.732054 264.369731 
L 162.732054 263.115078 
L 173.47686 263.115078 
L 173.47686 259.351118 
L 178.563425 259.351118 
L 178.563425 256.841811 
L 182.826318 256.841811 
L 182.826318 255.587157 
L 184.913902 255.587157 
L 184.913902 253.07785 
L 185.049267 253.07785 
L 185.049267 250.568543 
L 186.328429 250.568543 
L 186.328429 249.31389 
L 187.463294 249.31389 
L 187.463294 248.059236 
L 187.736095 248.059236 
L 187.736095 246.804583 
L 194.176759 246.804583 
L 194.270908 241.785969 
L 194.471001 241.785969 
L 194.471001 240.531316 
L 194.99388 240.531316 
L 194.99388 239.276662 
L 196.630013 239.276662 
L 196.630013 238.022009 
L 199.004208 238.022009 
L 199.004208 236.767355 
L 207.615866 236.767355 
L 207.615866 234.258048 
L 207.792967 234.258048 
L 207.792967 233.003395 
L 208.423672 233.003395 
L 208.423672 231.748741 
L 208.592982 231.748741 
L 208.592982 230.494088 
L 209.729606 230.494088 
L 209.729606 229.239434 
L 211.057003 229.239434 
L 211.057003 226.730127 
L 211.203207 226.730127 
L 211.203207 222.966167 
L 214.705415 222.966167 
L 214.705415 221.711514 
L 215.231915 221.711514 
L 215.231915 212.928939 
L 219.501553 212.928939 
L 219.557029 190.345177 
L 219.65775 190.345177 
L 219.65775 189.090524 
L 220.74195 189.090524 
L 220.74195 186.581217 
L 221.261819 186.581217 
L 221.350451 179.053296 
L 221.391663 179.053296 
L 221.450372 170.270722 
L 221.605025 170.270722 
L 221.628253 158.97884 
L 222.472662 158.97884 
L 222.505843 153.960226 
L 222.616004 153.960226 
L 222.616004 146.432306 
L 224.040302 146.432306 
L 224.141424 141.413692 
L 225.33348 141.413692 
L 225.33348 140.159038 
L 229.204707 140.159038 
L 229.212301 137.649731 
L 230.129764 137.649731 
L 230.129764 136.395078 
L 231.836056 136.395078 
L 231.836056 133.885771 
L 233.159172 133.885771 
L 233.159172 132.631118 
L 234.31844 132.631118 
L 234.381085 130.121811 
L 238.4216 130.121811 
L 238.47254 125.103197 
L 239.286801 125.103197 
L 239.29328 122.59389 
L 239.41701 122.59389 
L 239.4288 118.829929 
L 240.631403 118.829929 
L 240.673427 110.047355 
L 241.212868 110.047355 
L 241.29317 105.028741 
L 241.605126 105.028741 
L 241.605126 103.774088 
L 242.148862 103.774088 
L 242.185631 97.500821 
L 242.855218 97.500821 
L 242.855218 96.246167 
L 244.195049 96.246167 
L 244.195049 94.991514 
L 244.602322 94.991514 
L 244.606332 91.227553 
L 245.058473 91.227553 
L 245.109225 88.718246 
L 245.796015 88.718246 
L 245.825253 86.208939 
L 248.791746 86.208939 
L 248.797456 83.699632 
L 249.339078 83.699632 
L 249.339078 82.444979 
L 250.041938 82.444979 
L 250.049035 79.935672 
L 250.374846 79.935672 
L 250.444392 67.389137 
L 250.627391 67.389137 
L 250.627391 66.134484 
L 250.959221 66.134484 
L 250.97495 63.625177 
L 252.237046 63.625177 
L 252.237046 62.370524 
L 252.785752 62.370524 
L 252.785752 61.11587 
L 254.097704 61.11587 
L 254.097704 59.861217 
L 255.079187 59.861217 
L 255.079187 58.606563 
L 255.299176 58.606563 
L 255.299176 57.35191 
L 255.676031 57.35191 
L 255.676031 56.097256 
L 256.180722 56.097256 
L 256.1824 53.587949 
L 256.423268 53.587949 
L 256.425751 49.823989 
L 256.604475 49.823989 
L 256.604885 47.314682 
L 256.836926 47.314682 
L 256.842992 43.550722 
L 258.529347 43.550722 
L 258.529347 42.296068 
L 260.345816 42.296068 
L 260.351797 39.786761 
L 261.252956 39.786761 
L 261.252956 38.532108 
L 264.516279 38.532108 
L 264.516279 37.277454 
L 267.106296 37.277454 
L 267.106296 36.022801 
L 270.154169 36.022801 
L 270.154169 34.768147 
L 382.4775 34.768147 
L 382.4775 34.768147 
" style="fill:none;stroke:#000080;stroke-linecap:square;stroke-width:1.5;"/>
   </g>
   <g id="line2d_25">
    <defs>
     <path d="M 0 6 
C 1.591219 6 3.117479 5.367802 4.242641 4.242641 
C 5.367802 3.117479 6 1.591219 6 0 
C 6 -1.591219 5.367802 -3.117479 4.242641 -4.242641 
C 3.117479 -5.367802 1.591219 -6 0 -6 
C -1.591219 -6 -3.117479 -5.367802 -4.242641 -4.242641 
C -5.367802 -3.117479 -6 -1.591219 -6 0 
C -6 1.591219 -5.367802 3.117479 -4.242641 4.242641 
C -3.117479 5.367802 -1.591219 6 0 6 
z
" id="m6f6f4ce9ee" style="stroke:#000080;stroke-width:1.5;"/>
    </defs>
    <g>
     <use style="fill:none;stroke:#000080;stroke-width:1.5;" x="117.365374" xlink:href="#m6f6f4ce9ee" y="295.736068"/>
     <use style="fill:none;stroke:#000080;stroke-width:1.5;" x="194.230619" xlink:href="#m6f6f4ce9ee" y="244.295276"/>
     <use style="fill:none;stroke:#000080;stroke-width:1.5;" x="234.381085" xlink:href="#m6f6f4ce9ee" y="131.376464"/>
     <use style="fill:none;stroke:#000080;stroke-width:1.5;" x="256.841779" xlink:href="#m6f6f4ce9ee" y="44.805375"/>
     <use style="fill:none;stroke:#000080;stroke-width:1.5;" x="270.154169" xlink:href="#m6f6f4ce9ee" y="34.768147"/>
     <use style="fill:none;stroke:#000080;stroke-width:1.5;" x="382.4775" xlink:href="#m6f6f4ce9ee" y="34.768147"/>
    </g>
   </g>
   <g id="line2d_26"/>
   <g id="line2d_27">
    <path clip-path="url(#p025d55ec49)" d="M 234.08588 132.631118 
" style="fill:none;stroke:#000080;stroke-linecap:square;stroke-width:1.5;"/>
    <defs>
     <path d="M -12 12 
L 12 -12 
M -12 -12 
L 12 12 
" id="m084797d6a9" style="stroke:#000080;stroke-width:3;"/>
    </defs>
    <g clip-path="url(#p025d55ec49)">
     <use style="fill:#000080;stroke:#000080;stroke-width:3;" x="234.08588" xlink:href="#m084797d6a9" y="132.631118"/>
    </g>
   </g>
   <g id="line2d_28">
    <defs>
     <path d="M 0 1.5 
C 0.397805 1.5 0.77937 1.341951 1.06066 1.06066 
C 1.341951 0.77937 1.5 0.397805 1.5 0 
C 1.5 -0.397805 1.341951 -0.77937 1.06066 -1.06066 
C 0.77937 -1.341951 0.397805 -1.5 0 -1.5 
C -0.397805 -1.5 -0.77937 -1.341951 -1.06066 -1.06066 
C -1.341951 -0.77937 -1.5 -0.397805 -1.5 0 
C -1.5 0.397805 -1.341951 0.77937 -1.06066 1.06066 
C -0.77937 1.341951 -0.397805 1.5 0 1.5 
z
" id="m9750882370" style="stroke:#ff00ff;"/>
    </defs>
    <g>
     <use style="fill:#ff00ff;stroke:#ff00ff;" x="284.756497" xlink:href="#m9750882370" y="34.768147"/>
     <use style="fill:#ff00ff;stroke:#ff00ff;" x="284.756497" xlink:href="#m9750882370" y="34.768147"/>
    </g>
   </g>
   <g id="line2d_29">
    <path d="M 65.719877 298.245375 
L 65.719877 286.953494 
L 90.490345 286.953494 
L 90.490345 285.69884 
L 106.862734 285.69884 
L 106.862734 284.444187 
L 125.260093 284.444187 
L 125.260093 283.189533 
L 141.632482 283.189533 
L 141.632482 281.93488 
L 142.135843 281.93488 
L 142.135843 280.680226 
L 145.31067 280.680226 
L 145.31067 279.425573 
L 148.359427 279.425573 
L 148.359427 278.17092 
L 150.346819 278.17092 
L 150.346819 274.406959 
L 156.178911 274.406959 
L 156.178911 273.152306 
L 158.508231 273.152306 
L 158.508231 271.897652 
L 158.705671 271.897652 
L 158.705671 269.388345 
L 159.661413 269.388345 
L 159.661413 268.133692 
L 159.846577 268.133692 
L 159.846577 266.879038 
L 160.568619 266.879038 
L 160.568619 263.115078 
L 160.832036 263.115078 
L 160.832036 260.605771 
L 162.732054 260.605771 
L 162.732054 259.351118 
L 172.596479 259.351118 
L 172.596479 258.096464 
L 173.47686 258.096464 
L 173.47686 256.841811 
L 177.221849 256.841811 
L 177.221849 255.587157 
L 177.770625 255.587157 
L 177.770625 246.804583 
L 179.135763 246.804583 
L 179.135763 238.022009 
L 179.871432 238.022009 
L 179.871432 236.767355 
L 182.826318 236.767355 
L 182.826318 235.512702 
L 183.253866 235.512702 
L 183.253866 234.258048 
L 183.59844 234.258048 
L 183.59844 233.003395 
L 183.792398 233.003395 
L 183.792398 231.748741 
L 185.405306 231.748741 
L 185.405306 230.494088 
L 186.782903 230.494088 
L 186.782903 229.239434 
L 187.580719 229.239434 
L 187.580719 224.220821 
L 193.767547 224.220821 
L 193.767547 222.966167 
L 194.364564 222.966167 
L 194.364564 221.711514 
L 196.665244 221.711514 
L 196.665244 219.202207 
L 199.750081 219.202207 
L 199.750081 217.947553 
L 200.351889 217.947553 
L 200.351889 216.6929 
L 200.841457 216.6929 
L 200.841457 215.438246 
L 207.282233 215.438246 
L 207.282233 212.928939 
L 215.132023 212.928939 
L 215.132023 210.419632 
L 215.779609 210.419632 
L 215.779609 209.164979 
L 215.947875 209.164979 
L 215.947875 207.910325 
L 222.467126 207.910325 
L 222.577525 200.382405 
L 222.676305 200.382405 
L 222.676305 194.109137 
L 225.782913 194.109137 
L 225.782913 192.854484 
L 227.882874 192.854484 
L 227.882874 191.59983 
L 228.596331 191.59983 
L 228.596331 186.581217 
L 229.721249 186.581217 
L 229.721249 185.326563 
L 231.188602 185.326563 
L 231.293649 169.016068 
L 233.5088 169.016068 
L 233.5088 167.761415 
L 233.748942 167.761415 
L 233.748942 166.506761 
L 234.83297 166.506761 
L 234.889696 162.742801 
L 235.101172 162.742801 
L 235.101172 161.488147 
L 235.293975 161.488147 
L 235.368097 148.941613 
L 235.856284 148.941613 
L 235.856284 147.686959 
L 241.592789 147.686959 
L 241.665734 140.159038 
L 242.150702 140.159038 
L 242.150702 138.904385 
L 245.053781 138.904385 
L 245.128707 126.35785 
L 246.198847 126.35785 
L 246.198847 125.103197 
L 246.639377 125.103197 
L 246.639377 123.848543 
L 246.842903 123.848543 
L 246.869065 118.829929 
L 247.092349 118.829929 
L 247.131382 115.065969 
L 250.614218 115.065969 
L 250.659995 111.302009 
L 251.353849 111.302009 
L 251.353849 110.047355 
L 252.78626 110.047355 
L 252.830853 97.500821 
L 253.958078 97.500821 
L 253.992257 91.227553 
L 254.145259 91.227553 
L 254.145259 89.9729 
L 256.580283 89.9729 
L 256.596278 86.208939 
L 258.162107 86.208939 
L 258.195874 81.190325 
L 259.046784 81.190325 
L 259.059646 73.662405 
L 259.18173 73.662405 
L 259.186695 71.153098 
L 259.327279 71.153098 
L 259.327279 69.898444 
L 260.406863 69.898444 
L 260.406863 68.643791 
L 262.292073 68.643791 
L 262.319472 62.370524 
L 263.099723 62.370524 
L 263.099723 61.11587 
L 264.612075 61.11587 
L 264.612075 59.861217 
L 265.644393 59.861217 
L 265.665628 54.842603 
L 266.236317 54.842603 
L 266.236317 53.587949 
L 268.45864 53.587949 
L 268.476992 49.823989 
L 269.042081 49.823989 
L 269.042081 48.569335 
L 270.141303 48.569335 
L 270.141303 47.314682 
L 271.338132 47.314682 
L 271.338132 46.060028 
L 272.374569 46.060028 
L 272.374569 44.805375 
L 273.045162 44.805375 
L 273.053324 42.296068 
L 273.433908 42.296068 
L 273.433908 41.041415 
L 276.683341 41.041415 
L 276.683341 39.786761 
L 278.593685 39.786761 
L 278.593685 38.532108 
L 279.704251 38.532108 
L 279.704251 37.277454 
L 280.620451 37.277454 
L 280.620451 36.022801 
L 284.756497 36.022801 
L 284.756497 34.768147 
L 382.4775 34.768147 
L 382.4775 34.768147 
" style="fill:none;stroke:#ff00ff;stroke-linecap:square;stroke-width:1.5;"/>
   </g>
   <g id="line2d_30">
    <defs>
     <path d="M -0 8.485281 
L 5.091169 0 
L 0 -8.485281 
L -5.091169 -0 
z
" id="m1a7a88dab6" style="stroke:#ff00ff;stroke-linejoin:miter;stroke-width:1.5;"/>
    </defs>
    <g>
     <use style="fill:none;stroke:#ff00ff;stroke-linejoin:miter;stroke-width:1.5;" x="162.732054" xlink:href="#m1a7a88dab6" y="259.351118"/>
     <use style="fill:none;stroke:#ff00ff;stroke-linejoin:miter;stroke-width:1.5;" x="222.676305" xlink:href="#m1a7a88dab6" y="200.382405"/>
     <use style="fill:none;stroke:#ff00ff;stroke-linejoin:miter;stroke-width:1.5;" x="259.046784" xlink:href="#m1a7a88dab6" y="81.190325"/>
     <use style="fill:none;stroke:#ff00ff;stroke-linejoin:miter;stroke-width:1.5;" x="284.756497" xlink:href="#m1a7a88dab6" y="34.768147"/>
     <use style="fill:none;stroke:#ff00ff;stroke-linejoin:miter;stroke-width:1.5;" x="284.756497" xlink:href="#m1a7a88dab6" y="34.768147"/>
     <use style="fill:none;stroke:#ff00ff;stroke-linejoin:miter;stroke-width:1.5;" x="382.4775" xlink:href="#m1a7a88dab6" y="34.768147"/>
    </g>
   </g>
   <g id="line2d_31"/>
   <g id="line2d_32">
    <path clip-path="url(#p025d55ec49)" d="M 234.08588 166.506761 
" style="fill:none;stroke:#ff00ff;stroke-linecap:square;stroke-width:1.5;"/>
    <defs>
     <path d="M -12 12 
L 12 -12 
M -12 -12 
L 12 12 
" id="m7102b13abd" style="stroke:#ff00ff;stroke-width:3;"/>
    </defs>
    <g clip-path="url(#p025d55ec49)">
     <use style="fill:#ff00ff;stroke:#ff00ff;stroke-width:3;" x="234.08588" xlink:href="#m7102b13abd" y="166.506761"/>
    </g>
   </g>
   <g id="line2d_33">
    <path d="M 382.4775 34.768147 
L 414.1575 292.97583 
" style="fill:none;stroke:#ff00ff;stroke-linecap:square;stroke-width:1.5;"/>
    <g>
     <use style="fill:none;stroke:#ff00ff;stroke-linejoin:miter;stroke-width:1.5;" x="382.4775" xlink:href="#m1a7a88dab6" y="34.768147"/>
     <use style="fill:none;stroke:#ff00ff;stroke-linejoin:miter;stroke-width:1.5;" x="414.1575" xlink:href="#m1a7a88dab6" y="292.97583"/>
    </g>
   </g>
   <g id="line2d_34">
    <path d="M 382.4775 34.768147 
L 414.1575 40.037692 
" style="fill:none;stroke:#000080;stroke-linecap:square;stroke-width:1.5;"/>
    <g>
     <use style="fill:none;stroke:#000080;stroke-width:1.5;" x="382.4775" xlink:href="#m6f6f4ce9ee" y="34.768147"/>
     <use style="fill:none;stroke:#000080;stroke-width:1.5;" x="414.1575" xlink:href="#m6f6f4ce9ee" y="40.037692"/>
    </g>
   </g>
   <g id="line2d_35">
    <path d="M 382.4775 298.245375 
L 382.4775 34.768147 
" style="fill:none;stroke:#000000;stroke-linecap:square;stroke-width:1.5;"/>
   </g>
   <g id="patch_3">
    <path d="M 94.4775 298.245375 
L 94.4775 32.133375 
" style="fill:none;stroke:#000000;stroke-linecap:square;stroke-linejoin:miter;stroke-width:0.8;"/>
   </g>
   <g id="patch_4">
    <path d="M 451.5975 298.245375 
L 451.5975 32.133375 
" style="fill:none;stroke:#000000;stroke-linecap:square;stroke-linejoin:miter;stroke-width:0.8;"/>
   </g>
   <g id="patch_5">
    <path d="M 94.4775 298.245375 
L 451.5975 298.245375 
" style="fill:none;stroke:#000000;stroke-linecap:square;stroke-linejoin:miter;stroke-width:0.8;"/>
   </g>
   <g id="patch_6">
    <path d="M 94.4775 32.133375 
L 451.5975 32.133375 
" style="fill:none;stroke:#000000;stroke-linecap:square;stroke-linejoin:miter;stroke-width:0.8;"/>
   </g>
   <g id="text_14">
    <!-- cobyla 1e- -->
    <defs>
     <path d="M 48.6875 27.296875 
Q 48.6875 37.203125 44.609375 42.84375 
Q 40.53125 48.484375 33.40625 48.484375 
Q 26.265625 48.484375 22.1875 42.84375 
Q 18.109375 37.203125 18.109375 27.296875 
Q 18.109375 17.390625 22.1875 11.75 
Q 26.265625 6.109375 33.40625 6.109375 
Q 40.53125 6.109375 44.609375 11.75 
Q 48.6875 17.390625 48.6875 27.296875 
z
M 18.109375 46.390625 
Q 20.953125 51.265625 25.265625 53.625 
Q 29.59375 56 35.59375 56 
Q 45.5625 56 51.78125 48.09375 
Q 58.015625 40.1875 58.015625 27.296875 
Q 58.015625 14.40625 51.78125 6.484375 
Q 45.5625 -1.421875 35.59375 -1.421875 
Q 29.59375 -1.421875 25.265625 0.953125 
Q 20.953125 3.328125 18.109375 8.203125 
L 18.109375 0 
L 9.078125 0 
L 9.078125 75.984375 
L 18.109375 75.984375 
z
" id="DejaVuSans-62"/>
     <path d="M 32.171875 -5.078125 
Q 28.375 -14.84375 24.75 -17.8125 
Q 21.140625 -20.796875 15.09375 -20.796875 
L 7.90625 -20.796875 
L 7.90625 -13.28125 
L 13.1875 -13.28125 
Q 16.890625 -13.28125 18.9375 -11.515625 
Q 21 -9.765625 23.484375 -3.21875 
L 25.09375 0.875 
L 2.984375 54.6875 
L 12.5 54.6875 
L 29.59375 11.921875 
L 46.6875 54.6875 
L 56.203125 54.6875 
z
" id="DejaVuSans-79"/>
    </defs>
    <g transform="translate(419.9175 297.114893)scale(0.15 -0.15)">
     <use xlink:href="#DejaVuSans-63"/>
     <use x="54.980469" xlink:href="#DejaVuSans-6f"/>
     <use x="116.162109" xlink:href="#DejaVuSans-62"/>
     <use x="179.638672" xlink:href="#DejaVuSans-79"/>
     <use x="238.818359" xlink:href="#DejaVuSans-6c"/>
     <use x="266.601562" xlink:href="#DejaVuSans-61"/>
     <use x="327.880859" xlink:href="#DejaVuSans-20"/>
     <use x="359.667969" xlink:href="#DejaVuSans-31"/>
     <use x="423.291016" xlink:href="#DejaVuSans-65"/>
     <use x="484.814453" xlink:href="#DejaVuSans-2d"/>
    </g>
   </g>
   <g id="text_15">
    <!-- cobyla 0.0 -->
    <g transform="translate(419.9175 44.176754)scale(0.15 -0.15)">
     <use xlink:href="#DejaVuSans-63"/>
     <use x="54.980469" xlink:href="#DejaVuSans-6f"/>
     <use x="116.162109" xlink:href="#DejaVuSans-62"/>
     <use x="179.638672" xlink:href="#DejaVuSans-79"/>
     <use x="238.818359" xlink:href="#DejaVuSans-6c"/>
     <use x="266.601562" xlink:href="#DejaVuSans-61"/>
     <use x="327.880859" xlink:href="#DejaVuSans-20"/>
     <use x="359.667969" xlink:href="#DejaVuSans-30"/>
     <use x="423.291016" xlink:href="#DejaVuSans-2e"/>
     <use x="455.078125" xlink:href="#DejaVuSans-30"/>
    </g>
   </g>
   <g id="text_16">
    <!-- bbob-constrained - f48, 5-D -->
    <defs>
     <path d="M 11.71875 12.40625 
L 22.015625 12.40625 
L 22.015625 4 
L 14.015625 -11.625 
L 7.71875 -11.625 
L 11.71875 4 
z
" id="DejaVuSans-2c"/>
     <path d="M 10.796875 72.90625 
L 49.515625 72.90625 
L 49.515625 64.59375 
L 19.828125 64.59375 
L 19.828125 46.734375 
Q 21.96875 47.46875 24.109375 47.828125 
Q 26.265625 48.1875 28.421875 48.1875 
Q 40.625 48.1875 47.75 41.5 
Q 54.890625 34.8125 54.890625 23.390625 
Q 54.890625 11.625 47.5625 5.09375 
Q 40.234375 -1.421875 26.90625 -1.421875 
Q 22.3125 -1.421875 17.546875 -0.640625 
Q 12.796875 0.140625 7.71875 1.703125 
L 7.71875 11.625 
Q 12.109375 9.234375 16.796875 8.0625 
Q 21.484375 6.890625 26.703125 6.890625 
Q 35.15625 6.890625 40.078125 11.328125 
Q 45.015625 15.765625 45.015625 23.390625 
Q 45.015625 31 40.078125 35.4375 
Q 35.15625 39.890625 26.703125 39.890625 
Q 22.75 39.890625 18.8125 39.015625 
Q 14.890625 38.140625 10.796875 36.28125 
z
" id="DejaVuSans-35"/>
     <path d="M 19.671875 64.796875 
L 19.671875 8.109375 
L 31.59375 8.109375 
Q 46.6875 8.109375 53.6875 14.9375 
Q 60.6875 21.78125 60.6875 36.53125 
Q 60.6875 51.171875 53.6875 57.984375 
Q 46.6875 64.796875 31.59375 64.796875 
z
M 9.8125 72.90625 
L 30.078125 72.90625 
Q 51.265625 72.90625 61.171875 64.09375 
Q 71.09375 55.28125 71.09375 36.53125 
Q 71.09375 17.671875 61.125 8.828125 
Q 51.171875 0 30.078125 0 
L 9.8125 0 
z
" id="DejaVuSans-44"/>
    </defs>
    <g transform="translate(98.0487 50.114612)scale(0.1666 -0.1666)">
     <use xlink:href="#DejaVuSans-62"/>
     <use x="63.476562" xlink:href="#DejaVuSans-62"/>
     <use x="126.953125" xlink:href="#DejaVuSans-6f"/>
     <use x="188.134766" xlink:href="#DejaVuSans-62"/>
     <use x="251.611328" xlink:href="#DejaVuSans-2d"/>
     <use x="287.695312" xlink:href="#DejaVuSans-63"/>
     <use x="342.675781" xlink:href="#DejaVuSans-6f"/>
     <use x="403.857422" xlink:href="#DejaVuSans-6e"/>
     <use x="467.236328" xlink:href="#DejaVuSans-73"/>
     <use x="519.335938" xlink:href="#DejaVuSans-74"/>
     <use x="558.544922" xlink:href="#DejaVuSans-72"/>
     <use x="599.658203" xlink:href="#DejaVuSans-61"/>
     <use x="660.9375" xlink:href="#DejaVuSans-69"/>
     <use x="688.720703" xlink:href="#DejaVuSans-6e"/>
     <use x="752.099609" xlink:href="#DejaVuSans-65"/>
     <use x="813.623047" xlink:href="#DejaVuSans-64"/>
     <use x="877.099609" xlink:href="#DejaVuSans-20"/>
     <use x="908.886719" xlink:href="#DejaVuSans-2d"/>
     <use x="944.970703" xlink:href="#DejaVuSans-20"/>
     <use x="976.757812" xlink:href="#DejaVuSans-66"/>
     <use x="1011.962891" xlink:href="#DejaVuSans-34"/>
     <use x="1075.585938" xlink:href="#DejaVuSans-38"/>
     <use x="1139.208984" xlink:href="#DejaVuSans-2c"/>
     <use x="1170.996094" xlink:href="#DejaVuSans-20"/>
     <use x="1202.783203" xlink:href="#DejaVuSans-35"/>
     <use x="1266.40625" xlink:href="#DejaVuSans-2d"/>
     <use x="1302.490234" xlink:href="#DejaVuSans-44"/>
    </g>
    <!-- 21 targets in 100..0.010 -->
    <g transform="translate(98.0487 68.770168)scale(0.1666 -0.1666)">
     <use xlink:href="#DejaVuSans-32"/>
     <use x="63.623047" xlink:href="#DejaVuSans-31"/>
     <use x="127.246094" xlink:href="#DejaVuSans-20"/>
     <use x="159.033203" xlink:href="#DejaVuSans-74"/>
     <use x="198.242188" xlink:href="#DejaVuSans-61"/>
     <use x="259.521484" xlink:href="#DejaVuSans-72"/>
     <use x="300.619141" xlink:href="#DejaVuSans-67"/>
     <use x="364.095703" xlink:href="#DejaVuSans-65"/>
     <use x="425.619141" xlink:href="#DejaVuSans-74"/>
     <use x="464.828125" xlink:href="#DejaVuSans-73"/>
     <use x="516.927734" xlink:href="#DejaVuSans-20"/>
     <use x="548.714844" xlink:href="#DejaVuSans-69"/>
     <use x="576.498047" xlink:href="#DejaVuSans-6e"/>
     <use x="639.876953" xlink:href="#DejaVuSans-20"/>
     <use x="671.664062" xlink:href="#DejaVuSans-31"/>
     <use x="735.287109" xlink:href="#DejaVuSans-30"/>
     <use x="798.910156" xlink:href="#DejaVuSans-30"/>
     <use x="862.533203" xlink:href="#DejaVuSans-2e"/>
     <use x="894.320312" xlink:href="#DejaVuSans-2e"/>
     <use x="926.107422" xlink:href="#DejaVuSans-30"/>
     <use x="989.730469" xlink:href="#DejaVuSans-2e"/>
     <use x="1021.517578" xlink:href="#DejaVuSans-30"/>
     <use x="1085.140625" xlink:href="#DejaVuSans-31"/>
     <use x="1148.763672" xlink:href="#DejaVuSans-30"/>
    </g>
    <!-- 15 instances -->
    <g transform="translate(98.0487 87.425723)scale(0.1666 -0.1666)">
     <use xlink:href="#DejaVuSans-31"/>
     <use x="63.623047" xlink:href="#DejaVuSans-35"/>
     <use x="127.246094" xlink:href="#DejaVuSans-20"/>
     <use x="159.033203" xlink:href="#DejaVuSans-69"/>
     <use x="186.816406" xlink:href="#DejaVuSans-6e"/>
     <use x="250.195312" xlink:href="#DejaVuSans-73"/>
     <use x="302.294922" xlink:href="#DejaVuSans-74"/>
     <use x="341.503906" xlink:href="#DejaVuSans-61"/>
     <use x="402.783203" xlink:href="#DejaVuSans-6e"/>
     <use x="466.162109" xlink:href="#DejaVuSans-63"/>
     <use x="521.142578" xlink:href="#DejaVuSans-65"/>
     <use x="582.666016" xlink:href="#DejaVuSans-73"/>
    </g>
   </g>
   <g id="text_17">
    <!-- v2.0.361 -->
    <defs>
     <path d="M 40.578125 39.3125 
Q 47.65625 37.796875 51.625 33 
Q 55.609375 28.21875 55.609375 21.1875 
Q 55.609375 10.40625 48.1875 4.484375 
Q 40.765625 -1.421875 27.09375 -1.421875 
Q 22.515625 -1.421875 17.65625 -0.515625 
Q 12.796875 0.390625 7.625 2.203125 
L 7.625 11.71875 
Q 11.71875 9.328125 16.59375 8.109375 
Q 21.484375 6.890625 26.8125 6.890625 
Q 36.078125 6.890625 40.9375 10.546875 
Q 45.796875 14.203125 45.796875 21.1875 
Q 45.796875 27.640625 41.28125 31.265625 
Q 36.765625 34.90625 28.71875 34.90625 
L 20.21875 34.90625 
L 20.21875 43.015625 
L 29.109375 43.015625 
Q 36.375 43.015625 40.234375 45.921875 
Q 44.09375 48.828125 44.09375 54.296875 
Q 44.09375 59.90625 40.109375 62.90625 
Q 36.140625 65.921875 28.71875 65.921875 
Q 24.65625 65.921875 20.015625 65.03125 
Q 15.375 64.15625 9.8125 62.3125 
L 9.8125 71.09375 
Q 15.4375 72.65625 20.34375 73.4375 
Q 25.25 74.21875 29.59375 74.21875 
Q 40.828125 74.21875 47.359375 69.109375 
Q 53.90625 64.015625 53.90625 55.328125 
Q 53.90625 49.265625 50.4375 45.09375 
Q 46.96875 40.921875 40.578125 39.3125 
z
" id="DejaVuSans-33"/>
    </defs>
    <g style="fill:#808080;" transform="translate(250.99375 293.504568)scale(0.1 -0.1)">
     <use xlink:href="#DejaVuSans-76"/>
     <use x="59.179688" xlink:href="#DejaVuSans-32"/>
     <use x="122.802734" xlink:href="#DejaVuSans-2e"/>
     <use x="154.589844" xlink:href="#DejaVuSans-30"/>
     <use x="218.212891" xlink:href="#DejaVuSans-2e"/>
     <use x="250" xlink:href="#DejaVuSans-33"/>
     <use x="313.623047" xlink:href="#DejaVuSans-36"/>
     <use x="377.246094" xlink:href="#DejaVuSans-31"/>
    </g>
   </g>
   <g id="text_18">
    <!-- 48 Separable Rastrigin with n+1 constraints -->
    <defs>
     <path d="M 53.515625 70.515625 
L 53.515625 60.890625 
Q 47.90625 63.578125 42.921875 64.890625 
Q 37.9375 66.21875 33.296875 66.21875 
Q 25.25 66.21875 20.875 63.09375 
Q 16.5 59.96875 16.5 54.203125 
Q 16.5 49.359375 19.40625 46.890625 
Q 22.3125 44.4375 30.421875 42.921875 
L 36.375 41.703125 
Q 47.40625 39.59375 52.65625 34.296875 
Q 57.90625 29 57.90625 20.125 
Q 57.90625 9.515625 50.796875 4.046875 
Q 43.703125 -1.421875 29.984375 -1.421875 
Q 24.8125 -1.421875 18.96875 -0.25 
Q 13.140625 0.921875 6.890625 3.21875 
L 6.890625 13.375 
Q 12.890625 10.015625 18.65625 8.296875 
Q 24.421875 6.59375 29.984375 6.59375 
Q 38.421875 6.59375 43.015625 9.90625 
Q 47.609375 13.234375 47.609375 19.390625 
Q 47.609375 24.75 44.3125 27.78125 
Q 41.015625 30.8125 33.5 32.328125 
L 27.484375 33.5 
Q 16.453125 35.6875 11.515625 40.375 
Q 6.59375 45.0625 6.59375 53.421875 
Q 6.59375 63.09375 13.40625 68.65625 
Q 20.21875 74.21875 32.171875 74.21875 
Q 37.3125 74.21875 42.625 73.28125 
Q 47.953125 72.359375 53.515625 70.515625 
z
" id="DejaVuSans-53"/>
     <path d="M 44.390625 34.1875 
Q 47.5625 33.109375 50.5625 29.59375 
Q 53.5625 26.078125 56.59375 19.921875 
L 66.609375 0 
L 56 0 
L 46.6875 18.703125 
Q 43.0625 26.03125 39.671875 28.421875 
Q 36.28125 30.8125 30.421875 30.8125 
L 19.671875 30.8125 
L 19.671875 0 
L 9.8125 0 
L 9.8125 72.90625 
L 32.078125 72.90625 
Q 44.578125 72.90625 50.734375 67.671875 
Q 56.890625 62.453125 56.890625 51.90625 
Q 56.890625 45.015625 53.6875 40.46875 
Q 50.484375 35.9375 44.390625 34.1875 
z
M 19.671875 64.796875 
L 19.671875 38.921875 
L 32.078125 38.921875 
Q 39.203125 38.921875 42.84375 42.21875 
Q 46.484375 45.515625 46.484375 51.90625 
Q 46.484375 58.296875 42.84375 61.546875 
Q 39.203125 64.796875 32.078125 64.796875 
z
" id="DejaVuSans-52"/>
     <path d="M 4.203125 54.6875 
L 13.1875 54.6875 
L 24.421875 12.015625 
L 35.59375 54.6875 
L 46.1875 54.6875 
L 57.421875 12.015625 
L 68.609375 54.6875 
L 77.59375 54.6875 
L 63.28125 0 
L 52.6875 0 
L 40.921875 44.828125 
L 29.109375 0 
L 18.5 0 
z
" id="DejaVuSans-77"/>
     <path d="M 54.890625 33.015625 
L 54.890625 0 
L 45.90625 0 
L 45.90625 32.71875 
Q 45.90625 40.484375 42.875 44.328125 
Q 39.84375 48.1875 33.796875 48.1875 
Q 26.515625 48.1875 22.3125 43.546875 
Q 18.109375 38.921875 18.109375 30.90625 
L 18.109375 0 
L 9.078125 0 
L 9.078125 75.984375 
L 18.109375 75.984375 
L 18.109375 46.1875 
Q 21.34375 51.125 25.703125 53.5625 
Q 30.078125 56 35.796875 56 
Q 45.21875 56 50.046875 50.171875 
Q 54.890625 44.34375 54.890625 33.015625 
z
" id="DejaVuSans-68"/>
    </defs>
    <g transform="translate(7.2 26.133375)scale(0.24 -0.24)">
     <use xlink:href="#DejaVuSans-34"/>
     <use x="63.623047" xlink:href="#DejaVuSans-38"/>
     <use x="127.246094" xlink:href="#DejaVuSans-20"/>
     <use x="159.033203" xlink:href="#DejaVuSans-53"/>
     <use x="222.509766" xlink:href="#DejaVuSans-65"/>
     <use x="284.033203" xlink:href="#DejaVuSans-70"/>
     <use x="347.509766" xlink:href="#DejaVuSans-61"/>
     <use x="408.789062" xlink:href="#DejaVuSans-72"/>
     <use x="449.902344" xlink:href="#DejaVuSans-61"/>
     <use x="511.181641" xlink:href="#DejaVuSans-62"/>
     <use x="574.658203" xlink:href="#DejaVuSans-6c"/>
     <use x="602.441406" xlink:href="#DejaVuSans-65"/>
     <use x="663.964844" xlink:href="#DejaVuSans-20"/>
     <use x="695.751953" xlink:href="#DejaVuSans-52"/>
     <use x="765.203125" xlink:href="#DejaVuSans-61"/>
     <use x="826.482422" xlink:href="#DejaVuSans-73"/>
     <use x="878.582031" xlink:href="#DejaVuSans-74"/>
     <use x="917.791016" xlink:href="#DejaVuSans-72"/>
     <use x="958.904297" xlink:href="#DejaVuSans-69"/>
     <use x="986.6875" xlink:href="#DejaVuSans-67"/>
     <use x="1050.164062" xlink:href="#DejaVuSans-69"/>
     <use x="1077.947266" xlink:href="#DejaVuSans-6e"/>
     <use x="1141.326172" xlink:href="#DejaVuSans-20"/>
     <use x="1173.113281" xlink:href="#DejaVuSans-77"/>
     <use x="1254.900391" xlink:href="#DejaVuSans-69"/>
     <use x="1282.683594" xlink:href="#DejaVuSans-74"/>
     <use x="1321.892578" xlink:href="#DejaVuSans-68"/>
     <use x="1385.271484" xlink:href="#DejaVuSans-20"/>
     <use x="1417.058594" xlink:href="#DejaVuSans-6e"/>
     <use x="1480.4375" xlink:href="#DejaVuSans-2b"/>
     <use x="1564.226562" xlink:href="#DejaVuSans-31"/>
     <use x="1627.849609" xlink:href="#DejaVuSans-20"/>
     <use x="1659.636719" xlink:href="#DejaVuSans-63"/>
     <use x="1714.617188" xlink:href="#DejaVuSans-6f"/>
     <use x="1775.798828" xlink:href="#DejaVuSans-6e"/>
     <use x="1839.177734" xlink:href="#DejaVuSans-73"/>
     <use x="1891.277344" xlink:href="#DejaVuSans-74"/>
     <use x="1930.486328" xlink:href="#DejaVuSans-72"/>
     <use x="1971.599609" xlink:href="#DejaVuSans-61"/>
     <use x="2032.878906" xlink:href="#DejaVuSans-69"/>
     <use x="2060.662109" xlink:href="#DejaVuSans-6e"/>
     <use x="2124.041016" xlink:href="#DejaVuSans-74"/>
     <use x="2163.25" xlink:href="#DejaVuSans-73"/>
    </g>
   </g>
  </g>
 </g>
 <defs>
  <clipPath id="p025d55ec49">
   <rect height="266.112" width="357.12" x="94.4775" y="32.133375"/>
  </clipPath>
 </defs>
</svg>
