<?xml version="1.0" encoding="utf-8" standalone="no"?>
<!DOCTYPE svg PUBLIC "-//W3C//DTD SVG 1.1//EN"
  "http://www.w3.org/Graphics/SVG/1.1/DTD/svg11.dtd">
<!-- Created with matplotlib (https://matplotlib.org/) -->
<svg height="345.6pt" version="1.1" viewBox="0 0 460.8 345.6" width="460.8pt" xmlns="http://www.w3.org/2000/svg" xmlns:xlink="http://www.w3.org/1999/xlink">
 <defs>
  <style type="text/css">
*{stroke-linecap:butt;stroke-linejoin:round;}
  </style>
 </defs>
 <g id="figure_1">
  <g id="patch_1">
   <path d="M 0 345.6 
L 460.8 345.6 
L 460.8 0 
L 0 0 
z
" style="fill:#ffffff;"/>
  </g>
  <g id="axes_1">
   <g id="patch_2">
    <path d="M 57.6 298.944 
L 338.688 298.944 
L 338.688 27.648 
L 57.6 27.648 
z
" style="fill:#ffffff;"/>
   </g>
   <g id="line2d_1">
    <path d="M 41.620548 298.944 
L 41.620548 294.312795 
L 57.6 294.312795 
L 57.6 285.050384 
L 76.16779 285.050384 
L 76.16779 275.787974 
L 91.535274 275.787974 
L 91.535274 271.156769 
L 95.723163 271.156769 
L 95.723163 257.263153 
L 100.934985 257.263153 
L 100.934985 248.000743 
L 111.974805 248.000743 
L 111.974805 243.369538 
L 122.615387 243.369538 
L 122.615387 234.107127 
L 129.908566 234.107127 
L 129.908566 220.213512 
L 135.858985 220.213512 
L 135.858985 210.951101 
L 142.215919 210.951101 
L 142.215919 201.688691 
L 150.301393 201.688691 
L 150.301393 192.426281 
L 156.735331 192.426281 
L 156.735331 187.795075 
L 162.38081 187.795075 
L 162.38081 173.90146 
L 168.244969 173.90146 
L 168.244969 169.270255 
L 175.93577 169.270255 
L 175.93577 155.376639 
L 184.767181 155.376639 
L 184.767181 146.114229 
L 193.658503 146.114229 
L 193.658503 141.483024 
L 200.828382 141.483024 
L 200.828382 127.589408 
L 207.632122 127.589408 
L 207.632122 122.958203 
L 214.239111 122.958203 
L 214.239111 109.064587 
L 221.160407 109.064587 
L 221.160407 99.802177 
L 228.411924 99.802177 
L 228.411924 90.539766 
L 236.290092 90.539766 
L 236.290092 85.908561 
L 245.107828 85.908561 
L 245.107828 76.646151 
L 253.694162 76.646151 
L 253.694162 62.752535 
L 338.688 62.752535 
" style="fill:none;stroke:#f5deb3;stroke-linecap:square;stroke-width:4;"/>
   </g>
   <g id="line2d_2">
    <defs>
     <path d="M 0 7.778175 
L 7.778175 0 
L 0 -7.778175 
L -7.778175 0 
z
" id="mc5f3016c02" style="stroke:#f5deb3;stroke-linejoin:miter;stroke-width:1.5;"/>
    </defs>
    <g>
     <use style="fill:#f5deb3;stroke:#f5deb3;stroke-linejoin:miter;stroke-width:1.5;" x="76.16779" xlink:href="#mc5f3016c02" y="285.050384"/>
     <use style="fill:#f5deb3;stroke:#f5deb3;stroke-linejoin:miter;stroke-width:1.5;" x="135.858985" xlink:href="#mc5f3016c02" y="210.951101"/>
     <use style="fill:#f5deb3;stroke:#f5deb3;stroke-linejoin:miter;stroke-width:1.5;" x="200.828382" xlink:href="#mc5f3016c02" y="141.483024"/>
     <use style="fill:#f5deb3;stroke:#f5deb3;stroke-linejoin:miter;stroke-width:1.5;" x="253.694162" xlink:href="#mc5f3016c02" y="76.646151"/>
     <use style="fill:#f5deb3;stroke:#f5deb3;stroke-linejoin:miter;stroke-width:1.5;" x="253.694162" xlink:href="#mc5f3016c02" y="62.752535"/>
     <use style="fill:#f5deb3;stroke:#f5deb3;stroke-linejoin:miter;stroke-width:1.5;" x="338.688" xlink:href="#mc5f3016c02" y="62.752535"/>
    </g>
   </g>
   <g id="line2d_3">
    <path style="fill:none;stroke:#f5deb3;stroke-linecap:square;stroke-width:4;"/>
    <g/>
   </g>
   <g id="line2d_4">
    <path d="M 338.688 62.752535 
L 369.60768 35.706297 
" style="fill:none;stroke:#f5deb3;stroke-linecap:square;stroke-width:4;"/>
    <g>
     <use style="fill:#f5deb3;stroke:#f5deb3;stroke-linejoin:miter;stroke-width:1.5;" x="338.688" xlink:href="#mc5f3016c02" y="62.752535"/>
     <use style="fill:#f5deb3;stroke:#f5deb3;stroke-linejoin:miter;stroke-width:1.5;" x="369.60768" xlink:href="#mc5f3016c02" y="35.706297"/>
    </g>
   </g>
   <g id="matplotlib.axis_1">
    <g id="xtick_1">
     <g id="line2d_5">
      <path clip-path="url(#p0920671f6e)" d="M 57.6 298.944 
L 57.6 27.648 
" style="fill:none;stroke:#b0b0b0;stroke-linecap:square;stroke-width:0.8;"/>
     </g>
     <g id="line2d_6">
      <defs>
       <path d="M 0 0 
L 0 3.5 
" id="m78b5696b8c" style="stroke:#000000;stroke-width:0.8;"/>
      </defs>
      <g>
       <use style="stroke:#000000;stroke-width:0.8;" x="57.6" xlink:href="#m78b5696b8c" y="298.944"/>
      </g>
     </g>
     <g id="text_1">
      <!-- 0 -->
      <defs>
       <path d="M 31.78125 66.40625 
Q 24.171875 66.40625 20.328125 58.90625 
Q 16.5 51.421875 16.5 36.375 
Q 16.5 21.390625 20.328125 13.890625 
Q 24.171875 6.390625 31.78125 6.390625 
Q 39.453125 6.390625 43.28125 13.890625 
Q 47.125 21.390625 47.125 36.375 
Q 47.125 51.421875 43.28125 58.90625 
Q 39.453125 66.40625 31.78125 66.40625 
z
M 31.78125 74.21875 
Q 44.046875 74.21875 50.515625 64.515625 
Q 56.984375 54.828125 56.984375 36.375 
Q 56.984375 17.96875 50.515625 8.265625 
Q 44.046875 -1.421875 31.78125 -1.421875 
Q 19.53125 -1.421875 13.0625 8.265625 
Q 6.59375 17.96875 6.59375 36.375 
Q 6.59375 54.828125 13.0625 64.515625 
Q 19.53125 74.21875 31.78125 74.21875 
z
" id="DejaVuSans-48"/>
      </defs>
      <g transform="translate(51.2375 321.140875)scale(0.2 -0.2)">
       <use xlink:href="#DejaVuSans-48"/>
      </g>
     </g>
    </g>
    <g id="xtick_2">
     <g id="line2d_7">
      <path clip-path="url(#p0920671f6e)" d="M 137.910857 298.944 
L 137.910857 27.648 
" style="fill:none;stroke:#b0b0b0;stroke-linecap:square;stroke-width:0.8;"/>
     </g>
     <g id="line2d_8">
      <g>
       <use style="stroke:#000000;stroke-width:0.8;" x="137.910857" xlink:href="#m78b5696b8c" y="298.944"/>
      </g>
     </g>
     <g id="text_2">
      <!-- 2 -->
      <defs>
       <path d="M 19.1875 8.296875 
L 53.609375 8.296875 
L 53.609375 0 
L 7.328125 0 
L 7.328125 8.296875 
Q 12.9375 14.109375 22.625 23.890625 
Q 32.328125 33.6875 34.8125 36.53125 
Q 39.546875 41.84375 41.421875 45.53125 
Q 43.3125 49.21875 43.3125 52.78125 
Q 43.3125 58.59375 39.234375 62.25 
Q 35.15625 65.921875 28.609375 65.921875 
Q 23.96875 65.921875 18.8125 64.3125 
Q 13.671875 62.703125 7.8125 59.421875 
L 7.8125 69.390625 
Q 13.765625 71.78125 18.9375 73 
Q 24.125 74.21875 28.421875 74.21875 
Q 39.75 74.21875 46.484375 68.546875 
Q 53.21875 62.890625 53.21875 53.421875 
Q 53.21875 48.921875 51.53125 44.890625 
Q 49.859375 40.875 45.40625 35.40625 
Q 44.1875 33.984375 37.640625 27.21875 
Q 31.109375 20.453125 19.1875 8.296875 
z
" id="DejaVuSans-50"/>
      </defs>
      <g transform="translate(131.548357 321.140875)scale(0.2 -0.2)">
       <use xlink:href="#DejaVuSans-50"/>
      </g>
     </g>
    </g>
    <g id="xtick_3">
     <g id="line2d_9">
      <path clip-path="url(#p0920671f6e)" d="M 218.221714 298.944 
L 218.221714 27.648 
" style="fill:none;stroke:#b0b0b0;stroke-linecap:square;stroke-width:0.8;"/>
     </g>
     <g id="line2d_10">
      <g>
       <use style="stroke:#000000;stroke-width:0.8;" x="218.221714" xlink:href="#m78b5696b8c" y="298.944"/>
      </g>
     </g>
     <g id="text_3">
      <!-- 4 -->
      <defs>
       <path d="M 37.796875 64.3125 
L 12.890625 25.390625 
L 37.796875 25.390625 
z
M 35.203125 72.90625 
L 47.609375 72.90625 
L 47.609375 25.390625 
L 58.015625 25.390625 
L 58.015625 17.1875 
L 47.609375 17.1875 
L 47.609375 0 
L 37.796875 0 
L 37.796875 17.1875 
L 4.890625 17.1875 
L 4.890625 26.703125 
z
" id="DejaVuSans-52"/>
      </defs>
      <g transform="translate(211.859214 321.140875)scale(0.2 -0.2)">
       <use xlink:href="#DejaVuSans-52"/>
      </g>
     </g>
    </g>
    <g id="xtick_4">
     <g id="line2d_11">
      <path clip-path="url(#p0920671f6e)" d="M 298.532571 298.944 
L 298.532571 27.648 
" style="fill:none;stroke:#b0b0b0;stroke-linecap:square;stroke-width:0.8;"/>
     </g>
     <g id="line2d_12">
      <g>
       <use style="stroke:#000000;stroke-width:0.8;" x="298.532571" xlink:href="#m78b5696b8c" y="298.944"/>
      </g>
     </g>
     <g id="text_4">
      <!-- 6 -->
      <defs>
       <path d="M 33.015625 40.375 
Q 26.375 40.375 22.484375 35.828125 
Q 18.609375 31.296875 18.609375 23.390625 
Q 18.609375 15.53125 22.484375 10.953125 
Q 26.375 6.390625 33.015625 6.390625 
Q 39.65625 6.390625 43.53125 10.953125 
Q 47.40625 15.53125 47.40625 23.390625 
Q 47.40625 31.296875 43.53125 35.828125 
Q 39.65625 40.375 33.015625 40.375 
z
M 52.59375 71.296875 
L 52.59375 62.3125 
Q 48.875 64.0625 45.09375 64.984375 
Q 41.3125 65.921875 37.59375 65.921875 
Q 27.828125 65.921875 22.671875 59.328125 
Q 17.53125 52.734375 16.796875 39.40625 
Q 19.671875 43.65625 24.015625 45.921875 
Q 28.375 48.1875 33.59375 48.1875 
Q 44.578125 48.1875 50.953125 41.515625 
Q 57.328125 34.859375 57.328125 23.390625 
Q 57.328125 12.15625 50.6875 5.359375 
Q 44.046875 -1.421875 33.015625 -1.421875 
Q 20.359375 -1.421875 13.671875 8.265625 
Q 6.984375 17.96875 6.984375 36.375 
Q 6.984375 53.65625 15.1875 63.9375 
Q 23.390625 74.21875 37.203125 74.21875 
Q 40.921875 74.21875 44.703125 73.484375 
Q 48.484375 72.75 52.59375 71.296875 
z
" id="DejaVuSans-54"/>
      </defs>
      <g transform="translate(292.170071 321.140875)scale(0.2 -0.2)">
       <use xlink:href="#DejaVuSans-54"/>
      </g>
     </g>
    </g>
    <g id="xtick_5">
     <g id="line2d_13">
      <path clip-path="url(#p0920671f6e)" d="M 97.755429 298.944 
L 97.755429 27.648 
" style="fill:none;stroke:#b0b0b0;stroke-linecap:square;stroke-width:0.8;"/>
     </g>
     <g id="line2d_14">
      <defs>
       <path d="M 0 0 
L 0 2 
" id="m5864c72004" style="stroke:#000000;stroke-width:0.6;"/>
      </defs>
      <g>
       <use style="stroke:#000000;stroke-width:0.6;" x="97.755429" xlink:href="#m5864c72004" y="298.944"/>
      </g>
     </g>
    </g>
    <g id="xtick_6">
     <g id="line2d_15">
      <path clip-path="url(#p0920671f6e)" d="M 178.066286 298.944 
L 178.066286 27.648 
" style="fill:none;stroke:#b0b0b0;stroke-linecap:square;stroke-width:0.8;"/>
     </g>
     <g id="line2d_16">
      <g>
       <use style="stroke:#000000;stroke-width:0.6;" x="178.066286" xlink:href="#m5864c72004" y="298.944"/>
      </g>
     </g>
    </g>
    <g id="xtick_7">
     <g id="line2d_17">
      <path clip-path="url(#p0920671f6e)" d="M 258.377143 298.944 
L 258.377143 27.648 
" style="fill:none;stroke:#b0b0b0;stroke-linecap:square;stroke-width:0.8;"/>
     </g>
     <g id="line2d_18">
      <g>
       <use style="stroke:#000000;stroke-width:0.6;" x="258.377143" xlink:href="#m5864c72004" y="298.944"/>
      </g>
     </g>
    </g>
    <g id="xtick_8">
     <g id="line2d_19">
      <path clip-path="url(#p0920671f6e)" d="M 338.688 298.944 
L 338.688 27.648 
" style="fill:none;stroke:#b0b0b0;stroke-linecap:square;stroke-width:0.8;"/>
     </g>
     <g id="line2d_20">
      <g>
       <use style="stroke:#000000;stroke-width:0.6;" x="338.688" xlink:href="#m5864c72004" y="298.944"/>
      </g>
     </g>
    </g>
    <g id="text_5">
     <!-- log10(# f-evals / dimension) -->
     <defs>
      <path d="M 9.421875 75.984375 
L 18.40625 75.984375 
L 18.40625 0 
L 9.421875 0 
z
" id="DejaVuSans-108"/>
      <path d="M 30.609375 48.390625 
Q 23.390625 48.390625 19.1875 42.75 
Q 14.984375 37.109375 14.984375 27.296875 
Q 14.984375 17.484375 19.15625 11.84375 
Q 23.34375 6.203125 30.609375 6.203125 
Q 37.796875 6.203125 41.984375 11.859375 
Q 46.1875 17.53125 46.1875 27.296875 
Q 46.1875 37.015625 41.984375 42.703125 
Q 37.796875 48.390625 30.609375 48.390625 
z
M 30.609375 56 
Q 42.328125 56 49.015625 48.375 
Q 55.71875 40.765625 55.71875 27.296875 
Q 55.71875 13.875 49.015625 6.21875 
Q 42.328125 -1.421875 30.609375 -1.421875 
Q 18.84375 -1.421875 12.171875 6.21875 
Q 5.515625 13.875 5.515625 27.296875 
Q 5.515625 40.765625 12.171875 48.375 
Q 18.84375 56 30.609375 56 
z
" id="DejaVuSans-111"/>
      <path d="M 45.40625 27.984375 
Q 45.40625 37.75 41.375 43.109375 
Q 37.359375 48.484375 30.078125 48.484375 
Q 22.859375 48.484375 18.828125 43.109375 
Q 14.796875 37.75 14.796875 27.984375 
Q 14.796875 18.265625 18.828125 12.890625 
Q 22.859375 7.515625 30.078125 7.515625 
Q 37.359375 7.515625 41.375 12.890625 
Q 45.40625 18.265625 45.40625 27.984375 
z
M 54.390625 6.78125 
Q 54.390625 -7.171875 48.1875 -13.984375 
Q 42 -20.796875 29.203125 -20.796875 
Q 24.46875 -20.796875 20.265625 -20.09375 
Q 16.0625 -19.390625 12.109375 -17.921875 
L 12.109375 -9.1875 
Q 16.0625 -11.328125 19.921875 -12.34375 
Q 23.78125 -13.375 27.78125 -13.375 
Q 36.625 -13.375 41.015625 -8.765625 
Q 45.40625 -4.15625 45.40625 5.171875 
L 45.40625 9.625 
Q 42.625 4.78125 38.28125 2.390625 
Q 33.9375 0 27.875 0 
Q 17.828125 0 11.671875 7.65625 
Q 5.515625 15.328125 5.515625 27.984375 
Q 5.515625 40.671875 11.671875 48.328125 
Q 17.828125 56 27.875 56 
Q 33.9375 56 38.28125 53.609375 
Q 42.625 51.21875 45.40625 46.390625 
L 45.40625 54.6875 
L 54.390625 54.6875 
z
" id="DejaVuSans-103"/>
      <path d="M 12.40625 8.296875 
L 28.515625 8.296875 
L 28.515625 63.921875 
L 10.984375 60.40625 
L 10.984375 69.390625 
L 28.421875 72.90625 
L 38.28125 72.90625 
L 38.28125 8.296875 
L 54.390625 8.296875 
L 54.390625 0 
L 12.40625 0 
z
" id="DejaVuSans-49"/>
      <path d="M 31 75.875 
Q 24.46875 64.65625 21.28125 53.65625 
Q 18.109375 42.671875 18.109375 31.390625 
Q 18.109375 20.125 21.3125 9.0625 
Q 24.515625 -2 31 -13.1875 
L 23.1875 -13.1875 
Q 15.875 -1.703125 12.234375 9.375 
Q 8.59375 20.453125 8.59375 31.390625 
Q 8.59375 42.28125 12.203125 53.3125 
Q 15.828125 64.359375 23.1875 75.875 
z
" id="DejaVuSans-40"/>
      <path d="M 51.125 44 
L 36.921875 44 
L 32.8125 27.6875 
L 47.125 27.6875 
z
M 43.796875 71.78125 
L 38.71875 51.515625 
L 52.984375 51.515625 
L 58.109375 71.78125 
L 65.921875 71.78125 
L 60.890625 51.515625 
L 76.125 51.515625 
L 76.125 44 
L 58.984375 44 
L 54.984375 27.6875 
L 70.515625 27.6875 
L 70.515625 20.21875 
L 53.078125 20.21875 
L 48 0 
L 40.1875 0 
L 45.21875 20.21875 
L 30.90625 20.21875 
L 25.875 0 
L 18.015625 0 
L 23.09375 20.21875 
L 7.71875 20.21875 
L 7.71875 27.6875 
L 24.90625 27.6875 
L 29 44 
L 13.28125 44 
L 13.28125 51.515625 
L 30.90625 51.515625 
L 35.890625 71.78125 
z
" id="DejaVuSans-35"/>
      <path id="DejaVuSans-32"/>
      <path d="M 37.109375 75.984375 
L 37.109375 68.5 
L 28.515625 68.5 
Q 23.6875 68.5 21.796875 66.546875 
Q 19.921875 64.59375 19.921875 59.515625 
L 19.921875 54.6875 
L 34.71875 54.6875 
L 34.71875 47.703125 
L 19.921875 47.703125 
L 19.921875 0 
L 10.890625 0 
L 10.890625 47.703125 
L 2.296875 47.703125 
L 2.296875 54.6875 
L 10.890625 54.6875 
L 10.890625 58.5 
Q 10.890625 67.625 15.140625 71.796875 
Q 19.390625 75.984375 28.609375 75.984375 
z
" id="DejaVuSans-102"/>
      <path d="M 4.890625 31.390625 
L 31.203125 31.390625 
L 31.203125 23.390625 
L 4.890625 23.390625 
z
" id="DejaVuSans-45"/>
      <path d="M 56.203125 29.59375 
L 56.203125 25.203125 
L 14.890625 25.203125 
Q 15.484375 15.921875 20.484375 11.0625 
Q 25.484375 6.203125 34.421875 6.203125 
Q 39.59375 6.203125 44.453125 7.46875 
Q 49.3125 8.734375 54.109375 11.28125 
L 54.109375 2.78125 
Q 49.265625 0.734375 44.1875 -0.34375 
Q 39.109375 -1.421875 33.890625 -1.421875 
Q 20.796875 -1.421875 13.15625 6.1875 
Q 5.515625 13.8125 5.515625 26.8125 
Q 5.515625 40.234375 12.765625 48.109375 
Q 20.015625 56 32.328125 56 
Q 43.359375 56 49.78125 48.890625 
Q 56.203125 41.796875 56.203125 29.59375 
z
M 47.21875 32.234375 
Q 47.125 39.59375 43.09375 43.984375 
Q 39.0625 48.390625 32.421875 48.390625 
Q 24.90625 48.390625 20.390625 44.140625 
Q 15.875 39.890625 15.1875 32.171875 
z
" id="DejaVuSans-101"/>
      <path d="M 2.984375 54.6875 
L 12.5 54.6875 
L 29.59375 8.796875 
L 46.6875 54.6875 
L 56.203125 54.6875 
L 35.6875 0 
L 23.484375 0 
z
" id="DejaVuSans-118"/>
      <path d="M 34.28125 27.484375 
Q 23.390625 27.484375 19.1875 25 
Q 14.984375 22.515625 14.984375 16.5 
Q 14.984375 11.71875 18.140625 8.90625 
Q 21.296875 6.109375 26.703125 6.109375 
Q 34.1875 6.109375 38.703125 11.40625 
Q 43.21875 16.703125 43.21875 25.484375 
L 43.21875 27.484375 
z
M 52.203125 31.203125 
L 52.203125 0 
L 43.21875 0 
L 43.21875 8.296875 
Q 40.140625 3.328125 35.546875 0.953125 
Q 30.953125 -1.421875 24.3125 -1.421875 
Q 15.921875 -1.421875 10.953125 3.296875 
Q 6 8.015625 6 15.921875 
Q 6 25.140625 12.171875 29.828125 
Q 18.359375 34.515625 30.609375 34.515625 
L 43.21875 34.515625 
L 43.21875 35.40625 
Q 43.21875 41.609375 39.140625 45 
Q 35.0625 48.390625 27.6875 48.390625 
Q 23 48.390625 18.546875 47.265625 
Q 14.109375 46.140625 10.015625 43.890625 
L 10.015625 52.203125 
Q 14.9375 54.109375 19.578125 55.046875 
Q 24.21875 56 28.609375 56 
Q 40.484375 56 46.34375 49.84375 
Q 52.203125 43.703125 52.203125 31.203125 
z
" id="DejaVuSans-97"/>
      <path d="M 44.28125 53.078125 
L 44.28125 44.578125 
Q 40.484375 46.53125 36.375 47.5 
Q 32.28125 48.484375 27.875 48.484375 
Q 21.1875 48.484375 17.84375 46.4375 
Q 14.5 44.390625 14.5 40.28125 
Q 14.5 37.15625 16.890625 35.375 
Q 19.28125 33.59375 26.515625 31.984375 
L 29.59375 31.296875 
Q 39.15625 29.25 43.1875 25.515625 
Q 47.21875 21.78125 47.21875 15.09375 
Q 47.21875 7.46875 41.1875 3.015625 
Q 35.15625 -1.421875 24.609375 -1.421875 
Q 20.21875 -1.421875 15.453125 -0.5625 
Q 10.6875 0.296875 5.421875 2 
L 5.421875 11.28125 
Q 10.40625 8.6875 15.234375 7.390625 
Q 20.0625 6.109375 24.8125 6.109375 
Q 31.15625 6.109375 34.5625 8.28125 
Q 37.984375 10.453125 37.984375 14.40625 
Q 37.984375 18.0625 35.515625 20.015625 
Q 33.0625 21.96875 24.703125 23.78125 
L 21.578125 24.515625 
Q 13.234375 26.265625 9.515625 29.90625 
Q 5.8125 33.546875 5.8125 39.890625 
Q 5.8125 47.609375 11.28125 51.796875 
Q 16.75 56 26.8125 56 
Q 31.78125 56 36.171875 55.265625 
Q 40.578125 54.546875 44.28125 53.078125 
z
" id="DejaVuSans-115"/>
      <path d="M 25.390625 72.90625 
L 33.6875 72.90625 
L 8.296875 -9.28125 
L 0 -9.28125 
z
" id="DejaVuSans-47"/>
      <path d="M 45.40625 46.390625 
L 45.40625 75.984375 
L 54.390625 75.984375 
L 54.390625 0 
L 45.40625 0 
L 45.40625 8.203125 
Q 42.578125 3.328125 38.25 0.953125 
Q 33.9375 -1.421875 27.875 -1.421875 
Q 17.96875 -1.421875 11.734375 6.484375 
Q 5.515625 14.40625 5.515625 27.296875 
Q 5.515625 40.1875 11.734375 48.09375 
Q 17.96875 56 27.875 56 
Q 33.9375 56 38.25 53.625 
Q 42.578125 51.265625 45.40625 46.390625 
z
M 14.796875 27.296875 
Q 14.796875 17.390625 18.875 11.75 
Q 22.953125 6.109375 30.078125 6.109375 
Q 37.203125 6.109375 41.296875 11.75 
Q 45.40625 17.390625 45.40625 27.296875 
Q 45.40625 37.203125 41.296875 42.84375 
Q 37.203125 48.484375 30.078125 48.484375 
Q 22.953125 48.484375 18.875 42.84375 
Q 14.796875 37.203125 14.796875 27.296875 
z
" id="DejaVuSans-100"/>
      <path d="M 9.421875 54.6875 
L 18.40625 54.6875 
L 18.40625 0 
L 9.421875 0 
z
M 9.421875 75.984375 
L 18.40625 75.984375 
L 18.40625 64.59375 
L 9.421875 64.59375 
z
" id="DejaVuSans-105"/>
      <path d="M 52 44.1875 
Q 55.375 50.25 60.0625 53.125 
Q 64.75 56 71.09375 56 
Q 79.640625 56 84.28125 50.015625 
Q 88.921875 44.046875 88.921875 33.015625 
L 88.921875 0 
L 79.890625 0 
L 79.890625 32.71875 
Q 79.890625 40.578125 77.09375 44.375 
Q 74.3125 48.1875 68.609375 48.1875 
Q 61.625 48.1875 57.5625 43.546875 
Q 53.515625 38.921875 53.515625 30.90625 
L 53.515625 0 
L 44.484375 0 
L 44.484375 32.71875 
Q 44.484375 40.625 41.703125 44.40625 
Q 38.921875 48.1875 33.109375 48.1875 
Q 26.21875 48.1875 22.15625 43.53125 
Q 18.109375 38.875 18.109375 30.90625 
L 18.109375 0 
L 9.078125 0 
L 9.078125 54.6875 
L 18.109375 54.6875 
L 18.109375 46.1875 
Q 21.1875 51.21875 25.484375 53.609375 
Q 29.78125 56 35.6875 56 
Q 41.65625 56 45.828125 52.96875 
Q 50 49.953125 52 44.1875 
z
" id="DejaVuSans-109"/>
      <path d="M 54.890625 33.015625 
L 54.890625 0 
L 45.90625 0 
L 45.90625 32.71875 
Q 45.90625 40.484375 42.875 44.328125 
Q 39.84375 48.1875 33.796875 48.1875 
Q 26.515625 48.1875 22.3125 43.546875 
Q 18.109375 38.921875 18.109375 30.90625 
L 18.109375 0 
L 9.078125 0 
L 9.078125 54.6875 
L 18.109375 54.6875 
L 18.109375 46.1875 
Q 21.34375 51.125 25.703125 53.5625 
Q 30.078125 56 35.796875 56 
Q 45.21875 56 50.046875 50.171875 
Q 54.890625 44.34375 54.890625 33.015625 
z
" id="DejaVuSans-110"/>
      <path d="M 8.015625 75.875 
L 15.828125 75.875 
Q 23.140625 64.359375 26.78125 53.3125 
Q 30.421875 42.28125 30.421875 31.390625 
Q 30.421875 20.453125 26.78125 9.375 
Q 23.140625 -1.703125 15.828125 -13.1875 
L 8.015625 -13.1875 
Q 14.5 -2 17.703125 9.0625 
Q 20.90625 20.125 20.90625 31.390625 
Q 20.90625 42.671875 17.703125 53.65625 
Q 14.5 64.65625 8.015625 75.875 
z
" id="DejaVuSans-41"/>
     </defs>
     <g transform="translate(77.303219 342.217594)scale(0.17 -0.17)">
      <use xlink:href="#DejaVuSans-108"/>
      <use x="27.783203" xlink:href="#DejaVuSans-111"/>
      <use x="88.964844" xlink:href="#DejaVuSans-103"/>
      <use x="152.441406" xlink:href="#DejaVuSans-49"/>
      <use x="216.064453" xlink:href="#DejaVuSans-48"/>
      <use x="279.6875" xlink:href="#DejaVuSans-40"/>
      <use x="318.701172" xlink:href="#DejaVuSans-35"/>
      <use x="402.490234" xlink:href="#DejaVuSans-32"/>
      <use x="434.277344" xlink:href="#DejaVuSans-102"/>
      <use x="469.404297" xlink:href="#DejaVuSans-45"/>
      <use x="505.488281" xlink:href="#DejaVuSans-101"/>
      <use x="567.011719" xlink:href="#DejaVuSans-118"/>
      <use x="626.191406" xlink:href="#DejaVuSans-97"/>
      <use x="687.470703" xlink:href="#DejaVuSans-108"/>
      <use x="715.253906" xlink:href="#DejaVuSans-115"/>
      <use x="767.353516" xlink:href="#DejaVuSans-32"/>
      <use x="799.140625" xlink:href="#DejaVuSans-47"/>
      <use x="832.832031" xlink:href="#DejaVuSans-32"/>
      <use x="864.619141" xlink:href="#DejaVuSans-100"/>
      <use x="928.095703" xlink:href="#DejaVuSans-105"/>
      <use x="955.878906" xlink:href="#DejaVuSans-109"/>
      <use x="1053.291016" xlink:href="#DejaVuSans-101"/>
      <use x="1114.814453" xlink:href="#DejaVuSans-110"/>
      <use x="1178.193359" xlink:href="#DejaVuSans-115"/>
      <use x="1230.292969" xlink:href="#DejaVuSans-105"/>
      <use x="1258.076172" xlink:href="#DejaVuSans-111"/>
      <use x="1319.257812" xlink:href="#DejaVuSans-110"/>
      <use x="1382.636719" xlink:href="#DejaVuSans-41"/>
     </g>
    </g>
   </g>
   <g id="matplotlib.axis_2">
    <g id="ytick_1">
     <g id="line2d_21">
      <path clip-path="url(#p0920671f6e)" d="M 57.6 298.944 
L 338.688 298.944 
" style="fill:none;stroke:#b0b0b0;stroke-linecap:square;stroke-width:0.8;"/>
     </g>
     <g id="line2d_22">
      <defs>
       <path d="M 0 0 
L -3.5 0 
" id="m9933469986" style="stroke:#000000;stroke-width:0.8;"/>
      </defs>
      <g>
       <use style="stroke:#000000;stroke-width:0.8;" x="57.6" xlink:href="#m9933469986" y="298.944"/>
      </g>
     </g>
     <g id="text_6">
      <!-- 0.0 -->
      <defs>
       <path d="M 10.6875 12.40625 
L 21 12.40625 
L 21 0 
L 10.6875 0 
z
" id="DejaVuSans-46"/>
      </defs>
      <g transform="translate(25.155 305.02275)scale(0.16 -0.16)">
       <use xlink:href="#DejaVuSans-48"/>
       <use x="63.623047" xlink:href="#DejaVuSans-46"/>
       <use x="95.410156" xlink:href="#DejaVuSans-48"/>
      </g>
     </g>
    </g>
    <g id="ytick_2">
     <g id="line2d_23">
      <path clip-path="url(#p0920671f6e)" d="M 57.6 245.22202 
L 338.688 245.22202 
" style="fill:none;stroke:#b0b0b0;stroke-linecap:square;stroke-width:0.8;"/>
     </g>
     <g id="line2d_24">
      <g>
       <use style="stroke:#000000;stroke-width:0.8;" x="57.6" xlink:href="#m9933469986" y="245.22202"/>
      </g>
     </g>
     <g id="text_7">
      <!-- 0.2 -->
      <g transform="translate(25.155 251.30077)scale(0.16 -0.16)">
       <use xlink:href="#DejaVuSans-48"/>
       <use x="63.623047" xlink:href="#DejaVuSans-46"/>
       <use x="95.410156" xlink:href="#DejaVuSans-50"/>
      </g>
     </g>
    </g>
    <g id="ytick_3">
     <g id="line2d_25">
      <path clip-path="url(#p0920671f6e)" d="M 57.6 191.50004 
L 338.688 191.50004 
" style="fill:none;stroke:#b0b0b0;stroke-linecap:square;stroke-width:0.8;"/>
     </g>
     <g id="line2d_26">
      <g>
       <use style="stroke:#000000;stroke-width:0.8;" x="57.6" xlink:href="#m9933469986" y="191.50004"/>
      </g>
     </g>
     <g id="text_8">
      <!-- 0.4 -->
      <g transform="translate(25.155 197.57879)scale(0.16 -0.16)">
       <use xlink:href="#DejaVuSans-48"/>
       <use x="63.623047" xlink:href="#DejaVuSans-46"/>
       <use x="95.410156" xlink:href="#DejaVuSans-52"/>
      </g>
     </g>
    </g>
    <g id="ytick_4">
     <g id="line2d_27">
      <path clip-path="url(#p0920671f6e)" d="M 57.6 137.778059 
L 338.688 137.778059 
" style="fill:none;stroke:#b0b0b0;stroke-linecap:square;stroke-width:0.8;"/>
     </g>
     <g id="line2d_28">
      <g>
       <use style="stroke:#000000;stroke-width:0.8;" x="57.6" xlink:href="#m9933469986" y="137.778059"/>
      </g>
     </g>
     <g id="text_9">
      <!-- 0.6 -->
      <g transform="translate(25.155 143.856809)scale(0.16 -0.16)">
       <use xlink:href="#DejaVuSans-48"/>
       <use x="63.623047" xlink:href="#DejaVuSans-46"/>
       <use x="95.410156" xlink:href="#DejaVuSans-54"/>
      </g>
     </g>
    </g>
    <g id="ytick_5">
     <g id="line2d_29">
      <path clip-path="url(#p0920671f6e)" d="M 57.6 84.056079 
L 338.688 84.056079 
" style="fill:none;stroke:#b0b0b0;stroke-linecap:square;stroke-width:0.8;"/>
     </g>
     <g id="line2d_30">
      <g>
       <use style="stroke:#000000;stroke-width:0.8;" x="57.6" xlink:href="#m9933469986" y="84.056079"/>
      </g>
     </g>
     <g id="text_10">
      <!-- 0.8 -->
      <defs>
       <path d="M 31.78125 34.625 
Q 24.75 34.625 20.71875 30.859375 
Q 16.703125 27.09375 16.703125 20.515625 
Q 16.703125 13.921875 20.71875 10.15625 
Q 24.75 6.390625 31.78125 6.390625 
Q 38.8125 6.390625 42.859375 10.171875 
Q 46.921875 13.96875 46.921875 20.515625 
Q 46.921875 27.09375 42.890625 30.859375 
Q 38.875 34.625 31.78125 34.625 
z
M 21.921875 38.8125 
Q 15.578125 40.375 12.03125 44.71875 
Q 8.5 49.078125 8.5 55.328125 
Q 8.5 64.0625 14.71875 69.140625 
Q 20.953125 74.21875 31.78125 74.21875 
Q 42.671875 74.21875 48.875 69.140625 
Q 55.078125 64.0625 55.078125 55.328125 
Q 55.078125 49.078125 51.53125 44.71875 
Q 48 40.375 41.703125 38.8125 
Q 48.828125 37.15625 52.796875 32.3125 
Q 56.78125 27.484375 56.78125 20.515625 
Q 56.78125 9.90625 50.3125 4.234375 
Q 43.84375 -1.421875 31.78125 -1.421875 
Q 19.734375 -1.421875 13.25 4.234375 
Q 6.78125 9.90625 6.78125 20.515625 
Q 6.78125 27.484375 10.78125 32.3125 
Q 14.796875 37.15625 21.921875 38.8125 
z
M 18.3125 54.390625 
Q 18.3125 48.734375 21.84375 45.5625 
Q 25.390625 42.390625 31.78125 42.390625 
Q 38.140625 42.390625 41.71875 45.5625 
Q 45.3125 48.734375 45.3125 54.390625 
Q 45.3125 60.0625 41.71875 63.234375 
Q 38.140625 66.40625 31.78125 66.40625 
Q 25.390625 66.40625 21.84375 63.234375 
Q 18.3125 60.0625 18.3125 54.390625 
z
" id="DejaVuSans-56"/>
      </defs>
      <g transform="translate(25.155 90.134829)scale(0.16 -0.16)">
       <use xlink:href="#DejaVuSans-48"/>
       <use x="63.623047" xlink:href="#DejaVuSans-46"/>
       <use x="95.410156" xlink:href="#DejaVuSans-56"/>
      </g>
     </g>
    </g>
    <g id="ytick_6">
     <g id="line2d_31">
      <path clip-path="url(#p0920671f6e)" d="M 57.6 30.334099 
L 338.688 30.334099 
" style="fill:none;stroke:#b0b0b0;stroke-linecap:square;stroke-width:0.8;"/>
     </g>
     <g id="line2d_32">
      <g>
       <use style="stroke:#000000;stroke-width:0.8;" x="57.6" xlink:href="#m9933469986" y="30.334099"/>
      </g>
     </g>
     <g id="text_11">
      <!-- 1.0 -->
      <g transform="translate(25.155 36.412849)scale(0.16 -0.16)">
       <use xlink:href="#DejaVuSans-49"/>
       <use x="63.623047" xlink:href="#DejaVuSans-46"/>
       <use x="95.410156" xlink:href="#DejaVuSans-48"/>
      </g>
     </g>
    </g>
    <g id="text_12">
     <!-- Fraction of function,target pairs -->
     <defs>
      <path d="M 9.8125 72.90625 
L 51.703125 72.90625 
L 51.703125 64.59375 
L 19.671875 64.59375 
L 19.671875 43.109375 
L 48.578125 43.109375 
L 48.578125 34.8125 
L 19.671875 34.8125 
L 19.671875 0 
L 9.8125 0 
z
" id="DejaVuSans-70"/>
      <path d="M 41.109375 46.296875 
Q 39.59375 47.171875 37.8125 47.578125 
Q 36.03125 48 33.890625 48 
Q 26.265625 48 22.1875 43.046875 
Q 18.109375 38.09375 18.109375 28.8125 
L 18.109375 0 
L 9.078125 0 
L 9.078125 54.6875 
L 18.109375 54.6875 
L 18.109375 46.1875 
Q 20.953125 51.171875 25.484375 53.578125 
Q 30.03125 56 36.53125 56 
Q 37.453125 56 38.578125 55.875 
Q 39.703125 55.765625 41.0625 55.515625 
z
" id="DejaVuSans-114"/>
      <path d="M 48.78125 52.59375 
L 48.78125 44.1875 
Q 44.96875 46.296875 41.140625 47.34375 
Q 37.3125 48.390625 33.40625 48.390625 
Q 24.65625 48.390625 19.8125 42.84375 
Q 14.984375 37.3125 14.984375 27.296875 
Q 14.984375 17.28125 19.8125 11.734375 
Q 24.65625 6.203125 33.40625 6.203125 
Q 37.3125 6.203125 41.140625 7.25 
Q 44.96875 8.296875 48.78125 10.40625 
L 48.78125 2.09375 
Q 45.015625 0.34375 40.984375 -0.53125 
Q 36.96875 -1.421875 32.421875 -1.421875 
Q 20.0625 -1.421875 12.78125 6.34375 
Q 5.515625 14.109375 5.515625 27.296875 
Q 5.515625 40.671875 12.859375 48.328125 
Q 20.21875 56 33.015625 56 
Q 37.15625 56 41.109375 55.140625 
Q 45.0625 54.296875 48.78125 52.59375 
z
" id="DejaVuSans-99"/>
      <path d="M 18.3125 70.21875 
L 18.3125 54.6875 
L 36.8125 54.6875 
L 36.8125 47.703125 
L 18.3125 47.703125 
L 18.3125 18.015625 
Q 18.3125 11.328125 20.140625 9.421875 
Q 21.96875 7.515625 27.59375 7.515625 
L 36.8125 7.515625 
L 36.8125 0 
L 27.59375 0 
Q 17.1875 0 13.234375 3.875 
Q 9.28125 7.765625 9.28125 18.015625 
L 9.28125 47.703125 
L 2.6875 47.703125 
L 2.6875 54.6875 
L 9.28125 54.6875 
L 9.28125 70.21875 
z
" id="DejaVuSans-116"/>
      <path d="M 8.5 21.578125 
L 8.5 54.6875 
L 17.484375 54.6875 
L 17.484375 21.921875 
Q 17.484375 14.15625 20.5 10.265625 
Q 23.53125 6.390625 29.59375 6.390625 
Q 36.859375 6.390625 41.078125 11.03125 
Q 45.3125 15.671875 45.3125 23.6875 
L 45.3125 54.6875 
L 54.296875 54.6875 
L 54.296875 0 
L 45.3125 0 
L 45.3125 8.40625 
Q 42.046875 3.421875 37.71875 1 
Q 33.40625 -1.421875 27.6875 -1.421875 
Q 18.265625 -1.421875 13.375 4.4375 
Q 8.5 10.296875 8.5 21.578125 
z
M 31.109375 56 
z
" id="DejaVuSans-117"/>
      <path d="M 11.71875 12.40625 
L 22.015625 12.40625 
L 22.015625 4 
L 14.015625 -11.625 
L 7.71875 -11.625 
L 11.71875 4 
z
" id="DejaVuSans-44"/>
      <path d="M 18.109375 8.203125 
L 18.109375 -20.796875 
L 9.078125 -20.796875 
L 9.078125 54.6875 
L 18.109375 54.6875 
L 18.109375 46.390625 
Q 20.953125 51.265625 25.265625 53.625 
Q 29.59375 56 35.59375 56 
Q 45.5625 56 51.78125 48.09375 
Q 58.015625 40.1875 58.015625 27.296875 
Q 58.015625 14.40625 51.78125 6.484375 
Q 45.5625 -1.421875 35.59375 -1.421875 
Q 29.59375 -1.421875 25.265625 0.953125 
Q 20.953125 3.328125 18.109375 8.203125 
z
M 48.6875 27.296875 
Q 48.6875 37.203125 44.609375 42.84375 
Q 40.53125 48.484375 33.40625 48.484375 
Q 26.265625 48.484375 22.1875 42.84375 
Q 18.109375 37.203125 18.109375 27.296875 
Q 18.109375 17.390625 22.1875 11.75 
Q 26.265625 6.109375 33.40625 6.109375 
Q 40.53125 6.109375 44.609375 11.75 
Q 48.6875 17.390625 48.6875 27.296875 
z
" id="DejaVuSans-112"/>
     </defs>
     <g transform="translate(17.619531 298.435375)rotate(-90)scale(0.17 -0.17)">
      <use xlink:href="#DejaVuSans-70"/>
      <use x="57.410156" xlink:href="#DejaVuSans-114"/>
      <use x="98.523438" xlink:href="#DejaVuSans-97"/>
      <use x="159.802734" xlink:href="#DejaVuSans-99"/>
      <use x="214.783203" xlink:href="#DejaVuSans-116"/>
      <use x="253.992188" xlink:href="#DejaVuSans-105"/>
      <use x="281.775391" xlink:href="#DejaVuSans-111"/>
      <use x="342.957031" xlink:href="#DejaVuSans-110"/>
      <use x="406.335938" xlink:href="#DejaVuSans-32"/>
      <use x="438.123047" xlink:href="#DejaVuSans-111"/>
      <use x="499.304688" xlink:href="#DejaVuSans-102"/>
      <use x="534.509766" xlink:href="#DejaVuSans-32"/>
      <use x="566.296875" xlink:href="#DejaVuSans-102"/>
      <use x="601.501953" xlink:href="#DejaVuSans-117"/>
      <use x="664.880859" xlink:href="#DejaVuSans-110"/>
      <use x="728.259766" xlink:href="#DejaVuSans-99"/>
      <use x="783.240234" xlink:href="#DejaVuSans-116"/>
      <use x="822.449219" xlink:href="#DejaVuSans-105"/>
      <use x="850.232422" xlink:href="#DejaVuSans-111"/>
      <use x="911.414062" xlink:href="#DejaVuSans-110"/>
      <use x="974.792969" xlink:href="#DejaVuSans-44"/>
      <use x="1006.580078" xlink:href="#DejaVuSans-116"/>
      <use x="1045.789062" xlink:href="#DejaVuSans-97"/>
      <use x="1107.068359" xlink:href="#DejaVuSans-114"/>
      <use x="1148.166016" xlink:href="#DejaVuSans-103"/>
      <use x="1211.642578" xlink:href="#DejaVuSans-101"/>
      <use x="1273.166016" xlink:href="#DejaVuSans-116"/>
      <use x="1312.375" xlink:href="#DejaVuSans-32"/>
      <use x="1344.162109" xlink:href="#DejaVuSans-112"/>
      <use x="1407.638672" xlink:href="#DejaVuSans-97"/>
      <use x="1468.917969" xlink:href="#DejaVuSans-105"/>
      <use x="1496.701172" xlink:href="#DejaVuSans-114"/>
      <use x="1537.814453" xlink:href="#DejaVuSans-115"/>
     </g>
    </g>
   </g>
   <g id="line2d_33">
    <defs>
     <path d="M 0 1.5 
C 0.397805 1.5 0.77937 1.341951 1.06066 1.06066 
C 1.341951 0.77937 1.5 0.397805 1.5 0 
C 1.5 -0.397805 1.341951 -0.77937 1.06066 -1.06066 
C 0.77937 -1.341951 0.397805 -1.5 0 -1.5 
C -0.397805 -1.5 -0.77937 -1.341951 -1.06066 -1.06066 
C -1.341951 -0.77937 -1.5 -0.397805 -1.5 0 
C -1.5 0.397805 -1.341951 0.77937 -1.06066 1.06066 
C -0.77937 1.341951 -0.397805 1.5 0 1.5 
z
" id="mfd3efc53e2" style="stroke:#f5deb3;"/>
    </defs>
    <g>
     <use style="fill:#f5deb3;stroke:#f5deb3;" x="253.694162" xlink:href="#mfd3efc53e2" y="62.752535"/>
     <use style="fill:#f5deb3;stroke:#f5deb3;" x="253.694162" xlink:href="#mfd3efc53e2" y="62.752535"/>
    </g>
   </g>
   <g id="line2d_34">
    <defs>
     <path d="M 0 1.5 
C 0.397805 1.5 0.77937 1.341951 1.06066 1.06066 
C 1.341951 0.77937 1.5 0.397805 1.5 0 
C 1.5 -0.397805 1.341951 -0.77937 1.06066 -1.06066 
C 0.77937 -1.341951 0.397805 -1.5 0 -1.5 
C -0.397805 -1.5 -0.77937 -1.341951 -1.06066 -1.06066 
C -1.341951 -0.77937 -1.5 -0.397805 -1.5 0 
C -1.5 0.397805 -1.341951 0.77937 -1.06066 1.06066 
C -0.77937 1.341951 -0.397805 1.5 0 1.5 
z
" id="me78c5ba353" style="stroke:#000080;"/>
    </defs>
    <g>
     <use style="fill:#000080;stroke:#000080;" x="217.823065" xlink:href="#me78c5ba353" y="116.474516"/>
     <use style="fill:#000080;stroke:#000080;" x="217.823065" xlink:href="#me78c5ba353" y="116.474516"/>
    </g>
   </g>
   <g id="line2d_35">
    <path d="M 17.444571 298.944 
L 17.444571 288.755349 
L 67.850577 288.755349 
L 67.850577 287.829108 
L 77.884514 287.829108 
L 77.884514 285.976625 
L 79.938565 285.976625 
L 79.938565 285.050384 
L 81.334453 285.050384 
L 81.334453 283.197902 
L 84.588378 283.197902 
L 84.588378 282.271661 
L 88.255778 282.271661 
L 88.255778 281.34542 
L 91.284345 281.34542 
L 91.284345 280.419179 
L 92.73846 280.419179 
L 92.73846 279.492938 
L 98.100772 279.492938 
L 98.100772 278.566697 
L 101.365607 278.566697 
L 101.365607 277.640456 
L 101.923711 277.640456 
L 101.923711 276.714215 
L 102.859376 276.714215 
L 102.859376 274.861733 
L 102.989037 274.861733 
L 102.989037 273.935492 
L 104.355088 273.935492 
L 104.355088 273.009251 
L 105.621863 273.009251 
L 105.621863 271.156769 
L 106.802819 271.156769 
L 106.802819 270.230528 
L 107.514726 270.230528 
L 107.514726 269.304287 
L 107.811151 269.304287 
L 107.811151 267.451805 
L 108.006005 267.451805 
L 108.006005 266.525564 
L 108.198707 266.525564 
L 108.198707 265.599323 
L 108.764355 265.599323 
L 108.764355 264.673082 
L 109.31223 264.673082 
L 109.401893 262.8206 
L 111.584648 262.8206 
L 111.584648 260.968117 
L 112.58145 260.968117 
L 112.58145 260.041876 
L 115.711251 260.041876 
L 115.711251 259.115635 
L 116.323218 259.115635 
L 116.323218 258.189394 
L 117.820578 258.189394 
L 117.820578 257.263153 
L 118.681952 257.263153 
L 118.734401 255.410671 
L 121.264855 255.410671 
L 121.264855 252.631948 
L 122.018385 252.631948 
L 122.061712 249.853225 
L 129.204706 249.853225 
L 129.262072 248.000743 
L 129.963666 248.000743 
L 129.963666 246.148261 
L 130.638123 246.148261 
L 130.638123 245.22202 
L 131.185181 245.22202 
L 131.185181 244.295779 
L 131.439773 244.295779 
L 131.439773 243.369538 
L 132.470242 243.369538 
L 132.470242 242.443297 
L 132.659801 242.443297 
L 132.659801 240.590815 
L 132.963507 240.590815 
L 132.963507 239.664574 
L 133.443203 239.664574 
L 133.46572 235.959609 
L 135.582166 235.959609 
L 135.582166 234.107127 
L 137.016339 234.107127 
L 137.016339 232.254645 
L 141.350061 232.254645 
L 141.350061 231.328404 
L 141.968939 231.328404 
L 141.968939 229.475922 
L 142.566605 229.475922 
L 142.566605 228.549681 
L 143.349938 228.549681 
L 143.349938 226.697199 
L 145.406826 226.697199 
L 145.406826 225.770958 
L 145.677034 225.770958 
L 145.677034 224.844717 
L 146.569876 224.844717 
L 146.569876 222.992235 
L 147.205618 222.992235 
L 147.205618 221.139753 
L 147.317833 221.139753 
L 147.317833 219.287271 
L 147.52003 219.287271 
L 147.52003 217.434789 
L 147.95678 217.434789 
L 147.95678 216.508548 
L 148.306159 216.508548 
L 148.306159 214.656066 
L 149.067574 214.656066 
L 149.104327 210.951101 
L 149.911431 210.951101 
L 149.911431 209.098619 
L 152.337344 209.098619 
L 152.337344 207.246137 
L 153.200188 207.246137 
L 153.200188 206.319896 
L 153.980758 206.319896 
L 153.980758 205.393655 
L 154.132765 205.393655 
L 154.132765 203.541173 
L 154.344733 203.541173 
L 154.344733 201.688691 
L 156.442528 201.688691 
L 156.442528 200.76245 
L 157.574059 200.76245 
L 157.675417 198.909968 
L 157.709073 198.909968 
L 157.709073 197.057486 
L 158.455018 197.057486 
L 158.455018 196.131245 
L 159.009867 196.131245 
L 159.009867 195.205004 
L 159.582872 195.205004 
L 159.582872 194.278763 
L 161.551152 194.278763 
L 161.551152 193.352522 
L 163.601707 193.352522 
L 163.601707 192.426281 
L 163.717238 192.426281 
L 163.717238 191.50004 
L 165.55465 191.50004 
L 165.55465 190.573799 
L 166.24825 190.573799 
L 166.289413 187.795075 
L 166.782596 187.795075 
L 166.782596 186.868834 
L 167.98889 186.868834 
L 167.98889 185.016352 
L 168.77585 185.016352 
L 168.77585 183.16387 
L 169.345764 183.16387 
L 169.345764 182.237629 
L 170.069512 182.237629 
L 170.069512 181.311388 
L 170.684714 181.311388 
L 170.684714 180.385147 
L 170.849036 180.385147 
L 170.880663 177.606424 
L 171.658273 177.606424 
L 171.658273 176.680183 
L 171.920711 176.680183 
L 171.920711 175.753942 
L 172.154799 175.753942 
L 172.154799 174.827701 
L 173.751176 174.827701 
L 173.751176 173.90146 
L 175.813167 173.90146 
L 175.872598 171.122737 
L 179.05611 171.122737 
L 179.148138 169.270255 
L 179.546749 169.270255 
L 179.546749 168.344014 
L 179.977136 168.344014 
L 179.977136 167.417773 
L 181.371821 167.417773 
L 181.371821 166.491532 
L 181.70055 166.491532 
L 181.70055 164.63905 
L 182.056524 164.63905 
L 182.056524 162.786567 
L 183.076277 162.786567 
L 183.076277 160.934085 
L 183.660429 160.934085 
L 183.660429 160.007844 
L 183.791533 160.007844 
L 183.807852 158.155362 
L 186.678539 158.155362 
L 186.678539 156.30288 
L 186.949936 156.30288 
L 186.949936 155.376639 
L 187.250164 155.376639 
L 187.250164 154.450398 
L 187.7096 154.450398 
L 187.7096 153.524157 
L 189.416917 153.524157 
L 189.416917 152.597916 
L 190.979377 152.597916 
L 190.979377 151.671675 
L 191.674742 151.671675 
L 191.674742 150.745434 
L 191.886033 150.745434 
L 191.886033 148.892952 
L 193.863419 148.892952 
L 193.863419 147.966711 
L 195.210655 147.966711 
L 195.210655 147.04047 
L 195.561409 147.04047 
L 195.561409 146.114229 
L 195.793911 146.114229 
L 195.793911 145.187988 
L 197.168233 145.187988 
L 197.168233 143.335506 
L 198.532957 143.335506 
L 198.532957 142.409265 
L 199.456197 142.409265 
L 199.456197 140.556783 
L 200.581255 140.556783 
L 200.581255 139.630541 
L 201.97028 139.630541 
L 201.97028 138.7043 
L 202.429597 138.7043 
L 202.429597 137.778059 
L 202.792844 137.778059 
L 202.792844 136.851818 
L 203.224259 136.851818 
L 203.224259 134.999336 
L 205.393458 134.999336 
L 205.393458 134.073095 
L 205.911182 134.073095 
L 205.945062 131.294372 
L 206.811334 131.294372 
L 206.890665 129.44189 
L 208.463682 129.44189 
L 208.463682 128.515649 
L 209.16764 128.515649 
L 209.16764 127.589408 
L 210.723652 127.589408 
L 210.723652 125.736926 
L 212.238119 125.736926 
L 212.238119 124.810685 
L 212.361796 124.810685 
L 212.361796 123.884444 
L 213.302827 123.884444 
L 213.302827 122.958203 
L 214.407467 122.958203 
L 214.407467 122.031962 
L 216.282665 122.031962 
L 216.282665 120.17948 
L 216.974126 120.17948 
L 216.974126 118.326998 
L 217.815212 118.326998 
L 217.823065 116.474516 
L 338.688 116.474516 
L 338.688 116.474516 
" style="fill:none;stroke:#000080;stroke-linecap:square;stroke-width:1.5;"/>
   </g>
   <g id="line2d_36">
    <defs>
     <path d="M 0 6 
C 1.591219 6 3.117479 5.367802 4.242641 4.242641 
C 5.367802 3.117479 6 1.591219 6 0 
C 6 -1.591219 5.367802 -3.117479 4.242641 -4.242641 
C 3.117479 -5.367802 1.591219 -6 0 -6 
C -1.591219 -6 -3.117479 -5.367802 -4.242641 -4.242641 
C -5.367802 -3.117479 -6 -1.591219 -6 0 
C -6 1.591219 -5.367802 3.117479 -4.242641 4.242641 
C -3.117479 5.367802 -1.591219 6 0 6 
z
" id="me1b0b3f518" style="stroke:#000080;stroke-width:1.5;"/>
    </defs>
    <g>
     <use style="fill-opacity:0;stroke:#000080;stroke-width:1.5;" x="141.968939" xlink:href="#me1b0b3f518" y="231.328404"/>
     <use style="fill-opacity:0;stroke:#000080;stroke-width:1.5;" x="189.416917" xlink:href="#me1b0b3f518" y="153.524157"/>
     <use style="fill-opacity:0;stroke:#000080;stroke-width:1.5;" x="217.823065" xlink:href="#me1b0b3f518" y="117.400757"/>
     <use style="fill-opacity:0;stroke:#000080;stroke-width:1.5;" x="217.823065" xlink:href="#me1b0b3f518" y="116.474516"/>
     <use style="fill-opacity:0;stroke:#000080;stroke-width:1.5;" x="338.688" xlink:href="#me1b0b3f518" y="116.474516"/>
    </g>
   </g>
   <g id="line2d_37">
    <path style="fill:none;stroke:#000080;stroke-linecap:square;stroke-width:1.5;"/>
    <g/>
   </g>
   <g id="line2d_38">
    <path clip-path="url(#p0920671f6e)" d="M 218.222761 116.474516 
" style="fill:none;stroke:#000080;stroke-linecap:square;stroke-width:1.5;"/>
    <defs>
     <path d="M -12 12 
L 12 -12 
M -12 -12 
L 12 12 
" id="m7d2906e872" style="stroke:#000080;"/>
    </defs>
    <g clip-path="url(#p0920671f6e)">
     <use style="fill:#000080;stroke:#000080;" x="218.222761" xlink:href="#m7d2906e872" y="116.474516"/>
    </g>
   </g>
   <g id="line2d_39">
    <defs>
     <path d="M 0 1.5 
C 0.397805 1.5 0.77937 1.341951 1.06066 1.06066 
C 1.341951 0.77937 1.5 0.397805 1.5 0 
C 1.5 -0.397805 1.341951 -0.77937 1.06066 -1.06066 
C 0.77937 -1.341951 0.397805 -1.5 0 -1.5 
C -0.397805 -1.5 -0.77937 -1.341951 -1.06066 -1.06066 
C -1.341951 -0.77937 -1.5 -0.397805 -1.5 0 
C -1.5 0.397805 -1.341951 0.77937 -1.06066 1.06066 
C -0.77937 1.341951 -0.397805 1.5 0 1.5 
z
" id="m68a09eb1be" style="stroke:#ff00ff;"/>
    </defs>
    <g>
     <use style="fill:#ff00ff;stroke:#ff00ff;" x="217.027806" xlink:href="#m68a09eb1be" y="113.695792"/>
     <use style="fill:#ff00ff;stroke:#ff00ff;" x="217.027806" xlink:href="#m68a09eb1be" y="113.695792"/>
    </g>
   </g>
   <g id="line2d_40">
    <path d="M 17.444571 298.944 
L 17.444571 288.755349 
L 63.467834 288.755349 
L 63.467834 287.829108 
L 79.938565 287.829108 
L 79.938565 286.902867 
L 80.881459 286.902867 
L 80.881459 285.976625 
L 82.626842 285.976625 
L 82.626842 285.050384 
L 84.588378 285.050384 
L 84.588378 283.197902 
L 88.255778 283.197902 
L 88.255778 282.271661 
L 90.242884 282.271661 
L 90.242884 280.419179 
L 91.284345 280.419179 
L 91.284345 279.492938 
L 91.782644 279.492938 
L 91.782644 278.566697 
L 93.863965 278.566697 
L 93.863965 277.640456 
L 96.110718 277.640456 
L 96.110718 276.714215 
L 97.403108 276.714215 
L 97.403108 275.787974 
L 97.755429 275.787974 
L 97.755429 274.861733 
L 103.245502 274.861733 
L 103.245502 273.935492 
L 104.23523 273.935492 
L 104.23523 273.009251 
L 104.355088 273.009251 
L 104.355088 272.08301 
L 105.621863 272.08301 
L 105.621863 271.156769 
L 106.698704 271.156769 
L 106.698704 270.230528 
L 109.401893 270.230528 
L 109.401893 269.304287 
L 112.128456 269.304287 
L 112.204777 267.451805 
L 112.950158 267.451805 
L 112.950158 266.525564 
L 115.648856 266.525564 
L 115.648856 265.599323 
L 117.145424 265.599323 
L 117.145424 264.673082 
L 117.820578 264.673082 
L 117.820578 263.746841 
L 118.256582 263.746841 
L 118.256582 261.894358 
L 122.362027 261.894358 
L 122.362027 260.968117 
L 122.531342 260.968117 
L 122.531342 259.115635 
L 124.254646 259.115635 
L 124.254646 257.263153 
L 125.927192 257.263153 
L 125.927192 256.336912 
L 131.363785 256.336912 
L 131.363785 255.410671 
L 132.036046 255.410671 
L 132.036046 254.48443 
L 132.446401 254.48443 
L 132.446401 253.558189 
L 133.844123 253.558189 
L 133.888106 251.705707 
L 134.47127 251.705707 
L 134.47127 250.779466 
L 135.721125 250.779466 
L 135.819708 248.000743 
L 136.20856 248.000743 
L 136.20856 247.074502 
L 136.831795 247.074502 
L 136.831795 245.22202 
L 143.565632 245.22202 
L 143.60342 241.517056 
L 144.209312 241.517056 
L 144.306265 236.88585 
L 144.700592 236.88585 
L 144.700592 235.033368 
L 145.074639 235.033368 
L 145.143889 233.180886 
L 145.304409 233.180886 
L 145.304409 231.328404 
L 145.452153 231.328404 
L 145.531191 227.62344 
L 145.843812 227.62344 
L 145.899052 225.770958 
L 146.484754 225.770958 
L 146.484754 223.918476 
L 146.686244 223.918476 
L 146.686244 222.992235 
L 150.657656 222.992235 
L 150.657656 221.139753 
L 150.924291 221.139753 
L 150.924291 220.213512 
L 153.869369 220.213512 
L 153.869369 218.36103 
L 157.208825 218.36103 
L 157.208825 216.508548 
L 157.329512 216.508548 
L 157.329512 215.582307 
L 158.047603 215.582307 
L 158.047603 213.729825 
L 159.129083 213.729825 
L 159.129083 211.877342 
L 159.486982 211.877342 
L 159.486982 210.02486 
L 159.887213 210.02486 
L 159.887213 208.172378 
L 160.074152 208.172378 
L 160.074152 206.319896 
L 160.37492 206.319896 
L 160.451703 203.541173 
L 160.769609 203.541173 
L 160.769609 202.614932 
L 162.139074 202.614932 
L 162.147765 199.836209 
L 162.346481 199.836209 
L 162.346481 198.909968 
L 162.783387 198.909968 
L 162.783387 197.057486 
L 162.970886 197.057486 
L 162.970886 196.131245 
L 163.152289 196.131245 
L 163.152289 195.205004 
L 164.52039 195.205004 
L 164.52039 194.278763 
L 168.066419 194.278763 
L 168.066419 193.352522 
L 168.327468 193.352522 
L 168.327468 192.426281 
L 171.751203 192.426281 
L 171.846131 188.721316 
L 173.704209 188.721316 
L 173.795789 185.942593 
L 174.395768 185.942593 
L 174.395768 185.016352 
L 175.565343 185.016352 
L 175.631641 182.237629 
L 175.749548 182.237629 
L 175.749548 181.311388 
L 176.082938 181.311388 
L 176.082938 180.385147 
L 176.211426 180.385147 
L 176.211426 178.532665 
L 177.290683 178.532665 
L 177.336204 176.680183 
L 177.899821 176.680183 
L 177.899821 175.753942 
L 178.998345 175.753942 
L 178.998345 174.827701 
L 179.755358 174.827701 
L 179.828021 172.975219 
L 181.44956 172.975219 
L 181.44956 172.048978 
L 181.728845 172.048978 
L 181.812047 169.270255 
L 183.193644 169.270255 
L 183.285678 165.565291 
L 183.655366 165.565291 
L 183.655366 164.63905 
L 184.033489 164.63905 
L 184.09284 162.786567 
L 184.484641 162.786567 
L 184.484641 161.860326 
L 185.890459 161.860326 
L 185.890459 160.007844 
L 186.271529 160.007844 
L 186.34979 156.30288 
L 186.601742 156.30288 
L 186.601742 155.376639 
L 186.922671 155.376639 
L 186.968787 152.597916 
L 188.049357 152.597916 
L 188.049357 151.671675 
L 190.96773 151.671675 
L 190.96773 150.745434 
L 191.567324 150.745434 
L 191.567324 149.819193 
L 192.002495 149.819193 
L 192.002495 147.966711 
L 193.667773 147.966711 
L 193.667773 147.04047 
L 194.236522 147.04047 
L 194.236522 146.114229 
L 195.488995 146.114229 
L 195.488995 145.187988 
L 196.688114 145.187988 
L 196.688114 143.335506 
L 197.379241 143.335506 
L 197.379241 142.409265 
L 198.07782 142.409265 
L 198.07782 140.556783 
L 199.085536 140.556783 
L 199.085536 139.630541 
L 199.510333 139.630541 
L 199.510333 138.7043 
L 200.145706 138.7043 
L 200.145706 137.778059 
L 200.450328 137.778059 
L 200.507729 134.999336 
L 203.047394 134.999336 
L 203.14247 132.220613 
L 203.55087 132.220613 
L 203.591673 130.368131 
L 205.088026 130.368131 
L 205.088026 129.44189 
L 206.782457 129.44189 
L 206.782457 128.515649 
L 208.374652 128.515649 
L 208.374652 127.589408 
L 208.953546 127.589408 
L 208.953546 125.736926 
L 209.191071 125.736926 
L 209.191071 124.810685 
L 209.675431 124.810685 
L 209.675431 123.884444 
L 210.515461 123.884444 
L 210.515461 122.958203 
L 210.646275 122.958203 
L 210.646275 122.031962 
L 211.956408 122.031962 
L 211.956408 120.17948 
L 212.523332 120.17948 
L 212.523332 119.253239 
L 214.547106 119.253239 
L 214.547106 117.400757 
L 215.127262 117.400757 
L 215.127262 116.474516 
L 216.909003 116.474516 
L 216.909003 114.622033 
L 217.027806 114.622033 
L 217.027806 113.695792 
L 338.688 113.695792 
L 338.688 113.695792 
" style="fill:none;stroke:#ff00ff;stroke-linecap:square;stroke-width:1.5;"/>
   </g>
   <g id="line2d_41">
    <defs>
     <path d="M 0 8.485281 
L 5.091169 0 
L 0 -8.485281 
L -5.091169 0 
z
" id="m010c63a88c" style="stroke:#ff00ff;stroke-linejoin:miter;stroke-width:1.5;"/>
    </defs>
    <g>
     <use style="fill-opacity:0;stroke:#ff00ff;stroke-linejoin:miter;stroke-width:1.5;" x="97.755429" xlink:href="#m010c63a88c" y="275.787974"/>
     <use style="fill-opacity:0;stroke:#ff00ff;stroke-linejoin:miter;stroke-width:1.5;" x="163.152289" xlink:href="#m010c63a88c" y="195.205004"/>
     <use style="fill-opacity:0;stroke:#ff00ff;stroke-linejoin:miter;stroke-width:1.5;" x="212.523332" xlink:href="#m010c63a88c" y="119.253239"/>
     <use style="fill-opacity:0;stroke:#ff00ff;stroke-linejoin:miter;stroke-width:1.5;" x="217.027806" xlink:href="#m010c63a88c" y="113.695792"/>
     <use style="fill-opacity:0;stroke:#ff00ff;stroke-linejoin:miter;stroke-width:1.5;" x="217.027806" xlink:href="#m010c63a88c" y="113.695792"/>
     <use style="fill-opacity:0;stroke:#ff00ff;stroke-linejoin:miter;stroke-width:1.5;" x="338.688" xlink:href="#m010c63a88c" y="113.695792"/>
    </g>
   </g>
   <g id="line2d_42">
    <path style="fill:none;stroke:#ff00ff;stroke-linecap:square;stroke-width:1.5;"/>
    <g/>
   </g>
   <g id="line2d_43">
    <path clip-path="url(#p0920671f6e)" d="M 218.221714 113.695792 
" style="fill:none;stroke:#ff00ff;stroke-linecap:square;stroke-width:1.5;"/>
    <defs>
     <path d="M -12 12 
L 12 -12 
M -12 -12 
L 12 12 
" id="mf9fcd63ff6" style="stroke:#ff00ff;"/>
    </defs>
    <g clip-path="url(#p0920671f6e)">
     <use style="fill:#ff00ff;stroke:#ff00ff;" x="218.221714" xlink:href="#mf9fcd63ff6" y="113.695792"/>
    </g>
   </g>
   <g id="line2d_44">
    <defs>
     <path d="M 0 1.5 
C 0.397805 1.5 0.77937 1.341951 1.06066 1.06066 
C 1.341951 0.77937 1.5 0.397805 1.5 0 
C 1.5 -0.397805 1.341951 -0.77937 1.06066 -1.06066 
C 0.77937 -1.341951 0.397805 -1.5 0 -1.5 
C -0.397805 -1.5 -0.77937 -1.341951 -1.06066 -1.06066 
C -1.341951 -0.77937 -1.5 -0.397805 -1.5 0 
C -1.5 0.397805 -1.341951 0.77937 -1.06066 1.06066 
C -0.77937 1.341951 -0.397805 1.5 0 1.5 
z
" id="mcf00af1bc4" style="stroke:#ffa500;"/>
    </defs>
    <g>
     <use style="fill:#ffa500;stroke:#ffa500;" x="218.186626" xlink:href="#mcf00af1bc4" y="124.810685"/>
     <use style="fill:#ffa500;stroke:#ffa500;" x="218.186626" xlink:href="#mcf00af1bc4" y="124.810685"/>
    </g>
   </g>
   <g id="line2d_45">
    <path d="M 17.444571 298.944 
L 17.444571 288.755349 
L 85.315119 288.755349 
L 85.315119 286.902867 
L 87.643811 286.902867 
L 87.643811 285.976625 
L 88.255778 285.976625 
L 88.255778 284.124143 
L 88.553893 284.124143 
L 88.553893 283.197902 
L 89.135256 283.197902 
L 89.135256 282.271661 
L 91.284345 282.271661 
L 91.284345 280.419179 
L 93.863965 280.419179 
L 93.863965 279.492938 
L 97.043522 279.492938 
L 97.043522 278.566697 
L 97.403108 278.566697 
L 97.403108 277.640456 
L 98.270913 277.640456 
L 98.270913 276.714215 
L 99.886816 276.714215 
L 99.886816 274.861733 
L 103.993014 274.861733 
L 103.993014 273.935492 
L 106.48859 273.935492 
L 106.48859 273.009251 
L 106.802819 273.009251 
L 106.802819 272.08301 
L 107.414787 272.08301 
L 107.414787 271.156769 
L 108.577836 271.156769 
L 108.577836 270.230528 
L 108.856871 270.230528 
L 108.856871 268.378046 
L 109.040444 268.378046 
L 109.040444 265.599323 
L 109.401893 265.599323 
L 109.401893 261.894358 
L 110.188761 261.894358 
L 110.188761 260.968117 
L 113.239614 260.968117 
L 113.239614 260.041876 
L 114.216469 260.041876 
L 114.216469 259.115635 
L 114.351658 259.115635 
L 114.351658 258.189394 
L 118.310324 258.189394 
L 118.310324 257.263153 
L 119.250393 257.263153 
L 119.250393 256.336912 
L 122.276749 256.336912 
L 122.276749 255.410671 
L 141.148448 255.410671 
L 141.148448 253.558189 
L 141.321401 253.558189 
L 141.321401 252.631948 
L 141.46423 252.631948 
L 141.535208 248.926984 
L 142.229539 248.926984 
L 142.229539 248.000743 
L 142.472881 248.000743 
L 142.472881 247.074502 
L 143.260342 247.074502 
L 143.260342 246.148261 
L 152.222586 246.148261 
L 152.291531 243.369538 
L 152.39064 243.369538 
L 152.39064 242.443297 
L 152.564618 242.443297 
L 152.632227 238.738333 
L 152.729424 238.738333 
L 152.729424 237.812091 
L 152.951678 237.812091 
L 153.003132 234.107127 
L 153.200188 234.107127 
L 153.287059 227.62344 
L 153.402218 227.62344 
L 153.473807 224.844717 
L 153.925152 224.844717 
L 153.925152 223.918476 
L 159.633129 223.918476 
L 159.633129 222.065994 
L 160.000599 222.065994 
L 160.000599 220.213512 
L 163.03294 220.213512 
L 163.03294 219.287271 
L 164.039833 219.287271 
L 164.039833 217.434789 
L 164.183463 217.434789 
L 164.287532 215.582307 
L 164.780093 215.582307 
L 164.780093 213.729825 
L 165.09112 213.729825 
L 165.09112 211.877342 
L 167.265454 211.877342 
L 167.265454 210.02486 
L 167.474773 210.02486 
L 167.538677 206.319896 
L 167.675282 206.319896 
L 167.687935 204.467414 
L 167.851597 204.467414 
L 167.851597 202.614932 
L 168.78476 202.614932 
L 168.78476 200.76245 
L 169.049979 200.76245 
L 169.049979 199.836209 
L 170.668729 199.836209 
L 170.668729 198.909968 
L 171.748698 198.909968 
L 171.748698 197.983727 
L 177.43051 197.983727 
L 177.466646 196.131245 
L 178.602076 196.131245 
L 178.602076 195.205004 
L 180.100173 195.205004 
L 180.143574 192.426281 
L 180.710161 192.426281 
L 180.710161 191.50004 
L 181.807826 191.50004 
L 181.807826 189.647558 
L 183.279213 189.647558 
L 183.279213 188.721316 
L 184.514788 188.721316 
L 184.624088 185.942593 
L 185.005432 185.942593 
L 185.102392 182.237629 
L 185.199974 182.237629 
L 185.199974 181.311388 
L 186.004772 181.311388 
L 186.004772 180.385147 
L 186.236633 180.385147 
L 186.293303 177.606424 
L 186.38879 177.606424 
L 186.38879 176.680183 
L 186.955174 176.680183 
L 187.016869 174.827701 
L 187.084587 174.827701 
L 187.084587 172.975219 
L 188.139635 172.975219 
L 188.228474 171.122737 
L 190.723011 171.122737 
L 190.723011 170.196496 
L 191.386269 170.196496 
L 191.386269 169.270255 
L 191.691516 169.270255 
L 191.708274 167.417773 
L 193.844376 167.417773 
L 193.902849 164.63905 
L 195.181267 164.63905 
L 195.181267 162.786567 
L 195.871356 162.786567 
L 195.871356 161.860326 
L 196.004037 161.860326 
L 196.004037 160.934085 
L 197.108058 160.934085 
L 197.108058 160.007844 
L 197.227038 160.007844 
L 197.227038 159.081603 
L 197.797125 159.081603 
L 197.888022 156.30288 
L 197.977334 156.30288 
L 198.010709 154.450398 
L 198.405756 154.450398 
L 198.450788 151.671675 
L 201.292126 151.671675 
L 201.292126 150.745434 
L 202.996947 150.745434 
L 202.996947 149.819193 
L 203.280216 149.819193 
L 203.280216 148.892952 
L 203.699482 148.892952 
L 203.699482 147.04047 
L 204.548323 147.04047 
L 204.548323 146.114229 
L 207.134092 146.114229 
L 207.134092 145.187988 
L 207.461979 145.187988 
L 207.461979 143.335506 
L 207.876535 143.335506 
L 207.876535 141.483024 
L 208.460935 141.483024 
L 208.460935 140.556783 
L 208.682329 140.556783 
L 208.682329 139.630541 
L 209.355957 139.630541 
L 209.355957 138.7043 
L 209.534228 138.7043 
L 209.534228 137.778059 
L 210.424067 137.778059 
L 210.424067 136.851818 
L 210.843337 136.851818 
L 210.896504 134.999336 
L 211.642882 134.999336 
L 211.642882 133.146854 
L 212.953918 133.146854 
L 212.953918 132.220613 
L 213.133915 132.220613 
L 213.133915 130.368131 
L 213.420811 130.368131 
L 213.420811 129.44189 
L 214.844042 129.44189 
L 214.844042 128.515649 
L 217.88878 128.515649 
L 217.88878 127.589408 
L 218.182082 127.589408 
L 218.186626 124.810685 
L 338.688 124.810685 
L 338.688 124.810685 
" style="fill:none;stroke:#ffa500;stroke-linecap:square;stroke-width:1.5;"/>
   </g>
   <g id="line2d_46">
    <defs>
     <path d="M 0 -6 
L -1.347084 -1.854102 
L -5.706339 -1.854102 
L -2.179628 0.708204 
L -3.526712 4.854102 
L -0 2.291796 
L 3.526712 4.854102 
L 2.179628 0.708204 
L 5.706339 -1.854102 
L 1.347084 -1.854102 
z
" id="m28e58a51ea" style="stroke:#ffa500;stroke-linejoin:bevel;stroke-width:1.5;"/>
    </defs>
    <g>
     <use style="fill-opacity:0;stroke:#ffa500;stroke-linejoin:bevel;stroke-width:1.5;" x="103.993014" xlink:href="#m28e58a51ea" y="273.935492"/>
     <use style="fill-opacity:0;stroke:#ffa500;stroke-linejoin:bevel;stroke-width:1.5;" x="171.748698" xlink:href="#m28e58a51ea" y="198.909968"/>
     <use style="fill-opacity:0;stroke:#ffa500;stroke-linejoin:bevel;stroke-width:1.5;" x="218.186626" xlink:href="#m28e58a51ea" y="126.663167"/>
     <use style="fill-opacity:0;stroke:#ffa500;stroke-linejoin:bevel;stroke-width:1.5;" x="218.186626" xlink:href="#m28e58a51ea" y="124.810685"/>
     <use style="fill-opacity:0;stroke:#ffa500;stroke-linejoin:bevel;stroke-width:1.5;" x="218.186626" xlink:href="#m28e58a51ea" y="124.810685"/>
     <use style="fill-opacity:0;stroke:#ffa500;stroke-linejoin:bevel;stroke-width:1.5;" x="338.688" xlink:href="#m28e58a51ea" y="124.810685"/>
    </g>
   </g>
   <g id="line2d_47">
    <path style="fill:none;stroke:#ffa500;stroke-linecap:square;stroke-width:1.5;"/>
    <g/>
   </g>
   <g id="line2d_48">
    <path clip-path="url(#p0920671f6e)" d="M 218.221889 124.810685 
" style="fill:none;stroke:#ffa500;stroke-linecap:square;stroke-width:1.5;"/>
    <defs>
     <path d="M -12 12 
L 12 -12 
M -12 -12 
L 12 12 
" id="m9661e75ea6" style="stroke:#ffa500;"/>
    </defs>
    <g clip-path="url(#p0920671f6e)">
     <use style="fill:#ffa500;stroke:#ffa500;" x="218.221889" xlink:href="#m9661e75ea6" y="124.810685"/>
    </g>
   </g>
   <g id="line2d_49">
    <defs>
     <path d="M 0 1.5 
C 0.397805 1.5 0.77937 1.341951 1.06066 1.06066 
C 1.341951 0.77937 1.5 0.397805 1.5 0 
C 1.5 -0.397805 1.341951 -0.77937 1.06066 -1.06066 
C 0.77937 -1.341951 0.397805 -1.5 0 -1.5 
C -0.397805 -1.5 -0.77937 -1.341951 -1.06066 -1.06066 
C -1.341951 -0.77937 -1.5 -0.397805 -1.5 0 
C -1.5 0.397805 -1.341951 0.77937 -1.06066 1.06066 
C -0.77937 1.341951 -0.397805 1.5 0 1.5 
z
" id="m11e2c9a87b" style="stroke:#6495ed;"/>
    </defs>
    <g>
     <use style="fill:#6495ed;stroke:#6495ed;" x="147.540122" xlink:href="#m11e2c9a87b" y="230.402163"/>
     <use style="fill:#6495ed;stroke:#6495ed;" x="147.540122" xlink:href="#m11e2c9a87b" y="230.402163"/>
    </g>
   </g>
   <g id="line2d_50">
    <path d="M 17.444571 298.944 
L 17.444571 290.607831 
L 83.830028 290.607831 
L 83.830028 290.14471 
L 85.66744 290.14471 
L 85.66744 289.68159 
L 88.255778 289.68159 
L 88.255778 289.218469 
L 88.553893 289.218469 
L 88.553893 288.755349 
L 90.242884 288.755349 
L 90.242884 288.292228 
L 96.301313 288.292228 
L 96.301313 287.829108 
L 98.270913 287.829108 
L 98.270913 287.365987 
L 100.934985 287.365987 
L 100.934985 286.902867 
L 101.365607 286.902867 
L 101.365607 286.439746 
L 102.464508 286.439746 
L 102.464508 285.976625 
L 103.498249 285.976625 
L 103.498249 285.513505 
L 104.474128 285.513505 
L 104.474128 284.124143 
L 107.111487 284.124143 
L 107.111487 283.661023 
L 108.006005 283.661023 
L 108.006005 283.197902 
L 108.198707 283.197902 
L 108.198707 282.734782 
L 110.016944 282.734782 
L 110.016944 281.34542 
L 110.274038 281.34542 
L 110.274038 280.419179 
L 111.663381 280.419179 
L 111.663381 279.956059 
L 112.655818 279.956059 
L 112.655818 279.029818 
L 113.311233 279.029818 
L 113.311233 278.566697 
L 113.453595 278.566697 
L 113.453595 278.103577 
L 114.485807 278.103577 
L 114.485807 277.640456 
L 115.648856 277.640456 
L 115.648856 277.177336 
L 116.081002 277.177336 
L 116.081002 276.714215 
L 116.323218 276.714215 
L 116.323218 276.251095 
L 116.972471 276.251095 
L 116.972471 275.787974 
L 117.542433 275.787974 
L 117.598418 273.935492 
L 119.351785 273.935492 
L 119.351785 272.54613 
L 120.944859 272.54613 
L 121.036887 271.156769 
L 122.40451 271.156769 
L 122.40451 269.767407 
L 122.865118 269.767407 
L 122.865118 269.304287 
L 123.111324 269.304287 
L 123.111324 268.841166 
L 124.178158 268.841166 
L 124.178158 268.378046 
L 125.001625 268.378046 
L 125.001625 267.914925 
L 125.183475 267.914925 
L 125.183475 267.451805 
L 125.399222 267.451805 
L 125.399222 266.988684 
L 125.647598 266.988684 
L 125.647598 266.062443 
L 125.822869 266.062443 
L 125.822869 265.599323 
L 126.168212 265.599323 
L 126.168212 265.136202 
L 126.540355 265.136202 
L 126.540355 264.673082 
L 127.261631 264.673082 
L 127.261631 264.209961 
L 127.453273 264.209961 
L 127.453273 263.746841 
L 127.705564 263.746841 
L 127.705564 262.8206 
L 127.985095 262.8206 
L 127.985095 262.357479 
L 128.290519 262.357479 
L 128.32077 261.431238 
L 128.620421 261.431238 
L 128.620421 260.968117 
L 128.738855 260.968117 
L 128.738855 260.504997 
L 130.100661 260.504997 
L 130.100661 260.041876 
L 130.371462 260.041876 
L 130.371462 259.578756 
L 130.638123 259.578756 
L 130.638123 259.115635 
L 131.185181 259.115635 
L 131.185181 258.652515 
L 131.338382 258.652515 
L 131.338382 258.189394 
L 131.715598 258.189394 
L 131.715598 257.726274 
L 132.326708 257.726274 
L 132.326708 256.800033 
L 132.541568 256.800033 
L 132.541568 255.873792 
L 132.683351 255.873792 
L 132.683351 255.410671 
L 132.940331 255.410671 
L 132.940331 254.947551 
L 133.239232 254.947551 
L 133.284766 254.02131 
L 133.755823 254.02131 
L 133.755823 253.558189 
L 133.997581 253.558189 
L 133.997581 253.095069 
L 134.171324 253.095069 
L 134.257551 251.705707 
L 134.407429 251.705707 
L 134.407429 251.242587 
L 134.745246 251.242587 
L 134.745246 250.316346 
L 134.891008 250.316346 
L 134.891008 249.853225 
L 135.014985 249.853225 
L 135.097149 248.000743 
L 135.995765 248.000743 
L 135.995765 247.074502 
L 136.399782 247.074502 
L 136.399782 246.611381 
L 136.720123 246.611381 
L 136.720123 246.148261 
L 137.034686 246.148261 
L 137.034686 245.68514 
L 137.594091 245.68514 
L 137.70032 244.295779 
L 137.788353 244.295779 
L 137.788353 243.369538 
L 138.477062 243.369538 
L 138.477062 242.443297 
L 138.959898 242.443297 
L 138.959898 241.980176 
L 139.155847 241.980176 
L 139.220677 240.127694 
L 139.980403 240.127694 
L 140.073083 238.738333 
L 140.226464 238.738333 
L 140.226464 238.275212 
L 140.363363 238.275212 
L 140.363363 237.812091 
L 141.263941 237.812091 
L 141.263941 237.348971 
L 141.746425 237.348971 
L 141.746425 236.42273 
L 141.885829 236.42273 
L 141.885829 235.959609 
L 142.07914 235.959609 
L 142.07914 235.033368 
L 142.20229 235.033368 
L 142.20229 234.107127 
L 142.646541 234.107127 
L 142.646541 233.644007 
L 143.260342 233.644007 
L 143.324386 232.254645 
L 143.703791 232.254645 
L 143.703791 231.328404 
L 147.540122 231.328404 
L 147.540122 230.402163 
L 338.688 230.402163 
L 338.688 230.402163 
" style="fill:none;stroke:#6495ed;stroke-linecap:square;stroke-width:1.5;"/>
   </g>
   <g id="line2d_51">
    <defs>
     <path d="M -0 6 
L 6 -6 
L -6 -6 
z
" id="macd16ab826" style="stroke:#6495ed;stroke-linejoin:miter;stroke-width:1.5;"/>
    </defs>
    <g>
     <use style="fill-opacity:0;stroke:#6495ed;stroke-linejoin:miter;stroke-width:1.5;" x="110.016944" xlink:href="#macd16ab826" y="281.34542"/>
     <use style="fill-opacity:0;stroke:#6495ed;stroke-linejoin:miter;stroke-width:1.5;" x="147.540122" xlink:href="#macd16ab826" y="231.328404"/>
     <use style="fill-opacity:0;stroke:#6495ed;stroke-linejoin:miter;stroke-width:1.5;" x="147.540122" xlink:href="#macd16ab826" y="231.328404"/>
     <use style="fill-opacity:0;stroke:#6495ed;stroke-linejoin:miter;stroke-width:1.5;" x="147.540122" xlink:href="#macd16ab826" y="230.402163"/>
     <use style="fill-opacity:0;stroke:#6495ed;stroke-linejoin:miter;stroke-width:1.5;" x="147.540122" xlink:href="#macd16ab826" y="230.402163"/>
     <use style="fill-opacity:0;stroke:#6495ed;stroke-linejoin:miter;stroke-width:1.5;" x="338.688" xlink:href="#macd16ab826" y="230.402163"/>
    </g>
   </g>
   <g id="line2d_52">
    <path style="fill:none;stroke:#6495ed;stroke-linecap:square;stroke-width:1.5;"/>
    <g/>
   </g>
   <g id="line2d_53">
    <path clip-path="url(#p0920671f6e)" d="M 258.377178 230.402163 
" style="fill:none;stroke:#6495ed;stroke-linecap:square;stroke-width:1.5;"/>
    <defs>
     <path d="M -12 12 
L 12 -12 
M -12 -12 
L 12 12 
" id="m025f3235de" style="stroke:#6495ed;"/>
    </defs>
    <g clip-path="url(#p0920671f6e)">
     <use style="fill:#6495ed;stroke:#6495ed;" x="258.377178" xlink:href="#m025f3235de" y="230.402163"/>
    </g>
   </g>
   <g id="line2d_54">
    <defs>
     <path d="M 0 1.5 
C 0.397805 1.5 0.77937 1.341951 1.06066 1.06066 
C 1.341951 0.77937 1.5 0.397805 1.5 0 
C 1.5 -0.397805 1.341951 -0.77937 1.06066 -1.06066 
C 0.77937 -1.341951 0.397805 -1.5 0 -1.5 
C -0.397805 -1.5 -0.77937 -1.341951 -1.06066 -1.06066 
C -1.341951 -0.77937 -1.5 -0.397805 -1.5 0 
C -1.5 0.397805 -1.341951 0.77937 -1.06066 1.06066 
C -0.77937 1.341951 -0.397805 1.5 0 1.5 
z
" id="m40ebeb1c34" style="stroke:#ff0000;"/>
    </defs>
    <g>
     <use style="fill:#ff0000;stroke:#ff0000;" x="190.679068" xlink:href="#m40ebeb1c34" y="191.50004"/>
     <use style="fill:#ff0000;stroke:#ff0000;" x="190.679068" xlink:href="#m40ebeb1c34" y="191.50004"/>
    </g>
   </g>
   <g id="line2d_55">
    <path d="M 17.444571 298.944 
L 17.444571 290.607831 
L 36.60358 290.607831 
L 36.60358 290.14471 
L 57.6 290.14471 
L 57.6 289.68159 
L 87.952479 289.68159 
L 87.952479 289.218469 
L 90.509138 289.218469 
L 90.509138 288.755349 
L 93.422441 288.755349 
L 93.422441 288.292228 
L 99.41757 288.292228 
L 99.41757 287.829108 
L 100.192776 287.829108 
L 100.192776 287.365987 
L 107.614095 287.365987 
L 107.614095 286.902867 
L 108.671345 286.902867 
L 108.671345 285.976625 
L 110.61104 285.976625 
L 110.61104 283.197902 
L 113.167699 283.197902 
L 113.167699 281.808541 
L 115.397021 281.808541 
L 115.397021 280.8823 
L 117.373392 280.8823 
L 117.373392 280.419179 
L 117.985359 280.419179 
L 117.985359 279.492938 
L 119.552816 279.492938 
L 119.552816 278.566697 
L 120.238719 278.566697 
L 120.238719 278.103577 
L 121.756135 278.103577 
L 121.756135 276.714215 
L 122.233953 276.714215 
L 122.233953 276.251095 
L 123.152022 276.251095 
L 123.152022 275.787974 
L 123.354102 275.787974 
L 123.354102 275.324854 
L 123.593547 275.324854 
L 123.593547 274.861733 
L 126.405947 274.861733 
L 126.405947 274.398612 
L 128.046609 274.398612 
L 128.046609 273.935492 
L 129.262072 273.935492 
L 129.31925 273.009251 
L 129.404667 273.009251 
L 129.404667 272.54613 
L 129.770048 272.54613 
L 129.770048 271.619889 
L 130.073348 271.619889 
L 130.073348 271.156769 
L 132.326708 271.156769 
L 132.326708 270.693648 
L 133.284766 270.693648 
L 133.284766 270.230528 
L 134.321942 270.230528 
L 134.321942 269.767407 
L 135.240011 269.767407 
L 135.240011 268.378046 
L 135.522271 268.378046 
L 135.522271 267.914925 
L 135.681535 267.914925 
L 135.681535 266.988684 
L 137.343676 266.988684 
L 137.343676 266.525564 
L 138.493936 266.525564 
L 138.493936 266.062443 
L 138.67848 266.062443 
L 138.67848 265.599323 
L 138.861092 265.599323 
L 138.861092 265.136202 
L 139.041811 265.136202 
L 139.041811 264.673082 
L 139.220677 264.673082 
L 139.220677 263.746841 
L 139.918342 263.746841 
L 139.918342 263.28372 
L 140.408758 263.28372 
L 140.408758 262.8206 
L 141.235139 262.8206 
L 141.321401 260.968117 
L 141.563518 260.968117 
L 141.563518 260.504997 
L 142.459451 260.504997 
L 142.459451 260.041876 
L 143.11861 260.041876 
L 143.11861 259.578756 
L 144.111818 259.578756 
L 144.111818 259.115635 
L 144.474645 259.115635 
L 144.474645 258.652515 
L 144.888619 258.652515 
L 144.888619 257.726274 
L 145.315819 257.726274 
L 145.315819 257.263153 
L 145.440832 257.263153 
L 145.440832 256.336912 
L 145.810583 256.336912 
L 145.810583 255.410671 
L 146.875005 255.410671 
L 146.875005 254.947551 
L 147.759612 254.947551 
L 147.759612 254.02131 
L 148.315765 254.02131 
L 148.315765 253.558189 
L 148.440161 253.558189 
L 148.440161 253.095069 
L 148.798773 253.095069 
L 148.826773 251.705707 
L 149.00307 251.705707 
L 149.00307 250.779466 
L 149.232356 250.779466 
L 149.232356 250.316346 
L 149.359452 250.316346 
L 149.359452 249.853225 
L 150.573489 249.853225 
L 150.581924 248.926984 
L 151.039674 248.926984 
L 151.1298 248.000743 
L 151.645126 248.000743 
L 151.645126 247.537622 
L 152.091608 247.537622 
L 152.176471 245.68514 
L 152.428609 245.68514 
L 152.428609 244.758899 
L 152.759222 244.758899 
L 152.759222 244.295779 
L 153.003132 244.295779 
L 153.003132 242.906417 
L 153.185667 242.906417 
L 153.185667 241.980176 
L 153.48809 241.980176 
L 153.48809 241.517056 
L 153.792374 241.517056 
L 153.792374 241.053935 
L 154.547439 241.053935 
L 154.634552 240.127694 
L 154.840544 240.127694 
L 154.847148 237.812091 
L 155.412374 237.812091 
L 155.412374 236.88585 
L 155.565128 236.88585 
L 155.565128 235.959609 
L 156.248622 235.959609 
L 156.248622 235.496489 
L 156.818094 235.496489 
L 156.894595 234.107127 
L 157.340963 234.107127 
L 157.340963 233.180886 
L 157.466426 233.180886 
L 157.466426 232.254645 
L 158.0201 232.254645 
L 158.0201 231.328404 
L 158.433528 231.328404 
L 158.433528 230.865284 
L 158.556736 230.865284 
L 158.556736 230.402163 
L 158.9003 230.402163 
L 158.9003 229.475922 
L 159.206397 229.475922 
L 159.206397 228.549681 
L 159.822797 228.549681 
L 159.852557 226.697199 
L 159.980933 226.697199 
L 159.980933 225.770958 
L 160.181471 225.770958 
L 160.254266 223.918476 
L 160.618496 223.918476 
L 160.618496 223.455355 
L 161.26559 223.455355 
L 161.26559 222.992235 
L 161.7523 222.992235 
L 161.7523 222.065994 
L 161.893939 222.065994 
L 161.893939 221.602873 
L 162.186823 221.602873 
L 162.186823 220.676632 
L 162.359362 220.676632 
L 162.359362 219.750391 
L 163.037069 219.750391 
L 163.127663 217.897909 
L 163.278972 217.897909 
L 163.307451 216.045427 
L 163.557683 216.045427 
L 163.66156 214.656066 
L 163.9617 214.656066 
L 163.9617 213.729825 
L 164.144761 213.729825 
L 164.144761 212.803583 
L 164.516598 212.803583 
L 164.516598 212.340463 
L 164.686444 212.340463 
L 164.746437 210.951101 
L 164.876958 210.951101 
L 164.984368 210.02486 
L 165.072761 210.02486 
L 165.178976 209.098619 
L 165.439918 209.098619 
L 165.439918 208.172378 
L 166.595075 208.172378 
L 166.638786 206.319896 
L 166.732564 206.319896 
L 166.732564 205.856776 
L 166.878918 205.856776 
L 166.878918 204.930535 
L 167.288118 204.930535 
L 167.394563 203.078053 
L 167.851597 203.078053 
L 167.851597 202.151812 
L 168.007528 202.151812 
L 168.007528 201.688691 
L 168.208177 201.688691 
L 168.208177 200.76245 
L 168.755041 200.76245 
L 168.829244 199.836209 
L 170.2479 199.836209 
L 170.34592 198.909968 
L 170.819995 198.909968 
L 170.819995 197.983727 
L 171.253194 197.983727 
L 171.253194 197.057486 
L 171.848622 197.057486 
L 171.848622 196.594365 
L 172.373705 196.594365 
L 172.373705 196.131245 
L 172.670877 196.131245 
L 172.670877 195.668124 
L 172.798725 195.668124 
L 172.798725 194.741883 
L 174.190075 194.741883 
L 174.190075 194.278763 
L 175.77741 194.278763 
L 175.77741 193.815642 
L 178.689795 193.815642 
L 178.689795 192.889401 
L 187.737667 192.889401 
L 187.737667 192.426281 
L 190.679068 192.426281 
L 190.679068 191.50004 
L 338.688 191.50004 
L 338.688 191.50004 
" style="fill:none;stroke:#ff0000;stroke-linecap:square;stroke-width:1.5;"/>
   </g>
   <g id="line2d_56">
    <defs>
     <path d="M 0 -6 
L -5.196152 -3 
L -5.196152 3 
L -0 6 
L 5.196152 3 
L 5.196152 -3 
z
" id="m498c5b5f91" style="stroke:#ff0000;stroke-linejoin:miter;stroke-width:1.5;"/>
    </defs>
    <g>
     <use style="fill-opacity:0;stroke:#ff0000;stroke-linejoin:miter;stroke-width:1.5;" x="110.61104" xlink:href="#m498c5b5f91" y="283.197902"/>
     <use style="fill-opacity:0;stroke:#ff0000;stroke-linejoin:miter;stroke-width:1.5;" x="152.759222" xlink:href="#m498c5b5f91" y="244.758899"/>
     <use style="fill-opacity:0;stroke:#ff0000;stroke-linejoin:miter;stroke-width:1.5;" x="190.679068" xlink:href="#m498c5b5f91" y="192.426281"/>
     <use style="fill-opacity:0;stroke:#ff0000;stroke-linejoin:miter;stroke-width:1.5;" x="190.679068" xlink:href="#m498c5b5f91" y="191.50004"/>
     <use style="fill-opacity:0;stroke:#ff0000;stroke-linejoin:miter;stroke-width:1.5;" x="190.679068" xlink:href="#m498c5b5f91" y="191.50004"/>
     <use style="fill-opacity:0;stroke:#ff0000;stroke-linejoin:miter;stroke-width:1.5;" x="338.688" xlink:href="#m498c5b5f91" y="191.50004"/>
    </g>
   </g>
   <g id="line2d_57">
    <path style="fill:none;stroke:#ff0000;stroke-linecap:square;stroke-width:1.5;"/>
    <g/>
   </g>
   <g id="line2d_58">
    <path clip-path="url(#p0920671f6e)" d="M 258.377317 191.50004 
" style="fill:none;stroke:#ff0000;stroke-linecap:square;stroke-width:1.5;"/>
    <defs>
     <path d="M -12 12 
L 12 -12 
M -12 -12 
L 12 12 
" id="maf999531af" style="stroke:#ff0000;"/>
    </defs>
    <g clip-path="url(#p0920671f6e)">
     <use style="fill:#ff0000;stroke:#ff0000;" x="258.377317" xlink:href="#maf999531af" y="191.50004"/>
    </g>
   </g>
   <g id="line2d_59">
    <path d="M 338.688 230.402163 
L 369.60768 293.571802 
" style="fill:none;stroke:#6495ed;stroke-linecap:square;stroke-width:1.5;"/>
    <g>
     <use style="fill-opacity:0;stroke:#6495ed;stroke-linejoin:miter;stroke-width:1.5;" x="338.688" xlink:href="#macd16ab826" y="230.402163"/>
     <use style="fill-opacity:0;stroke:#6495ed;stroke-linejoin:miter;stroke-width:1.5;" x="369.60768" xlink:href="#macd16ab826" y="293.571802"/>
    </g>
   </g>
   <g id="line2d_60">
    <path d="M 338.688 191.50004 
L 369.60768 241.998701 
" style="fill:none;stroke:#ff0000;stroke-linecap:square;stroke-width:1.5;"/>
    <g>
     <use style="fill-opacity:0;stroke:#ff0000;stroke-linejoin:miter;stroke-width:1.5;" x="338.688" xlink:href="#m498c5b5f91" y="191.50004"/>
     <use style="fill-opacity:0;stroke:#ff0000;stroke-linejoin:miter;stroke-width:1.5;" x="369.60768" xlink:href="#m498c5b5f91" y="241.998701"/>
    </g>
   </g>
   <g id="line2d_61">
    <path d="M 338.688 124.810685 
L 369.60768 190.4256 
" style="fill:none;stroke:#ffa500;stroke-linecap:square;stroke-width:1.5;"/>
    <g>
     <use style="fill-opacity:0;stroke:#ffa500;stroke-linejoin:bevel;stroke-width:1.5;" x="338.688" xlink:href="#m28e58a51ea" y="124.810685"/>
     <use style="fill-opacity:0;stroke:#ffa500;stroke-linejoin:bevel;stroke-width:1.5;" x="369.60768" xlink:href="#m28e58a51ea" y="190.4256"/>
    </g>
   </g>
   <g id="line2d_62">
    <path d="M 338.688 116.474516 
L 369.60768 138.852499 
" style="fill:none;stroke:#000080;stroke-linecap:square;stroke-width:1.5;"/>
    <g>
     <use style="fill-opacity:0;stroke:#000080;stroke-width:1.5;" x="338.688" xlink:href="#me1b0b3f518" y="116.474516"/>
     <use style="fill-opacity:0;stroke:#000080;stroke-width:1.5;" x="369.60768" xlink:href="#me1b0b3f518" y="138.852499"/>
    </g>
   </g>
   <g id="line2d_63">
    <path d="M 338.688 113.695792 
L 369.60768 87.279398 
" style="fill:none;stroke:#ff00ff;stroke-linecap:square;stroke-width:1.5;"/>
    <g>
     <use style="fill-opacity:0;stroke:#ff00ff;stroke-linejoin:miter;stroke-width:1.5;" x="338.688" xlink:href="#m010c63a88c" y="113.695792"/>
     <use style="fill-opacity:0;stroke:#ff00ff;stroke-linejoin:miter;stroke-width:1.5;" x="369.60768" xlink:href="#m010c63a88c" y="87.279398"/>
    </g>
   </g>
   <g id="line2d_64">
    <path d="M 338.688 298.944 
L 338.688 30.334099 
" style="fill:none;stroke:#000000;stroke-linecap:square;stroke-width:1.5;"/>
   </g>
   <g id="patch_3">
    <path d="M 57.6 298.944 
L 57.6 27.648 
" style="fill:none;stroke:#000000;stroke-linecap:square;stroke-linejoin:miter;stroke-width:0.8;"/>
   </g>
   <g id="patch_4">
    <path d="M 338.688 298.944 
L 338.688 27.648 
" style="fill:none;stroke:#000000;stroke-linecap:square;stroke-linejoin:miter;stroke-width:0.8;"/>
   </g>
   <g id="patch_5">
    <path d="M 57.6 298.944 
L 338.688 298.944 
" style="fill:none;stroke:#000000;stroke-linecap:square;stroke-linejoin:miter;stroke-width:0.8;"/>
   </g>
   <g id="patch_6">
    <path d="M 57.6 27.648 
L 338.688 27.648 
" style="fill:none;stroke:#000000;stroke-linecap:square;stroke-linejoin:miter;stroke-width:0.8;"/>
   </g>
   <g id="text_13">
    <!-- COMO-3 bio -->
    <defs>
     <path d="M 64.40625 67.28125 
L 64.40625 56.890625 
Q 59.421875 61.53125 53.78125 63.8125 
Q 48.140625 66.109375 41.796875 66.109375 
Q 29.296875 66.109375 22.65625 58.46875 
Q 16.015625 50.828125 16.015625 36.375 
Q 16.015625 21.96875 22.65625 14.328125 
Q 29.296875 6.6875 41.796875 6.6875 
Q 48.140625 6.6875 53.78125 8.984375 
Q 59.421875 11.28125 64.40625 15.921875 
L 64.40625 5.609375 
Q 59.234375 2.09375 53.4375 0.328125 
Q 47.65625 -1.421875 41.21875 -1.421875 
Q 24.65625 -1.421875 15.125 8.703125 
Q 5.609375 18.84375 5.609375 36.375 
Q 5.609375 53.953125 15.125 64.078125 
Q 24.65625 74.21875 41.21875 74.21875 
Q 47.75 74.21875 53.53125 72.484375 
Q 59.328125 70.75 64.40625 67.28125 
z
" id="DejaVuSans-67"/>
     <path d="M 39.40625 66.21875 
Q 28.65625 66.21875 22.328125 58.203125 
Q 16.015625 50.203125 16.015625 36.375 
Q 16.015625 22.609375 22.328125 14.59375 
Q 28.65625 6.59375 39.40625 6.59375 
Q 50.140625 6.59375 56.421875 14.59375 
Q 62.703125 22.609375 62.703125 36.375 
Q 62.703125 50.203125 56.421875 58.203125 
Q 50.140625 66.21875 39.40625 66.21875 
z
M 39.40625 74.21875 
Q 54.734375 74.21875 63.90625 63.9375 
Q 73.09375 53.65625 73.09375 36.375 
Q 73.09375 19.140625 63.90625 8.859375 
Q 54.734375 -1.421875 39.40625 -1.421875 
Q 24.03125 -1.421875 14.8125 8.828125 
Q 5.609375 19.09375 5.609375 36.375 
Q 5.609375 53.65625 14.8125 63.9375 
Q 24.03125 74.21875 39.40625 74.21875 
z
" id="DejaVuSans-79"/>
     <path d="M 9.8125 72.90625 
L 24.515625 72.90625 
L 43.109375 23.296875 
L 61.8125 72.90625 
L 76.515625 72.90625 
L 76.515625 0 
L 66.890625 0 
L 66.890625 64.015625 
L 48.09375 14.015625 
L 38.1875 14.015625 
L 19.390625 64.015625 
L 19.390625 0 
L 9.8125 0 
z
" id="DejaVuSans-77"/>
     <path d="M 40.578125 39.3125 
Q 47.65625 37.796875 51.625 33 
Q 55.609375 28.21875 55.609375 21.1875 
Q 55.609375 10.40625 48.1875 4.484375 
Q 40.765625 -1.421875 27.09375 -1.421875 
Q 22.515625 -1.421875 17.65625 -0.515625 
Q 12.796875 0.390625 7.625 2.203125 
L 7.625 11.71875 
Q 11.71875 9.328125 16.59375 8.109375 
Q 21.484375 6.890625 26.8125 6.890625 
Q 36.078125 6.890625 40.9375 10.546875 
Q 45.796875 14.203125 45.796875 21.1875 
Q 45.796875 27.640625 41.28125 31.265625 
Q 36.765625 34.90625 28.71875 34.90625 
L 20.21875 34.90625 
L 20.21875 43.015625 
L 29.109375 43.015625 
Q 36.375 43.015625 40.234375 45.921875 
Q 44.09375 48.828125 44.09375 54.296875 
Q 44.09375 59.90625 40.109375 62.90625 
Q 36.140625 65.921875 28.71875 65.921875 
Q 24.65625 65.921875 20.015625 65.03125 
Q 15.375 64.15625 9.8125 62.3125 
L 9.8125 71.09375 
Q 15.4375 72.65625 20.34375 73.4375 
Q 25.25 74.21875 29.59375 74.21875 
Q 40.828125 74.21875 47.359375 69.109375 
Q 53.90625 64.015625 53.90625 55.328125 
Q 53.90625 49.265625 50.4375 45.09375 
Q 46.96875 40.921875 40.578125 39.3125 
z
" id="DejaVuSans-51"/>
     <path d="M 48.6875 27.296875 
Q 48.6875 37.203125 44.609375 42.84375 
Q 40.53125 48.484375 33.40625 48.484375 
Q 26.265625 48.484375 22.1875 42.84375 
Q 18.109375 37.203125 18.109375 27.296875 
Q 18.109375 17.390625 22.1875 11.75 
Q 26.265625 6.109375 33.40625 6.109375 
Q 40.53125 6.109375 44.609375 11.75 
Q 48.6875 17.390625 48.6875 27.296875 
z
M 18.109375 46.390625 
Q 20.953125 51.265625 25.265625 53.625 
Q 29.59375 56 35.59375 56 
Q 45.5625 56 51.78125 48.09375 
Q 58.015625 40.1875 58.015625 27.296875 
Q 58.015625 14.40625 51.78125 6.484375 
Q 45.5625 -1.421875 35.59375 -1.421875 
Q 29.59375 -1.421875 25.265625 0.953125 
Q 20.953125 3.328125 18.109375 8.203125 
L 18.109375 0 
L 9.078125 0 
L 9.078125 75.984375 
L 18.109375 75.984375 
z
" id="DejaVuSans-98"/>
    </defs>
    <g transform="translate(375.22944 298.262739)scale(0.17 -0.17)">
     <use xlink:href="#DejaVuSans-67"/>
     <use x="69.824219" xlink:href="#DejaVuSans-79"/>
     <use x="148.535156" xlink:href="#DejaVuSans-77"/>
     <use x="234.814453" xlink:href="#DejaVuSans-79"/>
     <use x="313.556641" xlink:href="#DejaVuSans-45"/>
     <use x="349.640625" xlink:href="#DejaVuSans-51"/>
     <use x="413.263672" xlink:href="#DejaVuSans-32"/>
     <use x="445.050781" xlink:href="#DejaVuSans-98"/>
     <use x="508.527344" xlink:href="#DejaVuSans-105"/>
     <use x="536.310547" xlink:href="#DejaVuSans-111"/>
    </g>
   </g>
   <g id="text_14">
    <!-- COMO-10 bi -->
    <g transform="translate(375.22944 246.689638)scale(0.17 -0.17)">
     <use xlink:href="#DejaVuSans-67"/>
     <use x="69.824219" xlink:href="#DejaVuSans-79"/>
     <use x="148.535156" xlink:href="#DejaVuSans-77"/>
     <use x="234.814453" xlink:href="#DejaVuSans-79"/>
     <use x="313.556641" xlink:href="#DejaVuSans-45"/>
     <use x="349.640625" xlink:href="#DejaVuSans-49"/>
     <use x="413.263672" xlink:href="#DejaVuSans-48"/>
     <use x="476.886719" xlink:href="#DejaVuSans-32"/>
     <use x="508.673828" xlink:href="#DejaVuSans-98"/>
     <use x="572.150391" xlink:href="#DejaVuSans-105"/>
    </g>
   </g>
   <g id="text_15">
    <!-- chv-1e-5to -->
    <defs>
     <path d="M 54.890625 33.015625 
L 54.890625 0 
L 45.90625 0 
L 45.90625 32.71875 
Q 45.90625 40.484375 42.875 44.328125 
Q 39.84375 48.1875 33.796875 48.1875 
Q 26.515625 48.1875 22.3125 43.546875 
Q 18.109375 38.921875 18.109375 30.90625 
L 18.109375 0 
L 9.078125 0 
L 9.078125 75.984375 
L 18.109375 75.984375 
L 18.109375 46.1875 
Q 21.34375 51.125 25.703125 53.5625 
Q 30.078125 56 35.796875 56 
Q 45.21875 56 50.046875 50.171875 
Q 54.890625 44.34375 54.890625 33.015625 
z
" id="DejaVuSans-104"/>
     <path d="M 10.796875 72.90625 
L 49.515625 72.90625 
L 49.515625 64.59375 
L 19.828125 64.59375 
L 19.828125 46.734375 
Q 21.96875 47.46875 24.109375 47.828125 
Q 26.265625 48.1875 28.421875 48.1875 
Q 40.625 48.1875 47.75 41.5 
Q 54.890625 34.8125 54.890625 23.390625 
Q 54.890625 11.625 47.5625 5.09375 
Q 40.234375 -1.421875 26.90625 -1.421875 
Q 22.3125 -1.421875 17.546875 -0.640625 
Q 12.796875 0.140625 7.71875 1.703125 
L 7.71875 11.625 
Q 12.109375 9.234375 16.796875 8.0625 
Q 21.484375 6.890625 26.703125 6.890625 
Q 35.15625 6.890625 40.078125 11.328125 
Q 45.015625 15.765625 45.015625 23.390625 
Q 45.015625 31 40.078125 35.4375 
Q 35.15625 39.890625 26.703125 39.890625 
Q 22.75 39.890625 18.8125 39.015625 
Q 14.890625 38.140625 10.796875 36.28125 
z
" id="DejaVuSans-53"/>
    </defs>
    <g transform="translate(375.22944 195.116537)scale(0.17 -0.17)">
     <use xlink:href="#DejaVuSans-99"/>
     <use x="54.980469" xlink:href="#DejaVuSans-104"/>
     <use x="118.359375" xlink:href="#DejaVuSans-118"/>
     <use x="177.507812" xlink:href="#DejaVuSans-45"/>
     <use x="213.591797" xlink:href="#DejaVuSans-49"/>
     <use x="277.214844" xlink:href="#DejaVuSans-101"/>
     <use x="338.738281" xlink:href="#DejaVuSans-45"/>
     <use x="374.822266" xlink:href="#DejaVuSans-53"/>
     <use x="438.445312" xlink:href="#DejaVuSans-116"/>
     <use x="477.654297" xlink:href="#DejaVuSans-111"/>
    </g>
   </g>
   <g id="text_16">
    <!-- chv-1e-1to -->
    <g transform="translate(375.22944 143.543437)scale(0.17 -0.17)">
     <use xlink:href="#DejaVuSans-99"/>
     <use x="54.980469" xlink:href="#DejaVuSans-104"/>
     <use x="118.359375" xlink:href="#DejaVuSans-118"/>
     <use x="177.507812" xlink:href="#DejaVuSans-45"/>
     <use x="213.591797" xlink:href="#DejaVuSans-49"/>
     <use x="277.214844" xlink:href="#DejaVuSans-101"/>
     <use x="338.738281" xlink:href="#DejaVuSans-45"/>
     <use x="374.822266" xlink:href="#DejaVuSans-49"/>
     <use x="438.445312" xlink:href="#DejaVuSans-116"/>
     <use x="477.654297" xlink:href="#DejaVuSans-111"/>
    </g>
   </g>
   <g id="text_17">
    <!-- chv-1e-3to -->
    <g transform="translate(375.22944 91.970336)scale(0.17 -0.17)">
     <use xlink:href="#DejaVuSans-99"/>
     <use x="54.980469" xlink:href="#DejaVuSans-104"/>
     <use x="118.359375" xlink:href="#DejaVuSans-118"/>
     <use x="177.507812" xlink:href="#DejaVuSans-45"/>
     <use x="213.591797" xlink:href="#DejaVuSans-49"/>
     <use x="277.214844" xlink:href="#DejaVuSans-101"/>
     <use x="338.738281" xlink:href="#DejaVuSans-45"/>
     <use x="374.822266" xlink:href="#DejaVuSans-51"/>
     <use x="438.445312" xlink:href="#DejaVuSans-116"/>
     <use x="477.654297" xlink:href="#DejaVuSans-111"/>
    </g>
   </g>
   <g id="text_18">
    <!-- best 2016 -->
    <g transform="translate(375.22944 40.397235)scale(0.17 -0.17)">
     <use xlink:href="#DejaVuSans-98"/>
     <use x="63.476562" xlink:href="#DejaVuSans-101"/>
     <use x="125" xlink:href="#DejaVuSans-115"/>
     <use x="177.099609" xlink:href="#DejaVuSans-116"/>
     <use x="216.308594" xlink:href="#DejaVuSans-32"/>
     <use x="248.095703" xlink:href="#DejaVuSans-50"/>
     <use x="311.71875" xlink:href="#DejaVuSans-48"/>
     <use x="375.341797" xlink:href="#DejaVuSans-49"/>
     <use x="438.964844" xlink:href="#DejaVuSans-54"/>
    </g>
   </g>
   <g id="text_19">
    <!-- bbob-biobj f6, 10-D -->
    <defs>
     <path d="M 9.421875 54.6875 
L 18.40625 54.6875 
L 18.40625 -0.984375 
Q 18.40625 -11.421875 14.421875 -16.109375 
Q 10.453125 -20.796875 1.609375 -20.796875 
L -1.8125 -20.796875 
L -1.8125 -13.1875 
L 0.59375 -13.1875 
Q 5.71875 -13.1875 7.5625 -10.8125 
Q 9.421875 -8.453125 9.421875 -0.984375 
z
M 9.421875 75.984375 
L 18.40625 75.984375 
L 18.40625 64.59375 
L 9.421875 64.59375 
z
" id="DejaVuSans-106"/>
     <path d="M 19.671875 64.796875 
L 19.671875 8.109375 
L 31.59375 8.109375 
Q 46.6875 8.109375 53.6875 14.9375 
Q 60.6875 21.78125 60.6875 36.53125 
Q 60.6875 51.171875 53.6875 57.984375 
Q 46.6875 64.796875 31.59375 64.796875 
z
M 9.8125 72.90625 
L 30.078125 72.90625 
Q 51.265625 72.90625 61.171875 64.09375 
Q 71.09375 55.28125 71.09375 36.53125 
Q 71.09375 17.671875 61.125 8.828125 
Q 51.171875 0 30.078125 0 
L 9.8125 0 
z
" id="DejaVuSans-68"/>
    </defs>
    <g transform="translate(60.41088 38.111366)scale(0.102 -0.102)">
     <use xlink:href="#DejaVuSans-98"/>
     <use x="63.476562" xlink:href="#DejaVuSans-98"/>
     <use x="126.953125" xlink:href="#DejaVuSans-111"/>
     <use x="188.134766" xlink:href="#DejaVuSans-98"/>
     <use x="251.611328" xlink:href="#DejaVuSans-45"/>
     <use x="287.695312" xlink:href="#DejaVuSans-98"/>
     <use x="351.171875" xlink:href="#DejaVuSans-105"/>
     <use x="378.955078" xlink:href="#DejaVuSans-111"/>
     <use x="440.136719" xlink:href="#DejaVuSans-98"/>
     <use x="503.613281" xlink:href="#DejaVuSans-106"/>
     <use x="531.396484" xlink:href="#DejaVuSans-32"/>
     <use x="563.183594" xlink:href="#DejaVuSans-102"/>
     <use x="598.388672" xlink:href="#DejaVuSans-54"/>
     <use x="662.011719" xlink:href="#DejaVuSans-44"/>
     <use x="693.798828" xlink:href="#DejaVuSans-32"/>
     <use x="725.585938" xlink:href="#DejaVuSans-49"/>
     <use x="789.208984" xlink:href="#DejaVuSans-48"/>
     <use x="852.832031" xlink:href="#DejaVuSans-45"/>
     <use x="888.916016" xlink:href="#DejaVuSans-68"/>
    </g>
    <!-- 58 targets: 1..-1.0e-4 -->
    <defs>
     <path d="M 11.71875 12.40625 
L 22.015625 12.40625 
L 22.015625 0 
L 11.71875 0 
z
M 11.71875 51.703125 
L 22.015625 51.703125 
L 22.015625 39.3125 
L 11.71875 39.3125 
z
" id="DejaVuSans-58"/>
    </defs>
    <g transform="translate(60.41088 49.533135)scale(0.102 -0.102)">
     <use xlink:href="#DejaVuSans-53"/>
     <use x="63.623047" xlink:href="#DejaVuSans-56"/>
     <use x="127.246094" xlink:href="#DejaVuSans-32"/>
     <use x="159.033203" xlink:href="#DejaVuSans-116"/>
     <use x="198.242188" xlink:href="#DejaVuSans-97"/>
     <use x="259.521484" xlink:href="#DejaVuSans-114"/>
     <use x="300.619141" xlink:href="#DejaVuSans-103"/>
     <use x="364.095703" xlink:href="#DejaVuSans-101"/>
     <use x="425.619141" xlink:href="#DejaVuSans-116"/>
     <use x="464.828125" xlink:href="#DejaVuSans-115"/>
     <use x="516.927734" xlink:href="#DejaVuSans-58"/>
     <use x="550.619141" xlink:href="#DejaVuSans-32"/>
     <use x="582.40625" xlink:href="#DejaVuSans-49"/>
     <use x="646.029297" xlink:href="#DejaVuSans-46"/>
     <use x="677.816406" xlink:href="#DejaVuSans-46"/>
     <use x="709.603516" xlink:href="#DejaVuSans-45"/>
     <use x="745.6875" xlink:href="#DejaVuSans-49"/>
     <use x="809.310547" xlink:href="#DejaVuSans-46"/>
     <use x="841.097656" xlink:href="#DejaVuSans-48"/>
     <use x="904.720703" xlink:href="#DejaVuSans-101"/>
     <use x="966.244141" xlink:href="#DejaVuSans-45"/>
     <use x="1002.328125" xlink:href="#DejaVuSans-52"/>
    </g>
    <!-- 10, 5 instances -->
    <g transform="translate(60.41088 60.954904)scale(0.102 -0.102)">
     <use xlink:href="#DejaVuSans-49"/>
     <use x="63.623047" xlink:href="#DejaVuSans-48"/>
     <use x="127.246094" xlink:href="#DejaVuSans-44"/>
     <use x="159.033203" xlink:href="#DejaVuSans-32"/>
     <use x="190.820312" xlink:href="#DejaVuSans-53"/>
     <use x="254.443359" xlink:href="#DejaVuSans-32"/>
     <use x="286.230469" xlink:href="#DejaVuSans-105"/>
     <use x="314.013672" xlink:href="#DejaVuSans-110"/>
     <use x="377.392578" xlink:href="#DejaVuSans-115"/>
     <use x="429.492188" xlink:href="#DejaVuSans-116"/>
     <use x="468.701172" xlink:href="#DejaVuSans-97"/>
     <use x="529.980469" xlink:href="#DejaVuSans-110"/>
     <use x="593.359375" xlink:href="#DejaVuSans-99"/>
     <use x="648.339844" xlink:href="#DejaVuSans-101"/>
     <use x="709.863281" xlink:href="#DejaVuSans-115"/>
    </g>
   </g>
   <g id="text_20">
    <!-- v2.3.1.83, hv-hash=d240b271ab0b4926 -->
    <defs>
     <path d="M 10.59375 45.40625 
L 73.1875 45.40625 
L 73.1875 37.203125 
L 10.59375 37.203125 
z
M 10.59375 25.484375 
L 73.1875 25.484375 
L 73.1875 17.1875 
L 10.59375 17.1875 
z
" id="DejaVuSans-61"/>
     <path d="M 8.203125 72.90625 
L 55.078125 72.90625 
L 55.078125 68.703125 
L 28.609375 0 
L 18.3125 0 
L 43.21875 64.59375 
L 8.203125 64.59375 
z
" id="DejaVuSans-55"/>
     <path d="M 10.984375 1.515625 
L 10.984375 10.5 
Q 14.703125 8.734375 18.5 7.8125 
Q 22.3125 6.890625 25.984375 6.890625 
Q 35.75 6.890625 40.890625 13.453125 
Q 46.046875 20.015625 46.78125 33.40625 
Q 43.953125 29.203125 39.59375 26.953125 
Q 35.25 24.703125 29.984375 24.703125 
Q 19.046875 24.703125 12.671875 31.3125 
Q 6.296875 37.9375 6.296875 49.421875 
Q 6.296875 60.640625 12.9375 67.421875 
Q 19.578125 74.21875 30.609375 74.21875 
Q 43.265625 74.21875 49.921875 64.515625 
Q 56.59375 54.828125 56.59375 36.375 
Q 56.59375 19.140625 48.40625 8.859375 
Q 40.234375 -1.421875 26.421875 -1.421875 
Q 22.703125 -1.421875 18.890625 -0.6875 
Q 15.09375 0.046875 10.984375 1.515625 
z
M 30.609375 32.421875 
Q 37.25 32.421875 41.125 36.953125 
Q 45.015625 41.5 45.015625 49.421875 
Q 45.015625 57.28125 41.125 61.84375 
Q 37.25 66.40625 30.609375 66.40625 
Q 23.96875 66.40625 20.09375 61.84375 
Q 16.21875 57.28125 16.21875 49.421875 
Q 16.21875 41.5 20.09375 36.953125 
Q 23.96875 32.421875 30.609375 32.421875 
z
" id="DejaVuSans-57"/>
    </defs>
    <g style="fill:#808080;" transform="translate(96.451812 294.151352)scale(0.1 -0.1)">
     <use xlink:href="#DejaVuSans-118"/>
     <use x="59.179688" xlink:href="#DejaVuSans-50"/>
     <use x="122.802734" xlink:href="#DejaVuSans-46"/>
     <use x="154.589844" xlink:href="#DejaVuSans-51"/>
     <use x="218.212891" xlink:href="#DejaVuSans-46"/>
     <use x="250" xlink:href="#DejaVuSans-49"/>
     <use x="313.623047" xlink:href="#DejaVuSans-46"/>
     <use x="345.410156" xlink:href="#DejaVuSans-56"/>
     <use x="409.033203" xlink:href="#DejaVuSans-51"/>
     <use x="472.65625" xlink:href="#DejaVuSans-44"/>
     <use x="504.443359" xlink:href="#DejaVuSans-32"/>
     <use x="536.230469" xlink:href="#DejaVuSans-104"/>
     <use x="599.609375" xlink:href="#DejaVuSans-118"/>
     <use x="658.757812" xlink:href="#DejaVuSans-45"/>
     <use x="694.841797" xlink:href="#DejaVuSans-104"/>
     <use x="758.220703" xlink:href="#DejaVuSans-97"/>
     <use x="819.5" xlink:href="#DejaVuSans-115"/>
     <use x="871.599609" xlink:href="#DejaVuSans-104"/>
     <use x="934.978516" xlink:href="#DejaVuSans-61"/>
     <use x="1018.767578" xlink:href="#DejaVuSans-100"/>
     <use x="1082.244141" xlink:href="#DejaVuSans-50"/>
     <use x="1145.867188" xlink:href="#DejaVuSans-52"/>
     <use x="1209.490234" xlink:href="#DejaVuSans-48"/>
     <use x="1273.113281" xlink:href="#DejaVuSans-98"/>
     <use x="1336.589844" xlink:href="#DejaVuSans-50"/>
     <use x="1400.212891" xlink:href="#DejaVuSans-55"/>
     <use x="1463.835938" xlink:href="#DejaVuSans-49"/>
     <use x="1527.458984" xlink:href="#DejaVuSans-97"/>
     <use x="1588.738281" xlink:href="#DejaVuSans-98"/>
     <use x="1652.214844" xlink:href="#DejaVuSans-48"/>
     <use x="1715.837891" xlink:href="#DejaVuSans-98"/>
     <use x="1779.314453" xlink:href="#DejaVuSans-52"/>
     <use x="1842.9375" xlink:href="#DejaVuSans-57"/>
     <use x="1906.560547" xlink:href="#DejaVuSans-50"/>
     <use x="1970.183594" xlink:href="#DejaVuSans-54"/>
    </g>
   </g>
   <g id="text_21">
    <!-- 6 Sphere/Different Powers -->
    <defs>
     <path d="M 53.515625 70.515625 
L 53.515625 60.890625 
Q 47.90625 63.578125 42.921875 64.890625 
Q 37.9375 66.21875 33.296875 66.21875 
Q 25.25 66.21875 20.875 63.09375 
Q 16.5 59.96875 16.5 54.203125 
Q 16.5 49.359375 19.40625 46.890625 
Q 22.3125 44.4375 30.421875 42.921875 
L 36.375 41.703125 
Q 47.40625 39.59375 52.65625 34.296875 
Q 57.90625 29 57.90625 20.125 
Q 57.90625 9.515625 50.796875 4.046875 
Q 43.703125 -1.421875 29.984375 -1.421875 
Q 24.8125 -1.421875 18.96875 -0.25 
Q 13.140625 0.921875 6.890625 3.21875 
L 6.890625 13.375 
Q 12.890625 10.015625 18.65625 8.296875 
Q 24.421875 6.59375 29.984375 6.59375 
Q 38.421875 6.59375 43.015625 9.90625 
Q 47.609375 13.234375 47.609375 19.390625 
Q 47.609375 24.75 44.3125 27.78125 
Q 41.015625 30.8125 33.5 32.328125 
L 27.484375 33.5 
Q 16.453125 35.6875 11.515625 40.375 
Q 6.59375 45.0625 6.59375 53.421875 
Q 6.59375 63.09375 13.40625 68.65625 
Q 20.21875 74.21875 32.171875 74.21875 
Q 37.3125 74.21875 42.625 73.28125 
Q 47.953125 72.359375 53.515625 70.515625 
z
" id="DejaVuSans-83"/>
     <path d="M 19.671875 64.796875 
L 19.671875 37.40625 
L 32.078125 37.40625 
Q 38.96875 37.40625 42.71875 40.96875 
Q 46.484375 44.53125 46.484375 51.125 
Q 46.484375 57.671875 42.71875 61.234375 
Q 38.96875 64.796875 32.078125 64.796875 
z
M 9.8125 72.90625 
L 32.078125 72.90625 
Q 44.34375 72.90625 50.609375 67.359375 
Q 56.890625 61.8125 56.890625 51.125 
Q 56.890625 40.328125 50.609375 34.8125 
Q 44.34375 29.296875 32.078125 29.296875 
L 19.671875 29.296875 
L 19.671875 0 
L 9.8125 0 
z
" id="DejaVuSans-80"/>
     <path d="M 4.203125 54.6875 
L 13.1875 54.6875 
L 24.421875 12.015625 
L 35.59375 54.6875 
L 46.1875 54.6875 
L 57.421875 12.015625 
L 68.609375 54.6875 
L 77.59375 54.6875 
L 63.28125 0 
L 52.6875 0 
L 40.921875 44.828125 
L 29.109375 0 
L 18.5 0 
z
" id="DejaVuSans-119"/>
    </defs>
    <g transform="translate(66.622125 21.648)scale(0.2 -0.2)">
     <use xlink:href="#DejaVuSans-54"/>
     <use x="63.623047" xlink:href="#DejaVuSans-32"/>
     <use x="95.410156" xlink:href="#DejaVuSans-83"/>
     <use x="158.886719" xlink:href="#DejaVuSans-112"/>
     <use x="222.363281" xlink:href="#DejaVuSans-104"/>
     <use x="285.742188" xlink:href="#DejaVuSans-101"/>
     <use x="347.265625" xlink:href="#DejaVuSans-114"/>
     <use x="388.347656" xlink:href="#DejaVuSans-101"/>
     <use x="449.871094" xlink:href="#DejaVuSans-47"/>
     <use x="483.5625" xlink:href="#DejaVuSans-68"/>
     <use x="560.564453" xlink:href="#DejaVuSans-105"/>
     <use x="588.347656" xlink:href="#DejaVuSans-102"/>
     <use x="623.552734" xlink:href="#DejaVuSans-102"/>
     <use x="658.757812" xlink:href="#DejaVuSans-101"/>
     <use x="720.28125" xlink:href="#DejaVuSans-114"/>
     <use x="761.363281" xlink:href="#DejaVuSans-101"/>
     <use x="822.886719" xlink:href="#DejaVuSans-110"/>
     <use x="886.265625" xlink:href="#DejaVuSans-116"/>
     <use x="925.474609" xlink:href="#DejaVuSans-32"/>
     <use x="957.261719" xlink:href="#DejaVuSans-80"/>
     <use x="1017.517578" xlink:href="#DejaVuSans-111"/>
     <use x="1078.699219" xlink:href="#DejaVuSans-119"/>
     <use x="1160.486328" xlink:href="#DejaVuSans-101"/>
     <use x="1222.009766" xlink:href="#DejaVuSans-114"/>
     <use x="1263.123047" xlink:href="#DejaVuSans-115"/>
    </g>
   </g>
  </g>
 </g>
 <defs>
  <clipPath id="p0920671f6e">
   <rect height="271.296" width="281.088" x="57.6" y="27.648"/>
  </clipPath>
 </defs>
</svg>
