<?xml version="1.0" encoding="utf-8" standalone="no"?>
<!DOCTYPE svg PUBLIC "-//W3C//DTD SVG 1.1//EN"
  "http://www.w3.org/Graphics/SVG/1.1/DTD/svg11.dtd">
<!-- Created with matplotlib (http://matplotlib.org/) -->
<svg height="345.6pt" version="1.1" viewBox="0 0 460.8 345.6" width="460.8pt" xmlns="http://www.w3.org/2000/svg" xmlns:xlink="http://www.w3.org/1999/xlink">
 <defs>
  <style type="text/css">
*{stroke-linecap:butt;stroke-linejoin:round;}
  </style>
 </defs>
 <g id="figure_1">
  <g id="patch_1">
   <path d="M 0 345.6 
L 460.8 345.6 
L 460.8 0 
L 0 0 
z
" style="fill:#ffffff;"/>
  </g>
  <g id="axes_1">
   <g id="patch_2">
    <path d="M 56.12 294.88 
L 333.168 294.88 
L 333.168 24.84 
L 56.12 24.84 
z
" style="fill:#ffffff;"/>
   </g>
   <g id="line2d_1">
    <path d="M 28.455965 294.88 
L 28.455965 289.637523 
L 47.339607 289.637523 
L 47.339607 284.395046 
L 61.903497 284.395046 
L 61.903497 279.152568 
L 79.948502 279.152568 
L 79.948502 273.910091 
L 98.249422 273.910091 
L 98.249422 268.667614 
L 108.120612 268.667614 
L 108.120612 263.425137 
L 114.117341 263.425137 
L 114.117341 258.18266 
L 119.003236 258.18266 
L 119.003236 252.940182 
L 122.803291 252.940182 
L 122.803291 247.697705 
L 127.497741 247.697705 
L 127.497741 242.455228 
L 130.468672 242.455228 
L 130.468672 237.212751 
L 133.579779 237.212751 
L 133.579779 231.970274 
L 136.180564 231.970274 
L 136.180564 226.727797 
L 157.746429 226.727797 
L 157.746429 221.485319 
L 170.268342 221.485319 
L 170.268342 216.242842 
L 170.881263 216.242842 
L 170.881263 211.000365 
L 177.094987 211.000365 
L 177.094987 205.757888 
L 180.135042 205.757888 
L 180.135042 200.515411 
L 182.334548 200.515411 
L 182.334548 195.272933 
L 183.042806 195.272933 
L 183.042806 190.030456 
L 183.876256 190.030456 
L 183.876256 184.787979 
L 184.066389 184.787979 
L 184.066389 179.545502 
L 184.31601 179.545502 
L 184.31601 174.303025 
L 184.454231 174.303025 
L 184.454231 169.060547 
L 185.174461 169.060547 
L 185.174461 163.81807 
L 185.484713 163.81807 
L 185.484713 158.575593 
L 186.178087 158.575593 
L 186.178087 153.333116 
L 186.323349 153.333116 
L 186.323349 148.090639 
L 187.074064 148.090639 
L 187.074064 142.848162 
L 187.218676 142.848162 
L 187.218676 137.605684 
L 187.40686 137.605684 
L 187.40686 132.363207 
L 187.540496 132.363207 
L 187.540496 127.12073 
L 187.695917 127.12073 
L 187.695917 121.878253 
L 187.887029 121.878253 
L 187.887029 116.635776 
L 188.052129 116.635776 
L 188.052129 111.393298 
L 188.258268 111.393298 
L 188.258268 106.150821 
L 188.405797 106.150821 
L 188.405797 100.908344 
L 188.569107 100.908344 
L 188.569107 95.665867 
L 188.675586 95.665867 
L 188.675586 90.42339 
L 189.685304 90.42339 
L 189.685304 85.180912 
L 189.767792 85.180912 
L 189.767792 79.938435 
L 189.901534 79.938435 
L 189.901534 74.695958 
L 190.1377 74.695958 
L 190.1377 69.453481 
L 190.289626 69.453481 
L 190.289626 64.211004 
L 190.440221 64.211004 
L 190.440221 58.968526 
L 190.56196 58.968526 
L 190.56196 53.726049 
L 190.655444 53.726049 
L 190.655444 48.483572 
L 190.744331 48.483572 
L 190.744331 43.241095 
L 190.843612 43.241095 
L 190.843612 37.998618 
L 190.927486 37.998618 
L 190.927486 32.756141 
L 191.016323 32.756141 
L 191.016323 27.513663 
L 333.168 27.513663 
" style="fill:none;stroke:#f5deb3;stroke-linecap:square;stroke-width:4;"/>
   </g>
   <g id="line2d_2">
    <defs>
     <path d="M -0 7.778175 
L 7.778175 0 
L 0 -7.778175 
L -7.778175 -0 
z
" id="m56ee46028a" style="stroke:#f5deb3;stroke-linejoin:miter;stroke-width:1.5;"/>
    </defs>
    <g>
     <use style="fill:#f5deb3;stroke:#f5deb3;stroke-linejoin:miter;stroke-width:1.5;" x="122.803291" xlink:href="#m56ee46028a" y="247.697705"/>
     <use style="fill:#f5deb3;stroke:#f5deb3;stroke-linejoin:miter;stroke-width:1.5;" x="183.042806" xlink:href="#m56ee46028a" y="195.272933"/>
     <use style="fill:#f5deb3;stroke:#f5deb3;stroke-linejoin:miter;stroke-width:1.5;" x="190.440221" xlink:href="#m56ee46028a" y="58.968526"/>
     <use style="fill:#f5deb3;stroke:#f5deb3;stroke-linejoin:miter;stroke-width:1.5;" x="191.016323" xlink:href="#m56ee46028a" y="27.513663"/>
     <use style="fill:#f5deb3;stroke:#f5deb3;stroke-linejoin:miter;stroke-width:1.5;" x="191.016323" xlink:href="#m56ee46028a" y="27.513663"/>
     <use style="fill:#f5deb3;stroke:#f5deb3;stroke-linejoin:miter;stroke-width:1.5;" x="333.168" xlink:href="#m56ee46028a" y="27.513663"/>
    </g>
   </g>
   <g id="line2d_3">
    <path style="fill:none;stroke:#f5deb3;stroke-linecap:square;stroke-width:4;"/>
    <g/>
   </g>
   <g id="line2d_4">
    <path d="M 333.168 27.513663 
L 363.64328 32.86099 
" style="fill:none;stroke:#f5deb3;stroke-linecap:square;stroke-width:4;"/>
    <g>
     <use style="fill:#f5deb3;stroke:#f5deb3;stroke-linejoin:miter;stroke-width:1.5;" x="333.168" xlink:href="#m56ee46028a" y="27.513663"/>
     <use style="fill:#f5deb3;stroke:#f5deb3;stroke-linejoin:miter;stroke-width:1.5;" x="363.64328" xlink:href="#m56ee46028a" y="32.86099"/>
    </g>
   </g>
   <g id="matplotlib.axis_1">
    <g id="xtick_1">
     <g id="line2d_5">
      <path clip-path="url(#p0e776b4716)" d="M 56.12 294.88 
L 56.12 24.84 
" style="fill:none;stroke:#b0b0b0;stroke-linecap:square;stroke-width:0.8;"/>
     </g>
     <g id="line2d_6">
      <defs>
       <path d="M 0 0 
L 0 3.5 
" id="me99b5e2f89" style="stroke:#000000;stroke-width:0.8;"/>
      </defs>
      <g>
       <use style="stroke:#000000;stroke-width:0.8;" x="56.12" xlink:href="#me99b5e2f89" y="294.88"/>
      </g>
     </g>
     <g id="text_1">
      <!-- 0 -->
      <defs>
       <path d="M 31.78125 66.40625 
Q 24.171875 66.40625 20.328125 58.90625 
Q 16.5 51.421875 16.5 36.375 
Q 16.5 21.390625 20.328125 13.890625 
Q 24.171875 6.390625 31.78125 6.390625 
Q 39.453125 6.390625 43.28125 13.890625 
Q 47.125 21.390625 47.125 36.375 
Q 47.125 51.421875 43.28125 58.90625 
Q 39.453125 66.40625 31.78125 66.40625 
z
M 31.78125 74.21875 
Q 44.046875 74.21875 50.515625 64.515625 
Q 56.984375 54.828125 56.984375 36.375 
Q 56.984375 17.96875 50.515625 8.265625 
Q 44.046875 -1.421875 31.78125 -1.421875 
Q 19.53125 -1.421875 13.0625 8.265625 
Q 6.59375 17.96875 6.59375 36.375 
Q 6.59375 54.828125 13.0625 64.515625 
Q 19.53125 74.21875 31.78125 74.21875 
z
" id="DejaVuSans-30"/>
      </defs>
      <g transform="translate(49.7575 317.076875)scale(0.2 -0.2)">
       <use xlink:href="#DejaVuSans-30"/>
      </g>
     </g>
    </g>
    <g id="xtick_2">
     <g id="line2d_7">
      <path clip-path="url(#p0e776b4716)" d="M 135.276571 294.88 
L 135.276571 24.84 
" style="fill:none;stroke:#b0b0b0;stroke-linecap:square;stroke-width:0.8;"/>
     </g>
     <g id="line2d_8">
      <g>
       <use style="stroke:#000000;stroke-width:0.8;" x="135.276571" xlink:href="#me99b5e2f89" y="294.88"/>
      </g>
     </g>
     <g id="text_2">
      <!-- 2 -->
      <defs>
       <path d="M 19.1875 8.296875 
L 53.609375 8.296875 
L 53.609375 0 
L 7.328125 0 
L 7.328125 8.296875 
Q 12.9375 14.109375 22.625 23.890625 
Q 32.328125 33.6875 34.8125 36.53125 
Q 39.546875 41.84375 41.421875 45.53125 
Q 43.3125 49.21875 43.3125 52.78125 
Q 43.3125 58.59375 39.234375 62.25 
Q 35.15625 65.921875 28.609375 65.921875 
Q 23.96875 65.921875 18.8125 64.3125 
Q 13.671875 62.703125 7.8125 59.421875 
L 7.8125 69.390625 
Q 13.765625 71.78125 18.9375 73 
Q 24.125 74.21875 28.421875 74.21875 
Q 39.75 74.21875 46.484375 68.546875 
Q 53.21875 62.890625 53.21875 53.421875 
Q 53.21875 48.921875 51.53125 44.890625 
Q 49.859375 40.875 45.40625 35.40625 
Q 44.1875 33.984375 37.640625 27.21875 
Q 31.109375 20.453125 19.1875 8.296875 
z
" id="DejaVuSans-32"/>
      </defs>
      <g transform="translate(128.914071 317.076875)scale(0.2 -0.2)">
       <use xlink:href="#DejaVuSans-32"/>
      </g>
     </g>
    </g>
    <g id="xtick_3">
     <g id="line2d_9">
      <path clip-path="url(#p0e776b4716)" d="M 214.433143 294.88 
L 214.433143 24.84 
" style="fill:none;stroke:#b0b0b0;stroke-linecap:square;stroke-width:0.8;"/>
     </g>
     <g id="line2d_10">
      <g>
       <use style="stroke:#000000;stroke-width:0.8;" x="214.433143" xlink:href="#me99b5e2f89" y="294.88"/>
      </g>
     </g>
     <g id="text_3">
      <!-- 4 -->
      <defs>
       <path d="M 37.796875 64.3125 
L 12.890625 25.390625 
L 37.796875 25.390625 
z
M 35.203125 72.90625 
L 47.609375 72.90625 
L 47.609375 25.390625 
L 58.015625 25.390625 
L 58.015625 17.1875 
L 47.609375 17.1875 
L 47.609375 0 
L 37.796875 0 
L 37.796875 17.1875 
L 4.890625 17.1875 
L 4.890625 26.703125 
z
" id="DejaVuSans-34"/>
      </defs>
      <g transform="translate(208.070643 317.076875)scale(0.2 -0.2)">
       <use xlink:href="#DejaVuSans-34"/>
      </g>
     </g>
    </g>
    <g id="xtick_4">
     <g id="line2d_11">
      <path clip-path="url(#p0e776b4716)" d="M 293.589714 294.88 
L 293.589714 24.84 
" style="fill:none;stroke:#b0b0b0;stroke-linecap:square;stroke-width:0.8;"/>
     </g>
     <g id="line2d_12">
      <g>
       <use style="stroke:#000000;stroke-width:0.8;" x="293.589714" xlink:href="#me99b5e2f89" y="294.88"/>
      </g>
     </g>
     <g id="text_4">
      <!-- 6 -->
      <defs>
       <path d="M 33.015625 40.375 
Q 26.375 40.375 22.484375 35.828125 
Q 18.609375 31.296875 18.609375 23.390625 
Q 18.609375 15.53125 22.484375 10.953125 
Q 26.375 6.390625 33.015625 6.390625 
Q 39.65625 6.390625 43.53125 10.953125 
Q 47.40625 15.53125 47.40625 23.390625 
Q 47.40625 31.296875 43.53125 35.828125 
Q 39.65625 40.375 33.015625 40.375 
z
M 52.59375 71.296875 
L 52.59375 62.3125 
Q 48.875 64.0625 45.09375 64.984375 
Q 41.3125 65.921875 37.59375 65.921875 
Q 27.828125 65.921875 22.671875 59.328125 
Q 17.53125 52.734375 16.796875 39.40625 
Q 19.671875 43.65625 24.015625 45.921875 
Q 28.375 48.1875 33.59375 48.1875 
Q 44.578125 48.1875 50.953125 41.515625 
Q 57.328125 34.859375 57.328125 23.390625 
Q 57.328125 12.15625 50.6875 5.359375 
Q 44.046875 -1.421875 33.015625 -1.421875 
Q 20.359375 -1.421875 13.671875 8.265625 
Q 6.984375 17.96875 6.984375 36.375 
Q 6.984375 53.65625 15.1875 63.9375 
Q 23.390625 74.21875 37.203125 74.21875 
Q 40.921875 74.21875 44.703125 73.484375 
Q 48.484375 72.75 52.59375 71.296875 
z
" id="DejaVuSans-36"/>
      </defs>
      <g transform="translate(287.227214 317.076875)scale(0.2 -0.2)">
       <use xlink:href="#DejaVuSans-36"/>
      </g>
     </g>
    </g>
    <g id="xtick_5">
     <g id="line2d_13">
      <path clip-path="url(#p0e776b4716)" d="M 56.12 294.88 
L 56.12 24.84 
" style="fill:none;stroke:#b0b0b0;stroke-linecap:square;stroke-width:0.8;"/>
     </g>
     <g id="line2d_14">
      <defs>
       <path d="M 0 0 
L 0 2 
" id="ma4e5a35425" style="stroke:#000000;stroke-width:0.6;"/>
      </defs>
      <g>
       <use style="stroke:#000000;stroke-width:0.6;" x="56.12" xlink:href="#ma4e5a35425" y="294.88"/>
      </g>
     </g>
    </g>
    <g id="xtick_6">
     <g id="line2d_15">
      <path clip-path="url(#p0e776b4716)" d="M 95.698286 294.88 
L 95.698286 24.84 
" style="fill:none;stroke:#b0b0b0;stroke-linecap:square;stroke-width:0.8;"/>
     </g>
     <g id="line2d_16">
      <g>
       <use style="stroke:#000000;stroke-width:0.6;" x="95.698286" xlink:href="#ma4e5a35425" y="294.88"/>
      </g>
     </g>
    </g>
    <g id="xtick_7">
     <g id="line2d_17">
      <path clip-path="url(#p0e776b4716)" d="M 135.276571 294.88 
L 135.276571 24.84 
" style="fill:none;stroke:#b0b0b0;stroke-linecap:square;stroke-width:0.8;"/>
     </g>
     <g id="line2d_18">
      <g>
       <use style="stroke:#000000;stroke-width:0.6;" x="135.276571" xlink:href="#ma4e5a35425" y="294.88"/>
      </g>
     </g>
    </g>
    <g id="xtick_8">
     <g id="line2d_19">
      <path clip-path="url(#p0e776b4716)" d="M 174.854857 294.88 
L 174.854857 24.84 
" style="fill:none;stroke:#b0b0b0;stroke-linecap:square;stroke-width:0.8;"/>
     </g>
     <g id="line2d_20">
      <g>
       <use style="stroke:#000000;stroke-width:0.6;" x="174.854857" xlink:href="#ma4e5a35425" y="294.88"/>
      </g>
     </g>
    </g>
    <g id="xtick_9">
     <g id="line2d_21">
      <path clip-path="url(#p0e776b4716)" d="M 214.433143 294.88 
L 214.433143 24.84 
" style="fill:none;stroke:#b0b0b0;stroke-linecap:square;stroke-width:0.8;"/>
     </g>
     <g id="line2d_22">
      <g>
       <use style="stroke:#000000;stroke-width:0.6;" x="214.433143" xlink:href="#ma4e5a35425" y="294.88"/>
      </g>
     </g>
    </g>
    <g id="xtick_10">
     <g id="line2d_23">
      <path clip-path="url(#p0e776b4716)" d="M 254.011429 294.88 
L 254.011429 24.84 
" style="fill:none;stroke:#b0b0b0;stroke-linecap:square;stroke-width:0.8;"/>
     </g>
     <g id="line2d_24">
      <g>
       <use style="stroke:#000000;stroke-width:0.6;" x="254.011429" xlink:href="#ma4e5a35425" y="294.88"/>
      </g>
     </g>
    </g>
    <g id="xtick_11">
     <g id="line2d_25">
      <path clip-path="url(#p0e776b4716)" d="M 293.589714 294.88 
L 293.589714 24.84 
" style="fill:none;stroke:#b0b0b0;stroke-linecap:square;stroke-width:0.8;"/>
     </g>
     <g id="line2d_26">
      <g>
       <use style="stroke:#000000;stroke-width:0.6;" x="293.589714" xlink:href="#ma4e5a35425" y="294.88"/>
      </g>
     </g>
    </g>
    <g id="xtick_12">
     <g id="line2d_27">
      <path clip-path="url(#p0e776b4716)" d="M 333.168 294.88 
L 333.168 24.84 
" style="fill:none;stroke:#b0b0b0;stroke-linecap:square;stroke-width:0.8;"/>
     </g>
     <g id="line2d_28">
      <g>
       <use style="stroke:#000000;stroke-width:0.6;" x="333.168" xlink:href="#ma4e5a35425" y="294.88"/>
      </g>
     </g>
    </g>
    <g id="text_5">
     <!-- log10(# f-evals / dimension) -->
     <defs>
      <path d="M 9.421875 75.984375 
L 18.40625 75.984375 
L 18.40625 0 
L 9.421875 0 
z
" id="DejaVuSans-6c"/>
      <path d="M 30.609375 48.390625 
Q 23.390625 48.390625 19.1875 42.75 
Q 14.984375 37.109375 14.984375 27.296875 
Q 14.984375 17.484375 19.15625 11.84375 
Q 23.34375 6.203125 30.609375 6.203125 
Q 37.796875 6.203125 41.984375 11.859375 
Q 46.1875 17.53125 46.1875 27.296875 
Q 46.1875 37.015625 41.984375 42.703125 
Q 37.796875 48.390625 30.609375 48.390625 
z
M 30.609375 56 
Q 42.328125 56 49.015625 48.375 
Q 55.71875 40.765625 55.71875 27.296875 
Q 55.71875 13.875 49.015625 6.21875 
Q 42.328125 -1.421875 30.609375 -1.421875 
Q 18.84375 -1.421875 12.171875 6.21875 
Q 5.515625 13.875 5.515625 27.296875 
Q 5.515625 40.765625 12.171875 48.375 
Q 18.84375 56 30.609375 56 
z
" id="DejaVuSans-6f"/>
      <path d="M 45.40625 27.984375 
Q 45.40625 37.75 41.375 43.109375 
Q 37.359375 48.484375 30.078125 48.484375 
Q 22.859375 48.484375 18.828125 43.109375 
Q 14.796875 37.75 14.796875 27.984375 
Q 14.796875 18.265625 18.828125 12.890625 
Q 22.859375 7.515625 30.078125 7.515625 
Q 37.359375 7.515625 41.375 12.890625 
Q 45.40625 18.265625 45.40625 27.984375 
z
M 54.390625 6.78125 
Q 54.390625 -7.171875 48.1875 -13.984375 
Q 42 -20.796875 29.203125 -20.796875 
Q 24.46875 -20.796875 20.265625 -20.09375 
Q 16.0625 -19.390625 12.109375 -17.921875 
L 12.109375 -9.1875 
Q 16.0625 -11.328125 19.921875 -12.34375 
Q 23.78125 -13.375 27.78125 -13.375 
Q 36.625 -13.375 41.015625 -8.765625 
Q 45.40625 -4.15625 45.40625 5.171875 
L 45.40625 9.625 
Q 42.625 4.78125 38.28125 2.390625 
Q 33.9375 0 27.875 0 
Q 17.828125 0 11.671875 7.65625 
Q 5.515625 15.328125 5.515625 27.984375 
Q 5.515625 40.671875 11.671875 48.328125 
Q 17.828125 56 27.875 56 
Q 33.9375 56 38.28125 53.609375 
Q 42.625 51.21875 45.40625 46.390625 
L 45.40625 54.6875 
L 54.390625 54.6875 
z
" id="DejaVuSans-67"/>
      <path d="M 12.40625 8.296875 
L 28.515625 8.296875 
L 28.515625 63.921875 
L 10.984375 60.40625 
L 10.984375 69.390625 
L 28.421875 72.90625 
L 38.28125 72.90625 
L 38.28125 8.296875 
L 54.390625 8.296875 
L 54.390625 0 
L 12.40625 0 
z
" id="DejaVuSans-31"/>
      <path d="M 31 75.875 
Q 24.46875 64.65625 21.28125 53.65625 
Q 18.109375 42.671875 18.109375 31.390625 
Q 18.109375 20.125 21.3125 9.0625 
Q 24.515625 -2 31 -13.1875 
L 23.1875 -13.1875 
Q 15.875 -1.703125 12.234375 9.375 
Q 8.59375 20.453125 8.59375 31.390625 
Q 8.59375 42.28125 12.203125 53.3125 
Q 15.828125 64.359375 23.1875 75.875 
z
" id="DejaVuSans-28"/>
      <path d="M 51.125 44 
L 36.921875 44 
L 32.8125 27.6875 
L 47.125 27.6875 
z
M 43.796875 71.78125 
L 38.71875 51.515625 
L 52.984375 51.515625 
L 58.109375 71.78125 
L 65.921875 71.78125 
L 60.890625 51.515625 
L 76.125 51.515625 
L 76.125 44 
L 58.984375 44 
L 54.984375 27.6875 
L 70.515625 27.6875 
L 70.515625 20.21875 
L 53.078125 20.21875 
L 48 0 
L 40.1875 0 
L 45.21875 20.21875 
L 30.90625 20.21875 
L 25.875 0 
L 18.015625 0 
L 23.09375 20.21875 
L 7.71875 20.21875 
L 7.71875 27.6875 
L 24.90625 27.6875 
L 29 44 
L 13.28125 44 
L 13.28125 51.515625 
L 30.90625 51.515625 
L 35.890625 71.78125 
z
" id="DejaVuSans-23"/>
      <path id="DejaVuSans-20"/>
      <path d="M 37.109375 75.984375 
L 37.109375 68.5 
L 28.515625 68.5 
Q 23.6875 68.5 21.796875 66.546875 
Q 19.921875 64.59375 19.921875 59.515625 
L 19.921875 54.6875 
L 34.71875 54.6875 
L 34.71875 47.703125 
L 19.921875 47.703125 
L 19.921875 0 
L 10.890625 0 
L 10.890625 47.703125 
L 2.296875 47.703125 
L 2.296875 54.6875 
L 10.890625 54.6875 
L 10.890625 58.5 
Q 10.890625 67.625 15.140625 71.796875 
Q 19.390625 75.984375 28.609375 75.984375 
z
" id="DejaVuSans-66"/>
      <path d="M 4.890625 31.390625 
L 31.203125 31.390625 
L 31.203125 23.390625 
L 4.890625 23.390625 
z
" id="DejaVuSans-2d"/>
      <path d="M 56.203125 29.59375 
L 56.203125 25.203125 
L 14.890625 25.203125 
Q 15.484375 15.921875 20.484375 11.0625 
Q 25.484375 6.203125 34.421875 6.203125 
Q 39.59375 6.203125 44.453125 7.46875 
Q 49.3125 8.734375 54.109375 11.28125 
L 54.109375 2.78125 
Q 49.265625 0.734375 44.1875 -0.34375 
Q 39.109375 -1.421875 33.890625 -1.421875 
Q 20.796875 -1.421875 13.15625 6.1875 
Q 5.515625 13.8125 5.515625 26.8125 
Q 5.515625 40.234375 12.765625 48.109375 
Q 20.015625 56 32.328125 56 
Q 43.359375 56 49.78125 48.890625 
Q 56.203125 41.796875 56.203125 29.59375 
z
M 47.21875 32.234375 
Q 47.125 39.59375 43.09375 43.984375 
Q 39.0625 48.390625 32.421875 48.390625 
Q 24.90625 48.390625 20.390625 44.140625 
Q 15.875 39.890625 15.1875 32.171875 
z
" id="DejaVuSans-65"/>
      <path d="M 2.984375 54.6875 
L 12.5 54.6875 
L 29.59375 8.796875 
L 46.6875 54.6875 
L 56.203125 54.6875 
L 35.6875 0 
L 23.484375 0 
z
" id="DejaVuSans-76"/>
      <path d="M 34.28125 27.484375 
Q 23.390625 27.484375 19.1875 25 
Q 14.984375 22.515625 14.984375 16.5 
Q 14.984375 11.71875 18.140625 8.90625 
Q 21.296875 6.109375 26.703125 6.109375 
Q 34.1875 6.109375 38.703125 11.40625 
Q 43.21875 16.703125 43.21875 25.484375 
L 43.21875 27.484375 
z
M 52.203125 31.203125 
L 52.203125 0 
L 43.21875 0 
L 43.21875 8.296875 
Q 40.140625 3.328125 35.546875 0.953125 
Q 30.953125 -1.421875 24.3125 -1.421875 
Q 15.921875 -1.421875 10.953125 3.296875 
Q 6 8.015625 6 15.921875 
Q 6 25.140625 12.171875 29.828125 
Q 18.359375 34.515625 30.609375 34.515625 
L 43.21875 34.515625 
L 43.21875 35.40625 
Q 43.21875 41.609375 39.140625 45 
Q 35.0625 48.390625 27.6875 48.390625 
Q 23 48.390625 18.546875 47.265625 
Q 14.109375 46.140625 10.015625 43.890625 
L 10.015625 52.203125 
Q 14.9375 54.109375 19.578125 55.046875 
Q 24.21875 56 28.609375 56 
Q 40.484375 56 46.34375 49.84375 
Q 52.203125 43.703125 52.203125 31.203125 
z
" id="DejaVuSans-61"/>
      <path d="M 44.28125 53.078125 
L 44.28125 44.578125 
Q 40.484375 46.53125 36.375 47.5 
Q 32.28125 48.484375 27.875 48.484375 
Q 21.1875 48.484375 17.84375 46.4375 
Q 14.5 44.390625 14.5 40.28125 
Q 14.5 37.15625 16.890625 35.375 
Q 19.28125 33.59375 26.515625 31.984375 
L 29.59375 31.296875 
Q 39.15625 29.25 43.1875 25.515625 
Q 47.21875 21.78125 47.21875 15.09375 
Q 47.21875 7.46875 41.1875 3.015625 
Q 35.15625 -1.421875 24.609375 -1.421875 
Q 20.21875 -1.421875 15.453125 -0.5625 
Q 10.6875 0.296875 5.421875 2 
L 5.421875 11.28125 
Q 10.40625 8.6875 15.234375 7.390625 
Q 20.0625 6.109375 24.8125 6.109375 
Q 31.15625 6.109375 34.5625 8.28125 
Q 37.984375 10.453125 37.984375 14.40625 
Q 37.984375 18.0625 35.515625 20.015625 
Q 33.0625 21.96875 24.703125 23.78125 
L 21.578125 24.515625 
Q 13.234375 26.265625 9.515625 29.90625 
Q 5.8125 33.546875 5.8125 39.890625 
Q 5.8125 47.609375 11.28125 51.796875 
Q 16.75 56 26.8125 56 
Q 31.78125 56 36.171875 55.265625 
Q 40.578125 54.546875 44.28125 53.078125 
z
" id="DejaVuSans-73"/>
      <path d="M 25.390625 72.90625 
L 33.6875 72.90625 
L 8.296875 -9.28125 
L 0 -9.28125 
z
" id="DejaVuSans-2f"/>
      <path d="M 45.40625 46.390625 
L 45.40625 75.984375 
L 54.390625 75.984375 
L 54.390625 0 
L 45.40625 0 
L 45.40625 8.203125 
Q 42.578125 3.328125 38.25 0.953125 
Q 33.9375 -1.421875 27.875 -1.421875 
Q 17.96875 -1.421875 11.734375 6.484375 
Q 5.515625 14.40625 5.515625 27.296875 
Q 5.515625 40.1875 11.734375 48.09375 
Q 17.96875 56 27.875 56 
Q 33.9375 56 38.25 53.625 
Q 42.578125 51.265625 45.40625 46.390625 
z
M 14.796875 27.296875 
Q 14.796875 17.390625 18.875 11.75 
Q 22.953125 6.109375 30.078125 6.109375 
Q 37.203125 6.109375 41.296875 11.75 
Q 45.40625 17.390625 45.40625 27.296875 
Q 45.40625 37.203125 41.296875 42.84375 
Q 37.203125 48.484375 30.078125 48.484375 
Q 22.953125 48.484375 18.875 42.84375 
Q 14.796875 37.203125 14.796875 27.296875 
z
" id="DejaVuSans-64"/>
      <path d="M 9.421875 54.6875 
L 18.40625 54.6875 
L 18.40625 0 
L 9.421875 0 
z
M 9.421875 75.984375 
L 18.40625 75.984375 
L 18.40625 64.59375 
L 9.421875 64.59375 
z
" id="DejaVuSans-69"/>
      <path d="M 52 44.1875 
Q 55.375 50.25 60.0625 53.125 
Q 64.75 56 71.09375 56 
Q 79.640625 56 84.28125 50.015625 
Q 88.921875 44.046875 88.921875 33.015625 
L 88.921875 0 
L 79.890625 0 
L 79.890625 32.71875 
Q 79.890625 40.578125 77.09375 44.375 
Q 74.3125 48.1875 68.609375 48.1875 
Q 61.625 48.1875 57.5625 43.546875 
Q 53.515625 38.921875 53.515625 30.90625 
L 53.515625 0 
L 44.484375 0 
L 44.484375 32.71875 
Q 44.484375 40.625 41.703125 44.40625 
Q 38.921875 48.1875 33.109375 48.1875 
Q 26.21875 48.1875 22.15625 43.53125 
Q 18.109375 38.875 18.109375 30.90625 
L 18.109375 0 
L 9.078125 0 
L 9.078125 54.6875 
L 18.109375 54.6875 
L 18.109375 46.1875 
Q 21.1875 51.21875 25.484375 53.609375 
Q 29.78125 56 35.6875 56 
Q 41.65625 56 45.828125 52.96875 
Q 50 49.953125 52 44.1875 
z
" id="DejaVuSans-6d"/>
      <path d="M 54.890625 33.015625 
L 54.890625 0 
L 45.90625 0 
L 45.90625 32.71875 
Q 45.90625 40.484375 42.875 44.328125 
Q 39.84375 48.1875 33.796875 48.1875 
Q 26.515625 48.1875 22.3125 43.546875 
Q 18.109375 38.921875 18.109375 30.90625 
L 18.109375 0 
L 9.078125 0 
L 9.078125 54.6875 
L 18.109375 54.6875 
L 18.109375 46.1875 
Q 21.34375 51.125 25.703125 53.5625 
Q 30.078125 56 35.796875 56 
Q 45.21875 56 50.046875 50.171875 
Q 54.890625 44.34375 54.890625 33.015625 
z
" id="DejaVuSans-6e"/>
      <path d="M 8.015625 75.875 
L 15.828125 75.875 
Q 23.140625 64.359375 26.78125 53.3125 
Q 30.421875 42.28125 30.421875 31.390625 
Q 30.421875 20.453125 26.78125 9.375 
Q 23.140625 -1.703125 15.828125 -13.1875 
L 8.015625 -13.1875 
Q 14.5 -2 17.703125 9.0625 
Q 20.90625 20.125 20.90625 31.390625 
Q 20.90625 42.671875 17.703125 53.65625 
Q 14.5 64.65625 8.015625 75.875 
z
" id="DejaVuSans-29"/>
     </defs>
     <g transform="translate(73.803219 338.153594)scale(0.17 -0.17)">
      <use xlink:href="#DejaVuSans-6c"/>
      <use x="27.783203" xlink:href="#DejaVuSans-6f"/>
      <use x="88.964844" xlink:href="#DejaVuSans-67"/>
      <use x="152.441406" xlink:href="#DejaVuSans-31"/>
      <use x="216.064453" xlink:href="#DejaVuSans-30"/>
      <use x="279.6875" xlink:href="#DejaVuSans-28"/>
      <use x="318.701172" xlink:href="#DejaVuSans-23"/>
      <use x="402.490234" xlink:href="#DejaVuSans-20"/>
      <use x="434.277344" xlink:href="#DejaVuSans-66"/>
      <use x="469.404297" xlink:href="#DejaVuSans-2d"/>
      <use x="505.488281" xlink:href="#DejaVuSans-65"/>
      <use x="567.011719" xlink:href="#DejaVuSans-76"/>
      <use x="626.191406" xlink:href="#DejaVuSans-61"/>
      <use x="687.470703" xlink:href="#DejaVuSans-6c"/>
      <use x="715.253906" xlink:href="#DejaVuSans-73"/>
      <use x="767.353516" xlink:href="#DejaVuSans-20"/>
      <use x="799.140625" xlink:href="#DejaVuSans-2f"/>
      <use x="832.832031" xlink:href="#DejaVuSans-20"/>
      <use x="864.619141" xlink:href="#DejaVuSans-64"/>
      <use x="928.095703" xlink:href="#DejaVuSans-69"/>
      <use x="955.878906" xlink:href="#DejaVuSans-6d"/>
      <use x="1053.291016" xlink:href="#DejaVuSans-65"/>
      <use x="1114.814453" xlink:href="#DejaVuSans-6e"/>
      <use x="1178.193359" xlink:href="#DejaVuSans-73"/>
      <use x="1230.292969" xlink:href="#DejaVuSans-69"/>
      <use x="1258.076172" xlink:href="#DejaVuSans-6f"/>
      <use x="1319.257812" xlink:href="#DejaVuSans-6e"/>
      <use x="1382.636719" xlink:href="#DejaVuSans-29"/>
     </g>
    </g>
   </g>
   <g id="matplotlib.axis_2">
    <g id="ytick_1">
     <g id="line2d_29">
      <path clip-path="url(#p0e776b4716)" d="M 56.12 294.88 
L 333.168 294.88 
" style="fill:none;stroke:#b0b0b0;stroke-linecap:square;stroke-width:0.8;"/>
     </g>
     <g id="line2d_30">
      <defs>
       <path d="M 0 0 
L -3.5 0 
" id="mf69d25ba54" style="stroke:#000000;stroke-width:0.8;"/>
      </defs>
      <g>
       <use style="stroke:#000000;stroke-width:0.8;" x="56.12" xlink:href="#mf69d25ba54" y="294.88"/>
      </g>
     </g>
     <g id="text_6">
      <!-- 0.0 -->
      <defs>
       <path d="M 10.6875 12.40625 
L 21 12.40625 
L 21 0 
L 10.6875 0 
z
" id="DejaVuSans-2e"/>
      </defs>
      <g transform="translate(23.675 300.95875)scale(0.16 -0.16)">
       <use xlink:href="#DejaVuSans-30"/>
       <use x="63.623047" xlink:href="#DejaVuSans-2e"/>
       <use x="95.410156" xlink:href="#DejaVuSans-30"/>
      </g>
     </g>
    </g>
    <g id="ytick_2">
     <g id="line2d_31">
      <path clip-path="url(#p0e776b4716)" d="M 56.12 241.406733 
L 333.168 241.406733 
" style="fill:none;stroke:#b0b0b0;stroke-linecap:square;stroke-width:0.8;"/>
     </g>
     <g id="line2d_32">
      <g>
       <use style="stroke:#000000;stroke-width:0.8;" x="56.12" xlink:href="#mf69d25ba54" y="241.406733"/>
      </g>
     </g>
     <g id="text_7">
      <!-- 0.2 -->
      <g transform="translate(23.675 247.485483)scale(0.16 -0.16)">
       <use xlink:href="#DejaVuSans-30"/>
       <use x="63.623047" xlink:href="#DejaVuSans-2e"/>
       <use x="95.410156" xlink:href="#DejaVuSans-32"/>
      </g>
     </g>
    </g>
    <g id="ytick_3">
     <g id="line2d_33">
      <path clip-path="url(#p0e776b4716)" d="M 56.12 187.933465 
L 333.168 187.933465 
" style="fill:none;stroke:#b0b0b0;stroke-linecap:square;stroke-width:0.8;"/>
     </g>
     <g id="line2d_34">
      <g>
       <use style="stroke:#000000;stroke-width:0.8;" x="56.12" xlink:href="#mf69d25ba54" y="187.933465"/>
      </g>
     </g>
     <g id="text_8">
      <!-- 0.4 -->
      <g transform="translate(23.675 194.012215)scale(0.16 -0.16)">
       <use xlink:href="#DejaVuSans-30"/>
       <use x="63.623047" xlink:href="#DejaVuSans-2e"/>
       <use x="95.410156" xlink:href="#DejaVuSans-34"/>
      </g>
     </g>
    </g>
    <g id="ytick_4">
     <g id="line2d_35">
      <path clip-path="url(#p0e776b4716)" d="M 56.12 134.460198 
L 333.168 134.460198 
" style="fill:none;stroke:#b0b0b0;stroke-linecap:square;stroke-width:0.8;"/>
     </g>
     <g id="line2d_36">
      <g>
       <use style="stroke:#000000;stroke-width:0.8;" x="56.12" xlink:href="#mf69d25ba54" y="134.460198"/>
      </g>
     </g>
     <g id="text_9">
      <!-- 0.6 -->
      <g transform="translate(23.675 140.538948)scale(0.16 -0.16)">
       <use xlink:href="#DejaVuSans-30"/>
       <use x="63.623047" xlink:href="#DejaVuSans-2e"/>
       <use x="95.410156" xlink:href="#DejaVuSans-36"/>
      </g>
     </g>
    </g>
    <g id="ytick_5">
     <g id="line2d_37">
      <path clip-path="url(#p0e776b4716)" d="M 56.12 80.986931 
L 333.168 80.986931 
" style="fill:none;stroke:#b0b0b0;stroke-linecap:square;stroke-width:0.8;"/>
     </g>
     <g id="line2d_38">
      <g>
       <use style="stroke:#000000;stroke-width:0.8;" x="56.12" xlink:href="#mf69d25ba54" y="80.986931"/>
      </g>
     </g>
     <g id="text_10">
      <!-- 0.8 -->
      <defs>
       <path d="M 31.78125 34.625 
Q 24.75 34.625 20.71875 30.859375 
Q 16.703125 27.09375 16.703125 20.515625 
Q 16.703125 13.921875 20.71875 10.15625 
Q 24.75 6.390625 31.78125 6.390625 
Q 38.8125 6.390625 42.859375 10.171875 
Q 46.921875 13.96875 46.921875 20.515625 
Q 46.921875 27.09375 42.890625 30.859375 
Q 38.875 34.625 31.78125 34.625 
z
M 21.921875 38.8125 
Q 15.578125 40.375 12.03125 44.71875 
Q 8.5 49.078125 8.5 55.328125 
Q 8.5 64.0625 14.71875 69.140625 
Q 20.953125 74.21875 31.78125 74.21875 
Q 42.671875 74.21875 48.875 69.140625 
Q 55.078125 64.0625 55.078125 55.328125 
Q 55.078125 49.078125 51.53125 44.71875 
Q 48 40.375 41.703125 38.8125 
Q 48.828125 37.15625 52.796875 32.3125 
Q 56.78125 27.484375 56.78125 20.515625 
Q 56.78125 9.90625 50.3125 4.234375 
Q 43.84375 -1.421875 31.78125 -1.421875 
Q 19.734375 -1.421875 13.25 4.234375 
Q 6.78125 9.90625 6.78125 20.515625 
Q 6.78125 27.484375 10.78125 32.3125 
Q 14.796875 37.15625 21.921875 38.8125 
z
M 18.3125 54.390625 
Q 18.3125 48.734375 21.84375 45.5625 
Q 25.390625 42.390625 31.78125 42.390625 
Q 38.140625 42.390625 41.71875 45.5625 
Q 45.3125 48.734375 45.3125 54.390625 
Q 45.3125 60.0625 41.71875 63.234375 
Q 38.140625 66.40625 31.78125 66.40625 
Q 25.390625 66.40625 21.84375 63.234375 
Q 18.3125 60.0625 18.3125 54.390625 
z
" id="DejaVuSans-38"/>
      </defs>
      <g transform="translate(23.675 87.065681)scale(0.16 -0.16)">
       <use xlink:href="#DejaVuSans-30"/>
       <use x="63.623047" xlink:href="#DejaVuSans-2e"/>
       <use x="95.410156" xlink:href="#DejaVuSans-38"/>
      </g>
     </g>
    </g>
    <g id="ytick_6">
     <g id="line2d_39">
      <path clip-path="url(#p0e776b4716)" d="M 56.12 27.513663 
L 333.168 27.513663 
" style="fill:none;stroke:#b0b0b0;stroke-linecap:square;stroke-width:0.8;"/>
     </g>
     <g id="line2d_40">
      <g>
       <use style="stroke:#000000;stroke-width:0.8;" x="56.12" xlink:href="#mf69d25ba54" y="27.513663"/>
      </g>
     </g>
     <g id="text_11">
      <!-- 1.0 -->
      <g transform="translate(23.675 33.592413)scale(0.16 -0.16)">
       <use xlink:href="#DejaVuSans-31"/>
       <use x="63.623047" xlink:href="#DejaVuSans-2e"/>
       <use x="95.410156" xlink:href="#DejaVuSans-30"/>
      </g>
     </g>
    </g>
    <g id="text_12">
     <!-- Fraction of function,target pairs -->
     <defs>
      <path d="M 9.8125 72.90625 
L 51.703125 72.90625 
L 51.703125 64.59375 
L 19.671875 64.59375 
L 19.671875 43.109375 
L 48.578125 43.109375 
L 48.578125 34.8125 
L 19.671875 34.8125 
L 19.671875 0 
L 9.8125 0 
z
" id="DejaVuSans-46"/>
      <path d="M 41.109375 46.296875 
Q 39.59375 47.171875 37.8125 47.578125 
Q 36.03125 48 33.890625 48 
Q 26.265625 48 22.1875 43.046875 
Q 18.109375 38.09375 18.109375 28.8125 
L 18.109375 0 
L 9.078125 0 
L 9.078125 54.6875 
L 18.109375 54.6875 
L 18.109375 46.1875 
Q 20.953125 51.171875 25.484375 53.578125 
Q 30.03125 56 36.53125 56 
Q 37.453125 56 38.578125 55.875 
Q 39.703125 55.765625 41.0625 55.515625 
z
" id="DejaVuSans-72"/>
      <path d="M 48.78125 52.59375 
L 48.78125 44.1875 
Q 44.96875 46.296875 41.140625 47.34375 
Q 37.3125 48.390625 33.40625 48.390625 
Q 24.65625 48.390625 19.8125 42.84375 
Q 14.984375 37.3125 14.984375 27.296875 
Q 14.984375 17.28125 19.8125 11.734375 
Q 24.65625 6.203125 33.40625 6.203125 
Q 37.3125 6.203125 41.140625 7.25 
Q 44.96875 8.296875 48.78125 10.40625 
L 48.78125 2.09375 
Q 45.015625 0.34375 40.984375 -0.53125 
Q 36.96875 -1.421875 32.421875 -1.421875 
Q 20.0625 -1.421875 12.78125 6.34375 
Q 5.515625 14.109375 5.515625 27.296875 
Q 5.515625 40.671875 12.859375 48.328125 
Q 20.21875 56 33.015625 56 
Q 37.15625 56 41.109375 55.140625 
Q 45.0625 54.296875 48.78125 52.59375 
z
" id="DejaVuSans-63"/>
      <path d="M 18.3125 70.21875 
L 18.3125 54.6875 
L 36.8125 54.6875 
L 36.8125 47.703125 
L 18.3125 47.703125 
L 18.3125 18.015625 
Q 18.3125 11.328125 20.140625 9.421875 
Q 21.96875 7.515625 27.59375 7.515625 
L 36.8125 7.515625 
L 36.8125 0 
L 27.59375 0 
Q 17.1875 0 13.234375 3.875 
Q 9.28125 7.765625 9.28125 18.015625 
L 9.28125 47.703125 
L 2.6875 47.703125 
L 2.6875 54.6875 
L 9.28125 54.6875 
L 9.28125 70.21875 
z
" id="DejaVuSans-74"/>
      <path d="M 8.5 21.578125 
L 8.5 54.6875 
L 17.484375 54.6875 
L 17.484375 21.921875 
Q 17.484375 14.15625 20.5 10.265625 
Q 23.53125 6.390625 29.59375 6.390625 
Q 36.859375 6.390625 41.078125 11.03125 
Q 45.3125 15.671875 45.3125 23.6875 
L 45.3125 54.6875 
L 54.296875 54.6875 
L 54.296875 0 
L 45.3125 0 
L 45.3125 8.40625 
Q 42.046875 3.421875 37.71875 1 
Q 33.40625 -1.421875 27.6875 -1.421875 
Q 18.265625 -1.421875 13.375 4.4375 
Q 8.5 10.296875 8.5 21.578125 
z
M 31.109375 56 
z
" id="DejaVuSans-75"/>
      <path d="M 11.71875 12.40625 
L 22.015625 12.40625 
L 22.015625 4 
L 14.015625 -11.625 
L 7.71875 -11.625 
L 11.71875 4 
z
" id="DejaVuSans-2c"/>
      <path d="M 18.109375 8.203125 
L 18.109375 -20.796875 
L 9.078125 -20.796875 
L 9.078125 54.6875 
L 18.109375 54.6875 
L 18.109375 46.390625 
Q 20.953125 51.265625 25.265625 53.625 
Q 29.59375 56 35.59375 56 
Q 45.5625 56 51.78125 48.09375 
Q 58.015625 40.1875 58.015625 27.296875 
Q 58.015625 14.40625 51.78125 6.484375 
Q 45.5625 -1.421875 35.59375 -1.421875 
Q 29.59375 -1.421875 25.265625 0.953125 
Q 20.953125 3.328125 18.109375 8.203125 
z
M 48.6875 27.296875 
Q 48.6875 37.203125 44.609375 42.84375 
Q 40.53125 48.484375 33.40625 48.484375 
Q 26.265625 48.484375 22.1875 42.84375 
Q 18.109375 37.203125 18.109375 27.296875 
Q 18.109375 17.390625 22.1875 11.75 
Q 26.265625 6.109375 33.40625 6.109375 
Q 40.53125 6.109375 44.609375 11.75 
Q 48.6875 17.390625 48.6875 27.296875 
z
" id="DejaVuSans-70"/>
     </defs>
     <g transform="translate(16.139531 294.999375)rotate(-90)scale(0.17 -0.17)">
      <use xlink:href="#DejaVuSans-46"/>
      <use x="57.410156" xlink:href="#DejaVuSans-72"/>
      <use x="98.523438" xlink:href="#DejaVuSans-61"/>
      <use x="159.802734" xlink:href="#DejaVuSans-63"/>
      <use x="214.783203" xlink:href="#DejaVuSans-74"/>
      <use x="253.992188" xlink:href="#DejaVuSans-69"/>
      <use x="281.775391" xlink:href="#DejaVuSans-6f"/>
      <use x="342.957031" xlink:href="#DejaVuSans-6e"/>
      <use x="406.335938" xlink:href="#DejaVuSans-20"/>
      <use x="438.123047" xlink:href="#DejaVuSans-6f"/>
      <use x="499.304688" xlink:href="#DejaVuSans-66"/>
      <use x="534.509766" xlink:href="#DejaVuSans-20"/>
      <use x="566.296875" xlink:href="#DejaVuSans-66"/>
      <use x="601.501953" xlink:href="#DejaVuSans-75"/>
      <use x="664.880859" xlink:href="#DejaVuSans-6e"/>
      <use x="728.259766" xlink:href="#DejaVuSans-63"/>
      <use x="783.240234" xlink:href="#DejaVuSans-74"/>
      <use x="822.449219" xlink:href="#DejaVuSans-69"/>
      <use x="850.232422" xlink:href="#DejaVuSans-6f"/>
      <use x="911.414062" xlink:href="#DejaVuSans-6e"/>
      <use x="974.792969" xlink:href="#DejaVuSans-2c"/>
      <use x="1006.580078" xlink:href="#DejaVuSans-74"/>
      <use x="1045.789062" xlink:href="#DejaVuSans-61"/>
      <use x="1107.068359" xlink:href="#DejaVuSans-72"/>
      <use x="1148.166016" xlink:href="#DejaVuSans-67"/>
      <use x="1211.642578" xlink:href="#DejaVuSans-65"/>
      <use x="1273.166016" xlink:href="#DejaVuSans-74"/>
      <use x="1312.375" xlink:href="#DejaVuSans-20"/>
      <use x="1344.162109" xlink:href="#DejaVuSans-70"/>
      <use x="1407.638672" xlink:href="#DejaVuSans-61"/>
      <use x="1468.917969" xlink:href="#DejaVuSans-69"/>
      <use x="1496.701172" xlink:href="#DejaVuSans-72"/>
      <use x="1537.814453" xlink:href="#DejaVuSans-73"/>
     </g>
    </g>
   </g>
   <g id="line2d_41">
    <defs>
     <path d="M 0 1.5 
C 0.397805 1.5 0.77937 1.341951 1.06066 1.06066 
C 1.341951 0.77937 1.5 0.397805 1.5 0 
C 1.5 -0.397805 1.341951 -0.77937 1.06066 -1.06066 
C 0.77937 -1.341951 0.397805 -1.5 0 -1.5 
C -0.397805 -1.5 -0.77937 -1.341951 -1.06066 -1.06066 
C -1.341951 -0.77937 -1.5 -0.397805 -1.5 0 
C -1.5 0.397805 -1.341951 0.77937 -1.06066 1.06066 
C -0.77937 1.341951 -0.397805 1.5 0 1.5 
z
" id="m9e29c11600" style="stroke:#f5deb3;"/>
    </defs>
    <g>
     <use style="fill:#f5deb3;stroke:#f5deb3;" x="191.016323" xlink:href="#m9e29c11600" y="27.513663"/>
     <use style="fill:#f5deb3;stroke:#f5deb3;" x="191.016323" xlink:href="#m9e29c11600" y="27.513663"/>
    </g>
   </g>
   <g id="line2d_42">
    <defs>
     <path d="M 0 1.5 
C 0.397805 1.5 0.77937 1.341951 1.06066 1.06066 
C 1.341951 0.77937 1.5 0.397805 1.5 0 
C 1.5 -0.397805 1.341951 -0.77937 1.06066 -1.06066 
C 0.77937 -1.341951 0.397805 -1.5 0 -1.5 
C -0.397805 -1.5 -0.77937 -1.341951 -1.06066 -1.06066 
C -1.341951 -0.77937 -1.5 -0.397805 -1.5 0 
C -1.5 0.397805 -1.341951 0.77937 -1.06066 1.06066 
C -0.77937 1.341951 -0.397805 1.5 0 1.5 
z
" id="ma498a44398" style="stroke:#000080;"/>
    </defs>
    <g>
     <use style="fill:#000080;stroke:#000080;" x="351.485883" xlink:href="#ma498a44398" y="258.18266"/>
     <use style="fill:#000080;stroke:#000080;" x="351.485883" xlink:href="#ma498a44398" y="258.18266"/>
    </g>
   </g>
   <g id="line2d_43">
    <path d="M 28.455965 294.88 
L 28.455965 285.967789 
L 40.370217 285.967789 
L 40.370217 283.870798 
L 47.339607 283.870798 
L 47.339607 283.34655 
L 52.284468 283.34655 
L 52.284468 282.822302 
L 66.223248 282.822302 
L 66.223248 281.773807 
L 94.634732 281.773807 
L 94.634732 281.249559 
L 105.415256 281.249559 
L 105.415256 280.725312 
L 125.062963 280.725312 
L 125.062963 280.201064 
L 175.164878 280.201064 
L 175.164878 278.628321 
L 214.847175 278.628321 
L 214.847175 278.104073 
L 232.51575 278.104073 
L 232.51575 277.579825 
L 293.589718 277.579825 
L 293.589718 277.055578 
L 293.589728 277.055578 
L 293.589728 276.53133 
L 293.589745 276.53133 
L 293.589745 276.007082 
L 293.589989 276.007082 
L 293.589989 275.482834 
L 293.590735 275.482834 
L 293.590735 274.958587 
L 305.503967 274.958587 
L 305.503967 273.910091 
L 305.503972 273.910091 
L 305.503972 271.288853 
L 305.503981 271.288853 
L 305.503981 270.240357 
L 305.74831 270.240357 
L 305.74831 269.716109 
L 306.211019 269.716109 
L 306.211019 269.191862 
L 312.473357 269.191862 
L 312.473357 268.667614 
L 312.474215 268.667614 
L 312.474215 268.143366 
L 312.636637 268.143366 
L 312.636637 267.619119 
L 312.947941 267.619119 
L 312.947941 266.570623 
L 317.41822 266.570623 
L 317.41822 266.046375 
L 317.540823 266.046375 
L 317.540823 265.522128 
L 317.775379 265.522128 
L 317.775379 264.99788 
L 321.254264 264.99788 
L 321.254264 264.473632 
L 324.626537 264.473632 
L 324.626537 263.949385 
L 327.037248 263.949385 
L 327.037248 263.425137 
L 327.242246 263.425137 
L 327.242246 262.900889 
L 329.332468 262.900889 
L 329.332468 262.376641 
L 333.168 262.376641 
" style="fill:none;stroke:#000080;stroke-linecap:square;stroke-width:1.5;"/>
   </g>
   <g id="line2d_44">
    <defs>
     <path d="M 0 6 
C 1.591219 6 3.117479 5.367802 4.242641 4.242641 
C 5.367802 3.117479 6 1.591219 6 0 
C 6 -1.591219 5.367802 -3.117479 4.242641 -4.242641 
C 3.117479 -5.367802 1.591219 -6 0 -6 
C -1.591219 -6 -3.117479 -5.367802 -4.242641 -4.242641 
C -5.367802 -3.117479 -6 -1.591219 -6 0 
C -6 1.591219 -5.367802 3.117479 -4.242641 4.242641 
C -3.117479 5.367802 -1.591219 6 0 6 
z
" id="m6bcdbdf702" style="stroke:#000080;stroke-width:1.5;"/>
    </defs>
    <g>
     <use style="fill-opacity:0;stroke:#000080;stroke-width:1.5;" x="66.223248" xlink:href="#m6bcdbdf702" y="282.822302"/>
     <use style="fill-opacity:0;stroke:#000080;stroke-width:1.5;" x="125.062963" xlink:href="#m6bcdbdf702" y="280.725312"/>
     <use style="fill-opacity:0;stroke:#000080;stroke-width:1.5;" x="214.847175" xlink:href="#m6bcdbdf702" y="278.628321"/>
     <use style="fill-opacity:0;stroke:#000080;stroke-width:1.5;" x="232.51575" xlink:href="#m6bcdbdf702" y="277.579825"/>
     <use style="fill-opacity:0;stroke:#000080;stroke-width:1.5;" x="329.332468" xlink:href="#m6bcdbdf702" y="262.376641"/>
     <use style="fill-opacity:0;stroke:#000080;stroke-width:1.5;" x="333.168" xlink:href="#m6bcdbdf702" y="262.376641"/>
    </g>
   </g>
   <g id="line2d_45">
    <path style="fill:none;stroke:#000080;stroke-linecap:square;stroke-width:1.5;"/>
    <g/>
   </g>
   <g id="line2d_46">
    <path clip-path="url(#p0e776b4716)" d="M 293.589714 277.579825 
" style="fill:none;stroke:#000080;stroke-linecap:square;stroke-width:1.5;"/>
    <defs>
     <path d="M -12 12 
L 12 -12 
M -12 -12 
L 12 12 
" id="m2f56c9ff44" style="stroke:#000080;"/>
    </defs>
    <g clip-path="url(#p0e776b4716)">
     <use style="fill:#000080;stroke:#000080;" x="293.589714" xlink:href="#m2f56c9ff44" y="277.579825"/>
    </g>
   </g>
   <g id="line2d_47">
    <defs>
     <path d="M 0 1.5 
C 0.397805 1.5 0.77937 1.341951 1.06066 1.06066 
C 1.341951 0.77937 1.5 0.397805 1.5 0 
C 1.5 -0.397805 1.341951 -0.77937 1.06066 -1.06066 
C 0.77937 -1.341951 0.397805 -1.5 0 -1.5 
C -0.397805 -1.5 -0.77937 -1.341951 -1.06066 -1.06066 
C -1.341951 -0.77937 -1.5 -0.397805 -1.5 0 
C -1.5 0.397805 -1.341951 0.77937 -1.06066 1.06066 
C -0.77937 1.341951 -0.397805 1.5 0 1.5 
z
" id="m94c122f2d0" style="stroke:#ff00ff;"/>
    </defs>
    <g>
     <use style="fill:#ff00ff;stroke:#ff00ff;" x="353.421354" xlink:href="#m94c122f2d0" y="247.697705"/>
     <use style="fill:#ff00ff;stroke:#ff00ff;" x="353.421354" xlink:href="#m94c122f2d0" y="247.697705"/>
    </g>
   </g>
   <g id="line2d_48">
    <path d="M 28.455965 294.88 
L 28.455965 288.06478 
L 40.370217 288.06478 
L 40.370217 284.395046 
L 47.339607 284.395046 
L 47.339607 283.870798 
L 52.284468 283.870798 
L 52.284468 282.298055 
L 59.253858 282.298055 
L 59.253858 281.249559 
L 68.034251 281.249559 
L 68.034251 280.725312 
L 72.543934 280.725312 
L 72.543934 280.201064 
L 99.67078 280.201064 
L 99.67078 278.628321 
L 103.990531 278.628321 
L 103.990531 278.104073 
L 106.910863 278.104073 
L 106.910863 276.53133 
L 114.581927 276.53133 
L 114.581927 274.958587 
L 149.412837 274.958587 
L 149.412837 274.434339 
L 152.526544 274.434339 
L 152.526544 273.910091 
L 184.412881 273.910091 
L 184.412881 273.385844 
L 194.424765 273.385844 
L 194.424765 272.861596 
L 196.109897 272.861596 
L 196.109897 271.8131 
L 252.105051 271.8131 
L 252.105051 270.764605 
L 265.460982 270.764605 
L 265.460982 269.716109 
L 279.596237 269.716109 
L 279.596237 268.667614 
L 293.589993 268.667614 
L 293.589993 268.143366 
L 293.590044 268.143366 
L 293.590044 267.619119 
L 293.590123 267.619119 
L 293.590123 267.094871 
L 293.595716 267.094871 
L 293.595716 266.570623 
L 293.680338 266.570623 
L 293.680338 266.046375 
L 305.50399 266.046375 
L 305.50399 265.522128 
L 305.50417 265.522128 
L 305.50417 264.99788 
L 305.506966 264.99788 
L 305.506966 264.473632 
L 305.530778 264.473632 
L 305.530778 263.949385 
L 305.54879 263.949385 
L 305.54879 263.425137 
L 307.100487 263.425137 
L 307.100487 262.900889 
L 309.259876 262.900889 
L 309.259876 262.376641 
L 312.473528 262.376641 
L 312.473528 261.852394 
L 312.491235 261.852394 
L 312.491235 261.328146 
L 313.554006 261.328146 
L 313.554006 260.803898 
L 315.06616 260.803898 
L 315.06616 260.279651 
L 317.418229 260.279651 
L 317.418229 259.755403 
L 317.440643 259.755403 
L 317.440643 259.231155 
L 321.254949 259.231155 
L 321.254949 258.706907 
L 321.255329 258.706907 
L 321.255329 258.18266 
L 322.855854 258.18266 
L 322.855854 257.658412 
L 324.936423 257.658412 
L 324.936423 256.609917 
L 325.732851 256.609917 
L 325.732851 256.085669 
L 329.332474 256.085669 
L 329.332474 255.561421 
L 329.332519 255.561421 
L 329.332519 255.037173 
L 329.343822 255.037173 
L 329.343822 254.512926 
L 330.351142 254.512926 
L 330.351142 253.46443 
L 331.724815 253.46443 
L 331.724815 252.940182 
L 333.168 252.940182 
" style="fill:none;stroke:#ff00ff;stroke-linecap:square;stroke-width:1.5;"/>
   </g>
   <g id="line2d_49">
    <defs>
     <path d="M -0 8.485281 
L 5.091169 0 
L 0 -8.485281 
L -5.091169 -0 
z
" id="m59a4c80018" style="stroke:#ff00ff;stroke-linejoin:miter;stroke-width:1.5;"/>
    </defs>
    <g>
     <use style="fill-opacity:0;stroke:#ff00ff;stroke-linejoin:miter;stroke-width:1.5;" x="72.543934" xlink:href="#m59a4c80018" y="280.201064"/>
     <use style="fill-opacity:0;stroke:#ff00ff;stroke-linejoin:miter;stroke-width:1.5;" x="114.581927" xlink:href="#m59a4c80018" y="274.958587"/>
     <use style="fill-opacity:0;stroke:#ff00ff;stroke-linejoin:miter;stroke-width:1.5;" x="196.109897" xlink:href="#m59a4c80018" y="271.8131"/>
     <use style="fill-opacity:0;stroke:#ff00ff;stroke-linejoin:miter;stroke-width:1.5;" x="312.491235" xlink:href="#m59a4c80018" y="261.852394"/>
     <use style="fill-opacity:0;stroke:#ff00ff;stroke-linejoin:miter;stroke-width:1.5;" x="331.724815" xlink:href="#m59a4c80018" y="252.940182"/>
     <use style="fill-opacity:0;stroke:#ff00ff;stroke-linejoin:miter;stroke-width:1.5;" x="333.168" xlink:href="#m59a4c80018" y="252.940182"/>
    </g>
   </g>
   <g id="line2d_50">
    <path style="fill:none;stroke:#ff00ff;stroke-linecap:square;stroke-width:1.5;"/>
    <g/>
   </g>
   <g id="line2d_51">
    <path clip-path="url(#p0e776b4716)" d="M 293.589714 268.667614 
" style="fill:none;stroke:#ff00ff;stroke-linecap:square;stroke-width:1.5;"/>
    <defs>
     <path d="M -12 12 
L 12 -12 
M -12 -12 
L 12 12 
" id="m21ce75a01d" style="stroke:#ff00ff;"/>
    </defs>
    <g clip-path="url(#p0e776b4716)">
     <use style="fill:#ff00ff;stroke:#ff00ff;" x="293.589714" xlink:href="#m21ce75a01d" y="268.667614"/>
    </g>
   </g>
   <g id="line2d_52">
    <defs>
     <path d="M 0 1.5 
C 0.397805 1.5 0.77937 1.341951 1.06066 1.06066 
C 1.341951 0.77937 1.5 0.397805 1.5 0 
C 1.5 -0.397805 1.341951 -0.77937 1.06066 -1.06066 
C 0.77937 -1.341951 0.397805 -1.5 0 -1.5 
C -0.397805 -1.5 -0.77937 -1.341951 -1.06066 -1.06066 
C -1.341951 -0.77937 -1.5 -0.397805 -1.5 0 
C -1.5 0.397805 -1.341951 0.77937 -1.06066 1.06066 
C -0.77937 1.341951 -0.397805 1.5 0 1.5 
z
" id="ma0f78bf62b" style="stroke:#ffa500;"/>
    </defs>
    <g>
     <use style="fill:#ffa500;stroke:#ffa500;" x="346.468799" xlink:href="#ma0f78bf62b" y="237.212751"/>
     <use style="fill:#ffa500;stroke:#ffa500;" x="346.468799" xlink:href="#ma0f78bf62b" y="237.212751"/>
    </g>
   </g>
   <g id="line2d_53">
    <path d="M 28.455965 294.88 
L 28.455965 286.492036 
L 40.370217 286.492036 
L 40.370217 285.443541 
L 47.339607 285.443541 
L 47.339607 283.870798 
L 52.284468 283.870798 
L 52.284468 282.298055 
L 56.12 282.298055 
L 56.12 281.773807 
L 59.253858 281.773807 
L 59.253858 281.249559 
L 61.903497 281.249559 
L 61.903497 280.725312 
L 64.198719 280.725312 
L 64.198719 280.201064 
L 72.543934 280.201064 
L 72.543934 278.628321 
L 76.11297 278.628321 
L 76.11297 277.579825 
L 77.155024 277.579825 
L 77.155024 277.055578 
L 78.137499 277.055578 
L 78.137499 276.53133 
L 85.106889 276.53133 
L 85.106889 275.482834 
L 97.336537 275.482834 
L 97.336537 274.958587 
L 99.67078 274.958587 
L 99.67078 273.910091 
L 110.311216 273.910091 
L 110.311216 273.385844 
L 117.715785 273.385844 
L 117.715785 272.861596 
L 124.685175 272.861596 
L 124.685175 272.337348 
L 126.892639 272.337348 
L 126.892639 271.288853 
L 127.92481 271.288853 
L 127.92481 269.716109 
L 134.431058 269.716109 
L 134.431058 268.143366 
L 142.518803 268.143366 
L 142.518803 267.619119 
L 153.326732 267.619119 
L 153.326732 267.094871 
L 156.230517 267.094871 
L 156.230517 266.570623 
L 170.446973 266.570623 
L 170.446973 266.046375 
L 182.886242 266.046375 
L 182.886242 265.522128 
L 184.298158 265.522128 
L 184.298158 264.99788 
L 189.62718 264.99788 
L 189.62718 264.473632 
L 209.6906 264.473632 
L 209.6906 263.949385 
L 223.324081 263.949385 
L 223.324081 262.376641 
L 229.381556 262.376641 
L 229.381556 261.852394 
L 234.479744 261.852394 
L 234.479744 261.328146 
L 247.136334 261.328146 
L 247.136334 260.279651 
L 249.199573 260.279651 
L 249.199573 259.231155 
L 268.095157 259.231155 
L 268.095157 258.18266 
L 283.171216 258.18266 
L 283.171216 257.658412 
L 286.965446 257.658412 
L 286.965446 257.134164 
L 292.319264 257.134164 
L 292.319264 256.085669 
L 293.589769 256.085669 
L 293.604353 254.512926 
L 293.718738 254.512926 
L 293.719663 252.940182 
L 293.875648 252.940182 
L 293.875648 252.415935 
L 294.132799 252.415935 
L 294.132799 251.367439 
L 295.483822 251.367439 
L 295.483822 250.843192 
L 297.104705 250.843192 
L 297.104705 250.318944 
L 304.1214 250.318944 
L 304.1214 249.794696 
L 305.503993 249.794696 
L 305.569063 248.746201 
L 306.477096 248.746201 
L 306.477096 248.221953 
L 311.56411 248.221953 
L 311.56411 247.697705 
L 317.109298 247.697705 
L 317.109298 246.64921 
L 317.450564 246.64921 
L 317.490147 244.552219 
L 320.117585 244.552219 
L 320.117585 244.027971 
L 322.016606 244.027971 
L 322.016606 243.503724 
L 323.938995 243.503724 
L 323.938995 242.979476 
L 324.182279 242.979476 
L 324.182279 242.455228 
L 324.718143 242.455228 
L 324.718143 241.93098 
L 327.078386 241.93098 
L 327.078386 240.358237 
L 329.33413 240.358237 
L 329.33413 239.83399 
L 331.220385 239.83399 
L 331.220385 239.309742 
L 332.609304 239.309742 
L 332.609304 238.785494 
L 333.168 238.785494 
L 333.168 238.785494 
" style="fill:none;stroke:#ffa500;stroke-linecap:square;stroke-width:1.5;"/>
   </g>
   <g id="line2d_54">
    <defs>
     <path d="M 0 -6 
L -1.347084 -1.854102 
L -5.706339 -1.854102 
L -2.179628 0.708204 
L -3.526712 4.854102 
L -0 2.291796 
L 3.526712 4.854102 
L 2.179628 0.708204 
L 5.706339 -1.854102 
L 1.347084 -1.854102 
z
" id="m9322e31e5f" style="stroke:#ffa500;stroke-linejoin:bevel;stroke-width:1.5;"/>
    </defs>
    <g>
     <use style="fill-opacity:0;stroke:#ffa500;stroke-linejoin:bevel;stroke-width:1.5;" x="117.715785" xlink:href="#m9322e31e5f" y="273.385844"/>
     <use style="fill-opacity:0;stroke:#ffa500;stroke-linejoin:bevel;stroke-width:1.5;" x="170.446973" xlink:href="#m9322e31e5f" y="266.570623"/>
     <use style="fill-opacity:0;stroke:#ffa500;stroke-linejoin:bevel;stroke-width:1.5;" x="249.199573" xlink:href="#m9322e31e5f" y="259.231155"/>
     <use style="fill-opacity:0;stroke:#ffa500;stroke-linejoin:bevel;stroke-width:1.5;" x="320.117585" xlink:href="#m9322e31e5f" y="244.552219"/>
     <use style="fill-opacity:0;stroke:#ffa500;stroke-linejoin:bevel;stroke-width:1.5;" x="332.609304" xlink:href="#m9322e31e5f" y="238.785494"/>
     <use style="fill-opacity:0;stroke:#ffa500;stroke-linejoin:bevel;stroke-width:1.5;" x="333.168" xlink:href="#m9322e31e5f" y="238.785494"/>
    </g>
   </g>
   <g id="line2d_55">
    <path style="fill:none;stroke:#ffa500;stroke-linecap:square;stroke-width:1.5;"/>
    <g/>
   </g>
   <g id="line2d_56">
    <path clip-path="url(#p0e776b4716)" d="M 293.589714 256.085669 
" style="fill:none;stroke:#ffa500;stroke-linecap:square;stroke-width:1.5;"/>
    <defs>
     <path d="M -12 12 
L 12 -12 
M -12 -12 
L 12 12 
" id="m2afa431d74" style="stroke:#ffa500;"/>
    </defs>
    <g clip-path="url(#p0e776b4716)">
     <use style="fill:#ffa500;stroke:#ffa500;" x="293.589714" xlink:href="#m2afa431d74" y="256.085669"/>
    </g>
   </g>
   <g id="line2d_57">
    <defs>
     <path d="M 0 1.5 
C 0.397805 1.5 0.77937 1.341951 1.06066 1.06066 
C 1.341951 0.77937 1.5 0.397805 1.5 0 
C 1.5 -0.397805 1.341951 -0.77937 1.06066 -1.06066 
C 0.77937 -1.341951 0.397805 -1.5 0 -1.5 
C -0.397805 -1.5 -0.77937 -1.341951 -1.06066 -1.06066 
C -1.341951 -0.77937 -1.5 -0.397805 -1.5 0 
C -1.5 0.397805 -1.341951 0.77937 -1.06066 1.06066 
C -0.77937 1.341951 -0.397805 1.5 0 1.5 
z
" id="mec713798df" style="stroke:#6495ed;"/>
    </defs>
    <g>
     <use style="fill:#6495ed;stroke:#6495ed;" x="361.004391" xlink:href="#mec713798df" y="231.970274"/>
     <use style="fill:#6495ed;stroke:#6495ed;" x="361.004391" xlink:href="#mec713798df" y="231.970274"/>
    </g>
   </g>
   <g id="line2d_58">
    <path d="M 28.455965 294.88 
L 28.455965 286.492036 
L 40.370217 286.492036 
L 40.370217 284.919293 
L 47.339607 284.919293 
L 47.339607 282.822302 
L 52.284468 282.822302 
L 52.284468 280.725312 
L 56.12 280.725312 
L 56.12 279.152568 
L 61.903497 279.152568 
L 61.903497 278.628321 
L 68.034251 278.628321 
L 68.034251 278.104073 
L 69.672503 278.104073 
L 69.672503 277.055578 
L 71.168109 277.055578 
L 71.168109 276.007082 
L 72.543934 276.007082 
L 72.543934 274.958587 
L 87.481505 274.958587 
L 87.481505 274.434339 
L 90.05175 274.434339 
L 90.05175 273.910091 
L 95.351029 273.910091 
L 95.351029 273.385844 
L 99.11626 273.385844 
L 99.11626 272.861596 
L 101.725597 272.861596 
L 101.725597 272.337348 
L 107.612537 272.337348 
L 107.612537 271.8131 
L 119.09161 271.8131 
L 119.09161 270.240357 
L 127.659138 270.240357 
L 127.659138 269.191862 
L 127.872003 269.191862 
L 127.872003 268.667614 
L 129.047315 268.667614 
L 129.047315 268.143366 
L 131.949115 268.143366 
L 131.949115 267.619119 
L 134.39491 267.619119 
L 134.39491 267.094871 
L 141.757814 267.094871 
L 141.757814 266.570623 
L 144.678145 266.570623 
L 144.678145 265.522128 
L 162.719171 265.522128 
L 162.719171 263.425137 
L 174.444342 263.425137 
L 174.444342 262.900889 
L 175.85642 262.900889 
L 175.85642 262.376641 
L 177.685251 262.376641 
L 177.685251 261.852394 
L 177.965782 261.852394 
L 177.965782 260.803898 
L 179.08461 260.803898 
L 179.08461 260.279651 
L 184.270351 260.279651 
L 184.270351 259.755403 
L 185.068521 259.755403 
L 185.068521 258.706907 
L 191.923675 258.706907 
L 191.923675 258.18266 
L 201.279631 258.18266 
L 201.279631 257.658412 
L 202.447238 257.658412 
L 202.447238 257.134164 
L 206.183617 257.134164 
L 206.183617 256.085669 
L 206.654312 256.085669 
L 206.654312 255.561421 
L 211.394042 255.561421 
L 211.394042 255.037173 
L 223.936275 255.037173 
L 223.936275 254.512926 
L 224.263224 254.512926 
L 224.3254 252.415935 
L 227.745206 252.415935 
L 227.745206 251.891687 
L 229.571114 251.891687 
L 229.571114 251.367439 
L 240.846755 251.367439 
L 240.846755 250.843192 
L 251.224744 250.843192 
L 251.224744 250.318944 
L 255.776935 250.318944 
L 255.776935 249.270448 
L 257.479515 249.270448 
L 257.479515 248.221953 
L 264.273981 248.221953 
L 264.273981 247.173458 
L 267.118797 247.173458 
L 267.118797 246.64921 
L 268.615969 246.64921 
L 268.615969 246.124962 
L 268.959049 246.124962 
L 268.959049 245.076467 
L 277.039191 245.076467 
L 277.039191 244.552219 
L 280.255619 244.552219 
L 280.255619 243.503724 
L 281.808632 243.503724 
L 281.808632 241.93098 
L 297.202221 241.93098 
L 297.202221 241.406733 
L 299.148209 241.406733 
L 299.148209 240.882485 
L 300.603609 240.882485 
L 300.603609 240.358237 
L 309.366214 240.358237 
L 309.366214 239.309742 
L 313.096843 239.309742 
L 313.096843 238.785494 
L 314.237922 238.785494 
L 314.237922 238.261246 
L 318.758332 238.261246 
L 318.758332 237.736999 
L 319.457593 237.736999 
L 319.457593 237.212751 
L 325.773712 237.212751 
L 325.773712 236.688503 
L 328.232049 236.688503 
L 328.232049 236.164255 
L 330.015582 236.164255 
L 330.015582 235.640008 
L 333.168 235.640008 
L 333.168 235.640008 
" style="fill:none;stroke:#6495ed;stroke-linecap:square;stroke-width:1.5;"/>
   </g>
   <g id="line2d_59">
    <defs>
     <path d="M -0 6 
L 6 -6 
L -6 -6 
z
" id="m8a29b1e127" style="stroke:#6495ed;stroke-linejoin:miter;stroke-width:1.5;"/>
    </defs>
    <g>
     <use style="fill-opacity:0;stroke:#6495ed;stroke-linejoin:miter;stroke-width:1.5;" x="134.39491" xlink:href="#m8a29b1e127" y="267.619119"/>
     <use style="fill-opacity:0;stroke:#6495ed;stroke-linejoin:miter;stroke-width:1.5;" x="185.068521" xlink:href="#m8a29b1e127" y="258.706907"/>
     <use style="fill-opacity:0;stroke:#6495ed;stroke-linejoin:miter;stroke-width:1.5;" x="277.039191" xlink:href="#m8a29b1e127" y="245.076467"/>
     <use style="fill-opacity:0;stroke:#6495ed;stroke-linejoin:miter;stroke-width:1.5;" x="330.015582" xlink:href="#m8a29b1e127" y="236.164255"/>
     <use style="fill-opacity:0;stroke:#6495ed;stroke-linejoin:miter;stroke-width:1.5;" x="333.168" xlink:href="#m8a29b1e127" y="235.640008"/>
    </g>
   </g>
   <g id="line2d_60">
    <path style="fill:none;stroke:#6495ed;stroke-linecap:square;stroke-width:1.5;"/>
    <g/>
   </g>
   <g id="line2d_61">
    <path clip-path="url(#p0e776b4716)" d="M 293.589714 241.93098 
" style="fill:none;stroke:#6495ed;stroke-linecap:square;stroke-width:1.5;"/>
    <defs>
     <path d="M -12 12 
L 12 -12 
M -12 -12 
L 12 12 
" id="md53b696ea7" style="stroke:#6495ed;"/>
    </defs>
    <g clip-path="url(#p0e776b4716)">
     <use style="fill:#6495ed;stroke:#6495ed;" x="293.589714" xlink:href="#md53b696ea7" y="241.93098"/>
    </g>
   </g>
   <g id="line2d_62">
    <defs>
     <path d="M 0 1.5 
C 0.397805 1.5 0.77937 1.341951 1.06066 1.06066 
C 1.341951 0.77937 1.5 0.397805 1.5 0 
C 1.5 -0.397805 1.341951 -0.77937 1.06066 -1.06066 
C 0.77937 -1.341951 0.397805 -1.5 0 -1.5 
C -0.397805 -1.5 -0.77937 -1.341951 -1.06066 -1.06066 
C -1.341951 -0.77937 -1.5 -0.397805 -1.5 0 
C -1.5 0.397805 -1.341951 0.77937 -1.06066 1.06066 
C -0.77937 1.341951 -0.397805 1.5 0 1.5 
z
" id="m535e640b14" style="stroke:#ff0000;"/>
    </defs>
    <g>
     <use style="fill:#ff0000;stroke:#ff0000;" x="396.65515" xlink:href="#m535e640b14" y="226.727797"/>
     <use style="fill:#ff0000;stroke:#ff0000;" x="396.65515" xlink:href="#m535e640b14" y="226.727797"/>
    </g>
   </g>
   <g id="line2d_63">
    <path d="M 28.455965 294.88 
L 28.455965 291.210266 
L 40.370217 291.210266 
L 40.370217 288.589027 
L 47.339607 288.589027 
L 47.339607 287.540532 
L 52.284468 287.540532 
L 52.284468 285.967789 
L 68.034251 285.967789 
L 68.034251 284.919293 
L 69.672503 284.919293 
L 69.672503 283.870798 
L 72.543934 283.870798 
L 72.543934 283.34655 
L 73.817748 283.34655 
L 73.817748 282.822302 
L 75.003641 282.822302 
L 75.003641 280.201064 
L 80.787138 280.201064 
L 80.787138 279.152568 
L 83.784035 279.152568 
L 83.784035 278.104073 
L 84.458185 278.104073 
L 84.458185 277.055578 
L 85.732 277.055578 
L 85.732 276.53133 
L 88.556144 276.53133 
L 88.556144 275.482834 
L 93.105847 275.482834 
L 93.105847 274.958587 
L 96.699848 274.958587 
L 96.699848 274.434339 
L 97.021141 274.434339 
L 97.021141 273.385844 
L 102.667676 273.385844 
L 102.667676 272.861596 
L 108.775496 272.861596 
L 108.775496 272.337348 
L 110.602556 272.337348 
L 110.602556 271.288853 
L 115.145539 271.288853 
L 115.145539 270.764605 
L 120.929036 270.764605 
L 120.929036 270.240357 
L 122.944762 270.240357 
L 122.944762 269.716109 
L 123.430938 269.716109 
L 123.430938 269.191862 
L 125.062963 269.191862 
L 125.062963 268.667614 
L 125.49347 268.667614 
L 125.49347 267.619119 
L 127.443604 267.619119 
L 127.443604 267.094871 
L 133.234845 267.094871 
L 133.234845 266.570623 
L 134.503128 266.570623 
L 134.503128 265.522128 
L 134.646368 265.522128 
L 134.646368 264.473632 
L 142.177069 264.473632 
L 142.177069 263.425137 
L 146.417379 263.425137 
L 146.417379 262.900889 
L 159.105074 262.900889 
L 159.105074 262.376641 
L 161.334639 262.376641 
L 161.334639 261.852394 
L 161.552172 261.852394 
L 161.552172 261.328146 
L 167.173047 261.328146 
L 167.173047 260.803898 
L 175.171629 260.803898 
L 175.171629 260.279651 
L 175.956664 260.279651 
L 175.956664 258.706907 
L 191.002893 258.706907 
L 191.002893 258.18266 
L 191.985965 258.18266 
L 191.985965 257.658412 
L 196.602876 257.658412 
L 196.602876 257.134164 
L 198.211119 257.134164 
L 198.211119 256.085669 
L 199.321111 256.085669 
L 199.321111 255.561421 
L 202.859272 255.561421 
L 202.859272 255.037173 
L 204.166516 255.037173 
L 204.257481 252.940182 
L 228.511765 252.940182 
L 228.511765 252.415935 
L 231.845662 252.415935 
L 231.845662 251.367439 
L 233.44226 251.367439 
L 233.44226 250.843192 
L 236.26303 250.843192 
L 236.26303 249.794696 
L 239.944373 249.794696 
L 239.944373 248.746201 
L 240.443965 248.746201 
L 240.443965 247.697705 
L 253.591158 247.697705 
L 253.677917 245.076467 
L 263.132202 245.076467 
L 263.132202 244.552219 
L 263.984968 244.552219 
L 263.984968 244.027971 
L 276.544743 244.027971 
L 276.544743 242.979476 
L 278.488163 242.979476 
L 278.488163 241.93098 
L 286.10394 241.93098 
L 286.10394 241.406733 
L 297.050792 241.406733 
L 297.050792 240.882485 
L 304.389924 240.882485 
L 304.389924 240.358237 
L 317.365534 240.358237 
L 317.365534 238.785494 
L 329.462625 238.785494 
L 329.462625 238.261246 
L 332.702139 238.261246 
L 332.702139 237.736999 
L 333.168 237.736999 
L 333.168 237.736999 
" style="fill:none;stroke:#ff0000;stroke-linecap:square;stroke-width:1.5;"/>
   </g>
   <g id="line2d_64">
    <defs>
     <path d="M 0 -6 
L -5.196152 -3 
L -5.196152 3 
L -0 6 
L 5.196152 3 
L 5.196152 -3 
z
" id="m4b2e90492c" style="stroke:#ff0000;stroke-linejoin:miter;stroke-width:1.5;"/>
    </defs>
    <g>
     <use style="fill-opacity:0;stroke:#ff0000;stroke-linejoin:miter;stroke-width:1.5;" x="75.003641" xlink:href="#m4b2e90492c" y="282.822302"/>
     <use style="fill-opacity:0;stroke:#ff0000;stroke-linejoin:miter;stroke-width:1.5;" x="127.443604" xlink:href="#m4b2e90492c" y="267.094871"/>
     <use style="fill-opacity:0;stroke:#ff0000;stroke-linejoin:miter;stroke-width:1.5;" x="204.257481" xlink:href="#m4b2e90492c" y="252.940182"/>
     <use style="fill-opacity:0;stroke:#ff0000;stroke-linejoin:miter;stroke-width:1.5;" x="286.10394" xlink:href="#m4b2e90492c" y="241.406733"/>
     <use style="fill-opacity:0;stroke:#ff0000;stroke-linejoin:miter;stroke-width:1.5;" x="332.702139" xlink:href="#m4b2e90492c" y="237.736999"/>
     <use style="fill-opacity:0;stroke:#ff0000;stroke-linejoin:miter;stroke-width:1.5;" x="333.168" xlink:href="#m4b2e90492c" y="237.736999"/>
    </g>
   </g>
   <g id="line2d_65">
    <path style="fill:none;stroke:#ff0000;stroke-linecap:square;stroke-width:1.5;"/>
    <g/>
   </g>
   <g id="line2d_66">
    <path clip-path="url(#p0e776b4716)" d="M 333.168 237.736999 
" style="fill:none;stroke:#ff0000;stroke-linecap:square;stroke-width:1.5;"/>
    <defs>
     <path d="M -12 12 
L 12 -12 
M -12 -12 
L 12 12 
" id="m2d96c63304" style="stroke:#ff0000;"/>
    </defs>
    <g clip-path="url(#p0e776b4716)">
     <use style="fill:#ff0000;stroke:#ff0000;" x="333.168" xlink:href="#m2d96c63304" y="237.736999"/>
    </g>
   </g>
   <g id="line2d_67">
    <defs>
     <path d="M 0 1.5 
C 0.397805 1.5 0.77937 1.341951 1.06066 1.06066 
C 1.341951 0.77937 1.5 0.397805 1.5 0 
C 1.5 -0.397805 1.341951 -0.77937 1.06066 -1.06066 
C 0.77937 -1.341951 0.397805 -1.5 0 -1.5 
C -0.397805 -1.5 -0.77937 -1.341951 -1.06066 -1.06066 
C -1.341951 -0.77937 -1.5 -0.397805 -1.5 0 
C -1.5 0.397805 -1.341951 0.77937 -1.06066 1.06066 
C -0.77937 1.341951 -0.397805 1.5 0 1.5 
z
" id="m786f1f6142" style="stroke:#9acd32;"/>
    </defs>
    <g>
     <use style="fill:#9acd32;stroke:#9acd32;" x="393.325416" xlink:href="#m786f1f6142" y="232.494521"/>
     <use style="fill:#9acd32;stroke:#9acd32;" x="393.325416" xlink:href="#m786f1f6142" y="232.494521"/>
    </g>
   </g>
   <g id="line2d_68">
    <path d="M 28.455965 294.88 
L 28.455965 288.06478 
L 40.370217 288.06478 
L 40.370217 287.540532 
L 52.284468 287.540532 
L 52.284468 287.016284 
L 56.12 287.016284 
L 56.12 285.443541 
L 64.198719 285.443541 
L 64.198719 284.919293 
L 66.223248 284.919293 
L 66.223248 283.870798 
L 68.034251 283.870798 
L 68.034251 282.298055 
L 69.672503 282.298055 
L 69.672503 281.773807 
L 82.350819 281.773807 
L 82.350819 280.725312 
L 86.335171 280.725312 
L 86.335171 279.676816 
L 93.887283 279.676816 
L 93.887283 279.152568 
L 94.26507 279.152568 
L 94.26507 278.628321 
L 95.351029 278.628321 
L 95.351029 278.104073 
L 97.021141 278.104073 
L 97.021141 277.579825 
L 97.950482 277.579825 
L 97.950482 274.958587 
L 100.728876 274.958587 
L 100.728876 273.910091 
L 104.409787 273.910091 
L 104.409787 273.385844 
L 105.218813 273.385844 
L 105.218813 272.337348 
L 107.088985 272.337348 
L 107.088985 271.8131 
L 107.612537 271.8131 
L 107.612537 271.288853 
L 113.396034 271.288853 
L 113.396034 269.716109 
L 122.298767 269.716109 
L 122.298767 269.191862 
L 122.516807 269.191862 
L 122.516807 268.143366 
L 122.588877 268.143366 
L 122.588877 267.619119 
L 131.224827 267.619119 
L 131.224827 267.094871 
L 134.823755 267.094871 
L 134.823755 266.046375 
L 134.8942 266.046375 
L 134.8942 265.522128 
L 144.797098 265.522128 
L 144.797098 264.473632 
L 145.757607 264.473632 
L 145.757607 263.425137 
L 152.476064 263.425137 
L 152.476064 262.900889 
L 173.470149 262.900889 
L 173.470149 262.376641 
L 176.053122 262.376641 
L 176.053122 261.852394 
L 176.99815 261.852394 
L 176.99815 261.328146 
L 178.682137 261.328146 
L 178.682137 260.803898 
L 178.995682 260.803898 
L 178.995682 259.755403 
L 183.630437 259.755403 
L 183.630437 257.658412 
L 185.567861 257.658412 
L 185.567861 257.134164 
L 191.315773 257.134164 
L 191.315773 256.609917 
L 192.419493 256.609917 
L 192.419493 256.085669 
L 192.462745 256.085669 
L 192.462745 255.561421 
L 204.377613 255.561421 
L 204.377613 254.512926 
L 204.855317 254.512926 
L 204.855317 252.940182 
L 209.416628 252.940182 
L 209.416628 252.415935 
L 219.096569 252.415935 
L 219.096569 251.891687 
L 221.611645 251.891687 
L 221.611645 251.367439 
L 242.414489 251.367439 
L 242.414489 250.843192 
L 256.533735 250.843192 
L 256.533735 250.318944 
L 259.840954 250.318944 
L 259.840954 249.270448 
L 268.085928 249.270448 
L 268.085928 248.746201 
L 270.788182 248.746201 
L 270.788182 248.221953 
L 272.310938 248.221953 
L 272.310938 247.697705 
L 274.993633 247.697705 
L 274.993633 246.64921 
L 281.611609 246.64921 
L 281.611609 245.600714 
L 281.96975 245.600714 
L 281.96975 245.076467 
L 283.651797 245.076467 
L 283.651797 244.552219 
L 286.132388 244.552219 
L 286.132388 244.027971 
L 292.885573 244.027971 
L 292.885573 243.503724 
L 295.239063 243.503724 
L 295.239063 242.455228 
L 310.416565 242.455228 
L 310.416565 241.93098 
L 312.308835 241.93098 
L 312.308835 240.358237 
L 314.374918 240.358237 
L 314.374918 239.83399 
L 321.471477 239.83399 
L 321.471477 239.309742 
L 326.901724 239.309742 
L 326.901724 238.785494 
L 333.168 238.785494 
" style="fill:none;stroke:#9acd32;stroke-linecap:square;stroke-width:1.5;"/>
   </g>
   <g id="line2d_69">
    <defs>
     <path d="M 0 -6 
L -6 6 
L 6 6 
z
" id="m4767c60eb0" style="stroke:#9acd32;stroke-linejoin:miter;stroke-width:1.5;"/>
    </defs>
    <g>
     <use style="fill-opacity:0;stroke:#9acd32;stroke-linejoin:miter;stroke-width:1.5;" x="69.672503" xlink:href="#m4767c60eb0" y="281.773807"/>
     <use style="fill-opacity:0;stroke:#9acd32;stroke-linejoin:miter;stroke-width:1.5;" x="145.757607" xlink:href="#m4767c60eb0" y="264.473632"/>
     <use style="fill-opacity:0;stroke:#9acd32;stroke-linejoin:miter;stroke-width:1.5;" x="209.416628" xlink:href="#m4767c60eb0" y="252.415935"/>
     <use style="fill-opacity:0;stroke:#9acd32;stroke-linejoin:miter;stroke-width:1.5;" x="295.239063" xlink:href="#m4767c60eb0" y="243.503724"/>
     <use style="fill-opacity:0;stroke:#9acd32;stroke-linejoin:miter;stroke-width:1.5;" x="326.901724" xlink:href="#m4767c60eb0" y="238.785494"/>
     <use style="fill-opacity:0;stroke:#9acd32;stroke-linejoin:miter;stroke-width:1.5;" x="333.168" xlink:href="#m4767c60eb0" y="238.785494"/>
    </g>
   </g>
   <g id="line2d_70">
    <path style="fill:none;stroke:#9acd32;stroke-linecap:square;stroke-width:1.5;"/>
    <g/>
   </g>
   <g id="line2d_71">
    <path clip-path="url(#p0e776b4716)" d="M 333.168 238.785494 
" style="fill:none;stroke:#9acd32;stroke-linecap:square;stroke-width:1.5;"/>
    <defs>
     <path d="M -12 12 
L 12 -12 
M -12 -12 
L 12 12 
" id="ma6e50e1b0f" style="stroke:#9acd32;"/>
    </defs>
    <g clip-path="url(#p0e776b4716)">
     <use style="fill:#9acd32;stroke:#9acd32;" x="333.168" xlink:href="#ma6e50e1b0f" y="238.785494"/>
    </g>
   </g>
   <g id="line2d_72">
    <defs>
     <path d="M 0 1.5 
C 0.397805 1.5 0.77937 1.341951 1.06066 1.06066 
C 1.341951 0.77937 1.5 0.397805 1.5 0 
C 1.5 -0.397805 1.341951 -0.77937 1.06066 -1.06066 
C 0.77937 -1.341951 0.397805 -1.5 0 -1.5 
C -0.397805 -1.5 -0.77937 -1.341951 -1.06066 -1.06066 
C -1.341951 -0.77937 -1.5 -0.397805 -1.5 0 
C -1.5 0.397805 -1.341951 0.77937 -1.06066 1.06066 
C -0.77937 1.341951 -0.397805 1.5 0 1.5 
z
" id="maf9d3a439b" style="stroke:#00bfbf;"/>
    </defs>
    <g>
     <use style="fill:#00bfbf;stroke:#00bfbf;" x="340.487759" xlink:href="#maf9d3a439b" y="242.455228"/>
     <use style="fill:#00bfbf;stroke:#00bfbf;" x="340.487759" xlink:href="#maf9d3a439b" y="242.455228"/>
    </g>
   </g>
   <g id="line2d_73">
    <path d="M 28.455965 294.88 
L 28.455965 293.307257 
L 40.370217 293.307257 
L 40.370217 289.113275 
L 52.284468 289.113275 
L 52.284468 288.06478 
L 56.12 288.06478 
L 56.12 287.540532 
L 59.253858 287.540532 
L 59.253858 286.492036 
L 64.198719 286.492036 
L 64.198719 285.967789 
L 66.223248 285.967789 
L 66.223248 284.919293 
L 75.003641 284.919293 
L 75.003641 283.870798 
L 78.137499 283.870798 
L 78.137499 282.298055 
L 79.948502 282.298055 
L 79.948502 281.249559 
L 81.586754 281.249559 
L 81.586754 280.201064 
L 86.917893 280.201064 
L 86.917893 279.676816 
L 88.027221 279.676816 
L 88.027221 278.104073 
L 97.646251 278.104073 
L 97.646251 277.579825 
L 103.120034 277.579825 
L 103.120034 277.055578 
L 103.777005 277.055578 
L 103.777005 276.53133 
L 113.760471 276.53133 
L 113.760471 276.007082 
L 116.220179 276.007082 
L 116.220179 275.482834 
L 116.427273 275.482834 
L 116.427273 274.958587 
L 117.426894 274.958587 
L 117.426894 273.385844 
L 120.200938 273.385844 
L 120.200938 272.861596 
L 125.913457 272.861596 
L 125.913457 271.8131 
L 127.7659 271.8131 
L 127.7659 271.288853 
L 147.429795 271.288853 
L 147.429795 270.764605 
L 147.748889 270.764605 
L 147.748889 270.240357 
L 149.184767 270.240357 
L 149.184767 268.143366 
L 150.137454 268.143366 
L 150.137454 267.619119 
L 170.881263 267.619119 
L 170.881263 267.094871 
L 171.283705 267.094871 
L 171.283705 266.570623 
L 174.38085 266.570623 
L 174.38085 265.522128 
L 182.376766 265.522128 
L 182.376766 264.99788 
L 182.950756 264.99788 
L 182.950756 263.949385 
L 186.720913 263.949385 
L 186.720913 263.425137 
L 192.671287 263.425137 
L 192.671287 262.900889 
L 194.338667 262.900889 
L 194.338667 262.376641 
L 195.897968 262.376641 
L 195.897968 260.803898 
L 197.925192 260.803898 
L 197.925192 260.279651 
L 198.357137 260.279651 
L 198.357137 259.231155 
L 206.912357 259.231155 
L 206.912357 258.706907 
L 214.102015 258.706907 
L 214.102015 258.18266 
L 220.173368 258.18266 
L 220.173368 257.658412 
L 223.220685 257.658412 
L 223.220685 256.609917 
L 226.748837 256.609917 
L 226.748837 255.561421 
L 234.575433 255.561421 
L 234.575433 253.988678 
L 237.233712 253.988678 
L 237.233712 253.46443 
L 244.462147 253.46443 
L 244.462147 252.415935 
L 250.624836 252.415935 
L 250.624836 251.891687 
L 261.45961 251.891687 
L 261.45961 251.367439 
L 262.995302 251.367439 
L 262.995302 250.843192 
L 263.3924 250.843192 
L 263.3924 249.794696 
L 271.603956 249.794696 
L 271.603956 249.270448 
L 282.836501 249.270448 
L 282.836501 248.221953 
L 293.581689 248.221953 
L 293.581689 247.697705 
L 298.216585 247.697705 
L 298.216585 247.173458 
L 311.864699 247.173458 
L 311.864699 246.64921 
L 314.157868 246.64921 
L 314.157868 246.124962 
L 321.535428 246.124962 
L 321.535428 245.600714 
L 322.28413 245.600714 
L 322.28413 245.076467 
L 324.622659 245.076467 
L 324.622659 244.552219 
L 327.779481 244.552219 
L 327.779481 244.027971 
L 331.156497 244.027971 
L 331.156497 243.503724 
L 333.168 243.503724 
" style="fill:none;stroke:#00bfbf;stroke-linecap:square;stroke-width:1.5;"/>
   </g>
   <g id="line2d_74">
    <defs>
     <path d="M 0 -6 
L -5.706339 -1.854102 
L -3.526712 4.854102 
L 3.526712 4.854102 
L 5.706339 -1.854102 
z
" id="mdb69418e8e" style="stroke:#00bfbf;stroke-linejoin:miter;stroke-width:1.5;"/>
    </defs>
    <g>
     <use style="fill-opacity:0;stroke:#00bfbf;stroke-linejoin:miter;stroke-width:1.5;" x="120.200938" xlink:href="#mdb69418e8e" y="273.385844"/>
     <use style="fill-opacity:0;stroke:#00bfbf;stroke-linejoin:miter;stroke-width:1.5;" x="182.950756" xlink:href="#mdb69418e8e" y="263.949385"/>
     <use style="fill-opacity:0;stroke:#00bfbf;stroke-linejoin:miter;stroke-width:1.5;" x="244.462147" xlink:href="#mdb69418e8e" y="253.46443"/>
     <use style="fill-opacity:0;stroke:#00bfbf;stroke-linejoin:miter;stroke-width:1.5;" x="314.157868" xlink:href="#mdb69418e8e" y="246.64921"/>
     <use style="fill-opacity:0;stroke:#00bfbf;stroke-linejoin:miter;stroke-width:1.5;" x="331.156497" xlink:href="#mdb69418e8e" y="243.503724"/>
     <use style="fill-opacity:0;stroke:#00bfbf;stroke-linejoin:miter;stroke-width:1.5;" x="333.168" xlink:href="#mdb69418e8e" y="243.503724"/>
    </g>
   </g>
   <g id="line2d_75">
    <path style="fill:none;stroke:#00bfbf;stroke-linecap:square;stroke-width:1.5;"/>
    <g/>
   </g>
   <g id="line2d_76">
    <path clip-path="url(#p0e776b4716)" d="M 293.589714 247.697705 
" style="fill:none;stroke:#00bfbf;stroke-linecap:square;stroke-width:1.5;"/>
    <defs>
     <path d="M -12 12 
L 12 -12 
M -12 -12 
L 12 12 
" id="mae66450cda" style="stroke:#00bfbf;"/>
    </defs>
    <g clip-path="url(#p0e776b4716)">
     <use style="fill:#00bfbf;stroke:#00bfbf;" x="293.589714" xlink:href="#mae66450cda" y="247.697705"/>
    </g>
   </g>
   <g id="line2d_77">
    <path d="M 333.168 262.376641 
L 363.64328 289.532673 
" style="fill:none;stroke:#000080;stroke-linecap:square;stroke-width:1.5;"/>
    <g>
     <use style="fill-opacity:0;stroke:#000080;stroke-width:1.5;" x="333.168" xlink:href="#m6bcdbdf702" y="262.376641"/>
     <use style="fill-opacity:0;stroke:#000080;stroke-width:1.5;" x="363.64328" xlink:href="#m6bcdbdf702" y="289.532673"/>
    </g>
   </g>
   <g id="line2d_78">
    <path d="M 333.168 252.940182 
L 363.64328 252.86529 
" style="fill:none;stroke:#ff00ff;stroke-linecap:square;stroke-width:1.5;"/>
    <g>
     <use style="fill-opacity:0;stroke:#ff00ff;stroke-linejoin:miter;stroke-width:1.5;" x="333.168" xlink:href="#m59a4c80018" y="252.940182"/>
     <use style="fill-opacity:0;stroke:#ff00ff;stroke-linejoin:miter;stroke-width:1.5;" x="363.64328" xlink:href="#m59a4c80018" y="252.86529"/>
    </g>
   </g>
   <g id="line2d_79">
    <path d="M 333.168 243.503724 
L 363.64328 216.197907 
" style="fill:none;stroke:#00bfbf;stroke-linecap:square;stroke-width:1.5;"/>
    <g>
     <use style="fill-opacity:0;stroke:#00bfbf;stroke-linejoin:miter;stroke-width:1.5;" x="333.168" xlink:href="#mdb69418e8e" y="243.503724"/>
     <use style="fill-opacity:0;stroke:#00bfbf;stroke-linejoin:miter;stroke-width:1.5;" x="363.64328" xlink:href="#mdb69418e8e" y="216.197907"/>
    </g>
   </g>
   <g id="line2d_80">
    <path d="M 333.168 238.785494 
L 363.64328 179.530523 
" style="fill:none;stroke:#ffa500;stroke-linecap:square;stroke-width:1.5;"/>
    <g>
     <use style="fill-opacity:0;stroke:#ffa500;stroke-linejoin:bevel;stroke-width:1.5;" x="333.168" xlink:href="#m9322e31e5f" y="238.785494"/>
     <use style="fill-opacity:0;stroke:#ffa500;stroke-linejoin:bevel;stroke-width:1.5;" x="363.64328" xlink:href="#m9322e31e5f" y="179.530523"/>
    </g>
   </g>
   <g id="line2d_81">
    <path d="M 333.168 238.785494 
L 363.64328 142.86314 
" style="fill:none;stroke:#9acd32;stroke-linecap:square;stroke-width:1.5;"/>
    <g>
     <use style="fill-opacity:0;stroke:#9acd32;stroke-linejoin:miter;stroke-width:1.5;" x="333.168" xlink:href="#m4767c60eb0" y="238.785494"/>
     <use style="fill-opacity:0;stroke:#9acd32;stroke-linejoin:miter;stroke-width:1.5;" x="363.64328" xlink:href="#m4767c60eb0" y="142.86314"/>
    </g>
   </g>
   <g id="line2d_82">
    <path d="M 333.168 237.736999 
L 363.64328 106.195757 
" style="fill:none;stroke:#ff0000;stroke-linecap:square;stroke-width:1.5;"/>
    <g>
     <use style="fill-opacity:0;stroke:#ff0000;stroke-linejoin:miter;stroke-width:1.5;" x="333.168" xlink:href="#m4b2e90492c" y="237.736999"/>
     <use style="fill-opacity:0;stroke:#ff0000;stroke-linejoin:miter;stroke-width:1.5;" x="363.64328" xlink:href="#m4b2e90492c" y="106.195757"/>
    </g>
   </g>
   <g id="line2d_83">
    <path d="M 333.168 235.640008 
L 363.64328 69.528373 
" style="fill:none;stroke:#6495ed;stroke-linecap:square;stroke-width:1.5;"/>
    <g>
     <use style="fill-opacity:0;stroke:#6495ed;stroke-linejoin:miter;stroke-width:1.5;" x="333.168" xlink:href="#m8a29b1e127" y="235.640008"/>
     <use style="fill-opacity:0;stroke:#6495ed;stroke-linejoin:miter;stroke-width:1.5;" x="363.64328" xlink:href="#m8a29b1e127" y="69.528373"/>
    </g>
   </g>
   <g id="line2d_84">
    <path d="M 333.168 294.88 
L 333.168 27.513663 
" style="fill:none;stroke:#000000;stroke-linecap:square;stroke-width:1.5;"/>
   </g>
   <g id="patch_3">
    <path d="M 56.12 294.88 
L 56.12 24.84 
" style="fill:none;stroke:#000000;stroke-linecap:square;stroke-linejoin:miter;stroke-width:0.8;"/>
   </g>
   <g id="patch_4">
    <path d="M 333.168 294.88 
L 333.168 24.84 
" style="fill:none;stroke:#000000;stroke-linecap:square;stroke-linejoin:miter;stroke-width:0.8;"/>
   </g>
   <g id="patch_5">
    <path d="M 56.12 294.88 
L 333.168 294.88 
" style="fill:none;stroke:#000000;stroke-linecap:square;stroke-linejoin:miter;stroke-width:0.8;"/>
   </g>
   <g id="patch_6">
    <path d="M 56.12 24.84 
L 333.168 24.84 
" style="fill:none;stroke:#000000;stroke-linecap:square;stroke-linejoin:miter;stroke-width:0.8;"/>
   </g>
   <g id="text_13">
    <!-- RS-0p5 -->
    <defs>
     <path d="M 44.390625 34.1875 
Q 47.5625 33.109375 50.5625 29.59375 
Q 53.5625 26.078125 56.59375 19.921875 
L 66.609375 0 
L 56 0 
L 46.6875 18.703125 
Q 43.0625 26.03125 39.671875 28.421875 
Q 36.28125 30.8125 30.421875 30.8125 
L 19.671875 30.8125 
L 19.671875 0 
L 9.8125 0 
L 9.8125 72.90625 
L 32.078125 72.90625 
Q 44.578125 72.90625 50.734375 67.671875 
Q 56.890625 62.453125 56.890625 51.90625 
Q 56.890625 45.015625 53.6875 40.46875 
Q 50.484375 35.9375 44.390625 34.1875 
z
M 19.671875 64.796875 
L 19.671875 38.921875 
L 32.078125 38.921875 
Q 39.203125 38.921875 42.84375 42.21875 
Q 46.484375 45.515625 46.484375 51.90625 
Q 46.484375 58.296875 42.84375 61.546875 
Q 39.203125 64.796875 32.078125 64.796875 
z
" id="DejaVuSans-52"/>
     <path d="M 53.515625 70.515625 
L 53.515625 60.890625 
Q 47.90625 63.578125 42.921875 64.890625 
Q 37.9375 66.21875 33.296875 66.21875 
Q 25.25 66.21875 20.875 63.09375 
Q 16.5 59.96875 16.5 54.203125 
Q 16.5 49.359375 19.40625 46.890625 
Q 22.3125 44.4375 30.421875 42.921875 
L 36.375 41.703125 
Q 47.40625 39.59375 52.65625 34.296875 
Q 57.90625 29 57.90625 20.125 
Q 57.90625 9.515625 50.796875 4.046875 
Q 43.703125 -1.421875 29.984375 -1.421875 
Q 24.8125 -1.421875 18.96875 -0.25 
Q 13.140625 0.921875 6.890625 3.21875 
L 6.890625 13.375 
Q 12.890625 10.015625 18.65625 8.296875 
Q 24.421875 6.59375 29.984375 6.59375 
Q 38.421875 6.59375 43.015625 9.90625 
Q 47.609375 13.234375 47.609375 19.390625 
Q 47.609375 24.75 44.3125 27.78125 
Q 41.015625 30.8125 33.5 32.328125 
L 27.484375 33.5 
Q 16.453125 35.6875 11.515625 40.375 
Q 6.59375 45.0625 6.59375 53.421875 
Q 6.59375 63.09375 13.40625 68.65625 
Q 20.21875 74.21875 32.171875 74.21875 
Q 37.3125 74.21875 42.625 73.28125 
Q 47.953125 72.359375 53.515625 70.515625 
z
" id="DejaVuSans-53"/>
     <path d="M 10.796875 72.90625 
L 49.515625 72.90625 
L 49.515625 64.59375 
L 19.828125 64.59375 
L 19.828125 46.734375 
Q 21.96875 47.46875 24.109375 47.828125 
Q 26.265625 48.1875 28.421875 48.1875 
Q 40.625 48.1875 47.75 41.5 
Q 54.890625 34.8125 54.890625 23.390625 
Q 54.890625 11.625 47.5625 5.09375 
Q 40.234375 -1.421875 26.90625 -1.421875 
Q 22.3125 -1.421875 17.546875 -0.640625 
Q 12.796875 0.140625 7.71875 1.703125 
L 7.71875 11.625 
Q 12.109375 9.234375 16.796875 8.0625 
Q 21.484375 6.890625 26.703125 6.890625 
Q 35.15625 6.890625 40.078125 11.328125 
Q 45.015625 15.765625 45.015625 23.390625 
Q 45.015625 31 40.078125 35.4375 
Q 35.15625 39.890625 26.703125 39.890625 
Q 22.75 39.890625 18.8125 39.015625 
Q 14.890625 38.140625 10.796875 36.28125 
z
" id="DejaVuSans-35"/>
    </defs>
    <g transform="translate(369.18424 294.223611)scale(0.17 -0.17)">
     <use xlink:href="#DejaVuSans-52"/>
     <use x="69.482422" xlink:href="#DejaVuSans-53"/>
     <use x="132.958984" xlink:href="#DejaVuSans-2d"/>
     <use x="169.042969" xlink:href="#DejaVuSans-30"/>
     <use x="232.666016" xlink:href="#DejaVuSans-70"/>
     <use x="296.142578" xlink:href="#DejaVuSans-35"/>
    </g>
   </g>
   <g id="text_14">
    <!-- RS-1 -->
    <g transform="translate(369.18424 257.556227)scale(0.17 -0.17)">
     <use xlink:href="#DejaVuSans-52"/>
     <use x="69.482422" xlink:href="#DejaVuSans-53"/>
     <use x="132.958984" xlink:href="#DejaVuSans-2d"/>
     <use x="169.042969" xlink:href="#DejaVuSans-31"/>
    </g>
   </g>
   <g id="text_15">
    <!-- RS-6 -->
    <g transform="translate(369.18424 220.888844)scale(0.17 -0.17)">
     <use xlink:href="#DejaVuSans-52"/>
     <use x="69.482422" xlink:href="#DejaVuSans-53"/>
     <use x="132.958984" xlink:href="#DejaVuSans-2d"/>
     <use x="169.042969" xlink:href="#DejaVuSans-36"/>
    </g>
   </g>
   <g id="text_16">
    <!-- RS-2 -->
    <g transform="translate(369.18424 184.221461)scale(0.17 -0.17)">
     <use xlink:href="#DejaVuSans-52"/>
     <use x="69.482422" xlink:href="#DejaVuSans-53"/>
     <use x="132.958984" xlink:href="#DejaVuSans-2d"/>
     <use x="169.042969" xlink:href="#DejaVuSans-32"/>
    </g>
   </g>
   <g id="text_17">
    <!-- RS-5-1e7D -->
    <defs>
     <path d="M 8.203125 72.90625 
L 55.078125 72.90625 
L 55.078125 68.703125 
L 28.609375 0 
L 18.3125 0 
L 43.21875 64.59375 
L 8.203125 64.59375 
z
" id="DejaVuSans-37"/>
     <path d="M 19.671875 64.796875 
L 19.671875 8.109375 
L 31.59375 8.109375 
Q 46.6875 8.109375 53.6875 14.9375 
Q 60.6875 21.78125 60.6875 36.53125 
Q 60.6875 51.171875 53.6875 57.984375 
Q 46.6875 64.796875 31.59375 64.796875 
z
M 9.8125 72.90625 
L 30.078125 72.90625 
Q 51.265625 72.90625 61.171875 64.09375 
Q 71.09375 55.28125 71.09375 36.53125 
Q 71.09375 17.671875 61.125 8.828125 
Q 51.171875 0 30.078125 0 
L 9.8125 0 
z
" id="DejaVuSans-44"/>
    </defs>
    <g transform="translate(369.18424 147.554078)scale(0.17 -0.17)">
     <use xlink:href="#DejaVuSans-52"/>
     <use x="69.482422" xlink:href="#DejaVuSans-53"/>
     <use x="132.958984" xlink:href="#DejaVuSans-2d"/>
     <use x="169.042969" xlink:href="#DejaVuSans-35"/>
     <use x="232.666016" xlink:href="#DejaVuSans-2d"/>
     <use x="268.75" xlink:href="#DejaVuSans-31"/>
     <use x="332.373047" xlink:href="#DejaVuSans-65"/>
     <use x="393.896484" xlink:href="#DejaVuSans-37"/>
     <use x="457.519531" xlink:href="#DejaVuSans-44"/>
    </g>
   </g>
   <g id="text_18">
    <!-- RS-4-1e7D -->
    <g transform="translate(369.18424 110.886694)scale(0.17 -0.17)">
     <use xlink:href="#DejaVuSans-52"/>
     <use x="69.482422" xlink:href="#DejaVuSans-53"/>
     <use x="132.958984" xlink:href="#DejaVuSans-2d"/>
     <use x="169.042969" xlink:href="#DejaVuSans-34"/>
     <use x="232.666016" xlink:href="#DejaVuSans-2d"/>
     <use x="268.75" xlink:href="#DejaVuSans-31"/>
     <use x="332.373047" xlink:href="#DejaVuSans-65"/>
     <use x="393.896484" xlink:href="#DejaVuSans-37"/>
     <use x="457.519531" xlink:href="#DejaVuSans-44"/>
    </g>
   </g>
   <g id="text_19">
    <!-- RS-3 -->
    <defs>
     <path d="M 40.578125 39.3125 
Q 47.65625 37.796875 51.625 33 
Q 55.609375 28.21875 55.609375 21.1875 
Q 55.609375 10.40625 48.1875 4.484375 
Q 40.765625 -1.421875 27.09375 -1.421875 
Q 22.515625 -1.421875 17.65625 -0.515625 
Q 12.796875 0.390625 7.625 2.203125 
L 7.625 11.71875 
Q 11.71875 9.328125 16.59375 8.109375 
Q 21.484375 6.890625 26.8125 6.890625 
Q 36.078125 6.890625 40.9375 10.546875 
Q 45.796875 14.203125 45.796875 21.1875 
Q 45.796875 27.640625 41.28125 31.265625 
Q 36.765625 34.90625 28.71875 34.90625 
L 20.21875 34.90625 
L 20.21875 43.015625 
L 29.109375 43.015625 
Q 36.375 43.015625 40.234375 45.921875 
Q 44.09375 48.828125 44.09375 54.296875 
Q 44.09375 59.90625 40.109375 62.90625 
Q 36.140625 65.921875 28.71875 65.921875 
Q 24.65625 65.921875 20.015625 65.03125 
Q 15.375 64.15625 9.8125 62.3125 
L 9.8125 71.09375 
Q 15.4375 72.65625 20.34375 73.4375 
Q 25.25 74.21875 29.59375 74.21875 
Q 40.828125 74.21875 47.359375 69.109375 
Q 53.90625 64.015625 53.90625 55.328125 
Q 53.90625 49.265625 50.4375 45.09375 
Q 46.96875 40.921875 40.578125 39.3125 
z
" id="DejaVuSans-33"/>
    </defs>
    <g transform="translate(369.18424 74.219311)scale(0.17 -0.17)">
     <use xlink:href="#DejaVuSans-52"/>
     <use x="69.482422" xlink:href="#DejaVuSans-53"/>
     <use x="132.958984" xlink:href="#DejaVuSans-2d"/>
     <use x="169.042969" xlink:href="#DejaVuSans-33"/>
    </g>
   </g>
   <g id="text_20">
    <!-- best 2009 -->
    <defs>
     <path d="M 48.6875 27.296875 
Q 48.6875 37.203125 44.609375 42.84375 
Q 40.53125 48.484375 33.40625 48.484375 
Q 26.265625 48.484375 22.1875 42.84375 
Q 18.109375 37.203125 18.109375 27.296875 
Q 18.109375 17.390625 22.1875 11.75 
Q 26.265625 6.109375 33.40625 6.109375 
Q 40.53125 6.109375 44.609375 11.75 
Q 48.6875 17.390625 48.6875 27.296875 
z
M 18.109375 46.390625 
Q 20.953125 51.265625 25.265625 53.625 
Q 29.59375 56 35.59375 56 
Q 45.5625 56 51.78125 48.09375 
Q 58.015625 40.1875 58.015625 27.296875 
Q 58.015625 14.40625 51.78125 6.484375 
Q 45.5625 -1.421875 35.59375 -1.421875 
Q 29.59375 -1.421875 25.265625 0.953125 
Q 20.953125 3.328125 18.109375 8.203125 
L 18.109375 0 
L 9.078125 0 
L 9.078125 75.984375 
L 18.109375 75.984375 
z
" id="DejaVuSans-62"/>
     <path d="M 10.984375 1.515625 
L 10.984375 10.5 
Q 14.703125 8.734375 18.5 7.8125 
Q 22.3125 6.890625 25.984375 6.890625 
Q 35.75 6.890625 40.890625 13.453125 
Q 46.046875 20.015625 46.78125 33.40625 
Q 43.953125 29.203125 39.59375 26.953125 
Q 35.25 24.703125 29.984375 24.703125 
Q 19.046875 24.703125 12.671875 31.3125 
Q 6.296875 37.9375 6.296875 49.421875 
Q 6.296875 60.640625 12.9375 67.421875 
Q 19.578125 74.21875 30.609375 74.21875 
Q 43.265625 74.21875 49.921875 64.515625 
Q 56.59375 54.828125 56.59375 36.375 
Q 56.59375 19.140625 48.40625 8.859375 
Q 40.234375 -1.421875 26.421875 -1.421875 
Q 22.703125 -1.421875 18.890625 -0.6875 
Q 15.09375 0.046875 10.984375 1.515625 
z
M 30.609375 32.421875 
Q 37.25 32.421875 41.125 36.953125 
Q 45.015625 41.5 45.015625 49.421875 
Q 45.015625 57.28125 41.125 61.84375 
Q 37.25 66.40625 30.609375 66.40625 
Q 23.96875 66.40625 20.09375 61.84375 
Q 16.21875 57.28125 16.21875 49.421875 
Q 16.21875 41.5 20.09375 36.953125 
Q 23.96875 32.421875 30.609375 32.421875 
z
" id="DejaVuSans-39"/>
    </defs>
    <g transform="translate(369.18424 37.551928)scale(0.17 -0.17)">
     <use xlink:href="#DejaVuSans-62"/>
     <use x="63.476562" xlink:href="#DejaVuSans-65"/>
     <use x="125" xlink:href="#DejaVuSans-73"/>
     <use x="177.099609" xlink:href="#DejaVuSans-74"/>
     <use x="216.308594" xlink:href="#DejaVuSans-20"/>
     <use x="248.095703" xlink:href="#DejaVuSans-32"/>
     <use x="311.71875" xlink:href="#DejaVuSans-30"/>
     <use x="375.341797" xlink:href="#DejaVuSans-30"/>
     <use x="438.964844" xlink:href="#DejaVuSans-39"/>
    </g>
   </g>
   <g id="text_21">
    <!-- bbob f18, 5-D -->
    <g transform="translate(58.89048 35.290806)scale(0.102 -0.102)">
     <use xlink:href="#DejaVuSans-62"/>
     <use x="63.476562" xlink:href="#DejaVuSans-62"/>
     <use x="126.953125" xlink:href="#DejaVuSans-6f"/>
     <use x="188.134766" xlink:href="#DejaVuSans-62"/>
     <use x="251.611328" xlink:href="#DejaVuSans-20"/>
     <use x="283.398438" xlink:href="#DejaVuSans-66"/>
     <use x="318.603516" xlink:href="#DejaVuSans-31"/>
     <use x="382.226562" xlink:href="#DejaVuSans-38"/>
     <use x="445.849609" xlink:href="#DejaVuSans-2c"/>
     <use x="477.636719" xlink:href="#DejaVuSans-20"/>
     <use x="509.423828" xlink:href="#DejaVuSans-35"/>
     <use x="573.046875" xlink:href="#DejaVuSans-2d"/>
     <use x="609.130859" xlink:href="#DejaVuSans-44"/>
    </g>
    <!-- 51 targets: 100..1e-08 -->
    <defs>
     <path d="M 11.71875 12.40625 
L 22.015625 12.40625 
L 22.015625 0 
L 11.71875 0 
z
M 11.71875 51.703125 
L 22.015625 51.703125 
L 22.015625 39.3125 
L 11.71875 39.3125 
z
" id="DejaVuSans-3a"/>
    </defs>
    <g transform="translate(58.89048 46.712575)scale(0.102 -0.102)">
     <use xlink:href="#DejaVuSans-35"/>
     <use x="63.623047" xlink:href="#DejaVuSans-31"/>
     <use x="127.246094" xlink:href="#DejaVuSans-20"/>
     <use x="159.033203" xlink:href="#DejaVuSans-74"/>
     <use x="198.242188" xlink:href="#DejaVuSans-61"/>
     <use x="259.521484" xlink:href="#DejaVuSans-72"/>
     <use x="300.619141" xlink:href="#DejaVuSans-67"/>
     <use x="364.095703" xlink:href="#DejaVuSans-65"/>
     <use x="425.619141" xlink:href="#DejaVuSans-74"/>
     <use x="464.828125" xlink:href="#DejaVuSans-73"/>
     <use x="516.927734" xlink:href="#DejaVuSans-3a"/>
     <use x="550.619141" xlink:href="#DejaVuSans-20"/>
     <use x="582.40625" xlink:href="#DejaVuSans-31"/>
     <use x="646.029297" xlink:href="#DejaVuSans-30"/>
     <use x="709.652344" xlink:href="#DejaVuSans-30"/>
     <use x="773.275391" xlink:href="#DejaVuSans-2e"/>
     <use x="805.0625" xlink:href="#DejaVuSans-2e"/>
     <use x="836.849609" xlink:href="#DejaVuSans-31"/>
     <use x="900.472656" xlink:href="#DejaVuSans-65"/>
     <use x="961.996094" xlink:href="#DejaVuSans-2d"/>
     <use x="998.080078" xlink:href="#DejaVuSans-30"/>
     <use x="1061.703125" xlink:href="#DejaVuSans-38"/>
    </g>
    <!-- 15 instances -->
    <g transform="translate(58.89048 58.134344)scale(0.102 -0.102)">
     <use xlink:href="#DejaVuSans-31"/>
     <use x="63.623047" xlink:href="#DejaVuSans-35"/>
     <use x="127.246094" xlink:href="#DejaVuSans-20"/>
     <use x="159.033203" xlink:href="#DejaVuSans-69"/>
     <use x="186.816406" xlink:href="#DejaVuSans-6e"/>
     <use x="250.195312" xlink:href="#DejaVuSans-73"/>
     <use x="302.294922" xlink:href="#DejaVuSans-74"/>
     <use x="341.503906" xlink:href="#DejaVuSans-61"/>
     <use x="402.783203" xlink:href="#DejaVuSans-6e"/>
     <use x="466.162109" xlink:href="#DejaVuSans-63"/>
     <use x="521.142578" xlink:href="#DejaVuSans-65"/>
     <use x="582.666016" xlink:href="#DejaVuSans-73"/>
    </g>
   </g>
   <g id="text_22">
    <!-- v2.2.1.1114 -->
    <g style="fill:#808080;" transform="translate(164.648687 290.099912)scale(0.1 -0.1)">
     <use xlink:href="#DejaVuSans-76"/>
     <use x="59.179688" xlink:href="#DejaVuSans-32"/>
     <use x="122.802734" xlink:href="#DejaVuSans-2e"/>
     <use x="154.589844" xlink:href="#DejaVuSans-32"/>
     <use x="218.212891" xlink:href="#DejaVuSans-2e"/>
     <use x="250" xlink:href="#DejaVuSans-31"/>
     <use x="313.623047" xlink:href="#DejaVuSans-2e"/>
     <use x="345.410156" xlink:href="#DejaVuSans-31"/>
     <use x="409.033203" xlink:href="#DejaVuSans-31"/>
     <use x="472.65625" xlink:href="#DejaVuSans-31"/>
     <use x="536.279297" xlink:href="#DejaVuSans-34"/>
    </g>
   </g>
   <g id="text_23">
    <!-- 18 Schaffer F7, condition 1000 -->
    <defs>
     <path d="M 54.890625 33.015625 
L 54.890625 0 
L 45.90625 0 
L 45.90625 32.71875 
Q 45.90625 40.484375 42.875 44.328125 
Q 39.84375 48.1875 33.796875 48.1875 
Q 26.515625 48.1875 22.3125 43.546875 
Q 18.109375 38.921875 18.109375 30.90625 
L 18.109375 0 
L 9.078125 0 
L 9.078125 75.984375 
L 18.109375 75.984375 
L 18.109375 46.1875 
Q 21.34375 51.125 25.703125 53.5625 
Q 30.078125 56 35.796875 56 
Q 45.21875 56 50.046875 50.171875 
Q 54.890625 44.34375 54.890625 33.015625 
z
" id="DejaVuSans-68"/>
    </defs>
    <g transform="translate(40.611187 18.84)scale(0.2 -0.2)">
     <use xlink:href="#DejaVuSans-31"/>
     <use x="63.623047" xlink:href="#DejaVuSans-38"/>
     <use x="127.246094" xlink:href="#DejaVuSans-20"/>
     <use x="159.033203" xlink:href="#DejaVuSans-53"/>
     <use x="222.509766" xlink:href="#DejaVuSans-63"/>
     <use x="277.490234" xlink:href="#DejaVuSans-68"/>
     <use x="340.869141" xlink:href="#DejaVuSans-61"/>
     <use x="402.148438" xlink:href="#DejaVuSans-66"/>
     <use x="437.353516" xlink:href="#DejaVuSans-66"/>
     <use x="472.558594" xlink:href="#DejaVuSans-65"/>
     <use x="534.082031" xlink:href="#DejaVuSans-72"/>
     <use x="575.195312" xlink:href="#DejaVuSans-20"/>
     <use x="606.982422" xlink:href="#DejaVuSans-46"/>
     <use x="664.501953" xlink:href="#DejaVuSans-37"/>
     <use x="728.125" xlink:href="#DejaVuSans-2c"/>
     <use x="759.912109" xlink:href="#DejaVuSans-20"/>
     <use x="791.699219" xlink:href="#DejaVuSans-63"/>
     <use x="846.679688" xlink:href="#DejaVuSans-6f"/>
     <use x="907.861328" xlink:href="#DejaVuSans-6e"/>
     <use x="971.240234" xlink:href="#DejaVuSans-64"/>
     <use x="1034.716797" xlink:href="#DejaVuSans-69"/>
     <use x="1062.5" xlink:href="#DejaVuSans-74"/>
     <use x="1101.708984" xlink:href="#DejaVuSans-69"/>
     <use x="1129.492188" xlink:href="#DejaVuSans-6f"/>
     <use x="1190.673828" xlink:href="#DejaVuSans-6e"/>
     <use x="1254.052734" xlink:href="#DejaVuSans-20"/>
     <use x="1285.839844" xlink:href="#DejaVuSans-31"/>
     <use x="1349.462891" xlink:href="#DejaVuSans-30"/>
     <use x="1413.085938" xlink:href="#DejaVuSans-30"/>
     <use x="1476.708984" xlink:href="#DejaVuSans-30"/>
    </g>
   </g>
  </g>
 </g>
 <defs>
  <clipPath id="p0e776b4716">
   <rect height="270.04" width="277.048" x="56.12" y="24.84"/>
  </clipPath>
 </defs>
</svg>
