<?xml version="1.0" encoding="utf-8" standalone="no"?>
<!DOCTYPE svg PUBLIC "-//W3C//DTD SVG 1.1//EN"
  "http://www.w3.org/Graphics/SVG/1.1/DTD/svg11.dtd">
<!-- Created with matplotlib (https://matplotlib.org/) -->
<svg height="345.6pt" version="1.1" viewBox="0 0 460.8 345.6" width="460.8pt" xmlns="http://www.w3.org/2000/svg" xmlns:xlink="http://www.w3.org/1999/xlink">
 <defs>
  <style type="text/css">
*{stroke-linecap:butt;stroke-linejoin:round;}
  </style>
 </defs>
 <g id="figure_1">
  <g id="patch_1">
   <path d="M 0 345.6 
L 460.8 345.6 
L 460.8 0 
L 0 0 
z
" style="fill:#ffffff;"/>
  </g>
  <g id="axes_1">
   <g id="patch_2">
    <path d="M 57.6 298.944 
L 338.688 298.944 
L 338.688 3.456 
L 57.6 3.456 
z
" style="fill:#ffffff;"/>
   </g>
   <g id="line2d_1">
    <path d="M 45.512012 298.944 
L 45.512012 297.262607 
L 57.6 297.262607 
L 57.6 293.899821 
L 64.67102 293.899821 
L 64.67102 292.218428 
L 69.687988 292.218428 
L 69.687988 288.855642 
L 73.579452 288.855642 
L 73.579452 283.811463 
L 76.759008 283.811463 
L 76.759008 280.448677 
L 81.775977 280.448677 
L 81.775977 277.085891 
L 85.66744 277.085891 
L 85.66744 275.404498 
L 87.329581 275.404498 
L 87.329581 273.723105 
L 88.846997 273.723105 
L 88.846997 270.36032 
L 96.86091 270.36032 
L 96.86091 268.678927 
L 97.755429 268.678927 
L 97.755429 263.634748 
L 98.606294 263.634748 
L 98.606294 258.590569 
L 102.330873 258.590569 
L 102.330873 253.54639 
L 104.826449 253.54639 
L 104.826449 250.183604 
L 105.951954 250.183604 
L 105.951954 246.820818 
L 108.948899 246.820818 
L 108.948899 243.458032 
L 111.505558 243.458032 
L 111.505558 241.776639 
L 111.897469 241.776639 
L 111.897469 240.095246 
L 114.418861 240.095246 
L 114.418861 238.413853 
L 116.323218 238.413853 
L 116.323218 235.051067 
L 119.351785 235.051067 
L 119.351785 231.688281 
L 120.8059 231.688281 
L 120.8059 228.325495 
L 121.036887 228.325495 
L 121.036887 223.281316 
L 124.743806 223.281316 
L 124.743806 218.237138 
L 126.338353 218.237138 
L 126.338353 213.192959 
L 126.673734 213.192959 
L 126.673734 209.830173 
L 130.127931 209.830173 
L 130.127931 206.467387 
L 134.236034 206.467387 
L 134.236034 203.104601 
L 137.910857 203.104601 
L 137.910857 196.379029 
L 139.887228 196.379029 
L 139.887228 193.016243 
L 142.07914 193.016243 
L 142.07914 189.653457 
L 143.208936 189.653457 
L 143.208936 186.290671 
L 147.010073 186.290671 
L 147.010073 184.609278 
L 147.317833 184.609278 
L 147.317833 181.246492 
L 147.86833 181.246492 
L 147.86833 179.565099 
L 151.381313 179.565099 
L 151.381313 174.52092 
L 152.511852 174.52092 
L 152.511852 169.476742 
L 153.609024 169.476742 
L 153.609024 167.795349 
L 156.236431 167.795349 
L 156.236431 166.113956 
L 158.599388 166.113956 
L 158.599388 164.432563 
L 161.64531 164.432563 
L 161.689969 154.344205 
L 166.628709 154.344205 
L 166.628709 149.300026 
L 167.592812 149.300026 
L 167.592812 147.618633 
L 172.696997 147.618633 
L 172.696997 144.255847 
L 173.811376 144.255847 
L 173.811376 139.211668 
L 175.385274 139.211668 
L 175.385274 135.848882 
L 179.008261 135.848882 
L 179.008261 134.167489 
L 183.052709 134.167489 
L 183.052709 130.804703 
L 184.0087 130.804703 
L 184.0087 129.12331 
L 187.969484 129.12331 
L 187.969484 127.441917 
L 188.161154 127.441917 
L 188.161154 122.397738 
L 193.597057 122.397738 
L 193.597057 117.35356 
L 197.052959 117.35356 
L 197.052959 112.309381 
L 197.624695 112.309381 
L 197.624695 110.627988 
L 199.63988 110.627988 
L 199.63988 108.946595 
L 205.16378 108.946595 
L 205.16378 103.902416 
L 206.262301 103.902416 
L 206.262301 98.858237 
L 206.924697 98.858237 
L 206.924697 97.176844 
L 212.343239 97.176844 
L 212.343239 93.814058 
L 213.209396 93.814058 
L 213.209396 90.451272 
L 214.645649 90.451272 
L 214.645649 85.407093 
L 220.316023 85.407093 
L 220.316023 82.044307 
L 220.855846 82.044307 
L 220.855846 78.681521 
L 222.094333 78.681521 
L 222.094333 75.318735 
L 227.646985 75.318735 
L 227.646985 73.637342 
L 229.765027 73.637342 
L 229.765027 71.955949 
L 230.163034 71.955949 
L 230.163034 68.593164 
L 235.013456 68.593164 
L 235.013456 65.230378 
L 237.922713 65.230378 
L 238.004232 60.186199 
L 242.390714 60.186199 
L 242.390714 55.14202 
L 245.548158 55.14202 
L 245.548158 51.779234 
L 245.883545 51.779234 
L 245.883545 46.735055 
L 253.49648 46.735055 
L 253.49648 41.690876 
L 338.688 41.690876 
L 338.688 41.690876 
" style="fill:none;stroke:#f5deb3;stroke-linecap:square;stroke-width:4;"/>
   </g>
   <g id="line2d_2">
    <defs>
     <path d="M 0 7.778175 
L 7.778175 0 
L 0 -7.778175 
L -7.778175 0 
z
" id="mda034640d8" style="stroke:#f5deb3;stroke-linejoin:miter;stroke-width:1.5;"/>
    </defs>
    <g>
     <use style="fill:#f5deb3;stroke:#f5deb3;stroke-linejoin:miter;stroke-width:1.5;" x="97.755429" xlink:href="#mda034640d8" y="268.678927"/>
     <use style="fill:#f5deb3;stroke:#f5deb3;stroke-linejoin:miter;stroke-width:1.5;" x="151.381313" xlink:href="#mda034640d8" y="174.52092"/>
     <use style="fill:#f5deb3;stroke:#f5deb3;stroke-linejoin:miter;stroke-width:1.5;" x="205.16378" xlink:href="#mda034640d8" y="108.946595"/>
     <use style="fill:#f5deb3;stroke:#f5deb3;stroke-linejoin:miter;stroke-width:1.5;" x="253.49648" xlink:href="#mda034640d8" y="46.735055"/>
     <use style="fill:#f5deb3;stroke:#f5deb3;stroke-linejoin:miter;stroke-width:1.5;" x="253.49648" xlink:href="#mda034640d8" y="41.690876"/>
     <use style="fill:#f5deb3;stroke:#f5deb3;stroke-linejoin:miter;stroke-width:1.5;" x="338.688" xlink:href="#mda034640d8" y="41.690876"/>
    </g>
   </g>
   <g id="line2d_3">
    <path style="fill:none;stroke:#f5deb3;stroke-linecap:square;stroke-width:4;"/>
    <g/>
   </g>
   <g id="line2d_4">
    <path d="M 338.688 41.690876 
L 369.60768 12.232871 
" style="fill:none;stroke:#f5deb3;stroke-linecap:square;stroke-width:4;"/>
    <g>
     <use style="fill:#f5deb3;stroke:#f5deb3;stroke-linejoin:miter;stroke-width:1.5;" x="338.688" xlink:href="#mda034640d8" y="41.690876"/>
     <use style="fill:#f5deb3;stroke:#f5deb3;stroke-linejoin:miter;stroke-width:1.5;" x="369.60768" xlink:href="#mda034640d8" y="12.232871"/>
    </g>
   </g>
   <g id="matplotlib.axis_1">
    <g id="xtick_1">
     <g id="line2d_5">
      <path clip-path="url(#p23396e3b80)" d="M 57.6 298.944 
L 57.6 3.456 
" style="fill:none;stroke:#b0b0b0;stroke-linecap:square;stroke-width:0.8;"/>
     </g>
     <g id="line2d_6">
      <defs>
       <path d="M 0 0 
L 0 3.5 
" id="m149448493c" style="stroke:#000000;stroke-width:0.8;"/>
      </defs>
      <g>
       <use style="stroke:#000000;stroke-width:0.8;" x="57.6" xlink:href="#m149448493c" y="298.944"/>
      </g>
     </g>
     <g id="text_1">
      <!-- 0 -->
      <defs>
       <path d="M 31.78125 66.40625 
Q 24.171875 66.40625 20.328125 58.90625 
Q 16.5 51.421875 16.5 36.375 
Q 16.5 21.390625 20.328125 13.890625 
Q 24.171875 6.390625 31.78125 6.390625 
Q 39.453125 6.390625 43.28125 13.890625 
Q 47.125 21.390625 47.125 36.375 
Q 47.125 51.421875 43.28125 58.90625 
Q 39.453125 66.40625 31.78125 66.40625 
z
M 31.78125 74.21875 
Q 44.046875 74.21875 50.515625 64.515625 
Q 56.984375 54.828125 56.984375 36.375 
Q 56.984375 17.96875 50.515625 8.265625 
Q 44.046875 -1.421875 31.78125 -1.421875 
Q 19.53125 -1.421875 13.0625 8.265625 
Q 6.59375 17.96875 6.59375 36.375 
Q 6.59375 54.828125 13.0625 64.515625 
Q 19.53125 74.21875 31.78125 74.21875 
z
" id="DejaVuSans-48"/>
      </defs>
      <g transform="translate(51.2375 321.140875)scale(0.2 -0.2)">
       <use xlink:href="#DejaVuSans-48"/>
      </g>
     </g>
    </g>
    <g id="xtick_2">
     <g id="line2d_7">
      <path clip-path="url(#p23396e3b80)" d="M 137.910857 298.944 
L 137.910857 3.456 
" style="fill:none;stroke:#b0b0b0;stroke-linecap:square;stroke-width:0.8;"/>
     </g>
     <g id="line2d_8">
      <g>
       <use style="stroke:#000000;stroke-width:0.8;" x="137.910857" xlink:href="#m149448493c" y="298.944"/>
      </g>
     </g>
     <g id="text_2">
      <!-- 2 -->
      <defs>
       <path d="M 19.1875 8.296875 
L 53.609375 8.296875 
L 53.609375 0 
L 7.328125 0 
L 7.328125 8.296875 
Q 12.9375 14.109375 22.625 23.890625 
Q 32.328125 33.6875 34.8125 36.53125 
Q 39.546875 41.84375 41.421875 45.53125 
Q 43.3125 49.21875 43.3125 52.78125 
Q 43.3125 58.59375 39.234375 62.25 
Q 35.15625 65.921875 28.609375 65.921875 
Q 23.96875 65.921875 18.8125 64.3125 
Q 13.671875 62.703125 7.8125 59.421875 
L 7.8125 69.390625 
Q 13.765625 71.78125 18.9375 73 
Q 24.125 74.21875 28.421875 74.21875 
Q 39.75 74.21875 46.484375 68.546875 
Q 53.21875 62.890625 53.21875 53.421875 
Q 53.21875 48.921875 51.53125 44.890625 
Q 49.859375 40.875 45.40625 35.40625 
Q 44.1875 33.984375 37.640625 27.21875 
Q 31.109375 20.453125 19.1875 8.296875 
z
" id="DejaVuSans-50"/>
      </defs>
      <g transform="translate(131.548357 321.140875)scale(0.2 -0.2)">
       <use xlink:href="#DejaVuSans-50"/>
      </g>
     </g>
    </g>
    <g id="xtick_3">
     <g id="line2d_9">
      <path clip-path="url(#p23396e3b80)" d="M 218.221714 298.944 
L 218.221714 3.456 
" style="fill:none;stroke:#b0b0b0;stroke-linecap:square;stroke-width:0.8;"/>
     </g>
     <g id="line2d_10">
      <g>
       <use style="stroke:#000000;stroke-width:0.8;" x="218.221714" xlink:href="#m149448493c" y="298.944"/>
      </g>
     </g>
     <g id="text_3">
      <!-- 4 -->
      <defs>
       <path d="M 37.796875 64.3125 
L 12.890625 25.390625 
L 37.796875 25.390625 
z
M 35.203125 72.90625 
L 47.609375 72.90625 
L 47.609375 25.390625 
L 58.015625 25.390625 
L 58.015625 17.1875 
L 47.609375 17.1875 
L 47.609375 0 
L 37.796875 0 
L 37.796875 17.1875 
L 4.890625 17.1875 
L 4.890625 26.703125 
z
" id="DejaVuSans-52"/>
      </defs>
      <g transform="translate(211.859214 321.140875)scale(0.2 -0.2)">
       <use xlink:href="#DejaVuSans-52"/>
      </g>
     </g>
    </g>
    <g id="xtick_4">
     <g id="line2d_11">
      <path clip-path="url(#p23396e3b80)" d="M 298.532571 298.944 
L 298.532571 3.456 
" style="fill:none;stroke:#b0b0b0;stroke-linecap:square;stroke-width:0.8;"/>
     </g>
     <g id="line2d_12">
      <g>
       <use style="stroke:#000000;stroke-width:0.8;" x="298.532571" xlink:href="#m149448493c" y="298.944"/>
      </g>
     </g>
     <g id="text_4">
      <!-- 6 -->
      <defs>
       <path d="M 33.015625 40.375 
Q 26.375 40.375 22.484375 35.828125 
Q 18.609375 31.296875 18.609375 23.390625 
Q 18.609375 15.53125 22.484375 10.953125 
Q 26.375 6.390625 33.015625 6.390625 
Q 39.65625 6.390625 43.53125 10.953125 
Q 47.40625 15.53125 47.40625 23.390625 
Q 47.40625 31.296875 43.53125 35.828125 
Q 39.65625 40.375 33.015625 40.375 
z
M 52.59375 71.296875 
L 52.59375 62.3125 
Q 48.875 64.0625 45.09375 64.984375 
Q 41.3125 65.921875 37.59375 65.921875 
Q 27.828125 65.921875 22.671875 59.328125 
Q 17.53125 52.734375 16.796875 39.40625 
Q 19.671875 43.65625 24.015625 45.921875 
Q 28.375 48.1875 33.59375 48.1875 
Q 44.578125 48.1875 50.953125 41.515625 
Q 57.328125 34.859375 57.328125 23.390625 
Q 57.328125 12.15625 50.6875 5.359375 
Q 44.046875 -1.421875 33.015625 -1.421875 
Q 20.359375 -1.421875 13.671875 8.265625 
Q 6.984375 17.96875 6.984375 36.375 
Q 6.984375 53.65625 15.1875 63.9375 
Q 23.390625 74.21875 37.203125 74.21875 
Q 40.921875 74.21875 44.703125 73.484375 
Q 48.484375 72.75 52.59375 71.296875 
z
" id="DejaVuSans-54"/>
      </defs>
      <g transform="translate(292.170071 321.140875)scale(0.2 -0.2)">
       <use xlink:href="#DejaVuSans-54"/>
      </g>
     </g>
    </g>
    <g id="xtick_5">
     <g id="line2d_13">
      <path clip-path="url(#p23396e3b80)" d="M 97.755429 298.944 
L 97.755429 3.456 
" style="fill:none;stroke:#b0b0b0;stroke-linecap:square;stroke-width:0.8;"/>
     </g>
     <g id="line2d_14">
      <defs>
       <path d="M 0 0 
L 0 2 
" id="m6851335b00" style="stroke:#000000;stroke-width:0.6;"/>
      </defs>
      <g>
       <use style="stroke:#000000;stroke-width:0.6;" x="97.755429" xlink:href="#m6851335b00" y="298.944"/>
      </g>
     </g>
    </g>
    <g id="xtick_6">
     <g id="line2d_15">
      <path clip-path="url(#p23396e3b80)" d="M 178.066286 298.944 
L 178.066286 3.456 
" style="fill:none;stroke:#b0b0b0;stroke-linecap:square;stroke-width:0.8;"/>
     </g>
     <g id="line2d_16">
      <g>
       <use style="stroke:#000000;stroke-width:0.6;" x="178.066286" xlink:href="#m6851335b00" y="298.944"/>
      </g>
     </g>
    </g>
    <g id="xtick_7">
     <g id="line2d_17">
      <path clip-path="url(#p23396e3b80)" d="M 258.377143 298.944 
L 258.377143 3.456 
" style="fill:none;stroke:#b0b0b0;stroke-linecap:square;stroke-width:0.8;"/>
     </g>
     <g id="line2d_18">
      <g>
       <use style="stroke:#000000;stroke-width:0.6;" x="258.377143" xlink:href="#m6851335b00" y="298.944"/>
      </g>
     </g>
    </g>
    <g id="xtick_8">
     <g id="line2d_19">
      <path clip-path="url(#p23396e3b80)" d="M 338.688 298.944 
L 338.688 3.456 
" style="fill:none;stroke:#b0b0b0;stroke-linecap:square;stroke-width:0.8;"/>
     </g>
     <g id="line2d_20">
      <g>
       <use style="stroke:#000000;stroke-width:0.6;" x="338.688" xlink:href="#m6851335b00" y="298.944"/>
      </g>
     </g>
    </g>
    <g id="text_5">
     <!-- log10(# f-evals / dimension) -->
     <defs>
      <path d="M 9.421875 75.984375 
L 18.40625 75.984375 
L 18.40625 0 
L 9.421875 0 
z
" id="DejaVuSans-108"/>
      <path d="M 30.609375 48.390625 
Q 23.390625 48.390625 19.1875 42.75 
Q 14.984375 37.109375 14.984375 27.296875 
Q 14.984375 17.484375 19.15625 11.84375 
Q 23.34375 6.203125 30.609375 6.203125 
Q 37.796875 6.203125 41.984375 11.859375 
Q 46.1875 17.53125 46.1875 27.296875 
Q 46.1875 37.015625 41.984375 42.703125 
Q 37.796875 48.390625 30.609375 48.390625 
z
M 30.609375 56 
Q 42.328125 56 49.015625 48.375 
Q 55.71875 40.765625 55.71875 27.296875 
Q 55.71875 13.875 49.015625 6.21875 
Q 42.328125 -1.421875 30.609375 -1.421875 
Q 18.84375 -1.421875 12.171875 6.21875 
Q 5.515625 13.875 5.515625 27.296875 
Q 5.515625 40.765625 12.171875 48.375 
Q 18.84375 56 30.609375 56 
z
" id="DejaVuSans-111"/>
      <path d="M 45.40625 27.984375 
Q 45.40625 37.75 41.375 43.109375 
Q 37.359375 48.484375 30.078125 48.484375 
Q 22.859375 48.484375 18.828125 43.109375 
Q 14.796875 37.75 14.796875 27.984375 
Q 14.796875 18.265625 18.828125 12.890625 
Q 22.859375 7.515625 30.078125 7.515625 
Q 37.359375 7.515625 41.375 12.890625 
Q 45.40625 18.265625 45.40625 27.984375 
z
M 54.390625 6.78125 
Q 54.390625 -7.171875 48.1875 -13.984375 
Q 42 -20.796875 29.203125 -20.796875 
Q 24.46875 -20.796875 20.265625 -20.09375 
Q 16.0625 -19.390625 12.109375 -17.921875 
L 12.109375 -9.1875 
Q 16.0625 -11.328125 19.921875 -12.34375 
Q 23.78125 -13.375 27.78125 -13.375 
Q 36.625 -13.375 41.015625 -8.765625 
Q 45.40625 -4.15625 45.40625 5.171875 
L 45.40625 9.625 
Q 42.625 4.78125 38.28125 2.390625 
Q 33.9375 0 27.875 0 
Q 17.828125 0 11.671875 7.65625 
Q 5.515625 15.328125 5.515625 27.984375 
Q 5.515625 40.671875 11.671875 48.328125 
Q 17.828125 56 27.875 56 
Q 33.9375 56 38.28125 53.609375 
Q 42.625 51.21875 45.40625 46.390625 
L 45.40625 54.6875 
L 54.390625 54.6875 
z
" id="DejaVuSans-103"/>
      <path d="M 12.40625 8.296875 
L 28.515625 8.296875 
L 28.515625 63.921875 
L 10.984375 60.40625 
L 10.984375 69.390625 
L 28.421875 72.90625 
L 38.28125 72.90625 
L 38.28125 8.296875 
L 54.390625 8.296875 
L 54.390625 0 
L 12.40625 0 
z
" id="DejaVuSans-49"/>
      <path d="M 31 75.875 
Q 24.46875 64.65625 21.28125 53.65625 
Q 18.109375 42.671875 18.109375 31.390625 
Q 18.109375 20.125 21.3125 9.0625 
Q 24.515625 -2 31 -13.1875 
L 23.1875 -13.1875 
Q 15.875 -1.703125 12.234375 9.375 
Q 8.59375 20.453125 8.59375 31.390625 
Q 8.59375 42.28125 12.203125 53.3125 
Q 15.828125 64.359375 23.1875 75.875 
z
" id="DejaVuSans-40"/>
      <path d="M 51.125 44 
L 36.921875 44 
L 32.8125 27.6875 
L 47.125 27.6875 
z
M 43.796875 71.78125 
L 38.71875 51.515625 
L 52.984375 51.515625 
L 58.109375 71.78125 
L 65.921875 71.78125 
L 60.890625 51.515625 
L 76.125 51.515625 
L 76.125 44 
L 58.984375 44 
L 54.984375 27.6875 
L 70.515625 27.6875 
L 70.515625 20.21875 
L 53.078125 20.21875 
L 48 0 
L 40.1875 0 
L 45.21875 20.21875 
L 30.90625 20.21875 
L 25.875 0 
L 18.015625 0 
L 23.09375 20.21875 
L 7.71875 20.21875 
L 7.71875 27.6875 
L 24.90625 27.6875 
L 29 44 
L 13.28125 44 
L 13.28125 51.515625 
L 30.90625 51.515625 
L 35.890625 71.78125 
z
" id="DejaVuSans-35"/>
      <path id="DejaVuSans-32"/>
      <path d="M 37.109375 75.984375 
L 37.109375 68.5 
L 28.515625 68.5 
Q 23.6875 68.5 21.796875 66.546875 
Q 19.921875 64.59375 19.921875 59.515625 
L 19.921875 54.6875 
L 34.71875 54.6875 
L 34.71875 47.703125 
L 19.921875 47.703125 
L 19.921875 0 
L 10.890625 0 
L 10.890625 47.703125 
L 2.296875 47.703125 
L 2.296875 54.6875 
L 10.890625 54.6875 
L 10.890625 58.5 
Q 10.890625 67.625 15.140625 71.796875 
Q 19.390625 75.984375 28.609375 75.984375 
z
" id="DejaVuSans-102"/>
      <path d="M 4.890625 31.390625 
L 31.203125 31.390625 
L 31.203125 23.390625 
L 4.890625 23.390625 
z
" id="DejaVuSans-45"/>
      <path d="M 56.203125 29.59375 
L 56.203125 25.203125 
L 14.890625 25.203125 
Q 15.484375 15.921875 20.484375 11.0625 
Q 25.484375 6.203125 34.421875 6.203125 
Q 39.59375 6.203125 44.453125 7.46875 
Q 49.3125 8.734375 54.109375 11.28125 
L 54.109375 2.78125 
Q 49.265625 0.734375 44.1875 -0.34375 
Q 39.109375 -1.421875 33.890625 -1.421875 
Q 20.796875 -1.421875 13.15625 6.1875 
Q 5.515625 13.8125 5.515625 26.8125 
Q 5.515625 40.234375 12.765625 48.109375 
Q 20.015625 56 32.328125 56 
Q 43.359375 56 49.78125 48.890625 
Q 56.203125 41.796875 56.203125 29.59375 
z
M 47.21875 32.234375 
Q 47.125 39.59375 43.09375 43.984375 
Q 39.0625 48.390625 32.421875 48.390625 
Q 24.90625 48.390625 20.390625 44.140625 
Q 15.875 39.890625 15.1875 32.171875 
z
" id="DejaVuSans-101"/>
      <path d="M 2.984375 54.6875 
L 12.5 54.6875 
L 29.59375 8.796875 
L 46.6875 54.6875 
L 56.203125 54.6875 
L 35.6875 0 
L 23.484375 0 
z
" id="DejaVuSans-118"/>
      <path d="M 34.28125 27.484375 
Q 23.390625 27.484375 19.1875 25 
Q 14.984375 22.515625 14.984375 16.5 
Q 14.984375 11.71875 18.140625 8.90625 
Q 21.296875 6.109375 26.703125 6.109375 
Q 34.1875 6.109375 38.703125 11.40625 
Q 43.21875 16.703125 43.21875 25.484375 
L 43.21875 27.484375 
z
M 52.203125 31.203125 
L 52.203125 0 
L 43.21875 0 
L 43.21875 8.296875 
Q 40.140625 3.328125 35.546875 0.953125 
Q 30.953125 -1.421875 24.3125 -1.421875 
Q 15.921875 -1.421875 10.953125 3.296875 
Q 6 8.015625 6 15.921875 
Q 6 25.140625 12.171875 29.828125 
Q 18.359375 34.515625 30.609375 34.515625 
L 43.21875 34.515625 
L 43.21875 35.40625 
Q 43.21875 41.609375 39.140625 45 
Q 35.0625 48.390625 27.6875 48.390625 
Q 23 48.390625 18.546875 47.265625 
Q 14.109375 46.140625 10.015625 43.890625 
L 10.015625 52.203125 
Q 14.9375 54.109375 19.578125 55.046875 
Q 24.21875 56 28.609375 56 
Q 40.484375 56 46.34375 49.84375 
Q 52.203125 43.703125 52.203125 31.203125 
z
" id="DejaVuSans-97"/>
      <path d="M 44.28125 53.078125 
L 44.28125 44.578125 
Q 40.484375 46.53125 36.375 47.5 
Q 32.28125 48.484375 27.875 48.484375 
Q 21.1875 48.484375 17.84375 46.4375 
Q 14.5 44.390625 14.5 40.28125 
Q 14.5 37.15625 16.890625 35.375 
Q 19.28125 33.59375 26.515625 31.984375 
L 29.59375 31.296875 
Q 39.15625 29.25 43.1875 25.515625 
Q 47.21875 21.78125 47.21875 15.09375 
Q 47.21875 7.46875 41.1875 3.015625 
Q 35.15625 -1.421875 24.609375 -1.421875 
Q 20.21875 -1.421875 15.453125 -0.5625 
Q 10.6875 0.296875 5.421875 2 
L 5.421875 11.28125 
Q 10.40625 8.6875 15.234375 7.390625 
Q 20.0625 6.109375 24.8125 6.109375 
Q 31.15625 6.109375 34.5625 8.28125 
Q 37.984375 10.453125 37.984375 14.40625 
Q 37.984375 18.0625 35.515625 20.015625 
Q 33.0625 21.96875 24.703125 23.78125 
L 21.578125 24.515625 
Q 13.234375 26.265625 9.515625 29.90625 
Q 5.8125 33.546875 5.8125 39.890625 
Q 5.8125 47.609375 11.28125 51.796875 
Q 16.75 56 26.8125 56 
Q 31.78125 56 36.171875 55.265625 
Q 40.578125 54.546875 44.28125 53.078125 
z
" id="DejaVuSans-115"/>
      <path d="M 25.390625 72.90625 
L 33.6875 72.90625 
L 8.296875 -9.28125 
L 0 -9.28125 
z
" id="DejaVuSans-47"/>
      <path d="M 45.40625 46.390625 
L 45.40625 75.984375 
L 54.390625 75.984375 
L 54.390625 0 
L 45.40625 0 
L 45.40625 8.203125 
Q 42.578125 3.328125 38.25 0.953125 
Q 33.9375 -1.421875 27.875 -1.421875 
Q 17.96875 -1.421875 11.734375 6.484375 
Q 5.515625 14.40625 5.515625 27.296875 
Q 5.515625 40.1875 11.734375 48.09375 
Q 17.96875 56 27.875 56 
Q 33.9375 56 38.25 53.625 
Q 42.578125 51.265625 45.40625 46.390625 
z
M 14.796875 27.296875 
Q 14.796875 17.390625 18.875 11.75 
Q 22.953125 6.109375 30.078125 6.109375 
Q 37.203125 6.109375 41.296875 11.75 
Q 45.40625 17.390625 45.40625 27.296875 
Q 45.40625 37.203125 41.296875 42.84375 
Q 37.203125 48.484375 30.078125 48.484375 
Q 22.953125 48.484375 18.875 42.84375 
Q 14.796875 37.203125 14.796875 27.296875 
z
" id="DejaVuSans-100"/>
      <path d="M 9.421875 54.6875 
L 18.40625 54.6875 
L 18.40625 0 
L 9.421875 0 
z
M 9.421875 75.984375 
L 18.40625 75.984375 
L 18.40625 64.59375 
L 9.421875 64.59375 
z
" id="DejaVuSans-105"/>
      <path d="M 52 44.1875 
Q 55.375 50.25 60.0625 53.125 
Q 64.75 56 71.09375 56 
Q 79.640625 56 84.28125 50.015625 
Q 88.921875 44.046875 88.921875 33.015625 
L 88.921875 0 
L 79.890625 0 
L 79.890625 32.71875 
Q 79.890625 40.578125 77.09375 44.375 
Q 74.3125 48.1875 68.609375 48.1875 
Q 61.625 48.1875 57.5625 43.546875 
Q 53.515625 38.921875 53.515625 30.90625 
L 53.515625 0 
L 44.484375 0 
L 44.484375 32.71875 
Q 44.484375 40.625 41.703125 44.40625 
Q 38.921875 48.1875 33.109375 48.1875 
Q 26.21875 48.1875 22.15625 43.53125 
Q 18.109375 38.875 18.109375 30.90625 
L 18.109375 0 
L 9.078125 0 
L 9.078125 54.6875 
L 18.109375 54.6875 
L 18.109375 46.1875 
Q 21.1875 51.21875 25.484375 53.609375 
Q 29.78125 56 35.6875 56 
Q 41.65625 56 45.828125 52.96875 
Q 50 49.953125 52 44.1875 
z
" id="DejaVuSans-109"/>
      <path d="M 54.890625 33.015625 
L 54.890625 0 
L 45.90625 0 
L 45.90625 32.71875 
Q 45.90625 40.484375 42.875 44.328125 
Q 39.84375 48.1875 33.796875 48.1875 
Q 26.515625 48.1875 22.3125 43.546875 
Q 18.109375 38.921875 18.109375 30.90625 
L 18.109375 0 
L 9.078125 0 
L 9.078125 54.6875 
L 18.109375 54.6875 
L 18.109375 46.1875 
Q 21.34375 51.125 25.703125 53.5625 
Q 30.078125 56 35.796875 56 
Q 45.21875 56 50.046875 50.171875 
Q 54.890625 44.34375 54.890625 33.015625 
z
" id="DejaVuSans-110"/>
      <path d="M 8.015625 75.875 
L 15.828125 75.875 
Q 23.140625 64.359375 26.78125 53.3125 
Q 30.421875 42.28125 30.421875 31.390625 
Q 30.421875 20.453125 26.78125 9.375 
Q 23.140625 -1.703125 15.828125 -13.1875 
L 8.015625 -13.1875 
Q 14.5 -2 17.703125 9.0625 
Q 20.90625 20.125 20.90625 31.390625 
Q 20.90625 42.671875 17.703125 53.65625 
Q 14.5 64.65625 8.015625 75.875 
z
" id="DejaVuSans-41"/>
     </defs>
     <g transform="translate(77.303219 342.217594)scale(0.17 -0.17)">
      <use xlink:href="#DejaVuSans-108"/>
      <use x="27.783203" xlink:href="#DejaVuSans-111"/>
      <use x="88.964844" xlink:href="#DejaVuSans-103"/>
      <use x="152.441406" xlink:href="#DejaVuSans-49"/>
      <use x="216.064453" xlink:href="#DejaVuSans-48"/>
      <use x="279.6875" xlink:href="#DejaVuSans-40"/>
      <use x="318.701172" xlink:href="#DejaVuSans-35"/>
      <use x="402.490234" xlink:href="#DejaVuSans-32"/>
      <use x="434.277344" xlink:href="#DejaVuSans-102"/>
      <use x="469.404297" xlink:href="#DejaVuSans-45"/>
      <use x="505.488281" xlink:href="#DejaVuSans-101"/>
      <use x="567.011719" xlink:href="#DejaVuSans-118"/>
      <use x="626.191406" xlink:href="#DejaVuSans-97"/>
      <use x="687.470703" xlink:href="#DejaVuSans-108"/>
      <use x="715.253906" xlink:href="#DejaVuSans-115"/>
      <use x="767.353516" xlink:href="#DejaVuSans-32"/>
      <use x="799.140625" xlink:href="#DejaVuSans-47"/>
      <use x="832.832031" xlink:href="#DejaVuSans-32"/>
      <use x="864.619141" xlink:href="#DejaVuSans-100"/>
      <use x="928.095703" xlink:href="#DejaVuSans-105"/>
      <use x="955.878906" xlink:href="#DejaVuSans-109"/>
      <use x="1053.291016" xlink:href="#DejaVuSans-101"/>
      <use x="1114.814453" xlink:href="#DejaVuSans-110"/>
      <use x="1178.193359" xlink:href="#DejaVuSans-115"/>
      <use x="1230.292969" xlink:href="#DejaVuSans-105"/>
      <use x="1258.076172" xlink:href="#DejaVuSans-111"/>
      <use x="1319.257812" xlink:href="#DejaVuSans-110"/>
      <use x="1382.636719" xlink:href="#DejaVuSans-41"/>
     </g>
    </g>
   </g>
   <g id="matplotlib.axis_2">
    <g id="ytick_1">
     <g id="line2d_21">
      <path clip-path="url(#p23396e3b80)" d="M 57.6 298.944 
L 338.688 298.944 
" style="fill:none;stroke:#b0b0b0;stroke-linecap:square;stroke-width:0.8;"/>
     </g>
     <g id="line2d_22">
      <defs>
       <path d="M 0 0 
L -3.5 0 
" id="m73c76a8b4b" style="stroke:#000000;stroke-width:0.8;"/>
      </defs>
      <g>
       <use style="stroke:#000000;stroke-width:0.8;" x="57.6" xlink:href="#m73c76a8b4b" y="298.944"/>
      </g>
     </g>
     <g id="text_6">
      <!-- 0.0 -->
      <defs>
       <path d="M 10.6875 12.40625 
L 21 12.40625 
L 21 0 
L 10.6875 0 
z
" id="DejaVuSans-46"/>
      </defs>
      <g transform="translate(25.155 305.02275)scale(0.16 -0.16)">
       <use xlink:href="#DejaVuSans-48"/>
       <use x="63.623047" xlink:href="#DejaVuSans-46"/>
       <use x="95.410156" xlink:href="#DejaVuSans-48"/>
      </g>
     </g>
    </g>
    <g id="ytick_2">
     <g id="line2d_23">
      <path clip-path="url(#p23396e3b80)" d="M 57.6 240.431525 
L 338.688 240.431525 
" style="fill:none;stroke:#b0b0b0;stroke-linecap:square;stroke-width:0.8;"/>
     </g>
     <g id="line2d_24">
      <g>
       <use style="stroke:#000000;stroke-width:0.8;" x="57.6" xlink:href="#m73c76a8b4b" y="240.431525"/>
      </g>
     </g>
     <g id="text_7">
      <!-- 0.2 -->
      <g transform="translate(25.155 246.510275)scale(0.16 -0.16)">
       <use xlink:href="#DejaVuSans-48"/>
       <use x="63.623047" xlink:href="#DejaVuSans-46"/>
       <use x="95.410156" xlink:href="#DejaVuSans-50"/>
      </g>
     </g>
    </g>
    <g id="ytick_3">
     <g id="line2d_25">
      <path clip-path="url(#p23396e3b80)" d="M 57.6 181.91905 
L 338.688 181.91905 
" style="fill:none;stroke:#b0b0b0;stroke-linecap:square;stroke-width:0.8;"/>
     </g>
     <g id="line2d_26">
      <g>
       <use style="stroke:#000000;stroke-width:0.8;" x="57.6" xlink:href="#m73c76a8b4b" y="181.91905"/>
      </g>
     </g>
     <g id="text_8">
      <!-- 0.4 -->
      <g transform="translate(25.155 187.9978)scale(0.16 -0.16)">
       <use xlink:href="#DejaVuSans-48"/>
       <use x="63.623047" xlink:href="#DejaVuSans-46"/>
       <use x="95.410156" xlink:href="#DejaVuSans-52"/>
      </g>
     </g>
    </g>
    <g id="ytick_4">
     <g id="line2d_27">
      <path clip-path="url(#p23396e3b80)" d="M 57.6 123.406574 
L 338.688 123.406574 
" style="fill:none;stroke:#b0b0b0;stroke-linecap:square;stroke-width:0.8;"/>
     </g>
     <g id="line2d_28">
      <g>
       <use style="stroke:#000000;stroke-width:0.8;" x="57.6" xlink:href="#m73c76a8b4b" y="123.406574"/>
      </g>
     </g>
     <g id="text_9">
      <!-- 0.6 -->
      <g transform="translate(25.155 129.485324)scale(0.16 -0.16)">
       <use xlink:href="#DejaVuSans-48"/>
       <use x="63.623047" xlink:href="#DejaVuSans-46"/>
       <use x="95.410156" xlink:href="#DejaVuSans-54"/>
      </g>
     </g>
    </g>
    <g id="ytick_5">
     <g id="line2d_29">
      <path clip-path="url(#p23396e3b80)" d="M 57.6 64.894099 
L 338.688 64.894099 
" style="fill:none;stroke:#b0b0b0;stroke-linecap:square;stroke-width:0.8;"/>
     </g>
     <g id="line2d_30">
      <g>
       <use style="stroke:#000000;stroke-width:0.8;" x="57.6" xlink:href="#m73c76a8b4b" y="64.894099"/>
      </g>
     </g>
     <g id="text_10">
      <!-- 0.8 -->
      <defs>
       <path d="M 31.78125 34.625 
Q 24.75 34.625 20.71875 30.859375 
Q 16.703125 27.09375 16.703125 20.515625 
Q 16.703125 13.921875 20.71875 10.15625 
Q 24.75 6.390625 31.78125 6.390625 
Q 38.8125 6.390625 42.859375 10.171875 
Q 46.921875 13.96875 46.921875 20.515625 
Q 46.921875 27.09375 42.890625 30.859375 
Q 38.875 34.625 31.78125 34.625 
z
M 21.921875 38.8125 
Q 15.578125 40.375 12.03125 44.71875 
Q 8.5 49.078125 8.5 55.328125 
Q 8.5 64.0625 14.71875 69.140625 
Q 20.953125 74.21875 31.78125 74.21875 
Q 42.671875 74.21875 48.875 69.140625 
Q 55.078125 64.0625 55.078125 55.328125 
Q 55.078125 49.078125 51.53125 44.71875 
Q 48 40.375 41.703125 38.8125 
Q 48.828125 37.15625 52.796875 32.3125 
Q 56.78125 27.484375 56.78125 20.515625 
Q 56.78125 9.90625 50.3125 4.234375 
Q 43.84375 -1.421875 31.78125 -1.421875 
Q 19.734375 -1.421875 13.25 4.234375 
Q 6.78125 9.90625 6.78125 20.515625 
Q 6.78125 27.484375 10.78125 32.3125 
Q 14.796875 37.15625 21.921875 38.8125 
z
M 18.3125 54.390625 
Q 18.3125 48.734375 21.84375 45.5625 
Q 25.390625 42.390625 31.78125 42.390625 
Q 38.140625 42.390625 41.71875 45.5625 
Q 45.3125 48.734375 45.3125 54.390625 
Q 45.3125 60.0625 41.71875 63.234375 
Q 38.140625 66.40625 31.78125 66.40625 
Q 25.390625 66.40625 21.84375 63.234375 
Q 18.3125 60.0625 18.3125 54.390625 
z
" id="DejaVuSans-56"/>
      </defs>
      <g transform="translate(25.155 70.972849)scale(0.16 -0.16)">
       <use xlink:href="#DejaVuSans-48"/>
       <use x="63.623047" xlink:href="#DejaVuSans-46"/>
       <use x="95.410156" xlink:href="#DejaVuSans-56"/>
      </g>
     </g>
    </g>
    <g id="ytick_6">
     <g id="line2d_31">
      <path clip-path="url(#p23396e3b80)" d="M 57.6 6.381624 
L 338.688 6.381624 
" style="fill:none;stroke:#b0b0b0;stroke-linecap:square;stroke-width:0.8;"/>
     </g>
     <g id="line2d_32">
      <g>
       <use style="stroke:#000000;stroke-width:0.8;" x="57.6" xlink:href="#m73c76a8b4b" y="6.381624"/>
      </g>
     </g>
     <g id="text_11">
      <!-- 1.0 -->
      <g transform="translate(25.155 12.460374)scale(0.16 -0.16)">
       <use xlink:href="#DejaVuSans-49"/>
       <use x="63.623047" xlink:href="#DejaVuSans-46"/>
       <use x="95.410156" xlink:href="#DejaVuSans-48"/>
      </g>
     </g>
    </g>
    <g id="text_12">
     <!-- Fraction of function,target pairs -->
     <defs>
      <path d="M 9.8125 72.90625 
L 51.703125 72.90625 
L 51.703125 64.59375 
L 19.671875 64.59375 
L 19.671875 43.109375 
L 48.578125 43.109375 
L 48.578125 34.8125 
L 19.671875 34.8125 
L 19.671875 0 
L 9.8125 0 
z
" id="DejaVuSans-70"/>
      <path d="M 41.109375 46.296875 
Q 39.59375 47.171875 37.8125 47.578125 
Q 36.03125 48 33.890625 48 
Q 26.265625 48 22.1875 43.046875 
Q 18.109375 38.09375 18.109375 28.8125 
L 18.109375 0 
L 9.078125 0 
L 9.078125 54.6875 
L 18.109375 54.6875 
L 18.109375 46.1875 
Q 20.953125 51.171875 25.484375 53.578125 
Q 30.03125 56 36.53125 56 
Q 37.453125 56 38.578125 55.875 
Q 39.703125 55.765625 41.0625 55.515625 
z
" id="DejaVuSans-114"/>
      <path d="M 48.78125 52.59375 
L 48.78125 44.1875 
Q 44.96875 46.296875 41.140625 47.34375 
Q 37.3125 48.390625 33.40625 48.390625 
Q 24.65625 48.390625 19.8125 42.84375 
Q 14.984375 37.3125 14.984375 27.296875 
Q 14.984375 17.28125 19.8125 11.734375 
Q 24.65625 6.203125 33.40625 6.203125 
Q 37.3125 6.203125 41.140625 7.25 
Q 44.96875 8.296875 48.78125 10.40625 
L 48.78125 2.09375 
Q 45.015625 0.34375 40.984375 -0.53125 
Q 36.96875 -1.421875 32.421875 -1.421875 
Q 20.0625 -1.421875 12.78125 6.34375 
Q 5.515625 14.109375 5.515625 27.296875 
Q 5.515625 40.671875 12.859375 48.328125 
Q 20.21875 56 33.015625 56 
Q 37.15625 56 41.109375 55.140625 
Q 45.0625 54.296875 48.78125 52.59375 
z
" id="DejaVuSans-99"/>
      <path d="M 18.3125 70.21875 
L 18.3125 54.6875 
L 36.8125 54.6875 
L 36.8125 47.703125 
L 18.3125 47.703125 
L 18.3125 18.015625 
Q 18.3125 11.328125 20.140625 9.421875 
Q 21.96875 7.515625 27.59375 7.515625 
L 36.8125 7.515625 
L 36.8125 0 
L 27.59375 0 
Q 17.1875 0 13.234375 3.875 
Q 9.28125 7.765625 9.28125 18.015625 
L 9.28125 47.703125 
L 2.6875 47.703125 
L 2.6875 54.6875 
L 9.28125 54.6875 
L 9.28125 70.21875 
z
" id="DejaVuSans-116"/>
      <path d="M 8.5 21.578125 
L 8.5 54.6875 
L 17.484375 54.6875 
L 17.484375 21.921875 
Q 17.484375 14.15625 20.5 10.265625 
Q 23.53125 6.390625 29.59375 6.390625 
Q 36.859375 6.390625 41.078125 11.03125 
Q 45.3125 15.671875 45.3125 23.6875 
L 45.3125 54.6875 
L 54.296875 54.6875 
L 54.296875 0 
L 45.3125 0 
L 45.3125 8.40625 
Q 42.046875 3.421875 37.71875 1 
Q 33.40625 -1.421875 27.6875 -1.421875 
Q 18.265625 -1.421875 13.375 4.4375 
Q 8.5 10.296875 8.5 21.578125 
z
M 31.109375 56 
z
" id="DejaVuSans-117"/>
      <path d="M 11.71875 12.40625 
L 22.015625 12.40625 
L 22.015625 4 
L 14.015625 -11.625 
L 7.71875 -11.625 
L 11.71875 4 
z
" id="DejaVuSans-44"/>
      <path d="M 18.109375 8.203125 
L 18.109375 -20.796875 
L 9.078125 -20.796875 
L 9.078125 54.6875 
L 18.109375 54.6875 
L 18.109375 46.390625 
Q 20.953125 51.265625 25.265625 53.625 
Q 29.59375 56 35.59375 56 
Q 45.5625 56 51.78125 48.09375 
Q 58.015625 40.1875 58.015625 27.296875 
Q 58.015625 14.40625 51.78125 6.484375 
Q 45.5625 -1.421875 35.59375 -1.421875 
Q 29.59375 -1.421875 25.265625 0.953125 
Q 20.953125 3.328125 18.109375 8.203125 
z
M 48.6875 27.296875 
Q 48.6875 37.203125 44.609375 42.84375 
Q 40.53125 48.484375 33.40625 48.484375 
Q 26.265625 48.484375 22.1875 42.84375 
Q 18.109375 37.203125 18.109375 27.296875 
Q 18.109375 17.390625 22.1875 11.75 
Q 26.265625 6.109375 33.40625 6.109375 
Q 40.53125 6.109375 44.609375 11.75 
Q 48.6875 17.390625 48.6875 27.296875 
z
" id="DejaVuSans-112"/>
     </defs>
     <g transform="translate(17.619531 286.339375)rotate(-90)scale(0.17 -0.17)">
      <use xlink:href="#DejaVuSans-70"/>
      <use x="57.410156" xlink:href="#DejaVuSans-114"/>
      <use x="98.523438" xlink:href="#DejaVuSans-97"/>
      <use x="159.802734" xlink:href="#DejaVuSans-99"/>
      <use x="214.783203" xlink:href="#DejaVuSans-116"/>
      <use x="253.992188" xlink:href="#DejaVuSans-105"/>
      <use x="281.775391" xlink:href="#DejaVuSans-111"/>
      <use x="342.957031" xlink:href="#DejaVuSans-110"/>
      <use x="406.335938" xlink:href="#DejaVuSans-32"/>
      <use x="438.123047" xlink:href="#DejaVuSans-111"/>
      <use x="499.304688" xlink:href="#DejaVuSans-102"/>
      <use x="534.509766" xlink:href="#DejaVuSans-32"/>
      <use x="566.296875" xlink:href="#DejaVuSans-102"/>
      <use x="601.501953" xlink:href="#DejaVuSans-117"/>
      <use x="664.880859" xlink:href="#DejaVuSans-110"/>
      <use x="728.259766" xlink:href="#DejaVuSans-99"/>
      <use x="783.240234" xlink:href="#DejaVuSans-116"/>
      <use x="822.449219" xlink:href="#DejaVuSans-105"/>
      <use x="850.232422" xlink:href="#DejaVuSans-111"/>
      <use x="911.414062" xlink:href="#DejaVuSans-110"/>
      <use x="974.792969" xlink:href="#DejaVuSans-44"/>
      <use x="1006.580078" xlink:href="#DejaVuSans-116"/>
      <use x="1045.789062" xlink:href="#DejaVuSans-97"/>
      <use x="1107.068359" xlink:href="#DejaVuSans-114"/>
      <use x="1148.166016" xlink:href="#DejaVuSans-103"/>
      <use x="1211.642578" xlink:href="#DejaVuSans-101"/>
      <use x="1273.166016" xlink:href="#DejaVuSans-116"/>
      <use x="1312.375" xlink:href="#DejaVuSans-32"/>
      <use x="1344.162109" xlink:href="#DejaVuSans-112"/>
      <use x="1407.638672" xlink:href="#DejaVuSans-97"/>
      <use x="1468.917969" xlink:href="#DejaVuSans-105"/>
      <use x="1496.701172" xlink:href="#DejaVuSans-114"/>
      <use x="1537.814453" xlink:href="#DejaVuSans-115"/>
     </g>
    </g>
   </g>
   <g id="line2d_33">
    <defs>
     <path d="M 0 1.5 
C 0.397805 1.5 0.77937 1.341951 1.06066 1.06066 
C 1.341951 0.77937 1.5 0.397805 1.5 0 
C 1.5 -0.397805 1.341951 -0.77937 1.06066 -1.06066 
C 0.77937 -1.341951 0.397805 -1.5 0 -1.5 
C -0.397805 -1.5 -0.77937 -1.341951 -1.06066 -1.06066 
C -1.341951 -0.77937 -1.5 -0.397805 -1.5 0 
C -1.5 0.397805 -1.341951 0.77937 -1.06066 1.06066 
C -0.77937 1.341951 -0.397805 1.5 0 1.5 
z
" id="mdbb03e69a9" style="stroke:#f5deb3;"/>
    </defs>
    <g>
     <use style="fill:#f5deb3;stroke:#f5deb3;" x="253.49648" xlink:href="#mdbb03e69a9" y="41.690876"/>
     <use style="fill:#f5deb3;stroke:#f5deb3;" x="253.49648" xlink:href="#mdbb03e69a9" y="41.690876"/>
    </g>
   </g>
   <g id="line2d_34">
    <defs>
     <path d="M 0 1.5 
C 0.397805 1.5 0.77937 1.341951 1.06066 1.06066 
C 1.341951 0.77937 1.5 0.397805 1.5 0 
C 1.5 -0.397805 1.341951 -0.77937 1.06066 -1.06066 
C 0.77937 -1.341951 0.397805 -1.5 0 -1.5 
C -0.397805 -1.5 -0.77937 -1.341951 -1.06066 -1.06066 
C -1.341951 -0.77937 -1.5 -0.397805 -1.5 0 
C -1.5 0.397805 -1.341951 0.77937 -1.06066 1.06066 
C -0.77937 1.341951 -0.397805 1.5 0 1.5 
z
" id="m0f1c681f26" style="stroke:#000080;"/>
    </defs>
    <g>
     <use style="fill:#000080;stroke:#000080;" x="217.373944" xlink:href="#m0f1c681f26" y="85.911511"/>
     <use style="fill:#000080;stroke:#000080;" x="217.373944" xlink:href="#m0f1c681f26" y="85.911511"/>
    </g>
   </g>
   <g id="line2d_35">
    <path d="M 45.512012 298.944 
L 45.512012 285.660996 
L 64.67102 285.660996 
L 64.67102 280.953095 
L 69.687988 280.953095 
L 69.687988 279.607981 
L 73.579452 279.607981 
L 73.579452 276.413334 
L 76.759008 276.413334 
L 76.759008 275.404498 
L 79.447285 275.404498 
L 79.447285 274.059384 
L 81.775977 274.059384 
L 81.775977 271.873573 
L 83.830028 271.873573 
L 83.830028 269.183344 
L 85.66744 269.183344 
L 85.66744 261.448937 
L 87.329581 261.448937 
L 87.329581 260.440101 
L 88.846997 260.440101 
L 88.846997 259.263126 
L 90.242884 259.263126 
L 90.242884 256.572897 
L 92.73846 256.572897 
L 92.73846 255.90034 
L 94.921215 255.90034 
L 94.921215 254.555226 
L 96.86091 254.555226 
L 96.86091 253.378251 
L 97.755429 253.378251 
L 97.755429 252.369415 
L 98.606294 252.369415 
L 98.606294 248.334072 
L 100.192776 248.334072 
L 100.192776 246.820818 
L 100.934985 246.820818 
L 100.934985 245.811982 
L 101.646892 245.811982 
L 101.646892 245.139425 
L 104.23523 245.139425 
L 104.23523 242.112918 
L 105.398279 242.112918 
L 105.398279 241.6085 
L 105.951954 241.6085 
L 105.951954 240.431525 
L 106.48859 240.431525 
L 106.48859 239.422689 
L 107.009204 239.422689 
L 107.009204 238.918271 
L 108.006005 238.918271 
L 108.006005 237.909435 
L 108.483824 237.909435 
L 108.483824 236.564321 
L 108.948899 236.564321 
L 108.948899 236.059903 
L 109.843417 236.059903 
L 109.843417 234.546649 
L 110.274038 234.546649 
L 110.274038 232.865256 
L 110.694282 232.865256 
L 110.694282 231.856421 
L 111.897469 231.856421 
L 111.897469 231.352003 
L 112.655818 231.352003 
L 112.655818 230.847585 
L 113.382559 230.847585 
L 113.382559 229.67061 
L 114.751048 229.67061 
L 114.751048 229.166192 
L 115.077025 229.166192 
L 115.077025 226.812242 
L 115.711251 226.812242 
L 115.711251 225.467127 
L 116.914437 225.467127 
L 116.914437 224.290152 
L 117.486268 224.290152 
L 117.486268 223.281316 
L 117.765302 223.281316 
L 117.765302 222.272481 
L 118.039942 222.272481 
L 118.039942 221.095506 
L 118.310324 221.095506 
L 118.310324 220.422948 
L 118.576578 220.422948 
L 118.576578 219.414113 
L 119.351785 219.414113 
L 119.351785 218.405277 
L 122.362027 218.405277 
L 122.362027 217.396441 
L 122.573415 217.396441 
L 122.573415 216.387605 
L 123.593547 216.387605 
L 123.593547 215.21063 
L 125.110962 215.21063 
L 125.110962 214.706212 
L 126.338353 214.706212 
L 126.338353 213.361098 
L 128.560901 213.361098 
L 128.560901 211.007148 
L 128.709321 211.007148 
L 128.709321 210.50273 
L 129.714332 210.50273 
L 129.714332 209.830173 
L 130.796184 209.830173 
L 130.796184 208.821337 
L 132.659801 208.821337 
L 132.659801 207.812501 
L 133.352844 207.812501 
L 133.352844 206.635526 
L 133.689303 206.635526 
L 133.689303 206.131108 
L 134.019394 206.131108 
L 134.019394 205.62669 
L 134.343353 205.62669 
L 134.343353 204.449715 
L 134.661403 204.449715 
L 134.661403 203.945297 
L 135.681535 203.945297 
L 135.681535 202.936462 
L 137.558536 202.936462 
L 137.558536 201.591347 
L 138.084384 201.591347 
L 138.084384 200.582511 
L 138.594838 200.582511 
L 138.594838 199.237397 
L 139.493548 199.237397 
L 139.493548 198.228561 
L 139.887228 198.228561 
L 139.964909 196.379029 
L 140.348205 196.379029 
L 140.423864 194.697636 
L 140.64889 194.697636 
L 140.723258 193.016243 
L 140.79731 193.016243 
L 140.79731 192.511825 
L 140.944478 192.511825 
L 140.944478 191.839268 
L 141.090414 191.839268 
L 141.090414 190.830432 
L 142.147664 190.830432 
L 142.147664 190.157875 
L 142.818488 190.157875 
L 142.818488 189.149039 
L 143.208936 189.149039 
L 143.208936 187.972064 
L 143.40093 187.972064 
L 143.40093 186.795089 
L 143.778691 186.795089 
L 143.778691 186.290671 
L 144.148442 186.290671 
L 144.148442 185.113696 
L 144.629556 185.113696 
L 144.629556 184.609278 
L 145.270136 184.609278 
L 145.270136 183.936721 
L 145.440832 183.936721 
L 145.440832 183.432303 
L 146.270114 183.432303 
L 146.270114 182.759746 
L 146.591092 182.759746 
L 146.591092 181.75091 
L 146.854132 181.75091 
L 146.854132 181.246492 
L 147.215849 181.246492 
L 147.215849 180.069517 
L 147.620256 180.069517 
L 147.620256 179.565099 
L 147.769524 179.565099 
L 147.769524 178.388124 
L 147.917524 178.388124 
L 147.917524 177.883706 
L 148.112924 177.883706 
L 148.112924 176.706731 
L 148.497276 176.706731 
L 148.497276 176.202313 
L 148.639252 176.202313 
L 148.639252 174.68906 
L 149.012299 174.68906 
L 149.012299 174.016503 
L 149.422654 174.016503 
L 149.422654 173.007667 
L 149.867558 173.007667 
L 149.955193 171.494413 
L 150.172372 171.494413 
L 150.172372 170.989995 
L 153.069065 170.989995 
L 153.069065 170.485577 
L 153.250915 170.485577 
L 153.250915 169.981159 
L 154.063835 169.981159 
L 154.063835 169.308602 
L 154.269814 169.308602 
L 154.269814 168.636045 
L 154.741174 168.636045 
L 154.741174 167.963488 
L 154.972161 167.963488 
L 154.972161 167.290931 
L 155.232454 167.290931 
L 155.264719 166.113956 
L 158.492562 166.113956 
L 158.492562 165.609538 
L 159.046236 165.609538 
L 159.046236 165.10512 
L 159.303838 165.10512 
L 159.303838 164.600702 
L 159.857512 164.600702 
L 159.857512 164.096284 
L 160.914762 164.096284 
L 160.914762 163.591866 
L 161.077205 163.591866 
L 161.077205 162.919309 
L 161.420284 162.919309 
L 161.420284 161.742334 
L 161.53316 161.742334 
L 161.53316 161.069777 
L 161.977497 161.069777 
L 161.977497 160.565359 
L 162.749842 160.565359 
L 162.749842 159.388384 
L 163.225959 159.388384 
L 163.225959 158.379548 
L 163.469301 158.379548 
L 163.469301 157.202573 
L 163.729146 157.202573 
L 163.748975 155.184901 
L 164.276 155.184901 
L 164.314412 153.503508 
L 165.7501 153.503508 
L 165.7501 152.830951 
L 166.459886 152.830951 
L 166.459886 152.326533 
L 166.945039 152.326533 
L 166.945039 151.822115 
L 167.158215 151.822115 
L 167.158215 151.317698 
L 167.87664 151.317698 
L 167.87664 149.468165 
L 168.820356 149.468165 
L 168.820356 148.963747 
L 169.53167 148.963747 
L 169.602648 147.954912 
L 169.78585 147.954912 
L 169.78585 147.282354 
L 171.108254 147.282354 
L 171.108254 146.609797 
L 171.340609 146.609797 
L 171.340609 146.105379 
L 171.67086 146.105379 
L 171.758716 145.096544 
L 172.932666 145.096544 
L 172.932666 144.592126 
L 173.303236 144.592126 
L 173.303236 143.919568 
L 173.811376 143.919568 
L 173.811376 142.742593 
L 174.261802 142.742593 
L 174.261802 142.070036 
L 174.700886 142.070036 
L 174.700886 141.397479 
L 174.858804 141.397479 
L 174.858804 140.893061 
L 175.283289 140.893061 
L 175.283289 140.388643 
L 176.141459 140.388643 
L 176.141459 139.379807 
L 178.377401 139.379807 
L 178.403079 138.202832 
L 178.522409 138.202832 
L 178.522409 137.530275 
L 178.808858 137.530275 
L 178.808858 137.025857 
L 179.098898 137.025857 
L 179.098898 136.3533 
L 180.647105 136.3533 
L 180.647105 135.848882 
L 181.354499 135.848882 
L 181.354499 135.344464 
L 181.541248 135.344464 
L 181.541248 134.167489 
L 181.690637 134.167489 
L 181.690637 132.990514 
L 181.999553 132.990514 
L 181.999553 131.981678 
L 182.186441 131.981678 
L 182.186441 130.972843 
L 182.357718 130.972843 
L 182.357718 129.964007 
L 182.722034 129.964007 
L 182.722034 129.459589 
L 183.039601 129.459589 
L 183.039601 128.282614 
L 184.04587 128.282614 
L 184.04587 127.105639 
L 184.419343 127.105639 
L 184.528037 125.592385 
L 185.893799 125.592385 
L 185.993706 124.079131 
L 186.126032 124.079131 
L 186.126032 122.06146 
L 187.730654 122.06146 
L 187.730654 121.557042 
L 188.996185 121.557042 
L 189.038067 120.211928 
L 189.537479 120.211928 
L 189.537479 119.70751 
L 189.770784 119.70751 
L 189.770784 119.203092 
L 189.95697 119.203092 
L 190.066859 118.026117 
L 190.280253 118.026117 
L 190.280253 117.35356 
L 190.648581 117.35356 
L 190.648581 116.849142 
L 191.19921 116.849142 
L 191.252509 115.840306 
L 193.81754 115.840306 
L 193.81754 115.335888 
L 194.571377 115.335888 
L 194.571377 114.83147 
L 195.529405 114.83147 
L 195.529405 114.158913 
L 196.507332 114.158913 
L 196.507332 113.654495 
L 196.875939 113.654495 
L 196.875939 113.150077 
L 197.527842 113.150077 
L 197.527842 112.47752 
L 197.828038 112.47752 
L 197.828038 111.973102 
L 197.981788 111.973102 
L 197.981788 111.468684 
L 199.65 111.468684 
L 199.6778 110.291709 
L 200.025322 110.291709 
L 200.025322 109.282873 
L 200.482187 109.282873 
L 200.482187 108.105898 
L 200.981369 108.105898 
L 200.981369 107.60148 
L 201.246487 107.60148 
L 201.246487 106.592645 
L 201.625468 106.592645 
L 201.625468 105.583809 
L 202.18768 105.583809 
L 202.18768 104.406834 
L 203.860751 104.406834 
L 203.860751 103.397998 
L 204.001239 103.397998 
L 204.001239 102.725441 
L 204.247804 102.725441 
L 204.274986 100.53963 
L 204.804272 100.53963 
L 204.804272 99.362655 
L 205.478043 99.362655 
L 205.478043 98.858237 
L 205.784964 98.858237 
L 205.784964 98.18568 
L 205.900227 98.18568 
L 205.900227 97.681262 
L 207.126845 97.681262 
L 207.126845 96.504287 
L 209.225868 96.504287 
L 209.329261 95.495451 
L 209.472414 95.495451 
L 209.476734 94.318476 
L 210.509492 94.318476 
L 210.509492 93.141501 
L 211.977876 93.141501 
L 211.977876 92.468944 
L 213.463247 92.468944 
L 213.463247 91.291969 
L 213.772076 91.291969 
L 213.772076 90.114994 
L 214.161585 90.114994 
L 214.161585 89.610576 
L 214.462721 89.610576 
L 214.462721 88.60174 
L 216.037913 88.60174 
L 216.105971 87.424765 
L 216.154142 87.424765 
L 216.154142 86.920347 
L 217.133373 86.920347 
L 217.133373 86.415929 
L 217.373944 86.415929 
L 217.373944 85.911511 
L 338.688 85.911511 
L 338.688 85.911511 
" style="fill:none;stroke:#000080;stroke-linecap:square;stroke-width:1.5;"/>
   </g>
   <g id="line2d_36">
    <defs>
     <path d="M 0 6 
C 1.591219 6 3.117479 5.367802 4.242641 4.242641 
C 5.367802 3.117479 6 1.591219 6 0 
C 6 -1.591219 5.367802 -3.117479 4.242641 -4.242641 
C 3.117479 -5.367802 1.591219 -6 0 -6 
C -1.591219 -6 -3.117479 -5.367802 -4.242641 -4.242641 
C -5.367802 -3.117479 -6 -1.591219 -6 0 
C -6 1.591219 -5.367802 3.117479 -4.242641 4.242641 
C -3.117479 5.367802 -1.591219 6 0 6 
z
" id="m051b773092" style="stroke:#000080;stroke-width:1.5;"/>
    </defs>
    <g>
     <use style="fill-opacity:0;stroke:#000080;stroke-width:1.5;" x="90.242884" xlink:href="#m051b773092" y="259.263126"/>
     <use style="fill-opacity:0;stroke:#000080;stroke-width:1.5;" x="140.79731" xlink:href="#m051b773092" y="193.016243"/>
     <use style="fill-opacity:0;stroke:#000080;stroke-width:1.5;" x="199.6778" xlink:href="#m051b773092" y="110.964266"/>
     <use style="fill-opacity:0;stroke:#000080;stroke-width:1.5;" x="217.373944" xlink:href="#m051b773092" y="86.415929"/>
     <use style="fill-opacity:0;stroke:#000080;stroke-width:1.5;" x="217.373944" xlink:href="#m051b773092" y="85.911511"/>
     <use style="fill-opacity:0;stroke:#000080;stroke-width:1.5;" x="338.688" xlink:href="#m051b773092" y="85.911511"/>
    </g>
   </g>
   <g id="line2d_37">
    <path style="fill:none;stroke:#000080;stroke-linecap:square;stroke-width:1.5;"/>
    <g/>
   </g>
   <g id="line2d_38">
    <path clip-path="url(#p23396e3b80)" d="M 218.22433 85.911511 
" style="fill:none;stroke:#000080;stroke-linecap:square;stroke-width:1.5;"/>
    <defs>
     <path d="M -12 12 
L 12 -12 
M -12 -12 
L 12 12 
" id="mfdd90440a0" style="stroke:#000080;"/>
    </defs>
    <g clip-path="url(#p23396e3b80)">
     <use style="fill:#000080;stroke:#000080;" x="218.22433" xlink:href="#mfdd90440a0" y="85.911511"/>
    </g>
   </g>
   <g id="line2d_39">
    <defs>
     <path d="M 0 1.5 
C 0.397805 1.5 0.77937 1.341951 1.06066 1.06066 
C 1.341951 0.77937 1.5 0.397805 1.5 0 
C 1.5 -0.397805 1.341951 -0.77937 1.06066 -1.06066 
C 0.77937 -1.341951 0.397805 -1.5 0 -1.5 
C -0.397805 -1.5 -0.77937 -1.341951 -1.06066 -1.06066 
C -1.341951 -0.77937 -1.5 -0.397805 -1.5 0 
C -1.5 0.397805 -1.341951 0.77937 -1.06066 1.06066 
C -0.77937 1.341951 -0.397805 1.5 0 1.5 
z
" id="m8a41b0c254" style="stroke:#ff00ff;"/>
    </defs>
    <g>
     <use style="fill:#ff00ff;stroke:#ff00ff;" x="218.155319" xlink:href="#m8a41b0c254" y="83.89384"/>
     <use style="fill:#ff00ff;stroke:#ff00ff;" x="218.155319" xlink:href="#m8a41b0c254" y="83.89384"/>
    </g>
   </g>
   <g id="line2d_40">
    <path d="M 45.512012 298.944 
L 45.512012 284.988438 
L 69.687988 284.988438 
L 69.687988 283.307045 
L 81.775977 283.307045 
L 81.775977 281.289374 
L 83.830028 281.289374 
L 83.830028 280.784956 
L 85.66744 280.784956 
L 85.66744 279.77612 
L 88.846997 279.77612 
L 88.846997 279.103563 
L 90.242884 279.103563 
L 90.242884 278.094727 
L 92.73846 278.094727 
L 92.73846 274.731941 
L 94.921215 274.731941 
L 94.921215 274.059384 
L 96.86091 274.059384 
L 96.86091 273.554966 
L 97.755429 273.554966 
L 97.755429 272.377991 
L 98.606294 272.377991 
L 98.606294 269.183344 
L 99.41757 269.183344 
L 99.41757 267.670091 
L 100.192776 267.670091 
L 100.192776 264.307305 
L 100.934985 264.307305 
L 100.934985 261.617076 
L 101.646892 261.617076 
L 101.646892 257.245454 
L 102.989037 257.245454 
L 102.989037 256.741037 
L 103.623262 256.741037 
L 103.623262 256.236619 
L 105.398279 256.236619 
L 105.398279 254.723365 
L 105.951954 254.723365 
L 105.951954 251.528718 
L 106.48859 251.528718 
L 106.48859 251.0243 
L 108.948899 251.0243 
L 108.948899 249.342907 
L 110.274038 249.342907 
L 110.274038 248.83849 
L 111.104637 248.83849 
L 111.104637 247.829654 
L 111.897469 247.829654 
L 111.897469 247.325236 
L 112.655818 247.325236 
L 112.655818 245.139425 
L 113.73488 245.139425 
L 113.73488 243.96245 
L 114.080224 243.96245 
L 114.080224 241.104082 
L 115.077025 241.104082 
L 115.077025 239.927107 
L 115.397021 239.927107 
L 115.397021 239.422689 
L 116.323218 239.422689 
L 116.323218 238.918271 
L 117.202696 238.918271 
L 117.202696 238.413853 
L 118.310324 238.413853 
L 118.310324 237.236878 
L 118.576578 237.236878 
L 118.576578 236.228042 
L 118.838828 236.228042 
L 118.838828 235.555485 
L 119.602714 235.555485 
L 119.602714 234.882928 
L 120.33454 234.882928 
L 120.33454 230.511306 
L 121.712041 230.511306 
L 121.712041 229.334331 
L 122.573415 229.334331 
L 122.573415 228.157356 
L 125.470548 228.157356 
L 125.470548 227.652938 
L 125.822869 227.652938 
L 125.822869 226.475963 
L 126.50685 226.475963 
L 126.50685 225.298988 
L 126.673734 225.298988 
L 126.673734 224.122013 
L 128.107907 224.122013 
L 128.107907 223.617595 
L 128.411207 223.617595 
L 128.411207 221.431784 
L 128.709321 221.431784 
L 128.709321 220.422948 
L 129.002426 220.422948 
L 129.002426 219.414113 
L 129.290685 219.414113 
L 129.290685 216.051327 
L 129.714332 216.051327 
L 129.714332 214.874352 
L 130.664567 214.874352 
L 130.664567 212.520402 
L 130.796184 212.520402 
L 130.796184 212.015984 
L 130.926816 212.015984 
L 130.926816 211.511566 
L 131.056477 211.511566 
L 131.056477 211.007148 
L 131.690703 211.007148 
L 131.690703 209.830173 
L 132.060454 209.830173 
L 132.060454 208.653198 
L 132.422528 208.653198 
L 132.422528 207.476223 
L 132.777237 207.476223 
L 132.777237 206.803665 
L 133.124876 206.803665 
L 133.124876 205.79483 
L 133.239232 205.79483 
L 133.239232 205.290412 
L 133.46572 205.290412 
L 133.46572 204.617855 
L 133.800029 204.617855 
L 133.910056 203.104601 
L 134.55603 203.104601 
L 134.661403 201.423208 
L 135.076644 201.423208 
L 135.076644 200.750651 
L 137.647286 200.750651 
L 137.647286 200.246233 
L 139.009092 200.246233 
L 139.009092 199.741815 
L 140.499195 199.741815 
L 140.499195 199.237397 
L 140.944478 199.237397 
L 140.944478 198.732979 
L 141.732423 198.732979 
L 141.732423 197.556004 
L 142.283909 197.556004 
L 142.283909 197.051586 
L 142.884173 197.051586 
L 142.884173 196.04275 
L 143.902815 196.04275 
L 143.902815 195.538333 
L 144.026061 195.538333 
L 144.087359 194.025079 
L 144.269971 194.025079 
L 144.269971 193.016243 
L 144.510517 193.016243 
L 144.570138 190.662293 
L 144.629556 190.662293 
L 144.629556 189.485318 
L 144.806606 189.485318 
L 144.806606 188.476482 
L 144.923649 188.476482 
L 144.923649 187.803925 
L 145.097753 187.803925 
L 145.097753 187.131368 
L 145.327221 187.131368 
L 145.327221 184.945557 
L 145.497361 184.945557 
L 145.497361 184.441139 
L 145.609873 184.441139 
L 145.609873 183.264164 
L 146.161795 183.264164 
L 146.216039 181.91905 
L 147.670154 181.91905 
L 147.670154 180.573935 
L 148.306159 180.573935 
L 148.306159 180.069517 
L 149.104327 180.069517 
L 149.104327 179.060681 
L 149.735275 179.060681 
L 149.779481 178.051846 
L 150.172372 178.051846 
L 150.172372 177.04301 
L 150.766468 177.04301 
L 150.766468 176.538592 
L 151.340991 176.538592 
L 151.340991 176.034174 
L 151.621307 176.034174 
L 151.621307 174.857199 
L 151.975216 174.857199 
L 151.975216 174.352781 
L 152.168773 174.352781 
L 152.168773 173.848363 
L 152.662192 173.848363 
L 152.662192 172.671388 
L 153.466662 172.671388 
L 153.466662 171.998831 
L 153.785358 171.998831 
L 153.785358 171.494413 
L 154.029268 171.494413 
L 154.029268 170.989995 
L 154.235652 170.989995 
L 154.269814 169.81302 
L 156.236431 169.81302 
L 156.297301 168.804184 
L 156.687861 168.804184 
L 156.687861 168.131627 
L 157.1279 168.131627 
L 157.1279 167.627209 
L 157.753847 167.627209 
L 157.781772 166.450234 
L 157.920731 166.450234 
L 157.920731 165.777677 
L 160.537682 165.777677 
L 160.537682 165.273259 
L 161.329454 165.273259 
L 161.329454 164.768841 
L 161.488097 164.768841 
L 161.488097 164.264423 
L 161.712255 164.264423 
L 161.712255 163.591866 
L 162.367945 163.591866 
L 162.367945 163.087448 
L 163.246367 163.087448 
L 163.246367 161.742334 
L 163.50953 161.742334 
L 163.50953 159.052105 
L 164.19892 159.052105 
L 164.276 156.361876 
L 164.618704 156.361876 
L 164.618704 155.857459 
L 164.731458 155.857459 
L 164.824867 154.007926 
L 165.138764 154.007926 
L 165.138764 153.335369 
L 166.679039 153.335369 
L 166.679039 152.830951 
L 166.91201 152.830951 
L 166.91201 151.822115 
L 167.125588 151.822115 
L 167.141909 150.140722 
L 168.094245 150.140722 
L 168.18668 148.963747 
L 168.551595 148.963747 
L 168.551595 148.29119 
L 168.746115 148.29119 
L 168.746115 147.618633 
L 169.215888 147.618633 
L 169.215888 147.114215 
L 170.091567 147.114215 
L 170.091567 146.609797 
L 170.364915 146.609797 
L 170.364915 146.105379 
L 170.499999 146.105379 
L 170.499999 145.432822 
L 171.302098 145.432822 
L 171.302098 144.760265 
L 171.920711 144.760265 
L 171.920711 143.751429 
L 172.031987 143.751429 
L 172.093501 142.742593 
L 172.337411 142.742593 
L 172.337411 142.070036 
L 173.371849 142.070036 
L 173.371849 141.565618 
L 175.283289 141.565618 
L 175.283289 141.0612 
L 176.875552 141.0612 
L 176.875552 140.388643 
L 177.855749 140.388643 
L 177.855749 139.884225 
L 177.970105 139.884225 
L 177.970105 139.379807 
L 178.522409 139.379807 
L 178.6156 138.370972 
L 179.593145 138.370972 
L 179.593145 137.866554 
L 179.925483 137.866554 
L 179.925483 137.193997 
L 180.220807 137.193997 
L 180.220807 136.185161 
L 180.389527 136.185161 
L 180.389527 135.008186 
L 181.47683 135.008186 
L 181.47683 134.503768 
L 182.131275 134.503768 
L 182.131275 133.99935 
L 182.60816 133.99935 
L 182.661841 132.317957 
L 183.473421 132.317957 
L 183.575442 129.627728 
L 184.467735 129.627728 
L 184.467735 128.618892 
L 184.879635 128.618892 
L 184.879635 127.441917 
L 185.658433 127.441917 
L 185.737242 125.592385 
L 186.246454 125.592385 
L 186.246454 124.583549 
L 186.709376 124.583549 
L 186.709376 124.079131 
L 187.468177 124.079131 
L 187.468177 123.574714 
L 187.69053 123.574714 
L 187.69053 123.070296 
L 188.126906 123.070296 
L 188.219708 121.893321 
L 188.785252 121.893321 
L 188.785252 121.388903 
L 189.245983 121.388903 
L 189.245983 120.211928 
L 189.569068 120.211928 
L 189.569068 119.70751 
L 190.03616 119.70751 
L 190.03616 119.034953 
L 190.254263 119.034953 
L 190.254263 118.530535 
L 190.766843 118.530535 
L 190.766843 117.857977 
L 191.083854 117.857977 
L 191.083854 117.35356 
L 191.374891 117.35356 
L 191.374891 116.849142 
L 192.488959 116.849142 
L 192.488959 116.344724 
L 192.720047 116.344724 
L 192.720047 115.840306 
L 195.153795 115.840306 
L 195.153795 115.335888 
L 195.570999 115.335888 
L 195.570999 114.83147 
L 195.978455 114.83147 
L 195.978455 114.327052 
L 196.446652 114.327052 
L 196.486118 113.150077 
L 196.768858 113.150077 
L 196.768858 112.47752 
L 197.794312 112.47752 
L 197.794312 111.804963 
L 198.369863 111.804963 
L 198.369863 111.300545 
L 198.583579 111.300545 
L 198.583579 110.796127 
L 199.126243 110.796127 
L 199.126243 110.12357 
L 200.31987 110.12357 
L 200.336899 108.105898 
L 200.638228 108.105898 
L 200.638228 106.928923 
L 200.816558 106.928923 
L 200.816558 105.751948 
L 201.972051 105.751948 
L 201.972051 105.079391 
L 203.634796 105.079391 
L 203.634796 104.070555 
L 203.811012 104.070555 
L 203.811012 102.89358 
L 204.346622 102.89358 
L 204.346622 102.221023 
L 204.67961 102.221023 
L 204.789209 100.53963 
L 205.905529 100.53963 
L 205.905529 99.362655 
L 206.341751 99.362655 
L 206.341751 98.18568 
L 207.456483 98.18568 
L 207.54195 97.008705 
L 208.02894 97.008705 
L 208.02894 95.999869 
L 208.232674 95.999869 
L 208.286706 94.318476 
L 209.052662 94.318476 
L 209.052662 93.814058 
L 209.167346 93.814058 
L 209.231709 92.637083 
L 211.602145 92.637083 
L 211.602145 91.291969 
L 212.295536 91.291969 
L 212.353008 90.114994 
L 213.325241 90.114994 
L 213.325241 88.938018 
L 215.155146 88.938018 
L 215.197718 87.424765 
L 215.812116 87.424765 
L 215.812116 86.752208 
L 215.951719 86.752208 
L 215.951719 86.24779 
L 216.456815 86.24779 
L 216.456815 85.575233 
L 217.046844 85.575233 
L 217.101789 84.398257 
L 218.155319 84.398257 
L 218.155319 83.89384 
L 338.688 83.89384 
L 338.688 83.89384 
" style="fill:none;stroke:#ff00ff;stroke-linecap:square;stroke-width:1.5;"/>
   </g>
   <g id="line2d_41">
    <defs>
     <path d="M 0 8.485281 
L 5.091169 0 
L 0 -8.485281 
L -5.091169 0 
z
" id="m1cb3b38e17" style="stroke:#ff00ff;stroke-linejoin:miter;stroke-width:1.5;"/>
    </defs>
    <g>
     <use style="fill-opacity:0;stroke:#ff00ff;stroke-linejoin:miter;stroke-width:1.5;" x="117.202696" xlink:href="#m1cb3b38e17" y="238.918271"/>
     <use style="fill-opacity:0;stroke:#ff00ff;stroke-linejoin:miter;stroke-width:1.5;" x="160.537682" xlink:href="#m1cb3b38e17" y="165.777677"/>
     <use style="fill-opacity:0;stroke:#ff00ff;stroke-linejoin:miter;stroke-width:1.5;" x="212.353008" xlink:href="#m1cb3b38e17" y="90.787551"/>
     <use style="fill-opacity:0;stroke:#ff00ff;stroke-linejoin:miter;stroke-width:1.5;" x="218.155319" xlink:href="#m1cb3b38e17" y="83.89384"/>
     <use style="fill-opacity:0;stroke:#ff00ff;stroke-linejoin:miter;stroke-width:1.5;" x="218.155319" xlink:href="#m1cb3b38e17" y="83.89384"/>
     <use style="fill-opacity:0;stroke:#ff00ff;stroke-linejoin:miter;stroke-width:1.5;" x="338.688" xlink:href="#m1cb3b38e17" y="83.89384"/>
    </g>
   </g>
   <g id="line2d_42">
    <path style="fill:none;stroke:#ff00ff;stroke-linecap:square;stroke-width:1.5;"/>
    <g/>
   </g>
   <g id="line2d_43">
    <path clip-path="url(#p23396e3b80)" d="M 218.22433 83.89384 
" style="fill:none;stroke:#ff00ff;stroke-linecap:square;stroke-width:1.5;"/>
    <defs>
     <path d="M -12 12 
L 12 -12 
M -12 -12 
L 12 12 
" id="m58ae942f2d" style="stroke:#ff00ff;"/>
    </defs>
    <g clip-path="url(#p23396e3b80)">
     <use style="fill:#ff00ff;stroke:#ff00ff;" x="218.22433" xlink:href="#m58ae942f2d" y="83.89384"/>
    </g>
   </g>
   <g id="line2d_44">
    <path d="M 338.688 85.911511 
L 369.60768 293.092752 
" style="fill:none;stroke:#000080;stroke-linecap:square;stroke-width:1.5;"/>
    <g>
     <use style="fill-opacity:0;stroke:#000080;stroke-width:1.5;" x="338.688" xlink:href="#m051b773092" y="85.911511"/>
     <use style="fill-opacity:0;stroke:#000080;stroke-width:1.5;" x="369.60768" xlink:href="#m051b773092" y="293.092752"/>
    </g>
   </g>
   <g id="line2d_45">
    <path d="M 338.688 83.89384 
L 369.60768 152.662812 
" style="fill:none;stroke:#ff00ff;stroke-linecap:square;stroke-width:1.5;"/>
    <g>
     <use style="fill-opacity:0;stroke:#ff00ff;stroke-linejoin:miter;stroke-width:1.5;" x="338.688" xlink:href="#m1cb3b38e17" y="83.89384"/>
     <use style="fill-opacity:0;stroke:#ff00ff;stroke-linejoin:miter;stroke-width:1.5;" x="369.60768" xlink:href="#m1cb3b38e17" y="152.662812"/>
    </g>
   </g>
   <g id="line2d_46">
    <path d="M 338.688 298.944 
L 338.688 6.381624 
" style="fill:none;stroke:#000000;stroke-linecap:square;stroke-width:1.5;"/>
   </g>
   <g id="patch_3">
    <path d="M 57.6 298.944 
L 57.6 3.456 
" style="fill:none;stroke:#000000;stroke-linecap:square;stroke-linejoin:miter;stroke-width:0.8;"/>
   </g>
   <g id="patch_4">
    <path d="M 338.688 298.944 
L 338.688 3.456 
" style="fill:none;stroke:#000000;stroke-linecap:square;stroke-linejoin:miter;stroke-width:0.8;"/>
   </g>
   <g id="patch_5">
    <path d="M 57.6 298.944 
L 338.688 298.944 
" style="fill:none;stroke:#000000;stroke-linecap:square;stroke-linejoin:miter;stroke-width:0.8;"/>
   </g>
   <g id="patch_6">
    <path d="M 57.6 3.456 
L 338.688 3.456 
" style="fill:none;stroke:#000000;stroke-linecap:square;stroke-linejoin:miter;stroke-width:0.8;"/>
   </g>
   <g id="text_13">
    <!-- noFractio -->
    <g transform="translate(375.22944 297.78369)scale(0.17 -0.17)">
     <use xlink:href="#DejaVuSans-110"/>
     <use x="63.378906" xlink:href="#DejaVuSans-111"/>
     <use x="124.560547" xlink:href="#DejaVuSans-70"/>
     <use x="181.970703" xlink:href="#DejaVuSans-114"/>
     <use x="223.083984" xlink:href="#DejaVuSans-97"/>
     <use x="284.363281" xlink:href="#DejaVuSans-99"/>
     <use x="339.34375" xlink:href="#DejaVuSans-116"/>
     <use x="378.552734" xlink:href="#DejaVuSans-105"/>
     <use x="406.335938" xlink:href="#DejaVuSans-111"/>
    </g>
   </g>
   <g id="text_14">
    <!-- withFract -->
    <defs>
     <path d="M 4.203125 54.6875 
L 13.1875 54.6875 
L 24.421875 12.015625 
L 35.59375 54.6875 
L 46.1875 54.6875 
L 57.421875 12.015625 
L 68.609375 54.6875 
L 77.59375 54.6875 
L 63.28125 0 
L 52.6875 0 
L 40.921875 44.828125 
L 29.109375 0 
L 18.5 0 
z
" id="DejaVuSans-119"/>
     <path d="M 54.890625 33.015625 
L 54.890625 0 
L 45.90625 0 
L 45.90625 32.71875 
Q 45.90625 40.484375 42.875 44.328125 
Q 39.84375 48.1875 33.796875 48.1875 
Q 26.515625 48.1875 22.3125 43.546875 
Q 18.109375 38.921875 18.109375 30.90625 
L 18.109375 0 
L 9.078125 0 
L 9.078125 75.984375 
L 18.109375 75.984375 
L 18.109375 46.1875 
Q 21.34375 51.125 25.703125 53.5625 
Q 30.078125 56 35.796875 56 
Q 45.21875 56 50.046875 50.171875 
Q 54.890625 44.34375 54.890625 33.015625 
z
" id="DejaVuSans-104"/>
    </defs>
    <g transform="translate(375.22944 157.353749)scale(0.17 -0.17)">
     <use xlink:href="#DejaVuSans-119"/>
     <use x="81.787109" xlink:href="#DejaVuSans-105"/>
     <use x="109.570312" xlink:href="#DejaVuSans-116"/>
     <use x="148.779297" xlink:href="#DejaVuSans-104"/>
     <use x="212.158203" xlink:href="#DejaVuSans-70"/>
     <use x="269.568359" xlink:href="#DejaVuSans-114"/>
     <use x="310.681641" xlink:href="#DejaVuSans-97"/>
     <use x="371.960938" xlink:href="#DejaVuSans-99"/>
     <use x="426.941406" xlink:href="#DejaVuSans-116"/>
    </g>
   </g>
   <g id="text_15">
    <!-- best 2016 -->
    <defs>
     <path d="M 48.6875 27.296875 
Q 48.6875 37.203125 44.609375 42.84375 
Q 40.53125 48.484375 33.40625 48.484375 
Q 26.265625 48.484375 22.1875 42.84375 
Q 18.109375 37.203125 18.109375 27.296875 
Q 18.109375 17.390625 22.1875 11.75 
Q 26.265625 6.109375 33.40625 6.109375 
Q 40.53125 6.109375 44.609375 11.75 
Q 48.6875 17.390625 48.6875 27.296875 
z
M 18.109375 46.390625 
Q 20.953125 51.265625 25.265625 53.625 
Q 29.59375 56 35.59375 56 
Q 45.5625 56 51.78125 48.09375 
Q 58.015625 40.1875 58.015625 27.296875 
Q 58.015625 14.40625 51.78125 6.484375 
Q 45.5625 -1.421875 35.59375 -1.421875 
Q 29.59375 -1.421875 25.265625 0.953125 
Q 20.953125 3.328125 18.109375 8.203125 
L 18.109375 0 
L 9.078125 0 
L 9.078125 75.984375 
L 18.109375 75.984375 
z
" id="DejaVuSans-98"/>
    </defs>
    <g transform="translate(375.22944 16.923809)scale(0.17 -0.17)">
     <use xlink:href="#DejaVuSans-98"/>
     <use x="63.476562" xlink:href="#DejaVuSans-101"/>
     <use x="125" xlink:href="#DejaVuSans-115"/>
     <use x="177.099609" xlink:href="#DejaVuSans-116"/>
     <use x="216.308594" xlink:href="#DejaVuSans-32"/>
     <use x="248.095703" xlink:href="#DejaVuSans-50"/>
     <use x="311.71875" xlink:href="#DejaVuSans-48"/>
     <use x="375.341797" xlink:href="#DejaVuSans-49"/>
     <use x="438.964844" xlink:href="#DejaVuSans-54"/>
    </g>
   </g>
   <g id="text_16">
    <!-- bbob-biobj f1, f2, f11, 2-D -->
    <defs>
     <path d="M 9.421875 54.6875 
L 18.40625 54.6875 
L 18.40625 -0.984375 
Q 18.40625 -11.421875 14.421875 -16.109375 
Q 10.453125 -20.796875 1.609375 -20.796875 
L -1.8125 -20.796875 
L -1.8125 -13.1875 
L 0.59375 -13.1875 
Q 5.71875 -13.1875 7.5625 -10.8125 
Q 9.421875 -8.453125 9.421875 -0.984375 
z
M 9.421875 75.984375 
L 18.40625 75.984375 
L 18.40625 64.59375 
L 9.421875 64.59375 
z
" id="DejaVuSans-106"/>
     <path d="M 19.671875 64.796875 
L 19.671875 8.109375 
L 31.59375 8.109375 
Q 46.6875 8.109375 53.6875 14.9375 
Q 60.6875 21.78125 60.6875 36.53125 
Q 60.6875 51.171875 53.6875 57.984375 
Q 46.6875 64.796875 31.59375 64.796875 
z
M 9.8125 72.90625 
L 30.078125 72.90625 
Q 51.265625 72.90625 61.171875 64.09375 
Q 71.09375 55.28125 71.09375 36.53125 
Q 71.09375 17.671875 61.125 8.828125 
Q 51.171875 0 30.078125 0 
L 9.8125 0 
z
" id="DejaVuSans-68"/>
    </defs>
    <g transform="translate(60.41088 14.161286)scale(0.102 -0.102)">
     <use xlink:href="#DejaVuSans-98"/>
     <use x="63.476562" xlink:href="#DejaVuSans-98"/>
     <use x="126.953125" xlink:href="#DejaVuSans-111"/>
     <use x="188.134766" xlink:href="#DejaVuSans-98"/>
     <use x="251.611328" xlink:href="#DejaVuSans-45"/>
     <use x="287.695312" xlink:href="#DejaVuSans-98"/>
     <use x="351.171875" xlink:href="#DejaVuSans-105"/>
     <use x="378.955078" xlink:href="#DejaVuSans-111"/>
     <use x="440.136719" xlink:href="#DejaVuSans-98"/>
     <use x="503.613281" xlink:href="#DejaVuSans-106"/>
     <use x="531.396484" xlink:href="#DejaVuSans-32"/>
     <use x="563.183594" xlink:href="#DejaVuSans-102"/>
     <use x="598.388672" xlink:href="#DejaVuSans-49"/>
     <use x="662.011719" xlink:href="#DejaVuSans-44"/>
     <use x="693.798828" xlink:href="#DejaVuSans-32"/>
     <use x="725.585938" xlink:href="#DejaVuSans-102"/>
     <use x="760.791016" xlink:href="#DejaVuSans-50"/>
     <use x="824.414062" xlink:href="#DejaVuSans-44"/>
     <use x="856.201172" xlink:href="#DejaVuSans-32"/>
     <use x="887.988281" xlink:href="#DejaVuSans-102"/>
     <use x="923.193359" xlink:href="#DejaVuSans-49"/>
     <use x="986.816406" xlink:href="#DejaVuSans-49"/>
     <use x="1050.439453" xlink:href="#DejaVuSans-44"/>
     <use x="1082.226562" xlink:href="#DejaVuSans-32"/>
     <use x="1114.013672" xlink:href="#DejaVuSans-50"/>
     <use x="1177.636719" xlink:href="#DejaVuSans-45"/>
     <use x="1213.720703" xlink:href="#DejaVuSans-68"/>
    </g>
    <!-- 58 targets: 1..-1.0e-4 -->
    <defs>
     <path d="M 10.796875 72.90625 
L 49.515625 72.90625 
L 49.515625 64.59375 
L 19.828125 64.59375 
L 19.828125 46.734375 
Q 21.96875 47.46875 24.109375 47.828125 
Q 26.265625 48.1875 28.421875 48.1875 
Q 40.625 48.1875 47.75 41.5 
Q 54.890625 34.8125 54.890625 23.390625 
Q 54.890625 11.625 47.5625 5.09375 
Q 40.234375 -1.421875 26.90625 -1.421875 
Q 22.3125 -1.421875 17.546875 -0.640625 
Q 12.796875 0.140625 7.71875 1.703125 
L 7.71875 11.625 
Q 12.109375 9.234375 16.796875 8.0625 
Q 21.484375 6.890625 26.703125 6.890625 
Q 35.15625 6.890625 40.078125 11.328125 
Q 45.015625 15.765625 45.015625 23.390625 
Q 45.015625 31 40.078125 35.4375 
Q 35.15625 39.890625 26.703125 39.890625 
Q 22.75 39.890625 18.8125 39.015625 
Q 14.890625 38.140625 10.796875 36.28125 
z
" id="DejaVuSans-53"/>
     <path d="M 11.71875 12.40625 
L 22.015625 12.40625 
L 22.015625 0 
L 11.71875 0 
z
M 11.71875 51.703125 
L 22.015625 51.703125 
L 22.015625 39.3125 
L 11.71875 39.3125 
z
" id="DejaVuSans-58"/>
    </defs>
    <g transform="translate(60.41088 25.583055)scale(0.102 -0.102)">
     <use xlink:href="#DejaVuSans-53"/>
     <use x="63.623047" xlink:href="#DejaVuSans-56"/>
     <use x="127.246094" xlink:href="#DejaVuSans-32"/>
     <use x="159.033203" xlink:href="#DejaVuSans-116"/>
     <use x="198.242188" xlink:href="#DejaVuSans-97"/>
     <use x="259.521484" xlink:href="#DejaVuSans-114"/>
     <use x="300.619141" xlink:href="#DejaVuSans-103"/>
     <use x="364.095703" xlink:href="#DejaVuSans-101"/>
     <use x="425.619141" xlink:href="#DejaVuSans-116"/>
     <use x="464.828125" xlink:href="#DejaVuSans-115"/>
     <use x="516.927734" xlink:href="#DejaVuSans-58"/>
     <use x="550.619141" xlink:href="#DejaVuSans-32"/>
     <use x="582.40625" xlink:href="#DejaVuSans-49"/>
     <use x="646.029297" xlink:href="#DejaVuSans-46"/>
     <use x="677.816406" xlink:href="#DejaVuSans-46"/>
     <use x="709.603516" xlink:href="#DejaVuSans-45"/>
     <use x="745.6875" xlink:href="#DejaVuSans-49"/>
     <use x="809.310547" xlink:href="#DejaVuSans-46"/>
     <use x="841.097656" xlink:href="#DejaVuSans-48"/>
     <use x="904.720703" xlink:href="#DejaVuSans-101"/>
     <use x="966.244141" xlink:href="#DejaVuSans-45"/>
     <use x="1002.328125" xlink:href="#DejaVuSans-52"/>
    </g>
    <!-- 3 instances -->
    <defs>
     <path d="M 40.578125 39.3125 
Q 47.65625 37.796875 51.625 33 
Q 55.609375 28.21875 55.609375 21.1875 
Q 55.609375 10.40625 48.1875 4.484375 
Q 40.765625 -1.421875 27.09375 -1.421875 
Q 22.515625 -1.421875 17.65625 -0.515625 
Q 12.796875 0.390625 7.625 2.203125 
L 7.625 11.71875 
Q 11.71875 9.328125 16.59375 8.109375 
Q 21.484375 6.890625 26.8125 6.890625 
Q 36.078125 6.890625 40.9375 10.546875 
Q 45.796875 14.203125 45.796875 21.1875 
Q 45.796875 27.640625 41.28125 31.265625 
Q 36.765625 34.90625 28.71875 34.90625 
L 20.21875 34.90625 
L 20.21875 43.015625 
L 29.109375 43.015625 
Q 36.375 43.015625 40.234375 45.921875 
Q 44.09375 48.828125 44.09375 54.296875 
Q 44.09375 59.90625 40.109375 62.90625 
Q 36.140625 65.921875 28.71875 65.921875 
Q 24.65625 65.921875 20.015625 65.03125 
Q 15.375 64.15625 9.8125 62.3125 
L 9.8125 71.09375 
Q 15.4375 72.65625 20.34375 73.4375 
Q 25.25 74.21875 29.59375 74.21875 
Q 40.828125 74.21875 47.359375 69.109375 
Q 53.90625 64.015625 53.90625 55.328125 
Q 53.90625 49.265625 50.4375 45.09375 
Q 46.96875 40.921875 40.578125 39.3125 
z
" id="DejaVuSans-51"/>
    </defs>
    <g transform="translate(60.41088 37.004824)scale(0.102 -0.102)">
     <use xlink:href="#DejaVuSans-51"/>
     <use x="63.623047" xlink:href="#DejaVuSans-32"/>
     <use x="95.410156" xlink:href="#DejaVuSans-105"/>
     <use x="123.193359" xlink:href="#DejaVuSans-110"/>
     <use x="186.572266" xlink:href="#DejaVuSans-115"/>
     <use x="238.671875" xlink:href="#DejaVuSans-116"/>
     <use x="277.880859" xlink:href="#DejaVuSans-97"/>
     <use x="339.160156" xlink:href="#DejaVuSans-110"/>
     <use x="402.539062" xlink:href="#DejaVuSans-99"/>
     <use x="457.519531" xlink:href="#DejaVuSans-101"/>
     <use x="519.042969" xlink:href="#DejaVuSans-115"/>
    </g>
   </g>
   <g id="text_17">
    <!-- v2.3.3.43 -->
    <g style="fill:#808080;" transform="translate(174.511187 293.909432)scale(0.1 -0.1)">
     <use xlink:href="#DejaVuSans-118"/>
     <use x="59.179688" xlink:href="#DejaVuSans-50"/>
     <use x="122.802734" xlink:href="#DejaVuSans-46"/>
     <use x="154.589844" xlink:href="#DejaVuSans-51"/>
     <use x="218.212891" xlink:href="#DejaVuSans-46"/>
     <use x="250" xlink:href="#DejaVuSans-51"/>
     <use x="313.623047" xlink:href="#DejaVuSans-46"/>
     <use x="345.410156" xlink:href="#DejaVuSans-52"/>
     <use x="409.033203" xlink:href="#DejaVuSans-51"/>
    </g>
   </g>
  </g>
 </g>
 <defs>
  <clipPath id="p23396e3b80">
   <rect height="295.488" width="281.088" x="57.6" y="3.456"/>
  </clipPath>
 </defs>
</svg>
