<?xml version="1.0" encoding="utf-8" standalone="no"?>
<!DOCTYPE svg PUBLIC "-//W3C//DTD SVG 1.1//EN"
  "http://www.w3.org/Graphics/SVG/1.1/DTD/svg11.dtd">
<!-- Created with matplotlib (https://matplotlib.org/) -->
<svg height="345.6pt" version="1.1" viewBox="0 0 460.8 345.6" width="460.8pt" xmlns="http://www.w3.org/2000/svg" xmlns:xlink="http://www.w3.org/1999/xlink">
 <metadata>
  <rdf:RDF xmlns:cc="http://creativecommons.org/ns#" xmlns:dc="http://purl.org/dc/elements/1.1/" xmlns:rdf="http://www.w3.org/1999/02/22-rdf-syntax-ns#">
   <cc:Work>
    <dc:type rdf:resource="http://purl.org/dc/dcmitype/StillImage"/>
    <dc:date>2021-01-04T15:41:34.961256</dc:date>
    <dc:format>image/svg+xml</dc:format>
    <dc:creator>
     <cc:Agent>
      <dc:title>Matplotlib v3.3.2, https://matplotlib.org/</dc:title>
     </cc:Agent>
    </dc:creator>
   </cc:Work>
  </rdf:RDF>
 </metadata>
 <defs>
  <style type="text/css">*{stroke-linecap:butt;stroke-linejoin:round;}</style>
 </defs>
 <g id="figure_1">
  <g id="patch_1">
   <path d="M 0 345.6 
L 460.8 345.6 
L 460.8 0 
L 0 0 
z
" style="fill:#ffffff;"/>
  </g>
  <g id="axes_1">
   <g id="patch_2">
    <path d="M 57.6 298.944 
L 338.688 298.944 
L 338.688 27.648 
L 57.6 27.648 
z
" style="fill:#ffffff;"/>
   </g>
   <g id="line2d_1">
    <path d="M 39.291857 298.944 
L 39.291857 294.312795 
L 77.609874 294.312795 
L 77.609874 285.050384 
L 139.918342 285.050384 
L 139.918342 275.787974 
L 152.665934 275.787974 
L 152.665934 271.156769 
L 155.460254 271.156769 
L 155.460254 257.263153 
L 157.211708 257.263153 
L 157.211708 248.000743 
L 169.117115 248.000743 
L 169.117115 243.369538 
L 171.929391 243.369538 
L 171.929391 234.107127 
L 206.057699 234.107127 
L 206.057699 220.213512 
L 211.345101 220.213512 
L 211.345101 210.951101 
L 214.776603 210.951101 
L 214.776603 201.688691 
L 217.361857 201.688691 
L 217.361857 192.426281 
L 218.507886 192.426281 
L 218.507886 187.795075 
L 261.824864 187.795075 
L 261.824864 173.90146 
L 261.954894 173.90146 
L 261.954894 169.270255 
L 262.100331 169.270255 
L 262.100331 155.376639 
L 262.265467 155.376639 
L 262.265467 146.114229 
L 262.4313 146.114229 
L 262.4313 141.483024 
L 262.683785 141.483024 
L 262.683785 127.589408 
L 262.911274 127.589408 
L 262.911274 122.958203 
L 263.569313 122.958203 
L 263.569313 109.064587 
L 276.19121 109.064587 
L 276.19121 99.802177 
L 276.494463 99.802177 
L 276.494463 90.539766 
L 276.916896 90.539766 
L 276.916896 85.908561 
L 277.953207 85.908561 
L 277.953207 76.646151 
L 280.938239 76.646151 
L 280.938239 62.752535 
L 338.688 62.752535 
" style="fill:none;stroke:#f5deb3;stroke-linecap:square;stroke-width:4;"/>
   </g>
   <g id="line2d_2">
    <defs>
     <path d="M 0 7.778175 
L 7.778175 0 
L 0 -7.778175 
L -7.778175 0 
z
" id="m10979c2861" style="stroke:#f5deb3;stroke-linejoin:miter;stroke-width:1.5;"/>
    </defs>
    <g>
     <use style="fill:#f5deb3;stroke:#f5deb3;stroke-linejoin:miter;stroke-width:1.5;" x="152.665934" xlink:href="#m10979c2861" y="271.156769"/>
     <use style="fill:#f5deb3;stroke:#f5deb3;stroke-linejoin:miter;stroke-width:1.5;" x="211.345101" xlink:href="#m10979c2861" y="220.213512"/>
     <use style="fill:#f5deb3;stroke:#f5deb3;stroke-linejoin:miter;stroke-width:1.5;" x="263.569313" xlink:href="#m10979c2861" y="122.958203"/>
     <use style="fill:#f5deb3;stroke:#f5deb3;stroke-linejoin:miter;stroke-width:1.5;" x="280.938239" xlink:href="#m10979c2861" y="62.752535"/>
     <use style="fill:#f5deb3;stroke:#f5deb3;stroke-linejoin:miter;stroke-width:1.5;" x="280.938239" xlink:href="#m10979c2861" y="62.752535"/>
     <use style="fill:#f5deb3;stroke:#f5deb3;stroke-linejoin:miter;stroke-width:1.5;" x="338.688" xlink:href="#m10979c2861" y="62.752535"/>
    </g>
   </g>
   <g id="line2d_3">
    <path style="fill:none;stroke:#f5deb3;stroke-linecap:square;stroke-width:4;"/>
    <g/>
   </g>
   <g id="line2d_4">
    <path d="M 338.688 62.752535 
L 369.60768 35.706297 
" style="fill:none;stroke:#f5deb3;stroke-linecap:square;stroke-width:4;"/>
    <g>
     <use style="fill:#f5deb3;stroke:#f5deb3;stroke-linejoin:miter;stroke-width:1.5;" x="338.688" xlink:href="#m10979c2861" y="62.752535"/>
     <use style="fill:#f5deb3;stroke:#f5deb3;stroke-linejoin:miter;stroke-width:1.5;" x="369.60768" xlink:href="#m10979c2861" y="35.706297"/>
    </g>
   </g>
   <g id="matplotlib.axis_1">
    <g id="xtick_1">
     <g id="line2d_5">
      <path clip-path="url(#pc337b429d5)" d="M 57.6 298.944 
L 57.6 27.648 
" style="fill:none;stroke:#b0b0b0;stroke-linecap:square;stroke-width:0.8;"/>
     </g>
     <g id="line2d_6">
      <defs>
       <path d="M 0 0 
L 0 3.5 
" id="ma8f5fc3607" style="stroke:#000000;stroke-width:0.8;"/>
      </defs>
      <g>
       <use style="stroke:#000000;stroke-width:0.8;" x="57.6" xlink:href="#ma8f5fc3607" y="298.944"/>
      </g>
     </g>
     <g id="text_1">
      <!-- 0 -->
      <g transform="translate(51.2375 321.140875)scale(0.2 -0.2)">
       <defs>
        <path d="M 31.78125 66.40625 
Q 24.171875 66.40625 20.328125 58.90625 
Q 16.5 51.421875 16.5 36.375 
Q 16.5 21.390625 20.328125 13.890625 
Q 24.171875 6.390625 31.78125 6.390625 
Q 39.453125 6.390625 43.28125 13.890625 
Q 47.125 21.390625 47.125 36.375 
Q 47.125 51.421875 43.28125 58.90625 
Q 39.453125 66.40625 31.78125 66.40625 
z
M 31.78125 74.21875 
Q 44.046875 74.21875 50.515625 64.515625 
Q 56.984375 54.828125 56.984375 36.375 
Q 56.984375 17.96875 50.515625 8.265625 
Q 44.046875 -1.421875 31.78125 -1.421875 
Q 19.53125 -1.421875 13.0625 8.265625 
Q 6.59375 17.96875 6.59375 36.375 
Q 6.59375 54.828125 13.0625 64.515625 
Q 19.53125 74.21875 31.78125 74.21875 
z
" id="DejaVuSans-48"/>
       </defs>
       <use xlink:href="#DejaVuSans-48"/>
      </g>
     </g>
    </g>
    <g id="xtick_2">
     <g id="line2d_7">
      <path clip-path="url(#pc337b429d5)" d="M 137.910857 298.944 
L 137.910857 27.648 
" style="fill:none;stroke:#b0b0b0;stroke-linecap:square;stroke-width:0.8;"/>
     </g>
     <g id="line2d_8">
      <g>
       <use style="stroke:#000000;stroke-width:0.8;" x="137.910857" xlink:href="#ma8f5fc3607" y="298.944"/>
      </g>
     </g>
     <g id="text_2">
      <!-- 2 -->
      <g transform="translate(131.548357 321.140875)scale(0.2 -0.2)">
       <defs>
        <path d="M 19.1875 8.296875 
L 53.609375 8.296875 
L 53.609375 0 
L 7.328125 0 
L 7.328125 8.296875 
Q 12.9375 14.109375 22.625 23.890625 
Q 32.328125 33.6875 34.8125 36.53125 
Q 39.546875 41.84375 41.421875 45.53125 
Q 43.3125 49.21875 43.3125 52.78125 
Q 43.3125 58.59375 39.234375 62.25 
Q 35.15625 65.921875 28.609375 65.921875 
Q 23.96875 65.921875 18.8125 64.3125 
Q 13.671875 62.703125 7.8125 59.421875 
L 7.8125 69.390625 
Q 13.765625 71.78125 18.9375 73 
Q 24.125 74.21875 28.421875 74.21875 
Q 39.75 74.21875 46.484375 68.546875 
Q 53.21875 62.890625 53.21875 53.421875 
Q 53.21875 48.921875 51.53125 44.890625 
Q 49.859375 40.875 45.40625 35.40625 
Q 44.1875 33.984375 37.640625 27.21875 
Q 31.109375 20.453125 19.1875 8.296875 
z
" id="DejaVuSans-50"/>
       </defs>
       <use xlink:href="#DejaVuSans-50"/>
      </g>
     </g>
    </g>
    <g id="xtick_3">
     <g id="line2d_9">
      <path clip-path="url(#pc337b429d5)" d="M 218.221714 298.944 
L 218.221714 27.648 
" style="fill:none;stroke:#b0b0b0;stroke-linecap:square;stroke-width:0.8;"/>
     </g>
     <g id="line2d_10">
      <g>
       <use style="stroke:#000000;stroke-width:0.8;" x="218.221714" xlink:href="#ma8f5fc3607" y="298.944"/>
      </g>
     </g>
     <g id="text_3">
      <!-- 4 -->
      <g transform="translate(211.859214 321.140875)scale(0.2 -0.2)">
       <defs>
        <path d="M 37.796875 64.3125 
L 12.890625 25.390625 
L 37.796875 25.390625 
z
M 35.203125 72.90625 
L 47.609375 72.90625 
L 47.609375 25.390625 
L 58.015625 25.390625 
L 58.015625 17.1875 
L 47.609375 17.1875 
L 47.609375 0 
L 37.796875 0 
L 37.796875 17.1875 
L 4.890625 17.1875 
L 4.890625 26.703125 
z
" id="DejaVuSans-52"/>
       </defs>
       <use xlink:href="#DejaVuSans-52"/>
      </g>
     </g>
    </g>
    <g id="xtick_4">
     <g id="line2d_11">
      <path clip-path="url(#pc337b429d5)" d="M 298.532571 298.944 
L 298.532571 27.648 
" style="fill:none;stroke:#b0b0b0;stroke-linecap:square;stroke-width:0.8;"/>
     </g>
     <g id="line2d_12">
      <g>
       <use style="stroke:#000000;stroke-width:0.8;" x="298.532571" xlink:href="#ma8f5fc3607" y="298.944"/>
      </g>
     </g>
     <g id="text_4">
      <!-- 6 -->
      <g transform="translate(292.170071 321.140875)scale(0.2 -0.2)">
       <defs>
        <path d="M 33.015625 40.375 
Q 26.375 40.375 22.484375 35.828125 
Q 18.609375 31.296875 18.609375 23.390625 
Q 18.609375 15.53125 22.484375 10.953125 
Q 26.375 6.390625 33.015625 6.390625 
Q 39.65625 6.390625 43.53125 10.953125 
Q 47.40625 15.53125 47.40625 23.390625 
Q 47.40625 31.296875 43.53125 35.828125 
Q 39.65625 40.375 33.015625 40.375 
z
M 52.59375 71.296875 
L 52.59375 62.3125 
Q 48.875 64.0625 45.09375 64.984375 
Q 41.3125 65.921875 37.59375 65.921875 
Q 27.828125 65.921875 22.671875 59.328125 
Q 17.53125 52.734375 16.796875 39.40625 
Q 19.671875 43.65625 24.015625 45.921875 
Q 28.375 48.1875 33.59375 48.1875 
Q 44.578125 48.1875 50.953125 41.515625 
Q 57.328125 34.859375 57.328125 23.390625 
Q 57.328125 12.15625 50.6875 5.359375 
Q 44.046875 -1.421875 33.015625 -1.421875 
Q 20.359375 -1.421875 13.671875 8.265625 
Q 6.984375 17.96875 6.984375 36.375 
Q 6.984375 53.65625 15.1875 63.9375 
Q 23.390625 74.21875 37.203125 74.21875 
Q 40.921875 74.21875 44.703125 73.484375 
Q 48.484375 72.75 52.59375 71.296875 
z
" id="DejaVuSans-54"/>
       </defs>
       <use xlink:href="#DejaVuSans-54"/>
      </g>
     </g>
    </g>
    <g id="xtick_5">
     <g id="line2d_13">
      <path clip-path="url(#pc337b429d5)" d="M 97.755429 298.944 
L 97.755429 27.648 
" style="fill:none;stroke:#b0b0b0;stroke-linecap:square;stroke-width:0.8;"/>
     </g>
     <g id="line2d_14">
      <defs>
       <path d="M 0 0 
L 0 2 
" id="m3a5dfd1ce1" style="stroke:#000000;stroke-width:0.6;"/>
      </defs>
      <g>
       <use style="stroke:#000000;stroke-width:0.6;" x="97.755429" xlink:href="#m3a5dfd1ce1" y="298.944"/>
      </g>
     </g>
    </g>
    <g id="xtick_6">
     <g id="line2d_15">
      <path clip-path="url(#pc337b429d5)" d="M 178.066286 298.944 
L 178.066286 27.648 
" style="fill:none;stroke:#b0b0b0;stroke-linecap:square;stroke-width:0.8;"/>
     </g>
     <g id="line2d_16">
      <g>
       <use style="stroke:#000000;stroke-width:0.6;" x="178.066286" xlink:href="#m3a5dfd1ce1" y="298.944"/>
      </g>
     </g>
    </g>
    <g id="xtick_7">
     <g id="line2d_17">
      <path clip-path="url(#pc337b429d5)" d="M 258.377143 298.944 
L 258.377143 27.648 
" style="fill:none;stroke:#b0b0b0;stroke-linecap:square;stroke-width:0.8;"/>
     </g>
     <g id="line2d_18">
      <g>
       <use style="stroke:#000000;stroke-width:0.6;" x="258.377143" xlink:href="#m3a5dfd1ce1" y="298.944"/>
      </g>
     </g>
    </g>
    <g id="xtick_8">
     <g id="line2d_19">
      <path clip-path="url(#pc337b429d5)" d="M 338.688 298.944 
L 338.688 27.648 
" style="fill:none;stroke:#b0b0b0;stroke-linecap:square;stroke-width:0.8;"/>
     </g>
     <g id="line2d_20">
      <g>
       <use style="stroke:#000000;stroke-width:0.6;" x="338.688" xlink:href="#m3a5dfd1ce1" y="298.944"/>
      </g>
     </g>
    </g>
    <g id="text_5">
     <!-- log10(# f-evals / dimension) -->
     <g transform="translate(77.764078 342.217594)scale(0.17 -0.17)">
      <defs>
       <path d="M 9.421875 75.984375 
L 18.40625 75.984375 
L 18.40625 0 
L 9.421875 0 
z
" id="DejaVuSans-108"/>
       <path d="M 30.609375 48.390625 
Q 23.390625 48.390625 19.1875 42.75 
Q 14.984375 37.109375 14.984375 27.296875 
Q 14.984375 17.484375 19.15625 11.84375 
Q 23.34375 6.203125 30.609375 6.203125 
Q 37.796875 6.203125 41.984375 11.859375 
Q 46.1875 17.53125 46.1875 27.296875 
Q 46.1875 37.015625 41.984375 42.703125 
Q 37.796875 48.390625 30.609375 48.390625 
z
M 30.609375 56 
Q 42.328125 56 49.015625 48.375 
Q 55.71875 40.765625 55.71875 27.296875 
Q 55.71875 13.875 49.015625 6.21875 
Q 42.328125 -1.421875 30.609375 -1.421875 
Q 18.84375 -1.421875 12.171875 6.21875 
Q 5.515625 13.875 5.515625 27.296875 
Q 5.515625 40.765625 12.171875 48.375 
Q 18.84375 56 30.609375 56 
z
" id="DejaVuSans-111"/>
       <path d="M 45.40625 27.984375 
Q 45.40625 37.75 41.375 43.109375 
Q 37.359375 48.484375 30.078125 48.484375 
Q 22.859375 48.484375 18.828125 43.109375 
Q 14.796875 37.75 14.796875 27.984375 
Q 14.796875 18.265625 18.828125 12.890625 
Q 22.859375 7.515625 30.078125 7.515625 
Q 37.359375 7.515625 41.375 12.890625 
Q 45.40625 18.265625 45.40625 27.984375 
z
M 54.390625 6.78125 
Q 54.390625 -7.171875 48.1875 -13.984375 
Q 42 -20.796875 29.203125 -20.796875 
Q 24.46875 -20.796875 20.265625 -20.09375 
Q 16.0625 -19.390625 12.109375 -17.921875 
L 12.109375 -9.1875 
Q 16.0625 -11.328125 19.921875 -12.34375 
Q 23.78125 -13.375 27.78125 -13.375 
Q 36.625 -13.375 41.015625 -8.765625 
Q 45.40625 -4.15625 45.40625 5.171875 
L 45.40625 9.625 
Q 42.625 4.78125 38.28125 2.390625 
Q 33.9375 0 27.875 0 
Q 17.828125 0 11.671875 7.65625 
Q 5.515625 15.328125 5.515625 27.984375 
Q 5.515625 40.671875 11.671875 48.328125 
Q 17.828125 56 27.875 56 
Q 33.9375 56 38.28125 53.609375 
Q 42.625 51.21875 45.40625 46.390625 
L 45.40625 54.6875 
L 54.390625 54.6875 
z
" id="DejaVuSans-103"/>
       <path d="M 12.40625 8.296875 
L 28.515625 8.296875 
L 28.515625 63.921875 
L 10.984375 60.40625 
L 10.984375 69.390625 
L 28.421875 72.90625 
L 38.28125 72.90625 
L 38.28125 8.296875 
L 54.390625 8.296875 
L 54.390625 0 
L 12.40625 0 
z
" id="DejaVuSans-49"/>
       <path d="M 31 75.875 
Q 24.46875 64.65625 21.28125 53.65625 
Q 18.109375 42.671875 18.109375 31.390625 
Q 18.109375 20.125 21.3125 9.0625 
Q 24.515625 -2 31 -13.1875 
L 23.1875 -13.1875 
Q 15.875 -1.703125 12.234375 9.375 
Q 8.59375 20.453125 8.59375 31.390625 
Q 8.59375 42.28125 12.203125 53.3125 
Q 15.828125 64.359375 23.1875 75.875 
z
" id="DejaVuSans-40"/>
       <path d="M 51.125 44 
L 36.921875 44 
L 32.8125 27.6875 
L 47.125 27.6875 
z
M 43.796875 71.78125 
L 38.71875 51.515625 
L 52.984375 51.515625 
L 58.109375 71.78125 
L 65.921875 71.78125 
L 60.890625 51.515625 
L 76.125 51.515625 
L 76.125 44 
L 58.984375 44 
L 54.984375 27.6875 
L 70.515625 27.6875 
L 70.515625 20.21875 
L 53.078125 20.21875 
L 48 0 
L 40.1875 0 
L 45.21875 20.21875 
L 30.90625 20.21875 
L 25.875 0 
L 18.015625 0 
L 23.09375 20.21875 
L 7.71875 20.21875 
L 7.71875 27.6875 
L 24.90625 27.6875 
L 29 44 
L 13.28125 44 
L 13.28125 51.515625 
L 30.90625 51.515625 
L 35.890625 71.78125 
z
" id="DejaVuSans-35"/>
       <path id="DejaVuSans-32"/>
       <path d="M 37.109375 75.984375 
L 37.109375 68.5 
L 28.515625 68.5 
Q 23.6875 68.5 21.796875 66.546875 
Q 19.921875 64.59375 19.921875 59.515625 
L 19.921875 54.6875 
L 34.71875 54.6875 
L 34.71875 47.703125 
L 19.921875 47.703125 
L 19.921875 0 
L 10.890625 0 
L 10.890625 47.703125 
L 2.296875 47.703125 
L 2.296875 54.6875 
L 10.890625 54.6875 
L 10.890625 58.5 
Q 10.890625 67.625 15.140625 71.796875 
Q 19.390625 75.984375 28.609375 75.984375 
z
" id="DejaVuSans-102"/>
       <path d="M 4.890625 31.390625 
L 31.203125 31.390625 
L 31.203125 23.390625 
L 4.890625 23.390625 
z
" id="DejaVuSans-45"/>
       <path d="M 56.203125 29.59375 
L 56.203125 25.203125 
L 14.890625 25.203125 
Q 15.484375 15.921875 20.484375 11.0625 
Q 25.484375 6.203125 34.421875 6.203125 
Q 39.59375 6.203125 44.453125 7.46875 
Q 49.3125 8.734375 54.109375 11.28125 
L 54.109375 2.78125 
Q 49.265625 0.734375 44.1875 -0.34375 
Q 39.109375 -1.421875 33.890625 -1.421875 
Q 20.796875 -1.421875 13.15625 6.1875 
Q 5.515625 13.8125 5.515625 26.8125 
Q 5.515625 40.234375 12.765625 48.109375 
Q 20.015625 56 32.328125 56 
Q 43.359375 56 49.78125 48.890625 
Q 56.203125 41.796875 56.203125 29.59375 
z
M 47.21875 32.234375 
Q 47.125 39.59375 43.09375 43.984375 
Q 39.0625 48.390625 32.421875 48.390625 
Q 24.90625 48.390625 20.390625 44.140625 
Q 15.875 39.890625 15.1875 32.171875 
z
" id="DejaVuSans-101"/>
       <path d="M 2.984375 54.6875 
L 12.5 54.6875 
L 29.59375 8.796875 
L 46.6875 54.6875 
L 56.203125 54.6875 
L 35.6875 0 
L 23.484375 0 
z
" id="DejaVuSans-118"/>
       <path d="M 34.28125 27.484375 
Q 23.390625 27.484375 19.1875 25 
Q 14.984375 22.515625 14.984375 16.5 
Q 14.984375 11.71875 18.140625 8.90625 
Q 21.296875 6.109375 26.703125 6.109375 
Q 34.1875 6.109375 38.703125 11.40625 
Q 43.21875 16.703125 43.21875 25.484375 
L 43.21875 27.484375 
z
M 52.203125 31.203125 
L 52.203125 0 
L 43.21875 0 
L 43.21875 8.296875 
Q 40.140625 3.328125 35.546875 0.953125 
Q 30.953125 -1.421875 24.3125 -1.421875 
Q 15.921875 -1.421875 10.953125 3.296875 
Q 6 8.015625 6 15.921875 
Q 6 25.140625 12.171875 29.828125 
Q 18.359375 34.515625 30.609375 34.515625 
L 43.21875 34.515625 
L 43.21875 35.40625 
Q 43.21875 41.609375 39.140625 45 
Q 35.0625 48.390625 27.6875 48.390625 
Q 23 48.390625 18.546875 47.265625 
Q 14.109375 46.140625 10.015625 43.890625 
L 10.015625 52.203125 
Q 14.9375 54.109375 19.578125 55.046875 
Q 24.21875 56 28.609375 56 
Q 40.484375 56 46.34375 49.84375 
Q 52.203125 43.703125 52.203125 31.203125 
z
" id="DejaVuSans-97"/>
       <path d="M 44.28125 53.078125 
L 44.28125 44.578125 
Q 40.484375 46.53125 36.375 47.5 
Q 32.28125 48.484375 27.875 48.484375 
Q 21.1875 48.484375 17.84375 46.4375 
Q 14.5 44.390625 14.5 40.28125 
Q 14.5 37.15625 16.890625 35.375 
Q 19.28125 33.59375 26.515625 31.984375 
L 29.59375 31.296875 
Q 39.15625 29.25 43.1875 25.515625 
Q 47.21875 21.78125 47.21875 15.09375 
Q 47.21875 7.46875 41.1875 3.015625 
Q 35.15625 -1.421875 24.609375 -1.421875 
Q 20.21875 -1.421875 15.453125 -0.5625 
Q 10.6875 0.296875 5.421875 2 
L 5.421875 11.28125 
Q 10.40625 8.6875 15.234375 7.390625 
Q 20.0625 6.109375 24.8125 6.109375 
Q 31.15625 6.109375 34.5625 8.28125 
Q 37.984375 10.453125 37.984375 14.40625 
Q 37.984375 18.0625 35.515625 20.015625 
Q 33.0625 21.96875 24.703125 23.78125 
L 21.578125 24.515625 
Q 13.234375 26.265625 9.515625 29.90625 
Q 5.8125 33.546875 5.8125 39.890625 
Q 5.8125 47.609375 11.28125 51.796875 
Q 16.75 56 26.8125 56 
Q 31.78125 56 36.171875 55.265625 
Q 40.578125 54.546875 44.28125 53.078125 
z
" id="DejaVuSans-115"/>
       <path d="M 25.390625 72.90625 
L 33.6875 72.90625 
L 8.296875 -9.28125 
L 0 -9.28125 
z
" id="DejaVuSans-47"/>
       <path d="M 45.40625 46.390625 
L 45.40625 75.984375 
L 54.390625 75.984375 
L 54.390625 0 
L 45.40625 0 
L 45.40625 8.203125 
Q 42.578125 3.328125 38.25 0.953125 
Q 33.9375 -1.421875 27.875 -1.421875 
Q 17.96875 -1.421875 11.734375 6.484375 
Q 5.515625 14.40625 5.515625 27.296875 
Q 5.515625 40.1875 11.734375 48.09375 
Q 17.96875 56 27.875 56 
Q 33.9375 56 38.25 53.625 
Q 42.578125 51.265625 45.40625 46.390625 
z
M 14.796875 27.296875 
Q 14.796875 17.390625 18.875 11.75 
Q 22.953125 6.109375 30.078125 6.109375 
Q 37.203125 6.109375 41.296875 11.75 
Q 45.40625 17.390625 45.40625 27.296875 
Q 45.40625 37.203125 41.296875 42.84375 
Q 37.203125 48.484375 30.078125 48.484375 
Q 22.953125 48.484375 18.875 42.84375 
Q 14.796875 37.203125 14.796875 27.296875 
z
" id="DejaVuSans-100"/>
       <path d="M 9.421875 54.6875 
L 18.40625 54.6875 
L 18.40625 0 
L 9.421875 0 
z
M 9.421875 75.984375 
L 18.40625 75.984375 
L 18.40625 64.59375 
L 9.421875 64.59375 
z
" id="DejaVuSans-105"/>
       <path d="M 52 44.1875 
Q 55.375 50.25 60.0625 53.125 
Q 64.75 56 71.09375 56 
Q 79.640625 56 84.28125 50.015625 
Q 88.921875 44.046875 88.921875 33.015625 
L 88.921875 0 
L 79.890625 0 
L 79.890625 32.71875 
Q 79.890625 40.578125 77.09375 44.375 
Q 74.3125 48.1875 68.609375 48.1875 
Q 61.625 48.1875 57.5625 43.546875 
Q 53.515625 38.921875 53.515625 30.90625 
L 53.515625 0 
L 44.484375 0 
L 44.484375 32.71875 
Q 44.484375 40.625 41.703125 44.40625 
Q 38.921875 48.1875 33.109375 48.1875 
Q 26.21875 48.1875 22.15625 43.53125 
Q 18.109375 38.875 18.109375 30.90625 
L 18.109375 0 
L 9.078125 0 
L 9.078125 54.6875 
L 18.109375 54.6875 
L 18.109375 46.1875 
Q 21.1875 51.21875 25.484375 53.609375 
Q 29.78125 56 35.6875 56 
Q 41.65625 56 45.828125 52.96875 
Q 50 49.953125 52 44.1875 
z
" id="DejaVuSans-109"/>
       <path d="M 54.890625 33.015625 
L 54.890625 0 
L 45.90625 0 
L 45.90625 32.71875 
Q 45.90625 40.484375 42.875 44.328125 
Q 39.84375 48.1875 33.796875 48.1875 
Q 26.515625 48.1875 22.3125 43.546875 
Q 18.109375 38.921875 18.109375 30.90625 
L 18.109375 0 
L 9.078125 0 
L 9.078125 54.6875 
L 18.109375 54.6875 
L 18.109375 46.1875 
Q 21.34375 51.125 25.703125 53.5625 
Q 30.078125 56 35.796875 56 
Q 45.21875 56 50.046875 50.171875 
Q 54.890625 44.34375 54.890625 33.015625 
z
" id="DejaVuSans-110"/>
       <path d="M 8.015625 75.875 
L 15.828125 75.875 
Q 23.140625 64.359375 26.78125 53.3125 
Q 30.421875 42.28125 30.421875 31.390625 
Q 30.421875 20.453125 26.78125 9.375 
Q 23.140625 -1.703125 15.828125 -13.1875 
L 8.015625 -13.1875 
Q 14.5 -2 17.703125 9.0625 
Q 20.90625 20.125 20.90625 31.390625 
Q 20.90625 42.671875 17.703125 53.65625 
Q 14.5 64.65625 8.015625 75.875 
z
" id="DejaVuSans-41"/>
      </defs>
      <use xlink:href="#DejaVuSans-108"/>
      <use x="27.783203" xlink:href="#DejaVuSans-111"/>
      <use x="88.964844" xlink:href="#DejaVuSans-103"/>
      <use x="152.441406" xlink:href="#DejaVuSans-49"/>
      <use x="216.064453" xlink:href="#DejaVuSans-48"/>
      <use x="279.6875" xlink:href="#DejaVuSans-40"/>
      <use x="318.701172" xlink:href="#DejaVuSans-35"/>
      <use x="402.490234" xlink:href="#DejaVuSans-32"/>
      <use x="434.277344" xlink:href="#DejaVuSans-102"/>
      <use x="463.982422" xlink:href="#DejaVuSans-45"/>
      <use x="500.066406" xlink:href="#DejaVuSans-101"/>
      <use x="561.589844" xlink:href="#DejaVuSans-118"/>
      <use x="620.769531" xlink:href="#DejaVuSans-97"/>
      <use x="682.048828" xlink:href="#DejaVuSans-108"/>
      <use x="709.832031" xlink:href="#DejaVuSans-115"/>
      <use x="761.931641" xlink:href="#DejaVuSans-32"/>
      <use x="793.71875" xlink:href="#DejaVuSans-47"/>
      <use x="827.410156" xlink:href="#DejaVuSans-32"/>
      <use x="859.197266" xlink:href="#DejaVuSans-100"/>
      <use x="922.673828" xlink:href="#DejaVuSans-105"/>
      <use x="950.457031" xlink:href="#DejaVuSans-109"/>
      <use x="1047.869141" xlink:href="#DejaVuSans-101"/>
      <use x="1109.392578" xlink:href="#DejaVuSans-110"/>
      <use x="1172.771484" xlink:href="#DejaVuSans-115"/>
      <use x="1224.871094" xlink:href="#DejaVuSans-105"/>
      <use x="1252.654297" xlink:href="#DejaVuSans-111"/>
      <use x="1313.835938" xlink:href="#DejaVuSans-110"/>
      <use x="1377.214844" xlink:href="#DejaVuSans-41"/>
     </g>
    </g>
   </g>
   <g id="matplotlib.axis_2">
    <g id="ytick_1">
     <g id="line2d_21">
      <path clip-path="url(#pc337b429d5)" d="M 57.6 298.944 
L 338.688 298.944 
" style="fill:none;stroke:#b0b0b0;stroke-linecap:square;stroke-width:0.8;"/>
     </g>
     <g id="line2d_22">
      <defs>
       <path d="M 0 0 
L -3.5 0 
" id="m3de6736bfa" style="stroke:#000000;stroke-width:0.8;"/>
      </defs>
      <g>
       <use style="stroke:#000000;stroke-width:0.8;" x="57.6" xlink:href="#m3de6736bfa" y="298.944"/>
      </g>
     </g>
     <g id="text_6">
      <!-- 0.0 -->
      <g transform="translate(25.155 305.02275)scale(0.16 -0.16)">
       <defs>
        <path d="M 10.6875 12.40625 
L 21 12.40625 
L 21 0 
L 10.6875 0 
z
" id="DejaVuSans-46"/>
       </defs>
       <use xlink:href="#DejaVuSans-48"/>
       <use x="63.623047" xlink:href="#DejaVuSans-46"/>
       <use x="95.410156" xlink:href="#DejaVuSans-48"/>
      </g>
     </g>
    </g>
    <g id="ytick_2">
     <g id="line2d_23">
      <path clip-path="url(#pc337b429d5)" d="M 57.6 245.22202 
L 338.688 245.22202 
" style="fill:none;stroke:#b0b0b0;stroke-linecap:square;stroke-width:0.8;"/>
     </g>
     <g id="line2d_24">
      <g>
       <use style="stroke:#000000;stroke-width:0.8;" x="57.6" xlink:href="#m3de6736bfa" y="245.22202"/>
      </g>
     </g>
     <g id="text_7">
      <!-- 0.2 -->
      <g transform="translate(25.155 251.30077)scale(0.16 -0.16)">
       <use xlink:href="#DejaVuSans-48"/>
       <use x="63.623047" xlink:href="#DejaVuSans-46"/>
       <use x="95.410156" xlink:href="#DejaVuSans-50"/>
      </g>
     </g>
    </g>
    <g id="ytick_3">
     <g id="line2d_25">
      <path clip-path="url(#pc337b429d5)" d="M 57.6 191.50004 
L 338.688 191.50004 
" style="fill:none;stroke:#b0b0b0;stroke-linecap:square;stroke-width:0.8;"/>
     </g>
     <g id="line2d_26">
      <g>
       <use style="stroke:#000000;stroke-width:0.8;" x="57.6" xlink:href="#m3de6736bfa" y="191.50004"/>
      </g>
     </g>
     <g id="text_8">
      <!-- 0.4 -->
      <g transform="translate(25.155 197.57879)scale(0.16 -0.16)">
       <use xlink:href="#DejaVuSans-48"/>
       <use x="63.623047" xlink:href="#DejaVuSans-46"/>
       <use x="95.410156" xlink:href="#DejaVuSans-52"/>
      </g>
     </g>
    </g>
    <g id="ytick_4">
     <g id="line2d_27">
      <path clip-path="url(#pc337b429d5)" d="M 57.6 137.778059 
L 338.688 137.778059 
" style="fill:none;stroke:#b0b0b0;stroke-linecap:square;stroke-width:0.8;"/>
     </g>
     <g id="line2d_28">
      <g>
       <use style="stroke:#000000;stroke-width:0.8;" x="57.6" xlink:href="#m3de6736bfa" y="137.778059"/>
      </g>
     </g>
     <g id="text_9">
      <!-- 0.6 -->
      <g transform="translate(25.155 143.856809)scale(0.16 -0.16)">
       <use xlink:href="#DejaVuSans-48"/>
       <use x="63.623047" xlink:href="#DejaVuSans-46"/>
       <use x="95.410156" xlink:href="#DejaVuSans-54"/>
      </g>
     </g>
    </g>
    <g id="ytick_5">
     <g id="line2d_29">
      <path clip-path="url(#pc337b429d5)" d="M 57.6 84.056079 
L 338.688 84.056079 
" style="fill:none;stroke:#b0b0b0;stroke-linecap:square;stroke-width:0.8;"/>
     </g>
     <g id="line2d_30">
      <g>
       <use style="stroke:#000000;stroke-width:0.8;" x="57.6" xlink:href="#m3de6736bfa" y="84.056079"/>
      </g>
     </g>
     <g id="text_10">
      <!-- 0.8 -->
      <g transform="translate(25.155 90.134829)scale(0.16 -0.16)">
       <defs>
        <path d="M 31.78125 34.625 
Q 24.75 34.625 20.71875 30.859375 
Q 16.703125 27.09375 16.703125 20.515625 
Q 16.703125 13.921875 20.71875 10.15625 
Q 24.75 6.390625 31.78125 6.390625 
Q 38.8125 6.390625 42.859375 10.171875 
Q 46.921875 13.96875 46.921875 20.515625 
Q 46.921875 27.09375 42.890625 30.859375 
Q 38.875 34.625 31.78125 34.625 
z
M 21.921875 38.8125 
Q 15.578125 40.375 12.03125 44.71875 
Q 8.5 49.078125 8.5 55.328125 
Q 8.5 64.0625 14.71875 69.140625 
Q 20.953125 74.21875 31.78125 74.21875 
Q 42.671875 74.21875 48.875 69.140625 
Q 55.078125 64.0625 55.078125 55.328125 
Q 55.078125 49.078125 51.53125 44.71875 
Q 48 40.375 41.703125 38.8125 
Q 48.828125 37.15625 52.796875 32.3125 
Q 56.78125 27.484375 56.78125 20.515625 
Q 56.78125 9.90625 50.3125 4.234375 
Q 43.84375 -1.421875 31.78125 -1.421875 
Q 19.734375 -1.421875 13.25 4.234375 
Q 6.78125 9.90625 6.78125 20.515625 
Q 6.78125 27.484375 10.78125 32.3125 
Q 14.796875 37.15625 21.921875 38.8125 
z
M 18.3125 54.390625 
Q 18.3125 48.734375 21.84375 45.5625 
Q 25.390625 42.390625 31.78125 42.390625 
Q 38.140625 42.390625 41.71875 45.5625 
Q 45.3125 48.734375 45.3125 54.390625 
Q 45.3125 60.0625 41.71875 63.234375 
Q 38.140625 66.40625 31.78125 66.40625 
Q 25.390625 66.40625 21.84375 63.234375 
Q 18.3125 60.0625 18.3125 54.390625 
z
" id="DejaVuSans-56"/>
       </defs>
       <use xlink:href="#DejaVuSans-48"/>
       <use x="63.623047" xlink:href="#DejaVuSans-46"/>
       <use x="95.410156" xlink:href="#DejaVuSans-56"/>
      </g>
     </g>
    </g>
    <g id="ytick_6">
     <g id="line2d_31">
      <path clip-path="url(#pc337b429d5)" d="M 57.6 30.334099 
L 338.688 30.334099 
" style="fill:none;stroke:#b0b0b0;stroke-linecap:square;stroke-width:0.8;"/>
     </g>
     <g id="line2d_32">
      <g>
       <use style="stroke:#000000;stroke-width:0.8;" x="57.6" xlink:href="#m3de6736bfa" y="30.334099"/>
      </g>
     </g>
     <g id="text_11">
      <!-- 1.0 -->
      <g transform="translate(25.155 36.412849)scale(0.16 -0.16)">
       <use xlink:href="#DejaVuSans-49"/>
       <use x="63.623047" xlink:href="#DejaVuSans-46"/>
       <use x="95.410156" xlink:href="#DejaVuSans-48"/>
      </g>
     </g>
    </g>
    <g id="text_12">
     <!-- Fraction of function,target pairs -->
     <g transform="translate(17.619531 297.681)rotate(-90)scale(0.17 -0.17)">
      <defs>
       <path d="M 9.8125 72.90625 
L 51.703125 72.90625 
L 51.703125 64.59375 
L 19.671875 64.59375 
L 19.671875 43.109375 
L 48.578125 43.109375 
L 48.578125 34.8125 
L 19.671875 34.8125 
L 19.671875 0 
L 9.8125 0 
z
" id="DejaVuSans-70"/>
       <path d="M 41.109375 46.296875 
Q 39.59375 47.171875 37.8125 47.578125 
Q 36.03125 48 33.890625 48 
Q 26.265625 48 22.1875 43.046875 
Q 18.109375 38.09375 18.109375 28.8125 
L 18.109375 0 
L 9.078125 0 
L 9.078125 54.6875 
L 18.109375 54.6875 
L 18.109375 46.1875 
Q 20.953125 51.171875 25.484375 53.578125 
Q 30.03125 56 36.53125 56 
Q 37.453125 56 38.578125 55.875 
Q 39.703125 55.765625 41.0625 55.515625 
z
" id="DejaVuSans-114"/>
       <path d="M 48.78125 52.59375 
L 48.78125 44.1875 
Q 44.96875 46.296875 41.140625 47.34375 
Q 37.3125 48.390625 33.40625 48.390625 
Q 24.65625 48.390625 19.8125 42.84375 
Q 14.984375 37.3125 14.984375 27.296875 
Q 14.984375 17.28125 19.8125 11.734375 
Q 24.65625 6.203125 33.40625 6.203125 
Q 37.3125 6.203125 41.140625 7.25 
Q 44.96875 8.296875 48.78125 10.40625 
L 48.78125 2.09375 
Q 45.015625 0.34375 40.984375 -0.53125 
Q 36.96875 -1.421875 32.421875 -1.421875 
Q 20.0625 -1.421875 12.78125 6.34375 
Q 5.515625 14.109375 5.515625 27.296875 
Q 5.515625 40.671875 12.859375 48.328125 
Q 20.21875 56 33.015625 56 
Q 37.15625 56 41.109375 55.140625 
Q 45.0625 54.296875 48.78125 52.59375 
z
" id="DejaVuSans-99"/>
       <path d="M 18.3125 70.21875 
L 18.3125 54.6875 
L 36.8125 54.6875 
L 36.8125 47.703125 
L 18.3125 47.703125 
L 18.3125 18.015625 
Q 18.3125 11.328125 20.140625 9.421875 
Q 21.96875 7.515625 27.59375 7.515625 
L 36.8125 7.515625 
L 36.8125 0 
L 27.59375 0 
Q 17.1875 0 13.234375 3.875 
Q 9.28125 7.765625 9.28125 18.015625 
L 9.28125 47.703125 
L 2.6875 47.703125 
L 2.6875 54.6875 
L 9.28125 54.6875 
L 9.28125 70.21875 
z
" id="DejaVuSans-116"/>
       <path d="M 8.5 21.578125 
L 8.5 54.6875 
L 17.484375 54.6875 
L 17.484375 21.921875 
Q 17.484375 14.15625 20.5 10.265625 
Q 23.53125 6.390625 29.59375 6.390625 
Q 36.859375 6.390625 41.078125 11.03125 
Q 45.3125 15.671875 45.3125 23.6875 
L 45.3125 54.6875 
L 54.296875 54.6875 
L 54.296875 0 
L 45.3125 0 
L 45.3125 8.40625 
Q 42.046875 3.421875 37.71875 1 
Q 33.40625 -1.421875 27.6875 -1.421875 
Q 18.265625 -1.421875 13.375 4.4375 
Q 8.5 10.296875 8.5 21.578125 
z
M 31.109375 56 
z
" id="DejaVuSans-117"/>
       <path d="M 11.71875 12.40625 
L 22.015625 12.40625 
L 22.015625 4 
L 14.015625 -11.625 
L 7.71875 -11.625 
L 11.71875 4 
z
" id="DejaVuSans-44"/>
       <path d="M 18.109375 8.203125 
L 18.109375 -20.796875 
L 9.078125 -20.796875 
L 9.078125 54.6875 
L 18.109375 54.6875 
L 18.109375 46.390625 
Q 20.953125 51.265625 25.265625 53.625 
Q 29.59375 56 35.59375 56 
Q 45.5625 56 51.78125 48.09375 
Q 58.015625 40.1875 58.015625 27.296875 
Q 58.015625 14.40625 51.78125 6.484375 
Q 45.5625 -1.421875 35.59375 -1.421875 
Q 29.59375 -1.421875 25.265625 0.953125 
Q 20.953125 3.328125 18.109375 8.203125 
z
M 48.6875 27.296875 
Q 48.6875 37.203125 44.609375 42.84375 
Q 40.53125 48.484375 33.40625 48.484375 
Q 26.265625 48.484375 22.1875 42.84375 
Q 18.109375 37.203125 18.109375 27.296875 
Q 18.109375 17.390625 22.1875 11.75 
Q 26.265625 6.109375 33.40625 6.109375 
Q 40.53125 6.109375 44.609375 11.75 
Q 48.6875 17.390625 48.6875 27.296875 
z
" id="DejaVuSans-112"/>
      </defs>
      <use xlink:href="#DejaVuSans-70"/>
      <use x="50.269531" xlink:href="#DejaVuSans-114"/>
      <use x="91.382812" xlink:href="#DejaVuSans-97"/>
      <use x="152.662109" xlink:href="#DejaVuSans-99"/>
      <use x="207.642578" xlink:href="#DejaVuSans-116"/>
      <use x="246.851562" xlink:href="#DejaVuSans-105"/>
      <use x="274.634766" xlink:href="#DejaVuSans-111"/>
      <use x="335.816406" xlink:href="#DejaVuSans-110"/>
      <use x="399.195312" xlink:href="#DejaVuSans-32"/>
      <use x="430.982422" xlink:href="#DejaVuSans-111"/>
      <use x="492.164062" xlink:href="#DejaVuSans-102"/>
      <use x="527.369141" xlink:href="#DejaVuSans-32"/>
      <use x="559.15625" xlink:href="#DejaVuSans-102"/>
      <use x="594.361328" xlink:href="#DejaVuSans-117"/>
      <use x="657.740234" xlink:href="#DejaVuSans-110"/>
      <use x="721.119141" xlink:href="#DejaVuSans-99"/>
      <use x="776.099609" xlink:href="#DejaVuSans-116"/>
      <use x="815.308594" xlink:href="#DejaVuSans-105"/>
      <use x="843.091797" xlink:href="#DejaVuSans-111"/>
      <use x="904.273438" xlink:href="#DejaVuSans-110"/>
      <use x="967.652344" xlink:href="#DejaVuSans-44"/>
      <use x="999.439453" xlink:href="#DejaVuSans-116"/>
      <use x="1038.648438" xlink:href="#DejaVuSans-97"/>
      <use x="1099.927734" xlink:href="#DejaVuSans-114"/>
      <use x="1139.291016" xlink:href="#DejaVuSans-103"/>
      <use x="1202.767578" xlink:href="#DejaVuSans-101"/>
      <use x="1264.291016" xlink:href="#DejaVuSans-116"/>
      <use x="1303.5" xlink:href="#DejaVuSans-32"/>
      <use x="1335.287109" xlink:href="#DejaVuSans-112"/>
      <use x="1398.763672" xlink:href="#DejaVuSans-97"/>
      <use x="1460.042969" xlink:href="#DejaVuSans-105"/>
      <use x="1487.826172" xlink:href="#DejaVuSans-114"/>
      <use x="1528.939453" xlink:href="#DejaVuSans-115"/>
     </g>
    </g>
   </g>
   <g id="line2d_33">
    <defs>
     <path d="M 0 1.5 
C 0.397805 1.5 0.77937 1.341951 1.06066 1.06066 
C 1.341951 0.77937 1.5 0.397805 1.5 0 
C 1.5 -0.397805 1.341951 -0.77937 1.06066 -1.06066 
C 0.77937 -1.341951 0.397805 -1.5 0 -1.5 
C -0.397805 -1.5 -0.77937 -1.341951 -1.06066 -1.06066 
C -1.341951 -0.77937 -1.5 -0.397805 -1.5 0 
C -1.5 0.397805 -1.341951 0.77937 -1.06066 1.06066 
C -0.77937 1.341951 -0.397805 1.5 0 1.5 
z
" id="mdff6947045" style="stroke:#f5deb3;"/>
    </defs>
    <g>
     <use style="fill:#f5deb3;stroke:#f5deb3;" x="280.938239" xlink:href="#mdff6947045" y="62.752535"/>
     <use style="fill:#f5deb3;stroke:#f5deb3;" x="280.938239" xlink:href="#mdff6947045" y="62.752535"/>
    </g>
   </g>
   <g id="line2d_34">
    <defs>
     <path d="M 0 1.5 
C 0.397805 1.5 0.77937 1.341951 1.06066 1.06066 
C 1.341951 0.77937 1.5 0.397805 1.5 0 
C 1.5 -0.397805 1.341951 -0.77937 1.06066 -1.06066 
C 0.77937 -1.341951 0.397805 -1.5 0 -1.5 
C -0.397805 -1.5 -0.77937 -1.341951 -1.06066 -1.06066 
C -1.341951 -0.77937 -1.5 -0.397805 -1.5 0 
C -1.5 0.397805 -1.341951 0.77937 -1.06066 1.06066 
C -0.77937 1.341951 -0.397805 1.5 0 1.5 
z
" id="maf53f95192" style="stroke:#000080;"/>
    </defs>
    <g>
     <use style="fill:#000080;stroke:#000080;" x="217.51562" xlink:href="#maf53f95192" y="227.62344"/>
     <use style="fill:#000080;stroke:#000080;" x="217.51562" xlink:href="#maf53f95192" y="227.62344"/>
    </g>
   </g>
   <g id="line2d_35">
    <path d="M 5.356583 298.944 
L 5.356583 295.239036 
L 60.037348 295.239036 
L 60.037348 293.849674 
L 71.35013 293.849674 
L 71.35013 293.386554 
L 83.037197 293.386554 
L 83.037197 292.923433 
L 86.847358 292.923433 
L 86.847358 288.755349 
L 89.972502 288.755349 
L 89.972502 287.365987 
L 92.621809 287.365987 
L 92.621809 282.734782 
L 94.921215 282.734782 
L 94.921215 281.34542 
L 96.952455 281.34542 
L 96.952455 279.956059 
L 98.771596 279.956059 
L 98.771596 278.566697 
L 100.418775 278.566697 
L 100.418775 277.177336 
L 101.923711 277.177336 
L 101.923711 276.251095 
L 103.309033 276.251095 
L 103.309033 274.861733 
L 104.592361 274.861733 
L 104.592361 273.472371 
L 105.787689 273.472371 
L 105.787689 272.54613 
L 106.906317 272.54613 
L 106.906317 271.619889 
L 108.948899 271.619889 
L 108.948899 270.693648 
L 114.685115 270.693648 
L 114.685115 270.230528 
L 119.502775 270.230528 
L 119.502775 268.378046 
L 120.524615 268.378046 
L 120.524615 267.914925 
L 121.013926 267.914925 
L 121.013926 266.988684 
L 123.692353 266.988684 
L 123.692353 266.525564 
L 125.647598 266.525564 
L 125.647598 265.599323 
L 127.40556 265.599323 
L 127.40556 265.136202 
L 132.326708 265.136202 
L 132.326708 264.673082 
L 132.823992 264.673082 
L 132.823992 264.209961 
L 133.788988 264.209961 
L 133.788988 263.28372 
L 134.019394 263.28372 
L 134.019394 262.8206 
L 136.361705 262.8206 
L 136.361705 262.357479 
L 136.96118 262.357479 
L 136.96118 261.894358 
L 141.528123 261.894358 
L 141.528123 261.431238 
L 141.968939 261.431238 
L 141.968939 260.968117 
L 144.777223 260.968117 
L 144.777223 260.504997 
L 145.149647 260.504997 
L 145.149647 259.115635 
L 145.270136 259.115635 
L 145.270136 258.652515 
L 145.389799 258.652515 
L 145.389799 258.189394 
L 145.743936 258.189394 
L 145.743936 257.726274 
L 146.08557 257.726274 
L 146.08557 257.263153 
L 146.875005 257.263153 
L 146.875005 256.336912 
L 147.087524 256.336912 
L 147.087524 255.410671 
L 149.60198 255.410671 
L 149.60198 254.947551 
L 150.176688 254.947551 
L 150.176688 254.02131 
L 150.624038 254.02131 
L 150.624038 253.095069 
L 151.553643 253.095069 
L 151.553643 252.631948 
L 155.904009 252.631948 
L 155.904009 251.705707 
L 156.098691 251.705707 
L 156.098691 250.779466 
L 156.481653 250.779466 
L 156.481653 250.316346 
L 164.014478 250.316346 
L 164.014478 249.853225 
L 164.299057 249.853225 
L 164.299057 249.390104 
L 164.973287 249.390104 
L 164.973287 248.463863 
L 166.072216 248.463863 
L 166.072216 247.537622 
L 167.325286 247.537622 
L 167.325286 247.074502 
L 167.460363 247.074502 
L 167.460363 246.611381 
L 167.594401 246.611381 
L 167.594401 246.148261 
L 173.25964 246.148261 
L 173.307818 244.758899 
L 176.773494 244.758899 
L 176.773494 243.832658 
L 177.854866 243.832658 
L 177.854866 242.906417 
L 178.057564 242.906417 
L 178.057564 241.980176 
L 179.00413 241.980176 
L 179.00413 241.053935 
L 179.831962 241.053935 
L 179.831962 240.590815 
L 180.600418 240.590815 
L 180.600418 240.127694 
L 183.505367 240.127694 
L 183.59895 239.201453 
L 183.625596 239.201453 
L 183.638904 237.812091 
L 184.664751 237.812091 
L 184.664751 237.348971 
L 185.078494 237.348971 
L 185.139631 235.033368 
L 185.657304 235.033368 
L 185.704636 233.644007 
L 191.691117 233.644007 
L 191.691117 233.180886 
L 192.321507 233.180886 
L 192.321507 232.717766 
L 192.717412 232.717766 
L 192.780532 230.865284 
L 196.87149 230.865284 
L 196.87149 230.402163 
L 202.168863 230.402163 
L 202.168863 229.475922 
L 204.312777 229.475922 
L 204.312777 229.012802 
L 207.532779 229.012802 
L 207.532779 228.086561 
L 217.51562 228.086561 
L 217.51562 227.62344 
L 338.688 227.62344 
L 338.688 227.62344 
" style="fill:none;stroke:#000080;stroke-linecap:square;stroke-width:1.5;"/>
   </g>
   <g id="line2d_36">
    <defs>
     <path d="M 0 6 
C 1.591219 6 3.117479 5.367802 4.242641 4.242641 
C 5.367802 3.117479 6 1.591219 6 0 
C 6 -1.591219 5.367802 -3.117479 4.242641 -4.242641 
C 3.117479 -5.367802 1.591219 -6 0 -6 
C -1.591219 -6 -3.117479 -5.367802 -4.242641 -4.242641 
C -5.367802 -3.117479 -6 -1.591219 -6 0 
C -6 1.591219 -5.367802 3.117479 -4.242641 4.242641 
C -3.117479 5.367802 -1.591219 6 0 6 
z
" id="m2769608f5d" style="stroke:#000080;stroke-width:1.5;"/>
    </defs>
    <g>
     <use style="fill-opacity:0;stroke:#000080;stroke-width:1.5;" x="123.692353" xlink:href="#m2769608f5d" y="266.988684"/>
     <use style="fill-opacity:0;stroke:#000080;stroke-width:1.5;" x="176.773494" xlink:href="#m2769608f5d" y="244.758899"/>
     <use style="fill-opacity:0;stroke:#000080;stroke-width:1.5;" x="217.51562" xlink:href="#m2769608f5d" y="228.086561"/>
     <use style="fill-opacity:0;stroke:#000080;stroke-width:1.5;" x="217.51562" xlink:href="#m2769608f5d" y="227.62344"/>
     <use style="fill-opacity:0;stroke:#000080;stroke-width:1.5;" x="217.51562" xlink:href="#m2769608f5d" y="227.62344"/>
     <use style="fill-opacity:0;stroke:#000080;stroke-width:1.5;" x="338.688" xlink:href="#m2769608f5d" y="227.62344"/>
    </g>
   </g>
   <g id="line2d_37">
    <path style="fill:none;stroke:#000080;stroke-linecap:square;stroke-width:1.5;"/>
    <g/>
   </g>
   <g id="line2d_38">
    <path clip-path="url(#pc337b429d5)" d="M 218.262823 227.62344 
" style="fill:none;stroke:#000080;stroke-linecap:square;stroke-width:1.5;"/>
    <defs>
     <path d="M -12 12 
L 12 -12 
M -12 -12 
L 12 12 
" id="mbce8941bde" style="stroke:#000080;"/>
    </defs>
    <g clip-path="url(#pc337b429d5)">
     <use style="fill:#000080;stroke:#000080;" x="218.262823" xlink:href="#mbce8941bde" y="227.62344"/>
    </g>
   </g>
   <g id="line2d_39">
    <defs>
     <path d="M 0 1.5 
C 0.397805 1.5 0.77937 1.341951 1.06066 1.06066 
C 1.341951 0.77937 1.5 0.397805 1.5 0 
C 1.5 -0.397805 1.341951 -0.77937 1.06066 -1.06066 
C 0.77937 -1.341951 0.397805 -1.5 0 -1.5 
C -0.397805 -1.5 -0.77937 -1.341951 -1.06066 -1.06066 
C -1.341951 -0.77937 -1.5 -0.397805 -1.5 0 
C -1.5 0.397805 -1.341951 0.77937 -1.06066 1.06066 
C -0.77937 1.341951 -0.397805 1.5 0 1.5 
z
" id="m13e42b702d" style="stroke:#ff00ff;"/>
    </defs>
    <g>
     <use style="fill:#ff00ff;stroke:#ff00ff;" x="215.924186" xlink:href="#m13e42b702d" y="222.529114"/>
     <use style="fill:#ff00ff;stroke:#ff00ff;" x="215.924186" xlink:href="#m13e42b702d" y="222.529114"/>
    </g>
   </g>
   <g id="line2d_40">
    <path d="M 5.356583 298.944 
L 5.356583 295.239036 
L 60.037348 295.239036 
L 60.037348 293.849674 
L 71.35013 293.849674 
L 71.35013 293.386554 
L 83.037197 293.386554 
L 83.037197 292.923433 
L 86.847358 292.923433 
L 86.847358 288.755349 
L 89.972502 288.755349 
L 89.972502 287.365987 
L 92.621809 287.365987 
L 92.621809 282.734782 
L 94.921215 282.734782 
L 94.921215 281.34542 
L 96.952455 281.34542 
L 96.952455 279.956059 
L 98.771596 279.956059 
L 98.771596 278.566697 
L 100.418775 278.566697 
L 100.418775 277.177336 
L 101.923711 277.177336 
L 101.923711 276.251095 
L 103.309033 276.251095 
L 103.309033 274.861733 
L 104.592361 274.861733 
L 104.592361 273.472371 
L 105.787689 273.472371 
L 105.787689 272.54613 
L 106.906317 272.54613 
L 106.906317 271.619889 
L 108.948899 271.619889 
L 108.948899 270.693648 
L 120.524615 270.693648 
L 120.524615 269.767407 
L 121.013926 269.767407 
L 121.013926 269.304287 
L 121.953191 269.304287 
L 121.953191 268.841166 
L 122.844443 268.841166 
L 122.844443 267.914925 
L 124.500941 267.914925 
L 124.500941 267.451805 
L 127.084089 267.451805 
L 127.084089 266.988684 
L 128.077285 266.988684 
L 128.077285 266.062443 
L 130.756803 266.062443 
L 130.756803 265.599323 
L 131.565689 265.599323 
L 131.565689 265.136202 
L 133.067415 265.136202 
L 133.067415 264.673082 
L 133.800029 264.673082 
L 133.800029 264.209961 
L 134.257551 264.209961 
L 134.257551 263.746841 
L 134.703375 263.746841 
L 134.703375 262.8206 
L 135.552244 262.8206 
L 135.552244 262.357479 
L 136.371232 262.357479 
L 136.371232 261.894358 
L 137.153477 261.894358 
L 137.153477 261.431238 
L 144.53439 261.431238 
L 144.552273 259.115635 
L 144.794859 259.115635 
L 144.794859 258.652515 
L 144.906143 258.652515 
L 144.906143 257.726274 
L 145.039911 257.726274 
L 145.039911 257.263153 
L 145.270136 257.263153 
L 145.270136 256.800033 
L 149.418147 256.800033 
L 149.418147 256.336912 
L 150.961462 256.336912 
L 150.961462 255.410671 
L 151.304621 255.410671 
L 151.304621 254.48443 
L 153.333934 254.48443 
L 153.333934 254.02131 
L 155.099539 254.02131 
L 155.099539 253.558189 
L 157.664184 253.558189 
L 157.664184 253.095069 
L 159.193535 253.095069 
L 159.193535 252.168828 
L 164.148635 252.168828 
L 164.229793 250.779466 
L 164.27023 250.779466 
L 164.27023 249.853225 
L 165.682828 249.853225 
L 165.682828 249.390104 
L 165.794217 249.390104 
L 165.794217 248.926984 
L 166.974711 248.926984 
L 166.974711 248.463863 
L 167.455557 248.463863 
L 167.55621 246.148261 
L 167.687935 246.148261 
L 167.788832 245.22202 
L 168.817393 245.22202 
L 168.86475 243.832658 
L 168.941432 243.832658 
L 168.941432 242.906417 
L 169.565775 242.906417 
L 169.674749 241.517056 
L 169.763406 241.517056 
L 169.763406 241.053935 
L 170.846398 241.053935 
L 170.846398 240.127694 
L 171.945501 240.127694 
L 171.945501 239.664574 
L 172.383371 239.664574 
L 172.383371 239.201453 
L 177.444973 239.201453 
L 177.444973 238.738333 
L 177.689925 238.738333 
L 177.689925 237.812091 
L 181.873138 237.812091 
L 181.873138 237.348971 
L 184.70353 237.348971 
L 184.70353 236.88585 
L 186.214787 236.88585 
L 186.214787 235.959609 
L 186.956746 235.959609 
L 187.044509 233.644007 
L 191.077239 233.644007 
L 191.077239 233.180886 
L 195.370758 233.180886 
L 195.370758 232.254645 
L 195.896467 232.254645 
L 195.896467 231.791525 
L 197.264778 231.791525 
L 197.264778 230.865284 
L 198.335806 230.865284 
L 198.335806 230.402163 
L 198.623864 230.402163 
L 198.623864 229.475922 
L 200.904808 229.475922 
L 200.904808 228.549681 
L 205.440883 228.549681 
L 205.440883 227.62344 
L 208.401623 227.62344 
L 208.472224 224.844717 
L 210.52414 224.844717 
L 210.52414 224.381596 
L 212.598366 224.381596 
L 212.598366 223.455355 
L 215.924186 223.455355 
L 215.924186 222.529114 
L 338.688 222.529114 
L 338.688 222.529114 
" style="fill:none;stroke:#ff00ff;stroke-linecap:square;stroke-width:1.5;"/>
   </g>
   <g id="line2d_41">
    <defs>
     <path d="M 0 8.485281 
L 5.091169 0 
L 0 -8.485281 
L -5.091169 0 
z
" id="m67fa1a6f3a" style="stroke:#ff00ff;stroke-linejoin:miter;stroke-width:1.5;"/>
    </defs>
    <g>
     <use style="fill-opacity:0;stroke:#ff00ff;stroke-linejoin:miter;stroke-width:1.5;" x="86.847358" xlink:href="#m67fa1a6f3a" y="292.923433"/>
     <use style="fill-opacity:0;stroke:#ff00ff;stroke-linejoin:miter;stroke-width:1.5;" x="137.153477" xlink:href="#m67fa1a6f3a" y="261.431238"/>
     <use style="fill-opacity:0;stroke:#ff00ff;stroke-linejoin:miter;stroke-width:1.5;" x="208.401623" xlink:href="#m67fa1a6f3a" y="227.16032"/>
     <use style="fill-opacity:0;stroke:#ff00ff;stroke-linejoin:miter;stroke-width:1.5;" x="215.924186" xlink:href="#m67fa1a6f3a" y="222.529114"/>
     <use style="fill-opacity:0;stroke:#ff00ff;stroke-linejoin:miter;stroke-width:1.5;" x="215.924186" xlink:href="#m67fa1a6f3a" y="222.529114"/>
     <use style="fill-opacity:0;stroke:#ff00ff;stroke-linejoin:miter;stroke-width:1.5;" x="338.688" xlink:href="#m67fa1a6f3a" y="222.529114"/>
    </g>
   </g>
   <g id="line2d_42">
    <path style="fill:none;stroke:#ff00ff;stroke-linecap:square;stroke-width:1.5;"/>
    <g/>
   </g>
   <g id="line2d_43">
    <path clip-path="url(#pc337b429d5)" d="M 218.259952 222.529114 
" style="fill:none;stroke:#ff00ff;stroke-linecap:square;stroke-width:1.5;"/>
    <defs>
     <path d="M -12 12 
L 12 -12 
M -12 -12 
L 12 12 
" id="md6fa50ea24" style="stroke:#ff00ff;"/>
    </defs>
    <g clip-path="url(#pc337b429d5)">
     <use style="fill:#ff00ff;stroke:#ff00ff;" x="218.259952" xlink:href="#md6fa50ea24" y="222.529114"/>
    </g>
   </g>
   <g id="line2d_44">
    <defs>
     <path d="M 0 1.5 
C 0.397805 1.5 0.77937 1.341951 1.06066 1.06066 
C 1.341951 0.77937 1.5 0.397805 1.5 0 
C 1.5 -0.397805 1.341951 -0.77937 1.06066 -1.06066 
C 0.77937 -1.341951 0.397805 -1.5 0 -1.5 
C -0.397805 -1.5 -0.77937 -1.341951 -1.06066 -1.06066 
C -1.341951 -0.77937 -1.5 -0.397805 -1.5 0 
C -1.5 0.397805 -1.341951 0.77937 -1.06066 1.06066 
C -0.77937 1.341951 -0.397805 1.5 0 1.5 
z
" id="m48bb732514" style="stroke:#ff7500;"/>
    </defs>
    <g>
     <use style="fill:#ff7500;stroke:#ff7500;" x="218.04979" xlink:href="#m48bb732514" y="224.844717"/>
     <use style="fill:#ff7500;stroke:#ff7500;" x="218.04979" xlink:href="#m48bb732514" y="224.844717"/>
    </g>
   </g>
   <g id="line2d_45">
    <path d="M 5.356583 298.944 
L 5.356583 295.239036 
L 60.037348 295.239036 
L 60.037348 293.849674 
L 71.35013 293.849674 
L 71.35013 293.386554 
L 83.037197 293.386554 
L 83.037197 292.923433 
L 86.847358 292.923433 
L 86.847358 288.755349 
L 89.972502 288.755349 
L 89.972502 287.365987 
L 92.621809 287.365987 
L 92.621809 282.734782 
L 94.921215 282.734782 
L 94.921215 281.34542 
L 96.952455 281.34542 
L 96.952455 279.956059 
L 98.771596 279.956059 
L 98.771596 278.566697 
L 100.418775 278.566697 
L 100.418775 277.177336 
L 101.923711 277.177336 
L 101.923711 276.251095 
L 103.309033 276.251095 
L 103.309033 274.861733 
L 104.592361 274.861733 
L 104.592361 273.472371 
L 105.787689 273.472371 
L 105.787689 272.54613 
L 106.906317 272.54613 
L 106.906317 271.619889 
L 108.948899 271.619889 
L 108.948899 270.693648 
L 118.968488 270.693648 
L 118.968488 270.230528 
L 121.974949 270.230528 
L 121.974949 269.767407 
L 122.425713 269.767407 
L 122.425713 269.304287 
L 122.865118 269.304287 
L 122.865118 268.841166 
L 124.500941 268.841166 
L 124.500941 267.914925 
L 126.72349 267.914925 
L 126.72349 267.451805 
L 127.736845 267.451805 
L 127.736845 266.988684 
L 128.061954 266.988684 
L 128.061954 265.599323 
L 128.381113 265.599323 
L 128.381113 264.673082 
L 131.565689 264.673082 
L 131.565689 264.209961 
L 131.814826 264.209961 
L 131.814826 263.746841 
L 132.326708 263.746841 
L 132.338714 262.8206 
L 132.588957 262.8206 
L 132.588957 262.357479 
L 133.5443 262.357479 
L 133.5443 261.894358 
L 134.236034 261.894358 
L 134.236034 261.431238 
L 135.127861 261.431238 
L 135.127861 260.968117 
L 137.144368 260.968117 
L 137.171681 259.578756 
L 137.343676 259.578756 
L 137.343676 258.189394 
L 137.902135 258.189394 
L 137.902135 257.726274 
L 138.084384 257.726274 
L 138.084384 256.800033 
L 138.264747 256.800033 
L 138.264747 255.873792 
L 139.139602 255.873792 
L 139.139602 255.410671 
L 139.477614 255.410671 
L 139.485583 254.48443 
L 140.937149 254.48443 
L 140.937149 253.558189 
L 142.120287 253.558189 
L 142.120287 253.095069 
L 142.405626 253.095069 
L 142.405626 252.168828 
L 142.546564 252.168828 
L 142.546564 251.242587 
L 142.831645 251.242587 
L 142.831645 250.316346 
L 145.7495 250.316346 
L 145.7495 249.853225 
L 146.659865 249.853225 
L 146.659865 249.390104 
L 149.323233 249.390104 
L 149.323233 248.926984 
L 152.314453 248.926984 
L 152.314453 248.000743 
L 156.806295 248.000743 
L 156.806295 247.074502 
L 158.077805 247.074502 
L 158.077805 246.611381 
L 159.349804 246.611381 
L 159.349804 246.148261 
L 160.03251 246.148261 
L 160.03251 245.22202 
L 166.485314 245.22202 
L 166.485314 244.295779 
L 167.252491 244.295779 
L 167.252491 243.832658 
L 167.466769 243.832658 
L 167.466769 243.369538 
L 167.634096 243.369538 
L 167.700579 241.980176 
L 168.701418 241.980176 
L 168.763962 240.590815 
L 169.028031 240.590815 
L 169.028031 240.127694 
L 169.286718 240.127694 
L 169.286718 239.201453 
L 171.45691 239.201453 
L 171.45691 238.275212 
L 175.202298 238.275212 
L 175.202298 237.348971 
L 176.230812 237.348971 
L 176.230812 236.42273 
L 178.184471 236.42273 
L 178.184471 235.496489 
L 178.365405 235.496489 
L 178.365405 235.033368 
L 192.924696 235.033368 
L 192.994852 234.107127 
L 200.275272 234.107127 
L 200.380128 231.791525 
L 200.410663 231.791525 
L 200.410663 230.865284 
L 201.155314 230.865284 
L 201.155314 230.402163 
L 203.375873 230.402163 
L 203.375873 229.475922 
L 207.052389 229.475922 
L 207.125363 228.086561 
L 210.311481 228.086561 
L 210.311481 227.62344 
L 212.841863 227.62344 
L 212.841863 226.697199 
L 213.158645 226.697199 
L 213.165988 225.307837 
L 218.04979 225.307837 
L 218.04979 224.844717 
L 338.688 224.844717 
L 338.688 224.844717 
" style="fill:none;stroke:#ff7500;stroke-linecap:square;stroke-width:1.5;"/>
   </g>
   <g id="line2d_46">
    <defs>
     <path d="M 0 -6 
L -1.347084 -1.854102 
L -5.706339 -1.854102 
L -2.179628 0.708204 
L -3.526712 4.854102 
L -0 2.291796 
L 3.526712 4.854102 
L 2.179628 0.708204 
L 5.706339 -1.854102 
L 1.347084 -1.854102 
z
" id="mf0d6529ff2" style="stroke:#ff7500;stroke-linejoin:bevel;stroke-width:1.5;"/>
    </defs>
    <g>
     <use style="fill-opacity:0;stroke:#ff7500;stroke-linejoin:bevel;stroke-width:1.5;" x="71.35013" xlink:href="#mf0d6529ff2" y="293.849674"/>
     <use style="fill-opacity:0;stroke:#ff7500;stroke-linejoin:bevel;stroke-width:1.5;" x="142.831645" xlink:href="#mf0d6529ff2" y="250.316346"/>
     <use style="fill-opacity:0;stroke:#ff7500;stroke-linejoin:bevel;stroke-width:1.5;" x="207.125363" xlink:href="#mf0d6529ff2" y="229.012802"/>
     <use style="fill-opacity:0;stroke:#ff7500;stroke-linejoin:bevel;stroke-width:1.5;" x="218.04979" xlink:href="#mf0d6529ff2" y="224.844717"/>
     <use style="fill-opacity:0;stroke:#ff7500;stroke-linejoin:bevel;stroke-width:1.5;" x="218.04979" xlink:href="#mf0d6529ff2" y="224.844717"/>
     <use style="fill-opacity:0;stroke:#ff7500;stroke-linejoin:bevel;stroke-width:1.5;" x="338.688" xlink:href="#mf0d6529ff2" y="224.844717"/>
    </g>
   </g>
   <g id="line2d_47">
    <path style="fill:none;stroke:#ff7500;stroke-linecap:square;stroke-width:1.5;"/>
    <g/>
   </g>
   <g id="line2d_48">
    <path clip-path="url(#pc337b429d5)" d="M 218.248637 224.844717 
" style="fill:none;stroke:#ff7500;stroke-linecap:square;stroke-width:1.5;"/>
    <defs>
     <path d="M -12 12 
L 12 -12 
M -12 -12 
L 12 12 
" id="md613d2d439" style="stroke:#ff7500;"/>
    </defs>
    <g clip-path="url(#pc337b429d5)">
     <use style="fill:#ff7500;stroke:#ff7500;" x="218.248637" xlink:href="#md613d2d439" y="224.844717"/>
    </g>
   </g>
   <g id="line2d_49">
    <defs>
     <path d="M 0 1.5 
C 0.397805 1.5 0.77937 1.341951 1.06066 1.06066 
C 1.341951 0.77937 1.5 0.397805 1.5 0 
C 1.5 -0.397805 1.341951 -0.77937 1.06066 -1.06066 
C 0.77937 -1.341951 0.397805 -1.5 0 -1.5 
C -0.397805 -1.5 -0.77937 -1.341951 -1.06066 -1.06066 
C -1.341951 -0.77937 -1.5 -0.397805 -1.5 0 
C -1.5 0.397805 -1.341951 0.77937 -1.06066 1.06066 
C -0.77937 1.341951 -0.397805 1.5 0 1.5 
z
" id="mbdb88d7449" style="stroke:#6495ed;"/>
    </defs>
    <g>
     <use style="fill:#6495ed;stroke:#6495ed;" x="214.320221" xlink:href="#mbdb88d7449" y="224.844717"/>
     <use style="fill:#6495ed;stroke:#6495ed;" x="214.320221" xlink:href="#mbdb88d7449" y="224.844717"/>
    </g>
   </g>
   <g id="line2d_50">
    <path d="M 5.356583 298.944 
L 5.356583 295.239036 
L 60.037348 295.239036 
L 60.037348 293.849674 
L 71.35013 293.849674 
L 71.35013 293.386554 
L 83.037197 293.386554 
L 83.037197 292.923433 
L 86.847358 292.923433 
L 86.847358 288.755349 
L 89.972502 288.755349 
L 89.972502 287.365987 
L 92.621809 287.365987 
L 92.621809 282.734782 
L 94.921215 282.734782 
L 94.921215 281.34542 
L 96.952455 281.34542 
L 96.952455 279.956059 
L 98.771596 279.956059 
L 98.771596 278.566697 
L 100.418775 278.566697 
L 100.418775 277.177336 
L 101.923711 277.177336 
L 101.923711 276.251095 
L 103.309033 276.251095 
L 103.309033 274.861733 
L 104.592361 274.861733 
L 104.592361 273.472371 
L 105.787689 273.472371 
L 105.787689 272.54613 
L 106.906317 272.54613 
L 106.906317 271.619889 
L 108.948899 271.619889 
L 108.948899 270.693648 
L 123.273551 270.693648 
L 123.273551 270.230528 
L 127.067859 270.230528 
L 127.067859 269.767407 
L 127.421479 269.767407 
L 127.421479 269.304287 
L 127.752464 269.304287 
L 127.752464 268.841166 
L 128.396166 268.841166 
L 128.396166 268.378046 
L 130.19592 268.378046 
L 130.19592 266.988684 
L 130.465258 266.988684 
L 130.465258 266.525564 
L 130.756803 266.525564 
L 130.756803 266.062443 
L 131.287464 266.062443 
L 131.312942 264.673082 
L 131.814826 264.673082 
L 131.82719 263.28372 
L 132.326708 263.28372 
L 132.326708 262.8206 
L 132.588957 262.8206 
L 132.588957 262.357479 
L 132.823992 262.357479 
L 132.835661 260.041876 
L 133.067415 260.041876 
L 133.067415 259.115635 
L 133.77794 259.115635 
L 133.77794 258.652515 
L 134.47127 258.652515 
L 134.47127 258.189394 
L 134.911732 258.189394 
L 134.911732 257.726274 
L 135.341343 257.726274 
L 135.341343 256.336912 
L 135.760625 256.336912 
L 135.760625 255.410671 
L 138.45172 255.410671 
L 138.45172 254.947551 
L 140.619053 254.947551 
L 140.619053 254.48443 
L 144.414696 254.48443 
L 144.414696 253.558189 
L 144.788982 253.558189 
L 144.788982 252.631948 
L 146.890644 252.631948 
L 146.890644 251.705707 
L 147.530079 251.705707 
L 147.635241 250.779466 
L 147.843681 250.779466 
L 147.843681 249.853225 
L 148.161434 249.853225 
L 148.161434 248.926984 
L 149.615356 248.926984 
L 149.615356 248.463863 
L 149.792721 248.463863 
L 149.792721 248.000743 
L 149.977033 248.000743 
L 149.977033 247.537622 
L 154.978716 247.537622 
L 154.978716 247.074502 
L 156.303376 247.074502 
L 156.303376 246.148261 
L 158.129851 246.148261 
L 158.129851 245.68514 
L 159.116165 245.68514 
L 159.188388 244.295779 
L 159.456591 244.295779 
L 159.456591 243.832658 
L 164.461516 243.832658 
L 164.461516 242.906417 
L 168.105054 242.906417 
L 168.105054 242.443297 
L 168.866228 242.443297 
L 168.866228 241.980176 
L 169.470397 241.980176 
L 169.560096 239.664574 
L 176.014414 239.664574 
L 176.014414 238.738333 
L 179.430216 238.738333 
L 179.439084 237.812091 
L 181.44956 237.812091 
L 181.44956 236.88585 
L 182.122985 236.88585 
L 182.122985 235.959609 
L 183.003505 235.959609 
L 183.003505 235.496489 
L 183.721691 235.496489 
L 183.721691 234.570248 
L 183.864223 234.570248 
L 183.864223 234.107127 
L 192.258633 234.107127 
L 192.323432 232.254645 
L 192.371873 232.254645 
L 192.371873 231.791525 
L 202.82766 231.791525 
L 202.836511 230.865284 
L 209.364073 230.865284 
L 209.364073 230.402163 
L 209.811404 230.402163 
L 209.811404 229.475922 
L 210.014862 229.475922 
L 210.058779 226.697199 
L 210.753784 226.697199 
L 210.753784 226.234079 
L 213.032411 226.234079 
L 213.032411 225.307837 
L 214.320221 225.307837 
L 214.320221 224.844717 
L 338.688 224.844717 
L 338.688 224.844717 
" style="fill:none;stroke:#6495ed;stroke-linecap:square;stroke-width:1.5;"/>
   </g>
   <g id="line2d_51">
    <defs>
     <path d="M -0 6 
L 6 -6 
L -6 -6 
z
" id="me0887d3dc4" style="stroke:#6495ed;stroke-linejoin:miter;stroke-width:1.5;"/>
    </defs>
    <g>
     <use style="fill-opacity:0;stroke:#6495ed;stroke-linejoin:miter;stroke-width:1.5;" x="101.923711" xlink:href="#me0887d3dc4" y="277.177336"/>
     <use style="fill-opacity:0;stroke:#6495ed;stroke-linejoin:miter;stroke-width:1.5;" x="149.977033" xlink:href="#me0887d3dc4" y="248.000743"/>
     <use style="fill-opacity:0;stroke:#6495ed;stroke-linejoin:miter;stroke-width:1.5;" x="214.320221" xlink:href="#me0887d3dc4" y="225.307837"/>
     <use style="fill-opacity:0;stroke:#6495ed;stroke-linejoin:miter;stroke-width:1.5;" x="214.320221" xlink:href="#me0887d3dc4" y="224.844717"/>
     <use style="fill-opacity:0;stroke:#6495ed;stroke-linejoin:miter;stroke-width:1.5;" x="214.320221" xlink:href="#me0887d3dc4" y="224.844717"/>
     <use style="fill-opacity:0;stroke:#6495ed;stroke-linejoin:miter;stroke-width:1.5;" x="338.688" xlink:href="#me0887d3dc4" y="224.844717"/>
    </g>
   </g>
   <g id="line2d_52">
    <path style="fill:none;stroke:#6495ed;stroke-linecap:square;stroke-width:1.5;"/>
    <g/>
   </g>
   <g id="line2d_53">
    <path clip-path="url(#pc337b429d5)" d="M 218.254121 224.844717 
" style="fill:none;stroke:#6495ed;stroke-linecap:square;stroke-width:1.5;"/>
    <defs>
     <path d="M -12 12 
L 12 -12 
M -12 -12 
L 12 12 
" id="me1940c29f6" style="stroke:#6495ed;"/>
    </defs>
    <g clip-path="url(#pc337b429d5)">
     <use style="fill:#6495ed;stroke:#6495ed;" x="218.254121" xlink:href="#me1940c29f6" y="224.844717"/>
    </g>
   </g>
   <g id="line2d_54">
    <defs>
     <path d="M 0 1.5 
C 0.397805 1.5 0.77937 1.341951 1.06066 1.06066 
C 1.341951 0.77937 1.5 0.397805 1.5 0 
C 1.5 -0.397805 1.341951 -0.77937 1.06066 -1.06066 
C 0.77937 -1.341951 0.397805 -1.5 0 -1.5 
C -0.397805 -1.5 -0.77937 -1.341951 -1.06066 -1.06066 
C -1.341951 -0.77937 -1.5 -0.397805 -1.5 0 
C -1.5 0.397805 -1.341951 0.77937 -1.06066 1.06066 
C -0.77937 1.341951 -0.397805 1.5 0 1.5 
z
" id="m9f1eaeeac9" style="stroke:#ff0000;"/>
    </defs>
    <g>
     <use style="fill:#ff0000;stroke:#ff0000;" x="218.074606" xlink:href="#m9f1eaeeac9" y="228.549681"/>
     <use style="fill:#ff0000;stroke:#ff0000;" x="218.074606" xlink:href="#m9f1eaeeac9" y="228.549681"/>
    </g>
   </g>
   <g id="line2d_55">
    <path d="M 5.356583 298.944 
L 5.356583 295.239036 
L 60.037348 295.239036 
L 60.037348 293.849674 
L 71.35013 293.849674 
L 71.35013 293.386554 
L 83.037197 293.386554 
L 83.037197 292.923433 
L 86.847358 292.923433 
L 86.847358 288.755349 
L 89.972502 288.755349 
L 89.972502 287.365987 
L 92.621809 287.365987 
L 92.621809 282.734782 
L 94.921215 282.734782 
L 94.921215 281.34542 
L 96.952455 281.34542 
L 96.952455 279.956059 
L 98.771596 279.956059 
L 98.771596 278.566697 
L 100.418775 278.566697 
L 100.418775 277.177336 
L 101.923711 277.177336 
L 101.923711 276.251095 
L 103.309033 276.251095 
L 103.309033 274.861733 
L 104.592361 274.861733 
L 104.592361 273.472371 
L 105.787689 273.472371 
L 105.787689 272.54613 
L 106.906317 272.54613 
L 106.906317 271.619889 
L 108.948899 271.619889 
L 108.948899 270.693648 
L 113.239614 270.693648 
L 113.239614 270.230528 
L 117.84815 270.230528 
L 117.84815 269.304287 
L 121.953191 269.304287 
L 121.953191 268.841166 
L 128.381113 268.841166 
L 128.381113 268.378046 
L 131.300208 268.378046 
L 131.300208 267.914925 
L 132.338714 267.914925 
L 132.338714 266.525564 
L 133.77794 266.525564 
L 133.77794 266.062443 
L 135.562224 266.062443 
L 135.562224 265.599323 
L 137.343676 265.599323 
L 137.343676 265.136202 
L 137.709143 265.136202 
L 137.709143 264.673082 
L 138.084384 264.673082 
L 138.084384 263.746841 
L 138.264747 263.746841 
L 138.264747 263.28372 
L 139.972658 263.28372 
L 139.972658 262.357479 
L 141.69035 262.357479 
L 141.69035 261.894358 
L 142.825068 261.894358 
L 142.825068 261.431238 
L 143.234658 261.431238 
L 143.234658 260.504997 
L 151.641158 260.504997 
L 151.641158 259.578756 
L 154.269814 259.578756 
L 154.269814 259.115635 
L 158.692327 259.115635 
L 158.692327 258.189394 
L 159.555169 258.189394 
L 159.555169 257.726274 
L 160.4828 257.726274 
L 160.4828 257.263153 
L 160.639826 257.263153 
L 160.639826 256.800033 
L 160.783709 256.800033 
L 160.783709 255.873792 
L 162.864884 255.873792 
L 162.864884 255.410671 
L 163.092716 255.410671 
L 163.092716 254.48443 
L 163.221874 254.48443 
L 163.221874 254.02131 
L 165.774819 254.02131 
L 165.885623 251.705707 
L 167.158215 251.705707 
L 167.158215 251.242587 
L 169.711392 251.242587 
L 169.711392 250.779466 
L 170.012871 250.779466 
L 170.012871 250.316346 
L 170.585907 250.316346 
L 170.688708 248.463863 
L 170.744526 248.463863 
L 170.800166 247.074502 
L 173.485609 247.074502 
L 173.485609 246.611381 
L 175.465422 246.611381 
L 175.529074 245.22202 
L 175.592495 245.22202 
L 175.592495 244.758899 
L 175.774427 244.758899 
L 175.774427 243.832658 
L 189.378215 243.832658 
L 189.378215 242.906417 
L 190.688796 242.906417 
L 190.688796 242.443297 
L 191.542379 242.443297 
L 191.542379 241.517056 
L 193.165532 241.517056 
L 193.165532 240.590815 
L 194.620043 240.590815 
L 194.620043 239.664574 
L 197.685948 239.664574 
L 197.685948 238.738333 
L 198.603733 238.738333 
L 198.603733 238.275212 
L 199.713622 238.275212 
L 199.726721 237.348971 
L 203.211891 237.348971 
L 203.211891 236.88585 
L 203.522939 236.88585 
L 203.522939 236.42273 
L 203.759933 236.42273 
L 203.759933 235.496489 
L 210.091055 235.496489 
L 210.102726 234.107127 
L 210.654351 234.107127 
L 210.654351 233.180886 
L 211.118839 233.180886 
L 211.132592 231.791525 
L 211.233899 231.791525 
L 211.233899 230.865284 
L 213.066897 230.865284 
L 213.066897 229.939043 
L 213.471836 229.939043 
L 213.471836 229.475922 
L 217.971505 229.475922 
L 218.074606 228.549681 
L 338.688 228.549681 
L 338.688 228.549681 
" style="fill:none;stroke:#ff0000;stroke-linecap:square;stroke-width:1.5;"/>
   </g>
   <g id="line2d_56">
    <defs>
     <path d="M 0 -6 
L -5.196152 -3 
L -5.196152 3 
L -0 6 
L 5.196152 3 
L 5.196152 -3 
z
" id="m78f593fa87" style="stroke:#ff0000;stroke-linejoin:miter;stroke-width:1.5;"/>
    </defs>
    <g>
     <use style="fill-opacity:0;stroke:#ff0000;stroke-linejoin:miter;stroke-width:1.5;" x="113.239614" xlink:href="#m78f593fa87" y="270.693648"/>
     <use style="fill-opacity:0;stroke:#ff0000;stroke-linejoin:miter;stroke-width:1.5;" x="170.688708" xlink:href="#m78f593fa87" y="248.926984"/>
     <use style="fill-opacity:0;stroke:#ff0000;stroke-linejoin:miter;stroke-width:1.5;" x="218.074606" xlink:href="#m78f593fa87" y="229.012802"/>
     <use style="fill-opacity:0;stroke:#ff0000;stroke-linejoin:miter;stroke-width:1.5;" x="218.074606" xlink:href="#m78f593fa87" y="228.549681"/>
     <use style="fill-opacity:0;stroke:#ff0000;stroke-linejoin:miter;stroke-width:1.5;" x="218.074606" xlink:href="#m78f593fa87" y="228.549681"/>
     <use style="fill-opacity:0;stroke:#ff0000;stroke-linejoin:miter;stroke-width:1.5;" x="338.688" xlink:href="#m78f593fa87" y="228.549681"/>
    </g>
   </g>
   <g id="line2d_57">
    <path style="fill:none;stroke:#ff0000;stroke-linecap:square;stroke-width:1.5;"/>
    <g/>
   </g>
   <g id="line2d_58">
    <path clip-path="url(#pc337b429d5)" d="M 218.245938 228.549681 
" style="fill:none;stroke:#ff0000;stroke-linecap:square;stroke-width:1.5;"/>
    <defs>
     <path d="M -12 12 
L 12 -12 
M -12 -12 
L 12 12 
" id="m005d0c0178" style="stroke:#ff0000;"/>
    </defs>
    <g clip-path="url(#pc337b429d5)">
     <use style="fill:#ff0000;stroke:#ff0000;" x="218.245938" xlink:href="#m005d0c0178" y="228.549681"/>
    </g>
   </g>
   <g id="line2d_59">
    <defs>
     <path d="M 0 1.5 
C 0.397805 1.5 0.77937 1.341951 1.06066 1.06066 
C 1.341951 0.77937 1.5 0.397805 1.5 0 
C 1.5 -0.397805 1.341951 -0.77937 1.06066 -1.06066 
C 0.77937 -1.341951 0.397805 -1.5 0 -1.5 
C -0.397805 -1.5 -0.77937 -1.341951 -1.06066 -1.06066 
C -1.341951 -0.77937 -1.5 -0.397805 -1.5 0 
C -1.5 0.397805 -1.341951 0.77937 -1.06066 1.06066 
C -0.77937 1.341951 -0.397805 1.5 0 1.5 
z
" id="m322a179772" style="stroke:#9acd32;"/>
    </defs>
    <g>
     <use style="fill:#9acd32;stroke:#9acd32;" x="213.972591" xlink:href="#m322a179772" y="215.582307"/>
     <use style="fill:#9acd32;stroke:#9acd32;" x="213.972591" xlink:href="#m322a179772" y="215.582307"/>
    </g>
   </g>
   <g id="line2d_60">
    <path d="M 5.356583 298.944 
L 5.356583 295.239036 
L 60.037348 295.239036 
L 60.037348 293.849674 
L 71.35013 293.849674 
L 71.35013 293.386554 
L 83.037197 293.386554 
L 83.037197 292.923433 
L 86.847358 292.923433 
L 86.847358 288.755349 
L 89.972502 288.755349 
L 89.972502 287.365987 
L 92.621809 287.365987 
L 92.621809 282.734782 
L 94.921215 282.734782 
L 94.921215 281.34542 
L 96.952455 281.34542 
L 96.952455 279.956059 
L 98.771596 279.956059 
L 98.771596 278.566697 
L 100.418775 278.566697 
L 100.418775 277.177336 
L 101.923711 277.177336 
L 101.923711 276.251095 
L 103.309033 276.251095 
L 103.309033 274.861733 
L 104.592361 274.861733 
L 104.592361 273.472371 
L 105.787689 273.472371 
L 105.787689 272.54613 
L 106.906317 272.54613 
L 106.906317 271.619889 
L 108.948899 271.619889 
L 108.948899 270.693648 
L 115.365285 270.693648 
L 115.365285 270.230528 
L 116.019919 270.230528 
L 116.019919 269.304287 
L 118.968488 269.304287 
L 118.968488 268.841166 
L 121.036887 268.841166 
L 121.036887 268.378046 
L 124.519744 268.378046 
L 124.519744 267.914925 
L 127.421479 267.914925 
L 127.421479 267.451805 
L 132.084827 267.451805 
L 132.084827 266.988684 
L 135.562224 266.988684 
L 135.562224 266.525564 
L 135.966545 266.525564 
L 135.966545 266.062443 
L 136.371232 266.062443 
L 136.371232 265.136202 
L 136.579521 265.136202 
L 136.579521 264.673082 
L 136.757427 264.673082 
L 136.757427 264.209961 
L 137.153477 264.209961 
L 137.153477 263.746841 
L 139.301378 263.746841 
L 139.301378 263.28372 
L 139.988145 263.28372 
L 139.988145 262.8206 
L 140.134598 262.8206 
L 140.134598 262.357479 
L 140.611586 262.357479 
L 140.611586 261.894358 
L 140.767727 261.894358 
L 140.775127 260.968117 
L 140.937149 260.968117 
L 140.937149 260.041876 
L 141.068601 260.041876 
L 141.068601 259.578756 
L 142.53319 259.578756 
L 142.53319 259.115635 
L 144.653267 259.115635 
L 144.653267 258.652515 
L 145.143889 258.652515 
L 145.143889 258.189394 
L 146.447382 258.189394 
L 146.447382 257.726274 
L 148.248413 257.726274 
L 148.248413 256.800033 
L 149.42716 256.800033 
L 149.42716 255.873792 
L 150.168055 255.873792 
L 150.168055 255.410671 
L 153.003132 255.410671 
L 153.003132 254.947551 
L 155.514359 254.947551 
L 155.514359 254.48443 
L 157.11051 254.48443 
L 157.11051 253.558189 
L 158.401243 253.558189 
L 158.401243 252.631948 
L 158.51398 252.631948 
L 158.51398 252.168828 
L 158.73729 252.168828 
L 158.73729 251.705707 
L 166.108604 251.705707 
L 166.108604 251.242587 
L 168.982583 251.242587 
L 168.982583 250.316346 
L 169.136041 250.316346 
L 169.227472 248.000743 
L 170.37576 248.000743 
L 170.37576 247.074502 
L 172.727814 247.074502 
L 172.727814 246.611381 
L 176.826002 246.611381 
L 176.826002 246.148261 
L 177.115688 246.148261 
L 177.115688 245.68514 
L 177.406981 245.68514 
L 177.406981 245.22202 
L 178.61053 245.22202 
L 178.676329 243.369538 
L 178.90469 243.369538 
L 178.90469 242.906417 
L 181.298807 242.906417 
L 181.404974 241.053935 
L 181.626058 241.053935 
L 181.626058 240.590815 
L 183.706553 240.590815 
L 183.706553 239.664574 
L 185.984295 239.664574 
L 186.070467 237.812091 
L 190.358853 237.812091 
L 190.358853 236.88585 
L 190.512436 236.88585 
L 190.56617 235.496489 
L 191.819189 235.496489 
L 191.819189 235.033368 
L 191.960092 235.033368 
L 192.067078 233.644007 
L 194.10354 233.644007 
L 194.147286 232.254645 
L 194.897599 232.254645 
L 194.897599 231.791525 
L 195.084923 231.791525 
L 195.098719 230.865284 
L 198.805596 230.865284 
L 198.805596 230.402163 
L 201.846289 230.402163 
L 201.932154 226.234079 
L 203.036358 226.234079 
L 203.036358 225.307837 
L 203.714113 225.307837 
L 203.730935 224.381596 
L 204.502617 224.381596 
L 204.611426 222.529114 
L 204.757722 222.529114 
L 204.757722 221.602873 
L 205.224332 221.602873 
L 205.224332 221.139753 
L 206.041753 221.139753 
L 206.060151 219.750391 
L 207.906177 219.750391 
L 207.906177 218.82415 
L 210.304206 218.82415 
L 210.307089 217.897909 
L 212.658211 217.897909 
L 212.741147 216.508548 
L 213.972591 216.508548 
L 213.972591 215.582307 
L 338.688 215.582307 
L 338.688 215.582307 
" style="fill:none;stroke:#9acd32;stroke-linecap:square;stroke-width:1.5;"/>
   </g>
   <g id="line2d_61">
    <defs>
     <path d="M 0 -6 
L -6 6 
L 6 6 
z
" id="m1f1aab1bbe" style="stroke:#9acd32;stroke-linejoin:miter;stroke-width:1.5;"/>
    </defs>
    <g>
     <use style="fill-opacity:0;stroke:#9acd32;stroke-linejoin:miter;stroke-width:1.5;" x="86.847358" xlink:href="#m1f1aab1bbe" y="292.923433"/>
     <use style="fill-opacity:0;stroke:#9acd32;stroke-linejoin:miter;stroke-width:1.5;" x="158.73729" xlink:href="#m1f1aab1bbe" y="252.168828"/>
     <use style="fill-opacity:0;stroke:#9acd32;stroke-linejoin:miter;stroke-width:1.5;" x="213.972591" xlink:href="#m1f1aab1bbe" y="216.508548"/>
     <use style="fill-opacity:0;stroke:#9acd32;stroke-linejoin:miter;stroke-width:1.5;" x="213.972591" xlink:href="#m1f1aab1bbe" y="215.582307"/>
     <use style="fill-opacity:0;stroke:#9acd32;stroke-linejoin:miter;stroke-width:1.5;" x="213.972591" xlink:href="#m1f1aab1bbe" y="215.582307"/>
     <use style="fill-opacity:0;stroke:#9acd32;stroke-linejoin:miter;stroke-width:1.5;" x="338.688" xlink:href="#m1f1aab1bbe" y="215.582307"/>
    </g>
   </g>
   <g id="line2d_62">
    <path style="fill:none;stroke:#9acd32;stroke-linecap:square;stroke-width:1.5;"/>
    <g/>
   </g>
   <g id="line2d_63">
    <path clip-path="url(#pc337b429d5)" d="M 218.263692 215.582307 
" style="fill:none;stroke:#9acd32;stroke-linecap:square;stroke-width:1.5;"/>
    <defs>
     <path d="M -12 12 
L 12 -12 
M -12 -12 
L 12 12 
" id="mc1f027ad6e" style="stroke:#9acd32;"/>
    </defs>
    <g clip-path="url(#pc337b429d5)">
     <use style="fill:#9acd32;stroke:#9acd32;" x="218.263692" xlink:href="#mc1f027ad6e" y="215.582307"/>
    </g>
   </g>
   <g id="line2d_64">
    <path d="M 338.688 228.549681 
L 369.60768 293.571802 
" style="fill:none;stroke:#ff0000;stroke-linecap:square;stroke-width:1.5;"/>
    <g>
     <use style="fill-opacity:0;stroke:#ff0000;stroke-linejoin:miter;stroke-width:1.5;" x="338.688" xlink:href="#m78f593fa87" y="228.549681"/>
     <use style="fill-opacity:0;stroke:#ff0000;stroke-linejoin:miter;stroke-width:1.5;" x="369.60768" xlink:href="#m78f593fa87" y="293.571802"/>
    </g>
   </g>
   <g id="line2d_65">
    <path d="M 338.688 227.62344 
L 369.60768 250.594218 
" style="fill:none;stroke:#000080;stroke-linecap:square;stroke-width:1.5;"/>
    <g>
     <use style="fill-opacity:0;stroke:#000080;stroke-width:1.5;" x="338.688" xlink:href="#m2769608f5d" y="227.62344"/>
     <use style="fill-opacity:0;stroke:#000080;stroke-width:1.5;" x="369.60768" xlink:href="#m2769608f5d" y="250.594218"/>
    </g>
   </g>
   <g id="line2d_66">
    <path d="M 338.688 224.844717 
L 369.60768 207.616634 
" style="fill:none;stroke:#ff7500;stroke-linecap:square;stroke-width:1.5;"/>
    <g>
     <use style="fill-opacity:0;stroke:#ff7500;stroke-linejoin:bevel;stroke-width:1.5;" x="338.688" xlink:href="#mf0d6529ff2" y="224.844717"/>
     <use style="fill-opacity:0;stroke:#ff7500;stroke-linejoin:bevel;stroke-width:1.5;" x="369.60768" xlink:href="#mf0d6529ff2" y="207.616634"/>
    </g>
   </g>
   <g id="line2d_67">
    <path d="M 338.688 224.844717 
L 369.60768 164.63905 
" style="fill:none;stroke:#6495ed;stroke-linecap:square;stroke-width:1.5;"/>
    <g>
     <use style="fill-opacity:0;stroke:#6495ed;stroke-linejoin:miter;stroke-width:1.5;" x="338.688" xlink:href="#me0887d3dc4" y="224.844717"/>
     <use style="fill-opacity:0;stroke:#6495ed;stroke-linejoin:miter;stroke-width:1.5;" x="369.60768" xlink:href="#me0887d3dc4" y="164.63905"/>
    </g>
   </g>
   <g id="line2d_68">
    <path d="M 338.688 222.529114 
L 369.60768 121.661465 
" style="fill:none;stroke:#ff00ff;stroke-linecap:square;stroke-width:1.5;"/>
    <g>
     <use style="fill-opacity:0;stroke:#ff00ff;stroke-linejoin:miter;stroke-width:1.5;" x="338.688" xlink:href="#m67fa1a6f3a" y="222.529114"/>
     <use style="fill-opacity:0;stroke:#ff00ff;stroke-linejoin:miter;stroke-width:1.5;" x="369.60768" xlink:href="#m67fa1a6f3a" y="121.661465"/>
    </g>
   </g>
   <g id="line2d_69">
    <path d="M 338.688 215.582307 
L 369.60768 78.683881 
" style="fill:none;stroke:#9acd32;stroke-linecap:square;stroke-width:1.5;"/>
    <g>
     <use style="fill-opacity:0;stroke:#9acd32;stroke-linejoin:miter;stroke-width:1.5;" x="338.688" xlink:href="#m1f1aab1bbe" y="215.582307"/>
     <use style="fill-opacity:0;stroke:#9acd32;stroke-linejoin:miter;stroke-width:1.5;" x="369.60768" xlink:href="#m1f1aab1bbe" y="78.683881"/>
    </g>
   </g>
   <g id="line2d_70">
    <path d="M 338.688 298.944 
L 338.688 30.334099 
" style="fill:none;stroke:#000000;stroke-linecap:square;stroke-width:1.5;"/>
   </g>
   <g id="patch_3">
    <path d="M 57.6 298.944 
L 57.6 27.648 
" style="fill:none;stroke:#000000;stroke-linecap:square;stroke-linejoin:miter;stroke-width:0.8;"/>
   </g>
   <g id="patch_4">
    <path d="M 338.688 298.944 
L 338.688 27.648 
" style="fill:none;stroke:#000000;stroke-linecap:square;stroke-linejoin:miter;stroke-width:0.8;"/>
   </g>
   <g id="patch_5">
    <path d="M 57.6 298.944 
L 338.688 298.944 
" style="fill:none;stroke:#000000;stroke-linecap:square;stroke-linejoin:miter;stroke-width:0.8;"/>
   </g>
   <g id="patch_6">
    <path d="M 57.6 27.648 
L 338.688 27.648 
" style="fill:none;stroke:#000000;stroke-linecap:square;stroke-linejoin:miter;stroke-width:0.8;"/>
   </g>
   <g id="text_13">
    <!-- 1.0 lbfgs -->
    <g transform="translate(375.22944 298.262739)scale(0.17 -0.17)">
     <defs>
      <path d="M 48.6875 27.296875 
Q 48.6875 37.203125 44.609375 42.84375 
Q 40.53125 48.484375 33.40625 48.484375 
Q 26.265625 48.484375 22.1875 42.84375 
Q 18.109375 37.203125 18.109375 27.296875 
Q 18.109375 17.390625 22.1875 11.75 
Q 26.265625 6.109375 33.40625 6.109375 
Q 40.53125 6.109375 44.609375 11.75 
Q 48.6875 17.390625 48.6875 27.296875 
z
M 18.109375 46.390625 
Q 20.953125 51.265625 25.265625 53.625 
Q 29.59375 56 35.59375 56 
Q 45.5625 56 51.78125 48.09375 
Q 58.015625 40.1875 58.015625 27.296875 
Q 58.015625 14.40625 51.78125 6.484375 
Q 45.5625 -1.421875 35.59375 -1.421875 
Q 29.59375 -1.421875 25.265625 0.953125 
Q 20.953125 3.328125 18.109375 8.203125 
L 18.109375 0 
L 9.078125 0 
L 9.078125 75.984375 
L 18.109375 75.984375 
z
" id="DejaVuSans-98"/>
     </defs>
     <use xlink:href="#DejaVuSans-49"/>
     <use x="63.623047" xlink:href="#DejaVuSans-46"/>
     <use x="95.410156" xlink:href="#DejaVuSans-48"/>
     <use x="159.033203" xlink:href="#DejaVuSans-32"/>
     <use x="190.820312" xlink:href="#DejaVuSans-108"/>
     <use x="218.603516" xlink:href="#DejaVuSans-98"/>
     <use x="282.080078" xlink:href="#DejaVuSans-102"/>
     <use x="317.285156" xlink:href="#DejaVuSans-103"/>
     <use x="380.761719" xlink:href="#DejaVuSans-115"/>
    </g>
   </g>
   <g id="text_14">
    <!-- 0.0 lbfgs -->
    <g transform="translate(375.22944 255.285155)scale(0.17 -0.17)">
     <use xlink:href="#DejaVuSans-48"/>
     <use x="63.623047" xlink:href="#DejaVuSans-46"/>
     <use x="95.410156" xlink:href="#DejaVuSans-48"/>
     <use x="159.033203" xlink:href="#DejaVuSans-32"/>
     <use x="190.820312" xlink:href="#DejaVuSans-108"/>
     <use x="218.603516" xlink:href="#DejaVuSans-98"/>
     <use x="282.080078" xlink:href="#DejaVuSans-102"/>
     <use x="317.285156" xlink:href="#DejaVuSans-103"/>
     <use x="380.761719" xlink:href="#DejaVuSans-115"/>
    </g>
   </g>
   <g id="text_15">
    <!-- 0.1 lbfgs -->
    <g transform="translate(375.22944 212.307571)scale(0.17 -0.17)">
     <use xlink:href="#DejaVuSans-48"/>
     <use x="63.623047" xlink:href="#DejaVuSans-46"/>
     <use x="95.410156" xlink:href="#DejaVuSans-49"/>
     <use x="159.033203" xlink:href="#DejaVuSans-32"/>
     <use x="190.820312" xlink:href="#DejaVuSans-108"/>
     <use x="218.603516" xlink:href="#DejaVuSans-98"/>
     <use x="282.080078" xlink:href="#DejaVuSans-102"/>
     <use x="317.285156" xlink:href="#DejaVuSans-103"/>
     <use x="380.761719" xlink:href="#DejaVuSans-115"/>
    </g>
   </g>
   <g id="text_16">
    <!-- 0.35 lbfg -->
    <g transform="translate(375.22944 169.329987)scale(0.17 -0.17)">
     <defs>
      <path d="M 40.578125 39.3125 
Q 47.65625 37.796875 51.625 33 
Q 55.609375 28.21875 55.609375 21.1875 
Q 55.609375 10.40625 48.1875 4.484375 
Q 40.765625 -1.421875 27.09375 -1.421875 
Q 22.515625 -1.421875 17.65625 -0.515625 
Q 12.796875 0.390625 7.625 2.203125 
L 7.625 11.71875 
Q 11.71875 9.328125 16.59375 8.109375 
Q 21.484375 6.890625 26.8125 6.890625 
Q 36.078125 6.890625 40.9375 10.546875 
Q 45.796875 14.203125 45.796875 21.1875 
Q 45.796875 27.640625 41.28125 31.265625 
Q 36.765625 34.90625 28.71875 34.90625 
L 20.21875 34.90625 
L 20.21875 43.015625 
L 29.109375 43.015625 
Q 36.375 43.015625 40.234375 45.921875 
Q 44.09375 48.828125 44.09375 54.296875 
Q 44.09375 59.90625 40.109375 62.90625 
Q 36.140625 65.921875 28.71875 65.921875 
Q 24.65625 65.921875 20.015625 65.03125 
Q 15.375 64.15625 9.8125 62.3125 
L 9.8125 71.09375 
Q 15.4375 72.65625 20.34375 73.4375 
Q 25.25 74.21875 29.59375 74.21875 
Q 40.828125 74.21875 47.359375 69.109375 
Q 53.90625 64.015625 53.90625 55.328125 
Q 53.90625 49.265625 50.4375 45.09375 
Q 46.96875 40.921875 40.578125 39.3125 
z
" id="DejaVuSans-51"/>
      <path d="M 10.796875 72.90625 
L 49.515625 72.90625 
L 49.515625 64.59375 
L 19.828125 64.59375 
L 19.828125 46.734375 
Q 21.96875 47.46875 24.109375 47.828125 
Q 26.265625 48.1875 28.421875 48.1875 
Q 40.625 48.1875 47.75 41.5 
Q 54.890625 34.8125 54.890625 23.390625 
Q 54.890625 11.625 47.5625 5.09375 
Q 40.234375 -1.421875 26.90625 -1.421875 
Q 22.3125 -1.421875 17.546875 -0.640625 
Q 12.796875 0.140625 7.71875 1.703125 
L 7.71875 11.625 
Q 12.109375 9.234375 16.796875 8.0625 
Q 21.484375 6.890625 26.703125 6.890625 
Q 35.15625 6.890625 40.078125 11.328125 
Q 45.015625 15.765625 45.015625 23.390625 
Q 45.015625 31 40.078125 35.4375 
Q 35.15625 39.890625 26.703125 39.890625 
Q 22.75 39.890625 18.8125 39.015625 
Q 14.890625 38.140625 10.796875 36.28125 
z
" id="DejaVuSans-53"/>
     </defs>
     <use xlink:href="#DejaVuSans-48"/>
     <use x="63.623047" xlink:href="#DejaVuSans-46"/>
     <use x="95.410156" xlink:href="#DejaVuSans-51"/>
     <use x="159.033203" xlink:href="#DejaVuSans-53"/>
     <use x="222.65625" xlink:href="#DejaVuSans-32"/>
     <use x="254.443359" xlink:href="#DejaVuSans-108"/>
     <use x="282.226562" xlink:href="#DejaVuSans-98"/>
     <use x="345.703125" xlink:href="#DejaVuSans-102"/>
     <use x="380.908203" xlink:href="#DejaVuSans-103"/>
    </g>
   </g>
   <g id="text_17">
    <!-- 0.025 lbf -->
    <g transform="translate(375.22944 126.352403)scale(0.17 -0.17)">
     <use xlink:href="#DejaVuSans-48"/>
     <use x="63.623047" xlink:href="#DejaVuSans-46"/>
     <use x="95.410156" xlink:href="#DejaVuSans-48"/>
     <use x="159.033203" xlink:href="#DejaVuSans-50"/>
     <use x="222.65625" xlink:href="#DejaVuSans-53"/>
     <use x="286.279297" xlink:href="#DejaVuSans-32"/>
     <use x="318.066406" xlink:href="#DejaVuSans-108"/>
     <use x="345.849609" xlink:href="#DejaVuSans-98"/>
     <use x="409.326172" xlink:href="#DejaVuSans-102"/>
    </g>
   </g>
   <g id="text_18">
    <!-- 0.0001 lb -->
    <g transform="translate(375.22944 83.374819)scale(0.17 -0.17)">
     <use xlink:href="#DejaVuSans-48"/>
     <use x="63.623047" xlink:href="#DejaVuSans-46"/>
     <use x="95.410156" xlink:href="#DejaVuSans-48"/>
     <use x="159.033203" xlink:href="#DejaVuSans-48"/>
     <use x="222.65625" xlink:href="#DejaVuSans-48"/>
     <use x="286.279297" xlink:href="#DejaVuSans-49"/>
     <use x="349.902344" xlink:href="#DejaVuSans-32"/>
     <use x="381.689453" xlink:href="#DejaVuSans-108"/>
     <use x="409.472656" xlink:href="#DejaVuSans-98"/>
    </g>
   </g>
   <g id="text_19">
    <!-- best 2016 -->
    <g transform="translate(375.22944 40.397235)scale(0.17 -0.17)">
     <use xlink:href="#DejaVuSans-98"/>
     <use x="63.476562" xlink:href="#DejaVuSans-101"/>
     <use x="125" xlink:href="#DejaVuSans-115"/>
     <use x="177.099609" xlink:href="#DejaVuSans-116"/>
     <use x="216.308594" xlink:href="#DejaVuSans-32"/>
     <use x="248.095703" xlink:href="#DejaVuSans-50"/>
     <use x="311.71875" xlink:href="#DejaVuSans-48"/>
     <use x="375.341797" xlink:href="#DejaVuSans-49"/>
     <use x="438.964844" xlink:href="#DejaVuSans-54"/>
    </g>
   </g>
   <g id="text_20">
    <!-- bbob-biobj f54, 20-D -->
    <g transform="translate(60.41088 38.111366)scale(0.102 -0.102)">
     <defs>
      <path d="M 9.421875 54.6875 
L 18.40625 54.6875 
L 18.40625 -0.984375 
Q 18.40625 -11.421875 14.421875 -16.109375 
Q 10.453125 -20.796875 1.609375 -20.796875 
L -1.8125 -20.796875 
L -1.8125 -13.1875 
L 0.59375 -13.1875 
Q 5.71875 -13.1875 7.5625 -10.8125 
Q 9.421875 -8.453125 9.421875 -0.984375 
z
M 9.421875 75.984375 
L 18.40625 75.984375 
L 18.40625 64.59375 
L 9.421875 64.59375 
z
" id="DejaVuSans-106"/>
      <path d="M 19.671875 64.796875 
L 19.671875 8.109375 
L 31.59375 8.109375 
Q 46.6875 8.109375 53.6875 14.9375 
Q 60.6875 21.78125 60.6875 36.53125 
Q 60.6875 51.171875 53.6875 57.984375 
Q 46.6875 64.796875 31.59375 64.796875 
z
M 9.8125 72.90625 
L 30.078125 72.90625 
Q 51.265625 72.90625 61.171875 64.09375 
Q 71.09375 55.28125 71.09375 36.53125 
Q 71.09375 17.671875 61.125 8.828125 
Q 51.171875 0 30.078125 0 
L 9.8125 0 
z
" id="DejaVuSans-68"/>
     </defs>
     <use xlink:href="#DejaVuSans-98"/>
     <use x="63.476562" xlink:href="#DejaVuSans-98"/>
     <use x="126.953125" xlink:href="#DejaVuSans-111"/>
     <use x="188.134766" xlink:href="#DejaVuSans-98"/>
     <use x="251.611328" xlink:href="#DejaVuSans-45"/>
     <use x="287.695312" xlink:href="#DejaVuSans-98"/>
     <use x="351.171875" xlink:href="#DejaVuSans-105"/>
     <use x="378.955078" xlink:href="#DejaVuSans-111"/>
     <use x="440.136719" xlink:href="#DejaVuSans-98"/>
     <use x="503.613281" xlink:href="#DejaVuSans-106"/>
     <use x="531.396484" xlink:href="#DejaVuSans-32"/>
     <use x="563.183594" xlink:href="#DejaVuSans-102"/>
     <use x="598.388672" xlink:href="#DejaVuSans-53"/>
     <use x="662.011719" xlink:href="#DejaVuSans-52"/>
     <use x="725.634766" xlink:href="#DejaVuSans-44"/>
     <use x="757.421875" xlink:href="#DejaVuSans-32"/>
     <use x="789.208984" xlink:href="#DejaVuSans-50"/>
     <use x="852.832031" xlink:href="#DejaVuSans-48"/>
     <use x="916.455078" xlink:href="#DejaVuSans-45"/>
     <use x="952.539062" xlink:href="#DejaVuSans-68"/>
    </g>
    <!-- 58 targets: 1..-1.0e-4 -->
    <g transform="translate(60.41088 49.533135)scale(0.102 -0.102)">
     <defs>
      <path d="M 11.71875 12.40625 
L 22.015625 12.40625 
L 22.015625 0 
L 11.71875 0 
z
M 11.71875 51.703125 
L 22.015625 51.703125 
L 22.015625 39.3125 
L 11.71875 39.3125 
z
" id="DejaVuSans-58"/>
     </defs>
     <use xlink:href="#DejaVuSans-53"/>
     <use x="63.623047" xlink:href="#DejaVuSans-56"/>
     <use x="127.246094" xlink:href="#DejaVuSans-32"/>
     <use x="159.033203" xlink:href="#DejaVuSans-116"/>
     <use x="198.242188" xlink:href="#DejaVuSans-97"/>
     <use x="259.521484" xlink:href="#DejaVuSans-114"/>
     <use x="298.884766" xlink:href="#DejaVuSans-103"/>
     <use x="362.361328" xlink:href="#DejaVuSans-101"/>
     <use x="423.884766" xlink:href="#DejaVuSans-116"/>
     <use x="463.09375" xlink:href="#DejaVuSans-115"/>
     <use x="515.193359" xlink:href="#DejaVuSans-58"/>
     <use x="548.884766" xlink:href="#DejaVuSans-32"/>
     <use x="580.671875" xlink:href="#DejaVuSans-49"/>
     <use x="644.294922" xlink:href="#DejaVuSans-46"/>
     <use x="676.082031" xlink:href="#DejaVuSans-46"/>
     <use x="707.869141" xlink:href="#DejaVuSans-45"/>
     <use x="743.953125" xlink:href="#DejaVuSans-49"/>
     <use x="807.576172" xlink:href="#DejaVuSans-46"/>
     <use x="839.363281" xlink:href="#DejaVuSans-48"/>
     <use x="902.986328" xlink:href="#DejaVuSans-101"/>
     <use x="964.509766" xlink:href="#DejaVuSans-45"/>
     <use x="1000.59375" xlink:href="#DejaVuSans-52"/>
    </g>
    <!-- 10 instances -->
    <g transform="translate(60.41088 60.954904)scale(0.102 -0.102)">
     <use xlink:href="#DejaVuSans-49"/>
     <use x="63.623047" xlink:href="#DejaVuSans-48"/>
     <use x="127.246094" xlink:href="#DejaVuSans-32"/>
     <use x="159.033203" xlink:href="#DejaVuSans-105"/>
     <use x="186.816406" xlink:href="#DejaVuSans-110"/>
     <use x="250.195312" xlink:href="#DejaVuSans-115"/>
     <use x="302.294922" xlink:href="#DejaVuSans-116"/>
     <use x="341.503906" xlink:href="#DejaVuSans-97"/>
     <use x="402.783203" xlink:href="#DejaVuSans-110"/>
     <use x="466.162109" xlink:href="#DejaVuSans-99"/>
     <use x="521.142578" xlink:href="#DejaVuSans-101"/>
     <use x="582.666016" xlink:href="#DejaVuSans-115"/>
    </g>
   </g>
   <g id="text_21">
    <!-- v2.4, hv-hash=ff0e71e8cd978373 -->
    <g style="fill:#808080;" transform="translate(112.648687 294.151352)scale(0.1 -0.1)">
     <defs>
      <path d="M 54.890625 33.015625 
L 54.890625 0 
L 45.90625 0 
L 45.90625 32.71875 
Q 45.90625 40.484375 42.875 44.328125 
Q 39.84375 48.1875 33.796875 48.1875 
Q 26.515625 48.1875 22.3125 43.546875 
Q 18.109375 38.921875 18.109375 30.90625 
L 18.109375 0 
L 9.078125 0 
L 9.078125 75.984375 
L 18.109375 75.984375 
L 18.109375 46.1875 
Q 21.34375 51.125 25.703125 53.5625 
Q 30.078125 56 35.796875 56 
Q 45.21875 56 50.046875 50.171875 
Q 54.890625 44.34375 54.890625 33.015625 
z
" id="DejaVuSans-104"/>
      <path d="M 10.59375 45.40625 
L 73.1875 45.40625 
L 73.1875 37.203125 
L 10.59375 37.203125 
z
M 10.59375 25.484375 
L 73.1875 25.484375 
L 73.1875 17.1875 
L 10.59375 17.1875 
z
" id="DejaVuSans-61"/>
      <path d="M 8.203125 72.90625 
L 55.078125 72.90625 
L 55.078125 68.703125 
L 28.609375 0 
L 18.3125 0 
L 43.21875 64.59375 
L 8.203125 64.59375 
z
" id="DejaVuSans-55"/>
      <path d="M 10.984375 1.515625 
L 10.984375 10.5 
Q 14.703125 8.734375 18.5 7.8125 
Q 22.3125 6.890625 25.984375 6.890625 
Q 35.75 6.890625 40.890625 13.453125 
Q 46.046875 20.015625 46.78125 33.40625 
Q 43.953125 29.203125 39.59375 26.953125 
Q 35.25 24.703125 29.984375 24.703125 
Q 19.046875 24.703125 12.671875 31.3125 
Q 6.296875 37.9375 6.296875 49.421875 
Q 6.296875 60.640625 12.9375 67.421875 
Q 19.578125 74.21875 30.609375 74.21875 
Q 43.265625 74.21875 49.921875 64.515625 
Q 56.59375 54.828125 56.59375 36.375 
Q 56.59375 19.140625 48.40625 8.859375 
Q 40.234375 -1.421875 26.421875 -1.421875 
Q 22.703125 -1.421875 18.890625 -0.6875 
Q 15.09375 0.046875 10.984375 1.515625 
z
M 30.609375 32.421875 
Q 37.25 32.421875 41.125 36.953125 
Q 45.015625 41.5 45.015625 49.421875 
Q 45.015625 57.28125 41.125 61.84375 
Q 37.25 66.40625 30.609375 66.40625 
Q 23.96875 66.40625 20.09375 61.84375 
Q 16.21875 57.28125 16.21875 49.421875 
Q 16.21875 41.5 20.09375 36.953125 
Q 23.96875 32.421875 30.609375 32.421875 
z
" id="DejaVuSans-57"/>
     </defs>
     <use xlink:href="#DejaVuSans-118"/>
     <use x="59.179688" xlink:href="#DejaVuSans-50"/>
     <use x="122.802734" xlink:href="#DejaVuSans-46"/>
     <use x="154.589844" xlink:href="#DejaVuSans-52"/>
     <use x="218.212891" xlink:href="#DejaVuSans-44"/>
     <use x="250" xlink:href="#DejaVuSans-32"/>
     <use x="281.787109" xlink:href="#DejaVuSans-104"/>
     <use x="345.166016" xlink:href="#DejaVuSans-118"/>
     <use x="401.720703" xlink:href="#DejaVuSans-45"/>
     <use x="437.804688" xlink:href="#DejaVuSans-104"/>
     <use x="501.183594" xlink:href="#DejaVuSans-97"/>
     <use x="562.462891" xlink:href="#DejaVuSans-115"/>
     <use x="614.5625" xlink:href="#DejaVuSans-104"/>
     <use x="677.941406" xlink:href="#DejaVuSans-61"/>
     <use x="761.730469" xlink:href="#DejaVuSans-102"/>
     <use x="796.935547" xlink:href="#DejaVuSans-102"/>
     <use x="832.140625" xlink:href="#DejaVuSans-48"/>
     <use x="895.763672" xlink:href="#DejaVuSans-101"/>
     <use x="957.287109" xlink:href="#DejaVuSans-55"/>
     <use x="1020.910156" xlink:href="#DejaVuSans-49"/>
     <use x="1084.533203" xlink:href="#DejaVuSans-101"/>
     <use x="1146.056641" xlink:href="#DejaVuSans-56"/>
     <use x="1209.679688" xlink:href="#DejaVuSans-99"/>
     <use x="1264.660156" xlink:href="#DejaVuSans-100"/>
     <use x="1328.136719" xlink:href="#DejaVuSans-57"/>
     <use x="1391.759766" xlink:href="#DejaVuSans-55"/>
     <use x="1455.382812" xlink:href="#DejaVuSans-56"/>
     <use x="1519.005859" xlink:href="#DejaVuSans-51"/>
     <use x="1582.628906" xlink:href="#DejaVuSans-55"/>
     <use x="1646.251953" xlink:href="#DejaVuSans-51"/>
    </g>
   </g>
   <g id="text_22">
    <!-- 54 Schwefel/Gallagher 101 -->
    <g transform="translate(63.128375 21.648)scale(0.2 -0.2)">
     <defs>
      <path d="M 53.515625 70.515625 
L 53.515625 60.890625 
Q 47.90625 63.578125 42.921875 64.890625 
Q 37.9375 66.21875 33.296875 66.21875 
Q 25.25 66.21875 20.875 63.09375 
Q 16.5 59.96875 16.5 54.203125 
Q 16.5 49.359375 19.40625 46.890625 
Q 22.3125 44.4375 30.421875 42.921875 
L 36.375 41.703125 
Q 47.40625 39.59375 52.65625 34.296875 
Q 57.90625 29 57.90625 20.125 
Q 57.90625 9.515625 50.796875 4.046875 
Q 43.703125 -1.421875 29.984375 -1.421875 
Q 24.8125 -1.421875 18.96875 -0.25 
Q 13.140625 0.921875 6.890625 3.21875 
L 6.890625 13.375 
Q 12.890625 10.015625 18.65625 8.296875 
Q 24.421875 6.59375 29.984375 6.59375 
Q 38.421875 6.59375 43.015625 9.90625 
Q 47.609375 13.234375 47.609375 19.390625 
Q 47.609375 24.75 44.3125 27.78125 
Q 41.015625 30.8125 33.5 32.328125 
L 27.484375 33.5 
Q 16.453125 35.6875 11.515625 40.375 
Q 6.59375 45.0625 6.59375 53.421875 
Q 6.59375 63.09375 13.40625 68.65625 
Q 20.21875 74.21875 32.171875 74.21875 
Q 37.3125 74.21875 42.625 73.28125 
Q 47.953125 72.359375 53.515625 70.515625 
z
" id="DejaVuSans-83"/>
      <path d="M 4.203125 54.6875 
L 13.1875 54.6875 
L 24.421875 12.015625 
L 35.59375 54.6875 
L 46.1875 54.6875 
L 57.421875 12.015625 
L 68.609375 54.6875 
L 77.59375 54.6875 
L 63.28125 0 
L 52.6875 0 
L 40.921875 44.828125 
L 29.109375 0 
L 18.5 0 
z
" id="DejaVuSans-119"/>
      <path d="M 59.515625 10.40625 
L 59.515625 29.984375 
L 43.40625 29.984375 
L 43.40625 38.09375 
L 69.28125 38.09375 
L 69.28125 6.78125 
Q 63.578125 2.734375 56.6875 0.65625 
Q 49.8125 -1.421875 42 -1.421875 
Q 24.90625 -1.421875 15.25 8.5625 
Q 5.609375 18.5625 5.609375 36.375 
Q 5.609375 54.25 15.25 64.234375 
Q 24.90625 74.21875 42 74.21875 
Q 49.125 74.21875 55.546875 72.453125 
Q 61.96875 70.703125 67.390625 67.28125 
L 67.390625 56.78125 
Q 61.921875 61.421875 55.765625 63.765625 
Q 49.609375 66.109375 42.828125 66.109375 
Q 29.4375 66.109375 22.71875 58.640625 
Q 16.015625 51.171875 16.015625 36.375 
Q 16.015625 21.625 22.71875 14.15625 
Q 29.4375 6.6875 42.828125 6.6875 
Q 48.046875 6.6875 52.140625 7.59375 
Q 56.25 8.5 59.515625 10.40625 
z
" id="DejaVuSans-71"/>
     </defs>
     <use xlink:href="#DejaVuSans-53"/>
     <use x="63.623047" xlink:href="#DejaVuSans-52"/>
     <use x="127.246094" xlink:href="#DejaVuSans-32"/>
     <use x="159.033203" xlink:href="#DejaVuSans-83"/>
     <use x="222.509766" xlink:href="#DejaVuSans-99"/>
     <use x="277.490234" xlink:href="#DejaVuSans-104"/>
     <use x="340.869141" xlink:href="#DejaVuSans-119"/>
     <use x="422.65625" xlink:href="#DejaVuSans-101"/>
     <use x="484.179688" xlink:href="#DejaVuSans-102"/>
     <use x="519.384766" xlink:href="#DejaVuSans-101"/>
     <use x="580.908203" xlink:href="#DejaVuSans-108"/>
     <use x="608.691406" xlink:href="#DejaVuSans-47"/>
     <use x="642.382812" xlink:href="#DejaVuSans-71"/>
     <use x="719.873047" xlink:href="#DejaVuSans-97"/>
     <use x="781.152344" xlink:href="#DejaVuSans-108"/>
     <use x="808.935547" xlink:href="#DejaVuSans-108"/>
     <use x="836.71875" xlink:href="#DejaVuSans-97"/>
     <use x="897.998047" xlink:href="#DejaVuSans-103"/>
     <use x="961.474609" xlink:href="#DejaVuSans-104"/>
     <use x="1024.853516" xlink:href="#DejaVuSans-101"/>
     <use x="1086.376953" xlink:href="#DejaVuSans-114"/>
     <use x="1127.490234" xlink:href="#DejaVuSans-32"/>
     <use x="1159.277344" xlink:href="#DejaVuSans-49"/>
     <use x="1222.900391" xlink:href="#DejaVuSans-48"/>
     <use x="1286.523438" xlink:href="#DejaVuSans-49"/>
    </g>
   </g>
  </g>
 </g>
 <defs>
  <clipPath id="pc337b429d5">
   <rect height="271.296" width="281.088" x="57.6" y="27.648"/>
  </clipPath>
 </defs>
</svg>
