<?xml version="1.0" encoding="utf-8" standalone="no"?>
<!DOCTYPE svg PUBLIC "-//W3C//DTD SVG 1.1//EN"
  "http://www.w3.org/Graphics/SVG/1.1/DTD/svg11.dtd">
<!-- Created with matplotlib (http://matplotlib.org/) -->
<svg height="353pt" version="1.1" viewBox="0 0 498 353" width="498pt" xmlns="http://www.w3.org/2000/svg" xmlns:xlink="http://www.w3.org/1999/xlink">
 <defs>
  <style type="text/css">
*{stroke-linecap:butt;stroke-linejoin:round;}
  </style>
 </defs>
 <g id="figure_1">
  <g id="patch_1">
   <path d="M 0 353.22225 
L 498.590625 353.22225 
L 498.590625 0 
L 0 0 
z
" style="fill:#ffffff;"/>
  </g>
  <g id="axes_1">
   <g id="patch_2">
    <path d="M 70.8 298.245375 
L 427.92 298.245375 
L 427.92 32.133375 
L 70.8 32.133375 
z
" style="fill:#ffffff;"/>
   </g>
   <g id="matplotlib.axis_1">
    <g id="xtick_1">
     <g id="line2d_1">
      <path clip-path="url(#p63de20768f)" d="M 70.8 298.245375 
L 70.8 32.133375 
" style="fill:none;stroke:#b0b0b0;stroke-linecap:square;stroke-width:0.8;"/>
     </g>
     <g id="line2d_2">
      <defs>
       <path d="M 0 0 
L 0 3.5 
" id="mcbc336a7b8" style="stroke:#000000;stroke-width:0.8;"/>
      </defs>
      <g>
       <use style="stroke:#000000;stroke-width:0.8;" x="70.8" xlink:href="#mcbc336a7b8" y="298.245375"/>
      </g>
     </g>
     <g id="text_1">
      <!-- 0 -->
      <defs>
       <path d="M 31.78125 66.40625 
Q 24.171875 66.40625 20.328125 58.90625 
Q 16.5 51.421875 16.5 36.375 
Q 16.5 21.390625 20.328125 13.890625 
Q 24.171875 6.390625 31.78125 6.390625 
Q 39.453125 6.390625 43.28125 13.890625 
Q 47.125 21.390625 47.125 36.375 
Q 47.125 51.421875 43.28125 58.90625 
Q 39.453125 66.40625 31.78125 66.40625 
z
M 31.78125 74.21875 
Q 44.046875 74.21875 50.515625 64.515625 
Q 56.984375 54.828125 56.984375 36.375 
Q 56.984375 17.96875 50.515625 8.265625 
Q 44.046875 -1.421875 31.78125 -1.421875 
Q 19.53125 -1.421875 13.0625 8.265625 
Q 6.59375 17.96875 6.59375 36.375 
Q 6.59375 54.828125 13.0625 64.515625 
Q 19.53125 74.21875 31.78125 74.21875 
z
" id="DejaVuSans-30"/>
      </defs>
      <g transform="translate(64.4375 320.44225)scale(0.2 -0.2)">
       <use xlink:href="#DejaVuSans-30"/>
      </g>
     </g>
    </g>
    <g id="xtick_2">
     <g id="line2d_3">
      <path clip-path="url(#p63de20768f)" d="M 153.085714 298.245375 
L 153.085714 32.133375 
" style="fill:none;stroke:#b0b0b0;stroke-linecap:square;stroke-width:0.8;"/>
     </g>
     <g id="line2d_4">
      <g>
       <use style="stroke:#000000;stroke-width:0.8;" x="153.085714" xlink:href="#mcbc336a7b8" y="298.245375"/>
      </g>
     </g>
     <g id="text_2">
      <!-- 2 -->
      <defs>
       <path d="M 19.1875 8.296875 
L 53.609375 8.296875 
L 53.609375 0 
L 7.328125 0 
L 7.328125 8.296875 
Q 12.9375 14.109375 22.625 23.890625 
Q 32.328125 33.6875 34.8125 36.53125 
Q 39.546875 41.84375 41.421875 45.53125 
Q 43.3125 49.21875 43.3125 52.78125 
Q 43.3125 58.59375 39.234375 62.25 
Q 35.15625 65.921875 28.609375 65.921875 
Q 23.96875 65.921875 18.8125 64.3125 
Q 13.671875 62.703125 7.8125 59.421875 
L 7.8125 69.390625 
Q 13.765625 71.78125 18.9375 73 
Q 24.125 74.21875 28.421875 74.21875 
Q 39.75 74.21875 46.484375 68.546875 
Q 53.21875 62.890625 53.21875 53.421875 
Q 53.21875 48.921875 51.53125 44.890625 
Q 49.859375 40.875 45.40625 35.40625 
Q 44.1875 33.984375 37.640625 27.21875 
Q 31.109375 20.453125 19.1875 8.296875 
z
" id="DejaVuSans-32"/>
      </defs>
      <g transform="translate(146.723214 320.44225)scale(0.2 -0.2)">
       <use xlink:href="#DejaVuSans-32"/>
      </g>
     </g>
    </g>
    <g id="xtick_3">
     <g id="line2d_5">
      <path clip-path="url(#p63de20768f)" d="M 235.371429 298.245375 
L 235.371429 32.133375 
" style="fill:none;stroke:#b0b0b0;stroke-linecap:square;stroke-width:0.8;"/>
     </g>
     <g id="line2d_6">
      <g>
       <use style="stroke:#000000;stroke-width:0.8;" x="235.371429" xlink:href="#mcbc336a7b8" y="298.245375"/>
      </g>
     </g>
     <g id="text_3">
      <!-- 4 -->
      <defs>
       <path d="M 37.796875 64.3125 
L 12.890625 25.390625 
L 37.796875 25.390625 
z
M 35.203125 72.90625 
L 47.609375 72.90625 
L 47.609375 25.390625 
L 58.015625 25.390625 
L 58.015625 17.1875 
L 47.609375 17.1875 
L 47.609375 0 
L 37.796875 0 
L 37.796875 17.1875 
L 4.890625 17.1875 
L 4.890625 26.703125 
z
" id="DejaVuSans-34"/>
      </defs>
      <g transform="translate(229.008929 320.44225)scale(0.2 -0.2)">
       <use xlink:href="#DejaVuSans-34"/>
      </g>
     </g>
    </g>
    <g id="xtick_4">
     <g id="line2d_7">
      <path clip-path="url(#p63de20768f)" d="M 317.657143 298.245375 
L 317.657143 32.133375 
" style="fill:none;stroke:#b0b0b0;stroke-linecap:square;stroke-width:0.8;"/>
     </g>
     <g id="line2d_8">
      <g>
       <use style="stroke:#000000;stroke-width:0.8;" x="317.657143" xlink:href="#mcbc336a7b8" y="298.245375"/>
      </g>
     </g>
     <g id="text_4">
      <!-- 6 -->
      <defs>
       <path d="M 33.015625 40.375 
Q 26.375 40.375 22.484375 35.828125 
Q 18.609375 31.296875 18.609375 23.390625 
Q 18.609375 15.53125 22.484375 10.953125 
Q 26.375 6.390625 33.015625 6.390625 
Q 39.65625 6.390625 43.53125 10.953125 
Q 47.40625 15.53125 47.40625 23.390625 
Q 47.40625 31.296875 43.53125 35.828125 
Q 39.65625 40.375 33.015625 40.375 
z
M 52.59375 71.296875 
L 52.59375 62.3125 
Q 48.875 64.0625 45.09375 64.984375 
Q 41.3125 65.921875 37.59375 65.921875 
Q 27.828125 65.921875 22.671875 59.328125 
Q 17.53125 52.734375 16.796875 39.40625 
Q 19.671875 43.65625 24.015625 45.921875 
Q 28.375 48.1875 33.59375 48.1875 
Q 44.578125 48.1875 50.953125 41.515625 
Q 57.328125 34.859375 57.328125 23.390625 
Q 57.328125 12.15625 50.6875 5.359375 
Q 44.046875 -1.421875 33.015625 -1.421875 
Q 20.359375 -1.421875 13.671875 8.265625 
Q 6.984375 17.96875 6.984375 36.375 
Q 6.984375 53.65625 15.1875 63.9375 
Q 23.390625 74.21875 37.203125 74.21875 
Q 40.921875 74.21875 44.703125 73.484375 
Q 48.484375 72.75 52.59375 71.296875 
z
" id="DejaVuSans-36"/>
      </defs>
      <g transform="translate(311.294643 320.44225)scale(0.2 -0.2)">
       <use xlink:href="#DejaVuSans-36"/>
      </g>
     </g>
    </g>
    <g id="xtick_5">
     <g id="line2d_9">
      <path clip-path="url(#p63de20768f)" d="M 399.942857 298.245375 
L 399.942857 32.133375 
" style="fill:none;stroke:#b0b0b0;stroke-linecap:square;stroke-width:0.8;"/>
     </g>
     <g id="line2d_10">
      <g>
       <use style="stroke:#000000;stroke-width:0.8;" x="399.942857" xlink:href="#mcbc336a7b8" y="298.245375"/>
      </g>
     </g>
     <g id="text_5">
      <!-- 8 -->
      <defs>
       <path d="M 31.78125 34.625 
Q 24.75 34.625 20.71875 30.859375 
Q 16.703125 27.09375 16.703125 20.515625 
Q 16.703125 13.921875 20.71875 10.15625 
Q 24.75 6.390625 31.78125 6.390625 
Q 38.8125 6.390625 42.859375 10.171875 
Q 46.921875 13.96875 46.921875 20.515625 
Q 46.921875 27.09375 42.890625 30.859375 
Q 38.875 34.625 31.78125 34.625 
z
M 21.921875 38.8125 
Q 15.578125 40.375 12.03125 44.71875 
Q 8.5 49.078125 8.5 55.328125 
Q 8.5 64.0625 14.71875 69.140625 
Q 20.953125 74.21875 31.78125 74.21875 
Q 42.671875 74.21875 48.875 69.140625 
Q 55.078125 64.0625 55.078125 55.328125 
Q 55.078125 49.078125 51.53125 44.71875 
Q 48 40.375 41.703125 38.8125 
Q 48.828125 37.15625 52.796875 32.3125 
Q 56.78125 27.484375 56.78125 20.515625 
Q 56.78125 9.90625 50.3125 4.234375 
Q 43.84375 -1.421875 31.78125 -1.421875 
Q 19.734375 -1.421875 13.25 4.234375 
Q 6.78125 9.90625 6.78125 20.515625 
Q 6.78125 27.484375 10.78125 32.3125 
Q 14.796875 37.15625 21.921875 38.8125 
z
M 18.3125 54.390625 
Q 18.3125 48.734375 21.84375 45.5625 
Q 25.390625 42.390625 31.78125 42.390625 
Q 38.140625 42.390625 41.71875 45.5625 
Q 45.3125 48.734375 45.3125 54.390625 
Q 45.3125 60.0625 41.71875 63.234375 
Q 38.140625 66.40625 31.78125 66.40625 
Q 25.390625 66.40625 21.84375 63.234375 
Q 18.3125 60.0625 18.3125 54.390625 
z
" id="DejaVuSans-38"/>
      </defs>
      <g transform="translate(393.580357 320.44225)scale(0.2 -0.2)">
       <use xlink:href="#DejaVuSans-38"/>
      </g>
     </g>
    </g>
    <g id="text_6">
     <!-- log10 of # (f+g)-evals / dimension -->
     <defs>
      <path d="M 9.421875 75.984375 
L 18.40625 75.984375 
L 18.40625 0 
L 9.421875 0 
z
" id="DejaVuSans-6c"/>
      <path d="M 30.609375 48.390625 
Q 23.390625 48.390625 19.1875 42.75 
Q 14.984375 37.109375 14.984375 27.296875 
Q 14.984375 17.484375 19.15625 11.84375 
Q 23.34375 6.203125 30.609375 6.203125 
Q 37.796875 6.203125 41.984375 11.859375 
Q 46.1875 17.53125 46.1875 27.296875 
Q 46.1875 37.015625 41.984375 42.703125 
Q 37.796875 48.390625 30.609375 48.390625 
z
M 30.609375 56 
Q 42.328125 56 49.015625 48.375 
Q 55.71875 40.765625 55.71875 27.296875 
Q 55.71875 13.875 49.015625 6.21875 
Q 42.328125 -1.421875 30.609375 -1.421875 
Q 18.84375 -1.421875 12.171875 6.21875 
Q 5.515625 13.875 5.515625 27.296875 
Q 5.515625 40.765625 12.171875 48.375 
Q 18.84375 56 30.609375 56 
z
" id="DejaVuSans-6f"/>
      <path d="M 45.40625 27.984375 
Q 45.40625 37.75 41.375 43.109375 
Q 37.359375 48.484375 30.078125 48.484375 
Q 22.859375 48.484375 18.828125 43.109375 
Q 14.796875 37.75 14.796875 27.984375 
Q 14.796875 18.265625 18.828125 12.890625 
Q 22.859375 7.515625 30.078125 7.515625 
Q 37.359375 7.515625 41.375 12.890625 
Q 45.40625 18.265625 45.40625 27.984375 
z
M 54.390625 6.78125 
Q 54.390625 -7.171875 48.1875 -13.984375 
Q 42 -20.796875 29.203125 -20.796875 
Q 24.46875 -20.796875 20.265625 -20.09375 
Q 16.0625 -19.390625 12.109375 -17.921875 
L 12.109375 -9.1875 
Q 16.0625 -11.328125 19.921875 -12.34375 
Q 23.78125 -13.375 27.78125 -13.375 
Q 36.625 -13.375 41.015625 -8.765625 
Q 45.40625 -4.15625 45.40625 5.171875 
L 45.40625 9.625 
Q 42.625 4.78125 38.28125 2.390625 
Q 33.9375 0 27.875 0 
Q 17.828125 0 11.671875 7.65625 
Q 5.515625 15.328125 5.515625 27.984375 
Q 5.515625 40.671875 11.671875 48.328125 
Q 17.828125 56 27.875 56 
Q 33.9375 56 38.28125 53.609375 
Q 42.625 51.21875 45.40625 46.390625 
L 45.40625 54.6875 
L 54.390625 54.6875 
z
" id="DejaVuSans-67"/>
      <path d="M 12.40625 8.296875 
L 28.515625 8.296875 
L 28.515625 63.921875 
L 10.984375 60.40625 
L 10.984375 69.390625 
L 28.421875 72.90625 
L 38.28125 72.90625 
L 38.28125 8.296875 
L 54.390625 8.296875 
L 54.390625 0 
L 12.40625 0 
z
" id="DejaVuSans-31"/>
      <path id="DejaVuSans-20"/>
      <path d="M 37.109375 75.984375 
L 37.109375 68.5 
L 28.515625 68.5 
Q 23.6875 68.5 21.796875 66.546875 
Q 19.921875 64.59375 19.921875 59.515625 
L 19.921875 54.6875 
L 34.71875 54.6875 
L 34.71875 47.703125 
L 19.921875 47.703125 
L 19.921875 0 
L 10.890625 0 
L 10.890625 47.703125 
L 2.296875 47.703125 
L 2.296875 54.6875 
L 10.890625 54.6875 
L 10.890625 58.5 
Q 10.890625 67.625 15.140625 71.796875 
Q 19.390625 75.984375 28.609375 75.984375 
z
" id="DejaVuSans-66"/>
      <path d="M 51.125 44 
L 36.921875 44 
L 32.8125 27.6875 
L 47.125 27.6875 
z
M 43.796875 71.78125 
L 38.71875 51.515625 
L 52.984375 51.515625 
L 58.109375 71.78125 
L 65.921875 71.78125 
L 60.890625 51.515625 
L 76.125 51.515625 
L 76.125 44 
L 58.984375 44 
L 54.984375 27.6875 
L 70.515625 27.6875 
L 70.515625 20.21875 
L 53.078125 20.21875 
L 48 0 
L 40.1875 0 
L 45.21875 20.21875 
L 30.90625 20.21875 
L 25.875 0 
L 18.015625 0 
L 23.09375 20.21875 
L 7.71875 20.21875 
L 7.71875 27.6875 
L 24.90625 27.6875 
L 29 44 
L 13.28125 44 
L 13.28125 51.515625 
L 30.90625 51.515625 
L 35.890625 71.78125 
z
" id="DejaVuSans-23"/>
      <path d="M 31 75.875 
Q 24.46875 64.65625 21.28125 53.65625 
Q 18.109375 42.671875 18.109375 31.390625 
Q 18.109375 20.125 21.3125 9.0625 
Q 24.515625 -2 31 -13.1875 
L 23.1875 -13.1875 
Q 15.875 -1.703125 12.234375 9.375 
Q 8.59375 20.453125 8.59375 31.390625 
Q 8.59375 42.28125 12.203125 53.3125 
Q 15.828125 64.359375 23.1875 75.875 
z
" id="DejaVuSans-28"/>
      <path d="M 46 62.703125 
L 46 35.5 
L 73.1875 35.5 
L 73.1875 27.203125 
L 46 27.203125 
L 46 0 
L 37.796875 0 
L 37.796875 27.203125 
L 10.59375 27.203125 
L 10.59375 35.5 
L 37.796875 35.5 
L 37.796875 62.703125 
z
" id="DejaVuSans-2b"/>
      <path d="M 8.015625 75.875 
L 15.828125 75.875 
Q 23.140625 64.359375 26.78125 53.3125 
Q 30.421875 42.28125 30.421875 31.390625 
Q 30.421875 20.453125 26.78125 9.375 
Q 23.140625 -1.703125 15.828125 -13.1875 
L 8.015625 -13.1875 
Q 14.5 -2 17.703125 9.0625 
Q 20.90625 20.125 20.90625 31.390625 
Q 20.90625 42.671875 17.703125 53.65625 
Q 14.5 64.65625 8.015625 75.875 
z
" id="DejaVuSans-29"/>
      <path d="M 4.890625 31.390625 
L 31.203125 31.390625 
L 31.203125 23.390625 
L 4.890625 23.390625 
z
" id="DejaVuSans-2d"/>
      <path d="M 56.203125 29.59375 
L 56.203125 25.203125 
L 14.890625 25.203125 
Q 15.484375 15.921875 20.484375 11.0625 
Q 25.484375 6.203125 34.421875 6.203125 
Q 39.59375 6.203125 44.453125 7.46875 
Q 49.3125 8.734375 54.109375 11.28125 
L 54.109375 2.78125 
Q 49.265625 0.734375 44.1875 -0.34375 
Q 39.109375 -1.421875 33.890625 -1.421875 
Q 20.796875 -1.421875 13.15625 6.1875 
Q 5.515625 13.8125 5.515625 26.8125 
Q 5.515625 40.234375 12.765625 48.109375 
Q 20.015625 56 32.328125 56 
Q 43.359375 56 49.78125 48.890625 
Q 56.203125 41.796875 56.203125 29.59375 
z
M 47.21875 32.234375 
Q 47.125 39.59375 43.09375 43.984375 
Q 39.0625 48.390625 32.421875 48.390625 
Q 24.90625 48.390625 20.390625 44.140625 
Q 15.875 39.890625 15.1875 32.171875 
z
" id="DejaVuSans-65"/>
      <path d="M 2.984375 54.6875 
L 12.5 54.6875 
L 29.59375 8.796875 
L 46.6875 54.6875 
L 56.203125 54.6875 
L 35.6875 0 
L 23.484375 0 
z
" id="DejaVuSans-76"/>
      <path d="M 34.28125 27.484375 
Q 23.390625 27.484375 19.1875 25 
Q 14.984375 22.515625 14.984375 16.5 
Q 14.984375 11.71875 18.140625 8.90625 
Q 21.296875 6.109375 26.703125 6.109375 
Q 34.1875 6.109375 38.703125 11.40625 
Q 43.21875 16.703125 43.21875 25.484375 
L 43.21875 27.484375 
z
M 52.203125 31.203125 
L 52.203125 0 
L 43.21875 0 
L 43.21875 8.296875 
Q 40.140625 3.328125 35.546875 0.953125 
Q 30.953125 -1.421875 24.3125 -1.421875 
Q 15.921875 -1.421875 10.953125 3.296875 
Q 6 8.015625 6 15.921875 
Q 6 25.140625 12.171875 29.828125 
Q 18.359375 34.515625 30.609375 34.515625 
L 43.21875 34.515625 
L 43.21875 35.40625 
Q 43.21875 41.609375 39.140625 45 
Q 35.0625 48.390625 27.6875 48.390625 
Q 23 48.390625 18.546875 47.265625 
Q 14.109375 46.140625 10.015625 43.890625 
L 10.015625 52.203125 
Q 14.9375 54.109375 19.578125 55.046875 
Q 24.21875 56 28.609375 56 
Q 40.484375 56 46.34375 49.84375 
Q 52.203125 43.703125 52.203125 31.203125 
z
" id="DejaVuSans-61"/>
      <path d="M 44.28125 53.078125 
L 44.28125 44.578125 
Q 40.484375 46.53125 36.375 47.5 
Q 32.28125 48.484375 27.875 48.484375 
Q 21.1875 48.484375 17.84375 46.4375 
Q 14.5 44.390625 14.5 40.28125 
Q 14.5 37.15625 16.890625 35.375 
Q 19.28125 33.59375 26.515625 31.984375 
L 29.59375 31.296875 
Q 39.15625 29.25 43.1875 25.515625 
Q 47.21875 21.78125 47.21875 15.09375 
Q 47.21875 7.46875 41.1875 3.015625 
Q 35.15625 -1.421875 24.609375 -1.421875 
Q 20.21875 -1.421875 15.453125 -0.5625 
Q 10.6875 0.296875 5.421875 2 
L 5.421875 11.28125 
Q 10.40625 8.6875 15.234375 7.390625 
Q 20.0625 6.109375 24.8125 6.109375 
Q 31.15625 6.109375 34.5625 8.28125 
Q 37.984375 10.453125 37.984375 14.40625 
Q 37.984375 18.0625 35.515625 20.015625 
Q 33.0625 21.96875 24.703125 23.78125 
L 21.578125 24.515625 
Q 13.234375 26.265625 9.515625 29.90625 
Q 5.8125 33.546875 5.8125 39.890625 
Q 5.8125 47.609375 11.28125 51.796875 
Q 16.75 56 26.8125 56 
Q 31.78125 56 36.171875 55.265625 
Q 40.578125 54.546875 44.28125 53.078125 
z
" id="DejaVuSans-73"/>
      <path d="M 25.390625 72.90625 
L 33.6875 72.90625 
L 8.296875 -9.28125 
L 0 -9.28125 
z
" id="DejaVuSans-2f"/>
      <path d="M 45.40625 46.390625 
L 45.40625 75.984375 
L 54.390625 75.984375 
L 54.390625 0 
L 45.40625 0 
L 45.40625 8.203125 
Q 42.578125 3.328125 38.25 0.953125 
Q 33.9375 -1.421875 27.875 -1.421875 
Q 17.96875 -1.421875 11.734375 6.484375 
Q 5.515625 14.40625 5.515625 27.296875 
Q 5.515625 40.1875 11.734375 48.09375 
Q 17.96875 56 27.875 56 
Q 33.9375 56 38.25 53.625 
Q 42.578125 51.265625 45.40625 46.390625 
z
M 14.796875 27.296875 
Q 14.796875 17.390625 18.875 11.75 
Q 22.953125 6.109375 30.078125 6.109375 
Q 37.203125 6.109375 41.296875 11.75 
Q 45.40625 17.390625 45.40625 27.296875 
Q 45.40625 37.203125 41.296875 42.84375 
Q 37.203125 48.484375 30.078125 48.484375 
Q 22.953125 48.484375 18.875 42.84375 
Q 14.796875 37.203125 14.796875 27.296875 
z
" id="DejaVuSans-64"/>
      <path d="M 9.421875 54.6875 
L 18.40625 54.6875 
L 18.40625 0 
L 9.421875 0 
z
M 9.421875 75.984375 
L 18.40625 75.984375 
L 18.40625 64.59375 
L 9.421875 64.59375 
z
" id="DejaVuSans-69"/>
      <path d="M 52 44.1875 
Q 55.375 50.25 60.0625 53.125 
Q 64.75 56 71.09375 56 
Q 79.640625 56 84.28125 50.015625 
Q 88.921875 44.046875 88.921875 33.015625 
L 88.921875 0 
L 79.890625 0 
L 79.890625 32.71875 
Q 79.890625 40.578125 77.09375 44.375 
Q 74.3125 48.1875 68.609375 48.1875 
Q 61.625 48.1875 57.5625 43.546875 
Q 53.515625 38.921875 53.515625 30.90625 
L 53.515625 0 
L 44.484375 0 
L 44.484375 32.71875 
Q 44.484375 40.625 41.703125 44.40625 
Q 38.921875 48.1875 33.109375 48.1875 
Q 26.21875 48.1875 22.15625 43.53125 
Q 18.109375 38.875 18.109375 30.90625 
L 18.109375 0 
L 9.078125 0 
L 9.078125 54.6875 
L 18.109375 54.6875 
L 18.109375 46.1875 
Q 21.1875 51.21875 25.484375 53.609375 
Q 29.78125 56 35.6875 56 
Q 41.65625 56 45.828125 52.96875 
Q 50 49.953125 52 44.1875 
z
" id="DejaVuSans-6d"/>
      <path d="M 54.890625 33.015625 
L 54.890625 0 
L 45.90625 0 
L 45.90625 32.71875 
Q 45.90625 40.484375 42.875 44.328125 
Q 39.84375 48.1875 33.796875 48.1875 
Q 26.515625 48.1875 22.3125 43.546875 
Q 18.109375 38.921875 18.109375 30.90625 
L 18.109375 0 
L 9.078125 0 
L 9.078125 54.6875 
L 18.109375 54.6875 
L 18.109375 46.1875 
Q 21.34375 51.125 25.703125 53.5625 
Q 30.078125 56 35.796875 56 
Q 45.21875 56 50.046875 50.171875 
Q 54.890625 44.34375 54.890625 33.015625 
z
" id="DejaVuSans-6e"/>
     </defs>
     <g transform="translate(93.752813 342.278812)scale(0.18 -0.18)">
      <use xlink:href="#DejaVuSans-6c"/>
      <use x="27.783203" xlink:href="#DejaVuSans-6f"/>
      <use x="88.964844" xlink:href="#DejaVuSans-67"/>
      <use x="152.441406" xlink:href="#DejaVuSans-31"/>
      <use x="216.064453" xlink:href="#DejaVuSans-30"/>
      <use x="279.6875" xlink:href="#DejaVuSans-20"/>
      <use x="311.474609" xlink:href="#DejaVuSans-6f"/>
      <use x="372.65625" xlink:href="#DejaVuSans-66"/>
      <use x="407.861328" xlink:href="#DejaVuSans-20"/>
      <use x="439.648438" xlink:href="#DejaVuSans-23"/>
      <use x="523.4375" xlink:href="#DejaVuSans-20"/>
      <use x="555.224609" xlink:href="#DejaVuSans-28"/>
      <use x="594.238281" xlink:href="#DejaVuSans-66"/>
      <use x="629.443359" xlink:href="#DejaVuSans-2b"/>
      <use x="713.232422" xlink:href="#DejaVuSans-67"/>
      <use x="776.708984" xlink:href="#DejaVuSans-29"/>
      <use x="815.722656" xlink:href="#DejaVuSans-2d"/>
      <use x="851.806641" xlink:href="#DejaVuSans-65"/>
      <use x="913.330078" xlink:href="#DejaVuSans-76"/>
      <use x="972.509766" xlink:href="#DejaVuSans-61"/>
      <use x="1033.789062" xlink:href="#DejaVuSans-6c"/>
      <use x="1061.572266" xlink:href="#DejaVuSans-73"/>
      <use x="1113.671875" xlink:href="#DejaVuSans-20"/>
      <use x="1145.458984" xlink:href="#DejaVuSans-2f"/>
      <use x="1179.150391" xlink:href="#DejaVuSans-20"/>
      <use x="1210.9375" xlink:href="#DejaVuSans-64"/>
      <use x="1274.414062" xlink:href="#DejaVuSans-69"/>
      <use x="1302.197266" xlink:href="#DejaVuSans-6d"/>
      <use x="1399.609375" xlink:href="#DejaVuSans-65"/>
      <use x="1461.132812" xlink:href="#DejaVuSans-6e"/>
      <use x="1524.511719" xlink:href="#DejaVuSans-73"/>
      <use x="1576.611328" xlink:href="#DejaVuSans-69"/>
      <use x="1604.394531" xlink:href="#DejaVuSans-6f"/>
      <use x="1665.576172" xlink:href="#DejaVuSans-6e"/>
     </g>
    </g>
   </g>
   <g id="matplotlib.axis_2">
    <g id="ytick_1">
     <g id="line2d_11">
      <path clip-path="url(#p63de20768f)" d="M 70.8 298.245375 
L 427.92 298.245375 
" style="fill:none;stroke:#b0b0b0;stroke-linecap:square;stroke-width:0.8;"/>
     </g>
     <g id="line2d_12">
      <defs>
       <path d="M 0 0 
L -3.5 0 
" id="m78ac14f904" style="stroke:#000000;stroke-width:0.8;"/>
      </defs>
      <g>
       <use style="stroke:#000000;stroke-width:0.8;" x="70.8" xlink:href="#m78ac14f904" y="298.245375"/>
      </g>
     </g>
     <g id="text_7">
      <!-- 0.0 -->
      <defs>
       <path d="M 10.6875 12.40625 
L 21 12.40625 
L 21 0 
L 10.6875 0 
z
" id="DejaVuSans-2e"/>
      </defs>
      <g transform="translate(31.99375 305.843812)scale(0.2 -0.2)">
       <use xlink:href="#DejaVuSans-30"/>
       <use x="63.623047" xlink:href="#DejaVuSans-2e"/>
       <use x="95.410156" xlink:href="#DejaVuSans-30"/>
      </g>
     </g>
    </g>
    <g id="ytick_2">
     <g id="line2d_13">
      <path clip-path="url(#p63de20768f)" d="M 70.8 245.549929 
L 427.92 245.549929 
" style="fill:none;stroke:#b0b0b0;stroke-linecap:square;stroke-width:0.8;"/>
     </g>
     <g id="line2d_14">
      <g>
       <use style="stroke:#000000;stroke-width:0.8;" x="70.8" xlink:href="#m78ac14f904" y="245.549929"/>
      </g>
     </g>
     <g id="text_8">
      <!-- 0.2 -->
      <g transform="translate(31.99375 253.148367)scale(0.2 -0.2)">
       <use xlink:href="#DejaVuSans-30"/>
       <use x="63.623047" xlink:href="#DejaVuSans-2e"/>
       <use x="95.410156" xlink:href="#DejaVuSans-32"/>
      </g>
     </g>
    </g>
    <g id="ytick_3">
     <g id="line2d_15">
      <path clip-path="url(#p63de20768f)" d="M 70.8 192.854484 
L 427.92 192.854484 
" style="fill:none;stroke:#b0b0b0;stroke-linecap:square;stroke-width:0.8;"/>
     </g>
     <g id="line2d_16">
      <g>
       <use style="stroke:#000000;stroke-width:0.8;" x="70.8" xlink:href="#m78ac14f904" y="192.854484"/>
      </g>
     </g>
     <g id="text_9">
      <!-- 0.4 -->
      <g transform="translate(31.99375 200.452921)scale(0.2 -0.2)">
       <use xlink:href="#DejaVuSans-30"/>
       <use x="63.623047" xlink:href="#DejaVuSans-2e"/>
       <use x="95.410156" xlink:href="#DejaVuSans-34"/>
      </g>
     </g>
    </g>
    <g id="ytick_4">
     <g id="line2d_17">
      <path clip-path="url(#p63de20768f)" d="M 70.8 140.159038 
L 427.92 140.159038 
" style="fill:none;stroke:#b0b0b0;stroke-linecap:square;stroke-width:0.8;"/>
     </g>
     <g id="line2d_18">
      <g>
       <use style="stroke:#000000;stroke-width:0.8;" x="70.8" xlink:href="#m78ac14f904" y="140.159038"/>
      </g>
     </g>
     <g id="text_10">
      <!-- 0.6 -->
      <g transform="translate(31.99375 147.757476)scale(0.2 -0.2)">
       <use xlink:href="#DejaVuSans-30"/>
       <use x="63.623047" xlink:href="#DejaVuSans-2e"/>
       <use x="95.410156" xlink:href="#DejaVuSans-36"/>
      </g>
     </g>
    </g>
    <g id="ytick_5">
     <g id="line2d_19">
      <path clip-path="url(#p63de20768f)" d="M 70.8 87.463593 
L 427.92 87.463593 
" style="fill:none;stroke:#b0b0b0;stroke-linecap:square;stroke-width:0.8;"/>
     </g>
     <g id="line2d_20">
      <g>
       <use style="stroke:#000000;stroke-width:0.8;" x="70.8" xlink:href="#m78ac14f904" y="87.463593"/>
      </g>
     </g>
     <g id="text_11">
      <!-- 0.8 -->
      <g transform="translate(31.99375 95.06203)scale(0.2 -0.2)">
       <use xlink:href="#DejaVuSans-30"/>
       <use x="63.623047" xlink:href="#DejaVuSans-2e"/>
       <use x="95.410156" xlink:href="#DejaVuSans-38"/>
      </g>
     </g>
    </g>
    <g id="ytick_6">
     <g id="line2d_21">
      <path clip-path="url(#p63de20768f)" d="M 70.8 34.768147 
L 427.92 34.768147 
" style="fill:none;stroke:#b0b0b0;stroke-linecap:square;stroke-width:0.8;"/>
     </g>
     <g id="line2d_22">
      <g>
       <use style="stroke:#000000;stroke-width:0.8;" x="70.8" xlink:href="#m78ac14f904" y="34.768147"/>
      </g>
     </g>
     <g id="text_12">
      <!-- 1.0 -->
      <g transform="translate(31.99375 42.366585)scale(0.2 -0.2)">
       <use xlink:href="#DejaVuSans-31"/>
       <use x="63.623047" xlink:href="#DejaVuSans-2e"/>
       <use x="95.410156" xlink:href="#DejaVuSans-30"/>
      </g>
     </g>
    </g>
    <g id="text_13">
     <!-- Proportion of function+target pairs -->
     <defs>
      <path d="M 19.671875 64.796875 
L 19.671875 37.40625 
L 32.078125 37.40625 
Q 38.96875 37.40625 42.71875 40.96875 
Q 46.484375 44.53125 46.484375 51.125 
Q 46.484375 57.671875 42.71875 61.234375 
Q 38.96875 64.796875 32.078125 64.796875 
z
M 9.8125 72.90625 
L 32.078125 72.90625 
Q 44.34375 72.90625 50.609375 67.359375 
Q 56.890625 61.8125 56.890625 51.125 
Q 56.890625 40.328125 50.609375 34.8125 
Q 44.34375 29.296875 32.078125 29.296875 
L 19.671875 29.296875 
L 19.671875 0 
L 9.8125 0 
z
" id="DejaVuSans-50"/>
      <path d="M 41.109375 46.296875 
Q 39.59375 47.171875 37.8125 47.578125 
Q 36.03125 48 33.890625 48 
Q 26.265625 48 22.1875 43.046875 
Q 18.109375 38.09375 18.109375 28.8125 
L 18.109375 0 
L 9.078125 0 
L 9.078125 54.6875 
L 18.109375 54.6875 
L 18.109375 46.1875 
Q 20.953125 51.171875 25.484375 53.578125 
Q 30.03125 56 36.53125 56 
Q 37.453125 56 38.578125 55.875 
Q 39.703125 55.765625 41.0625 55.515625 
z
" id="DejaVuSans-72"/>
      <path d="M 18.109375 8.203125 
L 18.109375 -20.796875 
L 9.078125 -20.796875 
L 9.078125 54.6875 
L 18.109375 54.6875 
L 18.109375 46.390625 
Q 20.953125 51.265625 25.265625 53.625 
Q 29.59375 56 35.59375 56 
Q 45.5625 56 51.78125 48.09375 
Q 58.015625 40.1875 58.015625 27.296875 
Q 58.015625 14.40625 51.78125 6.484375 
Q 45.5625 -1.421875 35.59375 -1.421875 
Q 29.59375 -1.421875 25.265625 0.953125 
Q 20.953125 3.328125 18.109375 8.203125 
z
M 48.6875 27.296875 
Q 48.6875 37.203125 44.609375 42.84375 
Q 40.53125 48.484375 33.40625 48.484375 
Q 26.265625 48.484375 22.1875 42.84375 
Q 18.109375 37.203125 18.109375 27.296875 
Q 18.109375 17.390625 22.1875 11.75 
Q 26.265625 6.109375 33.40625 6.109375 
Q 40.53125 6.109375 44.609375 11.75 
Q 48.6875 17.390625 48.6875 27.296875 
z
" id="DejaVuSans-70"/>
      <path d="M 18.3125 70.21875 
L 18.3125 54.6875 
L 36.8125 54.6875 
L 36.8125 47.703125 
L 18.3125 47.703125 
L 18.3125 18.015625 
Q 18.3125 11.328125 20.140625 9.421875 
Q 21.96875 7.515625 27.59375 7.515625 
L 36.8125 7.515625 
L 36.8125 0 
L 27.59375 0 
Q 17.1875 0 13.234375 3.875 
Q 9.28125 7.765625 9.28125 18.015625 
L 9.28125 47.703125 
L 2.6875 47.703125 
L 2.6875 54.6875 
L 9.28125 54.6875 
L 9.28125 70.21875 
z
" id="DejaVuSans-74"/>
      <path d="M 8.5 21.578125 
L 8.5 54.6875 
L 17.484375 54.6875 
L 17.484375 21.921875 
Q 17.484375 14.15625 20.5 10.265625 
Q 23.53125 6.390625 29.59375 6.390625 
Q 36.859375 6.390625 41.078125 11.03125 
Q 45.3125 15.671875 45.3125 23.6875 
L 45.3125 54.6875 
L 54.296875 54.6875 
L 54.296875 0 
L 45.3125 0 
L 45.3125 8.40625 
Q 42.046875 3.421875 37.71875 1 
Q 33.40625 -1.421875 27.6875 -1.421875 
Q 18.265625 -1.421875 13.375 4.4375 
Q 8.5 10.296875 8.5 21.578125 
z
M 31.109375 56 
z
" id="DejaVuSans-75"/>
      <path d="M 48.78125 52.59375 
L 48.78125 44.1875 
Q 44.96875 46.296875 41.140625 47.34375 
Q 37.3125 48.390625 33.40625 48.390625 
Q 24.65625 48.390625 19.8125 42.84375 
Q 14.984375 37.3125 14.984375 27.296875 
Q 14.984375 17.28125 19.8125 11.734375 
Q 24.65625 6.203125 33.40625 6.203125 
Q 37.3125 6.203125 41.140625 7.25 
Q 44.96875 8.296875 48.78125 10.40625 
L 48.78125 2.09375 
Q 45.015625 0.34375 40.984375 -0.53125 
Q 36.96875 -1.421875 32.421875 -1.421875 
Q 20.0625 -1.421875 12.78125 6.34375 
Q 5.515625 14.109375 5.515625 27.296875 
Q 5.515625 40.671875 12.859375 48.328125 
Q 20.21875 56 33.015625 56 
Q 37.15625 56 41.109375 55.140625 
Q 45.0625 54.296875 48.78125 52.59375 
z
" id="DejaVuSans-63"/>
     </defs>
     <g transform="translate(24.250312 323.17875)rotate(-90)scale(0.18 -0.18)">
      <use xlink:href="#DejaVuSans-50"/>
      <use x="60.287109" xlink:href="#DejaVuSans-72"/>
      <use x="101.369141" xlink:href="#DejaVuSans-6f"/>
      <use x="162.550781" xlink:href="#DejaVuSans-70"/>
      <use x="226.027344" xlink:href="#DejaVuSans-6f"/>
      <use x="287.208984" xlink:href="#DejaVuSans-72"/>
      <use x="328.322266" xlink:href="#DejaVuSans-74"/>
      <use x="367.53125" xlink:href="#DejaVuSans-69"/>
      <use x="395.314453" xlink:href="#DejaVuSans-6f"/>
      <use x="456.496094" xlink:href="#DejaVuSans-6e"/>
      <use x="519.875" xlink:href="#DejaVuSans-20"/>
      <use x="551.662109" xlink:href="#DejaVuSans-6f"/>
      <use x="612.84375" xlink:href="#DejaVuSans-66"/>
      <use x="648.048828" xlink:href="#DejaVuSans-20"/>
      <use x="679.835938" xlink:href="#DejaVuSans-66"/>
      <use x="715.041016" xlink:href="#DejaVuSans-75"/>
      <use x="778.419922" xlink:href="#DejaVuSans-6e"/>
      <use x="841.798828" xlink:href="#DejaVuSans-63"/>
      <use x="896.779297" xlink:href="#DejaVuSans-74"/>
      <use x="935.988281" xlink:href="#DejaVuSans-69"/>
      <use x="963.771484" xlink:href="#DejaVuSans-6f"/>
      <use x="1024.953125" xlink:href="#DejaVuSans-6e"/>
      <use x="1088.332031" xlink:href="#DejaVuSans-2b"/>
      <use x="1172.121094" xlink:href="#DejaVuSans-74"/>
      <use x="1211.330078" xlink:href="#DejaVuSans-61"/>
      <use x="1272.609375" xlink:href="#DejaVuSans-72"/>
      <use x="1313.707031" xlink:href="#DejaVuSans-67"/>
      <use x="1377.183594" xlink:href="#DejaVuSans-65"/>
      <use x="1438.707031" xlink:href="#DejaVuSans-74"/>
      <use x="1477.916016" xlink:href="#DejaVuSans-20"/>
      <use x="1509.703125" xlink:href="#DejaVuSans-70"/>
      <use x="1573.179688" xlink:href="#DejaVuSans-61"/>
      <use x="1634.458984" xlink:href="#DejaVuSans-69"/>
      <use x="1662.242188" xlink:href="#DejaVuSans-72"/>
      <use x="1703.355469" xlink:href="#DejaVuSans-73"/>
     </g>
    </g>
   </g>
   <g id="line2d_23">
    <defs>
     <path d="M 0 1.5 
C 0.397805 1.5 0.77937 1.341951 1.06066 1.06066 
C 1.341951 0.77937 1.5 0.397805 1.5 0 
C 1.5 -0.397805 1.341951 -0.77937 1.06066 -1.06066 
C 0.77937 -1.341951 0.397805 -1.5 0 -1.5 
C -0.397805 -1.5 -0.77937 -1.341951 -1.06066 -1.06066 
C -1.341951 -0.77937 -1.5 -0.397805 -1.5 0 
C -1.5 0.397805 -1.341951 0.77937 -1.06066 1.06066 
C -0.77937 1.341951 -0.397805 1.5 0 1.5 
z
" id="m523cfac092" style="stroke:#000080;"/>
    </defs>
    <g>
     <use style="fill:#000080;stroke:#000080;" x="267.632202" xlink:href="#m523cfac092" y="34.768147"/>
     <use style="fill:#000080;stroke:#000080;" x="267.632202" xlink:href="#m523cfac092" y="34.768147"/>
    </g>
   </g>
   <g id="line2d_24">
    <path d="M 100.258423 298.245375 
L 100.258423 296.178887 
L 101.582593 296.178887 
L 101.582593 295.662265 
L 101.898851 295.662265 
L 101.898851 291.012667 
L 105.312648 291.012667 
L 105.312648 290.496045 
L 106.802521 290.496045 
L 106.802521 286.363069 
L 111.763277 286.363069 
L 111.763277 285.846447 
L 116.630812 285.846447 
L 116.630812 284.813203 
L 117.437029 284.813203 
L 117.437029 282.746715 
L 121.736754 282.746715 
L 121.736754 281.713471 
L 124.417209 281.713471 
L 124.417209 277.063872 
L 124.856251 277.063872 
L 124.856251 275.514006 
L 125.19988 275.514006 
L 125.19988 274.997384 
L 126.192808 274.997384 
L 126.192808 274.480762 
L 129.016046 274.480762 
L 129.016046 273.96414 
L 129.221037 273.96414 
L 129.221037 273.447518 
L 129.887835 273.447518 
L 129.887835 269.831164 
L 130.530642 269.831164 
L 130.530642 269.314542 
L 131.750782 269.314542 
L 131.750782 268.79792 
L 133.383967 268.79792 
L 133.383967 268.281298 
L 135.416624 268.281298 
L 135.416624 267.764676 
L 135.536304 267.764676 
L 135.536304 266.731432 
L 135.749727 266.731432 
L 135.749727 266.21481 
L 136.420583 266.21481 
L 136.420583 265.181566 
L 136.690976 265.181566 
L 136.690976 264.664944 
L 137.04525 264.664944 
L 137.04525 264.148322 
L 137.817582 264.148322 
L 137.901372 262.081834 
L 138.273638 262.081834 
L 138.273638 261.565212 
L 138.817886 261.565212 
L 138.857549 258.982102 
L 138.956323 258.982102 
L 138.956323 257.432236 
L 139.307454 257.432236 
L 139.384555 253.29926 
L 140.394111 253.29926 
L 140.502842 246.066551 
L 140.895956 246.066551 
L 140.895956 245.549929 
L 141.141691 245.549929 
L 141.141691 244.516685 
L 141.384091 244.516685 
L 141.384091 244.000063 
L 141.976085 244.000063 
L 141.976085 243.483441 
L 142.516839 243.483441 
L 142.516839 239.350465 
L 142.963167 239.350465 
L 142.963167 238.317221 
L 143.151089 238.317221 
L 143.197763 235.734111 
L 143.793676 235.734111 
L 143.793676 234.700867 
L 145.620581 234.700867 
L 145.620581 233.667623 
L 145.916595 233.667623 
L 145.916595 233.151001 
L 146.928268 233.151001 
L 147.003767 231.601135 
L 147.765797 231.601135 
L 147.825858 226.951537 
L 148.040421 226.951537 
L 148.052266 225.401671 
L 148.380776 225.401671 
L 148.380776 224.368427 
L 149.572426 224.368427 
L 149.572426 223.851805 
L 149.831545 223.851805 
L 149.895742 217.652341 
L 150.24476 217.652341 
L 150.24476 216.619097 
L 150.669103 216.619097 
L 150.669103 214.552609 
L 151.537481 214.552609 
L 151.615253 211.969498 
L 151.72164 211.969498 
L 151.72164 211.452876 
L 151.932533 211.452876 
L 151.932533 210.936254 
L 152.216159 210.936254 
L 152.216159 210.419632 
L 152.486118 210.419632 
L 152.486118 209.90301 
L 153.307681 209.90301 
L 153.307681 208.869766 
L 154.361319 208.869766 
L 154.386257 207.836522 
L 154.910142 207.836522 
L 154.910142 207.3199 
L 155.166435 207.3199 
L 155.166435 206.803278 
L 156.238921 206.803278 
L 156.238921 205.770034 
L 156.373212 205.770034 
L 156.373212 201.637058 
L 157.008428 201.637058 
L 157.008428 201.120436 
L 157.55239 201.120436 
L 157.55239 200.603814 
L 157.91059 200.603814 
L 157.91059 200.087192 
L 158.414898 200.087192 
L 158.414898 198.537326 
L 158.619258 198.537326 
L 158.619258 198.020704 
L 158.911812 198.020704 
L 158.918259 196.98746 
L 160.847203 196.98746 
L 160.956806 192.854484 
L 161.002754 192.854484 
L 161.002754 192.337862 
L 161.489376 192.337862 
L 161.489376 191.304618 
L 163.303179 191.304618 
L 163.308222 188.721508 
L 163.810322 188.721508 
L 163.810322 188.204886 
L 165.286855 188.204886 
L 165.286855 187.688264 
L 166.346991 187.688264 
L 166.346991 186.65502 
L 167.006683 186.65502 
L 167.006683 185.105154 
L 167.145513 185.105154 
L 167.145513 184.588532 
L 167.839585 184.588532 
L 167.839585 184.07191 
L 168.057349 184.07191 
L 168.057349 183.555288 
L 168.280127 183.555288 
L 168.280127 183.038666 
L 169.166269 183.038666 
L 169.166269 182.522044 
L 170.206945 182.522044 
L 170.206945 182.005422 
L 170.610168 182.005422 
L 170.610168 180.972178 
L 170.961836 180.972178 
L 171.014322 179.938934 
L 171.313159 179.938934 
L 171.313159 179.422312 
L 171.505394 179.422312 
L 171.505394 178.90569 
L 172.324448 178.90569 
L 172.324448 177.872445 
L 172.58733 177.872445 
L 172.58733 176.839201 
L 173.049232 176.839201 
L 173.049232 175.805957 
L 174.002539 175.805957 
L 174.002539 173.222847 
L 174.642163 173.222847 
L 174.644837 171.156359 
L 174.962783 171.156359 
L 174.962783 170.639737 
L 175.179432 170.639737 
L 175.28549 168.573249 
L 176.965511 168.573249 
L 176.965511 167.540005 
L 177.268131 167.540005 
L 177.268131 165.990139 
L 178.738603 165.990139 
L 178.789552 164.956895 
L 179.74302 164.956895 
L 179.74302 163.923651 
L 181.029971 163.923651 
L 181.029971 161.857163 
L 181.311979 161.857163 
L 181.376289 160.823919 
L 181.643892 160.823919 
L 181.643892 159.790675 
L 182.466656 159.790675 
L 182.466656 159.274053 
L 182.887864 159.274053 
L 182.887864 158.757431 
L 183.687115 158.757431 
L 183.687115 158.240809 
L 184.23934 158.240809 
L 184.23934 157.724187 
L 184.718811 157.724187 
L 184.718811 157.207565 
L 185.523395 157.207565 
L 185.523395 156.690943 
L 186.011116 156.690943 
L 186.074681 155.141077 
L 186.441728 155.141077 
L 186.441728 154.624455 
L 187.348017 154.624455 
L 187.44492 152.041345 
L 187.938229 152.041345 
L 187.938229 151.008101 
L 188.377426 151.008101 
L 188.377426 149.974857 
L 188.537845 149.974857 
L 188.537845 148.941613 
L 189.178538 148.941613 
L 189.178538 148.424991 
L 189.444406 148.424991 
L 189.444406 147.391747 
L 189.77987 147.391747 
L 189.77987 146.875125 
L 190.374927 146.875125 
L 190.374927 146.358503 
L 190.916427 146.358503 
L 191.001179 144.808637 
L 191.566863 144.808637 
L 191.566863 141.708904 
L 192.268381 141.708904 
L 192.268381 140.67566 
L 192.928027 140.67566 
L 192.928027 140.159038 
L 194.160543 140.159038 
L 194.267838 139.125794 
L 194.786198 139.125794 
L 194.786198 138.609172 
L 195.325268 138.609172 
L 195.325268 138.09255 
L 195.832222 138.09255 
L 195.832222 137.575928 
L 196.306111 137.575928 
L 196.306111 137.059306 
L 196.612069 137.059306 
L 196.612069 136.026062 
L 197.275121 136.026062 
L 197.365295 134.992818 
L 197.83504 134.992818 
L 197.83504 134.476196 
L 198.342496 134.476196 
L 198.411202 133.442952 
L 199.092959 133.442952 
L 199.092959 132.92633 
L 199.452691 132.92633 
L 199.454692 131.893086 
L 199.56836 131.893086 
L 199.56836 131.376464 
L 199.798784 131.376464 
L 199.891429 129.309976 
L 200.10618 129.309976 
L 200.10618 128.793354 
L 200.438066 128.793354 
L 200.462663 127.243488 
L 201.065016 127.243488 
L 201.065016 126.726866 
L 202.46849 126.726866 
L 202.543258 125.177 
L 204.891797 125.177 
L 204.891797 124.660378 
L 205.805582 124.660378 
L 205.857385 123.627134 
L 207.927219 123.627134 
L 207.927219 123.110512 
L 209.064415 123.110512 
L 209.064415 122.59389 
L 209.971034 122.59389 
L 209.971034 122.077268 
L 210.487676 122.077268 
L 210.558025 121.044024 
L 211.770439 121.044024 
L 211.838926 120.01078 
L 211.994299 120.01078 
L 211.994299 119.494158 
L 212.243119 119.494158 
L 212.243119 118.977536 
L 212.386302 118.977536 
L 212.461491 117.944292 
L 212.565844 117.944292 
L 212.565844 117.42767 
L 212.682635 117.42767 
L 212.744867 116.394426 
L 212.98133 116.394426 
L 212.98133 115.877804 
L 213.228592 115.877804 
L 213.228592 115.361182 
L 213.571107 115.361182 
L 213.593488 114.327938 
L 213.847681 114.327938 
L 213.870909 113.294694 
L 213.995465 113.294694 
L 213.995465 112.778072 
L 214.196766 112.778072 
L 214.222754 111.744828 
L 214.537728 111.744828 
L 214.537728 111.228206 
L 214.952879 111.228206 
L 214.952879 110.711584 
L 215.135694 110.711584 
L 215.150937 109.161717 
L 215.258927 109.161717 
L 215.33778 107.611851 
L 215.401541 107.611851 
L 215.401541 107.095229 
L 216.28229 107.095229 
L 216.28229 106.578607 
L 217.280474 106.578607 
L 217.280474 106.061985 
L 217.414722 106.061985 
L 217.414722 105.545363 
L 217.552087 105.545363 
L 217.552087 105.028741 
L 217.738806 105.028741 
L 217.738806 104.512119 
L 217.948009 104.512119 
L 218.032849 103.478875 
L 218.097331 103.478875 
L 218.097331 102.962253 
L 218.480332 102.962253 
L 218.480332 102.445631 
L 218.633952 102.445631 
L 218.633952 101.929009 
L 219.37454 101.929009 
L 219.453973 100.379143 
L 220.067356 100.379143 
L 220.067356 99.862521 
L 220.717478 99.862521 
L 220.717478 99.345899 
L 221.128202 99.345899 
L 221.128202 98.829277 
L 221.293577 98.829277 
L 221.293577 98.312655 
L 221.514763 98.312655 
L 221.514763 97.796033 
L 221.7981 97.796033 
L 221.857202 96.762789 
L 222.007881 96.762789 
L 222.007881 96.246167 
L 222.690365 96.246167 
L 222.690365 95.729545 
L 223.891305 95.729545 
L 223.891305 95.212923 
L 224.325074 95.212923 
L 224.325074 94.696301 
L 224.779942 94.696301 
L 224.841894 93.663057 
L 224.907966 93.663057 
L 224.916789 92.629813 
L 225.819939 92.629813 
L 225.838836 91.596569 
L 226.423795 91.596569 
L 226.52258 90.563325 
L 226.711277 90.563325 
L 226.711277 90.046703 
L 227.274414 90.046703 
L 227.274414 89.530081 
L 227.80807 89.530081 
L 227.80807 89.013459 
L 227.926228 89.013459 
L 227.926228 88.496837 
L 228.045898 88.496837 
L 228.045898 87.980215 
L 228.576935 87.980215 
L 228.576935 87.463593 
L 228.92696 87.463593 
L 228.97597 86.430349 
L 229.251898 86.430349 
L 229.251898 85.913727 
L 229.449986 85.913727 
L 229.489515 84.880483 
L 230.206059 84.880483 
L 230.314283 83.847239 
L 230.762606 83.847239 
L 230.762606 83.330617 
L 231.030923 83.330617 
L 231.030923 82.813995 
L 231.273371 82.813995 
L 231.273371 82.297373 
L 231.448595 82.297373 
L 231.48028 81.264129 
L 231.832783 81.264129 
L 231.832783 80.747507 
L 232.338617 80.747507 
L 232.338617 80.230885 
L 232.465104 80.230885 
L 232.472251 79.197641 
L 233.014448 79.197641 
L 233.014448 78.681019 
L 233.653552 78.681019 
L 233.710508 77.131153 
L 234.549459 77.131153 
L 234.589545 76.097908 
L 235.374377 76.097908 
L 235.374377 75.581286 
L 235.804706 75.581286 
L 235.890305 74.03142 
L 235.964956 74.03142 
L 235.964956 73.514798 
L 236.339022 73.514798 
L 236.34816 72.481554 
L 236.787396 72.481554 
L 236.787396 71.964932 
L 237.239284 71.964932 
L 237.239284 71.44831 
L 237.570322 71.44831 
L 237.570322 70.931688 
L 237.810974 70.931688 
L 237.853167 69.898444 
L 238.361915 69.898444 
L 238.361915 69.381822 
L 238.617032 69.381822 
L 238.712732 68.348578 
L 238.754034 68.348578 
L 238.758543 67.315334 
L 239.279144 67.315334 
L 239.279144 66.798712 
L 239.848399 66.798712 
L 239.848399 66.28209 
L 240.027123 66.28209 
L 240.027123 65.765468 
L 240.157047 65.765468 
L 240.157047 65.248846 
L 241.249873 65.248846 
L 241.249873 64.732224 
L 241.575494 64.732224 
L 241.575494 64.215602 
L 242.06225 64.215602 
L 242.06225 63.69898 
L 242.505559 63.69898 
L 242.505559 63.182358 
L 242.891978 63.182358 
L 242.891978 62.665736 
L 243.038118 62.665736 
L 243.07943 61.11587 
L 243.206656 61.11587 
L 243.206656 60.599248 
L 243.501893 60.599248 
L 243.501893 60.082626 
L 244.386624 60.082626 
L 244.386624 59.566004 
L 244.585051 59.566004 
L 244.585051 59.049382 
L 245.236089 59.049382 
L 245.268312 58.016138 
L 245.717285 58.016138 
L 245.779615 56.982894 
L 245.980069 56.982894 
L 245.980266 55.94965 
L 246.42005 55.94965 
L 246.497196 54.916406 
L 246.880635 54.916406 
L 246.974219 53.36654 
L 247.064669 53.36654 
L 247.064669 52.849918 
L 247.441884 52.849918 
L 247.512668 51.816674 
L 247.607423 51.816674 
L 247.607423 51.300052 
L 247.735924 51.300052 
L 247.735924 50.78343 
L 247.971922 50.78343 
L 247.971922 50.266808 
L 248.773781 50.266808 
L 248.773781 49.750186 
L 249.399921 49.750186 
L 249.399921 49.233564 
L 250.330304 49.233564 
L 250.330304 48.716942 
L 250.506309 48.716942 
L 250.606105 47.683698 
L 251.101375 47.683698 
L 251.17579 46.650454 
L 251.792282 46.650454 
L 251.792282 46.133832 
L 252.539308 46.133832 
L 252.539308 45.61721 
L 253.98672 45.61721 
L 253.98672 45.100588 
L 256.819238 45.100588 
L 256.862843 44.067344 
L 257.090788 44.067344 
L 257.090788 43.550722 
L 258.340295 43.550722 
L 258.433484 42.517478 
L 258.521862 42.517478 
L 258.521862 42.000855 
L 259.667602 42.000855 
L 259.667602 41.484233 
L 260.211069 41.484233 
L 260.211069 40.967611 
L 260.55085 40.967611 
L 260.59646 39.934367 
L 260.744302 39.934367 
L 260.846863 38.901123 
L 261.08421 38.901123 
L 261.08421 38.384501 
L 261.493392 38.384501 
L 261.493392 37.867879 
L 261.696948 37.867879 
L 261.771256 36.834635 
L 263.245347 36.834635 
L 263.245347 36.318013 
L 263.705145 36.318013 
L 263.705145 35.801391 
L 265.656241 35.801391 
L 265.656241 35.284769 
L 267.632202 35.284769 
L 267.632202 34.768147 
L 358.8 34.768147 
L 358.8 34.768147 
" style="fill:none;stroke:#000080;stroke-linecap:square;stroke-width:1.5;"/>
   </g>
   <g id="line2d_25">
    <defs>
     <path d="M 0 6 
C 1.591219 6 3.117479 5.367802 4.242641 4.242641 
C 5.367802 3.117479 6 1.591219 6 0 
C 6 -1.591219 5.367802 -3.117479 4.242641 -4.242641 
C 3.117479 -5.367802 1.591219 -6 0 -6 
C -1.591219 -6 -3.117479 -5.367802 -4.242641 -4.242641 
C -5.367802 -3.117479 -6 -1.591219 -6 0 
C -6 1.591219 -5.367802 3.117479 -4.242641 4.242641 
C -3.117479 5.367802 -1.591219 6 0 6 
z
" id="m84a0564adb" style="stroke:#000080;stroke-width:1.5;"/>
    </defs>
    <g>
     <use style="fill:none;stroke:#000080;stroke-width:1.5;" x="140.394111" xlink:href="#m84a0564adb" y="250.71615"/>
     <use style="fill:none;stroke:#000080;stroke-width:1.5;" x="187.938229" xlink:href="#m84a0564adb" y="152.041345"/>
     <use style="fill:none;stroke:#000080;stroke-width:1.5;" x="245.779615" xlink:href="#m84a0564adb" y="56.982894"/>
     <use style="fill:none;stroke:#000080;stroke-width:1.5;" x="267.632202" xlink:href="#m84a0564adb" y="34.768147"/>
     <use style="fill:none;stroke:#000080;stroke-width:1.5;" x="358.8" xlink:href="#m84a0564adb" y="34.768147"/>
    </g>
   </g>
   <g id="line2d_26"/>
   <g id="line2d_27">
    <path clip-path="url(#p63de20768f)" d="M 210.371134 122.077268 
" style="fill:none;stroke:#000080;stroke-linecap:square;stroke-width:1.5;"/>
    <defs>
     <path d="M -12 12 
L 12 -12 
M -12 -12 
L 12 12 
" id="me1259992d0" style="stroke:#000080;stroke-width:3;"/>
    </defs>
    <g clip-path="url(#p63de20768f)">
     <use style="fill:#000080;stroke:#000080;stroke-width:3;" x="210.371134" xlink:href="#me1259992d0" y="122.077268"/>
    </g>
   </g>
   <g id="line2d_28">
    <defs>
     <path d="M 0 1.5 
C 0.397805 1.5 0.77937 1.341951 1.06066 1.06066 
C 1.341951 0.77937 1.5 0.397805 1.5 0 
C 1.5 -0.397805 1.341951 -0.77937 1.06066 -1.06066 
C 0.77937 -1.341951 0.397805 -1.5 0 -1.5 
C -0.397805 -1.5 -0.77937 -1.341951 -1.06066 -1.06066 
C -1.341951 -0.77937 -1.5 -0.397805 -1.5 0 
C -1.5 0.397805 -1.341951 0.77937 -1.06066 1.06066 
C -0.77937 1.341951 -0.397805 1.5 0 1.5 
z
" id="m72c42d6b06" style="stroke:#ff00ff;"/>
    </defs>
    <g>
     <use style="fill:#ff00ff;stroke:#ff00ff;" x="272.847235" xlink:href="#m72c42d6b06" y="65.765468"/>
     <use style="fill:#ff00ff;stroke:#ff00ff;" x="272.847235" xlink:href="#m72c42d6b06" y="65.765468"/>
    </g>
   </g>
   <g id="line2d_29">
    <path d="M 17.271909 298.245375 
L 17.271909 297.212131 
L 85.289795 297.212131 
L 85.289795 296.178887 
L 97.475383 296.178887 
L 97.475383 293.079155 
L 104.919927 293.079155 
L 104.919927 291.529289 
L 106.196764 291.529289 
L 106.196764 285.846447 
L 108.933533 285.846447 
L 108.933533 283.779959 
L 109.759952 283.779959 
L 109.759952 278.097116 
L 109.960719 278.097116 
L 109.960719 277.580494 
L 113.726905 277.580494 
L 113.726905 276.54725 
L 114.047418 276.54725 
L 114.047418 273.447518 
L 114.517659 273.447518 
L 114.517659 272.930896 
L 114.975841 272.930896 
L 114.975841 269.831164 
L 116.143153 269.831164 
L 116.143153 268.281298 
L 116.423443 268.281298 
L 116.423443 266.21481 
L 116.699404 266.21481 
L 116.699404 257.432236 
L 116.835802 257.432236 
L 116.835802 253.29926 
L 117.105515 253.29926 
L 117.105515 252.782638 
L 117.502601 252.782638 
L 117.502601 251.749394 
L 118.145408 251.749394 
L 118.145408 251.232772 
L 119.128095 251.232772 
L 119.128095 249.682906 
L 120.059543 249.682906 
L 120.059543 249.166284 
L 121.265825 249.166284 
L 121.265825 248.649662 
L 122.19559 248.649662 
L 122.19559 245.033307 
L 123.269953 245.033307 
L 123.364493 239.350465 
L 124.283365 239.350465 
L 124.283365 238.833843 
L 125.411339 238.833843 
L 125.411339 236.250733 
L 125.578723 236.250733 
L 125.578723 235.734111 
L 125.744554 235.734111 
L 125.744554 235.217489 
L 126.071668 235.217489 
L 126.071668 234.700867 
L 126.630092 234.700867 
L 126.630092 234.184245 
L 127.095232 234.184245 
L 127.171591 233.151001 
L 127.917759 233.151001 
L 127.917759 228.501403 
L 128.563665 228.501403 
L 128.634012 224.885049 
L 128.704083 224.885049 
L 128.704083 223.851805 
L 130.050717 223.851805 
L 130.050717 223.335183 
L 131.662107 223.335183 
L 131.662107 222.818561 
L 133.783122 222.818561 
L 133.783122 221.785317 
L 133.940321 221.785317 
L 133.940321 221.268695 
L 134.096148 221.268695 
L 134.096148 218.685585 
L 136.283837 218.685585 
L 136.283837 217.652341 
L 136.735647 217.652341 
L 136.735647 216.619097 
L 137.606373 216.619097 
L 137.648815 215.585853 
L 138.517575 215.585853 
L 138.517575 215.069231 
L 138.638306 215.069231 
L 138.638306 214.552609 
L 138.837729 214.552609 
L 138.837729 214.035987 
L 139.034951 214.035987 
L 139.034951 209.386388 
L 139.384555 209.386388 
L 139.384555 205.253412 
L 139.765147 205.253412 
L 139.765147 204.73679 
L 140.174643 204.73679 
L 140.174643 203.186924 
L 140.430428 203.186924 
L 140.430428 199.57057 
L 140.610916 199.57057 
L 140.610916 199.053948 
L 141.486979 199.053948 
L 141.486979 198.020704 
L 141.657153 198.020704 
L 141.657153 197.504082 
L 142.484528 197.504082 
L 142.484528 196.98746 
L 143.151089 196.98746 
L 143.151089 195.954216 
L 144.18019 195.954216 
L 144.18019 194.40435 
L 149.331553 194.40435 
L 149.331553 192.854484 
L 149.895742 192.854484 
L 149.895742 188.721508 
L 150.08696 188.721508 
L 150.08696 186.138398 
L 150.60763 186.138398 
L 150.60763 185.105154 
L 154.402863 185.105154 
L 154.402863 177.872445 
L 159.792502 177.872445 
L 159.792502 176.839201 
L 161.744323 176.839201 
L 161.744323 175.289335 
L 165.394847 175.289335 
L 165.394847 174.256091 
L 165.582277 174.256091 
L 165.582277 173.739469 
L 165.76776 173.739469 
L 165.76776 173.222847 
L 166.841961 173.222847 
L 166.841961 172.189603 
L 167.18614 172.189603 
L 167.18614 171.156359 
L 167.523816 171.156359 
L 167.523816 170.639737 
L 167.69029 170.639737 
L 167.69029 169.606493 
L 170.278767 169.606493 
L 170.278767 168.573249 
L 172.063819 168.573249 
L 172.063819 167.540005 
L 174.448615 167.540005 
L 174.448615 163.407029 
L 174.684891 163.407029 
L 174.684891 162.890407 
L 176.557079 162.890407 
L 176.557079 158.240809 
L 176.833555 158.240809 
L 176.833555 157.207565 
L 180.502391 157.207565 
L 180.502391 156.690943 
L 181.326698 156.690943 
L 181.326698 155.141077 
L 181.625814 155.141077 
L 181.723218 152.041345 
L 181.751977 152.041345 
L 181.751977 151.524723 
L 183.450255 151.524723 
L 183.450255 151.008101 
L 184.847649 151.008101 
L 184.847649 149.974857 
L 185.236069 149.974857 
L 185.236069 139.642416 
L 187.892436 139.642416 
L 187.950929 137.575928 
L 191.260434 137.575928 
L 191.260434 137.059306 
L 192.737728 137.059306 
L 192.737728 132.409708 
L 193.085869 132.409708 
L 193.085869 131.893086 
L 195.388173 131.893086 
L 195.468371 122.59389 
L 197.397498 122.59389 
L 197.428895 121.560646 
L 199.973883 121.560646 
L 199.973883 119.494158 
L 201.792235 119.494158 
L 201.892585 116.394426 
L 201.941389 116.394426 
L 202.050137 112.26145 
L 202.065124 112.26145 
L 202.065124 111.744828 
L 202.233731 111.744828 
L 202.313463 109.161717 
L 202.671265 109.161717 
L 202.671265 108.645095 
L 202.965152 108.645095 
L 202.965152 108.128473 
L 203.255361 108.128473 
L 203.300586 107.095229 
L 203.604482 107.095229 
L 203.656214 106.061985 
L 204.785725 106.061985 
L 204.785725 105.545363 
L 206.691363 105.545363 
L 206.691363 105.028741 
L 207.228494 105.028741 
L 207.228494 104.512119 
L 207.651589 104.512119 
L 207.731495 100.895765 
L 207.891906 100.895765 
L 207.891906 100.379143 
L 208.457583 100.379143 
L 208.457583 99.862521 
L 209.658094 99.862521 
L 209.658094 99.345899 
L 210.136846 99.345899 
L 210.136846 98.829277 
L 210.339613 98.829277 
L 210.339613 98.312655 
L 210.543691 98.312655 
L 210.543691 97.796033 
L 211.213577 97.796033 
L 211.261856 96.246167 
L 214.135587 96.246167 
L 214.197058 94.179679 
L 214.307756 94.179679 
L 214.348947 93.146435 
L 214.710911 93.146435 
L 214.710911 92.629813 
L 214.901263 92.629813 
L 214.901263 92.113191 
L 215.056778 92.113191 
L 215.056778 91.596569 
L 215.202113 91.596569 
L 215.202113 91.079947 
L 215.464804 91.079947 
L 215.464804 90.563325 
L 216.758247 90.563325 
L 216.863769 89.530081 
L 217.317567 89.530081 
L 217.330813 88.496837 
L 217.704019 88.496837 
L 217.704019 87.980215 
L 220.022276 87.980215 
L 220.022276 87.463593 
L 220.219449 87.463593 
L 220.219449 86.946971 
L 221.00745 86.946971 
L 221.00745 86.430349 
L 223.392856 86.430349 
L 223.392856 85.913727 
L 223.585684 85.913727 
L 223.600883 84.880483 
L 224.629983 84.880483 
L 224.629983 84.363861 
L 225.080905 84.363861 
L 225.080905 83.847239 
L 226.088706 83.847239 
L 226.088706 83.330617 
L 227.057346 83.330617 
L 227.057346 82.813995 
L 228.192032 82.813995 
L 228.210181 81.780751 
L 228.494157 81.780751 
L 228.494157 81.264129 
L 229.066471 81.264129 
L 229.066471 80.747507 
L 229.873389 80.747507 
L 229.873389 80.230885 
L 230.181588 80.230885 
L 230.256923 78.681019 
L 231.831584 78.681019 
L 231.845955 77.647775 
L 231.944282 77.647775 
L 231.944282 77.131153 
L 236.804884 77.131153 
L 236.804884 76.614531 
L 237.552381 76.614531 
L 237.552381 76.097908 
L 239.70492 76.097908 
L 239.759794 75.064664 
L 239.861954 75.064664 
L 239.861954 74.548042 
L 241.801464 74.548042 
L 241.857855 73.514798 
L 241.931652 73.514798 
L 241.931652 72.998176 
L 245.237375 72.998176 
L 245.237375 72.481554 
L 248.247139 72.481554 
L 248.247139 71.964932 
L 249.449155 71.964932 
L 249.449155 71.44831 
L 250.647114 71.44831 
L 250.647114 70.931688 
L 251.737348 70.931688 
L 251.737348 70.415066 
L 252.818924 70.415066 
L 252.818924 69.898444 
L 253.824125 69.898444 
L 253.824125 69.381822 
L 254.713601 69.381822 
L 254.713601 68.8652 
L 256.473069 68.8652 
L 256.508468 67.831956 
L 257.323368 67.831956 
L 257.323368 67.315334 
L 269.971649 67.315334 
L 269.971649 66.798712 
L 270.73768 66.798712 
L 270.73768 66.28209 
L 272.847235 66.28209 
L 272.847235 65.765468 
L 358.8 65.765468 
L 358.8 65.765468 
" style="fill:none;stroke:#ff00ff;stroke-linecap:square;stroke-width:1.5;"/>
   </g>
   <g id="line2d_30">
    <defs>
     <path d="M -0 8.485281 
L 5.091169 0 
L 0 -8.485281 
L -5.091169 -0 
z
" id="mb4b25be93c" style="stroke:#ff00ff;stroke-linejoin:miter;stroke-width:1.5;"/>
    </defs>
    <g>
     <use style="fill:none;stroke:#ff00ff;stroke-linejoin:miter;stroke-width:1.5;" x="106.196764" xlink:href="#mb4b25be93c" y="291.529289"/>
     <use style="fill:none;stroke:#ff00ff;stroke-linejoin:miter;stroke-width:1.5;" x="140.430428" xlink:href="#mb4b25be93c" y="203.186924"/>
     <use style="fill:none;stroke:#ff00ff;stroke-linejoin:miter;stroke-width:1.5;" x="195.468371" xlink:href="#mb4b25be93c" y="124.143756"/>
     <use style="fill:none;stroke:#ff00ff;stroke-linejoin:miter;stroke-width:1.5;" x="245.237375" xlink:href="#mb4b25be93c" y="72.481554"/>
     <use style="fill:none;stroke:#ff00ff;stroke-linejoin:miter;stroke-width:1.5;" x="272.847235" xlink:href="#mb4b25be93c" y="65.765468"/>
     <use style="fill:none;stroke:#ff00ff;stroke-linejoin:miter;stroke-width:1.5;" x="358.8" xlink:href="#mb4b25be93c" y="65.765468"/>
    </g>
   </g>
   <g id="line2d_31"/>
   <g id="line2d_32">
    <path clip-path="url(#p63de20768f)" d="M 201.744781 119.494158 
" style="fill:none;stroke:#ff00ff;stroke-linecap:square;stroke-width:1.5;"/>
    <defs>
     <path d="M -12 12 
L 12 -12 
M -12 -12 
L 12 12 
" id="m8b30b3ffd6" style="stroke:#ff00ff;stroke-width:3;"/>
    </defs>
    <g clip-path="url(#p63de20768f)">
     <use style="fill:#ff00ff;stroke:#ff00ff;stroke-width:3;" x="201.744781" xlink:href="#m8b30b3ffd6" y="119.494158"/>
    </g>
   </g>
   <g id="line2d_33">
    <defs>
     <path d="M 0 1.5 
C 0.397805 1.5 0.77937 1.341951 1.06066 1.06066 
C 1.341951 0.77937 1.5 0.397805 1.5 0 
C 1.5 -0.397805 1.341951 -0.77937 1.06066 -1.06066 
C 0.77937 -1.341951 0.397805 -1.5 0 -1.5 
C -0.397805 -1.5 -0.77937 -1.341951 -1.06066 -1.06066 
C -1.341951 -0.77937 -1.5 -0.397805 -1.5 0 
C -1.5 0.397805 -1.341951 0.77937 -1.06066 1.06066 
C -0.77937 1.341951 -0.397805 1.5 0 1.5 
z
" id="m7a30f94b19" style="stroke:#ffa500;"/>
    </defs>
    <g>
     <use style="fill:#ffa500;stroke:#ffa500;" x="192.897253" xlink:href="#m7a30f94b19" y="34.768147"/>
     <use style="fill:#ffa500;stroke:#ffa500;" x="192.897253" xlink:href="#m7a30f94b19" y="34.768147"/>
    </g>
   </g>
   <g id="line2d_34">
    <path d="M 17.271909 298.245375 
L 17.271909 297.728753 
L 141.332424 297.728753 
L 141.332424 297.212131 
L 143.010333 297.212131 
L 143.010333 296.695509 
L 144.428464 296.695509 
L 144.428464 296.178887 
L 146.377649 296.178887 
L 146.377649 295.662265 
L 148.600303 295.662265 
L 148.600303 295.145643 
L 149.670036 295.145643 
L 149.691655 293.079155 
L 150.55624 293.079155 
L 150.55624 292.562533 
L 150.842136 292.562533 
L 150.842136 292.045911 
L 151.673361 292.045911 
L 151.673361 291.012667 
L 152.262996 291.012667 
L 152.262996 290.496045 
L 152.504586 290.496045 
L 152.504586 289.979423 
L 152.978183 289.979423 
L 152.978183 289.462801 
L 153.139238 289.462801 
L 153.139238 287.912935 
L 153.717659 287.912935 
L 153.803687 286.879691 
L 154.658303 286.879691 
L 154.658303 286.363069 
L 155.332651 286.363069 
L 155.332651 285.846447 
L 155.551895 285.846447 
L 155.551895 285.329825 
L 156.193932 285.329825 
L 156.193932 284.813203 
L 156.476968 284.813203 
L 156.476968 283.779959 
L 156.958146 283.779959 
L 156.958146 283.263337 
L 157.28601 283.263337 
L 157.28601 282.230093 
L 157.412685 282.230093 
L 157.412685 281.196849 
L 157.801138 281.196849 
L 157.869624 279.13036 
L 158.918259 279.13036 
L 158.982602 277.580494 
L 159.097839 277.580494 
L 159.097839 276.54725 
L 159.476683 276.54725 
L 159.476683 275.514006 
L 159.663134 275.514006 
L 159.663134 274.997384 
L 160.138995 274.997384 
L 160.138995 274.480762 
L 160.401942 274.480762 
L 160.401942 273.96414 
L 160.962556 273.96414 
L 161.031412 272.414274 
L 161.191052 272.414274 
L 161.191052 270.864408 
L 161.439067 270.864408 
L 161.439067 268.79792 
L 161.9032 268.79792 
L 161.9032 268.281298 
L 162.280976 268.281298 
L 162.355582 265.698188 
L 162.429878 265.698188 
L 162.451048 264.664944 
L 163.084994 264.664944 
L 163.084994 264.148322 
L 163.368621 264.148322 
L 163.368621 263.6317 
L 164.19345 263.6317 
L 164.19345 263.115078 
L 164.460143 263.115078 
L 164.460143 262.598456 
L 164.852864 262.598456 
L 164.852864 262.081834 
L 165.073461 262.081834 
L 165.073461 261.565212 
L 165.363417 261.565212 
L 165.470948 260.531968 
L 165.506649 260.531968 
L 165.506649 260.015346 
L 165.859785 260.015346 
L 165.859785 258.982102 
L 166.145959 258.982102 
L 166.223217 257.948858 
L 166.393716 257.948858 
L 166.393716 257.432236 
L 166.638084 257.432236 
L 166.671529 256.398992 
L 166.812977 256.398992 
L 166.812977 254.849126 
L 167.157711 254.849126 
L 167.157711 253.29926 
L 167.383892 253.29926 
L 167.383892 252.782638 
L 167.937129 252.782638 
L 167.937129 251.232772 
L 168.122934 251.232772 
L 168.153715 249.166284 
L 168.51147 249.166284 
L 168.579166 247.616418 
L 168.994723 247.616418 
L 168.994723 246.583173 
L 169.198932 246.583173 
L 169.198932 246.066551 
L 169.579195 246.066551 
L 169.579195 245.549929 
L 169.797919 245.549929 
L 169.818945 244.516685 
L 170.007068 244.516685 
L 170.117622 242.450197 
L 170.660355 242.450197 
L 170.660355 241.416953 
L 170.820011 241.416953 
L 170.820011 240.900331 
L 171.213021 240.900331 
L 171.213021 239.867087 
L 171.660867 239.867087 
L 171.660867 238.833843 
L 172.128564 238.833843 
L 172.128564 238.317221 
L 172.494102 238.317221 
L 172.494102 237.800599 
L 172.923101 237.800599 
L 172.923101 237.283977 
L 173.162866 237.283977 
L 173.162866 236.767355 
L 173.666872 236.767355 
L 173.666872 236.250733 
L 173.824301 236.250733 
L 173.824301 235.734111 
L 174.057875 235.734111 
L 174.057875 235.217489 
L 174.30479 235.217489 
L 174.30479 234.700867 
L 174.537585 234.700867 
L 174.537585 234.184245 
L 174.740816 234.184245 
L 174.740816 233.667623 
L 175.004752 233.667623 
L 175.109244 232.634379 
L 175.398612 232.634379 
L 175.500833 230.567891 
L 175.683369 230.567891 
L 175.728713 229.534647 
L 175.953724 229.534647 
L 175.963659 228.501403 
L 176.067645 228.501403 
L 176.087383 226.951537 
L 176.23962 226.951537 
L 176.23962 226.434915 
L 176.655289 226.434915 
L 176.655289 225.918293 
L 176.845377 225.918293 
L 176.845377 225.401671 
L 177.367111 225.401671 
L 177.367111 224.368427 
L 177.531627 224.368427 
L 177.622374 222.818561 
L 177.708159 222.818561 
L 177.762128 219.718829 
L 178.152995 219.718829 
L 178.183722 218.168963 
L 178.306107 218.168963 
L 178.306107 217.135719 
L 178.462237 217.135719 
L 178.552687 214.552609 
L 178.608451 214.552609 
L 178.608451 213.002743 
L 179.023318 213.002743 
L 179.023318 211.969498 
L 179.256131 211.969498 
L 179.256131 210.419632 
L 179.542945 210.419632 
L 179.542945 209.90301 
L 179.881153 209.90301 
L 179.881153 209.386388 
L 179.992481 209.386388 
L 180.10312 207.836522 
L 180.158183 207.836522 
L 180.158183 207.3199 
L 180.283409 207.3199 
L 180.283409 206.286656 
L 180.430984 206.286656 
L 180.538949 205.253412 
L 180.806041 205.253412 
L 180.900471 203.703546 
L 181.132528 203.703546 
L 181.225253 202.670302 
L 181.807565 202.670302 
L 181.807565 201.637058 
L 182.119928 201.637058 
L 182.119928 201.120436 
L 182.235671 201.120436 
L 182.329814 197.504082 
L 182.38537 197.504082 
L 182.461478 196.470838 
L 183.138895 196.470838 
L 183.185366 194.40435 
L 183.370051 194.40435 
L 183.43555 191.304618 
L 183.588535 191.304618 
L 183.698393 189.23813 
L 183.935188 189.23813 
L 183.935188 188.721508 
L 184.090274 188.721508 
L 184.090274 188.204886 
L 184.222143 188.204886 
L 184.293947 185.621776 
L 184.396467 185.621776 
L 184.396467 184.07191 
L 184.526104 184.07191 
L 184.526104 183.555288 
L 184.697502 183.555288 
L 184.697502 181.4888 
L 184.909463 181.4888 
L 184.972564 179.938934 
L 185.112988 179.938934 
L 185.133808 177.872445 
L 185.272976 177.872445 
L 185.355372 168.056627 
L 185.6032 168.056627 
L 185.643691 165.990139 
L 185.733024 165.990139 
L 185.733024 165.473517 
L 185.93596 165.473517 
L 185.93596 164.956895 
L 186.170308 164.956895 
L 186.170308 163.923651 
L 186.448633 163.923651 
L 186.520293 160.823919 
L 186.619043 160.823919 
L 186.728128 148.941613 
L 186.793261 148.941613 
L 186.863555 146.358503 
L 186.965797 146.358503 
L 186.965797 145.841881 
L 187.499687 145.841881 
L 187.572448 143.25877 
L 187.722232 143.25877 
L 187.812015 139.642416 
L 187.934418 139.642416 
L 188.007965 137.575928 
L 188.045888 137.575928 
L 188.083731 124.143756 
L 188.234306 124.143756 
L 188.2892 117.944292 
L 188.348893 117.944292 
L 188.348893 117.42767 
L 188.536616 117.42767 
L 188.627299 112.778072 
L 188.949518 112.778072 
L 189.042912 111.744828 
L 189.06678 111.744828 
L 189.131067 110.194961 
L 189.395295 110.194961 
L 189.395295 100.895765 
L 189.763819 100.895765 
L 189.772992 92.113191 
L 190.156341 92.113191 
L 190.239183 89.013459 
L 190.323866 89.013459 
L 190.414787 80.747507 
L 190.511849 80.747507 
L 190.575534 78.164397 
L 190.634624 78.164397 
L 190.634624 74.03142 
L 190.856105 74.03142 
L 190.879827 67.315334 
L 191.10895 67.315334 
L 191.10895 66.28209 
L 191.3939 66.28209 
L 191.43782 59.566004 
L 191.699097 59.566004 
L 191.699097 53.36654 
L 191.956609 53.36654 
L 191.956609 44.067344 
L 192.580685 44.067344 
L 192.580685 43.550722 
L 192.897253 43.550722 
L 192.897253 34.768147 
L 358.8 34.768147 
L 358.8 34.768147 
" style="fill:none;stroke:#ffa500;stroke-linecap:square;stroke-width:1.5;"/>
   </g>
   <g id="line2d_35">
    <defs>
     <path d="M 0 -6 
L -1.347084 -1.854102 
L -5.706339 -1.854102 
L -2.179628 0.708204 
L -3.526712 4.854102 
L -0 2.291796 
L 3.526712 4.854102 
L 2.179628 0.708204 
L 5.706339 -1.854102 
L 1.347084 -1.854102 
z
" id="m0d5783ef29" style="stroke:#ffa500;stroke-linejoin:bevel;stroke-width:1.5;"/>
    </defs>
    <g>
     <use style="fill:none;stroke:#ffa500;stroke-linejoin:bevel;stroke-width:1.5;" x="17.271909" xlink:href="#m0d5783ef29" y="297.728753"/>
     <use style="fill:none;stroke:#ffa500;stroke-linejoin:bevel;stroke-width:1.5;" x="175.109244" xlink:href="#m0d5783ef29" y="233.151001"/>
     <use style="fill:none;stroke:#ffa500;stroke-linejoin:bevel;stroke-width:1.5;" x="188.007965" xlink:href="#m0d5783ef29" y="137.575928"/>
     <use style="fill:none;stroke:#ffa500;stroke-linejoin:bevel;stroke-width:1.5;" x="192.897253" xlink:href="#m0d5783ef29" y="43.550722"/>
     <use style="fill:none;stroke:#ffa500;stroke-linejoin:bevel;stroke-width:1.5;" x="192.897253" xlink:href="#m0d5783ef29" y="34.768147"/>
     <use style="fill:none;stroke:#ffa500;stroke-linejoin:bevel;stroke-width:1.5;" x="358.8" xlink:href="#m0d5783ef29" y="34.768147"/>
    </g>
   </g>
   <g id="line2d_36"/>
   <g id="line2d_37">
    <path d="M 358.8 65.765468 
L 390.48 292.97583 
" style="fill:none;stroke:#ff00ff;stroke-linecap:square;stroke-width:1.5;"/>
    <g>
     <use style="fill:none;stroke:#ff00ff;stroke-linejoin:miter;stroke-width:1.5;" x="358.8" xlink:href="#mb4b25be93c" y="65.765468"/>
     <use style="fill:none;stroke:#ff00ff;stroke-linejoin:miter;stroke-width:1.5;" x="390.48" xlink:href="#mb4b25be93c" y="292.97583"/>
    </g>
   </g>
   <g id="line2d_38">
    <path d="M 358.8 34.768147 
L 390.48 166.506761 
" style="fill:none;stroke:#000080;stroke-linecap:square;stroke-width:1.5;"/>
    <g>
     <use style="fill:none;stroke:#000080;stroke-width:1.5;" x="358.8" xlink:href="#m84a0564adb" y="34.768147"/>
     <use style="fill:none;stroke:#000080;stroke-width:1.5;" x="390.48" xlink:href="#m84a0564adb" y="166.506761"/>
    </g>
   </g>
   <g id="line2d_39">
    <path d="M 358.8 34.768147 
L 390.48 40.037692 
" style="fill:none;stroke:#ffa500;stroke-linecap:square;stroke-width:1.5;"/>
    <g>
     <use style="fill:none;stroke:#ffa500;stroke-linejoin:bevel;stroke-width:1.5;" x="358.8" xlink:href="#m0d5783ef29" y="34.768147"/>
     <use style="fill:none;stroke:#ffa500;stroke-linejoin:bevel;stroke-width:1.5;" x="390.48" xlink:href="#m0d5783ef29" y="40.037692"/>
    </g>
   </g>
   <g id="line2d_40">
    <path d="M 358.8 298.245375 
L 358.8 34.768147 
" style="fill:none;stroke:#000000;stroke-linecap:square;stroke-width:1.5;"/>
   </g>
   <g id="patch_3">
    <path d="M 70.8 298.245375 
L 70.8 32.133375 
" style="fill:none;stroke:#000000;stroke-linecap:square;stroke-linejoin:miter;stroke-width:0.8;"/>
   </g>
   <g id="patch_4">
    <path d="M 427.92 298.245375 
L 427.92 32.133375 
" style="fill:none;stroke:#000000;stroke-linecap:square;stroke-linejoin:miter;stroke-width:0.8;"/>
   </g>
   <g id="patch_5">
    <path d="M 70.8 298.245375 
L 427.92 298.245375 
" style="fill:none;stroke:#000000;stroke-linecap:square;stroke-linejoin:miter;stroke-width:0.8;"/>
   </g>
   <g id="patch_6">
    <path d="M 70.8 32.133375 
L 427.92 32.133375 
" style="fill:none;stroke:#000000;stroke-linecap:square;stroke-linejoin:miter;stroke-width:0.8;"/>
   </g>
   <g id="text_14">
    <!-- fmincon 0 -->
    <g transform="translate(396.24 297.114893)scale(0.15 -0.15)">
     <use xlink:href="#DejaVuSans-66"/>
     <use x="35.205078" xlink:href="#DejaVuSans-6d"/>
     <use x="132.617188" xlink:href="#DejaVuSans-69"/>
     <use x="160.400391" xlink:href="#DejaVuSans-6e"/>
     <use x="223.779297" xlink:href="#DejaVuSans-63"/>
     <use x="278.759766" xlink:href="#DejaVuSans-6f"/>
     <use x="339.941406" xlink:href="#DejaVuSans-6e"/>
     <use x="403.320312" xlink:href="#DejaVuSans-20"/>
     <use x="435.107422" xlink:href="#DejaVuSans-30"/>
    </g>
   </g>
   <g id="text_15">
    <!-- cobyla 0. -->
    <defs>
     <path d="M 48.6875 27.296875 
Q 48.6875 37.203125 44.609375 42.84375 
Q 40.53125 48.484375 33.40625 48.484375 
Q 26.265625 48.484375 22.1875 42.84375 
Q 18.109375 37.203125 18.109375 27.296875 
Q 18.109375 17.390625 22.1875 11.75 
Q 26.265625 6.109375 33.40625 6.109375 
Q 40.53125 6.109375 44.609375 11.75 
Q 48.6875 17.390625 48.6875 27.296875 
z
M 18.109375 46.390625 
Q 20.953125 51.265625 25.265625 53.625 
Q 29.59375 56 35.59375 56 
Q 45.5625 56 51.78125 48.09375 
Q 58.015625 40.1875 58.015625 27.296875 
Q 58.015625 14.40625 51.78125 6.484375 
Q 45.5625 -1.421875 35.59375 -1.421875 
Q 29.59375 -1.421875 25.265625 0.953125 
Q 20.953125 3.328125 18.109375 8.203125 
L 18.109375 0 
L 9.078125 0 
L 9.078125 75.984375 
L 18.109375 75.984375 
z
" id="DejaVuSans-62"/>
     <path d="M 32.171875 -5.078125 
Q 28.375 -14.84375 24.75 -17.8125 
Q 21.140625 -20.796875 15.09375 -20.796875 
L 7.90625 -20.796875 
L 7.90625 -13.28125 
L 13.1875 -13.28125 
Q 16.890625 -13.28125 18.9375 -11.515625 
Q 21 -9.765625 23.484375 -3.21875 
L 25.09375 0.875 
L 2.984375 54.6875 
L 12.5 54.6875 
L 29.59375 11.921875 
L 46.6875 54.6875 
L 56.203125 54.6875 
z
" id="DejaVuSans-79"/>
    </defs>
    <g transform="translate(396.24 170.645824)scale(0.15 -0.15)">
     <use xlink:href="#DejaVuSans-63"/>
     <use x="54.980469" xlink:href="#DejaVuSans-6f"/>
     <use x="116.162109" xlink:href="#DejaVuSans-62"/>
     <use x="179.638672" xlink:href="#DejaVuSans-79"/>
     <use x="238.818359" xlink:href="#DejaVuSans-6c"/>
     <use x="266.601562" xlink:href="#DejaVuSans-61"/>
     <use x="327.880859" xlink:href="#DejaVuSans-20"/>
     <use x="359.667969" xlink:href="#DejaVuSans-30"/>
     <use x="423.291016" xlink:href="#DejaVuSans-2e"/>
    </g>
   </g>
   <g id="text_16">
    <!-- augmented -->
    <g transform="translate(396.24 44.176754)scale(0.15 -0.15)">
     <use xlink:href="#DejaVuSans-61"/>
     <use x="61.279297" xlink:href="#DejaVuSans-75"/>
     <use x="124.658203" xlink:href="#DejaVuSans-67"/>
     <use x="188.134766" xlink:href="#DejaVuSans-6d"/>
     <use x="285.546875" xlink:href="#DejaVuSans-65"/>
     <use x="347.070312" xlink:href="#DejaVuSans-6e"/>
     <use x="410.449219" xlink:href="#DejaVuSans-74"/>
     <use x="449.658203" xlink:href="#DejaVuSans-65"/>
     <use x="511.181641" xlink:href="#DejaVuSans-64"/>
    </g>
   </g>
   <g id="text_17">
    <!-- bbob-constrained - f41, 20-D -->
    <defs>
     <path d="M 11.71875 12.40625 
L 22.015625 12.40625 
L 22.015625 4 
L 14.015625 -11.625 
L 7.71875 -11.625 
L 11.71875 4 
z
" id="DejaVuSans-2c"/>
     <path d="M 19.671875 64.796875 
L 19.671875 8.109375 
L 31.59375 8.109375 
Q 46.6875 8.109375 53.6875 14.9375 
Q 60.6875 21.78125 60.6875 36.53125 
Q 60.6875 51.171875 53.6875 57.984375 
Q 46.6875 64.796875 31.59375 64.796875 
z
M 9.8125 72.90625 
L 30.078125 72.90625 
Q 51.265625 72.90625 61.171875 64.09375 
Q 71.09375 55.28125 71.09375 36.53125 
Q 71.09375 17.671875 61.125 8.828125 
Q 51.171875 0 30.078125 0 
L 9.8125 0 
z
" id="DejaVuSans-44"/>
    </defs>
    <g transform="translate(74.3712 50.114612)scale(0.1666 -0.1666)">
     <use xlink:href="#DejaVuSans-62"/>
     <use x="63.476562" xlink:href="#DejaVuSans-62"/>
     <use x="126.953125" xlink:href="#DejaVuSans-6f"/>
     <use x="188.134766" xlink:href="#DejaVuSans-62"/>
     <use x="251.611328" xlink:href="#DejaVuSans-2d"/>
     <use x="287.695312" xlink:href="#DejaVuSans-63"/>
     <use x="342.675781" xlink:href="#DejaVuSans-6f"/>
     <use x="403.857422" xlink:href="#DejaVuSans-6e"/>
     <use x="467.236328" xlink:href="#DejaVuSans-73"/>
     <use x="519.335938" xlink:href="#DejaVuSans-74"/>
     <use x="558.544922" xlink:href="#DejaVuSans-72"/>
     <use x="599.658203" xlink:href="#DejaVuSans-61"/>
     <use x="660.9375" xlink:href="#DejaVuSans-69"/>
     <use x="688.720703" xlink:href="#DejaVuSans-6e"/>
     <use x="752.099609" xlink:href="#DejaVuSans-65"/>
     <use x="813.623047" xlink:href="#DejaVuSans-64"/>
     <use x="877.099609" xlink:href="#DejaVuSans-20"/>
     <use x="908.886719" xlink:href="#DejaVuSans-2d"/>
     <use x="944.970703" xlink:href="#DejaVuSans-20"/>
     <use x="976.757812" xlink:href="#DejaVuSans-66"/>
     <use x="1011.962891" xlink:href="#DejaVuSans-34"/>
     <use x="1075.585938" xlink:href="#DejaVuSans-31"/>
     <use x="1139.208984" xlink:href="#DejaVuSans-2c"/>
     <use x="1170.996094" xlink:href="#DejaVuSans-20"/>
     <use x="1202.783203" xlink:href="#DejaVuSans-32"/>
     <use x="1266.40625" xlink:href="#DejaVuSans-30"/>
     <use x="1330.029297" xlink:href="#DejaVuSans-2d"/>
     <use x="1366.113281" xlink:href="#DejaVuSans-44"/>
    </g>
    <!-- 51 targets in 100..1e-08 -->
    <defs>
     <path d="M 10.796875 72.90625 
L 49.515625 72.90625 
L 49.515625 64.59375 
L 19.828125 64.59375 
L 19.828125 46.734375 
Q 21.96875 47.46875 24.109375 47.828125 
Q 26.265625 48.1875 28.421875 48.1875 
Q 40.625 48.1875 47.75 41.5 
Q 54.890625 34.8125 54.890625 23.390625 
Q 54.890625 11.625 47.5625 5.09375 
Q 40.234375 -1.421875 26.90625 -1.421875 
Q 22.3125 -1.421875 17.546875 -0.640625 
Q 12.796875 0.140625 7.71875 1.703125 
L 7.71875 11.625 
Q 12.109375 9.234375 16.796875 8.0625 
Q 21.484375 6.890625 26.703125 6.890625 
Q 35.15625 6.890625 40.078125 11.328125 
Q 45.015625 15.765625 45.015625 23.390625 
Q 45.015625 31 40.078125 35.4375 
Q 35.15625 39.890625 26.703125 39.890625 
Q 22.75 39.890625 18.8125 39.015625 
Q 14.890625 38.140625 10.796875 36.28125 
z
" id="DejaVuSans-35"/>
    </defs>
    <g transform="translate(74.3712 68.770168)scale(0.1666 -0.1666)">
     <use xlink:href="#DejaVuSans-35"/>
     <use x="63.623047" xlink:href="#DejaVuSans-31"/>
     <use x="127.246094" xlink:href="#DejaVuSans-20"/>
     <use x="159.033203" xlink:href="#DejaVuSans-74"/>
     <use x="198.242188" xlink:href="#DejaVuSans-61"/>
     <use x="259.521484" xlink:href="#DejaVuSans-72"/>
     <use x="300.619141" xlink:href="#DejaVuSans-67"/>
     <use x="364.095703" xlink:href="#DejaVuSans-65"/>
     <use x="425.619141" xlink:href="#DejaVuSans-74"/>
     <use x="464.828125" xlink:href="#DejaVuSans-73"/>
     <use x="516.927734" xlink:href="#DejaVuSans-20"/>
     <use x="548.714844" xlink:href="#DejaVuSans-69"/>
     <use x="576.498047" xlink:href="#DejaVuSans-6e"/>
     <use x="639.876953" xlink:href="#DejaVuSans-20"/>
     <use x="671.664062" xlink:href="#DejaVuSans-31"/>
     <use x="735.287109" xlink:href="#DejaVuSans-30"/>
     <use x="798.910156" xlink:href="#DejaVuSans-30"/>
     <use x="862.533203" xlink:href="#DejaVuSans-2e"/>
     <use x="894.320312" xlink:href="#DejaVuSans-2e"/>
     <use x="926.107422" xlink:href="#DejaVuSans-31"/>
     <use x="989.730469" xlink:href="#DejaVuSans-65"/>
     <use x="1051.253906" xlink:href="#DejaVuSans-2d"/>
     <use x="1087.337891" xlink:href="#DejaVuSans-30"/>
     <use x="1150.960938" xlink:href="#DejaVuSans-38"/>
    </g>
    <!-- 15 instances -->
    <g transform="translate(74.3712 87.425723)scale(0.1666 -0.1666)">
     <use xlink:href="#DejaVuSans-31"/>
     <use x="63.623047" xlink:href="#DejaVuSans-35"/>
     <use x="127.246094" xlink:href="#DejaVuSans-20"/>
     <use x="159.033203" xlink:href="#DejaVuSans-69"/>
     <use x="186.816406" xlink:href="#DejaVuSans-6e"/>
     <use x="250.195312" xlink:href="#DejaVuSans-73"/>
     <use x="302.294922" xlink:href="#DejaVuSans-74"/>
     <use x="341.503906" xlink:href="#DejaVuSans-61"/>
     <use x="402.783203" xlink:href="#DejaVuSans-6e"/>
     <use x="466.162109" xlink:href="#DejaVuSans-63"/>
     <use x="521.142578" xlink:href="#DejaVuSans-65"/>
     <use x="582.666016" xlink:href="#DejaVuSans-73"/>
    </g>
   </g>
   <g id="text_18">
    <!-- v2.0.361 -->
    <defs>
     <path d="M 40.578125 39.3125 
Q 47.65625 37.796875 51.625 33 
Q 55.609375 28.21875 55.609375 21.1875 
Q 55.609375 10.40625 48.1875 4.484375 
Q 40.765625 -1.421875 27.09375 -1.421875 
Q 22.515625 -1.421875 17.65625 -0.515625 
Q 12.796875 0.390625 7.625 2.203125 
L 7.625 11.71875 
Q 11.71875 9.328125 16.59375 8.109375 
Q 21.484375 6.890625 26.8125 6.890625 
Q 36.078125 6.890625 40.9375 10.546875 
Q 45.796875 14.203125 45.796875 21.1875 
Q 45.796875 27.640625 41.28125 31.265625 
Q 36.765625 34.90625 28.71875 34.90625 
L 20.21875 34.90625 
L 20.21875 43.015625 
L 29.109375 43.015625 
Q 36.375 43.015625 40.234375 45.921875 
Q 44.09375 48.828125 44.09375 54.296875 
Q 44.09375 59.90625 40.109375 62.90625 
Q 36.140625 65.921875 28.71875 65.921875 
Q 24.65625 65.921875 20.015625 65.03125 
Q 15.375 64.15625 9.8125 62.3125 
L 9.8125 71.09375 
Q 15.4375 72.65625 20.34375 73.4375 
Q 25.25 74.21875 29.59375 74.21875 
Q 40.828125 74.21875 47.359375 69.109375 
Q 53.90625 64.015625 53.90625 55.328125 
Q 53.90625 49.265625 50.4375 45.09375 
Q 46.96875 40.921875 40.578125 39.3125 
z
" id="DejaVuSans-33"/>
    </defs>
    <g style="fill:#808080;" transform="translate(227.31625 293.504568)scale(0.1 -0.1)">
     <use xlink:href="#DejaVuSans-76"/>
     <use x="59.179688" xlink:href="#DejaVuSans-32"/>
     <use x="122.802734" xlink:href="#DejaVuSans-2e"/>
     <use x="154.589844" xlink:href="#DejaVuSans-30"/>
     <use x="218.212891" xlink:href="#DejaVuSans-2e"/>
     <use x="250" xlink:href="#DejaVuSans-33"/>
     <use x="313.623047" xlink:href="#DejaVuSans-36"/>
     <use x="377.246094" xlink:href="#DejaVuSans-31"/>
    </g>
   </g>
   <g id="text_19">
    <!-- 41 Different Powers with n-1 constraints -->
    <defs>
     <path d="M 4.203125 54.6875 
L 13.1875 54.6875 
L 24.421875 12.015625 
L 35.59375 54.6875 
L 46.1875 54.6875 
L 57.421875 12.015625 
L 68.609375 54.6875 
L 77.59375 54.6875 
L 63.28125 0 
L 52.6875 0 
L 40.921875 44.828125 
L 29.109375 0 
L 18.5 0 
z
" id="DejaVuSans-77"/>
     <path d="M 54.890625 33.015625 
L 54.890625 0 
L 45.90625 0 
L 45.90625 32.71875 
Q 45.90625 40.484375 42.875 44.328125 
Q 39.84375 48.1875 33.796875 48.1875 
Q 26.515625 48.1875 22.3125 43.546875 
Q 18.109375 38.921875 18.109375 30.90625 
L 18.109375 0 
L 9.078125 0 
L 9.078125 75.984375 
L 18.109375 75.984375 
L 18.109375 46.1875 
Q 21.34375 51.125 25.703125 53.5625 
Q 30.078125 56 35.796875 56 
Q 45.21875 56 50.046875 50.171875 
Q 54.890625 44.34375 54.890625 33.015625 
z
" id="DejaVuSans-68"/>
    </defs>
    <g transform="translate(7.329375 26.133375)scale(0.24 -0.24)">
     <use xlink:href="#DejaVuSans-34"/>
     <use x="63.623047" xlink:href="#DejaVuSans-31"/>
     <use x="127.246094" xlink:href="#DejaVuSans-20"/>
     <use x="159.033203" xlink:href="#DejaVuSans-44"/>
     <use x="236.035156" xlink:href="#DejaVuSans-69"/>
     <use x="263.818359" xlink:href="#DejaVuSans-66"/>
     <use x="299.023438" xlink:href="#DejaVuSans-66"/>
     <use x="334.228516" xlink:href="#DejaVuSans-65"/>
     <use x="395.751953" xlink:href="#DejaVuSans-72"/>
     <use x="436.833984" xlink:href="#DejaVuSans-65"/>
     <use x="498.357422" xlink:href="#DejaVuSans-6e"/>
     <use x="561.736328" xlink:href="#DejaVuSans-74"/>
     <use x="600.945312" xlink:href="#DejaVuSans-20"/>
     <use x="632.732422" xlink:href="#DejaVuSans-50"/>
     <use x="692.988281" xlink:href="#DejaVuSans-6f"/>
     <use x="754.169922" xlink:href="#DejaVuSans-77"/>
     <use x="835.957031" xlink:href="#DejaVuSans-65"/>
     <use x="897.480469" xlink:href="#DejaVuSans-72"/>
     <use x="938.59375" xlink:href="#DejaVuSans-73"/>
     <use x="990.693359" xlink:href="#DejaVuSans-20"/>
     <use x="1022.480469" xlink:href="#DejaVuSans-77"/>
     <use x="1104.267578" xlink:href="#DejaVuSans-69"/>
     <use x="1132.050781" xlink:href="#DejaVuSans-74"/>
     <use x="1171.259766" xlink:href="#DejaVuSans-68"/>
     <use x="1234.638672" xlink:href="#DejaVuSans-20"/>
     <use x="1266.425781" xlink:href="#DejaVuSans-6e"/>
     <use x="1329.804688" xlink:href="#DejaVuSans-2d"/>
     <use x="1365.888672" xlink:href="#DejaVuSans-31"/>
     <use x="1429.511719" xlink:href="#DejaVuSans-20"/>
     <use x="1461.298828" xlink:href="#DejaVuSans-63"/>
     <use x="1516.279297" xlink:href="#DejaVuSans-6f"/>
     <use x="1577.460938" xlink:href="#DejaVuSans-6e"/>
     <use x="1640.839844" xlink:href="#DejaVuSans-73"/>
     <use x="1692.939453" xlink:href="#DejaVuSans-74"/>
     <use x="1732.148438" xlink:href="#DejaVuSans-72"/>
     <use x="1773.261719" xlink:href="#DejaVuSans-61"/>
     <use x="1834.541016" xlink:href="#DejaVuSans-69"/>
     <use x="1862.324219" xlink:href="#DejaVuSans-6e"/>
     <use x="1925.703125" xlink:href="#DejaVuSans-74"/>
     <use x="1964.912109" xlink:href="#DejaVuSans-73"/>
    </g>
   </g>
  </g>
 </g>
 <defs>
  <clipPath id="p63de20768f">
   <rect height="266.112" width="357.12" x="70.8" y="32.133375"/>
  </clipPath>
 </defs>
</svg>
