<?xml version="1.0" encoding="utf-8" standalone="no"?>
<!DOCTYPE svg PUBLIC "-//W3C//DTD SVG 1.1//EN"
  "http://www.w3.org/Graphics/SVG/1.1/DTD/svg11.dtd">
<!-- Created with matplotlib (http://matplotlib.org/) -->
<svg height="353pt" version="1.1" viewBox="0 0 486 353" width="486pt" xmlns="http://www.w3.org/2000/svg" xmlns:xlink="http://www.w3.org/1999/xlink">
 <defs>
  <style type="text/css">
*{stroke-linecap:butt;stroke-linejoin:round;}
  </style>
 </defs>
 <g id="figure_1">
  <g id="patch_1">
   <path d="M 0 353.22225 
L 486.65625 353.22225 
L 486.65625 0 
L 0 0 
z
" style="fill:#ffffff;"/>
  </g>
  <g id="axes_1">
   <g id="patch_2">
    <path d="M 70.8 298.245375 
L 427.92 298.245375 
L 427.92 32.133375 
L 70.8 32.133375 
z
" style="fill:#ffffff;"/>
   </g>
   <g id="matplotlib.axis_1">
    <g id="xtick_1">
     <g id="line2d_1">
      <path clip-path="url(#p0688e6983c)" d="M 70.8 298.245375 
L 70.8 32.133375 
" style="fill:none;stroke:#b0b0b0;stroke-linecap:square;stroke-width:0.8;"/>
     </g>
     <g id="line2d_2">
      <defs>
       <path d="M 0 0 
L 0 3.5 
" id="m148c452236" style="stroke:#000000;stroke-width:0.8;"/>
      </defs>
      <g>
       <use style="stroke:#000000;stroke-width:0.8;" x="70.8" xlink:href="#m148c452236" y="298.245375"/>
      </g>
     </g>
     <g id="text_1">
      <!-- 0 -->
      <defs>
       <path d="M 31.78125 66.40625 
Q 24.171875 66.40625 20.328125 58.90625 
Q 16.5 51.421875 16.5 36.375 
Q 16.5 21.390625 20.328125 13.890625 
Q 24.171875 6.390625 31.78125 6.390625 
Q 39.453125 6.390625 43.28125 13.890625 
Q 47.125 21.390625 47.125 36.375 
Q 47.125 51.421875 43.28125 58.90625 
Q 39.453125 66.40625 31.78125 66.40625 
z
M 31.78125 74.21875 
Q 44.046875 74.21875 50.515625 64.515625 
Q 56.984375 54.828125 56.984375 36.375 
Q 56.984375 17.96875 50.515625 8.265625 
Q 44.046875 -1.421875 31.78125 -1.421875 
Q 19.53125 -1.421875 13.0625 8.265625 
Q 6.59375 17.96875 6.59375 36.375 
Q 6.59375 54.828125 13.0625 64.515625 
Q 19.53125 74.21875 31.78125 74.21875 
z
" id="DejaVuSans-30"/>
      </defs>
      <g transform="translate(64.4375 320.44225)scale(0.2 -0.2)">
       <use xlink:href="#DejaVuSans-30"/>
      </g>
     </g>
    </g>
    <g id="xtick_2">
     <g id="line2d_3">
      <path clip-path="url(#p0688e6983c)" d="M 153.085714 298.245375 
L 153.085714 32.133375 
" style="fill:none;stroke:#b0b0b0;stroke-linecap:square;stroke-width:0.8;"/>
     </g>
     <g id="line2d_4">
      <g>
       <use style="stroke:#000000;stroke-width:0.8;" x="153.085714" xlink:href="#m148c452236" y="298.245375"/>
      </g>
     </g>
     <g id="text_2">
      <!-- 2 -->
      <defs>
       <path d="M 19.1875 8.296875 
L 53.609375 8.296875 
L 53.609375 0 
L 7.328125 0 
L 7.328125 8.296875 
Q 12.9375 14.109375 22.625 23.890625 
Q 32.328125 33.6875 34.8125 36.53125 
Q 39.546875 41.84375 41.421875 45.53125 
Q 43.3125 49.21875 43.3125 52.78125 
Q 43.3125 58.59375 39.234375 62.25 
Q 35.15625 65.921875 28.609375 65.921875 
Q 23.96875 65.921875 18.8125 64.3125 
Q 13.671875 62.703125 7.8125 59.421875 
L 7.8125 69.390625 
Q 13.765625 71.78125 18.9375 73 
Q 24.125 74.21875 28.421875 74.21875 
Q 39.75 74.21875 46.484375 68.546875 
Q 53.21875 62.890625 53.21875 53.421875 
Q 53.21875 48.921875 51.53125 44.890625 
Q 49.859375 40.875 45.40625 35.40625 
Q 44.1875 33.984375 37.640625 27.21875 
Q 31.109375 20.453125 19.1875 8.296875 
z
" id="DejaVuSans-32"/>
      </defs>
      <g transform="translate(146.723214 320.44225)scale(0.2 -0.2)">
       <use xlink:href="#DejaVuSans-32"/>
      </g>
     </g>
    </g>
    <g id="xtick_3">
     <g id="line2d_5">
      <path clip-path="url(#p0688e6983c)" d="M 235.371429 298.245375 
L 235.371429 32.133375 
" style="fill:none;stroke:#b0b0b0;stroke-linecap:square;stroke-width:0.8;"/>
     </g>
     <g id="line2d_6">
      <g>
       <use style="stroke:#000000;stroke-width:0.8;" x="235.371429" xlink:href="#m148c452236" y="298.245375"/>
      </g>
     </g>
     <g id="text_3">
      <!-- 4 -->
      <defs>
       <path d="M 37.796875 64.3125 
L 12.890625 25.390625 
L 37.796875 25.390625 
z
M 35.203125 72.90625 
L 47.609375 72.90625 
L 47.609375 25.390625 
L 58.015625 25.390625 
L 58.015625 17.1875 
L 47.609375 17.1875 
L 47.609375 0 
L 37.796875 0 
L 37.796875 17.1875 
L 4.890625 17.1875 
L 4.890625 26.703125 
z
" id="DejaVuSans-34"/>
      </defs>
      <g transform="translate(229.008929 320.44225)scale(0.2 -0.2)">
       <use xlink:href="#DejaVuSans-34"/>
      </g>
     </g>
    </g>
    <g id="xtick_4">
     <g id="line2d_7">
      <path clip-path="url(#p0688e6983c)" d="M 317.657143 298.245375 
L 317.657143 32.133375 
" style="fill:none;stroke:#b0b0b0;stroke-linecap:square;stroke-width:0.8;"/>
     </g>
     <g id="line2d_8">
      <g>
       <use style="stroke:#000000;stroke-width:0.8;" x="317.657143" xlink:href="#m148c452236" y="298.245375"/>
      </g>
     </g>
     <g id="text_4">
      <!-- 6 -->
      <defs>
       <path d="M 33.015625 40.375 
Q 26.375 40.375 22.484375 35.828125 
Q 18.609375 31.296875 18.609375 23.390625 
Q 18.609375 15.53125 22.484375 10.953125 
Q 26.375 6.390625 33.015625 6.390625 
Q 39.65625 6.390625 43.53125 10.953125 
Q 47.40625 15.53125 47.40625 23.390625 
Q 47.40625 31.296875 43.53125 35.828125 
Q 39.65625 40.375 33.015625 40.375 
z
M 52.59375 71.296875 
L 52.59375 62.3125 
Q 48.875 64.0625 45.09375 64.984375 
Q 41.3125 65.921875 37.59375 65.921875 
Q 27.828125 65.921875 22.671875 59.328125 
Q 17.53125 52.734375 16.796875 39.40625 
Q 19.671875 43.65625 24.015625 45.921875 
Q 28.375 48.1875 33.59375 48.1875 
Q 44.578125 48.1875 50.953125 41.515625 
Q 57.328125 34.859375 57.328125 23.390625 
Q 57.328125 12.15625 50.6875 5.359375 
Q 44.046875 -1.421875 33.015625 -1.421875 
Q 20.359375 -1.421875 13.671875 8.265625 
Q 6.984375 17.96875 6.984375 36.375 
Q 6.984375 53.65625 15.1875 63.9375 
Q 23.390625 74.21875 37.203125 74.21875 
Q 40.921875 74.21875 44.703125 73.484375 
Q 48.484375 72.75 52.59375 71.296875 
z
" id="DejaVuSans-36"/>
      </defs>
      <g transform="translate(311.294643 320.44225)scale(0.2 -0.2)">
       <use xlink:href="#DejaVuSans-36"/>
      </g>
     </g>
    </g>
    <g id="xtick_5">
     <g id="line2d_9">
      <path clip-path="url(#p0688e6983c)" d="M 399.942857 298.245375 
L 399.942857 32.133375 
" style="fill:none;stroke:#b0b0b0;stroke-linecap:square;stroke-width:0.8;"/>
     </g>
     <g id="line2d_10">
      <g>
       <use style="stroke:#000000;stroke-width:0.8;" x="399.942857" xlink:href="#m148c452236" y="298.245375"/>
      </g>
     </g>
     <g id="text_5">
      <!-- 8 -->
      <defs>
       <path d="M 31.78125 34.625 
Q 24.75 34.625 20.71875 30.859375 
Q 16.703125 27.09375 16.703125 20.515625 
Q 16.703125 13.921875 20.71875 10.15625 
Q 24.75 6.390625 31.78125 6.390625 
Q 38.8125 6.390625 42.859375 10.171875 
Q 46.921875 13.96875 46.921875 20.515625 
Q 46.921875 27.09375 42.890625 30.859375 
Q 38.875 34.625 31.78125 34.625 
z
M 21.921875 38.8125 
Q 15.578125 40.375 12.03125 44.71875 
Q 8.5 49.078125 8.5 55.328125 
Q 8.5 64.0625 14.71875 69.140625 
Q 20.953125 74.21875 31.78125 74.21875 
Q 42.671875 74.21875 48.875 69.140625 
Q 55.078125 64.0625 55.078125 55.328125 
Q 55.078125 49.078125 51.53125 44.71875 
Q 48 40.375 41.703125 38.8125 
Q 48.828125 37.15625 52.796875 32.3125 
Q 56.78125 27.484375 56.78125 20.515625 
Q 56.78125 9.90625 50.3125 4.234375 
Q 43.84375 -1.421875 31.78125 -1.421875 
Q 19.734375 -1.421875 13.25 4.234375 
Q 6.78125 9.90625 6.78125 20.515625 
Q 6.78125 27.484375 10.78125 32.3125 
Q 14.796875 37.15625 21.921875 38.8125 
z
M 18.3125 54.390625 
Q 18.3125 48.734375 21.84375 45.5625 
Q 25.390625 42.390625 31.78125 42.390625 
Q 38.140625 42.390625 41.71875 45.5625 
Q 45.3125 48.734375 45.3125 54.390625 
Q 45.3125 60.0625 41.71875 63.234375 
Q 38.140625 66.40625 31.78125 66.40625 
Q 25.390625 66.40625 21.84375 63.234375 
Q 18.3125 60.0625 18.3125 54.390625 
z
" id="DejaVuSans-38"/>
      </defs>
      <g transform="translate(393.580357 320.44225)scale(0.2 -0.2)">
       <use xlink:href="#DejaVuSans-38"/>
      </g>
     </g>
    </g>
    <g id="text_6">
     <!-- log10 of # (f+g)-evals / dimension -->
     <defs>
      <path d="M 9.421875 75.984375 
L 18.40625 75.984375 
L 18.40625 0 
L 9.421875 0 
z
" id="DejaVuSans-6c"/>
      <path d="M 30.609375 48.390625 
Q 23.390625 48.390625 19.1875 42.75 
Q 14.984375 37.109375 14.984375 27.296875 
Q 14.984375 17.484375 19.15625 11.84375 
Q 23.34375 6.203125 30.609375 6.203125 
Q 37.796875 6.203125 41.984375 11.859375 
Q 46.1875 17.53125 46.1875 27.296875 
Q 46.1875 37.015625 41.984375 42.703125 
Q 37.796875 48.390625 30.609375 48.390625 
z
M 30.609375 56 
Q 42.328125 56 49.015625 48.375 
Q 55.71875 40.765625 55.71875 27.296875 
Q 55.71875 13.875 49.015625 6.21875 
Q 42.328125 -1.421875 30.609375 -1.421875 
Q 18.84375 -1.421875 12.171875 6.21875 
Q 5.515625 13.875 5.515625 27.296875 
Q 5.515625 40.765625 12.171875 48.375 
Q 18.84375 56 30.609375 56 
z
" id="DejaVuSans-6f"/>
      <path d="M 45.40625 27.984375 
Q 45.40625 37.75 41.375 43.109375 
Q 37.359375 48.484375 30.078125 48.484375 
Q 22.859375 48.484375 18.828125 43.109375 
Q 14.796875 37.75 14.796875 27.984375 
Q 14.796875 18.265625 18.828125 12.890625 
Q 22.859375 7.515625 30.078125 7.515625 
Q 37.359375 7.515625 41.375 12.890625 
Q 45.40625 18.265625 45.40625 27.984375 
z
M 54.390625 6.78125 
Q 54.390625 -7.171875 48.1875 -13.984375 
Q 42 -20.796875 29.203125 -20.796875 
Q 24.46875 -20.796875 20.265625 -20.09375 
Q 16.0625 -19.390625 12.109375 -17.921875 
L 12.109375 -9.1875 
Q 16.0625 -11.328125 19.921875 -12.34375 
Q 23.78125 -13.375 27.78125 -13.375 
Q 36.625 -13.375 41.015625 -8.765625 
Q 45.40625 -4.15625 45.40625 5.171875 
L 45.40625 9.625 
Q 42.625 4.78125 38.28125 2.390625 
Q 33.9375 0 27.875 0 
Q 17.828125 0 11.671875 7.65625 
Q 5.515625 15.328125 5.515625 27.984375 
Q 5.515625 40.671875 11.671875 48.328125 
Q 17.828125 56 27.875 56 
Q 33.9375 56 38.28125 53.609375 
Q 42.625 51.21875 45.40625 46.390625 
L 45.40625 54.6875 
L 54.390625 54.6875 
z
" id="DejaVuSans-67"/>
      <path d="M 12.40625 8.296875 
L 28.515625 8.296875 
L 28.515625 63.921875 
L 10.984375 60.40625 
L 10.984375 69.390625 
L 28.421875 72.90625 
L 38.28125 72.90625 
L 38.28125 8.296875 
L 54.390625 8.296875 
L 54.390625 0 
L 12.40625 0 
z
" id="DejaVuSans-31"/>
      <path id="DejaVuSans-20"/>
      <path d="M 37.109375 75.984375 
L 37.109375 68.5 
L 28.515625 68.5 
Q 23.6875 68.5 21.796875 66.546875 
Q 19.921875 64.59375 19.921875 59.515625 
L 19.921875 54.6875 
L 34.71875 54.6875 
L 34.71875 47.703125 
L 19.921875 47.703125 
L 19.921875 0 
L 10.890625 0 
L 10.890625 47.703125 
L 2.296875 47.703125 
L 2.296875 54.6875 
L 10.890625 54.6875 
L 10.890625 58.5 
Q 10.890625 67.625 15.140625 71.796875 
Q 19.390625 75.984375 28.609375 75.984375 
z
" id="DejaVuSans-66"/>
      <path d="M 51.125 44 
L 36.921875 44 
L 32.8125 27.6875 
L 47.125 27.6875 
z
M 43.796875 71.78125 
L 38.71875 51.515625 
L 52.984375 51.515625 
L 58.109375 71.78125 
L 65.921875 71.78125 
L 60.890625 51.515625 
L 76.125 51.515625 
L 76.125 44 
L 58.984375 44 
L 54.984375 27.6875 
L 70.515625 27.6875 
L 70.515625 20.21875 
L 53.078125 20.21875 
L 48 0 
L 40.1875 0 
L 45.21875 20.21875 
L 30.90625 20.21875 
L 25.875 0 
L 18.015625 0 
L 23.09375 20.21875 
L 7.71875 20.21875 
L 7.71875 27.6875 
L 24.90625 27.6875 
L 29 44 
L 13.28125 44 
L 13.28125 51.515625 
L 30.90625 51.515625 
L 35.890625 71.78125 
z
" id="DejaVuSans-23"/>
      <path d="M 31 75.875 
Q 24.46875 64.65625 21.28125 53.65625 
Q 18.109375 42.671875 18.109375 31.390625 
Q 18.109375 20.125 21.3125 9.0625 
Q 24.515625 -2 31 -13.1875 
L 23.1875 -13.1875 
Q 15.875 -1.703125 12.234375 9.375 
Q 8.59375 20.453125 8.59375 31.390625 
Q 8.59375 42.28125 12.203125 53.3125 
Q 15.828125 64.359375 23.1875 75.875 
z
" id="DejaVuSans-28"/>
      <path d="M 46 62.703125 
L 46 35.5 
L 73.1875 35.5 
L 73.1875 27.203125 
L 46 27.203125 
L 46 0 
L 37.796875 0 
L 37.796875 27.203125 
L 10.59375 27.203125 
L 10.59375 35.5 
L 37.796875 35.5 
L 37.796875 62.703125 
z
" id="DejaVuSans-2b"/>
      <path d="M 8.015625 75.875 
L 15.828125 75.875 
Q 23.140625 64.359375 26.78125 53.3125 
Q 30.421875 42.28125 30.421875 31.390625 
Q 30.421875 20.453125 26.78125 9.375 
Q 23.140625 -1.703125 15.828125 -13.1875 
L 8.015625 -13.1875 
Q 14.5 -2 17.703125 9.0625 
Q 20.90625 20.125 20.90625 31.390625 
Q 20.90625 42.671875 17.703125 53.65625 
Q 14.5 64.65625 8.015625 75.875 
z
" id="DejaVuSans-29"/>
      <path d="M 4.890625 31.390625 
L 31.203125 31.390625 
L 31.203125 23.390625 
L 4.890625 23.390625 
z
" id="DejaVuSans-2d"/>
      <path d="M 56.203125 29.59375 
L 56.203125 25.203125 
L 14.890625 25.203125 
Q 15.484375 15.921875 20.484375 11.0625 
Q 25.484375 6.203125 34.421875 6.203125 
Q 39.59375 6.203125 44.453125 7.46875 
Q 49.3125 8.734375 54.109375 11.28125 
L 54.109375 2.78125 
Q 49.265625 0.734375 44.1875 -0.34375 
Q 39.109375 -1.421875 33.890625 -1.421875 
Q 20.796875 -1.421875 13.15625 6.1875 
Q 5.515625 13.8125 5.515625 26.8125 
Q 5.515625 40.234375 12.765625 48.109375 
Q 20.015625 56 32.328125 56 
Q 43.359375 56 49.78125 48.890625 
Q 56.203125 41.796875 56.203125 29.59375 
z
M 47.21875 32.234375 
Q 47.125 39.59375 43.09375 43.984375 
Q 39.0625 48.390625 32.421875 48.390625 
Q 24.90625 48.390625 20.390625 44.140625 
Q 15.875 39.890625 15.1875 32.171875 
z
" id="DejaVuSans-65"/>
      <path d="M 2.984375 54.6875 
L 12.5 54.6875 
L 29.59375 8.796875 
L 46.6875 54.6875 
L 56.203125 54.6875 
L 35.6875 0 
L 23.484375 0 
z
" id="DejaVuSans-76"/>
      <path d="M 34.28125 27.484375 
Q 23.390625 27.484375 19.1875 25 
Q 14.984375 22.515625 14.984375 16.5 
Q 14.984375 11.71875 18.140625 8.90625 
Q 21.296875 6.109375 26.703125 6.109375 
Q 34.1875 6.109375 38.703125 11.40625 
Q 43.21875 16.703125 43.21875 25.484375 
L 43.21875 27.484375 
z
M 52.203125 31.203125 
L 52.203125 0 
L 43.21875 0 
L 43.21875 8.296875 
Q 40.140625 3.328125 35.546875 0.953125 
Q 30.953125 -1.421875 24.3125 -1.421875 
Q 15.921875 -1.421875 10.953125 3.296875 
Q 6 8.015625 6 15.921875 
Q 6 25.140625 12.171875 29.828125 
Q 18.359375 34.515625 30.609375 34.515625 
L 43.21875 34.515625 
L 43.21875 35.40625 
Q 43.21875 41.609375 39.140625 45 
Q 35.0625 48.390625 27.6875 48.390625 
Q 23 48.390625 18.546875 47.265625 
Q 14.109375 46.140625 10.015625 43.890625 
L 10.015625 52.203125 
Q 14.9375 54.109375 19.578125 55.046875 
Q 24.21875 56 28.609375 56 
Q 40.484375 56 46.34375 49.84375 
Q 52.203125 43.703125 52.203125 31.203125 
z
" id="DejaVuSans-61"/>
      <path d="M 44.28125 53.078125 
L 44.28125 44.578125 
Q 40.484375 46.53125 36.375 47.5 
Q 32.28125 48.484375 27.875 48.484375 
Q 21.1875 48.484375 17.84375 46.4375 
Q 14.5 44.390625 14.5 40.28125 
Q 14.5 37.15625 16.890625 35.375 
Q 19.28125 33.59375 26.515625 31.984375 
L 29.59375 31.296875 
Q 39.15625 29.25 43.1875 25.515625 
Q 47.21875 21.78125 47.21875 15.09375 
Q 47.21875 7.46875 41.1875 3.015625 
Q 35.15625 -1.421875 24.609375 -1.421875 
Q 20.21875 -1.421875 15.453125 -0.5625 
Q 10.6875 0.296875 5.421875 2 
L 5.421875 11.28125 
Q 10.40625 8.6875 15.234375 7.390625 
Q 20.0625 6.109375 24.8125 6.109375 
Q 31.15625 6.109375 34.5625 8.28125 
Q 37.984375 10.453125 37.984375 14.40625 
Q 37.984375 18.0625 35.515625 20.015625 
Q 33.0625 21.96875 24.703125 23.78125 
L 21.578125 24.515625 
Q 13.234375 26.265625 9.515625 29.90625 
Q 5.8125 33.546875 5.8125 39.890625 
Q 5.8125 47.609375 11.28125 51.796875 
Q 16.75 56 26.8125 56 
Q 31.78125 56 36.171875 55.265625 
Q 40.578125 54.546875 44.28125 53.078125 
z
" id="DejaVuSans-73"/>
      <path d="M 25.390625 72.90625 
L 33.6875 72.90625 
L 8.296875 -9.28125 
L 0 -9.28125 
z
" id="DejaVuSans-2f"/>
      <path d="M 45.40625 46.390625 
L 45.40625 75.984375 
L 54.390625 75.984375 
L 54.390625 0 
L 45.40625 0 
L 45.40625 8.203125 
Q 42.578125 3.328125 38.25 0.953125 
Q 33.9375 -1.421875 27.875 -1.421875 
Q 17.96875 -1.421875 11.734375 6.484375 
Q 5.515625 14.40625 5.515625 27.296875 
Q 5.515625 40.1875 11.734375 48.09375 
Q 17.96875 56 27.875 56 
Q 33.9375 56 38.25 53.625 
Q 42.578125 51.265625 45.40625 46.390625 
z
M 14.796875 27.296875 
Q 14.796875 17.390625 18.875 11.75 
Q 22.953125 6.109375 30.078125 6.109375 
Q 37.203125 6.109375 41.296875 11.75 
Q 45.40625 17.390625 45.40625 27.296875 
Q 45.40625 37.203125 41.296875 42.84375 
Q 37.203125 48.484375 30.078125 48.484375 
Q 22.953125 48.484375 18.875 42.84375 
Q 14.796875 37.203125 14.796875 27.296875 
z
" id="DejaVuSans-64"/>
      <path d="M 9.421875 54.6875 
L 18.40625 54.6875 
L 18.40625 0 
L 9.421875 0 
z
M 9.421875 75.984375 
L 18.40625 75.984375 
L 18.40625 64.59375 
L 9.421875 64.59375 
z
" id="DejaVuSans-69"/>
      <path d="M 52 44.1875 
Q 55.375 50.25 60.0625 53.125 
Q 64.75 56 71.09375 56 
Q 79.640625 56 84.28125 50.015625 
Q 88.921875 44.046875 88.921875 33.015625 
L 88.921875 0 
L 79.890625 0 
L 79.890625 32.71875 
Q 79.890625 40.578125 77.09375 44.375 
Q 74.3125 48.1875 68.609375 48.1875 
Q 61.625 48.1875 57.5625 43.546875 
Q 53.515625 38.921875 53.515625 30.90625 
L 53.515625 0 
L 44.484375 0 
L 44.484375 32.71875 
Q 44.484375 40.625 41.703125 44.40625 
Q 38.921875 48.1875 33.109375 48.1875 
Q 26.21875 48.1875 22.15625 43.53125 
Q 18.109375 38.875 18.109375 30.90625 
L 18.109375 0 
L 9.078125 0 
L 9.078125 54.6875 
L 18.109375 54.6875 
L 18.109375 46.1875 
Q 21.1875 51.21875 25.484375 53.609375 
Q 29.78125 56 35.6875 56 
Q 41.65625 56 45.828125 52.96875 
Q 50 49.953125 52 44.1875 
z
" id="DejaVuSans-6d"/>
      <path d="M 54.890625 33.015625 
L 54.890625 0 
L 45.90625 0 
L 45.90625 32.71875 
Q 45.90625 40.484375 42.875 44.328125 
Q 39.84375 48.1875 33.796875 48.1875 
Q 26.515625 48.1875 22.3125 43.546875 
Q 18.109375 38.921875 18.109375 30.90625 
L 18.109375 0 
L 9.078125 0 
L 9.078125 54.6875 
L 18.109375 54.6875 
L 18.109375 46.1875 
Q 21.34375 51.125 25.703125 53.5625 
Q 30.078125 56 35.796875 56 
Q 45.21875 56 50.046875 50.171875 
Q 54.890625 44.34375 54.890625 33.015625 
z
" id="DejaVuSans-6e"/>
     </defs>
     <g transform="translate(93.752813 342.278812)scale(0.18 -0.18)">
      <use xlink:href="#DejaVuSans-6c"/>
      <use x="27.783203" xlink:href="#DejaVuSans-6f"/>
      <use x="88.964844" xlink:href="#DejaVuSans-67"/>
      <use x="152.441406" xlink:href="#DejaVuSans-31"/>
      <use x="216.064453" xlink:href="#DejaVuSans-30"/>
      <use x="279.6875" xlink:href="#DejaVuSans-20"/>
      <use x="311.474609" xlink:href="#DejaVuSans-6f"/>
      <use x="372.65625" xlink:href="#DejaVuSans-66"/>
      <use x="407.861328" xlink:href="#DejaVuSans-20"/>
      <use x="439.648438" xlink:href="#DejaVuSans-23"/>
      <use x="523.4375" xlink:href="#DejaVuSans-20"/>
      <use x="555.224609" xlink:href="#DejaVuSans-28"/>
      <use x="594.238281" xlink:href="#DejaVuSans-66"/>
      <use x="629.443359" xlink:href="#DejaVuSans-2b"/>
      <use x="713.232422" xlink:href="#DejaVuSans-67"/>
      <use x="776.708984" xlink:href="#DejaVuSans-29"/>
      <use x="815.722656" xlink:href="#DejaVuSans-2d"/>
      <use x="851.806641" xlink:href="#DejaVuSans-65"/>
      <use x="913.330078" xlink:href="#DejaVuSans-76"/>
      <use x="972.509766" xlink:href="#DejaVuSans-61"/>
      <use x="1033.789062" xlink:href="#DejaVuSans-6c"/>
      <use x="1061.572266" xlink:href="#DejaVuSans-73"/>
      <use x="1113.671875" xlink:href="#DejaVuSans-20"/>
      <use x="1145.458984" xlink:href="#DejaVuSans-2f"/>
      <use x="1179.150391" xlink:href="#DejaVuSans-20"/>
      <use x="1210.9375" xlink:href="#DejaVuSans-64"/>
      <use x="1274.414062" xlink:href="#DejaVuSans-69"/>
      <use x="1302.197266" xlink:href="#DejaVuSans-6d"/>
      <use x="1399.609375" xlink:href="#DejaVuSans-65"/>
      <use x="1461.132812" xlink:href="#DejaVuSans-6e"/>
      <use x="1524.511719" xlink:href="#DejaVuSans-73"/>
      <use x="1576.611328" xlink:href="#DejaVuSans-69"/>
      <use x="1604.394531" xlink:href="#DejaVuSans-6f"/>
      <use x="1665.576172" xlink:href="#DejaVuSans-6e"/>
     </g>
    </g>
   </g>
   <g id="matplotlib.axis_2">
    <g id="ytick_1">
     <g id="line2d_11">
      <path clip-path="url(#p0688e6983c)" d="M 70.8 298.245375 
L 427.92 298.245375 
" style="fill:none;stroke:#b0b0b0;stroke-linecap:square;stroke-width:0.8;"/>
     </g>
     <g id="line2d_12">
      <defs>
       <path d="M 0 0 
L -3.5 0 
" id="m2be410a057" style="stroke:#000000;stroke-width:0.8;"/>
      </defs>
      <g>
       <use style="stroke:#000000;stroke-width:0.8;" x="70.8" xlink:href="#m2be410a057" y="298.245375"/>
      </g>
     </g>
     <g id="text_7">
      <!-- 0.0 -->
      <defs>
       <path d="M 10.6875 12.40625 
L 21 12.40625 
L 21 0 
L 10.6875 0 
z
" id="DejaVuSans-2e"/>
      </defs>
      <g transform="translate(31.99375 305.843812)scale(0.2 -0.2)">
       <use xlink:href="#DejaVuSans-30"/>
       <use x="63.623047" xlink:href="#DejaVuSans-2e"/>
       <use x="95.410156" xlink:href="#DejaVuSans-30"/>
      </g>
     </g>
    </g>
    <g id="ytick_2">
     <g id="line2d_13">
      <path clip-path="url(#p0688e6983c)" d="M 70.8 245.549929 
L 427.92 245.549929 
" style="fill:none;stroke:#b0b0b0;stroke-linecap:square;stroke-width:0.8;"/>
     </g>
     <g id="line2d_14">
      <g>
       <use style="stroke:#000000;stroke-width:0.8;" x="70.8" xlink:href="#m2be410a057" y="245.549929"/>
      </g>
     </g>
     <g id="text_8">
      <!-- 0.2 -->
      <g transform="translate(31.99375 253.148367)scale(0.2 -0.2)">
       <use xlink:href="#DejaVuSans-30"/>
       <use x="63.623047" xlink:href="#DejaVuSans-2e"/>
       <use x="95.410156" xlink:href="#DejaVuSans-32"/>
      </g>
     </g>
    </g>
    <g id="ytick_3">
     <g id="line2d_15">
      <path clip-path="url(#p0688e6983c)" d="M 70.8 192.854484 
L 427.92 192.854484 
" style="fill:none;stroke:#b0b0b0;stroke-linecap:square;stroke-width:0.8;"/>
     </g>
     <g id="line2d_16">
      <g>
       <use style="stroke:#000000;stroke-width:0.8;" x="70.8" xlink:href="#m2be410a057" y="192.854484"/>
      </g>
     </g>
     <g id="text_9">
      <!-- 0.4 -->
      <g transform="translate(31.99375 200.452921)scale(0.2 -0.2)">
       <use xlink:href="#DejaVuSans-30"/>
       <use x="63.623047" xlink:href="#DejaVuSans-2e"/>
       <use x="95.410156" xlink:href="#DejaVuSans-34"/>
      </g>
     </g>
    </g>
    <g id="ytick_4">
     <g id="line2d_17">
      <path clip-path="url(#p0688e6983c)" d="M 70.8 140.159038 
L 427.92 140.159038 
" style="fill:none;stroke:#b0b0b0;stroke-linecap:square;stroke-width:0.8;"/>
     </g>
     <g id="line2d_18">
      <g>
       <use style="stroke:#000000;stroke-width:0.8;" x="70.8" xlink:href="#m2be410a057" y="140.159038"/>
      </g>
     </g>
     <g id="text_10">
      <!-- 0.6 -->
      <g transform="translate(31.99375 147.757476)scale(0.2 -0.2)">
       <use xlink:href="#DejaVuSans-30"/>
       <use x="63.623047" xlink:href="#DejaVuSans-2e"/>
       <use x="95.410156" xlink:href="#DejaVuSans-36"/>
      </g>
     </g>
    </g>
    <g id="ytick_5">
     <g id="line2d_19">
      <path clip-path="url(#p0688e6983c)" d="M 70.8 87.463593 
L 427.92 87.463593 
" style="fill:none;stroke:#b0b0b0;stroke-linecap:square;stroke-width:0.8;"/>
     </g>
     <g id="line2d_20">
      <g>
       <use style="stroke:#000000;stroke-width:0.8;" x="70.8" xlink:href="#m2be410a057" y="87.463593"/>
      </g>
     </g>
     <g id="text_11">
      <!-- 0.8 -->
      <g transform="translate(31.99375 95.06203)scale(0.2 -0.2)">
       <use xlink:href="#DejaVuSans-30"/>
       <use x="63.623047" xlink:href="#DejaVuSans-2e"/>
       <use x="95.410156" xlink:href="#DejaVuSans-38"/>
      </g>
     </g>
    </g>
    <g id="ytick_6">
     <g id="line2d_21">
      <path clip-path="url(#p0688e6983c)" d="M 70.8 34.768147 
L 427.92 34.768147 
" style="fill:none;stroke:#b0b0b0;stroke-linecap:square;stroke-width:0.8;"/>
     </g>
     <g id="line2d_22">
      <g>
       <use style="stroke:#000000;stroke-width:0.8;" x="70.8" xlink:href="#m2be410a057" y="34.768147"/>
      </g>
     </g>
     <g id="text_12">
      <!-- 1.0 -->
      <g transform="translate(31.99375 42.366585)scale(0.2 -0.2)">
       <use xlink:href="#DejaVuSans-31"/>
       <use x="63.623047" xlink:href="#DejaVuSans-2e"/>
       <use x="95.410156" xlink:href="#DejaVuSans-30"/>
      </g>
     </g>
    </g>
    <g id="text_13">
     <!-- Proportion of function+target pairs -->
     <defs>
      <path d="M 19.671875 64.796875 
L 19.671875 37.40625 
L 32.078125 37.40625 
Q 38.96875 37.40625 42.71875 40.96875 
Q 46.484375 44.53125 46.484375 51.125 
Q 46.484375 57.671875 42.71875 61.234375 
Q 38.96875 64.796875 32.078125 64.796875 
z
M 9.8125 72.90625 
L 32.078125 72.90625 
Q 44.34375 72.90625 50.609375 67.359375 
Q 56.890625 61.8125 56.890625 51.125 
Q 56.890625 40.328125 50.609375 34.8125 
Q 44.34375 29.296875 32.078125 29.296875 
L 19.671875 29.296875 
L 19.671875 0 
L 9.8125 0 
z
" id="DejaVuSans-50"/>
      <path d="M 41.109375 46.296875 
Q 39.59375 47.171875 37.8125 47.578125 
Q 36.03125 48 33.890625 48 
Q 26.265625 48 22.1875 43.046875 
Q 18.109375 38.09375 18.109375 28.8125 
L 18.109375 0 
L 9.078125 0 
L 9.078125 54.6875 
L 18.109375 54.6875 
L 18.109375 46.1875 
Q 20.953125 51.171875 25.484375 53.578125 
Q 30.03125 56 36.53125 56 
Q 37.453125 56 38.578125 55.875 
Q 39.703125 55.765625 41.0625 55.515625 
z
" id="DejaVuSans-72"/>
      <path d="M 18.109375 8.203125 
L 18.109375 -20.796875 
L 9.078125 -20.796875 
L 9.078125 54.6875 
L 18.109375 54.6875 
L 18.109375 46.390625 
Q 20.953125 51.265625 25.265625 53.625 
Q 29.59375 56 35.59375 56 
Q 45.5625 56 51.78125 48.09375 
Q 58.015625 40.1875 58.015625 27.296875 
Q 58.015625 14.40625 51.78125 6.484375 
Q 45.5625 -1.421875 35.59375 -1.421875 
Q 29.59375 -1.421875 25.265625 0.953125 
Q 20.953125 3.328125 18.109375 8.203125 
z
M 48.6875 27.296875 
Q 48.6875 37.203125 44.609375 42.84375 
Q 40.53125 48.484375 33.40625 48.484375 
Q 26.265625 48.484375 22.1875 42.84375 
Q 18.109375 37.203125 18.109375 27.296875 
Q 18.109375 17.390625 22.1875 11.75 
Q 26.265625 6.109375 33.40625 6.109375 
Q 40.53125 6.109375 44.609375 11.75 
Q 48.6875 17.390625 48.6875 27.296875 
z
" id="DejaVuSans-70"/>
      <path d="M 18.3125 70.21875 
L 18.3125 54.6875 
L 36.8125 54.6875 
L 36.8125 47.703125 
L 18.3125 47.703125 
L 18.3125 18.015625 
Q 18.3125 11.328125 20.140625 9.421875 
Q 21.96875 7.515625 27.59375 7.515625 
L 36.8125 7.515625 
L 36.8125 0 
L 27.59375 0 
Q 17.1875 0 13.234375 3.875 
Q 9.28125 7.765625 9.28125 18.015625 
L 9.28125 47.703125 
L 2.6875 47.703125 
L 2.6875 54.6875 
L 9.28125 54.6875 
L 9.28125 70.21875 
z
" id="DejaVuSans-74"/>
      <path d="M 8.5 21.578125 
L 8.5 54.6875 
L 17.484375 54.6875 
L 17.484375 21.921875 
Q 17.484375 14.15625 20.5 10.265625 
Q 23.53125 6.390625 29.59375 6.390625 
Q 36.859375 6.390625 41.078125 11.03125 
Q 45.3125 15.671875 45.3125 23.6875 
L 45.3125 54.6875 
L 54.296875 54.6875 
L 54.296875 0 
L 45.3125 0 
L 45.3125 8.40625 
Q 42.046875 3.421875 37.71875 1 
Q 33.40625 -1.421875 27.6875 -1.421875 
Q 18.265625 -1.421875 13.375 4.4375 
Q 8.5 10.296875 8.5 21.578125 
z
M 31.109375 56 
z
" id="DejaVuSans-75"/>
      <path d="M 48.78125 52.59375 
L 48.78125 44.1875 
Q 44.96875 46.296875 41.140625 47.34375 
Q 37.3125 48.390625 33.40625 48.390625 
Q 24.65625 48.390625 19.8125 42.84375 
Q 14.984375 37.3125 14.984375 27.296875 
Q 14.984375 17.28125 19.8125 11.734375 
Q 24.65625 6.203125 33.40625 6.203125 
Q 37.3125 6.203125 41.140625 7.25 
Q 44.96875 8.296875 48.78125 10.40625 
L 48.78125 2.09375 
Q 45.015625 0.34375 40.984375 -0.53125 
Q 36.96875 -1.421875 32.421875 -1.421875 
Q 20.0625 -1.421875 12.78125 6.34375 
Q 5.515625 14.109375 5.515625 27.296875 
Q 5.515625 40.671875 12.859375 48.328125 
Q 20.21875 56 33.015625 56 
Q 37.15625 56 41.109375 55.140625 
Q 45.0625 54.296875 48.78125 52.59375 
z
" id="DejaVuSans-63"/>
     </defs>
     <g transform="translate(24.250312 323.17875)rotate(-90)scale(0.18 -0.18)">
      <use xlink:href="#DejaVuSans-50"/>
      <use x="60.287109" xlink:href="#DejaVuSans-72"/>
      <use x="101.369141" xlink:href="#DejaVuSans-6f"/>
      <use x="162.550781" xlink:href="#DejaVuSans-70"/>
      <use x="226.027344" xlink:href="#DejaVuSans-6f"/>
      <use x="287.208984" xlink:href="#DejaVuSans-72"/>
      <use x="328.322266" xlink:href="#DejaVuSans-74"/>
      <use x="367.53125" xlink:href="#DejaVuSans-69"/>
      <use x="395.314453" xlink:href="#DejaVuSans-6f"/>
      <use x="456.496094" xlink:href="#DejaVuSans-6e"/>
      <use x="519.875" xlink:href="#DejaVuSans-20"/>
      <use x="551.662109" xlink:href="#DejaVuSans-6f"/>
      <use x="612.84375" xlink:href="#DejaVuSans-66"/>
      <use x="648.048828" xlink:href="#DejaVuSans-20"/>
      <use x="679.835938" xlink:href="#DejaVuSans-66"/>
      <use x="715.041016" xlink:href="#DejaVuSans-75"/>
      <use x="778.419922" xlink:href="#DejaVuSans-6e"/>
      <use x="841.798828" xlink:href="#DejaVuSans-63"/>
      <use x="896.779297" xlink:href="#DejaVuSans-74"/>
      <use x="935.988281" xlink:href="#DejaVuSans-69"/>
      <use x="963.771484" xlink:href="#DejaVuSans-6f"/>
      <use x="1024.953125" xlink:href="#DejaVuSans-6e"/>
      <use x="1088.332031" xlink:href="#DejaVuSans-2b"/>
      <use x="1172.121094" xlink:href="#DejaVuSans-74"/>
      <use x="1211.330078" xlink:href="#DejaVuSans-61"/>
      <use x="1272.609375" xlink:href="#DejaVuSans-72"/>
      <use x="1313.707031" xlink:href="#DejaVuSans-67"/>
      <use x="1377.183594" xlink:href="#DejaVuSans-65"/>
      <use x="1438.707031" xlink:href="#DejaVuSans-74"/>
      <use x="1477.916016" xlink:href="#DejaVuSans-20"/>
      <use x="1509.703125" xlink:href="#DejaVuSans-70"/>
      <use x="1573.179688" xlink:href="#DejaVuSans-61"/>
      <use x="1634.458984" xlink:href="#DejaVuSans-69"/>
      <use x="1662.242188" xlink:href="#DejaVuSans-72"/>
      <use x="1703.355469" xlink:href="#DejaVuSans-73"/>
     </g>
    </g>
   </g>
   <g id="line2d_23">
    <defs>
     <path d="M 0 1.5 
C 0.397805 1.5 0.77937 1.341951 1.06066 1.06066 
C 1.341951 0.77937 1.5 0.397805 1.5 0 
C 1.5 -0.397805 1.341951 -0.77937 1.06066 -1.06066 
C 0.77937 -1.341951 0.397805 -1.5 0 -1.5 
C -0.397805 -1.5 -0.77937 -1.341951 -1.06066 -1.06066 
C -1.341951 -0.77937 -1.5 -0.397805 -1.5 0 
C -1.5 0.397805 -1.341951 0.77937 -1.06066 1.06066 
C -0.77937 1.341951 -0.397805 1.5 0 1.5 
z
" id="ma129ef0a24" style="stroke:#000080;"/>
    </defs>
    <g>
     <use style="fill:#000080;stroke:#000080;" x="235.752746" xlink:href="#ma129ef0a24" y="34.768147"/>
     <use style="fill:#000080;stroke:#000080;" x="235.752746" xlink:href="#ma129ef0a24" y="34.768147"/>
    </g>
   </g>
   <g id="line2d_24">
    <path d="M 29.657143 298.245375 
L 29.657143 294.112399 
L 61.672509 294.112399 
L 61.672509 293.595777 
L 70.8 293.595777 
L 70.8 292.562533 
L 74.057743 292.562533 
L 74.057743 291.529289 
L 76.812125 291.529289 
L 76.812125 291.012667 
L 81.30264 291.012667 
L 81.30264 288.946179 
L 83.185234 288.946179 
L 83.185234 288.429557 
L 84.888247 288.429557 
L 84.888247 287.912935 
L 86.442977 287.912935 
L 86.442977 286.363069 
L 87.873189 286.363069 
L 87.873189 285.846447 
L 89.197359 285.846447 
L 89.197359 283.263337 
L 90.430132 283.263337 
L 90.430132 282.230093 
L 92.666561 282.230093 
L 92.666561 279.646982 
L 93.687874 279.646982 
L 93.687874 279.13036 
L 95.570468 279.13036 
L 95.570468 274.997384 
L 96.442257 274.997384 
L 96.442257 273.447518 
L 98.067751 273.447518 
L 98.067751 271.897652 
L 98.828211 271.897652 
L 98.828211 271.38103 
L 99.557623 271.38103 
L 99.557623 270.864408 
L 100.258423 270.864408 
L 100.258423 268.79792 
L 101.582593 268.79792 
L 101.582593 266.731432 
L 102.209609 266.731432 
L 102.209609 264.148322 
L 103.401258 264.148322 
L 103.401258 263.115078 
L 105.569748 263.115078 
L 105.569748 260.015346 
L 106.073108 260.015346 
L 106.073108 256.915614 
L 106.562676 256.915614 
L 106.562676 255.365748 
L 107.503321 255.365748 
L 107.503321 254.849126 
L 107.955702 254.849126 
L 107.955702 254.332504 
L 108.396913 254.332504 
L 108.396913 253.815882 
L 108.827491 253.815882 
L 108.827491 251.232772 
L 109.658716 251.232772 
L 109.658716 250.71615 
L 110.83726 250.71615 
L 110.83726 249.682906 
L 111.581873 249.682906 
L 111.581873 249.166284 
L 112.643657 249.166284 
L 112.643657 248.13304 
L 112.984013 248.13304 
L 112.984013 247.616418 
L 116.072388 247.616418 
L 116.072388 246.583173 
L 117.437029 246.583173 
L 117.437029 246.066551 
L 118.208435 246.066551 
L 118.208435 245.033307 
L 120.562903 245.033307 
L 120.562903 243.483441 
L 120.998733 243.483441 
L 120.998733 242.966819 
L 121.212725 242.966819 
L 121.212725 241.933575 
L 121.839741 241.933575 
L 121.839741 240.900331 
L 125.028891 240.900331 
L 125.028891 238.833843 
L 125.369247 238.833843 
L 125.369247 238.317221 
L 125.537024 238.317221 
L 125.537024 237.800599 
L 125.867924 237.800599 
L 125.867924 237.283977 
L 127.585834 237.283977 
L 127.585834 235.734111 
L 129.690395 235.734111 
L 129.690395 235.217489 
L 129.953166 235.217489 
L 129.953166 233.667623 
L 131.151125 233.667623 
L 131.151125 233.151001 
L 131.926824 233.151001 
L 131.926824 232.634379 
L 132.330967 232.634379 
L 132.330967 232.117757 
L 133.058096 232.117757 
L 133.058096 231.084513 
L 133.704001 231.084513 
L 133.704001 230.567891 
L 134.681207 230.567891 
L 134.681207 227.468159 
L 134.830731 227.468159 
L 134.880296 225.918293 
L 135.077192 225.918293 
L 135.077192 225.401671 
L 135.368527 225.401671 
L 135.368527 224.885049 
L 135.84377 224.885049 
L 135.84377 223.851805 
L 136.122965 223.851805 
L 136.122965 223.335183 
L 136.260944 223.335183 
L 136.260944 222.818561 
L 136.75794 222.818561 
L 136.846836 220.752073 
L 137.110902 220.752073 
L 137.154536 219.202207 
L 137.284802 219.202207 
L 137.284802 218.685585 
L 137.796573 218.685585 
L 137.796573 218.168963 
L 137.963957 218.168963 
L 138.047065 217.135719 
L 138.698367 217.135719 
L 138.778135 215.069231 
L 139.132751 215.069231 
L 139.132751 214.035987 
L 139.480466 214.035987 
L 139.480466 213.519365 
L 139.708573 213.519365 
L 139.708573 213.002743 
L 140.484766 213.002743 
L 140.484766 212.48612 
L 141.538202 212.48612 
L 141.538202 211.969498 
L 141.775317 211.969498 
L 141.775317 211.452876 
L 142.468351 211.452876 
L 142.468351 210.936254 
L 142.597363 210.936254 
L 142.597363 210.419632 
L 142.757329 210.419632 
L 142.820917 208.869766 
L 143.259805 208.869766 
L 143.259805 207.3199 
L 144.076948 207.3199 
L 144.076948 206.803278 
L 144.25357 206.803278 
L 144.25357 206.286656 
L 144.830011 206.286656 
L 144.830011 205.253412 
L 145.250457 205.253412 
L 145.250457 204.220168 
L 145.552615 204.220168 
L 145.552615 203.186924 
L 145.769201 203.186924 
L 145.769201 202.670302 
L 145.929935 202.670302 
L 145.929935 202.15368 
L 146.194652 202.15368 
L 146.194652 201.120436 
L 147.091449 201.120436 
L 147.091449 200.603814 
L 147.681371 200.603814 
L 147.753761 199.57057 
L 148.134962 199.57057 
L 148.134962 199.053948 
L 148.369147 199.053948 
L 148.369147 198.020704 
L 148.485099 198.020704 
L 148.554311 196.98746 
L 149.098559 196.98746 
L 149.098559 195.954216 
L 149.756356 195.954216 
L 149.756356 195.437594 
L 150.01284 195.437594 
L 150.07639 193.371106 
L 150.307492 193.371106 
L 150.307492 192.854484 
L 150.842136 192.854484 
L 150.922987 191.304618 
L 151.103576 191.304618 
L 151.103576 190.787996 
L 151.361246 190.787996 
L 151.420185 188.204886 
L 151.478929 188.204886 
L 151.478929 187.171642 
L 151.846559 187.171642 
L 151.846559 186.138398 
L 153.157044 186.138398 
L 153.157044 185.621776 
L 153.40448 185.621776 
L 153.40448 185.105154 
L 153.889304 185.105154 
L 153.889304 184.588532 
L 154.510428 184.588532 
L 154.510428 183.555288 
L 155.174385 183.555288 
L 155.174385 183.038666 
L 155.489528 183.038666 
L 155.489528 182.005422 
L 155.768481 182.005422 
L 155.829883 179.422312 
L 156.462182 179.422312 
L 156.462182 178.90569 
L 156.682689 178.90569 
L 156.770135 176.839201 
L 156.986896 176.839201 
L 156.986896 176.322579 
L 157.412685 176.322579 
L 157.412685 175.805957 
L 157.718606 175.805957 
L 157.718606 175.289335 
L 158.167885 175.289335 
L 158.167885 174.772713 
L 158.341818 174.772713 
L 158.448018 173.739469 
L 158.461249 173.739469 
L 158.461249 173.222847 
L 159.046714 173.222847 
L 159.046714 172.706225 
L 159.174253 172.706225 
L 159.250342 171.156359 
L 159.712528 171.156359 
L 159.774078 169.606493 
L 159.969627 169.606493 
L 160.006056 168.056627 
L 160.35442 168.056627 
L 160.35442 167.540005 
L 160.707789 167.540005 
L 160.707789 167.023383 
L 160.858772 167.023383 
L 160.962556 164.440273 
L 160.97405 164.440273 
L 161.00849 162.890407 
L 161.506115 162.890407 
L 161.517265 161.857163 
L 161.88137 161.857163 
L 161.88137 161.340541 
L 162.033625 161.340541 
L 162.033625 160.823919 
L 162.206057 160.823919 
L 162.280976 158.240809 
L 162.398074 158.240809 
L 162.503866 157.207565 
L 162.982598 157.207565 
L 163.074781 155.141077 
L 163.328377 155.141077 
L 163.408774 152.557967 
L 163.478825 152.557967 
L 163.478825 151.524723 
L 163.608197 151.524723 
L 163.608197 151.008101 
L 163.932455 151.008101 
L 163.932455 149.974857 
L 164.19345 149.974857 
L 164.203043 148.424991 
L 164.393842 148.424991 
L 164.393842 147.391747 
L 164.535615 147.391747 
L 164.545027 146.358503 
L 164.862111 146.358503 
L 164.862111 145.325259 
L 165.200896 145.325259 
L 165.200896 144.808637 
L 165.363417 144.808637 
L 165.363417 144.292014 
L 165.47988 144.292014 
L 165.560066 142.742148 
L 166.051076 142.742148 
L 166.051076 142.225526 
L 166.300143 142.225526 
L 166.300143 141.708904 
L 166.486801 141.708904 
L 166.512104 139.125794 
L 166.671529 139.125794 
L 166.671529 138.609172 
L 166.796394 138.609172 
L 166.796394 137.575928 
L 166.928629 137.575928 
L 166.928629 137.059306 
L 167.182082 137.059306 
L 167.182082 136.026062 
L 167.535758 136.026062 
L 167.543716 134.476196 
L 167.749371 134.476196 
L 167.796496 133.442952 
L 167.866951 133.442952 
L 167.866951 132.92633 
L 169.009387 132.92633 
L 169.038679 130.34322 
L 169.328987 130.34322 
L 169.328987 129.309976 
L 169.727655 129.309976 
L 169.790905 127.243488 
L 169.993201 127.243488 
L 169.993201 126.210244 
L 170.261693 126.210244 
L 170.261693 125.693622 
L 170.707069 125.693622 
L 170.707069 125.177 
L 170.899308 125.177 
L 170.899308 124.143756 
L 171.011046 124.143756 
L 171.109061 123.110512 
L 171.128599 123.110512 
L 171.135108 122.077268 
L 171.521321 122.077268 
L 171.559487 120.527402 
L 171.70504 120.527402 
L 171.70504 120.01078 
L 171.974021 120.01078 
L 172.017428 117.944292 
L 172.196141 117.944292 
L 172.196141 116.911048 
L 172.572326 116.911048 
L 172.64423 115.877804 
L 172.858222 115.877804 
L 172.858222 114.84456 
L 173.290207 114.84456 
L 173.34779 113.811316 
L 173.598975 113.811316 
L 173.598975 113.294694 
L 173.74576 113.294694 
L 173.824301 111.744828 
L 174.272064 111.744828 
L 174.37549 110.711584 
L 174.483716 110.711584 
L 174.483716 110.194961 
L 174.612729 110.194961 
L 174.612729 109.678339 
L 174.852144 109.678339 
L 174.852144 109.161717 
L 175.663179 109.161717 
L 175.663179 108.645095 
L 176.03305 108.645095 
L 176.03305 108.128473 
L 176.151382 108.128473 
L 176.215153 106.061985 
L 176.569085 106.061985 
L 176.569085 105.545363 
L 176.840649 105.545363 
L 176.840649 103.995497 
L 177.005377 103.995497 
L 177.005377 103.478875 
L 177.412962 103.478875 
L 177.412962 102.445631 
L 178.293034 102.445631 
L 178.293034 101.412387 
L 178.617015 101.412387 
L 178.617015 100.895765 
L 179.044229 100.895765 
L 179.044229 100.379143 
L 179.156725 100.379143 
L 179.156725 99.862521 
L 179.272645 99.862521 
L 179.272645 99.345899 
L 179.412401 99.345899 
L 179.412401 98.312655 
L 179.801206 98.312655 
L 179.801206 97.796033 
L 180.326254 97.796033 
L 180.384513 95.729545 
L 180.994406 95.729545 
L 180.994406 95.212923 
L 181.106479 95.212923 
L 181.106479 94.179679 
L 181.728614 94.179679 
L 181.728614 93.663057 
L 182.042348 93.663057 
L 182.042348 93.146435 
L 182.537264 93.146435 
L 182.537264 92.629813 
L 182.823705 92.629813 
L 182.823705 92.113191 
L 183.27135 92.113191 
L 183.27135 91.079947 
L 183.393003 91.079947 
L 183.393003 90.563325 
L 183.526848 90.563325 
L 183.526848 89.530081 
L 183.995483 89.530081 
L 183.995483 89.013459 
L 184.259642 89.013459 
L 184.259642 88.496837 
L 184.396467 88.496837 
L 184.396467 87.980215 
L 184.909463 87.980215 
L 184.909463 86.946971 
L 185.092144 86.946971 
L 185.092144 86.430349 
L 185.337747 86.430349 
L 185.337747 85.397105 
L 186.879737 85.397105 
L 186.879737 84.880483 
L 188.853219 84.880483 
L 188.853219 84.363861 
L 189.512004 84.363861 
L 189.512004 83.330617 
L 190.192212 83.330617 
L 190.192212 82.813995 
L 190.815056 82.813995 
L 190.815056 82.297373 
L 191.185382 82.297373 
L 191.185382 81.780751 
L 192.154361 81.780751 
L 192.154361 81.264129 
L 193.025767 81.264129 
L 193.025767 80.747507 
L 193.417076 80.747507 
L 193.417076 80.230885 
L 194.235717 80.230885 
L 194.317689 78.681019 
L 194.732428 78.681019 
L 194.732428 78.164397 
L 195.975389 78.164397 
L 195.975389 77.647775 
L 196.59799 77.647775 
L 196.59799 77.131153 
L 197.369792 77.131153 
L 197.369792 76.614531 
L 197.519042 76.614531 
L 197.519042 76.097908 
L 198.212867 76.097908 
L 198.212867 75.581286 
L 198.993332 75.581286 
L 198.993332 75.064664 
L 200.179329 75.064664 
L 200.284038 72.481554 
L 200.480302 72.481554 
L 200.480302 71.964932 
L 200.855385 71.964932 
L 200.855385 71.44831 
L 201.528181 71.44831 
L 201.609935 69.898444 
L 202.75351 69.898444 
L 202.817708 68.8652 
L 203.589673 68.8652 
L 203.664645 66.798712 
L 203.985247 66.798712 
L 203.985247 65.765468 
L 204.81539 65.765468 
L 204.81539 64.732224 
L 205.269007 64.732224 
L 205.358364 63.69898 
L 206.271955 63.69898 
L 206.364602 61.632492 
L 207.075052 61.632492 
L 207.075052 60.599248 
L 208.685777 60.599248 
L 208.685777 60.082626 
L 209.03089 60.082626 
L 209.03089 59.049382 
L 209.659601 59.049382 
L 209.659601 58.016138 
L 210.343964 58.016138 
L 210.343964 57.499516 
L 211.877231 57.499516 
L 211.949618 55.94965 
L 212.054029 55.94965 
L 212.160454 54.399784 
L 212.18925 54.399784 
L 212.18925 53.883162 
L 212.572886 53.883162 
L 212.667362 52.333296 
L 212.765141 52.333296 
L 212.765141 51.816674 
L 213.069009 51.816674 
L 213.069009 51.300052 
L 213.444765 51.300052 
L 213.527474 50.266808 
L 213.718185 50.266808 
L 213.718185 49.750186 
L 213.871206 49.750186 
L 213.871206 49.233564 
L 214.000488 49.233564 
L 214.000488 48.716942 
L 214.124148 48.716942 
L 214.124148 48.20032 
L 214.863861 48.20032 
L 214.863861 47.683698 
L 216.661519 47.683698 
L 216.661519 47.167076 
L 217.165516 47.167076 
L 217.165516 46.650454 
L 217.41277 46.650454 
L 217.41277 46.133832 
L 218.876672 46.133832 
L 218.876672 45.61721 
L 219.291018 45.61721 
L 219.291018 45.100588 
L 219.716154 45.100588 
L 219.716154 44.583966 
L 220.387006 44.583966 
L 220.387006 44.067344 
L 222.316244 44.067344 
L 222.404328 42.517478 
L 223.469889 42.517478 
L 223.469889 42.000855 
L 223.640546 42.000855 
L 223.673932 40.967611 
L 223.770983 40.967611 
L 223.781241 39.934367 
L 224.663199 39.934367 
L 224.663199 39.417745 
L 225.144042 39.417745 
L 225.144042 38.901123 
L 225.869881 38.901123 
L 225.869881 38.384501 
L 229.976029 38.384501 
L 229.976029 37.867879 
L 230.54307 37.867879 
L 230.651837 36.834635 
L 232.1359 36.834635 
L 232.1359 36.318013 
L 233.194983 36.318013 
L 233.194983 35.801391 
L 235.135085 35.801391 
L 235.135085 35.284769 
L 235.752746 35.284769 
L 235.752746 34.768147 
L 358.8 34.768147 
L 358.8 34.768147 
" style="fill:none;stroke:#000080;stroke-linecap:square;stroke-width:1.5;"/>
   </g>
   <g id="line2d_25">
    <defs>
     <path d="M 0 6 
C 1.591219 6 3.117479 5.367802 4.242641 4.242641 
C 5.367802 3.117479 6 1.591219 6 0 
C 6 -1.591219 5.367802 -3.117479 4.242641 -4.242641 
C 3.117479 -5.367802 1.591219 -6 0 -6 
C -1.591219 -6 -3.117479 -5.367802 -4.242641 -4.242641 
C -5.367802 -3.117479 -6 -1.591219 -6 0 
C -6 1.591219 -5.367802 3.117479 -4.242641 4.242641 
C -3.117479 5.367802 -1.591219 6 0 6 
z
" id="m38b22983b3" style="stroke:#000080;stroke-width:1.5;"/>
    </defs>
    <g>
     <use style="fill:none;stroke:#000080;stroke-width:1.5;" x="96.442257" xlink:href="#m38b22983b3" y="274.997384"/>
     <use style="fill:none;stroke:#000080;stroke-width:1.5;" x="144.25357" xlink:href="#m38b22983b3" y="206.286656"/>
     <use style="fill:none;stroke:#000080;stroke-width:1.5;" x="194.317689" xlink:href="#m38b22983b3" y="79.714263"/>
     <use style="fill:none;stroke:#000080;stroke-width:1.5;" x="235.752746" xlink:href="#m38b22983b3" y="35.284769"/>
     <use style="fill:none;stroke:#000080;stroke-width:1.5;" x="235.752746" xlink:href="#m38b22983b3" y="34.768147"/>
     <use style="fill:none;stroke:#000080;stroke-width:1.5;" x="358.8" xlink:href="#m38b22983b3" y="34.768147"/>
    </g>
   </g>
   <g id="line2d_26"/>
   <g id="line2d_27">
    <path clip-path="url(#p0688e6983c)" d="M 210.371496 57.499516 
" style="fill:none;stroke:#000080;stroke-linecap:square;stroke-width:1.5;"/>
    <defs>
     <path d="M -12 12 
L 12 -12 
M -12 -12 
L 12 12 
" id="mc903e0f1d2" style="stroke:#000080;stroke-width:3;"/>
    </defs>
    <g clip-path="url(#p0688e6983c)">
     <use style="fill:#000080;stroke:#000080;stroke-width:3;" x="210.371496" xlink:href="#mc903e0f1d2" y="57.499516"/>
    </g>
   </g>
   <g id="line2d_28">
    <defs>
     <path d="M 0 1.5 
C 0.397805 1.5 0.77937 1.341951 1.06066 1.06066 
C 1.341951 0.77937 1.5 0.397805 1.5 0 
C 1.5 -0.397805 1.341951 -0.77937 1.06066 -1.06066 
C 0.77937 -1.341951 0.397805 -1.5 0 -1.5 
C -0.397805 -1.5 -0.77937 -1.341951 -1.06066 -1.06066 
C -1.341951 -0.77937 -1.5 -0.397805 -1.5 0 
C -1.5 0.397805 -1.341951 0.77937 -1.06066 1.06066 
C -0.77937 1.341951 -0.397805 1.5 0 1.5 
z
" id="m060f545947" style="stroke:#ff00ff;"/>
    </defs>
    <g>
     <use style="fill:#ff00ff;stroke:#ff00ff;" x="201.795745" xlink:href="#m060f545947" y="34.768147"/>
     <use style="fill:#ff00ff;stroke:#ff00ff;" x="201.795745" xlink:href="#m060f545947" y="34.768147"/>
    </g>
   </g>
   <g id="line2d_29">
    <path d="M 29.657143 298.245375 
L 29.657143 294.112399 
L 61.672509 294.112399 
L 61.672509 293.079155 
L 76.812125 293.079155 
L 76.812125 292.562533 
L 81.30264 292.562533 
L 81.30264 292.045911 
L 83.185234 292.045911 
L 83.185234 291.012667 
L 86.442977 291.012667 
L 86.442977 288.946179 
L 87.873189 288.946179 
L 87.873189 288.429557 
L 89.197359 288.429557 
L 89.197359 283.779959 
L 90.430132 283.779959 
L 90.430132 282.230093 
L 93.687874 282.230093 
L 93.687874 281.713471 
L 94.653954 281.713471 
L 94.653954 280.680226 
L 95.570468 280.680226 
L 95.570468 273.96414 
L 96.442257 273.96414 
L 96.442257 273.447518 
L 97.273482 273.447518 
L 97.273482 272.930896 
L 98.067751 272.930896 
L 98.067751 272.414274 
L 98.828211 272.414274 
L 98.828211 271.897652 
L 99.557623 271.897652 
L 99.557623 270.864408 
L 100.258423 270.864408 
L 100.258423 266.731432 
L 100.932772 266.731432 
L 100.932772 265.698188 
L 101.582593 265.698188 
L 101.582593 265.181566 
L 103.401258 265.181566 
L 103.401258 264.148322 
L 103.968548 264.148322 
L 103.968548 262.081834 
L 105.051795 262.081834 
L 105.051795 259.498724 
L 106.073108 259.498724 
L 106.073108 258.982102 
L 106.562676 258.982102 
L 106.562676 258.46548 
L 107.503321 258.46548 
L 107.503321 257.948858 
L 108.827491 257.948858 
L 108.827491 255.88237 
L 109.247936 255.88237 
L 109.247936 255.365748 
L 109.658716 255.365748 
L 109.658716 254.332504 
L 110.452985 254.332504 
L 110.452985 253.815882 
L 110.83726 253.815882 
L 110.83726 252.266016 
L 112.643657 252.266016 
L 112.643657 251.749394 
L 112.984013 251.749394 
L 112.984013 250.71615 
L 114.594843 250.71615 
L 114.594843 249.682906 
L 115.2006 249.682906 
L 115.2006 249.166284 
L 115.786492 249.166284 
L 115.786492 248.649662 
L 116.903613 248.649662 
L 116.903613 248.13304 
L 117.437029 248.13304 
L 117.437029 247.616418 
L 118.704803 247.616418 
L 118.704803 247.099796 
L 119.888555 247.099796 
L 119.888555 246.583173 
L 121.212725 246.583173 
L 121.212725 245.549929 
L 122.642937 245.549929 
L 122.642937 244.000063 
L 123.783843 244.000063 
L 123.783843 243.483441 
L 124.328091 243.483441 
L 124.328091 242.450197 
L 125.028891 242.450197 
L 125.028891 241.416953 
L 125.537024 241.416953 
L 125.537024 240.383709 
L 126.031105 240.383709 
L 126.031105 239.867087 
L 126.980077 239.867087 
L 126.980077 239.350465 
L 127.285522 239.350465 
L 127.285522 238.317221 
L 128.171726 238.317221 
L 128.171726 237.800599 
L 128.457622 237.800599 
L 128.457622 237.283977 
L 128.739016 237.283977 
L 128.739016 236.250733 
L 129.016046 236.250733 
L 129.016046 235.734111 
L 129.822263 235.734111 
L 129.822263 234.184245 
L 130.018259 234.184245 
L 130.018259 233.151001 
L 130.530642 233.151001 
L 130.530642 232.634379 
L 130.71906 232.634379 
L 130.71906 232.117757 
L 131.02874 232.117757 
L 131.02874 231.601135 
L 131.393408 231.601135 
L 131.393408 231.084513 
L 131.513329 231.084513 
L 131.513329 230.051269 
L 131.63245 230.051269 
L 131.63245 229.534647 
L 131.750782 229.534647 
L 131.750782 229.018025 
L 132.557867 229.018025 
L 132.557867 228.501403 
L 132.781921 228.501403 
L 132.781921 227.984781 
L 133.058096 227.984781 
L 133.058096 227.468159 
L 133.221774 227.468159 
L 133.221774 226.951537 
L 133.861894 226.951537 
L 133.966387 224.368427 
L 134.070271 224.368427 
L 134.070271 223.851805 
L 134.276246 223.851805 
L 134.276246 223.335183 
L 135.028171 223.335183 
L 135.028171 222.818561 
L 135.416624 222.818561 
L 135.416624 222.301939 
L 135.560144 222.301939 
L 135.560144 221.268695 
L 135.749727 221.268695 
L 135.84377 219.718829 
L 136.215069 219.718829 
L 136.215069 219.202207 
L 136.623761 219.202207 
L 136.623761 218.685585 
L 136.802443 218.685585 
L 136.802443 218.168963 
L 136.979357 218.168963 
L 136.979357 217.652341 
L 137.198064 217.652341 
L 137.198064 217.135719 
L 137.328014 217.135719 
L 137.328014 216.102475 
L 137.457026 216.102475 
L 137.457026 215.585853 
L 137.627606 215.585853 
L 137.627606 214.552609 
L 137.796573 214.552609 
L 137.796573 214.035987 
L 138.047065 214.035987 
L 138.047065 213.519365 
L 138.212129 213.519365 
L 138.212129 213.002743 
L 138.537753 213.002743 
L 138.537753 211.969498 
L 139.015326 211.969498 
L 139.015326 210.936254 
L 139.132751 210.936254 
L 139.132751 210.419632 
L 139.859042 210.419632 
L 139.859042 209.386388 
L 140.229763 209.386388 
L 140.266416 207.3199 
L 140.484766 207.3199 
L 140.484766 206.286656 
L 141.159114 206.286656 
L 141.22864 204.73679 
L 141.435609 204.73679 
L 141.435609 204.220168 
L 141.606271 204.220168 
L 141.606271 203.703546 
L 142.009328 203.703546 
L 142.009328 202.15368 
L 142.174622 202.15368 
L 142.174622 201.120436 
L 142.435951 201.120436 
L 142.435951 200.087192 
L 143.748536 200.087192 
L 143.748536 199.57057 
L 144.282838 199.57057 
L 144.282838 198.537326 
L 144.428464 198.537326 
L 144.428464 198.020704 
L 144.687635 198.020704 
L 144.687635 197.504082 
L 145.278138 197.504082 
L 145.333372 195.954216 
L 145.769201 195.954216 
L 145.876517 193.887728 
L 146.481383 193.887728 
L 146.533025 192.854484 
L 147.388844 192.854484 
L 147.462426 190.787996 
L 147.560066 190.787996 
L 147.560066 189.754752 
L 147.753761 189.754752 
L 147.753761 189.23813 
L 148.040421 189.23813 
L 148.134962 188.204886 
L 148.623255 188.204886 
L 148.623255 187.171642 
L 149.098559 187.171642 
L 149.16544 185.105154 
L 150.139715 185.105154 
L 150.139715 184.588532 
L 150.679328 184.588532 
L 150.720169 183.555288 
L 150.902809 183.555288 
L 150.902809 182.522044 
L 151.083601 182.522044 
L 151.083601 182.005422 
L 151.478929 182.005422 
L 151.478929 181.4888 
L 151.673361 181.4888 
L 151.673361 180.972178 
L 151.94206 180.972178 
L 151.94206 180.455556 
L 152.578269 180.455556 
L 152.578269 178.90569 
L 153.174832 178.90569 
L 153.174832 178.389067 
L 153.544349 178.389067 
L 153.648536 176.839201 
L 154.328014 176.839201 
L 154.328014 176.322579 
L 154.625547 176.322579 
L 154.625547 175.805957 
L 155.062759 175.805957 
L 155.062759 174.772713 
L 155.174385 174.772713 
L 155.174385 173.739469 
L 155.489528 173.739469 
L 155.489528 173.222847 
L 155.875797 173.222847 
L 155.875797 172.189603 
L 156.178911 172.189603 
L 156.253892 165.473517 
L 157.015599 165.473517 
L 157.015599 163.923651 
L 157.229421 163.923651 
L 157.229421 162.890407 
L 157.356496 162.890407 
L 157.356496 161.857163 
L 158.341818 161.857163 
L 158.341818 161.340541 
L 158.632363 161.340541 
L 158.632363 160.307297 
L 158.801854 160.307297 
L 158.866617 158.240809 
L 159.199652 158.240809 
L 159.199652 157.207565 
L 159.638386 157.207565 
L 159.638386 156.690943 
L 159.87212 156.690943 
L 159.87212 155.657699 
L 160.731101 155.657699 
L 160.731101 154.624455 
L 161.077169 154.624455 
L 161.08859 153.591211 
L 161.304213 153.591211 
L 161.304213 147.391747 
L 161.439067 147.391747 
L 161.439067 146.358503 
L 161.617304 146.358503 
L 161.617304 141.192282 
L 162.206057 141.192282 
L 162.238204 140.159038 
L 162.503866 140.159038 
L 162.503866 139.125794 
L 162.858942 139.125794 
L 162.858942 130.859842 
L 163.328377 130.859842 
L 163.328377 130.34322 
L 163.70708 130.34322 
L 163.815223 128.793354 
L 164.38435 128.793354 
L 164.38435 122.077268 
L 164.497919 122.077268 
L 164.497919 121.044024 
L 165.973068 121.044024 
L 165.973068 120.527402 
L 166.257447 120.527402 
L 166.257447 119.494158 
L 166.571005 119.494158 
L 166.571005 118.977536 
L 168.207454 118.977536 
L 168.207454 118.460914 
L 168.698886 118.460914 
L 168.698886 117.944292 
L 169.34338 117.944292 
L 169.34338 117.42767 
L 169.53655 117.42767 
L 169.53655 116.911048 
L 170.506 116.911048 
L 170.506 116.394426 
L 170.620217 116.394426 
L 170.620217 115.877804 
L 170.766951 115.877804 
L 170.766951 109.161717 
L 170.951977 109.161717 
L 170.951977 108.645095 
L 171.089501 108.645095 
L 171.089501 107.611851 
L 171.271234 107.611851 
L 171.348557 99.862521 
L 171.457529 99.862521 
L 171.457529 94.179679 
L 171.673499 94.179679 
L 171.673499 83.847239 
L 172.05455 83.847239 
L 172.05455 83.330617 
L 172.662161 83.330617 
L 172.662161 82.813995 
L 173.098854 82.813995 
L 173.098854 82.297373 
L 173.365029 82.297373 
L 173.365029 81.780751 
L 173.598975 81.780751 
L 173.678163 75.581286 
L 174.326573 75.581286 
L 174.326573 75.064664 
L 175.968625 75.064664 
L 175.968625 74.548042 
L 176.11695 74.548042 
L 176.11695 74.03142 
L 176.688701 74.03142 
L 176.688701 66.798712 
L 178.095788 66.798712 
L 178.095788 66.28209 
L 178.935226 66.28209 
L 178.935226 65.765468 
L 180.232642 65.765468 
L 180.232642 64.732224 
L 180.504317 64.732224 
L 180.527412 62.665736 
L 181.431228 62.665736 
L 181.431228 61.632492 
L 182.908077 61.632492 
L 182.908077 56.982894 
L 184.068201 56.982894 
L 184.15947 55.94965 
L 185.008522 55.94965 
L 185.014508 49.233564 
L 185.970032 49.233564 
L 185.970032 47.683698 
L 187.84014 47.683698 
L 187.84014 42.517478 
L 199.724057 42.517478 
L 199.724057 42.000855 
L 200.630782 42.000855 
L 200.630782 40.967611 
L 200.819588 40.967611 
L 200.819588 40.450989 
L 201.795745 40.450989 
L 201.795745 34.768147 
L 358.8 34.768147 
L 358.8 34.768147 
" style="fill:none;stroke:#ff00ff;stroke-linecap:square;stroke-width:1.5;"/>
   </g>
   <g id="line2d_30">
    <defs>
     <path d="M -0 8.485281 
L 5.091169 0 
L 0 -8.485281 
L -5.091169 -0 
z
" id="md829869ee2" style="stroke:#ff00ff;stroke-linejoin:miter;stroke-width:1.5;"/>
    </defs>
    <g>
     <use style="fill:none;stroke:#ff00ff;stroke-linejoin:miter;stroke-width:1.5;" x="106.073108" xlink:href="#md829869ee2" y="258.982102"/>
     <use style="fill:none;stroke:#ff00ff;stroke-linejoin:miter;stroke-width:1.5;" x="161.439067" xlink:href="#md829869ee2" y="146.358503"/>
     <use style="fill:none;stroke:#ff00ff;stroke-linejoin:miter;stroke-width:1.5;" x="187.84014" xlink:href="#md829869ee2" y="47.683698"/>
     <use style="fill:none;stroke:#ff00ff;stroke-linejoin:miter;stroke-width:1.5;" x="201.795745" xlink:href="#md829869ee2" y="34.768147"/>
     <use style="fill:none;stroke:#ff00ff;stroke-linejoin:miter;stroke-width:1.5;" x="201.795745" xlink:href="#md829869ee2" y="34.768147"/>
     <use style="fill:none;stroke:#ff00ff;stroke-linejoin:miter;stroke-width:1.5;" x="358.8" xlink:href="#md829869ee2" y="34.768147"/>
    </g>
   </g>
   <g id="line2d_31"/>
   <g id="line2d_32">
    <path d="M 358.8 34.768147 
L 390.48 292.97583 
" style="fill:none;stroke:#000080;stroke-linecap:square;stroke-width:1.5;"/>
    <g>
     <use style="fill:none;stroke:#000080;stroke-width:1.5;" x="358.8" xlink:href="#m38b22983b3" y="34.768147"/>
     <use style="fill:none;stroke:#000080;stroke-width:1.5;" x="390.48" xlink:href="#m38b22983b3" y="292.97583"/>
    </g>
   </g>
   <g id="line2d_33">
    <path d="M 358.8 34.768147 
L 390.48 40.037692 
" style="fill:none;stroke:#ff00ff;stroke-linecap:square;stroke-width:1.5;"/>
    <g>
     <use style="fill:none;stroke:#ff00ff;stroke-linejoin:miter;stroke-width:1.5;" x="358.8" xlink:href="#md829869ee2" y="34.768147"/>
     <use style="fill:none;stroke:#ff00ff;stroke-linejoin:miter;stroke-width:1.5;" x="390.48" xlink:href="#md829869ee2" y="40.037692"/>
    </g>
   </g>
   <g id="line2d_34">
    <path d="M 358.8 298.245375 
L 358.8 34.768147 
" style="fill:none;stroke:#000000;stroke-linecap:square;stroke-width:1.5;"/>
   </g>
   <g id="patch_3">
    <path d="M 70.8 298.245375 
L 70.8 32.133375 
" style="fill:none;stroke:#000000;stroke-linecap:square;stroke-linejoin:miter;stroke-width:0.8;"/>
   </g>
   <g id="patch_4">
    <path d="M 427.92 298.245375 
L 427.92 32.133375 
" style="fill:none;stroke:#000000;stroke-linecap:square;stroke-linejoin:miter;stroke-width:0.8;"/>
   </g>
   <g id="patch_5">
    <path d="M 70.8 298.245375 
L 427.92 298.245375 
" style="fill:none;stroke:#000000;stroke-linecap:square;stroke-linejoin:miter;stroke-width:0.8;"/>
   </g>
   <g id="patch_6">
    <path d="M 70.8 32.133375 
L 427.92 32.133375 
" style="fill:none;stroke:#000000;stroke-linecap:square;stroke-linejoin:miter;stroke-width:0.8;"/>
   </g>
   <g id="text_14">
    <!-- cobyla 0.0 -->
    <defs>
     <path d="M 48.6875 27.296875 
Q 48.6875 37.203125 44.609375 42.84375 
Q 40.53125 48.484375 33.40625 48.484375 
Q 26.265625 48.484375 22.1875 42.84375 
Q 18.109375 37.203125 18.109375 27.296875 
Q 18.109375 17.390625 22.1875 11.75 
Q 26.265625 6.109375 33.40625 6.109375 
Q 40.53125 6.109375 44.609375 11.75 
Q 48.6875 17.390625 48.6875 27.296875 
z
M 18.109375 46.390625 
Q 20.953125 51.265625 25.265625 53.625 
Q 29.59375 56 35.59375 56 
Q 45.5625 56 51.78125 48.09375 
Q 58.015625 40.1875 58.015625 27.296875 
Q 58.015625 14.40625 51.78125 6.484375 
Q 45.5625 -1.421875 35.59375 -1.421875 
Q 29.59375 -1.421875 25.265625 0.953125 
Q 20.953125 3.328125 18.109375 8.203125 
L 18.109375 0 
L 9.078125 0 
L 9.078125 75.984375 
L 18.109375 75.984375 
z
" id="DejaVuSans-62"/>
     <path d="M 32.171875 -5.078125 
Q 28.375 -14.84375 24.75 -17.8125 
Q 21.140625 -20.796875 15.09375 -20.796875 
L 7.90625 -20.796875 
L 7.90625 -13.28125 
L 13.1875 -13.28125 
Q 16.890625 -13.28125 18.9375 -11.515625 
Q 21 -9.765625 23.484375 -3.21875 
L 25.09375 0.875 
L 2.984375 54.6875 
L 12.5 54.6875 
L 29.59375 11.921875 
L 46.6875 54.6875 
L 56.203125 54.6875 
z
" id="DejaVuSans-79"/>
    </defs>
    <g transform="translate(396.24 297.114893)scale(0.15 -0.15)">
     <use xlink:href="#DejaVuSans-63"/>
     <use x="54.980469" xlink:href="#DejaVuSans-6f"/>
     <use x="116.162109" xlink:href="#DejaVuSans-62"/>
     <use x="179.638672" xlink:href="#DejaVuSans-79"/>
     <use x="238.818359" xlink:href="#DejaVuSans-6c"/>
     <use x="266.601562" xlink:href="#DejaVuSans-61"/>
     <use x="327.880859" xlink:href="#DejaVuSans-20"/>
     <use x="359.667969" xlink:href="#DejaVuSans-30"/>
     <use x="423.291016" xlink:href="#DejaVuSans-2e"/>
     <use x="455.078125" xlink:href="#DejaVuSans-30"/>
    </g>
   </g>
   <g id="text_15">
    <!-- cobyla 1e- -->
    <g transform="translate(396.24 44.176754)scale(0.15 -0.15)">
     <use xlink:href="#DejaVuSans-63"/>
     <use x="54.980469" xlink:href="#DejaVuSans-6f"/>
     <use x="116.162109" xlink:href="#DejaVuSans-62"/>
     <use x="179.638672" xlink:href="#DejaVuSans-79"/>
     <use x="238.818359" xlink:href="#DejaVuSans-6c"/>
     <use x="266.601562" xlink:href="#DejaVuSans-61"/>
     <use x="327.880859" xlink:href="#DejaVuSans-20"/>
     <use x="359.667969" xlink:href="#DejaVuSans-31"/>
     <use x="423.291016" xlink:href="#DejaVuSans-65"/>
     <use x="484.814453" xlink:href="#DejaVuSans-2d"/>
    </g>
   </g>
   <g id="text_16">
    <!-- bbob-constrained - f38, 10-D -->
    <defs>
     <path d="M 40.578125 39.3125 
Q 47.65625 37.796875 51.625 33 
Q 55.609375 28.21875 55.609375 21.1875 
Q 55.609375 10.40625 48.1875 4.484375 
Q 40.765625 -1.421875 27.09375 -1.421875 
Q 22.515625 -1.421875 17.65625 -0.515625 
Q 12.796875 0.390625 7.625 2.203125 
L 7.625 11.71875 
Q 11.71875 9.328125 16.59375 8.109375 
Q 21.484375 6.890625 26.8125 6.890625 
Q 36.078125 6.890625 40.9375 10.546875 
Q 45.796875 14.203125 45.796875 21.1875 
Q 45.796875 27.640625 41.28125 31.265625 
Q 36.765625 34.90625 28.71875 34.90625 
L 20.21875 34.90625 
L 20.21875 43.015625 
L 29.109375 43.015625 
Q 36.375 43.015625 40.234375 45.921875 
Q 44.09375 48.828125 44.09375 54.296875 
Q 44.09375 59.90625 40.109375 62.90625 
Q 36.140625 65.921875 28.71875 65.921875 
Q 24.65625 65.921875 20.015625 65.03125 
Q 15.375 64.15625 9.8125 62.3125 
L 9.8125 71.09375 
Q 15.4375 72.65625 20.34375 73.4375 
Q 25.25 74.21875 29.59375 74.21875 
Q 40.828125 74.21875 47.359375 69.109375 
Q 53.90625 64.015625 53.90625 55.328125 
Q 53.90625 49.265625 50.4375 45.09375 
Q 46.96875 40.921875 40.578125 39.3125 
z
" id="DejaVuSans-33"/>
     <path d="M 11.71875 12.40625 
L 22.015625 12.40625 
L 22.015625 4 
L 14.015625 -11.625 
L 7.71875 -11.625 
L 11.71875 4 
z
" id="DejaVuSans-2c"/>
     <path d="M 19.671875 64.796875 
L 19.671875 8.109375 
L 31.59375 8.109375 
Q 46.6875 8.109375 53.6875 14.9375 
Q 60.6875 21.78125 60.6875 36.53125 
Q 60.6875 51.171875 53.6875 57.984375 
Q 46.6875 64.796875 31.59375 64.796875 
z
M 9.8125 72.90625 
L 30.078125 72.90625 
Q 51.265625 72.90625 61.171875 64.09375 
Q 71.09375 55.28125 71.09375 36.53125 
Q 71.09375 17.671875 61.125 8.828125 
Q 51.171875 0 30.078125 0 
L 9.8125 0 
z
" id="DejaVuSans-44"/>
    </defs>
    <g transform="translate(74.3712 50.114612)scale(0.1666 -0.1666)">
     <use xlink:href="#DejaVuSans-62"/>
     <use x="63.476562" xlink:href="#DejaVuSans-62"/>
     <use x="126.953125" xlink:href="#DejaVuSans-6f"/>
     <use x="188.134766" xlink:href="#DejaVuSans-62"/>
     <use x="251.611328" xlink:href="#DejaVuSans-2d"/>
     <use x="287.695312" xlink:href="#DejaVuSans-63"/>
     <use x="342.675781" xlink:href="#DejaVuSans-6f"/>
     <use x="403.857422" xlink:href="#DejaVuSans-6e"/>
     <use x="467.236328" xlink:href="#DejaVuSans-73"/>
     <use x="519.335938" xlink:href="#DejaVuSans-74"/>
     <use x="558.544922" xlink:href="#DejaVuSans-72"/>
     <use x="599.658203" xlink:href="#DejaVuSans-61"/>
     <use x="660.9375" xlink:href="#DejaVuSans-69"/>
     <use x="688.720703" xlink:href="#DejaVuSans-6e"/>
     <use x="752.099609" xlink:href="#DejaVuSans-65"/>
     <use x="813.623047" xlink:href="#DejaVuSans-64"/>
     <use x="877.099609" xlink:href="#DejaVuSans-20"/>
     <use x="908.886719" xlink:href="#DejaVuSans-2d"/>
     <use x="944.970703" xlink:href="#DejaVuSans-20"/>
     <use x="976.757812" xlink:href="#DejaVuSans-66"/>
     <use x="1011.962891" xlink:href="#DejaVuSans-33"/>
     <use x="1075.585938" xlink:href="#DejaVuSans-38"/>
     <use x="1139.208984" xlink:href="#DejaVuSans-2c"/>
     <use x="1170.996094" xlink:href="#DejaVuSans-20"/>
     <use x="1202.783203" xlink:href="#DejaVuSans-31"/>
     <use x="1266.40625" xlink:href="#DejaVuSans-30"/>
     <use x="1330.029297" xlink:href="#DejaVuSans-2d"/>
     <use x="1366.113281" xlink:href="#DejaVuSans-44"/>
    </g>
    <!-- 51 targets in 100..1e-08 -->
    <defs>
     <path d="M 10.796875 72.90625 
L 49.515625 72.90625 
L 49.515625 64.59375 
L 19.828125 64.59375 
L 19.828125 46.734375 
Q 21.96875 47.46875 24.109375 47.828125 
Q 26.265625 48.1875 28.421875 48.1875 
Q 40.625 48.1875 47.75 41.5 
Q 54.890625 34.8125 54.890625 23.390625 
Q 54.890625 11.625 47.5625 5.09375 
Q 40.234375 -1.421875 26.90625 -1.421875 
Q 22.3125 -1.421875 17.546875 -0.640625 
Q 12.796875 0.140625 7.71875 1.703125 
L 7.71875 11.625 
Q 12.109375 9.234375 16.796875 8.0625 
Q 21.484375 6.890625 26.703125 6.890625 
Q 35.15625 6.890625 40.078125 11.328125 
Q 45.015625 15.765625 45.015625 23.390625 
Q 45.015625 31 40.078125 35.4375 
Q 35.15625 39.890625 26.703125 39.890625 
Q 22.75 39.890625 18.8125 39.015625 
Q 14.890625 38.140625 10.796875 36.28125 
z
" id="DejaVuSans-35"/>
    </defs>
    <g transform="translate(74.3712 68.770168)scale(0.1666 -0.1666)">
     <use xlink:href="#DejaVuSans-35"/>
     <use x="63.623047" xlink:href="#DejaVuSans-31"/>
     <use x="127.246094" xlink:href="#DejaVuSans-20"/>
     <use x="159.033203" xlink:href="#DejaVuSans-74"/>
     <use x="198.242188" xlink:href="#DejaVuSans-61"/>
     <use x="259.521484" xlink:href="#DejaVuSans-72"/>
     <use x="300.619141" xlink:href="#DejaVuSans-67"/>
     <use x="364.095703" xlink:href="#DejaVuSans-65"/>
     <use x="425.619141" xlink:href="#DejaVuSans-74"/>
     <use x="464.828125" xlink:href="#DejaVuSans-73"/>
     <use x="516.927734" xlink:href="#DejaVuSans-20"/>
     <use x="548.714844" xlink:href="#DejaVuSans-69"/>
     <use x="576.498047" xlink:href="#DejaVuSans-6e"/>
     <use x="639.876953" xlink:href="#DejaVuSans-20"/>
     <use x="671.664062" xlink:href="#DejaVuSans-31"/>
     <use x="735.287109" xlink:href="#DejaVuSans-30"/>
     <use x="798.910156" xlink:href="#DejaVuSans-30"/>
     <use x="862.533203" xlink:href="#DejaVuSans-2e"/>
     <use x="894.320312" xlink:href="#DejaVuSans-2e"/>
     <use x="926.107422" xlink:href="#DejaVuSans-31"/>
     <use x="989.730469" xlink:href="#DejaVuSans-65"/>
     <use x="1051.253906" xlink:href="#DejaVuSans-2d"/>
     <use x="1087.337891" xlink:href="#DejaVuSans-30"/>
     <use x="1150.960938" xlink:href="#DejaVuSans-38"/>
    </g>
    <!-- 15 instances -->
    <g transform="translate(74.3712 87.425723)scale(0.1666 -0.1666)">
     <use xlink:href="#DejaVuSans-31"/>
     <use x="63.623047" xlink:href="#DejaVuSans-35"/>
     <use x="127.246094" xlink:href="#DejaVuSans-20"/>
     <use x="159.033203" xlink:href="#DejaVuSans-69"/>
     <use x="186.816406" xlink:href="#DejaVuSans-6e"/>
     <use x="250.195312" xlink:href="#DejaVuSans-73"/>
     <use x="302.294922" xlink:href="#DejaVuSans-74"/>
     <use x="341.503906" xlink:href="#DejaVuSans-61"/>
     <use x="402.783203" xlink:href="#DejaVuSans-6e"/>
     <use x="466.162109" xlink:href="#DejaVuSans-63"/>
     <use x="521.142578" xlink:href="#DejaVuSans-65"/>
     <use x="582.666016" xlink:href="#DejaVuSans-73"/>
    </g>
   </g>
   <g id="text_17">
    <!-- v2.0.361 -->
    <g style="fill:#808080;" transform="translate(227.31625 293.504568)scale(0.1 -0.1)">
     <use xlink:href="#DejaVuSans-76"/>
     <use x="59.179688" xlink:href="#DejaVuSans-32"/>
     <use x="122.802734" xlink:href="#DejaVuSans-2e"/>
     <use x="154.589844" xlink:href="#DejaVuSans-30"/>
     <use x="218.212891" xlink:href="#DejaVuSans-2e"/>
     <use x="250" xlink:href="#DejaVuSans-33"/>
     <use x="313.623047" xlink:href="#DejaVuSans-36"/>
     <use x="377.246094" xlink:href="#DejaVuSans-31"/>
    </g>
   </g>
   <g id="text_18">
    <!-- 38 Different Powers with 2 constraints -->
    <defs>
     <path d="M 4.203125 54.6875 
L 13.1875 54.6875 
L 24.421875 12.015625 
L 35.59375 54.6875 
L 46.1875 54.6875 
L 57.421875 12.015625 
L 68.609375 54.6875 
L 77.59375 54.6875 
L 63.28125 0 
L 52.6875 0 
L 40.921875 44.828125 
L 29.109375 0 
L 18.5 0 
z
" id="DejaVuSans-77"/>
     <path d="M 54.890625 33.015625 
L 54.890625 0 
L 45.90625 0 
L 45.90625 32.71875 
Q 45.90625 40.484375 42.875 44.328125 
Q 39.84375 48.1875 33.796875 48.1875 
Q 26.515625 48.1875 22.3125 43.546875 
Q 18.109375 38.921875 18.109375 30.90625 
L 18.109375 0 
L 9.078125 0 
L 9.078125 75.984375 
L 18.109375 75.984375 
L 18.109375 46.1875 
Q 21.34375 51.125 25.703125 53.5625 
Q 30.078125 56 35.796875 56 
Q 45.21875 56 50.046875 50.171875 
Q 54.890625 44.34375 54.890625 33.015625 
z
" id="DejaVuSans-68"/>
    </defs>
    <g transform="translate(19.26375 26.133375)scale(0.24 -0.24)">
     <use xlink:href="#DejaVuSans-33"/>
     <use x="63.623047" xlink:href="#DejaVuSans-38"/>
     <use x="127.246094" xlink:href="#DejaVuSans-20"/>
     <use x="159.033203" xlink:href="#DejaVuSans-44"/>
     <use x="236.035156" xlink:href="#DejaVuSans-69"/>
     <use x="263.818359" xlink:href="#DejaVuSans-66"/>
     <use x="299.023438" xlink:href="#DejaVuSans-66"/>
     <use x="334.228516" xlink:href="#DejaVuSans-65"/>
     <use x="395.751953" xlink:href="#DejaVuSans-72"/>
     <use x="436.833984" xlink:href="#DejaVuSans-65"/>
     <use x="498.357422" xlink:href="#DejaVuSans-6e"/>
     <use x="561.736328" xlink:href="#DejaVuSans-74"/>
     <use x="600.945312" xlink:href="#DejaVuSans-20"/>
     <use x="632.732422" xlink:href="#DejaVuSans-50"/>
     <use x="692.988281" xlink:href="#DejaVuSans-6f"/>
     <use x="754.169922" xlink:href="#DejaVuSans-77"/>
     <use x="835.957031" xlink:href="#DejaVuSans-65"/>
     <use x="897.480469" xlink:href="#DejaVuSans-72"/>
     <use x="938.59375" xlink:href="#DejaVuSans-73"/>
     <use x="990.693359" xlink:href="#DejaVuSans-20"/>
     <use x="1022.480469" xlink:href="#DejaVuSans-77"/>
     <use x="1104.267578" xlink:href="#DejaVuSans-69"/>
     <use x="1132.050781" xlink:href="#DejaVuSans-74"/>
     <use x="1171.259766" xlink:href="#DejaVuSans-68"/>
     <use x="1234.638672" xlink:href="#DejaVuSans-20"/>
     <use x="1266.425781" xlink:href="#DejaVuSans-32"/>
     <use x="1330.048828" xlink:href="#DejaVuSans-20"/>
     <use x="1361.835938" xlink:href="#DejaVuSans-63"/>
     <use x="1416.816406" xlink:href="#DejaVuSans-6f"/>
     <use x="1477.998047" xlink:href="#DejaVuSans-6e"/>
     <use x="1541.376953" xlink:href="#DejaVuSans-73"/>
     <use x="1593.476562" xlink:href="#DejaVuSans-74"/>
     <use x="1632.685547" xlink:href="#DejaVuSans-72"/>
     <use x="1673.798828" xlink:href="#DejaVuSans-61"/>
     <use x="1735.078125" xlink:href="#DejaVuSans-69"/>
     <use x="1762.861328" xlink:href="#DejaVuSans-6e"/>
     <use x="1826.240234" xlink:href="#DejaVuSans-74"/>
     <use x="1865.449219" xlink:href="#DejaVuSans-73"/>
    </g>
   </g>
  </g>
 </g>
 <defs>
  <clipPath id="p0688e6983c">
   <rect height="266.112" width="357.12" x="70.8" y="32.133375"/>
  </clipPath>
 </defs>
</svg>
