<?xml version="1.0" encoding="utf-8" standalone="no"?>
<!DOCTYPE svg PUBLIC "-//W3C//DTD SVG 1.1//EN"
  "http://www.w3.org/Graphics/SVG/1.1/DTD/svg11.dtd">
<!-- Created with matplotlib (http://matplotlib.org/) -->
<svg height="345pt" version="1.1" viewBox="0 0 460 345" width="460pt" xmlns="http://www.w3.org/2000/svg" xmlns:xlink="http://www.w3.org/1999/xlink">
 <defs>
  <style type="text/css">
*{stroke-linecap:butt;stroke-linejoin:round;}
  </style>
 </defs>
 <g id="figure_1">
  <g id="patch_1">
   <path d="M 0 345.6 
L 460.8 345.6 
L 460.8 0 
L 0 0 
z
" style="fill:#ffffff;"/>
  </g>
  <g id="axes_1">
   <g id="patch_2">
    <path d="M 56.84 294.16 
L 399.984 294.16 
L 399.984 24.84 
L 56.84 24.84 
z
" style="fill:#ffffff;"/>
   </g>
   <g id="matplotlib.axis_1">
    <g id="xtick_1">
     <g id="line2d_1">
      <path clip-path="url(#p833003d310)" d="M 56.84 294.16 
L 56.84 24.84 
" style="fill:none;stroke:#b0b0b0;stroke-linecap:square;stroke-width:0.8;"/>
     </g>
     <g id="line2d_2">
      <defs>
       <path d="M 0 0 
L 0 3.5 
" id="m64cdccaa93" style="stroke:#000000;stroke-width:0.8;"/>
      </defs>
      <g>
       <use style="stroke:#000000;stroke-width:0.8;" x="56.84" xlink:href="#m64cdccaa93" y="294.16"/>
      </g>
     </g>
     <g id="text_1">
      <!-- 0 -->
      <defs>
       <path d="M 31.78125 66.40625 
Q 24.171875 66.40625 20.328125 58.90625 
Q 16.5 51.421875 16.5 36.375 
Q 16.5 21.390625 20.328125 13.890625 
Q 24.171875 6.390625 31.78125 6.390625 
Q 39.453125 6.390625 43.28125 13.890625 
Q 47.125 21.390625 47.125 36.375 
Q 47.125 51.421875 43.28125 58.90625 
Q 39.453125 66.40625 31.78125 66.40625 
z
M 31.78125 74.21875 
Q 44.046875 74.21875 50.515625 64.515625 
Q 56.984375 54.828125 56.984375 36.375 
Q 56.984375 17.96875 50.515625 8.265625 
Q 44.046875 -1.421875 31.78125 -1.421875 
Q 19.53125 -1.421875 13.0625 8.265625 
Q 6.59375 17.96875 6.59375 36.375 
Q 6.59375 54.828125 13.0625 64.515625 
Q 19.53125 74.21875 31.78125 74.21875 
z
" id="DejaVuSans-30"/>
      </defs>
      <g transform="translate(50.4775 316.356875)scale(0.2 -0.2)">
       <use xlink:href="#DejaVuSans-30"/>
      </g>
     </g>
    </g>
    <g id="xtick_2">
     <g id="line2d_3">
      <path clip-path="url(#p833003d310)" d="M 135.905438 294.16 
L 135.905438 24.84 
" style="fill:none;stroke:#b0b0b0;stroke-linecap:square;stroke-width:0.8;"/>
     </g>
     <g id="line2d_4">
      <g>
       <use style="stroke:#000000;stroke-width:0.8;" x="135.905438" xlink:href="#m64cdccaa93" y="294.16"/>
      </g>
     </g>
     <g id="text_2">
      <!-- 2 -->
      <defs>
       <path d="M 19.1875 8.296875 
L 53.609375 8.296875 
L 53.609375 0 
L 7.328125 0 
L 7.328125 8.296875 
Q 12.9375 14.109375 22.625 23.890625 
Q 32.328125 33.6875 34.8125 36.53125 
Q 39.546875 41.84375 41.421875 45.53125 
Q 43.3125 49.21875 43.3125 52.78125 
Q 43.3125 58.59375 39.234375 62.25 
Q 35.15625 65.921875 28.609375 65.921875 
Q 23.96875 65.921875 18.8125 64.3125 
Q 13.671875 62.703125 7.8125 59.421875 
L 7.8125 69.390625 
Q 13.765625 71.78125 18.9375 73 
Q 24.125 74.21875 28.421875 74.21875 
Q 39.75 74.21875 46.484375 68.546875 
Q 53.21875 62.890625 53.21875 53.421875 
Q 53.21875 48.921875 51.53125 44.890625 
Q 49.859375 40.875 45.40625 35.40625 
Q 44.1875 33.984375 37.640625 27.21875 
Q 31.109375 20.453125 19.1875 8.296875 
z
" id="DejaVuSans-32"/>
      </defs>
      <g transform="translate(129.542938 316.356875)scale(0.2 -0.2)">
       <use xlink:href="#DejaVuSans-32"/>
      </g>
     </g>
    </g>
    <g id="xtick_3">
     <g id="line2d_5">
      <path clip-path="url(#p833003d310)" d="M 214.970876 294.16 
L 214.970876 24.84 
" style="fill:none;stroke:#b0b0b0;stroke-linecap:square;stroke-width:0.8;"/>
     </g>
     <g id="line2d_6">
      <g>
       <use style="stroke:#000000;stroke-width:0.8;" x="214.970876" xlink:href="#m64cdccaa93" y="294.16"/>
      </g>
     </g>
     <g id="text_3">
      <!-- 4 -->
      <defs>
       <path d="M 37.796875 64.3125 
L 12.890625 25.390625 
L 37.796875 25.390625 
z
M 35.203125 72.90625 
L 47.609375 72.90625 
L 47.609375 25.390625 
L 58.015625 25.390625 
L 58.015625 17.1875 
L 47.609375 17.1875 
L 47.609375 0 
L 37.796875 0 
L 37.796875 17.1875 
L 4.890625 17.1875 
L 4.890625 26.703125 
z
" id="DejaVuSans-34"/>
      </defs>
      <g transform="translate(208.608376 316.356875)scale(0.2 -0.2)">
       <use xlink:href="#DejaVuSans-34"/>
      </g>
     </g>
    </g>
    <g id="xtick_4">
     <g id="line2d_7">
      <path clip-path="url(#p833003d310)" d="M 294.036313 294.16 
L 294.036313 24.84 
" style="fill:none;stroke:#b0b0b0;stroke-linecap:square;stroke-width:0.8;"/>
     </g>
     <g id="line2d_8">
      <g>
       <use style="stroke:#000000;stroke-width:0.8;" x="294.036313" xlink:href="#m64cdccaa93" y="294.16"/>
      </g>
     </g>
     <g id="text_4">
      <!-- 6 -->
      <defs>
       <path d="M 33.015625 40.375 
Q 26.375 40.375 22.484375 35.828125 
Q 18.609375 31.296875 18.609375 23.390625 
Q 18.609375 15.53125 22.484375 10.953125 
Q 26.375 6.390625 33.015625 6.390625 
Q 39.65625 6.390625 43.53125 10.953125 
Q 47.40625 15.53125 47.40625 23.390625 
Q 47.40625 31.296875 43.53125 35.828125 
Q 39.65625 40.375 33.015625 40.375 
z
M 52.59375 71.296875 
L 52.59375 62.3125 
Q 48.875 64.0625 45.09375 64.984375 
Q 41.3125 65.921875 37.59375 65.921875 
Q 27.828125 65.921875 22.671875 59.328125 
Q 17.53125 52.734375 16.796875 39.40625 
Q 19.671875 43.65625 24.015625 45.921875 
Q 28.375 48.1875 33.59375 48.1875 
Q 44.578125 48.1875 50.953125 41.515625 
Q 57.328125 34.859375 57.328125 23.390625 
Q 57.328125 12.15625 50.6875 5.359375 
Q 44.046875 -1.421875 33.015625 -1.421875 
Q 20.359375 -1.421875 13.671875 8.265625 
Q 6.984375 17.96875 6.984375 36.375 
Q 6.984375 53.65625 15.1875 63.9375 
Q 23.390625 74.21875 37.203125 74.21875 
Q 40.921875 74.21875 44.703125 73.484375 
Q 48.484375 72.75 52.59375 71.296875 
z
" id="DejaVuSans-36"/>
      </defs>
      <g transform="translate(287.673813 316.356875)scale(0.2 -0.2)">
       <use xlink:href="#DejaVuSans-36"/>
      </g>
     </g>
    </g>
    <g id="xtick_5">
     <g id="line2d_9">
      <path clip-path="url(#p833003d310)" d="M 373.101751 294.16 
L 373.101751 24.84 
" style="fill:none;stroke:#b0b0b0;stroke-linecap:square;stroke-width:0.8;"/>
     </g>
     <g id="line2d_10">
      <g>
       <use style="stroke:#000000;stroke-width:0.8;" x="373.101751" xlink:href="#m64cdccaa93" y="294.16"/>
      </g>
     </g>
     <g id="text_5">
      <!-- 8 -->
      <defs>
       <path d="M 31.78125 34.625 
Q 24.75 34.625 20.71875 30.859375 
Q 16.703125 27.09375 16.703125 20.515625 
Q 16.703125 13.921875 20.71875 10.15625 
Q 24.75 6.390625 31.78125 6.390625 
Q 38.8125 6.390625 42.859375 10.171875 
Q 46.921875 13.96875 46.921875 20.515625 
Q 46.921875 27.09375 42.890625 30.859375 
Q 38.875 34.625 31.78125 34.625 
z
M 21.921875 38.8125 
Q 15.578125 40.375 12.03125 44.71875 
Q 8.5 49.078125 8.5 55.328125 
Q 8.5 64.0625 14.71875 69.140625 
Q 20.953125 74.21875 31.78125 74.21875 
Q 42.671875 74.21875 48.875 69.140625 
Q 55.078125 64.0625 55.078125 55.328125 
Q 55.078125 49.078125 51.53125 44.71875 
Q 48 40.375 41.703125 38.8125 
Q 48.828125 37.15625 52.796875 32.3125 
Q 56.78125 27.484375 56.78125 20.515625 
Q 56.78125 9.90625 50.3125 4.234375 
Q 43.84375 -1.421875 31.78125 -1.421875 
Q 19.734375 -1.421875 13.25 4.234375 
Q 6.78125 9.90625 6.78125 20.515625 
Q 6.78125 27.484375 10.78125 32.3125 
Q 14.796875 37.15625 21.921875 38.8125 
z
M 18.3125 54.390625 
Q 18.3125 48.734375 21.84375 45.5625 
Q 25.390625 42.390625 31.78125 42.390625 
Q 38.140625 42.390625 41.71875 45.5625 
Q 45.3125 48.734375 45.3125 54.390625 
Q 45.3125 60.0625 41.71875 63.234375 
Q 38.140625 66.40625 31.78125 66.40625 
Q 25.390625 66.40625 21.84375 63.234375 
Q 18.3125 60.0625 18.3125 54.390625 
z
" id="DejaVuSans-38"/>
      </defs>
      <g transform="translate(366.739251 316.356875)scale(0.2 -0.2)">
       <use xlink:href="#DejaVuSans-38"/>
      </g>
     </g>
    </g>
    <g id="text_6">
     <!-- log10(# (f+g)-evals / dimension) -->
     <defs>
      <path d="M 9.421875 75.984375 
L 18.40625 75.984375 
L 18.40625 0 
L 9.421875 0 
z
" id="DejaVuSans-6c"/>
      <path d="M 30.609375 48.390625 
Q 23.390625 48.390625 19.1875 42.75 
Q 14.984375 37.109375 14.984375 27.296875 
Q 14.984375 17.484375 19.15625 11.84375 
Q 23.34375 6.203125 30.609375 6.203125 
Q 37.796875 6.203125 41.984375 11.859375 
Q 46.1875 17.53125 46.1875 27.296875 
Q 46.1875 37.015625 41.984375 42.703125 
Q 37.796875 48.390625 30.609375 48.390625 
z
M 30.609375 56 
Q 42.328125 56 49.015625 48.375 
Q 55.71875 40.765625 55.71875 27.296875 
Q 55.71875 13.875 49.015625 6.21875 
Q 42.328125 -1.421875 30.609375 -1.421875 
Q 18.84375 -1.421875 12.171875 6.21875 
Q 5.515625 13.875 5.515625 27.296875 
Q 5.515625 40.765625 12.171875 48.375 
Q 18.84375 56 30.609375 56 
z
" id="DejaVuSans-6f"/>
      <path d="M 45.40625 27.984375 
Q 45.40625 37.75 41.375 43.109375 
Q 37.359375 48.484375 30.078125 48.484375 
Q 22.859375 48.484375 18.828125 43.109375 
Q 14.796875 37.75 14.796875 27.984375 
Q 14.796875 18.265625 18.828125 12.890625 
Q 22.859375 7.515625 30.078125 7.515625 
Q 37.359375 7.515625 41.375 12.890625 
Q 45.40625 18.265625 45.40625 27.984375 
z
M 54.390625 6.78125 
Q 54.390625 -7.171875 48.1875 -13.984375 
Q 42 -20.796875 29.203125 -20.796875 
Q 24.46875 -20.796875 20.265625 -20.09375 
Q 16.0625 -19.390625 12.109375 -17.921875 
L 12.109375 -9.1875 
Q 16.0625 -11.328125 19.921875 -12.34375 
Q 23.78125 -13.375 27.78125 -13.375 
Q 36.625 -13.375 41.015625 -8.765625 
Q 45.40625 -4.15625 45.40625 5.171875 
L 45.40625 9.625 
Q 42.625 4.78125 38.28125 2.390625 
Q 33.9375 0 27.875 0 
Q 17.828125 0 11.671875 7.65625 
Q 5.515625 15.328125 5.515625 27.984375 
Q 5.515625 40.671875 11.671875 48.328125 
Q 17.828125 56 27.875 56 
Q 33.9375 56 38.28125 53.609375 
Q 42.625 51.21875 45.40625 46.390625 
L 45.40625 54.6875 
L 54.390625 54.6875 
z
" id="DejaVuSans-67"/>
      <path d="M 12.40625 8.296875 
L 28.515625 8.296875 
L 28.515625 63.921875 
L 10.984375 60.40625 
L 10.984375 69.390625 
L 28.421875 72.90625 
L 38.28125 72.90625 
L 38.28125 8.296875 
L 54.390625 8.296875 
L 54.390625 0 
L 12.40625 0 
z
" id="DejaVuSans-31"/>
      <path d="M 31 75.875 
Q 24.46875 64.65625 21.28125 53.65625 
Q 18.109375 42.671875 18.109375 31.390625 
Q 18.109375 20.125 21.3125 9.0625 
Q 24.515625 -2 31 -13.1875 
L 23.1875 -13.1875 
Q 15.875 -1.703125 12.234375 9.375 
Q 8.59375 20.453125 8.59375 31.390625 
Q 8.59375 42.28125 12.203125 53.3125 
Q 15.828125 64.359375 23.1875 75.875 
z
" id="DejaVuSans-28"/>
      <path d="M 51.125 44 
L 36.921875 44 
L 32.8125 27.6875 
L 47.125 27.6875 
z
M 43.796875 71.78125 
L 38.71875 51.515625 
L 52.984375 51.515625 
L 58.109375 71.78125 
L 65.921875 71.78125 
L 60.890625 51.515625 
L 76.125 51.515625 
L 76.125 44 
L 58.984375 44 
L 54.984375 27.6875 
L 70.515625 27.6875 
L 70.515625 20.21875 
L 53.078125 20.21875 
L 48 0 
L 40.1875 0 
L 45.21875 20.21875 
L 30.90625 20.21875 
L 25.875 0 
L 18.015625 0 
L 23.09375 20.21875 
L 7.71875 20.21875 
L 7.71875 27.6875 
L 24.90625 27.6875 
L 29 44 
L 13.28125 44 
L 13.28125 51.515625 
L 30.90625 51.515625 
L 35.890625 71.78125 
z
" id="DejaVuSans-23"/>
      <path id="DejaVuSans-20"/>
      <path d="M 37.109375 75.984375 
L 37.109375 68.5 
L 28.515625 68.5 
Q 23.6875 68.5 21.796875 66.546875 
Q 19.921875 64.59375 19.921875 59.515625 
L 19.921875 54.6875 
L 34.71875 54.6875 
L 34.71875 47.703125 
L 19.921875 47.703125 
L 19.921875 0 
L 10.890625 0 
L 10.890625 47.703125 
L 2.296875 47.703125 
L 2.296875 54.6875 
L 10.890625 54.6875 
L 10.890625 58.5 
Q 10.890625 67.625 15.140625 71.796875 
Q 19.390625 75.984375 28.609375 75.984375 
z
" id="DejaVuSans-66"/>
      <path d="M 46 62.703125 
L 46 35.5 
L 73.1875 35.5 
L 73.1875 27.203125 
L 46 27.203125 
L 46 0 
L 37.796875 0 
L 37.796875 27.203125 
L 10.59375 27.203125 
L 10.59375 35.5 
L 37.796875 35.5 
L 37.796875 62.703125 
z
" id="DejaVuSans-2b"/>
      <path d="M 8.015625 75.875 
L 15.828125 75.875 
Q 23.140625 64.359375 26.78125 53.3125 
Q 30.421875 42.28125 30.421875 31.390625 
Q 30.421875 20.453125 26.78125 9.375 
Q 23.140625 -1.703125 15.828125 -13.1875 
L 8.015625 -13.1875 
Q 14.5 -2 17.703125 9.0625 
Q 20.90625 20.125 20.90625 31.390625 
Q 20.90625 42.671875 17.703125 53.65625 
Q 14.5 64.65625 8.015625 75.875 
z
" id="DejaVuSans-29"/>
      <path d="M 4.890625 31.390625 
L 31.203125 31.390625 
L 31.203125 23.390625 
L 4.890625 23.390625 
z
" id="DejaVuSans-2d"/>
      <path d="M 56.203125 29.59375 
L 56.203125 25.203125 
L 14.890625 25.203125 
Q 15.484375 15.921875 20.484375 11.0625 
Q 25.484375 6.203125 34.421875 6.203125 
Q 39.59375 6.203125 44.453125 7.46875 
Q 49.3125 8.734375 54.109375 11.28125 
L 54.109375 2.78125 
Q 49.265625 0.734375 44.1875 -0.34375 
Q 39.109375 -1.421875 33.890625 -1.421875 
Q 20.796875 -1.421875 13.15625 6.1875 
Q 5.515625 13.8125 5.515625 26.8125 
Q 5.515625 40.234375 12.765625 48.109375 
Q 20.015625 56 32.328125 56 
Q 43.359375 56 49.78125 48.890625 
Q 56.203125 41.796875 56.203125 29.59375 
z
M 47.21875 32.234375 
Q 47.125 39.59375 43.09375 43.984375 
Q 39.0625 48.390625 32.421875 48.390625 
Q 24.90625 48.390625 20.390625 44.140625 
Q 15.875 39.890625 15.1875 32.171875 
z
" id="DejaVuSans-65"/>
      <path d="M 2.984375 54.6875 
L 12.5 54.6875 
L 29.59375 8.796875 
L 46.6875 54.6875 
L 56.203125 54.6875 
L 35.6875 0 
L 23.484375 0 
z
" id="DejaVuSans-76"/>
      <path d="M 34.28125 27.484375 
Q 23.390625 27.484375 19.1875 25 
Q 14.984375 22.515625 14.984375 16.5 
Q 14.984375 11.71875 18.140625 8.90625 
Q 21.296875 6.109375 26.703125 6.109375 
Q 34.1875 6.109375 38.703125 11.40625 
Q 43.21875 16.703125 43.21875 25.484375 
L 43.21875 27.484375 
z
M 52.203125 31.203125 
L 52.203125 0 
L 43.21875 0 
L 43.21875 8.296875 
Q 40.140625 3.328125 35.546875 0.953125 
Q 30.953125 -1.421875 24.3125 -1.421875 
Q 15.921875 -1.421875 10.953125 3.296875 
Q 6 8.015625 6 15.921875 
Q 6 25.140625 12.171875 29.828125 
Q 18.359375 34.515625 30.609375 34.515625 
L 43.21875 34.515625 
L 43.21875 35.40625 
Q 43.21875 41.609375 39.140625 45 
Q 35.0625 48.390625 27.6875 48.390625 
Q 23 48.390625 18.546875 47.265625 
Q 14.109375 46.140625 10.015625 43.890625 
L 10.015625 52.203125 
Q 14.9375 54.109375 19.578125 55.046875 
Q 24.21875 56 28.609375 56 
Q 40.484375 56 46.34375 49.84375 
Q 52.203125 43.703125 52.203125 31.203125 
z
" id="DejaVuSans-61"/>
      <path d="M 44.28125 53.078125 
L 44.28125 44.578125 
Q 40.484375 46.53125 36.375 47.5 
Q 32.28125 48.484375 27.875 48.484375 
Q 21.1875 48.484375 17.84375 46.4375 
Q 14.5 44.390625 14.5 40.28125 
Q 14.5 37.15625 16.890625 35.375 
Q 19.28125 33.59375 26.515625 31.984375 
L 29.59375 31.296875 
Q 39.15625 29.25 43.1875 25.515625 
Q 47.21875 21.78125 47.21875 15.09375 
Q 47.21875 7.46875 41.1875 3.015625 
Q 35.15625 -1.421875 24.609375 -1.421875 
Q 20.21875 -1.421875 15.453125 -0.5625 
Q 10.6875 0.296875 5.421875 2 
L 5.421875 11.28125 
Q 10.40625 8.6875 15.234375 7.390625 
Q 20.0625 6.109375 24.8125 6.109375 
Q 31.15625 6.109375 34.5625 8.28125 
Q 37.984375 10.453125 37.984375 14.40625 
Q 37.984375 18.0625 35.515625 20.015625 
Q 33.0625 21.96875 24.703125 23.78125 
L 21.578125 24.515625 
Q 13.234375 26.265625 9.515625 29.90625 
Q 5.8125 33.546875 5.8125 39.890625 
Q 5.8125 47.609375 11.28125 51.796875 
Q 16.75 56 26.8125 56 
Q 31.78125 56 36.171875 55.265625 
Q 40.578125 54.546875 44.28125 53.078125 
z
" id="DejaVuSans-73"/>
      <path d="M 25.390625 72.90625 
L 33.6875 72.90625 
L 8.296875 -9.28125 
L 0 -9.28125 
z
" id="DejaVuSans-2f"/>
      <path d="M 45.40625 46.390625 
L 45.40625 75.984375 
L 54.390625 75.984375 
L 54.390625 0 
L 45.40625 0 
L 45.40625 8.203125 
Q 42.578125 3.328125 38.25 0.953125 
Q 33.9375 -1.421875 27.875 -1.421875 
Q 17.96875 -1.421875 11.734375 6.484375 
Q 5.515625 14.40625 5.515625 27.296875 
Q 5.515625 40.1875 11.734375 48.09375 
Q 17.96875 56 27.875 56 
Q 33.9375 56 38.25 53.625 
Q 42.578125 51.265625 45.40625 46.390625 
z
M 14.796875 27.296875 
Q 14.796875 17.390625 18.875 11.75 
Q 22.953125 6.109375 30.078125 6.109375 
Q 37.203125 6.109375 41.296875 11.75 
Q 45.40625 17.390625 45.40625 27.296875 
Q 45.40625 37.203125 41.296875 42.84375 
Q 37.203125 48.484375 30.078125 48.484375 
Q 22.953125 48.484375 18.875 42.84375 
Q 14.796875 37.203125 14.796875 27.296875 
z
" id="DejaVuSans-64"/>
      <path d="M 9.421875 54.6875 
L 18.40625 54.6875 
L 18.40625 0 
L 9.421875 0 
z
M 9.421875 75.984375 
L 18.40625 75.984375 
L 18.40625 64.59375 
L 9.421875 64.59375 
z
" id="DejaVuSans-69"/>
      <path d="M 52 44.1875 
Q 55.375 50.25 60.0625 53.125 
Q 64.75 56 71.09375 56 
Q 79.640625 56 84.28125 50.015625 
Q 88.921875 44.046875 88.921875 33.015625 
L 88.921875 0 
L 79.890625 0 
L 79.890625 32.71875 
Q 79.890625 40.578125 77.09375 44.375 
Q 74.3125 48.1875 68.609375 48.1875 
Q 61.625 48.1875 57.5625 43.546875 
Q 53.515625 38.921875 53.515625 30.90625 
L 53.515625 0 
L 44.484375 0 
L 44.484375 32.71875 
Q 44.484375 40.625 41.703125 44.40625 
Q 38.921875 48.1875 33.109375 48.1875 
Q 26.21875 48.1875 22.15625 43.53125 
Q 18.109375 38.875 18.109375 30.90625 
L 18.109375 0 
L 9.078125 0 
L 9.078125 54.6875 
L 18.109375 54.6875 
L 18.109375 46.1875 
Q 21.1875 51.21875 25.484375 53.609375 
Q 29.78125 56 35.6875 56 
Q 41.65625 56 45.828125 52.96875 
Q 50 49.953125 52 44.1875 
z
" id="DejaVuSans-6d"/>
      <path d="M 54.890625 33.015625 
L 54.890625 0 
L 45.90625 0 
L 45.90625 32.71875 
Q 45.90625 40.484375 42.875 44.328125 
Q 39.84375 48.1875 33.796875 48.1875 
Q 26.515625 48.1875 22.3125 43.546875 
Q 18.109375 38.921875 18.109375 30.90625 
L 18.109375 0 
L 9.078125 0 
L 9.078125 54.6875 
L 18.109375 54.6875 
L 18.109375 46.1875 
Q 21.34375 51.125 25.703125 53.5625 
Q 30.078125 56 35.796875 56 
Q 45.21875 56 50.046875 50.171875 
Q 54.890625 44.34375 54.890625 33.015625 
z
" id="DejaVuSans-6e"/>
     </defs>
     <g transform="translate(88.413016 337.433594)scale(0.17 -0.17)">
      <use xlink:href="#DejaVuSans-6c"/>
      <use x="27.783203" xlink:href="#DejaVuSans-6f"/>
      <use x="88.964844" xlink:href="#DejaVuSans-67"/>
      <use x="152.441406" xlink:href="#DejaVuSans-31"/>
      <use x="216.064453" xlink:href="#DejaVuSans-30"/>
      <use x="279.6875" xlink:href="#DejaVuSans-28"/>
      <use x="318.701172" xlink:href="#DejaVuSans-23"/>
      <use x="402.490234" xlink:href="#DejaVuSans-20"/>
      <use x="434.277344" xlink:href="#DejaVuSans-28"/>
      <use x="473.291016" xlink:href="#DejaVuSans-66"/>
      <use x="508.496094" xlink:href="#DejaVuSans-2b"/>
      <use x="592.285156" xlink:href="#DejaVuSans-67"/>
      <use x="655.761719" xlink:href="#DejaVuSans-29"/>
      <use x="694.775391" xlink:href="#DejaVuSans-2d"/>
      <use x="730.859375" xlink:href="#DejaVuSans-65"/>
      <use x="792.382812" xlink:href="#DejaVuSans-76"/>
      <use x="851.5625" xlink:href="#DejaVuSans-61"/>
      <use x="912.841797" xlink:href="#DejaVuSans-6c"/>
      <use x="940.625" xlink:href="#DejaVuSans-73"/>
      <use x="992.724609" xlink:href="#DejaVuSans-20"/>
      <use x="1024.511719" xlink:href="#DejaVuSans-2f"/>
      <use x="1058.203125" xlink:href="#DejaVuSans-20"/>
      <use x="1089.990234" xlink:href="#DejaVuSans-64"/>
      <use x="1153.466797" xlink:href="#DejaVuSans-69"/>
      <use x="1181.25" xlink:href="#DejaVuSans-6d"/>
      <use x="1278.662109" xlink:href="#DejaVuSans-65"/>
      <use x="1340.185547" xlink:href="#DejaVuSans-6e"/>
      <use x="1403.564453" xlink:href="#DejaVuSans-73"/>
      <use x="1455.664062" xlink:href="#DejaVuSans-69"/>
      <use x="1483.447266" xlink:href="#DejaVuSans-6f"/>
      <use x="1544.628906" xlink:href="#DejaVuSans-6e"/>
      <use x="1608.007812" xlink:href="#DejaVuSans-29"/>
     </g>
    </g>
   </g>
   <g id="matplotlib.axis_2">
    <g id="ytick_1">
     <g id="line2d_11">
      <path clip-path="url(#p833003d310)" d="M 56.84 294.16 
L 399.984 294.16 
" style="fill:none;stroke:#b0b0b0;stroke-linecap:square;stroke-width:0.8;"/>
     </g>
     <g id="line2d_12">
      <defs>
       <path d="M 0 0 
L -3.5 0 
" id="ma2eb0a387f" style="stroke:#000000;stroke-width:0.8;"/>
      </defs>
      <g>
       <use style="stroke:#000000;stroke-width:0.8;" x="56.84" xlink:href="#ma2eb0a387f" y="294.16"/>
      </g>
     </g>
     <g id="text_7">
      <!-- 0.0 -->
      <defs>
       <path d="M 10.6875 12.40625 
L 21 12.40625 
L 21 0 
L 10.6875 0 
z
" id="DejaVuSans-2e"/>
      </defs>
      <g transform="translate(24.395 300.23875)scale(0.16 -0.16)">
       <use xlink:href="#DejaVuSans-30"/>
       <use x="63.623047" xlink:href="#DejaVuSans-2e"/>
       <use x="95.410156" xlink:href="#DejaVuSans-30"/>
      </g>
     </g>
    </g>
    <g id="ytick_2">
     <g id="line2d_13">
      <path clip-path="url(#p833003d310)" d="M 56.84 240.829307 
L 399.984 240.829307 
" style="fill:none;stroke:#b0b0b0;stroke-linecap:square;stroke-width:0.8;"/>
     </g>
     <g id="line2d_14">
      <g>
       <use style="stroke:#000000;stroke-width:0.8;" x="56.84" xlink:href="#ma2eb0a387f" y="240.829307"/>
      </g>
     </g>
     <g id="text_8">
      <!-- 0.2 -->
      <g transform="translate(24.395 246.908057)scale(0.16 -0.16)">
       <use xlink:href="#DejaVuSans-30"/>
       <use x="63.623047" xlink:href="#DejaVuSans-2e"/>
       <use x="95.410156" xlink:href="#DejaVuSans-32"/>
      </g>
     </g>
    </g>
    <g id="ytick_3">
     <g id="line2d_15">
      <path clip-path="url(#p833003d310)" d="M 56.84 187.498614 
L 399.984 187.498614 
" style="fill:none;stroke:#b0b0b0;stroke-linecap:square;stroke-width:0.8;"/>
     </g>
     <g id="line2d_16">
      <g>
       <use style="stroke:#000000;stroke-width:0.8;" x="56.84" xlink:href="#ma2eb0a387f" y="187.498614"/>
      </g>
     </g>
     <g id="text_9">
      <!-- 0.4 -->
      <g transform="translate(24.395 193.577364)scale(0.16 -0.16)">
       <use xlink:href="#DejaVuSans-30"/>
       <use x="63.623047" xlink:href="#DejaVuSans-2e"/>
       <use x="95.410156" xlink:href="#DejaVuSans-34"/>
      </g>
     </g>
    </g>
    <g id="ytick_4">
     <g id="line2d_17">
      <path clip-path="url(#p833003d310)" d="M 56.84 134.167921 
L 399.984 134.167921 
" style="fill:none;stroke:#b0b0b0;stroke-linecap:square;stroke-width:0.8;"/>
     </g>
     <g id="line2d_18">
      <g>
       <use style="stroke:#000000;stroke-width:0.8;" x="56.84" xlink:href="#ma2eb0a387f" y="134.167921"/>
      </g>
     </g>
     <g id="text_10">
      <!-- 0.6 -->
      <g transform="translate(24.395 140.246671)scale(0.16 -0.16)">
       <use xlink:href="#DejaVuSans-30"/>
       <use x="63.623047" xlink:href="#DejaVuSans-2e"/>
       <use x="95.410156" xlink:href="#DejaVuSans-36"/>
      </g>
     </g>
    </g>
    <g id="ytick_5">
     <g id="line2d_19">
      <path clip-path="url(#p833003d310)" d="M 56.84 80.837228 
L 399.984 80.837228 
" style="fill:none;stroke:#b0b0b0;stroke-linecap:square;stroke-width:0.8;"/>
     </g>
     <g id="line2d_20">
      <g>
       <use style="stroke:#000000;stroke-width:0.8;" x="56.84" xlink:href="#ma2eb0a387f" y="80.837228"/>
      </g>
     </g>
     <g id="text_11">
      <!-- 0.8 -->
      <g transform="translate(24.395 86.915978)scale(0.16 -0.16)">
       <use xlink:href="#DejaVuSans-30"/>
       <use x="63.623047" xlink:href="#DejaVuSans-2e"/>
       <use x="95.410156" xlink:href="#DejaVuSans-38"/>
      </g>
     </g>
    </g>
    <g id="ytick_6">
     <g id="line2d_21">
      <path clip-path="url(#p833003d310)" d="M 56.84 27.506535 
L 399.984 27.506535 
" style="fill:none;stroke:#b0b0b0;stroke-linecap:square;stroke-width:0.8;"/>
     </g>
     <g id="line2d_22">
      <g>
       <use style="stroke:#000000;stroke-width:0.8;" x="56.84" xlink:href="#ma2eb0a387f" y="27.506535"/>
      </g>
     </g>
     <g id="text_12">
      <!-- 1.0 -->
      <g transform="translate(24.395 33.585285)scale(0.16 -0.16)">
       <use xlink:href="#DejaVuSans-31"/>
       <use x="63.623047" xlink:href="#DejaVuSans-2e"/>
       <use x="95.410156" xlink:href="#DejaVuSans-30"/>
      </g>
     </g>
    </g>
    <g id="text_13">
     <!-- Fraction of function,target pairs -->
     <defs>
      <path d="M 9.8125 72.90625 
L 51.703125 72.90625 
L 51.703125 64.59375 
L 19.671875 64.59375 
L 19.671875 43.109375 
L 48.578125 43.109375 
L 48.578125 34.8125 
L 19.671875 34.8125 
L 19.671875 0 
L 9.8125 0 
z
" id="DejaVuSans-46"/>
      <path d="M 41.109375 46.296875 
Q 39.59375 47.171875 37.8125 47.578125 
Q 36.03125 48 33.890625 48 
Q 26.265625 48 22.1875 43.046875 
Q 18.109375 38.09375 18.109375 28.8125 
L 18.109375 0 
L 9.078125 0 
L 9.078125 54.6875 
L 18.109375 54.6875 
L 18.109375 46.1875 
Q 20.953125 51.171875 25.484375 53.578125 
Q 30.03125 56 36.53125 56 
Q 37.453125 56 38.578125 55.875 
Q 39.703125 55.765625 41.0625 55.515625 
z
" id="DejaVuSans-72"/>
      <path d="M 48.78125 52.59375 
L 48.78125 44.1875 
Q 44.96875 46.296875 41.140625 47.34375 
Q 37.3125 48.390625 33.40625 48.390625 
Q 24.65625 48.390625 19.8125 42.84375 
Q 14.984375 37.3125 14.984375 27.296875 
Q 14.984375 17.28125 19.8125 11.734375 
Q 24.65625 6.203125 33.40625 6.203125 
Q 37.3125 6.203125 41.140625 7.25 
Q 44.96875 8.296875 48.78125 10.40625 
L 48.78125 2.09375 
Q 45.015625 0.34375 40.984375 -0.53125 
Q 36.96875 -1.421875 32.421875 -1.421875 
Q 20.0625 -1.421875 12.78125 6.34375 
Q 5.515625 14.109375 5.515625 27.296875 
Q 5.515625 40.671875 12.859375 48.328125 
Q 20.21875 56 33.015625 56 
Q 37.15625 56 41.109375 55.140625 
Q 45.0625 54.296875 48.78125 52.59375 
z
" id="DejaVuSans-63"/>
      <path d="M 18.3125 70.21875 
L 18.3125 54.6875 
L 36.8125 54.6875 
L 36.8125 47.703125 
L 18.3125 47.703125 
L 18.3125 18.015625 
Q 18.3125 11.328125 20.140625 9.421875 
Q 21.96875 7.515625 27.59375 7.515625 
L 36.8125 7.515625 
L 36.8125 0 
L 27.59375 0 
Q 17.1875 0 13.234375 3.875 
Q 9.28125 7.765625 9.28125 18.015625 
L 9.28125 47.703125 
L 2.6875 47.703125 
L 2.6875 54.6875 
L 9.28125 54.6875 
L 9.28125 70.21875 
z
" id="DejaVuSans-74"/>
      <path d="M 8.5 21.578125 
L 8.5 54.6875 
L 17.484375 54.6875 
L 17.484375 21.921875 
Q 17.484375 14.15625 20.5 10.265625 
Q 23.53125 6.390625 29.59375 6.390625 
Q 36.859375 6.390625 41.078125 11.03125 
Q 45.3125 15.671875 45.3125 23.6875 
L 45.3125 54.6875 
L 54.296875 54.6875 
L 54.296875 0 
L 45.3125 0 
L 45.3125 8.40625 
Q 42.046875 3.421875 37.71875 1 
Q 33.40625 -1.421875 27.6875 -1.421875 
Q 18.265625 -1.421875 13.375 4.4375 
Q 8.5 10.296875 8.5 21.578125 
z
M 31.109375 56 
z
" id="DejaVuSans-75"/>
      <path d="M 11.71875 12.40625 
L 22.015625 12.40625 
L 22.015625 4 
L 14.015625 -11.625 
L 7.71875 -11.625 
L 11.71875 4 
z
" id="DejaVuSans-2c"/>
      <path d="M 18.109375 8.203125 
L 18.109375 -20.796875 
L 9.078125 -20.796875 
L 9.078125 54.6875 
L 18.109375 54.6875 
L 18.109375 46.390625 
Q 20.953125 51.265625 25.265625 53.625 
Q 29.59375 56 35.59375 56 
Q 45.5625 56 51.78125 48.09375 
Q 58.015625 40.1875 58.015625 27.296875 
Q 58.015625 14.40625 51.78125 6.484375 
Q 45.5625 -1.421875 35.59375 -1.421875 
Q 29.59375 -1.421875 25.265625 0.953125 
Q 20.953125 3.328125 18.109375 8.203125 
z
M 48.6875 27.296875 
Q 48.6875 37.203125 44.609375 42.84375 
Q 40.53125 48.484375 33.40625 48.484375 
Q 26.265625 48.484375 22.1875 42.84375 
Q 18.109375 37.203125 18.109375 27.296875 
Q 18.109375 17.390625 22.1875 11.75 
Q 26.265625 6.109375 33.40625 6.109375 
Q 40.53125 6.109375 44.609375 11.75 
Q 48.6875 17.390625 48.6875 27.296875 
z
" id="DejaVuSans-70"/>
     </defs>
     <g transform="translate(16.859531 294.639375)rotate(-90)scale(0.17 -0.17)">
      <use xlink:href="#DejaVuSans-46"/>
      <use x="57.410156" xlink:href="#DejaVuSans-72"/>
      <use x="98.523438" xlink:href="#DejaVuSans-61"/>
      <use x="159.802734" xlink:href="#DejaVuSans-63"/>
      <use x="214.783203" xlink:href="#DejaVuSans-74"/>
      <use x="253.992188" xlink:href="#DejaVuSans-69"/>
      <use x="281.775391" xlink:href="#DejaVuSans-6f"/>
      <use x="342.957031" xlink:href="#DejaVuSans-6e"/>
      <use x="406.335938" xlink:href="#DejaVuSans-20"/>
      <use x="438.123047" xlink:href="#DejaVuSans-6f"/>
      <use x="499.304688" xlink:href="#DejaVuSans-66"/>
      <use x="534.509766" xlink:href="#DejaVuSans-20"/>
      <use x="566.296875" xlink:href="#DejaVuSans-66"/>
      <use x="601.501953" xlink:href="#DejaVuSans-75"/>
      <use x="664.880859" xlink:href="#DejaVuSans-6e"/>
      <use x="728.259766" xlink:href="#DejaVuSans-63"/>
      <use x="783.240234" xlink:href="#DejaVuSans-74"/>
      <use x="822.449219" xlink:href="#DejaVuSans-69"/>
      <use x="850.232422" xlink:href="#DejaVuSans-6f"/>
      <use x="911.414062" xlink:href="#DejaVuSans-6e"/>
      <use x="974.792969" xlink:href="#DejaVuSans-2c"/>
      <use x="1006.580078" xlink:href="#DejaVuSans-74"/>
      <use x="1045.789062" xlink:href="#DejaVuSans-61"/>
      <use x="1107.068359" xlink:href="#DejaVuSans-72"/>
      <use x="1148.166016" xlink:href="#DejaVuSans-67"/>
      <use x="1211.642578" xlink:href="#DejaVuSans-65"/>
      <use x="1273.166016" xlink:href="#DejaVuSans-74"/>
      <use x="1312.375" xlink:href="#DejaVuSans-20"/>
      <use x="1344.162109" xlink:href="#DejaVuSans-70"/>
      <use x="1407.638672" xlink:href="#DejaVuSans-61"/>
      <use x="1468.917969" xlink:href="#DejaVuSans-69"/>
      <use x="1496.701172" xlink:href="#DejaVuSans-72"/>
      <use x="1537.814453" xlink:href="#DejaVuSans-73"/>
     </g>
    </g>
   </g>
   <g id="line2d_23">
    <path clip-path="url(#p833003d310)" d="M 56.84 294.16 
L 56.84 294.16 
L 56.84 294.16 
L 56.84 294.16 
L 399.984 294.16 
" style="fill:none;stroke:#000080;stroke-linecap:square;stroke-width:1.5;"/>
   </g>
   <g id="line2d_24">
    <defs>
     <path d="M 0 6 
C 1.591219 6 3.117479 5.367802 4.242641 4.242641 
C 5.367802 3.117479 6 1.591219 6 0 
C 6 -1.591219 5.367802 -3.117479 4.242641 -4.242641 
C 3.117479 -5.367802 1.591219 -6 0 -6 
C -1.591219 -6 -3.117479 -5.367802 -4.242641 -4.242641 
C -5.367802 -3.117479 -6 -1.591219 -6 0 
C -6 1.591219 -5.367802 3.117479 -4.242641 4.242641 
C -3.117479 5.367802 -1.591219 6 0 6 
z
" id="maf73d5ae0d" style="stroke:#000080;stroke-width:1.5;"/>
    </defs>
    <g clip-path="url(#p833003d310)">
     <use style="fill:none;stroke:#000080;stroke-width:1.5;" x="56.84" xlink:href="#maf73d5ae0d" y="294.16"/>
     <use style="fill:none;stroke:#000080;stroke-width:1.5;" x="56.84" xlink:href="#maf73d5ae0d" y="294.16"/>
     <use style="fill:none;stroke:#000080;stroke-width:1.5;" x="96.372719" xlink:href="#maf73d5ae0d" y="294.16"/>
     <use style="fill:none;stroke:#000080;stroke-width:1.5;" x="135.905438" xlink:href="#maf73d5ae0d" y="294.16"/>
     <use style="fill:none;stroke:#000080;stroke-width:1.5;" x="175.438157" xlink:href="#maf73d5ae0d" y="294.16"/>
     <use style="fill:none;stroke:#000080;stroke-width:1.5;" x="214.970876" xlink:href="#maf73d5ae0d" y="294.16"/>
     <use style="fill:none;stroke:#000080;stroke-width:1.5;" x="254.503594" xlink:href="#maf73d5ae0d" y="294.16"/>
     <use style="fill:none;stroke:#000080;stroke-width:1.5;" x="294.036313" xlink:href="#maf73d5ae0d" y="294.16"/>
     <use style="fill:none;stroke:#000080;stroke-width:1.5;" x="333.569032" xlink:href="#maf73d5ae0d" y="294.16"/>
     <use style="fill:none;stroke:#000080;stroke-width:1.5;" x="373.101751" xlink:href="#maf73d5ae0d" y="294.16"/>
    </g>
   </g>
   <g id="line2d_25"/>
   <g id="line2d_26">
    <defs>
     <path d="M 0 1.5 
C 0.397805 1.5 0.77937 1.341951 1.06066 1.06066 
C 1.341951 0.77937 1.5 0.397805 1.5 0 
C 1.5 -0.397805 1.341951 -0.77937 1.06066 -1.06066 
C 0.77937 -1.341951 0.397805 -1.5 0 -1.5 
C -0.397805 -1.5 -0.77937 -1.341951 -1.06066 -1.06066 
C -1.341951 -0.77937 -1.5 -0.397805 -1.5 0 
C -1.5 0.397805 -1.341951 0.77937 -1.06066 1.06066 
C -0.77937 1.341951 -0.397805 1.5 0 1.5 
z
" id="m7615ee1289" style="stroke:#ff00ff;"/>
    </defs>
    <g>
     <use style="fill:#ff00ff;stroke:#ff00ff;" x="145.096315" xlink:href="#m7615ee1289" y="27.506535"/>
     <use style="fill:#ff00ff;stroke:#ff00ff;" x="145.096315" xlink:href="#m7615ee1289" y="27.506535"/>
    </g>
   </g>
   <g id="line2d_27">
    <path d="M 89.751341 294.16 
L 89.751341 273.348022 
L 91.660956 273.348022 
L 91.660956 177.092625 
L 92.541603 177.092625 
L 92.541603 112.705569 
L 126.788296 112.705569 
L 126.788296 98.397334 
L 145.096315 98.397334 
L 145.096315 27.506535 
L 333.569032 27.506535 
" style="fill:none;stroke:#ff00ff;stroke-linecap:square;stroke-width:1.5;"/>
   </g>
   <g id="line2d_28">
    <defs>
     <path d="M -0 8.485281 
L 5.091169 0 
L 0 -8.485281 
L -5.091169 -0 
z
" id="mb2da23dfca" style="stroke:#ff00ff;stroke-linejoin:miter;stroke-width:1.5;"/>
    </defs>
    <g>
     <use style="fill:none;stroke:#ff00ff;stroke-linejoin:miter;stroke-width:1.5;" x="91.660956" xlink:href="#mb2da23dfca" y="177.092625"/>
     <use style="fill:none;stroke:#ff00ff;stroke-linejoin:miter;stroke-width:1.5;" x="126.788296" xlink:href="#mb2da23dfca" y="98.397334"/>
     <use style="fill:none;stroke:#ff00ff;stroke-linejoin:miter;stroke-width:1.5;" x="145.096315" xlink:href="#mb2da23dfca" y="98.397334"/>
     <use style="fill:none;stroke:#ff00ff;stroke-linejoin:miter;stroke-width:1.5;" x="145.096315" xlink:href="#mb2da23dfca" y="27.506535"/>
     <use style="fill:none;stroke:#ff00ff;stroke-linejoin:miter;stroke-width:1.5;" x="333.569032" xlink:href="#mb2da23dfca" y="27.506535"/>
    </g>
   </g>
   <g id="line2d_29"/>
   <g id="line2d_30">
    <defs>
     <path d="M 0 1.5 
C 0.397805 1.5 0.77937 1.341951 1.06066 1.06066 
C 1.341951 0.77937 1.5 0.397805 1.5 0 
C 1.5 -0.397805 1.341951 -0.77937 1.06066 -1.06066 
C 0.77937 -1.341951 0.397805 -1.5 0 -1.5 
C -0.397805 -1.5 -0.77937 -1.341951 -1.06066 -1.06066 
C -1.341951 -0.77937 -1.5 -0.397805 -1.5 0 
C -1.5 0.397805 -1.341951 0.77937 -1.06066 1.06066 
C -0.77937 1.341951 -0.397805 1.5 0 1.5 
z
" id="m6843b6e0dd" style="stroke:#ffa500;"/>
    </defs>
    <g>
     <use style="fill:#ffa500;stroke:#ffa500;" x="131.727464" xlink:href="#m6843b6e0dd" y="27.506535"/>
     <use style="fill:#ffa500;stroke:#ffa500;" x="131.727464" xlink:href="#m6843b6e0dd" y="27.506535"/>
    </g>
   </g>
   <g id="line2d_31">
    <path d="M 41.10835 294.16 
L 41.10835 293.509626 
L 64.909418 293.509626 
L 64.909418 292.208877 
L 71.870784 292.208877 
L 71.870784 289.60738 
L 85.145559 289.60738 
L 85.145559 286.355508 
L 88.710486 286.355508 
L 88.710486 268.145028 
L 89.751341 268.145028 
L 89.751341 264.242782 
L 91.203093 264.242782 
L 91.203093 263.592408 
L 91.660956 263.592408 
L 91.660956 227.821821 
L 92.541603 227.821821 
L 92.541603 213.513586 
L 93.379273 213.513586 
L 93.379273 199.855726 
L 94.177968 199.855726 
L 94.177968 194.652731 
L 95.671853 194.652731 
L 95.671853 179.043748 
L 97.373129 179.043748 
L 97.373129 177.742999 
L 99.786758 177.742999 
L 99.786758 176.442251 
L 101.397517 176.442251 
L 101.397517 166.036262 
L 101.902519 166.036262 
L 101.902519 162.78439 
L 102.870034 162.78439 
L 102.870034 140.02129 
L 103.334085 140.02129 
L 103.334085 136.119044 
L 103.785923 136.119044 
L 103.785923 130.265675 
L 104.226174 130.265675 
L 104.226174 128.314552 
L 105.07419 128.314552 
L 105.07419 123.111558 
L 107.572387 123.111558 
L 107.572387 120.51006 
L 108.613241 120.51006 
L 108.613241 114.006317 
L 108.946627 114.006317 
L 108.946627 112.705569 
L 109.434874 112.705569 
L 109.434874 112.055194 
L 109.594585 112.055194 
L 109.594585 99.047708 
L 109.909618 99.047708 
L 109.909618 94.495088 
L 110.218975 94.495088 
L 110.218975 91.893591 
L 110.522857 91.893591 
L 110.522857 90.592842 
L 111.114944 90.592842 
L 111.114944 85.389848 
L 112.909306 85.389848 
L 112.909306 84.739474 
L 113.678189 84.739474 
L 113.678189 82.788351 
L 113.927017 82.788351 
L 113.927017 81.487602 
L 114.414109 81.487602 
L 114.414109 73.032736 
L 114.652569 73.032736 
L 114.652569 71.081613 
L 114.887762 71.081613 
L 114.887762 64.57787 
L 115.119777 64.57787 
L 115.119777 63.927496 
L 115.574608 63.927496 
L 115.574608 63.277121 
L 117.584333 63.277121 
L 117.584333 61.325999 
L 117.782819 61.325999 
L 117.782819 60.675624 
L 118.173037 60.675624 
L 118.173037 58.074127 
L 118.364869 58.074127 
L 118.364869 56.123004 
L 118.554582 56.123004 
L 118.554582 52.871133 
L 118.742222 52.871133 
L 118.742222 50.92001 
L 120.76442 50.92001 
L 120.76442 50.269635 
L 120.929506 50.269635 
L 120.929506 48.968887 
L 121.254992 48.968887 
L 121.254992 45.717015 
L 121.415449 45.717015 
L 121.415449 43.765892 
L 121.574421 43.765892 
L 121.574421 42.465144 
L 122.042691 42.465144 
L 122.042691 39.863646 
L 123.867001 39.863646 
L 123.867001 37.262149 
L 124.004904 37.262149 
L 124.004904 35.311026 
L 124.141708 35.311026 
L 124.141708 33.359903 
L 124.277431 33.359903 
L 124.277431 32.709529 
L 124.545699 32.709529 
L 124.545699 32.059155 
L 126.133599 32.059155 
L 126.133599 31.40878 
L 126.374569 31.40878 
L 126.374569 30.758406 
L 128.350177 30.758406 
L 128.350177 30.108032 
L 129.633946 30.108032 
L 129.633946 29.457658 
L 131.551372 29.457658 
L 131.551372 28.156909 
L 131.727464 28.156909 
L 131.727464 27.506535 
L 333.569032 27.506535 
" style="fill:none;stroke:#ffa500;stroke-linecap:square;stroke-width:1.5;"/>
   </g>
   <g id="line2d_32">
    <defs>
     <path d="M 0 -6 
L -1.347084 -1.854102 
L -5.706339 -1.854102 
L -2.179628 0.708204 
L -3.526712 4.854102 
L -0 2.291796 
L 3.526712 4.854102 
L 2.179628 0.708204 
L 5.706339 -1.854102 
L 1.347084 -1.854102 
z
" id="m97c83c7fc7" style="stroke:#ffa500;stroke-linejoin:bevel;stroke-width:1.5;"/>
    </defs>
    <g>
     <use style="fill:none;stroke:#ffa500;stroke-linejoin:bevel;stroke-width:1.5;" x="88.710486" xlink:href="#m97c83c7fc7" y="268.145028"/>
     <use style="fill:none;stroke:#ffa500;stroke-linejoin:bevel;stroke-width:1.5;" x="101.902519" xlink:href="#m97c83c7fc7" y="162.78439"/>
     <use style="fill:none;stroke:#ffa500;stroke-linejoin:bevel;stroke-width:1.5;" x="126.374569" xlink:href="#m97c83c7fc7" y="30.758406"/>
     <use style="fill:none;stroke:#ffa500;stroke-linejoin:bevel;stroke-width:1.5;" x="131.727464" xlink:href="#m97c83c7fc7" y="27.506535"/>
     <use style="fill:none;stroke:#ffa500;stroke-linejoin:bevel;stroke-width:1.5;" x="131.727464" xlink:href="#m97c83c7fc7" y="27.506535"/>
     <use style="fill:none;stroke:#ffa500;stroke-linejoin:bevel;stroke-width:1.5;" x="333.569032" xlink:href="#m97c83c7fc7" y="27.506535"/>
    </g>
   </g>
   <g id="line2d_33"/>
   <g id="line2d_34">
    <path clip-path="url(#p833003d310)" d="M 90.249023 264.242782 
" style="fill:none;stroke:#ffa500;stroke-linecap:square;stroke-width:1.5;"/>
    <defs>
     <path d="M -12 12 
L 12 -12 
M -12 -12 
L 12 12 
" id="mc7ce94bc0c" style="stroke:#ffa500;stroke-width:3;"/>
    </defs>
    <g clip-path="url(#p833003d310)">
     <use style="fill:#ffa500;stroke:#ffa500;stroke-width:3;" x="90.249023" xlink:href="#mc7ce94bc0c" y="264.242782"/>
    </g>
   </g>
   <g id="line2d_35">
    <defs>
     <path d="M 0 1.5 
C 0.397805 1.5 0.77937 1.341951 1.06066 1.06066 
C 1.341951 0.77937 1.5 0.397805 1.5 0 
C 1.5 -0.397805 1.341951 -0.77937 1.06066 -1.06066 
C 0.77937 -1.341951 0.397805 -1.5 0 -1.5 
C -0.397805 -1.5 -0.77937 -1.341951 -1.06066 -1.06066 
C -1.341951 -0.77937 -1.5 -0.397805 -1.5 0 
C -1.5 0.397805 -1.341951 0.77937 -1.06066 1.06066 
C -0.77937 1.341951 -0.397805 1.5 0 1.5 
z
" id="m32e43c74f9" style="stroke:#6495ed;"/>
    </defs>
    <g>
     <use style="fill:#6495ed;stroke:#6495ed;" x="176.256195" xlink:href="#m32e43c74f9" y="27.506535"/>
     <use style="fill:#6495ed;stroke:#6495ed;" x="176.256195" xlink:href="#m32e43c74f9" y="27.506535"/>
    </g>
   </g>
   <g id="line2d_36">
    <path d="M 53.008884 294.16 
L 53.008884 281.152514 
L 71.870784 281.152514 
L 71.870784 279.201391 
L 74.517373 279.201391 
L 74.517373 278.551017 
L 76.809952 278.551017 
L 76.809952 274.648771 
L 78.83215 274.648771 
L 78.83215 268.145028 
L 83.771318 268.145028 
L 83.771318 215.464709 
L 125.765681 215.464709 
L 125.765681 214.814335 
L 126.133599 214.814335 
L 126.133599 193.351983 
L 126.254507 193.351983 
L 126.254507 182.945994 
L 126.553103 182.945994 
L 126.553103 176.442251 
L 137.290241 176.442251 
L 137.353478 161.483642 
L 137.416483 161.483642 
L 137.510559 149.776904 
L 137.572991 149.776904 
L 137.572991 145.874658 
L 137.728085 145.874658 
L 137.728085 145.224284 
L 143.996303 145.224284 
L 144.081827 130.916049 
L 144.145691 130.916049 
L 144.230476 119.859686 
L 144.293791 119.859686 
L 144.335871 117.908563 
L 148.806382 117.908563 
L 148.90329 110.104071 
L 148.919388 110.104071 
L 148.983631 104.250703 
L 149.031656 104.250703 
L 149.09548 99.698083 
L 149.254012 99.698083 
L 149.254012 99.047708 
L 152.585589 99.047708 
L 152.676327 89.942468 
L 152.702164 89.942468 
L 152.792289 82.137976 
L 152.817953 82.137976 
L 152.856376 80.186853 
L 155.63768 80.186853 
L 155.735323 74.333485 
L 155.778543 74.333485 
L 155.832414 69.780865 
L 158.265607 69.780865 
L 158.330835 67.829742 
L 158.414337 67.829742 
L 158.460551 65.878619 
L 160.601311 65.878619 
L 160.698815 60.02525 
L 160.787711 60.02525 
L 160.787711 59.374876 
L 162.570008 59.374876 
L 162.664203 54.171881 
L 162.693083 54.171881 
L 162.779431 50.92001 
L 164.375293 50.92001 
L 164.421016 47.668138 
L 164.49262 47.668138 
L 164.49262 47.017764 
L 165.961044 47.017764 
L 165.961044 46.36739 
L 166.085822 46.36739 
L 166.144923 45.066641 
L 167.450952 45.066641 
L 167.554527 41.164395 
L 167.592529 41.164395 
L 167.592529 40.514021 
L 167.71142 40.514021 
L 167.71142 39.863646 
L 168.84705 39.863646 
L 168.93253 35.961401 
L 168.962598 35.961401 
L 168.962598 35.311026 
L 170.170809 35.311026 
L 170.170809 34.660652 
L 171.286442 34.660652 
L 171.347557 33.359903 
L 172.432443 33.359903 
L 172.461054 31.40878 
L 173.468244 31.40878 
L 173.54893 29.457658 
L 174.59001 29.457658 
L 174.59001 28.807283 
L 175.414103 28.807283 
L 175.414103 28.156909 
L 176.256195 28.156909 
L 176.256195 27.506535 
L 333.569032 27.506535 
L 333.569032 27.506535 
" style="fill:none;stroke:#6495ed;stroke-linecap:square;stroke-width:1.5;"/>
   </g>
   <g id="line2d_37">
    <defs>
     <path d="M -0 6 
L 6 -6 
L -6 -6 
z
" id="mcde5ae0502" style="stroke:#6495ed;stroke-linejoin:miter;stroke-width:1.5;"/>
    </defs>
    <g>
     <use style="fill:none;stroke:#6495ed;stroke-linejoin:miter;stroke-width:1.5;" x="78.83215" xlink:href="#mcde5ae0502" y="274.648771"/>
     <use style="fill:none;stroke:#6495ed;stroke-linejoin:miter;stroke-width:1.5;" x="126.254507" xlink:href="#mcde5ae0502" y="182.945994"/>
     <use style="fill:none;stroke:#6495ed;stroke-linejoin:miter;stroke-width:1.5;" x="152.650451" xlink:href="#mcde5ae0502" y="94.495088"/>
     <use style="fill:none;stroke:#6495ed;stroke-linejoin:miter;stroke-width:1.5;" x="176.256195" xlink:href="#mcde5ae0502" y="28.156909"/>
     <use style="fill:none;stroke:#6495ed;stroke-linejoin:miter;stroke-width:1.5;" x="176.256195" xlink:href="#mcde5ae0502" y="27.506535"/>
     <use style="fill:none;stroke:#6495ed;stroke-linejoin:miter;stroke-width:1.5;" x="333.569032" xlink:href="#mcde5ae0502" y="27.506535"/>
    </g>
   </g>
   <g id="line2d_38"/>
   <g id="line2d_39">
    <path clip-path="url(#p833003d310)" d="M 124.612116 215.464709 
" style="fill:none;stroke:#6495ed;stroke-linecap:square;stroke-width:1.5;"/>
    <defs>
     <path d="M -12 12 
L 12 -12 
M -12 -12 
L 12 12 
" id="m92e964e6fe" style="stroke:#6495ed;stroke-width:3;"/>
    </defs>
    <g clip-path="url(#p833003d310)">
     <use style="fill:#6495ed;stroke:#6495ed;stroke-width:3;" x="124.612116" xlink:href="#m92e964e6fe" y="215.464709"/>
    </g>
   </g>
   <g id="line2d_40">
    <defs>
     <path d="M 0 1.5 
C 0.397805 1.5 0.77937 1.341951 1.06066 1.06066 
C 1.341951 0.77937 1.5 0.397805 1.5 0 
C 1.5 -0.397805 1.341951 -0.77937 1.06066 -1.06066 
C 0.77937 -1.341951 0.397805 -1.5 0 -1.5 
C -0.397805 -1.5 -0.77937 -1.341951 -1.06066 -1.06066 
C -1.341951 -0.77937 -1.5 -0.397805 -1.5 0 
C -1.5 0.397805 -1.341951 0.77937 -1.06066 1.06066 
C -0.77937 1.341951 -0.397805 1.5 0 1.5 
z
" id="mb9e2539167" style="stroke:#ff0000;"/>
    </defs>
    <g>
     <use style="fill:#ff0000;stroke:#ff0000;" x="226.096702" xlink:href="#mb9e2539167" y="27.506535"/>
     <use style="fill:#ff0000;stroke:#ff0000;" x="226.096702" xlink:href="#mb9e2539167" y="27.506535"/>
    </g>
   </g>
   <g id="line2d_41">
    <path d="M 53.008884 294.16 
L 53.008884 281.152514 
L 71.870784 281.152514 
L 71.870784 279.851765 
L 74.517373 279.851765 
L 74.517373 276.599894 
L 76.809952 276.599894 
L 76.809952 273.348022 
L 78.83215 273.348022 
L 78.83215 269.445776 
L 83.771318 269.445776 
L 83.771318 229.122569 
L 163.715256 229.122569 
L 163.81015 191.40086 
L 163.837166 191.40086 
L 163.837166 179.043748 
L 175.574961 179.043748 
L 175.642956 146.525033 
L 182.509053 146.525033 
L 182.590745 127.013803 
L 187.448221 127.013803 
L 187.495922 111.40482 
L 191.290252 111.40482 
L 191.322955 95.795837 
L 194.400487 95.795837 
L 194.445943 80.837228 
L 197.056176 80.837228 
L 197.087343 72.382362 
L 199.348756 72.382362 
L 199.369215 67.179367 
L 201.358818 67.179367 
L 201.392171 59.374876 
L 203.190787 59.374876 
L 203.20442 56.773378 
L 204.811274 56.773378 
L 204.831119 50.269635 
L 206.303297 50.269635 
L 206.321491 46.36739 
L 207.678062 46.36739 
L 207.705346 43.115518 
L 208.954761 43.115518 
L 208.974249 39.213272 
L 210.128495 39.213272 
L 210.148515 37.262149 
L 211.245877 37.262149 
L 211.266341 32.059155 
L 212.302984 32.059155 
L 212.304589 30.758406 
L 213.283615 30.758406 
L 213.283615 30.108032 
L 215.079041 30.108032 
L 215.079041 29.457658 
L 219.584897 29.457658 
L 219.584897 28.807283 
L 222.039043 28.807283 
L 222.039043 28.156909 
L 226.096702 28.156909 
L 226.096702 27.506535 
L 333.569032 27.506535 
L 333.569032 27.506535 
" style="fill:none;stroke:#ff0000;stroke-linecap:square;stroke-width:1.5;"/>
   </g>
   <g id="line2d_42">
    <defs>
     <path d="M 0 -6 
L -5.196152 -3 
L -5.196152 3 
L -0 6 
L 5.196152 3 
L 5.196152 -3 
z
" id="m707a27af42" style="stroke:#ff0000;stroke-linejoin:miter;stroke-width:1.5;"/>
    </defs>
    <g>
     <use style="fill:none;stroke:#ff0000;stroke-linejoin:miter;stroke-width:1.5;" x="83.771318" xlink:href="#m707a27af42" y="269.445776"/>
     <use style="fill:none;stroke:#ff0000;stroke-linejoin:miter;stroke-width:1.5;" x="175.602191" xlink:href="#m707a27af42" y="165.385887"/>
     <use style="fill:none;stroke:#ff0000;stroke-linejoin:miter;stroke-width:1.5;" x="201.370954" xlink:href="#m707a27af42" y="64.57787"/>
     <use style="fill:none;stroke:#ff0000;stroke-linejoin:miter;stroke-width:1.5;" x="226.096702" xlink:href="#m707a27af42" y="28.156909"/>
     <use style="fill:none;stroke:#ff0000;stroke-linejoin:miter;stroke-width:1.5;" x="226.096702" xlink:href="#m707a27af42" y="27.506535"/>
     <use style="fill:none;stroke:#ff0000;stroke-linejoin:miter;stroke-width:1.5;" x="333.569032" xlink:href="#m707a27af42" y="27.506535"/>
    </g>
   </g>
   <g id="line2d_43"/>
   <g id="line2d_44">
    <path clip-path="url(#p833003d310)" d="M 163.647153 229.122569 
" style="fill:none;stroke:#ff0000;stroke-linecap:square;stroke-width:1.5;"/>
    <defs>
     <path d="M -12 12 
L 12 -12 
M -12 -12 
L 12 12 
" id="m5804f245eb" style="stroke:#ff0000;stroke-width:3;"/>
    </defs>
    <g clip-path="url(#p833003d310)">
     <use style="fill:#ff0000;stroke:#ff0000;stroke-width:3;" x="163.647153" xlink:href="#m5804f245eb" y="229.122569"/>
    </g>
   </g>
   <g id="line2d_45">
    <defs>
     <path d="M 0 1.5 
C 0.397805 1.5 0.77937 1.341951 1.06066 1.06066 
C 1.341951 0.77937 1.5 0.397805 1.5 0 
C 1.5 -0.397805 1.341951 -0.77937 1.06066 -1.06066 
C 0.77937 -1.341951 0.397805 -1.5 0 -1.5 
C -0.397805 -1.5 -0.77937 -1.341951 -1.06066 -1.06066 
C -1.341951 -0.77937 -1.5 -0.397805 -1.5 0 
C -1.5 0.397805 -1.341951 0.77937 -1.06066 1.06066 
C -0.77937 1.341951 -0.397805 1.5 0 1.5 
z
" id="m81886a9419" style="stroke:#9acd32;"/>
    </defs>
    <g>
     <use style="fill:#9acd32;stroke:#9acd32;" x="129.683353" xlink:href="#m81886a9419" y="27.506535"/>
     <use style="fill:#9acd32;stroke:#9acd32;" x="129.683353" xlink:href="#m81886a9419" y="27.506535"/>
    </g>
   </g>
   <g id="line2d_46">
    <path d="M 89.751341 294.16 
L 89.751341 273.998397 
L 91.660956 273.998397 
L 91.660956 187.498614 
L 92.541603 187.498614 
L 92.541603 114.006317 
L 126.553103 114.006317 
L 126.553103 80.837228 
L 128.350177 80.837228 
L 128.350177 54.171881 
L 128.667149 54.171881 
L 128.667149 45.066641 
L 129.28406 45.066641 
L 129.28406 35.961401 
L 129.683353 35.961401 
L 129.683353 27.506535 
L 333.569032 27.506535 
" style="fill:none;stroke:#9acd32;stroke-linecap:square;stroke-width:1.5;"/>
   </g>
   <g id="line2d_47">
    <defs>
     <path d="M 0 -6 
L -6 6 
L 6 6 
z
" id="m4323d6e06c" style="stroke:#9acd32;stroke-linejoin:miter;stroke-width:1.5;"/>
    </defs>
    <g>
     <use style="fill:none;stroke:#9acd32;stroke-linejoin:miter;stroke-width:1.5;" x="91.660956" xlink:href="#m4323d6e06c" y="187.498614"/>
     <use style="fill:none;stroke:#9acd32;stroke-linejoin:miter;stroke-width:1.5;" x="128.350177" xlink:href="#m4323d6e06c" y="80.837228"/>
     <use style="fill:none;stroke:#9acd32;stroke-linejoin:miter;stroke-width:1.5;" x="129.683353" xlink:href="#m4323d6e06c" y="35.961401"/>
     <use style="fill:none;stroke:#9acd32;stroke-linejoin:miter;stroke-width:1.5;" x="129.683353" xlink:href="#m4323d6e06c" y="27.506535"/>
     <use style="fill:none;stroke:#9acd32;stroke-linejoin:miter;stroke-width:1.5;" x="333.569032" xlink:href="#m4323d6e06c" y="27.506535"/>
    </g>
   </g>
   <g id="line2d_48"/>
   <g id="line2d_49">
    <defs>
     <path d="M 0 1.5 
C 0.397805 1.5 0.77937 1.341951 1.06066 1.06066 
C 1.341951 0.77937 1.5 0.397805 1.5 0 
C 1.5 -0.397805 1.341951 -0.77937 1.06066 -1.06066 
C 0.77937 -1.341951 0.397805 -1.5 0 -1.5 
C -0.397805 -1.5 -0.77937 -1.341951 -1.06066 -1.06066 
C -1.341951 -0.77937 -1.5 -0.397805 -1.5 0 
C -1.5 0.397805 -1.341951 0.77937 -1.06066 1.06066 
C -0.77937 1.341951 -0.397805 1.5 0 1.5 
z
" id="m7c23cfeef2" style="stroke:#00bfbf;"/>
    </defs>
    <g>
     <use style="fill:#00bfbf;stroke:#00bfbf;" x="117.782819" xlink:href="#m7c23cfeef2" y="235.626312"/>
     <use style="fill:#00bfbf;stroke:#00bfbf;" x="117.782819" xlink:href="#m7c23cfeef2" y="235.626312"/>
    </g>
   </g>
   <g id="line2d_50">
    <path d="M 41.10835 294.16 
L 41.10835 292.208877 
L 48.069716 292.208877 
L 48.069716 291.558503 
L 53.008884 291.558503 
L 53.008884 286.355508 
L 56.84 286.355508 
L 56.84 283.754011 
L 59.97025 283.754011 
L 59.97025 283.103637 
L 62.616839 283.103637 
L 62.616839 282.453262 
L 62.616839 282.453262 
L 62.616839 281.152514 
L 64.909418 281.152514 
L 64.909418 279.851765 
L 66.931616 279.851765 
L 66.931616 279.201391 
L 68.740534 279.201391 
L 68.740534 275.949519 
L 70.3769 275.949519 
L 70.3769 273.998397 
L 71.870784 273.998397 
L 71.870784 272.047274 
L 73.245025 272.047274 
L 73.245025 268.145028 
L 74.517373 268.145028 
L 74.517373 267.494653 
L 75.7019 267.494653 
L 75.7019 266.193905 
L 76.809952 266.193905 
L 76.809952 263.592408 
L 77.850807 263.592408 
L 77.850807 262.942033 
L 77.850807 262.942033 
L 77.850807 262.291659 
L 77.850807 262.291659 
L 77.850807 260.99091 
L 78.83215 260.99091 
L 78.83215 259.690162 
L 78.83215 259.690162 
L 78.83215 259.039787 
L 79.760422 259.039787 
L 79.760422 257.088665 
L 81.478739 257.088665 
L 81.478739 255.787916 
L 82.277434 255.787916 
L 82.277434 255.137542 
L 83.040619 255.137542 
L 83.040619 252.536044 
L 83.040619 252.536044 
L 83.040619 251.88567 
L 83.771318 251.88567 
L 83.771318 251.235296 
L 83.771318 251.235296 
L 83.771318 250.584922 
L 84.472185 250.584922 
L 84.472185 249.284173 
L 85.793517 249.284173 
L 85.793517 247.983424 
L 86.417907 247.983424 
L 86.417907 247.33305 
L 86.417907 247.33305 
L 86.417907 246.682676 
L 87.020384 246.682676 
L 87.020384 246.032301 
L 87.602435 246.032301 
L 87.602435 244.731553 
L 87.602435 244.731553 
L 87.602435 244.081178 
L 88.710486 244.081178 
L 88.710486 243.430804 
L 89.751341 243.430804 
L 89.751341 242.78043 
L 91.660956 242.78043 
L 91.660956 242.130056 
L 95.31039 242.130056 
L 95.31039 240.829307 
L 97.046093 240.829307 
L 97.046093 240.178933 
L 98.622322 240.178933 
L 98.622322 239.528558 
L 99.21441 239.528558 
L 99.21441 238.878184 
L 101.902519 238.878184 
L 101.902519 237.577435 
L 103.56149 237.577435 
L 103.56149 236.927061 
L 110.218975 236.927061 
L 110.218975 236.276687 
L 117.782819 236.276687 
L 117.782819 235.626312 
L 333.569032 235.626312 
" style="fill:none;stroke:#00bfbf;stroke-linecap:square;stroke-width:1.5;"/>
   </g>
   <g id="line2d_51">
    <defs>
     <path d="M 0 -6 
L -5.706339 -1.854102 
L -3.526712 4.854102 
L 3.526712 4.854102 
L 5.706339 -1.854102 
z
" id="mb57ced90eb" style="stroke:#00bfbf;stroke-linejoin:miter;stroke-width:1.5;"/>
    </defs>
    <g>
     <use style="fill:none;stroke:#00bfbf;stroke-linejoin:miter;stroke-width:1.5;" x="103.56149" xlink:href="#mb57ced90eb" y="236.927061"/>
     <use style="fill:none;stroke:#00bfbf;stroke-linejoin:miter;stroke-width:1.5;" x="117.782819" xlink:href="#mb57ced90eb" y="236.276687"/>
     <use style="fill:none;stroke:#00bfbf;stroke-linejoin:miter;stroke-width:1.5;" x="117.782819" xlink:href="#mb57ced90eb" y="235.626312"/>
     <use style="fill:none;stroke:#00bfbf;stroke-linejoin:miter;stroke-width:1.5;" x="117.782819" xlink:href="#mb57ced90eb" y="235.626312"/>
     <use style="fill:none;stroke:#00bfbf;stroke-linejoin:miter;stroke-width:1.5;" x="117.782819" xlink:href="#mb57ced90eb" y="235.626312"/>
     <use style="fill:none;stroke:#00bfbf;stroke-linejoin:miter;stroke-width:1.5;" x="333.569032" xlink:href="#mb57ced90eb" y="235.626312"/>
    </g>
   </g>
   <g id="line2d_52"/>
   <g id="line2d_53">
    <path clip-path="url(#p833003d310)" d="M 29.207815 294.16 
" style="fill:none;stroke:#00bfbf;stroke-linecap:square;stroke-width:1.5;"/>
    <defs>
     <path d="M -12 12 
L 12 -12 
M -12 -12 
L 12 12 
" id="m640cc53f3e" style="stroke:#00bfbf;stroke-width:3;"/>
    </defs>
    <g clip-path="url(#p833003d310)">
     <use style="fill:#00bfbf;stroke:#00bfbf;stroke-width:3;" x="29.207815" xlink:href="#m640cc53f3e" y="294.16"/>
    </g>
   </g>
   <g id="line2d_54">
    <path d="M 333.569032 294.16 
L 364.009226 288.826931 
" style="fill:none;stroke:#000080;stroke-linecap:square;stroke-width:1.5;"/>
    <g>
     <use style="fill:none;stroke:#000080;stroke-width:1.5;" x="333.569032" xlink:href="#maf73d5ae0d" y="294.16"/>
     <use style="fill:none;stroke:#000080;stroke-width:1.5;" x="364.009226" xlink:href="#maf73d5ae0d" y="288.826931"/>
    </g>
   </g>
   <g id="line2d_55">
    <path d="M 333.569032 235.626312 
L 364.009226 246.162376 
" style="fill:none;stroke:#00bfbf;stroke-linecap:square;stroke-width:1.5;"/>
    <g>
     <use style="fill:none;stroke:#00bfbf;stroke-linejoin:miter;stroke-width:1.5;" x="333.569032" xlink:href="#mb57ced90eb" y="235.626312"/>
     <use style="fill:none;stroke:#00bfbf;stroke-linejoin:miter;stroke-width:1.5;" x="364.009226" xlink:href="#mb57ced90eb" y="246.162376"/>
    </g>
   </g>
   <g id="line2d_56">
    <path d="M 333.569032 27.506535 
L 364.009226 203.497822 
" style="fill:none;stroke:#ff0000;stroke-linecap:square;stroke-width:1.5;"/>
    <g>
     <use style="fill:none;stroke:#ff0000;stroke-linejoin:miter;stroke-width:1.5;" x="333.569032" xlink:href="#m707a27af42" y="27.506535"/>
     <use style="fill:none;stroke:#ff0000;stroke-linejoin:miter;stroke-width:1.5;" x="364.009226" xlink:href="#m707a27af42" y="203.497822"/>
    </g>
   </g>
   <g id="line2d_57">
    <path d="M 333.569032 27.506535 
L 364.009226 160.833267 
" style="fill:none;stroke:#6495ed;stroke-linecap:square;stroke-width:1.5;"/>
    <g>
     <use style="fill:none;stroke:#6495ed;stroke-linejoin:miter;stroke-width:1.5;" x="333.569032" xlink:href="#mcde5ae0502" y="27.506535"/>
     <use style="fill:none;stroke:#6495ed;stroke-linejoin:miter;stroke-width:1.5;" x="364.009226" xlink:href="#mcde5ae0502" y="160.833267"/>
    </g>
   </g>
   <g id="line2d_58">
    <path d="M 333.569032 27.506535 
L 364.009226 118.168713 
" style="fill:none;stroke:#ff00ff;stroke-linecap:square;stroke-width:1.5;"/>
    <g>
     <use style="fill:none;stroke:#ff00ff;stroke-linejoin:miter;stroke-width:1.5;" x="333.569032" xlink:href="#mb2da23dfca" y="27.506535"/>
     <use style="fill:none;stroke:#ff00ff;stroke-linejoin:miter;stroke-width:1.5;" x="364.009226" xlink:href="#mb2da23dfca" y="118.168713"/>
    </g>
   </g>
   <g id="line2d_59">
    <path d="M 333.569032 27.506535 
L 364.009226 75.504158 
" style="fill:none;stroke:#ffa500;stroke-linecap:square;stroke-width:1.5;"/>
    <g>
     <use style="fill:none;stroke:#ffa500;stroke-linejoin:bevel;stroke-width:1.5;" x="333.569032" xlink:href="#m97c83c7fc7" y="27.506535"/>
     <use style="fill:none;stroke:#ffa500;stroke-linejoin:bevel;stroke-width:1.5;" x="364.009226" xlink:href="#m97c83c7fc7" y="75.504158"/>
    </g>
   </g>
   <g id="line2d_60">
    <path d="M 333.569032 27.506535 
L 364.009226 32.839604 
" style="fill:none;stroke:#9acd32;stroke-linecap:square;stroke-width:1.5;"/>
    <g>
     <use style="fill:none;stroke:#9acd32;stroke-linejoin:miter;stroke-width:1.5;" x="333.569032" xlink:href="#m4323d6e06c" y="27.506535"/>
     <use style="fill:none;stroke:#9acd32;stroke-linejoin:miter;stroke-width:1.5;" x="364.009226" xlink:href="#m4323d6e06c" y="32.839604"/>
    </g>
   </g>
   <g id="line2d_61">
    <path d="M 333.569032 294.16 
L 333.569032 27.506535 
" style="fill:none;stroke:#000000;stroke-linecap:square;stroke-width:1.5;"/>
   </g>
   <g id="patch_3">
    <path d="M 56.84 294.16 
L 56.84 24.84 
" style="fill:none;stroke:#000000;stroke-linecap:square;stroke-linejoin:miter;stroke-width:0.8;"/>
   </g>
   <g id="patch_4">
    <path d="M 399.984 294.16 
L 399.984 24.84 
" style="fill:none;stroke:#000000;stroke-linecap:square;stroke-linejoin:miter;stroke-width:0.8;"/>
   </g>
   <g id="patch_5">
    <path d="M 56.84 294.16 
L 399.984 294.16 
" style="fill:none;stroke:#000000;stroke-linecap:square;stroke-linejoin:miter;stroke-width:0.8;"/>
   </g>
   <g id="patch_6">
    <path d="M 56.84 24.84 
L 399.984 24.84 
" style="fill:none;stroke:#000000;stroke-linecap:square;stroke-linejoin:miter;stroke-width:0.8;"/>
   </g>
   <g id="text_14">
    <!-- cma-noconstraints on bbob-constrained budge -->
    <defs>
     <path d="M 48.6875 27.296875 
Q 48.6875 37.203125 44.609375 42.84375 
Q 40.53125 48.484375 33.40625 48.484375 
Q 26.265625 48.484375 22.1875 42.84375 
Q 18.109375 37.203125 18.109375 27.296875 
Q 18.109375 17.390625 22.1875 11.75 
Q 26.265625 6.109375 33.40625 6.109375 
Q 40.53125 6.109375 44.609375 11.75 
Q 48.6875 17.390625 48.6875 27.296875 
z
M 18.109375 46.390625 
Q 20.953125 51.265625 25.265625 53.625 
Q 29.59375 56 35.59375 56 
Q 45.5625 56 51.78125 48.09375 
Q 58.015625 40.1875 58.015625 27.296875 
Q 58.015625 14.40625 51.78125 6.484375 
Q 45.5625 -1.421875 35.59375 -1.421875 
Q 29.59375 -1.421875 25.265625 0.953125 
Q 20.953125 3.328125 18.109375 8.203125 
L 18.109375 0 
L 9.078125 0 
L 9.078125 75.984375 
L 18.109375 75.984375 
z
" id="DejaVuSans-62"/>
    </defs>
    <g transform="translate(369.543806 293.517868)scale(0.17 -0.17)">
     <use xlink:href="#DejaVuSans-63"/>
     <use x="54.980469" xlink:href="#DejaVuSans-6d"/>
     <use x="152.392578" xlink:href="#DejaVuSans-61"/>
     <use x="213.671875" xlink:href="#DejaVuSans-2d"/>
     <use x="249.755859" xlink:href="#DejaVuSans-6e"/>
     <use x="313.134766" xlink:href="#DejaVuSans-6f"/>
     <use x="374.316406" xlink:href="#DejaVuSans-63"/>
     <use x="429.296875" xlink:href="#DejaVuSans-6f"/>
     <use x="490.478516" xlink:href="#DejaVuSans-6e"/>
     <use x="553.857422" xlink:href="#DejaVuSans-73"/>
     <use x="605.957031" xlink:href="#DejaVuSans-74"/>
     <use x="645.166016" xlink:href="#DejaVuSans-72"/>
     <use x="686.279297" xlink:href="#DejaVuSans-61"/>
     <use x="747.558594" xlink:href="#DejaVuSans-69"/>
     <use x="775.341797" xlink:href="#DejaVuSans-6e"/>
     <use x="838.720703" xlink:href="#DejaVuSans-74"/>
     <use x="877.929688" xlink:href="#DejaVuSans-73"/>
     <use x="930.029297" xlink:href="#DejaVuSans-20"/>
     <use x="961.816406" xlink:href="#DejaVuSans-6f"/>
     <use x="1022.998047" xlink:href="#DejaVuSans-6e"/>
     <use x="1086.376953" xlink:href="#DejaVuSans-20"/>
     <use x="1118.164062" xlink:href="#DejaVuSans-62"/>
     <use x="1181.640625" xlink:href="#DejaVuSans-62"/>
     <use x="1245.117188" xlink:href="#DejaVuSans-6f"/>
     <use x="1306.298828" xlink:href="#DejaVuSans-62"/>
     <use x="1369.775391" xlink:href="#DejaVuSans-2d"/>
     <use x="1405.859375" xlink:href="#DejaVuSans-63"/>
     <use x="1460.839844" xlink:href="#DejaVuSans-6f"/>
     <use x="1522.021484" xlink:href="#DejaVuSans-6e"/>
     <use x="1585.400391" xlink:href="#DejaVuSans-73"/>
     <use x="1637.5" xlink:href="#DejaVuSans-74"/>
     <use x="1676.708984" xlink:href="#DejaVuSans-72"/>
     <use x="1717.822266" xlink:href="#DejaVuSans-61"/>
     <use x="1779.101562" xlink:href="#DejaVuSans-69"/>
     <use x="1806.884766" xlink:href="#DejaVuSans-6e"/>
     <use x="1870.263672" xlink:href="#DejaVuSans-65"/>
     <use x="1931.787109" xlink:href="#DejaVuSans-64"/>
     <use x="1995.263672" xlink:href="#DejaVuSans-20"/>
     <use x="2027.050781" xlink:href="#DejaVuSans-62"/>
     <use x="2090.527344" xlink:href="#DejaVuSans-75"/>
     <use x="2153.90625" xlink:href="#DejaVuSans-64"/>
     <use x="2217.382812" xlink:href="#DejaVuSans-67"/>
     <use x="2280.859375" xlink:href="#DejaVuSans-65"/>
    </g>
   </g>
   <g id="text_15">
    <!-- random search on bbob-constrained budget000 -->
    <defs>
     <path d="M 54.890625 33.015625 
L 54.890625 0 
L 45.90625 0 
L 45.90625 32.71875 
Q 45.90625 40.484375 42.875 44.328125 
Q 39.84375 48.1875 33.796875 48.1875 
Q 26.515625 48.1875 22.3125 43.546875 
Q 18.109375 38.921875 18.109375 30.90625 
L 18.109375 0 
L 9.078125 0 
L 9.078125 75.984375 
L 18.109375 75.984375 
L 18.109375 46.1875 
Q 21.34375 51.125 25.703125 53.5625 
Q 30.078125 56 35.796875 56 
Q 45.21875 56 50.046875 50.171875 
Q 54.890625 44.34375 54.890625 33.015625 
z
" id="DejaVuSans-68"/>
    </defs>
    <g transform="translate(369.543806 250.853314)scale(0.17 -0.17)">
     <use xlink:href="#DejaVuSans-72"/>
     <use x="41.113281" xlink:href="#DejaVuSans-61"/>
     <use x="102.392578" xlink:href="#DejaVuSans-6e"/>
     <use x="165.771484" xlink:href="#DejaVuSans-64"/>
     <use x="229.248047" xlink:href="#DejaVuSans-6f"/>
     <use x="290.429688" xlink:href="#DejaVuSans-6d"/>
     <use x="387.841797" xlink:href="#DejaVuSans-20"/>
     <use x="419.628906" xlink:href="#DejaVuSans-73"/>
     <use x="471.728516" xlink:href="#DejaVuSans-65"/>
     <use x="533.251953" xlink:href="#DejaVuSans-61"/>
     <use x="594.53125" xlink:href="#DejaVuSans-72"/>
     <use x="635.613281" xlink:href="#DejaVuSans-63"/>
     <use x="690.59375" xlink:href="#DejaVuSans-68"/>
     <use x="753.972656" xlink:href="#DejaVuSans-20"/>
     <use x="785.759766" xlink:href="#DejaVuSans-6f"/>
     <use x="846.941406" xlink:href="#DejaVuSans-6e"/>
     <use x="910.320312" xlink:href="#DejaVuSans-20"/>
     <use x="942.107422" xlink:href="#DejaVuSans-62"/>
     <use x="1005.583984" xlink:href="#DejaVuSans-62"/>
     <use x="1069.060547" xlink:href="#DejaVuSans-6f"/>
     <use x="1130.242188" xlink:href="#DejaVuSans-62"/>
     <use x="1193.71875" xlink:href="#DejaVuSans-2d"/>
     <use x="1229.802734" xlink:href="#DejaVuSans-63"/>
     <use x="1284.783203" xlink:href="#DejaVuSans-6f"/>
     <use x="1345.964844" xlink:href="#DejaVuSans-6e"/>
     <use x="1409.34375" xlink:href="#DejaVuSans-73"/>
     <use x="1461.443359" xlink:href="#DejaVuSans-74"/>
     <use x="1500.652344" xlink:href="#DejaVuSans-72"/>
     <use x="1541.765625" xlink:href="#DejaVuSans-61"/>
     <use x="1603.044922" xlink:href="#DejaVuSans-69"/>
     <use x="1630.828125" xlink:href="#DejaVuSans-6e"/>
     <use x="1694.207031" xlink:href="#DejaVuSans-65"/>
     <use x="1755.730469" xlink:href="#DejaVuSans-64"/>
     <use x="1819.207031" xlink:href="#DejaVuSans-20"/>
     <use x="1850.994141" xlink:href="#DejaVuSans-62"/>
     <use x="1914.470703" xlink:href="#DejaVuSans-75"/>
     <use x="1977.849609" xlink:href="#DejaVuSans-64"/>
     <use x="2041.326172" xlink:href="#DejaVuSans-67"/>
     <use x="2104.802734" xlink:href="#DejaVuSans-65"/>
     <use x="2166.326172" xlink:href="#DejaVuSans-74"/>
     <use x="2205.535156" xlink:href="#DejaVuSans-30"/>
     <use x="2269.158203" xlink:href="#DejaVuSans-30"/>
     <use x="2332.78125" xlink:href="#DejaVuSans-30"/>
    </g>
   </g>
   <g id="text_16">
    <!-- coby-default on bbob-constrained budget1000 -->
    <defs>
     <path d="M 32.171875 -5.078125 
Q 28.375 -14.84375 24.75 -17.8125 
Q 21.140625 -20.796875 15.09375 -20.796875 
L 7.90625 -20.796875 
L 7.90625 -13.28125 
L 13.1875 -13.28125 
Q 16.890625 -13.28125 18.9375 -11.515625 
Q 21 -9.765625 23.484375 -3.21875 
L 25.09375 0.875 
L 2.984375 54.6875 
L 12.5 54.6875 
L 29.59375 11.921875 
L 46.6875 54.6875 
L 56.203125 54.6875 
z
" id="DejaVuSans-79"/>
    </defs>
    <g transform="translate(369.543806 208.188759)scale(0.17 -0.17)">
     <use xlink:href="#DejaVuSans-63"/>
     <use x="54.980469" xlink:href="#DejaVuSans-6f"/>
     <use x="116.162109" xlink:href="#DejaVuSans-62"/>
     <use x="179.638672" xlink:href="#DejaVuSans-79"/>
     <use x="238.802734" xlink:href="#DejaVuSans-2d"/>
     <use x="274.886719" xlink:href="#DejaVuSans-64"/>
     <use x="338.363281" xlink:href="#DejaVuSans-65"/>
     <use x="399.886719" xlink:href="#DejaVuSans-66"/>
     <use x="435.091797" xlink:href="#DejaVuSans-61"/>
     <use x="496.371094" xlink:href="#DejaVuSans-75"/>
     <use x="559.75" xlink:href="#DejaVuSans-6c"/>
     <use x="587.533203" xlink:href="#DejaVuSans-74"/>
     <use x="626.742188" xlink:href="#DejaVuSans-20"/>
     <use x="658.529297" xlink:href="#DejaVuSans-6f"/>
     <use x="719.710938" xlink:href="#DejaVuSans-6e"/>
     <use x="783.089844" xlink:href="#DejaVuSans-20"/>
     <use x="814.876953" xlink:href="#DejaVuSans-62"/>
     <use x="878.353516" xlink:href="#DejaVuSans-62"/>
     <use x="941.830078" xlink:href="#DejaVuSans-6f"/>
     <use x="1003.011719" xlink:href="#DejaVuSans-62"/>
     <use x="1066.488281" xlink:href="#DejaVuSans-2d"/>
     <use x="1102.572266" xlink:href="#DejaVuSans-63"/>
     <use x="1157.552734" xlink:href="#DejaVuSans-6f"/>
     <use x="1218.734375" xlink:href="#DejaVuSans-6e"/>
     <use x="1282.113281" xlink:href="#DejaVuSans-73"/>
     <use x="1334.212891" xlink:href="#DejaVuSans-74"/>
     <use x="1373.421875" xlink:href="#DejaVuSans-72"/>
     <use x="1414.535156" xlink:href="#DejaVuSans-61"/>
     <use x="1475.814453" xlink:href="#DejaVuSans-69"/>
     <use x="1503.597656" xlink:href="#DejaVuSans-6e"/>
     <use x="1566.976562" xlink:href="#DejaVuSans-65"/>
     <use x="1628.5" xlink:href="#DejaVuSans-64"/>
     <use x="1691.976562" xlink:href="#DejaVuSans-20"/>
     <use x="1723.763672" xlink:href="#DejaVuSans-62"/>
     <use x="1787.240234" xlink:href="#DejaVuSans-75"/>
     <use x="1850.619141" xlink:href="#DejaVuSans-64"/>
     <use x="1914.095703" xlink:href="#DejaVuSans-67"/>
     <use x="1977.572266" xlink:href="#DejaVuSans-65"/>
     <use x="2039.095703" xlink:href="#DejaVuSans-74"/>
     <use x="2078.304688" xlink:href="#DejaVuSans-31"/>
     <use x="2141.927734" xlink:href="#DejaVuSans-30"/>
     <use x="2205.550781" xlink:href="#DejaVuSans-30"/>
     <use x="2269.173828" xlink:href="#DejaVuSans-30"/>
    </g>
   </g>
   <g id="text_17">
    <!-- coby-default on bbob-constrained budget0100 -->
    <g transform="translate(369.543806 165.524205)scale(0.17 -0.17)">
     <use xlink:href="#DejaVuSans-63"/>
     <use x="54.980469" xlink:href="#DejaVuSans-6f"/>
     <use x="116.162109" xlink:href="#DejaVuSans-62"/>
     <use x="179.638672" xlink:href="#DejaVuSans-79"/>
     <use x="238.802734" xlink:href="#DejaVuSans-2d"/>
     <use x="274.886719" xlink:href="#DejaVuSans-64"/>
     <use x="338.363281" xlink:href="#DejaVuSans-65"/>
     <use x="399.886719" xlink:href="#DejaVuSans-66"/>
     <use x="435.091797" xlink:href="#DejaVuSans-61"/>
     <use x="496.371094" xlink:href="#DejaVuSans-75"/>
     <use x="559.75" xlink:href="#DejaVuSans-6c"/>
     <use x="587.533203" xlink:href="#DejaVuSans-74"/>
     <use x="626.742188" xlink:href="#DejaVuSans-20"/>
     <use x="658.529297" xlink:href="#DejaVuSans-6f"/>
     <use x="719.710938" xlink:href="#DejaVuSans-6e"/>
     <use x="783.089844" xlink:href="#DejaVuSans-20"/>
     <use x="814.876953" xlink:href="#DejaVuSans-62"/>
     <use x="878.353516" xlink:href="#DejaVuSans-62"/>
     <use x="941.830078" xlink:href="#DejaVuSans-6f"/>
     <use x="1003.011719" xlink:href="#DejaVuSans-62"/>
     <use x="1066.488281" xlink:href="#DejaVuSans-2d"/>
     <use x="1102.572266" xlink:href="#DejaVuSans-63"/>
     <use x="1157.552734" xlink:href="#DejaVuSans-6f"/>
     <use x="1218.734375" xlink:href="#DejaVuSans-6e"/>
     <use x="1282.113281" xlink:href="#DejaVuSans-73"/>
     <use x="1334.212891" xlink:href="#DejaVuSans-74"/>
     <use x="1373.421875" xlink:href="#DejaVuSans-72"/>
     <use x="1414.535156" xlink:href="#DejaVuSans-61"/>
     <use x="1475.814453" xlink:href="#DejaVuSans-69"/>
     <use x="1503.597656" xlink:href="#DejaVuSans-6e"/>
     <use x="1566.976562" xlink:href="#DejaVuSans-65"/>
     <use x="1628.5" xlink:href="#DejaVuSans-64"/>
     <use x="1691.976562" xlink:href="#DejaVuSans-20"/>
     <use x="1723.763672" xlink:href="#DejaVuSans-62"/>
     <use x="1787.240234" xlink:href="#DejaVuSans-75"/>
     <use x="1850.619141" xlink:href="#DejaVuSans-64"/>
     <use x="1914.095703" xlink:href="#DejaVuSans-67"/>
     <use x="1977.572266" xlink:href="#DejaVuSans-65"/>
     <use x="2039.095703" xlink:href="#DejaVuSans-74"/>
     <use x="2078.304688" xlink:href="#DejaVuSans-30"/>
     <use x="2141.927734" xlink:href="#DejaVuSans-31"/>
     <use x="2205.550781" xlink:href="#DejaVuSans-30"/>
     <use x="2269.173828" xlink:href="#DejaVuSans-30"/>
    </g>
   </g>
   <g id="text_18">
    <!-- coby-1e-9 budget0998xD -->
    <defs>
     <path d="M 10.984375 1.515625 
L 10.984375 10.5 
Q 14.703125 8.734375 18.5 7.8125 
Q 22.3125 6.890625 25.984375 6.890625 
Q 35.75 6.890625 40.890625 13.453125 
Q 46.046875 20.015625 46.78125 33.40625 
Q 43.953125 29.203125 39.59375 26.953125 
Q 35.25 24.703125 29.984375 24.703125 
Q 19.046875 24.703125 12.671875 31.3125 
Q 6.296875 37.9375 6.296875 49.421875 
Q 6.296875 60.640625 12.9375 67.421875 
Q 19.578125 74.21875 30.609375 74.21875 
Q 43.265625 74.21875 49.921875 64.515625 
Q 56.59375 54.828125 56.59375 36.375 
Q 56.59375 19.140625 48.40625 8.859375 
Q 40.234375 -1.421875 26.421875 -1.421875 
Q 22.703125 -1.421875 18.890625 -0.6875 
Q 15.09375 0.046875 10.984375 1.515625 
z
M 30.609375 32.421875 
Q 37.25 32.421875 41.125 36.953125 
Q 45.015625 41.5 45.015625 49.421875 
Q 45.015625 57.28125 41.125 61.84375 
Q 37.25 66.40625 30.609375 66.40625 
Q 23.96875 66.40625 20.09375 61.84375 
Q 16.21875 57.28125 16.21875 49.421875 
Q 16.21875 41.5 20.09375 36.953125 
Q 23.96875 32.421875 30.609375 32.421875 
z
" id="DejaVuSans-39"/>
     <path d="M 54.890625 54.6875 
L 35.109375 28.078125 
L 55.90625 0 
L 45.3125 0 
L 29.390625 21.484375 
L 13.484375 0 
L 2.875 0 
L 24.125 28.609375 
L 4.6875 54.6875 
L 15.28125 54.6875 
L 29.78125 35.203125 
L 44.28125 54.6875 
z
" id="DejaVuSans-78"/>
     <path d="M 19.671875 64.796875 
L 19.671875 8.109375 
L 31.59375 8.109375 
Q 46.6875 8.109375 53.6875 14.9375 
Q 60.6875 21.78125 60.6875 36.53125 
Q 60.6875 51.171875 53.6875 57.984375 
Q 46.6875 64.796875 31.59375 64.796875 
z
M 9.8125 72.90625 
L 30.078125 72.90625 
Q 51.265625 72.90625 61.171875 64.09375 
Q 71.09375 55.28125 71.09375 36.53125 
Q 71.09375 17.671875 61.125 8.828125 
Q 51.171875 0 30.078125 0 
L 9.8125 0 
z
" id="DejaVuSans-44"/>
    </defs>
    <g transform="translate(369.543806 122.85965)scale(0.17 -0.17)">
     <use xlink:href="#DejaVuSans-63"/>
     <use x="54.980469" xlink:href="#DejaVuSans-6f"/>
     <use x="116.162109" xlink:href="#DejaVuSans-62"/>
     <use x="179.638672" xlink:href="#DejaVuSans-79"/>
     <use x="238.802734" xlink:href="#DejaVuSans-2d"/>
     <use x="274.886719" xlink:href="#DejaVuSans-31"/>
     <use x="338.509766" xlink:href="#DejaVuSans-65"/>
     <use x="400.033203" xlink:href="#DejaVuSans-2d"/>
     <use x="436.117188" xlink:href="#DejaVuSans-39"/>
     <use x="499.740234" xlink:href="#DejaVuSans-20"/>
     <use x="531.527344" xlink:href="#DejaVuSans-62"/>
     <use x="595.003906" xlink:href="#DejaVuSans-75"/>
     <use x="658.382812" xlink:href="#DejaVuSans-64"/>
     <use x="721.859375" xlink:href="#DejaVuSans-67"/>
     <use x="785.335938" xlink:href="#DejaVuSans-65"/>
     <use x="846.859375" xlink:href="#DejaVuSans-74"/>
     <use x="886.068359" xlink:href="#DejaVuSans-30"/>
     <use x="949.691406" xlink:href="#DejaVuSans-39"/>
     <use x="1013.314453" xlink:href="#DejaVuSans-39"/>
     <use x="1076.9375" xlink:href="#DejaVuSans-38"/>
     <use x="1140.560547" xlink:href="#DejaVuSans-78"/>
     <use x="1199.740234" xlink:href="#DejaVuSans-44"/>
    </g>
   </g>
   <g id="text_19">
    <!-- coby-default on bbob-constrained budget0007 -->
    <defs>
     <path d="M 8.203125 72.90625 
L 55.078125 72.90625 
L 55.078125 68.703125 
L 28.609375 0 
L 18.3125 0 
L 43.21875 64.59375 
L 8.203125 64.59375 
z
" id="DejaVuSans-37"/>
    </defs>
    <g transform="translate(369.543806 80.195096)scale(0.17 -0.17)">
     <use xlink:href="#DejaVuSans-63"/>
     <use x="54.980469" xlink:href="#DejaVuSans-6f"/>
     <use x="116.162109" xlink:href="#DejaVuSans-62"/>
     <use x="179.638672" xlink:href="#DejaVuSans-79"/>
     <use x="238.802734" xlink:href="#DejaVuSans-2d"/>
     <use x="274.886719" xlink:href="#DejaVuSans-64"/>
     <use x="338.363281" xlink:href="#DejaVuSans-65"/>
     <use x="399.886719" xlink:href="#DejaVuSans-66"/>
     <use x="435.091797" xlink:href="#DejaVuSans-61"/>
     <use x="496.371094" xlink:href="#DejaVuSans-75"/>
     <use x="559.75" xlink:href="#DejaVuSans-6c"/>
     <use x="587.533203" xlink:href="#DejaVuSans-74"/>
     <use x="626.742188" xlink:href="#DejaVuSans-20"/>
     <use x="658.529297" xlink:href="#DejaVuSans-6f"/>
     <use x="719.710938" xlink:href="#DejaVuSans-6e"/>
     <use x="783.089844" xlink:href="#DejaVuSans-20"/>
     <use x="814.876953" xlink:href="#DejaVuSans-62"/>
     <use x="878.353516" xlink:href="#DejaVuSans-62"/>
     <use x="941.830078" xlink:href="#DejaVuSans-6f"/>
     <use x="1003.011719" xlink:href="#DejaVuSans-62"/>
     <use x="1066.488281" xlink:href="#DejaVuSans-2d"/>
     <use x="1102.572266" xlink:href="#DejaVuSans-63"/>
     <use x="1157.552734" xlink:href="#DejaVuSans-6f"/>
     <use x="1218.734375" xlink:href="#DejaVuSans-6e"/>
     <use x="1282.113281" xlink:href="#DejaVuSans-73"/>
     <use x="1334.212891" xlink:href="#DejaVuSans-74"/>
     <use x="1373.421875" xlink:href="#DejaVuSans-72"/>
     <use x="1414.535156" xlink:href="#DejaVuSans-61"/>
     <use x="1475.814453" xlink:href="#DejaVuSans-69"/>
     <use x="1503.597656" xlink:href="#DejaVuSans-6e"/>
     <use x="1566.976562" xlink:href="#DejaVuSans-65"/>
     <use x="1628.5" xlink:href="#DejaVuSans-64"/>
     <use x="1691.976562" xlink:href="#DejaVuSans-20"/>
     <use x="1723.763672" xlink:href="#DejaVuSans-62"/>
     <use x="1787.240234" xlink:href="#DejaVuSans-75"/>
     <use x="1850.619141" xlink:href="#DejaVuSans-64"/>
     <use x="1914.095703" xlink:href="#DejaVuSans-67"/>
     <use x="1977.572266" xlink:href="#DejaVuSans-65"/>
     <use x="2039.095703" xlink:href="#DejaVuSans-74"/>
     <use x="2078.304688" xlink:href="#DejaVuSans-30"/>
     <use x="2141.927734" xlink:href="#DejaVuSans-30"/>
     <use x="2205.550781" xlink:href="#DejaVuSans-30"/>
     <use x="2269.173828" xlink:href="#DejaVuSans-37"/>
    </g>
   </g>
   <g id="text_20">
    <!-- coby 1e-7-budget0999xD -->
    <g transform="translate(369.543806 37.530541)scale(0.17 -0.17)">
     <use xlink:href="#DejaVuSans-63"/>
     <use x="54.980469" xlink:href="#DejaVuSans-6f"/>
     <use x="116.162109" xlink:href="#DejaVuSans-62"/>
     <use x="179.638672" xlink:href="#DejaVuSans-79"/>
     <use x="238.818359" xlink:href="#DejaVuSans-20"/>
     <use x="270.605469" xlink:href="#DejaVuSans-31"/>
     <use x="334.228516" xlink:href="#DejaVuSans-65"/>
     <use x="395.751953" xlink:href="#DejaVuSans-2d"/>
     <use x="431.835938" xlink:href="#DejaVuSans-37"/>
     <use x="495.458984" xlink:href="#DejaVuSans-2d"/>
     <use x="531.542969" xlink:href="#DejaVuSans-62"/>
     <use x="595.019531" xlink:href="#DejaVuSans-75"/>
     <use x="658.398438" xlink:href="#DejaVuSans-64"/>
     <use x="721.875" xlink:href="#DejaVuSans-67"/>
     <use x="785.351562" xlink:href="#DejaVuSans-65"/>
     <use x="846.875" xlink:href="#DejaVuSans-74"/>
     <use x="886.083984" xlink:href="#DejaVuSans-30"/>
     <use x="949.707031" xlink:href="#DejaVuSans-39"/>
     <use x="1013.330078" xlink:href="#DejaVuSans-39"/>
     <use x="1076.953125" xlink:href="#DejaVuSans-39"/>
     <use x="1140.576172" xlink:href="#DejaVuSans-78"/>
     <use x="1199.755859" xlink:href="#DejaVuSans-44"/>
    </g>
   </g>
   <g id="text_21">
    <!-- bbob-constrained f17, 5-D -->
    <defs>
     <path d="M 10.796875 72.90625 
L 49.515625 72.90625 
L 49.515625 64.59375 
L 19.828125 64.59375 
L 19.828125 46.734375 
Q 21.96875 47.46875 24.109375 47.828125 
Q 26.265625 48.1875 28.421875 48.1875 
Q 40.625 48.1875 47.75 41.5 
Q 54.890625 34.8125 54.890625 23.390625 
Q 54.890625 11.625 47.5625 5.09375 
Q 40.234375 -1.421875 26.90625 -1.421875 
Q 22.3125 -1.421875 17.546875 -0.640625 
Q 12.796875 0.140625 7.71875 1.703125 
L 7.71875 11.625 
Q 12.109375 9.234375 16.796875 8.0625 
Q 21.484375 6.890625 26.703125 6.890625 
Q 35.15625 6.890625 40.078125 11.328125 
Q 45.015625 15.765625 45.015625 23.390625 
Q 45.015625 31 40.078125 35.4375 
Q 35.15625 39.890625 26.703125 39.890625 
Q 22.75 39.890625 18.8125 39.015625 
Q 14.890625 38.140625 10.796875 36.28125 
z
" id="DejaVuSans-35"/>
    </defs>
    <g transform="translate(60.27144 35.283606)scale(0.102 -0.102)">
     <use xlink:href="#DejaVuSans-62"/>
     <use x="63.476562" xlink:href="#DejaVuSans-62"/>
     <use x="126.953125" xlink:href="#DejaVuSans-6f"/>
     <use x="188.134766" xlink:href="#DejaVuSans-62"/>
     <use x="251.611328" xlink:href="#DejaVuSans-2d"/>
     <use x="287.695312" xlink:href="#DejaVuSans-63"/>
     <use x="342.675781" xlink:href="#DejaVuSans-6f"/>
     <use x="403.857422" xlink:href="#DejaVuSans-6e"/>
     <use x="467.236328" xlink:href="#DejaVuSans-73"/>
     <use x="519.335938" xlink:href="#DejaVuSans-74"/>
     <use x="558.544922" xlink:href="#DejaVuSans-72"/>
     <use x="599.658203" xlink:href="#DejaVuSans-61"/>
     <use x="660.9375" xlink:href="#DejaVuSans-69"/>
     <use x="688.720703" xlink:href="#DejaVuSans-6e"/>
     <use x="752.099609" xlink:href="#DejaVuSans-65"/>
     <use x="813.623047" xlink:href="#DejaVuSans-64"/>
     <use x="877.099609" xlink:href="#DejaVuSans-20"/>
     <use x="908.886719" xlink:href="#DejaVuSans-66"/>
     <use x="944.091797" xlink:href="#DejaVuSans-31"/>
     <use x="1007.714844" xlink:href="#DejaVuSans-37"/>
     <use x="1071.337891" xlink:href="#DejaVuSans-2c"/>
     <use x="1103.125" xlink:href="#DejaVuSans-20"/>
     <use x="1134.912109" xlink:href="#DejaVuSans-35"/>
     <use x="1198.535156" xlink:href="#DejaVuSans-2d"/>
     <use x="1234.619141" xlink:href="#DejaVuSans-44"/>
    </g>
    <!-- 41 targets: 100..1e-06 -->
    <defs>
     <path d="M 11.71875 12.40625 
L 22.015625 12.40625 
L 22.015625 0 
L 11.71875 0 
z
M 11.71875 51.703125 
L 22.015625 51.703125 
L 22.015625 39.3125 
L 11.71875 39.3125 
z
" id="DejaVuSans-3a"/>
    </defs>
    <g transform="translate(60.27144 46.705375)scale(0.102 -0.102)">
     <use xlink:href="#DejaVuSans-34"/>
     <use x="63.623047" xlink:href="#DejaVuSans-31"/>
     <use x="127.246094" xlink:href="#DejaVuSans-20"/>
     <use x="159.033203" xlink:href="#DejaVuSans-74"/>
     <use x="198.242188" xlink:href="#DejaVuSans-61"/>
     <use x="259.521484" xlink:href="#DejaVuSans-72"/>
     <use x="300.619141" xlink:href="#DejaVuSans-67"/>
     <use x="364.095703" xlink:href="#DejaVuSans-65"/>
     <use x="425.619141" xlink:href="#DejaVuSans-74"/>
     <use x="464.828125" xlink:href="#DejaVuSans-73"/>
     <use x="516.927734" xlink:href="#DejaVuSans-3a"/>
     <use x="550.619141" xlink:href="#DejaVuSans-20"/>
     <use x="582.40625" xlink:href="#DejaVuSans-31"/>
     <use x="646.029297" xlink:href="#DejaVuSans-30"/>
     <use x="709.652344" xlink:href="#DejaVuSans-30"/>
     <use x="773.275391" xlink:href="#DejaVuSans-2e"/>
     <use x="805.0625" xlink:href="#DejaVuSans-2e"/>
     <use x="836.849609" xlink:href="#DejaVuSans-31"/>
     <use x="900.472656" xlink:href="#DejaVuSans-65"/>
     <use x="961.996094" xlink:href="#DejaVuSans-2d"/>
     <use x="998.080078" xlink:href="#DejaVuSans-30"/>
     <use x="1061.703125" xlink:href="#DejaVuSans-36"/>
    </g>
    <!-- 3, 5, 15 instances -->
    <defs>
     <path d="M 40.578125 39.3125 
Q 47.65625 37.796875 51.625 33 
Q 55.609375 28.21875 55.609375 21.1875 
Q 55.609375 10.40625 48.1875 4.484375 
Q 40.765625 -1.421875 27.09375 -1.421875 
Q 22.515625 -1.421875 17.65625 -0.515625 
Q 12.796875 0.390625 7.625 2.203125 
L 7.625 11.71875 
Q 11.71875 9.328125 16.59375 8.109375 
Q 21.484375 6.890625 26.8125 6.890625 
Q 36.078125 6.890625 40.9375 10.546875 
Q 45.796875 14.203125 45.796875 21.1875 
Q 45.796875 27.640625 41.28125 31.265625 
Q 36.765625 34.90625 28.71875 34.90625 
L 20.21875 34.90625 
L 20.21875 43.015625 
L 29.109375 43.015625 
Q 36.375 43.015625 40.234375 45.921875 
Q 44.09375 48.828125 44.09375 54.296875 
Q 44.09375 59.90625 40.109375 62.90625 
Q 36.140625 65.921875 28.71875 65.921875 
Q 24.65625 65.921875 20.015625 65.03125 
Q 15.375 64.15625 9.8125 62.3125 
L 9.8125 71.09375 
Q 15.4375 72.65625 20.34375 73.4375 
Q 25.25 74.21875 29.59375 74.21875 
Q 40.828125 74.21875 47.359375 69.109375 
Q 53.90625 64.015625 53.90625 55.328125 
Q 53.90625 49.265625 50.4375 45.09375 
Q 46.96875 40.921875 40.578125 39.3125 
z
" id="DejaVuSans-33"/>
    </defs>
    <g transform="translate(60.27144 58.127144)scale(0.102 -0.102)">
     <use xlink:href="#DejaVuSans-33"/>
     <use x="63.623047" xlink:href="#DejaVuSans-2c"/>
     <use x="95.410156" xlink:href="#DejaVuSans-20"/>
     <use x="127.197266" xlink:href="#DejaVuSans-35"/>
     <use x="190.820312" xlink:href="#DejaVuSans-2c"/>
     <use x="222.607422" xlink:href="#DejaVuSans-20"/>
     <use x="254.394531" xlink:href="#DejaVuSans-31"/>
     <use x="318.017578" xlink:href="#DejaVuSans-35"/>
     <use x="381.640625" xlink:href="#DejaVuSans-20"/>
     <use x="413.427734" xlink:href="#DejaVuSans-69"/>
     <use x="441.210938" xlink:href="#DejaVuSans-6e"/>
     <use x="504.589844" xlink:href="#DejaVuSans-73"/>
     <use x="556.689453" xlink:href="#DejaVuSans-74"/>
     <use x="595.898438" xlink:href="#DejaVuSans-61"/>
     <use x="657.177734" xlink:href="#DejaVuSans-6e"/>
     <use x="720.556641" xlink:href="#DejaVuSans-63"/>
     <use x="775.537109" xlink:href="#DejaVuSans-65"/>
     <use x="837.060547" xlink:href="#DejaVuSans-73"/>
    </g>
   </g>
   <g id="text_22">
    <!-- v2.0.715 -->
    <g style="fill:#808080;" transform="translate(206.36825 289.387113)scale(0.1 -0.1)">
     <use xlink:href="#DejaVuSans-76"/>
     <use x="59.179688" xlink:href="#DejaVuSans-32"/>
     <use x="122.802734" xlink:href="#DejaVuSans-2e"/>
     <use x="154.589844" xlink:href="#DejaVuSans-30"/>
     <use x="218.212891" xlink:href="#DejaVuSans-2e"/>
     <use x="250" xlink:href="#DejaVuSans-37"/>
     <use x="313.623047" xlink:href="#DejaVuSans-31"/>
     <use x="377.246094" xlink:href="#DejaVuSans-35"/>
    </g>
   </g>
   <g id="text_23">
    <!-- 17 Linear Slope with n-1 constraints -->
    <defs>
     <path d="M 9.8125 72.90625 
L 19.671875 72.90625 
L 19.671875 8.296875 
L 55.171875 8.296875 
L 55.171875 0 
L 9.8125 0 
z
" id="DejaVuSans-4c"/>
     <path d="M 53.515625 70.515625 
L 53.515625 60.890625 
Q 47.90625 63.578125 42.921875 64.890625 
Q 37.9375 66.21875 33.296875 66.21875 
Q 25.25 66.21875 20.875 63.09375 
Q 16.5 59.96875 16.5 54.203125 
Q 16.5 49.359375 19.40625 46.890625 
Q 22.3125 44.4375 30.421875 42.921875 
L 36.375 41.703125 
Q 47.40625 39.59375 52.65625 34.296875 
Q 57.90625 29 57.90625 20.125 
Q 57.90625 9.515625 50.796875 4.046875 
Q 43.703125 -1.421875 29.984375 -1.421875 
Q 24.8125 -1.421875 18.96875 -0.25 
Q 13.140625 0.921875 6.890625 3.21875 
L 6.890625 13.375 
Q 12.890625 10.015625 18.65625 8.296875 
Q 24.421875 6.59375 29.984375 6.59375 
Q 38.421875 6.59375 43.015625 9.90625 
Q 47.609375 13.234375 47.609375 19.390625 
Q 47.609375 24.75 44.3125 27.78125 
Q 41.015625 30.8125 33.5 32.328125 
L 27.484375 33.5 
Q 16.453125 35.6875 11.515625 40.375 
Q 6.59375 45.0625 6.59375 53.421875 
Q 6.59375 63.09375 13.40625 68.65625 
Q 20.21875 74.21875 32.171875 74.21875 
Q 37.3125 74.21875 42.625 73.28125 
Q 47.953125 72.359375 53.515625 70.515625 
z
" id="DejaVuSans-53"/>
     <path d="M 4.203125 54.6875 
L 13.1875 54.6875 
L 24.421875 12.015625 
L 35.59375 54.6875 
L 46.1875 54.6875 
L 57.421875 12.015625 
L 68.609375 54.6875 
L 77.59375 54.6875 
L 63.28125 0 
L 52.6875 0 
L 40.921875 44.828125 
L 29.109375 0 
L 18.5 0 
z
" id="DejaVuSans-77"/>
    </defs>
    <g transform="translate(47.879188 18.84)scale(0.2 -0.2)">
     <use xlink:href="#DejaVuSans-31"/>
     <use x="63.623047" xlink:href="#DejaVuSans-37"/>
     <use x="127.246094" xlink:href="#DejaVuSans-20"/>
     <use x="159.033203" xlink:href="#DejaVuSans-4c"/>
     <use x="214.746094" xlink:href="#DejaVuSans-69"/>
     <use x="242.529297" xlink:href="#DejaVuSans-6e"/>
     <use x="305.908203" xlink:href="#DejaVuSans-65"/>
     <use x="367.431641" xlink:href="#DejaVuSans-61"/>
     <use x="428.710938" xlink:href="#DejaVuSans-72"/>
     <use x="469.824219" xlink:href="#DejaVuSans-20"/>
     <use x="501.611328" xlink:href="#DejaVuSans-53"/>
     <use x="565.087891" xlink:href="#DejaVuSans-6c"/>
     <use x="592.871094" xlink:href="#DejaVuSans-6f"/>
     <use x="654.052734" xlink:href="#DejaVuSans-70"/>
     <use x="717.529297" xlink:href="#DejaVuSans-65"/>
     <use x="779.052734" xlink:href="#DejaVuSans-20"/>
     <use x="810.839844" xlink:href="#DejaVuSans-77"/>
     <use x="892.626953" xlink:href="#DejaVuSans-69"/>
     <use x="920.410156" xlink:href="#DejaVuSans-74"/>
     <use x="959.619141" xlink:href="#DejaVuSans-68"/>
     <use x="1022.998047" xlink:href="#DejaVuSans-20"/>
     <use x="1054.785156" xlink:href="#DejaVuSans-6e"/>
     <use x="1118.164062" xlink:href="#DejaVuSans-2d"/>
     <use x="1154.248047" xlink:href="#DejaVuSans-31"/>
     <use x="1217.871094" xlink:href="#DejaVuSans-20"/>
     <use x="1249.658203" xlink:href="#DejaVuSans-63"/>
     <use x="1304.638672" xlink:href="#DejaVuSans-6f"/>
     <use x="1365.820312" xlink:href="#DejaVuSans-6e"/>
     <use x="1429.199219" xlink:href="#DejaVuSans-73"/>
     <use x="1481.298828" xlink:href="#DejaVuSans-74"/>
     <use x="1520.507812" xlink:href="#DejaVuSans-72"/>
     <use x="1561.621094" xlink:href="#DejaVuSans-61"/>
     <use x="1622.900391" xlink:href="#DejaVuSans-69"/>
     <use x="1650.683594" xlink:href="#DejaVuSans-6e"/>
     <use x="1714.0625" xlink:href="#DejaVuSans-74"/>
     <use x="1753.271484" xlink:href="#DejaVuSans-73"/>
    </g>
   </g>
  </g>
 </g>
 <defs>
  <clipPath id="p833003d310">
   <rect height="269.32" width="343.144" x="56.84" y="24.84"/>
  </clipPath>
 </defs>
</svg>
