<?xml version="1.0" encoding="utf-8" standalone="no"?>
<!DOCTYPE svg PUBLIC "-//W3C//DTD SVG 1.1//EN"
  "http://www.w3.org/Graphics/SVG/1.1/DTD/svg11.dtd">
<!-- Created with matplotlib (https://matplotlib.org/) -->
<svg height="345.6pt" version="1.1" viewBox="0 0 460.8 345.6" width="460.8pt" xmlns="http://www.w3.org/2000/svg" xmlns:xlink="http://www.w3.org/1999/xlink">
 <defs>
  <style type="text/css">
*{stroke-linecap:butt;stroke-linejoin:round;}
  </style>
 </defs>
 <g id="figure_1">
  <g id="patch_1">
   <path d="M 0 345.6 
L 460.8 345.6 
L 460.8 0 
L 0 0 
z
" style="fill:#ffffff;"/>
  </g>
  <g id="axes_1">
   <g id="patch_2">
    <path d="M 57.6 298.944 
L 338.688 298.944 
L 338.688 27.648 
L 57.6 27.648 
z
" style="fill:#ffffff;"/>
   </g>
   <g id="line2d_1">
    <path d="M 53.708537 298.944 
L 53.708537 294.312795 
L 62.175444 294.312795 
L 62.175444 285.050384 
L 69.687988 285.050384 
L 69.687988 275.787974 
L 76.16779 275.787974 
L 76.16779 271.156769 
L 86.351421 271.156769 
L 86.351421 257.263153 
L 94.714831 257.263153 
L 94.714831 248.000743 
L 101.923711 248.000743 
L 101.923711 243.369538 
L 109.040444 243.369538 
L 109.040444 234.107127 
L 118.890808 234.107127 
L 118.890808 220.213512 
L 123.354102 220.213512 
L 123.354102 210.951101 
L 130.127931 210.951101 
L 130.127931 201.688691 
L 136.645276 201.688691 
L 136.645276 192.426281 
L 142.936543 192.426281 
L 142.936543 187.795075 
L 148.601505 187.795075 
L 148.601505 173.90146 
L 157.145273 173.90146 
L 157.145273 169.270255 
L 162.147765 169.270255 
L 162.147765 155.376639 
L 171.27895 155.376639 
L 171.27895 146.114229 
L 175.59551 146.114229 
L 175.59551 141.483024 
L 181.419369 141.483024 
L 181.419369 127.589408 
L 186.631648 127.589408 
L 186.631648 122.958203 
L 193.767997 122.958203 
L 193.767997 109.064587 
L 200.754943 109.064587 
L 200.754943 99.802177 
L 210.095363 99.802177 
L 210.095363 90.539766 
L 218.399902 90.539766 
L 218.399902 85.908561 
L 227.665462 85.908561 
L 227.665462 76.646151 
L 232.566878 76.646151 
L 232.566878 62.752535 
L 338.688 62.752535 
" style="fill:none;stroke:#f5deb3;stroke-linecap:square;stroke-width:4;"/>
   </g>
   <g id="line2d_2">
    <defs>
     <path d="M 0 7.778175 
L 7.778175 0 
L 0 -7.778175 
L -7.778175 0 
z
" id="m89ad22aaa3" style="stroke:#f5deb3;stroke-linejoin:miter;stroke-width:1.5;"/>
    </defs>
    <g>
     <use style="fill:#f5deb3;stroke:#f5deb3;stroke-linejoin:miter;stroke-width:1.5;" x="101.923711" xlink:href="#m89ad22aaa3" y="243.369538"/>
     <use style="fill:#f5deb3;stroke:#f5deb3;stroke-linejoin:miter;stroke-width:1.5;" x="148.601505" xlink:href="#m89ad22aaa3" y="187.795075"/>
     <use style="fill:#f5deb3;stroke:#f5deb3;stroke-linejoin:miter;stroke-width:1.5;" x="200.754943" xlink:href="#m89ad22aaa3" y="99.802177"/>
     <use style="fill:#f5deb3;stroke:#f5deb3;stroke-linejoin:miter;stroke-width:1.5;" x="232.566878" xlink:href="#m89ad22aaa3" y="76.646151"/>
     <use style="fill:#f5deb3;stroke:#f5deb3;stroke-linejoin:miter;stroke-width:1.5;" x="232.566878" xlink:href="#m89ad22aaa3" y="62.752535"/>
     <use style="fill:#f5deb3;stroke:#f5deb3;stroke-linejoin:miter;stroke-width:1.5;" x="338.688" xlink:href="#m89ad22aaa3" y="62.752535"/>
    </g>
   </g>
   <g id="line2d_3">
    <path style="fill:none;stroke:#f5deb3;stroke-linecap:square;stroke-width:4;"/>
    <g/>
   </g>
   <g id="line2d_4">
    <path d="M 338.688 62.752535 
L 369.60768 35.706297 
" style="fill:none;stroke:#f5deb3;stroke-linecap:square;stroke-width:4;"/>
    <g>
     <use style="fill:#f5deb3;stroke:#f5deb3;stroke-linejoin:miter;stroke-width:1.5;" x="338.688" xlink:href="#m89ad22aaa3" y="62.752535"/>
     <use style="fill:#f5deb3;stroke:#f5deb3;stroke-linejoin:miter;stroke-width:1.5;" x="369.60768" xlink:href="#m89ad22aaa3" y="35.706297"/>
    </g>
   </g>
   <g id="matplotlib.axis_1">
    <g id="xtick_1">
     <g id="line2d_5">
      <path clip-path="url(#pf5a2ec61c1)" d="M 57.6 298.944 
L 57.6 27.648 
" style="fill:none;stroke:#b0b0b0;stroke-linecap:square;stroke-width:0.8;"/>
     </g>
     <g id="line2d_6">
      <defs>
       <path d="M 0 0 
L 0 3.5 
" id="mf1400eaf8b" style="stroke:#000000;stroke-width:0.8;"/>
      </defs>
      <g>
       <use style="stroke:#000000;stroke-width:0.8;" x="57.6" xlink:href="#mf1400eaf8b" y="298.944"/>
      </g>
     </g>
     <g id="text_1">
      <!-- 0 -->
      <defs>
       <path d="M 31.78125 66.40625 
Q 24.171875 66.40625 20.328125 58.90625 
Q 16.5 51.421875 16.5 36.375 
Q 16.5 21.390625 20.328125 13.890625 
Q 24.171875 6.390625 31.78125 6.390625 
Q 39.453125 6.390625 43.28125 13.890625 
Q 47.125 21.390625 47.125 36.375 
Q 47.125 51.421875 43.28125 58.90625 
Q 39.453125 66.40625 31.78125 66.40625 
z
M 31.78125 74.21875 
Q 44.046875 74.21875 50.515625 64.515625 
Q 56.984375 54.828125 56.984375 36.375 
Q 56.984375 17.96875 50.515625 8.265625 
Q 44.046875 -1.421875 31.78125 -1.421875 
Q 19.53125 -1.421875 13.0625 8.265625 
Q 6.59375 17.96875 6.59375 36.375 
Q 6.59375 54.828125 13.0625 64.515625 
Q 19.53125 74.21875 31.78125 74.21875 
z
" id="DejaVuSans-48"/>
      </defs>
      <g transform="translate(51.2375 321.140875)scale(0.2 -0.2)">
       <use xlink:href="#DejaVuSans-48"/>
      </g>
     </g>
    </g>
    <g id="xtick_2">
     <g id="line2d_7">
      <path clip-path="url(#pf5a2ec61c1)" d="M 137.910857 298.944 
L 137.910857 27.648 
" style="fill:none;stroke:#b0b0b0;stroke-linecap:square;stroke-width:0.8;"/>
     </g>
     <g id="line2d_8">
      <g>
       <use style="stroke:#000000;stroke-width:0.8;" x="137.910857" xlink:href="#mf1400eaf8b" y="298.944"/>
      </g>
     </g>
     <g id="text_2">
      <!-- 2 -->
      <defs>
       <path d="M 19.1875 8.296875 
L 53.609375 8.296875 
L 53.609375 0 
L 7.328125 0 
L 7.328125 8.296875 
Q 12.9375 14.109375 22.625 23.890625 
Q 32.328125 33.6875 34.8125 36.53125 
Q 39.546875 41.84375 41.421875 45.53125 
Q 43.3125 49.21875 43.3125 52.78125 
Q 43.3125 58.59375 39.234375 62.25 
Q 35.15625 65.921875 28.609375 65.921875 
Q 23.96875 65.921875 18.8125 64.3125 
Q 13.671875 62.703125 7.8125 59.421875 
L 7.8125 69.390625 
Q 13.765625 71.78125 18.9375 73 
Q 24.125 74.21875 28.421875 74.21875 
Q 39.75 74.21875 46.484375 68.546875 
Q 53.21875 62.890625 53.21875 53.421875 
Q 53.21875 48.921875 51.53125 44.890625 
Q 49.859375 40.875 45.40625 35.40625 
Q 44.1875 33.984375 37.640625 27.21875 
Q 31.109375 20.453125 19.1875 8.296875 
z
" id="DejaVuSans-50"/>
      </defs>
      <g transform="translate(131.548357 321.140875)scale(0.2 -0.2)">
       <use xlink:href="#DejaVuSans-50"/>
      </g>
     </g>
    </g>
    <g id="xtick_3">
     <g id="line2d_9">
      <path clip-path="url(#pf5a2ec61c1)" d="M 218.221714 298.944 
L 218.221714 27.648 
" style="fill:none;stroke:#b0b0b0;stroke-linecap:square;stroke-width:0.8;"/>
     </g>
     <g id="line2d_10">
      <g>
       <use style="stroke:#000000;stroke-width:0.8;" x="218.221714" xlink:href="#mf1400eaf8b" y="298.944"/>
      </g>
     </g>
     <g id="text_3">
      <!-- 4 -->
      <defs>
       <path d="M 37.796875 64.3125 
L 12.890625 25.390625 
L 37.796875 25.390625 
z
M 35.203125 72.90625 
L 47.609375 72.90625 
L 47.609375 25.390625 
L 58.015625 25.390625 
L 58.015625 17.1875 
L 47.609375 17.1875 
L 47.609375 0 
L 37.796875 0 
L 37.796875 17.1875 
L 4.890625 17.1875 
L 4.890625 26.703125 
z
" id="DejaVuSans-52"/>
      </defs>
      <g transform="translate(211.859214 321.140875)scale(0.2 -0.2)">
       <use xlink:href="#DejaVuSans-52"/>
      </g>
     </g>
    </g>
    <g id="xtick_4">
     <g id="line2d_11">
      <path clip-path="url(#pf5a2ec61c1)" d="M 298.532571 298.944 
L 298.532571 27.648 
" style="fill:none;stroke:#b0b0b0;stroke-linecap:square;stroke-width:0.8;"/>
     </g>
     <g id="line2d_12">
      <g>
       <use style="stroke:#000000;stroke-width:0.8;" x="298.532571" xlink:href="#mf1400eaf8b" y="298.944"/>
      </g>
     </g>
     <g id="text_4">
      <!-- 6 -->
      <defs>
       <path d="M 33.015625 40.375 
Q 26.375 40.375 22.484375 35.828125 
Q 18.609375 31.296875 18.609375 23.390625 
Q 18.609375 15.53125 22.484375 10.953125 
Q 26.375 6.390625 33.015625 6.390625 
Q 39.65625 6.390625 43.53125 10.953125 
Q 47.40625 15.53125 47.40625 23.390625 
Q 47.40625 31.296875 43.53125 35.828125 
Q 39.65625 40.375 33.015625 40.375 
z
M 52.59375 71.296875 
L 52.59375 62.3125 
Q 48.875 64.0625 45.09375 64.984375 
Q 41.3125 65.921875 37.59375 65.921875 
Q 27.828125 65.921875 22.671875 59.328125 
Q 17.53125 52.734375 16.796875 39.40625 
Q 19.671875 43.65625 24.015625 45.921875 
Q 28.375 48.1875 33.59375 48.1875 
Q 44.578125 48.1875 50.953125 41.515625 
Q 57.328125 34.859375 57.328125 23.390625 
Q 57.328125 12.15625 50.6875 5.359375 
Q 44.046875 -1.421875 33.015625 -1.421875 
Q 20.359375 -1.421875 13.671875 8.265625 
Q 6.984375 17.96875 6.984375 36.375 
Q 6.984375 53.65625 15.1875 63.9375 
Q 23.390625 74.21875 37.203125 74.21875 
Q 40.921875 74.21875 44.703125 73.484375 
Q 48.484375 72.75 52.59375 71.296875 
z
" id="DejaVuSans-54"/>
      </defs>
      <g transform="translate(292.170071 321.140875)scale(0.2 -0.2)">
       <use xlink:href="#DejaVuSans-54"/>
      </g>
     </g>
    </g>
    <g id="xtick_5">
     <g id="line2d_13">
      <path clip-path="url(#pf5a2ec61c1)" d="M 97.755429 298.944 
L 97.755429 27.648 
" style="fill:none;stroke:#b0b0b0;stroke-linecap:square;stroke-width:0.8;"/>
     </g>
     <g id="line2d_14">
      <defs>
       <path d="M 0 0 
L 0 2 
" id="mb2bdc050c3" style="stroke:#000000;stroke-width:0.6;"/>
      </defs>
      <g>
       <use style="stroke:#000000;stroke-width:0.6;" x="97.755429" xlink:href="#mb2bdc050c3" y="298.944"/>
      </g>
     </g>
    </g>
    <g id="xtick_6">
     <g id="line2d_15">
      <path clip-path="url(#pf5a2ec61c1)" d="M 178.066286 298.944 
L 178.066286 27.648 
" style="fill:none;stroke:#b0b0b0;stroke-linecap:square;stroke-width:0.8;"/>
     </g>
     <g id="line2d_16">
      <g>
       <use style="stroke:#000000;stroke-width:0.6;" x="178.066286" xlink:href="#mb2bdc050c3" y="298.944"/>
      </g>
     </g>
    </g>
    <g id="xtick_7">
     <g id="line2d_17">
      <path clip-path="url(#pf5a2ec61c1)" d="M 258.377143 298.944 
L 258.377143 27.648 
" style="fill:none;stroke:#b0b0b0;stroke-linecap:square;stroke-width:0.8;"/>
     </g>
     <g id="line2d_18">
      <g>
       <use style="stroke:#000000;stroke-width:0.6;" x="258.377143" xlink:href="#mb2bdc050c3" y="298.944"/>
      </g>
     </g>
    </g>
    <g id="xtick_8">
     <g id="line2d_19">
      <path clip-path="url(#pf5a2ec61c1)" d="M 338.688 298.944 
L 338.688 27.648 
" style="fill:none;stroke:#b0b0b0;stroke-linecap:square;stroke-width:0.8;"/>
     </g>
     <g id="line2d_20">
      <g>
       <use style="stroke:#000000;stroke-width:0.6;" x="338.688" xlink:href="#mb2bdc050c3" y="298.944"/>
      </g>
     </g>
    </g>
    <g id="text_5">
     <!-- log10(# f-evals / dimension) -->
     <defs>
      <path d="M 9.421875 75.984375 
L 18.40625 75.984375 
L 18.40625 0 
L 9.421875 0 
z
" id="DejaVuSans-108"/>
      <path d="M 30.609375 48.390625 
Q 23.390625 48.390625 19.1875 42.75 
Q 14.984375 37.109375 14.984375 27.296875 
Q 14.984375 17.484375 19.15625 11.84375 
Q 23.34375 6.203125 30.609375 6.203125 
Q 37.796875 6.203125 41.984375 11.859375 
Q 46.1875 17.53125 46.1875 27.296875 
Q 46.1875 37.015625 41.984375 42.703125 
Q 37.796875 48.390625 30.609375 48.390625 
z
M 30.609375 56 
Q 42.328125 56 49.015625 48.375 
Q 55.71875 40.765625 55.71875 27.296875 
Q 55.71875 13.875 49.015625 6.21875 
Q 42.328125 -1.421875 30.609375 -1.421875 
Q 18.84375 -1.421875 12.171875 6.21875 
Q 5.515625 13.875 5.515625 27.296875 
Q 5.515625 40.765625 12.171875 48.375 
Q 18.84375 56 30.609375 56 
z
" id="DejaVuSans-111"/>
      <path d="M 45.40625 27.984375 
Q 45.40625 37.75 41.375 43.109375 
Q 37.359375 48.484375 30.078125 48.484375 
Q 22.859375 48.484375 18.828125 43.109375 
Q 14.796875 37.75 14.796875 27.984375 
Q 14.796875 18.265625 18.828125 12.890625 
Q 22.859375 7.515625 30.078125 7.515625 
Q 37.359375 7.515625 41.375 12.890625 
Q 45.40625 18.265625 45.40625 27.984375 
z
M 54.390625 6.78125 
Q 54.390625 -7.171875 48.1875 -13.984375 
Q 42 -20.796875 29.203125 -20.796875 
Q 24.46875 -20.796875 20.265625 -20.09375 
Q 16.0625 -19.390625 12.109375 -17.921875 
L 12.109375 -9.1875 
Q 16.0625 -11.328125 19.921875 -12.34375 
Q 23.78125 -13.375 27.78125 -13.375 
Q 36.625 -13.375 41.015625 -8.765625 
Q 45.40625 -4.15625 45.40625 5.171875 
L 45.40625 9.625 
Q 42.625 4.78125 38.28125 2.390625 
Q 33.9375 0 27.875 0 
Q 17.828125 0 11.671875 7.65625 
Q 5.515625 15.328125 5.515625 27.984375 
Q 5.515625 40.671875 11.671875 48.328125 
Q 17.828125 56 27.875 56 
Q 33.9375 56 38.28125 53.609375 
Q 42.625 51.21875 45.40625 46.390625 
L 45.40625 54.6875 
L 54.390625 54.6875 
z
" id="DejaVuSans-103"/>
      <path d="M 12.40625 8.296875 
L 28.515625 8.296875 
L 28.515625 63.921875 
L 10.984375 60.40625 
L 10.984375 69.390625 
L 28.421875 72.90625 
L 38.28125 72.90625 
L 38.28125 8.296875 
L 54.390625 8.296875 
L 54.390625 0 
L 12.40625 0 
z
" id="DejaVuSans-49"/>
      <path d="M 31 75.875 
Q 24.46875 64.65625 21.28125 53.65625 
Q 18.109375 42.671875 18.109375 31.390625 
Q 18.109375 20.125 21.3125 9.0625 
Q 24.515625 -2 31 -13.1875 
L 23.1875 -13.1875 
Q 15.875 -1.703125 12.234375 9.375 
Q 8.59375 20.453125 8.59375 31.390625 
Q 8.59375 42.28125 12.203125 53.3125 
Q 15.828125 64.359375 23.1875 75.875 
z
" id="DejaVuSans-40"/>
      <path d="M 51.125 44 
L 36.921875 44 
L 32.8125 27.6875 
L 47.125 27.6875 
z
M 43.796875 71.78125 
L 38.71875 51.515625 
L 52.984375 51.515625 
L 58.109375 71.78125 
L 65.921875 71.78125 
L 60.890625 51.515625 
L 76.125 51.515625 
L 76.125 44 
L 58.984375 44 
L 54.984375 27.6875 
L 70.515625 27.6875 
L 70.515625 20.21875 
L 53.078125 20.21875 
L 48 0 
L 40.1875 0 
L 45.21875 20.21875 
L 30.90625 20.21875 
L 25.875 0 
L 18.015625 0 
L 23.09375 20.21875 
L 7.71875 20.21875 
L 7.71875 27.6875 
L 24.90625 27.6875 
L 29 44 
L 13.28125 44 
L 13.28125 51.515625 
L 30.90625 51.515625 
L 35.890625 71.78125 
z
" id="DejaVuSans-35"/>
      <path id="DejaVuSans-32"/>
      <path d="M 37.109375 75.984375 
L 37.109375 68.5 
L 28.515625 68.5 
Q 23.6875 68.5 21.796875 66.546875 
Q 19.921875 64.59375 19.921875 59.515625 
L 19.921875 54.6875 
L 34.71875 54.6875 
L 34.71875 47.703125 
L 19.921875 47.703125 
L 19.921875 0 
L 10.890625 0 
L 10.890625 47.703125 
L 2.296875 47.703125 
L 2.296875 54.6875 
L 10.890625 54.6875 
L 10.890625 58.5 
Q 10.890625 67.625 15.140625 71.796875 
Q 19.390625 75.984375 28.609375 75.984375 
z
" id="DejaVuSans-102"/>
      <path d="M 4.890625 31.390625 
L 31.203125 31.390625 
L 31.203125 23.390625 
L 4.890625 23.390625 
z
" id="DejaVuSans-45"/>
      <path d="M 56.203125 29.59375 
L 56.203125 25.203125 
L 14.890625 25.203125 
Q 15.484375 15.921875 20.484375 11.0625 
Q 25.484375 6.203125 34.421875 6.203125 
Q 39.59375 6.203125 44.453125 7.46875 
Q 49.3125 8.734375 54.109375 11.28125 
L 54.109375 2.78125 
Q 49.265625 0.734375 44.1875 -0.34375 
Q 39.109375 -1.421875 33.890625 -1.421875 
Q 20.796875 -1.421875 13.15625 6.1875 
Q 5.515625 13.8125 5.515625 26.8125 
Q 5.515625 40.234375 12.765625 48.109375 
Q 20.015625 56 32.328125 56 
Q 43.359375 56 49.78125 48.890625 
Q 56.203125 41.796875 56.203125 29.59375 
z
M 47.21875 32.234375 
Q 47.125 39.59375 43.09375 43.984375 
Q 39.0625 48.390625 32.421875 48.390625 
Q 24.90625 48.390625 20.390625 44.140625 
Q 15.875 39.890625 15.1875 32.171875 
z
" id="DejaVuSans-101"/>
      <path d="M 2.984375 54.6875 
L 12.5 54.6875 
L 29.59375 8.796875 
L 46.6875 54.6875 
L 56.203125 54.6875 
L 35.6875 0 
L 23.484375 0 
z
" id="DejaVuSans-118"/>
      <path d="M 34.28125 27.484375 
Q 23.390625 27.484375 19.1875 25 
Q 14.984375 22.515625 14.984375 16.5 
Q 14.984375 11.71875 18.140625 8.90625 
Q 21.296875 6.109375 26.703125 6.109375 
Q 34.1875 6.109375 38.703125 11.40625 
Q 43.21875 16.703125 43.21875 25.484375 
L 43.21875 27.484375 
z
M 52.203125 31.203125 
L 52.203125 0 
L 43.21875 0 
L 43.21875 8.296875 
Q 40.140625 3.328125 35.546875 0.953125 
Q 30.953125 -1.421875 24.3125 -1.421875 
Q 15.921875 -1.421875 10.953125 3.296875 
Q 6 8.015625 6 15.921875 
Q 6 25.140625 12.171875 29.828125 
Q 18.359375 34.515625 30.609375 34.515625 
L 43.21875 34.515625 
L 43.21875 35.40625 
Q 43.21875 41.609375 39.140625 45 
Q 35.0625 48.390625 27.6875 48.390625 
Q 23 48.390625 18.546875 47.265625 
Q 14.109375 46.140625 10.015625 43.890625 
L 10.015625 52.203125 
Q 14.9375 54.109375 19.578125 55.046875 
Q 24.21875 56 28.609375 56 
Q 40.484375 56 46.34375 49.84375 
Q 52.203125 43.703125 52.203125 31.203125 
z
" id="DejaVuSans-97"/>
      <path d="M 44.28125 53.078125 
L 44.28125 44.578125 
Q 40.484375 46.53125 36.375 47.5 
Q 32.28125 48.484375 27.875 48.484375 
Q 21.1875 48.484375 17.84375 46.4375 
Q 14.5 44.390625 14.5 40.28125 
Q 14.5 37.15625 16.890625 35.375 
Q 19.28125 33.59375 26.515625 31.984375 
L 29.59375 31.296875 
Q 39.15625 29.25 43.1875 25.515625 
Q 47.21875 21.78125 47.21875 15.09375 
Q 47.21875 7.46875 41.1875 3.015625 
Q 35.15625 -1.421875 24.609375 -1.421875 
Q 20.21875 -1.421875 15.453125 -0.5625 
Q 10.6875 0.296875 5.421875 2 
L 5.421875 11.28125 
Q 10.40625 8.6875 15.234375 7.390625 
Q 20.0625 6.109375 24.8125 6.109375 
Q 31.15625 6.109375 34.5625 8.28125 
Q 37.984375 10.453125 37.984375 14.40625 
Q 37.984375 18.0625 35.515625 20.015625 
Q 33.0625 21.96875 24.703125 23.78125 
L 21.578125 24.515625 
Q 13.234375 26.265625 9.515625 29.90625 
Q 5.8125 33.546875 5.8125 39.890625 
Q 5.8125 47.609375 11.28125 51.796875 
Q 16.75 56 26.8125 56 
Q 31.78125 56 36.171875 55.265625 
Q 40.578125 54.546875 44.28125 53.078125 
z
" id="DejaVuSans-115"/>
      <path d="M 25.390625 72.90625 
L 33.6875 72.90625 
L 8.296875 -9.28125 
L 0 -9.28125 
z
" id="DejaVuSans-47"/>
      <path d="M 45.40625 46.390625 
L 45.40625 75.984375 
L 54.390625 75.984375 
L 54.390625 0 
L 45.40625 0 
L 45.40625 8.203125 
Q 42.578125 3.328125 38.25 0.953125 
Q 33.9375 -1.421875 27.875 -1.421875 
Q 17.96875 -1.421875 11.734375 6.484375 
Q 5.515625 14.40625 5.515625 27.296875 
Q 5.515625 40.1875 11.734375 48.09375 
Q 17.96875 56 27.875 56 
Q 33.9375 56 38.25 53.625 
Q 42.578125 51.265625 45.40625 46.390625 
z
M 14.796875 27.296875 
Q 14.796875 17.390625 18.875 11.75 
Q 22.953125 6.109375 30.078125 6.109375 
Q 37.203125 6.109375 41.296875 11.75 
Q 45.40625 17.390625 45.40625 27.296875 
Q 45.40625 37.203125 41.296875 42.84375 
Q 37.203125 48.484375 30.078125 48.484375 
Q 22.953125 48.484375 18.875 42.84375 
Q 14.796875 37.203125 14.796875 27.296875 
z
" id="DejaVuSans-100"/>
      <path d="M 9.421875 54.6875 
L 18.40625 54.6875 
L 18.40625 0 
L 9.421875 0 
z
M 9.421875 75.984375 
L 18.40625 75.984375 
L 18.40625 64.59375 
L 9.421875 64.59375 
z
" id="DejaVuSans-105"/>
      <path d="M 52 44.1875 
Q 55.375 50.25 60.0625 53.125 
Q 64.75 56 71.09375 56 
Q 79.640625 56 84.28125 50.015625 
Q 88.921875 44.046875 88.921875 33.015625 
L 88.921875 0 
L 79.890625 0 
L 79.890625 32.71875 
Q 79.890625 40.578125 77.09375 44.375 
Q 74.3125 48.1875 68.609375 48.1875 
Q 61.625 48.1875 57.5625 43.546875 
Q 53.515625 38.921875 53.515625 30.90625 
L 53.515625 0 
L 44.484375 0 
L 44.484375 32.71875 
Q 44.484375 40.625 41.703125 44.40625 
Q 38.921875 48.1875 33.109375 48.1875 
Q 26.21875 48.1875 22.15625 43.53125 
Q 18.109375 38.875 18.109375 30.90625 
L 18.109375 0 
L 9.078125 0 
L 9.078125 54.6875 
L 18.109375 54.6875 
L 18.109375 46.1875 
Q 21.1875 51.21875 25.484375 53.609375 
Q 29.78125 56 35.6875 56 
Q 41.65625 56 45.828125 52.96875 
Q 50 49.953125 52 44.1875 
z
" id="DejaVuSans-109"/>
      <path d="M 54.890625 33.015625 
L 54.890625 0 
L 45.90625 0 
L 45.90625 32.71875 
Q 45.90625 40.484375 42.875 44.328125 
Q 39.84375 48.1875 33.796875 48.1875 
Q 26.515625 48.1875 22.3125 43.546875 
Q 18.109375 38.921875 18.109375 30.90625 
L 18.109375 0 
L 9.078125 0 
L 9.078125 54.6875 
L 18.109375 54.6875 
L 18.109375 46.1875 
Q 21.34375 51.125 25.703125 53.5625 
Q 30.078125 56 35.796875 56 
Q 45.21875 56 50.046875 50.171875 
Q 54.890625 44.34375 54.890625 33.015625 
z
" id="DejaVuSans-110"/>
      <path d="M 8.015625 75.875 
L 15.828125 75.875 
Q 23.140625 64.359375 26.78125 53.3125 
Q 30.421875 42.28125 30.421875 31.390625 
Q 30.421875 20.453125 26.78125 9.375 
Q 23.140625 -1.703125 15.828125 -13.1875 
L 8.015625 -13.1875 
Q 14.5 -2 17.703125 9.0625 
Q 20.90625 20.125 20.90625 31.390625 
Q 20.90625 42.671875 17.703125 53.65625 
Q 14.5 64.65625 8.015625 75.875 
z
" id="DejaVuSans-41"/>
     </defs>
     <g transform="translate(77.303219 342.217594)scale(0.17 -0.17)">
      <use xlink:href="#DejaVuSans-108"/>
      <use x="27.783203" xlink:href="#DejaVuSans-111"/>
      <use x="88.964844" xlink:href="#DejaVuSans-103"/>
      <use x="152.441406" xlink:href="#DejaVuSans-49"/>
      <use x="216.064453" xlink:href="#DejaVuSans-48"/>
      <use x="279.6875" xlink:href="#DejaVuSans-40"/>
      <use x="318.701172" xlink:href="#DejaVuSans-35"/>
      <use x="402.490234" xlink:href="#DejaVuSans-32"/>
      <use x="434.277344" xlink:href="#DejaVuSans-102"/>
      <use x="469.404297" xlink:href="#DejaVuSans-45"/>
      <use x="505.488281" xlink:href="#DejaVuSans-101"/>
      <use x="567.011719" xlink:href="#DejaVuSans-118"/>
      <use x="626.191406" xlink:href="#DejaVuSans-97"/>
      <use x="687.470703" xlink:href="#DejaVuSans-108"/>
      <use x="715.253906" xlink:href="#DejaVuSans-115"/>
      <use x="767.353516" xlink:href="#DejaVuSans-32"/>
      <use x="799.140625" xlink:href="#DejaVuSans-47"/>
      <use x="832.832031" xlink:href="#DejaVuSans-32"/>
      <use x="864.619141" xlink:href="#DejaVuSans-100"/>
      <use x="928.095703" xlink:href="#DejaVuSans-105"/>
      <use x="955.878906" xlink:href="#DejaVuSans-109"/>
      <use x="1053.291016" xlink:href="#DejaVuSans-101"/>
      <use x="1114.814453" xlink:href="#DejaVuSans-110"/>
      <use x="1178.193359" xlink:href="#DejaVuSans-115"/>
      <use x="1230.292969" xlink:href="#DejaVuSans-105"/>
      <use x="1258.076172" xlink:href="#DejaVuSans-111"/>
      <use x="1319.257812" xlink:href="#DejaVuSans-110"/>
      <use x="1382.636719" xlink:href="#DejaVuSans-41"/>
     </g>
    </g>
   </g>
   <g id="matplotlib.axis_2">
    <g id="ytick_1">
     <g id="line2d_21">
      <path clip-path="url(#pf5a2ec61c1)" d="M 57.6 298.944 
L 338.688 298.944 
" style="fill:none;stroke:#b0b0b0;stroke-linecap:square;stroke-width:0.8;"/>
     </g>
     <g id="line2d_22">
      <defs>
       <path d="M 0 0 
L -3.5 0 
" id="m14878dcd4d" style="stroke:#000000;stroke-width:0.8;"/>
      </defs>
      <g>
       <use style="stroke:#000000;stroke-width:0.8;" x="57.6" xlink:href="#m14878dcd4d" y="298.944"/>
      </g>
     </g>
     <g id="text_6">
      <!-- 0.0 -->
      <defs>
       <path d="M 10.6875 12.40625 
L 21 12.40625 
L 21 0 
L 10.6875 0 
z
" id="DejaVuSans-46"/>
      </defs>
      <g transform="translate(25.155 305.02275)scale(0.16 -0.16)">
       <use xlink:href="#DejaVuSans-48"/>
       <use x="63.623047" xlink:href="#DejaVuSans-46"/>
       <use x="95.410156" xlink:href="#DejaVuSans-48"/>
      </g>
     </g>
    </g>
    <g id="ytick_2">
     <g id="line2d_23">
      <path clip-path="url(#pf5a2ec61c1)" d="M 57.6 245.22202 
L 338.688 245.22202 
" style="fill:none;stroke:#b0b0b0;stroke-linecap:square;stroke-width:0.8;"/>
     </g>
     <g id="line2d_24">
      <g>
       <use style="stroke:#000000;stroke-width:0.8;" x="57.6" xlink:href="#m14878dcd4d" y="245.22202"/>
      </g>
     </g>
     <g id="text_7">
      <!-- 0.2 -->
      <g transform="translate(25.155 251.30077)scale(0.16 -0.16)">
       <use xlink:href="#DejaVuSans-48"/>
       <use x="63.623047" xlink:href="#DejaVuSans-46"/>
       <use x="95.410156" xlink:href="#DejaVuSans-50"/>
      </g>
     </g>
    </g>
    <g id="ytick_3">
     <g id="line2d_25">
      <path clip-path="url(#pf5a2ec61c1)" d="M 57.6 191.50004 
L 338.688 191.50004 
" style="fill:none;stroke:#b0b0b0;stroke-linecap:square;stroke-width:0.8;"/>
     </g>
     <g id="line2d_26">
      <g>
       <use style="stroke:#000000;stroke-width:0.8;" x="57.6" xlink:href="#m14878dcd4d" y="191.50004"/>
      </g>
     </g>
     <g id="text_8">
      <!-- 0.4 -->
      <g transform="translate(25.155 197.57879)scale(0.16 -0.16)">
       <use xlink:href="#DejaVuSans-48"/>
       <use x="63.623047" xlink:href="#DejaVuSans-46"/>
       <use x="95.410156" xlink:href="#DejaVuSans-52"/>
      </g>
     </g>
    </g>
    <g id="ytick_4">
     <g id="line2d_27">
      <path clip-path="url(#pf5a2ec61c1)" d="M 57.6 137.778059 
L 338.688 137.778059 
" style="fill:none;stroke:#b0b0b0;stroke-linecap:square;stroke-width:0.8;"/>
     </g>
     <g id="line2d_28">
      <g>
       <use style="stroke:#000000;stroke-width:0.8;" x="57.6" xlink:href="#m14878dcd4d" y="137.778059"/>
      </g>
     </g>
     <g id="text_9">
      <!-- 0.6 -->
      <g transform="translate(25.155 143.856809)scale(0.16 -0.16)">
       <use xlink:href="#DejaVuSans-48"/>
       <use x="63.623047" xlink:href="#DejaVuSans-46"/>
       <use x="95.410156" xlink:href="#DejaVuSans-54"/>
      </g>
     </g>
    </g>
    <g id="ytick_5">
     <g id="line2d_29">
      <path clip-path="url(#pf5a2ec61c1)" d="M 57.6 84.056079 
L 338.688 84.056079 
" style="fill:none;stroke:#b0b0b0;stroke-linecap:square;stroke-width:0.8;"/>
     </g>
     <g id="line2d_30">
      <g>
       <use style="stroke:#000000;stroke-width:0.8;" x="57.6" xlink:href="#m14878dcd4d" y="84.056079"/>
      </g>
     </g>
     <g id="text_10">
      <!-- 0.8 -->
      <defs>
       <path d="M 31.78125 34.625 
Q 24.75 34.625 20.71875 30.859375 
Q 16.703125 27.09375 16.703125 20.515625 
Q 16.703125 13.921875 20.71875 10.15625 
Q 24.75 6.390625 31.78125 6.390625 
Q 38.8125 6.390625 42.859375 10.171875 
Q 46.921875 13.96875 46.921875 20.515625 
Q 46.921875 27.09375 42.890625 30.859375 
Q 38.875 34.625 31.78125 34.625 
z
M 21.921875 38.8125 
Q 15.578125 40.375 12.03125 44.71875 
Q 8.5 49.078125 8.5 55.328125 
Q 8.5 64.0625 14.71875 69.140625 
Q 20.953125 74.21875 31.78125 74.21875 
Q 42.671875 74.21875 48.875 69.140625 
Q 55.078125 64.0625 55.078125 55.328125 
Q 55.078125 49.078125 51.53125 44.71875 
Q 48 40.375 41.703125 38.8125 
Q 48.828125 37.15625 52.796875 32.3125 
Q 56.78125 27.484375 56.78125 20.515625 
Q 56.78125 9.90625 50.3125 4.234375 
Q 43.84375 -1.421875 31.78125 -1.421875 
Q 19.734375 -1.421875 13.25 4.234375 
Q 6.78125 9.90625 6.78125 20.515625 
Q 6.78125 27.484375 10.78125 32.3125 
Q 14.796875 37.15625 21.921875 38.8125 
z
M 18.3125 54.390625 
Q 18.3125 48.734375 21.84375 45.5625 
Q 25.390625 42.390625 31.78125 42.390625 
Q 38.140625 42.390625 41.71875 45.5625 
Q 45.3125 48.734375 45.3125 54.390625 
Q 45.3125 60.0625 41.71875 63.234375 
Q 38.140625 66.40625 31.78125 66.40625 
Q 25.390625 66.40625 21.84375 63.234375 
Q 18.3125 60.0625 18.3125 54.390625 
z
" id="DejaVuSans-56"/>
      </defs>
      <g transform="translate(25.155 90.134829)scale(0.16 -0.16)">
       <use xlink:href="#DejaVuSans-48"/>
       <use x="63.623047" xlink:href="#DejaVuSans-46"/>
       <use x="95.410156" xlink:href="#DejaVuSans-56"/>
      </g>
     </g>
    </g>
    <g id="ytick_6">
     <g id="line2d_31">
      <path clip-path="url(#pf5a2ec61c1)" d="M 57.6 30.334099 
L 338.688 30.334099 
" style="fill:none;stroke:#b0b0b0;stroke-linecap:square;stroke-width:0.8;"/>
     </g>
     <g id="line2d_32">
      <g>
       <use style="stroke:#000000;stroke-width:0.8;" x="57.6" xlink:href="#m14878dcd4d" y="30.334099"/>
      </g>
     </g>
     <g id="text_11">
      <!-- 1.0 -->
      <g transform="translate(25.155 36.412849)scale(0.16 -0.16)">
       <use xlink:href="#DejaVuSans-49"/>
       <use x="63.623047" xlink:href="#DejaVuSans-46"/>
       <use x="95.410156" xlink:href="#DejaVuSans-48"/>
      </g>
     </g>
    </g>
    <g id="text_12">
     <!-- Fraction of function,target pairs -->
     <defs>
      <path d="M 9.8125 72.90625 
L 51.703125 72.90625 
L 51.703125 64.59375 
L 19.671875 64.59375 
L 19.671875 43.109375 
L 48.578125 43.109375 
L 48.578125 34.8125 
L 19.671875 34.8125 
L 19.671875 0 
L 9.8125 0 
z
" id="DejaVuSans-70"/>
      <path d="M 41.109375 46.296875 
Q 39.59375 47.171875 37.8125 47.578125 
Q 36.03125 48 33.890625 48 
Q 26.265625 48 22.1875 43.046875 
Q 18.109375 38.09375 18.109375 28.8125 
L 18.109375 0 
L 9.078125 0 
L 9.078125 54.6875 
L 18.109375 54.6875 
L 18.109375 46.1875 
Q 20.953125 51.171875 25.484375 53.578125 
Q 30.03125 56 36.53125 56 
Q 37.453125 56 38.578125 55.875 
Q 39.703125 55.765625 41.0625 55.515625 
z
" id="DejaVuSans-114"/>
      <path d="M 48.78125 52.59375 
L 48.78125 44.1875 
Q 44.96875 46.296875 41.140625 47.34375 
Q 37.3125 48.390625 33.40625 48.390625 
Q 24.65625 48.390625 19.8125 42.84375 
Q 14.984375 37.3125 14.984375 27.296875 
Q 14.984375 17.28125 19.8125 11.734375 
Q 24.65625 6.203125 33.40625 6.203125 
Q 37.3125 6.203125 41.140625 7.25 
Q 44.96875 8.296875 48.78125 10.40625 
L 48.78125 2.09375 
Q 45.015625 0.34375 40.984375 -0.53125 
Q 36.96875 -1.421875 32.421875 -1.421875 
Q 20.0625 -1.421875 12.78125 6.34375 
Q 5.515625 14.109375 5.515625 27.296875 
Q 5.515625 40.671875 12.859375 48.328125 
Q 20.21875 56 33.015625 56 
Q 37.15625 56 41.109375 55.140625 
Q 45.0625 54.296875 48.78125 52.59375 
z
" id="DejaVuSans-99"/>
      <path d="M 18.3125 70.21875 
L 18.3125 54.6875 
L 36.8125 54.6875 
L 36.8125 47.703125 
L 18.3125 47.703125 
L 18.3125 18.015625 
Q 18.3125 11.328125 20.140625 9.421875 
Q 21.96875 7.515625 27.59375 7.515625 
L 36.8125 7.515625 
L 36.8125 0 
L 27.59375 0 
Q 17.1875 0 13.234375 3.875 
Q 9.28125 7.765625 9.28125 18.015625 
L 9.28125 47.703125 
L 2.6875 47.703125 
L 2.6875 54.6875 
L 9.28125 54.6875 
L 9.28125 70.21875 
z
" id="DejaVuSans-116"/>
      <path d="M 8.5 21.578125 
L 8.5 54.6875 
L 17.484375 54.6875 
L 17.484375 21.921875 
Q 17.484375 14.15625 20.5 10.265625 
Q 23.53125 6.390625 29.59375 6.390625 
Q 36.859375 6.390625 41.078125 11.03125 
Q 45.3125 15.671875 45.3125 23.6875 
L 45.3125 54.6875 
L 54.296875 54.6875 
L 54.296875 0 
L 45.3125 0 
L 45.3125 8.40625 
Q 42.046875 3.421875 37.71875 1 
Q 33.40625 -1.421875 27.6875 -1.421875 
Q 18.265625 -1.421875 13.375 4.4375 
Q 8.5 10.296875 8.5 21.578125 
z
M 31.109375 56 
z
" id="DejaVuSans-117"/>
      <path d="M 11.71875 12.40625 
L 22.015625 12.40625 
L 22.015625 4 
L 14.015625 -11.625 
L 7.71875 -11.625 
L 11.71875 4 
z
" id="DejaVuSans-44"/>
      <path d="M 18.109375 8.203125 
L 18.109375 -20.796875 
L 9.078125 -20.796875 
L 9.078125 54.6875 
L 18.109375 54.6875 
L 18.109375 46.390625 
Q 20.953125 51.265625 25.265625 53.625 
Q 29.59375 56 35.59375 56 
Q 45.5625 56 51.78125 48.09375 
Q 58.015625 40.1875 58.015625 27.296875 
Q 58.015625 14.40625 51.78125 6.484375 
Q 45.5625 -1.421875 35.59375 -1.421875 
Q 29.59375 -1.421875 25.265625 0.953125 
Q 20.953125 3.328125 18.109375 8.203125 
z
M 48.6875 27.296875 
Q 48.6875 37.203125 44.609375 42.84375 
Q 40.53125 48.484375 33.40625 48.484375 
Q 26.265625 48.484375 22.1875 42.84375 
Q 18.109375 37.203125 18.109375 27.296875 
Q 18.109375 17.390625 22.1875 11.75 
Q 26.265625 6.109375 33.40625 6.109375 
Q 40.53125 6.109375 44.609375 11.75 
Q 48.6875 17.390625 48.6875 27.296875 
z
" id="DejaVuSans-112"/>
     </defs>
     <g transform="translate(17.619531 298.435375)rotate(-90)scale(0.17 -0.17)">
      <use xlink:href="#DejaVuSans-70"/>
      <use x="57.410156" xlink:href="#DejaVuSans-114"/>
      <use x="98.523438" xlink:href="#DejaVuSans-97"/>
      <use x="159.802734" xlink:href="#DejaVuSans-99"/>
      <use x="214.783203" xlink:href="#DejaVuSans-116"/>
      <use x="253.992188" xlink:href="#DejaVuSans-105"/>
      <use x="281.775391" xlink:href="#DejaVuSans-111"/>
      <use x="342.957031" xlink:href="#DejaVuSans-110"/>
      <use x="406.335938" xlink:href="#DejaVuSans-32"/>
      <use x="438.123047" xlink:href="#DejaVuSans-111"/>
      <use x="499.304688" xlink:href="#DejaVuSans-102"/>
      <use x="534.509766" xlink:href="#DejaVuSans-32"/>
      <use x="566.296875" xlink:href="#DejaVuSans-102"/>
      <use x="601.501953" xlink:href="#DejaVuSans-117"/>
      <use x="664.880859" xlink:href="#DejaVuSans-110"/>
      <use x="728.259766" xlink:href="#DejaVuSans-99"/>
      <use x="783.240234" xlink:href="#DejaVuSans-116"/>
      <use x="822.449219" xlink:href="#DejaVuSans-105"/>
      <use x="850.232422" xlink:href="#DejaVuSans-111"/>
      <use x="911.414062" xlink:href="#DejaVuSans-110"/>
      <use x="974.792969" xlink:href="#DejaVuSans-44"/>
      <use x="1006.580078" xlink:href="#DejaVuSans-116"/>
      <use x="1045.789062" xlink:href="#DejaVuSans-97"/>
      <use x="1107.068359" xlink:href="#DejaVuSans-114"/>
      <use x="1148.166016" xlink:href="#DejaVuSans-103"/>
      <use x="1211.642578" xlink:href="#DejaVuSans-101"/>
      <use x="1273.166016" xlink:href="#DejaVuSans-116"/>
      <use x="1312.375" xlink:href="#DejaVuSans-32"/>
      <use x="1344.162109" xlink:href="#DejaVuSans-112"/>
      <use x="1407.638672" xlink:href="#DejaVuSans-97"/>
      <use x="1468.917969" xlink:href="#DejaVuSans-105"/>
      <use x="1496.701172" xlink:href="#DejaVuSans-114"/>
      <use x="1537.814453" xlink:href="#DejaVuSans-115"/>
     </g>
    </g>
   </g>
   <g id="line2d_33">
    <defs>
     <path d="M 0 1.5 
C 0.397805 1.5 0.77937 1.341951 1.06066 1.06066 
C 1.341951 0.77937 1.5 0.397805 1.5 0 
C 1.5 -0.397805 1.341951 -0.77937 1.06066 -1.06066 
C 0.77937 -1.341951 0.397805 -1.5 0 -1.5 
C -0.397805 -1.5 -0.77937 -1.341951 -1.06066 -1.06066 
C -1.341951 -0.77937 -1.5 -0.397805 -1.5 0 
C -1.5 0.397805 -1.341951 0.77937 -1.06066 1.06066 
C -0.77937 1.341951 -0.397805 1.5 0 1.5 
z
" id="mb0e305d6a6" style="stroke:#f5deb3;"/>
    </defs>
    <g>
     <use style="fill:#f5deb3;stroke:#f5deb3;" x="232.566878" xlink:href="#mb0e305d6a6" y="62.752535"/>
     <use style="fill:#f5deb3;stroke:#f5deb3;" x="232.566878" xlink:href="#mb0e305d6a6" y="62.752535"/>
    </g>
   </g>
   <g id="line2d_34">
    <defs>
     <path d="M 0 1.5 
C 0.397805 1.5 0.77937 1.341951 1.06066 1.06066 
C 1.341951 0.77937 1.5 0.397805 1.5 0 
C 1.5 -0.397805 1.341951 -0.77937 1.06066 -1.06066 
C 0.77937 -1.341951 0.397805 -1.5 0 -1.5 
C -0.397805 -1.5 -0.77937 -1.341951 -1.06066 -1.06066 
C -1.341951 -0.77937 -1.5 -0.397805 -1.5 0 
C -1.5 0.397805 -1.341951 0.77937 -1.06066 1.06066 
C -0.77937 1.341951 -0.397805 1.5 0 1.5 
z
" id="m568e19f372" style="stroke:#000080;"/>
    </defs>
    <g>
     <use style="fill:#000080;stroke:#000080;" x="213.645573" xlink:href="#m568e19f372" y="85.908561"/>
     <use style="fill:#000080;stroke:#000080;" x="213.645573" xlink:href="#m568e19f372" y="85.908561"/>
    </g>
   </g>
   <g id="line2d_35">
    <path d="M 17.444571 298.944 
L 17.444571 298.017759 
L 79.938565 298.017759 
L 79.938565 295.239036 
L 81.775977 295.239036 
L 81.775977 294.312795 
L 84.588378 294.312795 
L 84.588378 291.534072 
L 91.284345 291.534072 
L 91.284345 290.607831 
L 93.863965 290.607831 
L 93.863965 289.68159 
L 96.110718 289.68159 
L 96.110718 286.902867 
L 97.580158 286.902867 
L 97.580158 281.34542 
L 98.771596 281.34542 
L 98.771596 280.419179 
L 99.258306 280.419179 
L 99.258306 277.640456 
L 99.731799 277.640456 
L 99.731799 276.714215 
L 99.886816 276.714215 
L 99.886816 270.230528 
L 101.506816 270.230528 
L 101.506816 264.673082 
L 104.474128 264.673082 
L 104.474128 263.746841 
L 105.621863 263.746841 
L 105.621863 262.8206 
L 107.614095 262.8206 
L 107.614095 260.968117 
L 107.90885 260.968117 
L 107.90885 256.336912 
L 109.756002 256.336912 
L 109.756002 255.410671 
L 110.016944 255.410671 
L 110.016944 251.705707 
L 111.663381 251.705707 
L 111.663381 249.853225 
L 112.803609 249.853225 
L 112.803609 248.926984 
L 113.382559 248.926984 
L 113.382559 248.000743 
L 114.0117 248.000743 
L 114.0117 245.22202 
L 114.148479 245.22202 
L 114.148479 244.295779 
L 114.485807 244.295779 
L 114.485807 243.369538 
L 115.460322 243.369538 
L 115.460322 241.517056 
L 115.711251 241.517056 
L 115.711251 240.590815 
L 116.081002 240.590815 
L 116.081002 238.738333 
L 116.621333 238.738333 
L 116.621333 236.88585 
L 116.797786 236.88585 
L 116.797786 235.033368 
L 119.148409 235.033368 
L 119.148409 234.107127 
L 119.40226 234.107127 
L 119.40226 233.180886 
L 119.850084 233.180886 
L 119.850084 231.328404 
L 122.061712 231.328404 
L 122.061712 230.402163 
L 122.699028 230.402163 
L 122.699028 229.475922 
L 123.273551 229.475922 
L 123.273551 228.549681 
L 124.216444 228.549681 
L 124.216444 226.697199 
L 124.965026 226.697199 
L 124.965026 225.770958 
L 125.822869 225.770958 
L 125.857712 223.918476 
L 127.035353 223.918476 
L 127.035353 222.065994 
L 130.743656 222.065994 
L 130.743656 221.139753 
L 131.108073 221.139753 
L 131.210808 218.36103 
L 131.540579 218.36103 
L 131.540579 217.434789 
L 131.888878 217.434789 
L 131.888878 216.508548 
L 132.847322 216.508548 
L 132.847322 215.582307 
L 133.0559 215.582307 
L 133.0559 214.656066 
L 134.321942 214.656066 
L 134.407429 209.098619 
L 134.661403 209.098619 
L 134.661403 208.172378 
L 136.494612 208.172378 
L 136.494612 206.319896 
L 137.034686 206.319896 
L 137.034686 205.393655 
L 138.153314 205.393655 
L 138.153314 203.541173 
L 139.123342 203.541173 
L 139.155847 200.76245 
L 140.026805 200.76245 
L 140.026805 199.836209 
L 140.165274 199.836209 
L 140.241728 197.057486 
L 140.708409 197.057486 
L 140.708409 195.205004 
L 140.841591 195.205004 
L 140.841591 193.352522 
L 142.51311 193.352522 
L 142.51311 192.426281 
L 142.699628 192.426281 
L 142.699628 190.573799 
L 143.298796 190.573799 
L 143.298796 189.647558 
L 143.86567 189.647558 
L 143.86567 188.721316 
L 144.522457 188.721316 
L 144.522457 187.795075 
L 146.569876 187.795075 
L 146.569876 186.868834 
L 149.159312 186.868834 
L 149.159312 185.942593 
L 149.797132 185.942593 
L 149.797132 185.016352 
L 150.882897 185.016352 
L 150.882897 183.16387 
L 151.461678 183.16387 
L 151.461678 179.458906 
L 151.63719 179.458906 
L 151.63719 178.532665 
L 151.795227 178.532665 
L 151.865879 175.753942 
L 152.421022 175.753942 
L 152.421022 174.827701 
L 154.54072 174.827701 
L 154.54072 173.90146 
L 155.096285 173.90146 
L 155.096285 172.048978 
L 155.393186 172.048978 
L 155.399584 170.196496 
L 155.904009 170.196496 
L 155.966049 167.417773 
L 156.574599 167.417773 
L 156.574599 166.491532 
L 157.029126 166.491532 
L 157.075678 164.63905 
L 157.664184 164.63905 
L 157.664184 162.786567 
L 158.276927 162.786567 
L 158.276927 161.860326 
L 159.405822 161.860326 
L 159.405822 160.934085 
L 160.273627 160.934085 
L 160.273627 160.007844 
L 162.160794 160.007844 
L 162.160794 159.081603 
L 162.303474 159.081603 
L 162.303474 158.155362 
L 162.572663 158.155362 
L 162.572663 156.30288 
L 163.433016 156.30288 
L 163.433016 155.376639 
L 164.01643 155.376639 
L 164.01643 154.450398 
L 164.444386 154.450398 
L 164.444386 152.597916 
L 164.667654 152.597916 
L 164.667654 151.671675 
L 165.168018 151.671675 
L 165.168018 149.819193 
L 165.714726 149.819193 
L 165.714726 147.966711 
L 166.182876 147.966711 
L 166.182876 146.114229 
L 166.520851 146.114229 
L 166.520851 145.187988 
L 168.808499 145.187988 
L 168.808499 144.261747 
L 169.198498 144.261747 
L 169.198498 143.335506 
L 171.628028 143.335506 
L 171.628028 142.409265 
L 171.923192 142.409265 
L 171.997444 139.630541 
L 172.339833 139.630541 
L 172.339833 137.778059 
L 174.074257 137.778059 
L 174.074257 136.851818 
L 175.297603 136.851818 
L 175.297603 135.925577 
L 175.821103 135.925577 
L 175.821103 134.073095 
L 176.655714 134.073095 
L 176.655714 133.146854 
L 179.034677 133.146854 
L 179.034677 131.294372 
L 179.27877 131.294372 
L 179.27877 130.368131 
L 180.723643 130.368131 
L 180.810279 127.589408 
L 181.061762 127.589408 
L 181.135043 125.736926 
L 181.190531 125.736926 
L 181.190531 124.810685 
L 181.423685 124.810685 
L 181.423685 123.884444 
L 181.542676 123.884444 
L 181.542676 122.031962 
L 183.274039 122.031962 
L 183.274039 120.17948 
L 183.402933 120.17948 
L 183.402933 119.253239 
L 185.152413 119.253239 
L 185.152413 118.326998 
L 187.295423 118.326998 
L 187.295423 116.474516 
L 187.567575 116.474516 
L 187.567575 115.548274 
L 189.223923 115.548274 
L 189.223923 114.622033 
L 189.846385 114.622033 
L 189.846385 112.769551 
L 190.10625 112.769551 
L 190.10625 111.84331 
L 190.483368 111.84331 
L 190.483368 109.990828 
L 193.763744 109.990828 
L 193.763744 109.064587 
L 194.575438 109.064587 
L 194.575438 107.212105 
L 195.578667 107.212105 
L 195.647529 104.433382 
L 195.899604 104.433382 
L 195.899604 103.507141 
L 197.204936 103.507141 
L 197.204936 101.654659 
L 197.320947 101.654659 
L 197.320947 99.802177 
L 198.289108 99.802177 
L 198.289108 98.875936 
L 200.313541 98.875936 
L 200.313541 97.023454 
L 200.439211 97.023454 
L 200.439211 96.097213 
L 201.335349 96.097213 
L 201.335349 94.244731 
L 202.399378 94.244731 
L 202.399378 93.31849 
L 203.791875 93.31849 
L 203.791875 92.392249 
L 204.49553 92.392249 
L 204.51238 90.539766 
L 207.416671 90.539766 
L 207.416671 88.687284 
L 211.319731 88.687284 
L 211.319731 87.761043 
L 211.758464 87.761043 
L 211.758464 86.834802 
L 213.645573 86.834802 
L 213.645573 85.908561 
L 338.688 85.908561 
L 338.688 85.908561 
" style="fill:none;stroke:#000080;stroke-linecap:square;stroke-width:1.5;"/>
   </g>
   <g id="line2d_36">
    <defs>
     <path d="M 0 6 
C 1.591219 6 3.117479 5.367802 4.242641 4.242641 
C 5.367802 3.117479 6 1.591219 6 0 
C 6 -1.591219 5.367802 -3.117479 4.242641 -4.242641 
C 3.117479 -5.367802 1.591219 -6 0 -6 
C -1.591219 -6 -3.117479 -5.367802 -4.242641 -4.242641 
C -5.367802 -3.117479 -6 -1.591219 -6 0 
C -6 1.591219 -5.367802 3.117479 -4.242641 4.242641 
C -3.117479 5.367802 -1.591219 6 0 6 
z
" id="m55898452a5" style="stroke:#000080;stroke-width:1.5;"/>
    </defs>
    <g>
     <use style="fill-opacity:0;stroke:#000080;stroke-width:1.5;" x="146.569876" xlink:href="#m55898452a5" y="187.795075"/>
     <use style="fill-opacity:0;stroke:#000080;stroke-width:1.5;" x="187.295423" xlink:href="#m55898452a5" y="116.474516"/>
     <use style="fill-opacity:0;stroke:#000080;stroke-width:1.5;" x="213.645573" xlink:href="#m55898452a5" y="86.834802"/>
     <use style="fill-opacity:0;stroke:#000080;stroke-width:1.5;" x="213.645573" xlink:href="#m55898452a5" y="85.908561"/>
     <use style="fill-opacity:0;stroke:#000080;stroke-width:1.5;" x="338.688" xlink:href="#m55898452a5" y="85.908561"/>
    </g>
   </g>
   <g id="line2d_37">
    <path style="fill:none;stroke:#000080;stroke-linecap:square;stroke-width:1.5;"/>
    <g/>
   </g>
   <g id="line2d_38">
    <path clip-path="url(#pf5a2ec61c1)" d="M 218.222761 85.908561 
" style="fill:none;stroke:#000080;stroke-linecap:square;stroke-width:1.5;"/>
    <defs>
     <path d="M -12 12 
L 12 -12 
M -12 -12 
L 12 12 
" id="m59ef3926e5" style="stroke:#000080;"/>
    </defs>
    <g clip-path="url(#pf5a2ec61c1)">
     <use style="fill:#000080;stroke:#000080;" x="218.222761" xlink:href="#m59ef3926e5" y="85.908561"/>
    </g>
   </g>
   <g id="line2d_39">
    <defs>
     <path d="M 0 1.5 
C 0.397805 1.5 0.77937 1.341951 1.06066 1.06066 
C 1.341951 0.77937 1.5 0.397805 1.5 0 
C 1.5 -0.397805 1.341951 -0.77937 1.06066 -1.06066 
C 0.77937 -1.341951 0.397805 -1.5 0 -1.5 
C -0.397805 -1.5 -0.77937 -1.341951 -1.06066 -1.06066 
C -1.341951 -0.77937 -1.5 -0.397805 -1.5 0 
C -1.5 0.397805 -1.341951 0.77937 -1.06066 1.06066 
C -0.77937 1.341951 -0.397805 1.5 0 1.5 
z
" id="ma99413fd60" style="stroke:#ff00ff;"/>
    </defs>
    <g>
     <use style="fill:#ff00ff;stroke:#ff00ff;" x="216.641849" xlink:href="#ma99413fd60" y="77.572392"/>
     <use style="fill:#ff00ff;stroke:#ff00ff;" x="216.641849" xlink:href="#ma99413fd60" y="77.572392"/>
    </g>
   </g>
   <g id="line2d_40">
    <path d="M 17.444571 298.944 
L 17.444571 298.017759 
L 76.16779 298.017759 
L 76.16779 297.091518 
L 84.588378 297.091518 
L 84.588378 295.239036 
L 88.255778 295.239036 
L 88.255778 288.755349 
L 89.972502 288.755349 
L 89.972502 287.829108 
L 91.284345 287.829108 
L 91.284345 281.34542 
L 93.863965 281.34542 
L 93.863965 278.566697 
L 94.294587 278.566697 
L 94.294587 277.640456 
L 96.110718 277.640456 
L 96.110718 273.935492 
L 98.100772 273.935492 
L 98.100772 273.009251 
L 98.935347 273.009251 
L 98.935347 271.156769 
L 100.934985 271.156769 
L 100.934985 270.230528 
L 101.506816 270.230528 
L 101.506816 269.304287 
L 101.646892 269.304287 
L 101.646892 267.451805 
L 104.114542 267.451805 
L 104.114542 266.525564 
L 104.355088 266.525564 
L 104.355088 265.599323 
L 105.621863 265.599323 
L 105.621863 264.673082 
L 107.009204 264.673082 
L 107.111487 262.8206 
L 107.213174 262.8206 
L 107.213174 260.968117 
L 107.712901 260.968117 
L 107.712901 260.041876 
L 107.90885 260.041876 
L 107.90885 259.115635 
L 109.131511 259.115635 
L 109.131511 258.189394 
L 109.491096 258.189394 
L 109.491096 255.410671 
L 109.930396 255.410671 
L 109.930396 254.48443 
L 110.358901 254.48443 
L 110.358901 253.558189 
L 110.859585 253.558189 
L 110.859585 252.631948 
L 111.266113 252.631948 
L 111.266113 250.779466 
L 111.584648 250.779466 
L 111.584648 249.853225 
L 111.74176 249.853225 
L 111.74176 248.000743 
L 112.58145 248.000743 
L 112.58145 247.074502 
L 112.950158 247.074502 
L 113.022974 241.517056 
L 113.382559 241.517056 
L 113.382559 239.664574 
L 113.73488 239.664574 
L 113.73488 238.738333 
L 114.685115 238.738333 
L 114.685115 236.88585 
L 115.269727 236.88585 
L 115.269727 235.033368 
L 115.835374 235.033368 
L 115.835374 228.549681 
L 116.262979 228.549681 
L 116.262979 227.62344 
L 116.972471 227.62344 
L 116.972471 222.992235 
L 117.820578 222.992235 
L 117.820578 222.065994 
L 118.890808 222.065994 
L 118.890808 220.213512 
L 119.301163 220.213512 
L 119.351785 216.508548 
L 120.045484 216.508548 
L 120.045484 215.582307 
L 124.101333 215.582307 
L 124.101333 214.656066 
L 125.147256 214.656066 
L 125.147256 212.803583 
L 125.647598 212.803583 
L 125.752972 210.02486 
L 126.405947 210.02486 
L 126.405947 209.098619 
L 126.540355 209.098619 
L 126.540355 207.246137 
L 128.229861 207.246137 
L 128.229861 205.393655 
L 129.658437 205.393655 
L 129.658437 204.467414 
L 130.926816 204.467414 
L 130.978796 202.614932 
L 131.185181 202.614932 
L 131.185181 201.688691 
L 132.80063 201.688691 
L 132.80063 200.76245 
L 132.986651 200.76245 
L 133.0559 197.057486 
L 133.931979 197.057486 
L 133.931979 195.205004 
L 134.428735 195.205004 
L 134.492498 193.352522 
L 134.828688 193.352522 
L 134.828688 191.50004 
L 136.494612 191.50004 
L 136.494612 190.573799 
L 137.126135 190.573799 
L 137.126135 188.721316 
L 138.153314 188.721316 
L 138.153314 186.868834 
L 138.828032 186.868834 
L 138.828032 185.942593 
L 140.619053 185.942593 
L 140.619053 185.016352 
L 141.249546 185.016352 
L 141.249546 184.090111 
L 141.871938 184.090111 
L 141.871938 183.16387 
L 146.442037 183.16387 
L 146.442037 181.311388 
L 147.680117 181.311388 
L 147.759612 178.532665 
L 148.808112 178.532665 
L 148.808112 176.680183 
L 149.241465 176.680183 
L 149.241465 175.753942 
L 149.876341 175.753942 
L 149.876341 174.827701 
L 150.691209 174.827701 
L 150.691209 173.90146 
L 150.808139 173.90146 
L 150.808139 172.048978 
L 150.932558 172.048978 
L 150.932558 171.122737 
L 151.097081 171.122737 
L 151.097081 170.196496 
L 151.324836 170.196496 
L 151.324836 169.270255 
L 152.184165 169.270255 
L 152.184165 168.344014 
L 153.221946 168.344014 
L 153.221946 166.491532 
L 155.024532 166.491532 
L 155.024532 163.712808 
L 155.296925 163.712808 
L 155.296925 162.786567 
L 156.538679 162.786567 
L 156.538679 161.860326 
L 156.770849 161.860326 
L 156.770849 160.934085 
L 156.941506 160.934085 
L 156.941506 160.007844 
L 158.13532 160.007844 
L 158.13532 159.081603 
L 158.625992 159.081603 
L 158.625992 158.155362 
L 160.259108 158.155362 
L 160.259108 157.229121 
L 160.788407 157.229121 
L 160.788407 156.30288 
L 161.132553 156.30288 
L 161.132553 154.450398 
L 162.208484 154.450398 
L 162.312084 151.671675 
L 162.355069 151.671675 
L 162.449267 148.892952 
L 162.572663 148.892952 
L 162.572663 147.966711 
L 164.6902 147.966711 
L 164.79503 143.335506 
L 164.86209 143.335506 
L 164.86209 141.483024 
L 165.010195 141.483024 
L 165.010195 140.556783 
L 165.328046 140.556783 
L 165.328046 139.630541 
L 165.897891 139.630541 
L 165.897891 138.7043 
L 166.320221 138.7043 
L 166.320221 137.778059 
L 167.187528 137.778059 
L 167.187528 136.851818 
L 167.567357 136.851818 
L 167.567357 135.925577 
L 168.054037 135.925577 
L 168.054037 134.999336 
L 168.46108 134.999336 
L 168.46108 133.146854 
L 170.397431 133.146854 
L 170.397431 132.220613 
L 171.871027 132.220613 
L 171.871027 131.294372 
L 172.668501 131.294372 
L 172.668501 129.44189 
L 173.417442 129.44189 
L 173.417442 128.515649 
L 174.385002 128.515649 
L 174.385002 126.663167 
L 175.425901 126.663167 
L 175.425901 125.736926 
L 175.611577 125.736926 
L 175.611577 123.884444 
L 177.397923 123.884444 
L 177.397923 122.958203 
L 177.549476 122.958203 
L 177.549476 121.105721 
L 178.174075 121.105721 
L 178.186204 118.326998 
L 178.995038 118.326998 
L 178.995038 117.400757 
L 180.036427 117.400757 
L 180.036427 115.548274 
L 180.53545 115.548274 
L 180.53545 114.622033 
L 181.089645 114.622033 
L 181.089645 113.695792 
L 181.734498 113.695792 
L 181.734498 112.769551 
L 182.102243 112.769551 
L 182.102243 110.917069 
L 182.597405 110.917069 
L 182.629652 109.064587 
L 183.074969 109.064587 
L 183.074969 108.138346 
L 183.955283 108.138346 
L 183.955283 107.212105 
L 185.410692 107.212105 
L 185.410692 106.285864 
L 187.187223 106.285864 
L 187.219238 103.507141 
L 189.1095 103.507141 
L 189.1095 102.5809 
L 190.941078 102.5809 
L 190.941078 100.728418 
L 191.902606 100.728418 
L 191.902606 98.875936 
L 192.644617 98.875936 
L 192.644617 97.949695 
L 193.187162 97.949695 
L 193.187162 97.023454 
L 193.797032 97.023454 
L 193.797032 95.170972 
L 195.804005 95.170972 
L 195.804005 94.244731 
L 195.956588 94.244731 
L 195.956588 92.392249 
L 196.45759 92.392249 
L 196.45759 90.539766 
L 197.330195 90.539766 
L 197.330195 89.613525 
L 198.737235 89.613525 
L 198.737235 88.687284 
L 199.935481 88.687284 
L 199.935481 87.761043 
L 202.033049 87.761043 
L 202.033049 86.834802 
L 202.810999 86.834802 
L 202.810999 85.908561 
L 204.947846 85.908561 
L 204.947846 84.056079 
L 209.478174 84.056079 
L 209.478174 83.129838 
L 210.303382 83.129838 
L 210.303382 81.277356 
L 212.724066 81.277356 
L 212.724066 79.424874 
L 213.269731 79.424874 
L 213.269731 78.498633 
L 216.641849 78.498633 
L 216.641849 77.572392 
L 338.688 77.572392 
L 338.688 77.572392 
" style="fill:none;stroke:#ff00ff;stroke-linecap:square;stroke-width:1.5;"/>
   </g>
   <g id="line2d_41">
    <defs>
     <path d="M 0 8.485281 
L 5.091169 0 
L 0 -8.485281 
L -5.091169 0 
z
" id="m0a00ef59fb" style="stroke:#ff00ff;stroke-linejoin:miter;stroke-width:1.5;"/>
    </defs>
    <g>
     <use style="fill-opacity:0;stroke:#ff00ff;stroke-linejoin:miter;stroke-width:1.5;" x="113.382559" xlink:href="#m0a00ef59fb" y="239.664574"/>
     <use style="fill-opacity:0;stroke:#ff00ff;stroke-linejoin:miter;stroke-width:1.5;" x="177.397923" xlink:href="#m0a00ef59fb" y="122.958203"/>
     <use style="fill-opacity:0;stroke:#ff00ff;stroke-linejoin:miter;stroke-width:1.5;" x="216.641849" xlink:href="#m0a00ef59fb" y="78.498633"/>
     <use style="fill-opacity:0;stroke:#ff00ff;stroke-linejoin:miter;stroke-width:1.5;" x="216.641849" xlink:href="#m0a00ef59fb" y="77.572392"/>
     <use style="fill-opacity:0;stroke:#ff00ff;stroke-linejoin:miter;stroke-width:1.5;" x="216.641849" xlink:href="#m0a00ef59fb" y="77.572392"/>
     <use style="fill-opacity:0;stroke:#ff00ff;stroke-linejoin:miter;stroke-width:1.5;" x="338.688" xlink:href="#m0a00ef59fb" y="77.572392"/>
    </g>
   </g>
   <g id="line2d_42">
    <path style="fill:none;stroke:#ff00ff;stroke-linecap:square;stroke-width:1.5;"/>
    <g/>
   </g>
   <g id="line2d_43">
    <path clip-path="url(#pf5a2ec61c1)" d="M 218.222237 77.572392 
" style="fill:none;stroke:#ff00ff;stroke-linecap:square;stroke-width:1.5;"/>
    <defs>
     <path d="M -12 12 
L 12 -12 
M -12 -12 
L 12 12 
" id="m920622f97c" style="stroke:#ff00ff;"/>
    </defs>
    <g clip-path="url(#pf5a2ec61c1)">
     <use style="fill:#ff00ff;stroke:#ff00ff;" x="218.222237" xlink:href="#m920622f97c" y="77.572392"/>
    </g>
   </g>
   <g id="line2d_44">
    <defs>
     <path d="M 0 1.5 
C 0.397805 1.5 0.77937 1.341951 1.06066 1.06066 
C 1.341951 0.77937 1.5 0.397805 1.5 0 
C 1.5 -0.397805 1.341951 -0.77937 1.06066 -1.06066 
C 0.77937 -1.341951 0.397805 -1.5 0 -1.5 
C -0.397805 -1.5 -0.77937 -1.341951 -1.06066 -1.06066 
C -1.341951 -0.77937 -1.5 -0.397805 -1.5 0 
C -1.5 0.397805 -1.341951 0.77937 -1.06066 1.06066 
C -0.77937 1.341951 -0.397805 1.5 0 1.5 
z
" id="m50e0262601" style="stroke:#ffa500;"/>
    </defs>
    <g>
     <use style="fill:#ffa500;stroke:#ffa500;" x="228.829884" xlink:href="#m50e0262601" y="72.941187"/>
     <use style="fill:#ffa500;stroke:#ffa500;" x="228.829884" xlink:href="#m50e0262601" y="72.941187"/>
    </g>
   </g>
   <g id="line2d_45">
    <path d="M 17.444571 298.944 
L 17.444571 298.017759 
L 69.687988 298.017759 
L 69.687988 297.091518 
L 81.775977 297.091518 
L 81.775977 295.239036 
L 84.588378 295.239036 
L 84.588378 292.460313 
L 85.315119 292.460313 
L 85.315119 291.534072 
L 85.66744 291.534072 
L 85.66744 289.68159 
L 88.255778 289.68159 
L 88.255778 287.829108 
L 90.509138 287.829108 
L 90.509138 285.050384 
L 91.284345 285.050384 
L 91.284345 282.271661 
L 93.863965 282.271661 
L 93.863965 278.566697 
L 95.526106 278.566697 
L 95.526106 276.714215 
L 96.110718 276.714215 
L 96.110718 270.230528 
L 96.86091 270.230528 
L 96.86091 269.304287 
L 97.224242 269.304287 
L 97.224242 265.599323 
L 98.100772 265.599323 
L 98.100772 257.263153 
L 101.923711 257.263153 
L 101.923711 256.336912 
L 102.989037 256.336912 
L 102.989037 252.631948 
L 104.355088 252.631948 
L 104.355088 251.705707 
L 104.942325 251.705707 
L 104.942325 249.853225 
L 107.314272 249.853225 
L 107.414787 244.295779 
L 108.102622 244.295779 
L 108.102622 243.369538 
L 108.671345 243.369538 
L 108.671345 239.664574 
L 109.930396 239.664574 
L 109.930396 236.88585 
L 110.103064 236.88585 
L 110.103064 234.107127 
L 112.051799 234.107127 
L 112.051799 232.254645 
L 112.506763 232.254645 
L 112.506763 231.328404 
L 112.72987 231.328404 
L 112.72987 230.402163 
L 112.877038 230.402163 
L 112.877038 227.62344 
L 113.167699 227.62344 
L 113.167699 226.697199 
L 113.804498 226.697199 
L 113.804498 224.844717 
L 116.914437 224.844717 
L 116.914437 223.918476 
L 117.820578 223.918476 
L 117.820578 222.065994 
L 119.097192 222.065994 
L 119.097192 220.213512 
L 119.351785 220.213512 
L 119.351785 219.287271 
L 119.89914 219.287271 
L 119.89914 217.434789 
L 120.045484 217.434789 
L 120.045484 216.508548 
L 120.665825 216.508548 
L 120.665825 215.582307 
L 122.061712 215.582307 
L 122.061712 214.656066 
L 122.31944 214.656066 
L 122.362027 211.877342 
L 122.947573 211.877342 
L 122.947573 210.951101 
L 123.152022 210.951101 
L 123.152022 210.02486 
L 123.313873 210.02486 
L 123.313873 208.172378 
L 123.633136 208.172378 
L 123.633136 207.246137 
L 125.961828 207.246137 
L 125.961828 205.393655 
L 126.202373 205.393655 
L 126.202373 204.467414 
L 127.611382 204.467414 
L 127.611382 203.541173 
L 128.015879 203.541173 
L 128.015879 202.614932 
L 128.650105 202.614932 
L 128.650105 201.688691 
L 130.209487 201.688691 
L 130.209487 199.836209 
L 130.926816 199.836209 
L 130.926816 197.057486 
L 131.108073 197.057486 
L 131.108073 196.131245 
L 132.374684 196.131245 
L 132.374684 195.205004 
L 133.46572 195.205004 
L 133.46572 194.278763 
L 134.428735 194.278763 
L 134.534878 190.573799 
L 136.380754 190.573799 
L 136.380754 189.647558 
L 136.86886 189.647558 
L 136.86886 187.795075 
L 137.540732 187.795075 
L 137.540732 186.868834 
L 138.594838 186.868834 
L 138.594838 185.942593 
L 141.760416 185.942593 
L 141.760416 184.090111 
L 142.686372 184.090111 
L 142.686372 183.16387 
L 143.131543 183.16387 
L 143.131543 181.311388 
L 143.413655 181.311388 
L 143.42637 179.458906 
L 143.553018 179.458906 
L 143.553018 178.532665 
L 143.691276 178.532665 
L 143.691276 177.606424 
L 143.890442 177.606424 
L 143.890442 176.680183 
L 144.59393 176.680183 
L 144.59393 174.827701 
L 145.005114 174.827701 
L 145.005114 173.90146 
L 145.576196 173.90146 
L 145.576196 172.975219 
L 145.721664 172.975219 
L 145.721664 171.122737 
L 147.530079 171.122737 
L 147.530079 170.196496 
L 149.893895 170.196496 
L 149.893895 169.270255 
L 152.669675 169.270255 
L 152.669675 167.417773 
L 153.644434 167.417773 
L 153.644434 166.491532 
L 154.459889 166.491532 
L 154.459889 165.565291 
L 154.57429 165.565291 
L 154.57429 164.63905 
L 156.508689 164.63905 
L 156.508689 162.786567 
L 156.764934 162.786567 
L 156.764934 161.860326 
L 157.243392 161.860326 
L 157.243392 160.934085 
L 157.959442 160.934085 
L 157.959442 160.007844 
L 158.314856 160.007844 
L 158.314856 159.081603 
L 159.547605 159.081603 
L 159.547605 157.229121 
L 160.034962 157.229121 
L 160.034962 156.30288 
L 160.302628 156.30288 
L 160.302628 155.376639 
L 163.16049 155.376639 
L 163.16049 154.450398 
L 164.210504 154.450398 
L 164.210504 153.524157 
L 164.402441 153.524157 
L 164.402441 152.597916 
L 164.824867 152.597916 
L 164.824867 150.745434 
L 165.021253 150.745434 
L 165.021253 149.819193 
L 165.848767 149.819193 
L 165.932896 147.04047 
L 166.17598 147.04047 
L 166.17598 146.114229 
L 166.32706 146.114229 
L 166.32706 145.187988 
L 166.812546 145.187988 
L 166.812546 143.335506 
L 167.336582 143.335506 
L 167.426692 140.556783 
L 167.976454 140.556783 
L 167.976454 139.630541 
L 168.452002 139.630541 
L 168.452002 138.7043 
L 169.204297 138.7043 
L 169.204297 137.778059 
L 169.322745 137.778059 
L 169.322745 136.851818 
L 169.802665 136.851818 
L 169.802665 134.999336 
L 170.751159 134.999336 
L 170.751159 134.073095 
L 171.162748 134.073095 
L 171.162748 133.146854 
L 171.445442 133.146854 
L 171.445442 131.294372 
L 171.776234 131.294372 
L 171.776234 129.44189 
L 173.070232 129.44189 
L 173.070232 128.515649 
L 173.764571 128.515649 
L 173.764571 127.589408 
L 175.244378 127.589408 
L 175.244378 125.736926 
L 176.9445 125.736926 
L 176.9445 123.884444 
L 177.836322 123.884444 
L 177.836322 122.031962 
L 178.155 122.031962 
L 178.155 120.17948 
L 179.003304 120.17948 
L 179.003304 119.253239 
L 179.870531 119.253239 
L 179.870531 118.326998 
L 181.116019 118.326998 
L 181.116019 117.400757 
L 181.996769 117.400757 
L 182.069005 113.695792 
L 182.837821 113.695792 
L 182.907984 111.84331 
L 183.7198 111.84331 
L 183.7198 110.917069 
L 184.435085 110.917069 
L 184.435085 109.990828 
L 185.311983 109.990828 
L 185.311983 109.064587 
L 186.957269 109.064587 
L 186.957269 108.138346 
L 188.033608 108.138346 
L 188.033608 107.212105 
L 189.28727 107.212105 
L 189.39234 104.433382 
L 192.047924 104.433382 
L 192.047924 102.5809 
L 192.771904 102.5809 
L 192.877395 99.802177 
L 192.977803 99.802177 
L 192.977803 97.949695 
L 193.65351 97.949695 
L 193.65351 96.097213 
L 194.58288 96.097213 
L 194.665208 93.31849 
L 195.488995 93.31849 
L 195.488995 92.392249 
L 197.38961 92.392249 
L 197.38961 90.539766 
L 198.062313 90.539766 
L 198.062313 89.613525 
L 199.755404 89.613525 
L 199.755404 88.687284 
L 201.289823 88.687284 
L 201.289823 87.761043 
L 204.070473 87.761043 
L 204.070473 86.834802 
L 209.083613 86.834802 
L 209.083613 85.908561 
L 211.022921 85.908561 
L 211.022921 84.98232 
L 211.69722 84.98232 
L 211.69722 83.129838 
L 214.792745 83.129838 
L 214.792745 81.277356 
L 218.843036 81.277356 
L 218.843036 79.424874 
L 221.106394 79.424874 
L 221.106394 78.498633 
L 221.333709 78.498633 
L 221.333709 76.646151 
L 224.54106 76.646151 
L 224.54106 75.71991 
L 225.233456 75.71991 
L 225.233456 74.793669 
L 228.364513 74.793669 
L 228.364513 73.867428 
L 228.829884 73.867428 
L 228.829884 72.941187 
L 338.688 72.941187 
L 338.688 72.941187 
" style="fill:none;stroke:#ffa500;stroke-linecap:square;stroke-width:1.5;"/>
   </g>
   <g id="line2d_46">
    <defs>
     <path d="M 0 -6 
L -1.347084 -1.854102 
L -5.706339 -1.854102 
L -2.179628 0.708204 
L -3.526712 4.854102 
L -0 2.291796 
L 3.526712 4.854102 
L 2.179628 0.708204 
L 5.706339 -1.854102 
L 1.347084 -1.854102 
z
" id="m4151fd12c5" style="stroke:#ffa500;stroke-linejoin:bevel;stroke-width:1.5;"/>
    </defs>
    <g>
     <use style="fill-opacity:0;stroke:#ffa500;stroke-linejoin:bevel;stroke-width:1.5;" x="130.209487" xlink:href="#m4151fd12c5" y="201.688691"/>
     <use style="fill-opacity:0;stroke:#ffa500;stroke-linejoin:bevel;stroke-width:1.5;" x="179.870531" xlink:href="#m4151fd12c5" y="119.253239"/>
     <use style="fill-opacity:0;stroke:#ffa500;stroke-linejoin:bevel;stroke-width:1.5;" x="228.829884" xlink:href="#m4151fd12c5" y="73.867428"/>
     <use style="fill-opacity:0;stroke:#ffa500;stroke-linejoin:bevel;stroke-width:1.5;" x="228.829884" xlink:href="#m4151fd12c5" y="72.941187"/>
     <use style="fill-opacity:0;stroke:#ffa500;stroke-linejoin:bevel;stroke-width:1.5;" x="338.688" xlink:href="#m4151fd12c5" y="72.941187"/>
    </g>
   </g>
   <g id="line2d_47">
    <path style="fill:none;stroke:#ffa500;stroke-linecap:square;stroke-width:1.5;"/>
    <g/>
   </g>
   <g id="line2d_48">
    <path clip-path="url(#pf5a2ec61c1)" d="M 230.310052 72.941187 
" style="fill:none;stroke:#ffa500;stroke-linecap:square;stroke-width:1.5;"/>
    <defs>
     <path d="M -12 12 
L 12 -12 
M -12 -12 
L 12 12 
" id="m8d44f960f6" style="stroke:#ffa500;"/>
    </defs>
    <g clip-path="url(#pf5a2ec61c1)">
     <use style="fill:#ffa500;stroke:#ffa500;" x="230.310052" xlink:href="#m8d44f960f6" y="72.941187"/>
    </g>
   </g>
   <g id="line2d_49">
    <path d="M 338.688 85.908561 
L 369.60768 293.571802 
" style="fill:none;stroke:#000080;stroke-linecap:square;stroke-width:1.5;"/>
    <g>
     <use style="fill-opacity:0;stroke:#000080;stroke-width:1.5;" x="338.688" xlink:href="#m55898452a5" y="85.908561"/>
     <use style="fill-opacity:0;stroke:#000080;stroke-width:1.5;" x="369.60768" xlink:href="#m55898452a5" y="293.571802"/>
    </g>
   </g>
   <g id="line2d_50">
    <path d="M 338.688 77.572392 
L 369.60768 207.616634 
" style="fill:none;stroke:#ff00ff;stroke-linecap:square;stroke-width:1.5;"/>
    <g>
     <use style="fill-opacity:0;stroke:#ff00ff;stroke-linejoin:miter;stroke-width:1.5;" x="338.688" xlink:href="#m0a00ef59fb" y="77.572392"/>
     <use style="fill-opacity:0;stroke:#ff00ff;stroke-linejoin:miter;stroke-width:1.5;" x="369.60768" xlink:href="#m0a00ef59fb" y="207.616634"/>
    </g>
   </g>
   <g id="line2d_51">
    <path d="M 338.688 72.941187 
L 369.60768 121.661465 
" style="fill:none;stroke:#ffa500;stroke-linecap:square;stroke-width:1.5;"/>
    <g>
     <use style="fill-opacity:0;stroke:#ffa500;stroke-linejoin:bevel;stroke-width:1.5;" x="338.688" xlink:href="#m4151fd12c5" y="72.941187"/>
     <use style="fill-opacity:0;stroke:#ffa500;stroke-linejoin:bevel;stroke-width:1.5;" x="369.60768" xlink:href="#m4151fd12c5" y="121.661465"/>
    </g>
   </g>
   <g id="line2d_52">
    <path d="M 338.688 298.944 
L 338.688 30.334099 
" style="fill:none;stroke:#000000;stroke-linecap:square;stroke-width:1.5;"/>
   </g>
   <g id="patch_3">
    <path d="M 57.6 298.944 
L 57.6 27.648 
" style="fill:none;stroke:#000000;stroke-linecap:square;stroke-linejoin:miter;stroke-width:0.8;"/>
   </g>
   <g id="patch_4">
    <path d="M 338.688 298.944 
L 338.688 27.648 
" style="fill:none;stroke:#000000;stroke-linecap:square;stroke-linejoin:miter;stroke-width:0.8;"/>
   </g>
   <g id="patch_5">
    <path d="M 57.6 298.944 
L 338.688 298.944 
" style="fill:none;stroke:#000000;stroke-linecap:square;stroke-linejoin:miter;stroke-width:0.8;"/>
   </g>
   <g id="patch_6">
    <path d="M 57.6 27.648 
L 338.688 27.648 
" style="fill:none;stroke:#000000;stroke-linecap:square;stroke-linejoin:miter;stroke-width:0.8;"/>
   </g>
   <g id="text_13">
    <!-- derandomi -->
    <g transform="translate(375.22944 298.262739)scale(0.17 -0.17)">
     <use xlink:href="#DejaVuSans-100"/>
     <use x="63.476562" xlink:href="#DejaVuSans-101"/>
     <use x="125" xlink:href="#DejaVuSans-114"/>
     <use x="166.113281" xlink:href="#DejaVuSans-97"/>
     <use x="227.392578" xlink:href="#DejaVuSans-110"/>
     <use x="290.771484" xlink:href="#DejaVuSans-100"/>
     <use x="354.248047" xlink:href="#DejaVuSans-111"/>
     <use x="415.429688" xlink:href="#DejaVuSans-109"/>
     <use x="512.841797" xlink:href="#DejaVuSans-105"/>
    </g>
   </g>
   <g id="text_14">
    <!-- onlychvre -->
    <defs>
     <path d="M 32.171875 -5.078125 
Q 28.375 -14.84375 24.75 -17.8125 
Q 21.140625 -20.796875 15.09375 -20.796875 
L 7.90625 -20.796875 
L 7.90625 -13.28125 
L 13.1875 -13.28125 
Q 16.890625 -13.28125 18.9375 -11.515625 
Q 21 -9.765625 23.484375 -3.21875 
L 25.09375 0.875 
L 2.984375 54.6875 
L 12.5 54.6875 
L 29.59375 11.921875 
L 46.6875 54.6875 
L 56.203125 54.6875 
z
" id="DejaVuSans-121"/>
     <path d="M 54.890625 33.015625 
L 54.890625 0 
L 45.90625 0 
L 45.90625 32.71875 
Q 45.90625 40.484375 42.875 44.328125 
Q 39.84375 48.1875 33.796875 48.1875 
Q 26.515625 48.1875 22.3125 43.546875 
Q 18.109375 38.921875 18.109375 30.90625 
L 18.109375 0 
L 9.078125 0 
L 9.078125 75.984375 
L 18.109375 75.984375 
L 18.109375 46.1875 
Q 21.34375 51.125 25.703125 53.5625 
Q 30.078125 56 35.796875 56 
Q 45.21875 56 50.046875 50.171875 
Q 54.890625 44.34375 54.890625 33.015625 
z
" id="DejaVuSans-104"/>
    </defs>
    <g transform="translate(375.22944 212.307571)scale(0.17 -0.17)">
     <use xlink:href="#DejaVuSans-111"/>
     <use x="61.181641" xlink:href="#DejaVuSans-110"/>
     <use x="124.560547" xlink:href="#DejaVuSans-108"/>
     <use x="152.34375" xlink:href="#DejaVuSans-121"/>
     <use x="211.523438" xlink:href="#DejaVuSans-99"/>
     <use x="266.503906" xlink:href="#DejaVuSans-104"/>
     <use x="329.882812" xlink:href="#DejaVuSans-118"/>
     <use x="389.0625" xlink:href="#DejaVuSans-114"/>
     <use x="430.144531" xlink:href="#DejaVuSans-101"/>
    </g>
   </g>
   <g id="text_15">
    <!-- randomres -->
    <g transform="translate(375.22944 126.352403)scale(0.17 -0.17)">
     <use xlink:href="#DejaVuSans-114"/>
     <use x="41.113281" xlink:href="#DejaVuSans-97"/>
     <use x="102.392578" xlink:href="#DejaVuSans-110"/>
     <use x="165.771484" xlink:href="#DejaVuSans-100"/>
     <use x="229.248047" xlink:href="#DejaVuSans-111"/>
     <use x="290.429688" xlink:href="#DejaVuSans-109"/>
     <use x="387.841797" xlink:href="#DejaVuSans-114"/>
     <use x="428.923828" xlink:href="#DejaVuSans-101"/>
     <use x="490.447266" xlink:href="#DejaVuSans-115"/>
    </g>
   </g>
   <g id="text_16">
    <!-- best 2016 -->
    <defs>
     <path d="M 48.6875 27.296875 
Q 48.6875 37.203125 44.609375 42.84375 
Q 40.53125 48.484375 33.40625 48.484375 
Q 26.265625 48.484375 22.1875 42.84375 
Q 18.109375 37.203125 18.109375 27.296875 
Q 18.109375 17.390625 22.1875 11.75 
Q 26.265625 6.109375 33.40625 6.109375 
Q 40.53125 6.109375 44.609375 11.75 
Q 48.6875 17.390625 48.6875 27.296875 
z
M 18.109375 46.390625 
Q 20.953125 51.265625 25.265625 53.625 
Q 29.59375 56 35.59375 56 
Q 45.5625 56 51.78125 48.09375 
Q 58.015625 40.1875 58.015625 27.296875 
Q 58.015625 14.40625 51.78125 6.484375 
Q 45.5625 -1.421875 35.59375 -1.421875 
Q 29.59375 -1.421875 25.265625 0.953125 
Q 20.953125 3.328125 18.109375 8.203125 
L 18.109375 0 
L 9.078125 0 
L 9.078125 75.984375 
L 18.109375 75.984375 
z
" id="DejaVuSans-98"/>
    </defs>
    <g transform="translate(375.22944 40.397235)scale(0.17 -0.17)">
     <use xlink:href="#DejaVuSans-98"/>
     <use x="63.476562" xlink:href="#DejaVuSans-101"/>
     <use x="125" xlink:href="#DejaVuSans-115"/>
     <use x="177.099609" xlink:href="#DejaVuSans-116"/>
     <use x="216.308594" xlink:href="#DejaVuSans-32"/>
     <use x="248.095703" xlink:href="#DejaVuSans-50"/>
     <use x="311.71875" xlink:href="#DejaVuSans-48"/>
     <use x="375.341797" xlink:href="#DejaVuSans-49"/>
     <use x="438.964844" xlink:href="#DejaVuSans-54"/>
    </g>
   </g>
   <g id="text_17">
    <!-- bbob-biobj f20, 10-D -->
    <defs>
     <path d="M 9.421875 54.6875 
L 18.40625 54.6875 
L 18.40625 -0.984375 
Q 18.40625 -11.421875 14.421875 -16.109375 
Q 10.453125 -20.796875 1.609375 -20.796875 
L -1.8125 -20.796875 
L -1.8125 -13.1875 
L 0.59375 -13.1875 
Q 5.71875 -13.1875 7.5625 -10.8125 
Q 9.421875 -8.453125 9.421875 -0.984375 
z
M 9.421875 75.984375 
L 18.40625 75.984375 
L 18.40625 64.59375 
L 9.421875 64.59375 
z
" id="DejaVuSans-106"/>
     <path d="M 19.671875 64.796875 
L 19.671875 8.109375 
L 31.59375 8.109375 
Q 46.6875 8.109375 53.6875 14.9375 
Q 60.6875 21.78125 60.6875 36.53125 
Q 60.6875 51.171875 53.6875 57.984375 
Q 46.6875 64.796875 31.59375 64.796875 
z
M 9.8125 72.90625 
L 30.078125 72.90625 
Q 51.265625 72.90625 61.171875 64.09375 
Q 71.09375 55.28125 71.09375 36.53125 
Q 71.09375 17.671875 61.125 8.828125 
Q 51.171875 0 30.078125 0 
L 9.8125 0 
z
" id="DejaVuSans-68"/>
    </defs>
    <g transform="translate(60.41088 38.111366)scale(0.102 -0.102)">
     <use xlink:href="#DejaVuSans-98"/>
     <use x="63.476562" xlink:href="#DejaVuSans-98"/>
     <use x="126.953125" xlink:href="#DejaVuSans-111"/>
     <use x="188.134766" xlink:href="#DejaVuSans-98"/>
     <use x="251.611328" xlink:href="#DejaVuSans-45"/>
     <use x="287.695312" xlink:href="#DejaVuSans-98"/>
     <use x="351.171875" xlink:href="#DejaVuSans-105"/>
     <use x="378.955078" xlink:href="#DejaVuSans-111"/>
     <use x="440.136719" xlink:href="#DejaVuSans-98"/>
     <use x="503.613281" xlink:href="#DejaVuSans-106"/>
     <use x="531.396484" xlink:href="#DejaVuSans-32"/>
     <use x="563.183594" xlink:href="#DejaVuSans-102"/>
     <use x="598.388672" xlink:href="#DejaVuSans-50"/>
     <use x="662.011719" xlink:href="#DejaVuSans-48"/>
     <use x="725.634766" xlink:href="#DejaVuSans-44"/>
     <use x="757.421875" xlink:href="#DejaVuSans-32"/>
     <use x="789.208984" xlink:href="#DejaVuSans-49"/>
     <use x="852.832031" xlink:href="#DejaVuSans-48"/>
     <use x="916.455078" xlink:href="#DejaVuSans-45"/>
     <use x="952.539062" xlink:href="#DejaVuSans-68"/>
    </g>
    <!-- 58 targets: 1..-1.0e-4 -->
    <defs>
     <path d="M 10.796875 72.90625 
L 49.515625 72.90625 
L 49.515625 64.59375 
L 19.828125 64.59375 
L 19.828125 46.734375 
Q 21.96875 47.46875 24.109375 47.828125 
Q 26.265625 48.1875 28.421875 48.1875 
Q 40.625 48.1875 47.75 41.5 
Q 54.890625 34.8125 54.890625 23.390625 
Q 54.890625 11.625 47.5625 5.09375 
Q 40.234375 -1.421875 26.90625 -1.421875 
Q 22.3125 -1.421875 17.546875 -0.640625 
Q 12.796875 0.140625 7.71875 1.703125 
L 7.71875 11.625 
Q 12.109375 9.234375 16.796875 8.0625 
Q 21.484375 6.890625 26.703125 6.890625 
Q 35.15625 6.890625 40.078125 11.328125 
Q 45.015625 15.765625 45.015625 23.390625 
Q 45.015625 31 40.078125 35.4375 
Q 35.15625 39.890625 26.703125 39.890625 
Q 22.75 39.890625 18.8125 39.015625 
Q 14.890625 38.140625 10.796875 36.28125 
z
" id="DejaVuSans-53"/>
     <path d="M 11.71875 12.40625 
L 22.015625 12.40625 
L 22.015625 0 
L 11.71875 0 
z
M 11.71875 51.703125 
L 22.015625 51.703125 
L 22.015625 39.3125 
L 11.71875 39.3125 
z
" id="DejaVuSans-58"/>
    </defs>
    <g transform="translate(60.41088 49.533135)scale(0.102 -0.102)">
     <use xlink:href="#DejaVuSans-53"/>
     <use x="63.623047" xlink:href="#DejaVuSans-56"/>
     <use x="127.246094" xlink:href="#DejaVuSans-32"/>
     <use x="159.033203" xlink:href="#DejaVuSans-116"/>
     <use x="198.242188" xlink:href="#DejaVuSans-97"/>
     <use x="259.521484" xlink:href="#DejaVuSans-114"/>
     <use x="300.619141" xlink:href="#DejaVuSans-103"/>
     <use x="364.095703" xlink:href="#DejaVuSans-101"/>
     <use x="425.619141" xlink:href="#DejaVuSans-116"/>
     <use x="464.828125" xlink:href="#DejaVuSans-115"/>
     <use x="516.927734" xlink:href="#DejaVuSans-58"/>
     <use x="550.619141" xlink:href="#DejaVuSans-32"/>
     <use x="582.40625" xlink:href="#DejaVuSans-49"/>
     <use x="646.029297" xlink:href="#DejaVuSans-46"/>
     <use x="677.816406" xlink:href="#DejaVuSans-46"/>
     <use x="709.603516" xlink:href="#DejaVuSans-45"/>
     <use x="745.6875" xlink:href="#DejaVuSans-49"/>
     <use x="809.310547" xlink:href="#DejaVuSans-46"/>
     <use x="841.097656" xlink:href="#DejaVuSans-48"/>
     <use x="904.720703" xlink:href="#DejaVuSans-101"/>
     <use x="966.244141" xlink:href="#DejaVuSans-45"/>
     <use x="1002.328125" xlink:href="#DejaVuSans-52"/>
    </g>
    <!-- 5 instances -->
    <g transform="translate(60.41088 60.954904)scale(0.102 -0.102)">
     <use xlink:href="#DejaVuSans-53"/>
     <use x="63.623047" xlink:href="#DejaVuSans-32"/>
     <use x="95.410156" xlink:href="#DejaVuSans-105"/>
     <use x="123.193359" xlink:href="#DejaVuSans-110"/>
     <use x="186.572266" xlink:href="#DejaVuSans-115"/>
     <use x="238.671875" xlink:href="#DejaVuSans-116"/>
     <use x="277.880859" xlink:href="#DejaVuSans-97"/>
     <use x="339.160156" xlink:href="#DejaVuSans-110"/>
     <use x="402.539062" xlink:href="#DejaVuSans-99"/>
     <use x="457.519531" xlink:href="#DejaVuSans-101"/>
     <use x="519.042969" xlink:href="#DejaVuSans-115"/>
    </g>
   </g>
   <g id="text_18">
    <!-- v2.3.1.83 -->
    <defs>
     <path d="M 40.578125 39.3125 
Q 47.65625 37.796875 51.625 33 
Q 55.609375 28.21875 55.609375 21.1875 
Q 55.609375 10.40625 48.1875 4.484375 
Q 40.765625 -1.421875 27.09375 -1.421875 
Q 22.515625 -1.421875 17.65625 -0.515625 
Q 12.796875 0.390625 7.625 2.203125 
L 7.625 11.71875 
Q 11.71875 9.328125 16.59375 8.109375 
Q 21.484375 6.890625 26.8125 6.890625 
Q 36.078125 6.890625 40.9375 10.546875 
Q 45.796875 14.203125 45.796875 21.1875 
Q 45.796875 27.640625 41.28125 31.265625 
Q 36.765625 34.90625 28.71875 34.90625 
L 20.21875 34.90625 
L 20.21875 43.015625 
L 29.109375 43.015625 
Q 36.375 43.015625 40.234375 45.921875 
Q 44.09375 48.828125 44.09375 54.296875 
Q 44.09375 59.90625 40.109375 62.90625 
Q 36.140625 65.921875 28.71875 65.921875 
Q 24.65625 65.921875 20.015625 65.03125 
Q 15.375 64.15625 9.8125 62.3125 
L 9.8125 71.09375 
Q 15.4375 72.65625 20.34375 73.4375 
Q 25.25 74.21875 29.59375 74.21875 
Q 40.828125 74.21875 47.359375 69.109375 
Q 53.90625 64.015625 53.90625 55.328125 
Q 53.90625 49.265625 50.4375 45.09375 
Q 46.96875 40.921875 40.578125 39.3125 
z
" id="DejaVuSans-51"/>
    </defs>
    <g style="fill:#808080;" transform="translate(174.511187 294.151352)scale(0.1 -0.1)">
     <use xlink:href="#DejaVuSans-118"/>
     <use x="59.179688" xlink:href="#DejaVuSans-50"/>
     <use x="122.802734" xlink:href="#DejaVuSans-46"/>
     <use x="154.589844" xlink:href="#DejaVuSans-51"/>
     <use x="218.212891" xlink:href="#DejaVuSans-46"/>
     <use x="250" xlink:href="#DejaVuSans-49"/>
     <use x="313.623047" xlink:href="#DejaVuSans-46"/>
     <use x="345.410156" xlink:href="#DejaVuSans-56"/>
     <use x="409.033203" xlink:href="#DejaVuSans-51"/>
    </g>
   </g>
   <g id="text_19">
    <!-- 20 Attr. sector/Attr. sector -->
    <defs>
     <path d="M 34.1875 63.1875 
L 20.796875 26.90625 
L 47.609375 26.90625 
z
M 28.609375 72.90625 
L 39.796875 72.90625 
L 67.578125 0 
L 57.328125 0 
L 50.6875 18.703125 
L 17.828125 18.703125 
L 11.1875 0 
L 0.78125 0 
z
" id="DejaVuSans-65"/>
    </defs>
    <g transform="translate(66.584625 21.648)scale(0.2 -0.2)">
     <use xlink:href="#DejaVuSans-50"/>
     <use x="63.623047" xlink:href="#DejaVuSans-48"/>
     <use x="127.246094" xlink:href="#DejaVuSans-32"/>
     <use x="159.033203" xlink:href="#DejaVuSans-65"/>
     <use x="227.425781" xlink:href="#DejaVuSans-116"/>
     <use x="266.634766" xlink:href="#DejaVuSans-116"/>
     <use x="305.84375" xlink:href="#DejaVuSans-114"/>
     <use x="346.816406" xlink:href="#DejaVuSans-46"/>
     <use x="378.603516" xlink:href="#DejaVuSans-32"/>
     <use x="410.390625" xlink:href="#DejaVuSans-115"/>
     <use x="462.490234" xlink:href="#DejaVuSans-101"/>
     <use x="524.013672" xlink:href="#DejaVuSans-99"/>
     <use x="578.994141" xlink:href="#DejaVuSans-116"/>
     <use x="618.203125" xlink:href="#DejaVuSans-111"/>
     <use x="679.384766" xlink:href="#DejaVuSans-114"/>
     <use x="720.498047" xlink:href="#DejaVuSans-47"/>
     <use x="754.189453" xlink:href="#DejaVuSans-65"/>
     <use x="822.582031" xlink:href="#DejaVuSans-116"/>
     <use x="861.791016" xlink:href="#DejaVuSans-116"/>
     <use x="901" xlink:href="#DejaVuSans-114"/>
     <use x="941.972656" xlink:href="#DejaVuSans-46"/>
     <use x="973.759766" xlink:href="#DejaVuSans-32"/>
     <use x="1005.546875" xlink:href="#DejaVuSans-115"/>
     <use x="1057.646484" xlink:href="#DejaVuSans-101"/>
     <use x="1119.169922" xlink:href="#DejaVuSans-99"/>
     <use x="1174.150391" xlink:href="#DejaVuSans-116"/>
     <use x="1213.359375" xlink:href="#DejaVuSans-111"/>
     <use x="1274.541016" xlink:href="#DejaVuSans-114"/>
    </g>
   </g>
  </g>
 </g>
 <defs>
  <clipPath id="pf5a2ec61c1">
   <rect height="271.296" width="281.088" x="57.6" y="27.648"/>
  </clipPath>
 </defs>
</svg>
