<?xml version="1.0" encoding="utf-8" standalone="no"?>
<!DOCTYPE svg PUBLIC "-//W3C//DTD SVG 1.1//EN"
  "http://www.w3.org/Graphics/SVG/1.1/DTD/svg11.dtd">
<!-- Created with matplotlib (https://matplotlib.org/) -->
<svg height="345.6pt" version="1.1" viewBox="0 0 460.8 345.6" width="460.8pt" xmlns="http://www.w3.org/2000/svg" xmlns:xlink="http://www.w3.org/1999/xlink">
 <defs>
  <style type="text/css">
*{stroke-linecap:butt;stroke-linejoin:round;}
  </style>
 </defs>
 <g id="figure_1">
  <g id="patch_1">
   <path d="M 0 345.6 
L 460.8 345.6 
L 460.8 0 
L 0 0 
z
" style="fill:#ffffff;"/>
  </g>
  <g id="axes_1">
   <g id="patch_2">
    <path d="M 34.16 291.28 
L 453.192 291.28 
L 453.192 3 
L 34.16 3 
z
" style="fill:#ffffff;"/>
   </g>
   <g id="matplotlib.axis_1">
    <g id="xtick_1">
     <g id="line2d_1">
      <path clip-path="url(#pb45804c99a)" d="M 169.21601 291.28 
L 169.21601 3 
" style="fill:none;stroke:#b0b0b0;stroke-linecap:square;stroke-width:0.8;"/>
     </g>
     <g id="line2d_2">
      <defs>
       <path d="M 0 0 
L 0 3.5 
" id="m86e97187ba" style="stroke:#000000;stroke-width:0.8;"/>
      </defs>
      <g>
       <use style="stroke:#000000;stroke-width:0.8;" x="169.21601" xlink:href="#m86e97187ba" y="291.28"/>
      </g>
     </g>
     <g id="text_1">
      <!-- -1 -->
      <defs>
       <path d="M 4.890625 31.390625 
L 31.203125 31.390625 
L 31.203125 23.390625 
L 4.890625 23.390625 
z
" id="DejaVuSans-45"/>
       <path d="M 12.40625 8.296875 
L 28.515625 8.296875 
L 28.515625 63.921875 
L 10.984375 60.40625 
L 10.984375 69.390625 
L 28.421875 72.90625 
L 38.28125 72.90625 
L 38.28125 8.296875 
L 54.390625 8.296875 
L 54.390625 0 
L 12.40625 0 
z
" id="DejaVuSans-49"/>
      </defs>
      <g transform="translate(159.245698 313.476875)scale(0.2 -0.2)">
       <use xlink:href="#DejaVuSans-45"/>
       <use x="36.083984" xlink:href="#DejaVuSans-49"/>
      </g>
     </g>
    </g>
    <g id="xtick_2">
     <g id="line2d_3">
      <path clip-path="url(#pb45804c99a)" d="M 318.13599 291.28 
L 318.13599 3 
" style="fill:none;stroke:#b0b0b0;stroke-linecap:square;stroke-width:0.8;"/>
     </g>
     <g id="line2d_4">
      <g>
       <use style="stroke:#000000;stroke-width:0.8;" x="318.13599" xlink:href="#m86e97187ba" y="291.28"/>
      </g>
     </g>
     <g id="text_2">
      <!-- 1 -->
      <g transform="translate(311.77349 313.476875)scale(0.2 -0.2)">
       <use xlink:href="#DejaVuSans-49"/>
      </g>
     </g>
    </g>
    <g id="xtick_3">
     <g id="line2d_5">
      <defs>
       <path d="M 0 0 
L 0 2 
" id="m2733814df1" style="stroke:#000000;stroke-width:0.6;"/>
      </defs>
      <g>
       <use style="stroke:#000000;stroke-width:0.6;" x="42.71072" xlink:href="#m2733814df1" y="291.28"/>
      </g>
     </g>
    </g>
    <g id="xtick_4">
     <g id="line2d_6">
      <g>
       <use style="stroke:#000000;stroke-width:0.6;" x="55.822474" xlink:href="#m2733814df1" y="291.28"/>
      </g>
     </g>
    </g>
    <g id="xtick_5">
     <g id="line2d_7">
      <g>
       <use style="stroke:#000000;stroke-width:0.6;" x="65.125411" xlink:href="#m2733814df1" y="291.28"/>
      </g>
     </g>
    </g>
    <g id="xtick_6">
     <g id="line2d_8">
      <g>
       <use style="stroke:#000000;stroke-width:0.6;" x="72.34133" xlink:href="#m2733814df1" y="291.28"/>
      </g>
     </g>
    </g>
    <g id="xtick_7">
     <g id="line2d_9">
      <g>
       <use style="stroke:#000000;stroke-width:0.6;" x="78.237164" xlink:href="#m2733814df1" y="291.28"/>
      </g>
     </g>
    </g>
    <g id="xtick_8">
     <g id="line2d_10">
      <g>
       <use style="stroke:#000000;stroke-width:0.6;" x="83.222022" xlink:href="#m2733814df1" y="291.28"/>
      </g>
     </g>
    </g>
    <g id="xtick_9">
     <g id="line2d_11">
      <g>
       <use style="stroke:#000000;stroke-width:0.6;" x="87.540101" xlink:href="#m2733814df1" y="291.28"/>
      </g>
     </g>
    </g>
    <g id="xtick_10">
     <g id="line2d_12">
      <g>
       <use style="stroke:#000000;stroke-width:0.6;" x="91.348918" xlink:href="#m2733814df1" y="291.28"/>
      </g>
     </g>
    </g>
    <g id="xtick_11">
     <g id="line2d_13">
      <g>
       <use style="stroke:#000000;stroke-width:0.6;" x="117.17071" xlink:href="#m2733814df1" y="291.28"/>
      </g>
     </g>
    </g>
    <g id="xtick_12">
     <g id="line2d_14">
      <g>
       <use style="stroke:#000000;stroke-width:0.6;" x="130.282464" xlink:href="#m2733814df1" y="291.28"/>
      </g>
     </g>
    </g>
    <g id="xtick_13">
     <g id="line2d_15">
      <g>
       <use style="stroke:#000000;stroke-width:0.6;" x="139.585401" xlink:href="#m2733814df1" y="291.28"/>
      </g>
     </g>
    </g>
    <g id="xtick_14">
     <g id="line2d_16">
      <g>
       <use style="stroke:#000000;stroke-width:0.6;" x="146.80132" xlink:href="#m2733814df1" y="291.28"/>
      </g>
     </g>
    </g>
    <g id="xtick_15">
     <g id="line2d_17">
      <g>
       <use style="stroke:#000000;stroke-width:0.6;" x="152.697154" xlink:href="#m2733814df1" y="291.28"/>
      </g>
     </g>
    </g>
    <g id="xtick_16">
     <g id="line2d_18">
      <g>
       <use style="stroke:#000000;stroke-width:0.6;" x="157.682012" xlink:href="#m2733814df1" y="291.28"/>
      </g>
     </g>
    </g>
    <g id="xtick_17">
     <g id="line2d_19">
      <g>
       <use style="stroke:#000000;stroke-width:0.6;" x="162.000091" xlink:href="#m2733814df1" y="291.28"/>
      </g>
     </g>
    </g>
    <g id="xtick_18">
     <g id="line2d_20">
      <g>
       <use style="stroke:#000000;stroke-width:0.6;" x="165.808908" xlink:href="#m2733814df1" y="291.28"/>
      </g>
     </g>
    </g>
    <g id="xtick_19">
     <g id="line2d_21">
      <g>
       <use style="stroke:#000000;stroke-width:0.6;" x="191.6307" xlink:href="#m2733814df1" y="291.28"/>
      </g>
     </g>
    </g>
    <g id="xtick_20">
     <g id="line2d_22">
      <g>
       <use style="stroke:#000000;stroke-width:0.6;" x="204.742454" xlink:href="#m2733814df1" y="291.28"/>
      </g>
     </g>
    </g>
    <g id="xtick_21">
     <g id="line2d_23">
      <g>
       <use style="stroke:#000000;stroke-width:0.6;" x="214.045391" xlink:href="#m2733814df1" y="291.28"/>
      </g>
     </g>
    </g>
    <g id="xtick_22">
     <g id="line2d_24">
      <g>
       <use style="stroke:#000000;stroke-width:0.6;" x="221.26131" xlink:href="#m2733814df1" y="291.28"/>
      </g>
     </g>
    </g>
    <g id="xtick_23">
     <g id="line2d_25">
      <g>
       <use style="stroke:#000000;stroke-width:0.6;" x="227.157144" xlink:href="#m2733814df1" y="291.28"/>
      </g>
     </g>
    </g>
    <g id="xtick_24">
     <g id="line2d_26">
      <g>
       <use style="stroke:#000000;stroke-width:0.6;" x="232.142002" xlink:href="#m2733814df1" y="291.28"/>
      </g>
     </g>
    </g>
    <g id="xtick_25">
     <g id="line2d_27">
      <g>
       <use style="stroke:#000000;stroke-width:0.6;" x="236.460081" xlink:href="#m2733814df1" y="291.28"/>
      </g>
     </g>
    </g>
    <g id="xtick_26">
     <g id="line2d_28">
      <g>
       <use style="stroke:#000000;stroke-width:0.6;" x="240.268898" xlink:href="#m2733814df1" y="291.28"/>
      </g>
     </g>
    </g>
    <g id="xtick_27">
     <g id="line2d_29">
      <g>
       <use style="stroke:#000000;stroke-width:0.6;" x="266.09069" xlink:href="#m2733814df1" y="291.28"/>
      </g>
     </g>
    </g>
    <g id="xtick_28">
     <g id="line2d_30">
      <g>
       <use style="stroke:#000000;stroke-width:0.6;" x="279.202444" xlink:href="#m2733814df1" y="291.28"/>
      </g>
     </g>
    </g>
    <g id="xtick_29">
     <g id="line2d_31">
      <g>
       <use style="stroke:#000000;stroke-width:0.6;" x="288.505381" xlink:href="#m2733814df1" y="291.28"/>
      </g>
     </g>
    </g>
    <g id="xtick_30">
     <g id="line2d_32">
      <g>
       <use style="stroke:#000000;stroke-width:0.6;" x="295.7213" xlink:href="#m2733814df1" y="291.28"/>
      </g>
     </g>
    </g>
    <g id="xtick_31">
     <g id="line2d_33">
      <g>
       <use style="stroke:#000000;stroke-width:0.6;" x="301.617134" xlink:href="#m2733814df1" y="291.28"/>
      </g>
     </g>
    </g>
    <g id="xtick_32">
     <g id="line2d_34">
      <g>
       <use style="stroke:#000000;stroke-width:0.6;" x="306.601992" xlink:href="#m2733814df1" y="291.28"/>
      </g>
     </g>
    </g>
    <g id="xtick_33">
     <g id="line2d_35">
      <g>
       <use style="stroke:#000000;stroke-width:0.6;" x="310.920071" xlink:href="#m2733814df1" y="291.28"/>
      </g>
     </g>
    </g>
    <g id="xtick_34">
     <g id="line2d_36">
      <g>
       <use style="stroke:#000000;stroke-width:0.6;" x="314.728888" xlink:href="#m2733814df1" y="291.28"/>
      </g>
     </g>
    </g>
    <g id="xtick_35">
     <g id="line2d_37">
      <g>
       <use style="stroke:#000000;stroke-width:0.6;" x="340.55068" xlink:href="#m2733814df1" y="291.28"/>
      </g>
     </g>
    </g>
    <g id="xtick_36">
     <g id="line2d_38">
      <g>
       <use style="stroke:#000000;stroke-width:0.6;" x="353.662434" xlink:href="#m2733814df1" y="291.28"/>
      </g>
     </g>
    </g>
    <g id="xtick_37">
     <g id="line2d_39">
      <g>
       <use style="stroke:#000000;stroke-width:0.6;" x="362.965371" xlink:href="#m2733814df1" y="291.28"/>
      </g>
     </g>
    </g>
    <g id="xtick_38">
     <g id="line2d_40">
      <g>
       <use style="stroke:#000000;stroke-width:0.6;" x="370.18129" xlink:href="#m2733814df1" y="291.28"/>
      </g>
     </g>
    </g>
    <g id="xtick_39">
     <g id="line2d_41">
      <g>
       <use style="stroke:#000000;stroke-width:0.6;" x="376.077124" xlink:href="#m2733814df1" y="291.28"/>
      </g>
     </g>
    </g>
    <g id="xtick_40">
     <g id="line2d_42">
      <g>
       <use style="stroke:#000000;stroke-width:0.6;" x="381.061982" xlink:href="#m2733814df1" y="291.28"/>
      </g>
     </g>
    </g>
    <g id="xtick_41">
     <g id="line2d_43">
      <g>
       <use style="stroke:#000000;stroke-width:0.6;" x="385.380061" xlink:href="#m2733814df1" y="291.28"/>
      </g>
     </g>
    </g>
    <g id="xtick_42">
     <g id="line2d_44">
      <g>
       <use style="stroke:#000000;stroke-width:0.6;" x="389.188878" xlink:href="#m2733814df1" y="291.28"/>
      </g>
     </g>
    </g>
    <g id="xtick_43">
     <g id="line2d_45">
      <g>
       <use style="stroke:#000000;stroke-width:0.6;" x="415.01067" xlink:href="#m2733814df1" y="291.28"/>
      </g>
     </g>
    </g>
    <g id="xtick_44">
     <g id="line2d_46">
      <g>
       <use style="stroke:#000000;stroke-width:0.6;" x="428.122424" xlink:href="#m2733814df1" y="291.28"/>
      </g>
     </g>
    </g>
    <g id="xtick_45">
     <g id="line2d_47">
      <g>
       <use style="stroke:#000000;stroke-width:0.6;" x="437.425361" xlink:href="#m2733814df1" y="291.28"/>
      </g>
     </g>
    </g>
    <g id="xtick_46">
     <g id="line2d_48">
      <g>
       <use style="stroke:#000000;stroke-width:0.6;" x="444.64128" xlink:href="#m2733814df1" y="291.28"/>
      </g>
     </g>
    </g>
    <g id="xtick_47">
     <g id="line2d_49">
      <g>
       <use style="stroke:#000000;stroke-width:0.6;" x="450.537114" xlink:href="#m2733814df1" y="291.28"/>
      </g>
     </g>
    </g>
    <g id="text_3">
     <!-- log10 of FEvals ratio -->
     <defs>
      <path d="M 9.421875 75.984375 
L 18.40625 75.984375 
L 18.40625 0 
L 9.421875 0 
z
" id="DejaVuSans-108"/>
      <path d="M 30.609375 48.390625 
Q 23.390625 48.390625 19.1875 42.75 
Q 14.984375 37.109375 14.984375 27.296875 
Q 14.984375 17.484375 19.15625 11.84375 
Q 23.34375 6.203125 30.609375 6.203125 
Q 37.796875 6.203125 41.984375 11.859375 
Q 46.1875 17.53125 46.1875 27.296875 
Q 46.1875 37.015625 41.984375 42.703125 
Q 37.796875 48.390625 30.609375 48.390625 
z
M 30.609375 56 
Q 42.328125 56 49.015625 48.375 
Q 55.71875 40.765625 55.71875 27.296875 
Q 55.71875 13.875 49.015625 6.21875 
Q 42.328125 -1.421875 30.609375 -1.421875 
Q 18.84375 -1.421875 12.171875 6.21875 
Q 5.515625 13.875 5.515625 27.296875 
Q 5.515625 40.765625 12.171875 48.375 
Q 18.84375 56 30.609375 56 
z
" id="DejaVuSans-111"/>
      <path d="M 45.40625 27.984375 
Q 45.40625 37.75 41.375 43.109375 
Q 37.359375 48.484375 30.078125 48.484375 
Q 22.859375 48.484375 18.828125 43.109375 
Q 14.796875 37.75 14.796875 27.984375 
Q 14.796875 18.265625 18.828125 12.890625 
Q 22.859375 7.515625 30.078125 7.515625 
Q 37.359375 7.515625 41.375 12.890625 
Q 45.40625 18.265625 45.40625 27.984375 
z
M 54.390625 6.78125 
Q 54.390625 -7.171875 48.1875 -13.984375 
Q 42 -20.796875 29.203125 -20.796875 
Q 24.46875 -20.796875 20.265625 -20.09375 
Q 16.0625 -19.390625 12.109375 -17.921875 
L 12.109375 -9.1875 
Q 16.0625 -11.328125 19.921875 -12.34375 
Q 23.78125 -13.375 27.78125 -13.375 
Q 36.625 -13.375 41.015625 -8.765625 
Q 45.40625 -4.15625 45.40625 5.171875 
L 45.40625 9.625 
Q 42.625 4.78125 38.28125 2.390625 
Q 33.9375 0 27.875 0 
Q 17.828125 0 11.671875 7.65625 
Q 5.515625 15.328125 5.515625 27.984375 
Q 5.515625 40.671875 11.671875 48.328125 
Q 17.828125 56 27.875 56 
Q 33.9375 56 38.28125 53.609375 
Q 42.625 51.21875 45.40625 46.390625 
L 45.40625 54.6875 
L 54.390625 54.6875 
z
" id="DejaVuSans-103"/>
      <path d="M 31.78125 66.40625 
Q 24.171875 66.40625 20.328125 58.90625 
Q 16.5 51.421875 16.5 36.375 
Q 16.5 21.390625 20.328125 13.890625 
Q 24.171875 6.390625 31.78125 6.390625 
Q 39.453125 6.390625 43.28125 13.890625 
Q 47.125 21.390625 47.125 36.375 
Q 47.125 51.421875 43.28125 58.90625 
Q 39.453125 66.40625 31.78125 66.40625 
z
M 31.78125 74.21875 
Q 44.046875 74.21875 50.515625 64.515625 
Q 56.984375 54.828125 56.984375 36.375 
Q 56.984375 17.96875 50.515625 8.265625 
Q 44.046875 -1.421875 31.78125 -1.421875 
Q 19.53125 -1.421875 13.0625 8.265625 
Q 6.59375 17.96875 6.59375 36.375 
Q 6.59375 54.828125 13.0625 64.515625 
Q 19.53125 74.21875 31.78125 74.21875 
z
" id="DejaVuSans-48"/>
      <path id="DejaVuSans-32"/>
      <path d="M 37.109375 75.984375 
L 37.109375 68.5 
L 28.515625 68.5 
Q 23.6875 68.5 21.796875 66.546875 
Q 19.921875 64.59375 19.921875 59.515625 
L 19.921875 54.6875 
L 34.71875 54.6875 
L 34.71875 47.703125 
L 19.921875 47.703125 
L 19.921875 0 
L 10.890625 0 
L 10.890625 47.703125 
L 2.296875 47.703125 
L 2.296875 54.6875 
L 10.890625 54.6875 
L 10.890625 58.5 
Q 10.890625 67.625 15.140625 71.796875 
Q 19.390625 75.984375 28.609375 75.984375 
z
" id="DejaVuSans-102"/>
      <path d="M 9.8125 72.90625 
L 51.703125 72.90625 
L 51.703125 64.59375 
L 19.671875 64.59375 
L 19.671875 43.109375 
L 48.578125 43.109375 
L 48.578125 34.8125 
L 19.671875 34.8125 
L 19.671875 0 
L 9.8125 0 
z
" id="DejaVuSans-70"/>
      <path d="M 9.8125 72.90625 
L 55.90625 72.90625 
L 55.90625 64.59375 
L 19.671875 64.59375 
L 19.671875 43.015625 
L 54.390625 43.015625 
L 54.390625 34.71875 
L 19.671875 34.71875 
L 19.671875 8.296875 
L 56.78125 8.296875 
L 56.78125 0 
L 9.8125 0 
z
" id="DejaVuSans-69"/>
      <path d="M 2.984375 54.6875 
L 12.5 54.6875 
L 29.59375 8.796875 
L 46.6875 54.6875 
L 56.203125 54.6875 
L 35.6875 0 
L 23.484375 0 
z
" id="DejaVuSans-118"/>
      <path d="M 34.28125 27.484375 
Q 23.390625 27.484375 19.1875 25 
Q 14.984375 22.515625 14.984375 16.5 
Q 14.984375 11.71875 18.140625 8.90625 
Q 21.296875 6.109375 26.703125 6.109375 
Q 34.1875 6.109375 38.703125 11.40625 
Q 43.21875 16.703125 43.21875 25.484375 
L 43.21875 27.484375 
z
M 52.203125 31.203125 
L 52.203125 0 
L 43.21875 0 
L 43.21875 8.296875 
Q 40.140625 3.328125 35.546875 0.953125 
Q 30.953125 -1.421875 24.3125 -1.421875 
Q 15.921875 -1.421875 10.953125 3.296875 
Q 6 8.015625 6 15.921875 
Q 6 25.140625 12.171875 29.828125 
Q 18.359375 34.515625 30.609375 34.515625 
L 43.21875 34.515625 
L 43.21875 35.40625 
Q 43.21875 41.609375 39.140625 45 
Q 35.0625 48.390625 27.6875 48.390625 
Q 23 48.390625 18.546875 47.265625 
Q 14.109375 46.140625 10.015625 43.890625 
L 10.015625 52.203125 
Q 14.9375 54.109375 19.578125 55.046875 
Q 24.21875 56 28.609375 56 
Q 40.484375 56 46.34375 49.84375 
Q 52.203125 43.703125 52.203125 31.203125 
z
" id="DejaVuSans-97"/>
      <path d="M 44.28125 53.078125 
L 44.28125 44.578125 
Q 40.484375 46.53125 36.375 47.5 
Q 32.28125 48.484375 27.875 48.484375 
Q 21.1875 48.484375 17.84375 46.4375 
Q 14.5 44.390625 14.5 40.28125 
Q 14.5 37.15625 16.890625 35.375 
Q 19.28125 33.59375 26.515625 31.984375 
L 29.59375 31.296875 
Q 39.15625 29.25 43.1875 25.515625 
Q 47.21875 21.78125 47.21875 15.09375 
Q 47.21875 7.46875 41.1875 3.015625 
Q 35.15625 -1.421875 24.609375 -1.421875 
Q 20.21875 -1.421875 15.453125 -0.5625 
Q 10.6875 0.296875 5.421875 2 
L 5.421875 11.28125 
Q 10.40625 8.6875 15.234375 7.390625 
Q 20.0625 6.109375 24.8125 6.109375 
Q 31.15625 6.109375 34.5625 8.28125 
Q 37.984375 10.453125 37.984375 14.40625 
Q 37.984375 18.0625 35.515625 20.015625 
Q 33.0625 21.96875 24.703125 23.78125 
L 21.578125 24.515625 
Q 13.234375 26.265625 9.515625 29.90625 
Q 5.8125 33.546875 5.8125 39.890625 
Q 5.8125 47.609375 11.28125 51.796875 
Q 16.75 56 26.8125 56 
Q 31.78125 56 36.171875 55.265625 
Q 40.578125 54.546875 44.28125 53.078125 
z
" id="DejaVuSans-115"/>
      <path d="M 41.109375 46.296875 
Q 39.59375 47.171875 37.8125 47.578125 
Q 36.03125 48 33.890625 48 
Q 26.265625 48 22.1875 43.046875 
Q 18.109375 38.09375 18.109375 28.8125 
L 18.109375 0 
L 9.078125 0 
L 9.078125 54.6875 
L 18.109375 54.6875 
L 18.109375 46.1875 
Q 20.953125 51.171875 25.484375 53.578125 
Q 30.03125 56 36.53125 56 
Q 37.453125 56 38.578125 55.875 
Q 39.703125 55.765625 41.0625 55.515625 
z
" id="DejaVuSans-114"/>
      <path d="M 18.3125 70.21875 
L 18.3125 54.6875 
L 36.8125 54.6875 
L 36.8125 47.703125 
L 18.3125 47.703125 
L 18.3125 18.015625 
Q 18.3125 11.328125 20.140625 9.421875 
Q 21.96875 7.515625 27.59375 7.515625 
L 36.8125 7.515625 
L 36.8125 0 
L 27.59375 0 
Q 17.1875 0 13.234375 3.875 
Q 9.28125 7.765625 9.28125 18.015625 
L 9.28125 47.703125 
L 2.6875 47.703125 
L 2.6875 54.6875 
L 9.28125 54.6875 
L 9.28125 70.21875 
z
" id="DejaVuSans-116"/>
      <path d="M 9.421875 54.6875 
L 18.40625 54.6875 
L 18.40625 0 
L 9.421875 0 
z
M 9.421875 75.984375 
L 18.40625 75.984375 
L 18.40625 64.59375 
L 9.421875 64.59375 
z
" id="DejaVuSans-105"/>
     </defs>
     <g transform="translate(141.371312 336.833125)scale(0.2 -0.2)">
      <use xlink:href="#DejaVuSans-108"/>
      <use x="27.783203" xlink:href="#DejaVuSans-111"/>
      <use x="88.964844" xlink:href="#DejaVuSans-103"/>
      <use x="152.441406" xlink:href="#DejaVuSans-49"/>
      <use x="216.064453" xlink:href="#DejaVuSans-48"/>
      <use x="279.6875" xlink:href="#DejaVuSans-32"/>
      <use x="311.474609" xlink:href="#DejaVuSans-111"/>
      <use x="372.65625" xlink:href="#DejaVuSans-102"/>
      <use x="407.861328" xlink:href="#DejaVuSans-32"/>
      <use x="439.648438" xlink:href="#DejaVuSans-70"/>
      <use x="497.167969" xlink:href="#DejaVuSans-69"/>
      <use x="560.351562" xlink:href="#DejaVuSans-118"/>
      <use x="619.53125" xlink:href="#DejaVuSans-97"/>
      <use x="680.810547" xlink:href="#DejaVuSans-108"/>
      <use x="708.59375" xlink:href="#DejaVuSans-115"/>
      <use x="760.693359" xlink:href="#DejaVuSans-32"/>
      <use x="792.480469" xlink:href="#DejaVuSans-114"/>
      <use x="833.59375" xlink:href="#DejaVuSans-97"/>
      <use x="894.873047" xlink:href="#DejaVuSans-116"/>
      <use x="934.082031" xlink:href="#DejaVuSans-105"/>
      <use x="961.865234" xlink:href="#DejaVuSans-111"/>
     </g>
    </g>
   </g>
   <g id="matplotlib.axis_2">
    <g id="ytick_1">
     <g id="line2d_50">
      <path clip-path="url(#pb45804c99a)" d="M 34.16 288.453725 
L 453.192 288.453725 
" style="fill:none;stroke:#b0b0b0;stroke-linecap:square;stroke-width:0.8;"/>
     </g>
     <g id="line2d_51">
      <defs>
       <path d="M 0 0 
L -3.5 0 
" id="mae9ebf139b" style="stroke:#000000;stroke-width:0.8;"/>
      </defs>
      <g>
       <use style="stroke:#000000;stroke-width:0.8;" x="34.16" xlink:href="#mae9ebf139b" y="288.453725"/>
      </g>
     </g>
    </g>
    <g id="ytick_2">
     <g id="line2d_52">
      <path clip-path="url(#pb45804c99a)" d="M 34.16 217.796863 
L 453.192 217.796863 
" style="fill:none;stroke:#b0b0b0;stroke-linecap:square;stroke-width:0.8;"/>
     </g>
     <g id="line2d_53">
      <g>
       <use style="stroke:#000000;stroke-width:0.8;" x="34.16" xlink:href="#mae9ebf139b" y="217.796863"/>
      </g>
     </g>
    </g>
    <g id="ytick_3">
     <g id="line2d_54">
      <path clip-path="url(#pb45804c99a)" d="M 34.16 147.14 
L 453.192 147.14 
" style="fill:none;stroke:#b0b0b0;stroke-linecap:square;stroke-width:0.8;"/>
     </g>
     <g id="line2d_55">
      <g>
       <use style="stroke:#000000;stroke-width:0.8;" x="34.16" xlink:href="#mae9ebf139b" y="147.14"/>
      </g>
     </g>
    </g>
    <g id="ytick_4">
     <g id="line2d_56">
      <path clip-path="url(#pb45804c99a)" d="M 34.16 76.483137 
L 453.192 76.483137 
" style="fill:none;stroke:#b0b0b0;stroke-linecap:square;stroke-width:0.8;"/>
     </g>
     <g id="line2d_57">
      <g>
       <use style="stroke:#000000;stroke-width:0.8;" x="34.16" xlink:href="#mae9ebf139b" y="76.483137"/>
      </g>
     </g>
    </g>
    <g id="ytick_5">
     <g id="line2d_58">
      <path clip-path="url(#pb45804c99a)" d="M 34.16 5.826275 
L 453.192 5.826275 
" style="fill:none;stroke:#b0b0b0;stroke-linecap:square;stroke-width:0.8;"/>
     </g>
     <g id="line2d_59">
      <g>
       <use style="stroke:#000000;stroke-width:0.8;" x="34.16" xlink:href="#mae9ebf139b" y="5.826275"/>
      </g>
     </g>
    </g>
    <g id="text_4">
     <!-- proportion of trials -->
     <defs>
      <path d="M 18.109375 8.203125 
L 18.109375 -20.796875 
L 9.078125 -20.796875 
L 9.078125 54.6875 
L 18.109375 54.6875 
L 18.109375 46.390625 
Q 20.953125 51.265625 25.265625 53.625 
Q 29.59375 56 35.59375 56 
Q 45.5625 56 51.78125 48.09375 
Q 58.015625 40.1875 58.015625 27.296875 
Q 58.015625 14.40625 51.78125 6.484375 
Q 45.5625 -1.421875 35.59375 -1.421875 
Q 29.59375 -1.421875 25.265625 0.953125 
Q 20.953125 3.328125 18.109375 8.203125 
z
M 48.6875 27.296875 
Q 48.6875 37.203125 44.609375 42.84375 
Q 40.53125 48.484375 33.40625 48.484375 
Q 26.265625 48.484375 22.1875 42.84375 
Q 18.109375 37.203125 18.109375 27.296875 
Q 18.109375 17.390625 22.1875 11.75 
Q 26.265625 6.109375 33.40625 6.109375 
Q 40.53125 6.109375 44.609375 11.75 
Q 48.6875 17.390625 48.6875 27.296875 
z
" id="DejaVuSans-112"/>
      <path d="M 54.890625 33.015625 
L 54.890625 0 
L 45.90625 0 
L 45.90625 32.71875 
Q 45.90625 40.484375 42.875 44.328125 
Q 39.84375 48.1875 33.796875 48.1875 
Q 26.515625 48.1875 22.3125 43.546875 
Q 18.109375 38.921875 18.109375 30.90625 
L 18.109375 0 
L 9.078125 0 
L 9.078125 54.6875 
L 18.109375 54.6875 
L 18.109375 46.1875 
Q 21.34375 51.125 25.703125 53.5625 
Q 30.078125 56 35.796875 56 
Q 45.21875 56 50.046875 50.171875 
Q 54.890625 44.34375 54.890625 33.015625 
z
" id="DejaVuSans-110"/>
     </defs>
     <g transform="translate(19.000625 240.368125)rotate(-90)scale(0.2 -0.2)">
      <use xlink:href="#DejaVuSans-112"/>
      <use x="63.476562" xlink:href="#DejaVuSans-114"/>
      <use x="104.558594" xlink:href="#DejaVuSans-111"/>
      <use x="165.740234" xlink:href="#DejaVuSans-112"/>
      <use x="229.216797" xlink:href="#DejaVuSans-111"/>
      <use x="290.398438" xlink:href="#DejaVuSans-114"/>
      <use x="331.511719" xlink:href="#DejaVuSans-116"/>
      <use x="370.720703" xlink:href="#DejaVuSans-105"/>
      <use x="398.503906" xlink:href="#DejaVuSans-111"/>
      <use x="459.685547" xlink:href="#DejaVuSans-110"/>
      <use x="523.064453" xlink:href="#DejaVuSans-32"/>
      <use x="554.851562" xlink:href="#DejaVuSans-111"/>
      <use x="616.033203" xlink:href="#DejaVuSans-102"/>
      <use x="651.238281" xlink:href="#DejaVuSans-32"/>
      <use x="683.025391" xlink:href="#DejaVuSans-116"/>
      <use x="722.234375" xlink:href="#DejaVuSans-114"/>
      <use x="763.347656" xlink:href="#DejaVuSans-105"/>
      <use x="791.130859" xlink:href="#DejaVuSans-97"/>
      <use x="852.410156" xlink:href="#DejaVuSans-108"/>
      <use x="880.193359" xlink:href="#DejaVuSans-115"/>
     </g>
    </g>
   </g>
   <g id="line2d_60">
    <path clip-path="url(#pb45804c99a)" d="M 34.16 287.309485 
L 51.529055 287.309485 
L 51.529055 286.737364 
L 94.667947 286.737364 
L 94.667947 286.165244 
L 102.178272 286.165244 
L 102.178272 285.593124 
L 103.637223 285.593124 
L 103.637223 285.021003 
L 105.013641 285.021003 
L 105.013641 284.448883 
L 126.399508 284.448883 
L 126.399508 283.876763 
L 129.037202 283.876763 
L 129.037202 283.304642 
L 142.885377 283.304642 
L 142.885377 282.732522 
L 147.504661 282.732522 
L 147.504661 282.160402 
L 151.2267 282.160402 
L 151.2267 281.588281 
L 151.799487 281.588281 
L 151.799487 281.016161 
L 153.111365 281.016161 
L 153.111365 280.444041 
L 156.680015 280.444041 
L 156.680015 279.87192 
L 159.52782 279.87192 
L 159.52782 279.2998 
L 160.590073 279.2998 
L 160.590073 278.72768 
L 160.749068 278.72768 
L 160.749068 278.155559 
L 163.339025 278.155559 
L 163.339025 277.583439 
L 164.338453 277.583439 
L 164.338453 277.011319 
L 167.085084 277.011319 
L 167.085084 276.439198 
L 167.740743 276.439198 
L 167.740743 275.867078 
L 169.660011 275.867078 
L 169.660011 275.294958 
L 170.312304 275.294958 
L 170.312304 274.722837 
L 170.745608 274.722837 
L 170.745608 274.150717 
L 173.267604 274.150717 
L 173.267604 273.578596 
L 175.979648 273.578596 
L 175.979648 273.006476 
L 177.833442 273.006476 
L 177.933506 271.862235 
L 178.232772 271.862235 
L 178.232772 271.290115 
L 179.860299 271.290115 
L 179.860299 270.717995 
L 180.196838 270.717995 
L 180.196838 270.145874 
L 181.072045 270.145874 
L 181.072045 269.573754 
L 181.258429 269.573754 
L 181.258429 269.001634 
L 181.723717 269.001634 
L 181.723717 268.429513 
L 184.766772 268.429513 
L 184.766772 267.857393 
L 185.55571 267.857393 
L 185.55571 267.285273 
L 187.003168 267.285273 
L 187.003168 266.713152 
L 187.262213 266.713152 
L 187.267739 265.568912 
L 187.877209 265.568912 
L 187.877209 264.996791 
L 188.062313 264.996791 
L 188.062313 264.424671 
L 189.774172 264.424671 
L 189.774172 263.852551 
L 190.052945 263.852551 
L 190.052945 263.28043 
L 190.87863 263.28043 
L 190.87863 262.70831 
L 191.048026 262.70831 
L 191.136988 261.564069 
L 191.796459 261.564069 
L 191.885328 260.419829 
L 192.799602 260.419829 
L 192.799602 259.847708 
L 193.431544 259.847708 
L 193.431544 259.275588 
L 196.396724 259.275588 
L 196.396724 258.703467 
L 197.578317 258.703467 
L 197.578317 258.131347 
L 197.776247 258.131347 
L 197.776247 257.559227 
L 197.888602 257.559227 
L 197.888602 256.987106 
L 198.537166 256.987106 
L 198.537166 256.414986 
L 199.355883 256.414986 
L 199.355883 255.842866 
L 199.482031 255.842866 
L 199.573832 254.698625 
L 200.161964 254.698625 
L 200.161964 254.126505 
L 201.320314 254.126505 
L 201.320314 253.554384 
L 202.029931 253.554384 
L 202.029931 252.982264 
L 202.154068 252.982264 
L 202.154068 252.410144 
L 202.464313 252.410144 
L 202.509131 251.265903 
L 202.592338 251.265903 
L 202.592338 250.693783 
L 203.130107 250.693783 
L 203.130107 250.121662 
L 203.439213 250.121662 
L 203.439213 249.549542 
L 203.755656 249.549542 
L 203.755656 248.977422 
L 203.966498 248.977422 
L 203.966498 248.405301 
L 205.490176 248.405301 
L 205.490176 247.833181 
L 205.890654 247.833181 
L 205.890654 247.261061 
L 206.320209 247.261061 
L 206.320209 246.68894 
L 206.590818 246.68894 
L 206.590818 246.11682 
L 206.799405 246.11682 
L 206.799405 245.5447 
L 207.109674 245.5447 
L 207.202543 243.828338 
L 207.482779 243.828338 
L 207.482779 243.256218 
L 208.027849 243.256218 
L 208.027849 242.684098 
L 208.536837 242.684098 
L 208.536837 242.111977 
L 208.703209 242.111977 
L 208.703209 241.539857 
L 208.897091 241.539857 
L 208.897091 240.967737 
L 209.207858 240.967737 
L 209.207858 240.395616 
L 209.71644 240.395616 
L 209.794928 239.251376 
L 209.843442 239.251376 
L 209.889104 238.107135 
L 210.175142 238.107135 
L 210.253216 236.962894 
L 210.708419 236.962894 
L 210.737942 235.818654 
L 211.486283 235.818654 
L 211.486283 235.246533 
L 211.958372 235.246533 
L 211.958372 234.102293 
L 212.526165 234.102293 
L 212.526165 233.530172 
L 213.080891 233.530172 
L 213.080891 232.958052 
L 213.258915 232.958052 
L 213.258915 232.385932 
L 213.392085 232.385932 
L 213.392085 231.813811 
L 213.66219 231.813811 
L 213.66219 231.241691 
L 214.428088 231.241691 
L 214.428088 230.669571 
L 214.763268 230.669571 
L 214.868528 228.953209 
L 215.365475 228.953209 
L 215.365475 228.381089 
L 215.521188 228.381089 
L 215.609533 227.236848 
L 215.808462 227.236848 
L 215.814585 226.092608 
L 215.921604 226.092608 
L 215.930962 224.948367 
L 216.146946 224.948367 
L 216.146946 224.376247 
L 216.289807 224.376247 
L 216.289807 223.804126 
L 216.425818 223.804126 
L 216.425818 223.232006 
L 216.566477 223.232006 
L 216.566477 222.659886 
L 217.177278 222.659886 
L 217.177278 222.087765 
L 217.360494 222.087765 
L 217.452493 220.943525 
L 217.910913 220.943525 
L 217.910913 220.371404 
L 218.323817 220.371404 
L 218.323817 219.799284 
L 218.59066 219.799284 
L 218.59066 219.227164 
L 219.391135 219.227164 
L 219.452716 218.082923 
L 219.611865 218.082923 
L 219.683555 216.938682 
L 219.993007 216.938682 
L 220.061776 215.794442 
L 220.161569 215.794442 
L 220.161569 215.222321 
L 220.474043 215.222321 
L 220.474043 214.650201 
L 221.147645 214.650201 
L 221.147645 214.07808 
L 221.880229 214.07808 
L 221.880229 213.50596 
L 222.765653 213.50596 
L 222.865154 212.361719 
L 222.891878 212.361719 
L 222.92001 211.217479 
L 223.157866 211.217479 
L 223.157866 210.645358 
L 223.394229 210.645358 
L 223.492371 209.501118 
L 223.665884 209.501118 
L 223.669957 208.356877 
L 223.999754 208.356877 
L 224.075045 206.640516 
L 224.445913 206.640516 
L 224.445913 206.068396 
L 224.760673 206.068396 
L 224.760673 205.496275 
L 225.308781 205.496275 
L 225.308781 204.924155 
L 225.757558 204.924155 
L 225.757558 204.352035 
L 225.892392 204.352035 
L 226.002109 203.207794 
L 226.096801 203.207794 
L 226.125729 202.063553 
L 226.265988 202.063553 
L 226.265988 201.491433 
L 226.405074 201.491433 
L 226.405074 200.919313 
L 226.628864 200.919313 
L 226.628864 200.347192 
L 226.864495 200.347192 
L 226.953254 198.630831 
L 227.044887 198.630831 
L 227.044887 198.058711 
L 227.157144 198.058711 
L 227.157144 197.48659 
L 227.476484 197.48659 
L 227.476484 196.91447 
L 227.59021 196.91447 
L 227.662868 195.770229 
L 227.810451 195.770229 
L 227.810451 195.198109 
L 229.046732 195.198109 
L 229.111406 194.053868 
L 229.244163 194.053868 
L 229.244163 193.481748 
L 229.388206 193.481748 
L 229.388206 192.909628 
L 229.598875 192.909628 
L 229.598875 192.337507 
L 229.759241 192.337507 
L 229.759241 191.765387 
L 230.095578 191.765387 
L 230.095578 191.193267 
L 230.564247 191.193267 
L 230.640941 189.476906 
L 230.867177 189.476906 
L 230.882846 188.332665 
L 231.146613 188.332665 
L 231.146613 187.760545 
L 231.356766 187.760545 
L 231.356766 187.188424 
L 231.514794 187.188424 
L 231.559327 186.044184 
L 231.879449 186.044184 
L 231.879449 185.472063 
L 232.142002 185.472063 
L 232.142002 184.899943 
L 232.370367 184.899943 
L 232.372163 183.755702 
L 232.51193 183.755702 
L 232.51193 183.183582 
L 232.922705 183.183582 
L 232.922705 182.611461 
L 233.178806 182.611461 
L 233.238295 181.467221 
L 233.768605 181.467221 
L 233.800702 180.32298 
L 234.285308 180.32298 
L 234.373063 179.178739 
L 234.447317 179.178739 
L 234.520387 178.034499 
L 234.724479 178.034499 
L 234.724479 177.462378 
L 234.906138 177.462378 
L 234.942067 176.318138 
L 235.839563 176.318138 
L 235.877407 175.173897 
L 236.108398 175.173897 
L 236.108398 174.601777 
L 236.333515 174.601777 
L 236.333515 174.029656 
L 236.675118 174.029656 
L 236.675118 173.457536 
L 237.287107 173.457536 
L 237.309406 172.313295 
L 237.484843 172.313295 
L 237.58825 170.596934 
L 237.780165 170.596934 
L 237.780165 170.024814 
L 238.010481 170.024814 
L 238.118782 167.164212 
L 238.216745 167.164212 
L 238.216745 166.592092 
L 238.515588 166.592092 
L 238.529331 165.447851 
L 238.747529 165.447851 
L 238.750315 164.30361 
L 238.929602 164.30361 
L 238.935201 163.15937 
L 239.199073 163.15937 
L 239.199073 162.587249 
L 239.401887 162.587249 
L 239.401887 162.015129 
L 239.643393 162.015129 
L 239.643393 161.443009 
L 239.867184 161.443009 
L 239.867184 160.870888 
L 240.207941 160.870888 
L 240.207941 160.298768 
L 240.432482 160.298768 
L 240.432482 159.726648 
L 240.607837 159.726648 
L 240.607837 159.154527 
L 240.799655 159.154527 
L 240.862264 158.010287 
L 241.01662 158.010287 
L 241.01662 157.438166 
L 241.246782 157.438166 
L 241.279529 156.293926 
L 241.3924 156.293926 
L 241.3924 155.721805 
L 241.566814 155.721805 
L 241.662116 154.577564 
L 241.691756 154.577564 
L 241.691756 154.005444 
L 241.891406 154.005444 
L 241.891406 153.433324 
L 242.185526 153.433324 
L 242.185526 152.861203 
L 242.338603 152.861203 
L 242.338603 152.289083 
L 242.595408 152.289083 
L 242.595408 151.716963 
L 242.741623 151.716963 
L 242.771394 150.572722 
L 243.217303 150.572722 
L 243.283572 149.428481 
L 243.676 149.428481 
L 243.676 148.856361 
L 244.006673 148.856361 
L 244.067975 147.14 
L 244.190548 147.14 
L 244.297895 144.851519 
L 244.38452 144.851519 
L 244.471692 142.563037 
L 244.512878 142.563037 
L 244.512878 141.990917 
L 244.973383 141.990917 
L 244.973383 141.418797 
L 245.180344 141.418797 
L 245.251832 140.274556 
L 245.406576 140.274556 
L 245.406576 139.702436 
L 245.633979 139.702436 
L 245.633979 139.130315 
L 245.835372 139.130315 
L 245.835372 138.558195 
L 246.024112 138.558195 
L 246.024112 137.986074 
L 246.395043 137.986074 
L 246.423293 136.841834 
L 246.558175 136.841834 
L 246.663128 135.697593 
L 246.729683 135.697593 
L 246.729683 135.125473 
L 246.967404 135.125473 
L 247.001279 133.409112 
L 247.156513 133.409112 
L 247.156513 132.836991 
L 247.633912 132.836991 
L 247.723471 130.54851 
L 247.80982 130.54851 
L 247.80982 129.97639 
L 248.165632 129.97639 
L 248.226578 127.687908 
L 248.416799 127.687908 
L 248.416799 127.115788 
L 248.615975 127.115788 
L 248.644176 125.971547 
L 248.819765 125.971547 
L 248.819765 125.399427 
L 249.072806 125.399427 
L 249.072806 124.827307 
L 249.184554 124.827307 
L 249.196358 123.683066 
L 249.314164 123.683066 
L 249.329801 122.538825 
L 249.460819 122.538825 
L 249.571835 121.394584 
L 249.693847 121.394584 
L 249.693847 120.822464 
L 250.078108 120.822464 
L 250.16689 119.678223 
L 250.198591 119.678223 
L 250.290057 118.533983 
L 250.335046 118.533983 
L 250.442779 117.389742 
L 250.549719 117.389742 
L 250.549719 116.817622 
L 250.700004 116.817622 
L 250.700004 116.245501 
L 251.00585 116.245501 
L 251.00585 115.673381 
L 251.217741 115.673381 
L 251.320237 114.52914 
L 251.401182 114.52914 
L 251.401182 113.95702 
L 251.724692 113.95702 
L 251.724692 113.3849 
L 251.859282 113.3849 
L 251.859282 112.812779 
L 251.988212 112.812779 
L 251.988212 112.240659 
L 252.695308 112.240659 
L 252.783543 111.096418 
L 252.880196 111.096418 
L 252.880196 110.524298 
L 253.020011 110.524298 
L 253.118711 109.380057 
L 253.156519 109.380057 
L 253.236608 108.235816 
L 253.756943 108.235816 
L 253.756943 107.663696 
L 253.914453 107.663696 
L 253.944309 106.519455 
L 254.058956 106.519455 
L 254.058956 105.947335 
L 254.323417 105.947335 
L 254.404872 104.230974 
L 254.637637 104.230974 
L 254.666497 103.086733 
L 254.75647 103.086733 
L 254.846917 101.942493 
L 255.321061 101.942493 
L 255.321061 101.370372 
L 255.477397 101.370372 
L 255.477397 100.798252 
L 256.048577 100.798252 
L 256.048577 100.226132 
L 256.257618 100.226132 
L 256.257618 99.654011 
L 256.59809 99.654011 
L 256.651019 97.93765 
L 256.787753 97.93765 
L 256.787753 97.36553 
L 257.361384 97.36553 
L 257.432377 96.221289 
L 257.498498 96.221289 
L 257.498498 95.649169 
L 257.698731 95.649169 
L 257.709667 94.504928 
L 257.814429 94.504928 
L 257.885267 93.360687 
L 258.331271 93.360687 
L 258.331271 92.788567 
L 258.619541 92.788567 
L 258.671113 91.644326 
L 258.866384 91.644326 
L 258.94439 89.355845 
L 259.153717 89.355845 
L 259.257469 86.495243 
L 259.435156 86.495243 
L 259.528078 85.351003 
L 260.052399 85.351003 
L 260.125979 84.206762 
L 260.194856 84.206762 
L 260.283331 83.062521 
L 260.466576 83.062521 
L 260.466576 82.490401 
L 260.60615 82.490401 
L 260.638813 81.34616 
L 260.866021 81.34616 
L 260.891676 80.20192 
L 261.499718 80.20192 
L 261.528552 79.057679 
L 261.733808 79.057679 
L 261.733808 78.485558 
L 262.018779 78.485558 
L 262.043219 77.341318 
L 262.143581 77.341318 
L 262.169757 76.197077 
L 262.256758 76.197077 
L 262.256758 75.624957 
L 262.508516 75.624957 
L 262.508516 75.052836 
L 263.502304 75.052836 
L 263.573142 73.336475 
L 263.694219 73.336475 
L 263.73783 71.620114 
L 263.829088 71.620114 
L 263.887653 70.475874 
L 264.310191 70.475874 
L 264.310191 69.903753 
L 264.499998 69.903753 
L 264.499998 69.331633 
L 264.624503 69.331633 
L 264.663802 68.187392 
L 264.962017 68.187392 
L 264.962017 67.615272 
L 265.332516 67.615272 
L 265.332516 67.043152 
L 265.596978 67.043152 
L 265.597421 65.898911 
L 265.884499 65.898911 
L 265.884499 65.326791 
L 266.09069 65.326791 
L 266.09069 64.18255 
L 266.643483 64.18255 
L 266.643483 63.610429 
L 266.916375 63.610429 
L 266.973481 62.466189 
L 267.466965 62.466189 
L 267.466965 61.894068 
L 267.819746 61.894068 
L 267.819746 61.321948 
L 268.695767 61.321948 
L 268.695767 60.749828 
L 268.988529 60.749828 
L 268.988529 60.177707 
L 269.579557 60.177707 
L 269.579557 59.605587 
L 269.893101 59.605587 
L 269.92486 58.461346 
L 270.182861 58.461346 
L 270.282427 56.744985 
L 270.366103 56.744985 
L 270.441092 55.600745 
L 270.558136 55.600745 
L 270.558136 55.028624 
L 271.414164 55.028624 
L 271.414164 54.456504 
L 271.597411 54.456504 
L 271.597411 53.884384 
L 272.296609 53.884384 
L 272.364473 52.740143 
L 272.964409 52.740143 
L 272.964409 52.168023 
L 273.142874 52.168023 
L 273.142874 51.595902 
L 273.306609 51.595902 
L 273.306609 51.023782 
L 273.460232 51.023782 
L 273.47636 49.879541 
L 274.901792 49.879541 
L 274.901792 49.307421 
L 275.317614 49.307421 
L 275.317614 48.7353 
L 275.914482 48.7353 
L 275.914482 48.16318 
L 276.137541 48.16318 
L 276.137541 47.59106 
L 277.090636 47.59106 
L 277.090636 47.018939 
L 277.266705 47.018939 
L 277.35408 45.302578 
L 277.764982 45.302578 
L 277.764982 44.730458 
L 278.212738 44.730458 
L 278.212738 44.158338 
L 278.652285 44.158338 
L 278.652285 43.586217 
L 278.828595 43.586217 
L 278.828595 43.014097 
L 279.081102 43.014097 
L 279.081102 42.441977 
L 279.22125 42.441977 
L 279.22125 41.869856 
L 279.762834 41.869856 
L 279.762834 41.297736 
L 279.962483 41.297736 
L 280.006308 40.153495 
L 280.106739 40.153495 
L 280.106739 39.581375 
L 280.761182 39.581375 
L 280.761182 39.009255 
L 280.937098 39.009255 
L 280.937098 38.437134 
L 281.834957 38.437134 
L 281.834957 37.865014 
L 282.42423 37.865014 
L 282.42423 37.292894 
L 283.295174 37.292894 
L 283.351659 35.576533 
L 283.604627 35.576533 
L 283.604627 35.004412 
L 284.077606 35.004412 
L 284.077606 34.432292 
L 284.289797 34.432292 
L 284.357948 33.288051 
L 284.604566 33.288051 
L 284.604566 32.715931 
L 285.137739 32.715931 
L 285.137739 32.14381 
L 285.67064 32.14381 
L 285.67064 31.57169 
L 285.874861 31.57169 
L 285.874861 30.99957 
L 286.104568 30.99957 
L 286.104568 30.427449 
L 286.327293 30.427449 
L 286.327293 29.855329 
L 287.430253 29.855329 
L 287.449982 28.711088 
L 287.745837 28.711088 
L 287.745837 28.138968 
L 287.900621 28.138968 
L 287.900621 27.566848 
L 288.863585 27.566848 
L 288.863585 26.994727 
L 291.796785 26.994727 
L 291.796785 26.422607 
L 292.949011 26.422607 
L 292.949011 25.850487 
L 293.086013 25.850487 
L 293.086013 25.278366 
L 293.237737 25.278366 
L 293.237737 24.706246 
L 293.490238 24.706246 
L 293.490238 24.134126 
L 293.643861 24.134126 
L 293.643861 23.562005 
L 294.816096 23.562005 
L 294.816096 22.989885 
L 295.31167 22.989885 
L 295.31167 22.417765 
L 295.704409 22.417765 
L 295.704409 21.845644 
L 298.264427 21.845644 
L 298.264427 21.273524 
L 299.592159 21.273524 
L 299.592159 20.701404 
L 299.916692 20.701404 
L 299.916692 20.129283 
L 302.245068 20.129283 
L 302.245068 19.557163 
L 303.019947 19.557163 
L 303.019947 18.985042 
L 306.110978 18.985042 
L 306.110978 18.412922 
L 307.942601 18.412922 
L 307.942601 17.840802 
L 309.002804 17.840802 
L 309.002804 17.268681 
L 310.201303 17.268681 
L 310.264728 16.124441 
L 311.574818 16.124441 
L 311.574818 15.55232 
L 313.713059 15.55232 
L 313.713059 14.9802 
L 315.136475 14.9802 
L 315.136475 14.40808 
L 316.77897 14.40808 
L 316.77897 13.835959 
L 318.493315 13.835959 
L 318.493315 13.263839 
L 320.693267 13.263839 
L 320.693267 12.691719 
L 321.535177 12.691719 
L 321.535177 12.119598 
L 321.750997 12.119598 
L 321.750997 11.547478 
L 354.209834 11.547478 
L 354.209834 10.975358 
L 371.797519 10.975358 
L 371.797519 10.403237 
L 378.92404 10.403237 
L 378.92404 9.831117 
L 381.985841 9.831117 
L 381.985841 9.258997 
L 398.910159 9.258997 
L 398.910159 8.686876 
L 453.192 8.686876 
L 453.192 8.686876 
" style="fill:none;stroke:#000000;stroke-linecap:square;stroke-width:3;"/>
   </g>
   <g id="line2d_61">
    <path clip-path="url(#pb45804c99a)" style="fill:none;stroke:#000000;stroke-linecap:square;stroke-width:3;"/>
   </g>
   <g id="line2d_62">
    <path clip-path="url(#pb45804c99a)" d="M 34.16 266.884788 
L 68.465213 266.884788 
L 68.465213 266.141032 
L 77.113968 266.141032 
L 77.113968 265.397276 
L 104.808296 265.397276 
L 104.808296 264.653519 
L 119.725631 264.653519 
L 119.725631 263.909763 
L 150.983415 263.909763 
L 150.983415 263.166006 
L 154.08911 263.166006 
L 154.08911 262.42225 
L 155.151226 262.42225 
L 155.151226 261.678493 
L 164.674995 261.678493 
L 164.674995 260.934737 
L 168.17557 260.934737 
L 168.17557 260.19098 
L 170.210224 260.19098 
L 170.210224 259.447224 
L 173.076634 259.447224 
L 173.076634 258.703467 
L 181.35719 258.703467 
L 181.35719 257.959711 
L 181.551807 257.959711 
L 181.551807 257.215955 
L 183.954726 257.215955 
L 183.954726 256.472198 
L 184.511658 256.472198 
L 184.511658 255.728442 
L 188.801569 255.728442 
L 188.870559 254.240929 
L 190.087183 254.240929 
L 190.087183 253.497172 
L 192.018722 253.497172 
L 192.018722 252.753416 
L 192.342106 252.753416 
L 192.342106 252.009659 
L 194.572506 252.009659 
L 194.572506 251.265903 
L 195.057336 251.265903 
L 195.057336 250.522147 
L 198.671347 250.522147 
L 198.671347 249.77839 
L 200.244582 249.77839 
L 200.244582 249.034634 
L 201.276452 249.034634 
L 201.276452 248.290877 
L 202.458279 248.290877 
L 202.458279 247.547121 
L 202.86764 247.547121 
L 202.86764 246.803364 
L 205.681273 246.803364 
L 205.681273 246.059608 
L 205.829052 246.059608 
L 205.829052 245.315851 
L 207.206653 245.315851 
L 207.206653 244.572095 
L 207.793789 244.572095 
L 207.793789 243.828338 
L 207.993507 243.828338 
L 208.054794 242.340826 
L 208.332542 242.340826 
L 208.332542 241.597069 
L 210.065553 241.597069 
L 210.065553 240.853313 
L 210.312348 240.853313 
L 210.380617 238.622043 
L 210.89803 238.622043 
L 210.89803 237.878287 
L 211.998976 237.878287 
L 212.052831 236.390774 
L 212.952996 236.390774 
L 212.952996 235.647018 
L 213.744574 235.647018 
L 213.744574 234.903261 
L 214.363088 234.903261 
L 214.363088 234.159505 
L 215.168601 234.159505 
L 215.168601 233.415748 
L 216.076219 233.415748 
L 216.076219 232.671992 
L 216.230745 232.671992 
L 216.230745 231.928235 
L 216.999612 231.928235 
L 217.065757 230.440722 
L 217.348298 230.440722 
L 217.348298 229.696966 
L 217.80068 229.696966 
L 217.80068 228.953209 
L 218.986081 228.953209 
L 218.986081 228.209453 
L 219.118198 228.209453 
L 219.189797 226.72194 
L 219.323783 226.72194 
L 219.323783 225.978184 
L 219.439496 225.978184 
L 219.439496 225.234427 
L 220.105307 225.234427 
L 220.105307 224.490671 
L 220.418197 224.490671 
L 220.418197 223.746914 
L 220.848404 223.746914 
L 220.848404 223.003158 
L 220.986095 223.003158 
L 221.034101 221.515645 
L 221.377423 221.515645 
L 221.377423 220.771889 
L 222.22147 220.771889 
L 222.22147 220.028132 
L 222.357603 220.028132 
L 222.357603 219.284376 
L 223.666374 219.284376 
L 223.666374 218.540619 
L 224.158009 218.540619 
L 224.164406 217.053106 
L 224.403348 217.053106 
L 224.403348 216.30935 
L 224.628216 216.30935 
L 224.628216 215.565593 
L 225.284836 215.565593 
L 225.284836 214.821837 
L 225.412113 214.821837 
L 225.412113 214.07808 
L 225.936714 214.07808 
L 225.972097 212.590568 
L 227.039602 212.590568 
L 227.039602 211.846811 
L 227.250049 211.846811 
L 227.319747 210.359298 
L 227.497436 210.359298 
L 227.497436 209.615542 
L 228.323891 209.615542 
L 228.323891 208.871785 
L 228.760802 208.871785 
L 228.760802 208.128029 
L 229.079953 208.128029 
L 229.079953 207.384272 
L 229.202879 207.384272 
L 229.202879 206.640516 
L 229.342499 206.640516 
L 229.342499 205.89676 
L 229.462588 205.89676 
L 229.54405 204.409247 
L 229.907089 204.409247 
L 229.962289 202.921734 
L 230.35054 202.921734 
L 230.35054 202.177977 
L 230.762435 202.177977 
L 230.762435 201.434221 
L 231.432079 201.434221 
L 231.432079 200.690464 
L 231.569092 200.690464 
L 231.569092 199.946708 
L 232.560843 199.946708 
L 232.66746 197.715439 
L 232.709568 197.715439 
L 232.709568 196.971682 
L 232.974841 196.971682 
L 232.974841 196.227926 
L 233.130114 196.227926 
L 233.130114 195.484169 
L 233.576837 195.484169 
L 233.576837 194.740413 
L 233.7278 194.740413 
L 233.741438 193.2529 
L 234.019148 193.2529 
L 234.019148 192.509143 
L 234.154395 192.509143 
L 234.154395 191.765387 
L 234.366718 191.765387 
L 234.463301 190.277874 
L 234.95454 190.277874 
L 234.978908 188.790361 
L 235.380604 188.790361 
L 235.380604 188.046605 
L 235.518277 188.046605 
L 235.612553 185.071579 
L 235.645439 185.071579 
L 235.721737 182.84031 
L 235.785782 182.84031 
L 235.785782 182.096553 
L 236.045733 182.096553 
L 236.045733 181.352797 
L 236.440261 181.352797 
L 236.52418 179.865284 
L 236.581196 179.865284 
L 236.627002 178.377771 
L 236.705645 178.377771 
L 236.722229 176.890258 
L 237.028609 176.890258 
L 237.10045 175.402745 
L 237.211357 175.402745 
L 237.308885 172.427719 
L 237.627629 172.427719 
L 237.734587 170.19645 
L 237.826795 170.19645 
L 237.826795 169.452693 
L 237.983901 169.452693 
L 238.011503 167.965181 
L 238.401258 167.965181 
L 238.401258 167.221424 
L 238.840508 167.221424 
L 238.913126 165.733911 
L 238.993957 165.733911 
L 239.104734 162.758885 
L 240.025827 162.758885 
L 240.098507 160.527616 
L 240.175301 160.527616 
L 240.258775 159.040103 
L 240.503654 159.040103 
L 240.600279 156.808834 
L 240.672492 156.808834 
L 240.757636 154.577564 
L 240.808456 154.577564 
L 240.872875 153.090052 
L 241.279529 153.090052 
L 241.279529 152.346295 
L 241.718308 152.346295 
L 241.721062 150.858782 
L 242.127312 150.858782 
L 242.127312 150.115026 
L 242.546348 150.115026 
L 242.546348 149.371269 
L 242.677077 149.371269 
L 242.677077 148.627513 
L 243.149563 148.627513 
L 243.149563 147.883756 
L 243.472938 147.883756 
L 243.549236 146.396244 
L 243.739719 146.396244 
L 243.826478 144.908731 
L 244.079995 144.908731 
L 244.153005 141.933705 
L 244.390268 141.933705 
L 244.390268 141.189948 
L 244.616415 141.189948 
L 244.616415 140.446192 
L 244.945517 140.446192 
L 244.945517 139.702436 
L 245.597609 139.702436 
L 245.703893 138.214923 
L 245.772246 138.214923 
L 245.859646 136.72741 
L 245.910414 136.72741 
L 245.944338 135.239897 
L 246.120808 135.239897 
L 246.120808 134.49614 
L 246.484641 134.49614 
L 246.543164 133.008627 
L 246.596814 133.008627 
L 246.632655 130.777358 
L 246.765466 130.777358 
L 246.854829 128.546089 
L 247.626398 128.546089 
L 247.626398 127.802332 
L 248.337802 127.802332 
L 248.337802 127.058576 
L 248.501165 127.058576 
L 248.582463 125.571063 
L 248.841636 125.571063 
L 248.841636 124.827307 
L 248.967377 124.827307 
L 249.029989 123.339794 
L 249.245954 123.339794 
L 249.340159 121.852281 
L 249.484159 121.852281 
L 249.543605 120.364768 
L 249.839496 120.364768 
L 249.881645 118.877255 
L 250.150844 118.877255 
L 250.150844 118.133498 
L 250.364739 118.133498 
L 250.364739 117.389742 
L 250.612543 117.389742 
L 250.718438 115.902229 
L 250.772977 115.902229 
L 250.772977 115.158473 
L 251.152557 115.158473 
L 251.152557 114.414716 
L 251.782817 114.414716 
L 251.841744 112.927203 
L 252.005259 112.927203 
L 252.050522 111.43969 
L 252.160221 111.43969 
L 252.232343 109.952178 
L 252.295008 109.952178 
L 252.351004 107.720908 
L 252.644001 107.720908 
L 252.715006 106.233395 
L 252.978937 106.233395 
L 253.000721 104.745882 
L 253.256514 104.745882 
L 253.256514 104.002126 
L 253.733237 104.002126 
L 253.733237 103.258369 
L 254.152001 103.258369 
L 254.221767 101.770857 
L 254.373382 101.770857 
L 254.373382 101.0271 
L 254.53707 101.0271 
L 254.53707 100.283344 
L 255.081806 100.283344 
L 255.081806 99.539587 
L 255.464524 99.539587 
L 255.473319 98.052074 
L 256.135848 98.052074 
L 256.135848 97.308318 
L 256.528013 97.308318 
L 256.528013 96.564561 
L 257.269432 96.564561 
L 257.269432 95.820805 
L 258.049433 95.820805 
L 258.049433 95.077049 
L 258.515492 95.077049 
L 258.525372 93.589536 
L 258.832711 93.589536 
L 258.832711 92.845779 
L 259.232562 92.845779 
L 259.299394 91.358266 
L 259.756996 91.358266 
L 259.756996 90.61451 
L 260.220924 90.61451 
L 260.328809 88.38324 
L 260.989399 88.38324 
L 260.989399 87.639484 
L 261.178406 87.639484 
L 261.178406 86.895728 
L 261.427603 86.895728 
L 261.427603 86.151971 
L 261.590221 86.151971 
L 261.694217 83.920702 
L 262.913405 83.920702 
L 262.913405 83.176945 
L 263.170706 83.176945 
L 263.170706 82.433189 
L 263.416556 82.433189 
L 263.475278 80.20192 
L 264.785463 80.20192 
L 264.785463 79.458163 
L 265.143561 79.458163 
L 265.167438 77.226894 
L 266.128742 77.226894 
L 266.128742 76.483137 
L 267.331187 76.483137 
L 267.331187 75.739381 
L 268.222214 75.739381 
L 268.25095 74.251868 
L 268.441092 74.251868 
L 268.441092 73.508111 
L 268.83826 73.508111 
L 268.909056 72.020599 
L 268.985354 72.020599 
L 268.985354 71.276842 
L 269.361271 71.276842 
L 269.361271 70.533086 
L 269.568212 70.533086 
L 269.609255 69.045573 
L 269.692812 69.045573 
L 269.692812 68.301816 
L 270.048872 68.301816 
L 270.111712 66.814303 
L 272.596686 66.814303 
L 272.686468 65.326791 
L 273.421708 65.326791 
L 273.421708 64.583034 
L 275.040208 64.583034 
L 275.040208 63.839278 
L 276.279644 63.839278 
L 276.279644 63.095521 
L 276.847314 63.095521 
L 276.847314 62.351765 
L 276.984381 62.351765 
L 276.984381 61.608008 
L 278.015173 61.608008 
L 278.015173 60.864252 
L 279.454099 60.864252 
L 279.454099 60.120495 
L 279.760776 60.120495 
L 279.868857 58.632982 
L 280.318277 58.632982 
L 280.318277 57.889226 
L 280.472149 57.889226 
L 280.472149 57.14547 
L 280.914767 57.14547 
L 280.914767 56.401713 
L 281.79179 56.401713 
L 281.79179 55.657957 
L 282.316454 55.657957 
L 282.316454 54.9142 
L 284.090511 54.9142 
L 284.090511 54.170444 
L 285.076941 54.170444 
L 285.076941 53.426687 
L 286.272763 53.426687 
L 286.272763 52.682931 
L 286.657017 52.682931 
L 286.657017 51.939174 
L 286.831553 51.939174 
L 286.831553 51.195418 
L 287.090356 51.195418 
L 287.090356 50.451662 
L 287.823954 50.451662 
L 287.823954 49.707905 
L 288.251482 49.707905 
L 288.251482 48.964149 
L 289.396279 48.964149 
L 289.396279 48.220392 
L 289.978005 48.220392 
L 290.08053 46.732879 
L 291.093767 46.732879 
L 291.093767 45.989123 
L 291.340273 45.989123 
L 291.340273 45.245366 
L 293.409696 45.245366 
L 293.409696 44.50161 
L 293.636562 44.50161 
L 293.636562 43.757853 
L 293.87097 43.757853 
L 293.87097 43.014097 
L 294.989698 43.014097 
L 294.989698 42.270341 
L 296.008582 42.270341 
L 296.008582 41.526584 
L 297.24347 41.526584 
L 297.24347 40.782828 
L 298.519083 40.782828 
L 298.519083 40.039071 
L 299.813603 40.039071 
L 299.813603 39.295315 
L 302.50315 39.295315 
L 302.50315 38.551558 
L 303.595907 38.551558 
L 303.595907 37.807802 
L 308.237456 37.807802 
L 308.237456 37.064045 
L 312.999871 37.064045 
L 312.999871 36.320289 
L 313.14714 36.320289 
L 313.14714 35.576533 
L 316.834938 35.576533 
L 316.834938 34.832776 
L 317.073723 34.832776 
L 317.073723 34.08902 
L 321.084896 34.08902 
L 321.084896 33.345263 
L 328.610803 33.345263 
L 328.610803 32.601507 
L 339.370647 32.601507 
L 339.370647 31.85775 
L 344.849496 31.85775 
L 344.849496 31.113994 
L 350.875878 31.113994 
L 350.875878 30.370237 
L 359.707747 30.370237 
L 359.707747 29.626481 
L 453.192 29.626481 
L 453.192 29.626481 
" style="fill:none;stroke:#00bfbf;stroke-linecap:square;stroke-width:3;"/>
   </g>
   <g id="line2d_63">
    <path clip-path="url(#pb45804c99a)" style="fill:none;stroke:#00bfbf;stroke-linecap:square;stroke-width:3;"/>
   </g>
   <g id="line2d_64">
    <path clip-path="url(#pb45804c99a)" d="M 34.16 272.384606 
L 142.715413 272.384606 
L 142.715413 271.439364 
L 181.215305 271.439364 
L 181.215305 270.494122 
L 186.593875 270.494122 
L 186.593875 269.548879 
L 187.874735 269.548879 
L 187.874735 268.603637 
L 189.2908 268.603637 
L 189.2908 267.658395 
L 190.575936 267.658395 
L 190.575936 266.713152 
L 192.310258 266.713152 
L 192.310258 265.76791 
L 194.20392 265.76791 
L 194.20392 264.822668 
L 196.447952 264.822668 
L 196.447952 263.877425 
L 197.038781 263.877425 
L 197.038781 262.932183 
L 197.591554 262.932183 
L 197.591554 261.986941 
L 199.687054 261.986941 
L 199.687054 261.041698 
L 201.420549 261.041698 
L 201.420549 260.096456 
L 202.365378 260.096456 
L 202.365378 259.151214 
L 203.341304 259.151214 
L 203.341304 258.205972 
L 203.707856 258.205972 
L 203.707856 257.260729 
L 206.105535 257.260729 
L 206.105535 256.315487 
L 208.32133 256.315487 
L 208.32133 255.370245 
L 208.508467 255.370245 
L 208.508467 254.425002 
L 208.795206 254.425002 
L 208.795206 253.47976 
L 209.83979 253.47976 
L 209.83979 252.534518 
L 210.171793 252.534518 
L 210.171793 251.589275 
L 210.429259 251.589275 
L 210.429259 250.644033 
L 210.763947 250.644033 
L 210.763947 249.698791 
L 211.477046 249.698791 
L 211.477046 248.753548 
L 212.359959 248.753548 
L 212.359959 247.808306 
L 212.740603 247.808306 
L 212.740603 246.863064 
L 213.684881 246.863064 
L 213.684881 245.917821 
L 214.79025 245.917821 
L 214.79025 244.972579 
L 216.041269 244.972579 
L 216.041269 244.027337 
L 216.183025 244.027337 
L 216.183025 243.082095 
L 218.270895 243.082095 
L 218.270895 242.136852 
L 218.719632 242.136852 
L 218.719632 241.19161 
L 219.160141 241.19161 
L 219.160141 240.246368 
L 219.713296 240.246368 
L 219.713296 239.301125 
L 220.184931 239.301125 
L 220.184931 238.355883 
L 220.79004 238.355883 
L 220.79004 237.410641 
L 221.172102 237.410641 
L 221.172102 236.465398 
L 221.294926 236.465398 
L 221.294926 235.520156 
L 222.100471 235.520156 
L 222.100471 234.574914 
L 222.214844 234.574914 
L 222.214844 233.629671 
L 222.380332 233.629671 
L 222.380332 232.684429 
L 222.879573 232.684429 
L 222.879573 231.739187 
L 223.277526 231.739187 
L 223.277526 230.793945 
L 223.646343 230.793945 
L 223.646343 229.848702 
L 224.435557 229.848702 
L 224.533447 227.012975 
L 224.613107 227.012975 
L 224.613107 226.067733 
L 224.733906 226.067733 
L 224.733906 225.122491 
L 225.007322 225.122491 
L 225.033879 223.232006 
L 225.23656 223.232006 
L 225.23656 222.286764 
L 225.426219 222.286764 
L 225.453575 220.396279 
L 225.545687 220.396279 
L 225.545687 219.451037 
L 226.000437 219.451037 
L 226.000437 218.505794 
L 226.651602 218.505794 
L 226.651602 217.560552 
L 226.982154 217.560552 
L 226.982154 216.61531 
L 227.432708 216.61531 
L 227.432708 215.670068 
L 228.245711 215.670068 
L 228.245711 214.724825 
L 228.406158 214.724825 
L 228.406158 213.779583 
L 228.90668 213.779583 
L 228.90668 212.834341 
L 229.459623 212.834341 
L 229.544004 210.943856 
L 229.968755 210.943856 
L 230.019705 209.053371 
L 230.305448 209.053371 
L 230.305448 208.108129 
L 230.448902 208.108129 
L 230.448902 207.162887 
L 230.643803 207.162887 
L 230.643803 206.217644 
L 231.798388 206.217644 
L 231.798388 205.272402 
L 232.311636 205.272402 
L 232.311636 204.32716 
L 233.044225 204.32716 
L 233.061945 202.436675 
L 233.3316 202.436675 
L 233.3316 201.491433 
L 233.497176 201.491433 
L 233.569801 196.765221 
L 233.842771 196.765221 
L 233.92614 194.874737 
L 234.002919 194.874737 
L 234.002919 193.929494 
L 234.343598 193.929494 
L 234.343598 192.984252 
L 234.83836 192.984252 
L 234.83836 192.03901 
L 234.996577 192.03901 
L 234.996577 191.093767 
L 235.302989 191.093767 
L 235.302989 190.148525 
L 235.539973 190.148525 
L 235.539973 189.203283 
L 235.710721 189.203283 
L 235.710721 188.258041 
L 235.980393 188.258041 
L 235.980393 187.312798 
L 236.101906 187.312798 
L 236.101906 186.367556 
L 236.300624 186.367556 
L 236.300624 185.422314 
L 236.516183 185.422314 
L 236.529737 183.531829 
L 236.673648 183.531829 
L 236.698576 181.641344 
L 237.240278 181.641344 
L 237.294851 179.75086 
L 237.359946 179.75086 
L 237.407642 177.860375 
L 237.794432 177.860375 
L 237.794432 176.915133 
L 238.304204 176.915133 
L 238.304204 175.96989 
L 238.528386 175.96989 
L 238.528386 175.024648 
L 238.654663 175.024648 
L 238.654663 174.079406 
L 239.176384 174.079406 
L 239.176384 173.134164 
L 239.348632 173.134164 
L 239.348632 172.188921 
L 240.142186 172.188921 
L 240.227564 169.353194 
L 240.360395 169.353194 
L 240.423974 167.46271 
L 240.526766 167.46271 
L 240.536984 165.572225 
L 240.697019 165.572225 
L 240.776351 163.68174 
L 240.877543 163.68174 
L 240.924719 161.791256 
L 242.092574 161.791256 
L 242.092574 160.846014 
L 242.435319 160.846014 
L 242.435319 159.900771 
L 242.873103 159.900771 
L 242.881173 158.010287 
L 243.056401 158.010287 
L 243.056401 157.065044 
L 243.42469 157.065044 
L 243.42469 156.119802 
L 244.124794 156.119802 
L 244.214485 152.338833 
L 244.5272 152.338833 
L 244.599698 150.448348 
L 244.801846 150.448348 
L 244.801846 149.503106 
L 245.026566 149.503106 
L 245.026566 148.557863 
L 245.245926 148.557863 
L 245.330295 143.831652 
L 245.361902 143.831652 
L 245.361902 142.88641 
L 245.757782 142.88641 
L 245.844661 140.050683 
L 246.039345 140.050683 
L 246.039345 139.10544 
L 246.392063 139.10544 
L 246.392063 138.160198 
L 246.699409 138.160198 
L 246.699409 137.214956 
L 246.90828 137.214956 
L 246.90828 136.269713 
L 247.344755 136.269713 
L 247.344755 135.324471 
L 247.850656 135.324471 
L 247.8624 133.433986 
L 248.12634 133.433986 
L 248.195017 130.59826 
L 248.275979 130.59826 
L 248.386682 128.707775 
L 248.451577 128.707775 
L 248.451577 127.762533 
L 248.740011 127.762533 
L 248.795919 125.872048 
L 248.947076 125.872048 
L 248.963233 123.981563 
L 249.339845 123.981563 
L 249.387548 122.091079 
L 249.639275 122.091079 
L 249.639275 121.145836 
L 249.858194 121.145836 
L 249.858194 120.200594 
L 250.013111 120.200594 
L 250.013111 119.255352 
L 250.204059 119.255352 
L 250.204059 118.31011 
L 250.317854 118.31011 
L 250.317854 117.364867 
L 251.460951 117.364867 
L 251.528718 114.52914 
L 251.711227 114.52914 
L 251.746921 112.638656 
L 251.960375 112.638656 
L 252.03364 110.748171 
L 252.12039 110.748171 
L 252.129241 108.857686 
L 252.270931 108.857686 
L 252.270931 107.912444 
L 252.543268 107.912444 
L 252.543268 106.967202 
L 253.118935 106.967202 
L 253.118935 106.021959 
L 253.433447 106.021959 
L 253.433447 105.076717 
L 253.629212 105.076717 
L 253.68919 103.186233 
L 254.171948 103.186233 
L 254.198083 101.295748 
L 254.391753 101.295748 
L 254.443821 99.405263 
L 254.579002 99.405263 
L 254.614975 97.514779 
L 254.899436 97.514779 
L 254.963872 95.624294 
L 255.925567 95.624294 
L 255.925567 94.679052 
L 256.111211 94.679052 
L 256.211001 92.788567 
L 256.270095 92.788567 
L 256.270095 91.843325 
L 256.475444 91.843325 
L 256.475444 90.898082 
L 257.371313 90.898082 
L 257.371313 89.95284 
L 257.486971 89.95284 
L 257.486971 89.007598 
L 257.623156 89.007598 
L 257.623156 88.062356 
L 258.028167 88.062356 
L 258.028167 87.117113 
L 258.187824 87.117113 
L 258.187824 86.171871 
L 258.703955 86.171871 
L 258.703955 85.226629 
L 259.043973 85.226629 
L 259.043973 84.281386 
L 259.360292 84.281386 
L 259.360292 83.336144 
L 259.849825 83.336144 
L 259.849825 82.390902 
L 260.188306 82.390902 
L 260.188306 81.445659 
L 260.406906 81.445659 
L 260.406906 80.500417 
L 261.039131 80.500417 
L 261.039131 79.555175 
L 261.164132 79.555175 
L 261.164132 78.609932 
L 261.583836 78.609932 
L 261.583836 77.66469 
L 261.807732 77.66469 
L 261.807732 76.719448 
L 262.394681 76.719448 
L 262.394681 75.774206 
L 262.918855 75.774206 
L 262.918855 74.828963 
L 263.092821 74.828963 
L 263.092821 73.883721 
L 263.856826 73.883721 
L 263.856826 72.938479 
L 264.34162 72.938479 
L 264.34162 71.993236 
L 265.604638 71.993236 
L 265.615629 70.102752 
L 266.033875 70.102752 
L 266.033875 69.157509 
L 266.205102 69.157509 
L 266.205102 68.212267 
L 266.643333 68.212267 
L 266.643333 67.267025 
L 266.760638 67.267025 
L 266.760638 66.321782 
L 267.616319 66.321782 
L 267.616319 65.37654 
L 269.196303 65.37654 
L 269.269397 63.486055 
L 269.423499 63.486055 
L 269.423499 62.540813 
L 270.228629 62.540813 
L 270.228629 61.595571 
L 271.053388 61.595571 
L 271.053388 60.650329 
L 271.275244 60.650329 
L 271.301577 58.759844 
L 272.855296 58.759844 
L 272.855296 57.814602 
L 275.700475 57.814602 
L 275.700475 56.869359 
L 276.813005 56.869359 
L 276.813005 55.924117 
L 277.435241 55.924117 
L 277.435241 54.978875 
L 277.620105 54.978875 
L 277.620105 54.033632 
L 281.570126 54.033632 
L 281.570126 53.08839 
L 281.690132 53.08839 
L 281.690132 52.143148 
L 281.960838 52.143148 
L 281.960838 51.197905 
L 283.316571 51.197905 
L 283.316571 50.252663 
L 283.655369 50.252663 
L 283.655369 49.307421 
L 284.111626 49.307421 
L 284.111626 48.362179 
L 284.334357 48.362179 
L 284.418037 46.471694 
L 285.026027 46.471694 
L 285.026027 45.526452 
L 285.4371 45.526452 
L 285.4371 44.581209 
L 290.794249 44.581209 
L 290.794249 43.635967 
L 291.205584 43.635967 
L 291.205584 42.690725 
L 293.76524 42.690725 
L 293.76524 41.745482 
L 294.243306 41.745482 
L 294.243306 40.80024 
L 296.021817 40.80024 
L 296.021817 39.854998 
L 296.154276 39.854998 
L 296.154276 38.909755 
L 300.609155 38.909755 
L 300.609155 37.964513 
L 307.053221 37.964513 
L 307.053221 37.019271 
L 308.598374 37.019271 
L 308.598374 36.074028 
L 313.15849 36.074028 
L 313.15849 35.128786 
L 321.640541 35.128786 
L 321.640541 34.183544 
L 336.997943 34.183544 
L 336.997943 33.238302 
L 453.192 33.238302 
L 453.192 33.238302 
" style="fill:none;stroke:#bf00bf;stroke-linecap:square;stroke-width:3;"/>
   </g>
   <g id="line2d_65">
    <path clip-path="url(#pb45804c99a)" style="fill:none;stroke:#bf00bf;stroke-linecap:square;stroke-width:3;"/>
   </g>
   <g id="line2d_66">
    <path clip-path="url(#pb45804c99a)" d="M 34.16 225.647625 
L 185.025112 225.647625 
L 185.025112 224.152242 
L 189.65432 224.152242 
L 189.65432 222.656859 
L 195.344307 222.656859 
L 195.344307 221.161475 
L 200.958026 221.161475 
L 200.958026 219.666092 
L 206.090662 219.666092 
L 206.090662 218.170709 
L 206.510168 218.170709 
L 206.510168 216.675325 
L 208.027297 216.675325 
L 208.027297 215.179942 
L 218.220017 215.179942 
L 218.220017 213.684559 
L 220.553564 213.684559 
L 220.553564 212.189175 
L 221.552737 212.189175 
L 221.552737 210.693792 
L 222.436785 210.693792 
L 222.436785 209.198409 
L 223.418467 209.198409 
L 223.418467 207.703025 
L 224.531991 207.703025 
L 224.531991 206.207642 
L 226.97125 206.207642 
L 227.065993 203.216875 
L 227.840462 203.216875 
L 227.840462 201.721492 
L 228.50756 201.721492 
L 228.521459 198.730725 
L 229.055041 198.730725 
L 229.055041 197.235342 
L 231.36902 197.235342 
L 231.36902 195.739959 
L 231.598863 195.739959 
L 231.598863 194.244575 
L 232.435688 194.244575 
L 232.435688 192.749192 
L 232.885214 192.749192 
L 232.913723 189.758425 
L 233.232683 189.758425 
L 233.232683 188.263042 
L 234.553619 188.263042 
L 234.553619 186.767658 
L 235.802007 186.767658 
L 235.802007 185.272275 
L 237.251072 185.272275 
L 237.251072 183.776892 
L 237.413231 183.776892 
L 237.46985 180.786125 
L 238.30692 180.786125 
L 238.30692 179.290742 
L 238.884892 179.290742 
L 238.914546 176.299975 
L 239.360675 176.299975 
L 239.360675 174.804592 
L 240.077857 174.804592 
L 240.077857 173.309208 
L 240.359689 173.309208 
L 240.359689 171.813825 
L 240.538585 171.813825 
L 240.538585 170.318442 
L 240.845203 170.318442 
L 240.845203 168.823058 
L 241.026547 168.823058 
L 241.095028 165.832292 
L 241.421737 165.832292 
L 241.514331 162.841525 
L 241.638042 162.841525 
L 241.737516 159.850758 
L 242.551768 159.850758 
L 242.558943 156.859992 
L 242.79338 156.859992 
L 242.79338 155.364608 
L 243.151782 155.364608 
L 243.151782 153.869225 
L 243.4107 153.869225 
L 243.4107 152.373842 
L 243.584558 152.373842 
L 243.693137 149.383075 
L 243.717765 149.383075 
L 243.717765 147.887692 
L 244.945909 147.887692 
L 244.945909 146.392308 
L 245.118163 146.392308 
L 245.154239 141.906158 
L 245.492797 141.906158 
L 245.492797 140.410775 
L 245.740917 140.410775 
L 245.740917 138.915392 
L 246.362159 138.915392 
L 246.362159 137.420008 
L 246.71847 137.420008 
L 246.791348 132.933858 
L 247.037501 132.933858 
L 247.037501 131.438475 
L 247.161784 131.438475 
L 247.161784 129.943092 
L 247.429628 129.943092 
L 247.533344 125.456942 
L 247.798633 125.456942 
L 247.89503 122.466175 
L 248.240875 122.466175 
L 248.240875 120.970792 
L 248.585816 120.970792 
L 248.585816 119.475408 
L 248.795604 119.475408 
L 248.795604 117.980025 
L 249.340982 117.980025 
L 249.345346 114.989258 
L 250.358837 114.989258 
L 250.358837 113.493875 
L 251.230211 113.493875 
L 251.230211 111.998492 
L 252.301076 111.998492 
L 252.301076 110.503108 
L 253.849495 110.503108 
L 253.849495 109.007725 
L 254.320517 109.007725 
L 254.320517 107.512342 
L 254.483281 107.512342 
L 254.483281 106.016958 
L 254.594924 106.016958 
L 254.594924 104.521575 
L 255.379093 104.521575 
L 255.379093 103.026192 
L 255.993701 103.026192 
L 255.993701 101.530808 
L 259.256058 101.530808 
L 259.256058 100.035425 
L 259.481544 100.035425 
L 259.481544 98.540041 
L 259.7923 98.540041 
L 259.7923 97.044658 
L 260.012525 97.044658 
L 260.012525 95.549275 
L 260.685347 95.549275 
L 260.685347 94.053891 
L 262.906724 94.053891 
L 262.906724 92.558508 
L 264.944661 92.558508 
L 264.944661 91.063125 
L 265.474233 91.063125 
L 265.553121 88.072358 
L 267.124576 88.072358 
L 267.124576 86.576975 
L 268.625891 86.576975 
L 268.625891 85.081591 
L 268.782167 85.081591 
L 268.782167 83.586208 
L 272.167773 83.586208 
L 272.167773 82.090825 
L 273.669088 82.090825 
L 273.669088 80.595441 
L 274.877677 80.595441 
L 274.877677 79.100058 
L 281.587523 79.100058 
L 281.587523 77.604675 
L 288.595332 77.604675 
L 288.595332 76.109291 
L 289.549284 76.109291 
L 289.549284 74.613908 
L 291.58748 74.613908 
L 291.58748 73.118525 
L 306.949529 73.118525 
L 306.949529 71.623141 
L 315.238151 71.623141 
L 315.238151 70.127758 
L 319.739846 70.127758 
L 319.739846 68.632375 
L 453.192 68.632375 
L 453.192 68.632375 
" style="fill:none;stroke:#ff0000;stroke-linecap:square;stroke-width:3;"/>
   </g>
   <g id="line2d_67">
    <path clip-path="url(#pb45804c99a)" style="fill:none;stroke:#ff0000;stroke-linecap:square;stroke-width:3;"/>
   </g>
   <g id="line2d_68">
    <path clip-path="url(#pb45804c99a)" d="M 34.16 203.66549 
L 182.623508 203.66549 
L 182.623508 194.244575 
L 199.223221 194.244575 
L 199.223221 184.82366 
L 215.793793 184.82366 
L 215.793793 175.402745 
L 221.482864 175.402745 
L 221.482864 165.98183 
L 232.393507 165.98183 
L 232.393507 156.560915 
L 238.082577 156.560915 
L 238.082577 147.14 
L 238.640786 147.14 
L 238.640786 137.719085 
L 244.620229 137.719085 
L 244.620229 128.29817 
L 262.711795 128.29817 
L 262.711795 118.877255 
L 263.757692 118.877255 
L 263.757692 109.45634 
L 277.790515 109.45634 
L 277.790515 100.035425 
L 283.479586 100.035425 
L 283.479586 90.61451 
L 453.192 90.61451 
" style="fill:none;stroke:#0000ff;stroke-linecap:square;stroke-width:3;"/>
   </g>
   <g id="line2d_69">
    <path clip-path="url(#pb45804c99a)" style="fill:none;stroke:#0000ff;stroke-linecap:square;stroke-width:3;"/>
   </g>
   <g id="line2d_70">
    <path clip-path="url(#pb45804c99a)" d="M 243.676 291.28 
L 243.676 3 
" style="fill:none;stroke:#000000;stroke-linecap:square;stroke-width:1.5;"/>
   </g>
   <g id="line2d_71">
    <path clip-path="url(#pb45804c99a)" d="M 34.16 147.14 
L 453.192 147.14 
" style="fill:none;stroke:#000000;stroke-dasharray:2,3.3;stroke-dashoffset:0;stroke-width:2;"/>
   </g>
   <g id="patch_3">
    <path d="M 34.16 291.28 
L 34.16 3 
" style="fill:none;stroke:#000000;stroke-linecap:square;stroke-linejoin:miter;stroke-width:0.8;"/>
   </g>
   <g id="patch_4">
    <path d="M 453.192 291.28 
L 453.192 3 
" style="fill:none;stroke:#000000;stroke-linecap:square;stroke-linejoin:miter;stroke-width:0.8;"/>
   </g>
   <g id="patch_5">
    <path d="M 34.16 291.28 
L 453.192 291.28 
" style="fill:none;stroke:#000000;stroke-linecap:square;stroke-linejoin:miter;stroke-width:0.8;"/>
   </g>
   <g id="patch_6">
    <path d="M 34.16 3 
L 453.192 3 
" style="fill:none;stroke:#000000;stroke-linecap:square;stroke-linejoin:miter;stroke-width:0.8;"/>
   </g>
   <g id="text_5">
    <!-- f1-f55,5-D -->
    <defs>
     <path d="M 10.796875 72.90625 
L 49.515625 72.90625 
L 49.515625 64.59375 
L 19.828125 64.59375 
L 19.828125 46.734375 
Q 21.96875 47.46875 24.109375 47.828125 
Q 26.265625 48.1875 28.421875 48.1875 
Q 40.625 48.1875 47.75 41.5 
Q 54.890625 34.8125 54.890625 23.390625 
Q 54.890625 11.625 47.5625 5.09375 
Q 40.234375 -1.421875 26.90625 -1.421875 
Q 22.3125 -1.421875 17.546875 -0.640625 
Q 12.796875 0.140625 7.71875 1.703125 
L 7.71875 11.625 
Q 12.109375 9.234375 16.796875 8.0625 
Q 21.484375 6.890625 26.703125 6.890625 
Q 35.15625 6.890625 40.078125 11.328125 
Q 45.015625 15.765625 45.015625 23.390625 
Q 45.015625 31 40.078125 35.4375 
Q 35.15625 39.890625 26.703125 39.890625 
Q 22.75 39.890625 18.8125 39.015625 
Q 14.890625 38.140625 10.796875 36.28125 
z
" id="DejaVuSans-53"/>
     <path d="M 11.71875 12.40625 
L 22.015625 12.40625 
L 22.015625 4 
L 14.015625 -11.625 
L 7.71875 -11.625 
L 11.71875 4 
z
" id="DejaVuSans-44"/>
     <path d="M 19.671875 64.796875 
L 19.671875 8.109375 
L 31.59375 8.109375 
Q 46.6875 8.109375 53.6875 14.9375 
Q 60.6875 21.78125 60.6875 36.53125 
Q 60.6875 51.171875 53.6875 57.984375 
Q 46.6875 64.796875 31.59375 64.796875 
z
M 9.8125 72.90625 
L 30.078125 72.90625 
Q 51.265625 72.90625 61.171875 64.09375 
Q 71.09375 55.28125 71.09375 36.53125 
Q 71.09375 17.671875 61.125 8.828125 
Q 51.171875 0 30.078125 0 
L 9.8125 0 
z
" id="DejaVuSans-68"/>
    </defs>
    <g transform="translate(343.64261 285.5144)scale(0.2 -0.2)">
     <use xlink:href="#DejaVuSans-102"/>
     <use x="35.205078" xlink:href="#DejaVuSans-49"/>
     <use x="98.828125" xlink:href="#DejaVuSans-45"/>
     <use x="134.912109" xlink:href="#DejaVuSans-102"/>
     <use x="170.117188" xlink:href="#DejaVuSans-53"/>
     <use x="233.740234" xlink:href="#DejaVuSans-53"/>
     <use x="297.363281" xlink:href="#DejaVuSans-44"/>
     <use x="329.150391" xlink:href="#DejaVuSans-53"/>
     <use x="392.773438" xlink:href="#DejaVuSans-45"/>
     <use x="428.857422" xlink:href="#DejaVuSans-68"/>
    </g>
   </g>
   <g id="text_6">
    <!-- v2.3.3.43 -->
    <defs>
     <path d="M 19.1875 8.296875 
L 53.609375 8.296875 
L 53.609375 0 
L 7.328125 0 
L 7.328125 8.296875 
Q 12.9375 14.109375 22.625 23.890625 
Q 32.328125 33.6875 34.8125 36.53125 
Q 39.546875 41.84375 41.421875 45.53125 
Q 43.3125 49.21875 43.3125 52.78125 
Q 43.3125 58.59375 39.234375 62.25 
Q 35.15625 65.921875 28.609375 65.921875 
Q 23.96875 65.921875 18.8125 64.3125 
Q 13.671875 62.703125 7.8125 59.421875 
L 7.8125 69.390625 
Q 13.765625 71.78125 18.9375 73 
Q 24.125 74.21875 28.421875 74.21875 
Q 39.75 74.21875 46.484375 68.546875 
Q 53.21875 62.890625 53.21875 53.421875 
Q 53.21875 48.921875 51.53125 44.890625 
Q 49.859375 40.875 45.40625 35.40625 
Q 44.1875 33.984375 37.640625 27.21875 
Q 31.109375 20.453125 19.1875 8.296875 
z
" id="DejaVuSans-50"/>
     <path d="M 10.6875 12.40625 
L 21 12.40625 
L 21 0 
L 10.6875 0 
z
" id="DejaVuSans-46"/>
     <path d="M 40.578125 39.3125 
Q 47.65625 37.796875 51.625 33 
Q 55.609375 28.21875 55.609375 21.1875 
Q 55.609375 10.40625 48.1875 4.484375 
Q 40.765625 -1.421875 27.09375 -1.421875 
Q 22.515625 -1.421875 17.65625 -0.515625 
Q 12.796875 0.390625 7.625 2.203125 
L 7.625 11.71875 
Q 11.71875 9.328125 16.59375 8.109375 
Q 21.484375 6.890625 26.8125 6.890625 
Q 36.078125 6.890625 40.9375 10.546875 
Q 45.796875 14.203125 45.796875 21.1875 
Q 45.796875 27.640625 41.28125 31.265625 
Q 36.765625 34.90625 28.71875 34.90625 
L 20.21875 34.90625 
L 20.21875 43.015625 
L 29.109375 43.015625 
Q 36.375 43.015625 40.234375 45.921875 
Q 44.09375 48.828125 44.09375 54.296875 
Q 44.09375 59.90625 40.109375 62.90625 
Q 36.140625 65.921875 28.71875 65.921875 
Q 24.65625 65.921875 20.015625 65.03125 
Q 15.375 64.15625 9.8125 62.3125 
L 9.8125 71.09375 
Q 15.4375 72.65625 20.34375 73.4375 
Q 25.25 74.21875 29.59375 74.21875 
Q 40.828125 74.21875 47.359375 69.109375 
Q 53.90625 64.015625 53.90625 55.328125 
Q 53.90625 49.265625 50.4375 45.09375 
Q 46.96875 40.921875 40.578125 39.3125 
z
" id="DejaVuSans-51"/>
     <path d="M 37.796875 64.3125 
L 12.890625 25.390625 
L 37.796875 25.390625 
z
M 35.203125 72.90625 
L 47.609375 72.90625 
L 47.609375 25.390625 
L 58.015625 25.390625 
L 58.015625 17.1875 
L 47.609375 17.1875 
L 47.609375 0 
L 37.796875 0 
L 37.796875 17.1875 
L 4.890625 17.1875 
L 4.890625 26.703125 
z
" id="DejaVuSans-52"/>
    </defs>
    <g style="fill:#808080;" transform="translate(220.043187 286.317512)scale(0.1 -0.1)">
     <use xlink:href="#DejaVuSans-118"/>
     <use x="59.179688" xlink:href="#DejaVuSans-50"/>
     <use x="122.802734" xlink:href="#DejaVuSans-46"/>
     <use x="154.589844" xlink:href="#DejaVuSans-51"/>
     <use x="218.212891" xlink:href="#DejaVuSans-46"/>
     <use x="250" xlink:href="#DejaVuSans-51"/>
     <use x="313.623047" xlink:href="#DejaVuSans-46"/>
     <use x="345.410156" xlink:href="#DejaVuSans-52"/>
     <use x="409.033203" xlink:href="#DejaVuSans-51"/>
    </g>
   </g>
   <g id="legend_1">
    <g id="patch_7">
     <path d="M 48.16 165.78125 
L 202.831875 165.78125 
Q 206.831875 165.78125 206.831875 161.78125 
L 206.831875 17 
Q 206.831875 13 202.831875 13 
L 48.16 13 
Q 44.16 13 44.16 17 
L 44.16 161.78125 
Q 44.16 165.78125 48.16 165.78125 
z
" style="fill:#ffffff;opacity:0.2;stroke:#cccccc;stroke-linejoin:miter;"/>
    </g>
    <g id="line2d_72">
     <path d="M 52.16 29.196875 
L 92.16 29.196875 
" style="fill:none;stroke:#000000;stroke-linecap:square;stroke-width:3;"/>
    </g>
    <g id="line2d_73"/>
    <g id="text_7">
     <!-- -1: 55/55 -->
     <defs>
      <path d="M 11.71875 12.40625 
L 22.015625 12.40625 
L 22.015625 0 
L 11.71875 0 
z
M 11.71875 51.703125 
L 22.015625 51.703125 
L 22.015625 39.3125 
L 11.71875 39.3125 
z
" id="DejaVuSans-58"/>
      <path d="M 25.390625 72.90625 
L 33.6875 72.90625 
L 8.296875 -9.28125 
L 0 -9.28125 
z
" id="DejaVuSans-47"/>
     </defs>
     <g transform="translate(108.16 36.196875)scale(0.2 -0.2)">
      <use xlink:href="#DejaVuSans-45"/>
      <use x="36.083984" xlink:href="#DejaVuSans-49"/>
      <use x="99.707031" xlink:href="#DejaVuSans-58"/>
      <use x="133.398438" xlink:href="#DejaVuSans-32"/>
      <use x="165.185547" xlink:href="#DejaVuSans-53"/>
      <use x="228.808594" xlink:href="#DejaVuSans-53"/>
      <use x="292.431641" xlink:href="#DejaVuSans-47"/>
      <use x="326.123047" xlink:href="#DejaVuSans-53"/>
      <use x="389.746094" xlink:href="#DejaVuSans-53"/>
     </g>
    </g>
    <g id="line2d_74">
     <path d="M 52.16 58.553125 
L 92.16 58.553125 
" style="fill:none;stroke:#00bfbf;stroke-linecap:square;stroke-width:3;"/>
    </g>
    <g id="line2d_75"/>
    <g id="text_8">
     <!-- -2: 45/45 -->
     <g transform="translate(108.16 65.553125)scale(0.2 -0.2)">
      <use xlink:href="#DejaVuSans-45"/>
      <use x="36.083984" xlink:href="#DejaVuSans-50"/>
      <use x="99.707031" xlink:href="#DejaVuSans-58"/>
      <use x="133.398438" xlink:href="#DejaVuSans-32"/>
      <use x="165.185547" xlink:href="#DejaVuSans-52"/>
      <use x="228.808594" xlink:href="#DejaVuSans-53"/>
      <use x="292.431641" xlink:href="#DejaVuSans-47"/>
      <use x="326.123047" xlink:href="#DejaVuSans-52"/>
      <use x="389.746094" xlink:href="#DejaVuSans-53"/>
     </g>
    </g>
    <g id="line2d_76">
     <path d="M 52.16 87.909375 
L 92.16 87.909375 
" style="fill:none;stroke:#bf00bf;stroke-linecap:square;stroke-width:3;"/>
    </g>
    <g id="line2d_77"/>
    <g id="text_9">
     <!-- -3: 33/36 -->
     <defs>
      <path d="M 33.015625 40.375 
Q 26.375 40.375 22.484375 35.828125 
Q 18.609375 31.296875 18.609375 23.390625 
Q 18.609375 15.53125 22.484375 10.953125 
Q 26.375 6.390625 33.015625 6.390625 
Q 39.65625 6.390625 43.53125 10.953125 
Q 47.40625 15.53125 47.40625 23.390625 
Q 47.40625 31.296875 43.53125 35.828125 
Q 39.65625 40.375 33.015625 40.375 
z
M 52.59375 71.296875 
L 52.59375 62.3125 
Q 48.875 64.0625 45.09375 64.984375 
Q 41.3125 65.921875 37.59375 65.921875 
Q 27.828125 65.921875 22.671875 59.328125 
Q 17.53125 52.734375 16.796875 39.40625 
Q 19.671875 43.65625 24.015625 45.921875 
Q 28.375 48.1875 33.59375 48.1875 
Q 44.578125 48.1875 50.953125 41.515625 
Q 57.328125 34.859375 57.328125 23.390625 
Q 57.328125 12.15625 50.6875 5.359375 
Q 44.046875 -1.421875 33.015625 -1.421875 
Q 20.359375 -1.421875 13.671875 8.265625 
Q 6.984375 17.96875 6.984375 36.375 
Q 6.984375 53.65625 15.1875 63.9375 
Q 23.390625 74.21875 37.203125 74.21875 
Q 40.921875 74.21875 44.703125 73.484375 
Q 48.484375 72.75 52.59375 71.296875 
z
" id="DejaVuSans-54"/>
     </defs>
     <g transform="translate(108.16 94.909375)scale(0.2 -0.2)">
      <use xlink:href="#DejaVuSans-45"/>
      <use x="36.083984" xlink:href="#DejaVuSans-51"/>
      <use x="99.707031" xlink:href="#DejaVuSans-58"/>
      <use x="133.398438" xlink:href="#DejaVuSans-32"/>
      <use x="165.185547" xlink:href="#DejaVuSans-51"/>
      <use x="228.808594" xlink:href="#DejaVuSans-51"/>
      <use x="292.431641" xlink:href="#DejaVuSans-47"/>
      <use x="326.123047" xlink:href="#DejaVuSans-51"/>
      <use x="389.746094" xlink:href="#DejaVuSans-54"/>
     </g>
    </g>
    <g id="line2d_78">
     <path d="M 52.16 117.265625 
L 92.16 117.265625 
" style="fill:none;stroke:#ff0000;stroke-linecap:square;stroke-width:3;"/>
    </g>
    <g id="line2d_79"/>
    <g id="text_10">
     <!-- -4: 24/26 -->
     <g transform="translate(108.16 124.265625)scale(0.2 -0.2)">
      <use xlink:href="#DejaVuSans-45"/>
      <use x="36.083984" xlink:href="#DejaVuSans-52"/>
      <use x="99.707031" xlink:href="#DejaVuSans-58"/>
      <use x="133.398438" xlink:href="#DejaVuSans-32"/>
      <use x="165.185547" xlink:href="#DejaVuSans-50"/>
      <use x="228.808594" xlink:href="#DejaVuSans-52"/>
      <use x="292.431641" xlink:href="#DejaVuSans-47"/>
      <use x="326.123047" xlink:href="#DejaVuSans-50"/>
      <use x="389.746094" xlink:href="#DejaVuSans-54"/>
     </g>
    </g>
    <g id="line2d_80">
     <path d="M 52.16 146.621875 
L 92.16 146.621875 
" style="fill:none;stroke:#0000ff;stroke-linecap:square;stroke-width:3;"/>
    </g>
    <g id="line2d_81"/>
    <g id="text_11">
     <!-- -5: 5/5 -->
     <g transform="translate(108.16 153.621875)scale(0.2 -0.2)">
      <use xlink:href="#DejaVuSans-45"/>
      <use x="36.083984" xlink:href="#DejaVuSans-53"/>
      <use x="99.707031" xlink:href="#DejaVuSans-58"/>
      <use x="133.398438" xlink:href="#DejaVuSans-32"/>
      <use x="165.185547" xlink:href="#DejaVuSans-53"/>
      <use x="228.808594" xlink:href="#DejaVuSans-47"/>
      <use x="262.5" xlink:href="#DejaVuSans-53"/>
     </g>
    </g>
   </g>
  </g>
 </g>
 <defs>
  <clipPath id="pb45804c99a">
   <rect height="288.28" width="419.032" x="34.16" y="3"/>
  </clipPath>
 </defs>
</svg>
