<?xml version="1.0" encoding="utf-8" standalone="no"?>
<!DOCTYPE svg PUBLIC "-//W3C//DTD SVG 1.1//EN"
  "http://www.w3.org/Graphics/SVG/1.1/DTD/svg11.dtd">
<!-- Created with matplotlib (https://matplotlib.org/) -->
<svg height="345.6pt" version="1.1" viewBox="0 0 460.8 345.6" width="460.8pt" xmlns="http://www.w3.org/2000/svg" xmlns:xlink="http://www.w3.org/1999/xlink">
 <defs>
  <style type="text/css">
*{stroke-linecap:butt;stroke-linejoin:round;}
  </style>
 </defs>
 <g id="figure_1">
  <g id="patch_1">
   <path d="M 0 345.6 
L 460.8 345.6 
L 460.8 0 
L 0 0 
z
" style="fill:#ffffff;"/>
  </g>
  <g id="axes_1">
   <g id="patch_2">
    <path d="M 57.6 298.944 
L 338.688 298.944 
L 338.688 3.456 
L 57.6 3.456 
z
" style="fill:#ffffff;"/>
   </g>
   <g id="line2d_1">
    <path d="M 5.356583 298.944 
L 5.356583 295.160866 
L 24.515591 295.160866 
L 24.515591 292.638776 
L 36.60358 292.638776 
L 36.60358 291.377732 
L 39.291857 291.377732 
L 39.291857 288.855642 
L 50.087456 288.855642 
L 50.087456 286.333553 
L 60.779557 286.333553 
L 60.779557 283.811463 
L 65.242851 283.811463 
L 65.242851 281.289374 
L 66.333161 281.289374 
L 66.333161 278.767284 
L 72.125336 278.767284 
L 72.125336 276.245195 
L 74.263433 276.245195 
L 74.263433 274.98415 
L 78.154896 274.98415 
L 78.154896 272.462061 
L 83.23881 272.462061 
L 83.23881 271.201016 
L 86.182924 271.201016 
L 86.182924 269.939971 
L 86.683608 269.939971 
L 86.683608 268.678927 
L 87.329581 268.678927 
L 87.329581 264.895792 
L 89.835723 264.895792 
L 89.835723 261.112658 
L 92.147241 261.112658 
L 92.147241 257.329524 
L 92.267099 257.329524 
L 92.267099 253.54639 
L 96.86091 253.54639 
L 96.86091 251.0243 
L 98.606294 251.0243 
L 98.606294 248.502211 
L 100.641881 248.502211 
L 100.641881 245.980122 
L 107.464828 245.980122 
L 107.464828 243.458032 
L 108.483824 243.458032 
L 108.483824 242.196987 
L 112.913636 242.196987 
L 112.913636 240.935943 
L 113.977337 240.935943 
L 113.977337 239.674898 
L 117.145424 239.674898 
L 117.145424 237.152808 
L 123.233135 237.152808 
L 123.233135 235.891764 
L 123.474235 235.891764 
L 123.474235 233.369674 
L 124.330801 233.369674 
L 124.330801 230.847585 
L 125.001625 230.847585 
L 125.001625 227.064451 
L 127.892415 227.064451 
L 127.892415 223.281316 
L 131.363785 223.281316 
L 131.363785 220.759227 
L 131.864229 220.759227 
L 131.864229 216.976093 
L 133.5443 216.976093 
L 133.5443 214.454003 
L 134.214491 214.454003 
L 134.214491 211.931914 
L 138.753416 211.931914 
L 138.803195 206.887735 
L 139.041811 206.887735 
L 139.041811 204.365646 
L 142.044777 204.365646 
L 142.044777 200.582511 
L 144.623624 200.582511 
L 144.623624 198.060422 
L 145.788396 198.060422 
L 145.788396 195.538333 
L 146.145489 195.538333 
L 146.145489 193.016243 
L 150.051085 193.016243 
L 150.051085 190.494154 
L 151.015013 190.494154 
L 151.015013 189.233109 
L 153.373499 189.233109 
L 153.373499 186.711019 
L 153.820412 186.711019 
L 153.820412 185.449975 
L 157.363842 185.449975 
L 157.363842 182.927885 
L 159.123917 182.927885 
L 159.123917 179.144751 
L 160.535299 179.144751 
L 160.535299 177.883706 
L 161.134855 177.883706 
L 161.134855 174.100572 
L 164.488129 174.100572 
L 164.488129 171.578483 
L 167.853163 171.578483 
L 167.853163 170.317438 
L 168.260276 170.317438 
L 168.260276 166.534304 
L 171.030109 166.534304 
L 171.030109 165.273259 
L 174.281312 165.273259 
L 174.281312 164.012214 
L 174.783181 164.012214 
L 174.783181 160.22908 
L 177.941147 160.22908 
L 177.941147 158.968036 
L 181.90885 158.968036 
L 181.968209 152.662812 
L 182.023198 152.662812 
L 182.023198 148.879678 
L 186.725304 148.879678 
L 186.725304 145.096544 
L 189.99925 145.096544 
L 189.99925 143.835499 
L 190.91689 143.835499 
L 190.91689 142.574454 
L 194.06909 142.574454 
L 194.06909 140.052365 
L 194.594713 140.052365 
L 194.594713 137.530275 
L 197.145472 137.530275 
L 197.145472 133.747141 
L 198.293209 133.747141 
L 198.293209 129.964007 
L 201.214145 129.964007 
L 201.214145 128.702962 
L 203.508957 128.702962 
L 203.508957 127.441917 
L 204.813115 127.441917 
L 204.813115 126.180873 
L 206.901349 126.180873 
L 206.901349 123.658783 
L 207.448399 123.658783 
L 207.448399 119.875649 
L 209.508667 119.875649 
L 209.508667 116.092515 
L 213.760593 116.092515 
L 213.760593 114.83147 
L 215.640779 114.83147 
L 215.665936 108.526247 
L 217.80941 108.526247 
L 217.80941 107.265202 
L 220.12295 107.265202 
L 220.12295 103.482068 
L 221.492949 103.482068 
L 221.492949 100.959978 
L 223.364207 100.959978 
L 223.364207 97.176844 
L 224.142657 97.176844 
L 224.142657 95.915799 
L 226.147087 95.915799 
L 226.147087 93.39371 
L 227.982954 93.39371 
L 227.982954 92.132665 
L 229.038496 92.132665 
L 229.038496 88.349531 
L 229.799673 88.349531 
L 229.799673 87.088486 
L 232.976491 87.088486 
L 232.976491 84.566397 
L 233.324042 84.566397 
L 233.324042 82.044307 
L 234.976697 82.044307 
L 234.976697 79.522218 
L 239.403381 79.522218 
L 239.403381 75.739084 
L 240.968343 75.739084 
L 240.968343 73.216994 
L 241.990006 73.216994 
L 241.990006 71.955949 
L 243.343921 71.955949 
L 243.343921 68.172815 
L 244.493586 68.172815 
L 244.493586 66.911771 
L 247.746534 66.911771 
L 247.746534 64.389681 
L 247.873661 64.389681 
L 247.873661 61.867592 
L 249.571272 61.867592 
L 249.571272 59.345502 
L 256.667172 59.345502 
L 256.667172 56.823413 
L 257.696527 56.823413 
L 257.696527 53.040279 
L 264.48478 53.040279 
L 264.48478 51.779234 
L 268.561222 51.779234 
L 268.561222 47.9961 
L 274.093289 47.9961 
L 274.093289 45.47401 
L 283.351287 45.47401 
L 283.351287 41.690876 
L 338.688 41.690876 
L 338.688 41.690876 
" style="fill:none;stroke:#f5deb3;stroke-linecap:square;stroke-width:4;"/>
   </g>
   <g id="line2d_2">
    <defs>
     <path d="M 0 7.778175 
L 7.778175 0 
L 0 -7.778175 
L -7.778175 0 
z
" id="m418ffe2b0b" style="stroke:#f5deb3;stroke-linejoin:miter;stroke-width:1.5;"/>
    </defs>
    <g>
     <use style="fill:#f5deb3;stroke:#f5deb3;stroke-linejoin:miter;stroke-width:1.5;" x="108.483824" xlink:href="#m418ffe2b0b" y="242.196987"/>
     <use style="fill:#f5deb3;stroke:#f5deb3;stroke-linejoin:miter;stroke-width:1.5;" x="159.123917" xlink:href="#m418ffe2b0b" y="182.927885"/>
     <use style="fill:#f5deb3;stroke:#f5deb3;stroke-linejoin:miter;stroke-width:1.5;" x="221.492949" xlink:href="#m418ffe2b0b" y="103.482068"/>
     <use style="fill:#f5deb3;stroke:#f5deb3;stroke-linejoin:miter;stroke-width:1.5;" x="283.351287" xlink:href="#m418ffe2b0b" y="45.47401"/>
     <use style="fill:#f5deb3;stroke:#f5deb3;stroke-linejoin:miter;stroke-width:1.5;" x="283.351287" xlink:href="#m418ffe2b0b" y="41.690876"/>
     <use style="fill:#f5deb3;stroke:#f5deb3;stroke-linejoin:miter;stroke-width:1.5;" x="338.688" xlink:href="#m418ffe2b0b" y="41.690876"/>
    </g>
   </g>
   <g id="line2d_3">
    <path style="fill:none;stroke:#f5deb3;stroke-linecap:square;stroke-width:4;"/>
    <g/>
   </g>
   <g id="line2d_4">
    <path d="M 338.688 41.690876 
L 369.60768 12.232871 
" style="fill:none;stroke:#f5deb3;stroke-linecap:square;stroke-width:4;"/>
    <g>
     <use style="fill:#f5deb3;stroke:#f5deb3;stroke-linejoin:miter;stroke-width:1.5;" x="338.688" xlink:href="#m418ffe2b0b" y="41.690876"/>
     <use style="fill:#f5deb3;stroke:#f5deb3;stroke-linejoin:miter;stroke-width:1.5;" x="369.60768" xlink:href="#m418ffe2b0b" y="12.232871"/>
    </g>
   </g>
   <g id="matplotlib.axis_1">
    <g id="xtick_1">
     <g id="line2d_5">
      <path clip-path="url(#p7d9d9a550c)" d="M 57.6 298.944 
L 57.6 3.456 
" style="fill:none;stroke:#b0b0b0;stroke-linecap:square;stroke-width:0.8;"/>
     </g>
     <g id="line2d_6">
      <defs>
       <path d="M 0 0 
L 0 3.5 
" id="maa1fbc2862" style="stroke:#000000;stroke-width:0.8;"/>
      </defs>
      <g>
       <use style="stroke:#000000;stroke-width:0.8;" x="57.6" xlink:href="#maa1fbc2862" y="298.944"/>
      </g>
     </g>
     <g id="text_1">
      <!-- 0 -->
      <defs>
       <path d="M 31.78125 66.40625 
Q 24.171875 66.40625 20.328125 58.90625 
Q 16.5 51.421875 16.5 36.375 
Q 16.5 21.390625 20.328125 13.890625 
Q 24.171875 6.390625 31.78125 6.390625 
Q 39.453125 6.390625 43.28125 13.890625 
Q 47.125 21.390625 47.125 36.375 
Q 47.125 51.421875 43.28125 58.90625 
Q 39.453125 66.40625 31.78125 66.40625 
z
M 31.78125 74.21875 
Q 44.046875 74.21875 50.515625 64.515625 
Q 56.984375 54.828125 56.984375 36.375 
Q 56.984375 17.96875 50.515625 8.265625 
Q 44.046875 -1.421875 31.78125 -1.421875 
Q 19.53125 -1.421875 13.0625 8.265625 
Q 6.59375 17.96875 6.59375 36.375 
Q 6.59375 54.828125 13.0625 64.515625 
Q 19.53125 74.21875 31.78125 74.21875 
z
" id="DejaVuSans-48"/>
      </defs>
      <g transform="translate(51.2375 321.140875)scale(0.2 -0.2)">
       <use xlink:href="#DejaVuSans-48"/>
      </g>
     </g>
    </g>
    <g id="xtick_2">
     <g id="line2d_7">
      <path clip-path="url(#p7d9d9a550c)" d="M 137.910857 298.944 
L 137.910857 3.456 
" style="fill:none;stroke:#b0b0b0;stroke-linecap:square;stroke-width:0.8;"/>
     </g>
     <g id="line2d_8">
      <g>
       <use style="stroke:#000000;stroke-width:0.8;" x="137.910857" xlink:href="#maa1fbc2862" y="298.944"/>
      </g>
     </g>
     <g id="text_2">
      <!-- 2 -->
      <defs>
       <path d="M 19.1875 8.296875 
L 53.609375 8.296875 
L 53.609375 0 
L 7.328125 0 
L 7.328125 8.296875 
Q 12.9375 14.109375 22.625 23.890625 
Q 32.328125 33.6875 34.8125 36.53125 
Q 39.546875 41.84375 41.421875 45.53125 
Q 43.3125 49.21875 43.3125 52.78125 
Q 43.3125 58.59375 39.234375 62.25 
Q 35.15625 65.921875 28.609375 65.921875 
Q 23.96875 65.921875 18.8125 64.3125 
Q 13.671875 62.703125 7.8125 59.421875 
L 7.8125 69.390625 
Q 13.765625 71.78125 18.9375 73 
Q 24.125 74.21875 28.421875 74.21875 
Q 39.75 74.21875 46.484375 68.546875 
Q 53.21875 62.890625 53.21875 53.421875 
Q 53.21875 48.921875 51.53125 44.890625 
Q 49.859375 40.875 45.40625 35.40625 
Q 44.1875 33.984375 37.640625 27.21875 
Q 31.109375 20.453125 19.1875 8.296875 
z
" id="DejaVuSans-50"/>
      </defs>
      <g transform="translate(131.548357 321.140875)scale(0.2 -0.2)">
       <use xlink:href="#DejaVuSans-50"/>
      </g>
     </g>
    </g>
    <g id="xtick_3">
     <g id="line2d_9">
      <path clip-path="url(#p7d9d9a550c)" d="M 218.221714 298.944 
L 218.221714 3.456 
" style="fill:none;stroke:#b0b0b0;stroke-linecap:square;stroke-width:0.8;"/>
     </g>
     <g id="line2d_10">
      <g>
       <use style="stroke:#000000;stroke-width:0.8;" x="218.221714" xlink:href="#maa1fbc2862" y="298.944"/>
      </g>
     </g>
     <g id="text_3">
      <!-- 4 -->
      <defs>
       <path d="M 37.796875 64.3125 
L 12.890625 25.390625 
L 37.796875 25.390625 
z
M 35.203125 72.90625 
L 47.609375 72.90625 
L 47.609375 25.390625 
L 58.015625 25.390625 
L 58.015625 17.1875 
L 47.609375 17.1875 
L 47.609375 0 
L 37.796875 0 
L 37.796875 17.1875 
L 4.890625 17.1875 
L 4.890625 26.703125 
z
" id="DejaVuSans-52"/>
      </defs>
      <g transform="translate(211.859214 321.140875)scale(0.2 -0.2)">
       <use xlink:href="#DejaVuSans-52"/>
      </g>
     </g>
    </g>
    <g id="xtick_4">
     <g id="line2d_11">
      <path clip-path="url(#p7d9d9a550c)" d="M 298.532571 298.944 
L 298.532571 3.456 
" style="fill:none;stroke:#b0b0b0;stroke-linecap:square;stroke-width:0.8;"/>
     </g>
     <g id="line2d_12">
      <g>
       <use style="stroke:#000000;stroke-width:0.8;" x="298.532571" xlink:href="#maa1fbc2862" y="298.944"/>
      </g>
     </g>
     <g id="text_4">
      <!-- 6 -->
      <defs>
       <path d="M 33.015625 40.375 
Q 26.375 40.375 22.484375 35.828125 
Q 18.609375 31.296875 18.609375 23.390625 
Q 18.609375 15.53125 22.484375 10.953125 
Q 26.375 6.390625 33.015625 6.390625 
Q 39.65625 6.390625 43.53125 10.953125 
Q 47.40625 15.53125 47.40625 23.390625 
Q 47.40625 31.296875 43.53125 35.828125 
Q 39.65625 40.375 33.015625 40.375 
z
M 52.59375 71.296875 
L 52.59375 62.3125 
Q 48.875 64.0625 45.09375 64.984375 
Q 41.3125 65.921875 37.59375 65.921875 
Q 27.828125 65.921875 22.671875 59.328125 
Q 17.53125 52.734375 16.796875 39.40625 
Q 19.671875 43.65625 24.015625 45.921875 
Q 28.375 48.1875 33.59375 48.1875 
Q 44.578125 48.1875 50.953125 41.515625 
Q 57.328125 34.859375 57.328125 23.390625 
Q 57.328125 12.15625 50.6875 5.359375 
Q 44.046875 -1.421875 33.015625 -1.421875 
Q 20.359375 -1.421875 13.671875 8.265625 
Q 6.984375 17.96875 6.984375 36.375 
Q 6.984375 53.65625 15.1875 63.9375 
Q 23.390625 74.21875 37.203125 74.21875 
Q 40.921875 74.21875 44.703125 73.484375 
Q 48.484375 72.75 52.59375 71.296875 
z
" id="DejaVuSans-54"/>
      </defs>
      <g transform="translate(292.170071 321.140875)scale(0.2 -0.2)">
       <use xlink:href="#DejaVuSans-54"/>
      </g>
     </g>
    </g>
    <g id="xtick_5">
     <g id="line2d_13">
      <path clip-path="url(#p7d9d9a550c)" d="M 97.755429 298.944 
L 97.755429 3.456 
" style="fill:none;stroke:#b0b0b0;stroke-linecap:square;stroke-width:0.8;"/>
     </g>
     <g id="line2d_14">
      <defs>
       <path d="M 0 0 
L 0 2 
" id="m7c60229048" style="stroke:#000000;stroke-width:0.6;"/>
      </defs>
      <g>
       <use style="stroke:#000000;stroke-width:0.6;" x="97.755429" xlink:href="#m7c60229048" y="298.944"/>
      </g>
     </g>
    </g>
    <g id="xtick_6">
     <g id="line2d_15">
      <path clip-path="url(#p7d9d9a550c)" d="M 178.066286 298.944 
L 178.066286 3.456 
" style="fill:none;stroke:#b0b0b0;stroke-linecap:square;stroke-width:0.8;"/>
     </g>
     <g id="line2d_16">
      <g>
       <use style="stroke:#000000;stroke-width:0.6;" x="178.066286" xlink:href="#m7c60229048" y="298.944"/>
      </g>
     </g>
    </g>
    <g id="xtick_7">
     <g id="line2d_17">
      <path clip-path="url(#p7d9d9a550c)" d="M 258.377143 298.944 
L 258.377143 3.456 
" style="fill:none;stroke:#b0b0b0;stroke-linecap:square;stroke-width:0.8;"/>
     </g>
     <g id="line2d_18">
      <g>
       <use style="stroke:#000000;stroke-width:0.6;" x="258.377143" xlink:href="#m7c60229048" y="298.944"/>
      </g>
     </g>
    </g>
    <g id="xtick_8">
     <g id="line2d_19">
      <path clip-path="url(#p7d9d9a550c)" d="M 338.688 298.944 
L 338.688 3.456 
" style="fill:none;stroke:#b0b0b0;stroke-linecap:square;stroke-width:0.8;"/>
     </g>
     <g id="line2d_20">
      <g>
       <use style="stroke:#000000;stroke-width:0.6;" x="338.688" xlink:href="#m7c60229048" y="298.944"/>
      </g>
     </g>
    </g>
    <g id="text_5">
     <!-- log10(# f-evals / dimension) -->
     <defs>
      <path d="M 9.421875 75.984375 
L 18.40625 75.984375 
L 18.40625 0 
L 9.421875 0 
z
" id="DejaVuSans-108"/>
      <path d="M 30.609375 48.390625 
Q 23.390625 48.390625 19.1875 42.75 
Q 14.984375 37.109375 14.984375 27.296875 
Q 14.984375 17.484375 19.15625 11.84375 
Q 23.34375 6.203125 30.609375 6.203125 
Q 37.796875 6.203125 41.984375 11.859375 
Q 46.1875 17.53125 46.1875 27.296875 
Q 46.1875 37.015625 41.984375 42.703125 
Q 37.796875 48.390625 30.609375 48.390625 
z
M 30.609375 56 
Q 42.328125 56 49.015625 48.375 
Q 55.71875 40.765625 55.71875 27.296875 
Q 55.71875 13.875 49.015625 6.21875 
Q 42.328125 -1.421875 30.609375 -1.421875 
Q 18.84375 -1.421875 12.171875 6.21875 
Q 5.515625 13.875 5.515625 27.296875 
Q 5.515625 40.765625 12.171875 48.375 
Q 18.84375 56 30.609375 56 
z
" id="DejaVuSans-111"/>
      <path d="M 45.40625 27.984375 
Q 45.40625 37.75 41.375 43.109375 
Q 37.359375 48.484375 30.078125 48.484375 
Q 22.859375 48.484375 18.828125 43.109375 
Q 14.796875 37.75 14.796875 27.984375 
Q 14.796875 18.265625 18.828125 12.890625 
Q 22.859375 7.515625 30.078125 7.515625 
Q 37.359375 7.515625 41.375 12.890625 
Q 45.40625 18.265625 45.40625 27.984375 
z
M 54.390625 6.78125 
Q 54.390625 -7.171875 48.1875 -13.984375 
Q 42 -20.796875 29.203125 -20.796875 
Q 24.46875 -20.796875 20.265625 -20.09375 
Q 16.0625 -19.390625 12.109375 -17.921875 
L 12.109375 -9.1875 
Q 16.0625 -11.328125 19.921875 -12.34375 
Q 23.78125 -13.375 27.78125 -13.375 
Q 36.625 -13.375 41.015625 -8.765625 
Q 45.40625 -4.15625 45.40625 5.171875 
L 45.40625 9.625 
Q 42.625 4.78125 38.28125 2.390625 
Q 33.9375 0 27.875 0 
Q 17.828125 0 11.671875 7.65625 
Q 5.515625 15.328125 5.515625 27.984375 
Q 5.515625 40.671875 11.671875 48.328125 
Q 17.828125 56 27.875 56 
Q 33.9375 56 38.28125 53.609375 
Q 42.625 51.21875 45.40625 46.390625 
L 45.40625 54.6875 
L 54.390625 54.6875 
z
" id="DejaVuSans-103"/>
      <path d="M 12.40625 8.296875 
L 28.515625 8.296875 
L 28.515625 63.921875 
L 10.984375 60.40625 
L 10.984375 69.390625 
L 28.421875 72.90625 
L 38.28125 72.90625 
L 38.28125 8.296875 
L 54.390625 8.296875 
L 54.390625 0 
L 12.40625 0 
z
" id="DejaVuSans-49"/>
      <path d="M 31 75.875 
Q 24.46875 64.65625 21.28125 53.65625 
Q 18.109375 42.671875 18.109375 31.390625 
Q 18.109375 20.125 21.3125 9.0625 
Q 24.515625 -2 31 -13.1875 
L 23.1875 -13.1875 
Q 15.875 -1.703125 12.234375 9.375 
Q 8.59375 20.453125 8.59375 31.390625 
Q 8.59375 42.28125 12.203125 53.3125 
Q 15.828125 64.359375 23.1875 75.875 
z
" id="DejaVuSans-40"/>
      <path d="M 51.125 44 
L 36.921875 44 
L 32.8125 27.6875 
L 47.125 27.6875 
z
M 43.796875 71.78125 
L 38.71875 51.515625 
L 52.984375 51.515625 
L 58.109375 71.78125 
L 65.921875 71.78125 
L 60.890625 51.515625 
L 76.125 51.515625 
L 76.125 44 
L 58.984375 44 
L 54.984375 27.6875 
L 70.515625 27.6875 
L 70.515625 20.21875 
L 53.078125 20.21875 
L 48 0 
L 40.1875 0 
L 45.21875 20.21875 
L 30.90625 20.21875 
L 25.875 0 
L 18.015625 0 
L 23.09375 20.21875 
L 7.71875 20.21875 
L 7.71875 27.6875 
L 24.90625 27.6875 
L 29 44 
L 13.28125 44 
L 13.28125 51.515625 
L 30.90625 51.515625 
L 35.890625 71.78125 
z
" id="DejaVuSans-35"/>
      <path id="DejaVuSans-32"/>
      <path d="M 37.109375 75.984375 
L 37.109375 68.5 
L 28.515625 68.5 
Q 23.6875 68.5 21.796875 66.546875 
Q 19.921875 64.59375 19.921875 59.515625 
L 19.921875 54.6875 
L 34.71875 54.6875 
L 34.71875 47.703125 
L 19.921875 47.703125 
L 19.921875 0 
L 10.890625 0 
L 10.890625 47.703125 
L 2.296875 47.703125 
L 2.296875 54.6875 
L 10.890625 54.6875 
L 10.890625 58.5 
Q 10.890625 67.625 15.140625 71.796875 
Q 19.390625 75.984375 28.609375 75.984375 
z
" id="DejaVuSans-102"/>
      <path d="M 4.890625 31.390625 
L 31.203125 31.390625 
L 31.203125 23.390625 
L 4.890625 23.390625 
z
" id="DejaVuSans-45"/>
      <path d="M 56.203125 29.59375 
L 56.203125 25.203125 
L 14.890625 25.203125 
Q 15.484375 15.921875 20.484375 11.0625 
Q 25.484375 6.203125 34.421875 6.203125 
Q 39.59375 6.203125 44.453125 7.46875 
Q 49.3125 8.734375 54.109375 11.28125 
L 54.109375 2.78125 
Q 49.265625 0.734375 44.1875 -0.34375 
Q 39.109375 -1.421875 33.890625 -1.421875 
Q 20.796875 -1.421875 13.15625 6.1875 
Q 5.515625 13.8125 5.515625 26.8125 
Q 5.515625 40.234375 12.765625 48.109375 
Q 20.015625 56 32.328125 56 
Q 43.359375 56 49.78125 48.890625 
Q 56.203125 41.796875 56.203125 29.59375 
z
M 47.21875 32.234375 
Q 47.125 39.59375 43.09375 43.984375 
Q 39.0625 48.390625 32.421875 48.390625 
Q 24.90625 48.390625 20.390625 44.140625 
Q 15.875 39.890625 15.1875 32.171875 
z
" id="DejaVuSans-101"/>
      <path d="M 2.984375 54.6875 
L 12.5 54.6875 
L 29.59375 8.796875 
L 46.6875 54.6875 
L 56.203125 54.6875 
L 35.6875 0 
L 23.484375 0 
z
" id="DejaVuSans-118"/>
      <path d="M 34.28125 27.484375 
Q 23.390625 27.484375 19.1875 25 
Q 14.984375 22.515625 14.984375 16.5 
Q 14.984375 11.71875 18.140625 8.90625 
Q 21.296875 6.109375 26.703125 6.109375 
Q 34.1875 6.109375 38.703125 11.40625 
Q 43.21875 16.703125 43.21875 25.484375 
L 43.21875 27.484375 
z
M 52.203125 31.203125 
L 52.203125 0 
L 43.21875 0 
L 43.21875 8.296875 
Q 40.140625 3.328125 35.546875 0.953125 
Q 30.953125 -1.421875 24.3125 -1.421875 
Q 15.921875 -1.421875 10.953125 3.296875 
Q 6 8.015625 6 15.921875 
Q 6 25.140625 12.171875 29.828125 
Q 18.359375 34.515625 30.609375 34.515625 
L 43.21875 34.515625 
L 43.21875 35.40625 
Q 43.21875 41.609375 39.140625 45 
Q 35.0625 48.390625 27.6875 48.390625 
Q 23 48.390625 18.546875 47.265625 
Q 14.109375 46.140625 10.015625 43.890625 
L 10.015625 52.203125 
Q 14.9375 54.109375 19.578125 55.046875 
Q 24.21875 56 28.609375 56 
Q 40.484375 56 46.34375 49.84375 
Q 52.203125 43.703125 52.203125 31.203125 
z
" id="DejaVuSans-97"/>
      <path d="M 44.28125 53.078125 
L 44.28125 44.578125 
Q 40.484375 46.53125 36.375 47.5 
Q 32.28125 48.484375 27.875 48.484375 
Q 21.1875 48.484375 17.84375 46.4375 
Q 14.5 44.390625 14.5 40.28125 
Q 14.5 37.15625 16.890625 35.375 
Q 19.28125 33.59375 26.515625 31.984375 
L 29.59375 31.296875 
Q 39.15625 29.25 43.1875 25.515625 
Q 47.21875 21.78125 47.21875 15.09375 
Q 47.21875 7.46875 41.1875 3.015625 
Q 35.15625 -1.421875 24.609375 -1.421875 
Q 20.21875 -1.421875 15.453125 -0.5625 
Q 10.6875 0.296875 5.421875 2 
L 5.421875 11.28125 
Q 10.40625 8.6875 15.234375 7.390625 
Q 20.0625 6.109375 24.8125 6.109375 
Q 31.15625 6.109375 34.5625 8.28125 
Q 37.984375 10.453125 37.984375 14.40625 
Q 37.984375 18.0625 35.515625 20.015625 
Q 33.0625 21.96875 24.703125 23.78125 
L 21.578125 24.515625 
Q 13.234375 26.265625 9.515625 29.90625 
Q 5.8125 33.546875 5.8125 39.890625 
Q 5.8125 47.609375 11.28125 51.796875 
Q 16.75 56 26.8125 56 
Q 31.78125 56 36.171875 55.265625 
Q 40.578125 54.546875 44.28125 53.078125 
z
" id="DejaVuSans-115"/>
      <path d="M 25.390625 72.90625 
L 33.6875 72.90625 
L 8.296875 -9.28125 
L 0 -9.28125 
z
" id="DejaVuSans-47"/>
      <path d="M 45.40625 46.390625 
L 45.40625 75.984375 
L 54.390625 75.984375 
L 54.390625 0 
L 45.40625 0 
L 45.40625 8.203125 
Q 42.578125 3.328125 38.25 0.953125 
Q 33.9375 -1.421875 27.875 -1.421875 
Q 17.96875 -1.421875 11.734375 6.484375 
Q 5.515625 14.40625 5.515625 27.296875 
Q 5.515625 40.1875 11.734375 48.09375 
Q 17.96875 56 27.875 56 
Q 33.9375 56 38.25 53.625 
Q 42.578125 51.265625 45.40625 46.390625 
z
M 14.796875 27.296875 
Q 14.796875 17.390625 18.875 11.75 
Q 22.953125 6.109375 30.078125 6.109375 
Q 37.203125 6.109375 41.296875 11.75 
Q 45.40625 17.390625 45.40625 27.296875 
Q 45.40625 37.203125 41.296875 42.84375 
Q 37.203125 48.484375 30.078125 48.484375 
Q 22.953125 48.484375 18.875 42.84375 
Q 14.796875 37.203125 14.796875 27.296875 
z
" id="DejaVuSans-100"/>
      <path d="M 9.421875 54.6875 
L 18.40625 54.6875 
L 18.40625 0 
L 9.421875 0 
z
M 9.421875 75.984375 
L 18.40625 75.984375 
L 18.40625 64.59375 
L 9.421875 64.59375 
z
" id="DejaVuSans-105"/>
      <path d="M 52 44.1875 
Q 55.375 50.25 60.0625 53.125 
Q 64.75 56 71.09375 56 
Q 79.640625 56 84.28125 50.015625 
Q 88.921875 44.046875 88.921875 33.015625 
L 88.921875 0 
L 79.890625 0 
L 79.890625 32.71875 
Q 79.890625 40.578125 77.09375 44.375 
Q 74.3125 48.1875 68.609375 48.1875 
Q 61.625 48.1875 57.5625 43.546875 
Q 53.515625 38.921875 53.515625 30.90625 
L 53.515625 0 
L 44.484375 0 
L 44.484375 32.71875 
Q 44.484375 40.625 41.703125 44.40625 
Q 38.921875 48.1875 33.109375 48.1875 
Q 26.21875 48.1875 22.15625 43.53125 
Q 18.109375 38.875 18.109375 30.90625 
L 18.109375 0 
L 9.078125 0 
L 9.078125 54.6875 
L 18.109375 54.6875 
L 18.109375 46.1875 
Q 21.1875 51.21875 25.484375 53.609375 
Q 29.78125 56 35.6875 56 
Q 41.65625 56 45.828125 52.96875 
Q 50 49.953125 52 44.1875 
z
" id="DejaVuSans-109"/>
      <path d="M 54.890625 33.015625 
L 54.890625 0 
L 45.90625 0 
L 45.90625 32.71875 
Q 45.90625 40.484375 42.875 44.328125 
Q 39.84375 48.1875 33.796875 48.1875 
Q 26.515625 48.1875 22.3125 43.546875 
Q 18.109375 38.921875 18.109375 30.90625 
L 18.109375 0 
L 9.078125 0 
L 9.078125 54.6875 
L 18.109375 54.6875 
L 18.109375 46.1875 
Q 21.34375 51.125 25.703125 53.5625 
Q 30.078125 56 35.796875 56 
Q 45.21875 56 50.046875 50.171875 
Q 54.890625 44.34375 54.890625 33.015625 
z
" id="DejaVuSans-110"/>
      <path d="M 8.015625 75.875 
L 15.828125 75.875 
Q 23.140625 64.359375 26.78125 53.3125 
Q 30.421875 42.28125 30.421875 31.390625 
Q 30.421875 20.453125 26.78125 9.375 
Q 23.140625 -1.703125 15.828125 -13.1875 
L 8.015625 -13.1875 
Q 14.5 -2 17.703125 9.0625 
Q 20.90625 20.125 20.90625 31.390625 
Q 20.90625 42.671875 17.703125 53.65625 
Q 14.5 64.65625 8.015625 75.875 
z
" id="DejaVuSans-41"/>
     </defs>
     <g transform="translate(77.303219 342.217594)scale(0.17 -0.17)">
      <use xlink:href="#DejaVuSans-108"/>
      <use x="27.783203" xlink:href="#DejaVuSans-111"/>
      <use x="88.964844" xlink:href="#DejaVuSans-103"/>
      <use x="152.441406" xlink:href="#DejaVuSans-49"/>
      <use x="216.064453" xlink:href="#DejaVuSans-48"/>
      <use x="279.6875" xlink:href="#DejaVuSans-40"/>
      <use x="318.701172" xlink:href="#DejaVuSans-35"/>
      <use x="402.490234" xlink:href="#DejaVuSans-32"/>
      <use x="434.277344" xlink:href="#DejaVuSans-102"/>
      <use x="469.404297" xlink:href="#DejaVuSans-45"/>
      <use x="505.488281" xlink:href="#DejaVuSans-101"/>
      <use x="567.011719" xlink:href="#DejaVuSans-118"/>
      <use x="626.191406" xlink:href="#DejaVuSans-97"/>
      <use x="687.470703" xlink:href="#DejaVuSans-108"/>
      <use x="715.253906" xlink:href="#DejaVuSans-115"/>
      <use x="767.353516" xlink:href="#DejaVuSans-32"/>
      <use x="799.140625" xlink:href="#DejaVuSans-47"/>
      <use x="832.832031" xlink:href="#DejaVuSans-32"/>
      <use x="864.619141" xlink:href="#DejaVuSans-100"/>
      <use x="928.095703" xlink:href="#DejaVuSans-105"/>
      <use x="955.878906" xlink:href="#DejaVuSans-109"/>
      <use x="1053.291016" xlink:href="#DejaVuSans-101"/>
      <use x="1114.814453" xlink:href="#DejaVuSans-110"/>
      <use x="1178.193359" xlink:href="#DejaVuSans-115"/>
      <use x="1230.292969" xlink:href="#DejaVuSans-105"/>
      <use x="1258.076172" xlink:href="#DejaVuSans-111"/>
      <use x="1319.257812" xlink:href="#DejaVuSans-110"/>
      <use x="1382.636719" xlink:href="#DejaVuSans-41"/>
     </g>
    </g>
   </g>
   <g id="matplotlib.axis_2">
    <g id="ytick_1">
     <g id="line2d_21">
      <path clip-path="url(#p7d9d9a550c)" d="M 57.6 298.944 
L 338.688 298.944 
" style="fill:none;stroke:#b0b0b0;stroke-linecap:square;stroke-width:0.8;"/>
     </g>
     <g id="line2d_22">
      <defs>
       <path d="M 0 0 
L -3.5 0 
" id="maf68630d06" style="stroke:#000000;stroke-width:0.8;"/>
      </defs>
      <g>
       <use style="stroke:#000000;stroke-width:0.8;" x="57.6" xlink:href="#maf68630d06" y="298.944"/>
      </g>
     </g>
     <g id="text_6">
      <!-- 0.0 -->
      <defs>
       <path d="M 10.6875 12.40625 
L 21 12.40625 
L 21 0 
L 10.6875 0 
z
" id="DejaVuSans-46"/>
      </defs>
      <g transform="translate(25.155 305.02275)scale(0.16 -0.16)">
       <use xlink:href="#DejaVuSans-48"/>
       <use x="63.623047" xlink:href="#DejaVuSans-46"/>
       <use x="95.410156" xlink:href="#DejaVuSans-48"/>
      </g>
     </g>
    </g>
    <g id="ytick_2">
     <g id="line2d_23">
      <path clip-path="url(#p7d9d9a550c)" d="M 57.6 240.431525 
L 338.688 240.431525 
" style="fill:none;stroke:#b0b0b0;stroke-linecap:square;stroke-width:0.8;"/>
     </g>
     <g id="line2d_24">
      <g>
       <use style="stroke:#000000;stroke-width:0.8;" x="57.6" xlink:href="#maf68630d06" y="240.431525"/>
      </g>
     </g>
     <g id="text_7">
      <!-- 0.2 -->
      <g transform="translate(25.155 246.510275)scale(0.16 -0.16)">
       <use xlink:href="#DejaVuSans-48"/>
       <use x="63.623047" xlink:href="#DejaVuSans-46"/>
       <use x="95.410156" xlink:href="#DejaVuSans-50"/>
      </g>
     </g>
    </g>
    <g id="ytick_3">
     <g id="line2d_25">
      <path clip-path="url(#p7d9d9a550c)" d="M 57.6 181.91905 
L 338.688 181.91905 
" style="fill:none;stroke:#b0b0b0;stroke-linecap:square;stroke-width:0.8;"/>
     </g>
     <g id="line2d_26">
      <g>
       <use style="stroke:#000000;stroke-width:0.8;" x="57.6" xlink:href="#maf68630d06" y="181.91905"/>
      </g>
     </g>
     <g id="text_8">
      <!-- 0.4 -->
      <g transform="translate(25.155 187.9978)scale(0.16 -0.16)">
       <use xlink:href="#DejaVuSans-48"/>
       <use x="63.623047" xlink:href="#DejaVuSans-46"/>
       <use x="95.410156" xlink:href="#DejaVuSans-52"/>
      </g>
     </g>
    </g>
    <g id="ytick_4">
     <g id="line2d_27">
      <path clip-path="url(#p7d9d9a550c)" d="M 57.6 123.406574 
L 338.688 123.406574 
" style="fill:none;stroke:#b0b0b0;stroke-linecap:square;stroke-width:0.8;"/>
     </g>
     <g id="line2d_28">
      <g>
       <use style="stroke:#000000;stroke-width:0.8;" x="57.6" xlink:href="#maf68630d06" y="123.406574"/>
      </g>
     </g>
     <g id="text_9">
      <!-- 0.6 -->
      <g transform="translate(25.155 129.485324)scale(0.16 -0.16)">
       <use xlink:href="#DejaVuSans-48"/>
       <use x="63.623047" xlink:href="#DejaVuSans-46"/>
       <use x="95.410156" xlink:href="#DejaVuSans-54"/>
      </g>
     </g>
    </g>
    <g id="ytick_5">
     <g id="line2d_29">
      <path clip-path="url(#p7d9d9a550c)" d="M 57.6 64.894099 
L 338.688 64.894099 
" style="fill:none;stroke:#b0b0b0;stroke-linecap:square;stroke-width:0.8;"/>
     </g>
     <g id="line2d_30">
      <g>
       <use style="stroke:#000000;stroke-width:0.8;" x="57.6" xlink:href="#maf68630d06" y="64.894099"/>
      </g>
     </g>
     <g id="text_10">
      <!-- 0.8 -->
      <defs>
       <path d="M 31.78125 34.625 
Q 24.75 34.625 20.71875 30.859375 
Q 16.703125 27.09375 16.703125 20.515625 
Q 16.703125 13.921875 20.71875 10.15625 
Q 24.75 6.390625 31.78125 6.390625 
Q 38.8125 6.390625 42.859375 10.171875 
Q 46.921875 13.96875 46.921875 20.515625 
Q 46.921875 27.09375 42.890625 30.859375 
Q 38.875 34.625 31.78125 34.625 
z
M 21.921875 38.8125 
Q 15.578125 40.375 12.03125 44.71875 
Q 8.5 49.078125 8.5 55.328125 
Q 8.5 64.0625 14.71875 69.140625 
Q 20.953125 74.21875 31.78125 74.21875 
Q 42.671875 74.21875 48.875 69.140625 
Q 55.078125 64.0625 55.078125 55.328125 
Q 55.078125 49.078125 51.53125 44.71875 
Q 48 40.375 41.703125 38.8125 
Q 48.828125 37.15625 52.796875 32.3125 
Q 56.78125 27.484375 56.78125 20.515625 
Q 56.78125 9.90625 50.3125 4.234375 
Q 43.84375 -1.421875 31.78125 -1.421875 
Q 19.734375 -1.421875 13.25 4.234375 
Q 6.78125 9.90625 6.78125 20.515625 
Q 6.78125 27.484375 10.78125 32.3125 
Q 14.796875 37.15625 21.921875 38.8125 
z
M 18.3125 54.390625 
Q 18.3125 48.734375 21.84375 45.5625 
Q 25.390625 42.390625 31.78125 42.390625 
Q 38.140625 42.390625 41.71875 45.5625 
Q 45.3125 48.734375 45.3125 54.390625 
Q 45.3125 60.0625 41.71875 63.234375 
Q 38.140625 66.40625 31.78125 66.40625 
Q 25.390625 66.40625 21.84375 63.234375 
Q 18.3125 60.0625 18.3125 54.390625 
z
" id="DejaVuSans-56"/>
      </defs>
      <g transform="translate(25.155 70.972849)scale(0.16 -0.16)">
       <use xlink:href="#DejaVuSans-48"/>
       <use x="63.623047" xlink:href="#DejaVuSans-46"/>
       <use x="95.410156" xlink:href="#DejaVuSans-56"/>
      </g>
     </g>
    </g>
    <g id="ytick_6">
     <g id="line2d_31">
      <path clip-path="url(#p7d9d9a550c)" d="M 57.6 6.381624 
L 338.688 6.381624 
" style="fill:none;stroke:#b0b0b0;stroke-linecap:square;stroke-width:0.8;"/>
     </g>
     <g id="line2d_32">
      <g>
       <use style="stroke:#000000;stroke-width:0.8;" x="57.6" xlink:href="#maf68630d06" y="6.381624"/>
      </g>
     </g>
     <g id="text_11">
      <!-- 1.0 -->
      <g transform="translate(25.155 12.460374)scale(0.16 -0.16)">
       <use xlink:href="#DejaVuSans-49"/>
       <use x="63.623047" xlink:href="#DejaVuSans-46"/>
       <use x="95.410156" xlink:href="#DejaVuSans-48"/>
      </g>
     </g>
    </g>
    <g id="text_12">
     <!-- Fraction of function,target pairs -->
     <defs>
      <path d="M 9.8125 72.90625 
L 51.703125 72.90625 
L 51.703125 64.59375 
L 19.671875 64.59375 
L 19.671875 43.109375 
L 48.578125 43.109375 
L 48.578125 34.8125 
L 19.671875 34.8125 
L 19.671875 0 
L 9.8125 0 
z
" id="DejaVuSans-70"/>
      <path d="M 41.109375 46.296875 
Q 39.59375 47.171875 37.8125 47.578125 
Q 36.03125 48 33.890625 48 
Q 26.265625 48 22.1875 43.046875 
Q 18.109375 38.09375 18.109375 28.8125 
L 18.109375 0 
L 9.078125 0 
L 9.078125 54.6875 
L 18.109375 54.6875 
L 18.109375 46.1875 
Q 20.953125 51.171875 25.484375 53.578125 
Q 30.03125 56 36.53125 56 
Q 37.453125 56 38.578125 55.875 
Q 39.703125 55.765625 41.0625 55.515625 
z
" id="DejaVuSans-114"/>
      <path d="M 48.78125 52.59375 
L 48.78125 44.1875 
Q 44.96875 46.296875 41.140625 47.34375 
Q 37.3125 48.390625 33.40625 48.390625 
Q 24.65625 48.390625 19.8125 42.84375 
Q 14.984375 37.3125 14.984375 27.296875 
Q 14.984375 17.28125 19.8125 11.734375 
Q 24.65625 6.203125 33.40625 6.203125 
Q 37.3125 6.203125 41.140625 7.25 
Q 44.96875 8.296875 48.78125 10.40625 
L 48.78125 2.09375 
Q 45.015625 0.34375 40.984375 -0.53125 
Q 36.96875 -1.421875 32.421875 -1.421875 
Q 20.0625 -1.421875 12.78125 6.34375 
Q 5.515625 14.109375 5.515625 27.296875 
Q 5.515625 40.671875 12.859375 48.328125 
Q 20.21875 56 33.015625 56 
Q 37.15625 56 41.109375 55.140625 
Q 45.0625 54.296875 48.78125 52.59375 
z
" id="DejaVuSans-99"/>
      <path d="M 18.3125 70.21875 
L 18.3125 54.6875 
L 36.8125 54.6875 
L 36.8125 47.703125 
L 18.3125 47.703125 
L 18.3125 18.015625 
Q 18.3125 11.328125 20.140625 9.421875 
Q 21.96875 7.515625 27.59375 7.515625 
L 36.8125 7.515625 
L 36.8125 0 
L 27.59375 0 
Q 17.1875 0 13.234375 3.875 
Q 9.28125 7.765625 9.28125 18.015625 
L 9.28125 47.703125 
L 2.6875 47.703125 
L 2.6875 54.6875 
L 9.28125 54.6875 
L 9.28125 70.21875 
z
" id="DejaVuSans-116"/>
      <path d="M 8.5 21.578125 
L 8.5 54.6875 
L 17.484375 54.6875 
L 17.484375 21.921875 
Q 17.484375 14.15625 20.5 10.265625 
Q 23.53125 6.390625 29.59375 6.390625 
Q 36.859375 6.390625 41.078125 11.03125 
Q 45.3125 15.671875 45.3125 23.6875 
L 45.3125 54.6875 
L 54.296875 54.6875 
L 54.296875 0 
L 45.3125 0 
L 45.3125 8.40625 
Q 42.046875 3.421875 37.71875 1 
Q 33.40625 -1.421875 27.6875 -1.421875 
Q 18.265625 -1.421875 13.375 4.4375 
Q 8.5 10.296875 8.5 21.578125 
z
M 31.109375 56 
z
" id="DejaVuSans-117"/>
      <path d="M 11.71875 12.40625 
L 22.015625 12.40625 
L 22.015625 4 
L 14.015625 -11.625 
L 7.71875 -11.625 
L 11.71875 4 
z
" id="DejaVuSans-44"/>
      <path d="M 18.109375 8.203125 
L 18.109375 -20.796875 
L 9.078125 -20.796875 
L 9.078125 54.6875 
L 18.109375 54.6875 
L 18.109375 46.390625 
Q 20.953125 51.265625 25.265625 53.625 
Q 29.59375 56 35.59375 56 
Q 45.5625 56 51.78125 48.09375 
Q 58.015625 40.1875 58.015625 27.296875 
Q 58.015625 14.40625 51.78125 6.484375 
Q 45.5625 -1.421875 35.59375 -1.421875 
Q 29.59375 -1.421875 25.265625 0.953125 
Q 20.953125 3.328125 18.109375 8.203125 
z
M 48.6875 27.296875 
Q 48.6875 37.203125 44.609375 42.84375 
Q 40.53125 48.484375 33.40625 48.484375 
Q 26.265625 48.484375 22.1875 42.84375 
Q 18.109375 37.203125 18.109375 27.296875 
Q 18.109375 17.390625 22.1875 11.75 
Q 26.265625 6.109375 33.40625 6.109375 
Q 40.53125 6.109375 44.609375 11.75 
Q 48.6875 17.390625 48.6875 27.296875 
z
" id="DejaVuSans-112"/>
     </defs>
     <g transform="translate(17.619531 286.339375)rotate(-90)scale(0.17 -0.17)">
      <use xlink:href="#DejaVuSans-70"/>
      <use x="57.410156" xlink:href="#DejaVuSans-114"/>
      <use x="98.523438" xlink:href="#DejaVuSans-97"/>
      <use x="159.802734" xlink:href="#DejaVuSans-99"/>
      <use x="214.783203" xlink:href="#DejaVuSans-116"/>
      <use x="253.992188" xlink:href="#DejaVuSans-105"/>
      <use x="281.775391" xlink:href="#DejaVuSans-111"/>
      <use x="342.957031" xlink:href="#DejaVuSans-110"/>
      <use x="406.335938" xlink:href="#DejaVuSans-32"/>
      <use x="438.123047" xlink:href="#DejaVuSans-111"/>
      <use x="499.304688" xlink:href="#DejaVuSans-102"/>
      <use x="534.509766" xlink:href="#DejaVuSans-32"/>
      <use x="566.296875" xlink:href="#DejaVuSans-102"/>
      <use x="601.501953" xlink:href="#DejaVuSans-117"/>
      <use x="664.880859" xlink:href="#DejaVuSans-110"/>
      <use x="728.259766" xlink:href="#DejaVuSans-99"/>
      <use x="783.240234" xlink:href="#DejaVuSans-116"/>
      <use x="822.449219" xlink:href="#DejaVuSans-105"/>
      <use x="850.232422" xlink:href="#DejaVuSans-111"/>
      <use x="911.414062" xlink:href="#DejaVuSans-110"/>
      <use x="974.792969" xlink:href="#DejaVuSans-44"/>
      <use x="1006.580078" xlink:href="#DejaVuSans-116"/>
      <use x="1045.789062" xlink:href="#DejaVuSans-97"/>
      <use x="1107.068359" xlink:href="#DejaVuSans-114"/>
      <use x="1148.166016" xlink:href="#DejaVuSans-103"/>
      <use x="1211.642578" xlink:href="#DejaVuSans-101"/>
      <use x="1273.166016" xlink:href="#DejaVuSans-116"/>
      <use x="1312.375" xlink:href="#DejaVuSans-32"/>
      <use x="1344.162109" xlink:href="#DejaVuSans-112"/>
      <use x="1407.638672" xlink:href="#DejaVuSans-97"/>
      <use x="1468.917969" xlink:href="#DejaVuSans-105"/>
      <use x="1496.701172" xlink:href="#DejaVuSans-114"/>
      <use x="1537.814453" xlink:href="#DejaVuSans-115"/>
     </g>
    </g>
   </g>
   <g id="line2d_33">
    <defs>
     <path d="M 0 1.5 
C 0.397805 1.5 0.77937 1.341951 1.06066 1.06066 
C 1.341951 0.77937 1.5 0.397805 1.5 0 
C 1.5 -0.397805 1.341951 -0.77937 1.06066 -1.06066 
C 0.77937 -1.341951 0.397805 -1.5 0 -1.5 
C -0.397805 -1.5 -0.77937 -1.341951 -1.06066 -1.06066 
C -1.341951 -0.77937 -1.5 -0.397805 -1.5 0 
C -1.5 0.397805 -1.341951 0.77937 -1.06066 1.06066 
C -0.77937 1.341951 -0.397805 1.5 0 1.5 
z
" id="m08efe2d796" style="stroke:#f5deb3;"/>
    </defs>
    <g>
     <use style="fill:#f5deb3;stroke:#f5deb3;" x="283.351287" xlink:href="#m08efe2d796" y="41.690876"/>
     <use style="fill:#f5deb3;stroke:#f5deb3;" x="283.351287" xlink:href="#m08efe2d796" y="41.690876"/>
    </g>
   </g>
   <g id="line2d_34">
    <defs>
     <path d="M 0 1.5 
C 0.397805 1.5 0.77937 1.341951 1.06066 1.06066 
C 1.341951 0.77937 1.5 0.397805 1.5 0 
C 1.5 -0.397805 1.341951 -0.77937 1.06066 -1.06066 
C 0.77937 -1.341951 0.397805 -1.5 0 -1.5 
C -0.397805 -1.5 -0.77937 -1.341951 -1.06066 -1.06066 
C -1.341951 -0.77937 -1.5 -0.397805 -1.5 0 
C -1.5 0.397805 -1.341951 0.77937 -1.06066 1.06066 
C -0.77937 1.341951 -0.397805 1.5 0 1.5 
z
" id="m470c53c311" style="stroke:#000080;"/>
    </defs>
    <g>
     <use style="fill:#000080;stroke:#000080;" x="217.845621" xlink:href="#m470c53c311" y="117.101351"/>
     <use style="fill:#000080;stroke:#000080;" x="217.845621" xlink:href="#m470c53c311" y="117.101351"/>
    </g>
   </g>
   <g id="line2d_35">
    <path d="M 5.356583 298.944 
L 5.356583 287.09018 
L 24.515591 287.09018 
L 24.515591 286.711866 
L 59.262141 286.711866 
L 59.262141 286.207448 
L 70.11861 286.207448 
L 70.11861 285.829135 
L 76.16779 285.829135 
L 76.16779 285.450821 
L 78.154896 285.450821 
L 78.154896 285.072508 
L 78.941764 285.072508 
L 78.941764 284.56809 
L 80.179111 284.56809 
L 80.179111 284.189777 
L 81.992617 284.189777 
L 81.992617 283.811463 
L 84.588378 283.811463 
L 84.588378 283.43315 
L 85.136253 283.43315 
L 85.136253 283.054836 
L 86.847358 283.054836 
L 86.847358 282.676523 
L 87.643811 282.676523 
L 87.643811 282.172105 
L 88.846997 282.172105 
L 88.846997 281.163269 
L 88.991722 281.163269 
L 88.991722 280.658851 
L 90.640756 280.658851 
L 90.640756 280.280538 
L 91.905025 280.280538 
L 91.905025 279.77612 
L 92.267099 279.77612 
L 92.267099 278.136762 
L 93.754628 278.136762 
L 93.754628 277.380135 
L 95.125186 277.380135 
L 95.125186 277.001822 
L 96.395835 277.001822 
L 96.395835 275.740777 
L 96.768882 275.740777 
L 96.768882 275.362464 
L 97.755429 275.362464 
L 97.755429 274.98415 
L 99.731799 274.98415 
L 99.731799 274.605837 
L 100.86217 274.605837 
L 100.86217 274.101419 
L 101.646892 274.101419 
L 101.646892 273.723105 
L 102.12848 273.723105 
L 102.12848 273.344792 
L 103.372333 273.344792 
L 103.372333 272.966479 
L 103.93193 272.966479 
L 103.93193 272.588165 
L 105.566235 272.588165 
L 105.677314 271.579329 
L 106.006367 271.579329 
L 106.006367 270.696598 
L 106.646412 270.696598 
L 106.646412 270.19218 
L 106.802819 270.19218 
L 106.802819 269.813867 
L 107.009204 269.813867 
L 107.009204 269.309449 
L 107.514726 269.309449 
L 107.514726 268.426718 
L 108.341848 268.426718 
L 108.341848 267.165673 
L 108.764355 267.165673 
L 108.764355 266.78736 
L 108.948899 266.78736 
L 108.948899 266.409046 
L 110.316522 266.409046 
L 110.401178 265.652419 
L 111.30625 265.652419 
L 111.30625 264.769688 
L 111.858671 264.769688 
L 111.858671 264.013061 
L 112.469299 264.013061 
L 112.469299 263.634748 
L 113.524343 263.634748 
L 113.524343 263.13033 
L 113.699967 263.13033 
L 113.699967 262.625912 
L 114.519183 262.625912 
L 114.519183 262.247598 
L 115.10929 262.247598 
L 115.10929 261.869285 
L 116.202531 261.869285 
L 116.202531 261.112658 
L 116.650866 261.112658 
L 116.650866 260.734345 
L 117.231262 260.734345 
L 117.231262 260.356031 
L 117.514373 260.356031 
L 117.514373 259.977718 
L 118.148599 259.977718 
L 118.148599 259.599405 
L 118.390628 259.599405 
L 118.417314 258.842778 
L 120.829137 258.842778 
L 120.829137 257.960046 
L 122.594413 257.960046 
L 122.594413 257.581733 
L 123.829748 257.581733 
L 123.829748 257.077315 
L 124.004823 257.077315 
L 124.004823 256.572897 
L 124.57603 256.572897 
L 124.57603 256.194584 
L 125.074593 256.194584 
L 125.074593 255.690166 
L 125.700364 255.690166 
L 125.700364 255.185748 
L 125.996395 255.185748 
L 125.996395 254.807435 
L 127.051614 254.807435 
L 127.051614 254.303017 
L 127.705564 254.303017 
L 127.705564 253.798599 
L 128.046609 253.798599 
L 128.046609 252.915868 
L 128.560901 252.915868 
L 128.560901 252.41145 
L 129.204706 252.41145 
L 129.204706 252.033136 
L 129.616397 252.033136 
L 129.616397 251.528718 
L 129.867126 251.528718 
L 129.867126 250.645987 
L 130.100661 250.645987 
L 130.14155 248.75442 
L 130.236587 248.75442 
L 130.236587 248.376107 
L 130.465258 248.376107 
L 130.531948 247.241166 
L 130.704156 247.241166 
L 130.743656 246.484539 
L 131.095188 246.484539 
L 131.095188 245.601808 
L 131.876558 245.601808 
L 131.876558 245.223495 
L 132.765529 245.223495 
L 132.858975 244.466868 
L 132.940331 244.466868 
L 132.940331 243.710241 
L 134.171324 243.710241 
L 134.192921 242.323092 
L 134.577155 242.323092 
L 134.577155 241.944778 
L 134.880637 241.944778 
L 134.880637 241.188152 
L 135.158519 241.188152 
L 135.158519 240.431525 
L 135.770486 240.431525 
L 135.770486 239.674898 
L 135.927509 239.674898 
L 135.927509 239.296584 
L 136.189322 239.296584 
L 136.189322 238.792167 
L 136.607732 238.792167 
L 136.607732 238.03554 
L 136.803944 238.03554 
L 136.803944 237.531122 
L 137.117012 237.531122 
L 137.117012 236.522286 
L 137.235245 236.522286 
L 137.235245 236.143973 
L 137.415591 236.143973 
L 137.415591 235.765659 
L 137.744392 235.765659 
L 137.744392 234.882928 
L 138.60322 234.882928 
L 138.69516 234.126301 
L 138.861092 234.126301 
L 138.89409 233.24357 
L 139.098923 233.24357 
L 139.115206 231.982525 
L 139.501509 231.982525 
L 139.533318 230.217062 
L 139.964909 230.217062 
L 139.964909 229.712645 
L 141.478449 229.712645 
L 141.478449 228.956018 
L 142.003452 228.956018 
L 142.003452 228.199391 
L 142.371901 228.199391 
L 142.371901 227.442764 
L 143.859472 227.442764 
L 143.859472 226.560033 
L 145.553708 226.560033 
L 145.553708 225.803406 
L 146.94267 225.803406 
L 146.94267 225.425093 
L 147.69505 225.425093 
L 147.69505 224.668466 
L 148.784757 224.668466 
L 148.784757 223.785734 
L 149.721991 223.785734 
L 149.721991 222.776899 
L 149.84558 222.776899 
L 149.84558 222.398585 
L 150.150776 222.398585 
L 150.245601 220.759227 
L 150.661853 220.759227 
L 150.661853 220.0026 
L 150.895326 220.0026 
L 150.895326 218.86766 
L 151.62925 218.86766 
L 151.660987 217.73272 
L 152.041267 217.73272 
L 152.041267 216.849988 
L 152.474064 216.849988 
L 152.538255 215.715048 
L 153.651507 215.715048 
L 153.725604 214.580108 
L 154.409179 214.580108 
L 154.409179 213.697377 
L 154.972161 213.697377 
L 154.972161 212.814645 
L 155.109299 212.814645 
L 155.154773 211.175287 
L 156.51169 211.175287 
L 156.51169 210.670869 
L 156.68489 210.670869 
L 156.735331 209.788138 
L 157.483465 209.788138 
L 157.483465 208.905407 
L 157.664184 208.905407 
L 157.664184 208.400989 
L 158.165371 208.400989 
L 158.165371 207.518257 
L 158.492562 207.518257 
L 158.492562 206.509422 
L 158.874111 206.509422 
L 158.874111 206.005004 
L 159.285929 206.005004 
L 159.285929 205.62669 
L 160.09127 205.62669 
L 160.09127 204.870064 
L 160.501909 204.870064 
L 160.501909 203.987332 
L 160.945044 203.987332 
L 160.945044 203.482914 
L 162.587497 203.482914 
L 162.587497 203.104601 
L 163.893045 203.104601 
L 163.946031 202.347974 
L 164.362309 202.347974 
L 164.452001 200.708616 
L 164.867667 200.708616 
L 164.915924 199.447571 
L 164.986214 199.447571 
L 164.986214 198.56484 
L 165.369631 198.56484 
L 165.369631 198.186526 
L 165.924151 198.186526 
L 165.924151 197.808213 
L 166.386786 197.808213 
L 166.386786 196.925482 
L 167.027338 196.925482 
L 167.027338 196.421064 
L 167.724262 196.421064 
L 167.724262 195.664437 
L 168.019943 195.664437 
L 168.044746 194.151183 
L 168.568139 194.151183 
L 168.568139 193.77287 
L 169.663459 193.77287 
L 169.663459 193.268452 
L 169.919913 193.268452 
L 169.919913 192.764034 
L 170.057095 192.764034 
L 170.057095 192.007407 
L 170.370339 192.007407 
L 170.370339 191.124676 
L 170.630039 191.124676 
L 170.630039 190.746363 
L 171.611622 190.746363 
L 171.659533 189.233109 
L 171.788736 189.233109 
L 171.788736 188.476482 
L 172.871698 188.476482 
L 172.871698 187.593751 
L 173.645883 187.593751 
L 173.744474 185.071661 
L 173.791333 185.071661 
L 173.814715 183.306199 
L 173.946625 183.306199 
L 173.946625 182.801781 
L 174.285645 182.801781 
L 174.285645 182.423467 
L 175.108535 182.423467 
L 175.108535 181.666841 
L 175.589481 181.666841 
L 175.589481 181.288527 
L 176.447428 181.288527 
L 176.447428 180.910214 
L 176.657605 180.910214 
L 176.657605 180.5319 
L 177.428701 180.5319 
L 177.428701 179.649169 
L 177.666744 179.649169 
L 177.666744 178.766438 
L 178.134167 178.766438 
L 178.134167 178.26202 
L 178.265693 178.26202 
L 178.265693 177.883706 
L 178.689795 177.883706 
L 178.768702 176.622662 
L 180.098621 176.622662 
L 180.139703 175.866035 
L 180.332192 175.866035 
L 180.332192 175.361617 
L 182.253782 175.361617 
L 182.253782 174.478886 
L 183.069079 174.478886 
L 183.120056 173.091736 
L 184.027295 173.091736 
L 184.027295 172.713423 
L 184.634263 172.713423 
L 184.729732 171.956796 
L 184.746386 171.956796 
L 184.746386 171.578483 
L 184.932651 171.578483 
L 184.979055 169.182498 
L 185.124512 169.182498 
L 185.124512 168.804184 
L 185.402106 168.804184 
L 185.402106 168.425871 
L 185.971 168.425871 
L 185.971 167.921453 
L 186.5289 167.921453 
L 186.576068 166.408199 
L 187.006428 166.408199 
L 187.006428 166.029886 
L 187.246044 166.029886 
L 187.246044 165.651573 
L 187.469703 165.651573 
L 187.525552 163.88611 
L 187.809631 163.88611 
L 187.809631 163.507797 
L 188.077864 163.507797 
L 188.077864 163.129483 
L 189.345822 163.129483 
L 189.345822 162.75117 
L 189.727053 162.75117 
L 189.780586 160.859603 
L 189.979444 160.859603 
L 189.99617 159.724662 
L 190.195643 159.724662 
L 190.195643 158.841931 
L 191.212755 158.841931 
L 191.212755 158.463618 
L 192.018565 158.463618 
L 192.018565 157.9592 
L 192.151264 157.9592 
L 192.151264 157.076468 
L 192.30764 157.076468 
L 192.30764 156.572051 
L 193.965332 156.572051 
L 193.965332 156.193737 
L 194.236867 156.193737 
L 194.271331 155.058797 
L 194.689763 155.058797 
L 194.720325 153.419439 
L 195.041163 153.419439 
L 195.118409 152.662812 
L 195.485142 152.662812 
L 195.485142 151.653976 
L 196.062545 151.653976 
L 196.062545 150.897349 
L 196.580774 150.897349 
L 196.580774 150.392931 
L 196.866447 150.392931 
L 196.866447 150.014618 
L 197.225875 150.014618 
L 197.274925 148.753573 
L 197.339149 148.753573 
L 197.339149 148.37526 
L 198.148259 148.37526 
L 198.164516 147.618633 
L 198.680374 147.618633 
L 198.759874 146.357588 
L 198.907769 146.357588 
L 198.907769 145.979275 
L 199.417792 145.979275 
L 199.417792 145.600961 
L 200.805673 145.600961 
L 200.880784 143.961603 
L 200.985821 143.961603 
L 200.985821 143.58329 
L 201.958984 143.58329 
L 202.031064 142.826663 
L 202.288198 142.826663 
L 202.288198 142.070036 
L 203.059879 142.070036 
L 203.059879 141.691723 
L 203.703692 141.691723 
L 203.703692 141.187305 
L 203.849025 141.187305 
L 203.857174 140.304574 
L 205.045756 140.304574 
L 205.140535 139.547947 
L 205.751127 139.547947 
L 205.751127 139.043529 
L 206.089723 139.043529 
L 206.089723 138.665215 
L 206.514766 138.665215 
L 206.514766 138.286902 
L 206.981934 138.286902 
L 207.02507 136.521439 
L 207.44856 136.521439 
L 207.44856 135.638708 
L 207.83514 135.638708 
L 207.83514 135.13429 
L 208.192117 135.13429 
L 208.250446 133.873245 
L 209.553733 133.873245 
L 209.641235 132.738305 
L 209.989157 132.738305 
L 209.989157 131.981678 
L 210.747896 131.981678 
L 210.747896 131.603365 
L 211.126437 131.603365 
L 211.126437 131.225052 
L 211.68733 131.225052 
L 211.68733 130.720634 
L 211.926034 130.720634 
L 211.926034 130.216216 
L 213.130529 130.216216 
L 213.130529 129.711798 
L 213.431946 129.711798 
L 213.431946 128.829067 
L 213.65951 128.829067 
L 213.65951 128.450753 
L 213.926248 128.450753 
L 213.926248 127.946335 
L 215.078567 127.946335 
L 215.177172 125.802559 
L 215.243702 125.802559 
L 215.243702 124.919828 
L 216.361326 124.919828 
L 216.424464 123.028261 
L 216.532583 123.028261 
L 216.59721 121.262798 
L 216.936339 121.262798 
L 216.936339 120.506171 
L 217.092767 120.506171 
L 217.18601 118.992918 
L 217.522792 118.992918 
L 217.522792 118.236291 
L 217.718731 118.236291 
L 217.718731 117.479664 
L 217.845621 117.479664 
L 217.845621 117.101351 
L 338.688 117.101351 
L 338.688 117.101351 
" style="fill:none;stroke:#000080;stroke-linecap:square;stroke-width:1.5;"/>
   </g>
   <g id="line2d_36">
    <defs>
     <path d="M 0 6 
C 1.591219 6 3.117479 5.367802 4.242641 4.242641 
C 5.367802 3.117479 6 1.591219 6 0 
C 6 -1.591219 5.367802 -3.117479 4.242641 -4.242641 
C 3.117479 -5.367802 1.591219 -6 0 -6 
C -1.591219 -6 -3.117479 -5.367802 -4.242641 -4.242641 
C -5.367802 -3.117479 -6 -1.591219 -6 0 
C -6 1.591219 -5.367802 3.117479 -4.242641 4.242641 
C -3.117479 5.367802 -1.591219 6 0 6 
z
" id="ma8271b71ac" style="stroke:#000080;stroke-width:1.5;"/>
    </defs>
    <g>
     <use style="fill-opacity:0;stroke:#000080;stroke-width:1.5;" x="106.006367" xlink:href="#ma8271b71ac" y="270.696598"/>
     <use style="fill-opacity:0;stroke:#000080;stroke-width:1.5;" x="160.945044" xlink:href="#ma8271b71ac" y="203.987332"/>
     <use style="fill-opacity:0;stroke:#000080;stroke-width:1.5;" x="207.44856" xlink:href="#ma8271b71ac" y="135.638708"/>
     <use style="fill-opacity:0;stroke:#000080;stroke-width:1.5;" x="217.845621" xlink:href="#ma8271b71ac" y="117.101351"/>
     <use style="fill-opacity:0;stroke:#000080;stroke-width:1.5;" x="217.845621" xlink:href="#ma8271b71ac" y="117.101351"/>
     <use style="fill-opacity:0;stroke:#000080;stroke-width:1.5;" x="338.688" xlink:href="#ma8271b71ac" y="117.101351"/>
    </g>
   </g>
   <g id="line2d_37">
    <path style="fill:none;stroke:#000080;stroke-linecap:square;stroke-width:1.5;"/>
    <g/>
   </g>
   <g id="line2d_38">
    <path clip-path="url(#p7d9d9a550c)" d="M 218.222412 117.101351 
" style="fill:none;stroke:#000080;stroke-linecap:square;stroke-width:1.5;"/>
    <defs>
     <path d="M -12 12 
L 12 -12 
M -12 -12 
L 12 12 
" id="m496aa0a357" style="stroke:#000080;"/>
    </defs>
    <g clip-path="url(#p7d9d9a550c)">
     <use style="fill:#000080;stroke:#000080;" x="218.222412" xlink:href="#m496aa0a357" y="117.101351"/>
    </g>
   </g>
   <g id="line2d_39">
    <defs>
     <path d="M 0 1.5 
C 0.397805 1.5 0.77937 1.341951 1.06066 1.06066 
C 1.341951 0.77937 1.5 0.397805 1.5 0 
C 1.5 -0.397805 1.341951 -0.77937 1.06066 -1.06066 
C 0.77937 -1.341951 0.397805 -1.5 0 -1.5 
C -0.397805 -1.5 -0.77937 -1.341951 -1.06066 -1.06066 
C -1.341951 -0.77937 -1.5 -0.397805 -1.5 0 
C -1.5 0.397805 -1.341951 0.77937 -1.06066 1.06066 
C -0.77937 1.341951 -0.397805 1.5 0 1.5 
z
" id="m55386f846a" style="stroke:#ff00ff;"/>
    </defs>
    <g>
     <use style="fill:#ff00ff;stroke:#ff00ff;" x="217.330317" xlink:href="#m55386f846a" y="122.523843"/>
     <use style="fill:#ff00ff;stroke:#ff00ff;" x="217.330317" xlink:href="#m55386f846a" y="122.523843"/>
    </g>
   </g>
   <g id="line2d_40">
    <path d="M 5.356583 298.944 
L 5.356583 287.09018 
L 69.246464 287.09018 
L 69.246464 286.585762 
L 70.538854 286.585762 
L 70.538854 286.207448 
L 78.941764 286.207448 
L 78.941764 285.324717 
L 81.992617 285.324717 
L 81.992617 284.946404 
L 84.588378 284.946404 
L 84.588378 284.56809 
L 85.315119 284.56809 
L 85.315119 284.063672 
L 85.492169 284.063672 
L 85.492169 283.685359 
L 86.683608 283.685359 
L 86.683608 283.307045 
L 86.847358 283.307045 
L 86.847358 282.928732 
L 88.405473 282.928732 
L 88.405473 282.550419 
L 90.640756 282.550419 
L 90.640756 281.667687 
L 90.771388 281.667687 
L 90.771388 281.163269 
L 92.73846 281.163269 
L 92.73846 280.658851 
L 93.754628 280.658851 
L 93.754628 279.77612 
L 94.818328 279.77612 
L 94.818328 279.397807 
L 95.125186 279.397807 
L 95.125186 278.893389 
L 97.313904 278.893389 
L 97.313904 278.515075 
L 97.580158 278.515075 
L 97.580158 278.010658 
L 99.731799 278.010658 
L 99.731799 277.254031 
L 101.646892 277.254031 
L 101.646892 275.740777 
L 102.196206 275.740777 
L 102.196206 275.236359 
L 102.530943 275.236359 
L 102.530943 274.858046 
L 103.498249 274.858046 
L 103.498249 274.479732 
L 104.17499 274.479732 
L 104.17499 273.597001 
L 104.942325 273.597001 
L 104.999975 272.840374 
L 105.621863 272.840374 
L 105.677314 271.957643 
L 105.897371 271.957643 
L 105.897371 271.074912 
L 106.646412 271.074912 
L 106.646412 270.696598 
L 108.810674 270.696598 
L 108.810674 269.687762 
L 108.948899 269.687762 
L 108.994731 268.931136 
L 110.103064 268.931136 
L 110.103064 268.552822 
L 111.465878 268.552822 
L 111.465878 268.174509 
L 112.655818 268.174509 
L 112.692883 267.417882 
L 112.986604 267.417882 
L 112.986604 266.661255 
L 114.148479 266.661255 
L 114.148479 266.282942 
L 114.652055 266.282942 
L 114.652055 265.526315 
L 114.97987 265.526315 
L 114.97987 265.021897 
L 115.773423 265.021897 
L 115.773423 264.643583 
L 116.562116 264.643583 
L 116.562116 264.139166 
L 117.116718 264.139166 
L 117.116718 263.634748 
L 117.542433 263.634748 
L 117.542433 263.256434 
L 118.121498 263.256434 
L 118.121498 262.878121 
L 118.602981 262.878121 
L 118.602981 262.499807 
L 119.097192 262.499807 
L 119.148409 261.743181 
L 119.224953 261.743181 
L 119.224953 261.364867 
L 120.069756 261.364867 
L 120.069756 260.986554 
L 120.262724 260.986554 
L 120.262724 259.977718 
L 120.429836 259.977718 
L 120.429836 259.4733 
L 120.689249 259.4733 
L 120.689249 258.716673 
L 121.579085 258.716673 
L 121.645689 257.960046 
L 122.191052 257.960046 
L 122.191052 257.581733 
L 123.233135 257.581733 
L 123.233135 257.20342 
L 124.004823 257.20342 
L 124.004823 256.825106 
L 124.254646 256.825106 
L 124.254646 256.320688 
L 125.452744 256.320688 
L 125.452744 255.437957 
L 126.355276 255.437957 
L 126.355276 254.555226 
L 127.627114 254.555226 
L 127.627114 254.176912 
L 127.845889 254.176912 
L 127.845889 253.294181 
L 128.168991 253.294181 
L 128.168991 252.537554 
L 128.545989 252.537554 
L 128.545989 252.159241 
L 128.738855 252.159241 
L 128.738855 251.780927 
L 129.016952 251.780927 
L 129.016952 251.402614 
L 129.560187 251.402614 
L 129.574256 250.015465 
L 129.742212 250.015465 
L 129.742212 249.637151 
L 130.263646 249.637151 
L 130.263646 249.258838 
L 130.69097 249.258838 
L 130.69097 248.75442 
L 130.809292 248.75442 
L 130.809292 247.871689 
L 131.01768 247.871689 
L 131.01768 247.367271 
L 131.703155 247.367271 
L 131.703155 246.610644 
L 132.109167 246.610644 
L 132.109167 246.23233 
L 133.341516 246.23233 
L 133.386783 244.971286 
L 133.888106 244.971286 
L 133.888106 244.466868 
L 134.481887 244.466868 
L 134.481887 244.088554 
L 134.640379 244.088554 
L 134.745246 243.205823 
L 135.086899 243.205823 
L 135.086899 242.82751 
L 135.25017 242.82751 
L 135.25017 242.449196 
L 135.44209 242.449196 
L 135.44209 242.070883 
L 136.073445 242.070883 
L 136.073445 241.692569 
L 136.323544 241.692569 
L 136.323544 240.935943 
L 136.813232 240.935943 
L 136.813232 240.179316 
L 137.053015 240.179316 
L 137.053015 239.801002 
L 137.61184 239.801002 
L 137.61184 239.422689 
L 137.858461 239.422689 
L 137.945701 237.783331 
L 138.24765 237.783331 
L 138.24765 237.405017 
L 138.519216 237.405017 
L 138.519216 236.9006 
L 141.104941 236.9006 
L 141.104941 236.396182 
L 142.243147 236.396182 
L 142.324576 235.009032 
L 143.138005 235.009032 
L 143.138005 234.252406 
L 143.464461 234.252406 
L 143.464461 233.747988 
L 144.111818 233.747988 
L 144.111818 232.739152 
L 144.276025 232.739152 
L 144.276025 231.982525 
L 144.59393 231.982525 
L 144.65919 230.72148 
L 145.252974 230.72148 
L 145.252974 229.838749 
L 146.302479 229.838749 
L 146.302479 228.829913 
L 147.154371 228.829913 
L 147.154371 227.947182 
L 147.4697 227.947182 
L 147.4697 227.190555 
L 147.883103 227.190555 
L 147.892944 225.92951 
L 148.76137 225.92951 
L 148.826773 225.046779 
L 148.975352 225.046779 
L 148.975352 224.542361 
L 149.323233 224.542361 
L 149.323233 223.65963 
L 149.902665 223.65963 
L 149.902665 222.903003 
L 150.446473 222.903003 
L 150.446473 222.52469 
L 150.695399 222.52469 
L 150.695399 221.641958 
L 152.386839 221.641958 
L 152.386839 220.885332 
L 153.03613 220.885332 
L 153.03613 220.0026 
L 153.384274 220.0026 
L 153.384274 219.624287 
L 153.577094 219.624287 
L 153.577094 218.86766 
L 153.883332 218.86766 
L 153.883332 218.363242 
L 154.906477 218.363242 
L 154.906477 217.480511 
L 155.341913 217.480511 
L 155.341913 216.471675 
L 155.501643 216.471675 
L 155.501643 216.093362 
L 156.637282 216.093362 
L 156.637282 215.21063 
L 156.841668 215.21063 
L 156.841668 214.706212 
L 158.143521 214.706212 
L 158.143521 213.949586 
L 158.457702 213.949586 
L 158.457702 213.571272 
L 159.221818 213.571272 
L 159.221818 213.192959 
L 159.825279 213.192959 
L 159.825279 212.310227 
L 160.042317 212.310227 
L 160.042317 211.427496 
L 160.928745 211.427496 
L 160.928745 211.049183 
L 161.431604 211.049183 
L 161.472297 209.409825 
L 161.696658 209.409825 
L 161.783382 206.887735 
L 161.856428 206.887735 
L 161.856428 206.131108 
L 161.984076 206.131108 
L 162.021314 204.996168 
L 162.309932 204.996168 
L 162.309932 204.113437 
L 163.055638 204.113437 
L 163.123555 203.104601 
L 163.20757 203.104601 
L 163.266752 201.969661 
L 163.430998 201.969661 
L 163.430998 201.465243 
L 163.625673 201.465243 
L 163.625673 201.086929 
L 165.231842 201.086929 
L 165.231842 200.078094 
L 165.474058 200.078094 
L 165.474058 199.195362 
L 165.762464 199.195362 
L 165.762464 198.312631 
L 165.904898 198.312631 
L 165.995728 197.051586 
L 166.53268 197.051586 
L 166.53268 196.547168 
L 167.626164 196.547168 
L 167.626164 196.168855 
L 167.785687 196.168855 
L 167.785687 195.790541 
L 168.002871 195.790541 
L 168.002871 195.412228 
L 168.760989 195.412228 
L 168.760989 195.033915 
L 168.95467 195.033915 
L 168.95467 194.025079 
L 169.07482 194.025079 
L 169.090875 192.890139 
L 169.34145 192.890139 
L 169.34145 192.007407 
L 169.770423 192.007407 
L 169.770423 191.629094 
L 170.389308 191.629094 
L 170.389308 190.746363 
L 171.206738 190.746363 
L 171.206738 190.241945 
L 171.86605 190.241945 
L 171.921952 189.107004 
L 171.982619 189.107004 
L 171.982619 188.602587 
L 172.217102 188.602587 
L 172.217102 188.098169 
L 172.492942 188.098169 
L 172.492942 187.593751 
L 173.06094 187.593751 
L 173.06094 186.837124 
L 173.374132 186.837124 
L 173.425409 185.702184 
L 173.571573 185.702184 
L 173.571573 185.32387 
L 173.89243 185.32387 
L 173.89243 184.441139 
L 174.16392 184.441139 
L 174.170462 183.684512 
L 174.73364 183.684512 
L 174.73364 183.306199 
L 174.95183 183.306199 
L 175.005954 182.171258 
L 175.404583 182.171258 
L 175.404583 181.792945 
L 176.254046 181.792945 
L 176.254046 181.414632 
L 176.451254 181.414632 
L 176.451254 181.036318 
L 177.282476 181.036318 
L 177.282476 180.658005 
L 177.568328 180.658005 
L 177.568328 179.775273 
L 177.744191 179.775273 
L 177.844272 178.514229 
L 177.970105 178.514229 
L 178.068901 177.12708 
L 178.183605 177.12708 
L 178.183605 176.622662 
L 179.854012 176.622662 
L 179.854012 175.866035 
L 180.107156 175.866035 
L 180.107156 175.487721 
L 180.310739 175.487721 
L 180.358972 174.478886 
L 180.545286 174.478886 
L 180.545286 174.100572 
L 181.102837 174.100572 
L 181.102837 173.722259 
L 181.250202 173.722259 
L 181.250202 173.217841 
L 181.389847 173.217841 
L 181.46607 171.704587 
L 181.545534 171.704587 
L 181.545534 171.326274 
L 182.254468 171.326274 
L 182.320181 170.443543 
L 182.542176 170.443543 
L 182.542176 169.939125 
L 182.82256 169.939125 
L 182.82256 169.560811 
L 183.44526 169.560811 
L 183.44526 168.551975 
L 184.0149 168.551975 
L 184.0149 168.173662 
L 184.646225 168.173662 
L 184.670125 167.290931 
L 185.353946 167.290931 
L 185.353946 166.912617 
L 185.599658 166.912617 
L 185.599658 166.534304 
L 185.958804 166.534304 
L 185.958804 166.15599 
L 186.822684 166.15599 
L 186.822684 165.399364 
L 187.199623 165.399364 
L 187.199623 164.894946 
L 188.791853 164.894946 
L 188.791853 164.138319 
L 189.056185 164.138319 
L 189.056185 163.633901 
L 189.194927 163.633901 
L 189.194927 163.255588 
L 189.375024 163.255588 
L 189.375024 162.75117 
L 190.215205 162.75117 
L 190.272027 161.36402 
L 190.558504 161.36402 
L 190.572982 160.102976 
L 190.67526 160.102976 
L 190.67526 159.724662 
L 191.213576 159.724662 
L 191.213576 159.346349 
L 191.436166 159.346349 
L 191.436166 158.968036 
L 191.67594 158.968036 
L 191.67594 158.211409 
L 192.136872 158.211409 
L 192.220335 156.572051 
L 192.257087 156.572051 
L 192.257087 156.193737 
L 192.655575 156.193737 
L 192.655575 155.689319 
L 193.41394 155.689319 
L 193.41394 155.311006 
L 194.065955 155.311006 
L 194.065955 154.806588 
L 195.923422 154.806588 
L 195.923422 154.049961 
L 196.053533 154.049961 
L 196.157978 153.293334 
L 196.448476 153.293334 
L 196.510966 152.03229 
L 196.820399 152.03229 
L 196.820399 151.653976 
L 197.374054 151.653976 
L 197.374054 151.149558 
L 198.073391 151.149558 
L 198.073391 150.64514 
L 198.312063 150.64514 
L 198.312063 150.266827 
L 198.489218 150.266827 
L 198.505431 148.879678 
L 199.156971 148.879678 
L 199.156971 148.501364 
L 199.557945 148.501364 
L 199.557945 147.744737 
L 199.717905 147.744737 
L 199.717905 147.366424 
L 199.938467 147.366424 
L 199.938467 146.609797 
L 200.095236 146.609797 
L 200.095236 146.231484 
L 200.250853 146.231484 
L 200.250853 145.727066 
L 200.606413 145.727066 
L 200.606413 145.348752 
L 201.319957 145.348752 
L 201.319957 144.970439 
L 201.490118 144.970439 
L 201.490118 144.592126 
L 202.821546 144.592126 
L 202.869558 143.204976 
L 203.627549 143.204976 
L 203.627549 142.826663 
L 203.854194 142.826663 
L 203.854194 142.44835 
L 204.161121 142.44835 
L 204.161121 142.070036 
L 204.447764 142.070036 
L 204.48154 140.808991 
L 204.668802 140.808991 
L 204.668802 140.304574 
L 205.062454 140.304574 
L 205.062454 139.92626 
L 205.273685 139.92626 
L 205.273685 139.547947 
L 205.421093 139.547947 
L 205.421093 139.169633 
L 206.311223 139.169633 
L 206.311223 138.79132 
L 206.510841 138.79132 
L 206.510841 138.286902 
L 206.69554 138.286902 
L 206.792536 136.521439 
L 207.694425 136.521439 
L 207.694425 136.143126 
L 208.089687 136.143126 
L 208.089687 135.386499 
L 208.681425 135.386499 
L 208.681425 134.882081 
L 209.000215 134.882081 
L 209.000215 134.125454 
L 209.207601 134.125454 
L 209.207601 133.621037 
L 209.387243 133.621037 
L 209.387243 133.116619 
L 209.56849 133.116619 
L 209.661191 131.855574 
L 210.688902 131.855574 
L 210.688902 131.47726 
L 210.996681 131.47726 
L 210.996681 131.098947 
L 212.205646 131.098947 
L 212.248438 129.585693 
L 212.638405 129.585693 
L 212.638405 129.20738 
L 213.278069 129.20738 
L 213.278069 128.702962 
L 214.213893 128.702962 
L 214.213893 128.198544 
L 214.454715 128.198544 
L 214.454715 127.820231 
L 214.817882 127.820231 
L 214.817882 127.441917 
L 215.781955 127.441917 
L 215.781955 126.559186 
L 216.185627 126.559186 
L 216.185627 126.180873 
L 216.701413 126.180873 
L 216.775085 125.424246 
L 217.316913 125.424246 
L 217.330317 122.523843 
L 338.688 122.523843 
L 338.688 122.523843 
" style="fill:none;stroke:#ff00ff;stroke-linecap:square;stroke-width:1.5;"/>
   </g>
   <g id="line2d_41">
    <defs>
     <path d="M 0 8.485281 
L 5.091169 0 
L 0 -8.485281 
L -5.091169 0 
z
" id="m13cc996ec9" style="stroke:#ff00ff;stroke-linejoin:miter;stroke-width:1.5;"/>
    </defs>
    <g>
     <use style="fill-opacity:0;stroke:#ff00ff;stroke-linejoin:miter;stroke-width:1.5;" x="90.771388" xlink:href="#m13cc996ec9" y="281.163269"/>
     <use style="fill-opacity:0;stroke:#ff00ff;stroke-linejoin:miter;stroke-width:1.5;" x="150.695399" xlink:href="#m13cc996ec9" y="221.641958"/>
     <use style="fill-opacity:0;stroke:#ff00ff;stroke-linejoin:miter;stroke-width:1.5;" x="201.319957" xlink:href="#m13cc996ec9" y="145.348752"/>
     <use style="fill-opacity:0;stroke:#ff00ff;stroke-linejoin:miter;stroke-width:1.5;" x="217.330317" xlink:href="#m13cc996ec9" y="122.523843"/>
     <use style="fill-opacity:0;stroke:#ff00ff;stroke-linejoin:miter;stroke-width:1.5;" x="217.330317" xlink:href="#m13cc996ec9" y="122.523843"/>
     <use style="fill-opacity:0;stroke:#ff00ff;stroke-linejoin:miter;stroke-width:1.5;" x="338.688" xlink:href="#m13cc996ec9" y="122.523843"/>
    </g>
   </g>
   <g id="line2d_42">
    <path style="fill:none;stroke:#ff00ff;stroke-linecap:square;stroke-width:1.5;"/>
    <g/>
   </g>
   <g id="line2d_43">
    <path clip-path="url(#p7d9d9a550c)" d="M 218.222325 122.523843 
" style="fill:none;stroke:#ff00ff;stroke-linecap:square;stroke-width:1.5;"/>
    <defs>
     <path d="M -12 12 
L 12 -12 
M -12 -12 
L 12 12 
" id="m854969754c" style="stroke:#ff00ff;"/>
    </defs>
    <g clip-path="url(#p7d9d9a550c)">
     <use style="fill:#ff00ff;stroke:#ff00ff;" x="218.222325" xlink:href="#m854969754c" y="122.523843"/>
    </g>
   </g>
   <g id="line2d_44">
    <path d="M 338.688 122.523843 
L 369.60768 293.092752 
" style="fill:none;stroke:#ff00ff;stroke-linecap:square;stroke-width:1.5;"/>
    <g>
     <use style="fill-opacity:0;stroke:#ff00ff;stroke-linejoin:miter;stroke-width:1.5;" x="338.688" xlink:href="#m13cc996ec9" y="122.523843"/>
     <use style="fill-opacity:0;stroke:#ff00ff;stroke-linejoin:miter;stroke-width:1.5;" x="369.60768" xlink:href="#m13cc996ec9" y="293.092752"/>
    </g>
   </g>
   <g id="line2d_45">
    <path d="M 338.688 117.101351 
L 369.60768 152.662812 
" style="fill:none;stroke:#000080;stroke-linecap:square;stroke-width:1.5;"/>
    <g>
     <use style="fill-opacity:0;stroke:#000080;stroke-width:1.5;" x="338.688" xlink:href="#ma8271b71ac" y="117.101351"/>
     <use style="fill-opacity:0;stroke:#000080;stroke-width:1.5;" x="369.60768" xlink:href="#ma8271b71ac" y="152.662812"/>
    </g>
   </g>
   <g id="line2d_46">
    <path d="M 338.688 298.944 
L 338.688 6.381624 
" style="fill:none;stroke:#000000;stroke-linecap:square;stroke-width:1.5;"/>
   </g>
   <g id="patch_3">
    <path d="M 57.6 298.944 
L 57.6 3.456 
" style="fill:none;stroke:#000000;stroke-linecap:square;stroke-linejoin:miter;stroke-width:0.8;"/>
   </g>
   <g id="patch_4">
    <path d="M 338.688 298.944 
L 338.688 3.456 
" style="fill:none;stroke:#000000;stroke-linecap:square;stroke-linejoin:miter;stroke-width:0.8;"/>
   </g>
   <g id="patch_5">
    <path d="M 57.6 298.944 
L 338.688 298.944 
" style="fill:none;stroke:#000000;stroke-linecap:square;stroke-linejoin:miter;stroke-width:0.8;"/>
   </g>
   <g id="patch_6">
    <path d="M 57.6 3.456 
L 338.688 3.456 
" style="fill:none;stroke:#000000;stroke-linecap:square;stroke-linejoin:miter;stroke-width:0.8;"/>
   </g>
   <g id="text_13">
    <!-- withFract -->
    <defs>
     <path d="M 4.203125 54.6875 
L 13.1875 54.6875 
L 24.421875 12.015625 
L 35.59375 54.6875 
L 46.1875 54.6875 
L 57.421875 12.015625 
L 68.609375 54.6875 
L 77.59375 54.6875 
L 63.28125 0 
L 52.6875 0 
L 40.921875 44.828125 
L 29.109375 0 
L 18.5 0 
z
" id="DejaVuSans-119"/>
     <path d="M 54.890625 33.015625 
L 54.890625 0 
L 45.90625 0 
L 45.90625 32.71875 
Q 45.90625 40.484375 42.875 44.328125 
Q 39.84375 48.1875 33.796875 48.1875 
Q 26.515625 48.1875 22.3125 43.546875 
Q 18.109375 38.921875 18.109375 30.90625 
L 18.109375 0 
L 9.078125 0 
L 9.078125 75.984375 
L 18.109375 75.984375 
L 18.109375 46.1875 
Q 21.34375 51.125 25.703125 53.5625 
Q 30.078125 56 35.796875 56 
Q 45.21875 56 50.046875 50.171875 
Q 54.890625 44.34375 54.890625 33.015625 
z
" id="DejaVuSans-104"/>
    </defs>
    <g transform="translate(375.22944 297.78369)scale(0.17 -0.17)">
     <use xlink:href="#DejaVuSans-119"/>
     <use x="81.787109" xlink:href="#DejaVuSans-105"/>
     <use x="109.570312" xlink:href="#DejaVuSans-116"/>
     <use x="148.779297" xlink:href="#DejaVuSans-104"/>
     <use x="212.158203" xlink:href="#DejaVuSans-70"/>
     <use x="269.568359" xlink:href="#DejaVuSans-114"/>
     <use x="310.681641" xlink:href="#DejaVuSans-97"/>
     <use x="371.960938" xlink:href="#DejaVuSans-99"/>
     <use x="426.941406" xlink:href="#DejaVuSans-116"/>
    </g>
   </g>
   <g id="text_14">
    <!-- noFractio -->
    <g transform="translate(375.22944 157.353749)scale(0.17 -0.17)">
     <use xlink:href="#DejaVuSans-110"/>
     <use x="63.378906" xlink:href="#DejaVuSans-111"/>
     <use x="124.560547" xlink:href="#DejaVuSans-70"/>
     <use x="181.970703" xlink:href="#DejaVuSans-114"/>
     <use x="223.083984" xlink:href="#DejaVuSans-97"/>
     <use x="284.363281" xlink:href="#DejaVuSans-99"/>
     <use x="339.34375" xlink:href="#DejaVuSans-116"/>
     <use x="378.552734" xlink:href="#DejaVuSans-105"/>
     <use x="406.335938" xlink:href="#DejaVuSans-111"/>
    </g>
   </g>
   <g id="text_15">
    <!-- best 2016 -->
    <defs>
     <path d="M 48.6875 27.296875 
Q 48.6875 37.203125 44.609375 42.84375 
Q 40.53125 48.484375 33.40625 48.484375 
Q 26.265625 48.484375 22.1875 42.84375 
Q 18.109375 37.203125 18.109375 27.296875 
Q 18.109375 17.390625 22.1875 11.75 
Q 26.265625 6.109375 33.40625 6.109375 
Q 40.53125 6.109375 44.609375 11.75 
Q 48.6875 17.390625 48.6875 27.296875 
z
M 18.109375 46.390625 
Q 20.953125 51.265625 25.265625 53.625 
Q 29.59375 56 35.59375 56 
Q 45.5625 56 51.78125 48.09375 
Q 58.015625 40.1875 58.015625 27.296875 
Q 58.015625 14.40625 51.78125 6.484375 
Q 45.5625 -1.421875 35.59375 -1.421875 
Q 29.59375 -1.421875 25.265625 0.953125 
Q 20.953125 3.328125 18.109375 8.203125 
L 18.109375 0 
L 9.078125 0 
L 9.078125 75.984375 
L 18.109375 75.984375 
z
" id="DejaVuSans-98"/>
    </defs>
    <g transform="translate(375.22944 16.923809)scale(0.17 -0.17)">
     <use xlink:href="#DejaVuSans-98"/>
     <use x="63.476562" xlink:href="#DejaVuSans-101"/>
     <use x="125" xlink:href="#DejaVuSans-115"/>
     <use x="177.099609" xlink:href="#DejaVuSans-116"/>
     <use x="216.308594" xlink:href="#DejaVuSans-32"/>
     <use x="248.095703" xlink:href="#DejaVuSans-50"/>
     <use x="311.71875" xlink:href="#DejaVuSans-48"/>
     <use x="375.341797" xlink:href="#DejaVuSans-49"/>
     <use x="438.964844" xlink:href="#DejaVuSans-54"/>
    </g>
   </g>
   <g id="text_16">
    <!-- bbob-biobj f5, f6, f14, f15, 20-D -->
    <defs>
     <path d="M 9.421875 54.6875 
L 18.40625 54.6875 
L 18.40625 -0.984375 
Q 18.40625 -11.421875 14.421875 -16.109375 
Q 10.453125 -20.796875 1.609375 -20.796875 
L -1.8125 -20.796875 
L -1.8125 -13.1875 
L 0.59375 -13.1875 
Q 5.71875 -13.1875 7.5625 -10.8125 
Q 9.421875 -8.453125 9.421875 -0.984375 
z
M 9.421875 75.984375 
L 18.40625 75.984375 
L 18.40625 64.59375 
L 9.421875 64.59375 
z
" id="DejaVuSans-106"/>
     <path d="M 10.796875 72.90625 
L 49.515625 72.90625 
L 49.515625 64.59375 
L 19.828125 64.59375 
L 19.828125 46.734375 
Q 21.96875 47.46875 24.109375 47.828125 
Q 26.265625 48.1875 28.421875 48.1875 
Q 40.625 48.1875 47.75 41.5 
Q 54.890625 34.8125 54.890625 23.390625 
Q 54.890625 11.625 47.5625 5.09375 
Q 40.234375 -1.421875 26.90625 -1.421875 
Q 22.3125 -1.421875 17.546875 -0.640625 
Q 12.796875 0.140625 7.71875 1.703125 
L 7.71875 11.625 
Q 12.109375 9.234375 16.796875 8.0625 
Q 21.484375 6.890625 26.703125 6.890625 
Q 35.15625 6.890625 40.078125 11.328125 
Q 45.015625 15.765625 45.015625 23.390625 
Q 45.015625 31 40.078125 35.4375 
Q 35.15625 39.890625 26.703125 39.890625 
Q 22.75 39.890625 18.8125 39.015625 
Q 14.890625 38.140625 10.796875 36.28125 
z
" id="DejaVuSans-53"/>
     <path d="M 19.671875 64.796875 
L 19.671875 8.109375 
L 31.59375 8.109375 
Q 46.6875 8.109375 53.6875 14.9375 
Q 60.6875 21.78125 60.6875 36.53125 
Q 60.6875 51.171875 53.6875 57.984375 
Q 46.6875 64.796875 31.59375 64.796875 
z
M 9.8125 72.90625 
L 30.078125 72.90625 
Q 51.265625 72.90625 61.171875 64.09375 
Q 71.09375 55.28125 71.09375 36.53125 
Q 71.09375 17.671875 61.125 8.828125 
Q 51.171875 0 30.078125 0 
L 9.8125 0 
z
" id="DejaVuSans-68"/>
    </defs>
    <g transform="translate(60.41088 14.161286)scale(0.102 -0.102)">
     <use xlink:href="#DejaVuSans-98"/>
     <use x="63.476562" xlink:href="#DejaVuSans-98"/>
     <use x="126.953125" xlink:href="#DejaVuSans-111"/>
     <use x="188.134766" xlink:href="#DejaVuSans-98"/>
     <use x="251.611328" xlink:href="#DejaVuSans-45"/>
     <use x="287.695312" xlink:href="#DejaVuSans-98"/>
     <use x="351.171875" xlink:href="#DejaVuSans-105"/>
     <use x="378.955078" xlink:href="#DejaVuSans-111"/>
     <use x="440.136719" xlink:href="#DejaVuSans-98"/>
     <use x="503.613281" xlink:href="#DejaVuSans-106"/>
     <use x="531.396484" xlink:href="#DejaVuSans-32"/>
     <use x="563.183594" xlink:href="#DejaVuSans-102"/>
     <use x="598.388672" xlink:href="#DejaVuSans-53"/>
     <use x="662.011719" xlink:href="#DejaVuSans-44"/>
     <use x="693.798828" xlink:href="#DejaVuSans-32"/>
     <use x="725.585938" xlink:href="#DejaVuSans-102"/>
     <use x="760.791016" xlink:href="#DejaVuSans-54"/>
     <use x="824.414062" xlink:href="#DejaVuSans-44"/>
     <use x="856.201172" xlink:href="#DejaVuSans-32"/>
     <use x="887.988281" xlink:href="#DejaVuSans-102"/>
     <use x="923.193359" xlink:href="#DejaVuSans-49"/>
     <use x="986.816406" xlink:href="#DejaVuSans-52"/>
     <use x="1050.439453" xlink:href="#DejaVuSans-44"/>
     <use x="1082.226562" xlink:href="#DejaVuSans-32"/>
     <use x="1114.013672" xlink:href="#DejaVuSans-102"/>
     <use x="1149.21875" xlink:href="#DejaVuSans-49"/>
     <use x="1212.841797" xlink:href="#DejaVuSans-53"/>
     <use x="1276.464844" xlink:href="#DejaVuSans-44"/>
     <use x="1308.251953" xlink:href="#DejaVuSans-32"/>
     <use x="1340.039062" xlink:href="#DejaVuSans-50"/>
     <use x="1403.662109" xlink:href="#DejaVuSans-48"/>
     <use x="1467.285156" xlink:href="#DejaVuSans-45"/>
     <use x="1503.369141" xlink:href="#DejaVuSans-68"/>
    </g>
    <!-- 58 targets: 1..-1.0e-4 -->
    <defs>
     <path d="M 11.71875 12.40625 
L 22.015625 12.40625 
L 22.015625 0 
L 11.71875 0 
z
M 11.71875 51.703125 
L 22.015625 51.703125 
L 22.015625 39.3125 
L 11.71875 39.3125 
z
" id="DejaVuSans-58"/>
    </defs>
    <g transform="translate(60.41088 25.583055)scale(0.102 -0.102)">
     <use xlink:href="#DejaVuSans-53"/>
     <use x="63.623047" xlink:href="#DejaVuSans-56"/>
     <use x="127.246094" xlink:href="#DejaVuSans-32"/>
     <use x="159.033203" xlink:href="#DejaVuSans-116"/>
     <use x="198.242188" xlink:href="#DejaVuSans-97"/>
     <use x="259.521484" xlink:href="#DejaVuSans-114"/>
     <use x="300.619141" xlink:href="#DejaVuSans-103"/>
     <use x="364.095703" xlink:href="#DejaVuSans-101"/>
     <use x="425.619141" xlink:href="#DejaVuSans-116"/>
     <use x="464.828125" xlink:href="#DejaVuSans-115"/>
     <use x="516.927734" xlink:href="#DejaVuSans-58"/>
     <use x="550.619141" xlink:href="#DejaVuSans-32"/>
     <use x="582.40625" xlink:href="#DejaVuSans-49"/>
     <use x="646.029297" xlink:href="#DejaVuSans-46"/>
     <use x="677.816406" xlink:href="#DejaVuSans-46"/>
     <use x="709.603516" xlink:href="#DejaVuSans-45"/>
     <use x="745.6875" xlink:href="#DejaVuSans-49"/>
     <use x="809.310547" xlink:href="#DejaVuSans-46"/>
     <use x="841.097656" xlink:href="#DejaVuSans-48"/>
     <use x="904.720703" xlink:href="#DejaVuSans-101"/>
     <use x="966.244141" xlink:href="#DejaVuSans-45"/>
     <use x="1002.328125" xlink:href="#DejaVuSans-52"/>
    </g>
    <!-- 3 instances -->
    <defs>
     <path d="M 40.578125 39.3125 
Q 47.65625 37.796875 51.625 33 
Q 55.609375 28.21875 55.609375 21.1875 
Q 55.609375 10.40625 48.1875 4.484375 
Q 40.765625 -1.421875 27.09375 -1.421875 
Q 22.515625 -1.421875 17.65625 -0.515625 
Q 12.796875 0.390625 7.625 2.203125 
L 7.625 11.71875 
Q 11.71875 9.328125 16.59375 8.109375 
Q 21.484375 6.890625 26.8125 6.890625 
Q 36.078125 6.890625 40.9375 10.546875 
Q 45.796875 14.203125 45.796875 21.1875 
Q 45.796875 27.640625 41.28125 31.265625 
Q 36.765625 34.90625 28.71875 34.90625 
L 20.21875 34.90625 
L 20.21875 43.015625 
L 29.109375 43.015625 
Q 36.375 43.015625 40.234375 45.921875 
Q 44.09375 48.828125 44.09375 54.296875 
Q 44.09375 59.90625 40.109375 62.90625 
Q 36.140625 65.921875 28.71875 65.921875 
Q 24.65625 65.921875 20.015625 65.03125 
Q 15.375 64.15625 9.8125 62.3125 
L 9.8125 71.09375 
Q 15.4375 72.65625 20.34375 73.4375 
Q 25.25 74.21875 29.59375 74.21875 
Q 40.828125 74.21875 47.359375 69.109375 
Q 53.90625 64.015625 53.90625 55.328125 
Q 53.90625 49.265625 50.4375 45.09375 
Q 46.96875 40.921875 40.578125 39.3125 
z
" id="DejaVuSans-51"/>
    </defs>
    <g transform="translate(60.41088 37.004824)scale(0.102 -0.102)">
     <use xlink:href="#DejaVuSans-51"/>
     <use x="63.623047" xlink:href="#DejaVuSans-32"/>
     <use x="95.410156" xlink:href="#DejaVuSans-105"/>
     <use x="123.193359" xlink:href="#DejaVuSans-110"/>
     <use x="186.572266" xlink:href="#DejaVuSans-115"/>
     <use x="238.671875" xlink:href="#DejaVuSans-116"/>
     <use x="277.880859" xlink:href="#DejaVuSans-97"/>
     <use x="339.160156" xlink:href="#DejaVuSans-110"/>
     <use x="402.539062" xlink:href="#DejaVuSans-99"/>
     <use x="457.519531" xlink:href="#DejaVuSans-101"/>
     <use x="519.042969" xlink:href="#DejaVuSans-115"/>
    </g>
   </g>
   <g id="text_17">
    <!-- v2.3.3.43 -->
    <g style="fill:#808080;" transform="translate(174.511187 293.909432)scale(0.1 -0.1)">
     <use xlink:href="#DejaVuSans-118"/>
     <use x="59.179688" xlink:href="#DejaVuSans-50"/>
     <use x="122.802734" xlink:href="#DejaVuSans-46"/>
     <use x="154.589844" xlink:href="#DejaVuSans-51"/>
     <use x="218.212891" xlink:href="#DejaVuSans-46"/>
     <use x="250" xlink:href="#DejaVuSans-51"/>
     <use x="313.623047" xlink:href="#DejaVuSans-46"/>
     <use x="345.410156" xlink:href="#DejaVuSans-52"/>
     <use x="409.033203" xlink:href="#DejaVuSans-51"/>
    </g>
   </g>
  </g>
 </g>
 <defs>
  <clipPath id="p7d9d9a550c">
   <rect height="295.488" width="281.088" x="57.6" y="3.456"/>
  </clipPath>
 </defs>
</svg>
