<?xml version="1.0" encoding="utf-8" standalone="no"?>
<!DOCTYPE svg PUBLIC "-//W3C//DTD SVG 1.1//EN"
  "http://www.w3.org/Graphics/SVG/1.1/DTD/svg11.dtd">
<!-- Created with matplotlib (https://matplotlib.org/) -->
<svg height="353.782812pt" version="1.1" viewBox="0 0 331.393393 353.782812" width="331.393393pt" xmlns="http://www.w3.org/2000/svg" xmlns:xlink="http://www.w3.org/1999/xlink">
 <defs>
  <style type="text/css">
*{stroke-linecap:butt;stroke-linejoin:round;}
  </style>
 </defs>
 <g id="figure_1">
  <g id="patch_1">
   <path d="M 0 353.782812 
L 331.393393 353.782812 
L 331.393393 0 
L 0 0 
z
" style="fill:#ffffff;"/>
  </g>
  <g id="axes_1">
   <g id="patch_2">
    <path d="M 45.469063 302.677187 
L 321.269063 302.677187 
L 321.269063 26.877187 
L 45.469063 26.877187 
z
" style="fill:#ffffff;"/>
   </g>
   <g id="line2d_1">
    <path clip-path="url(#p937bb1ca41)" d="M 241.397541 150.215055 
L 241.397541 106.746732 
" style="fill:none;stroke:#00bfbf;stroke-linecap:square;stroke-width:1.5;"/>
   </g>
   <g id="line2d_2">
    <path clip-path="url(#p937bb1ca41)" d="M 197.929217 106.746732 
L 241.397541 106.746732 
" style="fill:none;stroke:#00bfbf;stroke-linecap:square;stroke-width:1.5;"/>
   </g>
   <g id="line2d_3">
    <path clip-path="url(#p937bb1ca41)" d="M 249.416006 142.19659 
L 249.416006 98.728266 
" style="fill:none;stroke:#008000;stroke-linecap:square;stroke-width:1.5;"/>
   </g>
   <g id="line2d_4">
    <path clip-path="url(#p937bb1ca41)" d="M 205.947682 98.728266 
L 249.416006 98.728266 
" style="fill:none;stroke:#008000;stroke-linecap:square;stroke-width:1.5;"/>
   </g>
   <g id="line2d_5">
    <path clip-path="url(#p937bb1ca41)" d="M 259.523398 132.091175 
L 259.523398 88.622852 
" style="fill:none;stroke:#0000ff;stroke-linecap:square;stroke-width:1.5;"/>
   </g>
   <g id="line2d_6">
    <path clip-path="url(#p937bb1ca41)" d="M 216.055075 88.622852 
L 259.523398 88.622852 
" style="fill:none;stroke:#0000ff;stroke-linecap:square;stroke-width:1.5;"/>
   </g>
   <g id="line2d_7">
    <path clip-path="url(#p937bb1ca41)" d="M 273.233754 118.380028 
L 273.233754 74.911705 
" style="fill:none;stroke:#000000;stroke-linecap:square;stroke-width:1.5;"/>
   </g>
   <g id="line2d_8">
    <path clip-path="url(#p937bb1ca41)" d="M 229.76543 74.911705 
L 273.233754 74.911705 
" style="fill:none;stroke:#000000;stroke-linecap:square;stroke-width:1.5;"/>
   </g>
   <g id="line2d_9">
    <path clip-path="url(#p937bb1ca41)" d="M 286.946582 104.668585 
L 286.946582 61.200261 
" style="fill:none;stroke:#ff0000;stroke-linecap:square;stroke-width:1.5;"/>
   </g>
   <g id="line2d_10">
    <path clip-path="url(#p937bb1ca41)" d="M 243.478259 61.200261 
L 286.946582 61.200261 
" style="fill:none;stroke:#ff0000;stroke-linecap:square;stroke-width:1.5;"/>
   </g>
   <g id="matplotlib.axis_1">
    <g id="xtick_1">
     <g id="line2d_11">
      <path clip-path="url(#p937bb1ca41)" d="M 136.574464 302.677187 
L 136.574464 26.877187 
" style="fill:none;stroke:#b0b0b0;stroke-linecap:square;stroke-width:0.8;"/>
     </g>
     <g id="line2d_12">
      <defs>
       <path d="M 0 0 
L 0 3.5 
" id="mbc1499ca58" style="stroke:#000000;stroke-width:0.8;"/>
      </defs>
      <g>
       <use style="stroke:#000000;stroke-width:0.8;" x="136.574464" xlink:href="#mbc1499ca58" y="302.677187"/>
      </g>
     </g>
     <g id="text_1">
      <!-- 2 -->
      <defs>
       <path d="M 19.1875 8.296875 
L 53.609375 8.296875 
L 53.609375 0 
L 7.328125 0 
L 7.328125 8.296875 
Q 12.9375 14.109375 22.625 23.890625 
Q 32.328125 33.6875 34.8125 36.53125 
Q 39.546875 41.84375 41.421875 45.53125 
Q 43.3125 49.21875 43.3125 52.78125 
Q 43.3125 58.59375 39.234375 62.25 
Q 35.15625 65.921875 28.609375 65.921875 
Q 23.96875 65.921875 18.8125 64.3125 
Q 13.671875 62.703125 7.8125 59.421875 
L 7.8125 69.390625 
Q 13.765625 71.78125 18.9375 73 
Q 24.125 74.21875 28.421875 74.21875 
Q 39.75 74.21875 46.484375 68.546875 
Q 53.21875 62.890625 53.21875 53.421875 
Q 53.21875 48.921875 51.53125 44.890625 
Q 49.859375 40.875 45.40625 35.40625 
Q 44.1875 33.984375 37.640625 27.21875 
Q 31.109375 20.453125 19.1875 8.296875 
z
" id="DejaVuSans-50"/>
      </defs>
      <g transform="translate(131.166339 322.594531)scale(0.17 -0.17)">
       <use xlink:href="#DejaVuSans-50"/>
      </g>
     </g>
    </g>
    <g id="xtick_2">
     <g id="line2d_13">
      <path clip-path="url(#p937bb1ca41)" d="M 227.679866 302.677187 
L 227.679866 26.877187 
" style="fill:none;stroke:#b0b0b0;stroke-linecap:square;stroke-width:0.8;"/>
     </g>
     <g id="line2d_14">
      <g>
       <use style="stroke:#000000;stroke-width:0.8;" x="227.679866" xlink:href="#mbc1499ca58" y="302.677187"/>
      </g>
     </g>
     <g id="text_2">
      <!-- 4 -->
      <defs>
       <path d="M 37.796875 64.3125 
L 12.890625 25.390625 
L 37.796875 25.390625 
z
M 35.203125 72.90625 
L 47.609375 72.90625 
L 47.609375 25.390625 
L 58.015625 25.390625 
L 58.015625 17.1875 
L 47.609375 17.1875 
L 47.609375 0 
L 37.796875 0 
L 37.796875 17.1875 
L 4.890625 17.1875 
L 4.890625 26.703125 
z
" id="DejaVuSans-52"/>
      </defs>
      <g transform="translate(222.271741 322.594531)scale(0.17 -0.17)">
       <use xlink:href="#DejaVuSans-52"/>
      </g>
     </g>
    </g>
    <g id="xtick_3">
     <g id="line2d_15">
      <path clip-path="url(#p937bb1ca41)" d="M 318.785268 302.677187 
L 318.785268 26.877187 
" style="fill:none;stroke:#b0b0b0;stroke-linecap:square;stroke-width:0.8;"/>
     </g>
     <g id="line2d_16">
      <g>
       <use style="stroke:#000000;stroke-width:0.8;" x="318.785268" xlink:href="#mbc1499ca58" y="302.677187"/>
      </g>
     </g>
     <g id="text_3">
      <!-- 6 -->
      <defs>
       <path d="M 33.015625 40.375 
Q 26.375 40.375 22.484375 35.828125 
Q 18.609375 31.296875 18.609375 23.390625 
Q 18.609375 15.53125 22.484375 10.953125 
Q 26.375 6.390625 33.015625 6.390625 
Q 39.65625 6.390625 43.53125 10.953125 
Q 47.40625 15.53125 47.40625 23.390625 
Q 47.40625 31.296875 43.53125 35.828125 
Q 39.65625 40.375 33.015625 40.375 
z
M 52.59375 71.296875 
L 52.59375 62.3125 
Q 48.875 64.0625 45.09375 64.984375 
Q 41.3125 65.921875 37.59375 65.921875 
Q 27.828125 65.921875 22.671875 59.328125 
Q 17.53125 52.734375 16.796875 39.40625 
Q 19.671875 43.65625 24.015625 45.921875 
Q 28.375 48.1875 33.59375 48.1875 
Q 44.578125 48.1875 50.953125 41.515625 
Q 57.328125 34.859375 57.328125 23.390625 
Q 57.328125 12.15625 50.6875 5.359375 
Q 44.046875 -1.421875 33.015625 -1.421875 
Q 20.359375 -1.421875 13.671875 8.265625 
Q 6.984375 17.96875 6.984375 36.375 
Q 6.984375 53.65625 15.1875 63.9375 
Q 23.390625 74.21875 37.203125 74.21875 
Q 40.921875 74.21875 44.703125 73.484375 
Q 48.484375 72.75 52.59375 71.296875 
z
" id="DejaVuSans-54"/>
      </defs>
      <g transform="translate(313.377143 322.594531)scale(0.17 -0.17)">
       <use xlink:href="#DejaVuSans-54"/>
      </g>
     </g>
    </g>
    <g id="text_4">
     <!-- log10(ERT of ALG 2) -->
     <defs>
      <path d="M 9.421875 75.984375 
L 18.40625 75.984375 
L 18.40625 0 
L 9.421875 0 
z
" id="DejaVuSans-108"/>
      <path d="M 30.609375 48.390625 
Q 23.390625 48.390625 19.1875 42.75 
Q 14.984375 37.109375 14.984375 27.296875 
Q 14.984375 17.484375 19.15625 11.84375 
Q 23.34375 6.203125 30.609375 6.203125 
Q 37.796875 6.203125 41.984375 11.859375 
Q 46.1875 17.53125 46.1875 27.296875 
Q 46.1875 37.015625 41.984375 42.703125 
Q 37.796875 48.390625 30.609375 48.390625 
z
M 30.609375 56 
Q 42.328125 56 49.015625 48.375 
Q 55.71875 40.765625 55.71875 27.296875 
Q 55.71875 13.875 49.015625 6.21875 
Q 42.328125 -1.421875 30.609375 -1.421875 
Q 18.84375 -1.421875 12.171875 6.21875 
Q 5.515625 13.875 5.515625 27.296875 
Q 5.515625 40.765625 12.171875 48.375 
Q 18.84375 56 30.609375 56 
z
" id="DejaVuSans-111"/>
      <path d="M 45.40625 27.984375 
Q 45.40625 37.75 41.375 43.109375 
Q 37.359375 48.484375 30.078125 48.484375 
Q 22.859375 48.484375 18.828125 43.109375 
Q 14.796875 37.75 14.796875 27.984375 
Q 14.796875 18.265625 18.828125 12.890625 
Q 22.859375 7.515625 30.078125 7.515625 
Q 37.359375 7.515625 41.375 12.890625 
Q 45.40625 18.265625 45.40625 27.984375 
z
M 54.390625 6.78125 
Q 54.390625 -7.171875 48.1875 -13.984375 
Q 42 -20.796875 29.203125 -20.796875 
Q 24.46875 -20.796875 20.265625 -20.09375 
Q 16.0625 -19.390625 12.109375 -17.921875 
L 12.109375 -9.1875 
Q 16.0625 -11.328125 19.921875 -12.34375 
Q 23.78125 -13.375 27.78125 -13.375 
Q 36.625 -13.375 41.015625 -8.765625 
Q 45.40625 -4.15625 45.40625 5.171875 
L 45.40625 9.625 
Q 42.625 4.78125 38.28125 2.390625 
Q 33.9375 0 27.875 0 
Q 17.828125 0 11.671875 7.65625 
Q 5.515625 15.328125 5.515625 27.984375 
Q 5.515625 40.671875 11.671875 48.328125 
Q 17.828125 56 27.875 56 
Q 33.9375 56 38.28125 53.609375 
Q 42.625 51.21875 45.40625 46.390625 
L 45.40625 54.6875 
L 54.390625 54.6875 
z
" id="DejaVuSans-103"/>
      <path d="M 12.40625 8.296875 
L 28.515625 8.296875 
L 28.515625 63.921875 
L 10.984375 60.40625 
L 10.984375 69.390625 
L 28.421875 72.90625 
L 38.28125 72.90625 
L 38.28125 8.296875 
L 54.390625 8.296875 
L 54.390625 0 
L 12.40625 0 
z
" id="DejaVuSans-49"/>
      <path d="M 31.78125 66.40625 
Q 24.171875 66.40625 20.328125 58.90625 
Q 16.5 51.421875 16.5 36.375 
Q 16.5 21.390625 20.328125 13.890625 
Q 24.171875 6.390625 31.78125 6.390625 
Q 39.453125 6.390625 43.28125 13.890625 
Q 47.125 21.390625 47.125 36.375 
Q 47.125 51.421875 43.28125 58.90625 
Q 39.453125 66.40625 31.78125 66.40625 
z
M 31.78125 74.21875 
Q 44.046875 74.21875 50.515625 64.515625 
Q 56.984375 54.828125 56.984375 36.375 
Q 56.984375 17.96875 50.515625 8.265625 
Q 44.046875 -1.421875 31.78125 -1.421875 
Q 19.53125 -1.421875 13.0625 8.265625 
Q 6.59375 17.96875 6.59375 36.375 
Q 6.59375 54.828125 13.0625 64.515625 
Q 19.53125 74.21875 31.78125 74.21875 
z
" id="DejaVuSans-48"/>
      <path d="M 31 75.875 
Q 24.46875 64.65625 21.28125 53.65625 
Q 18.109375 42.671875 18.109375 31.390625 
Q 18.109375 20.125 21.3125 9.0625 
Q 24.515625 -2 31 -13.1875 
L 23.1875 -13.1875 
Q 15.875 -1.703125 12.234375 9.375 
Q 8.59375 20.453125 8.59375 31.390625 
Q 8.59375 42.28125 12.203125 53.3125 
Q 15.828125 64.359375 23.1875 75.875 
z
" id="DejaVuSans-40"/>
      <path d="M 9.8125 72.90625 
L 55.90625 72.90625 
L 55.90625 64.59375 
L 19.671875 64.59375 
L 19.671875 43.015625 
L 54.390625 43.015625 
L 54.390625 34.71875 
L 19.671875 34.71875 
L 19.671875 8.296875 
L 56.78125 8.296875 
L 56.78125 0 
L 9.8125 0 
z
" id="DejaVuSans-69"/>
      <path d="M 44.390625 34.1875 
Q 47.5625 33.109375 50.5625 29.59375 
Q 53.5625 26.078125 56.59375 19.921875 
L 66.609375 0 
L 56 0 
L 46.6875 18.703125 
Q 43.0625 26.03125 39.671875 28.421875 
Q 36.28125 30.8125 30.421875 30.8125 
L 19.671875 30.8125 
L 19.671875 0 
L 9.8125 0 
L 9.8125 72.90625 
L 32.078125 72.90625 
Q 44.578125 72.90625 50.734375 67.671875 
Q 56.890625 62.453125 56.890625 51.90625 
Q 56.890625 45.015625 53.6875 40.46875 
Q 50.484375 35.9375 44.390625 34.1875 
z
M 19.671875 64.796875 
L 19.671875 38.921875 
L 32.078125 38.921875 
Q 39.203125 38.921875 42.84375 42.21875 
Q 46.484375 45.515625 46.484375 51.90625 
Q 46.484375 58.296875 42.84375 61.546875 
Q 39.203125 64.796875 32.078125 64.796875 
z
" id="DejaVuSans-82"/>
      <path d="M -0.296875 72.90625 
L 61.375 72.90625 
L 61.375 64.59375 
L 35.5 64.59375 
L 35.5 0 
L 25.59375 0 
L 25.59375 64.59375 
L -0.296875 64.59375 
z
" id="DejaVuSans-84"/>
      <path id="DejaVuSans-32"/>
      <path d="M 37.109375 75.984375 
L 37.109375 68.5 
L 28.515625 68.5 
Q 23.6875 68.5 21.796875 66.546875 
Q 19.921875 64.59375 19.921875 59.515625 
L 19.921875 54.6875 
L 34.71875 54.6875 
L 34.71875 47.703125 
L 19.921875 47.703125 
L 19.921875 0 
L 10.890625 0 
L 10.890625 47.703125 
L 2.296875 47.703125 
L 2.296875 54.6875 
L 10.890625 54.6875 
L 10.890625 58.5 
Q 10.890625 67.625 15.140625 71.796875 
Q 19.390625 75.984375 28.609375 75.984375 
z
" id="DejaVuSans-102"/>
      <path d="M 34.1875 63.1875 
L 20.796875 26.90625 
L 47.609375 26.90625 
z
M 28.609375 72.90625 
L 39.796875 72.90625 
L 67.578125 0 
L 57.328125 0 
L 50.6875 18.703125 
L 17.828125 18.703125 
L 11.1875 0 
L 0.78125 0 
z
" id="DejaVuSans-65"/>
      <path d="M 9.8125 72.90625 
L 19.671875 72.90625 
L 19.671875 8.296875 
L 55.171875 8.296875 
L 55.171875 0 
L 9.8125 0 
z
" id="DejaVuSans-76"/>
      <path d="M 59.515625 10.40625 
L 59.515625 29.984375 
L 43.40625 29.984375 
L 43.40625 38.09375 
L 69.28125 38.09375 
L 69.28125 6.78125 
Q 63.578125 2.734375 56.6875 0.65625 
Q 49.8125 -1.421875 42 -1.421875 
Q 24.90625 -1.421875 15.25 8.5625 
Q 5.609375 18.5625 5.609375 36.375 
Q 5.609375 54.25 15.25 64.234375 
Q 24.90625 74.21875 42 74.21875 
Q 49.125 74.21875 55.546875 72.453125 
Q 61.96875 70.703125 67.390625 67.28125 
L 67.390625 56.78125 
Q 61.921875 61.421875 55.765625 63.765625 
Q 49.609375 66.109375 42.828125 66.109375 
Q 29.4375 66.109375 22.71875 58.640625 
Q 16.015625 51.171875 16.015625 36.375 
Q 16.015625 21.625 22.71875 14.15625 
Q 29.4375 6.6875 42.828125 6.6875 
Q 48.046875 6.6875 52.140625 7.59375 
Q 56.25 8.5 59.515625 10.40625 
z
" id="DejaVuSans-71"/>
      <path d="M 8.015625 75.875 
L 15.828125 75.875 
Q 23.140625 64.359375 26.78125 53.3125 
Q 30.421875 42.28125 30.421875 31.390625 
Q 30.421875 20.453125 26.78125 9.375 
Q 23.140625 -1.703125 15.828125 -13.1875 
L 8.015625 -13.1875 
Q 14.5 -2 17.703125 9.0625 
Q 20.90625 20.125 20.90625 31.390625 
Q 20.90625 42.671875 17.703125 53.65625 
Q 14.5 64.65625 8.015625 75.875 
z
" id="DejaVuSans-41"/>
     </defs>
     <g transform="translate(97.659844 343.047344)scale(0.17 -0.17)">
      <use xlink:href="#DejaVuSans-108"/>
      <use x="27.783203" xlink:href="#DejaVuSans-111"/>
      <use x="88.964844" xlink:href="#DejaVuSans-103"/>
      <use x="152.441406" xlink:href="#DejaVuSans-49"/>
      <use x="216.064453" xlink:href="#DejaVuSans-48"/>
      <use x="279.6875" xlink:href="#DejaVuSans-40"/>
      <use x="318.701172" xlink:href="#DejaVuSans-69"/>
      <use x="381.884766" xlink:href="#DejaVuSans-82"/>
      <use x="451.257812" xlink:href="#DejaVuSans-84"/>
      <use x="512.341797" xlink:href="#DejaVuSans-32"/>
      <use x="544.128906" xlink:href="#DejaVuSans-111"/>
      <use x="605.310547" xlink:href="#DejaVuSans-102"/>
      <use x="640.515625" xlink:href="#DejaVuSans-32"/>
      <use x="672.302734" xlink:href="#DejaVuSans-65"/>
      <use x="740.710938" xlink:href="#DejaVuSans-76"/>
      <use x="796.423828" xlink:href="#DejaVuSans-71"/>
      <use x="873.914062" xlink:href="#DejaVuSans-32"/>
      <use x="905.701172" xlink:href="#DejaVuSans-50"/>
      <use x="969.324219" xlink:href="#DejaVuSans-41"/>
     </g>
    </g>
   </g>
   <g id="matplotlib.axis_2">
    <g id="ytick_1">
     <g id="line2d_17">
      <path clip-path="url(#p937bb1ca41)" d="M 45.469063 211.571786 
L 321.269063 211.571786 
" style="fill:none;stroke:#b0b0b0;stroke-linecap:square;stroke-width:0.8;"/>
     </g>
     <g id="line2d_18">
      <defs>
       <path d="M 0 0 
L -3.5 0 
" id="mec8e9499c8" style="stroke:#000000;stroke-width:0.8;"/>
      </defs>
      <g>
       <use style="stroke:#000000;stroke-width:0.8;" x="45.469063" xlink:href="#mec8e9499c8" y="211.571786"/>
      </g>
     </g>
     <g id="text_5">
      <!-- 2 -->
      <g transform="translate(27.652813 218.030458)scale(0.17 -0.17)">
       <use xlink:href="#DejaVuSans-50"/>
      </g>
     </g>
    </g>
    <g id="ytick_2">
     <g id="line2d_19">
      <path clip-path="url(#p937bb1ca41)" d="M 45.469063 120.466384 
L 321.269063 120.466384 
" style="fill:none;stroke:#b0b0b0;stroke-linecap:square;stroke-width:0.8;"/>
     </g>
     <g id="line2d_20">
      <g>
       <use style="stroke:#000000;stroke-width:0.8;" x="45.469063" xlink:href="#mec8e9499c8" y="120.466384"/>
      </g>
     </g>
     <g id="text_6">
      <!-- 4 -->
      <g transform="translate(27.652813 126.925056)scale(0.17 -0.17)">
       <use xlink:href="#DejaVuSans-52"/>
      </g>
     </g>
    </g>
    <g id="ytick_3">
     <g id="line2d_21">
      <path clip-path="url(#p937bb1ca41)" d="M 45.469063 29.360982 
L 321.269063 29.360982 
" style="fill:none;stroke:#b0b0b0;stroke-linecap:square;stroke-width:0.8;"/>
     </g>
     <g id="line2d_22">
      <g>
       <use style="stroke:#000000;stroke-width:0.8;" x="45.469063" xlink:href="#mec8e9499c8" y="29.360982"/>
      </g>
     </g>
     <g id="text_7">
      <!-- 6 -->
      <g transform="translate(27.652813 35.819654)scale(0.17 -0.17)">
       <use xlink:href="#DejaVuSans-54"/>
      </g>
     </g>
    </g>
    <g id="text_8">
     <!-- log10(ERT of ALG) -->
     <g transform="translate(20.117344 242.376875)rotate(-90)scale(0.17 -0.17)">
      <use xlink:href="#DejaVuSans-108"/>
      <use x="27.783203" xlink:href="#DejaVuSans-111"/>
      <use x="88.964844" xlink:href="#DejaVuSans-103"/>
      <use x="152.441406" xlink:href="#DejaVuSans-49"/>
      <use x="216.064453" xlink:href="#DejaVuSans-48"/>
      <use x="279.6875" xlink:href="#DejaVuSans-40"/>
      <use x="318.701172" xlink:href="#DejaVuSans-69"/>
      <use x="381.884766" xlink:href="#DejaVuSans-82"/>
      <use x="451.257812" xlink:href="#DejaVuSans-84"/>
      <use x="512.341797" xlink:href="#DejaVuSans-32"/>
      <use x="544.128906" xlink:href="#DejaVuSans-111"/>
      <use x="605.310547" xlink:href="#DejaVuSans-102"/>
      <use x="640.515625" xlink:href="#DejaVuSans-32"/>
      <use x="672.302734" xlink:href="#DejaVuSans-65"/>
      <use x="740.710938" xlink:href="#DejaVuSans-76"/>
      <use x="796.423828" xlink:href="#DejaVuSans-71"/>
      <use x="873.914062" xlink:href="#DejaVuSans-41"/>
     </g>
    </g>
   </g>
   <g id="line2d_23">
    <defs>
     <path d="M -7 0 
L 7 0 
M 0 7 
L 0 -7 
" id="m1c82726d52" style="stroke:#00bfbf;stroke-width:3;"/>
    </defs>
    <g>
     <use style="fill-opacity:0;stroke:#00bfbf;stroke-width:3;" x="45.469063" xlink:href="#m1c82726d52" y="302.677187"/>
     <use style="fill-opacity:0;stroke:#00bfbf;stroke-width:3;" x="64.873089" xlink:href="#m1c82726d52" y="272.202122"/>
     <use style="fill-opacity:0;stroke:#00bfbf;stroke-width:3;" x="78.585818" xlink:href="#m1c82726d52" y="261.538999"/>
     <use style="fill-opacity:0;stroke:#00bfbf;stroke-width:3;" x="83.000331" xlink:href="#m1c82726d52" y="231.241363"/>
     <use style="fill-opacity:0;stroke:#00bfbf;stroke-width:3;" x="97.201561" xlink:href="#m1c82726d52" y="229.864579"/>
     <use style="fill-opacity:0;stroke:#00bfbf;stroke-width:3;" x="109.669648" xlink:href="#m1c82726d52" y="223.761973"/>
     <use style="fill-opacity:0;stroke:#00bfbf;stroke-width:3;" x="111.85653" xlink:href="#m1c82726d52" y="223.761973"/>
     <use style="fill-opacity:0;stroke:#00bfbf;stroke-width:3;" x="118.6114" xlink:href="#m1c82726d52" y="221.89864"/>
     <use style="fill-opacity:0;stroke:#00bfbf;stroke-width:3;" x="127.642131" xlink:href="#m1c82726d52" y="217.528634"/>
     <use style="fill-opacity:0;stroke:#00bfbf;stroke-width:3;" x="141.041662" xlink:href="#m1c82726d52" y="211.244782"/>
     <use style="fill-opacity:0;stroke:#00bfbf;stroke-width:3;" x="155.502968" xlink:href="#m1c82726d52" y="199.61643"/>
     <use style="fill-opacity:0;stroke:#00bfbf;stroke-width:3;" x="161.749994" xlink:href="#m1c82726d52" y="194.528831"/>
     <use style="fill-opacity:0;stroke:#00bfbf;stroke-width:3;" x="169.924762" xlink:href="#m1c82726d52" y="178.393304"/>
     <use style="fill-opacity:0;stroke:#00bfbf;stroke-width:3;" x="175.973288" xlink:href="#m1c82726d52" y="170.590839"/>
     <use style="fill-opacity:0;stroke:#00bfbf;stroke-width:3;" x="188.331074" xlink:href="#m1c82726d52" y="159.02629"/>
     <use style="fill-opacity:0;stroke:#00bfbf;stroke-width:3;" x="196.939694" xlink:href="#m1c82726d52" y="149.395718"/>
     <use style="fill-opacity:0;stroke:#00bfbf;stroke-width:3;" x="209.002658" xlink:href="#m1c82726d52" y="138.373937"/>
     <use style="fill-opacity:0;stroke:#00bfbf;stroke-width:3;" x="219.453609" xlink:href="#m1c82726d52" y="125.148955"/>
     <use style="fill-opacity:0;stroke:#00bfbf;stroke-width:3;" x="240.353883" xlink:href="#m1c82726d52" y="107.765802"/>
    </g>
   </g>
   <g id="line2d_24">
    <defs>
     <path d="M -4 0 
L 4 0 
M 0 4 
L 0 -4 
" id="m41009b2145" style="stroke:#00bfbf;"/>
    </defs>
    <g>
     <use style="fill-opacity:0;stroke:#00bfbf;" x="257.434141" xlink:href="#m41009b2145" y="90.732783"/>
     <use style="fill-opacity:0;stroke:#00bfbf;" x="259.308216" xlink:href="#m41009b2145" y="89.567996"/>
     <use style="fill-opacity:0;stroke:#00bfbf;" x="261.520871" xlink:href="#m41009b2145" y="87.242102"/>
    </g>
   </g>
   <g id="line2d_25">
    <defs>
     <path d="M -0 7 
L 7 -7 
L -7 -7 
z
" id="m04eed146cc" style="stroke:#008000;stroke-linejoin:miter;stroke-width:3;"/>
    </defs>
    <g>
     <use style="fill-opacity:0;stroke:#008000;stroke-linejoin:miter;stroke-width:3;" x="45.469063" xlink:href="#m04eed146cc" y="302.677187"/>
     <use style="fill-opacity:0;stroke:#008000;stroke-linejoin:miter;stroke-width:3;" x="45.469063" xlink:href="#m04eed146cc" y="302.677187"/>
     <use style="fill-opacity:0;stroke:#008000;stroke-linejoin:miter;stroke-width:3;" x="67.203224" xlink:href="#m04eed146cc" y="256.475796"/>
     <use style="fill-opacity:0;stroke:#008000;stroke-linejoin:miter;stroke-width:3;" x="71.17315" xlink:href="#m04eed146cc" y="233.705623"/>
     <use style="fill-opacity:0;stroke:#008000;stroke-linejoin:miter;stroke-width:3;" x="71.17315" xlink:href="#m04eed146cc" y="229.53485"/>
     <use style="fill-opacity:0;stroke:#008000;stroke-linejoin:miter;stroke-width:3;" x="118.281671" xlink:href="#m04eed146cc" y="226.934077"/>
     <use style="fill-opacity:0;stroke:#008000;stroke-linejoin:miter;stroke-width:3;" x="118.935723" xlink:href="#m04eed146cc" y="225.955199"/>
     <use style="fill-opacity:0;stroke:#008000;stroke-linejoin:miter;stroke-width:3;" x="124.506021" xlink:href="#m04eed146cc" y="225.153064"/>
     <use style="fill-opacity:0;stroke:#008000;stroke-linejoin:miter;stroke-width:3;" x="125.569259" xlink:href="#m04eed146cc" y="221.677595"/>
     <use style="fill-opacity:0;stroke:#008000;stroke-linejoin:miter;stroke-width:3;" x="138.757512" xlink:href="#m04eed146cc" y="195.499634"/>
     <use style="fill-opacity:0;stroke:#008000;stroke-linejoin:miter;stroke-width:3;" x="151.563978" xlink:href="#m04eed146cc" y="192.167759"/>
     <use style="fill-opacity:0;stroke:#008000;stroke-linejoin:miter;stroke-width:3;" x="160.531004" xlink:href="#m04eed146cc" y="190.214883"/>
     <use style="fill-opacity:0;stroke:#008000;stroke-linejoin:miter;stroke-width:3;" x="175.628275" xlink:href="#m04eed146cc" y="173.150796"/>
     <use style="fill-opacity:0;stroke:#008000;stroke-linejoin:miter;stroke-width:3;" x="184.215499" xlink:href="#m04eed146cc" y="167.110339"/>
     <use style="fill-opacity:0;stroke:#008000;stroke-linejoin:miter;stroke-width:3;" x="188.708183" xlink:href="#m04eed146cc" y="157.896795"/>
     <use style="fill-opacity:0;stroke:#008000;stroke-linejoin:miter;stroke-width:3;" x="200.532054" xlink:href="#m04eed146cc" y="145.42036"/>
     <use style="fill-opacity:0;stroke:#008000;stroke-linejoin:miter;stroke-width:3;" x="211.221169" xlink:href="#m04eed146cc" y="134.694868"/>
     <use style="fill-opacity:0;stroke:#008000;stroke-linejoin:miter;stroke-width:3;" x="225.066794" xlink:href="#m04eed146cc" y="123.714931"/>
     <use style="fill-opacity:0;stroke:#008000;stroke-linejoin:miter;stroke-width:3;" x="237.936835" xlink:href="#m04eed146cc" y="109.665097"/>
     <use style="fill-opacity:0;stroke:#008000;stroke-linejoin:miter;stroke-width:3;" x="239.268061" xlink:href="#m04eed146cc" y="107.928357"/>
     <use style="fill-opacity:0;stroke:#008000;stroke-linejoin:miter;stroke-width:3;" x="240.305348" xlink:href="#m04eed146cc" y="107.43338"/>
     <use style="fill-opacity:0;stroke:#008000;stroke-linejoin:miter;stroke-width:3;" x="242.005676" xlink:href="#m04eed146cc" y="106.221774"/>
    </g>
   </g>
   <g id="line2d_26">
    <defs>
     <path d="M 0 -7 
L -1.571598 -2.163119 
L -6.657396 -2.163119 
L -2.542899 0.826238 
L -4.114497 5.663119 
L -0 2.673762 
L 4.114497 5.663119 
L 2.542899 0.826238 
L 6.657396 -2.163119 
L 1.571598 -2.163119 
z
" id="m9ef5c9a1cd" style="stroke:#0000ff;stroke-linejoin:bevel;stroke-width:3;"/>
    </defs>
    <g>
     <use style="fill-opacity:0;stroke:#0000ff;stroke-linejoin:bevel;stroke-width:3;" x="45.469063" xlink:href="#m9ef5c9a1cd" y="302.677187"/>
     <use style="fill-opacity:0;stroke:#0000ff;stroke-linejoin:bevel;stroke-width:3;" x="45.469063" xlink:href="#m9ef5c9a1cd" y="302.677187"/>
     <use style="fill-opacity:0;stroke:#0000ff;stroke-linejoin:bevel;stroke-width:3;" x="45.469063" xlink:href="#m9ef5c9a1cd" y="302.677187"/>
     <use style="fill-opacity:0;stroke:#0000ff;stroke-linejoin:bevel;stroke-width:3;" x="45.469063" xlink:href="#m9ef5c9a1cd" y="302.677187"/>
     <use style="fill-opacity:0;stroke:#0000ff;stroke-linejoin:bevel;stroke-width:3;" x="116.725851" xlink:href="#m9ef5c9a1cd" y="245.865926"/>
     <use style="fill-opacity:0;stroke:#0000ff;stroke-linejoin:bevel;stroke-width:3;" x="122.191051" xlink:href="#m9ef5c9a1cd" y="233.705623"/>
     <use style="fill-opacity:0;stroke:#0000ff;stroke-linejoin:bevel;stroke-width:3;" x="126.358441" xlink:href="#m9ef5c9a1cd" y="229.699028"/>
     <use style="fill-opacity:0;stroke:#0000ff;stroke-linejoin:bevel;stroke-width:3;" x="129.705782" xlink:href="#m9ef5c9a1cd" y="225.955199"/>
     <use style="fill-opacity:0;stroke:#0000ff;stroke-linejoin:bevel;stroke-width:3;" x="131.231781" xlink:href="#m9ef5c9a1cd" y="218.912645"/>
     <use style="fill-opacity:0;stroke:#0000ff;stroke-linejoin:bevel;stroke-width:3;" x="138.757512" xlink:href="#m9ef5c9a1cd" y="207.746264"/>
     <use style="fill-opacity:0;stroke:#0000ff;stroke-linejoin:bevel;stroke-width:3;" x="140.454261" xlink:href="#m9ef5c9a1cd" y="204.727738"/>
     <use style="fill-opacity:0;stroke:#0000ff;stroke-linejoin:bevel;stroke-width:3;" x="154.542804" xlink:href="#m9ef5c9a1cd" y="200.425524"/>
     <use style="fill-opacity:0;stroke:#0000ff;stroke-linejoin:bevel;stroke-width:3;" x="158.548956" xlink:href="#m9ef5c9a1cd" y="189.467425"/>
     <use style="fill-opacity:0;stroke:#0000ff;stroke-linejoin:bevel;stroke-width:3;" x="161.016151" xlink:href="#m9ef5c9a1cd" y="175.84118"/>
     <use style="fill-opacity:0;stroke:#0000ff;stroke-linejoin:bevel;stroke-width:3;" x="170.514633" xlink:href="#m9ef5c9a1cd" y="174.259339"/>
     <use style="fill-opacity:0;stroke:#0000ff;stroke-linejoin:bevel;stroke-width:3;" x="177.974686" xlink:href="#m9ef5c9a1cd" y="170.976784"/>
     <use style="fill-opacity:0;stroke:#0000ff;stroke-linejoin:bevel;stroke-width:3;" x="195.393059" xlink:href="#m9ef5c9a1cd" y="161.384231"/>
     <use style="fill-opacity:0;stroke:#0000ff;stroke-linejoin:bevel;stroke-width:3;" x="200.526851" xlink:href="#m9ef5c9a1cd" y="159.916641"/>
     <use style="fill-opacity:0;stroke:#0000ff;stroke-linejoin:bevel;stroke-width:3;" x="206.714008" xlink:href="#m9ef5c9a1cd" y="153.321105"/>
     <use style="fill-opacity:0;stroke:#0000ff;stroke-linejoin:bevel;stroke-width:3;" x="213.524348" xlink:href="#m9ef5c9a1cd" y="134.738235"/>
     <use style="fill-opacity:0;stroke:#0000ff;stroke-linejoin:bevel;stroke-width:3;" x="228.973335" xlink:href="#m9ef5c9a1cd" y="123.367516"/>
     <use style="fill-opacity:0;stroke:#0000ff;stroke-linejoin:bevel;stroke-width:3;" x="229.742074" xlink:href="#m9ef5c9a1cd" y="115.517359"/>
    </g>
   </g>
   <g id="line2d_27">
    <defs>
     <path d="M 0 7 
C 1.856422 7 3.637059 6.262436 4.949747 4.949747 
C 6.262436 3.637059 7 1.856422 7 0 
C 7 -1.856422 6.262436 -3.637059 4.949747 -4.949747 
C 3.637059 -6.262436 1.856422 -7 0 -7 
C -1.856422 -7 -3.637059 -6.262436 -4.949747 -4.949747 
C -6.262436 -3.637059 -7 -1.856422 -7 0 
C -7 1.856422 -6.262436 3.637059 -4.949747 4.949747 
C -3.637059 6.262436 -1.856422 7 0 7 
z
" id="m36a3b8330e" style="stroke:#000000;stroke-width:3;"/>
    </defs>
    <g>
     <use style="fill-opacity:0;stroke:#000000;stroke-width:3;" x="45.469063" xlink:href="#m36a3b8330e" y="302.677187"/>
     <use style="fill-opacity:0;stroke:#000000;stroke-width:3;" x="45.469063" xlink:href="#m36a3b8330e" y="302.677187"/>
     <use style="fill-opacity:0;stroke:#000000;stroke-width:3;" x="45.469063" xlink:href="#m36a3b8330e" y="302.677187"/>
     <use style="fill-opacity:0;stroke:#000000;stroke-width:3;" x="45.469063" xlink:href="#m36a3b8330e" y="302.677187"/>
     <use style="fill-opacity:0;stroke:#000000;stroke-width:3;" x="71.17315" xlink:href="#m36a3b8330e" y="262.380969"/>
     <use style="fill-opacity:0;stroke:#000000;stroke-width:3;" x="120.332771" xlink:href="#m36a3b8330e" y="219.396368"/>
     <use style="fill-opacity:0;stroke:#000000;stroke-width:3;" x="129.233605" xlink:href="#m36a3b8330e" y="210.859381"/>
     <use style="fill-opacity:0;stroke:#000000;stroke-width:3;" x="137.030771" xlink:href="#m36a3b8330e" y="205.979653"/>
     <use style="fill-opacity:0;stroke:#000000;stroke-width:3;" x="145.11654" xlink:href="#m36a3b8330e" y="201.151949"/>
     <use style="fill-opacity:0;stroke:#000000;stroke-width:3;" x="155.093468" xlink:href="#m36a3b8330e" y="195.617043"/>
     <use style="fill-opacity:0;stroke:#000000;stroke-width:3;" x="163.633863" xlink:href="#m36a3b8330e" y="176.423892"/>
     <use style="fill-opacity:0;stroke:#000000;stroke-width:3;" x="183.5763" xlink:href="#m36a3b8330e" y="165.841832"/>
     <use style="fill-opacity:0;stroke:#000000;stroke-width:3;" x="202.271407" xlink:href="#m36a3b8330e" y="147.13369"/>
     <use style="fill-opacity:0;stroke:#000000;stroke-width:3;" x="203.689125" xlink:href="#m36a3b8330e" y="146.509008"/>
     <use style="fill-opacity:0;stroke:#000000;stroke-width:3;" x="204.698441" xlink:href="#m36a3b8330e" y="142.463424"/>
     <use style="fill-opacity:0;stroke:#000000;stroke-width:3;" x="221.952487" xlink:href="#m36a3b8330e" y="133.08368"/>
     <use style="fill-opacity:0;stroke:#000000;stroke-width:3;" x="223.416447" xlink:href="#m36a3b8330e" y="123.089242"/>
     <use style="fill-opacity:0;stroke:#000000;stroke-width:3;" x="236.007535" xlink:href="#m36a3b8330e" y="110.869562"/>
     <use style="fill-opacity:0;stroke:#000000;stroke-width:3;" x="242.018618" xlink:href="#m36a3b8330e" y="99.261745"/>
     <use style="fill-opacity:0;stroke:#000000;stroke-width:3;" x="248.219138" xlink:href="#m36a3b8330e" y="94.745757"/>
     <use style="fill-opacity:0;stroke:#000000;stroke-width:3;" x="256.328405" xlink:href="#m36a3b8330e" y="87.722449"/>
     <use style="fill-opacity:0;stroke:#000000;stroke-width:3;" x="271.623819" xlink:href="#m36a3b8330e" y="75.696768"/>
    </g>
   </g>
   <g id="line2d_28">
    <defs>
     <path d="M -7 7 
L 7 7 
L 7 -7 
L -7 -7 
z
" id="mb6693fb9c1" style="stroke:#ff0000;stroke-linejoin:miter;stroke-width:3;"/>
    </defs>
    <g>
     <use style="fill-opacity:0;stroke:#ff0000;stroke-linejoin:miter;stroke-width:3;" x="45.469063" xlink:href="#mb6693fb9c1" y="302.677187"/>
     <use style="fill-opacity:0;stroke:#ff0000;stroke-linejoin:miter;stroke-width:3;" x="45.469063" xlink:href="#mb6693fb9c1" y="302.677187"/>
     <use style="fill-opacity:0;stroke:#ff0000;stroke-linejoin:miter;stroke-width:3;" x="45.469063" xlink:href="#mb6693fb9c1" y="302.677187"/>
     <use style="fill-opacity:0;stroke:#ff0000;stroke-linejoin:miter;stroke-width:3;" x="45.469063" xlink:href="#mb6693fb9c1" y="302.677187"/>
     <use style="fill-opacity:0;stroke:#ff0000;stroke-linejoin:miter;stroke-width:3;" x="118.281671" xlink:href="#mb6693fb9c1" y="233.305948"/>
     <use style="fill-opacity:0;stroke:#ff0000;stroke-linejoin:miter;stroke-width:3;" x="148.886929" xlink:href="#mb6693fb9c1" y="209.329772"/>
     <use style="fill-opacity:0;stroke:#ff0000;stroke-linejoin:miter;stroke-width:3;" x="155.401385" xlink:href="#mb6693fb9c1" y="203.860512"/>
     <use style="fill-opacity:0;stroke:#ff0000;stroke-linejoin:miter;stroke-width:3;" x="164.229392" xlink:href="#mb6693fb9c1" y="191.558995"/>
     <use style="fill-opacity:0;stroke:#ff0000;stroke-linejoin:miter;stroke-width:3;" x="173.370135" xlink:href="#mb6693fb9c1" y="173.687585"/>
     <use style="fill-opacity:0;stroke:#ff0000;stroke-linejoin:miter;stroke-width:3;" x="191.752386" xlink:href="#mb6693fb9c1" y="156.47104"/>
     <use style="fill-opacity:0;stroke:#ff0000;stroke-linejoin:miter;stroke-width:3;" x="201.397201" xlink:href="#mb6693fb9c1" y="141.502777"/>
     <use style="fill-opacity:0;stroke:#ff0000;stroke-linejoin:miter;stroke-width:3;" x="204.349828" xlink:href="#mb6693fb9c1" y="140.016908"/>
     <use style="fill-opacity:0;stroke:#ff0000;stroke-linejoin:miter;stroke-width:3;" x="213.547263" xlink:href="#mb6693fb9c1" y="122.475435"/>
     <use style="fill-opacity:0;stroke:#ff0000;stroke-linejoin:miter;stroke-width:3;" x="221.195625" xlink:href="#mb6693fb9c1" y="122.016563"/>
     <use style="fill-opacity:0;stroke:#ff0000;stroke-linejoin:miter;stroke-width:3;" x="240.801226" xlink:href="#mb6693fb9c1" y="110.769538"/>
     <use style="fill-opacity:0;stroke:#ff0000;stroke-linejoin:miter;stroke-width:3;" x="252.891936" xlink:href="#mb6693fb9c1" y="105.481508"/>
     <use style="fill-opacity:0;stroke:#ff0000;stroke-linejoin:miter;stroke-width:3;" x="255.410588" xlink:href="#mb6693fb9c1" y="94.024983"/>
     <use style="fill-opacity:0;stroke:#ff0000;stroke-linejoin:miter;stroke-width:3;" x="262.719341" xlink:href="#mb6693fb9c1" y="86.89602"/>
     <use style="fill-opacity:0;stroke:#ff0000;stroke-linejoin:miter;stroke-width:3;" x="272.913609" xlink:href="#mb6693fb9c1" y="75.82776"/>
     <use style="fill-opacity:0;stroke:#ff0000;stroke-linejoin:miter;stroke-width:3;" x="285.429677" xlink:href="#mb6693fb9c1" y="61.364544"/>
    </g>
   </g>
   <g id="line2d_29">
    <defs>
     <path d="M -4 4 
L 4 4 
L 4 -4 
L -4 -4 
z
" id="m403fde00d4" style="stroke:#ff0000;stroke-linejoin:miter;"/>
    </defs>
    <g>
     <use style="fill-opacity:0;stroke:#ff0000;stroke-linejoin:miter;" x="290.397592" xlink:href="#m403fde00d4" y="42.385303"/>
    </g>
   </g>
   <g id="line2d_30">
    <g>
     <use style="fill-opacity:0;stroke:#ff0000;stroke-linejoin:miter;" x="308.135729" xlink:href="#m403fde00d4" y="26.877187"/>
    </g>
   </g>
   <g id="line2d_31">
    <path clip-path="url(#p937bb1ca41)" d="M 45.469063 302.677187 
L 321.269063 26.877187 
" style="fill:none;stroke:#000000;stroke-linecap:square;stroke-width:1.5;"/>
   </g>
   <g id="line2d_32">
    <path clip-path="url(#p937bb1ca41)" d="M 91.021763 302.677187 
L 332.393393 61.305558 
" style="fill:none;stroke:#d3d3d3;stroke-linecap:square;"/>
   </g>
   <g id="line2d_33">
    <path clip-path="url(#p937bb1ca41)" d="M 136.574464 302.677187 
L 332.393393 106.858259 
" style="fill:none;stroke:#d3d3d3;stroke-linecap:square;"/>
   </g>
   <g id="line2d_34">
    <path clip-path="url(#p937bb1ca41)" d="M 45.469063 257.124487 
L 303.593549 -1 
" style="fill:none;stroke:#d3d3d3;stroke-linecap:square;"/>
   </g>
   <g id="line2d_35">
    <path clip-path="url(#p937bb1ca41)" d="M 45.469063 211.571786 
L 258.040848 -1 
" style="fill:none;stroke:#d3d3d3;stroke-linecap:square;"/>
   </g>
   <g id="patch_3">
    <path d="M 45.469063 302.677187 
L 45.469063 26.877187 
" style="fill:none;stroke:#000000;stroke-linecap:square;stroke-linejoin:miter;stroke-width:0.8;"/>
   </g>
   <g id="patch_4">
    <path d="M 321.269063 302.677187 
L 321.269063 26.877187 
" style="fill:none;stroke:#000000;stroke-linecap:square;stroke-linejoin:miter;stroke-width:0.8;"/>
   </g>
   <g id="patch_5">
    <path d="M 45.469063 302.677187 
L 321.269063 302.677187 
" style="fill:none;stroke:#000000;stroke-linecap:square;stroke-linejoin:miter;stroke-width:0.8;"/>
   </g>
   <g id="patch_6">
    <path d="M 45.469063 26.877187 
L 321.269063 26.877187 
" style="fill:none;stroke:#000000;stroke-linecap:square;stroke-linejoin:miter;stroke-width:0.8;"/>
   </g>
   <g id="text_9">
    <!-- 22 targets: 3e21..1e-5 -->
    <defs>
     <path d="M 18.3125 70.21875 
L 18.3125 54.6875 
L 36.8125 54.6875 
L 36.8125 47.703125 
L 18.3125 47.703125 
L 18.3125 18.015625 
Q 18.3125 11.328125 20.140625 9.421875 
Q 21.96875 7.515625 27.59375 7.515625 
L 36.8125 7.515625 
L 36.8125 0 
L 27.59375 0 
Q 17.1875 0 13.234375 3.875 
Q 9.28125 7.765625 9.28125 18.015625 
L 9.28125 47.703125 
L 2.6875 47.703125 
L 2.6875 54.6875 
L 9.28125 54.6875 
L 9.28125 70.21875 
z
" id="DejaVuSans-116"/>
     <path d="M 34.28125 27.484375 
Q 23.390625 27.484375 19.1875 25 
Q 14.984375 22.515625 14.984375 16.5 
Q 14.984375 11.71875 18.140625 8.90625 
Q 21.296875 6.109375 26.703125 6.109375 
Q 34.1875 6.109375 38.703125 11.40625 
Q 43.21875 16.703125 43.21875 25.484375 
L 43.21875 27.484375 
z
M 52.203125 31.203125 
L 52.203125 0 
L 43.21875 0 
L 43.21875 8.296875 
Q 40.140625 3.328125 35.546875 0.953125 
Q 30.953125 -1.421875 24.3125 -1.421875 
Q 15.921875 -1.421875 10.953125 3.296875 
Q 6 8.015625 6 15.921875 
Q 6 25.140625 12.171875 29.828125 
Q 18.359375 34.515625 30.609375 34.515625 
L 43.21875 34.515625 
L 43.21875 35.40625 
Q 43.21875 41.609375 39.140625 45 
Q 35.0625 48.390625 27.6875 48.390625 
Q 23 48.390625 18.546875 47.265625 
Q 14.109375 46.140625 10.015625 43.890625 
L 10.015625 52.203125 
Q 14.9375 54.109375 19.578125 55.046875 
Q 24.21875 56 28.609375 56 
Q 40.484375 56 46.34375 49.84375 
Q 52.203125 43.703125 52.203125 31.203125 
z
" id="DejaVuSans-97"/>
     <path d="M 41.109375 46.296875 
Q 39.59375 47.171875 37.8125 47.578125 
Q 36.03125 48 33.890625 48 
Q 26.265625 48 22.1875 43.046875 
Q 18.109375 38.09375 18.109375 28.8125 
L 18.109375 0 
L 9.078125 0 
L 9.078125 54.6875 
L 18.109375 54.6875 
L 18.109375 46.1875 
Q 20.953125 51.171875 25.484375 53.578125 
Q 30.03125 56 36.53125 56 
Q 37.453125 56 38.578125 55.875 
Q 39.703125 55.765625 41.0625 55.515625 
z
" id="DejaVuSans-114"/>
     <path d="M 56.203125 29.59375 
L 56.203125 25.203125 
L 14.890625 25.203125 
Q 15.484375 15.921875 20.484375 11.0625 
Q 25.484375 6.203125 34.421875 6.203125 
Q 39.59375 6.203125 44.453125 7.46875 
Q 49.3125 8.734375 54.109375 11.28125 
L 54.109375 2.78125 
Q 49.265625 0.734375 44.1875 -0.34375 
Q 39.109375 -1.421875 33.890625 -1.421875 
Q 20.796875 -1.421875 13.15625 6.1875 
Q 5.515625 13.8125 5.515625 26.8125 
Q 5.515625 40.234375 12.765625 48.109375 
Q 20.015625 56 32.328125 56 
Q 43.359375 56 49.78125 48.890625 
Q 56.203125 41.796875 56.203125 29.59375 
z
M 47.21875 32.234375 
Q 47.125 39.59375 43.09375 43.984375 
Q 39.0625 48.390625 32.421875 48.390625 
Q 24.90625 48.390625 20.390625 44.140625 
Q 15.875 39.890625 15.1875 32.171875 
z
" id="DejaVuSans-101"/>
     <path d="M 44.28125 53.078125 
L 44.28125 44.578125 
Q 40.484375 46.53125 36.375 47.5 
Q 32.28125 48.484375 27.875 48.484375 
Q 21.1875 48.484375 17.84375 46.4375 
Q 14.5 44.390625 14.5 40.28125 
Q 14.5 37.15625 16.890625 35.375 
Q 19.28125 33.59375 26.515625 31.984375 
L 29.59375 31.296875 
Q 39.15625 29.25 43.1875 25.515625 
Q 47.21875 21.78125 47.21875 15.09375 
Q 47.21875 7.46875 41.1875 3.015625 
Q 35.15625 -1.421875 24.609375 -1.421875 
Q 20.21875 -1.421875 15.453125 -0.5625 
Q 10.6875 0.296875 5.421875 2 
L 5.421875 11.28125 
Q 10.40625 8.6875 15.234375 7.390625 
Q 20.0625 6.109375 24.8125 6.109375 
Q 31.15625 6.109375 34.5625 8.28125 
Q 37.984375 10.453125 37.984375 14.40625 
Q 37.984375 18.0625 35.515625 20.015625 
Q 33.0625 21.96875 24.703125 23.78125 
L 21.578125 24.515625 
Q 13.234375 26.265625 9.515625 29.90625 
Q 5.8125 33.546875 5.8125 39.890625 
Q 5.8125 47.609375 11.28125 51.796875 
Q 16.75 56 26.8125 56 
Q 31.78125 56 36.171875 55.265625 
Q 40.578125 54.546875 44.28125 53.078125 
z
" id="DejaVuSans-115"/>
     <path d="M 11.71875 12.40625 
L 22.015625 12.40625 
L 22.015625 0 
L 11.71875 0 
z
M 11.71875 51.703125 
L 22.015625 51.703125 
L 22.015625 39.3125 
L 11.71875 39.3125 
z
" id="DejaVuSans-58"/>
     <path d="M 40.578125 39.3125 
Q 47.65625 37.796875 51.625 33 
Q 55.609375 28.21875 55.609375 21.1875 
Q 55.609375 10.40625 48.1875 4.484375 
Q 40.765625 -1.421875 27.09375 -1.421875 
Q 22.515625 -1.421875 17.65625 -0.515625 
Q 12.796875 0.390625 7.625 2.203125 
L 7.625 11.71875 
Q 11.71875 9.328125 16.59375 8.109375 
Q 21.484375 6.890625 26.8125 6.890625 
Q 36.078125 6.890625 40.9375 10.546875 
Q 45.796875 14.203125 45.796875 21.1875 
Q 45.796875 27.640625 41.28125 31.265625 
Q 36.765625 34.90625 28.71875 34.90625 
L 20.21875 34.90625 
L 20.21875 43.015625 
L 29.109375 43.015625 
Q 36.375 43.015625 40.234375 45.921875 
Q 44.09375 48.828125 44.09375 54.296875 
Q 44.09375 59.90625 40.109375 62.90625 
Q 36.140625 65.921875 28.71875 65.921875 
Q 24.65625 65.921875 20.015625 65.03125 
Q 15.375 64.15625 9.8125 62.3125 
L 9.8125 71.09375 
Q 15.4375 72.65625 20.34375 73.4375 
Q 25.25 74.21875 29.59375 74.21875 
Q 40.828125 74.21875 47.359375 69.109375 
Q 53.90625 64.015625 53.90625 55.328125 
Q 53.90625 49.265625 50.4375 45.09375 
Q 46.96875 40.921875 40.578125 39.3125 
z
" id="DejaVuSans-51"/>
     <path d="M 10.6875 12.40625 
L 21 12.40625 
L 21 0 
L 10.6875 0 
z
" id="DejaVuSans-46"/>
     <path d="M 4.890625 31.390625 
L 31.203125 31.390625 
L 31.203125 23.390625 
L 4.890625 23.390625 
z
" id="DejaVuSans-45"/>
     <path d="M 10.796875 72.90625 
L 49.515625 72.90625 
L 49.515625 64.59375 
L 19.828125 64.59375 
L 19.828125 46.734375 
Q 21.96875 47.46875 24.109375 47.828125 
Q 26.265625 48.1875 28.421875 48.1875 
Q 40.625 48.1875 47.75 41.5 
Q 54.890625 34.8125 54.890625 23.390625 
Q 54.890625 11.625 47.5625 5.09375 
Q 40.234375 -1.421875 26.90625 -1.421875 
Q 22.3125 -1.421875 17.546875 -0.640625 
Q 12.796875 0.140625 7.71875 1.703125 
L 7.71875 11.625 
Q 12.109375 9.234375 16.796875 8.0625 
Q 21.484375 6.890625 26.703125 6.890625 
Q 35.15625 6.890625 40.078125 11.328125 
Q 45.015625 15.765625 45.015625 23.390625 
Q 45.015625 31 40.078125 35.4375 
Q 35.15625 39.890625 26.703125 39.890625 
Q 22.75 39.890625 18.8125 39.015625 
Q 14.890625 38.140625 10.796875 36.28125 
z
" id="DejaVuSans-53"/>
    </defs>
    <g transform="translate(48.227063 40.143594)scale(0.102 -0.102)">
     <use xlink:href="#DejaVuSans-50"/>
     <use x="63.623047" xlink:href="#DejaVuSans-50"/>
     <use x="127.246094" xlink:href="#DejaVuSans-32"/>
     <use x="159.033203" xlink:href="#DejaVuSans-116"/>
     <use x="198.242188" xlink:href="#DejaVuSans-97"/>
     <use x="259.521484" xlink:href="#DejaVuSans-114"/>
     <use x="300.619141" xlink:href="#DejaVuSans-103"/>
     <use x="364.095703" xlink:href="#DejaVuSans-101"/>
     <use x="425.619141" xlink:href="#DejaVuSans-116"/>
     <use x="464.828125" xlink:href="#DejaVuSans-115"/>
     <use x="516.927734" xlink:href="#DejaVuSans-58"/>
     <use x="550.619141" xlink:href="#DejaVuSans-32"/>
     <use x="582.40625" xlink:href="#DejaVuSans-51"/>
     <use x="646.029297" xlink:href="#DejaVuSans-101"/>
     <use x="707.552734" xlink:href="#DejaVuSans-50"/>
     <use x="771.175781" xlink:href="#DejaVuSans-49"/>
     <use x="834.798828" xlink:href="#DejaVuSans-46"/>
     <use x="866.585938" xlink:href="#DejaVuSans-46"/>
     <use x="898.373047" xlink:href="#DejaVuSans-49"/>
     <use x="961.996094" xlink:href="#DejaVuSans-101"/>
     <use x="1023.519531" xlink:href="#DejaVuSans-45"/>
     <use x="1059.603516" xlink:href="#DejaVuSans-53"/>
    </g>
    <!-- 3 and 3 instances -->
    <defs>
     <path d="M 54.890625 33.015625 
L 54.890625 0 
L 45.90625 0 
L 45.90625 32.71875 
Q 45.90625 40.484375 42.875 44.328125 
Q 39.84375 48.1875 33.796875 48.1875 
Q 26.515625 48.1875 22.3125 43.546875 
Q 18.109375 38.921875 18.109375 30.90625 
L 18.109375 0 
L 9.078125 0 
L 9.078125 54.6875 
L 18.109375 54.6875 
L 18.109375 46.1875 
Q 21.34375 51.125 25.703125 53.5625 
Q 30.078125 56 35.796875 56 
Q 45.21875 56 50.046875 50.171875 
Q 54.890625 44.34375 54.890625 33.015625 
z
" id="DejaVuSans-110"/>
     <path d="M 45.40625 46.390625 
L 45.40625 75.984375 
L 54.390625 75.984375 
L 54.390625 0 
L 45.40625 0 
L 45.40625 8.203125 
Q 42.578125 3.328125 38.25 0.953125 
Q 33.9375 -1.421875 27.875 -1.421875 
Q 17.96875 -1.421875 11.734375 6.484375 
Q 5.515625 14.40625 5.515625 27.296875 
Q 5.515625 40.1875 11.734375 48.09375 
Q 17.96875 56 27.875 56 
Q 33.9375 56 38.25 53.625 
Q 42.578125 51.265625 45.40625 46.390625 
z
M 14.796875 27.296875 
Q 14.796875 17.390625 18.875 11.75 
Q 22.953125 6.109375 30.078125 6.109375 
Q 37.203125 6.109375 41.296875 11.75 
Q 45.40625 17.390625 45.40625 27.296875 
Q 45.40625 37.203125 41.296875 42.84375 
Q 37.203125 48.484375 30.078125 48.484375 
Q 22.953125 48.484375 18.875 42.84375 
Q 14.796875 37.203125 14.796875 27.296875 
z
" id="DejaVuSans-100"/>
     <path d="M 9.421875 54.6875 
L 18.40625 54.6875 
L 18.40625 0 
L 9.421875 0 
z
M 9.421875 75.984375 
L 18.40625 75.984375 
L 18.40625 64.59375 
L 9.421875 64.59375 
z
" id="DejaVuSans-105"/>
     <path d="M 48.78125 52.59375 
L 48.78125 44.1875 
Q 44.96875 46.296875 41.140625 47.34375 
Q 37.3125 48.390625 33.40625 48.390625 
Q 24.65625 48.390625 19.8125 42.84375 
Q 14.984375 37.3125 14.984375 27.296875 
Q 14.984375 17.28125 19.8125 11.734375 
Q 24.65625 6.203125 33.40625 6.203125 
Q 37.3125 6.203125 41.140625 7.25 
Q 44.96875 8.296875 48.78125 10.40625 
L 48.78125 2.09375 
Q 45.015625 0.34375 40.984375 -0.53125 
Q 36.96875 -1.421875 32.421875 -1.421875 
Q 20.0625 -1.421875 12.78125 6.34375 
Q 5.515625 14.109375 5.515625 27.296875 
Q 5.515625 40.671875 12.859375 48.328125 
Q 20.21875 56 33.015625 56 
Q 37.15625 56 41.109375 55.140625 
Q 45.0625 54.296875 48.78125 52.59375 
z
" id="DejaVuSans-99"/>
    </defs>
    <g transform="translate(48.227063 51.565362)scale(0.102 -0.102)">
     <use xlink:href="#DejaVuSans-51"/>
     <use x="63.623047" xlink:href="#DejaVuSans-32"/>
     <use x="95.410156" xlink:href="#DejaVuSans-97"/>
     <use x="156.689453" xlink:href="#DejaVuSans-110"/>
     <use x="220.068359" xlink:href="#DejaVuSans-100"/>
     <use x="283.544922" xlink:href="#DejaVuSans-32"/>
     <use x="315.332031" xlink:href="#DejaVuSans-51"/>
     <use x="378.955078" xlink:href="#DejaVuSans-32"/>
     <use x="410.742188" xlink:href="#DejaVuSans-105"/>
     <use x="438.525391" xlink:href="#DejaVuSans-110"/>
     <use x="501.904297" xlink:href="#DejaVuSans-115"/>
     <use x="554.003906" xlink:href="#DejaVuSans-116"/>
     <use x="593.212891" xlink:href="#DejaVuSans-97"/>
     <use x="654.492188" xlink:href="#DejaVuSans-110"/>
     <use x="717.871094" xlink:href="#DejaVuSans-99"/>
     <use x="772.851562" xlink:href="#DejaVuSans-101"/>
     <use x="834.375" xlink:href="#DejaVuSans-115"/>
    </g>
   </g>
   <g id="text_10">
    <!-- v2.3.3.43 -->
    <defs>
     <path d="M 2.984375 54.6875 
L 12.5 54.6875 
L 29.59375 8.796875 
L 46.6875 54.6875 
L 56.203125 54.6875 
L 35.6875 0 
L 23.484375 0 
z
" id="DejaVuSans-118"/>
    </defs>
    <g style="fill:#808080;" transform="translate(159.73625 297.8395)scale(0.1 -0.1)">
     <use xlink:href="#DejaVuSans-118"/>
     <use x="59.179688" xlink:href="#DejaVuSans-50"/>
     <use x="122.802734" xlink:href="#DejaVuSans-46"/>
     <use x="154.589844" xlink:href="#DejaVuSans-51"/>
     <use x="218.212891" xlink:href="#DejaVuSans-46"/>
     <use x="250" xlink:href="#DejaVuSans-51"/>
     <use x="313.623047" xlink:href="#DejaVuSans-46"/>
     <use x="345.410156" xlink:href="#DejaVuSans-52"/>
     <use x="409.033203" xlink:href="#DejaVuSans-51"/>
    </g>
   </g>
   <g id="text_11">
    <!-- 12 sep. Ellipsoid/Attr. sector -->
    <defs>
     <path d="M 18.109375 8.203125 
L 18.109375 -20.796875 
L 9.078125 -20.796875 
L 9.078125 54.6875 
L 18.109375 54.6875 
L 18.109375 46.390625 
Q 20.953125 51.265625 25.265625 53.625 
Q 29.59375 56 35.59375 56 
Q 45.5625 56 51.78125 48.09375 
Q 58.015625 40.1875 58.015625 27.296875 
Q 58.015625 14.40625 51.78125 6.484375 
Q 45.5625 -1.421875 35.59375 -1.421875 
Q 29.59375 -1.421875 25.265625 0.953125 
Q 20.953125 3.328125 18.109375 8.203125 
z
M 48.6875 27.296875 
Q 48.6875 37.203125 44.609375 42.84375 
Q 40.53125 48.484375 33.40625 48.484375 
Q 26.265625 48.484375 22.1875 42.84375 
Q 18.109375 37.203125 18.109375 27.296875 
Q 18.109375 17.390625 22.1875 11.75 
Q 26.265625 6.109375 33.40625 6.109375 
Q 40.53125 6.109375 44.609375 11.75 
Q 48.6875 17.390625 48.6875 27.296875 
z
" id="DejaVuSans-112"/>
     <path d="M 25.390625 72.90625 
L 33.6875 72.90625 
L 8.296875 -9.28125 
L 0 -9.28125 
z
" id="DejaVuSans-47"/>
    </defs>
    <g transform="translate(56.523906 20.877187)scale(0.18 -0.18)">
     <use xlink:href="#DejaVuSans-49"/>
     <use x="63.623047" xlink:href="#DejaVuSans-50"/>
     <use x="127.246094" xlink:href="#DejaVuSans-32"/>
     <use x="159.033203" xlink:href="#DejaVuSans-115"/>
     <use x="211.132812" xlink:href="#DejaVuSans-101"/>
     <use x="272.65625" xlink:href="#DejaVuSans-112"/>
     <use x="336.132812" xlink:href="#DejaVuSans-46"/>
     <use x="367.919922" xlink:href="#DejaVuSans-32"/>
     <use x="399.707031" xlink:href="#DejaVuSans-69"/>
     <use x="462.890625" xlink:href="#DejaVuSans-108"/>
     <use x="490.673828" xlink:href="#DejaVuSans-108"/>
     <use x="518.457031" xlink:href="#DejaVuSans-105"/>
     <use x="546.240234" xlink:href="#DejaVuSans-112"/>
     <use x="609.716797" xlink:href="#DejaVuSans-115"/>
     <use x="661.816406" xlink:href="#DejaVuSans-111"/>
     <use x="722.998047" xlink:href="#DejaVuSans-105"/>
     <use x="750.78125" xlink:href="#DejaVuSans-100"/>
     <use x="814.257812" xlink:href="#DejaVuSans-47"/>
     <use x="847.949219" xlink:href="#DejaVuSans-65"/>
     <use x="916.341797" xlink:href="#DejaVuSans-116"/>
     <use x="955.550781" xlink:href="#DejaVuSans-116"/>
     <use x="994.759766" xlink:href="#DejaVuSans-114"/>
     <use x="1035.732422" xlink:href="#DejaVuSans-46"/>
     <use x="1067.519531" xlink:href="#DejaVuSans-32"/>
     <use x="1099.306641" xlink:href="#DejaVuSans-115"/>
     <use x="1151.40625" xlink:href="#DejaVuSans-101"/>
     <use x="1212.929688" xlink:href="#DejaVuSans-99"/>
     <use x="1267.910156" xlink:href="#DejaVuSans-116"/>
     <use x="1307.119141" xlink:href="#DejaVuSans-111"/>
     <use x="1368.300781" xlink:href="#DejaVuSans-114"/>
    </g>
   </g>
  </g>
 </g>
 <defs>
  <clipPath id="p937bb1ca41">
   <rect height="275.8" width="275.8" x="45.469063" y="26.877187"/>
  </clipPath>
 </defs>
</svg>
