<?xml version="1.0" encoding="utf-8" standalone="no"?>
<!DOCTYPE svg PUBLIC "-//W3C//DTD SVG 1.1//EN"
  "http://www.w3.org/Graphics/SVG/1.1/DTD/svg11.dtd">
<!-- Created with matplotlib (https://matplotlib.org/) -->
<svg height="345.6pt" version="1.1" viewBox="0 0 460.8 345.6" width="460.8pt" xmlns="http://www.w3.org/2000/svg" xmlns:xlink="http://www.w3.org/1999/xlink">
 <metadata>
  <rdf:RDF xmlns:cc="http://creativecommons.org/ns#" xmlns:dc="http://purl.org/dc/elements/1.1/" xmlns:rdf="http://www.w3.org/1999/02/22-rdf-syntax-ns#">
   <cc:Work>
    <dc:type rdf:resource="http://purl.org/dc/dcmitype/StillImage"/>
    <dc:date>2021-01-04T10:55:04.678412</dc:date>
    <dc:format>image/svg+xml</dc:format>
    <dc:creator>
     <cc:Agent>
      <dc:title>Matplotlib v3.3.2, https://matplotlib.org/</dc:title>
     </cc:Agent>
    </dc:creator>
   </cc:Work>
  </rdf:RDF>
 </metadata>
 <defs>
  <style type="text/css">*{stroke-linecap:butt;stroke-linejoin:round;}</style>
 </defs>
 <g id="figure_1">
  <g id="patch_1">
   <path d="M 0 345.6 
L 460.8 345.6 
L 460.8 0 
L 0 0 
z
" style="fill:#ffffff;"/>
  </g>
  <g id="axes_1">
   <g id="patch_2">
    <path d="M 57.6 298.944 
L 338.688 298.944 
L 338.688 27.648 
L 57.6 27.648 
z
" style="fill:#ffffff;"/>
   </g>
   <g id="line2d_1">
    <path d="M 66.508432 298.944 
L 66.508432 294.312795 
L 92.34655 294.312795 
L 92.34655 285.050384 
L 104.434538 285.050384 
L 104.434538 275.787974 
L 111.239304 275.787974 
L 111.239304 271.156769 
L 143.653678 271.156769 
L 143.653678 257.263153 
L 146.216039 257.263153 
L 146.216039 248.000743 
L 152.232818 248.000743 
L 152.232818 243.369538 
L 171.021405 243.369538 
L 171.021405 234.107127 
L 178.077908 234.107127 
L 178.077908 220.213512 
L 192.548603 220.213512 
L 192.548603 210.951101 
L 214.539713 210.951101 
L 214.539713 201.688691 
L 228.455166 201.688691 
L 228.455166 192.426281 
L 230.640793 192.426281 
L 230.640793 187.795075 
L 233.924607 187.795075 
L 233.924607 173.90146 
L 237.939047 173.90146 
L 237.939047 169.270255 
L 248.600281 169.270255 
L 248.600281 155.376639 
L 255.459088 155.376639 
L 255.459088 146.114229 
L 261.170436 146.114229 
L 261.170436 141.483024 
L 267.230344 141.483024 
L 267.230344 127.589408 
L 268.007211 127.589408 
L 268.007211 122.958203 
L 276.26757 122.958203 
L 276.26757 109.064587 
L 280.427579 109.064587 
L 280.427579 99.802177 
L 281.057268 99.802177 
L 281.057268 90.539766 
L 283.779373 90.539766 
L 283.779373 85.908561 
L 284.30709 85.908561 
L 284.30709 76.646151 
L 284.71568 76.646151 
L 284.71568 62.752535 
L 338.688 62.752535 
" style="fill:none;stroke:#f5deb3;stroke-linecap:square;stroke-width:4;"/>
   </g>
   <g id="line2d_2">
    <defs>
     <path d="M 0 7.778175 
L 7.778175 0 
L 0 -7.778175 
L -7.778175 0 
z
" id="m07c14968c6" style="stroke:#f5deb3;stroke-linejoin:miter;stroke-width:1.5;"/>
    </defs>
    <g>
     <use style="fill:#f5deb3;stroke:#f5deb3;stroke-linejoin:miter;stroke-width:1.5;" x="111.239304" xlink:href="#m07c14968c6" y="271.156769"/>
     <use style="fill:#f5deb3;stroke:#f5deb3;stroke-linejoin:miter;stroke-width:1.5;" x="230.640793" xlink:href="#m07c14968c6" y="192.426281"/>
     <use style="fill:#f5deb3;stroke:#f5deb3;stroke-linejoin:miter;stroke-width:1.5;" x="281.057268" xlink:href="#m07c14968c6" y="99.802177"/>
     <use style="fill:#f5deb3;stroke:#f5deb3;stroke-linejoin:miter;stroke-width:1.5;" x="284.71568" xlink:href="#m07c14968c6" y="62.752535"/>
     <use style="fill:#f5deb3;stroke:#f5deb3;stroke-linejoin:miter;stroke-width:1.5;" x="338.688" xlink:href="#m07c14968c6" y="62.752535"/>
    </g>
   </g>
   <g id="line2d_3">
    <path style="fill:none;stroke:#f5deb3;stroke-linecap:square;stroke-width:4;"/>
    <g/>
   </g>
   <g id="line2d_4">
    <path d="M 338.688 62.752535 
L 369.60768 35.706297 
" style="fill:none;stroke:#f5deb3;stroke-linecap:square;stroke-width:4;"/>
    <g>
     <use style="fill:#f5deb3;stroke:#f5deb3;stroke-linejoin:miter;stroke-width:1.5;" x="338.688" xlink:href="#m07c14968c6" y="62.752535"/>
     <use style="fill:#f5deb3;stroke:#f5deb3;stroke-linejoin:miter;stroke-width:1.5;" x="369.60768" xlink:href="#m07c14968c6" y="35.706297"/>
    </g>
   </g>
   <g id="matplotlib.axis_1">
    <g id="xtick_1">
     <g id="line2d_5">
      <path clip-path="url(#p2919cd92b4)" d="M 57.6 298.944 
L 57.6 27.648 
" style="fill:none;stroke:#b0b0b0;stroke-linecap:square;stroke-width:0.8;"/>
     </g>
     <g id="line2d_6">
      <defs>
       <path d="M 0 0 
L 0 3.5 
" id="mea8b196c47" style="stroke:#000000;stroke-width:0.8;"/>
      </defs>
      <g>
       <use style="stroke:#000000;stroke-width:0.8;" x="57.6" xlink:href="#mea8b196c47" y="298.944"/>
      </g>
     </g>
     <g id="text_1">
      <!-- 0 -->
      <g transform="translate(51.2375 321.140875)scale(0.2 -0.2)">
       <defs>
        <path d="M 31.78125 66.40625 
Q 24.171875 66.40625 20.328125 58.90625 
Q 16.5 51.421875 16.5 36.375 
Q 16.5 21.390625 20.328125 13.890625 
Q 24.171875 6.390625 31.78125 6.390625 
Q 39.453125 6.390625 43.28125 13.890625 
Q 47.125 21.390625 47.125 36.375 
Q 47.125 51.421875 43.28125 58.90625 
Q 39.453125 66.40625 31.78125 66.40625 
z
M 31.78125 74.21875 
Q 44.046875 74.21875 50.515625 64.515625 
Q 56.984375 54.828125 56.984375 36.375 
Q 56.984375 17.96875 50.515625 8.265625 
Q 44.046875 -1.421875 31.78125 -1.421875 
Q 19.53125 -1.421875 13.0625 8.265625 
Q 6.59375 17.96875 6.59375 36.375 
Q 6.59375 54.828125 13.0625 64.515625 
Q 19.53125 74.21875 31.78125 74.21875 
z
" id="DejaVuSans-48"/>
       </defs>
       <use xlink:href="#DejaVuSans-48"/>
      </g>
     </g>
    </g>
    <g id="xtick_2">
     <g id="line2d_7">
      <path clip-path="url(#p2919cd92b4)" d="M 137.910857 298.944 
L 137.910857 27.648 
" style="fill:none;stroke:#b0b0b0;stroke-linecap:square;stroke-width:0.8;"/>
     </g>
     <g id="line2d_8">
      <g>
       <use style="stroke:#000000;stroke-width:0.8;" x="137.910857" xlink:href="#mea8b196c47" y="298.944"/>
      </g>
     </g>
     <g id="text_2">
      <!-- 2 -->
      <g transform="translate(131.548357 321.140875)scale(0.2 -0.2)">
       <defs>
        <path d="M 19.1875 8.296875 
L 53.609375 8.296875 
L 53.609375 0 
L 7.328125 0 
L 7.328125 8.296875 
Q 12.9375 14.109375 22.625 23.890625 
Q 32.328125 33.6875 34.8125 36.53125 
Q 39.546875 41.84375 41.421875 45.53125 
Q 43.3125 49.21875 43.3125 52.78125 
Q 43.3125 58.59375 39.234375 62.25 
Q 35.15625 65.921875 28.609375 65.921875 
Q 23.96875 65.921875 18.8125 64.3125 
Q 13.671875 62.703125 7.8125 59.421875 
L 7.8125 69.390625 
Q 13.765625 71.78125 18.9375 73 
Q 24.125 74.21875 28.421875 74.21875 
Q 39.75 74.21875 46.484375 68.546875 
Q 53.21875 62.890625 53.21875 53.421875 
Q 53.21875 48.921875 51.53125 44.890625 
Q 49.859375 40.875 45.40625 35.40625 
Q 44.1875 33.984375 37.640625 27.21875 
Q 31.109375 20.453125 19.1875 8.296875 
z
" id="DejaVuSans-50"/>
       </defs>
       <use xlink:href="#DejaVuSans-50"/>
      </g>
     </g>
    </g>
    <g id="xtick_3">
     <g id="line2d_9">
      <path clip-path="url(#p2919cd92b4)" d="M 218.221714 298.944 
L 218.221714 27.648 
" style="fill:none;stroke:#b0b0b0;stroke-linecap:square;stroke-width:0.8;"/>
     </g>
     <g id="line2d_10">
      <g>
       <use style="stroke:#000000;stroke-width:0.8;" x="218.221714" xlink:href="#mea8b196c47" y="298.944"/>
      </g>
     </g>
     <g id="text_3">
      <!-- 4 -->
      <g transform="translate(211.859214 321.140875)scale(0.2 -0.2)">
       <defs>
        <path d="M 37.796875 64.3125 
L 12.890625 25.390625 
L 37.796875 25.390625 
z
M 35.203125 72.90625 
L 47.609375 72.90625 
L 47.609375 25.390625 
L 58.015625 25.390625 
L 58.015625 17.1875 
L 47.609375 17.1875 
L 47.609375 0 
L 37.796875 0 
L 37.796875 17.1875 
L 4.890625 17.1875 
L 4.890625 26.703125 
z
" id="DejaVuSans-52"/>
       </defs>
       <use xlink:href="#DejaVuSans-52"/>
      </g>
     </g>
    </g>
    <g id="xtick_4">
     <g id="line2d_11">
      <path clip-path="url(#p2919cd92b4)" d="M 298.532571 298.944 
L 298.532571 27.648 
" style="fill:none;stroke:#b0b0b0;stroke-linecap:square;stroke-width:0.8;"/>
     </g>
     <g id="line2d_12">
      <g>
       <use style="stroke:#000000;stroke-width:0.8;" x="298.532571" xlink:href="#mea8b196c47" y="298.944"/>
      </g>
     </g>
     <g id="text_4">
      <!-- 6 -->
      <g transform="translate(292.170071 321.140875)scale(0.2 -0.2)">
       <defs>
        <path d="M 33.015625 40.375 
Q 26.375 40.375 22.484375 35.828125 
Q 18.609375 31.296875 18.609375 23.390625 
Q 18.609375 15.53125 22.484375 10.953125 
Q 26.375 6.390625 33.015625 6.390625 
Q 39.65625 6.390625 43.53125 10.953125 
Q 47.40625 15.53125 47.40625 23.390625 
Q 47.40625 31.296875 43.53125 35.828125 
Q 39.65625 40.375 33.015625 40.375 
z
M 52.59375 71.296875 
L 52.59375 62.3125 
Q 48.875 64.0625 45.09375 64.984375 
Q 41.3125 65.921875 37.59375 65.921875 
Q 27.828125 65.921875 22.671875 59.328125 
Q 17.53125 52.734375 16.796875 39.40625 
Q 19.671875 43.65625 24.015625 45.921875 
Q 28.375 48.1875 33.59375 48.1875 
Q 44.578125 48.1875 50.953125 41.515625 
Q 57.328125 34.859375 57.328125 23.390625 
Q 57.328125 12.15625 50.6875 5.359375 
Q 44.046875 -1.421875 33.015625 -1.421875 
Q 20.359375 -1.421875 13.671875 8.265625 
Q 6.984375 17.96875 6.984375 36.375 
Q 6.984375 53.65625 15.1875 63.9375 
Q 23.390625 74.21875 37.203125 74.21875 
Q 40.921875 74.21875 44.703125 73.484375 
Q 48.484375 72.75 52.59375 71.296875 
z
" id="DejaVuSans-54"/>
       </defs>
       <use xlink:href="#DejaVuSans-54"/>
      </g>
     </g>
    </g>
    <g id="xtick_5">
     <g id="line2d_13">
      <path clip-path="url(#p2919cd92b4)" d="M 97.755429 298.944 
L 97.755429 27.648 
" style="fill:none;stroke:#b0b0b0;stroke-linecap:square;stroke-width:0.8;"/>
     </g>
     <g id="line2d_14">
      <defs>
       <path d="M 0 0 
L 0 2 
" id="mdc49dbb7b2" style="stroke:#000000;stroke-width:0.6;"/>
      </defs>
      <g>
       <use style="stroke:#000000;stroke-width:0.6;" x="97.755429" xlink:href="#mdc49dbb7b2" y="298.944"/>
      </g>
     </g>
    </g>
    <g id="xtick_6">
     <g id="line2d_15">
      <path clip-path="url(#p2919cd92b4)" d="M 178.066286 298.944 
L 178.066286 27.648 
" style="fill:none;stroke:#b0b0b0;stroke-linecap:square;stroke-width:0.8;"/>
     </g>
     <g id="line2d_16">
      <g>
       <use style="stroke:#000000;stroke-width:0.6;" x="178.066286" xlink:href="#mdc49dbb7b2" y="298.944"/>
      </g>
     </g>
    </g>
    <g id="xtick_7">
     <g id="line2d_17">
      <path clip-path="url(#p2919cd92b4)" d="M 258.377143 298.944 
L 258.377143 27.648 
" style="fill:none;stroke:#b0b0b0;stroke-linecap:square;stroke-width:0.8;"/>
     </g>
     <g id="line2d_18">
      <g>
       <use style="stroke:#000000;stroke-width:0.6;" x="258.377143" xlink:href="#mdc49dbb7b2" y="298.944"/>
      </g>
     </g>
    </g>
    <g id="xtick_8">
     <g id="line2d_19">
      <path clip-path="url(#p2919cd92b4)" d="M 338.688 298.944 
L 338.688 27.648 
" style="fill:none;stroke:#b0b0b0;stroke-linecap:square;stroke-width:0.8;"/>
     </g>
     <g id="line2d_20">
      <g>
       <use style="stroke:#000000;stroke-width:0.6;" x="338.688" xlink:href="#mdc49dbb7b2" y="298.944"/>
      </g>
     </g>
    </g>
    <g id="text_5">
     <!-- log10(# f-evals / dimension) -->
     <g transform="translate(77.764078 342.217594)scale(0.17 -0.17)">
      <defs>
       <path d="M 9.421875 75.984375 
L 18.40625 75.984375 
L 18.40625 0 
L 9.421875 0 
z
" id="DejaVuSans-108"/>
       <path d="M 30.609375 48.390625 
Q 23.390625 48.390625 19.1875 42.75 
Q 14.984375 37.109375 14.984375 27.296875 
Q 14.984375 17.484375 19.15625 11.84375 
Q 23.34375 6.203125 30.609375 6.203125 
Q 37.796875 6.203125 41.984375 11.859375 
Q 46.1875 17.53125 46.1875 27.296875 
Q 46.1875 37.015625 41.984375 42.703125 
Q 37.796875 48.390625 30.609375 48.390625 
z
M 30.609375 56 
Q 42.328125 56 49.015625 48.375 
Q 55.71875 40.765625 55.71875 27.296875 
Q 55.71875 13.875 49.015625 6.21875 
Q 42.328125 -1.421875 30.609375 -1.421875 
Q 18.84375 -1.421875 12.171875 6.21875 
Q 5.515625 13.875 5.515625 27.296875 
Q 5.515625 40.765625 12.171875 48.375 
Q 18.84375 56 30.609375 56 
z
" id="DejaVuSans-111"/>
       <path d="M 45.40625 27.984375 
Q 45.40625 37.75 41.375 43.109375 
Q 37.359375 48.484375 30.078125 48.484375 
Q 22.859375 48.484375 18.828125 43.109375 
Q 14.796875 37.75 14.796875 27.984375 
Q 14.796875 18.265625 18.828125 12.890625 
Q 22.859375 7.515625 30.078125 7.515625 
Q 37.359375 7.515625 41.375 12.890625 
Q 45.40625 18.265625 45.40625 27.984375 
z
M 54.390625 6.78125 
Q 54.390625 -7.171875 48.1875 -13.984375 
Q 42 -20.796875 29.203125 -20.796875 
Q 24.46875 -20.796875 20.265625 -20.09375 
Q 16.0625 -19.390625 12.109375 -17.921875 
L 12.109375 -9.1875 
Q 16.0625 -11.328125 19.921875 -12.34375 
Q 23.78125 -13.375 27.78125 -13.375 
Q 36.625 -13.375 41.015625 -8.765625 
Q 45.40625 -4.15625 45.40625 5.171875 
L 45.40625 9.625 
Q 42.625 4.78125 38.28125 2.390625 
Q 33.9375 0 27.875 0 
Q 17.828125 0 11.671875 7.65625 
Q 5.515625 15.328125 5.515625 27.984375 
Q 5.515625 40.671875 11.671875 48.328125 
Q 17.828125 56 27.875 56 
Q 33.9375 56 38.28125 53.609375 
Q 42.625 51.21875 45.40625 46.390625 
L 45.40625 54.6875 
L 54.390625 54.6875 
z
" id="DejaVuSans-103"/>
       <path d="M 12.40625 8.296875 
L 28.515625 8.296875 
L 28.515625 63.921875 
L 10.984375 60.40625 
L 10.984375 69.390625 
L 28.421875 72.90625 
L 38.28125 72.90625 
L 38.28125 8.296875 
L 54.390625 8.296875 
L 54.390625 0 
L 12.40625 0 
z
" id="DejaVuSans-49"/>
       <path d="M 31 75.875 
Q 24.46875 64.65625 21.28125 53.65625 
Q 18.109375 42.671875 18.109375 31.390625 
Q 18.109375 20.125 21.3125 9.0625 
Q 24.515625 -2 31 -13.1875 
L 23.1875 -13.1875 
Q 15.875 -1.703125 12.234375 9.375 
Q 8.59375 20.453125 8.59375 31.390625 
Q 8.59375 42.28125 12.203125 53.3125 
Q 15.828125 64.359375 23.1875 75.875 
z
" id="DejaVuSans-40"/>
       <path d="M 51.125 44 
L 36.921875 44 
L 32.8125 27.6875 
L 47.125 27.6875 
z
M 43.796875 71.78125 
L 38.71875 51.515625 
L 52.984375 51.515625 
L 58.109375 71.78125 
L 65.921875 71.78125 
L 60.890625 51.515625 
L 76.125 51.515625 
L 76.125 44 
L 58.984375 44 
L 54.984375 27.6875 
L 70.515625 27.6875 
L 70.515625 20.21875 
L 53.078125 20.21875 
L 48 0 
L 40.1875 0 
L 45.21875 20.21875 
L 30.90625 20.21875 
L 25.875 0 
L 18.015625 0 
L 23.09375 20.21875 
L 7.71875 20.21875 
L 7.71875 27.6875 
L 24.90625 27.6875 
L 29 44 
L 13.28125 44 
L 13.28125 51.515625 
L 30.90625 51.515625 
L 35.890625 71.78125 
z
" id="DejaVuSans-35"/>
       <path id="DejaVuSans-32"/>
       <path d="M 37.109375 75.984375 
L 37.109375 68.5 
L 28.515625 68.5 
Q 23.6875 68.5 21.796875 66.546875 
Q 19.921875 64.59375 19.921875 59.515625 
L 19.921875 54.6875 
L 34.71875 54.6875 
L 34.71875 47.703125 
L 19.921875 47.703125 
L 19.921875 0 
L 10.890625 0 
L 10.890625 47.703125 
L 2.296875 47.703125 
L 2.296875 54.6875 
L 10.890625 54.6875 
L 10.890625 58.5 
Q 10.890625 67.625 15.140625 71.796875 
Q 19.390625 75.984375 28.609375 75.984375 
z
" id="DejaVuSans-102"/>
       <path d="M 4.890625 31.390625 
L 31.203125 31.390625 
L 31.203125 23.390625 
L 4.890625 23.390625 
z
" id="DejaVuSans-45"/>
       <path d="M 56.203125 29.59375 
L 56.203125 25.203125 
L 14.890625 25.203125 
Q 15.484375 15.921875 20.484375 11.0625 
Q 25.484375 6.203125 34.421875 6.203125 
Q 39.59375 6.203125 44.453125 7.46875 
Q 49.3125 8.734375 54.109375 11.28125 
L 54.109375 2.78125 
Q 49.265625 0.734375 44.1875 -0.34375 
Q 39.109375 -1.421875 33.890625 -1.421875 
Q 20.796875 -1.421875 13.15625 6.1875 
Q 5.515625 13.8125 5.515625 26.8125 
Q 5.515625 40.234375 12.765625 48.109375 
Q 20.015625 56 32.328125 56 
Q 43.359375 56 49.78125 48.890625 
Q 56.203125 41.796875 56.203125 29.59375 
z
M 47.21875 32.234375 
Q 47.125 39.59375 43.09375 43.984375 
Q 39.0625 48.390625 32.421875 48.390625 
Q 24.90625 48.390625 20.390625 44.140625 
Q 15.875 39.890625 15.1875 32.171875 
z
" id="DejaVuSans-101"/>
       <path d="M 2.984375 54.6875 
L 12.5 54.6875 
L 29.59375 8.796875 
L 46.6875 54.6875 
L 56.203125 54.6875 
L 35.6875 0 
L 23.484375 0 
z
" id="DejaVuSans-118"/>
       <path d="M 34.28125 27.484375 
Q 23.390625 27.484375 19.1875 25 
Q 14.984375 22.515625 14.984375 16.5 
Q 14.984375 11.71875 18.140625 8.90625 
Q 21.296875 6.109375 26.703125 6.109375 
Q 34.1875 6.109375 38.703125 11.40625 
Q 43.21875 16.703125 43.21875 25.484375 
L 43.21875 27.484375 
z
M 52.203125 31.203125 
L 52.203125 0 
L 43.21875 0 
L 43.21875 8.296875 
Q 40.140625 3.328125 35.546875 0.953125 
Q 30.953125 -1.421875 24.3125 -1.421875 
Q 15.921875 -1.421875 10.953125 3.296875 
Q 6 8.015625 6 15.921875 
Q 6 25.140625 12.171875 29.828125 
Q 18.359375 34.515625 30.609375 34.515625 
L 43.21875 34.515625 
L 43.21875 35.40625 
Q 43.21875 41.609375 39.140625 45 
Q 35.0625 48.390625 27.6875 48.390625 
Q 23 48.390625 18.546875 47.265625 
Q 14.109375 46.140625 10.015625 43.890625 
L 10.015625 52.203125 
Q 14.9375 54.109375 19.578125 55.046875 
Q 24.21875 56 28.609375 56 
Q 40.484375 56 46.34375 49.84375 
Q 52.203125 43.703125 52.203125 31.203125 
z
" id="DejaVuSans-97"/>
       <path d="M 44.28125 53.078125 
L 44.28125 44.578125 
Q 40.484375 46.53125 36.375 47.5 
Q 32.28125 48.484375 27.875 48.484375 
Q 21.1875 48.484375 17.84375 46.4375 
Q 14.5 44.390625 14.5 40.28125 
Q 14.5 37.15625 16.890625 35.375 
Q 19.28125 33.59375 26.515625 31.984375 
L 29.59375 31.296875 
Q 39.15625 29.25 43.1875 25.515625 
Q 47.21875 21.78125 47.21875 15.09375 
Q 47.21875 7.46875 41.1875 3.015625 
Q 35.15625 -1.421875 24.609375 -1.421875 
Q 20.21875 -1.421875 15.453125 -0.5625 
Q 10.6875 0.296875 5.421875 2 
L 5.421875 11.28125 
Q 10.40625 8.6875 15.234375 7.390625 
Q 20.0625 6.109375 24.8125 6.109375 
Q 31.15625 6.109375 34.5625 8.28125 
Q 37.984375 10.453125 37.984375 14.40625 
Q 37.984375 18.0625 35.515625 20.015625 
Q 33.0625 21.96875 24.703125 23.78125 
L 21.578125 24.515625 
Q 13.234375 26.265625 9.515625 29.90625 
Q 5.8125 33.546875 5.8125 39.890625 
Q 5.8125 47.609375 11.28125 51.796875 
Q 16.75 56 26.8125 56 
Q 31.78125 56 36.171875 55.265625 
Q 40.578125 54.546875 44.28125 53.078125 
z
" id="DejaVuSans-115"/>
       <path d="M 25.390625 72.90625 
L 33.6875 72.90625 
L 8.296875 -9.28125 
L 0 -9.28125 
z
" id="DejaVuSans-47"/>
       <path d="M 45.40625 46.390625 
L 45.40625 75.984375 
L 54.390625 75.984375 
L 54.390625 0 
L 45.40625 0 
L 45.40625 8.203125 
Q 42.578125 3.328125 38.25 0.953125 
Q 33.9375 -1.421875 27.875 -1.421875 
Q 17.96875 -1.421875 11.734375 6.484375 
Q 5.515625 14.40625 5.515625 27.296875 
Q 5.515625 40.1875 11.734375 48.09375 
Q 17.96875 56 27.875 56 
Q 33.9375 56 38.25 53.625 
Q 42.578125 51.265625 45.40625 46.390625 
z
M 14.796875 27.296875 
Q 14.796875 17.390625 18.875 11.75 
Q 22.953125 6.109375 30.078125 6.109375 
Q 37.203125 6.109375 41.296875 11.75 
Q 45.40625 17.390625 45.40625 27.296875 
Q 45.40625 37.203125 41.296875 42.84375 
Q 37.203125 48.484375 30.078125 48.484375 
Q 22.953125 48.484375 18.875 42.84375 
Q 14.796875 37.203125 14.796875 27.296875 
z
" id="DejaVuSans-100"/>
       <path d="M 9.421875 54.6875 
L 18.40625 54.6875 
L 18.40625 0 
L 9.421875 0 
z
M 9.421875 75.984375 
L 18.40625 75.984375 
L 18.40625 64.59375 
L 9.421875 64.59375 
z
" id="DejaVuSans-105"/>
       <path d="M 52 44.1875 
Q 55.375 50.25 60.0625 53.125 
Q 64.75 56 71.09375 56 
Q 79.640625 56 84.28125 50.015625 
Q 88.921875 44.046875 88.921875 33.015625 
L 88.921875 0 
L 79.890625 0 
L 79.890625 32.71875 
Q 79.890625 40.578125 77.09375 44.375 
Q 74.3125 48.1875 68.609375 48.1875 
Q 61.625 48.1875 57.5625 43.546875 
Q 53.515625 38.921875 53.515625 30.90625 
L 53.515625 0 
L 44.484375 0 
L 44.484375 32.71875 
Q 44.484375 40.625 41.703125 44.40625 
Q 38.921875 48.1875 33.109375 48.1875 
Q 26.21875 48.1875 22.15625 43.53125 
Q 18.109375 38.875 18.109375 30.90625 
L 18.109375 0 
L 9.078125 0 
L 9.078125 54.6875 
L 18.109375 54.6875 
L 18.109375 46.1875 
Q 21.1875 51.21875 25.484375 53.609375 
Q 29.78125 56 35.6875 56 
Q 41.65625 56 45.828125 52.96875 
Q 50 49.953125 52 44.1875 
z
" id="DejaVuSans-109"/>
       <path d="M 54.890625 33.015625 
L 54.890625 0 
L 45.90625 0 
L 45.90625 32.71875 
Q 45.90625 40.484375 42.875 44.328125 
Q 39.84375 48.1875 33.796875 48.1875 
Q 26.515625 48.1875 22.3125 43.546875 
Q 18.109375 38.921875 18.109375 30.90625 
L 18.109375 0 
L 9.078125 0 
L 9.078125 54.6875 
L 18.109375 54.6875 
L 18.109375 46.1875 
Q 21.34375 51.125 25.703125 53.5625 
Q 30.078125 56 35.796875 56 
Q 45.21875 56 50.046875 50.171875 
Q 54.890625 44.34375 54.890625 33.015625 
z
" id="DejaVuSans-110"/>
       <path d="M 8.015625 75.875 
L 15.828125 75.875 
Q 23.140625 64.359375 26.78125 53.3125 
Q 30.421875 42.28125 30.421875 31.390625 
Q 30.421875 20.453125 26.78125 9.375 
Q 23.140625 -1.703125 15.828125 -13.1875 
L 8.015625 -13.1875 
Q 14.5 -2 17.703125 9.0625 
Q 20.90625 20.125 20.90625 31.390625 
Q 20.90625 42.671875 17.703125 53.65625 
Q 14.5 64.65625 8.015625 75.875 
z
" id="DejaVuSans-41"/>
      </defs>
      <use xlink:href="#DejaVuSans-108"/>
      <use x="27.783203" xlink:href="#DejaVuSans-111"/>
      <use x="88.964844" xlink:href="#DejaVuSans-103"/>
      <use x="152.441406" xlink:href="#DejaVuSans-49"/>
      <use x="216.064453" xlink:href="#DejaVuSans-48"/>
      <use x="279.6875" xlink:href="#DejaVuSans-40"/>
      <use x="318.701172" xlink:href="#DejaVuSans-35"/>
      <use x="402.490234" xlink:href="#DejaVuSans-32"/>
      <use x="434.277344" xlink:href="#DejaVuSans-102"/>
      <use x="463.982422" xlink:href="#DejaVuSans-45"/>
      <use x="500.066406" xlink:href="#DejaVuSans-101"/>
      <use x="561.589844" xlink:href="#DejaVuSans-118"/>
      <use x="620.769531" xlink:href="#DejaVuSans-97"/>
      <use x="682.048828" xlink:href="#DejaVuSans-108"/>
      <use x="709.832031" xlink:href="#DejaVuSans-115"/>
      <use x="761.931641" xlink:href="#DejaVuSans-32"/>
      <use x="793.71875" xlink:href="#DejaVuSans-47"/>
      <use x="827.410156" xlink:href="#DejaVuSans-32"/>
      <use x="859.197266" xlink:href="#DejaVuSans-100"/>
      <use x="922.673828" xlink:href="#DejaVuSans-105"/>
      <use x="950.457031" xlink:href="#DejaVuSans-109"/>
      <use x="1047.869141" xlink:href="#DejaVuSans-101"/>
      <use x="1109.392578" xlink:href="#DejaVuSans-110"/>
      <use x="1172.771484" xlink:href="#DejaVuSans-115"/>
      <use x="1224.871094" xlink:href="#DejaVuSans-105"/>
      <use x="1252.654297" xlink:href="#DejaVuSans-111"/>
      <use x="1313.835938" xlink:href="#DejaVuSans-110"/>
      <use x="1377.214844" xlink:href="#DejaVuSans-41"/>
     </g>
    </g>
   </g>
   <g id="matplotlib.axis_2">
    <g id="ytick_1">
     <g id="line2d_21">
      <path clip-path="url(#p2919cd92b4)" d="M 57.6 298.944 
L 338.688 298.944 
" style="fill:none;stroke:#b0b0b0;stroke-linecap:square;stroke-width:0.8;"/>
     </g>
     <g id="line2d_22">
      <defs>
       <path d="M 0 0 
L -3.5 0 
" id="m38bf7fad6c" style="stroke:#000000;stroke-width:0.8;"/>
      </defs>
      <g>
       <use style="stroke:#000000;stroke-width:0.8;" x="57.6" xlink:href="#m38bf7fad6c" y="298.944"/>
      </g>
     </g>
     <g id="text_6">
      <!-- 0.0 -->
      <g transform="translate(25.155 305.02275)scale(0.16 -0.16)">
       <defs>
        <path d="M 10.6875 12.40625 
L 21 12.40625 
L 21 0 
L 10.6875 0 
z
" id="DejaVuSans-46"/>
       </defs>
       <use xlink:href="#DejaVuSans-48"/>
       <use x="63.623047" xlink:href="#DejaVuSans-46"/>
       <use x="95.410156" xlink:href="#DejaVuSans-48"/>
      </g>
     </g>
    </g>
    <g id="ytick_2">
     <g id="line2d_23">
      <path clip-path="url(#p2919cd92b4)" d="M 57.6 245.22202 
L 338.688 245.22202 
" style="fill:none;stroke:#b0b0b0;stroke-linecap:square;stroke-width:0.8;"/>
     </g>
     <g id="line2d_24">
      <g>
       <use style="stroke:#000000;stroke-width:0.8;" x="57.6" xlink:href="#m38bf7fad6c" y="245.22202"/>
      </g>
     </g>
     <g id="text_7">
      <!-- 0.2 -->
      <g transform="translate(25.155 251.30077)scale(0.16 -0.16)">
       <use xlink:href="#DejaVuSans-48"/>
       <use x="63.623047" xlink:href="#DejaVuSans-46"/>
       <use x="95.410156" xlink:href="#DejaVuSans-50"/>
      </g>
     </g>
    </g>
    <g id="ytick_3">
     <g id="line2d_25">
      <path clip-path="url(#p2919cd92b4)" d="M 57.6 191.50004 
L 338.688 191.50004 
" style="fill:none;stroke:#b0b0b0;stroke-linecap:square;stroke-width:0.8;"/>
     </g>
     <g id="line2d_26">
      <g>
       <use style="stroke:#000000;stroke-width:0.8;" x="57.6" xlink:href="#m38bf7fad6c" y="191.50004"/>
      </g>
     </g>
     <g id="text_8">
      <!-- 0.4 -->
      <g transform="translate(25.155 197.57879)scale(0.16 -0.16)">
       <use xlink:href="#DejaVuSans-48"/>
       <use x="63.623047" xlink:href="#DejaVuSans-46"/>
       <use x="95.410156" xlink:href="#DejaVuSans-52"/>
      </g>
     </g>
    </g>
    <g id="ytick_4">
     <g id="line2d_27">
      <path clip-path="url(#p2919cd92b4)" d="M 57.6 137.778059 
L 338.688 137.778059 
" style="fill:none;stroke:#b0b0b0;stroke-linecap:square;stroke-width:0.8;"/>
     </g>
     <g id="line2d_28">
      <g>
       <use style="stroke:#000000;stroke-width:0.8;" x="57.6" xlink:href="#m38bf7fad6c" y="137.778059"/>
      </g>
     </g>
     <g id="text_9">
      <!-- 0.6 -->
      <g transform="translate(25.155 143.856809)scale(0.16 -0.16)">
       <use xlink:href="#DejaVuSans-48"/>
       <use x="63.623047" xlink:href="#DejaVuSans-46"/>
       <use x="95.410156" xlink:href="#DejaVuSans-54"/>
      </g>
     </g>
    </g>
    <g id="ytick_5">
     <g id="line2d_29">
      <path clip-path="url(#p2919cd92b4)" d="M 57.6 84.056079 
L 338.688 84.056079 
" style="fill:none;stroke:#b0b0b0;stroke-linecap:square;stroke-width:0.8;"/>
     </g>
     <g id="line2d_30">
      <g>
       <use style="stroke:#000000;stroke-width:0.8;" x="57.6" xlink:href="#m38bf7fad6c" y="84.056079"/>
      </g>
     </g>
     <g id="text_10">
      <!-- 0.8 -->
      <g transform="translate(25.155 90.134829)scale(0.16 -0.16)">
       <defs>
        <path d="M 31.78125 34.625 
Q 24.75 34.625 20.71875 30.859375 
Q 16.703125 27.09375 16.703125 20.515625 
Q 16.703125 13.921875 20.71875 10.15625 
Q 24.75 6.390625 31.78125 6.390625 
Q 38.8125 6.390625 42.859375 10.171875 
Q 46.921875 13.96875 46.921875 20.515625 
Q 46.921875 27.09375 42.890625 30.859375 
Q 38.875 34.625 31.78125 34.625 
z
M 21.921875 38.8125 
Q 15.578125 40.375 12.03125 44.71875 
Q 8.5 49.078125 8.5 55.328125 
Q 8.5 64.0625 14.71875 69.140625 
Q 20.953125 74.21875 31.78125 74.21875 
Q 42.671875 74.21875 48.875 69.140625 
Q 55.078125 64.0625 55.078125 55.328125 
Q 55.078125 49.078125 51.53125 44.71875 
Q 48 40.375 41.703125 38.8125 
Q 48.828125 37.15625 52.796875 32.3125 
Q 56.78125 27.484375 56.78125 20.515625 
Q 56.78125 9.90625 50.3125 4.234375 
Q 43.84375 -1.421875 31.78125 -1.421875 
Q 19.734375 -1.421875 13.25 4.234375 
Q 6.78125 9.90625 6.78125 20.515625 
Q 6.78125 27.484375 10.78125 32.3125 
Q 14.796875 37.15625 21.921875 38.8125 
z
M 18.3125 54.390625 
Q 18.3125 48.734375 21.84375 45.5625 
Q 25.390625 42.390625 31.78125 42.390625 
Q 38.140625 42.390625 41.71875 45.5625 
Q 45.3125 48.734375 45.3125 54.390625 
Q 45.3125 60.0625 41.71875 63.234375 
Q 38.140625 66.40625 31.78125 66.40625 
Q 25.390625 66.40625 21.84375 63.234375 
Q 18.3125 60.0625 18.3125 54.390625 
z
" id="DejaVuSans-56"/>
       </defs>
       <use xlink:href="#DejaVuSans-48"/>
       <use x="63.623047" xlink:href="#DejaVuSans-46"/>
       <use x="95.410156" xlink:href="#DejaVuSans-56"/>
      </g>
     </g>
    </g>
    <g id="ytick_6">
     <g id="line2d_31">
      <path clip-path="url(#p2919cd92b4)" d="M 57.6 30.334099 
L 338.688 30.334099 
" style="fill:none;stroke:#b0b0b0;stroke-linecap:square;stroke-width:0.8;"/>
     </g>
     <g id="line2d_32">
      <g>
       <use style="stroke:#000000;stroke-width:0.8;" x="57.6" xlink:href="#m38bf7fad6c" y="30.334099"/>
      </g>
     </g>
     <g id="text_11">
      <!-- 1.0 -->
      <g transform="translate(25.155 36.412849)scale(0.16 -0.16)">
       <use xlink:href="#DejaVuSans-49"/>
       <use x="63.623047" xlink:href="#DejaVuSans-46"/>
       <use x="95.410156" xlink:href="#DejaVuSans-48"/>
      </g>
     </g>
    </g>
    <g id="text_12">
     <!-- Fraction of function,target pairs -->
     <g transform="translate(17.619531 297.681)rotate(-90)scale(0.17 -0.17)">
      <defs>
       <path d="M 9.8125 72.90625 
L 51.703125 72.90625 
L 51.703125 64.59375 
L 19.671875 64.59375 
L 19.671875 43.109375 
L 48.578125 43.109375 
L 48.578125 34.8125 
L 19.671875 34.8125 
L 19.671875 0 
L 9.8125 0 
z
" id="DejaVuSans-70"/>
       <path d="M 41.109375 46.296875 
Q 39.59375 47.171875 37.8125 47.578125 
Q 36.03125 48 33.890625 48 
Q 26.265625 48 22.1875 43.046875 
Q 18.109375 38.09375 18.109375 28.8125 
L 18.109375 0 
L 9.078125 0 
L 9.078125 54.6875 
L 18.109375 54.6875 
L 18.109375 46.1875 
Q 20.953125 51.171875 25.484375 53.578125 
Q 30.03125 56 36.53125 56 
Q 37.453125 56 38.578125 55.875 
Q 39.703125 55.765625 41.0625 55.515625 
z
" id="DejaVuSans-114"/>
       <path d="M 48.78125 52.59375 
L 48.78125 44.1875 
Q 44.96875 46.296875 41.140625 47.34375 
Q 37.3125 48.390625 33.40625 48.390625 
Q 24.65625 48.390625 19.8125 42.84375 
Q 14.984375 37.3125 14.984375 27.296875 
Q 14.984375 17.28125 19.8125 11.734375 
Q 24.65625 6.203125 33.40625 6.203125 
Q 37.3125 6.203125 41.140625 7.25 
Q 44.96875 8.296875 48.78125 10.40625 
L 48.78125 2.09375 
Q 45.015625 0.34375 40.984375 -0.53125 
Q 36.96875 -1.421875 32.421875 -1.421875 
Q 20.0625 -1.421875 12.78125 6.34375 
Q 5.515625 14.109375 5.515625 27.296875 
Q 5.515625 40.671875 12.859375 48.328125 
Q 20.21875 56 33.015625 56 
Q 37.15625 56 41.109375 55.140625 
Q 45.0625 54.296875 48.78125 52.59375 
z
" id="DejaVuSans-99"/>
       <path d="M 18.3125 70.21875 
L 18.3125 54.6875 
L 36.8125 54.6875 
L 36.8125 47.703125 
L 18.3125 47.703125 
L 18.3125 18.015625 
Q 18.3125 11.328125 20.140625 9.421875 
Q 21.96875 7.515625 27.59375 7.515625 
L 36.8125 7.515625 
L 36.8125 0 
L 27.59375 0 
Q 17.1875 0 13.234375 3.875 
Q 9.28125 7.765625 9.28125 18.015625 
L 9.28125 47.703125 
L 2.6875 47.703125 
L 2.6875 54.6875 
L 9.28125 54.6875 
L 9.28125 70.21875 
z
" id="DejaVuSans-116"/>
       <path d="M 8.5 21.578125 
L 8.5 54.6875 
L 17.484375 54.6875 
L 17.484375 21.921875 
Q 17.484375 14.15625 20.5 10.265625 
Q 23.53125 6.390625 29.59375 6.390625 
Q 36.859375 6.390625 41.078125 11.03125 
Q 45.3125 15.671875 45.3125 23.6875 
L 45.3125 54.6875 
L 54.296875 54.6875 
L 54.296875 0 
L 45.3125 0 
L 45.3125 8.40625 
Q 42.046875 3.421875 37.71875 1 
Q 33.40625 -1.421875 27.6875 -1.421875 
Q 18.265625 -1.421875 13.375 4.4375 
Q 8.5 10.296875 8.5 21.578125 
z
M 31.109375 56 
z
" id="DejaVuSans-117"/>
       <path d="M 11.71875 12.40625 
L 22.015625 12.40625 
L 22.015625 4 
L 14.015625 -11.625 
L 7.71875 -11.625 
L 11.71875 4 
z
" id="DejaVuSans-44"/>
       <path d="M 18.109375 8.203125 
L 18.109375 -20.796875 
L 9.078125 -20.796875 
L 9.078125 54.6875 
L 18.109375 54.6875 
L 18.109375 46.390625 
Q 20.953125 51.265625 25.265625 53.625 
Q 29.59375 56 35.59375 56 
Q 45.5625 56 51.78125 48.09375 
Q 58.015625 40.1875 58.015625 27.296875 
Q 58.015625 14.40625 51.78125 6.484375 
Q 45.5625 -1.421875 35.59375 -1.421875 
Q 29.59375 -1.421875 25.265625 0.953125 
Q 20.953125 3.328125 18.109375 8.203125 
z
M 48.6875 27.296875 
Q 48.6875 37.203125 44.609375 42.84375 
Q 40.53125 48.484375 33.40625 48.484375 
Q 26.265625 48.484375 22.1875 42.84375 
Q 18.109375 37.203125 18.109375 27.296875 
Q 18.109375 17.390625 22.1875 11.75 
Q 26.265625 6.109375 33.40625 6.109375 
Q 40.53125 6.109375 44.609375 11.75 
Q 48.6875 17.390625 48.6875 27.296875 
z
" id="DejaVuSans-112"/>
      </defs>
      <use xlink:href="#DejaVuSans-70"/>
      <use x="50.269531" xlink:href="#DejaVuSans-114"/>
      <use x="91.382812" xlink:href="#DejaVuSans-97"/>
      <use x="152.662109" xlink:href="#DejaVuSans-99"/>
      <use x="207.642578" xlink:href="#DejaVuSans-116"/>
      <use x="246.851562" xlink:href="#DejaVuSans-105"/>
      <use x="274.634766" xlink:href="#DejaVuSans-111"/>
      <use x="335.816406" xlink:href="#DejaVuSans-110"/>
      <use x="399.195312" xlink:href="#DejaVuSans-32"/>
      <use x="430.982422" xlink:href="#DejaVuSans-111"/>
      <use x="492.164062" xlink:href="#DejaVuSans-102"/>
      <use x="527.369141" xlink:href="#DejaVuSans-32"/>
      <use x="559.15625" xlink:href="#DejaVuSans-102"/>
      <use x="594.361328" xlink:href="#DejaVuSans-117"/>
      <use x="657.740234" xlink:href="#DejaVuSans-110"/>
      <use x="721.119141" xlink:href="#DejaVuSans-99"/>
      <use x="776.099609" xlink:href="#DejaVuSans-116"/>
      <use x="815.308594" xlink:href="#DejaVuSans-105"/>
      <use x="843.091797" xlink:href="#DejaVuSans-111"/>
      <use x="904.273438" xlink:href="#DejaVuSans-110"/>
      <use x="967.652344" xlink:href="#DejaVuSans-44"/>
      <use x="999.439453" xlink:href="#DejaVuSans-116"/>
      <use x="1038.648438" xlink:href="#DejaVuSans-97"/>
      <use x="1099.927734" xlink:href="#DejaVuSans-114"/>
      <use x="1139.291016" xlink:href="#DejaVuSans-103"/>
      <use x="1202.767578" xlink:href="#DejaVuSans-101"/>
      <use x="1264.291016" xlink:href="#DejaVuSans-116"/>
      <use x="1303.5" xlink:href="#DejaVuSans-32"/>
      <use x="1335.287109" xlink:href="#DejaVuSans-112"/>
      <use x="1398.763672" xlink:href="#DejaVuSans-97"/>
      <use x="1460.042969" xlink:href="#DejaVuSans-105"/>
      <use x="1487.826172" xlink:href="#DejaVuSans-114"/>
      <use x="1528.939453" xlink:href="#DejaVuSans-115"/>
     </g>
    </g>
   </g>
   <g id="line2d_33">
    <defs>
     <path d="M 0 1.5 
C 0.397805 1.5 0.77937 1.341951 1.06066 1.06066 
C 1.341951 0.77937 1.5 0.397805 1.5 0 
C 1.5 -0.397805 1.341951 -0.77937 1.06066 -1.06066 
C 0.77937 -1.341951 0.397805 -1.5 0 -1.5 
C -0.397805 -1.5 -0.77937 -1.341951 -1.06066 -1.06066 
C -1.341951 -0.77937 -1.5 -0.397805 -1.5 0 
C -1.5 0.397805 -1.341951 0.77937 -1.06066 1.06066 
C -0.77937 1.341951 -0.397805 1.5 0 1.5 
z
" id="mf34f249a30" style="stroke:#f5deb3;"/>
    </defs>
    <g>
     <use style="fill:#f5deb3;stroke:#f5deb3;" x="284.71568" xlink:href="#mf34f249a30" y="62.752535"/>
     <use style="fill:#f5deb3;stroke:#f5deb3;" x="284.71568" xlink:href="#mf34f249a30" y="62.752535"/>
    </g>
   </g>
   <g id="line2d_34">
    <defs>
     <path d="M 0 1.5 
C 0.397805 1.5 0.77937 1.341951 1.06066 1.06066 
C 1.341951 0.77937 1.5 0.397805 1.5 0 
C 1.5 -0.397805 1.341951 -0.77937 1.06066 -1.06066 
C 0.77937 -1.341951 0.397805 -1.5 0 -1.5 
C -0.397805 -1.5 -0.77937 -1.341951 -1.06066 -1.06066 
C -1.341951 -0.77937 -1.5 -0.397805 -1.5 0 
C -1.5 0.397805 -1.341951 0.77937 -1.06066 1.06066 
C -0.77937 1.341951 -0.397805 1.5 0 1.5 
z
" id="mdfa277f29c" style="stroke:#000080;"/>
    </defs>
    <g>
     <use style="fill:#000080;stroke:#000080;" x="216.633128" xlink:href="#mdfa277f29c" y="219.750391"/>
     <use style="fill:#000080;stroke:#000080;" x="216.633128" xlink:href="#mdfa277f29c" y="219.750391"/>
    </g>
   </g>
   <g id="line2d_35">
    <path d="M 38.440992 298.944 
L 38.440992 293.386554 
L 69.687988 293.386554 
L 69.687988 291.997192 
L 78.59642 291.997192 
L 78.59642 289.218469 
L 84.464254 289.218469 
L 84.464254 285.976625 
L 88.846997 285.976625 
L 88.846997 284.587264 
L 92.34655 284.587264 
L 92.34655 284.124143 
L 97.755429 284.124143 
L 97.755429 283.661023 
L 99.938184 283.661023 
L 99.938184 282.734782 
L 103.623262 282.734782 
L 103.623262 282.271661 
L 105.209745 282.271661 
L 105.209745 281.808541 
L 106.66386 281.808541 
L 106.66386 281.34542 
L 108.006005 281.34542 
L 108.006005 279.956059 
L 111.505558 279.956059 
L 111.505558 279.492938 
L 111.767808 279.492938 
L 111.767808 279.029818 
L 112.531694 279.029818 
L 112.531694 278.566697 
L 113.73488 278.566697 
L 113.73488 277.640456 
L 119.931767 277.640456 
L 119.931767 276.251095 
L 121.785469 276.251095 
L 121.785469 275.787974 
L 124.494669 275.787974 
L 124.494669 275.324854 
L 126.618283 275.324854 
L 126.618283 274.861733 
L 127.48501 274.861733 
L 127.48501 273.472371 
L 130.036864 273.472371 
L 130.036864 273.009251 
L 132.73818 273.009251 
L 132.73818 272.54613 
L 133.201197 272.54613 
L 133.201197 271.619889 
L 133.503183 271.619889 
L 133.503183 270.693648 
L 134.939326 270.693648 
L 134.939326 270.230528 
L 136.769843 270.230528 
L 136.769843 269.767407 
L 137.259399 269.767407 
L 137.259399 269.304287 
L 138.199116 269.304287 
L 138.199116 268.378046 
L 139.520072 268.378046 
L 139.520072 267.914925 
L 140.499195 267.914925 
L 140.499195 267.451805 
L 146.324022 267.451805 
L 146.324022 266.525564 
L 146.749392 266.525564 
L 146.749392 265.599323 
L 146.888907 265.599323 
L 146.888907 265.136202 
L 147.027314 265.136202 
L 147.027314 264.673082 
L 147.300877 264.673082 
L 147.300877 264.209961 
L 147.436066 264.209961 
L 147.436066 263.746841 
L 149.735275 263.746841 
L 149.735275 263.28372 
L 150.201126 263.28372 
L 150.201126 262.8206 
L 152.130233 262.8206 
L 152.130233 262.357479 
L 152.587184 262.357479 
L 152.587184 261.894358 
L 153.773658 261.894358 
L 153.843742 260.041876 
L 153.959927 260.041876 
L 154.05232 258.652515 
L 155.318362 258.652515 
L 155.318362 257.726274 
L 158.285965 257.726274 
L 158.285965 257.263153 
L 158.784773 257.263153 
L 158.784773 256.336912 
L 162.545789 256.336912 
L 162.545789 255.410671 
L 163.682792 255.410671 
L 163.682792 254.48443 
L 164.536814 254.48443 
L 164.536814 254.02131 
L 164.787563 254.02131 
L 164.874481 253.095069 
L 165.18141 253.095069 
L 165.278497 251.705707 
L 165.375047 251.705707 
L 165.471066 250.779466 
L 165.720627 250.779466 
L 165.720627 250.316346 
L 168.616676 250.316346 
L 168.616676 249.390104 
L 168.736192 249.390104 
L 168.736192 248.926984 
L 169.011918 248.926984 
L 169.011918 248.000743 
L 173.918627 248.000743 
L 174.00689 245.68514 
L 174.182087 245.68514 
L 174.182087 245.22202 
L 175.36153 245.22202 
L 175.442801 243.369538 
L 177.743598 243.369538 
L 177.779092 242.443297 
L 180.689668 242.443297 
L 180.689668 241.517056 
L 181.303877 241.517056 
L 181.303877 241.053935 
L 182.384967 241.053935 
L 182.439337 239.201453 
L 182.637258 239.201453 
L 182.637258 238.738333 
L 183.867557 238.738333 
L 183.93412 236.42273 
L 184.000429 236.42273 
L 184.107646 233.180886 
L 184.189675 233.180886 
L 184.189675 232.254645 
L 186.618837 232.254645 
L 186.618837 231.328404 
L 188.490389 231.328404 
L 188.490389 230.402163 
L 193.485761 230.402163 
L 193.485761 229.475922 
L 196.119413 229.475922 
L 196.119413 229.012802 
L 198.941958 229.012802 
L 198.941958 228.549681 
L 203.533199 228.549681 
L 203.554779 226.697199 
L 205.08926 226.697199 
L 205.11393 225.770958 
L 206.711181 225.770958 
L 206.711181 225.307837 
L 207.473718 225.307837 
L 207.473718 224.844717 
L 208.811038 224.844717 
L 208.811038 223.918476 
L 209.089993 223.918476 
L 209.089993 222.992235 
L 210.289188 222.992235 
L 210.307501 221.602873 
L 214.424459 221.602873 
L 214.424459 220.676632 
L 216.633128 220.676632 
L 216.633128 219.750391 
L 338.688 219.750391 
L 338.688 219.750391 
" style="fill:none;stroke:#000080;stroke-linecap:square;stroke-width:1.5;"/>
   </g>
   <g id="line2d_36">
    <defs>
     <path d="M 0 6 
C 1.591219 6 3.117479 5.367802 4.242641 4.242641 
C 5.367802 3.117479 6 1.591219 6 0 
C 6 -1.591219 5.367802 -3.117479 4.242641 -4.242641 
C 3.117479 -5.367802 1.591219 -6 0 -6 
C -1.591219 -6 -3.117479 -5.367802 -4.242641 -4.242641 
C -5.367802 -3.117479 -6 -1.591219 -6 0 
C -6 1.591219 -5.367802 3.117479 -4.242641 4.242641 
C -3.117479 5.367802 -1.591219 6 0 6 
z
" id="mfaac4cde50" style="stroke:#000080;stroke-width:1.5;"/>
    </defs>
    <g>
     <use style="fill-opacity:0;stroke:#000080;stroke-width:1.5;" x="99.938184" xlink:href="#mfaac4cde50" y="282.734782"/>
     <use style="fill-opacity:0;stroke:#000080;stroke-width:1.5;" x="169.011918" xlink:href="#mfaac4cde50" y="248.000743"/>
     <use style="fill-opacity:0;stroke:#000080;stroke-width:1.5;" x="216.633128" xlink:href="#mfaac4cde50" y="220.676632"/>
     <use style="fill-opacity:0;stroke:#000080;stroke-width:1.5;" x="216.633128" xlink:href="#mfaac4cde50" y="219.750391"/>
     <use style="fill-opacity:0;stroke:#000080;stroke-width:1.5;" x="216.633128" xlink:href="#mfaac4cde50" y="219.750391"/>
     <use style="fill-opacity:0;stroke:#000080;stroke-width:1.5;" x="338.688" xlink:href="#mfaac4cde50" y="219.750391"/>
    </g>
   </g>
   <g id="line2d_37">
    <path style="fill:none;stroke:#000080;stroke-linecap:square;stroke-width:1.5;"/>
    <g/>
   </g>
   <g id="line2d_38">
    <path clip-path="url(#p2919cd92b4)" d="M 218.454996 219.750391 
" style="fill:none;stroke:#000080;stroke-linecap:square;stroke-width:1.5;"/>
    <defs>
     <path d="M -12 12 
L 12 -12 
M -12 -12 
L 12 12 
" id="m3a0815cbb5" style="stroke:#000080;"/>
    </defs>
    <g clip-path="url(#p2919cd92b4)">
     <use style="fill:#000080;stroke:#000080;" x="218.454996" xlink:href="#m3a0815cbb5" y="219.750391"/>
    </g>
   </g>
   <g id="line2d_39">
    <defs>
     <path d="M 0 1.5 
C 0.397805 1.5 0.77937 1.341951 1.06066 1.06066 
C 1.341951 0.77937 1.5 0.397805 1.5 0 
C 1.5 -0.397805 1.341951 -0.77937 1.06066 -1.06066 
C 0.77937 -1.341951 0.397805 -1.5 0 -1.5 
C -0.397805 -1.5 -0.77937 -1.341951 -1.06066 -1.06066 
C -1.341951 -0.77937 -1.5 -0.397805 -1.5 0 
C -1.5 0.397805 -1.341951 0.77937 -1.06066 1.06066 
C -0.77937 1.341951 -0.397805 1.5 0 1.5 
z
" id="m252a304e3b" style="stroke:#ff00ff;"/>
    </defs>
    <g>
     <use style="fill:#ff00ff;stroke:#ff00ff;" x="215.89103" xlink:href="#m252a304e3b" y="218.36103"/>
     <use style="fill:#ff00ff;stroke:#ff00ff;" x="215.89103" xlink:href="#m252a304e3b" y="218.36103"/>
    </g>
   </g>
   <g id="line2d_40">
    <path d="M 38.440992 298.944 
L 38.440992 293.386554 
L 78.59642 293.386554 
L 78.59642 291.070951 
L 84.464254 291.070951 
L 84.464254 288.755349 
L 92.34655 288.755349 
L 92.34655 287.829108 
L 95.259853 287.829108 
L 95.259853 284.587264 
L 97.755429 284.587264 
L 97.755429 283.661023 
L 99.938184 283.661023 
L 99.938184 283.197902 
L 101.877879 283.197902 
L 101.877879 282.271661 
L 103.623262 282.271661 
L 103.623262 281.808541 
L 105.209745 281.808541 
L 105.209745 281.34542 
L 110.415248 281.34542 
L 110.415248 280.8823 
L 113.500792 280.8823 
L 113.500792 280.419179 
L 113.73488 280.419179 
L 113.73488 279.956059 
L 116.121606 279.956059 
L 116.121606 279.492938 
L 120.571812 279.492938 
L 120.571812 279.029818 
L 123.056911 279.029818 
L 123.056911 278.566697 
L 123.985457 278.566697 
L 123.985457 278.103577 
L 125.588781 278.103577 
L 125.588781 277.640456 
L 126.50685 277.640456 
L 126.50685 277.177336 
L 131.856005 277.177336 
L 131.856005 276.714215 
L 132.181982 276.714215 
L 132.181982 275.787974 
L 132.501978 275.787974 
L 132.501978 275.324854 
L 132.816208 275.324854 
L 132.816208 274.861733 
L 133.124876 274.861733 
L 133.124876 273.935492 
L 133.72629 273.935492 
L 133.72629 273.472371 
L 134.019394 273.472371 
L 134.019394 273.009251 
L 135.144899 273.009251 
L 135.144899 272.54613 
L 135.415281 272.54613 
L 135.415281 271.619889 
L 142.53096 271.619889 
L 142.53096 270.230528 
L 142.884173 270.230528 
L 142.884173 269.304287 
L 143.058132 269.304287 
L 143.058132 268.378046 
L 143.527762 268.378046 
L 143.527762 267.914925 
L 144.350522 267.914925 
L 144.350522 267.451805 
L 145.777292 267.451805 
L 145.777292 266.525564 
L 145.924771 266.525564 
L 145.924771 265.599323 
L 146.071013 265.599323 
L 146.107383 264.673082 
L 146.395642 264.673082 
L 146.395642 264.209961 
L 146.644018 264.209961 
L 146.644018 263.28372 
L 146.784375 263.28372 
L 146.784375 262.8206 
L 146.923612 262.8206 
L 146.923612 262.357479 
L 155.446436 262.357479 
L 155.446436 261.894358 
L 155.61575 261.894358 
L 155.699795 260.968117 
L 155.949527 260.968117 
L 155.949527 260.504997 
L 157.089232 260.504997 
L 157.089232 260.041876 
L 157.622935 260.041876 
L 157.716543 256.336912 
L 158.140788 256.336912 
L 158.213527 255.410671 
L 158.51933 255.410671 
L 158.51933 254.947551 
L 158.872364 254.947551 
L 158.872364 254.02131 
L 159.0116 254.02131 
L 159.0116 253.558189 
L 159.422762 253.558189 
L 159.422762 253.095069 
L 159.624763 253.095069 
L 159.624763 252.631948 
L 162.812686 252.631948 
L 162.812686 251.705707 
L 164.650098 251.705707 
L 164.650098 251.242587 
L 172.752272 251.242587 
L 172.815229 250.316346 
L 174.441627 250.316346 
L 174.441627 249.853225 
L 175.094755 249.853225 
L 175.094755 249.390104 
L 175.395439 249.390104 
L 175.503506 248.000743 
L 176.542527 248.000743 
L 176.542527 247.537622 
L 176.719257 247.537622 
L 176.744358 246.148261 
L 177.660498 246.148261 
L 177.660498 245.68514 
L 179.076969 245.68514 
L 179.076969 244.758899 
L 182.982689 244.758899 
L 183.07017 243.369538 
L 184.087079 243.369538 
L 184.119975 241.053935 
L 186.679248 241.053935 
L 186.679248 239.201453 
L 190.255708 239.201453 
L 190.267263 237.348971 
L 193.444894 237.348971 
L 193.464138 235.959609 
L 195.576325 235.959609 
L 195.644347 235.033368 
L 198.475696 235.033368 
L 198.475696 234.107127 
L 199.440504 234.107127 
L 199.493327 232.254645 
L 203.36913 232.254645 
L 203.36913 231.328404 
L 204.767847 231.328404 
L 204.767847 230.402163 
L 206.443699 230.402163 
L 206.443699 229.939043 
L 206.731415 229.939043 
L 206.7404 227.62344 
L 207.192617 227.62344 
L 207.192617 227.16032 
L 207.99031 227.16032 
L 207.99867 225.307837 
L 209.690891 225.307837 
L 209.690891 224.844717 
L 210.13552 224.844717 
L 210.13552 223.918476 
L 210.839255 223.918476 
L 210.894204 222.529114 
L 211.622101 222.529114 
L 211.721119 221.139753 
L 215.274292 221.139753 
L 215.28255 218.82415 
L 215.89103 218.82415 
L 215.89103 218.36103 
L 338.688 218.36103 
L 338.688 218.36103 
" style="fill:none;stroke:#ff00ff;stroke-linecap:square;stroke-width:1.5;"/>
   </g>
   <g id="line2d_41">
    <defs>
     <path d="M 0 8.485281 
L 5.091169 0 
L 0 -8.485281 
L -5.091169 0 
z
" id="md3c15e3caf" style="stroke:#ff00ff;stroke-linejoin:miter;stroke-width:1.5;"/>
    </defs>
    <g>
     <use style="fill-opacity:0;stroke:#ff00ff;stroke-linejoin:miter;stroke-width:1.5;" x="105.209745" xlink:href="#md3c15e3caf" y="281.808541"/>
     <use style="fill-opacity:0;stroke:#ff00ff;stroke-linejoin:miter;stroke-width:1.5;" x="146.784375" xlink:href="#md3c15e3caf" y="262.8206"/>
     <use style="fill-opacity:0;stroke:#ff00ff;stroke-linejoin:miter;stroke-width:1.5;" x="215.89103" xlink:href="#md3c15e3caf" y="218.82415"/>
     <use style="fill-opacity:0;stroke:#ff00ff;stroke-linejoin:miter;stroke-width:1.5;" x="215.89103" xlink:href="#md3c15e3caf" y="218.36103"/>
     <use style="fill-opacity:0;stroke:#ff00ff;stroke-linejoin:miter;stroke-width:1.5;" x="215.89103" xlink:href="#md3c15e3caf" y="218.36103"/>
     <use style="fill-opacity:0;stroke:#ff00ff;stroke-linejoin:miter;stroke-width:1.5;" x="338.688" xlink:href="#md3c15e3caf" y="218.36103"/>
    </g>
   </g>
   <g id="line2d_42">
    <path style="fill:none;stroke:#ff00ff;stroke-linecap:square;stroke-width:1.5;"/>
    <g/>
   </g>
   <g id="line2d_43">
    <path clip-path="url(#p2919cd92b4)" d="M 218.426293 218.36103 
" style="fill:none;stroke:#ff00ff;stroke-linecap:square;stroke-width:1.5;"/>
    <defs>
     <path d="M -12 12 
L 12 -12 
M -12 -12 
L 12 12 
" id="m66538f1833" style="stroke:#ff00ff;"/>
    </defs>
    <g clip-path="url(#p2919cd92b4)">
     <use style="fill:#ff00ff;stroke:#ff00ff;" x="218.426293" xlink:href="#m66538f1833" y="218.36103"/>
    </g>
   </g>
   <g id="line2d_44">
    <defs>
     <path d="M 0 1.5 
C 0.397805 1.5 0.77937 1.341951 1.06066 1.06066 
C 1.341951 0.77937 1.5 0.397805 1.5 0 
C 1.5 -0.397805 1.341951 -0.77937 1.06066 -1.06066 
C 0.77937 -1.341951 0.397805 -1.5 0 -1.5 
C -0.397805 -1.5 -0.77937 -1.341951 -1.06066 -1.06066 
C -1.341951 -0.77937 -1.5 -0.397805 -1.5 0 
C -1.5 0.397805 -1.341951 0.77937 -1.06066 1.06066 
C -0.77937 1.341951 -0.397805 1.5 0 1.5 
z
" id="med5f1dec95" style="stroke:#ff7500;"/>
    </defs>
    <g>
     <use style="fill:#ff7500;stroke:#ff7500;" x="218.334703" xlink:href="#med5f1dec95" y="212.803583"/>
     <use style="fill:#ff7500;stroke:#ff7500;" x="218.334703" xlink:href="#med5f1dec95" y="212.803583"/>
    </g>
   </g>
   <g id="line2d_45">
    <path d="M 38.440992 298.944 
L 38.440992 293.386554 
L 78.59642 293.386554 
L 78.59642 291.070951 
L 84.464254 291.070951 
L 84.464254 288.755349 
L 88.846997 288.755349 
L 88.846997 287.829108 
L 92.34655 287.829108 
L 92.34655 286.439746 
L 95.259853 286.439746 
L 95.259853 285.513505 
L 101.877879 285.513505 
L 101.877879 284.124143 
L 105.209745 284.124143 
L 105.209745 283.197902 
L 108.006005 283.197902 
L 108.006005 282.734782 
L 110.415248 282.734782 
L 110.415248 282.271661 
L 110.694282 282.271661 
L 110.694282 280.419179 
L 112.531694 280.419179 
L 112.531694 279.956059 
L 113.500792 279.956059 
L 113.500792 279.492938 
L 116.323218 279.492938 
L 116.323218 278.103577 
L 118.576578 278.103577 
L 118.576578 276.251095 
L 119.097192 276.251095 
L 119.097192 274.861733 
L 119.931767 274.861733 
L 119.931767 271.156769 
L 121.189196 271.156769 
L 121.189196 270.693648 
L 122.362027 270.693648 
L 122.362027 269.767407 
L 122.920132 269.767407 
L 122.920132 268.841166 
L 124.494669 268.841166 
L 124.494669 266.525564 
L 125.470548 266.525564 
L 125.470548 265.599323 
L 127.165014 265.599323 
L 127.165014 265.136202 
L 128.807571 265.136202 
L 128.807571 263.746841 
L 129.574256 263.746841 
L 129.574256 263.28372 
L 132.019755 263.28372 
L 132.019755 262.8206 
L 134.307653 262.8206 
L 134.307653 262.357479 
L 137.558536 262.357479 
L 137.558536 261.431238 
L 138.026733 261.431238 
L 138.026733 260.968117 
L 138.199116 260.968117 
L 138.199116 260.504997 
L 140.747977 260.504997 
L 140.747977 260.041876 
L 141.187031 260.041876 
L 141.187031 259.115635 
L 143.485587 259.115635 
L 143.485587 258.189394 
L 143.985075 258.189394 
L 143.985075 256.800033 
L 149.073705 256.800033 
L 149.073705 256.336912 
L 151.475037 256.336912 
L 151.475037 255.410671 
L 151.792604 255.410671 
L 151.792604 254.947551 
L 152.637225 254.947551 
L 152.712018 254.02131 
L 152.934492 254.02131 
L 153.008024 253.095069 
L 153.418948 253.095069 
L 153.418948 251.705707 
L 153.703291 251.705707 
L 153.703291 250.316346 
L 154.258434 250.316346 
L 154.349264 249.390104 
L 154.707925 249.390104 
L 154.707925 248.463863 
L 155.573575 248.463863 
L 155.573575 248.000743 
L 163.998206 248.000743 
L 163.998206 247.537622 
L 167.555679 247.537622 
L 167.59811 246.148261 
L 171.970255 246.148261 
L 171.970255 245.22202 
L 173.00275 245.22202 
L 173.00275 244.758899 
L 173.310873 244.758899 
L 173.310873 243.832658 
L 174.816832 243.832658 
L 174.816832 243.369538 
L 175.067161 243.369538 
L 175.067161 242.906417 
L 175.962024 242.906417 
L 175.962024 242.443297 
L 176.85687 242.443297 
L 176.85687 241.517056 
L 178.462846 241.517056 
L 178.462846 240.590815 
L 183.598738 240.590815 
L 183.598738 240.127694 
L 184.977686 240.127694 
L 185.008946 239.201453 
L 185.172149 239.201453 
L 185.172149 238.738333 
L 187.213734 238.738333 
L 187.213734 237.812091 
L 192.166939 237.812091 
L 192.166939 237.348971 
L 196.375591 237.348971 
L 196.375591 236.42273 
L 196.979419 236.42273 
L 196.979419 235.959609 
L 197.112544 235.959609 
L 197.112544 235.033368 
L 197.585829 235.033368 
L 197.602903 233.644007 
L 199.109728 233.644007 
L 199.109728 233.180886 
L 202.520513 233.180886 
L 202.594729 231.328404 
L 202.645925 231.328404 
L 202.645925 230.865284 
L 203.926849 230.865284 
L 203.990068 229.012802 
L 204.147121 229.012802 
L 204.147121 228.086561 
L 204.959166 228.086561 
L 204.959166 227.16032 
L 205.097899 227.16032 
L 205.097899 226.234079 
L 205.442395 226.234079 
L 205.442395 225.307837 
L 207.833875 225.307837 
L 207.833875 224.844717 
L 208.698997 224.844717 
L 208.698997 224.381596 
L 211.34924 224.381596 
L 211.34924 223.918476 
L 214.429517 223.918476 
L 214.446127 222.065994 
L 215.088136 222.065994 
L 215.124277 218.82415 
L 215.66634 218.82415 
L 215.66634 217.897909 
L 216.129254 217.897909 
L 216.168535 215.582307 
L 216.329315 215.582307 
L 216.334497 214.192945 
L 218.318524 214.192945 
L 218.334703 212.803583 
L 338.688 212.803583 
L 338.688 212.803583 
" style="fill:none;stroke:#ff7500;stroke-linecap:square;stroke-width:1.5;"/>
   </g>
   <g id="line2d_46">
    <defs>
     <path d="M 0 -6 
L -1.347084 -1.854102 
L -5.706339 -1.854102 
L -2.179628 0.708204 
L -3.526712 4.854102 
L -0 2.291796 
L 3.526712 4.854102 
L 2.179628 0.708204 
L 5.706339 -1.854102 
L 1.347084 -1.854102 
z
" id="m662df656cb" style="stroke:#ff7500;stroke-linejoin:bevel;stroke-width:1.5;"/>
    </defs>
    <g>
     <use style="fill-opacity:0;stroke:#ff7500;stroke-linejoin:bevel;stroke-width:1.5;" x="113.500792" xlink:href="#m662df656cb" y="279.956059"/>
     <use style="fill-opacity:0;stroke:#ff7500;stroke-linejoin:bevel;stroke-width:1.5;" x="176.85687" xlink:href="#m662df656cb" y="241.517056"/>
     <use style="fill-opacity:0;stroke:#ff7500;stroke-linejoin:bevel;stroke-width:1.5;" x="218.334703" xlink:href="#m662df656cb" y="213.266704"/>
     <use style="fill-opacity:0;stroke:#ff7500;stroke-linejoin:bevel;stroke-width:1.5;" x="218.334703" xlink:href="#m662df656cb" y="212.803583"/>
     <use style="fill-opacity:0;stroke:#ff7500;stroke-linejoin:bevel;stroke-width:1.5;" x="218.334703" xlink:href="#m662df656cb" y="212.803583"/>
     <use style="fill-opacity:0;stroke:#ff7500;stroke-linejoin:bevel;stroke-width:1.5;" x="338.688" xlink:href="#m662df656cb" y="212.803583"/>
    </g>
   </g>
   <g id="line2d_47">
    <path style="fill:none;stroke:#ff7500;stroke-linecap:square;stroke-width:1.5;"/>
    <g/>
   </g>
   <g id="line2d_48">
    <path clip-path="url(#p2919cd92b4)" d="M 218.443521 212.803583 
" style="fill:none;stroke:#ff7500;stroke-linecap:square;stroke-width:1.5;"/>
    <defs>
     <path d="M -12 12 
L 12 -12 
M -12 -12 
L 12 12 
" id="md089d66e57" style="stroke:#ff7500;"/>
    </defs>
    <g clip-path="url(#p2919cd92b4)">
     <use style="fill:#ff7500;stroke:#ff7500;" x="218.443521" xlink:href="#md089d66e57" y="212.803583"/>
    </g>
   </g>
   <g id="line2d_49">
    <defs>
     <path d="M 0 1.5 
C 0.397805 1.5 0.77937 1.341951 1.06066 1.06066 
C 1.341951 0.77937 1.5 0.397805 1.5 0 
C 1.5 -0.397805 1.341951 -0.77937 1.06066 -1.06066 
C 0.77937 -1.341951 0.397805 -1.5 0 -1.5 
C -0.397805 -1.5 -0.77937 -1.341951 -1.06066 -1.06066 
C -1.341951 -0.77937 -1.5 -0.397805 -1.5 0 
C -1.5 0.397805 -1.341951 0.77937 -1.06066 1.06066 
C -0.77937 1.341951 -0.397805 1.5 0 1.5 
z
" id="m1baad2db19" style="stroke:#6495ed;"/>
    </defs>
    <g>
     <use style="fill:#6495ed;stroke:#6495ed;" x="218.462451" xlink:href="#m1baad2db19" y="215.582307"/>
     <use style="fill:#6495ed;stroke:#6495ed;" x="218.462451" xlink:href="#m1baad2db19" y="215.582307"/>
    </g>
   </g>
   <g id="line2d_50">
    <path d="M 38.440992 298.944 
L 38.440992 293.386554 
L 78.59642 293.386554 
L 78.59642 291.070951 
L 84.464254 291.070951 
L 84.464254 288.755349 
L 92.34655 288.755349 
L 92.34655 287.365987 
L 97.755429 287.365987 
L 97.755429 285.976625 
L 106.66386 285.976625 
L 106.66386 285.513505 
L 109.252198 285.513505 
L 109.252198 284.587264 
L 114.418861 284.587264 
L 114.418861 283.661023 
L 115.502395 283.661023 
L 115.502395 283.197902 
L 118.399528 283.197902 
L 118.399528 282.734782 
L 119.097192 282.734782 
L 119.097192 282.271661 
L 119.931767 282.271661 
L 119.931767 281.808541 
L 123.985457 281.808541 
L 123.985457 281.34542 
L 124.494669 281.34542 
L 124.494669 280.8823 
L 126.839037 280.8823 
L 126.839037 280.419179 
L 127.695124 280.419179 
L 127.695124 279.029818 
L 128.511146 279.029818 
L 128.511146 277.177336 
L 132.181982 277.177336 
L 132.181982 276.714215 
L 132.73818 276.714215 
L 132.73818 276.251095 
L 134.661403 276.251095 
L 134.661403 275.787974 
L 137.617753 275.787974 
L 137.617753 274.861733 
L 138.141844 274.861733 
L 138.199116 271.619889 
L 138.538853 271.619889 
L 138.538853 271.156769 
L 140.64889 271.156769 
L 140.698504 269.304287 
L 141.378673 269.304287 
L 141.378673 268.841166 
L 143.527762 268.841166 
L 143.527762 268.378046 
L 144.747789 268.378046 
L 144.747789 267.914925 
L 144.981877 267.914925 
L 144.981877 267.451805 
L 145.212864 267.451805 
L 145.212864 266.988684 
L 145.740226 266.988684 
L 145.740226 266.062443 
L 146.958248 266.062443 
L 146.958248 264.673082 
L 147.096109 264.673082 
L 147.096109 264.209961 
L 147.536775 264.209961 
L 147.536775 263.746841 
L 150.114722 263.746841 
L 150.114722 262.8206 
L 152.736878 262.8206 
L 152.736878 262.357479 
L 153.178403 262.357479 
L 153.178403 261.431238 
L 153.466662 261.431238 
L 153.561699 260.041876 
L 156.418408 260.041876 
L 156.418408 259.578756 
L 156.992185 259.578756 
L 156.992185 259.115635 
L 157.147202 259.115635 
L 157.147202 258.652515 
L 158.412011 258.652515 
L 158.412011 258.189394 
L 158.802326 258.189394 
L 158.802326 257.263153 
L 159.320876 257.263153 
L 159.320876 256.336912 
L 159.857512 256.336912 
L 159.857512 255.873792 
L 160.313893 255.873792 
L 160.313893 254.947551 
L 161.70483 254.947551 
L 161.70483 254.48443 
L 161.999419 254.48443 
L 161.999419 254.02131 
L 163.089286 254.02131 
L 163.089286 253.558189 
L 163.682792 253.558189 
L 163.682792 253.095069 
L 164.256762 253.095069 
L 164.256762 252.631948 
L 165.35096 252.631948 
L 165.35096 252.168828 
L 166.471192 252.168828 
L 166.471192 251.705707 
L 166.740356 251.705707 
L 166.740356 251.242587 
L 168.913944 251.242587 
L 168.913944 250.779466 
L 170.758232 250.779466 
L 170.758232 250.316346 
L 177.079739 250.316346 
L 177.079739 249.390104 
L 177.612833 249.390104 
L 177.708032 247.074502 
L 180.498578 247.074502 
L 180.498578 246.148261 
L 181.095021 246.148261 
L 181.095021 245.68514 
L 182.156581 245.68514 
L 182.156581 244.758899 
L 182.375889 244.758899 
L 182.375889 243.832658 
L 182.995839 243.832658 
L 182.995839 243.369538 
L 183.360074 243.369538 
L 183.360074 242.906417 
L 185.264727 242.906417 
L 185.264727 241.980176 
L 185.524393 241.980176 
L 185.524393 241.517056 
L 185.73537 241.517056 
L 185.780249 238.738333 
L 186.622397 238.738333 
L 186.622397 237.812091 
L 187.047809 237.812091 
L 187.047809 236.88585 
L 190.86339 236.88585 
L 190.86339 235.959609 
L 192.288234 235.959609 
L 192.288234 235.496489 
L 192.998803 235.496489 
L 192.998803 235.033368 
L 193.964164 235.033368 
L 193.973506 232.717766 
L 200.88424 232.717766 
L 200.88424 231.791525 
L 201.127605 231.791525 
L 201.127605 231.328404 
L 202.255337 231.328404 
L 202.359582 229.475922 
L 202.388429 229.475922 
L 202.478986 228.549681 
L 203.556127 228.549681 
L 203.556127 227.62344 
L 205.190186 227.62344 
L 205.190186 226.697199 
L 206.702181 226.697199 
L 206.805406 222.065994 
L 206.814353 222.065994 
L 206.850096 221.139753 
L 208.155711 221.139753 
L 208.155711 220.213512 
L 211.362166 220.213512 
L 211.362166 219.750391 
L 212.82789 219.750391 
L 212.82789 218.82415 
L 213.126287 218.82415 
L 213.126287 217.897909 
L 215.457119 217.897909 
L 215.457119 216.971668 
L 217.812951 216.971668 
L 217.812951 216.508548 
L 218.462451 216.508548 
L 218.462451 215.582307 
L 338.688 215.582307 
L 338.688 215.582307 
" style="fill:none;stroke:#6495ed;stroke-linecap:square;stroke-width:1.5;"/>
   </g>
   <g id="line2d_51">
    <defs>
     <path d="M -0 6 
L 6 -6 
L -6 -6 
z
" id="mc0231098b4" style="stroke:#6495ed;stroke-linejoin:miter;stroke-width:1.5;"/>
    </defs>
    <g>
     <use style="fill-opacity:0;stroke:#6495ed;stroke-linejoin:miter;stroke-width:1.5;" x="153.561699" xlink:href="#mc0231098b4" y="260.041876"/>
     <use style="fill-opacity:0;stroke:#6495ed;stroke-linejoin:miter;stroke-width:1.5;" x="205.190186" xlink:href="#mc0231098b4" y="227.62344"/>
     <use style="fill-opacity:0;stroke:#6495ed;stroke-linejoin:miter;stroke-width:1.5;" x="218.462451" xlink:href="#mc0231098b4" y="216.508548"/>
     <use style="fill-opacity:0;stroke:#6495ed;stroke-linejoin:miter;stroke-width:1.5;" x="218.462451" xlink:href="#mc0231098b4" y="215.582307"/>
     <use style="fill-opacity:0;stroke:#6495ed;stroke-linejoin:miter;stroke-width:1.5;" x="338.688" xlink:href="#mc0231098b4" y="215.582307"/>
    </g>
   </g>
   <g id="line2d_52">
    <path style="fill:none;stroke:#6495ed;stroke-linecap:square;stroke-width:1.5;"/>
    <g/>
   </g>
   <g id="line2d_53">
    <path clip-path="url(#p2919cd92b4)" d="M 218.428591 216.508548 
" style="fill:none;stroke:#6495ed;stroke-linecap:square;stroke-width:1.5;"/>
    <defs>
     <path d="M -12 12 
L 12 -12 
M -12 -12 
L 12 12 
" id="md6f1b60fe5" style="stroke:#6495ed;"/>
    </defs>
    <g clip-path="url(#p2919cd92b4)">
     <use style="fill:#6495ed;stroke:#6495ed;" x="218.428591" xlink:href="#md6f1b60fe5" y="216.508548"/>
    </g>
   </g>
   <g id="line2d_54">
    <defs>
     <path d="M 0 1.5 
C 0.397805 1.5 0.77937 1.341951 1.06066 1.06066 
C 1.341951 0.77937 1.5 0.397805 1.5 0 
C 1.5 -0.397805 1.341951 -0.77937 1.06066 -1.06066 
C 0.77937 -1.341951 0.397805 -1.5 0 -1.5 
C -0.397805 -1.5 -0.77937 -1.341951 -1.06066 -1.06066 
C -1.341951 -0.77937 -1.5 -0.397805 -1.5 0 
C -1.5 0.397805 -1.341951 0.77937 -1.06066 1.06066 
C -0.77937 1.341951 -0.397805 1.5 0 1.5 
z
" id="m2826cbbafd" style="stroke:#ff0000;"/>
    </defs>
    <g>
     <use style="fill:#ff0000;stroke:#ff0000;" x="215.525782" xlink:href="#m2826cbbafd" y="218.36103"/>
     <use style="fill:#ff0000;stroke:#ff0000;" x="215.525782" xlink:href="#m2826cbbafd" y="218.36103"/>
    </g>
   </g>
   <g id="line2d_55">
    <path d="M 38.440992 298.944 
L 38.440992 293.386554 
L 78.59642 293.386554 
L 78.59642 291.070951 
L 84.464254 291.070951 
L 84.464254 288.755349 
L 92.34655 288.755349 
L 92.34655 287.829108 
L 95.259853 287.829108 
L 95.259853 287.365987 
L 99.938184 287.365987 
L 99.938184 286.902867 
L 101.877879 286.902867 
L 101.877879 285.976625 
L 103.623262 285.976625 
L 103.623262 285.513505 
L 105.209745 285.513505 
L 105.209745 284.587264 
L 108.006005 284.587264 
L 108.006005 283.661023 
L 113.500792 283.661023 
L 113.500792 283.197902 
L 114.418861 283.197902 
L 114.418861 282.734782 
L 118.399528 282.734782 
L 118.399528 281.808541 
L 119.931767 281.808541 
L 119.931767 281.34542 
L 120.41399 281.34542 
L 120.41399 279.956059 
L 121.036887 279.956059 
L 121.036887 279.492938 
L 122.362027 279.492938 
L 122.362027 278.566697 
L 123.855796 278.566697 
L 123.855796 278.103577 
L 124.867052 278.103577 
L 124.867052 277.177336 
L 125.351508 277.177336 
L 125.351508 276.714215 
L 125.588781 276.714215 
L 125.588781 275.324854 
L 126.948374 275.324854 
L 126.948374 274.861733 
L 127.378995 274.861733 
L 127.378995 274.398612 
L 129.667765 274.398612 
L 129.667765 272.08301 
L 130.839837 272.08301 
L 130.839837 271.619889 
L 131.856005 271.619889 
L 131.856005 270.693648 
L 132.181982 270.693648 
L 132.181982 270.230528 
L 132.501978 270.230528 
L 132.501978 269.304287 
L 132.73818 269.304287 
L 132.73818 268.841166 
L 135.415281 268.841166 
L 135.415281 268.378046 
L 136.266147 268.378046 
L 136.266147 267.914925 
L 137.617753 267.914925 
L 137.617753 266.988684 
L 138.084384 266.988684 
L 138.084384 266.525564 
L 138.538853 266.525564 
L 138.538853 266.062443 
L 140.144829 266.062443 
L 140.144829 265.599323 
L 141.041904 265.599323 
L 141.041904 264.673082 
L 142.351634 264.673082 
L 142.351634 263.746841 
L 142.619936 263.746841 
L 142.619936 261.894358 
L 144.06695 261.894358 
L 144.148442 260.968117 
L 144.310293 260.968117 
L 144.310293 260.041876 
L 145.628555 260.041876 
L 145.628555 259.578756 
L 146.854132 259.578756 
L 146.854132 259.115635 
L 147.86833 259.115635 
L 147.86833 258.652515 
L 148.386046 258.652515 
L 148.386046 257.726274 
L 148.826773 257.726274 
L 148.826773 256.800033 
L 149.073705 256.800033 
L 149.073705 254.48443 
L 150.027887 254.48443 
L 150.114722 253.095069 
L 151.634543 253.095069 
L 151.634543 252.631948 
L 152.486669 252.631948 
L 152.486669 252.168828 
L 154.121296 252.168828 
L 154.121296 251.705707 
L 156.875011 251.705707 
L 156.875011 250.779466 
L 158.447857 250.779466 
L 158.447857 250.316346 
L 158.590511 250.316346 
L 158.590511 249.853225 
L 158.907277 249.853225 
L 158.907277 249.390104 
L 159.574482 249.390104 
L 159.6749 248.463863 
L 159.724893 248.463863 
L 159.724893 248.000743 
L 160.152267 248.000743 
L 160.152267 247.537622 
L 169.388841 247.537622 
L 169.388841 247.074502 
L 173.889107 247.074502 
L 173.889107 246.611381 
L 174.949398 246.611381 
L 174.977178 244.758899 
L 175.981689 244.758899 
L 176.007874 243.832658 
L 176.523485 243.832658 
L 176.523485 242.906417 
L 178.744676 242.906417 
L 178.744676 241.980176 
L 180.923155 241.980176 
L 180.923155 241.517056 
L 182.65514 241.517056 
L 182.65514 240.590815 
L 184.429436 240.590815 
L 184.429436 238.738333 
L 184.701742 238.738333 
L 184.701742 237.348971 
L 185.940124 237.348971 
L 185.940124 236.88585 
L 187.625129 236.88585 
L 187.625129 235.959609 
L 192.055223 235.959609 
L 192.055223 235.496489 
L 193.0358 235.496489 
L 193.0358 234.570248 
L 195.620994 234.570248 
L 195.620994 233.644007 
L 202.236449 233.644007 
L 202.236449 232.717766 
L 204.378794 232.717766 
L 204.378794 231.791525 
L 205.393943 231.791525 
L 205.476232 229.475922 
L 207.912793 229.475922 
L 207.912793 228.549681 
L 208.051869 228.549681 
L 208.051869 228.086561 
L 208.304167 228.086561 
L 208.320584 225.770958 
L 209.081159 225.770958 
L 209.167346 223.918476 
L 211.03258 223.918476 
L 211.03258 223.455355 
L 211.277539 223.455355 
L 211.277539 222.529114 
L 212.385939 222.529114 
L 212.385939 221.602873 
L 213.438792 221.602873 
L 213.438792 220.676632 
L 215.478903 220.676632 
L 215.525782 218.36103 
L 338.688 218.36103 
L 338.688 218.36103 
" style="fill:none;stroke:#ff0000;stroke-linecap:square;stroke-width:1.5;"/>
   </g>
   <g id="line2d_56">
    <defs>
     <path d="M 0 -6 
L -5.196152 -3 
L -5.196152 3 
L -0 6 
L 5.196152 3 
L 5.196152 -3 
z
" id="m22b7cdccca" style="stroke:#ff0000;stroke-linejoin:miter;stroke-width:1.5;"/>
    </defs>
    <g>
     <use style="fill-opacity:0;stroke:#ff0000;stroke-linejoin:miter;stroke-width:1.5;" x="84.464254" xlink:href="#m22b7cdccca" y="291.070951"/>
     <use style="fill-opacity:0;stroke:#ff0000;stroke-linejoin:miter;stroke-width:1.5;" x="160.152267" xlink:href="#m22b7cdccca" y="247.537622"/>
     <use style="fill-opacity:0;stroke:#ff0000;stroke-linejoin:miter;stroke-width:1.5;" x="215.525782" xlink:href="#m22b7cdccca" y="219.287271"/>
     <use style="fill-opacity:0;stroke:#ff0000;stroke-linejoin:miter;stroke-width:1.5;" x="215.525782" xlink:href="#m22b7cdccca" y="218.36103"/>
     <use style="fill-opacity:0;stroke:#ff0000;stroke-linejoin:miter;stroke-width:1.5;" x="215.525782" xlink:href="#m22b7cdccca" y="218.36103"/>
     <use style="fill-opacity:0;stroke:#ff0000;stroke-linejoin:miter;stroke-width:1.5;" x="338.688" xlink:href="#m22b7cdccca" y="218.36103"/>
    </g>
   </g>
   <g id="line2d_57">
    <path style="fill:none;stroke:#ff0000;stroke-linecap:square;stroke-width:1.5;"/>
    <g/>
   </g>
   <g id="line2d_58">
    <path clip-path="url(#p2919cd92b4)" d="M 218.456717 218.36103 
" style="fill:none;stroke:#ff0000;stroke-linecap:square;stroke-width:1.5;"/>
    <defs>
     <path d="M -12 12 
L 12 -12 
M -12 -12 
L 12 12 
" id="md101e05735" style="stroke:#ff0000;"/>
    </defs>
    <g clip-path="url(#p2919cd92b4)">
     <use style="fill:#ff0000;stroke:#ff0000;" x="218.456717" xlink:href="#md101e05735" y="218.36103"/>
    </g>
   </g>
   <g id="line2d_59">
    <path d="M 338.688 219.750391 
L 369.60768 293.571802 
" style="fill:none;stroke:#000080;stroke-linecap:square;stroke-width:1.5;"/>
    <g>
     <use style="fill-opacity:0;stroke:#000080;stroke-width:1.5;" x="338.688" xlink:href="#mfaac4cde50" y="219.750391"/>
     <use style="fill-opacity:0;stroke:#000080;stroke-width:1.5;" x="369.60768" xlink:href="#mfaac4cde50" y="293.571802"/>
    </g>
   </g>
   <g id="line2d_60">
    <path d="M 338.688 218.36103 
L 369.60768 241.998701 
" style="fill:none;stroke:#ff00ff;stroke-linecap:square;stroke-width:1.5;"/>
    <g>
     <use style="fill-opacity:0;stroke:#ff00ff;stroke-linejoin:miter;stroke-width:1.5;" x="338.688" xlink:href="#md3c15e3caf" y="218.36103"/>
     <use style="fill-opacity:0;stroke:#ff00ff;stroke-linejoin:miter;stroke-width:1.5;" x="369.60768" xlink:href="#md3c15e3caf" y="241.998701"/>
    </g>
   </g>
   <g id="line2d_61">
    <path d="M 338.688 218.36103 
L 369.60768 190.4256 
" style="fill:none;stroke:#ff0000;stroke-linecap:square;stroke-width:1.5;"/>
    <g>
     <use style="fill-opacity:0;stroke:#ff0000;stroke-linejoin:miter;stroke-width:1.5;" x="338.688" xlink:href="#m22b7cdccca" y="218.36103"/>
     <use style="fill-opacity:0;stroke:#ff0000;stroke-linejoin:miter;stroke-width:1.5;" x="369.60768" xlink:href="#m22b7cdccca" y="190.4256"/>
    </g>
   </g>
   <g id="line2d_62">
    <path d="M 338.688 215.582307 
L 369.60768 138.852499 
" style="fill:none;stroke:#6495ed;stroke-linecap:square;stroke-width:1.5;"/>
    <g>
     <use style="fill-opacity:0;stroke:#6495ed;stroke-linejoin:miter;stroke-width:1.5;" x="338.688" xlink:href="#mc0231098b4" y="215.582307"/>
     <use style="fill-opacity:0;stroke:#6495ed;stroke-linejoin:miter;stroke-width:1.5;" x="369.60768" xlink:href="#mc0231098b4" y="138.852499"/>
    </g>
   </g>
   <g id="line2d_63">
    <path d="M 338.688 212.803583 
L 369.60768 87.279398 
" style="fill:none;stroke:#ff7500;stroke-linecap:square;stroke-width:1.5;"/>
    <g>
     <use style="fill-opacity:0;stroke:#ff7500;stroke-linejoin:bevel;stroke-width:1.5;" x="338.688" xlink:href="#m662df656cb" y="212.803583"/>
     <use style="fill-opacity:0;stroke:#ff7500;stroke-linejoin:bevel;stroke-width:1.5;" x="369.60768" xlink:href="#m662df656cb" y="87.279398"/>
    </g>
   </g>
   <g id="line2d_64">
    <path d="M 338.688 298.944 
L 338.688 30.334099 
" style="fill:none;stroke:#000000;stroke-linecap:square;stroke-width:1.5;"/>
   </g>
   <g id="patch_3">
    <path d="M 57.6 298.944 
L 57.6 27.648 
" style="fill:none;stroke:#000000;stroke-linecap:square;stroke-linejoin:miter;stroke-width:0.8;"/>
   </g>
   <g id="patch_4">
    <path d="M 338.688 298.944 
L 338.688 27.648 
" style="fill:none;stroke:#000000;stroke-linecap:square;stroke-linejoin:miter;stroke-width:0.8;"/>
   </g>
   <g id="patch_5">
    <path d="M 57.6 298.944 
L 338.688 298.944 
" style="fill:none;stroke:#000000;stroke-linecap:square;stroke-linejoin:miter;stroke-width:0.8;"/>
   </g>
   <g id="patch_6">
    <path d="M 57.6 27.648 
L 338.688 27.648 
" style="fill:none;stroke:#000000;stroke-linecap:square;stroke-linejoin:miter;stroke-width:0.8;"/>
   </g>
   <g id="text_13">
    <!-- \^\,0.1 lbfg -->
    <g transform="translate(375.22944 298.262739)scale(0.17 -0.17)">
     <defs>
      <path d="M 8.296875 72.90625 
L 33.6875 -9.28125 
L 25.390625 -9.28125 
L 0 72.90625 
z
" id="DejaVuSans-92"/>
      <path d="M 46.6875 72.90625 
L 73.1875 45.703125 
L 63.375 45.703125 
L 41.890625 64.984375 
L 20.40625 45.703125 
L 10.59375 45.703125 
L 37.109375 72.90625 
z
" id="DejaVuSans-94"/>
      <path d="M 48.6875 27.296875 
Q 48.6875 37.203125 44.609375 42.84375 
Q 40.53125 48.484375 33.40625 48.484375 
Q 26.265625 48.484375 22.1875 42.84375 
Q 18.109375 37.203125 18.109375 27.296875 
Q 18.109375 17.390625 22.1875 11.75 
Q 26.265625 6.109375 33.40625 6.109375 
Q 40.53125 6.109375 44.609375 11.75 
Q 48.6875 17.390625 48.6875 27.296875 
z
M 18.109375 46.390625 
Q 20.953125 51.265625 25.265625 53.625 
Q 29.59375 56 35.59375 56 
Q 45.5625 56 51.78125 48.09375 
Q 58.015625 40.1875 58.015625 27.296875 
Q 58.015625 14.40625 51.78125 6.484375 
Q 45.5625 -1.421875 35.59375 -1.421875 
Q 29.59375 -1.421875 25.265625 0.953125 
Q 20.953125 3.328125 18.109375 8.203125 
L 18.109375 0 
L 9.078125 0 
L 9.078125 75.984375 
L 18.109375 75.984375 
z
" id="DejaVuSans-98"/>
     </defs>
     <use xlink:href="#DejaVuSans-92"/>
     <use x="33.691406" xlink:href="#DejaVuSans-94"/>
     <use x="117.480469" xlink:href="#DejaVuSans-92"/>
     <use x="151.171875" xlink:href="#DejaVuSans-44"/>
     <use x="182.958984" xlink:href="#DejaVuSans-48"/>
     <use x="246.582031" xlink:href="#DejaVuSans-46"/>
     <use x="278.369141" xlink:href="#DejaVuSans-49"/>
     <use x="341.992188" xlink:href="#DejaVuSans-32"/>
     <use x="373.779297" xlink:href="#DejaVuSans-108"/>
     <use x="401.5625" xlink:href="#DejaVuSans-98"/>
     <use x="465.039062" xlink:href="#DejaVuSans-102"/>
     <use x="500.244141" xlink:href="#DejaVuSans-103"/>
    </g>
   </g>
   <g id="text_14">
    <!-- \^\,0.3 lbfg -->
    <g transform="translate(375.22944 246.689638)scale(0.17 -0.17)">
     <defs>
      <path d="M 40.578125 39.3125 
Q 47.65625 37.796875 51.625 33 
Q 55.609375 28.21875 55.609375 21.1875 
Q 55.609375 10.40625 48.1875 4.484375 
Q 40.765625 -1.421875 27.09375 -1.421875 
Q 22.515625 -1.421875 17.65625 -0.515625 
Q 12.796875 0.390625 7.625 2.203125 
L 7.625 11.71875 
Q 11.71875 9.328125 16.59375 8.109375 
Q 21.484375 6.890625 26.8125 6.890625 
Q 36.078125 6.890625 40.9375 10.546875 
Q 45.796875 14.203125 45.796875 21.1875 
Q 45.796875 27.640625 41.28125 31.265625 
Q 36.765625 34.90625 28.71875 34.90625 
L 20.21875 34.90625 
L 20.21875 43.015625 
L 29.109375 43.015625 
Q 36.375 43.015625 40.234375 45.921875 
Q 44.09375 48.828125 44.09375 54.296875 
Q 44.09375 59.90625 40.109375 62.90625 
Q 36.140625 65.921875 28.71875 65.921875 
Q 24.65625 65.921875 20.015625 65.03125 
Q 15.375 64.15625 9.8125 62.3125 
L 9.8125 71.09375 
Q 15.4375 72.65625 20.34375 73.4375 
Q 25.25 74.21875 29.59375 74.21875 
Q 40.828125 74.21875 47.359375 69.109375 
Q 53.90625 64.015625 53.90625 55.328125 
Q 53.90625 49.265625 50.4375 45.09375 
Q 46.96875 40.921875 40.578125 39.3125 
z
" id="DejaVuSans-51"/>
     </defs>
     <use xlink:href="#DejaVuSans-92"/>
     <use x="33.691406" xlink:href="#DejaVuSans-94"/>
     <use x="117.480469" xlink:href="#DejaVuSans-92"/>
     <use x="151.171875" xlink:href="#DejaVuSans-44"/>
     <use x="182.958984" xlink:href="#DejaVuSans-48"/>
     <use x="246.582031" xlink:href="#DejaVuSans-46"/>
     <use x="278.369141" xlink:href="#DejaVuSans-51"/>
     <use x="341.992188" xlink:href="#DejaVuSans-32"/>
     <use x="373.779297" xlink:href="#DejaVuSans-108"/>
     <use x="401.5625" xlink:href="#DejaVuSans-98"/>
     <use x="465.039062" xlink:href="#DejaVuSans-102"/>
     <use x="500.244141" xlink:href="#DejaVuSans-103"/>
    </g>
   </g>
   <g id="text_15">
    <!-- \^\,2 lbfgs -->
    <g transform="translate(375.22944 195.116537)scale(0.17 -0.17)">
     <use xlink:href="#DejaVuSans-92"/>
     <use x="33.691406" xlink:href="#DejaVuSans-94"/>
     <use x="117.480469" xlink:href="#DejaVuSans-92"/>
     <use x="151.171875" xlink:href="#DejaVuSans-44"/>
     <use x="182.958984" xlink:href="#DejaVuSans-50"/>
     <use x="246.582031" xlink:href="#DejaVuSans-32"/>
     <use x="278.369141" xlink:href="#DejaVuSans-108"/>
     <use x="306.152344" xlink:href="#DejaVuSans-98"/>
     <use x="369.628906" xlink:href="#DejaVuSans-102"/>
     <use x="404.833984" xlink:href="#DejaVuSans-103"/>
     <use x="468.310547" xlink:href="#DejaVuSans-115"/>
    </g>
   </g>
   <g id="text_16">
    <!-- \^\,1 lbfgs -->
    <g transform="translate(375.22944 143.543437)scale(0.17 -0.17)">
     <use xlink:href="#DejaVuSans-92"/>
     <use x="33.691406" xlink:href="#DejaVuSans-94"/>
     <use x="117.480469" xlink:href="#DejaVuSans-92"/>
     <use x="151.171875" xlink:href="#DejaVuSans-44"/>
     <use x="182.958984" xlink:href="#DejaVuSans-49"/>
     <use x="246.582031" xlink:href="#DejaVuSans-32"/>
     <use x="278.369141" xlink:href="#DejaVuSans-108"/>
     <use x="306.152344" xlink:href="#DejaVuSans-98"/>
     <use x="369.628906" xlink:href="#DejaVuSans-102"/>
     <use x="404.833984" xlink:href="#DejaVuSans-103"/>
     <use x="468.310547" xlink:href="#DejaVuSans-115"/>
    </g>
   </g>
   <g id="text_17">
    <!-- \^\,0.75 lbf -->
    <g transform="translate(375.22944 91.970336)scale(0.17 -0.17)">
     <defs>
      <path d="M 8.203125 72.90625 
L 55.078125 72.90625 
L 55.078125 68.703125 
L 28.609375 0 
L 18.3125 0 
L 43.21875 64.59375 
L 8.203125 64.59375 
z
" id="DejaVuSans-55"/>
      <path d="M 10.796875 72.90625 
L 49.515625 72.90625 
L 49.515625 64.59375 
L 19.828125 64.59375 
L 19.828125 46.734375 
Q 21.96875 47.46875 24.109375 47.828125 
Q 26.265625 48.1875 28.421875 48.1875 
Q 40.625 48.1875 47.75 41.5 
Q 54.890625 34.8125 54.890625 23.390625 
Q 54.890625 11.625 47.5625 5.09375 
Q 40.234375 -1.421875 26.90625 -1.421875 
Q 22.3125 -1.421875 17.546875 -0.640625 
Q 12.796875 0.140625 7.71875 1.703125 
L 7.71875 11.625 
Q 12.109375 9.234375 16.796875 8.0625 
Q 21.484375 6.890625 26.703125 6.890625 
Q 35.15625 6.890625 40.078125 11.328125 
Q 45.015625 15.765625 45.015625 23.390625 
Q 45.015625 31 40.078125 35.4375 
Q 35.15625 39.890625 26.703125 39.890625 
Q 22.75 39.890625 18.8125 39.015625 
Q 14.890625 38.140625 10.796875 36.28125 
z
" id="DejaVuSans-53"/>
     </defs>
     <use xlink:href="#DejaVuSans-92"/>
     <use x="33.691406" xlink:href="#DejaVuSans-94"/>
     <use x="117.480469" xlink:href="#DejaVuSans-92"/>
     <use x="151.171875" xlink:href="#DejaVuSans-44"/>
     <use x="182.958984" xlink:href="#DejaVuSans-48"/>
     <use x="246.582031" xlink:href="#DejaVuSans-46"/>
     <use x="278.369141" xlink:href="#DejaVuSans-55"/>
     <use x="341.992188" xlink:href="#DejaVuSans-53"/>
     <use x="405.615234" xlink:href="#DejaVuSans-32"/>
     <use x="437.402344" xlink:href="#DejaVuSans-108"/>
     <use x="465.185547" xlink:href="#DejaVuSans-98"/>
     <use x="528.662109" xlink:href="#DejaVuSans-102"/>
    </g>
   </g>
   <g id="text_18">
    <!-- best 2016 -->
    <g transform="translate(375.22944 40.397235)scale(0.17 -0.17)">
     <use xlink:href="#DejaVuSans-98"/>
     <use x="63.476562" xlink:href="#DejaVuSans-101"/>
     <use x="125" xlink:href="#DejaVuSans-115"/>
     <use x="177.099609" xlink:href="#DejaVuSans-116"/>
     <use x="216.308594" xlink:href="#DejaVuSans-32"/>
     <use x="248.095703" xlink:href="#DejaVuSans-50"/>
     <use x="311.71875" xlink:href="#DejaVuSans-48"/>
     <use x="375.341797" xlink:href="#DejaVuSans-49"/>
     <use x="438.964844" xlink:href="#DejaVuSans-54"/>
    </g>
   </g>
   <g id="text_19">
    <!-- bbob-biobj f48, 3-D -->
    <g transform="translate(60.41088 38.111366)scale(0.102 -0.102)">
     <defs>
      <path d="M 9.421875 54.6875 
L 18.40625 54.6875 
L 18.40625 -0.984375 
Q 18.40625 -11.421875 14.421875 -16.109375 
Q 10.453125 -20.796875 1.609375 -20.796875 
L -1.8125 -20.796875 
L -1.8125 -13.1875 
L 0.59375 -13.1875 
Q 5.71875 -13.1875 7.5625 -10.8125 
Q 9.421875 -8.453125 9.421875 -0.984375 
z
M 9.421875 75.984375 
L 18.40625 75.984375 
L 18.40625 64.59375 
L 9.421875 64.59375 
z
" id="DejaVuSans-106"/>
      <path d="M 19.671875 64.796875 
L 19.671875 8.109375 
L 31.59375 8.109375 
Q 46.6875 8.109375 53.6875 14.9375 
Q 60.6875 21.78125 60.6875 36.53125 
Q 60.6875 51.171875 53.6875 57.984375 
Q 46.6875 64.796875 31.59375 64.796875 
z
M 9.8125 72.90625 
L 30.078125 72.90625 
Q 51.265625 72.90625 61.171875 64.09375 
Q 71.09375 55.28125 71.09375 36.53125 
Q 71.09375 17.671875 61.125 8.828125 
Q 51.171875 0 30.078125 0 
L 9.8125 0 
z
" id="DejaVuSans-68"/>
     </defs>
     <use xlink:href="#DejaVuSans-98"/>
     <use x="63.476562" xlink:href="#DejaVuSans-98"/>
     <use x="126.953125" xlink:href="#DejaVuSans-111"/>
     <use x="188.134766" xlink:href="#DejaVuSans-98"/>
     <use x="251.611328" xlink:href="#DejaVuSans-45"/>
     <use x="287.695312" xlink:href="#DejaVuSans-98"/>
     <use x="351.171875" xlink:href="#DejaVuSans-105"/>
     <use x="378.955078" xlink:href="#DejaVuSans-111"/>
     <use x="440.136719" xlink:href="#DejaVuSans-98"/>
     <use x="503.613281" xlink:href="#DejaVuSans-106"/>
     <use x="531.396484" xlink:href="#DejaVuSans-32"/>
     <use x="563.183594" xlink:href="#DejaVuSans-102"/>
     <use x="598.388672" xlink:href="#DejaVuSans-52"/>
     <use x="662.011719" xlink:href="#DejaVuSans-56"/>
     <use x="725.634766" xlink:href="#DejaVuSans-44"/>
     <use x="757.421875" xlink:href="#DejaVuSans-32"/>
     <use x="789.208984" xlink:href="#DejaVuSans-51"/>
     <use x="852.832031" xlink:href="#DejaVuSans-45"/>
     <use x="888.916016" xlink:href="#DejaVuSans-68"/>
    </g>
    <!-- 58 targets: 1..-1.0e-4 -->
    <g transform="translate(60.41088 49.533135)scale(0.102 -0.102)">
     <defs>
      <path d="M 11.71875 12.40625 
L 22.015625 12.40625 
L 22.015625 0 
L 11.71875 0 
z
M 11.71875 51.703125 
L 22.015625 51.703125 
L 22.015625 39.3125 
L 11.71875 39.3125 
z
" id="DejaVuSans-58"/>
     </defs>
     <use xlink:href="#DejaVuSans-53"/>
     <use x="63.623047" xlink:href="#DejaVuSans-56"/>
     <use x="127.246094" xlink:href="#DejaVuSans-32"/>
     <use x="159.033203" xlink:href="#DejaVuSans-116"/>
     <use x="198.242188" xlink:href="#DejaVuSans-97"/>
     <use x="259.521484" xlink:href="#DejaVuSans-114"/>
     <use x="298.884766" xlink:href="#DejaVuSans-103"/>
     <use x="362.361328" xlink:href="#DejaVuSans-101"/>
     <use x="423.884766" xlink:href="#DejaVuSans-116"/>
     <use x="463.09375" xlink:href="#DejaVuSans-115"/>
     <use x="515.193359" xlink:href="#DejaVuSans-58"/>
     <use x="548.884766" xlink:href="#DejaVuSans-32"/>
     <use x="580.671875" xlink:href="#DejaVuSans-49"/>
     <use x="644.294922" xlink:href="#DejaVuSans-46"/>
     <use x="676.082031" xlink:href="#DejaVuSans-46"/>
     <use x="707.869141" xlink:href="#DejaVuSans-45"/>
     <use x="743.953125" xlink:href="#DejaVuSans-49"/>
     <use x="807.576172" xlink:href="#DejaVuSans-46"/>
     <use x="839.363281" xlink:href="#DejaVuSans-48"/>
     <use x="902.986328" xlink:href="#DejaVuSans-101"/>
     <use x="964.509766" xlink:href="#DejaVuSans-45"/>
     <use x="1000.59375" xlink:href="#DejaVuSans-52"/>
    </g>
    <!-- 10 instances -->
    <g transform="translate(60.41088 60.954904)scale(0.102 -0.102)">
     <use xlink:href="#DejaVuSans-49"/>
     <use x="63.623047" xlink:href="#DejaVuSans-48"/>
     <use x="127.246094" xlink:href="#DejaVuSans-32"/>
     <use x="159.033203" xlink:href="#DejaVuSans-105"/>
     <use x="186.816406" xlink:href="#DejaVuSans-110"/>
     <use x="250.195312" xlink:href="#DejaVuSans-115"/>
     <use x="302.294922" xlink:href="#DejaVuSans-116"/>
     <use x="341.503906" xlink:href="#DejaVuSans-97"/>
     <use x="402.783203" xlink:href="#DejaVuSans-110"/>
     <use x="466.162109" xlink:href="#DejaVuSans-99"/>
     <use x="521.142578" xlink:href="#DejaVuSans-101"/>
     <use x="582.666016" xlink:href="#DejaVuSans-115"/>
    </g>
   </g>
   <g id="text_20">
    <!-- v2.4, hv-hash=ff0e71e8cd978373 -->
    <g style="fill:#808080;" transform="translate(112.648687 294.151352)scale(0.1 -0.1)">
     <defs>
      <path d="M 54.890625 33.015625 
L 54.890625 0 
L 45.90625 0 
L 45.90625 32.71875 
Q 45.90625 40.484375 42.875 44.328125 
Q 39.84375 48.1875 33.796875 48.1875 
Q 26.515625 48.1875 22.3125 43.546875 
Q 18.109375 38.921875 18.109375 30.90625 
L 18.109375 0 
L 9.078125 0 
L 9.078125 75.984375 
L 18.109375 75.984375 
L 18.109375 46.1875 
Q 21.34375 51.125 25.703125 53.5625 
Q 30.078125 56 35.796875 56 
Q 45.21875 56 50.046875 50.171875 
Q 54.890625 44.34375 54.890625 33.015625 
z
" id="DejaVuSans-104"/>
      <path d="M 10.59375 45.40625 
L 73.1875 45.40625 
L 73.1875 37.203125 
L 10.59375 37.203125 
z
M 10.59375 25.484375 
L 73.1875 25.484375 
L 73.1875 17.1875 
L 10.59375 17.1875 
z
" id="DejaVuSans-61"/>
      <path d="M 10.984375 1.515625 
L 10.984375 10.5 
Q 14.703125 8.734375 18.5 7.8125 
Q 22.3125 6.890625 25.984375 6.890625 
Q 35.75 6.890625 40.890625 13.453125 
Q 46.046875 20.015625 46.78125 33.40625 
Q 43.953125 29.203125 39.59375 26.953125 
Q 35.25 24.703125 29.984375 24.703125 
Q 19.046875 24.703125 12.671875 31.3125 
Q 6.296875 37.9375 6.296875 49.421875 
Q 6.296875 60.640625 12.9375 67.421875 
Q 19.578125 74.21875 30.609375 74.21875 
Q 43.265625 74.21875 49.921875 64.515625 
Q 56.59375 54.828125 56.59375 36.375 
Q 56.59375 19.140625 48.40625 8.859375 
Q 40.234375 -1.421875 26.421875 -1.421875 
Q 22.703125 -1.421875 18.890625 -0.6875 
Q 15.09375 0.046875 10.984375 1.515625 
z
M 30.609375 32.421875 
Q 37.25 32.421875 41.125 36.953125 
Q 45.015625 41.5 45.015625 49.421875 
Q 45.015625 57.28125 41.125 61.84375 
Q 37.25 66.40625 30.609375 66.40625 
Q 23.96875 66.40625 20.09375 61.84375 
Q 16.21875 57.28125 16.21875 49.421875 
Q 16.21875 41.5 20.09375 36.953125 
Q 23.96875 32.421875 30.609375 32.421875 
z
" id="DejaVuSans-57"/>
     </defs>
     <use xlink:href="#DejaVuSans-118"/>
     <use x="59.179688" xlink:href="#DejaVuSans-50"/>
     <use x="122.802734" xlink:href="#DejaVuSans-46"/>
     <use x="154.589844" xlink:href="#DejaVuSans-52"/>
     <use x="218.212891" xlink:href="#DejaVuSans-44"/>
     <use x="250" xlink:href="#DejaVuSans-32"/>
     <use x="281.787109" xlink:href="#DejaVuSans-104"/>
     <use x="345.166016" xlink:href="#DejaVuSans-118"/>
     <use x="401.720703" xlink:href="#DejaVuSans-45"/>
     <use x="437.804688" xlink:href="#DejaVuSans-104"/>
     <use x="501.183594" xlink:href="#DejaVuSans-97"/>
     <use x="562.462891" xlink:href="#DejaVuSans-115"/>
     <use x="614.5625" xlink:href="#DejaVuSans-104"/>
     <use x="677.941406" xlink:href="#DejaVuSans-61"/>
     <use x="761.730469" xlink:href="#DejaVuSans-102"/>
     <use x="796.935547" xlink:href="#DejaVuSans-102"/>
     <use x="832.140625" xlink:href="#DejaVuSans-48"/>
     <use x="895.763672" xlink:href="#DejaVuSans-101"/>
     <use x="957.287109" xlink:href="#DejaVuSans-55"/>
     <use x="1020.910156" xlink:href="#DejaVuSans-49"/>
     <use x="1084.533203" xlink:href="#DejaVuSans-101"/>
     <use x="1146.056641" xlink:href="#DejaVuSans-56"/>
     <use x="1209.679688" xlink:href="#DejaVuSans-99"/>
     <use x="1264.660156" xlink:href="#DejaVuSans-100"/>
     <use x="1328.136719" xlink:href="#DejaVuSans-57"/>
     <use x="1391.759766" xlink:href="#DejaVuSans-55"/>
     <use x="1455.382812" xlink:href="#DejaVuSans-56"/>
     <use x="1519.005859" xlink:href="#DejaVuSans-51"/>
     <use x="1582.628906" xlink:href="#DejaVuSans-55"/>
     <use x="1646.251953" xlink:href="#DejaVuSans-51"/>
    </g>
   </g>
   <g id="text_21">
    <!-- 48 Rastrigin/Schwefel -->
    <g transform="translate(89.570562 21.648)scale(0.2 -0.2)">
     <defs>
      <path d="M 44.390625 34.1875 
Q 47.5625 33.109375 50.5625 29.59375 
Q 53.5625 26.078125 56.59375 19.921875 
L 66.609375 0 
L 56 0 
L 46.6875 18.703125 
Q 43.0625 26.03125 39.671875 28.421875 
Q 36.28125 30.8125 30.421875 30.8125 
L 19.671875 30.8125 
L 19.671875 0 
L 9.8125 0 
L 9.8125 72.90625 
L 32.078125 72.90625 
Q 44.578125 72.90625 50.734375 67.671875 
Q 56.890625 62.453125 56.890625 51.90625 
Q 56.890625 45.015625 53.6875 40.46875 
Q 50.484375 35.9375 44.390625 34.1875 
z
M 19.671875 64.796875 
L 19.671875 38.921875 
L 32.078125 38.921875 
Q 39.203125 38.921875 42.84375 42.21875 
Q 46.484375 45.515625 46.484375 51.90625 
Q 46.484375 58.296875 42.84375 61.546875 
Q 39.203125 64.796875 32.078125 64.796875 
z
" id="DejaVuSans-82"/>
      <path d="M 53.515625 70.515625 
L 53.515625 60.890625 
Q 47.90625 63.578125 42.921875 64.890625 
Q 37.9375 66.21875 33.296875 66.21875 
Q 25.25 66.21875 20.875 63.09375 
Q 16.5 59.96875 16.5 54.203125 
Q 16.5 49.359375 19.40625 46.890625 
Q 22.3125 44.4375 30.421875 42.921875 
L 36.375 41.703125 
Q 47.40625 39.59375 52.65625 34.296875 
Q 57.90625 29 57.90625 20.125 
Q 57.90625 9.515625 50.796875 4.046875 
Q 43.703125 -1.421875 29.984375 -1.421875 
Q 24.8125 -1.421875 18.96875 -0.25 
Q 13.140625 0.921875 6.890625 3.21875 
L 6.890625 13.375 
Q 12.890625 10.015625 18.65625 8.296875 
Q 24.421875 6.59375 29.984375 6.59375 
Q 38.421875 6.59375 43.015625 9.90625 
Q 47.609375 13.234375 47.609375 19.390625 
Q 47.609375 24.75 44.3125 27.78125 
Q 41.015625 30.8125 33.5 32.328125 
L 27.484375 33.5 
Q 16.453125 35.6875 11.515625 40.375 
Q 6.59375 45.0625 6.59375 53.421875 
Q 6.59375 63.09375 13.40625 68.65625 
Q 20.21875 74.21875 32.171875 74.21875 
Q 37.3125 74.21875 42.625 73.28125 
Q 47.953125 72.359375 53.515625 70.515625 
z
" id="DejaVuSans-83"/>
      <path d="M 4.203125 54.6875 
L 13.1875 54.6875 
L 24.421875 12.015625 
L 35.59375 54.6875 
L 46.1875 54.6875 
L 57.421875 12.015625 
L 68.609375 54.6875 
L 77.59375 54.6875 
L 63.28125 0 
L 52.6875 0 
L 40.921875 44.828125 
L 29.109375 0 
L 18.5 0 
z
" id="DejaVuSans-119"/>
     </defs>
     <use xlink:href="#DejaVuSans-52"/>
     <use x="63.623047" xlink:href="#DejaVuSans-56"/>
     <use x="127.246094" xlink:href="#DejaVuSans-32"/>
     <use x="159.033203" xlink:href="#DejaVuSans-82"/>
     <use x="226.265625" xlink:href="#DejaVuSans-97"/>
     <use x="287.544922" xlink:href="#DejaVuSans-115"/>
     <use x="339.644531" xlink:href="#DejaVuSans-116"/>
     <use x="378.853516" xlink:href="#DejaVuSans-114"/>
     <use x="419.966797" xlink:href="#DejaVuSans-105"/>
     <use x="447.75" xlink:href="#DejaVuSans-103"/>
     <use x="511.226562" xlink:href="#DejaVuSans-105"/>
     <use x="539.009766" xlink:href="#DejaVuSans-110"/>
     <use x="602.388672" xlink:href="#DejaVuSans-47"/>
     <use x="636.080078" xlink:href="#DejaVuSans-83"/>
     <use x="699.556641" xlink:href="#DejaVuSans-99"/>
     <use x="754.537109" xlink:href="#DejaVuSans-104"/>
     <use x="817.916016" xlink:href="#DejaVuSans-119"/>
     <use x="899.703125" xlink:href="#DejaVuSans-101"/>
     <use x="961.226562" xlink:href="#DejaVuSans-102"/>
     <use x="996.431641" xlink:href="#DejaVuSans-101"/>
     <use x="1057.955078" xlink:href="#DejaVuSans-108"/>
    </g>
   </g>
  </g>
 </g>
 <defs>
  <clipPath id="p2919cd92b4">
   <rect height="271.296" width="281.088" x="57.6" y="27.648"/>
  </clipPath>
 </defs>
</svg>
