<?xml version="1.0" encoding="utf-8" standalone="no"?>
<!DOCTYPE svg PUBLIC "-//W3C//DTD SVG 1.1//EN"
  "http://www.w3.org/Graphics/SVG/1.1/DTD/svg11.dtd">
<!-- Created with matplotlib (http://matplotlib.org/) -->
<svg height="353pt" version="1.1" viewBox="0 0 506 353" width="506pt" xmlns="http://www.w3.org/2000/svg" xmlns:xlink="http://www.w3.org/1999/xlink">
 <defs>
  <style type="text/css">
*{stroke-linecap:butt;stroke-linejoin:round;}
  </style>
 </defs>
 <g id="figure_1">
  <g id="patch_1">
   <path d="M 0 353.22225 
L 506.0775 353.22225 
L 506.0775 0 
L 0 0 
z
" style="fill:#ffffff;"/>
  </g>
  <g id="axes_1">
   <g id="patch_2">
    <path d="M 70.8 298.245375 
L 427.92 298.245375 
L 427.92 32.133375 
L 70.8 32.133375 
z
" style="fill:#ffffff;"/>
   </g>
   <g id="matplotlib.axis_1">
    <g id="xtick_1">
     <g id="line2d_1">
      <path clip-path="url(#p7e3e166cba)" d="M 70.8 298.245375 
L 70.8 32.133375 
" style="fill:none;stroke:#b0b0b0;stroke-linecap:square;stroke-width:0.8;"/>
     </g>
     <g id="line2d_2">
      <defs>
       <path d="M 0 0 
L 0 3.5 
" id="md7b3373071" style="stroke:#000000;stroke-width:0.8;"/>
      </defs>
      <g>
       <use style="stroke:#000000;stroke-width:0.8;" x="70.8" xlink:href="#md7b3373071" y="298.245375"/>
      </g>
     </g>
     <g id="text_1">
      <!-- 0 -->
      <defs>
       <path d="M 31.78125 66.40625 
Q 24.171875 66.40625 20.328125 58.90625 
Q 16.5 51.421875 16.5 36.375 
Q 16.5 21.390625 20.328125 13.890625 
Q 24.171875 6.390625 31.78125 6.390625 
Q 39.453125 6.390625 43.28125 13.890625 
Q 47.125 21.390625 47.125 36.375 
Q 47.125 51.421875 43.28125 58.90625 
Q 39.453125 66.40625 31.78125 66.40625 
z
M 31.78125 74.21875 
Q 44.046875 74.21875 50.515625 64.515625 
Q 56.984375 54.828125 56.984375 36.375 
Q 56.984375 17.96875 50.515625 8.265625 
Q 44.046875 -1.421875 31.78125 -1.421875 
Q 19.53125 -1.421875 13.0625 8.265625 
Q 6.59375 17.96875 6.59375 36.375 
Q 6.59375 54.828125 13.0625 64.515625 
Q 19.53125 74.21875 31.78125 74.21875 
z
" id="DejaVuSans-30"/>
      </defs>
      <g transform="translate(64.4375 320.44225)scale(0.2 -0.2)">
       <use xlink:href="#DejaVuSans-30"/>
      </g>
     </g>
    </g>
    <g id="xtick_2">
     <g id="line2d_3">
      <path clip-path="url(#p7e3e166cba)" d="M 153.085714 298.245375 
L 153.085714 32.133375 
" style="fill:none;stroke:#b0b0b0;stroke-linecap:square;stroke-width:0.8;"/>
     </g>
     <g id="line2d_4">
      <g>
       <use style="stroke:#000000;stroke-width:0.8;" x="153.085714" xlink:href="#md7b3373071" y="298.245375"/>
      </g>
     </g>
     <g id="text_2">
      <!-- 2 -->
      <defs>
       <path d="M 19.1875 8.296875 
L 53.609375 8.296875 
L 53.609375 0 
L 7.328125 0 
L 7.328125 8.296875 
Q 12.9375 14.109375 22.625 23.890625 
Q 32.328125 33.6875 34.8125 36.53125 
Q 39.546875 41.84375 41.421875 45.53125 
Q 43.3125 49.21875 43.3125 52.78125 
Q 43.3125 58.59375 39.234375 62.25 
Q 35.15625 65.921875 28.609375 65.921875 
Q 23.96875 65.921875 18.8125 64.3125 
Q 13.671875 62.703125 7.8125 59.421875 
L 7.8125 69.390625 
Q 13.765625 71.78125 18.9375 73 
Q 24.125 74.21875 28.421875 74.21875 
Q 39.75 74.21875 46.484375 68.546875 
Q 53.21875 62.890625 53.21875 53.421875 
Q 53.21875 48.921875 51.53125 44.890625 
Q 49.859375 40.875 45.40625 35.40625 
Q 44.1875 33.984375 37.640625 27.21875 
Q 31.109375 20.453125 19.1875 8.296875 
z
" id="DejaVuSans-32"/>
      </defs>
      <g transform="translate(146.723214 320.44225)scale(0.2 -0.2)">
       <use xlink:href="#DejaVuSans-32"/>
      </g>
     </g>
    </g>
    <g id="xtick_3">
     <g id="line2d_5">
      <path clip-path="url(#p7e3e166cba)" d="M 235.371429 298.245375 
L 235.371429 32.133375 
" style="fill:none;stroke:#b0b0b0;stroke-linecap:square;stroke-width:0.8;"/>
     </g>
     <g id="line2d_6">
      <g>
       <use style="stroke:#000000;stroke-width:0.8;" x="235.371429" xlink:href="#md7b3373071" y="298.245375"/>
      </g>
     </g>
     <g id="text_3">
      <!-- 4 -->
      <defs>
       <path d="M 37.796875 64.3125 
L 12.890625 25.390625 
L 37.796875 25.390625 
z
M 35.203125 72.90625 
L 47.609375 72.90625 
L 47.609375 25.390625 
L 58.015625 25.390625 
L 58.015625 17.1875 
L 47.609375 17.1875 
L 47.609375 0 
L 37.796875 0 
L 37.796875 17.1875 
L 4.890625 17.1875 
L 4.890625 26.703125 
z
" id="DejaVuSans-34"/>
      </defs>
      <g transform="translate(229.008929 320.44225)scale(0.2 -0.2)">
       <use xlink:href="#DejaVuSans-34"/>
      </g>
     </g>
    </g>
    <g id="xtick_4">
     <g id="line2d_7">
      <path clip-path="url(#p7e3e166cba)" d="M 317.657143 298.245375 
L 317.657143 32.133375 
" style="fill:none;stroke:#b0b0b0;stroke-linecap:square;stroke-width:0.8;"/>
     </g>
     <g id="line2d_8">
      <g>
       <use style="stroke:#000000;stroke-width:0.8;" x="317.657143" xlink:href="#md7b3373071" y="298.245375"/>
      </g>
     </g>
     <g id="text_4">
      <!-- 6 -->
      <defs>
       <path d="M 33.015625 40.375 
Q 26.375 40.375 22.484375 35.828125 
Q 18.609375 31.296875 18.609375 23.390625 
Q 18.609375 15.53125 22.484375 10.953125 
Q 26.375 6.390625 33.015625 6.390625 
Q 39.65625 6.390625 43.53125 10.953125 
Q 47.40625 15.53125 47.40625 23.390625 
Q 47.40625 31.296875 43.53125 35.828125 
Q 39.65625 40.375 33.015625 40.375 
z
M 52.59375 71.296875 
L 52.59375 62.3125 
Q 48.875 64.0625 45.09375 64.984375 
Q 41.3125 65.921875 37.59375 65.921875 
Q 27.828125 65.921875 22.671875 59.328125 
Q 17.53125 52.734375 16.796875 39.40625 
Q 19.671875 43.65625 24.015625 45.921875 
Q 28.375 48.1875 33.59375 48.1875 
Q 44.578125 48.1875 50.953125 41.515625 
Q 57.328125 34.859375 57.328125 23.390625 
Q 57.328125 12.15625 50.6875 5.359375 
Q 44.046875 -1.421875 33.015625 -1.421875 
Q 20.359375 -1.421875 13.671875 8.265625 
Q 6.984375 17.96875 6.984375 36.375 
Q 6.984375 53.65625 15.1875 63.9375 
Q 23.390625 74.21875 37.203125 74.21875 
Q 40.921875 74.21875 44.703125 73.484375 
Q 48.484375 72.75 52.59375 71.296875 
z
" id="DejaVuSans-36"/>
      </defs>
      <g transform="translate(311.294643 320.44225)scale(0.2 -0.2)">
       <use xlink:href="#DejaVuSans-36"/>
      </g>
     </g>
    </g>
    <g id="xtick_5">
     <g id="line2d_9">
      <path clip-path="url(#p7e3e166cba)" d="M 399.942857 298.245375 
L 399.942857 32.133375 
" style="fill:none;stroke:#b0b0b0;stroke-linecap:square;stroke-width:0.8;"/>
     </g>
     <g id="line2d_10">
      <g>
       <use style="stroke:#000000;stroke-width:0.8;" x="399.942857" xlink:href="#md7b3373071" y="298.245375"/>
      </g>
     </g>
     <g id="text_5">
      <!-- 8 -->
      <defs>
       <path d="M 31.78125 34.625 
Q 24.75 34.625 20.71875 30.859375 
Q 16.703125 27.09375 16.703125 20.515625 
Q 16.703125 13.921875 20.71875 10.15625 
Q 24.75 6.390625 31.78125 6.390625 
Q 38.8125 6.390625 42.859375 10.171875 
Q 46.921875 13.96875 46.921875 20.515625 
Q 46.921875 27.09375 42.890625 30.859375 
Q 38.875 34.625 31.78125 34.625 
z
M 21.921875 38.8125 
Q 15.578125 40.375 12.03125 44.71875 
Q 8.5 49.078125 8.5 55.328125 
Q 8.5 64.0625 14.71875 69.140625 
Q 20.953125 74.21875 31.78125 74.21875 
Q 42.671875 74.21875 48.875 69.140625 
Q 55.078125 64.0625 55.078125 55.328125 
Q 55.078125 49.078125 51.53125 44.71875 
Q 48 40.375 41.703125 38.8125 
Q 48.828125 37.15625 52.796875 32.3125 
Q 56.78125 27.484375 56.78125 20.515625 
Q 56.78125 9.90625 50.3125 4.234375 
Q 43.84375 -1.421875 31.78125 -1.421875 
Q 19.734375 -1.421875 13.25 4.234375 
Q 6.78125 9.90625 6.78125 20.515625 
Q 6.78125 27.484375 10.78125 32.3125 
Q 14.796875 37.15625 21.921875 38.8125 
z
M 18.3125 54.390625 
Q 18.3125 48.734375 21.84375 45.5625 
Q 25.390625 42.390625 31.78125 42.390625 
Q 38.140625 42.390625 41.71875 45.5625 
Q 45.3125 48.734375 45.3125 54.390625 
Q 45.3125 60.0625 41.71875 63.234375 
Q 38.140625 66.40625 31.78125 66.40625 
Q 25.390625 66.40625 21.84375 63.234375 
Q 18.3125 60.0625 18.3125 54.390625 
z
" id="DejaVuSans-38"/>
      </defs>
      <g transform="translate(393.580357 320.44225)scale(0.2 -0.2)">
       <use xlink:href="#DejaVuSans-38"/>
      </g>
     </g>
    </g>
    <g id="text_6">
     <!-- log10 of # (f+g)-evals / dimension -->
     <defs>
      <path d="M 9.421875 75.984375 
L 18.40625 75.984375 
L 18.40625 0 
L 9.421875 0 
z
" id="DejaVuSans-6c"/>
      <path d="M 30.609375 48.390625 
Q 23.390625 48.390625 19.1875 42.75 
Q 14.984375 37.109375 14.984375 27.296875 
Q 14.984375 17.484375 19.15625 11.84375 
Q 23.34375 6.203125 30.609375 6.203125 
Q 37.796875 6.203125 41.984375 11.859375 
Q 46.1875 17.53125 46.1875 27.296875 
Q 46.1875 37.015625 41.984375 42.703125 
Q 37.796875 48.390625 30.609375 48.390625 
z
M 30.609375 56 
Q 42.328125 56 49.015625 48.375 
Q 55.71875 40.765625 55.71875 27.296875 
Q 55.71875 13.875 49.015625 6.21875 
Q 42.328125 -1.421875 30.609375 -1.421875 
Q 18.84375 -1.421875 12.171875 6.21875 
Q 5.515625 13.875 5.515625 27.296875 
Q 5.515625 40.765625 12.171875 48.375 
Q 18.84375 56 30.609375 56 
z
" id="DejaVuSans-6f"/>
      <path d="M 45.40625 27.984375 
Q 45.40625 37.75 41.375 43.109375 
Q 37.359375 48.484375 30.078125 48.484375 
Q 22.859375 48.484375 18.828125 43.109375 
Q 14.796875 37.75 14.796875 27.984375 
Q 14.796875 18.265625 18.828125 12.890625 
Q 22.859375 7.515625 30.078125 7.515625 
Q 37.359375 7.515625 41.375 12.890625 
Q 45.40625 18.265625 45.40625 27.984375 
z
M 54.390625 6.78125 
Q 54.390625 -7.171875 48.1875 -13.984375 
Q 42 -20.796875 29.203125 -20.796875 
Q 24.46875 -20.796875 20.265625 -20.09375 
Q 16.0625 -19.390625 12.109375 -17.921875 
L 12.109375 -9.1875 
Q 16.0625 -11.328125 19.921875 -12.34375 
Q 23.78125 -13.375 27.78125 -13.375 
Q 36.625 -13.375 41.015625 -8.765625 
Q 45.40625 -4.15625 45.40625 5.171875 
L 45.40625 9.625 
Q 42.625 4.78125 38.28125 2.390625 
Q 33.9375 0 27.875 0 
Q 17.828125 0 11.671875 7.65625 
Q 5.515625 15.328125 5.515625 27.984375 
Q 5.515625 40.671875 11.671875 48.328125 
Q 17.828125 56 27.875 56 
Q 33.9375 56 38.28125 53.609375 
Q 42.625 51.21875 45.40625 46.390625 
L 45.40625 54.6875 
L 54.390625 54.6875 
z
" id="DejaVuSans-67"/>
      <path d="M 12.40625 8.296875 
L 28.515625 8.296875 
L 28.515625 63.921875 
L 10.984375 60.40625 
L 10.984375 69.390625 
L 28.421875 72.90625 
L 38.28125 72.90625 
L 38.28125 8.296875 
L 54.390625 8.296875 
L 54.390625 0 
L 12.40625 0 
z
" id="DejaVuSans-31"/>
      <path id="DejaVuSans-20"/>
      <path d="M 37.109375 75.984375 
L 37.109375 68.5 
L 28.515625 68.5 
Q 23.6875 68.5 21.796875 66.546875 
Q 19.921875 64.59375 19.921875 59.515625 
L 19.921875 54.6875 
L 34.71875 54.6875 
L 34.71875 47.703125 
L 19.921875 47.703125 
L 19.921875 0 
L 10.890625 0 
L 10.890625 47.703125 
L 2.296875 47.703125 
L 2.296875 54.6875 
L 10.890625 54.6875 
L 10.890625 58.5 
Q 10.890625 67.625 15.140625 71.796875 
Q 19.390625 75.984375 28.609375 75.984375 
z
" id="DejaVuSans-66"/>
      <path d="M 51.125 44 
L 36.921875 44 
L 32.8125 27.6875 
L 47.125 27.6875 
z
M 43.796875 71.78125 
L 38.71875 51.515625 
L 52.984375 51.515625 
L 58.109375 71.78125 
L 65.921875 71.78125 
L 60.890625 51.515625 
L 76.125 51.515625 
L 76.125 44 
L 58.984375 44 
L 54.984375 27.6875 
L 70.515625 27.6875 
L 70.515625 20.21875 
L 53.078125 20.21875 
L 48 0 
L 40.1875 0 
L 45.21875 20.21875 
L 30.90625 20.21875 
L 25.875 0 
L 18.015625 0 
L 23.09375 20.21875 
L 7.71875 20.21875 
L 7.71875 27.6875 
L 24.90625 27.6875 
L 29 44 
L 13.28125 44 
L 13.28125 51.515625 
L 30.90625 51.515625 
L 35.890625 71.78125 
z
" id="DejaVuSans-23"/>
      <path d="M 31 75.875 
Q 24.46875 64.65625 21.28125 53.65625 
Q 18.109375 42.671875 18.109375 31.390625 
Q 18.109375 20.125 21.3125 9.0625 
Q 24.515625 -2 31 -13.1875 
L 23.1875 -13.1875 
Q 15.875 -1.703125 12.234375 9.375 
Q 8.59375 20.453125 8.59375 31.390625 
Q 8.59375 42.28125 12.203125 53.3125 
Q 15.828125 64.359375 23.1875 75.875 
z
" id="DejaVuSans-28"/>
      <path d="M 46 62.703125 
L 46 35.5 
L 73.1875 35.5 
L 73.1875 27.203125 
L 46 27.203125 
L 46 0 
L 37.796875 0 
L 37.796875 27.203125 
L 10.59375 27.203125 
L 10.59375 35.5 
L 37.796875 35.5 
L 37.796875 62.703125 
z
" id="DejaVuSans-2b"/>
      <path d="M 8.015625 75.875 
L 15.828125 75.875 
Q 23.140625 64.359375 26.78125 53.3125 
Q 30.421875 42.28125 30.421875 31.390625 
Q 30.421875 20.453125 26.78125 9.375 
Q 23.140625 -1.703125 15.828125 -13.1875 
L 8.015625 -13.1875 
Q 14.5 -2 17.703125 9.0625 
Q 20.90625 20.125 20.90625 31.390625 
Q 20.90625 42.671875 17.703125 53.65625 
Q 14.5 64.65625 8.015625 75.875 
z
" id="DejaVuSans-29"/>
      <path d="M 4.890625 31.390625 
L 31.203125 31.390625 
L 31.203125 23.390625 
L 4.890625 23.390625 
z
" id="DejaVuSans-2d"/>
      <path d="M 56.203125 29.59375 
L 56.203125 25.203125 
L 14.890625 25.203125 
Q 15.484375 15.921875 20.484375 11.0625 
Q 25.484375 6.203125 34.421875 6.203125 
Q 39.59375 6.203125 44.453125 7.46875 
Q 49.3125 8.734375 54.109375 11.28125 
L 54.109375 2.78125 
Q 49.265625 0.734375 44.1875 -0.34375 
Q 39.109375 -1.421875 33.890625 -1.421875 
Q 20.796875 -1.421875 13.15625 6.1875 
Q 5.515625 13.8125 5.515625 26.8125 
Q 5.515625 40.234375 12.765625 48.109375 
Q 20.015625 56 32.328125 56 
Q 43.359375 56 49.78125 48.890625 
Q 56.203125 41.796875 56.203125 29.59375 
z
M 47.21875 32.234375 
Q 47.125 39.59375 43.09375 43.984375 
Q 39.0625 48.390625 32.421875 48.390625 
Q 24.90625 48.390625 20.390625 44.140625 
Q 15.875 39.890625 15.1875 32.171875 
z
" id="DejaVuSans-65"/>
      <path d="M 2.984375 54.6875 
L 12.5 54.6875 
L 29.59375 8.796875 
L 46.6875 54.6875 
L 56.203125 54.6875 
L 35.6875 0 
L 23.484375 0 
z
" id="DejaVuSans-76"/>
      <path d="M 34.28125 27.484375 
Q 23.390625 27.484375 19.1875 25 
Q 14.984375 22.515625 14.984375 16.5 
Q 14.984375 11.71875 18.140625 8.90625 
Q 21.296875 6.109375 26.703125 6.109375 
Q 34.1875 6.109375 38.703125 11.40625 
Q 43.21875 16.703125 43.21875 25.484375 
L 43.21875 27.484375 
z
M 52.203125 31.203125 
L 52.203125 0 
L 43.21875 0 
L 43.21875 8.296875 
Q 40.140625 3.328125 35.546875 0.953125 
Q 30.953125 -1.421875 24.3125 -1.421875 
Q 15.921875 -1.421875 10.953125 3.296875 
Q 6 8.015625 6 15.921875 
Q 6 25.140625 12.171875 29.828125 
Q 18.359375 34.515625 30.609375 34.515625 
L 43.21875 34.515625 
L 43.21875 35.40625 
Q 43.21875 41.609375 39.140625 45 
Q 35.0625 48.390625 27.6875 48.390625 
Q 23 48.390625 18.546875 47.265625 
Q 14.109375 46.140625 10.015625 43.890625 
L 10.015625 52.203125 
Q 14.9375 54.109375 19.578125 55.046875 
Q 24.21875 56 28.609375 56 
Q 40.484375 56 46.34375 49.84375 
Q 52.203125 43.703125 52.203125 31.203125 
z
" id="DejaVuSans-61"/>
      <path d="M 44.28125 53.078125 
L 44.28125 44.578125 
Q 40.484375 46.53125 36.375 47.5 
Q 32.28125 48.484375 27.875 48.484375 
Q 21.1875 48.484375 17.84375 46.4375 
Q 14.5 44.390625 14.5 40.28125 
Q 14.5 37.15625 16.890625 35.375 
Q 19.28125 33.59375 26.515625 31.984375 
L 29.59375 31.296875 
Q 39.15625 29.25 43.1875 25.515625 
Q 47.21875 21.78125 47.21875 15.09375 
Q 47.21875 7.46875 41.1875 3.015625 
Q 35.15625 -1.421875 24.609375 -1.421875 
Q 20.21875 -1.421875 15.453125 -0.5625 
Q 10.6875 0.296875 5.421875 2 
L 5.421875 11.28125 
Q 10.40625 8.6875 15.234375 7.390625 
Q 20.0625 6.109375 24.8125 6.109375 
Q 31.15625 6.109375 34.5625 8.28125 
Q 37.984375 10.453125 37.984375 14.40625 
Q 37.984375 18.0625 35.515625 20.015625 
Q 33.0625 21.96875 24.703125 23.78125 
L 21.578125 24.515625 
Q 13.234375 26.265625 9.515625 29.90625 
Q 5.8125 33.546875 5.8125 39.890625 
Q 5.8125 47.609375 11.28125 51.796875 
Q 16.75 56 26.8125 56 
Q 31.78125 56 36.171875 55.265625 
Q 40.578125 54.546875 44.28125 53.078125 
z
" id="DejaVuSans-73"/>
      <path d="M 25.390625 72.90625 
L 33.6875 72.90625 
L 8.296875 -9.28125 
L 0 -9.28125 
z
" id="DejaVuSans-2f"/>
      <path d="M 45.40625 46.390625 
L 45.40625 75.984375 
L 54.390625 75.984375 
L 54.390625 0 
L 45.40625 0 
L 45.40625 8.203125 
Q 42.578125 3.328125 38.25 0.953125 
Q 33.9375 -1.421875 27.875 -1.421875 
Q 17.96875 -1.421875 11.734375 6.484375 
Q 5.515625 14.40625 5.515625 27.296875 
Q 5.515625 40.1875 11.734375 48.09375 
Q 17.96875 56 27.875 56 
Q 33.9375 56 38.25 53.625 
Q 42.578125 51.265625 45.40625 46.390625 
z
M 14.796875 27.296875 
Q 14.796875 17.390625 18.875 11.75 
Q 22.953125 6.109375 30.078125 6.109375 
Q 37.203125 6.109375 41.296875 11.75 
Q 45.40625 17.390625 45.40625 27.296875 
Q 45.40625 37.203125 41.296875 42.84375 
Q 37.203125 48.484375 30.078125 48.484375 
Q 22.953125 48.484375 18.875 42.84375 
Q 14.796875 37.203125 14.796875 27.296875 
z
" id="DejaVuSans-64"/>
      <path d="M 9.421875 54.6875 
L 18.40625 54.6875 
L 18.40625 0 
L 9.421875 0 
z
M 9.421875 75.984375 
L 18.40625 75.984375 
L 18.40625 64.59375 
L 9.421875 64.59375 
z
" id="DejaVuSans-69"/>
      <path d="M 52 44.1875 
Q 55.375 50.25 60.0625 53.125 
Q 64.75 56 71.09375 56 
Q 79.640625 56 84.28125 50.015625 
Q 88.921875 44.046875 88.921875 33.015625 
L 88.921875 0 
L 79.890625 0 
L 79.890625 32.71875 
Q 79.890625 40.578125 77.09375 44.375 
Q 74.3125 48.1875 68.609375 48.1875 
Q 61.625 48.1875 57.5625 43.546875 
Q 53.515625 38.921875 53.515625 30.90625 
L 53.515625 0 
L 44.484375 0 
L 44.484375 32.71875 
Q 44.484375 40.625 41.703125 44.40625 
Q 38.921875 48.1875 33.109375 48.1875 
Q 26.21875 48.1875 22.15625 43.53125 
Q 18.109375 38.875 18.109375 30.90625 
L 18.109375 0 
L 9.078125 0 
L 9.078125 54.6875 
L 18.109375 54.6875 
L 18.109375 46.1875 
Q 21.1875 51.21875 25.484375 53.609375 
Q 29.78125 56 35.6875 56 
Q 41.65625 56 45.828125 52.96875 
Q 50 49.953125 52 44.1875 
z
" id="DejaVuSans-6d"/>
      <path d="M 54.890625 33.015625 
L 54.890625 0 
L 45.90625 0 
L 45.90625 32.71875 
Q 45.90625 40.484375 42.875 44.328125 
Q 39.84375 48.1875 33.796875 48.1875 
Q 26.515625 48.1875 22.3125 43.546875 
Q 18.109375 38.921875 18.109375 30.90625 
L 18.109375 0 
L 9.078125 0 
L 9.078125 54.6875 
L 18.109375 54.6875 
L 18.109375 46.1875 
Q 21.34375 51.125 25.703125 53.5625 
Q 30.078125 56 35.796875 56 
Q 45.21875 56 50.046875 50.171875 
Q 54.890625 44.34375 54.890625 33.015625 
z
" id="DejaVuSans-6e"/>
     </defs>
     <g transform="translate(93.752813 342.278812)scale(0.18 -0.18)">
      <use xlink:href="#DejaVuSans-6c"/>
      <use x="27.783203" xlink:href="#DejaVuSans-6f"/>
      <use x="88.964844" xlink:href="#DejaVuSans-67"/>
      <use x="152.441406" xlink:href="#DejaVuSans-31"/>
      <use x="216.064453" xlink:href="#DejaVuSans-30"/>
      <use x="279.6875" xlink:href="#DejaVuSans-20"/>
      <use x="311.474609" xlink:href="#DejaVuSans-6f"/>
      <use x="372.65625" xlink:href="#DejaVuSans-66"/>
      <use x="407.861328" xlink:href="#DejaVuSans-20"/>
      <use x="439.648438" xlink:href="#DejaVuSans-23"/>
      <use x="523.4375" xlink:href="#DejaVuSans-20"/>
      <use x="555.224609" xlink:href="#DejaVuSans-28"/>
      <use x="594.238281" xlink:href="#DejaVuSans-66"/>
      <use x="629.443359" xlink:href="#DejaVuSans-2b"/>
      <use x="713.232422" xlink:href="#DejaVuSans-67"/>
      <use x="776.708984" xlink:href="#DejaVuSans-29"/>
      <use x="815.722656" xlink:href="#DejaVuSans-2d"/>
      <use x="851.806641" xlink:href="#DejaVuSans-65"/>
      <use x="913.330078" xlink:href="#DejaVuSans-76"/>
      <use x="972.509766" xlink:href="#DejaVuSans-61"/>
      <use x="1033.789062" xlink:href="#DejaVuSans-6c"/>
      <use x="1061.572266" xlink:href="#DejaVuSans-73"/>
      <use x="1113.671875" xlink:href="#DejaVuSans-20"/>
      <use x="1145.458984" xlink:href="#DejaVuSans-2f"/>
      <use x="1179.150391" xlink:href="#DejaVuSans-20"/>
      <use x="1210.9375" xlink:href="#DejaVuSans-64"/>
      <use x="1274.414062" xlink:href="#DejaVuSans-69"/>
      <use x="1302.197266" xlink:href="#DejaVuSans-6d"/>
      <use x="1399.609375" xlink:href="#DejaVuSans-65"/>
      <use x="1461.132812" xlink:href="#DejaVuSans-6e"/>
      <use x="1524.511719" xlink:href="#DejaVuSans-73"/>
      <use x="1576.611328" xlink:href="#DejaVuSans-69"/>
      <use x="1604.394531" xlink:href="#DejaVuSans-6f"/>
      <use x="1665.576172" xlink:href="#DejaVuSans-6e"/>
     </g>
    </g>
   </g>
   <g id="matplotlib.axis_2">
    <g id="ytick_1">
     <g id="line2d_11">
      <path clip-path="url(#p7e3e166cba)" d="M 70.8 298.245375 
L 427.92 298.245375 
" style="fill:none;stroke:#b0b0b0;stroke-linecap:square;stroke-width:0.8;"/>
     </g>
     <g id="line2d_12">
      <defs>
       <path d="M 0 0 
L -3.5 0 
" id="m0c3e4164e3" style="stroke:#000000;stroke-width:0.8;"/>
      </defs>
      <g>
       <use style="stroke:#000000;stroke-width:0.8;" x="70.8" xlink:href="#m0c3e4164e3" y="298.245375"/>
      </g>
     </g>
     <g id="text_7">
      <!-- 0.0 -->
      <defs>
       <path d="M 10.6875 12.40625 
L 21 12.40625 
L 21 0 
L 10.6875 0 
z
" id="DejaVuSans-2e"/>
      </defs>
      <g transform="translate(31.99375 305.843812)scale(0.2 -0.2)">
       <use xlink:href="#DejaVuSans-30"/>
       <use x="63.623047" xlink:href="#DejaVuSans-2e"/>
       <use x="95.410156" xlink:href="#DejaVuSans-30"/>
      </g>
     </g>
    </g>
    <g id="ytick_2">
     <g id="line2d_13">
      <path clip-path="url(#p7e3e166cba)" d="M 70.8 245.549929 
L 427.92 245.549929 
" style="fill:none;stroke:#b0b0b0;stroke-linecap:square;stroke-width:0.8;"/>
     </g>
     <g id="line2d_14">
      <g>
       <use style="stroke:#000000;stroke-width:0.8;" x="70.8" xlink:href="#m0c3e4164e3" y="245.549929"/>
      </g>
     </g>
     <g id="text_8">
      <!-- 0.2 -->
      <g transform="translate(31.99375 253.148367)scale(0.2 -0.2)">
       <use xlink:href="#DejaVuSans-30"/>
       <use x="63.623047" xlink:href="#DejaVuSans-2e"/>
       <use x="95.410156" xlink:href="#DejaVuSans-32"/>
      </g>
     </g>
    </g>
    <g id="ytick_3">
     <g id="line2d_15">
      <path clip-path="url(#p7e3e166cba)" d="M 70.8 192.854484 
L 427.92 192.854484 
" style="fill:none;stroke:#b0b0b0;stroke-linecap:square;stroke-width:0.8;"/>
     </g>
     <g id="line2d_16">
      <g>
       <use style="stroke:#000000;stroke-width:0.8;" x="70.8" xlink:href="#m0c3e4164e3" y="192.854484"/>
      </g>
     </g>
     <g id="text_9">
      <!-- 0.4 -->
      <g transform="translate(31.99375 200.452921)scale(0.2 -0.2)">
       <use xlink:href="#DejaVuSans-30"/>
       <use x="63.623047" xlink:href="#DejaVuSans-2e"/>
       <use x="95.410156" xlink:href="#DejaVuSans-34"/>
      </g>
     </g>
    </g>
    <g id="ytick_4">
     <g id="line2d_17">
      <path clip-path="url(#p7e3e166cba)" d="M 70.8 140.159038 
L 427.92 140.159038 
" style="fill:none;stroke:#b0b0b0;stroke-linecap:square;stroke-width:0.8;"/>
     </g>
     <g id="line2d_18">
      <g>
       <use style="stroke:#000000;stroke-width:0.8;" x="70.8" xlink:href="#m0c3e4164e3" y="140.159038"/>
      </g>
     </g>
     <g id="text_10">
      <!-- 0.6 -->
      <g transform="translate(31.99375 147.757476)scale(0.2 -0.2)">
       <use xlink:href="#DejaVuSans-30"/>
       <use x="63.623047" xlink:href="#DejaVuSans-2e"/>
       <use x="95.410156" xlink:href="#DejaVuSans-36"/>
      </g>
     </g>
    </g>
    <g id="ytick_5">
     <g id="line2d_19">
      <path clip-path="url(#p7e3e166cba)" d="M 70.8 87.463593 
L 427.92 87.463593 
" style="fill:none;stroke:#b0b0b0;stroke-linecap:square;stroke-width:0.8;"/>
     </g>
     <g id="line2d_20">
      <g>
       <use style="stroke:#000000;stroke-width:0.8;" x="70.8" xlink:href="#m0c3e4164e3" y="87.463593"/>
      </g>
     </g>
     <g id="text_11">
      <!-- 0.8 -->
      <g transform="translate(31.99375 95.06203)scale(0.2 -0.2)">
       <use xlink:href="#DejaVuSans-30"/>
       <use x="63.623047" xlink:href="#DejaVuSans-2e"/>
       <use x="95.410156" xlink:href="#DejaVuSans-38"/>
      </g>
     </g>
    </g>
    <g id="ytick_6">
     <g id="line2d_21">
      <path clip-path="url(#p7e3e166cba)" d="M 70.8 34.768147 
L 427.92 34.768147 
" style="fill:none;stroke:#b0b0b0;stroke-linecap:square;stroke-width:0.8;"/>
     </g>
     <g id="line2d_22">
      <g>
       <use style="stroke:#000000;stroke-width:0.8;" x="70.8" xlink:href="#m0c3e4164e3" y="34.768147"/>
      </g>
     </g>
     <g id="text_12">
      <!-- 1.0 -->
      <g transform="translate(31.99375 42.366585)scale(0.2 -0.2)">
       <use xlink:href="#DejaVuSans-31"/>
       <use x="63.623047" xlink:href="#DejaVuSans-2e"/>
       <use x="95.410156" xlink:href="#DejaVuSans-30"/>
      </g>
     </g>
    </g>
    <g id="text_13">
     <!-- Proportion of function+target pairs -->
     <defs>
      <path d="M 19.671875 64.796875 
L 19.671875 37.40625 
L 32.078125 37.40625 
Q 38.96875 37.40625 42.71875 40.96875 
Q 46.484375 44.53125 46.484375 51.125 
Q 46.484375 57.671875 42.71875 61.234375 
Q 38.96875 64.796875 32.078125 64.796875 
z
M 9.8125 72.90625 
L 32.078125 72.90625 
Q 44.34375 72.90625 50.609375 67.359375 
Q 56.890625 61.8125 56.890625 51.125 
Q 56.890625 40.328125 50.609375 34.8125 
Q 44.34375 29.296875 32.078125 29.296875 
L 19.671875 29.296875 
L 19.671875 0 
L 9.8125 0 
z
" id="DejaVuSans-50"/>
      <path d="M 41.109375 46.296875 
Q 39.59375 47.171875 37.8125 47.578125 
Q 36.03125 48 33.890625 48 
Q 26.265625 48 22.1875 43.046875 
Q 18.109375 38.09375 18.109375 28.8125 
L 18.109375 0 
L 9.078125 0 
L 9.078125 54.6875 
L 18.109375 54.6875 
L 18.109375 46.1875 
Q 20.953125 51.171875 25.484375 53.578125 
Q 30.03125 56 36.53125 56 
Q 37.453125 56 38.578125 55.875 
Q 39.703125 55.765625 41.0625 55.515625 
z
" id="DejaVuSans-72"/>
      <path d="M 18.109375 8.203125 
L 18.109375 -20.796875 
L 9.078125 -20.796875 
L 9.078125 54.6875 
L 18.109375 54.6875 
L 18.109375 46.390625 
Q 20.953125 51.265625 25.265625 53.625 
Q 29.59375 56 35.59375 56 
Q 45.5625 56 51.78125 48.09375 
Q 58.015625 40.1875 58.015625 27.296875 
Q 58.015625 14.40625 51.78125 6.484375 
Q 45.5625 -1.421875 35.59375 -1.421875 
Q 29.59375 -1.421875 25.265625 0.953125 
Q 20.953125 3.328125 18.109375 8.203125 
z
M 48.6875 27.296875 
Q 48.6875 37.203125 44.609375 42.84375 
Q 40.53125 48.484375 33.40625 48.484375 
Q 26.265625 48.484375 22.1875 42.84375 
Q 18.109375 37.203125 18.109375 27.296875 
Q 18.109375 17.390625 22.1875 11.75 
Q 26.265625 6.109375 33.40625 6.109375 
Q 40.53125 6.109375 44.609375 11.75 
Q 48.6875 17.390625 48.6875 27.296875 
z
" id="DejaVuSans-70"/>
      <path d="M 18.3125 70.21875 
L 18.3125 54.6875 
L 36.8125 54.6875 
L 36.8125 47.703125 
L 18.3125 47.703125 
L 18.3125 18.015625 
Q 18.3125 11.328125 20.140625 9.421875 
Q 21.96875 7.515625 27.59375 7.515625 
L 36.8125 7.515625 
L 36.8125 0 
L 27.59375 0 
Q 17.1875 0 13.234375 3.875 
Q 9.28125 7.765625 9.28125 18.015625 
L 9.28125 47.703125 
L 2.6875 47.703125 
L 2.6875 54.6875 
L 9.28125 54.6875 
L 9.28125 70.21875 
z
" id="DejaVuSans-74"/>
      <path d="M 8.5 21.578125 
L 8.5 54.6875 
L 17.484375 54.6875 
L 17.484375 21.921875 
Q 17.484375 14.15625 20.5 10.265625 
Q 23.53125 6.390625 29.59375 6.390625 
Q 36.859375 6.390625 41.078125 11.03125 
Q 45.3125 15.671875 45.3125 23.6875 
L 45.3125 54.6875 
L 54.296875 54.6875 
L 54.296875 0 
L 45.3125 0 
L 45.3125 8.40625 
Q 42.046875 3.421875 37.71875 1 
Q 33.40625 -1.421875 27.6875 -1.421875 
Q 18.265625 -1.421875 13.375 4.4375 
Q 8.5 10.296875 8.5 21.578125 
z
M 31.109375 56 
z
" id="DejaVuSans-75"/>
      <path d="M 48.78125 52.59375 
L 48.78125 44.1875 
Q 44.96875 46.296875 41.140625 47.34375 
Q 37.3125 48.390625 33.40625 48.390625 
Q 24.65625 48.390625 19.8125 42.84375 
Q 14.984375 37.3125 14.984375 27.296875 
Q 14.984375 17.28125 19.8125 11.734375 
Q 24.65625 6.203125 33.40625 6.203125 
Q 37.3125 6.203125 41.140625 7.25 
Q 44.96875 8.296875 48.78125 10.40625 
L 48.78125 2.09375 
Q 45.015625 0.34375 40.984375 -0.53125 
Q 36.96875 -1.421875 32.421875 -1.421875 
Q 20.0625 -1.421875 12.78125 6.34375 
Q 5.515625 14.109375 5.515625 27.296875 
Q 5.515625 40.671875 12.859375 48.328125 
Q 20.21875 56 33.015625 56 
Q 37.15625 56 41.109375 55.140625 
Q 45.0625 54.296875 48.78125 52.59375 
z
" id="DejaVuSans-63"/>
     </defs>
     <g transform="translate(24.250312 323.17875)rotate(-90)scale(0.18 -0.18)">
      <use xlink:href="#DejaVuSans-50"/>
      <use x="60.287109" xlink:href="#DejaVuSans-72"/>
      <use x="101.369141" xlink:href="#DejaVuSans-6f"/>
      <use x="162.550781" xlink:href="#DejaVuSans-70"/>
      <use x="226.027344" xlink:href="#DejaVuSans-6f"/>
      <use x="287.208984" xlink:href="#DejaVuSans-72"/>
      <use x="328.322266" xlink:href="#DejaVuSans-74"/>
      <use x="367.53125" xlink:href="#DejaVuSans-69"/>
      <use x="395.314453" xlink:href="#DejaVuSans-6f"/>
      <use x="456.496094" xlink:href="#DejaVuSans-6e"/>
      <use x="519.875" xlink:href="#DejaVuSans-20"/>
      <use x="551.662109" xlink:href="#DejaVuSans-6f"/>
      <use x="612.84375" xlink:href="#DejaVuSans-66"/>
      <use x="648.048828" xlink:href="#DejaVuSans-20"/>
      <use x="679.835938" xlink:href="#DejaVuSans-66"/>
      <use x="715.041016" xlink:href="#DejaVuSans-75"/>
      <use x="778.419922" xlink:href="#DejaVuSans-6e"/>
      <use x="841.798828" xlink:href="#DejaVuSans-63"/>
      <use x="896.779297" xlink:href="#DejaVuSans-74"/>
      <use x="935.988281" xlink:href="#DejaVuSans-69"/>
      <use x="963.771484" xlink:href="#DejaVuSans-6f"/>
      <use x="1024.953125" xlink:href="#DejaVuSans-6e"/>
      <use x="1088.332031" xlink:href="#DejaVuSans-2b"/>
      <use x="1172.121094" xlink:href="#DejaVuSans-74"/>
      <use x="1211.330078" xlink:href="#DejaVuSans-61"/>
      <use x="1272.609375" xlink:href="#DejaVuSans-72"/>
      <use x="1313.707031" xlink:href="#DejaVuSans-67"/>
      <use x="1377.183594" xlink:href="#DejaVuSans-65"/>
      <use x="1438.707031" xlink:href="#DejaVuSans-74"/>
      <use x="1477.916016" xlink:href="#DejaVuSans-20"/>
      <use x="1509.703125" xlink:href="#DejaVuSans-70"/>
      <use x="1573.179688" xlink:href="#DejaVuSans-61"/>
      <use x="1634.458984" xlink:href="#DejaVuSans-69"/>
      <use x="1662.242188" xlink:href="#DejaVuSans-72"/>
      <use x="1703.355469" xlink:href="#DejaVuSans-73"/>
     </g>
    </g>
   </g>
   <g id="line2d_23">
    <defs>
     <path d="M 0 1.5 
C 0.397805 1.5 0.77937 1.341951 1.06066 1.06066 
C 1.341951 0.77937 1.5 0.397805 1.5 0 
C 1.5 -0.397805 1.341951 -0.77937 1.06066 -1.06066 
C 0.77937 -1.341951 0.397805 -1.5 0 -1.5 
C -0.397805 -1.5 -0.77937 -1.341951 -1.06066 -1.06066 
C -1.341951 -0.77937 -1.5 -0.397805 -1.5 0 
C -1.5 0.397805 -1.341951 0.77937 -1.06066 1.06066 
C -0.77937 1.341951 -0.397805 1.5 0 1.5 
z
" id="m97ffb7febd" style="stroke:#000080;"/>
    </defs>
    <g>
     <use style="fill:#000080;stroke:#000080;" x="210.445909" xlink:href="#m97ffb7febd" y="34.768147"/>
     <use style="fill:#000080;stroke:#000080;" x="210.445909" xlink:href="#m97ffb7febd" y="34.768147"/>
    </g>
   </g>
   <g id="line2d_24">
    <path d="M 42.042377 298.245375 
L 42.042377 295.145643 
L 54.427611 295.145643 
L 54.427611 289.979423 
L 66.812845 289.979423 
L 66.812845 289.462801 
L 83.185234 289.462801 
L 83.185234 288.429557 
L 89.197359 288.429557 
L 89.197359 283.263337 
L 91.583313 283.263337 
L 91.583313 282.746715 
L 93.687874 282.746715 
L 93.687874 282.230093 
L 95.570468 282.230093 
L 95.570468 279.646982 
L 97.273482 279.646982 
L 97.273482 273.447518 
L 98.828211 273.447518 
L 98.828211 270.864408 
L 100.258423 270.864408 
L 100.258423 259.498724 
L 101.582593 259.498724 
L 101.582593 250.71615 
L 102.815366 250.71615 
L 102.815366 248.649662 
L 103.968548 248.649662 
L 103.968548 245.033307 
L 105.051795 245.033307 
L 105.051795 243.483441 
L 106.073108 243.483441 
L 106.073108 239.350465 
L 107.039188 239.350465 
L 107.039188 236.767355 
L 107.955702 236.767355 
L 107.955702 233.151001 
L 108.827491 233.151001 
L 108.827491 230.051269 
L 109.658716 230.051269 
L 109.658716 226.434915 
L 110.452985 226.434915 
L 110.452985 222.301939 
L 111.213445 222.301939 
L 111.213445 220.752073 
L 111.942857 220.752073 
L 111.942857 219.202207 
L 112.643657 219.202207 
L 112.643657 218.685585 
L 113.318006 218.685585 
L 113.318006 217.135719 
L 113.967827 217.135719 
L 113.967827 216.619097 
L 114.594843 216.619097 
L 114.594843 215.585853 
L 115.786492 215.585853 
L 115.786492 214.552609 
L 116.353782 214.552609 
L 116.353782 213.519365 
L 116.903613 213.519365 
L 116.903613 211.452876 
L 117.954982 211.452876 
L 117.954982 210.419632 
L 118.458343 210.419632 
L 118.458343 209.386388 
L 118.947911 209.386388 
L 118.947911 208.353144 
L 119.424422 208.353144 
L 119.424422 206.803278 
L 120.340936 206.803278 
L 120.340936 205.770034 
L 121.212725 205.770034 
L 121.212725 205.253412 
L 121.63317 205.253412 
L 121.63317 203.186924 
L 122.445497 203.186924 
L 122.445497 202.15368 
L 122.838219 202.15368 
L 122.838219 199.57057 
L 123.222494 199.57057 
L 123.222494 198.537326 
L 123.967107 198.537326 
L 123.967107 196.98746 
L 124.328091 196.98746 
L 124.328091 194.920972 
L 124.681927 194.920972 
L 124.681927 193.371106 
L 125.369247 193.371106 
L 125.369247 192.854484 
L 125.70324 192.854484 
L 125.70324 191.82124 
L 126.031105 191.82124 
L 126.031105 190.271374 
L 126.980077 190.271374 
L 126.980077 189.754752 
L 127.285522 189.754752 
L 127.285522 188.721508 
L 128.171726 188.721508 
L 128.171726 188.204886 
L 128.457622 188.204886 
L 128.457622 186.138398 
L 128.739016 186.138398 
L 128.739016 185.621776 
L 129.016046 185.621776 
L 129.016046 184.588532 
L 129.557546 184.588532 
L 129.557546 183.555288 
L 129.822263 183.555288 
L 129.822263 183.038666 
L 130.083117 183.038666 
L 130.083117 182.522044 
L 130.340216 182.522044 
L 130.340216 182.005422 
L 130.593669 182.005422 
L 130.593669 180.972178 
L 130.843577 180.972178 
L 130.843577 179.938934 
L 131.090037 179.938934 
L 131.090037 179.422312 
L 131.333145 179.422312 
L 131.333145 178.90569 
L 131.572989 178.90569 
L 131.572989 177.872445 
L 131.809656 177.872445 
L 131.809656 175.805957 
L 132.043229 175.805957 
L 132.043229 174.256091 
L 132.726171 174.256091 
L 132.726171 173.739469 
L 132.948138 173.739469 
L 132.948138 171.672981 
L 133.167381 171.672981 
L 133.167381 170.123115 
L 133.383967 170.123115 
L 133.383967 169.606493 
L 134.018404 169.606493 
L 134.018404 168.056627 
L 134.224975 168.056627 
L 134.224975 167.540005 
L 134.631086 167.540005 
L 134.631086 167.023383 
L 134.830731 167.023383 
L 134.830731 166.506761 
L 135.028171 166.506761 
L 135.028171 165.473517 
L 135.607728 165.473517 
L 135.607728 164.956895 
L 135.983913 164.956895 
L 135.983913 163.923651 
L 137.241485 163.923651 
L 137.241485 156.690943 
L 137.922258 156.690943 
L 137.922258 155.657699 
L 138.088474 155.657699 
L 138.088474 155.141077 
L 138.334935 155.141077 
L 138.334935 153.591211 
L 138.578042 153.591211 
L 138.578042 147.908369 
L 139.054554 147.908369 
L 139.054554 147.391747 
L 139.288127 147.391747 
L 139.288127 146.875125 
L 139.518687 146.875125 
L 139.518687 146.358503 
L 139.821543 146.358503 
L 139.896462 144.808637 
L 140.045364 144.808637 
L 140.045364 144.292014 
L 140.339496 144.292014 
L 140.339496 143.775392 
L 141.674081 143.775392 
L 141.741636 141.708904 
L 141.808936 141.708904 
L 141.808936 141.192282 
L 142.597363 141.192282 
L 142.597363 140.67566 
L 142.72545 140.67566 
L 142.72545 140.159038 
L 142.915876 140.159038 
L 142.978903 139.125794 
L 143.352466 139.125794 
L 143.413974 137.575928 
L 143.597239 137.575928 
L 143.597239 137.059306 
L 143.718379 137.059306 
L 143.718379 136.542684 
L 144.136017 136.542684 
L 144.19489 134.476196 
L 144.370356 134.476196 
L 144.370356 133.442952 
L 144.601662 133.442952 
L 144.601662 132.92633 
L 144.999378 132.92633 
L 144.999378 132.409708 
L 145.222733 132.409708 
L 145.222733 131.893086 
L 145.661236 131.893086 
L 145.661236 130.859842 
L 145.82294 130.859842 
L 145.876517 128.793354 
L 146.089235 128.793354 
L 146.194652 127.76011 
L 146.299451 127.76011 
L 146.403639 125.177 
L 146.814418 125.177 
L 146.915654 124.143756 
L 147.116421 124.143756 
L 147.166263 118.977536 
L 147.511313 118.977536 
L 147.608687 116.911048 
L 147.705534 116.911048 
L 147.801858 115.361182 
L 147.992963 115.361182 
L 147.992963 114.327938 
L 148.182045 114.327938 
L 148.182045 113.811316 
L 148.461969 113.811316 
L 148.461969 112.26145 
L 148.737575 112.26145 
L 148.737575 111.228206 
L 148.918979 111.228206 
L 148.918979 108.645095 
L 149.187677 108.645095 
L 149.276353 107.095229 
L 149.364591 107.095229 
L 149.452395 105.545363 
L 149.62672 105.545363 
L 149.713248 104.512119 
L 149.79936 104.512119 
L 149.79936 103.995497 
L 150.2238 103.995497 
L 150.307492 101.412387 
L 150.473708 101.412387 
L 150.473708 99.862521 
L 150.720169 99.862521 
L 150.720169 99.345899 
L 150.963276 99.345899 
L 150.963276 96.246167 
L 151.439788 96.246167 
L 151.439788 94.179679 
L 151.750545 94.179679 
L 151.750545 92.113191 
L 152.281696 92.113191 
L 152.281696 91.596569 
L 152.65165 91.596569 
L 152.65165 90.563325 
L 152.797513 90.563325 
L 152.797513 90.046703 
L 153.369341 90.046703 
L 153.369341 87.980215 
L 153.648536 87.980215 
L 153.717659 86.946971 
L 154.261217 86.946971 
L 154.261217 86.430349 
L 154.592732 86.430349 
L 154.592732 84.880483 
L 155.046755 84.880483 
L 155.046755 84.363861 
L 155.30111 84.363861 
L 155.30111 83.330617 
L 155.614045 83.330617 
L 155.614045 82.813995 
L 155.7377 82.813995 
L 155.7377 82.297373 
L 157.55239 82.297373 
L 157.607967 77.131153 
L 158.368427 77.131153 
L 158.368427 75.064664 
L 158.579887 75.064664 
L 158.632363 74.03142 
L 158.892456 74.03142 
L 158.892456 73.514798 
L 159.451675 73.514798 
L 159.551497 71.964932 
L 159.6012 71.964932 
L 159.6012 71.44831 
L 159.945301 71.44831 
L 159.945301 70.415066 
L 160.23506 70.415066 
L 160.23506 69.898444 
L 160.661075 69.898444 
L 160.661075 69.381822 
L 160.847203 69.381822 
L 160.847203 68.348578 
L 161.077169 68.348578 
L 161.077169 67.831956 
L 161.617304 67.831956 
L 161.617304 67.315334 
L 161.837629 67.315334 
L 161.837629 66.28209 
L 162.355582 66.28209 
L 162.355582 65.765468 
L 163.105403 65.765468 
L 163.105403 64.732224 
L 163.22737 64.732224 
L 163.22737 64.215602 
L 163.388709 64.215602 
L 163.388709 63.69898 
L 163.508764 63.69898 
L 163.548603 61.632492 
L 164.289155 61.632492 
L 164.289155 61.11587 
L 164.741536 61.11587 
L 164.741536 60.082626 
L 164.9267 60.082626 
L 164.9267 59.049382 
L 165.399333 59.049382 
L 165.399333 58.53276 
L 165.894718 58.53276 
L 165.894718 57.499516 
L 166.102893 57.499516 
L 166.206077 55.94965 
L 167.076232 55.94965 
L 167.076232 54.916406 
L 167.271159 54.916406 
L 167.271159 54.399784 
L 168.153715 54.399784 
L 168.153715 53.883162 
L 168.639126 53.883162 
L 168.639126 53.36654 
L 168.965358 53.36654 
L 168.965358 52.849918 
L 169.400834 52.849918 
L 169.486669 51.816674 
L 170.158903 51.816674 
L 170.186372 50.78343 
L 170.431704 50.78343 
L 170.431704 48.20032 
L 170.566559 48.20032 
L 170.566559 47.683698 
L 172.90543 47.683698 
L 172.90543 47.167076 
L 173.621636 47.167076 
L 173.621636 46.133832 
L 173.801896 46.133832 
L 173.801896 45.61721 
L 174.113041 45.61721 
L 174.113041 42.517478 
L 176.826459 42.517478 
L 176.826459 41.484233 
L 187.232093 41.484233 
L 187.232093 40.967611 
L 188.575887 40.967611 
L 188.575887 40.450989 
L 197.330782 40.450989 
L 197.330782 39.934367 
L 197.83431 39.934367 
L 197.83431 39.417745 
L 198.106757 39.417745 
L 198.106757 38.384501 
L 198.301288 38.384501 
L 198.301288 37.867879 
L 198.451453 37.867879 
L 198.451453 37.351257 
L 198.645079 37.351257 
L 198.645079 36.834635 
L 199.281139 36.834635 
L 199.281139 36.318013 
L 201.397069 36.318013 
L 201.397069 35.801391 
L 210.43437 35.801391 
L 210.445909 34.768147 
L 358.8 34.768147 
L 358.8 34.768147 
" style="fill:none;stroke:#000080;stroke-linecap:square;stroke-width:1.5;"/>
   </g>
   <g id="line2d_25">
    <defs>
     <path d="M 0 6 
C 1.591219 6 3.117479 5.367802 4.242641 4.242641 
C 5.367802 3.117479 6 1.591219 6 0 
C 6 -1.591219 5.367802 -3.117479 4.242641 -4.242641 
C 3.117479 -5.367802 1.591219 -6 0 -6 
C -1.591219 -6 -3.117479 -5.367802 -4.242641 -4.242641 
C -5.367802 -3.117479 -6 -1.591219 -6 0 
C -6 1.591219 -5.367802 3.117479 -4.242641 4.242641 
C -3.117479 5.367802 -1.591219 6 0 6 
z
" id="m5dac1fc6e0" style="stroke:#000080;stroke-width:1.5;"/>
    </defs>
    <g>
     <use style="fill:none;stroke:#000080;stroke-width:1.5;" x="123.967107" xlink:href="#m5dac1fc6e0" y="196.98746"/>
     <use style="fill:none;stroke:#000080;stroke-width:1.5;" x="148.918979" xlink:href="#m5dac1fc6e0" y="111.228206"/>
     <use style="fill:none;stroke:#000080;stroke-width:1.5;" x="210.445909" xlink:href="#m5dac1fc6e0" y="35.284769"/>
     <use style="fill:none;stroke:#000080;stroke-width:1.5;" x="210.445909" xlink:href="#m5dac1fc6e0" y="34.768147"/>
     <use style="fill:none;stroke:#000080;stroke-width:1.5;" x="210.445909" xlink:href="#m5dac1fc6e0" y="34.768147"/>
     <use style="fill:none;stroke:#000080;stroke-width:1.5;" x="358.8" xlink:href="#m5dac1fc6e0" y="34.768147"/>
    </g>
   </g>
   <g id="line2d_26"/>
   <g id="line2d_27">
    <path clip-path="url(#p7e3e166cba)" d="M 197.456509 39.934367 
" style="fill:none;stroke:#000080;stroke-linecap:square;stroke-width:1.5;"/>
    <defs>
     <path d="M -12 12 
L 12 -12 
M -12 -12 
L 12 12 
" id="mf3a442e267" style="stroke:#000080;stroke-width:3;"/>
    </defs>
    <g clip-path="url(#p7e3e166cba)">
     <use style="fill:#000080;stroke:#000080;stroke-width:3;" x="197.456509" xlink:href="#mf3a442e267" y="39.934367"/>
    </g>
   </g>
   <g id="line2d_28">
    <defs>
     <path d="M 0 1.5 
C 0.397805 1.5 0.77937 1.341951 1.06066 1.06066 
C 1.341951 0.77937 1.5 0.397805 1.5 0 
C 1.5 -0.397805 1.341951 -0.77937 1.06066 -1.06066 
C 0.77937 -1.341951 0.397805 -1.5 0 -1.5 
C -0.397805 -1.5 -0.77937 -1.341951 -1.06066 -1.06066 
C -1.341951 -0.77937 -1.5 -0.397805 -1.5 0 
C -1.5 0.397805 -1.341951 0.77937 -1.06066 1.06066 
C -0.77937 1.341951 -0.397805 1.5 0 1.5 
z
" id="mf319180c6c" style="stroke:#ff00ff;"/>
    </defs>
    <g>
     <use style="fill:#ff00ff;stroke:#ff00ff;" x="222.621563" xlink:href="#mf319180c6c" y="34.768147"/>
     <use style="fill:#ff00ff;stroke:#ff00ff;" x="222.621563" xlink:href="#mf319180c6c" y="34.768147"/>
    </g>
   </g>
   <g id="line2d_29">
    <path d="M 42.042377 298.245375 
L 42.042377 296.178887 
L 54.427611 296.178887 
L 54.427611 289.979423 
L 66.812845 289.979423 
L 66.812845 288.946179 
L 74.057743 288.946179 
L 74.057743 288.429557 
L 89.197359 288.429557 
L 89.197359 279.646982 
L 91.583313 279.646982 
L 91.583313 278.097116 
L 93.687874 278.097116 
L 93.687874 276.54725 
L 95.570468 276.54725 
L 95.570468 276.030628 
L 97.273482 276.030628 
L 97.273482 274.480762 
L 98.828211 274.480762 
L 98.828211 269.831164 
L 100.258423 269.831164 
L 100.258423 255.365748 
L 101.582593 255.365748 
L 101.582593 250.71615 
L 102.815366 250.71615 
L 102.815366 249.682906 
L 103.968548 249.682906 
L 103.968548 247.099796 
L 105.051795 247.099796 
L 105.051795 246.583173 
L 106.073108 246.583173 
L 106.073108 243.483441 
L 107.039188 243.483441 
L 107.039188 240.383709 
L 107.955702 240.383709 
L 107.955702 235.734111 
L 108.827491 235.734111 
L 108.827491 234.184245 
L 109.658716 234.184245 
L 109.658716 230.051269 
L 110.452985 230.051269 
L 110.452985 222.818561 
L 111.213445 222.818561 
L 111.213445 221.785317 
L 111.942857 221.785317 
L 111.942857 220.752073 
L 113.318006 220.752073 
L 113.318006 220.235451 
L 113.967827 220.235451 
L 113.967827 218.685585 
L 114.594843 218.685585 
L 114.594843 217.652341 
L 115.2006 217.652341 
L 115.2006 216.619097 
L 115.786492 216.619097 
L 115.786492 216.102475 
L 116.353782 216.102475 
L 116.353782 215.069231 
L 116.903613 215.069231 
L 116.903613 213.519365 
L 117.437029 213.519365 
L 117.437029 211.969498 
L 117.954982 211.969498 
L 117.954982 211.452876 
L 118.458343 211.452876 
L 118.458343 210.936254 
L 118.947911 210.936254 
L 118.947911 209.386388 
L 119.424422 209.386388 
L 119.424422 207.836522 
L 120.340936 207.836522 
L 120.340936 205.770034 
L 120.782147 205.770034 
L 120.782147 203.186924 
L 121.212725 203.186924 
L 121.212725 202.670302 
L 121.63317 202.670302 
L 121.63317 200.087192 
L 122.04395 200.087192 
L 122.04395 199.053948 
L 122.445497 199.053948 
L 122.445497 198.020704 
L 122.838219 198.020704 
L 122.838219 196.98746 
L 123.598679 196.98746 
L 123.598679 196.470838 
L 123.967107 196.470838 
L 123.967107 195.437594 
L 124.328091 195.437594 
L 124.328091 194.920972 
L 124.681927 194.920972 
L 124.681927 194.40435 
L 125.028891 194.40435 
L 125.028891 193.371106 
L 125.369247 193.371106 
L 125.369247 192.337862 
L 125.70324 192.337862 
L 125.70324 191.82124 
L 126.031105 191.82124 
L 126.031105 189.754752 
L 126.980077 189.754752 
L 126.980077 188.204886 
L 127.285522 188.204886 
L 127.285522 187.688264 
L 128.171726 187.688264 
L 128.171726 186.65502 
L 128.457622 186.65502 
L 128.457622 185.621776 
L 128.739016 185.621776 
L 128.739016 184.588532 
L 129.288847 184.588532 
L 129.288847 184.07191 
L 130.083117 184.07191 
L 130.083117 182.522044 
L 130.340216 182.522044 
L 130.340216 182.005422 
L 130.843577 182.005422 
L 130.843577 181.4888 
L 131.333145 181.4888 
L 131.333145 179.938934 
L 131.809656 179.938934 
L 131.809656 177.872445 
L 132.043229 177.872445 
L 132.043229 176.322579 
L 132.726171 176.322579 
L 132.726171 175.805957 
L 132.837499 175.805957 
L 132.948138 173.222847 
L 133.383967 173.222847 
L 133.383967 172.706225 
L 133.809418 172.706225 
L 133.809418 171.672981 
L 134.224975 171.672981 
L 134.327371 169.089871 
L 135.028171 169.089871 
L 135.126079 168.056627 
L 135.416624 168.056627 
L 135.416624 167.023383 
L 135.607728 167.023383 
L 135.70252 165.990139 
L 135.983913 165.990139 
L 135.983913 162.890407 
L 136.169077 162.890407 
L 136.260944 160.823919 
L 136.352341 160.823919 
L 136.352341 160.307297 
L 137.241485 160.307297 
L 137.328014 158.240809 
L 137.754481 158.240809 
L 137.754481 157.724187 
L 138.005559 157.724187 
L 138.088474 156.174321 
L 138.416339 156.174321 
L 138.416339 154.107833 
L 138.578042 154.107833 
L 138.578042 150.491479 
L 139.054554 150.491479 
L 139.054554 148.424991 
L 139.442163 148.424991 
L 139.442163 146.875125 
L 139.821543 146.875125 
L 139.896462 145.325259 
L 140.266416 145.325259 
L 140.266416 144.808637 
L 140.842856 144.808637 
L 140.842856 144.292014 
L 141.054316 144.292014 
L 141.12425 141.708904 
L 141.606271 141.708904 
L 141.674081 139.642416 
L 141.808936 139.642416 
L 141.875983 137.059306 
L 142.403494 137.059306 
L 142.403494 136.542684 
L 142.597363 136.542684 
L 142.597363 136.026062 
L 142.852626 136.026062 
L 142.852626 135.50944 
L 143.228811 135.50944 
L 143.228811 134.476196 
L 143.352466 134.476196 
L 143.352466 133.959574 
L 143.597239 133.959574 
L 143.597239 132.92633 
L 143.718379 132.92633 
L 143.718379 131.893086 
L 143.898563 131.893086 
L 143.898563 130.859842 
L 144.428464 130.859842 
L 144.428464 130.34322 
L 145.111405 130.34322 
L 145.111405 128.793354 
L 145.222733 128.793354 
L 145.222733 128.276732 
L 145.44333 128.276732 
L 145.552615 127.243488 
L 145.661236 127.243488 
L 145.661236 126.210244 
L 146.247129 126.210244 
L 146.247129 125.693622 
L 146.403639 125.693622 
L 146.403639 124.143756 
L 146.610209 124.143756 
L 146.610209 123.110512 
L 146.915654 123.110512 
L 146.915654 122.59389 
L 147.116421 122.59389 
L 147.116421 122.077268 
L 147.36425 122.077268 
L 147.36425 121.560646 
L 147.511313 121.560646 
L 147.608687 118.977536 
L 147.705534 118.977536 
L 147.705534 117.944292 
L 148.182045 117.944292 
L 148.182045 117.42767 
L 148.461969 117.42767 
L 148.461969 116.911048 
L 148.646178 116.911048 
L 148.737575 115.877804 
L 148.918979 115.877804 
L 148.918979 112.778072 
L 149.276353 112.778072 
L 149.276353 112.26145 
L 149.713248 112.26145 
L 149.79936 111.228206 
L 150.139715 111.228206 
L 150.2238 109.161717 
L 150.307492 109.161717 
L 150.390793 108.128473 
L 150.432299 108.128473 
L 150.432299 107.611851 
L 150.720169 107.611851 
L 150.801573 106.578607 
L 150.963276 106.578607 
L 151.003475 103.995497 
L 151.361246 103.995497 
L 151.361246 103.478875 
L 151.750545 103.478875 
L 151.750545 101.412387 
L 152.281696 101.412387 
L 152.281696 100.895765 
L 152.65165 100.895765 
L 152.761158 99.345899 
L 152.797513 99.345899 
L 152.797513 98.829277 
L 153.157044 98.829277 
L 153.157044 97.796033 
L 153.369341 97.796033 
L 153.369341 93.663057 
L 153.923436 93.663057 
L 153.923436 93.146435 
L 154.592732 93.146435 
L 154.592732 91.596569 
L 155.046755 91.596569 
L 155.046755 90.563325 
L 155.23786 90.563325 
L 155.30111 89.013459 
L 155.458263 89.013459 
L 155.458263 87.463593 
L 155.614045 87.463593 
L 155.614045 86.946971 
L 155.7377 86.946971 
L 155.7377 86.430349 
L 155.952059 86.430349 
L 155.952059 85.397105 
L 157.496639 85.397105 
L 157.496639 84.363861 
L 157.607967 84.363861 
L 157.607967 79.714263 
L 158.368427 79.714263 
L 158.368427 79.197641 
L 158.579887 79.197641 
L 158.632363 77.647775 
L 158.892456 77.647775 
L 158.892456 76.614531 
L 159.046714 76.614531 
L 159.046714 75.064664 
L 159.451675 75.064664 
L 159.551497 71.964932 
L 159.6012 71.964932 
L 159.6012 71.44831 
L 160.378197 71.44831 
L 160.378197 69.381822 
L 161.077169 69.381822 
L 161.077169 68.348578 
L 161.439067 68.348578 
L 161.439067 67.831956 
L 161.617304 67.831956 
L 161.705761 66.798712 
L 162.05527 66.798712 
L 162.05527 66.28209 
L 162.482758 66.28209 
L 162.482758 65.765468 
L 162.858942 65.765468 
L 162.858942 65.248846 
L 163.22737 65.248846 
L 163.22737 64.215602 
L 163.388709 64.215602 
L 163.388709 63.69898 
L 163.548603 63.69898 
L 163.628017 62.149114 
L 165.255234 62.149114 
L 165.255234 61.11587 
L 165.399333 61.11587 
L 165.399333 60.599248 
L 165.894718 60.599248 
L 165.894718 60.082626 
L 166.206077 60.082626 
L 166.206077 59.566004 
L 167.780801 59.566004 
L 167.780801 59.049382 
L 169.486669 59.049382 
L 169.486669 58.53276 
L 170.076244 58.53276 
L 170.186372 56.982894 
L 170.431704 56.982894 
L 170.431704 55.433028 
L 170.566559 55.433028 
L 170.646986 54.399784 
L 171.508581 54.399784 
L 171.584886 53.36654 
L 172.06073 53.36654 
L 172.06073 52.849918 
L 172.379155 52.849918 
L 172.451839 51.300052 
L 172.90543 51.300052 
L 172.90543 50.78343 
L 173.069682 50.78343 
L 173.069682 50.266808 
L 173.801896 50.266808 
L 173.801896 49.750186 
L 174.113041 49.750186 
L 174.179015 44.583966 
L 174.931242 44.583966 
L 174.931242 43.550722 
L 188.575887 43.550722 
L 188.575887 43.0341 
L 197.898447 43.0341 
L 197.933334 42.000855 
L 198.106757 42.000855 
L 198.106757 40.967611 
L 198.459915 40.967611 
L 198.516228 39.934367 
L 198.572365 39.934367 
L 198.600367 38.901123 
L 198.911028 38.901123 
L 198.911028 38.384501 
L 199.281139 38.384501 
L 199.281139 37.867879 
L 200.951312 37.867879 
L 201.014978 36.834635 
L 201.32034 36.834635 
L 201.32034 36.318013 
L 210.929553 36.318013 
L 210.929553 35.801391 
L 211.370352 35.801391 
L 211.370352 35.284769 
L 222.621563 35.284769 
L 222.621563 34.768147 
L 358.8 34.768147 
L 358.8 34.768147 
" style="fill:none;stroke:#ff00ff;stroke-linecap:square;stroke-width:1.5;"/>
   </g>
   <g id="line2d_30">
    <defs>
     <path d="M -0 8.485281 
L 5.091169 0 
L 0 -8.485281 
L -5.091169 -0 
z
" id="m01c67c8cbc" style="stroke:#ff00ff;stroke-linejoin:miter;stroke-width:1.5;"/>
    </defs>
    <g>
     <use style="fill:none;stroke:#ff00ff;stroke-linejoin:miter;stroke-width:1.5;" x="125.028891" xlink:href="#m01c67c8cbc" y="194.40435"/>
     <use style="fill:none;stroke:#ff00ff;stroke-linejoin:miter;stroke-width:1.5;" x="157.607967" xlink:href="#m01c67c8cbc" y="84.363861"/>
     <use style="fill:none;stroke:#ff00ff;stroke-linejoin:miter;stroke-width:1.5;" x="211.370352" xlink:href="#m01c67c8cbc" y="35.284769"/>
     <use style="fill:none;stroke:#ff00ff;stroke-linejoin:miter;stroke-width:1.5;" x="222.621563" xlink:href="#m01c67c8cbc" y="34.768147"/>
     <use style="fill:none;stroke:#ff00ff;stroke-linejoin:miter;stroke-width:1.5;" x="222.621563" xlink:href="#m01c67c8cbc" y="34.768147"/>
     <use style="fill:none;stroke:#ff00ff;stroke-linejoin:miter;stroke-width:1.5;" x="358.8" xlink:href="#m01c67c8cbc" y="34.768147"/>
    </g>
   </g>
   <g id="line2d_31"/>
   <g id="line2d_32">
    <path clip-path="url(#p7e3e166cba)" d="M 197.456509 43.0341 
" style="fill:none;stroke:#ff00ff;stroke-linecap:square;stroke-width:1.5;"/>
    <defs>
     <path d="M -12 12 
L 12 -12 
M -12 -12 
L 12 12 
" id="m77ee2a2516" style="stroke:#ff00ff;stroke-width:3;"/>
    </defs>
    <g clip-path="url(#p7e3e166cba)">
     <use style="fill:#ff00ff;stroke:#ff00ff;stroke-width:3;" x="197.456509" xlink:href="#m77ee2a2516" y="43.0341"/>
    </g>
   </g>
   <g id="line2d_33">
    <defs>
     <path d="M 0 1.5 
C 0.397805 1.5 0.77937 1.341951 1.06066 1.06066 
C 1.341951 0.77937 1.5 0.397805 1.5 0 
C 1.5 -0.397805 1.341951 -0.77937 1.06066 -1.06066 
C 0.77937 -1.341951 0.397805 -1.5 0 -1.5 
C -0.397805 -1.5 -0.77937 -1.341951 -1.06066 -1.06066 
C -1.341951 -0.77937 -1.5 -0.397805 -1.5 0 
C -1.5 0.397805 -1.341951 0.77937 -1.06066 1.06066 
C -0.77937 1.341951 -0.397805 1.5 0 1.5 
z
" id="m1c2c8471a0" style="stroke:#ffa500;"/>
    </defs>
    <g>
     <use style="fill:#ffa500;stroke:#ffa500;" x="201.752405" xlink:href="#m1c2c8471a0" y="34.768147"/>
     <use style="fill:#ffa500;stroke:#ffa500;" x="201.752405" xlink:href="#m1c2c8471a0" y="34.768147"/>
    </g>
   </g>
   <g id="line2d_34">
    <path d="M 42.042377 298.245375 
L 42.042377 296.178887 
L 54.427611 296.178887 
L 54.427611 289.462801 
L 66.812845 289.462801 
L 66.812845 288.946179 
L 83.185234 288.946179 
L 83.185234 288.429557 
L 89.197359 288.429557 
L 89.197359 281.713471 
L 91.583313 281.713471 
L 91.583313 277.580494 
L 95.570468 277.580494 
L 95.570468 276.54725 
L 97.273482 276.54725 
L 97.273482 270.347786 
L 98.828211 270.347786 
L 98.828211 269.314542 
L 100.258423 269.314542 
L 100.258423 254.849126 
L 101.582593 254.849126 
L 101.582593 248.13304 
L 102.815366 248.13304 
L 102.815366 246.066551 
L 103.968548 246.066551 
L 103.968548 243.483441 
L 105.051795 243.483441 
L 105.051795 241.933575 
L 106.073108 241.933575 
L 106.073108 237.800599 
L 107.039188 237.800599 
L 107.039188 235.734111 
L 107.955702 235.734111 
L 107.955702 233.151001 
L 108.827491 233.151001 
L 108.827491 231.084513 
L 109.658716 231.084513 
L 109.658716 227.468159 
L 110.452985 227.468159 
L 110.452985 220.752073 
L 111.213445 220.752073 
L 111.213445 218.168963 
L 111.942857 218.168963 
L 111.942857 217.652341 
L 114.594843 217.652341 
L 114.594843 215.069231 
L 115.2006 215.069231 
L 115.2006 213.519365 
L 115.786492 213.519365 
L 115.786492 211.969498 
L 116.903613 211.969498 
L 116.903613 208.869766 
L 117.954982 208.869766 
L 117.954982 208.353144 
L 118.458343 208.353144 
L 118.458343 206.803278 
L 118.947911 206.803278 
L 118.947911 205.253412 
L 119.424422 205.253412 
L 119.424422 203.703546 
L 120.340936 203.703546 
L 120.340936 201.120436 
L 120.782147 201.120436 
L 120.782147 200.603814 
L 121.212725 200.603814 
L 121.212725 199.053948 
L 122.838219 199.053948 
L 122.838219 198.020704 
L 123.222494 198.020704 
L 123.222494 196.98746 
L 123.598679 196.98746 
L 123.598679 196.470838 
L 123.967107 196.470838 
L 123.967107 195.954216 
L 124.681927 195.954216 
L 124.681927 194.920972 
L 125.369247 194.920972 
L 125.369247 193.887728 
L 125.70324 193.887728 
L 125.70324 192.854484 
L 126.031105 192.854484 
L 126.031105 189.754752 
L 126.980077 189.754752 
L 126.980077 189.23813 
L 127.585834 189.23813 
L 127.585834 188.721508 
L 128.457622 188.721508 
L 128.457622 188.204886 
L 129.016046 188.204886 
L 129.016046 187.171642 
L 129.288847 187.171642 
L 129.288847 186.138398 
L 129.557546 186.138398 
L 129.557546 185.621776 
L 129.822263 185.621776 
L 129.822263 184.588532 
L 130.593669 184.588532 
L 130.593669 183.555288 
L 130.843577 183.555288 
L 130.843577 183.038666 
L 131.090037 183.038666 
L 131.090037 181.4888 
L 131.333145 181.4888 
L 131.333145 180.972178 
L 131.809656 180.972178 
L 131.809656 179.938934 
L 132.043229 179.938934 
L 132.043229 178.90569 
L 132.158881 178.90569 
L 132.158881 177.872445 
L 132.726171 177.872445 
L 132.726171 176.839201 
L 132.948138 176.839201 
L 132.948138 175.805957 
L 133.167381 175.805957 
L 133.167381 175.289335 
L 133.383967 175.289335 
L 133.491283 172.189603 
L 133.704001 172.189603 
L 133.704001 171.672981 
L 133.914217 171.672981 
L 134.018404 170.123115 
L 134.631086 170.123115 
L 134.631086 169.606493 
L 134.830731 169.606493 
L 134.830731 169.089871 
L 135.607728 169.089871 
L 135.607728 168.573249 
L 135.983913 168.573249 
L 135.983913 166.506761 
L 136.352341 166.506761 
L 136.352341 164.956895 
L 136.891119 164.956895 
L 136.891119 163.923651 
L 137.067161 163.923651 
L 137.067161 163.407029 
L 137.241485 163.407029 
L 137.241485 154.624455 
L 137.754481 154.624455 
L 137.754481 154.107833 
L 137.922258 154.107833 
L 137.922258 153.591211 
L 138.088474 153.591211 
L 138.088474 151.524723 
L 138.416339 151.524723 
L 138.416339 150.491479 
L 138.578042 150.491479 
L 138.658348 145.841881 
L 139.132751 145.841881 
L 139.132751 145.325259 
L 139.746309 145.325259 
L 139.821543 144.292014 
L 139.896462 144.292014 
L 139.896462 143.775392 
L 140.119352 143.775392 
L 140.119352 143.25877 
L 140.266416 143.25877 
L 140.266416 142.742148 
L 140.842856 142.742148 
L 140.842856 142.225526 
L 141.808936 142.225526 
L 141.808936 141.708904 
L 142.009328 141.708904 
L 142.009328 141.192282 
L 142.978903 141.192282 
L 142.978903 140.67566 
L 143.228811 140.67566 
L 143.228811 140.159038 
L 143.597239 140.159038 
L 143.597239 139.125794 
L 144.076948 139.125794 
L 144.076948 138.09255 
L 144.19489 138.09255 
L 144.19489 137.575928 
L 144.428464 137.575928 
L 144.428464 135.50944 
L 145.222733 135.50944 
L 145.222733 133.959574 
L 145.44333 133.959574 
L 145.552615 132.92633 
L 145.607008 132.92633 
L 145.607008 132.409708 
L 146.403639 132.409708 
L 146.507222 131.376464 
L 146.55879 131.376464 
L 146.55879 130.859842 
L 146.814418 130.859842 
L 146.915654 128.793354 
L 147.01632 128.793354 
L 147.116421 127.76011 
L 147.511313 127.76011 
L 147.608687 126.726866 
L 147.705534 126.726866 
L 147.705534 126.210244 
L 147.849826 126.210244 
L 147.849826 124.660378 
L 147.992963 124.660378 
L 148.087754 122.59389 
L 148.182045 122.59389 
L 148.182045 121.560646 
L 148.461969 121.560646 
L 148.461969 120.527402 
L 148.737575 120.527402 
L 148.737575 119.494158 
L 148.918979 119.494158 
L 148.918979 115.877804 
L 149.276353 115.877804 
L 149.364591 114.327938 
L 149.670036 114.327938 
L 149.713248 112.778072 
L 149.79936 112.778072 
L 149.79936 111.228206 
L 150.139715 111.228206 
L 150.2238 109.678339 
L 150.390793 109.678339 
L 150.390793 109.161717 
L 150.720169 109.161717 
L 150.801573 108.128473 
L 150.963276 108.128473 
L 150.963276 102.445631 
L 151.361246 102.445631 
L 151.439788 101.412387 
L 151.478929 101.412387 
L 151.478929 100.895765 
L 151.673361 100.895765 
L 151.750545 98.829277 
L 152.1692 98.829277 
L 152.1692 98.312655 
L 152.65165 98.312655 
L 152.65165 97.796033 
L 153.121415 97.796033 
L 153.121415 96.246167 
L 153.369341 96.246167 
L 153.43955 93.146435 
L 154.093125 93.146435 
L 154.093125 92.113191 
L 154.261217 92.113191 
L 154.261217 91.596569 
L 154.592732 91.596569 
L 154.592732 90.046703 
L 155.046755 90.046703 
L 155.046755 89.013459 
L 155.23786 89.013459 
L 155.23786 88.496837 
L 155.582997 88.496837 
L 155.614045 86.946971 
L 156.580124 86.946971 
L 156.609488 85.397105 
L 157.158431 85.397105 
L 157.186861 84.363861 
L 157.440713 84.363861 
L 157.496639 82.813995 
L 157.607967 82.813995 
L 157.607967 80.747507 
L 157.746159 80.747507 
L 157.746159 75.581286 
L 158.368427 75.581286 
L 158.368427 74.548042 
L 158.579887 74.548042 
L 158.579887 74.03142 
L 158.892456 74.03142 
L 158.892456 72.998176 
L 159.046714 72.998176 
L 159.046714 71.964932 
L 160.23506 71.964932 
L 160.23506 70.931688 
L 160.378197 70.931688 
L 160.378197 70.415066 
L 160.661075 70.415066 
L 160.661075 69.898444 
L 160.847203 69.898444 
L 160.847203 69.381822 
L 161.077169 69.381822 
L 161.077169 68.348578 
L 161.304213 68.348578 
L 161.304213 67.315334 
L 161.705761 67.315334 
L 161.705761 66.798712 
L 161.968532 66.798712 
L 162.05527 65.248846 
L 162.355582 65.248846 
L 162.440466 64.215602 
L 162.482758 64.215602 
L 162.567041 62.665736 
L 162.858942 62.665736 
L 162.858942 62.149114 
L 163.105403 62.149114 
L 163.105403 61.632492 
L 163.22737 61.632492 
L 163.22737 61.11587 
L 163.388709 61.11587 
L 163.388709 60.599248 
L 163.628017 60.599248 
L 163.628017 59.566004 
L 164.289155 59.566004 
L 164.289155 59.049382 
L 164.9267 59.049382 
L 164.9267 58.53276 
L 165.894718 58.53276 
L 165.894718 57.499516 
L 166.102893 57.499516 
L 166.206077 56.466272 
L 166.679881 56.466272 
L 166.679881 55.433028 
L 167.271159 55.433028 
L 167.271159 54.916406 
L 167.495918 54.916406 
L 167.495918 54.399784 
L 168.153715 54.399784 
L 168.153715 53.36654 
L 168.367707 53.36654 
L 168.367707 52.849918 
L 168.965358 52.849918 
L 168.965358 52.333296 
L 169.486669 52.333296 
L 169.486669 51.816674 
L 169.713569 51.816674 
L 169.713569 51.300052 
L 170.076244 51.300052 
L 170.186372 50.266808 
L 170.431704 50.266808 
L 170.431704 49.233564 
L 170.646986 49.233564 
L 170.646986 48.716942 
L 171.584886 48.716942 
L 171.584886 48.20032 
L 172.379155 48.20032 
L 172.451839 47.167076 
L 172.90543 47.167076 
L 172.90543 46.650454 
L 173.069682 46.650454 
L 173.069682 46.133832 
L 174.113041 46.133832 
L 174.113041 44.067344 
L 174.63414 44.067344 
L 174.63414 43.550722 
L 174.931242 43.550722 
L 174.931242 42.517478 
L 176.826459 42.517478 
L 176.826459 41.484233 
L 180.600351 41.484233 
L 180.600351 40.967611 
L 197.933334 40.967611 
L 197.979745 39.417745 
L 198.414737 39.417745 
L 198.414737 38.901123 
L 198.866977 38.901123 
L 198.930266 37.867879 
L 199.264971 37.867879 
L 199.294601 36.834635 
L 200.184451 36.834635 
L 200.184451 36.318013 
L 201.738327 36.318013 
L 201.752405 34.768147 
L 358.8 34.768147 
L 358.8 34.768147 
" style="fill:none;stroke:#ffa500;stroke-linecap:square;stroke-width:1.5;"/>
   </g>
   <g id="line2d_35">
    <defs>
     <path d="M 0 -6 
L -1.347084 -1.854102 
L -5.706339 -1.854102 
L -2.179628 0.708204 
L -3.526712 4.854102 
L -0 2.291796 
L 3.526712 4.854102 
L 2.179628 0.708204 
L 5.706339 -1.854102 
L 1.347084 -1.854102 
z
" id="ma2f43baeb3" style="stroke:#ffa500;stroke-linejoin:bevel;stroke-width:1.5;"/>
    </defs>
    <g>
     <use style="fill:none;stroke:#ffa500;stroke-linejoin:bevel;stroke-width:1.5;" x="115.2006" xlink:href="#ma2f43baeb3" y="213.519365"/>
     <use style="fill:none;stroke:#ffa500;stroke-linejoin:bevel;stroke-width:1.5;" x="148.461969" xlink:href="#ma2f43baeb3" y="120.527402"/>
     <use style="fill:none;stroke:#ffa500;stroke-linejoin:bevel;stroke-width:1.5;" x="201.752405" xlink:href="#ma2f43baeb3" y="35.284769"/>
     <use style="fill:none;stroke:#ffa500;stroke-linejoin:bevel;stroke-width:1.5;" x="201.752405" xlink:href="#ma2f43baeb3" y="34.768147"/>
     <use style="fill:none;stroke:#ffa500;stroke-linejoin:bevel;stroke-width:1.5;" x="201.752405" xlink:href="#ma2f43baeb3" y="34.768147"/>
     <use style="fill:none;stroke:#ffa500;stroke-linejoin:bevel;stroke-width:1.5;" x="358.8" xlink:href="#ma2f43baeb3" y="34.768147"/>
    </g>
   </g>
   <g id="line2d_36"/>
   <g id="line2d_37">
    <path clip-path="url(#p7e3e166cba)" d="M 197.456509 40.967611 
" style="fill:none;stroke:#ffa500;stroke-linecap:square;stroke-width:1.5;"/>
    <defs>
     <path d="M -12 12 
L 12 -12 
M -12 -12 
L 12 12 
" id="m19680dcb2e" style="stroke:#ffa500;stroke-width:3;"/>
    </defs>
    <g clip-path="url(#p7e3e166cba)">
     <use style="fill:#ffa500;stroke:#ffa500;stroke-width:3;" x="197.456509" xlink:href="#m19680dcb2e" y="40.967611"/>
    </g>
   </g>
   <g id="line2d_38">
    <path d="M 358.8 34.768147 
L 390.48 292.97583 
" style="fill:none;stroke:#ff00ff;stroke-linecap:square;stroke-width:1.5;"/>
    <g>
     <use style="fill:none;stroke:#ff00ff;stroke-linejoin:miter;stroke-width:1.5;" x="358.8" xlink:href="#m01c67c8cbc" y="34.768147"/>
     <use style="fill:none;stroke:#ff00ff;stroke-linejoin:miter;stroke-width:1.5;" x="390.48" xlink:href="#m01c67c8cbc" y="292.97583"/>
    </g>
   </g>
   <g id="line2d_39">
    <path d="M 358.8 34.768147 
L 390.48 166.506761 
" style="fill:none;stroke:#000080;stroke-linecap:square;stroke-width:1.5;"/>
    <g>
     <use style="fill:none;stroke:#000080;stroke-width:1.5;" x="358.8" xlink:href="#m5dac1fc6e0" y="34.768147"/>
     <use style="fill:none;stroke:#000080;stroke-width:1.5;" x="390.48" xlink:href="#m5dac1fc6e0" y="166.506761"/>
    </g>
   </g>
   <g id="line2d_40">
    <path d="M 358.8 34.768147 
L 390.48 40.037692 
" style="fill:none;stroke:#ffa500;stroke-linecap:square;stroke-width:1.5;"/>
    <g>
     <use style="fill:none;stroke:#ffa500;stroke-linejoin:bevel;stroke-width:1.5;" x="358.8" xlink:href="#ma2f43baeb3" y="34.768147"/>
     <use style="fill:none;stroke:#ffa500;stroke-linejoin:bevel;stroke-width:1.5;" x="390.48" xlink:href="#ma2f43baeb3" y="40.037692"/>
    </g>
   </g>
   <g id="line2d_41">
    <path d="M 358.8 298.245375 
L 358.8 34.768147 
" style="fill:none;stroke:#000000;stroke-linecap:square;stroke-width:1.5;"/>
   </g>
   <g id="patch_3">
    <path d="M 70.8 298.245375 
L 70.8 32.133375 
" style="fill:none;stroke:#000000;stroke-linecap:square;stroke-linejoin:miter;stroke-width:0.8;"/>
   </g>
   <g id="patch_4">
    <path d="M 427.92 298.245375 
L 427.92 32.133375 
" style="fill:none;stroke:#000000;stroke-linecap:square;stroke-linejoin:miter;stroke-width:0.8;"/>
   </g>
   <g id="patch_5">
    <path d="M 70.8 298.245375 
L 427.92 298.245375 
" style="fill:none;stroke:#000000;stroke-linecap:square;stroke-linejoin:miter;stroke-width:0.8;"/>
   </g>
   <g id="patch_6">
    <path d="M 70.8 32.133375 
L 427.92 32.133375 
" style="fill:none;stroke:#000000;stroke-linecap:square;stroke-linejoin:miter;stroke-width:0.8;"/>
   </g>
   <g id="text_14">
    <!-- cobyla-1e-7 o -->
    <defs>
     <path d="M 48.6875 27.296875 
Q 48.6875 37.203125 44.609375 42.84375 
Q 40.53125 48.484375 33.40625 48.484375 
Q 26.265625 48.484375 22.1875 42.84375 
Q 18.109375 37.203125 18.109375 27.296875 
Q 18.109375 17.390625 22.1875 11.75 
Q 26.265625 6.109375 33.40625 6.109375 
Q 40.53125 6.109375 44.609375 11.75 
Q 48.6875 17.390625 48.6875 27.296875 
z
M 18.109375 46.390625 
Q 20.953125 51.265625 25.265625 53.625 
Q 29.59375 56 35.59375 56 
Q 45.5625 56 51.78125 48.09375 
Q 58.015625 40.1875 58.015625 27.296875 
Q 58.015625 14.40625 51.78125 6.484375 
Q 45.5625 -1.421875 35.59375 -1.421875 
Q 29.59375 -1.421875 25.265625 0.953125 
Q 20.953125 3.328125 18.109375 8.203125 
L 18.109375 0 
L 9.078125 0 
L 9.078125 75.984375 
L 18.109375 75.984375 
z
" id="DejaVuSans-62"/>
     <path d="M 32.171875 -5.078125 
Q 28.375 -14.84375 24.75 -17.8125 
Q 21.140625 -20.796875 15.09375 -20.796875 
L 7.90625 -20.796875 
L 7.90625 -13.28125 
L 13.1875 -13.28125 
Q 16.890625 -13.28125 18.9375 -11.515625 
Q 21 -9.765625 23.484375 -3.21875 
L 25.09375 0.875 
L 2.984375 54.6875 
L 12.5 54.6875 
L 29.59375 11.921875 
L 46.6875 54.6875 
L 56.203125 54.6875 
z
" id="DejaVuSans-79"/>
     <path d="M 8.203125 72.90625 
L 55.078125 72.90625 
L 55.078125 68.703125 
L 28.609375 0 
L 18.3125 0 
L 43.21875 64.59375 
L 8.203125 64.59375 
z
" id="DejaVuSans-37"/>
    </defs>
    <g transform="translate(396.24 297.114893)scale(0.15 -0.15)">
     <use xlink:href="#DejaVuSans-63"/>
     <use x="54.980469" xlink:href="#DejaVuSans-6f"/>
     <use x="116.162109" xlink:href="#DejaVuSans-62"/>
     <use x="179.638672" xlink:href="#DejaVuSans-79"/>
     <use x="238.818359" xlink:href="#DejaVuSans-6c"/>
     <use x="266.601562" xlink:href="#DejaVuSans-61"/>
     <use x="327.880859" xlink:href="#DejaVuSans-2d"/>
     <use x="363.964844" xlink:href="#DejaVuSans-31"/>
     <use x="427.587891" xlink:href="#DejaVuSans-65"/>
     <use x="489.111328" xlink:href="#DejaVuSans-2d"/>
     <use x="525.195312" xlink:href="#DejaVuSans-37"/>
     <use x="588.818359" xlink:href="#DejaVuSans-20"/>
     <use x="620.605469" xlink:href="#DejaVuSans-6f"/>
    </g>
   </g>
   <g id="text_15">
    <!-- cobyla-1e-10  -->
    <g transform="translate(396.24 170.645824)scale(0.15 -0.15)">
     <use xlink:href="#DejaVuSans-63"/>
     <use x="54.980469" xlink:href="#DejaVuSans-6f"/>
     <use x="116.162109" xlink:href="#DejaVuSans-62"/>
     <use x="179.638672" xlink:href="#DejaVuSans-79"/>
     <use x="238.818359" xlink:href="#DejaVuSans-6c"/>
     <use x="266.601562" xlink:href="#DejaVuSans-61"/>
     <use x="327.880859" xlink:href="#DejaVuSans-2d"/>
     <use x="363.964844" xlink:href="#DejaVuSans-31"/>
     <use x="427.587891" xlink:href="#DejaVuSans-65"/>
     <use x="489.111328" xlink:href="#DejaVuSans-2d"/>
     <use x="525.195312" xlink:href="#DejaVuSans-31"/>
     <use x="588.818359" xlink:href="#DejaVuSans-30"/>
     <use x="652.441406" xlink:href="#DejaVuSans-20"/>
    </g>
   </g>
   <g id="text_16">
    <!-- cobyla-1e-5 o -->
    <defs>
     <path d="M 10.796875 72.90625 
L 49.515625 72.90625 
L 49.515625 64.59375 
L 19.828125 64.59375 
L 19.828125 46.734375 
Q 21.96875 47.46875 24.109375 47.828125 
Q 26.265625 48.1875 28.421875 48.1875 
Q 40.625 48.1875 47.75 41.5 
Q 54.890625 34.8125 54.890625 23.390625 
Q 54.890625 11.625 47.5625 5.09375 
Q 40.234375 -1.421875 26.90625 -1.421875 
Q 22.3125 -1.421875 17.546875 -0.640625 
Q 12.796875 0.140625 7.71875 1.703125 
L 7.71875 11.625 
Q 12.109375 9.234375 16.796875 8.0625 
Q 21.484375 6.890625 26.703125 6.890625 
Q 35.15625 6.890625 40.078125 11.328125 
Q 45.015625 15.765625 45.015625 23.390625 
Q 45.015625 31 40.078125 35.4375 
Q 35.15625 39.890625 26.703125 39.890625 
Q 22.75 39.890625 18.8125 39.015625 
Q 14.890625 38.140625 10.796875 36.28125 
z
" id="DejaVuSans-35"/>
    </defs>
    <g transform="translate(396.24 44.176754)scale(0.15 -0.15)">
     <use xlink:href="#DejaVuSans-63"/>
     <use x="54.980469" xlink:href="#DejaVuSans-6f"/>
     <use x="116.162109" xlink:href="#DejaVuSans-62"/>
     <use x="179.638672" xlink:href="#DejaVuSans-79"/>
     <use x="238.818359" xlink:href="#DejaVuSans-6c"/>
     <use x="266.601562" xlink:href="#DejaVuSans-61"/>
     <use x="327.880859" xlink:href="#DejaVuSans-2d"/>
     <use x="363.964844" xlink:href="#DejaVuSans-31"/>
     <use x="427.587891" xlink:href="#DejaVuSans-65"/>
     <use x="489.111328" xlink:href="#DejaVuSans-2d"/>
     <use x="525.195312" xlink:href="#DejaVuSans-35"/>
     <use x="588.818359" xlink:href="#DejaVuSans-20"/>
     <use x="620.605469" xlink:href="#DejaVuSans-6f"/>
    </g>
   </g>
   <g id="text_17">
    <!-- bbob-constrained - f38, 5-D -->
    <defs>
     <path d="M 40.578125 39.3125 
Q 47.65625 37.796875 51.625 33 
Q 55.609375 28.21875 55.609375 21.1875 
Q 55.609375 10.40625 48.1875 4.484375 
Q 40.765625 -1.421875 27.09375 -1.421875 
Q 22.515625 -1.421875 17.65625 -0.515625 
Q 12.796875 0.390625 7.625 2.203125 
L 7.625 11.71875 
Q 11.71875 9.328125 16.59375 8.109375 
Q 21.484375 6.890625 26.8125 6.890625 
Q 36.078125 6.890625 40.9375 10.546875 
Q 45.796875 14.203125 45.796875 21.1875 
Q 45.796875 27.640625 41.28125 31.265625 
Q 36.765625 34.90625 28.71875 34.90625 
L 20.21875 34.90625 
L 20.21875 43.015625 
L 29.109375 43.015625 
Q 36.375 43.015625 40.234375 45.921875 
Q 44.09375 48.828125 44.09375 54.296875 
Q 44.09375 59.90625 40.109375 62.90625 
Q 36.140625 65.921875 28.71875 65.921875 
Q 24.65625 65.921875 20.015625 65.03125 
Q 15.375 64.15625 9.8125 62.3125 
L 9.8125 71.09375 
Q 15.4375 72.65625 20.34375 73.4375 
Q 25.25 74.21875 29.59375 74.21875 
Q 40.828125 74.21875 47.359375 69.109375 
Q 53.90625 64.015625 53.90625 55.328125 
Q 53.90625 49.265625 50.4375 45.09375 
Q 46.96875 40.921875 40.578125 39.3125 
z
" id="DejaVuSans-33"/>
     <path d="M 11.71875 12.40625 
L 22.015625 12.40625 
L 22.015625 4 
L 14.015625 -11.625 
L 7.71875 -11.625 
L 11.71875 4 
z
" id="DejaVuSans-2c"/>
     <path d="M 19.671875 64.796875 
L 19.671875 8.109375 
L 31.59375 8.109375 
Q 46.6875 8.109375 53.6875 14.9375 
Q 60.6875 21.78125 60.6875 36.53125 
Q 60.6875 51.171875 53.6875 57.984375 
Q 46.6875 64.796875 31.59375 64.796875 
z
M 9.8125 72.90625 
L 30.078125 72.90625 
Q 51.265625 72.90625 61.171875 64.09375 
Q 71.09375 55.28125 71.09375 36.53125 
Q 71.09375 17.671875 61.125 8.828125 
Q 51.171875 0 30.078125 0 
L 9.8125 0 
z
" id="DejaVuSans-44"/>
    </defs>
    <g transform="translate(74.3712 50.114612)scale(0.1666 -0.1666)">
     <use xlink:href="#DejaVuSans-62"/>
     <use x="63.476562" xlink:href="#DejaVuSans-62"/>
     <use x="126.953125" xlink:href="#DejaVuSans-6f"/>
     <use x="188.134766" xlink:href="#DejaVuSans-62"/>
     <use x="251.611328" xlink:href="#DejaVuSans-2d"/>
     <use x="287.695312" xlink:href="#DejaVuSans-63"/>
     <use x="342.675781" xlink:href="#DejaVuSans-6f"/>
     <use x="403.857422" xlink:href="#DejaVuSans-6e"/>
     <use x="467.236328" xlink:href="#DejaVuSans-73"/>
     <use x="519.335938" xlink:href="#DejaVuSans-74"/>
     <use x="558.544922" xlink:href="#DejaVuSans-72"/>
     <use x="599.658203" xlink:href="#DejaVuSans-61"/>
     <use x="660.9375" xlink:href="#DejaVuSans-69"/>
     <use x="688.720703" xlink:href="#DejaVuSans-6e"/>
     <use x="752.099609" xlink:href="#DejaVuSans-65"/>
     <use x="813.623047" xlink:href="#DejaVuSans-64"/>
     <use x="877.099609" xlink:href="#DejaVuSans-20"/>
     <use x="908.886719" xlink:href="#DejaVuSans-2d"/>
     <use x="944.970703" xlink:href="#DejaVuSans-20"/>
     <use x="976.757812" xlink:href="#DejaVuSans-66"/>
     <use x="1011.962891" xlink:href="#DejaVuSans-33"/>
     <use x="1075.585938" xlink:href="#DejaVuSans-38"/>
     <use x="1139.208984" xlink:href="#DejaVuSans-2c"/>
     <use x="1170.996094" xlink:href="#DejaVuSans-20"/>
     <use x="1202.783203" xlink:href="#DejaVuSans-35"/>
     <use x="1266.40625" xlink:href="#DejaVuSans-2d"/>
     <use x="1302.490234" xlink:href="#DejaVuSans-44"/>
    </g>
    <!-- 51 targets in 100..1e-08 -->
    <g transform="translate(74.3712 68.770168)scale(0.1666 -0.1666)">
     <use xlink:href="#DejaVuSans-35"/>
     <use x="63.623047" xlink:href="#DejaVuSans-31"/>
     <use x="127.246094" xlink:href="#DejaVuSans-20"/>
     <use x="159.033203" xlink:href="#DejaVuSans-74"/>
     <use x="198.242188" xlink:href="#DejaVuSans-61"/>
     <use x="259.521484" xlink:href="#DejaVuSans-72"/>
     <use x="300.619141" xlink:href="#DejaVuSans-67"/>
     <use x="364.095703" xlink:href="#DejaVuSans-65"/>
     <use x="425.619141" xlink:href="#DejaVuSans-74"/>
     <use x="464.828125" xlink:href="#DejaVuSans-73"/>
     <use x="516.927734" xlink:href="#DejaVuSans-20"/>
     <use x="548.714844" xlink:href="#DejaVuSans-69"/>
     <use x="576.498047" xlink:href="#DejaVuSans-6e"/>
     <use x="639.876953" xlink:href="#DejaVuSans-20"/>
     <use x="671.664062" xlink:href="#DejaVuSans-31"/>
     <use x="735.287109" xlink:href="#DejaVuSans-30"/>
     <use x="798.910156" xlink:href="#DejaVuSans-30"/>
     <use x="862.533203" xlink:href="#DejaVuSans-2e"/>
     <use x="894.320312" xlink:href="#DejaVuSans-2e"/>
     <use x="926.107422" xlink:href="#DejaVuSans-31"/>
     <use x="989.730469" xlink:href="#DejaVuSans-65"/>
     <use x="1051.253906" xlink:href="#DejaVuSans-2d"/>
     <use x="1087.337891" xlink:href="#DejaVuSans-30"/>
     <use x="1150.960938" xlink:href="#DejaVuSans-38"/>
    </g>
    <!-- 15 instances -->
    <g transform="translate(74.3712 87.425723)scale(0.1666 -0.1666)">
     <use xlink:href="#DejaVuSans-31"/>
     <use x="63.623047" xlink:href="#DejaVuSans-35"/>
     <use x="127.246094" xlink:href="#DejaVuSans-20"/>
     <use x="159.033203" xlink:href="#DejaVuSans-69"/>
     <use x="186.816406" xlink:href="#DejaVuSans-6e"/>
     <use x="250.195312" xlink:href="#DejaVuSans-73"/>
     <use x="302.294922" xlink:href="#DejaVuSans-74"/>
     <use x="341.503906" xlink:href="#DejaVuSans-61"/>
     <use x="402.783203" xlink:href="#DejaVuSans-6e"/>
     <use x="466.162109" xlink:href="#DejaVuSans-63"/>
     <use x="521.142578" xlink:href="#DejaVuSans-65"/>
     <use x="582.666016" xlink:href="#DejaVuSans-73"/>
    </g>
   </g>
   <g id="text_18">
    <!-- v2.0.312 -->
    <g style="fill:#808080;" transform="translate(227.31625 293.504568)scale(0.1 -0.1)">
     <use xlink:href="#DejaVuSans-76"/>
     <use x="59.179688" xlink:href="#DejaVuSans-32"/>
     <use x="122.802734" xlink:href="#DejaVuSans-2e"/>
     <use x="154.589844" xlink:href="#DejaVuSans-30"/>
     <use x="218.212891" xlink:href="#DejaVuSans-2e"/>
     <use x="250" xlink:href="#DejaVuSans-33"/>
     <use x="313.623047" xlink:href="#DejaVuSans-31"/>
     <use x="377.246094" xlink:href="#DejaVuSans-32"/>
    </g>
   </g>
   <g id="text_19">
    <!-- 38 Different Powers with 2 constraints -->
    <defs>
     <path d="M 4.203125 54.6875 
L 13.1875 54.6875 
L 24.421875 12.015625 
L 35.59375 54.6875 
L 46.1875 54.6875 
L 57.421875 12.015625 
L 68.609375 54.6875 
L 77.59375 54.6875 
L 63.28125 0 
L 52.6875 0 
L 40.921875 44.828125 
L 29.109375 0 
L 18.5 0 
z
" id="DejaVuSans-77"/>
     <path d="M 54.890625 33.015625 
L 54.890625 0 
L 45.90625 0 
L 45.90625 32.71875 
Q 45.90625 40.484375 42.875 44.328125 
Q 39.84375 48.1875 33.796875 48.1875 
Q 26.515625 48.1875 22.3125 43.546875 
Q 18.109375 38.921875 18.109375 30.90625 
L 18.109375 0 
L 9.078125 0 
L 9.078125 75.984375 
L 18.109375 75.984375 
L 18.109375 46.1875 
Q 21.34375 51.125 25.703125 53.5625 
Q 30.078125 56 35.796875 56 
Q 45.21875 56 50.046875 50.171875 
Q 54.890625 44.34375 54.890625 33.015625 
z
" id="DejaVuSans-68"/>
    </defs>
    <g transform="translate(19.26375 26.133375)scale(0.24 -0.24)">
     <use xlink:href="#DejaVuSans-33"/>
     <use x="63.623047" xlink:href="#DejaVuSans-38"/>
     <use x="127.246094" xlink:href="#DejaVuSans-20"/>
     <use x="159.033203" xlink:href="#DejaVuSans-44"/>
     <use x="236.035156" xlink:href="#DejaVuSans-69"/>
     <use x="263.818359" xlink:href="#DejaVuSans-66"/>
     <use x="299.023438" xlink:href="#DejaVuSans-66"/>
     <use x="334.228516" xlink:href="#DejaVuSans-65"/>
     <use x="395.751953" xlink:href="#DejaVuSans-72"/>
     <use x="436.833984" xlink:href="#DejaVuSans-65"/>
     <use x="498.357422" xlink:href="#DejaVuSans-6e"/>
     <use x="561.736328" xlink:href="#DejaVuSans-74"/>
     <use x="600.945312" xlink:href="#DejaVuSans-20"/>
     <use x="632.732422" xlink:href="#DejaVuSans-50"/>
     <use x="692.988281" xlink:href="#DejaVuSans-6f"/>
     <use x="754.169922" xlink:href="#DejaVuSans-77"/>
     <use x="835.957031" xlink:href="#DejaVuSans-65"/>
     <use x="897.480469" xlink:href="#DejaVuSans-72"/>
     <use x="938.59375" xlink:href="#DejaVuSans-73"/>
     <use x="990.693359" xlink:href="#DejaVuSans-20"/>
     <use x="1022.480469" xlink:href="#DejaVuSans-77"/>
     <use x="1104.267578" xlink:href="#DejaVuSans-69"/>
     <use x="1132.050781" xlink:href="#DejaVuSans-74"/>
     <use x="1171.259766" xlink:href="#DejaVuSans-68"/>
     <use x="1234.638672" xlink:href="#DejaVuSans-20"/>
     <use x="1266.425781" xlink:href="#DejaVuSans-32"/>
     <use x="1330.048828" xlink:href="#DejaVuSans-20"/>
     <use x="1361.835938" xlink:href="#DejaVuSans-63"/>
     <use x="1416.816406" xlink:href="#DejaVuSans-6f"/>
     <use x="1477.998047" xlink:href="#DejaVuSans-6e"/>
     <use x="1541.376953" xlink:href="#DejaVuSans-73"/>
     <use x="1593.476562" xlink:href="#DejaVuSans-74"/>
     <use x="1632.685547" xlink:href="#DejaVuSans-72"/>
     <use x="1673.798828" xlink:href="#DejaVuSans-61"/>
     <use x="1735.078125" xlink:href="#DejaVuSans-69"/>
     <use x="1762.861328" xlink:href="#DejaVuSans-6e"/>
     <use x="1826.240234" xlink:href="#DejaVuSans-74"/>
     <use x="1865.449219" xlink:href="#DejaVuSans-73"/>
    </g>
   </g>
  </g>
 </g>
 <defs>
  <clipPath id="p7e3e166cba">
   <rect height="266.112" width="357.12" x="70.8" y="32.133375"/>
  </clipPath>
 </defs>
</svg>
