<?xml version="1.0" encoding="utf-8" standalone="no"?>
<!DOCTYPE svg PUBLIC "-//W3C//DTD SVG 1.1//EN"
  "http://www.w3.org/Graphics/SVG/1.1/DTD/svg11.dtd">
<!-- Created with matplotlib (http://matplotlib.org/) -->
<svg height="353pt" version="1.1" viewBox="0 0 481 353" width="481pt" xmlns="http://www.w3.org/2000/svg" xmlns:xlink="http://www.w3.org/1999/xlink">
 <defs>
  <style type="text/css">
*{stroke-linecap:butt;stroke-linejoin:round;}
  </style>
 </defs>
 <g id="figure_1">
  <g id="patch_1">
   <path d="M 0 353.22225 
L 481.578281 353.22225 
L 481.578281 0 
L 0 0 
z
" style="fill:#ffffff;"/>
  </g>
  <g id="axes_1">
   <g id="patch_2">
    <path d="M 70.8 298.245375 
L 427.92 298.245375 
L 427.92 32.133375 
L 70.8 32.133375 
z
" style="fill:#ffffff;"/>
   </g>
   <g id="matplotlib.axis_1">
    <g id="xtick_1">
     <g id="line2d_1">
      <path clip-path="url(#p01edcc3e3c)" d="M 70.8 298.245375 
L 70.8 32.133375 
" style="fill:none;stroke:#b0b0b0;stroke-linecap:square;stroke-width:0.8;"/>
     </g>
     <g id="line2d_2">
      <defs>
       <path d="M 0 0 
L 0 3.5 
" id="ma4f3d24eaf" style="stroke:#000000;stroke-width:0.8;"/>
      </defs>
      <g>
       <use style="stroke:#000000;stroke-width:0.8;" x="70.8" xlink:href="#ma4f3d24eaf" y="298.245375"/>
      </g>
     </g>
     <g id="text_1">
      <!-- 0 -->
      <defs>
       <path d="M 31.78125 66.40625 
Q 24.171875 66.40625 20.328125 58.90625 
Q 16.5 51.421875 16.5 36.375 
Q 16.5 21.390625 20.328125 13.890625 
Q 24.171875 6.390625 31.78125 6.390625 
Q 39.453125 6.390625 43.28125 13.890625 
Q 47.125 21.390625 47.125 36.375 
Q 47.125 51.421875 43.28125 58.90625 
Q 39.453125 66.40625 31.78125 66.40625 
z
M 31.78125 74.21875 
Q 44.046875 74.21875 50.515625 64.515625 
Q 56.984375 54.828125 56.984375 36.375 
Q 56.984375 17.96875 50.515625 8.265625 
Q 44.046875 -1.421875 31.78125 -1.421875 
Q 19.53125 -1.421875 13.0625 8.265625 
Q 6.59375 17.96875 6.59375 36.375 
Q 6.59375 54.828125 13.0625 64.515625 
Q 19.53125 74.21875 31.78125 74.21875 
z
" id="DejaVuSans-30"/>
      </defs>
      <g transform="translate(64.4375 320.44225)scale(0.2 -0.2)">
       <use xlink:href="#DejaVuSans-30"/>
      </g>
     </g>
    </g>
    <g id="xtick_2">
     <g id="line2d_3">
      <path clip-path="url(#p01edcc3e3c)" d="M 153.085714 298.245375 
L 153.085714 32.133375 
" style="fill:none;stroke:#b0b0b0;stroke-linecap:square;stroke-width:0.8;"/>
     </g>
     <g id="line2d_4">
      <g>
       <use style="stroke:#000000;stroke-width:0.8;" x="153.085714" xlink:href="#ma4f3d24eaf" y="298.245375"/>
      </g>
     </g>
     <g id="text_2">
      <!-- 2 -->
      <defs>
       <path d="M 19.1875 8.296875 
L 53.609375 8.296875 
L 53.609375 0 
L 7.328125 0 
L 7.328125 8.296875 
Q 12.9375 14.109375 22.625 23.890625 
Q 32.328125 33.6875 34.8125 36.53125 
Q 39.546875 41.84375 41.421875 45.53125 
Q 43.3125 49.21875 43.3125 52.78125 
Q 43.3125 58.59375 39.234375 62.25 
Q 35.15625 65.921875 28.609375 65.921875 
Q 23.96875 65.921875 18.8125 64.3125 
Q 13.671875 62.703125 7.8125 59.421875 
L 7.8125 69.390625 
Q 13.765625 71.78125 18.9375 73 
Q 24.125 74.21875 28.421875 74.21875 
Q 39.75 74.21875 46.484375 68.546875 
Q 53.21875 62.890625 53.21875 53.421875 
Q 53.21875 48.921875 51.53125 44.890625 
Q 49.859375 40.875 45.40625 35.40625 
Q 44.1875 33.984375 37.640625 27.21875 
Q 31.109375 20.453125 19.1875 8.296875 
z
" id="DejaVuSans-32"/>
      </defs>
      <g transform="translate(146.723214 320.44225)scale(0.2 -0.2)">
       <use xlink:href="#DejaVuSans-32"/>
      </g>
     </g>
    </g>
    <g id="xtick_3">
     <g id="line2d_5">
      <path clip-path="url(#p01edcc3e3c)" d="M 235.371429 298.245375 
L 235.371429 32.133375 
" style="fill:none;stroke:#b0b0b0;stroke-linecap:square;stroke-width:0.8;"/>
     </g>
     <g id="line2d_6">
      <g>
       <use style="stroke:#000000;stroke-width:0.8;" x="235.371429" xlink:href="#ma4f3d24eaf" y="298.245375"/>
      </g>
     </g>
     <g id="text_3">
      <!-- 4 -->
      <defs>
       <path d="M 37.796875 64.3125 
L 12.890625 25.390625 
L 37.796875 25.390625 
z
M 35.203125 72.90625 
L 47.609375 72.90625 
L 47.609375 25.390625 
L 58.015625 25.390625 
L 58.015625 17.1875 
L 47.609375 17.1875 
L 47.609375 0 
L 37.796875 0 
L 37.796875 17.1875 
L 4.890625 17.1875 
L 4.890625 26.703125 
z
" id="DejaVuSans-34"/>
      </defs>
      <g transform="translate(229.008929 320.44225)scale(0.2 -0.2)">
       <use xlink:href="#DejaVuSans-34"/>
      </g>
     </g>
    </g>
    <g id="xtick_4">
     <g id="line2d_7">
      <path clip-path="url(#p01edcc3e3c)" d="M 317.657143 298.245375 
L 317.657143 32.133375 
" style="fill:none;stroke:#b0b0b0;stroke-linecap:square;stroke-width:0.8;"/>
     </g>
     <g id="line2d_8">
      <g>
       <use style="stroke:#000000;stroke-width:0.8;" x="317.657143" xlink:href="#ma4f3d24eaf" y="298.245375"/>
      </g>
     </g>
     <g id="text_4">
      <!-- 6 -->
      <defs>
       <path d="M 33.015625 40.375 
Q 26.375 40.375 22.484375 35.828125 
Q 18.609375 31.296875 18.609375 23.390625 
Q 18.609375 15.53125 22.484375 10.953125 
Q 26.375 6.390625 33.015625 6.390625 
Q 39.65625 6.390625 43.53125 10.953125 
Q 47.40625 15.53125 47.40625 23.390625 
Q 47.40625 31.296875 43.53125 35.828125 
Q 39.65625 40.375 33.015625 40.375 
z
M 52.59375 71.296875 
L 52.59375 62.3125 
Q 48.875 64.0625 45.09375 64.984375 
Q 41.3125 65.921875 37.59375 65.921875 
Q 27.828125 65.921875 22.671875 59.328125 
Q 17.53125 52.734375 16.796875 39.40625 
Q 19.671875 43.65625 24.015625 45.921875 
Q 28.375 48.1875 33.59375 48.1875 
Q 44.578125 48.1875 50.953125 41.515625 
Q 57.328125 34.859375 57.328125 23.390625 
Q 57.328125 12.15625 50.6875 5.359375 
Q 44.046875 -1.421875 33.015625 -1.421875 
Q 20.359375 -1.421875 13.671875 8.265625 
Q 6.984375 17.96875 6.984375 36.375 
Q 6.984375 53.65625 15.1875 63.9375 
Q 23.390625 74.21875 37.203125 74.21875 
Q 40.921875 74.21875 44.703125 73.484375 
Q 48.484375 72.75 52.59375 71.296875 
z
" id="DejaVuSans-36"/>
      </defs>
      <g transform="translate(311.294643 320.44225)scale(0.2 -0.2)">
       <use xlink:href="#DejaVuSans-36"/>
      </g>
     </g>
    </g>
    <g id="xtick_5">
     <g id="line2d_9">
      <path clip-path="url(#p01edcc3e3c)" d="M 399.942857 298.245375 
L 399.942857 32.133375 
" style="fill:none;stroke:#b0b0b0;stroke-linecap:square;stroke-width:0.8;"/>
     </g>
     <g id="line2d_10">
      <g>
       <use style="stroke:#000000;stroke-width:0.8;" x="399.942857" xlink:href="#ma4f3d24eaf" y="298.245375"/>
      </g>
     </g>
     <g id="text_5">
      <!-- 8 -->
      <defs>
       <path d="M 31.78125 34.625 
Q 24.75 34.625 20.71875 30.859375 
Q 16.703125 27.09375 16.703125 20.515625 
Q 16.703125 13.921875 20.71875 10.15625 
Q 24.75 6.390625 31.78125 6.390625 
Q 38.8125 6.390625 42.859375 10.171875 
Q 46.921875 13.96875 46.921875 20.515625 
Q 46.921875 27.09375 42.890625 30.859375 
Q 38.875 34.625 31.78125 34.625 
z
M 21.921875 38.8125 
Q 15.578125 40.375 12.03125 44.71875 
Q 8.5 49.078125 8.5 55.328125 
Q 8.5 64.0625 14.71875 69.140625 
Q 20.953125 74.21875 31.78125 74.21875 
Q 42.671875 74.21875 48.875 69.140625 
Q 55.078125 64.0625 55.078125 55.328125 
Q 55.078125 49.078125 51.53125 44.71875 
Q 48 40.375 41.703125 38.8125 
Q 48.828125 37.15625 52.796875 32.3125 
Q 56.78125 27.484375 56.78125 20.515625 
Q 56.78125 9.90625 50.3125 4.234375 
Q 43.84375 -1.421875 31.78125 -1.421875 
Q 19.734375 -1.421875 13.25 4.234375 
Q 6.78125 9.90625 6.78125 20.515625 
Q 6.78125 27.484375 10.78125 32.3125 
Q 14.796875 37.15625 21.921875 38.8125 
z
M 18.3125 54.390625 
Q 18.3125 48.734375 21.84375 45.5625 
Q 25.390625 42.390625 31.78125 42.390625 
Q 38.140625 42.390625 41.71875 45.5625 
Q 45.3125 48.734375 45.3125 54.390625 
Q 45.3125 60.0625 41.71875 63.234375 
Q 38.140625 66.40625 31.78125 66.40625 
Q 25.390625 66.40625 21.84375 63.234375 
Q 18.3125 60.0625 18.3125 54.390625 
z
" id="DejaVuSans-38"/>
      </defs>
      <g transform="translate(393.580357 320.44225)scale(0.2 -0.2)">
       <use xlink:href="#DejaVuSans-38"/>
      </g>
     </g>
    </g>
    <g id="text_6">
     <!-- log10 of # (f+g)-evals / dimension -->
     <defs>
      <path d="M 9.421875 75.984375 
L 18.40625 75.984375 
L 18.40625 0 
L 9.421875 0 
z
" id="DejaVuSans-6c"/>
      <path d="M 30.609375 48.390625 
Q 23.390625 48.390625 19.1875 42.75 
Q 14.984375 37.109375 14.984375 27.296875 
Q 14.984375 17.484375 19.15625 11.84375 
Q 23.34375 6.203125 30.609375 6.203125 
Q 37.796875 6.203125 41.984375 11.859375 
Q 46.1875 17.53125 46.1875 27.296875 
Q 46.1875 37.015625 41.984375 42.703125 
Q 37.796875 48.390625 30.609375 48.390625 
z
M 30.609375 56 
Q 42.328125 56 49.015625 48.375 
Q 55.71875 40.765625 55.71875 27.296875 
Q 55.71875 13.875 49.015625 6.21875 
Q 42.328125 -1.421875 30.609375 -1.421875 
Q 18.84375 -1.421875 12.171875 6.21875 
Q 5.515625 13.875 5.515625 27.296875 
Q 5.515625 40.765625 12.171875 48.375 
Q 18.84375 56 30.609375 56 
z
" id="DejaVuSans-6f"/>
      <path d="M 45.40625 27.984375 
Q 45.40625 37.75 41.375 43.109375 
Q 37.359375 48.484375 30.078125 48.484375 
Q 22.859375 48.484375 18.828125 43.109375 
Q 14.796875 37.75 14.796875 27.984375 
Q 14.796875 18.265625 18.828125 12.890625 
Q 22.859375 7.515625 30.078125 7.515625 
Q 37.359375 7.515625 41.375 12.890625 
Q 45.40625 18.265625 45.40625 27.984375 
z
M 54.390625 6.78125 
Q 54.390625 -7.171875 48.1875 -13.984375 
Q 42 -20.796875 29.203125 -20.796875 
Q 24.46875 -20.796875 20.265625 -20.09375 
Q 16.0625 -19.390625 12.109375 -17.921875 
L 12.109375 -9.1875 
Q 16.0625 -11.328125 19.921875 -12.34375 
Q 23.78125 -13.375 27.78125 -13.375 
Q 36.625 -13.375 41.015625 -8.765625 
Q 45.40625 -4.15625 45.40625 5.171875 
L 45.40625 9.625 
Q 42.625 4.78125 38.28125 2.390625 
Q 33.9375 0 27.875 0 
Q 17.828125 0 11.671875 7.65625 
Q 5.515625 15.328125 5.515625 27.984375 
Q 5.515625 40.671875 11.671875 48.328125 
Q 17.828125 56 27.875 56 
Q 33.9375 56 38.28125 53.609375 
Q 42.625 51.21875 45.40625 46.390625 
L 45.40625 54.6875 
L 54.390625 54.6875 
z
" id="DejaVuSans-67"/>
      <path d="M 12.40625 8.296875 
L 28.515625 8.296875 
L 28.515625 63.921875 
L 10.984375 60.40625 
L 10.984375 69.390625 
L 28.421875 72.90625 
L 38.28125 72.90625 
L 38.28125 8.296875 
L 54.390625 8.296875 
L 54.390625 0 
L 12.40625 0 
z
" id="DejaVuSans-31"/>
      <path id="DejaVuSans-20"/>
      <path d="M 37.109375 75.984375 
L 37.109375 68.5 
L 28.515625 68.5 
Q 23.6875 68.5 21.796875 66.546875 
Q 19.921875 64.59375 19.921875 59.515625 
L 19.921875 54.6875 
L 34.71875 54.6875 
L 34.71875 47.703125 
L 19.921875 47.703125 
L 19.921875 0 
L 10.890625 0 
L 10.890625 47.703125 
L 2.296875 47.703125 
L 2.296875 54.6875 
L 10.890625 54.6875 
L 10.890625 58.5 
Q 10.890625 67.625 15.140625 71.796875 
Q 19.390625 75.984375 28.609375 75.984375 
z
" id="DejaVuSans-66"/>
      <path d="M 51.125 44 
L 36.921875 44 
L 32.8125 27.6875 
L 47.125 27.6875 
z
M 43.796875 71.78125 
L 38.71875 51.515625 
L 52.984375 51.515625 
L 58.109375 71.78125 
L 65.921875 71.78125 
L 60.890625 51.515625 
L 76.125 51.515625 
L 76.125 44 
L 58.984375 44 
L 54.984375 27.6875 
L 70.515625 27.6875 
L 70.515625 20.21875 
L 53.078125 20.21875 
L 48 0 
L 40.1875 0 
L 45.21875 20.21875 
L 30.90625 20.21875 
L 25.875 0 
L 18.015625 0 
L 23.09375 20.21875 
L 7.71875 20.21875 
L 7.71875 27.6875 
L 24.90625 27.6875 
L 29 44 
L 13.28125 44 
L 13.28125 51.515625 
L 30.90625 51.515625 
L 35.890625 71.78125 
z
" id="DejaVuSans-23"/>
      <path d="M 31 75.875 
Q 24.46875 64.65625 21.28125 53.65625 
Q 18.109375 42.671875 18.109375 31.390625 
Q 18.109375 20.125 21.3125 9.0625 
Q 24.515625 -2 31 -13.1875 
L 23.1875 -13.1875 
Q 15.875 -1.703125 12.234375 9.375 
Q 8.59375 20.453125 8.59375 31.390625 
Q 8.59375 42.28125 12.203125 53.3125 
Q 15.828125 64.359375 23.1875 75.875 
z
" id="DejaVuSans-28"/>
      <path d="M 46 62.703125 
L 46 35.5 
L 73.1875 35.5 
L 73.1875 27.203125 
L 46 27.203125 
L 46 0 
L 37.796875 0 
L 37.796875 27.203125 
L 10.59375 27.203125 
L 10.59375 35.5 
L 37.796875 35.5 
L 37.796875 62.703125 
z
" id="DejaVuSans-2b"/>
      <path d="M 8.015625 75.875 
L 15.828125 75.875 
Q 23.140625 64.359375 26.78125 53.3125 
Q 30.421875 42.28125 30.421875 31.390625 
Q 30.421875 20.453125 26.78125 9.375 
Q 23.140625 -1.703125 15.828125 -13.1875 
L 8.015625 -13.1875 
Q 14.5 -2 17.703125 9.0625 
Q 20.90625 20.125 20.90625 31.390625 
Q 20.90625 42.671875 17.703125 53.65625 
Q 14.5 64.65625 8.015625 75.875 
z
" id="DejaVuSans-29"/>
      <path d="M 4.890625 31.390625 
L 31.203125 31.390625 
L 31.203125 23.390625 
L 4.890625 23.390625 
z
" id="DejaVuSans-2d"/>
      <path d="M 56.203125 29.59375 
L 56.203125 25.203125 
L 14.890625 25.203125 
Q 15.484375 15.921875 20.484375 11.0625 
Q 25.484375 6.203125 34.421875 6.203125 
Q 39.59375 6.203125 44.453125 7.46875 
Q 49.3125 8.734375 54.109375 11.28125 
L 54.109375 2.78125 
Q 49.265625 0.734375 44.1875 -0.34375 
Q 39.109375 -1.421875 33.890625 -1.421875 
Q 20.796875 -1.421875 13.15625 6.1875 
Q 5.515625 13.8125 5.515625 26.8125 
Q 5.515625 40.234375 12.765625 48.109375 
Q 20.015625 56 32.328125 56 
Q 43.359375 56 49.78125 48.890625 
Q 56.203125 41.796875 56.203125 29.59375 
z
M 47.21875 32.234375 
Q 47.125 39.59375 43.09375 43.984375 
Q 39.0625 48.390625 32.421875 48.390625 
Q 24.90625 48.390625 20.390625 44.140625 
Q 15.875 39.890625 15.1875 32.171875 
z
" id="DejaVuSans-65"/>
      <path d="M 2.984375 54.6875 
L 12.5 54.6875 
L 29.59375 8.796875 
L 46.6875 54.6875 
L 56.203125 54.6875 
L 35.6875 0 
L 23.484375 0 
z
" id="DejaVuSans-76"/>
      <path d="M 34.28125 27.484375 
Q 23.390625 27.484375 19.1875 25 
Q 14.984375 22.515625 14.984375 16.5 
Q 14.984375 11.71875 18.140625 8.90625 
Q 21.296875 6.109375 26.703125 6.109375 
Q 34.1875 6.109375 38.703125 11.40625 
Q 43.21875 16.703125 43.21875 25.484375 
L 43.21875 27.484375 
z
M 52.203125 31.203125 
L 52.203125 0 
L 43.21875 0 
L 43.21875 8.296875 
Q 40.140625 3.328125 35.546875 0.953125 
Q 30.953125 -1.421875 24.3125 -1.421875 
Q 15.921875 -1.421875 10.953125 3.296875 
Q 6 8.015625 6 15.921875 
Q 6 25.140625 12.171875 29.828125 
Q 18.359375 34.515625 30.609375 34.515625 
L 43.21875 34.515625 
L 43.21875 35.40625 
Q 43.21875 41.609375 39.140625 45 
Q 35.0625 48.390625 27.6875 48.390625 
Q 23 48.390625 18.546875 47.265625 
Q 14.109375 46.140625 10.015625 43.890625 
L 10.015625 52.203125 
Q 14.9375 54.109375 19.578125 55.046875 
Q 24.21875 56 28.609375 56 
Q 40.484375 56 46.34375 49.84375 
Q 52.203125 43.703125 52.203125 31.203125 
z
" id="DejaVuSans-61"/>
      <path d="M 44.28125 53.078125 
L 44.28125 44.578125 
Q 40.484375 46.53125 36.375 47.5 
Q 32.28125 48.484375 27.875 48.484375 
Q 21.1875 48.484375 17.84375 46.4375 
Q 14.5 44.390625 14.5 40.28125 
Q 14.5 37.15625 16.890625 35.375 
Q 19.28125 33.59375 26.515625 31.984375 
L 29.59375 31.296875 
Q 39.15625 29.25 43.1875 25.515625 
Q 47.21875 21.78125 47.21875 15.09375 
Q 47.21875 7.46875 41.1875 3.015625 
Q 35.15625 -1.421875 24.609375 -1.421875 
Q 20.21875 -1.421875 15.453125 -0.5625 
Q 10.6875 0.296875 5.421875 2 
L 5.421875 11.28125 
Q 10.40625 8.6875 15.234375 7.390625 
Q 20.0625 6.109375 24.8125 6.109375 
Q 31.15625 6.109375 34.5625 8.28125 
Q 37.984375 10.453125 37.984375 14.40625 
Q 37.984375 18.0625 35.515625 20.015625 
Q 33.0625 21.96875 24.703125 23.78125 
L 21.578125 24.515625 
Q 13.234375 26.265625 9.515625 29.90625 
Q 5.8125 33.546875 5.8125 39.890625 
Q 5.8125 47.609375 11.28125 51.796875 
Q 16.75 56 26.8125 56 
Q 31.78125 56 36.171875 55.265625 
Q 40.578125 54.546875 44.28125 53.078125 
z
" id="DejaVuSans-73"/>
      <path d="M 25.390625 72.90625 
L 33.6875 72.90625 
L 8.296875 -9.28125 
L 0 -9.28125 
z
" id="DejaVuSans-2f"/>
      <path d="M 45.40625 46.390625 
L 45.40625 75.984375 
L 54.390625 75.984375 
L 54.390625 0 
L 45.40625 0 
L 45.40625 8.203125 
Q 42.578125 3.328125 38.25 0.953125 
Q 33.9375 -1.421875 27.875 -1.421875 
Q 17.96875 -1.421875 11.734375 6.484375 
Q 5.515625 14.40625 5.515625 27.296875 
Q 5.515625 40.1875 11.734375 48.09375 
Q 17.96875 56 27.875 56 
Q 33.9375 56 38.25 53.625 
Q 42.578125 51.265625 45.40625 46.390625 
z
M 14.796875 27.296875 
Q 14.796875 17.390625 18.875 11.75 
Q 22.953125 6.109375 30.078125 6.109375 
Q 37.203125 6.109375 41.296875 11.75 
Q 45.40625 17.390625 45.40625 27.296875 
Q 45.40625 37.203125 41.296875 42.84375 
Q 37.203125 48.484375 30.078125 48.484375 
Q 22.953125 48.484375 18.875 42.84375 
Q 14.796875 37.203125 14.796875 27.296875 
z
" id="DejaVuSans-64"/>
      <path d="M 9.421875 54.6875 
L 18.40625 54.6875 
L 18.40625 0 
L 9.421875 0 
z
M 9.421875 75.984375 
L 18.40625 75.984375 
L 18.40625 64.59375 
L 9.421875 64.59375 
z
" id="DejaVuSans-69"/>
      <path d="M 52 44.1875 
Q 55.375 50.25 60.0625 53.125 
Q 64.75 56 71.09375 56 
Q 79.640625 56 84.28125 50.015625 
Q 88.921875 44.046875 88.921875 33.015625 
L 88.921875 0 
L 79.890625 0 
L 79.890625 32.71875 
Q 79.890625 40.578125 77.09375 44.375 
Q 74.3125 48.1875 68.609375 48.1875 
Q 61.625 48.1875 57.5625 43.546875 
Q 53.515625 38.921875 53.515625 30.90625 
L 53.515625 0 
L 44.484375 0 
L 44.484375 32.71875 
Q 44.484375 40.625 41.703125 44.40625 
Q 38.921875 48.1875 33.109375 48.1875 
Q 26.21875 48.1875 22.15625 43.53125 
Q 18.109375 38.875 18.109375 30.90625 
L 18.109375 0 
L 9.078125 0 
L 9.078125 54.6875 
L 18.109375 54.6875 
L 18.109375 46.1875 
Q 21.1875 51.21875 25.484375 53.609375 
Q 29.78125 56 35.6875 56 
Q 41.65625 56 45.828125 52.96875 
Q 50 49.953125 52 44.1875 
z
" id="DejaVuSans-6d"/>
      <path d="M 54.890625 33.015625 
L 54.890625 0 
L 45.90625 0 
L 45.90625 32.71875 
Q 45.90625 40.484375 42.875 44.328125 
Q 39.84375 48.1875 33.796875 48.1875 
Q 26.515625 48.1875 22.3125 43.546875 
Q 18.109375 38.921875 18.109375 30.90625 
L 18.109375 0 
L 9.078125 0 
L 9.078125 54.6875 
L 18.109375 54.6875 
L 18.109375 46.1875 
Q 21.34375 51.125 25.703125 53.5625 
Q 30.078125 56 35.796875 56 
Q 45.21875 56 50.046875 50.171875 
Q 54.890625 44.34375 54.890625 33.015625 
z
" id="DejaVuSans-6e"/>
     </defs>
     <g transform="translate(93.752813 342.278812)scale(0.18 -0.18)">
      <use xlink:href="#DejaVuSans-6c"/>
      <use x="27.783203" xlink:href="#DejaVuSans-6f"/>
      <use x="88.964844" xlink:href="#DejaVuSans-67"/>
      <use x="152.441406" xlink:href="#DejaVuSans-31"/>
      <use x="216.064453" xlink:href="#DejaVuSans-30"/>
      <use x="279.6875" xlink:href="#DejaVuSans-20"/>
      <use x="311.474609" xlink:href="#DejaVuSans-6f"/>
      <use x="372.65625" xlink:href="#DejaVuSans-66"/>
      <use x="407.861328" xlink:href="#DejaVuSans-20"/>
      <use x="439.648438" xlink:href="#DejaVuSans-23"/>
      <use x="523.4375" xlink:href="#DejaVuSans-20"/>
      <use x="555.224609" xlink:href="#DejaVuSans-28"/>
      <use x="594.238281" xlink:href="#DejaVuSans-66"/>
      <use x="629.443359" xlink:href="#DejaVuSans-2b"/>
      <use x="713.232422" xlink:href="#DejaVuSans-67"/>
      <use x="776.708984" xlink:href="#DejaVuSans-29"/>
      <use x="815.722656" xlink:href="#DejaVuSans-2d"/>
      <use x="851.806641" xlink:href="#DejaVuSans-65"/>
      <use x="913.330078" xlink:href="#DejaVuSans-76"/>
      <use x="972.509766" xlink:href="#DejaVuSans-61"/>
      <use x="1033.789062" xlink:href="#DejaVuSans-6c"/>
      <use x="1061.572266" xlink:href="#DejaVuSans-73"/>
      <use x="1113.671875" xlink:href="#DejaVuSans-20"/>
      <use x="1145.458984" xlink:href="#DejaVuSans-2f"/>
      <use x="1179.150391" xlink:href="#DejaVuSans-20"/>
      <use x="1210.9375" xlink:href="#DejaVuSans-64"/>
      <use x="1274.414062" xlink:href="#DejaVuSans-69"/>
      <use x="1302.197266" xlink:href="#DejaVuSans-6d"/>
      <use x="1399.609375" xlink:href="#DejaVuSans-65"/>
      <use x="1461.132812" xlink:href="#DejaVuSans-6e"/>
      <use x="1524.511719" xlink:href="#DejaVuSans-73"/>
      <use x="1576.611328" xlink:href="#DejaVuSans-69"/>
      <use x="1604.394531" xlink:href="#DejaVuSans-6f"/>
      <use x="1665.576172" xlink:href="#DejaVuSans-6e"/>
     </g>
    </g>
   </g>
   <g id="matplotlib.axis_2">
    <g id="ytick_1">
     <g id="line2d_11">
      <path clip-path="url(#p01edcc3e3c)" d="M 70.8 298.245375 
L 427.92 298.245375 
" style="fill:none;stroke:#b0b0b0;stroke-linecap:square;stroke-width:0.8;"/>
     </g>
     <g id="line2d_12">
      <defs>
       <path d="M 0 0 
L -3.5 0 
" id="m2b50b79b74" style="stroke:#000000;stroke-width:0.8;"/>
      </defs>
      <g>
       <use style="stroke:#000000;stroke-width:0.8;" x="70.8" xlink:href="#m2b50b79b74" y="298.245375"/>
      </g>
     </g>
     <g id="text_7">
      <!-- 0.0 -->
      <defs>
       <path d="M 10.6875 12.40625 
L 21 12.40625 
L 21 0 
L 10.6875 0 
z
" id="DejaVuSans-2e"/>
      </defs>
      <g transform="translate(31.99375 305.843812)scale(0.2 -0.2)">
       <use xlink:href="#DejaVuSans-30"/>
       <use x="63.623047" xlink:href="#DejaVuSans-2e"/>
       <use x="95.410156" xlink:href="#DejaVuSans-30"/>
      </g>
     </g>
    </g>
    <g id="ytick_2">
     <g id="line2d_13">
      <path clip-path="url(#p01edcc3e3c)" d="M 70.8 245.549929 
L 427.92 245.549929 
" style="fill:none;stroke:#b0b0b0;stroke-linecap:square;stroke-width:0.8;"/>
     </g>
     <g id="line2d_14">
      <g>
       <use style="stroke:#000000;stroke-width:0.8;" x="70.8" xlink:href="#m2b50b79b74" y="245.549929"/>
      </g>
     </g>
     <g id="text_8">
      <!-- 0.2 -->
      <g transform="translate(31.99375 253.148367)scale(0.2 -0.2)">
       <use xlink:href="#DejaVuSans-30"/>
       <use x="63.623047" xlink:href="#DejaVuSans-2e"/>
       <use x="95.410156" xlink:href="#DejaVuSans-32"/>
      </g>
     </g>
    </g>
    <g id="ytick_3">
     <g id="line2d_15">
      <path clip-path="url(#p01edcc3e3c)" d="M 70.8 192.854484 
L 427.92 192.854484 
" style="fill:none;stroke:#b0b0b0;stroke-linecap:square;stroke-width:0.8;"/>
     </g>
     <g id="line2d_16">
      <g>
       <use style="stroke:#000000;stroke-width:0.8;" x="70.8" xlink:href="#m2b50b79b74" y="192.854484"/>
      </g>
     </g>
     <g id="text_9">
      <!-- 0.4 -->
      <g transform="translate(31.99375 200.452921)scale(0.2 -0.2)">
       <use xlink:href="#DejaVuSans-30"/>
       <use x="63.623047" xlink:href="#DejaVuSans-2e"/>
       <use x="95.410156" xlink:href="#DejaVuSans-34"/>
      </g>
     </g>
    </g>
    <g id="ytick_4">
     <g id="line2d_17">
      <path clip-path="url(#p01edcc3e3c)" d="M 70.8 140.159038 
L 427.92 140.159038 
" style="fill:none;stroke:#b0b0b0;stroke-linecap:square;stroke-width:0.8;"/>
     </g>
     <g id="line2d_18">
      <g>
       <use style="stroke:#000000;stroke-width:0.8;" x="70.8" xlink:href="#m2b50b79b74" y="140.159038"/>
      </g>
     </g>
     <g id="text_10">
      <!-- 0.6 -->
      <g transform="translate(31.99375 147.757476)scale(0.2 -0.2)">
       <use xlink:href="#DejaVuSans-30"/>
       <use x="63.623047" xlink:href="#DejaVuSans-2e"/>
       <use x="95.410156" xlink:href="#DejaVuSans-36"/>
      </g>
     </g>
    </g>
    <g id="ytick_5">
     <g id="line2d_19">
      <path clip-path="url(#p01edcc3e3c)" d="M 70.8 87.463593 
L 427.92 87.463593 
" style="fill:none;stroke:#b0b0b0;stroke-linecap:square;stroke-width:0.8;"/>
     </g>
     <g id="line2d_20">
      <g>
       <use style="stroke:#000000;stroke-width:0.8;" x="70.8" xlink:href="#m2b50b79b74" y="87.463593"/>
      </g>
     </g>
     <g id="text_11">
      <!-- 0.8 -->
      <g transform="translate(31.99375 95.06203)scale(0.2 -0.2)">
       <use xlink:href="#DejaVuSans-30"/>
       <use x="63.623047" xlink:href="#DejaVuSans-2e"/>
       <use x="95.410156" xlink:href="#DejaVuSans-38"/>
      </g>
     </g>
    </g>
    <g id="ytick_6">
     <g id="line2d_21">
      <path clip-path="url(#p01edcc3e3c)" d="M 70.8 34.768147 
L 427.92 34.768147 
" style="fill:none;stroke:#b0b0b0;stroke-linecap:square;stroke-width:0.8;"/>
     </g>
     <g id="line2d_22">
      <g>
       <use style="stroke:#000000;stroke-width:0.8;" x="70.8" xlink:href="#m2b50b79b74" y="34.768147"/>
      </g>
     </g>
     <g id="text_12">
      <!-- 1.0 -->
      <g transform="translate(31.99375 42.366585)scale(0.2 -0.2)">
       <use xlink:href="#DejaVuSans-31"/>
       <use x="63.623047" xlink:href="#DejaVuSans-2e"/>
       <use x="95.410156" xlink:href="#DejaVuSans-30"/>
      </g>
     </g>
    </g>
    <g id="text_13">
     <!-- Proportion of function+target pairs -->
     <defs>
      <path d="M 19.671875 64.796875 
L 19.671875 37.40625 
L 32.078125 37.40625 
Q 38.96875 37.40625 42.71875 40.96875 
Q 46.484375 44.53125 46.484375 51.125 
Q 46.484375 57.671875 42.71875 61.234375 
Q 38.96875 64.796875 32.078125 64.796875 
z
M 9.8125 72.90625 
L 32.078125 72.90625 
Q 44.34375 72.90625 50.609375 67.359375 
Q 56.890625 61.8125 56.890625 51.125 
Q 56.890625 40.328125 50.609375 34.8125 
Q 44.34375 29.296875 32.078125 29.296875 
L 19.671875 29.296875 
L 19.671875 0 
L 9.8125 0 
z
" id="DejaVuSans-50"/>
      <path d="M 41.109375 46.296875 
Q 39.59375 47.171875 37.8125 47.578125 
Q 36.03125 48 33.890625 48 
Q 26.265625 48 22.1875 43.046875 
Q 18.109375 38.09375 18.109375 28.8125 
L 18.109375 0 
L 9.078125 0 
L 9.078125 54.6875 
L 18.109375 54.6875 
L 18.109375 46.1875 
Q 20.953125 51.171875 25.484375 53.578125 
Q 30.03125 56 36.53125 56 
Q 37.453125 56 38.578125 55.875 
Q 39.703125 55.765625 41.0625 55.515625 
z
" id="DejaVuSans-72"/>
      <path d="M 18.109375 8.203125 
L 18.109375 -20.796875 
L 9.078125 -20.796875 
L 9.078125 54.6875 
L 18.109375 54.6875 
L 18.109375 46.390625 
Q 20.953125 51.265625 25.265625 53.625 
Q 29.59375 56 35.59375 56 
Q 45.5625 56 51.78125 48.09375 
Q 58.015625 40.1875 58.015625 27.296875 
Q 58.015625 14.40625 51.78125 6.484375 
Q 45.5625 -1.421875 35.59375 -1.421875 
Q 29.59375 -1.421875 25.265625 0.953125 
Q 20.953125 3.328125 18.109375 8.203125 
z
M 48.6875 27.296875 
Q 48.6875 37.203125 44.609375 42.84375 
Q 40.53125 48.484375 33.40625 48.484375 
Q 26.265625 48.484375 22.1875 42.84375 
Q 18.109375 37.203125 18.109375 27.296875 
Q 18.109375 17.390625 22.1875 11.75 
Q 26.265625 6.109375 33.40625 6.109375 
Q 40.53125 6.109375 44.609375 11.75 
Q 48.6875 17.390625 48.6875 27.296875 
z
" id="DejaVuSans-70"/>
      <path d="M 18.3125 70.21875 
L 18.3125 54.6875 
L 36.8125 54.6875 
L 36.8125 47.703125 
L 18.3125 47.703125 
L 18.3125 18.015625 
Q 18.3125 11.328125 20.140625 9.421875 
Q 21.96875 7.515625 27.59375 7.515625 
L 36.8125 7.515625 
L 36.8125 0 
L 27.59375 0 
Q 17.1875 0 13.234375 3.875 
Q 9.28125 7.765625 9.28125 18.015625 
L 9.28125 47.703125 
L 2.6875 47.703125 
L 2.6875 54.6875 
L 9.28125 54.6875 
L 9.28125 70.21875 
z
" id="DejaVuSans-74"/>
      <path d="M 8.5 21.578125 
L 8.5 54.6875 
L 17.484375 54.6875 
L 17.484375 21.921875 
Q 17.484375 14.15625 20.5 10.265625 
Q 23.53125 6.390625 29.59375 6.390625 
Q 36.859375 6.390625 41.078125 11.03125 
Q 45.3125 15.671875 45.3125 23.6875 
L 45.3125 54.6875 
L 54.296875 54.6875 
L 54.296875 0 
L 45.3125 0 
L 45.3125 8.40625 
Q 42.046875 3.421875 37.71875 1 
Q 33.40625 -1.421875 27.6875 -1.421875 
Q 18.265625 -1.421875 13.375 4.4375 
Q 8.5 10.296875 8.5 21.578125 
z
M 31.109375 56 
z
" id="DejaVuSans-75"/>
      <path d="M 48.78125 52.59375 
L 48.78125 44.1875 
Q 44.96875 46.296875 41.140625 47.34375 
Q 37.3125 48.390625 33.40625 48.390625 
Q 24.65625 48.390625 19.8125 42.84375 
Q 14.984375 37.3125 14.984375 27.296875 
Q 14.984375 17.28125 19.8125 11.734375 
Q 24.65625 6.203125 33.40625 6.203125 
Q 37.3125 6.203125 41.140625 7.25 
Q 44.96875 8.296875 48.78125 10.40625 
L 48.78125 2.09375 
Q 45.015625 0.34375 40.984375 -0.53125 
Q 36.96875 -1.421875 32.421875 -1.421875 
Q 20.0625 -1.421875 12.78125 6.34375 
Q 5.515625 14.109375 5.515625 27.296875 
Q 5.515625 40.671875 12.859375 48.328125 
Q 20.21875 56 33.015625 56 
Q 37.15625 56 41.109375 55.140625 
Q 45.0625 54.296875 48.78125 52.59375 
z
" id="DejaVuSans-63"/>
     </defs>
     <g transform="translate(24.250312 323.17875)rotate(-90)scale(0.18 -0.18)">
      <use xlink:href="#DejaVuSans-50"/>
      <use x="60.287109" xlink:href="#DejaVuSans-72"/>
      <use x="101.369141" xlink:href="#DejaVuSans-6f"/>
      <use x="162.550781" xlink:href="#DejaVuSans-70"/>
      <use x="226.027344" xlink:href="#DejaVuSans-6f"/>
      <use x="287.208984" xlink:href="#DejaVuSans-72"/>
      <use x="328.322266" xlink:href="#DejaVuSans-74"/>
      <use x="367.53125" xlink:href="#DejaVuSans-69"/>
      <use x="395.314453" xlink:href="#DejaVuSans-6f"/>
      <use x="456.496094" xlink:href="#DejaVuSans-6e"/>
      <use x="519.875" xlink:href="#DejaVuSans-20"/>
      <use x="551.662109" xlink:href="#DejaVuSans-6f"/>
      <use x="612.84375" xlink:href="#DejaVuSans-66"/>
      <use x="648.048828" xlink:href="#DejaVuSans-20"/>
      <use x="679.835938" xlink:href="#DejaVuSans-66"/>
      <use x="715.041016" xlink:href="#DejaVuSans-75"/>
      <use x="778.419922" xlink:href="#DejaVuSans-6e"/>
      <use x="841.798828" xlink:href="#DejaVuSans-63"/>
      <use x="896.779297" xlink:href="#DejaVuSans-74"/>
      <use x="935.988281" xlink:href="#DejaVuSans-69"/>
      <use x="963.771484" xlink:href="#DejaVuSans-6f"/>
      <use x="1024.953125" xlink:href="#DejaVuSans-6e"/>
      <use x="1088.332031" xlink:href="#DejaVuSans-2b"/>
      <use x="1172.121094" xlink:href="#DejaVuSans-74"/>
      <use x="1211.330078" xlink:href="#DejaVuSans-61"/>
      <use x="1272.609375" xlink:href="#DejaVuSans-72"/>
      <use x="1313.707031" xlink:href="#DejaVuSans-67"/>
      <use x="1377.183594" xlink:href="#DejaVuSans-65"/>
      <use x="1438.707031" xlink:href="#DejaVuSans-74"/>
      <use x="1477.916016" xlink:href="#DejaVuSans-20"/>
      <use x="1509.703125" xlink:href="#DejaVuSans-70"/>
      <use x="1573.179688" xlink:href="#DejaVuSans-61"/>
      <use x="1634.458984" xlink:href="#DejaVuSans-69"/>
      <use x="1662.242188" xlink:href="#DejaVuSans-72"/>
      <use x="1703.355469" xlink:href="#DejaVuSans-73"/>
     </g>
    </g>
   </g>
   <g id="line2d_23">
    <defs>
     <path d="M 0 1.5 
C 0.397805 1.5 0.77937 1.341951 1.06066 1.06066 
C 1.341951 0.77937 1.5 0.397805 1.5 0 
C 1.5 -0.397805 1.341951 -0.77937 1.06066 -1.06066 
C 0.77937 -1.341951 0.397805 -1.5 0 -1.5 
C -0.397805 -1.5 -0.77937 -1.341951 -1.06066 -1.06066 
C -1.341951 -0.77937 -1.5 -0.397805 -1.5 0 
C -1.5 0.397805 -1.341951 0.77937 -1.06066 1.06066 
C -0.77937 1.341951 -0.397805 1.5 0 1.5 
z
" id="mbdb069c8e5" style="stroke:#000080;"/>
    </defs>
    <g>
     <use style="fill:#000080;stroke:#000080;" x="226.065861" xlink:href="#mbdb069c8e5" y="34.768147"/>
     <use style="fill:#000080;stroke:#000080;" x="226.065861" xlink:href="#mbdb069c8e5" y="34.768147"/>
    </g>
   </g>
   <g id="line2d_24">
    <path d="M 58.414766 298.245375 
L 58.414766 295.270632 
L 70.8 295.270632 
L 70.8 284.788205 
L 90.430132 284.788205 
L 90.430132 284.64655 
L 95.570468 284.64655 
L 95.570468 282.096771 
L 99.557623 282.096771 
L 99.557623 280.396918 
L 102.815366 280.396918 
L 102.815366 279.546991 
L 105.569748 279.546991 
L 105.569748 278.130447 
L 107.955702 278.130447 
L 107.955702 277.28052 
L 110.060263 277.28052 
L 110.060263 276.288939 
L 111.942857 276.288939 
L 111.942857 274.447432 
L 113.64587 274.447432 
L 113.64587 271.18938 
L 115.2006 271.18938 
L 115.2006 269.064564 
L 116.630812 269.064564 
L 116.630812 268.072983 
L 117.954982 268.072983 
L 117.954982 264.106659 
L 119.187755 264.106659 
L 119.187755 260.990262 
L 120.340936 260.990262 
L 120.340936 257.307247 
L 121.424184 257.307247 
L 121.424184 253.057614 
L 122.445497 253.057614 
L 122.445497 250.36618 
L 123.411577 250.36618 
L 123.411577 248.807981 
L 124.328091 248.807981 
L 124.328091 246.54151 
L 125.19988 246.54151 
L 125.19988 243.991731 
L 126.031105 243.991731 
L 126.031105 241.72526 
L 126.825374 241.72526 
L 126.825374 239.17548 
L 127.585834 239.17548 
L 127.585834 238.183899 
L 128.315246 238.183899 
L 128.315246 234.925848 
L 129.016046 234.925848 
L 129.016046 234.500884 
L 129.690395 234.500884 
L 129.690395 226.851546 
L 130.340216 226.851546 
L 130.340216 223.451839 
L 130.967232 223.451839 
L 130.967232 220.618751 
L 131.572989 220.618751 
L 131.572989 219.060552 
L 132.158881 219.060552 
L 132.158881 217.219045 
L 132.726171 217.219045 
L 132.726171 216.510773 
L 133.276002 216.510773 
L 133.276002 214.244302 
L 133.809418 214.244302 
L 133.809418 213.252721 
L 134.327371 213.252721 
L 134.327371 212.827758 
L 134.830731 212.827758 
L 134.830731 211.694522 
L 135.3203 211.694522 
L 135.3203 210.98625 
L 135.796811 210.98625 
L 135.796811 210.419632 
L 136.260944 210.419632 
L 136.260944 209.853015 
L 137.154536 209.853015 
L 137.154536 209.428051 
L 137.585114 209.428051 
L 137.585114 208.578125 
L 138.005559 208.578125 
L 138.005559 207.44489 
L 138.817886 207.44489 
L 138.817886 207.303235 
L 139.210608 207.303235 
L 139.210608 207.161581 
L 139.594883 207.161581 
L 139.594883 206.594963 
L 140.878274 206.594963 
L 140.878274 206.453309 
L 141.741636 206.453309 
L 141.741636 206.311654 
L 142.075629 206.311654 
L 142.075629 205.745036 
L 142.403494 205.745036 
L 142.403494 205.461728 
L 142.72545 205.461728 
L 142.72545 205.178419 
L 143.041708 205.178419 
L 143.041708 204.753455 
L 143.505841 204.753455 
L 143.505841 204.611801 
L 143.808698 204.611801 
L 143.808698 204.328492 
L 143.958223 204.328492 
L 143.958223 204.186838 
L 144.399433 204.186838 
L 144.399433 203.903529 
L 145.388435 203.903529 
L 145.388435 203.761875 
L 145.525356 203.761875 
L 145.525356 202.770294 
L 145.796091 202.770294 
L 145.796091 202.486985 
L 145.929935 202.486985 
L 145.929935 201.495404 
L 146.062784 201.495404 
L 146.062784 200.787132 
L 146.325555 200.787132 
L 146.325555 200.503823 
L 146.584518 200.503823 
L 146.584518 200.362168 
L 146.839781 200.362168 
L 146.839781 200.07886 
L 146.966058 200.07886 
L 146.966058 199.228933 
L 147.091449 199.228933 
L 147.091449 198.945624 
L 147.215966 198.945624 
L 147.215966 198.662315 
L 147.462426 198.662315 
L 147.462426 198.095698 
L 147.584393 198.095698 
L 147.584393 197.812389 
L 147.825858 197.812389 
L 147.825858 197.387425 
L 147.945378 197.387425 
L 147.945378 196.820808 
L 148.064103 196.820808 
L 148.064103 195.687572 
L 148.299213 195.687572 
L 148.299213 195.404264 
L 148.415618 195.404264 
L 148.415618 195.262609 
L 148.53127 195.262609 
L 148.53127 194.695991 
L 148.760352 194.695991 
L 148.760352 193.846065 
L 148.8738 193.846065 
L 148.8738 193.70441 
L 148.986533 193.70441 
L 148.986533 193.562756 
L 149.098559 193.562756 
L 149.098559 192.712829 
L 149.209888 192.712829 
L 149.320526 192.004557 
L 149.53977 192.004557 
L 149.648391 191.012976 
L 149.863672 191.012976 
L 149.863672 190.446359 
L 150.07639 190.446359 
L 150.181807 190.021395 
L 150.286606 190.021395 
L 150.286606 189.454778 
L 150.494377 189.454778 
L 150.494377 189.029814 
L 150.69976 189.029814 
L 150.69976 188.038234 
L 150.902809 188.038234 
L 151.003475 187.754925 
L 151.103576 187.754925 
L 151.103576 186.763344 
L 151.302113 186.763344 
L 151.302113 186.621689 
L 151.498468 186.621689 
L 151.498468 185.630108 
L 151.692688 185.630108 
L 151.692688 185.488454 
L 151.884821 185.488454 
L 151.884821 185.346799 
L 152.074909 185.346799 
L 152.074909 185.205145 
L 152.262996 185.205145 
L 152.262996 184.780182 
L 152.449124 184.780182 
L 152.449124 183.930255 
L 152.633333 183.930255 
L 152.633333 183.505292 
L 152.815662 183.505292 
L 152.815662 183.363638 
L 152.99615 183.363638 
L 152.99615 182.938674 
L 153.174832 182.938674 
L 153.174832 182.513711 
L 153.351746 182.513711 
L 153.351746 181.663784 
L 153.526925 181.663784 
L 153.526925 180.672203 
L 154.042387 180.672203 
L 154.042387 178.547387 
L 154.377948 178.547387 
L 154.377948 177.839115 
L 154.707324 177.839115 
L 154.707324 177.130843 
L 154.869762 177.130843 
L 154.869762 176.280916 
L 155.030737 176.280916 
L 155.030737 175.714299 
L 155.348401 175.714299 
L 155.426942 174.722718 
L 155.582997 174.722718 
L 155.582997 174.581063 
L 155.814552 174.581063 
L 155.814552 173.589482 
L 155.967272 173.589482 
L 155.967272 173.306173 
L 156.417753 173.306173 
L 156.491741 171.747975 
L 157.072869 171.747975 
L 157.144199 170.473085 
L 157.704813 170.473085 
L 157.773669 169.906467 
L 158.775882 169.906467 
L 158.84074 169.056541 
L 158.969752 169.056541 
L 158.969752 168.631577 
L 159.351292 168.631577 
L 159.351292 167.498342 
L 159.724855 167.498342 
L 159.724855 166.931724 
L 159.84766 166.931724 
L 159.84766 166.506761 
L 160.211092 166.506761 
L 160.211092 165.798489 
L 160.330612 165.798489 
L 160.330612 164.665254 
L 160.449337 164.665254 
L 160.449337 163.956982 
L 160.567279 163.956982 
L 160.625959 163.248709 
L 160.684447 163.248709 
L 160.684447 163.107055 
L 160.800853 163.107055 
L 160.800853 162.965401 
L 161.031412 162.965401 
L 161.031412 162.398783 
L 161.259034 162.398783 
L 161.259034 162.257128 
L 161.371767 162.257128 
L 161.371767 160.982239 
L 161.595122 160.982239 
L 161.705761 158.007496 
L 161.815719 158.007496 
L 161.925004 155.174407 
L 162.033625 155.174407 
L 162.087689 154.60779 
L 162.248906 154.60779 
L 162.248906 153.899517 
L 162.461624 153.899517 
L 162.461624 153.474554 
L 162.619517 153.474554 
L 162.619517 152.907936 
L 162.776028 152.907936 
L 162.879611 151.916356 
L 162.931179 151.916356 
L 162.982598 151.066429 
L 163.388709 151.066429 
L 163.43883 149.50823 
L 163.588354 149.50823 
L 163.588354 149.224921 
L 163.785794 149.224921 
L 163.785794 148.941613 
L 164.365352 148.941613 
L 164.460143 148.233341 
L 164.554434 148.233341 
L 164.554434 148.091686 
L 164.741536 148.091686 
L 164.834358 147.100105 
L 165.018567 147.100105 
L 165.109964 146.391833 
L 165.200896 146.391833 
L 165.200896 146.250179 
L 165.648742 146.250179 
L 165.73698 144.550325 
L 165.824784 144.550325 
L 165.824784 144.125362 
L 166.214649 144.125362 
L 166.300143 143.133781 
L 166.469912 143.133781 
L 166.469912 142.425509 
L 166.596189 142.425509 
L 166.596189 141.433928 
L 166.72158 141.433928 
L 166.804688 140.442347 
L 166.969752 140.442347 
L 167.051716 139.025803 
L 167.133306 139.025803 
L 167.214525 138.60084 
L 167.375863 138.60084 
L 167.45599 137.609259 
L 167.495918 137.609259 
L 167.495918 136.617678 
L 167.615172 136.617678 
L 167.694235 135.767751 
L 167.772949 135.767751 
L 167.772949 134.917825 
L 168.161402 134.917825 
L 168.161402 134.351207 
L 168.314449 134.351207 
L 168.314449 133.784589 
L 168.42838 133.784589 
L 168.503932 132.226391 
L 168.541589 132.226391 
L 168.579166 131.23481 
L 168.654085 131.23481 
L 168.691427 130.384883 
L 170.261693 130.384883 
L 170.261693 130.243229 
L 170.53294 130.243229 
L 170.53294 130.101574 
L 170.667036 130.101574 
L 170.667036 129.818265 
L 170.800132 129.818265 
L 170.866311 129.393302 
L 171.258314 129.393302 
L 171.258314 129.251648 
L 171.610249 129.251648 
L 171.610249 128.401721 
L 171.736526 128.401721 
L 171.799331 126.843523 
L 171.893127 126.843523 
L 171.986434 125.002015 
L 172.171597 125.002015 
L 172.171597 124.718706 
L 172.293982 124.718706 
L 172.293982 124.010434 
L 172.775307 124.010434 
L 172.775307 123.727125 
L 172.89364 123.727125 
L 172.952513 123.160508 
L 173.011193 123.160508 
L 173.069682 122.027272 
L 173.244006 122.027272 
L 173.301738 121.460654 
L 173.416646 121.460654 
L 173.473824 120.752382 
L 173.587634 120.752382 
L 173.587634 120.04411 
L 173.700724 120.04411 
L 173.757002 119.194184 
L 173.841087 119.194184 
L 173.841087 118.627566 
L 174.090995 118.627566 
L 174.146058 118.344257 
L 174.255679 118.344257 
L 174.282979 116.50275 
L 174.472923 116.50275 
L 174.580563 115.22786 
L 175.109244 115.22786 
L 175.109244 115.086205 
L 175.393486 115.086205 
L 175.393486 114.094624 
L 175.521207 114.094624 
L 175.521207 113.95297 
L 175.723681 113.95297 
L 175.748829 113.528007 
L 175.874045 113.528007 
L 175.948755 113.244698 
L 176.023153 113.244698 
L 176.121873 112.67808 
L 176.195556 112.67808 
L 176.195556 112.536426 
L 176.36631 112.536426 
L 176.414799 111.119882 
L 176.535449 111.119882 
L 176.535449 110.836573 
L 176.750586 110.836573 
L 176.750586 110.269955 
L 176.986628 110.269955 
L 176.986628 110.128301 
L 177.288893 110.128301 
L 177.288893 109.844992 
L 177.58613 109.844992 
L 177.58613 109.703337 
L 177.699148 109.703337 
L 177.699148 109.561683 
L 177.856183 109.561683 
L 177.856183 109.420028 
L 179.065115 109.420028 
L 179.065115 109.13672 
L 180.039981 109.13672 
L 180.039981 108.003484 
L 180.372876 108.003484 
L 180.469618 106.58694 
L 180.945621 106.58694 
L 180.945621 106.303631 
L 181.095303 106.303631 
L 181.113925 106.020322 
L 181.206747 106.020322 
L 181.243741 105.453705 
L 181.390956 105.453705 
L 181.464111 104.603778 
L 181.681796 104.603778 
L 181.681796 104.320469 
L 181.861197 104.320469 
L 181.879038 101.204072 
L 182.038813 101.204072 
L 182.144542 99.929182 
L 182.179647 99.929182 
L 182.179647 99.645873 
L 182.301972 99.645873 
L 182.388837 98.654292 
L 182.440754 98.654292 
L 182.526948 98.229329 
L 182.6981 98.229329 
L 182.783065 97.237748 
L 182.934992 97.237748 
L 182.985348 95.537895 
L 183.085637 95.537895 
L 183.168783 94.121351 
L 183.218486 94.121351 
L 183.218486 93.979696 
L 183.350355 93.979696 
L 183.38317 92.988115 
L 183.481257 92.988115 
L 183.5301 91.996534 
L 183.804378 91.996534 
L 183.900186 91.571571 
L 183.932008 91.571571 
L 184.027136 90.438336 
L 184.058733 90.438336 
L 184.15319 89.588409 
L 184.648698 89.588409 
L 184.755283 88.313519 
L 184.876321 88.313519 
L 184.966564 88.030211 
L 184.996544 88.030211 
L 184.996544 87.746902 
L 185.234591 87.746902 
L 185.234591 87.605247 
L 185.498656 87.605247 
L 185.571321 87.180284 
L 185.686972 87.180284 
L 185.744519 86.755321 
L 186.001208 86.755321 
L 186.085958 85.905394 
L 186.142236 85.905394 
L 186.170308 85.622085 
L 186.254262 85.622085 
L 186.254262 85.197122 
L 187.284879 85.197122 
L 187.284879 84.913813 
L 187.429242 84.913813 
L 187.429242 84.772159 
L 188.519408 84.772159 
L 188.605283 83.638923 
L 188.836314 83.638923 
L 188.944715 80.66418 
L 189.088235 80.66418 
L 189.088235 80.239217 
L 189.383582 80.239217 
L 189.453745 79.530945 
L 189.570074 79.530945 
L 189.570074 78.681019 
L 189.800485 78.681019 
L 189.903209 78.256055 
L 189.994025 78.256055 
L 190.016657 77.406129 
L 190.174285 77.406129 
L 190.241417 75.139658 
L 190.386008 75.139658 
L 190.40815 73.723114 
L 190.649912 73.723114 
L 190.649912 73.439805 
L 190.780416 73.439805 
L 190.866892 72.023261 
L 190.995827 72.023261 
L 191.081269 70.890025 
L 192.116191 70.890025 
L 192.116191 70.323408 
L 192.883773 70.323408 
L 192.979838 70.040099 
L 193.368394 70.040099 
L 193.368394 68.623554 
L 193.480537 68.623554 
L 193.536346 68.340246 
L 193.619734 68.340246 
L 193.702734 66.640393 
L 193.757854 66.640393 
L 193.831084 66.073775 
L 193.913111 66.073775 
L 193.931288 65.082194 
L 194.058013 65.082194 
L 194.076043 64.657231 
L 194.33546 64.657231 
L 194.33546 64.515576 
L 194.748056 64.515576 
L 194.748056 64.373922 
L 195.19371 64.373922 
L 195.19371 64.232267 
L 195.562311 64.232267 
L 195.62852 63.240686 
L 195.809339 63.240686 
L 195.809339 63.099032 
L 196.069126 63.099032 
L 196.101335 59.699326 
L 196.293381 59.699326 
L 196.341072 58.56609 
L 196.585467 58.56609 
L 196.585467 58.424436 
L 197.374288 58.424436 
L 197.44905 58.141127 
L 198.400595 58.141127 
L 198.414737 57.432855 
L 198.52747 57.432855 
L 198.583571 56.016311 
L 198.639496 56.016311 
L 198.667393 55.733002 
L 201.021087 55.733002 
L 201.069891 54.741421 
L 201.154977 54.741421 
L 201.221548 54.033149 
L 201.287871 54.033149 
L 201.287871 53.891494 
L 202.793384 53.891494 
L 202.903681 53.608186 
L 204.130589 53.608186 
L 204.227851 52.616605 
L 204.268646 52.616605 
L 204.375291 49.358553 
L 204.571674 49.358553 
L 204.571674 49.075244 
L 205.565144 49.075244 
L 205.650208 46.100501 
L 206.188892 46.100501 
L 206.188892 45.817192 
L 206.976398 45.817192 
L 207.06373 44.542302 
L 207.098544 44.542302 
L 207.12461 43.83403 
L 207.485594 43.83403 
L 207.485594 43.692376 
L 208.801557 43.692376 
L 208.89616 42.559141 
L 208.935431 42.559141 
L 208.943274 42.134177 
L 210.629526 42.134177 
L 210.722052 41.284251 
L 211.007272 41.284251 
L 211.007272 41.142596 
L 211.118709 41.142596 
L 211.208742 40.009361 
L 211.24325 40.009361 
L 211.24325 39.867707 
L 211.479554 39.867707 
L 211.479554 39.726052 
L 211.956245 39.726052 
L 212.045462 39.159434 
L 212.613163 39.159434 
L 212.721397 38.734471 
L 212.888818 38.734471 
L 212.973509 38.309508 
L 213.467305 38.309508 
L 213.467305 38.167853 
L 213.781106 38.167853 
L 213.852746 37.884545 
L 213.998125 37.884545 
L 213.998125 37.74289 
L 214.548046 37.74289 
L 214.548046 37.601236 
L 215.308148 37.601236 
L 215.313639 37.034618 
L 215.510204 37.034618 
L 215.510204 36.892964 
L 215.623876 36.892964 
L 215.623876 36.751309 
L 216.451544 36.751309 
L 216.451544 36.609655 
L 217.099066 36.609655 
L 217.158585 36.184692 
L 217.850622 36.184692 
L 217.883936 35.476419 
L 222.071561 35.476419 
L 222.071561 35.334765 
L 223.169295 35.334765 
L 223.236375 34.909802 
L 226.065861 34.909802 
L 226.065861 34.768147 
L 358.8 34.768147 
L 358.8 34.768147 
" style="fill:none;stroke:#000080;stroke-linecap:square;stroke-width:1.5;"/>
   </g>
   <g id="line2d_25">
    <defs>
     <path d="M 0 6 
C 1.591219 6 3.117479 5.367802 4.242641 4.242641 
C 5.367802 3.117479 6 1.591219 6 0 
C 6 -1.591219 5.367802 -3.117479 4.242641 -4.242641 
C 3.117479 -5.367802 1.591219 -6 0 -6 
C -1.591219 -6 -3.117479 -5.367802 -4.242641 -4.242641 
C -5.367802 -3.117479 -6 -1.591219 -6 0 
C -6 1.591219 -5.367802 3.117479 -4.242641 4.242641 
C -3.117479 5.367802 -1.591219 6 0 6 
z
" id="m6ac967e202" style="stroke:#000080;stroke-width:1.5;"/>
    </defs>
    <g>
     <use style="fill:none;stroke:#000080;stroke-width:1.5;" x="153.351746" xlink:href="#m6ac967e202" y="181.663784"/>
     <use style="fill:none;stroke:#000080;stroke-width:1.5;" x="183.38317" xlink:href="#m6ac967e202" y="92.988115"/>
     <use style="fill:none;stroke:#000080;stroke-width:1.5;" x="217.158585" xlink:href="#m6ac967e202" y="36.184692"/>
     <use style="fill:none;stroke:#000080;stroke-width:1.5;" x="226.065861" xlink:href="#m6ac967e202" y="34.768147"/>
     <use style="fill:none;stroke:#000080;stroke-width:1.5;" x="226.065861" xlink:href="#m6ac967e202" y="34.768147"/>
     <use style="fill:none;stroke:#000080;stroke-width:1.5;" x="358.8" xlink:href="#m6ac967e202" y="34.768147"/>
    </g>
   </g>
   <g id="line2d_26"/>
   <g id="line2d_27">
    <path clip-path="url(#p01edcc3e3c)" d="M 192.435096 70.323408 
" style="fill:none;stroke:#000080;stroke-linecap:square;stroke-width:1.5;"/>
    <defs>
     <path d="M -12 12 
L 12 -12 
M -12 -12 
L 12 12 
" id="m386f9ecfdb" style="stroke:#000080;stroke-width:3;"/>
    </defs>
    <g clip-path="url(#p01edcc3e3c)">
     <use style="fill:#000080;stroke:#000080;stroke-width:3;" x="192.435096" xlink:href="#m386f9ecfdb" y="70.323408"/>
    </g>
   </g>
   <g id="line2d_28">
    <defs>
     <path d="M 0 1.5 
C 0.397805 1.5 0.77937 1.341951 1.06066 1.06066 
C 1.341951 0.77937 1.5 0.397805 1.5 0 
C 1.5 -0.397805 1.341951 -0.77937 1.06066 -1.06066 
C 0.77937 -1.341951 0.397805 -1.5 0 -1.5 
C -0.397805 -1.5 -0.77937 -1.341951 -1.06066 -1.06066 
C -1.341951 -0.77937 -1.5 -0.397805 -1.5 0 
C -1.5 0.397805 -1.341951 0.77937 -1.06066 1.06066 
C -0.77937 1.341951 -0.397805 1.5 0 1.5 
z
" id="mf113595ee6" style="stroke:#ff00ff;"/>
    </defs>
    <g>
     <use style="fill:#ff00ff;stroke:#ff00ff;" x="228.577327" xlink:href="#mf113595ee6" y="34.768147"/>
     <use style="fill:#ff00ff;stroke:#ff00ff;" x="228.577327" xlink:href="#mf113595ee6" y="34.768147"/>
    </g>
   </g>
   <g id="line2d_29">
    <path d="M 58.414766 298.245375 
L 58.414766 295.695595 
L 70.8 295.695595 
L 70.8 287.19633 
L 83.185234 287.19633 
L 83.185234 286.488058 
L 90.430132 286.488058 
L 90.430132 286.346403 
L 95.570468 286.346403 
L 95.570468 283.796624 
L 99.557623 283.796624 
L 99.557623 282.805043 
L 102.815366 282.805043 
L 102.815366 280.963535 
L 105.569748 280.963535 
L 105.569748 279.263682 
L 107.955702 279.263682 
L 107.955702 278.838719 
L 110.060263 278.838719 
L 110.060263 277.988792 
L 111.942857 277.988792 
L 111.942857 275.580667 
L 113.64587 275.580667 
L 113.64587 273.455851 
L 115.2006 273.455851 
L 115.2006 271.472689 
L 116.630812 271.472689 
L 116.630812 270.197799 
L 117.954982 270.197799 
L 117.954982 265.664858 
L 119.187755 265.664858 
L 119.187755 261.840188 
L 120.340936 261.840188 
L 120.340936 258.865445 
L 121.424184 258.865445 
L 121.424184 251.782724 
L 122.445497 251.782724 
L 122.445497 249.09129 
L 123.411577 249.09129 
L 123.411577 247.533091 
L 124.328091 247.533091 
L 124.328091 242.575187 
L 125.19988 242.575187 
L 125.19988 240.733679 
L 126.031105 240.733679 
L 126.031105 236.767355 
L 126.825374 236.767355 
L 126.825374 234.925848 
L 127.585834 234.925848 
L 127.585834 232.517722 
L 128.315246 232.517722 
L 128.315246 226.709891 
L 129.016046 226.709891 
L 129.016046 225.71831 
L 129.690395 225.71831 
L 129.690395 221.185369 
L 130.340216 221.185369 
L 130.340216 217.927317 
L 130.967232 217.927317 
L 130.967232 215.094228 
L 131.572989 215.094228 
L 131.572989 212.969412 
L 132.158881 212.969412 
L 132.158881 211.127905 
L 132.726171 211.127905 
L 132.726171 209.71136 
L 133.276002 209.71136 
L 133.276002 208.43647 
L 133.809418 208.43647 
L 133.809418 208.153162 
L 134.327371 208.153162 
L 134.327371 207.586544 
L 134.830731 207.586544 
L 134.830731 205.178419 
L 135.3203 205.178419 
L 135.3203 203.478566 
L 135.796811 203.478566 
L 135.796811 203.336911 
L 136.260944 203.336911 
L 136.260944 202.486985 
L 137.154536 202.486985 
L 137.154536 200.928786 
L 137.585114 200.928786 
L 137.585114 200.787132 
L 139.015326 200.787132 
L 139.015326 200.362168 
L 139.594883 200.362168 
L 139.594883 199.795551 
L 140.156232 199.795551 
L 140.156232 199.512242 
L 142.075629 199.512242 
L 142.075629 199.370587 
L 143.197763 199.370587 
L 143.197763 199.228933 
L 144.106507 199.228933 
L 144.106507 198.945624 
L 145.525356 198.945624 
L 145.525356 198.80397 
L 145.929935 198.80397 
L 145.929935 197.954043 
L 146.584518 197.954043 
L 146.584518 197.670734 
L 146.966058 197.670734 
L 146.966058 197.387425 
L 147.339621 197.387425 
L 147.339621 197.104117 
L 147.462426 197.104117 
L 147.462426 196.679153 
L 147.825858 196.679153 
L 147.825858 196.25419 
L 147.945378 196.25419 
L 147.945378 195.970881 
L 148.064103 195.970881 
L 148.064103 194.695991 
L 148.53127 194.695991 
L 148.53127 193.279447 
L 148.646178 193.279447 
L 148.646178 192.854484 
L 149.098559 192.854484 
L 149.098559 192.004557 
L 149.430484 192.004557 
L 149.53977 191.721249 
L 149.648391 191.721249 
L 149.756356 191.296285 
L 149.863672 191.296285 
L 149.863672 191.012976 
L 150.07639 191.012976 
L 150.181807 190.446359 
L 150.286606 190.446359 
L 150.286606 190.021395 
L 150.494377 190.021395 
L 150.494377 189.738087 
L 150.69976 189.738087 
L 150.69976 189.029814 
L 150.902809 189.029814 
L 150.902809 188.604851 
L 151.103576 188.604851 
L 151.103576 187.61327 
L 151.302113 187.61327 
L 151.302113 187.471616 
L 151.498468 187.471616 
L 151.498468 186.196726 
L 151.692688 186.196726 
L 151.692688 185.913417 
L 152.074909 185.913417 
L 152.074909 184.921836 
L 152.449124 184.921836 
L 152.449124 184.496873 
L 152.633333 184.496873 
L 152.633333 182.655365 
L 152.815662 182.655365 
L 152.815662 182.513711 
L 152.99615 182.513711 
L 152.99615 182.372057 
L 153.174832 182.372057 
L 153.174832 181.947093 
L 153.351746 181.947093 
L 153.351746 181.805439 
L 153.700403 181.805439 
L 153.700403 180.813858 
L 153.872213 180.813858 
L 153.872213 179.822277 
L 154.210955 179.822277 
L 154.210955 179.114005 
L 154.543395 179.114005 
L 154.543395 178.405733 
L 154.707324 178.405733 
L 154.707324 177.555806 
L 155.426942 177.555806 
L 155.426942 177.414152 
L 155.660516 177.414152 
L 155.660516 176.989188 
L 155.891075 176.989188 
L 155.891075 176.422571 
L 156.043145 176.422571 
L 156.043145 175.997608 
L 156.491741 175.997608 
L 156.491741 175.714299 
L 156.711885 175.714299 
L 156.711885 175.572644 
L 156.857155 175.572644 
L 156.929349 173.306173 
L 157.001253 173.306173 
L 157.001253 172.597901 
L 157.144199 172.597901 
L 157.215245 171.747975 
L 157.5663 171.747975 
L 157.5663 171.464666 
L 157.704813 171.464666 
L 157.704813 170.898048 
L 158.381717 170.898048 
L 158.381717 170.756394 
L 158.514074 170.756394 
L 158.514074 170.048122 
L 158.710789 170.048122 
L 158.710789 169.764813 
L 158.969752 169.764813 
L 158.969752 169.623158 
L 159.288265 169.623158 
L 159.288265 169.056541 
L 159.6012 169.056541 
L 159.6012 168.773232 
L 159.84766 168.773232 
L 159.84766 168.631577 
L 159.969627 168.631577 
L 159.969627 168.489923 
L 160.330612 168.489923 
L 160.330612 167.639997 
L 160.449337 167.639997 
L 160.449337 167.073379 
L 160.567279 167.073379 
L 160.567279 166.648416 
L 160.684447 166.648416 
L 160.684447 165.798489 
L 160.800853 165.798489 
L 160.800853 165.656835 
L 161.259034 165.656835 
L 161.259034 165.231871 
L 161.371767 165.231871 
L 161.371767 164.523599 
L 161.595122 164.523599 
L 161.705761 161.97382 
L 161.815719 161.97382 
L 161.925004 160.840584 
L 162.14159 160.840584 
L 162.248906 158.14915 
L 162.461624 158.14915 
L 162.567041 154.324481 
L 162.67184 154.324481 
L 162.776028 151.491392 
L 163.186807 151.491392 
L 163.288043 150.924775 
L 163.388709 150.924775 
L 163.48881 149.933194 
L 163.588354 149.933194 
L 163.687347 148.941613 
L 163.883702 148.941613 
L 163.981076 146.533487 
L 164.222215 146.533487 
L 164.317767 141.858891 
L 164.365352 141.858891 
L 164.460143 140.86731 
L 165.109964 140.86731 
L 165.109964 140.725656 
L 165.470948 140.725656 
L 165.470948 140.584002 
L 165.824784 140.584002 
L 165.824784 140.442347 
L 165.955687 140.442347 
L 165.955687 140.300693 
L 166.469912 140.300693 
L 166.469912 139.87573 
L 166.679881 139.87573 
L 166.679881 139.734075 
L 166.804688 139.734075 
L 166.804688 138.884149 
L 166.928629 138.884149 
L 166.969752 137.609259 
L 167.051716 137.609259 
L 167.133306 136.617678 
L 167.173962 136.617678 
L 167.254996 135.767751 
L 167.375863 135.767751 
L 167.45599 134.77617 
L 167.615172 134.77617 
L 167.694235 133.784589 
L 167.733635 133.784589 
L 167.772949 132.934663 
L 167.851318 132.934663 
L 167.929345 131.23481 
L 168.04575 131.23481 
L 168.084384 129.95992 
L 168.390483 129.95992 
L 168.466196 128.543376 
L 168.541589 128.543376 
L 168.616665 127.976758 
L 168.691427 127.976758 
L 168.765878 127.693449 
L 168.840019 127.693449 
L 168.950658 126.560214 
L 168.987386 126.560214 
L 169.060616 125.993596 
L 169.133547 125.993596 
L 169.206182 125.285324 
L 169.314583 125.285324 
L 169.386487 124.435397 
L 169.564992 124.435397 
L 169.564992 124.293743 
L 169.74173 124.293743 
L 169.84694 123.302162 
L 169.951534 123.302162 
L 169.951534 123.160508 
L 170.295825 123.160508 
L 170.295825 122.877199 
L 171.161117 122.877199 
L 171.161117 122.735544 
L 171.387094 122.735544 
L 171.451137 122.452235 
L 171.641902 122.452235 
L 171.641902 122.310581 
L 171.861917 122.310581 
L 171.955386 121.319 
L 172.079255 121.319 
L 172.171597 120.327419 
L 172.506159 120.327419 
L 172.596326 119.052529 
L 172.86413 119.052529 
L 172.952513 118.202603 
L 172.981877 118.202603 
L 173.069682 117.494331 
L 173.359285 117.494331 
L 173.416646 116.361095 
L 173.53082 116.361095 
L 173.615974 115.22786 
L 173.644269 115.22786 
L 173.700724 114.944551 
L 173.924778 114.944551 
L 174.035761 114.094624 
L 174.255679 114.094624 
L 174.255679 113.95297 
L 174.499894 113.95297 
L 174.499894 112.819735 
L 174.660869 112.819735 
L 174.687558 111.969808 
L 174.820407 111.969808 
L 174.925979 111.261536 
L 175.004752 111.261536 
L 175.109244 108.853411 
L 175.622731 108.853411 
L 175.622731 108.145139 
L 175.874045 108.145139 
L 175.874045 107.295212 
L 176.121873 107.295212 
L 176.121873 107.011903 
L 176.268936 107.011903 
L 176.31769 106.020322 
L 176.414799 106.020322 
L 176.463157 105.737013 
L 176.703001 105.737013 
L 176.798044 105.31205 
L 177.12677 105.31205 
L 177.12677 104.745432 
L 177.311934 104.745432 
L 177.357926 103.187234 
L 177.540722 103.187234 
L 177.631423 101.912344 
L 177.676602 101.912344 
L 177.676602 101.629035 
L 177.811456 101.629035 
L 177.856183 100.4958 
L 178.427659 100.4958 
L 178.427659 100.354145 
L 179.189922 100.354145 
L 179.272645 98.795947 
L 179.436951 98.795947 
L 179.436951 98.370983 
L 179.640231 98.370983 
L 179.640231 97.662711 
L 180.039981 97.662711 
L 180.039981 97.379402 
L 180.216992 97.379402 
L 180.275608 96.246167 
L 180.372876 96.246167 
L 180.450311 93.271424 
L 180.508168 93.271424 
L 180.508168 93.12977 
L 180.623323 93.12977 
L 180.699683 92.421498 
L 180.926823 92.421498 
L 180.926823 92.279843 
L 181.188221 92.279843 
L 181.188221 91.288262 
L 181.409273 91.288262 
L 181.409273 91.146608 
L 181.573285 91.146608 
L 181.573285 91.004953 
L 181.735806 91.004953 
L 181.735806 90.863299 
L 182.319378 90.863299 
L 182.319378 90.57999 
L 182.732135 90.57999 
L 182.80001 90.013372 
L 182.934992 90.013372 
L 182.934992 89.871718 
L 184.15319 89.871718 
L 184.15319 89.730064 
L 184.371668 89.730064 
L 184.371668 87.321938 
L 185.056354 87.321938 
L 185.056354 86.188703 
L 185.205008 86.188703 
L 185.234591 85.480431 
L 185.352435 85.480431 
L 185.352435 85.338776 
L 185.484088 85.338776 
L 185.484088 84.913813 
L 185.614778 84.913813 
L 185.62924 84.063887 
L 185.773222 84.063887 
L 185.80188 82.364034 
L 185.916054 82.364034 
L 185.916054 82.080725 
L 186.057753 82.080725 
L 186.085958 81.230798 
L 188.605283 81.230798 
L 188.605283 81.089144 
L 188.800033 81.089144 
L 188.836314 80.239217 
L 188.944715 80.239217 
L 189.040523 79.247636 
L 189.100143 79.247636 
L 189.100143 78.39771 
L 189.21879 78.39771 
L 189.313143 76.839511 
L 189.395295 76.839511 
L 189.488724 75.281312 
L 189.558476 75.281312 
L 189.662596 73.439805 
L 190.877672 73.439805 
L 190.877672 72.731533 
L 191.081269 72.731533 
L 191.176906 71.881606 
L 191.208671 71.881606 
L 191.314151 70.465062 
L 191.335172 70.465062 
L 191.335172 69.473481 
L 191.502458 69.473481 
L 191.544036 69.190172 
L 191.626903 69.190172 
L 191.729949 68.340246 
L 191.791492 68.340246 
L 191.832404 67.773628 
L 192.035568 67.773628 
L 192.035568 67.631974 
L 192.156367 67.631974 
L 192.236448 65.93212 
L 192.395542 65.93212 
L 192.395542 65.082194 
L 193.922202 65.082194 
L 194.021897 63.523995 
L 194.048991 63.523995 
L 194.156956 63.099032 
L 194.165923 63.099032 
L 194.273186 61.540833 
L 194.291001 61.540833 
L 194.317689 61.257524 
L 194.529776 61.257524 
L 194.617408 60.265944 
L 194.722002 60.265944 
L 194.722002 59.699326 
L 194.860516 59.699326 
L 194.903582 58.849399 
L 195.006519 58.849399 
L 195.091849 57.291201 
L 195.142852 57.291201 
L 195.176774 56.866237 
L 195.54572 56.866237 
L 195.578886 55.874656 
L 195.710937 55.874656 
L 195.809339 54.174803 
L 195.988348 54.174803 
L 195.988348 53.183222 
L 196.133487 53.183222 
L 196.133487 53.041568 
L 196.261517 53.041568 
L 196.261517 51.908333 
L 197.538354 51.908333 
L 197.64198 50.633443 
L 197.832849 50.633443 
L 197.832849 50.208479 
L 198.604563 50.208479 
L 198.604563 49.641862 
L 198.757759 49.641862 
L 198.868355 48.791935 
L 198.882132 48.791935 
L 198.964568 47.942009 
L 199.005644 47.942009 
L 199.005644 47.800354 
L 199.148672 47.800354 
L 199.21638 46.808773 
L 199.270362 46.808773 
L 199.36444 46.242156 
L 199.391229 46.242156 
L 199.391229 45.958847 
L 200.035313 45.958847 
L 200.112609 44.825611 
L 200.151132 44.825611 
L 200.215152 43.83403 
L 201.815622 43.83403 
L 201.827305 43.267413 
L 201.955309 43.267413 
L 202.04783 42.134177 
L 202.953094 42.134177 
L 203.018765 40.717633 
L 203.095078 40.717633 
L 203.149389 39.442743 
L 203.225147 39.442743 
L 203.225147 39.301089 
L 204.314429 39.301089 
L 204.375291 38.026199 
L 204.45612 38.026199 
L 204.486336 37.317927 
L 205.326708 37.317927 
L 205.326708 37.034618 
L 205.470151 37.034618 
L 205.555667 36.468 
L 210.675849 36.468 
L 210.732698 36.043037 
L 211.184547 36.043037 
L 211.184547 35.901383 
L 211.638744 35.901383 
L 211.638744 35.759728 
L 212.565203 35.759728 
L 212.565203 35.618074 
L 214.317337 35.618074 
L 214.317337 35.476419 
L 214.487773 35.476419 
L 214.487773 35.334765 
L 216.502985 35.334765 
L 216.533779 35.051456 
L 217.879181 35.051456 
L 217.879181 34.909802 
L 228.577327 34.909802 
L 228.577327 34.768147 
L 358.8 34.768147 
L 358.8 34.768147 
" style="fill:none;stroke:#ff00ff;stroke-linecap:square;stroke-width:1.5;"/>
   </g>
   <g id="line2d_30">
    <defs>
     <path d="M -0 8.485281 
L 5.091169 0 
L 0 -8.485281 
L -5.091169 -0 
z
" id="mb60fd090f9" style="stroke:#ff00ff;stroke-linejoin:miter;stroke-width:1.5;"/>
    </defs>
    <g>
     <use style="fill:none;stroke:#ff00ff;stroke-linejoin:miter;stroke-width:1.5;" x="129.690395" xlink:href="#mb60fd090f9" y="225.71831"/>
     <use style="fill:none;stroke:#ff00ff;stroke-linejoin:miter;stroke-width:1.5;" x="163.48881" xlink:href="#mb60fd090f9" y="150.074848"/>
     <use style="fill:none;stroke:#ff00ff;stroke-linejoin:miter;stroke-width:1.5;" x="195.176774" xlink:href="#mb60fd090f9" y="57.149546"/>
     <use style="fill:none;stroke:#ff00ff;stroke-linejoin:miter;stroke-width:1.5;" x="228.577327" xlink:href="#mb60fd090f9" y="34.768147"/>
     <use style="fill:none;stroke:#ff00ff;stroke-linejoin:miter;stroke-width:1.5;" x="228.577327" xlink:href="#mb60fd090f9" y="34.768147"/>
     <use style="fill:none;stroke:#ff00ff;stroke-linejoin:miter;stroke-width:1.5;" x="358.8" xlink:href="#mb60fd090f9" y="34.768147"/>
    </g>
   </g>
   <g id="line2d_31"/>
   <g id="line2d_32">
    <path clip-path="url(#p01edcc3e3c)" d="M 210.453838 36.468 
" style="fill:none;stroke:#ff00ff;stroke-linecap:square;stroke-width:1.5;"/>
    <defs>
     <path d="M -12 12 
L 12 -12 
M -12 -12 
L 12 12 
" id="m63ca83336b" style="stroke:#ff00ff;stroke-width:3;"/>
    </defs>
    <g clip-path="url(#p01edcc3e3c)">
     <use style="fill:#ff00ff;stroke:#ff00ff;stroke-width:3;" x="210.453838" xlink:href="#m63ca83336b" y="36.468"/>
    </g>
   </g>
   <g id="line2d_33">
    <path d="M 358.8 34.768147 
L 390.48 292.97583 
" style="fill:none;stroke:#ff00ff;stroke-linecap:square;stroke-width:1.5;"/>
    <g>
     <use style="fill:none;stroke:#ff00ff;stroke-linejoin:miter;stroke-width:1.5;" x="358.8" xlink:href="#mb60fd090f9" y="34.768147"/>
     <use style="fill:none;stroke:#ff00ff;stroke-linejoin:miter;stroke-width:1.5;" x="390.48" xlink:href="#mb60fd090f9" y="292.97583"/>
    </g>
   </g>
   <g id="line2d_34">
    <path d="M 358.8 34.768147 
L 390.48 40.037692 
" style="fill:none;stroke:#000080;stroke-linecap:square;stroke-width:1.5;"/>
    <g>
     <use style="fill:none;stroke:#000080;stroke-width:1.5;" x="358.8" xlink:href="#m6ac967e202" y="34.768147"/>
     <use style="fill:none;stroke:#000080;stroke-width:1.5;" x="390.48" xlink:href="#m6ac967e202" y="40.037692"/>
    </g>
   </g>
   <g id="line2d_35">
    <path d="M 358.8 298.245375 
L 358.8 34.768147 
" style="fill:none;stroke:#000000;stroke-linecap:square;stroke-width:1.5;"/>
   </g>
   <g id="patch_3">
    <path d="M 70.8 298.245375 
L 70.8 32.133375 
" style="fill:none;stroke:#000000;stroke-linecap:square;stroke-linejoin:miter;stroke-width:0.8;"/>
   </g>
   <g id="patch_4">
    <path d="M 427.92 298.245375 
L 427.92 32.133375 
" style="fill:none;stroke:#000000;stroke-linecap:square;stroke-linejoin:miter;stroke-width:0.8;"/>
   </g>
   <g id="patch_5">
    <path d="M 70.8 298.245375 
L 427.92 298.245375 
" style="fill:none;stroke:#000000;stroke-linecap:square;stroke-linejoin:miter;stroke-width:0.8;"/>
   </g>
   <g id="patch_6">
    <path d="M 70.8 32.133375 
L 427.92 32.133375 
" style="fill:none;stroke:#000000;stroke-linecap:square;stroke-linejoin:miter;stroke-width:0.8;"/>
   </g>
   <g id="text_14">
    <!-- cobyla 1e- -->
    <defs>
     <path d="M 48.6875 27.296875 
Q 48.6875 37.203125 44.609375 42.84375 
Q 40.53125 48.484375 33.40625 48.484375 
Q 26.265625 48.484375 22.1875 42.84375 
Q 18.109375 37.203125 18.109375 27.296875 
Q 18.109375 17.390625 22.1875 11.75 
Q 26.265625 6.109375 33.40625 6.109375 
Q 40.53125 6.109375 44.609375 11.75 
Q 48.6875 17.390625 48.6875 27.296875 
z
M 18.109375 46.390625 
Q 20.953125 51.265625 25.265625 53.625 
Q 29.59375 56 35.59375 56 
Q 45.5625 56 51.78125 48.09375 
Q 58.015625 40.1875 58.015625 27.296875 
Q 58.015625 14.40625 51.78125 6.484375 
Q 45.5625 -1.421875 35.59375 -1.421875 
Q 29.59375 -1.421875 25.265625 0.953125 
Q 20.953125 3.328125 18.109375 8.203125 
L 18.109375 0 
L 9.078125 0 
L 9.078125 75.984375 
L 18.109375 75.984375 
z
" id="DejaVuSans-62"/>
     <path d="M 32.171875 -5.078125 
Q 28.375 -14.84375 24.75 -17.8125 
Q 21.140625 -20.796875 15.09375 -20.796875 
L 7.90625 -20.796875 
L 7.90625 -13.28125 
L 13.1875 -13.28125 
Q 16.890625 -13.28125 18.9375 -11.515625 
Q 21 -9.765625 23.484375 -3.21875 
L 25.09375 0.875 
L 2.984375 54.6875 
L 12.5 54.6875 
L 29.59375 11.921875 
L 46.6875 54.6875 
L 56.203125 54.6875 
z
" id="DejaVuSans-79"/>
    </defs>
    <g transform="translate(396.24 297.114893)scale(0.15 -0.15)">
     <use xlink:href="#DejaVuSans-63"/>
     <use x="54.980469" xlink:href="#DejaVuSans-6f"/>
     <use x="116.162109" xlink:href="#DejaVuSans-62"/>
     <use x="179.638672" xlink:href="#DejaVuSans-79"/>
     <use x="238.818359" xlink:href="#DejaVuSans-6c"/>
     <use x="266.601562" xlink:href="#DejaVuSans-61"/>
     <use x="327.880859" xlink:href="#DejaVuSans-20"/>
     <use x="359.667969" xlink:href="#DejaVuSans-31"/>
     <use x="423.291016" xlink:href="#DejaVuSans-65"/>
     <use x="484.814453" xlink:href="#DejaVuSans-2d"/>
    </g>
   </g>
   <g id="text_15">
    <!-- cobyla 0.0 -->
    <g transform="translate(396.24 44.176754)scale(0.15 -0.15)">
     <use xlink:href="#DejaVuSans-63"/>
     <use x="54.980469" xlink:href="#DejaVuSans-6f"/>
     <use x="116.162109" xlink:href="#DejaVuSans-62"/>
     <use x="179.638672" xlink:href="#DejaVuSans-79"/>
     <use x="238.818359" xlink:href="#DejaVuSans-6c"/>
     <use x="266.601562" xlink:href="#DejaVuSans-61"/>
     <use x="327.880859" xlink:href="#DejaVuSans-20"/>
     <use x="359.667969" xlink:href="#DejaVuSans-30"/>
     <use x="423.291016" xlink:href="#DejaVuSans-2e"/>
     <use x="455.078125" xlink:href="#DejaVuSans-30"/>
    </g>
   </g>
   <g id="text_16">
    <!-- bbob-constrained - f43-f48, 2-D -->
    <defs>
     <path d="M 40.578125 39.3125 
Q 47.65625 37.796875 51.625 33 
Q 55.609375 28.21875 55.609375 21.1875 
Q 55.609375 10.40625 48.1875 4.484375 
Q 40.765625 -1.421875 27.09375 -1.421875 
Q 22.515625 -1.421875 17.65625 -0.515625 
Q 12.796875 0.390625 7.625 2.203125 
L 7.625 11.71875 
Q 11.71875 9.328125 16.59375 8.109375 
Q 21.484375 6.890625 26.8125 6.890625 
Q 36.078125 6.890625 40.9375 10.546875 
Q 45.796875 14.203125 45.796875 21.1875 
Q 45.796875 27.640625 41.28125 31.265625 
Q 36.765625 34.90625 28.71875 34.90625 
L 20.21875 34.90625 
L 20.21875 43.015625 
L 29.109375 43.015625 
Q 36.375 43.015625 40.234375 45.921875 
Q 44.09375 48.828125 44.09375 54.296875 
Q 44.09375 59.90625 40.109375 62.90625 
Q 36.140625 65.921875 28.71875 65.921875 
Q 24.65625 65.921875 20.015625 65.03125 
Q 15.375 64.15625 9.8125 62.3125 
L 9.8125 71.09375 
Q 15.4375 72.65625 20.34375 73.4375 
Q 25.25 74.21875 29.59375 74.21875 
Q 40.828125 74.21875 47.359375 69.109375 
Q 53.90625 64.015625 53.90625 55.328125 
Q 53.90625 49.265625 50.4375 45.09375 
Q 46.96875 40.921875 40.578125 39.3125 
z
" id="DejaVuSans-33"/>
     <path d="M 11.71875 12.40625 
L 22.015625 12.40625 
L 22.015625 4 
L 14.015625 -11.625 
L 7.71875 -11.625 
L 11.71875 4 
z
" id="DejaVuSans-2c"/>
     <path d="M 19.671875 64.796875 
L 19.671875 8.109375 
L 31.59375 8.109375 
Q 46.6875 8.109375 53.6875 14.9375 
Q 60.6875 21.78125 60.6875 36.53125 
Q 60.6875 51.171875 53.6875 57.984375 
Q 46.6875 64.796875 31.59375 64.796875 
z
M 9.8125 72.90625 
L 30.078125 72.90625 
Q 51.265625 72.90625 61.171875 64.09375 
Q 71.09375 55.28125 71.09375 36.53125 
Q 71.09375 17.671875 61.125 8.828125 
Q 51.171875 0 30.078125 0 
L 9.8125 0 
z
" id="DejaVuSans-44"/>
    </defs>
    <g transform="translate(74.3712 50.114612)scale(0.1666 -0.1666)">
     <use xlink:href="#DejaVuSans-62"/>
     <use x="63.476562" xlink:href="#DejaVuSans-62"/>
     <use x="126.953125" xlink:href="#DejaVuSans-6f"/>
     <use x="188.134766" xlink:href="#DejaVuSans-62"/>
     <use x="251.611328" xlink:href="#DejaVuSans-2d"/>
     <use x="287.695312" xlink:href="#DejaVuSans-63"/>
     <use x="342.675781" xlink:href="#DejaVuSans-6f"/>
     <use x="403.857422" xlink:href="#DejaVuSans-6e"/>
     <use x="467.236328" xlink:href="#DejaVuSans-73"/>
     <use x="519.335938" xlink:href="#DejaVuSans-74"/>
     <use x="558.544922" xlink:href="#DejaVuSans-72"/>
     <use x="599.658203" xlink:href="#DejaVuSans-61"/>
     <use x="660.9375" xlink:href="#DejaVuSans-69"/>
     <use x="688.720703" xlink:href="#DejaVuSans-6e"/>
     <use x="752.099609" xlink:href="#DejaVuSans-65"/>
     <use x="813.623047" xlink:href="#DejaVuSans-64"/>
     <use x="877.099609" xlink:href="#DejaVuSans-20"/>
     <use x="908.886719" xlink:href="#DejaVuSans-2d"/>
     <use x="944.970703" xlink:href="#DejaVuSans-20"/>
     <use x="976.757812" xlink:href="#DejaVuSans-66"/>
     <use x="1011.962891" xlink:href="#DejaVuSans-34"/>
     <use x="1075.585938" xlink:href="#DejaVuSans-33"/>
     <use x="1139.208984" xlink:href="#DejaVuSans-2d"/>
     <use x="1175.292969" xlink:href="#DejaVuSans-66"/>
     <use x="1210.498047" xlink:href="#DejaVuSans-34"/>
     <use x="1274.121094" xlink:href="#DejaVuSans-38"/>
     <use x="1337.744141" xlink:href="#DejaVuSans-2c"/>
     <use x="1369.53125" xlink:href="#DejaVuSans-20"/>
     <use x="1401.318359" xlink:href="#DejaVuSans-32"/>
     <use x="1464.941406" xlink:href="#DejaVuSans-2d"/>
     <use x="1501.025391" xlink:href="#DejaVuSans-44"/>
    </g>
    <!-- 31 targets in 100..1.0e-4 -->
    <g transform="translate(74.3712 68.770168)scale(0.1666 -0.1666)">
     <use xlink:href="#DejaVuSans-33"/>
     <use x="63.623047" xlink:href="#DejaVuSans-31"/>
     <use x="127.246094" xlink:href="#DejaVuSans-20"/>
     <use x="159.033203" xlink:href="#DejaVuSans-74"/>
     <use x="198.242188" xlink:href="#DejaVuSans-61"/>
     <use x="259.521484" xlink:href="#DejaVuSans-72"/>
     <use x="300.619141" xlink:href="#DejaVuSans-67"/>
     <use x="364.095703" xlink:href="#DejaVuSans-65"/>
     <use x="425.619141" xlink:href="#DejaVuSans-74"/>
     <use x="464.828125" xlink:href="#DejaVuSans-73"/>
     <use x="516.927734" xlink:href="#DejaVuSans-20"/>
     <use x="548.714844" xlink:href="#DejaVuSans-69"/>
     <use x="576.498047" xlink:href="#DejaVuSans-6e"/>
     <use x="639.876953" xlink:href="#DejaVuSans-20"/>
     <use x="671.664062" xlink:href="#DejaVuSans-31"/>
     <use x="735.287109" xlink:href="#DejaVuSans-30"/>
     <use x="798.910156" xlink:href="#DejaVuSans-30"/>
     <use x="862.533203" xlink:href="#DejaVuSans-2e"/>
     <use x="894.320312" xlink:href="#DejaVuSans-2e"/>
     <use x="926.107422" xlink:href="#DejaVuSans-31"/>
     <use x="989.730469" xlink:href="#DejaVuSans-2e"/>
     <use x="1021.517578" xlink:href="#DejaVuSans-30"/>
     <use x="1085.140625" xlink:href="#DejaVuSans-65"/>
     <use x="1146.664062" xlink:href="#DejaVuSans-2d"/>
     <use x="1182.748047" xlink:href="#DejaVuSans-34"/>
    </g>
    <!-- 15 instances -->
    <defs>
     <path d="M 10.796875 72.90625 
L 49.515625 72.90625 
L 49.515625 64.59375 
L 19.828125 64.59375 
L 19.828125 46.734375 
Q 21.96875 47.46875 24.109375 47.828125 
Q 26.265625 48.1875 28.421875 48.1875 
Q 40.625 48.1875 47.75 41.5 
Q 54.890625 34.8125 54.890625 23.390625 
Q 54.890625 11.625 47.5625 5.09375 
Q 40.234375 -1.421875 26.90625 -1.421875 
Q 22.3125 -1.421875 17.546875 -0.640625 
Q 12.796875 0.140625 7.71875 1.703125 
L 7.71875 11.625 
Q 12.109375 9.234375 16.796875 8.0625 
Q 21.484375 6.890625 26.703125 6.890625 
Q 35.15625 6.890625 40.078125 11.328125 
Q 45.015625 15.765625 45.015625 23.390625 
Q 45.015625 31 40.078125 35.4375 
Q 35.15625 39.890625 26.703125 39.890625 
Q 22.75 39.890625 18.8125 39.015625 
Q 14.890625 38.140625 10.796875 36.28125 
z
" id="DejaVuSans-35"/>
    </defs>
    <g transform="translate(74.3712 87.425723)scale(0.1666 -0.1666)">
     <use xlink:href="#DejaVuSans-31"/>
     <use x="63.623047" xlink:href="#DejaVuSans-35"/>
     <use x="127.246094" xlink:href="#DejaVuSans-20"/>
     <use x="159.033203" xlink:href="#DejaVuSans-69"/>
     <use x="186.816406" xlink:href="#DejaVuSans-6e"/>
     <use x="250.195312" xlink:href="#DejaVuSans-73"/>
     <use x="302.294922" xlink:href="#DejaVuSans-74"/>
     <use x="341.503906" xlink:href="#DejaVuSans-61"/>
     <use x="402.783203" xlink:href="#DejaVuSans-6e"/>
     <use x="466.162109" xlink:href="#DejaVuSans-63"/>
     <use x="521.142578" xlink:href="#DejaVuSans-65"/>
     <use x="582.666016" xlink:href="#DejaVuSans-73"/>
    </g>
   </g>
   <g id="text_17">
    <!-- v2.0.361 -->
    <g style="fill:#808080;" transform="translate(227.31625 293.504568)scale(0.1 -0.1)">
     <use xlink:href="#DejaVuSans-76"/>
     <use x="59.179688" xlink:href="#DejaVuSans-32"/>
     <use x="122.802734" xlink:href="#DejaVuSans-2e"/>
     <use x="154.589844" xlink:href="#DejaVuSans-30"/>
     <use x="218.212891" xlink:href="#DejaVuSans-2e"/>
     <use x="250" xlink:href="#DejaVuSans-33"/>
     <use x="313.623047" xlink:href="#DejaVuSans-36"/>
     <use x="377.246094" xlink:href="#DejaVuSans-31"/>
    </g>
   </g>
  </g>
 </g>
 <defs>
  <clipPath id="p01edcc3e3c">
   <rect height="266.112" width="357.12" x="70.8" y="32.133375"/>
  </clipPath>
 </defs>
</svg>
