<?xml version="1.0" encoding="utf-8" standalone="no"?>
<!DOCTYPE svg PUBLIC "-//W3C//DTD SVG 1.1//EN"
  "http://www.w3.org/Graphics/SVG/1.1/DTD/svg11.dtd">
<!-- Created with matplotlib (https://matplotlib.org/) -->
<svg height="345.6pt" version="1.1" viewBox="0 0 460.8 345.6" width="460.8pt" xmlns="http://www.w3.org/2000/svg" xmlns:xlink="http://www.w3.org/1999/xlink">
 <defs>
  <style type="text/css">
*{stroke-linecap:butt;stroke-linejoin:round;}
  </style>
 </defs>
 <g id="figure_1">
  <g id="patch_1">
   <path d="M 0 345.6 
L 460.8 345.6 
L 460.8 0 
L 0 0 
z
" style="fill:#ffffff;"/>
  </g>
  <g id="axes_1">
   <g id="patch_2">
    <path d="M 0 293.76 
L 460.8 293.76 
L 460.8 3.456 
L 0 3.456 
z
" style="fill:#ffffff;"/>
   </g>
   <g id="matplotlib.axis_1">
    <g id="xtick_1">
     <g id="line2d_1">
      <path clip-path="url(#p91aecd3676)" d="M 106.146278 293.76 
L 106.146278 3.456 
" style="fill:none;stroke:#b0b0b0;stroke-linecap:square;stroke-width:0.8;"/>
     </g>
     <g id="line2d_2">
      <defs>
       <path d="M 0 0 
L 0 3.5 
" id="m788c110a74" style="stroke:#000000;stroke-width:0.8;"/>
      </defs>
      <g>
       <use style="stroke:#000000;stroke-width:0.8;" x="106.146278" xlink:href="#m788c110a74" y="293.76"/>
      </g>
     </g>
     <g id="text_1">
      <!-- -6 -->
      <defs>
       <path d="M 4.890625 31.390625 
L 31.203125 31.390625 
L 31.203125 23.390625 
L 4.890625 23.390625 
z
" id="DejaVuSans-45"/>
       <path d="M 33.015625 40.375 
Q 26.375 40.375 22.484375 35.828125 
Q 18.609375 31.296875 18.609375 23.390625 
Q 18.609375 15.53125 22.484375 10.953125 
Q 26.375 6.390625 33.015625 6.390625 
Q 39.65625 6.390625 43.53125 10.953125 
Q 47.40625 15.53125 47.40625 23.390625 
Q 47.40625 31.296875 43.53125 35.828125 
Q 39.65625 40.375 33.015625 40.375 
z
M 52.59375 71.296875 
L 52.59375 62.3125 
Q 48.875 64.0625 45.09375 64.984375 
Q 41.3125 65.921875 37.59375 65.921875 
Q 27.828125 65.921875 22.671875 59.328125 
Q 17.53125 52.734375 16.796875 39.40625 
Q 19.671875 43.65625 24.015625 45.921875 
Q 28.375 48.1875 33.59375 48.1875 
Q 44.578125 48.1875 50.953125 41.515625 
Q 57.328125 34.859375 57.328125 23.390625 
Q 57.328125 12.15625 50.6875 5.359375 
Q 44.046875 -1.421875 33.015625 -1.421875 
Q 20.359375 -1.421875 13.671875 8.265625 
Q 6.984375 17.96875 6.984375 36.375 
Q 6.984375 53.65625 15.1875 63.9375 
Q 23.390625 74.21875 37.203125 74.21875 
Q 40.921875 74.21875 44.703125 73.484375 
Q 48.484375 72.75 52.59375 71.296875 
z
" id="DejaVuSans-54"/>
      </defs>
      <g transform="translate(96.175966 315.956875)scale(0.2 -0.2)">
       <use xlink:href="#DejaVuSans-45"/>
       <use x="36.083984" xlink:href="#DejaVuSans-54"/>
      </g>
     </g>
    </g>
    <g id="xtick_2">
     <g id="line2d_3">
      <path clip-path="url(#p91aecd3676)" d="M 212.522402 293.76 
L 212.522402 3.456 
" style="fill:none;stroke:#b0b0b0;stroke-linecap:square;stroke-width:0.8;"/>
     </g>
     <g id="line2d_4">
      <g>
       <use style="stroke:#000000;stroke-width:0.8;" x="212.522402" xlink:href="#m788c110a74" y="293.76"/>
      </g>
     </g>
     <g id="text_2">
      <!-- -4 -->
      <defs>
       <path d="M 37.796875 64.3125 
L 12.890625 25.390625 
L 37.796875 25.390625 
z
M 35.203125 72.90625 
L 47.609375 72.90625 
L 47.609375 25.390625 
L 58.015625 25.390625 
L 58.015625 17.1875 
L 47.609375 17.1875 
L 47.609375 0 
L 37.796875 0 
L 37.796875 17.1875 
L 4.890625 17.1875 
L 4.890625 26.703125 
z
" id="DejaVuSans-52"/>
      </defs>
      <g transform="translate(202.55209 315.956875)scale(0.2 -0.2)">
       <use xlink:href="#DejaVuSans-45"/>
       <use x="36.083984" xlink:href="#DejaVuSans-52"/>
      </g>
     </g>
    </g>
    <g id="xtick_3">
     <g id="line2d_5">
      <path clip-path="url(#p91aecd3676)" d="M 318.898526 293.76 
L 318.898526 3.456 
" style="fill:none;stroke:#b0b0b0;stroke-linecap:square;stroke-width:0.8;"/>
     </g>
     <g id="line2d_6">
      <g>
       <use style="stroke:#000000;stroke-width:0.8;" x="318.898526" xlink:href="#m788c110a74" y="293.76"/>
      </g>
     </g>
     <g id="text_3">
      <!-- -2 -->
      <defs>
       <path d="M 19.1875 8.296875 
L 53.609375 8.296875 
L 53.609375 0 
L 7.328125 0 
L 7.328125 8.296875 
Q 12.9375 14.109375 22.625 23.890625 
Q 32.328125 33.6875 34.8125 36.53125 
Q 39.546875 41.84375 41.421875 45.53125 
Q 43.3125 49.21875 43.3125 52.78125 
Q 43.3125 58.59375 39.234375 62.25 
Q 35.15625 65.921875 28.609375 65.921875 
Q 23.96875 65.921875 18.8125 64.3125 
Q 13.671875 62.703125 7.8125 59.421875 
L 7.8125 69.390625 
Q 13.765625 71.78125 18.9375 73 
Q 24.125 74.21875 28.421875 74.21875 
Q 39.75 74.21875 46.484375 68.546875 
Q 53.21875 62.890625 53.21875 53.421875 
Q 53.21875 48.921875 51.53125 44.890625 
Q 49.859375 40.875 45.40625 35.40625 
Q 44.1875 33.984375 37.640625 27.21875 
Q 31.109375 20.453125 19.1875 8.296875 
z
" id="DejaVuSans-50"/>
      </defs>
      <g transform="translate(308.928214 315.956875)scale(0.2 -0.2)">
       <use xlink:href="#DejaVuSans-45"/>
       <use x="36.083984" xlink:href="#DejaVuSans-50"/>
      </g>
     </g>
    </g>
    <g id="xtick_4">
     <g id="line2d_7">
      <path clip-path="url(#p91aecd3676)" d="M 425.27465 293.76 
L 425.27465 3.456 
" style="fill:none;stroke:#b0b0b0;stroke-linecap:square;stroke-width:0.8;"/>
     </g>
     <g id="line2d_8">
      <g>
       <use style="stroke:#000000;stroke-width:0.8;" x="425.27465" xlink:href="#m788c110a74" y="293.76"/>
      </g>
     </g>
     <g id="text_4">
      <!-- 0 -->
      <defs>
       <path d="M 31.78125 66.40625 
Q 24.171875 66.40625 20.328125 58.90625 
Q 16.5 51.421875 16.5 36.375 
Q 16.5 21.390625 20.328125 13.890625 
Q 24.171875 6.390625 31.78125 6.390625 
Q 39.453125 6.390625 43.28125 13.890625 
Q 47.125 21.390625 47.125 36.375 
Q 47.125 51.421875 43.28125 58.90625 
Q 39.453125 66.40625 31.78125 66.40625 
z
M 31.78125 74.21875 
Q 44.046875 74.21875 50.515625 64.515625 
Q 56.984375 54.828125 56.984375 36.375 
Q 56.984375 17.96875 50.515625 8.265625 
Q 44.046875 -1.421875 31.78125 -1.421875 
Q 19.53125 -1.421875 13.0625 8.265625 
Q 6.59375 17.96875 6.59375 36.375 
Q 6.59375 54.828125 13.0625 64.515625 
Q 19.53125 74.21875 31.78125 74.21875 
z
" id="DejaVuSans-48"/>
      </defs>
      <g transform="translate(418.91215 315.956875)scale(0.2 -0.2)">
       <use xlink:href="#DejaVuSans-48"/>
      </g>
     </g>
    </g>
    <g id="text_5">
     <!-- log10 of Df -->
     <defs>
      <path d="M 9.421875 75.984375 
L 18.40625 75.984375 
L 18.40625 0 
L 9.421875 0 
z
" id="DejaVuSans-108"/>
      <path d="M 30.609375 48.390625 
Q 23.390625 48.390625 19.1875 42.75 
Q 14.984375 37.109375 14.984375 27.296875 
Q 14.984375 17.484375 19.15625 11.84375 
Q 23.34375 6.203125 30.609375 6.203125 
Q 37.796875 6.203125 41.984375 11.859375 
Q 46.1875 17.53125 46.1875 27.296875 
Q 46.1875 37.015625 41.984375 42.703125 
Q 37.796875 48.390625 30.609375 48.390625 
z
M 30.609375 56 
Q 42.328125 56 49.015625 48.375 
Q 55.71875 40.765625 55.71875 27.296875 
Q 55.71875 13.875 49.015625 6.21875 
Q 42.328125 -1.421875 30.609375 -1.421875 
Q 18.84375 -1.421875 12.171875 6.21875 
Q 5.515625 13.875 5.515625 27.296875 
Q 5.515625 40.765625 12.171875 48.375 
Q 18.84375 56 30.609375 56 
z
" id="DejaVuSans-111"/>
      <path d="M 45.40625 27.984375 
Q 45.40625 37.75 41.375 43.109375 
Q 37.359375 48.484375 30.078125 48.484375 
Q 22.859375 48.484375 18.828125 43.109375 
Q 14.796875 37.75 14.796875 27.984375 
Q 14.796875 18.265625 18.828125 12.890625 
Q 22.859375 7.515625 30.078125 7.515625 
Q 37.359375 7.515625 41.375 12.890625 
Q 45.40625 18.265625 45.40625 27.984375 
z
M 54.390625 6.78125 
Q 54.390625 -7.171875 48.1875 -13.984375 
Q 42 -20.796875 29.203125 -20.796875 
Q 24.46875 -20.796875 20.265625 -20.09375 
Q 16.0625 -19.390625 12.109375 -17.921875 
L 12.109375 -9.1875 
Q 16.0625 -11.328125 19.921875 -12.34375 
Q 23.78125 -13.375 27.78125 -13.375 
Q 36.625 -13.375 41.015625 -8.765625 
Q 45.40625 -4.15625 45.40625 5.171875 
L 45.40625 9.625 
Q 42.625 4.78125 38.28125 2.390625 
Q 33.9375 0 27.875 0 
Q 17.828125 0 11.671875 7.65625 
Q 5.515625 15.328125 5.515625 27.984375 
Q 5.515625 40.671875 11.671875 48.328125 
Q 17.828125 56 27.875 56 
Q 33.9375 56 38.28125 53.609375 
Q 42.625 51.21875 45.40625 46.390625 
L 45.40625 54.6875 
L 54.390625 54.6875 
z
" id="DejaVuSans-103"/>
      <path d="M 12.40625 8.296875 
L 28.515625 8.296875 
L 28.515625 63.921875 
L 10.984375 60.40625 
L 10.984375 69.390625 
L 28.421875 72.90625 
L 38.28125 72.90625 
L 38.28125 8.296875 
L 54.390625 8.296875 
L 54.390625 0 
L 12.40625 0 
z
" id="DejaVuSans-49"/>
      <path id="DejaVuSans-32"/>
      <path d="M 37.109375 75.984375 
L 37.109375 68.5 
L 28.515625 68.5 
Q 23.6875 68.5 21.796875 66.546875 
Q 19.921875 64.59375 19.921875 59.515625 
L 19.921875 54.6875 
L 34.71875 54.6875 
L 34.71875 47.703125 
L 19.921875 47.703125 
L 19.921875 0 
L 10.890625 0 
L 10.890625 47.703125 
L 2.296875 47.703125 
L 2.296875 54.6875 
L 10.890625 54.6875 
L 10.890625 58.5 
Q 10.890625 67.625 15.140625 71.796875 
Q 19.390625 75.984375 28.609375 75.984375 
z
" id="DejaVuSans-102"/>
      <path d="M 19.671875 64.796875 
L 19.671875 8.109375 
L 31.59375 8.109375 
Q 46.6875 8.109375 53.6875 14.9375 
Q 60.6875 21.78125 60.6875 36.53125 
Q 60.6875 51.171875 53.6875 57.984375 
Q 46.6875 64.796875 31.59375 64.796875 
z
M 9.8125 72.90625 
L 30.078125 72.90625 
Q 51.265625 72.90625 61.171875 64.09375 
Q 71.09375 55.28125 71.09375 36.53125 
Q 71.09375 17.671875 61.125 8.828125 
Q 51.171875 0 30.078125 0 
L 9.8125 0 
z
" id="DejaVuSans-68"/>
     </defs>
     <g transform="translate(175.214063 339.313125)scale(0.2 -0.2)">
      <use xlink:href="#DejaVuSans-108"/>
      <use x="27.783203" xlink:href="#DejaVuSans-111"/>
      <use x="88.964844" xlink:href="#DejaVuSans-103"/>
      <use x="152.441406" xlink:href="#DejaVuSans-49"/>
      <use x="216.064453" xlink:href="#DejaVuSans-48"/>
      <use x="279.6875" xlink:href="#DejaVuSans-32"/>
      <use x="311.474609" xlink:href="#DejaVuSans-111"/>
      <use x="372.65625" xlink:href="#DejaVuSans-102"/>
      <use x="407.861328" xlink:href="#DejaVuSans-32"/>
      <use x="439.648438" xlink:href="#DejaVuSans-68"/>
      <use x="516.650391" xlink:href="#DejaVuSans-102"/>
     </g>
    </g>
   </g>
   <g id="matplotlib.axis_2">
    <g id="ytick_1">
     <g id="line2d_9">
      <path clip-path="url(#p91aecd3676)" d="M 0 293.76 
L 460.8 293.76 
" style="fill:none;stroke:#b0b0b0;stroke-linecap:square;stroke-width:0.8;"/>
     </g>
     <g id="line2d_10">
      <defs>
       <path d="M 0 0 
L -3.5 0 
" id="md0ba09c104" style="stroke:#000000;stroke-width:0.8;"/>
      </defs>
      <g>
       <use style="stroke:#000000;stroke-width:0.8;" x="0" xlink:href="#md0ba09c104" y="293.76"/>
      </g>
     </g>
    </g>
    <g id="ytick_2">
     <g id="line2d_11">
      <path clip-path="url(#p91aecd3676)" d="M 0 236.274059 
L 460.8 236.274059 
" style="fill:none;stroke:#b0b0b0;stroke-linecap:square;stroke-width:0.8;"/>
     </g>
     <g id="line2d_12">
      <g>
       <use style="stroke:#000000;stroke-width:0.8;" x="0" xlink:href="#md0ba09c104" y="236.274059"/>
      </g>
     </g>
    </g>
    <g id="ytick_3">
     <g id="line2d_13">
      <path clip-path="url(#p91aecd3676)" d="M 0 178.788119 
L 460.8 178.788119 
" style="fill:none;stroke:#b0b0b0;stroke-linecap:square;stroke-width:0.8;"/>
     </g>
     <g id="line2d_14">
      <g>
       <use style="stroke:#000000;stroke-width:0.8;" x="0" xlink:href="#md0ba09c104" y="178.788119"/>
      </g>
     </g>
    </g>
    <g id="ytick_4">
     <g id="line2d_15">
      <path clip-path="url(#p91aecd3676)" d="M 0 121.302178 
L 460.8 121.302178 
" style="fill:none;stroke:#b0b0b0;stroke-linecap:square;stroke-width:0.8;"/>
     </g>
     <g id="line2d_16">
      <g>
       <use style="stroke:#000000;stroke-width:0.8;" x="0" xlink:href="#md0ba09c104" y="121.302178"/>
      </g>
     </g>
    </g>
    <g id="ytick_5">
     <g id="line2d_17">
      <path clip-path="url(#p91aecd3676)" d="M 0 63.816238 
L 460.8 63.816238 
" style="fill:none;stroke:#b0b0b0;stroke-linecap:square;stroke-width:0.8;"/>
     </g>
     <g id="line2d_18">
      <g>
       <use style="stroke:#000000;stroke-width:0.8;" x="0" xlink:href="#md0ba09c104" y="63.816238"/>
      </g>
     </g>
    </g>
    <g id="ytick_6">
     <g id="line2d_19">
      <path clip-path="url(#p91aecd3676)" d="M 0 6.330297 
L 460.8 6.330297 
" style="fill:none;stroke:#b0b0b0;stroke-linecap:square;stroke-width:0.8;"/>
     </g>
     <g id="line2d_20">
      <g>
       <use style="stroke:#000000;stroke-width:0.8;" x="0" xlink:href="#md0ba09c104" y="6.330297"/>
      </g>
     </g>
    </g>
   </g>
   <g id="line2d_21">
    <path clip-path="url(#p91aecd3676)" d="M 243.481093 293.76 
L 243.481093 279.388515 
L 260.308442 279.388515 
L 260.308442 265.01703 
L 261.680278 265.01703 
L 261.680278 250.645545 
L 264.309933 250.645545 
L 264.309933 236.274059 
L 264.498818 236.274059 
L 264.498818 221.902574 
L 272.593824 221.902574 
L 272.593824 207.531089 
L 273.520364 207.531089 
L 273.520364 193.159604 
L 278.638559 193.159604 
L 278.638559 178.788119 
L 287.403587 178.788119 
L 287.403587 164.416634 
L 287.903105 164.416634 
L 287.903105 150.045149 
L 289.256738 150.045149 
L 289.256738 135.673663 
L 292.124459 135.673663 
L 292.124459 121.302178 
L 298.306239 121.302178 
L 298.306239 106.930693 
L 308.990658 106.930693 
L 308.990658 92.559208 
L 309.589393 92.559208 
L 309.589393 78.187723 
L 309.625628 78.187723 
L 309.625628 63.816238 
L 311.039234 63.816238 
L 311.039234 49.444752 
L 316.986989 49.444752 
L 316.986989 35.073267 
L 326.016924 35.073267 
L 326.016924 20.701782 
L 335.846932 20.701782 
L 335.846932 6.330297 
L 335.846932 6.330297 
L 335.846932 6.330297 
L 460.8 6.330297 
" style="fill:none;stroke:#ff0000;stroke-linecap:square;stroke-width:3;"/>
   </g>
   <g id="line2d_22">
    <path clip-path="url(#p91aecd3676)" d="M 401.348405 293.76 
L 401.348405 279.388515 
L 408.186543 279.388515 
L 408.186543 265.01703 
L 410.686668 265.01703 
L 410.686668 250.645545 
L 412.989916 250.645545 
L 412.989916 236.274059 
L 413.515701 236.274059 
L 413.515701 221.902574 
L 414.927344 221.902574 
L 414.927344 207.531089 
L 415.611347 207.531089 
L 415.611347 193.159604 
L 417.333212 193.159604 
L 417.333212 178.788119 
L 417.505641 178.788119 
L 417.505641 164.416634 
L 417.637447 164.416634 
L 417.637447 150.045149 
L 418.955242 150.045149 
L 418.955242 135.673663 
L 419.369602 135.673663 
L 419.369602 121.302178 
L 420.461044 121.302178 
L 420.461044 106.930693 
L 420.815654 106.930693 
L 420.815654 92.559208 
L 422.754102 92.559208 
L 422.754102 78.187723 
L 423.219834 78.187723 
L 423.219834 63.816238 
L 423.366868 63.816238 
L 423.366868 49.444752 
L 424.154362 49.444752 
L 424.154362 35.073267 
L 425.488769 35.073267 
L 425.488769 20.701782 
L 427.69025 20.701782 
L 427.69025 6.330297 
L 427.69025 6.330297 
L 427.69025 6.330297 
L 460.8 6.330297 
" style="fill:none;stroke:#00bfbf;stroke-linecap:square;stroke-width:1.5;"/>
   </g>
   <g id="line2d_23">
    <path clip-path="url(#p91aecd3676)" d="M 401.348405 293.76 
L 401.348405 279.388515 
L 408.186543 279.388515 
L 408.186543 265.01703 
L 410.686668 265.01703 
L 410.686668 250.645545 
L 412.989916 250.645545 
L 412.989916 236.274059 
L 413.515701 236.274059 
L 413.515701 221.902574 
L 414.927344 221.902574 
L 414.927344 207.531089 
L 415.611347 207.531089 
L 415.611347 193.159604 
L 417.333212 193.159604 
L 417.333212 178.788119 
L 417.505641 178.788119 
L 417.505641 164.416634 
L 417.637447 164.416634 
L 417.637447 150.045149 
L 418.261154 150.045149 
L 418.261154 135.673663 
L 418.955242 135.673663 
L 418.955242 121.302178 
L 419.369602 121.302178 
L 419.369602 106.930693 
L 420.461044 106.930693 
L 420.461044 92.559208 
L 420.815654 92.559208 
L 420.815654 78.187723 
L 423.219834 78.187723 
L 423.219834 63.816238 
L 423.366868 63.816238 
L 423.366868 49.444752 
L 424.154362 49.444752 
L 424.154362 35.073267 
L 425.488769 35.073267 
L 425.488769 20.701782 
L 427.69025 20.701782 
L 427.69025 6.330297 
L 427.69025 6.330297 
L 427.69025 6.330297 
L 460.8 6.330297 
" style="fill:none;stroke:#bf00bf;stroke-linecap:square;stroke-width:1.5;"/>
   </g>
   <g id="line2d_24">
    <path clip-path="url(#p91aecd3676)" d="M 401.348405 293.76 
L 401.348405 279.388515 
L 408.186543 279.388515 
L 408.186543 265.01703 
L 410.686668 265.01703 
L 410.686668 250.645545 
L 411.716837 250.645545 
L 411.716837 236.274059 
L 412.989916 236.274059 
L 412.989916 221.902574 
L 413.515701 221.902574 
L 413.515701 207.531089 
L 414.714007 207.531089 
L 414.714007 193.159604 
L 414.927344 193.159604 
L 414.927344 178.788119 
L 415.611347 178.788119 
L 415.611347 164.416634 
L 417.276232 164.416634 
L 417.276232 150.045149 
L 417.333212 150.045149 
L 417.333212 135.673663 
L 417.637447 135.673663 
L 417.637447 121.302178 
L 418.955242 121.302178 
L 418.955242 106.930693 
L 419.369602 106.930693 
L 419.369602 92.559208 
L 420.461044 92.559208 
L 420.461044 78.187723 
L 420.815654 78.187723 
L 420.815654 63.816238 
L 423.366868 63.816238 
L 423.366868 49.444752 
L 424.154362 49.444752 
L 424.154362 35.073267 
L 425.488769 35.073267 
L 425.488769 20.701782 
L 427.69025 20.701782 
L 427.69025 6.330297 
L 427.69025 6.330297 
L 427.69025 6.330297 
L 460.8 6.330297 
" style="fill:none;stroke:#000000;stroke-linecap:square;stroke-width:1.5;"/>
   </g>
   <g id="line2d_25">
    <path clip-path="url(#p91aecd3676)" d="M 365.757838 293.76 
L 365.757838 279.388515 
L 378.37829 279.388515 
L 378.37829 265.01703 
L 382.20274 265.01703 
L 382.20274 250.645545 
L 390.494441 250.645545 
L 390.494441 236.274059 
L 390.534548 236.274059 
L 390.534548 221.902574 
L 397.031779 221.902574 
L 397.031779 207.531089 
L 398.46132 207.531089 
L 398.46132 193.159604 
L 400.583588 193.159604 
L 400.583588 178.788119 
L 401.543623 178.788119 
L 401.543623 164.416634 
L 401.802362 164.416634 
L 401.802362 150.045149 
L 402.750573 150.045149 
L 402.750573 135.673663 
L 404.613696 135.673663 
L 404.613696 121.302178 
L 405.073122 121.302178 
L 405.073122 106.930693 
L 406.875373 106.930693 
L 406.875373 92.559208 
L 411.042991 92.559208 
L 411.042991 78.187723 
L 412.866814 78.187723 
L 412.866814 63.816238 
L 414.565479 63.816238 
L 414.565479 49.444752 
L 415.554923 49.444752 
L 415.554923 35.073267 
L 418.135933 35.073267 
L 418.135933 20.701782 
L 424.72953 20.701782 
L 424.72953 6.330297 
L 424.72953 6.330297 
L 424.72953 6.330297 
L 460.8 6.330297 
" style="fill:none;stroke:#00bfbf;stroke-linecap:square;stroke-width:1.5;"/>
   </g>
   <g id="line2d_26">
    <path clip-path="url(#p91aecd3676)" d="M 322.385822 293.76 
L 322.385822 279.388515 
L 329.346526 279.388515 
L 329.346526 265.01703 
L 329.68074 265.01703 
L 329.68074 250.645545 
L 332.096138 250.645545 
L 332.096138 236.274059 
L 336.342762 236.274059 
L 336.342762 221.902574 
L 337.455537 221.902574 
L 337.455537 207.531089 
L 348.357299 207.531089 
L 348.357299 193.159604 
L 348.757862 193.159604 
L 348.757862 178.788119 
L 350.558862 178.788119 
L 350.558862 164.416634 
L 357.735408 164.416634 
L 357.735408 150.045149 
L 358.419411 150.045149 
L 358.419411 135.673663 
L 358.948272 135.673663 
L 358.948272 121.302178 
L 360.856016 121.302178 
L 360.856016 106.930693 
L 361.016578 106.930693 
L 361.016578 92.559208 
L 361.092437 92.559208 
L 361.092437 78.187723 
L 361.922467 78.187723 
L 361.922467 63.816238 
L 364.312373 63.816238 
L 364.312373 49.444752 
L 365.718076 49.444752 
L 365.718076 35.073267 
L 366.251309 35.073267 
L 366.251309 20.701782 
L 369.142726 20.701782 
L 369.142726 6.330297 
L 369.142726 6.330297 
L 369.142726 6.330297 
L 460.8 6.330297 
" style="fill:none;stroke:#bf00bf;stroke-linecap:square;stroke-width:1.5;"/>
   </g>
   <g id="line2d_27">
    <path clip-path="url(#p91aecd3676)" d="M 275.826954 293.76 
L 275.826954 279.388515 
L 282.840381 279.388515 
L 282.840381 265.01703 
L 290.295264 265.01703 
L 290.295264 250.645545 
L 294.326118 250.645545 
L 294.326118 236.274059 
L 294.671908 236.274059 
L 294.671908 221.902574 
L 294.81178 221.902574 
L 294.81178 207.531089 
L 296.04492 207.531089 
L 296.04492 193.159604 
L 298.407187 193.159604 
L 298.407187 178.788119 
L 309.723907 178.788119 
L 309.723907 164.416634 
L 313.853261 164.416634 
L 313.853261 150.045149 
L 314.505637 150.045149 
L 314.505637 135.673663 
L 315.042033 135.673663 
L 315.042033 121.302178 
L 315.605277 121.302178 
L 315.605277 106.930693 
L 318.462799 106.930693 
L 318.462799 92.559208 
L 326.054092 92.559208 
L 326.054092 78.187723 
L 329.936573 78.187723 
L 329.936573 63.816238 
L 335.859158 63.816238 
L 335.859158 49.444752 
L 347.298814 49.444752 
L 347.298814 35.073267 
L 353.816012 35.073267 
L 353.816012 20.701782 
L 360.232288 20.701782 
L 360.232288 6.330297 
L 360.232288 6.330297 
L 360.232288 6.330297 
L 460.8 6.330297 
" style="fill:none;stroke:#000000;stroke-linecap:square;stroke-width:1.5;"/>
   </g>
   <g id="patch_3">
    <path d="M 0 293.76 
L 0 3.456 
" style="fill:none;stroke:#000000;stroke-linecap:square;stroke-linejoin:miter;stroke-width:0.8;"/>
   </g>
   <g id="patch_4">
    <path d="M 460.8 293.76 
L 460.8 3.456 
" style="fill:none;stroke:#000000;stroke-linecap:square;stroke-linejoin:miter;stroke-width:0.8;"/>
   </g>
   <g id="patch_5">
    <path d="M 0 293.76 
L 460.8 293.76 
" style="fill:none;stroke:#000000;stroke-linecap:square;stroke-linejoin:miter;stroke-width:0.8;"/>
   </g>
   <g id="patch_6">
    <path d="M 0 3.456 
L 460.8 3.456 
" style="fill:none;stroke:#000000;stroke-linecap:square;stroke-linejoin:miter;stroke-width:0.8;"/>
   </g>
   <g id="text_6">
    <!-- {f3, f4, f12, f13}, 20-D -->
    <defs>
     <path d="M 51.125 -9.28125 
L 51.125 -16.3125 
L 48.09375 -16.3125 
Q 35.9375 -16.3125 31.8125 -12.6875 
Q 27.6875 -9.078125 27.6875 1.703125 
L 27.6875 13.375 
Q 27.6875 20.75 25.046875 23.578125 
Q 22.40625 26.421875 15.484375 26.421875 
L 12.5 26.421875 
L 12.5 33.40625 
L 15.484375 33.40625 
Q 22.46875 33.40625 25.078125 36.203125 
Q 27.6875 39.015625 27.6875 46.296875 
L 27.6875 58.015625 
Q 27.6875 68.796875 31.8125 72.390625 
Q 35.9375 75.984375 48.09375 75.984375 
L 51.125 75.984375 
L 51.125 69 
L 47.796875 69 
Q 40.921875 69 38.8125 66.84375 
Q 36.71875 64.703125 36.71875 57.8125 
L 36.71875 45.703125 
Q 36.71875 38.03125 34.5 34.5625 
Q 32.28125 31.109375 26.90625 29.890625 
Q 32.328125 28.5625 34.515625 25.09375 
Q 36.71875 21.625 36.71875 14.015625 
L 36.71875 1.90625 
Q 36.71875 -4.984375 38.8125 -7.125 
Q 40.921875 -9.28125 47.796875 -9.28125 
z
" id="DejaVuSans-123"/>
     <path d="M 40.578125 39.3125 
Q 47.65625 37.796875 51.625 33 
Q 55.609375 28.21875 55.609375 21.1875 
Q 55.609375 10.40625 48.1875 4.484375 
Q 40.765625 -1.421875 27.09375 -1.421875 
Q 22.515625 -1.421875 17.65625 -0.515625 
Q 12.796875 0.390625 7.625 2.203125 
L 7.625 11.71875 
Q 11.71875 9.328125 16.59375 8.109375 
Q 21.484375 6.890625 26.8125 6.890625 
Q 36.078125 6.890625 40.9375 10.546875 
Q 45.796875 14.203125 45.796875 21.1875 
Q 45.796875 27.640625 41.28125 31.265625 
Q 36.765625 34.90625 28.71875 34.90625 
L 20.21875 34.90625 
L 20.21875 43.015625 
L 29.109375 43.015625 
Q 36.375 43.015625 40.234375 45.921875 
Q 44.09375 48.828125 44.09375 54.296875 
Q 44.09375 59.90625 40.109375 62.90625 
Q 36.140625 65.921875 28.71875 65.921875 
Q 24.65625 65.921875 20.015625 65.03125 
Q 15.375 64.15625 9.8125 62.3125 
L 9.8125 71.09375 
Q 15.4375 72.65625 20.34375 73.4375 
Q 25.25 74.21875 29.59375 74.21875 
Q 40.828125 74.21875 47.359375 69.109375 
Q 53.90625 64.015625 53.90625 55.328125 
Q 53.90625 49.265625 50.4375 45.09375 
Q 46.96875 40.921875 40.578125 39.3125 
z
" id="DejaVuSans-51"/>
     <path d="M 11.71875 12.40625 
L 22.015625 12.40625 
L 22.015625 4 
L 14.015625 -11.625 
L 7.71875 -11.625 
L 11.71875 4 
z
" id="DejaVuSans-44"/>
     <path d="M 12.5 -9.28125 
L 15.921875 -9.28125 
Q 22.75 -9.28125 24.828125 -7.171875 
Q 26.90625 -5.078125 26.90625 1.90625 
L 26.90625 14.015625 
Q 26.90625 21.625 29.09375 25.09375 
Q 31.296875 28.5625 36.71875 29.890625 
Q 31.296875 31.109375 29.09375 34.5625 
Q 26.90625 38.03125 26.90625 45.703125 
L 26.90625 57.8125 
Q 26.90625 64.75 24.828125 66.875 
Q 22.75 69 15.921875 69 
L 12.5 69 
L 12.5 75.984375 
L 15.578125 75.984375 
Q 27.734375 75.984375 31.8125 72.390625 
Q 35.890625 68.796875 35.890625 58.015625 
L 35.890625 46.296875 
Q 35.890625 39.015625 38.515625 36.203125 
Q 41.15625 33.40625 48.09375 33.40625 
L 51.125 33.40625 
L 51.125 26.421875 
L 48.09375 26.421875 
Q 41.15625 26.421875 38.515625 23.578125 
Q 35.890625 20.75 35.890625 13.375 
L 35.890625 1.703125 
Q 35.890625 -9.078125 31.8125 -12.6875 
Q 27.734375 -16.3125 15.578125 -16.3125 
L 12.5 -16.3125 
z
" id="DejaVuSans-125"/>
    </defs>
    <g transform="translate(222.705875 287.95392)scale(0.2 -0.2)">
     <use xlink:href="#DejaVuSans-123"/>
     <use x="63.623047" xlink:href="#DejaVuSans-102"/>
     <use x="98.828125" xlink:href="#DejaVuSans-51"/>
     <use x="162.451172" xlink:href="#DejaVuSans-44"/>
     <use x="194.238281" xlink:href="#DejaVuSans-32"/>
     <use x="226.025391" xlink:href="#DejaVuSans-102"/>
     <use x="261.230469" xlink:href="#DejaVuSans-52"/>
     <use x="324.853516" xlink:href="#DejaVuSans-44"/>
     <use x="356.640625" xlink:href="#DejaVuSans-32"/>
     <use x="388.427734" xlink:href="#DejaVuSans-102"/>
     <use x="423.632812" xlink:href="#DejaVuSans-49"/>
     <use x="487.255859" xlink:href="#DejaVuSans-50"/>
     <use x="550.878906" xlink:href="#DejaVuSans-44"/>
     <use x="582.666016" xlink:href="#DejaVuSans-32"/>
     <use x="614.453125" xlink:href="#DejaVuSans-102"/>
     <use x="649.658203" xlink:href="#DejaVuSans-49"/>
     <use x="713.28125" xlink:href="#DejaVuSans-51"/>
     <use x="776.904297" xlink:href="#DejaVuSans-125"/>
     <use x="840.527344" xlink:href="#DejaVuSans-44"/>
     <use x="872.314453" xlink:href="#DejaVuSans-32"/>
     <use x="904.101562" xlink:href="#DejaVuSans-50"/>
     <use x="967.724609" xlink:href="#DejaVuSans-48"/>
     <use x="1031.347656" xlink:href="#DejaVuSans-45"/>
     <use x="1067.431641" xlink:href="#DejaVuSans-68"/>
    </g>
   </g>
   <g id="text_7">
    <!-- v2.3.3.7 -->
    <defs>
     <path d="M 2.984375 54.6875 
L 12.5 54.6875 
L 29.59375 8.796875 
L 46.6875 54.6875 
L 56.203125 54.6875 
L 35.6875 0 
L 23.484375 0 
z
" id="DejaVuSans-118"/>
     <path d="M 10.6875 12.40625 
L 21 12.40625 
L 21 0 
L 10.6875 0 
z
" id="DejaVuSans-46"/>
     <path d="M 8.203125 72.90625 
L 55.078125 72.90625 
L 55.078125 68.703125 
L 28.609375 0 
L 18.3125 0 
L 43.21875 64.59375 
L 8.203125 64.59375 
z
" id="DejaVuSans-55"/>
    </defs>
    <g style="fill:#808080;" transform="translate(209.948438 288.777272)scale(0.1 -0.1)">
     <use xlink:href="#DejaVuSans-118"/>
     <use x="59.179688" xlink:href="#DejaVuSans-50"/>
     <use x="122.802734" xlink:href="#DejaVuSans-46"/>
     <use x="154.589844" xlink:href="#DejaVuSans-51"/>
     <use x="218.212891" xlink:href="#DejaVuSans-46"/>
     <use x="250" xlink:href="#DejaVuSans-51"/>
     <use x="313.623047" xlink:href="#DejaVuSans-46"/>
     <use x="345.410156" xlink:href="#DejaVuSans-55"/>
    </g>
   </g>
  </g>
 </g>
 <defs>
  <clipPath id="p91aecd3676">
   <rect height="290.304" width="460.8" x="0" y="3.456"/>
  </clipPath>
 </defs>
</svg>
