<?xml version="1.0" encoding="utf-8" standalone="no"?>
<!DOCTYPE svg PUBLIC "-//W3C//DTD SVG 1.1//EN"
  "http://www.w3.org/Graphics/SVG/1.1/DTD/svg11.dtd">
<!-- Created with matplotlib (https://matplotlib.org/) -->
<svg height="345.6pt" version="1.1" viewBox="0 0 460.8 345.6" width="460.8pt" xmlns="http://www.w3.org/2000/svg" xmlns:xlink="http://www.w3.org/1999/xlink">
 <defs>
  <style type="text/css">
*{stroke-linecap:butt;stroke-linejoin:round;}
  </style>
 </defs>
 <g id="figure_1">
  <g id="patch_1">
   <path d="M 0 345.6 
L 460.8 345.6 
L 460.8 0 
L 0 0 
z
" style="fill:#ffffff;"/>
  </g>
  <g id="axes_1">
   <g id="patch_2">
    <path d="M 57.6 298.944 
L 338.688 298.944 
L 338.688 27.648 
L 57.6 27.648 
z
" style="fill:#ffffff;"/>
   </g>
   <g id="line2d_1">
    <path d="M 41.620548 298.944 
L 41.620548 294.312795 
L 65.796525 294.312795 
L 65.796525 285.050384 
L 89.418828 285.050384 
L 89.418828 275.787974 
L 107.213174 275.787974 
L 107.213174 271.156769 
L 114.552496 271.156769 
L 114.552496 257.263153 
L 123.192626 257.263153 
L 123.192626 248.000743 
L 130.505303 248.000743 
L 130.505303 243.369538 
L 135.800036 243.369538 
L 135.800036 234.107127 
L 143.375453 234.107127 
L 143.375453 220.213512 
L 148.1808 220.213512 
L 148.1808 210.951101 
L 152.587184 210.951101 
L 152.587184 201.688691 
L 181.82611 201.688691 
L 181.82611 192.426281 
L 190.593401 192.426281 
L 190.593401 187.795075 
L 201.029108 187.795075 
L 201.029108 173.90146 
L 211.159935 173.90146 
L 211.159935 169.270255 
L 217.316913 169.270255 
L 217.316913 155.376639 
L 219.795803 155.376639 
L 219.795803 146.114229 
L 220.880269 146.114229 
L 220.880269 141.483024 
L 222.296923 141.483024 
L 222.296923 127.589408 
L 224.568713 127.589408 
L 224.568713 122.958203 
L 227.912115 122.958203 
L 227.912115 109.064587 
L 233.862791 109.064587 
L 233.862791 99.802177 
L 258.136184 99.802177 
L 258.136184 90.539766 
L 274.96079 90.539766 
L 274.96079 85.908561 
L 278.572401 85.908561 
L 278.572401 76.646151 
L 282.760206 76.646151 
L 282.760206 62.752535 
L 338.688 62.752535 
" style="fill:none;stroke:#f5deb3;stroke-linecap:square;stroke-width:4;"/>
   </g>
   <g id="line2d_2">
    <defs>
     <path d="M 0 7.778175 
L 7.778175 0 
L 0 -7.778175 
L -7.778175 0 
z
" id="m892ad5eb1e" style="stroke:#f5deb3;stroke-linejoin:miter;stroke-width:1.5;"/>
    </defs>
    <g>
     <use style="fill:#f5deb3;stroke:#f5deb3;stroke-linejoin:miter;stroke-width:1.5;" x="114.552496" xlink:href="#m892ad5eb1e" y="271.156769"/>
     <use style="fill:#f5deb3;stroke:#f5deb3;stroke-linejoin:miter;stroke-width:1.5;" x="148.1808" xlink:href="#m892ad5eb1e" y="210.951101"/>
     <use style="fill:#f5deb3;stroke:#f5deb3;stroke-linejoin:miter;stroke-width:1.5;" x="224.568713" xlink:href="#m892ad5eb1e" y="127.589408"/>
     <use style="fill:#f5deb3;stroke:#f5deb3;stroke-linejoin:miter;stroke-width:1.5;" x="278.572401" xlink:href="#m892ad5eb1e" y="85.908561"/>
     <use style="fill:#f5deb3;stroke:#f5deb3;stroke-linejoin:miter;stroke-width:1.5;" x="282.760206" xlink:href="#m892ad5eb1e" y="62.752535"/>
     <use style="fill:#f5deb3;stroke:#f5deb3;stroke-linejoin:miter;stroke-width:1.5;" x="338.688" xlink:href="#m892ad5eb1e" y="62.752535"/>
    </g>
   </g>
   <g id="line2d_3">
    <path style="fill:none;stroke:#f5deb3;stroke-linecap:square;stroke-width:4;"/>
    <g/>
   </g>
   <g id="line2d_4">
    <path d="M 338.688 62.752535 
L 369.60768 35.706297 
" style="fill:none;stroke:#f5deb3;stroke-linecap:square;stroke-width:4;"/>
    <g>
     <use style="fill:#f5deb3;stroke:#f5deb3;stroke-linejoin:miter;stroke-width:1.5;" x="338.688" xlink:href="#m892ad5eb1e" y="62.752535"/>
     <use style="fill:#f5deb3;stroke:#f5deb3;stroke-linejoin:miter;stroke-width:1.5;" x="369.60768" xlink:href="#m892ad5eb1e" y="35.706297"/>
    </g>
   </g>
   <g id="matplotlib.axis_1">
    <g id="xtick_1">
     <g id="line2d_5">
      <path clip-path="url(#p14e6585e7f)" d="M 57.6 298.944 
L 57.6 27.648 
" style="fill:none;stroke:#b0b0b0;stroke-linecap:square;stroke-width:0.8;"/>
     </g>
     <g id="line2d_6">
      <defs>
       <path d="M 0 0 
L 0 3.5 
" id="m7f1e4d7547" style="stroke:#000000;stroke-width:0.8;"/>
      </defs>
      <g>
       <use style="stroke:#000000;stroke-width:0.8;" x="57.6" xlink:href="#m7f1e4d7547" y="298.944"/>
      </g>
     </g>
     <g id="text_1">
      <!-- 0 -->
      <defs>
       <path d="M 31.78125 66.40625 
Q 24.171875 66.40625 20.328125 58.90625 
Q 16.5 51.421875 16.5 36.375 
Q 16.5 21.390625 20.328125 13.890625 
Q 24.171875 6.390625 31.78125 6.390625 
Q 39.453125 6.390625 43.28125 13.890625 
Q 47.125 21.390625 47.125 36.375 
Q 47.125 51.421875 43.28125 58.90625 
Q 39.453125 66.40625 31.78125 66.40625 
z
M 31.78125 74.21875 
Q 44.046875 74.21875 50.515625 64.515625 
Q 56.984375 54.828125 56.984375 36.375 
Q 56.984375 17.96875 50.515625 8.265625 
Q 44.046875 -1.421875 31.78125 -1.421875 
Q 19.53125 -1.421875 13.0625 8.265625 
Q 6.59375 17.96875 6.59375 36.375 
Q 6.59375 54.828125 13.0625 64.515625 
Q 19.53125 74.21875 31.78125 74.21875 
z
" id="DejaVuSans-48"/>
      </defs>
      <g transform="translate(51.2375 321.140875)scale(0.2 -0.2)">
       <use xlink:href="#DejaVuSans-48"/>
      </g>
     </g>
    </g>
    <g id="xtick_2">
     <g id="line2d_7">
      <path clip-path="url(#p14e6585e7f)" d="M 137.910857 298.944 
L 137.910857 27.648 
" style="fill:none;stroke:#b0b0b0;stroke-linecap:square;stroke-width:0.8;"/>
     </g>
     <g id="line2d_8">
      <g>
       <use style="stroke:#000000;stroke-width:0.8;" x="137.910857" xlink:href="#m7f1e4d7547" y="298.944"/>
      </g>
     </g>
     <g id="text_2">
      <!-- 2 -->
      <defs>
       <path d="M 19.1875 8.296875 
L 53.609375 8.296875 
L 53.609375 0 
L 7.328125 0 
L 7.328125 8.296875 
Q 12.9375 14.109375 22.625 23.890625 
Q 32.328125 33.6875 34.8125 36.53125 
Q 39.546875 41.84375 41.421875 45.53125 
Q 43.3125 49.21875 43.3125 52.78125 
Q 43.3125 58.59375 39.234375 62.25 
Q 35.15625 65.921875 28.609375 65.921875 
Q 23.96875 65.921875 18.8125 64.3125 
Q 13.671875 62.703125 7.8125 59.421875 
L 7.8125 69.390625 
Q 13.765625 71.78125 18.9375 73 
Q 24.125 74.21875 28.421875 74.21875 
Q 39.75 74.21875 46.484375 68.546875 
Q 53.21875 62.890625 53.21875 53.421875 
Q 53.21875 48.921875 51.53125 44.890625 
Q 49.859375 40.875 45.40625 35.40625 
Q 44.1875 33.984375 37.640625 27.21875 
Q 31.109375 20.453125 19.1875 8.296875 
z
" id="DejaVuSans-50"/>
      </defs>
      <g transform="translate(131.548357 321.140875)scale(0.2 -0.2)">
       <use xlink:href="#DejaVuSans-50"/>
      </g>
     </g>
    </g>
    <g id="xtick_3">
     <g id="line2d_9">
      <path clip-path="url(#p14e6585e7f)" d="M 218.221714 298.944 
L 218.221714 27.648 
" style="fill:none;stroke:#b0b0b0;stroke-linecap:square;stroke-width:0.8;"/>
     </g>
     <g id="line2d_10">
      <g>
       <use style="stroke:#000000;stroke-width:0.8;" x="218.221714" xlink:href="#m7f1e4d7547" y="298.944"/>
      </g>
     </g>
     <g id="text_3">
      <!-- 4 -->
      <defs>
       <path d="M 37.796875 64.3125 
L 12.890625 25.390625 
L 37.796875 25.390625 
z
M 35.203125 72.90625 
L 47.609375 72.90625 
L 47.609375 25.390625 
L 58.015625 25.390625 
L 58.015625 17.1875 
L 47.609375 17.1875 
L 47.609375 0 
L 37.796875 0 
L 37.796875 17.1875 
L 4.890625 17.1875 
L 4.890625 26.703125 
z
" id="DejaVuSans-52"/>
      </defs>
      <g transform="translate(211.859214 321.140875)scale(0.2 -0.2)">
       <use xlink:href="#DejaVuSans-52"/>
      </g>
     </g>
    </g>
    <g id="xtick_4">
     <g id="line2d_11">
      <path clip-path="url(#p14e6585e7f)" d="M 298.532571 298.944 
L 298.532571 27.648 
" style="fill:none;stroke:#b0b0b0;stroke-linecap:square;stroke-width:0.8;"/>
     </g>
     <g id="line2d_12">
      <g>
       <use style="stroke:#000000;stroke-width:0.8;" x="298.532571" xlink:href="#m7f1e4d7547" y="298.944"/>
      </g>
     </g>
     <g id="text_4">
      <!-- 6 -->
      <defs>
       <path d="M 33.015625 40.375 
Q 26.375 40.375 22.484375 35.828125 
Q 18.609375 31.296875 18.609375 23.390625 
Q 18.609375 15.53125 22.484375 10.953125 
Q 26.375 6.390625 33.015625 6.390625 
Q 39.65625 6.390625 43.53125 10.953125 
Q 47.40625 15.53125 47.40625 23.390625 
Q 47.40625 31.296875 43.53125 35.828125 
Q 39.65625 40.375 33.015625 40.375 
z
M 52.59375 71.296875 
L 52.59375 62.3125 
Q 48.875 64.0625 45.09375 64.984375 
Q 41.3125 65.921875 37.59375 65.921875 
Q 27.828125 65.921875 22.671875 59.328125 
Q 17.53125 52.734375 16.796875 39.40625 
Q 19.671875 43.65625 24.015625 45.921875 
Q 28.375 48.1875 33.59375 48.1875 
Q 44.578125 48.1875 50.953125 41.515625 
Q 57.328125 34.859375 57.328125 23.390625 
Q 57.328125 12.15625 50.6875 5.359375 
Q 44.046875 -1.421875 33.015625 -1.421875 
Q 20.359375 -1.421875 13.671875 8.265625 
Q 6.984375 17.96875 6.984375 36.375 
Q 6.984375 53.65625 15.1875 63.9375 
Q 23.390625 74.21875 37.203125 74.21875 
Q 40.921875 74.21875 44.703125 73.484375 
Q 48.484375 72.75 52.59375 71.296875 
z
" id="DejaVuSans-54"/>
      </defs>
      <g transform="translate(292.170071 321.140875)scale(0.2 -0.2)">
       <use xlink:href="#DejaVuSans-54"/>
      </g>
     </g>
    </g>
    <g id="xtick_5">
     <g id="line2d_13">
      <path clip-path="url(#p14e6585e7f)" d="M 97.755429 298.944 
L 97.755429 27.648 
" style="fill:none;stroke:#b0b0b0;stroke-linecap:square;stroke-width:0.8;"/>
     </g>
     <g id="line2d_14">
      <defs>
       <path d="M 0 0 
L 0 2 
" id="md07ae7bc5b" style="stroke:#000000;stroke-width:0.6;"/>
      </defs>
      <g>
       <use style="stroke:#000000;stroke-width:0.6;" x="97.755429" xlink:href="#md07ae7bc5b" y="298.944"/>
      </g>
     </g>
    </g>
    <g id="xtick_6">
     <g id="line2d_15">
      <path clip-path="url(#p14e6585e7f)" d="M 178.066286 298.944 
L 178.066286 27.648 
" style="fill:none;stroke:#b0b0b0;stroke-linecap:square;stroke-width:0.8;"/>
     </g>
     <g id="line2d_16">
      <g>
       <use style="stroke:#000000;stroke-width:0.6;" x="178.066286" xlink:href="#md07ae7bc5b" y="298.944"/>
      </g>
     </g>
    </g>
    <g id="xtick_7">
     <g id="line2d_17">
      <path clip-path="url(#p14e6585e7f)" d="M 258.377143 298.944 
L 258.377143 27.648 
" style="fill:none;stroke:#b0b0b0;stroke-linecap:square;stroke-width:0.8;"/>
     </g>
     <g id="line2d_18">
      <g>
       <use style="stroke:#000000;stroke-width:0.6;" x="258.377143" xlink:href="#md07ae7bc5b" y="298.944"/>
      </g>
     </g>
    </g>
    <g id="xtick_8">
     <g id="line2d_19">
      <path clip-path="url(#p14e6585e7f)" d="M 338.688 298.944 
L 338.688 27.648 
" style="fill:none;stroke:#b0b0b0;stroke-linecap:square;stroke-width:0.8;"/>
     </g>
     <g id="line2d_20">
      <g>
       <use style="stroke:#000000;stroke-width:0.6;" x="338.688" xlink:href="#md07ae7bc5b" y="298.944"/>
      </g>
     </g>
    </g>
    <g id="text_5">
     <!-- log10(# f-evals / dimension) -->
     <defs>
      <path d="M 9.421875 75.984375 
L 18.40625 75.984375 
L 18.40625 0 
L 9.421875 0 
z
" id="DejaVuSans-108"/>
      <path d="M 30.609375 48.390625 
Q 23.390625 48.390625 19.1875 42.75 
Q 14.984375 37.109375 14.984375 27.296875 
Q 14.984375 17.484375 19.15625 11.84375 
Q 23.34375 6.203125 30.609375 6.203125 
Q 37.796875 6.203125 41.984375 11.859375 
Q 46.1875 17.53125 46.1875 27.296875 
Q 46.1875 37.015625 41.984375 42.703125 
Q 37.796875 48.390625 30.609375 48.390625 
z
M 30.609375 56 
Q 42.328125 56 49.015625 48.375 
Q 55.71875 40.765625 55.71875 27.296875 
Q 55.71875 13.875 49.015625 6.21875 
Q 42.328125 -1.421875 30.609375 -1.421875 
Q 18.84375 -1.421875 12.171875 6.21875 
Q 5.515625 13.875 5.515625 27.296875 
Q 5.515625 40.765625 12.171875 48.375 
Q 18.84375 56 30.609375 56 
z
" id="DejaVuSans-111"/>
      <path d="M 45.40625 27.984375 
Q 45.40625 37.75 41.375 43.109375 
Q 37.359375 48.484375 30.078125 48.484375 
Q 22.859375 48.484375 18.828125 43.109375 
Q 14.796875 37.75 14.796875 27.984375 
Q 14.796875 18.265625 18.828125 12.890625 
Q 22.859375 7.515625 30.078125 7.515625 
Q 37.359375 7.515625 41.375 12.890625 
Q 45.40625 18.265625 45.40625 27.984375 
z
M 54.390625 6.78125 
Q 54.390625 -7.171875 48.1875 -13.984375 
Q 42 -20.796875 29.203125 -20.796875 
Q 24.46875 -20.796875 20.265625 -20.09375 
Q 16.0625 -19.390625 12.109375 -17.921875 
L 12.109375 -9.1875 
Q 16.0625 -11.328125 19.921875 -12.34375 
Q 23.78125 -13.375 27.78125 -13.375 
Q 36.625 -13.375 41.015625 -8.765625 
Q 45.40625 -4.15625 45.40625 5.171875 
L 45.40625 9.625 
Q 42.625 4.78125 38.28125 2.390625 
Q 33.9375 0 27.875 0 
Q 17.828125 0 11.671875 7.65625 
Q 5.515625 15.328125 5.515625 27.984375 
Q 5.515625 40.671875 11.671875 48.328125 
Q 17.828125 56 27.875 56 
Q 33.9375 56 38.28125 53.609375 
Q 42.625 51.21875 45.40625 46.390625 
L 45.40625 54.6875 
L 54.390625 54.6875 
z
" id="DejaVuSans-103"/>
      <path d="M 12.40625 8.296875 
L 28.515625 8.296875 
L 28.515625 63.921875 
L 10.984375 60.40625 
L 10.984375 69.390625 
L 28.421875 72.90625 
L 38.28125 72.90625 
L 38.28125 8.296875 
L 54.390625 8.296875 
L 54.390625 0 
L 12.40625 0 
z
" id="DejaVuSans-49"/>
      <path d="M 31 75.875 
Q 24.46875 64.65625 21.28125 53.65625 
Q 18.109375 42.671875 18.109375 31.390625 
Q 18.109375 20.125 21.3125 9.0625 
Q 24.515625 -2 31 -13.1875 
L 23.1875 -13.1875 
Q 15.875 -1.703125 12.234375 9.375 
Q 8.59375 20.453125 8.59375 31.390625 
Q 8.59375 42.28125 12.203125 53.3125 
Q 15.828125 64.359375 23.1875 75.875 
z
" id="DejaVuSans-40"/>
      <path d="M 51.125 44 
L 36.921875 44 
L 32.8125 27.6875 
L 47.125 27.6875 
z
M 43.796875 71.78125 
L 38.71875 51.515625 
L 52.984375 51.515625 
L 58.109375 71.78125 
L 65.921875 71.78125 
L 60.890625 51.515625 
L 76.125 51.515625 
L 76.125 44 
L 58.984375 44 
L 54.984375 27.6875 
L 70.515625 27.6875 
L 70.515625 20.21875 
L 53.078125 20.21875 
L 48 0 
L 40.1875 0 
L 45.21875 20.21875 
L 30.90625 20.21875 
L 25.875 0 
L 18.015625 0 
L 23.09375 20.21875 
L 7.71875 20.21875 
L 7.71875 27.6875 
L 24.90625 27.6875 
L 29 44 
L 13.28125 44 
L 13.28125 51.515625 
L 30.90625 51.515625 
L 35.890625 71.78125 
z
" id="DejaVuSans-35"/>
      <path id="DejaVuSans-32"/>
      <path d="M 37.109375 75.984375 
L 37.109375 68.5 
L 28.515625 68.5 
Q 23.6875 68.5 21.796875 66.546875 
Q 19.921875 64.59375 19.921875 59.515625 
L 19.921875 54.6875 
L 34.71875 54.6875 
L 34.71875 47.703125 
L 19.921875 47.703125 
L 19.921875 0 
L 10.890625 0 
L 10.890625 47.703125 
L 2.296875 47.703125 
L 2.296875 54.6875 
L 10.890625 54.6875 
L 10.890625 58.5 
Q 10.890625 67.625 15.140625 71.796875 
Q 19.390625 75.984375 28.609375 75.984375 
z
" id="DejaVuSans-102"/>
      <path d="M 4.890625 31.390625 
L 31.203125 31.390625 
L 31.203125 23.390625 
L 4.890625 23.390625 
z
" id="DejaVuSans-45"/>
      <path d="M 56.203125 29.59375 
L 56.203125 25.203125 
L 14.890625 25.203125 
Q 15.484375 15.921875 20.484375 11.0625 
Q 25.484375 6.203125 34.421875 6.203125 
Q 39.59375 6.203125 44.453125 7.46875 
Q 49.3125 8.734375 54.109375 11.28125 
L 54.109375 2.78125 
Q 49.265625 0.734375 44.1875 -0.34375 
Q 39.109375 -1.421875 33.890625 -1.421875 
Q 20.796875 -1.421875 13.15625 6.1875 
Q 5.515625 13.8125 5.515625 26.8125 
Q 5.515625 40.234375 12.765625 48.109375 
Q 20.015625 56 32.328125 56 
Q 43.359375 56 49.78125 48.890625 
Q 56.203125 41.796875 56.203125 29.59375 
z
M 47.21875 32.234375 
Q 47.125 39.59375 43.09375 43.984375 
Q 39.0625 48.390625 32.421875 48.390625 
Q 24.90625 48.390625 20.390625 44.140625 
Q 15.875 39.890625 15.1875 32.171875 
z
" id="DejaVuSans-101"/>
      <path d="M 2.984375 54.6875 
L 12.5 54.6875 
L 29.59375 8.796875 
L 46.6875 54.6875 
L 56.203125 54.6875 
L 35.6875 0 
L 23.484375 0 
z
" id="DejaVuSans-118"/>
      <path d="M 34.28125 27.484375 
Q 23.390625 27.484375 19.1875 25 
Q 14.984375 22.515625 14.984375 16.5 
Q 14.984375 11.71875 18.140625 8.90625 
Q 21.296875 6.109375 26.703125 6.109375 
Q 34.1875 6.109375 38.703125 11.40625 
Q 43.21875 16.703125 43.21875 25.484375 
L 43.21875 27.484375 
z
M 52.203125 31.203125 
L 52.203125 0 
L 43.21875 0 
L 43.21875 8.296875 
Q 40.140625 3.328125 35.546875 0.953125 
Q 30.953125 -1.421875 24.3125 -1.421875 
Q 15.921875 -1.421875 10.953125 3.296875 
Q 6 8.015625 6 15.921875 
Q 6 25.140625 12.171875 29.828125 
Q 18.359375 34.515625 30.609375 34.515625 
L 43.21875 34.515625 
L 43.21875 35.40625 
Q 43.21875 41.609375 39.140625 45 
Q 35.0625 48.390625 27.6875 48.390625 
Q 23 48.390625 18.546875 47.265625 
Q 14.109375 46.140625 10.015625 43.890625 
L 10.015625 52.203125 
Q 14.9375 54.109375 19.578125 55.046875 
Q 24.21875 56 28.609375 56 
Q 40.484375 56 46.34375 49.84375 
Q 52.203125 43.703125 52.203125 31.203125 
z
" id="DejaVuSans-97"/>
      <path d="M 44.28125 53.078125 
L 44.28125 44.578125 
Q 40.484375 46.53125 36.375 47.5 
Q 32.28125 48.484375 27.875 48.484375 
Q 21.1875 48.484375 17.84375 46.4375 
Q 14.5 44.390625 14.5 40.28125 
Q 14.5 37.15625 16.890625 35.375 
Q 19.28125 33.59375 26.515625 31.984375 
L 29.59375 31.296875 
Q 39.15625 29.25 43.1875 25.515625 
Q 47.21875 21.78125 47.21875 15.09375 
Q 47.21875 7.46875 41.1875 3.015625 
Q 35.15625 -1.421875 24.609375 -1.421875 
Q 20.21875 -1.421875 15.453125 -0.5625 
Q 10.6875 0.296875 5.421875 2 
L 5.421875 11.28125 
Q 10.40625 8.6875 15.234375 7.390625 
Q 20.0625 6.109375 24.8125 6.109375 
Q 31.15625 6.109375 34.5625 8.28125 
Q 37.984375 10.453125 37.984375 14.40625 
Q 37.984375 18.0625 35.515625 20.015625 
Q 33.0625 21.96875 24.703125 23.78125 
L 21.578125 24.515625 
Q 13.234375 26.265625 9.515625 29.90625 
Q 5.8125 33.546875 5.8125 39.890625 
Q 5.8125 47.609375 11.28125 51.796875 
Q 16.75 56 26.8125 56 
Q 31.78125 56 36.171875 55.265625 
Q 40.578125 54.546875 44.28125 53.078125 
z
" id="DejaVuSans-115"/>
      <path d="M 25.390625 72.90625 
L 33.6875 72.90625 
L 8.296875 -9.28125 
L 0 -9.28125 
z
" id="DejaVuSans-47"/>
      <path d="M 45.40625 46.390625 
L 45.40625 75.984375 
L 54.390625 75.984375 
L 54.390625 0 
L 45.40625 0 
L 45.40625 8.203125 
Q 42.578125 3.328125 38.25 0.953125 
Q 33.9375 -1.421875 27.875 -1.421875 
Q 17.96875 -1.421875 11.734375 6.484375 
Q 5.515625 14.40625 5.515625 27.296875 
Q 5.515625 40.1875 11.734375 48.09375 
Q 17.96875 56 27.875 56 
Q 33.9375 56 38.25 53.625 
Q 42.578125 51.265625 45.40625 46.390625 
z
M 14.796875 27.296875 
Q 14.796875 17.390625 18.875 11.75 
Q 22.953125 6.109375 30.078125 6.109375 
Q 37.203125 6.109375 41.296875 11.75 
Q 45.40625 17.390625 45.40625 27.296875 
Q 45.40625 37.203125 41.296875 42.84375 
Q 37.203125 48.484375 30.078125 48.484375 
Q 22.953125 48.484375 18.875 42.84375 
Q 14.796875 37.203125 14.796875 27.296875 
z
" id="DejaVuSans-100"/>
      <path d="M 9.421875 54.6875 
L 18.40625 54.6875 
L 18.40625 0 
L 9.421875 0 
z
M 9.421875 75.984375 
L 18.40625 75.984375 
L 18.40625 64.59375 
L 9.421875 64.59375 
z
" id="DejaVuSans-105"/>
      <path d="M 52 44.1875 
Q 55.375 50.25 60.0625 53.125 
Q 64.75 56 71.09375 56 
Q 79.640625 56 84.28125 50.015625 
Q 88.921875 44.046875 88.921875 33.015625 
L 88.921875 0 
L 79.890625 0 
L 79.890625 32.71875 
Q 79.890625 40.578125 77.09375 44.375 
Q 74.3125 48.1875 68.609375 48.1875 
Q 61.625 48.1875 57.5625 43.546875 
Q 53.515625 38.921875 53.515625 30.90625 
L 53.515625 0 
L 44.484375 0 
L 44.484375 32.71875 
Q 44.484375 40.625 41.703125 44.40625 
Q 38.921875 48.1875 33.109375 48.1875 
Q 26.21875 48.1875 22.15625 43.53125 
Q 18.109375 38.875 18.109375 30.90625 
L 18.109375 0 
L 9.078125 0 
L 9.078125 54.6875 
L 18.109375 54.6875 
L 18.109375 46.1875 
Q 21.1875 51.21875 25.484375 53.609375 
Q 29.78125 56 35.6875 56 
Q 41.65625 56 45.828125 52.96875 
Q 50 49.953125 52 44.1875 
z
" id="DejaVuSans-109"/>
      <path d="M 54.890625 33.015625 
L 54.890625 0 
L 45.90625 0 
L 45.90625 32.71875 
Q 45.90625 40.484375 42.875 44.328125 
Q 39.84375 48.1875 33.796875 48.1875 
Q 26.515625 48.1875 22.3125 43.546875 
Q 18.109375 38.921875 18.109375 30.90625 
L 18.109375 0 
L 9.078125 0 
L 9.078125 54.6875 
L 18.109375 54.6875 
L 18.109375 46.1875 
Q 21.34375 51.125 25.703125 53.5625 
Q 30.078125 56 35.796875 56 
Q 45.21875 56 50.046875 50.171875 
Q 54.890625 44.34375 54.890625 33.015625 
z
" id="DejaVuSans-110"/>
      <path d="M 8.015625 75.875 
L 15.828125 75.875 
Q 23.140625 64.359375 26.78125 53.3125 
Q 30.421875 42.28125 30.421875 31.390625 
Q 30.421875 20.453125 26.78125 9.375 
Q 23.140625 -1.703125 15.828125 -13.1875 
L 8.015625 -13.1875 
Q 14.5 -2 17.703125 9.0625 
Q 20.90625 20.125 20.90625 31.390625 
Q 20.90625 42.671875 17.703125 53.65625 
Q 14.5 64.65625 8.015625 75.875 
z
" id="DejaVuSans-41"/>
     </defs>
     <g transform="translate(77.303219 342.217594)scale(0.17 -0.17)">
      <use xlink:href="#DejaVuSans-108"/>
      <use x="27.783203" xlink:href="#DejaVuSans-111"/>
      <use x="88.964844" xlink:href="#DejaVuSans-103"/>
      <use x="152.441406" xlink:href="#DejaVuSans-49"/>
      <use x="216.064453" xlink:href="#DejaVuSans-48"/>
      <use x="279.6875" xlink:href="#DejaVuSans-40"/>
      <use x="318.701172" xlink:href="#DejaVuSans-35"/>
      <use x="402.490234" xlink:href="#DejaVuSans-32"/>
      <use x="434.277344" xlink:href="#DejaVuSans-102"/>
      <use x="469.404297" xlink:href="#DejaVuSans-45"/>
      <use x="505.488281" xlink:href="#DejaVuSans-101"/>
      <use x="567.011719" xlink:href="#DejaVuSans-118"/>
      <use x="626.191406" xlink:href="#DejaVuSans-97"/>
      <use x="687.470703" xlink:href="#DejaVuSans-108"/>
      <use x="715.253906" xlink:href="#DejaVuSans-115"/>
      <use x="767.353516" xlink:href="#DejaVuSans-32"/>
      <use x="799.140625" xlink:href="#DejaVuSans-47"/>
      <use x="832.832031" xlink:href="#DejaVuSans-32"/>
      <use x="864.619141" xlink:href="#DejaVuSans-100"/>
      <use x="928.095703" xlink:href="#DejaVuSans-105"/>
      <use x="955.878906" xlink:href="#DejaVuSans-109"/>
      <use x="1053.291016" xlink:href="#DejaVuSans-101"/>
      <use x="1114.814453" xlink:href="#DejaVuSans-110"/>
      <use x="1178.193359" xlink:href="#DejaVuSans-115"/>
      <use x="1230.292969" xlink:href="#DejaVuSans-105"/>
      <use x="1258.076172" xlink:href="#DejaVuSans-111"/>
      <use x="1319.257812" xlink:href="#DejaVuSans-110"/>
      <use x="1382.636719" xlink:href="#DejaVuSans-41"/>
     </g>
    </g>
   </g>
   <g id="matplotlib.axis_2">
    <g id="ytick_1">
     <g id="line2d_21">
      <path clip-path="url(#p14e6585e7f)" d="M 57.6 298.944 
L 338.688 298.944 
" style="fill:none;stroke:#b0b0b0;stroke-linecap:square;stroke-width:0.8;"/>
     </g>
     <g id="line2d_22">
      <defs>
       <path d="M 0 0 
L -3.5 0 
" id="m54a2b90da2" style="stroke:#000000;stroke-width:0.8;"/>
      </defs>
      <g>
       <use style="stroke:#000000;stroke-width:0.8;" x="57.6" xlink:href="#m54a2b90da2" y="298.944"/>
      </g>
     </g>
     <g id="text_6">
      <!-- 0.0 -->
      <defs>
       <path d="M 10.6875 12.40625 
L 21 12.40625 
L 21 0 
L 10.6875 0 
z
" id="DejaVuSans-46"/>
      </defs>
      <g transform="translate(25.155 305.02275)scale(0.16 -0.16)">
       <use xlink:href="#DejaVuSans-48"/>
       <use x="63.623047" xlink:href="#DejaVuSans-46"/>
       <use x="95.410156" xlink:href="#DejaVuSans-48"/>
      </g>
     </g>
    </g>
    <g id="ytick_2">
     <g id="line2d_23">
      <path clip-path="url(#p14e6585e7f)" d="M 57.6 245.22202 
L 338.688 245.22202 
" style="fill:none;stroke:#b0b0b0;stroke-linecap:square;stroke-width:0.8;"/>
     </g>
     <g id="line2d_24">
      <g>
       <use style="stroke:#000000;stroke-width:0.8;" x="57.6" xlink:href="#m54a2b90da2" y="245.22202"/>
      </g>
     </g>
     <g id="text_7">
      <!-- 0.2 -->
      <g transform="translate(25.155 251.30077)scale(0.16 -0.16)">
       <use xlink:href="#DejaVuSans-48"/>
       <use x="63.623047" xlink:href="#DejaVuSans-46"/>
       <use x="95.410156" xlink:href="#DejaVuSans-50"/>
      </g>
     </g>
    </g>
    <g id="ytick_3">
     <g id="line2d_25">
      <path clip-path="url(#p14e6585e7f)" d="M 57.6 191.50004 
L 338.688 191.50004 
" style="fill:none;stroke:#b0b0b0;stroke-linecap:square;stroke-width:0.8;"/>
     </g>
     <g id="line2d_26">
      <g>
       <use style="stroke:#000000;stroke-width:0.8;" x="57.6" xlink:href="#m54a2b90da2" y="191.50004"/>
      </g>
     </g>
     <g id="text_8">
      <!-- 0.4 -->
      <g transform="translate(25.155 197.57879)scale(0.16 -0.16)">
       <use xlink:href="#DejaVuSans-48"/>
       <use x="63.623047" xlink:href="#DejaVuSans-46"/>
       <use x="95.410156" xlink:href="#DejaVuSans-52"/>
      </g>
     </g>
    </g>
    <g id="ytick_4">
     <g id="line2d_27">
      <path clip-path="url(#p14e6585e7f)" d="M 57.6 137.778059 
L 338.688 137.778059 
" style="fill:none;stroke:#b0b0b0;stroke-linecap:square;stroke-width:0.8;"/>
     </g>
     <g id="line2d_28">
      <g>
       <use style="stroke:#000000;stroke-width:0.8;" x="57.6" xlink:href="#m54a2b90da2" y="137.778059"/>
      </g>
     </g>
     <g id="text_9">
      <!-- 0.6 -->
      <g transform="translate(25.155 143.856809)scale(0.16 -0.16)">
       <use xlink:href="#DejaVuSans-48"/>
       <use x="63.623047" xlink:href="#DejaVuSans-46"/>
       <use x="95.410156" xlink:href="#DejaVuSans-54"/>
      </g>
     </g>
    </g>
    <g id="ytick_5">
     <g id="line2d_29">
      <path clip-path="url(#p14e6585e7f)" d="M 57.6 84.056079 
L 338.688 84.056079 
" style="fill:none;stroke:#b0b0b0;stroke-linecap:square;stroke-width:0.8;"/>
     </g>
     <g id="line2d_30">
      <g>
       <use style="stroke:#000000;stroke-width:0.8;" x="57.6" xlink:href="#m54a2b90da2" y="84.056079"/>
      </g>
     </g>
     <g id="text_10">
      <!-- 0.8 -->
      <defs>
       <path d="M 31.78125 34.625 
Q 24.75 34.625 20.71875 30.859375 
Q 16.703125 27.09375 16.703125 20.515625 
Q 16.703125 13.921875 20.71875 10.15625 
Q 24.75 6.390625 31.78125 6.390625 
Q 38.8125 6.390625 42.859375 10.171875 
Q 46.921875 13.96875 46.921875 20.515625 
Q 46.921875 27.09375 42.890625 30.859375 
Q 38.875 34.625 31.78125 34.625 
z
M 21.921875 38.8125 
Q 15.578125 40.375 12.03125 44.71875 
Q 8.5 49.078125 8.5 55.328125 
Q 8.5 64.0625 14.71875 69.140625 
Q 20.953125 74.21875 31.78125 74.21875 
Q 42.671875 74.21875 48.875 69.140625 
Q 55.078125 64.0625 55.078125 55.328125 
Q 55.078125 49.078125 51.53125 44.71875 
Q 48 40.375 41.703125 38.8125 
Q 48.828125 37.15625 52.796875 32.3125 
Q 56.78125 27.484375 56.78125 20.515625 
Q 56.78125 9.90625 50.3125 4.234375 
Q 43.84375 -1.421875 31.78125 -1.421875 
Q 19.734375 -1.421875 13.25 4.234375 
Q 6.78125 9.90625 6.78125 20.515625 
Q 6.78125 27.484375 10.78125 32.3125 
Q 14.796875 37.15625 21.921875 38.8125 
z
M 18.3125 54.390625 
Q 18.3125 48.734375 21.84375 45.5625 
Q 25.390625 42.390625 31.78125 42.390625 
Q 38.140625 42.390625 41.71875 45.5625 
Q 45.3125 48.734375 45.3125 54.390625 
Q 45.3125 60.0625 41.71875 63.234375 
Q 38.140625 66.40625 31.78125 66.40625 
Q 25.390625 66.40625 21.84375 63.234375 
Q 18.3125 60.0625 18.3125 54.390625 
z
" id="DejaVuSans-56"/>
      </defs>
      <g transform="translate(25.155 90.134829)scale(0.16 -0.16)">
       <use xlink:href="#DejaVuSans-48"/>
       <use x="63.623047" xlink:href="#DejaVuSans-46"/>
       <use x="95.410156" xlink:href="#DejaVuSans-56"/>
      </g>
     </g>
    </g>
    <g id="ytick_6">
     <g id="line2d_31">
      <path clip-path="url(#p14e6585e7f)" d="M 57.6 30.334099 
L 338.688 30.334099 
" style="fill:none;stroke:#b0b0b0;stroke-linecap:square;stroke-width:0.8;"/>
     </g>
     <g id="line2d_32">
      <g>
       <use style="stroke:#000000;stroke-width:0.8;" x="57.6" xlink:href="#m54a2b90da2" y="30.334099"/>
      </g>
     </g>
     <g id="text_11">
      <!-- 1.0 -->
      <g transform="translate(25.155 36.412849)scale(0.16 -0.16)">
       <use xlink:href="#DejaVuSans-49"/>
       <use x="63.623047" xlink:href="#DejaVuSans-46"/>
       <use x="95.410156" xlink:href="#DejaVuSans-48"/>
      </g>
     </g>
    </g>
    <g id="text_12">
     <!-- Fraction of function,target pairs -->
     <defs>
      <path d="M 9.8125 72.90625 
L 51.703125 72.90625 
L 51.703125 64.59375 
L 19.671875 64.59375 
L 19.671875 43.109375 
L 48.578125 43.109375 
L 48.578125 34.8125 
L 19.671875 34.8125 
L 19.671875 0 
L 9.8125 0 
z
" id="DejaVuSans-70"/>
      <path d="M 41.109375 46.296875 
Q 39.59375 47.171875 37.8125 47.578125 
Q 36.03125 48 33.890625 48 
Q 26.265625 48 22.1875 43.046875 
Q 18.109375 38.09375 18.109375 28.8125 
L 18.109375 0 
L 9.078125 0 
L 9.078125 54.6875 
L 18.109375 54.6875 
L 18.109375 46.1875 
Q 20.953125 51.171875 25.484375 53.578125 
Q 30.03125 56 36.53125 56 
Q 37.453125 56 38.578125 55.875 
Q 39.703125 55.765625 41.0625 55.515625 
z
" id="DejaVuSans-114"/>
      <path d="M 48.78125 52.59375 
L 48.78125 44.1875 
Q 44.96875 46.296875 41.140625 47.34375 
Q 37.3125 48.390625 33.40625 48.390625 
Q 24.65625 48.390625 19.8125 42.84375 
Q 14.984375 37.3125 14.984375 27.296875 
Q 14.984375 17.28125 19.8125 11.734375 
Q 24.65625 6.203125 33.40625 6.203125 
Q 37.3125 6.203125 41.140625 7.25 
Q 44.96875 8.296875 48.78125 10.40625 
L 48.78125 2.09375 
Q 45.015625 0.34375 40.984375 -0.53125 
Q 36.96875 -1.421875 32.421875 -1.421875 
Q 20.0625 -1.421875 12.78125 6.34375 
Q 5.515625 14.109375 5.515625 27.296875 
Q 5.515625 40.671875 12.859375 48.328125 
Q 20.21875 56 33.015625 56 
Q 37.15625 56 41.109375 55.140625 
Q 45.0625 54.296875 48.78125 52.59375 
z
" id="DejaVuSans-99"/>
      <path d="M 18.3125 70.21875 
L 18.3125 54.6875 
L 36.8125 54.6875 
L 36.8125 47.703125 
L 18.3125 47.703125 
L 18.3125 18.015625 
Q 18.3125 11.328125 20.140625 9.421875 
Q 21.96875 7.515625 27.59375 7.515625 
L 36.8125 7.515625 
L 36.8125 0 
L 27.59375 0 
Q 17.1875 0 13.234375 3.875 
Q 9.28125 7.765625 9.28125 18.015625 
L 9.28125 47.703125 
L 2.6875 47.703125 
L 2.6875 54.6875 
L 9.28125 54.6875 
L 9.28125 70.21875 
z
" id="DejaVuSans-116"/>
      <path d="M 8.5 21.578125 
L 8.5 54.6875 
L 17.484375 54.6875 
L 17.484375 21.921875 
Q 17.484375 14.15625 20.5 10.265625 
Q 23.53125 6.390625 29.59375 6.390625 
Q 36.859375 6.390625 41.078125 11.03125 
Q 45.3125 15.671875 45.3125 23.6875 
L 45.3125 54.6875 
L 54.296875 54.6875 
L 54.296875 0 
L 45.3125 0 
L 45.3125 8.40625 
Q 42.046875 3.421875 37.71875 1 
Q 33.40625 -1.421875 27.6875 -1.421875 
Q 18.265625 -1.421875 13.375 4.4375 
Q 8.5 10.296875 8.5 21.578125 
z
M 31.109375 56 
z
" id="DejaVuSans-117"/>
      <path d="M 11.71875 12.40625 
L 22.015625 12.40625 
L 22.015625 4 
L 14.015625 -11.625 
L 7.71875 -11.625 
L 11.71875 4 
z
" id="DejaVuSans-44"/>
      <path d="M 18.109375 8.203125 
L 18.109375 -20.796875 
L 9.078125 -20.796875 
L 9.078125 54.6875 
L 18.109375 54.6875 
L 18.109375 46.390625 
Q 20.953125 51.265625 25.265625 53.625 
Q 29.59375 56 35.59375 56 
Q 45.5625 56 51.78125 48.09375 
Q 58.015625 40.1875 58.015625 27.296875 
Q 58.015625 14.40625 51.78125 6.484375 
Q 45.5625 -1.421875 35.59375 -1.421875 
Q 29.59375 -1.421875 25.265625 0.953125 
Q 20.953125 3.328125 18.109375 8.203125 
z
M 48.6875 27.296875 
Q 48.6875 37.203125 44.609375 42.84375 
Q 40.53125 48.484375 33.40625 48.484375 
Q 26.265625 48.484375 22.1875 42.84375 
Q 18.109375 37.203125 18.109375 27.296875 
Q 18.109375 17.390625 22.1875 11.75 
Q 26.265625 6.109375 33.40625 6.109375 
Q 40.53125 6.109375 44.609375 11.75 
Q 48.6875 17.390625 48.6875 27.296875 
z
" id="DejaVuSans-112"/>
     </defs>
     <g transform="translate(17.619531 298.435375)rotate(-90)scale(0.17 -0.17)">
      <use xlink:href="#DejaVuSans-70"/>
      <use x="57.410156" xlink:href="#DejaVuSans-114"/>
      <use x="98.523438" xlink:href="#DejaVuSans-97"/>
      <use x="159.802734" xlink:href="#DejaVuSans-99"/>
      <use x="214.783203" xlink:href="#DejaVuSans-116"/>
      <use x="253.992188" xlink:href="#DejaVuSans-105"/>
      <use x="281.775391" xlink:href="#DejaVuSans-111"/>
      <use x="342.957031" xlink:href="#DejaVuSans-110"/>
      <use x="406.335938" xlink:href="#DejaVuSans-32"/>
      <use x="438.123047" xlink:href="#DejaVuSans-111"/>
      <use x="499.304688" xlink:href="#DejaVuSans-102"/>
      <use x="534.509766" xlink:href="#DejaVuSans-32"/>
      <use x="566.296875" xlink:href="#DejaVuSans-102"/>
      <use x="601.501953" xlink:href="#DejaVuSans-117"/>
      <use x="664.880859" xlink:href="#DejaVuSans-110"/>
      <use x="728.259766" xlink:href="#DejaVuSans-99"/>
      <use x="783.240234" xlink:href="#DejaVuSans-116"/>
      <use x="822.449219" xlink:href="#DejaVuSans-105"/>
      <use x="850.232422" xlink:href="#DejaVuSans-111"/>
      <use x="911.414062" xlink:href="#DejaVuSans-110"/>
      <use x="974.792969" xlink:href="#DejaVuSans-44"/>
      <use x="1006.580078" xlink:href="#DejaVuSans-116"/>
      <use x="1045.789062" xlink:href="#DejaVuSans-97"/>
      <use x="1107.068359" xlink:href="#DejaVuSans-114"/>
      <use x="1148.166016" xlink:href="#DejaVuSans-103"/>
      <use x="1211.642578" xlink:href="#DejaVuSans-101"/>
      <use x="1273.166016" xlink:href="#DejaVuSans-116"/>
      <use x="1312.375" xlink:href="#DejaVuSans-32"/>
      <use x="1344.162109" xlink:href="#DejaVuSans-112"/>
      <use x="1407.638672" xlink:href="#DejaVuSans-97"/>
      <use x="1468.917969" xlink:href="#DejaVuSans-105"/>
      <use x="1496.701172" xlink:href="#DejaVuSans-114"/>
      <use x="1537.814453" xlink:href="#DejaVuSans-115"/>
     </g>
    </g>
   </g>
   <g id="line2d_33">
    <defs>
     <path d="M 0 1.5 
C 0.397805 1.5 0.77937 1.341951 1.06066 1.06066 
C 1.341951 0.77937 1.5 0.397805 1.5 0 
C 1.5 -0.397805 1.341951 -0.77937 1.06066 -1.06066 
C 0.77937 -1.341951 0.397805 -1.5 0 -1.5 
C -0.397805 -1.5 -0.77937 -1.341951 -1.06066 -1.06066 
C -1.341951 -0.77937 -1.5 -0.397805 -1.5 0 
C -1.5 0.397805 -1.341951 0.77937 -1.06066 1.06066 
C -0.77937 1.341951 -0.397805 1.5 0 1.5 
z
" id="mdf2103a3bb" style="stroke:#f5deb3;"/>
    </defs>
    <g>
     <use style="fill:#f5deb3;stroke:#f5deb3;" x="282.760206" xlink:href="#mdf2103a3bb" y="62.752535"/>
     <use style="fill:#f5deb3;stroke:#f5deb3;" x="282.760206" xlink:href="#mdf2103a3bb" y="62.752535"/>
    </g>
   </g>
   <g id="line2d_34">
    <defs>
     <path d="M 0 1.5 
C 0.397805 1.5 0.77937 1.341951 1.06066 1.06066 
C 1.341951 0.77937 1.5 0.397805 1.5 0 
C 1.5 -0.397805 1.341951 -0.77937 1.06066 -1.06066 
C 0.77937 -1.341951 0.397805 -1.5 0 -1.5 
C -0.397805 -1.5 -0.77937 -1.341951 -1.06066 -1.06066 
C -1.341951 -0.77937 -1.5 -0.397805 -1.5 0 
C -1.5 0.397805 -1.341951 0.77937 -1.06066 1.06066 
C -0.77937 1.341951 -0.397805 1.5 0 1.5 
z
" id="m2d69b3d9bd" style="stroke:#000080;"/>
    </defs>
    <g>
     <use style="fill:#000080;stroke:#000080;" x="244.555064" xlink:href="#m2d69b3d9bd" y="103.507141"/>
     <use style="fill:#000080;stroke:#000080;" x="244.555064" xlink:href="#m2d69b3d9bd" y="103.507141"/>
    </g>
   </g>
   <g id="line2d_35">
    <path d="M 29.53256 298.944 
L 29.53256 286.902867 
L 67.850577 286.902867 
L 67.850577 285.976625 
L 86.351421 285.976625 
L 86.351421 284.124143 
L 88.846997 284.124143 
L 88.846997 283.197902 
L 94.714831 283.197902 
L 94.714831 282.271661 
L 96.301313 282.271661 
L 96.301313 280.419179 
L 99.097574 280.419179 
L 99.097574 279.492938 
L 101.506816 279.492938 
L 101.506816 277.640456 
L 103.623262 277.640456 
L 103.623262 276.714215 
L 105.285403 276.714215 
L 105.285403 275.787974 
L 105.951954 275.787974 
L 105.951954 274.861733 
L 106.802819 274.861733 
L 106.802819 273.935492 
L 108.948899 273.935492 
L 108.948899 273.009251 
L 111.663381 273.009251 
L 111.663381 271.156769 
L 113.311233 271.156769 
L 113.311233 270.230528 
L 113.453595 270.230528 
L 113.453595 268.378046 
L 114.284194 268.378046 
L 114.284194 264.673082 
L 114.418861 264.673082 
L 114.418861 263.746841 
L 114.685115 263.746841 
L 114.685115 262.8206 
L 115.33349 262.8206 
L 115.33349 260.041876 
L 116.562116 260.041876 
L 116.562116 259.115635 
L 118.363901 259.115635 
L 118.363901 258.189394 
L 120.944859 258.189394 
L 120.944859 256.336912 
L 121.579085 256.336912 
L 121.579085 255.410671 
L 122.104932 255.410671 
L 122.191052 253.558189 
L 124.292765 253.558189 
L 124.292765 252.631948 
L 125.327602 252.631948 
L 125.327602 250.779466 
L 127.165014 250.779466 
L 127.165014 248.926984 
L 127.48501 248.926984 
L 127.48501 248.000743 
L 128.046609 248.000743 
L 128.046609 247.074502 
L 128.827155 247.074502 
L 128.827155 246.148261 
L 129.175952 246.148261 
L 129.175952 244.295779 
L 130.182344 244.295779 
L 130.182344 242.443297 
L 132.470242 242.443297 
L 132.470242 240.590815 
L 134.149701 240.590815 
L 134.149701 238.738333 
L 139.541262 238.738333 
L 139.541262 237.812091 
L 143.578237 237.812091 
L 143.578237 236.88585 
L 144.026061 236.88585 
L 144.026061 235.959609 
L 144.77134 235.959609 
L 144.77134 234.107127 
L 145.281568 234.107127 
L 145.281568 232.254645 
L 146.06373 232.254645 
L 146.06373 231.328404 
L 147.082371 231.328404 
L 147.082371 229.475922 
L 147.429332 229.475922 
L 147.429332 227.62344 
L 148.315765 227.62344 
L 148.315765 226.697199 
L 149.286939 226.697199 
L 149.286939 225.770958 
L 149.682079 225.770958 
L 149.682079 223.918476 
L 150.172372 223.918476 
L 150.172372 222.065994 
L 150.292822 222.065994 
L 150.309961 218.36103 
L 150.412445 218.36103 
L 150.412445 217.434789 
L 150.965587 217.434789 
L 150.965587 216.508548 
L 152.840905 216.508548 
L 152.840905 215.582307 
L 154.641235 215.582307 
L 154.641235 213.729825 
L 155.076745 213.729825 
L 155.076745 212.803583 
L 155.766741 212.803583 
L 155.766741 210.951101 
L 156.114049 210.951101 
L 156.114049 210.02486 
L 156.32159 210.02486 
L 156.32159 208.172378 
L 156.964915 208.172378 
L 157.069866 205.393655 
L 160.979921 205.393655 
L 160.979921 204.467414 
L 161.247301 204.467414 
L 161.247301 203.541173 
L 161.474555 203.541173 
L 161.528659 200.76245 
L 163.307451 200.76245 
L 163.307451 199.836209 
L 163.741046 199.836209 
L 163.741046 197.983727 
L 163.859601 197.983727 
L 163.859601 197.057486 
L 164.256762 197.057486 
L 164.256762 196.131245 
L 165.611735 196.131245 
L 165.611735 195.205004 
L 166.158729 195.205004 
L 166.158729 193.352522 
L 166.275702 193.352522 
L 166.275702 192.426281 
L 166.75593 192.426281 
L 166.75593 190.573799 
L 167.817104 190.573799 
L 167.817104 189.647558 
L 168.415645 189.647558 
L 168.415645 187.795075 
L 170.397431 187.795075 
L 170.397431 185.942593 
L 172.706485 185.942593 
L 172.706485 184.090111 
L 173.188276 184.090111 
L 173.294067 182.237629 
L 174.417279 182.237629 
L 174.417279 181.311388 
L 175.464409 181.311388 
L 175.464409 180.385147 
L 176.627328 180.385147 
L 176.627328 179.458906 
L 177.350746 179.458906 
L 177.350746 178.532665 
L 177.574607 178.532665 
L 177.574607 176.680183 
L 177.742414 176.680183 
L 177.742414 175.753942 
L 177.99989 175.753942 
L 177.99989 174.827701 
L 178.803844 174.827701 
L 178.803844 173.90146 
L 180.890556 173.90146 
L 180.890556 172.048978 
L 181.225485 172.048978 
L 181.225485 171.122737 
L 181.733085 171.122737 
L 181.733085 170.196496 
L 184.718423 170.196496 
L 184.718423 169.270255 
L 190.46025 169.270255 
L 190.567873 166.491532 
L 190.715413 166.491532 
L 190.715413 165.565291 
L 193.136527 165.565291 
L 193.136527 164.63905 
L 195.134145 164.63905 
L 195.134145 163.712808 
L 195.292026 163.712808 
L 195.292026 161.860326 
L 195.519151 161.860326 
L 195.622694 159.081603 
L 199.082924 159.081603 
L 199.082924 158.155362 
L 199.68184 158.155362 
L 199.723195 156.30288 
L 201.120477 156.30288 
L 201.151137 153.524157 
L 203.884575 153.524157 
L 203.884575 152.597916 
L 204.304838 152.597916 
L 204.366704 148.892952 
L 204.416809 148.892952 
L 204.416809 147.966711 
L 204.975078 147.966711 
L 204.975078 147.04047 
L 208.524912 147.04047 
L 208.524912 146.114229 
L 209.737097 146.114229 
L 209.737097 145.187988 
L 212.093992 145.187988 
L 212.093992 144.261747 
L 215.326254 144.261747 
L 215.382576 140.556783 
L 216.407153 140.556783 
L 216.460095 135.925577 
L 216.728886 135.925577 
L 216.805091 133.146854 
L 216.849296 133.146854 
L 216.849296 131.294372 
L 220.582465 131.294372 
L 220.582465 130.368131 
L 222.759288 130.368131 
L 222.759288 129.44189 
L 224.411673 129.44189 
L 224.411673 128.515649 
L 225.372771 128.515649 
L 225.411382 125.736926 
L 225.588768 125.736926 
L 225.588768 124.810685 
L 226.053458 124.810685 
L 226.053458 122.958203 
L 228.251553 122.958203 
L 228.251553 122.031962 
L 228.778457 122.031962 
L 228.778457 120.17948 
L 229.402514 120.17948 
L 229.402514 118.326998 
L 229.884269 118.326998 
L 229.884269 117.400757 
L 232.433063 117.400757 
L 232.433063 115.548274 
L 233.815643 115.548274 
L 233.815643 113.695792 
L 234.822656 113.695792 
L 234.822656 112.769551 
L 236.158842 112.769551 
L 236.158842 111.84331 
L 236.921541 111.84331 
L 236.921541 109.990828 
L 240.008105 109.990828 
L 240.008105 109.064587 
L 240.557082 109.064587 
L 240.557082 108.138346 
L 241.094754 108.138346 
L 241.094754 106.285864 
L 244.183292 106.285864 
L 244.183292 105.359623 
L 244.396703 105.359623 
L 244.396703 104.433382 
L 244.555064 104.433382 
L 244.555064 103.507141 
L 338.688 103.507141 
L 338.688 103.507141 
" style="fill:none;stroke:#000080;stroke-linecap:square;stroke-width:1.5;"/>
   </g>
   <g id="line2d_36">
    <defs>
     <path d="M 0 6 
C 1.591219 6 3.117479 5.367802 4.242641 4.242641 
C 5.367802 3.117479 6 1.591219 6 0 
C 6 -1.591219 5.367802 -3.117479 4.242641 -4.242641 
C 3.117479 -5.367802 1.591219 -6 0 -6 
C -1.591219 -6 -3.117479 -5.367802 -4.242641 -4.242641 
C -5.367802 -3.117479 -6 -1.591219 -6 0 
C -6 1.591219 -5.367802 3.117479 -4.242641 4.242641 
C -3.117479 5.367802 -1.591219 6 0 6 
z
" id="m132a326f87" style="stroke:#000080;stroke-width:1.5;"/>
    </defs>
    <g>
     <use style="fill-opacity:0;stroke:#000080;stroke-width:1.5;" x="134.149701" xlink:href="#m132a326f87" y="238.738333"/>
     <use style="fill-opacity:0;stroke:#000080;stroke-width:1.5;" x="177.574607" xlink:href="#m132a326f87" y="178.532665"/>
     <use style="fill-opacity:0;stroke:#000080;stroke-width:1.5;" x="241.094754" xlink:href="#m132a326f87" y="108.138346"/>
     <use style="fill-opacity:0;stroke:#000080;stroke-width:1.5;" x="244.555064" xlink:href="#m132a326f87" y="103.507141"/>
     <use style="fill-opacity:0;stroke:#000080;stroke-width:1.5;" x="244.555064" xlink:href="#m132a326f87" y="103.507141"/>
     <use style="fill-opacity:0;stroke:#000080;stroke-width:1.5;" x="338.688" xlink:href="#m132a326f87" y="103.507141"/>
    </g>
   </g>
   <g id="line2d_37">
    <path style="fill:none;stroke:#000080;stroke-linecap:square;stroke-width:1.5;"/>
    <g/>
   </g>
   <g id="line2d_38">
    <path clip-path="url(#p14e6585e7f)" d="M 246.289433 103.507141 
" style="fill:none;stroke:#000080;stroke-linecap:square;stroke-width:1.5;"/>
    <defs>
     <path d="M -12 12 
L 12 -12 
M -12 -12 
L 12 12 
" id="m7d3b983ac8" style="stroke:#000080;"/>
    </defs>
    <g clip-path="url(#p14e6585e7f)">
     <use style="fill:#000080;stroke:#000080;" x="246.289433" xlink:href="#m7d3b983ac8" y="103.507141"/>
    </g>
   </g>
   <g id="line2d_39">
    <defs>
     <path d="M 0 1.5 
C 0.397805 1.5 0.77937 1.341951 1.06066 1.06066 
C 1.341951 0.77937 1.5 0.397805 1.5 0 
C 1.5 -0.397805 1.341951 -0.77937 1.06066 -1.06066 
C 0.77937 -1.341951 0.397805 -1.5 0 -1.5 
C -0.397805 -1.5 -0.77937 -1.341951 -1.06066 -1.06066 
C -1.341951 -0.77937 -1.5 -0.397805 -1.5 0 
C -1.5 0.397805 -1.341951 0.77937 -1.06066 1.06066 
C -0.77937 1.341951 -0.397805 1.5 0 1.5 
z
" id="mf053331324" style="stroke:#ff00ff;"/>
    </defs>
    <g>
     <use style="fill:#ff00ff;stroke:#ff00ff;" x="298.457925" xlink:href="#mf053331324" y="65.994379"/>
     <use style="fill:#ff00ff;stroke:#ff00ff;" x="298.457925" xlink:href="#mf053331324" y="65.994379"/>
    </g>
   </g>
   <g id="line2d_40">
    <path d="M 29.53256 298.944 
L 29.53256 287.829108 
L 41.620548 287.829108 
L 41.620548 287.365987 
L 53.708537 287.365987 
L 53.708537 285.050384 
L 57.6 285.050384 
L 57.6 284.587264 
L 60.779557 284.587264 
L 60.779557 283.661023 
L 63.467834 283.661023 
L 63.467834 282.271661 
L 65.796525 282.271661 
L 65.796525 280.419179 
L 71.35013 280.419179 
L 71.35013 279.956059 
L 72.867545 279.956059 
L 72.867545 279.029818 
L 76.759008 279.029818 
L 76.759008 278.566697 
L 79.938565 278.566697 
L 79.938565 277.640456 
L 80.881459 277.640456 
L 80.881459 276.251095 
L 81.775977 276.251095 
L 81.775977 274.398612 
L 84.213325 274.398612 
L 84.213325 273.935492 
L 87.643811 273.935492 
L 87.643811 273.472371 
L 89.418828 273.472371 
L 89.418828 273.009251 
L 90.509138 273.009251 
L 90.509138 272.54613 
L 93.863965 272.54613 
L 93.863965 272.08301 
L 99.097574 272.08301 
L 99.097574 270.230528 
L 99.731799 270.230528 
L 99.731799 268.841166 
L 100.641881 268.841166 
L 100.641881 267.914925 
L 101.223245 267.914925 
L 101.223245 267.451805 
L 101.506816 267.451805 
L 101.506816 266.988684 
L 102.330873 266.988684 
L 102.330873 266.062443 
L 103.623262 266.062443 
L 103.623262 265.599323 
L 105.057436 265.599323 
L 105.057436 264.673082 
L 105.285403 264.673082 
L 105.285403 264.209961 
L 105.51043 264.209961 
L 105.51043 263.746841 
L 105.732589 263.746841 
L 105.732589 262.8206 
L 105.951954 262.8206 
L 105.951954 261.894358 
L 107.009204 261.894358 
L 107.009204 260.968117 
L 107.614095 260.968117 
L 107.614095 260.504997 
L 109.131511 260.504997 
L 109.131511 260.041876 
L 109.31223 260.041876 
L 109.31223 259.578756 
L 109.668146 259.578756 
L 109.668146 259.115635 
L 110.188761 259.115635 
L 110.188761 258.652515 
L 111.023335 258.652515 
L 111.023335 258.189394 
L 111.819788 258.189394 
L 111.819788 257.726274 
L 112.128456 257.726274 
L 112.128456 256.800033 
L 112.431755 256.800033 
L 112.431755 256.336912 
L 113.022974 256.336912 
L 113.022974 254.947551 
L 113.873839 254.947551 
L 113.873839 254.02131 
L 114.418861 254.02131 
L 114.418861 253.558189 
L 114.947365 253.558189 
L 114.947365 253.095069 
L 115.33349 253.095069 
L 115.33349 251.705707 
L 115.586238 251.705707 
L 115.586238 250.779466 
L 117.259781 250.779466 
L 117.259781 249.853225 
L 117.820578 249.853225 
L 117.820578 249.390104 
L 118.148599 249.390104 
L 118.148599 248.463863 
L 118.681952 248.463863 
L 118.681952 248.000743 
L 120.286695 248.000743 
L 120.286695 247.537622 
L 122.191052 247.537622 
L 122.191052 246.611381 
L 125.752972 246.611381 
L 125.752972 245.68514 
L 127.035353 245.68514 
L 127.035353 244.758899 
L 127.421479 244.758899 
L 127.421479 243.832658 
L 127.674226 243.832658 
L 127.674226 242.906417 
L 128.229861 242.906417 
L 128.229861 241.980176 
L 128.471239 241.980176 
L 128.471239 241.517056 
L 129.290685 241.517056 
L 129.290685 240.590815 
L 130.76994 240.590815 
L 130.76994 240.127694 
L 131.030622 240.127694 
L 131.030622 239.664574 
L 131.185181 239.664574 
L 131.185181 239.201453 
L 131.740458 239.201453 
L 131.740458 238.275212 
L 132.70687 238.275212 
L 132.70687 237.812091 
L 132.986651 237.812091 
L 133.032848 236.42273 
L 134.534878 236.42273 
L 134.61933 235.033368 
L 135.681535 235.033368 
L 135.681535 234.570248 
L 136.5324 234.570248 
L 136.5324 234.107127 
L 136.757427 234.107127 
L 136.79465 232.717766 
L 137.271464 232.717766 
L 137.271464 231.791525 
L 137.52291 231.791525 
L 137.594091 230.402163 
L 138.460171 230.402163 
L 138.460171 229.939043 
L 139.02546 229.939043 
L 139.02546 229.012802 
L 139.413734 229.012802 
L 139.413734 228.549681 
L 139.572998 228.549681 
L 139.572998 227.62344 
L 140.64889 227.62344 
L 140.64889 227.16032 
L 140.79731 227.16032 
L 140.79731 226.234079 
L 140.944478 226.234079 
L 140.944478 225.770958 
L 143.247504 225.770958 
L 143.324386 223.455355 
L 143.678752 223.455355 
L 143.678752 222.992235 
L 144.582038 222.992235 
L 144.582038 222.065994 
L 144.77134 222.065994 
L 144.77134 221.139753 
L 145.143889 221.139753 
L 145.143889 220.676632 
L 145.372754 220.676632 
L 145.372754 220.213512 
L 145.777292 220.213512 
L 145.843812 218.82415 
L 146.019967 218.82415 
L 146.08557 217.434789 
L 146.916676 217.434789 
L 146.937474 215.582307 
L 147.348313 215.582307 
L 147.348313 215.119186 
L 148.392421 215.119186 
L 148.392421 214.192945 
L 149.25057 214.192945 
L 149.25057 213.266704 
L 149.805951 213.266704 
L 149.805951 212.340463 
L 150.327083 212.340463 
L 150.327083 211.877342 
L 150.51433 211.877342 
L 150.581924 210.487981 
L 151.015013 210.487981 
L 151.015013 210.02486 
L 151.146137 210.02486 
L 151.162458 208.172378 
L 151.373256 208.172378 
L 151.373256 207.709258 
L 151.62925 207.709258 
L 151.62925 206.783017 
L 152.130233 206.783017 
L 152.130233 205.856776 
L 152.283884 205.856776 
L 152.375429 204.004294 
L 153.294279 204.004294 
L 153.294279 203.078053 
L 153.609024 203.078053 
L 153.609024 202.151812 
L 154.249325 202.151812 
L 154.262987 201.225571 
L 154.68128 201.225571 
L 154.68128 200.299329 
L 154.985269 200.299329 
L 154.985269 199.373088 
L 155.115803 199.373088 
L 155.115803 198.909968 
L 155.361158 198.909968 
L 155.463441 197.520606 
L 155.488919 197.520606 
L 155.527065 196.594365 
L 155.766741 196.594365 
L 155.766741 196.131245 
L 156.823991 196.131245 
L 156.823991 195.668124 
L 156.976607 195.668124 
L 156.976607 194.741883 
L 157.61918 194.741883 
L 157.61918 193.815642 
L 157.809652 193.815642 
L 157.809652 193.352522 
L 157.9318 193.352522 
L 157.953917 192.426281 
L 158.583406 192.426281 
L 158.583406 191.96316 
L 159.139412 191.96316 
L 159.139412 191.50004 
L 159.415988 191.50004 
L 159.415988 190.573799 
L 159.698248 190.573799 
L 159.698248 190.110678 
L 160.152267 190.110678 
L 160.152267 189.647558 
L 160.413354 189.647558 
L 160.413354 189.184437 
L 161.302112 189.184437 
L 161.402155 187.795075 
L 161.429341 187.795075 
L 161.492608 186.405714 
L 162.043181 186.405714 
L 162.043181 185.942593 
L 162.320689 185.942593 
L 162.320689 185.479473 
L 162.474869 185.479473 
L 162.474869 185.016352 
L 163.201437 185.016352 
L 163.201437 184.090111 
L 163.445119 184.090111 
L 163.445119 183.626991 
L 164.047627 183.626991 
L 164.047627 183.16387 
L 164.387164 183.16387 
L 164.448194 182.237629 
L 164.727712 182.237629 
L 164.727712 181.774509 
L 165.164364 181.774509 
L 165.164364 180.848268 
L 165.309935 180.848268 
L 165.309935 180.385147 
L 165.625977 180.385147 
L 165.625977 179.922027 
L 166.648858 179.922027 
L 166.648858 178.995786 
L 166.935137 178.995786 
L 166.935137 178.532665 
L 167.513144 178.532665 
L 167.55143 177.606424 
L 167.646779 177.606424 
L 167.646779 177.143304 
L 167.923499 177.143304 
L 167.923499 176.680183 
L 168.734207 176.680183 
L 168.734207 176.217062 
L 169.221681 176.217062 
L 169.221681 175.753942 
L 169.880918 175.753942 
L 169.981016 174.827701 
L 170.097076 174.827701 
L 170.130094 173.438339 
L 170.708663 173.438339 
L 170.708663 172.512098 
L 171.237722 172.512098 
L 171.289242 171.122737 
L 173.724353 171.122737 
L 173.728826 169.733375 
L 174.192253 169.733375 
L 174.192253 169.270255 
L 174.464511 169.270255 
L 174.464511 168.344014 
L 174.579904 168.344014 
L 174.579904 167.880893 
L 174.83783 167.880893 
L 174.842027 166.954652 
L 175.08786 166.954652 
L 175.08786 166.491532 
L 176.672724 166.491532 
L 176.672724 166.028411 
L 176.931477 166.028411 
L 176.931477 165.565291 
L 177.89806 165.565291 
L 177.89806 164.63905 
L 181.721776 164.63905 
L 181.721776 164.175929 
L 182.308563 164.175929 
L 182.308563 163.712808 
L 183.675606 163.712808 
L 183.675606 162.786567 
L 190.296693 162.786567 
L 190.369192 160.934085 
L 192.0401 160.934085 
L 192.129088 160.007844 
L 192.225369 160.007844 
L 192.307255 158.618483 
L 192.427071 158.618483 
L 192.454604 157.229121 
L 194.524611 157.229121 
L 194.524611 156.766001 
L 194.779283 156.766001 
L 194.779283 156.30288 
L 194.992008 156.30288 
L 194.992008 155.83976 
L 195.29852 155.83976 
L 195.317986 154.913519 
L 195.796435 154.913519 
L 195.821654 153.524157 
L 196.423538 153.524157 
L 196.423538 152.597916 
L 197.963967 152.597916 
L 197.963967 152.134795 
L 202.454596 152.134795 
L 202.534524 149.819193 
L 202.788197 149.819193 
L 202.788197 148.892952 
L 203.157783 148.892952 
L 203.157783 148.429831 
L 203.393635 148.429831 
L 203.393635 147.966711 
L 204.257517 147.966711 
L 204.257517 147.04047 
L 204.483649 147.04047 
L 204.483649 146.577349 
L 204.989236 146.577349 
L 204.989236 146.114229 
L 205.717939 146.114229 
L 205.717939 145.651108 
L 207.544846 145.651108 
L 207.544846 145.187988 
L 210.340415 145.187988 
L 210.340415 144.724867 
L 210.455674 144.724867 
L 210.538235 143.798626 
L 210.809759 143.798626 
L 210.809759 143.335506 
L 211.215796 143.335506 
L 211.215796 142.872385 
L 212.599089 142.872385 
L 212.599089 141.946144 
L 214.986542 141.946144 
L 214.986542 141.483024 
L 215.893023 141.483024 
L 215.893023 141.019903 
L 216.172981 141.019903 
L 216.172981 140.556783 
L 216.416826 140.556783 
L 216.416826 139.630541 
L 216.602282 139.630541 
L 216.602282 139.167421 
L 216.778969 139.167421 
L 216.778969 138.7043 
L 217.765159 138.7043 
L 217.822708 137.778059 
L 217.893578 137.778059 
L 217.893578 137.314939 
L 219.600959 137.314939 
L 219.600959 136.388698 
L 220.258085 136.388698 
L 220.258085 135.462457 
L 220.530601 135.462457 
L 220.530601 134.999336 
L 222.522689 134.999336 
L 222.604806 134.073095 
L 222.876127 134.073095 
L 222.876127 133.609975 
L 223.165108 133.609975 
L 223.165108 133.146854 
L 223.294139 133.146854 
L 223.294139 132.683734 
L 223.89237 132.683734 
L 223.89237 132.220613 
L 224.415586 132.220613 
L 224.415586 131.294372 
L 226.577299 131.294372 
L 226.577299 130.368131 
L 227.253112 130.368131 
L 227.308299 128.97877 
L 228.001528 128.97877 
L 228.001528 128.515649 
L 230.259755 128.515649 
L 230.259755 128.052529 
L 230.767355 128.052529 
L 230.856651 126.663167 
L 230.913177 126.663167 
L 230.913177 125.736926 
L 231.394669 125.736926 
L 231.487502 123.421323 
L 231.771734 123.421323 
L 231.771734 122.958203 
L 233.019243 122.958203 
L 233.019243 122.495082 
L 234.085545 122.495082 
L 234.085545 121.568841 
L 234.570839 121.568841 
L 234.654503 120.6426 
L 236.792992 120.6426 
L 236.792992 120.17948 
L 237.113728 120.17948 
L 237.113728 119.253239 
L 237.63361 119.253239 
L 237.63361 118.326998 
L 238.047815 118.326998 
L 238.14612 115.548274 
L 238.232142 115.548274 
L 238.251286 114.622033 
L 239.136152 114.622033 
L 239.136152 114.158913 
L 240.034286 114.158913 
L 240.034286 113.232672 
L 241.081971 113.232672 
L 241.122075 112.306431 
L 241.325492 112.306431 
L 241.325492 111.84331 
L 241.511065 111.84331 
L 241.511065 111.38019 
L 242.596064 111.38019 
L 242.699468 110.453949 
L 242.832396 110.453949 
L 242.832396 109.990828 
L 246.062583 109.990828 
L 246.062583 109.064587 
L 246.355159 109.064587 
L 246.462543 107.675226 
L 246.84874 107.675226 
L 246.84874 107.212105 
L 247.10018 107.212105 
L 247.10018 106.285864 
L 248.120426 106.285864 
L 248.120426 105.822744 
L 248.499626 105.822744 
L 248.533086 104.433382 
L 249.456558 104.433382 
L 249.478126 103.04402 
L 249.919624 103.04402 
L 249.919624 102.5809 
L 250.485098 102.5809 
L 250.485098 101.654659 
L 250.660143 101.654659 
L 250.74982 100.728418 
L 251.077608 100.728418 
L 251.165169 99.802177 
L 251.24006 99.802177 
L 251.24006 99.339056 
L 251.4071 99.339056 
L 251.4071 98.412815 
L 252.585422 98.412815 
L 252.585422 97.949695 
L 254.669218 97.949695 
L 254.669218 97.486574 
L 255.108516 97.486574 
L 255.108516 97.023454 
L 255.348914 97.023454 
L 255.348914 96.560333 
L 256.897419 96.560333 
L 256.897419 96.097213 
L 257.099144 96.097213 
L 257.099144 95.170972 
L 257.339588 95.170972 
L 257.339588 94.707851 
L 257.962928 94.707851 
L 257.962928 93.78161 
L 258.356552 93.78161 
L 258.356552 92.855369 
L 259.616449 92.855369 
L 259.687157 91.466008 
L 259.816965 91.466008 
L 259.816965 90.539766 
L 260.069728 90.539766 
L 260.082701 89.150405 
L 260.472349 89.150405 
L 260.472349 88.687284 
L 260.725582 88.687284 
L 260.725582 87.761043 
L 262.228491 87.761043 
L 262.228491 87.297923 
L 263.374176 87.297923 
L 263.374176 86.371682 
L 263.515493 86.371682 
L 263.515493 85.908561 
L 265.695022 85.908561 
L 265.768526 84.056079 
L 266.084232 84.056079 
L 266.084232 83.592959 
L 266.468783 83.592959 
L 266.468783 83.129838 
L 267.677757 83.129838 
L 267.677757 82.666718 
L 267.9912 82.666718 
L 267.9912 82.203597 
L 268.674762 82.203597 
L 268.674762 81.277356 
L 269.07257 81.277356 
L 269.07257 80.351115 
L 269.406446 80.351115 
L 269.406446 79.424874 
L 270.031529 79.424874 
L 270.031529 78.498633 
L 270.487944 78.498633 
L 270.487944 78.035512 
L 270.740046 78.035512 
L 270.756535 76.646151 
L 272.023135 76.646151 
L 272.023135 75.71991 
L 272.767677 75.71991 
L 272.767677 75.256789 
L 275.471367 75.256789 
L 275.578291 73.867428 
L 277.992683 73.867428 
L 277.992683 72.941187 
L 278.241862 72.941187 
L 278.254229 71.088705 
L 279.713294 71.088705 
L 279.713294 70.162464 
L 280.662894 70.162464 
L 280.662894 69.236223 
L 289.18407 69.236223 
L 289.18407 68.309982 
L 289.474856 68.309982 
L 289.474856 67.383741 
L 290.026103 67.383741 
L 290.026103 66.92062 
L 294.199575 66.92062 
L 294.199575 66.457499 
L 298.457925 66.457499 
L 298.457925 65.994379 
L 338.688 65.994379 
L 338.688 65.994379 
" style="fill:none;stroke:#ff00ff;stroke-linecap:square;stroke-width:1.5;"/>
   </g>
   <g id="line2d_41">
    <defs>
     <path d="M 0 8.485281 
L 5.091169 0 
L 0 -8.485281 
L -5.091169 0 
z
" id="md608478860" style="stroke:#ff00ff;stroke-linejoin:miter;stroke-width:1.5;"/>
    </defs>
    <g>
     <use style="fill-opacity:0;stroke:#ff00ff;stroke-linejoin:miter;stroke-width:1.5;" x="87.643811" xlink:href="#md608478860" y="273.935492"/>
     <use style="fill-opacity:0;stroke:#ff00ff;stroke-linejoin:miter;stroke-width:1.5;" x="143.678752" xlink:href="#md608478860" y="222.992235"/>
     <use style="fill-opacity:0;stroke:#ff00ff;stroke-linejoin:miter;stroke-width:1.5;" x="202.534524" xlink:href="#md608478860" y="150.745434"/>
     <use style="fill-opacity:0;stroke:#ff00ff;stroke-linejoin:miter;stroke-width:1.5;" x="279.713294" xlink:href="#md608478860" y="71.088705"/>
     <use style="fill-opacity:0;stroke:#ff00ff;stroke-linejoin:miter;stroke-width:1.5;" x="298.457925" xlink:href="#md608478860" y="65.994379"/>
     <use style="fill-opacity:0;stroke:#ff00ff;stroke-linejoin:miter;stroke-width:1.5;" x="338.688" xlink:href="#md608478860" y="65.994379"/>
    </g>
   </g>
   <g id="line2d_42">
    <path style="fill:none;stroke:#ff00ff;stroke-linecap:square;stroke-width:1.5;"/>
    <g/>
   </g>
   <g id="line2d_43">
    <path clip-path="url(#p14e6585e7f)" d="M 301.251165 65.994379 
" style="fill:none;stroke:#ff00ff;stroke-linecap:square;stroke-width:1.5;"/>
    <defs>
     <path d="M -12 12 
L 12 -12 
M -12 -12 
L 12 12 
" id="m1291dd9451" style="stroke:#ff00ff;"/>
    </defs>
    <g clip-path="url(#p14e6585e7f)">
     <use style="fill:#ff00ff;stroke:#ff00ff;" x="301.251165" xlink:href="#m1291dd9451" y="65.994379"/>
    </g>
   </g>
   <g id="line2d_44">
    <defs>
     <path d="M 0 1.5 
C 0.397805 1.5 0.77937 1.341951 1.06066 1.06066 
C 1.341951 0.77937 1.5 0.397805 1.5 0 
C 1.5 -0.397805 1.341951 -0.77937 1.06066 -1.06066 
C 0.77937 -1.341951 0.397805 -1.5 0 -1.5 
C -0.397805 -1.5 -0.77937 -1.341951 -1.06066 -1.06066 
C -1.341951 -0.77937 -1.5 -0.397805 -1.5 0 
C -1.5 0.397805 -1.341951 0.77937 -1.06066 1.06066 
C -0.77937 1.341951 -0.397805 1.5 0 1.5 
z
" id="mdcb353245b" style="stroke:#ff7500;"/>
    </defs>
    <g>
     <use style="fill:#ff7500;stroke:#ff7500;" x="283.426534" xlink:href="#mdcb353245b" y="68.773102"/>
     <use style="fill:#ff7500;stroke:#ff7500;" x="283.426534" xlink:href="#mdcb353245b" y="68.773102"/>
    </g>
   </g>
   <g id="line2d_45">
    <path d="M 29.53256 298.944 
L 29.53256 296.628397 
L 41.620548 296.628397 
L 41.620548 295.702156 
L 48.691568 295.702156 
L 48.691568 293.386554 
L 53.708537 293.386554 
L 53.708537 292.923433 
L 57.6 292.923433 
L 57.6 290.14471 
L 60.779557 290.14471 
L 60.779557 287.829108 
L 63.467834 287.829108 
L 63.467834 287.365987 
L 65.796525 287.365987 
L 65.796525 285.513505 
L 80.881459 285.513505 
L 80.881459 285.050384 
L 82.626842 285.050384 
L 82.626842 284.587264 
L 86.351421 284.587264 
L 86.351421 284.124143 
L 88.255778 284.124143 
L 88.255778 283.661023 
L 91.535274 283.661023 
L 91.535274 283.197902 
L 93.863965 283.197902 
L 93.863965 282.734782 
L 95.918017 282.734782 
L 95.918017 281.34542 
L 97.755429 281.34542 
L 97.755429 280.8823 
L 101.223245 280.8823 
L 101.223245 280.419179 
L 106.168594 280.419179 
L 106.168594 279.029818 
L 107.009204 279.029818 
L 107.009204 278.566697 
L 107.614095 278.566697 
L 107.614095 278.103577 
L 108.006005 278.103577 
L 108.006005 277.640456 
L 108.389302 277.640456 
L 108.389302 277.177336 
L 113.873839 277.177336 
L 113.873839 276.714215 
L 116.562116 276.714215 
L 116.562116 275.787974 
L 124.216444 275.787974 
L 124.216444 275.324854 
L 125.682793 275.324854 
L 125.682793 274.861733 
L 127.035353 274.861733 
L 127.035353 274.398612 
L 127.357715 274.398612 
L 127.357715 273.935492 
L 130.822389 273.935492 
L 130.822389 273.472371 
L 133.622529 273.472371 
L 133.622529 273.009251 
L 134.953107 273.009251 
L 134.953107 272.08301 
L 138.049816 272.08301 
L 138.049816 271.619889 
L 138.324456 271.619889 
L 138.426341 270.693648 
L 140.103868 270.693648 
L 140.103868 270.230528 
L 141.774395 270.230528 
L 141.774395 269.767407 
L 142.270332 269.767407 
L 142.270332 268.841166 
L 142.593291 268.841166 
L 142.593291 268.378046 
L 143.952218 268.378046 
L 143.952218 267.914925 
L 144.172816 267.914925 
L 144.172816 267.451805 
L 144.318346 267.451805 
L 144.318346 266.988684 
L 145.976095 266.988684 
L 145.976095 266.525564 
L 148.808112 266.525564 
L 148.808112 266.062443 
L 150.016276 266.062443 
L 150.016276 265.599323 
L 151.015013 265.599323 
L 151.080698 264.209961 
L 151.260066 264.209961 
L 151.260066 262.8206 
L 152.068392 262.8206 
L 152.068392 262.357479 
L 152.572143 262.357479 
L 152.572143 261.894358 
L 152.988446 261.894358 
L 152.988446 260.968117 
L 154.331136 260.968117 
L 154.331136 260.504997 
L 154.85375 260.504997 
L 154.89331 259.115635 
L 155.501643 259.115635 
L 155.590458 257.726274 
L 157.460743 257.726274 
L 157.460743 257.263153 
L 158.238915 257.263153 
L 158.238915 256.336912 
L 160.123015 256.336912 
L 160.123015 255.873792 
L 161.137157 255.873792 
L 161.137157 255.410671 
L 161.893939 255.410671 
L 161.893939 254.947551 
L 162.829407 254.947551 
L 162.829407 254.48443 
L 162.995734 254.48443 
L 162.995734 254.02131 
L 163.36427 254.02131 
L 163.420904 252.631948 
L 166.595075 252.631948 
L 166.595075 252.168828 
L 167.249248 252.168828 
L 167.249248 251.242587 
L 167.365597 251.242587 
L 167.365597 250.779466 
L 167.564173 250.779466 
L 167.564173 249.853225 
L 167.942207 249.853225 
L 167.960895 248.926984 
L 169.936599 248.926984 
L 169.958822 247.537622 
L 170.883296 247.537622 
L 170.883296 247.074502 
L 171.061409 247.074502 
L 171.061409 246.148261 
L 172.801084 246.148261 
L 172.801084 245.68514 
L 173.508272 245.68514 
L 173.508272 245.22202 
L 173.920102 245.22202 
L 173.920102 244.295779 
L 174.447351 244.295779 
L 174.447351 243.832658 
L 176.371677 243.832658 
L 176.371677 243.369538 
L 177.031692 243.369538 
L 177.031692 242.443297 
L 178.578383 242.443297 
L 178.578383 241.980176 
L 178.953652 241.980176 
L 178.953652 241.053935 
L 180.509698 241.053935 
L 180.509698 240.127694 
L 180.816238 240.127694 
L 180.816238 239.664574 
L 181.755682 239.664574 
L 181.755682 238.738333 
L 184.751736 238.738333 
L 184.751736 237.812091 
L 186.043446 237.812091 
L 186.109546 235.496489 
L 186.332429 235.496489 
L 186.332429 234.570248 
L 186.612428 234.570248 
L 186.612428 234.107127 
L 187.369232 234.107127 
L 187.430501 232.717766 
L 187.643264 232.717766 
L 187.655344 231.328404 
L 188.828584 231.328404 
L 188.828584 230.402163 
L 189.064077 230.402163 
L 189.064077 229.475922 
L 189.630277 229.475922 
L 189.630277 229.012802 
L 189.826849 229.012802 
L 189.826849 228.086561 
L 191.863912 228.086561 
L 191.863912 227.62344 
L 192.381085 227.62344 
L 192.417883 226.234079 
L 193.368675 226.234079 
L 193.368675 225.307837 
L 193.822487 225.307837 
L 193.822487 224.381596 
L 194.09589 224.381596 
L 194.09589 223.455355 
L 194.542248 223.455355 
L 194.542248 222.529114 
L 195.6736 222.529114 
L 195.6736 222.065994 
L 195.99593 222.065994 
L 195.99593 221.139753 
L 197.440212 221.139753 
L 197.440212 220.676632 
L 198.621181 220.676632 
L 198.621181 219.750391 
L 198.860992 219.750391 
L 198.860992 218.82415 
L 199.962333 218.82415 
L 200.015913 216.508548 
L 201.521271 216.508548 
L 201.521271 216.045427 
L 201.889942 216.045427 
L 201.958319 214.656066 
L 203.081498 214.656066 
L 203.081498 213.729825 
L 203.656921 213.729825 
L 203.734737 212.340463 
L 203.974811 212.340463 
L 203.974811 211.414222 
L 204.259847 211.414222 
L 204.259847 210.487981 
L 204.756024 210.487981 
L 204.796742 208.635499 
L 205.608291 208.635499 
L 205.608291 208.172378 
L 205.767876 208.172378 
L 205.767876 207.246137 
L 207.591747 207.246137 
L 207.591747 206.783017 
L 207.757776 206.783017 
L 207.823747 205.856776 
L 209.337681 205.856776 
L 209.337681 205.393655 
L 209.644943 205.393655 
L 209.644943 204.930535 
L 209.873296 204.930535 
L 209.91715 203.541173 
L 210.16138 203.541173 
L 210.16138 203.078053 
L 210.898097 203.078053 
L 210.898097 202.151812 
L 211.13377 202.151812 
L 211.13377 201.688691 
L 211.334233 201.688691 
L 211.334233 201.225571 
L 211.48321 201.225571 
L 211.585569 199.373088 
L 211.876546 199.373088 
L 211.876546 198.909968 
L 213.000327 198.909968 
L 213.000327 197.983727 
L 213.430684 197.983727 
L 213.430684 197.057486 
L 213.553281 197.057486 
L 213.553281 196.594365 
L 213.918661 196.594365 
L 213.918661 196.131245 
L 214.062253 196.131245 
L 214.062253 195.205004 
L 214.188857 195.205004 
L 214.224423 194.278763 
L 214.695673 194.278763 
L 214.695673 193.815642 
L 214.938189 193.815642 
L 214.938189 193.352522 
L 215.202695 193.352522 
L 215.202695 192.889401 
L 216.207858 192.889401 
L 216.207858 192.426281 
L 217.240703 192.426281 
L 217.308462 190.573799 
L 217.477079 190.573799 
L 217.477079 189.647558 
L 217.83662 189.647558 
L 217.83662 189.184437 
L 218.092184 189.184437 
L 218.092184 188.721316 
L 218.223109 188.721316 
L 218.324304 178.069545 
L 218.338861 178.069545 
L 218.435598 172.512098 
L 218.467954 172.512098 
L 218.519805 167.417773 
L 218.619297 167.417773 
L 218.726698 164.63905 
L 218.789944 164.63905 
L 218.850271 163.249688 
L 218.952919 163.249688 
L 219.063276 158.618483 
L 219.099465 158.618483 
L 219.174921 154.913519 
L 219.334353 154.913519 
L 219.393155 152.134795 
L 219.481312 152.134795 
L 219.541238 151.208554 
L 219.649232 151.208554 
L 219.649232 150.745434 
L 219.814277 150.745434 
L 219.918383 147.966711 
L 219.960104 147.966711 
L 219.994166 146.577349 
L 220.129126 146.577349 
L 220.132877 145.187988 
L 220.296835 145.187988 
L 220.40211 142.409265 
L 220.427023 142.409265 
L 220.5251 140.093662 
L 220.566922 140.093662 
L 220.594341 139.167421 
L 220.94394 139.167421 
L 220.94394 138.7043 
L 221.081248 138.7043 
L 221.104324 137.314939 
L 221.281108 137.314939 
L 221.343626 136.388698 
L 221.515415 136.388698 
L 221.515415 135.925577 
L 221.663495 135.925577 
L 221.734928 134.536216 
L 221.878618 134.536216 
L 221.953401 132.220613 
L 221.992219 132.220613 
L 221.992219 131.757493 
L 222.140779 131.757493 
L 222.140779 130.831252 
L 222.435527 130.831252 
L 222.536583 129.44189 
L 222.621888 129.44189 
L 222.724567 128.052529 
L 222.757136 128.052529 
L 222.849665 127.126287 
L 223.089024 127.126287 
L 223.120656 125.736926 
L 223.419891 125.736926 
L 223.419891 124.810685 
L 223.652112 124.810685 
L 223.684525 123.421323 
L 223.846957 123.421323 
L 223.910502 122.495082 
L 223.981088 122.495082 
L 224.073596 121.568841 
L 224.333725 121.568841 
L 224.333725 121.105721 
L 224.497794 121.105721 
L 224.497794 120.6426 
L 225.303195 120.6426 
L 225.303195 120.17948 
L 225.546882 120.17948 
L 225.607275 118.326998 
L 225.765499 118.326998 
L 225.765499 117.863877 
L 226.167279 117.863877 
L 226.167279 117.400757 
L 226.491331 117.400757 
L 226.59414 116.474516 
L 226.903857 116.474516 
L 226.903857 116.011395 
L 227.293379 116.011395 
L 227.329208 115.085154 
L 228.194551 115.085154 
L 228.194551 114.158913 
L 228.339246 114.158913 
L 228.339246 113.232672 
L 228.598366 113.232672 
L 228.598366 112.769551 
L 228.751209 112.769551 
L 228.825422 111.38019 
L 229.205391 111.38019 
L 229.280845 109.527708 
L 229.441965 109.527708 
L 229.487545 108.138346 
L 230.059405 108.138346 
L 230.059405 107.212105 
L 230.95625 107.212105 
L 231.056453 105.359623 
L 231.551283 105.359623 
L 231.551283 104.896503 
L 232.05046 104.896503 
L 232.05046 104.433382 
L 232.192398 104.433382 
L 232.192398 103.507141 
L 232.514705 103.507141 
L 232.514705 102.5809 
L 232.964664 102.5809 
L 232.964664 101.654659 
L 233.17708 101.654659 
L 233.17708 100.728418 
L 233.834888 100.728418 
L 233.834888 99.802177 
L 233.951328 99.802177 
L 233.951328 99.339056 
L 234.505153 99.339056 
L 234.505153 98.875936 
L 234.872532 98.875936 
L 234.872532 98.412815 
L 235.663421 98.412815 
L 235.663421 97.949695 
L 235.809829 97.949695 
L 235.809829 97.486574 
L 236.00063 97.486574 
L 236.061304 96.097213 
L 237.01131 96.097213 
L 237.052824 95.170972 
L 237.474063 95.170972 
L 237.474063 94.707851 
L 238.5071 94.707851 
L 238.60665 93.78161 
L 238.775107 93.78161 
L 238.849969 91.929128 
L 239.721356 91.929128 
L 239.721356 91.466008 
L 240.506911 91.466008 
L 240.506911 91.002887 
L 241.027443 91.002887 
L 241.027443 90.539766 
L 241.201635 90.539766 
L 241.201635 90.076646 
L 241.602203 90.076646 
L 241.602203 89.613525 
L 242.349405 89.613525 
L 242.349405 89.150405 
L 244.766588 89.150405 
L 244.857923 87.761043 
L 244.941472 87.761043 
L 244.941472 87.297923 
L 245.063582 87.297923 
L 245.063582 86.371682 
L 246.021971 86.371682 
L 246.021971 85.445441 
L 246.53787 85.445441 
L 246.53787 84.5192 
L 247.040348 84.5192 
L 247.040348 83.592959 
L 248.371953 83.592959 
L 248.457788 81.740477 
L 251.956837 81.740477 
L 251.956837 80.814236 
L 252.363044 80.814236 
L 252.363044 79.887995 
L 253.414268 79.887995 
L 253.414268 78.961753 
L 253.549349 78.961753 
L 253.549349 78.035512 
L 254.103928 78.035512 
L 254.103928 77.109271 
L 254.395898 77.109271 
L 254.439754 75.71991 
L 256.490988 75.71991 
L 256.490988 75.256789 
L 257.363374 75.256789 
L 257.363374 74.793669 
L 259.470006 74.793669 
L 259.488015 73.404307 
L 260.465883 73.404307 
L 260.465883 72.478066 
L 261.01907 72.478066 
L 261.01907 72.014946 
L 262.218616 72.014946 
L 262.218616 71.551825 
L 266.216142 71.551825 
L 266.216142 71.088705 
L 266.805824 71.088705 
L 266.805824 70.162464 
L 267.229266 70.162464 
L 267.229266 69.699343 
L 271.005724 69.699343 
L 271.005724 69.236223 
L 283.426534 69.236223 
L 283.426534 68.773102 
L 338.688 68.773102 
L 338.688 68.773102 
" style="fill:none;stroke:#ff7500;stroke-linecap:square;stroke-width:1.5;"/>
   </g>
   <g id="line2d_46">
    <defs>
     <path d="M 0 -6 
L -1.347084 -1.854102 
L -5.706339 -1.854102 
L -2.179628 0.708204 
L -3.526712 4.854102 
L -0 2.291796 
L 3.526712 4.854102 
L 2.179628 0.708204 
L 5.706339 -1.854102 
L 1.347084 -1.854102 
z
" id="m5dcae0b7a8" style="stroke:#ff7500;stroke-linejoin:bevel;stroke-width:1.5;"/>
    </defs>
    <g>
     <use style="fill-opacity:0;stroke:#ff7500;stroke-linejoin:bevel;stroke-width:1.5;" x="125.682793" xlink:href="#m5dcae0b7a8" y="274.861733"/>
     <use style="fill-opacity:0;stroke:#ff7500;stroke-linejoin:bevel;stroke-width:1.5;" x="180.816238" xlink:href="#m5dcae0b7a8" y="239.664574"/>
     <use style="fill-opacity:0;stroke:#ff7500;stroke-linejoin:bevel;stroke-width:1.5;" x="222.849665" xlink:href="#m5dcae0b7a8" y="127.126287"/>
     <use style="fill-opacity:0;stroke:#ff7500;stroke-linejoin:bevel;stroke-width:1.5;" x="271.005724" xlink:href="#m5dcae0b7a8" y="69.236223"/>
     <use style="fill-opacity:0;stroke:#ff7500;stroke-linejoin:bevel;stroke-width:1.5;" x="283.426534" xlink:href="#m5dcae0b7a8" y="68.773102"/>
     <use style="fill-opacity:0;stroke:#ff7500;stroke-linejoin:bevel;stroke-width:1.5;" x="338.688" xlink:href="#m5dcae0b7a8" y="68.773102"/>
    </g>
   </g>
   <g id="line2d_47">
    <path style="fill:none;stroke:#ff7500;stroke-linecap:square;stroke-width:1.5;"/>
    <g/>
   </g>
   <g id="line2d_48">
    <path clip-path="url(#p14e6585e7f)" d="M 298.532571 68.773102 
" style="fill:none;stroke:#ff7500;stroke-linecap:square;stroke-width:1.5;"/>
    <defs>
     <path d="M -12 12 
L 12 -12 
M -12 -12 
L 12 12 
" id="m59fddfb2d9" style="stroke:#ff7500;"/>
    </defs>
    <g clip-path="url(#p14e6585e7f)">
     <use style="fill:#ff7500;stroke:#ff7500;" x="298.532571" xlink:href="#m59fddfb2d9" y="68.773102"/>
    </g>
   </g>
   <g id="line2d_49">
    <path d="M 338.688 103.507141 
L 369.60768 293.571802 
" style="fill:none;stroke:#000080;stroke-linecap:square;stroke-width:1.5;"/>
    <g>
     <use style="fill-opacity:0;stroke:#000080;stroke-width:1.5;" x="338.688" xlink:href="#m132a326f87" y="103.507141"/>
     <use style="fill-opacity:0;stroke:#000080;stroke-width:1.5;" x="369.60768" xlink:href="#m132a326f87" y="293.571802"/>
    </g>
   </g>
   <g id="line2d_50">
    <path d="M 338.688 68.773102 
L 369.60768 207.616634 
" style="fill:none;stroke:#ff7500;stroke-linecap:square;stroke-width:1.5;"/>
    <g>
     <use style="fill-opacity:0;stroke:#ff7500;stroke-linejoin:bevel;stroke-width:1.5;" x="338.688" xlink:href="#m5dcae0b7a8" y="68.773102"/>
     <use style="fill-opacity:0;stroke:#ff7500;stroke-linejoin:bevel;stroke-width:1.5;" x="369.60768" xlink:href="#m5dcae0b7a8" y="207.616634"/>
    </g>
   </g>
   <g id="line2d_51">
    <path d="M 338.688 65.994379 
L 369.60768 121.661465 
" style="fill:none;stroke:#ff00ff;stroke-linecap:square;stroke-width:1.5;"/>
    <g>
     <use style="fill-opacity:0;stroke:#ff00ff;stroke-linejoin:miter;stroke-width:1.5;" x="338.688" xlink:href="#md608478860" y="65.994379"/>
     <use style="fill-opacity:0;stroke:#ff00ff;stroke-linejoin:miter;stroke-width:1.5;" x="369.60768" xlink:href="#md608478860" y="121.661465"/>
    </g>
   </g>
   <g id="line2d_52">
    <path d="M 338.688 298.944 
L 338.688 30.334099 
" style="fill:none;stroke:#000000;stroke-linecap:square;stroke-width:1.5;"/>
   </g>
   <g id="patch_3">
    <path d="M 57.6 298.944 
L 57.6 27.648 
" style="fill:none;stroke:#000000;stroke-linecap:square;stroke-linejoin:miter;stroke-width:0.8;"/>
   </g>
   <g id="patch_4">
    <path d="M 338.688 298.944 
L 338.688 27.648 
" style="fill:none;stroke:#000000;stroke-linecap:square;stroke-linejoin:miter;stroke-width:0.8;"/>
   </g>
   <g id="patch_5">
    <path d="M 57.6 298.944 
L 338.688 298.944 
" style="fill:none;stroke:#000000;stroke-linecap:square;stroke-linejoin:miter;stroke-width:0.8;"/>
   </g>
   <g id="patch_6">
    <path d="M 57.6 27.648 
L 338.688 27.648 
" style="fill:none;stroke:#000000;stroke-linecap:square;stroke-linejoin:miter;stroke-width:0.8;"/>
   </g>
   <g id="text_13">
    <!-- 0.1tfr-0. -->
    <g transform="translate(375.22944 298.262739)scale(0.17 -0.17)">
     <use xlink:href="#DejaVuSans-48"/>
     <use x="63.623047" xlink:href="#DejaVuSans-46"/>
     <use x="95.410156" xlink:href="#DejaVuSans-49"/>
     <use x="159.033203" xlink:href="#DejaVuSans-116"/>
     <use x="198.242188" xlink:href="#DejaVuSans-102"/>
     <use x="233.447266" xlink:href="#DejaVuSans-114"/>
     <use x="274.466797" xlink:href="#DejaVuSans-45"/>
     <use x="310.550781" xlink:href="#DejaVuSans-48"/>
     <use x="374.173828" xlink:href="#DejaVuSans-46"/>
    </g>
   </g>
   <g id="text_14">
    <!-- UP-MO-CMA -->
    <defs>
     <path d="M 8.6875 72.90625 
L 18.609375 72.90625 
L 18.609375 28.609375 
Q 18.609375 16.890625 22.84375 11.734375 
Q 27.09375 6.59375 36.625 6.59375 
Q 46.09375 6.59375 50.34375 11.734375 
Q 54.59375 16.890625 54.59375 28.609375 
L 54.59375 72.90625 
L 64.5 72.90625 
L 64.5 27.390625 
Q 64.5 13.140625 57.4375 5.859375 
Q 50.390625 -1.421875 36.625 -1.421875 
Q 22.796875 -1.421875 15.734375 5.859375 
Q 8.6875 13.140625 8.6875 27.390625 
z
" id="DejaVuSans-85"/>
     <path d="M 19.671875 64.796875 
L 19.671875 37.40625 
L 32.078125 37.40625 
Q 38.96875 37.40625 42.71875 40.96875 
Q 46.484375 44.53125 46.484375 51.125 
Q 46.484375 57.671875 42.71875 61.234375 
Q 38.96875 64.796875 32.078125 64.796875 
z
M 9.8125 72.90625 
L 32.078125 72.90625 
Q 44.34375 72.90625 50.609375 67.359375 
Q 56.890625 61.8125 56.890625 51.125 
Q 56.890625 40.328125 50.609375 34.8125 
Q 44.34375 29.296875 32.078125 29.296875 
L 19.671875 29.296875 
L 19.671875 0 
L 9.8125 0 
z
" id="DejaVuSans-80"/>
     <path d="M 9.8125 72.90625 
L 24.515625 72.90625 
L 43.109375 23.296875 
L 61.8125 72.90625 
L 76.515625 72.90625 
L 76.515625 0 
L 66.890625 0 
L 66.890625 64.015625 
L 48.09375 14.015625 
L 38.1875 14.015625 
L 19.390625 64.015625 
L 19.390625 0 
L 9.8125 0 
z
" id="DejaVuSans-77"/>
     <path d="M 39.40625 66.21875 
Q 28.65625 66.21875 22.328125 58.203125 
Q 16.015625 50.203125 16.015625 36.375 
Q 16.015625 22.609375 22.328125 14.59375 
Q 28.65625 6.59375 39.40625 6.59375 
Q 50.140625 6.59375 56.421875 14.59375 
Q 62.703125 22.609375 62.703125 36.375 
Q 62.703125 50.203125 56.421875 58.203125 
Q 50.140625 66.21875 39.40625 66.21875 
z
M 39.40625 74.21875 
Q 54.734375 74.21875 63.90625 63.9375 
Q 73.09375 53.65625 73.09375 36.375 
Q 73.09375 19.140625 63.90625 8.859375 
Q 54.734375 -1.421875 39.40625 -1.421875 
Q 24.03125 -1.421875 14.8125 8.828125 
Q 5.609375 19.09375 5.609375 36.375 
Q 5.609375 53.65625 14.8125 63.9375 
Q 24.03125 74.21875 39.40625 74.21875 
z
" id="DejaVuSans-79"/>
     <path d="M 64.40625 67.28125 
L 64.40625 56.890625 
Q 59.421875 61.53125 53.78125 63.8125 
Q 48.140625 66.109375 41.796875 66.109375 
Q 29.296875 66.109375 22.65625 58.46875 
Q 16.015625 50.828125 16.015625 36.375 
Q 16.015625 21.96875 22.65625 14.328125 
Q 29.296875 6.6875 41.796875 6.6875 
Q 48.140625 6.6875 53.78125 8.984375 
Q 59.421875 11.28125 64.40625 15.921875 
L 64.40625 5.609375 
Q 59.234375 2.09375 53.4375 0.328125 
Q 47.65625 -1.421875 41.21875 -1.421875 
Q 24.65625 -1.421875 15.125 8.703125 
Q 5.609375 18.84375 5.609375 36.375 
Q 5.609375 53.953125 15.125 64.078125 
Q 24.65625 74.21875 41.21875 74.21875 
Q 47.75 74.21875 53.53125 72.484375 
Q 59.328125 70.75 64.40625 67.28125 
z
" id="DejaVuSans-67"/>
     <path d="M 34.1875 63.1875 
L 20.796875 26.90625 
L 47.609375 26.90625 
z
M 28.609375 72.90625 
L 39.796875 72.90625 
L 67.578125 0 
L 57.328125 0 
L 50.6875 18.703125 
L 17.828125 18.703125 
L 11.1875 0 
L 0.78125 0 
z
" id="DejaVuSans-65"/>
    </defs>
    <g transform="translate(375.22944 212.307571)scale(0.17 -0.17)">
     <use xlink:href="#DejaVuSans-85"/>
     <use x="73.193359" xlink:href="#DejaVuSans-80"/>
     <use x="133.464844" xlink:href="#DejaVuSans-45"/>
     <use x="169.548828" xlink:href="#DejaVuSans-77"/>
     <use x="255.828125" xlink:href="#DejaVuSans-79"/>
     <use x="334.570312" xlink:href="#DejaVuSans-45"/>
     <use x="370.654297" xlink:href="#DejaVuSans-67"/>
     <use x="440.478516" xlink:href="#DejaVuSans-77"/>
     <use x="526.757812" xlink:href="#DejaVuSans-65"/>
    </g>
   </g>
   <g id="text_15">
    <!-- HMO-CMA-E -->
    <defs>
     <path d="M 9.8125 72.90625 
L 19.671875 72.90625 
L 19.671875 43.015625 
L 55.515625 43.015625 
L 55.515625 72.90625 
L 65.375 72.90625 
L 65.375 0 
L 55.515625 0 
L 55.515625 34.71875 
L 19.671875 34.71875 
L 19.671875 0 
L 9.8125 0 
z
" id="DejaVuSans-72"/>
     <path d="M 9.8125 72.90625 
L 55.90625 72.90625 
L 55.90625 64.59375 
L 19.671875 64.59375 
L 19.671875 43.015625 
L 54.390625 43.015625 
L 54.390625 34.71875 
L 19.671875 34.71875 
L 19.671875 8.296875 
L 56.78125 8.296875 
L 56.78125 0 
L 9.8125 0 
z
" id="DejaVuSans-69"/>
    </defs>
    <g transform="translate(375.22944 126.352403)scale(0.17 -0.17)">
     <use xlink:href="#DejaVuSans-72"/>
     <use x="75.195312" xlink:href="#DejaVuSans-77"/>
     <use x="161.474609" xlink:href="#DejaVuSans-79"/>
     <use x="240.216797" xlink:href="#DejaVuSans-45"/>
     <use x="276.300781" xlink:href="#DejaVuSans-67"/>
     <use x="346.125" xlink:href="#DejaVuSans-77"/>
     <use x="432.404297" xlink:href="#DejaVuSans-65"/>
     <use x="500.78125" xlink:href="#DejaVuSans-45"/>
     <use x="536.865234" xlink:href="#DejaVuSans-69"/>
    </g>
   </g>
   <g id="text_16">
    <!-- best 2016 -->
    <defs>
     <path d="M 48.6875 27.296875 
Q 48.6875 37.203125 44.609375 42.84375 
Q 40.53125 48.484375 33.40625 48.484375 
Q 26.265625 48.484375 22.1875 42.84375 
Q 18.109375 37.203125 18.109375 27.296875 
Q 18.109375 17.390625 22.1875 11.75 
Q 26.265625 6.109375 33.40625 6.109375 
Q 40.53125 6.109375 44.609375 11.75 
Q 48.6875 17.390625 48.6875 27.296875 
z
M 18.109375 46.390625 
Q 20.953125 51.265625 25.265625 53.625 
Q 29.59375 56 35.59375 56 
Q 45.5625 56 51.78125 48.09375 
Q 58.015625 40.1875 58.015625 27.296875 
Q 58.015625 14.40625 51.78125 6.484375 
Q 45.5625 -1.421875 35.59375 -1.421875 
Q 29.59375 -1.421875 25.265625 0.953125 
Q 20.953125 3.328125 18.109375 8.203125 
L 18.109375 0 
L 9.078125 0 
L 9.078125 75.984375 
L 18.109375 75.984375 
z
" id="DejaVuSans-98"/>
    </defs>
    <g transform="translate(375.22944 40.397235)scale(0.17 -0.17)">
     <use xlink:href="#DejaVuSans-98"/>
     <use x="63.476562" xlink:href="#DejaVuSans-101"/>
     <use x="125" xlink:href="#DejaVuSans-115"/>
     <use x="177.099609" xlink:href="#DejaVuSans-116"/>
     <use x="216.308594" xlink:href="#DejaVuSans-32"/>
     <use x="248.095703" xlink:href="#DejaVuSans-50"/>
     <use x="311.71875" xlink:href="#DejaVuSans-48"/>
     <use x="375.341797" xlink:href="#DejaVuSans-49"/>
     <use x="438.964844" xlink:href="#DejaVuSans-54"/>
    </g>
   </g>
   <g id="text_17">
    <!-- bbob-biobj f39, 5-D -->
    <defs>
     <path d="M 9.421875 54.6875 
L 18.40625 54.6875 
L 18.40625 -0.984375 
Q 18.40625 -11.421875 14.421875 -16.109375 
Q 10.453125 -20.796875 1.609375 -20.796875 
L -1.8125 -20.796875 
L -1.8125 -13.1875 
L 0.59375 -13.1875 
Q 5.71875 -13.1875 7.5625 -10.8125 
Q 9.421875 -8.453125 9.421875 -0.984375 
z
M 9.421875 75.984375 
L 18.40625 75.984375 
L 18.40625 64.59375 
L 9.421875 64.59375 
z
" id="DejaVuSans-106"/>
     <path d="M 40.578125 39.3125 
Q 47.65625 37.796875 51.625 33 
Q 55.609375 28.21875 55.609375 21.1875 
Q 55.609375 10.40625 48.1875 4.484375 
Q 40.765625 -1.421875 27.09375 -1.421875 
Q 22.515625 -1.421875 17.65625 -0.515625 
Q 12.796875 0.390625 7.625 2.203125 
L 7.625 11.71875 
Q 11.71875 9.328125 16.59375 8.109375 
Q 21.484375 6.890625 26.8125 6.890625 
Q 36.078125 6.890625 40.9375 10.546875 
Q 45.796875 14.203125 45.796875 21.1875 
Q 45.796875 27.640625 41.28125 31.265625 
Q 36.765625 34.90625 28.71875 34.90625 
L 20.21875 34.90625 
L 20.21875 43.015625 
L 29.109375 43.015625 
Q 36.375 43.015625 40.234375 45.921875 
Q 44.09375 48.828125 44.09375 54.296875 
Q 44.09375 59.90625 40.109375 62.90625 
Q 36.140625 65.921875 28.71875 65.921875 
Q 24.65625 65.921875 20.015625 65.03125 
Q 15.375 64.15625 9.8125 62.3125 
L 9.8125 71.09375 
Q 15.4375 72.65625 20.34375 73.4375 
Q 25.25 74.21875 29.59375 74.21875 
Q 40.828125 74.21875 47.359375 69.109375 
Q 53.90625 64.015625 53.90625 55.328125 
Q 53.90625 49.265625 50.4375 45.09375 
Q 46.96875 40.921875 40.578125 39.3125 
z
" id="DejaVuSans-51"/>
     <path d="M 10.984375 1.515625 
L 10.984375 10.5 
Q 14.703125 8.734375 18.5 7.8125 
Q 22.3125 6.890625 25.984375 6.890625 
Q 35.75 6.890625 40.890625 13.453125 
Q 46.046875 20.015625 46.78125 33.40625 
Q 43.953125 29.203125 39.59375 26.953125 
Q 35.25 24.703125 29.984375 24.703125 
Q 19.046875 24.703125 12.671875 31.3125 
Q 6.296875 37.9375 6.296875 49.421875 
Q 6.296875 60.640625 12.9375 67.421875 
Q 19.578125 74.21875 30.609375 74.21875 
Q 43.265625 74.21875 49.921875 64.515625 
Q 56.59375 54.828125 56.59375 36.375 
Q 56.59375 19.140625 48.40625 8.859375 
Q 40.234375 -1.421875 26.421875 -1.421875 
Q 22.703125 -1.421875 18.890625 -0.6875 
Q 15.09375 0.046875 10.984375 1.515625 
z
M 30.609375 32.421875 
Q 37.25 32.421875 41.125 36.953125 
Q 45.015625 41.5 45.015625 49.421875 
Q 45.015625 57.28125 41.125 61.84375 
Q 37.25 66.40625 30.609375 66.40625 
Q 23.96875 66.40625 20.09375 61.84375 
Q 16.21875 57.28125 16.21875 49.421875 
Q 16.21875 41.5 20.09375 36.953125 
Q 23.96875 32.421875 30.609375 32.421875 
z
" id="DejaVuSans-57"/>
     <path d="M 10.796875 72.90625 
L 49.515625 72.90625 
L 49.515625 64.59375 
L 19.828125 64.59375 
L 19.828125 46.734375 
Q 21.96875 47.46875 24.109375 47.828125 
Q 26.265625 48.1875 28.421875 48.1875 
Q 40.625 48.1875 47.75 41.5 
Q 54.890625 34.8125 54.890625 23.390625 
Q 54.890625 11.625 47.5625 5.09375 
Q 40.234375 -1.421875 26.90625 -1.421875 
Q 22.3125 -1.421875 17.546875 -0.640625 
Q 12.796875 0.140625 7.71875 1.703125 
L 7.71875 11.625 
Q 12.109375 9.234375 16.796875 8.0625 
Q 21.484375 6.890625 26.703125 6.890625 
Q 35.15625 6.890625 40.078125 11.328125 
Q 45.015625 15.765625 45.015625 23.390625 
Q 45.015625 31 40.078125 35.4375 
Q 35.15625 39.890625 26.703125 39.890625 
Q 22.75 39.890625 18.8125 39.015625 
Q 14.890625 38.140625 10.796875 36.28125 
z
" id="DejaVuSans-53"/>
     <path d="M 19.671875 64.796875 
L 19.671875 8.109375 
L 31.59375 8.109375 
Q 46.6875 8.109375 53.6875 14.9375 
Q 60.6875 21.78125 60.6875 36.53125 
Q 60.6875 51.171875 53.6875 57.984375 
Q 46.6875 64.796875 31.59375 64.796875 
z
M 9.8125 72.90625 
L 30.078125 72.90625 
Q 51.265625 72.90625 61.171875 64.09375 
Q 71.09375 55.28125 71.09375 36.53125 
Q 71.09375 17.671875 61.125 8.828125 
Q 51.171875 0 30.078125 0 
L 9.8125 0 
z
" id="DejaVuSans-68"/>
    </defs>
    <g transform="translate(60.41088 38.111366)scale(0.102 -0.102)">
     <use xlink:href="#DejaVuSans-98"/>
     <use x="63.476562" xlink:href="#DejaVuSans-98"/>
     <use x="126.953125" xlink:href="#DejaVuSans-111"/>
     <use x="188.134766" xlink:href="#DejaVuSans-98"/>
     <use x="251.611328" xlink:href="#DejaVuSans-45"/>
     <use x="287.695312" xlink:href="#DejaVuSans-98"/>
     <use x="351.171875" xlink:href="#DejaVuSans-105"/>
     <use x="378.955078" xlink:href="#DejaVuSans-111"/>
     <use x="440.136719" xlink:href="#DejaVuSans-98"/>
     <use x="503.613281" xlink:href="#DejaVuSans-106"/>
     <use x="531.396484" xlink:href="#DejaVuSans-32"/>
     <use x="563.183594" xlink:href="#DejaVuSans-102"/>
     <use x="598.388672" xlink:href="#DejaVuSans-51"/>
     <use x="662.011719" xlink:href="#DejaVuSans-57"/>
     <use x="725.634766" xlink:href="#DejaVuSans-44"/>
     <use x="757.421875" xlink:href="#DejaVuSans-32"/>
     <use x="789.208984" xlink:href="#DejaVuSans-53"/>
     <use x="852.832031" xlink:href="#DejaVuSans-45"/>
     <use x="888.916016" xlink:href="#DejaVuSans-68"/>
    </g>
    <!-- 58 targets: 1..-1.0e-4 -->
    <defs>
     <path d="M 11.71875 12.40625 
L 22.015625 12.40625 
L 22.015625 0 
L 11.71875 0 
z
M 11.71875 51.703125 
L 22.015625 51.703125 
L 22.015625 39.3125 
L 11.71875 39.3125 
z
" id="DejaVuSans-58"/>
    </defs>
    <g transform="translate(60.41088 49.533135)scale(0.102 -0.102)">
     <use xlink:href="#DejaVuSans-53"/>
     <use x="63.623047" xlink:href="#DejaVuSans-56"/>
     <use x="127.246094" xlink:href="#DejaVuSans-32"/>
     <use x="159.033203" xlink:href="#DejaVuSans-116"/>
     <use x="198.242188" xlink:href="#DejaVuSans-97"/>
     <use x="259.521484" xlink:href="#DejaVuSans-114"/>
     <use x="300.619141" xlink:href="#DejaVuSans-103"/>
     <use x="364.095703" xlink:href="#DejaVuSans-101"/>
     <use x="425.619141" xlink:href="#DejaVuSans-116"/>
     <use x="464.828125" xlink:href="#DejaVuSans-115"/>
     <use x="516.927734" xlink:href="#DejaVuSans-58"/>
     <use x="550.619141" xlink:href="#DejaVuSans-32"/>
     <use x="582.40625" xlink:href="#DejaVuSans-49"/>
     <use x="646.029297" xlink:href="#DejaVuSans-46"/>
     <use x="677.816406" xlink:href="#DejaVuSans-46"/>
     <use x="709.603516" xlink:href="#DejaVuSans-45"/>
     <use x="745.6875" xlink:href="#DejaVuSans-49"/>
     <use x="809.310547" xlink:href="#DejaVuSans-46"/>
     <use x="841.097656" xlink:href="#DejaVuSans-48"/>
     <use x="904.720703" xlink:href="#DejaVuSans-101"/>
     <use x="966.244141" xlink:href="#DejaVuSans-45"/>
     <use x="1002.328125" xlink:href="#DejaVuSans-52"/>
    </g>
    <!-- 10, 5 instances -->
    <g transform="translate(60.41088 60.954904)scale(0.102 -0.102)">
     <use xlink:href="#DejaVuSans-49"/>
     <use x="63.623047" xlink:href="#DejaVuSans-48"/>
     <use x="127.246094" xlink:href="#DejaVuSans-44"/>
     <use x="159.033203" xlink:href="#DejaVuSans-32"/>
     <use x="190.820312" xlink:href="#DejaVuSans-53"/>
     <use x="254.443359" xlink:href="#DejaVuSans-32"/>
     <use x="286.230469" xlink:href="#DejaVuSans-105"/>
     <use x="314.013672" xlink:href="#DejaVuSans-110"/>
     <use x="377.392578" xlink:href="#DejaVuSans-115"/>
     <use x="429.492188" xlink:href="#DejaVuSans-116"/>
     <use x="468.701172" xlink:href="#DejaVuSans-97"/>
     <use x="529.980469" xlink:href="#DejaVuSans-110"/>
     <use x="593.359375" xlink:href="#DejaVuSans-99"/>
     <use x="648.339844" xlink:href="#DejaVuSans-101"/>
     <use x="709.863281" xlink:href="#DejaVuSans-115"/>
    </g>
   </g>
   <g id="text_18">
    <!-- v2.3.3.43 -->
    <g style="fill:#808080;" transform="translate(174.511187 294.151352)scale(0.1 -0.1)">
     <use xlink:href="#DejaVuSans-118"/>
     <use x="59.179688" xlink:href="#DejaVuSans-50"/>
     <use x="122.802734" xlink:href="#DejaVuSans-46"/>
     <use x="154.589844" xlink:href="#DejaVuSans-51"/>
     <use x="218.212891" xlink:href="#DejaVuSans-46"/>
     <use x="250" xlink:href="#DejaVuSans-51"/>
     <use x="313.623047" xlink:href="#DejaVuSans-46"/>
     <use x="345.410156" xlink:href="#DejaVuSans-52"/>
     <use x="409.033203" xlink:href="#DejaVuSans-51"/>
    </g>
   </g>
   <g id="text_19">
    <!-- 39 Sharp ridge/Schwefel -->
    <defs>
     <path d="M 53.515625 70.515625 
L 53.515625 60.890625 
Q 47.90625 63.578125 42.921875 64.890625 
Q 37.9375 66.21875 33.296875 66.21875 
Q 25.25 66.21875 20.875 63.09375 
Q 16.5 59.96875 16.5 54.203125 
Q 16.5 49.359375 19.40625 46.890625 
Q 22.3125 44.4375 30.421875 42.921875 
L 36.375 41.703125 
Q 47.40625 39.59375 52.65625 34.296875 
Q 57.90625 29 57.90625 20.125 
Q 57.90625 9.515625 50.796875 4.046875 
Q 43.703125 -1.421875 29.984375 -1.421875 
Q 24.8125 -1.421875 18.96875 -0.25 
Q 13.140625 0.921875 6.890625 3.21875 
L 6.890625 13.375 
Q 12.890625 10.015625 18.65625 8.296875 
Q 24.421875 6.59375 29.984375 6.59375 
Q 38.421875 6.59375 43.015625 9.90625 
Q 47.609375 13.234375 47.609375 19.390625 
Q 47.609375 24.75 44.3125 27.78125 
Q 41.015625 30.8125 33.5 32.328125 
L 27.484375 33.5 
Q 16.453125 35.6875 11.515625 40.375 
Q 6.59375 45.0625 6.59375 53.421875 
Q 6.59375 63.09375 13.40625 68.65625 
Q 20.21875 74.21875 32.171875 74.21875 
Q 37.3125 74.21875 42.625 73.28125 
Q 47.953125 72.359375 53.515625 70.515625 
z
" id="DejaVuSans-83"/>
     <path d="M 54.890625 33.015625 
L 54.890625 0 
L 45.90625 0 
L 45.90625 32.71875 
Q 45.90625 40.484375 42.875 44.328125 
Q 39.84375 48.1875 33.796875 48.1875 
Q 26.515625 48.1875 22.3125 43.546875 
Q 18.109375 38.921875 18.109375 30.90625 
L 18.109375 0 
L 9.078125 0 
L 9.078125 75.984375 
L 18.109375 75.984375 
L 18.109375 46.1875 
Q 21.34375 51.125 25.703125 53.5625 
Q 30.078125 56 35.796875 56 
Q 45.21875 56 50.046875 50.171875 
Q 54.890625 44.34375 54.890625 33.015625 
z
" id="DejaVuSans-104"/>
     <path d="M 4.203125 54.6875 
L 13.1875 54.6875 
L 24.421875 12.015625 
L 35.59375 54.6875 
L 46.1875 54.6875 
L 57.421875 12.015625 
L 68.609375 54.6875 
L 77.59375 54.6875 
L 63.28125 0 
L 52.6875 0 
L 40.921875 44.828125 
L 29.109375 0 
L 18.5 0 
z
" id="DejaVuSans-119"/>
    </defs>
    <g transform="translate(75.714312 21.648)scale(0.2 -0.2)">
     <use xlink:href="#DejaVuSans-51"/>
     <use x="63.623047" xlink:href="#DejaVuSans-57"/>
     <use x="127.246094" xlink:href="#DejaVuSans-32"/>
     <use x="159.033203" xlink:href="#DejaVuSans-83"/>
     <use x="222.509766" xlink:href="#DejaVuSans-104"/>
     <use x="285.888672" xlink:href="#DejaVuSans-97"/>
     <use x="347.167969" xlink:href="#DejaVuSans-114"/>
     <use x="388.28125" xlink:href="#DejaVuSans-112"/>
     <use x="451.757812" xlink:href="#DejaVuSans-32"/>
     <use x="483.544922" xlink:href="#DejaVuSans-114"/>
     <use x="524.658203" xlink:href="#DejaVuSans-105"/>
     <use x="552.441406" xlink:href="#DejaVuSans-100"/>
     <use x="615.917969" xlink:href="#DejaVuSans-103"/>
     <use x="679.394531" xlink:href="#DejaVuSans-101"/>
     <use x="740.917969" xlink:href="#DejaVuSans-47"/>
     <use x="774.609375" xlink:href="#DejaVuSans-83"/>
     <use x="838.085938" xlink:href="#DejaVuSans-99"/>
     <use x="893.066406" xlink:href="#DejaVuSans-104"/>
     <use x="956.445312" xlink:href="#DejaVuSans-119"/>
     <use x="1038.232422" xlink:href="#DejaVuSans-101"/>
     <use x="1099.755859" xlink:href="#DejaVuSans-102"/>
     <use x="1134.960938" xlink:href="#DejaVuSans-101"/>
     <use x="1196.484375" xlink:href="#DejaVuSans-108"/>
    </g>
   </g>
  </g>
 </g>
 <defs>
  <clipPath id="p14e6585e7f">
   <rect height="271.296" width="281.088" x="57.6" y="27.648"/>
  </clipPath>
 </defs>
</svg>
