<?xml version="1.0" encoding="utf-8" standalone="no"?>
<!DOCTYPE svg PUBLIC "-//W3C//DTD SVG 1.1//EN"
  "http://www.w3.org/Graphics/SVG/1.1/DTD/svg11.dtd">
<!-- Created with matplotlib (https://matplotlib.org/) -->
<svg height="345.6pt" version="1.1" viewBox="0 0 460.8 345.6" width="460.8pt" xmlns="http://www.w3.org/2000/svg" xmlns:xlink="http://www.w3.org/1999/xlink">
 <defs>
  <style type="text/css">
*{stroke-linecap:butt;stroke-linejoin:round;}
  </style>
 </defs>
 <g id="figure_1">
  <g id="patch_1">
   <path d="M 0 345.6 
L 460.8 345.6 
L 460.8 0 
L 0 0 
z
" style="fill:#ffffff;"/>
  </g>
  <g id="axes_1">
   <g id="patch_2">
    <path d="M 57.6 298.944 
L 338.688 298.944 
L 338.688 27.648 
L 57.6 27.648 
z
" style="fill:#ffffff;"/>
   </g>
   <g id="line2d_1">
    <path d="M 53.708537 298.944 
L 53.708537 294.312795 
L 75.555822 294.312795 
L 75.555822 285.050384 
L 91.029752 285.050384 
L 91.029752 275.787974 
L 106.382575 275.787974 
L 106.382575 271.156769 
L 123.029641 271.156769 
L 123.029641 257.263153 
L 146.452726 257.263153 
L 146.452726 248.000743 
L 155.322646 248.000743 
L 155.322646 243.369538 
L 167.754214 243.369538 
L 167.754214 234.107127 
L 173.55351 234.107127 
L 173.55351 220.213512 
L 175.40763 220.213512 
L 175.40763 210.951101 
L 180.442869 210.951101 
L 180.442869 201.688691 
L 210.295966 201.688691 
L 210.295966 192.426281 
L 215.204353 192.426281 
L 215.204353 187.795075 
L 218.069681 187.795075 
L 218.069681 173.90146 
L 218.844887 173.90146 
L 218.844887 169.270255 
L 219.451434 169.270255 
L 219.451434 155.376639 
L 220.15131 155.376639 
L 220.15131 146.114229 
L 221.33225 146.114229 
L 221.33225 141.483024 
L 223.054426 141.483024 
L 223.054426 127.589408 
L 225.310862 127.589408 
L 225.310862 122.958203 
L 228.682231 122.958203 
L 228.682231 109.064587 
L 232.813194 109.064587 
L 232.813194 99.802177 
L 237.731081 99.802177 
L 237.731081 90.539766 
L 241.964571 90.539766 
L 241.964571 85.908561 
L 246.954143 85.908561 
L 246.954143 76.646151 
L 252.360878 76.646151 
L 252.360878 62.752535 
L 338.688 62.752535 
" style="fill:none;stroke:#f5deb3;stroke-linecap:square;stroke-width:4;"/>
   </g>
   <g id="line2d_2">
    <defs>
     <path d="M 0 7.778175 
L 7.778175 0 
L 0 -7.778175 
L -7.778175 0 
z
" id="m12d8cdef62" style="stroke:#f5deb3;stroke-linejoin:miter;stroke-width:1.5;"/>
    </defs>
    <g>
     <use style="fill:#f5deb3;stroke:#f5deb3;stroke-linejoin:miter;stroke-width:1.5;" x="123.029641" xlink:href="#m12d8cdef62" y="271.156769"/>
     <use style="fill:#f5deb3;stroke:#f5deb3;stroke-linejoin:miter;stroke-width:1.5;" x="180.442869" xlink:href="#m12d8cdef62" y="201.688691"/>
     <use style="fill:#f5deb3;stroke:#f5deb3;stroke-linejoin:miter;stroke-width:1.5;" x="223.054426" xlink:href="#m12d8cdef62" y="141.483024"/>
     <use style="fill:#f5deb3;stroke:#f5deb3;stroke-linejoin:miter;stroke-width:1.5;" x="252.360878" xlink:href="#m12d8cdef62" y="76.646151"/>
     <use style="fill:#f5deb3;stroke:#f5deb3;stroke-linejoin:miter;stroke-width:1.5;" x="252.360878" xlink:href="#m12d8cdef62" y="62.752535"/>
     <use style="fill:#f5deb3;stroke:#f5deb3;stroke-linejoin:miter;stroke-width:1.5;" x="338.688" xlink:href="#m12d8cdef62" y="62.752535"/>
    </g>
   </g>
   <g id="line2d_3">
    <path style="fill:none;stroke:#f5deb3;stroke-linecap:square;stroke-width:4;"/>
    <g/>
   </g>
   <g id="line2d_4">
    <path d="M 338.688 62.752535 
L 369.60768 35.706297 
" style="fill:none;stroke:#f5deb3;stroke-linecap:square;stroke-width:4;"/>
    <g>
     <use style="fill:#f5deb3;stroke:#f5deb3;stroke-linejoin:miter;stroke-width:1.5;" x="338.688" xlink:href="#m12d8cdef62" y="62.752535"/>
     <use style="fill:#f5deb3;stroke:#f5deb3;stroke-linejoin:miter;stroke-width:1.5;" x="369.60768" xlink:href="#m12d8cdef62" y="35.706297"/>
    </g>
   </g>
   <g id="matplotlib.axis_1">
    <g id="xtick_1">
     <g id="line2d_5">
      <path clip-path="url(#p6de676febf)" d="M 57.6 298.944 
L 57.6 27.648 
" style="fill:none;stroke:#b0b0b0;stroke-linecap:square;stroke-width:0.8;"/>
     </g>
     <g id="line2d_6">
      <defs>
       <path d="M 0 0 
L 0 3.5 
" id="m9d1680d38b" style="stroke:#000000;stroke-width:0.8;"/>
      </defs>
      <g>
       <use style="stroke:#000000;stroke-width:0.8;" x="57.6" xlink:href="#m9d1680d38b" y="298.944"/>
      </g>
     </g>
     <g id="text_1">
      <!-- 0 -->
      <defs>
       <path d="M 31.78125 66.40625 
Q 24.171875 66.40625 20.328125 58.90625 
Q 16.5 51.421875 16.5 36.375 
Q 16.5 21.390625 20.328125 13.890625 
Q 24.171875 6.390625 31.78125 6.390625 
Q 39.453125 6.390625 43.28125 13.890625 
Q 47.125 21.390625 47.125 36.375 
Q 47.125 51.421875 43.28125 58.90625 
Q 39.453125 66.40625 31.78125 66.40625 
z
M 31.78125 74.21875 
Q 44.046875 74.21875 50.515625 64.515625 
Q 56.984375 54.828125 56.984375 36.375 
Q 56.984375 17.96875 50.515625 8.265625 
Q 44.046875 -1.421875 31.78125 -1.421875 
Q 19.53125 -1.421875 13.0625 8.265625 
Q 6.59375 17.96875 6.59375 36.375 
Q 6.59375 54.828125 13.0625 64.515625 
Q 19.53125 74.21875 31.78125 74.21875 
z
" id="DejaVuSans-48"/>
      </defs>
      <g transform="translate(51.2375 321.140875)scale(0.2 -0.2)">
       <use xlink:href="#DejaVuSans-48"/>
      </g>
     </g>
    </g>
    <g id="xtick_2">
     <g id="line2d_7">
      <path clip-path="url(#p6de676febf)" d="M 137.910857 298.944 
L 137.910857 27.648 
" style="fill:none;stroke:#b0b0b0;stroke-linecap:square;stroke-width:0.8;"/>
     </g>
     <g id="line2d_8">
      <g>
       <use style="stroke:#000000;stroke-width:0.8;" x="137.910857" xlink:href="#m9d1680d38b" y="298.944"/>
      </g>
     </g>
     <g id="text_2">
      <!-- 2 -->
      <defs>
       <path d="M 19.1875 8.296875 
L 53.609375 8.296875 
L 53.609375 0 
L 7.328125 0 
L 7.328125 8.296875 
Q 12.9375 14.109375 22.625 23.890625 
Q 32.328125 33.6875 34.8125 36.53125 
Q 39.546875 41.84375 41.421875 45.53125 
Q 43.3125 49.21875 43.3125 52.78125 
Q 43.3125 58.59375 39.234375 62.25 
Q 35.15625 65.921875 28.609375 65.921875 
Q 23.96875 65.921875 18.8125 64.3125 
Q 13.671875 62.703125 7.8125 59.421875 
L 7.8125 69.390625 
Q 13.765625 71.78125 18.9375 73 
Q 24.125 74.21875 28.421875 74.21875 
Q 39.75 74.21875 46.484375 68.546875 
Q 53.21875 62.890625 53.21875 53.421875 
Q 53.21875 48.921875 51.53125 44.890625 
Q 49.859375 40.875 45.40625 35.40625 
Q 44.1875 33.984375 37.640625 27.21875 
Q 31.109375 20.453125 19.1875 8.296875 
z
" id="DejaVuSans-50"/>
      </defs>
      <g transform="translate(131.548357 321.140875)scale(0.2 -0.2)">
       <use xlink:href="#DejaVuSans-50"/>
      </g>
     </g>
    </g>
    <g id="xtick_3">
     <g id="line2d_9">
      <path clip-path="url(#p6de676febf)" d="M 218.221714 298.944 
L 218.221714 27.648 
" style="fill:none;stroke:#b0b0b0;stroke-linecap:square;stroke-width:0.8;"/>
     </g>
     <g id="line2d_10">
      <g>
       <use style="stroke:#000000;stroke-width:0.8;" x="218.221714" xlink:href="#m9d1680d38b" y="298.944"/>
      </g>
     </g>
     <g id="text_3">
      <!-- 4 -->
      <defs>
       <path d="M 37.796875 64.3125 
L 12.890625 25.390625 
L 37.796875 25.390625 
z
M 35.203125 72.90625 
L 47.609375 72.90625 
L 47.609375 25.390625 
L 58.015625 25.390625 
L 58.015625 17.1875 
L 47.609375 17.1875 
L 47.609375 0 
L 37.796875 0 
L 37.796875 17.1875 
L 4.890625 17.1875 
L 4.890625 26.703125 
z
" id="DejaVuSans-52"/>
      </defs>
      <g transform="translate(211.859214 321.140875)scale(0.2 -0.2)">
       <use xlink:href="#DejaVuSans-52"/>
      </g>
     </g>
    </g>
    <g id="xtick_4">
     <g id="line2d_11">
      <path clip-path="url(#p6de676febf)" d="M 298.532571 298.944 
L 298.532571 27.648 
" style="fill:none;stroke:#b0b0b0;stroke-linecap:square;stroke-width:0.8;"/>
     </g>
     <g id="line2d_12">
      <g>
       <use style="stroke:#000000;stroke-width:0.8;" x="298.532571" xlink:href="#m9d1680d38b" y="298.944"/>
      </g>
     </g>
     <g id="text_4">
      <!-- 6 -->
      <defs>
       <path d="M 33.015625 40.375 
Q 26.375 40.375 22.484375 35.828125 
Q 18.609375 31.296875 18.609375 23.390625 
Q 18.609375 15.53125 22.484375 10.953125 
Q 26.375 6.390625 33.015625 6.390625 
Q 39.65625 6.390625 43.53125 10.953125 
Q 47.40625 15.53125 47.40625 23.390625 
Q 47.40625 31.296875 43.53125 35.828125 
Q 39.65625 40.375 33.015625 40.375 
z
M 52.59375 71.296875 
L 52.59375 62.3125 
Q 48.875 64.0625 45.09375 64.984375 
Q 41.3125 65.921875 37.59375 65.921875 
Q 27.828125 65.921875 22.671875 59.328125 
Q 17.53125 52.734375 16.796875 39.40625 
Q 19.671875 43.65625 24.015625 45.921875 
Q 28.375 48.1875 33.59375 48.1875 
Q 44.578125 48.1875 50.953125 41.515625 
Q 57.328125 34.859375 57.328125 23.390625 
Q 57.328125 12.15625 50.6875 5.359375 
Q 44.046875 -1.421875 33.015625 -1.421875 
Q 20.359375 -1.421875 13.671875 8.265625 
Q 6.984375 17.96875 6.984375 36.375 
Q 6.984375 53.65625 15.1875 63.9375 
Q 23.390625 74.21875 37.203125 74.21875 
Q 40.921875 74.21875 44.703125 73.484375 
Q 48.484375 72.75 52.59375 71.296875 
z
" id="DejaVuSans-54"/>
      </defs>
      <g transform="translate(292.170071 321.140875)scale(0.2 -0.2)">
       <use xlink:href="#DejaVuSans-54"/>
      </g>
     </g>
    </g>
    <g id="xtick_5">
     <g id="line2d_13">
      <path clip-path="url(#p6de676febf)" d="M 97.755429 298.944 
L 97.755429 27.648 
" style="fill:none;stroke:#b0b0b0;stroke-linecap:square;stroke-width:0.8;"/>
     </g>
     <g id="line2d_14">
      <defs>
       <path d="M 0 0 
L 0 2 
" id="m7856f5ec1d" style="stroke:#000000;stroke-width:0.6;"/>
      </defs>
      <g>
       <use style="stroke:#000000;stroke-width:0.6;" x="97.755429" xlink:href="#m7856f5ec1d" y="298.944"/>
      </g>
     </g>
    </g>
    <g id="xtick_6">
     <g id="line2d_15">
      <path clip-path="url(#p6de676febf)" d="M 178.066286 298.944 
L 178.066286 27.648 
" style="fill:none;stroke:#b0b0b0;stroke-linecap:square;stroke-width:0.8;"/>
     </g>
     <g id="line2d_16">
      <g>
       <use style="stroke:#000000;stroke-width:0.6;" x="178.066286" xlink:href="#m7856f5ec1d" y="298.944"/>
      </g>
     </g>
    </g>
    <g id="xtick_7">
     <g id="line2d_17">
      <path clip-path="url(#p6de676febf)" d="M 258.377143 298.944 
L 258.377143 27.648 
" style="fill:none;stroke:#b0b0b0;stroke-linecap:square;stroke-width:0.8;"/>
     </g>
     <g id="line2d_18">
      <g>
       <use style="stroke:#000000;stroke-width:0.6;" x="258.377143" xlink:href="#m7856f5ec1d" y="298.944"/>
      </g>
     </g>
    </g>
    <g id="xtick_8">
     <g id="line2d_19">
      <path clip-path="url(#p6de676febf)" d="M 338.688 298.944 
L 338.688 27.648 
" style="fill:none;stroke:#b0b0b0;stroke-linecap:square;stroke-width:0.8;"/>
     </g>
     <g id="line2d_20">
      <g>
       <use style="stroke:#000000;stroke-width:0.6;" x="338.688" xlink:href="#m7856f5ec1d" y="298.944"/>
      </g>
     </g>
    </g>
    <g id="text_5">
     <!-- log10(# f-evals / dimension) -->
     <defs>
      <path d="M 9.421875 75.984375 
L 18.40625 75.984375 
L 18.40625 0 
L 9.421875 0 
z
" id="DejaVuSans-108"/>
      <path d="M 30.609375 48.390625 
Q 23.390625 48.390625 19.1875 42.75 
Q 14.984375 37.109375 14.984375 27.296875 
Q 14.984375 17.484375 19.15625 11.84375 
Q 23.34375 6.203125 30.609375 6.203125 
Q 37.796875 6.203125 41.984375 11.859375 
Q 46.1875 17.53125 46.1875 27.296875 
Q 46.1875 37.015625 41.984375 42.703125 
Q 37.796875 48.390625 30.609375 48.390625 
z
M 30.609375 56 
Q 42.328125 56 49.015625 48.375 
Q 55.71875 40.765625 55.71875 27.296875 
Q 55.71875 13.875 49.015625 6.21875 
Q 42.328125 -1.421875 30.609375 -1.421875 
Q 18.84375 -1.421875 12.171875 6.21875 
Q 5.515625 13.875 5.515625 27.296875 
Q 5.515625 40.765625 12.171875 48.375 
Q 18.84375 56 30.609375 56 
z
" id="DejaVuSans-111"/>
      <path d="M 45.40625 27.984375 
Q 45.40625 37.75 41.375 43.109375 
Q 37.359375 48.484375 30.078125 48.484375 
Q 22.859375 48.484375 18.828125 43.109375 
Q 14.796875 37.75 14.796875 27.984375 
Q 14.796875 18.265625 18.828125 12.890625 
Q 22.859375 7.515625 30.078125 7.515625 
Q 37.359375 7.515625 41.375 12.890625 
Q 45.40625 18.265625 45.40625 27.984375 
z
M 54.390625 6.78125 
Q 54.390625 -7.171875 48.1875 -13.984375 
Q 42 -20.796875 29.203125 -20.796875 
Q 24.46875 -20.796875 20.265625 -20.09375 
Q 16.0625 -19.390625 12.109375 -17.921875 
L 12.109375 -9.1875 
Q 16.0625 -11.328125 19.921875 -12.34375 
Q 23.78125 -13.375 27.78125 -13.375 
Q 36.625 -13.375 41.015625 -8.765625 
Q 45.40625 -4.15625 45.40625 5.171875 
L 45.40625 9.625 
Q 42.625 4.78125 38.28125 2.390625 
Q 33.9375 0 27.875 0 
Q 17.828125 0 11.671875 7.65625 
Q 5.515625 15.328125 5.515625 27.984375 
Q 5.515625 40.671875 11.671875 48.328125 
Q 17.828125 56 27.875 56 
Q 33.9375 56 38.28125 53.609375 
Q 42.625 51.21875 45.40625 46.390625 
L 45.40625 54.6875 
L 54.390625 54.6875 
z
" id="DejaVuSans-103"/>
      <path d="M 12.40625 8.296875 
L 28.515625 8.296875 
L 28.515625 63.921875 
L 10.984375 60.40625 
L 10.984375 69.390625 
L 28.421875 72.90625 
L 38.28125 72.90625 
L 38.28125 8.296875 
L 54.390625 8.296875 
L 54.390625 0 
L 12.40625 0 
z
" id="DejaVuSans-49"/>
      <path d="M 31 75.875 
Q 24.46875 64.65625 21.28125 53.65625 
Q 18.109375 42.671875 18.109375 31.390625 
Q 18.109375 20.125 21.3125 9.0625 
Q 24.515625 -2 31 -13.1875 
L 23.1875 -13.1875 
Q 15.875 -1.703125 12.234375 9.375 
Q 8.59375 20.453125 8.59375 31.390625 
Q 8.59375 42.28125 12.203125 53.3125 
Q 15.828125 64.359375 23.1875 75.875 
z
" id="DejaVuSans-40"/>
      <path d="M 51.125 44 
L 36.921875 44 
L 32.8125 27.6875 
L 47.125 27.6875 
z
M 43.796875 71.78125 
L 38.71875 51.515625 
L 52.984375 51.515625 
L 58.109375 71.78125 
L 65.921875 71.78125 
L 60.890625 51.515625 
L 76.125 51.515625 
L 76.125 44 
L 58.984375 44 
L 54.984375 27.6875 
L 70.515625 27.6875 
L 70.515625 20.21875 
L 53.078125 20.21875 
L 48 0 
L 40.1875 0 
L 45.21875 20.21875 
L 30.90625 20.21875 
L 25.875 0 
L 18.015625 0 
L 23.09375 20.21875 
L 7.71875 20.21875 
L 7.71875 27.6875 
L 24.90625 27.6875 
L 29 44 
L 13.28125 44 
L 13.28125 51.515625 
L 30.90625 51.515625 
L 35.890625 71.78125 
z
" id="DejaVuSans-35"/>
      <path id="DejaVuSans-32"/>
      <path d="M 37.109375 75.984375 
L 37.109375 68.5 
L 28.515625 68.5 
Q 23.6875 68.5 21.796875 66.546875 
Q 19.921875 64.59375 19.921875 59.515625 
L 19.921875 54.6875 
L 34.71875 54.6875 
L 34.71875 47.703125 
L 19.921875 47.703125 
L 19.921875 0 
L 10.890625 0 
L 10.890625 47.703125 
L 2.296875 47.703125 
L 2.296875 54.6875 
L 10.890625 54.6875 
L 10.890625 58.5 
Q 10.890625 67.625 15.140625 71.796875 
Q 19.390625 75.984375 28.609375 75.984375 
z
" id="DejaVuSans-102"/>
      <path d="M 4.890625 31.390625 
L 31.203125 31.390625 
L 31.203125 23.390625 
L 4.890625 23.390625 
z
" id="DejaVuSans-45"/>
      <path d="M 56.203125 29.59375 
L 56.203125 25.203125 
L 14.890625 25.203125 
Q 15.484375 15.921875 20.484375 11.0625 
Q 25.484375 6.203125 34.421875 6.203125 
Q 39.59375 6.203125 44.453125 7.46875 
Q 49.3125 8.734375 54.109375 11.28125 
L 54.109375 2.78125 
Q 49.265625 0.734375 44.1875 -0.34375 
Q 39.109375 -1.421875 33.890625 -1.421875 
Q 20.796875 -1.421875 13.15625 6.1875 
Q 5.515625 13.8125 5.515625 26.8125 
Q 5.515625 40.234375 12.765625 48.109375 
Q 20.015625 56 32.328125 56 
Q 43.359375 56 49.78125 48.890625 
Q 56.203125 41.796875 56.203125 29.59375 
z
M 47.21875 32.234375 
Q 47.125 39.59375 43.09375 43.984375 
Q 39.0625 48.390625 32.421875 48.390625 
Q 24.90625 48.390625 20.390625 44.140625 
Q 15.875 39.890625 15.1875 32.171875 
z
" id="DejaVuSans-101"/>
      <path d="M 2.984375 54.6875 
L 12.5 54.6875 
L 29.59375 8.796875 
L 46.6875 54.6875 
L 56.203125 54.6875 
L 35.6875 0 
L 23.484375 0 
z
" id="DejaVuSans-118"/>
      <path d="M 34.28125 27.484375 
Q 23.390625 27.484375 19.1875 25 
Q 14.984375 22.515625 14.984375 16.5 
Q 14.984375 11.71875 18.140625 8.90625 
Q 21.296875 6.109375 26.703125 6.109375 
Q 34.1875 6.109375 38.703125 11.40625 
Q 43.21875 16.703125 43.21875 25.484375 
L 43.21875 27.484375 
z
M 52.203125 31.203125 
L 52.203125 0 
L 43.21875 0 
L 43.21875 8.296875 
Q 40.140625 3.328125 35.546875 0.953125 
Q 30.953125 -1.421875 24.3125 -1.421875 
Q 15.921875 -1.421875 10.953125 3.296875 
Q 6 8.015625 6 15.921875 
Q 6 25.140625 12.171875 29.828125 
Q 18.359375 34.515625 30.609375 34.515625 
L 43.21875 34.515625 
L 43.21875 35.40625 
Q 43.21875 41.609375 39.140625 45 
Q 35.0625 48.390625 27.6875 48.390625 
Q 23 48.390625 18.546875 47.265625 
Q 14.109375 46.140625 10.015625 43.890625 
L 10.015625 52.203125 
Q 14.9375 54.109375 19.578125 55.046875 
Q 24.21875 56 28.609375 56 
Q 40.484375 56 46.34375 49.84375 
Q 52.203125 43.703125 52.203125 31.203125 
z
" id="DejaVuSans-97"/>
      <path d="M 44.28125 53.078125 
L 44.28125 44.578125 
Q 40.484375 46.53125 36.375 47.5 
Q 32.28125 48.484375 27.875 48.484375 
Q 21.1875 48.484375 17.84375 46.4375 
Q 14.5 44.390625 14.5 40.28125 
Q 14.5 37.15625 16.890625 35.375 
Q 19.28125 33.59375 26.515625 31.984375 
L 29.59375 31.296875 
Q 39.15625 29.25 43.1875 25.515625 
Q 47.21875 21.78125 47.21875 15.09375 
Q 47.21875 7.46875 41.1875 3.015625 
Q 35.15625 -1.421875 24.609375 -1.421875 
Q 20.21875 -1.421875 15.453125 -0.5625 
Q 10.6875 0.296875 5.421875 2 
L 5.421875 11.28125 
Q 10.40625 8.6875 15.234375 7.390625 
Q 20.0625 6.109375 24.8125 6.109375 
Q 31.15625 6.109375 34.5625 8.28125 
Q 37.984375 10.453125 37.984375 14.40625 
Q 37.984375 18.0625 35.515625 20.015625 
Q 33.0625 21.96875 24.703125 23.78125 
L 21.578125 24.515625 
Q 13.234375 26.265625 9.515625 29.90625 
Q 5.8125 33.546875 5.8125 39.890625 
Q 5.8125 47.609375 11.28125 51.796875 
Q 16.75 56 26.8125 56 
Q 31.78125 56 36.171875 55.265625 
Q 40.578125 54.546875 44.28125 53.078125 
z
" id="DejaVuSans-115"/>
      <path d="M 25.390625 72.90625 
L 33.6875 72.90625 
L 8.296875 -9.28125 
L 0 -9.28125 
z
" id="DejaVuSans-47"/>
      <path d="M 45.40625 46.390625 
L 45.40625 75.984375 
L 54.390625 75.984375 
L 54.390625 0 
L 45.40625 0 
L 45.40625 8.203125 
Q 42.578125 3.328125 38.25 0.953125 
Q 33.9375 -1.421875 27.875 -1.421875 
Q 17.96875 -1.421875 11.734375 6.484375 
Q 5.515625 14.40625 5.515625 27.296875 
Q 5.515625 40.1875 11.734375 48.09375 
Q 17.96875 56 27.875 56 
Q 33.9375 56 38.25 53.625 
Q 42.578125 51.265625 45.40625 46.390625 
z
M 14.796875 27.296875 
Q 14.796875 17.390625 18.875 11.75 
Q 22.953125 6.109375 30.078125 6.109375 
Q 37.203125 6.109375 41.296875 11.75 
Q 45.40625 17.390625 45.40625 27.296875 
Q 45.40625 37.203125 41.296875 42.84375 
Q 37.203125 48.484375 30.078125 48.484375 
Q 22.953125 48.484375 18.875 42.84375 
Q 14.796875 37.203125 14.796875 27.296875 
z
" id="DejaVuSans-100"/>
      <path d="M 9.421875 54.6875 
L 18.40625 54.6875 
L 18.40625 0 
L 9.421875 0 
z
M 9.421875 75.984375 
L 18.40625 75.984375 
L 18.40625 64.59375 
L 9.421875 64.59375 
z
" id="DejaVuSans-105"/>
      <path d="M 52 44.1875 
Q 55.375 50.25 60.0625 53.125 
Q 64.75 56 71.09375 56 
Q 79.640625 56 84.28125 50.015625 
Q 88.921875 44.046875 88.921875 33.015625 
L 88.921875 0 
L 79.890625 0 
L 79.890625 32.71875 
Q 79.890625 40.578125 77.09375 44.375 
Q 74.3125 48.1875 68.609375 48.1875 
Q 61.625 48.1875 57.5625 43.546875 
Q 53.515625 38.921875 53.515625 30.90625 
L 53.515625 0 
L 44.484375 0 
L 44.484375 32.71875 
Q 44.484375 40.625 41.703125 44.40625 
Q 38.921875 48.1875 33.109375 48.1875 
Q 26.21875 48.1875 22.15625 43.53125 
Q 18.109375 38.875 18.109375 30.90625 
L 18.109375 0 
L 9.078125 0 
L 9.078125 54.6875 
L 18.109375 54.6875 
L 18.109375 46.1875 
Q 21.1875 51.21875 25.484375 53.609375 
Q 29.78125 56 35.6875 56 
Q 41.65625 56 45.828125 52.96875 
Q 50 49.953125 52 44.1875 
z
" id="DejaVuSans-109"/>
      <path d="M 54.890625 33.015625 
L 54.890625 0 
L 45.90625 0 
L 45.90625 32.71875 
Q 45.90625 40.484375 42.875 44.328125 
Q 39.84375 48.1875 33.796875 48.1875 
Q 26.515625 48.1875 22.3125 43.546875 
Q 18.109375 38.921875 18.109375 30.90625 
L 18.109375 0 
L 9.078125 0 
L 9.078125 54.6875 
L 18.109375 54.6875 
L 18.109375 46.1875 
Q 21.34375 51.125 25.703125 53.5625 
Q 30.078125 56 35.796875 56 
Q 45.21875 56 50.046875 50.171875 
Q 54.890625 44.34375 54.890625 33.015625 
z
" id="DejaVuSans-110"/>
      <path d="M 8.015625 75.875 
L 15.828125 75.875 
Q 23.140625 64.359375 26.78125 53.3125 
Q 30.421875 42.28125 30.421875 31.390625 
Q 30.421875 20.453125 26.78125 9.375 
Q 23.140625 -1.703125 15.828125 -13.1875 
L 8.015625 -13.1875 
Q 14.5 -2 17.703125 9.0625 
Q 20.90625 20.125 20.90625 31.390625 
Q 20.90625 42.671875 17.703125 53.65625 
Q 14.5 64.65625 8.015625 75.875 
z
" id="DejaVuSans-41"/>
     </defs>
     <g transform="translate(77.303219 342.217594)scale(0.17 -0.17)">
      <use xlink:href="#DejaVuSans-108"/>
      <use x="27.783203" xlink:href="#DejaVuSans-111"/>
      <use x="88.964844" xlink:href="#DejaVuSans-103"/>
      <use x="152.441406" xlink:href="#DejaVuSans-49"/>
      <use x="216.064453" xlink:href="#DejaVuSans-48"/>
      <use x="279.6875" xlink:href="#DejaVuSans-40"/>
      <use x="318.701172" xlink:href="#DejaVuSans-35"/>
      <use x="402.490234" xlink:href="#DejaVuSans-32"/>
      <use x="434.277344" xlink:href="#DejaVuSans-102"/>
      <use x="469.404297" xlink:href="#DejaVuSans-45"/>
      <use x="505.488281" xlink:href="#DejaVuSans-101"/>
      <use x="567.011719" xlink:href="#DejaVuSans-118"/>
      <use x="626.191406" xlink:href="#DejaVuSans-97"/>
      <use x="687.470703" xlink:href="#DejaVuSans-108"/>
      <use x="715.253906" xlink:href="#DejaVuSans-115"/>
      <use x="767.353516" xlink:href="#DejaVuSans-32"/>
      <use x="799.140625" xlink:href="#DejaVuSans-47"/>
      <use x="832.832031" xlink:href="#DejaVuSans-32"/>
      <use x="864.619141" xlink:href="#DejaVuSans-100"/>
      <use x="928.095703" xlink:href="#DejaVuSans-105"/>
      <use x="955.878906" xlink:href="#DejaVuSans-109"/>
      <use x="1053.291016" xlink:href="#DejaVuSans-101"/>
      <use x="1114.814453" xlink:href="#DejaVuSans-110"/>
      <use x="1178.193359" xlink:href="#DejaVuSans-115"/>
      <use x="1230.292969" xlink:href="#DejaVuSans-105"/>
      <use x="1258.076172" xlink:href="#DejaVuSans-111"/>
      <use x="1319.257812" xlink:href="#DejaVuSans-110"/>
      <use x="1382.636719" xlink:href="#DejaVuSans-41"/>
     </g>
    </g>
   </g>
   <g id="matplotlib.axis_2">
    <g id="ytick_1">
     <g id="line2d_21">
      <path clip-path="url(#p6de676febf)" d="M 57.6 298.944 
L 338.688 298.944 
" style="fill:none;stroke:#b0b0b0;stroke-linecap:square;stroke-width:0.8;"/>
     </g>
     <g id="line2d_22">
      <defs>
       <path d="M 0 0 
L -3.5 0 
" id="m7845045ad7" style="stroke:#000000;stroke-width:0.8;"/>
      </defs>
      <g>
       <use style="stroke:#000000;stroke-width:0.8;" x="57.6" xlink:href="#m7845045ad7" y="298.944"/>
      </g>
     </g>
     <g id="text_6">
      <!-- 0.0 -->
      <defs>
       <path d="M 10.6875 12.40625 
L 21 12.40625 
L 21 0 
L 10.6875 0 
z
" id="DejaVuSans-46"/>
      </defs>
      <g transform="translate(25.155 305.02275)scale(0.16 -0.16)">
       <use xlink:href="#DejaVuSans-48"/>
       <use x="63.623047" xlink:href="#DejaVuSans-46"/>
       <use x="95.410156" xlink:href="#DejaVuSans-48"/>
      </g>
     </g>
    </g>
    <g id="ytick_2">
     <g id="line2d_23">
      <path clip-path="url(#p6de676febf)" d="M 57.6 245.22202 
L 338.688 245.22202 
" style="fill:none;stroke:#b0b0b0;stroke-linecap:square;stroke-width:0.8;"/>
     </g>
     <g id="line2d_24">
      <g>
       <use style="stroke:#000000;stroke-width:0.8;" x="57.6" xlink:href="#m7845045ad7" y="245.22202"/>
      </g>
     </g>
     <g id="text_7">
      <!-- 0.2 -->
      <g transform="translate(25.155 251.30077)scale(0.16 -0.16)">
       <use xlink:href="#DejaVuSans-48"/>
       <use x="63.623047" xlink:href="#DejaVuSans-46"/>
       <use x="95.410156" xlink:href="#DejaVuSans-50"/>
      </g>
     </g>
    </g>
    <g id="ytick_3">
     <g id="line2d_25">
      <path clip-path="url(#p6de676febf)" d="M 57.6 191.50004 
L 338.688 191.50004 
" style="fill:none;stroke:#b0b0b0;stroke-linecap:square;stroke-width:0.8;"/>
     </g>
     <g id="line2d_26">
      <g>
       <use style="stroke:#000000;stroke-width:0.8;" x="57.6" xlink:href="#m7845045ad7" y="191.50004"/>
      </g>
     </g>
     <g id="text_8">
      <!-- 0.4 -->
      <g transform="translate(25.155 197.57879)scale(0.16 -0.16)">
       <use xlink:href="#DejaVuSans-48"/>
       <use x="63.623047" xlink:href="#DejaVuSans-46"/>
       <use x="95.410156" xlink:href="#DejaVuSans-52"/>
      </g>
     </g>
    </g>
    <g id="ytick_4">
     <g id="line2d_27">
      <path clip-path="url(#p6de676febf)" d="M 57.6 137.778059 
L 338.688 137.778059 
" style="fill:none;stroke:#b0b0b0;stroke-linecap:square;stroke-width:0.8;"/>
     </g>
     <g id="line2d_28">
      <g>
       <use style="stroke:#000000;stroke-width:0.8;" x="57.6" xlink:href="#m7845045ad7" y="137.778059"/>
      </g>
     </g>
     <g id="text_9">
      <!-- 0.6 -->
      <g transform="translate(25.155 143.856809)scale(0.16 -0.16)">
       <use xlink:href="#DejaVuSans-48"/>
       <use x="63.623047" xlink:href="#DejaVuSans-46"/>
       <use x="95.410156" xlink:href="#DejaVuSans-54"/>
      </g>
     </g>
    </g>
    <g id="ytick_5">
     <g id="line2d_29">
      <path clip-path="url(#p6de676febf)" d="M 57.6 84.056079 
L 338.688 84.056079 
" style="fill:none;stroke:#b0b0b0;stroke-linecap:square;stroke-width:0.8;"/>
     </g>
     <g id="line2d_30">
      <g>
       <use style="stroke:#000000;stroke-width:0.8;" x="57.6" xlink:href="#m7845045ad7" y="84.056079"/>
      </g>
     </g>
     <g id="text_10">
      <!-- 0.8 -->
      <defs>
       <path d="M 31.78125 34.625 
Q 24.75 34.625 20.71875 30.859375 
Q 16.703125 27.09375 16.703125 20.515625 
Q 16.703125 13.921875 20.71875 10.15625 
Q 24.75 6.390625 31.78125 6.390625 
Q 38.8125 6.390625 42.859375 10.171875 
Q 46.921875 13.96875 46.921875 20.515625 
Q 46.921875 27.09375 42.890625 30.859375 
Q 38.875 34.625 31.78125 34.625 
z
M 21.921875 38.8125 
Q 15.578125 40.375 12.03125 44.71875 
Q 8.5 49.078125 8.5 55.328125 
Q 8.5 64.0625 14.71875 69.140625 
Q 20.953125 74.21875 31.78125 74.21875 
Q 42.671875 74.21875 48.875 69.140625 
Q 55.078125 64.0625 55.078125 55.328125 
Q 55.078125 49.078125 51.53125 44.71875 
Q 48 40.375 41.703125 38.8125 
Q 48.828125 37.15625 52.796875 32.3125 
Q 56.78125 27.484375 56.78125 20.515625 
Q 56.78125 9.90625 50.3125 4.234375 
Q 43.84375 -1.421875 31.78125 -1.421875 
Q 19.734375 -1.421875 13.25 4.234375 
Q 6.78125 9.90625 6.78125 20.515625 
Q 6.78125 27.484375 10.78125 32.3125 
Q 14.796875 37.15625 21.921875 38.8125 
z
M 18.3125 54.390625 
Q 18.3125 48.734375 21.84375 45.5625 
Q 25.390625 42.390625 31.78125 42.390625 
Q 38.140625 42.390625 41.71875 45.5625 
Q 45.3125 48.734375 45.3125 54.390625 
Q 45.3125 60.0625 41.71875 63.234375 
Q 38.140625 66.40625 31.78125 66.40625 
Q 25.390625 66.40625 21.84375 63.234375 
Q 18.3125 60.0625 18.3125 54.390625 
z
" id="DejaVuSans-56"/>
      </defs>
      <g transform="translate(25.155 90.134829)scale(0.16 -0.16)">
       <use xlink:href="#DejaVuSans-48"/>
       <use x="63.623047" xlink:href="#DejaVuSans-46"/>
       <use x="95.410156" xlink:href="#DejaVuSans-56"/>
      </g>
     </g>
    </g>
    <g id="ytick_6">
     <g id="line2d_31">
      <path clip-path="url(#p6de676febf)" d="M 57.6 30.334099 
L 338.688 30.334099 
" style="fill:none;stroke:#b0b0b0;stroke-linecap:square;stroke-width:0.8;"/>
     </g>
     <g id="line2d_32">
      <g>
       <use style="stroke:#000000;stroke-width:0.8;" x="57.6" xlink:href="#m7845045ad7" y="30.334099"/>
      </g>
     </g>
     <g id="text_11">
      <!-- 1.0 -->
      <g transform="translate(25.155 36.412849)scale(0.16 -0.16)">
       <use xlink:href="#DejaVuSans-49"/>
       <use x="63.623047" xlink:href="#DejaVuSans-46"/>
       <use x="95.410156" xlink:href="#DejaVuSans-48"/>
      </g>
     </g>
    </g>
    <g id="text_12">
     <!-- Fraction of function,target pairs -->
     <defs>
      <path d="M 9.8125 72.90625 
L 51.703125 72.90625 
L 51.703125 64.59375 
L 19.671875 64.59375 
L 19.671875 43.109375 
L 48.578125 43.109375 
L 48.578125 34.8125 
L 19.671875 34.8125 
L 19.671875 0 
L 9.8125 0 
z
" id="DejaVuSans-70"/>
      <path d="M 41.109375 46.296875 
Q 39.59375 47.171875 37.8125 47.578125 
Q 36.03125 48 33.890625 48 
Q 26.265625 48 22.1875 43.046875 
Q 18.109375 38.09375 18.109375 28.8125 
L 18.109375 0 
L 9.078125 0 
L 9.078125 54.6875 
L 18.109375 54.6875 
L 18.109375 46.1875 
Q 20.953125 51.171875 25.484375 53.578125 
Q 30.03125 56 36.53125 56 
Q 37.453125 56 38.578125 55.875 
Q 39.703125 55.765625 41.0625 55.515625 
z
" id="DejaVuSans-114"/>
      <path d="M 48.78125 52.59375 
L 48.78125 44.1875 
Q 44.96875 46.296875 41.140625 47.34375 
Q 37.3125 48.390625 33.40625 48.390625 
Q 24.65625 48.390625 19.8125 42.84375 
Q 14.984375 37.3125 14.984375 27.296875 
Q 14.984375 17.28125 19.8125 11.734375 
Q 24.65625 6.203125 33.40625 6.203125 
Q 37.3125 6.203125 41.140625 7.25 
Q 44.96875 8.296875 48.78125 10.40625 
L 48.78125 2.09375 
Q 45.015625 0.34375 40.984375 -0.53125 
Q 36.96875 -1.421875 32.421875 -1.421875 
Q 20.0625 -1.421875 12.78125 6.34375 
Q 5.515625 14.109375 5.515625 27.296875 
Q 5.515625 40.671875 12.859375 48.328125 
Q 20.21875 56 33.015625 56 
Q 37.15625 56 41.109375 55.140625 
Q 45.0625 54.296875 48.78125 52.59375 
z
" id="DejaVuSans-99"/>
      <path d="M 18.3125 70.21875 
L 18.3125 54.6875 
L 36.8125 54.6875 
L 36.8125 47.703125 
L 18.3125 47.703125 
L 18.3125 18.015625 
Q 18.3125 11.328125 20.140625 9.421875 
Q 21.96875 7.515625 27.59375 7.515625 
L 36.8125 7.515625 
L 36.8125 0 
L 27.59375 0 
Q 17.1875 0 13.234375 3.875 
Q 9.28125 7.765625 9.28125 18.015625 
L 9.28125 47.703125 
L 2.6875 47.703125 
L 2.6875 54.6875 
L 9.28125 54.6875 
L 9.28125 70.21875 
z
" id="DejaVuSans-116"/>
      <path d="M 8.5 21.578125 
L 8.5 54.6875 
L 17.484375 54.6875 
L 17.484375 21.921875 
Q 17.484375 14.15625 20.5 10.265625 
Q 23.53125 6.390625 29.59375 6.390625 
Q 36.859375 6.390625 41.078125 11.03125 
Q 45.3125 15.671875 45.3125 23.6875 
L 45.3125 54.6875 
L 54.296875 54.6875 
L 54.296875 0 
L 45.3125 0 
L 45.3125 8.40625 
Q 42.046875 3.421875 37.71875 1 
Q 33.40625 -1.421875 27.6875 -1.421875 
Q 18.265625 -1.421875 13.375 4.4375 
Q 8.5 10.296875 8.5 21.578125 
z
M 31.109375 56 
z
" id="DejaVuSans-117"/>
      <path d="M 11.71875 12.40625 
L 22.015625 12.40625 
L 22.015625 4 
L 14.015625 -11.625 
L 7.71875 -11.625 
L 11.71875 4 
z
" id="DejaVuSans-44"/>
      <path d="M 18.109375 8.203125 
L 18.109375 -20.796875 
L 9.078125 -20.796875 
L 9.078125 54.6875 
L 18.109375 54.6875 
L 18.109375 46.390625 
Q 20.953125 51.265625 25.265625 53.625 
Q 29.59375 56 35.59375 56 
Q 45.5625 56 51.78125 48.09375 
Q 58.015625 40.1875 58.015625 27.296875 
Q 58.015625 14.40625 51.78125 6.484375 
Q 45.5625 -1.421875 35.59375 -1.421875 
Q 29.59375 -1.421875 25.265625 0.953125 
Q 20.953125 3.328125 18.109375 8.203125 
z
M 48.6875 27.296875 
Q 48.6875 37.203125 44.609375 42.84375 
Q 40.53125 48.484375 33.40625 48.484375 
Q 26.265625 48.484375 22.1875 42.84375 
Q 18.109375 37.203125 18.109375 27.296875 
Q 18.109375 17.390625 22.1875 11.75 
Q 26.265625 6.109375 33.40625 6.109375 
Q 40.53125 6.109375 44.609375 11.75 
Q 48.6875 17.390625 48.6875 27.296875 
z
" id="DejaVuSans-112"/>
     </defs>
     <g transform="translate(17.619531 298.435375)rotate(-90)scale(0.17 -0.17)">
      <use xlink:href="#DejaVuSans-70"/>
      <use x="57.410156" xlink:href="#DejaVuSans-114"/>
      <use x="98.523438" xlink:href="#DejaVuSans-97"/>
      <use x="159.802734" xlink:href="#DejaVuSans-99"/>
      <use x="214.783203" xlink:href="#DejaVuSans-116"/>
      <use x="253.992188" xlink:href="#DejaVuSans-105"/>
      <use x="281.775391" xlink:href="#DejaVuSans-111"/>
      <use x="342.957031" xlink:href="#DejaVuSans-110"/>
      <use x="406.335938" xlink:href="#DejaVuSans-32"/>
      <use x="438.123047" xlink:href="#DejaVuSans-111"/>
      <use x="499.304688" xlink:href="#DejaVuSans-102"/>
      <use x="534.509766" xlink:href="#DejaVuSans-32"/>
      <use x="566.296875" xlink:href="#DejaVuSans-102"/>
      <use x="601.501953" xlink:href="#DejaVuSans-117"/>
      <use x="664.880859" xlink:href="#DejaVuSans-110"/>
      <use x="728.259766" xlink:href="#DejaVuSans-99"/>
      <use x="783.240234" xlink:href="#DejaVuSans-116"/>
      <use x="822.449219" xlink:href="#DejaVuSans-105"/>
      <use x="850.232422" xlink:href="#DejaVuSans-111"/>
      <use x="911.414062" xlink:href="#DejaVuSans-110"/>
      <use x="974.792969" xlink:href="#DejaVuSans-44"/>
      <use x="1006.580078" xlink:href="#DejaVuSans-116"/>
      <use x="1045.789062" xlink:href="#DejaVuSans-97"/>
      <use x="1107.068359" xlink:href="#DejaVuSans-114"/>
      <use x="1148.166016" xlink:href="#DejaVuSans-103"/>
      <use x="1211.642578" xlink:href="#DejaVuSans-101"/>
      <use x="1273.166016" xlink:href="#DejaVuSans-116"/>
      <use x="1312.375" xlink:href="#DejaVuSans-32"/>
      <use x="1344.162109" xlink:href="#DejaVuSans-112"/>
      <use x="1407.638672" xlink:href="#DejaVuSans-97"/>
      <use x="1468.917969" xlink:href="#DejaVuSans-105"/>
      <use x="1496.701172" xlink:href="#DejaVuSans-114"/>
      <use x="1537.814453" xlink:href="#DejaVuSans-115"/>
     </g>
    </g>
   </g>
   <g id="line2d_33">
    <defs>
     <path d="M 0 1.5 
C 0.397805 1.5 0.77937 1.341951 1.06066 1.06066 
C 1.341951 0.77937 1.5 0.397805 1.5 0 
C 1.5 -0.397805 1.341951 -0.77937 1.06066 -1.06066 
C 0.77937 -1.341951 0.397805 -1.5 0 -1.5 
C -0.397805 -1.5 -0.77937 -1.341951 -1.06066 -1.06066 
C -1.341951 -0.77937 -1.5 -0.397805 -1.5 0 
C -1.5 0.397805 -1.341951 0.77937 -1.06066 1.06066 
C -0.77937 1.341951 -0.397805 1.5 0 1.5 
z
" id="m07f939c359" style="stroke:#f5deb3;"/>
    </defs>
    <g>
     <use style="fill:#f5deb3;stroke:#f5deb3;" x="252.360878" xlink:href="#m07f939c359" y="62.752535"/>
     <use style="fill:#f5deb3;stroke:#f5deb3;" x="252.360878" xlink:href="#m07f939c359" y="62.752535"/>
    </g>
   </g>
   <g id="line2d_34">
    <defs>
     <path d="M 0 1.5 
C 0.397805 1.5 0.77937 1.341951 1.06066 1.06066 
C 1.341951 0.77937 1.5 0.397805 1.5 0 
C 1.5 -0.397805 1.341951 -0.77937 1.06066 -1.06066 
C 0.77937 -1.341951 0.397805 -1.5 0 -1.5 
C -0.397805 -1.5 -0.77937 -1.341951 -1.06066 -1.06066 
C -1.341951 -0.77937 -1.5 -0.397805 -1.5 0 
C -1.5 0.397805 -1.341951 0.77937 -1.06066 1.06066 
C -0.77937 1.341951 -0.397805 1.5 0 1.5 
z
" id="m3ce1faf56f" style="stroke:#000080;"/>
    </defs>
    <g>
     <use style="fill:#000080;stroke:#000080;" x="243.826735" xlink:href="#m3ce1faf56f" y="157.229121"/>
     <use style="fill:#000080;stroke:#000080;" x="243.826735" xlink:href="#m3ce1faf56f" y="157.229121"/>
    </g>
   </g>
   <g id="line2d_35">
    <path d="M 29.53256 298.944 
L 29.53256 292.460313 
L 53.708537 292.460313 
L 53.708537 291.534072 
L 65.796525 291.534072 
L 65.796525 290.607831 
L 67.850577 290.607831 
L 67.850577 289.68159 
L 71.35013 289.68159 
L 71.35013 288.755349 
L 76.759008 288.755349 
L 76.759008 287.829108 
L 82.626842 287.829108 
L 82.626842 285.976625 
L 90.509138 285.976625 
L 90.509138 285.050384 
L 96.676366 285.050384 
L 96.676366 283.197902 
L 98.43941 283.197902 
L 98.43941 282.271661 
L 99.097574 282.271661 
L 99.097574 281.34542 
L 99.731799 281.34542 
L 99.731799 280.419179 
L 103.870632 280.419179 
L 103.870632 279.492938 
L 104.592361 279.492938 
L 104.592361 278.566697 
L 104.826449 278.566697 
L 104.826449 277.640456 
L 106.802819 277.640456 
L 106.802819 276.714215 
L 109.843417 276.714215 
L 109.843417 275.787974 
L 110.188761 275.787974 
L 110.188761 274.861733 
L 111.505558 274.861733 
L 111.505558 273.935492 
L 111.663381 273.935492 
L 111.663381 271.156769 
L 114.947365 271.156769 
L 114.947365 270.230528 
L 115.33349 270.230528 
L 115.33349 269.304287 
L 115.835374 269.304287 
L 115.835374 266.525564 
L 117.598418 266.525564 
L 117.598418 265.599323 
L 118.681952 265.599323 
L 118.681952 264.673082 
L 121.219499 264.673082 
L 121.219499 263.746841 
L 122.865118 263.746841 
L 122.865118 261.894358 
L 128.768338 261.894358 
L 128.827155 259.115635 
L 129.233413 259.115635 
L 129.233413 258.189394 
L 130.073348 258.189394 
L 130.073348 257.263153 
L 132.470242 257.263153 
L 132.470242 256.336912 
L 134.192921 256.336912 
L 134.192921 255.410671 
L 138.084384 255.410671 
L 138.084384 254.48443 
L 139.824833 254.48443 
L 139.824833 253.558189 
L 140.134598 253.558189 
L 140.134598 252.631948 
L 141.996555 252.631948 
L 141.996555 251.705707 
L 144.53439 251.705707 
L 144.53439 249.853225 
L 145.189903 249.853225 
L 145.258697 247.074502 
L 147.650212 247.074502 
L 147.650212 246.148261 
L 152.721966 246.148261 
L 152.721966 245.22202 
L 153.380683 245.22202 
L 153.380683 243.369538 
L 154.385464 243.369538 
L 154.385464 242.443297 
L 155.063706 242.443297 
L 155.063706 241.517056 
L 161.6095 241.517056 
L 161.6095 239.664574 
L 162.156452 239.664574 
L 162.225793 236.88585 
L 162.995734 236.88585 
L 163.053576 233.180886 
L 164.295217 233.180886 
L 164.295217 232.254645 
L 172.42439 232.254645 
L 172.42439 230.402163 
L 173.621148 230.402163 
L 173.621148 229.475922 
L 174.575644 229.475922 
L 174.575644 228.549681 
L 175.436043 228.549681 
L 175.436043 226.697199 
L 177.98588 226.697199 
L 177.98588 225.770958 
L 182.593369 225.770958 
L 182.593369 224.844717 
L 184.15691 224.844717 
L 184.15691 222.992235 
L 185.079078 222.992235 
L 185.079078 221.139753 
L 188.434663 221.139753 
L 188.434663 220.213512 
L 188.610839 220.213512 
L 188.610839 219.287271 
L 189.529347 219.287271 
L 189.561853 216.508548 
L 189.682316 216.508548 
L 189.760976 213.729825 
L 189.830403 213.729825 
L 189.830403 211.877342 
L 191.392768 211.877342 
L 191.483497 209.098619 
L 191.517399 209.098619 
L 191.517399 208.172378 
L 191.944361 208.172378 
L 191.944361 207.246137 
L 192.118184 207.246137 
L 192.118184 205.393655 
L 193.139467 205.393655 
L 193.152688 201.688691 
L 193.250797 201.688691 
L 193.250797 200.76245 
L 193.672049 200.76245 
L 193.672049 199.836209 
L 195.236083 199.836209 
L 195.330951 197.983727 
L 196.032071 197.983727 
L 196.123954 195.205004 
L 196.235057 195.205004 
L 196.235057 193.352522 
L 196.37966 193.352522 
L 196.37966 192.426281 
L 197.07584 192.426281 
L 197.07584 190.573799 
L 197.527271 190.573799 
L 197.527271 188.721316 
L 198.918059 188.721316 
L 198.927552 185.942593 
L 200.203137 185.942593 
L 200.203137 185.016352 
L 201.538529 185.016352 
L 201.538529 184.090111 
L 204.273822 184.090111 
L 204.273822 183.16387 
L 204.536478 183.16387 
L 204.536478 182.237629 
L 206.594945 182.237629 
L 206.594945 180.385147 
L 210.133117 180.385147 
L 210.133117 179.458906 
L 214.499029 179.458906 
L 214.606213 176.680183 
L 217.877222 176.680183 
L 217.877222 175.753942 
L 221.732646 175.753942 
L 221.732646 174.827701 
L 223.905971 174.827701 
L 223.905971 172.975219 
L 224.060126 172.975219 
L 224.160159 170.196496 
L 224.451005 170.196496 
L 224.451005 168.344014 
L 228.524337 168.344014 
L 228.524337 167.417773 
L 229.360763 167.417773 
L 229.360763 165.565291 
L 232.668016 165.565291 
L 232.668016 163.712808 
L 233.135308 163.712808 
L 233.135308 162.786567 
L 236.620185 162.786567 
L 236.620185 161.860326 
L 237.894401 161.860326 
L 237.894401 160.934085 
L 240.016603 160.934085 
L 240.016603 160.007844 
L 240.13832 160.007844 
L 240.13832 158.155362 
L 243.826735 158.155362 
L 243.826735 157.229121 
L 338.688 157.229121 
L 338.688 157.229121 
" style="fill:none;stroke:#000080;stroke-linecap:square;stroke-width:1.5;"/>
   </g>
   <g id="line2d_36">
    <defs>
     <path d="M 0 6 
C 1.591219 6 3.117479 5.367802 4.242641 4.242641 
C 5.367802 3.117479 6 1.591219 6 0 
C 6 -1.591219 5.367802 -3.117479 4.242641 -4.242641 
C 3.117479 -5.367802 1.591219 -6 0 -6 
C -1.591219 -6 -3.117479 -5.367802 -4.242641 -4.242641 
C -5.367802 -3.117479 -6 -1.591219 -6 0 
C -6 1.591219 -5.367802 3.117479 -4.242641 4.242641 
C -3.117479 5.367802 -1.591219 6 0 6 
z
" id="mdce917413d" style="stroke:#000080;stroke-width:1.5;"/>
    </defs>
    <g>
     <use style="fill-opacity:0;stroke:#000080;stroke-width:1.5;" x="99.731799" xlink:href="#mdce917413d" y="280.419179"/>
     <use style="fill-opacity:0;stroke:#000080;stroke-width:1.5;" x="155.063706" xlink:href="#mdce917413d" y="242.443297"/>
     <use style="fill-opacity:0;stroke:#000080;stroke-width:1.5;" x="206.594945" xlink:href="#mdce917413d" y="180.385147"/>
     <use style="fill-opacity:0;stroke:#000080;stroke-width:1.5;" x="243.826735" xlink:href="#mdce917413d" y="157.229121"/>
     <use style="fill-opacity:0;stroke:#000080;stroke-width:1.5;" x="243.826735" xlink:href="#mdce917413d" y="157.229121"/>
     <use style="fill-opacity:0;stroke:#000080;stroke-width:1.5;" x="338.688" xlink:href="#mdce917413d" y="157.229121"/>
    </g>
   </g>
   <g id="line2d_37">
    <path style="fill:none;stroke:#000080;stroke-linecap:square;stroke-width:1.5;"/>
    <g/>
   </g>
   <g id="line2d_38">
    <path clip-path="url(#p6de676febf)" d="M 246.289433 157.229121 
" style="fill:none;stroke:#000080;stroke-linecap:square;stroke-width:1.5;"/>
    <defs>
     <path d="M -12 12 
L 12 -12 
M -12 -12 
L 12 12 
" id="m394a3268da" style="stroke:#000080;"/>
    </defs>
    <g clip-path="url(#p6de676febf)">
     <use style="fill:#000080;stroke:#000080;" x="246.289433" xlink:href="#m394a3268da" y="157.229121"/>
    </g>
   </g>
   <g id="line2d_39">
    <defs>
     <path d="M 0 1.5 
C 0.397805 1.5 0.77937 1.341951 1.06066 1.06066 
C 1.341951 0.77937 1.5 0.397805 1.5 0 
C 1.5 -0.397805 1.341951 -0.77937 1.06066 -1.06066 
C 0.77937 -1.341951 0.397805 -1.5 0 -1.5 
C -0.397805 -1.5 -0.77937 -1.341951 -1.06066 -1.06066 
C -1.341951 -0.77937 -1.5 -0.397805 -1.5 0 
C -1.5 0.397805 -1.341951 0.77937 -1.06066 1.06066 
C -0.77937 1.341951 -0.397805 1.5 0 1.5 
z
" id="m6445d5d5ab" style="stroke:#ff00ff;"/>
    </defs>
    <g>
     <use style="fill:#ff00ff;stroke:#ff00ff;" x="271.576053" xlink:href="#m6445d5d5ab" y="62.752535"/>
     <use style="fill:#ff00ff;stroke:#ff00ff;" x="271.576053" xlink:href="#m6445d5d5ab" y="62.752535"/>
    </g>
   </g>
   <g id="line2d_40">
    <path d="M 29.53256 298.944 
L 29.53256 294.775915 
L 41.620548 294.775915 
L 41.620548 289.68159 
L 48.691568 289.68159 
L 48.691568 289.218469 
L 57.6 289.218469 
L 57.6 288.755349 
L 60.779557 288.755349 
L 60.779557 286.439746 
L 65.796525 286.439746 
L 65.796525 283.661023 
L 69.687988 283.661023 
L 69.687988 283.197902 
L 72.867545 283.197902 
L 72.867545 282.734782 
L 74.263433 282.734782 
L 74.263433 282.271661 
L 76.759008 282.271661 
L 76.759008 281.808541 
L 77.884514 281.808541 
L 77.884514 280.8823 
L 78.941764 280.8823 
L 78.941764 280.419179 
L 81.775977 280.419179 
L 81.775977 279.956059 
L 84.213325 279.956059 
L 84.213325 279.029818 
L 84.955534 279.029818 
L 84.955534 278.103577 
L 87.009585 278.103577 
L 87.009585 277.640456 
L 88.255778 277.640456 
L 88.255778 277.177336 
L 88.846997 277.177336 
L 88.846997 276.251095 
L 92.504372 276.251095 
L 92.504372 275.787974 
L 94.714831 275.787974 
L 94.714831 275.324854 
L 97.043522 275.324854 
L 97.043522 274.861733 
L 100.040467 274.861733 
L 100.040467 273.935492 
L 100.343767 273.935492 
L 100.343767 273.472371 
L 102.060491 273.472371 
L 102.060491 273.009251 
L 103.623262 273.009251 
L 103.623262 272.08301 
L 105.057436 272.08301 
L 105.057436 271.619889 
L 105.51043 271.619889 
L 105.51043 269.304287 
L 105.732589 269.304287 
L 105.732589 267.914925 
L 106.802819 267.914925 
L 106.802819 266.525564 
L 107.811151 266.525564 
L 107.811151 266.062443 
L 108.006005 266.062443 
L 108.006005 265.136202 
L 109.491096 265.136202 
L 109.491096 264.673082 
L 110.358901 264.673082 
L 110.358901 264.209961 
L 111.023335 264.209961 
L 111.023335 263.746841 
L 111.663381 263.746841 
L 111.663381 262.8206 
L 112.58145 262.8206 
L 112.58145 262.357479 
L 113.022974 262.357479 
L 113.022974 261.894358 
L 114.0117 261.894358 
L 114.0117 261.431238 
L 114.552496 261.431238 
L 114.552496 260.968117 
L 115.586238 260.968117 
L 115.586238 260.504997 
L 117.709852 260.504997 
L 117.709852 260.041876 
L 119.097192 260.041876 
L 119.097192 259.115635 
L 120.093994 259.115635 
L 120.093994 258.652515 
L 120.665825 258.652515 
L 120.665825 258.189394 
L 121.931406 258.189394 
L 121.931406 257.726274 
L 123.111324 257.726274 
L 123.192626 255.873792 
L 125.038147 255.873792 
L 125.038147 255.410671 
L 125.822869 255.410671 
L 125.822869 254.947551 
L 125.961828 254.947551 
L 125.961828 254.02131 
L 126.640485 254.02131 
L 126.640485 253.558189 
L 127.035353 253.558189 
L 127.035353 252.631948 
L 127.48501 252.631948 
L 127.48501 252.168828 
L 127.799239 252.168828 
L 127.799239 251.705707 
L 128.590686 251.705707 
L 128.590686 250.779466 
L 129.51791 250.779466 
L 129.51791 250.316346 
L 129.79784 250.316346 
L 129.79784 249.853225 
L 130.236587 249.853225 
L 130.236587 248.926984 
L 130.76994 248.926984 
L 130.76994 248.463863 
L 131.082294 248.463863 
L 131.082294 248.000743 
L 131.888878 248.000743 
L 131.888878 247.537622 
L 132.893889 247.537622 
L 132.893889 247.074502 
L 134.279041 247.074502 
L 134.279041 246.148261 
L 134.492498 246.148261 
L 134.492498 245.68514 
L 135.199312 245.68514 
L 135.199312 244.758899 
L 135.602085 244.758899 
L 135.602085 243.832658 
L 136.034648 243.832658 
L 136.073445 242.443297 
L 136.380754 242.443297 
L 136.380754 241.980176 
L 137.52291 241.980176 
L 137.594091 240.590815 
L 138.89409 240.590815 
L 138.89409 239.664574 
L 140.499195 239.664574 
L 140.499195 239.201453 
L 141.177393 239.201453 
L 141.177393 238.275212 
L 142.215919 238.275212 
L 142.215919 237.812091 
L 143.196061 237.812091 
L 143.247504 236.42273 
L 143.40093 236.42273 
L 143.40093 235.959609 
L 144.172816 235.959609 
L 144.172816 235.033368 
L 146.08557 235.033368 
L 146.08557 234.570248 
L 146.728368 234.570248 
L 146.728368 233.644007 
L 147.986163 233.644007 
L 147.986163 232.717766 
L 148.506778 232.717766 
L 148.582601 231.328404 
L 149.214124 231.328404 
L 149.214124 230.402163 
L 149.413639 230.402163 
L 149.413639 229.475922 
L 149.998846 229.475922 
L 149.998846 229.012802 
L 150.412445 229.012802 
L 150.412445 228.086561 
L 152.00633 228.086561 
L 152.00633 227.62344 
L 154.412564 227.62344 
L 154.507086 226.234079 
L 155.527065 226.234079 
L 155.603109 225.307837 
L 157.517493 225.307837 
L 157.517493 224.381596 
L 157.964965 224.381596 
L 157.964965 223.918476 
L 158.465753 223.918476 
L 158.465753 223.455355 
L 160.034962 223.455355 
L 160.034962 222.529114 
L 161.761186 222.529114 
L 161.761186 221.602873 
L 162.568423 221.602873 
L 162.568423 220.676632 
L 163.168687 220.676632 
L 163.168687 220.213512 
L 164.117618 220.213512 
L 164.117618 219.750391 
L 165.171671 219.750391 
L 165.171671 218.82415 
L 166.419124 218.82415 
L 166.419124 218.36103 
L 167.55143 218.36103 
L 167.55143 217.897909 
L 175.058874 217.897909 
L 175.058874 217.434789 
L 176.811953 217.434789 
L 176.85687 215.582307 
L 177.390674 215.582307 
L 177.390674 215.119186 
L 181.721776 215.119186 
L 181.721776 214.192945 
L 190.891832 214.192945 
L 190.891832 213.266704 
L 191.909703 213.266704 
L 192.018173 211.877342 
L 193.261016 211.877342 
L 193.261016 211.414222 
L 194.237212 211.414222 
L 194.237212 210.487981 
L 196.172186 210.487981 
L 196.172186 210.02486 
L 197.793749 210.02486 
L 197.793749 209.56174 
L 197.991804 209.56174 
L 197.991804 208.635499 
L 198.150188 208.635499 
L 198.198634 206.783017 
L 198.355159 206.783017 
L 198.451872 204.930535 
L 198.892719 204.930535 
L 198.892719 204.467414 
L 202.622621 204.467414 
L 202.622621 203.541173 
L 202.764518 203.541173 
L 202.764518 203.078053 
L 203.535088 203.078053 
L 203.535088 202.614932 
L 203.77072 202.614932 
L 203.77072 202.151812 
L 204.130436 202.151812 
L 204.130436 201.688691 
L 205.609729 201.688691 
L 205.609729 201.225571 
L 205.787099 201.225571 
L 205.787099 200.76245 
L 206.658689 200.76245 
L 206.724224 199.836209 
L 206.786825 199.836209 
L 206.854559 197.983727 
L 206.906021 197.983727 
L 207.001192 193.815642 
L 207.038321 193.815642 
L 207.068099 192.889401 
L 210.106475 192.889401 
L 210.106475 192.426281 
L 211.970141 192.426281 
L 211.970141 191.96316 
L 212.134092 191.96316 
L 212.134092 191.50004 
L 212.64573 191.50004 
L 212.64573 191.036919 
L 214.985282 191.036919 
L 214.985282 190.573799 
L 215.237495 190.573799 
L 215.237495 189.647558 
L 215.373544 189.647558 
L 215.373544 189.184437 
L 215.634813 189.184437 
L 215.634813 188.721316 
L 216.110499 188.721316 
L 216.134104 186.868834 
L 216.538249 186.868834 
L 216.64624 185.016352 
L 216.651584 185.016352 
L 216.752048 182.70075 
L 216.772148 182.70075 
L 216.814168 181.311388 
L 217.299271 181.311388 
L 217.299271 180.385147 
L 219.053303 180.385147 
L 219.053303 179.458906 
L 219.192085 179.458906 
L 219.192085 178.995786 
L 219.401632 178.995786 
L 219.401632 178.532665 
L 220.474905 178.532665 
L 220.474905 178.069545 
L 221.870698 178.069545 
L 221.870698 177.606424 
L 222.094193 177.606424 
L 222.094193 176.680183 
L 223.143554 176.680183 
L 223.143554 175.753942 
L 224.205259 175.753942 
L 224.205259 174.827701 
L 225.514081 174.827701 
L 225.514081 174.36458 
L 225.967993 174.36458 
L 226.002855 172.975219 
L 226.916361 172.975219 
L 226.936475 171.585857 
L 228.069279 171.585857 
L 228.069279 171.122737 
L 229.35229 171.122737 
L 229.35229 170.659616 
L 229.538475 170.659616 
L 229.538475 170.196496 
L 230.306389 170.196496 
L 230.306389 169.733375 
L 231.890482 169.733375 
L 231.996875 165.565291 
L 232.041462 165.565291 
L 232.126524 164.63905 
L 232.152903 164.63905 
L 232.21086 162.323447 
L 233.018944 162.323447 
L 233.018944 161.860326 
L 233.307529 161.860326 
L 233.383139 159.544724 
L 233.436426 159.544724 
L 233.542369 157.692242 
L 233.777376 157.692242 
L 233.777376 156.766001 
L 234.0632 156.766001 
L 234.0632 156.30288 
L 234.217481 156.30288 
L 234.267588 154.913519 
L 234.597044 154.913519 
L 234.597044 154.450398 
L 234.750886 154.450398 
L 234.860446 153.061037 
L 235.04326 153.061037 
L 235.04326 152.597916 
L 235.599285 152.597916 
L 235.639928 150.745434 
L 235.860009 150.745434 
L 235.941513 149.356072 
L 236.071458 149.356072 
L 236.173301 145.651108 
L 236.268482 145.651108 
L 236.339713 143.798626 
L 236.439638 143.798626 
L 236.517139 141.946144 
L 236.569956 141.946144 
L 236.569956 141.483024 
L 236.735298 141.483024 
L 236.735298 141.019903 
L 236.851574 141.019903 
L 236.866667 140.093662 
L 237.039787 140.093662 
L 237.039787 139.167421 
L 237.176421 139.167421 
L 237.217192 138.24118 
L 237.404076 138.24118 
L 237.44119 135.462457 
L 237.558623 135.462457 
L 237.558623 134.999336 
L 237.702114 134.999336 
L 237.702114 134.536216 
L 237.900383 134.536216 
L 237.900383 134.073095 
L 238.042555 134.073095 
L 238.042555 133.609975 
L 238.234688 133.609975 
L 238.252503 132.683734 
L 238.691514 132.683734 
L 238.699923 130.831252 
L 239.025522 130.831252 
L 239.025522 130.368131 
L 239.146661 130.368131 
L 239.146661 129.44189 
L 239.294803 129.44189 
L 239.294803 128.97877 
L 239.59228 128.97877 
L 239.59228 128.515649 
L 239.763392 128.515649 
L 239.763392 128.052529 
L 239.907715 128.052529 
L 239.907715 127.126287 
L 240.225251 127.126287 
L 240.225251 126.200046 
L 240.624493 126.200046 
L 240.729009 124.810685 
L 240.741479 124.810685 
L 240.845489 123.884444 
L 240.862161 123.884444 
L 240.936087 122.031962 
L 240.988916 122.031962 
L 241.077081 118.790118 
L 241.102176 118.790118 
L 241.167422 116.937636 
L 241.216571 116.937636 
L 241.294215 115.085154 
L 241.345972 115.085154 
L 241.423321 112.769551 
L 241.526563 112.769551 
L 241.526563 112.306431 
L 241.822491 112.306431 
L 241.918296 110.453949 
L 242.114368 110.453949 
L 242.169317 108.601467 
L 242.488488 108.601467 
L 242.511026 107.675226 
L 242.676399 107.675226 
L 242.676399 106.748985 
L 242.788369 106.748985 
L 242.823974 104.433382 
L 243.175491 104.433382 
L 243.175491 103.970262 
L 243.518673 103.970262 
L 243.568072 103.04402 
L 243.716003 103.04402 
L 243.716003 102.117779 
L 244.555912 102.117779 
L 244.555912 101.191538 
L 244.786673 101.191538 
L 244.786673 100.265297 
L 245.006238 100.265297 
L 245.006238 99.802177 
L 245.488738 99.802177 
L 245.536946 98.412815 
L 245.852137 98.412815 
L 245.852137 97.486574 
L 246.234309 97.486574 
L 246.234309 97.023454 
L 246.387236 97.023454 
L 246.387236 96.097213 
L 247.259327 96.097213 
L 247.259327 95.634092 
L 247.407225 95.634092 
L 247.407225 95.170972 
L 247.741143 95.170972 
L 247.817164 93.31849 
L 247.863307 93.31849 
L 247.863307 92.855369 
L 248.342338 92.855369 
L 248.342338 92.392249 
L 248.544245 92.392249 
L 248.649661 91.002887 
L 249.171469 91.002887 
L 249.171469 90.539766 
L 249.528541 90.539766 
L 249.627901 88.687284 
L 249.682767 88.687284 
L 249.75291 87.297923 
L 249.912258 87.297923 
L 249.912258 86.834802 
L 250.087396 86.834802 
L 250.142628 85.445441 
L 251.283542 85.445441 
L 251.283542 84.5192 
L 251.408348 84.5192 
L 251.408348 84.056079 
L 251.649209 84.056079 
L 251.680166 82.666718 
L 252.07413 82.666718 
L 252.081237 81.277356 
L 252.356494 81.277356 
L 252.400673 79.887995 
L 252.59524 79.887995 
L 252.59524 78.961753 
L 252.983873 78.961753 
L 252.983873 78.498633 
L 253.565443 78.498633 
L 253.565443 77.572392 
L 254.225207 77.572392 
L 254.225207 76.646151 
L 255.250924 76.646151 
L 255.250924 76.18303 
L 255.767977 76.18303 
L 255.820678 74.793669 
L 255.966063 74.793669 
L 255.966063 73.867428 
L 258.143291 73.867428 
L 258.143291 72.941187 
L 258.271315 72.941187 
L 258.312778 71.088705 
L 259.494592 71.088705 
L 259.514568 69.699343 
L 259.885811 69.699343 
L 259.885811 69.236223 
L 260.013296 69.236223 
L 260.013296 68.773102 
L 261.115831 68.773102 
L 261.20945 67.383741 
L 262.122341 67.383741 
L 262.122341 66.92062 
L 262.278732 66.92062 
L 262.278732 65.994379 
L 263.166948 65.994379 
L 263.166948 65.531258 
L 264.134386 65.531258 
L 264.134386 64.605017 
L 267.090867 64.605017 
L 267.090867 64.141897 
L 268.522613 64.141897 
L 268.522613 63.215656 
L 271.576053 63.215656 
L 271.576053 62.752535 
L 338.688 62.752535 
L 338.688 62.752535 
" style="fill:none;stroke:#ff00ff;stroke-linecap:square;stroke-width:1.5;"/>
   </g>
   <g id="line2d_41">
    <defs>
     <path d="M 0 8.485281 
L 5.091169 0 
L 0 -8.485281 
L -5.091169 0 
z
" id="md99567af2e" style="stroke:#ff00ff;stroke-linejoin:miter;stroke-width:1.5;"/>
    </defs>
    <g>
     <use style="fill-opacity:0;stroke:#ff00ff;stroke-linejoin:miter;stroke-width:1.5;" x="105.51043" xlink:href="#md99567af2e" y="271.619889"/>
     <use style="fill-opacity:0;stroke:#ff00ff;stroke-linejoin:miter;stroke-width:1.5;" x="181.721776" xlink:href="#md99567af2e" y="215.119186"/>
     <use style="fill-opacity:0;stroke:#ff00ff;stroke-linejoin:miter;stroke-width:1.5;" x="234.267588" xlink:href="#md99567af2e" y="155.83976"/>
     <use style="fill-opacity:0;stroke:#ff00ff;stroke-linejoin:miter;stroke-width:1.5;" x="271.576053" xlink:href="#md99567af2e" y="63.215656"/>
     <use style="fill-opacity:0;stroke:#ff00ff;stroke-linejoin:miter;stroke-width:1.5;" x="271.576053" xlink:href="#md99567af2e" y="62.752535"/>
     <use style="fill-opacity:0;stroke:#ff00ff;stroke-linejoin:miter;stroke-width:1.5;" x="338.688" xlink:href="#md99567af2e" y="62.752535"/>
    </g>
   </g>
   <g id="line2d_42">
    <path style="fill:none;stroke:#ff00ff;stroke-linecap:square;stroke-width:1.5;"/>
    <g/>
   </g>
   <g id="line2d_43">
    <path clip-path="url(#p6de676febf)" d="M 301.383573 62.752535 
" style="fill:none;stroke:#ff00ff;stroke-linecap:square;stroke-width:1.5;"/>
    <defs>
     <path d="M -12 12 
L 12 -12 
M -12 -12 
L 12 12 
" id="m47559885bb" style="stroke:#ff00ff;"/>
    </defs>
    <g clip-path="url(#p6de676febf)">
     <use style="fill:#ff00ff;stroke:#ff00ff;" x="301.383573" xlink:href="#m47559885bb" y="62.752535"/>
    </g>
   </g>
   <g id="line2d_44">
    <defs>
     <path d="M 0 1.5 
C 0.397805 1.5 0.77937 1.341951 1.06066 1.06066 
C 1.341951 0.77937 1.5 0.397805 1.5 0 
C 1.5 -0.397805 1.341951 -0.77937 1.06066 -1.06066 
C 0.77937 -1.341951 0.397805 -1.5 0 -1.5 
C -0.397805 -1.5 -0.77937 -1.341951 -1.06066 -1.06066 
C -1.341951 -0.77937 -1.5 -0.397805 -1.5 0 
C -1.5 0.397805 -1.341951 0.77937 -1.06066 1.06066 
C -0.77937 1.341951 -0.397805 1.5 0 1.5 
z
" id="m058f41ae9c" style="stroke:#ff7500;"/>
    </defs>
    <g>
     <use style="fill:#ff7500;stroke:#ff7500;" x="262.528555" xlink:href="#m058f41ae9c" y="62.752535"/>
     <use style="fill:#ff7500;stroke:#ff7500;" x="262.528555" xlink:href="#m058f41ae9c" y="62.752535"/>
    </g>
   </g>
   <g id="line2d_45">
    <path d="M 29.53256 298.944 
L 29.53256 297.091518 
L 41.620548 297.091518 
L 41.620548 294.312795 
L 48.691568 294.312795 
L 48.691568 293.849674 
L 53.708537 293.849674 
L 53.708537 293.386554 
L 60.779557 293.386554 
L 60.779557 292.460313 
L 63.467834 292.460313 
L 63.467834 291.534072 
L 65.796525 291.534072 
L 65.796525 291.070951 
L 72.867545 291.070951 
L 72.867545 290.607831 
L 75.555822 290.607831 
L 75.555822 290.14471 
L 78.941764 290.14471 
L 78.941764 287.365987 
L 86.351421 287.365987 
L 86.351421 286.902867 
L 89.972502 286.902867 
L 89.972502 286.439746 
L 92.504372 286.439746 
L 92.504372 285.513505 
L 92.969447 285.513505 
L 92.969447 284.124143 
L 94.294587 284.124143 
L 94.294587 283.661023 
L 95.125186 283.661023 
L 95.125186 283.197902 
L 95.526106 283.197902 
L 95.526106 282.734782 
L 97.403108 282.734782 
L 97.403108 282.271661 
L 98.100772 282.271661 
L 98.100772 281.808541 
L 103.623262 281.808541 
L 103.623262 281.34542 
L 106.382575 281.34542 
L 106.382575 280.8823 
L 106.802819 280.8823 
L 106.802819 280.419179 
L 114.0117 280.419179 
L 114.0117 279.492938 
L 117.598418 279.492938 
L 117.598418 279.029818 
L 119.40226 279.029818 
L 119.40226 278.103577 
L 123.111324 278.103577 
L 123.111324 277.177336 
L 124.594752 277.177336 
L 124.594752 276.714215 
L 125.892487 276.714215 
L 125.892487 276.251095 
L 129.686407 276.251095 
L 129.686407 275.787974 
L 130.127931 275.787974 
L 130.127931 275.324854 
L 132.422528 275.324854 
L 132.470242 273.935492 
L 134.828688 273.935492 
L 134.828688 273.472371 
L 140.256979 273.472371 
L 140.256979 273.009251 
L 140.678675 273.009251 
L 140.678675 272.08301 
L 141.350061 272.08301 
L 141.350061 271.619889 
L 142.593291 271.619889 
L 142.593291 271.156769 
L 143.221802 271.156769 
L 143.221802 270.693648 
L 144.676946 270.693648 
L 144.676946 270.230528 
L 146.150926 270.230528 
L 146.150926 269.767407 
L 146.665144 269.767407 
L 146.665144 269.304287 
L 147.287301 269.304287 
L 147.287301 268.841166 
L 147.650212 268.841166 
L 147.650212 268.378046 
L 148.354135 268.378046 
L 148.354135 266.988684 
L 150.18963 266.988684 
L 150.18963 266.525564 
L 150.51433 266.525564 
L 150.51433 266.062443 
L 150.682827 266.062443 
L 150.682827 265.599323 
L 151.357131 265.599323 
L 151.357131 265.136202 
L 152.207228 265.136202 
L 152.207228 264.209961 
L 153.750233 264.209961 
L 153.750233 263.746841 
L 154.493614 263.746841 
L 154.493614 263.28372 
L 155.180705 263.28372 
L 155.180705 262.357479 
L 155.514359 262.357479 
L 155.514359 261.894358 
L 156.610446 261.894358 
L 156.610446 260.968117 
L 156.753099 260.968117 
L 156.753099 260.504997 
L 157.753847 260.504997 
L 157.753847 259.578756 
L 158.994256 259.578756 
L 159.098062 258.652515 
L 159.867418 258.652515 
L 159.976013 256.800033 
L 161.955547 256.800033 
L 162.016937 255.873792 
L 162.38081 255.873792 
L 162.38081 255.410671 
L 164.039833 255.410671 
L 164.039833 254.947551 
L 165.753633 254.947551 
L 165.753633 254.02131 
L 166.500553 254.02131 
L 166.500553 253.558189 
L 166.735904 253.558189 
L 166.735904 253.095069 
L 166.868978 253.095069 
L 166.868978 252.631948 
L 167.461965 252.631948 
L 167.461965 252.168828 
L 168.330516 252.168828 
L 168.330516 251.242587 
L 168.458054 251.242587 
L 168.458054 250.316346 
L 168.793666 250.316346 
L 168.858837 249.390104 
L 169.227472 249.390104 
L 169.227472 248.463863 
L 169.508896 248.463863 
L 169.508896 248.000743 
L 170.030851 248.000743 
L 170.030851 247.537622 
L 170.862221 247.537622 
L 170.862221 247.074502 
L 171.396939 247.074502 
L 171.396939 246.611381 
L 172.201242 246.611381 
L 172.201242 246.148261 
L 172.965407 246.148261 
L 172.965407 245.68514 
L 173.14208 245.68514 
L 173.14208 245.22202 
L 174.200962 245.22202 
L 174.200962 244.758899 
L 174.686074 244.758899 
L 174.686074 243.832658 
L 176.170646 243.832658 
L 176.170646 243.369538 
L 176.394725 243.369538 
L 176.394725 242.906417 
L 177.699723 242.906417 
L 177.699723 242.443297 
L 177.982376 242.443297 
L 177.982376 241.517056 
L 178.384252 241.517056 
L 178.469664 240.127694 
L 179.125177 240.127694 
L 179.125177 239.201453 
L 179.469684 239.201453 
L 179.469684 238.275212 
L 179.703042 238.275212 
L 179.76327 236.42273 
L 179.829598 236.42273 
L 179.917643 234.570248 
L 180.430691 234.570248 
L 180.430691 233.644007 
L 183.224808 233.644007 
L 183.224808 233.180886 
L 184.193766 233.180886 
L 184.193766 232.254645 
L 184.658777 232.254645 
L 184.663556 231.328404 
L 185.441567 231.328404 
L 185.441567 230.865284 
L 186.440654 230.865284 
L 186.470837 229.012802 
L 187.076266 229.012802 
L 187.076266 228.086561 
L 188.681193 228.086561 
L 188.681193 227.16032 
L 188.991525 227.16032 
L 188.991525 226.234079 
L 190.227366 226.234079 
L 190.227366 225.307837 
L 190.723855 225.307837 
L 190.723855 224.844717 
L 191.549625 224.844717 
L 191.549625 224.381596 
L 191.705083 224.381596 
L 191.705083 223.918476 
L 192.0072 223.918476 
L 192.0072 223.455355 
L 192.852016 223.455355 
L 192.852016 222.992235 
L 193.62352 222.992235 
L 193.62352 222.065994 
L 193.950609 222.065994 
L 193.950609 221.139753 
L 194.531397 221.139753 
L 194.531397 220.213512 
L 194.844706 220.213512 
L 194.844706 219.287271 
L 195.585693 219.287271 
L 195.649438 217.434789 
L 196.246128 217.434789 
L 196.246128 216.508548 
L 196.537592 216.508548 
L 196.537592 216.045427 
L 197.926036 216.045427 
L 197.962852 214.656066 
L 198.790989 214.656066 
L 198.793114 212.803583 
L 200.246209 212.803583 
L 200.246209 211.877342 
L 200.437761 211.877342 
L 200.437761 210.951101 
L 200.612877 210.951101 
L 200.612877 210.02486 
L 201.426502 210.02486 
L 201.426502 209.098619 
L 201.843613 209.098619 
L 201.843613 208.635499 
L 202.006996 208.635499 
L 202.006996 207.709258 
L 202.863248 207.709258 
L 202.863248 207.246137 
L 203.573909 207.246137 
L 203.573909 206.783017 
L 204.17342 206.783017 
L 204.17342 205.856776 
L 204.388306 205.856776 
L 204.489782 204.930535 
L 204.521181 204.930535 
L 204.521181 204.004294 
L 205.045013 204.004294 
L 205.153822 202.151812 
L 205.310288 202.151812 
L 205.310288 201.688691 
L 206.336236 201.688691 
L 206.336236 201.225571 
L 206.912693 201.225571 
L 206.912693 200.76245 
L 207.094527 200.76245 
L 207.094527 200.299329 
L 207.3384 200.299329 
L 207.3384 199.836209 
L 208.036447 199.836209 
L 208.036447 199.373088 
L 208.246584 199.373088 
L 208.246584 198.909968 
L 208.636462 198.909968 
L 208.636462 198.446847 
L 209.128027 198.446847 
L 209.128027 197.983727 
L 209.983844 197.983727 
L 209.983844 197.057486 
L 210.277824 197.057486 
L 210.277824 196.594365 
L 210.881634 196.594365 
L 210.962736 194.278763 
L 212.407372 194.278763 
L 212.407372 193.815642 
L 212.676435 193.815642 
L 212.676435 193.352522 
L 213.300283 193.352522 
L 213.300283 192.426281 
L 213.711649 192.426281 
L 213.801761 191.50004 
L 214.107795 191.50004 
L 214.109562 190.573799 
L 214.417664 190.573799 
L 214.46921 189.647558 
L 214.890546 189.647558 
L 214.978143 188.721316 
L 215.705467 188.721316 
L 215.705467 187.795075 
L 216.402507 187.795075 
L 216.402507 186.868834 
L 216.975999 186.868834 
L 216.975999 186.405714 
L 217.121489 186.405714 
L 217.121489 185.479473 
L 217.239227 185.479473 
L 217.321321 184.090111 
L 217.427139 184.090111 
L 217.427139 183.626991 
L 217.903882 183.626991 
L 217.903882 183.16387 
L 218.223807 183.16387 
L 218.307305 178.069545 
L 218.351328 178.069545 
L 218.431808 174.36458 
L 218.504712 174.36458 
L 218.603267 170.659616 
L 218.62032 170.659616 
L 218.623388 169.733375 
L 218.79332 169.733375 
L 218.890933 165.565291 
L 218.978319 165.565291 
L 219.069258 164.175929 
L 219.119354 164.175929 
L 219.198022 161.397206 
L 219.243475 161.397206 
L 219.243475 160.470965 
L 219.370638 160.470965 
L 219.449484 156.766001 
L 219.544148 156.766001 
L 219.604182 155.376639 
L 219.669788 155.376639 
L 219.728751 153.524157 
L 219.802494 153.524157 
L 219.804405 152.597916 
L 219.986602 152.597916 
L 220.09564 150.282313 
L 220.135065 150.282313 
L 220.182196 148.892952 
L 220.268013 148.892952 
L 220.337971 147.50359 
L 220.526934 147.50359 
L 220.598602 146.577349 
L 220.646016 146.577349 
L 220.750115 144.724867 
L 220.816065 144.724867 
L 220.817568 143.798626 
L 221.083321 143.798626 
L 221.189851 142.872385 
L 221.201321 142.872385 
L 221.201321 142.409265 
L 221.314732 142.409265 
L 221.319113 141.019903 
L 221.449743 141.019903 
L 221.490853 139.167421 
L 221.597517 139.167421 
L 221.631398 137.778059 
L 221.793001 137.778059 
L 221.886818 134.999336 
L 221.996433 134.999336 
L 222.0626 134.073095 
L 222.148021 134.073095 
L 222.148021 133.609975 
L 222.27565 133.609975 
L 222.27565 133.146854 
L 222.462077 133.146854 
L 222.53849 132.220613 
L 222.586078 132.220613 
L 222.66952 130.831252 
L 222.705968 130.831252 
L 222.705968 130.368131 
L 222.820217 130.368131 
L 222.879866 129.44189 
L 223.223853 129.44189 
L 223.223853 128.97877 
L 223.343093 128.97877 
L 223.343093 128.052529 
L 223.625779 128.052529 
L 223.67968 125.736926 
L 223.928113 125.736926 
L 223.986853 124.810685 
L 224.747639 124.810685 
L 224.747639 124.347564 
L 224.907877 124.347564 
L 224.907877 123.884444 
L 225.051811 123.884444 
L 225.051811 122.958203 
L 225.298546 122.958203 
L 225.298546 122.495082 
L 225.570698 122.495082 
L 225.661542 121.105721 
L 226.00598 121.105721 
L 226.00598 120.6426 
L 226.250234 120.6426 
L 226.250234 120.17948 
L 226.408427 120.17948 
L 226.501531 118.790118 
L 226.662631 118.790118 
L 226.662631 117.863877 
L 226.837373 117.863877 
L 226.837373 117.400757 
L 226.966075 117.400757 
L 226.966075 116.474516 
L 227.520773 116.474516 
L 227.520773 115.548274 
L 227.717946 115.548274 
L 227.742007 114.158913 
L 227.885883 114.158913 
L 227.885883 113.695792 
L 228.064321 113.695792 
L 228.168346 112.306431 
L 228.224058 112.306431 
L 228.224058 111.38019 
L 228.463957 111.38019 
L 228.463957 110.917069 
L 228.907071 110.917069 
L 228.907071 109.990828 
L 229.856369 109.990828 
L 229.856369 109.527708 
L 229.974102 109.527708 
L 230.050734 108.601467 
L 230.518245 108.601467 
L 230.518245 107.675226 
L 230.706945 107.675226 
L 230.743386 105.822744 
L 231.311716 105.822744 
L 231.381226 103.970262 
L 231.747019 103.970262 
L 231.7589 103.04402 
L 232.077743 103.04402 
L 232.077743 102.117779 
L 232.552622 102.117779 
L 232.552622 101.654659 
L 232.693437 101.654659 
L 232.693437 101.191538 
L 233.592716 101.191538 
L 233.592716 100.728418 
L 233.803373 100.728418 
L 233.907542 99.339056 
L 234.407124 99.339056 
L 234.407124 98.412815 
L 234.579852 98.412815 
L 234.682619 97.486574 
L 234.79517 97.486574 
L 234.889841 96.097213 
L 235.632347 96.097213 
L 235.655209 94.244731 
L 236.01409 94.244731 
L 236.01409 93.78161 
L 236.626863 93.78161 
L 236.626863 93.31849 
L 236.969222 93.31849 
L 237.013923 92.392249 
L 237.371768 92.392249 
L 237.371768 91.929128 
L 238.309365 91.929128 
L 238.378784 90.076646 
L 238.451536 90.076646 
L 238.451536 89.613525 
L 238.818414 89.613525 
L 238.818414 88.687284 
L 239.173013 88.687284 
L 239.233962 87.761043 
L 239.807149 87.761043 
L 239.807149 87.297923 
L 240.132761 87.297923 
L 240.132761 86.371682 
L 241.148979 86.371682 
L 241.148979 85.908561 
L 241.327439 85.908561 
L 241.327439 85.445441 
L 241.935943 85.445441 
L 241.935943 84.98232 
L 242.10506 84.98232 
L 242.10506 84.056079 
L 242.297038 84.056079 
L 242.297038 83.129838 
L 243.262171 83.129838 
L 243.262171 82.203597 
L 243.543349 82.203597 
L 243.629768 80.814236 
L 243.687035 80.814236 
L 243.687035 79.887995 
L 244.042226 79.887995 
L 244.042226 79.424874 
L 244.504678 79.424874 
L 244.504678 78.961753 
L 245.432264 78.961753 
L 245.432264 78.035512 
L 246.377938 78.035512 
L 246.377938 77.572392 
L 246.504761 77.572392 
L 246.504761 76.646151 
L 246.649674 76.646151 
L 246.649674 76.18303 
L 246.866767 76.18303 
L 246.866767 75.71991 
L 247.397146 75.71991 
L 247.397146 74.793669 
L 248.235167 74.793669 
L 248.235167 73.867428 
L 248.465302 73.867428 
L 248.465302 72.941187 
L 248.597552 72.941187 
L 248.597552 72.014946 
L 249.310402 72.014946 
L 249.310402 71.088705 
L 250.117779 71.088705 
L 250.117779 70.162464 
L 250.360166 70.162464 
L 250.360166 69.236223 
L 250.501652 69.236223 
L 250.501652 68.773102 
L 251.092073 68.773102 
L 251.093185 67.383741 
L 251.619739 67.383741 
L 251.619739 66.92062 
L 252.363192 66.92062 
L 252.363192 66.457499 
L 252.475004 66.457499 
L 252.502283 65.531258 
L 252.911255 65.531258 
L 252.911255 64.605017 
L 253.746276 64.605017 
L 253.746276 64.141897 
L 259.311682 64.141897 
L 259.311682 63.215656 
L 262.528555 63.215656 
L 262.528555 62.752535 
L 338.688 62.752535 
L 338.688 62.752535 
" style="fill:none;stroke:#ff7500;stroke-linecap:square;stroke-width:1.5;"/>
   </g>
   <g id="line2d_46">
    <defs>
     <path d="M 0 -6 
L -1.347084 -1.854102 
L -5.706339 -1.854102 
L -2.179628 0.708204 
L -3.526712 4.854102 
L -0 2.291796 
L 3.526712 4.854102 
L 2.179628 0.708204 
L 5.706339 -1.854102 
L 1.347084 -1.854102 
z
" id="m5d0f3dddb5" style="stroke:#ff7500;stroke-linejoin:bevel;stroke-width:1.5;"/>
    </defs>
    <g>
     <use style="fill-opacity:0;stroke:#ff7500;stroke-linejoin:bevel;stroke-width:1.5;" x="125.892487" xlink:href="#m5d0f3dddb5" y="276.251095"/>
     <use style="fill-opacity:0;stroke:#ff7500;stroke-linejoin:bevel;stroke-width:1.5;" x="196.246128" xlink:href="#m5d0f3dddb5" y="216.508548"/>
     <use style="fill-opacity:0;stroke:#ff7500;stroke-linejoin:bevel;stroke-width:1.5;" x="229.974102" xlink:href="#m5d0f3dddb5" y="109.527708"/>
     <use style="fill-opacity:0;stroke:#ff7500;stroke-linejoin:bevel;stroke-width:1.5;" x="262.528555" xlink:href="#m5d0f3dddb5" y="63.215656"/>
     <use style="fill-opacity:0;stroke:#ff7500;stroke-linejoin:bevel;stroke-width:1.5;" x="262.528555" xlink:href="#m5d0f3dddb5" y="62.752535"/>
     <use style="fill-opacity:0;stroke:#ff7500;stroke-linejoin:bevel;stroke-width:1.5;" x="338.688" xlink:href="#m5d0f3dddb5" y="62.752535"/>
    </g>
   </g>
   <g id="line2d_47">
    <path style="fill:none;stroke:#ff7500;stroke-linecap:square;stroke-width:1.5;"/>
    <g/>
   </g>
   <g id="line2d_48">
    <path clip-path="url(#p6de676febf)" d="M 298.532571 62.752535 
" style="fill:none;stroke:#ff7500;stroke-linecap:square;stroke-width:1.5;"/>
    <defs>
     <path d="M -12 12 
L 12 -12 
M -12 -12 
L 12 12 
" id="ma16c0cb7e2" style="stroke:#ff7500;"/>
    </defs>
    <g clip-path="url(#p6de676febf)">
     <use style="fill:#ff7500;stroke:#ff7500;" x="298.532571" xlink:href="#ma16c0cb7e2" y="62.752535"/>
    </g>
   </g>
   <g id="line2d_49">
    <path d="M 338.688 157.229121 
L 369.60768 293.571802 
" style="fill:none;stroke:#000080;stroke-linecap:square;stroke-width:1.5;"/>
    <g>
     <use style="fill-opacity:0;stroke:#000080;stroke-width:1.5;" x="338.688" xlink:href="#mdce917413d" y="157.229121"/>
     <use style="fill-opacity:0;stroke:#000080;stroke-width:1.5;" x="369.60768" xlink:href="#mdce917413d" y="293.571802"/>
    </g>
   </g>
   <g id="line2d_50">
    <path d="M 338.688 62.752535 
L 369.60768 207.616634 
" style="fill:none;stroke:#ff00ff;stroke-linecap:square;stroke-width:1.5;"/>
    <g>
     <use style="fill-opacity:0;stroke:#ff00ff;stroke-linejoin:miter;stroke-width:1.5;" x="338.688" xlink:href="#md99567af2e" y="62.752535"/>
     <use style="fill-opacity:0;stroke:#ff00ff;stroke-linejoin:miter;stroke-width:1.5;" x="369.60768" xlink:href="#md99567af2e" y="207.616634"/>
    </g>
   </g>
   <g id="line2d_51">
    <path d="M 338.688 62.752535 
L 369.60768 121.661465 
" style="fill:none;stroke:#ff7500;stroke-linecap:square;stroke-width:1.5;"/>
    <g>
     <use style="fill-opacity:0;stroke:#ff7500;stroke-linejoin:bevel;stroke-width:1.5;" x="338.688" xlink:href="#m5d0f3dddb5" y="62.752535"/>
     <use style="fill-opacity:0;stroke:#ff7500;stroke-linejoin:bevel;stroke-width:1.5;" x="369.60768" xlink:href="#m5d0f3dddb5" y="121.661465"/>
    </g>
   </g>
   <g id="line2d_52">
    <path d="M 338.688 298.944 
L 338.688 30.334099 
" style="fill:none;stroke:#000000;stroke-linecap:square;stroke-width:1.5;"/>
   </g>
   <g id="patch_3">
    <path d="M 57.6 298.944 
L 57.6 27.648 
" style="fill:none;stroke:#000000;stroke-linecap:square;stroke-linejoin:miter;stroke-width:0.8;"/>
   </g>
   <g id="patch_4">
    <path d="M 338.688 298.944 
L 338.688 27.648 
" style="fill:none;stroke:#000000;stroke-linecap:square;stroke-linejoin:miter;stroke-width:0.8;"/>
   </g>
   <g id="patch_5">
    <path d="M 57.6 298.944 
L 338.688 298.944 
" style="fill:none;stroke:#000000;stroke-linecap:square;stroke-linejoin:miter;stroke-width:0.8;"/>
   </g>
   <g id="patch_6">
    <path d="M 57.6 27.648 
L 338.688 27.648 
" style="fill:none;stroke:#000000;stroke-linecap:square;stroke-linejoin:miter;stroke-width:0.8;"/>
   </g>
   <g id="text_13">
    <!-- 0.1tfr-0. -->
    <g transform="translate(375.22944 298.262739)scale(0.17 -0.17)">
     <use xlink:href="#DejaVuSans-48"/>
     <use x="63.623047" xlink:href="#DejaVuSans-46"/>
     <use x="95.410156" xlink:href="#DejaVuSans-49"/>
     <use x="159.033203" xlink:href="#DejaVuSans-116"/>
     <use x="198.242188" xlink:href="#DejaVuSans-102"/>
     <use x="233.447266" xlink:href="#DejaVuSans-114"/>
     <use x="274.466797" xlink:href="#DejaVuSans-45"/>
     <use x="310.550781" xlink:href="#DejaVuSans-48"/>
     <use x="374.173828" xlink:href="#DejaVuSans-46"/>
    </g>
   </g>
   <g id="text_14">
    <!-- HMO-CMA-E -->
    <defs>
     <path d="M 9.8125 72.90625 
L 19.671875 72.90625 
L 19.671875 43.015625 
L 55.515625 43.015625 
L 55.515625 72.90625 
L 65.375 72.90625 
L 65.375 0 
L 55.515625 0 
L 55.515625 34.71875 
L 19.671875 34.71875 
L 19.671875 0 
L 9.8125 0 
z
" id="DejaVuSans-72"/>
     <path d="M 9.8125 72.90625 
L 24.515625 72.90625 
L 43.109375 23.296875 
L 61.8125 72.90625 
L 76.515625 72.90625 
L 76.515625 0 
L 66.890625 0 
L 66.890625 64.015625 
L 48.09375 14.015625 
L 38.1875 14.015625 
L 19.390625 64.015625 
L 19.390625 0 
L 9.8125 0 
z
" id="DejaVuSans-77"/>
     <path d="M 39.40625 66.21875 
Q 28.65625 66.21875 22.328125 58.203125 
Q 16.015625 50.203125 16.015625 36.375 
Q 16.015625 22.609375 22.328125 14.59375 
Q 28.65625 6.59375 39.40625 6.59375 
Q 50.140625 6.59375 56.421875 14.59375 
Q 62.703125 22.609375 62.703125 36.375 
Q 62.703125 50.203125 56.421875 58.203125 
Q 50.140625 66.21875 39.40625 66.21875 
z
M 39.40625 74.21875 
Q 54.734375 74.21875 63.90625 63.9375 
Q 73.09375 53.65625 73.09375 36.375 
Q 73.09375 19.140625 63.90625 8.859375 
Q 54.734375 -1.421875 39.40625 -1.421875 
Q 24.03125 -1.421875 14.8125 8.828125 
Q 5.609375 19.09375 5.609375 36.375 
Q 5.609375 53.65625 14.8125 63.9375 
Q 24.03125 74.21875 39.40625 74.21875 
z
" id="DejaVuSans-79"/>
     <path d="M 64.40625 67.28125 
L 64.40625 56.890625 
Q 59.421875 61.53125 53.78125 63.8125 
Q 48.140625 66.109375 41.796875 66.109375 
Q 29.296875 66.109375 22.65625 58.46875 
Q 16.015625 50.828125 16.015625 36.375 
Q 16.015625 21.96875 22.65625 14.328125 
Q 29.296875 6.6875 41.796875 6.6875 
Q 48.140625 6.6875 53.78125 8.984375 
Q 59.421875 11.28125 64.40625 15.921875 
L 64.40625 5.609375 
Q 59.234375 2.09375 53.4375 0.328125 
Q 47.65625 -1.421875 41.21875 -1.421875 
Q 24.65625 -1.421875 15.125 8.703125 
Q 5.609375 18.84375 5.609375 36.375 
Q 5.609375 53.953125 15.125 64.078125 
Q 24.65625 74.21875 41.21875 74.21875 
Q 47.75 74.21875 53.53125 72.484375 
Q 59.328125 70.75 64.40625 67.28125 
z
" id="DejaVuSans-67"/>
     <path d="M 34.1875 63.1875 
L 20.796875 26.90625 
L 47.609375 26.90625 
z
M 28.609375 72.90625 
L 39.796875 72.90625 
L 67.578125 0 
L 57.328125 0 
L 50.6875 18.703125 
L 17.828125 18.703125 
L 11.1875 0 
L 0.78125 0 
z
" id="DejaVuSans-65"/>
     <path d="M 9.8125 72.90625 
L 55.90625 72.90625 
L 55.90625 64.59375 
L 19.671875 64.59375 
L 19.671875 43.015625 
L 54.390625 43.015625 
L 54.390625 34.71875 
L 19.671875 34.71875 
L 19.671875 8.296875 
L 56.78125 8.296875 
L 56.78125 0 
L 9.8125 0 
z
" id="DejaVuSans-69"/>
    </defs>
    <g transform="translate(375.22944 212.307571)scale(0.17 -0.17)">
     <use xlink:href="#DejaVuSans-72"/>
     <use x="75.195312" xlink:href="#DejaVuSans-77"/>
     <use x="161.474609" xlink:href="#DejaVuSans-79"/>
     <use x="240.216797" xlink:href="#DejaVuSans-45"/>
     <use x="276.300781" xlink:href="#DejaVuSans-67"/>
     <use x="346.125" xlink:href="#DejaVuSans-77"/>
     <use x="432.404297" xlink:href="#DejaVuSans-65"/>
     <use x="500.78125" xlink:href="#DejaVuSans-45"/>
     <use x="536.865234" xlink:href="#DejaVuSans-69"/>
    </g>
   </g>
   <g id="text_15">
    <!-- UP-MO-CMA -->
    <defs>
     <path d="M 8.6875 72.90625 
L 18.609375 72.90625 
L 18.609375 28.609375 
Q 18.609375 16.890625 22.84375 11.734375 
Q 27.09375 6.59375 36.625 6.59375 
Q 46.09375 6.59375 50.34375 11.734375 
Q 54.59375 16.890625 54.59375 28.609375 
L 54.59375 72.90625 
L 64.5 72.90625 
L 64.5 27.390625 
Q 64.5 13.140625 57.4375 5.859375 
Q 50.390625 -1.421875 36.625 -1.421875 
Q 22.796875 -1.421875 15.734375 5.859375 
Q 8.6875 13.140625 8.6875 27.390625 
z
" id="DejaVuSans-85"/>
     <path d="M 19.671875 64.796875 
L 19.671875 37.40625 
L 32.078125 37.40625 
Q 38.96875 37.40625 42.71875 40.96875 
Q 46.484375 44.53125 46.484375 51.125 
Q 46.484375 57.671875 42.71875 61.234375 
Q 38.96875 64.796875 32.078125 64.796875 
z
M 9.8125 72.90625 
L 32.078125 72.90625 
Q 44.34375 72.90625 50.609375 67.359375 
Q 56.890625 61.8125 56.890625 51.125 
Q 56.890625 40.328125 50.609375 34.8125 
Q 44.34375 29.296875 32.078125 29.296875 
L 19.671875 29.296875 
L 19.671875 0 
L 9.8125 0 
z
" id="DejaVuSans-80"/>
    </defs>
    <g transform="translate(375.22944 126.352403)scale(0.17 -0.17)">
     <use xlink:href="#DejaVuSans-85"/>
     <use x="73.193359" xlink:href="#DejaVuSans-80"/>
     <use x="133.464844" xlink:href="#DejaVuSans-45"/>
     <use x="169.548828" xlink:href="#DejaVuSans-77"/>
     <use x="255.828125" xlink:href="#DejaVuSans-79"/>
     <use x="334.570312" xlink:href="#DejaVuSans-45"/>
     <use x="370.654297" xlink:href="#DejaVuSans-67"/>
     <use x="440.478516" xlink:href="#DejaVuSans-77"/>
     <use x="526.757812" xlink:href="#DejaVuSans-65"/>
    </g>
   </g>
   <g id="text_16">
    <!-- best 2016 -->
    <defs>
     <path d="M 48.6875 27.296875 
Q 48.6875 37.203125 44.609375 42.84375 
Q 40.53125 48.484375 33.40625 48.484375 
Q 26.265625 48.484375 22.1875 42.84375 
Q 18.109375 37.203125 18.109375 27.296875 
Q 18.109375 17.390625 22.1875 11.75 
Q 26.265625 6.109375 33.40625 6.109375 
Q 40.53125 6.109375 44.609375 11.75 
Q 48.6875 17.390625 48.6875 27.296875 
z
M 18.109375 46.390625 
Q 20.953125 51.265625 25.265625 53.625 
Q 29.59375 56 35.59375 56 
Q 45.5625 56 51.78125 48.09375 
Q 58.015625 40.1875 58.015625 27.296875 
Q 58.015625 14.40625 51.78125 6.484375 
Q 45.5625 -1.421875 35.59375 -1.421875 
Q 29.59375 -1.421875 25.265625 0.953125 
Q 20.953125 3.328125 18.109375 8.203125 
L 18.109375 0 
L 9.078125 0 
L 9.078125 75.984375 
L 18.109375 75.984375 
z
" id="DejaVuSans-98"/>
    </defs>
    <g transform="translate(375.22944 40.397235)scale(0.17 -0.17)">
     <use xlink:href="#DejaVuSans-98"/>
     <use x="63.476562" xlink:href="#DejaVuSans-101"/>
     <use x="125" xlink:href="#DejaVuSans-115"/>
     <use x="177.099609" xlink:href="#DejaVuSans-116"/>
     <use x="216.308594" xlink:href="#DejaVuSans-32"/>
     <use x="248.095703" xlink:href="#DejaVuSans-50"/>
     <use x="311.71875" xlink:href="#DejaVuSans-48"/>
     <use x="375.341797" xlink:href="#DejaVuSans-49"/>
     <use x="438.964844" xlink:href="#DejaVuSans-54"/>
    </g>
   </g>
   <g id="text_17">
    <!-- bbob-biobj f45, 5-D -->
    <defs>
     <path d="M 9.421875 54.6875 
L 18.40625 54.6875 
L 18.40625 -0.984375 
Q 18.40625 -11.421875 14.421875 -16.109375 
Q 10.453125 -20.796875 1.609375 -20.796875 
L -1.8125 -20.796875 
L -1.8125 -13.1875 
L 0.59375 -13.1875 
Q 5.71875 -13.1875 7.5625 -10.8125 
Q 9.421875 -8.453125 9.421875 -0.984375 
z
M 9.421875 75.984375 
L 18.40625 75.984375 
L 18.40625 64.59375 
L 9.421875 64.59375 
z
" id="DejaVuSans-106"/>
     <path d="M 10.796875 72.90625 
L 49.515625 72.90625 
L 49.515625 64.59375 
L 19.828125 64.59375 
L 19.828125 46.734375 
Q 21.96875 47.46875 24.109375 47.828125 
Q 26.265625 48.1875 28.421875 48.1875 
Q 40.625 48.1875 47.75 41.5 
Q 54.890625 34.8125 54.890625 23.390625 
Q 54.890625 11.625 47.5625 5.09375 
Q 40.234375 -1.421875 26.90625 -1.421875 
Q 22.3125 -1.421875 17.546875 -0.640625 
Q 12.796875 0.140625 7.71875 1.703125 
L 7.71875 11.625 
Q 12.109375 9.234375 16.796875 8.0625 
Q 21.484375 6.890625 26.703125 6.890625 
Q 35.15625 6.890625 40.078125 11.328125 
Q 45.015625 15.765625 45.015625 23.390625 
Q 45.015625 31 40.078125 35.4375 
Q 35.15625 39.890625 26.703125 39.890625 
Q 22.75 39.890625 18.8125 39.015625 
Q 14.890625 38.140625 10.796875 36.28125 
z
" id="DejaVuSans-53"/>
     <path d="M 19.671875 64.796875 
L 19.671875 8.109375 
L 31.59375 8.109375 
Q 46.6875 8.109375 53.6875 14.9375 
Q 60.6875 21.78125 60.6875 36.53125 
Q 60.6875 51.171875 53.6875 57.984375 
Q 46.6875 64.796875 31.59375 64.796875 
z
M 9.8125 72.90625 
L 30.078125 72.90625 
Q 51.265625 72.90625 61.171875 64.09375 
Q 71.09375 55.28125 71.09375 36.53125 
Q 71.09375 17.671875 61.125 8.828125 
Q 51.171875 0 30.078125 0 
L 9.8125 0 
z
" id="DejaVuSans-68"/>
    </defs>
    <g transform="translate(60.41088 38.111366)scale(0.102 -0.102)">
     <use xlink:href="#DejaVuSans-98"/>
     <use x="63.476562" xlink:href="#DejaVuSans-98"/>
     <use x="126.953125" xlink:href="#DejaVuSans-111"/>
     <use x="188.134766" xlink:href="#DejaVuSans-98"/>
     <use x="251.611328" xlink:href="#DejaVuSans-45"/>
     <use x="287.695312" xlink:href="#DejaVuSans-98"/>
     <use x="351.171875" xlink:href="#DejaVuSans-105"/>
     <use x="378.955078" xlink:href="#DejaVuSans-111"/>
     <use x="440.136719" xlink:href="#DejaVuSans-98"/>
     <use x="503.613281" xlink:href="#DejaVuSans-106"/>
     <use x="531.396484" xlink:href="#DejaVuSans-32"/>
     <use x="563.183594" xlink:href="#DejaVuSans-102"/>
     <use x="598.388672" xlink:href="#DejaVuSans-52"/>
     <use x="662.011719" xlink:href="#DejaVuSans-53"/>
     <use x="725.634766" xlink:href="#DejaVuSans-44"/>
     <use x="757.421875" xlink:href="#DejaVuSans-32"/>
     <use x="789.208984" xlink:href="#DejaVuSans-53"/>
     <use x="852.832031" xlink:href="#DejaVuSans-45"/>
     <use x="888.916016" xlink:href="#DejaVuSans-68"/>
    </g>
    <!-- 58 targets: 1..-1.0e-4 -->
    <defs>
     <path d="M 11.71875 12.40625 
L 22.015625 12.40625 
L 22.015625 0 
L 11.71875 0 
z
M 11.71875 51.703125 
L 22.015625 51.703125 
L 22.015625 39.3125 
L 11.71875 39.3125 
z
" id="DejaVuSans-58"/>
    </defs>
    <g transform="translate(60.41088 49.533135)scale(0.102 -0.102)">
     <use xlink:href="#DejaVuSans-53"/>
     <use x="63.623047" xlink:href="#DejaVuSans-56"/>
     <use x="127.246094" xlink:href="#DejaVuSans-32"/>
     <use x="159.033203" xlink:href="#DejaVuSans-116"/>
     <use x="198.242188" xlink:href="#DejaVuSans-97"/>
     <use x="259.521484" xlink:href="#DejaVuSans-114"/>
     <use x="300.619141" xlink:href="#DejaVuSans-103"/>
     <use x="364.095703" xlink:href="#DejaVuSans-101"/>
     <use x="425.619141" xlink:href="#DejaVuSans-116"/>
     <use x="464.828125" xlink:href="#DejaVuSans-115"/>
     <use x="516.927734" xlink:href="#DejaVuSans-58"/>
     <use x="550.619141" xlink:href="#DejaVuSans-32"/>
     <use x="582.40625" xlink:href="#DejaVuSans-49"/>
     <use x="646.029297" xlink:href="#DejaVuSans-46"/>
     <use x="677.816406" xlink:href="#DejaVuSans-46"/>
     <use x="709.603516" xlink:href="#DejaVuSans-45"/>
     <use x="745.6875" xlink:href="#DejaVuSans-49"/>
     <use x="809.310547" xlink:href="#DejaVuSans-46"/>
     <use x="841.097656" xlink:href="#DejaVuSans-48"/>
     <use x="904.720703" xlink:href="#DejaVuSans-101"/>
     <use x="966.244141" xlink:href="#DejaVuSans-45"/>
     <use x="1002.328125" xlink:href="#DejaVuSans-52"/>
    </g>
    <!-- 10, 5 instances -->
    <g transform="translate(60.41088 60.954904)scale(0.102 -0.102)">
     <use xlink:href="#DejaVuSans-49"/>
     <use x="63.623047" xlink:href="#DejaVuSans-48"/>
     <use x="127.246094" xlink:href="#DejaVuSans-44"/>
     <use x="159.033203" xlink:href="#DejaVuSans-32"/>
     <use x="190.820312" xlink:href="#DejaVuSans-53"/>
     <use x="254.443359" xlink:href="#DejaVuSans-32"/>
     <use x="286.230469" xlink:href="#DejaVuSans-105"/>
     <use x="314.013672" xlink:href="#DejaVuSans-110"/>
     <use x="377.392578" xlink:href="#DejaVuSans-115"/>
     <use x="429.492188" xlink:href="#DejaVuSans-116"/>
     <use x="468.701172" xlink:href="#DejaVuSans-97"/>
     <use x="529.980469" xlink:href="#DejaVuSans-110"/>
     <use x="593.359375" xlink:href="#DejaVuSans-99"/>
     <use x="648.339844" xlink:href="#DejaVuSans-101"/>
     <use x="709.863281" xlink:href="#DejaVuSans-115"/>
    </g>
   </g>
   <g id="text_18">
    <!-- v2.3.3.43 -->
    <defs>
     <path d="M 40.578125 39.3125 
Q 47.65625 37.796875 51.625 33 
Q 55.609375 28.21875 55.609375 21.1875 
Q 55.609375 10.40625 48.1875 4.484375 
Q 40.765625 -1.421875 27.09375 -1.421875 
Q 22.515625 -1.421875 17.65625 -0.515625 
Q 12.796875 0.390625 7.625 2.203125 
L 7.625 11.71875 
Q 11.71875 9.328125 16.59375 8.109375 
Q 21.484375 6.890625 26.8125 6.890625 
Q 36.078125 6.890625 40.9375 10.546875 
Q 45.796875 14.203125 45.796875 21.1875 
Q 45.796875 27.640625 41.28125 31.265625 
Q 36.765625 34.90625 28.71875 34.90625 
L 20.21875 34.90625 
L 20.21875 43.015625 
L 29.109375 43.015625 
Q 36.375 43.015625 40.234375 45.921875 
Q 44.09375 48.828125 44.09375 54.296875 
Q 44.09375 59.90625 40.109375 62.90625 
Q 36.140625 65.921875 28.71875 65.921875 
Q 24.65625 65.921875 20.015625 65.03125 
Q 15.375 64.15625 9.8125 62.3125 
L 9.8125 71.09375 
Q 15.4375 72.65625 20.34375 73.4375 
Q 25.25 74.21875 29.59375 74.21875 
Q 40.828125 74.21875 47.359375 69.109375 
Q 53.90625 64.015625 53.90625 55.328125 
Q 53.90625 49.265625 50.4375 45.09375 
Q 46.96875 40.921875 40.578125 39.3125 
z
" id="DejaVuSans-51"/>
    </defs>
    <g style="fill:#808080;" transform="translate(174.511187 294.151352)scale(0.1 -0.1)">
     <use xlink:href="#DejaVuSans-118"/>
     <use x="59.179688" xlink:href="#DejaVuSans-50"/>
     <use x="122.802734" xlink:href="#DejaVuSans-46"/>
     <use x="154.589844" xlink:href="#DejaVuSans-51"/>
     <use x="218.212891" xlink:href="#DejaVuSans-46"/>
     <use x="250" xlink:href="#DejaVuSans-51"/>
     <use x="313.623047" xlink:href="#DejaVuSans-46"/>
     <use x="345.410156" xlink:href="#DejaVuSans-52"/>
     <use x="409.033203" xlink:href="#DejaVuSans-51"/>
    </g>
   </g>
   <g id="text_19">
    <!-- 45 Diff. Powers/Gallagher 101 -->
    <defs>
     <path d="M 4.203125 54.6875 
L 13.1875 54.6875 
L 24.421875 12.015625 
L 35.59375 54.6875 
L 46.1875 54.6875 
L 57.421875 12.015625 
L 68.609375 54.6875 
L 77.59375 54.6875 
L 63.28125 0 
L 52.6875 0 
L 40.921875 44.828125 
L 29.109375 0 
L 18.5 0 
z
" id="DejaVuSans-119"/>
     <path d="M 59.515625 10.40625 
L 59.515625 29.984375 
L 43.40625 29.984375 
L 43.40625 38.09375 
L 69.28125 38.09375 
L 69.28125 6.78125 
Q 63.578125 2.734375 56.6875 0.65625 
Q 49.8125 -1.421875 42 -1.421875 
Q 24.90625 -1.421875 15.25 8.5625 
Q 5.609375 18.5625 5.609375 36.375 
Q 5.609375 54.25 15.25 64.234375 
Q 24.90625 74.21875 42 74.21875 
Q 49.125 74.21875 55.546875 72.453125 
Q 61.96875 70.703125 67.390625 67.28125 
L 67.390625 56.78125 
Q 61.921875 61.421875 55.765625 63.765625 
Q 49.609375 66.109375 42.828125 66.109375 
Q 29.4375 66.109375 22.71875 58.640625 
Q 16.015625 51.171875 16.015625 36.375 
Q 16.015625 21.625 22.71875 14.15625 
Q 29.4375 6.6875 42.828125 6.6875 
Q 48.046875 6.6875 52.140625 7.59375 
Q 56.25 8.5 59.515625 10.40625 
z
" id="DejaVuSans-71"/>
     <path d="M 54.890625 33.015625 
L 54.890625 0 
L 45.90625 0 
L 45.90625 32.71875 
Q 45.90625 40.484375 42.875 44.328125 
Q 39.84375 48.1875 33.796875 48.1875 
Q 26.515625 48.1875 22.3125 43.546875 
Q 18.109375 38.921875 18.109375 30.90625 
L 18.109375 0 
L 9.078125 0 
L 9.078125 75.984375 
L 18.109375 75.984375 
L 18.109375 46.1875 
Q 21.34375 51.125 25.703125 53.5625 
Q 30.078125 56 35.796875 56 
Q 45.21875 56 50.046875 50.171875 
Q 54.890625 44.34375 54.890625 33.015625 
z
" id="DejaVuSans-104"/>
    </defs>
    <g transform="translate(48.436187 21.648)scale(0.2 -0.2)">
     <use xlink:href="#DejaVuSans-52"/>
     <use x="63.623047" xlink:href="#DejaVuSans-53"/>
     <use x="127.246094" xlink:href="#DejaVuSans-32"/>
     <use x="159.033203" xlink:href="#DejaVuSans-68"/>
     <use x="236.035156" xlink:href="#DejaVuSans-105"/>
     <use x="263.818359" xlink:href="#DejaVuSans-102"/>
     <use x="299.023438" xlink:href="#DejaVuSans-102"/>
     <use x="334.119141" xlink:href="#DejaVuSans-46"/>
     <use x="365.90625" xlink:href="#DejaVuSans-32"/>
     <use x="397.693359" xlink:href="#DejaVuSans-80"/>
     <use x="457.949219" xlink:href="#DejaVuSans-111"/>
     <use x="519.130859" xlink:href="#DejaVuSans-119"/>
     <use x="600.917969" xlink:href="#DejaVuSans-101"/>
     <use x="662.441406" xlink:href="#DejaVuSans-114"/>
     <use x="703.554688" xlink:href="#DejaVuSans-115"/>
     <use x="755.654297" xlink:href="#DejaVuSans-47"/>
     <use x="789.345703" xlink:href="#DejaVuSans-71"/>
     <use x="866.835938" xlink:href="#DejaVuSans-97"/>
     <use x="928.115234" xlink:href="#DejaVuSans-108"/>
     <use x="955.898438" xlink:href="#DejaVuSans-108"/>
     <use x="983.681641" xlink:href="#DejaVuSans-97"/>
     <use x="1044.960938" xlink:href="#DejaVuSans-103"/>
     <use x="1108.4375" xlink:href="#DejaVuSans-104"/>
     <use x="1171.816406" xlink:href="#DejaVuSans-101"/>
     <use x="1233.339844" xlink:href="#DejaVuSans-114"/>
     <use x="1274.453125" xlink:href="#DejaVuSans-32"/>
     <use x="1306.240234" xlink:href="#DejaVuSans-49"/>
     <use x="1369.863281" xlink:href="#DejaVuSans-48"/>
     <use x="1433.486328" xlink:href="#DejaVuSans-49"/>
    </g>
   </g>
  </g>
 </g>
 <defs>
  <clipPath id="p6de676febf">
   <rect height="271.296" width="281.088" x="57.6" y="27.648"/>
  </clipPath>
 </defs>
</svg>
