<?xml version="1.0" encoding="utf-8" standalone="no"?>
<!DOCTYPE svg PUBLIC "-//W3C//DTD SVG 1.1//EN"
  "http://www.w3.org/Graphics/SVG/1.1/DTD/svg11.dtd">
<!-- Created with matplotlib (https://matplotlib.org/) -->
<svg height="345.6pt" version="1.1" viewBox="0 0 460.8 345.6" width="460.8pt" xmlns="http://www.w3.org/2000/svg" xmlns:xlink="http://www.w3.org/1999/xlink">
 <defs>
  <style type="text/css">
*{stroke-linecap:butt;stroke-linejoin:round;}
  </style>
 </defs>
 <g id="figure_1">
  <g id="patch_1">
   <path d="M 0 345.6 
L 460.8 345.6 
L 460.8 0 
L 0 0 
z
" style="fill:#ffffff;"/>
  </g>
  <g id="axes_1">
   <g id="patch_2">
    <path d="M 57.6 298.944 
L 338.688 298.944 
L 338.688 27.648 
L 57.6 27.648 
z
" style="fill:#ffffff;"/>
   </g>
   <g id="line2d_1">
    <path d="M 62.616969 298.944 
L 62.616969 294.312795 
L 74.704957 294.312795 
L 74.704957 285.050384 
L 97.16421 285.050384 
L 97.16421 275.787974 
L 113.26352 275.787974 
L 113.26352 271.156769 
L 137.439497 271.156769 
L 137.439497 257.263153 
L 147.50327 257.263153 
L 147.50327 248.000743 
L 156.031982 248.000743 
L 156.031982 243.369538 
L 167.244924 243.369538 
L 167.244924 234.107127 
L 176.744358 234.107127 
L 176.744358 220.213512 
L 182.801969 220.213512 
L 182.801969 210.951101 
L 191.805843 210.951101 
L 191.805843 201.688691 
L 205.891388 201.688691 
L 205.891388 192.426281 
L 219.520207 192.426281 
L 219.520207 187.795075 
L 232.52679 187.795075 
L 232.52679 173.90146 
L 238.311129 173.90146 
L 238.311129 169.270255 
L 247.797364 169.270255 
L 247.797364 155.376639 
L 254.167285 155.376639 
L 254.167285 146.114229 
L 262.866969 146.114229 
L 262.866969 141.483024 
L 271.966995 141.483024 
L 271.966995 127.589408 
L 279.232609 127.589408 
L 279.232609 122.958203 
L 283.641828 122.958203 
L 283.641828 109.064587 
L 297.020634 109.064587 
L 297.020634 99.802177 
L 297.746001 99.802177 
L 297.746001 90.539766 
L 297.962502 90.539766 
L 297.962502 85.908561 
L 298.445162 85.908561 
L 298.445162 76.646151 
L 310.707782 76.646151 
L 310.707782 62.752535 
L 338.688 62.752535 
" style="fill:none;stroke:#f5deb3;stroke-linecap:square;stroke-width:4;"/>
   </g>
   <g id="line2d_2">
    <defs>
     <path d="M 0 7.778175 
L 7.778175 0 
L 0 -7.778175 
L -7.778175 0 
z
" id="mb748dc5984" style="stroke:#f5deb3;stroke-linejoin:miter;stroke-width:1.5;"/>
    </defs>
    <g>
     <use style="fill:#f5deb3;stroke:#f5deb3;stroke-linejoin:miter;stroke-width:1.5;" x="156.031982" xlink:href="#mb748dc5984" y="248.000743"/>
     <use style="fill:#f5deb3;stroke:#f5deb3;stroke-linejoin:miter;stroke-width:1.5;" x="219.520207" xlink:href="#mb748dc5984" y="187.795075"/>
     <use style="fill:#f5deb3;stroke:#f5deb3;stroke-linejoin:miter;stroke-width:1.5;" x="283.641828" xlink:href="#mb748dc5984" y="122.958203"/>
     <use style="fill:#f5deb3;stroke:#f5deb3;stroke-linejoin:miter;stroke-width:1.5;" x="310.707782" xlink:href="#mb748dc5984" y="62.752535"/>
     <use style="fill:#f5deb3;stroke:#f5deb3;stroke-linejoin:miter;stroke-width:1.5;" x="338.688" xlink:href="#mb748dc5984" y="62.752535"/>
    </g>
   </g>
   <g id="line2d_3">
    <path style="fill:none;stroke:#f5deb3;stroke-linecap:square;stroke-width:4;"/>
    <g/>
   </g>
   <g id="line2d_4">
    <path d="M 338.688 62.752535 
L 369.60768 35.706297 
" style="fill:none;stroke:#f5deb3;stroke-linecap:square;stroke-width:4;"/>
    <g>
     <use style="fill:#f5deb3;stroke:#f5deb3;stroke-linejoin:miter;stroke-width:1.5;" x="338.688" xlink:href="#mb748dc5984" y="62.752535"/>
     <use style="fill:#f5deb3;stroke:#f5deb3;stroke-linejoin:miter;stroke-width:1.5;" x="369.60768" xlink:href="#mb748dc5984" y="35.706297"/>
    </g>
   </g>
   <g id="matplotlib.axis_1">
    <g id="xtick_1">
     <g id="line2d_5">
      <path clip-path="url(#pb12385669e)" d="M 57.6 298.944 
L 57.6 27.648 
" style="fill:none;stroke:#b0b0b0;stroke-linecap:square;stroke-width:0.8;"/>
     </g>
     <g id="line2d_6">
      <defs>
       <path d="M 0 0 
L 0 3.5 
" id="m4e55e1c310" style="stroke:#000000;stroke-width:0.8;"/>
      </defs>
      <g>
       <use style="stroke:#000000;stroke-width:0.8;" x="57.6" xlink:href="#m4e55e1c310" y="298.944"/>
      </g>
     </g>
     <g id="text_1">
      <!-- 0 -->
      <defs>
       <path d="M 31.78125 66.40625 
Q 24.171875 66.40625 20.328125 58.90625 
Q 16.5 51.421875 16.5 36.375 
Q 16.5 21.390625 20.328125 13.890625 
Q 24.171875 6.390625 31.78125 6.390625 
Q 39.453125 6.390625 43.28125 13.890625 
Q 47.125 21.390625 47.125 36.375 
Q 47.125 51.421875 43.28125 58.90625 
Q 39.453125 66.40625 31.78125 66.40625 
z
M 31.78125 74.21875 
Q 44.046875 74.21875 50.515625 64.515625 
Q 56.984375 54.828125 56.984375 36.375 
Q 56.984375 17.96875 50.515625 8.265625 
Q 44.046875 -1.421875 31.78125 -1.421875 
Q 19.53125 -1.421875 13.0625 8.265625 
Q 6.59375 17.96875 6.59375 36.375 
Q 6.59375 54.828125 13.0625 64.515625 
Q 19.53125 74.21875 31.78125 74.21875 
z
" id="DejaVuSans-48"/>
      </defs>
      <g transform="translate(51.2375 321.140875)scale(0.2 -0.2)">
       <use xlink:href="#DejaVuSans-48"/>
      </g>
     </g>
    </g>
    <g id="xtick_2">
     <g id="line2d_7">
      <path clip-path="url(#pb12385669e)" d="M 137.910857 298.944 
L 137.910857 27.648 
" style="fill:none;stroke:#b0b0b0;stroke-linecap:square;stroke-width:0.8;"/>
     </g>
     <g id="line2d_8">
      <g>
       <use style="stroke:#000000;stroke-width:0.8;" x="137.910857" xlink:href="#m4e55e1c310" y="298.944"/>
      </g>
     </g>
     <g id="text_2">
      <!-- 2 -->
      <defs>
       <path d="M 19.1875 8.296875 
L 53.609375 8.296875 
L 53.609375 0 
L 7.328125 0 
L 7.328125 8.296875 
Q 12.9375 14.109375 22.625 23.890625 
Q 32.328125 33.6875 34.8125 36.53125 
Q 39.546875 41.84375 41.421875 45.53125 
Q 43.3125 49.21875 43.3125 52.78125 
Q 43.3125 58.59375 39.234375 62.25 
Q 35.15625 65.921875 28.609375 65.921875 
Q 23.96875 65.921875 18.8125 64.3125 
Q 13.671875 62.703125 7.8125 59.421875 
L 7.8125 69.390625 
Q 13.765625 71.78125 18.9375 73 
Q 24.125 74.21875 28.421875 74.21875 
Q 39.75 74.21875 46.484375 68.546875 
Q 53.21875 62.890625 53.21875 53.421875 
Q 53.21875 48.921875 51.53125 44.890625 
Q 49.859375 40.875 45.40625 35.40625 
Q 44.1875 33.984375 37.640625 27.21875 
Q 31.109375 20.453125 19.1875 8.296875 
z
" id="DejaVuSans-50"/>
      </defs>
      <g transform="translate(131.548357 321.140875)scale(0.2 -0.2)">
       <use xlink:href="#DejaVuSans-50"/>
      </g>
     </g>
    </g>
    <g id="xtick_3">
     <g id="line2d_9">
      <path clip-path="url(#pb12385669e)" d="M 218.221714 298.944 
L 218.221714 27.648 
" style="fill:none;stroke:#b0b0b0;stroke-linecap:square;stroke-width:0.8;"/>
     </g>
     <g id="line2d_10">
      <g>
       <use style="stroke:#000000;stroke-width:0.8;" x="218.221714" xlink:href="#m4e55e1c310" y="298.944"/>
      </g>
     </g>
     <g id="text_3">
      <!-- 4 -->
      <defs>
       <path d="M 37.796875 64.3125 
L 12.890625 25.390625 
L 37.796875 25.390625 
z
M 35.203125 72.90625 
L 47.609375 72.90625 
L 47.609375 25.390625 
L 58.015625 25.390625 
L 58.015625 17.1875 
L 47.609375 17.1875 
L 47.609375 0 
L 37.796875 0 
L 37.796875 17.1875 
L 4.890625 17.1875 
L 4.890625 26.703125 
z
" id="DejaVuSans-52"/>
      </defs>
      <g transform="translate(211.859214 321.140875)scale(0.2 -0.2)">
       <use xlink:href="#DejaVuSans-52"/>
      </g>
     </g>
    </g>
    <g id="xtick_4">
     <g id="line2d_11">
      <path clip-path="url(#pb12385669e)" d="M 298.532571 298.944 
L 298.532571 27.648 
" style="fill:none;stroke:#b0b0b0;stroke-linecap:square;stroke-width:0.8;"/>
     </g>
     <g id="line2d_12">
      <g>
       <use style="stroke:#000000;stroke-width:0.8;" x="298.532571" xlink:href="#m4e55e1c310" y="298.944"/>
      </g>
     </g>
     <g id="text_4">
      <!-- 6 -->
      <defs>
       <path d="M 33.015625 40.375 
Q 26.375 40.375 22.484375 35.828125 
Q 18.609375 31.296875 18.609375 23.390625 
Q 18.609375 15.53125 22.484375 10.953125 
Q 26.375 6.390625 33.015625 6.390625 
Q 39.65625 6.390625 43.53125 10.953125 
Q 47.40625 15.53125 47.40625 23.390625 
Q 47.40625 31.296875 43.53125 35.828125 
Q 39.65625 40.375 33.015625 40.375 
z
M 52.59375 71.296875 
L 52.59375 62.3125 
Q 48.875 64.0625 45.09375 64.984375 
Q 41.3125 65.921875 37.59375 65.921875 
Q 27.828125 65.921875 22.671875 59.328125 
Q 17.53125 52.734375 16.796875 39.40625 
Q 19.671875 43.65625 24.015625 45.921875 
Q 28.375 48.1875 33.59375 48.1875 
Q 44.578125 48.1875 50.953125 41.515625 
Q 57.328125 34.859375 57.328125 23.390625 
Q 57.328125 12.15625 50.6875 5.359375 
Q 44.046875 -1.421875 33.015625 -1.421875 
Q 20.359375 -1.421875 13.671875 8.265625 
Q 6.984375 17.96875 6.984375 36.375 
Q 6.984375 53.65625 15.1875 63.9375 
Q 23.390625 74.21875 37.203125 74.21875 
Q 40.921875 74.21875 44.703125 73.484375 
Q 48.484375 72.75 52.59375 71.296875 
z
" id="DejaVuSans-54"/>
      </defs>
      <g transform="translate(292.170071 321.140875)scale(0.2 -0.2)">
       <use xlink:href="#DejaVuSans-54"/>
      </g>
     </g>
    </g>
    <g id="xtick_5">
     <g id="line2d_13">
      <path clip-path="url(#pb12385669e)" d="M 97.755429 298.944 
L 97.755429 27.648 
" style="fill:none;stroke:#b0b0b0;stroke-linecap:square;stroke-width:0.8;"/>
     </g>
     <g id="line2d_14">
      <defs>
       <path d="M 0 0 
L 0 2 
" id="md9621e0135" style="stroke:#000000;stroke-width:0.6;"/>
      </defs>
      <g>
       <use style="stroke:#000000;stroke-width:0.6;" x="97.755429" xlink:href="#md9621e0135" y="298.944"/>
      </g>
     </g>
    </g>
    <g id="xtick_6">
     <g id="line2d_15">
      <path clip-path="url(#pb12385669e)" d="M 178.066286 298.944 
L 178.066286 27.648 
" style="fill:none;stroke:#b0b0b0;stroke-linecap:square;stroke-width:0.8;"/>
     </g>
     <g id="line2d_16">
      <g>
       <use style="stroke:#000000;stroke-width:0.6;" x="178.066286" xlink:href="#md9621e0135" y="298.944"/>
      </g>
     </g>
    </g>
    <g id="xtick_7">
     <g id="line2d_17">
      <path clip-path="url(#pb12385669e)" d="M 258.377143 298.944 
L 258.377143 27.648 
" style="fill:none;stroke:#b0b0b0;stroke-linecap:square;stroke-width:0.8;"/>
     </g>
     <g id="line2d_18">
      <g>
       <use style="stroke:#000000;stroke-width:0.6;" x="258.377143" xlink:href="#md9621e0135" y="298.944"/>
      </g>
     </g>
    </g>
    <g id="xtick_8">
     <g id="line2d_19">
      <path clip-path="url(#pb12385669e)" d="M 338.688 298.944 
L 338.688 27.648 
" style="fill:none;stroke:#b0b0b0;stroke-linecap:square;stroke-width:0.8;"/>
     </g>
     <g id="line2d_20">
      <g>
       <use style="stroke:#000000;stroke-width:0.6;" x="338.688" xlink:href="#md9621e0135" y="298.944"/>
      </g>
     </g>
    </g>
    <g id="text_5">
     <!-- log10(# f-evals / dimension) -->
     <defs>
      <path d="M 9.421875 75.984375 
L 18.40625 75.984375 
L 18.40625 0 
L 9.421875 0 
z
" id="DejaVuSans-108"/>
      <path d="M 30.609375 48.390625 
Q 23.390625 48.390625 19.1875 42.75 
Q 14.984375 37.109375 14.984375 27.296875 
Q 14.984375 17.484375 19.15625 11.84375 
Q 23.34375 6.203125 30.609375 6.203125 
Q 37.796875 6.203125 41.984375 11.859375 
Q 46.1875 17.53125 46.1875 27.296875 
Q 46.1875 37.015625 41.984375 42.703125 
Q 37.796875 48.390625 30.609375 48.390625 
z
M 30.609375 56 
Q 42.328125 56 49.015625 48.375 
Q 55.71875 40.765625 55.71875 27.296875 
Q 55.71875 13.875 49.015625 6.21875 
Q 42.328125 -1.421875 30.609375 -1.421875 
Q 18.84375 -1.421875 12.171875 6.21875 
Q 5.515625 13.875 5.515625 27.296875 
Q 5.515625 40.765625 12.171875 48.375 
Q 18.84375 56 30.609375 56 
z
" id="DejaVuSans-111"/>
      <path d="M 45.40625 27.984375 
Q 45.40625 37.75 41.375 43.109375 
Q 37.359375 48.484375 30.078125 48.484375 
Q 22.859375 48.484375 18.828125 43.109375 
Q 14.796875 37.75 14.796875 27.984375 
Q 14.796875 18.265625 18.828125 12.890625 
Q 22.859375 7.515625 30.078125 7.515625 
Q 37.359375 7.515625 41.375 12.890625 
Q 45.40625 18.265625 45.40625 27.984375 
z
M 54.390625 6.78125 
Q 54.390625 -7.171875 48.1875 -13.984375 
Q 42 -20.796875 29.203125 -20.796875 
Q 24.46875 -20.796875 20.265625 -20.09375 
Q 16.0625 -19.390625 12.109375 -17.921875 
L 12.109375 -9.1875 
Q 16.0625 -11.328125 19.921875 -12.34375 
Q 23.78125 -13.375 27.78125 -13.375 
Q 36.625 -13.375 41.015625 -8.765625 
Q 45.40625 -4.15625 45.40625 5.171875 
L 45.40625 9.625 
Q 42.625 4.78125 38.28125 2.390625 
Q 33.9375 0 27.875 0 
Q 17.828125 0 11.671875 7.65625 
Q 5.515625 15.328125 5.515625 27.984375 
Q 5.515625 40.671875 11.671875 48.328125 
Q 17.828125 56 27.875 56 
Q 33.9375 56 38.28125 53.609375 
Q 42.625 51.21875 45.40625 46.390625 
L 45.40625 54.6875 
L 54.390625 54.6875 
z
" id="DejaVuSans-103"/>
      <path d="M 12.40625 8.296875 
L 28.515625 8.296875 
L 28.515625 63.921875 
L 10.984375 60.40625 
L 10.984375 69.390625 
L 28.421875 72.90625 
L 38.28125 72.90625 
L 38.28125 8.296875 
L 54.390625 8.296875 
L 54.390625 0 
L 12.40625 0 
z
" id="DejaVuSans-49"/>
      <path d="M 31 75.875 
Q 24.46875 64.65625 21.28125 53.65625 
Q 18.109375 42.671875 18.109375 31.390625 
Q 18.109375 20.125 21.3125 9.0625 
Q 24.515625 -2 31 -13.1875 
L 23.1875 -13.1875 
Q 15.875 -1.703125 12.234375 9.375 
Q 8.59375 20.453125 8.59375 31.390625 
Q 8.59375 42.28125 12.203125 53.3125 
Q 15.828125 64.359375 23.1875 75.875 
z
" id="DejaVuSans-40"/>
      <path d="M 51.125 44 
L 36.921875 44 
L 32.8125 27.6875 
L 47.125 27.6875 
z
M 43.796875 71.78125 
L 38.71875 51.515625 
L 52.984375 51.515625 
L 58.109375 71.78125 
L 65.921875 71.78125 
L 60.890625 51.515625 
L 76.125 51.515625 
L 76.125 44 
L 58.984375 44 
L 54.984375 27.6875 
L 70.515625 27.6875 
L 70.515625 20.21875 
L 53.078125 20.21875 
L 48 0 
L 40.1875 0 
L 45.21875 20.21875 
L 30.90625 20.21875 
L 25.875 0 
L 18.015625 0 
L 23.09375 20.21875 
L 7.71875 20.21875 
L 7.71875 27.6875 
L 24.90625 27.6875 
L 29 44 
L 13.28125 44 
L 13.28125 51.515625 
L 30.90625 51.515625 
L 35.890625 71.78125 
z
" id="DejaVuSans-35"/>
      <path id="DejaVuSans-32"/>
      <path d="M 37.109375 75.984375 
L 37.109375 68.5 
L 28.515625 68.5 
Q 23.6875 68.5 21.796875 66.546875 
Q 19.921875 64.59375 19.921875 59.515625 
L 19.921875 54.6875 
L 34.71875 54.6875 
L 34.71875 47.703125 
L 19.921875 47.703125 
L 19.921875 0 
L 10.890625 0 
L 10.890625 47.703125 
L 2.296875 47.703125 
L 2.296875 54.6875 
L 10.890625 54.6875 
L 10.890625 58.5 
Q 10.890625 67.625 15.140625 71.796875 
Q 19.390625 75.984375 28.609375 75.984375 
z
" id="DejaVuSans-102"/>
      <path d="M 4.890625 31.390625 
L 31.203125 31.390625 
L 31.203125 23.390625 
L 4.890625 23.390625 
z
" id="DejaVuSans-45"/>
      <path d="M 56.203125 29.59375 
L 56.203125 25.203125 
L 14.890625 25.203125 
Q 15.484375 15.921875 20.484375 11.0625 
Q 25.484375 6.203125 34.421875 6.203125 
Q 39.59375 6.203125 44.453125 7.46875 
Q 49.3125 8.734375 54.109375 11.28125 
L 54.109375 2.78125 
Q 49.265625 0.734375 44.1875 -0.34375 
Q 39.109375 -1.421875 33.890625 -1.421875 
Q 20.796875 -1.421875 13.15625 6.1875 
Q 5.515625 13.8125 5.515625 26.8125 
Q 5.515625 40.234375 12.765625 48.109375 
Q 20.015625 56 32.328125 56 
Q 43.359375 56 49.78125 48.890625 
Q 56.203125 41.796875 56.203125 29.59375 
z
M 47.21875 32.234375 
Q 47.125 39.59375 43.09375 43.984375 
Q 39.0625 48.390625 32.421875 48.390625 
Q 24.90625 48.390625 20.390625 44.140625 
Q 15.875 39.890625 15.1875 32.171875 
z
" id="DejaVuSans-101"/>
      <path d="M 2.984375 54.6875 
L 12.5 54.6875 
L 29.59375 8.796875 
L 46.6875 54.6875 
L 56.203125 54.6875 
L 35.6875 0 
L 23.484375 0 
z
" id="DejaVuSans-118"/>
      <path d="M 34.28125 27.484375 
Q 23.390625 27.484375 19.1875 25 
Q 14.984375 22.515625 14.984375 16.5 
Q 14.984375 11.71875 18.140625 8.90625 
Q 21.296875 6.109375 26.703125 6.109375 
Q 34.1875 6.109375 38.703125 11.40625 
Q 43.21875 16.703125 43.21875 25.484375 
L 43.21875 27.484375 
z
M 52.203125 31.203125 
L 52.203125 0 
L 43.21875 0 
L 43.21875 8.296875 
Q 40.140625 3.328125 35.546875 0.953125 
Q 30.953125 -1.421875 24.3125 -1.421875 
Q 15.921875 -1.421875 10.953125 3.296875 
Q 6 8.015625 6 15.921875 
Q 6 25.140625 12.171875 29.828125 
Q 18.359375 34.515625 30.609375 34.515625 
L 43.21875 34.515625 
L 43.21875 35.40625 
Q 43.21875 41.609375 39.140625 45 
Q 35.0625 48.390625 27.6875 48.390625 
Q 23 48.390625 18.546875 47.265625 
Q 14.109375 46.140625 10.015625 43.890625 
L 10.015625 52.203125 
Q 14.9375 54.109375 19.578125 55.046875 
Q 24.21875 56 28.609375 56 
Q 40.484375 56 46.34375 49.84375 
Q 52.203125 43.703125 52.203125 31.203125 
z
" id="DejaVuSans-97"/>
      <path d="M 44.28125 53.078125 
L 44.28125 44.578125 
Q 40.484375 46.53125 36.375 47.5 
Q 32.28125 48.484375 27.875 48.484375 
Q 21.1875 48.484375 17.84375 46.4375 
Q 14.5 44.390625 14.5 40.28125 
Q 14.5 37.15625 16.890625 35.375 
Q 19.28125 33.59375 26.515625 31.984375 
L 29.59375 31.296875 
Q 39.15625 29.25 43.1875 25.515625 
Q 47.21875 21.78125 47.21875 15.09375 
Q 47.21875 7.46875 41.1875 3.015625 
Q 35.15625 -1.421875 24.609375 -1.421875 
Q 20.21875 -1.421875 15.453125 -0.5625 
Q 10.6875 0.296875 5.421875 2 
L 5.421875 11.28125 
Q 10.40625 8.6875 15.234375 7.390625 
Q 20.0625 6.109375 24.8125 6.109375 
Q 31.15625 6.109375 34.5625 8.28125 
Q 37.984375 10.453125 37.984375 14.40625 
Q 37.984375 18.0625 35.515625 20.015625 
Q 33.0625 21.96875 24.703125 23.78125 
L 21.578125 24.515625 
Q 13.234375 26.265625 9.515625 29.90625 
Q 5.8125 33.546875 5.8125 39.890625 
Q 5.8125 47.609375 11.28125 51.796875 
Q 16.75 56 26.8125 56 
Q 31.78125 56 36.171875 55.265625 
Q 40.578125 54.546875 44.28125 53.078125 
z
" id="DejaVuSans-115"/>
      <path d="M 25.390625 72.90625 
L 33.6875 72.90625 
L 8.296875 -9.28125 
L 0 -9.28125 
z
" id="DejaVuSans-47"/>
      <path d="M 45.40625 46.390625 
L 45.40625 75.984375 
L 54.390625 75.984375 
L 54.390625 0 
L 45.40625 0 
L 45.40625 8.203125 
Q 42.578125 3.328125 38.25 0.953125 
Q 33.9375 -1.421875 27.875 -1.421875 
Q 17.96875 -1.421875 11.734375 6.484375 
Q 5.515625 14.40625 5.515625 27.296875 
Q 5.515625 40.1875 11.734375 48.09375 
Q 17.96875 56 27.875 56 
Q 33.9375 56 38.25 53.625 
Q 42.578125 51.265625 45.40625 46.390625 
z
M 14.796875 27.296875 
Q 14.796875 17.390625 18.875 11.75 
Q 22.953125 6.109375 30.078125 6.109375 
Q 37.203125 6.109375 41.296875 11.75 
Q 45.40625 17.390625 45.40625 27.296875 
Q 45.40625 37.203125 41.296875 42.84375 
Q 37.203125 48.484375 30.078125 48.484375 
Q 22.953125 48.484375 18.875 42.84375 
Q 14.796875 37.203125 14.796875 27.296875 
z
" id="DejaVuSans-100"/>
      <path d="M 9.421875 54.6875 
L 18.40625 54.6875 
L 18.40625 0 
L 9.421875 0 
z
M 9.421875 75.984375 
L 18.40625 75.984375 
L 18.40625 64.59375 
L 9.421875 64.59375 
z
" id="DejaVuSans-105"/>
      <path d="M 52 44.1875 
Q 55.375 50.25 60.0625 53.125 
Q 64.75 56 71.09375 56 
Q 79.640625 56 84.28125 50.015625 
Q 88.921875 44.046875 88.921875 33.015625 
L 88.921875 0 
L 79.890625 0 
L 79.890625 32.71875 
Q 79.890625 40.578125 77.09375 44.375 
Q 74.3125 48.1875 68.609375 48.1875 
Q 61.625 48.1875 57.5625 43.546875 
Q 53.515625 38.921875 53.515625 30.90625 
L 53.515625 0 
L 44.484375 0 
L 44.484375 32.71875 
Q 44.484375 40.625 41.703125 44.40625 
Q 38.921875 48.1875 33.109375 48.1875 
Q 26.21875 48.1875 22.15625 43.53125 
Q 18.109375 38.875 18.109375 30.90625 
L 18.109375 0 
L 9.078125 0 
L 9.078125 54.6875 
L 18.109375 54.6875 
L 18.109375 46.1875 
Q 21.1875 51.21875 25.484375 53.609375 
Q 29.78125 56 35.6875 56 
Q 41.65625 56 45.828125 52.96875 
Q 50 49.953125 52 44.1875 
z
" id="DejaVuSans-109"/>
      <path d="M 54.890625 33.015625 
L 54.890625 0 
L 45.90625 0 
L 45.90625 32.71875 
Q 45.90625 40.484375 42.875 44.328125 
Q 39.84375 48.1875 33.796875 48.1875 
Q 26.515625 48.1875 22.3125 43.546875 
Q 18.109375 38.921875 18.109375 30.90625 
L 18.109375 0 
L 9.078125 0 
L 9.078125 54.6875 
L 18.109375 54.6875 
L 18.109375 46.1875 
Q 21.34375 51.125 25.703125 53.5625 
Q 30.078125 56 35.796875 56 
Q 45.21875 56 50.046875 50.171875 
Q 54.890625 44.34375 54.890625 33.015625 
z
" id="DejaVuSans-110"/>
      <path d="M 8.015625 75.875 
L 15.828125 75.875 
Q 23.140625 64.359375 26.78125 53.3125 
Q 30.421875 42.28125 30.421875 31.390625 
Q 30.421875 20.453125 26.78125 9.375 
Q 23.140625 -1.703125 15.828125 -13.1875 
L 8.015625 -13.1875 
Q 14.5 -2 17.703125 9.0625 
Q 20.90625 20.125 20.90625 31.390625 
Q 20.90625 42.671875 17.703125 53.65625 
Q 14.5 64.65625 8.015625 75.875 
z
" id="DejaVuSans-41"/>
     </defs>
     <g transform="translate(77.303219 342.217594)scale(0.17 -0.17)">
      <use xlink:href="#DejaVuSans-108"/>
      <use x="27.783203" xlink:href="#DejaVuSans-111"/>
      <use x="88.964844" xlink:href="#DejaVuSans-103"/>
      <use x="152.441406" xlink:href="#DejaVuSans-49"/>
      <use x="216.064453" xlink:href="#DejaVuSans-48"/>
      <use x="279.6875" xlink:href="#DejaVuSans-40"/>
      <use x="318.701172" xlink:href="#DejaVuSans-35"/>
      <use x="402.490234" xlink:href="#DejaVuSans-32"/>
      <use x="434.277344" xlink:href="#DejaVuSans-102"/>
      <use x="469.404297" xlink:href="#DejaVuSans-45"/>
      <use x="505.488281" xlink:href="#DejaVuSans-101"/>
      <use x="567.011719" xlink:href="#DejaVuSans-118"/>
      <use x="626.191406" xlink:href="#DejaVuSans-97"/>
      <use x="687.470703" xlink:href="#DejaVuSans-108"/>
      <use x="715.253906" xlink:href="#DejaVuSans-115"/>
      <use x="767.353516" xlink:href="#DejaVuSans-32"/>
      <use x="799.140625" xlink:href="#DejaVuSans-47"/>
      <use x="832.832031" xlink:href="#DejaVuSans-32"/>
      <use x="864.619141" xlink:href="#DejaVuSans-100"/>
      <use x="928.095703" xlink:href="#DejaVuSans-105"/>
      <use x="955.878906" xlink:href="#DejaVuSans-109"/>
      <use x="1053.291016" xlink:href="#DejaVuSans-101"/>
      <use x="1114.814453" xlink:href="#DejaVuSans-110"/>
      <use x="1178.193359" xlink:href="#DejaVuSans-115"/>
      <use x="1230.292969" xlink:href="#DejaVuSans-105"/>
      <use x="1258.076172" xlink:href="#DejaVuSans-111"/>
      <use x="1319.257812" xlink:href="#DejaVuSans-110"/>
      <use x="1382.636719" xlink:href="#DejaVuSans-41"/>
     </g>
    </g>
   </g>
   <g id="matplotlib.axis_2">
    <g id="ytick_1">
     <g id="line2d_21">
      <path clip-path="url(#pb12385669e)" d="M 57.6 298.944 
L 338.688 298.944 
" style="fill:none;stroke:#b0b0b0;stroke-linecap:square;stroke-width:0.8;"/>
     </g>
     <g id="line2d_22">
      <defs>
       <path d="M 0 0 
L -3.5 0 
" id="m6da53f62cc" style="stroke:#000000;stroke-width:0.8;"/>
      </defs>
      <g>
       <use style="stroke:#000000;stroke-width:0.8;" x="57.6" xlink:href="#m6da53f62cc" y="298.944"/>
      </g>
     </g>
     <g id="text_6">
      <!-- 0.0 -->
      <defs>
       <path d="M 10.6875 12.40625 
L 21 12.40625 
L 21 0 
L 10.6875 0 
z
" id="DejaVuSans-46"/>
      </defs>
      <g transform="translate(25.155 305.02275)scale(0.16 -0.16)">
       <use xlink:href="#DejaVuSans-48"/>
       <use x="63.623047" xlink:href="#DejaVuSans-46"/>
       <use x="95.410156" xlink:href="#DejaVuSans-48"/>
      </g>
     </g>
    </g>
    <g id="ytick_2">
     <g id="line2d_23">
      <path clip-path="url(#pb12385669e)" d="M 57.6 245.22202 
L 338.688 245.22202 
" style="fill:none;stroke:#b0b0b0;stroke-linecap:square;stroke-width:0.8;"/>
     </g>
     <g id="line2d_24">
      <g>
       <use style="stroke:#000000;stroke-width:0.8;" x="57.6" xlink:href="#m6da53f62cc" y="245.22202"/>
      </g>
     </g>
     <g id="text_7">
      <!-- 0.2 -->
      <g transform="translate(25.155 251.30077)scale(0.16 -0.16)">
       <use xlink:href="#DejaVuSans-48"/>
       <use x="63.623047" xlink:href="#DejaVuSans-46"/>
       <use x="95.410156" xlink:href="#DejaVuSans-50"/>
      </g>
     </g>
    </g>
    <g id="ytick_3">
     <g id="line2d_25">
      <path clip-path="url(#pb12385669e)" d="M 57.6 191.50004 
L 338.688 191.50004 
" style="fill:none;stroke:#b0b0b0;stroke-linecap:square;stroke-width:0.8;"/>
     </g>
     <g id="line2d_26">
      <g>
       <use style="stroke:#000000;stroke-width:0.8;" x="57.6" xlink:href="#m6da53f62cc" y="191.50004"/>
      </g>
     </g>
     <g id="text_8">
      <!-- 0.4 -->
      <g transform="translate(25.155 197.57879)scale(0.16 -0.16)">
       <use xlink:href="#DejaVuSans-48"/>
       <use x="63.623047" xlink:href="#DejaVuSans-46"/>
       <use x="95.410156" xlink:href="#DejaVuSans-52"/>
      </g>
     </g>
    </g>
    <g id="ytick_4">
     <g id="line2d_27">
      <path clip-path="url(#pb12385669e)" d="M 57.6 137.778059 
L 338.688 137.778059 
" style="fill:none;stroke:#b0b0b0;stroke-linecap:square;stroke-width:0.8;"/>
     </g>
     <g id="line2d_28">
      <g>
       <use style="stroke:#000000;stroke-width:0.8;" x="57.6" xlink:href="#m6da53f62cc" y="137.778059"/>
      </g>
     </g>
     <g id="text_9">
      <!-- 0.6 -->
      <g transform="translate(25.155 143.856809)scale(0.16 -0.16)">
       <use xlink:href="#DejaVuSans-48"/>
       <use x="63.623047" xlink:href="#DejaVuSans-46"/>
       <use x="95.410156" xlink:href="#DejaVuSans-54"/>
      </g>
     </g>
    </g>
    <g id="ytick_5">
     <g id="line2d_29">
      <path clip-path="url(#pb12385669e)" d="M 57.6 84.056079 
L 338.688 84.056079 
" style="fill:none;stroke:#b0b0b0;stroke-linecap:square;stroke-width:0.8;"/>
     </g>
     <g id="line2d_30">
      <g>
       <use style="stroke:#000000;stroke-width:0.8;" x="57.6" xlink:href="#m6da53f62cc" y="84.056079"/>
      </g>
     </g>
     <g id="text_10">
      <!-- 0.8 -->
      <defs>
       <path d="M 31.78125 34.625 
Q 24.75 34.625 20.71875 30.859375 
Q 16.703125 27.09375 16.703125 20.515625 
Q 16.703125 13.921875 20.71875 10.15625 
Q 24.75 6.390625 31.78125 6.390625 
Q 38.8125 6.390625 42.859375 10.171875 
Q 46.921875 13.96875 46.921875 20.515625 
Q 46.921875 27.09375 42.890625 30.859375 
Q 38.875 34.625 31.78125 34.625 
z
M 21.921875 38.8125 
Q 15.578125 40.375 12.03125 44.71875 
Q 8.5 49.078125 8.5 55.328125 
Q 8.5 64.0625 14.71875 69.140625 
Q 20.953125 74.21875 31.78125 74.21875 
Q 42.671875 74.21875 48.875 69.140625 
Q 55.078125 64.0625 55.078125 55.328125 
Q 55.078125 49.078125 51.53125 44.71875 
Q 48 40.375 41.703125 38.8125 
Q 48.828125 37.15625 52.796875 32.3125 
Q 56.78125 27.484375 56.78125 20.515625 
Q 56.78125 9.90625 50.3125 4.234375 
Q 43.84375 -1.421875 31.78125 -1.421875 
Q 19.734375 -1.421875 13.25 4.234375 
Q 6.78125 9.90625 6.78125 20.515625 
Q 6.78125 27.484375 10.78125 32.3125 
Q 14.796875 37.15625 21.921875 38.8125 
z
M 18.3125 54.390625 
Q 18.3125 48.734375 21.84375 45.5625 
Q 25.390625 42.390625 31.78125 42.390625 
Q 38.140625 42.390625 41.71875 45.5625 
Q 45.3125 48.734375 45.3125 54.390625 
Q 45.3125 60.0625 41.71875 63.234375 
Q 38.140625 66.40625 31.78125 66.40625 
Q 25.390625 66.40625 21.84375 63.234375 
Q 18.3125 60.0625 18.3125 54.390625 
z
" id="DejaVuSans-56"/>
      </defs>
      <g transform="translate(25.155 90.134829)scale(0.16 -0.16)">
       <use xlink:href="#DejaVuSans-48"/>
       <use x="63.623047" xlink:href="#DejaVuSans-46"/>
       <use x="95.410156" xlink:href="#DejaVuSans-56"/>
      </g>
     </g>
    </g>
    <g id="ytick_6">
     <g id="line2d_31">
      <path clip-path="url(#pb12385669e)" d="M 57.6 30.334099 
L 338.688 30.334099 
" style="fill:none;stroke:#b0b0b0;stroke-linecap:square;stroke-width:0.8;"/>
     </g>
     <g id="line2d_32">
      <g>
       <use style="stroke:#000000;stroke-width:0.8;" x="57.6" xlink:href="#m6da53f62cc" y="30.334099"/>
      </g>
     </g>
     <g id="text_11">
      <!-- 1.0 -->
      <g transform="translate(25.155 36.412849)scale(0.16 -0.16)">
       <use xlink:href="#DejaVuSans-49"/>
       <use x="63.623047" xlink:href="#DejaVuSans-46"/>
       <use x="95.410156" xlink:href="#DejaVuSans-48"/>
      </g>
     </g>
    </g>
    <g id="text_12">
     <!-- Fraction of function,target pairs -->
     <defs>
      <path d="M 9.8125 72.90625 
L 51.703125 72.90625 
L 51.703125 64.59375 
L 19.671875 64.59375 
L 19.671875 43.109375 
L 48.578125 43.109375 
L 48.578125 34.8125 
L 19.671875 34.8125 
L 19.671875 0 
L 9.8125 0 
z
" id="DejaVuSans-70"/>
      <path d="M 41.109375 46.296875 
Q 39.59375 47.171875 37.8125 47.578125 
Q 36.03125 48 33.890625 48 
Q 26.265625 48 22.1875 43.046875 
Q 18.109375 38.09375 18.109375 28.8125 
L 18.109375 0 
L 9.078125 0 
L 9.078125 54.6875 
L 18.109375 54.6875 
L 18.109375 46.1875 
Q 20.953125 51.171875 25.484375 53.578125 
Q 30.03125 56 36.53125 56 
Q 37.453125 56 38.578125 55.875 
Q 39.703125 55.765625 41.0625 55.515625 
z
" id="DejaVuSans-114"/>
      <path d="M 48.78125 52.59375 
L 48.78125 44.1875 
Q 44.96875 46.296875 41.140625 47.34375 
Q 37.3125 48.390625 33.40625 48.390625 
Q 24.65625 48.390625 19.8125 42.84375 
Q 14.984375 37.3125 14.984375 27.296875 
Q 14.984375 17.28125 19.8125 11.734375 
Q 24.65625 6.203125 33.40625 6.203125 
Q 37.3125 6.203125 41.140625 7.25 
Q 44.96875 8.296875 48.78125 10.40625 
L 48.78125 2.09375 
Q 45.015625 0.34375 40.984375 -0.53125 
Q 36.96875 -1.421875 32.421875 -1.421875 
Q 20.0625 -1.421875 12.78125 6.34375 
Q 5.515625 14.109375 5.515625 27.296875 
Q 5.515625 40.671875 12.859375 48.328125 
Q 20.21875 56 33.015625 56 
Q 37.15625 56 41.109375 55.140625 
Q 45.0625 54.296875 48.78125 52.59375 
z
" id="DejaVuSans-99"/>
      <path d="M 18.3125 70.21875 
L 18.3125 54.6875 
L 36.8125 54.6875 
L 36.8125 47.703125 
L 18.3125 47.703125 
L 18.3125 18.015625 
Q 18.3125 11.328125 20.140625 9.421875 
Q 21.96875 7.515625 27.59375 7.515625 
L 36.8125 7.515625 
L 36.8125 0 
L 27.59375 0 
Q 17.1875 0 13.234375 3.875 
Q 9.28125 7.765625 9.28125 18.015625 
L 9.28125 47.703125 
L 2.6875 47.703125 
L 2.6875 54.6875 
L 9.28125 54.6875 
L 9.28125 70.21875 
z
" id="DejaVuSans-116"/>
      <path d="M 8.5 21.578125 
L 8.5 54.6875 
L 17.484375 54.6875 
L 17.484375 21.921875 
Q 17.484375 14.15625 20.5 10.265625 
Q 23.53125 6.390625 29.59375 6.390625 
Q 36.859375 6.390625 41.078125 11.03125 
Q 45.3125 15.671875 45.3125 23.6875 
L 45.3125 54.6875 
L 54.296875 54.6875 
L 54.296875 0 
L 45.3125 0 
L 45.3125 8.40625 
Q 42.046875 3.421875 37.71875 1 
Q 33.40625 -1.421875 27.6875 -1.421875 
Q 18.265625 -1.421875 13.375 4.4375 
Q 8.5 10.296875 8.5 21.578125 
z
M 31.109375 56 
z
" id="DejaVuSans-117"/>
      <path d="M 11.71875 12.40625 
L 22.015625 12.40625 
L 22.015625 4 
L 14.015625 -11.625 
L 7.71875 -11.625 
L 11.71875 4 
z
" id="DejaVuSans-44"/>
      <path d="M 18.109375 8.203125 
L 18.109375 -20.796875 
L 9.078125 -20.796875 
L 9.078125 54.6875 
L 18.109375 54.6875 
L 18.109375 46.390625 
Q 20.953125 51.265625 25.265625 53.625 
Q 29.59375 56 35.59375 56 
Q 45.5625 56 51.78125 48.09375 
Q 58.015625 40.1875 58.015625 27.296875 
Q 58.015625 14.40625 51.78125 6.484375 
Q 45.5625 -1.421875 35.59375 -1.421875 
Q 29.59375 -1.421875 25.265625 0.953125 
Q 20.953125 3.328125 18.109375 8.203125 
z
M 48.6875 27.296875 
Q 48.6875 37.203125 44.609375 42.84375 
Q 40.53125 48.484375 33.40625 48.484375 
Q 26.265625 48.484375 22.1875 42.84375 
Q 18.109375 37.203125 18.109375 27.296875 
Q 18.109375 17.390625 22.1875 11.75 
Q 26.265625 6.109375 33.40625 6.109375 
Q 40.53125 6.109375 44.609375 11.75 
Q 48.6875 17.390625 48.6875 27.296875 
z
" id="DejaVuSans-112"/>
     </defs>
     <g transform="translate(17.619531 298.435375)rotate(-90)scale(0.17 -0.17)">
      <use xlink:href="#DejaVuSans-70"/>
      <use x="57.410156" xlink:href="#DejaVuSans-114"/>
      <use x="98.523438" xlink:href="#DejaVuSans-97"/>
      <use x="159.802734" xlink:href="#DejaVuSans-99"/>
      <use x="214.783203" xlink:href="#DejaVuSans-116"/>
      <use x="253.992188" xlink:href="#DejaVuSans-105"/>
      <use x="281.775391" xlink:href="#DejaVuSans-111"/>
      <use x="342.957031" xlink:href="#DejaVuSans-110"/>
      <use x="406.335938" xlink:href="#DejaVuSans-32"/>
      <use x="438.123047" xlink:href="#DejaVuSans-111"/>
      <use x="499.304688" xlink:href="#DejaVuSans-102"/>
      <use x="534.509766" xlink:href="#DejaVuSans-32"/>
      <use x="566.296875" xlink:href="#DejaVuSans-102"/>
      <use x="601.501953" xlink:href="#DejaVuSans-117"/>
      <use x="664.880859" xlink:href="#DejaVuSans-110"/>
      <use x="728.259766" xlink:href="#DejaVuSans-99"/>
      <use x="783.240234" xlink:href="#DejaVuSans-116"/>
      <use x="822.449219" xlink:href="#DejaVuSans-105"/>
      <use x="850.232422" xlink:href="#DejaVuSans-111"/>
      <use x="911.414062" xlink:href="#DejaVuSans-110"/>
      <use x="974.792969" xlink:href="#DejaVuSans-44"/>
      <use x="1006.580078" xlink:href="#DejaVuSans-116"/>
      <use x="1045.789062" xlink:href="#DejaVuSans-97"/>
      <use x="1107.068359" xlink:href="#DejaVuSans-114"/>
      <use x="1148.166016" xlink:href="#DejaVuSans-103"/>
      <use x="1211.642578" xlink:href="#DejaVuSans-101"/>
      <use x="1273.166016" xlink:href="#DejaVuSans-116"/>
      <use x="1312.375" xlink:href="#DejaVuSans-32"/>
      <use x="1344.162109" xlink:href="#DejaVuSans-112"/>
      <use x="1407.638672" xlink:href="#DejaVuSans-97"/>
      <use x="1468.917969" xlink:href="#DejaVuSans-105"/>
      <use x="1496.701172" xlink:href="#DejaVuSans-114"/>
      <use x="1537.814453" xlink:href="#DejaVuSans-115"/>
     </g>
    </g>
   </g>
   <g id="line2d_33">
    <defs>
     <path d="M 0 1.5 
C 0.397805 1.5 0.77937 1.341951 1.06066 1.06066 
C 1.341951 0.77937 1.5 0.397805 1.5 0 
C 1.5 -0.397805 1.341951 -0.77937 1.06066 -1.06066 
C 0.77937 -1.341951 0.397805 -1.5 0 -1.5 
C -0.397805 -1.5 -0.77937 -1.341951 -1.06066 -1.06066 
C -1.341951 -0.77937 -1.5 -0.397805 -1.5 0 
C -1.5 0.397805 -1.341951 0.77937 -1.06066 1.06066 
C -0.77937 1.341951 -0.397805 1.5 0 1.5 
z
" id="mfc154e4d01" style="stroke:#f5deb3;"/>
    </defs>
    <g>
     <use style="fill:#f5deb3;stroke:#f5deb3;" x="310.707782" xlink:href="#mfc154e4d01" y="62.752535"/>
     <use style="fill:#f5deb3;stroke:#f5deb3;" x="310.707782" xlink:href="#mfc154e4d01" y="62.752535"/>
    </g>
   </g>
   <g id="line2d_34">
    <defs>
     <path d="M 0 1.5 
C 0.397805 1.5 0.77937 1.341951 1.06066 1.06066 
C 1.341951 0.77937 1.5 0.397805 1.5 0 
C 1.5 -0.397805 1.341951 -0.77937 1.06066 -1.06066 
C 0.77937 -1.341951 0.397805 -1.5 0 -1.5 
C -0.397805 -1.5 -0.77937 -1.341951 -1.06066 -1.06066 
C -1.341951 -0.77937 -1.5 -0.397805 -1.5 0 
C -1.5 0.397805 -1.341951 0.77937 -1.06066 1.06066 
C -0.77937 1.341951 -0.397805 1.5 0 1.5 
z
" id="m49a962fae2" style="stroke:#000080;"/>
    </defs>
    <g>
     <use style="fill:#000080;stroke:#000080;" x="246.073792" xlink:href="#m49a962fae2" y="139.630541"/>
     <use style="fill:#000080;stroke:#000080;" x="246.073792" xlink:href="#m49a962fae2" y="139.630541"/>
    </g>
   </g>
   <g id="line2d_35">
    <path d="M 38.440992 298.944 
L 38.440992 291.534072 
L 57.6 291.534072 
L 57.6 285.976625 
L 62.616969 285.976625 
L 62.616969 284.124143 
L 66.508432 284.124143 
L 66.508432 276.714215 
L 74.704957 276.714215 
L 74.704957 274.861733 
L 80.258561 274.861733 
L 80.258561 273.935492 
L 87.850195 273.935492 
L 87.850195 273.009251 
L 88.846997 273.009251 
L 88.846997 270.230528 
L 94.575872 270.230528 
L 94.575872 269.304287 
L 95.259853 269.304287 
L 95.259853 267.451805 
L 95.918017 267.451805 
L 95.918017 264.673082 
L 99.938184 264.673082 
L 99.938184 263.746841 
L 100.934985 263.746841 
L 100.934985 262.8206 
L 102.330873 262.8206 
L 102.330873 261.894358 
L 102.772397 261.894358 
L 102.772397 260.968117 
L 104.033617 260.968117 
L 104.033617 259.115635 
L 104.826449 259.115635 
L 104.826449 256.336912 
L 106.311539 256.336912 
L 106.311539 254.48443 
L 107.009204 254.48443 
L 107.009204 253.558189 
L 107.347841 253.558189 
L 107.347841 252.631948 
L 109.550313 252.631948 
L 109.550313 251.705707 
L 110.968922 251.705707 
L 110.968922 249.853225 
L 114.418861 249.853225 
L 114.418861 248.926984 
L 116.522527 248.926984 
L 116.522527 246.148261 
L 117.297733 246.148261 
L 117.297733 244.295779 
L 117.486268 244.295779 
L 117.486268 242.443297 
L 118.576578 242.443297 
L 118.576578 240.590815 
L 124.989434 240.590815 
L 124.989434 239.664574 
L 128.107907 239.664574 
L 128.107907 238.738333 
L 132.659801 238.738333 
L 132.659801 236.88585 
L 133.72629 236.88585 
L 133.72629 235.959609 
L 138.426341 235.959609 
L 138.426341 234.107127 
L 140.144829 234.107127 
L 140.144829 232.254645 
L 140.599134 232.254645 
L 140.599134 231.328404 
L 143.187472 231.328404 
L 143.187472 229.475922 
L 147.835457 229.475922 
L 147.835457 227.62344 
L 149.195872 227.62344 
L 149.195872 225.770958 
L 149.998846 225.770958 
L 149.998846 224.844717 
L 151.713753 224.844717 
L 151.713753 223.918476 
L 164.243924 223.918476 
L 164.243924 222.065994 
L 165.230021 222.065994 
L 165.230021 221.139753 
L 169.776502 221.139753 
L 169.776502 219.287271 
L 170.18316 219.287271 
L 170.18316 215.582307 
L 171.887604 215.582307 
L 171.887604 213.729825 
L 172.142557 213.729825 
L 172.142557 211.877342 
L 172.369676 211.877342 
L 172.369676 210.02486 
L 172.791647 210.02486 
L 172.791647 209.098619 
L 176.510779 209.098619 
L 176.510779 208.172378 
L 177.826305 208.172378 
L 177.826305 207.246137 
L 183.428598 207.246137 
L 183.428598 206.319896 
L 185.865946 206.319896 
L 185.865946 204.467414 
L 187.082507 204.467414 
L 187.082507 203.541173 
L 187.289259 203.541173 
L 187.289259 201.688691 
L 187.728984 201.688691 
L 187.769021 198.909968 
L 189.210735 198.909968 
L 189.210735 197.057486 
L 190.980209 197.057486 
L 190.980209 196.131245 
L 192.141022 196.131245 
L 192.141022 194.278763 
L 195.997177 194.278763 
L 195.997177 193.352522 
L 199.109728 193.352522 
L 199.109728 192.426281 
L 204.473677 192.426281 
L 204.473677 191.50004 
L 206.466527 191.50004 
L 206.466527 189.647558 
L 206.712306 189.647558 
L 206.712306 187.795075 
L 207.177292 187.795075 
L 207.177292 186.868834 
L 208.448315 186.868834 
L 208.448315 185.942593 
L 211.925825 185.942593 
L 211.925825 185.016352 
L 212.174264 185.016352 
L 212.180019 182.237629 
L 214.485062 182.237629 
L 214.485062 181.311388 
L 215.008642 181.311388 
L 215.008642 180.385147 
L 217.251769 180.385147 
L 217.251769 179.458906 
L 218.077537 179.458906 
L 218.077537 178.532665 
L 220.322724 178.532665 
L 220.322724 177.606424 
L 220.658051 177.606424 
L 220.658051 176.680183 
L 224.387607 176.680183 
L 224.387607 175.753942 
L 224.74036 175.753942 
L 224.74036 173.90146 
L 226.430225 173.90146 
L 226.486048 171.122737 
L 226.684328 171.122737 
L 226.776402 167.417773 
L 227.215737 167.417773 
L 227.215737 166.491532 
L 229.771623 166.491532 
L 229.771623 165.565291 
L 231.858384 165.565291 
L 231.869019 162.786567 
L 232.399887 162.786567 
L 232.399887 161.860326 
L 236.37756 161.860326 
L 236.37756 160.934085 
L 237.529483 160.934085 
L 237.529483 160.007844 
L 237.827783 160.007844 
L 237.865892 156.30288 
L 239.483622 156.30288 
L 239.483622 155.376639 
L 243.334847 155.376639 
L 243.334847 153.524157 
L 244.673804 153.524157 
L 244.715207 149.819193 
L 245.328671 149.819193 
L 245.426793 141.483024 
L 245.934461 141.483024 
L 245.934461 140.556783 
L 246.073792 140.556783 
L 246.073792 139.630541 
L 338.688 139.630541 
L 338.688 139.630541 
" style="fill:none;stroke:#000080;stroke-linecap:square;stroke-width:1.5;"/>
   </g>
   <g id="line2d_36">
    <defs>
     <path d="M 0 6 
C 1.591219 6 3.117479 5.367802 4.242641 4.242641 
C 5.367802 3.117479 6 1.591219 6 0 
C 6 -1.591219 5.367802 -3.117479 4.242641 -4.242641 
C 3.117479 -5.367802 1.591219 -6 0 -6 
C -1.591219 -6 -3.117479 -5.367802 -4.242641 -4.242641 
C -5.367802 -3.117479 -6 -1.591219 -6 0 
C -6 1.591219 -5.367802 3.117479 -4.242641 4.242641 
C -3.117479 5.367802 -1.591219 6 0 6 
z
" id="m09e60bd272" style="stroke:#000080;stroke-width:1.5;"/>
    </defs>
    <g>
     <use style="fill-opacity:0;stroke:#000080;stroke-width:1.5;" x="95.259853" xlink:href="#m09e60bd272" y="269.304287"/>
     <use style="fill-opacity:0;stroke:#000080;stroke-width:1.5;" x="149.998846" xlink:href="#m09e60bd272" y="225.770958"/>
     <use style="fill-opacity:0;stroke:#000080;stroke-width:1.5;" x="226.486048" xlink:href="#m09e60bd272" y="172.975219"/>
     <use style="fill-opacity:0;stroke:#000080;stroke-width:1.5;" x="246.073792" xlink:href="#m09e60bd272" y="140.556783"/>
     <use style="fill-opacity:0;stroke:#000080;stroke-width:1.5;" x="246.073792" xlink:href="#m09e60bd272" y="139.630541"/>
     <use style="fill-opacity:0;stroke:#000080;stroke-width:1.5;" x="338.688" xlink:href="#m09e60bd272" y="139.630541"/>
    </g>
   </g>
   <g id="line2d_37">
    <path style="fill:none;stroke:#000080;stroke-linecap:square;stroke-width:1.5;"/>
    <g/>
   </g>
   <g id="line2d_38">
    <path clip-path="url(#pb12385669e)" d="M 246.289619 139.630541 
" style="fill:none;stroke:#000080;stroke-linecap:square;stroke-width:1.5;"/>
    <defs>
     <path d="M -12 12 
L 12 -12 
M -12 -12 
L 12 12 
" id="m288dba0648" style="stroke:#000080;"/>
    </defs>
    <g clip-path="url(#pb12385669e)">
     <use style="fill:#000080;stroke:#000080;" x="246.289619" xlink:href="#m288dba0648" y="139.630541"/>
    </g>
   </g>
   <g id="line2d_39">
    <defs>
     <path d="M 0 1.5 
C 0.397805 1.5 0.77937 1.341951 1.06066 1.06066 
C 1.341951 0.77937 1.5 0.397805 1.5 0 
C 1.5 -0.397805 1.341951 -0.77937 1.06066 -1.06066 
C 0.77937 -1.341951 0.397805 -1.5 0 -1.5 
C -0.397805 -1.5 -0.77937 -1.341951 -1.06066 -1.06066 
C -1.341951 -0.77937 -1.5 -0.397805 -1.5 0 
C -1.5 0.397805 -1.341951 0.77937 -1.06066 1.06066 
C -0.77937 1.341951 -0.397805 1.5 0 1.5 
z
" id="m32d366187e" style="stroke:#ff00ff;"/>
    </defs>
    <g>
     <use style="fill:#ff00ff;stroke:#ff00ff;" x="301.332891" xlink:href="#m32d366187e" y="85.445441"/>
     <use style="fill:#ff00ff;stroke:#ff00ff;" x="301.332891" xlink:href="#m32d366187e" y="85.445441"/>
    </g>
   </g>
   <g id="line2d_40">
    <path d="M 38.440992 298.944 
L 38.440992 290.14471 
L 50.52898 290.14471 
L 50.52898 289.218469 
L 57.6 289.218469 
L 57.6 288.755349 
L 62.616969 288.755349 
L 62.616969 287.365987 
L 66.508432 287.365987 
L 66.508432 285.513505 
L 69.687988 285.513505 
L 69.687988 276.714215 
L 72.376266 276.714215 
L 72.376266 275.787974 
L 74.704957 275.787974 
L 74.704957 275.324854 
L 81.775977 275.324854 
L 81.775977 273.472371 
L 83.171864 273.472371 
L 83.171864 273.009251 
L 84.464254 273.009251 
L 84.464254 272.54613 
L 87.850195 272.54613 
L 87.850195 269.767407 
L 88.846997 269.767407 
L 88.846997 269.304287 
L 95.259853 269.304287 
L 95.259853 268.841166 
L 95.918017 268.841166 
L 95.918017 268.378046 
L 96.552242 268.378046 
L 96.552242 267.914925 
L 97.755429 267.914925 
L 97.755429 266.988684 
L 101.877879 266.988684 
L 101.877879 266.062443 
L 102.772397 266.062443 
L 102.772397 264.209961 
L 103.623262 264.209961 
L 103.623262 263.746841 
L 105.209745 263.746841 
L 105.209745 263.28372 
L 106.311539 263.28372 
L 106.311539 262.8206 
L 108.006005 262.8206 
L 108.006005 262.357479 
L 108.640231 262.357479 
L 108.640231 261.894358 
L 109.252198 261.894358 
L 109.252198 261.431238 
L 109.550313 261.431238 
L 109.550313 260.968117 
L 110.694282 260.968117 
L 110.694282 260.504997 
L 110.968922 260.504997 
L 110.968922 259.578756 
L 112.531694 259.578756 
L 112.531694 259.115635 
L 113.022974 259.115635 
L 113.022974 258.652515 
L 117.857331 258.652515 
L 117.857331 258.189394 
L 118.039942 258.189394 
L 118.039942 257.726274 
L 121.489881 257.726274 
L 121.489881 256.800033 
L 122.219665 256.800033 
L 122.219665 255.873792 
L 123.192626 255.873792 
L 123.192626 255.410671 
L 127.05703 255.410671 
L 127.05703 254.48443 
L 128.709321 254.48443 
L 128.709321 254.02131 
L 129.480244 254.02131 
L 129.480244 253.558189 
L 130.576266 253.558189 
L 130.576266 253.095069 
L 131.185181 253.095069 
L 131.185181 252.631948 
L 132.581068 252.631948 
L 132.581068 251.705707 
L 134.37898 251.705707 
L 134.37898 251.242587 
L 135.615352 251.242587 
L 135.681535 249.853225 
L 136.393441 249.853225 
L 136.456742 248.463863 
L 137.016339 248.463863 
L 137.016339 248.000743 
L 137.37967 248.000743 
L 137.37967 247.537622 
L 138.199116 247.537622 
L 138.199116 246.611381 
L 138.927025 246.611381 
L 139.036363 245.22202 
L 139.783113 245.22202 
L 139.783113 244.758899 
L 140.297583 244.758899 
L 140.297583 244.295779 
L 140.499195 244.295779 
L 140.499195 243.832658 
L 140.79731 243.832658 
L 140.79731 242.906417 
L 142.884173 242.906417 
L 142.884173 242.443297 
L 143.485587 242.443297 
L 143.485587 241.517056 
L 143.943994 241.517056 
L 143.943994 241.053935 
L 144.148442 241.053935 
L 144.148442 240.590815 
L 148.888835 240.590815 
L 148.888835 240.127694 
L 149.998846 240.127694 
L 149.998846 239.201453 
L 155.275461 239.201453 
L 155.275461 238.275212 
L 155.970177 238.275212 
L 155.970177 237.348971 
L 157.434196 237.348971 
L 157.491032 235.496489 
L 159.724893 235.496489 
L 159.724893 235.033368 
L 167.384913 235.033368 
L 167.384913 234.570248 
L 176.131719 234.570248 
L 176.131719 233.644007 
L 176.61217 233.644007 
L 176.61217 232.717766 
L 178.25707 232.717766 
L 178.25707 232.254645 
L 179.219019 232.254645 
L 179.219019 231.328404 
L 179.451438 231.328404 
L 179.451438 230.865284 
L 179.875772 230.865284 
L 179.875772 230.402163 
L 180.089306 230.402163 
L 180.089306 229.475922 
L 180.264422 229.475922 
L 180.36152 228.086561 
L 180.407326 228.086561 
L 180.407326 227.62344 
L 180.649612 227.62344 
L 180.649612 226.697199 
L 180.779458 226.697199 
L 180.779458 225.770958 
L 182.552068 225.770958 
L 182.570037 223.455355 
L 183.479815 223.455355 
L 183.479815 222.992235 
L 184.602123 222.992235 
L 184.602123 222.529114 
L 193.59825 222.529114 
L 193.59825 221.602873 
L 194.136187 221.602873 
L 194.246869 220.213512 
L 195.015778 220.213512 
L 195.015778 219.287271 
L 195.955546 219.287271 
L 195.955546 218.82415 
L 196.861106 218.82415 
L 196.861106 217.897909 
L 198.323529 217.897909 
L 198.323529 216.971668 
L 201.258792 216.971668 
L 201.258792 216.508548 
L 202.078732 216.508548 
L 202.078732 215.582307 
L 202.295951 215.582307 
L 202.37978 214.192945 
L 202.616079 214.192945 
L 202.616079 213.266704 
L 203.068197 213.266704 
L 203.068197 212.340463 
L 203.889865 212.340463 
L 203.889865 211.414222 
L 205.54371 211.414222 
L 205.54371 210.487981 
L 206.288825 210.487981 
L 206.288825 210.02486 
L 209.431083 210.02486 
L 209.431083 209.56174 
L 209.689943 209.56174 
L 209.689943 208.635499 
L 210.187201 208.635499 
L 210.187201 207.709258 
L 210.823269 207.709258 
L 210.823269 207.246137 
L 211.100921 207.246137 
L 211.206411 206.319896 
L 212.654371 206.319896 
L 212.654371 205.856776 
L 212.893503 205.856776 
L 212.893503 204.930535 
L 213.020861 204.930535 
L 213.020861 204.467414 
L 213.135627 204.467414 
L 213.135627 204.004294 
L 213.269731 204.004294 
L 213.269731 203.078053 
L 213.432673 203.078053 
L 213.531843 201.688691 
L 213.687088 201.688691 
L 213.687088 201.225571 
L 214.006824 201.225571 
L 214.006824 200.76245 
L 214.211405 200.76245 
L 214.211405 200.299329 
L 214.531813 200.299329 
L 214.531813 199.373088 
L 216.906683 199.373088 
L 216.906683 198.446847 
L 217.744978 198.446847 
L 217.744978 197.983727 
L 217.922698 197.983727 
L 217.922698 197.520606 
L 218.07695 197.520606 
L 218.143644 196.131245 
L 219.088627 196.131245 
L 219.088627 195.668124 
L 219.443415 195.668124 
L 219.443415 195.205004 
L 220.049532 195.205004 
L 220.049532 194.278763 
L 220.202237 194.278763 
L 220.202237 193.815642 
L 220.856095 193.815642 
L 220.856095 192.889401 
L 221.469442 192.889401 
L 221.469442 192.426281 
L 222.662041 192.426281 
L 222.662041 191.50004 
L 223.562642 191.50004 
L 223.562642 191.036919 
L 225.016962 191.036919 
L 225.016962 190.110678 
L 225.188563 190.110678 
L 225.188563 189.647558 
L 225.380485 189.647558 
L 225.380485 189.184437 
L 226.087408 189.184437 
L 226.087408 188.721316 
L 226.626624 188.721316 
L 226.626624 187.795075 
L 226.833968 187.795075 
L 226.833968 187.331955 
L 227.168818 187.331955 
L 227.168818 186.868834 
L 227.318515 186.868834 
L 227.318515 186.405714 
L 229.091874 186.405714 
L 229.184817 185.016352 
L 229.585985 185.016352 
L 229.585985 184.553232 
L 229.956492 184.553232 
L 229.956492 183.626991 
L 230.182515 183.626991 
L 230.276537 182.70075 
L 230.534952 182.70075 
L 230.547573 181.774509 
L 230.745995 181.774509 
L 230.745995 180.848268 
L 230.904022 180.848268 
L 230.904022 180.385147 
L 231.267643 180.385147 
L 231.267643 179.922027 
L 232.087195 179.922027 
L 232.180131 178.069545 
L 232.26478 178.069545 
L 232.26478 177.606424 
L 232.628873 177.606424 
L 232.628873 177.143304 
L 232.765239 177.143304 
L 232.765239 176.217062 
L 232.943334 176.217062 
L 232.943334 175.753942 
L 233.058414 175.753942 
L 233.15275 172.975219 
L 233.408173 172.975219 
L 233.408173 172.512098 
L 233.802278 172.512098 
L 233.802278 172.048978 
L 234.445457 172.048978 
L 234.445457 171.122737 
L 234.84396 171.122737 
L 234.84396 170.659616 
L 235.133115 170.659616 
L 235.236627 169.270255 
L 235.452434 169.270255 
L 235.452434 168.807134 
L 236.125765 168.807134 
L 236.144079 166.954652 
L 236.25315 166.954652 
L 236.303928 166.028411 
L 236.581199 166.028411 
L 236.581199 165.565291 
L 236.821147 165.565291 
L 236.907371 164.63905 
L 237.084466 164.63905 
L 237.180969 162.323447 
L 237.348139 162.323447 
L 237.348139 161.860326 
L 237.581854 161.860326 
L 237.581854 160.934085 
L 237.790915 160.934085 
L 237.790915 160.470965 
L 238.341414 160.470965 
L 238.341414 160.007844 
L 238.682452 160.007844 
L 238.773569 159.081603 
L 238.835714 159.081603 
L 238.928163 157.692242 
L 239.360034 157.692242 
L 239.360034 157.229121 
L 239.543805 157.229121 
L 239.543805 156.766001 
L 239.70956 156.766001 
L 239.818913 155.376639 
L 239.962044 155.376639 
L 239.985924 154.450398 
L 240.524557 154.450398 
L 240.524557 153.987278 
L 241.23603 153.987278 
L 241.23603 153.524157 
L 241.663214 153.524157 
L 241.663214 153.061037 
L 242.412654 153.061037 
L 242.412654 152.597916 
L 242.898778 152.597916 
L 242.898778 152.134795 
L 243.043202 152.134795 
L 243.043202 151.208554 
L 243.155577 151.208554 
L 243.155577 150.745434 
L 243.610447 150.745434 
L 243.610447 149.819193 
L 244.072115 149.819193 
L 244.072115 149.356072 
L 244.347832 149.356072 
L 244.347832 148.892952 
L 244.793033 148.892952 
L 244.793033 148.429831 
L 244.95832 148.429831 
L 244.95832 147.966711 
L 245.1085 147.966711 
L 245.1085 147.50359 
L 245.246417 147.50359 
L 245.246417 146.577349 
L 245.541485 146.577349 
L 245.541485 146.114229 
L 245.762282 146.114229 
L 245.762282 145.651108 
L 246.029242 145.651108 
L 246.029242 145.187988 
L 246.3781 145.187988 
L 246.3781 144.724867 
L 247.012218 144.724867 
L 247.012218 144.261747 
L 248.172684 144.261747 
L 248.172684 143.798626 
L 248.420645 143.798626 
L 248.420645 143.335506 
L 248.63365 143.335506 
L 248.63365 142.409265 
L 249.099873 142.409265 
L 249.099873 141.483024 
L 249.662945 141.483024 
L 249.662945 140.556783 
L 249.788295 140.556783 
L 249.788295 140.093662 
L 250.140391 140.093662 
L 250.140391 139.630541 
L 250.335717 139.630541 
L 250.415276 138.7043 
L 250.809511 138.7043 
L 250.868265 137.314939 
L 251.381472 137.314939 
L 251.45667 136.388698 
L 251.686907 136.388698 
L 251.732746 133.609975 
L 252.379204 133.609975 
L 252.434544 132.683734 
L 252.630254 132.683734 
L 252.732837 131.294372 
L 252.829946 131.294372 
L 252.829946 130.831252 
L 253.832336 130.831252 
L 253.832336 129.905011 
L 254.012751 129.905011 
L 254.012751 128.97877 
L 254.434887 128.97877 
L 254.434887 128.052529 
L 255.049915 128.052529 
L 255.049915 127.589408 
L 255.26776 127.589408 
L 255.26776 126.663167 
L 255.479692 126.663167 
L 255.479692 126.200046 
L 255.599192 126.200046 
L 255.599192 125.736926 
L 256.071821 125.736926 
L 256.071821 124.810685 
L 256.75956 124.810685 
L 256.75956 123.884444 
L 257.004033 123.884444 
L 257.004033 123.421323 
L 257.12156 123.421323 
L 257.12156 122.958203 
L 257.319032 122.958203 
L 257.319032 122.495082 
L 257.607312 122.495082 
L 257.716571 121.568841 
L 258.099993 121.568841 
L 258.099993 121.105721 
L 259.559614 121.105721 
L 259.559614 120.6426 
L 259.920877 120.6426 
L 259.920877 119.716359 
L 260.057454 119.716359 
L 260.057454 118.790118 
L 260.237072 118.790118 
L 260.237072 118.326998 
L 260.380016 118.326998 
L 260.380016 117.863877 
L 260.751393 117.863877 
L 260.751393 117.400757 
L 261.009825 117.400757 
L 261.009825 116.937636 
L 261.803264 116.937636 
L 261.803264 116.011395 
L 261.948714 116.011395 
L 261.948714 115.548274 
L 262.1535 115.548274 
L 262.186471 114.622033 
L 263.418292 114.622033 
L 263.418292 113.695792 
L 265.134316 113.695792 
L 265.134316 112.769551 
L 266.741438 112.769551 
L 266.741438 112.306431 
L 267.057342 112.306431 
L 267.057342 111.84331 
L 267.466869 111.84331 
L 267.466869 110.917069 
L 268.593356 110.917069 
L 268.593356 110.453949 
L 268.829745 110.453949 
L 268.829745 109.527708 
L 269.196331 109.527708 
L 269.20933 108.138346 
L 271.114731 108.138346 
L 271.208344 107.212105 
L 272.042406 107.212105 
L 272.042406 106.748985 
L 272.415038 106.748985 
L 272.415038 105.822744 
L 272.849474 105.822744 
L 272.849474 104.896503 
L 273.204356 104.896503 
L 273.204356 104.433382 
L 273.607105 104.433382 
L 273.60992 102.117779 
L 275.083227 102.117779 
L 275.083227 101.191538 
L 275.959659 101.191538 
L 275.962649 100.265297 
L 276.359353 100.265297 
L 276.359353 99.802177 
L 278.264438 99.802177 
L 278.264438 99.339056 
L 279.824113 99.339056 
L 279.824113 98.875936 
L 280.640882 98.875936 
L 280.640882 98.412815 
L 281.191657 98.412815 
L 281.191657 97.949695 
L 281.323958 97.949695 
L 281.323958 97.486574 
L 281.593527 97.486574 
L 281.593527 96.560333 
L 282.119851 96.560333 
L 282.119851 96.097213 
L 282.595431 96.097213 
L 282.595431 95.170972 
L 282.963043 95.170972 
L 282.963043 94.707851 
L 284.202679 94.707851 
L 284.202679 93.78161 
L 284.502506 93.78161 
L 284.502506 93.31849 
L 286.82411 93.31849 
L 286.82411 92.855369 
L 287.358117 92.855369 
L 287.358117 92.392249 
L 287.633984 92.392249 
L 287.633984 91.929128 
L 288.007758 91.929128 
L 288.007758 91.002887 
L 292.929234 91.002887 
L 292.929234 90.539766 
L 293.089819 90.539766 
L 293.089819 89.613525 
L 294.720603 89.613525 
L 294.720603 88.687284 
L 297.038173 88.687284 
L 297.038173 87.761043 
L 297.595272 87.761043 
L 297.595272 87.297923 
L 298.723782 87.297923 
L 298.723782 86.834802 
L 300.207475 86.834802 
L 300.207475 85.908561 
L 301.332891 85.908561 
L 301.332891 85.445441 
L 338.688 85.445441 
L 338.688 85.445441 
" style="fill:none;stroke:#ff00ff;stroke-linecap:square;stroke-width:1.5;"/>
   </g>
   <g id="line2d_41">
    <defs>
     <path d="M 0 8.485281 
L 5.091169 0 
L 0 -8.485281 
L -5.091169 0 
z
" id="m2c2084cfab" style="stroke:#ff00ff;stroke-linejoin:miter;stroke-width:1.5;"/>
    </defs>
    <g>
     <use style="fill-opacity:0;stroke:#ff00ff;stroke-linejoin:miter;stroke-width:1.5;" x="74.704957" xlink:href="#m2c2084cfab" y="275.787974"/>
     <use style="fill-opacity:0;stroke:#ff00ff;stroke-linejoin:miter;stroke-width:1.5;" x="149.998846" xlink:href="#m2c2084cfab" y="240.127694"/>
     <use style="fill-opacity:0;stroke:#ff00ff;stroke-linejoin:miter;stroke-width:1.5;" x="235.452434" xlink:href="#m2c2084cfab" y="168.807134"/>
     <use style="fill-opacity:0;stroke:#ff00ff;stroke-linejoin:miter;stroke-width:1.5;" x="276.359353" xlink:href="#m2c2084cfab" y="100.265297"/>
     <use style="fill-opacity:0;stroke:#ff00ff;stroke-linejoin:miter;stroke-width:1.5;" x="301.332891" xlink:href="#m2c2084cfab" y="85.445441"/>
     <use style="fill-opacity:0;stroke:#ff00ff;stroke-linejoin:miter;stroke-width:1.5;" x="338.688" xlink:href="#m2c2084cfab" y="85.445441"/>
    </g>
   </g>
   <g id="line2d_42">
    <path style="fill:none;stroke:#ff00ff;stroke-linecap:square;stroke-width:1.5;"/>
    <g/>
   </g>
   <g id="line2d_43">
    <path clip-path="url(#pb12385669e)" d="M 301.355378 85.445441 
" style="fill:none;stroke:#ff00ff;stroke-linecap:square;stroke-width:1.5;"/>
    <defs>
     <path d="M -12 12 
L 12 -12 
M -12 -12 
L 12 12 
" id="m1e2b4ed8a5" style="stroke:#ff00ff;"/>
    </defs>
    <g clip-path="url(#pb12385669e)">
     <use style="fill:#ff00ff;stroke:#ff00ff;" x="301.355378" xlink:href="#m1e2b4ed8a5" y="85.445441"/>
    </g>
   </g>
   <g id="line2d_44">
    <defs>
     <path d="M 0 1.5 
C 0.397805 1.5 0.77937 1.341951 1.06066 1.06066 
C 1.341951 0.77937 1.5 0.397805 1.5 0 
C 1.5 -0.397805 1.341951 -0.77937 1.06066 -1.06066 
C 0.77937 -1.341951 0.397805 -1.5 0 -1.5 
C -0.397805 -1.5 -0.77937 -1.341951 -1.06066 -1.06066 
C -1.341951 -0.77937 -1.5 -0.397805 -1.5 0 
C -1.5 0.397805 -1.341951 0.77937 -1.06066 1.06066 
C -0.77937 1.341951 -0.397805 1.5 0 1.5 
z
" id="m257f298288" style="stroke:#ff7500;"/>
    </defs>
    <g>
     <use style="fill:#ff7500;stroke:#ff7500;" x="298.386412" xlink:href="#m257f298288" y="154.913519"/>
     <use style="fill:#ff7500;stroke:#ff7500;" x="298.386412" xlink:href="#m257f298288" y="154.913519"/>
    </g>
   </g>
   <g id="line2d_45">
    <path d="M 38.440992 298.944 
L 38.440992 292.923433 
L 50.52898 292.923433 
L 50.52898 292.460313 
L 57.6 292.460313 
L 57.6 287.829108 
L 62.616969 287.829108 
L 62.616969 287.365987 
L 69.687988 287.365987 
L 69.687988 285.513505 
L 74.704957 285.513505 
L 74.704957 285.050384 
L 76.759008 285.050384 
L 76.759008 284.587264 
L 86.792945 284.587264 
L 86.792945 283.661023 
L 90.684409 283.661023 
L 90.684409 281.808541 
L 91.535274 281.808541 
L 91.535274 280.8823 
L 97.16421 280.8823 
L 97.16421 278.103577 
L 101.412804 278.103577 
L 101.412804 277.640456 
L 102.330873 277.640456 
L 102.330873 277.177336 
L 105.951954 277.177336 
L 105.951954 276.714215 
L 106.66386 276.714215 
L 106.66386 276.251095 
L 107.680028 276.251095 
L 107.680028 274.861733 
L 108.326001 274.861733 
L 108.326001 274.398612 
L 110.415248 274.398612 
L 110.415248 273.472371 
L 111.505558 273.472371 
L 111.505558 272.08301 
L 111.767808 272.08301 
L 111.767808 271.156769 
L 112.280765 271.156769 
L 112.280765 270.693648 
L 113.500792 270.693648 
L 113.500792 269.767407 
L 116.323218 269.767407 
L 116.323218 268.378046 
L 118.220662 268.378046 
L 118.220662 267.451805 
L 118.576578 267.451805 
L 118.576578 266.988684 
L 118.751849 266.988684 
L 118.751849 266.525564 
L 119.097192 266.525564 
L 119.097192 266.062443 
L 121.489881 266.062443 
L 121.489881 265.599323 
L 124.494669 265.599323 
L 124.494669 262.8206 
L 126.618283 262.8206 
L 126.618283 262.357479 
L 128.310692 262.357479 
L 128.411207 261.431238 
L 131.270459 261.431238 
L 131.270459 260.968117 
L 131.60746 260.968117 
L 131.60746 260.041876 
L 134.450015 260.041876 
L 134.450015 259.115635 
L 139.783113 259.115635 
L 139.835248 256.336912 
L 140.144829 256.336912 
L 140.144829 255.873792 
L 140.39868 255.873792 
L 140.39868 254.947551 
L 140.944478 254.947551 
L 140.944478 254.48443 
L 141.987354 254.48443 
L 141.987354 254.02131 
L 142.884173 254.02131 
L 142.884173 252.631948 
L 147.334773 252.631948 
L 147.334773 252.168828 
L 148.064279 252.168828 
L 148.064279 251.242587 
L 148.290138 251.242587 
L 148.290138 250.779466 
L 148.919783 250.779466 
L 148.919783 249.853225 
L 152.207228 249.853225 
L 152.207228 249.390104 
L 153.773658 249.390104 
L 153.773658 248.926984 
L 154.326601 248.926984 
L 154.326601 248.463863 
L 154.77436 248.463863 
L 154.77436 248.000743 
L 155.949527 248.000743 
L 155.949527 246.611381 
L 156.093569 246.611381 
L 156.093569 245.22202 
L 156.855406 245.22202 
L 156.855406 244.295779 
L 157.472107 244.295779 
L 157.472107 243.832658 
L 158.177196 243.832658 
L 158.177196 242.906417 
L 159.6749 242.906417 
L 159.6749 242.443297 
L 161.007772 242.443297 
L 161.007772 241.980176 
L 163.696049 241.980176 
L 163.696049 241.053935 
L 165.217881 241.053935 
L 165.217881 240.590815 
L 166.448573 240.590815 
L 166.448573 239.664574 
L 166.572616 239.664574 
L 166.572616 239.201453 
L 167.016388 239.201453 
L 167.016388 238.275212 
L 168.546579 238.275212 
L 168.546579 237.812091 
L 169.417501 237.812091 
L 169.417501 236.88585 
L 169.990255 236.88585 
L 169.990255 235.959609 
L 170.219663 235.959609 
L 170.219663 235.496489 
L 170.925369 235.496489 
L 170.925369 234.570248 
L 172.799511 234.570248 
L 172.799511 233.644007 
L 175.156681 233.644007 
L 175.156681 233.180886 
L 175.730949 233.180886 
L 175.730949 232.254645 
L 176.962469 232.254645 
L 177.036626 230.402163 
L 178.043018 230.402163 
L 178.043018 229.475922 
L 178.193707 229.475922 
L 178.193707 229.012802 
L 178.491235 229.012802 
L 178.491235 227.62344 
L 180.259296 227.62344 
L 180.259296 227.16032 
L 181.883182 227.16032 
L 181.883182 226.234079 
L 183.432872 226.234079 
L 183.475552 224.844717 
L 184.340418 224.844717 
L 184.340418 224.381596 
L 185.906783 224.381596 
L 185.906783 223.455355 
L 187.278979 223.455355 
L 187.278979 222.529114 
L 188.154636 222.529114 
L 188.154636 221.602873 
L 188.838617 221.602873 
L 188.838617 221.139753 
L 190.379524 221.139753 
L 190.419647 219.750391 
L 191.858641 219.750391 
L 191.858641 218.82415 
L 192.12805 218.82415 
L 192.12805 217.897909 
L 192.308796 217.897909 
L 192.308796 217.434789 
L 193.082551 217.434789 
L 193.082551 216.045427 
L 195.079445 216.045427 
L 195.079445 215.582307 
L 195.775391 215.582307 
L 195.775391 214.656066 
L 195.993018 214.656066 
L 195.993018 214.192945 
L 197.275602 214.192945 
L 197.275602 213.729825 
L 198.68189 213.729825 
L 198.68189 213.266704 
L 200.12816 213.266704 
L 200.12816 212.340463 
L 201.510666 212.340463 
L 201.574202 210.02486 
L 202.201523 210.02486 
L 202.201523 209.56174 
L 202.366798 209.56174 
L 202.366798 209.098619 
L 202.586181 209.098619 
L 202.597577 207.246137 
L 205.050952 207.246137 
L 205.058373 205.856776 
L 205.447233 205.856776 
L 205.55453 204.467414 
L 205.650416 204.467414 
L 205.650416 203.541173 
L 206.583619 203.541173 
L 206.583619 203.078053 
L 207.511359 203.078053 
L 207.511359 202.151812 
L 209.776955 202.151812 
L 209.776955 201.225571 
L 210.129974 201.225571 
L 210.129974 200.76245 
L 211.09305 200.76245 
L 211.09305 200.299329 
L 211.228127 200.299329 
L 211.228127 199.836209 
L 212.015671 199.836209 
L 212.015671 198.909968 
L 212.496876 198.909968 
L 212.496876 198.446847 
L 212.993424 198.446847 
L 212.993424 197.983727 
L 213.21017 197.983727 
L 213.21017 197.520606 
L 213.323701 197.520606 
L 213.323701 197.057486 
L 214.288055 197.057486 
L 214.288055 196.131245 
L 214.51169 196.131245 
L 214.51169 195.668124 
L 215.476181 195.668124 
L 215.53053 194.278763 
L 217.935112 194.278763 
L 217.935112 193.352522 
L 218.224039 193.352522 
L 218.291911 190.110678 
L 218.368169 190.110678 
L 218.459584 187.331955 
L 218.531688 187.331955 
L 218.622252 185.942593 
L 218.715739 185.942593 
L 218.810976 185.016352 
L 218.851393 185.016352 
L 218.958158 183.626991 
L 219.225264 183.626991 
L 219.225264 183.16387 
L 219.400546 183.16387 
L 219.405978 181.774509 
L 220.651478 181.774509 
L 220.651478 180.848268 
L 221.206417 180.848268 
L 221.206417 180.385147 
L 221.395457 180.385147 
L 221.395457 179.922027 
L 221.921458 179.922027 
L 221.921458 179.458906 
L 223.506489 179.458906 
L 223.506489 178.995786 
L 223.884894 178.995786 
L 223.884894 178.532665 
L 224.139304 178.532665 
L 224.139304 178.069545 
L 224.254851 178.069545 
L 224.254851 177.143304 
L 224.673028 177.143304 
L 224.673028 176.217062 
L 224.859158 176.217062 
L 224.859158 175.753942 
L 226.646717 175.753942 
L 226.646717 175.290821 
L 226.922786 175.290821 
L 226.988313 173.90146 
L 227.551237 173.90146 
L 227.551237 173.438339 
L 228.529038 173.438339 
L 228.529038 172.975219 
L 229.775519 172.975219 
L 229.785706 171.585857 
L 230.39726 171.585857 
L 230.39726 171.122737 
L 231.304195 171.122737 
L 231.304195 170.659616 
L 233.615479 170.659616 
L 233.615479 170.196496 
L 234.799529 170.196496 
L 234.799529 169.733375 
L 236.571661 169.733375 
L 236.571661 168.807134 
L 242.549189 168.807134 
L 242.549189 168.344014 
L 243.184912 168.344014 
L 243.186023 166.954652 
L 243.480637 166.954652 
L 243.480637 166.491532 
L 245.1727 166.491532 
L 245.1727 166.028411 
L 246.210033 166.028411 
L 246.210033 165.10217 
L 247.596494 165.10217 
L 247.596494 164.63905 
L 247.893704 164.63905 
L 247.893704 164.175929 
L 250.330922 164.175929 
L 250.330922 163.249688 
L 251.991362 163.249688 
L 251.991362 162.786567 
L 262.223345 162.786567 
L 262.223345 162.323447 
L 262.420617 162.323447 
L 262.445263 160.934085 
L 263.64336 160.934085 
L 263.652341 159.544724 
L 264.874375 159.544724 
L 264.874375 159.081603 
L 271.166543 159.081603 
L 271.166543 158.618483 
L 275.158139 158.618483 
L 275.158139 158.155362 
L 278.592161 158.155362 
L 278.592161 157.692242 
L 282.676328 157.692242 
L 282.676328 156.766001 
L 291.845305 156.766001 
L 291.845305 156.30288 
L 298.357841 156.30288 
L 298.386412 154.913519 
L 338.688 154.913519 
L 338.688 154.913519 
" style="fill:none;stroke:#ff7500;stroke-linecap:square;stroke-width:1.5;"/>
   </g>
   <g id="line2d_46">
    <defs>
     <path d="M 0 -6 
L -1.347084 -1.854102 
L -5.706339 -1.854102 
L -2.179628 0.708204 
L -3.526712 4.854102 
L -0 2.291796 
L 3.526712 4.854102 
L 2.179628 0.708204 
L 5.706339 -1.854102 
L 1.347084 -1.854102 
z
" id="mb66786a559" style="stroke:#ff7500;stroke-linejoin:bevel;stroke-width:1.5;"/>
    </defs>
    <g>
     <use style="fill-opacity:0;stroke:#ff7500;stroke-linejoin:bevel;stroke-width:1.5;" x="142.884173" xlink:href="#mb66786a559" y="254.02131"/>
     <use style="fill-opacity:0;stroke:#ff7500;stroke-linejoin:bevel;stroke-width:1.5;" x="198.68189" xlink:href="#mb66786a559" y="213.266704"/>
     <use style="fill-opacity:0;stroke:#ff7500;stroke-linejoin:bevel;stroke-width:1.5;" x="264.874375" xlink:href="#mb66786a559" y="159.544724"/>
     <use style="fill-opacity:0;stroke:#ff7500;stroke-linejoin:bevel;stroke-width:1.5;" x="298.386412" xlink:href="#mb66786a559" y="154.913519"/>
     <use style="fill-opacity:0;stroke:#ff7500;stroke-linejoin:bevel;stroke-width:1.5;" x="338.688" xlink:href="#mb66786a559" y="154.913519"/>
    </g>
   </g>
   <g id="line2d_47">
    <path style="fill:none;stroke:#ff7500;stroke-linecap:square;stroke-width:1.5;"/>
    <g/>
   </g>
   <g id="line2d_48">
    <path clip-path="url(#pb12385669e)" d="M 298.532571 154.913519 
" style="fill:none;stroke:#ff7500;stroke-linecap:square;stroke-width:1.5;"/>
    <defs>
     <path d="M -12 12 
L 12 -12 
M -12 -12 
L 12 12 
" id="m33b3ff213f" style="stroke:#ff7500;"/>
    </defs>
    <g clip-path="url(#pb12385669e)">
     <use style="fill:#ff7500;stroke:#ff7500;" x="298.532571" xlink:href="#m33b3ff213f" y="154.913519"/>
    </g>
   </g>
   <g id="line2d_49">
    <path d="M 338.688 154.913519 
L 369.60768 293.571802 
" style="fill:none;stroke:#ff7500;stroke-linecap:square;stroke-width:1.5;"/>
    <g>
     <use style="fill-opacity:0;stroke:#ff7500;stroke-linejoin:bevel;stroke-width:1.5;" x="338.688" xlink:href="#mb66786a559" y="154.913519"/>
     <use style="fill-opacity:0;stroke:#ff7500;stroke-linejoin:bevel;stroke-width:1.5;" x="369.60768" xlink:href="#mb66786a559" y="293.571802"/>
    </g>
   </g>
   <g id="line2d_50">
    <path d="M 338.688 139.630541 
L 369.60768 207.616634 
" style="fill:none;stroke:#000080;stroke-linecap:square;stroke-width:1.5;"/>
    <g>
     <use style="fill-opacity:0;stroke:#000080;stroke-width:1.5;" x="338.688" xlink:href="#m09e60bd272" y="139.630541"/>
     <use style="fill-opacity:0;stroke:#000080;stroke-width:1.5;" x="369.60768" xlink:href="#m09e60bd272" y="207.616634"/>
    </g>
   </g>
   <g id="line2d_51">
    <path d="M 338.688 85.445441 
L 369.60768 121.661465 
" style="fill:none;stroke:#ff00ff;stroke-linecap:square;stroke-width:1.5;"/>
    <g>
     <use style="fill-opacity:0;stroke:#ff00ff;stroke-linejoin:miter;stroke-width:1.5;" x="338.688" xlink:href="#m2c2084cfab" y="85.445441"/>
     <use style="fill-opacity:0;stroke:#ff00ff;stroke-linejoin:miter;stroke-width:1.5;" x="369.60768" xlink:href="#m2c2084cfab" y="121.661465"/>
    </g>
   </g>
   <g id="line2d_52">
    <path d="M 338.688 298.944 
L 338.688 30.334099 
" style="fill:none;stroke:#000000;stroke-linecap:square;stroke-width:1.5;"/>
   </g>
   <g id="patch_3">
    <path d="M 57.6 298.944 
L 57.6 27.648 
" style="fill:none;stroke:#000000;stroke-linecap:square;stroke-linejoin:miter;stroke-width:0.8;"/>
   </g>
   <g id="patch_4">
    <path d="M 338.688 298.944 
L 338.688 27.648 
" style="fill:none;stroke:#000000;stroke-linecap:square;stroke-linejoin:miter;stroke-width:0.8;"/>
   </g>
   <g id="patch_5">
    <path d="M 57.6 298.944 
L 338.688 298.944 
" style="fill:none;stroke:#000000;stroke-linecap:square;stroke-linejoin:miter;stroke-width:0.8;"/>
   </g>
   <g id="patch_6">
    <path d="M 57.6 27.648 
L 338.688 27.648 
" style="fill:none;stroke:#000000;stroke-linecap:square;stroke-linejoin:miter;stroke-width:0.8;"/>
   </g>
   <g id="text_13">
    <!-- UP-MO-CMA -->
    <defs>
     <path d="M 8.6875 72.90625 
L 18.609375 72.90625 
L 18.609375 28.609375 
Q 18.609375 16.890625 22.84375 11.734375 
Q 27.09375 6.59375 36.625 6.59375 
Q 46.09375 6.59375 50.34375 11.734375 
Q 54.59375 16.890625 54.59375 28.609375 
L 54.59375 72.90625 
L 64.5 72.90625 
L 64.5 27.390625 
Q 64.5 13.140625 57.4375 5.859375 
Q 50.390625 -1.421875 36.625 -1.421875 
Q 22.796875 -1.421875 15.734375 5.859375 
Q 8.6875 13.140625 8.6875 27.390625 
z
" id="DejaVuSans-85"/>
     <path d="M 19.671875 64.796875 
L 19.671875 37.40625 
L 32.078125 37.40625 
Q 38.96875 37.40625 42.71875 40.96875 
Q 46.484375 44.53125 46.484375 51.125 
Q 46.484375 57.671875 42.71875 61.234375 
Q 38.96875 64.796875 32.078125 64.796875 
z
M 9.8125 72.90625 
L 32.078125 72.90625 
Q 44.34375 72.90625 50.609375 67.359375 
Q 56.890625 61.8125 56.890625 51.125 
Q 56.890625 40.328125 50.609375 34.8125 
Q 44.34375 29.296875 32.078125 29.296875 
L 19.671875 29.296875 
L 19.671875 0 
L 9.8125 0 
z
" id="DejaVuSans-80"/>
     <path d="M 9.8125 72.90625 
L 24.515625 72.90625 
L 43.109375 23.296875 
L 61.8125 72.90625 
L 76.515625 72.90625 
L 76.515625 0 
L 66.890625 0 
L 66.890625 64.015625 
L 48.09375 14.015625 
L 38.1875 14.015625 
L 19.390625 64.015625 
L 19.390625 0 
L 9.8125 0 
z
" id="DejaVuSans-77"/>
     <path d="M 39.40625 66.21875 
Q 28.65625 66.21875 22.328125 58.203125 
Q 16.015625 50.203125 16.015625 36.375 
Q 16.015625 22.609375 22.328125 14.59375 
Q 28.65625 6.59375 39.40625 6.59375 
Q 50.140625 6.59375 56.421875 14.59375 
Q 62.703125 22.609375 62.703125 36.375 
Q 62.703125 50.203125 56.421875 58.203125 
Q 50.140625 66.21875 39.40625 66.21875 
z
M 39.40625 74.21875 
Q 54.734375 74.21875 63.90625 63.9375 
Q 73.09375 53.65625 73.09375 36.375 
Q 73.09375 19.140625 63.90625 8.859375 
Q 54.734375 -1.421875 39.40625 -1.421875 
Q 24.03125 -1.421875 14.8125 8.828125 
Q 5.609375 19.09375 5.609375 36.375 
Q 5.609375 53.65625 14.8125 63.9375 
Q 24.03125 74.21875 39.40625 74.21875 
z
" id="DejaVuSans-79"/>
     <path d="M 64.40625 67.28125 
L 64.40625 56.890625 
Q 59.421875 61.53125 53.78125 63.8125 
Q 48.140625 66.109375 41.796875 66.109375 
Q 29.296875 66.109375 22.65625 58.46875 
Q 16.015625 50.828125 16.015625 36.375 
Q 16.015625 21.96875 22.65625 14.328125 
Q 29.296875 6.6875 41.796875 6.6875 
Q 48.140625 6.6875 53.78125 8.984375 
Q 59.421875 11.28125 64.40625 15.921875 
L 64.40625 5.609375 
Q 59.234375 2.09375 53.4375 0.328125 
Q 47.65625 -1.421875 41.21875 -1.421875 
Q 24.65625 -1.421875 15.125 8.703125 
Q 5.609375 18.84375 5.609375 36.375 
Q 5.609375 53.953125 15.125 64.078125 
Q 24.65625 74.21875 41.21875 74.21875 
Q 47.75 74.21875 53.53125 72.484375 
Q 59.328125 70.75 64.40625 67.28125 
z
" id="DejaVuSans-67"/>
     <path d="M 34.1875 63.1875 
L 20.796875 26.90625 
L 47.609375 26.90625 
z
M 28.609375 72.90625 
L 39.796875 72.90625 
L 67.578125 0 
L 57.328125 0 
L 50.6875 18.703125 
L 17.828125 18.703125 
L 11.1875 0 
L 0.78125 0 
z
" id="DejaVuSans-65"/>
    </defs>
    <g transform="translate(375.22944 298.262739)scale(0.17 -0.17)">
     <use xlink:href="#DejaVuSans-85"/>
     <use x="73.193359" xlink:href="#DejaVuSans-80"/>
     <use x="133.464844" xlink:href="#DejaVuSans-45"/>
     <use x="169.548828" xlink:href="#DejaVuSans-77"/>
     <use x="255.828125" xlink:href="#DejaVuSans-79"/>
     <use x="334.570312" xlink:href="#DejaVuSans-45"/>
     <use x="370.654297" xlink:href="#DejaVuSans-67"/>
     <use x="440.478516" xlink:href="#DejaVuSans-77"/>
     <use x="526.757812" xlink:href="#DejaVuSans-65"/>
    </g>
   </g>
   <g id="text_14">
    <!-- 0.1tfr-0. -->
    <g transform="translate(375.22944 212.307571)scale(0.17 -0.17)">
     <use xlink:href="#DejaVuSans-48"/>
     <use x="63.623047" xlink:href="#DejaVuSans-46"/>
     <use x="95.410156" xlink:href="#DejaVuSans-49"/>
     <use x="159.033203" xlink:href="#DejaVuSans-116"/>
     <use x="198.242188" xlink:href="#DejaVuSans-102"/>
     <use x="233.447266" xlink:href="#DejaVuSans-114"/>
     <use x="274.466797" xlink:href="#DejaVuSans-45"/>
     <use x="310.550781" xlink:href="#DejaVuSans-48"/>
     <use x="374.173828" xlink:href="#DejaVuSans-46"/>
    </g>
   </g>
   <g id="text_15">
    <!-- HMO-CMA-E -->
    <defs>
     <path d="M 9.8125 72.90625 
L 19.671875 72.90625 
L 19.671875 43.015625 
L 55.515625 43.015625 
L 55.515625 72.90625 
L 65.375 72.90625 
L 65.375 0 
L 55.515625 0 
L 55.515625 34.71875 
L 19.671875 34.71875 
L 19.671875 0 
L 9.8125 0 
z
" id="DejaVuSans-72"/>
     <path d="M 9.8125 72.90625 
L 55.90625 72.90625 
L 55.90625 64.59375 
L 19.671875 64.59375 
L 19.671875 43.015625 
L 54.390625 43.015625 
L 54.390625 34.71875 
L 19.671875 34.71875 
L 19.671875 8.296875 
L 56.78125 8.296875 
L 56.78125 0 
L 9.8125 0 
z
" id="DejaVuSans-69"/>
    </defs>
    <g transform="translate(375.22944 126.352403)scale(0.17 -0.17)">
     <use xlink:href="#DejaVuSans-72"/>
     <use x="75.195312" xlink:href="#DejaVuSans-77"/>
     <use x="161.474609" xlink:href="#DejaVuSans-79"/>
     <use x="240.216797" xlink:href="#DejaVuSans-45"/>
     <use x="276.300781" xlink:href="#DejaVuSans-67"/>
     <use x="346.125" xlink:href="#DejaVuSans-77"/>
     <use x="432.404297" xlink:href="#DejaVuSans-65"/>
     <use x="500.78125" xlink:href="#DejaVuSans-45"/>
     <use x="536.865234" xlink:href="#DejaVuSans-69"/>
    </g>
   </g>
   <g id="text_16">
    <!-- best 2016 -->
    <defs>
     <path d="M 48.6875 27.296875 
Q 48.6875 37.203125 44.609375 42.84375 
Q 40.53125 48.484375 33.40625 48.484375 
Q 26.265625 48.484375 22.1875 42.84375 
Q 18.109375 37.203125 18.109375 27.296875 
Q 18.109375 17.390625 22.1875 11.75 
Q 26.265625 6.109375 33.40625 6.109375 
Q 40.53125 6.109375 44.609375 11.75 
Q 48.6875 17.390625 48.6875 27.296875 
z
M 18.109375 46.390625 
Q 20.953125 51.265625 25.265625 53.625 
Q 29.59375 56 35.59375 56 
Q 45.5625 56 51.78125 48.09375 
Q 58.015625 40.1875 58.015625 27.296875 
Q 58.015625 14.40625 51.78125 6.484375 
Q 45.5625 -1.421875 35.59375 -1.421875 
Q 29.59375 -1.421875 25.265625 0.953125 
Q 20.953125 3.328125 18.109375 8.203125 
L 18.109375 0 
L 9.078125 0 
L 9.078125 75.984375 
L 18.109375 75.984375 
z
" id="DejaVuSans-98"/>
    </defs>
    <g transform="translate(375.22944 40.397235)scale(0.17 -0.17)">
     <use xlink:href="#DejaVuSans-98"/>
     <use x="63.476562" xlink:href="#DejaVuSans-101"/>
     <use x="125" xlink:href="#DejaVuSans-115"/>
     <use x="177.099609" xlink:href="#DejaVuSans-116"/>
     <use x="216.308594" xlink:href="#DejaVuSans-32"/>
     <use x="248.095703" xlink:href="#DejaVuSans-50"/>
     <use x="311.71875" xlink:href="#DejaVuSans-48"/>
     <use x="375.341797" xlink:href="#DejaVuSans-49"/>
     <use x="438.964844" xlink:href="#DejaVuSans-54"/>
    </g>
   </g>
   <g id="text_17">
    <!-- bbob-biobj f25, 3-D -->
    <defs>
     <path d="M 9.421875 54.6875 
L 18.40625 54.6875 
L 18.40625 -0.984375 
Q 18.40625 -11.421875 14.421875 -16.109375 
Q 10.453125 -20.796875 1.609375 -20.796875 
L -1.8125 -20.796875 
L -1.8125 -13.1875 
L 0.59375 -13.1875 
Q 5.71875 -13.1875 7.5625 -10.8125 
Q 9.421875 -8.453125 9.421875 -0.984375 
z
M 9.421875 75.984375 
L 18.40625 75.984375 
L 18.40625 64.59375 
L 9.421875 64.59375 
z
" id="DejaVuSans-106"/>
     <path d="M 10.796875 72.90625 
L 49.515625 72.90625 
L 49.515625 64.59375 
L 19.828125 64.59375 
L 19.828125 46.734375 
Q 21.96875 47.46875 24.109375 47.828125 
Q 26.265625 48.1875 28.421875 48.1875 
Q 40.625 48.1875 47.75 41.5 
Q 54.890625 34.8125 54.890625 23.390625 
Q 54.890625 11.625 47.5625 5.09375 
Q 40.234375 -1.421875 26.90625 -1.421875 
Q 22.3125 -1.421875 17.546875 -0.640625 
Q 12.796875 0.140625 7.71875 1.703125 
L 7.71875 11.625 
Q 12.109375 9.234375 16.796875 8.0625 
Q 21.484375 6.890625 26.703125 6.890625 
Q 35.15625 6.890625 40.078125 11.328125 
Q 45.015625 15.765625 45.015625 23.390625 
Q 45.015625 31 40.078125 35.4375 
Q 35.15625 39.890625 26.703125 39.890625 
Q 22.75 39.890625 18.8125 39.015625 
Q 14.890625 38.140625 10.796875 36.28125 
z
" id="DejaVuSans-53"/>
     <path d="M 40.578125 39.3125 
Q 47.65625 37.796875 51.625 33 
Q 55.609375 28.21875 55.609375 21.1875 
Q 55.609375 10.40625 48.1875 4.484375 
Q 40.765625 -1.421875 27.09375 -1.421875 
Q 22.515625 -1.421875 17.65625 -0.515625 
Q 12.796875 0.390625 7.625 2.203125 
L 7.625 11.71875 
Q 11.71875 9.328125 16.59375 8.109375 
Q 21.484375 6.890625 26.8125 6.890625 
Q 36.078125 6.890625 40.9375 10.546875 
Q 45.796875 14.203125 45.796875 21.1875 
Q 45.796875 27.640625 41.28125 31.265625 
Q 36.765625 34.90625 28.71875 34.90625 
L 20.21875 34.90625 
L 20.21875 43.015625 
L 29.109375 43.015625 
Q 36.375 43.015625 40.234375 45.921875 
Q 44.09375 48.828125 44.09375 54.296875 
Q 44.09375 59.90625 40.109375 62.90625 
Q 36.140625 65.921875 28.71875 65.921875 
Q 24.65625 65.921875 20.015625 65.03125 
Q 15.375 64.15625 9.8125 62.3125 
L 9.8125 71.09375 
Q 15.4375 72.65625 20.34375 73.4375 
Q 25.25 74.21875 29.59375 74.21875 
Q 40.828125 74.21875 47.359375 69.109375 
Q 53.90625 64.015625 53.90625 55.328125 
Q 53.90625 49.265625 50.4375 45.09375 
Q 46.96875 40.921875 40.578125 39.3125 
z
" id="DejaVuSans-51"/>
     <path d="M 19.671875 64.796875 
L 19.671875 8.109375 
L 31.59375 8.109375 
Q 46.6875 8.109375 53.6875 14.9375 
Q 60.6875 21.78125 60.6875 36.53125 
Q 60.6875 51.171875 53.6875 57.984375 
Q 46.6875 64.796875 31.59375 64.796875 
z
M 9.8125 72.90625 
L 30.078125 72.90625 
Q 51.265625 72.90625 61.171875 64.09375 
Q 71.09375 55.28125 71.09375 36.53125 
Q 71.09375 17.671875 61.125 8.828125 
Q 51.171875 0 30.078125 0 
L 9.8125 0 
z
" id="DejaVuSans-68"/>
    </defs>
    <g transform="translate(60.41088 38.111366)scale(0.102 -0.102)">
     <use xlink:href="#DejaVuSans-98"/>
     <use x="63.476562" xlink:href="#DejaVuSans-98"/>
     <use x="126.953125" xlink:href="#DejaVuSans-111"/>
     <use x="188.134766" xlink:href="#DejaVuSans-98"/>
     <use x="251.611328" xlink:href="#DejaVuSans-45"/>
     <use x="287.695312" xlink:href="#DejaVuSans-98"/>
     <use x="351.171875" xlink:href="#DejaVuSans-105"/>
     <use x="378.955078" xlink:href="#DejaVuSans-111"/>
     <use x="440.136719" xlink:href="#DejaVuSans-98"/>
     <use x="503.613281" xlink:href="#DejaVuSans-106"/>
     <use x="531.396484" xlink:href="#DejaVuSans-32"/>
     <use x="563.183594" xlink:href="#DejaVuSans-102"/>
     <use x="598.388672" xlink:href="#DejaVuSans-50"/>
     <use x="662.011719" xlink:href="#DejaVuSans-53"/>
     <use x="725.634766" xlink:href="#DejaVuSans-44"/>
     <use x="757.421875" xlink:href="#DejaVuSans-32"/>
     <use x="789.208984" xlink:href="#DejaVuSans-51"/>
     <use x="852.832031" xlink:href="#DejaVuSans-45"/>
     <use x="888.916016" xlink:href="#DejaVuSans-68"/>
    </g>
    <!-- 58 targets: 1..-1.0e-4 -->
    <defs>
     <path d="M 11.71875 12.40625 
L 22.015625 12.40625 
L 22.015625 0 
L 11.71875 0 
z
M 11.71875 51.703125 
L 22.015625 51.703125 
L 22.015625 39.3125 
L 11.71875 39.3125 
z
" id="DejaVuSans-58"/>
    </defs>
    <g transform="translate(60.41088 49.533135)scale(0.102 -0.102)">
     <use xlink:href="#DejaVuSans-53"/>
     <use x="63.623047" xlink:href="#DejaVuSans-56"/>
     <use x="127.246094" xlink:href="#DejaVuSans-32"/>
     <use x="159.033203" xlink:href="#DejaVuSans-116"/>
     <use x="198.242188" xlink:href="#DejaVuSans-97"/>
     <use x="259.521484" xlink:href="#DejaVuSans-114"/>
     <use x="300.619141" xlink:href="#DejaVuSans-103"/>
     <use x="364.095703" xlink:href="#DejaVuSans-101"/>
     <use x="425.619141" xlink:href="#DejaVuSans-116"/>
     <use x="464.828125" xlink:href="#DejaVuSans-115"/>
     <use x="516.927734" xlink:href="#DejaVuSans-58"/>
     <use x="550.619141" xlink:href="#DejaVuSans-32"/>
     <use x="582.40625" xlink:href="#DejaVuSans-49"/>
     <use x="646.029297" xlink:href="#DejaVuSans-46"/>
     <use x="677.816406" xlink:href="#DejaVuSans-46"/>
     <use x="709.603516" xlink:href="#DejaVuSans-45"/>
     <use x="745.6875" xlink:href="#DejaVuSans-49"/>
     <use x="809.310547" xlink:href="#DejaVuSans-46"/>
     <use x="841.097656" xlink:href="#DejaVuSans-48"/>
     <use x="904.720703" xlink:href="#DejaVuSans-101"/>
     <use x="966.244141" xlink:href="#DejaVuSans-45"/>
     <use x="1002.328125" xlink:href="#DejaVuSans-52"/>
    </g>
    <!-- 10, 5 instances -->
    <g transform="translate(60.41088 60.954904)scale(0.102 -0.102)">
     <use xlink:href="#DejaVuSans-49"/>
     <use x="63.623047" xlink:href="#DejaVuSans-48"/>
     <use x="127.246094" xlink:href="#DejaVuSans-44"/>
     <use x="159.033203" xlink:href="#DejaVuSans-32"/>
     <use x="190.820312" xlink:href="#DejaVuSans-53"/>
     <use x="254.443359" xlink:href="#DejaVuSans-32"/>
     <use x="286.230469" xlink:href="#DejaVuSans-105"/>
     <use x="314.013672" xlink:href="#DejaVuSans-110"/>
     <use x="377.392578" xlink:href="#DejaVuSans-115"/>
     <use x="429.492188" xlink:href="#DejaVuSans-116"/>
     <use x="468.701172" xlink:href="#DejaVuSans-97"/>
     <use x="529.980469" xlink:href="#DejaVuSans-110"/>
     <use x="593.359375" xlink:href="#DejaVuSans-99"/>
     <use x="648.339844" xlink:href="#DejaVuSans-101"/>
     <use x="709.863281" xlink:href="#DejaVuSans-115"/>
    </g>
   </g>
   <g id="text_18">
    <!-- v2.3.3.43 -->
    <g style="fill:#808080;" transform="translate(174.511187 294.151352)scale(0.1 -0.1)">
     <use xlink:href="#DejaVuSans-118"/>
     <use x="59.179688" xlink:href="#DejaVuSans-50"/>
     <use x="122.802734" xlink:href="#DejaVuSans-46"/>
     <use x="154.589844" xlink:href="#DejaVuSans-51"/>
     <use x="218.212891" xlink:href="#DejaVuSans-46"/>
     <use x="250" xlink:href="#DejaVuSans-51"/>
     <use x="313.623047" xlink:href="#DejaVuSans-46"/>
     <use x="345.410156" xlink:href="#DejaVuSans-52"/>
     <use x="409.033203" xlink:href="#DejaVuSans-51"/>
    </g>
   </g>
   <g id="text_19">
    <!-- 25 Attr. sector/Schaffer F7 -->
    <defs>
     <path d="M 53.515625 70.515625 
L 53.515625 60.890625 
Q 47.90625 63.578125 42.921875 64.890625 
Q 37.9375 66.21875 33.296875 66.21875 
Q 25.25 66.21875 20.875 63.09375 
Q 16.5 59.96875 16.5 54.203125 
Q 16.5 49.359375 19.40625 46.890625 
Q 22.3125 44.4375 30.421875 42.921875 
L 36.375 41.703125 
Q 47.40625 39.59375 52.65625 34.296875 
Q 57.90625 29 57.90625 20.125 
Q 57.90625 9.515625 50.796875 4.046875 
Q 43.703125 -1.421875 29.984375 -1.421875 
Q 24.8125 -1.421875 18.96875 -0.25 
Q 13.140625 0.921875 6.890625 3.21875 
L 6.890625 13.375 
Q 12.890625 10.015625 18.65625 8.296875 
Q 24.421875 6.59375 29.984375 6.59375 
Q 38.421875 6.59375 43.015625 9.90625 
Q 47.609375 13.234375 47.609375 19.390625 
Q 47.609375 24.75 44.3125 27.78125 
Q 41.015625 30.8125 33.5 32.328125 
L 27.484375 33.5 
Q 16.453125 35.6875 11.515625 40.375 
Q 6.59375 45.0625 6.59375 53.421875 
Q 6.59375 63.09375 13.40625 68.65625 
Q 20.21875 74.21875 32.171875 74.21875 
Q 37.3125 74.21875 42.625 73.28125 
Q 47.953125 72.359375 53.515625 70.515625 
z
" id="DejaVuSans-83"/>
     <path d="M 54.890625 33.015625 
L 54.890625 0 
L 45.90625 0 
L 45.90625 32.71875 
Q 45.90625 40.484375 42.875 44.328125 
Q 39.84375 48.1875 33.796875 48.1875 
Q 26.515625 48.1875 22.3125 43.546875 
Q 18.109375 38.921875 18.109375 30.90625 
L 18.109375 0 
L 9.078125 0 
L 9.078125 75.984375 
L 18.109375 75.984375 
L 18.109375 46.1875 
Q 21.34375 51.125 25.703125 53.5625 
Q 30.078125 56 35.796875 56 
Q 45.21875 56 50.046875 50.171875 
Q 54.890625 44.34375 54.890625 33.015625 
z
" id="DejaVuSans-104"/>
     <path d="M 8.203125 72.90625 
L 55.078125 72.90625 
L 55.078125 68.703125 
L 28.609375 0 
L 18.3125 0 
L 43.21875 64.59375 
L 8.203125 64.59375 
z
" id="DejaVuSans-55"/>
    </defs>
    <g transform="translate(65.819 21.648)scale(0.2 -0.2)">
     <use xlink:href="#DejaVuSans-50"/>
     <use x="63.623047" xlink:href="#DejaVuSans-53"/>
     <use x="127.246094" xlink:href="#DejaVuSans-32"/>
     <use x="159.033203" xlink:href="#DejaVuSans-65"/>
     <use x="227.425781" xlink:href="#DejaVuSans-116"/>
     <use x="266.634766" xlink:href="#DejaVuSans-116"/>
     <use x="305.84375" xlink:href="#DejaVuSans-114"/>
     <use x="346.816406" xlink:href="#DejaVuSans-46"/>
     <use x="378.603516" xlink:href="#DejaVuSans-32"/>
     <use x="410.390625" xlink:href="#DejaVuSans-115"/>
     <use x="462.490234" xlink:href="#DejaVuSans-101"/>
     <use x="524.013672" xlink:href="#DejaVuSans-99"/>
     <use x="578.994141" xlink:href="#DejaVuSans-116"/>
     <use x="618.203125" xlink:href="#DejaVuSans-111"/>
     <use x="679.384766" xlink:href="#DejaVuSans-114"/>
     <use x="720.498047" xlink:href="#DejaVuSans-47"/>
     <use x="754.189453" xlink:href="#DejaVuSans-83"/>
     <use x="817.666016" xlink:href="#DejaVuSans-99"/>
     <use x="872.646484" xlink:href="#DejaVuSans-104"/>
     <use x="936.025391" xlink:href="#DejaVuSans-97"/>
     <use x="997.304688" xlink:href="#DejaVuSans-102"/>
     <use x="1032.509766" xlink:href="#DejaVuSans-102"/>
     <use x="1067.714844" xlink:href="#DejaVuSans-101"/>
     <use x="1129.238281" xlink:href="#DejaVuSans-114"/>
     <use x="1170.351562" xlink:href="#DejaVuSans-32"/>
     <use x="1202.138672" xlink:href="#DejaVuSans-70"/>
     <use x="1259.658203" xlink:href="#DejaVuSans-55"/>
    </g>
   </g>
  </g>
 </g>
 <defs>
  <clipPath id="pb12385669e">
   <rect height="271.296" width="281.088" x="57.6" y="27.648"/>
  </clipPath>
 </defs>
</svg>
