<?xml version="1.0" encoding="utf-8" standalone="no"?>
<!DOCTYPE svg PUBLIC "-//W3C//DTD SVG 1.1//EN"
  "http://www.w3.org/Graphics/SVG/1.1/DTD/svg11.dtd">
<!-- Created with matplotlib (https://matplotlib.org/) -->
<svg height="345.6pt" version="1.1" viewBox="0 0 460.8 345.6" width="460.8pt" xmlns="http://www.w3.org/2000/svg" xmlns:xlink="http://www.w3.org/1999/xlink">
 <defs>
  <style type="text/css">
*{stroke-linecap:butt;stroke-linejoin:round;}
  </style>
 </defs>
 <g id="figure_1">
  <g id="patch_1">
   <path d="M 0 345.6 
L 460.8 345.6 
L 460.8 0 
L 0 0 
z
" style="fill:#ffffff;"/>
  </g>
  <g id="axes_1">
   <g id="patch_2">
    <path d="M 57.6 298.944 
L 338.688 298.944 
L 338.688 27.648 
L 57.6 27.648 
z
" style="fill:#ffffff;"/>
   </g>
   <g id="line2d_1">
    <path d="M 5.356583 298.944 
L 5.356583 294.312795 
L 80.650472 294.312795 
L 80.650472 285.050384 
L 84.02273 285.050384 
L 84.02273 275.787974 
L 108.246551 275.787974 
L 108.246551 271.156769 
L 161.061028 271.156769 
L 161.061028 257.263153 
L 193.97479 257.263153 
L 193.97479 248.000743 
L 200.077228 248.000743 
L 200.077228 243.369538 
L 205.99242 243.369538 
L 205.99242 234.107127 
L 249.475003 234.107127 
L 249.475003 220.213512 
L 261.518364 220.213512 
L 261.518364 210.951101 
L 261.713945 210.951101 
L 261.713945 201.688691 
L 261.751803 201.688691 
L 261.751803 192.426281 
L 275.068235 192.426281 
L 275.068235 187.795075 
L 275.088799 187.795075 
L 275.088799 173.90146 
L 275.12161 173.90146 
L 275.12161 169.270255 
L 275.159397 169.270255 
L 275.159397 155.376639 
L 275.234037 155.376639 
L 275.234037 146.114229 
L 284.300787 146.114229 
L 284.300787 141.483024 
L 284.361448 141.483024 
L 284.361448 127.589408 
L 284.451263 127.589408 
L 284.451263 122.958203 
L 284.585198 122.958203 
L 284.585198 109.064587 
L 284.787039 109.064587 
L 284.787039 99.802177 
L 285.088285 99.802177 
L 285.088285 90.539766 
L 285.538895 90.539766 
L 285.538895 85.908561 
L 286.208781 85.908561 
L 286.208781 76.646151 
L 287.214133 76.646151 
L 287.214133 62.752535 
L 338.688 62.752535 
" style="fill:none;stroke:#f5deb3;stroke-linecap:square;stroke-width:4;"/>
   </g>
   <g id="line2d_2">
    <defs>
     <path d="M 0 7.778175 
L 7.778175 0 
L 0 -7.778175 
L -7.778175 0 
z
" id="mf35bf7d87f" style="stroke:#f5deb3;stroke-linejoin:miter;stroke-width:1.5;"/>
    </defs>
    <g>
     <use style="fill:#f5deb3;stroke:#f5deb3;stroke-linejoin:miter;stroke-width:1.5;" x="84.02273" xlink:href="#mf35bf7d87f" y="275.787974"/>
     <use style="fill:#f5deb3;stroke:#f5deb3;stroke-linejoin:miter;stroke-width:1.5;" x="205.99242" xlink:href="#mf35bf7d87f" y="243.369538"/>
     <use style="fill:#f5deb3;stroke:#f5deb3;stroke-linejoin:miter;stroke-width:1.5;" x="275.234037" xlink:href="#mf35bf7d87f" y="155.376639"/>
     <use style="fill:#f5deb3;stroke:#f5deb3;stroke-linejoin:miter;stroke-width:1.5;" x="287.214133" xlink:href="#mf35bf7d87f" y="76.646151"/>
     <use style="fill:#f5deb3;stroke:#f5deb3;stroke-linejoin:miter;stroke-width:1.5;" x="287.214133" xlink:href="#mf35bf7d87f" y="62.752535"/>
     <use style="fill:#f5deb3;stroke:#f5deb3;stroke-linejoin:miter;stroke-width:1.5;" x="338.688" xlink:href="#mf35bf7d87f" y="62.752535"/>
    </g>
   </g>
   <g id="line2d_3">
    <path style="fill:none;stroke:#f5deb3;stroke-linecap:square;stroke-width:4;"/>
    <g/>
   </g>
   <g id="line2d_4">
    <path d="M 338.688 62.752535 
L 369.60768 35.706297 
" style="fill:none;stroke:#f5deb3;stroke-linecap:square;stroke-width:4;"/>
    <g>
     <use style="fill:#f5deb3;stroke:#f5deb3;stroke-linejoin:miter;stroke-width:1.5;" x="338.688" xlink:href="#mf35bf7d87f" y="62.752535"/>
     <use style="fill:#f5deb3;stroke:#f5deb3;stroke-linejoin:miter;stroke-width:1.5;" x="369.60768" xlink:href="#mf35bf7d87f" y="35.706297"/>
    </g>
   </g>
   <g id="matplotlib.axis_1">
    <g id="xtick_1">
     <g id="line2d_5">
      <path clip-path="url(#p392d4f7c8c)" d="M 57.6 298.944 
L 57.6 27.648 
" style="fill:none;stroke:#b0b0b0;stroke-linecap:square;stroke-width:0.8;"/>
     </g>
     <g id="line2d_6">
      <defs>
       <path d="M 0 0 
L 0 3.5 
" id="m96b5ca6ad0" style="stroke:#000000;stroke-width:0.8;"/>
      </defs>
      <g>
       <use style="stroke:#000000;stroke-width:0.8;" x="57.6" xlink:href="#m96b5ca6ad0" y="298.944"/>
      </g>
     </g>
     <g id="text_1">
      <!-- 0 -->
      <defs>
       <path d="M 31.78125 66.40625 
Q 24.171875 66.40625 20.328125 58.90625 
Q 16.5 51.421875 16.5 36.375 
Q 16.5 21.390625 20.328125 13.890625 
Q 24.171875 6.390625 31.78125 6.390625 
Q 39.453125 6.390625 43.28125 13.890625 
Q 47.125 21.390625 47.125 36.375 
Q 47.125 51.421875 43.28125 58.90625 
Q 39.453125 66.40625 31.78125 66.40625 
z
M 31.78125 74.21875 
Q 44.046875 74.21875 50.515625 64.515625 
Q 56.984375 54.828125 56.984375 36.375 
Q 56.984375 17.96875 50.515625 8.265625 
Q 44.046875 -1.421875 31.78125 -1.421875 
Q 19.53125 -1.421875 13.0625 8.265625 
Q 6.59375 17.96875 6.59375 36.375 
Q 6.59375 54.828125 13.0625 64.515625 
Q 19.53125 74.21875 31.78125 74.21875 
z
" id="DejaVuSans-48"/>
      </defs>
      <g transform="translate(51.2375 321.140875)scale(0.2 -0.2)">
       <use xlink:href="#DejaVuSans-48"/>
      </g>
     </g>
    </g>
    <g id="xtick_2">
     <g id="line2d_7">
      <path clip-path="url(#p392d4f7c8c)" d="M 137.910857 298.944 
L 137.910857 27.648 
" style="fill:none;stroke:#b0b0b0;stroke-linecap:square;stroke-width:0.8;"/>
     </g>
     <g id="line2d_8">
      <g>
       <use style="stroke:#000000;stroke-width:0.8;" x="137.910857" xlink:href="#m96b5ca6ad0" y="298.944"/>
      </g>
     </g>
     <g id="text_2">
      <!-- 2 -->
      <defs>
       <path d="M 19.1875 8.296875 
L 53.609375 8.296875 
L 53.609375 0 
L 7.328125 0 
L 7.328125 8.296875 
Q 12.9375 14.109375 22.625 23.890625 
Q 32.328125 33.6875 34.8125 36.53125 
Q 39.546875 41.84375 41.421875 45.53125 
Q 43.3125 49.21875 43.3125 52.78125 
Q 43.3125 58.59375 39.234375 62.25 
Q 35.15625 65.921875 28.609375 65.921875 
Q 23.96875 65.921875 18.8125 64.3125 
Q 13.671875 62.703125 7.8125 59.421875 
L 7.8125 69.390625 
Q 13.765625 71.78125 18.9375 73 
Q 24.125 74.21875 28.421875 74.21875 
Q 39.75 74.21875 46.484375 68.546875 
Q 53.21875 62.890625 53.21875 53.421875 
Q 53.21875 48.921875 51.53125 44.890625 
Q 49.859375 40.875 45.40625 35.40625 
Q 44.1875 33.984375 37.640625 27.21875 
Q 31.109375 20.453125 19.1875 8.296875 
z
" id="DejaVuSans-50"/>
      </defs>
      <g transform="translate(131.548357 321.140875)scale(0.2 -0.2)">
       <use xlink:href="#DejaVuSans-50"/>
      </g>
     </g>
    </g>
    <g id="xtick_3">
     <g id="line2d_9">
      <path clip-path="url(#p392d4f7c8c)" d="M 218.221714 298.944 
L 218.221714 27.648 
" style="fill:none;stroke:#b0b0b0;stroke-linecap:square;stroke-width:0.8;"/>
     </g>
     <g id="line2d_10">
      <g>
       <use style="stroke:#000000;stroke-width:0.8;" x="218.221714" xlink:href="#m96b5ca6ad0" y="298.944"/>
      </g>
     </g>
     <g id="text_3">
      <!-- 4 -->
      <defs>
       <path d="M 37.796875 64.3125 
L 12.890625 25.390625 
L 37.796875 25.390625 
z
M 35.203125 72.90625 
L 47.609375 72.90625 
L 47.609375 25.390625 
L 58.015625 25.390625 
L 58.015625 17.1875 
L 47.609375 17.1875 
L 47.609375 0 
L 37.796875 0 
L 37.796875 17.1875 
L 4.890625 17.1875 
L 4.890625 26.703125 
z
" id="DejaVuSans-52"/>
      </defs>
      <g transform="translate(211.859214 321.140875)scale(0.2 -0.2)">
       <use xlink:href="#DejaVuSans-52"/>
      </g>
     </g>
    </g>
    <g id="xtick_4">
     <g id="line2d_11">
      <path clip-path="url(#p392d4f7c8c)" d="M 298.532571 298.944 
L 298.532571 27.648 
" style="fill:none;stroke:#b0b0b0;stroke-linecap:square;stroke-width:0.8;"/>
     </g>
     <g id="line2d_12">
      <g>
       <use style="stroke:#000000;stroke-width:0.8;" x="298.532571" xlink:href="#m96b5ca6ad0" y="298.944"/>
      </g>
     </g>
     <g id="text_4">
      <!-- 6 -->
      <defs>
       <path d="M 33.015625 40.375 
Q 26.375 40.375 22.484375 35.828125 
Q 18.609375 31.296875 18.609375 23.390625 
Q 18.609375 15.53125 22.484375 10.953125 
Q 26.375 6.390625 33.015625 6.390625 
Q 39.65625 6.390625 43.53125 10.953125 
Q 47.40625 15.53125 47.40625 23.390625 
Q 47.40625 31.296875 43.53125 35.828125 
Q 39.65625 40.375 33.015625 40.375 
z
M 52.59375 71.296875 
L 52.59375 62.3125 
Q 48.875 64.0625 45.09375 64.984375 
Q 41.3125 65.921875 37.59375 65.921875 
Q 27.828125 65.921875 22.671875 59.328125 
Q 17.53125 52.734375 16.796875 39.40625 
Q 19.671875 43.65625 24.015625 45.921875 
Q 28.375 48.1875 33.59375 48.1875 
Q 44.578125 48.1875 50.953125 41.515625 
Q 57.328125 34.859375 57.328125 23.390625 
Q 57.328125 12.15625 50.6875 5.359375 
Q 44.046875 -1.421875 33.015625 -1.421875 
Q 20.359375 -1.421875 13.671875 8.265625 
Q 6.984375 17.96875 6.984375 36.375 
Q 6.984375 53.65625 15.1875 63.9375 
Q 23.390625 74.21875 37.203125 74.21875 
Q 40.921875 74.21875 44.703125 73.484375 
Q 48.484375 72.75 52.59375 71.296875 
z
" id="DejaVuSans-54"/>
      </defs>
      <g transform="translate(292.170071 321.140875)scale(0.2 -0.2)">
       <use xlink:href="#DejaVuSans-54"/>
      </g>
     </g>
    </g>
    <g id="xtick_5">
     <g id="line2d_13">
      <path clip-path="url(#p392d4f7c8c)" d="M 97.755429 298.944 
L 97.755429 27.648 
" style="fill:none;stroke:#b0b0b0;stroke-linecap:square;stroke-width:0.8;"/>
     </g>
     <g id="line2d_14">
      <defs>
       <path d="M 0 0 
L 0 2 
" id="m696214bb12" style="stroke:#000000;stroke-width:0.6;"/>
      </defs>
      <g>
       <use style="stroke:#000000;stroke-width:0.6;" x="97.755429" xlink:href="#m696214bb12" y="298.944"/>
      </g>
     </g>
    </g>
    <g id="xtick_6">
     <g id="line2d_15">
      <path clip-path="url(#p392d4f7c8c)" d="M 178.066286 298.944 
L 178.066286 27.648 
" style="fill:none;stroke:#b0b0b0;stroke-linecap:square;stroke-width:0.8;"/>
     </g>
     <g id="line2d_16">
      <g>
       <use style="stroke:#000000;stroke-width:0.6;" x="178.066286" xlink:href="#m696214bb12" y="298.944"/>
      </g>
     </g>
    </g>
    <g id="xtick_7">
     <g id="line2d_17">
      <path clip-path="url(#p392d4f7c8c)" d="M 258.377143 298.944 
L 258.377143 27.648 
" style="fill:none;stroke:#b0b0b0;stroke-linecap:square;stroke-width:0.8;"/>
     </g>
     <g id="line2d_18">
      <g>
       <use style="stroke:#000000;stroke-width:0.6;" x="258.377143" xlink:href="#m696214bb12" y="298.944"/>
      </g>
     </g>
    </g>
    <g id="xtick_8">
     <g id="line2d_19">
      <path clip-path="url(#p392d4f7c8c)" d="M 338.688 298.944 
L 338.688 27.648 
" style="fill:none;stroke:#b0b0b0;stroke-linecap:square;stroke-width:0.8;"/>
     </g>
     <g id="line2d_20">
      <g>
       <use style="stroke:#000000;stroke-width:0.6;" x="338.688" xlink:href="#m696214bb12" y="298.944"/>
      </g>
     </g>
    </g>
    <g id="text_5">
     <!-- log10(# f-evals / dimension) -->
     <defs>
      <path d="M 9.421875 75.984375 
L 18.40625 75.984375 
L 18.40625 0 
L 9.421875 0 
z
" id="DejaVuSans-108"/>
      <path d="M 30.609375 48.390625 
Q 23.390625 48.390625 19.1875 42.75 
Q 14.984375 37.109375 14.984375 27.296875 
Q 14.984375 17.484375 19.15625 11.84375 
Q 23.34375 6.203125 30.609375 6.203125 
Q 37.796875 6.203125 41.984375 11.859375 
Q 46.1875 17.53125 46.1875 27.296875 
Q 46.1875 37.015625 41.984375 42.703125 
Q 37.796875 48.390625 30.609375 48.390625 
z
M 30.609375 56 
Q 42.328125 56 49.015625 48.375 
Q 55.71875 40.765625 55.71875 27.296875 
Q 55.71875 13.875 49.015625 6.21875 
Q 42.328125 -1.421875 30.609375 -1.421875 
Q 18.84375 -1.421875 12.171875 6.21875 
Q 5.515625 13.875 5.515625 27.296875 
Q 5.515625 40.765625 12.171875 48.375 
Q 18.84375 56 30.609375 56 
z
" id="DejaVuSans-111"/>
      <path d="M 45.40625 27.984375 
Q 45.40625 37.75 41.375 43.109375 
Q 37.359375 48.484375 30.078125 48.484375 
Q 22.859375 48.484375 18.828125 43.109375 
Q 14.796875 37.75 14.796875 27.984375 
Q 14.796875 18.265625 18.828125 12.890625 
Q 22.859375 7.515625 30.078125 7.515625 
Q 37.359375 7.515625 41.375 12.890625 
Q 45.40625 18.265625 45.40625 27.984375 
z
M 54.390625 6.78125 
Q 54.390625 -7.171875 48.1875 -13.984375 
Q 42 -20.796875 29.203125 -20.796875 
Q 24.46875 -20.796875 20.265625 -20.09375 
Q 16.0625 -19.390625 12.109375 -17.921875 
L 12.109375 -9.1875 
Q 16.0625 -11.328125 19.921875 -12.34375 
Q 23.78125 -13.375 27.78125 -13.375 
Q 36.625 -13.375 41.015625 -8.765625 
Q 45.40625 -4.15625 45.40625 5.171875 
L 45.40625 9.625 
Q 42.625 4.78125 38.28125 2.390625 
Q 33.9375 0 27.875 0 
Q 17.828125 0 11.671875 7.65625 
Q 5.515625 15.328125 5.515625 27.984375 
Q 5.515625 40.671875 11.671875 48.328125 
Q 17.828125 56 27.875 56 
Q 33.9375 56 38.28125 53.609375 
Q 42.625 51.21875 45.40625 46.390625 
L 45.40625 54.6875 
L 54.390625 54.6875 
z
" id="DejaVuSans-103"/>
      <path d="M 12.40625 8.296875 
L 28.515625 8.296875 
L 28.515625 63.921875 
L 10.984375 60.40625 
L 10.984375 69.390625 
L 28.421875 72.90625 
L 38.28125 72.90625 
L 38.28125 8.296875 
L 54.390625 8.296875 
L 54.390625 0 
L 12.40625 0 
z
" id="DejaVuSans-49"/>
      <path d="M 31 75.875 
Q 24.46875 64.65625 21.28125 53.65625 
Q 18.109375 42.671875 18.109375 31.390625 
Q 18.109375 20.125 21.3125 9.0625 
Q 24.515625 -2 31 -13.1875 
L 23.1875 -13.1875 
Q 15.875 -1.703125 12.234375 9.375 
Q 8.59375 20.453125 8.59375 31.390625 
Q 8.59375 42.28125 12.203125 53.3125 
Q 15.828125 64.359375 23.1875 75.875 
z
" id="DejaVuSans-40"/>
      <path d="M 51.125 44 
L 36.921875 44 
L 32.8125 27.6875 
L 47.125 27.6875 
z
M 43.796875 71.78125 
L 38.71875 51.515625 
L 52.984375 51.515625 
L 58.109375 71.78125 
L 65.921875 71.78125 
L 60.890625 51.515625 
L 76.125 51.515625 
L 76.125 44 
L 58.984375 44 
L 54.984375 27.6875 
L 70.515625 27.6875 
L 70.515625 20.21875 
L 53.078125 20.21875 
L 48 0 
L 40.1875 0 
L 45.21875 20.21875 
L 30.90625 20.21875 
L 25.875 0 
L 18.015625 0 
L 23.09375 20.21875 
L 7.71875 20.21875 
L 7.71875 27.6875 
L 24.90625 27.6875 
L 29 44 
L 13.28125 44 
L 13.28125 51.515625 
L 30.90625 51.515625 
L 35.890625 71.78125 
z
" id="DejaVuSans-35"/>
      <path id="DejaVuSans-32"/>
      <path d="M 37.109375 75.984375 
L 37.109375 68.5 
L 28.515625 68.5 
Q 23.6875 68.5 21.796875 66.546875 
Q 19.921875 64.59375 19.921875 59.515625 
L 19.921875 54.6875 
L 34.71875 54.6875 
L 34.71875 47.703125 
L 19.921875 47.703125 
L 19.921875 0 
L 10.890625 0 
L 10.890625 47.703125 
L 2.296875 47.703125 
L 2.296875 54.6875 
L 10.890625 54.6875 
L 10.890625 58.5 
Q 10.890625 67.625 15.140625 71.796875 
Q 19.390625 75.984375 28.609375 75.984375 
z
" id="DejaVuSans-102"/>
      <path d="M 4.890625 31.390625 
L 31.203125 31.390625 
L 31.203125 23.390625 
L 4.890625 23.390625 
z
" id="DejaVuSans-45"/>
      <path d="M 56.203125 29.59375 
L 56.203125 25.203125 
L 14.890625 25.203125 
Q 15.484375 15.921875 20.484375 11.0625 
Q 25.484375 6.203125 34.421875 6.203125 
Q 39.59375 6.203125 44.453125 7.46875 
Q 49.3125 8.734375 54.109375 11.28125 
L 54.109375 2.78125 
Q 49.265625 0.734375 44.1875 -0.34375 
Q 39.109375 -1.421875 33.890625 -1.421875 
Q 20.796875 -1.421875 13.15625 6.1875 
Q 5.515625 13.8125 5.515625 26.8125 
Q 5.515625 40.234375 12.765625 48.109375 
Q 20.015625 56 32.328125 56 
Q 43.359375 56 49.78125 48.890625 
Q 56.203125 41.796875 56.203125 29.59375 
z
M 47.21875 32.234375 
Q 47.125 39.59375 43.09375 43.984375 
Q 39.0625 48.390625 32.421875 48.390625 
Q 24.90625 48.390625 20.390625 44.140625 
Q 15.875 39.890625 15.1875 32.171875 
z
" id="DejaVuSans-101"/>
      <path d="M 2.984375 54.6875 
L 12.5 54.6875 
L 29.59375 8.796875 
L 46.6875 54.6875 
L 56.203125 54.6875 
L 35.6875 0 
L 23.484375 0 
z
" id="DejaVuSans-118"/>
      <path d="M 34.28125 27.484375 
Q 23.390625 27.484375 19.1875 25 
Q 14.984375 22.515625 14.984375 16.5 
Q 14.984375 11.71875 18.140625 8.90625 
Q 21.296875 6.109375 26.703125 6.109375 
Q 34.1875 6.109375 38.703125 11.40625 
Q 43.21875 16.703125 43.21875 25.484375 
L 43.21875 27.484375 
z
M 52.203125 31.203125 
L 52.203125 0 
L 43.21875 0 
L 43.21875 8.296875 
Q 40.140625 3.328125 35.546875 0.953125 
Q 30.953125 -1.421875 24.3125 -1.421875 
Q 15.921875 -1.421875 10.953125 3.296875 
Q 6 8.015625 6 15.921875 
Q 6 25.140625 12.171875 29.828125 
Q 18.359375 34.515625 30.609375 34.515625 
L 43.21875 34.515625 
L 43.21875 35.40625 
Q 43.21875 41.609375 39.140625 45 
Q 35.0625 48.390625 27.6875 48.390625 
Q 23 48.390625 18.546875 47.265625 
Q 14.109375 46.140625 10.015625 43.890625 
L 10.015625 52.203125 
Q 14.9375 54.109375 19.578125 55.046875 
Q 24.21875 56 28.609375 56 
Q 40.484375 56 46.34375 49.84375 
Q 52.203125 43.703125 52.203125 31.203125 
z
" id="DejaVuSans-97"/>
      <path d="M 44.28125 53.078125 
L 44.28125 44.578125 
Q 40.484375 46.53125 36.375 47.5 
Q 32.28125 48.484375 27.875 48.484375 
Q 21.1875 48.484375 17.84375 46.4375 
Q 14.5 44.390625 14.5 40.28125 
Q 14.5 37.15625 16.890625 35.375 
Q 19.28125 33.59375 26.515625 31.984375 
L 29.59375 31.296875 
Q 39.15625 29.25 43.1875 25.515625 
Q 47.21875 21.78125 47.21875 15.09375 
Q 47.21875 7.46875 41.1875 3.015625 
Q 35.15625 -1.421875 24.609375 -1.421875 
Q 20.21875 -1.421875 15.453125 -0.5625 
Q 10.6875 0.296875 5.421875 2 
L 5.421875 11.28125 
Q 10.40625 8.6875 15.234375 7.390625 
Q 20.0625 6.109375 24.8125 6.109375 
Q 31.15625 6.109375 34.5625 8.28125 
Q 37.984375 10.453125 37.984375 14.40625 
Q 37.984375 18.0625 35.515625 20.015625 
Q 33.0625 21.96875 24.703125 23.78125 
L 21.578125 24.515625 
Q 13.234375 26.265625 9.515625 29.90625 
Q 5.8125 33.546875 5.8125 39.890625 
Q 5.8125 47.609375 11.28125 51.796875 
Q 16.75 56 26.8125 56 
Q 31.78125 56 36.171875 55.265625 
Q 40.578125 54.546875 44.28125 53.078125 
z
" id="DejaVuSans-115"/>
      <path d="M 25.390625 72.90625 
L 33.6875 72.90625 
L 8.296875 -9.28125 
L 0 -9.28125 
z
" id="DejaVuSans-47"/>
      <path d="M 45.40625 46.390625 
L 45.40625 75.984375 
L 54.390625 75.984375 
L 54.390625 0 
L 45.40625 0 
L 45.40625 8.203125 
Q 42.578125 3.328125 38.25 0.953125 
Q 33.9375 -1.421875 27.875 -1.421875 
Q 17.96875 -1.421875 11.734375 6.484375 
Q 5.515625 14.40625 5.515625 27.296875 
Q 5.515625 40.1875 11.734375 48.09375 
Q 17.96875 56 27.875 56 
Q 33.9375 56 38.25 53.625 
Q 42.578125 51.265625 45.40625 46.390625 
z
M 14.796875 27.296875 
Q 14.796875 17.390625 18.875 11.75 
Q 22.953125 6.109375 30.078125 6.109375 
Q 37.203125 6.109375 41.296875 11.75 
Q 45.40625 17.390625 45.40625 27.296875 
Q 45.40625 37.203125 41.296875 42.84375 
Q 37.203125 48.484375 30.078125 48.484375 
Q 22.953125 48.484375 18.875 42.84375 
Q 14.796875 37.203125 14.796875 27.296875 
z
" id="DejaVuSans-100"/>
      <path d="M 9.421875 54.6875 
L 18.40625 54.6875 
L 18.40625 0 
L 9.421875 0 
z
M 9.421875 75.984375 
L 18.40625 75.984375 
L 18.40625 64.59375 
L 9.421875 64.59375 
z
" id="DejaVuSans-105"/>
      <path d="M 52 44.1875 
Q 55.375 50.25 60.0625 53.125 
Q 64.75 56 71.09375 56 
Q 79.640625 56 84.28125 50.015625 
Q 88.921875 44.046875 88.921875 33.015625 
L 88.921875 0 
L 79.890625 0 
L 79.890625 32.71875 
Q 79.890625 40.578125 77.09375 44.375 
Q 74.3125 48.1875 68.609375 48.1875 
Q 61.625 48.1875 57.5625 43.546875 
Q 53.515625 38.921875 53.515625 30.90625 
L 53.515625 0 
L 44.484375 0 
L 44.484375 32.71875 
Q 44.484375 40.625 41.703125 44.40625 
Q 38.921875 48.1875 33.109375 48.1875 
Q 26.21875 48.1875 22.15625 43.53125 
Q 18.109375 38.875 18.109375 30.90625 
L 18.109375 0 
L 9.078125 0 
L 9.078125 54.6875 
L 18.109375 54.6875 
L 18.109375 46.1875 
Q 21.1875 51.21875 25.484375 53.609375 
Q 29.78125 56 35.6875 56 
Q 41.65625 56 45.828125 52.96875 
Q 50 49.953125 52 44.1875 
z
" id="DejaVuSans-109"/>
      <path d="M 54.890625 33.015625 
L 54.890625 0 
L 45.90625 0 
L 45.90625 32.71875 
Q 45.90625 40.484375 42.875 44.328125 
Q 39.84375 48.1875 33.796875 48.1875 
Q 26.515625 48.1875 22.3125 43.546875 
Q 18.109375 38.921875 18.109375 30.90625 
L 18.109375 0 
L 9.078125 0 
L 9.078125 54.6875 
L 18.109375 54.6875 
L 18.109375 46.1875 
Q 21.34375 51.125 25.703125 53.5625 
Q 30.078125 56 35.796875 56 
Q 45.21875 56 50.046875 50.171875 
Q 54.890625 44.34375 54.890625 33.015625 
z
" id="DejaVuSans-110"/>
      <path d="M 8.015625 75.875 
L 15.828125 75.875 
Q 23.140625 64.359375 26.78125 53.3125 
Q 30.421875 42.28125 30.421875 31.390625 
Q 30.421875 20.453125 26.78125 9.375 
Q 23.140625 -1.703125 15.828125 -13.1875 
L 8.015625 -13.1875 
Q 14.5 -2 17.703125 9.0625 
Q 20.90625 20.125 20.90625 31.390625 
Q 20.90625 42.671875 17.703125 53.65625 
Q 14.5 64.65625 8.015625 75.875 
z
" id="DejaVuSans-41"/>
     </defs>
     <g transform="translate(77.303219 342.217594)scale(0.17 -0.17)">
      <use xlink:href="#DejaVuSans-108"/>
      <use x="27.783203" xlink:href="#DejaVuSans-111"/>
      <use x="88.964844" xlink:href="#DejaVuSans-103"/>
      <use x="152.441406" xlink:href="#DejaVuSans-49"/>
      <use x="216.064453" xlink:href="#DejaVuSans-48"/>
      <use x="279.6875" xlink:href="#DejaVuSans-40"/>
      <use x="318.701172" xlink:href="#DejaVuSans-35"/>
      <use x="402.490234" xlink:href="#DejaVuSans-32"/>
      <use x="434.277344" xlink:href="#DejaVuSans-102"/>
      <use x="469.404297" xlink:href="#DejaVuSans-45"/>
      <use x="505.488281" xlink:href="#DejaVuSans-101"/>
      <use x="567.011719" xlink:href="#DejaVuSans-118"/>
      <use x="626.191406" xlink:href="#DejaVuSans-97"/>
      <use x="687.470703" xlink:href="#DejaVuSans-108"/>
      <use x="715.253906" xlink:href="#DejaVuSans-115"/>
      <use x="767.353516" xlink:href="#DejaVuSans-32"/>
      <use x="799.140625" xlink:href="#DejaVuSans-47"/>
      <use x="832.832031" xlink:href="#DejaVuSans-32"/>
      <use x="864.619141" xlink:href="#DejaVuSans-100"/>
      <use x="928.095703" xlink:href="#DejaVuSans-105"/>
      <use x="955.878906" xlink:href="#DejaVuSans-109"/>
      <use x="1053.291016" xlink:href="#DejaVuSans-101"/>
      <use x="1114.814453" xlink:href="#DejaVuSans-110"/>
      <use x="1178.193359" xlink:href="#DejaVuSans-115"/>
      <use x="1230.292969" xlink:href="#DejaVuSans-105"/>
      <use x="1258.076172" xlink:href="#DejaVuSans-111"/>
      <use x="1319.257812" xlink:href="#DejaVuSans-110"/>
      <use x="1382.636719" xlink:href="#DejaVuSans-41"/>
     </g>
    </g>
   </g>
   <g id="matplotlib.axis_2">
    <g id="ytick_1">
     <g id="line2d_21">
      <path clip-path="url(#p392d4f7c8c)" d="M 57.6 298.944 
L 338.688 298.944 
" style="fill:none;stroke:#b0b0b0;stroke-linecap:square;stroke-width:0.8;"/>
     </g>
     <g id="line2d_22">
      <defs>
       <path d="M 0 0 
L -3.5 0 
" id="mc9da192108" style="stroke:#000000;stroke-width:0.8;"/>
      </defs>
      <g>
       <use style="stroke:#000000;stroke-width:0.8;" x="57.6" xlink:href="#mc9da192108" y="298.944"/>
      </g>
     </g>
     <g id="text_6">
      <!-- 0.0 -->
      <defs>
       <path d="M 10.6875 12.40625 
L 21 12.40625 
L 21 0 
L 10.6875 0 
z
" id="DejaVuSans-46"/>
      </defs>
      <g transform="translate(25.155 305.02275)scale(0.16 -0.16)">
       <use xlink:href="#DejaVuSans-48"/>
       <use x="63.623047" xlink:href="#DejaVuSans-46"/>
       <use x="95.410156" xlink:href="#DejaVuSans-48"/>
      </g>
     </g>
    </g>
    <g id="ytick_2">
     <g id="line2d_23">
      <path clip-path="url(#p392d4f7c8c)" d="M 57.6 245.22202 
L 338.688 245.22202 
" style="fill:none;stroke:#b0b0b0;stroke-linecap:square;stroke-width:0.8;"/>
     </g>
     <g id="line2d_24">
      <g>
       <use style="stroke:#000000;stroke-width:0.8;" x="57.6" xlink:href="#mc9da192108" y="245.22202"/>
      </g>
     </g>
     <g id="text_7">
      <!-- 0.2 -->
      <g transform="translate(25.155 251.30077)scale(0.16 -0.16)">
       <use xlink:href="#DejaVuSans-48"/>
       <use x="63.623047" xlink:href="#DejaVuSans-46"/>
       <use x="95.410156" xlink:href="#DejaVuSans-50"/>
      </g>
     </g>
    </g>
    <g id="ytick_3">
     <g id="line2d_25">
      <path clip-path="url(#p392d4f7c8c)" d="M 57.6 191.50004 
L 338.688 191.50004 
" style="fill:none;stroke:#b0b0b0;stroke-linecap:square;stroke-width:0.8;"/>
     </g>
     <g id="line2d_26">
      <g>
       <use style="stroke:#000000;stroke-width:0.8;" x="57.6" xlink:href="#mc9da192108" y="191.50004"/>
      </g>
     </g>
     <g id="text_8">
      <!-- 0.4 -->
      <g transform="translate(25.155 197.57879)scale(0.16 -0.16)">
       <use xlink:href="#DejaVuSans-48"/>
       <use x="63.623047" xlink:href="#DejaVuSans-46"/>
       <use x="95.410156" xlink:href="#DejaVuSans-52"/>
      </g>
     </g>
    </g>
    <g id="ytick_4">
     <g id="line2d_27">
      <path clip-path="url(#p392d4f7c8c)" d="M 57.6 137.778059 
L 338.688 137.778059 
" style="fill:none;stroke:#b0b0b0;stroke-linecap:square;stroke-width:0.8;"/>
     </g>
     <g id="line2d_28">
      <g>
       <use style="stroke:#000000;stroke-width:0.8;" x="57.6" xlink:href="#mc9da192108" y="137.778059"/>
      </g>
     </g>
     <g id="text_9">
      <!-- 0.6 -->
      <g transform="translate(25.155 143.856809)scale(0.16 -0.16)">
       <use xlink:href="#DejaVuSans-48"/>
       <use x="63.623047" xlink:href="#DejaVuSans-46"/>
       <use x="95.410156" xlink:href="#DejaVuSans-54"/>
      </g>
     </g>
    </g>
    <g id="ytick_5">
     <g id="line2d_29">
      <path clip-path="url(#p392d4f7c8c)" d="M 57.6 84.056079 
L 338.688 84.056079 
" style="fill:none;stroke:#b0b0b0;stroke-linecap:square;stroke-width:0.8;"/>
     </g>
     <g id="line2d_30">
      <g>
       <use style="stroke:#000000;stroke-width:0.8;" x="57.6" xlink:href="#mc9da192108" y="84.056079"/>
      </g>
     </g>
     <g id="text_10">
      <!-- 0.8 -->
      <defs>
       <path d="M 31.78125 34.625 
Q 24.75 34.625 20.71875 30.859375 
Q 16.703125 27.09375 16.703125 20.515625 
Q 16.703125 13.921875 20.71875 10.15625 
Q 24.75 6.390625 31.78125 6.390625 
Q 38.8125 6.390625 42.859375 10.171875 
Q 46.921875 13.96875 46.921875 20.515625 
Q 46.921875 27.09375 42.890625 30.859375 
Q 38.875 34.625 31.78125 34.625 
z
M 21.921875 38.8125 
Q 15.578125 40.375 12.03125 44.71875 
Q 8.5 49.078125 8.5 55.328125 
Q 8.5 64.0625 14.71875 69.140625 
Q 20.953125 74.21875 31.78125 74.21875 
Q 42.671875 74.21875 48.875 69.140625 
Q 55.078125 64.0625 55.078125 55.328125 
Q 55.078125 49.078125 51.53125 44.71875 
Q 48 40.375 41.703125 38.8125 
Q 48.828125 37.15625 52.796875 32.3125 
Q 56.78125 27.484375 56.78125 20.515625 
Q 56.78125 9.90625 50.3125 4.234375 
Q 43.84375 -1.421875 31.78125 -1.421875 
Q 19.734375 -1.421875 13.25 4.234375 
Q 6.78125 9.90625 6.78125 20.515625 
Q 6.78125 27.484375 10.78125 32.3125 
Q 14.796875 37.15625 21.921875 38.8125 
z
M 18.3125 54.390625 
Q 18.3125 48.734375 21.84375 45.5625 
Q 25.390625 42.390625 31.78125 42.390625 
Q 38.140625 42.390625 41.71875 45.5625 
Q 45.3125 48.734375 45.3125 54.390625 
Q 45.3125 60.0625 41.71875 63.234375 
Q 38.140625 66.40625 31.78125 66.40625 
Q 25.390625 66.40625 21.84375 63.234375 
Q 18.3125 60.0625 18.3125 54.390625 
z
" id="DejaVuSans-56"/>
      </defs>
      <g transform="translate(25.155 90.134829)scale(0.16 -0.16)">
       <use xlink:href="#DejaVuSans-48"/>
       <use x="63.623047" xlink:href="#DejaVuSans-46"/>
       <use x="95.410156" xlink:href="#DejaVuSans-56"/>
      </g>
     </g>
    </g>
    <g id="ytick_6">
     <g id="line2d_31">
      <path clip-path="url(#p392d4f7c8c)" d="M 57.6 30.334099 
L 338.688 30.334099 
" style="fill:none;stroke:#b0b0b0;stroke-linecap:square;stroke-width:0.8;"/>
     </g>
     <g id="line2d_32">
      <g>
       <use style="stroke:#000000;stroke-width:0.8;" x="57.6" xlink:href="#mc9da192108" y="30.334099"/>
      </g>
     </g>
     <g id="text_11">
      <!-- 1.0 -->
      <g transform="translate(25.155 36.412849)scale(0.16 -0.16)">
       <use xlink:href="#DejaVuSans-49"/>
       <use x="63.623047" xlink:href="#DejaVuSans-46"/>
       <use x="95.410156" xlink:href="#DejaVuSans-48"/>
      </g>
     </g>
    </g>
    <g id="text_12">
     <!-- Fraction of function,target pairs -->
     <defs>
      <path d="M 9.8125 72.90625 
L 51.703125 72.90625 
L 51.703125 64.59375 
L 19.671875 64.59375 
L 19.671875 43.109375 
L 48.578125 43.109375 
L 48.578125 34.8125 
L 19.671875 34.8125 
L 19.671875 0 
L 9.8125 0 
z
" id="DejaVuSans-70"/>
      <path d="M 41.109375 46.296875 
Q 39.59375 47.171875 37.8125 47.578125 
Q 36.03125 48 33.890625 48 
Q 26.265625 48 22.1875 43.046875 
Q 18.109375 38.09375 18.109375 28.8125 
L 18.109375 0 
L 9.078125 0 
L 9.078125 54.6875 
L 18.109375 54.6875 
L 18.109375 46.1875 
Q 20.953125 51.171875 25.484375 53.578125 
Q 30.03125 56 36.53125 56 
Q 37.453125 56 38.578125 55.875 
Q 39.703125 55.765625 41.0625 55.515625 
z
" id="DejaVuSans-114"/>
      <path d="M 48.78125 52.59375 
L 48.78125 44.1875 
Q 44.96875 46.296875 41.140625 47.34375 
Q 37.3125 48.390625 33.40625 48.390625 
Q 24.65625 48.390625 19.8125 42.84375 
Q 14.984375 37.3125 14.984375 27.296875 
Q 14.984375 17.28125 19.8125 11.734375 
Q 24.65625 6.203125 33.40625 6.203125 
Q 37.3125 6.203125 41.140625 7.25 
Q 44.96875 8.296875 48.78125 10.40625 
L 48.78125 2.09375 
Q 45.015625 0.34375 40.984375 -0.53125 
Q 36.96875 -1.421875 32.421875 -1.421875 
Q 20.0625 -1.421875 12.78125 6.34375 
Q 5.515625 14.109375 5.515625 27.296875 
Q 5.515625 40.671875 12.859375 48.328125 
Q 20.21875 56 33.015625 56 
Q 37.15625 56 41.109375 55.140625 
Q 45.0625 54.296875 48.78125 52.59375 
z
" id="DejaVuSans-99"/>
      <path d="M 18.3125 70.21875 
L 18.3125 54.6875 
L 36.8125 54.6875 
L 36.8125 47.703125 
L 18.3125 47.703125 
L 18.3125 18.015625 
Q 18.3125 11.328125 20.140625 9.421875 
Q 21.96875 7.515625 27.59375 7.515625 
L 36.8125 7.515625 
L 36.8125 0 
L 27.59375 0 
Q 17.1875 0 13.234375 3.875 
Q 9.28125 7.765625 9.28125 18.015625 
L 9.28125 47.703125 
L 2.6875 47.703125 
L 2.6875 54.6875 
L 9.28125 54.6875 
L 9.28125 70.21875 
z
" id="DejaVuSans-116"/>
      <path d="M 8.5 21.578125 
L 8.5 54.6875 
L 17.484375 54.6875 
L 17.484375 21.921875 
Q 17.484375 14.15625 20.5 10.265625 
Q 23.53125 6.390625 29.59375 6.390625 
Q 36.859375 6.390625 41.078125 11.03125 
Q 45.3125 15.671875 45.3125 23.6875 
L 45.3125 54.6875 
L 54.296875 54.6875 
L 54.296875 0 
L 45.3125 0 
L 45.3125 8.40625 
Q 42.046875 3.421875 37.71875 1 
Q 33.40625 -1.421875 27.6875 -1.421875 
Q 18.265625 -1.421875 13.375 4.4375 
Q 8.5 10.296875 8.5 21.578125 
z
M 31.109375 56 
z
" id="DejaVuSans-117"/>
      <path d="M 11.71875 12.40625 
L 22.015625 12.40625 
L 22.015625 4 
L 14.015625 -11.625 
L 7.71875 -11.625 
L 11.71875 4 
z
" id="DejaVuSans-44"/>
      <path d="M 18.109375 8.203125 
L 18.109375 -20.796875 
L 9.078125 -20.796875 
L 9.078125 54.6875 
L 18.109375 54.6875 
L 18.109375 46.390625 
Q 20.953125 51.265625 25.265625 53.625 
Q 29.59375 56 35.59375 56 
Q 45.5625 56 51.78125 48.09375 
Q 58.015625 40.1875 58.015625 27.296875 
Q 58.015625 14.40625 51.78125 6.484375 
Q 45.5625 -1.421875 35.59375 -1.421875 
Q 29.59375 -1.421875 25.265625 0.953125 
Q 20.953125 3.328125 18.109375 8.203125 
z
M 48.6875 27.296875 
Q 48.6875 37.203125 44.609375 42.84375 
Q 40.53125 48.484375 33.40625 48.484375 
Q 26.265625 48.484375 22.1875 42.84375 
Q 18.109375 37.203125 18.109375 27.296875 
Q 18.109375 17.390625 22.1875 11.75 
Q 26.265625 6.109375 33.40625 6.109375 
Q 40.53125 6.109375 44.609375 11.75 
Q 48.6875 17.390625 48.6875 27.296875 
z
" id="DejaVuSans-112"/>
     </defs>
     <g transform="translate(17.619531 298.435375)rotate(-90)scale(0.17 -0.17)">
      <use xlink:href="#DejaVuSans-70"/>
      <use x="57.410156" xlink:href="#DejaVuSans-114"/>
      <use x="98.523438" xlink:href="#DejaVuSans-97"/>
      <use x="159.802734" xlink:href="#DejaVuSans-99"/>
      <use x="214.783203" xlink:href="#DejaVuSans-116"/>
      <use x="253.992188" xlink:href="#DejaVuSans-105"/>
      <use x="281.775391" xlink:href="#DejaVuSans-111"/>
      <use x="342.957031" xlink:href="#DejaVuSans-110"/>
      <use x="406.335938" xlink:href="#DejaVuSans-32"/>
      <use x="438.123047" xlink:href="#DejaVuSans-111"/>
      <use x="499.304688" xlink:href="#DejaVuSans-102"/>
      <use x="534.509766" xlink:href="#DejaVuSans-32"/>
      <use x="566.296875" xlink:href="#DejaVuSans-102"/>
      <use x="601.501953" xlink:href="#DejaVuSans-117"/>
      <use x="664.880859" xlink:href="#DejaVuSans-110"/>
      <use x="728.259766" xlink:href="#DejaVuSans-99"/>
      <use x="783.240234" xlink:href="#DejaVuSans-116"/>
      <use x="822.449219" xlink:href="#DejaVuSans-105"/>
      <use x="850.232422" xlink:href="#DejaVuSans-111"/>
      <use x="911.414062" xlink:href="#DejaVuSans-110"/>
      <use x="974.792969" xlink:href="#DejaVuSans-44"/>
      <use x="1006.580078" xlink:href="#DejaVuSans-116"/>
      <use x="1045.789062" xlink:href="#DejaVuSans-97"/>
      <use x="1107.068359" xlink:href="#DejaVuSans-114"/>
      <use x="1148.166016" xlink:href="#DejaVuSans-103"/>
      <use x="1211.642578" xlink:href="#DejaVuSans-101"/>
      <use x="1273.166016" xlink:href="#DejaVuSans-116"/>
      <use x="1312.375" xlink:href="#DejaVuSans-32"/>
      <use x="1344.162109" xlink:href="#DejaVuSans-112"/>
      <use x="1407.638672" xlink:href="#DejaVuSans-97"/>
      <use x="1468.917969" xlink:href="#DejaVuSans-105"/>
      <use x="1496.701172" xlink:href="#DejaVuSans-114"/>
      <use x="1537.814453" xlink:href="#DejaVuSans-115"/>
     </g>
    </g>
   </g>
   <g id="line2d_33">
    <defs>
     <path d="M 0 1.5 
C 0.397805 1.5 0.77937 1.341951 1.06066 1.06066 
C 1.341951 0.77937 1.5 0.397805 1.5 0 
C 1.5 -0.397805 1.341951 -0.77937 1.06066 -1.06066 
C 0.77937 -1.341951 0.397805 -1.5 0 -1.5 
C -0.397805 -1.5 -0.77937 -1.341951 -1.06066 -1.06066 
C -1.341951 -0.77937 -1.5 -0.397805 -1.5 0 
C -1.5 0.397805 -1.341951 0.77937 -1.06066 1.06066 
C -0.77937 1.341951 -0.397805 1.5 0 1.5 
z
" id="mdd9a76cbc2" style="stroke:#f5deb3;"/>
    </defs>
    <g>
     <use style="fill:#f5deb3;stroke:#f5deb3;" x="287.214133" xlink:href="#mdd9a76cbc2" y="62.752535"/>
     <use style="fill:#f5deb3;stroke:#f5deb3;" x="287.214133" xlink:href="#mdd9a76cbc2" y="62.752535"/>
    </g>
   </g>
   <g id="line2d_34">
    <defs>
     <path d="M 0 1.5 
C 0.397805 1.5 0.77937 1.341951 1.06066 1.06066 
C 1.341951 0.77937 1.5 0.397805 1.5 0 
C 1.5 -0.397805 1.341951 -0.77937 1.06066 -1.06066 
C 0.77937 -1.341951 0.397805 -1.5 0 -1.5 
C -0.397805 -1.5 -0.77937 -1.341951 -1.06066 -1.06066 
C -1.341951 -0.77937 -1.5 -0.397805 -1.5 0 
C -1.5 0.397805 -1.341951 0.77937 -1.06066 1.06066 
C -0.77937 1.341951 -0.397805 1.5 0 1.5 
z
" id="m3be0db886b" style="stroke:#000080;"/>
    </defs>
    <g>
     <use style="fill:#000080;stroke:#000080;" x="243.691246" xlink:href="#m3be0db886b" y="207.246137"/>
     <use style="fill:#000080;stroke:#000080;" x="243.691246" xlink:href="#m3be0db886b" y="207.246137"/>
    </g>
   </g>
   <g id="line2d_35">
    <path d="M 5.356583 298.944 
L 5.356583 295.239036 
L 45.512012 295.239036 
L 45.512012 294.312795 
L 88.846997 294.312795 
L 88.846997 293.386554 
L 90.640756 293.386554 
L 90.640756 292.460313 
L 95.125186 292.460313 
L 95.125186 290.607831 
L 99.731799 290.607831 
L 99.731799 289.68159 
L 101.992235 289.68159 
L 101.992235 288.755349 
L 102.196206 288.755349 
L 102.196206 287.829108 
L 103.372333 287.829108 
L 103.372333 286.902867 
L 104.17499 286.902867 
L 104.17499 285.976625 
L 105.677314 285.976625 
L 105.677314 284.124143 
L 107.06042 284.124143 
L 107.06042 283.197902 
L 107.712901 283.197902 
L 107.712901 282.271661 
L 108.530893 282.271661 
L 108.530893 281.34542 
L 109.535528 281.34542 
L 109.535528 280.419179 
L 110.735755 280.419179 
L 110.735755 279.492938 
L 111.702614 279.492938 
L 111.702614 278.566697 
L 114.519183 278.566697 
L 114.519183 277.640456 
L 114.849483 277.640456 
L 114.914798 275.787974 
L 115.0447 275.787974 
L 115.0447 274.861733 
L 116.59175 274.861733 
L 116.59175 273.009251 
L 117.316679 273.009251 
L 117.316679 272.08301 
L 119.874629 272.08301 
L 119.874629 271.156769 
L 124.669438 271.156769 
L 124.669438 270.230528 
L 126.573795 270.230528 
L 126.573795 269.304287 
L 127.658536 269.304287 
L 127.658536 268.378046 
L 129.433047 268.378046 
L 129.433047 267.451805 
L 130.100661 267.451805 
L 130.100661 266.525564 
L 131.640805 266.525564 
L 131.640805 265.599323 
L 133.239232 265.599323 
L 133.239232 264.673082 
L 133.375477 264.673082 
L 133.375477 263.746841 
L 134.236034 263.746841 
L 134.236034 261.894358 
L 137.37967 261.894358 
L 137.37967 260.968117 
L 138.315939 260.968117 
L 138.315939 260.041876 
L 138.861092 260.041876 
L 138.861092 258.189394 
L 139.918342 258.189394 
L 139.918342 257.263153 
L 151.653058 257.263153 
L 151.653058 255.410671 
L 154.5944 255.410671 
L 154.5944 253.558189 
L 155.722837 253.558189 
L 155.722837 252.631948 
L 157.058236 252.631948 
L 157.058236 251.705707 
L 157.280763 251.705707 
L 157.280763 249.853225 
L 157.423756 249.853225 
L 157.423756 248.000743 
L 163.17688 248.000743 
L 163.17688 247.074502 
L 163.339941 247.074502 
L 163.339941 246.148261 
L 163.845811 246.148261 
L 163.845811 245.22202 
L 173.492411 245.22202 
L 173.492411 244.295779 
L 176.284977 244.295779 
L 176.284977 242.443297 
L 190.822737 242.443297 
L 190.857947 240.590815 
L 197.006224 240.590815 
L 197.006224 239.664574 
L 200.520246 239.664574 
L 200.520246 238.738333 
L 202.290372 238.738333 
L 202.318393 236.88585 
L 204.451989 236.88585 
L 204.451989 235.033368 
L 228.120168 235.033368 
L 228.223419 227.62344 
L 228.421012 227.62344 
L 228.479023 223.918476 
L 228.680269 223.918476 
L 228.68917 222.065994 
L 229.08631 222.065994 
L 229.08631 221.139753 
L 229.38657 221.139753 
L 229.466463 218.36103 
L 229.674967 218.36103 
L 229.674967 217.434789 
L 230.134828 217.434789 
L 230.134828 216.508548 
L 230.904583 216.508548 
L 230.904583 214.656066 
L 231.43142 214.656066 
L 231.43142 213.729825 
L 232.029536 213.729825 
L 232.029536 212.803583 
L 234.436363 212.803583 
L 234.436363 211.877342 
L 236.357969 211.877342 
L 236.357969 210.02486 
L 241.164007 210.02486 
L 241.164007 208.172378 
L 243.691246 208.172378 
L 243.691246 207.246137 
L 338.688 207.246137 
L 338.688 207.246137 
" style="fill:none;stroke:#000080;stroke-linecap:square;stroke-width:1.5;"/>
   </g>
   <g id="line2d_36">
    <defs>
     <path d="M 0 6 
C 1.591219 6 3.117479 5.367802 4.242641 4.242641 
C 5.367802 3.117479 6 1.591219 6 0 
C 6 -1.591219 5.367802 -3.117479 4.242641 -4.242641 
C 3.117479 -5.367802 1.591219 -6 0 -6 
C -1.591219 -6 -3.117479 -5.367802 -4.242641 -4.242641 
C -5.367802 -3.117479 -6 -1.591219 -6 0 
C -6 1.591219 -5.367802 3.117479 -4.242641 4.242641 
C -3.117479 5.367802 -1.591219 6 0 6 
z
" id="mdb81b3d4a6" style="stroke:#000080;stroke-width:1.5;"/>
    </defs>
    <g>
     <use style="fill-opacity:0;stroke:#000080;stroke-width:1.5;" x="119.874629" xlink:href="#mdb81b3d4a6" y="271.156769"/>
     <use style="fill-opacity:0;stroke:#000080;stroke-width:1.5;" x="204.451989" xlink:href="#mdb81b3d4a6" y="235.033368"/>
     <use style="fill-opacity:0;stroke:#000080;stroke-width:1.5;" x="243.691246" xlink:href="#mdb81b3d4a6" y="208.172378"/>
     <use style="fill-opacity:0;stroke:#000080;stroke-width:1.5;" x="243.691246" xlink:href="#mdb81b3d4a6" y="207.246137"/>
     <use style="fill-opacity:0;stroke:#000080;stroke-width:1.5;" x="338.688" xlink:href="#mdb81b3d4a6" y="207.246137"/>
    </g>
   </g>
   <g id="line2d_37">
    <path style="fill:none;stroke:#000080;stroke-linecap:square;stroke-width:1.5;"/>
    <g/>
   </g>
   <g id="line2d_38">
    <path clip-path="url(#p392d4f7c8c)" d="M 246.289259 207.246137 
" style="fill:none;stroke:#000080;stroke-linecap:square;stroke-width:1.5;"/>
    <defs>
     <path d="M -12 12 
L 12 -12 
M -12 -12 
L 12 12 
" id="m5c7a7c98dd" style="stroke:#000080;"/>
    </defs>
    <g clip-path="url(#p392d4f7c8c)">
     <use style="fill:#000080;stroke:#000080;" x="246.289259" xlink:href="#m5c7a7c98dd" y="207.246137"/>
    </g>
   </g>
   <g id="line2d_39">
    <defs>
     <path d="M 0 1.5 
C 0.397805 1.5 0.77937 1.341951 1.06066 1.06066 
C 1.341951 0.77937 1.5 0.397805 1.5 0 
C 1.5 -0.397805 1.341951 -0.77937 1.06066 -1.06066 
C 0.77937 -1.341951 0.397805 -1.5 0 -1.5 
C -0.397805 -1.5 -0.77937 -1.341951 -1.06066 -1.06066 
C -1.341951 -0.77937 -1.5 -0.397805 -1.5 0 
C -1.5 0.397805 -1.341951 0.77937 -1.06066 1.06066 
C -0.77937 1.341951 -0.397805 1.5 0 1.5 
z
" id="m3affce8df0" style="stroke:#ff00ff;"/>
    </defs>
    <g>
     <use style="fill:#ff00ff;stroke:#ff00ff;" x="294.93464" xlink:href="#m3affce8df0" y="84.056079"/>
     <use style="fill:#ff00ff;stroke:#ff00ff;" x="294.93464" xlink:href="#m3affce8df0" y="84.056079"/>
    </g>
   </g>
   <g id="line2d_40">
    <path d="M 5.356583 298.944 
L 5.356583 294.775915 
L 17.444571 294.775915 
L 17.444571 294.312795 
L 24.515591 294.312795 
L 24.515591 293.386554 
L 60.779557 293.386554 
L 60.779557 292.923433 
L 71.74204 292.923433 
L 71.74204 292.460313 
L 74.595619 292.460313 
L 74.595619 291.997192 
L 75.555822 291.997192 
L 75.555822 291.534072 
L 75.86449 291.534072 
L 75.86449 290.607831 
L 76.16779 290.607831 
L 76.16779 290.14471 
L 77.047268 290.14471 
L 77.047268 289.68159 
L 77.884514 289.68159 
L 77.884514 287.829108 
L 78.154896 287.829108 
L 78.154896 286.439746 
L 78.421149 286.439746 
L 78.421149 285.513505 
L 78.683399 285.513505 
L 78.683399 285.050384 
L 79.447285 285.050384 
L 79.447285 284.587264 
L 80.179111 284.587264 
L 80.179111 282.734782 
L 80.650472 282.734782 
L 80.650472 282.271661 
L 80.881459 282.271661 
L 80.881459 280.8823 
L 81.775977 280.8823 
L 81.775977 280.419179 
L 82.206598 280.419179 
L 82.206598 279.492938 
L 82.417986 279.492938 
L 82.417986 279.029818 
L 83.037197 279.029818 
L 83.037197 278.566697 
L 83.438118 278.566697 
L 83.438118 278.103577 
L 84.772922 278.103577 
L 84.772922 277.177336 
L 85.492169 277.177336 
L 85.492169 276.714215 
L 85.66744 276.714215 
L 85.66744 276.251095 
L 86.518305 276.251095 
L 86.518305 275.324854 
L 86.847358 275.324854 
L 86.847358 274.861733 
L 87.643811 274.861733 
L 87.643811 274.398612 
L 87.798828 274.398612 
L 87.798828 273.472371 
L 88.255778 273.472371 
L 88.255778 273.009251 
L 88.553893 273.009251 
L 88.553893 272.54613 
L 88.846997 272.54613 
L 88.846997 272.08301 
L 89.697862 272.08301 
L 89.697862 271.619889 
L 90.771388 271.619889 
L 90.771388 271.156769 
L 91.284345 271.156769 
L 91.284345 270.693648 
L 92.026554 270.693648 
L 92.026554 270.230528 
L 92.504372 270.230528 
L 92.504372 269.304287 
L 94.921215 269.304287 
L 94.921215 268.841166 
L 96.489848 268.841166 
L 96.489848 268.378046 
L 98.853664 268.378046 
L 98.853664 267.914925 
L 100.715621 267.914925 
L 100.715621 267.451805 
L 102.330873 267.451805 
L 102.330873 266.988684 
L 102.989037 266.988684 
L 102.989037 266.525564 
L 103.245502 266.525564 
L 103.245502 266.062443 
L 104.592361 266.062443 
L 104.592361 265.599323 
L 105.842616 265.599323 
L 105.842616 264.673082 
L 111.104637 264.673082 
L 111.104637 264.209961 
L 116.502698 264.209961 
L 116.502698 263.746841 
L 116.621333 263.746841 
L 116.621333 263.28372 
L 118.602981 263.28372 
L 118.602981 262.8206 
L 119.825504 262.8206 
L 119.825504 262.357479 
L 120.069756 262.357479 
L 120.069756 261.894358 
L 120.238719 261.894358 
L 120.238719 261.431238 
L 120.712642 261.431238 
L 120.712642 260.968117 
L 122.126502 260.968117 
L 122.126502 260.041876 
L 123.333999 260.041876 
L 123.333999 259.115635 
L 125.752972 259.115635 
L 125.752972 258.189394 
L 126.97016 258.189394 
L 126.97016 257.726274 
L 127.453273 257.726274 
L 127.453273 256.800033 
L 128.305651 256.800033 
L 128.305651 256.336912 
L 130.045992 256.336912 
L 130.045992 255.873792 
L 131.465029 255.873792 
L 131.465029 255.410671 
L 131.90119 255.410671 
L 131.90119 254.48443 
L 135.701341 254.48443 
L 135.701341 254.02131 
L 137.735587 254.02131 
L 137.735587 253.558189 
L 138.383962 253.558189 
L 138.383962 252.631948 
L 140.04996 252.631948 
L 140.04996 251.705707 
L 141.54229 251.705707 
L 141.54229 251.242587 
L 141.71841 251.242587 
L 141.71841 250.316346 
L 144.148442 250.316346 
L 144.148442 249.853225 
L 145.548082 249.853225 
L 145.548082 248.926984 
L 147.804169 248.926984 
L 147.804169 248.000743 
L 154.978716 248.000743 
L 154.978716 247.537622 
L 159.570285 247.537622 
L 159.570285 247.074502 
L 184.116894 247.074502 
L 184.116894 246.148261 
L 186.284597 246.148261 
L 186.321026 244.758899 
L 186.43364 244.758899 
L 186.515476 243.832658 
L 186.853267 243.832658 
L 186.853267 242.906417 
L 188.93551 242.906417 
L 188.93551 241.980176 
L 189.147416 241.980176 
L 189.219783 241.053935 
L 189.885834 241.053935 
L 189.885834 240.127694 
L 193.675612 240.127694 
L 193.694484 238.275212 
L 197.060296 238.275212 
L 197.060296 237.812091 
L 201.661339 237.812091 
L 201.661339 237.348971 
L 204.289531 237.348971 
L 204.289531 236.88585 
L 207.273504 236.88585 
L 207.273504 236.42273 
L 207.707177 236.42273 
L 207.776356 235.496489 
L 209.712542 235.496489 
L 209.712542 234.570248 
L 216.125256 234.570248 
L 216.235924 229.939043 
L 218.548412 229.939043 
L 218.548412 229.475922 
L 219.510248 229.475922 
L 219.510248 228.549681 
L 220.84182 228.549681 
L 220.84182 227.62344 
L 221.028326 227.62344 
L 221.028326 227.16032 
L 221.243094 227.16032 
L 221.243094 226.697199 
L 224.098328 226.697199 
L 224.098328 226.234079 
L 231.641995 226.234079 
L 231.682904 223.918476 
L 232.01938 223.918476 
L 232.01938 222.992235 
L 232.351038 222.992235 
L 232.351038 222.065994 
L 233.443786 222.065994 
L 233.443786 221.602873 
L 236.35467 221.602873 
L 236.35467 221.139753 
L 240.707359 221.139753 
L 240.810593 218.36103 
L 240.826273 218.36103 
L 240.869325 217.434789 
L 240.948646 217.434789 
L 240.994138 216.045427 
L 241.781325 216.045427 
L 241.862414 214.192945 
L 241.946931 214.192945 
L 242.035803 212.340463 
L 242.140957 212.340463 
L 242.140957 211.877342 
L 242.561136 211.877342 
L 242.561136 210.951101 
L 243.213081 210.951101 
L 243.213081 210.487981 
L 243.520206 210.487981 
L 243.520206 209.56174 
L 244.271304 209.56174 
L 244.271304 209.098619 
L 245.051754 209.098619 
L 245.051754 208.635499 
L 245.335278 208.635499 
L 245.335278 208.172378 
L 246.30777 208.172378 
L 246.30777 207.246137 
L 246.585085 207.246137 
L 246.649913 205.856776 
L 246.748047 205.856776 
L 246.764109 204.467414 
L 246.885805 204.467414 
L 246.969865 201.688691 
L 247.025057 201.688691 
L 247.134222 199.836209 
L 247.360891 199.836209 
L 247.360891 199.373088 
L 247.52024 199.373088 
L 247.52024 198.909968 
L 247.729972 198.909968 
L 247.729972 197.983727 
L 247.897563 197.983727 
L 247.973366 196.131245 
L 248.022571 196.131245 
L 248.115605 195.205004 
L 248.142598 195.205004 
L 248.250321 191.036919 
L 248.419709 191.036919 
L 248.524742 189.184437 
L 248.601982 189.184437 
L 248.675642 187.795075 
L 249.323522 187.795075 
L 249.323522 187.331955 
L 249.478475 187.331955 
L 249.531756 186.405714 
L 249.600893 186.405714 
L 249.661005 185.016352 
L 250.016307 185.016352 
L 250.016307 184.553232 
L 250.159678 184.553232 
L 250.159678 184.090111 
L 250.331088 184.090111 
L 250.331088 183.16387 
L 250.482726 183.16387 
L 250.545701 181.774509 
L 250.608938 181.774509 
L 250.608938 181.311388 
L 251.47183 181.311388 
L 251.47183 180.848268 
L 251.916381 180.848268 
L 251.916381 180.385147 
L 252.029415 180.385147 
L 252.047087 179.458906 
L 252.158047 179.458906 
L 252.158047 178.995786 
L 252.574115 178.995786 
L 252.574115 178.069545 
L 253.036729 178.069545 
L 253.036729 177.143304 
L 253.506664 177.143304 
L 253.506664 176.217062 
L 254.722836 176.217062 
L 254.722836 175.753942 
L 255.018182 175.753942 
L 255.055935 174.36458 
L 255.244216 174.36458 
L 255.244216 173.90146 
L 255.630623 173.90146 
L 255.630623 172.975219 
L 255.928917 172.975219 
L 256.036619 171.585857 
L 256.287409 171.585857 
L 256.287409 170.659616 
L 256.58914 170.659616 
L 256.689058 168.344014 
L 256.838479 168.344014 
L 256.838479 167.880893 
L 257.237708 167.880893 
L 257.306594 166.954652 
L 257.469935 166.954652 
L 257.580222 164.63905 
L 257.67508 164.63905 
L 257.67508 164.175929 
L 257.787653 164.175929 
L 257.787653 163.712808 
L 258.347803 163.712808 
L 258.446327 162.323447 
L 258.674351 162.323447 
L 258.729734 161.397206 
L 258.836944 161.397206 
L 258.836944 160.934085 
L 259.447707 160.934085 
L 259.447707 160.470965 
L 259.567473 160.470965 
L 259.567473 159.544724 
L 259.808998 159.544724 
L 259.808998 158.618483 
L 260.26505 158.618483 
L 260.26505 158.155362 
L 260.816106 158.155362 
L 260.816106 157.692242 
L 261.614053 157.692242 
L 261.614053 157.229121 
L 261.797157 157.229121 
L 261.797157 156.766001 
L 262.028319 156.766001 
L 262.028319 155.83976 
L 263.086016 155.83976 
L 263.086016 154.913519 
L 264.978421 154.913519 
L 265.063496 153.061037 
L 265.223505 153.061037 
L 265.31626 151.671675 
L 265.396145 151.671675 
L 265.480036 150.745434 
L 265.509082 150.745434 
L 265.569016 148.892952 
L 265.64265 148.892952 
L 265.680383 147.50359 
L 265.963591 147.50359 
L 266.055915 145.651108 
L 266.324521 145.651108 
L 266.331104 143.335506 
L 266.49502 143.335506 
L 266.49502 142.872385 
L 266.739617 142.872385 
L 266.818312 140.556783 
L 266.953653 140.556783 
L 266.974623 139.167421 
L 267.238255 139.167421 
L 267.238255 138.7043 
L 267.353959 138.7043 
L 267.353959 138.24118 
L 267.681736 138.24118 
L 267.681736 137.778059 
L 267.863948 137.778059 
L 267.896815 136.851818 
L 268.277544 136.851818 
L 268.277544 135.925577 
L 268.445294 135.925577 
L 268.537315 134.536216 
L 268.609341 134.536216 
L 268.652093 133.609975 
L 269.545156 133.609975 
L 269.545156 133.146854 
L 270.021367 133.146854 
L 270.021367 132.683734 
L 270.493822 132.683734 
L 270.493822 131.757493 
L 271.76748 131.757493 
L 271.76748 131.294372 
L 273.377886 131.294372 
L 273.377886 130.831252 
L 274.08882 130.831252 
L 274.08882 129.905011 
L 275.921799 129.905011 
L 275.921799 128.97877 
L 276.239743 128.97877 
L 276.239743 128.052529 
L 276.698557 128.052529 
L 276.704854 127.126287 
L 276.833565 127.126287 
L 276.833565 126.200046 
L 277.281433 126.200046 
L 277.281433 125.273805 
L 277.450042 125.273805 
L 277.450042 124.810685 
L 277.68709 124.810685 
L 277.68709 124.347564 
L 277.886538 124.347564 
L 277.944555 122.958203 
L 278.142677 122.958203 
L 278.142677 122.495082 
L 278.318223 122.495082 
L 278.318223 122.031962 
L 278.780589 122.031962 
L 278.780589 121.568841 
L 278.902176 121.568841 
L 278.977284 120.17948 
L 279.048308 120.17948 
L 279.048308 119.716359 
L 279.787401 119.716359 
L 279.787401 119.253239 
L 279.922821 119.253239 
L 280.020567 117.863877 
L 280.100047 117.863877 
L 280.100047 117.400757 
L 280.4123 117.400757 
L 280.4123 116.474516 
L 280.705578 116.474516 
L 280.705578 116.011395 
L 280.839448 116.011395 
L 280.839448 115.085154 
L 281.032297 115.085154 
L 281.032297 114.158913 
L 281.853444 114.158913 
L 281.853444 113.695792 
L 282.134232 113.695792 
L 282.134232 113.232672 
L 282.307311 113.232672 
L 282.307311 112.769551 
L 282.769587 112.769551 
L 282.769587 112.306431 
L 283.195493 112.306431 
L 283.195493 111.38019 
L 285.487039 111.38019 
L 285.487039 110.453949 
L 287.248394 110.453949 
L 287.248394 109.990828 
L 288.131486 109.990828 
L 288.131486 109.064587 
L 288.276973 109.064587 
L 288.334185 107.675226 
L 288.410962 107.675226 
L 288.501773 106.285864 
L 288.574611 106.285864 
L 288.574611 105.822744 
L 288.8316 105.822744 
L 288.8316 105.359623 
L 289.006842 105.359623 
L 289.006842 104.896503 
L 289.224857 104.896503 
L 289.318074 103.04402 
L 289.463147 103.04402 
L 289.463147 102.5809 
L 289.624268 102.5809 
L 289.700473 101.191538 
L 289.828768 101.191538 
L 289.828768 100.728418 
L 290.19528 100.728418 
L 290.278047 99.339056 
L 290.359047 99.339056 
L 290.448545 97.949695 
L 290.483265 97.949695 
L 290.483265 97.023454 
L 290.639495 97.023454 
L 290.705722 95.634092 
L 290.79368 95.634092 
L 290.885036 93.78161 
L 290.999062 93.78161 
L 290.999062 93.31849 
L 291.369702 93.31849 
L 291.432357 92.392249 
L 291.548879 92.392249 
L 291.550459 91.002887 
L 292.126817 91.002887 
L 292.223651 89.613525 
L 292.257689 89.613525 
L 292.257689 88.687284 
L 292.681223 88.687284 
L 292.681223 87.761043 
L 293.239236 87.761043 
L 293.239236 87.297923 
L 293.458667 87.297923 
L 293.458667 86.834802 
L 293.889435 86.834802 
L 293.889435 86.371682 
L 294.120564 86.371682 
L 294.120564 85.445441 
L 294.819222 85.445441 
L 294.819222 84.5192 
L 294.93464 84.5192 
L 294.93464 84.056079 
L 338.688 84.056079 
L 338.688 84.056079 
" style="fill:none;stroke:#ff00ff;stroke-linecap:square;stroke-width:1.5;"/>
   </g>
   <g id="line2d_41">
    <defs>
     <path d="M 0 8.485281 
L 5.091169 0 
L 0 -8.485281 
L -5.091169 0 
z
" id="m38fcd98cfe" style="stroke:#ff00ff;stroke-linejoin:miter;stroke-width:1.5;"/>
    </defs>
    <g>
     <use style="fill-opacity:0;stroke:#ff00ff;stroke-linejoin:miter;stroke-width:1.5;" x="76.16779" xlink:href="#m38fcd98cfe" y="290.14471"/>
     <use style="fill-opacity:0;stroke:#ff00ff;stroke-linejoin:miter;stroke-width:1.5;" x="141.71841" xlink:href="#m38fcd98cfe" y="251.242587"/>
     <use style="fill-opacity:0;stroke:#ff00ff;stroke-linejoin:miter;stroke-width:1.5;" x="236.35467" xlink:href="#m38fcd98cfe" y="221.139753"/>
     <use style="fill-opacity:0;stroke:#ff00ff;stroke-linejoin:miter;stroke-width:1.5;" x="274.08882" xlink:href="#m38fcd98cfe" y="130.831252"/>
     <use style="fill-opacity:0;stroke:#ff00ff;stroke-linejoin:miter;stroke-width:1.5;" x="294.93464" xlink:href="#m38fcd98cfe" y="84.056079"/>
     <use style="fill-opacity:0;stroke:#ff00ff;stroke-linejoin:miter;stroke-width:1.5;" x="338.688" xlink:href="#m38fcd98cfe" y="84.056079"/>
    </g>
   </g>
   <g id="line2d_42">
    <path style="fill:none;stroke:#ff00ff;stroke-linecap:square;stroke-width:1.5;"/>
    <g/>
   </g>
   <g id="line2d_43">
    <path clip-path="url(#p392d4f7c8c)" d="M 300.928154 84.056079 
" style="fill:none;stroke:#ff00ff;stroke-linecap:square;stroke-width:1.5;"/>
    <defs>
     <path d="M -12 12 
L 12 -12 
M -12 -12 
L 12 12 
" id="mfff86cbaa8" style="stroke:#ff00ff;"/>
    </defs>
    <g clip-path="url(#p392d4f7c8c)">
     <use style="fill:#ff00ff;stroke:#ff00ff;" x="300.928154" xlink:href="#mfff86cbaa8" y="84.056079"/>
    </g>
   </g>
   <g id="line2d_44">
    <defs>
     <path d="M 0 1.5 
C 0.397805 1.5 0.77937 1.341951 1.06066 1.06066 
C 1.341951 0.77937 1.5 0.397805 1.5 0 
C 1.5 -0.397805 1.341951 -0.77937 1.06066 -1.06066 
C 0.77937 -1.341951 0.397805 -1.5 0 -1.5 
C -0.397805 -1.5 -0.77937 -1.341951 -1.06066 -1.06066 
C -1.341951 -0.77937 -1.5 -0.397805 -1.5 0 
C -1.5 0.397805 -1.341951 0.77937 -1.06066 1.06066 
C -0.77937 1.341951 -0.397805 1.5 0 1.5 
z
" id="m3ffe8579fe" style="stroke:#ff7500;"/>
    </defs>
    <g>
     <use style="fill:#ff7500;stroke:#ff7500;" x="261.149216" xlink:href="#m3ffe8579fe" y="100.265297"/>
     <use style="fill:#ff7500;stroke:#ff7500;" x="261.149216" xlink:href="#m3ffe8579fe" y="100.265297"/>
    </g>
   </g>
   <g id="line2d_45">
    <path d="M 5.356583 298.944 
L 5.356583 297.091518 
L 17.444571 297.091518 
L 17.444571 296.628397 
L 33.424023 296.628397 
L 33.424023 296.165277 
L 36.60358 296.165277 
L 36.60358 295.239036 
L 45.512012 295.239036 
L 45.512012 294.775915 
L 51.379845 294.775915 
L 51.379845 294.312795 
L 129.418863 294.312795 
L 129.418863 293.849674 
L 131.287464 293.849674 
L 131.287464 293.386554 
L 133.521885 293.386554 
L 133.521885 292.923433 
L 141.746425 292.923433 
L 141.746425 292.460313 
L 144.812477 292.460313 
L 144.812477 291.997192 
L 149.650973 291.997192 
L 149.650973 291.534072 
L 149.792721 291.534072 
L 149.792721 291.070951 
L 153.163864 291.070951 
L 153.163864 290.607831 
L 153.612568 290.607831 
L 153.612568 290.14471 
L 155.86668 290.14471 
L 155.86668 289.68159 
L 158.2525 289.68159 
L 158.2525 289.218469 
L 158.991653 289.218469 
L 158.991653 288.755349 
L 159.902044 288.755349 
L 160.003056 287.829108 
L 160.057017 287.829108 
L 160.125455 286.902867 
L 160.776661 286.902867 
L 160.872745 285.513505 
L 161.600536 285.513505 
L 161.600536 285.050384 
L 162.981243 285.050384 
L 162.981243 284.587264 
L 163.557683 284.587264 
L 163.557683 284.124143 
L 164.546914 284.124143 
L 164.546914 283.661023 
L 165.96434 283.661023 
L 165.96434 283.197902 
L 166.251684 283.197902 
L 166.316801 282.271661 
L 166.712511 282.271661 
L 166.712511 281.808541 
L 166.827502 281.808541 
L 166.827502 281.34542 
L 167.081444 281.34542 
L 167.081444 280.8823 
L 167.354319 280.8823 
L 167.354319 280.419179 
L 167.559395 280.419179 
L 167.559395 279.956059 
L 168.345748 279.956059 
L 168.345748 279.492938 
L 168.982583 279.492938 
L 168.982583 279.029818 
L 169.78585 279.029818 
L 169.78585 278.566697 
L 170.280634 278.566697 
L 170.280634 278.103577 
L 170.785611 278.103577 
L 170.785611 277.640456 
L 171.981383 277.640456 
L 171.981383 277.177336 
L 172.229292 277.177336 
L 172.229292 276.714215 
L 172.909242 276.714215 
L 172.909242 276.251095 
L 173.260789 276.251095 
L 173.260789 275.787974 
L 173.564801 275.787974 
L 173.564801 275.324854 
L 174.87347 275.324854 
L 174.87347 274.861733 
L 176.393765 274.861733 
L 176.393765 274.398612 
L 176.634902 274.398612 
L 176.634902 273.935492 
L 177.233156 273.935492 
L 177.233156 273.472371 
L 178.525807 273.472371 
L 178.525807 273.009251 
L 179.451975 273.009251 
L 179.472902 272.08301 
L 180.488462 272.08301 
L 180.488462 271.156769 
L 180.673406 271.156769 
L 180.673406 270.693648 
L 180.798355 270.693648 
L 180.798355 270.230528 
L 181.009545 270.230528 
L 181.009545 269.767407 
L 182.581931 269.767407 
L 182.641059 268.841166 
L 183.380445 268.841166 
L 183.380445 267.914925 
L 184.180875 267.914925 
L 184.180875 266.988684 
L 184.671319 266.988684 
L 184.743413 265.599323 
L 185.081411 265.599323 
L 185.081411 265.136202 
L 185.382055 265.136202 
L 185.382055 264.673082 
L 185.614936 264.673082 
L 185.614936 263.746841 
L 186.36009 263.746841 
L 186.455213 262.8206 
L 186.961458 262.8206 
L 186.961458 262.357479 
L 187.53822 262.357479 
L 187.55341 261.431238 
L 187.836043 261.431238 
L 187.837537 260.041876 
L 188.467832 260.041876 
L 188.467832 259.115635 
L 188.615125 259.115635 
L 188.615125 258.189394 
L 189.097924 258.189394 
L 189.097924 257.726274 
L 189.217483 257.726274 
L 189.217483 256.800033 
L 189.406453 256.800033 
L 189.406453 256.336912 
L 189.53251 256.336912 
L 189.53251 255.873792 
L 189.811293 255.873792 
L 189.877862 254.947551 
L 190.394581 254.947551 
L 190.394581 254.02131 
L 190.778625 254.02131 
L 190.778625 253.558189 
L 192.124026 253.558189 
L 192.16409 252.631948 
L 192.523628 252.631948 
L 192.523628 252.168828 
L 192.843423 252.168828 
L 192.843423 251.705707 
L 193.033336 251.705707 
L 193.088324 250.316346 
L 193.259556 250.316346 
L 193.259556 249.853225 
L 193.877864 249.853225 
L 193.877864 249.390104 
L 194.836041 249.390104 
L 194.836041 248.926984 
L 195.058614 248.926984 
L 195.058614 248.463863 
L 195.284556 248.463863 
L 195.284556 248.000743 
L 195.594951 248.000743 
L 195.594951 247.537622 
L 196.125502 247.537622 
L 196.125502 247.074502 
L 197.659035 247.074502 
L 197.659035 246.611381 
L 197.95031 246.611381 
L 198.044851 245.22202 
L 198.229119 245.22202 
L 198.229119 244.758899 
L 198.802675 244.758899 
L 198.906977 241.980176 
L 199.322954 241.980176 
L 199.322954 241.517056 
L 199.548789 241.517056 
L 199.548789 241.053935 
L 199.766714 241.053935 
L 199.766714 240.590815 
L 200.217588 240.590815 
L 200.217588 239.664574 
L 201.423075 239.664574 
L 201.423075 239.201453 
L 201.839375 239.201453 
L 201.839375 238.275212 
L 202.576703 238.275212 
L 202.576703 237.348971 
L 202.916809 237.348971 
L 202.916809 236.88585 
L 203.541565 236.88585 
L 203.59833 235.033368 
L 204.319745 235.033368 
L 204.319745 234.570248 
L 204.742241 234.570248 
L 204.742241 233.644007 
L 205.502652 233.644007 
L 205.523253 231.791525 
L 206.224696 231.791525 
L 206.298099 229.475922 
L 206.679829 229.475922 
L 206.679829 228.549681 
L 207.766195 228.549681 
L 207.768736 227.16032 
L 208.562883 227.16032 
L 208.562883 226.697199 
L 210.447506 226.697199 
L 210.447506 226.234079 
L 210.584369 226.234079 
L 210.584369 225.770958 
L 211.198065 225.770958 
L 211.198065 224.844717 
L 211.423952 224.844717 
L 211.423952 224.381596 
L 212.170646 224.381596 
L 212.170646 223.455355 
L 212.340918 223.455355 
L 212.340918 222.529114 
L 212.886322 222.529114 
L 212.886322 221.602873 
L 213.829714 221.602873 
L 213.829714 220.676632 
L 214.635905 220.676632 
L 214.635905 219.750391 
L 214.849227 219.750391 
L 214.849227 219.287271 
L 215.118722 219.287271 
L 215.227042 216.971668 
L 216.94441 216.971668 
L 216.94441 216.045427 
L 217.289063 216.045427 
L 217.289063 215.119186 
L 217.694752 215.119186 
L 217.704455 213.266704 
L 218.238884 213.266704 
L 218.310862 205.393655 
L 218.35505 205.393655 
L 218.464343 201.225571 
L 218.486772 201.225571 
L 218.573554 198.446847 
L 218.622195 198.446847 
L 218.732965 195.205004 
L 218.760464 195.205004 
L 218.868093 191.50004 
L 218.911899 191.50004 
L 219.022016 187.795075 
L 219.095402 187.795075 
L 219.125316 186.405714 
L 219.211127 186.405714 
L 219.281262 184.090111 
L 219.365657 184.090111 
L 219.475714 183.16387 
L 219.517455 183.16387 
L 219.54334 182.237629 
L 219.688475 182.237629 
L 219.782652 181.311388 
L 219.910153 181.311388 
L 219.989203 179.922027 
L 220.043956 179.922027 
L 220.137487 178.532665 
L 220.218549 178.532665 
L 220.314322 176.217062 
L 220.373693 176.217062 
L 220.424488 173.90146 
L 220.531441 173.90146 
L 220.588175 172.975219 
L 220.670204 172.975219 
L 220.732305 170.659616 
L 220.828459 170.659616 
L 220.859744 168.807134 
L 221.045317 168.807134 
L 221.094121 167.417773 
L 221.169908 167.417773 
L 221.247933 166.028411 
L 221.378294 166.028411 
L 221.487093 165.10217 
L 221.744976 165.10217 
L 221.831751 163.712808 
L 222.264658 163.712808 
L 222.264658 163.249688 
L 222.38986 163.249688 
L 222.49821 161.397206 
L 222.611654 161.397206 
L 222.627578 160.470965 
L 222.737898 160.470965 
L 222.737898 159.544724 
L 222.989071 159.544724 
L 223.020157 158.155362 
L 223.23321 158.155362 
L 223.23321 157.692242 
L 223.345953 157.692242 
L 223.351152 156.766001 
L 223.489328 156.766001 
L 223.544487 154.913519 
L 223.678532 154.913519 
L 223.678532 154.450398 
L 223.917549 154.450398 
L 223.96742 153.524157 
L 224.05582 153.524157 
L 224.05582 152.597916 
L 224.282058 152.597916 
L 224.282058 151.671675 
L 224.417847 151.671675 
L 224.502053 150.745434 
L 224.813429 150.745434 
L 224.813429 150.282313 
L 225.003354 150.282313 
L 225.003354 149.819193 
L 225.165195 149.819193 
L 225.165195 149.356072 
L 225.299127 149.356072 
L 225.299127 148.892952 
L 225.474144 148.892952 
L 225.579735 147.50359 
L 225.756558 147.50359 
L 225.808162 146.114229 
L 226.112458 146.114229 
L 226.112458 145.651108 
L 226.47162 145.651108 
L 226.559415 144.261747 
L 226.77496 144.261747 
L 226.77496 143.798626 
L 227.091632 143.798626 
L 227.091632 143.335506 
L 227.855044 143.335506 
L 227.855044 142.872385 
L 227.970495 142.872385 
L 228.068784 141.946144 
L 228.145014 141.946144 
L 228.145014 141.483024 
L 228.510905 141.483024 
L 228.510905 140.556783 
L 228.972907 140.556783 
L 228.972907 140.093662 
L 229.342845 140.093662 
L 229.438024 139.167421 
L 229.565568 139.167421 
L 229.565568 138.24118 
L 229.72116 138.24118 
L 229.72116 137.314939 
L 230.69117 137.314939 
L 230.789044 135.925577 
L 231.216409 135.925577 
L 231.216409 134.999336 
L 231.932283 134.999336 
L 231.932283 134.073095 
L 232.48829 134.073095 
L 232.536322 132.683734 
L 233.180002 132.683734 
L 233.180002 131.757493 
L 233.480792 131.757493 
L 233.480792 130.831252 
L 233.966253 130.831252 
L 233.966253 130.368131 
L 234.424246 130.368131 
L 234.424246 129.44189 
L 234.682856 129.44189 
L 234.682856 128.515649 
L 235.254804 128.515649 
L 235.319334 127.126287 
L 235.692968 127.126287 
L 235.692968 126.663167 
L 236.178409 126.663167 
L 236.178409 126.200046 
L 236.4366 126.200046 
L 236.4366 125.273805 
L 236.93902 125.273805 
L 236.93902 124.810685 
L 237.546967 124.810685 
L 237.586939 123.884444 
L 238.21317 123.884444 
L 238.21317 123.421323 
L 238.502495 123.421323 
L 238.502495 122.958203 
L 238.71148 122.958203 
L 238.75747 121.568841 
L 239.355095 121.568841 
L 239.355095 121.105721 
L 239.823782 121.105721 
L 239.823782 120.6426 
L 240.109959 120.6426 
L 240.109959 120.17948 
L 240.944476 120.17948 
L 240.944476 119.716359 
L 241.10619 119.716359 
L 241.168872 118.790118 
L 241.937689 118.790118 
L 241.937689 118.326998 
L 242.41033 118.326998 
L 242.41033 117.863877 
L 243.602386 117.863877 
L 243.672979 116.011395 
L 245.533067 116.011395 
L 245.533067 115.085154 
L 246.340159 115.085154 
L 246.340159 114.622033 
L 247.237754 114.622033 
L 247.237754 113.695792 
L 247.689784 113.695792 
L 247.689784 112.769551 
L 248.015417 112.769551 
L 248.015417 111.84331 
L 249.103128 111.84331 
L 249.103128 110.917069 
L 249.454158 110.917069 
L 249.454158 109.990828 
L 251.523912 109.990828 
L 251.523912 109.064587 
L 252.031988 109.064587 
L 252.031988 108.138346 
L 252.51404 108.138346 
L 252.51404 107.675226 
L 253.623738 107.675226 
L 253.623738 106.748985 
L 253.96257 106.748985 
L 253.96257 105.822744 
L 254.618258 105.822744 
L 254.618258 105.359623 
L 254.931341 105.359623 
L 255.0128 103.507141 
L 256.720441 103.507141 
L 256.720441 103.04402 
L 257.061018 103.04402 
L 257.061018 102.5809 
L 258.057197 102.5809 
L 258.10988 101.191538 
L 259.470416 101.191538 
L 259.470416 100.728418 
L 261.149216 100.728418 
L 261.149216 100.265297 
L 338.688 100.265297 
L 338.688 100.265297 
" style="fill:none;stroke:#ff7500;stroke-linecap:square;stroke-width:1.5;"/>
   </g>
   <g id="line2d_46">
    <defs>
     <path d="M 0 -6 
L -1.347084 -1.854102 
L -5.706339 -1.854102 
L -2.179628 0.708204 
L -3.526712 4.854102 
L -0 2.291796 
L 3.526712 4.854102 
L 2.179628 0.708204 
L 5.706339 -1.854102 
L 1.347084 -1.854102 
z
" id="mef15774cc8" style="stroke:#ff7500;stroke-linejoin:bevel;stroke-width:1.5;"/>
    </defs>
    <g>
     <use style="fill-opacity:0;stroke:#ff7500;stroke-linejoin:bevel;stroke-width:1.5;" x="129.418863" xlink:href="#mef15774cc8" y="294.312795"/>
     <use style="fill-opacity:0;stroke:#ff7500;stroke-linejoin:bevel;stroke-width:1.5;" x="207.768736" xlink:href="#mef15774cc8" y="227.16032"/>
     <use style="fill-opacity:0;stroke:#ff7500;stroke-linejoin:bevel;stroke-width:1.5;" x="239.355095" xlink:href="#mef15774cc8" y="121.105721"/>
     <use style="fill-opacity:0;stroke:#ff7500;stroke-linejoin:bevel;stroke-width:1.5;" x="261.149216" xlink:href="#mef15774cc8" y="100.265297"/>
     <use style="fill-opacity:0;stroke:#ff7500;stroke-linejoin:bevel;stroke-width:1.5;" x="261.149216" xlink:href="#mef15774cc8" y="100.265297"/>
     <use style="fill-opacity:0;stroke:#ff7500;stroke-linejoin:bevel;stroke-width:1.5;" x="338.688" xlink:href="#mef15774cc8" y="100.265297"/>
    </g>
   </g>
   <g id="line2d_47">
    <path style="fill:none;stroke:#ff7500;stroke-linecap:square;stroke-width:1.5;"/>
    <g/>
   </g>
   <g id="line2d_48">
    <path clip-path="url(#p392d4f7c8c)" d="M 298.532571 100.265297 
" style="fill:none;stroke:#ff7500;stroke-linecap:square;stroke-width:1.5;"/>
    <defs>
     <path d="M -12 12 
L 12 -12 
M -12 -12 
L 12 12 
" id="mb17fdb21c0" style="stroke:#ff7500;"/>
    </defs>
    <g clip-path="url(#p392d4f7c8c)">
     <use style="fill:#ff7500;stroke:#ff7500;" x="298.532571" xlink:href="#mb17fdb21c0" y="100.265297"/>
    </g>
   </g>
   <g id="line2d_49">
    <path d="M 338.688 207.246137 
L 369.60768 293.571802 
" style="fill:none;stroke:#000080;stroke-linecap:square;stroke-width:1.5;"/>
    <g>
     <use style="fill-opacity:0;stroke:#000080;stroke-width:1.5;" x="338.688" xlink:href="#mdb81b3d4a6" y="207.246137"/>
     <use style="fill-opacity:0;stroke:#000080;stroke-width:1.5;" x="369.60768" xlink:href="#mdb81b3d4a6" y="293.571802"/>
    </g>
   </g>
   <g id="line2d_50">
    <path d="M 338.688 100.265297 
L 369.60768 207.616634 
" style="fill:none;stroke:#ff7500;stroke-linecap:square;stroke-width:1.5;"/>
    <g>
     <use style="fill-opacity:0;stroke:#ff7500;stroke-linejoin:bevel;stroke-width:1.5;" x="338.688" xlink:href="#mef15774cc8" y="100.265297"/>
     <use style="fill-opacity:0;stroke:#ff7500;stroke-linejoin:bevel;stroke-width:1.5;" x="369.60768" xlink:href="#mef15774cc8" y="207.616634"/>
    </g>
   </g>
   <g id="line2d_51">
    <path d="M 338.688 84.056079 
L 369.60768 121.661465 
" style="fill:none;stroke:#ff00ff;stroke-linecap:square;stroke-width:1.5;"/>
    <g>
     <use style="fill-opacity:0;stroke:#ff00ff;stroke-linejoin:miter;stroke-width:1.5;" x="338.688" xlink:href="#m38fcd98cfe" y="84.056079"/>
     <use style="fill-opacity:0;stroke:#ff00ff;stroke-linejoin:miter;stroke-width:1.5;" x="369.60768" xlink:href="#m38fcd98cfe" y="121.661465"/>
    </g>
   </g>
   <g id="line2d_52">
    <path d="M 338.688 298.944 
L 338.688 30.334099 
" style="fill:none;stroke:#000000;stroke-linecap:square;stroke-width:1.5;"/>
   </g>
   <g id="patch_3">
    <path d="M 57.6 298.944 
L 57.6 27.648 
" style="fill:none;stroke:#000000;stroke-linecap:square;stroke-linejoin:miter;stroke-width:0.8;"/>
   </g>
   <g id="patch_4">
    <path d="M 338.688 298.944 
L 338.688 27.648 
" style="fill:none;stroke:#000000;stroke-linecap:square;stroke-linejoin:miter;stroke-width:0.8;"/>
   </g>
   <g id="patch_5">
    <path d="M 57.6 298.944 
L 338.688 298.944 
" style="fill:none;stroke:#000000;stroke-linecap:square;stroke-linejoin:miter;stroke-width:0.8;"/>
   </g>
   <g id="patch_6">
    <path d="M 57.6 27.648 
L 338.688 27.648 
" style="fill:none;stroke:#000000;stroke-linecap:square;stroke-linejoin:miter;stroke-width:0.8;"/>
   </g>
   <g id="text_13">
    <!-- 0.1tfr-0. -->
    <g transform="translate(375.22944 298.262739)scale(0.17 -0.17)">
     <use xlink:href="#DejaVuSans-48"/>
     <use x="63.623047" xlink:href="#DejaVuSans-46"/>
     <use x="95.410156" xlink:href="#DejaVuSans-49"/>
     <use x="159.033203" xlink:href="#DejaVuSans-116"/>
     <use x="198.242188" xlink:href="#DejaVuSans-102"/>
     <use x="233.447266" xlink:href="#DejaVuSans-114"/>
     <use x="274.466797" xlink:href="#DejaVuSans-45"/>
     <use x="310.550781" xlink:href="#DejaVuSans-48"/>
     <use x="374.173828" xlink:href="#DejaVuSans-46"/>
    </g>
   </g>
   <g id="text_14">
    <!-- UP-MO-CMA -->
    <defs>
     <path d="M 8.6875 72.90625 
L 18.609375 72.90625 
L 18.609375 28.609375 
Q 18.609375 16.890625 22.84375 11.734375 
Q 27.09375 6.59375 36.625 6.59375 
Q 46.09375 6.59375 50.34375 11.734375 
Q 54.59375 16.890625 54.59375 28.609375 
L 54.59375 72.90625 
L 64.5 72.90625 
L 64.5 27.390625 
Q 64.5 13.140625 57.4375 5.859375 
Q 50.390625 -1.421875 36.625 -1.421875 
Q 22.796875 -1.421875 15.734375 5.859375 
Q 8.6875 13.140625 8.6875 27.390625 
z
" id="DejaVuSans-85"/>
     <path d="M 19.671875 64.796875 
L 19.671875 37.40625 
L 32.078125 37.40625 
Q 38.96875 37.40625 42.71875 40.96875 
Q 46.484375 44.53125 46.484375 51.125 
Q 46.484375 57.671875 42.71875 61.234375 
Q 38.96875 64.796875 32.078125 64.796875 
z
M 9.8125 72.90625 
L 32.078125 72.90625 
Q 44.34375 72.90625 50.609375 67.359375 
Q 56.890625 61.8125 56.890625 51.125 
Q 56.890625 40.328125 50.609375 34.8125 
Q 44.34375 29.296875 32.078125 29.296875 
L 19.671875 29.296875 
L 19.671875 0 
L 9.8125 0 
z
" id="DejaVuSans-80"/>
     <path d="M 9.8125 72.90625 
L 24.515625 72.90625 
L 43.109375 23.296875 
L 61.8125 72.90625 
L 76.515625 72.90625 
L 76.515625 0 
L 66.890625 0 
L 66.890625 64.015625 
L 48.09375 14.015625 
L 38.1875 14.015625 
L 19.390625 64.015625 
L 19.390625 0 
L 9.8125 0 
z
" id="DejaVuSans-77"/>
     <path d="M 39.40625 66.21875 
Q 28.65625 66.21875 22.328125 58.203125 
Q 16.015625 50.203125 16.015625 36.375 
Q 16.015625 22.609375 22.328125 14.59375 
Q 28.65625 6.59375 39.40625 6.59375 
Q 50.140625 6.59375 56.421875 14.59375 
Q 62.703125 22.609375 62.703125 36.375 
Q 62.703125 50.203125 56.421875 58.203125 
Q 50.140625 66.21875 39.40625 66.21875 
z
M 39.40625 74.21875 
Q 54.734375 74.21875 63.90625 63.9375 
Q 73.09375 53.65625 73.09375 36.375 
Q 73.09375 19.140625 63.90625 8.859375 
Q 54.734375 -1.421875 39.40625 -1.421875 
Q 24.03125 -1.421875 14.8125 8.828125 
Q 5.609375 19.09375 5.609375 36.375 
Q 5.609375 53.65625 14.8125 63.9375 
Q 24.03125 74.21875 39.40625 74.21875 
z
" id="DejaVuSans-79"/>
     <path d="M 64.40625 67.28125 
L 64.40625 56.890625 
Q 59.421875 61.53125 53.78125 63.8125 
Q 48.140625 66.109375 41.796875 66.109375 
Q 29.296875 66.109375 22.65625 58.46875 
Q 16.015625 50.828125 16.015625 36.375 
Q 16.015625 21.96875 22.65625 14.328125 
Q 29.296875 6.6875 41.796875 6.6875 
Q 48.140625 6.6875 53.78125 8.984375 
Q 59.421875 11.28125 64.40625 15.921875 
L 64.40625 5.609375 
Q 59.234375 2.09375 53.4375 0.328125 
Q 47.65625 -1.421875 41.21875 -1.421875 
Q 24.65625 -1.421875 15.125 8.703125 
Q 5.609375 18.84375 5.609375 36.375 
Q 5.609375 53.953125 15.125 64.078125 
Q 24.65625 74.21875 41.21875 74.21875 
Q 47.75 74.21875 53.53125 72.484375 
Q 59.328125 70.75 64.40625 67.28125 
z
" id="DejaVuSans-67"/>
     <path d="M 34.1875 63.1875 
L 20.796875 26.90625 
L 47.609375 26.90625 
z
M 28.609375 72.90625 
L 39.796875 72.90625 
L 67.578125 0 
L 57.328125 0 
L 50.6875 18.703125 
L 17.828125 18.703125 
L 11.1875 0 
L 0.78125 0 
z
" id="DejaVuSans-65"/>
    </defs>
    <g transform="translate(375.22944 212.307571)scale(0.17 -0.17)">
     <use xlink:href="#DejaVuSans-85"/>
     <use x="73.193359" xlink:href="#DejaVuSans-80"/>
     <use x="133.464844" xlink:href="#DejaVuSans-45"/>
     <use x="169.548828" xlink:href="#DejaVuSans-77"/>
     <use x="255.828125" xlink:href="#DejaVuSans-79"/>
     <use x="334.570312" xlink:href="#DejaVuSans-45"/>
     <use x="370.654297" xlink:href="#DejaVuSans-67"/>
     <use x="440.478516" xlink:href="#DejaVuSans-77"/>
     <use x="526.757812" xlink:href="#DejaVuSans-65"/>
    </g>
   </g>
   <g id="text_15">
    <!-- HMO-CMA-E -->
    <defs>
     <path d="M 9.8125 72.90625 
L 19.671875 72.90625 
L 19.671875 43.015625 
L 55.515625 43.015625 
L 55.515625 72.90625 
L 65.375 72.90625 
L 65.375 0 
L 55.515625 0 
L 55.515625 34.71875 
L 19.671875 34.71875 
L 19.671875 0 
L 9.8125 0 
z
" id="DejaVuSans-72"/>
     <path d="M 9.8125 72.90625 
L 55.90625 72.90625 
L 55.90625 64.59375 
L 19.671875 64.59375 
L 19.671875 43.015625 
L 54.390625 43.015625 
L 54.390625 34.71875 
L 19.671875 34.71875 
L 19.671875 8.296875 
L 56.78125 8.296875 
L 56.78125 0 
L 9.8125 0 
z
" id="DejaVuSans-69"/>
    </defs>
    <g transform="translate(375.22944 126.352403)scale(0.17 -0.17)">
     <use xlink:href="#DejaVuSans-72"/>
     <use x="75.195312" xlink:href="#DejaVuSans-77"/>
     <use x="161.474609" xlink:href="#DejaVuSans-79"/>
     <use x="240.216797" xlink:href="#DejaVuSans-45"/>
     <use x="276.300781" xlink:href="#DejaVuSans-67"/>
     <use x="346.125" xlink:href="#DejaVuSans-77"/>
     <use x="432.404297" xlink:href="#DejaVuSans-65"/>
     <use x="500.78125" xlink:href="#DejaVuSans-45"/>
     <use x="536.865234" xlink:href="#DejaVuSans-69"/>
    </g>
   </g>
   <g id="text_16">
    <!-- best 2016 -->
    <defs>
     <path d="M 48.6875 27.296875 
Q 48.6875 37.203125 44.609375 42.84375 
Q 40.53125 48.484375 33.40625 48.484375 
Q 26.265625 48.484375 22.1875 42.84375 
Q 18.109375 37.203125 18.109375 27.296875 
Q 18.109375 17.390625 22.1875 11.75 
Q 26.265625 6.109375 33.40625 6.109375 
Q 40.53125 6.109375 44.609375 11.75 
Q 48.6875 17.390625 48.6875 27.296875 
z
M 18.109375 46.390625 
Q 20.953125 51.265625 25.265625 53.625 
Q 29.59375 56 35.59375 56 
Q 45.5625 56 51.78125 48.09375 
Q 58.015625 40.1875 58.015625 27.296875 
Q 58.015625 14.40625 51.78125 6.484375 
Q 45.5625 -1.421875 35.59375 -1.421875 
Q 29.59375 -1.421875 25.265625 0.953125 
Q 20.953125 3.328125 18.109375 8.203125 
L 18.109375 0 
L 9.078125 0 
L 9.078125 75.984375 
L 18.109375 75.984375 
z
" id="DejaVuSans-98"/>
    </defs>
    <g transform="translate(375.22944 40.397235)scale(0.17 -0.17)">
     <use xlink:href="#DejaVuSans-98"/>
     <use x="63.476562" xlink:href="#DejaVuSans-101"/>
     <use x="125" xlink:href="#DejaVuSans-115"/>
     <use x="177.099609" xlink:href="#DejaVuSans-116"/>
     <use x="216.308594" xlink:href="#DejaVuSans-32"/>
     <use x="248.095703" xlink:href="#DejaVuSans-50"/>
     <use x="311.71875" xlink:href="#DejaVuSans-48"/>
     <use x="375.341797" xlink:href="#DejaVuSans-49"/>
     <use x="438.964844" xlink:href="#DejaVuSans-54"/>
    </g>
   </g>
   <g id="text_17">
    <!-- bbob-biobj f45, 20-D -->
    <defs>
     <path d="M 9.421875 54.6875 
L 18.40625 54.6875 
L 18.40625 -0.984375 
Q 18.40625 -11.421875 14.421875 -16.109375 
Q 10.453125 -20.796875 1.609375 -20.796875 
L -1.8125 -20.796875 
L -1.8125 -13.1875 
L 0.59375 -13.1875 
Q 5.71875 -13.1875 7.5625 -10.8125 
Q 9.421875 -8.453125 9.421875 -0.984375 
z
M 9.421875 75.984375 
L 18.40625 75.984375 
L 18.40625 64.59375 
L 9.421875 64.59375 
z
" id="DejaVuSans-106"/>
     <path d="M 10.796875 72.90625 
L 49.515625 72.90625 
L 49.515625 64.59375 
L 19.828125 64.59375 
L 19.828125 46.734375 
Q 21.96875 47.46875 24.109375 47.828125 
Q 26.265625 48.1875 28.421875 48.1875 
Q 40.625 48.1875 47.75 41.5 
Q 54.890625 34.8125 54.890625 23.390625 
Q 54.890625 11.625 47.5625 5.09375 
Q 40.234375 -1.421875 26.90625 -1.421875 
Q 22.3125 -1.421875 17.546875 -0.640625 
Q 12.796875 0.140625 7.71875 1.703125 
L 7.71875 11.625 
Q 12.109375 9.234375 16.796875 8.0625 
Q 21.484375 6.890625 26.703125 6.890625 
Q 35.15625 6.890625 40.078125 11.328125 
Q 45.015625 15.765625 45.015625 23.390625 
Q 45.015625 31 40.078125 35.4375 
Q 35.15625 39.890625 26.703125 39.890625 
Q 22.75 39.890625 18.8125 39.015625 
Q 14.890625 38.140625 10.796875 36.28125 
z
" id="DejaVuSans-53"/>
     <path d="M 19.671875 64.796875 
L 19.671875 8.109375 
L 31.59375 8.109375 
Q 46.6875 8.109375 53.6875 14.9375 
Q 60.6875 21.78125 60.6875 36.53125 
Q 60.6875 51.171875 53.6875 57.984375 
Q 46.6875 64.796875 31.59375 64.796875 
z
M 9.8125 72.90625 
L 30.078125 72.90625 
Q 51.265625 72.90625 61.171875 64.09375 
Q 71.09375 55.28125 71.09375 36.53125 
Q 71.09375 17.671875 61.125 8.828125 
Q 51.171875 0 30.078125 0 
L 9.8125 0 
z
" id="DejaVuSans-68"/>
    </defs>
    <g transform="translate(60.41088 38.111366)scale(0.102 -0.102)">
     <use xlink:href="#DejaVuSans-98"/>
     <use x="63.476562" xlink:href="#DejaVuSans-98"/>
     <use x="126.953125" xlink:href="#DejaVuSans-111"/>
     <use x="188.134766" xlink:href="#DejaVuSans-98"/>
     <use x="251.611328" xlink:href="#DejaVuSans-45"/>
     <use x="287.695312" xlink:href="#DejaVuSans-98"/>
     <use x="351.171875" xlink:href="#DejaVuSans-105"/>
     <use x="378.955078" xlink:href="#DejaVuSans-111"/>
     <use x="440.136719" xlink:href="#DejaVuSans-98"/>
     <use x="503.613281" xlink:href="#DejaVuSans-106"/>
     <use x="531.396484" xlink:href="#DejaVuSans-32"/>
     <use x="563.183594" xlink:href="#DejaVuSans-102"/>
     <use x="598.388672" xlink:href="#DejaVuSans-52"/>
     <use x="662.011719" xlink:href="#DejaVuSans-53"/>
     <use x="725.634766" xlink:href="#DejaVuSans-44"/>
     <use x="757.421875" xlink:href="#DejaVuSans-32"/>
     <use x="789.208984" xlink:href="#DejaVuSans-50"/>
     <use x="852.832031" xlink:href="#DejaVuSans-48"/>
     <use x="916.455078" xlink:href="#DejaVuSans-45"/>
     <use x="952.539062" xlink:href="#DejaVuSans-68"/>
    </g>
    <!-- 58 targets: 1..-1.0e-4 -->
    <defs>
     <path d="M 11.71875 12.40625 
L 22.015625 12.40625 
L 22.015625 0 
L 11.71875 0 
z
M 11.71875 51.703125 
L 22.015625 51.703125 
L 22.015625 39.3125 
L 11.71875 39.3125 
z
" id="DejaVuSans-58"/>
    </defs>
    <g transform="translate(60.41088 49.533135)scale(0.102 -0.102)">
     <use xlink:href="#DejaVuSans-53"/>
     <use x="63.623047" xlink:href="#DejaVuSans-56"/>
     <use x="127.246094" xlink:href="#DejaVuSans-32"/>
     <use x="159.033203" xlink:href="#DejaVuSans-116"/>
     <use x="198.242188" xlink:href="#DejaVuSans-97"/>
     <use x="259.521484" xlink:href="#DejaVuSans-114"/>
     <use x="300.619141" xlink:href="#DejaVuSans-103"/>
     <use x="364.095703" xlink:href="#DejaVuSans-101"/>
     <use x="425.619141" xlink:href="#DejaVuSans-116"/>
     <use x="464.828125" xlink:href="#DejaVuSans-115"/>
     <use x="516.927734" xlink:href="#DejaVuSans-58"/>
     <use x="550.619141" xlink:href="#DejaVuSans-32"/>
     <use x="582.40625" xlink:href="#DejaVuSans-49"/>
     <use x="646.029297" xlink:href="#DejaVuSans-46"/>
     <use x="677.816406" xlink:href="#DejaVuSans-46"/>
     <use x="709.603516" xlink:href="#DejaVuSans-45"/>
     <use x="745.6875" xlink:href="#DejaVuSans-49"/>
     <use x="809.310547" xlink:href="#DejaVuSans-46"/>
     <use x="841.097656" xlink:href="#DejaVuSans-48"/>
     <use x="904.720703" xlink:href="#DejaVuSans-101"/>
     <use x="966.244141" xlink:href="#DejaVuSans-45"/>
     <use x="1002.328125" xlink:href="#DejaVuSans-52"/>
    </g>
    <!-- 10, 5 instances -->
    <g transform="translate(60.41088 60.954904)scale(0.102 -0.102)">
     <use xlink:href="#DejaVuSans-49"/>
     <use x="63.623047" xlink:href="#DejaVuSans-48"/>
     <use x="127.246094" xlink:href="#DejaVuSans-44"/>
     <use x="159.033203" xlink:href="#DejaVuSans-32"/>
     <use x="190.820312" xlink:href="#DejaVuSans-53"/>
     <use x="254.443359" xlink:href="#DejaVuSans-32"/>
     <use x="286.230469" xlink:href="#DejaVuSans-105"/>
     <use x="314.013672" xlink:href="#DejaVuSans-110"/>
     <use x="377.392578" xlink:href="#DejaVuSans-115"/>
     <use x="429.492188" xlink:href="#DejaVuSans-116"/>
     <use x="468.701172" xlink:href="#DejaVuSans-97"/>
     <use x="529.980469" xlink:href="#DejaVuSans-110"/>
     <use x="593.359375" xlink:href="#DejaVuSans-99"/>
     <use x="648.339844" xlink:href="#DejaVuSans-101"/>
     <use x="709.863281" xlink:href="#DejaVuSans-115"/>
    </g>
   </g>
   <g id="text_18">
    <!-- v2.3.3.43 -->
    <defs>
     <path d="M 40.578125 39.3125 
Q 47.65625 37.796875 51.625 33 
Q 55.609375 28.21875 55.609375 21.1875 
Q 55.609375 10.40625 48.1875 4.484375 
Q 40.765625 -1.421875 27.09375 -1.421875 
Q 22.515625 -1.421875 17.65625 -0.515625 
Q 12.796875 0.390625 7.625 2.203125 
L 7.625 11.71875 
Q 11.71875 9.328125 16.59375 8.109375 
Q 21.484375 6.890625 26.8125 6.890625 
Q 36.078125 6.890625 40.9375 10.546875 
Q 45.796875 14.203125 45.796875 21.1875 
Q 45.796875 27.640625 41.28125 31.265625 
Q 36.765625 34.90625 28.71875 34.90625 
L 20.21875 34.90625 
L 20.21875 43.015625 
L 29.109375 43.015625 
Q 36.375 43.015625 40.234375 45.921875 
Q 44.09375 48.828125 44.09375 54.296875 
Q 44.09375 59.90625 40.109375 62.90625 
Q 36.140625 65.921875 28.71875 65.921875 
Q 24.65625 65.921875 20.015625 65.03125 
Q 15.375 64.15625 9.8125 62.3125 
L 9.8125 71.09375 
Q 15.4375 72.65625 20.34375 73.4375 
Q 25.25 74.21875 29.59375 74.21875 
Q 40.828125 74.21875 47.359375 69.109375 
Q 53.90625 64.015625 53.90625 55.328125 
Q 53.90625 49.265625 50.4375 45.09375 
Q 46.96875 40.921875 40.578125 39.3125 
z
" id="DejaVuSans-51"/>
    </defs>
    <g style="fill:#808080;" transform="translate(174.511187 294.151352)scale(0.1 -0.1)">
     <use xlink:href="#DejaVuSans-118"/>
     <use x="59.179688" xlink:href="#DejaVuSans-50"/>
     <use x="122.802734" xlink:href="#DejaVuSans-46"/>
     <use x="154.589844" xlink:href="#DejaVuSans-51"/>
     <use x="218.212891" xlink:href="#DejaVuSans-46"/>
     <use x="250" xlink:href="#DejaVuSans-51"/>
     <use x="313.623047" xlink:href="#DejaVuSans-46"/>
     <use x="345.410156" xlink:href="#DejaVuSans-52"/>
     <use x="409.033203" xlink:href="#DejaVuSans-51"/>
    </g>
   </g>
   <g id="text_19">
    <!-- 45 Diff. Powers/Gallagher 101 -->
    <defs>
     <path d="M 4.203125 54.6875 
L 13.1875 54.6875 
L 24.421875 12.015625 
L 35.59375 54.6875 
L 46.1875 54.6875 
L 57.421875 12.015625 
L 68.609375 54.6875 
L 77.59375 54.6875 
L 63.28125 0 
L 52.6875 0 
L 40.921875 44.828125 
L 29.109375 0 
L 18.5 0 
z
" id="DejaVuSans-119"/>
     <path d="M 59.515625 10.40625 
L 59.515625 29.984375 
L 43.40625 29.984375 
L 43.40625 38.09375 
L 69.28125 38.09375 
L 69.28125 6.78125 
Q 63.578125 2.734375 56.6875 0.65625 
Q 49.8125 -1.421875 42 -1.421875 
Q 24.90625 -1.421875 15.25 8.5625 
Q 5.609375 18.5625 5.609375 36.375 
Q 5.609375 54.25 15.25 64.234375 
Q 24.90625 74.21875 42 74.21875 
Q 49.125 74.21875 55.546875 72.453125 
Q 61.96875 70.703125 67.390625 67.28125 
L 67.390625 56.78125 
Q 61.921875 61.421875 55.765625 63.765625 
Q 49.609375 66.109375 42.828125 66.109375 
Q 29.4375 66.109375 22.71875 58.640625 
Q 16.015625 51.171875 16.015625 36.375 
Q 16.015625 21.625 22.71875 14.15625 
Q 29.4375 6.6875 42.828125 6.6875 
Q 48.046875 6.6875 52.140625 7.59375 
Q 56.25 8.5 59.515625 10.40625 
z
" id="DejaVuSans-71"/>
     <path d="M 54.890625 33.015625 
L 54.890625 0 
L 45.90625 0 
L 45.90625 32.71875 
Q 45.90625 40.484375 42.875 44.328125 
Q 39.84375 48.1875 33.796875 48.1875 
Q 26.515625 48.1875 22.3125 43.546875 
Q 18.109375 38.921875 18.109375 30.90625 
L 18.109375 0 
L 9.078125 0 
L 9.078125 75.984375 
L 18.109375 75.984375 
L 18.109375 46.1875 
Q 21.34375 51.125 25.703125 53.5625 
Q 30.078125 56 35.796875 56 
Q 45.21875 56 50.046875 50.171875 
Q 54.890625 44.34375 54.890625 33.015625 
z
" id="DejaVuSans-104"/>
    </defs>
    <g transform="translate(48.436187 21.648)scale(0.2 -0.2)">
     <use xlink:href="#DejaVuSans-52"/>
     <use x="63.623047" xlink:href="#DejaVuSans-53"/>
     <use x="127.246094" xlink:href="#DejaVuSans-32"/>
     <use x="159.033203" xlink:href="#DejaVuSans-68"/>
     <use x="236.035156" xlink:href="#DejaVuSans-105"/>
     <use x="263.818359" xlink:href="#DejaVuSans-102"/>
     <use x="299.023438" xlink:href="#DejaVuSans-102"/>
     <use x="334.119141" xlink:href="#DejaVuSans-46"/>
     <use x="365.90625" xlink:href="#DejaVuSans-32"/>
     <use x="397.693359" xlink:href="#DejaVuSans-80"/>
     <use x="457.949219" xlink:href="#DejaVuSans-111"/>
     <use x="519.130859" xlink:href="#DejaVuSans-119"/>
     <use x="600.917969" xlink:href="#DejaVuSans-101"/>
     <use x="662.441406" xlink:href="#DejaVuSans-114"/>
     <use x="703.554688" xlink:href="#DejaVuSans-115"/>
     <use x="755.654297" xlink:href="#DejaVuSans-47"/>
     <use x="789.345703" xlink:href="#DejaVuSans-71"/>
     <use x="866.835938" xlink:href="#DejaVuSans-97"/>
     <use x="928.115234" xlink:href="#DejaVuSans-108"/>
     <use x="955.898438" xlink:href="#DejaVuSans-108"/>
     <use x="983.681641" xlink:href="#DejaVuSans-97"/>
     <use x="1044.960938" xlink:href="#DejaVuSans-103"/>
     <use x="1108.4375" xlink:href="#DejaVuSans-104"/>
     <use x="1171.816406" xlink:href="#DejaVuSans-101"/>
     <use x="1233.339844" xlink:href="#DejaVuSans-114"/>
     <use x="1274.453125" xlink:href="#DejaVuSans-32"/>
     <use x="1306.240234" xlink:href="#DejaVuSans-49"/>
     <use x="1369.863281" xlink:href="#DejaVuSans-48"/>
     <use x="1433.486328" xlink:href="#DejaVuSans-49"/>
    </g>
   </g>
  </g>
 </g>
 <defs>
  <clipPath id="p392d4f7c8c">
   <rect height="271.296" width="281.088" x="57.6" y="27.648"/>
  </clipPath>
 </defs>
</svg>
