<?xml version="1.0" encoding="utf-8" standalone="no"?>
<!DOCTYPE svg PUBLIC "-//W3C//DTD SVG 1.1//EN"
  "http://www.w3.org/Graphics/SVG/1.1/DTD/svg11.dtd">
<!-- Created with matplotlib (https://matplotlib.org/) -->
<svg height="345.6pt" version="1.1" viewBox="0 0 460.8 345.6" width="460.8pt" xmlns="http://www.w3.org/2000/svg" xmlns:xlink="http://www.w3.org/1999/xlink">
 <defs>
  <style type="text/css">
*{stroke-linecap:butt;stroke-linejoin:round;}
  </style>
 </defs>
 <g id="figure_1">
  <g id="patch_1">
   <path d="M 0 345.6 
L 460.8 345.6 
L 460.8 0 
L 0 0 
z
" style="fill:#ffffff;"/>
  </g>
  <g id="axes_1">
   <g id="patch_2">
    <path d="M 57.6 298.944 
L 338.688 298.944 
L 338.688 27.648 
L 57.6 27.648 
z
" style="fill:#ffffff;"/>
   </g>
   <g id="line2d_1">
    <path d="M 50.52898 298.944 
L 50.52898 294.312795 
L 74.704957 294.312795 
L 74.704957 285.050384 
L 88.846997 285.050384 
L 88.846997 275.787974 
L 135.548916 275.787974 
L 135.548916 271.156769 
L 143.014805 271.156769 
L 143.014805 257.263153 
L 151.660987 257.263153 
L 151.660987 248.000743 
L 159.84099 248.000743 
L 159.84099 243.369538 
L 171.366236 243.369538 
L 171.366236 234.107127 
L 182.092094 234.107127 
L 182.092094 220.213512 
L 189.290324 220.213512 
L 189.290324 210.951101 
L 195.53581 210.951101 
L 195.53581 201.688691 
L 204.186164 201.688691 
L 204.186164 192.426281 
L 216.921095 192.426281 
L 216.921095 187.795075 
L 217.208697 187.795075 
L 217.208697 173.90146 
L 245.138208 173.90146 
L 245.138208 169.270255 
L 249.307918 169.270255 
L 249.307918 155.376639 
L 254.369248 155.376639 
L 254.369248 146.114229 
L 255.473719 146.114229 
L 255.473719 141.483024 
L 258.11847 141.483024 
L 258.11847 127.589408 
L 260.365551 127.589408 
L 260.365551 122.958203 
L 263.92322 122.958203 
L 263.92322 109.064587 
L 266.175167 109.064587 
L 266.175167 99.802177 
L 271.3269 99.802177 
L 271.3269 90.539766 
L 274.226595 90.539766 
L 274.226595 85.908561 
L 282.964661 85.908561 
L 282.964661 76.646151 
L 284.096255 76.646151 
L 284.096255 62.752535 
L 338.688 62.752535 
" style="fill:none;stroke:#f5deb3;stroke-linecap:square;stroke-width:4;"/>
   </g>
   <g id="line2d_2">
    <defs>
     <path d="M 0 7.778175 
L 7.778175 0 
L 0 -7.778175 
L -7.778175 0 
z
" id="m064ddc6c6f" style="stroke:#f5deb3;stroke-linejoin:miter;stroke-width:1.5;"/>
    </defs>
    <g>
     <use style="fill:#f5deb3;stroke:#f5deb3;stroke-linejoin:miter;stroke-width:1.5;" x="88.846997" xlink:href="#m064ddc6c6f" y="285.050384"/>
     <use style="fill:#f5deb3;stroke:#f5deb3;stroke-linejoin:miter;stroke-width:1.5;" x="182.092094" xlink:href="#m064ddc6c6f" y="234.107127"/>
     <use style="fill:#f5deb3;stroke:#f5deb3;stroke-linejoin:miter;stroke-width:1.5;" x="217.208697" xlink:href="#m064ddc6c6f" y="173.90146"/>
     <use style="fill:#f5deb3;stroke:#f5deb3;stroke-linejoin:miter;stroke-width:1.5;" x="266.175167" xlink:href="#m064ddc6c6f" y="99.802177"/>
     <use style="fill:#f5deb3;stroke:#f5deb3;stroke-linejoin:miter;stroke-width:1.5;" x="284.096255" xlink:href="#m064ddc6c6f" y="62.752535"/>
     <use style="fill:#f5deb3;stroke:#f5deb3;stroke-linejoin:miter;stroke-width:1.5;" x="338.688" xlink:href="#m064ddc6c6f" y="62.752535"/>
    </g>
   </g>
   <g id="line2d_3">
    <path style="fill:none;stroke:#f5deb3;stroke-linecap:square;stroke-width:4;"/>
    <g/>
   </g>
   <g id="line2d_4">
    <path d="M 338.688 62.752535 
L 369.60768 35.706297 
" style="fill:none;stroke:#f5deb3;stroke-linecap:square;stroke-width:4;"/>
    <g>
     <use style="fill:#f5deb3;stroke:#f5deb3;stroke-linejoin:miter;stroke-width:1.5;" x="338.688" xlink:href="#m064ddc6c6f" y="62.752535"/>
     <use style="fill:#f5deb3;stroke:#f5deb3;stroke-linejoin:miter;stroke-width:1.5;" x="369.60768" xlink:href="#m064ddc6c6f" y="35.706297"/>
    </g>
   </g>
   <g id="matplotlib.axis_1">
    <g id="xtick_1">
     <g id="line2d_5">
      <path clip-path="url(#p980ca6bce5)" d="M 57.6 298.944 
L 57.6 27.648 
" style="fill:none;stroke:#b0b0b0;stroke-linecap:square;stroke-width:0.8;"/>
     </g>
     <g id="line2d_6">
      <defs>
       <path d="M 0 0 
L 0 3.5 
" id="m1afee494d4" style="stroke:#000000;stroke-width:0.8;"/>
      </defs>
      <g>
       <use style="stroke:#000000;stroke-width:0.8;" x="57.6" xlink:href="#m1afee494d4" y="298.944"/>
      </g>
     </g>
     <g id="text_1">
      <!-- 0 -->
      <defs>
       <path d="M 31.78125 66.40625 
Q 24.171875 66.40625 20.328125 58.90625 
Q 16.5 51.421875 16.5 36.375 
Q 16.5 21.390625 20.328125 13.890625 
Q 24.171875 6.390625 31.78125 6.390625 
Q 39.453125 6.390625 43.28125 13.890625 
Q 47.125 21.390625 47.125 36.375 
Q 47.125 51.421875 43.28125 58.90625 
Q 39.453125 66.40625 31.78125 66.40625 
z
M 31.78125 74.21875 
Q 44.046875 74.21875 50.515625 64.515625 
Q 56.984375 54.828125 56.984375 36.375 
Q 56.984375 17.96875 50.515625 8.265625 
Q 44.046875 -1.421875 31.78125 -1.421875 
Q 19.53125 -1.421875 13.0625 8.265625 
Q 6.59375 17.96875 6.59375 36.375 
Q 6.59375 54.828125 13.0625 64.515625 
Q 19.53125 74.21875 31.78125 74.21875 
z
" id="DejaVuSans-48"/>
      </defs>
      <g transform="translate(51.2375 321.140875)scale(0.2 -0.2)">
       <use xlink:href="#DejaVuSans-48"/>
      </g>
     </g>
    </g>
    <g id="xtick_2">
     <g id="line2d_7">
      <path clip-path="url(#p980ca6bce5)" d="M 137.910857 298.944 
L 137.910857 27.648 
" style="fill:none;stroke:#b0b0b0;stroke-linecap:square;stroke-width:0.8;"/>
     </g>
     <g id="line2d_8">
      <g>
       <use style="stroke:#000000;stroke-width:0.8;" x="137.910857" xlink:href="#m1afee494d4" y="298.944"/>
      </g>
     </g>
     <g id="text_2">
      <!-- 2 -->
      <defs>
       <path d="M 19.1875 8.296875 
L 53.609375 8.296875 
L 53.609375 0 
L 7.328125 0 
L 7.328125 8.296875 
Q 12.9375 14.109375 22.625 23.890625 
Q 32.328125 33.6875 34.8125 36.53125 
Q 39.546875 41.84375 41.421875 45.53125 
Q 43.3125 49.21875 43.3125 52.78125 
Q 43.3125 58.59375 39.234375 62.25 
Q 35.15625 65.921875 28.609375 65.921875 
Q 23.96875 65.921875 18.8125 64.3125 
Q 13.671875 62.703125 7.8125 59.421875 
L 7.8125 69.390625 
Q 13.765625 71.78125 18.9375 73 
Q 24.125 74.21875 28.421875 74.21875 
Q 39.75 74.21875 46.484375 68.546875 
Q 53.21875 62.890625 53.21875 53.421875 
Q 53.21875 48.921875 51.53125 44.890625 
Q 49.859375 40.875 45.40625 35.40625 
Q 44.1875 33.984375 37.640625 27.21875 
Q 31.109375 20.453125 19.1875 8.296875 
z
" id="DejaVuSans-50"/>
      </defs>
      <g transform="translate(131.548357 321.140875)scale(0.2 -0.2)">
       <use xlink:href="#DejaVuSans-50"/>
      </g>
     </g>
    </g>
    <g id="xtick_3">
     <g id="line2d_9">
      <path clip-path="url(#p980ca6bce5)" d="M 218.221714 298.944 
L 218.221714 27.648 
" style="fill:none;stroke:#b0b0b0;stroke-linecap:square;stroke-width:0.8;"/>
     </g>
     <g id="line2d_10">
      <g>
       <use style="stroke:#000000;stroke-width:0.8;" x="218.221714" xlink:href="#m1afee494d4" y="298.944"/>
      </g>
     </g>
     <g id="text_3">
      <!-- 4 -->
      <defs>
       <path d="M 37.796875 64.3125 
L 12.890625 25.390625 
L 37.796875 25.390625 
z
M 35.203125 72.90625 
L 47.609375 72.90625 
L 47.609375 25.390625 
L 58.015625 25.390625 
L 58.015625 17.1875 
L 47.609375 17.1875 
L 47.609375 0 
L 37.796875 0 
L 37.796875 17.1875 
L 4.890625 17.1875 
L 4.890625 26.703125 
z
" id="DejaVuSans-52"/>
      </defs>
      <g transform="translate(211.859214 321.140875)scale(0.2 -0.2)">
       <use xlink:href="#DejaVuSans-52"/>
      </g>
     </g>
    </g>
    <g id="xtick_4">
     <g id="line2d_11">
      <path clip-path="url(#p980ca6bce5)" d="M 298.532571 298.944 
L 298.532571 27.648 
" style="fill:none;stroke:#b0b0b0;stroke-linecap:square;stroke-width:0.8;"/>
     </g>
     <g id="line2d_12">
      <g>
       <use style="stroke:#000000;stroke-width:0.8;" x="298.532571" xlink:href="#m1afee494d4" y="298.944"/>
      </g>
     </g>
     <g id="text_4">
      <!-- 6 -->
      <defs>
       <path d="M 33.015625 40.375 
Q 26.375 40.375 22.484375 35.828125 
Q 18.609375 31.296875 18.609375 23.390625 
Q 18.609375 15.53125 22.484375 10.953125 
Q 26.375 6.390625 33.015625 6.390625 
Q 39.65625 6.390625 43.53125 10.953125 
Q 47.40625 15.53125 47.40625 23.390625 
Q 47.40625 31.296875 43.53125 35.828125 
Q 39.65625 40.375 33.015625 40.375 
z
M 52.59375 71.296875 
L 52.59375 62.3125 
Q 48.875 64.0625 45.09375 64.984375 
Q 41.3125 65.921875 37.59375 65.921875 
Q 27.828125 65.921875 22.671875 59.328125 
Q 17.53125 52.734375 16.796875 39.40625 
Q 19.671875 43.65625 24.015625 45.921875 
Q 28.375 48.1875 33.59375 48.1875 
Q 44.578125 48.1875 50.953125 41.515625 
Q 57.328125 34.859375 57.328125 23.390625 
Q 57.328125 12.15625 50.6875 5.359375 
Q 44.046875 -1.421875 33.015625 -1.421875 
Q 20.359375 -1.421875 13.671875 8.265625 
Q 6.984375 17.96875 6.984375 36.375 
Q 6.984375 53.65625 15.1875 63.9375 
Q 23.390625 74.21875 37.203125 74.21875 
Q 40.921875 74.21875 44.703125 73.484375 
Q 48.484375 72.75 52.59375 71.296875 
z
" id="DejaVuSans-54"/>
      </defs>
      <g transform="translate(292.170071 321.140875)scale(0.2 -0.2)">
       <use xlink:href="#DejaVuSans-54"/>
      </g>
     </g>
    </g>
    <g id="xtick_5">
     <g id="line2d_13">
      <path clip-path="url(#p980ca6bce5)" d="M 97.755429 298.944 
L 97.755429 27.648 
" style="fill:none;stroke:#b0b0b0;stroke-linecap:square;stroke-width:0.8;"/>
     </g>
     <g id="line2d_14">
      <defs>
       <path d="M 0 0 
L 0 2 
" id="m6e15cffd37" style="stroke:#000000;stroke-width:0.6;"/>
      </defs>
      <g>
       <use style="stroke:#000000;stroke-width:0.6;" x="97.755429" xlink:href="#m6e15cffd37" y="298.944"/>
      </g>
     </g>
    </g>
    <g id="xtick_6">
     <g id="line2d_15">
      <path clip-path="url(#p980ca6bce5)" d="M 178.066286 298.944 
L 178.066286 27.648 
" style="fill:none;stroke:#b0b0b0;stroke-linecap:square;stroke-width:0.8;"/>
     </g>
     <g id="line2d_16">
      <g>
       <use style="stroke:#000000;stroke-width:0.6;" x="178.066286" xlink:href="#m6e15cffd37" y="298.944"/>
      </g>
     </g>
    </g>
    <g id="xtick_7">
     <g id="line2d_17">
      <path clip-path="url(#p980ca6bce5)" d="M 258.377143 298.944 
L 258.377143 27.648 
" style="fill:none;stroke:#b0b0b0;stroke-linecap:square;stroke-width:0.8;"/>
     </g>
     <g id="line2d_18">
      <g>
       <use style="stroke:#000000;stroke-width:0.6;" x="258.377143" xlink:href="#m6e15cffd37" y="298.944"/>
      </g>
     </g>
    </g>
    <g id="xtick_8">
     <g id="line2d_19">
      <path clip-path="url(#p980ca6bce5)" d="M 338.688 298.944 
L 338.688 27.648 
" style="fill:none;stroke:#b0b0b0;stroke-linecap:square;stroke-width:0.8;"/>
     </g>
     <g id="line2d_20">
      <g>
       <use style="stroke:#000000;stroke-width:0.6;" x="338.688" xlink:href="#m6e15cffd37" y="298.944"/>
      </g>
     </g>
    </g>
    <g id="text_5">
     <!-- log10(# f-evals / dimension) -->
     <defs>
      <path d="M 9.421875 75.984375 
L 18.40625 75.984375 
L 18.40625 0 
L 9.421875 0 
z
" id="DejaVuSans-108"/>
      <path d="M 30.609375 48.390625 
Q 23.390625 48.390625 19.1875 42.75 
Q 14.984375 37.109375 14.984375 27.296875 
Q 14.984375 17.484375 19.15625 11.84375 
Q 23.34375 6.203125 30.609375 6.203125 
Q 37.796875 6.203125 41.984375 11.859375 
Q 46.1875 17.53125 46.1875 27.296875 
Q 46.1875 37.015625 41.984375 42.703125 
Q 37.796875 48.390625 30.609375 48.390625 
z
M 30.609375 56 
Q 42.328125 56 49.015625 48.375 
Q 55.71875 40.765625 55.71875 27.296875 
Q 55.71875 13.875 49.015625 6.21875 
Q 42.328125 -1.421875 30.609375 -1.421875 
Q 18.84375 -1.421875 12.171875 6.21875 
Q 5.515625 13.875 5.515625 27.296875 
Q 5.515625 40.765625 12.171875 48.375 
Q 18.84375 56 30.609375 56 
z
" id="DejaVuSans-111"/>
      <path d="M 45.40625 27.984375 
Q 45.40625 37.75 41.375 43.109375 
Q 37.359375 48.484375 30.078125 48.484375 
Q 22.859375 48.484375 18.828125 43.109375 
Q 14.796875 37.75 14.796875 27.984375 
Q 14.796875 18.265625 18.828125 12.890625 
Q 22.859375 7.515625 30.078125 7.515625 
Q 37.359375 7.515625 41.375 12.890625 
Q 45.40625 18.265625 45.40625 27.984375 
z
M 54.390625 6.78125 
Q 54.390625 -7.171875 48.1875 -13.984375 
Q 42 -20.796875 29.203125 -20.796875 
Q 24.46875 -20.796875 20.265625 -20.09375 
Q 16.0625 -19.390625 12.109375 -17.921875 
L 12.109375 -9.1875 
Q 16.0625 -11.328125 19.921875 -12.34375 
Q 23.78125 -13.375 27.78125 -13.375 
Q 36.625 -13.375 41.015625 -8.765625 
Q 45.40625 -4.15625 45.40625 5.171875 
L 45.40625 9.625 
Q 42.625 4.78125 38.28125 2.390625 
Q 33.9375 0 27.875 0 
Q 17.828125 0 11.671875 7.65625 
Q 5.515625 15.328125 5.515625 27.984375 
Q 5.515625 40.671875 11.671875 48.328125 
Q 17.828125 56 27.875 56 
Q 33.9375 56 38.28125 53.609375 
Q 42.625 51.21875 45.40625 46.390625 
L 45.40625 54.6875 
L 54.390625 54.6875 
z
" id="DejaVuSans-103"/>
      <path d="M 12.40625 8.296875 
L 28.515625 8.296875 
L 28.515625 63.921875 
L 10.984375 60.40625 
L 10.984375 69.390625 
L 28.421875 72.90625 
L 38.28125 72.90625 
L 38.28125 8.296875 
L 54.390625 8.296875 
L 54.390625 0 
L 12.40625 0 
z
" id="DejaVuSans-49"/>
      <path d="M 31 75.875 
Q 24.46875 64.65625 21.28125 53.65625 
Q 18.109375 42.671875 18.109375 31.390625 
Q 18.109375 20.125 21.3125 9.0625 
Q 24.515625 -2 31 -13.1875 
L 23.1875 -13.1875 
Q 15.875 -1.703125 12.234375 9.375 
Q 8.59375 20.453125 8.59375 31.390625 
Q 8.59375 42.28125 12.203125 53.3125 
Q 15.828125 64.359375 23.1875 75.875 
z
" id="DejaVuSans-40"/>
      <path d="M 51.125 44 
L 36.921875 44 
L 32.8125 27.6875 
L 47.125 27.6875 
z
M 43.796875 71.78125 
L 38.71875 51.515625 
L 52.984375 51.515625 
L 58.109375 71.78125 
L 65.921875 71.78125 
L 60.890625 51.515625 
L 76.125 51.515625 
L 76.125 44 
L 58.984375 44 
L 54.984375 27.6875 
L 70.515625 27.6875 
L 70.515625 20.21875 
L 53.078125 20.21875 
L 48 0 
L 40.1875 0 
L 45.21875 20.21875 
L 30.90625 20.21875 
L 25.875 0 
L 18.015625 0 
L 23.09375 20.21875 
L 7.71875 20.21875 
L 7.71875 27.6875 
L 24.90625 27.6875 
L 29 44 
L 13.28125 44 
L 13.28125 51.515625 
L 30.90625 51.515625 
L 35.890625 71.78125 
z
" id="DejaVuSans-35"/>
      <path id="DejaVuSans-32"/>
      <path d="M 37.109375 75.984375 
L 37.109375 68.5 
L 28.515625 68.5 
Q 23.6875 68.5 21.796875 66.546875 
Q 19.921875 64.59375 19.921875 59.515625 
L 19.921875 54.6875 
L 34.71875 54.6875 
L 34.71875 47.703125 
L 19.921875 47.703125 
L 19.921875 0 
L 10.890625 0 
L 10.890625 47.703125 
L 2.296875 47.703125 
L 2.296875 54.6875 
L 10.890625 54.6875 
L 10.890625 58.5 
Q 10.890625 67.625 15.140625 71.796875 
Q 19.390625 75.984375 28.609375 75.984375 
z
" id="DejaVuSans-102"/>
      <path d="M 4.890625 31.390625 
L 31.203125 31.390625 
L 31.203125 23.390625 
L 4.890625 23.390625 
z
" id="DejaVuSans-45"/>
      <path d="M 56.203125 29.59375 
L 56.203125 25.203125 
L 14.890625 25.203125 
Q 15.484375 15.921875 20.484375 11.0625 
Q 25.484375 6.203125 34.421875 6.203125 
Q 39.59375 6.203125 44.453125 7.46875 
Q 49.3125 8.734375 54.109375 11.28125 
L 54.109375 2.78125 
Q 49.265625 0.734375 44.1875 -0.34375 
Q 39.109375 -1.421875 33.890625 -1.421875 
Q 20.796875 -1.421875 13.15625 6.1875 
Q 5.515625 13.8125 5.515625 26.8125 
Q 5.515625 40.234375 12.765625 48.109375 
Q 20.015625 56 32.328125 56 
Q 43.359375 56 49.78125 48.890625 
Q 56.203125 41.796875 56.203125 29.59375 
z
M 47.21875 32.234375 
Q 47.125 39.59375 43.09375 43.984375 
Q 39.0625 48.390625 32.421875 48.390625 
Q 24.90625 48.390625 20.390625 44.140625 
Q 15.875 39.890625 15.1875 32.171875 
z
" id="DejaVuSans-101"/>
      <path d="M 2.984375 54.6875 
L 12.5 54.6875 
L 29.59375 8.796875 
L 46.6875 54.6875 
L 56.203125 54.6875 
L 35.6875 0 
L 23.484375 0 
z
" id="DejaVuSans-118"/>
      <path d="M 34.28125 27.484375 
Q 23.390625 27.484375 19.1875 25 
Q 14.984375 22.515625 14.984375 16.5 
Q 14.984375 11.71875 18.140625 8.90625 
Q 21.296875 6.109375 26.703125 6.109375 
Q 34.1875 6.109375 38.703125 11.40625 
Q 43.21875 16.703125 43.21875 25.484375 
L 43.21875 27.484375 
z
M 52.203125 31.203125 
L 52.203125 0 
L 43.21875 0 
L 43.21875 8.296875 
Q 40.140625 3.328125 35.546875 0.953125 
Q 30.953125 -1.421875 24.3125 -1.421875 
Q 15.921875 -1.421875 10.953125 3.296875 
Q 6 8.015625 6 15.921875 
Q 6 25.140625 12.171875 29.828125 
Q 18.359375 34.515625 30.609375 34.515625 
L 43.21875 34.515625 
L 43.21875 35.40625 
Q 43.21875 41.609375 39.140625 45 
Q 35.0625 48.390625 27.6875 48.390625 
Q 23 48.390625 18.546875 47.265625 
Q 14.109375 46.140625 10.015625 43.890625 
L 10.015625 52.203125 
Q 14.9375 54.109375 19.578125 55.046875 
Q 24.21875 56 28.609375 56 
Q 40.484375 56 46.34375 49.84375 
Q 52.203125 43.703125 52.203125 31.203125 
z
" id="DejaVuSans-97"/>
      <path d="M 44.28125 53.078125 
L 44.28125 44.578125 
Q 40.484375 46.53125 36.375 47.5 
Q 32.28125 48.484375 27.875 48.484375 
Q 21.1875 48.484375 17.84375 46.4375 
Q 14.5 44.390625 14.5 40.28125 
Q 14.5 37.15625 16.890625 35.375 
Q 19.28125 33.59375 26.515625 31.984375 
L 29.59375 31.296875 
Q 39.15625 29.25 43.1875 25.515625 
Q 47.21875 21.78125 47.21875 15.09375 
Q 47.21875 7.46875 41.1875 3.015625 
Q 35.15625 -1.421875 24.609375 -1.421875 
Q 20.21875 -1.421875 15.453125 -0.5625 
Q 10.6875 0.296875 5.421875 2 
L 5.421875 11.28125 
Q 10.40625 8.6875 15.234375 7.390625 
Q 20.0625 6.109375 24.8125 6.109375 
Q 31.15625 6.109375 34.5625 8.28125 
Q 37.984375 10.453125 37.984375 14.40625 
Q 37.984375 18.0625 35.515625 20.015625 
Q 33.0625 21.96875 24.703125 23.78125 
L 21.578125 24.515625 
Q 13.234375 26.265625 9.515625 29.90625 
Q 5.8125 33.546875 5.8125 39.890625 
Q 5.8125 47.609375 11.28125 51.796875 
Q 16.75 56 26.8125 56 
Q 31.78125 56 36.171875 55.265625 
Q 40.578125 54.546875 44.28125 53.078125 
z
" id="DejaVuSans-115"/>
      <path d="M 25.390625 72.90625 
L 33.6875 72.90625 
L 8.296875 -9.28125 
L 0 -9.28125 
z
" id="DejaVuSans-47"/>
      <path d="M 45.40625 46.390625 
L 45.40625 75.984375 
L 54.390625 75.984375 
L 54.390625 0 
L 45.40625 0 
L 45.40625 8.203125 
Q 42.578125 3.328125 38.25 0.953125 
Q 33.9375 -1.421875 27.875 -1.421875 
Q 17.96875 -1.421875 11.734375 6.484375 
Q 5.515625 14.40625 5.515625 27.296875 
Q 5.515625 40.1875 11.734375 48.09375 
Q 17.96875 56 27.875 56 
Q 33.9375 56 38.25 53.625 
Q 42.578125 51.265625 45.40625 46.390625 
z
M 14.796875 27.296875 
Q 14.796875 17.390625 18.875 11.75 
Q 22.953125 6.109375 30.078125 6.109375 
Q 37.203125 6.109375 41.296875 11.75 
Q 45.40625 17.390625 45.40625 27.296875 
Q 45.40625 37.203125 41.296875 42.84375 
Q 37.203125 48.484375 30.078125 48.484375 
Q 22.953125 48.484375 18.875 42.84375 
Q 14.796875 37.203125 14.796875 27.296875 
z
" id="DejaVuSans-100"/>
      <path d="M 9.421875 54.6875 
L 18.40625 54.6875 
L 18.40625 0 
L 9.421875 0 
z
M 9.421875 75.984375 
L 18.40625 75.984375 
L 18.40625 64.59375 
L 9.421875 64.59375 
z
" id="DejaVuSans-105"/>
      <path d="M 52 44.1875 
Q 55.375 50.25 60.0625 53.125 
Q 64.75 56 71.09375 56 
Q 79.640625 56 84.28125 50.015625 
Q 88.921875 44.046875 88.921875 33.015625 
L 88.921875 0 
L 79.890625 0 
L 79.890625 32.71875 
Q 79.890625 40.578125 77.09375 44.375 
Q 74.3125 48.1875 68.609375 48.1875 
Q 61.625 48.1875 57.5625 43.546875 
Q 53.515625 38.921875 53.515625 30.90625 
L 53.515625 0 
L 44.484375 0 
L 44.484375 32.71875 
Q 44.484375 40.625 41.703125 44.40625 
Q 38.921875 48.1875 33.109375 48.1875 
Q 26.21875 48.1875 22.15625 43.53125 
Q 18.109375 38.875 18.109375 30.90625 
L 18.109375 0 
L 9.078125 0 
L 9.078125 54.6875 
L 18.109375 54.6875 
L 18.109375 46.1875 
Q 21.1875 51.21875 25.484375 53.609375 
Q 29.78125 56 35.6875 56 
Q 41.65625 56 45.828125 52.96875 
Q 50 49.953125 52 44.1875 
z
" id="DejaVuSans-109"/>
      <path d="M 54.890625 33.015625 
L 54.890625 0 
L 45.90625 0 
L 45.90625 32.71875 
Q 45.90625 40.484375 42.875 44.328125 
Q 39.84375 48.1875 33.796875 48.1875 
Q 26.515625 48.1875 22.3125 43.546875 
Q 18.109375 38.921875 18.109375 30.90625 
L 18.109375 0 
L 9.078125 0 
L 9.078125 54.6875 
L 18.109375 54.6875 
L 18.109375 46.1875 
Q 21.34375 51.125 25.703125 53.5625 
Q 30.078125 56 35.796875 56 
Q 45.21875 56 50.046875 50.171875 
Q 54.890625 44.34375 54.890625 33.015625 
z
" id="DejaVuSans-110"/>
      <path d="M 8.015625 75.875 
L 15.828125 75.875 
Q 23.140625 64.359375 26.78125 53.3125 
Q 30.421875 42.28125 30.421875 31.390625 
Q 30.421875 20.453125 26.78125 9.375 
Q 23.140625 -1.703125 15.828125 -13.1875 
L 8.015625 -13.1875 
Q 14.5 -2 17.703125 9.0625 
Q 20.90625 20.125 20.90625 31.390625 
Q 20.90625 42.671875 17.703125 53.65625 
Q 14.5 64.65625 8.015625 75.875 
z
" id="DejaVuSans-41"/>
     </defs>
     <g transform="translate(77.303219 342.217594)scale(0.17 -0.17)">
      <use xlink:href="#DejaVuSans-108"/>
      <use x="27.783203" xlink:href="#DejaVuSans-111"/>
      <use x="88.964844" xlink:href="#DejaVuSans-103"/>
      <use x="152.441406" xlink:href="#DejaVuSans-49"/>
      <use x="216.064453" xlink:href="#DejaVuSans-48"/>
      <use x="279.6875" xlink:href="#DejaVuSans-40"/>
      <use x="318.701172" xlink:href="#DejaVuSans-35"/>
      <use x="402.490234" xlink:href="#DejaVuSans-32"/>
      <use x="434.277344" xlink:href="#DejaVuSans-102"/>
      <use x="469.404297" xlink:href="#DejaVuSans-45"/>
      <use x="505.488281" xlink:href="#DejaVuSans-101"/>
      <use x="567.011719" xlink:href="#DejaVuSans-118"/>
      <use x="626.191406" xlink:href="#DejaVuSans-97"/>
      <use x="687.470703" xlink:href="#DejaVuSans-108"/>
      <use x="715.253906" xlink:href="#DejaVuSans-115"/>
      <use x="767.353516" xlink:href="#DejaVuSans-32"/>
      <use x="799.140625" xlink:href="#DejaVuSans-47"/>
      <use x="832.832031" xlink:href="#DejaVuSans-32"/>
      <use x="864.619141" xlink:href="#DejaVuSans-100"/>
      <use x="928.095703" xlink:href="#DejaVuSans-105"/>
      <use x="955.878906" xlink:href="#DejaVuSans-109"/>
      <use x="1053.291016" xlink:href="#DejaVuSans-101"/>
      <use x="1114.814453" xlink:href="#DejaVuSans-110"/>
      <use x="1178.193359" xlink:href="#DejaVuSans-115"/>
      <use x="1230.292969" xlink:href="#DejaVuSans-105"/>
      <use x="1258.076172" xlink:href="#DejaVuSans-111"/>
      <use x="1319.257812" xlink:href="#DejaVuSans-110"/>
      <use x="1382.636719" xlink:href="#DejaVuSans-41"/>
     </g>
    </g>
   </g>
   <g id="matplotlib.axis_2">
    <g id="ytick_1">
     <g id="line2d_21">
      <path clip-path="url(#p980ca6bce5)" d="M 57.6 298.944 
L 338.688 298.944 
" style="fill:none;stroke:#b0b0b0;stroke-linecap:square;stroke-width:0.8;"/>
     </g>
     <g id="line2d_22">
      <defs>
       <path d="M 0 0 
L -3.5 0 
" id="m1f9626c851" style="stroke:#000000;stroke-width:0.8;"/>
      </defs>
      <g>
       <use style="stroke:#000000;stroke-width:0.8;" x="57.6" xlink:href="#m1f9626c851" y="298.944"/>
      </g>
     </g>
     <g id="text_6">
      <!-- 0.0 -->
      <defs>
       <path d="M 10.6875 12.40625 
L 21 12.40625 
L 21 0 
L 10.6875 0 
z
" id="DejaVuSans-46"/>
      </defs>
      <g transform="translate(25.155 305.02275)scale(0.16 -0.16)">
       <use xlink:href="#DejaVuSans-48"/>
       <use x="63.623047" xlink:href="#DejaVuSans-46"/>
       <use x="95.410156" xlink:href="#DejaVuSans-48"/>
      </g>
     </g>
    </g>
    <g id="ytick_2">
     <g id="line2d_23">
      <path clip-path="url(#p980ca6bce5)" d="M 57.6 245.22202 
L 338.688 245.22202 
" style="fill:none;stroke:#b0b0b0;stroke-linecap:square;stroke-width:0.8;"/>
     </g>
     <g id="line2d_24">
      <g>
       <use style="stroke:#000000;stroke-width:0.8;" x="57.6" xlink:href="#m1f9626c851" y="245.22202"/>
      </g>
     </g>
     <g id="text_7">
      <!-- 0.2 -->
      <g transform="translate(25.155 251.30077)scale(0.16 -0.16)">
       <use xlink:href="#DejaVuSans-48"/>
       <use x="63.623047" xlink:href="#DejaVuSans-46"/>
       <use x="95.410156" xlink:href="#DejaVuSans-50"/>
      </g>
     </g>
    </g>
    <g id="ytick_3">
     <g id="line2d_25">
      <path clip-path="url(#p980ca6bce5)" d="M 57.6 191.50004 
L 338.688 191.50004 
" style="fill:none;stroke:#b0b0b0;stroke-linecap:square;stroke-width:0.8;"/>
     </g>
     <g id="line2d_26">
      <g>
       <use style="stroke:#000000;stroke-width:0.8;" x="57.6" xlink:href="#m1f9626c851" y="191.50004"/>
      </g>
     </g>
     <g id="text_8">
      <!-- 0.4 -->
      <g transform="translate(25.155 197.57879)scale(0.16 -0.16)">
       <use xlink:href="#DejaVuSans-48"/>
       <use x="63.623047" xlink:href="#DejaVuSans-46"/>
       <use x="95.410156" xlink:href="#DejaVuSans-52"/>
      </g>
     </g>
    </g>
    <g id="ytick_4">
     <g id="line2d_27">
      <path clip-path="url(#p980ca6bce5)" d="M 57.6 137.778059 
L 338.688 137.778059 
" style="fill:none;stroke:#b0b0b0;stroke-linecap:square;stroke-width:0.8;"/>
     </g>
     <g id="line2d_28">
      <g>
       <use style="stroke:#000000;stroke-width:0.8;" x="57.6" xlink:href="#m1f9626c851" y="137.778059"/>
      </g>
     </g>
     <g id="text_9">
      <!-- 0.6 -->
      <g transform="translate(25.155 143.856809)scale(0.16 -0.16)">
       <use xlink:href="#DejaVuSans-48"/>
       <use x="63.623047" xlink:href="#DejaVuSans-46"/>
       <use x="95.410156" xlink:href="#DejaVuSans-54"/>
      </g>
     </g>
    </g>
    <g id="ytick_5">
     <g id="line2d_29">
      <path clip-path="url(#p980ca6bce5)" d="M 57.6 84.056079 
L 338.688 84.056079 
" style="fill:none;stroke:#b0b0b0;stroke-linecap:square;stroke-width:0.8;"/>
     </g>
     <g id="line2d_30">
      <g>
       <use style="stroke:#000000;stroke-width:0.8;" x="57.6" xlink:href="#m1f9626c851" y="84.056079"/>
      </g>
     </g>
     <g id="text_10">
      <!-- 0.8 -->
      <defs>
       <path d="M 31.78125 34.625 
Q 24.75 34.625 20.71875 30.859375 
Q 16.703125 27.09375 16.703125 20.515625 
Q 16.703125 13.921875 20.71875 10.15625 
Q 24.75 6.390625 31.78125 6.390625 
Q 38.8125 6.390625 42.859375 10.171875 
Q 46.921875 13.96875 46.921875 20.515625 
Q 46.921875 27.09375 42.890625 30.859375 
Q 38.875 34.625 31.78125 34.625 
z
M 21.921875 38.8125 
Q 15.578125 40.375 12.03125 44.71875 
Q 8.5 49.078125 8.5 55.328125 
Q 8.5 64.0625 14.71875 69.140625 
Q 20.953125 74.21875 31.78125 74.21875 
Q 42.671875 74.21875 48.875 69.140625 
Q 55.078125 64.0625 55.078125 55.328125 
Q 55.078125 49.078125 51.53125 44.71875 
Q 48 40.375 41.703125 38.8125 
Q 48.828125 37.15625 52.796875 32.3125 
Q 56.78125 27.484375 56.78125 20.515625 
Q 56.78125 9.90625 50.3125 4.234375 
Q 43.84375 -1.421875 31.78125 -1.421875 
Q 19.734375 -1.421875 13.25 4.234375 
Q 6.78125 9.90625 6.78125 20.515625 
Q 6.78125 27.484375 10.78125 32.3125 
Q 14.796875 37.15625 21.921875 38.8125 
z
M 18.3125 54.390625 
Q 18.3125 48.734375 21.84375 45.5625 
Q 25.390625 42.390625 31.78125 42.390625 
Q 38.140625 42.390625 41.71875 45.5625 
Q 45.3125 48.734375 45.3125 54.390625 
Q 45.3125 60.0625 41.71875 63.234375 
Q 38.140625 66.40625 31.78125 66.40625 
Q 25.390625 66.40625 21.84375 63.234375 
Q 18.3125 60.0625 18.3125 54.390625 
z
" id="DejaVuSans-56"/>
      </defs>
      <g transform="translate(25.155 90.134829)scale(0.16 -0.16)">
       <use xlink:href="#DejaVuSans-48"/>
       <use x="63.623047" xlink:href="#DejaVuSans-46"/>
       <use x="95.410156" xlink:href="#DejaVuSans-56"/>
      </g>
     </g>
    </g>
    <g id="ytick_6">
     <g id="line2d_31">
      <path clip-path="url(#p980ca6bce5)" d="M 57.6 30.334099 
L 338.688 30.334099 
" style="fill:none;stroke:#b0b0b0;stroke-linecap:square;stroke-width:0.8;"/>
     </g>
     <g id="line2d_32">
      <g>
       <use style="stroke:#000000;stroke-width:0.8;" x="57.6" xlink:href="#m1f9626c851" y="30.334099"/>
      </g>
     </g>
     <g id="text_11">
      <!-- 1.0 -->
      <g transform="translate(25.155 36.412849)scale(0.16 -0.16)">
       <use xlink:href="#DejaVuSans-49"/>
       <use x="63.623047" xlink:href="#DejaVuSans-46"/>
       <use x="95.410156" xlink:href="#DejaVuSans-48"/>
      </g>
     </g>
    </g>
    <g id="text_12">
     <!-- Fraction of function,target pairs -->
     <defs>
      <path d="M 9.8125 72.90625 
L 51.703125 72.90625 
L 51.703125 64.59375 
L 19.671875 64.59375 
L 19.671875 43.109375 
L 48.578125 43.109375 
L 48.578125 34.8125 
L 19.671875 34.8125 
L 19.671875 0 
L 9.8125 0 
z
" id="DejaVuSans-70"/>
      <path d="M 41.109375 46.296875 
Q 39.59375 47.171875 37.8125 47.578125 
Q 36.03125 48 33.890625 48 
Q 26.265625 48 22.1875 43.046875 
Q 18.109375 38.09375 18.109375 28.8125 
L 18.109375 0 
L 9.078125 0 
L 9.078125 54.6875 
L 18.109375 54.6875 
L 18.109375 46.1875 
Q 20.953125 51.171875 25.484375 53.578125 
Q 30.03125 56 36.53125 56 
Q 37.453125 56 38.578125 55.875 
Q 39.703125 55.765625 41.0625 55.515625 
z
" id="DejaVuSans-114"/>
      <path d="M 48.78125 52.59375 
L 48.78125 44.1875 
Q 44.96875 46.296875 41.140625 47.34375 
Q 37.3125 48.390625 33.40625 48.390625 
Q 24.65625 48.390625 19.8125 42.84375 
Q 14.984375 37.3125 14.984375 27.296875 
Q 14.984375 17.28125 19.8125 11.734375 
Q 24.65625 6.203125 33.40625 6.203125 
Q 37.3125 6.203125 41.140625 7.25 
Q 44.96875 8.296875 48.78125 10.40625 
L 48.78125 2.09375 
Q 45.015625 0.34375 40.984375 -0.53125 
Q 36.96875 -1.421875 32.421875 -1.421875 
Q 20.0625 -1.421875 12.78125 6.34375 
Q 5.515625 14.109375 5.515625 27.296875 
Q 5.515625 40.671875 12.859375 48.328125 
Q 20.21875 56 33.015625 56 
Q 37.15625 56 41.109375 55.140625 
Q 45.0625 54.296875 48.78125 52.59375 
z
" id="DejaVuSans-99"/>
      <path d="M 18.3125 70.21875 
L 18.3125 54.6875 
L 36.8125 54.6875 
L 36.8125 47.703125 
L 18.3125 47.703125 
L 18.3125 18.015625 
Q 18.3125 11.328125 20.140625 9.421875 
Q 21.96875 7.515625 27.59375 7.515625 
L 36.8125 7.515625 
L 36.8125 0 
L 27.59375 0 
Q 17.1875 0 13.234375 3.875 
Q 9.28125 7.765625 9.28125 18.015625 
L 9.28125 47.703125 
L 2.6875 47.703125 
L 2.6875 54.6875 
L 9.28125 54.6875 
L 9.28125 70.21875 
z
" id="DejaVuSans-116"/>
      <path d="M 8.5 21.578125 
L 8.5 54.6875 
L 17.484375 54.6875 
L 17.484375 21.921875 
Q 17.484375 14.15625 20.5 10.265625 
Q 23.53125 6.390625 29.59375 6.390625 
Q 36.859375 6.390625 41.078125 11.03125 
Q 45.3125 15.671875 45.3125 23.6875 
L 45.3125 54.6875 
L 54.296875 54.6875 
L 54.296875 0 
L 45.3125 0 
L 45.3125 8.40625 
Q 42.046875 3.421875 37.71875 1 
Q 33.40625 -1.421875 27.6875 -1.421875 
Q 18.265625 -1.421875 13.375 4.4375 
Q 8.5 10.296875 8.5 21.578125 
z
M 31.109375 56 
z
" id="DejaVuSans-117"/>
      <path d="M 11.71875 12.40625 
L 22.015625 12.40625 
L 22.015625 4 
L 14.015625 -11.625 
L 7.71875 -11.625 
L 11.71875 4 
z
" id="DejaVuSans-44"/>
      <path d="M 18.109375 8.203125 
L 18.109375 -20.796875 
L 9.078125 -20.796875 
L 9.078125 54.6875 
L 18.109375 54.6875 
L 18.109375 46.390625 
Q 20.953125 51.265625 25.265625 53.625 
Q 29.59375 56 35.59375 56 
Q 45.5625 56 51.78125 48.09375 
Q 58.015625 40.1875 58.015625 27.296875 
Q 58.015625 14.40625 51.78125 6.484375 
Q 45.5625 -1.421875 35.59375 -1.421875 
Q 29.59375 -1.421875 25.265625 0.953125 
Q 20.953125 3.328125 18.109375 8.203125 
z
M 48.6875 27.296875 
Q 48.6875 37.203125 44.609375 42.84375 
Q 40.53125 48.484375 33.40625 48.484375 
Q 26.265625 48.484375 22.1875 42.84375 
Q 18.109375 37.203125 18.109375 27.296875 
Q 18.109375 17.390625 22.1875 11.75 
Q 26.265625 6.109375 33.40625 6.109375 
Q 40.53125 6.109375 44.609375 11.75 
Q 48.6875 17.390625 48.6875 27.296875 
z
" id="DejaVuSans-112"/>
     </defs>
     <g transform="translate(17.619531 298.435375)rotate(-90)scale(0.17 -0.17)">
      <use xlink:href="#DejaVuSans-70"/>
      <use x="57.410156" xlink:href="#DejaVuSans-114"/>
      <use x="98.523438" xlink:href="#DejaVuSans-97"/>
      <use x="159.802734" xlink:href="#DejaVuSans-99"/>
      <use x="214.783203" xlink:href="#DejaVuSans-116"/>
      <use x="253.992188" xlink:href="#DejaVuSans-105"/>
      <use x="281.775391" xlink:href="#DejaVuSans-111"/>
      <use x="342.957031" xlink:href="#DejaVuSans-110"/>
      <use x="406.335938" xlink:href="#DejaVuSans-32"/>
      <use x="438.123047" xlink:href="#DejaVuSans-111"/>
      <use x="499.304688" xlink:href="#DejaVuSans-102"/>
      <use x="534.509766" xlink:href="#DejaVuSans-32"/>
      <use x="566.296875" xlink:href="#DejaVuSans-102"/>
      <use x="601.501953" xlink:href="#DejaVuSans-117"/>
      <use x="664.880859" xlink:href="#DejaVuSans-110"/>
      <use x="728.259766" xlink:href="#DejaVuSans-99"/>
      <use x="783.240234" xlink:href="#DejaVuSans-116"/>
      <use x="822.449219" xlink:href="#DejaVuSans-105"/>
      <use x="850.232422" xlink:href="#DejaVuSans-111"/>
      <use x="911.414062" xlink:href="#DejaVuSans-110"/>
      <use x="974.792969" xlink:href="#DejaVuSans-44"/>
      <use x="1006.580078" xlink:href="#DejaVuSans-116"/>
      <use x="1045.789062" xlink:href="#DejaVuSans-97"/>
      <use x="1107.068359" xlink:href="#DejaVuSans-114"/>
      <use x="1148.166016" xlink:href="#DejaVuSans-103"/>
      <use x="1211.642578" xlink:href="#DejaVuSans-101"/>
      <use x="1273.166016" xlink:href="#DejaVuSans-116"/>
      <use x="1312.375" xlink:href="#DejaVuSans-32"/>
      <use x="1344.162109" xlink:href="#DejaVuSans-112"/>
      <use x="1407.638672" xlink:href="#DejaVuSans-97"/>
      <use x="1468.917969" xlink:href="#DejaVuSans-105"/>
      <use x="1496.701172" xlink:href="#DejaVuSans-114"/>
      <use x="1537.814453" xlink:href="#DejaVuSans-115"/>
     </g>
    </g>
   </g>
   <g id="line2d_33">
    <defs>
     <path d="M 0 1.5 
C 0.397805 1.5 0.77937 1.341951 1.06066 1.06066 
C 1.341951 0.77937 1.5 0.397805 1.5 0 
C 1.5 -0.397805 1.341951 -0.77937 1.06066 -1.06066 
C 0.77937 -1.341951 0.397805 -1.5 0 -1.5 
C -0.397805 -1.5 -0.77937 -1.341951 -1.06066 -1.06066 
C -1.341951 -0.77937 -1.5 -0.397805 -1.5 0 
C -1.5 0.397805 -1.341951 0.77937 -1.06066 1.06066 
C -0.77937 1.341951 -0.397805 1.5 0 1.5 
z
" id="m4150dc1c84" style="stroke:#f5deb3;"/>
    </defs>
    <g>
     <use style="fill:#f5deb3;stroke:#f5deb3;" x="284.096255" xlink:href="#m4150dc1c84" y="62.752535"/>
     <use style="fill:#f5deb3;stroke:#f5deb3;" x="284.096255" xlink:href="#m4150dc1c84" y="62.752535"/>
    </g>
   </g>
   <g id="line2d_34">
    <defs>
     <path d="M 0 1.5 
C 0.397805 1.5 0.77937 1.341951 1.06066 1.06066 
C 1.341951 0.77937 1.5 0.397805 1.5 0 
C 1.5 -0.397805 1.341951 -0.77937 1.06066 -1.06066 
C 0.77937 -1.341951 0.397805 -1.5 0 -1.5 
C -0.397805 -1.5 -0.77937 -1.341951 -1.06066 -1.06066 
C -1.341951 -0.77937 -1.5 -0.397805 -1.5 0 
C -1.5 0.397805 -1.341951 0.77937 -1.06066 1.06066 
C -0.77937 1.341951 -0.397805 1.5 0 1.5 
z
" id="ma2957ae766" style="stroke:#000080;"/>
    </defs>
    <g>
     <use style="fill:#000080;stroke:#000080;" x="246.047288" xlink:href="#ma2957ae766" y="137.778059"/>
     <use style="fill:#000080;stroke:#000080;" x="246.047288" xlink:href="#ma2957ae766" y="137.778059"/>
    </g>
   </g>
   <g id="line2d_35">
    <path d="M 38.440992 298.944 
L 38.440992 289.68159 
L 69.687988 289.68159 
L 69.687988 288.755349 
L 83.171864 288.755349 
L 83.171864 286.902867 
L 85.66744 286.902867 
L 85.66744 285.976625 
L 86.792945 285.976625 
L 86.792945 283.197902 
L 89.78989 283.197902 
L 89.78989 277.640456 
L 91.535274 277.640456 
L 91.535274 276.714215 
L 93.121756 276.714215 
L 93.121756 275.787974 
L 95.259853 275.787974 
L 95.259853 273.935492 
L 95.918017 273.935492 
L 95.918017 273.009251 
L 103.203018 273.009251 
L 103.203018 271.156769 
L 104.033617 271.156769 
L 104.033617 269.304287 
L 105.951954 269.304287 
L 105.951954 268.378046 
L 108.326001 268.378046 
L 108.326001 267.451805 
L 109.550313 267.451805 
L 109.550313 266.525564 
L 110.131676 266.525564 
L 110.131676 265.599323 
L 113.73488 265.599323 
L 113.73488 262.8206 
L 120.571812 262.8206 
L 120.571812 260.968117 
L 122.362027 260.968117 
L 122.362027 260.041876 
L 124.494669 260.041876 
L 124.494669 259.115635 
L 127.165014 259.115635 
L 127.165014 255.410671 
L 128.905271 255.410671 
L 128.905271 254.48443 
L 129.385722 254.48443 
L 129.385722 252.631948 
L 129.667765 252.631948 
L 129.667765 251.705707 
L 135.548916 251.705707 
L 135.548916 250.779466 
L 137.016339 250.779466 
L 137.016339 249.853225 
L 139.199094 249.853225 
L 139.199094 248.000743 
L 143.569835 248.000743 
L 143.569835 247.074502 
L 144.06695 247.074502 
L 144.06695 244.295779 
L 145.665858 244.295779 
L 145.665858 242.443297 
L 151.178764 242.443297 
L 151.178764 240.590815 
L 151.367883 240.590815 
L 151.367883 237.812091 
L 153.890309 237.812091 
L 153.890309 236.88585 
L 154.235652 236.88585 
L 154.235652 235.959609 
L 159.439685 235.959609 
L 159.439685 235.033368 
L 159.724893 235.033368 
L 159.724893 232.254645 
L 159.84099 232.254645 
L 159.906985 229.475922 
L 160.103486 229.475922 
L 160.103486 227.62344 
L 160.758635 227.62344 
L 160.758635 225.770958 
L 162.770815 225.770958 
L 162.770815 223.918476 
L 163.185069 223.918476 
L 163.185069 222.065994 
L 165.047026 222.065994 
L 165.047026 221.139753 
L 165.53081 221.139753 
L 165.53081 218.36103 
L 173.51582 218.36103 
L 173.51582 216.508548 
L 178.291535 216.508548 
L 178.291535 215.582307 
L 182.138181 215.582307 
L 182.138181 213.729825 
L 183.505367 213.729825 
L 183.505367 212.803583 
L 183.657898 212.803583 
L 183.657898 210.951101 
L 183.817468 210.951101 
L 183.817468 210.02486 
L 187.645278 210.02486 
L 187.645278 209.098619 
L 189.399929 209.098619 
L 189.399929 208.172378 
L 191.882348 208.172378 
L 191.882348 206.319896 
L 193.672049 206.319896 
L 193.672049 204.467414 
L 193.837553 204.467414 
L 193.837553 203.541173 
L 199.09755 203.541173 
L 199.09755 202.614932 
L 202.044959 202.614932 
L 202.044959 200.76245 
L 204.990229 200.76245 
L 204.990229 199.836209 
L 207.306036 199.836209 
L 207.306036 197.983727 
L 210.362324 197.983727 
L 210.362324 196.131245 
L 211.590671 196.131245 
L 211.590671 194.278763 
L 213.682564 194.278763 
L 213.682564 193.352522 
L 213.940075 193.352522 
L 213.988308 186.868834 
L 214.809012 186.868834 
L 214.809012 185.942593 
L 218.582439 185.942593 
L 218.582439 185.016352 
L 220.006555 185.016352 
L 220.006555 184.090111 
L 220.986556 184.090111 
L 220.986556 182.237629 
L 221.470889 182.237629 
L 221.470889 181.311388 
L 222.796711 181.311388 
L 222.796711 179.458906 
L 225.738095 179.458906 
L 225.795421 176.680183 
L 226.186729 176.680183 
L 226.195931 172.975219 
L 228.047651 172.975219 
L 228.047651 172.048978 
L 233.474236 172.048978 
L 233.478357 169.270255 
L 234.946301 169.270255 
L 234.946301 167.417773 
L 235.062879 167.417773 
L 235.092289 165.565291 
L 237.359201 165.565291 
L 237.438178 145.187988 
L 238.172619 145.187988 
L 238.172619 144.261747 
L 238.834109 144.261747 
L 238.834109 141.483024 
L 240.15697 141.483024 
L 240.15697 140.556783 
L 244.195777 140.556783 
L 244.195777 139.630541 
L 246.047288 139.630541 
L 246.047288 137.778059 
L 338.688 137.778059 
L 338.688 137.778059 
" style="fill:none;stroke:#000080;stroke-linecap:square;stroke-width:1.5;"/>
   </g>
   <g id="line2d_36">
    <defs>
     <path d="M 0 6 
C 1.591219 6 3.117479 5.367802 4.242641 4.242641 
C 5.367802 3.117479 6 1.591219 6 0 
C 6 -1.591219 5.367802 -3.117479 4.242641 -4.242641 
C 3.117479 -5.367802 1.591219 -6 0 -6 
C -1.591219 -6 -3.117479 -5.367802 -4.242641 -4.242641 
C -5.367802 -3.117479 -6 -1.591219 -6 0 
C -6 1.591219 -5.367802 3.117479 -4.242641 4.242641 
C -3.117479 5.367802 -1.591219 6 0 6 
z
" id="m265d6893b3" style="stroke:#000080;stroke-width:1.5;"/>
    </defs>
    <g>
     <use style="fill-opacity:0;stroke:#000080;stroke-width:1.5;" x="89.78989" xlink:href="#m265d6893b3" y="283.197902"/>
     <use style="fill-opacity:0;stroke:#000080;stroke-width:1.5;" x="160.758635" xlink:href="#m265d6893b3" y="225.770958"/>
     <use style="fill-opacity:0;stroke:#000080;stroke-width:1.5;" x="213.682564" xlink:href="#m265d6893b3" y="193.352522"/>
     <use style="fill-opacity:0;stroke:#000080;stroke-width:1.5;" x="246.047288" xlink:href="#m265d6893b3" y="139.630541"/>
     <use style="fill-opacity:0;stroke:#000080;stroke-width:1.5;" x="246.047288" xlink:href="#m265d6893b3" y="137.778059"/>
     <use style="fill-opacity:0;stroke:#000080;stroke-width:1.5;" x="338.688" xlink:href="#m265d6893b3" y="137.778059"/>
    </g>
   </g>
   <g id="line2d_37">
    <path style="fill:none;stroke:#000080;stroke-linecap:square;stroke-width:1.5;"/>
    <g/>
   </g>
   <g id="line2d_38">
    <path clip-path="url(#p980ca6bce5)" d="M 246.290084 137.778059 
" style="fill:none;stroke:#000080;stroke-linecap:square;stroke-width:1.5;"/>
    <defs>
     <path d="M -12 12 
L 12 -12 
M -12 -12 
L 12 12 
" id="me4e2f88936" style="stroke:#000080;"/>
    </defs>
    <g clip-path="url(#p980ca6bce5)">
     <use style="fill:#000080;stroke:#000080;" x="246.290084" xlink:href="#me4e2f88936" y="137.778059"/>
    </g>
   </g>
   <g id="line2d_39">
    <defs>
     <path d="M 0 1.5 
C 0.397805 1.5 0.77937 1.341951 1.06066 1.06066 
C 1.341951 0.77937 1.5 0.397805 1.5 0 
C 1.5 -0.397805 1.341951 -0.77937 1.06066 -1.06066 
C 0.77937 -1.341951 0.397805 -1.5 0 -1.5 
C -0.397805 -1.5 -0.77937 -1.341951 -1.06066 -1.06066 
C -1.341951 -0.77937 -1.5 -0.397805 -1.5 0 
C -1.5 0.397805 -1.341951 0.77937 -1.06066 1.06066 
C -0.77937 1.341951 -0.397805 1.5 0 1.5 
z
" id="m591f565bd9" style="stroke:#ff00ff;"/>
    </defs>
    <g>
     <use style="fill:#ff00ff;stroke:#ff00ff;" x="292.586425" xlink:href="#m591f565bd9" y="65.068138"/>
     <use style="fill:#ff00ff;stroke:#ff00ff;" x="292.586425" xlink:href="#m591f565bd9" y="65.068138"/>
    </g>
   </g>
   <g id="line2d_40">
    <path d="M 38.440992 298.944 
L 38.440992 285.050384 
L 57.6 285.050384 
L 57.6 284.124143 
L 62.616969 284.124143 
L 62.616969 283.661023 
L 66.508432 283.661023 
L 66.508432 280.419179 
L 69.687988 280.419179 
L 69.687988 278.103577 
L 72.376266 278.103577 
L 72.376266 276.714215 
L 76.759008 276.714215 
L 76.759008 275.787974 
L 78.59642 275.787974 
L 78.59642 274.861733 
L 80.258561 274.861733 
L 80.258561 274.398612 
L 81.775977 274.398612 
L 81.775977 273.009251 
L 83.171864 273.009251 
L 83.171864 271.619889 
L 88.846997 271.619889 
L 88.846997 271.156769 
L 90.684409 271.156769 
L 90.684409 270.693648 
L 91.535274 270.693648 
L 91.535274 269.767407 
L 92.34655 269.767407 
L 92.34655 267.914925 
L 93.121756 267.914925 
L 93.121756 266.525564 
L 93.863965 266.525564 
L 93.863965 266.062443 
L 96.552242 266.062443 
L 96.552242 265.599323 
L 97.755429 265.599323 
L 97.755429 265.136202 
L 101.412804 265.136202 
L 101.412804 263.746841 
L 102.330873 263.746841 
L 102.330873 263.28372 
L 103.203018 263.28372 
L 103.203018 262.357479 
L 103.623262 262.357479 
L 103.623262 260.968117 
L 104.033617 260.968117 
L 104.033617 260.041876 
L 105.951954 260.041876 
L 105.951954 259.115635 
L 106.311539 259.115635 
L 106.311539 258.189394 
L 108.640231 258.189394 
L 108.640231 257.726274 
L 109.843417 257.726274 
L 109.843417 257.263153 
L 111.767808 257.263153 
L 111.767808 256.800033 
L 112.531694 256.800033 
L 112.531694 256.336912 
L 114.641021 256.336912 
L 114.641021 255.873792 
L 115.077025 255.873792 
L 115.077025 255.410671 
L 116.914437 255.410671 
L 116.914437 254.48443 
L 118.576578 254.48443 
L 118.576578 254.02131 
L 119.267333 254.02131 
L 119.267333 253.095069 
L 122.076131 253.095069 
L 122.076131 252.168828 
L 122.219665 252.168828 
L 122.219665 251.242587 
L 125.110962 251.242587 
L 125.110962 250.316346 
L 126.053856 250.316346 
L 126.053856 249.853225 
L 129.760775 249.853225 
L 129.760775 249.390104 
L 130.036864 249.390104 
L 130.036864 248.926984 
L 130.218525 248.926984 
L 130.218525 248.000743 
L 130.487516 248.000743 
L 130.487516 247.074502 
L 131.270459 247.074502 
L 131.270459 245.68514 
L 131.938072 245.68514 
L 131.938072 244.758899 
L 134.019394 244.758899 
L 134.019394 244.295779 
L 135.747468 244.295779 
L 135.747468 243.832658 
L 136.393441 243.832658 
L 136.456742 242.443297 
L 137.439497 242.443297 
L 137.439497 241.980176 
L 137.735587 241.980176 
L 137.735587 241.517056 
L 138.426341 241.517056 
L 138.426341 240.590815 
L 139.466984 240.590815 
L 139.520072 239.664574 
L 141.521035 239.664574 
L 141.521035 239.201453 
L 142.351634 239.201453 
L 142.441528 238.275212 
L 142.796538 238.275212 
L 142.796538 237.348971 
L 143.31586 237.348971 
L 143.31586 236.42273 
L 145.888018 236.42273 
L 145.888018 235.959609 
L 147.86833 235.959609 
L 147.86833 235.033368 
L 148.54473 235.033368 
L 148.54473 234.570248 
L 152.637225 234.570248 
L 152.637225 233.644007 
L 155.928852 233.644007 
L 155.928852 232.717766 
L 169.588476 232.717766 
L 169.588476 231.791525 
L 172.546075 231.791525 
L 172.546075 230.865284 
L 178.643741 230.865284 
L 178.643741 229.939043 
L 180.483402 229.939043 
L 180.483402 226.234079 
L 181.090134 226.234079 
L 181.090134 225.770958 
L 183.813288 225.770958 
L 183.813288 224.381596 
L 184.638052 224.381596 
L 184.737466 222.992235 
L 185.145055 222.992235 
L 185.145055 222.065994 
L 193.818718 222.065994 
L 193.818718 221.602873 
L 195.070677 221.602873 
L 195.070677 221.139753 
L 195.863606 221.139753 
L 195.863606 220.676632 
L 196.005491 220.676632 
L 196.005491 220.213512 
L 196.607997 220.213512 
L 196.607997 219.287271 
L 197.881305 219.287271 
L 197.881305 218.82415 
L 200.495043 218.82415 
L 200.495043 218.36103 
L 200.826018 218.36103 
L 200.826018 217.434789 
L 201.685588 217.434789 
L 201.685588 216.971668 
L 202.266951 216.971668 
L 202.266951 216.045427 
L 203.340498 216.045427 
L 203.340498 215.119186 
L 204.213442 215.119186 
L 204.213442 214.656066 
L 208.534641 214.656066 
L 208.534641 213.729825 
L 212.462941 213.729825 
L 212.462941 211.877342 
L 213.587284 211.877342 
L 213.587284 211.414222 
L 216.479635 211.414222 
L 216.479635 210.487981 
L 217.874138 210.487981 
L 217.874138 210.02486 
L 218.421696 210.02486 
L 218.421696 209.098619 
L 220.654006 209.098619 
L 220.654006 208.172378 
L 220.955772 208.172378 
L 220.955772 207.709258 
L 221.384793 207.709258 
L 221.384793 207.246137 
L 224.791486 207.246137 
L 224.791486 205.393655 
L 224.952273 205.393655 
L 224.977546 204.467414 
L 225.225561 204.467414 
L 225.225561 203.541173 
L 225.608417 203.541173 
L 225.608417 203.078053 
L 230.359334 203.078053 
L 230.359334 202.614932 
L 230.542698 202.614932 
L 230.545279 201.225571 
L 231.224671 201.225571 
L 231.224671 200.76245 
L 231.71471 200.76245 
L 231.71471 199.836209 
L 231.898763 199.836209 
L 231.898763 198.909968 
L 232.215864 198.909968 
L 232.215864 198.446847 
L 232.356777 198.446847 
L 232.451633 193.815642 
L 232.496817 193.815642 
L 232.523206 192.889401 
L 232.693387 192.889401 
L 232.693387 192.426281 
L 232.958073 192.426281 
L 233.016655 191.036919 
L 233.10775 191.036919 
L 233.10775 190.573799 
L 233.805609 190.573799 
L 233.805609 190.110678 
L 234.099724 190.110678 
L 234.099724 189.647558 
L 234.242506 189.647558 
L 234.242506 188.721316 
L 235.572782 188.721316 
L 235.572782 188.258196 
L 235.959223 188.258196 
L 236.021967 186.405714 
L 236.107014 186.405714 
L 236.167153 185.016352 
L 236.659529 185.016352 
L 236.721821 183.626991 
L 236.821947 183.626991 
L 236.821947 182.70075 
L 237.042237 182.70075 
L 237.042237 182.237629 
L 237.550988 182.237629 
L 237.63846 179.922027 
L 237.879832 179.922027 
L 237.979161 178.532665 
L 238.066753 178.532665 
L 238.11568 177.143304 
L 238.332609 177.143304 
L 238.332609 176.217062 
L 238.956334 176.217062 
L 238.956334 175.290821 
L 239.195099 175.290821 
L 239.195099 174.827701 
L 239.52925 174.827701 
L 239.52925 172.048978 
L 240.442816 172.048978 
L 240.442816 171.585857 
L 240.839483 171.585857 
L 240.850921 170.659616 
L 241.035898 170.659616 
L 241.035898 170.196496 
L 241.795043 170.196496 
L 241.894948 167.880893 
L 241.933944 167.880893 
L 241.984911 166.491532 
L 242.307647 166.491532 
L 242.333338 164.63905 
L 242.478162 164.63905 
L 242.478162 164.175929 
L 243.652016 164.175929 
L 243.652016 163.712808 
L 243.835918 163.712808 
L 243.915761 162.323447 
L 244.58737 162.323447 
L 244.58737 161.860326 
L 245.014821 161.860326 
L 245.014821 161.397206 
L 245.594195 161.397206 
L 245.594195 160.934085 
L 246.441949 160.934085 
L 246.441949 160.470965 
L 247.402884 160.470965 
L 247.402884 160.007844 
L 248.013753 160.007844 
L 248.013753 159.544724 
L 248.135597 159.544724 
L 248.198859 155.83976 
L 248.292183 155.83976 
L 248.376141 154.913519 
L 248.468832 154.913519 
L 248.468832 153.987278 
L 248.662288 153.987278 
L 248.751455 152.597916 
L 249.310363 152.597916 
L 249.41544 150.745434 
L 249.462219 150.745434 
L 249.55087 149.819193 
L 249.588437 149.819193 
L 249.697691 146.577349 
L 249.764688 146.577349 
L 249.857978 144.261747 
L 249.897442 144.261747 
L 250.004595 141.946144 
L 250.010325 141.946144 
L 250.063966 140.556783 
L 250.138899 140.556783 
L 250.138899 140.093662 
L 250.929228 140.093662 
L 250.929228 139.630541 
L 251.087199 139.630541 
L 251.087199 138.7043 
L 251.266928 138.7043 
L 251.266928 138.24118 
L 251.825924 138.24118 
L 251.825924 137.778059 
L 252.722228 137.778059 
L 252.722228 136.851818 
L 254.348681 136.851818 
L 254.348681 135.925577 
L 254.723191 135.925577 
L 254.723191 134.536216 
L 256.249911 134.536216 
L 256.304138 131.757493 
L 256.812991 131.757493 
L 256.812991 130.831252 
L 256.931366 130.831252 
L 256.931366 130.368131 
L 257.086354 130.368131 
L 257.086354 129.44189 
L 257.49706 129.44189 
L 257.49706 128.515649 
L 257.663178 128.515649 
L 257.714155 127.126287 
L 257.822928 127.126287 
L 257.822928 126.663167 
L 258.157072 126.663167 
L 258.260024 125.273805 
L 258.269151 125.273805 
L 258.344676 122.958203 
L 258.512353 122.958203 
L 258.604171 119.716359 
L 258.675005 119.716359 
L 258.732628 118.326998 
L 259.02565 118.326998 
L 259.090667 116.474516 
L 259.321927 116.474516 
L 259.363397 115.085154 
L 259.453477 115.085154 
L 259.453477 114.622033 
L 259.701894 114.622033 
L 259.701894 114.158913 
L 259.815263 114.158913 
L 259.815263 113.695792 
L 260.262395 113.695792 
L 260.262395 113.232672 
L 260.421891 113.232672 
L 260.421891 112.769551 
L 260.81439 112.769551 
L 260.902124 111.38019 
L 261.207394 111.38019 
L 261.207394 110.917069 
L 261.827368 110.917069 
L 261.827368 110.453949 
L 265.202877 110.453949 
L 265.202877 109.990828 
L 266.061985 109.990828 
L 266.061985 109.527708 
L 266.178847 109.527708 
L 266.178847 108.601467 
L 266.298991 108.601467 
L 266.298991 107.675226 
L 267.21137 107.675226 
L 267.263727 106.748985 
L 267.844113 106.748985 
L 267.844113 106.285864 
L 268.045719 106.285864 
L 268.045719 104.433382 
L 268.408191 104.433382 
L 268.408191 103.04402 
L 268.560903 103.04402 
L 268.560903 102.117779 
L 268.705763 102.117779 
L 268.745873 100.265297 
L 268.934806 100.265297 
L 268.934806 99.802177 
L 269.101327 99.802177 
L 269.101327 99.339056 
L 269.254594 99.339056 
L 269.254594 98.875936 
L 269.380842 98.875936 
L 269.390614 96.097213 
L 269.528095 96.097213 
L 269.545691 94.244731 
L 269.750137 94.244731 
L 269.858361 92.392249 
L 269.927741 92.392249 
L 270.037374 90.076646 
L 270.249445 90.076646 
L 270.249445 89.613525 
L 270.452541 89.613525 
L 270.452541 88.687284 
L 270.840398 88.687284 
L 270.840398 87.761043 
L 270.951695 87.761043 
L 270.951695 87.297923 
L 271.502455 87.297923 
L 271.502455 84.98232 
L 272.606599 84.98232 
L 272.606599 84.5192 
L 273.051239 84.5192 
L 273.1149 82.666718 
L 273.496578 82.666718 
L 273.552209 80.814236 
L 274.098665 80.814236 
L 274.098665 80.351115 
L 274.211104 80.351115 
L 274.211104 79.424874 
L 275.055504 79.424874 
L 275.055504 78.498633 
L 275.656684 78.498633 
L 275.656684 77.572392 
L 275.787604 77.572392 
L 275.787604 77.109271 
L 277.172102 77.109271 
L 277.172102 76.18303 
L 278.420037 76.18303 
L 278.485927 74.793669 
L 278.565439 74.793669 
L 278.619497 72.478066 
L 280.124272 72.478066 
L 280.176229 71.088705 
L 286.296302 71.088705 
L 286.296302 70.625584 
L 286.453149 70.625584 
L 286.453149 69.699343 
L 287.019114 69.699343 
L 287.019114 68.773102 
L 287.465434 68.773102 
L 287.465434 68.309982 
L 292.358992 68.309982 
L 292.358992 67.846861 
L 292.510905 67.846861 
L 292.586425 65.068138 
L 338.688 65.068138 
L 338.688 65.068138 
" style="fill:none;stroke:#ff00ff;stroke-linecap:square;stroke-width:1.5;"/>
   </g>
   <g id="line2d_41">
    <defs>
     <path d="M 0 8.485281 
L 5.091169 0 
L 0 -8.485281 
L -5.091169 0 
z
" id="m67f62324eb" style="stroke:#ff00ff;stroke-linejoin:miter;stroke-width:1.5;"/>
    </defs>
    <g>
     <use style="fill-opacity:0;stroke:#ff00ff;stroke-linejoin:miter;stroke-width:1.5;" x="88.846997" xlink:href="#m67f62324eb" y="271.619889"/>
     <use style="fill-opacity:0;stroke:#ff00ff;stroke-linejoin:miter;stroke-width:1.5;" x="184.737466" xlink:href="#m67f62324eb" y="223.918476"/>
     <use style="fill-opacity:0;stroke:#ff00ff;stroke-linejoin:miter;stroke-width:1.5;" x="237.918204" xlink:href="#m67f62324eb" y="179.458906"/>
     <use style="fill-opacity:0;stroke:#ff00ff;stroke-linejoin:miter;stroke-width:1.5;" x="278.619497" xlink:href="#m67f62324eb" y="72.478066"/>
     <use style="fill-opacity:0;stroke:#ff00ff;stroke-linejoin:miter;stroke-width:1.5;" x="292.586425" xlink:href="#m67f62324eb" y="65.068138"/>
     <use style="fill-opacity:0;stroke:#ff00ff;stroke-linejoin:miter;stroke-width:1.5;" x="338.688" xlink:href="#m67f62324eb" y="65.068138"/>
    </g>
   </g>
   <g id="line2d_42">
    <path style="fill:none;stroke:#ff00ff;stroke-linecap:square;stroke-width:1.5;"/>
    <g/>
   </g>
   <g id="line2d_43">
    <path clip-path="url(#p980ca6bce5)" d="M 301.390941 65.068138 
" style="fill:none;stroke:#ff00ff;stroke-linecap:square;stroke-width:1.5;"/>
    <defs>
     <path d="M -12 12 
L 12 -12 
M -12 -12 
L 12 12 
" id="m70a8a45e07" style="stroke:#ff00ff;"/>
    </defs>
    <g clip-path="url(#p980ca6bce5)">
     <use style="fill:#ff00ff;stroke:#ff00ff;" x="301.390941" xlink:href="#m70a8a45e07" y="65.068138"/>
    </g>
   </g>
   <g id="line2d_44">
    <defs>
     <path d="M 0 1.5 
C 0.397805 1.5 0.77937 1.341951 1.06066 1.06066 
C 1.341951 0.77937 1.5 0.397805 1.5 0 
C 1.5 -0.397805 1.341951 -0.77937 1.06066 -1.06066 
C 0.77937 -1.341951 0.397805 -1.5 0 -1.5 
C -0.397805 -1.5 -0.77937 -1.341951 -1.06066 -1.06066 
C -1.341951 -0.77937 -1.5 -0.397805 -1.5 0 
C -1.5 0.397805 -1.341951 0.77937 -1.06066 1.06066 
C -0.77937 1.341951 -0.397805 1.5 0 1.5 
z
" id="m22351bfcc5" style="stroke:#ff7500;"/>
    </defs>
    <g>
     <use style="fill:#ff7500;stroke:#ff7500;" x="259.904162" xlink:href="#m22351bfcc5" y="145.187988"/>
     <use style="fill:#ff7500;stroke:#ff7500;" x="259.904162" xlink:href="#m22351bfcc5" y="145.187988"/>
    </g>
   </g>
   <g id="line2d_45">
    <path d="M 38.440992 298.944 
L 38.440992 296.165277 
L 50.52898 296.165277 
L 50.52898 294.775915 
L 62.616969 294.775915 
L 62.616969 292.460313 
L 66.508432 292.460313 
L 66.508432 291.534072 
L 72.376266 291.534072 
L 72.376266 289.218469 
L 74.704957 289.218469 
L 74.704957 288.755349 
L 80.258561 288.755349 
L 80.258561 287.365987 
L 84.464254 287.365987 
L 84.464254 285.976625 
L 85.66744 285.976625 
L 85.66744 284.587264 
L 87.850195 284.587264 
L 87.850195 284.124143 
L 88.846997 284.124143 
L 88.846997 283.661023 
L 89.78989 283.661023 
L 89.78989 283.197902 
L 91.535274 283.197902 
L 91.535274 282.271661 
L 93.863965 282.271661 
L 93.863965 281.808541 
L 95.259853 281.808541 
L 95.259853 280.8823 
L 95.918017 280.8823 
L 95.918017 280.419179 
L 97.755429 280.419179 
L 97.755429 278.103577 
L 98.32726 278.103577 
L 98.32726 277.640456 
L 99.41757 277.640456 
L 99.41757 277.177336 
L 103.623262 277.177336 
L 103.623262 276.714215 
L 104.033617 276.714215 
L 104.033617 276.251095 
L 106.311539 276.251095 
L 106.311539 275.324854 
L 109.550313 275.324854 
L 109.550313 274.861733 
L 109.843417 274.861733 
L 109.843417 273.935492 
L 110.131676 273.935492 
L 110.131676 273.472371 
L 110.694282 273.472371 
L 110.694282 273.009251 
L 111.239304 273.009251 
L 111.239304 272.08301 
L 112.280765 272.08301 
L 112.280765 271.619889 
L 113.022974 271.619889 
L 113.022974 271.156769 
L 114.193835 271.156769 
L 114.193835 270.693648 
L 115.077025 270.693648 
L 115.077025 269.767407 
L 115.291007 269.767407 
L 115.291007 269.304287 
L 115.917635 269.304287 
L 115.917635 268.378046 
L 120.254726 268.378046 
L 120.254726 267.451805 
L 120.883236 267.451805 
L 120.883236 266.988684 
L 122.219665 266.988684 
L 122.219665 266.062443 
L 123.327293 266.062443 
L 123.327293 265.599323 
L 124.368753 265.599323 
L 124.368753 265.136202 
L 125.822869 265.136202 
L 125.822869 264.673082 
L 127.695124 264.673082 
L 127.799239 263.746841 
L 128.905271 263.746841 
L 128.905271 262.8206 
L 132.659801 262.8206 
L 132.659801 261.894358 
L 135.943785 261.894358 
L 135.943785 261.431238 
L 136.769843 261.431238 
L 136.769843 260.968117 
L 138.594838 260.968117 
L 138.594838 260.504997 
L 139.625765 260.504997 
L 139.625765 260.041876 
L 140.042245 260.041876 
L 140.042245 259.115635 
L 140.297583 259.115635 
L 140.297583 258.652515 
L 140.89556 258.652515 
L 140.89556 258.189394 
L 141.33096 258.189394 
L 141.33096 257.726274 
L 141.521035 257.726274 
L 141.521035 256.800033 
L 144.026061 256.800033 
L 144.026061 256.336912 
L 144.470655 256.336912 
L 144.470655 255.873792 
L 146.714338 255.873792 
L 146.714338 255.410671 
L 149.676158 255.410671 
L 149.676158 254.947551 
L 149.969756 254.947551 
L 149.969756 254.48443 
L 150.344189 254.48443 
L 150.344189 254.02131 
L 150.822008 254.02131 
L 150.822008 253.558189 
L 152.662192 253.558189 
L 152.662192 253.095069 
L 153.466662 253.095069 
L 153.466662 252.631948 
L 153.679772 252.631948 
L 153.679772 252.168828 
L 154.144227 252.168828 
L 154.144227 251.242587 
L 158.465753 251.242587 
L 158.465753 250.316346 
L 159.923445 250.316346 
L 159.923445 249.853225 
L 161.660209 249.853225 
L 161.734513 247.074502 
L 162.014019 247.074502 
L 162.014019 243.832658 
L 162.79874 243.832658 
L 162.79874 242.906417 
L 166.994465 242.906417 
L 166.994465 241.980176 
L 167.158215 241.980176 
L 167.158215 241.517056 
L 168.273531 241.517056 
L 168.283721 240.590815 
L 169.446113 240.590815 
L 169.446113 239.664574 
L 169.906925 239.664574 
L 169.916203 238.275212 
L 171.142873 238.275212 
L 171.142873 237.812091 
L 174.598353 237.812091 
L 174.598353 237.348971 
L 175.737594 237.348971 
L 175.737594 235.033368 
L 176.363988 235.033368 
L 176.421575 234.107127 
L 176.725536 234.107127 
L 176.725536 233.180886 
L 176.97485 233.180886 
L 176.97485 232.717766 
L 177.214548 232.717766 
L 177.214548 232.254645 
L 177.38463 232.254645 
L 177.38463 231.328404 
L 179.860045 231.328404 
L 179.860045 230.402163 
L 181.303877 230.402163 
L 181.303877 229.475922 
L 181.676464 229.475922 
L 181.676464 229.012802 
L 182.695307 229.012802 
L 182.695307 228.549681 
L 183.632568 228.549681 
L 183.632568 228.086561 
L 183.813288 228.086561 
L 183.813288 227.62344 
L 184.02936 227.62344 
L 184.058243 226.697199 
L 184.550096 226.697199 
L 184.550096 225.770958 
L 185.795183 225.770958 
L 185.795183 225.307837 
L 186.080199 225.307837 
L 186.080199 224.381596 
L 186.824091 224.381596 
L 186.824091 223.455355 
L 187.072105 223.455355 
L 187.072105 222.529114 
L 187.364457 222.529114 
L 187.364457 222.065994 
L 187.795661 222.065994 
L 187.795661 220.676632 
L 188.72226 220.676632 
L 188.72226 220.213512 
L 192.495314 220.213512 
L 192.495314 219.287271 
L 192.699964 219.287271 
L 192.699964 218.36103 
L 194.045737 218.36103 
L 194.045737 217.897909 
L 195.752213 217.897909 
L 195.752213 216.508548 
L 196.682118 216.508548 
L 196.682118 215.582307 
L 197.410328 215.582307 
L 197.410328 214.656066 
L 197.663476 214.656066 
L 197.729487 213.266704 
L 198.957755 213.266704 
L 198.957755 212.340463 
L 199.431969 212.340463 
L 199.431969 210.487981 
L 199.595113 210.487981 
L 199.595113 209.56174 
L 200.098605 209.56174 
L 200.098605 208.172378 
L 200.979807 208.172378 
L 200.979807 207.709258 
L 201.610405 207.709258 
L 201.610405 206.783017 
L 201.990491 206.783017 
L 201.990491 206.319896 
L 202.621767 206.319896 
L 202.621767 205.856776 
L 203.040454 205.856776 
L 203.040454 205.393655 
L 204.738904 205.393655 
L 204.738904 204.930535 
L 205.499156 204.930535 
L 205.499156 204.004294 
L 206.543919 204.004294 
L 206.543919 203.078053 
L 207.431679 203.078053 
L 207.431679 202.151812 
L 208.034154 202.151812 
L 208.034154 201.225571 
L 208.786091 201.225571 
L 208.786091 200.299329 
L 209.788273 200.299329 
L 209.788273 199.373088 
L 210.820603 199.373088 
L 210.841917 197.983727 
L 210.941922 197.983727 
L 210.941922 197.520606 
L 211.269746 197.520606 
L 211.269746 196.594365 
L 211.556628 196.594365 
L 211.556628 195.668124 
L 212.209585 195.668124 
L 212.209585 195.205004 
L 212.697514 195.205004 
L 212.697514 194.278763 
L 213.264325 194.278763 
L 213.336783 193.352522 
L 213.408176 193.352522 
L 213.408176 192.889401 
L 213.769825 192.889401 
L 213.769825 191.96316 
L 214.69126 191.96316 
L 214.69126 191.50004 
L 214.881677 191.50004 
L 214.881677 191.036919 
L 215.239151 191.036919 
L 215.239151 190.573799 
L 215.42098 190.573799 
L 215.42098 189.647558 
L 216.870289 189.647558 
L 216.870289 189.184437 
L 217.248081 189.184437 
L 217.248081 188.721316 
L 217.561806 188.721316 
L 217.583527 187.331955 
L 217.834361 187.331955 
L 217.893697 185.016352 
L 218.224039 185.016352 
L 218.331815 178.069545 
L 218.364133 178.069545 
L 218.364133 177.606424 
L 218.551663 177.606424 
L 218.626228 175.753942 
L 218.673873 175.753942 
L 218.737199 172.512098 
L 218.854196 172.512098 
L 218.854196 172.048978 
L 219.12951 172.048978 
L 219.12951 171.585857 
L 219.354848 171.585857 
L 219.448292 170.659616 
L 219.475903 170.659616 
L 219.574083 167.417773 
L 219.645482 167.417773 
L 219.645482 166.954652 
L 220.055289 166.954652 
L 220.055289 166.491532 
L 220.294358 166.491532 
L 220.294358 165.565291 
L 220.814061 165.565291 
L 220.909991 163.712808 
L 221.175528 163.712808 
L 221.175528 163.249688 
L 221.526769 163.249688 
L 221.526769 162.786567 
L 223.974987 162.786567 
L 223.974987 161.860326 
L 224.592128 161.860326 
L 224.592128 161.397206 
L 224.81779 161.397206 
L 224.81779 160.934085 
L 225.109241 160.934085 
L 225.109241 160.470965 
L 225.60423 160.470965 
L 225.60423 159.544724 
L 226.111829 159.544724 
L 226.111829 158.618483 
L 227.036069 158.618483 
L 227.036069 158.155362 
L 228.285926 158.155362 
L 228.285926 157.229121 
L 229.201551 157.229121 
L 229.201551 156.766001 
L 229.578106 156.766001 
L 229.578106 155.83976 
L 230.323649 155.83976 
L 230.354406 154.913519 
L 231.425668 154.913519 
L 231.425668 153.987278 
L 234.970791 153.987278 
L 234.970791 153.524157 
L 236.156555 153.524157 
L 236.156555 153.061037 
L 238.273981 153.061037 
L 238.320862 151.208554 
L 238.451463 151.208554 
L 238.451463 150.745434 
L 239.963046 150.745434 
L 239.963046 150.282313 
L 241.920955 150.282313 
L 241.920955 149.356072 
L 242.346461 149.356072 
L 242.346461 148.429831 
L 244.041855 148.429831 
L 244.041855 147.966711 
L 246.747883 147.966711 
L 246.747883 147.50359 
L 249.261214 147.50359 
L 249.261214 147.04047 
L 254.93529 147.04047 
L 254.93529 146.114229 
L 256.369875 146.114229 
L 256.369875 145.651108 
L 259.904162 145.651108 
L 259.904162 145.187988 
L 338.688 145.187988 
L 338.688 145.187988 
" style="fill:none;stroke:#ff7500;stroke-linecap:square;stroke-width:1.5;"/>
   </g>
   <g id="line2d_46">
    <defs>
     <path d="M 0 -6 
L -1.347084 -1.854102 
L -5.706339 -1.854102 
L -2.179628 0.708204 
L -3.526712 4.854102 
L -0 2.291796 
L 3.526712 4.854102 
L 2.179628 0.708204 
L 5.706339 -1.854102 
L 1.347084 -1.854102 
z
" id="m2074b71063" style="stroke:#ff7500;stroke-linejoin:bevel;stroke-width:1.5;"/>
    </defs>
    <g>
     <use style="fill-opacity:0;stroke:#ff7500;stroke-linejoin:bevel;stroke-width:1.5;" x="99.41757" xlink:href="#m2074b71063" y="277.177336"/>
     <use style="fill-opacity:0;stroke:#ff7500;stroke-linejoin:bevel;stroke-width:1.5;" x="169.916203" xlink:href="#m2074b71063" y="239.201453"/>
     <use style="fill-opacity:0;stroke:#ff7500;stroke-linejoin:bevel;stroke-width:1.5;" x="230.354406" xlink:href="#m2074b71063" y="154.913519"/>
     <use style="fill-opacity:0;stroke:#ff7500;stroke-linejoin:bevel;stroke-width:1.5;" x="259.904162" xlink:href="#m2074b71063" y="145.187988"/>
     <use style="fill-opacity:0;stroke:#ff7500;stroke-linejoin:bevel;stroke-width:1.5;" x="259.904162" xlink:href="#m2074b71063" y="145.187988"/>
     <use style="fill-opacity:0;stroke:#ff7500;stroke-linejoin:bevel;stroke-width:1.5;" x="338.688" xlink:href="#m2074b71063" y="145.187988"/>
    </g>
   </g>
   <g id="line2d_47">
    <path style="fill:none;stroke:#ff7500;stroke-linecap:square;stroke-width:1.5;"/>
    <g/>
   </g>
   <g id="line2d_48">
    <path clip-path="url(#p980ca6bce5)" d="M 298.532571 145.187988 
" style="fill:none;stroke:#ff7500;stroke-linecap:square;stroke-width:1.5;"/>
    <defs>
     <path d="M -12 12 
L 12 -12 
M -12 -12 
L 12 12 
" id="m0bf207745f" style="stroke:#ff7500;"/>
    </defs>
    <g clip-path="url(#p980ca6bce5)">
     <use style="fill:#ff7500;stroke:#ff7500;" x="298.532571" xlink:href="#m0bf207745f" y="145.187988"/>
    </g>
   </g>
   <g id="line2d_49">
    <path d="M 338.688 145.187988 
L 369.60768 293.571802 
" style="fill:none;stroke:#ff7500;stroke-linecap:square;stroke-width:1.5;"/>
    <g>
     <use style="fill-opacity:0;stroke:#ff7500;stroke-linejoin:bevel;stroke-width:1.5;" x="338.688" xlink:href="#m2074b71063" y="145.187988"/>
     <use style="fill-opacity:0;stroke:#ff7500;stroke-linejoin:bevel;stroke-width:1.5;" x="369.60768" xlink:href="#m2074b71063" y="293.571802"/>
    </g>
   </g>
   <g id="line2d_50">
    <path d="M 338.688 137.778059 
L 369.60768 207.616634 
" style="fill:none;stroke:#000080;stroke-linecap:square;stroke-width:1.5;"/>
    <g>
     <use style="fill-opacity:0;stroke:#000080;stroke-width:1.5;" x="338.688" xlink:href="#m265d6893b3" y="137.778059"/>
     <use style="fill-opacity:0;stroke:#000080;stroke-width:1.5;" x="369.60768" xlink:href="#m265d6893b3" y="207.616634"/>
    </g>
   </g>
   <g id="line2d_51">
    <path d="M 338.688 65.068138 
L 369.60768 121.661465 
" style="fill:none;stroke:#ff00ff;stroke-linecap:square;stroke-width:1.5;"/>
    <g>
     <use style="fill-opacity:0;stroke:#ff00ff;stroke-linejoin:miter;stroke-width:1.5;" x="338.688" xlink:href="#m67f62324eb" y="65.068138"/>
     <use style="fill-opacity:0;stroke:#ff00ff;stroke-linejoin:miter;stroke-width:1.5;" x="369.60768" xlink:href="#m67f62324eb" y="121.661465"/>
    </g>
   </g>
   <g id="line2d_52">
    <path d="M 338.688 298.944 
L 338.688 30.334099 
" style="fill:none;stroke:#000000;stroke-linecap:square;stroke-width:1.5;"/>
   </g>
   <g id="patch_3">
    <path d="M 57.6 298.944 
L 57.6 27.648 
" style="fill:none;stroke:#000000;stroke-linecap:square;stroke-linejoin:miter;stroke-width:0.8;"/>
   </g>
   <g id="patch_4">
    <path d="M 338.688 298.944 
L 338.688 27.648 
" style="fill:none;stroke:#000000;stroke-linecap:square;stroke-linejoin:miter;stroke-width:0.8;"/>
   </g>
   <g id="patch_5">
    <path d="M 57.6 298.944 
L 338.688 298.944 
" style="fill:none;stroke:#000000;stroke-linecap:square;stroke-linejoin:miter;stroke-width:0.8;"/>
   </g>
   <g id="patch_6">
    <path d="M 57.6 27.648 
L 338.688 27.648 
" style="fill:none;stroke:#000000;stroke-linecap:square;stroke-linejoin:miter;stroke-width:0.8;"/>
   </g>
   <g id="text_13">
    <!-- UP-MO-CMA -->
    <defs>
     <path d="M 8.6875 72.90625 
L 18.609375 72.90625 
L 18.609375 28.609375 
Q 18.609375 16.890625 22.84375 11.734375 
Q 27.09375 6.59375 36.625 6.59375 
Q 46.09375 6.59375 50.34375 11.734375 
Q 54.59375 16.890625 54.59375 28.609375 
L 54.59375 72.90625 
L 64.5 72.90625 
L 64.5 27.390625 
Q 64.5 13.140625 57.4375 5.859375 
Q 50.390625 -1.421875 36.625 -1.421875 
Q 22.796875 -1.421875 15.734375 5.859375 
Q 8.6875 13.140625 8.6875 27.390625 
z
" id="DejaVuSans-85"/>
     <path d="M 19.671875 64.796875 
L 19.671875 37.40625 
L 32.078125 37.40625 
Q 38.96875 37.40625 42.71875 40.96875 
Q 46.484375 44.53125 46.484375 51.125 
Q 46.484375 57.671875 42.71875 61.234375 
Q 38.96875 64.796875 32.078125 64.796875 
z
M 9.8125 72.90625 
L 32.078125 72.90625 
Q 44.34375 72.90625 50.609375 67.359375 
Q 56.890625 61.8125 56.890625 51.125 
Q 56.890625 40.328125 50.609375 34.8125 
Q 44.34375 29.296875 32.078125 29.296875 
L 19.671875 29.296875 
L 19.671875 0 
L 9.8125 0 
z
" id="DejaVuSans-80"/>
     <path d="M 9.8125 72.90625 
L 24.515625 72.90625 
L 43.109375 23.296875 
L 61.8125 72.90625 
L 76.515625 72.90625 
L 76.515625 0 
L 66.890625 0 
L 66.890625 64.015625 
L 48.09375 14.015625 
L 38.1875 14.015625 
L 19.390625 64.015625 
L 19.390625 0 
L 9.8125 0 
z
" id="DejaVuSans-77"/>
     <path d="M 39.40625 66.21875 
Q 28.65625 66.21875 22.328125 58.203125 
Q 16.015625 50.203125 16.015625 36.375 
Q 16.015625 22.609375 22.328125 14.59375 
Q 28.65625 6.59375 39.40625 6.59375 
Q 50.140625 6.59375 56.421875 14.59375 
Q 62.703125 22.609375 62.703125 36.375 
Q 62.703125 50.203125 56.421875 58.203125 
Q 50.140625 66.21875 39.40625 66.21875 
z
M 39.40625 74.21875 
Q 54.734375 74.21875 63.90625 63.9375 
Q 73.09375 53.65625 73.09375 36.375 
Q 73.09375 19.140625 63.90625 8.859375 
Q 54.734375 -1.421875 39.40625 -1.421875 
Q 24.03125 -1.421875 14.8125 8.828125 
Q 5.609375 19.09375 5.609375 36.375 
Q 5.609375 53.65625 14.8125 63.9375 
Q 24.03125 74.21875 39.40625 74.21875 
z
" id="DejaVuSans-79"/>
     <path d="M 64.40625 67.28125 
L 64.40625 56.890625 
Q 59.421875 61.53125 53.78125 63.8125 
Q 48.140625 66.109375 41.796875 66.109375 
Q 29.296875 66.109375 22.65625 58.46875 
Q 16.015625 50.828125 16.015625 36.375 
Q 16.015625 21.96875 22.65625 14.328125 
Q 29.296875 6.6875 41.796875 6.6875 
Q 48.140625 6.6875 53.78125 8.984375 
Q 59.421875 11.28125 64.40625 15.921875 
L 64.40625 5.609375 
Q 59.234375 2.09375 53.4375 0.328125 
Q 47.65625 -1.421875 41.21875 -1.421875 
Q 24.65625 -1.421875 15.125 8.703125 
Q 5.609375 18.84375 5.609375 36.375 
Q 5.609375 53.953125 15.125 64.078125 
Q 24.65625 74.21875 41.21875 74.21875 
Q 47.75 74.21875 53.53125 72.484375 
Q 59.328125 70.75 64.40625 67.28125 
z
" id="DejaVuSans-67"/>
     <path d="M 34.1875 63.1875 
L 20.796875 26.90625 
L 47.609375 26.90625 
z
M 28.609375 72.90625 
L 39.796875 72.90625 
L 67.578125 0 
L 57.328125 0 
L 50.6875 18.703125 
L 17.828125 18.703125 
L 11.1875 0 
L 0.78125 0 
z
" id="DejaVuSans-65"/>
    </defs>
    <g transform="translate(375.22944 298.262739)scale(0.17 -0.17)">
     <use xlink:href="#DejaVuSans-85"/>
     <use x="73.193359" xlink:href="#DejaVuSans-80"/>
     <use x="133.464844" xlink:href="#DejaVuSans-45"/>
     <use x="169.548828" xlink:href="#DejaVuSans-77"/>
     <use x="255.828125" xlink:href="#DejaVuSans-79"/>
     <use x="334.570312" xlink:href="#DejaVuSans-45"/>
     <use x="370.654297" xlink:href="#DejaVuSans-67"/>
     <use x="440.478516" xlink:href="#DejaVuSans-77"/>
     <use x="526.757812" xlink:href="#DejaVuSans-65"/>
    </g>
   </g>
   <g id="text_14">
    <!-- 0.1tfr-0. -->
    <g transform="translate(375.22944 212.307571)scale(0.17 -0.17)">
     <use xlink:href="#DejaVuSans-48"/>
     <use x="63.623047" xlink:href="#DejaVuSans-46"/>
     <use x="95.410156" xlink:href="#DejaVuSans-49"/>
     <use x="159.033203" xlink:href="#DejaVuSans-116"/>
     <use x="198.242188" xlink:href="#DejaVuSans-102"/>
     <use x="233.447266" xlink:href="#DejaVuSans-114"/>
     <use x="274.466797" xlink:href="#DejaVuSans-45"/>
     <use x="310.550781" xlink:href="#DejaVuSans-48"/>
     <use x="374.173828" xlink:href="#DejaVuSans-46"/>
    </g>
   </g>
   <g id="text_15">
    <!-- HMO-CMA-E -->
    <defs>
     <path d="M 9.8125 72.90625 
L 19.671875 72.90625 
L 19.671875 43.015625 
L 55.515625 43.015625 
L 55.515625 72.90625 
L 65.375 72.90625 
L 65.375 0 
L 55.515625 0 
L 55.515625 34.71875 
L 19.671875 34.71875 
L 19.671875 0 
L 9.8125 0 
z
" id="DejaVuSans-72"/>
     <path d="M 9.8125 72.90625 
L 55.90625 72.90625 
L 55.90625 64.59375 
L 19.671875 64.59375 
L 19.671875 43.015625 
L 54.390625 43.015625 
L 54.390625 34.71875 
L 19.671875 34.71875 
L 19.671875 8.296875 
L 56.78125 8.296875 
L 56.78125 0 
L 9.8125 0 
z
" id="DejaVuSans-69"/>
    </defs>
    <g transform="translate(375.22944 126.352403)scale(0.17 -0.17)">
     <use xlink:href="#DejaVuSans-72"/>
     <use x="75.195312" xlink:href="#DejaVuSans-77"/>
     <use x="161.474609" xlink:href="#DejaVuSans-79"/>
     <use x="240.216797" xlink:href="#DejaVuSans-45"/>
     <use x="276.300781" xlink:href="#DejaVuSans-67"/>
     <use x="346.125" xlink:href="#DejaVuSans-77"/>
     <use x="432.404297" xlink:href="#DejaVuSans-65"/>
     <use x="500.78125" xlink:href="#DejaVuSans-45"/>
     <use x="536.865234" xlink:href="#DejaVuSans-69"/>
    </g>
   </g>
   <g id="text_16">
    <!-- best 2016 -->
    <defs>
     <path d="M 48.6875 27.296875 
Q 48.6875 37.203125 44.609375 42.84375 
Q 40.53125 48.484375 33.40625 48.484375 
Q 26.265625 48.484375 22.1875 42.84375 
Q 18.109375 37.203125 18.109375 27.296875 
Q 18.109375 17.390625 22.1875 11.75 
Q 26.265625 6.109375 33.40625 6.109375 
Q 40.53125 6.109375 44.609375 11.75 
Q 48.6875 17.390625 48.6875 27.296875 
z
M 18.109375 46.390625 
Q 20.953125 51.265625 25.265625 53.625 
Q 29.59375 56 35.59375 56 
Q 45.5625 56 51.78125 48.09375 
Q 58.015625 40.1875 58.015625 27.296875 
Q 58.015625 14.40625 51.78125 6.484375 
Q 45.5625 -1.421875 35.59375 -1.421875 
Q 29.59375 -1.421875 25.265625 0.953125 
Q 20.953125 3.328125 18.109375 8.203125 
L 18.109375 0 
L 9.078125 0 
L 9.078125 75.984375 
L 18.109375 75.984375 
z
" id="DejaVuSans-98"/>
    </defs>
    <g transform="translate(375.22944 40.397235)scale(0.17 -0.17)">
     <use xlink:href="#DejaVuSans-98"/>
     <use x="63.476562" xlink:href="#DejaVuSans-101"/>
     <use x="125" xlink:href="#DejaVuSans-115"/>
     <use x="177.099609" xlink:href="#DejaVuSans-116"/>
     <use x="216.308594" xlink:href="#DejaVuSans-32"/>
     <use x="248.095703" xlink:href="#DejaVuSans-50"/>
     <use x="311.71875" xlink:href="#DejaVuSans-48"/>
     <use x="375.341797" xlink:href="#DejaVuSans-49"/>
     <use x="438.964844" xlink:href="#DejaVuSans-54"/>
    </g>
   </g>
   <g id="text_17">
    <!-- bbob-biobj f31, 3-D -->
    <defs>
     <path d="M 9.421875 54.6875 
L 18.40625 54.6875 
L 18.40625 -0.984375 
Q 18.40625 -11.421875 14.421875 -16.109375 
Q 10.453125 -20.796875 1.609375 -20.796875 
L -1.8125 -20.796875 
L -1.8125 -13.1875 
L 0.59375 -13.1875 
Q 5.71875 -13.1875 7.5625 -10.8125 
Q 9.421875 -8.453125 9.421875 -0.984375 
z
M 9.421875 75.984375 
L 18.40625 75.984375 
L 18.40625 64.59375 
L 9.421875 64.59375 
z
" id="DejaVuSans-106"/>
     <path d="M 40.578125 39.3125 
Q 47.65625 37.796875 51.625 33 
Q 55.609375 28.21875 55.609375 21.1875 
Q 55.609375 10.40625 48.1875 4.484375 
Q 40.765625 -1.421875 27.09375 -1.421875 
Q 22.515625 -1.421875 17.65625 -0.515625 
Q 12.796875 0.390625 7.625 2.203125 
L 7.625 11.71875 
Q 11.71875 9.328125 16.59375 8.109375 
Q 21.484375 6.890625 26.8125 6.890625 
Q 36.078125 6.890625 40.9375 10.546875 
Q 45.796875 14.203125 45.796875 21.1875 
Q 45.796875 27.640625 41.28125 31.265625 
Q 36.765625 34.90625 28.71875 34.90625 
L 20.21875 34.90625 
L 20.21875 43.015625 
L 29.109375 43.015625 
Q 36.375 43.015625 40.234375 45.921875 
Q 44.09375 48.828125 44.09375 54.296875 
Q 44.09375 59.90625 40.109375 62.90625 
Q 36.140625 65.921875 28.71875 65.921875 
Q 24.65625 65.921875 20.015625 65.03125 
Q 15.375 64.15625 9.8125 62.3125 
L 9.8125 71.09375 
Q 15.4375 72.65625 20.34375 73.4375 
Q 25.25 74.21875 29.59375 74.21875 
Q 40.828125 74.21875 47.359375 69.109375 
Q 53.90625 64.015625 53.90625 55.328125 
Q 53.90625 49.265625 50.4375 45.09375 
Q 46.96875 40.921875 40.578125 39.3125 
z
" id="DejaVuSans-51"/>
     <path d="M 19.671875 64.796875 
L 19.671875 8.109375 
L 31.59375 8.109375 
Q 46.6875 8.109375 53.6875 14.9375 
Q 60.6875 21.78125 60.6875 36.53125 
Q 60.6875 51.171875 53.6875 57.984375 
Q 46.6875 64.796875 31.59375 64.796875 
z
M 9.8125 72.90625 
L 30.078125 72.90625 
Q 51.265625 72.90625 61.171875 64.09375 
Q 71.09375 55.28125 71.09375 36.53125 
Q 71.09375 17.671875 61.125 8.828125 
Q 51.171875 0 30.078125 0 
L 9.8125 0 
z
" id="DejaVuSans-68"/>
    </defs>
    <g transform="translate(60.41088 38.111366)scale(0.102 -0.102)">
     <use xlink:href="#DejaVuSans-98"/>
     <use x="63.476562" xlink:href="#DejaVuSans-98"/>
     <use x="126.953125" xlink:href="#DejaVuSans-111"/>
     <use x="188.134766" xlink:href="#DejaVuSans-98"/>
     <use x="251.611328" xlink:href="#DejaVuSans-45"/>
     <use x="287.695312" xlink:href="#DejaVuSans-98"/>
     <use x="351.171875" xlink:href="#DejaVuSans-105"/>
     <use x="378.955078" xlink:href="#DejaVuSans-111"/>
     <use x="440.136719" xlink:href="#DejaVuSans-98"/>
     <use x="503.613281" xlink:href="#DejaVuSans-106"/>
     <use x="531.396484" xlink:href="#DejaVuSans-32"/>
     <use x="563.183594" xlink:href="#DejaVuSans-102"/>
     <use x="598.388672" xlink:href="#DejaVuSans-51"/>
     <use x="662.011719" xlink:href="#DejaVuSans-49"/>
     <use x="725.634766" xlink:href="#DejaVuSans-44"/>
     <use x="757.421875" xlink:href="#DejaVuSans-32"/>
     <use x="789.208984" xlink:href="#DejaVuSans-51"/>
     <use x="852.832031" xlink:href="#DejaVuSans-45"/>
     <use x="888.916016" xlink:href="#DejaVuSans-68"/>
    </g>
    <!-- 58 targets: 1..-1.0e-4 -->
    <defs>
     <path d="M 10.796875 72.90625 
L 49.515625 72.90625 
L 49.515625 64.59375 
L 19.828125 64.59375 
L 19.828125 46.734375 
Q 21.96875 47.46875 24.109375 47.828125 
Q 26.265625 48.1875 28.421875 48.1875 
Q 40.625 48.1875 47.75 41.5 
Q 54.890625 34.8125 54.890625 23.390625 
Q 54.890625 11.625 47.5625 5.09375 
Q 40.234375 -1.421875 26.90625 -1.421875 
Q 22.3125 -1.421875 17.546875 -0.640625 
Q 12.796875 0.140625 7.71875 1.703125 
L 7.71875 11.625 
Q 12.109375 9.234375 16.796875 8.0625 
Q 21.484375 6.890625 26.703125 6.890625 
Q 35.15625 6.890625 40.078125 11.328125 
Q 45.015625 15.765625 45.015625 23.390625 
Q 45.015625 31 40.078125 35.4375 
Q 35.15625 39.890625 26.703125 39.890625 
Q 22.75 39.890625 18.8125 39.015625 
Q 14.890625 38.140625 10.796875 36.28125 
z
" id="DejaVuSans-53"/>
     <path d="M 11.71875 12.40625 
L 22.015625 12.40625 
L 22.015625 0 
L 11.71875 0 
z
M 11.71875 51.703125 
L 22.015625 51.703125 
L 22.015625 39.3125 
L 11.71875 39.3125 
z
" id="DejaVuSans-58"/>
    </defs>
    <g transform="translate(60.41088 49.533135)scale(0.102 -0.102)">
     <use xlink:href="#DejaVuSans-53"/>
     <use x="63.623047" xlink:href="#DejaVuSans-56"/>
     <use x="127.246094" xlink:href="#DejaVuSans-32"/>
     <use x="159.033203" xlink:href="#DejaVuSans-116"/>
     <use x="198.242188" xlink:href="#DejaVuSans-97"/>
     <use x="259.521484" xlink:href="#DejaVuSans-114"/>
     <use x="300.619141" xlink:href="#DejaVuSans-103"/>
     <use x="364.095703" xlink:href="#DejaVuSans-101"/>
     <use x="425.619141" xlink:href="#DejaVuSans-116"/>
     <use x="464.828125" xlink:href="#DejaVuSans-115"/>
     <use x="516.927734" xlink:href="#DejaVuSans-58"/>
     <use x="550.619141" xlink:href="#DejaVuSans-32"/>
     <use x="582.40625" xlink:href="#DejaVuSans-49"/>
     <use x="646.029297" xlink:href="#DejaVuSans-46"/>
     <use x="677.816406" xlink:href="#DejaVuSans-46"/>
     <use x="709.603516" xlink:href="#DejaVuSans-45"/>
     <use x="745.6875" xlink:href="#DejaVuSans-49"/>
     <use x="809.310547" xlink:href="#DejaVuSans-46"/>
     <use x="841.097656" xlink:href="#DejaVuSans-48"/>
     <use x="904.720703" xlink:href="#DejaVuSans-101"/>
     <use x="966.244141" xlink:href="#DejaVuSans-45"/>
     <use x="1002.328125" xlink:href="#DejaVuSans-52"/>
    </g>
    <!-- 10, 5 instances -->
    <g transform="translate(60.41088 60.954904)scale(0.102 -0.102)">
     <use xlink:href="#DejaVuSans-49"/>
     <use x="63.623047" xlink:href="#DejaVuSans-48"/>
     <use x="127.246094" xlink:href="#DejaVuSans-44"/>
     <use x="159.033203" xlink:href="#DejaVuSans-32"/>
     <use x="190.820312" xlink:href="#DejaVuSans-53"/>
     <use x="254.443359" xlink:href="#DejaVuSans-32"/>
     <use x="286.230469" xlink:href="#DejaVuSans-105"/>
     <use x="314.013672" xlink:href="#DejaVuSans-110"/>
     <use x="377.392578" xlink:href="#DejaVuSans-115"/>
     <use x="429.492188" xlink:href="#DejaVuSans-116"/>
     <use x="468.701172" xlink:href="#DejaVuSans-97"/>
     <use x="529.980469" xlink:href="#DejaVuSans-110"/>
     <use x="593.359375" xlink:href="#DejaVuSans-99"/>
     <use x="648.339844" xlink:href="#DejaVuSans-101"/>
     <use x="709.863281" xlink:href="#DejaVuSans-115"/>
    </g>
   </g>
   <g id="text_18">
    <!-- v2.3.3.43 -->
    <g style="fill:#808080;" transform="translate(174.511187 294.151352)scale(0.1 -0.1)">
     <use xlink:href="#DejaVuSans-118"/>
     <use x="59.179688" xlink:href="#DejaVuSans-50"/>
     <use x="122.802734" xlink:href="#DejaVuSans-46"/>
     <use x="154.589844" xlink:href="#DejaVuSans-51"/>
     <use x="218.212891" xlink:href="#DejaVuSans-46"/>
     <use x="250" xlink:href="#DejaVuSans-51"/>
     <use x="313.623047" xlink:href="#DejaVuSans-46"/>
     <use x="345.410156" xlink:href="#DejaVuSans-52"/>
     <use x="409.033203" xlink:href="#DejaVuSans-51"/>
    </g>
   </g>
   <g id="text_19">
    <!-- 31 Rosenbrock/Rastrigin -->
    <defs>
     <path d="M 44.390625 34.1875 
Q 47.5625 33.109375 50.5625 29.59375 
Q 53.5625 26.078125 56.59375 19.921875 
L 66.609375 0 
L 56 0 
L 46.6875 18.703125 
Q 43.0625 26.03125 39.671875 28.421875 
Q 36.28125 30.8125 30.421875 30.8125 
L 19.671875 30.8125 
L 19.671875 0 
L 9.8125 0 
L 9.8125 72.90625 
L 32.078125 72.90625 
Q 44.578125 72.90625 50.734375 67.671875 
Q 56.890625 62.453125 56.890625 51.90625 
Q 56.890625 45.015625 53.6875 40.46875 
Q 50.484375 35.9375 44.390625 34.1875 
z
M 19.671875 64.796875 
L 19.671875 38.921875 
L 32.078125 38.921875 
Q 39.203125 38.921875 42.84375 42.21875 
Q 46.484375 45.515625 46.484375 51.90625 
Q 46.484375 58.296875 42.84375 61.546875 
Q 39.203125 64.796875 32.078125 64.796875 
z
" id="DejaVuSans-82"/>
     <path d="M 9.078125 75.984375 
L 18.109375 75.984375 
L 18.109375 31.109375 
L 44.921875 54.6875 
L 56.390625 54.6875 
L 27.390625 29.109375 
L 57.625 0 
L 45.90625 0 
L 18.109375 26.703125 
L 18.109375 0 
L 9.078125 0 
z
" id="DejaVuSans-107"/>
    </defs>
    <g transform="translate(75.690875 21.648)scale(0.2 -0.2)">
     <use xlink:href="#DejaVuSans-51"/>
     <use x="63.623047" xlink:href="#DejaVuSans-49"/>
     <use x="127.246094" xlink:href="#DejaVuSans-32"/>
     <use x="159.033203" xlink:href="#DejaVuSans-82"/>
     <use x="228.453125" xlink:href="#DejaVuSans-111"/>
     <use x="289.634766" xlink:href="#DejaVuSans-115"/>
     <use x="341.734375" xlink:href="#DejaVuSans-101"/>
     <use x="403.257812" xlink:href="#DejaVuSans-110"/>
     <use x="466.636719" xlink:href="#DejaVuSans-98"/>
     <use x="530.113281" xlink:href="#DejaVuSans-114"/>
     <use x="571.195312" xlink:href="#DejaVuSans-111"/>
     <use x="632.376953" xlink:href="#DejaVuSans-99"/>
     <use x="687.357422" xlink:href="#DejaVuSans-107"/>
     <use x="745.267578" xlink:href="#DejaVuSans-47"/>
     <use x="778.958984" xlink:href="#DejaVuSans-82"/>
     <use x="848.410156" xlink:href="#DejaVuSans-97"/>
     <use x="909.689453" xlink:href="#DejaVuSans-115"/>
     <use x="961.789062" xlink:href="#DejaVuSans-116"/>
     <use x="1000.998047" xlink:href="#DejaVuSans-114"/>
     <use x="1042.111328" xlink:href="#DejaVuSans-105"/>
     <use x="1069.894531" xlink:href="#DejaVuSans-103"/>
     <use x="1133.371094" xlink:href="#DejaVuSans-105"/>
     <use x="1161.154297" xlink:href="#DejaVuSans-110"/>
    </g>
   </g>
  </g>
 </g>
 <defs>
  <clipPath id="p980ca6bce5">
   <rect height="271.296" width="281.088" x="57.6" y="27.648"/>
  </clipPath>
 </defs>
</svg>
