<?xml version="1.0" encoding="utf-8" standalone="no"?>
<!DOCTYPE svg PUBLIC "-//W3C//DTD SVG 1.1//EN"
  "http://www.w3.org/Graphics/SVG/1.1/DTD/svg11.dtd">
<!-- Created with matplotlib (https://matplotlib.org/) -->
<svg height="345.6pt" version="1.1" viewBox="0 0 460.8 345.6" width="460.8pt" xmlns="http://www.w3.org/2000/svg" xmlns:xlink="http://www.w3.org/1999/xlink">
 <defs>
  <style type="text/css">
*{stroke-linecap:butt;stroke-linejoin:round;}
  </style>
 </defs>
 <g id="figure_1">
  <g id="patch_1">
   <path d="M 0 345.6 
L 460.8 345.6 
L 460.8 0 
L 0 0 
z
" style="fill:#ffffff;"/>
  </g>
  <g id="axes_1">
   <g id="patch_2">
    <path d="M 57.6 298.944 
L 338.688 298.944 
L 338.688 3.456 
L 57.6 3.456 
z
" style="fill:#ffffff;"/>
   </g>
   <g id="matplotlib.axis_1">
    <g id="xtick_1">
     <g id="line2d_1">
      <path clip-path="url(#pab827d2207)" d="M 57.6 298.944 
L 57.6 3.456 
" style="fill:none;stroke:#b0b0b0;stroke-linecap:square;stroke-width:0.8;"/>
     </g>
     <g id="line2d_2">
      <defs>
       <path d="M 0 0 
L 0 3.5 
" id="me712ad5128" style="stroke:#000000;stroke-width:0.8;"/>
      </defs>
      <g>
       <use style="stroke:#000000;stroke-width:0.8;" x="57.6" xlink:href="#me712ad5128" y="298.944"/>
      </g>
     </g>
     <g id="text_1">
      <!-- 0 -->
      <defs>
       <path d="M 31.78125 66.40625 
Q 24.171875 66.40625 20.328125 58.90625 
Q 16.5 51.421875 16.5 36.375 
Q 16.5 21.390625 20.328125 13.890625 
Q 24.171875 6.390625 31.78125 6.390625 
Q 39.453125 6.390625 43.28125 13.890625 
Q 47.125 21.390625 47.125 36.375 
Q 47.125 51.421875 43.28125 58.90625 
Q 39.453125 66.40625 31.78125 66.40625 
z
M 31.78125 74.21875 
Q 44.046875 74.21875 50.515625 64.515625 
Q 56.984375 54.828125 56.984375 36.375 
Q 56.984375 17.96875 50.515625 8.265625 
Q 44.046875 -1.421875 31.78125 -1.421875 
Q 19.53125 -1.421875 13.0625 8.265625 
Q 6.59375 17.96875 6.59375 36.375 
Q 6.59375 54.828125 13.0625 64.515625 
Q 19.53125 74.21875 31.78125 74.21875 
z
" id="DejaVuSans-48"/>
      </defs>
      <g transform="translate(51.2375 321.140875)scale(0.2 -0.2)">
       <use xlink:href="#DejaVuSans-48"/>
      </g>
     </g>
    </g>
    <g id="xtick_2">
     <g id="line2d_3">
      <path clip-path="url(#pab827d2207)" d="M 137.910857 298.944 
L 137.910857 3.456 
" style="fill:none;stroke:#b0b0b0;stroke-linecap:square;stroke-width:0.8;"/>
     </g>
     <g id="line2d_4">
      <g>
       <use style="stroke:#000000;stroke-width:0.8;" x="137.910857" xlink:href="#me712ad5128" y="298.944"/>
      </g>
     </g>
     <g id="text_2">
      <!-- 2 -->
      <defs>
       <path d="M 19.1875 8.296875 
L 53.609375 8.296875 
L 53.609375 0 
L 7.328125 0 
L 7.328125 8.296875 
Q 12.9375 14.109375 22.625 23.890625 
Q 32.328125 33.6875 34.8125 36.53125 
Q 39.546875 41.84375 41.421875 45.53125 
Q 43.3125 49.21875 43.3125 52.78125 
Q 43.3125 58.59375 39.234375 62.25 
Q 35.15625 65.921875 28.609375 65.921875 
Q 23.96875 65.921875 18.8125 64.3125 
Q 13.671875 62.703125 7.8125 59.421875 
L 7.8125 69.390625 
Q 13.765625 71.78125 18.9375 73 
Q 24.125 74.21875 28.421875 74.21875 
Q 39.75 74.21875 46.484375 68.546875 
Q 53.21875 62.890625 53.21875 53.421875 
Q 53.21875 48.921875 51.53125 44.890625 
Q 49.859375 40.875 45.40625 35.40625 
Q 44.1875 33.984375 37.640625 27.21875 
Q 31.109375 20.453125 19.1875 8.296875 
z
" id="DejaVuSans-50"/>
      </defs>
      <g transform="translate(131.548357 321.140875)scale(0.2 -0.2)">
       <use xlink:href="#DejaVuSans-50"/>
      </g>
     </g>
    </g>
    <g id="xtick_3">
     <g id="line2d_5">
      <path clip-path="url(#pab827d2207)" d="M 218.221714 298.944 
L 218.221714 3.456 
" style="fill:none;stroke:#b0b0b0;stroke-linecap:square;stroke-width:0.8;"/>
     </g>
     <g id="line2d_6">
      <g>
       <use style="stroke:#000000;stroke-width:0.8;" x="218.221714" xlink:href="#me712ad5128" y="298.944"/>
      </g>
     </g>
     <g id="text_3">
      <!-- 4 -->
      <defs>
       <path d="M 37.796875 64.3125 
L 12.890625 25.390625 
L 37.796875 25.390625 
z
M 35.203125 72.90625 
L 47.609375 72.90625 
L 47.609375 25.390625 
L 58.015625 25.390625 
L 58.015625 17.1875 
L 47.609375 17.1875 
L 47.609375 0 
L 37.796875 0 
L 37.796875 17.1875 
L 4.890625 17.1875 
L 4.890625 26.703125 
z
" id="DejaVuSans-52"/>
      </defs>
      <g transform="translate(211.859214 321.140875)scale(0.2 -0.2)">
       <use xlink:href="#DejaVuSans-52"/>
      </g>
     </g>
    </g>
    <g id="xtick_4">
     <g id="line2d_7">
      <path clip-path="url(#pab827d2207)" d="M 298.532571 298.944 
L 298.532571 3.456 
" style="fill:none;stroke:#b0b0b0;stroke-linecap:square;stroke-width:0.8;"/>
     </g>
     <g id="line2d_8">
      <g>
       <use style="stroke:#000000;stroke-width:0.8;" x="298.532571" xlink:href="#me712ad5128" y="298.944"/>
      </g>
     </g>
     <g id="text_4">
      <!-- 6 -->
      <defs>
       <path d="M 33.015625 40.375 
Q 26.375 40.375 22.484375 35.828125 
Q 18.609375 31.296875 18.609375 23.390625 
Q 18.609375 15.53125 22.484375 10.953125 
Q 26.375 6.390625 33.015625 6.390625 
Q 39.65625 6.390625 43.53125 10.953125 
Q 47.40625 15.53125 47.40625 23.390625 
Q 47.40625 31.296875 43.53125 35.828125 
Q 39.65625 40.375 33.015625 40.375 
z
M 52.59375 71.296875 
L 52.59375 62.3125 
Q 48.875 64.0625 45.09375 64.984375 
Q 41.3125 65.921875 37.59375 65.921875 
Q 27.828125 65.921875 22.671875 59.328125 
Q 17.53125 52.734375 16.796875 39.40625 
Q 19.671875 43.65625 24.015625 45.921875 
Q 28.375 48.1875 33.59375 48.1875 
Q 44.578125 48.1875 50.953125 41.515625 
Q 57.328125 34.859375 57.328125 23.390625 
Q 57.328125 12.15625 50.6875 5.359375 
Q 44.046875 -1.421875 33.015625 -1.421875 
Q 20.359375 -1.421875 13.671875 8.265625 
Q 6.984375 17.96875 6.984375 36.375 
Q 6.984375 53.65625 15.1875 63.9375 
Q 23.390625 74.21875 37.203125 74.21875 
Q 40.921875 74.21875 44.703125 73.484375 
Q 48.484375 72.75 52.59375 71.296875 
z
" id="DejaVuSans-54"/>
      </defs>
      <g transform="translate(292.170071 321.140875)scale(0.2 -0.2)">
       <use xlink:href="#DejaVuSans-54"/>
      </g>
     </g>
    </g>
    <g id="xtick_5">
     <g id="line2d_9">
      <path clip-path="url(#pab827d2207)" d="M 97.755429 298.944 
L 97.755429 3.456 
" style="fill:none;stroke:#b0b0b0;stroke-linecap:square;stroke-width:0.8;"/>
     </g>
     <g id="line2d_10">
      <defs>
       <path d="M 0 0 
L 0 2 
" id="m2b636e11ac" style="stroke:#000000;stroke-width:0.6;"/>
      </defs>
      <g>
       <use style="stroke:#000000;stroke-width:0.6;" x="97.755429" xlink:href="#m2b636e11ac" y="298.944"/>
      </g>
     </g>
    </g>
    <g id="xtick_6">
     <g id="line2d_11">
      <path clip-path="url(#pab827d2207)" d="M 178.066286 298.944 
L 178.066286 3.456 
" style="fill:none;stroke:#b0b0b0;stroke-linecap:square;stroke-width:0.8;"/>
     </g>
     <g id="line2d_12">
      <g>
       <use style="stroke:#000000;stroke-width:0.6;" x="178.066286" xlink:href="#m2b636e11ac" y="298.944"/>
      </g>
     </g>
    </g>
    <g id="xtick_7">
     <g id="line2d_13">
      <path clip-path="url(#pab827d2207)" d="M 258.377143 298.944 
L 258.377143 3.456 
" style="fill:none;stroke:#b0b0b0;stroke-linecap:square;stroke-width:0.8;"/>
     </g>
     <g id="line2d_14">
      <g>
       <use style="stroke:#000000;stroke-width:0.6;" x="258.377143" xlink:href="#m2b636e11ac" y="298.944"/>
      </g>
     </g>
    </g>
    <g id="xtick_8">
     <g id="line2d_15">
      <path clip-path="url(#pab827d2207)" d="M 338.688 298.944 
L 338.688 3.456 
" style="fill:none;stroke:#b0b0b0;stroke-linecap:square;stroke-width:0.8;"/>
     </g>
     <g id="line2d_16">
      <g>
       <use style="stroke:#000000;stroke-width:0.6;" x="338.688" xlink:href="#m2b636e11ac" y="298.944"/>
      </g>
     </g>
    </g>
    <g id="text_5">
     <!-- log10(# f-evals / dimension) -->
     <defs>
      <path d="M 9.421875 75.984375 
L 18.40625 75.984375 
L 18.40625 0 
L 9.421875 0 
z
" id="DejaVuSans-108"/>
      <path d="M 30.609375 48.390625 
Q 23.390625 48.390625 19.1875 42.75 
Q 14.984375 37.109375 14.984375 27.296875 
Q 14.984375 17.484375 19.15625 11.84375 
Q 23.34375 6.203125 30.609375 6.203125 
Q 37.796875 6.203125 41.984375 11.859375 
Q 46.1875 17.53125 46.1875 27.296875 
Q 46.1875 37.015625 41.984375 42.703125 
Q 37.796875 48.390625 30.609375 48.390625 
z
M 30.609375 56 
Q 42.328125 56 49.015625 48.375 
Q 55.71875 40.765625 55.71875 27.296875 
Q 55.71875 13.875 49.015625 6.21875 
Q 42.328125 -1.421875 30.609375 -1.421875 
Q 18.84375 -1.421875 12.171875 6.21875 
Q 5.515625 13.875 5.515625 27.296875 
Q 5.515625 40.765625 12.171875 48.375 
Q 18.84375 56 30.609375 56 
z
" id="DejaVuSans-111"/>
      <path d="M 45.40625 27.984375 
Q 45.40625 37.75 41.375 43.109375 
Q 37.359375 48.484375 30.078125 48.484375 
Q 22.859375 48.484375 18.828125 43.109375 
Q 14.796875 37.75 14.796875 27.984375 
Q 14.796875 18.265625 18.828125 12.890625 
Q 22.859375 7.515625 30.078125 7.515625 
Q 37.359375 7.515625 41.375 12.890625 
Q 45.40625 18.265625 45.40625 27.984375 
z
M 54.390625 6.78125 
Q 54.390625 -7.171875 48.1875 -13.984375 
Q 42 -20.796875 29.203125 -20.796875 
Q 24.46875 -20.796875 20.265625 -20.09375 
Q 16.0625 -19.390625 12.109375 -17.921875 
L 12.109375 -9.1875 
Q 16.0625 -11.328125 19.921875 -12.34375 
Q 23.78125 -13.375 27.78125 -13.375 
Q 36.625 -13.375 41.015625 -8.765625 
Q 45.40625 -4.15625 45.40625 5.171875 
L 45.40625 9.625 
Q 42.625 4.78125 38.28125 2.390625 
Q 33.9375 0 27.875 0 
Q 17.828125 0 11.671875 7.65625 
Q 5.515625 15.328125 5.515625 27.984375 
Q 5.515625 40.671875 11.671875 48.328125 
Q 17.828125 56 27.875 56 
Q 33.9375 56 38.28125 53.609375 
Q 42.625 51.21875 45.40625 46.390625 
L 45.40625 54.6875 
L 54.390625 54.6875 
z
" id="DejaVuSans-103"/>
      <path d="M 12.40625 8.296875 
L 28.515625 8.296875 
L 28.515625 63.921875 
L 10.984375 60.40625 
L 10.984375 69.390625 
L 28.421875 72.90625 
L 38.28125 72.90625 
L 38.28125 8.296875 
L 54.390625 8.296875 
L 54.390625 0 
L 12.40625 0 
z
" id="DejaVuSans-49"/>
      <path d="M 31 75.875 
Q 24.46875 64.65625 21.28125 53.65625 
Q 18.109375 42.671875 18.109375 31.390625 
Q 18.109375 20.125 21.3125 9.0625 
Q 24.515625 -2 31 -13.1875 
L 23.1875 -13.1875 
Q 15.875 -1.703125 12.234375 9.375 
Q 8.59375 20.453125 8.59375 31.390625 
Q 8.59375 42.28125 12.203125 53.3125 
Q 15.828125 64.359375 23.1875 75.875 
z
" id="DejaVuSans-40"/>
      <path d="M 51.125 44 
L 36.921875 44 
L 32.8125 27.6875 
L 47.125 27.6875 
z
M 43.796875 71.78125 
L 38.71875 51.515625 
L 52.984375 51.515625 
L 58.109375 71.78125 
L 65.921875 71.78125 
L 60.890625 51.515625 
L 76.125 51.515625 
L 76.125 44 
L 58.984375 44 
L 54.984375 27.6875 
L 70.515625 27.6875 
L 70.515625 20.21875 
L 53.078125 20.21875 
L 48 0 
L 40.1875 0 
L 45.21875 20.21875 
L 30.90625 20.21875 
L 25.875 0 
L 18.015625 0 
L 23.09375 20.21875 
L 7.71875 20.21875 
L 7.71875 27.6875 
L 24.90625 27.6875 
L 29 44 
L 13.28125 44 
L 13.28125 51.515625 
L 30.90625 51.515625 
L 35.890625 71.78125 
z
" id="DejaVuSans-35"/>
      <path id="DejaVuSans-32"/>
      <path d="M 37.109375 75.984375 
L 37.109375 68.5 
L 28.515625 68.5 
Q 23.6875 68.5 21.796875 66.546875 
Q 19.921875 64.59375 19.921875 59.515625 
L 19.921875 54.6875 
L 34.71875 54.6875 
L 34.71875 47.703125 
L 19.921875 47.703125 
L 19.921875 0 
L 10.890625 0 
L 10.890625 47.703125 
L 2.296875 47.703125 
L 2.296875 54.6875 
L 10.890625 54.6875 
L 10.890625 58.5 
Q 10.890625 67.625 15.140625 71.796875 
Q 19.390625 75.984375 28.609375 75.984375 
z
" id="DejaVuSans-102"/>
      <path d="M 4.890625 31.390625 
L 31.203125 31.390625 
L 31.203125 23.390625 
L 4.890625 23.390625 
z
" id="DejaVuSans-45"/>
      <path d="M 56.203125 29.59375 
L 56.203125 25.203125 
L 14.890625 25.203125 
Q 15.484375 15.921875 20.484375 11.0625 
Q 25.484375 6.203125 34.421875 6.203125 
Q 39.59375 6.203125 44.453125 7.46875 
Q 49.3125 8.734375 54.109375 11.28125 
L 54.109375 2.78125 
Q 49.265625 0.734375 44.1875 -0.34375 
Q 39.109375 -1.421875 33.890625 -1.421875 
Q 20.796875 -1.421875 13.15625 6.1875 
Q 5.515625 13.8125 5.515625 26.8125 
Q 5.515625 40.234375 12.765625 48.109375 
Q 20.015625 56 32.328125 56 
Q 43.359375 56 49.78125 48.890625 
Q 56.203125 41.796875 56.203125 29.59375 
z
M 47.21875 32.234375 
Q 47.125 39.59375 43.09375 43.984375 
Q 39.0625 48.390625 32.421875 48.390625 
Q 24.90625 48.390625 20.390625 44.140625 
Q 15.875 39.890625 15.1875 32.171875 
z
" id="DejaVuSans-101"/>
      <path d="M 2.984375 54.6875 
L 12.5 54.6875 
L 29.59375 8.796875 
L 46.6875 54.6875 
L 56.203125 54.6875 
L 35.6875 0 
L 23.484375 0 
z
" id="DejaVuSans-118"/>
      <path d="M 34.28125 27.484375 
Q 23.390625 27.484375 19.1875 25 
Q 14.984375 22.515625 14.984375 16.5 
Q 14.984375 11.71875 18.140625 8.90625 
Q 21.296875 6.109375 26.703125 6.109375 
Q 34.1875 6.109375 38.703125 11.40625 
Q 43.21875 16.703125 43.21875 25.484375 
L 43.21875 27.484375 
z
M 52.203125 31.203125 
L 52.203125 0 
L 43.21875 0 
L 43.21875 8.296875 
Q 40.140625 3.328125 35.546875 0.953125 
Q 30.953125 -1.421875 24.3125 -1.421875 
Q 15.921875 -1.421875 10.953125 3.296875 
Q 6 8.015625 6 15.921875 
Q 6 25.140625 12.171875 29.828125 
Q 18.359375 34.515625 30.609375 34.515625 
L 43.21875 34.515625 
L 43.21875 35.40625 
Q 43.21875 41.609375 39.140625 45 
Q 35.0625 48.390625 27.6875 48.390625 
Q 23 48.390625 18.546875 47.265625 
Q 14.109375 46.140625 10.015625 43.890625 
L 10.015625 52.203125 
Q 14.9375 54.109375 19.578125 55.046875 
Q 24.21875 56 28.609375 56 
Q 40.484375 56 46.34375 49.84375 
Q 52.203125 43.703125 52.203125 31.203125 
z
" id="DejaVuSans-97"/>
      <path d="M 44.28125 53.078125 
L 44.28125 44.578125 
Q 40.484375 46.53125 36.375 47.5 
Q 32.28125 48.484375 27.875 48.484375 
Q 21.1875 48.484375 17.84375 46.4375 
Q 14.5 44.390625 14.5 40.28125 
Q 14.5 37.15625 16.890625 35.375 
Q 19.28125 33.59375 26.515625 31.984375 
L 29.59375 31.296875 
Q 39.15625 29.25 43.1875 25.515625 
Q 47.21875 21.78125 47.21875 15.09375 
Q 47.21875 7.46875 41.1875 3.015625 
Q 35.15625 -1.421875 24.609375 -1.421875 
Q 20.21875 -1.421875 15.453125 -0.5625 
Q 10.6875 0.296875 5.421875 2 
L 5.421875 11.28125 
Q 10.40625 8.6875 15.234375 7.390625 
Q 20.0625 6.109375 24.8125 6.109375 
Q 31.15625 6.109375 34.5625 8.28125 
Q 37.984375 10.453125 37.984375 14.40625 
Q 37.984375 18.0625 35.515625 20.015625 
Q 33.0625 21.96875 24.703125 23.78125 
L 21.578125 24.515625 
Q 13.234375 26.265625 9.515625 29.90625 
Q 5.8125 33.546875 5.8125 39.890625 
Q 5.8125 47.609375 11.28125 51.796875 
Q 16.75 56 26.8125 56 
Q 31.78125 56 36.171875 55.265625 
Q 40.578125 54.546875 44.28125 53.078125 
z
" id="DejaVuSans-115"/>
      <path d="M 25.390625 72.90625 
L 33.6875 72.90625 
L 8.296875 -9.28125 
L 0 -9.28125 
z
" id="DejaVuSans-47"/>
      <path d="M 45.40625 46.390625 
L 45.40625 75.984375 
L 54.390625 75.984375 
L 54.390625 0 
L 45.40625 0 
L 45.40625 8.203125 
Q 42.578125 3.328125 38.25 0.953125 
Q 33.9375 -1.421875 27.875 -1.421875 
Q 17.96875 -1.421875 11.734375 6.484375 
Q 5.515625 14.40625 5.515625 27.296875 
Q 5.515625 40.1875 11.734375 48.09375 
Q 17.96875 56 27.875 56 
Q 33.9375 56 38.25 53.625 
Q 42.578125 51.265625 45.40625 46.390625 
z
M 14.796875 27.296875 
Q 14.796875 17.390625 18.875 11.75 
Q 22.953125 6.109375 30.078125 6.109375 
Q 37.203125 6.109375 41.296875 11.75 
Q 45.40625 17.390625 45.40625 27.296875 
Q 45.40625 37.203125 41.296875 42.84375 
Q 37.203125 48.484375 30.078125 48.484375 
Q 22.953125 48.484375 18.875 42.84375 
Q 14.796875 37.203125 14.796875 27.296875 
z
" id="DejaVuSans-100"/>
      <path d="M 9.421875 54.6875 
L 18.40625 54.6875 
L 18.40625 0 
L 9.421875 0 
z
M 9.421875 75.984375 
L 18.40625 75.984375 
L 18.40625 64.59375 
L 9.421875 64.59375 
z
" id="DejaVuSans-105"/>
      <path d="M 52 44.1875 
Q 55.375 50.25 60.0625 53.125 
Q 64.75 56 71.09375 56 
Q 79.640625 56 84.28125 50.015625 
Q 88.921875 44.046875 88.921875 33.015625 
L 88.921875 0 
L 79.890625 0 
L 79.890625 32.71875 
Q 79.890625 40.578125 77.09375 44.375 
Q 74.3125 48.1875 68.609375 48.1875 
Q 61.625 48.1875 57.5625 43.546875 
Q 53.515625 38.921875 53.515625 30.90625 
L 53.515625 0 
L 44.484375 0 
L 44.484375 32.71875 
Q 44.484375 40.625 41.703125 44.40625 
Q 38.921875 48.1875 33.109375 48.1875 
Q 26.21875 48.1875 22.15625 43.53125 
Q 18.109375 38.875 18.109375 30.90625 
L 18.109375 0 
L 9.078125 0 
L 9.078125 54.6875 
L 18.109375 54.6875 
L 18.109375 46.1875 
Q 21.1875 51.21875 25.484375 53.609375 
Q 29.78125 56 35.6875 56 
Q 41.65625 56 45.828125 52.96875 
Q 50 49.953125 52 44.1875 
z
" id="DejaVuSans-109"/>
      <path d="M 54.890625 33.015625 
L 54.890625 0 
L 45.90625 0 
L 45.90625 32.71875 
Q 45.90625 40.484375 42.875 44.328125 
Q 39.84375 48.1875 33.796875 48.1875 
Q 26.515625 48.1875 22.3125 43.546875 
Q 18.109375 38.921875 18.109375 30.90625 
L 18.109375 0 
L 9.078125 0 
L 9.078125 54.6875 
L 18.109375 54.6875 
L 18.109375 46.1875 
Q 21.34375 51.125 25.703125 53.5625 
Q 30.078125 56 35.796875 56 
Q 45.21875 56 50.046875 50.171875 
Q 54.890625 44.34375 54.890625 33.015625 
z
" id="DejaVuSans-110"/>
      <path d="M 8.015625 75.875 
L 15.828125 75.875 
Q 23.140625 64.359375 26.78125 53.3125 
Q 30.421875 42.28125 30.421875 31.390625 
Q 30.421875 20.453125 26.78125 9.375 
Q 23.140625 -1.703125 15.828125 -13.1875 
L 8.015625 -13.1875 
Q 14.5 -2 17.703125 9.0625 
Q 20.90625 20.125 20.90625 31.390625 
Q 20.90625 42.671875 17.703125 53.65625 
Q 14.5 64.65625 8.015625 75.875 
z
" id="DejaVuSans-41"/>
     </defs>
     <g transform="translate(77.303219 342.217594)scale(0.17 -0.17)">
      <use xlink:href="#DejaVuSans-108"/>
      <use x="27.783203" xlink:href="#DejaVuSans-111"/>
      <use x="88.964844" xlink:href="#DejaVuSans-103"/>
      <use x="152.441406" xlink:href="#DejaVuSans-49"/>
      <use x="216.064453" xlink:href="#DejaVuSans-48"/>
      <use x="279.6875" xlink:href="#DejaVuSans-40"/>
      <use x="318.701172" xlink:href="#DejaVuSans-35"/>
      <use x="402.490234" xlink:href="#DejaVuSans-32"/>
      <use x="434.277344" xlink:href="#DejaVuSans-102"/>
      <use x="469.404297" xlink:href="#DejaVuSans-45"/>
      <use x="505.488281" xlink:href="#DejaVuSans-101"/>
      <use x="567.011719" xlink:href="#DejaVuSans-118"/>
      <use x="626.191406" xlink:href="#DejaVuSans-97"/>
      <use x="687.470703" xlink:href="#DejaVuSans-108"/>
      <use x="715.253906" xlink:href="#DejaVuSans-115"/>
      <use x="767.353516" xlink:href="#DejaVuSans-32"/>
      <use x="799.140625" xlink:href="#DejaVuSans-47"/>
      <use x="832.832031" xlink:href="#DejaVuSans-32"/>
      <use x="864.619141" xlink:href="#DejaVuSans-100"/>
      <use x="928.095703" xlink:href="#DejaVuSans-105"/>
      <use x="955.878906" xlink:href="#DejaVuSans-109"/>
      <use x="1053.291016" xlink:href="#DejaVuSans-101"/>
      <use x="1114.814453" xlink:href="#DejaVuSans-110"/>
      <use x="1178.193359" xlink:href="#DejaVuSans-115"/>
      <use x="1230.292969" xlink:href="#DejaVuSans-105"/>
      <use x="1258.076172" xlink:href="#DejaVuSans-111"/>
      <use x="1319.257812" xlink:href="#DejaVuSans-110"/>
      <use x="1382.636719" xlink:href="#DejaVuSans-41"/>
     </g>
    </g>
   </g>
   <g id="matplotlib.axis_2">
    <g id="ytick_1">
     <g id="line2d_17">
      <path clip-path="url(#pab827d2207)" d="M 57.6 298.944 
L 338.688 298.944 
" style="fill:none;stroke:#b0b0b0;stroke-linecap:square;stroke-width:0.8;"/>
     </g>
     <g id="line2d_18">
      <defs>
       <path d="M 0 0 
L -3.5 0 
" id="me53f670b23" style="stroke:#000000;stroke-width:0.8;"/>
      </defs>
      <g>
       <use style="stroke:#000000;stroke-width:0.8;" x="57.6" xlink:href="#me53f670b23" y="298.944"/>
      </g>
     </g>
     <g id="text_6">
      <!-- 0.0 -->
      <defs>
       <path d="M 10.6875 12.40625 
L 21 12.40625 
L 21 0 
L 10.6875 0 
z
" id="DejaVuSans-46"/>
      </defs>
      <g transform="translate(25.155 305.02275)scale(0.16 -0.16)">
       <use xlink:href="#DejaVuSans-48"/>
       <use x="63.623047" xlink:href="#DejaVuSans-46"/>
       <use x="95.410156" xlink:href="#DejaVuSans-48"/>
      </g>
     </g>
    </g>
    <g id="ytick_2">
     <g id="line2d_19">
      <path clip-path="url(#pab827d2207)" d="M 57.6 240.431525 
L 338.688 240.431525 
" style="fill:none;stroke:#b0b0b0;stroke-linecap:square;stroke-width:0.8;"/>
     </g>
     <g id="line2d_20">
      <g>
       <use style="stroke:#000000;stroke-width:0.8;" x="57.6" xlink:href="#me53f670b23" y="240.431525"/>
      </g>
     </g>
     <g id="text_7">
      <!-- 0.2 -->
      <g transform="translate(25.155 246.510275)scale(0.16 -0.16)">
       <use xlink:href="#DejaVuSans-48"/>
       <use x="63.623047" xlink:href="#DejaVuSans-46"/>
       <use x="95.410156" xlink:href="#DejaVuSans-50"/>
      </g>
     </g>
    </g>
    <g id="ytick_3">
     <g id="line2d_21">
      <path clip-path="url(#pab827d2207)" d="M 57.6 181.91905 
L 338.688 181.91905 
" style="fill:none;stroke:#b0b0b0;stroke-linecap:square;stroke-width:0.8;"/>
     </g>
     <g id="line2d_22">
      <g>
       <use style="stroke:#000000;stroke-width:0.8;" x="57.6" xlink:href="#me53f670b23" y="181.91905"/>
      </g>
     </g>
     <g id="text_8">
      <!-- 0.4 -->
      <g transform="translate(25.155 187.9978)scale(0.16 -0.16)">
       <use xlink:href="#DejaVuSans-48"/>
       <use x="63.623047" xlink:href="#DejaVuSans-46"/>
       <use x="95.410156" xlink:href="#DejaVuSans-52"/>
      </g>
     </g>
    </g>
    <g id="ytick_4">
     <g id="line2d_23">
      <path clip-path="url(#pab827d2207)" d="M 57.6 123.406574 
L 338.688 123.406574 
" style="fill:none;stroke:#b0b0b0;stroke-linecap:square;stroke-width:0.8;"/>
     </g>
     <g id="line2d_24">
      <g>
       <use style="stroke:#000000;stroke-width:0.8;" x="57.6" xlink:href="#me53f670b23" y="123.406574"/>
      </g>
     </g>
     <g id="text_9">
      <!-- 0.6 -->
      <g transform="translate(25.155 129.485324)scale(0.16 -0.16)">
       <use xlink:href="#DejaVuSans-48"/>
       <use x="63.623047" xlink:href="#DejaVuSans-46"/>
       <use x="95.410156" xlink:href="#DejaVuSans-54"/>
      </g>
     </g>
    </g>
    <g id="ytick_5">
     <g id="line2d_25">
      <path clip-path="url(#pab827d2207)" d="M 57.6 64.894099 
L 338.688 64.894099 
" style="fill:none;stroke:#b0b0b0;stroke-linecap:square;stroke-width:0.8;"/>
     </g>
     <g id="line2d_26">
      <g>
       <use style="stroke:#000000;stroke-width:0.8;" x="57.6" xlink:href="#me53f670b23" y="64.894099"/>
      </g>
     </g>
     <g id="text_10">
      <!-- 0.8 -->
      <defs>
       <path d="M 31.78125 34.625 
Q 24.75 34.625 20.71875 30.859375 
Q 16.703125 27.09375 16.703125 20.515625 
Q 16.703125 13.921875 20.71875 10.15625 
Q 24.75 6.390625 31.78125 6.390625 
Q 38.8125 6.390625 42.859375 10.171875 
Q 46.921875 13.96875 46.921875 20.515625 
Q 46.921875 27.09375 42.890625 30.859375 
Q 38.875 34.625 31.78125 34.625 
z
M 21.921875 38.8125 
Q 15.578125 40.375 12.03125 44.71875 
Q 8.5 49.078125 8.5 55.328125 
Q 8.5 64.0625 14.71875 69.140625 
Q 20.953125 74.21875 31.78125 74.21875 
Q 42.671875 74.21875 48.875 69.140625 
Q 55.078125 64.0625 55.078125 55.328125 
Q 55.078125 49.078125 51.53125 44.71875 
Q 48 40.375 41.703125 38.8125 
Q 48.828125 37.15625 52.796875 32.3125 
Q 56.78125 27.484375 56.78125 20.515625 
Q 56.78125 9.90625 50.3125 4.234375 
Q 43.84375 -1.421875 31.78125 -1.421875 
Q 19.734375 -1.421875 13.25 4.234375 
Q 6.78125 9.90625 6.78125 20.515625 
Q 6.78125 27.484375 10.78125 32.3125 
Q 14.796875 37.15625 21.921875 38.8125 
z
M 18.3125 54.390625 
Q 18.3125 48.734375 21.84375 45.5625 
Q 25.390625 42.390625 31.78125 42.390625 
Q 38.140625 42.390625 41.71875 45.5625 
Q 45.3125 48.734375 45.3125 54.390625 
Q 45.3125 60.0625 41.71875 63.234375 
Q 38.140625 66.40625 31.78125 66.40625 
Q 25.390625 66.40625 21.84375 63.234375 
Q 18.3125 60.0625 18.3125 54.390625 
z
" id="DejaVuSans-56"/>
      </defs>
      <g transform="translate(25.155 70.972849)scale(0.16 -0.16)">
       <use xlink:href="#DejaVuSans-48"/>
       <use x="63.623047" xlink:href="#DejaVuSans-46"/>
       <use x="95.410156" xlink:href="#DejaVuSans-56"/>
      </g>
     </g>
    </g>
    <g id="ytick_6">
     <g id="line2d_27">
      <path clip-path="url(#pab827d2207)" d="M 57.6 6.381624 
L 338.688 6.381624 
" style="fill:none;stroke:#b0b0b0;stroke-linecap:square;stroke-width:0.8;"/>
     </g>
     <g id="line2d_28">
      <g>
       <use style="stroke:#000000;stroke-width:0.8;" x="57.6" xlink:href="#me53f670b23" y="6.381624"/>
      </g>
     </g>
     <g id="text_11">
      <!-- 1.0 -->
      <g transform="translate(25.155 12.460374)scale(0.16 -0.16)">
       <use xlink:href="#DejaVuSans-49"/>
       <use x="63.623047" xlink:href="#DejaVuSans-46"/>
       <use x="95.410156" xlink:href="#DejaVuSans-48"/>
      </g>
     </g>
    </g>
    <g id="text_12">
     <!-- Fraction of function,target pairs -->
     <defs>
      <path d="M 9.8125 72.90625 
L 51.703125 72.90625 
L 51.703125 64.59375 
L 19.671875 64.59375 
L 19.671875 43.109375 
L 48.578125 43.109375 
L 48.578125 34.8125 
L 19.671875 34.8125 
L 19.671875 0 
L 9.8125 0 
z
" id="DejaVuSans-70"/>
      <path d="M 41.109375 46.296875 
Q 39.59375 47.171875 37.8125 47.578125 
Q 36.03125 48 33.890625 48 
Q 26.265625 48 22.1875 43.046875 
Q 18.109375 38.09375 18.109375 28.8125 
L 18.109375 0 
L 9.078125 0 
L 9.078125 54.6875 
L 18.109375 54.6875 
L 18.109375 46.1875 
Q 20.953125 51.171875 25.484375 53.578125 
Q 30.03125 56 36.53125 56 
Q 37.453125 56 38.578125 55.875 
Q 39.703125 55.765625 41.0625 55.515625 
z
" id="DejaVuSans-114"/>
      <path d="M 48.78125 52.59375 
L 48.78125 44.1875 
Q 44.96875 46.296875 41.140625 47.34375 
Q 37.3125 48.390625 33.40625 48.390625 
Q 24.65625 48.390625 19.8125 42.84375 
Q 14.984375 37.3125 14.984375 27.296875 
Q 14.984375 17.28125 19.8125 11.734375 
Q 24.65625 6.203125 33.40625 6.203125 
Q 37.3125 6.203125 41.140625 7.25 
Q 44.96875 8.296875 48.78125 10.40625 
L 48.78125 2.09375 
Q 45.015625 0.34375 40.984375 -0.53125 
Q 36.96875 -1.421875 32.421875 -1.421875 
Q 20.0625 -1.421875 12.78125 6.34375 
Q 5.515625 14.109375 5.515625 27.296875 
Q 5.515625 40.671875 12.859375 48.328125 
Q 20.21875 56 33.015625 56 
Q 37.15625 56 41.109375 55.140625 
Q 45.0625 54.296875 48.78125 52.59375 
z
" id="DejaVuSans-99"/>
      <path d="M 18.3125 70.21875 
L 18.3125 54.6875 
L 36.8125 54.6875 
L 36.8125 47.703125 
L 18.3125 47.703125 
L 18.3125 18.015625 
Q 18.3125 11.328125 20.140625 9.421875 
Q 21.96875 7.515625 27.59375 7.515625 
L 36.8125 7.515625 
L 36.8125 0 
L 27.59375 0 
Q 17.1875 0 13.234375 3.875 
Q 9.28125 7.765625 9.28125 18.015625 
L 9.28125 47.703125 
L 2.6875 47.703125 
L 2.6875 54.6875 
L 9.28125 54.6875 
L 9.28125 70.21875 
z
" id="DejaVuSans-116"/>
      <path d="M 8.5 21.578125 
L 8.5 54.6875 
L 17.484375 54.6875 
L 17.484375 21.921875 
Q 17.484375 14.15625 20.5 10.265625 
Q 23.53125 6.390625 29.59375 6.390625 
Q 36.859375 6.390625 41.078125 11.03125 
Q 45.3125 15.671875 45.3125 23.6875 
L 45.3125 54.6875 
L 54.296875 54.6875 
L 54.296875 0 
L 45.3125 0 
L 45.3125 8.40625 
Q 42.046875 3.421875 37.71875 1 
Q 33.40625 -1.421875 27.6875 -1.421875 
Q 18.265625 -1.421875 13.375 4.4375 
Q 8.5 10.296875 8.5 21.578125 
z
M 31.109375 56 
z
" id="DejaVuSans-117"/>
      <path d="M 11.71875 12.40625 
L 22.015625 12.40625 
L 22.015625 4 
L 14.015625 -11.625 
L 7.71875 -11.625 
L 11.71875 4 
z
" id="DejaVuSans-44"/>
      <path d="M 18.109375 8.203125 
L 18.109375 -20.796875 
L 9.078125 -20.796875 
L 9.078125 54.6875 
L 18.109375 54.6875 
L 18.109375 46.390625 
Q 20.953125 51.265625 25.265625 53.625 
Q 29.59375 56 35.59375 56 
Q 45.5625 56 51.78125 48.09375 
Q 58.015625 40.1875 58.015625 27.296875 
Q 58.015625 14.40625 51.78125 6.484375 
Q 45.5625 -1.421875 35.59375 -1.421875 
Q 29.59375 -1.421875 25.265625 0.953125 
Q 20.953125 3.328125 18.109375 8.203125 
z
M 48.6875 27.296875 
Q 48.6875 37.203125 44.609375 42.84375 
Q 40.53125 48.484375 33.40625 48.484375 
Q 26.265625 48.484375 22.1875 42.84375 
Q 18.109375 37.203125 18.109375 27.296875 
Q 18.109375 17.390625 22.1875 11.75 
Q 26.265625 6.109375 33.40625 6.109375 
Q 40.53125 6.109375 44.609375 11.75 
Q 48.6875 17.390625 48.6875 27.296875 
z
" id="DejaVuSans-112"/>
     </defs>
     <g transform="translate(17.619531 286.339375)rotate(-90)scale(0.17 -0.17)">
      <use xlink:href="#DejaVuSans-70"/>
      <use x="57.410156" xlink:href="#DejaVuSans-114"/>
      <use x="98.523438" xlink:href="#DejaVuSans-97"/>
      <use x="159.802734" xlink:href="#DejaVuSans-99"/>
      <use x="214.783203" xlink:href="#DejaVuSans-116"/>
      <use x="253.992188" xlink:href="#DejaVuSans-105"/>
      <use x="281.775391" xlink:href="#DejaVuSans-111"/>
      <use x="342.957031" xlink:href="#DejaVuSans-110"/>
      <use x="406.335938" xlink:href="#DejaVuSans-32"/>
      <use x="438.123047" xlink:href="#DejaVuSans-111"/>
      <use x="499.304688" xlink:href="#DejaVuSans-102"/>
      <use x="534.509766" xlink:href="#DejaVuSans-32"/>
      <use x="566.296875" xlink:href="#DejaVuSans-102"/>
      <use x="601.501953" xlink:href="#DejaVuSans-117"/>
      <use x="664.880859" xlink:href="#DejaVuSans-110"/>
      <use x="728.259766" xlink:href="#DejaVuSans-99"/>
      <use x="783.240234" xlink:href="#DejaVuSans-116"/>
      <use x="822.449219" xlink:href="#DejaVuSans-105"/>
      <use x="850.232422" xlink:href="#DejaVuSans-111"/>
      <use x="911.414062" xlink:href="#DejaVuSans-110"/>
      <use x="974.792969" xlink:href="#DejaVuSans-44"/>
      <use x="1006.580078" xlink:href="#DejaVuSans-116"/>
      <use x="1045.789062" xlink:href="#DejaVuSans-97"/>
      <use x="1107.068359" xlink:href="#DejaVuSans-114"/>
      <use x="1148.166016" xlink:href="#DejaVuSans-103"/>
      <use x="1211.642578" xlink:href="#DejaVuSans-101"/>
      <use x="1273.166016" xlink:href="#DejaVuSans-116"/>
      <use x="1312.375" xlink:href="#DejaVuSans-32"/>
      <use x="1344.162109" xlink:href="#DejaVuSans-112"/>
      <use x="1407.638672" xlink:href="#DejaVuSans-97"/>
      <use x="1468.917969" xlink:href="#DejaVuSans-105"/>
      <use x="1496.701172" xlink:href="#DejaVuSans-114"/>
      <use x="1537.814453" xlink:href="#DejaVuSans-115"/>
     </g>
    </g>
   </g>
   <g id="line2d_29">
    <defs>
     <path d="M 0 1.5 
C 0.397805 1.5 0.77937 1.341951 1.06066 1.06066 
C 1.341951 0.77937 1.5 0.397805 1.5 0 
C 1.5 -0.397805 1.341951 -0.77937 1.06066 -1.06066 
C 0.77937 -1.341951 0.397805 -1.5 0 -1.5 
C -0.397805 -1.5 -0.77937 -1.341951 -1.06066 -1.06066 
C -1.341951 -0.77937 -1.5 -0.397805 -1.5 0 
C -1.5 0.397805 -1.341951 0.77937 -1.06066 1.06066 
C -0.77937 1.341951 -0.397805 1.5 0 1.5 
z
" id="m4081298da4" style="stroke:#000080;"/>
    </defs>
    <g>
     <use style="fill:#000080;stroke:#000080;" x="214.00749" xlink:href="#m4081298da4" y="128.450753"/>
     <use style="fill:#000080;stroke:#000080;" x="214.00749" xlink:href="#m4081298da4" y="128.450753"/>
    </g>
   </g>
   <g id="line2d_30">
    <path d="M 17.444571 298.944 
L 17.444571 283.811463 
L 79.938565 283.811463 
L 79.938565 282.802628 
L 80.416384 282.802628 
L 80.416384 281.793792 
L 84.588378 281.793792 
L 84.588378 279.77612 
L 95.918017 279.77612 
L 95.918017 278.767284 
L 96.86091 278.767284 
L 96.86091 277.758449 
L 97.403108 277.758449 
L 97.403108 276.749613 
L 97.580158 276.749613 
L 97.580158 275.740777 
L 99.097574 275.740777 
L 99.097574 274.731941 
L 99.41757 274.731941 
L 99.41757 273.723105 
L 101.079711 273.723105 
L 101.079711 272.71427 
L 102.989037 272.71427 
L 102.989037 271.705434 
L 104.355088 271.705434 
L 104.355088 270.696598 
L 104.709797 270.696598 
L 104.709797 269.687762 
L 107.614095 269.687762 
L 107.614095 268.678927 
L 108.948899 268.678927 
L 108.948899 267.670091 
L 110.61104 267.670091 
L 110.61104 266.661255 
L 111.266113 266.661255 
L 111.266113 265.652419 
L 111.584648 265.652419 
L 111.584648 263.634748 
L 112.051799 263.634748 
L 112.051799 262.625912 
L 112.655818 262.625912 
L 112.655818 260.60824 
L 113.311233 260.60824 
L 113.311233 256.572897 
L 117.202696 256.572897 
L 117.202696 254.555226 
L 118.523652 254.555226 
L 118.523652 253.54639 
L 122.31944 253.54639 
L 122.31944 251.528718 
L 123.313873 251.528718 
L 123.313873 250.519883 
L 123.868806 250.519883 
L 123.868806 249.511047 
L 124.594752 249.511047 
L 124.594752 247.493375 
L 126.904721 247.493375 
L 126.904721 246.484539 
L 127.54831 246.484539 
L 127.54831 245.475704 
L 128.944197 245.475704 
L 128.944197 244.466868 
L 129.06046 244.466868 
L 129.06046 243.458032 
L 129.31925 243.458032 
L 129.31925 242.449196 
L 129.88095 242.449196 
L 129.88095 240.431525 
L 130.874681 240.431525 
L 130.874681 239.422689 
L 131.133813 239.422689 
L 131.133813 238.413853 
L 131.640805 238.413853 
L 131.640805 236.396182 
L 131.888878 236.396182 
L 131.913493 233.369674 
L 132.084827 233.369674 
L 132.084827 232.360839 
L 133.622529 232.360839 
L 133.622529 230.343167 
L 133.77794 230.343167 
L 133.77794 228.325495 
L 134.149701 228.325495 
L 134.149701 226.307824 
L 137.180776 226.307824 
L 137.180776 225.298988 
L 138.976312 225.298988 
L 138.976312 223.281316 
L 140.708409 223.281316 
L 140.708409 221.263645 
L 143.079756 221.263645 
L 143.079756 220.254809 
L 144.366588 220.254809 
L 144.366588 218.237138 
L 147.010073 218.237138 
L 147.010073 216.219466 
L 147.174888 216.219466 
L 147.174888 214.201794 
L 147.52003 214.201794 
L 147.52003 213.192959 
L 150.924291 213.192959 
L 150.924291 212.184123 
L 151.63719 212.184123 
L 151.63719 210.166451 
L 151.873711 210.166451 
L 151.873711 209.157616 
L 153.601933 209.157616 
L 153.601933 207.139944 
L 158.51398 207.139944 
L 158.599388 204.113437 
L 158.92645 204.113437 
L 158.92645 203.104601 
L 159.451521 203.104601 
L 159.451521 201.086929 
L 159.753159 201.086929 
L 159.753159 199.069258 
L 160.054568 199.069258 
L 160.054568 197.051586 
L 161.53766 197.051586 
L 161.53766 196.04275 
L 164.094319 196.04275 
L 164.094319 194.025079 
L 164.233648 194.025079 
L 164.233648 193.016243 
L 164.588513 193.016243 
L 164.588513 192.007407 
L 166.165632 192.007407 
L 166.165632 190.998572 
L 166.675688 190.998572 
L 166.675688 188.9809 
L 167.11252 188.9809 
L 167.11252 186.963228 
L 167.747913 186.963228 
L 167.747913 184.945557 
L 167.886022 184.945557 
L 167.976454 182.927885 
L 171.173108 182.927885 
L 171.173108 181.91905 
L 171.602783 181.91905 
L 171.602783 180.910214 
L 172.949044 180.910214 
L 172.949044 179.901378 
L 173.719878 179.901378 
L 173.719878 178.892542 
L 174.039142 178.892542 
L 174.039142 177.883706 
L 174.518029 177.883706 
L 174.518029 176.874871 
L 175.723637 176.874871 
L 175.723637 175.866035 
L 178.547874 175.866035 
L 178.547874 174.857199 
L 178.938729 174.857199 
L 178.938729 172.839527 
L 179.337237 172.839527 
L 179.337237 170.821856 
L 180.860867 170.821856 
L 180.860867 169.81302 
L 181.099906 169.81302 
L 181.152584 166.786513 
L 181.901854 166.786513 
L 181.901854 164.768841 
L 182.539478 164.768841 
L 182.539478 163.760005 
L 185.168668 163.760005 
L 185.168668 162.75117 
L 185.929388 162.75117 
L 185.929388 160.733498 
L 186.302005 160.733498 
L 186.302005 159.724662 
L 187.593851 159.724662 
L 187.593851 158.715827 
L 188.27321 158.715827 
L 188.27321 157.706991 
L 189.010157 157.706991 
L 189.010157 156.698155 
L 190.351957 156.698155 
L 190.351957 155.689319 
L 190.911046 155.689319 
L 190.911046 154.680483 
L 191.415495 154.680483 
L 191.415495 153.671648 
L 192.824355 153.671648 
L 192.824355 152.662812 
L 198.193685 152.662812 
L 198.193685 151.653976 
L 198.801082 151.653976 
L 198.801082 150.64514 
L 198.988081 150.64514 
L 198.988081 149.636305 
L 201.972494 149.636305 
L 202.015832 145.600961 
L 202.504057 145.600961 
L 202.504057 143.58329 
L 202.894774 143.58329 
L 202.894774 141.565618 
L 204.160536 141.565618 
L 204.160536 140.556783 
L 205.749701 140.556783 
L 205.749701 138.539111 
L 206.181096 138.539111 
L 206.181096 137.530275 
L 206.724898 137.530275 
L 206.724898 135.512604 
L 206.984591 135.512604 
L 206.984591 134.503768 
L 208.073311 134.503768 
L 208.073311 133.494932 
L 208.756608 133.494932 
L 208.756608 132.486096 
L 211.675404 132.486096 
L 211.675404 131.47726 
L 213.320622 131.47726 
L 213.373207 129.459589 
L 214.00749 129.459589 
L 214.00749 128.450753 
L 338.688 128.450753 
L 338.688 128.450753 
" style="fill:none;stroke:#000080;stroke-linecap:square;stroke-width:1.5;"/>
   </g>
   <g id="line2d_31">
    <defs>
     <path d="M 0 6 
C 1.591219 6 3.117479 5.367802 4.242641 4.242641 
C 5.367802 3.117479 6 1.591219 6 0 
C 6 -1.591219 5.367802 -3.117479 4.242641 -4.242641 
C 3.117479 -5.367802 1.591219 -6 0 -6 
C -1.591219 -6 -3.117479 -5.367802 -4.242641 -4.242641 
C -5.367802 -3.117479 -6 -1.591219 -6 0 
C -6 1.591219 -5.367802 3.117479 -4.242641 4.242641 
C -3.117479 5.367802 -1.591219 6 0 6 
z
" id="m4ddf6fbebb" style="stroke:#000080;stroke-width:1.5;"/>
    </defs>
    <g>
     <use style="fill-opacity:0;stroke:#000080;stroke-width:1.5;" x="113.311233" xlink:href="#m4ddf6fbebb" y="256.572897"/>
     <use style="fill-opacity:0;stroke:#000080;stroke-width:1.5;" x="160.054568" xlink:href="#m4ddf6fbebb" y="199.069258"/>
     <use style="fill-opacity:0;stroke:#000080;stroke-width:1.5;" x="202.894774" xlink:href="#m4ddf6fbebb" y="143.58329"/>
     <use style="fill-opacity:0;stroke:#000080;stroke-width:1.5;" x="214.00749" xlink:href="#m4ddf6fbebb" y="128.450753"/>
     <use style="fill-opacity:0;stroke:#000080;stroke-width:1.5;" x="214.00749" xlink:href="#m4ddf6fbebb" y="128.450753"/>
     <use style="fill-opacity:0;stroke:#000080;stroke-width:1.5;" x="338.688" xlink:href="#m4ddf6fbebb" y="128.450753"/>
    </g>
   </g>
   <g id="line2d_32">
    <path style="fill:none;stroke:#000080;stroke-linecap:square;stroke-width:1.5;"/>
    <g/>
   </g>
   <g id="line2d_33">
    <path clip-path="url(#pab827d2207)" d="M 216.385078 128.450753 
" style="fill:none;stroke:#000080;stroke-linecap:square;stroke-width:1.5;"/>
    <defs>
     <path d="M -12 12 
L 12 -12 
M -12 -12 
L 12 12 
" id="m910edfa35a" style="stroke:#000080;"/>
    </defs>
    <g clip-path="url(#pab827d2207)">
     <use style="fill:#000080;stroke:#000080;" x="216.385078" xlink:href="#m910edfa35a" y="128.450753"/>
    </g>
   </g>
   <g id="line2d_34">
    <defs>
     <path d="M 0 1.5 
C 0.397805 1.5 0.77937 1.341951 1.06066 1.06066 
C 1.341951 0.77937 1.5 0.397805 1.5 0 
C 1.5 -0.397805 1.341951 -0.77937 1.06066 -1.06066 
C 0.77937 -1.341951 0.397805 -1.5 0 -1.5 
C -0.397805 -1.5 -0.77937 -1.341951 -1.06066 -1.06066 
C -1.341951 -0.77937 -1.5 -0.397805 -1.5 0 
C -1.5 0.397805 -1.341951 0.77937 -1.06066 1.06066 
C -0.77937 1.341951 -0.397805 1.5 0 1.5 
z
" id="m7ea8492702" style="stroke:#ff00ff;"/>
    </defs>
    <g>
     <use style="fill:#ff00ff;stroke:#ff00ff;" x="213.83476" xlink:href="#m7ea8492702" y="149.636305"/>
     <use style="fill:#ff00ff;stroke:#ff00ff;" x="213.83476" xlink:href="#m7ea8492702" y="149.636305"/>
    </g>
   </g>
   <g id="line2d_35">
    <path d="M 17.444571 298.944 
L 17.444571 289.864478 
L 74.263433 289.864478 
L 74.263433 288.855642 
L 79.938565 288.855642 
L 79.938565 287.846806 
L 81.775977 287.846806 
L 81.775977 286.837971 
L 84.588378 286.837971 
L 84.588378 285.829135 
L 92.73846 285.829135 
L 92.73846 284.820299 
L 93.644601 284.820299 
L 93.644601 283.811463 
L 93.863965 283.811463 
L 93.863965 280.784956 
L 96.110718 280.784956 
L 96.110718 279.77612 
L 97.403108 279.77612 
L 97.403108 278.767284 
L 99.575392 278.767284 
L 99.575392 277.758449 
L 99.886816 277.758449 
L 99.886816 276.749613 
L 102.464508 276.749613 
L 102.464508 275.740777 
L 102.989037 275.740777 
L 102.989037 274.731941 
L 103.870632 274.731941 
L 103.870632 273.723105 
L 105.621863 273.723105 
L 105.621863 272.71427 
L 107.111487 272.71427 
L 107.111487 270.696598 
L 107.90885 270.696598 
L 107.90885 269.687762 
L 108.198707 269.687762 
L 108.198707 268.678927 
L 111.346294 268.678927 
L 111.426108 266.661255 
L 112.58145 266.661255 
L 112.58145 265.652419 
L 112.950158 265.652419 
L 112.950158 264.643583 
L 113.873839 264.643583 
L 113.873839 263.634748 
L 114.816733 263.634748 
L 114.816733 262.625912 
L 115.141496 262.625912 
L 115.141496 259.599405 
L 115.460322 259.599405 
L 115.460322 258.590569 
L 116.739166 258.590569 
L 116.739166 256.572897 
L 117.145424 256.572897 
L 117.202696 253.54639 
L 117.429921 253.54639 
L 117.429921 251.528718 
L 119.199476 251.528718 
L 119.199476 250.519883 
L 119.89914 250.519883 
L 119.89914 249.511047 
L 120.944859 249.511047 
L 120.944859 248.502211 
L 121.08272 248.502211 
L 121.08272 247.493375 
L 122.018385 247.493375 
L 122.018385 246.484539 
L 122.906394 246.484539 
L 122.906394 245.475704 
L 126.372183 245.475704 
L 126.372183 243.458032 
L 127.261631 243.458032 
L 127.261631 242.449196 
L 127.954256 242.449196 
L 127.954256 241.440361 
L 128.620421 241.440361 
L 128.620421 240.431525 
L 129.262072 240.431525 
L 129.262072 239.422689 
L 129.574256 239.422689 
L 129.574256 238.413853 
L 131.133813 238.413853 
L 131.133813 236.396182 
L 131.888878 236.396182 
L 131.888878 234.37851 
L 134.428735 234.37851 
L 134.428735 233.369674 
L 135.740886 233.369674 
L 135.740886 232.360839 
L 136.246972 232.360839 
L 136.246972 230.343167 
L 139.009092 230.343167 
L 139.009092 228.325495 
L 140.871049 228.325495 
L 140.973763 225.298988 
L 141.634094 225.298988 
L 141.634094 223.281316 
L 141.941279 223.281316 
L 141.941279 221.263645 
L 143.11861 221.263645 
L 143.11861 220.254809 
L 144.747789 220.254809 
L 144.747789 218.237138 
L 148.742638 218.237138 
L 148.742638 216.219466 
L 149.690956 216.219466 
L 149.699829 213.192959 
L 154.043103 213.192959 
L 154.043103 212.184123 
L 154.880133 212.184123 
L 154.880133 210.166451 
L 155.609431 210.166451 
L 155.609431 208.14878 
L 157.272146 208.14878 
L 157.272146 207.139944 
L 157.826359 207.139944 
L 157.826359 205.122272 
L 160.239731 205.122272 
L 160.239731 203.104601 
L 164.727712 203.104601 
L 164.727712 201.086929 
L 165.887376 201.086929 
L 165.887376 199.069258 
L 166.072216 199.069258 
L 166.165632 196.04275 
L 166.381675 196.04275 
L 166.381675 194.025079 
L 167.30752 194.025079 
L 167.30752 193.016243 
L 173.169812 193.016243 
L 173.169812 192.007407 
L 173.483341 192.007407 
L 173.483341 190.998572 
L 173.66385 190.998572 
L 173.66385 189.989736 
L 175.340474 189.989736 
L 175.387307 187.972064 
L 175.541172 187.972064 
L 175.59551 184.945557 
L 176.125873 184.945557 
L 176.125873 183.936721 
L 176.538086 183.936721 
L 176.538086 182.927885 
L 178.425302 182.927885 
L 178.425302 180.910214 
L 181.428 180.910214 
L 181.428 179.901378 
L 181.896254 179.901378 
L 181.896254 178.892542 
L 183.917918 178.892542 
L 183.917918 177.883706 
L 187.582739 177.883706 
L 187.582739 176.874871 
L 188.238209 176.874871 
L 188.238209 174.857199 
L 189.580786 174.857199 
L 189.580786 173.848363 
L 191.236127 173.848363 
L 191.319518 169.81302 
L 192.843797 169.81302 
L 192.843797 168.804184 
L 197.849926 168.804184 
L 197.849926 166.786513 
L 199.152288 166.786513 
L 199.152288 165.777677 
L 201.105127 165.777677 
L 201.105127 164.768841 
L 201.747893 164.768841 
L 201.747893 163.760005 
L 202.727244 163.760005 
L 202.727244 161.742334 
L 202.840935 161.742334 
L 202.887213 157.706991 
L 204.343916 157.706991 
L 204.343916 156.698155 
L 205.34718 156.698155 
L 205.34718 155.689319 
L 205.971134 155.689319 
L 206.00279 151.653976 
L 206.45135 151.653976 
L 206.45135 150.64514 
L 213.83476 150.64514 
L 213.83476 149.636305 
L 338.688 149.636305 
L 338.688 149.636305 
" style="fill:none;stroke:#ff00ff;stroke-linecap:square;stroke-width:1.5;"/>
   </g>
   <g id="line2d_36">
    <defs>
     <path d="M 0 8.485281 
L 5.091169 0 
L 0 -8.485281 
L -5.091169 0 
z
" id="mfce08eb916" style="stroke:#ff00ff;stroke-linejoin:miter;stroke-width:1.5;"/>
    </defs>
    <g>
     <use style="fill-opacity:0;stroke:#ff00ff;stroke-linejoin:miter;stroke-width:1.5;" x="79.938565" xlink:href="#mfce08eb916" y="287.846806"/>
     <use style="fill-opacity:0;stroke:#ff00ff;stroke-linejoin:miter;stroke-width:1.5;" x="141.634094" xlink:href="#mfce08eb916" y="225.298988"/>
     <use style="fill-opacity:0;stroke:#ff00ff;stroke-linejoin:miter;stroke-width:1.5;" x="183.917918" xlink:href="#mfce08eb916" y="178.892542"/>
     <use style="fill-opacity:0;stroke:#ff00ff;stroke-linejoin:miter;stroke-width:1.5;" x="213.83476" xlink:href="#mfce08eb916" y="150.64514"/>
     <use style="fill-opacity:0;stroke:#ff00ff;stroke-linejoin:miter;stroke-width:1.5;" x="213.83476" xlink:href="#mfce08eb916" y="149.636305"/>
     <use style="fill-opacity:0;stroke:#ff00ff;stroke-linejoin:miter;stroke-width:1.5;" x="338.688" xlink:href="#mfce08eb916" y="149.636305"/>
    </g>
   </g>
   <g id="line2d_37">
    <path style="fill:none;stroke:#ff00ff;stroke-linecap:square;stroke-width:1.5;"/>
    <g/>
   </g>
   <g id="line2d_38">
    <path clip-path="url(#pab827d2207)" d="M 216.385465 149.636305 
" style="fill:none;stroke:#ff00ff;stroke-linecap:square;stroke-width:1.5;"/>
    <defs>
     <path d="M -12 12 
L 12 -12 
M -12 -12 
L 12 12 
" id="mcd080ce173" style="stroke:#ff00ff;"/>
    </defs>
    <g clip-path="url(#pab827d2207)">
     <use style="fill:#ff00ff;stroke:#ff00ff;" x="216.385465" xlink:href="#mcd080ce173" y="149.636305"/>
    </g>
   </g>
   <g id="line2d_39">
    <defs>
     <path d="M 0 1.5 
C 0.397805 1.5 0.77937 1.341951 1.06066 1.06066 
C 1.341951 0.77937 1.5 0.397805 1.5 0 
C 1.5 -0.397805 1.341951 -0.77937 1.06066 -1.06066 
C 0.77937 -1.341951 0.397805 -1.5 0 -1.5 
C -0.397805 -1.5 -0.77937 -1.341951 -1.06066 -1.06066 
C -1.341951 -0.77937 -1.5 -0.397805 -1.5 0 
C -1.5 0.397805 -1.341951 0.77937 -1.06066 1.06066 
C -0.77937 1.341951 -0.397805 1.5 0 1.5 
z
" id="mda5dd40409" style="stroke:#ffa500;"/>
    </defs>
    <g>
     <use style="fill:#ffa500;stroke:#ffa500;" x="216.257505" xlink:href="#mda5dd40409" y="105.24753"/>
     <use style="fill:#ffa500;stroke:#ffa500;" x="216.257505" xlink:href="#mda5dd40409" y="105.24753"/>
    </g>
   </g>
   <g id="line2d_40">
    <path d="M 17.444571 298.944 
L 17.444571 292.890985 
L 36.60358 292.890985 
L 36.60358 287.846806 
L 41.620548 287.846806 
L 41.620548 286.837971 
L 48.691568 286.837971 
L 48.691568 281.793792 
L 72.125336 281.793792 
L 72.125336 280.784956 
L 73.579452 280.784956 
L 73.579452 279.77612 
L 75.555822 279.77612 
L 75.555822 278.767284 
L 79.938565 278.767284 
L 79.938565 277.758449 
L 84.213325 277.758449 
L 84.213325 276.749613 
L 84.588378 276.749613 
L 84.588378 274.731941 
L 85.315119 274.731941 
L 85.315119 272.71427 
L 87.952479 272.71427 
L 87.952479 271.705434 
L 88.255778 271.705434 
L 88.255778 270.696598 
L 88.846997 270.696598 
L 88.846997 267.670091 
L 89.135256 267.670091 
L 89.135256 266.661255 
L 90.509138 266.661255 
L 90.509138 264.643583 
L 91.284345 264.643583 
L 91.284345 262.625912 
L 92.267099 262.625912 
L 92.267099 260.60824 
L 92.73846 260.60824 
L 92.73846 259.599405 
L 93.863965 259.599405 
L 93.863965 258.590569 
L 95.918017 258.590569 
L 95.918017 257.581733 
L 96.110718 257.581733 
L 96.110718 256.572897 
L 97.755429 256.572897 
L 97.755429 255.564061 
L 98.100772 255.564061 
L 98.100772 254.555226 
L 99.575392 254.555226 
L 99.575392 253.54639 
L 100.343767 253.54639 
L 100.343767 251.528718 
L 101.506816 251.528718 
L 101.506816 249.511047 
L 102.330873 249.511047 
L 102.330873 247.493375 
L 102.728744 247.493375 
L 102.728744 246.484539 
L 102.859376 246.484539 
L 102.859376 245.475704 
L 103.245502 245.475704 
L 103.245502 244.466868 
L 106.802819 244.466868 
L 106.906317 238.413853 
L 108.764355 238.413853 
L 108.764355 237.405017 
L 108.948899 237.405017 
L 108.948899 236.396182 
L 109.930396 236.396182 
L 109.930396 235.387346 
L 110.443353 235.387346 
L 110.443353 234.37851 
L 112.204777 234.37851 
L 112.204777 232.360839 
L 112.58145 232.360839 
L 112.58145 230.343167 
L 113.239614 230.343167 
L 113.239614 228.325495 
L 113.942906 228.325495 
L 113.942906 226.307824 
L 114.080224 226.307824 
L 114.080224 225.298988 
L 114.284194 225.298988 
L 114.284194 221.263645 
L 114.751048 221.263645 
L 114.816733 218.237138 
L 114.882171 218.237138 
L 114.882171 217.228302 
L 115.012316 217.228302 
L 115.012316 215.21063 
L 116.914437 215.21063 
L 116.914437 214.201794 
L 117.709852 214.201794 
L 117.709852 212.184123 
L 120.045484 212.184123 
L 120.045484 210.166451 
L 123.751369 210.166451 
L 123.751369 208.14878 
L 127.035353 208.14878 
L 127.035353 205.122272 
L 127.421479 205.122272 
L 127.421479 204.113437 
L 127.830353 204.113437 
L 127.830353 202.095765 
L 127.954256 202.095765 
L 127.954256 201.086929 
L 128.856489 201.086929 
L 128.944197 199.069258 
L 129.262072 199.069258 
L 129.262072 196.04275 
L 131.338382 196.04275 
L 131.338382 192.007407 
L 132.157744 192.007407 
L 132.157744 189.989736 
L 132.659801 189.989736 
L 132.659801 187.972064 
L 133.19358 187.972064 
L 133.19358 186.963228 
L 134.019394 186.963228 
L 134.019394 185.954393 
L 134.513701 185.954393 
L 134.513701 184.945557 
L 135.482227 184.945557 
L 135.482227 183.936721 
L 135.898175 183.936721 
L 135.97629 180.910214 
L 136.626514 180.910214 
L 136.626514 179.901378 
L 136.757427 179.901378 
L 136.757427 177.883706 
L 137.162581 177.883706 
L 137.162581 176.874871 
L 139.009092 176.874871 
L 139.009092 175.866035 
L 139.493548 175.866035 
L 139.493548 174.857199 
L 139.793552 174.857199 
L 139.793552 172.839527 
L 141.605898 172.839527 
L 141.605898 170.821856 
L 141.899708 170.821856 
L 141.899708 168.804184 
L 142.419098 168.804184 
L 142.419098 167.795349 
L 144.402681 167.795349 
L 144.402681 166.786513 
L 147.550159 166.786513 
L 147.550159 165.777677 
L 154.978716 165.777677 
L 154.978716 163.760005 
L 158.952561 163.760005 
L 158.952561 162.75117 
L 160.590016 162.75117 
L 160.694216 159.724662 
L 160.797798 159.724662 
L 160.797798 158.715827 
L 161.470039 158.715827 
L 161.470039 157.706991 
L 163.573705 157.706991 
L 163.573705 156.698155 
L 163.737081 156.698155 
L 163.737081 154.680483 
L 164.167992 154.680483 
L 164.167992 153.671648 
L 165.054383 153.671648 
L 165.054383 151.653976 
L 167.490771 151.653976 
L 167.490771 150.64514 
L 171.13682 150.64514 
L 171.237722 148.627469 
L 171.531901 148.627469 
L 171.531901 147.618633 
L 171.746192 147.618633 
L 171.746192 145.600961 
L 172.04677 145.600961 
L 172.04677 144.592126 
L 172.218321 144.592126 
L 172.218321 143.58329 
L 172.808158 143.58329 
L 172.808158 142.574454 
L 174.126799 142.574454 
L 174.126799 140.556783 
L 180.299235 140.556783 
L 180.299235 139.547947 
L 180.427645 139.547947 
L 180.427645 138.539111 
L 180.699667 138.539111 
L 180.734122 135.512604 
L 180.994071 135.512604 
L 181.098441 133.494932 
L 182.947573 133.494932 
L 182.947573 132.486096 
L 187.849483 132.486096 
L 187.849483 130.468425 
L 190.080875 130.468425 
L 190.109747 128.450753 
L 190.21868 128.450753 
L 190.290638 125.424246 
L 194.084062 125.424246 
L 194.084062 124.41541 
L 194.361649 124.41541 
L 194.361649 122.397738 
L 196.195635 122.397738 
L 196.195635 121.388903 
L 196.369283 121.388903 
L 196.369283 120.380067 
L 196.570819 120.380067 
L 196.570819 119.371231 
L 200.135869 119.371231 
L 200.135869 117.35356 
L 202.202106 117.35356 
L 202.213901 114.327052 
L 202.333579 114.327052 
L 202.333579 113.318216 
L 203.99848 113.318216 
L 203.99848 112.309381 
L 209.762043 112.309381 
L 209.762043 111.300545 
L 209.88652 111.300545 
L 209.88652 110.291709 
L 212.170152 110.291709 
L 212.170152 109.282873 
L 212.421483 109.282873 
L 212.421483 107.265202 
L 216.257505 107.265202 
L 216.257505 105.24753 
L 338.688 105.24753 
L 338.688 105.24753 
" style="fill:none;stroke:#ffa500;stroke-linecap:square;stroke-width:1.5;"/>
   </g>
   <g id="line2d_41">
    <defs>
     <path d="M 0 -6 
L -1.347084 -1.854102 
L -5.706339 -1.854102 
L -2.179628 0.708204 
L -3.526712 4.854102 
L -0 2.291796 
L 3.526712 4.854102 
L 2.179628 0.708204 
L 5.706339 -1.854102 
L 1.347084 -1.854102 
z
" id="m76dcab471d" style="stroke:#ffa500;stroke-linejoin:bevel;stroke-width:1.5;"/>
    </defs>
    <g>
     <use style="fill-opacity:0;stroke:#ffa500;stroke-linejoin:bevel;stroke-width:1.5;" x="101.506816" xlink:href="#m76dcab471d" y="249.511047"/>
     <use style="fill-opacity:0;stroke:#ffa500;stroke-linejoin:bevel;stroke-width:1.5;" x="134.513701" xlink:href="#m76dcab471d" y="184.945557"/>
     <use style="fill-opacity:0;stroke:#ffa500;stroke-linejoin:bevel;stroke-width:1.5;" x="194.361649" xlink:href="#m76dcab471d" y="124.41541"/>
     <use style="fill-opacity:0;stroke:#ffa500;stroke-linejoin:bevel;stroke-width:1.5;" x="216.257505" xlink:href="#m76dcab471d" y="105.24753"/>
     <use style="fill-opacity:0;stroke:#ffa500;stroke-linejoin:bevel;stroke-width:1.5;" x="216.257505" xlink:href="#m76dcab471d" y="105.24753"/>
     <use style="fill-opacity:0;stroke:#ffa500;stroke-linejoin:bevel;stroke-width:1.5;" x="338.688" xlink:href="#m76dcab471d" y="105.24753"/>
    </g>
   </g>
   <g id="line2d_42">
    <path style="fill:none;stroke:#ffa500;stroke-linecap:square;stroke-width:1.5;"/>
    <g/>
   </g>
   <g id="line2d_43">
    <path clip-path="url(#pab827d2207)" d="M 216.384884 105.24753 
" style="fill:none;stroke:#ffa500;stroke-linecap:square;stroke-width:1.5;"/>
    <defs>
     <path d="M -12 12 
L 12 -12 
M -12 -12 
L 12 12 
" id="mb204be7ff5" style="stroke:#ffa500;"/>
    </defs>
    <g clip-path="url(#pab827d2207)">
     <use style="fill:#ffa500;stroke:#ffa500;" x="216.384884" xlink:href="#mb204be7ff5" y="105.24753"/>
    </g>
   </g>
   <g id="line2d_44">
    <defs>
     <path d="M 0 1.5 
C 0.397805 1.5 0.77937 1.341951 1.06066 1.06066 
C 1.341951 0.77937 1.5 0.397805 1.5 0 
C 1.5 -0.397805 1.341951 -0.77937 1.06066 -1.06066 
C 0.77937 -1.341951 0.397805 -1.5 0 -1.5 
C -0.397805 -1.5 -0.77937 -1.341951 -1.06066 -1.06066 
C -1.341951 -0.77937 -1.5 -0.397805 -1.5 0 
C -1.5 0.397805 -1.341951 0.77937 -1.06066 1.06066 
C -0.77937 1.341951 -0.397805 1.5 0 1.5 
z
" id="m590982eb6b" style="stroke:#6495ed;"/>
    </defs>
    <g>
     <use style="fill:#6495ed;stroke:#6495ed;" x="210.607728" xlink:href="#m590982eb6b" y="110.291709"/>
     <use style="fill:#6495ed;stroke:#6495ed;" x="210.607728" xlink:href="#m590982eb6b" y="110.291709"/>
    </g>
   </g>
   <g id="line2d_45">
    <path d="M 17.444571 298.944 
L 17.444571 289.864478 
L 63.467834 289.864478 
L 63.467834 287.846806 
L 65.796525 287.846806 
L 65.796525 283.811463 
L 66.853775 283.811463 
L 66.853775 282.802628 
L 73.579452 282.802628 
L 73.579452 280.784956 
L 78.421149 280.784956 
L 78.421149 279.77612 
L 79.447285 279.77612 
L 79.447285 278.767284 
L 82.206598 278.767284 
L 82.206598 277.758449 
L 83.830028 277.758449 
L 83.830028 276.749613 
L 84.588378 276.749613 
L 84.588378 275.740777 
L 86.683608 275.740777 
L 86.683608 274.731941 
L 87.009585 274.731941 
L 87.009585 273.723105 
L 88.255778 273.723105 
L 88.255778 270.696598 
L 88.846997 270.696598 
L 88.846997 269.687762 
L 90.242884 269.687762 
L 90.242884 268.678927 
L 91.284345 268.678927 
L 91.284345 266.661255 
L 91.535274 266.661255 
L 91.535274 265.652419 
L 92.267099 265.652419 
L 92.267099 263.634748 
L 93.644601 263.634748 
L 93.644601 261.617076 
L 93.863965 261.617076 
L 93.863965 258.590569 
L 95.723163 258.590569 
L 95.723163 257.581733 
L 95.918017 257.581733 
L 95.918017 255.564061 
L 96.110718 255.564061 
L 96.110718 249.511047 
L 97.580158 249.511047 
L 97.580158 247.493375 
L 98.100772 247.493375 
L 98.100772 242.449196 
L 99.886816 242.449196 
L 99.886816 241.440361 
L 101.079711 241.440361 
L 101.079711 240.431525 
L 101.506816 240.431525 
L 101.506816 238.413853 
L 103.747386 238.413853 
L 103.747386 236.396182 
L 103.870632 236.396182 
L 103.870632 234.37851 
L 104.709797 234.37851 
L 104.709797 233.369674 
L 104.826449 233.369674 
L 104.826449 230.343167 
L 105.732589 230.343167 
L 105.732589 228.325495 
L 106.168594 228.325495 
L 106.168594 226.307824 
L 108.102622 226.307824 
L 108.102622 224.290152 
L 110.188761 224.290152 
L 110.188761 223.281316 
L 110.859585 223.281316 
L 110.859585 221.263645 
L 112.204777 221.263645 
L 112.204777 220.254809 
L 112.950158 220.254809 
L 112.950158 218.237138 
L 113.311233 218.237138 
L 113.311233 216.219466 
L 113.804498 216.219466 
L 113.804498 214.201794 
L 114.216469 214.201794 
L 114.284194 212.184123 
L 114.882171 212.184123 
L 114.882171 211.175287 
L 116.562116 211.175287 
L 116.562116 209.157616 
L 118.148599 209.157616 
L 118.148599 208.14878 
L 121.931406 208.14878 
L 121.931406 206.131108 
L 124.780872 206.131108 
L 124.780872 204.113437 
L 125.787955 204.113437 
L 125.787955 202.095765 
L 126.168212 202.095765 
L 126.168212 200.078094 
L 127.261631 200.078094 
L 127.261631 198.060422 
L 128.107907 198.060422 
L 128.107907 196.04275 
L 128.91501 196.04275 
L 128.91501 195.033915 
L 130.398313 195.033915 
L 130.398313 194.025079 
L 131.236397 194.025079 
L 131.236397 193.016243 
L 133.733678 193.016243 
L 133.733678 192.007407 
L 138.375473 192.007407 
L 138.375473 190.998572 
L 138.69516 190.998572 
L 138.69516 189.989736 
L 139.204493 189.989736 
L 139.204493 186.963228 
L 139.477614 186.963228 
L 139.477614 185.954393 
L 140.663789 185.954393 
L 140.663789 183.936721 
L 141.335737 183.936721 
L 141.335737 182.927885 
L 143.324386 182.927885 
L 143.324386 181.91905 
L 143.952218 181.91905 
L 143.952218 179.901378 
L 145.005114 179.901378 
L 145.005114 178.892542 
L 145.688202 178.892542 
L 145.743936 176.874871 
L 150.344189 176.874871 
L 150.344189 174.857199 
L 154.221969 174.857199 
L 154.221969 173.848363 
L 157.887482 173.848363 
L 157.887482 172.839527 
L 158.069574 172.839527 
L 158.069574 170.821856 
L 159.319173 170.821856 
L 159.319173 169.81302 
L 161.420284 169.81302 
L 161.420284 167.795349 
L 161.7078 167.795349 
L 161.725614 164.768841 
L 162.016937 164.768841 
L 162.016937 161.742334 
L 162.397949 161.742334 
L 162.397949 160.733498 
L 163.969529 160.733498 
L 163.969529 159.724662 
L 167.954668 159.724662 
L 167.954668 158.715827 
L 169.992103 158.715827 
L 170.044668 154.680483 
L 170.116344 154.680483 
L 170.116344 153.671648 
L 170.494616 153.671648 
L 170.567151 150.64514 
L 171.253194 150.64514 
L 171.253194 149.636305 
L 171.905821 149.636305 
L 171.915749 146.609797 
L 172.303468 146.609797 
L 172.303468 145.600961 
L 173.791333 145.600961 
L 173.824726 143.58329 
L 174.203138 143.58329 
L 174.203138 142.574454 
L 174.582034 142.574454 
L 174.582034 140.556783 
L 175.543188 140.556783 
L 175.543188 139.547947 
L 176.868082 139.547947 
L 176.868082 138.539111 
L 181.083779 138.539111 
L 181.083779 136.521439 
L 181.465353 136.521439 
L 181.57408 134.503768 
L 181.77684 134.503768 
L 181.77684 133.494932 
L 182.070391 133.494932 
L 182.070391 131.47726 
L 186.656175 131.47726 
L 186.656175 130.468425 
L 186.838509 130.468425 
L 186.838509 128.450753 
L 187.162397 128.450753 
L 187.162397 127.441917 
L 188.515312 127.441917 
L 188.515312 126.433082 
L 188.868993 126.433082 
L 188.868993 125.424246 
L 190.643495 125.424246 
L 190.643495 124.41541 
L 196.694707 124.41541 
L 196.694707 123.406574 
L 200.674994 123.406574 
L 200.674994 122.397738 
L 206.520737 122.397738 
L 206.520737 120.380067 
L 207.17554 120.380067 
L 207.270563 114.327052 
L 207.621237 114.327052 
L 207.621237 112.309381 
L 210.607728 112.309381 
L 210.607728 110.291709 
L 338.688 110.291709 
L 338.688 110.291709 
" style="fill:none;stroke:#6495ed;stroke-linecap:square;stroke-width:1.5;"/>
   </g>
   <g id="line2d_46">
    <defs>
     <path d="M -0 6 
L 6 -6 
L -6 -6 
z
" id="mf6b56344ec" style="stroke:#6495ed;stroke-linejoin:miter;stroke-width:1.5;"/>
    </defs>
    <g>
     <use style="fill-opacity:0;stroke:#6495ed;stroke-linejoin:miter;stroke-width:1.5;" x="96.110718" xlink:href="#mf6b56344ec" y="255.564061"/>
     <use style="fill-opacity:0;stroke:#6495ed;stroke-linejoin:miter;stroke-width:1.5;" x="139.477614" xlink:href="#mf6b56344ec" y="185.954393"/>
     <use style="fill-opacity:0;stroke:#6495ed;stroke-linejoin:miter;stroke-width:1.5;" x="196.694707" xlink:href="#mf6b56344ec" y="124.41541"/>
     <use style="fill-opacity:0;stroke:#6495ed;stroke-linejoin:miter;stroke-width:1.5;" x="210.607728" xlink:href="#mf6b56344ec" y="110.291709"/>
     <use style="fill-opacity:0;stroke:#6495ed;stroke-linejoin:miter;stroke-width:1.5;" x="210.607728" xlink:href="#mf6b56344ec" y="110.291709"/>
     <use style="fill-opacity:0;stroke:#6495ed;stroke-linejoin:miter;stroke-width:1.5;" x="338.688" xlink:href="#mf6b56344ec" y="110.291709"/>
    </g>
   </g>
   <g id="line2d_47">
    <path style="fill:none;stroke:#6495ed;stroke-linecap:square;stroke-width:1.5;"/>
    <g/>
   </g>
   <g id="line2d_48">
    <path clip-path="url(#pab827d2207)" d="M 216.384884 110.291709 
" style="fill:none;stroke:#6495ed;stroke-linecap:square;stroke-width:1.5;"/>
    <defs>
     <path d="M -12 12 
L 12 -12 
M -12 -12 
L 12 12 
" id="me3bd282340" style="stroke:#6495ed;"/>
    </defs>
    <g clip-path="url(#pab827d2207)">
     <use style="fill:#6495ed;stroke:#6495ed;" x="216.384884" xlink:href="#me3bd282340" y="110.291709"/>
    </g>
   </g>
   <g id="line2d_49">
    <path d="M 338.688 149.636305 
L 369.60768 293.092752 
" style="fill:none;stroke:#ff00ff;stroke-linecap:square;stroke-width:1.5;"/>
    <g>
     <use style="fill-opacity:0;stroke:#ff00ff;stroke-linejoin:miter;stroke-width:1.5;" x="338.688" xlink:href="#mfce08eb916" y="149.636305"/>
     <use style="fill-opacity:0;stroke:#ff00ff;stroke-linejoin:miter;stroke-width:1.5;" x="369.60768" xlink:href="#mfce08eb916" y="293.092752"/>
    </g>
   </g>
   <g id="line2d_50">
    <path d="M 338.688 128.450753 
L 369.60768 199.472792 
" style="fill:none;stroke:#000080;stroke-linecap:square;stroke-width:1.5;"/>
    <g>
     <use style="fill-opacity:0;stroke:#000080;stroke-width:1.5;" x="338.688" xlink:href="#m4ddf6fbebb" y="128.450753"/>
     <use style="fill-opacity:0;stroke:#000080;stroke-width:1.5;" x="369.60768" xlink:href="#m4ddf6fbebb" y="199.472792"/>
    </g>
   </g>
   <g id="line2d_51">
    <path d="M 338.688 110.291709 
L 369.60768 105.852832 
" style="fill:none;stroke:#6495ed;stroke-linecap:square;stroke-width:1.5;"/>
    <g>
     <use style="fill-opacity:0;stroke:#6495ed;stroke-linejoin:miter;stroke-width:1.5;" x="338.688" xlink:href="#mf6b56344ec" y="110.291709"/>
     <use style="fill-opacity:0;stroke:#6495ed;stroke-linejoin:miter;stroke-width:1.5;" x="369.60768" xlink:href="#mf6b56344ec" y="105.852832"/>
    </g>
   </g>
   <g id="line2d_52">
    <path d="M 338.688 105.24753 
L 369.60768 12.232871 
" style="fill:none;stroke:#ffa500;stroke-linecap:square;stroke-width:1.5;"/>
    <g>
     <use style="fill-opacity:0;stroke:#ffa500;stroke-linejoin:bevel;stroke-width:1.5;" x="338.688" xlink:href="#m76dcab471d" y="105.24753"/>
     <use style="fill-opacity:0;stroke:#ffa500;stroke-linejoin:bevel;stroke-width:1.5;" x="369.60768" xlink:href="#m76dcab471d" y="12.232871"/>
    </g>
   </g>
   <g id="line2d_53">
    <path d="M 338.688 298.944 
L 338.688 6.381624 
" style="fill:none;stroke:#000000;stroke-linecap:square;stroke-width:1.5;"/>
   </g>
   <g id="patch_3">
    <path d="M 57.6 298.944 
L 57.6 3.456 
" style="fill:none;stroke:#000000;stroke-linecap:square;stroke-linejoin:miter;stroke-width:0.8;"/>
   </g>
   <g id="patch_4">
    <path d="M 338.688 298.944 
L 338.688 3.456 
" style="fill:none;stroke:#000000;stroke-linecap:square;stroke-linejoin:miter;stroke-width:0.8;"/>
   </g>
   <g id="patch_5">
    <path d="M 57.6 298.944 
L 338.688 298.944 
" style="fill:none;stroke:#000000;stroke-linecap:square;stroke-linejoin:miter;stroke-width:0.8;"/>
   </g>
   <g id="patch_6">
    <path d="M 57.6 3.456 
L 338.688 3.456 
" style="fill:none;stroke:#000000;stroke-linecap:square;stroke-linejoin:miter;stroke-width:0.8;"/>
   </g>
   <g id="text_13">
    <!-- f4 -->
    <g transform="translate(375.22944 297.78369)scale(0.17 -0.17)">
     <use xlink:href="#DejaVuSans-102"/>
     <use x="35.205078" xlink:href="#DejaVuSans-52"/>
    </g>
   </g>
   <g id="text_14">
    <!-- f3 -->
    <defs>
     <path d="M 40.578125 39.3125 
Q 47.65625 37.796875 51.625 33 
Q 55.609375 28.21875 55.609375 21.1875 
Q 55.609375 10.40625 48.1875 4.484375 
Q 40.765625 -1.421875 27.09375 -1.421875 
Q 22.515625 -1.421875 17.65625 -0.515625 
Q 12.796875 0.390625 7.625 2.203125 
L 7.625 11.71875 
Q 11.71875 9.328125 16.59375 8.109375 
Q 21.484375 6.890625 26.8125 6.890625 
Q 36.078125 6.890625 40.9375 10.546875 
Q 45.796875 14.203125 45.796875 21.1875 
Q 45.796875 27.640625 41.28125 31.265625 
Q 36.765625 34.90625 28.71875 34.90625 
L 20.21875 34.90625 
L 20.21875 43.015625 
L 29.109375 43.015625 
Q 36.375 43.015625 40.234375 45.921875 
Q 44.09375 48.828125 44.09375 54.296875 
Q 44.09375 59.90625 40.109375 62.90625 
Q 36.140625 65.921875 28.71875 65.921875 
Q 24.65625 65.921875 20.015625 65.03125 
Q 15.375 64.15625 9.8125 62.3125 
L 9.8125 71.09375 
Q 15.4375 72.65625 20.34375 73.4375 
Q 25.25 74.21875 29.59375 74.21875 
Q 40.828125 74.21875 47.359375 69.109375 
Q 53.90625 64.015625 53.90625 55.328125 
Q 53.90625 49.265625 50.4375 45.09375 
Q 46.96875 40.921875 40.578125 39.3125 
z
" id="DejaVuSans-51"/>
    </defs>
    <g transform="translate(375.22944 204.16373)scale(0.17 -0.17)">
     <use xlink:href="#DejaVuSans-102"/>
     <use x="35.205078" xlink:href="#DejaVuSans-51"/>
    </g>
   </g>
   <g id="text_15">
    <!-- f13 -->
    <g transform="translate(375.22944 110.543769)scale(0.17 -0.17)">
     <use xlink:href="#DejaVuSans-102"/>
     <use x="35.205078" xlink:href="#DejaVuSans-49"/>
     <use x="98.828125" xlink:href="#DejaVuSans-51"/>
    </g>
   </g>
   <g id="text_16">
    <!-- f12 -->
    <g transform="translate(375.22944 16.923809)scale(0.17 -0.17)">
     <use xlink:href="#DejaVuSans-102"/>
     <use x="35.205078" xlink:href="#DejaVuSans-49"/>
     <use x="98.828125" xlink:href="#DejaVuSans-50"/>
    </g>
   </g>
   <g id="text_17">
    <!-- bbob-biobj -->
    <defs>
     <path d="M 48.6875 27.296875 
Q 48.6875 37.203125 44.609375 42.84375 
Q 40.53125 48.484375 33.40625 48.484375 
Q 26.265625 48.484375 22.1875 42.84375 
Q 18.109375 37.203125 18.109375 27.296875 
Q 18.109375 17.390625 22.1875 11.75 
Q 26.265625 6.109375 33.40625 6.109375 
Q 40.53125 6.109375 44.609375 11.75 
Q 48.6875 17.390625 48.6875 27.296875 
z
M 18.109375 46.390625 
Q 20.953125 51.265625 25.265625 53.625 
Q 29.59375 56 35.59375 56 
Q 45.5625 56 51.78125 48.09375 
Q 58.015625 40.1875 58.015625 27.296875 
Q 58.015625 14.40625 51.78125 6.484375 
Q 45.5625 -1.421875 35.59375 -1.421875 
Q 29.59375 -1.421875 25.265625 0.953125 
Q 20.953125 3.328125 18.109375 8.203125 
L 18.109375 0 
L 9.078125 0 
L 9.078125 75.984375 
L 18.109375 75.984375 
z
" id="DejaVuSans-98"/>
     <path d="M 9.421875 54.6875 
L 18.40625 54.6875 
L 18.40625 -0.984375 
Q 18.40625 -11.421875 14.421875 -16.109375 
Q 10.453125 -20.796875 1.609375 -20.796875 
L -1.8125 -20.796875 
L -1.8125 -13.1875 
L 0.59375 -13.1875 
Q 5.71875 -13.1875 7.5625 -10.8125 
Q 9.421875 -8.453125 9.421875 -0.984375 
z
M 9.421875 75.984375 
L 18.40625 75.984375 
L 18.40625 64.59375 
L 9.421875 64.59375 
z
" id="DejaVuSans-106"/>
    </defs>
    <g transform="translate(60.41088 14.161286)scale(0.102 -0.102)">
     <use xlink:href="#DejaVuSans-98"/>
     <use x="63.476562" xlink:href="#DejaVuSans-98"/>
     <use x="126.953125" xlink:href="#DejaVuSans-111"/>
     <use x="188.134766" xlink:href="#DejaVuSans-98"/>
     <use x="251.611328" xlink:href="#DejaVuSans-45"/>
     <use x="287.695312" xlink:href="#DejaVuSans-98"/>
     <use x="351.171875" xlink:href="#DejaVuSans-105"/>
     <use x="378.955078" xlink:href="#DejaVuSans-111"/>
     <use x="440.136719" xlink:href="#DejaVuSans-98"/>
     <use x="503.613281" xlink:href="#DejaVuSans-106"/>
    </g>
    <!-- 1-separable 2-moderate, 10-D -->
    <defs>
     <path d="M 19.671875 64.796875 
L 19.671875 8.109375 
L 31.59375 8.109375 
Q 46.6875 8.109375 53.6875 14.9375 
Q 60.6875 21.78125 60.6875 36.53125 
Q 60.6875 51.171875 53.6875 57.984375 
Q 46.6875 64.796875 31.59375 64.796875 
z
M 9.8125 72.90625 
L 30.078125 72.90625 
Q 51.265625 72.90625 61.171875 64.09375 
Q 71.09375 55.28125 71.09375 36.53125 
Q 71.09375 17.671875 61.125 8.828125 
Q 51.171875 0 30.078125 0 
L 9.8125 0 
z
" id="DejaVuSans-68"/>
    </defs>
    <g transform="translate(60.41088 25.583055)scale(0.102 -0.102)">
     <use xlink:href="#DejaVuSans-49"/>
     <use x="63.623047" xlink:href="#DejaVuSans-45"/>
     <use x="99.707031" xlink:href="#DejaVuSans-115"/>
     <use x="151.806641" xlink:href="#DejaVuSans-101"/>
     <use x="213.330078" xlink:href="#DejaVuSans-112"/>
     <use x="276.806641" xlink:href="#DejaVuSans-97"/>
     <use x="338.085938" xlink:href="#DejaVuSans-114"/>
     <use x="379.199219" xlink:href="#DejaVuSans-97"/>
     <use x="440.478516" xlink:href="#DejaVuSans-98"/>
     <use x="503.955078" xlink:href="#DejaVuSans-108"/>
     <use x="531.738281" xlink:href="#DejaVuSans-101"/>
     <use x="593.261719" xlink:href="#DejaVuSans-32"/>
     <use x="625.048828" xlink:href="#DejaVuSans-50"/>
     <use x="688.671875" xlink:href="#DejaVuSans-45"/>
     <use x="724.755859" xlink:href="#DejaVuSans-109"/>
     <use x="822.167969" xlink:href="#DejaVuSans-111"/>
     <use x="883.349609" xlink:href="#DejaVuSans-100"/>
     <use x="946.826172" xlink:href="#DejaVuSans-101"/>
     <use x="1008.349609" xlink:href="#DejaVuSans-114"/>
     <use x="1049.462891" xlink:href="#DejaVuSans-97"/>
     <use x="1110.742188" xlink:href="#DejaVuSans-116"/>
     <use x="1149.951172" xlink:href="#DejaVuSans-101"/>
     <use x="1211.474609" xlink:href="#DejaVuSans-44"/>
     <use x="1243.261719" xlink:href="#DejaVuSans-32"/>
     <use x="1275.048828" xlink:href="#DejaVuSans-49"/>
     <use x="1338.671875" xlink:href="#DejaVuSans-48"/>
     <use x="1402.294922" xlink:href="#DejaVuSans-45"/>
     <use x="1438.378906" xlink:href="#DejaVuSans-68"/>
    </g>
    <!-- 58 targets: 1..-1.0e-4 -->
    <defs>
     <path d="M 10.796875 72.90625 
L 49.515625 72.90625 
L 49.515625 64.59375 
L 19.828125 64.59375 
L 19.828125 46.734375 
Q 21.96875 47.46875 24.109375 47.828125 
Q 26.265625 48.1875 28.421875 48.1875 
Q 40.625 48.1875 47.75 41.5 
Q 54.890625 34.8125 54.890625 23.390625 
Q 54.890625 11.625 47.5625 5.09375 
Q 40.234375 -1.421875 26.90625 -1.421875 
Q 22.3125 -1.421875 17.546875 -0.640625 
Q 12.796875 0.140625 7.71875 1.703125 
L 7.71875 11.625 
Q 12.109375 9.234375 16.796875 8.0625 
Q 21.484375 6.890625 26.703125 6.890625 
Q 35.15625 6.890625 40.078125 11.328125 
Q 45.015625 15.765625 45.015625 23.390625 
Q 45.015625 31 40.078125 35.4375 
Q 35.15625 39.890625 26.703125 39.890625 
Q 22.75 39.890625 18.8125 39.015625 
Q 14.890625 38.140625 10.796875 36.28125 
z
" id="DejaVuSans-53"/>
     <path d="M 11.71875 12.40625 
L 22.015625 12.40625 
L 22.015625 0 
L 11.71875 0 
z
M 11.71875 51.703125 
L 22.015625 51.703125 
L 22.015625 39.3125 
L 11.71875 39.3125 
z
" id="DejaVuSans-58"/>
    </defs>
    <g transform="translate(60.41088 37.004824)scale(0.102 -0.102)">
     <use xlink:href="#DejaVuSans-53"/>
     <use x="63.623047" xlink:href="#DejaVuSans-56"/>
     <use x="127.246094" xlink:href="#DejaVuSans-32"/>
     <use x="159.033203" xlink:href="#DejaVuSans-116"/>
     <use x="198.242188" xlink:href="#DejaVuSans-97"/>
     <use x="259.521484" xlink:href="#DejaVuSans-114"/>
     <use x="300.619141" xlink:href="#DejaVuSans-103"/>
     <use x="364.095703" xlink:href="#DejaVuSans-101"/>
     <use x="425.619141" xlink:href="#DejaVuSans-116"/>
     <use x="464.828125" xlink:href="#DejaVuSans-115"/>
     <use x="516.927734" xlink:href="#DejaVuSans-58"/>
     <use x="550.619141" xlink:href="#DejaVuSans-32"/>
     <use x="582.40625" xlink:href="#DejaVuSans-49"/>
     <use x="646.029297" xlink:href="#DejaVuSans-46"/>
     <use x="677.816406" xlink:href="#DejaVuSans-46"/>
     <use x="709.603516" xlink:href="#DejaVuSans-45"/>
     <use x="745.6875" xlink:href="#DejaVuSans-49"/>
     <use x="809.310547" xlink:href="#DejaVuSans-46"/>
     <use x="841.097656" xlink:href="#DejaVuSans-48"/>
     <use x="904.720703" xlink:href="#DejaVuSans-101"/>
     <use x="966.244141" xlink:href="#DejaVuSans-45"/>
     <use x="1002.328125" xlink:href="#DejaVuSans-52"/>
    </g>
    <!-- 5 instances -->
    <g transform="translate(60.41088 48.426593)scale(0.102 -0.102)">
     <use xlink:href="#DejaVuSans-53"/>
     <use x="63.623047" xlink:href="#DejaVuSans-32"/>
     <use x="95.410156" xlink:href="#DejaVuSans-105"/>
     <use x="123.193359" xlink:href="#DejaVuSans-110"/>
     <use x="186.572266" xlink:href="#DejaVuSans-115"/>
     <use x="238.671875" xlink:href="#DejaVuSans-116"/>
     <use x="277.880859" xlink:href="#DejaVuSans-97"/>
     <use x="339.160156" xlink:href="#DejaVuSans-110"/>
     <use x="402.539062" xlink:href="#DejaVuSans-99"/>
     <use x="457.519531" xlink:href="#DejaVuSans-101"/>
     <use x="519.042969" xlink:href="#DejaVuSans-115"/>
    </g>
   </g>
   <g id="text_18">
    <!-- v2.3.3.7 -->
    <defs>
     <path d="M 8.203125 72.90625 
L 55.078125 72.90625 
L 55.078125 68.703125 
L 28.609375 0 
L 18.3125 0 
L 43.21875 64.59375 
L 8.203125 64.59375 
z
" id="DejaVuSans-55"/>
    </defs>
    <g style="fill:#808080;" transform="translate(177.692437 293.909432)scale(0.1 -0.1)">
     <use xlink:href="#DejaVuSans-118"/>
     <use x="59.179688" xlink:href="#DejaVuSans-50"/>
     <use x="122.802734" xlink:href="#DejaVuSans-46"/>
     <use x="154.589844" xlink:href="#DejaVuSans-51"/>
     <use x="218.212891" xlink:href="#DejaVuSans-46"/>
     <use x="250" xlink:href="#DejaVuSans-51"/>
     <use x="313.623047" xlink:href="#DejaVuSans-46"/>
     <use x="345.410156" xlink:href="#DejaVuSans-55"/>
    </g>
   </g>
  </g>
 </g>
 <defs>
  <clipPath id="pab827d2207">
   <rect height="295.488" width="281.088" x="57.6" y="3.456"/>
  </clipPath>
 </defs>
</svg>
