<?xml version="1.0" encoding="utf-8" standalone="no"?>
<!DOCTYPE svg PUBLIC "-//W3C//DTD SVG 1.1//EN"
  "http://www.w3.org/Graphics/SVG/1.1/DTD/svg11.dtd">
<!-- Created with matplotlib (https://matplotlib.org/) -->
<svg height="345.6pt" version="1.1" viewBox="0 0 460.8 345.6" width="460.8pt" xmlns="http://www.w3.org/2000/svg" xmlns:xlink="http://www.w3.org/1999/xlink">
 <defs>
  <style type="text/css">
*{stroke-linecap:butt;stroke-linejoin:round;}
  </style>
 </defs>
 <g id="figure_1">
  <g id="patch_1">
   <path d="M 0 345.6 
L 460.8 345.6 
L 460.8 0 
L 0 0 
z
" style="fill:#ffffff;"/>
  </g>
  <g id="axes_1">
   <g id="patch_2">
    <path d="M 57.6 298.944 
L 338.688 298.944 
L 338.688 27.648 
L 57.6 27.648 
z
" style="fill:#ffffff;"/>
   </g>
   <g id="matplotlib.axis_1">
    <g id="xtick_1">
     <g id="line2d_1">
      <path clip-path="url(#p6cc74f882d)" d="M 57.6 298.944 
L 57.6 27.648 
" style="fill:none;stroke:#b0b0b0;stroke-linecap:square;stroke-width:0.8;"/>
     </g>
     <g id="line2d_2">
      <defs>
       <path d="M 0 0 
L 0 3.5 
" id="md47babf666" style="stroke:#000000;stroke-width:0.8;"/>
      </defs>
      <g>
       <use style="stroke:#000000;stroke-width:0.8;" x="57.6" xlink:href="#md47babf666" y="298.944"/>
      </g>
     </g>
     <g id="text_1">
      <!-- 0 -->
      <defs>
       <path d="M 31.78125 66.40625 
Q 24.171875 66.40625 20.328125 58.90625 
Q 16.5 51.421875 16.5 36.375 
Q 16.5 21.390625 20.328125 13.890625 
Q 24.171875 6.390625 31.78125 6.390625 
Q 39.453125 6.390625 43.28125 13.890625 
Q 47.125 21.390625 47.125 36.375 
Q 47.125 51.421875 43.28125 58.90625 
Q 39.453125 66.40625 31.78125 66.40625 
z
M 31.78125 74.21875 
Q 44.046875 74.21875 50.515625 64.515625 
Q 56.984375 54.828125 56.984375 36.375 
Q 56.984375 17.96875 50.515625 8.265625 
Q 44.046875 -1.421875 31.78125 -1.421875 
Q 19.53125 -1.421875 13.0625 8.265625 
Q 6.59375 17.96875 6.59375 36.375 
Q 6.59375 54.828125 13.0625 64.515625 
Q 19.53125 74.21875 31.78125 74.21875 
z
" id="DejaVuSans-48"/>
      </defs>
      <g transform="translate(51.2375 321.140875)scale(0.2 -0.2)">
       <use xlink:href="#DejaVuSans-48"/>
      </g>
     </g>
    </g>
    <g id="xtick_2">
     <g id="line2d_3">
      <path clip-path="url(#p6cc74f882d)" d="M 137.910857 298.944 
L 137.910857 27.648 
" style="fill:none;stroke:#b0b0b0;stroke-linecap:square;stroke-width:0.8;"/>
     </g>
     <g id="line2d_4">
      <g>
       <use style="stroke:#000000;stroke-width:0.8;" x="137.910857" xlink:href="#md47babf666" y="298.944"/>
      </g>
     </g>
     <g id="text_2">
      <!-- 2 -->
      <defs>
       <path d="M 19.1875 8.296875 
L 53.609375 8.296875 
L 53.609375 0 
L 7.328125 0 
L 7.328125 8.296875 
Q 12.9375 14.109375 22.625 23.890625 
Q 32.328125 33.6875 34.8125 36.53125 
Q 39.546875 41.84375 41.421875 45.53125 
Q 43.3125 49.21875 43.3125 52.78125 
Q 43.3125 58.59375 39.234375 62.25 
Q 35.15625 65.921875 28.609375 65.921875 
Q 23.96875 65.921875 18.8125 64.3125 
Q 13.671875 62.703125 7.8125 59.421875 
L 7.8125 69.390625 
Q 13.765625 71.78125 18.9375 73 
Q 24.125 74.21875 28.421875 74.21875 
Q 39.75 74.21875 46.484375 68.546875 
Q 53.21875 62.890625 53.21875 53.421875 
Q 53.21875 48.921875 51.53125 44.890625 
Q 49.859375 40.875 45.40625 35.40625 
Q 44.1875 33.984375 37.640625 27.21875 
Q 31.109375 20.453125 19.1875 8.296875 
z
" id="DejaVuSans-50"/>
      </defs>
      <g transform="translate(131.548357 321.140875)scale(0.2 -0.2)">
       <use xlink:href="#DejaVuSans-50"/>
      </g>
     </g>
    </g>
    <g id="xtick_3">
     <g id="line2d_5">
      <path clip-path="url(#p6cc74f882d)" d="M 218.221714 298.944 
L 218.221714 27.648 
" style="fill:none;stroke:#b0b0b0;stroke-linecap:square;stroke-width:0.8;"/>
     </g>
     <g id="line2d_6">
      <g>
       <use style="stroke:#000000;stroke-width:0.8;" x="218.221714" xlink:href="#md47babf666" y="298.944"/>
      </g>
     </g>
     <g id="text_3">
      <!-- 4 -->
      <defs>
       <path d="M 37.796875 64.3125 
L 12.890625 25.390625 
L 37.796875 25.390625 
z
M 35.203125 72.90625 
L 47.609375 72.90625 
L 47.609375 25.390625 
L 58.015625 25.390625 
L 58.015625 17.1875 
L 47.609375 17.1875 
L 47.609375 0 
L 37.796875 0 
L 37.796875 17.1875 
L 4.890625 17.1875 
L 4.890625 26.703125 
z
" id="DejaVuSans-52"/>
      </defs>
      <g transform="translate(211.859214 321.140875)scale(0.2 -0.2)">
       <use xlink:href="#DejaVuSans-52"/>
      </g>
     </g>
    </g>
    <g id="xtick_4">
     <g id="line2d_7">
      <path clip-path="url(#p6cc74f882d)" d="M 298.532571 298.944 
L 298.532571 27.648 
" style="fill:none;stroke:#b0b0b0;stroke-linecap:square;stroke-width:0.8;"/>
     </g>
     <g id="line2d_8">
      <g>
       <use style="stroke:#000000;stroke-width:0.8;" x="298.532571" xlink:href="#md47babf666" y="298.944"/>
      </g>
     </g>
     <g id="text_4">
      <!-- 6 -->
      <defs>
       <path d="M 33.015625 40.375 
Q 26.375 40.375 22.484375 35.828125 
Q 18.609375 31.296875 18.609375 23.390625 
Q 18.609375 15.53125 22.484375 10.953125 
Q 26.375 6.390625 33.015625 6.390625 
Q 39.65625 6.390625 43.53125 10.953125 
Q 47.40625 15.53125 47.40625 23.390625 
Q 47.40625 31.296875 43.53125 35.828125 
Q 39.65625 40.375 33.015625 40.375 
z
M 52.59375 71.296875 
L 52.59375 62.3125 
Q 48.875 64.0625 45.09375 64.984375 
Q 41.3125 65.921875 37.59375 65.921875 
Q 27.828125 65.921875 22.671875 59.328125 
Q 17.53125 52.734375 16.796875 39.40625 
Q 19.671875 43.65625 24.015625 45.921875 
Q 28.375 48.1875 33.59375 48.1875 
Q 44.578125 48.1875 50.953125 41.515625 
Q 57.328125 34.859375 57.328125 23.390625 
Q 57.328125 12.15625 50.6875 5.359375 
Q 44.046875 -1.421875 33.015625 -1.421875 
Q 20.359375 -1.421875 13.671875 8.265625 
Q 6.984375 17.96875 6.984375 36.375 
Q 6.984375 53.65625 15.1875 63.9375 
Q 23.390625 74.21875 37.203125 74.21875 
Q 40.921875 74.21875 44.703125 73.484375 
Q 48.484375 72.75 52.59375 71.296875 
z
" id="DejaVuSans-54"/>
      </defs>
      <g transform="translate(292.170071 321.140875)scale(0.2 -0.2)">
       <use xlink:href="#DejaVuSans-54"/>
      </g>
     </g>
    </g>
    <g id="xtick_5">
     <g id="line2d_9">
      <path clip-path="url(#p6cc74f882d)" d="M 97.755429 298.944 
L 97.755429 27.648 
" style="fill:none;stroke:#b0b0b0;stroke-linecap:square;stroke-width:0.8;"/>
     </g>
     <g id="line2d_10">
      <defs>
       <path d="M 0 0 
L 0 2 
" id="m024dfadebd" style="stroke:#000000;stroke-width:0.6;"/>
      </defs>
      <g>
       <use style="stroke:#000000;stroke-width:0.6;" x="97.755429" xlink:href="#m024dfadebd" y="298.944"/>
      </g>
     </g>
    </g>
    <g id="xtick_6">
     <g id="line2d_11">
      <path clip-path="url(#p6cc74f882d)" d="M 178.066286 298.944 
L 178.066286 27.648 
" style="fill:none;stroke:#b0b0b0;stroke-linecap:square;stroke-width:0.8;"/>
     </g>
     <g id="line2d_12">
      <g>
       <use style="stroke:#000000;stroke-width:0.6;" x="178.066286" xlink:href="#m024dfadebd" y="298.944"/>
      </g>
     </g>
    </g>
    <g id="xtick_7">
     <g id="line2d_13">
      <path clip-path="url(#p6cc74f882d)" d="M 258.377143 298.944 
L 258.377143 27.648 
" style="fill:none;stroke:#b0b0b0;stroke-linecap:square;stroke-width:0.8;"/>
     </g>
     <g id="line2d_14">
      <g>
       <use style="stroke:#000000;stroke-width:0.6;" x="258.377143" xlink:href="#m024dfadebd" y="298.944"/>
      </g>
     </g>
    </g>
    <g id="xtick_8">
     <g id="line2d_15">
      <path clip-path="url(#p6cc74f882d)" d="M 338.688 298.944 
L 338.688 27.648 
" style="fill:none;stroke:#b0b0b0;stroke-linecap:square;stroke-width:0.8;"/>
     </g>
     <g id="line2d_16">
      <g>
       <use style="stroke:#000000;stroke-width:0.6;" x="338.688" xlink:href="#m024dfadebd" y="298.944"/>
      </g>
     </g>
    </g>
    <g id="text_5">
     <!-- log10(# f-evals / dimension) -->
     <defs>
      <path d="M 9.421875 75.984375 
L 18.40625 75.984375 
L 18.40625 0 
L 9.421875 0 
z
" id="DejaVuSans-108"/>
      <path d="M 30.609375 48.390625 
Q 23.390625 48.390625 19.1875 42.75 
Q 14.984375 37.109375 14.984375 27.296875 
Q 14.984375 17.484375 19.15625 11.84375 
Q 23.34375 6.203125 30.609375 6.203125 
Q 37.796875 6.203125 41.984375 11.859375 
Q 46.1875 17.53125 46.1875 27.296875 
Q 46.1875 37.015625 41.984375 42.703125 
Q 37.796875 48.390625 30.609375 48.390625 
z
M 30.609375 56 
Q 42.328125 56 49.015625 48.375 
Q 55.71875 40.765625 55.71875 27.296875 
Q 55.71875 13.875 49.015625 6.21875 
Q 42.328125 -1.421875 30.609375 -1.421875 
Q 18.84375 -1.421875 12.171875 6.21875 
Q 5.515625 13.875 5.515625 27.296875 
Q 5.515625 40.765625 12.171875 48.375 
Q 18.84375 56 30.609375 56 
z
" id="DejaVuSans-111"/>
      <path d="M 45.40625 27.984375 
Q 45.40625 37.75 41.375 43.109375 
Q 37.359375 48.484375 30.078125 48.484375 
Q 22.859375 48.484375 18.828125 43.109375 
Q 14.796875 37.75 14.796875 27.984375 
Q 14.796875 18.265625 18.828125 12.890625 
Q 22.859375 7.515625 30.078125 7.515625 
Q 37.359375 7.515625 41.375 12.890625 
Q 45.40625 18.265625 45.40625 27.984375 
z
M 54.390625 6.78125 
Q 54.390625 -7.171875 48.1875 -13.984375 
Q 42 -20.796875 29.203125 -20.796875 
Q 24.46875 -20.796875 20.265625 -20.09375 
Q 16.0625 -19.390625 12.109375 -17.921875 
L 12.109375 -9.1875 
Q 16.0625 -11.328125 19.921875 -12.34375 
Q 23.78125 -13.375 27.78125 -13.375 
Q 36.625 -13.375 41.015625 -8.765625 
Q 45.40625 -4.15625 45.40625 5.171875 
L 45.40625 9.625 
Q 42.625 4.78125 38.28125 2.390625 
Q 33.9375 0 27.875 0 
Q 17.828125 0 11.671875 7.65625 
Q 5.515625 15.328125 5.515625 27.984375 
Q 5.515625 40.671875 11.671875 48.328125 
Q 17.828125 56 27.875 56 
Q 33.9375 56 38.28125 53.609375 
Q 42.625 51.21875 45.40625 46.390625 
L 45.40625 54.6875 
L 54.390625 54.6875 
z
" id="DejaVuSans-103"/>
      <path d="M 12.40625 8.296875 
L 28.515625 8.296875 
L 28.515625 63.921875 
L 10.984375 60.40625 
L 10.984375 69.390625 
L 28.421875 72.90625 
L 38.28125 72.90625 
L 38.28125 8.296875 
L 54.390625 8.296875 
L 54.390625 0 
L 12.40625 0 
z
" id="DejaVuSans-49"/>
      <path d="M 31 75.875 
Q 24.46875 64.65625 21.28125 53.65625 
Q 18.109375 42.671875 18.109375 31.390625 
Q 18.109375 20.125 21.3125 9.0625 
Q 24.515625 -2 31 -13.1875 
L 23.1875 -13.1875 
Q 15.875 -1.703125 12.234375 9.375 
Q 8.59375 20.453125 8.59375 31.390625 
Q 8.59375 42.28125 12.203125 53.3125 
Q 15.828125 64.359375 23.1875 75.875 
z
" id="DejaVuSans-40"/>
      <path d="M 51.125 44 
L 36.921875 44 
L 32.8125 27.6875 
L 47.125 27.6875 
z
M 43.796875 71.78125 
L 38.71875 51.515625 
L 52.984375 51.515625 
L 58.109375 71.78125 
L 65.921875 71.78125 
L 60.890625 51.515625 
L 76.125 51.515625 
L 76.125 44 
L 58.984375 44 
L 54.984375 27.6875 
L 70.515625 27.6875 
L 70.515625 20.21875 
L 53.078125 20.21875 
L 48 0 
L 40.1875 0 
L 45.21875 20.21875 
L 30.90625 20.21875 
L 25.875 0 
L 18.015625 0 
L 23.09375 20.21875 
L 7.71875 20.21875 
L 7.71875 27.6875 
L 24.90625 27.6875 
L 29 44 
L 13.28125 44 
L 13.28125 51.515625 
L 30.90625 51.515625 
L 35.890625 71.78125 
z
" id="DejaVuSans-35"/>
      <path id="DejaVuSans-32"/>
      <path d="M 37.109375 75.984375 
L 37.109375 68.5 
L 28.515625 68.5 
Q 23.6875 68.5 21.796875 66.546875 
Q 19.921875 64.59375 19.921875 59.515625 
L 19.921875 54.6875 
L 34.71875 54.6875 
L 34.71875 47.703125 
L 19.921875 47.703125 
L 19.921875 0 
L 10.890625 0 
L 10.890625 47.703125 
L 2.296875 47.703125 
L 2.296875 54.6875 
L 10.890625 54.6875 
L 10.890625 58.5 
Q 10.890625 67.625 15.140625 71.796875 
Q 19.390625 75.984375 28.609375 75.984375 
z
" id="DejaVuSans-102"/>
      <path d="M 4.890625 31.390625 
L 31.203125 31.390625 
L 31.203125 23.390625 
L 4.890625 23.390625 
z
" id="DejaVuSans-45"/>
      <path d="M 56.203125 29.59375 
L 56.203125 25.203125 
L 14.890625 25.203125 
Q 15.484375 15.921875 20.484375 11.0625 
Q 25.484375 6.203125 34.421875 6.203125 
Q 39.59375 6.203125 44.453125 7.46875 
Q 49.3125 8.734375 54.109375 11.28125 
L 54.109375 2.78125 
Q 49.265625 0.734375 44.1875 -0.34375 
Q 39.109375 -1.421875 33.890625 -1.421875 
Q 20.796875 -1.421875 13.15625 6.1875 
Q 5.515625 13.8125 5.515625 26.8125 
Q 5.515625 40.234375 12.765625 48.109375 
Q 20.015625 56 32.328125 56 
Q 43.359375 56 49.78125 48.890625 
Q 56.203125 41.796875 56.203125 29.59375 
z
M 47.21875 32.234375 
Q 47.125 39.59375 43.09375 43.984375 
Q 39.0625 48.390625 32.421875 48.390625 
Q 24.90625 48.390625 20.390625 44.140625 
Q 15.875 39.890625 15.1875 32.171875 
z
" id="DejaVuSans-101"/>
      <path d="M 2.984375 54.6875 
L 12.5 54.6875 
L 29.59375 8.796875 
L 46.6875 54.6875 
L 56.203125 54.6875 
L 35.6875 0 
L 23.484375 0 
z
" id="DejaVuSans-118"/>
      <path d="M 34.28125 27.484375 
Q 23.390625 27.484375 19.1875 25 
Q 14.984375 22.515625 14.984375 16.5 
Q 14.984375 11.71875 18.140625 8.90625 
Q 21.296875 6.109375 26.703125 6.109375 
Q 34.1875 6.109375 38.703125 11.40625 
Q 43.21875 16.703125 43.21875 25.484375 
L 43.21875 27.484375 
z
M 52.203125 31.203125 
L 52.203125 0 
L 43.21875 0 
L 43.21875 8.296875 
Q 40.140625 3.328125 35.546875 0.953125 
Q 30.953125 -1.421875 24.3125 -1.421875 
Q 15.921875 -1.421875 10.953125 3.296875 
Q 6 8.015625 6 15.921875 
Q 6 25.140625 12.171875 29.828125 
Q 18.359375 34.515625 30.609375 34.515625 
L 43.21875 34.515625 
L 43.21875 35.40625 
Q 43.21875 41.609375 39.140625 45 
Q 35.0625 48.390625 27.6875 48.390625 
Q 23 48.390625 18.546875 47.265625 
Q 14.109375 46.140625 10.015625 43.890625 
L 10.015625 52.203125 
Q 14.9375 54.109375 19.578125 55.046875 
Q 24.21875 56 28.609375 56 
Q 40.484375 56 46.34375 49.84375 
Q 52.203125 43.703125 52.203125 31.203125 
z
" id="DejaVuSans-97"/>
      <path d="M 44.28125 53.078125 
L 44.28125 44.578125 
Q 40.484375 46.53125 36.375 47.5 
Q 32.28125 48.484375 27.875 48.484375 
Q 21.1875 48.484375 17.84375 46.4375 
Q 14.5 44.390625 14.5 40.28125 
Q 14.5 37.15625 16.890625 35.375 
Q 19.28125 33.59375 26.515625 31.984375 
L 29.59375 31.296875 
Q 39.15625 29.25 43.1875 25.515625 
Q 47.21875 21.78125 47.21875 15.09375 
Q 47.21875 7.46875 41.1875 3.015625 
Q 35.15625 -1.421875 24.609375 -1.421875 
Q 20.21875 -1.421875 15.453125 -0.5625 
Q 10.6875 0.296875 5.421875 2 
L 5.421875 11.28125 
Q 10.40625 8.6875 15.234375 7.390625 
Q 20.0625 6.109375 24.8125 6.109375 
Q 31.15625 6.109375 34.5625 8.28125 
Q 37.984375 10.453125 37.984375 14.40625 
Q 37.984375 18.0625 35.515625 20.015625 
Q 33.0625 21.96875 24.703125 23.78125 
L 21.578125 24.515625 
Q 13.234375 26.265625 9.515625 29.90625 
Q 5.8125 33.546875 5.8125 39.890625 
Q 5.8125 47.609375 11.28125 51.796875 
Q 16.75 56 26.8125 56 
Q 31.78125 56 36.171875 55.265625 
Q 40.578125 54.546875 44.28125 53.078125 
z
" id="DejaVuSans-115"/>
      <path d="M 25.390625 72.90625 
L 33.6875 72.90625 
L 8.296875 -9.28125 
L 0 -9.28125 
z
" id="DejaVuSans-47"/>
      <path d="M 45.40625 46.390625 
L 45.40625 75.984375 
L 54.390625 75.984375 
L 54.390625 0 
L 45.40625 0 
L 45.40625 8.203125 
Q 42.578125 3.328125 38.25 0.953125 
Q 33.9375 -1.421875 27.875 -1.421875 
Q 17.96875 -1.421875 11.734375 6.484375 
Q 5.515625 14.40625 5.515625 27.296875 
Q 5.515625 40.1875 11.734375 48.09375 
Q 17.96875 56 27.875 56 
Q 33.9375 56 38.25 53.625 
Q 42.578125 51.265625 45.40625 46.390625 
z
M 14.796875 27.296875 
Q 14.796875 17.390625 18.875 11.75 
Q 22.953125 6.109375 30.078125 6.109375 
Q 37.203125 6.109375 41.296875 11.75 
Q 45.40625 17.390625 45.40625 27.296875 
Q 45.40625 37.203125 41.296875 42.84375 
Q 37.203125 48.484375 30.078125 48.484375 
Q 22.953125 48.484375 18.875 42.84375 
Q 14.796875 37.203125 14.796875 27.296875 
z
" id="DejaVuSans-100"/>
      <path d="M 9.421875 54.6875 
L 18.40625 54.6875 
L 18.40625 0 
L 9.421875 0 
z
M 9.421875 75.984375 
L 18.40625 75.984375 
L 18.40625 64.59375 
L 9.421875 64.59375 
z
" id="DejaVuSans-105"/>
      <path d="M 52 44.1875 
Q 55.375 50.25 60.0625 53.125 
Q 64.75 56 71.09375 56 
Q 79.640625 56 84.28125 50.015625 
Q 88.921875 44.046875 88.921875 33.015625 
L 88.921875 0 
L 79.890625 0 
L 79.890625 32.71875 
Q 79.890625 40.578125 77.09375 44.375 
Q 74.3125 48.1875 68.609375 48.1875 
Q 61.625 48.1875 57.5625 43.546875 
Q 53.515625 38.921875 53.515625 30.90625 
L 53.515625 0 
L 44.484375 0 
L 44.484375 32.71875 
Q 44.484375 40.625 41.703125 44.40625 
Q 38.921875 48.1875 33.109375 48.1875 
Q 26.21875 48.1875 22.15625 43.53125 
Q 18.109375 38.875 18.109375 30.90625 
L 18.109375 0 
L 9.078125 0 
L 9.078125 54.6875 
L 18.109375 54.6875 
L 18.109375 46.1875 
Q 21.1875 51.21875 25.484375 53.609375 
Q 29.78125 56 35.6875 56 
Q 41.65625 56 45.828125 52.96875 
Q 50 49.953125 52 44.1875 
z
" id="DejaVuSans-109"/>
      <path d="M 54.890625 33.015625 
L 54.890625 0 
L 45.90625 0 
L 45.90625 32.71875 
Q 45.90625 40.484375 42.875 44.328125 
Q 39.84375 48.1875 33.796875 48.1875 
Q 26.515625 48.1875 22.3125 43.546875 
Q 18.109375 38.921875 18.109375 30.90625 
L 18.109375 0 
L 9.078125 0 
L 9.078125 54.6875 
L 18.109375 54.6875 
L 18.109375 46.1875 
Q 21.34375 51.125 25.703125 53.5625 
Q 30.078125 56 35.796875 56 
Q 45.21875 56 50.046875 50.171875 
Q 54.890625 44.34375 54.890625 33.015625 
z
" id="DejaVuSans-110"/>
      <path d="M 8.015625 75.875 
L 15.828125 75.875 
Q 23.140625 64.359375 26.78125 53.3125 
Q 30.421875 42.28125 30.421875 31.390625 
Q 30.421875 20.453125 26.78125 9.375 
Q 23.140625 -1.703125 15.828125 -13.1875 
L 8.015625 -13.1875 
Q 14.5 -2 17.703125 9.0625 
Q 20.90625 20.125 20.90625 31.390625 
Q 20.90625 42.671875 17.703125 53.65625 
Q 14.5 64.65625 8.015625 75.875 
z
" id="DejaVuSans-41"/>
     </defs>
     <g transform="translate(77.303219 342.217594)scale(0.17 -0.17)">
      <use xlink:href="#DejaVuSans-108"/>
      <use x="27.783203" xlink:href="#DejaVuSans-111"/>
      <use x="88.964844" xlink:href="#DejaVuSans-103"/>
      <use x="152.441406" xlink:href="#DejaVuSans-49"/>
      <use x="216.064453" xlink:href="#DejaVuSans-48"/>
      <use x="279.6875" xlink:href="#DejaVuSans-40"/>
      <use x="318.701172" xlink:href="#DejaVuSans-35"/>
      <use x="402.490234" xlink:href="#DejaVuSans-32"/>
      <use x="434.277344" xlink:href="#DejaVuSans-102"/>
      <use x="469.404297" xlink:href="#DejaVuSans-45"/>
      <use x="505.488281" xlink:href="#DejaVuSans-101"/>
      <use x="567.011719" xlink:href="#DejaVuSans-118"/>
      <use x="626.191406" xlink:href="#DejaVuSans-97"/>
      <use x="687.470703" xlink:href="#DejaVuSans-108"/>
      <use x="715.253906" xlink:href="#DejaVuSans-115"/>
      <use x="767.353516" xlink:href="#DejaVuSans-32"/>
      <use x="799.140625" xlink:href="#DejaVuSans-47"/>
      <use x="832.832031" xlink:href="#DejaVuSans-32"/>
      <use x="864.619141" xlink:href="#DejaVuSans-100"/>
      <use x="928.095703" xlink:href="#DejaVuSans-105"/>
      <use x="955.878906" xlink:href="#DejaVuSans-109"/>
      <use x="1053.291016" xlink:href="#DejaVuSans-101"/>
      <use x="1114.814453" xlink:href="#DejaVuSans-110"/>
      <use x="1178.193359" xlink:href="#DejaVuSans-115"/>
      <use x="1230.292969" xlink:href="#DejaVuSans-105"/>
      <use x="1258.076172" xlink:href="#DejaVuSans-111"/>
      <use x="1319.257812" xlink:href="#DejaVuSans-110"/>
      <use x="1382.636719" xlink:href="#DejaVuSans-41"/>
     </g>
    </g>
   </g>
   <g id="matplotlib.axis_2">
    <g id="ytick_1">
     <g id="line2d_17">
      <path clip-path="url(#p6cc74f882d)" d="M 57.6 298.944 
L 338.688 298.944 
" style="fill:none;stroke:#b0b0b0;stroke-linecap:square;stroke-width:0.8;"/>
     </g>
     <g id="line2d_18">
      <defs>
       <path d="M 0 0 
L -3.5 0 
" id="m0d78ff8ca1" style="stroke:#000000;stroke-width:0.8;"/>
      </defs>
      <g>
       <use style="stroke:#000000;stroke-width:0.8;" x="57.6" xlink:href="#m0d78ff8ca1" y="298.944"/>
      </g>
     </g>
     <g id="text_6">
      <!-- 0.0 -->
      <defs>
       <path d="M 10.6875 12.40625 
L 21 12.40625 
L 21 0 
L 10.6875 0 
z
" id="DejaVuSans-46"/>
      </defs>
      <g transform="translate(25.155 305.02275)scale(0.16 -0.16)">
       <use xlink:href="#DejaVuSans-48"/>
       <use x="63.623047" xlink:href="#DejaVuSans-46"/>
       <use x="95.410156" xlink:href="#DejaVuSans-48"/>
      </g>
     </g>
    </g>
    <g id="ytick_2">
     <g id="line2d_19">
      <path clip-path="url(#p6cc74f882d)" d="M 57.6 245.22202 
L 338.688 245.22202 
" style="fill:none;stroke:#b0b0b0;stroke-linecap:square;stroke-width:0.8;"/>
     </g>
     <g id="line2d_20">
      <g>
       <use style="stroke:#000000;stroke-width:0.8;" x="57.6" xlink:href="#m0d78ff8ca1" y="245.22202"/>
      </g>
     </g>
     <g id="text_7">
      <!-- 0.2 -->
      <g transform="translate(25.155 251.30077)scale(0.16 -0.16)">
       <use xlink:href="#DejaVuSans-48"/>
       <use x="63.623047" xlink:href="#DejaVuSans-46"/>
       <use x="95.410156" xlink:href="#DejaVuSans-50"/>
      </g>
     </g>
    </g>
    <g id="ytick_3">
     <g id="line2d_21">
      <path clip-path="url(#p6cc74f882d)" d="M 57.6 191.50004 
L 338.688 191.50004 
" style="fill:none;stroke:#b0b0b0;stroke-linecap:square;stroke-width:0.8;"/>
     </g>
     <g id="line2d_22">
      <g>
       <use style="stroke:#000000;stroke-width:0.8;" x="57.6" xlink:href="#m0d78ff8ca1" y="191.50004"/>
      </g>
     </g>
     <g id="text_8">
      <!-- 0.4 -->
      <g transform="translate(25.155 197.57879)scale(0.16 -0.16)">
       <use xlink:href="#DejaVuSans-48"/>
       <use x="63.623047" xlink:href="#DejaVuSans-46"/>
       <use x="95.410156" xlink:href="#DejaVuSans-52"/>
      </g>
     </g>
    </g>
    <g id="ytick_4">
     <g id="line2d_23">
      <path clip-path="url(#p6cc74f882d)" d="M 57.6 137.778059 
L 338.688 137.778059 
" style="fill:none;stroke:#b0b0b0;stroke-linecap:square;stroke-width:0.8;"/>
     </g>
     <g id="line2d_24">
      <g>
       <use style="stroke:#000000;stroke-width:0.8;" x="57.6" xlink:href="#m0d78ff8ca1" y="137.778059"/>
      </g>
     </g>
     <g id="text_9">
      <!-- 0.6 -->
      <g transform="translate(25.155 143.856809)scale(0.16 -0.16)">
       <use xlink:href="#DejaVuSans-48"/>
       <use x="63.623047" xlink:href="#DejaVuSans-46"/>
       <use x="95.410156" xlink:href="#DejaVuSans-54"/>
      </g>
     </g>
    </g>
    <g id="ytick_5">
     <g id="line2d_25">
      <path clip-path="url(#p6cc74f882d)" d="M 57.6 84.056079 
L 338.688 84.056079 
" style="fill:none;stroke:#b0b0b0;stroke-linecap:square;stroke-width:0.8;"/>
     </g>
     <g id="line2d_26">
      <g>
       <use style="stroke:#000000;stroke-width:0.8;" x="57.6" xlink:href="#m0d78ff8ca1" y="84.056079"/>
      </g>
     </g>
     <g id="text_10">
      <!-- 0.8 -->
      <defs>
       <path d="M 31.78125 34.625 
Q 24.75 34.625 20.71875 30.859375 
Q 16.703125 27.09375 16.703125 20.515625 
Q 16.703125 13.921875 20.71875 10.15625 
Q 24.75 6.390625 31.78125 6.390625 
Q 38.8125 6.390625 42.859375 10.171875 
Q 46.921875 13.96875 46.921875 20.515625 
Q 46.921875 27.09375 42.890625 30.859375 
Q 38.875 34.625 31.78125 34.625 
z
M 21.921875 38.8125 
Q 15.578125 40.375 12.03125 44.71875 
Q 8.5 49.078125 8.5 55.328125 
Q 8.5 64.0625 14.71875 69.140625 
Q 20.953125 74.21875 31.78125 74.21875 
Q 42.671875 74.21875 48.875 69.140625 
Q 55.078125 64.0625 55.078125 55.328125 
Q 55.078125 49.078125 51.53125 44.71875 
Q 48 40.375 41.703125 38.8125 
Q 48.828125 37.15625 52.796875 32.3125 
Q 56.78125 27.484375 56.78125 20.515625 
Q 56.78125 9.90625 50.3125 4.234375 
Q 43.84375 -1.421875 31.78125 -1.421875 
Q 19.734375 -1.421875 13.25 4.234375 
Q 6.78125 9.90625 6.78125 20.515625 
Q 6.78125 27.484375 10.78125 32.3125 
Q 14.796875 37.15625 21.921875 38.8125 
z
M 18.3125 54.390625 
Q 18.3125 48.734375 21.84375 45.5625 
Q 25.390625 42.390625 31.78125 42.390625 
Q 38.140625 42.390625 41.71875 45.5625 
Q 45.3125 48.734375 45.3125 54.390625 
Q 45.3125 60.0625 41.71875 63.234375 
Q 38.140625 66.40625 31.78125 66.40625 
Q 25.390625 66.40625 21.84375 63.234375 
Q 18.3125 60.0625 18.3125 54.390625 
z
" id="DejaVuSans-56"/>
      </defs>
      <g transform="translate(25.155 90.134829)scale(0.16 -0.16)">
       <use xlink:href="#DejaVuSans-48"/>
       <use x="63.623047" xlink:href="#DejaVuSans-46"/>
       <use x="95.410156" xlink:href="#DejaVuSans-56"/>
      </g>
     </g>
    </g>
    <g id="ytick_6">
     <g id="line2d_27">
      <path clip-path="url(#p6cc74f882d)" d="M 57.6 30.334099 
L 338.688 30.334099 
" style="fill:none;stroke:#b0b0b0;stroke-linecap:square;stroke-width:0.8;"/>
     </g>
     <g id="line2d_28">
      <g>
       <use style="stroke:#000000;stroke-width:0.8;" x="57.6" xlink:href="#m0d78ff8ca1" y="30.334099"/>
      </g>
     </g>
     <g id="text_11">
      <!-- 1.0 -->
      <g transform="translate(25.155 36.412849)scale(0.16 -0.16)">
       <use xlink:href="#DejaVuSans-49"/>
       <use x="63.623047" xlink:href="#DejaVuSans-46"/>
       <use x="95.410156" xlink:href="#DejaVuSans-48"/>
      </g>
     </g>
    </g>
    <g id="text_12">
     <!-- Fraction of function,target pairs -->
     <defs>
      <path d="M 9.8125 72.90625 
L 51.703125 72.90625 
L 51.703125 64.59375 
L 19.671875 64.59375 
L 19.671875 43.109375 
L 48.578125 43.109375 
L 48.578125 34.8125 
L 19.671875 34.8125 
L 19.671875 0 
L 9.8125 0 
z
" id="DejaVuSans-70"/>
      <path d="M 41.109375 46.296875 
Q 39.59375 47.171875 37.8125 47.578125 
Q 36.03125 48 33.890625 48 
Q 26.265625 48 22.1875 43.046875 
Q 18.109375 38.09375 18.109375 28.8125 
L 18.109375 0 
L 9.078125 0 
L 9.078125 54.6875 
L 18.109375 54.6875 
L 18.109375 46.1875 
Q 20.953125 51.171875 25.484375 53.578125 
Q 30.03125 56 36.53125 56 
Q 37.453125 56 38.578125 55.875 
Q 39.703125 55.765625 41.0625 55.515625 
z
" id="DejaVuSans-114"/>
      <path d="M 48.78125 52.59375 
L 48.78125 44.1875 
Q 44.96875 46.296875 41.140625 47.34375 
Q 37.3125 48.390625 33.40625 48.390625 
Q 24.65625 48.390625 19.8125 42.84375 
Q 14.984375 37.3125 14.984375 27.296875 
Q 14.984375 17.28125 19.8125 11.734375 
Q 24.65625 6.203125 33.40625 6.203125 
Q 37.3125 6.203125 41.140625 7.25 
Q 44.96875 8.296875 48.78125 10.40625 
L 48.78125 2.09375 
Q 45.015625 0.34375 40.984375 -0.53125 
Q 36.96875 -1.421875 32.421875 -1.421875 
Q 20.0625 -1.421875 12.78125 6.34375 
Q 5.515625 14.109375 5.515625 27.296875 
Q 5.515625 40.671875 12.859375 48.328125 
Q 20.21875 56 33.015625 56 
Q 37.15625 56 41.109375 55.140625 
Q 45.0625 54.296875 48.78125 52.59375 
z
" id="DejaVuSans-99"/>
      <path d="M 18.3125 70.21875 
L 18.3125 54.6875 
L 36.8125 54.6875 
L 36.8125 47.703125 
L 18.3125 47.703125 
L 18.3125 18.015625 
Q 18.3125 11.328125 20.140625 9.421875 
Q 21.96875 7.515625 27.59375 7.515625 
L 36.8125 7.515625 
L 36.8125 0 
L 27.59375 0 
Q 17.1875 0 13.234375 3.875 
Q 9.28125 7.765625 9.28125 18.015625 
L 9.28125 47.703125 
L 2.6875 47.703125 
L 2.6875 54.6875 
L 9.28125 54.6875 
L 9.28125 70.21875 
z
" id="DejaVuSans-116"/>
      <path d="M 8.5 21.578125 
L 8.5 54.6875 
L 17.484375 54.6875 
L 17.484375 21.921875 
Q 17.484375 14.15625 20.5 10.265625 
Q 23.53125 6.390625 29.59375 6.390625 
Q 36.859375 6.390625 41.078125 11.03125 
Q 45.3125 15.671875 45.3125 23.6875 
L 45.3125 54.6875 
L 54.296875 54.6875 
L 54.296875 0 
L 45.3125 0 
L 45.3125 8.40625 
Q 42.046875 3.421875 37.71875 1 
Q 33.40625 -1.421875 27.6875 -1.421875 
Q 18.265625 -1.421875 13.375 4.4375 
Q 8.5 10.296875 8.5 21.578125 
z
M 31.109375 56 
z
" id="DejaVuSans-117"/>
      <path d="M 11.71875 12.40625 
L 22.015625 12.40625 
L 22.015625 4 
L 14.015625 -11.625 
L 7.71875 -11.625 
L 11.71875 4 
z
" id="DejaVuSans-44"/>
      <path d="M 18.109375 8.203125 
L 18.109375 -20.796875 
L 9.078125 -20.796875 
L 9.078125 54.6875 
L 18.109375 54.6875 
L 18.109375 46.390625 
Q 20.953125 51.265625 25.265625 53.625 
Q 29.59375 56 35.59375 56 
Q 45.5625 56 51.78125 48.09375 
Q 58.015625 40.1875 58.015625 27.296875 
Q 58.015625 14.40625 51.78125 6.484375 
Q 45.5625 -1.421875 35.59375 -1.421875 
Q 29.59375 -1.421875 25.265625 0.953125 
Q 20.953125 3.328125 18.109375 8.203125 
z
M 48.6875 27.296875 
Q 48.6875 37.203125 44.609375 42.84375 
Q 40.53125 48.484375 33.40625 48.484375 
Q 26.265625 48.484375 22.1875 42.84375 
Q 18.109375 37.203125 18.109375 27.296875 
Q 18.109375 17.390625 22.1875 11.75 
Q 26.265625 6.109375 33.40625 6.109375 
Q 40.53125 6.109375 44.609375 11.75 
Q 48.6875 17.390625 48.6875 27.296875 
z
" id="DejaVuSans-112"/>
     </defs>
     <g transform="translate(17.619531 298.435375)rotate(-90)scale(0.17 -0.17)">
      <use xlink:href="#DejaVuSans-70"/>
      <use x="57.410156" xlink:href="#DejaVuSans-114"/>
      <use x="98.523438" xlink:href="#DejaVuSans-97"/>
      <use x="159.802734" xlink:href="#DejaVuSans-99"/>
      <use x="214.783203" xlink:href="#DejaVuSans-116"/>
      <use x="253.992188" xlink:href="#DejaVuSans-105"/>
      <use x="281.775391" xlink:href="#DejaVuSans-111"/>
      <use x="342.957031" xlink:href="#DejaVuSans-110"/>
      <use x="406.335938" xlink:href="#DejaVuSans-32"/>
      <use x="438.123047" xlink:href="#DejaVuSans-111"/>
      <use x="499.304688" xlink:href="#DejaVuSans-102"/>
      <use x="534.509766" xlink:href="#DejaVuSans-32"/>
      <use x="566.296875" xlink:href="#DejaVuSans-102"/>
      <use x="601.501953" xlink:href="#DejaVuSans-117"/>
      <use x="664.880859" xlink:href="#DejaVuSans-110"/>
      <use x="728.259766" xlink:href="#DejaVuSans-99"/>
      <use x="783.240234" xlink:href="#DejaVuSans-116"/>
      <use x="822.449219" xlink:href="#DejaVuSans-105"/>
      <use x="850.232422" xlink:href="#DejaVuSans-111"/>
      <use x="911.414062" xlink:href="#DejaVuSans-110"/>
      <use x="974.792969" xlink:href="#DejaVuSans-44"/>
      <use x="1006.580078" xlink:href="#DejaVuSans-116"/>
      <use x="1045.789062" xlink:href="#DejaVuSans-97"/>
      <use x="1107.068359" xlink:href="#DejaVuSans-114"/>
      <use x="1148.166016" xlink:href="#DejaVuSans-103"/>
      <use x="1211.642578" xlink:href="#DejaVuSans-101"/>
      <use x="1273.166016" xlink:href="#DejaVuSans-116"/>
      <use x="1312.375" xlink:href="#DejaVuSans-32"/>
      <use x="1344.162109" xlink:href="#DejaVuSans-112"/>
      <use x="1407.638672" xlink:href="#DejaVuSans-97"/>
      <use x="1468.917969" xlink:href="#DejaVuSans-105"/>
      <use x="1496.701172" xlink:href="#DejaVuSans-114"/>
      <use x="1537.814453" xlink:href="#DejaVuSans-115"/>
     </g>
    </g>
   </g>
   <g id="line2d_29">
    <defs>
     <path d="M 0 1.5 
C 0.397805 1.5 0.77937 1.341951 1.06066 1.06066 
C 1.341951 0.77937 1.5 0.397805 1.5 0 
C 1.5 -0.397805 1.341951 -0.77937 1.06066 -1.06066 
C 0.77937 -1.341951 0.397805 -1.5 0 -1.5 
C -0.397805 -1.5 -0.77937 -1.341951 -1.06066 -1.06066 
C -1.341951 -0.77937 -1.5 -0.397805 -1.5 0 
C -1.5 0.397805 -1.341951 0.77937 -1.06066 1.06066 
C -0.77937 1.341951 -0.397805 1.5 0 1.5 
z
" id="m98696c7fc5" style="stroke:#00bfbf;"/>
    </defs>
    <g>
     <use style="fill:#00bfbf;stroke:#00bfbf;" x="215.566105" xlink:href="#m98696c7fc5" y="89.613525"/>
     <use style="fill:#00bfbf;stroke:#00bfbf;" x="215.566105" xlink:href="#m98696c7fc5" y="89.613525"/>
    </g>
   </g>
   <g id="line2d_30">
    <path d="M 45.512012 298.944 
L 45.512012 296.165277 
L 64.67102 296.165277 
L 64.67102 293.386554 
L 69.687988 293.386554 
L 69.687988 292.460313 
L 85.66744 292.460313 
L 85.66744 289.68159 
L 87.329581 289.68159 
L 87.329581 287.829108 
L 88.846997 287.829108 
L 88.846997 284.124143 
L 90.242884 284.124143 
L 90.242884 283.197902 
L 91.535274 283.197902 
L 91.535274 278.566697 
L 93.863965 278.566697 
L 93.863965 276.714215 
L 100.192776 276.714215 
L 100.192776 273.009251 
L 100.934985 273.009251 
L 100.934985 270.230528 
L 104.23523 270.230528 
L 104.23523 269.304287 
L 105.951954 269.304287 
L 105.951954 263.746841 
L 111.897469 263.746841 
L 111.897469 262.8206 
L 112.655818 262.8206 
L 112.655818 261.894358 
L 113.022974 261.894358 
L 113.022974 260.041876 
L 113.73488 260.041876 
L 113.73488 259.115635 
L 116.621333 259.115635 
L 116.621333 257.263153 
L 118.039942 257.263153 
L 118.039942 254.48443 
L 119.097192 254.48443 
L 119.097192 253.558189 
L 119.602714 253.558189 
L 119.602714 250.779466 
L 129.147151 250.779466 
L 129.147151 249.853225 
L 129.853291 249.853225 
L 129.853291 247.074502 
L 132.422528 247.074502 
L 132.422528 246.148261 
L 134.343353 246.148261 
L 134.343353 245.22202 
L 135.076644 245.22202 
L 135.076644 243.369538 
L 135.582166 243.369538 
L 135.582166 241.517056 
L 135.878591 241.517056 
L 135.878591 240.590815 
L 136.551264 240.590815 
L 136.551264 238.738333 
L 138.084384 238.738333 
L 138.084384 237.812091 
L 143.464461 237.812091 
L 143.464461 235.959609 
L 145.553708 235.959609 
L 145.553708 235.033368 
L 145.943118 235.033368 
L 145.998045 231.328404 
L 148.449693 231.328404 
L 148.449693 229.475922 
L 150.042389 229.475922 
L 150.042389 227.62344 
L 150.640855 227.62344 
L 150.640855 226.697199 
L 151.097081 226.697199 
L 151.097081 222.992235 
L 151.858043 222.992235 
L 151.858043 222.065994 
L 152.207228 222.065994 
L 152.207228 220.213512 
L 152.587184 220.213512 
L 152.587184 219.287271 
L 153.142033 219.287271 
L 153.142033 218.36103 
L 155.200129 218.36103 
L 155.200129 217.434789 
L 157.329512 217.434789 
L 157.329512 215.582307 
L 158.652556 215.582307 
L 158.652556 214.656066 
L 160.656397 214.656066 
L 160.680044 211.877342 
L 161.420284 211.877342 
L 161.420284 210.951101 
L 163.287113 210.951101 
L 163.287113 210.02486 
L 165.76776 210.02486 
L 165.76776 209.098619 
L 165.943384 209.098619 
L 165.943384 207.246137 
L 166.169082 207.246137 
L 166.169082 206.319896 
L 167.84533 206.319896 
L 167.84533 205.393655 
L 170.780315 205.393655 
L 170.780315 204.467414 
L 172.932666 204.467414 
L 172.932666 196.131245 
L 173.09576 196.131245 
L 173.09576 195.205004 
L 173.280304 195.205004 
L 173.280304 193.352522 
L 174.423728 193.352522 
L 174.423728 191.50004 
L 176.61217 191.50004 
L 176.631116 189.647558 
L 177.098184 189.647558 
L 177.098184 188.721316 
L 177.588952 188.721316 
L 177.588952 187.795075 
L 177.92621 187.795075 
L 177.95256 181.311388 
L 178.496907 181.311388 
L 178.547874 178.532665 
L 178.6156 178.532665 
L 178.649364 176.680183 
L 178.74188 176.680183 
L 178.74188 174.827701 
L 179.488982 174.827701 
L 179.513075 172.975219 
L 179.601132 172.975219 
L 179.601132 172.048978 
L 179.791727 172.048978 
L 179.815406 169.270255 
L 180.003686 169.270255 
L 180.042657 166.491532 
L 180.220807 166.491532 
L 180.220807 164.63905 
L 180.609464 164.63905 
L 180.609464 163.712808 
L 181.07791 163.712808 
L 181.07791 162.786567 
L 182.200205 162.786567 
L 182.200205 161.860326 
L 183.37723 161.860326 
L 183.37723 160.934085 
L 183.93412 160.934085 
L 183.93412 160.007844 
L 184.528037 160.007844 
L 184.528037 158.155362 
L 185.505431 158.155362 
L 185.505431 157.229121 
L 186.430941 157.229121 
L 186.430941 156.30288 
L 187.248104 156.30288 
L 187.248104 155.376639 
L 187.755686 155.376639 
L 187.755686 154.450398 
L 189.784149 154.450398 
L 189.868558 149.819193 
L 189.95697 149.819193 
L 189.99661 146.114229 
L 190.079999 146.114229 
L 190.180414 143.335506 
L 190.614645 143.335506 
L 190.69091 140.556783 
L 192.048706 140.556783 
L 192.048706 138.7043 
L 193.810471 138.7043 
L 193.810471 137.778059 
L 194.956292 137.778059 
L 194.956292 136.851818 
L 195.075062 136.851818 
L 195.075062 134.999336 
L 195.846837 134.999336 
L 195.846837 131.294372 
L 196.068758 131.294372 
L 196.08428 125.736926 
L 196.214125 125.736926 
L 196.214125 121.105721 
L 196.440572 121.105721 
L 196.464878 118.326998 
L 196.997097 118.326998 
L 196.997097 116.474516 
L 197.1408 116.474516 
L 197.1408 114.622033 
L 198.940202 114.622033 
L 198.940202 113.695792 
L 199.115815 113.695792 
L 199.115815 112.769551 
L 201.388999 112.769551 
L 201.388999 110.917069 
L 202.25098 110.917069 
L 202.322733 109.064587 
L 202.997365 109.064587 
L 203.041148 107.212105 
L 203.299513 107.212105 
L 203.399756 104.433382 
L 203.848827 104.433382 
L 203.848827 103.507141 
L 204.197211 103.507141 
L 204.197211 102.5809 
L 204.972841 102.5809 
L 204.972841 101.654659 
L 205.550323 101.654659 
L 205.561139 99.802177 
L 205.870155 99.802177 
L 205.870155 97.949695 
L 207.730744 97.949695 
L 207.730744 97.023454 
L 207.97724 97.023454 
L 207.97724 96.097213 
L 208.676904 96.097213 
L 208.676904 95.170972 
L 209.738232 95.170972 
L 209.738232 94.244731 
L 213.305601 94.244731 
L 213.305601 92.392249 
L 213.906604 92.392249 
L 213.906604 91.466008 
L 215.566105 91.466008 
L 215.566105 89.613525 
L 338.688 89.613525 
L 338.688 89.613525 
" style="fill:none;stroke:#00bfbf;stroke-linecap:square;stroke-width:1.5;"/>
   </g>
   <g id="line2d_31">
    <defs>
     <path d="M -6 0 
L 6 0 
M 0 6 
L 0 -6 
" id="m11808082f9" style="stroke:#00bfbf;stroke-width:1.5;"/>
    </defs>
    <g>
     <use style="fill-opacity:0;stroke:#00bfbf;stroke-width:1.5;" x="93.863965" xlink:href="#m11808082f9" y="276.714215"/>
     <use style="fill-opacity:0;stroke:#00bfbf;stroke-width:1.5;" x="153.142033" xlink:href="#m11808082f9" y="218.36103"/>
     <use style="fill-opacity:0;stroke:#00bfbf;stroke-width:1.5;" x="195.075062" xlink:href="#m11808082f9" y="134.999336"/>
     <use style="fill-opacity:0;stroke:#00bfbf;stroke-width:1.5;" x="215.566105" xlink:href="#m11808082f9" y="91.466008"/>
     <use style="fill-opacity:0;stroke:#00bfbf;stroke-width:1.5;" x="215.566105" xlink:href="#m11808082f9" y="89.613525"/>
     <use style="fill-opacity:0;stroke:#00bfbf;stroke-width:1.5;" x="338.688" xlink:href="#m11808082f9" y="89.613525"/>
    </g>
   </g>
   <g id="line2d_32">
    <path style="fill:none;stroke:#00bfbf;stroke-linecap:square;stroke-width:1.5;"/>
    <g/>
   </g>
   <g id="line2d_33">
    <path clip-path="url(#p6cc74f882d)" d="M 216.387209 89.613525 
" style="fill:none;stroke:#00bfbf;stroke-linecap:square;stroke-width:1.5;"/>
    <defs>
     <path d="M -12 12 
L 12 -12 
M -12 -12 
L 12 12 
" id="m1347d8065d" style="stroke:#00bfbf;"/>
    </defs>
    <g clip-path="url(#p6cc74f882d)">
     <use style="fill:#00bfbf;stroke:#00bfbf;" x="216.387209" xlink:href="#m1347d8065d" y="89.613525"/>
    </g>
   </g>
   <g id="line2d_34">
    <defs>
     <path d="M 0 1.5 
C 0.397805 1.5 0.77937 1.341951 1.06066 1.06066 
C 1.341951 0.77937 1.5 0.397805 1.5 0 
C 1.5 -0.397805 1.341951 -0.77937 1.06066 -1.06066 
C 0.77937 -1.341951 0.397805 -1.5 0 -1.5 
C -0.397805 -1.5 -0.77937 -1.341951 -1.06066 -1.06066 
C -1.341951 -0.77937 -1.5 -0.397805 -1.5 0 
C -1.5 0.397805 -1.341951 0.77937 -1.06066 1.06066 
C -0.77937 1.341951 -0.397805 1.5 0 1.5 
z
" id="m60529aabaa" style="stroke:#008000;"/>
    </defs>
    <g>
     <use style="fill:#008000;stroke:#008000;" x="215.473459" xlink:href="#m60529aabaa" y="122.031962"/>
     <use style="fill:#008000;stroke:#008000;" x="215.473459" xlink:href="#m60529aabaa" y="122.031962"/>
    </g>
   </g>
   <g id="line2d_35">
    <path d="M 38.440992 298.944 
L 38.440992 297.091518 
L 57.6 297.091518 
L 57.6 291.534072 
L 66.508432 291.534072 
L 66.508432 290.607831 
L 80.258561 290.607831 
L 80.258561 289.68159 
L 89.78989 289.68159 
L 89.78989 288.755349 
L 91.535274 288.755349 
L 91.535274 287.829108 
L 94.575872 287.829108 
L 94.575872 285.976625 
L 95.259853 285.976625 
L 95.259853 284.124143 
L 95.918017 284.124143 
L 95.918017 283.197902 
L 96.552242 283.197902 
L 96.552242 282.271661 
L 104.826449 282.271661 
L 104.826449 281.34542 
L 105.209745 281.34542 
L 105.209745 280.419179 
L 107.009204 280.419179 
L 107.009204 278.566697 
L 109.252198 278.566697 
L 109.252198 276.714215 
L 110.694282 276.714215 
L 110.694282 275.787974 
L 111.239304 275.787974 
L 111.239304 274.861733 
L 112.531694 274.861733 
L 112.531694 273.935492 
L 113.965867 273.935492 
L 113.965867 273.009251 
L 118.220662 273.009251 
L 118.220662 271.156769 
L 120.728219 271.156769 
L 120.728219 270.230528 
L 123.460928 270.230528 
L 123.460928 269.304287 
L 125.822869 269.304287 
L 125.822869 268.378046 
L 125.938745 268.378046 
L 125.938745 267.451805 
L 127.272333 267.451805 
L 127.378995 265.599323 
L 130.127931 265.599323 
L 130.127931 263.746841 
L 131.439773 263.746841 
L 131.439773 259.115635 
L 132.101058 259.115635 
L 132.101058 258.189394 
L 132.501978 258.189394 
L 132.501978 257.263153 
L 134.591225 257.263153 
L 134.591225 254.48443 
L 135.482227 254.48443 
L 135.482227 253.558189 
L 135.747468 253.558189 
L 135.747468 252.631948 
L 136.831795 252.631948 
L 136.831795 251.705707 
L 136.955041 251.705707 
L 136.955041 248.926984 
L 138.816998 248.926984 
L 138.816998 247.074502 
L 142.07914 247.074502 
L 142.07914 244.295779 
L 142.261275 244.295779 
L 142.261275 243.369538 
L 142.396639 243.369538 
L 142.396639 242.443297 
L 142.927826 242.443297 
L 142.927826 241.517056 
L 143.820164 241.517056 
L 143.820164 239.664574 
L 146.644018 239.664574 
L 146.644018 238.738333 
L 147.266916 238.738333 
L 147.300877 235.033368 
L 147.50327 235.033368 
L 147.50327 234.107127 
L 147.933891 234.107127 
L 147.933891 232.254645 
L 149.195872 232.254645 
L 149.195872 230.402163 
L 149.940618 230.402163 
L 149.940618 229.475922 
L 150.932558 229.475922 
L 150.932558 228.549681 
L 152.860649 228.549681 
L 152.860649 223.918476 
L 152.983548 223.918476 
L 152.983548 222.992235 
L 153.442821 222.992235 
L 153.442821 222.065994 
L 154.46214 222.065994 
L 154.46214 219.287271 
L 155.0376 219.287271 
L 155.12447 216.508548 
L 159.557689 216.508548 
L 159.557689 214.656066 
L 161.161694 214.656066 
L 161.161694 212.803583 
L 163.775378 212.803583 
L 163.775378 210.951101 
L 164.687696 210.951101 
L 164.687696 209.098619 
L 165.18141 209.098619 
L 165.18141 208.172378 
L 170.899085 208.172378 
L 170.899085 207.246137 
L 172.546075 207.246137 
L 172.569992 202.614932 
L 174.676192 202.614932 
L 174.746654 198.909968 
L 174.809827 198.909968 
L 174.844824 197.057486 
L 175.025688 197.057486 
L 175.074063 194.278763 
L 175.149812 194.278763 
L 175.149812 193.352522 
L 175.422519 193.352522 
L 175.422519 192.426281 
L 176.402401 192.426281 
L 176.459861 181.311388 
L 176.819447 181.311388 
L 176.912855 178.532665 
L 176.962469 178.532665 
L 176.962469 177.606424 
L 177.541091 177.606424 
L 177.541091 175.753942 
L 178.268566 175.753942 
L 178.268566 174.827701 
L 179.723141 174.827701 
L 179.723141 173.90146 
L 179.881012 173.90146 
L 179.881012 172.975219 
L 180.11 172.975219 
L 180.11 171.122737 
L 180.300258 171.122737 
L 180.300258 170.196496 
L 180.848977 170.196496 
L 180.848977 169.270255 
L 181.700078 169.270255 
L 181.700078 168.344014 
L 185.055732 168.344014 
L 185.055732 167.417773 
L 186.711146 167.417773 
L 186.711146 166.491532 
L 186.901318 166.491532 
L 186.901318 164.63905 
L 188.118742 164.63905 
L 188.118742 163.712808 
L 188.461588 163.712808 
L 188.461588 162.786567 
L 188.614649 162.786567 
L 188.706476 158.155362 
L 188.766378 158.155362 
L 188.869931 155.376639 
L 189.213803 155.376639 
L 189.28116 152.597916 
L 189.396894 152.597916 
L 189.396894 151.671675 
L 189.514881 151.671675 
L 189.514881 150.745434 
L 191.787325 150.745434 
L 191.787325 149.819193 
L 194.482029 149.819193 
L 194.482029 147.966711 
L 197.81212 147.966711 
L 197.81212 146.114229 
L 198.926146 146.114229 
L 198.926146 145.187988 
L 200.685167 145.187988 
L 200.685167 143.335506 
L 201.468179 143.335506 
L 201.468179 141.483024 
L 201.947681 141.483024 
L 201.947681 139.630541 
L 202.106582 139.630541 
L 202.106582 138.7043 
L 202.753514 138.7043 
L 202.753514 136.851818 
L 204.113213 136.851818 
L 204.113213 134.073095 
L 205.319793 134.073095 
L 205.319793 133.146854 
L 205.444815 133.146854 
L 205.444815 132.220613 
L 205.997166 132.220613 
L 205.997166 131.294372 
L 206.670643 131.294372 
L 206.670643 130.368131 
L 208.017464 130.368131 
L 208.017464 129.44189 
L 208.515381 129.44189 
L 208.515381 128.515649 
L 210.59702 128.515649 
L 210.59702 126.663167 
L 212.826306 126.663167 
L 212.826306 125.736926 
L 215.152027 125.736926 
L 215.152027 123.884444 
L 215.473459 123.884444 
L 215.473459 122.031962 
L 338.688 122.031962 
L 338.688 122.031962 
" style="fill:none;stroke:#008000;stroke-linecap:square;stroke-width:1.5;"/>
   </g>
   <g id="line2d_36">
    <defs>
     <path d="M -0 6 
L 6 -6 
L -6 -6 
z
" id="mfe2d24d5a0" style="stroke:#008000;stroke-linejoin:miter;stroke-width:1.5;"/>
    </defs>
    <g>
     <use style="fill-opacity:0;stroke:#008000;stroke-linejoin:miter;stroke-width:1.5;" x="96.552242" xlink:href="#mfe2d24d5a0" y="282.271661"/>
     <use style="fill-opacity:0;stroke:#008000;stroke-linejoin:miter;stroke-width:1.5;" x="165.18141" xlink:href="#mfe2d24d5a0" y="209.098619"/>
     <use style="fill-opacity:0;stroke:#008000;stroke-linejoin:miter;stroke-width:1.5;" x="202.106582" xlink:href="#mfe2d24d5a0" y="138.7043"/>
     <use style="fill-opacity:0;stroke:#008000;stroke-linejoin:miter;stroke-width:1.5;" x="215.473459" xlink:href="#mfe2d24d5a0" y="123.884444"/>
     <use style="fill-opacity:0;stroke:#008000;stroke-linejoin:miter;stroke-width:1.5;" x="215.473459" xlink:href="#mfe2d24d5a0" y="122.031962"/>
     <use style="fill-opacity:0;stroke:#008000;stroke-linejoin:miter;stroke-width:1.5;" x="338.688" xlink:href="#mfe2d24d5a0" y="122.031962"/>
    </g>
   </g>
   <g id="line2d_37">
    <path style="fill:none;stroke:#008000;stroke-linecap:square;stroke-width:1.5;"/>
    <g/>
   </g>
   <g id="line2d_38">
    <path clip-path="url(#p6cc74f882d)" d="M 216.38624 122.031962 
" style="fill:none;stroke:#008000;stroke-linecap:square;stroke-width:1.5;"/>
    <defs>
     <path d="M -12 12 
L 12 -12 
M -12 -12 
L 12 12 
" id="m72cd18b4de" style="stroke:#008000;"/>
    </defs>
    <g clip-path="url(#p6cc74f882d)">
     <use style="fill:#008000;stroke:#008000;" x="216.38624" xlink:href="#m72cd18b4de" y="122.031962"/>
    </g>
   </g>
   <g id="line2d_39">
    <defs>
     <path d="M 0 1.5 
C 0.397805 1.5 0.77937 1.341951 1.06066 1.06066 
C 1.341951 0.77937 1.5 0.397805 1.5 0 
C 1.5 -0.397805 1.341951 -0.77937 1.06066 -1.06066 
C 0.77937 -1.341951 0.397805 -1.5 0 -1.5 
C -0.397805 -1.5 -0.77937 -1.341951 -1.06066 -1.06066 
C -1.341951 -0.77937 -1.5 -0.397805 -1.5 0 
C -1.5 0.397805 -1.341951 0.77937 -1.06066 1.06066 
C -0.77937 1.341951 -0.397805 1.5 0 1.5 
z
" id="mffe1c1aae0" style="stroke:#0000ff;"/>
    </defs>
    <g>
     <use style="fill:#0000ff;stroke:#0000ff;" x="211.539582" xlink:href="#mffe1c1aae0" y="146.114229"/>
     <use style="fill:#0000ff;stroke:#0000ff;" x="211.539582" xlink:href="#mffe1c1aae0" y="146.114229"/>
    </g>
   </g>
   <g id="line2d_40">
    <path d="M 29.53256 298.944 
L 29.53256 298.017759 
L 53.708537 298.017759 
L 53.708537 297.091518 
L 77.884514 297.091518 
L 77.884514 296.165277 
L 80.881459 296.165277 
L 80.881459 291.534072 
L 82.626842 291.534072 
L 82.626842 288.755349 
L 84.955534 288.755349 
L 84.955534 286.902867 
L 86.351421 286.902867 
L 86.351421 285.976625 
L 100.040467 285.976625 
L 100.040467 285.050384 
L 101.506816 285.050384 
L 101.506816 284.124143 
L 102.330873 284.124143 
L 102.330873 282.271661 
L 103.372333 282.271661 
L 103.372333 280.419179 
L 108.948899 280.419179 
L 108.948899 279.492938 
L 111.663381 279.492938 
L 111.663381 278.566697 
L 112.58145 278.566697 
L 112.58145 277.640456 
L 114.947365 277.640456 
L 114.947365 276.714215 
L 115.835374 276.714215 
L 115.835374 275.787974 
L 117.930605 275.787974 
L 117.930605 273.935492 
L 118.576578 273.935492 
L 118.576578 273.009251 
L 118.994305 273.009251 
L 118.994305 272.08301 
L 120.47729 272.08301 
L 120.47729 270.230528 
L 122.362027 270.230528 
L 122.362027 269.304287 
L 123.985457 269.304287 
L 123.985457 267.451805 
L 128.531065 267.451805 
L 128.531065 264.673082 
L 129.574256 264.673082 
L 129.574256 261.894358 
L 130.822389 261.894358 
L 130.822389 260.968117 
L 132.70687 260.968117 
L 132.70687 260.041876 
L 136.266147 260.041876 
L 136.266147 258.189394 
L 136.5324 258.189394 
L 136.607732 252.631948 
L 137.37967 252.631948 
L 137.37967 251.705707 
L 140.011351 251.705707 
L 140.011351 249.853225 
L 142.051655 249.853225 
L 142.051655 248.926984 
L 143.066785 248.926984 
L 143.066785 247.074502 
L 143.273169 247.074502 
L 143.273169 246.148261 
L 143.47714 246.148261 
L 143.578237 242.443297 
L 143.728793 242.443297 
L 143.728793 240.590815 
L 145.051495 240.590815 
L 145.143889 237.812091 
L 145.910079 237.812091 
L 145.910079 236.88585 
L 149.485628 236.88585 
L 149.485628 234.107127 
L 155.219531 234.107127 
L 155.271165 231.328404 
L 155.437927 231.328404 
L 155.437927 230.402163 
L 155.678822 230.402163 
L 155.678822 229.475922 
L 158.401243 229.475922 
L 158.401243 228.549681 
L 158.594062 228.549681 
L 158.594062 226.697199 
L 163.477355 226.697199 
L 163.477355 225.770958 
L 164.839766 225.770958 
L 164.839766 223.918476 
L 165.215452 223.918476 
L 165.215452 222.992235 
L 165.490206 222.992235 
L 165.490206 222.065994 
L 165.810071 222.065994 
L 165.915403 217.434789 
L 165.999212 217.434789 
L 166.068747 215.582307 
L 166.186323 215.582307 
L 166.186323 213.729825 
L 166.507321 213.729825 
L 166.507321 212.803583 
L 167.268694 212.803583 
L 167.268694 210.951101 
L 171.294385 210.951101 
L 171.294385 209.098619 
L 172.049233 209.098619 
L 172.049233 207.246137 
L 173.449287 207.246137 
L 173.449287 206.319896 
L 174.626698 206.319896 
L 174.626698 205.393655 
L 175.6777 205.393655 
L 175.6777 204.467414 
L 176.325491 204.467414 
L 176.425408 201.688691 
L 176.631116 201.688691 
L 176.668945 197.057486 
L 176.796954 197.057486 
L 176.800705 193.352522 
L 176.912855 193.352522 
L 176.912855 191.50004 
L 177.179109 191.50004 
L 177.179109 190.573799 
L 178.367119 190.573799 
L 178.367119 188.721316 
L 179.952111 188.721316 
L 180.008367 186.868834 
L 181.312565 186.868834 
L 181.390568 183.16387 
L 181.571228 183.16387 
L 181.682134 178.532665 
L 181.758505 178.532665 
L 181.758505 177.606424 
L 184.137221 177.606424 
L 184.137221 176.680183 
L 186.138111 176.680183 
L 186.138111 175.753942 
L 186.950984 175.753942 
L 187.015826 172.975219 
L 188.650804 172.975219 
L 188.650804 171.122737 
L 193.583452 171.122737 
L 193.617801 168.344014 
L 194.343143 168.344014 
L 194.453886 166.491532 
L 195.451066 166.491532 
L 195.529405 161.860326 
L 195.575473 161.860326 
L 195.575473 160.007844 
L 195.690113 160.007844 
L 195.690113 159.081603 
L 195.83425 159.081603 
L 195.83425 157.229121 
L 196.423538 157.229121 
L 196.423538 156.30288 
L 197.081703 156.30288 
L 197.157732 154.450398 
L 197.238078 154.450398 
L 197.238078 153.524157 
L 206.477018 153.524157 
L 206.508452 149.819193 
L 207.16042 149.819193 
L 207.236545 147.966711 
L 211.539582 147.966711 
L 211.539582 146.114229 
L 338.688 146.114229 
L 338.688 146.114229 
" style="fill:none;stroke:#0000ff;stroke-linecap:square;stroke-width:1.5;"/>
   </g>
   <g id="line2d_41">
    <defs>
     <path d="M 0 -6 
L -1.347084 -1.854102 
L -5.706339 -1.854102 
L -2.179628 0.708204 
L -3.526712 4.854102 
L -0 2.291796 
L 3.526712 4.854102 
L 2.179628 0.708204 
L 5.706339 -1.854102 
L 1.347084 -1.854102 
z
" id="m9b934d359c" style="stroke:#0000ff;stroke-linejoin:bevel;stroke-width:1.5;"/>
    </defs>
    <g>
     <use style="fill-opacity:0;stroke:#0000ff;stroke-linejoin:bevel;stroke-width:1.5;" x="111.663381" xlink:href="#m9b934d359c" y="278.566697"/>
     <use style="fill-opacity:0;stroke:#0000ff;stroke-linejoin:bevel;stroke-width:1.5;" x="173.449287" xlink:href="#m9b934d359c" y="207.246137"/>
     <use style="fill-opacity:0;stroke:#0000ff;stroke-linejoin:bevel;stroke-width:1.5;" x="207.236545" xlink:href="#m9b934d359c" y="147.966711"/>
     <use style="fill-opacity:0;stroke:#0000ff;stroke-linejoin:bevel;stroke-width:1.5;" x="211.539582" xlink:href="#m9b934d359c" y="146.114229"/>
     <use style="fill-opacity:0;stroke:#0000ff;stroke-linejoin:bevel;stroke-width:1.5;" x="211.539582" xlink:href="#m9b934d359c" y="146.114229"/>
     <use style="fill-opacity:0;stroke:#0000ff;stroke-linejoin:bevel;stroke-width:1.5;" x="338.688" xlink:href="#m9b934d359c" y="146.114229"/>
    </g>
   </g>
   <g id="line2d_42">
    <path style="fill:none;stroke:#0000ff;stroke-linecap:square;stroke-width:1.5;"/>
    <g/>
   </g>
   <g id="line2d_43">
    <path clip-path="url(#p6cc74f882d)" d="M 216.385853 146.114229 
" style="fill:none;stroke:#0000ff;stroke-linecap:square;stroke-width:1.5;"/>
    <defs>
     <path d="M -12 12 
L 12 -12 
M -12 -12 
L 12 12 
" id="m86e71dacac" style="stroke:#0000ff;"/>
    </defs>
    <g clip-path="url(#p6cc74f882d)">
     <use style="fill:#0000ff;stroke:#0000ff;" x="216.385853" xlink:href="#m86e71dacac" y="146.114229"/>
    </g>
   </g>
   <g id="line2d_44">
    <defs>
     <path d="M 0 1.5 
C 0.397805 1.5 0.77937 1.341951 1.06066 1.06066 
C 1.341951 0.77937 1.5 0.397805 1.5 0 
C 1.5 -0.397805 1.341951 -0.77937 1.06066 -1.06066 
C 0.77937 -1.341951 0.397805 -1.5 0 -1.5 
C -0.397805 -1.5 -0.77937 -1.341951 -1.06066 -1.06066 
C -1.341951 -0.77937 -1.5 -0.397805 -1.5 0 
C -1.5 0.397805 -1.341951 0.77937 -1.06066 1.06066 
C -0.77937 1.341951 -0.397805 1.5 0 1.5 
z
" id="m6f6c9e01b8" style="stroke:#000000;"/>
    </defs>
    <g>
     <use style="stroke:#000000;" x="213.104239" xlink:href="#m6f6c9e01b8" y="178.532665"/>
     <use style="stroke:#000000;" x="213.104239" xlink:href="#m6f6c9e01b8" y="178.532665"/>
    </g>
   </g>
   <g id="line2d_45">
    <path d="M 17.444571 298.944 
L 17.444571 292.460313 
L 63.467834 292.460313 
L 63.467834 291.534072 
L 65.796525 291.534072 
L 65.796525 290.607831 
L 73.579452 290.607831 
L 73.579452 289.68159 
L 74.263433 289.68159 
L 74.263433 286.902867 
L 80.881459 286.902867 
L 80.881459 285.976625 
L 84.588378 285.976625 
L 84.588378 285.050384 
L 88.255778 285.050384 
L 88.255778 284.124143 
L 93.863965 284.124143 
L 93.863965 283.197902 
L 94.714831 283.197902 
L 94.714831 282.271661 
L 100.641881 282.271661 
L 100.641881 281.34542 
L 101.506816 281.34542 
L 101.506816 280.419179 
L 102.989037 280.419179 
L 102.989037 279.492938 
L 104.355088 279.492938 
L 104.355088 278.566697 
L 109.930396 278.566697 
L 109.930396 276.714215 
L 110.274038 276.714215 
L 110.274038 275.787974 
L 111.663381 275.787974 
L 111.74176 273.009251 
L 112.58145 273.009251 
L 112.58145 272.08301 
L 116.262979 272.08301 
L 116.262979 271.156769 
L 117.598418 271.156769 
L 117.598418 270.230528 
L 118.148599 270.230528 
L 118.148599 269.304287 
L 120.429836 269.304287 
L 120.429836 266.525564 
L 123.751369 266.525564 
L 123.751369 265.599323 
L 123.985457 265.599323 
L 123.985457 261.894358 
L 125.787955 261.894358 
L 125.787955 260.968117 
L 126.168212 260.968117 
L 126.168212 260.041876 
L 127.611382 260.041876 
L 127.611382 259.115635 
L 129.06046 259.115635 
L 129.06046 257.263153 
L 129.686407 257.263153 
L 129.686407 256.336912 
L 130.155159 256.336912 
L 130.155159 253.558189 
L 130.848555 253.558189 
L 130.848555 252.631948 
L 131.590764 252.631948 
L 131.590764 251.705707 
L 132.70687 251.705707 
L 132.70687 250.779466 
L 138.170504 250.779466 
L 138.170504 249.853225 
L 138.761723 249.853225 
L 138.761723 248.000743 
L 144.221461 248.000743 
L 144.221461 246.148261 
L 144.35454 246.148261 
L 144.35454 245.22202 
L 144.486611 245.22202 
L 144.486611 244.295779 
L 144.605813 244.295779 
L 144.605813 242.443297 
L 148.248413 242.443297 
L 148.248413 240.590815 
L 148.676918 240.590815 
L 148.686322 237.812091 
L 149.690956 237.812091 
L 149.690956 235.959609 
L 153.616112 235.959609 
L 153.616112 234.107127 
L 157.826359 234.107127 
L 157.826359 232.254645 
L 159.288488 232.254645 
L 159.288488 230.402163 
L 159.512268 230.402163 
L 159.512268 228.549681 
L 159.62811 228.549681 
L 159.683242 226.697199 
L 160.064363 226.697199 
L 160.166875 222.992235 
L 160.566247 222.992235 
L 160.566247 221.139753 
L 160.811875 221.139753 
L 160.811875 219.287271 
L 164.047627 219.287271 
L 164.047627 218.36103 
L 167.503559 218.36103 
L 167.503559 216.508548 
L 169.408908 216.508548 
L 169.408908 215.582307 
L 169.964373 215.582307 
L 169.964373 213.729825 
L 170.356777 213.729825 
L 170.356777 212.803583 
L 172.103323 212.803583 
L 172.103323 210.951101 
L 172.254864 210.951101 
L 172.281613 208.172378 
L 172.720707 208.172378 
L 172.720707 206.319896 
L 173.964285 206.319896 
L 173.964285 204.467414 
L 174.511615 204.467414 
L 174.511615 202.614932 
L 177.922694 202.614932 
L 177.922694 201.688691 
L 179.382576 201.688691 
L 179.382576 199.836209 
L 179.51789 199.836209 
L 179.51789 198.909968 
L 180.309972 198.909968 
L 180.309972 197.983727 
L 182.067618 197.983727 
L 182.067618 196.131245 
L 182.234569 196.131245 
L 182.234569 195.205004 
L 182.384967 195.205004 
L 182.384967 194.278763 
L 183.443979 194.278763 
L 183.443979 193.352522 
L 193.225956 193.352522 
L 193.225956 192.426281 
L 193.796324 192.426281 
L 193.796324 191.50004 
L 195.692652 191.50004 
L 195.692652 190.573799 
L 197.153646 190.573799 
L 197.153646 189.647558 
L 202.115367 189.647558 
L 202.115367 187.795075 
L 203.386696 187.795075 
L 203.386696 186.868834 
L 206.721189 186.868834 
L 206.778424 184.090111 
L 206.863258 184.090111 
L 206.863258 183.16387 
L 207.776832 183.16387 
L 207.776832 182.237629 
L 207.933568 182.237629 
L 207.933568 180.385147 
L 213.104239 180.385147 
L 213.104239 178.532665 
L 338.688 178.532665 
L 338.688 178.532665 
" style="fill:none;stroke:#000000;stroke-linecap:square;stroke-width:1.5;"/>
   </g>
   <g id="line2d_46">
    <defs>
     <path d="M 0 6 
C 1.591219 6 3.117479 5.367802 4.242641 4.242641 
C 5.367802 3.117479 6 1.591219 6 0 
C 6 -1.591219 5.367802 -3.117479 4.242641 -4.242641 
C 3.117479 -5.367802 1.591219 -6 0 -6 
C -1.591219 -6 -3.117479 -5.367802 -4.242641 -4.242641 
C -5.367802 -3.117479 -6 -1.591219 -6 0 
C -6 1.591219 -5.367802 3.117479 -4.242641 4.242641 
C -3.117479 5.367802 -1.591219 6 0 6 
z
" id="m6b2c7e5a8b" style="stroke:#000000;stroke-width:1.5;"/>
    </defs>
    <g>
     <use style="fill-opacity:0;stroke:#000000;stroke-width:1.5;" x="63.467834" xlink:href="#m6b2c7e5a8b" y="291.534072"/>
     <use style="fill-opacity:0;stroke:#000000;stroke-width:1.5;" x="132.70687" xlink:href="#m6b2c7e5a8b" y="250.779466"/>
     <use style="fill-opacity:0;stroke:#000000;stroke-width:1.5;" x="197.153646" xlink:href="#m6b2c7e5a8b" y="190.573799"/>
     <use style="fill-opacity:0;stroke:#000000;stroke-width:1.5;" x="213.104239" xlink:href="#m6b2c7e5a8b" y="180.385147"/>
     <use style="fill-opacity:0;stroke:#000000;stroke-width:1.5;" x="213.104239" xlink:href="#m6b2c7e5a8b" y="178.532665"/>
     <use style="fill-opacity:0;stroke:#000000;stroke-width:1.5;" x="338.688" xlink:href="#m6b2c7e5a8b" y="178.532665"/>
    </g>
   </g>
   <g id="line2d_47">
    <path style="fill:none;stroke:#000000;stroke-linecap:square;stroke-width:1.5;"/>
    <g/>
   </g>
   <g id="line2d_48">
    <path clip-path="url(#p6cc74f882d)" d="M 216.386046 178.532665 
" style="fill:none;stroke:#000000;stroke-linecap:square;stroke-width:1.5;"/>
    <defs>
     <path d="M -12 12 
L 12 -12 
M -12 -12 
L 12 12 
" id="maf1528c5a7" style="stroke:#000000;"/>
    </defs>
    <g clip-path="url(#p6cc74f882d)">
     <use style="stroke:#000000;" x="216.386046" xlink:href="#maf1528c5a7" y="178.532665"/>
    </g>
   </g>
   <g id="line2d_49">
    <defs>
     <path d="M 0 1.5 
C 0.397805 1.5 0.77937 1.341951 1.06066 1.06066 
C 1.341951 0.77937 1.5 0.397805 1.5 0 
C 1.5 -0.397805 1.341951 -0.77937 1.06066 -1.06066 
C 0.77937 -1.341951 0.397805 -1.5 0 -1.5 
C -0.397805 -1.5 -0.77937 -1.341951 -1.06066 -1.06066 
C -1.341951 -0.77937 -1.5 -0.397805 -1.5 0 
C -1.5 0.397805 -1.341951 0.77937 -1.06066 1.06066 
C -0.77937 1.341951 -0.397805 1.5 0 1.5 
z
" id="mb14739c301" style="stroke:#ff0000;"/>
    </defs>
    <g>
     <use style="fill:#ff0000;stroke:#ff0000;" x="214.403343" xlink:href="#mb14739c301" y="202.614932"/>
     <use style="fill:#ff0000;stroke:#ff0000;" x="214.403343" xlink:href="#mb14739c301" y="202.614932"/>
    </g>
   </g>
   <g id="line2d_50">
    <path d="M 5.356583 298.944 
L 5.356583 296.165277 
L 39.291857 296.165277 
L 39.291857 295.239036 
L 96.395835 295.239036 
L 96.395835 293.386554 
L 97.491858 293.386554 
L 97.491858 291.534072 
L 98.689141 291.534072 
L 98.689141 289.68159 
L 99.731799 289.68159 
L 99.731799 287.829108 
L 100.567829 287.829108 
L 100.567829 285.976625 
L 101.646892 285.976625 
L 101.646892 285.050384 
L 102.530943 285.050384 
L 102.530943 283.197902 
L 103.372333 283.197902 
L 103.372333 282.271661 
L 103.870632 282.271661 
L 103.870632 281.34542 
L 104.17499 281.34542 
L 104.17499 279.492938 
L 104.942325 279.492938 
L 104.999975 277.640456 
L 106.114686 277.640456 
L 106.114686 276.714215 
L 106.382575 276.714215 
L 106.382575 275.787974 
L 107.712901 275.787974 
L 107.712901 274.861733 
L 108.948899 274.861733 
L 108.948899 273.935492 
L 111.702614 273.935492 
L 111.702614 273.009251 
L 112.204777 273.009251 
L 112.204777 272.08301 
L 112.692883 272.08301 
L 112.692883 271.156769 
L 113.629929 271.156769 
L 113.629929 269.304287 
L 113.839203 269.304287 
L 113.839203 268.378046 
L 114.947365 268.378046 
L 114.947365 267.451805 
L 116.172228 267.451805 
L 116.172228 265.599323 
L 117.202696 265.599323 
L 117.202696 264.673082 
L 117.709852 264.673082 
L 117.709852 263.746841 
L 118.06717 263.746841 
L 118.06717 262.8206 
L 126.573795 262.8206 
L 126.573795 261.894358 
L 127.132689 261.894358 
L 127.132689 260.968117 
L 129.376241 260.968117 
L 129.376241 260.041876 
L 130.624887 260.041876 
L 130.624887 258.189394 
L 132.5297 258.189394 
L 132.5297 257.263153 
L 138.049816 257.263153 
L 138.049816 256.336912 
L 138.400926 256.336912 
L 138.400926 254.48443 
L 138.819757 254.48443 
L 138.819757 252.631948 
L 139.172077 252.631948 
L 139.172077 251.705707 
L 139.485583 251.705707 
L 139.485583 250.779466 
L 139.895012 250.779466 
L 139.895012 248.926984 
L 143.292393 248.926984 
L 143.292393 248.000743 
L 144.522457 248.000743 
L 144.522457 246.148261 
L 144.653267 246.148261 
L 144.712404 243.369538 
L 144.806606 243.369538 
L 144.806606 242.443297 
L 146.058265 242.443297 
L 146.058265 241.517056 
L 153.707991 241.517056 
L 153.707991 239.664574 
L 161.92917 239.664574 
L 161.92917 238.738333 
L 162.515329 238.738333 
L 162.515329 237.812091 
L 163.00194 237.812091 
L 163.00194 235.959609 
L 164.218222 235.959609 
L 164.218222 234.107127 
L 167.428296 234.107127 
L 167.428296 232.254645 
L 168.038548 232.254645 
L 168.038548 231.328404 
L 168.444434 231.328404 
L 168.444434 230.402163 
L 168.693957 230.402163 
L 168.693957 228.549681 
L 170.310587 228.549681 
L 170.310587 226.697199 
L 170.876713 226.697199 
L 170.876713 224.844717 
L 175.343532 224.844717 
L 175.343532 222.992235 
L 177.033543 222.992235 
L 177.10832 220.213512 
L 177.338022 220.213512 
L 177.338022 218.36103 
L 179.565963 218.36103 
L 179.565963 217.434789 
L 181.501909 217.434789 
L 181.501909 215.582307 
L 187.001205 215.582307 
L 187.001205 214.656066 
L 189.742684 214.656066 
L 189.742684 212.803583 
L 189.91061 212.803583 
L 189.91061 211.877342 
L 190.731027 211.877342 
L 190.731027 210.02486 
L 191.898661 210.02486 
L 191.898661 209.098619 
L 200.904337 209.098619 
L 200.904337 208.172378 
L 201.655478 208.172378 
L 201.655478 206.319896 
L 210.021003 206.319896 
L 210.021003 204.467414 
L 214.082607 204.467414 
L 214.082607 203.541173 
L 214.403343 203.541173 
L 214.403343 202.614932 
L 338.688 202.614932 
L 338.688 202.614932 
" style="fill:none;stroke:#ff0000;stroke-linecap:square;stroke-width:1.5;"/>
   </g>
   <g id="line2d_51">
    <defs>
     <path d="M -6 6 
L 6 6 
L 6 -6 
L -6 -6 
z
" id="m4ac2ec424f" style="stroke:#ff0000;stroke-linejoin:miter;stroke-width:1.5;"/>
    </defs>
    <g>
     <use style="fill-opacity:0;stroke:#ff0000;stroke-linejoin:miter;stroke-width:1.5;" x="117.202696" xlink:href="#m4ac2ec424f" y="264.673082"/>
     <use style="fill-opacity:0;stroke:#ff0000;stroke-linejoin:miter;stroke-width:1.5;" x="201.655478" xlink:href="#m4ac2ec424f" y="208.172378"/>
     <use style="fill-opacity:0;stroke:#ff0000;stroke-linejoin:miter;stroke-width:1.5;" x="214.403343" xlink:href="#m4ac2ec424f" y="202.614932"/>
     <use style="fill-opacity:0;stroke:#ff0000;stroke-linejoin:miter;stroke-width:1.5;" x="214.403343" xlink:href="#m4ac2ec424f" y="202.614932"/>
     <use style="fill-opacity:0;stroke:#ff0000;stroke-linejoin:miter;stroke-width:1.5;" x="338.688" xlink:href="#m4ac2ec424f" y="202.614932"/>
    </g>
   </g>
   <g id="line2d_52">
    <path style="fill:none;stroke:#ff0000;stroke-linecap:square;stroke-width:1.5;"/>
    <g/>
   </g>
   <g id="line2d_53">
    <path clip-path="url(#p6cc74f882d)" d="M 216.385078 202.614932 
" style="fill:none;stroke:#ff0000;stroke-linecap:square;stroke-width:1.5;"/>
    <defs>
     <path d="M -12 12 
L 12 -12 
M -12 -12 
L 12 12 
" id="m8d7ee0fe1a" style="stroke:#ff0000;"/>
    </defs>
    <g clip-path="url(#p6cc74f882d)">
     <use style="fill:#ff0000;stroke:#ff0000;" x="216.385078" xlink:href="#m8d7ee0fe1a" y="202.614932"/>
    </g>
   </g>
   <g id="line2d_54">
    <path d="M 338.688 202.614932 
L 369.60768 293.571802 
" style="fill:none;stroke:#ff0000;stroke-linecap:square;stroke-width:1.5;"/>
    <g>
     <use style="fill-opacity:0;stroke:#ff0000;stroke-linejoin:miter;stroke-width:1.5;" x="338.688" xlink:href="#m4ac2ec424f" y="202.614932"/>
     <use style="fill-opacity:0;stroke:#ff0000;stroke-linejoin:miter;stroke-width:1.5;" x="369.60768" xlink:href="#m4ac2ec424f" y="293.571802"/>
    </g>
   </g>
   <g id="line2d_55">
    <path d="M 338.688 178.532665 
L 369.60768 229.105426 
" style="fill:none;stroke:#000000;stroke-linecap:square;stroke-width:1.5;"/>
    <g>
     <use style="fill-opacity:0;stroke:#000000;stroke-width:1.5;" x="338.688" xlink:href="#m6b2c7e5a8b" y="178.532665"/>
     <use style="fill-opacity:0;stroke:#000000;stroke-width:1.5;" x="369.60768" xlink:href="#m6b2c7e5a8b" y="229.105426"/>
    </g>
   </g>
   <g id="line2d_56">
    <path d="M 338.688 146.114229 
L 369.60768 164.63905 
" style="fill:none;stroke:#0000ff;stroke-linecap:square;stroke-width:1.5;"/>
    <g>
     <use style="fill-opacity:0;stroke:#0000ff;stroke-linejoin:bevel;stroke-width:1.5;" x="338.688" xlink:href="#m9b934d359c" y="146.114229"/>
     <use style="fill-opacity:0;stroke:#0000ff;stroke-linejoin:bevel;stroke-width:1.5;" x="369.60768" xlink:href="#m9b934d359c" y="164.63905"/>
    </g>
   </g>
   <g id="line2d_57">
    <path d="M 338.688 122.031962 
L 369.60768 100.172673 
" style="fill:none;stroke:#008000;stroke-linecap:square;stroke-width:1.5;"/>
    <g>
     <use style="fill-opacity:0;stroke:#008000;stroke-linejoin:miter;stroke-width:1.5;" x="338.688" xlink:href="#mfe2d24d5a0" y="122.031962"/>
     <use style="fill-opacity:0;stroke:#008000;stroke-linejoin:miter;stroke-width:1.5;" x="369.60768" xlink:href="#mfe2d24d5a0" y="100.172673"/>
    </g>
   </g>
   <g id="line2d_58">
    <path d="M 338.688 89.613525 
L 369.60768 35.706297 
" style="fill:none;stroke:#00bfbf;stroke-linecap:square;stroke-width:1.5;"/>
    <g>
     <use style="fill-opacity:0;stroke:#00bfbf;stroke-width:1.5;" x="338.688" xlink:href="#m11808082f9" y="89.613525"/>
     <use style="fill-opacity:0;stroke:#00bfbf;stroke-width:1.5;" x="369.60768" xlink:href="#m11808082f9" y="35.706297"/>
    </g>
   </g>
   <g id="line2d_59">
    <path d="M 338.688 298.944 
L 338.688 30.334099 
" style="fill:none;stroke:#000000;stroke-linecap:square;stroke-width:1.5;"/>
   </g>
   <g id="patch_3">
    <path d="M 57.6 298.944 
L 57.6 27.648 
" style="fill:none;stroke:#000000;stroke-linecap:square;stroke-linejoin:miter;stroke-width:0.8;"/>
   </g>
   <g id="patch_4">
    <path d="M 338.688 298.944 
L 338.688 27.648 
" style="fill:none;stroke:#000000;stroke-linecap:square;stroke-linejoin:miter;stroke-width:0.8;"/>
   </g>
   <g id="patch_5">
    <path d="M 57.6 298.944 
L 338.688 298.944 
" style="fill:none;stroke:#000000;stroke-linecap:square;stroke-linejoin:miter;stroke-width:0.8;"/>
   </g>
   <g id="patch_6">
    <path d="M 57.6 27.648 
L 338.688 27.648 
" style="fill:none;stroke:#000000;stroke-linecap:square;stroke-linejoin:miter;stroke-width:0.8;"/>
   </g>
   <g id="text_13">
    <!-- 20-D -->
    <defs>
     <path d="M 19.671875 64.796875 
L 19.671875 8.109375 
L 31.59375 8.109375 
Q 46.6875 8.109375 53.6875 14.9375 
Q 60.6875 21.78125 60.6875 36.53125 
Q 60.6875 51.171875 53.6875 57.984375 
Q 46.6875 64.796875 31.59375 64.796875 
z
M 9.8125 72.90625 
L 30.078125 72.90625 
Q 51.265625 72.90625 61.171875 64.09375 
Q 71.09375 55.28125 71.09375 36.53125 
Q 71.09375 17.671875 61.125 8.828125 
Q 51.171875 0 30.078125 0 
L 9.8125 0 
z
" id="DejaVuSans-68"/>
    </defs>
    <g transform="translate(375.22944 298.262739)scale(0.17 -0.17)">
     <use xlink:href="#DejaVuSans-50"/>
     <use x="63.623047" xlink:href="#DejaVuSans-48"/>
     <use x="127.246094" xlink:href="#DejaVuSans-45"/>
     <use x="163.330078" xlink:href="#DejaVuSans-68"/>
    </g>
   </g>
   <g id="text_14">
    <!-- 10-D -->
    <g transform="translate(375.22944 233.796363)scale(0.17 -0.17)">
     <use xlink:href="#DejaVuSans-49"/>
     <use x="63.623047" xlink:href="#DejaVuSans-48"/>
     <use x="127.246094" xlink:href="#DejaVuSans-45"/>
     <use x="163.330078" xlink:href="#DejaVuSans-68"/>
    </g>
   </g>
   <g id="text_15">
    <!-- 5-D -->
    <defs>
     <path d="M 10.796875 72.90625 
L 49.515625 72.90625 
L 49.515625 64.59375 
L 19.828125 64.59375 
L 19.828125 46.734375 
Q 21.96875 47.46875 24.109375 47.828125 
Q 26.265625 48.1875 28.421875 48.1875 
Q 40.625 48.1875 47.75 41.5 
Q 54.890625 34.8125 54.890625 23.390625 
Q 54.890625 11.625 47.5625 5.09375 
Q 40.234375 -1.421875 26.90625 -1.421875 
Q 22.3125 -1.421875 17.546875 -0.640625 
Q 12.796875 0.140625 7.71875 1.703125 
L 7.71875 11.625 
Q 12.109375 9.234375 16.796875 8.0625 
Q 21.484375 6.890625 26.703125 6.890625 
Q 35.15625 6.890625 40.078125 11.328125 
Q 45.015625 15.765625 45.015625 23.390625 
Q 45.015625 31 40.078125 35.4375 
Q 35.15625 39.890625 26.703125 39.890625 
Q 22.75 39.890625 18.8125 39.015625 
Q 14.890625 38.140625 10.796875 36.28125 
z
" id="DejaVuSans-53"/>
    </defs>
    <g transform="translate(375.22944 169.329987)scale(0.17 -0.17)">
     <use xlink:href="#DejaVuSans-53"/>
     <use x="63.623047" xlink:href="#DejaVuSans-45"/>
     <use x="99.707031" xlink:href="#DejaVuSans-68"/>
    </g>
   </g>
   <g id="text_16">
    <!-- 3-D -->
    <defs>
     <path d="M 40.578125 39.3125 
Q 47.65625 37.796875 51.625 33 
Q 55.609375 28.21875 55.609375 21.1875 
Q 55.609375 10.40625 48.1875 4.484375 
Q 40.765625 -1.421875 27.09375 -1.421875 
Q 22.515625 -1.421875 17.65625 -0.515625 
Q 12.796875 0.390625 7.625 2.203125 
L 7.625 11.71875 
Q 11.71875 9.328125 16.59375 8.109375 
Q 21.484375 6.890625 26.8125 6.890625 
Q 36.078125 6.890625 40.9375 10.546875 
Q 45.796875 14.203125 45.796875 21.1875 
Q 45.796875 27.640625 41.28125 31.265625 
Q 36.765625 34.90625 28.71875 34.90625 
L 20.21875 34.90625 
L 20.21875 43.015625 
L 29.109375 43.015625 
Q 36.375 43.015625 40.234375 45.921875 
Q 44.09375 48.828125 44.09375 54.296875 
Q 44.09375 59.90625 40.109375 62.90625 
Q 36.140625 65.921875 28.71875 65.921875 
Q 24.65625 65.921875 20.015625 65.03125 
Q 15.375 64.15625 9.8125 62.3125 
L 9.8125 71.09375 
Q 15.4375 72.65625 20.34375 73.4375 
Q 25.25 74.21875 29.59375 74.21875 
Q 40.828125 74.21875 47.359375 69.109375 
Q 53.90625 64.015625 53.90625 55.328125 
Q 53.90625 49.265625 50.4375 45.09375 
Q 46.96875 40.921875 40.578125 39.3125 
z
" id="DejaVuSans-51"/>
    </defs>
    <g transform="translate(375.22944 104.863611)scale(0.17 -0.17)">
     <use xlink:href="#DejaVuSans-51"/>
     <use x="63.623047" xlink:href="#DejaVuSans-45"/>
     <use x="99.707031" xlink:href="#DejaVuSans-68"/>
    </g>
   </g>
   <g id="text_17">
    <!-- 2-D -->
    <g transform="translate(375.22944 40.397235)scale(0.17 -0.17)">
     <use xlink:href="#DejaVuSans-50"/>
     <use x="63.623047" xlink:href="#DejaVuSans-45"/>
     <use x="99.707031" xlink:href="#DejaVuSans-68"/>
    </g>
   </g>
   <g id="text_18">
    <!-- bbob-biobj f19 -->
    <defs>
     <path d="M 48.6875 27.296875 
Q 48.6875 37.203125 44.609375 42.84375 
Q 40.53125 48.484375 33.40625 48.484375 
Q 26.265625 48.484375 22.1875 42.84375 
Q 18.109375 37.203125 18.109375 27.296875 
Q 18.109375 17.390625 22.1875 11.75 
Q 26.265625 6.109375 33.40625 6.109375 
Q 40.53125 6.109375 44.609375 11.75 
Q 48.6875 17.390625 48.6875 27.296875 
z
M 18.109375 46.390625 
Q 20.953125 51.265625 25.265625 53.625 
Q 29.59375 56 35.59375 56 
Q 45.5625 56 51.78125 48.09375 
Q 58.015625 40.1875 58.015625 27.296875 
Q 58.015625 14.40625 51.78125 6.484375 
Q 45.5625 -1.421875 35.59375 -1.421875 
Q 29.59375 -1.421875 25.265625 0.953125 
Q 20.953125 3.328125 18.109375 8.203125 
L 18.109375 0 
L 9.078125 0 
L 9.078125 75.984375 
L 18.109375 75.984375 
z
" id="DejaVuSans-98"/>
     <path d="M 9.421875 54.6875 
L 18.40625 54.6875 
L 18.40625 -0.984375 
Q 18.40625 -11.421875 14.421875 -16.109375 
Q 10.453125 -20.796875 1.609375 -20.796875 
L -1.8125 -20.796875 
L -1.8125 -13.1875 
L 0.59375 -13.1875 
Q 5.71875 -13.1875 7.5625 -10.8125 
Q 9.421875 -8.453125 9.421875 -0.984375 
z
M 9.421875 75.984375 
L 18.40625 75.984375 
L 18.40625 64.59375 
L 9.421875 64.59375 
z
" id="DejaVuSans-106"/>
     <path d="M 10.984375 1.515625 
L 10.984375 10.5 
Q 14.703125 8.734375 18.5 7.8125 
Q 22.3125 6.890625 25.984375 6.890625 
Q 35.75 6.890625 40.890625 13.453125 
Q 46.046875 20.015625 46.78125 33.40625 
Q 43.953125 29.203125 39.59375 26.953125 
Q 35.25 24.703125 29.984375 24.703125 
Q 19.046875 24.703125 12.671875 31.3125 
Q 6.296875 37.9375 6.296875 49.421875 
Q 6.296875 60.640625 12.9375 67.421875 
Q 19.578125 74.21875 30.609375 74.21875 
Q 43.265625 74.21875 49.921875 64.515625 
Q 56.59375 54.828125 56.59375 36.375 
Q 56.59375 19.140625 48.40625 8.859375 
Q 40.234375 -1.421875 26.421875 -1.421875 
Q 22.703125 -1.421875 18.890625 -0.6875 
Q 15.09375 0.046875 10.984375 1.515625 
z
M 30.609375 32.421875 
Q 37.25 32.421875 41.125 36.953125 
Q 45.015625 41.5 45.015625 49.421875 
Q 45.015625 57.28125 41.125 61.84375 
Q 37.25 66.40625 30.609375 66.40625 
Q 23.96875 66.40625 20.09375 61.84375 
Q 16.21875 57.28125 16.21875 49.421875 
Q 16.21875 41.5 20.09375 36.953125 
Q 23.96875 32.421875 30.609375 32.421875 
z
" id="DejaVuSans-57"/>
    </defs>
    <g transform="translate(60.41088 38.111366)scale(0.102 -0.102)">
     <use xlink:href="#DejaVuSans-98"/>
     <use x="63.476562" xlink:href="#DejaVuSans-98"/>
     <use x="126.953125" xlink:href="#DejaVuSans-111"/>
     <use x="188.134766" xlink:href="#DejaVuSans-98"/>
     <use x="251.611328" xlink:href="#DejaVuSans-45"/>
     <use x="287.695312" xlink:href="#DejaVuSans-98"/>
     <use x="351.171875" xlink:href="#DejaVuSans-105"/>
     <use x="378.955078" xlink:href="#DejaVuSans-111"/>
     <use x="440.136719" xlink:href="#DejaVuSans-98"/>
     <use x="503.613281" xlink:href="#DejaVuSans-106"/>
     <use x="531.396484" xlink:href="#DejaVuSans-32"/>
     <use x="563.183594" xlink:href="#DejaVuSans-102"/>
     <use x="598.388672" xlink:href="#DejaVuSans-49"/>
     <use x="662.011719" xlink:href="#DejaVuSans-57"/>
    </g>
    <!-- 58 targets: 1..-1.0e-4 -->
    <defs>
     <path d="M 11.71875 12.40625 
L 22.015625 12.40625 
L 22.015625 0 
L 11.71875 0 
z
M 11.71875 51.703125 
L 22.015625 51.703125 
L 22.015625 39.3125 
L 11.71875 39.3125 
z
" id="DejaVuSans-58"/>
    </defs>
    <g transform="translate(60.41088 49.533135)scale(0.102 -0.102)">
     <use xlink:href="#DejaVuSans-53"/>
     <use x="63.623047" xlink:href="#DejaVuSans-56"/>
     <use x="127.246094" xlink:href="#DejaVuSans-32"/>
     <use x="159.033203" xlink:href="#DejaVuSans-116"/>
     <use x="198.242188" xlink:href="#DejaVuSans-97"/>
     <use x="259.521484" xlink:href="#DejaVuSans-114"/>
     <use x="300.619141" xlink:href="#DejaVuSans-103"/>
     <use x="364.095703" xlink:href="#DejaVuSans-101"/>
     <use x="425.619141" xlink:href="#DejaVuSans-116"/>
     <use x="464.828125" xlink:href="#DejaVuSans-115"/>
     <use x="516.927734" xlink:href="#DejaVuSans-58"/>
     <use x="550.619141" xlink:href="#DejaVuSans-32"/>
     <use x="582.40625" xlink:href="#DejaVuSans-49"/>
     <use x="646.029297" xlink:href="#DejaVuSans-46"/>
     <use x="677.816406" xlink:href="#DejaVuSans-46"/>
     <use x="709.603516" xlink:href="#DejaVuSans-45"/>
     <use x="745.6875" xlink:href="#DejaVuSans-49"/>
     <use x="809.310547" xlink:href="#DejaVuSans-46"/>
     <use x="841.097656" xlink:href="#DejaVuSans-48"/>
     <use x="904.720703" xlink:href="#DejaVuSans-101"/>
     <use x="966.244141" xlink:href="#DejaVuSans-45"/>
     <use x="1002.328125" xlink:href="#DejaVuSans-52"/>
    </g>
    <!-- 5 instances -->
    <g transform="translate(60.41088 60.954904)scale(0.102 -0.102)">
     <use xlink:href="#DejaVuSans-53"/>
     <use x="63.623047" xlink:href="#DejaVuSans-32"/>
     <use x="95.410156" xlink:href="#DejaVuSans-105"/>
     <use x="123.193359" xlink:href="#DejaVuSans-110"/>
     <use x="186.572266" xlink:href="#DejaVuSans-115"/>
     <use x="238.671875" xlink:href="#DejaVuSans-116"/>
     <use x="277.880859" xlink:href="#DejaVuSans-97"/>
     <use x="339.160156" xlink:href="#DejaVuSans-110"/>
     <use x="402.539062" xlink:href="#DejaVuSans-99"/>
     <use x="457.519531" xlink:href="#DejaVuSans-101"/>
     <use x="519.042969" xlink:href="#DejaVuSans-115"/>
    </g>
   </g>
   <g id="text_19">
    <!-- v2.3.3.7 -->
    <defs>
     <path d="M 8.203125 72.90625 
L 55.078125 72.90625 
L 55.078125 68.703125 
L 28.609375 0 
L 18.3125 0 
L 43.21875 64.59375 
L 8.203125 64.59375 
z
" id="DejaVuSans-55"/>
    </defs>
    <g style="fill:#808080;" transform="translate(177.692437 294.151352)scale(0.1 -0.1)">
     <use xlink:href="#DejaVuSans-118"/>
     <use x="59.179688" xlink:href="#DejaVuSans-50"/>
     <use x="122.802734" xlink:href="#DejaVuSans-46"/>
     <use x="154.589844" xlink:href="#DejaVuSans-51"/>
     <use x="218.212891" xlink:href="#DejaVuSans-46"/>
     <use x="250" xlink:href="#DejaVuSans-51"/>
     <use x="313.623047" xlink:href="#DejaVuSans-46"/>
     <use x="345.410156" xlink:href="#DejaVuSans-55"/>
    </g>
   </g>
   <g id="text_20">
    <!-- 19 sep. Elli./Gallagher 101 -->
    <defs>
     <path d="M 9.8125 72.90625 
L 55.90625 72.90625 
L 55.90625 64.59375 
L 19.671875 64.59375 
L 19.671875 43.015625 
L 54.390625 43.015625 
L 54.390625 34.71875 
L 19.671875 34.71875 
L 19.671875 8.296875 
L 56.78125 8.296875 
L 56.78125 0 
L 9.8125 0 
z
" id="DejaVuSans-69"/>
     <path d="M 59.515625 10.40625 
L 59.515625 29.984375 
L 43.40625 29.984375 
L 43.40625 38.09375 
L 69.28125 38.09375 
L 69.28125 6.78125 
Q 63.578125 2.734375 56.6875 0.65625 
Q 49.8125 -1.421875 42 -1.421875 
Q 24.90625 -1.421875 15.25 8.5625 
Q 5.609375 18.5625 5.609375 36.375 
Q 5.609375 54.25 15.25 64.234375 
Q 24.90625 74.21875 42 74.21875 
Q 49.125 74.21875 55.546875 72.453125 
Q 61.96875 70.703125 67.390625 67.28125 
L 67.390625 56.78125 
Q 61.921875 61.421875 55.765625 63.765625 
Q 49.609375 66.109375 42.828125 66.109375 
Q 29.4375 66.109375 22.71875 58.640625 
Q 16.015625 51.171875 16.015625 36.375 
Q 16.015625 21.625 22.71875 14.15625 
Q 29.4375 6.6875 42.828125 6.6875 
Q 48.046875 6.6875 52.140625 7.59375 
Q 56.25 8.5 59.515625 10.40625 
z
" id="DejaVuSans-71"/>
     <path d="M 54.890625 33.015625 
L 54.890625 0 
L 45.90625 0 
L 45.90625 32.71875 
Q 45.90625 40.484375 42.875 44.328125 
Q 39.84375 48.1875 33.796875 48.1875 
Q 26.515625 48.1875 22.3125 43.546875 
Q 18.109375 38.921875 18.109375 30.90625 
L 18.109375 0 
L 9.078125 0 
L 9.078125 75.984375 
L 18.109375 75.984375 
L 18.109375 46.1875 
Q 21.34375 51.125 25.703125 53.5625 
Q 30.078125 56 35.796875 56 
Q 45.21875 56 50.046875 50.171875 
Q 54.890625 44.34375 54.890625 33.015625 
z
" id="DejaVuSans-104"/>
    </defs>
    <g transform="translate(66.197125 21.648)scale(0.2 -0.2)">
     <use xlink:href="#DejaVuSans-49"/>
     <use x="63.623047" xlink:href="#DejaVuSans-57"/>
     <use x="127.246094" xlink:href="#DejaVuSans-32"/>
     <use x="159.033203" xlink:href="#DejaVuSans-115"/>
     <use x="211.132812" xlink:href="#DejaVuSans-101"/>
     <use x="272.65625" xlink:href="#DejaVuSans-112"/>
     <use x="336.132812" xlink:href="#DejaVuSans-46"/>
     <use x="367.919922" xlink:href="#DejaVuSans-32"/>
     <use x="399.707031" xlink:href="#DejaVuSans-69"/>
     <use x="462.890625" xlink:href="#DejaVuSans-108"/>
     <use x="490.673828" xlink:href="#DejaVuSans-108"/>
     <use x="518.457031" xlink:href="#DejaVuSans-105"/>
     <use x="546.240234" xlink:href="#DejaVuSans-46"/>
     <use x="578.027344" xlink:href="#DejaVuSans-47"/>
     <use x="611.71875" xlink:href="#DejaVuSans-71"/>
     <use x="689.208984" xlink:href="#DejaVuSans-97"/>
     <use x="750.488281" xlink:href="#DejaVuSans-108"/>
     <use x="778.271484" xlink:href="#DejaVuSans-108"/>
     <use x="806.054688" xlink:href="#DejaVuSans-97"/>
     <use x="867.333984" xlink:href="#DejaVuSans-103"/>
     <use x="930.810547" xlink:href="#DejaVuSans-104"/>
     <use x="994.189453" xlink:href="#DejaVuSans-101"/>
     <use x="1055.712891" xlink:href="#DejaVuSans-114"/>
     <use x="1096.826172" xlink:href="#DejaVuSans-32"/>
     <use x="1128.613281" xlink:href="#DejaVuSans-49"/>
     <use x="1192.236328" xlink:href="#DejaVuSans-48"/>
     <use x="1255.859375" xlink:href="#DejaVuSans-49"/>
    </g>
   </g>
  </g>
 </g>
 <defs>
  <clipPath id="p6cc74f882d">
   <rect height="271.296" width="281.088" x="57.6" y="27.648"/>
  </clipPath>
 </defs>
</svg>
