<?xml version="1.0" encoding="utf-8" standalone="no"?>
<!DOCTYPE svg PUBLIC "-//W3C//DTD SVG 1.1//EN"
  "http://www.w3.org/Graphics/SVG/1.1/DTD/svg11.dtd">
<!-- Created with matplotlib (https://matplotlib.org/) -->
<svg height="345.6pt" version="1.1" viewBox="0 0 460.8 345.6" width="460.8pt" xmlns="http://www.w3.org/2000/svg" xmlns:xlink="http://www.w3.org/1999/xlink">
 <defs>
  <style type="text/css">
*{stroke-linecap:butt;stroke-linejoin:round;}
  </style>
 </defs>
 <g id="figure_1">
  <g id="patch_1">
   <path d="M 0 345.6 
L 460.8 345.6 
L 460.8 0 
L 0 0 
z
" style="fill:#ffffff;"/>
  </g>
  <g id="axes_1">
   <g id="patch_2">
    <path d="M 57.6 298.944 
L 338.688 298.944 
L 338.688 3.456 
L 57.6 3.456 
z
" style="fill:#ffffff;"/>
   </g>
   <g id="matplotlib.axis_1">
    <g id="xtick_1">
     <g id="line2d_1">
      <path clip-path="url(#pb6535d2cc5)" d="M 57.6 298.944 
L 57.6 3.456 
" style="fill:none;stroke:#b0b0b0;stroke-linecap:square;stroke-width:0.8;"/>
     </g>
     <g id="line2d_2">
      <defs>
       <path d="M 0 0 
L 0 3.5 
" id="ma63ab38445" style="stroke:#000000;stroke-width:0.8;"/>
      </defs>
      <g>
       <use style="stroke:#000000;stroke-width:0.8;" x="57.6" xlink:href="#ma63ab38445" y="298.944"/>
      </g>
     </g>
     <g id="text_1">
      <!-- 0 -->
      <defs>
       <path d="M 31.78125 66.40625 
Q 24.171875 66.40625 20.328125 58.90625 
Q 16.5 51.421875 16.5 36.375 
Q 16.5 21.390625 20.328125 13.890625 
Q 24.171875 6.390625 31.78125 6.390625 
Q 39.453125 6.390625 43.28125 13.890625 
Q 47.125 21.390625 47.125 36.375 
Q 47.125 51.421875 43.28125 58.90625 
Q 39.453125 66.40625 31.78125 66.40625 
z
M 31.78125 74.21875 
Q 44.046875 74.21875 50.515625 64.515625 
Q 56.984375 54.828125 56.984375 36.375 
Q 56.984375 17.96875 50.515625 8.265625 
Q 44.046875 -1.421875 31.78125 -1.421875 
Q 19.53125 -1.421875 13.0625 8.265625 
Q 6.59375 17.96875 6.59375 36.375 
Q 6.59375 54.828125 13.0625 64.515625 
Q 19.53125 74.21875 31.78125 74.21875 
z
" id="DejaVuSans-48"/>
      </defs>
      <g transform="translate(51.2375 321.140875)scale(0.2 -0.2)">
       <use xlink:href="#DejaVuSans-48"/>
      </g>
     </g>
    </g>
    <g id="xtick_2">
     <g id="line2d_3">
      <path clip-path="url(#pb6535d2cc5)" d="M 137.910857 298.944 
L 137.910857 3.456 
" style="fill:none;stroke:#b0b0b0;stroke-linecap:square;stroke-width:0.8;"/>
     </g>
     <g id="line2d_4">
      <g>
       <use style="stroke:#000000;stroke-width:0.8;" x="137.910857" xlink:href="#ma63ab38445" y="298.944"/>
      </g>
     </g>
     <g id="text_2">
      <!-- 2 -->
      <defs>
       <path d="M 19.1875 8.296875 
L 53.609375 8.296875 
L 53.609375 0 
L 7.328125 0 
L 7.328125 8.296875 
Q 12.9375 14.109375 22.625 23.890625 
Q 32.328125 33.6875 34.8125 36.53125 
Q 39.546875 41.84375 41.421875 45.53125 
Q 43.3125 49.21875 43.3125 52.78125 
Q 43.3125 58.59375 39.234375 62.25 
Q 35.15625 65.921875 28.609375 65.921875 
Q 23.96875 65.921875 18.8125 64.3125 
Q 13.671875 62.703125 7.8125 59.421875 
L 7.8125 69.390625 
Q 13.765625 71.78125 18.9375 73 
Q 24.125 74.21875 28.421875 74.21875 
Q 39.75 74.21875 46.484375 68.546875 
Q 53.21875 62.890625 53.21875 53.421875 
Q 53.21875 48.921875 51.53125 44.890625 
Q 49.859375 40.875 45.40625 35.40625 
Q 44.1875 33.984375 37.640625 27.21875 
Q 31.109375 20.453125 19.1875 8.296875 
z
" id="DejaVuSans-50"/>
      </defs>
      <g transform="translate(131.548357 321.140875)scale(0.2 -0.2)">
       <use xlink:href="#DejaVuSans-50"/>
      </g>
     </g>
    </g>
    <g id="xtick_3">
     <g id="line2d_5">
      <path clip-path="url(#pb6535d2cc5)" d="M 218.221714 298.944 
L 218.221714 3.456 
" style="fill:none;stroke:#b0b0b0;stroke-linecap:square;stroke-width:0.8;"/>
     </g>
     <g id="line2d_6">
      <g>
       <use style="stroke:#000000;stroke-width:0.8;" x="218.221714" xlink:href="#ma63ab38445" y="298.944"/>
      </g>
     </g>
     <g id="text_3">
      <!-- 4 -->
      <defs>
       <path d="M 37.796875 64.3125 
L 12.890625 25.390625 
L 37.796875 25.390625 
z
M 35.203125 72.90625 
L 47.609375 72.90625 
L 47.609375 25.390625 
L 58.015625 25.390625 
L 58.015625 17.1875 
L 47.609375 17.1875 
L 47.609375 0 
L 37.796875 0 
L 37.796875 17.1875 
L 4.890625 17.1875 
L 4.890625 26.703125 
z
" id="DejaVuSans-52"/>
      </defs>
      <g transform="translate(211.859214 321.140875)scale(0.2 -0.2)">
       <use xlink:href="#DejaVuSans-52"/>
      </g>
     </g>
    </g>
    <g id="xtick_4">
     <g id="line2d_7">
      <path clip-path="url(#pb6535d2cc5)" d="M 298.532571 298.944 
L 298.532571 3.456 
" style="fill:none;stroke:#b0b0b0;stroke-linecap:square;stroke-width:0.8;"/>
     </g>
     <g id="line2d_8">
      <g>
       <use style="stroke:#000000;stroke-width:0.8;" x="298.532571" xlink:href="#ma63ab38445" y="298.944"/>
      </g>
     </g>
     <g id="text_4">
      <!-- 6 -->
      <defs>
       <path d="M 33.015625 40.375 
Q 26.375 40.375 22.484375 35.828125 
Q 18.609375 31.296875 18.609375 23.390625 
Q 18.609375 15.53125 22.484375 10.953125 
Q 26.375 6.390625 33.015625 6.390625 
Q 39.65625 6.390625 43.53125 10.953125 
Q 47.40625 15.53125 47.40625 23.390625 
Q 47.40625 31.296875 43.53125 35.828125 
Q 39.65625 40.375 33.015625 40.375 
z
M 52.59375 71.296875 
L 52.59375 62.3125 
Q 48.875 64.0625 45.09375 64.984375 
Q 41.3125 65.921875 37.59375 65.921875 
Q 27.828125 65.921875 22.671875 59.328125 
Q 17.53125 52.734375 16.796875 39.40625 
Q 19.671875 43.65625 24.015625 45.921875 
Q 28.375 48.1875 33.59375 48.1875 
Q 44.578125 48.1875 50.953125 41.515625 
Q 57.328125 34.859375 57.328125 23.390625 
Q 57.328125 12.15625 50.6875 5.359375 
Q 44.046875 -1.421875 33.015625 -1.421875 
Q 20.359375 -1.421875 13.671875 8.265625 
Q 6.984375 17.96875 6.984375 36.375 
Q 6.984375 53.65625 15.1875 63.9375 
Q 23.390625 74.21875 37.203125 74.21875 
Q 40.921875 74.21875 44.703125 73.484375 
Q 48.484375 72.75 52.59375 71.296875 
z
" id="DejaVuSans-54"/>
      </defs>
      <g transform="translate(292.170071 321.140875)scale(0.2 -0.2)">
       <use xlink:href="#DejaVuSans-54"/>
      </g>
     </g>
    </g>
    <g id="xtick_5">
     <g id="line2d_9">
      <path clip-path="url(#pb6535d2cc5)" d="M 97.755429 298.944 
L 97.755429 3.456 
" style="fill:none;stroke:#b0b0b0;stroke-linecap:square;stroke-width:0.8;"/>
     </g>
     <g id="line2d_10">
      <defs>
       <path d="M 0 0 
L 0 2 
" id="m303807721b" style="stroke:#000000;stroke-width:0.6;"/>
      </defs>
      <g>
       <use style="stroke:#000000;stroke-width:0.6;" x="97.755429" xlink:href="#m303807721b" y="298.944"/>
      </g>
     </g>
    </g>
    <g id="xtick_6">
     <g id="line2d_11">
      <path clip-path="url(#pb6535d2cc5)" d="M 178.066286 298.944 
L 178.066286 3.456 
" style="fill:none;stroke:#b0b0b0;stroke-linecap:square;stroke-width:0.8;"/>
     </g>
     <g id="line2d_12">
      <g>
       <use style="stroke:#000000;stroke-width:0.6;" x="178.066286" xlink:href="#m303807721b" y="298.944"/>
      </g>
     </g>
    </g>
    <g id="xtick_7">
     <g id="line2d_13">
      <path clip-path="url(#pb6535d2cc5)" d="M 258.377143 298.944 
L 258.377143 3.456 
" style="fill:none;stroke:#b0b0b0;stroke-linecap:square;stroke-width:0.8;"/>
     </g>
     <g id="line2d_14">
      <g>
       <use style="stroke:#000000;stroke-width:0.6;" x="258.377143" xlink:href="#m303807721b" y="298.944"/>
      </g>
     </g>
    </g>
    <g id="xtick_8">
     <g id="line2d_15">
      <path clip-path="url(#pb6535d2cc5)" d="M 338.688 298.944 
L 338.688 3.456 
" style="fill:none;stroke:#b0b0b0;stroke-linecap:square;stroke-width:0.8;"/>
     </g>
     <g id="line2d_16">
      <g>
       <use style="stroke:#000000;stroke-width:0.6;" x="338.688" xlink:href="#m303807721b" y="298.944"/>
      </g>
     </g>
    </g>
    <g id="text_5">
     <!-- log10(# f-evals / dimension) -->
     <defs>
      <path d="M 9.421875 75.984375 
L 18.40625 75.984375 
L 18.40625 0 
L 9.421875 0 
z
" id="DejaVuSans-108"/>
      <path d="M 30.609375 48.390625 
Q 23.390625 48.390625 19.1875 42.75 
Q 14.984375 37.109375 14.984375 27.296875 
Q 14.984375 17.484375 19.15625 11.84375 
Q 23.34375 6.203125 30.609375 6.203125 
Q 37.796875 6.203125 41.984375 11.859375 
Q 46.1875 17.53125 46.1875 27.296875 
Q 46.1875 37.015625 41.984375 42.703125 
Q 37.796875 48.390625 30.609375 48.390625 
z
M 30.609375 56 
Q 42.328125 56 49.015625 48.375 
Q 55.71875 40.765625 55.71875 27.296875 
Q 55.71875 13.875 49.015625 6.21875 
Q 42.328125 -1.421875 30.609375 -1.421875 
Q 18.84375 -1.421875 12.171875 6.21875 
Q 5.515625 13.875 5.515625 27.296875 
Q 5.515625 40.765625 12.171875 48.375 
Q 18.84375 56 30.609375 56 
z
" id="DejaVuSans-111"/>
      <path d="M 45.40625 27.984375 
Q 45.40625 37.75 41.375 43.109375 
Q 37.359375 48.484375 30.078125 48.484375 
Q 22.859375 48.484375 18.828125 43.109375 
Q 14.796875 37.75 14.796875 27.984375 
Q 14.796875 18.265625 18.828125 12.890625 
Q 22.859375 7.515625 30.078125 7.515625 
Q 37.359375 7.515625 41.375 12.890625 
Q 45.40625 18.265625 45.40625 27.984375 
z
M 54.390625 6.78125 
Q 54.390625 -7.171875 48.1875 -13.984375 
Q 42 -20.796875 29.203125 -20.796875 
Q 24.46875 -20.796875 20.265625 -20.09375 
Q 16.0625 -19.390625 12.109375 -17.921875 
L 12.109375 -9.1875 
Q 16.0625 -11.328125 19.921875 -12.34375 
Q 23.78125 -13.375 27.78125 -13.375 
Q 36.625 -13.375 41.015625 -8.765625 
Q 45.40625 -4.15625 45.40625 5.171875 
L 45.40625 9.625 
Q 42.625 4.78125 38.28125 2.390625 
Q 33.9375 0 27.875 0 
Q 17.828125 0 11.671875 7.65625 
Q 5.515625 15.328125 5.515625 27.984375 
Q 5.515625 40.671875 11.671875 48.328125 
Q 17.828125 56 27.875 56 
Q 33.9375 56 38.28125 53.609375 
Q 42.625 51.21875 45.40625 46.390625 
L 45.40625 54.6875 
L 54.390625 54.6875 
z
" id="DejaVuSans-103"/>
      <path d="M 12.40625 8.296875 
L 28.515625 8.296875 
L 28.515625 63.921875 
L 10.984375 60.40625 
L 10.984375 69.390625 
L 28.421875 72.90625 
L 38.28125 72.90625 
L 38.28125 8.296875 
L 54.390625 8.296875 
L 54.390625 0 
L 12.40625 0 
z
" id="DejaVuSans-49"/>
      <path d="M 31 75.875 
Q 24.46875 64.65625 21.28125 53.65625 
Q 18.109375 42.671875 18.109375 31.390625 
Q 18.109375 20.125 21.3125 9.0625 
Q 24.515625 -2 31 -13.1875 
L 23.1875 -13.1875 
Q 15.875 -1.703125 12.234375 9.375 
Q 8.59375 20.453125 8.59375 31.390625 
Q 8.59375 42.28125 12.203125 53.3125 
Q 15.828125 64.359375 23.1875 75.875 
z
" id="DejaVuSans-40"/>
      <path d="M 51.125 44 
L 36.921875 44 
L 32.8125 27.6875 
L 47.125 27.6875 
z
M 43.796875 71.78125 
L 38.71875 51.515625 
L 52.984375 51.515625 
L 58.109375 71.78125 
L 65.921875 71.78125 
L 60.890625 51.515625 
L 76.125 51.515625 
L 76.125 44 
L 58.984375 44 
L 54.984375 27.6875 
L 70.515625 27.6875 
L 70.515625 20.21875 
L 53.078125 20.21875 
L 48 0 
L 40.1875 0 
L 45.21875 20.21875 
L 30.90625 20.21875 
L 25.875 0 
L 18.015625 0 
L 23.09375 20.21875 
L 7.71875 20.21875 
L 7.71875 27.6875 
L 24.90625 27.6875 
L 29 44 
L 13.28125 44 
L 13.28125 51.515625 
L 30.90625 51.515625 
L 35.890625 71.78125 
z
" id="DejaVuSans-35"/>
      <path id="DejaVuSans-32"/>
      <path d="M 37.109375 75.984375 
L 37.109375 68.5 
L 28.515625 68.5 
Q 23.6875 68.5 21.796875 66.546875 
Q 19.921875 64.59375 19.921875 59.515625 
L 19.921875 54.6875 
L 34.71875 54.6875 
L 34.71875 47.703125 
L 19.921875 47.703125 
L 19.921875 0 
L 10.890625 0 
L 10.890625 47.703125 
L 2.296875 47.703125 
L 2.296875 54.6875 
L 10.890625 54.6875 
L 10.890625 58.5 
Q 10.890625 67.625 15.140625 71.796875 
Q 19.390625 75.984375 28.609375 75.984375 
z
" id="DejaVuSans-102"/>
      <path d="M 4.890625 31.390625 
L 31.203125 31.390625 
L 31.203125 23.390625 
L 4.890625 23.390625 
z
" id="DejaVuSans-45"/>
      <path d="M 56.203125 29.59375 
L 56.203125 25.203125 
L 14.890625 25.203125 
Q 15.484375 15.921875 20.484375 11.0625 
Q 25.484375 6.203125 34.421875 6.203125 
Q 39.59375 6.203125 44.453125 7.46875 
Q 49.3125 8.734375 54.109375 11.28125 
L 54.109375 2.78125 
Q 49.265625 0.734375 44.1875 -0.34375 
Q 39.109375 -1.421875 33.890625 -1.421875 
Q 20.796875 -1.421875 13.15625 6.1875 
Q 5.515625 13.8125 5.515625 26.8125 
Q 5.515625 40.234375 12.765625 48.109375 
Q 20.015625 56 32.328125 56 
Q 43.359375 56 49.78125 48.890625 
Q 56.203125 41.796875 56.203125 29.59375 
z
M 47.21875 32.234375 
Q 47.125 39.59375 43.09375 43.984375 
Q 39.0625 48.390625 32.421875 48.390625 
Q 24.90625 48.390625 20.390625 44.140625 
Q 15.875 39.890625 15.1875 32.171875 
z
" id="DejaVuSans-101"/>
      <path d="M 2.984375 54.6875 
L 12.5 54.6875 
L 29.59375 8.796875 
L 46.6875 54.6875 
L 56.203125 54.6875 
L 35.6875 0 
L 23.484375 0 
z
" id="DejaVuSans-118"/>
      <path d="M 34.28125 27.484375 
Q 23.390625 27.484375 19.1875 25 
Q 14.984375 22.515625 14.984375 16.5 
Q 14.984375 11.71875 18.140625 8.90625 
Q 21.296875 6.109375 26.703125 6.109375 
Q 34.1875 6.109375 38.703125 11.40625 
Q 43.21875 16.703125 43.21875 25.484375 
L 43.21875 27.484375 
z
M 52.203125 31.203125 
L 52.203125 0 
L 43.21875 0 
L 43.21875 8.296875 
Q 40.140625 3.328125 35.546875 0.953125 
Q 30.953125 -1.421875 24.3125 -1.421875 
Q 15.921875 -1.421875 10.953125 3.296875 
Q 6 8.015625 6 15.921875 
Q 6 25.140625 12.171875 29.828125 
Q 18.359375 34.515625 30.609375 34.515625 
L 43.21875 34.515625 
L 43.21875 35.40625 
Q 43.21875 41.609375 39.140625 45 
Q 35.0625 48.390625 27.6875 48.390625 
Q 23 48.390625 18.546875 47.265625 
Q 14.109375 46.140625 10.015625 43.890625 
L 10.015625 52.203125 
Q 14.9375 54.109375 19.578125 55.046875 
Q 24.21875 56 28.609375 56 
Q 40.484375 56 46.34375 49.84375 
Q 52.203125 43.703125 52.203125 31.203125 
z
" id="DejaVuSans-97"/>
      <path d="M 44.28125 53.078125 
L 44.28125 44.578125 
Q 40.484375 46.53125 36.375 47.5 
Q 32.28125 48.484375 27.875 48.484375 
Q 21.1875 48.484375 17.84375 46.4375 
Q 14.5 44.390625 14.5 40.28125 
Q 14.5 37.15625 16.890625 35.375 
Q 19.28125 33.59375 26.515625 31.984375 
L 29.59375 31.296875 
Q 39.15625 29.25 43.1875 25.515625 
Q 47.21875 21.78125 47.21875 15.09375 
Q 47.21875 7.46875 41.1875 3.015625 
Q 35.15625 -1.421875 24.609375 -1.421875 
Q 20.21875 -1.421875 15.453125 -0.5625 
Q 10.6875 0.296875 5.421875 2 
L 5.421875 11.28125 
Q 10.40625 8.6875 15.234375 7.390625 
Q 20.0625 6.109375 24.8125 6.109375 
Q 31.15625 6.109375 34.5625 8.28125 
Q 37.984375 10.453125 37.984375 14.40625 
Q 37.984375 18.0625 35.515625 20.015625 
Q 33.0625 21.96875 24.703125 23.78125 
L 21.578125 24.515625 
Q 13.234375 26.265625 9.515625 29.90625 
Q 5.8125 33.546875 5.8125 39.890625 
Q 5.8125 47.609375 11.28125 51.796875 
Q 16.75 56 26.8125 56 
Q 31.78125 56 36.171875 55.265625 
Q 40.578125 54.546875 44.28125 53.078125 
z
" id="DejaVuSans-115"/>
      <path d="M 25.390625 72.90625 
L 33.6875 72.90625 
L 8.296875 -9.28125 
L 0 -9.28125 
z
" id="DejaVuSans-47"/>
      <path d="M 45.40625 46.390625 
L 45.40625 75.984375 
L 54.390625 75.984375 
L 54.390625 0 
L 45.40625 0 
L 45.40625 8.203125 
Q 42.578125 3.328125 38.25 0.953125 
Q 33.9375 -1.421875 27.875 -1.421875 
Q 17.96875 -1.421875 11.734375 6.484375 
Q 5.515625 14.40625 5.515625 27.296875 
Q 5.515625 40.1875 11.734375 48.09375 
Q 17.96875 56 27.875 56 
Q 33.9375 56 38.25 53.625 
Q 42.578125 51.265625 45.40625 46.390625 
z
M 14.796875 27.296875 
Q 14.796875 17.390625 18.875 11.75 
Q 22.953125 6.109375 30.078125 6.109375 
Q 37.203125 6.109375 41.296875 11.75 
Q 45.40625 17.390625 45.40625 27.296875 
Q 45.40625 37.203125 41.296875 42.84375 
Q 37.203125 48.484375 30.078125 48.484375 
Q 22.953125 48.484375 18.875 42.84375 
Q 14.796875 37.203125 14.796875 27.296875 
z
" id="DejaVuSans-100"/>
      <path d="M 9.421875 54.6875 
L 18.40625 54.6875 
L 18.40625 0 
L 9.421875 0 
z
M 9.421875 75.984375 
L 18.40625 75.984375 
L 18.40625 64.59375 
L 9.421875 64.59375 
z
" id="DejaVuSans-105"/>
      <path d="M 52 44.1875 
Q 55.375 50.25 60.0625 53.125 
Q 64.75 56 71.09375 56 
Q 79.640625 56 84.28125 50.015625 
Q 88.921875 44.046875 88.921875 33.015625 
L 88.921875 0 
L 79.890625 0 
L 79.890625 32.71875 
Q 79.890625 40.578125 77.09375 44.375 
Q 74.3125 48.1875 68.609375 48.1875 
Q 61.625 48.1875 57.5625 43.546875 
Q 53.515625 38.921875 53.515625 30.90625 
L 53.515625 0 
L 44.484375 0 
L 44.484375 32.71875 
Q 44.484375 40.625 41.703125 44.40625 
Q 38.921875 48.1875 33.109375 48.1875 
Q 26.21875 48.1875 22.15625 43.53125 
Q 18.109375 38.875 18.109375 30.90625 
L 18.109375 0 
L 9.078125 0 
L 9.078125 54.6875 
L 18.109375 54.6875 
L 18.109375 46.1875 
Q 21.1875 51.21875 25.484375 53.609375 
Q 29.78125 56 35.6875 56 
Q 41.65625 56 45.828125 52.96875 
Q 50 49.953125 52 44.1875 
z
" id="DejaVuSans-109"/>
      <path d="M 54.890625 33.015625 
L 54.890625 0 
L 45.90625 0 
L 45.90625 32.71875 
Q 45.90625 40.484375 42.875 44.328125 
Q 39.84375 48.1875 33.796875 48.1875 
Q 26.515625 48.1875 22.3125 43.546875 
Q 18.109375 38.921875 18.109375 30.90625 
L 18.109375 0 
L 9.078125 0 
L 9.078125 54.6875 
L 18.109375 54.6875 
L 18.109375 46.1875 
Q 21.34375 51.125 25.703125 53.5625 
Q 30.078125 56 35.796875 56 
Q 45.21875 56 50.046875 50.171875 
Q 54.890625 44.34375 54.890625 33.015625 
z
" id="DejaVuSans-110"/>
      <path d="M 8.015625 75.875 
L 15.828125 75.875 
Q 23.140625 64.359375 26.78125 53.3125 
Q 30.421875 42.28125 30.421875 31.390625 
Q 30.421875 20.453125 26.78125 9.375 
Q 23.140625 -1.703125 15.828125 -13.1875 
L 8.015625 -13.1875 
Q 14.5 -2 17.703125 9.0625 
Q 20.90625 20.125 20.90625 31.390625 
Q 20.90625 42.671875 17.703125 53.65625 
Q 14.5 64.65625 8.015625 75.875 
z
" id="DejaVuSans-41"/>
     </defs>
     <g transform="translate(77.303219 342.217594)scale(0.17 -0.17)">
      <use xlink:href="#DejaVuSans-108"/>
      <use x="27.783203" xlink:href="#DejaVuSans-111"/>
      <use x="88.964844" xlink:href="#DejaVuSans-103"/>
      <use x="152.441406" xlink:href="#DejaVuSans-49"/>
      <use x="216.064453" xlink:href="#DejaVuSans-48"/>
      <use x="279.6875" xlink:href="#DejaVuSans-40"/>
      <use x="318.701172" xlink:href="#DejaVuSans-35"/>
      <use x="402.490234" xlink:href="#DejaVuSans-32"/>
      <use x="434.277344" xlink:href="#DejaVuSans-102"/>
      <use x="469.404297" xlink:href="#DejaVuSans-45"/>
      <use x="505.488281" xlink:href="#DejaVuSans-101"/>
      <use x="567.011719" xlink:href="#DejaVuSans-118"/>
      <use x="626.191406" xlink:href="#DejaVuSans-97"/>
      <use x="687.470703" xlink:href="#DejaVuSans-108"/>
      <use x="715.253906" xlink:href="#DejaVuSans-115"/>
      <use x="767.353516" xlink:href="#DejaVuSans-32"/>
      <use x="799.140625" xlink:href="#DejaVuSans-47"/>
      <use x="832.832031" xlink:href="#DejaVuSans-32"/>
      <use x="864.619141" xlink:href="#DejaVuSans-100"/>
      <use x="928.095703" xlink:href="#DejaVuSans-105"/>
      <use x="955.878906" xlink:href="#DejaVuSans-109"/>
      <use x="1053.291016" xlink:href="#DejaVuSans-101"/>
      <use x="1114.814453" xlink:href="#DejaVuSans-110"/>
      <use x="1178.193359" xlink:href="#DejaVuSans-115"/>
      <use x="1230.292969" xlink:href="#DejaVuSans-105"/>
      <use x="1258.076172" xlink:href="#DejaVuSans-111"/>
      <use x="1319.257812" xlink:href="#DejaVuSans-110"/>
      <use x="1382.636719" xlink:href="#DejaVuSans-41"/>
     </g>
    </g>
   </g>
   <g id="matplotlib.axis_2">
    <g id="ytick_1">
     <g id="line2d_17">
      <path clip-path="url(#pb6535d2cc5)" d="M 57.6 298.944 
L 338.688 298.944 
" style="fill:none;stroke:#b0b0b0;stroke-linecap:square;stroke-width:0.8;"/>
     </g>
     <g id="line2d_18">
      <defs>
       <path d="M 0 0 
L -3.5 0 
" id="mf39142473b" style="stroke:#000000;stroke-width:0.8;"/>
      </defs>
      <g>
       <use style="stroke:#000000;stroke-width:0.8;" x="57.6" xlink:href="#mf39142473b" y="298.944"/>
      </g>
     </g>
     <g id="text_6">
      <!-- 0.0 -->
      <defs>
       <path d="M 10.6875 12.40625 
L 21 12.40625 
L 21 0 
L 10.6875 0 
z
" id="DejaVuSans-46"/>
      </defs>
      <g transform="translate(25.155 305.02275)scale(0.16 -0.16)">
       <use xlink:href="#DejaVuSans-48"/>
       <use x="63.623047" xlink:href="#DejaVuSans-46"/>
       <use x="95.410156" xlink:href="#DejaVuSans-48"/>
      </g>
     </g>
    </g>
    <g id="ytick_2">
     <g id="line2d_19">
      <path clip-path="url(#pb6535d2cc5)" d="M 57.6 240.431525 
L 338.688 240.431525 
" style="fill:none;stroke:#b0b0b0;stroke-linecap:square;stroke-width:0.8;"/>
     </g>
     <g id="line2d_20">
      <g>
       <use style="stroke:#000000;stroke-width:0.8;" x="57.6" xlink:href="#mf39142473b" y="240.431525"/>
      </g>
     </g>
     <g id="text_7">
      <!-- 0.2 -->
      <g transform="translate(25.155 246.510275)scale(0.16 -0.16)">
       <use xlink:href="#DejaVuSans-48"/>
       <use x="63.623047" xlink:href="#DejaVuSans-46"/>
       <use x="95.410156" xlink:href="#DejaVuSans-50"/>
      </g>
     </g>
    </g>
    <g id="ytick_3">
     <g id="line2d_21">
      <path clip-path="url(#pb6535d2cc5)" d="M 57.6 181.91905 
L 338.688 181.91905 
" style="fill:none;stroke:#b0b0b0;stroke-linecap:square;stroke-width:0.8;"/>
     </g>
     <g id="line2d_22">
      <g>
       <use style="stroke:#000000;stroke-width:0.8;" x="57.6" xlink:href="#mf39142473b" y="181.91905"/>
      </g>
     </g>
     <g id="text_8">
      <!-- 0.4 -->
      <g transform="translate(25.155 187.9978)scale(0.16 -0.16)">
       <use xlink:href="#DejaVuSans-48"/>
       <use x="63.623047" xlink:href="#DejaVuSans-46"/>
       <use x="95.410156" xlink:href="#DejaVuSans-52"/>
      </g>
     </g>
    </g>
    <g id="ytick_4">
     <g id="line2d_23">
      <path clip-path="url(#pb6535d2cc5)" d="M 57.6 123.406574 
L 338.688 123.406574 
" style="fill:none;stroke:#b0b0b0;stroke-linecap:square;stroke-width:0.8;"/>
     </g>
     <g id="line2d_24">
      <g>
       <use style="stroke:#000000;stroke-width:0.8;" x="57.6" xlink:href="#mf39142473b" y="123.406574"/>
      </g>
     </g>
     <g id="text_9">
      <!-- 0.6 -->
      <g transform="translate(25.155 129.485324)scale(0.16 -0.16)">
       <use xlink:href="#DejaVuSans-48"/>
       <use x="63.623047" xlink:href="#DejaVuSans-46"/>
       <use x="95.410156" xlink:href="#DejaVuSans-54"/>
      </g>
     </g>
    </g>
    <g id="ytick_5">
     <g id="line2d_25">
      <path clip-path="url(#pb6535d2cc5)" d="M 57.6 64.894099 
L 338.688 64.894099 
" style="fill:none;stroke:#b0b0b0;stroke-linecap:square;stroke-width:0.8;"/>
     </g>
     <g id="line2d_26">
      <g>
       <use style="stroke:#000000;stroke-width:0.8;" x="57.6" xlink:href="#mf39142473b" y="64.894099"/>
      </g>
     </g>
     <g id="text_10">
      <!-- 0.8 -->
      <defs>
       <path d="M 31.78125 34.625 
Q 24.75 34.625 20.71875 30.859375 
Q 16.703125 27.09375 16.703125 20.515625 
Q 16.703125 13.921875 20.71875 10.15625 
Q 24.75 6.390625 31.78125 6.390625 
Q 38.8125 6.390625 42.859375 10.171875 
Q 46.921875 13.96875 46.921875 20.515625 
Q 46.921875 27.09375 42.890625 30.859375 
Q 38.875 34.625 31.78125 34.625 
z
M 21.921875 38.8125 
Q 15.578125 40.375 12.03125 44.71875 
Q 8.5 49.078125 8.5 55.328125 
Q 8.5 64.0625 14.71875 69.140625 
Q 20.953125 74.21875 31.78125 74.21875 
Q 42.671875 74.21875 48.875 69.140625 
Q 55.078125 64.0625 55.078125 55.328125 
Q 55.078125 49.078125 51.53125 44.71875 
Q 48 40.375 41.703125 38.8125 
Q 48.828125 37.15625 52.796875 32.3125 
Q 56.78125 27.484375 56.78125 20.515625 
Q 56.78125 9.90625 50.3125 4.234375 
Q 43.84375 -1.421875 31.78125 -1.421875 
Q 19.734375 -1.421875 13.25 4.234375 
Q 6.78125 9.90625 6.78125 20.515625 
Q 6.78125 27.484375 10.78125 32.3125 
Q 14.796875 37.15625 21.921875 38.8125 
z
M 18.3125 54.390625 
Q 18.3125 48.734375 21.84375 45.5625 
Q 25.390625 42.390625 31.78125 42.390625 
Q 38.140625 42.390625 41.71875 45.5625 
Q 45.3125 48.734375 45.3125 54.390625 
Q 45.3125 60.0625 41.71875 63.234375 
Q 38.140625 66.40625 31.78125 66.40625 
Q 25.390625 66.40625 21.84375 63.234375 
Q 18.3125 60.0625 18.3125 54.390625 
z
" id="DejaVuSans-56"/>
      </defs>
      <g transform="translate(25.155 70.972849)scale(0.16 -0.16)">
       <use xlink:href="#DejaVuSans-48"/>
       <use x="63.623047" xlink:href="#DejaVuSans-46"/>
       <use x="95.410156" xlink:href="#DejaVuSans-56"/>
      </g>
     </g>
    </g>
    <g id="ytick_6">
     <g id="line2d_27">
      <path clip-path="url(#pb6535d2cc5)" d="M 57.6 6.381624 
L 338.688 6.381624 
" style="fill:none;stroke:#b0b0b0;stroke-linecap:square;stroke-width:0.8;"/>
     </g>
     <g id="line2d_28">
      <g>
       <use style="stroke:#000000;stroke-width:0.8;" x="57.6" xlink:href="#mf39142473b" y="6.381624"/>
      </g>
     </g>
     <g id="text_11">
      <!-- 1.0 -->
      <g transform="translate(25.155 12.460374)scale(0.16 -0.16)">
       <use xlink:href="#DejaVuSans-49"/>
       <use x="63.623047" xlink:href="#DejaVuSans-46"/>
       <use x="95.410156" xlink:href="#DejaVuSans-48"/>
      </g>
     </g>
    </g>
    <g id="text_12">
     <!-- Fraction of function,target pairs -->
     <defs>
      <path d="M 9.8125 72.90625 
L 51.703125 72.90625 
L 51.703125 64.59375 
L 19.671875 64.59375 
L 19.671875 43.109375 
L 48.578125 43.109375 
L 48.578125 34.8125 
L 19.671875 34.8125 
L 19.671875 0 
L 9.8125 0 
z
" id="DejaVuSans-70"/>
      <path d="M 41.109375 46.296875 
Q 39.59375 47.171875 37.8125 47.578125 
Q 36.03125 48 33.890625 48 
Q 26.265625 48 22.1875 43.046875 
Q 18.109375 38.09375 18.109375 28.8125 
L 18.109375 0 
L 9.078125 0 
L 9.078125 54.6875 
L 18.109375 54.6875 
L 18.109375 46.1875 
Q 20.953125 51.171875 25.484375 53.578125 
Q 30.03125 56 36.53125 56 
Q 37.453125 56 38.578125 55.875 
Q 39.703125 55.765625 41.0625 55.515625 
z
" id="DejaVuSans-114"/>
      <path d="M 48.78125 52.59375 
L 48.78125 44.1875 
Q 44.96875 46.296875 41.140625 47.34375 
Q 37.3125 48.390625 33.40625 48.390625 
Q 24.65625 48.390625 19.8125 42.84375 
Q 14.984375 37.3125 14.984375 27.296875 
Q 14.984375 17.28125 19.8125 11.734375 
Q 24.65625 6.203125 33.40625 6.203125 
Q 37.3125 6.203125 41.140625 7.25 
Q 44.96875 8.296875 48.78125 10.40625 
L 48.78125 2.09375 
Q 45.015625 0.34375 40.984375 -0.53125 
Q 36.96875 -1.421875 32.421875 -1.421875 
Q 20.0625 -1.421875 12.78125 6.34375 
Q 5.515625 14.109375 5.515625 27.296875 
Q 5.515625 40.671875 12.859375 48.328125 
Q 20.21875 56 33.015625 56 
Q 37.15625 56 41.109375 55.140625 
Q 45.0625 54.296875 48.78125 52.59375 
z
" id="DejaVuSans-99"/>
      <path d="M 18.3125 70.21875 
L 18.3125 54.6875 
L 36.8125 54.6875 
L 36.8125 47.703125 
L 18.3125 47.703125 
L 18.3125 18.015625 
Q 18.3125 11.328125 20.140625 9.421875 
Q 21.96875 7.515625 27.59375 7.515625 
L 36.8125 7.515625 
L 36.8125 0 
L 27.59375 0 
Q 17.1875 0 13.234375 3.875 
Q 9.28125 7.765625 9.28125 18.015625 
L 9.28125 47.703125 
L 2.6875 47.703125 
L 2.6875 54.6875 
L 9.28125 54.6875 
L 9.28125 70.21875 
z
" id="DejaVuSans-116"/>
      <path d="M 8.5 21.578125 
L 8.5 54.6875 
L 17.484375 54.6875 
L 17.484375 21.921875 
Q 17.484375 14.15625 20.5 10.265625 
Q 23.53125 6.390625 29.59375 6.390625 
Q 36.859375 6.390625 41.078125 11.03125 
Q 45.3125 15.671875 45.3125 23.6875 
L 45.3125 54.6875 
L 54.296875 54.6875 
L 54.296875 0 
L 45.3125 0 
L 45.3125 8.40625 
Q 42.046875 3.421875 37.71875 1 
Q 33.40625 -1.421875 27.6875 -1.421875 
Q 18.265625 -1.421875 13.375 4.4375 
Q 8.5 10.296875 8.5 21.578125 
z
M 31.109375 56 
z
" id="DejaVuSans-117"/>
      <path d="M 11.71875 12.40625 
L 22.015625 12.40625 
L 22.015625 4 
L 14.015625 -11.625 
L 7.71875 -11.625 
L 11.71875 4 
z
" id="DejaVuSans-44"/>
      <path d="M 18.109375 8.203125 
L 18.109375 -20.796875 
L 9.078125 -20.796875 
L 9.078125 54.6875 
L 18.109375 54.6875 
L 18.109375 46.390625 
Q 20.953125 51.265625 25.265625 53.625 
Q 29.59375 56 35.59375 56 
Q 45.5625 56 51.78125 48.09375 
Q 58.015625 40.1875 58.015625 27.296875 
Q 58.015625 14.40625 51.78125 6.484375 
Q 45.5625 -1.421875 35.59375 -1.421875 
Q 29.59375 -1.421875 25.265625 0.953125 
Q 20.953125 3.328125 18.109375 8.203125 
z
M 48.6875 27.296875 
Q 48.6875 37.203125 44.609375 42.84375 
Q 40.53125 48.484375 33.40625 48.484375 
Q 26.265625 48.484375 22.1875 42.84375 
Q 18.109375 37.203125 18.109375 27.296875 
Q 18.109375 17.390625 22.1875 11.75 
Q 26.265625 6.109375 33.40625 6.109375 
Q 40.53125 6.109375 44.609375 11.75 
Q 48.6875 17.390625 48.6875 27.296875 
z
" id="DejaVuSans-112"/>
     </defs>
     <g transform="translate(17.619531 286.339375)rotate(-90)scale(0.17 -0.17)">
      <use xlink:href="#DejaVuSans-70"/>
      <use x="57.410156" xlink:href="#DejaVuSans-114"/>
      <use x="98.523438" xlink:href="#DejaVuSans-97"/>
      <use x="159.802734" xlink:href="#DejaVuSans-99"/>
      <use x="214.783203" xlink:href="#DejaVuSans-116"/>
      <use x="253.992188" xlink:href="#DejaVuSans-105"/>
      <use x="281.775391" xlink:href="#DejaVuSans-111"/>
      <use x="342.957031" xlink:href="#DejaVuSans-110"/>
      <use x="406.335938" xlink:href="#DejaVuSans-32"/>
      <use x="438.123047" xlink:href="#DejaVuSans-111"/>
      <use x="499.304688" xlink:href="#DejaVuSans-102"/>
      <use x="534.509766" xlink:href="#DejaVuSans-32"/>
      <use x="566.296875" xlink:href="#DejaVuSans-102"/>
      <use x="601.501953" xlink:href="#DejaVuSans-117"/>
      <use x="664.880859" xlink:href="#DejaVuSans-110"/>
      <use x="728.259766" xlink:href="#DejaVuSans-99"/>
      <use x="783.240234" xlink:href="#DejaVuSans-116"/>
      <use x="822.449219" xlink:href="#DejaVuSans-105"/>
      <use x="850.232422" xlink:href="#DejaVuSans-111"/>
      <use x="911.414062" xlink:href="#DejaVuSans-110"/>
      <use x="974.792969" xlink:href="#DejaVuSans-44"/>
      <use x="1006.580078" xlink:href="#DejaVuSans-116"/>
      <use x="1045.789062" xlink:href="#DejaVuSans-97"/>
      <use x="1107.068359" xlink:href="#DejaVuSans-114"/>
      <use x="1148.166016" xlink:href="#DejaVuSans-103"/>
      <use x="1211.642578" xlink:href="#DejaVuSans-101"/>
      <use x="1273.166016" xlink:href="#DejaVuSans-116"/>
      <use x="1312.375" xlink:href="#DejaVuSans-32"/>
      <use x="1344.162109" xlink:href="#DejaVuSans-112"/>
      <use x="1407.638672" xlink:href="#DejaVuSans-97"/>
      <use x="1468.917969" xlink:href="#DejaVuSans-105"/>
      <use x="1496.701172" xlink:href="#DejaVuSans-114"/>
      <use x="1537.814453" xlink:href="#DejaVuSans-115"/>
     </g>
    </g>
   </g>
   <g id="line2d_29">
    <defs>
     <path d="M 0 1.5 
C 0.397805 1.5 0.77937 1.341951 1.06066 1.06066 
C 1.341951 0.77937 1.5 0.397805 1.5 0 
C 1.5 -0.397805 1.341951 -0.77937 1.06066 -1.06066 
C 0.77937 -1.341951 0.397805 -1.5 0 -1.5 
C -0.397805 -1.5 -0.77937 -1.341951 -1.06066 -1.06066 
C -1.341951 -0.77937 -1.5 -0.397805 -1.5 0 
C -1.5 0.397805 -1.341951 0.77937 -1.06066 1.06066 
C -0.77937 1.341951 -0.397805 1.5 0 1.5 
z
" id="m6e60742f89" style="stroke:#000080;"/>
    </defs>
    <g>
     <use style="fill:#000080;stroke:#000080;" x="215.989419" xlink:href="#m6e60742f89" y="74.982457"/>
     <use style="fill:#000080;stroke:#000080;" x="215.989419" xlink:href="#m6e60742f89" y="74.982457"/>
    </g>
   </g>
   <g id="line2d_30">
    <path d="M 45.512012 298.944 
L 45.512012 291.88215 
L 64.67102 291.88215 
L 64.67102 290.873314 
L 69.687988 290.873314 
L 69.687988 289.864478 
L 73.579452 289.864478 
L 73.579452 288.855642 
L 76.759008 288.855642 
L 76.759008 287.846806 
L 79.447285 287.846806 
L 79.447285 286.837971 
L 87.329581 286.837971 
L 87.329581 285.829135 
L 90.242884 285.829135 
L 90.242884 283.811463 
L 92.73846 283.811463 
L 92.73846 277.758449 
L 94.921215 277.758449 
L 94.921215 274.731941 
L 97.755429 274.731941 
L 97.755429 273.723105 
L 98.606294 273.723105 
L 98.606294 272.71427 
L 103.623262 272.71427 
L 103.623262 270.696598 
L 105.398279 270.696598 
L 105.398279 269.687762 
L 106.48859 269.687762 
L 106.48859 268.678927 
L 107.009204 268.678927 
L 107.009204 258.590569 
L 108.006005 258.590569 
L 108.006005 257.581733 
L 108.948899 257.581733 
L 108.948899 255.564061 
L 109.843417 255.564061 
L 109.843417 254.555226 
L 110.274038 254.555226 
L 110.274038 252.537554 
L 113.022974 252.537554 
L 113.022974 251.528718 
L 114.751048 251.528718 
L 114.751048 249.511047 
L 115.077025 249.511047 
L 115.077025 248.502211 
L 116.019919 248.502211 
L 116.019919 246.484539 
L 116.914437 246.484539 
L 116.914437 245.475704 
L 117.202696 245.475704 
L 117.202696 244.466868 
L 117.486268 244.466868 
L 117.486268 243.458032 
L 117.765302 243.458032 
L 117.765302 242.449196 
L 119.351785 242.449196 
L 119.351785 241.440361 
L 119.602714 241.440361 
L 119.602714 239.422689 
L 122.362027 239.422689 
L 122.362027 237.405017 
L 124.743806 237.405017 
L 124.743806 236.396182 
L 125.470548 236.396182 
L 125.470548 235.387346 
L 125.822869 235.387346 
L 125.822869 232.360839 
L 126.50685 232.360839 
L 126.50685 231.352003 
L 127.325746 231.352003 
L 127.325746 229.334331 
L 127.642832 229.334331 
L 127.642832 228.325495 
L 127.799239 228.325495 
L 127.799239 226.307824 
L 128.560901 226.307824 
L 128.560901 225.298988 
L 129.433047 225.298988 
L 129.433047 218.237138 
L 130.796184 218.237138 
L 130.796184 204.113437 
L 131.185181 204.113437 
L 131.185181 203.104601 
L 131.938072 203.104601 
L 131.938072 201.086929 
L 132.659801 201.086929 
L 132.659801 199.069258 
L 133.352844 199.069258 
L 133.352844 198.060422 
L 139.964909 198.060422 
L 139.964909 195.033915 
L 140.272217 195.033915 
L 140.272217 194.025079 
L 140.499195 194.025079 
L 140.499195 192.007407 
L 141.307054 192.007407 
L 141.307054 189.989736 
L 141.45 189.989736 
L 141.45 188.9809 
L 141.80232 188.9809 
L 141.80232 187.972064 
L 144.209312 187.972064 
L 144.269971 183.936721 
L 144.45069 183.936721 
L 144.45069 181.91905 
L 144.806606 181.91905 
L 144.806606 180.910214 
L 145.097753 180.910214 
L 145.097753 179.901378 
L 146.377764 179.901378 
L 146.377764 177.883706 
L 148.354135 177.883706 
L 148.40198 174.857199 
L 148.497276 174.857199 
L 148.497276 172.839527 
L 148.780082 172.839527 
L 148.780082 171.830692 
L 149.15016 171.830692 
L 149.15016 169.81302 
L 149.512548 169.81302 
L 149.512548 167.795349 
L 150.808139 167.795349 
L 150.808139 166.786513 
L 151.260066 166.786513 
L 151.260066 165.777677 
L 153.250915 165.777677 
L 153.323128 162.75117 
L 155.647315 162.75117 
L 155.647315 161.742334 
L 155.990803 161.742334 
L 155.990803 159.724662 
L 157.58535 159.724662 
L 157.58535 158.715827 
L 157.809652 158.715827 
L 157.809652 157.706991 
L 158.492562 157.706991 
L 158.492562 156.698155 
L 161.26102 156.698155 
L 161.26102 155.689319 
L 162.238764 155.689319 
L 162.238764 154.680483 
L 164.843488 154.680483 
L 164.843488 152.662812 
L 165.284547 152.662812 
L 165.284547 151.653976 
L 166.578233 151.653976 
L 166.578233 150.64514 
L 166.74592 150.64514 
L 166.74592 149.636305 
L 167.513144 149.636305 
L 167.513144 148.627469 
L 168.9532 148.627469 
L 168.9532 147.618633 
L 169.431813 147.618633 
L 169.431813 146.609797 
L 169.560096 146.609797 
L 169.560096 144.592126 
L 169.701534 144.592126 
L 169.701534 143.58329 
L 170.647393 143.58329 
L 170.647393 142.574454 
L 171.276376 142.574454 
L 171.276376 140.556783 
L 174.065485 140.556783 
L 174.065485 138.539111 
L 174.541525 138.539111 
L 174.541525 137.530275 
L 177.499105 137.530275 
L 177.499105 136.521439 
L 179.593145 136.521439 
L 179.593145 135.512604 
L 179.70463 135.512604 
L 179.70463 133.494932 
L 179.886249 133.494932 
L 179.886249 132.486096 
L 180.343674 132.486096 
L 180.343674 131.47726 
L 180.848977 131.47726 
L 180.848977 129.459589 
L 181.114555 129.459589 
L 181.114555 128.450753 
L 181.519801 128.450753 
L 181.519801 127.441917 
L 181.711874 127.441917 
L 181.711874 126.433082 
L 182.973917 126.433082 
L 183.046156 124.41541 
L 183.765139 124.41541 
L 183.765139 123.406574 
L 184.206035 123.406574 
L 184.206035 121.388903 
L 185.810104 121.388903 
L 185.810104 120.380067 
L 188.43755 120.380067 
L 188.43755 119.371231 
L 189.609598 119.371231 
L 189.609598 118.362395 
L 190.817282 118.362395 
L 190.884308 115.335888 
L 191.087987 115.335888 
L 191.170442 111.300545 
L 191.374891 111.300545 
L 191.476223 106.256366 
L 191.828302 106.256366 
L 191.828302 105.24753 
L 193.059191 105.24753 
L 193.059191 104.238694 
L 193.986343 104.238694 
L 193.986343 103.229859 
L 194.181236 103.229859 
L 194.181236 102.221023 
L 195.900231 102.221023 
L 195.900231 101.212187 
L 197.401698 101.212187 
L 197.401698 100.203351 
L 197.979005 100.203351 
L 197.979005 99.194516 
L 198.698814 99.194516 
L 198.698814 98.18568 
L 199.191281 98.18568 
L 199.191281 97.176844 
L 201.762688 97.176844 
L 201.762688 95.159172 
L 202.000809 95.159172 
L 202.000809 93.141501 
L 202.827449 93.141501 
L 202.827449 91.123829 
L 204.177712 91.123829 
L 204.177712 89.106158 
L 204.414115 89.106158 
L 204.414115 88.097322 
L 205.738644 88.097322 
L 205.738644 87.088486 
L 205.98134 87.088486 
L 205.98134 86.07965 
L 206.244982 86.07965 
L 206.244982 85.070815 
L 207.74188 85.070815 
L 207.74188 83.053143 
L 209.239008 83.053143 
L 209.239008 82.044307 
L 209.554306 82.044307 
L 209.554306 81.035471 
L 211.316881 81.035471 
L 211.316881 79.0178 
L 213.877544 79.0178 
L 213.877544 77.000128 
L 215.522389 77.000128 
L 215.522389 75.991293 
L 215.989419 75.991293 
L 215.989419 74.982457 
L 338.688 74.982457 
L 338.688 74.982457 
" style="fill:none;stroke:#000080;stroke-linecap:square;stroke-width:1.5;"/>
   </g>
   <g id="line2d_31">
    <defs>
     <path d="M 0 6 
C 1.591219 6 3.117479 5.367802 4.242641 4.242641 
C 5.367802 3.117479 6 1.591219 6 0 
C 6 -1.591219 5.367802 -3.117479 4.242641 -4.242641 
C 3.117479 -5.367802 1.591219 -6 0 -6 
C -1.591219 -6 -3.117479 -5.367802 -4.242641 -4.242641 
C -5.367802 -3.117479 -6 -1.591219 -6 0 
C -6 1.591219 -5.367802 3.117479 -4.242641 4.242641 
C -3.117479 5.367802 -1.591219 6 0 6 
z
" id="m36ad0642f9" style="stroke:#000080;stroke-width:1.5;"/>
    </defs>
    <g>
     <use style="fill-opacity:0;stroke:#000080;stroke-width:1.5;" x="127.642832" xlink:href="#m36ad0642f9" y="228.325495"/>
     <use style="fill-opacity:0;stroke:#000080;stroke-width:1.5;" x="153.250915" xlink:href="#m36ad0642f9" y="163.760005"/>
     <use style="fill-opacity:0;stroke:#000080;stroke-width:1.5;" x="209.239008" xlink:href="#m36ad0642f9" y="83.053143"/>
     <use style="fill-opacity:0;stroke:#000080;stroke-width:1.5;" x="215.989419" xlink:href="#m36ad0642f9" y="74.982457"/>
     <use style="fill-opacity:0;stroke:#000080;stroke-width:1.5;" x="215.989419" xlink:href="#m36ad0642f9" y="74.982457"/>
     <use style="fill-opacity:0;stroke:#000080;stroke-width:1.5;" x="338.688" xlink:href="#m36ad0642f9" y="74.982457"/>
    </g>
   </g>
   <g id="line2d_32">
    <path style="fill:none;stroke:#000080;stroke-linecap:square;stroke-width:1.5;"/>
    <g/>
   </g>
   <g id="line2d_33">
    <path clip-path="url(#pb6535d2cc5)" d="M 216.388178 74.982457 
" style="fill:none;stroke:#000080;stroke-linecap:square;stroke-width:1.5;"/>
    <defs>
     <path d="M -12 12 
L 12 -12 
M -12 -12 
L 12 12 
" id="mab92891f8b" style="stroke:#000080;"/>
    </defs>
    <g clip-path="url(#pb6535d2cc5)">
     <use style="fill:#000080;stroke:#000080;" x="216.388178" xlink:href="#mab92891f8b" y="74.982457"/>
    </g>
   </g>
   <g id="line2d_34">
    <defs>
     <path d="M 0 1.5 
C 0.397805 1.5 0.77937 1.341951 1.06066 1.06066 
C 1.341951 0.77937 1.5 0.397805 1.5 0 
C 1.5 -0.397805 1.341951 -0.77937 1.06066 -1.06066 
C 0.77937 -1.341951 0.397805 -1.5 0 -1.5 
C -0.397805 -1.5 -0.77937 -1.341951 -1.06066 -1.06066 
C -1.341951 -0.77937 -1.5 -0.397805 -1.5 0 
C -1.5 0.397805 -1.341951 0.77937 -1.06066 1.06066 
C -0.77937 1.341951 -0.397805 1.5 0 1.5 
z
" id="me3867fde1b" style="stroke:#ff00ff;"/>
    </defs>
    <g>
     <use style="fill:#ff00ff;stroke:#ff00ff;" x="215.131219" xlink:href="#me3867fde1b" y="83.053143"/>
     <use style="fill:#ff00ff;stroke:#ff00ff;" x="215.131219" xlink:href="#me3867fde1b" y="83.053143"/>
    </g>
   </g>
   <g id="line2d_35">
    <path d="M 45.512012 298.944 
L 45.512012 292.890985 
L 92.73846 292.890985 
L 92.73846 290.873314 
L 104.23523 290.873314 
L 104.23523 289.864478 
L 109.843417 289.864478 
L 109.843417 288.855642 
L 110.274038 288.855642 
L 110.274038 286.837971 
L 110.694282 286.837971 
L 110.694282 268.678927 
L 115.711251 268.678927 
L 115.711251 267.670091 
L 116.621333 267.670091 
L 116.621333 266.661255 
L 117.486268 266.661255 
L 117.486268 265.652419 
L 118.039942 265.652419 
L 118.039942 264.643583 
L 119.602714 264.643583 
L 119.602714 261.617076 
L 119.850084 261.617076 
L 119.850084 257.581733 
L 120.093994 257.581733 
L 120.093994 256.572897 
L 120.8059 256.572897 
L 120.8059 255.564061 
L 122.148045 255.564061 
L 122.148045 254.555226 
L 122.362027 254.555226 
L 122.362027 252.537554 
L 122.782271 252.537554 
L 122.782271 250.519883 
L 124.178158 250.519883 
L 124.178158 248.502211 
L 124.557288 248.502211 
L 124.557288 246.484539 
L 124.92835 246.484539 
L 124.92835 244.466868 
L 125.110962 244.466868 
L 125.110962 243.458032 
L 125.996395 243.458032 
L 125.996395 242.449196 
L 126.50685 242.449196 
L 126.50685 241.440361 
L 127.325746 241.440361 
L 127.325746 239.422689 
L 127.48501 239.422689 
L 127.48501 236.396182 
L 127.799239 236.396182 
L 127.799239 235.387346 
L 128.260216 235.387346 
L 128.260216 234.37851 
L 128.411207 234.37851 
L 128.411207 229.334331 
L 128.560901 229.334331 
L 128.560901 227.31666 
L 129.002426 227.31666 
L 129.002426 224.290152 
L 129.147151 224.290152 
L 129.147151 222.272481 
L 130.127931 222.272481 
L 130.127931 221.263645 
L 130.664567 221.263645 
L 130.664567 218.237138 
L 131.938072 218.237138 
L 131.938072 217.228302 
L 136.170062 217.228302 
L 136.170062 215.21063 
L 138.170504 215.21063 
L 138.170504 213.192959 
L 140.195896 213.192959 
L 140.195896 212.184123 
L 143.778691 212.184123 
L 143.778691 210.166451 
L 143.902815 210.166451 
L 143.964547 208.14878 
L 145.270136 208.14878 
L 145.270136 206.131108 
L 145.777292 206.131108 
L 145.777292 204.113437 
L 146.324022 204.113437 
L 146.324022 202.095765 
L 148.40198 202.095765 
L 148.40198 201.086929 
L 148.780082 201.086929 
L 148.780082 200.078094 
L 149.467659 200.078094 
L 149.467659 199.069258 
L 151.13797 199.069258 
L 151.13797 198.060422 
L 153.750233 198.060422 
L 153.750233 197.051586 
L 154.54072 197.051586 
L 154.54072 195.033915 
L 159.532469 195.033915 
L 159.532469 194.025079 
L 160.537682 194.025079 
L 160.537682 193.016243 
L 161.510643 193.016243 
L 161.510643 192.007407 
L 162.999872 192.007407 
L 162.999872 189.989736 
L 164.86209 189.989736 
L 164.86209 187.972064 
L 165.483031 187.972064 
L 165.483031 186.963228 
L 166.030537 186.963228 
L 166.08262 183.936721 
L 166.679039 183.936721 
L 166.679039 181.91905 
L 166.945039 181.91905 
L 166.945039 179.901378 
L 167.384913 179.901378 
L 167.384913 178.892542 
L 167.560988 178.892542 
L 167.560988 177.883706 
L 168.354881 177.883706 
L 168.354881 176.874871 
L 169.099626 176.874871 
L 169.201398 174.857199 
L 169.503198 174.857199 
L 169.503198 172.839527 
L 170.105336 172.839527 
L 170.105336 171.830692 
L 170.242438 171.830692 
L 170.242438 170.821856 
L 170.567151 170.821856 
L 170.567151 169.81302 
L 170.833202 169.81302 
L 170.885928 166.786513 
L 170.990905 166.786513 
L 171.095254 164.768841 
L 171.54458 164.768841 
L 171.54458 163.760005 
L 172.301041 163.760005 
L 172.301041 162.75117 
L 175.687696 162.75117 
L 175.687696 160.733498 
L 178.530902 160.733498 
L 178.530902 159.724662 
L 180.616999 159.724662 
L 180.616999 158.715827 
L 180.989647 158.715827 
L 180.989647 156.698155 
L 183.157214 156.698155 
L 183.157214 155.689319 
L 183.569083 155.689319 
L 183.588153 152.662812 
L 183.721061 152.662812 
L 183.721061 151.653976 
L 185.618894 151.653976 
L 185.618894 150.64514 
L 186.414741 150.64514 
L 186.414741 149.636305 
L 187.805641 149.636305 
L 187.855453 145.600961 
L 188.018831 145.600961 
L 188.018831 144.592126 
L 188.624171 144.592126 
L 188.624171 141.565618 
L 188.907435 141.565618 
L 188.907435 139.547947 
L 191.383019 139.547947 
L 191.383019 138.539111 
L 192.813877 138.539111 
L 192.873665 135.512604 
L 195.650711 135.512604 
L 195.650711 133.494932 
L 196.819506 133.494932 
L 196.828429 131.47726 
L 197.061763 131.47726 
L 197.061763 130.468425 
L 198.642632 130.468425 
L 198.642632 129.459589 
L 199.466936 129.459589 
L 199.466936 127.441917 
L 199.720676 127.441917 
L 199.743333 125.424246 
L 199.953387 125.424246 
L 200.00055 123.406574 
L 200.064884 123.406574 
L 200.087098 119.371231 
L 200.192843 119.371231 
L 200.192843 117.35356 
L 200.67404 117.35356 
L 200.67404 115.335888 
L 201.039855 115.335888 
L 201.12838 112.309381 
L 202.253159 112.309381 
L 202.329242 109.282873 
L 202.396354 109.282873 
L 202.396354 108.274038 
L 202.630297 108.274038 
L 202.645215 105.24753 
L 203.541969 105.24753 
L 203.541969 104.238694 
L 204.824962 104.238694 
L 204.824962 103.229859 
L 205.0045 103.229859 
L 205.0045 101.212187 
L 205.115779 101.212187 
L 205.115779 100.203351 
L 206.814353 100.203351 
L 206.898011 95.159172 
L 207.108715 95.159172 
L 207.108715 94.150337 
L 208.978748 94.150337 
L 208.978748 93.141501 
L 209.517 93.141501 
L 209.517 92.132665 
L 209.670021 92.132665 
L 209.716945 89.106158 
L 210.233215 89.106158 
L 210.233215 87.088486 
L 210.401963 87.088486 
L 210.401963 86.07965 
L 212.467389 86.07965 
L 212.467389 85.070815 
L 212.833433 85.070815 
L 212.833433 84.061979 
L 215.131219 84.061979 
L 215.131219 83.053143 
L 338.688 83.053143 
L 338.688 83.053143 
" style="fill:none;stroke:#ff00ff;stroke-linecap:square;stroke-width:1.5;"/>
   </g>
   <g id="line2d_36">
    <defs>
     <path d="M 0 8.485281 
L 5.091169 0 
L 0 -8.485281 
L -5.091169 0 
z
" id="mcaabee478c" style="stroke:#ff00ff;stroke-linejoin:miter;stroke-width:1.5;"/>
    </defs>
    <g>
     <use style="fill-opacity:0;stroke:#ff00ff;stroke-linejoin:miter;stroke-width:1.5;" x="116.621333" xlink:href="#mcaabee478c" y="267.670091"/>
     <use style="fill-opacity:0;stroke:#ff00ff;stroke-linejoin:miter;stroke-width:1.5;" x="168.354881" xlink:href="#mcaabee478c" y="177.883706"/>
     <use style="fill-opacity:0;stroke:#ff00ff;stroke-linejoin:miter;stroke-width:1.5;" x="205.115779" xlink:href="#mcaabee478c" y="100.203351"/>
     <use style="fill-opacity:0;stroke:#ff00ff;stroke-linejoin:miter;stroke-width:1.5;" x="215.131219" xlink:href="#mcaabee478c" y="83.053143"/>
     <use style="fill-opacity:0;stroke:#ff00ff;stroke-linejoin:miter;stroke-width:1.5;" x="215.131219" xlink:href="#mcaabee478c" y="83.053143"/>
     <use style="fill-opacity:0;stroke:#ff00ff;stroke-linejoin:miter;stroke-width:1.5;" x="338.688" xlink:href="#mcaabee478c" y="83.053143"/>
    </g>
   </g>
   <g id="line2d_37">
    <path style="fill:none;stroke:#ff00ff;stroke-linecap:square;stroke-width:1.5;"/>
    <g/>
   </g>
   <g id="line2d_38">
    <path clip-path="url(#pb6535d2cc5)" d="M 216.388178 83.053143 
" style="fill:none;stroke:#ff00ff;stroke-linecap:square;stroke-width:1.5;"/>
    <defs>
     <path d="M -12 12 
L 12 -12 
M -12 -12 
L 12 12 
" id="mefcc58c922" style="stroke:#ff00ff;"/>
    </defs>
    <g clip-path="url(#pb6535d2cc5)">
     <use style="fill:#ff00ff;stroke:#ff00ff;" x="216.388178" xlink:href="#mefcc58c922" y="83.053143"/>
    </g>
   </g>
   <g id="line2d_39">
    <defs>
     <path d="M 0 1.5 
C 0.397805 1.5 0.77937 1.341951 1.06066 1.06066 
C 1.341951 0.77937 1.5 0.397805 1.5 0 
C 1.5 -0.397805 1.341951 -0.77937 1.06066 -1.06066 
C 0.77937 -1.341951 0.397805 -1.5 0 -1.5 
C -0.397805 -1.5 -0.77937 -1.341951 -1.06066 -1.06066 
C -1.341951 -0.77937 -1.5 -0.397805 -1.5 0 
C -1.5 0.397805 -1.341951 0.77937 -1.06066 1.06066 
C -0.77937 1.341951 -0.397805 1.5 0 1.5 
z
" id="m2555c706c2" style="stroke:#ffa500;"/>
    </defs>
    <g>
     <use style="fill:#ffa500;stroke:#ffa500;" x="214.994308" xlink:href="#m2555c706c2" y="53.796905"/>
     <use style="fill:#ffa500;stroke:#ffa500;" x="214.994308" xlink:href="#m2555c706c2" y="53.796905"/>
    </g>
   </g>
   <g id="line2d_40">
    <path d="M 45.512012 298.944 
L 45.512012 283.811463 
L 69.687988 283.811463 
L 69.687988 279.77612 
L 73.579452 279.77612 
L 73.579452 274.731941 
L 79.447285 274.731941 
L 79.447285 273.723105 
L 81.775977 273.723105 
L 81.775977 272.71427 
L 85.66744 272.71427 
L 85.66744 268.678927 
L 90.242884 268.678927 
L 90.242884 267.670091 
L 93.863965 267.670091 
L 93.863965 266.661255 
L 94.921215 266.661255 
L 94.921215 263.634748 
L 95.918017 263.634748 
L 95.918017 262.625912 
L 97.755429 262.625912 
L 97.755429 261.617076 
L 98.606294 261.617076 
L 98.606294 259.599405 
L 100.934985 259.599405 
L 100.934985 249.511047 
L 104.23523 249.511047 
L 104.23523 247.493375 
L 105.398279 247.493375 
L 105.398279 242.449196 
L 105.951954 242.449196 
L 105.951954 235.387346 
L 106.48859 235.387346 
L 106.48859 234.37851 
L 108.948899 234.37851 
L 108.948899 233.369674 
L 110.694282 233.369674 
L 110.694282 229.334331 
L 111.104637 229.334331 
L 111.104637 226.307824 
L 113.73488 226.307824 
L 113.73488 225.298988 
L 114.080224 225.298988 
L 114.080224 223.281316 
L 115.077025 223.281316 
L 115.077025 222.272481 
L 117.202696 222.272481 
L 117.202696 220.254809 
L 117.486268 220.254809 
L 117.486268 218.237138 
L 117.765302 218.237138 
L 117.765302 215.21063 
L 118.039942 215.21063 
L 118.039942 214.201794 
L 119.097192 214.201794 
L 119.097192 212.184123 
L 119.351785 212.184123 
L 119.351785 210.166451 
L 119.850084 210.166451 
L 119.850084 208.14878 
L 120.33454 208.14878 
L 120.33454 207.139944 
L 122.573415 207.139944 
L 122.573415 197.051586 
L 122.988655 197.051586 
L 122.988655 196.04275 
L 123.593547 196.04275 
L 123.593547 194.025079 
L 125.291682 194.025079 
L 125.291682 193.016243 
L 125.996395 193.016243 
L 125.996395 190.998572 
L 126.168212 190.998572 
L 126.168212 189.989736 
L 126.673734 189.989736 
L 126.673734 184.945557 
L 127.48501 184.945557 
L 127.48501 181.91905 
L 128.107907 181.91905 
L 128.107907 180.910214 
L 130.664567 180.910214 
L 130.664567 177.883706 
L 132.181982 177.883706 
L 132.181982 176.874871 
L 133.239232 176.874871 
L 133.239232 175.866035 
L 133.352844 175.866035 
L 133.352844 174.857199 
L 133.800029 174.857199 
L 133.800029 170.821856 
L 136.170062 170.821856 
L 136.170062 169.81302 
L 137.910857 169.81302 
L 137.910857 168.804184 
L 138.927025 168.804184 
L 138.927025 166.786513 
L 140.348205 166.786513 
L 140.348205 165.777677 
L 142.419098 165.777677 
L 142.419098 164.768841 
L 150.215485 164.768841 
L 150.215485 162.75117 
L 151.501723 162.75117 
L 151.501723 160.733498 
L 151.660987 160.733498 
L 151.660987 159.724662 
L 151.858043 159.724662 
L 151.858043 157.706991 
L 152.0141 157.706991 
L 152.0141 156.698155 
L 152.662192 156.698155 
L 152.662192 154.680483 
L 152.848312 154.680483 
L 152.848312 153.671648 
L 153.715038 153.671648 
L 153.715038 152.662812 
L 156.297301 152.662812 
L 156.297301 150.64514 
L 156.835778 150.64514 
L 156.894595 146.609797 
L 158.168101 146.609797 
L 158.168101 145.600961 
L 160.176607 145.600961 
L 160.176607 144.592126 
L 160.346039 144.592126 
L 160.346039 143.58329 
L 160.609008 143.58329 
L 160.703658 139.547947 
L 161.306672 139.547947 
L 161.306672 137.530275 
L 161.999419 137.530275 
L 161.999419 135.512604 
L 162.410793 135.512604 
L 162.410793 134.503768 
L 162.665696 134.503768 
L 162.665696 133.494932 
L 163.748975 133.494932 
L 163.748975 131.47726 
L 164.75018 131.47726 
L 164.843488 128.450753 
L 164.973287 128.450753 
L 164.973287 127.441917 
L 165.732422 127.441917 
L 165.732422 126.433082 
L 165.9084 126.433082 
L 165.9084 124.41541 
L 166.08262 124.41541 
L 166.08262 123.406574 
L 166.391896 123.406574 
L 166.391896 122.397738 
L 167.84533 122.397738 
L 167.84533 121.388903 
L 168.385289 121.388903 
L 168.385289 120.380067 
L 169.114201 120.380067 
L 169.114201 119.371231 
L 172.482136 119.371231 
L 172.482136 118.362395 
L 173.026049 118.362395 
L 173.026049 116.344724 
L 173.417442 116.344724 
L 173.417442 115.335888 
L 173.699729 115.335888 
L 173.699729 113.318216 
L 174.240098 113.318216 
L 174.240098 112.309381 
L 175.20127 112.309381 
L 175.20127 111.300545 
L 175.876553 111.300545 
L 175.876553 110.291709 
L 176.791327 110.291709 
L 176.791327 109.282873 
L 178.057564 109.282873 
L 178.057564 107.265202 
L 179.783827 107.265202 
L 179.839052 104.238694 
L 180.997019 104.238694 
L 180.997019 102.221023 
L 181.47683 102.221023 
L 181.47683 100.203351 
L 182.567792 100.203351 
L 182.567792 98.18568 
L 182.762047 98.18568 
L 182.762047 97.176844 
L 183.31926 97.176844 
L 183.31926 96.168008 
L 183.441416 96.168008 
L 183.498982 93.141501 
L 183.575442 93.141501 
L 183.575442 91.123829 
L 184.826458 91.123829 
L 184.826458 89.106158 
L 186.131524 89.106158 
L 186.131524 87.088486 
L 186.31179 87.088486 
L 186.31179 86.07965 
L 187.880306 86.07965 
L 187.880306 85.070815 
L 189.167728 85.070815 
L 189.167728 84.061979 
L 191.484305 84.061979 
L 191.484305 83.053143 
L 191.859959 83.053143 
L 191.919162 81.035471 
L 192.335747 81.035471 
L 192.335747 78.008964 
L 192.951826 78.008964 
L 192.951826 77.000128 
L 193.268311 77.000128 
L 193.268311 75.991293 
L 193.810471 75.991293 
L 193.810471 73.973621 
L 195.637981 73.973621 
L 195.637981 71.955949 
L 197.286225 71.955949 
L 197.286225 70.947114 
L 200.785778 70.947114 
L 200.785778 68.929442 
L 201.04686 68.929442 
L 201.04686 67.920606 
L 204.087738 67.920606 
L 204.175761 65.902935 
L 204.284684 65.902935 
L 204.284684 63.885263 
L 206.396808 63.885263 
L 206.396808 61.867592 
L 207.674959 61.867592 
L 207.775245 58.841084 
L 208.170717 58.841084 
L 208.170717 57.832249 
L 211.327242 57.832249 
L 211.327242 56.823413 
L 212.49284 56.823413 
L 212.49284 54.805741 
L 214.994308 54.805741 
L 214.994308 53.796905 
L 338.688 53.796905 
L 338.688 53.796905 
" style="fill:none;stroke:#ffa500;stroke-linecap:square;stroke-width:1.5;"/>
   </g>
   <g id="line2d_41">
    <defs>
     <path d="M 0 -6 
L -1.347084 -1.854102 
L -5.706339 -1.854102 
L -2.179628 0.708204 
L -3.526712 4.854102 
L -0 2.291796 
L 3.526712 4.854102 
L 2.179628 0.708204 
L 5.706339 -1.854102 
L 1.347084 -1.854102 
z
" id="ma4b8c31fe9" style="stroke:#ffa500;stroke-linejoin:bevel;stroke-width:1.5;"/>
    </defs>
    <g>
     <use style="fill-opacity:0;stroke:#ffa500;stroke-linejoin:bevel;stroke-width:1.5;" x="81.775977" xlink:href="#ma4b8c31fe9" y="272.71427"/>
     <use style="fill-opacity:0;stroke:#ffa500;stroke-linejoin:bevel;stroke-width:1.5;" x="133.800029" xlink:href="#ma4b8c31fe9" y="170.821856"/>
     <use style="fill-opacity:0;stroke:#ffa500;stroke-linejoin:bevel;stroke-width:1.5;" x="175.876553" xlink:href="#ma4b8c31fe9" y="110.291709"/>
     <use style="fill-opacity:0;stroke:#ffa500;stroke-linejoin:bevel;stroke-width:1.5;" x="214.994308" xlink:href="#ma4b8c31fe9" y="54.805741"/>
     <use style="fill-opacity:0;stroke:#ffa500;stroke-linejoin:bevel;stroke-width:1.5;" x="214.994308" xlink:href="#ma4b8c31fe9" y="53.796905"/>
     <use style="fill-opacity:0;stroke:#ffa500;stroke-linejoin:bevel;stroke-width:1.5;" x="338.688" xlink:href="#ma4b8c31fe9" y="53.796905"/>
    </g>
   </g>
   <g id="line2d_42">
    <path style="fill:none;stroke:#ffa500;stroke-linecap:square;stroke-width:1.5;"/>
    <g/>
   </g>
   <g id="line2d_43">
    <path clip-path="url(#pb6535d2cc5)" d="M 216.391083 53.796905 
" style="fill:none;stroke:#ffa500;stroke-linecap:square;stroke-width:1.5;"/>
    <defs>
     <path d="M -12 12 
L 12 -12 
M -12 -12 
L 12 12 
" id="m957d0454d4" style="stroke:#ffa500;"/>
    </defs>
    <g clip-path="url(#pb6535d2cc5)">
     <use style="fill:#ffa500;stroke:#ffa500;" x="216.391083" xlink:href="#m957d0454d4" y="53.796905"/>
    </g>
   </g>
   <g id="line2d_44">
    <path d="M 338.688 83.053143 
L 369.60768 293.092752 
" style="fill:none;stroke:#ff00ff;stroke-linecap:square;stroke-width:1.5;"/>
    <g>
     <use style="fill-opacity:0;stroke:#ff00ff;stroke-linejoin:miter;stroke-width:1.5;" x="338.688" xlink:href="#mcaabee478c" y="83.053143"/>
     <use style="fill-opacity:0;stroke:#ff00ff;stroke-linejoin:miter;stroke-width:1.5;" x="369.60768" xlink:href="#mcaabee478c" y="293.092752"/>
    </g>
   </g>
   <g id="line2d_45">
    <path d="M 338.688 74.982457 
L 369.60768 152.662812 
" style="fill:none;stroke:#000080;stroke-linecap:square;stroke-width:1.5;"/>
    <g>
     <use style="fill-opacity:0;stroke:#000080;stroke-width:1.5;" x="338.688" xlink:href="#m36ad0642f9" y="74.982457"/>
     <use style="fill-opacity:0;stroke:#000080;stroke-width:1.5;" x="369.60768" xlink:href="#m36ad0642f9" y="152.662812"/>
    </g>
   </g>
   <g id="line2d_46">
    <path d="M 338.688 53.796905 
L 369.60768 12.232871 
" style="fill:none;stroke:#ffa500;stroke-linecap:square;stroke-width:1.5;"/>
    <g>
     <use style="fill-opacity:0;stroke:#ffa500;stroke-linejoin:bevel;stroke-width:1.5;" x="338.688" xlink:href="#ma4b8c31fe9" y="53.796905"/>
     <use style="fill-opacity:0;stroke:#ffa500;stroke-linejoin:bevel;stroke-width:1.5;" x="369.60768" xlink:href="#ma4b8c31fe9" y="12.232871"/>
    </g>
   </g>
   <g id="line2d_47">
    <path d="M 338.688 298.944 
L 338.688 6.381624 
" style="fill:none;stroke:#000000;stroke-linecap:square;stroke-width:1.5;"/>
   </g>
   <g id="patch_3">
    <path d="M 57.6 298.944 
L 57.6 3.456 
" style="fill:none;stroke:#000000;stroke-linecap:square;stroke-linejoin:miter;stroke-width:0.8;"/>
   </g>
   <g id="patch_4">
    <path d="M 338.688 298.944 
L 338.688 3.456 
" style="fill:none;stroke:#000000;stroke-linecap:square;stroke-linejoin:miter;stroke-width:0.8;"/>
   </g>
   <g id="patch_5">
    <path d="M 57.6 298.944 
L 338.688 298.944 
" style="fill:none;stroke:#000000;stroke-linecap:square;stroke-linejoin:miter;stroke-width:0.8;"/>
   </g>
   <g id="patch_6">
    <path d="M 57.6 3.456 
L 338.688 3.456 
" style="fill:none;stroke:#000000;stroke-linecap:square;stroke-linejoin:miter;stroke-width:0.8;"/>
   </g>
   <g id="text_13">
    <!-- f21 -->
    <g transform="translate(375.22944 297.78369)scale(0.17 -0.17)">
     <use xlink:href="#DejaVuSans-102"/>
     <use x="35.205078" xlink:href="#DejaVuSans-50"/>
     <use x="98.828125" xlink:href="#DejaVuSans-49"/>
    </g>
   </g>
   <g id="text_14">
    <!-- f20 -->
    <g transform="translate(375.22944 157.353749)scale(0.17 -0.17)">
     <use xlink:href="#DejaVuSans-102"/>
     <use x="35.205078" xlink:href="#DejaVuSans-50"/>
     <use x="98.828125" xlink:href="#DejaVuSans-48"/>
    </g>
   </g>
   <g id="text_15">
    <!-- f28 -->
    <g transform="translate(375.22944 16.923809)scale(0.17 -0.17)">
     <use xlink:href="#DejaVuSans-102"/>
     <use x="35.205078" xlink:href="#DejaVuSans-50"/>
     <use x="98.828125" xlink:href="#DejaVuSans-56"/>
    </g>
   </g>
   <g id="text_16">
    <!-- bbob-biobj -->
    <defs>
     <path d="M 48.6875 27.296875 
Q 48.6875 37.203125 44.609375 42.84375 
Q 40.53125 48.484375 33.40625 48.484375 
Q 26.265625 48.484375 22.1875 42.84375 
Q 18.109375 37.203125 18.109375 27.296875 
Q 18.109375 17.390625 22.1875 11.75 
Q 26.265625 6.109375 33.40625 6.109375 
Q 40.53125 6.109375 44.609375 11.75 
Q 48.6875 17.390625 48.6875 27.296875 
z
M 18.109375 46.390625 
Q 20.953125 51.265625 25.265625 53.625 
Q 29.59375 56 35.59375 56 
Q 45.5625 56 51.78125 48.09375 
Q 58.015625 40.1875 58.015625 27.296875 
Q 58.015625 14.40625 51.78125 6.484375 
Q 45.5625 -1.421875 35.59375 -1.421875 
Q 29.59375 -1.421875 25.265625 0.953125 
Q 20.953125 3.328125 18.109375 8.203125 
L 18.109375 0 
L 9.078125 0 
L 9.078125 75.984375 
L 18.109375 75.984375 
z
" id="DejaVuSans-98"/>
     <path d="M 9.421875 54.6875 
L 18.40625 54.6875 
L 18.40625 -0.984375 
Q 18.40625 -11.421875 14.421875 -16.109375 
Q 10.453125 -20.796875 1.609375 -20.796875 
L -1.8125 -20.796875 
L -1.8125 -13.1875 
L 0.59375 -13.1875 
Q 5.71875 -13.1875 7.5625 -10.8125 
Q 9.421875 -8.453125 9.421875 -0.984375 
z
M 9.421875 75.984375 
L 18.40625 75.984375 
L 18.40625 64.59375 
L 9.421875 64.59375 
z
" id="DejaVuSans-106"/>
    </defs>
    <g transform="translate(60.41088 14.161286)scale(0.102 -0.102)">
     <use xlink:href="#DejaVuSans-98"/>
     <use x="63.476562" xlink:href="#DejaVuSans-98"/>
     <use x="126.953125" xlink:href="#DejaVuSans-111"/>
     <use x="188.134766" xlink:href="#DejaVuSans-98"/>
     <use x="251.611328" xlink:href="#DejaVuSans-45"/>
     <use x="287.695312" xlink:href="#DejaVuSans-98"/>
     <use x="351.171875" xlink:href="#DejaVuSans-105"/>
     <use x="378.955078" xlink:href="#DejaVuSans-111"/>
     <use x="440.136719" xlink:href="#DejaVuSans-98"/>
     <use x="503.613281" xlink:href="#DejaVuSans-106"/>
    </g>
    <!-- 2-moderate 2-moderate, 2-D -->
    <defs>
     <path d="M 19.671875 64.796875 
L 19.671875 8.109375 
L 31.59375 8.109375 
Q 46.6875 8.109375 53.6875 14.9375 
Q 60.6875 21.78125 60.6875 36.53125 
Q 60.6875 51.171875 53.6875 57.984375 
Q 46.6875 64.796875 31.59375 64.796875 
z
M 9.8125 72.90625 
L 30.078125 72.90625 
Q 51.265625 72.90625 61.171875 64.09375 
Q 71.09375 55.28125 71.09375 36.53125 
Q 71.09375 17.671875 61.125 8.828125 
Q 51.171875 0 30.078125 0 
L 9.8125 0 
z
" id="DejaVuSans-68"/>
    </defs>
    <g transform="translate(60.41088 25.583055)scale(0.102 -0.102)">
     <use xlink:href="#DejaVuSans-50"/>
     <use x="63.623047" xlink:href="#DejaVuSans-45"/>
     <use x="99.707031" xlink:href="#DejaVuSans-109"/>
     <use x="197.119141" xlink:href="#DejaVuSans-111"/>
     <use x="258.300781" xlink:href="#DejaVuSans-100"/>
     <use x="321.777344" xlink:href="#DejaVuSans-101"/>
     <use x="383.300781" xlink:href="#DejaVuSans-114"/>
     <use x="424.414062" xlink:href="#DejaVuSans-97"/>
     <use x="485.693359" xlink:href="#DejaVuSans-116"/>
     <use x="524.902344" xlink:href="#DejaVuSans-101"/>
     <use x="586.425781" xlink:href="#DejaVuSans-32"/>
     <use x="618.212891" xlink:href="#DejaVuSans-50"/>
     <use x="681.835938" xlink:href="#DejaVuSans-45"/>
     <use x="717.919922" xlink:href="#DejaVuSans-109"/>
     <use x="815.332031" xlink:href="#DejaVuSans-111"/>
     <use x="876.513672" xlink:href="#DejaVuSans-100"/>
     <use x="939.990234" xlink:href="#DejaVuSans-101"/>
     <use x="1001.513672" xlink:href="#DejaVuSans-114"/>
     <use x="1042.626953" xlink:href="#DejaVuSans-97"/>
     <use x="1103.90625" xlink:href="#DejaVuSans-116"/>
     <use x="1143.115234" xlink:href="#DejaVuSans-101"/>
     <use x="1204.638672" xlink:href="#DejaVuSans-44"/>
     <use x="1236.425781" xlink:href="#DejaVuSans-32"/>
     <use x="1268.212891" xlink:href="#DejaVuSans-50"/>
     <use x="1331.835938" xlink:href="#DejaVuSans-45"/>
     <use x="1367.919922" xlink:href="#DejaVuSans-68"/>
    </g>
    <!-- 58 targets: 1..-1.0e-4 -->
    <defs>
     <path d="M 10.796875 72.90625 
L 49.515625 72.90625 
L 49.515625 64.59375 
L 19.828125 64.59375 
L 19.828125 46.734375 
Q 21.96875 47.46875 24.109375 47.828125 
Q 26.265625 48.1875 28.421875 48.1875 
Q 40.625 48.1875 47.75 41.5 
Q 54.890625 34.8125 54.890625 23.390625 
Q 54.890625 11.625 47.5625 5.09375 
Q 40.234375 -1.421875 26.90625 -1.421875 
Q 22.3125 -1.421875 17.546875 -0.640625 
Q 12.796875 0.140625 7.71875 1.703125 
L 7.71875 11.625 
Q 12.109375 9.234375 16.796875 8.0625 
Q 21.484375 6.890625 26.703125 6.890625 
Q 35.15625 6.890625 40.078125 11.328125 
Q 45.015625 15.765625 45.015625 23.390625 
Q 45.015625 31 40.078125 35.4375 
Q 35.15625 39.890625 26.703125 39.890625 
Q 22.75 39.890625 18.8125 39.015625 
Q 14.890625 38.140625 10.796875 36.28125 
z
" id="DejaVuSans-53"/>
     <path d="M 11.71875 12.40625 
L 22.015625 12.40625 
L 22.015625 0 
L 11.71875 0 
z
M 11.71875 51.703125 
L 22.015625 51.703125 
L 22.015625 39.3125 
L 11.71875 39.3125 
z
" id="DejaVuSans-58"/>
    </defs>
    <g transform="translate(60.41088 37.004824)scale(0.102 -0.102)">
     <use xlink:href="#DejaVuSans-53"/>
     <use x="63.623047" xlink:href="#DejaVuSans-56"/>
     <use x="127.246094" xlink:href="#DejaVuSans-32"/>
     <use x="159.033203" xlink:href="#DejaVuSans-116"/>
     <use x="198.242188" xlink:href="#DejaVuSans-97"/>
     <use x="259.521484" xlink:href="#DejaVuSans-114"/>
     <use x="300.619141" xlink:href="#DejaVuSans-103"/>
     <use x="364.095703" xlink:href="#DejaVuSans-101"/>
     <use x="425.619141" xlink:href="#DejaVuSans-116"/>
     <use x="464.828125" xlink:href="#DejaVuSans-115"/>
     <use x="516.927734" xlink:href="#DejaVuSans-58"/>
     <use x="550.619141" xlink:href="#DejaVuSans-32"/>
     <use x="582.40625" xlink:href="#DejaVuSans-49"/>
     <use x="646.029297" xlink:href="#DejaVuSans-46"/>
     <use x="677.816406" xlink:href="#DejaVuSans-46"/>
     <use x="709.603516" xlink:href="#DejaVuSans-45"/>
     <use x="745.6875" xlink:href="#DejaVuSans-49"/>
     <use x="809.310547" xlink:href="#DejaVuSans-46"/>
     <use x="841.097656" xlink:href="#DejaVuSans-48"/>
     <use x="904.720703" xlink:href="#DejaVuSans-101"/>
     <use x="966.244141" xlink:href="#DejaVuSans-45"/>
     <use x="1002.328125" xlink:href="#DejaVuSans-52"/>
    </g>
    <!-- 5 instances -->
    <g transform="translate(60.41088 48.426593)scale(0.102 -0.102)">
     <use xlink:href="#DejaVuSans-53"/>
     <use x="63.623047" xlink:href="#DejaVuSans-32"/>
     <use x="95.410156" xlink:href="#DejaVuSans-105"/>
     <use x="123.193359" xlink:href="#DejaVuSans-110"/>
     <use x="186.572266" xlink:href="#DejaVuSans-115"/>
     <use x="238.671875" xlink:href="#DejaVuSans-116"/>
     <use x="277.880859" xlink:href="#DejaVuSans-97"/>
     <use x="339.160156" xlink:href="#DejaVuSans-110"/>
     <use x="402.539062" xlink:href="#DejaVuSans-99"/>
     <use x="457.519531" xlink:href="#DejaVuSans-101"/>
     <use x="519.042969" xlink:href="#DejaVuSans-115"/>
    </g>
   </g>
   <g id="text_17">
    <!-- v2.3.3.7 -->
    <defs>
     <path d="M 40.578125 39.3125 
Q 47.65625 37.796875 51.625 33 
Q 55.609375 28.21875 55.609375 21.1875 
Q 55.609375 10.40625 48.1875 4.484375 
Q 40.765625 -1.421875 27.09375 -1.421875 
Q 22.515625 -1.421875 17.65625 -0.515625 
Q 12.796875 0.390625 7.625 2.203125 
L 7.625 11.71875 
Q 11.71875 9.328125 16.59375 8.109375 
Q 21.484375 6.890625 26.8125 6.890625 
Q 36.078125 6.890625 40.9375 10.546875 
Q 45.796875 14.203125 45.796875 21.1875 
Q 45.796875 27.640625 41.28125 31.265625 
Q 36.765625 34.90625 28.71875 34.90625 
L 20.21875 34.90625 
L 20.21875 43.015625 
L 29.109375 43.015625 
Q 36.375 43.015625 40.234375 45.921875 
Q 44.09375 48.828125 44.09375 54.296875 
Q 44.09375 59.90625 40.109375 62.90625 
Q 36.140625 65.921875 28.71875 65.921875 
Q 24.65625 65.921875 20.015625 65.03125 
Q 15.375 64.15625 9.8125 62.3125 
L 9.8125 71.09375 
Q 15.4375 72.65625 20.34375 73.4375 
Q 25.25 74.21875 29.59375 74.21875 
Q 40.828125 74.21875 47.359375 69.109375 
Q 53.90625 64.015625 53.90625 55.328125 
Q 53.90625 49.265625 50.4375 45.09375 
Q 46.96875 40.921875 40.578125 39.3125 
z
" id="DejaVuSans-51"/>
     <path d="M 8.203125 72.90625 
L 55.078125 72.90625 
L 55.078125 68.703125 
L 28.609375 0 
L 18.3125 0 
L 43.21875 64.59375 
L 8.203125 64.59375 
z
" id="DejaVuSans-55"/>
    </defs>
    <g style="fill:#808080;" transform="translate(177.692437 293.909432)scale(0.1 -0.1)">
     <use xlink:href="#DejaVuSans-118"/>
     <use x="59.179688" xlink:href="#DejaVuSans-50"/>
     <use x="122.802734" xlink:href="#DejaVuSans-46"/>
     <use x="154.589844" xlink:href="#DejaVuSans-51"/>
     <use x="218.212891" xlink:href="#DejaVuSans-46"/>
     <use x="250" xlink:href="#DejaVuSans-51"/>
     <use x="313.623047" xlink:href="#DejaVuSans-46"/>
     <use x="345.410156" xlink:href="#DejaVuSans-55"/>
    </g>
   </g>
  </g>
 </g>
 <defs>
  <clipPath id="pb6535d2cc5">
   <rect height="295.488" width="281.088" x="57.6" y="3.456"/>
  </clipPath>
 </defs>
</svg>
