<?xml version="1.0" encoding="utf-8" standalone="no"?>
<!DOCTYPE svg PUBLIC "-//W3C//DTD SVG 1.1//EN"
  "http://www.w3.org/Graphics/SVG/1.1/DTD/svg11.dtd">
<!-- Created with matplotlib (http://matplotlib.org/) -->
<svg height="407pt" version="1.1" viewBox="0 0 460 407" width="460pt" xmlns="http://www.w3.org/2000/svg" xmlns:xlink="http://www.w3.org/1999/xlink">
 <defs>
  <style type="text/css">
*{stroke-linecap:butt;stroke-linejoin:round;stroke-miterlimit:100000;}
  </style>
 </defs>
 <g id="figure_1">
  <g id="patch_1">
   <path d="M 0 407.7125 
L 460.8 407.7125 
L 460.8 0 
L 0 0 
z
" style="fill:#ffffff;"/>
  </g>
  <g id="axes_1">
   <g id="patch_2">
    <path d="M 7.2 352.8 
L 453.6 352.8 
L 453.6 7.2 
L 7.2 7.2 
z
" style="fill:#ffffff;"/>
   </g>
   <g id="line2d_1">
    <path clip-path="url(#pb84f6690f5)" d="M -1 333.790099 
L 3.320919 333.790099 
L 3.320919 322.384158 
L 4.044107 322.384158 
L 4.044107 310.978218 
L 7.079401 310.978218 
L 7.105079 52.443564 
L 15.480417 52.443564 
L 15.480417 51.176238 
L 15.984466 51.176238 
L 15.984466 49.908911 
L 17.962177 49.908911 
L 17.962177 48.641584 
L 19.040305 48.641584 
L 19.040305 47.374257 
L 20.115859 47.374257 
L 20.115859 46.106931 
L 20.471071 46.106931 
L 20.532304 43.572277 
L 25.707716 43.572277 
L 25.707716 42.30495 
L 26.316977 42.30495 
L 26.316977 41.037624 
L 26.945505 41.037624 
L 26.945505 39.770297 
L 27.518214 39.770297 
L 27.518214 38.50297 
L 28.00674 38.50297 
L 28.00674 37.235644 
L 28.595894 37.235644 
L 28.595894 35.968317 
L 30.028956 35.968317 
L 30.028956 34.70099 
L 31.874574 34.70099 
L 31.874574 33.433663 
L 34.03855 33.433663 
L 34.03855 32.166337 
L 34.234494 32.166337 
L 34.234494 30.89901 
L 35.105581 30.89901 
L 35.105581 29.631683 
L 37.207777 29.631683 
L 37.207777 28.364356 
L 37.770981 28.364356 
L 37.770981 27.09703 
L 37.970364 27.09703 
L 37.970364 25.829703 
L 38.194623 25.829703 
L 38.194623 24.562376 
L 39.339015 24.562376 
L 39.339015 23.29505 
L 39.818572 23.29505 
L 39.818572 22.027723 
L 42.566612 22.027723 
L 42.566612 20.760396 
L 43.38743 20.760396 
L 43.38743 19.493069 
L 45.577412 19.493069 
L 45.577412 18.225743 
L 48.32399 18.225743 
L 48.32399 16.958416 
L 52.836992 16.958416 
L 52.836992 15.691089 
L 61.061327 15.691089 
L 61.061327 14.423762 
L 66.800884 14.423762 
L 66.800884 13.156436 
L 70.484628 13.156436 
L 70.484628 11.889109 
L 71.968855 11.889109 
L 71.968855 10.621782 
L 71.968855 10.621782 
L 453.6 10.621782 
L 453.6 10.621782 
" style="fill:none;stroke:#ff0000;stroke-linecap:square;stroke-width:3.0;"/>
   </g>
   <g id="line2d_2">
    <path clip-path="url(#pb84f6690f5)" d="M 233.042503 352.8 
L 233.042503 351.532673 
L 257.308883 351.532673 
L 257.308883 350.265347 
L 261.975592 350.265347 
L 261.975592 348.99802 
L 262.180706 348.99802 
L 262.180706 347.730693 
L 265.044378 347.730693 
L 265.044378 346.463366 
L 265.378684 346.463366 
L 265.378684 345.19604 
L 265.642574 345.19604 
L 265.642574 343.928713 
L 267.655951 343.928713 
L 267.655951 342.661386 
L 269.79068 342.661386 
L 269.79068 341.394059 
L 271.695767 341.394059 
L 271.695767 340.126733 
L 273.557957 340.126733 
L 273.557957 338.859406 
L 273.711713 338.859406 
L 273.711713 337.592079 
L 273.900154 337.592079 
L 273.900154 336.324752 
L 274.452105 336.324752 
L 274.452105 335.057426 
L 274.587273 335.057426 
L 274.587273 333.790099 
L 274.965411 333.790099 
L 274.965411 332.522772 
L 275.709301 332.522772 
L 275.709301 331.255446 
L 276.228642 331.255446 
L 276.228642 329.988119 
L 276.407225 329.988119 
L 276.407225 328.720792 
L 276.797901 328.720792 
L 276.879093 326.186139 
L 276.954884 326.186139 
L 276.982305 323.651485 
L 277.16369 323.651485 
L 277.266983 321.116832 
L 277.333663 321.116832 
L 277.432408 222.265347 
L 277.506363 222.265347 
L 277.574586 219.730693 
L 277.824922 219.730693 
L 277.895898 217.19604 
L 277.992402 217.19604 
L 277.992402 215.928713 
L 278.221277 215.928713 
L 278.281324 213.394059 
L 278.350984 213.394059 
L 278.456971 210.859406 
L 278.475947 210.859406 
L 278.579614 207.057426 
L 278.684053 207.057426 
L 278.73197 201.988119 
L 278.840677 201.988119 
L 278.91572 198.186139 
L 279.006153 198.186139 
L 279.114707 191.849505 
L 279.164928 191.849505 
L 279.164928 190.582178 
L 279.299948 190.582178 
L 279.361439 185.512871 
L 279.41448 185.512871 
L 279.497125 182.978218 
L 279.527113 182.978218 
L 279.564905 180.443564 
L 279.666974 180.443564 
L 279.752712 176.641584 
L 279.836795 176.641584 
L 279.908212 172.839604 
L 279.9611 172.839604 
L 279.9611 171.572277 
L 280.154499 171.572277 
L 280.208244 167.770297 
L 280.332992 167.770297 
L 280.376511 162.70099 
L 280.465142 162.70099 
L 280.51661 158.89901 
L 280.639728 158.89901 
L 280.702517 151.29505 
L 280.784599 151.29505 
L 280.883473 147.493069 
L 280.933551 147.493069 
L 280.933551 146.225743 
L 281.081353 146.225743 
L 281.081353 144.958416 
L 281.217217 144.958416 
L 281.268796 139.889109 
L 281.375782 139.889109 
L 281.423251 136.087129 
L 281.513872 136.087129 
L 281.606606 129.750495 
L 281.907621 129.750495 
L 281.907621 128.483168 
L 282.041864 128.483168 
L 282.041864 127.215842 
L 282.356136 127.215842 
L 282.356136 125.948515 
L 282.633882 125.948515 
L 282.633882 124.681188 
L 378.203229 124.681188 
L 378.203229 123.413861 
L 400.522535 123.413861 
L 400.522535 122.146535 
L 406.472768 122.146535 
L 406.472768 120.879208 
L 407.024843 120.879208 
L 407.024843 119.611881 
L 409.112585 119.611881 
L 409.112585 118.344554 
L 413.569245 118.344554 
L 413.569245 117.077228 
L 418.076271 117.077228 
L 418.076271 115.809901 
L 418.360097 115.809901 
L 418.360097 114.542574 
L 420.616331 114.542574 
L 420.616331 113.275248 
L 423.493326 113.275248 
L 423.493326 112.007921 
L 424.161132 112.007921 
L 424.161132 110.740594 
L 425.572843 110.740594 
L 425.572843 109.473267 
L 425.777555 109.473267 
L 425.777555 108.205941 
L 426.55017 108.205941 
L 426.55017 106.938614 
L 426.694371 106.938614 
L 426.694371 105.671287 
L 428.358908 105.671287 
L 428.358908 104.40396 
L 429.493584 104.40396 
L 429.493584 103.136634 
L 430.454561 103.136634 
L 430.454561 101.869307 
L 430.653399 101.869307 
L 430.653399 100.60198 
L 431.438499 100.60198 
L 431.438499 99.334653 
L 432.001565 99.334653 
L 432.109312 96.8 
L 432.712405 96.8 
L 432.712405 95.532673 
L 433.101016 95.532673 
L 433.101016 94.265347 
L 435.098947 94.265347 
L 435.098947 92.99802 
L 435.398944 92.99802 
L 435.503346 89.19604 
L 435.566359 89.19604 
L 435.566359 87.928713 
L 435.724449 87.928713 
L 435.724449 86.661386 
L 436.321528 86.661386 
L 436.340259 84.126733 
L 436.566253 84.126733 
L 436.566253 82.859406 
L 437.036106 82.859406 
L 437.036106 81.592079 
L 437.326433 81.592079 
L 437.326433 80.324752 
L 437.437555 80.324752 
L 437.437555 79.057426 
L 437.811022 79.057426 
L 437.811022 77.790099 
L 438.617701 77.790099 
L 438.662228 75.255446 
L 438.960225 75.255446 
L 439.033097 70.186139 
L 439.122473 70.186139 
L 439.122473 68.918812 
L 439.2773 68.918812 
L 439.345174 65.116832 
L 439.454511 65.116832 
L 439.454511 63.849505 
L 439.851638 63.849505 
L 439.913708 61.314851 
L 439.962749 61.314851 
L 439.962749 60.047525 
L 440.098414 60.047525 
L 440.203296 53.710891 
L 440.414849 53.710891 
L 440.482926 49.908911 
L 440.688857 49.908911 
L 440.709359 47.374257 
L 440.826135 47.374257 
L 440.826135 46.106931 
L 440.952384 46.106931 
L 440.952384 44.839604 
L 441.115726 44.839604 
L 441.138455 42.30495 
L 441.362065 42.30495 
L 441.362065 41.037624 
L 441.502639 41.037624 
L 441.598332 38.50297 
L 441.646203 38.50297 
L 441.720296 34.70099 
L 441.776428 34.70099 
L 441.776428 33.433663 
L 442.060649 33.433663 
L 442.105827 30.89901 
L 442.177502 30.89901 
L 442.177502 29.631683 
L 442.44674 29.631683 
L 442.494292 27.09703 
L 442.591048 27.09703 
L 442.591048 25.829703 
L 442.831617 25.829703 
L 442.831617 24.562376 
L 443.030458 24.562376 
L 443.039006 22.027723 
L 443.350327 22.027723 
L 443.350327 20.760396 
L 443.51995 20.760396 
L 443.51995 19.493069 
L 443.649504 19.493069 
L 443.649504 18.225743 
L 443.985755 18.225743 
L 443.985755 16.958416 
L 444.109387 16.958416 
L 444.12944 14.423762 
L 444.365854 14.423762 
L 444.365854 13.156436 
L 444.5077 13.156436 
L 444.611136 10.621782 
L 444.611136 10.621782 
L 453.6 10.621782 
L 453.6 10.621782 
" style="fill:none;stroke:#00bfbf;stroke-linecap:square;"/>
   </g>
   <g id="line2d_3">
    <path clip-path="url(#pb84f6690f5)" d="M 233.042502 352.8 
L 233.042502 351.532673 
L 257.308883 351.532673 
L 257.308883 350.265347 
L 261.975592 350.265347 
L 261.975592 348.99802 
L 262.180706 348.99802 
L 262.180706 347.730693 
L 265.044378 347.730693 
L 265.044378 346.463366 
L 265.378684 346.463366 
L 265.378684 345.19604 
L 265.642574 345.19604 
L 265.642574 343.928713 
L 267.655951 343.928713 
L 267.655951 342.661386 
L 269.79068 342.661386 
L 269.79068 341.394059 
L 271.695767 341.394059 
L 271.695767 340.126733 
L 273.557957 340.126733 
L 273.557957 338.859406 
L 273.711713 338.859406 
L 273.711713 337.592079 
L 273.900154 337.592079 
L 273.900154 336.324752 
L 274.452105 336.324752 
L 274.452105 335.057426 
L 274.587273 335.057426 
L 274.587273 333.790099 
L 274.965411 333.790099 
L 274.965411 332.522772 
L 275.709301 332.522772 
L 275.709301 331.255446 
L 276.228642 331.255446 
L 276.228642 329.988119 
L 276.407225 329.988119 
L 276.407225 328.720792 
L 276.797901 328.720792 
L 276.879093 326.186139 
L 276.954884 326.186139 
L 276.982305 323.651485 
L 277.16369 323.651485 
L 277.266983 321.116832 
L 277.333663 321.116832 
L 277.432408 222.265347 
L 277.506363 222.265347 
L 277.574586 219.730693 
L 277.824922 219.730693 
L 277.895898 217.19604 
L 277.992402 217.19604 
L 277.992402 215.928713 
L 278.221277 215.928713 
L 278.281324 213.394059 
L 278.350984 213.394059 
L 278.456971 210.859406 
L 278.475947 210.859406 
L 278.579614 207.057426 
L 278.684053 207.057426 
L 278.73197 201.988119 
L 278.840677 201.988119 
L 278.91572 198.186139 
L 279.006153 198.186139 
L 279.114707 191.849505 
L 279.164928 191.849505 
L 279.164928 190.582178 
L 279.299948 190.582178 
L 279.361439 185.512871 
L 279.41448 185.512871 
L 279.497125 182.978218 
L 279.527113 182.978218 
L 279.564905 180.443564 
L 279.666974 180.443564 
L 279.752712 176.641584 
L 279.836795 176.641584 
L 279.908212 172.839604 
L 279.9611 172.839604 
L 279.9611 171.572277 
L 280.154499 171.572277 
L 280.208244 167.770297 
L 280.332992 167.770297 
L 280.376511 162.70099 
L 280.465142 162.70099 
L 280.51661 158.89901 
L 280.639728 158.89901 
L 280.702517 151.29505 
L 280.784599 151.29505 
L 280.883473 147.493069 
L 280.933551 147.493069 
L 280.933551 146.225743 
L 281.081353 146.225743 
L 281.081353 144.958416 
L 281.217217 144.958416 
L 281.268796 139.889109 
L 281.375782 139.889109 
L 281.423251 136.087129 
L 281.513872 136.087129 
L 281.606606 129.750495 
L 281.907621 129.750495 
L 281.907621 128.483168 
L 282.041864 128.483168 
L 282.041864 127.215842 
L 282.356136 127.215842 
L 282.356136 125.948515 
L 282.633882 125.948515 
L 282.633882 124.681188 
L 378.203229 124.681188 
L 378.203229 123.413861 
L 400.522535 123.413861 
L 400.522535 122.146535 
L 406.472768 122.146535 
L 406.472768 120.879208 
L 407.024843 120.879208 
L 407.024843 119.611881 
L 409.112585 119.611881 
L 409.112585 118.344554 
L 413.569245 118.344554 
L 413.569245 117.077228 
L 418.076271 117.077228 
L 418.076271 115.809901 
L 418.360097 115.809901 
L 418.360097 114.542574 
L 420.616331 114.542574 
L 420.616331 113.275248 
L 423.493326 113.275248 
L 423.493326 112.007921 
L 424.161132 112.007921 
L 424.161132 110.740594 
L 425.572843 110.740594 
L 425.572843 109.473267 
L 425.777555 109.473267 
L 425.777555 108.205941 
L 426.55017 108.205941 
L 426.55017 106.938614 
L 426.694371 106.938614 
L 426.694371 105.671287 
L 428.358908 105.671287 
L 428.358908 104.40396 
L 429.493584 104.40396 
L 429.493584 103.136634 
L 430.454561 103.136634 
L 430.454561 101.869307 
L 430.653399 101.869307 
L 430.653399 100.60198 
L 431.438499 100.60198 
L 431.438499 99.334653 
L 432.001565 99.334653 
L 432.109312 96.8 
L 432.712405 96.8 
L 432.712405 95.532673 
L 433.101016 95.532673 
L 433.101016 94.265347 
L 435.098947 94.265347 
L 435.098947 92.99802 
L 435.398944 92.99802 
L 435.503346 89.19604 
L 435.566359 89.19604 
L 435.566359 87.928713 
L 435.724449 87.928713 
L 435.724449 86.661386 
L 436.321528 86.661386 
L 436.340259 84.126733 
L 436.566253 84.126733 
L 436.566253 82.859406 
L 437.036106 82.859406 
L 437.036106 81.592079 
L 437.326433 81.592079 
L 437.326433 80.324752 
L 437.437555 80.324752 
L 437.437555 79.057426 
L 437.811022 79.057426 
L 437.811022 77.790099 
L 438.617701 77.790099 
L 438.662228 75.255446 
L 438.960225 75.255446 
L 439.033097 70.186139 
L 439.122473 70.186139 
L 439.122473 68.918812 
L 439.2773 68.918812 
L 439.345174 65.116832 
L 439.454511 65.116832 
L 439.454511 63.849505 
L 439.851638 63.849505 
L 439.913708 61.314851 
L 439.962749 61.314851 
L 439.962749 60.047525 
L 440.098414 60.047525 
L 440.203296 53.710891 
L 440.414849 53.710891 
L 440.482926 49.908911 
L 440.688857 49.908911 
L 440.709359 47.374257 
L 440.826135 47.374257 
L 440.826135 46.106931 
L 440.952384 46.106931 
L 440.952384 44.839604 
L 441.115726 44.839604 
L 441.138455 42.30495 
L 441.362065 42.30495 
L 441.362065 41.037624 
L 441.502639 41.037624 
L 441.598332 38.50297 
L 441.646203 38.50297 
L 441.720296 34.70099 
L 441.776428 34.70099 
L 441.776428 33.433663 
L 442.060649 33.433663 
L 442.105827 30.89901 
L 442.177502 30.89901 
L 442.177502 29.631683 
L 442.44674 29.631683 
L 442.494292 27.09703 
L 442.591048 27.09703 
L 442.591048 25.829703 
L 442.831617 25.829703 
L 442.831617 24.562376 
L 443.030458 24.562376 
L 443.039006 22.027723 
L 443.350327 22.027723 
L 443.350327 20.760396 
L 443.51995 20.760396 
L 443.51995 19.493069 
L 443.649504 19.493069 
L 443.649504 18.225743 
L 443.985755 18.225743 
L 443.985755 16.958416 
L 444.109387 16.958416 
L 444.12944 14.423762 
L 444.365854 14.423762 
L 444.365854 13.156436 
L 444.5077 13.156436 
L 444.611136 10.621782 
L 444.611136 10.621782 
L 453.6 10.621782 
L 453.6 10.621782 
" style="fill:none;stroke:#bf00bf;stroke-linecap:square;"/>
   </g>
   <g id="line2d_4">
    <path clip-path="url(#pb84f6690f5)" d="M 190.75478 352.8 
L 190.75478 351.532673 
L 197.964581 351.532673 
L 197.964581 350.265347 
L 201.162608 350.265347 
L 201.162608 348.99802 
L 201.628882 348.99802 
L 201.628882 347.730693 
L 203.439869 347.730693 
L 203.439869 346.463366 
L 208.879068 346.463366 
L 208.879068 345.19604 
L 209.341898 345.19604 
L 209.341898 343.928713 
L 212.663019 343.928713 
L 212.663019 342.661386 
L 213.117502 342.661386 
L 213.198827 305.908911 
L 215.651392 305.908911 
L 215.651392 304.641584 
L 215.788292 304.641584 
L 215.788292 303.374257 
L 216.249541 303.374257 
L 216.249541 302.106931 
L 217.591295 302.106931 
L 217.591295 300.839604 
L 218.792883 300.839604 
L 218.792883 299.572277 
L 219.005718 299.572277 
L 219.005718 298.30495 
L 220.2354 298.30495 
L 220.2354 297.037624 
L 225.77031 297.037624 
L 225.783033 294.50297 
L 226.086983 294.50297 
L 226.086983 293.235644 
L 226.284018 293.235644 
L 226.284018 291.968317 
L 226.491917 291.968317 
L 226.491917 290.70099 
L 227.05943 290.70099 
L 227.05943 289.433663 
L 227.181244 289.433663 
L 227.181244 288.166337 
L 227.443589 288.166337 
L 227.443589 286.89901 
L 227.569802 286.89901 
L 227.569802 285.631683 
L 228.96581 285.631683 
L 228.96581 284.364356 
L 229.084918 284.364356 
L 229.084918 283.09703 
L 229.554745 283.09703 
L 229.554745 281.829703 
L 230.342962 281.829703 
L 230.342962 280.562376 
L 231.132193 280.562376 
L 231.167339 278.027723 
L 231.418259 278.027723 
L 231.418259 276.760396 
L 232.08323 276.760396 
L 232.08323 275.493069 
L 232.821703 275.493069 
L 232.821703 274.225743 
L 232.953766 274.225743 
L 232.98198 271.691089 
L 233.331077 271.691089 
L 233.331077 270.423762 
L 234.798569 270.423762 
L 234.798569 269.156436 
L 235.020232 269.156436 
L 235.020232 267.889109 
L 235.670292 267.889109 
L 235.670292 266.621782 
L 236.212242 266.621782 
L 236.212242 265.354455 
L 236.760892 265.354455 
L 236.760892 264.087129 
L 237.015404 264.087129 
L 237.015404 262.819802 
L 237.468591 262.819802 
L 237.468591 261.552475 
L 239.075906 261.552475 
L 239.075906 260.285149 
L 239.238977 260.285149 
L 239.238977 259.017822 
L 240.312826 259.017822 
L 240.312826 257.750495 
L 240.528922 257.750495 
L 240.528922 256.483168 
L 244.138678 256.483168 
L 244.233602 253.948515 
L 244.9439 253.948515 
L 244.9439 252.681188 
L 245.605688 252.681188 
L 245.69777 250.146535 
L 246.091914 250.146535 
L 246.102192 247.611881 
L 246.333142 247.611881 
L 246.400668 245.077228 
L 248.296132 245.077228 
L 248.296132 243.809901 
L 248.890766 243.809901 
L 248.890766 242.542574 
L 249.144854 242.542574 
L 249.144854 241.275248 
L 250.022781 241.275248 
L 250.029059 238.740594 
L 251.611046 238.740594 
L 251.611046 237.473267 
L 251.819122 237.473267 
L 251.819122 236.205941 
L 252.978303 236.205941 
L 252.978303 234.938614 
L 254.553993 234.938614 
L 254.553993 233.671287 
L 255.183925 233.671287 
L 255.183925 232.40396 
L 255.744978 232.40396 
L 255.744978 231.136634 
L 258.786006 231.136634 
L 258.786006 229.869307 
L 259.615713 229.869307 
L 259.615713 228.60198 
L 260.391064 228.60198 
L 260.391064 227.334653 
L 261.536177 227.334653 
L 261.538039 224.8 
L 262.513231 224.8 
L 262.61255 222.265347 
L 263.602392 222.265347 
L 263.602392 220.99802 
L 265.427593 220.99802 
L 265.427593 219.730693 
L 265.544754 219.730693 
L 265.544754 218.463366 
L 271.020532 218.463366 
L 271.020532 217.19604 
L 271.575904 217.19604 
L 271.575904 215.928713 
L 271.983428 215.928713 
L 271.983428 214.661386 
L 272.178861 214.661386 
L 272.178861 213.394059 
L 274.587273 213.394059 
L 274.587273 212.126733 
L 276.606175 212.126733 
L 276.606175 210.859406 
L 277.16369 210.859406 
L 277.266983 208.324752 
L 277.333663 208.324752 
L 277.333663 166.50297 
L 277.574586 166.50297 
L 277.574586 165.235644 
L 277.992402 165.235644 
L 277.992402 163.968317 
L 278.221277 163.968317 
L 278.221277 162.70099 
L 278.350984 162.70099 
L 278.368701 160.166337 
L 278.684053 160.166337 
L 278.715363 156.364356 
L 278.840677 156.364356 
L 278.840677 155.09703 
L 279.006153 155.09703 
L 279.054965 152.562376 
L 279.299948 152.562376 
L 279.350011 150.027723 
L 279.41448 150.027723 
L 279.41448 148.760396 
L 279.666974 148.760396 
L 279.752712 144.958416 
L 279.9611 144.958416 
L 279.9611 143.691089 
L 280.208244 143.691089 
L 280.208244 142.423762 
L 280.332992 142.423762 
L 280.376511 138.621782 
L 280.465142 138.621782 
L 280.465142 137.354455 
L 280.639728 137.354455 
L 280.69858 133.552475 
L 280.784599 133.552475 
L 280.883473 131.017822 
L 280.933551 131.017822 
L 280.933551 129.750495 
L 281.375782 129.750495 
L 281.375782 128.483168 
L 281.513872 128.483168 
L 281.594598 125.948515 
L 282.041864 125.948515 
L 282.041864 124.681188 
L 369.511012 124.681188 
L 369.511012 123.413861 
L 370.878111 123.413861 
L 370.878111 122.146535 
L 371.708952 122.146535 
L 371.708952 120.879208 
L 373.617729 120.879208 
L 373.617729 119.611881 
L 378.203229 119.611881 
L 378.203229 118.344554 
L 381.198898 118.344554 
L 381.198898 117.077228 
L 382.523275 117.077228 
L 382.523275 115.809901 
L 384.406937 115.809901 
L 384.406937 114.542574 
L 388.532294 114.542574 
L 388.532294 113.275248 
L 395.462935 113.275248 
L 395.462935 112.007921 
L 395.84906 112.007921 
L 395.84906 110.740594 
L 397.512222 110.740594 
L 397.512222 109.473267 
L 400.506974 109.473267 
L 400.522535 106.938614 
L 403.372673 106.938614 
L 403.372673 105.671287 
L 404.255995 105.671287 
L 404.255995 104.40396 
L 404.71707 104.40396 
L 404.71707 103.136634 
L 405.532794 103.136634 
L 405.532794 101.869307 
L 406.472768 101.869307 
L 406.472768 100.60198 
L 407.024843 100.60198 
L 407.024843 99.334653 
L 408.38999 99.334653 
L 408.38999 98.067327 
L 409.112584 98.067327 
L 409.112584 96.8 
L 409.87687 96.8 
L 409.87687 95.532673 
L 410.266478 95.532673 
L 410.266478 94.265347 
L 411.955472 94.265347 
L 411.955472 92.99802 
L 415.717654 92.99802 
L 415.717654 91.730693 
L 416.391461 91.730693 
L 416.391461 90.463366 
L 416.91946 90.463366 
L 416.91946 89.19604 
L 417.212815 89.19604 
L 417.212815 87.928713 
L 418.076271 87.928713 
L 418.076271 86.661386 
L 418.360097 86.661386 
L 418.360097 85.394059 
L 418.634941 85.394059 
L 418.634941 84.126733 
L 419.319777 84.126733 
L 419.319777 82.859406 
L 420.331664 82.859406 
L 420.331664 81.592079 
L 423.373489 81.592079 
L 423.373489 80.324752 
L 423.496873 80.324752 
L 423.496873 79.057426 
L 423.70432 79.057426 
L 423.70432 77.790099 
L 425.371343 77.790099 
L 425.456682 75.255446 
L 425.714991 75.255446 
L 425.781527 72.720792 
L 426.55017 72.720792 
L 426.55017 71.453465 
L 426.694371 71.453465 
L 426.745299 68.918812 
L 427.662293 68.918812 
L 427.662293 67.651485 
L 427.98771 67.651485 
L 427.98771 66.384158 
L 429.457943 66.384158 
L 429.457943 65.116832 
L 430.454561 65.116832 
L 430.454561 63.849505 
L 431.497297 63.849505 
L 431.497297 62.582178 
L 432.001565 62.582178 
L 432.001565 61.314851 
L 433.101016 61.314851 
L 433.101016 60.047525 
L 433.248962 60.047525 
L 433.248962 58.780198 
L 434.189541 58.780198 
L 434.189541 57.512871 
L 435.503346 57.512871 
L 435.566359 54.978218 
L 436.321528 54.978218 
L 436.321528 53.710891 
L 436.546263 53.710891 
L 436.546263 52.443564 
L 437.326433 52.443564 
L 437.326433 51.176238 
L 437.437555 51.176238 
L 437.437555 49.908911 
L 437.67146 49.908911 
L 437.67146 48.641584 
L 437.811022 48.641584 
L 437.811022 47.374257 
L 438.175755 47.374257 
L 438.175755 46.106931 
L 438.617701 46.106931 
L 438.617701 44.839604 
L 438.993948 44.839604 
L 439.025128 42.30495 
L 439.122473 42.30495 
L 439.122473 41.037624 
L 439.345174 41.037624 
L 439.454511 38.50297 
L 439.913708 38.50297 
L 439.962749 35.968317 
L 440.098414 35.968317 
L 440.203296 32.166337 
L 440.430506 32.166337 
L 440.482926 29.631683 
L 440.688857 29.631683 
L 440.740504 27.09703 
L 441.362065 27.09703 
L 441.362065 25.829703 
L 441.598332 25.829703 
L 441.598332 24.562376 
L 442.105827 24.562376 
L 442.177502 22.027723 
L 442.44674 22.027723 
L 442.44674 20.760396 
L 442.591048 20.760396 
L 442.591048 19.493069 
L 443.030458 19.493069 
L 443.030458 18.225743 
L 443.350327 18.225743 
L 443.350327 16.958416 
L 443.51995 16.958416 
L 443.51995 15.691089 
L 444.109387 15.691089 
L 444.109387 14.423762 
L 444.365854 14.423762 
L 444.365854 13.156436 
L 444.5077 13.156436 
L 444.611136 10.621782 
L 444.611136 10.621782 
L 453.6 10.621782 
L 453.6 10.621782 
" style="fill:none;stroke:#000000;stroke-linecap:square;"/>
   </g>
   <g id="line2d_5">
    <path clip-path="url(#pb84f6690f5)" d="M 34.988243 352.8 
L 34.988243 351.532673 
L 90.015527 351.532673 
L 90.015527 350.265347 
L 90.219274 350.265347 
L 90.219274 348.99802 
L 90.620067 348.99802 
L 90.627105 345.19604 
L 90.796859 345.19604 
L 90.796859 343.928713 
L 137.493098 343.928713 
L 137.577687 341.394059 
L 138.150423 341.394059 
L 138.150423 340.126733 
L 139.863481 340.126733 
L 139.863481 338.859406 
L 142.521928 338.859406 
L 142.521928 337.592079 
L 143.262707 337.592079 
L 143.262707 336.324752 
L 144.384303 336.324752 
L 144.384303 335.057426 
L 145.125793 335.057426 
L 145.125793 333.790099 
L 145.953179 333.790099 
L 145.953179 332.522772 
L 146.39222 332.522772 
L 146.448857 329.988119 
L 147.293615 329.988119 
L 147.293615 328.720792 
L 147.489065 328.720792 
L 147.558831 326.186139 
L 147.921914 326.186139 
L 147.921914 324.918812 
L 148.125381 324.918812 
L 148.125381 323.651485 
L 148.446945 323.651485 
L 148.536403 321.116832 
L 148.88739 321.116832 
L 148.901607 284.364356 
L 151.815666 284.364356 
L 151.815666 283.09703 
L 153.350101 283.09703 
L 153.350101 281.829703 
L 157.986273 281.829703 
L 157.986273 280.562376 
L 158.681157 280.562376 
L 158.681157 279.29505 
L 159.90747 279.29505 
L 159.90747 278.027723 
L 160.42255 278.027723 
L 160.42255 276.760396 
L 161.452111 276.760396 
L 161.452111 275.493069 
L 162.592147 275.493069 
L 162.592147 274.225743 
L 173.805639 274.225743 
L 173.805639 272.958416 
L 173.975081 272.958416 
L 173.975081 271.691089 
L 174.337395 271.691089 
L 174.337395 270.423762 
L 174.519677 270.423762 
L 174.519677 269.156436 
L 176.793251 269.156436 
L 176.793251 267.889109 
L 177.51104 267.889109 
L 177.51104 266.621782 
L 178.284812 266.621782 
L 178.284812 265.354455 
L 178.46812 265.354455 
L 178.46812 264.087129 
L 180.726607 264.087129 
L 180.726607 262.819802 
L 181.057192 262.819802 
L 181.057192 261.552475 
L 181.481407 261.552475 
L 181.481407 260.285149 
L 181.875606 260.285149 
L 181.875606 259.017822 
L 182.617989 259.017822 
L 182.617989 257.750495 
L 182.905061 257.750495 
L 182.905061 256.483168 
L 183.599979 256.483168 
L 183.599979 255.215842 
L 183.86082 255.215842 
L 183.86082 253.948515 
L 185.116575 253.948515 
L 185.116575 252.681188 
L 186.542745 252.681188 
L 186.542745 251.413861 
L 187.287662 251.413861 
L 187.287662 250.146535 
L 188.343472 250.146535 
L 188.343472 248.879208 
L 188.598243 248.879208 
L 188.598243 247.611881 
L 188.725078 247.611881 
L 188.725078 246.344554 
L 188.994183 246.344554 
L 188.994183 245.077228 
L 190.967708 245.077228 
L 190.967708 243.809901 
L 191.905076 243.809901 
L 191.905076 242.542574 
L 193.629088 242.542574 
L 193.629088 241.275248 
L 193.983688 241.275248 
L 193.983688 240.007921 
L 196.262127 240.007921 
L 196.262127 238.740594 
L 196.607069 238.740594 
L 196.607069 237.473267 
L 197.321881 237.473267 
L 197.321881 236.205941 
L 198.396428 236.205941 
L 198.396428 234.938614 
L 198.565629 234.938614 
L 198.565629 233.671287 
L 198.729515 233.671287 
L 198.729515 232.40396 
L 199.575015 232.40396 
L 199.575015 231.136634 
L 199.838449 231.136634 
L 199.838449 229.869307 
L 200.120322 229.869307 
L 200.120322 228.60198 
L 201.740816 228.60198 
L 201.740816 227.334653 
L 202.065895 227.334653 
L 202.065895 226.067327 
L 202.188966 226.067327 
L 202.27443 222.265347 
L 202.457248 222.265347 
L 202.457248 220.99802 
L 202.65798 220.99802 
L 202.698009 217.19604 
L 202.837843 217.19604 
L 202.837843 215.928713 
L 202.960384 215.928713 
L 202.960384 214.661386 
L 203.283983 214.661386 
L 203.283983 213.394059 
L 204.965199 213.394059 
L 204.965199 212.126733 
L 205.127104 212.126733 
L 205.127104 210.859406 
L 205.682228 210.859406 
L 205.682228 209.592079 
L 206.346265 209.592079 
L 206.346265 208.324752 
L 209.242416 208.324752 
L 209.242416 207.057426 
L 209.634126 207.057426 
L 209.634126 205.790099 
L 209.956004 205.790099 
L 209.956004 204.522772 
L 210.733441 204.522772 
L 210.784797 201.988119 
L 211.265547 201.988119 
L 211.265547 200.720792 
L 211.436982 200.720792 
L 211.436982 199.453465 
L 212.690093 199.453465 
L 212.690093 198.186139 
L 212.979963 198.186139 
L 213.018216 195.651485 
L 213.117143 195.651485 
L 213.117143 194.384158 
L 213.393123 194.384158 
L 213.393123 193.116832 
L 213.682957 193.116832 
L 213.682957 191.849505 
L 213.856958 191.849505 
L 213.856958 190.582178 
L 214.372168 190.582178 
L 214.372168 189.314851 
L 214.489449 189.314851 
L 214.489449 188.047525 
L 214.722988 188.047525 
L 214.722988 186.780198 
L 215.245467 186.780198 
L 215.245467 185.512871 
L 215.630155 185.512871 
L 215.630155 184.245545 
L 216.12564 184.245545 
L 216.12564 182.978218 
L 216.486938 182.978218 
L 216.486938 181.710891 
L 217.049325 181.710891 
L 217.049325 180.443564 
L 217.362436 180.443564 
L 217.453724 176.641584 
L 217.660414 176.641584 
L 217.660414 175.374257 
L 218.317871 175.374257 
L 218.317871 174.106931 
L 219.410551 174.106931 
L 219.410551 172.839604 
L 219.925994 172.839604 
L 219.925994 171.572277 
L 220.617432 171.572277 
L 220.617432 170.30495 
L 221.755027 170.30495 
L 221.755027 169.037624 
L 222.809432 169.037624 
L 222.809432 167.770297 
L 224.83425 167.770297 
L 224.83425 166.50297 
L 225.593609 166.50297 
L 225.593609 165.235644 
L 226.186666 165.235644 
L 226.186666 163.968317 
L 227.340596 163.968317 
L 227.340596 162.70099 
L 227.676025 162.70099 
L 227.676025 161.433663 
L 228.227298 161.433663 
L 228.227298 160.166337 
L 230.277104 160.166337 
L 230.277104 158.89901 
L 232.564983 158.89901 
L 232.564983 157.631683 
L 241.784242 157.631683 
L 241.79565 155.09703 
L 241.989532 155.09703 
L 241.989532 153.829703 
L 242.760518 153.829703 
L 242.760518 152.562376 
L 244.04987 152.562376 
L 244.04987 151.29505 
L 252.940399 151.29505 
L 252.940399 150.027723 
L 277.333663 150.027723 
L 277.333663 136.087129 
L 278.221277 136.087129 
L 278.221277 134.819802 
L 278.68544 134.819802 
L 278.68544 133.552475 
L 279.006153 133.552475 
L 279.006153 132.285149 
L 279.299948 132.285149 
L 279.299948 131.017822 
L 279.752712 131.017822 
L 279.752712 129.750495 
L 280.784599 129.750495 
L 280.883473 127.215842 
L 281.375782 127.215842 
L 281.375782 125.948515 
L 281.594598 125.948515 
L 281.594598 124.681188 
L 330.543739 124.681188 
L 330.543739 123.413861 
L 345.09474 123.413861 
L 345.09474 122.146535 
L 349.037296 122.146535 
L 349.037296 120.879208 
L 349.775239 120.879208 
L 349.775239 119.611881 
L 357.985326 119.611881 
L 357.985326 118.344554 
L 360.231464 118.344554 
L 360.231464 117.077228 
L 363.120455 117.077228 
L 363.120455 115.809901 
L 365.551112 115.809901 
L 365.551112 114.542574 
L 366.136924 114.542574 
L 366.136924 113.275248 
L 367.065208 113.275248 
L 367.065208 112.007921 
L 368.513182 112.007921 
L 368.513182 110.740594 
L 369.51101 110.740594 
L 369.51101 109.473267 
L 370.661498 109.473267 
L 370.661498 108.205941 
L 371.190988 108.205941 
L 371.190988 106.938614 
L 373.975221 106.938614 
L 373.975221 105.671287 
L 374.272173 105.671287 
L 374.272173 104.40396 
L 376.653017 104.40396 
L 376.653017 103.136634 
L 377.886329 103.136634 
L 377.886329 101.869307 
L 380.669762 101.869307 
L 380.669762 100.60198 
L 381.439616 100.60198 
L 381.439616 99.334653 
L 383.824099 99.334653 
L 383.824099 98.067327 
L 384.406917 98.067327 
L 384.406917 96.8 
L 386.832107 96.8 
L 386.832107 95.532673 
L 389.685587 95.532673 
L 389.685587 94.265347 
L 392.422525 94.265347 
L 392.422525 92.99802 
L 392.699707 92.99802 
L 392.699707 91.730693 
L 395.342424 91.730693 
L 395.342424 90.463366 
L 396.406017 90.463366 
L 396.406017 89.19604 
L 396.959623 89.19604 
L 396.959623 87.928713 
L 400.506974 87.928713 
L 400.506974 86.661386 
L 403.372673 86.661386 
L 403.372673 85.394059 
L 404.71707 85.394059 
L 404.71707 84.126733 
L 405.025494 84.126733 
L 405.094142 81.592079 
L 405.578555 81.592079 
L 405.578555 80.324752 
L 405.751233 80.324752 
L 405.751233 79.057426 
L 406.068961 79.057426 
L 406.068961 77.790099 
L 409.112584 77.790099 
L 409.112584 76.522772 
L 409.87687 76.522772 
L 409.87687 75.255446 
L 411.442752 75.255446 
L 411.506946 72.720792 
L 413.285022 72.720792 
L 413.285022 71.453465 
L 413.896985 71.453465 
L 413.896985 70.186139 
L 414.919811 70.186139 
L 414.919811 68.918812 
L 415.525208 68.918812 
L 415.525208 67.651485 
L 416.245015 67.651485 
L 416.245015 66.384158 
L 418.076271 66.384158 
L 418.076271 65.116832 
L 419.918019 65.116832 
L 419.918019 63.849505 
L 422.057375 63.849505 
L 422.057375 62.582178 
L 422.207513 62.582178 
L 422.207513 61.314851 
L 425.423955 61.314851 
L 425.423955 60.047525 
L 426.55017 60.047525 
L 426.55017 58.780198 
L 426.694371 58.780198 
L 426.694371 57.512871 
L 427.98771 57.512871 
L 427.98771 56.245545 
L 428.832006 56.245545 
L 428.832006 54.978218 
L 430.454561 54.978218 
L 430.454561 53.710891 
L 432.001565 53.710891 
L 432.001565 52.443564 
L 433.101016 52.443564 
L 433.101016 51.176238 
L 435.264979 51.176238 
L 435.264979 49.908911 
L 435.503346 49.908911 
L 435.566359 47.374257 
L 436.17029 47.374257 
L 436.17029 46.106931 
L 436.321528 46.106931 
L 436.367311 43.572277 
L 437.437555 43.572277 
L 437.437555 42.30495 
L 438.617701 42.30495 
L 438.617701 41.037624 
L 438.993948 41.037624 
L 438.993948 39.770297 
L 439.122473 39.770297 
L 439.122473 38.50297 
L 439.454511 38.50297 
L 439.454511 37.235644 
L 439.913708 37.235644 
L 439.962749 34.70099 
L 440.098414 34.70099 
L 440.203296 30.89901 
L 440.430506 30.89901 
L 440.482926 28.364356 
L 440.688857 28.364356 
L 440.688857 27.09703 
L 441.362065 27.09703 
L 441.362065 25.829703 
L 441.598332 25.829703 
L 441.598332 24.562376 
L 442.105827 24.562376 
L 442.177502 22.027723 
L 442.44674 22.027723 
L 442.44674 20.760396 
L 442.591048 20.760396 
L 442.591048 19.493069 
L 443.030458 19.493069 
L 443.030458 18.225743 
L 443.350327 18.225743 
L 443.350327 16.958416 
L 443.51995 16.958416 
L 443.51995 15.691089 
L 444.109387 15.691089 
L 444.109387 14.423762 
L 444.365854 14.423762 
L 444.365854 13.156436 
L 444.5077 13.156436 
L 444.611136 10.621782 
L 444.611136 10.621782 
L 453.6 10.621782 
L 453.6 10.621782 
" style="fill:none;stroke:#00bfbf;stroke-linecap:square;"/>
   </g>
   <g id="line2d_6">
    <path clip-path="url(#pb84f6690f5)" d="M -1 337.592079 
L 7.079401 337.592079 
L 7.079401 229.869307 
L 9.534968 229.869307 
L 9.534968 228.60198 
L 12.856399 228.60198 
L 12.936761 223.532673 
L 15.474008 223.532673 
L 15.474008 222.265347 
L 25.686045 222.265347 
L 25.686045 220.99802 
L 30.148755 220.99802 
L 30.148755 219.730693 
L 33.677442 219.730693 
L 33.677442 218.463366 
L 33.860393 218.463366 
L 33.860393 217.19604 
L 35.917186 217.19604 
L 35.917186 215.928713 
L 37.129054 215.928713 
L 37.208649 213.394059 
L 38.507204 213.394059 
L 38.507204 212.126733 
L 40.590736 212.126733 
L 40.590736 210.859406 
L 42.055141 210.859406 
L 42.055141 209.592079 
L 43.337144 209.592079 
L 43.337144 208.324752 
L 44.54836 208.324752 
L 44.54836 207.057426 
L 45.12824 207.057426 
L 45.209439 204.522772 
L 45.997846 204.522772 
L 45.997846 203.255446 
L 46.146263 203.255446 
L 46.146263 201.988119 
L 47.199676 201.988119 
L 47.199676 200.720792 
L 47.657075 200.720792 
L 47.657075 199.453465 
L 48.112431 199.453465 
L 48.180138 196.918812 
L 48.497431 196.918812 
L 48.497431 195.651485 
L 49.20058 195.651485 
L 49.20058 194.384158 
L 50.057293 194.384158 
L 50.057293 193.116832 
L 50.982658 193.116832 
L 50.982658 191.849505 
L 51.096893 191.849505 
L 51.096893 190.582178 
L 51.570906 190.582178 
L 51.570906 189.314851 
L 51.788957 189.314851 
L 51.788957 188.047525 
L 52.013024 188.047525 
L 52.013024 186.780198 
L 52.808983 186.780198 
L 52.852284 184.245545 
L 53.737814 184.245545 
L 53.737814 182.978218 
L 54.182389 182.978218 
L 54.182389 181.710891 
L 54.500894 181.710891 
L 54.592796 177.908911 
L 54.870127 177.908911 
L 54.870127 176.641584 
L 55.16205 176.641584 
L 55.16205 175.374257 
L 55.332014 175.374257 
L 55.332014 174.106931 
L 55.480943 174.106931 
L 55.480943 172.839604 
L 56.55616 172.839604 
L 56.55616 171.572277 
L 56.778474 171.572277 
L 56.778474 170.30495 
L 57.078795 170.30495 
L 57.078795 169.037624 
L 57.835055 169.037624 
L 57.835055 167.770297 
L 58.69645 167.770297 
L 58.747749 165.235644 
L 59.402728 165.235644 
L 59.402728 163.968317 
L 60.702898 163.968317 
L 60.702898 162.70099 
L 60.98787 162.70099 
L 61.074553 160.166337 
L 61.191907 160.166337 
L 61.191907 158.89901 
L 61.561429 158.89901 
L 61.635026 155.09703 
L 61.831824 155.09703 
L 61.831824 153.829703 
L 62.336222 153.829703 
L 62.337341 151.29505 
L 62.872511 151.29505 
L 62.872511 150.027723 
L 63.595368 150.027723 
L 63.595368 148.760396 
L 64.414334 148.760396 
L 64.414334 147.493069 
L 64.658233 147.493069 
L 64.658233 146.225743 
L 65.045907 146.225743 
L 65.045907 144.958416 
L 65.428224 144.958416 
L 65.428224 143.691089 
L 65.606342 143.691089 
L 65.606342 142.423762 
L 65.925244 142.423762 
L 65.997106 139.889109 
L 66.21299 139.889109 
L 66.21299 138.621782 
L 66.410998 138.621782 
L 66.410998 137.354455 
L 67.189736 137.354455 
L 67.189736 136.087129 
L 67.345575 136.087129 
L 67.345575 134.819802 
L 68.031418 134.819802 
L 68.100689 132.285149 
L 68.219557 132.285149 
L 68.283582 129.750495 
L 69.171613 129.750495 
L 69.171613 128.483168 
L 69.796463 128.483168 
L 69.882751 124.681188 
L 70.470323 124.681188 
L 70.527767 120.879208 
L 71.556354 120.879208 
L 71.556354 119.611881 
L 71.890453 119.611881 
L 71.890453 118.344554 
L 72.503381 118.344554 
L 72.503381 117.077228 
L 73.0659 117.077228 
L 73.0659 115.809901 
L 74.469694 115.809901 
L 74.469694 114.542574 
L 75.667974 114.542574 
L 75.667974 113.275248 
L 78.872559 113.275248 
L 78.872559 112.007921 
L 78.995904 112.007921 
L 78.995904 110.740594 
L 83.980747 110.740594 
L 83.980747 109.473267 
L 84.431057 109.473267 
L 84.431057 108.205941 
L 85.106913 108.205941 
L 85.106913 106.938614 
L 87.30331 106.938614 
L 87.30331 105.671287 
L 89.838796 105.671287 
L 89.838796 104.40396 
L 92.816409 104.40396 
L 92.816409 103.136634 
L 98.979935 103.136634 
L 99.063105 99.334653 
L 239.933456 99.334653 
L 239.933456 98.067327 
L 243.673901 98.067327 
L 243.673901 96.8 
L 244.056482 96.8 
L 244.056482 95.532673 
L 251.960683 95.532673 
L 251.960683 94.265347 
L 252.154798 94.265347 
L 252.154798 92.99802 
L 257.416749 92.99802 
L 257.416749 91.730693 
L 259.153161 91.730693 
L 259.153161 90.463366 
L 265.261256 90.463366 
L 265.261256 89.19604 
L 266.898759 89.19604 
L 266.898759 87.928713 
L 268.290595 87.928713 
L 268.290595 86.661386 
L 269.81154 86.661386 
L 269.81154 85.394059 
L 270.051963 85.394059 
L 270.051963 84.126733 
L 276.404765 84.126733 
L 276.404765 82.859406 
L 288.723202 82.859406 
L 288.777511 79.057426 
L 292.470349 79.057426 
L 292.470349 77.790099 
L 293.873896 77.790099 
L 293.873896 76.522772 
L 294.219226 76.522772 
L 294.234612 73.988119 
L 294.810606 73.988119 
L 294.810606 72.720792 
L 295.11824 72.720792 
L 295.11824 71.453465 
L 295.555198 71.453465 
L 295.555198 70.186139 
L 296.126988 70.186139 
L 296.126988 68.918812 
L 296.774748 68.918812 
L 296.836614 65.116832 
L 297.036435 65.116832 
L 297.036435 63.849505 
L 298.286027 63.849505 
L 298.286027 62.582178 
L 298.764483 62.582178 
L 298.764483 61.314851 
L 302.709537 61.314851 
L 302.709537 60.047525 
L 304.666996 60.047525 
L 304.666996 58.780198 
L 305.42132 58.780198 
L 305.42132 57.512871 
L 306.786558 57.512871 
L 306.786558 56.245545 
L 307.068866 56.245545 
L 307.068866 54.978218 
L 307.395176 54.978218 
L 307.395176 53.710891 
L 307.514703 53.710891 
L 307.514703 52.443564 
L 308.336132 52.443564 
L 308.336132 51.176238 
L 308.611013 51.176238 
L 308.621797 48.641584 
L 308.805879 48.641584 
L 308.805879 47.374257 
L 309.440128 47.374257 
L 309.440128 46.106931 
L 312.076897 46.106931 
L 312.076897 44.839604 
L 312.232696 44.839604 
L 312.232696 43.572277 
L 312.400519 43.572277 
L 312.400519 42.30495 
L 313.192308 42.30495 
L 313.207264 39.770297 
L 313.986204 39.770297 
L 313.986204 38.50297 
L 314.840703 38.50297 
L 314.840703 37.235644 
L 315.597801 37.235644 
L 315.597801 35.968317 
L 315.945896 35.968317 
L 315.945896 34.70099 
L 319.140797 34.70099 
L 319.140797 33.433663 
L 323.630909 33.433663 
L 323.630909 32.166337 
L 324.808092 32.166337 
L 324.808092 30.89901 
L 326.194534 30.89901 
L 326.194534 29.631683 
L 326.61242 29.631683 
L 326.61242 28.364356 
L 328.165032 28.364356 
L 328.246549 25.829703 
L 333.852761 25.829703 
L 333.852761 24.562376 
L 334.852739 24.562376 
L 334.852739 23.29505 
L 336.750546 23.29505 
L 336.750546 22.027723 
L 340.16649 22.027723 
L 340.16649 20.760396 
L 348.617053 20.760396 
L 348.617053 19.493069 
L 368.324899 19.493069 
L 368.324899 18.225743 
L 388.528397 18.225743 
L 388.528397 16.958416 
L 427.98771 16.958416 
L 427.98771 15.691089 
L 433.101016 15.691089 
L 433.101016 14.423762 
L 439.962749 14.423762 
L 439.962749 13.156436 
L 440.430506 13.156436 
L 440.430506 11.889109 
L 442.177502 11.889109 
L 442.177502 10.621782 
L 442.177502 10.621782 
L 453.6 10.621782 
L 453.6 10.621782 
" style="fill:none;stroke:#bf00bf;stroke-linecap:square;"/>
   </g>
   <g id="line2d_7">
    <path clip-path="url(#pb84f6690f5)" d="M -1 333.790099 
L 7.079401 333.790099 
L 7.079401 109.473267 
L 8.63162 109.473267 
L 8.63162 108.205941 
L 15.469768 108.205941 
L 15.480451 105.671287 
L 20.232464 105.671287 
L 20.232464 104.40396 
L 22.01537 104.40396 
L 22.01537 103.136634 
L 22.375883 103.136634 
L 22.375883 101.869307 
L 23.040277 101.869307 
L 23.040277 100.60198 
L 24.713483 100.60198 
L 24.713483 99.334653 
L 26.309917 99.334653 
L 26.309917 98.067327 
L 30.077212 98.067327 
L 30.077212 96.8 
L 30.421518 96.8 
L 30.421518 95.532673 
L 31.121132 95.532673 
L 31.121132 94.265347 
L 37.208649 94.265347 
L 37.208649 92.99802 
L 37.770981 92.99802 
L 37.770981 91.730693 
L 38.501419 91.730693 
L 38.501419 90.463366 
L 41.754259 90.463366 
L 41.754259 89.19604 
L 42.599251 89.19604 
L 42.599251 87.928713 
L 43.050086 87.928713 
L 43.050086 86.661386 
L 43.38794 86.661386 
L 43.38794 85.394059 
L 44.910183 85.394059 
L 44.910183 84.126733 
L 45.574092 84.126733 
L 45.574092 82.859406 
L 46.237625 82.859406 
L 46.237625 81.592079 
L 46.488355 81.592079 
L 46.488355 80.324752 
L 47.177578 80.324752 
L 47.209406 77.790099 
L 47.702697 77.790099 
L 47.733753 75.255446 
L 48.497431 75.255446 
L 48.497431 73.988119 
L 50.034407 73.988119 
L 50.034407 72.720792 
L 50.218253 72.720792 
L 50.218253 71.453465 
L 50.887788 71.453465 
L 50.917729 68.918812 
L 51.083499 68.918812 
L 51.083499 67.651485 
L 51.3551 67.651485 
L 51.3551 66.384158 
L 51.570906 66.384158 
L 51.570906 65.116832 
L 52.196863 65.116832 
L 52.201584 62.582178 
L 52.836992 62.582178 
L 52.852284 60.047525 
L 53.740233 60.047525 
L 53.740233 58.780198 
L 55.480943 58.780198 
L 55.480943 57.512871 
L 55.713544 57.512871 
L 55.713544 56.245545 
L 56.554464 56.245545 
L 56.554464 54.978218 
L 59.6591 54.978218 
L 59.6591 53.710891 
L 60.693752 53.710891 
L 60.693752 52.443564 
L 61.05044 52.443564 
L 61.05044 51.176238 
L 61.561429 51.176238 
L 61.634781 48.641584 
L 61.685828 48.641584 
L 61.685828 47.374257 
L 62.24711 47.374257 
L 62.24711 46.106931 
L 63.563571 46.106931 
L 63.563986 43.572277 
L 65.045907 43.572277 
L 65.045907 42.30495 
L 68.031418 42.30495 
L 68.031418 41.037624 
L 69.113917 41.037624 
L 69.113917 39.770297 
L 70.518967 39.770297 
L 70.518967 38.50297 
L 71.460081 38.50297 
L 71.460081 37.235644 
L 72.312661 37.235644 
L 72.312661 35.968317 
L 73.639065 35.968317 
L 73.639065 34.70099 
L 78.985855 34.70099 
L 78.985855 33.433663 
L 183.266304 33.433663 
L 183.266304 32.166337 
L 245.60906 32.166337 
L 245.60906 30.89901 
L 253.368071 30.89901 
L 253.368071 29.631683 
L 259.333167 29.631683 
L 259.333167 28.364356 
L 265.261256 28.364356 
L 265.282813 25.829703 
L 267.951391 25.829703 
L 267.951391 24.562376 
L 269.481512 24.562376 
L 269.481512 23.29505 
L 270.33757 23.29505 
L 270.33757 22.027723 
L 270.858548 22.027723 
L 270.858548 20.760396 
L 271.296481 20.760396 
L 271.296481 19.493069 
L 275.292603 19.493069 
L 275.292603 18.225743 
L 280.57559 18.225743 
L 280.57559 16.958416 
L 281.499523 16.958416 
L 281.499523 15.691089 
L 287.536559 15.691089 
L 287.536559 14.423762 
L 288.022885 14.423762 
L 288.022885 13.156436 
L 296.774939 13.156436 
L 296.774939 11.889109 
L 297.575788 11.889109 
L 297.575788 10.621782 
L 297.575788 10.621782 
L 453.6 10.621782 
L 453.6 10.621782 
" style="fill:none;stroke:#000000;stroke-linecap:square;"/>
   </g>
   <g id="line2d_8">
    <path clip-path="url(#pb84f6690f5)" d="M -1 333.790099 
L 3.320919 333.790099 
L 3.320919 322.384158 
L 4.044107 322.384158 
L 4.044107 310.978218 
L 7.079401 310.978218 
L 7.079401 53.710891 
L 15.480417 53.710891 
L 15.480417 52.443564 
L 15.984466 52.443564 
L 15.984466 51.176238 
L 17.962177 51.176238 
L 17.962177 49.908911 
L 19.040305 49.908911 
L 19.040305 48.641584 
L 20.115859 48.641584 
L 20.115859 47.374257 
L 20.471071 47.374257 
L 20.532304 44.839604 
L 25.849953 44.839604 
L 25.849953 43.572277 
L 26.316977 43.572277 
L 26.316977 42.30495 
L 26.945505 42.30495 
L 26.945505 41.037624 
L 27.518214 41.037624 
L 27.518214 39.770297 
L 28.00674 39.770297 
L 28.00674 38.50297 
L 28.595894 38.50297 
L 28.595894 37.235644 
L 30.028956 37.235644 
L 30.028956 35.968317 
L 31.874574 35.968317 
L 31.874574 34.70099 
L 34.03855 34.70099 
L 34.03855 33.433663 
L 34.234494 33.433663 
L 34.234494 32.166337 
L 35.105581 32.166337 
L 35.105581 30.89901 
L 37.207777 30.89901 
L 37.207777 29.631683 
L 37.770981 29.631683 
L 37.770981 28.364356 
L 37.970364 28.364356 
L 37.970364 27.09703 
L 38.194623 27.09703 
L 38.194623 25.829703 
L 39.339015 25.829703 
L 39.339015 24.562376 
L 39.818572 24.562376 
L 39.818572 23.29505 
L 42.566612 23.29505 
L 42.566612 22.027723 
L 43.38743 22.027723 
L 43.38743 20.760396 
L 45.577412 20.760396 
L 45.577412 19.493069 
L 48.32399 19.493069 
L 48.32399 18.225743 
L 52.836992 18.225743 
L 52.836992 16.958416 
L 56.129128 16.958416 
L 56.129128 15.691089 
L 61.061327 15.691089 
L 61.061327 14.423762 
L 66.800884 14.423762 
L 66.800884 13.156436 
L 70.484628 13.156436 
L 70.484628 11.889109 
L 71.968855 11.889109 
L 71.968855 10.621782 
L 71.968855 10.621782 
L 453.6 10.621782 
L 453.6 10.621782 
" style="fill:none;stroke:#00bfbf;stroke-linecap:square;"/>
   </g>
   <g id="patch_3">
    <path d="M 7.2 7.2 
L 453.6 7.2 
" style="fill:none;stroke:#000000;stroke-linecap:square;stroke-linejoin:miter;"/>
   </g>
   <g id="patch_4">
    <path d="M 453.6 352.8 
L 453.6 7.2 
" style="fill:none;stroke:#000000;stroke-linecap:square;stroke-linejoin:miter;"/>
   </g>
   <g id="patch_5">
    <path d="M 7.2 352.8 
L 453.6 352.8 
" style="fill:none;stroke:#000000;stroke-linecap:square;stroke-linejoin:miter;"/>
   </g>
   <g id="patch_6">
    <path d="M 7.2 352.8 
L 7.2 7.2 
" style="fill:none;stroke:#000000;stroke-linecap:square;stroke-linejoin:miter;"/>
   </g>
   <g id="matplotlib.axis_1">
    <g id="xtick_1">
     <g id="line2d_9">
      <path clip-path="url(#pb84f6690f5)" d="M 62.894476 352.8 
L 62.894476 7.2 
" style="fill:none;stroke:#000000;stroke-dasharray:1.000000,3.000000;stroke-dashoffset:0.0;stroke-width:0.5;"/>
     </g>
     <g id="line2d_10">
      <defs>
       <path d="M 0 0 
L 0 -4 
" id="m4fb101df1f" style="stroke:#000000;stroke-width:0.5;"/>
      </defs>
      <g>
       <use style="stroke:#000000;stroke-width:0.5;" x="62.894475962" xlink:href="#m4fb101df1f" y="352.8"/>
      </g>
     </g>
     <g id="line2d_11">
      <defs>
       <path d="M 0 0 
L 0 4 
" id="madb79d3a68" style="stroke:#000000;stroke-width:0.5;"/>
      </defs>
      <g>
       <use style="stroke:#000000;stroke-width:0.5;" x="62.894475962" xlink:href="#madb79d3a68" y="7.2"/>
      </g>
     </g>
     <g id="text_1">
      <!-- -6 -->
      <defs>
       <path d="M 33.015625 40.375 
Q 26.375 40.375 22.484375 35.828125 
Q 18.609375 31.296875 18.609375 23.390625 
Q 18.609375 15.53125 22.484375 10.953125 
Q 26.375 6.390625 33.015625 6.390625 
Q 39.65625 6.390625 43.53125 10.953125 
Q 47.40625 15.53125 47.40625 23.390625 
Q 47.40625 31.296875 43.53125 35.828125 
Q 39.65625 40.375 33.015625 40.375 
M 52.59375 71.296875 
L 52.59375 62.3125 
Q 48.875 64.0625 45.09375 64.984375 
Q 41.3125 65.921875 37.59375 65.921875 
Q 27.828125 65.921875 22.671875 59.328125 
Q 17.53125 52.734375 16.796875 39.40625 
Q 19.671875 43.65625 24.015625 45.921875 
Q 28.375 48.1875 33.59375 48.1875 
Q 44.578125 48.1875 50.953125 41.515625 
Q 57.328125 34.859375 57.328125 23.390625 
Q 57.328125 12.15625 50.6875 5.359375 
Q 44.046875 -1.421875 33.015625 -1.421875 
Q 20.359375 -1.421875 13.671875 8.265625 
Q 6.984375 17.96875 6.984375 36.375 
Q 6.984375 53.65625 15.1875 63.9375 
Q 23.390625 74.21875 37.203125 74.21875 
Q 40.921875 74.21875 44.703125 73.484375 
Q 48.484375 72.75 52.59375 71.296875 
" id="BitstreamVeraSans-Roman-36"/>
       <path d="M 4.890625 31.390625 
L 31.203125 31.390625 
L 31.203125 23.390625 
L 4.890625 23.390625 
z
" id="BitstreamVeraSans-Roman-2d"/>
      </defs>
      <g transform="translate(52.924163462 371.996875)scale(0.2 -0.2)">
       <use xlink:href="#BitstreamVeraSans-Roman-2d"/>
       <use x="36.083984375" xlink:href="#BitstreamVeraSans-Roman-36"/>
      </g>
     </g>
    </g>
    <g id="xtick_2">
     <g id="line2d_12">
      <path clip-path="url(#pb84f6690f5)" d="M 118.709551 352.8 
L 118.709551 7.2 
" style="fill:none;stroke:#000000;stroke-dasharray:1.000000,3.000000;stroke-dashoffset:0.0;stroke-width:0.5;"/>
     </g>
     <g id="line2d_13">
      <g>
       <use style="stroke:#000000;stroke-width:0.5;" x="118.709550825" xlink:href="#m4fb101df1f" y="352.8"/>
      </g>
     </g>
     <g id="line2d_14">
      <g>
       <use style="stroke:#000000;stroke-width:0.5;" x="118.709550825" xlink:href="#madb79d3a68" y="7.2"/>
      </g>
     </g>
     <g id="text_2">
      <!-- -4 -->
      <defs>
       <path d="M 37.796875 64.3125 
L 12.890625 25.390625 
L 37.796875 25.390625 
z
M 35.203125 72.90625 
L 47.609375 72.90625 
L 47.609375 25.390625 
L 58.015625 25.390625 
L 58.015625 17.1875 
L 47.609375 17.1875 
L 47.609375 0 
L 37.796875 0 
L 37.796875 17.1875 
L 4.890625 17.1875 
L 4.890625 26.703125 
z
" id="BitstreamVeraSans-Roman-34"/>
      </defs>
      <g transform="translate(108.739238325 371.996875)scale(0.2 -0.2)">
       <use xlink:href="#BitstreamVeraSans-Roman-2d"/>
       <use x="36.083984375" xlink:href="#BitstreamVeraSans-Roman-34"/>
      </g>
     </g>
    </g>
    <g id="xtick_3">
     <g id="line2d_15">
      <path clip-path="url(#pb84f6690f5)" d="M 174.524626 352.8 
L 174.524626 7.2 
" style="fill:none;stroke:#000000;stroke-dasharray:1.000000,3.000000;stroke-dashoffset:0.0;stroke-width:0.5;"/>
     </g>
     <g id="line2d_16">
      <g>
       <use style="stroke:#000000;stroke-width:0.5;" x="174.524625687" xlink:href="#m4fb101df1f" y="352.8"/>
      </g>
     </g>
     <g id="line2d_17">
      <g>
       <use style="stroke:#000000;stroke-width:0.5;" x="174.524625687" xlink:href="#madb79d3a68" y="7.2"/>
      </g>
     </g>
     <g id="text_3">
      <!-- -2 -->
      <defs>
       <path d="M 19.1875 8.296875 
L 53.609375 8.296875 
L 53.609375 0 
L 7.328125 0 
L 7.328125 8.296875 
Q 12.9375 14.109375 22.625 23.890625 
Q 32.328125 33.6875 34.8125 36.53125 
Q 39.546875 41.84375 41.421875 45.53125 
Q 43.3125 49.21875 43.3125 52.78125 
Q 43.3125 58.59375 39.234375 62.25 
Q 35.15625 65.921875 28.609375 65.921875 
Q 23.96875 65.921875 18.8125 64.3125 
Q 13.671875 62.703125 7.8125 59.421875 
L 7.8125 69.390625 
Q 13.765625 71.78125 18.9375 73 
Q 24.125 74.21875 28.421875 74.21875 
Q 39.75 74.21875 46.484375 68.546875 
Q 53.21875 62.890625 53.21875 53.421875 
Q 53.21875 48.921875 51.53125 44.890625 
Q 49.859375 40.875 45.40625 35.40625 
Q 44.1875 33.984375 37.640625 27.21875 
Q 31.109375 20.453125 19.1875 8.296875 
" id="BitstreamVeraSans-Roman-32"/>
      </defs>
      <g transform="translate(164.554313187 371.996875)scale(0.2 -0.2)">
       <use xlink:href="#BitstreamVeraSans-Roman-2d"/>
       <use x="36.083984375" xlink:href="#BitstreamVeraSans-Roman-32"/>
      </g>
     </g>
    </g>
    <g id="xtick_4">
     <g id="line2d_18">
      <path clip-path="url(#pb84f6690f5)" d="M 230.339701 352.8 
L 230.339701 7.2 
" style="fill:none;stroke:#000000;stroke-dasharray:1.000000,3.000000;stroke-dashoffset:0.0;stroke-width:0.5;"/>
     </g>
     <g id="line2d_19">
      <g>
       <use style="stroke:#000000;stroke-width:0.5;" x="230.33970055" xlink:href="#m4fb101df1f" y="352.8"/>
      </g>
     </g>
     <g id="line2d_20">
      <g>
       <use style="stroke:#000000;stroke-width:0.5;" x="230.33970055" xlink:href="#madb79d3a68" y="7.2"/>
      </g>
     </g>
     <g id="text_4">
      <!-- 0 -->
      <defs>
       <path d="M 31.78125 66.40625 
Q 24.171875 66.40625 20.328125 58.90625 
Q 16.5 51.421875 16.5 36.375 
Q 16.5 21.390625 20.328125 13.890625 
Q 24.171875 6.390625 31.78125 6.390625 
Q 39.453125 6.390625 43.28125 13.890625 
Q 47.125 21.390625 47.125 36.375 
Q 47.125 51.421875 43.28125 58.90625 
Q 39.453125 66.40625 31.78125 66.40625 
M 31.78125 74.21875 
Q 44.046875 74.21875 50.515625 64.515625 
Q 56.984375 54.828125 56.984375 36.375 
Q 56.984375 17.96875 50.515625 8.265625 
Q 44.046875 -1.421875 31.78125 -1.421875 
Q 19.53125 -1.421875 13.0625 8.265625 
Q 6.59375 17.96875 6.59375 36.375 
Q 6.59375 54.828125 13.0625 64.515625 
Q 19.53125 74.21875 31.78125 74.21875 
" id="BitstreamVeraSans-Roman-30"/>
      </defs>
      <g transform="translate(223.97720055 371.996875)scale(0.2 -0.2)">
       <use xlink:href="#BitstreamVeraSans-Roman-30"/>
      </g>
     </g>
    </g>
    <g id="xtick_5">
     <g id="line2d_21">
      <path clip-path="url(#pb84f6690f5)" d="M 286.154775 352.8 
L 286.154775 7.2 
" style="fill:none;stroke:#000000;stroke-dasharray:1.000000,3.000000;stroke-dashoffset:0.0;stroke-width:0.5;"/>
     </g>
     <g id="line2d_22">
      <g>
       <use style="stroke:#000000;stroke-width:0.5;" x="286.154775412" xlink:href="#m4fb101df1f" y="352.8"/>
      </g>
     </g>
     <g id="line2d_23">
      <g>
       <use style="stroke:#000000;stroke-width:0.5;" x="286.154775412" xlink:href="#madb79d3a68" y="7.2"/>
      </g>
     </g>
     <g id="text_5">
      <!-- 2 -->
      <g transform="translate(279.792275412 371.996875)scale(0.2 -0.2)">
       <use xlink:href="#BitstreamVeraSans-Roman-32"/>
      </g>
     </g>
    </g>
    <g id="xtick_6">
     <g id="line2d_24">
      <path clip-path="url(#pb84f6690f5)" d="M 341.96985 352.8 
L 341.96985 7.2 
" style="fill:none;stroke:#000000;stroke-dasharray:1.000000,3.000000;stroke-dashoffset:0.0;stroke-width:0.5;"/>
     </g>
     <g id="line2d_25">
      <g>
       <use style="stroke:#000000;stroke-width:0.5;" x="341.969850275" xlink:href="#m4fb101df1f" y="352.8"/>
      </g>
     </g>
     <g id="line2d_26">
      <g>
       <use style="stroke:#000000;stroke-width:0.5;" x="341.969850275" xlink:href="#madb79d3a68" y="7.2"/>
      </g>
     </g>
     <g id="text_6">
      <!-- 4 -->
      <g transform="translate(335.607350275 371.996875)scale(0.2 -0.2)">
       <use xlink:href="#BitstreamVeraSans-Roman-34"/>
      </g>
     </g>
    </g>
    <g id="xtick_7">
     <g id="line2d_27">
      <path clip-path="url(#pb84f6690f5)" d="M 397.784925 352.8 
L 397.784925 7.2 
" style="fill:none;stroke:#000000;stroke-dasharray:1.000000,3.000000;stroke-dashoffset:0.0;stroke-width:0.5;"/>
     </g>
     <g id="line2d_28">
      <g>
       <use style="stroke:#000000;stroke-width:0.5;" x="397.784925137" xlink:href="#m4fb101df1f" y="352.8"/>
      </g>
     </g>
     <g id="line2d_29">
      <g>
       <use style="stroke:#000000;stroke-width:0.5;" x="397.784925137" xlink:href="#madb79d3a68" y="7.2"/>
      </g>
     </g>
     <g id="text_7">
      <!-- 6 -->
      <g transform="translate(391.422425137 371.996875)scale(0.2 -0.2)">
       <use xlink:href="#BitstreamVeraSans-Roman-36"/>
      </g>
     </g>
    </g>
    <g id="xtick_8">
     <g id="line2d_30">
      <path clip-path="url(#pb84f6690f5)" d="M 453.6 352.8 
L 453.6 7.2 
" style="fill:none;stroke:#000000;stroke-dasharray:1.000000,3.000000;stroke-dashoffset:0.0;stroke-width:0.5;"/>
     </g>
     <g id="line2d_31">
      <g>
       <use style="stroke:#000000;stroke-width:0.5;" x="453.6" xlink:href="#m4fb101df1f" y="352.8"/>
      </g>
     </g>
     <g id="line2d_32">
      <g>
       <use style="stroke:#000000;stroke-width:0.5;" x="453.6" xlink:href="#madb79d3a68" y="7.2"/>
      </g>
     </g>
    </g>
    <g id="xtick_9">
     <g id="line2d_33">
      <defs>
       <path d="M 0 0 
L 0 -2 
" id="md74b3d0601" style="stroke:#000000;stroke-width:0.5;"/>
      </defs>
      <g>
       <use style="stroke:#000000;stroke-width:0.5;" x="62.894475962" xlink:href="#md74b3d0601" y="352.8"/>
      </g>
     </g>
     <g id="line2d_34">
      <defs>
       <path d="M 0 0 
L 0 2 
" id="m0c31c2651a" style="stroke:#000000;stroke-width:0.5;"/>
      </defs>
      <g>
       <use style="stroke:#000000;stroke-width:0.5;" x="62.894475962" xlink:href="#m0c31c2651a" y="7.2"/>
      </g>
     </g>
    </g>
    <g id="xtick_10">
     <g id="line2d_35">
      <g>
       <use style="stroke:#000000;stroke-width:0.5;" x="118.709550825" xlink:href="#md74b3d0601" y="352.8"/>
      </g>
     </g>
     <g id="line2d_36">
      <g>
       <use style="stroke:#000000;stroke-width:0.5;" x="118.709550825" xlink:href="#m0c31c2651a" y="7.2"/>
      </g>
     </g>
    </g>
    <g id="xtick_11">
     <g id="line2d_37">
      <g>
       <use style="stroke:#000000;stroke-width:0.5;" x="174.524625687" xlink:href="#md74b3d0601" y="352.8"/>
      </g>
     </g>
     <g id="line2d_38">
      <g>
       <use style="stroke:#000000;stroke-width:0.5;" x="174.524625687" xlink:href="#m0c31c2651a" y="7.2"/>
      </g>
     </g>
    </g>
    <g id="xtick_12">
     <g id="line2d_39">
      <g>
       <use style="stroke:#000000;stroke-width:0.5;" x="230.33970055" xlink:href="#md74b3d0601" y="352.8"/>
      </g>
     </g>
     <g id="line2d_40">
      <g>
       <use style="stroke:#000000;stroke-width:0.5;" x="230.33970055" xlink:href="#m0c31c2651a" y="7.2"/>
      </g>
     </g>
    </g>
    <g id="xtick_13">
     <g id="line2d_41">
      <g>
       <use style="stroke:#000000;stroke-width:0.5;" x="286.154775412" xlink:href="#md74b3d0601" y="352.8"/>
      </g>
     </g>
     <g id="line2d_42">
      <g>
       <use style="stroke:#000000;stroke-width:0.5;" x="286.154775412" xlink:href="#m0c31c2651a" y="7.2"/>
      </g>
     </g>
    </g>
    <g id="xtick_14">
     <g id="line2d_43">
      <g>
       <use style="stroke:#000000;stroke-width:0.5;" x="341.969850275" xlink:href="#md74b3d0601" y="352.8"/>
      </g>
     </g>
     <g id="line2d_44">
      <g>
       <use style="stroke:#000000;stroke-width:0.5;" x="341.969850275" xlink:href="#m0c31c2651a" y="7.2"/>
      </g>
     </g>
    </g>
    <g id="xtick_15">
     <g id="line2d_45">
      <g>
       <use style="stroke:#000000;stroke-width:0.5;" x="397.784925137" xlink:href="#md74b3d0601" y="352.8"/>
      </g>
     </g>
     <g id="line2d_46">
      <g>
       <use style="stroke:#000000;stroke-width:0.5;" x="397.784925137" xlink:href="#m0c31c2651a" y="7.2"/>
      </g>
     </g>
    </g>
    <g id="xtick_16">
     <g id="line2d_47">
      <g>
       <use style="stroke:#000000;stroke-width:0.5;" x="453.6" xlink:href="#md74b3d0601" y="352.8"/>
      </g>
     </g>
     <g id="line2d_48">
      <g>
       <use style="stroke:#000000;stroke-width:0.5;" x="453.6" xlink:href="#m0c31c2651a" y="7.2"/>
      </g>
     </g>
    </g>
    <g id="text_8">
     <!-- log10 of Df -->
     <defs>
      <path id="BitstreamVeraSans-Roman-20"/>
      <path d="M 12.40625 8.296875 
L 28.515625 8.296875 
L 28.515625 63.921875 
L 10.984375 60.40625 
L 10.984375 69.390625 
L 28.421875 72.90625 
L 38.28125 72.90625 
L 38.28125 8.296875 
L 54.390625 8.296875 
L 54.390625 0 
L 12.40625 0 
z
" id="BitstreamVeraSans-Roman-31"/>
      <path d="M 30.609375 48.390625 
Q 23.390625 48.390625 19.1875 42.75 
Q 14.984375 37.109375 14.984375 27.296875 
Q 14.984375 17.484375 19.15625 11.84375 
Q 23.34375 6.203125 30.609375 6.203125 
Q 37.796875 6.203125 41.984375 11.859375 
Q 46.1875 17.53125 46.1875 27.296875 
Q 46.1875 37.015625 41.984375 42.703125 
Q 37.796875 48.390625 30.609375 48.390625 
M 30.609375 56 
Q 42.328125 56 49.015625 48.375 
Q 55.71875 40.765625 55.71875 27.296875 
Q 55.71875 13.875 49.015625 6.21875 
Q 42.328125 -1.421875 30.609375 -1.421875 
Q 18.84375 -1.421875 12.171875 6.21875 
Q 5.515625 13.875 5.515625 27.296875 
Q 5.515625 40.765625 12.171875 48.375 
Q 18.84375 56 30.609375 56 
" id="BitstreamVeraSans-Roman-6f"/>
      <path d="M 9.421875 75.984375 
L 18.40625 75.984375 
L 18.40625 0 
L 9.421875 0 
z
" id="BitstreamVeraSans-Roman-6c"/>
      <path d="M 19.671875 64.796875 
L 19.671875 8.109375 
L 31.59375 8.109375 
Q 46.6875 8.109375 53.6875 14.9375 
Q 60.6875 21.78125 60.6875 36.53125 
Q 60.6875 51.171875 53.6875 57.984375 
Q 46.6875 64.796875 31.59375 64.796875 
z
M 9.8125 72.90625 
L 30.078125 72.90625 
Q 51.265625 72.90625 61.171875 64.09375 
Q 71.09375 55.28125 71.09375 36.53125 
Q 71.09375 17.671875 61.125 8.828125 
Q 51.171875 0 30.078125 0 
L 9.8125 0 
z
" id="BitstreamVeraSans-Roman-44"/>
      <path d="M 45.40625 27.984375 
Q 45.40625 37.75 41.375 43.109375 
Q 37.359375 48.484375 30.078125 48.484375 
Q 22.859375 48.484375 18.828125 43.109375 
Q 14.796875 37.75 14.796875 27.984375 
Q 14.796875 18.265625 18.828125 12.890625 
Q 22.859375 7.515625 30.078125 7.515625 
Q 37.359375 7.515625 41.375 12.890625 
Q 45.40625 18.265625 45.40625 27.984375 
M 54.390625 6.78125 
Q 54.390625 -7.171875 48.1875 -13.984375 
Q 42 -20.796875 29.203125 -20.796875 
Q 24.46875 -20.796875 20.265625 -20.09375 
Q 16.0625 -19.390625 12.109375 -17.921875 
L 12.109375 -9.1875 
Q 16.0625 -11.328125 19.921875 -12.34375 
Q 23.78125 -13.375 27.78125 -13.375 
Q 36.625 -13.375 41.015625 -8.765625 
Q 45.40625 -4.15625 45.40625 5.171875 
L 45.40625 9.625 
Q 42.625 4.78125 38.28125 2.390625 
Q 33.9375 0 27.875 0 
Q 17.828125 0 11.671875 7.65625 
Q 5.515625 15.328125 5.515625 27.984375 
Q 5.515625 40.671875 11.671875 48.328125 
Q 17.828125 56 27.875 56 
Q 33.9375 56 38.28125 53.609375 
Q 42.625 51.21875 45.40625 46.390625 
L 45.40625 54.6875 
L 54.390625 54.6875 
z
" id="BitstreamVeraSans-Roman-67"/>
      <path d="M 37.109375 75.984375 
L 37.109375 68.5 
L 28.515625 68.5 
Q 23.6875 68.5 21.796875 66.546875 
Q 19.921875 64.59375 19.921875 59.515625 
L 19.921875 54.6875 
L 34.71875 54.6875 
L 34.71875 47.703125 
L 19.921875 47.703125 
L 19.921875 0 
L 10.890625 0 
L 10.890625 47.703125 
L 2.296875 47.703125 
L 2.296875 54.6875 
L 10.890625 54.6875 
L 10.890625 58.5 
Q 10.890625 67.625 15.140625 71.796875 
Q 19.390625 75.984375 28.609375 75.984375 
z
" id="BitstreamVeraSans-Roman-66"/>
     </defs>
     <g transform="translate(175.2140625 396.353125)scale(0.2 -0.2)">
      <use xlink:href="#BitstreamVeraSans-Roman-6c"/>
      <use x="27.783203125" xlink:href="#BitstreamVeraSans-Roman-6f"/>
      <use x="88.96484375" xlink:href="#BitstreamVeraSans-Roman-67"/>
      <use x="152.44140625" xlink:href="#BitstreamVeraSans-Roman-31"/>
      <use x="216.064453125" xlink:href="#BitstreamVeraSans-Roman-30"/>
      <use x="279.6875" xlink:href="#BitstreamVeraSans-Roman-20"/>
      <use x="311.474609375" xlink:href="#BitstreamVeraSans-Roman-6f"/>
      <use x="372.65625" xlink:href="#BitstreamVeraSans-Roman-66"/>
      <use x="407.861328125" xlink:href="#BitstreamVeraSans-Roman-20"/>
      <use x="439.6484375" xlink:href="#BitstreamVeraSans-Roman-44"/>
      <use x="516.650390625" xlink:href="#BitstreamVeraSans-Roman-66"/>
     </g>
    </g>
   </g>
   <g id="matplotlib.axis_2">
    <g id="ytick_1">
     <g id="line2d_49">
      <path clip-path="url(#pb84f6690f5)" d="M 7.2 352.8 
L 453.6 352.8 
" style="fill:none;stroke:#000000;stroke-dasharray:1.000000,3.000000;stroke-dashoffset:0.0;stroke-width:0.5;"/>
     </g>
     <g id="line2d_50">
      <defs>
       <path d="M 0 0 
L 4 0 
" id="m3e62e32a4a" style="stroke:#000000;stroke-width:0.5;"/>
      </defs>
      <g>
       <use style="stroke:#000000;stroke-width:0.5;" x="7.2" xlink:href="#m3e62e32a4a" y="352.8"/>
      </g>
     </g>
     <g id="line2d_51">
      <defs>
       <path d="M 0 0 
L -4 0 
" id="m8a97f88283" style="stroke:#000000;stroke-width:0.5;"/>
      </defs>
      <g>
       <use style="stroke:#000000;stroke-width:0.5;" x="453.6" xlink:href="#m8a97f88283" y="352.8"/>
      </g>
     </g>
    </g>
    <g id="ytick_2">
     <g id="line2d_52">
      <path clip-path="url(#pb84f6690f5)" d="M 7.2 284.364356 
L 453.6 284.364356 
" style="fill:none;stroke:#000000;stroke-dasharray:1.000000,3.000000;stroke-dashoffset:0.0;stroke-width:0.5;"/>
     </g>
     <g id="line2d_53">
      <g>
       <use style="stroke:#000000;stroke-width:0.5;" x="7.2" xlink:href="#m3e62e32a4a" y="284.364356436"/>
      </g>
     </g>
     <g id="line2d_54">
      <g>
       <use style="stroke:#000000;stroke-width:0.5;" x="453.6" xlink:href="#m8a97f88283" y="284.364356436"/>
      </g>
     </g>
    </g>
    <g id="ytick_3">
     <g id="line2d_55">
      <path clip-path="url(#pb84f6690f5)" d="M 7.2 215.928713 
L 453.6 215.928713 
" style="fill:none;stroke:#000000;stroke-dasharray:1.000000,3.000000;stroke-dashoffset:0.0;stroke-width:0.5;"/>
     </g>
     <g id="line2d_56">
      <g>
       <use style="stroke:#000000;stroke-width:0.5;" x="7.2" xlink:href="#m3e62e32a4a" y="215.928712871"/>
      </g>
     </g>
     <g id="line2d_57">
      <g>
       <use style="stroke:#000000;stroke-width:0.5;" x="453.6" xlink:href="#m8a97f88283" y="215.928712871"/>
      </g>
     </g>
    </g>
    <g id="ytick_4">
     <g id="line2d_58">
      <path clip-path="url(#pb84f6690f5)" d="M 7.2 147.493069 
L 453.6 147.493069 
" style="fill:none;stroke:#000000;stroke-dasharray:1.000000,3.000000;stroke-dashoffset:0.0;stroke-width:0.5;"/>
     </g>
     <g id="line2d_59">
      <g>
       <use style="stroke:#000000;stroke-width:0.5;" x="7.2" xlink:href="#m3e62e32a4a" y="147.493069307"/>
      </g>
     </g>
     <g id="line2d_60">
      <g>
       <use style="stroke:#000000;stroke-width:0.5;" x="453.6" xlink:href="#m8a97f88283" y="147.493069307"/>
      </g>
     </g>
    </g>
    <g id="ytick_5">
     <g id="line2d_61">
      <path clip-path="url(#pb84f6690f5)" d="M 7.2 79.057426 
L 453.6 79.057426 
" style="fill:none;stroke:#000000;stroke-dasharray:1.000000,3.000000;stroke-dashoffset:0.0;stroke-width:0.5;"/>
     </g>
     <g id="line2d_62">
      <g>
       <use style="stroke:#000000;stroke-width:0.5;" x="7.2" xlink:href="#m3e62e32a4a" y="79.0574257426"/>
      </g>
     </g>
     <g id="line2d_63">
      <g>
       <use style="stroke:#000000;stroke-width:0.5;" x="453.6" xlink:href="#m8a97f88283" y="79.0574257426"/>
      </g>
     </g>
    </g>
    <g id="ytick_6">
     <g id="line2d_64">
      <path clip-path="url(#pb84f6690f5)" d="M 7.2 10.621782 
L 453.6 10.621782 
" style="fill:none;stroke:#000000;stroke-dasharray:1.000000,3.000000;stroke-dashoffset:0.0;stroke-width:0.5;"/>
     </g>
     <g id="line2d_65">
      <g>
       <use style="stroke:#000000;stroke-width:0.5;" x="7.2" xlink:href="#m3e62e32a4a" y="10.6217821782"/>
      </g>
     </g>
     <g id="line2d_66">
      <g>
       <use style="stroke:#000000;stroke-width:0.5;" x="453.6" xlink:href="#m8a97f88283" y="10.6217821782"/>
      </g>
     </g>
    </g>
   </g>
   <g id="text_9">
    <!-- {f1-f18}, 5-D -->
    <defs>
     <path d="M 11.71875 12.40625 
L 22.015625 12.40625 
L 22.015625 4 
L 14.015625 -11.625 
L 7.71875 -11.625 
L 11.71875 4 
z
" id="BitstreamVeraSans-Roman-2c"/>
     <path d="M 31.78125 34.625 
Q 24.75 34.625 20.71875 30.859375 
Q 16.703125 27.09375 16.703125 20.515625 
Q 16.703125 13.921875 20.71875 10.15625 
Q 24.75 6.390625 31.78125 6.390625 
Q 38.8125 6.390625 42.859375 10.171875 
Q 46.921875 13.96875 46.921875 20.515625 
Q 46.921875 27.09375 42.890625 30.859375 
Q 38.875 34.625 31.78125 34.625 
M 21.921875 38.8125 
Q 15.578125 40.375 12.03125 44.71875 
Q 8.5 49.078125 8.5 55.328125 
Q 8.5 64.0625 14.71875 69.140625 
Q 20.953125 74.21875 31.78125 74.21875 
Q 42.671875 74.21875 48.875 69.140625 
Q 55.078125 64.0625 55.078125 55.328125 
Q 55.078125 49.078125 51.53125 44.71875 
Q 48 40.375 41.703125 38.8125 
Q 48.828125 37.15625 52.796875 32.3125 
Q 56.78125 27.484375 56.78125 20.515625 
Q 56.78125 9.90625 50.3125 4.234375 
Q 43.84375 -1.421875 31.78125 -1.421875 
Q 19.734375 -1.421875 13.25 4.234375 
Q 6.78125 9.90625 6.78125 20.515625 
Q 6.78125 27.484375 10.78125 32.3125 
Q 14.796875 37.15625 21.921875 38.8125 
M 18.3125 54.390625 
Q 18.3125 48.734375 21.84375 45.5625 
Q 25.390625 42.390625 31.78125 42.390625 
Q 38.140625 42.390625 41.71875 45.5625 
Q 45.3125 48.734375 45.3125 54.390625 
Q 45.3125 60.0625 41.71875 63.234375 
Q 38.140625 66.40625 31.78125 66.40625 
Q 25.390625 66.40625 21.84375 63.234375 
Q 18.3125 60.0625 18.3125 54.390625 
" id="BitstreamVeraSans-Roman-38"/>
     <path d="M 51.125 -9.28125 
L 51.125 -16.3125 
L 48.09375 -16.3125 
Q 35.9375 -16.3125 31.8125 -12.6875 
Q 27.6875 -9.078125 27.6875 1.703125 
L 27.6875 13.375 
Q 27.6875 20.75 25.046875 23.578125 
Q 22.40625 26.421875 15.484375 26.421875 
L 12.5 26.421875 
L 12.5 33.40625 
L 15.484375 33.40625 
Q 22.46875 33.40625 25.078125 36.203125 
Q 27.6875 39.015625 27.6875 46.296875 
L 27.6875 58.015625 
Q 27.6875 68.796875 31.8125 72.390625 
Q 35.9375 75.984375 48.09375 75.984375 
L 51.125 75.984375 
L 51.125 69 
L 47.796875 69 
Q 40.921875 69 38.8125 66.84375 
Q 36.71875 64.703125 36.71875 57.8125 
L 36.71875 45.703125 
Q 36.71875 38.03125 34.5 34.5625 
Q 32.28125 31.109375 26.90625 29.890625 
Q 32.328125 28.5625 34.515625 25.09375 
Q 36.71875 21.625 36.71875 14.015625 
L 36.71875 1.90625 
Q 36.71875 -4.984375 38.8125 -7.125 
Q 40.921875 -9.28125 47.796875 -9.28125 
z
" id="BitstreamVeraSans-Roman-7b"/>
     <path d="M 12.5 -9.28125 
L 15.921875 -9.28125 
Q 22.75 -9.28125 24.828125 -7.171875 
Q 26.90625 -5.078125 26.90625 1.90625 
L 26.90625 14.015625 
Q 26.90625 21.625 29.09375 25.09375 
Q 31.296875 28.5625 36.71875 29.890625 
Q 31.296875 31.109375 29.09375 34.5625 
Q 26.90625 38.03125 26.90625 45.703125 
L 26.90625 57.8125 
Q 26.90625 64.75 24.828125 66.875 
Q 22.75 69 15.921875 69 
L 12.5 69 
L 12.5 75.984375 
L 15.578125 75.984375 
Q 27.734375 75.984375 31.8125 72.390625 
Q 35.890625 68.796875 35.890625 58.015625 
L 35.890625 46.296875 
Q 35.890625 39.015625 38.515625 36.203125 
Q 41.15625 33.40625 48.09375 33.40625 
L 51.125 33.40625 
L 51.125 26.421875 
L 48.09375 26.421875 
Q 41.15625 26.421875 38.515625 23.578125 
Q 35.890625 20.75 35.890625 13.375 
L 35.890625 1.703125 
Q 35.890625 -9.078125 31.8125 -12.6875 
Q 27.734375 -16.3125 15.578125 -16.3125 
L 12.5 -16.3125 
z
" id="BitstreamVeraSans-Roman-7d"/>
     <path d="M 10.796875 72.90625 
L 49.515625 72.90625 
L 49.515625 64.59375 
L 19.828125 64.59375 
L 19.828125 46.734375 
Q 21.96875 47.46875 24.109375 47.828125 
Q 26.265625 48.1875 28.421875 48.1875 
Q 40.625 48.1875 47.75 41.5 
Q 54.890625 34.8125 54.890625 23.390625 
Q 54.890625 11.625 47.5625 5.09375 
Q 40.234375 -1.421875 26.90625 -1.421875 
Q 22.3125 -1.421875 17.546875 -0.640625 
Q 12.796875 0.140625 7.71875 1.703125 
L 7.71875 11.625 
Q 12.109375 9.234375 16.796875 8.0625 
Q 21.484375 6.890625 26.703125 6.890625 
Q 35.15625 6.890625 40.078125 11.328125 
Q 45.015625 15.765625 45.015625 23.390625 
Q 45.015625 31 40.078125 35.4375 
Q 35.15625 39.890625 26.703125 39.890625 
Q 22.75 39.890625 18.8125 39.015625 
Q 14.890625 38.140625 10.796875 36.28125 
z
" id="BitstreamVeraSans-Roman-35"/>
    </defs>
    <g transform="translate(311.697 345.888)scale(0.2 -0.2)">
     <use xlink:href="#BitstreamVeraSans-Roman-7b"/>
     <use x="63.623046875" xlink:href="#BitstreamVeraSans-Roman-66"/>
     <use x="98.828125" xlink:href="#BitstreamVeraSans-Roman-31"/>
     <use x="162.451171875" xlink:href="#BitstreamVeraSans-Roman-2d"/>
     <use x="198.53515625" xlink:href="#BitstreamVeraSans-Roman-66"/>
     <use x="233.740234375" xlink:href="#BitstreamVeraSans-Roman-31"/>
     <use x="297.36328125" xlink:href="#BitstreamVeraSans-Roman-38"/>
     <use x="360.986328125" xlink:href="#BitstreamVeraSans-Roman-7d"/>
     <use x="424.609375" xlink:href="#BitstreamVeraSans-Roman-2c"/>
     <use x="456.396484375" xlink:href="#BitstreamVeraSans-Roman-20"/>
     <use x="488.18359375" xlink:href="#BitstreamVeraSans-Roman-35"/>
     <use x="551.806640625" xlink:href="#BitstreamVeraSans-Roman-2d"/>
     <use x="587.890625" xlink:href="#BitstreamVeraSans-Roman-44"/>
    </g>
   </g>
   <g id="text_10">
    <!-- v2.0.264 -->
    <defs>
     <path d="M 2.984375 54.6875 
L 12.5 54.6875 
L 29.59375 8.796875 
L 46.6875 54.6875 
L 56.203125 54.6875 
L 35.6875 0 
L 23.484375 0 
z
" id="BitstreamVeraSans-Roman-76"/>
     <path d="M 10.6875 12.40625 
L 21 12.40625 
L 21 0 
L 10.6875 0 
z
" id="BitstreamVeraSans-Roman-2e"/>
    </defs>
    <g style="fill:#808080;" transform="translate(208.35625 347.2643125)scale(0.1 -0.1)">
     <use xlink:href="#BitstreamVeraSans-Roman-76"/>
     <use x="59.1796875" xlink:href="#BitstreamVeraSans-Roman-32"/>
     <use x="122.802734375" xlink:href="#BitstreamVeraSans-Roman-2e"/>
     <use x="154.58984375" xlink:href="#BitstreamVeraSans-Roman-30"/>
     <use x="218.212890625" xlink:href="#BitstreamVeraSans-Roman-2e"/>
     <use x="250.0" xlink:href="#BitstreamVeraSans-Roman-32"/>
     <use x="313.623046875" xlink:href="#BitstreamVeraSans-Roman-36"/>
     <use x="377.24609375" xlink:href="#BitstreamVeraSans-Roman-34"/>
    </g>
   </g>
  </g>
 </g>
 <defs>
  <clipPath id="pb84f6690f5">
   <rect height="345.6" width="446.4" x="7.2" y="7.2"/>
  </clipPath>
 </defs>
</svg>
