<?xml version="1.0" encoding="utf-8" standalone="no"?>
<!DOCTYPE svg PUBLIC "-//W3C//DTD SVG 1.1//EN"
  "http://www.w3.org/Graphics/SVG/1.1/DTD/svg11.dtd">
<!-- Created with matplotlib (https://matplotlib.org/) -->
<svg height="345.6pt" version="1.1" viewBox="0 0 460.8 345.6" width="460.8pt" xmlns="http://www.w3.org/2000/svg" xmlns:xlink="http://www.w3.org/1999/xlink">
 <defs>
  <style type="text/css">
*{stroke-linecap:butt;stroke-linejoin:round;}
  </style>
 </defs>
 <g id="figure_1">
  <g id="patch_1">
   <path d="M 0 345.6 
L 460.8 345.6 
L 460.8 0 
L 0 0 
z
" style="fill:#ffffff;"/>
  </g>
  <g id="axes_1">
   <g id="patch_2">
    <path d="M 57.6 298.944 
L 338.688 298.944 
L 338.688 27.648 
L 57.6 27.648 
z
" style="fill:#ffffff;"/>
   </g>
   <g id="line2d_1">
    <path d="M 29.53256 298.944 
L 29.53256 294.312795 
L 53.708537 294.312795 
L 53.708537 285.050384 
L 85.66744 285.050384 
L 85.66744 275.787974 
L 142.459451 275.787974 
L 142.459451 271.156769 
L 164.272154 271.156769 
L 164.272154 257.263153 
L 182.624282 257.263153 
L 182.624282 248.000743 
L 200.911397 248.000743 
L 200.911397 243.369538 
L 215.095162 243.369538 
L 215.095162 234.107127 
L 223.940806 234.107127 
L 223.940806 220.213512 
L 229.80645 220.213512 
L 229.80645 210.951101 
L 245.753185 210.951101 
L 245.753185 201.688691 
L 259.403623 201.688691 
L 259.403623 192.426281 
L 277.46406 192.426281 
L 277.46406 187.795075 
L 289.70921 187.795075 
L 289.70921 173.90146 
L 309.625716 173.90146 
L 309.625716 169.270255 
L 315.264933 169.270255 
L 315.264933 155.376639 
L 328.672447 155.376639 
L 328.672447 146.114229 
L 338.688 146.114229 
" style="fill:none;stroke:#f5deb3;stroke-linecap:square;stroke-width:4;"/>
   </g>
   <g id="line2d_2">
    <defs>
     <path d="M 0 7.778175 
L 7.778175 0 
L 0 -7.778175 
L -7.778175 0 
z
" id="m78cb28ae4a" style="stroke:#f5deb3;stroke-linejoin:miter;stroke-width:1.5;"/>
    </defs>
    <g>
     <use style="fill:#f5deb3;stroke:#f5deb3;stroke-linejoin:miter;stroke-width:1.5;" x="164.272154" xlink:href="#m78cb28ae4a" y="271.156769"/>
     <use style="fill:#f5deb3;stroke:#f5deb3;stroke-linejoin:miter;stroke-width:1.5;" x="223.940806" xlink:href="#m78cb28ae4a" y="234.107127"/>
     <use style="fill:#f5deb3;stroke:#f5deb3;stroke-linejoin:miter;stroke-width:1.5;" x="289.70921" xlink:href="#m78cb28ae4a" y="187.795075"/>
     <use style="fill:#f5deb3;stroke:#f5deb3;stroke-linejoin:miter;stroke-width:1.5;" x="328.672447" xlink:href="#m78cb28ae4a" y="146.114229"/>
     <use style="fill:#f5deb3;stroke:#f5deb3;stroke-linejoin:miter;stroke-width:1.5;" x="338.688" xlink:href="#m78cb28ae4a" y="146.114229"/>
    </g>
   </g>
   <g id="line2d_3">
    <path style="fill:none;stroke:#f5deb3;stroke-linecap:square;stroke-width:4;"/>
    <g/>
   </g>
   <g id="line2d_4">
    <path d="M 338.688 146.114229 
L 369.60768 35.706297 
" style="fill:none;stroke:#f5deb3;stroke-linecap:square;stroke-width:4;"/>
    <g>
     <use style="fill:#f5deb3;stroke:#f5deb3;stroke-linejoin:miter;stroke-width:1.5;" x="338.688" xlink:href="#m78cb28ae4a" y="146.114229"/>
     <use style="fill:#f5deb3;stroke:#f5deb3;stroke-linejoin:miter;stroke-width:1.5;" x="369.60768" xlink:href="#m78cb28ae4a" y="35.706297"/>
    </g>
   </g>
   <g id="matplotlib.axis_1">
    <g id="xtick_1">
     <g id="line2d_5">
      <path clip-path="url(#pd8b83fe26a)" d="M 57.6 298.944 
L 57.6 27.648 
" style="fill:none;stroke:#b0b0b0;stroke-linecap:square;stroke-width:0.8;"/>
     </g>
     <g id="line2d_6">
      <defs>
       <path d="M 0 0 
L 0 3.5 
" id="m228ffce76b" style="stroke:#000000;stroke-width:0.8;"/>
      </defs>
      <g>
       <use style="stroke:#000000;stroke-width:0.8;" x="57.6" xlink:href="#m228ffce76b" y="298.944"/>
      </g>
     </g>
     <g id="text_1">
      <!-- 0 -->
      <defs>
       <path d="M 31.78125 66.40625 
Q 24.171875 66.40625 20.328125 58.90625 
Q 16.5 51.421875 16.5 36.375 
Q 16.5 21.390625 20.328125 13.890625 
Q 24.171875 6.390625 31.78125 6.390625 
Q 39.453125 6.390625 43.28125 13.890625 
Q 47.125 21.390625 47.125 36.375 
Q 47.125 51.421875 43.28125 58.90625 
Q 39.453125 66.40625 31.78125 66.40625 
z
M 31.78125 74.21875 
Q 44.046875 74.21875 50.515625 64.515625 
Q 56.984375 54.828125 56.984375 36.375 
Q 56.984375 17.96875 50.515625 8.265625 
Q 44.046875 -1.421875 31.78125 -1.421875 
Q 19.53125 -1.421875 13.0625 8.265625 
Q 6.59375 17.96875 6.59375 36.375 
Q 6.59375 54.828125 13.0625 64.515625 
Q 19.53125 74.21875 31.78125 74.21875 
z
" id="DejaVuSans-48"/>
      </defs>
      <g transform="translate(51.2375 321.140875)scale(0.2 -0.2)">
       <use xlink:href="#DejaVuSans-48"/>
      </g>
     </g>
    </g>
    <g id="xtick_2">
     <g id="line2d_7">
      <path clip-path="url(#pd8b83fe26a)" d="M 137.910857 298.944 
L 137.910857 27.648 
" style="fill:none;stroke:#b0b0b0;stroke-linecap:square;stroke-width:0.8;"/>
     </g>
     <g id="line2d_8">
      <g>
       <use style="stroke:#000000;stroke-width:0.8;" x="137.910857" xlink:href="#m228ffce76b" y="298.944"/>
      </g>
     </g>
     <g id="text_2">
      <!-- 2 -->
      <defs>
       <path d="M 19.1875 8.296875 
L 53.609375 8.296875 
L 53.609375 0 
L 7.328125 0 
L 7.328125 8.296875 
Q 12.9375 14.109375 22.625 23.890625 
Q 32.328125 33.6875 34.8125 36.53125 
Q 39.546875 41.84375 41.421875 45.53125 
Q 43.3125 49.21875 43.3125 52.78125 
Q 43.3125 58.59375 39.234375 62.25 
Q 35.15625 65.921875 28.609375 65.921875 
Q 23.96875 65.921875 18.8125 64.3125 
Q 13.671875 62.703125 7.8125 59.421875 
L 7.8125 69.390625 
Q 13.765625 71.78125 18.9375 73 
Q 24.125 74.21875 28.421875 74.21875 
Q 39.75 74.21875 46.484375 68.546875 
Q 53.21875 62.890625 53.21875 53.421875 
Q 53.21875 48.921875 51.53125 44.890625 
Q 49.859375 40.875 45.40625 35.40625 
Q 44.1875 33.984375 37.640625 27.21875 
Q 31.109375 20.453125 19.1875 8.296875 
z
" id="DejaVuSans-50"/>
      </defs>
      <g transform="translate(131.548357 321.140875)scale(0.2 -0.2)">
       <use xlink:href="#DejaVuSans-50"/>
      </g>
     </g>
    </g>
    <g id="xtick_3">
     <g id="line2d_9">
      <path clip-path="url(#pd8b83fe26a)" d="M 218.221714 298.944 
L 218.221714 27.648 
" style="fill:none;stroke:#b0b0b0;stroke-linecap:square;stroke-width:0.8;"/>
     </g>
     <g id="line2d_10">
      <g>
       <use style="stroke:#000000;stroke-width:0.8;" x="218.221714" xlink:href="#m228ffce76b" y="298.944"/>
      </g>
     </g>
     <g id="text_3">
      <!-- 4 -->
      <defs>
       <path d="M 37.796875 64.3125 
L 12.890625 25.390625 
L 37.796875 25.390625 
z
M 35.203125 72.90625 
L 47.609375 72.90625 
L 47.609375 25.390625 
L 58.015625 25.390625 
L 58.015625 17.1875 
L 47.609375 17.1875 
L 47.609375 0 
L 37.796875 0 
L 37.796875 17.1875 
L 4.890625 17.1875 
L 4.890625 26.703125 
z
" id="DejaVuSans-52"/>
      </defs>
      <g transform="translate(211.859214 321.140875)scale(0.2 -0.2)">
       <use xlink:href="#DejaVuSans-52"/>
      </g>
     </g>
    </g>
    <g id="xtick_4">
     <g id="line2d_11">
      <path clip-path="url(#pd8b83fe26a)" d="M 298.532571 298.944 
L 298.532571 27.648 
" style="fill:none;stroke:#b0b0b0;stroke-linecap:square;stroke-width:0.8;"/>
     </g>
     <g id="line2d_12">
      <g>
       <use style="stroke:#000000;stroke-width:0.8;" x="298.532571" xlink:href="#m228ffce76b" y="298.944"/>
      </g>
     </g>
     <g id="text_4">
      <!-- 6 -->
      <defs>
       <path d="M 33.015625 40.375 
Q 26.375 40.375 22.484375 35.828125 
Q 18.609375 31.296875 18.609375 23.390625 
Q 18.609375 15.53125 22.484375 10.953125 
Q 26.375 6.390625 33.015625 6.390625 
Q 39.65625 6.390625 43.53125 10.953125 
Q 47.40625 15.53125 47.40625 23.390625 
Q 47.40625 31.296875 43.53125 35.828125 
Q 39.65625 40.375 33.015625 40.375 
z
M 52.59375 71.296875 
L 52.59375 62.3125 
Q 48.875 64.0625 45.09375 64.984375 
Q 41.3125 65.921875 37.59375 65.921875 
Q 27.828125 65.921875 22.671875 59.328125 
Q 17.53125 52.734375 16.796875 39.40625 
Q 19.671875 43.65625 24.015625 45.921875 
Q 28.375 48.1875 33.59375 48.1875 
Q 44.578125 48.1875 50.953125 41.515625 
Q 57.328125 34.859375 57.328125 23.390625 
Q 57.328125 12.15625 50.6875 5.359375 
Q 44.046875 -1.421875 33.015625 -1.421875 
Q 20.359375 -1.421875 13.671875 8.265625 
Q 6.984375 17.96875 6.984375 36.375 
Q 6.984375 53.65625 15.1875 63.9375 
Q 23.390625 74.21875 37.203125 74.21875 
Q 40.921875 74.21875 44.703125 73.484375 
Q 48.484375 72.75 52.59375 71.296875 
z
" id="DejaVuSans-54"/>
      </defs>
      <g transform="translate(292.170071 321.140875)scale(0.2 -0.2)">
       <use xlink:href="#DejaVuSans-54"/>
      </g>
     </g>
    </g>
    <g id="xtick_5">
     <g id="line2d_13">
      <path clip-path="url(#pd8b83fe26a)" d="M 97.755429 298.944 
L 97.755429 27.648 
" style="fill:none;stroke:#b0b0b0;stroke-linecap:square;stroke-width:0.8;"/>
     </g>
     <g id="line2d_14">
      <defs>
       <path d="M 0 0 
L 0 2 
" id="m378bc60172" style="stroke:#000000;stroke-width:0.6;"/>
      </defs>
      <g>
       <use style="stroke:#000000;stroke-width:0.6;" x="97.755429" xlink:href="#m378bc60172" y="298.944"/>
      </g>
     </g>
    </g>
    <g id="xtick_6">
     <g id="line2d_15">
      <path clip-path="url(#pd8b83fe26a)" d="M 178.066286 298.944 
L 178.066286 27.648 
" style="fill:none;stroke:#b0b0b0;stroke-linecap:square;stroke-width:0.8;"/>
     </g>
     <g id="line2d_16">
      <g>
       <use style="stroke:#000000;stroke-width:0.6;" x="178.066286" xlink:href="#m378bc60172" y="298.944"/>
      </g>
     </g>
    </g>
    <g id="xtick_7">
     <g id="line2d_17">
      <path clip-path="url(#pd8b83fe26a)" d="M 258.377143 298.944 
L 258.377143 27.648 
" style="fill:none;stroke:#b0b0b0;stroke-linecap:square;stroke-width:0.8;"/>
     </g>
     <g id="line2d_18">
      <g>
       <use style="stroke:#000000;stroke-width:0.6;" x="258.377143" xlink:href="#m378bc60172" y="298.944"/>
      </g>
     </g>
    </g>
    <g id="xtick_8">
     <g id="line2d_19">
      <path clip-path="url(#pd8b83fe26a)" d="M 338.688 298.944 
L 338.688 27.648 
" style="fill:none;stroke:#b0b0b0;stroke-linecap:square;stroke-width:0.8;"/>
     </g>
     <g id="line2d_20">
      <g>
       <use style="stroke:#000000;stroke-width:0.6;" x="338.688" xlink:href="#m378bc60172" y="298.944"/>
      </g>
     </g>
    </g>
    <g id="text_5">
     <!-- log10(# f-evals / dimension) -->
     <defs>
      <path d="M 9.421875 75.984375 
L 18.40625 75.984375 
L 18.40625 0 
L 9.421875 0 
z
" id="DejaVuSans-108"/>
      <path d="M 30.609375 48.390625 
Q 23.390625 48.390625 19.1875 42.75 
Q 14.984375 37.109375 14.984375 27.296875 
Q 14.984375 17.484375 19.15625 11.84375 
Q 23.34375 6.203125 30.609375 6.203125 
Q 37.796875 6.203125 41.984375 11.859375 
Q 46.1875 17.53125 46.1875 27.296875 
Q 46.1875 37.015625 41.984375 42.703125 
Q 37.796875 48.390625 30.609375 48.390625 
z
M 30.609375 56 
Q 42.328125 56 49.015625 48.375 
Q 55.71875 40.765625 55.71875 27.296875 
Q 55.71875 13.875 49.015625 6.21875 
Q 42.328125 -1.421875 30.609375 -1.421875 
Q 18.84375 -1.421875 12.171875 6.21875 
Q 5.515625 13.875 5.515625 27.296875 
Q 5.515625 40.765625 12.171875 48.375 
Q 18.84375 56 30.609375 56 
z
" id="DejaVuSans-111"/>
      <path d="M 45.40625 27.984375 
Q 45.40625 37.75 41.375 43.109375 
Q 37.359375 48.484375 30.078125 48.484375 
Q 22.859375 48.484375 18.828125 43.109375 
Q 14.796875 37.75 14.796875 27.984375 
Q 14.796875 18.265625 18.828125 12.890625 
Q 22.859375 7.515625 30.078125 7.515625 
Q 37.359375 7.515625 41.375 12.890625 
Q 45.40625 18.265625 45.40625 27.984375 
z
M 54.390625 6.78125 
Q 54.390625 -7.171875 48.1875 -13.984375 
Q 42 -20.796875 29.203125 -20.796875 
Q 24.46875 -20.796875 20.265625 -20.09375 
Q 16.0625 -19.390625 12.109375 -17.921875 
L 12.109375 -9.1875 
Q 16.0625 -11.328125 19.921875 -12.34375 
Q 23.78125 -13.375 27.78125 -13.375 
Q 36.625 -13.375 41.015625 -8.765625 
Q 45.40625 -4.15625 45.40625 5.171875 
L 45.40625 9.625 
Q 42.625 4.78125 38.28125 2.390625 
Q 33.9375 0 27.875 0 
Q 17.828125 0 11.671875 7.65625 
Q 5.515625 15.328125 5.515625 27.984375 
Q 5.515625 40.671875 11.671875 48.328125 
Q 17.828125 56 27.875 56 
Q 33.9375 56 38.28125 53.609375 
Q 42.625 51.21875 45.40625 46.390625 
L 45.40625 54.6875 
L 54.390625 54.6875 
z
" id="DejaVuSans-103"/>
      <path d="M 12.40625 8.296875 
L 28.515625 8.296875 
L 28.515625 63.921875 
L 10.984375 60.40625 
L 10.984375 69.390625 
L 28.421875 72.90625 
L 38.28125 72.90625 
L 38.28125 8.296875 
L 54.390625 8.296875 
L 54.390625 0 
L 12.40625 0 
z
" id="DejaVuSans-49"/>
      <path d="M 31 75.875 
Q 24.46875 64.65625 21.28125 53.65625 
Q 18.109375 42.671875 18.109375 31.390625 
Q 18.109375 20.125 21.3125 9.0625 
Q 24.515625 -2 31 -13.1875 
L 23.1875 -13.1875 
Q 15.875 -1.703125 12.234375 9.375 
Q 8.59375 20.453125 8.59375 31.390625 
Q 8.59375 42.28125 12.203125 53.3125 
Q 15.828125 64.359375 23.1875 75.875 
z
" id="DejaVuSans-40"/>
      <path d="M 51.125 44 
L 36.921875 44 
L 32.8125 27.6875 
L 47.125 27.6875 
z
M 43.796875 71.78125 
L 38.71875 51.515625 
L 52.984375 51.515625 
L 58.109375 71.78125 
L 65.921875 71.78125 
L 60.890625 51.515625 
L 76.125 51.515625 
L 76.125 44 
L 58.984375 44 
L 54.984375 27.6875 
L 70.515625 27.6875 
L 70.515625 20.21875 
L 53.078125 20.21875 
L 48 0 
L 40.1875 0 
L 45.21875 20.21875 
L 30.90625 20.21875 
L 25.875 0 
L 18.015625 0 
L 23.09375 20.21875 
L 7.71875 20.21875 
L 7.71875 27.6875 
L 24.90625 27.6875 
L 29 44 
L 13.28125 44 
L 13.28125 51.515625 
L 30.90625 51.515625 
L 35.890625 71.78125 
z
" id="DejaVuSans-35"/>
      <path id="DejaVuSans-32"/>
      <path d="M 37.109375 75.984375 
L 37.109375 68.5 
L 28.515625 68.5 
Q 23.6875 68.5 21.796875 66.546875 
Q 19.921875 64.59375 19.921875 59.515625 
L 19.921875 54.6875 
L 34.71875 54.6875 
L 34.71875 47.703125 
L 19.921875 47.703125 
L 19.921875 0 
L 10.890625 0 
L 10.890625 47.703125 
L 2.296875 47.703125 
L 2.296875 54.6875 
L 10.890625 54.6875 
L 10.890625 58.5 
Q 10.890625 67.625 15.140625 71.796875 
Q 19.390625 75.984375 28.609375 75.984375 
z
" id="DejaVuSans-102"/>
      <path d="M 4.890625 31.390625 
L 31.203125 31.390625 
L 31.203125 23.390625 
L 4.890625 23.390625 
z
" id="DejaVuSans-45"/>
      <path d="M 56.203125 29.59375 
L 56.203125 25.203125 
L 14.890625 25.203125 
Q 15.484375 15.921875 20.484375 11.0625 
Q 25.484375 6.203125 34.421875 6.203125 
Q 39.59375 6.203125 44.453125 7.46875 
Q 49.3125 8.734375 54.109375 11.28125 
L 54.109375 2.78125 
Q 49.265625 0.734375 44.1875 -0.34375 
Q 39.109375 -1.421875 33.890625 -1.421875 
Q 20.796875 -1.421875 13.15625 6.1875 
Q 5.515625 13.8125 5.515625 26.8125 
Q 5.515625 40.234375 12.765625 48.109375 
Q 20.015625 56 32.328125 56 
Q 43.359375 56 49.78125 48.890625 
Q 56.203125 41.796875 56.203125 29.59375 
z
M 47.21875 32.234375 
Q 47.125 39.59375 43.09375 43.984375 
Q 39.0625 48.390625 32.421875 48.390625 
Q 24.90625 48.390625 20.390625 44.140625 
Q 15.875 39.890625 15.1875 32.171875 
z
" id="DejaVuSans-101"/>
      <path d="M 2.984375 54.6875 
L 12.5 54.6875 
L 29.59375 8.796875 
L 46.6875 54.6875 
L 56.203125 54.6875 
L 35.6875 0 
L 23.484375 0 
z
" id="DejaVuSans-118"/>
      <path d="M 34.28125 27.484375 
Q 23.390625 27.484375 19.1875 25 
Q 14.984375 22.515625 14.984375 16.5 
Q 14.984375 11.71875 18.140625 8.90625 
Q 21.296875 6.109375 26.703125 6.109375 
Q 34.1875 6.109375 38.703125 11.40625 
Q 43.21875 16.703125 43.21875 25.484375 
L 43.21875 27.484375 
z
M 52.203125 31.203125 
L 52.203125 0 
L 43.21875 0 
L 43.21875 8.296875 
Q 40.140625 3.328125 35.546875 0.953125 
Q 30.953125 -1.421875 24.3125 -1.421875 
Q 15.921875 -1.421875 10.953125 3.296875 
Q 6 8.015625 6 15.921875 
Q 6 25.140625 12.171875 29.828125 
Q 18.359375 34.515625 30.609375 34.515625 
L 43.21875 34.515625 
L 43.21875 35.40625 
Q 43.21875 41.609375 39.140625 45 
Q 35.0625 48.390625 27.6875 48.390625 
Q 23 48.390625 18.546875 47.265625 
Q 14.109375 46.140625 10.015625 43.890625 
L 10.015625 52.203125 
Q 14.9375 54.109375 19.578125 55.046875 
Q 24.21875 56 28.609375 56 
Q 40.484375 56 46.34375 49.84375 
Q 52.203125 43.703125 52.203125 31.203125 
z
" id="DejaVuSans-97"/>
      <path d="M 44.28125 53.078125 
L 44.28125 44.578125 
Q 40.484375 46.53125 36.375 47.5 
Q 32.28125 48.484375 27.875 48.484375 
Q 21.1875 48.484375 17.84375 46.4375 
Q 14.5 44.390625 14.5 40.28125 
Q 14.5 37.15625 16.890625 35.375 
Q 19.28125 33.59375 26.515625 31.984375 
L 29.59375 31.296875 
Q 39.15625 29.25 43.1875 25.515625 
Q 47.21875 21.78125 47.21875 15.09375 
Q 47.21875 7.46875 41.1875 3.015625 
Q 35.15625 -1.421875 24.609375 -1.421875 
Q 20.21875 -1.421875 15.453125 -0.5625 
Q 10.6875 0.296875 5.421875 2 
L 5.421875 11.28125 
Q 10.40625 8.6875 15.234375 7.390625 
Q 20.0625 6.109375 24.8125 6.109375 
Q 31.15625 6.109375 34.5625 8.28125 
Q 37.984375 10.453125 37.984375 14.40625 
Q 37.984375 18.0625 35.515625 20.015625 
Q 33.0625 21.96875 24.703125 23.78125 
L 21.578125 24.515625 
Q 13.234375 26.265625 9.515625 29.90625 
Q 5.8125 33.546875 5.8125 39.890625 
Q 5.8125 47.609375 11.28125 51.796875 
Q 16.75 56 26.8125 56 
Q 31.78125 56 36.171875 55.265625 
Q 40.578125 54.546875 44.28125 53.078125 
z
" id="DejaVuSans-115"/>
      <path d="M 25.390625 72.90625 
L 33.6875 72.90625 
L 8.296875 -9.28125 
L 0 -9.28125 
z
" id="DejaVuSans-47"/>
      <path d="M 45.40625 46.390625 
L 45.40625 75.984375 
L 54.390625 75.984375 
L 54.390625 0 
L 45.40625 0 
L 45.40625 8.203125 
Q 42.578125 3.328125 38.25 0.953125 
Q 33.9375 -1.421875 27.875 -1.421875 
Q 17.96875 -1.421875 11.734375 6.484375 
Q 5.515625 14.40625 5.515625 27.296875 
Q 5.515625 40.1875 11.734375 48.09375 
Q 17.96875 56 27.875 56 
Q 33.9375 56 38.25 53.625 
Q 42.578125 51.265625 45.40625 46.390625 
z
M 14.796875 27.296875 
Q 14.796875 17.390625 18.875 11.75 
Q 22.953125 6.109375 30.078125 6.109375 
Q 37.203125 6.109375 41.296875 11.75 
Q 45.40625 17.390625 45.40625 27.296875 
Q 45.40625 37.203125 41.296875 42.84375 
Q 37.203125 48.484375 30.078125 48.484375 
Q 22.953125 48.484375 18.875 42.84375 
Q 14.796875 37.203125 14.796875 27.296875 
z
" id="DejaVuSans-100"/>
      <path d="M 9.421875 54.6875 
L 18.40625 54.6875 
L 18.40625 0 
L 9.421875 0 
z
M 9.421875 75.984375 
L 18.40625 75.984375 
L 18.40625 64.59375 
L 9.421875 64.59375 
z
" id="DejaVuSans-105"/>
      <path d="M 52 44.1875 
Q 55.375 50.25 60.0625 53.125 
Q 64.75 56 71.09375 56 
Q 79.640625 56 84.28125 50.015625 
Q 88.921875 44.046875 88.921875 33.015625 
L 88.921875 0 
L 79.890625 0 
L 79.890625 32.71875 
Q 79.890625 40.578125 77.09375 44.375 
Q 74.3125 48.1875 68.609375 48.1875 
Q 61.625 48.1875 57.5625 43.546875 
Q 53.515625 38.921875 53.515625 30.90625 
L 53.515625 0 
L 44.484375 0 
L 44.484375 32.71875 
Q 44.484375 40.625 41.703125 44.40625 
Q 38.921875 48.1875 33.109375 48.1875 
Q 26.21875 48.1875 22.15625 43.53125 
Q 18.109375 38.875 18.109375 30.90625 
L 18.109375 0 
L 9.078125 0 
L 9.078125 54.6875 
L 18.109375 54.6875 
L 18.109375 46.1875 
Q 21.1875 51.21875 25.484375 53.609375 
Q 29.78125 56 35.6875 56 
Q 41.65625 56 45.828125 52.96875 
Q 50 49.953125 52 44.1875 
z
" id="DejaVuSans-109"/>
      <path d="M 54.890625 33.015625 
L 54.890625 0 
L 45.90625 0 
L 45.90625 32.71875 
Q 45.90625 40.484375 42.875 44.328125 
Q 39.84375 48.1875 33.796875 48.1875 
Q 26.515625 48.1875 22.3125 43.546875 
Q 18.109375 38.921875 18.109375 30.90625 
L 18.109375 0 
L 9.078125 0 
L 9.078125 54.6875 
L 18.109375 54.6875 
L 18.109375 46.1875 
Q 21.34375 51.125 25.703125 53.5625 
Q 30.078125 56 35.796875 56 
Q 45.21875 56 50.046875 50.171875 
Q 54.890625 44.34375 54.890625 33.015625 
z
" id="DejaVuSans-110"/>
      <path d="M 8.015625 75.875 
L 15.828125 75.875 
Q 23.140625 64.359375 26.78125 53.3125 
Q 30.421875 42.28125 30.421875 31.390625 
Q 30.421875 20.453125 26.78125 9.375 
Q 23.140625 -1.703125 15.828125 -13.1875 
L 8.015625 -13.1875 
Q 14.5 -2 17.703125 9.0625 
Q 20.90625 20.125 20.90625 31.390625 
Q 20.90625 42.671875 17.703125 53.65625 
Q 14.5 64.65625 8.015625 75.875 
z
" id="DejaVuSans-41"/>
     </defs>
     <g transform="translate(77.303219 342.217594)scale(0.17 -0.17)">
      <use xlink:href="#DejaVuSans-108"/>
      <use x="27.783203" xlink:href="#DejaVuSans-111"/>
      <use x="88.964844" xlink:href="#DejaVuSans-103"/>
      <use x="152.441406" xlink:href="#DejaVuSans-49"/>
      <use x="216.064453" xlink:href="#DejaVuSans-48"/>
      <use x="279.6875" xlink:href="#DejaVuSans-40"/>
      <use x="318.701172" xlink:href="#DejaVuSans-35"/>
      <use x="402.490234" xlink:href="#DejaVuSans-32"/>
      <use x="434.277344" xlink:href="#DejaVuSans-102"/>
      <use x="469.404297" xlink:href="#DejaVuSans-45"/>
      <use x="505.488281" xlink:href="#DejaVuSans-101"/>
      <use x="567.011719" xlink:href="#DejaVuSans-118"/>
      <use x="626.191406" xlink:href="#DejaVuSans-97"/>
      <use x="687.470703" xlink:href="#DejaVuSans-108"/>
      <use x="715.253906" xlink:href="#DejaVuSans-115"/>
      <use x="767.353516" xlink:href="#DejaVuSans-32"/>
      <use x="799.140625" xlink:href="#DejaVuSans-47"/>
      <use x="832.832031" xlink:href="#DejaVuSans-32"/>
      <use x="864.619141" xlink:href="#DejaVuSans-100"/>
      <use x="928.095703" xlink:href="#DejaVuSans-105"/>
      <use x="955.878906" xlink:href="#DejaVuSans-109"/>
      <use x="1053.291016" xlink:href="#DejaVuSans-101"/>
      <use x="1114.814453" xlink:href="#DejaVuSans-110"/>
      <use x="1178.193359" xlink:href="#DejaVuSans-115"/>
      <use x="1230.292969" xlink:href="#DejaVuSans-105"/>
      <use x="1258.076172" xlink:href="#DejaVuSans-111"/>
      <use x="1319.257812" xlink:href="#DejaVuSans-110"/>
      <use x="1382.636719" xlink:href="#DejaVuSans-41"/>
     </g>
    </g>
   </g>
   <g id="matplotlib.axis_2">
    <g id="ytick_1">
     <g id="line2d_21">
      <path clip-path="url(#pd8b83fe26a)" d="M 57.6 298.944 
L 338.688 298.944 
" style="fill:none;stroke:#b0b0b0;stroke-linecap:square;stroke-width:0.8;"/>
     </g>
     <g id="line2d_22">
      <defs>
       <path d="M 0 0 
L -3.5 0 
" id="m17fc8a5813" style="stroke:#000000;stroke-width:0.8;"/>
      </defs>
      <g>
       <use style="stroke:#000000;stroke-width:0.8;" x="57.6" xlink:href="#m17fc8a5813" y="298.944"/>
      </g>
     </g>
     <g id="text_6">
      <!-- 0.0 -->
      <defs>
       <path d="M 10.6875 12.40625 
L 21 12.40625 
L 21 0 
L 10.6875 0 
z
" id="DejaVuSans-46"/>
      </defs>
      <g transform="translate(25.155 305.02275)scale(0.16 -0.16)">
       <use xlink:href="#DejaVuSans-48"/>
       <use x="63.623047" xlink:href="#DejaVuSans-46"/>
       <use x="95.410156" xlink:href="#DejaVuSans-48"/>
      </g>
     </g>
    </g>
    <g id="ytick_2">
     <g id="line2d_23">
      <path clip-path="url(#pd8b83fe26a)" d="M 57.6 245.22202 
L 338.688 245.22202 
" style="fill:none;stroke:#b0b0b0;stroke-linecap:square;stroke-width:0.8;"/>
     </g>
     <g id="line2d_24">
      <g>
       <use style="stroke:#000000;stroke-width:0.8;" x="57.6" xlink:href="#m17fc8a5813" y="245.22202"/>
      </g>
     </g>
     <g id="text_7">
      <!-- 0.2 -->
      <g transform="translate(25.155 251.30077)scale(0.16 -0.16)">
       <use xlink:href="#DejaVuSans-48"/>
       <use x="63.623047" xlink:href="#DejaVuSans-46"/>
       <use x="95.410156" xlink:href="#DejaVuSans-50"/>
      </g>
     </g>
    </g>
    <g id="ytick_3">
     <g id="line2d_25">
      <path clip-path="url(#pd8b83fe26a)" d="M 57.6 191.50004 
L 338.688 191.50004 
" style="fill:none;stroke:#b0b0b0;stroke-linecap:square;stroke-width:0.8;"/>
     </g>
     <g id="line2d_26">
      <g>
       <use style="stroke:#000000;stroke-width:0.8;" x="57.6" xlink:href="#m17fc8a5813" y="191.50004"/>
      </g>
     </g>
     <g id="text_8">
      <!-- 0.4 -->
      <g transform="translate(25.155 197.57879)scale(0.16 -0.16)">
       <use xlink:href="#DejaVuSans-48"/>
       <use x="63.623047" xlink:href="#DejaVuSans-46"/>
       <use x="95.410156" xlink:href="#DejaVuSans-52"/>
      </g>
     </g>
    </g>
    <g id="ytick_4">
     <g id="line2d_27">
      <path clip-path="url(#pd8b83fe26a)" d="M 57.6 137.778059 
L 338.688 137.778059 
" style="fill:none;stroke:#b0b0b0;stroke-linecap:square;stroke-width:0.8;"/>
     </g>
     <g id="line2d_28">
      <g>
       <use style="stroke:#000000;stroke-width:0.8;" x="57.6" xlink:href="#m17fc8a5813" y="137.778059"/>
      </g>
     </g>
     <g id="text_9">
      <!-- 0.6 -->
      <g transform="translate(25.155 143.856809)scale(0.16 -0.16)">
       <use xlink:href="#DejaVuSans-48"/>
       <use x="63.623047" xlink:href="#DejaVuSans-46"/>
       <use x="95.410156" xlink:href="#DejaVuSans-54"/>
      </g>
     </g>
    </g>
    <g id="ytick_5">
     <g id="line2d_29">
      <path clip-path="url(#pd8b83fe26a)" d="M 57.6 84.056079 
L 338.688 84.056079 
" style="fill:none;stroke:#b0b0b0;stroke-linecap:square;stroke-width:0.8;"/>
     </g>
     <g id="line2d_30">
      <g>
       <use style="stroke:#000000;stroke-width:0.8;" x="57.6" xlink:href="#m17fc8a5813" y="84.056079"/>
      </g>
     </g>
     <g id="text_10">
      <!-- 0.8 -->
      <defs>
       <path d="M 31.78125 34.625 
Q 24.75 34.625 20.71875 30.859375 
Q 16.703125 27.09375 16.703125 20.515625 
Q 16.703125 13.921875 20.71875 10.15625 
Q 24.75 6.390625 31.78125 6.390625 
Q 38.8125 6.390625 42.859375 10.171875 
Q 46.921875 13.96875 46.921875 20.515625 
Q 46.921875 27.09375 42.890625 30.859375 
Q 38.875 34.625 31.78125 34.625 
z
M 21.921875 38.8125 
Q 15.578125 40.375 12.03125 44.71875 
Q 8.5 49.078125 8.5 55.328125 
Q 8.5 64.0625 14.71875 69.140625 
Q 20.953125 74.21875 31.78125 74.21875 
Q 42.671875 74.21875 48.875 69.140625 
Q 55.078125 64.0625 55.078125 55.328125 
Q 55.078125 49.078125 51.53125 44.71875 
Q 48 40.375 41.703125 38.8125 
Q 48.828125 37.15625 52.796875 32.3125 
Q 56.78125 27.484375 56.78125 20.515625 
Q 56.78125 9.90625 50.3125 4.234375 
Q 43.84375 -1.421875 31.78125 -1.421875 
Q 19.734375 -1.421875 13.25 4.234375 
Q 6.78125 9.90625 6.78125 20.515625 
Q 6.78125 27.484375 10.78125 32.3125 
Q 14.796875 37.15625 21.921875 38.8125 
z
M 18.3125 54.390625 
Q 18.3125 48.734375 21.84375 45.5625 
Q 25.390625 42.390625 31.78125 42.390625 
Q 38.140625 42.390625 41.71875 45.5625 
Q 45.3125 48.734375 45.3125 54.390625 
Q 45.3125 60.0625 41.71875 63.234375 
Q 38.140625 66.40625 31.78125 66.40625 
Q 25.390625 66.40625 21.84375 63.234375 
Q 18.3125 60.0625 18.3125 54.390625 
z
" id="DejaVuSans-56"/>
      </defs>
      <g transform="translate(25.155 90.134829)scale(0.16 -0.16)">
       <use xlink:href="#DejaVuSans-48"/>
       <use x="63.623047" xlink:href="#DejaVuSans-46"/>
       <use x="95.410156" xlink:href="#DejaVuSans-56"/>
      </g>
     </g>
    </g>
    <g id="ytick_6">
     <g id="line2d_31">
      <path clip-path="url(#pd8b83fe26a)" d="M 57.6 30.334099 
L 338.688 30.334099 
" style="fill:none;stroke:#b0b0b0;stroke-linecap:square;stroke-width:0.8;"/>
     </g>
     <g id="line2d_32">
      <g>
       <use style="stroke:#000000;stroke-width:0.8;" x="57.6" xlink:href="#m17fc8a5813" y="30.334099"/>
      </g>
     </g>
     <g id="text_11">
      <!-- 1.0 -->
      <g transform="translate(25.155 36.412849)scale(0.16 -0.16)">
       <use xlink:href="#DejaVuSans-49"/>
       <use x="63.623047" xlink:href="#DejaVuSans-46"/>
       <use x="95.410156" xlink:href="#DejaVuSans-48"/>
      </g>
     </g>
    </g>
    <g id="text_12">
     <!-- Fraction of function,target pairs -->
     <defs>
      <path d="M 9.8125 72.90625 
L 51.703125 72.90625 
L 51.703125 64.59375 
L 19.671875 64.59375 
L 19.671875 43.109375 
L 48.578125 43.109375 
L 48.578125 34.8125 
L 19.671875 34.8125 
L 19.671875 0 
L 9.8125 0 
z
" id="DejaVuSans-70"/>
      <path d="M 41.109375 46.296875 
Q 39.59375 47.171875 37.8125 47.578125 
Q 36.03125 48 33.890625 48 
Q 26.265625 48 22.1875 43.046875 
Q 18.109375 38.09375 18.109375 28.8125 
L 18.109375 0 
L 9.078125 0 
L 9.078125 54.6875 
L 18.109375 54.6875 
L 18.109375 46.1875 
Q 20.953125 51.171875 25.484375 53.578125 
Q 30.03125 56 36.53125 56 
Q 37.453125 56 38.578125 55.875 
Q 39.703125 55.765625 41.0625 55.515625 
z
" id="DejaVuSans-114"/>
      <path d="M 48.78125 52.59375 
L 48.78125 44.1875 
Q 44.96875 46.296875 41.140625 47.34375 
Q 37.3125 48.390625 33.40625 48.390625 
Q 24.65625 48.390625 19.8125 42.84375 
Q 14.984375 37.3125 14.984375 27.296875 
Q 14.984375 17.28125 19.8125 11.734375 
Q 24.65625 6.203125 33.40625 6.203125 
Q 37.3125 6.203125 41.140625 7.25 
Q 44.96875 8.296875 48.78125 10.40625 
L 48.78125 2.09375 
Q 45.015625 0.34375 40.984375 -0.53125 
Q 36.96875 -1.421875 32.421875 -1.421875 
Q 20.0625 -1.421875 12.78125 6.34375 
Q 5.515625 14.109375 5.515625 27.296875 
Q 5.515625 40.671875 12.859375 48.328125 
Q 20.21875 56 33.015625 56 
Q 37.15625 56 41.109375 55.140625 
Q 45.0625 54.296875 48.78125 52.59375 
z
" id="DejaVuSans-99"/>
      <path d="M 18.3125 70.21875 
L 18.3125 54.6875 
L 36.8125 54.6875 
L 36.8125 47.703125 
L 18.3125 47.703125 
L 18.3125 18.015625 
Q 18.3125 11.328125 20.140625 9.421875 
Q 21.96875 7.515625 27.59375 7.515625 
L 36.8125 7.515625 
L 36.8125 0 
L 27.59375 0 
Q 17.1875 0 13.234375 3.875 
Q 9.28125 7.765625 9.28125 18.015625 
L 9.28125 47.703125 
L 2.6875 47.703125 
L 2.6875 54.6875 
L 9.28125 54.6875 
L 9.28125 70.21875 
z
" id="DejaVuSans-116"/>
      <path d="M 8.5 21.578125 
L 8.5 54.6875 
L 17.484375 54.6875 
L 17.484375 21.921875 
Q 17.484375 14.15625 20.5 10.265625 
Q 23.53125 6.390625 29.59375 6.390625 
Q 36.859375 6.390625 41.078125 11.03125 
Q 45.3125 15.671875 45.3125 23.6875 
L 45.3125 54.6875 
L 54.296875 54.6875 
L 54.296875 0 
L 45.3125 0 
L 45.3125 8.40625 
Q 42.046875 3.421875 37.71875 1 
Q 33.40625 -1.421875 27.6875 -1.421875 
Q 18.265625 -1.421875 13.375 4.4375 
Q 8.5 10.296875 8.5 21.578125 
z
M 31.109375 56 
z
" id="DejaVuSans-117"/>
      <path d="M 11.71875 12.40625 
L 22.015625 12.40625 
L 22.015625 4 
L 14.015625 -11.625 
L 7.71875 -11.625 
L 11.71875 4 
z
" id="DejaVuSans-44"/>
      <path d="M 18.109375 8.203125 
L 18.109375 -20.796875 
L 9.078125 -20.796875 
L 9.078125 54.6875 
L 18.109375 54.6875 
L 18.109375 46.390625 
Q 20.953125 51.265625 25.265625 53.625 
Q 29.59375 56 35.59375 56 
Q 45.5625 56 51.78125 48.09375 
Q 58.015625 40.1875 58.015625 27.296875 
Q 58.015625 14.40625 51.78125 6.484375 
Q 45.5625 -1.421875 35.59375 -1.421875 
Q 29.59375 -1.421875 25.265625 0.953125 
Q 20.953125 3.328125 18.109375 8.203125 
z
M 48.6875 27.296875 
Q 48.6875 37.203125 44.609375 42.84375 
Q 40.53125 48.484375 33.40625 48.484375 
Q 26.265625 48.484375 22.1875 42.84375 
Q 18.109375 37.203125 18.109375 27.296875 
Q 18.109375 17.390625 22.1875 11.75 
Q 26.265625 6.109375 33.40625 6.109375 
Q 40.53125 6.109375 44.609375 11.75 
Q 48.6875 17.390625 48.6875 27.296875 
z
" id="DejaVuSans-112"/>
     </defs>
     <g transform="translate(17.619531 298.435375)rotate(-90)scale(0.17 -0.17)">
      <use xlink:href="#DejaVuSans-70"/>
      <use x="57.410156" xlink:href="#DejaVuSans-114"/>
      <use x="98.523438" xlink:href="#DejaVuSans-97"/>
      <use x="159.802734" xlink:href="#DejaVuSans-99"/>
      <use x="214.783203" xlink:href="#DejaVuSans-116"/>
      <use x="253.992188" xlink:href="#DejaVuSans-105"/>
      <use x="281.775391" xlink:href="#DejaVuSans-111"/>
      <use x="342.957031" xlink:href="#DejaVuSans-110"/>
      <use x="406.335938" xlink:href="#DejaVuSans-32"/>
      <use x="438.123047" xlink:href="#DejaVuSans-111"/>
      <use x="499.304688" xlink:href="#DejaVuSans-102"/>
      <use x="534.509766" xlink:href="#DejaVuSans-32"/>
      <use x="566.296875" xlink:href="#DejaVuSans-102"/>
      <use x="601.501953" xlink:href="#DejaVuSans-117"/>
      <use x="664.880859" xlink:href="#DejaVuSans-110"/>
      <use x="728.259766" xlink:href="#DejaVuSans-99"/>
      <use x="783.240234" xlink:href="#DejaVuSans-116"/>
      <use x="822.449219" xlink:href="#DejaVuSans-105"/>
      <use x="850.232422" xlink:href="#DejaVuSans-111"/>
      <use x="911.414062" xlink:href="#DejaVuSans-110"/>
      <use x="974.792969" xlink:href="#DejaVuSans-44"/>
      <use x="1006.580078" xlink:href="#DejaVuSans-116"/>
      <use x="1045.789062" xlink:href="#DejaVuSans-97"/>
      <use x="1107.068359" xlink:href="#DejaVuSans-114"/>
      <use x="1148.166016" xlink:href="#DejaVuSans-103"/>
      <use x="1211.642578" xlink:href="#DejaVuSans-101"/>
      <use x="1273.166016" xlink:href="#DejaVuSans-116"/>
      <use x="1312.375" xlink:href="#DejaVuSans-32"/>
      <use x="1344.162109" xlink:href="#DejaVuSans-112"/>
      <use x="1407.638672" xlink:href="#DejaVuSans-97"/>
      <use x="1468.917969" xlink:href="#DejaVuSans-105"/>
      <use x="1496.701172" xlink:href="#DejaVuSans-114"/>
      <use x="1537.814453" xlink:href="#DejaVuSans-115"/>
     </g>
    </g>
   </g>
   <g id="line2d_33">
    <defs>
     <path d="M 0 1.5 
C 0.397805 1.5 0.77937 1.341951 1.06066 1.06066 
C 1.341951 0.77937 1.5 0.397805 1.5 0 
C 1.5 -0.397805 1.341951 -0.77937 1.06066 -1.06066 
C 0.77937 -1.341951 0.397805 -1.5 0 -1.5 
C -0.397805 -1.5 -0.77937 -1.341951 -1.06066 -1.06066 
C -1.341951 -0.77937 -1.5 -0.397805 -1.5 0 
C -1.5 0.397805 -1.341951 0.77937 -1.06066 1.06066 
C -0.77937 1.341951 -0.397805 1.5 0 1.5 
z
" id="mfacc5f59a0" style="stroke:#f5deb3;"/>
    </defs>
    <g>
     <use style="fill:#f5deb3;stroke:#f5deb3;" x="341.502927" xlink:href="#mfacc5f59a0" y="141.483024"/>
     <use style="fill:#f5deb3;stroke:#f5deb3;" x="341.502927" xlink:href="#mfacc5f59a0" y="141.483024"/>
    </g>
   </g>
   <g id="line2d_34">
    <defs>
     <path d="M 0 1.5 
C 0.397805 1.5 0.77937 1.341951 1.06066 1.06066 
C 1.341951 0.77937 1.5 0.397805 1.5 0 
C 1.5 -0.397805 1.341951 -0.77937 1.06066 -1.06066 
C 0.77937 -1.341951 0.397805 -1.5 0 -1.5 
C -0.397805 -1.5 -0.77937 -1.341951 -1.06066 -1.06066 
C -1.341951 -0.77937 -1.5 -0.397805 -1.5 0 
C -1.5 0.397805 -1.341951 0.77937 -1.06066 1.06066 
C -0.77937 1.341951 -0.397805 1.5 0 1.5 
z
" id="me2ae81f026" style="stroke:#000080;"/>
    </defs>
    <g>
     <use style="fill:#000080;stroke:#000080;" x="246.280782" xlink:href="#me2ae81f026" y="193.352522"/>
     <use style="fill:#000080;stroke:#000080;" x="246.280782" xlink:href="#me2ae81f026" y="193.352522"/>
    </g>
   </g>
   <g id="line2d_35">
    <path d="M 17.444571 298.944 
L 17.444571 288.755349 
L 51.379845 288.755349 
L 51.379845 288.292228 
L 86.351421 288.292228 
L 86.351421 287.829108 
L 89.697862 287.829108 
L 89.697862 287.365987 
L 100.641881 287.365987 
L 100.641881 286.439746 
L 101.923711 286.439746 
L 101.923711 285.976625 
L 117.259781 285.976625 
L 117.259781 285.513505 
L 117.598418 285.513505 
L 117.598418 285.050384 
L 122.657258 285.050384 
L 122.657258 284.587264 
L 124.216444 284.587264 
L 124.216444 284.124143 
L 125.327602 284.124143 
L 125.327602 283.661023 
L 127.954256 283.661023 
L 127.954256 283.197902 
L 128.229861 283.197902 
L 128.229861 282.734782 
L 129.46138 282.734782 
L 129.46138 282.271661 
L 131.185181 282.271661 
L 131.185181 281.808541 
L 132.036046 281.808541 
L 132.036046 281.34542 
L 132.494049 281.34542 
L 132.494049 280.8823 
L 136.189322 280.8823 
L 136.189322 279.492938 
L 136.979586 279.492938 
L 136.979586 279.029818 
L 141.335737 279.029818 
L 141.335737 278.566697 
L 145.074639 278.566697 
L 145.074639 278.103577 
L 145.888018 278.103577 
L 145.888018 277.640456 
L 148.248413 277.640456 
L 148.248413 276.714215 
L 149.104327 276.714215 
L 149.104327 276.251095 
L 150.309961 276.251095 
L 150.309961 275.787974 
L 150.932558 275.787974 
L 150.932558 274.861733 
L 152.729424 274.861733 
L 152.729424 273.935492 
L 153.25815 273.935492 
L 153.25815 273.472371 
L 154.310719 273.472371 
L 154.310719 273.009251 
L 155.135299 273.009251 
L 155.135299 272.54613 
L 155.30979 272.54613 
L 155.30979 271.619889 
L 155.584129 271.619889 
L 155.584129 270.693648 
L 156.829885 270.693648 
L 156.829885 270.230528 
L 157.630442 270.230528 
L 157.630442 269.767407 
L 157.86528 269.767407 
L 157.86528 268.841166 
L 158.905533 268.841166 
L 158.905533 268.378046 
L 159.308951 268.378046 
L 159.308951 267.451805 
L 159.522371 267.451805 
L 159.522371 266.525564 
L 159.877318 266.525564 
L 159.877318 266.062443 
L 160.321935 266.062443 
L 160.321935 265.599323 
L 161.146363 265.599323 
L 161.146363 265.136202 
L 161.492608 265.136202 
L 161.492608 264.673082 
L 161.716709 264.673082 
L 161.716709 264.209961 
L 163.205526 264.209961 
L 163.205526 263.746841 
L 164.611161 263.746841 
L 164.611161 263.28372 
L 165.43632 263.28372 
L 165.43632 262.8206 
L 166.040966 262.8206 
L 166.040966 262.357479 
L 168.725271 262.357479 
L 168.725271 261.431238 
L 170.386599 261.431238 
L 170.386599 260.968117 
L 174.458078 260.968117 
L 174.458078 260.504997 
L 174.879752 260.504997 
L 174.879752 259.578756 
L 177.053884 259.578756 
L 177.053884 259.115635 
L 180.517276 259.115635 
L 180.517276 258.189394 
L 182.742052 258.189394 
L 182.742052 257.726274 
L 183.00679 257.726274 
L 183.00679 256.800033 
L 183.253327 256.800033 
L 183.36179 255.410671 
L 183.747521 255.410671 
L 183.747521 254.947551 
L 184.119975 254.947551 
L 184.119975 254.48443 
L 184.39631 254.48443 
L 184.39631 254.02131 
L 185.904929 254.02131 
L 185.904929 253.558189 
L 186.977159 253.558189 
L 186.992845 252.631948 
L 187.175849 252.631948 
L 187.175849 252.168828 
L 188.08572 252.168828 
L 188.08572 251.242587 
L 191.752884 251.242587 
L 191.798174 249.853225 
L 194.508995 249.853225 
L 194.508995 248.926984 
L 196.15736 248.926984 
L 196.15736 248.463863 
L 197.286225 248.463863 
L 197.286225 248.000743 
L 198.227198 248.000743 
L 198.227198 247.537622 
L 198.437779 247.537622 
L 198.437779 247.074502 
L 198.66138 247.074502 
L 198.66138 246.148261 
L 198.785142 246.148261 
L 198.785142 245.68514 
L 199.129371 245.68514 
L 199.129371 245.22202 
L 199.915066 245.22202 
L 199.975743 244.295779 
L 201.099077 244.295779 
L 201.168301 243.369538 
L 201.929048 243.369538 
L 201.929048 242.906417 
L 204.180443 242.906417 
L 204.180443 241.980176 
L 204.35628 241.980176 
L 204.35628 241.053935 
L 204.789209 241.053935 
L 204.850885 239.201453 
L 204.928796 239.201453 
L 204.928796 238.738333 
L 205.460651 238.738333 
L 205.460651 238.275212 
L 206.088325 238.275212 
L 206.088325 237.348971 
L 206.616332 237.348971 
L 206.616332 236.42273 
L 207.27971 236.42273 
L 207.27971 235.959609 
L 207.833242 235.959609 
L 207.833242 235.496489 
L 208.506961 235.496489 
L 208.506961 235.033368 
L 211.124079 235.033368 
L 211.124079 234.107127 
L 211.370434 234.107127 
L 211.370434 233.180886 
L 211.511675 233.180886 
L 211.511675 232.717766 
L 212.520188 232.717766 
L 212.58777 231.791525 
L 213.349471 231.791525 
L 213.349471 230.865284 
L 215.052966 230.865284 
L 215.052966 229.939043 
L 215.789676 229.939043 
L 215.871484 228.086561 
L 216.617776 228.086561 
L 216.617776 227.62344 
L 217.081321 227.62344 
L 217.081321 226.697199 
L 218.000407 226.697199 
L 218.000407 225.770958 
L 218.452988 225.770958 
L 218.452988 224.844717 
L 219.023515 224.844717 
L 219.023515 224.381596 
L 219.555622 224.381596 
L 219.555622 223.455355 
L 219.883063 223.455355 
L 219.883063 222.529114 
L 220.579266 222.529114 
L 220.623997 221.139753 
L 220.961386 221.139753 
L 220.961386 220.676632 
L 221.47798 220.676632 
L 221.47798 219.750391 
L 222.170285 219.750391 
L 222.170285 218.82415 
L 223.517605 218.82415 
L 223.601713 216.971668 
L 224.388913 216.971668 
L 224.388913 216.508548 
L 225.099487 216.508548 
L 225.099487 216.045427 
L 225.657558 216.045427 
L 225.657558 215.582307 
L 226.680893 215.582307 
L 226.759415 212.803583 
L 227.656632 212.803583 
L 227.656632 211.877342 
L 228.252239 211.877342 
L 228.252239 211.414222 
L 228.578733 211.414222 
L 228.578733 210.487981 
L 229.797294 210.487981 
L 229.797294 210.02486 
L 230.114956 210.02486 
L 230.202208 208.635499 
L 230.418446 208.635499 
L 230.418446 208.172378 
L 231.305623 208.172378 
L 231.305623 207.709258 
L 232.189266 207.709258 
L 232.189266 206.783017 
L 234.268491 206.783017 
L 234.268491 205.856776 
L 234.495759 205.856776 
L 234.495759 205.393655 
L 235.051699 205.393655 
L 235.051699 204.930535 
L 236.477024 204.930535 
L 236.477024 204.004294 
L 236.692477 204.004294 
L 236.69955 202.151812 
L 237.012498 202.151812 
L 237.012498 201.225571 
L 238.888346 201.225571 
L 238.888346 200.299329 
L 239.013351 200.299329 
L 239.013351 199.373088 
L 239.30782 199.373088 
L 239.30782 198.909968 
L 240.059081 198.909968 
L 240.059081 198.446847 
L 241.684695 198.446847 
L 241.684695 197.983727 
L 242.714587 197.983727 
L 242.714587 197.520606 
L 242.914191 197.520606 
L 242.914191 197.057486 
L 243.629524 197.057486 
L 243.629524 196.594365 
L 244.123923 196.594365 
L 244.123923 195.668124 
L 244.443021 195.668124 
L 244.443021 195.205004 
L 244.683304 195.205004 
L 244.683304 194.278763 
L 245.566927 194.278763 
L 245.566927 193.815642 
L 246.280782 193.815642 
L 246.280782 193.352522 
L 338.688 193.352522 
L 338.688 193.352522 
" style="fill:none;stroke:#000080;stroke-linecap:square;stroke-width:1.5;"/>
   </g>
   <g id="line2d_36">
    <defs>
     <path d="M 0 6 
C 1.591219 6 3.117479 5.367802 4.242641 4.242641 
C 5.367802 3.117479 6 1.591219 6 0 
C 6 -1.591219 5.367802 -3.117479 4.242641 -4.242641 
C 3.117479 -5.367802 1.591219 -6 0 -6 
C -1.591219 -6 -3.117479 -5.367802 -4.242641 -4.242641 
C -5.367802 -3.117479 -6 -1.591219 -6 0 
C -6 1.591219 -5.367802 3.117479 -4.242641 4.242641 
C -3.117479 5.367802 -1.591219 6 0 6 
z
" id="m90dc406477" style="stroke:#000080;stroke-width:1.5;"/>
    </defs>
    <g>
     <use style="fill-opacity:0;stroke:#000080;stroke-width:1.5;" x="149.104327" xlink:href="#m90dc406477" y="276.714215"/>
     <use style="fill-opacity:0;stroke:#000080;stroke-width:1.5;" x="206.088325" xlink:href="#m90dc406477" y="238.275212"/>
     <use style="fill-opacity:0;stroke:#000080;stroke-width:1.5;" x="246.280782" xlink:href="#m90dc406477" y="193.815642"/>
     <use style="fill-opacity:0;stroke:#000080;stroke-width:1.5;" x="246.280782" xlink:href="#m90dc406477" y="193.352522"/>
     <use style="fill-opacity:0;stroke:#000080;stroke-width:1.5;" x="338.688" xlink:href="#m90dc406477" y="193.352522"/>
    </g>
   </g>
   <g id="line2d_37">
    <path style="fill:none;stroke:#000080;stroke-linecap:square;stroke-width:1.5;"/>
    <g/>
   </g>
   <g id="line2d_38">
    <path clip-path="url(#pd8b83fe26a)" d="M 246.289887 193.352522 
" style="fill:none;stroke:#000080;stroke-linecap:square;stroke-width:1.5;"/>
    <defs>
     <path d="M -12 12 
L 12 -12 
M -12 -12 
L 12 12 
" id="m215c86b556" style="stroke:#000080;"/>
    </defs>
    <g clip-path="url(#pd8b83fe26a)">
     <use style="fill:#000080;stroke:#000080;" x="246.289887" xlink:href="#m215c86b556" y="193.352522"/>
    </g>
   </g>
   <g id="line2d_39">
    <defs>
     <path d="M 0 1.5 
C 0.397805 1.5 0.77937 1.341951 1.06066 1.06066 
C 1.341951 0.77937 1.5 0.397805 1.5 0 
C 1.5 -0.397805 1.341951 -0.77937 1.06066 -1.06066 
C 0.77937 -1.341951 0.397805 -1.5 0 -1.5 
C -0.397805 -1.5 -0.77937 -1.341951 -1.06066 -1.06066 
C -1.341951 -0.77937 -1.5 -0.397805 -1.5 0 
C -1.5 0.397805 -1.341951 0.77937 -1.06066 1.06066 
C -0.77937 1.341951 -0.397805 1.5 0 1.5 
z
" id="meacfb8f777" style="stroke:#ff00ff;"/>
    </defs>
    <g>
     <use style="fill:#ff00ff;stroke:#ff00ff;" x="237.343887" xlink:href="#meacfb8f777" y="191.036919"/>
     <use style="fill:#ff00ff;stroke:#ff00ff;" x="237.343887" xlink:href="#meacfb8f777" y="191.036919"/>
    </g>
   </g>
   <g id="line2d_40">
    <path d="M 17.444571 298.944 
L 17.444571 288.755349 
L 36.60358 288.755349 
L 36.60358 287.829108 
L 64.67102 287.829108 
L 64.67102 287.365987 
L 69.687988 287.365987 
L 69.687988 286.902867 
L 70.538854 286.902867 
L 70.538854 286.439746 
L 79.447285 286.439746 
L 79.447285 285.976625 
L 84.588378 285.976625 
L 84.588378 285.513505 
L 86.351421 285.513505 
L 86.351421 285.050384 
L 88.255778 285.050384 
L 88.255778 284.587264 
L 91.284345 284.587264 
L 91.284345 284.124143 
L 92.504372 284.124143 
L 92.504372 283.661023 
L 93.197415 283.661023 
L 93.197415 283.197902 
L 95.526106 283.197902 
L 95.526106 282.734782 
L 96.110718 282.734782 
L 96.110718 282.271661 
L 96.301313 282.271661 
L 96.301313 281.808541 
L 97.928955 281.808541 
L 97.928955 281.34542 
L 98.935347 281.34542 
L 98.935347 280.8823 
L 99.886816 280.8823 
L 99.886816 280.419179 
L 101.506816 280.419179 
L 101.506816 279.492938 
L 101.923711 279.492938 
L 101.923711 279.029818 
L 102.464508 279.029818 
L 102.464508 278.566697 
L 102.597126 278.566697 
L 102.597126 278.103577 
L 102.989037 278.103577 
L 102.989037 277.640456 
L 103.498249 277.640456 
L 103.498249 277.177336 
L 104.23523 277.177336 
L 104.23523 276.714215 
L 104.592361 276.714215 
L 104.592361 276.251095 
L 105.171792 276.251095 
L 105.171792 275.787974 
L 105.621863 275.787974 
L 105.621863 275.324854 
L 105.842616 275.324854 
L 105.842616 274.861733 
L 106.802819 274.861733 
L 106.802819 273.935492 
L 107.712901 273.935492 
L 107.712901 273.472371 
L 108.294265 273.472371 
L 108.294265 273.009251 
L 108.856871 273.009251 
L 108.856871 272.54613 
L 109.31223 272.54613 
L 109.31223 272.08301 
L 110.443353 272.08301 
L 110.443353 271.619889 
L 111.346294 271.619889 
L 111.346294 271.156769 
L 111.819788 271.156769 
L 111.819788 270.693648 
L 114.284194 270.693648 
L 114.284194 270.230528 
L 115.773423 270.230528 
L 115.773423 269.767407 
L 115.897107 269.767407 
L 115.897107 269.304287 
L 117.765302 269.304287 
L 117.875678 268.378046 
L 120.759333 268.378046 
L 120.759333 267.451805 
L 123.907776 267.451805 
L 123.907776 266.988684 
L 126.168212 266.988684 
L 126.270496 265.599323 
L 126.70692 265.599323 
L 126.70692 265.136202 
L 126.904721 265.136202 
L 126.904721 264.673082 
L 127.453273 264.673082 
L 127.453273 264.209961 
L 129.347769 264.209961 
L 129.347769 263.746841 
L 135.300881 263.746841 
L 135.300881 263.28372 
L 135.482227 263.28372 
L 135.482227 262.8206 
L 136.79465 262.8206 
L 136.79465 261.894358 
L 136.905847 261.894358 
L 137.016339 260.504997 
L 137.823442 260.504997 
L 137.823442 260.041876 
L 138.910565 260.041876 
L 138.910565 259.578756 
L 139.620495 259.578756 
L 139.715103 258.189394 
L 140.782525 258.189394 
L 140.782525 257.726274 
L 141.435758 257.726274 
L 141.435758 256.800033 
L 141.605898 256.800033 
L 141.605898 256.336912 
L 143.653678 256.336912 
L 143.653678 255.873792 
L 145.224334 255.873792 
L 145.224334 255.410671 
L 146.717846 255.410671 
L 146.717846 254.48443 
L 146.916676 254.48443 
L 146.916676 254.02131 
L 147.48985 254.02131 
L 147.48985 253.095069 
L 148.563676 253.095069 
L 148.563676 252.168828 
L 149.85877 252.168828 
L 149.85877 251.242587 
L 150.155097 251.242587 
L 150.155097 250.779466 
L 150.327083 250.779466 
L 150.327083 250.316346 
L 153.039792 250.316346 
L 153.039792 249.853225 
L 154.139643 249.853225 
L 154.160261 248.926984 
L 156.064855 248.926984 
L 156.114049 248.000743 
L 156.823991 248.000743 
L 156.823991 247.537622 
L 158.195371 247.537622 
L 158.195371 246.611381 
L 160.283299 246.611381 
L 160.283299 246.148261 
L 161.201492 246.148261 
L 161.201492 245.68514 
L 161.640838 245.68514 
L 161.640838 244.758899 
L 162.479132 244.758899 
L 162.479132 244.295779 
L 163.39261 244.295779 
L 163.39261 243.832658 
L 164.059312 243.832658 
L 164.059312 242.906417 
L 165.164364 242.906417 
L 165.164364 242.443297 
L 167.181018 242.443297 
L 167.288118 241.053935 
L 167.570541 241.053935 
L 167.570541 240.590815 
L 168.155922 240.590815 
L 168.155922 240.127694 
L 170.356777 240.127694 
L 170.356777 239.664574 
L 171.841148 239.664574 
L 171.841148 238.738333 
L 172.215882 238.738333 
L 172.313173 237.348971 
L 172.539692 237.348971 
L 172.539692 236.88585 
L 173.00275 236.88585 
L 173.00275 236.42273 
L 173.880241 236.42273 
L 173.880241 235.496489 
L 174.063291 235.496489 
L 174.063291 234.570248 
L 174.547927 234.570248 
L 174.547927 234.107127 
L 177.2176 234.107127 
L 177.2176 233.180886 
L 182.318132 233.180886 
L 182.318132 232.254645 
L 182.500302 232.254645 
L 182.500302 231.328404 
L 182.722034 231.328404 
L 182.722034 230.865284 
L 183.124623 230.865284 
L 183.124623 229.939043 
L 183.514301 229.939043 
L 183.514301 229.012802 
L 184.432664 229.012802 
L 184.432664 228.086561 
L 187.053365 228.086561 
L 187.053365 227.16032 
L 187.231615 227.16032 
L 187.231615 226.234079 
L 189.451449 226.234079 
L 189.451449 225.770958 
L 192.469118 225.770958 
L 192.469118 224.844717 
L 192.84828 224.844717 
L 192.84828 223.918476 
L 193.161496 223.918476 
L 193.161496 222.992235 
L 195.463289 222.992235 
L 195.463289 222.529114 
L 197.145472 222.529114 
L 197.145472 221.602873 
L 198.715367 221.602873 
L 198.715367 221.139753 
L 199.457732 221.139753 
L 199.457732 220.213512 
L 200.692157 220.213512 
L 200.692157 219.750391 
L 201.098611 219.750391 
L 201.098611 218.82415 
L 201.244179 218.82415 
L 201.244179 218.36103 
L 201.794924 218.36103 
L 201.794924 217.897909 
L 202.579056 217.897909 
L 202.579056 217.434789 
L 206.292742 217.434789 
L 206.292742 216.971668 
L 206.687433 216.971668 
L 206.687433 216.045427 
L 207.926331 216.045427 
L 207.956831 213.266704 
L 208.382318 213.266704 
L 208.382318 212.340463 
L 209.748441 212.340463 
L 209.748441 211.877342 
L 210.374362 211.877342 
L 210.374362 210.951101 
L 210.715071 210.951101 
L 210.715071 210.487981 
L 211.065032 210.487981 
L 211.065032 209.56174 
L 212.443601 209.56174 
L 212.443601 209.098619 
L 213.626064 209.098619 
L 213.626064 208.172378 
L 215.09704 208.172378 
L 215.09704 207.246137 
L 215.25487 207.246137 
L 215.25487 206.783017 
L 216.086074 206.783017 
L 216.086074 205.856776 
L 219.767098 205.856776 
L 219.767098 205.393655 
L 220.459112 205.393655 
L 220.459112 204.930535 
L 220.691636 204.930535 
L 220.691636 204.467414 
L 223.077411 204.467414 
L 223.14934 201.688691 
L 223.476495 201.688691 
L 223.476495 200.76245 
L 223.825724 200.76245 
L 223.825724 199.836209 
L 225.442878 199.836209 
L 225.442878 199.373088 
L 226.643597 199.373088 
L 226.643597 198.446847 
L 227.065921 198.446847 
L 227.065921 197.520606 
L 229.799808 197.520606 
L 229.799808 197.057486 
L 230.164704 197.057486 
L 230.164704 196.594365 
L 230.281516 196.594365 
L 230.281516 196.131245 
L 230.822308 196.131245 
L 230.822308 195.668124 
L 231.617096 195.668124 
L 231.617096 195.205004 
L 231.895419 195.205004 
L 231.895419 194.741883 
L 232.060243 194.741883 
L 232.060243 194.278763 
L 233.872532 194.278763 
L 233.872532 193.815642 
L 235.065114 193.815642 
L 235.065114 193.352522 
L 236.446815 193.352522 
L 236.446815 192.426281 
L 236.813722 192.426281 
L 236.813722 191.96316 
L 237.343887 191.96316 
L 237.343887 191.036919 
L 338.688 191.036919 
L 338.688 191.036919 
" style="fill:none;stroke:#ff00ff;stroke-linecap:square;stroke-width:1.5;"/>
   </g>
   <g id="line2d_41">
    <defs>
     <path d="M 0 8.485281 
L 5.091169 0 
L 0 -8.485281 
L -5.091169 0 
z
" id="m1e68a64f3d" style="stroke:#ff00ff;stroke-linejoin:miter;stroke-width:1.5;"/>
    </defs>
    <g>
     <use style="fill-opacity:0;stroke:#ff00ff;stroke-linejoin:miter;stroke-width:1.5;" x="86.351421" xlink:href="#m1e68a64f3d" y="285.513505"/>
     <use style="fill-opacity:0;stroke:#ff00ff;stroke-linejoin:miter;stroke-width:1.5;" x="158.195371" xlink:href="#m1e68a64f3d" y="247.537622"/>
     <use style="fill-opacity:0;stroke:#ff00ff;stroke-linejoin:miter;stroke-width:1.5;" x="220.459112" xlink:href="#m1e68a64f3d" y="205.393655"/>
     <use style="fill-opacity:0;stroke:#ff00ff;stroke-linejoin:miter;stroke-width:1.5;" x="237.343887" xlink:href="#m1e68a64f3d" y="191.96316"/>
     <use style="fill-opacity:0;stroke:#ff00ff;stroke-linejoin:miter;stroke-width:1.5;" x="237.343887" xlink:href="#m1e68a64f3d" y="191.036919"/>
     <use style="fill-opacity:0;stroke:#ff00ff;stroke-linejoin:miter;stroke-width:1.5;" x="338.688" xlink:href="#m1e68a64f3d" y="191.036919"/>
    </g>
   </g>
   <g id="line2d_42">
    <path style="fill:none;stroke:#ff00ff;stroke-linecap:square;stroke-width:1.5;"/>
    <g/>
   </g>
   <g id="line2d_43">
    <path clip-path="url(#pd8b83fe26a)" d="M 237.382176 191.036919 
" style="fill:none;stroke:#ff00ff;stroke-linecap:square;stroke-width:1.5;"/>
    <defs>
     <path d="M -12 12 
L 12 -12 
M -12 -12 
L 12 12 
" id="m2a3ee7d5e0" style="stroke:#ff00ff;"/>
    </defs>
    <g clip-path="url(#pd8b83fe26a)">
     <use style="fill:#ff00ff;stroke:#ff00ff;" x="237.382176" xlink:href="#m2a3ee7d5e0" y="191.036919"/>
    </g>
   </g>
   <g id="line2d_44">
    <defs>
     <path d="M 0 1.5 
C 0.397805 1.5 0.77937 1.341951 1.06066 1.06066 
C 1.341951 0.77937 1.5 0.397805 1.5 0 
C 1.5 -0.397805 1.341951 -0.77937 1.06066 -1.06066 
C 0.77937 -1.341951 0.397805 -1.5 0 -1.5 
C -0.397805 -1.5 -0.77937 -1.341951 -1.06066 -1.06066 
C -1.341951 -0.77937 -1.5 -0.397805 -1.5 0 
C -1.5 0.397805 -1.341951 0.77937 -1.06066 1.06066 
C -0.77937 1.341951 -0.397805 1.5 0 1.5 
z
" id="m3fbdc0c0a2" style="stroke:#ff7500;"/>
    </defs>
    <g>
     <use style="fill:#ff7500;stroke:#ff7500;" x="201.470761" xlink:href="#m3fbdc0c0a2" y="246.148261"/>
     <use style="fill:#ff7500;stroke:#ff7500;" x="201.470761" xlink:href="#m3fbdc0c0a2" y="246.148261"/>
    </g>
   </g>
   <g id="line2d_45">
    <path d="M 17.444571 298.944 
L 17.444571 288.755349 
L 48.691568 288.755349 
L 48.691568 287.829108 
L 73.579452 287.829108 
L 73.579452 287.365987 
L 76.16779 287.365987 
L 76.16779 286.902867 
L 79.447285 286.902867 
L 79.447285 286.439746 
L 79.938565 286.439746 
L 79.938565 285.513505 
L 80.881459 285.513505 
L 80.881459 285.050384 
L 84.588378 285.050384 
L 84.588378 284.587264 
L 86.351421 284.587264 
L 86.351421 284.124143 
L 88.255778 284.124143 
L 88.255778 283.661023 
L 88.846997 283.661023 
L 88.846997 283.197902 
L 89.972502 283.197902 
L 89.972502 282.734782 
L 92.504372 282.734782 
L 92.504372 281.808541 
L 95.125186 281.808541 
L 95.125186 281.34542 
L 95.723163 281.34542 
L 95.723163 280.8823 
L 95.918017 280.8823 
L 95.918017 279.956059 
L 96.110718 279.956059 
L 96.110718 279.492938 
L 98.100772 279.492938 
L 98.100772 279.029818 
L 98.270913 279.029818 
L 98.270913 278.566697 
L 98.935347 278.566697 
L 98.935347 278.103577 
L 99.731799 278.103577 
L 99.731799 277.640456 
L 99.886816 277.640456 
L 99.886816 277.177336 
L 100.641881 277.177336 
L 100.641881 276.714215 
L 101.923711 276.714215 
L 101.923711 276.251095 
L 104.709797 276.251095 
L 104.709797 275.324854 
L 105.621863 275.324854 
L 105.621863 274.861733 
L 106.275913 274.861733 
L 106.275913 274.398612 
L 108.577836 274.398612 
L 108.577836 273.935492 
L 108.764355 273.935492 
L 108.856871 273.009251 
L 109.491096 273.009251 
L 109.579846 272.08301 
L 110.859585 272.08301 
L 110.859585 271.619889 
L 112.356423 271.619889 
L 112.356423 271.156769 
L 113.239614 271.156769 
L 113.239614 270.693648 
L 113.453595 270.693648 
L 113.453595 269.767407 
L 114.148479 269.767407 
L 114.148479 269.304287 
L 114.418861 269.304287 
L 114.418861 268.378046 
L 116.38325 268.378046 
L 116.443076 266.988684 
L 117.030313 266.988684 
L 117.030313 266.525564 
L 121.128432 266.525564 
L 121.128432 266.062443 
L 130.531948 266.062443 
L 130.531948 265.599323 
L 131.004728 265.599323 
L 131.004728 265.136202 
L 131.690703 265.136202 
L 131.690703 264.673082 
L 132.230358 264.673082 
L 132.230358 264.209961 
L 133.910056 264.209961 
L 133.910056 263.746841 
L 134.084669 263.746841 
L 134.084669 263.28372 
L 135.740886 263.28372 
L 135.760625 261.894358 
L 137.235245 261.894358 
L 137.235245 261.431238 
L 137.469333 261.431238 
L 137.469333 260.504997 
L 138.187677 260.504997 
L 138.187677 260.041876 
L 139.317473 260.041876 
L 139.317473 259.115635 
L 139.541262 259.115635 
L 139.541262 258.652515 
L 141.364373 258.652515 
L 141.364373 258.189394 
L 142.229539 258.189394 
L 142.229539 257.726274 
L 144.93531 257.726274 
L 144.93531 256.800033 
L 145.497361 256.800033 
L 145.497361 256.336912 
L 145.621085 256.336912 
L 145.621085 255.873792 
L 146.463409 255.873792 
L 146.463409 254.947551 
L 147.600257 254.947551 
L 147.600257 254.48443 
L 149.049169 254.48443 
L 149.049169 253.558189 
L 150.215485 253.558189 
L 150.215485 253.095069 
L 150.907745 253.095069 
L 150.907745 252.631948 
L 152.130233 252.631948 
L 152.130233 251.705707 
L 153.637357 251.705707 
L 153.637357 250.779466 
L 156.003167 250.779466 
L 156.003167 250.316346 
L 158.546057 250.316346 
L 158.546057 249.853225 
L 160.64693 249.853225 
L 160.64693 248.926984 
L 163.168687 248.926984 
L 163.168687 248.000743 
L 171.291814 248.000743 
L 171.291814 247.537622 
L 172.577957 247.537622 
L 172.577957 247.074502 
L 201.470761 247.074502 
L 201.470761 246.148261 
L 338.688 246.148261 
L 338.688 246.148261 
" style="fill:none;stroke:#ff7500;stroke-linecap:square;stroke-width:1.5;"/>
   </g>
   <g id="line2d_46">
    <defs>
     <path d="M 0 -6 
L -1.347084 -1.854102 
L -5.706339 -1.854102 
L -2.179628 0.708204 
L -3.526712 4.854102 
L -0 2.291796 
L 3.526712 4.854102 
L 2.179628 0.708204 
L 5.706339 -1.854102 
L 1.347084 -1.854102 
z
" id="m9a7ba12a59" style="stroke:#ff7500;stroke-linejoin:bevel;stroke-width:1.5;"/>
    </defs>
    <g>
     <use style="fill-opacity:0;stroke:#ff7500;stroke-linejoin:bevel;stroke-width:1.5;" x="86.351421" xlink:href="#m9a7ba12a59" y="284.124143"/>
     <use style="fill-opacity:0;stroke:#ff7500;stroke-linejoin:bevel;stroke-width:1.5;" x="146.463409" xlink:href="#m9a7ba12a59" y="255.873792"/>
     <use style="fill-opacity:0;stroke:#ff7500;stroke-linejoin:bevel;stroke-width:1.5;" x="201.470761" xlink:href="#m9a7ba12a59" y="247.074502"/>
     <use style="fill-opacity:0;stroke:#ff7500;stroke-linejoin:bevel;stroke-width:1.5;" x="201.470761" xlink:href="#m9a7ba12a59" y="246.148261"/>
     <use style="fill-opacity:0;stroke:#ff7500;stroke-linejoin:bevel;stroke-width:1.5;" x="201.470761" xlink:href="#m9a7ba12a59" y="246.148261"/>
     <use style="fill-opacity:0;stroke:#ff7500;stroke-linejoin:bevel;stroke-width:1.5;" x="338.688" xlink:href="#m9a7ba12a59" y="246.148261"/>
    </g>
   </g>
   <g id="line2d_47">
    <path style="fill:none;stroke:#ff7500;stroke-linecap:square;stroke-width:1.5;"/>
    <g/>
   </g>
   <g id="line2d_48">
    <defs>
     <path d="M 0 1.5 
C 0.397805 1.5 0.77937 1.341951 1.06066 1.06066 
C 1.341951 0.77937 1.5 0.397805 1.5 0 
C 1.5 -0.397805 1.341951 -0.77937 1.06066 -1.06066 
C 0.77937 -1.341951 0.397805 -1.5 0 -1.5 
C -0.397805 -1.5 -0.77937 -1.341951 -1.06066 -1.06066 
C -1.341951 -0.77937 -1.5 -0.397805 -1.5 0 
C -1.5 0.397805 -1.341951 0.77937 -1.06066 1.06066 
C -0.77937 1.341951 -0.397805 1.5 0 1.5 
z
" id="m72074a0457" style="stroke:#6495ed;"/>
    </defs>
    <g>
     <use style="fill:#6495ed;stroke:#6495ed;" x="235.819304" xlink:href="#m72074a0457" y="206.783017"/>
     <use style="fill:#6495ed;stroke:#6495ed;" x="235.819304" xlink:href="#m72074a0457" y="206.783017"/>
    </g>
   </g>
   <g id="line2d_49">
    <path d="M 17.444571 298.944 
L 17.444571 288.755349 
L 36.60358 288.755349 
L 36.60358 288.292228 
L 63.467834 288.292228 
L 63.467834 287.829108 
L 68.79347 287.829108 
L 68.79347 287.365987 
L 73.579452 287.365987 
L 73.579452 286.902867 
L 80.416384 286.902867 
L 80.416384 286.439746 
L 81.334453 286.439746 
L 81.334453 285.976625 
L 83.037197 285.976625 
L 83.037197 285.513505 
L 86.351421 285.513505 
L 86.351421 285.050384 
L 88.846997 285.050384 
L 88.846997 284.587264 
L 90.509138 284.587264 
L 90.509138 284.124143 
L 93.422441 284.124143 
L 93.422441 283.661023 
L 93.863965 283.661023 
L 93.863965 282.271661 
L 95.526106 282.271661 
L 95.526106 281.808541 
L 96.489848 281.808541 
L 96.489848 281.34542 
L 98.100772 281.34542 
L 98.100772 280.8823 
L 98.43941 280.8823 
L 98.43941 280.419179 
L 100.040467 280.419179 
L 100.040467 279.956059 
L 101.365607 279.956059 
L 101.365607 279.492938 
L 104.114542 279.492938 
L 104.114542 279.029818 
L 104.355088 279.029818 
L 104.355088 278.566697 
L 107.514726 278.566697 
L 107.514726 278.103577 
L 108.294265 278.103577 
L 108.294265 277.640456 
L 108.577836 277.640456 
L 108.577836 277.177336 
L 108.948899 277.177336 
L 109.040444 276.251095 
L 109.31223 276.251095 
L 109.401893 275.324854 
L 109.579846 275.324854 
L 109.579846 274.861733 
L 111.185562 274.861733 
L 111.185562 274.398612 
L 112.051799 274.398612 
L 112.051799 273.935492 
L 112.280765 273.935492 
L 112.280765 273.009251 
L 112.803609 273.009251 
L 112.803609 272.54613 
L 114.148479 272.54613 
L 114.148479 272.08301 
L 114.552496 272.08301 
L 114.552496 271.619889 
L 114.882171 271.619889 
L 114.882171 271.156769 
L 115.397021 271.156769 
L 115.397021 270.230528 
L 116.914437 270.230528 
L 116.914437 269.767407 
L 117.709852 269.767407 
L 117.709852 269.304287 
L 118.786692 269.304287 
L 118.786692 268.841166 
L 119.351785 268.841166 
L 119.351785 268.378046 
L 119.850084 268.378046 
L 119.850084 267.914925 
L 122.699028 267.914925 
L 122.699028 267.451805 
L 124.216444 267.451805 
L 124.216444 266.988684 
L 127.261631 266.988684 
L 127.261631 266.525564 
L 131.615802 266.525564 
L 131.615802 265.599323 
L 131.913493 265.599323 
L 131.913493 265.136202 
L 133.443203 265.136202 
L 133.443203 264.673082 
L 133.931979 264.673082 
L 133.931979 264.209961 
L 134.849486 264.209961 
L 134.849486 263.746841 
L 135.937276 263.746841 
L 135.937276 263.28372 
L 137.198951 263.28372 
L 137.307607 261.431238 
L 137.770782 261.431238 
L 137.770782 260.968117 
L 139.107066 260.968117 
L 139.107066 260.504997 
L 139.964909 260.504997 
L 139.964909 260.041876 
L 140.165274 260.041876 
L 140.165274 259.578756 
L 140.317849 259.578756 
L 140.317849 259.115635 
L 142.51311 259.115635 
L 142.51311 258.652515 
L 142.739338 258.652515 
L 142.739338 258.189394 
L 144.233601 258.189394 
L 144.233601 257.726274 
L 144.474645 257.726274 
L 144.474645 256.800033 
L 144.77134 256.800033 
L 144.865226 255.873792 
L 145.212864 255.873792 
L 145.212864 255.410671 
L 145.542453 255.410671 
L 145.542453 254.48443 
L 146.08557 254.48443 
L 146.08557 254.02131 
L 147.02042 254.02131 
L 147.02042 253.095069 
L 148.005725 253.095069 
L 148.005725 252.168828 
L 149.610898 252.168828 
L 149.610898 251.705707 
L 149.893895 251.705707 
L 149.946449 250.316346 
L 150.198253 250.316346 
L 150.198253 249.853225 
L 153.416559 249.853225 
L 153.416559 249.390104 
L 153.609024 249.390104 
L 153.609024 248.926984 
L 155.904009 248.926984 
L 155.904009 248.463863 
L 157.709073 248.463863 
L 157.709073 248.000743 
L 158.146254 248.000743 
L 158.146254 247.537622 
L 158.374293 247.537622 
L 158.374293 247.074502 
L 158.503274 247.074502 
L 158.503274 246.148261 
L 159.995685 246.148261 
L 159.995685 245.68514 
L 160.77901 245.68514 
L 160.77901 245.22202 
L 161.470039 245.22202 
L 161.515149 244.295779 
L 165.197224 244.295779 
L 165.197224 243.369538 
L 167.033906 243.369538 
L 167.033906 242.906417 
L 167.570541 242.906417 
L 167.570541 241.980176 
L 167.706898 241.980176 
L 167.706898 241.053935 
L 168.530517 241.053935 
L 168.530517 240.590815 
L 168.766934 240.590815 
L 168.766934 239.664574 
L 170.809423 239.664574 
L 170.809423 238.738333 
L 172.446067 238.738333 
L 172.446067 237.812091 
L 172.678005 237.812091 
L 172.678005 236.88585 
L 173.931158 236.88585 
L 173.931158 236.42273 
L 175.162175 236.42273 
L 175.162175 235.496489 
L 175.649678 235.496489 
L 175.733608 233.644007 
L 176.825065 233.644007 
L 176.825065 233.180886 
L 180.713158 233.180886 
L 180.713158 232.717766 
L 183.811615 232.717766 
L 183.811615 231.791525 
L 184.33555 231.791525 
L 184.33555 231.328404 
L 184.902039 231.328404 
L 184.902039 230.865284 
L 187.554422 230.865284 
L 187.554422 229.939043 
L 188.239182 229.939043 
L 188.239182 229.012802 
L 191.443051 229.012802 
L 191.443051 228.086561 
L 192.658219 228.086561 
L 192.658219 227.16032 
L 194.454567 227.16032 
L 194.53411 225.307837 
L 196.591327 225.307837 
L 196.591327 224.381596 
L 197.076427 224.381596 
L 197.076427 223.918476 
L 197.854972 223.918476 
L 197.854972 222.992235 
L 198.231588 222.992235 
L 198.231588 222.065994 
L 199.34639 222.065994 
L 199.34639 221.602873 
L 201.200728 221.602873 
L 201.200728 220.676632 
L 202.352652 220.676632 
L 202.352652 220.213512 
L 203.048643 220.213512 
L 203.048643 219.750391 
L 203.542374 219.750391 
L 203.542374 219.287271 
L 207.543559 219.287271 
L 207.543559 218.36103 
L 207.700164 218.36103 
L 207.700164 217.434789 
L 207.815831 217.434789 
L 207.815831 216.971668 
L 210.499447 216.971668 
L 210.499447 216.045427 
L 213.074747 216.045427 
L 213.074747 215.582307 
L 214.598057 215.582307 
L 214.598057 214.656066 
L 217.783409 214.656066 
L 217.783409 213.729825 
L 219.345312 213.729825 
L 219.42948 212.340463 
L 219.516483 212.340463 
L 219.516483 211.414222 
L 221.242141 211.414222 
L 221.242141 210.487981 
L 226.583347 210.487981 
L 226.583347 209.098619 
L 229.528447 209.098619 
L 229.528447 208.635499 
L 233.279458 208.635499 
L 233.279458 207.709258 
L 235.819304 207.709258 
L 235.819304 206.783017 
L 338.688 206.783017 
L 338.688 206.783017 
" style="fill:none;stroke:#6495ed;stroke-linecap:square;stroke-width:1.5;"/>
   </g>
   <g id="line2d_50">
    <defs>
     <path d="M -0 6 
L 6 -6 
L -6 -6 
z
" id="m1446d3e4e6" style="stroke:#6495ed;stroke-linejoin:miter;stroke-width:1.5;"/>
    </defs>
    <g>
     <use style="fill-opacity:0;stroke:#6495ed;stroke-linejoin:miter;stroke-width:1.5;" x="63.467834" xlink:href="#m1446d3e4e6" y="288.292228"/>
     <use style="fill-opacity:0;stroke:#6495ed;stroke-linejoin:miter;stroke-width:1.5;" x="137.770782" xlink:href="#m1446d3e4e6" y="260.968117"/>
     <use style="fill-opacity:0;stroke:#6495ed;stroke-linejoin:miter;stroke-width:1.5;" x="207.700164" xlink:href="#m1446d3e4e6" y="218.36103"/>
     <use style="fill-opacity:0;stroke:#6495ed;stroke-linejoin:miter;stroke-width:1.5;" x="235.819304" xlink:href="#m1446d3e4e6" y="207.709258"/>
     <use style="fill-opacity:0;stroke:#6495ed;stroke-linejoin:miter;stroke-width:1.5;" x="235.819304" xlink:href="#m1446d3e4e6" y="206.783017"/>
     <use style="fill-opacity:0;stroke:#6495ed;stroke-linejoin:miter;stroke-width:1.5;" x="338.688" xlink:href="#m1446d3e4e6" y="206.783017"/>
    </g>
   </g>
   <g id="line2d_51">
    <path style="fill:none;stroke:#6495ed;stroke-linecap:square;stroke-width:1.5;"/>
    <g/>
   </g>
   <g id="line2d_52">
    <path clip-path="url(#pd8b83fe26a)" d="M 237.381072 206.783017 
" style="fill:none;stroke:#6495ed;stroke-linecap:square;stroke-width:1.5;"/>
    <defs>
     <path d="M -12 12 
L 12 -12 
M -12 -12 
L 12 12 
" id="ma047f0fd03" style="stroke:#6495ed;"/>
    </defs>
    <g clip-path="url(#pd8b83fe26a)">
     <use style="fill:#6495ed;stroke:#6495ed;" x="237.381072" xlink:href="#ma047f0fd03" y="206.783017"/>
    </g>
   </g>
   <g id="line2d_53">
    <defs>
     <path d="M 0 1.5 
C 0.397805 1.5 0.77937 1.341951 1.06066 1.06066 
C 1.341951 0.77937 1.5 0.397805 1.5 0 
C 1.5 -0.397805 1.341951 -0.77937 1.06066 -1.06066 
C 0.77937 -1.341951 0.397805 -1.5 0 -1.5 
C -0.397805 -1.5 -0.77937 -1.341951 -1.06066 -1.06066 
C -1.341951 -0.77937 -1.5 -0.397805 -1.5 0 
C -1.5 0.397805 -1.341951 0.77937 -1.06066 1.06066 
C -0.77937 1.341951 -0.397805 1.5 0 1.5 
z
" id="mdbb2dcef31" style="stroke:#ff0000;"/>
    </defs>
    <g>
     <use style="fill:#ff0000;stroke:#ff0000;" x="215.531141" xlink:href="#mdbb2dcef31" y="214.656066"/>
     <use style="fill:#ff0000;stroke:#ff0000;" x="215.531141" xlink:href="#mdbb2dcef31" y="214.656066"/>
    </g>
   </g>
   <g id="line2d_54">
    <path d="M 17.444571 298.944 
L 17.444571 288.755349 
L 73.579452 288.755349 
L 73.579452 288.292228 
L 74.921597 288.292228 
L 74.921597 287.829108 
L 80.416384 287.829108 
L 80.416384 287.365987 
L 81.334453 287.365987 
L 81.334453 286.902867 
L 83.830028 286.902867 
L 83.830028 286.439746 
L 84.588378 286.439746 
L 84.588378 285.976625 
L 86.683608 285.976625 
L 86.683608 285.513505 
L 88.846997 285.513505 
L 88.846997 284.587264 
L 89.135256 284.587264 
L 89.135256 284.124143 
L 90.242884 284.124143 
L 90.242884 283.661023 
L 91.284345 283.661023 
L 91.284345 283.197902 
L 91.782644 283.197902 
L 91.782644 282.734782 
L 93.422441 282.734782 
L 93.422441 282.271661 
L 93.644601 282.271661 
L 93.644601 281.808541 
L 93.863965 281.808541 
L 93.863965 281.34542 
L 94.080605 281.34542 
L 94.080605 280.8823 
L 95.918017 280.8823 
L 95.918017 280.419179 
L 96.110718 280.419179 
L 96.110718 279.956059 
L 98.100772 279.956059 
L 98.100772 279.029818 
L 100.192776 279.029818 
L 100.192776 278.566697 
L 100.493461 278.566697 
L 100.493461 278.103577 
L 100.934985 278.103577 
L 100.934985 277.640456 
L 101.506816 277.640456 
L 101.506816 277.177336 
L 102.597126 277.177336 
L 102.597126 276.251095 
L 104.355088 276.251095 
L 104.355088 275.787974 
L 104.474128 275.787974 
L 104.474128 275.324854 
L 106.802819 275.324854 
L 106.906317 274.398612 
L 107.90885 274.398612 
L 107.90885 273.472371 
L 109.930396 273.472371 
L 109.930396 273.009251 
L 110.694282 273.009251 
L 110.694282 272.54613 
L 111.974805 272.54613 
L 111.974805 272.08301 
L 112.128456 272.08301 
L 112.128456 271.619889 
L 114.351658 271.619889 
L 114.351658 270.693648 
L 115.586238 270.693648 
L 115.586238 270.230528 
L 116.856209 270.230528 
L 116.856209 269.304287 
L 117.316679 269.304287 
L 117.316679 268.841166 
L 118.734401 268.841166 
L 118.734401 268.378046 
L 121.219499 268.378046 
L 121.310093 267.451805 
L 124.706662 267.451805 
L 124.706662 266.525564 
L 125.787955 266.525564 
L 125.787955 266.062443 
L 127.035353 266.062443 
L 127.035353 265.599323 
L 127.453273 265.599323 
L 127.453273 265.136202 
L 128.015879 265.136202 
L 128.015879 264.673082 
L 130.76994 264.673082 
L 130.76994 264.209961 
L 132.917126 264.209961 
L 132.917126 263.746841 
L 133.170708 263.746841 
L 133.170708 263.28372 
L 133.46572 263.28372 
L 133.46572 262.357479 
L 134.062938 262.357479 
L 134.062938 261.894358 
L 134.236034 261.894358 
L 134.236034 261.431238 
L 134.513701 261.431238 
L 134.513701 260.968117 
L 135.44209 260.968117 
L 135.44209 260.041876 
L 140.574203 260.041876 
L 140.574203 259.115635 
L 140.959126 259.115635 
L 140.959126 258.652515 
L 141.913576 258.652515 
L 141.913576 258.189394 
L 144.582038 258.189394 
L 144.582038 257.263153 
L 144.865226 257.263153 
L 144.865226 256.336912 
L 146.09648 256.336912 
L 146.09648 255.873792 
L 147.368603 255.873792 
L 147.368603 255.410671 
L 147.620256 255.410671 
L 147.620256 254.947551 
L 148.17112 254.947551 
L 148.17112 254.48443 
L 148.440161 254.48443 
L 148.45922 253.558189 
L 148.554206 253.558189 
L 148.554206 252.631948 
L 149.476646 252.631948 
L 149.476646 252.168828 
L 149.735275 252.168828 
L 149.735275 251.705707 
L 150.249899 251.705707 
L 150.249899 250.779466 
L 151.437608 250.779466 
L 151.437608 250.316346 
L 153.017805 250.316346 
L 153.017805 249.853225 
L 154.351528 249.853225 
L 154.351528 248.926984 
L 155.303359 248.926984 
L 155.303359 248.463863 
L 157.731474 248.463863 
L 157.731474 248.000743 
L 157.964965 248.000743 
L 157.964965 247.074502 
L 159.911925 247.074502 
L 159.911925 246.611381 
L 160.872745 246.611381 
L 160.872745 246.148261 
L 161.465522 246.148261 
L 161.465522 245.68514 
L 162.846111 245.68514 
L 162.846111 244.758899 
L 164.117618 244.758899 
L 164.117618 244.295779 
L 164.667654 244.295779 
L 164.667654 243.832658 
L 166.244815 243.832658 
L 166.244815 243.369538 
L 167.239518 243.369538 
L 167.239518 242.906417 
L 167.413847 242.906417 
L 167.413847 242.443297 
L 168.581663 242.443297 
L 168.581663 241.980176 
L 171.294385 241.980176 
L 171.294385 241.053935 
L 172.11314 241.053935 
L 172.11314 240.127694 
L 172.658992 240.127694 
L 172.658992 239.664574 
L 173.564801 239.664574 
L 173.564801 238.738333 
L 173.966492 238.738333 
L 173.966492 237.812091 
L 174.564989 237.812091 
L 174.564989 237.348971 
L 178.351686 237.348971 
L 178.351686 236.88585 
L 179.602729 236.88585 
L 179.602729 235.959609 
L 180.627542 235.959609 
L 180.627542 235.033368 
L 181.175946 235.033368 
L 181.175946 234.570248 
L 182.082862 234.570248 
L 182.082862 234.107127 
L 182.213959 234.107127 
L 182.213959 233.180886 
L 182.86698 233.180886 
L 182.959433 231.328404 
L 183.21183 231.328404 
L 183.21183 230.865284 
L 185.35452 230.865284 
L 185.35452 229.939043 
L 186.186347 229.939043 
L 186.186347 229.012802 
L 188.905562 229.012802 
L 188.977538 227.62344 
L 194.605863 227.62344 
L 194.605863 226.697199 
L 194.950332 226.697199 
L 194.950332 225.770958 
L 195.105941 225.770958 
L 195.105941 224.844717 
L 198.168922 224.844717 
L 198.168922 223.918476 
L 199.217747 223.918476 
L 199.217747 222.992235 
L 199.591222 222.992235 
L 199.591222 222.065994 
L 200.421798 222.065994 
L 200.421798 221.139753 
L 200.540446 221.139753 
L 200.540446 220.676632 
L 202.629018 220.676632 
L 202.629018 220.213512 
L 205.401098 220.213512 
L 205.401098 219.750391 
L 206.968307 219.750391 
L 206.968307 218.82415 
L 208.675698 218.82415 
L 208.675698 218.36103 
L 210.590178 218.36103 
L 210.590178 217.434789 
L 211.890342 217.434789 
L 211.890342 216.971668 
L 213.478819 216.971668 
L 213.478819 216.045427 
L 214.397263 216.045427 
L 214.397263 215.582307 
L 215.531141 215.582307 
L 215.531141 214.656066 
L 338.688 214.656066 
L 338.688 214.656066 
" style="fill:none;stroke:#ff0000;stroke-linecap:square;stroke-width:1.5;"/>
   </g>
   <g id="line2d_55">
    <defs>
     <path d="M 0 -6 
L -5.196152 -3 
L -5.196152 3 
L -0 6 
L 5.196152 3 
L 5.196152 -3 
z
" id="mbcce32ecd2" style="stroke:#ff0000;stroke-linejoin:miter;stroke-width:1.5;"/>
    </defs>
    <g>
     <use style="fill-opacity:0;stroke:#ff0000;stroke-linejoin:miter;stroke-width:1.5;" x="86.683608" xlink:href="#mbcce32ecd2" y="285.513505"/>
     <use style="fill-opacity:0;stroke:#ff0000;stroke-linejoin:miter;stroke-width:1.5;" x="148.554206" xlink:href="#mbcce32ecd2" y="253.558189"/>
     <use style="fill-opacity:0;stroke:#ff0000;stroke-linejoin:miter;stroke-width:1.5;" x="215.531141" xlink:href="#mbcce32ecd2" y="215.582307"/>
     <use style="fill-opacity:0;stroke:#ff0000;stroke-linejoin:miter;stroke-width:1.5;" x="215.531141" xlink:href="#mbcce32ecd2" y="214.656066"/>
     <use style="fill-opacity:0;stroke:#ff0000;stroke-linejoin:miter;stroke-width:1.5;" x="215.531141" xlink:href="#mbcce32ecd2" y="214.656066"/>
     <use style="fill-opacity:0;stroke:#ff0000;stroke-linejoin:miter;stroke-width:1.5;" x="338.688" xlink:href="#mbcce32ecd2" y="214.656066"/>
    </g>
   </g>
   <g id="line2d_56">
    <path style="fill:none;stroke:#ff0000;stroke-linecap:square;stroke-width:1.5;"/>
    <g/>
   </g>
   <g id="line2d_57">
    <path clip-path="url(#pd8b83fe26a)" d="M 218.222412 214.656066 
" style="fill:none;stroke:#ff0000;stroke-linecap:square;stroke-width:1.5;"/>
    <defs>
     <path d="M -12 12 
L 12 -12 
M -12 -12 
L 12 12 
" id="m51caefa91a" style="stroke:#ff0000;"/>
    </defs>
    <g clip-path="url(#pd8b83fe26a)">
     <use style="fill:#ff0000;stroke:#ff0000;" x="218.222412" xlink:href="#m51caefa91a" y="214.656066"/>
    </g>
   </g>
   <g id="line2d_58">
    <path d="M 338.688 246.148261 
L 369.60768 293.571802 
" style="fill:none;stroke:#ff7500;stroke-linecap:square;stroke-width:1.5;"/>
    <g>
     <use style="fill-opacity:0;stroke:#ff7500;stroke-linejoin:bevel;stroke-width:1.5;" x="338.688" xlink:href="#m9a7ba12a59" y="246.148261"/>
     <use style="fill-opacity:0;stroke:#ff7500;stroke-linejoin:bevel;stroke-width:1.5;" x="369.60768" xlink:href="#m9a7ba12a59" y="293.571802"/>
    </g>
   </g>
   <g id="line2d_59">
    <path d="M 338.688 214.656066 
L 369.60768 241.998701 
" style="fill:none;stroke:#ff0000;stroke-linecap:square;stroke-width:1.5;"/>
    <g>
     <use style="fill-opacity:0;stroke:#ff0000;stroke-linejoin:miter;stroke-width:1.5;" x="338.688" xlink:href="#mbcce32ecd2" y="214.656066"/>
     <use style="fill-opacity:0;stroke:#ff0000;stroke-linejoin:miter;stroke-width:1.5;" x="369.60768" xlink:href="#mbcce32ecd2" y="241.998701"/>
    </g>
   </g>
   <g id="line2d_60">
    <path d="M 338.688 206.783017 
L 369.60768 190.4256 
" style="fill:none;stroke:#6495ed;stroke-linecap:square;stroke-width:1.5;"/>
    <g>
     <use style="fill-opacity:0;stroke:#6495ed;stroke-linejoin:miter;stroke-width:1.5;" x="338.688" xlink:href="#m1446d3e4e6" y="206.783017"/>
     <use style="fill-opacity:0;stroke:#6495ed;stroke-linejoin:miter;stroke-width:1.5;" x="369.60768" xlink:href="#m1446d3e4e6" y="190.4256"/>
    </g>
   </g>
   <g id="line2d_61">
    <path d="M 338.688 193.352522 
L 369.60768 138.852499 
" style="fill:none;stroke:#000080;stroke-linecap:square;stroke-width:1.5;"/>
    <g>
     <use style="fill-opacity:0;stroke:#000080;stroke-width:1.5;" x="338.688" xlink:href="#m90dc406477" y="193.352522"/>
     <use style="fill-opacity:0;stroke:#000080;stroke-width:1.5;" x="369.60768" xlink:href="#m90dc406477" y="138.852499"/>
    </g>
   </g>
   <g id="line2d_62">
    <path d="M 338.688 191.036919 
L 369.60768 87.279398 
" style="fill:none;stroke:#ff00ff;stroke-linecap:square;stroke-width:1.5;"/>
    <g>
     <use style="fill-opacity:0;stroke:#ff00ff;stroke-linejoin:miter;stroke-width:1.5;" x="338.688" xlink:href="#m1e68a64f3d" y="191.036919"/>
     <use style="fill-opacity:0;stroke:#ff00ff;stroke-linejoin:miter;stroke-width:1.5;" x="369.60768" xlink:href="#m1e68a64f3d" y="87.279398"/>
    </g>
   </g>
   <g id="line2d_63">
    <path d="M 338.688 298.944 
L 338.688 30.334099 
" style="fill:none;stroke:#000000;stroke-linecap:square;stroke-width:1.5;"/>
   </g>
   <g id="patch_3">
    <path d="M 57.6 298.944 
L 57.6 27.648 
" style="fill:none;stroke:#000000;stroke-linecap:square;stroke-linejoin:miter;stroke-width:0.8;"/>
   </g>
   <g id="patch_4">
    <path d="M 338.688 298.944 
L 338.688 27.648 
" style="fill:none;stroke:#000000;stroke-linecap:square;stroke-linejoin:miter;stroke-width:0.8;"/>
   </g>
   <g id="patch_5">
    <path d="M 57.6 298.944 
L 338.688 298.944 
" style="fill:none;stroke:#000000;stroke-linecap:square;stroke-linejoin:miter;stroke-width:0.8;"/>
   </g>
   <g id="patch_6">
    <path d="M 57.6 27.648 
L 338.688 27.648 
" style="fill:none;stroke:#000000;stroke-linecap:square;stroke-linejoin:miter;stroke-width:0.8;"/>
   </g>
   <g id="text_13">
    <!-- bestchvon -->
    <defs>
     <path d="M 48.6875 27.296875 
Q 48.6875 37.203125 44.609375 42.84375 
Q 40.53125 48.484375 33.40625 48.484375 
Q 26.265625 48.484375 22.1875 42.84375 
Q 18.109375 37.203125 18.109375 27.296875 
Q 18.109375 17.390625 22.1875 11.75 
Q 26.265625 6.109375 33.40625 6.109375 
Q 40.53125 6.109375 44.609375 11.75 
Q 48.6875 17.390625 48.6875 27.296875 
z
M 18.109375 46.390625 
Q 20.953125 51.265625 25.265625 53.625 
Q 29.59375 56 35.59375 56 
Q 45.5625 56 51.78125 48.09375 
Q 58.015625 40.1875 58.015625 27.296875 
Q 58.015625 14.40625 51.78125 6.484375 
Q 45.5625 -1.421875 35.59375 -1.421875 
Q 29.59375 -1.421875 25.265625 0.953125 
Q 20.953125 3.328125 18.109375 8.203125 
L 18.109375 0 
L 9.078125 0 
L 9.078125 75.984375 
L 18.109375 75.984375 
z
" id="DejaVuSans-98"/>
     <path d="M 54.890625 33.015625 
L 54.890625 0 
L 45.90625 0 
L 45.90625 32.71875 
Q 45.90625 40.484375 42.875 44.328125 
Q 39.84375 48.1875 33.796875 48.1875 
Q 26.515625 48.1875 22.3125 43.546875 
Q 18.109375 38.921875 18.109375 30.90625 
L 18.109375 0 
L 9.078125 0 
L 9.078125 75.984375 
L 18.109375 75.984375 
L 18.109375 46.1875 
Q 21.34375 51.125 25.703125 53.5625 
Q 30.078125 56 35.796875 56 
Q 45.21875 56 50.046875 50.171875 
Q 54.890625 44.34375 54.890625 33.015625 
z
" id="DejaVuSans-104"/>
    </defs>
    <g transform="translate(375.22944 298.262739)scale(0.17 -0.17)">
     <use xlink:href="#DejaVuSans-98"/>
     <use x="63.476562" xlink:href="#DejaVuSans-101"/>
     <use x="125" xlink:href="#DejaVuSans-115"/>
     <use x="177.099609" xlink:href="#DejaVuSans-116"/>
     <use x="216.308594" xlink:href="#DejaVuSans-99"/>
     <use x="271.289062" xlink:href="#DejaVuSans-104"/>
     <use x="334.667969" xlink:href="#DejaVuSans-118"/>
     <use x="393.847656" xlink:href="#DejaVuSans-111"/>
     <use x="455.029297" xlink:href="#DejaVuSans-110"/>
    </g>
   </g>
   <g id="text_14">
    <!-- randomres -->
    <g transform="translate(375.22944 246.689638)scale(0.17 -0.17)">
     <use xlink:href="#DejaVuSans-114"/>
     <use x="41.113281" xlink:href="#DejaVuSans-97"/>
     <use x="102.392578" xlink:href="#DejaVuSans-110"/>
     <use x="165.771484" xlink:href="#DejaVuSans-100"/>
     <use x="229.248047" xlink:href="#DejaVuSans-111"/>
     <use x="290.429688" xlink:href="#DejaVuSans-109"/>
     <use x="387.841797" xlink:href="#DejaVuSans-114"/>
     <use x="428.923828" xlink:href="#DejaVuSans-101"/>
     <use x="490.447266" xlink:href="#DejaVuSans-115"/>
    </g>
   </g>
   <g id="text_15">
    <!-- default-n -->
    <g transform="translate(375.22944 195.116537)scale(0.17 -0.17)">
     <use xlink:href="#DejaVuSans-100"/>
     <use x="63.476562" xlink:href="#DejaVuSans-101"/>
     <use x="125" xlink:href="#DejaVuSans-102"/>
     <use x="160.205078" xlink:href="#DejaVuSans-97"/>
     <use x="221.484375" xlink:href="#DejaVuSans-117"/>
     <use x="284.863281" xlink:href="#DejaVuSans-108"/>
     <use x="312.646484" xlink:href="#DejaVuSans-116"/>
     <use x="351.855469" xlink:href="#DejaVuSans-45"/>
     <use x="387.939453" xlink:href="#DejaVuSans-110"/>
    </g>
   </g>
   <g id="text_16">
    <!-- 30popsize -->
    <defs>
     <path d="M 40.578125 39.3125 
Q 47.65625 37.796875 51.625 33 
Q 55.609375 28.21875 55.609375 21.1875 
Q 55.609375 10.40625 48.1875 4.484375 
Q 40.765625 -1.421875 27.09375 -1.421875 
Q 22.515625 -1.421875 17.65625 -0.515625 
Q 12.796875 0.390625 7.625 2.203125 
L 7.625 11.71875 
Q 11.71875 9.328125 16.59375 8.109375 
Q 21.484375 6.890625 26.8125 6.890625 
Q 36.078125 6.890625 40.9375 10.546875 
Q 45.796875 14.203125 45.796875 21.1875 
Q 45.796875 27.640625 41.28125 31.265625 
Q 36.765625 34.90625 28.71875 34.90625 
L 20.21875 34.90625 
L 20.21875 43.015625 
L 29.109375 43.015625 
Q 36.375 43.015625 40.234375 45.921875 
Q 44.09375 48.828125 44.09375 54.296875 
Q 44.09375 59.90625 40.109375 62.90625 
Q 36.140625 65.921875 28.71875 65.921875 
Q 24.65625 65.921875 20.015625 65.03125 
Q 15.375 64.15625 9.8125 62.3125 
L 9.8125 71.09375 
Q 15.4375 72.65625 20.34375 73.4375 
Q 25.25 74.21875 29.59375 74.21875 
Q 40.828125 74.21875 47.359375 69.109375 
Q 53.90625 64.015625 53.90625 55.328125 
Q 53.90625 49.265625 50.4375 45.09375 
Q 46.96875 40.921875 40.578125 39.3125 
z
" id="DejaVuSans-51"/>
     <path d="M 5.515625 54.6875 
L 48.1875 54.6875 
L 48.1875 46.484375 
L 14.40625 7.171875 
L 48.1875 7.171875 
L 48.1875 0 
L 4.296875 0 
L 4.296875 8.203125 
L 38.09375 47.515625 
L 5.515625 47.515625 
z
" id="DejaVuSans-122"/>
    </defs>
    <g transform="translate(375.22944 143.543437)scale(0.17 -0.17)">
     <use xlink:href="#DejaVuSans-51"/>
     <use x="63.623047" xlink:href="#DejaVuSans-48"/>
     <use x="127.246094" xlink:href="#DejaVuSans-112"/>
     <use x="190.722656" xlink:href="#DejaVuSans-111"/>
     <use x="251.904297" xlink:href="#DejaVuSans-112"/>
     <use x="315.380859" xlink:href="#DejaVuSans-115"/>
     <use x="367.480469" xlink:href="#DejaVuSans-105"/>
     <use x="395.263672" xlink:href="#DejaVuSans-122"/>
     <use x="447.753906" xlink:href="#DejaVuSans-101"/>
    </g>
   </g>
   <g id="text_17">
    <!-- adaptivep -->
    <g transform="translate(375.22944 91.970336)scale(0.17 -0.17)">
     <use xlink:href="#DejaVuSans-97"/>
     <use x="61.279297" xlink:href="#DejaVuSans-100"/>
     <use x="124.755859" xlink:href="#DejaVuSans-97"/>
     <use x="186.035156" xlink:href="#DejaVuSans-112"/>
     <use x="249.511719" xlink:href="#DejaVuSans-116"/>
     <use x="288.720703" xlink:href="#DejaVuSans-105"/>
     <use x="316.503906" xlink:href="#DejaVuSans-118"/>
     <use x="375.683594" xlink:href="#DejaVuSans-101"/>
     <use x="437.207031" xlink:href="#DejaVuSans-112"/>
    </g>
   </g>
   <g id="text_18">
    <!-- best 2016 -->
    <g transform="translate(375.22944 40.397235)scale(0.17 -0.17)">
     <use xlink:href="#DejaVuSans-98"/>
     <use x="63.476562" xlink:href="#DejaVuSans-101"/>
     <use x="125" xlink:href="#DejaVuSans-115"/>
     <use x="177.099609" xlink:href="#DejaVuSans-116"/>
     <use x="216.308594" xlink:href="#DejaVuSans-32"/>
     <use x="248.095703" xlink:href="#DejaVuSans-50"/>
     <use x="311.71875" xlink:href="#DejaVuSans-48"/>
     <use x="375.341797" xlink:href="#DejaVuSans-49"/>
     <use x="438.964844" xlink:href="#DejaVuSans-54"/>
    </g>
   </g>
   <g id="text_19">
    <!-- bbob-biobj f24, 10-D -->
    <defs>
     <path d="M 9.421875 54.6875 
L 18.40625 54.6875 
L 18.40625 -0.984375 
Q 18.40625 -11.421875 14.421875 -16.109375 
Q 10.453125 -20.796875 1.609375 -20.796875 
L -1.8125 -20.796875 
L -1.8125 -13.1875 
L 0.59375 -13.1875 
Q 5.71875 -13.1875 7.5625 -10.8125 
Q 9.421875 -8.453125 9.421875 -0.984375 
z
M 9.421875 75.984375 
L 18.40625 75.984375 
L 18.40625 64.59375 
L 9.421875 64.59375 
z
" id="DejaVuSans-106"/>
     <path d="M 19.671875 64.796875 
L 19.671875 8.109375 
L 31.59375 8.109375 
Q 46.6875 8.109375 53.6875 14.9375 
Q 60.6875 21.78125 60.6875 36.53125 
Q 60.6875 51.171875 53.6875 57.984375 
Q 46.6875 64.796875 31.59375 64.796875 
z
M 9.8125 72.90625 
L 30.078125 72.90625 
Q 51.265625 72.90625 61.171875 64.09375 
Q 71.09375 55.28125 71.09375 36.53125 
Q 71.09375 17.671875 61.125 8.828125 
Q 51.171875 0 30.078125 0 
L 9.8125 0 
z
" id="DejaVuSans-68"/>
    </defs>
    <g transform="translate(60.41088 38.111366)scale(0.102 -0.102)">
     <use xlink:href="#DejaVuSans-98"/>
     <use x="63.476562" xlink:href="#DejaVuSans-98"/>
     <use x="126.953125" xlink:href="#DejaVuSans-111"/>
     <use x="188.134766" xlink:href="#DejaVuSans-98"/>
     <use x="251.611328" xlink:href="#DejaVuSans-45"/>
     <use x="287.695312" xlink:href="#DejaVuSans-98"/>
     <use x="351.171875" xlink:href="#DejaVuSans-105"/>
     <use x="378.955078" xlink:href="#DejaVuSans-111"/>
     <use x="440.136719" xlink:href="#DejaVuSans-98"/>
     <use x="503.613281" xlink:href="#DejaVuSans-106"/>
     <use x="531.396484" xlink:href="#DejaVuSans-32"/>
     <use x="563.183594" xlink:href="#DejaVuSans-102"/>
     <use x="598.388672" xlink:href="#DejaVuSans-50"/>
     <use x="662.011719" xlink:href="#DejaVuSans-52"/>
     <use x="725.634766" xlink:href="#DejaVuSans-44"/>
     <use x="757.421875" xlink:href="#DejaVuSans-32"/>
     <use x="789.208984" xlink:href="#DejaVuSans-49"/>
     <use x="852.832031" xlink:href="#DejaVuSans-48"/>
     <use x="916.455078" xlink:href="#DejaVuSans-45"/>
     <use x="952.539062" xlink:href="#DejaVuSans-68"/>
    </g>
    <!-- 58 targets: 1..-1.0e-4 -->
    <defs>
     <path d="M 10.796875 72.90625 
L 49.515625 72.90625 
L 49.515625 64.59375 
L 19.828125 64.59375 
L 19.828125 46.734375 
Q 21.96875 47.46875 24.109375 47.828125 
Q 26.265625 48.1875 28.421875 48.1875 
Q 40.625 48.1875 47.75 41.5 
Q 54.890625 34.8125 54.890625 23.390625 
Q 54.890625 11.625 47.5625 5.09375 
Q 40.234375 -1.421875 26.90625 -1.421875 
Q 22.3125 -1.421875 17.546875 -0.640625 
Q 12.796875 0.140625 7.71875 1.703125 
L 7.71875 11.625 
Q 12.109375 9.234375 16.796875 8.0625 
Q 21.484375 6.890625 26.703125 6.890625 
Q 35.15625 6.890625 40.078125 11.328125 
Q 45.015625 15.765625 45.015625 23.390625 
Q 45.015625 31 40.078125 35.4375 
Q 35.15625 39.890625 26.703125 39.890625 
Q 22.75 39.890625 18.8125 39.015625 
Q 14.890625 38.140625 10.796875 36.28125 
z
" id="DejaVuSans-53"/>
     <path d="M 11.71875 12.40625 
L 22.015625 12.40625 
L 22.015625 0 
L 11.71875 0 
z
M 11.71875 51.703125 
L 22.015625 51.703125 
L 22.015625 39.3125 
L 11.71875 39.3125 
z
" id="DejaVuSans-58"/>
    </defs>
    <g transform="translate(60.41088 49.533135)scale(0.102 -0.102)">
     <use xlink:href="#DejaVuSans-53"/>
     <use x="63.623047" xlink:href="#DejaVuSans-56"/>
     <use x="127.246094" xlink:href="#DejaVuSans-32"/>
     <use x="159.033203" xlink:href="#DejaVuSans-116"/>
     <use x="198.242188" xlink:href="#DejaVuSans-97"/>
     <use x="259.521484" xlink:href="#DejaVuSans-114"/>
     <use x="300.619141" xlink:href="#DejaVuSans-103"/>
     <use x="364.095703" xlink:href="#DejaVuSans-101"/>
     <use x="425.619141" xlink:href="#DejaVuSans-116"/>
     <use x="464.828125" xlink:href="#DejaVuSans-115"/>
     <use x="516.927734" xlink:href="#DejaVuSans-58"/>
     <use x="550.619141" xlink:href="#DejaVuSans-32"/>
     <use x="582.40625" xlink:href="#DejaVuSans-49"/>
     <use x="646.029297" xlink:href="#DejaVuSans-46"/>
     <use x="677.816406" xlink:href="#DejaVuSans-46"/>
     <use x="709.603516" xlink:href="#DejaVuSans-45"/>
     <use x="745.6875" xlink:href="#DejaVuSans-49"/>
     <use x="809.310547" xlink:href="#DejaVuSans-46"/>
     <use x="841.097656" xlink:href="#DejaVuSans-48"/>
     <use x="904.720703" xlink:href="#DejaVuSans-101"/>
     <use x="966.244141" xlink:href="#DejaVuSans-45"/>
     <use x="1002.328125" xlink:href="#DejaVuSans-52"/>
    </g>
    <!-- 10 instances -->
    <g transform="translate(60.41088 60.954904)scale(0.102 -0.102)">
     <use xlink:href="#DejaVuSans-49"/>
     <use x="63.623047" xlink:href="#DejaVuSans-48"/>
     <use x="127.246094" xlink:href="#DejaVuSans-32"/>
     <use x="159.033203" xlink:href="#DejaVuSans-105"/>
     <use x="186.816406" xlink:href="#DejaVuSans-110"/>
     <use x="250.195312" xlink:href="#DejaVuSans-115"/>
     <use x="302.294922" xlink:href="#DejaVuSans-116"/>
     <use x="341.503906" xlink:href="#DejaVuSans-97"/>
     <use x="402.783203" xlink:href="#DejaVuSans-110"/>
     <use x="466.162109" xlink:href="#DejaVuSans-99"/>
     <use x="521.142578" xlink:href="#DejaVuSans-101"/>
     <use x="582.666016" xlink:href="#DejaVuSans-115"/>
    </g>
   </g>
   <g id="text_20">
    <!-- v2.3.3.67, hv-hash=ff0e71e8cd978373 -->
    <defs>
     <path d="M 8.203125 72.90625 
L 55.078125 72.90625 
L 55.078125 68.703125 
L 28.609375 0 
L 18.3125 0 
L 43.21875 64.59375 
L 8.203125 64.59375 
z
" id="DejaVuSans-55"/>
     <path d="M 10.59375 45.40625 
L 73.1875 45.40625 
L 73.1875 37.203125 
L 10.59375 37.203125 
z
M 10.59375 25.484375 
L 73.1875 25.484375 
L 73.1875 17.1875 
L 10.59375 17.1875 
z
" id="DejaVuSans-61"/>
     <path d="M 10.984375 1.515625 
L 10.984375 10.5 
Q 14.703125 8.734375 18.5 7.8125 
Q 22.3125 6.890625 25.984375 6.890625 
Q 35.75 6.890625 40.890625 13.453125 
Q 46.046875 20.015625 46.78125 33.40625 
Q 43.953125 29.203125 39.59375 26.953125 
Q 35.25 24.703125 29.984375 24.703125 
Q 19.046875 24.703125 12.671875 31.3125 
Q 6.296875 37.9375 6.296875 49.421875 
Q 6.296875 60.640625 12.9375 67.421875 
Q 19.578125 74.21875 30.609375 74.21875 
Q 43.265625 74.21875 49.921875 64.515625 
Q 56.59375 54.828125 56.59375 36.375 
Q 56.59375 19.140625 48.40625 8.859375 
Q 40.234375 -1.421875 26.421875 -1.421875 
Q 22.703125 -1.421875 18.890625 -0.6875 
Q 15.09375 0.046875 10.984375 1.515625 
z
M 30.609375 32.421875 
Q 37.25 32.421875 41.125 36.953125 
Q 45.015625 41.5 45.015625 49.421875 
Q 45.015625 57.28125 41.125 61.84375 
Q 37.25 66.40625 30.609375 66.40625 
Q 23.96875 66.40625 20.09375 61.84375 
Q 16.21875 57.28125 16.21875 49.421875 
Q 16.21875 41.5 20.09375 36.953125 
Q 23.96875 32.421875 30.609375 32.421875 
z
" id="DejaVuSans-57"/>
    </defs>
    <g style="fill:#808080;" transform="translate(99.797125 294.151352)scale(0.1 -0.1)">
     <use xlink:href="#DejaVuSans-118"/>
     <use x="59.179688" xlink:href="#DejaVuSans-50"/>
     <use x="122.802734" xlink:href="#DejaVuSans-46"/>
     <use x="154.589844" xlink:href="#DejaVuSans-51"/>
     <use x="218.212891" xlink:href="#DejaVuSans-46"/>
     <use x="250" xlink:href="#DejaVuSans-51"/>
     <use x="313.623047" xlink:href="#DejaVuSans-46"/>
     <use x="345.410156" xlink:href="#DejaVuSans-54"/>
     <use x="409.033203" xlink:href="#DejaVuSans-55"/>
     <use x="472.65625" xlink:href="#DejaVuSans-44"/>
     <use x="504.443359" xlink:href="#DejaVuSans-32"/>
     <use x="536.230469" xlink:href="#DejaVuSans-104"/>
     <use x="599.609375" xlink:href="#DejaVuSans-118"/>
     <use x="658.757812" xlink:href="#DejaVuSans-45"/>
     <use x="694.841797" xlink:href="#DejaVuSans-104"/>
     <use x="758.220703" xlink:href="#DejaVuSans-97"/>
     <use x="819.5" xlink:href="#DejaVuSans-115"/>
     <use x="871.599609" xlink:href="#DejaVuSans-104"/>
     <use x="934.978516" xlink:href="#DejaVuSans-61"/>
     <use x="1018.767578" xlink:href="#DejaVuSans-102"/>
     <use x="1053.972656" xlink:href="#DejaVuSans-102"/>
     <use x="1089.177734" xlink:href="#DejaVuSans-48"/>
     <use x="1152.800781" xlink:href="#DejaVuSans-101"/>
     <use x="1214.324219" xlink:href="#DejaVuSans-55"/>
     <use x="1277.947266" xlink:href="#DejaVuSans-49"/>
     <use x="1341.570312" xlink:href="#DejaVuSans-101"/>
     <use x="1403.09375" xlink:href="#DejaVuSans-56"/>
     <use x="1466.716797" xlink:href="#DejaVuSans-99"/>
     <use x="1521.697266" xlink:href="#DejaVuSans-100"/>
     <use x="1585.173828" xlink:href="#DejaVuSans-57"/>
     <use x="1648.796875" xlink:href="#DejaVuSans-55"/>
     <use x="1712.419922" xlink:href="#DejaVuSans-56"/>
     <use x="1776.042969" xlink:href="#DejaVuSans-51"/>
     <use x="1839.666016" xlink:href="#DejaVuSans-55"/>
     <use x="1903.289062" xlink:href="#DejaVuSans-51"/>
    </g>
   </g>
   <g id="text_21">
    <!-- 24 Attr. sector/Rastrigin -->
    <defs>
     <path d="M 34.1875 63.1875 
L 20.796875 26.90625 
L 47.609375 26.90625 
z
M 28.609375 72.90625 
L 39.796875 72.90625 
L 67.578125 0 
L 57.328125 0 
L 50.6875 18.703125 
L 17.828125 18.703125 
L 11.1875 0 
L 0.78125 0 
z
" id="DejaVuSans-65"/>
     <path d="M 44.390625 34.1875 
Q 47.5625 33.109375 50.5625 29.59375 
Q 53.5625 26.078125 56.59375 19.921875 
L 66.609375 0 
L 56 0 
L 46.6875 18.703125 
Q 43.0625 26.03125 39.671875 28.421875 
Q 36.28125 30.8125 30.421875 30.8125 
L 19.671875 30.8125 
L 19.671875 0 
L 9.8125 0 
L 9.8125 72.90625 
L 32.078125 72.90625 
Q 44.578125 72.90625 50.734375 67.671875 
Q 56.890625 62.453125 56.890625 51.90625 
Q 56.890625 45.015625 53.6875 40.46875 
Q 50.484375 35.9375 44.390625 34.1875 
z
M 19.671875 64.796875 
L 19.671875 38.921875 
L 32.078125 38.921875 
Q 39.203125 38.921875 42.84375 42.21875 
Q 46.484375 45.515625 46.484375 51.90625 
Q 46.484375 58.296875 42.84375 61.546875 
Q 39.203125 64.796875 32.078125 64.796875 
z
" id="DejaVuSans-82"/>
    </defs>
    <g transform="translate(78.172125 21.648)scale(0.2 -0.2)">
     <use xlink:href="#DejaVuSans-50"/>
     <use x="63.623047" xlink:href="#DejaVuSans-52"/>
     <use x="127.246094" xlink:href="#DejaVuSans-32"/>
     <use x="159.033203" xlink:href="#DejaVuSans-65"/>
     <use x="227.425781" xlink:href="#DejaVuSans-116"/>
     <use x="266.634766" xlink:href="#DejaVuSans-116"/>
     <use x="305.84375" xlink:href="#DejaVuSans-114"/>
     <use x="346.816406" xlink:href="#DejaVuSans-46"/>
     <use x="378.603516" xlink:href="#DejaVuSans-32"/>
     <use x="410.390625" xlink:href="#DejaVuSans-115"/>
     <use x="462.490234" xlink:href="#DejaVuSans-101"/>
     <use x="524.013672" xlink:href="#DejaVuSans-99"/>
     <use x="578.994141" xlink:href="#DejaVuSans-116"/>
     <use x="618.203125" xlink:href="#DejaVuSans-111"/>
     <use x="679.384766" xlink:href="#DejaVuSans-114"/>
     <use x="720.498047" xlink:href="#DejaVuSans-47"/>
     <use x="754.189453" xlink:href="#DejaVuSans-82"/>
     <use x="823.640625" xlink:href="#DejaVuSans-97"/>
     <use x="884.919922" xlink:href="#DejaVuSans-115"/>
     <use x="937.019531" xlink:href="#DejaVuSans-116"/>
     <use x="976.228516" xlink:href="#DejaVuSans-114"/>
     <use x="1017.341797" xlink:href="#DejaVuSans-105"/>
     <use x="1045.125" xlink:href="#DejaVuSans-103"/>
     <use x="1108.601562" xlink:href="#DejaVuSans-105"/>
     <use x="1136.384766" xlink:href="#DejaVuSans-110"/>
    </g>
   </g>
  </g>
 </g>
 <defs>
  <clipPath id="pd8b83fe26a">
   <rect height="271.296" width="281.088" x="57.6" y="27.648"/>
  </clipPath>
 </defs>
</svg>
