<?xml version="1.0" encoding="utf-8" standalone="no"?>
<!DOCTYPE svg PUBLIC "-//W3C//DTD SVG 1.1//EN"
  "http://www.w3.org/Graphics/SVG/1.1/DTD/svg11.dtd">
<!-- Created with matplotlib (https://matplotlib.org/) -->
<svg height="345.6pt" version="1.1" viewBox="0 0 460.8 345.6" width="460.8pt" xmlns="http://www.w3.org/2000/svg" xmlns:xlink="http://www.w3.org/1999/xlink">
 <defs>
  <style type="text/css">
*{stroke-linecap:butt;stroke-linejoin:round;}
  </style>
 </defs>
 <g id="figure_1">
  <g id="patch_1">
   <path d="M 0 345.6 
L 460.8 345.6 
L 460.8 0 
L 0 0 
z
" style="fill:#ffffff;"/>
  </g>
  <g id="axes_1">
   <g id="patch_2">
    <path d="M 57.6 298.944 
L 338.688 298.944 
L 338.688 3.456 
L 57.6 3.456 
z
" style="fill:#ffffff;"/>
   </g>
   <g id="line2d_1">
    <path d="M 36.60358 298.944 
L 36.60358 297.682955 
L 41.620548 297.682955 
L 41.620548 295.160866 
L 53.708537 295.160866 
L 53.708537 293.899821 
L 60.779557 293.899821 
L 60.779557 291.377732 
L 63.467834 291.377732 
L 63.467834 288.855642 
L 70.538854 288.855642 
L 70.538854 286.333553 
L 74.921597 286.333553 
L 74.921597 283.811463 
L 83.830028 283.811463 
L 83.830028 281.289374 
L 103.372333 281.289374 
L 103.372333 278.767284 
L 110.188761 278.767284 
L 110.188761 276.245195 
L 130.100661 276.245195 
L 130.100661 273.723105 
L 145.899052 273.723105 
L 145.899052 272.462061 
L 148.440161 272.462061 
L 148.440161 271.201016 
L 153.25815 271.201016 
L 153.25815 269.939971 
L 155.245367 269.939971 
L 155.245367 268.678927 
L 160.074152 268.678927 
L 160.074152 264.895792 
L 162.712026 264.895792 
L 162.712026 261.112658 
L 163.657576 261.112658 
L 163.657576 257.329524 
L 168.458054 257.329524 
L 168.458054 253.54639 
L 172.086131 253.54639 
L 172.086131 251.0243 
L 173.091121 251.0243 
L 173.091121 248.502211 
L 176.966804 248.502211 
L 176.966804 247.241166 
L 180.002125 247.241166 
L 180.002125 244.719077 
L 183.762623 244.719077 
L 183.762623 242.196987 
L 187.205819 242.196987 
L 187.205819 239.674898 
L 192.101035 239.674898 
L 192.101035 238.413853 
L 192.521725 238.413853 
L 192.521725 237.152808 
L 200.923157 237.152808 
L 200.923157 233.369674 
L 203.269121 233.369674 
L 203.269121 232.10863 
L 207.40111 232.10863 
L 207.40111 229.58654 
L 216.277792 229.58654 
L 216.277792 227.064451 
L 217.78019 227.064451 
L 217.78019 224.542361 
L 220.568903 224.542361 
L 220.568903 222.020272 
L 222.585942 222.020272 
L 222.585942 218.237138 
L 233.810151 218.237138 
L 233.877863 213.192959 
L 235.206472 213.192959 
L 235.206472 209.409825 
L 236.963388 209.409825 
L 236.963388 205.62669 
L 241.906551 205.62669 
L 241.906551 203.104601 
L 243.135333 203.104601 
L 243.135333 200.582511 
L 246.799694 200.582511 
L 246.799694 198.060422 
L 251.908435 198.060422 
L 251.908435 195.538333 
L 252.851147 195.538333 
L 252.851147 193.016243 
L 253.777997 193.016243 
L 253.777997 191.755198 
L 261.469694 191.755198 
L 261.469694 187.972064 
L 264.847248 187.972064 
L 264.847248 185.449975 
L 268.989706 185.449975 
L 268.989706 182.927885 
L 270.329811 182.927885 
L 270.329811 180.405796 
L 271.319268 180.405796 
L 271.319268 179.144751 
L 275.140151 179.144751 
L 275.140151 176.622662 
L 280.286466 176.622662 
L 280.286466 175.361617 
L 280.885277 175.361617 
L 280.885277 174.100572 
L 282.584987 174.100572 
L 282.584987 170.317438 
L 286.211501 170.317438 
L 286.211501 169.056393 
L 291.460192 169.056393 
L 291.460192 165.273259 
L 294.239642 165.273259 
L 294.239642 161.490125 
L 294.85842 161.490125 
L 294.85842 157.706991 
L 298.538934 157.706991 
L 298.538934 156.445946 
L 298.719649 156.445946 
L 298.719649 153.923857 
L 305.484497 153.923857 
L 305.484497 152.662812 
L 306.140694 152.662812 
L 306.140694 151.401767 
L 308.324662 151.401767 
L 308.324662 150.140722 
L 310.19532 150.140722 
L 310.19532 146.357588 
L 312.076674 146.357588 
L 312.076674 142.574454 
L 312.612372 142.574454 
L 312.612372 140.052365 
L 314.958273 140.052365 
L 314.958273 136.26923 
L 318.891224 136.26923 
L 318.891224 135.008186 
L 319.889165 135.008186 
L 319.889165 131.225052 
L 321.296308 131.225052 
L 321.33712 126.180873 
L 327.984634 126.180873 
L 327.984634 124.919828 
L 328.116743 124.919828 
L 328.116743 122.397738 
L 338.688 122.397738 
L 338.688 122.397738 
" style="fill:none;stroke:#f5deb3;stroke-linecap:square;stroke-width:4;"/>
   </g>
   <g id="line2d_2">
    <defs>
     <path d="M 0 7.778175 
L 7.778175 0 
L 0 -7.778175 
L -7.778175 0 
z
" id="mf6325c04c7" style="stroke:#f5deb3;stroke-linejoin:miter;stroke-width:1.5;"/>
    </defs>
    <g>
     <use style="fill:#f5deb3;stroke:#f5deb3;stroke-linejoin:miter;stroke-width:1.5;" x="130.100661" xlink:href="#mf6325c04c7" y="276.245195"/>
     <use style="fill:#f5deb3;stroke:#f5deb3;stroke-linejoin:miter;stroke-width:1.5;" x="207.40111" xlink:href="#mf6325c04c7" y="232.10863"/>
     <use style="fill:#f5deb3;stroke:#f5deb3;stroke-linejoin:miter;stroke-width:1.5;" x="246.799694" xlink:href="#mf6325c04c7" y="198.060422"/>
     <use style="fill:#f5deb3;stroke:#f5deb3;stroke-linejoin:miter;stroke-width:1.5;" x="314.958273" xlink:href="#mf6325c04c7" y="136.26923"/>
     <use style="fill:#f5deb3;stroke:#f5deb3;stroke-linejoin:miter;stroke-width:1.5;" x="328.116743" xlink:href="#mf6325c04c7" y="122.397738"/>
     <use style="fill:#f5deb3;stroke:#f5deb3;stroke-linejoin:miter;stroke-width:1.5;" x="338.688" xlink:href="#mf6325c04c7" y="122.397738"/>
    </g>
   </g>
   <g id="line2d_3">
    <path style="fill:none;stroke:#f5deb3;stroke-linecap:square;stroke-width:4;"/>
    <g/>
   </g>
   <g id="line2d_4">
    <path d="M 338.688 122.397738 
L 369.60768 12.232871 
" style="fill:none;stroke:#f5deb3;stroke-linecap:square;stroke-width:4;"/>
    <g>
     <use style="fill:#f5deb3;stroke:#f5deb3;stroke-linejoin:miter;stroke-width:1.5;" x="338.688" xlink:href="#mf6325c04c7" y="122.397738"/>
     <use style="fill:#f5deb3;stroke:#f5deb3;stroke-linejoin:miter;stroke-width:1.5;" x="369.60768" xlink:href="#mf6325c04c7" y="12.232871"/>
    </g>
   </g>
   <g id="matplotlib.axis_1">
    <g id="xtick_1">
     <g id="line2d_5">
      <path clip-path="url(#p48596839e2)" d="M 57.6 298.944 
L 57.6 3.456 
" style="fill:none;stroke:#b0b0b0;stroke-linecap:square;stroke-width:0.8;"/>
     </g>
     <g id="line2d_6">
      <defs>
       <path d="M 0 0 
L 0 3.5 
" id="ma6ef8da92c" style="stroke:#000000;stroke-width:0.8;"/>
      </defs>
      <g>
       <use style="stroke:#000000;stroke-width:0.8;" x="57.6" xlink:href="#ma6ef8da92c" y="298.944"/>
      </g>
     </g>
     <g id="text_1">
      <!-- 0 -->
      <defs>
       <path d="M 31.78125 66.40625 
Q 24.171875 66.40625 20.328125 58.90625 
Q 16.5 51.421875 16.5 36.375 
Q 16.5 21.390625 20.328125 13.890625 
Q 24.171875 6.390625 31.78125 6.390625 
Q 39.453125 6.390625 43.28125 13.890625 
Q 47.125 21.390625 47.125 36.375 
Q 47.125 51.421875 43.28125 58.90625 
Q 39.453125 66.40625 31.78125 66.40625 
z
M 31.78125 74.21875 
Q 44.046875 74.21875 50.515625 64.515625 
Q 56.984375 54.828125 56.984375 36.375 
Q 56.984375 17.96875 50.515625 8.265625 
Q 44.046875 -1.421875 31.78125 -1.421875 
Q 19.53125 -1.421875 13.0625 8.265625 
Q 6.59375 17.96875 6.59375 36.375 
Q 6.59375 54.828125 13.0625 64.515625 
Q 19.53125 74.21875 31.78125 74.21875 
z
" id="DejaVuSans-48"/>
      </defs>
      <g transform="translate(51.2375 321.140875)scale(0.2 -0.2)">
       <use xlink:href="#DejaVuSans-48"/>
      </g>
     </g>
    </g>
    <g id="xtick_2">
     <g id="line2d_7">
      <path clip-path="url(#p48596839e2)" d="M 137.910857 298.944 
L 137.910857 3.456 
" style="fill:none;stroke:#b0b0b0;stroke-linecap:square;stroke-width:0.8;"/>
     </g>
     <g id="line2d_8">
      <g>
       <use style="stroke:#000000;stroke-width:0.8;" x="137.910857" xlink:href="#ma6ef8da92c" y="298.944"/>
      </g>
     </g>
     <g id="text_2">
      <!-- 2 -->
      <defs>
       <path d="M 19.1875 8.296875 
L 53.609375 8.296875 
L 53.609375 0 
L 7.328125 0 
L 7.328125 8.296875 
Q 12.9375 14.109375 22.625 23.890625 
Q 32.328125 33.6875 34.8125 36.53125 
Q 39.546875 41.84375 41.421875 45.53125 
Q 43.3125 49.21875 43.3125 52.78125 
Q 43.3125 58.59375 39.234375 62.25 
Q 35.15625 65.921875 28.609375 65.921875 
Q 23.96875 65.921875 18.8125 64.3125 
Q 13.671875 62.703125 7.8125 59.421875 
L 7.8125 69.390625 
Q 13.765625 71.78125 18.9375 73 
Q 24.125 74.21875 28.421875 74.21875 
Q 39.75 74.21875 46.484375 68.546875 
Q 53.21875 62.890625 53.21875 53.421875 
Q 53.21875 48.921875 51.53125 44.890625 
Q 49.859375 40.875 45.40625 35.40625 
Q 44.1875 33.984375 37.640625 27.21875 
Q 31.109375 20.453125 19.1875 8.296875 
z
" id="DejaVuSans-50"/>
      </defs>
      <g transform="translate(131.548357 321.140875)scale(0.2 -0.2)">
       <use xlink:href="#DejaVuSans-50"/>
      </g>
     </g>
    </g>
    <g id="xtick_3">
     <g id="line2d_9">
      <path clip-path="url(#p48596839e2)" d="M 218.221714 298.944 
L 218.221714 3.456 
" style="fill:none;stroke:#b0b0b0;stroke-linecap:square;stroke-width:0.8;"/>
     </g>
     <g id="line2d_10">
      <g>
       <use style="stroke:#000000;stroke-width:0.8;" x="218.221714" xlink:href="#ma6ef8da92c" y="298.944"/>
      </g>
     </g>
     <g id="text_3">
      <!-- 4 -->
      <defs>
       <path d="M 37.796875 64.3125 
L 12.890625 25.390625 
L 37.796875 25.390625 
z
M 35.203125 72.90625 
L 47.609375 72.90625 
L 47.609375 25.390625 
L 58.015625 25.390625 
L 58.015625 17.1875 
L 47.609375 17.1875 
L 47.609375 0 
L 37.796875 0 
L 37.796875 17.1875 
L 4.890625 17.1875 
L 4.890625 26.703125 
z
" id="DejaVuSans-52"/>
      </defs>
      <g transform="translate(211.859214 321.140875)scale(0.2 -0.2)">
       <use xlink:href="#DejaVuSans-52"/>
      </g>
     </g>
    </g>
    <g id="xtick_4">
     <g id="line2d_11">
      <path clip-path="url(#p48596839e2)" d="M 298.532571 298.944 
L 298.532571 3.456 
" style="fill:none;stroke:#b0b0b0;stroke-linecap:square;stroke-width:0.8;"/>
     </g>
     <g id="line2d_12">
      <g>
       <use style="stroke:#000000;stroke-width:0.8;" x="298.532571" xlink:href="#ma6ef8da92c" y="298.944"/>
      </g>
     </g>
     <g id="text_4">
      <!-- 6 -->
      <defs>
       <path d="M 33.015625 40.375 
Q 26.375 40.375 22.484375 35.828125 
Q 18.609375 31.296875 18.609375 23.390625 
Q 18.609375 15.53125 22.484375 10.953125 
Q 26.375 6.390625 33.015625 6.390625 
Q 39.65625 6.390625 43.53125 10.953125 
Q 47.40625 15.53125 47.40625 23.390625 
Q 47.40625 31.296875 43.53125 35.828125 
Q 39.65625 40.375 33.015625 40.375 
z
M 52.59375 71.296875 
L 52.59375 62.3125 
Q 48.875 64.0625 45.09375 64.984375 
Q 41.3125 65.921875 37.59375 65.921875 
Q 27.828125 65.921875 22.671875 59.328125 
Q 17.53125 52.734375 16.796875 39.40625 
Q 19.671875 43.65625 24.015625 45.921875 
Q 28.375 48.1875 33.59375 48.1875 
Q 44.578125 48.1875 50.953125 41.515625 
Q 57.328125 34.859375 57.328125 23.390625 
Q 57.328125 12.15625 50.6875 5.359375 
Q 44.046875 -1.421875 33.015625 -1.421875 
Q 20.359375 -1.421875 13.671875 8.265625 
Q 6.984375 17.96875 6.984375 36.375 
Q 6.984375 53.65625 15.1875 63.9375 
Q 23.390625 74.21875 37.203125 74.21875 
Q 40.921875 74.21875 44.703125 73.484375 
Q 48.484375 72.75 52.59375 71.296875 
z
" id="DejaVuSans-54"/>
      </defs>
      <g transform="translate(292.170071 321.140875)scale(0.2 -0.2)">
       <use xlink:href="#DejaVuSans-54"/>
      </g>
     </g>
    </g>
    <g id="xtick_5">
     <g id="line2d_13">
      <path clip-path="url(#p48596839e2)" d="M 97.755429 298.944 
L 97.755429 3.456 
" style="fill:none;stroke:#b0b0b0;stroke-linecap:square;stroke-width:0.8;"/>
     </g>
     <g id="line2d_14">
      <defs>
       <path d="M 0 0 
L 0 2 
" id="mb4e2ea60db" style="stroke:#000000;stroke-width:0.6;"/>
      </defs>
      <g>
       <use style="stroke:#000000;stroke-width:0.6;" x="97.755429" xlink:href="#mb4e2ea60db" y="298.944"/>
      </g>
     </g>
    </g>
    <g id="xtick_6">
     <g id="line2d_15">
      <path clip-path="url(#p48596839e2)" d="M 178.066286 298.944 
L 178.066286 3.456 
" style="fill:none;stroke:#b0b0b0;stroke-linecap:square;stroke-width:0.8;"/>
     </g>
     <g id="line2d_16">
      <g>
       <use style="stroke:#000000;stroke-width:0.6;" x="178.066286" xlink:href="#mb4e2ea60db" y="298.944"/>
      </g>
     </g>
    </g>
    <g id="xtick_7">
     <g id="line2d_17">
      <path clip-path="url(#p48596839e2)" d="M 258.377143 298.944 
L 258.377143 3.456 
" style="fill:none;stroke:#b0b0b0;stroke-linecap:square;stroke-width:0.8;"/>
     </g>
     <g id="line2d_18">
      <g>
       <use style="stroke:#000000;stroke-width:0.6;" x="258.377143" xlink:href="#mb4e2ea60db" y="298.944"/>
      </g>
     </g>
    </g>
    <g id="xtick_8">
     <g id="line2d_19">
      <path clip-path="url(#p48596839e2)" d="M 338.688 298.944 
L 338.688 3.456 
" style="fill:none;stroke:#b0b0b0;stroke-linecap:square;stroke-width:0.8;"/>
     </g>
     <g id="line2d_20">
      <g>
       <use style="stroke:#000000;stroke-width:0.6;" x="338.688" xlink:href="#mb4e2ea60db" y="298.944"/>
      </g>
     </g>
    </g>
    <g id="text_5">
     <!-- log10(# f-evals / dimension) -->
     <defs>
      <path d="M 9.421875 75.984375 
L 18.40625 75.984375 
L 18.40625 0 
L 9.421875 0 
z
" id="DejaVuSans-108"/>
      <path d="M 30.609375 48.390625 
Q 23.390625 48.390625 19.1875 42.75 
Q 14.984375 37.109375 14.984375 27.296875 
Q 14.984375 17.484375 19.15625 11.84375 
Q 23.34375 6.203125 30.609375 6.203125 
Q 37.796875 6.203125 41.984375 11.859375 
Q 46.1875 17.53125 46.1875 27.296875 
Q 46.1875 37.015625 41.984375 42.703125 
Q 37.796875 48.390625 30.609375 48.390625 
z
M 30.609375 56 
Q 42.328125 56 49.015625 48.375 
Q 55.71875 40.765625 55.71875 27.296875 
Q 55.71875 13.875 49.015625 6.21875 
Q 42.328125 -1.421875 30.609375 -1.421875 
Q 18.84375 -1.421875 12.171875 6.21875 
Q 5.515625 13.875 5.515625 27.296875 
Q 5.515625 40.765625 12.171875 48.375 
Q 18.84375 56 30.609375 56 
z
" id="DejaVuSans-111"/>
      <path d="M 45.40625 27.984375 
Q 45.40625 37.75 41.375 43.109375 
Q 37.359375 48.484375 30.078125 48.484375 
Q 22.859375 48.484375 18.828125 43.109375 
Q 14.796875 37.75 14.796875 27.984375 
Q 14.796875 18.265625 18.828125 12.890625 
Q 22.859375 7.515625 30.078125 7.515625 
Q 37.359375 7.515625 41.375 12.890625 
Q 45.40625 18.265625 45.40625 27.984375 
z
M 54.390625 6.78125 
Q 54.390625 -7.171875 48.1875 -13.984375 
Q 42 -20.796875 29.203125 -20.796875 
Q 24.46875 -20.796875 20.265625 -20.09375 
Q 16.0625 -19.390625 12.109375 -17.921875 
L 12.109375 -9.1875 
Q 16.0625 -11.328125 19.921875 -12.34375 
Q 23.78125 -13.375 27.78125 -13.375 
Q 36.625 -13.375 41.015625 -8.765625 
Q 45.40625 -4.15625 45.40625 5.171875 
L 45.40625 9.625 
Q 42.625 4.78125 38.28125 2.390625 
Q 33.9375 0 27.875 0 
Q 17.828125 0 11.671875 7.65625 
Q 5.515625 15.328125 5.515625 27.984375 
Q 5.515625 40.671875 11.671875 48.328125 
Q 17.828125 56 27.875 56 
Q 33.9375 56 38.28125 53.609375 
Q 42.625 51.21875 45.40625 46.390625 
L 45.40625 54.6875 
L 54.390625 54.6875 
z
" id="DejaVuSans-103"/>
      <path d="M 12.40625 8.296875 
L 28.515625 8.296875 
L 28.515625 63.921875 
L 10.984375 60.40625 
L 10.984375 69.390625 
L 28.421875 72.90625 
L 38.28125 72.90625 
L 38.28125 8.296875 
L 54.390625 8.296875 
L 54.390625 0 
L 12.40625 0 
z
" id="DejaVuSans-49"/>
      <path d="M 31 75.875 
Q 24.46875 64.65625 21.28125 53.65625 
Q 18.109375 42.671875 18.109375 31.390625 
Q 18.109375 20.125 21.3125 9.0625 
Q 24.515625 -2 31 -13.1875 
L 23.1875 -13.1875 
Q 15.875 -1.703125 12.234375 9.375 
Q 8.59375 20.453125 8.59375 31.390625 
Q 8.59375 42.28125 12.203125 53.3125 
Q 15.828125 64.359375 23.1875 75.875 
z
" id="DejaVuSans-40"/>
      <path d="M 51.125 44 
L 36.921875 44 
L 32.8125 27.6875 
L 47.125 27.6875 
z
M 43.796875 71.78125 
L 38.71875 51.515625 
L 52.984375 51.515625 
L 58.109375 71.78125 
L 65.921875 71.78125 
L 60.890625 51.515625 
L 76.125 51.515625 
L 76.125 44 
L 58.984375 44 
L 54.984375 27.6875 
L 70.515625 27.6875 
L 70.515625 20.21875 
L 53.078125 20.21875 
L 48 0 
L 40.1875 0 
L 45.21875 20.21875 
L 30.90625 20.21875 
L 25.875 0 
L 18.015625 0 
L 23.09375 20.21875 
L 7.71875 20.21875 
L 7.71875 27.6875 
L 24.90625 27.6875 
L 29 44 
L 13.28125 44 
L 13.28125 51.515625 
L 30.90625 51.515625 
L 35.890625 71.78125 
z
" id="DejaVuSans-35"/>
      <path id="DejaVuSans-32"/>
      <path d="M 37.109375 75.984375 
L 37.109375 68.5 
L 28.515625 68.5 
Q 23.6875 68.5 21.796875 66.546875 
Q 19.921875 64.59375 19.921875 59.515625 
L 19.921875 54.6875 
L 34.71875 54.6875 
L 34.71875 47.703125 
L 19.921875 47.703125 
L 19.921875 0 
L 10.890625 0 
L 10.890625 47.703125 
L 2.296875 47.703125 
L 2.296875 54.6875 
L 10.890625 54.6875 
L 10.890625 58.5 
Q 10.890625 67.625 15.140625 71.796875 
Q 19.390625 75.984375 28.609375 75.984375 
z
" id="DejaVuSans-102"/>
      <path d="M 4.890625 31.390625 
L 31.203125 31.390625 
L 31.203125 23.390625 
L 4.890625 23.390625 
z
" id="DejaVuSans-45"/>
      <path d="M 56.203125 29.59375 
L 56.203125 25.203125 
L 14.890625 25.203125 
Q 15.484375 15.921875 20.484375 11.0625 
Q 25.484375 6.203125 34.421875 6.203125 
Q 39.59375 6.203125 44.453125 7.46875 
Q 49.3125 8.734375 54.109375 11.28125 
L 54.109375 2.78125 
Q 49.265625 0.734375 44.1875 -0.34375 
Q 39.109375 -1.421875 33.890625 -1.421875 
Q 20.796875 -1.421875 13.15625 6.1875 
Q 5.515625 13.8125 5.515625 26.8125 
Q 5.515625 40.234375 12.765625 48.109375 
Q 20.015625 56 32.328125 56 
Q 43.359375 56 49.78125 48.890625 
Q 56.203125 41.796875 56.203125 29.59375 
z
M 47.21875 32.234375 
Q 47.125 39.59375 43.09375 43.984375 
Q 39.0625 48.390625 32.421875 48.390625 
Q 24.90625 48.390625 20.390625 44.140625 
Q 15.875 39.890625 15.1875 32.171875 
z
" id="DejaVuSans-101"/>
      <path d="M 2.984375 54.6875 
L 12.5 54.6875 
L 29.59375 8.796875 
L 46.6875 54.6875 
L 56.203125 54.6875 
L 35.6875 0 
L 23.484375 0 
z
" id="DejaVuSans-118"/>
      <path d="M 34.28125 27.484375 
Q 23.390625 27.484375 19.1875 25 
Q 14.984375 22.515625 14.984375 16.5 
Q 14.984375 11.71875 18.140625 8.90625 
Q 21.296875 6.109375 26.703125 6.109375 
Q 34.1875 6.109375 38.703125 11.40625 
Q 43.21875 16.703125 43.21875 25.484375 
L 43.21875 27.484375 
z
M 52.203125 31.203125 
L 52.203125 0 
L 43.21875 0 
L 43.21875 8.296875 
Q 40.140625 3.328125 35.546875 0.953125 
Q 30.953125 -1.421875 24.3125 -1.421875 
Q 15.921875 -1.421875 10.953125 3.296875 
Q 6 8.015625 6 15.921875 
Q 6 25.140625 12.171875 29.828125 
Q 18.359375 34.515625 30.609375 34.515625 
L 43.21875 34.515625 
L 43.21875 35.40625 
Q 43.21875 41.609375 39.140625 45 
Q 35.0625 48.390625 27.6875 48.390625 
Q 23 48.390625 18.546875 47.265625 
Q 14.109375 46.140625 10.015625 43.890625 
L 10.015625 52.203125 
Q 14.9375 54.109375 19.578125 55.046875 
Q 24.21875 56 28.609375 56 
Q 40.484375 56 46.34375 49.84375 
Q 52.203125 43.703125 52.203125 31.203125 
z
" id="DejaVuSans-97"/>
      <path d="M 44.28125 53.078125 
L 44.28125 44.578125 
Q 40.484375 46.53125 36.375 47.5 
Q 32.28125 48.484375 27.875 48.484375 
Q 21.1875 48.484375 17.84375 46.4375 
Q 14.5 44.390625 14.5 40.28125 
Q 14.5 37.15625 16.890625 35.375 
Q 19.28125 33.59375 26.515625 31.984375 
L 29.59375 31.296875 
Q 39.15625 29.25 43.1875 25.515625 
Q 47.21875 21.78125 47.21875 15.09375 
Q 47.21875 7.46875 41.1875 3.015625 
Q 35.15625 -1.421875 24.609375 -1.421875 
Q 20.21875 -1.421875 15.453125 -0.5625 
Q 10.6875 0.296875 5.421875 2 
L 5.421875 11.28125 
Q 10.40625 8.6875 15.234375 7.390625 
Q 20.0625 6.109375 24.8125 6.109375 
Q 31.15625 6.109375 34.5625 8.28125 
Q 37.984375 10.453125 37.984375 14.40625 
Q 37.984375 18.0625 35.515625 20.015625 
Q 33.0625 21.96875 24.703125 23.78125 
L 21.578125 24.515625 
Q 13.234375 26.265625 9.515625 29.90625 
Q 5.8125 33.546875 5.8125 39.890625 
Q 5.8125 47.609375 11.28125 51.796875 
Q 16.75 56 26.8125 56 
Q 31.78125 56 36.171875 55.265625 
Q 40.578125 54.546875 44.28125 53.078125 
z
" id="DejaVuSans-115"/>
      <path d="M 25.390625 72.90625 
L 33.6875 72.90625 
L 8.296875 -9.28125 
L 0 -9.28125 
z
" id="DejaVuSans-47"/>
      <path d="M 45.40625 46.390625 
L 45.40625 75.984375 
L 54.390625 75.984375 
L 54.390625 0 
L 45.40625 0 
L 45.40625 8.203125 
Q 42.578125 3.328125 38.25 0.953125 
Q 33.9375 -1.421875 27.875 -1.421875 
Q 17.96875 -1.421875 11.734375 6.484375 
Q 5.515625 14.40625 5.515625 27.296875 
Q 5.515625 40.1875 11.734375 48.09375 
Q 17.96875 56 27.875 56 
Q 33.9375 56 38.25 53.625 
Q 42.578125 51.265625 45.40625 46.390625 
z
M 14.796875 27.296875 
Q 14.796875 17.390625 18.875 11.75 
Q 22.953125 6.109375 30.078125 6.109375 
Q 37.203125 6.109375 41.296875 11.75 
Q 45.40625 17.390625 45.40625 27.296875 
Q 45.40625 37.203125 41.296875 42.84375 
Q 37.203125 48.484375 30.078125 48.484375 
Q 22.953125 48.484375 18.875 42.84375 
Q 14.796875 37.203125 14.796875 27.296875 
z
" id="DejaVuSans-100"/>
      <path d="M 9.421875 54.6875 
L 18.40625 54.6875 
L 18.40625 0 
L 9.421875 0 
z
M 9.421875 75.984375 
L 18.40625 75.984375 
L 18.40625 64.59375 
L 9.421875 64.59375 
z
" id="DejaVuSans-105"/>
      <path d="M 52 44.1875 
Q 55.375 50.25 60.0625 53.125 
Q 64.75 56 71.09375 56 
Q 79.640625 56 84.28125 50.015625 
Q 88.921875 44.046875 88.921875 33.015625 
L 88.921875 0 
L 79.890625 0 
L 79.890625 32.71875 
Q 79.890625 40.578125 77.09375 44.375 
Q 74.3125 48.1875 68.609375 48.1875 
Q 61.625 48.1875 57.5625 43.546875 
Q 53.515625 38.921875 53.515625 30.90625 
L 53.515625 0 
L 44.484375 0 
L 44.484375 32.71875 
Q 44.484375 40.625 41.703125 44.40625 
Q 38.921875 48.1875 33.109375 48.1875 
Q 26.21875 48.1875 22.15625 43.53125 
Q 18.109375 38.875 18.109375 30.90625 
L 18.109375 0 
L 9.078125 0 
L 9.078125 54.6875 
L 18.109375 54.6875 
L 18.109375 46.1875 
Q 21.1875 51.21875 25.484375 53.609375 
Q 29.78125 56 35.6875 56 
Q 41.65625 56 45.828125 52.96875 
Q 50 49.953125 52 44.1875 
z
" id="DejaVuSans-109"/>
      <path d="M 54.890625 33.015625 
L 54.890625 0 
L 45.90625 0 
L 45.90625 32.71875 
Q 45.90625 40.484375 42.875 44.328125 
Q 39.84375 48.1875 33.796875 48.1875 
Q 26.515625 48.1875 22.3125 43.546875 
Q 18.109375 38.921875 18.109375 30.90625 
L 18.109375 0 
L 9.078125 0 
L 9.078125 54.6875 
L 18.109375 54.6875 
L 18.109375 46.1875 
Q 21.34375 51.125 25.703125 53.5625 
Q 30.078125 56 35.796875 56 
Q 45.21875 56 50.046875 50.171875 
Q 54.890625 44.34375 54.890625 33.015625 
z
" id="DejaVuSans-110"/>
      <path d="M 8.015625 75.875 
L 15.828125 75.875 
Q 23.140625 64.359375 26.78125 53.3125 
Q 30.421875 42.28125 30.421875 31.390625 
Q 30.421875 20.453125 26.78125 9.375 
Q 23.140625 -1.703125 15.828125 -13.1875 
L 8.015625 -13.1875 
Q 14.5 -2 17.703125 9.0625 
Q 20.90625 20.125 20.90625 31.390625 
Q 20.90625 42.671875 17.703125 53.65625 
Q 14.5 64.65625 8.015625 75.875 
z
" id="DejaVuSans-41"/>
     </defs>
     <g transform="translate(77.303219 342.217594)scale(0.17 -0.17)">
      <use xlink:href="#DejaVuSans-108"/>
      <use x="27.783203" xlink:href="#DejaVuSans-111"/>
      <use x="88.964844" xlink:href="#DejaVuSans-103"/>
      <use x="152.441406" xlink:href="#DejaVuSans-49"/>
      <use x="216.064453" xlink:href="#DejaVuSans-48"/>
      <use x="279.6875" xlink:href="#DejaVuSans-40"/>
      <use x="318.701172" xlink:href="#DejaVuSans-35"/>
      <use x="402.490234" xlink:href="#DejaVuSans-32"/>
      <use x="434.277344" xlink:href="#DejaVuSans-102"/>
      <use x="469.404297" xlink:href="#DejaVuSans-45"/>
      <use x="505.488281" xlink:href="#DejaVuSans-101"/>
      <use x="567.011719" xlink:href="#DejaVuSans-118"/>
      <use x="626.191406" xlink:href="#DejaVuSans-97"/>
      <use x="687.470703" xlink:href="#DejaVuSans-108"/>
      <use x="715.253906" xlink:href="#DejaVuSans-115"/>
      <use x="767.353516" xlink:href="#DejaVuSans-32"/>
      <use x="799.140625" xlink:href="#DejaVuSans-47"/>
      <use x="832.832031" xlink:href="#DejaVuSans-32"/>
      <use x="864.619141" xlink:href="#DejaVuSans-100"/>
      <use x="928.095703" xlink:href="#DejaVuSans-105"/>
      <use x="955.878906" xlink:href="#DejaVuSans-109"/>
      <use x="1053.291016" xlink:href="#DejaVuSans-101"/>
      <use x="1114.814453" xlink:href="#DejaVuSans-110"/>
      <use x="1178.193359" xlink:href="#DejaVuSans-115"/>
      <use x="1230.292969" xlink:href="#DejaVuSans-105"/>
      <use x="1258.076172" xlink:href="#DejaVuSans-111"/>
      <use x="1319.257812" xlink:href="#DejaVuSans-110"/>
      <use x="1382.636719" xlink:href="#DejaVuSans-41"/>
     </g>
    </g>
   </g>
   <g id="matplotlib.axis_2">
    <g id="ytick_1">
     <g id="line2d_21">
      <path clip-path="url(#p48596839e2)" d="M 57.6 298.944 
L 338.688 298.944 
" style="fill:none;stroke:#b0b0b0;stroke-linecap:square;stroke-width:0.8;"/>
     </g>
     <g id="line2d_22">
      <defs>
       <path d="M 0 0 
L -3.5 0 
" id="mb455dfc6d7" style="stroke:#000000;stroke-width:0.8;"/>
      </defs>
      <g>
       <use style="stroke:#000000;stroke-width:0.8;" x="57.6" xlink:href="#mb455dfc6d7" y="298.944"/>
      </g>
     </g>
     <g id="text_6">
      <!-- 0.0 -->
      <defs>
       <path d="M 10.6875 12.40625 
L 21 12.40625 
L 21 0 
L 10.6875 0 
z
" id="DejaVuSans-46"/>
      </defs>
      <g transform="translate(25.155 305.02275)scale(0.16 -0.16)">
       <use xlink:href="#DejaVuSans-48"/>
       <use x="63.623047" xlink:href="#DejaVuSans-46"/>
       <use x="95.410156" xlink:href="#DejaVuSans-48"/>
      </g>
     </g>
    </g>
    <g id="ytick_2">
     <g id="line2d_23">
      <path clip-path="url(#p48596839e2)" d="M 57.6 240.431525 
L 338.688 240.431525 
" style="fill:none;stroke:#b0b0b0;stroke-linecap:square;stroke-width:0.8;"/>
     </g>
     <g id="line2d_24">
      <g>
       <use style="stroke:#000000;stroke-width:0.8;" x="57.6" xlink:href="#mb455dfc6d7" y="240.431525"/>
      </g>
     </g>
     <g id="text_7">
      <!-- 0.2 -->
      <g transform="translate(25.155 246.510275)scale(0.16 -0.16)">
       <use xlink:href="#DejaVuSans-48"/>
       <use x="63.623047" xlink:href="#DejaVuSans-46"/>
       <use x="95.410156" xlink:href="#DejaVuSans-50"/>
      </g>
     </g>
    </g>
    <g id="ytick_3">
     <g id="line2d_25">
      <path clip-path="url(#p48596839e2)" d="M 57.6 181.91905 
L 338.688 181.91905 
" style="fill:none;stroke:#b0b0b0;stroke-linecap:square;stroke-width:0.8;"/>
     </g>
     <g id="line2d_26">
      <g>
       <use style="stroke:#000000;stroke-width:0.8;" x="57.6" xlink:href="#mb455dfc6d7" y="181.91905"/>
      </g>
     </g>
     <g id="text_8">
      <!-- 0.4 -->
      <g transform="translate(25.155 187.9978)scale(0.16 -0.16)">
       <use xlink:href="#DejaVuSans-48"/>
       <use x="63.623047" xlink:href="#DejaVuSans-46"/>
       <use x="95.410156" xlink:href="#DejaVuSans-52"/>
      </g>
     </g>
    </g>
    <g id="ytick_4">
     <g id="line2d_27">
      <path clip-path="url(#p48596839e2)" d="M 57.6 123.406574 
L 338.688 123.406574 
" style="fill:none;stroke:#b0b0b0;stroke-linecap:square;stroke-width:0.8;"/>
     </g>
     <g id="line2d_28">
      <g>
       <use style="stroke:#000000;stroke-width:0.8;" x="57.6" xlink:href="#mb455dfc6d7" y="123.406574"/>
      </g>
     </g>
     <g id="text_9">
      <!-- 0.6 -->
      <g transform="translate(25.155 129.485324)scale(0.16 -0.16)">
       <use xlink:href="#DejaVuSans-48"/>
       <use x="63.623047" xlink:href="#DejaVuSans-46"/>
       <use x="95.410156" xlink:href="#DejaVuSans-54"/>
      </g>
     </g>
    </g>
    <g id="ytick_5">
     <g id="line2d_29">
      <path clip-path="url(#p48596839e2)" d="M 57.6 64.894099 
L 338.688 64.894099 
" style="fill:none;stroke:#b0b0b0;stroke-linecap:square;stroke-width:0.8;"/>
     </g>
     <g id="line2d_30">
      <g>
       <use style="stroke:#000000;stroke-width:0.8;" x="57.6" xlink:href="#mb455dfc6d7" y="64.894099"/>
      </g>
     </g>
     <g id="text_10">
      <!-- 0.8 -->
      <defs>
       <path d="M 31.78125 34.625 
Q 24.75 34.625 20.71875 30.859375 
Q 16.703125 27.09375 16.703125 20.515625 
Q 16.703125 13.921875 20.71875 10.15625 
Q 24.75 6.390625 31.78125 6.390625 
Q 38.8125 6.390625 42.859375 10.171875 
Q 46.921875 13.96875 46.921875 20.515625 
Q 46.921875 27.09375 42.890625 30.859375 
Q 38.875 34.625 31.78125 34.625 
z
M 21.921875 38.8125 
Q 15.578125 40.375 12.03125 44.71875 
Q 8.5 49.078125 8.5 55.328125 
Q 8.5 64.0625 14.71875 69.140625 
Q 20.953125 74.21875 31.78125 74.21875 
Q 42.671875 74.21875 48.875 69.140625 
Q 55.078125 64.0625 55.078125 55.328125 
Q 55.078125 49.078125 51.53125 44.71875 
Q 48 40.375 41.703125 38.8125 
Q 48.828125 37.15625 52.796875 32.3125 
Q 56.78125 27.484375 56.78125 20.515625 
Q 56.78125 9.90625 50.3125 4.234375 
Q 43.84375 -1.421875 31.78125 -1.421875 
Q 19.734375 -1.421875 13.25 4.234375 
Q 6.78125 9.90625 6.78125 20.515625 
Q 6.78125 27.484375 10.78125 32.3125 
Q 14.796875 37.15625 21.921875 38.8125 
z
M 18.3125 54.390625 
Q 18.3125 48.734375 21.84375 45.5625 
Q 25.390625 42.390625 31.78125 42.390625 
Q 38.140625 42.390625 41.71875 45.5625 
Q 45.3125 48.734375 45.3125 54.390625 
Q 45.3125 60.0625 41.71875 63.234375 
Q 38.140625 66.40625 31.78125 66.40625 
Q 25.390625 66.40625 21.84375 63.234375 
Q 18.3125 60.0625 18.3125 54.390625 
z
" id="DejaVuSans-56"/>
      </defs>
      <g transform="translate(25.155 70.972849)scale(0.16 -0.16)">
       <use xlink:href="#DejaVuSans-48"/>
       <use x="63.623047" xlink:href="#DejaVuSans-46"/>
       <use x="95.410156" xlink:href="#DejaVuSans-56"/>
      </g>
     </g>
    </g>
    <g id="ytick_6">
     <g id="line2d_31">
      <path clip-path="url(#p48596839e2)" d="M 57.6 6.381624 
L 338.688 6.381624 
" style="fill:none;stroke:#b0b0b0;stroke-linecap:square;stroke-width:0.8;"/>
     </g>
     <g id="line2d_32">
      <g>
       <use style="stroke:#000000;stroke-width:0.8;" x="57.6" xlink:href="#mb455dfc6d7" y="6.381624"/>
      </g>
     </g>
     <g id="text_11">
      <!-- 1.0 -->
      <g transform="translate(25.155 12.460374)scale(0.16 -0.16)">
       <use xlink:href="#DejaVuSans-49"/>
       <use x="63.623047" xlink:href="#DejaVuSans-46"/>
       <use x="95.410156" xlink:href="#DejaVuSans-48"/>
      </g>
     </g>
    </g>
    <g id="text_12">
     <!-- Fraction of function,target pairs -->
     <defs>
      <path d="M 9.8125 72.90625 
L 51.703125 72.90625 
L 51.703125 64.59375 
L 19.671875 64.59375 
L 19.671875 43.109375 
L 48.578125 43.109375 
L 48.578125 34.8125 
L 19.671875 34.8125 
L 19.671875 0 
L 9.8125 0 
z
" id="DejaVuSans-70"/>
      <path d="M 41.109375 46.296875 
Q 39.59375 47.171875 37.8125 47.578125 
Q 36.03125 48 33.890625 48 
Q 26.265625 48 22.1875 43.046875 
Q 18.109375 38.09375 18.109375 28.8125 
L 18.109375 0 
L 9.078125 0 
L 9.078125 54.6875 
L 18.109375 54.6875 
L 18.109375 46.1875 
Q 20.953125 51.171875 25.484375 53.578125 
Q 30.03125 56 36.53125 56 
Q 37.453125 56 38.578125 55.875 
Q 39.703125 55.765625 41.0625 55.515625 
z
" id="DejaVuSans-114"/>
      <path d="M 48.78125 52.59375 
L 48.78125 44.1875 
Q 44.96875 46.296875 41.140625 47.34375 
Q 37.3125 48.390625 33.40625 48.390625 
Q 24.65625 48.390625 19.8125 42.84375 
Q 14.984375 37.3125 14.984375 27.296875 
Q 14.984375 17.28125 19.8125 11.734375 
Q 24.65625 6.203125 33.40625 6.203125 
Q 37.3125 6.203125 41.140625 7.25 
Q 44.96875 8.296875 48.78125 10.40625 
L 48.78125 2.09375 
Q 45.015625 0.34375 40.984375 -0.53125 
Q 36.96875 -1.421875 32.421875 -1.421875 
Q 20.0625 -1.421875 12.78125 6.34375 
Q 5.515625 14.109375 5.515625 27.296875 
Q 5.515625 40.671875 12.859375 48.328125 
Q 20.21875 56 33.015625 56 
Q 37.15625 56 41.109375 55.140625 
Q 45.0625 54.296875 48.78125 52.59375 
z
" id="DejaVuSans-99"/>
      <path d="M 18.3125 70.21875 
L 18.3125 54.6875 
L 36.8125 54.6875 
L 36.8125 47.703125 
L 18.3125 47.703125 
L 18.3125 18.015625 
Q 18.3125 11.328125 20.140625 9.421875 
Q 21.96875 7.515625 27.59375 7.515625 
L 36.8125 7.515625 
L 36.8125 0 
L 27.59375 0 
Q 17.1875 0 13.234375 3.875 
Q 9.28125 7.765625 9.28125 18.015625 
L 9.28125 47.703125 
L 2.6875 47.703125 
L 2.6875 54.6875 
L 9.28125 54.6875 
L 9.28125 70.21875 
z
" id="DejaVuSans-116"/>
      <path d="M 8.5 21.578125 
L 8.5 54.6875 
L 17.484375 54.6875 
L 17.484375 21.921875 
Q 17.484375 14.15625 20.5 10.265625 
Q 23.53125 6.390625 29.59375 6.390625 
Q 36.859375 6.390625 41.078125 11.03125 
Q 45.3125 15.671875 45.3125 23.6875 
L 45.3125 54.6875 
L 54.296875 54.6875 
L 54.296875 0 
L 45.3125 0 
L 45.3125 8.40625 
Q 42.046875 3.421875 37.71875 1 
Q 33.40625 -1.421875 27.6875 -1.421875 
Q 18.265625 -1.421875 13.375 4.4375 
Q 8.5 10.296875 8.5 21.578125 
z
M 31.109375 56 
z
" id="DejaVuSans-117"/>
      <path d="M 11.71875 12.40625 
L 22.015625 12.40625 
L 22.015625 4 
L 14.015625 -11.625 
L 7.71875 -11.625 
L 11.71875 4 
z
" id="DejaVuSans-44"/>
      <path d="M 18.109375 8.203125 
L 18.109375 -20.796875 
L 9.078125 -20.796875 
L 9.078125 54.6875 
L 18.109375 54.6875 
L 18.109375 46.390625 
Q 20.953125 51.265625 25.265625 53.625 
Q 29.59375 56 35.59375 56 
Q 45.5625 56 51.78125 48.09375 
Q 58.015625 40.1875 58.015625 27.296875 
Q 58.015625 14.40625 51.78125 6.484375 
Q 45.5625 -1.421875 35.59375 -1.421875 
Q 29.59375 -1.421875 25.265625 0.953125 
Q 20.953125 3.328125 18.109375 8.203125 
z
M 48.6875 27.296875 
Q 48.6875 37.203125 44.609375 42.84375 
Q 40.53125 48.484375 33.40625 48.484375 
Q 26.265625 48.484375 22.1875 42.84375 
Q 18.109375 37.203125 18.109375 27.296875 
Q 18.109375 17.390625 22.1875 11.75 
Q 26.265625 6.109375 33.40625 6.109375 
Q 40.53125 6.109375 44.609375 11.75 
Q 48.6875 17.390625 48.6875 27.296875 
z
" id="DejaVuSans-112"/>
     </defs>
     <g transform="translate(17.619531 286.339375)rotate(-90)scale(0.17 -0.17)">
      <use xlink:href="#DejaVuSans-70"/>
      <use x="57.410156" xlink:href="#DejaVuSans-114"/>
      <use x="98.523438" xlink:href="#DejaVuSans-97"/>
      <use x="159.802734" xlink:href="#DejaVuSans-99"/>
      <use x="214.783203" xlink:href="#DejaVuSans-116"/>
      <use x="253.992188" xlink:href="#DejaVuSans-105"/>
      <use x="281.775391" xlink:href="#DejaVuSans-111"/>
      <use x="342.957031" xlink:href="#DejaVuSans-110"/>
      <use x="406.335938" xlink:href="#DejaVuSans-32"/>
      <use x="438.123047" xlink:href="#DejaVuSans-111"/>
      <use x="499.304688" xlink:href="#DejaVuSans-102"/>
      <use x="534.509766" xlink:href="#DejaVuSans-32"/>
      <use x="566.296875" xlink:href="#DejaVuSans-102"/>
      <use x="601.501953" xlink:href="#DejaVuSans-117"/>
      <use x="664.880859" xlink:href="#DejaVuSans-110"/>
      <use x="728.259766" xlink:href="#DejaVuSans-99"/>
      <use x="783.240234" xlink:href="#DejaVuSans-116"/>
      <use x="822.449219" xlink:href="#DejaVuSans-105"/>
      <use x="850.232422" xlink:href="#DejaVuSans-111"/>
      <use x="911.414062" xlink:href="#DejaVuSans-110"/>
      <use x="974.792969" xlink:href="#DejaVuSans-44"/>
      <use x="1006.580078" xlink:href="#DejaVuSans-116"/>
      <use x="1045.789062" xlink:href="#DejaVuSans-97"/>
      <use x="1107.068359" xlink:href="#DejaVuSans-114"/>
      <use x="1148.166016" xlink:href="#DejaVuSans-103"/>
      <use x="1211.642578" xlink:href="#DejaVuSans-101"/>
      <use x="1273.166016" xlink:href="#DejaVuSans-116"/>
      <use x="1312.375" xlink:href="#DejaVuSans-32"/>
      <use x="1344.162109" xlink:href="#DejaVuSans-112"/>
      <use x="1407.638672" xlink:href="#DejaVuSans-97"/>
      <use x="1468.917969" xlink:href="#DejaVuSans-105"/>
      <use x="1496.701172" xlink:href="#DejaVuSans-114"/>
      <use x="1537.814453" xlink:href="#DejaVuSans-115"/>
     </g>
    </g>
   </g>
   <g id="line2d_33">
    <defs>
     <path d="M 0 1.5 
C 0.397805 1.5 0.77937 1.341951 1.06066 1.06066 
C 1.341951 0.77937 1.5 0.397805 1.5 0 
C 1.5 -0.397805 1.341951 -0.77937 1.06066 -1.06066 
C 0.77937 -1.341951 0.397805 -1.5 0 -1.5 
C -0.397805 -1.5 -0.77937 -1.341951 -1.06066 -1.06066 
C -1.341951 -0.77937 -1.5 -0.397805 -1.5 0 
C -1.5 0.397805 -1.341951 0.77937 -1.06066 1.06066 
C -0.77937 1.341951 -0.397805 1.5 0 1.5 
z
" id="m1a5c2120e3" style="stroke:#f5deb3;"/>
    </defs>
    <g>
     <use style="fill:#f5deb3;stroke:#f5deb3;" x="341.070453" xlink:href="#m1a5c2120e3" y="106.004157"/>
     <use style="fill:#f5deb3;stroke:#f5deb3;" x="341.070453" xlink:href="#m1a5c2120e3" y="106.004157"/>
    </g>
   </g>
   <g id="line2d_34">
    <defs>
     <path d="M 0 1.5 
C 0.397805 1.5 0.77937 1.341951 1.06066 1.06066 
C 1.341951 0.77937 1.5 0.397805 1.5 0 
C 1.5 -0.397805 1.341951 -0.77937 1.06066 -1.06066 
C 0.77937 -1.341951 0.397805 -1.5 0 -1.5 
C -0.397805 -1.5 -0.77937 -1.341951 -1.06066 -1.06066 
C -1.341951 -0.77937 -1.5 -0.397805 -1.5 0 
C -1.5 0.397805 -1.341951 0.77937 -1.06066 1.06066 
C -0.77937 1.341951 -0.397805 1.5 0 1.5 
z
" id="m3e4be6fc08" style="stroke:#000080;"/>
    </defs>
    <g>
     <use style="fill:#000080;stroke:#000080;" x="214.189956" xlink:href="#m3e4be6fc08" y="227.31666"/>
     <use style="fill:#000080;stroke:#000080;" x="214.189956" xlink:href="#m3e4be6fc08" y="227.31666"/>
    </g>
   </g>
   <g id="line2d_35">
    <path d="M 17.444571 298.944 
L 17.444571 291.88215 
L 63.467834 291.88215 
L 63.467834 291.377732 
L 68.79347 291.377732 
L 68.79347 291.125523 
L 73.579452 291.125523 
L 73.579452 290.873314 
L 76.16779 290.873314 
L 76.16779 290.368896 
L 77.884514 290.368896 
L 77.884514 290.116687 
L 78.941764 290.116687 
L 78.941764 289.864478 
L 79.938565 289.864478 
L 79.938565 289.36006 
L 80.881459 289.36006 
L 80.881459 289.107851 
L 83.438118 289.107851 
L 83.438118 288.855642 
L 84.588378 288.855642 
L 84.588378 287.846806 
L 85.66744 287.846806 
L 85.66744 287.594597 
L 86.012784 287.594597 
L 86.012784 287.342389 
L 86.351421 287.342389 
L 86.351421 287.09018 
L 88.255778 287.09018 
L 88.255778 286.837971 
L 89.697862 286.837971 
L 89.697862 286.333553 
L 89.972502 286.333553 
L 89.972502 286.081344 
L 91.029752 286.081344 
L 91.029752 285.829135 
L 91.284345 285.829135 
L 91.284345 285.072508 
L 91.782644 285.072508 
L 91.782644 284.820299 
L 92.73846 284.820299 
L 92.73846 284.56809 
L 92.969447 284.56809 
L 92.969447 284.315881 
L 93.644601 284.315881 
L 93.644601 284.063672 
L 93.863965 284.063672 
L 93.863965 283.307045 
L 95.526106 283.307045 
L 95.526106 283.054836 
L 96.301313 283.054836 
L 96.301313 282.802628 
L 96.676366 282.802628 
L 96.676366 282.046001 
L 97.224242 282.046001 
L 97.224242 281.793792 
L 97.928955 281.793792 
L 97.928955 281.541583 
L 98.100772 281.541583 
L 98.100772 281.289374 
L 98.771596 281.289374 
L 98.771596 281.037165 
L 99.575392 281.037165 
L 99.575392 280.784956 
L 100.192776 280.784956 
L 100.192776 280.280538 
L 101.506816 280.280538 
L 101.506816 280.028329 
L 102.989037 280.028329 
L 102.989037 279.523911 
L 103.117741 279.523911 
L 103.117741 279.271702 
L 103.372333 279.271702 
L 103.372333 279.019493 
L 103.870632 279.019493 
L 103.870632 278.767284 
L 104.355088 278.767284 
L 104.355088 278.262867 
L 104.592361 278.262867 
L 104.592361 278.010658 
L 105.398279 278.010658 
L 105.398279 277.758449 
L 105.842616 277.758449 
L 105.842616 277.50624 
L 107.213174 277.50624 
L 107.314272 277.001822 
L 107.90885 277.001822 
L 108.006005 276.497404 
L 108.102622 276.497404 
L 108.102622 276.245195 
L 108.294265 276.245195 
L 108.389302 275.740777 
L 108.764355 275.740777 
L 108.764355 275.488568 
L 108.948899 275.488568 
L 108.948899 275.236359 
L 109.930396 275.236359 
L 109.930396 274.98415 
L 110.443353 274.98415 
L 110.443353 274.731941 
L 110.61104 274.731941 
L 110.61104 274.479732 
L 110.77713 274.479732 
L 110.77713 274.227523 
L 111.74176 274.227523 
L 111.819788 273.723105 
L 112.051799 273.723105 
L 112.051799 273.470897 
L 112.204777 273.470897 
L 112.204777 273.218688 
L 112.58145 273.218688 
L 112.58145 272.966479 
L 113.022974 272.966479 
L 113.095487 272.209852 
L 113.167699 272.209852 
L 113.167699 271.705434 
L 113.73488 271.705434 
L 113.73488 271.453225 
L 114.216469 271.453225 
L 114.284194 270.696598 
L 114.485807 270.696598 
L 114.485807 270.444389 
L 114.816733 270.444389 
L 114.816733 270.19218 
L 116.081002 270.19218 
L 116.081002 269.939971 
L 117.429921 269.939971 
L 117.429921 269.687762 
L 117.709852 269.687762 
L 117.820578 268.678927 
L 118.148599 268.678927 
L 118.148599 268.174509 
L 119.045825 268.174509 
L 119.148409 267.417882 
L 119.602714 267.417882 
L 119.602714 267.165673 
L 119.751557 267.165673 
L 119.751557 266.913464 
L 120.286695 266.913464 
L 120.286695 266.661255 
L 120.47729 266.661255 
L 120.571812 265.904628 
L 121.264855 265.904628 
L 121.264855 265.652419 
L 121.445108 265.652419 
L 121.445108 265.148001 
L 121.800118 265.148001 
L 121.800118 264.895792 
L 122.104932 264.895792 
L 122.104932 264.391375 
L 123.751369 264.391375 
L 123.751369 264.139166 
L 123.985457 264.139166 
L 123.985457 263.886957 
L 124.216444 263.886957 
L 124.216444 263.634748 
L 124.743806 263.634748 
L 124.743806 263.382539 
L 125.001625 263.382539 
L 125.110962 262.878121 
L 126.133984 262.878121 
L 126.133984 262.373703 
L 126.439646 262.373703 
L 126.439646 262.121494 
L 126.806101 262.121494 
L 126.806101 261.869285 
L 127.389626 261.869285 
L 127.421479 261.364867 
L 127.611382 261.364867 
L 127.611382 261.112658 
L 127.830353 261.112658 
L 127.830353 260.860449 
L 128.046609 260.860449 
L 128.046609 260.60824 
L 128.620421 260.60824 
L 128.679738 259.851614 
L 129.574256 259.851614 
L 129.574256 259.599405 
L 130.018593 259.599405 
L 130.018593 259.347196 
L 130.478617 259.347196 
L 130.478617 259.094987 
L 130.638123 259.094987 
L 130.638123 258.590569 
L 131.515432 258.590569 
L 131.515432 258.086151 
L 131.888878 258.086151 
L 131.888878 257.581733 
L 132.683351 257.581733 
L 132.683351 257.329524 
L 132.963507 257.329524 
L 132.963507 256.572897 
L 134.407429 256.572897 
L 134.407429 256.068479 
L 134.640379 256.068479 
L 134.682402 255.564061 
L 135.178927 255.564061 
L 135.178927 255.311853 
L 136.150782 255.311853 
L 136.150782 255.059644 
L 137.664982 255.059644 
L 137.664982 254.807435 
L 140.393639 254.807435 
L 140.393639 254.555226 
L 140.64889 254.555226 
L 140.64889 254.303017 
L 141.634094 254.303017 
L 141.648175 253.54639 
L 141.774395 253.54639 
L 141.774395 253.041972 
L 142.365148 253.041972 
L 142.365148 252.537554 
L 142.949611 252.537554 
L 142.949611 252.285345 
L 143.93988 252.285345 
L 144.038338 251.528718 
L 144.712404 251.528718 
L 144.759569 250.772091 
L 145.120836 250.772091 
L 145.120836 250.519883 
L 145.743936 250.519883 
L 145.743936 250.267674 
L 145.865929 250.267674 
L 145.865929 250.015465 
L 146.140051 250.015465 
L 146.237689 249.511047 
L 146.420639 249.511047 
L 146.420639 249.258838 
L 147.072061 249.258838 
L 147.072061 249.006629 
L 148.984596 249.006629 
L 148.984596 248.75442 
L 149.286939 248.75442 
L 149.286939 248.250002 
L 151.186911 248.250002 
L 151.186911 247.745584 
L 151.62925 247.745584 
L 151.62925 247.493375 
L 152.060646 247.493375 
L 152.145659 246.736748 
L 152.276234 246.736748 
L 152.276234 246.484539 
L 152.759222 246.484539 
L 152.759222 246.23233 
L 153.214697 246.23233 
L 153.214697 245.980122 
L 156.460597 245.980122 
L 156.460597 245.475704 
L 156.999969 245.475704 
L 156.999969 244.971286 
L 157.815223 244.971286 
L 157.815223 244.466868 
L 158.255216 244.466868 
L 158.255216 244.214659 
L 158.497919 244.214659 
L 158.497919 243.710241 
L 158.863624 243.710241 
L 158.931675 242.701405 
L 159.708245 242.701405 
L 159.708245 242.449196 
L 159.916863 242.449196 
L 159.916863 241.944778 
L 160.703658 241.944778 
L 160.703658 241.692569 
L 161.256448 241.692569 
L 161.256448 241.440361 
L 161.470039 241.440361 
L 161.470039 240.935943 
L 162.644595 240.935943 
L 162.644595 240.431525 
L 164.671413 240.431525 
L 164.671413 240.179316 
L 165.721807 240.179316 
L 165.831189 238.918271 
L 167.033906 238.918271 
L 167.033906 238.413853 
L 168.947317 238.413853 
L 168.947317 238.161644 
L 170.432588 238.161644 
L 170.432588 237.909435 
L 171.165339 237.909435 
L 171.165339 237.405017 
L 171.330348 237.405017 
L 171.330348 237.152808 
L 172.076299 237.152808 
L 172.181702 236.648391 
L 173.353579 236.648391 
L 173.353579 236.143973 
L 174.430173 236.143973 
L 174.430173 235.639555 
L 174.575644 235.639555 
L 174.575644 235.387346 
L 175.547218 235.387346 
L 175.547218 235.135137 
L 176.825065 235.135137 
L 176.825065 234.630719 
L 178.322496 234.630719 
L 178.322496 234.37851 
L 179.861094 234.37851 
L 179.861094 234.126301 
L 180.577782 234.126301 
L 180.577782 233.621883 
L 180.825173 233.621883 
L 180.825173 233.369674 
L 181.562667 233.369674 
L 181.562667 233.117465 
L 181.960539 233.117465 
L 181.960539 232.865256 
L 182.408095 232.865256 
L 182.408095 232.613047 
L 182.803299 232.613047 
L 182.803299 232.360839 
L 182.976549 232.360839 
L 182.976549 232.10863 
L 183.174137 232.10863 
L 183.174137 231.856421 
L 185.129165 231.856421 
L 185.129165 231.604212 
L 185.740611 231.604212 
L 185.740611 231.352003 
L 186.150183 231.352003 
L 186.150183 231.099794 
L 186.87538 231.099794 
L 186.87538 230.847585 
L 187.786675 230.847585 
L 187.786675 230.595376 
L 189.094681 230.595376 
L 189.094681 230.343167 
L 189.880963 230.343167 
L 189.880963 229.838749 
L 191.554454 229.838749 
L 191.554454 229.58654 
L 192.569619 229.58654 
L 192.569619 229.082122 
L 196.2209 229.082122 
L 196.2209 228.577704 
L 197.2061 228.577704 
L 197.2061 228.073286 
L 213.489116 228.073286 
L 213.489116 227.821078 
L 214.189956 227.821078 
L 214.189956 227.31666 
L 338.688 227.31666 
L 338.688 227.31666 
" style="fill:none;stroke:#000080;stroke-linecap:square;stroke-width:1.5;"/>
   </g>
   <g id="line2d_36">
    <defs>
     <path d="M 0 6 
C 1.591219 6 3.117479 5.367802 4.242641 4.242641 
C 5.367802 3.117479 6 1.591219 6 0 
C 6 -1.591219 5.367802 -3.117479 4.242641 -4.242641 
C 3.117479 -5.367802 1.591219 -6 0 -6 
C -1.591219 -6 -3.117479 -5.367802 -4.242641 -4.242641 
C -5.367802 -3.117479 -6 -1.591219 -6 0 
C -6 1.591219 -5.367802 3.117479 -4.242641 4.242641 
C -3.117479 5.367802 -1.591219 6 0 6 
z
" id="m9aaa86f0f7" style="stroke:#000080;stroke-width:1.5;"/>
    </defs>
    <g>
     <use style="fill-opacity:0;stroke:#000080;stroke-width:1.5;" x="125.110962" xlink:href="#m9aaa86f0f7" y="262.878121"/>
     <use style="fill-opacity:0;stroke:#000080;stroke-width:1.5;" x="192.569619" xlink:href="#m9aaa86f0f7" y="229.58654"/>
     <use style="fill-opacity:0;stroke:#000080;stroke-width:1.5;" x="214.189956" xlink:href="#m9aaa86f0f7" y="227.821078"/>
     <use style="fill-opacity:0;stroke:#000080;stroke-width:1.5;" x="214.189956" xlink:href="#m9aaa86f0f7" y="227.31666"/>
     <use style="fill-opacity:0;stroke:#000080;stroke-width:1.5;" x="338.688" xlink:href="#m9aaa86f0f7" y="227.31666"/>
    </g>
   </g>
   <g id="line2d_37">
    <path style="fill:none;stroke:#000080;stroke-linecap:square;stroke-width:1.5;"/>
    <g/>
   </g>
   <g id="line2d_38">
    <path clip-path="url(#p48596839e2)" d="M 218.222761 227.31666 
" style="fill:none;stroke:#000080;stroke-linecap:square;stroke-width:1.5;"/>
    <defs>
     <path d="M -12 12 
L 12 -12 
M -12 -12 
L 12 12 
" id="ma5f18c27f4" style="stroke:#000080;"/>
    </defs>
    <g clip-path="url(#p48596839e2)">
     <use style="fill:#000080;stroke:#000080;" x="218.222761" xlink:href="#ma5f18c27f4" y="227.31666"/>
    </g>
   </g>
   <g id="line2d_39">
    <defs>
     <path d="M 0 1.5 
C 0.397805 1.5 0.77937 1.341951 1.06066 1.06066 
C 1.341951 0.77937 1.5 0.397805 1.5 0 
C 1.5 -0.397805 1.341951 -0.77937 1.06066 -1.06066 
C 0.77937 -1.341951 0.397805 -1.5 0 -1.5 
C -0.397805 -1.5 -0.77937 -1.341951 -1.06066 -1.06066 
C -1.341951 -0.77937 -1.5 -0.397805 -1.5 0 
C -1.5 0.397805 -1.341951 0.77937 -1.06066 1.06066 
C -0.77937 1.341951 -0.397805 1.5 0 1.5 
z
" id="mf30d1ad29c" style="stroke:#ff00ff;"/>
    </defs>
    <g>
     <use style="fill:#ff00ff;stroke:#ff00ff;" x="199.86867" xlink:href="#mf30d1ad29c" y="231.856421"/>
     <use style="fill:#ff00ff;stroke:#ff00ff;" x="199.86867" xlink:href="#mf30d1ad29c" y="231.856421"/>
    </g>
   </g>
   <g id="line2d_40">
    <path d="M 17.444571 298.944 
L 17.444571 291.88215 
L 36.60358 291.88215 
L 36.60358 290.368896 
L 62.175444 290.368896 
L 62.175444 290.116687 
L 71.35013 290.116687 
L 71.35013 289.864478 
L 73.579452 289.864478 
L 73.579452 289.612269 
L 79.938565 289.612269 
L 79.938565 288.855642 
L 84.588378 288.855642 
L 84.588378 288.099015 
L 85.315119 288.099015 
L 85.315119 287.846806 
L 86.683608 287.846806 
L 86.683608 287.594597 
L 87.009585 287.594597 
L 87.009585 287.342389 
L 87.643811 287.342389 
L 87.643811 287.09018 
L 88.255778 287.09018 
L 88.255778 286.585762 
L 88.553893 286.585762 
L 88.553893 286.333553 
L 89.697862 286.333553 
L 89.697862 285.829135 
L 90.242884 285.829135 
L 90.242884 285.576926 
L 91.284345 285.576926 
L 91.284345 284.820299 
L 91.782644 284.820299 
L 91.782644 284.56809 
L 93.422441 284.56809 
L 93.422441 284.315881 
L 94.294587 284.315881 
L 94.294587 284.063672 
L 95.526106 284.063672 
L 95.526106 283.811463 
L 95.723163 283.811463 
L 95.723163 283.307045 
L 96.301313 283.307045 
L 96.301313 282.802628 
L 96.489848 282.802628 
L 96.489848 282.550419 
L 97.043522 282.550419 
L 97.043522 282.29821 
L 97.224242 282.29821 
L 97.224242 282.046001 
L 97.755429 282.046001 
L 97.755429 281.793792 
L 98.100772 281.793792 
L 98.100772 281.037165 
L 98.606294 281.037165 
L 98.606294 280.784956 
L 99.575392 280.784956 
L 99.575392 280.280538 
L 99.886816 280.280538 
L 99.886816 280.028329 
L 100.343767 280.028329 
L 100.343767 279.77612 
L 100.641881 279.77612 
L 100.641881 279.523911 
L 100.934985 279.523911 
L 100.934985 279.271702 
L 101.079711 279.271702 
L 101.079711 279.019493 
L 101.506816 279.019493 
L 101.506816 278.515075 
L 101.923711 278.515075 
L 101.923711 278.262867 
L 102.196206 278.262867 
L 102.196206 278.010658 
L 102.330873 278.010658 
L 102.330873 277.758449 
L 102.989037 277.758449 
L 102.989037 277.001822 
L 103.117741 277.001822 
L 103.117741 276.749613 
L 103.498249 276.749613 
L 103.498249 276.245195 
L 104.355088 276.245195 
L 104.355088 275.992986 
L 105.621863 275.992986 
L 105.732589 274.98415 
L 106.593963 274.98415 
L 106.593963 274.731941 
L 106.802819 274.731941 
L 106.906317 274.227523 
L 107.90885 274.227523 
L 107.90885 273.975314 
L 108.198707 273.975314 
L 108.198707 273.723105 
L 108.671345 273.723105 
L 108.671345 273.470897 
L 109.930396 273.470897 
L 109.930396 272.966479 
L 110.77713 272.966479 
L 110.859585 272.209852 
L 111.185562 272.209852 
L 111.185562 271.705434 
L 111.346294 271.705434 
L 111.346294 271.453225 
L 111.74176 271.453225 
L 111.819788 270.696598 
L 112.506763 270.696598 
L 112.506763 270.444389 
L 113.239614 270.444389 
L 113.239614 269.939971 
L 113.804498 269.939971 
L 113.804498 269.687762 
L 114.216469 269.687762 
L 114.216469 269.435553 
L 114.485807 269.435553 
L 114.485807 269.183344 
L 114.947365 269.183344 
L 114.947365 268.931136 
L 115.269727 268.931136 
L 115.269727 268.426718 
L 115.397021 268.426718 
L 115.397021 268.174509 
L 115.586238 268.174509 
L 115.648856 267.670091 
L 115.773423 267.670091 
L 115.773423 267.417882 
L 115.897107 267.417882 
L 115.897107 267.165673 
L 117.765302 267.165673 
L 117.765302 266.913464 
L 118.256582 266.913464 
L 118.310324 266.409046 
L 118.470564 266.409046 
L 118.470564 266.156837 
L 118.734401 266.156837 
L 118.734401 265.40021 
L 119.89914 265.40021 
L 119.89914 265.148001 
L 120.712642 265.148001 
L 120.712642 264.895792 
L 120.898662 264.895792 
L 120.898662 264.643583 
L 121.036887 264.643583 
L 121.036887 264.139166 
L 121.931406 264.139166 
L 121.931406 263.634748 
L 122.061712 263.634748 
L 122.061712 263.382539 
L 122.573415 263.382539 
L 122.573415 263.13033 
L 122.865118 263.13033 
L 122.865118 262.625912 
L 124.139788 262.625912 
L 124.139788 262.121494 
L 124.482119 262.121494 
L 124.482119 261.364867 
L 124.594752 261.364867 
L 124.594752 261.112658 
L 125.147256 261.112658 
L 125.147256 260.860449 
L 125.682793 260.860449 
L 125.682793 260.60824 
L 126.236468 260.60824 
L 126.304457 260.103822 
L 126.50685 260.103822 
L 126.50685 259.599405 
L 127.229484 259.599405 
L 127.229484 259.347196 
L 127.516689 259.347196 
L 127.516689 259.094987 
L 127.830353 259.094987 
L 127.830353 258.590569 
L 128.229861 258.590569 
L 128.229861 258.33836 
L 129.147151 258.33836 
L 129.147151 258.086151 
L 129.433047 258.086151 
L 129.433047 257.833942 
L 130.344571 257.833942 
L 130.344571 257.329524 
L 131.414481 257.329524 
L 131.414481 256.825106 
L 131.565689 256.825106 
L 131.565689 256.320688 
L 131.740458 256.320688 
L 131.740458 256.068479 
L 131.913493 256.068479 
L 131.913493 255.81627 
L 132.157744 255.81627 
L 132.157744 255.564061 
L 133.667073 255.564061 
L 133.733678 255.059644 
L 135.117629 255.059644 
L 135.219673 254.555226 
L 136.092812 254.555226 
L 136.150782 253.798599 
L 137.162581 253.798599 
L 137.198951 253.294181 
L 137.415591 253.294181 
L 137.415591 252.789763 
L 137.629572 252.789763 
L 137.629572 252.537554 
L 137.823442 252.537554 
L 137.823442 252.285345 
L 141.220721 252.285345 
L 141.220721 252.033136 
L 142.712875 252.033136 
L 142.712875 251.780927 
L 142.871056 251.780927 
L 142.975718 251.0243 
L 143.375453 251.0243 
L 143.375453 250.772091 
L 144.160633 250.772091 
L 144.160633 250.519883 
L 145.039911 250.519883 
L 145.039911 250.267674 
L 145.508645 250.267674 
L 145.508645 250.015465 
L 146.538004 250.015465 
L 146.538004 249.511047 
L 146.812312 249.511047 
L 146.812312 249.258838 
L 147.429332 249.258838 
L 147.429332 248.75442 
L 147.670154 248.75442 
L 147.70997 247.745584 
L 149.928949 247.745584 
L 149.928949 247.493375 
L 150.206871 247.493375 
L 150.206871 246.988957 
L 150.352736 246.988957 
L 150.429467 246.484539 
L 150.522794 246.484539 
L 150.522794 246.23233 
L 150.766468 246.23233 
L 150.841405 245.223495 
L 151.660987 245.223495 
L 151.660987 244.971286 
L 151.858043 244.971286 
L 151.967429 243.96245 
L 152.068392 243.96245 
L 152.137948 242.953614 
L 152.184165 242.953614 
L 152.184165 242.701405 
L 153.987696 242.701405 
L 153.987696 242.449196 
L 154.787617 242.449196 
L 154.787617 242.196987 
L 156.406335 242.196987 
L 156.406335 241.944778 
L 156.794487 241.944778 
L 156.794487 241.440361 
L 157.870833 241.440361 
L 157.870833 240.935943 
L 158.556736 240.935943 
L 158.556736 240.683734 
L 159.092886 240.683734 
L 159.092886 240.179316 
L 161.007772 240.179316 
L 161.007772 239.927107 
L 162.854457 239.927107 
L 162.854457 239.422689 
L 163.573705 239.422689 
L 163.573705 239.17048 
L 164.798763 239.17048 
L 164.798763 238.666062 
L 165.135103 238.666062 
L 165.135103 238.161644 
L 165.30631 238.161644 
L 165.414719 237.405017 
L 166.296264 237.405017 
L 166.374858 236.648391 
L 167.449146 236.648391 
L 167.449146 236.396182 
L 173.510537 236.396182 
L 173.510537 235.891764 
L 174.575644 235.891764 
L 174.575644 235.387346 
L 179.403586 235.387346 
L 179.403586 235.135137 
L 180.08154 235.135137 
L 180.08154 234.882928 
L 181.048539 234.882928 
L 181.048539 234.37851 
L 183.311516 234.37851 
L 183.311516 234.126301 
L 184.509968 234.126301 
L 184.509968 233.874092 
L 186.831126 233.874092 
L 186.831126 233.369674 
L 187.722637 233.369674 
L 187.722637 233.117465 
L 191.480264 233.117465 
L 191.480264 232.613047 
L 195.724992 232.613047 
L 195.724992 232.10863 
L 199.86867 232.10863 
L 199.86867 231.856421 
L 338.688 231.856421 
L 338.688 231.856421 
" style="fill:none;stroke:#ff00ff;stroke-linecap:square;stroke-width:1.5;"/>
   </g>
   <g id="line2d_41">
    <defs>
     <path d="M 0 8.485281 
L 5.091169 0 
L 0 -8.485281 
L -5.091169 0 
z
" id="md030ea308b" style="stroke:#ff00ff;stroke-linejoin:miter;stroke-width:1.5;"/>
    </defs>
    <g>
     <use style="fill-opacity:0;stroke:#ff00ff;stroke-linejoin:miter;stroke-width:1.5;" x="114.216469" xlink:href="#md030ea308b" y="269.687762"/>
     <use style="fill-opacity:0;stroke:#ff00ff;stroke-linejoin:miter;stroke-width:1.5;" x="173.510537" xlink:href="#md030ea308b" y="235.891764"/>
     <use style="fill-opacity:0;stroke:#ff00ff;stroke-linejoin:miter;stroke-width:1.5;" x="199.86867" xlink:href="#md030ea308b" y="232.10863"/>
     <use style="fill-opacity:0;stroke:#ff00ff;stroke-linejoin:miter;stroke-width:1.5;" x="199.86867" xlink:href="#md030ea308b" y="231.856421"/>
     <use style="fill-opacity:0;stroke:#ff00ff;stroke-linejoin:miter;stroke-width:1.5;" x="199.86867" xlink:href="#md030ea308b" y="231.856421"/>
     <use style="fill-opacity:0;stroke:#ff00ff;stroke-linejoin:miter;stroke-width:1.5;" x="338.688" xlink:href="#md030ea308b" y="231.856421"/>
    </g>
   </g>
   <g id="line2d_42">
    <path style="fill:none;stroke:#ff00ff;stroke-linecap:square;stroke-width:1.5;"/>
    <g/>
   </g>
   <g id="line2d_43">
    <path clip-path="url(#p48596839e2)" d="M 218.222935 231.856421 
" style="fill:none;stroke:#ff00ff;stroke-linecap:square;stroke-width:1.5;"/>
    <defs>
     <path d="M -12 12 
L 12 -12 
M -12 -12 
L 12 12 
" id="m7ac9baf9bc" style="stroke:#ff00ff;"/>
    </defs>
    <g clip-path="url(#p48596839e2)">
     <use style="fill:#ff00ff;stroke:#ff00ff;" x="218.222935" xlink:href="#m7ac9baf9bc" y="231.856421"/>
    </g>
   </g>
   <g id="line2d_44">
    <defs>
     <path d="M 0 1.5 
C 0.397805 1.5 0.77937 1.341951 1.06066 1.06066 
C 1.341951 0.77937 1.5 0.397805 1.5 0 
C 1.5 -0.397805 1.341951 -0.77937 1.06066 -1.06066 
C 0.77937 -1.341951 0.397805 -1.5 0 -1.5 
C -0.397805 -1.5 -0.77937 -1.341951 -1.06066 -1.06066 
C -1.341951 -0.77937 -1.5 -0.397805 -1.5 0 
C -1.5 0.397805 -1.341951 0.77937 -1.06066 1.06066 
C -0.77937 1.341951 -0.397805 1.5 0 1.5 
z
" id="m1755249fab" style="stroke:#ffa500;"/>
    </defs>
    <g>
     <use style="fill:#ffa500;stroke:#ffa500;" x="229.772312" xlink:href="#m1755249fab" y="218.993764"/>
     <use style="fill:#ffa500;stroke:#ffa500;" x="229.772312" xlink:href="#m1755249fab" y="218.993764"/>
    </g>
   </g>
   <g id="line2d_45">
    <path d="M 17.444571 298.944 
L 17.444571 291.88215 
L 36.60358 291.88215 
L 36.60358 290.621105 
L 62.175444 290.621105 
L 62.175444 290.368896 
L 63.467834 290.368896 
L 63.467834 290.116687 
L 66.853775 290.116687 
L 66.853775 289.612269 
L 71.35013 289.612269 
L 71.35013 289.107851 
L 72.867545 289.107851 
L 72.867545 288.855642 
L 74.921597 288.855642 
L 74.921597 288.603433 
L 75.555822 288.603433 
L 75.555822 288.351224 
L 79.447285 288.351224 
L 79.447285 288.099015 
L 79.938565 288.099015 
L 79.938565 286.837971 
L 84.588378 286.837971 
L 84.588378 286.585762 
L 88.255778 286.585762 
L 88.255778 285.324717 
L 90.771388 285.324717 
L 90.771388 285.072508 
L 91.284345 285.072508 
L 91.284345 284.820299 
L 91.782644 284.820299 
L 91.782644 284.315881 
L 93.644601 284.315881 
L 93.644601 284.063672 
L 93.863965 284.063672 
L 93.863965 283.811463 
L 95.125186 283.811463 
L 95.125186 283.559254 
L 96.110718 283.559254 
L 96.110718 283.307045 
L 96.86091 283.307045 
L 96.86091 283.054836 
L 97.224242 283.054836 
L 97.224242 282.802628 
L 97.580158 282.802628 
L 97.580158 282.550419 
L 98.100772 282.550419 
L 98.100772 282.29821 
L 98.270913 282.29821 
L 98.270913 282.046001 
L 98.771596 282.046001 
L 98.771596 281.793792 
L 98.935347 281.793792 
L 98.935347 281.541583 
L 99.097574 281.541583 
L 99.097574 281.289374 
L 99.731799 281.289374 
L 99.731799 281.037165 
L 99.886816 281.037165 
L 99.886816 280.532747 
L 100.040467 280.532747 
L 100.040467 280.028329 
L 101.506816 280.028329 
L 101.506816 279.019493 
L 101.646892 279.019493 
L 101.646892 278.767284 
L 102.330873 278.767284 
L 102.330873 278.515075 
L 102.989037 278.515075 
L 102.989037 278.010658 
L 103.498249 278.010658 
L 103.498249 277.758449 
L 104.23523 277.758449 
L 104.23523 277.50624 
L 104.474128 277.50624 
L 104.474128 277.254031 
L 104.826449 277.254031 
L 104.826449 275.488568 
L 105.732589 275.488568 
L 105.842616 274.98415 
L 106.168594 274.98415 
L 106.275913 274.227523 
L 106.802819 274.227523 
L 106.802819 273.470897 
L 107.009204 273.470897 
L 107.009204 273.218688 
L 107.314272 273.218688 
L 107.314272 272.966479 
L 108.006005 272.966479 
L 108.102622 272.462061 
L 108.948899 272.462061 
L 108.948899 271.957643 
L 110.188761 271.957643 
L 110.274038 271.201016 
L 110.443353 271.201016 
L 110.443353 270.948807 
L 110.859585 270.948807 
L 110.859585 270.696598 
L 111.897469 270.696598 
L 111.897469 270.444389 
L 112.506763 270.444389 
L 112.506763 270.19218 
L 112.655818 270.19218 
L 112.72987 269.687762 
L 112.803609 269.687762 
L 112.803609 269.435553 
L 113.453595 269.435553 
L 113.453595 269.183344 
L 114.418861 269.183344 
L 114.485807 268.426718 
L 114.552496 268.426718 
L 114.552496 267.9223 
L 114.816733 267.9223 
L 114.882171 267.417882 
L 115.141496 267.417882 
L 115.141496 267.165673 
L 115.460322 267.165673 
L 115.460322 266.913464 
L 116.141872 266.913464 
L 116.141872 266.661255 
L 116.262979 266.661255 
L 116.262979 266.156837 
L 116.621333 266.156837 
L 116.621333 265.904628 
L 117.145424 265.904628 
L 117.145424 265.652419 
L 117.316679 265.652419 
L 117.316679 265.40021 
L 117.542433 265.40021 
L 117.542433 264.895792 
L 117.654224 264.895792 
L 117.654224 264.643583 
L 118.994305 264.643583 
L 118.994305 264.391375 
L 119.65247 264.391375 
L 119.65247 264.139166 
L 119.80089 264.139166 
L 119.80089 263.886957 
L 120.429836 263.886957 
L 120.429836 263.382539 
L 122.947573 263.382539 
L 122.947573 263.13033 
L 123.474235 263.13033 
L 123.553867 262.121494 
L 123.633136 262.121494 
L 123.633136 261.869285 
L 125.001625 261.869285 
L 125.001625 261.617076 
L 126.87191 261.617076 
L 126.87191 261.364867 
L 127.100304 261.364867 
L 127.100304 261.112658 
L 128.260216 261.112658 
L 128.260216 260.860449 
L 128.590686 260.860449 
L 128.590686 260.60824 
L 129.031467 260.60824 
L 129.031467 260.103822 
L 129.204706 260.103822 
L 129.204706 259.851614 
L 129.630422 259.851614 
L 129.630422 259.599405 
L 130.155159 259.599405 
L 130.155159 259.347196 
L 130.398313 259.347196 
L 130.398313 259.094987 
L 131.185181 259.094987 
L 131.185181 258.842778 
L 131.338382 258.842778 
L 131.338382 258.33836 
L 131.665771 258.33836 
L 131.665771 257.833942 
L 131.987128 257.833942 
L 131.987128 257.329524 
L 133.124876 257.329524 
L 133.124876 256.825106 
L 134.279041 256.825106 
L 134.386096 256.320688 
L 134.61933 256.320688 
L 134.724323 255.311853 
L 135.421987 255.311853 
L 135.421987 255.059644 
L 135.542259 255.059644 
L 135.542259 254.555226 
L 136.68274 254.555226 
L 136.776048 253.798599 
L 137.144368 253.798599 
L 137.144368 253.54639 
L 137.823442 253.54639 
L 137.823442 253.041972 
L 139.139602 253.041972 
L 139.139602 252.789763 
L 139.980403 252.789763 
L 139.980403 252.285345 
L 140.302652 252.285345 
L 140.302652 252.033136 
L 140.752916 252.033136 
L 140.752916 251.780927 
L 141.263941 251.780927 
L 141.364373 251.276509 
L 141.577657 251.276509 
L 141.577657 251.0243 
L 142.174998 251.0243 
L 142.174998 250.772091 
L 142.526499 250.772091 
L 142.526499 250.519883 
L 142.673105 250.519883 
L 142.673105 250.267674 
L 143.170282 250.267674 
L 143.183176 249.763256 
L 143.464461 249.763256 
L 143.464461 249.258838 
L 143.803587 249.258838 
L 143.803587 249.006629 
L 143.927534 249.006629 
L 143.927534 248.75442 
L 144.294175 248.75442 
L 144.294175 248.502211 
L 144.486611 248.502211 
L 144.486611 247.997793 
L 144.617689 247.997793 
L 144.617689 247.493375 
L 145.406826 247.493375 
L 145.406826 247.241166 
L 145.865929 247.241166 
L 145.865929 246.988957 
L 146.226867 246.988957 
L 146.226867 246.736748 
L 147.630247 246.736748 
L 147.630247 246.23233 
L 148.45922 246.23233 
L 148.45922 245.980122 
L 150.352736 245.980122 
L 150.429467 244.971286 
L 150.766468 244.971286 
L 150.766468 244.466868 
L 150.998554 244.466868 
L 150.998554 243.96245 
L 152.413432 243.96245 
L 152.413432 243.458032 
L 152.549559 243.458032 
L 152.60972 242.953614 
L 153.003132 242.953614 
L 153.112882 241.944778 
L 154.473387 241.944778 
L 154.473387 241.440361 
L 155.437927 241.440361 
L 155.437927 240.935943 
L 156.92979 240.935943 
L 156.92979 240.431525 
L 157.220355 240.431525 
L 157.220355 240.179316 
L 158.162642 240.179316 
L 158.162642 239.674898 
L 158.293192 239.674898 
L 158.293192 239.17048 
L 158.874111 239.17048 
L 158.874111 238.918271 
L 159.683242 238.918271 
L 159.683242 238.413853 
L 160.220333 238.413853 
L 160.220333 237.909435 
L 162.397949 237.909435 
L 162.397949 237.657226 
L 163.996903 237.657226 
L 163.996903 237.405017 
L 164.260611 237.405017 
L 164.260611 237.152808 
L 165.09479 237.152808 
L 165.09479 236.9006 
L 166.255117 236.9006 
L 166.320221 236.143973 
L 167.687935 236.143973 
L 167.687935 235.639555 
L 168.638649 235.639555 
L 168.638649 235.387346 
L 170.220574 235.387346 
L 170.220574 234.882928 
L 171.11605 234.882928 
L 171.11605 234.630719 
L 171.600256 234.630719 
L 171.600256 234.37851 
L 174.462367 234.37851 
L 174.462367 234.126301 
L 174.789496 234.126301 
L 174.789496 233.874092 
L 182.315398 233.874092 
L 182.315398 233.369674 
L 182.53273 233.369674 
L 182.598749 232.613047 
L 184.532852 232.613047 
L 184.532852 232.360839 
L 185.32234 232.360839 
L 185.32234 232.10863 
L 186.010302 232.10863 
L 186.010302 231.856421 
L 186.397444 231.856421 
L 186.397444 231.604212 
L 197.373478 231.604212 
L 197.373478 231.099794 
L 197.872905 231.099794 
L 197.872905 230.595376 
L 197.986797 230.595376 
L 197.986797 230.343167 
L 199.358225 230.343167 
L 199.358225 229.838749 
L 202.743349 229.838749 
L 202.794111 228.829913 
L 203.093543 228.829913 
L 203.093543 228.577704 
L 203.378528 228.577704 
L 203.445798 227.821078 
L 203.543588 227.821078 
L 203.543588 227.568869 
L 204.085777 227.568869 
L 204.085777 227.31666 
L 205.182576 227.31666 
L 205.244714 226.307824 
L 206.264725 226.307824 
L 206.264725 225.803406 
L 207.205741 225.803406 
L 207.205741 225.298988 
L 208.028001 225.298988 
L 208.028001 224.79457 
L 209.602971 224.79457 
L 209.650075 224.290152 
L 211.727109 224.290152 
L 211.727109 224.037943 
L 212.29872 224.037943 
L 212.29872 223.785734 
L 212.439228 223.785734 
L 212.439228 223.533525 
L 212.972543 223.533525 
L 212.972543 223.029108 
L 215.34683 223.029108 
L 215.34683 222.52469 
L 220.806745 222.52469 
L 220.806745 222.020272 
L 221.089831 222.020272 
L 221.09353 221.515854 
L 221.740772 221.515854 
L 221.7984 221.011436 
L 222.565019 221.011436 
L 222.565019 220.507018 
L 224.374703 220.507018 
L 224.374703 220.0026 
L 229.376224 220.0026 
L 229.376224 219.498182 
L 229.772312 219.498182 
L 229.772312 218.993764 
L 338.688 218.993764 
L 338.688 218.993764 
" style="fill:none;stroke:#ffa500;stroke-linecap:square;stroke-width:1.5;"/>
   </g>
   <g id="line2d_46">
    <defs>
     <path d="M 0 -6 
L -1.347084 -1.854102 
L -5.706339 -1.854102 
L -2.179628 0.708204 
L -3.526712 4.854102 
L -0 2.291796 
L 3.526712 4.854102 
L 2.179628 0.708204 
L 5.706339 -1.854102 
L 1.347084 -1.854102 
z
" id="m2bbc67edab" style="stroke:#ffa500;stroke-linejoin:bevel;stroke-width:1.5;"/>
    </defs>
    <g>
     <use style="fill-opacity:0;stroke:#ffa500;stroke-linejoin:bevel;stroke-width:1.5;" x="97.224242" xlink:href="#m2bbc67edab" y="282.802628"/>
     <use style="fill-opacity:0;stroke:#ffa500;stroke-linejoin:bevel;stroke-width:1.5;" x="143.183176" xlink:href="#m2bbc67edab" y="249.763256"/>
     <use style="fill-opacity:0;stroke:#ffa500;stroke-linejoin:bevel;stroke-width:1.5;" x="204.085777" xlink:href="#m2bbc67edab" y="227.568869"/>
     <use style="fill-opacity:0;stroke:#ffa500;stroke-linejoin:bevel;stroke-width:1.5;" x="229.772312" xlink:href="#m2bbc67edab" y="218.993764"/>
     <use style="fill-opacity:0;stroke:#ffa500;stroke-linejoin:bevel;stroke-width:1.5;" x="229.772312" xlink:href="#m2bbc67edab" y="218.993764"/>
     <use style="fill-opacity:0;stroke:#ffa500;stroke-linejoin:bevel;stroke-width:1.5;" x="338.688" xlink:href="#m2bbc67edab" y="218.993764"/>
    </g>
   </g>
   <g id="line2d_47">
    <path style="fill:none;stroke:#ffa500;stroke-linecap:square;stroke-width:1.5;"/>
    <g/>
   </g>
   <g id="line2d_48">
    <path clip-path="url(#p48596839e2)" d="M 230.309877 218.993764 
" style="fill:none;stroke:#ffa500;stroke-linecap:square;stroke-width:1.5;"/>
    <defs>
     <path d="M -12 12 
L 12 -12 
M -12 -12 
L 12 12 
" id="m86bfa265ed" style="stroke:#ffa500;"/>
    </defs>
    <g clip-path="url(#p48596839e2)">
     <use style="fill:#ffa500;stroke:#ffa500;" x="230.309877" xlink:href="#m86bfa265ed" y="218.993764"/>
    </g>
   </g>
   <g id="line2d_49">
    <path d="M 338.688 231.856421 
L 369.60768 293.092752 
" style="fill:none;stroke:#ff00ff;stroke-linecap:square;stroke-width:1.5;"/>
    <g>
     <use style="fill-opacity:0;stroke:#ff00ff;stroke-linejoin:miter;stroke-width:1.5;" x="338.688" xlink:href="#md030ea308b" y="231.856421"/>
     <use style="fill-opacity:0;stroke:#ff00ff;stroke-linejoin:miter;stroke-width:1.5;" x="369.60768" xlink:href="#md030ea308b" y="293.092752"/>
    </g>
   </g>
   <g id="line2d_50">
    <path d="M 338.688 227.31666 
L 369.60768 199.472792 
" style="fill:none;stroke:#000080;stroke-linecap:square;stroke-width:1.5;"/>
    <g>
     <use style="fill-opacity:0;stroke:#000080;stroke-width:1.5;" x="338.688" xlink:href="#m9aaa86f0f7" y="227.31666"/>
     <use style="fill-opacity:0;stroke:#000080;stroke-width:1.5;" x="369.60768" xlink:href="#m9aaa86f0f7" y="199.472792"/>
    </g>
   </g>
   <g id="line2d_51">
    <path d="M 338.688 218.993764 
L 369.60768 105.852832 
" style="fill:none;stroke:#ffa500;stroke-linecap:square;stroke-width:1.5;"/>
    <g>
     <use style="fill-opacity:0;stroke:#ffa500;stroke-linejoin:bevel;stroke-width:1.5;" x="338.688" xlink:href="#m2bbc67edab" y="218.993764"/>
     <use style="fill-opacity:0;stroke:#ffa500;stroke-linejoin:bevel;stroke-width:1.5;" x="369.60768" xlink:href="#m2bbc67edab" y="105.852832"/>
    </g>
   </g>
   <g id="line2d_52">
    <path d="M 338.688 298.944 
L 338.688 6.381624 
" style="fill:none;stroke:#000000;stroke-linecap:square;stroke-width:1.5;"/>
   </g>
   <g id="patch_3">
    <path d="M 57.6 298.944 
L 57.6 3.456 
" style="fill:none;stroke:#000000;stroke-linecap:square;stroke-linejoin:miter;stroke-width:0.8;"/>
   </g>
   <g id="patch_4">
    <path d="M 338.688 298.944 
L 338.688 3.456 
" style="fill:none;stroke:#000000;stroke-linecap:square;stroke-linejoin:miter;stroke-width:0.8;"/>
   </g>
   <g id="patch_5">
    <path d="M 57.6 298.944 
L 338.688 298.944 
" style="fill:none;stroke:#000000;stroke-linecap:square;stroke-linejoin:miter;stroke-width:0.8;"/>
   </g>
   <g id="patch_6">
    <path d="M 57.6 3.456 
L 338.688 3.456 
" style="fill:none;stroke:#000000;stroke-linecap:square;stroke-linejoin:miter;stroke-width:0.8;"/>
   </g>
   <g id="text_13">
    <!-- onlychvre -->
    <defs>
     <path d="M 32.171875 -5.078125 
Q 28.375 -14.84375 24.75 -17.8125 
Q 21.140625 -20.796875 15.09375 -20.796875 
L 7.90625 -20.796875 
L 7.90625 -13.28125 
L 13.1875 -13.28125 
Q 16.890625 -13.28125 18.9375 -11.515625 
Q 21 -9.765625 23.484375 -3.21875 
L 25.09375 0.875 
L 2.984375 54.6875 
L 12.5 54.6875 
L 29.59375 11.921875 
L 46.6875 54.6875 
L 56.203125 54.6875 
z
" id="DejaVuSans-121"/>
     <path d="M 54.890625 33.015625 
L 54.890625 0 
L 45.90625 0 
L 45.90625 32.71875 
Q 45.90625 40.484375 42.875 44.328125 
Q 39.84375 48.1875 33.796875 48.1875 
Q 26.515625 48.1875 22.3125 43.546875 
Q 18.109375 38.921875 18.109375 30.90625 
L 18.109375 0 
L 9.078125 0 
L 9.078125 75.984375 
L 18.109375 75.984375 
L 18.109375 46.1875 
Q 21.34375 51.125 25.703125 53.5625 
Q 30.078125 56 35.796875 56 
Q 45.21875 56 50.046875 50.171875 
Q 54.890625 44.34375 54.890625 33.015625 
z
" id="DejaVuSans-104"/>
    </defs>
    <g transform="translate(375.22944 297.78369)scale(0.17 -0.17)">
     <use xlink:href="#DejaVuSans-111"/>
     <use x="61.181641" xlink:href="#DejaVuSans-110"/>
     <use x="124.560547" xlink:href="#DejaVuSans-108"/>
     <use x="152.34375" xlink:href="#DejaVuSans-121"/>
     <use x="211.523438" xlink:href="#DejaVuSans-99"/>
     <use x="266.503906" xlink:href="#DejaVuSans-104"/>
     <use x="329.882812" xlink:href="#DejaVuSans-118"/>
     <use x="389.0625" xlink:href="#DejaVuSans-114"/>
     <use x="430.144531" xlink:href="#DejaVuSans-101"/>
    </g>
   </g>
   <g id="text_14">
    <!-- derandomi -->
    <g transform="translate(375.22944 204.16373)scale(0.17 -0.17)">
     <use xlink:href="#DejaVuSans-100"/>
     <use x="63.476562" xlink:href="#DejaVuSans-101"/>
     <use x="125" xlink:href="#DejaVuSans-114"/>
     <use x="166.113281" xlink:href="#DejaVuSans-97"/>
     <use x="227.392578" xlink:href="#DejaVuSans-110"/>
     <use x="290.771484" xlink:href="#DejaVuSans-100"/>
     <use x="354.248047" xlink:href="#DejaVuSans-111"/>
     <use x="415.429688" xlink:href="#DejaVuSans-109"/>
     <use x="512.841797" xlink:href="#DejaVuSans-105"/>
    </g>
   </g>
   <g id="text_15">
    <!-- randomres -->
    <g transform="translate(375.22944 110.543769)scale(0.17 -0.17)">
     <use xlink:href="#DejaVuSans-114"/>
     <use x="41.113281" xlink:href="#DejaVuSans-97"/>
     <use x="102.392578" xlink:href="#DejaVuSans-110"/>
     <use x="165.771484" xlink:href="#DejaVuSans-100"/>
     <use x="229.248047" xlink:href="#DejaVuSans-111"/>
     <use x="290.429688" xlink:href="#DejaVuSans-109"/>
     <use x="387.841797" xlink:href="#DejaVuSans-114"/>
     <use x="428.923828" xlink:href="#DejaVuSans-101"/>
     <use x="490.447266" xlink:href="#DejaVuSans-115"/>
    </g>
   </g>
   <g id="text_16">
    <!-- best 2016 -->
    <defs>
     <path d="M 48.6875 27.296875 
Q 48.6875 37.203125 44.609375 42.84375 
Q 40.53125 48.484375 33.40625 48.484375 
Q 26.265625 48.484375 22.1875 42.84375 
Q 18.109375 37.203125 18.109375 27.296875 
Q 18.109375 17.390625 22.1875 11.75 
Q 26.265625 6.109375 33.40625 6.109375 
Q 40.53125 6.109375 44.609375 11.75 
Q 48.6875 17.390625 48.6875 27.296875 
z
M 18.109375 46.390625 
Q 20.953125 51.265625 25.265625 53.625 
Q 29.59375 56 35.59375 56 
Q 45.5625 56 51.78125 48.09375 
Q 58.015625 40.1875 58.015625 27.296875 
Q 58.015625 14.40625 51.78125 6.484375 
Q 45.5625 -1.421875 35.59375 -1.421875 
Q 29.59375 -1.421875 25.265625 0.953125 
Q 20.953125 3.328125 18.109375 8.203125 
L 18.109375 0 
L 9.078125 0 
L 9.078125 75.984375 
L 18.109375 75.984375 
z
" id="DejaVuSans-98"/>
    </defs>
    <g transform="translate(375.22944 16.923809)scale(0.17 -0.17)">
     <use xlink:href="#DejaVuSans-98"/>
     <use x="63.476562" xlink:href="#DejaVuSans-101"/>
     <use x="125" xlink:href="#DejaVuSans-115"/>
     <use x="177.099609" xlink:href="#DejaVuSans-116"/>
     <use x="216.308594" xlink:href="#DejaVuSans-32"/>
     <use x="248.095703" xlink:href="#DejaVuSans-50"/>
     <use x="311.71875" xlink:href="#DejaVuSans-48"/>
     <use x="375.341797" xlink:href="#DejaVuSans-49"/>
     <use x="438.964844" xlink:href="#DejaVuSans-54"/>
    </g>
   </g>
   <g id="text_17">
    <!-- bbob-biobj f7, f8, f16, f17, 10-D -->
    <defs>
     <path d="M 9.421875 54.6875 
L 18.40625 54.6875 
L 18.40625 -0.984375 
Q 18.40625 -11.421875 14.421875 -16.109375 
Q 10.453125 -20.796875 1.609375 -20.796875 
L -1.8125 -20.796875 
L -1.8125 -13.1875 
L 0.59375 -13.1875 
Q 5.71875 -13.1875 7.5625 -10.8125 
Q 9.421875 -8.453125 9.421875 -0.984375 
z
M 9.421875 75.984375 
L 18.40625 75.984375 
L 18.40625 64.59375 
L 9.421875 64.59375 
z
" id="DejaVuSans-106"/>
     <path d="M 8.203125 72.90625 
L 55.078125 72.90625 
L 55.078125 68.703125 
L 28.609375 0 
L 18.3125 0 
L 43.21875 64.59375 
L 8.203125 64.59375 
z
" id="DejaVuSans-55"/>
     <path d="M 19.671875 64.796875 
L 19.671875 8.109375 
L 31.59375 8.109375 
Q 46.6875 8.109375 53.6875 14.9375 
Q 60.6875 21.78125 60.6875 36.53125 
Q 60.6875 51.171875 53.6875 57.984375 
Q 46.6875 64.796875 31.59375 64.796875 
z
M 9.8125 72.90625 
L 30.078125 72.90625 
Q 51.265625 72.90625 61.171875 64.09375 
Q 71.09375 55.28125 71.09375 36.53125 
Q 71.09375 17.671875 61.125 8.828125 
Q 51.171875 0 30.078125 0 
L 9.8125 0 
z
" id="DejaVuSans-68"/>
    </defs>
    <g transform="translate(60.41088 14.161286)scale(0.102 -0.102)">
     <use xlink:href="#DejaVuSans-98"/>
     <use x="63.476562" xlink:href="#DejaVuSans-98"/>
     <use x="126.953125" xlink:href="#DejaVuSans-111"/>
     <use x="188.134766" xlink:href="#DejaVuSans-98"/>
     <use x="251.611328" xlink:href="#DejaVuSans-45"/>
     <use x="287.695312" xlink:href="#DejaVuSans-98"/>
     <use x="351.171875" xlink:href="#DejaVuSans-105"/>
     <use x="378.955078" xlink:href="#DejaVuSans-111"/>
     <use x="440.136719" xlink:href="#DejaVuSans-98"/>
     <use x="503.613281" xlink:href="#DejaVuSans-106"/>
     <use x="531.396484" xlink:href="#DejaVuSans-32"/>
     <use x="563.183594" xlink:href="#DejaVuSans-102"/>
     <use x="598.388672" xlink:href="#DejaVuSans-55"/>
     <use x="662.011719" xlink:href="#DejaVuSans-44"/>
     <use x="693.798828" xlink:href="#DejaVuSans-32"/>
     <use x="725.585938" xlink:href="#DejaVuSans-102"/>
     <use x="760.791016" xlink:href="#DejaVuSans-56"/>
     <use x="824.414062" xlink:href="#DejaVuSans-44"/>
     <use x="856.201172" xlink:href="#DejaVuSans-32"/>
     <use x="887.988281" xlink:href="#DejaVuSans-102"/>
     <use x="923.193359" xlink:href="#DejaVuSans-49"/>
     <use x="986.816406" xlink:href="#DejaVuSans-54"/>
     <use x="1050.439453" xlink:href="#DejaVuSans-44"/>
     <use x="1082.226562" xlink:href="#DejaVuSans-32"/>
     <use x="1114.013672" xlink:href="#DejaVuSans-102"/>
     <use x="1149.21875" xlink:href="#DejaVuSans-49"/>
     <use x="1212.841797" xlink:href="#DejaVuSans-55"/>
     <use x="1276.464844" xlink:href="#DejaVuSans-44"/>
     <use x="1308.251953" xlink:href="#DejaVuSans-32"/>
     <use x="1340.039062" xlink:href="#DejaVuSans-49"/>
     <use x="1403.662109" xlink:href="#DejaVuSans-48"/>
     <use x="1467.285156" xlink:href="#DejaVuSans-45"/>
     <use x="1503.369141" xlink:href="#DejaVuSans-68"/>
    </g>
    <!-- 58 targets: 1..-1.0e-4 -->
    <defs>
     <path d="M 10.796875 72.90625 
L 49.515625 72.90625 
L 49.515625 64.59375 
L 19.828125 64.59375 
L 19.828125 46.734375 
Q 21.96875 47.46875 24.109375 47.828125 
Q 26.265625 48.1875 28.421875 48.1875 
Q 40.625 48.1875 47.75 41.5 
Q 54.890625 34.8125 54.890625 23.390625 
Q 54.890625 11.625 47.5625 5.09375 
Q 40.234375 -1.421875 26.90625 -1.421875 
Q 22.3125 -1.421875 17.546875 -0.640625 
Q 12.796875 0.140625 7.71875 1.703125 
L 7.71875 11.625 
Q 12.109375 9.234375 16.796875 8.0625 
Q 21.484375 6.890625 26.703125 6.890625 
Q 35.15625 6.890625 40.078125 11.328125 
Q 45.015625 15.765625 45.015625 23.390625 
Q 45.015625 31 40.078125 35.4375 
Q 35.15625 39.890625 26.703125 39.890625 
Q 22.75 39.890625 18.8125 39.015625 
Q 14.890625 38.140625 10.796875 36.28125 
z
" id="DejaVuSans-53"/>
     <path d="M 11.71875 12.40625 
L 22.015625 12.40625 
L 22.015625 0 
L 11.71875 0 
z
M 11.71875 51.703125 
L 22.015625 51.703125 
L 22.015625 39.3125 
L 11.71875 39.3125 
z
" id="DejaVuSans-58"/>
    </defs>
    <g transform="translate(60.41088 25.583055)scale(0.102 -0.102)">
     <use xlink:href="#DejaVuSans-53"/>
     <use x="63.623047" xlink:href="#DejaVuSans-56"/>
     <use x="127.246094" xlink:href="#DejaVuSans-32"/>
     <use x="159.033203" xlink:href="#DejaVuSans-116"/>
     <use x="198.242188" xlink:href="#DejaVuSans-97"/>
     <use x="259.521484" xlink:href="#DejaVuSans-114"/>
     <use x="300.619141" xlink:href="#DejaVuSans-103"/>
     <use x="364.095703" xlink:href="#DejaVuSans-101"/>
     <use x="425.619141" xlink:href="#DejaVuSans-116"/>
     <use x="464.828125" xlink:href="#DejaVuSans-115"/>
     <use x="516.927734" xlink:href="#DejaVuSans-58"/>
     <use x="550.619141" xlink:href="#DejaVuSans-32"/>
     <use x="582.40625" xlink:href="#DejaVuSans-49"/>
     <use x="646.029297" xlink:href="#DejaVuSans-46"/>
     <use x="677.816406" xlink:href="#DejaVuSans-46"/>
     <use x="709.603516" xlink:href="#DejaVuSans-45"/>
     <use x="745.6875" xlink:href="#DejaVuSans-49"/>
     <use x="809.310547" xlink:href="#DejaVuSans-46"/>
     <use x="841.097656" xlink:href="#DejaVuSans-48"/>
     <use x="904.720703" xlink:href="#DejaVuSans-101"/>
     <use x="966.244141" xlink:href="#DejaVuSans-45"/>
     <use x="1002.328125" xlink:href="#DejaVuSans-52"/>
    </g>
    <!-- 5 instances -->
    <g transform="translate(60.41088 37.004824)scale(0.102 -0.102)">
     <use xlink:href="#DejaVuSans-53"/>
     <use x="63.623047" xlink:href="#DejaVuSans-32"/>
     <use x="95.410156" xlink:href="#DejaVuSans-105"/>
     <use x="123.193359" xlink:href="#DejaVuSans-110"/>
     <use x="186.572266" xlink:href="#DejaVuSans-115"/>
     <use x="238.671875" xlink:href="#DejaVuSans-116"/>
     <use x="277.880859" xlink:href="#DejaVuSans-97"/>
     <use x="339.160156" xlink:href="#DejaVuSans-110"/>
     <use x="402.539062" xlink:href="#DejaVuSans-99"/>
     <use x="457.519531" xlink:href="#DejaVuSans-101"/>
     <use x="519.042969" xlink:href="#DejaVuSans-115"/>
    </g>
   </g>
   <g id="text_18">
    <!-- v2.3.1.83 -->
    <defs>
     <path d="M 40.578125 39.3125 
Q 47.65625 37.796875 51.625 33 
Q 55.609375 28.21875 55.609375 21.1875 
Q 55.609375 10.40625 48.1875 4.484375 
Q 40.765625 -1.421875 27.09375 -1.421875 
Q 22.515625 -1.421875 17.65625 -0.515625 
Q 12.796875 0.390625 7.625 2.203125 
L 7.625 11.71875 
Q 11.71875 9.328125 16.59375 8.109375 
Q 21.484375 6.890625 26.8125 6.890625 
Q 36.078125 6.890625 40.9375 10.546875 
Q 45.796875 14.203125 45.796875 21.1875 
Q 45.796875 27.640625 41.28125 31.265625 
Q 36.765625 34.90625 28.71875 34.90625 
L 20.21875 34.90625 
L 20.21875 43.015625 
L 29.109375 43.015625 
Q 36.375 43.015625 40.234375 45.921875 
Q 44.09375 48.828125 44.09375 54.296875 
Q 44.09375 59.90625 40.109375 62.90625 
Q 36.140625 65.921875 28.71875 65.921875 
Q 24.65625 65.921875 20.015625 65.03125 
Q 15.375 64.15625 9.8125 62.3125 
L 9.8125 71.09375 
Q 15.4375 72.65625 20.34375 73.4375 
Q 25.25 74.21875 29.59375 74.21875 
Q 40.828125 74.21875 47.359375 69.109375 
Q 53.90625 64.015625 53.90625 55.328125 
Q 53.90625 49.265625 50.4375 45.09375 
Q 46.96875 40.921875 40.578125 39.3125 
z
" id="DejaVuSans-51"/>
    </defs>
    <g style="fill:#808080;" transform="translate(174.511187 293.909432)scale(0.1 -0.1)">
     <use xlink:href="#DejaVuSans-118"/>
     <use x="59.179688" xlink:href="#DejaVuSans-50"/>
     <use x="122.802734" xlink:href="#DejaVuSans-46"/>
     <use x="154.589844" xlink:href="#DejaVuSans-51"/>
     <use x="218.212891" xlink:href="#DejaVuSans-46"/>
     <use x="250" xlink:href="#DejaVuSans-49"/>
     <use x="313.623047" xlink:href="#DejaVuSans-46"/>
     <use x="345.410156" xlink:href="#DejaVuSans-56"/>
     <use x="409.033203" xlink:href="#DejaVuSans-51"/>
    </g>
   </g>
  </g>
 </g>
 <defs>
  <clipPath id="p48596839e2">
   <rect height="295.488" width="281.088" x="57.6" y="3.456"/>
  </clipPath>
 </defs>
</svg>
