<?xml version="1.0" encoding="utf-8" standalone="no"?>
<!DOCTYPE svg PUBLIC "-//W3C//DTD SVG 1.1//EN"
  "http://www.w3.org/Graphics/SVG/1.1/DTD/svg11.dtd">
<!-- Created with matplotlib (https://matplotlib.org/) -->
<svg height="345.6pt" version="1.1" viewBox="0 0 460.8 345.6" width="460.8pt" xmlns="http://www.w3.org/2000/svg" xmlns:xlink="http://www.w3.org/1999/xlink">
 <defs>
  <style type="text/css">
*{stroke-linecap:butt;stroke-linejoin:round;}
  </style>
 </defs>
 <g id="figure_1">
  <g id="patch_1">
   <path d="M 0 345.6 
L 460.8 345.6 
L 460.8 0 
L 0 0 
z
" style="fill:#ffffff;"/>
  </g>
  <g id="axes_1">
   <g id="patch_2">
    <path d="M 57.6 298.944 
L 338.688 298.944 
L 338.688 3.456 
L 57.6 3.456 
z
" style="fill:#ffffff;"/>
   </g>
   <g id="line2d_1">
    <path d="M 60.779557 298.944 
L 60.779557 296.421911 
L 63.467834 296.421911 
L 63.467834 295.160866 
L 67.850577 295.160866 
L 67.850577 293.899821 
L 71.35013 293.899821 
L 71.35013 291.377732 
L 74.263433 291.377732 
L 74.263433 288.855642 
L 76.759008 288.855642 
L 76.759008 286.333553 
L 78.941764 286.333553 
L 78.941764 283.811463 
L 80.881459 283.811463 
L 80.881459 281.289374 
L 83.438118 281.289374 
L 83.438118 278.767284 
L 85.66744 278.767284 
L 85.66744 277.50624 
L 95.526106 277.50624 
L 95.526106 273.723105 
L 100.641881 273.723105 
L 100.641881 271.201016 
L 106.802819 271.201016 
L 106.802819 269.939971 
L 111.023335 269.939971 
L 111.023335 267.417882 
L 111.974805 267.417882 
L 111.974805 266.156837 
L 120.571812 266.156837 
L 120.571812 263.634748 
L 122.44689 263.634748 
L 122.44689 259.851614 
L 137.70032 259.851614 
L 137.70032 256.068479 
L 140.073083 256.068479 
L 140.073083 253.54639 
L 141.177393 253.54639 
L 141.177393 252.285345 
L 141.521035 252.285345 
L 141.521035 248.502211 
L 141.858037 248.502211 
L 141.858037 245.980122 
L 142.566605 245.980122 
L 142.566605 244.719077 
L 145.998045 244.719077 
L 145.998045 242.196987 
L 146.216039 242.196987 
L 146.216039 240.935943 
L 149.104327 240.935943 
L 149.104327 237.152808 
L 151.818809 237.152808 
L 151.818809 234.630719 
L 153.380683 234.630719 
L 153.380683 232.10863 
L 155.565128 232.10863 
L 155.565128 229.58654 
L 156.622378 229.58654 
L 156.622378 227.064451 
L 156.953214 227.064451 
L 156.953214 223.281316 
L 157.854169 223.281316 
L 157.854169 222.020272 
L 158.530025 222.020272 
L 158.530025 220.759227 
L 160.680044 220.759227 
L 160.680044 216.976093 
L 160.830627 216.976093 
L 160.830627 214.454003 
L 163.605703 214.454003 
L 163.605703 211.931914 
L 164.302897 211.931914 
L 164.37952 208.14878 
L 165.09112 208.14878 
L 165.09112 205.62669 
L 166.500553 205.62669 
L 166.500553 204.365646 
L 166.868978 204.365646 
L 166.868978 201.843556 
L 171.605309 201.843556 
L 171.605309 198.060422 
L 172.122951 198.060422 
L 172.122951 196.799377 
L 172.956059 196.799377 
L 172.956059 193.016243 
L 176.796954 193.016243 
L 176.796954 190.494154 
L 181.851394 190.494154 
L 181.851394 186.711019 
L 182.442052 186.711019 
L 182.442052 182.927885 
L 187.865398 182.927885 
L 187.865398 181.666841 
L 188.2275 181.666841 
L 188.2275 179.144751 
L 188.398057 179.144751 
L 188.398057 176.622662 
L 193.644946 176.622662 
L 193.644946 174.100572 
L 195.445917 174.100572 
L 195.445917 172.839527 
L 195.609944 172.839527 
L 195.609944 169.056393 
L 197.881305 169.056393 
L 197.881305 166.534304 
L 203.8814 166.534304 
L 203.8814 164.012214 
L 204.26606 164.012214 
L 204.345849 157.706991 
L 204.441424 157.706991 
L 204.441424 153.923857 
L 204.597529 153.923857 
L 204.597529 150.140722 
L 205.73579 150.140722 
L 205.73579 147.618633 
L 209.201898 147.618633 
L 209.201898 146.357588 
L 212.846255 146.357588 
L 212.846255 142.574454 
L 214.911643 142.574454 
L 214.911643 141.313409 
L 216.219207 141.313409 
L 216.219207 137.530275 
L 216.36957 137.530275 
L 216.36957 136.26923 
L 216.836462 136.26923 
L 216.836462 135.008186 
L 216.962883 135.008186 
L 216.962883 131.225052 
L 217.728601 131.225052 
L 217.788416 127.441917 
L 218.99501 127.441917 
L 218.99501 126.180873 
L 219.626721 126.180873 
L 219.626721 122.397738 
L 220.444227 122.397738 
L 220.444227 118.614604 
L 221.795843 118.614604 
L 221.795843 116.092515 
L 222.248814 116.092515 
L 222.248814 114.83147 
L 222.676275 114.83147 
L 222.676275 113.570425 
L 223.746631 113.570425 
L 223.746631 109.787291 
L 225.172806 109.787291 
L 225.172806 108.526247 
L 226.001515 108.526247 
L 226.001515 104.743112 
L 226.827581 104.743112 
L 226.827581 100.959978 
L 230.481848 100.959978 
L 230.481848 98.437889 
L 234.258273 98.437889 
L 234.258273 95.915799 
L 235.634017 95.915799 
L 235.634017 92.132665 
L 237.137324 92.132665 
L 237.137324 90.87162 
L 237.576796 90.87162 
L 237.576796 89.610576 
L 242.920708 89.610576 
L 242.920708 87.088486 
L 250.306949 87.088486 
L 250.306949 84.566397 
L 251.587851 84.566397 
L 251.587851 80.783263 
L 251.838649 80.783263 
L 251.838649 78.261173 
L 252.264976 78.261173 
L 252.264976 75.739084 
L 254.331711 75.739084 
L 254.331711 74.478039 
L 259.829549 74.478039 
L 259.829549 70.694905 
L 261.011694 70.694905 
L 261.011694 68.172815 
L 261.57355 68.172815 
L 261.57355 65.650726 
L 263.08087 65.650726 
L 263.08087 61.867592 
L 264.261163 61.867592 
L 264.261163 59.345502 
L 264.614265 59.345502 
L 264.614265 56.823413 
L 274.428394 56.823413 
L 274.428394 55.562368 
L 275.33128 55.562368 
L 275.33128 54.301323 
L 283.665407 54.301323 
L 283.665407 51.779234 
L 283.982116 51.779234 
L 283.982116 47.9961 
L 284.968754 47.9961 
L 284.968754 45.47401 
L 291.670325 45.47401 
L 291.670325 41.690876 
L 338.688 41.690876 
L 338.688 41.690876 
" style="fill:none;stroke:#f5deb3;stroke-linecap:square;stroke-width:4;"/>
   </g>
   <g id="line2d_2">
    <defs>
     <path d="M 0 7.778175 
L 7.778175 0 
L 0 -7.778175 
L -7.778175 0 
z
" id="m9f075b2ad8" style="stroke:#f5deb3;stroke-linejoin:miter;stroke-width:1.5;"/>
    </defs>
    <g>
     <use style="fill:#f5deb3;stroke:#f5deb3;stroke-linejoin:miter;stroke-width:1.5;" x="145.998045" xlink:href="#m9f075b2ad8" y="242.196987"/>
     <use style="fill:#f5deb3;stroke:#f5deb3;stroke-linejoin:miter;stroke-width:1.5;" x="195.609944" xlink:href="#m9f075b2ad8" y="172.839527"/>
     <use style="fill:#f5deb3;stroke:#f5deb3;stroke-linejoin:miter;stroke-width:1.5;" x="250.306949" xlink:href="#m9f075b2ad8" y="84.566397"/>
     <use style="fill:#f5deb3;stroke:#f5deb3;stroke-linejoin:miter;stroke-width:1.5;" x="291.670325" xlink:href="#m9f075b2ad8" y="41.690876"/>
     <use style="fill:#f5deb3;stroke:#f5deb3;stroke-linejoin:miter;stroke-width:1.5;" x="338.688" xlink:href="#m9f075b2ad8" y="41.690876"/>
    </g>
   </g>
   <g id="line2d_3">
    <path style="fill:none;stroke:#f5deb3;stroke-linecap:square;stroke-width:4;"/>
    <g/>
   </g>
   <g id="line2d_4">
    <path d="M 338.688 41.690876 
L 369.60768 12.232871 
" style="fill:none;stroke:#f5deb3;stroke-linecap:square;stroke-width:4;"/>
    <g>
     <use style="fill:#f5deb3;stroke:#f5deb3;stroke-linejoin:miter;stroke-width:1.5;" x="338.688" xlink:href="#m9f075b2ad8" y="41.690876"/>
     <use style="fill:#f5deb3;stroke:#f5deb3;stroke-linejoin:miter;stroke-width:1.5;" x="369.60768" xlink:href="#m9f075b2ad8" y="12.232871"/>
    </g>
   </g>
   <g id="matplotlib.axis_1">
    <g id="xtick_1">
     <g id="line2d_5">
      <path clip-path="url(#pacc79cb699)" d="M 57.6 298.944 
L 57.6 3.456 
" style="fill:none;stroke:#b0b0b0;stroke-linecap:square;stroke-width:0.8;"/>
     </g>
     <g id="line2d_6">
      <defs>
       <path d="M 0 0 
L 0 3.5 
" id="me3de1a6906" style="stroke:#000000;stroke-width:0.8;"/>
      </defs>
      <g>
       <use style="stroke:#000000;stroke-width:0.8;" x="57.6" xlink:href="#me3de1a6906" y="298.944"/>
      </g>
     </g>
     <g id="text_1">
      <!-- 0 -->
      <defs>
       <path d="M 31.78125 66.40625 
Q 24.171875 66.40625 20.328125 58.90625 
Q 16.5 51.421875 16.5 36.375 
Q 16.5 21.390625 20.328125 13.890625 
Q 24.171875 6.390625 31.78125 6.390625 
Q 39.453125 6.390625 43.28125 13.890625 
Q 47.125 21.390625 47.125 36.375 
Q 47.125 51.421875 43.28125 58.90625 
Q 39.453125 66.40625 31.78125 66.40625 
z
M 31.78125 74.21875 
Q 44.046875 74.21875 50.515625 64.515625 
Q 56.984375 54.828125 56.984375 36.375 
Q 56.984375 17.96875 50.515625 8.265625 
Q 44.046875 -1.421875 31.78125 -1.421875 
Q 19.53125 -1.421875 13.0625 8.265625 
Q 6.59375 17.96875 6.59375 36.375 
Q 6.59375 54.828125 13.0625 64.515625 
Q 19.53125 74.21875 31.78125 74.21875 
z
" id="DejaVuSans-48"/>
      </defs>
      <g transform="translate(51.2375 321.140875)scale(0.2 -0.2)">
       <use xlink:href="#DejaVuSans-48"/>
      </g>
     </g>
    </g>
    <g id="xtick_2">
     <g id="line2d_7">
      <path clip-path="url(#pacc79cb699)" d="M 137.910857 298.944 
L 137.910857 3.456 
" style="fill:none;stroke:#b0b0b0;stroke-linecap:square;stroke-width:0.8;"/>
     </g>
     <g id="line2d_8">
      <g>
       <use style="stroke:#000000;stroke-width:0.8;" x="137.910857" xlink:href="#me3de1a6906" y="298.944"/>
      </g>
     </g>
     <g id="text_2">
      <!-- 2 -->
      <defs>
       <path d="M 19.1875 8.296875 
L 53.609375 8.296875 
L 53.609375 0 
L 7.328125 0 
L 7.328125 8.296875 
Q 12.9375 14.109375 22.625 23.890625 
Q 32.328125 33.6875 34.8125 36.53125 
Q 39.546875 41.84375 41.421875 45.53125 
Q 43.3125 49.21875 43.3125 52.78125 
Q 43.3125 58.59375 39.234375 62.25 
Q 35.15625 65.921875 28.609375 65.921875 
Q 23.96875 65.921875 18.8125 64.3125 
Q 13.671875 62.703125 7.8125 59.421875 
L 7.8125 69.390625 
Q 13.765625 71.78125 18.9375 73 
Q 24.125 74.21875 28.421875 74.21875 
Q 39.75 74.21875 46.484375 68.546875 
Q 53.21875 62.890625 53.21875 53.421875 
Q 53.21875 48.921875 51.53125 44.890625 
Q 49.859375 40.875 45.40625 35.40625 
Q 44.1875 33.984375 37.640625 27.21875 
Q 31.109375 20.453125 19.1875 8.296875 
z
" id="DejaVuSans-50"/>
      </defs>
      <g transform="translate(131.548357 321.140875)scale(0.2 -0.2)">
       <use xlink:href="#DejaVuSans-50"/>
      </g>
     </g>
    </g>
    <g id="xtick_3">
     <g id="line2d_9">
      <path clip-path="url(#pacc79cb699)" d="M 218.221714 298.944 
L 218.221714 3.456 
" style="fill:none;stroke:#b0b0b0;stroke-linecap:square;stroke-width:0.8;"/>
     </g>
     <g id="line2d_10">
      <g>
       <use style="stroke:#000000;stroke-width:0.8;" x="218.221714" xlink:href="#me3de1a6906" y="298.944"/>
      </g>
     </g>
     <g id="text_3">
      <!-- 4 -->
      <defs>
       <path d="M 37.796875 64.3125 
L 12.890625 25.390625 
L 37.796875 25.390625 
z
M 35.203125 72.90625 
L 47.609375 72.90625 
L 47.609375 25.390625 
L 58.015625 25.390625 
L 58.015625 17.1875 
L 47.609375 17.1875 
L 47.609375 0 
L 37.796875 0 
L 37.796875 17.1875 
L 4.890625 17.1875 
L 4.890625 26.703125 
z
" id="DejaVuSans-52"/>
      </defs>
      <g transform="translate(211.859214 321.140875)scale(0.2 -0.2)">
       <use xlink:href="#DejaVuSans-52"/>
      </g>
     </g>
    </g>
    <g id="xtick_4">
     <g id="line2d_11">
      <path clip-path="url(#pacc79cb699)" d="M 298.532571 298.944 
L 298.532571 3.456 
" style="fill:none;stroke:#b0b0b0;stroke-linecap:square;stroke-width:0.8;"/>
     </g>
     <g id="line2d_12">
      <g>
       <use style="stroke:#000000;stroke-width:0.8;" x="298.532571" xlink:href="#me3de1a6906" y="298.944"/>
      </g>
     </g>
     <g id="text_4">
      <!-- 6 -->
      <defs>
       <path d="M 33.015625 40.375 
Q 26.375 40.375 22.484375 35.828125 
Q 18.609375 31.296875 18.609375 23.390625 
Q 18.609375 15.53125 22.484375 10.953125 
Q 26.375 6.390625 33.015625 6.390625 
Q 39.65625 6.390625 43.53125 10.953125 
Q 47.40625 15.53125 47.40625 23.390625 
Q 47.40625 31.296875 43.53125 35.828125 
Q 39.65625 40.375 33.015625 40.375 
z
M 52.59375 71.296875 
L 52.59375 62.3125 
Q 48.875 64.0625 45.09375 64.984375 
Q 41.3125 65.921875 37.59375 65.921875 
Q 27.828125 65.921875 22.671875 59.328125 
Q 17.53125 52.734375 16.796875 39.40625 
Q 19.671875 43.65625 24.015625 45.921875 
Q 28.375 48.1875 33.59375 48.1875 
Q 44.578125 48.1875 50.953125 41.515625 
Q 57.328125 34.859375 57.328125 23.390625 
Q 57.328125 12.15625 50.6875 5.359375 
Q 44.046875 -1.421875 33.015625 -1.421875 
Q 20.359375 -1.421875 13.671875 8.265625 
Q 6.984375 17.96875 6.984375 36.375 
Q 6.984375 53.65625 15.1875 63.9375 
Q 23.390625 74.21875 37.203125 74.21875 
Q 40.921875 74.21875 44.703125 73.484375 
Q 48.484375 72.75 52.59375 71.296875 
z
" id="DejaVuSans-54"/>
      </defs>
      <g transform="translate(292.170071 321.140875)scale(0.2 -0.2)">
       <use xlink:href="#DejaVuSans-54"/>
      </g>
     </g>
    </g>
    <g id="xtick_5">
     <g id="line2d_13">
      <path clip-path="url(#pacc79cb699)" d="M 97.755429 298.944 
L 97.755429 3.456 
" style="fill:none;stroke:#b0b0b0;stroke-linecap:square;stroke-width:0.8;"/>
     </g>
     <g id="line2d_14">
      <defs>
       <path d="M 0 0 
L 0 2 
" id="mcc94553319" style="stroke:#000000;stroke-width:0.6;"/>
      </defs>
      <g>
       <use style="stroke:#000000;stroke-width:0.6;" x="97.755429" xlink:href="#mcc94553319" y="298.944"/>
      </g>
     </g>
    </g>
    <g id="xtick_6">
     <g id="line2d_15">
      <path clip-path="url(#pacc79cb699)" d="M 178.066286 298.944 
L 178.066286 3.456 
" style="fill:none;stroke:#b0b0b0;stroke-linecap:square;stroke-width:0.8;"/>
     </g>
     <g id="line2d_16">
      <g>
       <use style="stroke:#000000;stroke-width:0.6;" x="178.066286" xlink:href="#mcc94553319" y="298.944"/>
      </g>
     </g>
    </g>
    <g id="xtick_7">
     <g id="line2d_17">
      <path clip-path="url(#pacc79cb699)" d="M 258.377143 298.944 
L 258.377143 3.456 
" style="fill:none;stroke:#b0b0b0;stroke-linecap:square;stroke-width:0.8;"/>
     </g>
     <g id="line2d_18">
      <g>
       <use style="stroke:#000000;stroke-width:0.6;" x="258.377143" xlink:href="#mcc94553319" y="298.944"/>
      </g>
     </g>
    </g>
    <g id="xtick_8">
     <g id="line2d_19">
      <path clip-path="url(#pacc79cb699)" d="M 338.688 298.944 
L 338.688 3.456 
" style="fill:none;stroke:#b0b0b0;stroke-linecap:square;stroke-width:0.8;"/>
     </g>
     <g id="line2d_20">
      <g>
       <use style="stroke:#000000;stroke-width:0.6;" x="338.688" xlink:href="#mcc94553319" y="298.944"/>
      </g>
     </g>
    </g>
    <g id="text_5">
     <!-- log10(# f-evals / dimension) -->
     <defs>
      <path d="M 9.421875 75.984375 
L 18.40625 75.984375 
L 18.40625 0 
L 9.421875 0 
z
" id="DejaVuSans-108"/>
      <path d="M 30.609375 48.390625 
Q 23.390625 48.390625 19.1875 42.75 
Q 14.984375 37.109375 14.984375 27.296875 
Q 14.984375 17.484375 19.15625 11.84375 
Q 23.34375 6.203125 30.609375 6.203125 
Q 37.796875 6.203125 41.984375 11.859375 
Q 46.1875 17.53125 46.1875 27.296875 
Q 46.1875 37.015625 41.984375 42.703125 
Q 37.796875 48.390625 30.609375 48.390625 
z
M 30.609375 56 
Q 42.328125 56 49.015625 48.375 
Q 55.71875 40.765625 55.71875 27.296875 
Q 55.71875 13.875 49.015625 6.21875 
Q 42.328125 -1.421875 30.609375 -1.421875 
Q 18.84375 -1.421875 12.171875 6.21875 
Q 5.515625 13.875 5.515625 27.296875 
Q 5.515625 40.765625 12.171875 48.375 
Q 18.84375 56 30.609375 56 
z
" id="DejaVuSans-111"/>
      <path d="M 45.40625 27.984375 
Q 45.40625 37.75 41.375 43.109375 
Q 37.359375 48.484375 30.078125 48.484375 
Q 22.859375 48.484375 18.828125 43.109375 
Q 14.796875 37.75 14.796875 27.984375 
Q 14.796875 18.265625 18.828125 12.890625 
Q 22.859375 7.515625 30.078125 7.515625 
Q 37.359375 7.515625 41.375 12.890625 
Q 45.40625 18.265625 45.40625 27.984375 
z
M 54.390625 6.78125 
Q 54.390625 -7.171875 48.1875 -13.984375 
Q 42 -20.796875 29.203125 -20.796875 
Q 24.46875 -20.796875 20.265625 -20.09375 
Q 16.0625 -19.390625 12.109375 -17.921875 
L 12.109375 -9.1875 
Q 16.0625 -11.328125 19.921875 -12.34375 
Q 23.78125 -13.375 27.78125 -13.375 
Q 36.625 -13.375 41.015625 -8.765625 
Q 45.40625 -4.15625 45.40625 5.171875 
L 45.40625 9.625 
Q 42.625 4.78125 38.28125 2.390625 
Q 33.9375 0 27.875 0 
Q 17.828125 0 11.671875 7.65625 
Q 5.515625 15.328125 5.515625 27.984375 
Q 5.515625 40.671875 11.671875 48.328125 
Q 17.828125 56 27.875 56 
Q 33.9375 56 38.28125 53.609375 
Q 42.625 51.21875 45.40625 46.390625 
L 45.40625 54.6875 
L 54.390625 54.6875 
z
" id="DejaVuSans-103"/>
      <path d="M 12.40625 8.296875 
L 28.515625 8.296875 
L 28.515625 63.921875 
L 10.984375 60.40625 
L 10.984375 69.390625 
L 28.421875 72.90625 
L 38.28125 72.90625 
L 38.28125 8.296875 
L 54.390625 8.296875 
L 54.390625 0 
L 12.40625 0 
z
" id="DejaVuSans-49"/>
      <path d="M 31 75.875 
Q 24.46875 64.65625 21.28125 53.65625 
Q 18.109375 42.671875 18.109375 31.390625 
Q 18.109375 20.125 21.3125 9.0625 
Q 24.515625 -2 31 -13.1875 
L 23.1875 -13.1875 
Q 15.875 -1.703125 12.234375 9.375 
Q 8.59375 20.453125 8.59375 31.390625 
Q 8.59375 42.28125 12.203125 53.3125 
Q 15.828125 64.359375 23.1875 75.875 
z
" id="DejaVuSans-40"/>
      <path d="M 51.125 44 
L 36.921875 44 
L 32.8125 27.6875 
L 47.125 27.6875 
z
M 43.796875 71.78125 
L 38.71875 51.515625 
L 52.984375 51.515625 
L 58.109375 71.78125 
L 65.921875 71.78125 
L 60.890625 51.515625 
L 76.125 51.515625 
L 76.125 44 
L 58.984375 44 
L 54.984375 27.6875 
L 70.515625 27.6875 
L 70.515625 20.21875 
L 53.078125 20.21875 
L 48 0 
L 40.1875 0 
L 45.21875 20.21875 
L 30.90625 20.21875 
L 25.875 0 
L 18.015625 0 
L 23.09375 20.21875 
L 7.71875 20.21875 
L 7.71875 27.6875 
L 24.90625 27.6875 
L 29 44 
L 13.28125 44 
L 13.28125 51.515625 
L 30.90625 51.515625 
L 35.890625 71.78125 
z
" id="DejaVuSans-35"/>
      <path id="DejaVuSans-32"/>
      <path d="M 37.109375 75.984375 
L 37.109375 68.5 
L 28.515625 68.5 
Q 23.6875 68.5 21.796875 66.546875 
Q 19.921875 64.59375 19.921875 59.515625 
L 19.921875 54.6875 
L 34.71875 54.6875 
L 34.71875 47.703125 
L 19.921875 47.703125 
L 19.921875 0 
L 10.890625 0 
L 10.890625 47.703125 
L 2.296875 47.703125 
L 2.296875 54.6875 
L 10.890625 54.6875 
L 10.890625 58.5 
Q 10.890625 67.625 15.140625 71.796875 
Q 19.390625 75.984375 28.609375 75.984375 
z
" id="DejaVuSans-102"/>
      <path d="M 4.890625 31.390625 
L 31.203125 31.390625 
L 31.203125 23.390625 
L 4.890625 23.390625 
z
" id="DejaVuSans-45"/>
      <path d="M 56.203125 29.59375 
L 56.203125 25.203125 
L 14.890625 25.203125 
Q 15.484375 15.921875 20.484375 11.0625 
Q 25.484375 6.203125 34.421875 6.203125 
Q 39.59375 6.203125 44.453125 7.46875 
Q 49.3125 8.734375 54.109375 11.28125 
L 54.109375 2.78125 
Q 49.265625 0.734375 44.1875 -0.34375 
Q 39.109375 -1.421875 33.890625 -1.421875 
Q 20.796875 -1.421875 13.15625 6.1875 
Q 5.515625 13.8125 5.515625 26.8125 
Q 5.515625 40.234375 12.765625 48.109375 
Q 20.015625 56 32.328125 56 
Q 43.359375 56 49.78125 48.890625 
Q 56.203125 41.796875 56.203125 29.59375 
z
M 47.21875 32.234375 
Q 47.125 39.59375 43.09375 43.984375 
Q 39.0625 48.390625 32.421875 48.390625 
Q 24.90625 48.390625 20.390625 44.140625 
Q 15.875 39.890625 15.1875 32.171875 
z
" id="DejaVuSans-101"/>
      <path d="M 2.984375 54.6875 
L 12.5 54.6875 
L 29.59375 8.796875 
L 46.6875 54.6875 
L 56.203125 54.6875 
L 35.6875 0 
L 23.484375 0 
z
" id="DejaVuSans-118"/>
      <path d="M 34.28125 27.484375 
Q 23.390625 27.484375 19.1875 25 
Q 14.984375 22.515625 14.984375 16.5 
Q 14.984375 11.71875 18.140625 8.90625 
Q 21.296875 6.109375 26.703125 6.109375 
Q 34.1875 6.109375 38.703125 11.40625 
Q 43.21875 16.703125 43.21875 25.484375 
L 43.21875 27.484375 
z
M 52.203125 31.203125 
L 52.203125 0 
L 43.21875 0 
L 43.21875 8.296875 
Q 40.140625 3.328125 35.546875 0.953125 
Q 30.953125 -1.421875 24.3125 -1.421875 
Q 15.921875 -1.421875 10.953125 3.296875 
Q 6 8.015625 6 15.921875 
Q 6 25.140625 12.171875 29.828125 
Q 18.359375 34.515625 30.609375 34.515625 
L 43.21875 34.515625 
L 43.21875 35.40625 
Q 43.21875 41.609375 39.140625 45 
Q 35.0625 48.390625 27.6875 48.390625 
Q 23 48.390625 18.546875 47.265625 
Q 14.109375 46.140625 10.015625 43.890625 
L 10.015625 52.203125 
Q 14.9375 54.109375 19.578125 55.046875 
Q 24.21875 56 28.609375 56 
Q 40.484375 56 46.34375 49.84375 
Q 52.203125 43.703125 52.203125 31.203125 
z
" id="DejaVuSans-97"/>
      <path d="M 44.28125 53.078125 
L 44.28125 44.578125 
Q 40.484375 46.53125 36.375 47.5 
Q 32.28125 48.484375 27.875 48.484375 
Q 21.1875 48.484375 17.84375 46.4375 
Q 14.5 44.390625 14.5 40.28125 
Q 14.5 37.15625 16.890625 35.375 
Q 19.28125 33.59375 26.515625 31.984375 
L 29.59375 31.296875 
Q 39.15625 29.25 43.1875 25.515625 
Q 47.21875 21.78125 47.21875 15.09375 
Q 47.21875 7.46875 41.1875 3.015625 
Q 35.15625 -1.421875 24.609375 -1.421875 
Q 20.21875 -1.421875 15.453125 -0.5625 
Q 10.6875 0.296875 5.421875 2 
L 5.421875 11.28125 
Q 10.40625 8.6875 15.234375 7.390625 
Q 20.0625 6.109375 24.8125 6.109375 
Q 31.15625 6.109375 34.5625 8.28125 
Q 37.984375 10.453125 37.984375 14.40625 
Q 37.984375 18.0625 35.515625 20.015625 
Q 33.0625 21.96875 24.703125 23.78125 
L 21.578125 24.515625 
Q 13.234375 26.265625 9.515625 29.90625 
Q 5.8125 33.546875 5.8125 39.890625 
Q 5.8125 47.609375 11.28125 51.796875 
Q 16.75 56 26.8125 56 
Q 31.78125 56 36.171875 55.265625 
Q 40.578125 54.546875 44.28125 53.078125 
z
" id="DejaVuSans-115"/>
      <path d="M 25.390625 72.90625 
L 33.6875 72.90625 
L 8.296875 -9.28125 
L 0 -9.28125 
z
" id="DejaVuSans-47"/>
      <path d="M 45.40625 46.390625 
L 45.40625 75.984375 
L 54.390625 75.984375 
L 54.390625 0 
L 45.40625 0 
L 45.40625 8.203125 
Q 42.578125 3.328125 38.25 0.953125 
Q 33.9375 -1.421875 27.875 -1.421875 
Q 17.96875 -1.421875 11.734375 6.484375 
Q 5.515625 14.40625 5.515625 27.296875 
Q 5.515625 40.1875 11.734375 48.09375 
Q 17.96875 56 27.875 56 
Q 33.9375 56 38.25 53.625 
Q 42.578125 51.265625 45.40625 46.390625 
z
M 14.796875 27.296875 
Q 14.796875 17.390625 18.875 11.75 
Q 22.953125 6.109375 30.078125 6.109375 
Q 37.203125 6.109375 41.296875 11.75 
Q 45.40625 17.390625 45.40625 27.296875 
Q 45.40625 37.203125 41.296875 42.84375 
Q 37.203125 48.484375 30.078125 48.484375 
Q 22.953125 48.484375 18.875 42.84375 
Q 14.796875 37.203125 14.796875 27.296875 
z
" id="DejaVuSans-100"/>
      <path d="M 9.421875 54.6875 
L 18.40625 54.6875 
L 18.40625 0 
L 9.421875 0 
z
M 9.421875 75.984375 
L 18.40625 75.984375 
L 18.40625 64.59375 
L 9.421875 64.59375 
z
" id="DejaVuSans-105"/>
      <path d="M 52 44.1875 
Q 55.375 50.25 60.0625 53.125 
Q 64.75 56 71.09375 56 
Q 79.640625 56 84.28125 50.015625 
Q 88.921875 44.046875 88.921875 33.015625 
L 88.921875 0 
L 79.890625 0 
L 79.890625 32.71875 
Q 79.890625 40.578125 77.09375 44.375 
Q 74.3125 48.1875 68.609375 48.1875 
Q 61.625 48.1875 57.5625 43.546875 
Q 53.515625 38.921875 53.515625 30.90625 
L 53.515625 0 
L 44.484375 0 
L 44.484375 32.71875 
Q 44.484375 40.625 41.703125 44.40625 
Q 38.921875 48.1875 33.109375 48.1875 
Q 26.21875 48.1875 22.15625 43.53125 
Q 18.109375 38.875 18.109375 30.90625 
L 18.109375 0 
L 9.078125 0 
L 9.078125 54.6875 
L 18.109375 54.6875 
L 18.109375 46.1875 
Q 21.1875 51.21875 25.484375 53.609375 
Q 29.78125 56 35.6875 56 
Q 41.65625 56 45.828125 52.96875 
Q 50 49.953125 52 44.1875 
z
" id="DejaVuSans-109"/>
      <path d="M 54.890625 33.015625 
L 54.890625 0 
L 45.90625 0 
L 45.90625 32.71875 
Q 45.90625 40.484375 42.875 44.328125 
Q 39.84375 48.1875 33.796875 48.1875 
Q 26.515625 48.1875 22.3125 43.546875 
Q 18.109375 38.921875 18.109375 30.90625 
L 18.109375 0 
L 9.078125 0 
L 9.078125 54.6875 
L 18.109375 54.6875 
L 18.109375 46.1875 
Q 21.34375 51.125 25.703125 53.5625 
Q 30.078125 56 35.796875 56 
Q 45.21875 56 50.046875 50.171875 
Q 54.890625 44.34375 54.890625 33.015625 
z
" id="DejaVuSans-110"/>
      <path d="M 8.015625 75.875 
L 15.828125 75.875 
Q 23.140625 64.359375 26.78125 53.3125 
Q 30.421875 42.28125 30.421875 31.390625 
Q 30.421875 20.453125 26.78125 9.375 
Q 23.140625 -1.703125 15.828125 -13.1875 
L 8.015625 -13.1875 
Q 14.5 -2 17.703125 9.0625 
Q 20.90625 20.125 20.90625 31.390625 
Q 20.90625 42.671875 17.703125 53.65625 
Q 14.5 64.65625 8.015625 75.875 
z
" id="DejaVuSans-41"/>
     </defs>
     <g transform="translate(77.303219 342.217594)scale(0.17 -0.17)">
      <use xlink:href="#DejaVuSans-108"/>
      <use x="27.783203" xlink:href="#DejaVuSans-111"/>
      <use x="88.964844" xlink:href="#DejaVuSans-103"/>
      <use x="152.441406" xlink:href="#DejaVuSans-49"/>
      <use x="216.064453" xlink:href="#DejaVuSans-48"/>
      <use x="279.6875" xlink:href="#DejaVuSans-40"/>
      <use x="318.701172" xlink:href="#DejaVuSans-35"/>
      <use x="402.490234" xlink:href="#DejaVuSans-32"/>
      <use x="434.277344" xlink:href="#DejaVuSans-102"/>
      <use x="469.404297" xlink:href="#DejaVuSans-45"/>
      <use x="505.488281" xlink:href="#DejaVuSans-101"/>
      <use x="567.011719" xlink:href="#DejaVuSans-118"/>
      <use x="626.191406" xlink:href="#DejaVuSans-97"/>
      <use x="687.470703" xlink:href="#DejaVuSans-108"/>
      <use x="715.253906" xlink:href="#DejaVuSans-115"/>
      <use x="767.353516" xlink:href="#DejaVuSans-32"/>
      <use x="799.140625" xlink:href="#DejaVuSans-47"/>
      <use x="832.832031" xlink:href="#DejaVuSans-32"/>
      <use x="864.619141" xlink:href="#DejaVuSans-100"/>
      <use x="928.095703" xlink:href="#DejaVuSans-105"/>
      <use x="955.878906" xlink:href="#DejaVuSans-109"/>
      <use x="1053.291016" xlink:href="#DejaVuSans-101"/>
      <use x="1114.814453" xlink:href="#DejaVuSans-110"/>
      <use x="1178.193359" xlink:href="#DejaVuSans-115"/>
      <use x="1230.292969" xlink:href="#DejaVuSans-105"/>
      <use x="1258.076172" xlink:href="#DejaVuSans-111"/>
      <use x="1319.257812" xlink:href="#DejaVuSans-110"/>
      <use x="1382.636719" xlink:href="#DejaVuSans-41"/>
     </g>
    </g>
   </g>
   <g id="matplotlib.axis_2">
    <g id="ytick_1">
     <g id="line2d_21">
      <path clip-path="url(#pacc79cb699)" d="M 57.6 298.944 
L 338.688 298.944 
" style="fill:none;stroke:#b0b0b0;stroke-linecap:square;stroke-width:0.8;"/>
     </g>
     <g id="line2d_22">
      <defs>
       <path d="M 0 0 
L -3.5 0 
" id="m0745045147" style="stroke:#000000;stroke-width:0.8;"/>
      </defs>
      <g>
       <use style="stroke:#000000;stroke-width:0.8;" x="57.6" xlink:href="#m0745045147" y="298.944"/>
      </g>
     </g>
     <g id="text_6">
      <!-- 0.0 -->
      <defs>
       <path d="M 10.6875 12.40625 
L 21 12.40625 
L 21 0 
L 10.6875 0 
z
" id="DejaVuSans-46"/>
      </defs>
      <g transform="translate(25.155 305.02275)scale(0.16 -0.16)">
       <use xlink:href="#DejaVuSans-48"/>
       <use x="63.623047" xlink:href="#DejaVuSans-46"/>
       <use x="95.410156" xlink:href="#DejaVuSans-48"/>
      </g>
     </g>
    </g>
    <g id="ytick_2">
     <g id="line2d_23">
      <path clip-path="url(#pacc79cb699)" d="M 57.6 240.431525 
L 338.688 240.431525 
" style="fill:none;stroke:#b0b0b0;stroke-linecap:square;stroke-width:0.8;"/>
     </g>
     <g id="line2d_24">
      <g>
       <use style="stroke:#000000;stroke-width:0.8;" x="57.6" xlink:href="#m0745045147" y="240.431525"/>
      </g>
     </g>
     <g id="text_7">
      <!-- 0.2 -->
      <g transform="translate(25.155 246.510275)scale(0.16 -0.16)">
       <use xlink:href="#DejaVuSans-48"/>
       <use x="63.623047" xlink:href="#DejaVuSans-46"/>
       <use x="95.410156" xlink:href="#DejaVuSans-50"/>
      </g>
     </g>
    </g>
    <g id="ytick_3">
     <g id="line2d_25">
      <path clip-path="url(#pacc79cb699)" d="M 57.6 181.91905 
L 338.688 181.91905 
" style="fill:none;stroke:#b0b0b0;stroke-linecap:square;stroke-width:0.8;"/>
     </g>
     <g id="line2d_26">
      <g>
       <use style="stroke:#000000;stroke-width:0.8;" x="57.6" xlink:href="#m0745045147" y="181.91905"/>
      </g>
     </g>
     <g id="text_8">
      <!-- 0.4 -->
      <g transform="translate(25.155 187.9978)scale(0.16 -0.16)">
       <use xlink:href="#DejaVuSans-48"/>
       <use x="63.623047" xlink:href="#DejaVuSans-46"/>
       <use x="95.410156" xlink:href="#DejaVuSans-52"/>
      </g>
     </g>
    </g>
    <g id="ytick_4">
     <g id="line2d_27">
      <path clip-path="url(#pacc79cb699)" d="M 57.6 123.406574 
L 338.688 123.406574 
" style="fill:none;stroke:#b0b0b0;stroke-linecap:square;stroke-width:0.8;"/>
     </g>
     <g id="line2d_28">
      <g>
       <use style="stroke:#000000;stroke-width:0.8;" x="57.6" xlink:href="#m0745045147" y="123.406574"/>
      </g>
     </g>
     <g id="text_9">
      <!-- 0.6 -->
      <g transform="translate(25.155 129.485324)scale(0.16 -0.16)">
       <use xlink:href="#DejaVuSans-48"/>
       <use x="63.623047" xlink:href="#DejaVuSans-46"/>
       <use x="95.410156" xlink:href="#DejaVuSans-54"/>
      </g>
     </g>
    </g>
    <g id="ytick_5">
     <g id="line2d_29">
      <path clip-path="url(#pacc79cb699)" d="M 57.6 64.894099 
L 338.688 64.894099 
" style="fill:none;stroke:#b0b0b0;stroke-linecap:square;stroke-width:0.8;"/>
     </g>
     <g id="line2d_30">
      <g>
       <use style="stroke:#000000;stroke-width:0.8;" x="57.6" xlink:href="#m0745045147" y="64.894099"/>
      </g>
     </g>
     <g id="text_10">
      <!-- 0.8 -->
      <defs>
       <path d="M 31.78125 34.625 
Q 24.75 34.625 20.71875 30.859375 
Q 16.703125 27.09375 16.703125 20.515625 
Q 16.703125 13.921875 20.71875 10.15625 
Q 24.75 6.390625 31.78125 6.390625 
Q 38.8125 6.390625 42.859375 10.171875 
Q 46.921875 13.96875 46.921875 20.515625 
Q 46.921875 27.09375 42.890625 30.859375 
Q 38.875 34.625 31.78125 34.625 
z
M 21.921875 38.8125 
Q 15.578125 40.375 12.03125 44.71875 
Q 8.5 49.078125 8.5 55.328125 
Q 8.5 64.0625 14.71875 69.140625 
Q 20.953125 74.21875 31.78125 74.21875 
Q 42.671875 74.21875 48.875 69.140625 
Q 55.078125 64.0625 55.078125 55.328125 
Q 55.078125 49.078125 51.53125 44.71875 
Q 48 40.375 41.703125 38.8125 
Q 48.828125 37.15625 52.796875 32.3125 
Q 56.78125 27.484375 56.78125 20.515625 
Q 56.78125 9.90625 50.3125 4.234375 
Q 43.84375 -1.421875 31.78125 -1.421875 
Q 19.734375 -1.421875 13.25 4.234375 
Q 6.78125 9.90625 6.78125 20.515625 
Q 6.78125 27.484375 10.78125 32.3125 
Q 14.796875 37.15625 21.921875 38.8125 
z
M 18.3125 54.390625 
Q 18.3125 48.734375 21.84375 45.5625 
Q 25.390625 42.390625 31.78125 42.390625 
Q 38.140625 42.390625 41.71875 45.5625 
Q 45.3125 48.734375 45.3125 54.390625 
Q 45.3125 60.0625 41.71875 63.234375 
Q 38.140625 66.40625 31.78125 66.40625 
Q 25.390625 66.40625 21.84375 63.234375 
Q 18.3125 60.0625 18.3125 54.390625 
z
" id="DejaVuSans-56"/>
      </defs>
      <g transform="translate(25.155 70.972849)scale(0.16 -0.16)">
       <use xlink:href="#DejaVuSans-48"/>
       <use x="63.623047" xlink:href="#DejaVuSans-46"/>
       <use x="95.410156" xlink:href="#DejaVuSans-56"/>
      </g>
     </g>
    </g>
    <g id="ytick_6">
     <g id="line2d_31">
      <path clip-path="url(#pacc79cb699)" d="M 57.6 6.381624 
L 338.688 6.381624 
" style="fill:none;stroke:#b0b0b0;stroke-linecap:square;stroke-width:0.8;"/>
     </g>
     <g id="line2d_32">
      <g>
       <use style="stroke:#000000;stroke-width:0.8;" x="57.6" xlink:href="#m0745045147" y="6.381624"/>
      </g>
     </g>
     <g id="text_11">
      <!-- 1.0 -->
      <g transform="translate(25.155 12.460374)scale(0.16 -0.16)">
       <use xlink:href="#DejaVuSans-49"/>
       <use x="63.623047" xlink:href="#DejaVuSans-46"/>
       <use x="95.410156" xlink:href="#DejaVuSans-48"/>
      </g>
     </g>
    </g>
    <g id="text_12">
     <!-- Fraction of function,target pairs -->
     <defs>
      <path d="M 9.8125 72.90625 
L 51.703125 72.90625 
L 51.703125 64.59375 
L 19.671875 64.59375 
L 19.671875 43.109375 
L 48.578125 43.109375 
L 48.578125 34.8125 
L 19.671875 34.8125 
L 19.671875 0 
L 9.8125 0 
z
" id="DejaVuSans-70"/>
      <path d="M 41.109375 46.296875 
Q 39.59375 47.171875 37.8125 47.578125 
Q 36.03125 48 33.890625 48 
Q 26.265625 48 22.1875 43.046875 
Q 18.109375 38.09375 18.109375 28.8125 
L 18.109375 0 
L 9.078125 0 
L 9.078125 54.6875 
L 18.109375 54.6875 
L 18.109375 46.1875 
Q 20.953125 51.171875 25.484375 53.578125 
Q 30.03125 56 36.53125 56 
Q 37.453125 56 38.578125 55.875 
Q 39.703125 55.765625 41.0625 55.515625 
z
" id="DejaVuSans-114"/>
      <path d="M 48.78125 52.59375 
L 48.78125 44.1875 
Q 44.96875 46.296875 41.140625 47.34375 
Q 37.3125 48.390625 33.40625 48.390625 
Q 24.65625 48.390625 19.8125 42.84375 
Q 14.984375 37.3125 14.984375 27.296875 
Q 14.984375 17.28125 19.8125 11.734375 
Q 24.65625 6.203125 33.40625 6.203125 
Q 37.3125 6.203125 41.140625 7.25 
Q 44.96875 8.296875 48.78125 10.40625 
L 48.78125 2.09375 
Q 45.015625 0.34375 40.984375 -0.53125 
Q 36.96875 -1.421875 32.421875 -1.421875 
Q 20.0625 -1.421875 12.78125 6.34375 
Q 5.515625 14.109375 5.515625 27.296875 
Q 5.515625 40.671875 12.859375 48.328125 
Q 20.21875 56 33.015625 56 
Q 37.15625 56 41.109375 55.140625 
Q 45.0625 54.296875 48.78125 52.59375 
z
" id="DejaVuSans-99"/>
      <path d="M 18.3125 70.21875 
L 18.3125 54.6875 
L 36.8125 54.6875 
L 36.8125 47.703125 
L 18.3125 47.703125 
L 18.3125 18.015625 
Q 18.3125 11.328125 20.140625 9.421875 
Q 21.96875 7.515625 27.59375 7.515625 
L 36.8125 7.515625 
L 36.8125 0 
L 27.59375 0 
Q 17.1875 0 13.234375 3.875 
Q 9.28125 7.765625 9.28125 18.015625 
L 9.28125 47.703125 
L 2.6875 47.703125 
L 2.6875 54.6875 
L 9.28125 54.6875 
L 9.28125 70.21875 
z
" id="DejaVuSans-116"/>
      <path d="M 8.5 21.578125 
L 8.5 54.6875 
L 17.484375 54.6875 
L 17.484375 21.921875 
Q 17.484375 14.15625 20.5 10.265625 
Q 23.53125 6.390625 29.59375 6.390625 
Q 36.859375 6.390625 41.078125 11.03125 
Q 45.3125 15.671875 45.3125 23.6875 
L 45.3125 54.6875 
L 54.296875 54.6875 
L 54.296875 0 
L 45.3125 0 
L 45.3125 8.40625 
Q 42.046875 3.421875 37.71875 1 
Q 33.40625 -1.421875 27.6875 -1.421875 
Q 18.265625 -1.421875 13.375 4.4375 
Q 8.5 10.296875 8.5 21.578125 
z
M 31.109375 56 
z
" id="DejaVuSans-117"/>
      <path d="M 11.71875 12.40625 
L 22.015625 12.40625 
L 22.015625 4 
L 14.015625 -11.625 
L 7.71875 -11.625 
L 11.71875 4 
z
" id="DejaVuSans-44"/>
      <path d="M 18.109375 8.203125 
L 18.109375 -20.796875 
L 9.078125 -20.796875 
L 9.078125 54.6875 
L 18.109375 54.6875 
L 18.109375 46.390625 
Q 20.953125 51.265625 25.265625 53.625 
Q 29.59375 56 35.59375 56 
Q 45.5625 56 51.78125 48.09375 
Q 58.015625 40.1875 58.015625 27.296875 
Q 58.015625 14.40625 51.78125 6.484375 
Q 45.5625 -1.421875 35.59375 -1.421875 
Q 29.59375 -1.421875 25.265625 0.953125 
Q 20.953125 3.328125 18.109375 8.203125 
z
M 48.6875 27.296875 
Q 48.6875 37.203125 44.609375 42.84375 
Q 40.53125 48.484375 33.40625 48.484375 
Q 26.265625 48.484375 22.1875 42.84375 
Q 18.109375 37.203125 18.109375 27.296875 
Q 18.109375 17.390625 22.1875 11.75 
Q 26.265625 6.109375 33.40625 6.109375 
Q 40.53125 6.109375 44.609375 11.75 
Q 48.6875 17.390625 48.6875 27.296875 
z
" id="DejaVuSans-112"/>
     </defs>
     <g transform="translate(17.619531 286.339375)rotate(-90)scale(0.17 -0.17)">
      <use xlink:href="#DejaVuSans-70"/>
      <use x="57.410156" xlink:href="#DejaVuSans-114"/>
      <use x="98.523438" xlink:href="#DejaVuSans-97"/>
      <use x="159.802734" xlink:href="#DejaVuSans-99"/>
      <use x="214.783203" xlink:href="#DejaVuSans-116"/>
      <use x="253.992188" xlink:href="#DejaVuSans-105"/>
      <use x="281.775391" xlink:href="#DejaVuSans-111"/>
      <use x="342.957031" xlink:href="#DejaVuSans-110"/>
      <use x="406.335938" xlink:href="#DejaVuSans-32"/>
      <use x="438.123047" xlink:href="#DejaVuSans-111"/>
      <use x="499.304688" xlink:href="#DejaVuSans-102"/>
      <use x="534.509766" xlink:href="#DejaVuSans-32"/>
      <use x="566.296875" xlink:href="#DejaVuSans-102"/>
      <use x="601.501953" xlink:href="#DejaVuSans-117"/>
      <use x="664.880859" xlink:href="#DejaVuSans-110"/>
      <use x="728.259766" xlink:href="#DejaVuSans-99"/>
      <use x="783.240234" xlink:href="#DejaVuSans-116"/>
      <use x="822.449219" xlink:href="#DejaVuSans-105"/>
      <use x="850.232422" xlink:href="#DejaVuSans-111"/>
      <use x="911.414062" xlink:href="#DejaVuSans-110"/>
      <use x="974.792969" xlink:href="#DejaVuSans-44"/>
      <use x="1006.580078" xlink:href="#DejaVuSans-116"/>
      <use x="1045.789062" xlink:href="#DejaVuSans-97"/>
      <use x="1107.068359" xlink:href="#DejaVuSans-114"/>
      <use x="1148.166016" xlink:href="#DejaVuSans-103"/>
      <use x="1211.642578" xlink:href="#DejaVuSans-101"/>
      <use x="1273.166016" xlink:href="#DejaVuSans-116"/>
      <use x="1312.375" xlink:href="#DejaVuSans-32"/>
      <use x="1344.162109" xlink:href="#DejaVuSans-112"/>
      <use x="1407.638672" xlink:href="#DejaVuSans-97"/>
      <use x="1468.917969" xlink:href="#DejaVuSans-105"/>
      <use x="1496.701172" xlink:href="#DejaVuSans-114"/>
      <use x="1537.814453" xlink:href="#DejaVuSans-115"/>
     </g>
    </g>
   </g>
   <g id="line2d_33">
    <defs>
     <path d="M 0 1.5 
C 0.397805 1.5 0.77937 1.341951 1.06066 1.06066 
C 1.341951 0.77937 1.5 0.397805 1.5 0 
C 1.5 -0.397805 1.341951 -0.77937 1.06066 -1.06066 
C 0.77937 -1.341951 0.397805 -1.5 0 -1.5 
C -0.397805 -1.5 -0.77937 -1.341951 -1.06066 -1.06066 
C -1.341951 -0.77937 -1.5 -0.397805 -1.5 0 
C -1.5 0.397805 -1.341951 0.77937 -1.06066 1.06066 
C -0.77937 1.341951 -0.397805 1.5 0 1.5 
z
" id="m82abb41c2c" style="stroke:#f5deb3;"/>
    </defs>
    <g>
     <use style="fill:#f5deb3;stroke:#f5deb3;" x="291.670325" xlink:href="#m82abb41c2c" y="41.690876"/>
     <use style="fill:#f5deb3;stroke:#f5deb3;" x="291.670325" xlink:href="#m82abb41c2c" y="41.690876"/>
    </g>
   </g>
   <g id="line2d_34">
    <defs>
     <path d="M 0 1.5 
C 0.397805 1.5 0.77937 1.341951 1.06066 1.06066 
C 1.341951 0.77937 1.5 0.397805 1.5 0 
C 1.5 -0.397805 1.341951 -0.77937 1.06066 -1.06066 
C 0.77937 -1.341951 0.397805 -1.5 0 -1.5 
C -0.397805 -1.5 -0.77937 -1.341951 -1.06066 -1.06066 
C -1.341951 -0.77937 -1.5 -0.397805 -1.5 0 
C -1.5 0.397805 -1.341951 0.77937 -1.06066 1.06066 
C -0.77937 1.341951 -0.397805 1.5 0 1.5 
z
" id="m640385b409" style="stroke:#000080;"/>
    </defs>
    <g>
     <use style="fill:#000080;stroke:#000080;" x="216.655018" xlink:href="#m640385b409" y="151.653976"/>
     <use style="fill:#000080;stroke:#000080;" x="216.655018" xlink:href="#m640385b409" y="151.653976"/>
    </g>
   </g>
   <g id="line2d_35">
    <path d="M 29.53256 298.944 
L 29.53256 293.395403 
L 48.691568 293.395403 
L 48.691568 291.125523 
L 65.796525 291.125523 
L 65.796525 290.873314 
L 72.867545 290.873314 
L 72.867545 289.864478 
L 75.555822 289.864478 
L 75.555822 288.099015 
L 81.775977 288.099015 
L 81.775977 287.846806 
L 85.66744 287.846806 
L 85.66744 287.594597 
L 86.351421 287.594597 
L 86.351421 287.09018 
L 88.846997 287.09018 
L 88.846997 286.333553 
L 89.418828 286.333553 
L 89.418828 285.829135 
L 89.972502 285.829135 
L 89.972502 285.576926 
L 92.026554 285.576926 
L 92.026554 285.072508 
L 92.969447 285.072508 
L 92.969447 284.063672 
L 93.422441 284.063672 
L 93.422441 283.307045 
L 94.714831 283.307045 
L 94.714831 281.541583 
L 95.125186 281.541583 
L 95.125186 281.289374 
L 95.526106 281.289374 
L 95.526106 280.280538 
L 96.301313 280.280538 
L 96.301313 279.77612 
L 96.676366 279.77612 
L 96.676366 278.262867 
L 97.043522 278.262867 
L 97.043522 274.731941 
L 97.403108 274.731941 
L 97.403108 272.462061 
L 97.755429 272.462061 
L 97.755429 271.957643 
L 98.43941 271.957643 
L 98.43941 270.948807 
L 99.41757 270.948807 
L 99.41757 270.696598 
L 99.731799 270.696598 
L 99.731799 270.444389 
L 100.040467 270.444389 
L 100.040467 268.174509 
L 101.785851 268.174509 
L 101.785851 266.409046 
L 102.597126 266.409046 
L 102.597126 265.148001 
L 102.859376 265.148001 
L 102.859376 264.895792 
L 103.117741 264.895792 
L 103.117741 264.391375 
L 103.372333 264.391375 
L 103.372333 263.634748 
L 103.870632 263.634748 
L 103.870632 263.382539 
L 104.826449 263.382539 
L 104.826449 261.112658 
L 105.951954 261.112658 
L 105.951954 260.860449 
L 106.802819 260.860449 
L 106.802819 260.103822 
L 107.811151 260.103822 
L 107.811151 259.851614 
L 108.198707 259.851614 
L 108.198707 259.599405 
L 108.389302 259.599405 
L 108.389302 259.347196 
L 108.577836 259.347196 
L 108.577836 258.842778 
L 108.764355 258.842778 
L 108.764355 258.590569 
L 108.948899 258.590569 
L 108.948899 258.086151 
L 109.31223 258.086151 
L 109.31223 257.329524 
L 109.668146 257.329524 
L 109.668146 256.825106 
L 110.016944 256.825106 
L 110.016944 256.320688 
L 110.188761 256.320688 
L 110.188761 254.303017 
L 110.527398 254.303017 
L 110.527398 253.798599 
L 111.346294 253.798599 
L 111.346294 252.033136 
L 111.663381 252.033136 
L 111.663381 250.519883 
L 111.819788 250.519883 
L 111.819788 250.015465 
L 111.974805 250.015465 
L 111.974805 249.511047 
L 112.128456 249.511047 
L 112.128456 248.75442 
L 112.280765 248.75442 
L 112.280765 247.997793 
L 113.022974 247.997793 
L 113.022974 247.241166 
L 113.311233 247.241166 
L 113.311233 246.736748 
L 113.873839 246.736748 
L 113.873839 246.484539 
L 114.0117 246.484539 
L 114.0117 246.23233 
L 114.148479 246.23233 
L 114.148479 245.475704 
L 114.284194 245.475704 
L 114.284194 245.223495 
L 114.418861 245.223495 
L 114.418861 244.719077 
L 114.685115 244.719077 
L 114.685115 243.96245 
L 115.205729 243.96245 
L 115.205729 243.205823 
L 115.33349 243.205823 
L 115.33349 242.449196 
L 115.460322 242.449196 
L 115.460322 242.196987 
L 115.586238 242.196987 
L 115.586238 241.944778 
L 115.711251 241.944778 
L 115.711251 241.440361 
L 116.323218 241.440361 
L 116.323218 240.683734 
L 116.562116 240.683734 
L 116.562116 240.179316 
L 117.145424 240.179316 
L 117.145424 237.909435 
L 117.820578 237.909435 
L 117.820578 237.152808 
L 118.470564 237.152808 
L 118.576578 236.143973 
L 118.681952 236.143973 
L 118.786692 235.387346 
L 118.890808 235.387346 
L 118.994305 234.37851 
L 119.301163 234.37851 
L 119.301163 234.126301 
L 119.502775 234.126301 
L 119.502775 233.621883 
L 119.702083 233.621883 
L 119.702083 233.117465 
L 120.190611 233.117465 
L 120.190611 232.613047 
L 120.47729 232.613047 
L 120.571812 232.10863 
L 120.852343 232.10863 
L 120.944859 231.352003 
L 121.036887 231.352003 
L 121.036887 230.847585 
L 121.219499 230.847585 
L 121.219499 230.595376 
L 121.489881 230.595376 
L 121.579085 229.838749 
L 121.756135 229.838749 
L 121.756135 229.58654 
L 122.276749 229.58654 
L 122.276749 229.082122 
L 122.782271 229.082122 
L 122.782271 228.577704 
L 123.354102 228.577704 
L 123.354102 228.325495 
L 123.514096 228.325495 
L 123.593547 227.064451 
L 123.985457 227.064451 
L 123.985457 226.812242 
L 124.292765 226.812242 
L 124.292765 226.307824 
L 124.594752 226.307824 
L 124.594752 225.803406 
L 125.183475 225.803406 
L 125.183475 225.298988 
L 125.327602 225.298988 
L 125.327602 225.046779 
L 125.541584 225.046779 
L 125.541584 224.79457 
L 126.439646 224.79457 
L 126.439646 224.542361 
L 126.70692 224.542361 
L 126.70692 224.290152 
L 127.100304 224.290152 
L 127.100304 224.037943 
L 127.54831 224.037943 
L 127.611382 223.533525 
L 127.799239 223.533525 
L 127.799239 222.776899 
L 128.229861 222.776899 
L 128.229861 222.272481 
L 128.350967 222.272481 
L 128.350967 222.020272 
L 128.768338 222.020272 
L 128.768338 221.768063 
L 128.944197 221.768063 
L 128.944197 221.515854 
L 129.118302 221.515854 
L 129.118302 220.759227 
L 129.347769 220.759227 
L 129.347769 220.0026 
L 129.853291 220.0026 
L 129.908566 218.993764 
L 130.127931 218.993764 
L 130.127931 218.489347 
L 130.344571 218.489347 
L 130.344571 217.984929 
L 130.664567 217.984929 
L 130.664567 217.73272 
L 131.389151 217.73272 
L 131.439773 216.723884 
L 131.640805 216.723884 
L 131.640805 215.967257 
L 131.888878 215.967257 
L 131.888878 215.715048 
L 132.181982 215.715048 
L 132.230358 214.958421 
L 134.407429 214.958421 
L 134.407429 214.454003 
L 134.577155 214.454003 
L 134.577155 214.201794 
L 135.602085 214.201794 
L 135.602085 213.192959 
L 135.839358 213.192959 
L 135.839358 212.94075 
L 136.073445 212.94075 
L 136.073445 212.184123 
L 136.380754 212.184123 
L 136.380754 211.931914 
L 136.905847 211.931914 
L 136.905847 211.427496 
L 137.162581 211.427496 
L 137.162581 211.175287 
L 137.945701 211.175287 
L 137.945701 210.923078 
L 139.188293 210.923078 
L 139.253002 210.166451 
L 139.445704 210.166451 
L 139.445704 209.914242 
L 140.042245 209.914242 
L 140.103868 208.905407 
L 141.119455 208.905407 
L 141.119455 208.653198 
L 141.885829 208.653198 
L 141.885829 208.14878 
L 143.451774 208.14878 
L 143.527762 207.392153 
L 143.628567 207.392153 
L 143.628567 207.139944 
L 143.778691 207.139944 
L 143.778691 206.887735 
L 144.269971 206.887735 
L 144.294175 206.131108 
L 144.93531 206.131108 
L 144.93531 205.878899 
L 145.074639 205.878899 
L 145.074639 205.374481 
L 145.418169 205.374481 
L 145.418169 205.122272 
L 146.194362 205.122272 
L 146.194362 204.870064 
L 146.452726 204.870064 
L 146.452726 204.617855 
L 146.728368 204.617855 
L 146.728368 204.365646 
L 147.749695 204.365646 
L 147.749695 204.113437 
L 148.025265 204.113437 
L 148.025265 203.861228 
L 148.334961 203.861228 
L 148.334961 203.609019 
L 148.993835 203.609019 
L 148.993835 203.35681 
L 149.141003 203.35681 
L 149.141003 203.104601 
L 150.56505 203.104601 
L 150.56505 202.852392 
L 151.178764 202.852392 
L 151.178764 202.600183 
L 151.645126 202.600183 
L 151.645126 202.095765 
L 152.707042 202.095765 
L 152.707042 201.843556 
L 152.885298 201.843556 
L 152.885298 201.339138 
L 153.693887 201.339138 
L 153.693887 201.086929 
L 153.918189 201.086929 
L 153.918189 200.582511 
L 154.641235 200.582511 
L 154.694607 199.573676 
L 154.800864 199.573676 
L 154.800864 199.321467 
L 155.335493 199.321467 
L 155.373976 198.312631 
L 155.501643 198.312631 
L 155.501643 198.060422 
L 155.754208 198.060422 
L 155.841748 197.303795 
L 155.953659 197.303795 
L 155.953659 197.051586 
L 156.163105 197.051586 
L 156.163105 196.799377 
L 156.502685 196.799377 
L 156.502685 196.547168 
L 157.266399 196.547168 
L 157.266399 196.294959 
L 157.403807 196.294959 
L 157.403807 195.790541 
L 158.304027 195.790541 
L 158.304027 195.286124 
L 158.551397 195.286124 
L 158.551397 194.529497 
L 159.004665 194.529497 
L 159.004665 194.277288 
L 159.17036 194.277288 
L 159.17036 194.025079 
L 159.557689 194.025079 
L 159.557689 193.520661 
L 160.585265 193.520661 
L 160.585265 193.268452 
L 160.952025 193.268452 
L 160.952025 193.016243 
L 161.146363 193.016243 
L 161.146363 192.511825 
L 162.199823 192.511825 
L 162.199823 192.259616 
L 162.363654 192.259616 
L 162.363654 192.007407 
L 163.323704 192.007407 
L 163.323704 191.755198 
L 163.485404 191.755198 
L 163.565696 190.998572 
L 164.109855 190.998572 
L 164.109855 190.746363 
L 166.261982 190.746363 
L 166.337313 189.737527 
L 166.534369 189.737527 
L 166.534369 189.485318 
L 168.029248 189.485318 
L 168.029248 188.9809 
L 168.159001 188.9809 
L 168.226583 187.467646 
L 168.554604 187.467646 
L 168.656606 185.197766 
L 168.698434 185.197766 
L 168.698434 184.945557 
L 168.82332 184.945557 
L 168.82332 183.936721 
L 169.122941 183.936721 
L 169.215888 183.180094 
L 169.914348 183.180094 
L 169.97547 182.171258 
L 170.080543 182.171258 
L 170.080543 181.91905 
L 170.489231 181.91905 
L 170.505381 181.162423 
L 170.835842 181.162423 
L 170.835842 180.910214 
L 172.171924 180.910214 
L 172.171924 180.658005 
L 172.60183 180.658005 
L 172.60183 180.153587 
L 172.829364 180.153587 
L 172.829364 179.649169 
L 173.183662 179.649169 
L 173.183662 179.144751 
L 173.458374 179.144751 
L 173.535429 178.640333 
L 175.872598 178.640333 
L 175.872598 178.388124 
L 176.321636 178.388124 
L 176.333197 177.631497 
L 176.634902 177.631497 
L 176.634902 177.12708 
L 176.901672 177.12708 
L 176.976088 176.118244 
L 177.105556 176.118244 
L 177.208443 175.361617 
L 177.237728 175.361617 
L 177.237728 175.109408 
L 178.097648 175.109408 
L 178.181007 174.352781 
L 178.943705 174.352781 
L 179.006609 173.596154 
L 179.121894 173.596154 
L 179.121894 173.343945 
L 180.243911 173.343945 
L 180.243911 173.091736 
L 180.415456 173.091736 
L 180.415456 172.839527 
L 183.652835 172.839527 
L 183.652835 172.33511 
L 184.035966 172.33511 
L 184.124904 171.326274 
L 184.171662 171.326274 
L 184.257467 170.317438 
L 184.435085 170.317438 
L 184.512379 169.056393 
L 184.594129 169.056393 
L 184.639647 168.299766 
L 184.737466 168.299766 
L 184.737466 168.047558 
L 184.891431 168.047558 
L 184.891431 167.795349 
L 185.097732 167.795349 
L 185.137306 166.786513 
L 185.220814 166.786513 
L 185.24394 166.282095 
L 185.430138 166.282095 
L 185.430138 166.029886 
L 186.646581 166.029886 
L 186.687051 165.273259 
L 187.369232 165.273259 
L 187.424384 164.516632 
L 187.53822 164.516632 
L 187.53822 164.264423 
L 187.928915 164.264423 
L 187.928915 164.012214 
L 188.565051 164.012214 
L 188.631784 162.246752 
L 188.792796 162.246752 
L 188.792796 161.742334 
L 189.38414 161.742334 
L 189.491347 160.985707 
L 191.589824 160.985707 
L 191.589824 160.733498 
L 191.857587 160.733498 
L 191.857587 160.481289 
L 192.374944 160.481289 
L 192.374944 159.976871 
L 192.708 159.976871 
L 192.708 159.472453 
L 192.849027 159.472453 
L 192.849027 159.220244 
L 193.268311 159.220244 
L 193.335284 158.463618 
L 193.505919 158.463618 
L 193.505919 158.211409 
L 194.551737 158.211409 
L 194.565285 157.706991 
L 195.303713 157.706991 
L 195.303713 157.454782 
L 196.601572 157.454782 
L 196.601572 157.202573 
L 196.973522 157.202573 
L 196.973522 156.698155 
L 197.55125 156.698155 
L 197.55125 156.445946 
L 198.281997 156.445946 
L 198.281997 155.941528 
L 198.716434 155.941528 
L 198.716434 155.43711 
L 199.22345 155.43711 
L 199.22345 155.184901 
L 200.785304 155.184901 
L 200.785304 154.680483 
L 205.027184 154.680483 
L 205.027184 154.428274 
L 205.811275 154.428274 
L 205.811275 154.176066 
L 206.204733 154.176066 
L 206.204733 153.671648 
L 210.425704 153.671648 
L 210.425704 153.16723 
L 210.843337 153.16723 
L 210.843337 152.915021 
L 212.518979 152.915021 
L 212.518979 152.158394 
L 216.655018 152.158394 
L 216.655018 151.653976 
L 338.688 151.653976 
L 338.688 151.653976 
" style="fill:none;stroke:#000080;stroke-linecap:square;stroke-width:1.5;"/>
   </g>
   <g id="line2d_36">
    <defs>
     <path d="M 0 6 
C 1.591219 6 3.117479 5.367802 4.242641 4.242641 
C 5.367802 3.117479 6 1.591219 6 0 
C 6 -1.591219 5.367802 -3.117479 4.242641 -4.242641 
C 3.117479 -5.367802 1.591219 -6 0 -6 
C -1.591219 -6 -3.117479 -5.367802 -4.242641 -4.242641 
C -5.367802 -3.117479 -6 -1.591219 -6 0 
C -6 1.591219 -5.367802 3.117479 -4.242641 4.242641 
C -3.117479 5.367802 -1.591219 6 0 6 
z
" id="mb3224e2f5a" style="stroke:#000080;stroke-width:1.5;"/>
    </defs>
    <g>
     <use style="fill-opacity:0;stroke:#000080;stroke-width:1.5;" x="96.676366" xlink:href="#mb3224e2f5a" y="279.77612"/>
     <use style="fill-opacity:0;stroke:#000080;stroke-width:1.5;" x="139.445704" xlink:href="#mb3224e2f5a" y="209.914242"/>
     <use style="fill-opacity:0;stroke:#000080;stroke-width:1.5;" x="188.626074" xlink:href="#mb3224e2f5a" y="162.75117"/>
     <use style="fill-opacity:0;stroke:#000080;stroke-width:1.5;" x="216.655018" xlink:href="#mb3224e2f5a" y="151.653976"/>
     <use style="fill-opacity:0;stroke:#000080;stroke-width:1.5;" x="216.655018" xlink:href="#mb3224e2f5a" y="151.653976"/>
     <use style="fill-opacity:0;stroke:#000080;stroke-width:1.5;" x="338.688" xlink:href="#mb3224e2f5a" y="151.653976"/>
    </g>
   </g>
   <g id="line2d_37">
    <path style="fill:none;stroke:#000080;stroke-linecap:square;stroke-width:1.5;"/>
    <g/>
   </g>
   <g id="line2d_38">
    <path clip-path="url(#pacc79cb699)" d="M 218.223458 151.653976 
" style="fill:none;stroke:#000080;stroke-linecap:square;stroke-width:1.5;"/>
    <defs>
     <path d="M -12 12 
L 12 -12 
M -12 -12 
L 12 12 
" id="m12c6195e00" style="stroke:#000080;"/>
    </defs>
    <g clip-path="url(#pacc79cb699)">
     <use style="fill:#000080;stroke:#000080;" x="218.223458" xlink:href="#m12c6195e00" y="151.653976"/>
    </g>
   </g>
   <g id="line2d_39">
    <defs>
     <path d="M 0 1.5 
C 0.397805 1.5 0.77937 1.341951 1.06066 1.06066 
C 1.341951 0.77937 1.5 0.397805 1.5 0 
C 1.5 -0.397805 1.341951 -0.77937 1.06066 -1.06066 
C 0.77937 -1.341951 0.397805 -1.5 0 -1.5 
C -0.397805 -1.5 -0.77937 -1.341951 -1.06066 -1.06066 
C -1.341951 -0.77937 -1.5 -0.397805 -1.5 0 
C -1.5 0.397805 -1.341951 0.77937 -1.06066 1.06066 
C -0.77937 1.341951 -0.397805 1.5 0 1.5 
z
" id="ma21ee5a48a" style="stroke:#ff00ff;"/>
    </defs>
    <g>
     <use style="fill:#ff00ff;stroke:#ff00ff;" x="209.476446" xlink:href="#ma21ee5a48a" y="175.613826"/>
     <use style="fill:#ff00ff;stroke:#ff00ff;" x="209.476446" xlink:href="#ma21ee5a48a" y="175.613826"/>
    </g>
   </g>
   <g id="line2d_40">
    <path d="M 29.53256 298.944 
L 29.53256 293.395403 
L 63.467834 293.395403 
L 63.467834 293.143194 
L 69.687988 293.143194 
L 69.687988 292.890985 
L 71.35013 292.890985 
L 71.35013 292.134358 
L 72.867545 292.134358 
L 72.867545 290.116687 
L 78.941764 290.116687 
L 78.941764 289.612269 
L 79.938565 289.612269 
L 79.938565 289.36006 
L 80.881459 289.36006 
L 80.881459 289.107851 
L 82.626842 289.107851 
L 82.626842 288.855642 
L 83.438118 288.855642 
L 83.438118 288.603433 
L 87.009585 288.603433 
L 87.009585 288.351224 
L 88.846997 288.351224 
L 88.846997 287.342389 
L 89.972502 287.342389 
L 89.972502 286.081344 
L 90.509138 286.081344 
L 90.509138 285.829135 
L 92.026554 285.829135 
L 92.026554 285.324717 
L 92.969447 285.324717 
L 92.969447 284.315881 
L 93.422441 284.315881 
L 93.422441 281.541583 
L 94.294587 281.541583 
L 94.294587 281.037165 
L 95.125186 281.037165 
L 95.125186 280.784956 
L 96.301313 280.784956 
L 96.301313 279.77612 
L 96.676366 279.77612 
L 96.676366 278.767284 
L 97.043522 278.767284 
L 97.043522 277.758449 
L 98.43941 277.758449 
L 98.43941 277.001822 
L 99.41757 277.001822 
L 99.41757 276.749613 
L 99.731799 276.749613 
L 99.731799 276.497404 
L 100.040467 276.497404 
L 100.040467 273.975314 
L 100.641881 273.975314 
L 100.641881 273.470897 
L 101.506816 273.470897 
L 101.506816 273.218688 
L 101.785851 273.218688 
L 101.785851 272.966479 
L 102.330873 272.966479 
L 102.330873 272.462061 
L 102.597126 272.462061 
L 102.597126 272.209852 
L 103.117741 272.209852 
L 103.117741 271.957643 
L 103.623262 271.957643 
L 103.623262 271.453225 
L 104.114542 271.453225 
L 104.114542 270.948807 
L 104.592361 270.948807 
L 104.592361 270.444389 
L 104.826449 270.444389 
L 104.826449 267.670091 
L 105.285403 267.670091 
L 105.285403 267.165673 
L 105.732589 267.165673 
L 105.732589 266.409046 
L 106.168594 266.409046 
L 106.168594 266.156837 
L 106.382575 266.156837 
L 106.382575 265.652419 
L 106.593963 265.652419 
L 106.593963 265.40021 
L 106.802819 265.40021 
L 106.802819 264.391375 
L 107.009204 264.391375 
L 107.009204 263.382539 
L 107.414787 263.382539 
L 107.414787 262.121494 
L 107.614095 262.121494 
L 107.614095 261.617076 
L 107.811151 261.617076 
L 107.811151 261.364867 
L 108.198707 261.364867 
L 108.198707 260.356031 
L 108.389302 260.356031 
L 108.389302 259.851614 
L 108.577836 259.851614 
L 108.577836 258.590569 
L 108.948899 258.590569 
L 108.948899 258.33836 
L 109.31223 258.33836 
L 109.31223 258.086151 
L 109.491096 258.086151 
L 109.491096 257.833942 
L 109.668146 257.833942 
L 109.668146 257.581733 
L 110.188761 257.581733 
L 110.188761 255.81627 
L 110.358901 255.81627 
L 110.358901 255.564061 
L 110.527398 255.564061 
L 110.527398 254.807435 
L 110.859585 254.807435 
L 110.859585 253.294181 
L 111.023335 253.294181 
L 111.023335 253.041972 
L 111.185562 253.041972 
L 111.185562 252.537554 
L 111.663381 252.537554 
L 111.663381 252.033136 
L 111.819788 252.033136 
L 111.819788 251.780927 
L 112.280765 251.780927 
L 112.280765 251.276509 
L 112.431755 251.276509 
L 112.431755 250.772091 
L 112.58145 250.772091 
L 112.58145 250.519883 
L 113.022974 250.519883 
L 113.022974 250.015465 
L 113.311233 250.015465 
L 113.311233 249.763256 
L 114.148479 249.763256 
L 114.148479 249.006629 
L 114.418861 249.006629 
L 114.418861 247.997793 
L 114.685115 247.997793 
L 114.685115 247.745584 
L 114.947365 247.745584 
L 114.947365 246.988957 
L 115.077025 246.988957 
L 115.077025 245.223495 
L 115.586238 245.223495 
L 115.586238 244.971286 
L 116.081002 244.971286 
L 116.081002 244.466868 
L 116.562116 244.466868 
L 116.562116 243.710241 
L 117.145424 243.710241 
L 117.145424 243.458032 
L 117.373392 243.458032 
L 117.373392 243.205823 
L 117.598418 243.205823 
L 117.598418 242.196987 
L 117.709852 242.196987 
L 117.709852 241.944778 
L 118.039942 241.944778 
L 118.039942 241.440361 
L 118.681952 241.440361 
L 118.786692 240.935943 
L 119.097192 240.935943 
L 119.199476 240.431525 
L 119.301163 240.431525 
L 119.40226 239.674898 
L 119.502775 239.674898 
L 119.502775 239.422689 
L 119.80089 239.422689 
L 119.89914 238.161644 
L 120.093994 238.161644 
L 120.190611 237.152808 
L 120.382253 237.152808 
L 120.382253 236.648391 
L 120.944859 236.648391 
L 120.944859 236.396182 
L 121.219499 236.396182 
L 121.310093 235.639555 
L 121.579085 235.639555 
L 121.579085 235.387346 
L 122.018385 235.387346 
L 122.018385 235.135137 
L 122.191052 235.135137 
L 122.191052 234.882928 
L 122.531342 234.882928 
L 122.615387 234.37851 
L 123.029641 234.37851 
L 123.111324 233.621883 
L 123.751369 233.621883 
L 123.751369 233.117465 
L 123.985457 233.117465 
L 123.985457 232.865256 
L 124.368753 232.865256 
L 124.444412 232.360839 
L 124.594752 232.360839 
L 124.594752 231.856421 
L 125.110962 231.856421 
L 125.110962 231.604212 
L 125.255688 231.604212 
L 125.255688 230.847585 
L 125.682793 230.847585 
L 125.682793 230.595376 
L 126.372183 230.595376 
L 126.372183 230.090958 
L 126.773103 230.090958 
L 126.773103 229.838749 
L 126.904721 229.838749 
L 126.97016 228.829913 
L 127.165014 228.829913 
L 127.165014 228.325495 
L 127.293718 228.325495 
L 127.293718 228.073286 
L 127.674226 228.073286 
L 127.674226 227.568869 
L 128.471239 227.568869 
L 128.471239 227.31666 
L 128.650105 227.31666 
L 128.709321 226.560033 
L 128.827155 226.560033 
L 128.885774 225.551197 
L 129.06046 225.551197 
L 129.118302 224.290152 
L 129.404667 224.290152 
L 129.404667 224.037943 
L 129.630422 224.037943 
L 129.630422 223.533525 
L 129.908566 223.533525 
L 130.018593 222.776899 
L 130.344571 222.776899 
L 130.45189 222.020272 
L 130.505303 222.020272 
L 130.61164 221.263645 
L 131.338382 221.263645 
L 131.439773 220.254809 
L 131.590764 220.254809 
L 131.590764 219.750391 
L 132.230358 219.750391 
L 132.326708 218.237138 
L 132.470242 218.237138 
L 132.565279 216.976093 
L 132.80063 216.976093 
L 132.893889 216.471675 
L 133.078923 216.471675 
L 133.078923 216.219466 
L 133.622529 216.219466 
L 133.622529 215.967257 
L 134.106373 215.967257 
L 134.192921 214.706212 
L 134.279041 214.706212 
L 134.279041 214.454003 
L 134.407429 214.454003 
L 134.450015 213.949586 
L 134.787017 213.949586 
L 134.787017 213.445168 
L 134.911732 213.445168 
L 134.911732 213.192959 
L 135.240011 213.192959 
L 135.240011 212.436332 
L 135.482227 212.436332 
L 135.482227 211.931914 
L 135.721125 211.931914 
L 135.721125 211.427496 
L 135.956794 211.427496 
L 136.034648 210.923078 
L 136.418789 210.923078 
L 136.456742 210.166451 
L 136.607732 210.166451 
L 136.607732 208.905407 
L 137.053015 208.905407 
L 137.053015 208.653198 
L 137.235245 208.653198 
L 137.235245 208.14878 
L 137.48721 208.14878 
L 137.48721 207.896571 
L 139.090775 207.896571 
L 139.090775 207.392153 
L 139.980403 207.392153 
L 139.980403 207.139944 
L 140.226464 207.139944 
L 140.226464 206.635526 
L 140.678675 206.635526 
L 140.678675 206.383317 
L 141.032186 206.383317 
L 141.032186 206.131108 
L 141.605898 206.131108 
L 141.605898 205.878899 
L 142.378651 205.878899 
L 142.378651 205.374481 
L 142.778958 205.374481 
L 142.778958 205.122272 
L 143.196061 205.122272 
L 143.196061 204.870064 
L 143.628567 204.870064 
L 143.628567 204.617855 
L 144.510517 204.617855 
L 144.53439 204.113437 
L 145.643486 204.113437 
L 145.643486 203.861228 
L 146.495417 203.861228 
L 146.580487 203.104601 
L 147.530079 203.104601 
L 147.530079 202.852392 
L 147.809113 202.852392 
L 147.809113 202.600183 
L 148.27731 202.600183 
L 148.296548 202.095765 
L 148.392421 202.095765 
L 148.411533 201.339138 
L 148.563676 201.339138 
L 148.582601 200.330302 
L 148.714503 200.330302 
L 148.714503 200.078094 
L 148.975352 200.078094 
L 149.049169 199.321467 
L 149.286939 199.321467 
L 149.286939 198.56484 
L 149.735275 198.56484 
L 149.735275 198.060422 
L 149.963932 198.060422 
L 149.963932 197.556004 
L 150.241302 197.556004 
L 150.241302 197.303795 
L 150.480434 197.303795 
L 150.480434 197.051586 
L 151.195055 197.051586 
L 151.195055 196.799377 
L 151.389366 196.799377 
L 151.389366 196.547168 
L 151.708484 196.547168 
L 151.708484 196.04275 
L 152.840905 196.04275 
L 152.840905 195.538333 
L 153.061751 195.538333 
L 153.061751 195.286124 
L 154.043103 195.286124 
L 154.043103 194.781706 
L 155.322646 194.781706 
L 155.322646 194.529497 
L 156.040206 194.529497 
L 156.040206 194.277288 
L 157.139484 194.277288 
L 157.139484 193.77287 
L 157.697862 193.77287 
L 157.787352 192.764034 
L 158.260646 192.764034 
L 158.260646 192.511825 
L 158.583406 192.511825 
L 158.583406 192.259616 
L 158.942121 192.259616 
L 158.942121 192.007407 
L 160.054568 192.007407 
L 160.054568 191.755198 
L 161.402155 191.755198 
L 161.402155 191.25078 
L 162.406513 191.25078 
L 162.406513 190.998572 
L 163.461244 190.998572 
L 163.469301 190.241945 
L 165.024937 190.241945 
L 165.024937 189.737527 
L 165.157053 189.737527 
L 165.157053 189.485318 
L 166.432722 189.485318 
L 166.432722 188.9809 
L 167.151695 188.9809 
L 167.151695 188.728691 
L 167.506754 188.728691 
L 167.506754 188.224273 
L 167.621403 188.224273 
L 167.621403 187.972064 
L 168.287795 187.972064 
L 168.287795 187.467646 
L 168.876569 187.467646 
L 168.876569 187.215437 
L 169.813865 187.215437 
L 169.813865 186.963228 
L 172.186589 186.963228 
L 172.269459 186.458811 
L 172.644719 186.458811 
L 172.720707 185.702184 
L 173.114303 185.702184 
L 173.179047 185.197766 
L 173.257343 185.197766 
L 173.303236 184.693348 
L 174.37423 184.693348 
L 174.37423 184.441139 
L 174.592679 184.441139 
L 174.592679 183.936721 
L 174.825234 183.936721 
L 174.825234 183.684512 
L 175.112667 183.684512 
L 175.112667 183.432303 
L 175.761495 183.432303 
L 175.761495 183.180094 
L 177.336204 183.180094 
L 177.434127 182.675676 
L 178.215622 182.675676 
L 178.250169 182.171258 
L 179.072579 182.171258 
L 179.072579 181.666841 
L 179.346962 181.666841 
L 179.346962 181.414632 
L 179.655346 181.414632 
L 179.655346 181.162423 
L 183.057949 181.162423 
L 183.057949 180.658005 
L 184.784985 180.658005 
L 184.784985 180.405796 
L 185.787717 180.405796 
L 185.787717 179.901378 
L 186.757118 179.901378 
L 186.757118 179.39696 
L 189.188016 179.39696 
L 189.188016 178.892542 
L 189.475036 178.892542 
L 189.475036 178.640333 
L 193.117409 178.640333 
L 193.117409 178.388124 
L 193.293092 178.388124 
L 193.293092 178.135915 
L 194.266166 178.135915 
L 194.266166 177.631497 
L 196.475805 177.631497 
L 196.475805 177.379288 
L 199.453128 177.379288 
L 199.453128 176.874871 
L 200.909044 176.874871 
L 200.909044 176.622662 
L 207.767306 176.622662 
L 207.767306 176.370453 
L 208.59532 176.370453 
L 208.59532 176.118244 
L 209.476446 176.118244 
L 209.476446 175.613826 
L 338.688 175.613826 
L 338.688 175.613826 
" style="fill:none;stroke:#ff00ff;stroke-linecap:square;stroke-width:1.5;"/>
   </g>
   <g id="line2d_41">
    <defs>
     <path d="M 0 8.485281 
L 5.091169 0 
L 0 -8.485281 
L -5.091169 0 
z
" id="m5706b44346" style="stroke:#ff00ff;stroke-linejoin:miter;stroke-width:1.5;"/>
    </defs>
    <g>
     <use style="fill-opacity:0;stroke:#ff00ff;stroke-linejoin:miter;stroke-width:1.5;" x="117.145424" xlink:href="#m5706b44346" y="243.458032"/>
     <use style="fill-opacity:0;stroke:#ff00ff;stroke-linejoin:miter;stroke-width:1.5;" x="163.469301" xlink:href="#m5706b44346" y="190.241945"/>
     <use style="fill-opacity:0;stroke:#ff00ff;stroke-linejoin:miter;stroke-width:1.5;" x="209.476446" xlink:href="#m5706b44346" y="176.118244"/>
     <use style="fill-opacity:0;stroke:#ff00ff;stroke-linejoin:miter;stroke-width:1.5;" x="209.476446" xlink:href="#m5706b44346" y="175.613826"/>
     <use style="fill-opacity:0;stroke:#ff00ff;stroke-linejoin:miter;stroke-width:1.5;" x="209.476446" xlink:href="#m5706b44346" y="175.613826"/>
     <use style="fill-opacity:0;stroke:#ff00ff;stroke-linejoin:miter;stroke-width:1.5;" x="338.688" xlink:href="#m5706b44346" y="175.613826"/>
    </g>
   </g>
   <g id="line2d_42">
    <path style="fill:none;stroke:#ff00ff;stroke-linecap:square;stroke-width:1.5;"/>
    <g/>
   </g>
   <g id="line2d_43">
    <path clip-path="url(#pacc79cb699)" d="M 218.223109 175.613826 
" style="fill:none;stroke:#ff00ff;stroke-linecap:square;stroke-width:1.5;"/>
    <defs>
     <path d="M -12 12 
L 12 -12 
M -12 -12 
L 12 12 
" id="ma3645e2f29" style="stroke:#ff00ff;"/>
    </defs>
    <g clip-path="url(#pacc79cb699)">
     <use style="fill:#ff00ff;stroke:#ff00ff;" x="218.223109" xlink:href="#ma3645e2f29" y="175.613826"/>
    </g>
   </g>
   <g id="line2d_44">
    <defs>
     <path d="M 0 1.5 
C 0.397805 1.5 0.77937 1.341951 1.06066 1.06066 
C 1.341951 0.77937 1.5 0.397805 1.5 0 
C 1.5 -0.397805 1.341951 -0.77937 1.06066 -1.06066 
C 0.77937 -1.341951 0.397805 -1.5 0 -1.5 
C -0.397805 -1.5 -0.77937 -1.341951 -1.06066 -1.06066 
C -1.341951 -0.77937 -1.5 -0.397805 -1.5 0 
C -1.5 0.397805 -1.341951 0.77937 -1.06066 1.06066 
C -0.77937 1.341951 -0.397805 1.5 0 1.5 
z
" id="md42689d862" style="stroke:#ffa500;"/>
    </defs>
    <g>
     <use style="fill:#ffa500;stroke:#ffa500;" x="226.71093" xlink:href="#md42689d862" y="171.326274"/>
     <use style="fill:#ffa500;stroke:#ffa500;" x="226.71093" xlink:href="#md42689d862" y="171.326274"/>
    </g>
   </g>
   <g id="line2d_45">
    <path d="M 29.53256 298.944 
L 29.53256 293.395403 
L 48.691568 293.395403 
L 48.691568 292.890985 
L 57.6 292.890985 
L 57.6 292.386567 
L 65.796525 292.386567 
L 65.796525 292.134358 
L 67.850577 292.134358 
L 67.850577 291.377732 
L 72.867545 291.377732 
L 72.867545 289.864478 
L 75.555822 289.864478 
L 75.555822 289.612269 
L 76.759008 289.612269 
L 76.759008 288.855642 
L 78.941764 288.855642 
L 78.941764 287.846806 
L 82.626842 287.846806 
L 82.626842 287.09018 
L 83.438118 287.09018 
L 83.438118 286.837971 
L 84.955534 286.837971 
L 84.955534 285.576926 
L 86.351421 285.576926 
L 86.351421 285.324717 
L 87.643811 285.324717 
L 87.643811 284.56809 
L 88.846997 284.56809 
L 88.846997 283.559254 
L 89.418828 283.559254 
L 89.418828 283.307045 
L 93.422441 283.307045 
L 93.422441 281.289374 
L 97.043522 281.289374 
L 97.043522 280.784956 
L 97.403108 280.784956 
L 97.403108 279.523911 
L 98.43941 279.523911 
L 98.43941 279.019493 
L 99.097574 279.019493 
L 99.097574 278.767284 
L 99.41757 278.767284 
L 99.41757 278.010658 
L 100.040467 278.010658 
L 100.040467 277.254031 
L 101.223245 277.254031 
L 101.223245 276.497404 
L 101.506816 276.497404 
L 101.506816 275.488568 
L 102.597126 275.488568 
L 102.597126 274.98415 
L 102.859376 274.98415 
L 102.859376 274.731941 
L 104.826449 274.731941 
L 104.826449 273.975314 
L 105.51043 273.975314 
L 105.51043 271.705434 
L 106.802819 271.705434 
L 106.802819 267.165673 
L 107.213174 267.165673 
L 107.213174 265.652419 
L 108.006005 265.652419 
L 108.006005 265.40021 
L 108.577836 265.40021 
L 108.577836 264.643583 
L 108.948899 264.643583 
L 108.948899 263.886957 
L 109.131511 263.886957 
L 109.131511 263.13033 
L 109.31223 263.13033 
L 109.31223 262.878121 
L 109.668146 262.878121 
L 109.668146 262.373703 
L 109.843417 262.373703 
L 109.843417 262.121494 
L 110.188761 262.121494 
L 110.188761 257.329524 
L 110.527398 257.329524 
L 110.527398 257.077315 
L 110.859585 257.077315 
L 110.859585 256.320688 
L 111.185562 256.320688 
L 111.185562 256.068479 
L 111.346294 256.068479 
L 111.346294 255.81627 
L 111.663381 255.81627 
L 111.663381 254.303017 
L 111.974805 254.303017 
L 111.974805 254.050808 
L 112.128456 254.050808 
L 112.128456 252.789763 
L 112.72987 252.789763 
L 112.72987 252.537554 
L 113.022974 252.537554 
L 113.022974 252.033136 
L 113.73488 252.033136 
L 113.73488 251.276509 
L 114.418861 251.276509 
L 114.418861 251.0243 
L 114.552496 251.0243 
L 114.552496 250.519883 
L 114.685115 250.519883 
L 114.685115 250.267674 
L 114.816733 250.267674 
L 114.816733 249.763256 
L 114.947365 249.763256 
L 114.947365 249.511047 
L 115.460322 249.511047 
L 115.460322 248.75442 
L 115.586238 248.75442 
L 115.586238 248.502211 
L 115.711251 248.502211 
L 115.711251 247.745584 
L 116.081002 247.745584 
L 116.081002 247.493375 
L 116.680349 247.493375 
L 116.680349 246.988957 
L 117.259781 246.988957 
L 117.259781 246.736748 
L 117.373392 246.736748 
L 117.373392 246.484539 
L 117.486268 246.484539 
L 117.486268 246.23233 
L 117.598418 246.23233 
L 117.598418 245.980122 
L 117.930605 245.980122 
L 118.039942 245.475704 
L 118.148599 245.475704 
L 118.256582 244.719077 
L 118.470564 244.719077 
L 118.470564 243.96245 
L 118.994305 243.96245 
L 118.994305 243.710241 
L 119.199476 243.710241 
L 119.199476 242.953614 
L 119.702083 242.953614 
L 119.702083 242.196987 
L 119.996839 242.196987 
L 119.996839 241.944778 
L 120.382253 241.944778 
L 120.47729 240.179316 
L 120.759333 240.179316 
L 120.759333 239.674898 
L 120.944859 239.674898 
L 120.944859 239.17048 
L 121.310093 239.17048 
L 121.400219 237.909435 
L 121.489881 237.909435 
L 121.489881 237.657226 
L 121.756135 237.657226 
L 121.84399 236.648391 
L 121.931406 236.648391 
L 121.931406 236.143973 
L 122.104932 236.143973 
L 122.104932 235.135137 
L 122.44689 235.135137 
L 122.44689 234.882928 
L 122.782271 234.882928 
L 122.782271 234.630719 
L 123.514096 234.630719 
L 123.593547 233.117465 
L 123.751369 233.117465 
L 123.751369 232.865256 
L 124.139788 232.865256 
L 124.139788 232.360839 
L 124.292765 232.360839 
L 124.292765 231.352003 
L 124.519744 231.352003 
L 124.519744 230.847585 
L 124.891598 230.847585 
L 124.965026 230.090958 
L 125.038147 230.090958 
L 125.038147 229.58654 
L 125.327602 229.58654 
L 125.327602 229.334331 
L 125.752972 229.334331 
L 125.822869 228.577704 
L 126.573795 228.577704 
L 126.640485 228.073286 
L 126.773103 228.073286 
L 126.839037 227.568869 
L 127.861412 227.568869 
L 127.861412 227.064451 
L 128.046609 227.064451 
L 128.046609 226.307824 
L 128.168991 226.307824 
L 128.229861 225.551197 
L 128.411207 225.551197 
L 128.411207 224.79457 
L 128.531065 224.79457 
L 128.531065 224.542361 
L 128.709321 224.542361 
L 128.709321 224.037943 
L 128.885774 224.037943 
L 128.885774 223.785734 
L 129.002426 223.785734 
L 129.002426 223.533525 
L 129.404667 223.533525 
L 129.404667 223.029108 
L 129.574256 223.029108 
L 129.630422 222.52469 
L 129.742212 222.52469 
L 129.853291 221.768063 
L 129.963666 221.768063 
L 130.073348 221.011436 
L 130.290663 221.011436 
L 130.290663 220.759227 
L 130.558552 220.759227 
L 130.558552 220.254809 
L 130.822389 220.254809 
L 130.822389 218.993764 
L 131.030622 218.993764 
L 131.030622 218.741555 
L 131.287464 218.741555 
L 131.287464 218.489347 
L 131.540579 218.489347 
L 131.540579 218.237138 
L 131.987128 218.237138 
L 132.036046 216.976093 
L 132.326708 216.976093 
L 132.374684 216.471675 
L 132.470242 216.471675 
L 132.517825 215.462839 
L 132.893889 215.462839 
L 132.940331 214.454003 
L 133.170708 214.454003 
L 133.170708 213.949586 
L 133.443203 213.949586 
L 133.443203 213.445168 
L 133.622529 213.445168 
L 133.711505 212.688541 
L 133.844123 212.688541 
L 133.931979 212.184123 
L 134.062938 212.184123 
L 134.062938 211.679705 
L 134.236034 211.679705 
L 134.321942 211.175287 
L 134.787017 211.175287 
L 134.787017 210.670869 
L 135.361539 210.670869 
L 135.361539 209.914242 
L 136.150782 209.914242 
L 136.150782 209.662033 
L 136.380754 209.662033 
L 136.380754 209.409825 
L 136.68274 209.409825 
L 136.720123 208.400989 
L 136.86886 208.400989 
L 136.86886 207.644362 
L 137.629572 207.644362 
L 137.629572 207.139944 
L 137.875944 207.139944 
L 137.875944 206.635526 
L 138.187677 206.635526 
L 138.187677 206.383317 
L 138.460171 206.383317 
L 138.527635 205.62669 
L 138.661784 205.62669 
L 138.661784 205.374481 
L 139.123342 205.374481 
L 139.123342 205.122272 
L 139.317473 205.122272 
L 139.317473 204.617855 
L 139.604677 204.617855 
L 139.604677 204.365646 
L 139.793552 204.365646 
L 139.793552 204.113437 
L 140.073083 204.113437 
L 140.073083 203.35681 
L 140.317849 203.35681 
L 140.317849 203.104601 
L 140.559227 203.104601 
L 140.559227 202.852392 
L 140.678675 202.852392 
L 140.678675 202.600183 
L 141.032186 202.600183 
L 141.032186 202.347974 
L 142.51311 202.347974 
L 142.51311 201.843556 
L 143.040814 201.843556 
L 143.092717 201.339138 
L 143.170282 201.339138 
L 143.170282 201.086929 
L 144.318346 201.086929 
L 144.318346 200.83472 
L 144.462672 200.83472 
L 144.486611 200.078094 
L 145.051495 200.078094 
L 145.051495 199.825885 
L 145.821666 199.825885 
L 145.821666 199.573676 
L 146.452726 199.573676 
L 146.452726 199.321467 
L 147.388869 199.321467 
L 147.4697 198.56484 
L 147.96658 198.56484 
L 147.96658 198.312631 
L 148.733265 198.312631 
L 148.770728 197.556004 
L 149.395596 197.556004 
L 149.395596 197.051586 
L 149.682079 197.051586 
L 149.682079 196.799377 
L 149.911431 196.799377 
L 150.016276 196.04275 
L 150.581924 196.04275 
L 150.581924 195.790541 
L 150.882897 195.790541 
L 150.882897 195.286124 
L 151.260066 195.286124 
L 151.324836 194.277288 
L 151.485716 194.277288 
L 151.485716 193.77287 
L 152.176471 193.77287 
L 152.176471 193.520661 
L 153.537988 193.520661 
L 153.537988 193.268452 
L 154.098334 193.268452 
L 154.098334 193.016243 
L 155.076745 193.016243 
L 155.076745 192.511825 
L 155.245367 192.511825 
L 155.245367 192.259616 
L 155.82927 192.259616 
L 155.82927 192.007407 
L 156.212023 192.007407 
L 156.212023 191.502989 
L 156.454576 191.502989 
L 156.454576 191.25078 
L 157.920731 191.25078 
L 157.920731 190.998572 
L 158.195371 190.998572 
L 158.195371 190.494154 
L 158.847883 190.494154 
L 158.847883 190.241945 
L 159.035853 190.241945 
L 159.035853 189.989736 
L 159.190962 189.989736 
L 159.273126 189.485318 
L 159.837683 189.485318 
L 159.837683 189.233109 
L 160.680044 189.233109 
L 160.680044 188.728691 
L 161.814408 188.728691 
L 161.814408 188.224273 
L 162.165135 188.224273 
L 162.268992 187.467646 
L 162.9377 187.467646 
L 163.045324 186.711019 
L 163.693398 186.711019 
L 163.693398 186.458811 
L 164.117618 186.458811 
L 164.117618 185.954393 
L 164.973287 185.954393 
L 164.973287 185.702184 
L 165.504548 185.702184 
L 165.604609 184.945557 
L 166.124175 184.945557 
L 166.124175 184.693348 
L 166.385083 184.693348 
L 166.385083 184.441139 
L 166.668984 184.441139 
L 166.668984 184.18893 
L 168.900184 184.18893 
L 168.900184 183.936721 
L 170.113593 183.936721 
L 170.113593 183.684512 
L 170.521516 183.684512 
L 170.618014 182.927885 
L 170.729924 182.927885 
L 170.729924 182.675676 
L 173.526381 182.675676 
L 173.526381 182.423467 
L 175.017382 182.423467 
L 175.017382 182.171258 
L 175.809197 182.171258 
L 175.809197 181.91905 
L 176.979801 181.91905 
L 176.979801 181.414632 
L 177.358012 181.414632 
L 177.358012 180.910214 
L 179.41166 180.910214 
L 179.41166 180.658005 
L 180.759545 180.658005 
L 180.759545 180.405796 
L 182.778027 180.405796 
L 182.778027 179.901378 
L 184.825274 179.901378 
L 184.825274 179.649169 
L 187.73366 179.649169 
L 187.73366 179.39696 
L 191.499649 179.39696 
L 191.499649 178.892542 
L 191.843346 178.892542 
L 191.843346 178.640333 
L 192.310337 178.640333 
L 192.310337 178.388124 
L 195.110536 178.388124 
L 195.110536 177.883706 
L 195.843062 177.883706 
L 195.879521 177.379288 
L 197.758829 177.379288 
L 197.758829 176.874871 
L 200.622448 176.874871 
L 200.622448 176.370453 
L 203.389554 176.370453 
L 203.424625 175.613826 
L 203.563404 175.613826 
L 203.641637 174.352781 
L 209.41356 174.352781 
L 209.457431 172.839527 
L 213.184737 172.839527 
L 213.184737 172.587319 
L 216.047793 172.587319 
L 216.047793 172.082901 
L 221.809476 172.082901 
L 221.809476 171.830692 
L 223.352451 171.830692 
L 223.352451 171.578483 
L 226.71093 171.578483 
L 226.71093 171.326274 
L 338.688 171.326274 
L 338.688 171.326274 
" style="fill:none;stroke:#ffa500;stroke-linecap:square;stroke-width:1.5;"/>
   </g>
   <g id="line2d_46">
    <defs>
     <path d="M 0 -6 
L -1.347084 -1.854102 
L -5.706339 -1.854102 
L -2.179628 0.708204 
L -3.526712 4.854102 
L -0 2.291796 
L 3.526712 4.854102 
L 2.179628 0.708204 
L 5.706339 -1.854102 
L 1.347084 -1.854102 
z
" id="m2c4551a5bc" style="stroke:#ffa500;stroke-linejoin:bevel;stroke-width:1.5;"/>
    </defs>
    <g>
     <use style="fill-opacity:0;stroke:#ffa500;stroke-linejoin:bevel;stroke-width:1.5;" x="114.685115" xlink:href="#m2c4551a5bc" y="250.267674"/>
     <use style="fill-opacity:0;stroke:#ffa500;stroke-linejoin:bevel;stroke-width:1.5;" x="177.358012" xlink:href="#m2c4551a5bc" y="180.910214"/>
     <use style="fill-opacity:0;stroke:#ffa500;stroke-linejoin:bevel;stroke-width:1.5;" x="226.71093" xlink:href="#m2c4551a5bc" y="171.578483"/>
     <use style="fill-opacity:0;stroke:#ffa500;stroke-linejoin:bevel;stroke-width:1.5;" x="226.71093" xlink:href="#m2c4551a5bc" y="171.326274"/>
     <use style="fill-opacity:0;stroke:#ffa500;stroke-linejoin:bevel;stroke-width:1.5;" x="226.71093" xlink:href="#m2c4551a5bc" y="171.326274"/>
     <use style="fill-opacity:0;stroke:#ffa500;stroke-linejoin:bevel;stroke-width:1.5;" x="338.688" xlink:href="#m2c4551a5bc" y="171.326274"/>
    </g>
   </g>
   <g id="line2d_47">
    <path style="fill:none;stroke:#ffa500;stroke-linecap:square;stroke-width:1.5;"/>
    <g/>
   </g>
   <g id="line2d_48">
    <path clip-path="url(#pacc79cb699)" d="M 230.310749 171.326274 
" style="fill:none;stroke:#ffa500;stroke-linecap:square;stroke-width:1.5;"/>
    <defs>
     <path d="M -12 12 
L 12 -12 
M -12 -12 
L 12 12 
" id="m53a684c494" style="stroke:#ffa500;"/>
    </defs>
    <g clip-path="url(#pacc79cb699)">
     <use style="fill:#ffa500;stroke:#ffa500;" x="230.310749" xlink:href="#m53a684c494" y="171.326274"/>
    </g>
   </g>
   <g id="line2d_49">
    <path d="M 338.688 175.613826 
L 369.60768 293.092752 
" style="fill:none;stroke:#ff00ff;stroke-linecap:square;stroke-width:1.5;"/>
    <g>
     <use style="fill-opacity:0;stroke:#ff00ff;stroke-linejoin:miter;stroke-width:1.5;" x="338.688" xlink:href="#m5706b44346" y="175.613826"/>
     <use style="fill-opacity:0;stroke:#ff00ff;stroke-linejoin:miter;stroke-width:1.5;" x="369.60768" xlink:href="#m5706b44346" y="293.092752"/>
    </g>
   </g>
   <g id="line2d_50">
    <path d="M 338.688 171.326274 
L 369.60768 199.472792 
" style="fill:none;stroke:#ffa500;stroke-linecap:square;stroke-width:1.5;"/>
    <g>
     <use style="fill-opacity:0;stroke:#ffa500;stroke-linejoin:bevel;stroke-width:1.5;" x="338.688" xlink:href="#m2c4551a5bc" y="171.326274"/>
     <use style="fill-opacity:0;stroke:#ffa500;stroke-linejoin:bevel;stroke-width:1.5;" x="369.60768" xlink:href="#m2c4551a5bc" y="199.472792"/>
    </g>
   </g>
   <g id="line2d_51">
    <path d="M 338.688 151.653976 
L 369.60768 105.852832 
" style="fill:none;stroke:#000080;stroke-linecap:square;stroke-width:1.5;"/>
    <g>
     <use style="fill-opacity:0;stroke:#000080;stroke-width:1.5;" x="338.688" xlink:href="#mb3224e2f5a" y="151.653976"/>
     <use style="fill-opacity:0;stroke:#000080;stroke-width:1.5;" x="369.60768" xlink:href="#mb3224e2f5a" y="105.852832"/>
    </g>
   </g>
   <g id="line2d_52">
    <path d="M 338.688 298.944 
L 338.688 6.381624 
" style="fill:none;stroke:#000000;stroke-linecap:square;stroke-width:1.5;"/>
   </g>
   <g id="patch_3">
    <path d="M 57.6 298.944 
L 57.6 3.456 
" style="fill:none;stroke:#000000;stroke-linecap:square;stroke-linejoin:miter;stroke-width:0.8;"/>
   </g>
   <g id="patch_4">
    <path d="M 338.688 298.944 
L 338.688 3.456 
" style="fill:none;stroke:#000000;stroke-linecap:square;stroke-linejoin:miter;stroke-width:0.8;"/>
   </g>
   <g id="patch_5">
    <path d="M 57.6 298.944 
L 338.688 298.944 
" style="fill:none;stroke:#000000;stroke-linecap:square;stroke-linejoin:miter;stroke-width:0.8;"/>
   </g>
   <g id="patch_6">
    <path d="M 57.6 3.456 
L 338.688 3.456 
" style="fill:none;stroke:#000000;stroke-linecap:square;stroke-linejoin:miter;stroke-width:0.8;"/>
   </g>
   <g id="text_13">
    <!-- onlychvre -->
    <defs>
     <path d="M 32.171875 -5.078125 
Q 28.375 -14.84375 24.75 -17.8125 
Q 21.140625 -20.796875 15.09375 -20.796875 
L 7.90625 -20.796875 
L 7.90625 -13.28125 
L 13.1875 -13.28125 
Q 16.890625 -13.28125 18.9375 -11.515625 
Q 21 -9.765625 23.484375 -3.21875 
L 25.09375 0.875 
L 2.984375 54.6875 
L 12.5 54.6875 
L 29.59375 11.921875 
L 46.6875 54.6875 
L 56.203125 54.6875 
z
" id="DejaVuSans-121"/>
     <path d="M 54.890625 33.015625 
L 54.890625 0 
L 45.90625 0 
L 45.90625 32.71875 
Q 45.90625 40.484375 42.875 44.328125 
Q 39.84375 48.1875 33.796875 48.1875 
Q 26.515625 48.1875 22.3125 43.546875 
Q 18.109375 38.921875 18.109375 30.90625 
L 18.109375 0 
L 9.078125 0 
L 9.078125 75.984375 
L 18.109375 75.984375 
L 18.109375 46.1875 
Q 21.34375 51.125 25.703125 53.5625 
Q 30.078125 56 35.796875 56 
Q 45.21875 56 50.046875 50.171875 
Q 54.890625 44.34375 54.890625 33.015625 
z
" id="DejaVuSans-104"/>
    </defs>
    <g transform="translate(375.22944 297.78369)scale(0.17 -0.17)">
     <use xlink:href="#DejaVuSans-111"/>
     <use x="61.181641" xlink:href="#DejaVuSans-110"/>
     <use x="124.560547" xlink:href="#DejaVuSans-108"/>
     <use x="152.34375" xlink:href="#DejaVuSans-121"/>
     <use x="211.523438" xlink:href="#DejaVuSans-99"/>
     <use x="266.503906" xlink:href="#DejaVuSans-104"/>
     <use x="329.882812" xlink:href="#DejaVuSans-118"/>
     <use x="389.0625" xlink:href="#DejaVuSans-114"/>
     <use x="430.144531" xlink:href="#DejaVuSans-101"/>
    </g>
   </g>
   <g id="text_14">
    <!-- randomres -->
    <g transform="translate(375.22944 204.16373)scale(0.17 -0.17)">
     <use xlink:href="#DejaVuSans-114"/>
     <use x="41.113281" xlink:href="#DejaVuSans-97"/>
     <use x="102.392578" xlink:href="#DejaVuSans-110"/>
     <use x="165.771484" xlink:href="#DejaVuSans-100"/>
     <use x="229.248047" xlink:href="#DejaVuSans-111"/>
     <use x="290.429688" xlink:href="#DejaVuSans-109"/>
     <use x="387.841797" xlink:href="#DejaVuSans-114"/>
     <use x="428.923828" xlink:href="#DejaVuSans-101"/>
     <use x="490.447266" xlink:href="#DejaVuSans-115"/>
    </g>
   </g>
   <g id="text_15">
    <!-- derandomi -->
    <g transform="translate(375.22944 110.543769)scale(0.17 -0.17)">
     <use xlink:href="#DejaVuSans-100"/>
     <use x="63.476562" xlink:href="#DejaVuSans-101"/>
     <use x="125" xlink:href="#DejaVuSans-114"/>
     <use x="166.113281" xlink:href="#DejaVuSans-97"/>
     <use x="227.392578" xlink:href="#DejaVuSans-110"/>
     <use x="290.771484" xlink:href="#DejaVuSans-100"/>
     <use x="354.248047" xlink:href="#DejaVuSans-111"/>
     <use x="415.429688" xlink:href="#DejaVuSans-109"/>
     <use x="512.841797" xlink:href="#DejaVuSans-105"/>
    </g>
   </g>
   <g id="text_16">
    <!-- best 2016 -->
    <defs>
     <path d="M 48.6875 27.296875 
Q 48.6875 37.203125 44.609375 42.84375 
Q 40.53125 48.484375 33.40625 48.484375 
Q 26.265625 48.484375 22.1875 42.84375 
Q 18.109375 37.203125 18.109375 27.296875 
Q 18.109375 17.390625 22.1875 11.75 
Q 26.265625 6.109375 33.40625 6.109375 
Q 40.53125 6.109375 44.609375 11.75 
Q 48.6875 17.390625 48.6875 27.296875 
z
M 18.109375 46.390625 
Q 20.953125 51.265625 25.265625 53.625 
Q 29.59375 56 35.59375 56 
Q 45.5625 56 51.78125 48.09375 
Q 58.015625 40.1875 58.015625 27.296875 
Q 58.015625 14.40625 51.78125 6.484375 
Q 45.5625 -1.421875 35.59375 -1.421875 
Q 29.59375 -1.421875 25.265625 0.953125 
Q 20.953125 3.328125 18.109375 8.203125 
L 18.109375 0 
L 9.078125 0 
L 9.078125 75.984375 
L 18.109375 75.984375 
z
" id="DejaVuSans-98"/>
    </defs>
    <g transform="translate(375.22944 16.923809)scale(0.17 -0.17)">
     <use xlink:href="#DejaVuSans-98"/>
     <use x="63.476562" xlink:href="#DejaVuSans-101"/>
     <use x="125" xlink:href="#DejaVuSans-115"/>
     <use x="177.099609" xlink:href="#DejaVuSans-116"/>
     <use x="216.308594" xlink:href="#DejaVuSans-32"/>
     <use x="248.095703" xlink:href="#DejaVuSans-50"/>
     <use x="311.71875" xlink:href="#DejaVuSans-48"/>
     <use x="375.341797" xlink:href="#DejaVuSans-49"/>
     <use x="438.964844" xlink:href="#DejaVuSans-54"/>
    </g>
   </g>
   <g id="text_17">
    <!-- bbob-biobj f26, f27, f33, f34, 5-D -->
    <defs>
     <path d="M 9.421875 54.6875 
L 18.40625 54.6875 
L 18.40625 -0.984375 
Q 18.40625 -11.421875 14.421875 -16.109375 
Q 10.453125 -20.796875 1.609375 -20.796875 
L -1.8125 -20.796875 
L -1.8125 -13.1875 
L 0.59375 -13.1875 
Q 5.71875 -13.1875 7.5625 -10.8125 
Q 9.421875 -8.453125 9.421875 -0.984375 
z
M 9.421875 75.984375 
L 18.40625 75.984375 
L 18.40625 64.59375 
L 9.421875 64.59375 
z
" id="DejaVuSans-106"/>
     <path d="M 8.203125 72.90625 
L 55.078125 72.90625 
L 55.078125 68.703125 
L 28.609375 0 
L 18.3125 0 
L 43.21875 64.59375 
L 8.203125 64.59375 
z
" id="DejaVuSans-55"/>
     <path d="M 40.578125 39.3125 
Q 47.65625 37.796875 51.625 33 
Q 55.609375 28.21875 55.609375 21.1875 
Q 55.609375 10.40625 48.1875 4.484375 
Q 40.765625 -1.421875 27.09375 -1.421875 
Q 22.515625 -1.421875 17.65625 -0.515625 
Q 12.796875 0.390625 7.625 2.203125 
L 7.625 11.71875 
Q 11.71875 9.328125 16.59375 8.109375 
Q 21.484375 6.890625 26.8125 6.890625 
Q 36.078125 6.890625 40.9375 10.546875 
Q 45.796875 14.203125 45.796875 21.1875 
Q 45.796875 27.640625 41.28125 31.265625 
Q 36.765625 34.90625 28.71875 34.90625 
L 20.21875 34.90625 
L 20.21875 43.015625 
L 29.109375 43.015625 
Q 36.375 43.015625 40.234375 45.921875 
Q 44.09375 48.828125 44.09375 54.296875 
Q 44.09375 59.90625 40.109375 62.90625 
Q 36.140625 65.921875 28.71875 65.921875 
Q 24.65625 65.921875 20.015625 65.03125 
Q 15.375 64.15625 9.8125 62.3125 
L 9.8125 71.09375 
Q 15.4375 72.65625 20.34375 73.4375 
Q 25.25 74.21875 29.59375 74.21875 
Q 40.828125 74.21875 47.359375 69.109375 
Q 53.90625 64.015625 53.90625 55.328125 
Q 53.90625 49.265625 50.4375 45.09375 
Q 46.96875 40.921875 40.578125 39.3125 
z
" id="DejaVuSans-51"/>
     <path d="M 10.796875 72.90625 
L 49.515625 72.90625 
L 49.515625 64.59375 
L 19.828125 64.59375 
L 19.828125 46.734375 
Q 21.96875 47.46875 24.109375 47.828125 
Q 26.265625 48.1875 28.421875 48.1875 
Q 40.625 48.1875 47.75 41.5 
Q 54.890625 34.8125 54.890625 23.390625 
Q 54.890625 11.625 47.5625 5.09375 
Q 40.234375 -1.421875 26.90625 -1.421875 
Q 22.3125 -1.421875 17.546875 -0.640625 
Q 12.796875 0.140625 7.71875 1.703125 
L 7.71875 11.625 
Q 12.109375 9.234375 16.796875 8.0625 
Q 21.484375 6.890625 26.703125 6.890625 
Q 35.15625 6.890625 40.078125 11.328125 
Q 45.015625 15.765625 45.015625 23.390625 
Q 45.015625 31 40.078125 35.4375 
Q 35.15625 39.890625 26.703125 39.890625 
Q 22.75 39.890625 18.8125 39.015625 
Q 14.890625 38.140625 10.796875 36.28125 
z
" id="DejaVuSans-53"/>
     <path d="M 19.671875 64.796875 
L 19.671875 8.109375 
L 31.59375 8.109375 
Q 46.6875 8.109375 53.6875 14.9375 
Q 60.6875 21.78125 60.6875 36.53125 
Q 60.6875 51.171875 53.6875 57.984375 
Q 46.6875 64.796875 31.59375 64.796875 
z
M 9.8125 72.90625 
L 30.078125 72.90625 
Q 51.265625 72.90625 61.171875 64.09375 
Q 71.09375 55.28125 71.09375 36.53125 
Q 71.09375 17.671875 61.125 8.828125 
Q 51.171875 0 30.078125 0 
L 9.8125 0 
z
" id="DejaVuSans-68"/>
    </defs>
    <g transform="translate(60.41088 14.161286)scale(0.102 -0.102)">
     <use xlink:href="#DejaVuSans-98"/>
     <use x="63.476562" xlink:href="#DejaVuSans-98"/>
     <use x="126.953125" xlink:href="#DejaVuSans-111"/>
     <use x="188.134766" xlink:href="#DejaVuSans-98"/>
     <use x="251.611328" xlink:href="#DejaVuSans-45"/>
     <use x="287.695312" xlink:href="#DejaVuSans-98"/>
     <use x="351.171875" xlink:href="#DejaVuSans-105"/>
     <use x="378.955078" xlink:href="#DejaVuSans-111"/>
     <use x="440.136719" xlink:href="#DejaVuSans-98"/>
     <use x="503.613281" xlink:href="#DejaVuSans-106"/>
     <use x="531.396484" xlink:href="#DejaVuSans-32"/>
     <use x="563.183594" xlink:href="#DejaVuSans-102"/>
     <use x="598.388672" xlink:href="#DejaVuSans-50"/>
     <use x="662.011719" xlink:href="#DejaVuSans-54"/>
     <use x="725.634766" xlink:href="#DejaVuSans-44"/>
     <use x="757.421875" xlink:href="#DejaVuSans-32"/>
     <use x="789.208984" xlink:href="#DejaVuSans-102"/>
     <use x="824.414062" xlink:href="#DejaVuSans-50"/>
     <use x="888.037109" xlink:href="#DejaVuSans-55"/>
     <use x="951.660156" xlink:href="#DejaVuSans-44"/>
     <use x="983.447266" xlink:href="#DejaVuSans-32"/>
     <use x="1015.234375" xlink:href="#DejaVuSans-102"/>
     <use x="1050.439453" xlink:href="#DejaVuSans-51"/>
     <use x="1114.0625" xlink:href="#DejaVuSans-51"/>
     <use x="1177.685547" xlink:href="#DejaVuSans-44"/>
     <use x="1209.472656" xlink:href="#DejaVuSans-32"/>
     <use x="1241.259766" xlink:href="#DejaVuSans-102"/>
     <use x="1276.464844" xlink:href="#DejaVuSans-51"/>
     <use x="1340.087891" xlink:href="#DejaVuSans-52"/>
     <use x="1403.710938" xlink:href="#DejaVuSans-44"/>
     <use x="1435.498047" xlink:href="#DejaVuSans-32"/>
     <use x="1467.285156" xlink:href="#DejaVuSans-53"/>
     <use x="1530.908203" xlink:href="#DejaVuSans-45"/>
     <use x="1566.992188" xlink:href="#DejaVuSans-68"/>
    </g>
    <!-- 58 targets: 1..-1.0e-4 -->
    <defs>
     <path d="M 11.71875 12.40625 
L 22.015625 12.40625 
L 22.015625 0 
L 11.71875 0 
z
M 11.71875 51.703125 
L 22.015625 51.703125 
L 22.015625 39.3125 
L 11.71875 39.3125 
z
" id="DejaVuSans-58"/>
    </defs>
    <g transform="translate(60.41088 25.583055)scale(0.102 -0.102)">
     <use xlink:href="#DejaVuSans-53"/>
     <use x="63.623047" xlink:href="#DejaVuSans-56"/>
     <use x="127.246094" xlink:href="#DejaVuSans-32"/>
     <use x="159.033203" xlink:href="#DejaVuSans-116"/>
     <use x="198.242188" xlink:href="#DejaVuSans-97"/>
     <use x="259.521484" xlink:href="#DejaVuSans-114"/>
     <use x="300.619141" xlink:href="#DejaVuSans-103"/>
     <use x="364.095703" xlink:href="#DejaVuSans-101"/>
     <use x="425.619141" xlink:href="#DejaVuSans-116"/>
     <use x="464.828125" xlink:href="#DejaVuSans-115"/>
     <use x="516.927734" xlink:href="#DejaVuSans-58"/>
     <use x="550.619141" xlink:href="#DejaVuSans-32"/>
     <use x="582.40625" xlink:href="#DejaVuSans-49"/>
     <use x="646.029297" xlink:href="#DejaVuSans-46"/>
     <use x="677.816406" xlink:href="#DejaVuSans-46"/>
     <use x="709.603516" xlink:href="#DejaVuSans-45"/>
     <use x="745.6875" xlink:href="#DejaVuSans-49"/>
     <use x="809.310547" xlink:href="#DejaVuSans-46"/>
     <use x="841.097656" xlink:href="#DejaVuSans-48"/>
     <use x="904.720703" xlink:href="#DejaVuSans-101"/>
     <use x="966.244141" xlink:href="#DejaVuSans-45"/>
     <use x="1002.328125" xlink:href="#DejaVuSans-52"/>
    </g>
    <!-- 5 instances -->
    <g transform="translate(60.41088 37.004824)scale(0.102 -0.102)">
     <use xlink:href="#DejaVuSans-53"/>
     <use x="63.623047" xlink:href="#DejaVuSans-32"/>
     <use x="95.410156" xlink:href="#DejaVuSans-105"/>
     <use x="123.193359" xlink:href="#DejaVuSans-110"/>
     <use x="186.572266" xlink:href="#DejaVuSans-115"/>
     <use x="238.671875" xlink:href="#DejaVuSans-116"/>
     <use x="277.880859" xlink:href="#DejaVuSans-97"/>
     <use x="339.160156" xlink:href="#DejaVuSans-110"/>
     <use x="402.539062" xlink:href="#DejaVuSans-99"/>
     <use x="457.519531" xlink:href="#DejaVuSans-101"/>
     <use x="519.042969" xlink:href="#DejaVuSans-115"/>
    </g>
   </g>
   <g id="text_18">
    <!-- v2.3.1.83 -->
    <g style="fill:#808080;" transform="translate(174.511187 293.909432)scale(0.1 -0.1)">
     <use xlink:href="#DejaVuSans-118"/>
     <use x="59.179688" xlink:href="#DejaVuSans-50"/>
     <use x="122.802734" xlink:href="#DejaVuSans-46"/>
     <use x="154.589844" xlink:href="#DejaVuSans-51"/>
     <use x="218.212891" xlink:href="#DejaVuSans-46"/>
     <use x="250" xlink:href="#DejaVuSans-49"/>
     <use x="313.623047" xlink:href="#DejaVuSans-46"/>
     <use x="345.410156" xlink:href="#DejaVuSans-56"/>
     <use x="409.033203" xlink:href="#DejaVuSans-51"/>
    </g>
   </g>
  </g>
 </g>
 <defs>
  <clipPath id="pacc79cb699">
   <rect height="295.488" width="281.088" x="57.6" y="3.456"/>
  </clipPath>
 </defs>
</svg>
