<?xml version="1.0" encoding="utf-8" standalone="no"?>
<!DOCTYPE svg PUBLIC "-//W3C//DTD SVG 1.1//EN"
  "http://www.w3.org/Graphics/SVG/1.1/DTD/svg11.dtd">
<!-- Created with matplotlib (https://matplotlib.org/) -->
<svg height="345.6pt" version="1.1" viewBox="0 0 460.8 345.6" width="460.8pt" xmlns="http://www.w3.org/2000/svg" xmlns:xlink="http://www.w3.org/1999/xlink">
 <defs>
  <style type="text/css">
*{stroke-linecap:butt;stroke-linejoin:round;}
  </style>
 </defs>
 <g id="figure_1">
  <g id="patch_1">
   <path d="M 0 345.6 
L 460.8 345.6 
L 460.8 0 
L 0 0 
z
" style="fill:#ffffff;"/>
  </g>
  <g id="axes_1">
   <g id="patch_2">
    <path d="M 57.6 298.944 
L 338.688 298.944 
L 338.688 3.456 
L 57.6 3.456 
z
" style="fill:#ffffff;"/>
   </g>
   <g id="line2d_1">
    <path d="M 62.616969 298.944 
L 62.616969 297.682955 
L 72.376266 297.682955 
L 72.376266 296.421911 
L 76.759008 296.421911 
L 76.759008 293.899821 
L 78.59642 293.899821 
L 78.59642 292.638776 
L 84.464254 292.638776 
L 84.464254 290.116687 
L 89.78989 290.116687 
L 89.78989 287.594597 
L 90.684409 287.594597 
L 90.684409 285.072508 
L 92.34655 285.072508 
L 92.34655 283.811463 
L 95.918017 283.811463 
L 95.918017 281.289374 
L 101.412804 281.289374 
L 101.412804 276.245195 
L 108.326001 276.245195 
L 108.326001 273.723105 
L 113.26352 273.723105 
L 113.26352 272.462061 
L 115.711251 272.462061 
L 115.711251 271.201016 
L 120.571812 271.201016 
L 120.571812 269.939971 
L 122.920132 269.939971 
L 122.920132 268.678927 
L 129.290685 268.678927 
L 129.290685 264.895792 
L 135.943785 264.895792 
L 135.943785 261.112658 
L 136.645276 261.112658 
L 136.645276 257.329524 
L 140.549236 257.329524 
L 140.549236 254.807435 
L 141.47371 254.807435 
L 141.47371 251.0243 
L 148.449693 251.0243 
L 148.449693 248.502211 
L 151.923236 248.502211 
L 151.923236 245.980122 
L 160.038232 245.980122 
L 160.038232 244.719077 
L 160.961329 244.719077 
L 160.961329 242.196987 
L 161.344625 242.196987 
L 161.344625 240.935943 
L 165.849938 240.935943 
L 165.849938 239.674898 
L 168.982583 239.674898 
L 168.982583 237.152808 
L 169.654516 237.152808 
L 169.654516 234.630719 
L 170.109924 234.630719 
L 170.109924 233.369674 
L 174.174823 233.369674 
L 174.174823 230.847585 
L 178.750267 230.847585 
L 178.750267 228.325495 
L 180.351324 228.325495 
L 180.351324 224.542361 
L 183.598738 224.542361 
L 183.598738 220.759227 
L 184.993323 220.759227 
L 184.993323 216.976093 
L 188.531907 216.976093 
L 188.531907 214.454003 
L 189.268932 214.454003 
L 189.268932 211.931914 
L 193.212302 211.931914 
L 193.212302 209.409825 
L 194.592798 209.409825 
L 194.592798 206.887735 
L 197.714421 206.887735 
L 197.714421 203.104601 
L 203.656921 203.104601 
L 203.656921 200.582511 
L 204.986505 200.582511 
L 204.986505 198.060422 
L 205.907884 198.060422 
L 205.907884 196.799377 
L 208.109059 196.799377 
L 208.109059 194.277288 
L 212.457279 194.277288 
L 212.457279 191.755198 
L 215.482984 191.755198 
L 215.482984 189.233109 
L 217.007937 189.233109 
L 217.007937 186.711019 
L 217.44368 186.711019 
L 217.44368 185.449975 
L 218.180392 185.449975 
L 218.218807 180.405796 
L 219.901814 180.405796 
L 219.901814 177.883706 
L 230.014825 177.883706 
L 230.014825 176.622662 
L 233.162871 176.622662 
L 233.162871 174.100572 
L 234.717553 174.100572 
L 234.717553 170.317438 
L 238.703839 170.317438 
L 238.711022 165.273259 
L 240.74787 165.273259 
L 240.74787 161.490125 
L 242.208029 161.490125 
L 242.208029 160.22908 
L 243.623456 160.22908 
L 243.623456 158.968036 
L 247.043533 158.968036 
L 247.043533 157.706991 
L 248.384391 157.706991 
L 248.384391 153.923857 
L 248.812023 153.923857 
L 248.812023 150.140722 
L 250.938403 150.140722 
L 250.938403 146.357588 
L 251.754515 146.357588 
L 251.754515 142.574454 
L 254.100184 142.574454 
L 254.100184 140.052365 
L 258.047585 140.052365 
L 258.047585 137.530275 
L 258.19459 137.530275 
L 258.19459 135.008186 
L 260.604567 135.008186 
L 260.604567 133.747141 
L 261.276006 133.747141 
L 261.276006 132.486096 
L 262.039231 132.486096 
L 262.039231 129.964007 
L 264.44541 129.964007 
L 264.44541 126.180873 
L 264.846397 126.180873 
L 264.846397 124.919828 
L 266.875788 124.919828 
L 266.875788 123.658783 
L 269.667058 123.658783 
L 269.667058 119.875649 
L 271.143857 119.875649 
L 271.143857 118.614604 
L 272.029471 118.614604 
L 272.029471 114.83147 
L 275.31022 114.83147 
L 275.31022 111.048336 
L 276.342596 111.048336 
L 276.342596 107.265202 
L 277.136411 107.265202 
L 277.136411 106.004157 
L 279.321884 106.004157 
L 279.321884 102.221023 
L 279.694748 102.221023 
L 279.694748 100.959978 
L 281.358838 100.959978 
L 281.358838 97.176844 
L 283.293714 97.176844 
L 283.293714 94.654755 
L 284.619142 94.654755 
L 284.619142 92.132665 
L 285.319611 92.132665 
L 285.319611 90.87162 
L 285.458947 90.87162 
L 285.458947 88.349531 
L 285.617927 88.349531 
L 285.617927 85.827441 
L 286.106552 85.827441 
L 286.106552 82.044307 
L 286.611754 82.044307 
L 286.611754 80.783263 
L 289.227938 80.783263 
L 289.227938 79.522218 
L 289.43246 79.522218 
L 289.43246 77.000128 
L 289.91561 77.000128 
L 289.91662 71.955949 
L 291.297243 71.955949 
L 291.297243 69.43386 
L 291.413335 69.43386 
L 291.413335 65.650726 
L 292.422394 65.650726 
L 292.422394 63.128636 
L 292.812543 63.128636 
L 292.812543 60.606547 
L 293.79976 60.606547 
L 293.79976 59.345502 
L 294.965688 59.345502 
L 294.965688 56.823413 
L 295.606055 56.823413 
L 295.606055 53.040279 
L 296.117393 53.040279 
L 296.117393 49.257144 
L 306.967347 49.257144 
L 306.967347 47.9961 
L 313.070889 47.9961 
L 313.070889 45.47401 
L 326.008163 45.47401 
L 326.008163 41.690876 
L 338.688 41.690876 
L 338.688 41.690876 
" style="fill:none;stroke:#f5deb3;stroke-linecap:square;stroke-width:4;"/>
   </g>
   <g id="line2d_2">
    <defs>
     <path d="M 0 7.778175 
L 7.778175 0 
L 0 -7.778175 
L -7.778175 0 
z
" id="m950b62b2e6" style="stroke:#f5deb3;stroke-linejoin:miter;stroke-width:1.5;"/>
    </defs>
    <g>
     <use style="fill:#f5deb3;stroke:#f5deb3;stroke-linejoin:miter;stroke-width:1.5;" x="148.449693" xlink:href="#m950b62b2e6" y="248.502211"/>
     <use style="fill:#f5deb3;stroke:#f5deb3;stroke-linejoin:miter;stroke-width:1.5;" x="208.109059" xlink:href="#m950b62b2e6" y="196.799377"/>
     <use style="fill:#f5deb3;stroke:#f5deb3;stroke-linejoin:miter;stroke-width:1.5;" x="284.619142" xlink:href="#m950b62b2e6" y="92.132665"/>
     <use style="fill:#f5deb3;stroke:#f5deb3;stroke-linejoin:miter;stroke-width:1.5;" x="326.008163" xlink:href="#m950b62b2e6" y="41.690876"/>
     <use style="fill:#f5deb3;stroke:#f5deb3;stroke-linejoin:miter;stroke-width:1.5;" x="338.688" xlink:href="#m950b62b2e6" y="41.690876"/>
    </g>
   </g>
   <g id="line2d_3">
    <path style="fill:none;stroke:#f5deb3;stroke-linecap:square;stroke-width:4;"/>
    <g/>
   </g>
   <g id="line2d_4">
    <path d="M 338.688 41.690876 
L 369.60768 12.232871 
" style="fill:none;stroke:#f5deb3;stroke-linecap:square;stroke-width:4;"/>
    <g>
     <use style="fill:#f5deb3;stroke:#f5deb3;stroke-linejoin:miter;stroke-width:1.5;" x="338.688" xlink:href="#m950b62b2e6" y="41.690876"/>
     <use style="fill:#f5deb3;stroke:#f5deb3;stroke-linejoin:miter;stroke-width:1.5;" x="369.60768" xlink:href="#m950b62b2e6" y="12.232871"/>
    </g>
   </g>
   <g id="matplotlib.axis_1">
    <g id="xtick_1">
     <g id="line2d_5">
      <path clip-path="url(#p0608d4666b)" d="M 57.6 298.944 
L 57.6 3.456 
" style="fill:none;stroke:#b0b0b0;stroke-linecap:square;stroke-width:0.8;"/>
     </g>
     <g id="line2d_6">
      <defs>
       <path d="M 0 0 
L 0 3.5 
" id="m94f9f47cba" style="stroke:#000000;stroke-width:0.8;"/>
      </defs>
      <g>
       <use style="stroke:#000000;stroke-width:0.8;" x="57.6" xlink:href="#m94f9f47cba" y="298.944"/>
      </g>
     </g>
     <g id="text_1">
      <!-- 0 -->
      <defs>
       <path d="M 31.78125 66.40625 
Q 24.171875 66.40625 20.328125 58.90625 
Q 16.5 51.421875 16.5 36.375 
Q 16.5 21.390625 20.328125 13.890625 
Q 24.171875 6.390625 31.78125 6.390625 
Q 39.453125 6.390625 43.28125 13.890625 
Q 47.125 21.390625 47.125 36.375 
Q 47.125 51.421875 43.28125 58.90625 
Q 39.453125 66.40625 31.78125 66.40625 
z
M 31.78125 74.21875 
Q 44.046875 74.21875 50.515625 64.515625 
Q 56.984375 54.828125 56.984375 36.375 
Q 56.984375 17.96875 50.515625 8.265625 
Q 44.046875 -1.421875 31.78125 -1.421875 
Q 19.53125 -1.421875 13.0625 8.265625 
Q 6.59375 17.96875 6.59375 36.375 
Q 6.59375 54.828125 13.0625 64.515625 
Q 19.53125 74.21875 31.78125 74.21875 
z
" id="DejaVuSans-48"/>
      </defs>
      <g transform="translate(51.2375 321.140875)scale(0.2 -0.2)">
       <use xlink:href="#DejaVuSans-48"/>
      </g>
     </g>
    </g>
    <g id="xtick_2">
     <g id="line2d_7">
      <path clip-path="url(#p0608d4666b)" d="M 137.910857 298.944 
L 137.910857 3.456 
" style="fill:none;stroke:#b0b0b0;stroke-linecap:square;stroke-width:0.8;"/>
     </g>
     <g id="line2d_8">
      <g>
       <use style="stroke:#000000;stroke-width:0.8;" x="137.910857" xlink:href="#m94f9f47cba" y="298.944"/>
      </g>
     </g>
     <g id="text_2">
      <!-- 2 -->
      <defs>
       <path d="M 19.1875 8.296875 
L 53.609375 8.296875 
L 53.609375 0 
L 7.328125 0 
L 7.328125 8.296875 
Q 12.9375 14.109375 22.625 23.890625 
Q 32.328125 33.6875 34.8125 36.53125 
Q 39.546875 41.84375 41.421875 45.53125 
Q 43.3125 49.21875 43.3125 52.78125 
Q 43.3125 58.59375 39.234375 62.25 
Q 35.15625 65.921875 28.609375 65.921875 
Q 23.96875 65.921875 18.8125 64.3125 
Q 13.671875 62.703125 7.8125 59.421875 
L 7.8125 69.390625 
Q 13.765625 71.78125 18.9375 73 
Q 24.125 74.21875 28.421875 74.21875 
Q 39.75 74.21875 46.484375 68.546875 
Q 53.21875 62.890625 53.21875 53.421875 
Q 53.21875 48.921875 51.53125 44.890625 
Q 49.859375 40.875 45.40625 35.40625 
Q 44.1875 33.984375 37.640625 27.21875 
Q 31.109375 20.453125 19.1875 8.296875 
z
" id="DejaVuSans-50"/>
      </defs>
      <g transform="translate(131.548357 321.140875)scale(0.2 -0.2)">
       <use xlink:href="#DejaVuSans-50"/>
      </g>
     </g>
    </g>
    <g id="xtick_3">
     <g id="line2d_9">
      <path clip-path="url(#p0608d4666b)" d="M 218.221714 298.944 
L 218.221714 3.456 
" style="fill:none;stroke:#b0b0b0;stroke-linecap:square;stroke-width:0.8;"/>
     </g>
     <g id="line2d_10">
      <g>
       <use style="stroke:#000000;stroke-width:0.8;" x="218.221714" xlink:href="#m94f9f47cba" y="298.944"/>
      </g>
     </g>
     <g id="text_3">
      <!-- 4 -->
      <defs>
       <path d="M 37.796875 64.3125 
L 12.890625 25.390625 
L 37.796875 25.390625 
z
M 35.203125 72.90625 
L 47.609375 72.90625 
L 47.609375 25.390625 
L 58.015625 25.390625 
L 58.015625 17.1875 
L 47.609375 17.1875 
L 47.609375 0 
L 37.796875 0 
L 37.796875 17.1875 
L 4.890625 17.1875 
L 4.890625 26.703125 
z
" id="DejaVuSans-52"/>
      </defs>
      <g transform="translate(211.859214 321.140875)scale(0.2 -0.2)">
       <use xlink:href="#DejaVuSans-52"/>
      </g>
     </g>
    </g>
    <g id="xtick_4">
     <g id="line2d_11">
      <path clip-path="url(#p0608d4666b)" d="M 298.532571 298.944 
L 298.532571 3.456 
" style="fill:none;stroke:#b0b0b0;stroke-linecap:square;stroke-width:0.8;"/>
     </g>
     <g id="line2d_12">
      <g>
       <use style="stroke:#000000;stroke-width:0.8;" x="298.532571" xlink:href="#m94f9f47cba" y="298.944"/>
      </g>
     </g>
     <g id="text_4">
      <!-- 6 -->
      <defs>
       <path d="M 33.015625 40.375 
Q 26.375 40.375 22.484375 35.828125 
Q 18.609375 31.296875 18.609375 23.390625 
Q 18.609375 15.53125 22.484375 10.953125 
Q 26.375 6.390625 33.015625 6.390625 
Q 39.65625 6.390625 43.53125 10.953125 
Q 47.40625 15.53125 47.40625 23.390625 
Q 47.40625 31.296875 43.53125 35.828125 
Q 39.65625 40.375 33.015625 40.375 
z
M 52.59375 71.296875 
L 52.59375 62.3125 
Q 48.875 64.0625 45.09375 64.984375 
Q 41.3125 65.921875 37.59375 65.921875 
Q 27.828125 65.921875 22.671875 59.328125 
Q 17.53125 52.734375 16.796875 39.40625 
Q 19.671875 43.65625 24.015625 45.921875 
Q 28.375 48.1875 33.59375 48.1875 
Q 44.578125 48.1875 50.953125 41.515625 
Q 57.328125 34.859375 57.328125 23.390625 
Q 57.328125 12.15625 50.6875 5.359375 
Q 44.046875 -1.421875 33.015625 -1.421875 
Q 20.359375 -1.421875 13.671875 8.265625 
Q 6.984375 17.96875 6.984375 36.375 
Q 6.984375 53.65625 15.1875 63.9375 
Q 23.390625 74.21875 37.203125 74.21875 
Q 40.921875 74.21875 44.703125 73.484375 
Q 48.484375 72.75 52.59375 71.296875 
z
" id="DejaVuSans-54"/>
      </defs>
      <g transform="translate(292.170071 321.140875)scale(0.2 -0.2)">
       <use xlink:href="#DejaVuSans-54"/>
      </g>
     </g>
    </g>
    <g id="xtick_5">
     <g id="line2d_13">
      <path clip-path="url(#p0608d4666b)" d="M 97.755429 298.944 
L 97.755429 3.456 
" style="fill:none;stroke:#b0b0b0;stroke-linecap:square;stroke-width:0.8;"/>
     </g>
     <g id="line2d_14">
      <defs>
       <path d="M 0 0 
L 0 2 
" id="mf8464cf937" style="stroke:#000000;stroke-width:0.6;"/>
      </defs>
      <g>
       <use style="stroke:#000000;stroke-width:0.6;" x="97.755429" xlink:href="#mf8464cf937" y="298.944"/>
      </g>
     </g>
    </g>
    <g id="xtick_6">
     <g id="line2d_15">
      <path clip-path="url(#p0608d4666b)" d="M 178.066286 298.944 
L 178.066286 3.456 
" style="fill:none;stroke:#b0b0b0;stroke-linecap:square;stroke-width:0.8;"/>
     </g>
     <g id="line2d_16">
      <g>
       <use style="stroke:#000000;stroke-width:0.6;" x="178.066286" xlink:href="#mf8464cf937" y="298.944"/>
      </g>
     </g>
    </g>
    <g id="xtick_7">
     <g id="line2d_17">
      <path clip-path="url(#p0608d4666b)" d="M 258.377143 298.944 
L 258.377143 3.456 
" style="fill:none;stroke:#b0b0b0;stroke-linecap:square;stroke-width:0.8;"/>
     </g>
     <g id="line2d_18">
      <g>
       <use style="stroke:#000000;stroke-width:0.6;" x="258.377143" xlink:href="#mf8464cf937" y="298.944"/>
      </g>
     </g>
    </g>
    <g id="xtick_8">
     <g id="line2d_19">
      <path clip-path="url(#p0608d4666b)" d="M 338.688 298.944 
L 338.688 3.456 
" style="fill:none;stroke:#b0b0b0;stroke-linecap:square;stroke-width:0.8;"/>
     </g>
     <g id="line2d_20">
      <g>
       <use style="stroke:#000000;stroke-width:0.6;" x="338.688" xlink:href="#mf8464cf937" y="298.944"/>
      </g>
     </g>
    </g>
    <g id="text_5">
     <!-- log10(# f-evals / dimension) -->
     <defs>
      <path d="M 9.421875 75.984375 
L 18.40625 75.984375 
L 18.40625 0 
L 9.421875 0 
z
" id="DejaVuSans-108"/>
      <path d="M 30.609375 48.390625 
Q 23.390625 48.390625 19.1875 42.75 
Q 14.984375 37.109375 14.984375 27.296875 
Q 14.984375 17.484375 19.15625 11.84375 
Q 23.34375 6.203125 30.609375 6.203125 
Q 37.796875 6.203125 41.984375 11.859375 
Q 46.1875 17.53125 46.1875 27.296875 
Q 46.1875 37.015625 41.984375 42.703125 
Q 37.796875 48.390625 30.609375 48.390625 
z
M 30.609375 56 
Q 42.328125 56 49.015625 48.375 
Q 55.71875 40.765625 55.71875 27.296875 
Q 55.71875 13.875 49.015625 6.21875 
Q 42.328125 -1.421875 30.609375 -1.421875 
Q 18.84375 -1.421875 12.171875 6.21875 
Q 5.515625 13.875 5.515625 27.296875 
Q 5.515625 40.765625 12.171875 48.375 
Q 18.84375 56 30.609375 56 
z
" id="DejaVuSans-111"/>
      <path d="M 45.40625 27.984375 
Q 45.40625 37.75 41.375 43.109375 
Q 37.359375 48.484375 30.078125 48.484375 
Q 22.859375 48.484375 18.828125 43.109375 
Q 14.796875 37.75 14.796875 27.984375 
Q 14.796875 18.265625 18.828125 12.890625 
Q 22.859375 7.515625 30.078125 7.515625 
Q 37.359375 7.515625 41.375 12.890625 
Q 45.40625 18.265625 45.40625 27.984375 
z
M 54.390625 6.78125 
Q 54.390625 -7.171875 48.1875 -13.984375 
Q 42 -20.796875 29.203125 -20.796875 
Q 24.46875 -20.796875 20.265625 -20.09375 
Q 16.0625 -19.390625 12.109375 -17.921875 
L 12.109375 -9.1875 
Q 16.0625 -11.328125 19.921875 -12.34375 
Q 23.78125 -13.375 27.78125 -13.375 
Q 36.625 -13.375 41.015625 -8.765625 
Q 45.40625 -4.15625 45.40625 5.171875 
L 45.40625 9.625 
Q 42.625 4.78125 38.28125 2.390625 
Q 33.9375 0 27.875 0 
Q 17.828125 0 11.671875 7.65625 
Q 5.515625 15.328125 5.515625 27.984375 
Q 5.515625 40.671875 11.671875 48.328125 
Q 17.828125 56 27.875 56 
Q 33.9375 56 38.28125 53.609375 
Q 42.625 51.21875 45.40625 46.390625 
L 45.40625 54.6875 
L 54.390625 54.6875 
z
" id="DejaVuSans-103"/>
      <path d="M 12.40625 8.296875 
L 28.515625 8.296875 
L 28.515625 63.921875 
L 10.984375 60.40625 
L 10.984375 69.390625 
L 28.421875 72.90625 
L 38.28125 72.90625 
L 38.28125 8.296875 
L 54.390625 8.296875 
L 54.390625 0 
L 12.40625 0 
z
" id="DejaVuSans-49"/>
      <path d="M 31 75.875 
Q 24.46875 64.65625 21.28125 53.65625 
Q 18.109375 42.671875 18.109375 31.390625 
Q 18.109375 20.125 21.3125 9.0625 
Q 24.515625 -2 31 -13.1875 
L 23.1875 -13.1875 
Q 15.875 -1.703125 12.234375 9.375 
Q 8.59375 20.453125 8.59375 31.390625 
Q 8.59375 42.28125 12.203125 53.3125 
Q 15.828125 64.359375 23.1875 75.875 
z
" id="DejaVuSans-40"/>
      <path d="M 51.125 44 
L 36.921875 44 
L 32.8125 27.6875 
L 47.125 27.6875 
z
M 43.796875 71.78125 
L 38.71875 51.515625 
L 52.984375 51.515625 
L 58.109375 71.78125 
L 65.921875 71.78125 
L 60.890625 51.515625 
L 76.125 51.515625 
L 76.125 44 
L 58.984375 44 
L 54.984375 27.6875 
L 70.515625 27.6875 
L 70.515625 20.21875 
L 53.078125 20.21875 
L 48 0 
L 40.1875 0 
L 45.21875 20.21875 
L 30.90625 20.21875 
L 25.875 0 
L 18.015625 0 
L 23.09375 20.21875 
L 7.71875 20.21875 
L 7.71875 27.6875 
L 24.90625 27.6875 
L 29 44 
L 13.28125 44 
L 13.28125 51.515625 
L 30.90625 51.515625 
L 35.890625 71.78125 
z
" id="DejaVuSans-35"/>
      <path id="DejaVuSans-32"/>
      <path d="M 37.109375 75.984375 
L 37.109375 68.5 
L 28.515625 68.5 
Q 23.6875 68.5 21.796875 66.546875 
Q 19.921875 64.59375 19.921875 59.515625 
L 19.921875 54.6875 
L 34.71875 54.6875 
L 34.71875 47.703125 
L 19.921875 47.703125 
L 19.921875 0 
L 10.890625 0 
L 10.890625 47.703125 
L 2.296875 47.703125 
L 2.296875 54.6875 
L 10.890625 54.6875 
L 10.890625 58.5 
Q 10.890625 67.625 15.140625 71.796875 
Q 19.390625 75.984375 28.609375 75.984375 
z
" id="DejaVuSans-102"/>
      <path d="M 4.890625 31.390625 
L 31.203125 31.390625 
L 31.203125 23.390625 
L 4.890625 23.390625 
z
" id="DejaVuSans-45"/>
      <path d="M 56.203125 29.59375 
L 56.203125 25.203125 
L 14.890625 25.203125 
Q 15.484375 15.921875 20.484375 11.0625 
Q 25.484375 6.203125 34.421875 6.203125 
Q 39.59375 6.203125 44.453125 7.46875 
Q 49.3125 8.734375 54.109375 11.28125 
L 54.109375 2.78125 
Q 49.265625 0.734375 44.1875 -0.34375 
Q 39.109375 -1.421875 33.890625 -1.421875 
Q 20.796875 -1.421875 13.15625 6.1875 
Q 5.515625 13.8125 5.515625 26.8125 
Q 5.515625 40.234375 12.765625 48.109375 
Q 20.015625 56 32.328125 56 
Q 43.359375 56 49.78125 48.890625 
Q 56.203125 41.796875 56.203125 29.59375 
z
M 47.21875 32.234375 
Q 47.125 39.59375 43.09375 43.984375 
Q 39.0625 48.390625 32.421875 48.390625 
Q 24.90625 48.390625 20.390625 44.140625 
Q 15.875 39.890625 15.1875 32.171875 
z
" id="DejaVuSans-101"/>
      <path d="M 2.984375 54.6875 
L 12.5 54.6875 
L 29.59375 8.796875 
L 46.6875 54.6875 
L 56.203125 54.6875 
L 35.6875 0 
L 23.484375 0 
z
" id="DejaVuSans-118"/>
      <path d="M 34.28125 27.484375 
Q 23.390625 27.484375 19.1875 25 
Q 14.984375 22.515625 14.984375 16.5 
Q 14.984375 11.71875 18.140625 8.90625 
Q 21.296875 6.109375 26.703125 6.109375 
Q 34.1875 6.109375 38.703125 11.40625 
Q 43.21875 16.703125 43.21875 25.484375 
L 43.21875 27.484375 
z
M 52.203125 31.203125 
L 52.203125 0 
L 43.21875 0 
L 43.21875 8.296875 
Q 40.140625 3.328125 35.546875 0.953125 
Q 30.953125 -1.421875 24.3125 -1.421875 
Q 15.921875 -1.421875 10.953125 3.296875 
Q 6 8.015625 6 15.921875 
Q 6 25.140625 12.171875 29.828125 
Q 18.359375 34.515625 30.609375 34.515625 
L 43.21875 34.515625 
L 43.21875 35.40625 
Q 43.21875 41.609375 39.140625 45 
Q 35.0625 48.390625 27.6875 48.390625 
Q 23 48.390625 18.546875 47.265625 
Q 14.109375 46.140625 10.015625 43.890625 
L 10.015625 52.203125 
Q 14.9375 54.109375 19.578125 55.046875 
Q 24.21875 56 28.609375 56 
Q 40.484375 56 46.34375 49.84375 
Q 52.203125 43.703125 52.203125 31.203125 
z
" id="DejaVuSans-97"/>
      <path d="M 44.28125 53.078125 
L 44.28125 44.578125 
Q 40.484375 46.53125 36.375 47.5 
Q 32.28125 48.484375 27.875 48.484375 
Q 21.1875 48.484375 17.84375 46.4375 
Q 14.5 44.390625 14.5 40.28125 
Q 14.5 37.15625 16.890625 35.375 
Q 19.28125 33.59375 26.515625 31.984375 
L 29.59375 31.296875 
Q 39.15625 29.25 43.1875 25.515625 
Q 47.21875 21.78125 47.21875 15.09375 
Q 47.21875 7.46875 41.1875 3.015625 
Q 35.15625 -1.421875 24.609375 -1.421875 
Q 20.21875 -1.421875 15.453125 -0.5625 
Q 10.6875 0.296875 5.421875 2 
L 5.421875 11.28125 
Q 10.40625 8.6875 15.234375 7.390625 
Q 20.0625 6.109375 24.8125 6.109375 
Q 31.15625 6.109375 34.5625 8.28125 
Q 37.984375 10.453125 37.984375 14.40625 
Q 37.984375 18.0625 35.515625 20.015625 
Q 33.0625 21.96875 24.703125 23.78125 
L 21.578125 24.515625 
Q 13.234375 26.265625 9.515625 29.90625 
Q 5.8125 33.546875 5.8125 39.890625 
Q 5.8125 47.609375 11.28125 51.796875 
Q 16.75 56 26.8125 56 
Q 31.78125 56 36.171875 55.265625 
Q 40.578125 54.546875 44.28125 53.078125 
z
" id="DejaVuSans-115"/>
      <path d="M 25.390625 72.90625 
L 33.6875 72.90625 
L 8.296875 -9.28125 
L 0 -9.28125 
z
" id="DejaVuSans-47"/>
      <path d="M 45.40625 46.390625 
L 45.40625 75.984375 
L 54.390625 75.984375 
L 54.390625 0 
L 45.40625 0 
L 45.40625 8.203125 
Q 42.578125 3.328125 38.25 0.953125 
Q 33.9375 -1.421875 27.875 -1.421875 
Q 17.96875 -1.421875 11.734375 6.484375 
Q 5.515625 14.40625 5.515625 27.296875 
Q 5.515625 40.1875 11.734375 48.09375 
Q 17.96875 56 27.875 56 
Q 33.9375 56 38.25 53.625 
Q 42.578125 51.265625 45.40625 46.390625 
z
M 14.796875 27.296875 
Q 14.796875 17.390625 18.875 11.75 
Q 22.953125 6.109375 30.078125 6.109375 
Q 37.203125 6.109375 41.296875 11.75 
Q 45.40625 17.390625 45.40625 27.296875 
Q 45.40625 37.203125 41.296875 42.84375 
Q 37.203125 48.484375 30.078125 48.484375 
Q 22.953125 48.484375 18.875 42.84375 
Q 14.796875 37.203125 14.796875 27.296875 
z
" id="DejaVuSans-100"/>
      <path d="M 9.421875 54.6875 
L 18.40625 54.6875 
L 18.40625 0 
L 9.421875 0 
z
M 9.421875 75.984375 
L 18.40625 75.984375 
L 18.40625 64.59375 
L 9.421875 64.59375 
z
" id="DejaVuSans-105"/>
      <path d="M 52 44.1875 
Q 55.375 50.25 60.0625 53.125 
Q 64.75 56 71.09375 56 
Q 79.640625 56 84.28125 50.015625 
Q 88.921875 44.046875 88.921875 33.015625 
L 88.921875 0 
L 79.890625 0 
L 79.890625 32.71875 
Q 79.890625 40.578125 77.09375 44.375 
Q 74.3125 48.1875 68.609375 48.1875 
Q 61.625 48.1875 57.5625 43.546875 
Q 53.515625 38.921875 53.515625 30.90625 
L 53.515625 0 
L 44.484375 0 
L 44.484375 32.71875 
Q 44.484375 40.625 41.703125 44.40625 
Q 38.921875 48.1875 33.109375 48.1875 
Q 26.21875 48.1875 22.15625 43.53125 
Q 18.109375 38.875 18.109375 30.90625 
L 18.109375 0 
L 9.078125 0 
L 9.078125 54.6875 
L 18.109375 54.6875 
L 18.109375 46.1875 
Q 21.1875 51.21875 25.484375 53.609375 
Q 29.78125 56 35.6875 56 
Q 41.65625 56 45.828125 52.96875 
Q 50 49.953125 52 44.1875 
z
" id="DejaVuSans-109"/>
      <path d="M 54.890625 33.015625 
L 54.890625 0 
L 45.90625 0 
L 45.90625 32.71875 
Q 45.90625 40.484375 42.875 44.328125 
Q 39.84375 48.1875 33.796875 48.1875 
Q 26.515625 48.1875 22.3125 43.546875 
Q 18.109375 38.921875 18.109375 30.90625 
L 18.109375 0 
L 9.078125 0 
L 9.078125 54.6875 
L 18.109375 54.6875 
L 18.109375 46.1875 
Q 21.34375 51.125 25.703125 53.5625 
Q 30.078125 56 35.796875 56 
Q 45.21875 56 50.046875 50.171875 
Q 54.890625 44.34375 54.890625 33.015625 
z
" id="DejaVuSans-110"/>
      <path d="M 8.015625 75.875 
L 15.828125 75.875 
Q 23.140625 64.359375 26.78125 53.3125 
Q 30.421875 42.28125 30.421875 31.390625 
Q 30.421875 20.453125 26.78125 9.375 
Q 23.140625 -1.703125 15.828125 -13.1875 
L 8.015625 -13.1875 
Q 14.5 -2 17.703125 9.0625 
Q 20.90625 20.125 20.90625 31.390625 
Q 20.90625 42.671875 17.703125 53.65625 
Q 14.5 64.65625 8.015625 75.875 
z
" id="DejaVuSans-41"/>
     </defs>
     <g transform="translate(77.303219 342.217594)scale(0.17 -0.17)">
      <use xlink:href="#DejaVuSans-108"/>
      <use x="27.783203" xlink:href="#DejaVuSans-111"/>
      <use x="88.964844" xlink:href="#DejaVuSans-103"/>
      <use x="152.441406" xlink:href="#DejaVuSans-49"/>
      <use x="216.064453" xlink:href="#DejaVuSans-48"/>
      <use x="279.6875" xlink:href="#DejaVuSans-40"/>
      <use x="318.701172" xlink:href="#DejaVuSans-35"/>
      <use x="402.490234" xlink:href="#DejaVuSans-32"/>
      <use x="434.277344" xlink:href="#DejaVuSans-102"/>
      <use x="469.404297" xlink:href="#DejaVuSans-45"/>
      <use x="505.488281" xlink:href="#DejaVuSans-101"/>
      <use x="567.011719" xlink:href="#DejaVuSans-118"/>
      <use x="626.191406" xlink:href="#DejaVuSans-97"/>
      <use x="687.470703" xlink:href="#DejaVuSans-108"/>
      <use x="715.253906" xlink:href="#DejaVuSans-115"/>
      <use x="767.353516" xlink:href="#DejaVuSans-32"/>
      <use x="799.140625" xlink:href="#DejaVuSans-47"/>
      <use x="832.832031" xlink:href="#DejaVuSans-32"/>
      <use x="864.619141" xlink:href="#DejaVuSans-100"/>
      <use x="928.095703" xlink:href="#DejaVuSans-105"/>
      <use x="955.878906" xlink:href="#DejaVuSans-109"/>
      <use x="1053.291016" xlink:href="#DejaVuSans-101"/>
      <use x="1114.814453" xlink:href="#DejaVuSans-110"/>
      <use x="1178.193359" xlink:href="#DejaVuSans-115"/>
      <use x="1230.292969" xlink:href="#DejaVuSans-105"/>
      <use x="1258.076172" xlink:href="#DejaVuSans-111"/>
      <use x="1319.257812" xlink:href="#DejaVuSans-110"/>
      <use x="1382.636719" xlink:href="#DejaVuSans-41"/>
     </g>
    </g>
   </g>
   <g id="matplotlib.axis_2">
    <g id="ytick_1">
     <g id="line2d_21">
      <path clip-path="url(#p0608d4666b)" d="M 57.6 298.944 
L 338.688 298.944 
" style="fill:none;stroke:#b0b0b0;stroke-linecap:square;stroke-width:0.8;"/>
     </g>
     <g id="line2d_22">
      <defs>
       <path d="M 0 0 
L -3.5 0 
" id="m661dd5fe61" style="stroke:#000000;stroke-width:0.8;"/>
      </defs>
      <g>
       <use style="stroke:#000000;stroke-width:0.8;" x="57.6" xlink:href="#m661dd5fe61" y="298.944"/>
      </g>
     </g>
     <g id="text_6">
      <!-- 0.0 -->
      <defs>
       <path d="M 10.6875 12.40625 
L 21 12.40625 
L 21 0 
L 10.6875 0 
z
" id="DejaVuSans-46"/>
      </defs>
      <g transform="translate(25.155 305.02275)scale(0.16 -0.16)">
       <use xlink:href="#DejaVuSans-48"/>
       <use x="63.623047" xlink:href="#DejaVuSans-46"/>
       <use x="95.410156" xlink:href="#DejaVuSans-48"/>
      </g>
     </g>
    </g>
    <g id="ytick_2">
     <g id="line2d_23">
      <path clip-path="url(#p0608d4666b)" d="M 57.6 240.431525 
L 338.688 240.431525 
" style="fill:none;stroke:#b0b0b0;stroke-linecap:square;stroke-width:0.8;"/>
     </g>
     <g id="line2d_24">
      <g>
       <use style="stroke:#000000;stroke-width:0.8;" x="57.6" xlink:href="#m661dd5fe61" y="240.431525"/>
      </g>
     </g>
     <g id="text_7">
      <!-- 0.2 -->
      <g transform="translate(25.155 246.510275)scale(0.16 -0.16)">
       <use xlink:href="#DejaVuSans-48"/>
       <use x="63.623047" xlink:href="#DejaVuSans-46"/>
       <use x="95.410156" xlink:href="#DejaVuSans-50"/>
      </g>
     </g>
    </g>
    <g id="ytick_3">
     <g id="line2d_25">
      <path clip-path="url(#p0608d4666b)" d="M 57.6 181.91905 
L 338.688 181.91905 
" style="fill:none;stroke:#b0b0b0;stroke-linecap:square;stroke-width:0.8;"/>
     </g>
     <g id="line2d_26">
      <g>
       <use style="stroke:#000000;stroke-width:0.8;" x="57.6" xlink:href="#m661dd5fe61" y="181.91905"/>
      </g>
     </g>
     <g id="text_8">
      <!-- 0.4 -->
      <g transform="translate(25.155 187.9978)scale(0.16 -0.16)">
       <use xlink:href="#DejaVuSans-48"/>
       <use x="63.623047" xlink:href="#DejaVuSans-46"/>
       <use x="95.410156" xlink:href="#DejaVuSans-52"/>
      </g>
     </g>
    </g>
    <g id="ytick_4">
     <g id="line2d_27">
      <path clip-path="url(#p0608d4666b)" d="M 57.6 123.406574 
L 338.688 123.406574 
" style="fill:none;stroke:#b0b0b0;stroke-linecap:square;stroke-width:0.8;"/>
     </g>
     <g id="line2d_28">
      <g>
       <use style="stroke:#000000;stroke-width:0.8;" x="57.6" xlink:href="#m661dd5fe61" y="123.406574"/>
      </g>
     </g>
     <g id="text_9">
      <!-- 0.6 -->
      <g transform="translate(25.155 129.485324)scale(0.16 -0.16)">
       <use xlink:href="#DejaVuSans-48"/>
       <use x="63.623047" xlink:href="#DejaVuSans-46"/>
       <use x="95.410156" xlink:href="#DejaVuSans-54"/>
      </g>
     </g>
    </g>
    <g id="ytick_5">
     <g id="line2d_29">
      <path clip-path="url(#p0608d4666b)" d="M 57.6 64.894099 
L 338.688 64.894099 
" style="fill:none;stroke:#b0b0b0;stroke-linecap:square;stroke-width:0.8;"/>
     </g>
     <g id="line2d_30">
      <g>
       <use style="stroke:#000000;stroke-width:0.8;" x="57.6" xlink:href="#m661dd5fe61" y="64.894099"/>
      </g>
     </g>
     <g id="text_10">
      <!-- 0.8 -->
      <defs>
       <path d="M 31.78125 34.625 
Q 24.75 34.625 20.71875 30.859375 
Q 16.703125 27.09375 16.703125 20.515625 
Q 16.703125 13.921875 20.71875 10.15625 
Q 24.75 6.390625 31.78125 6.390625 
Q 38.8125 6.390625 42.859375 10.171875 
Q 46.921875 13.96875 46.921875 20.515625 
Q 46.921875 27.09375 42.890625 30.859375 
Q 38.875 34.625 31.78125 34.625 
z
M 21.921875 38.8125 
Q 15.578125 40.375 12.03125 44.71875 
Q 8.5 49.078125 8.5 55.328125 
Q 8.5 64.0625 14.71875 69.140625 
Q 20.953125 74.21875 31.78125 74.21875 
Q 42.671875 74.21875 48.875 69.140625 
Q 55.078125 64.0625 55.078125 55.328125 
Q 55.078125 49.078125 51.53125 44.71875 
Q 48 40.375 41.703125 38.8125 
Q 48.828125 37.15625 52.796875 32.3125 
Q 56.78125 27.484375 56.78125 20.515625 
Q 56.78125 9.90625 50.3125 4.234375 
Q 43.84375 -1.421875 31.78125 -1.421875 
Q 19.734375 -1.421875 13.25 4.234375 
Q 6.78125 9.90625 6.78125 20.515625 
Q 6.78125 27.484375 10.78125 32.3125 
Q 14.796875 37.15625 21.921875 38.8125 
z
M 18.3125 54.390625 
Q 18.3125 48.734375 21.84375 45.5625 
Q 25.390625 42.390625 31.78125 42.390625 
Q 38.140625 42.390625 41.71875 45.5625 
Q 45.3125 48.734375 45.3125 54.390625 
Q 45.3125 60.0625 41.71875 63.234375 
Q 38.140625 66.40625 31.78125 66.40625 
Q 25.390625 66.40625 21.84375 63.234375 
Q 18.3125 60.0625 18.3125 54.390625 
z
" id="DejaVuSans-56"/>
      </defs>
      <g transform="translate(25.155 70.972849)scale(0.16 -0.16)">
       <use xlink:href="#DejaVuSans-48"/>
       <use x="63.623047" xlink:href="#DejaVuSans-46"/>
       <use x="95.410156" xlink:href="#DejaVuSans-56"/>
      </g>
     </g>
    </g>
    <g id="ytick_6">
     <g id="line2d_31">
      <path clip-path="url(#p0608d4666b)" d="M 57.6 6.381624 
L 338.688 6.381624 
" style="fill:none;stroke:#b0b0b0;stroke-linecap:square;stroke-width:0.8;"/>
     </g>
     <g id="line2d_32">
      <g>
       <use style="stroke:#000000;stroke-width:0.8;" x="57.6" xlink:href="#m661dd5fe61" y="6.381624"/>
      </g>
     </g>
     <g id="text_11">
      <!-- 1.0 -->
      <g transform="translate(25.155 12.460374)scale(0.16 -0.16)">
       <use xlink:href="#DejaVuSans-49"/>
       <use x="63.623047" xlink:href="#DejaVuSans-46"/>
       <use x="95.410156" xlink:href="#DejaVuSans-48"/>
      </g>
     </g>
    </g>
    <g id="text_12">
     <!-- Fraction of function,target pairs -->
     <defs>
      <path d="M 9.8125 72.90625 
L 51.703125 72.90625 
L 51.703125 64.59375 
L 19.671875 64.59375 
L 19.671875 43.109375 
L 48.578125 43.109375 
L 48.578125 34.8125 
L 19.671875 34.8125 
L 19.671875 0 
L 9.8125 0 
z
" id="DejaVuSans-70"/>
      <path d="M 41.109375 46.296875 
Q 39.59375 47.171875 37.8125 47.578125 
Q 36.03125 48 33.890625 48 
Q 26.265625 48 22.1875 43.046875 
Q 18.109375 38.09375 18.109375 28.8125 
L 18.109375 0 
L 9.078125 0 
L 9.078125 54.6875 
L 18.109375 54.6875 
L 18.109375 46.1875 
Q 20.953125 51.171875 25.484375 53.578125 
Q 30.03125 56 36.53125 56 
Q 37.453125 56 38.578125 55.875 
Q 39.703125 55.765625 41.0625 55.515625 
z
" id="DejaVuSans-114"/>
      <path d="M 48.78125 52.59375 
L 48.78125 44.1875 
Q 44.96875 46.296875 41.140625 47.34375 
Q 37.3125 48.390625 33.40625 48.390625 
Q 24.65625 48.390625 19.8125 42.84375 
Q 14.984375 37.3125 14.984375 27.296875 
Q 14.984375 17.28125 19.8125 11.734375 
Q 24.65625 6.203125 33.40625 6.203125 
Q 37.3125 6.203125 41.140625 7.25 
Q 44.96875 8.296875 48.78125 10.40625 
L 48.78125 2.09375 
Q 45.015625 0.34375 40.984375 -0.53125 
Q 36.96875 -1.421875 32.421875 -1.421875 
Q 20.0625 -1.421875 12.78125 6.34375 
Q 5.515625 14.109375 5.515625 27.296875 
Q 5.515625 40.671875 12.859375 48.328125 
Q 20.21875 56 33.015625 56 
Q 37.15625 56 41.109375 55.140625 
Q 45.0625 54.296875 48.78125 52.59375 
z
" id="DejaVuSans-99"/>
      <path d="M 18.3125 70.21875 
L 18.3125 54.6875 
L 36.8125 54.6875 
L 36.8125 47.703125 
L 18.3125 47.703125 
L 18.3125 18.015625 
Q 18.3125 11.328125 20.140625 9.421875 
Q 21.96875 7.515625 27.59375 7.515625 
L 36.8125 7.515625 
L 36.8125 0 
L 27.59375 0 
Q 17.1875 0 13.234375 3.875 
Q 9.28125 7.765625 9.28125 18.015625 
L 9.28125 47.703125 
L 2.6875 47.703125 
L 2.6875 54.6875 
L 9.28125 54.6875 
L 9.28125 70.21875 
z
" id="DejaVuSans-116"/>
      <path d="M 8.5 21.578125 
L 8.5 54.6875 
L 17.484375 54.6875 
L 17.484375 21.921875 
Q 17.484375 14.15625 20.5 10.265625 
Q 23.53125 6.390625 29.59375 6.390625 
Q 36.859375 6.390625 41.078125 11.03125 
Q 45.3125 15.671875 45.3125 23.6875 
L 45.3125 54.6875 
L 54.296875 54.6875 
L 54.296875 0 
L 45.3125 0 
L 45.3125 8.40625 
Q 42.046875 3.421875 37.71875 1 
Q 33.40625 -1.421875 27.6875 -1.421875 
Q 18.265625 -1.421875 13.375 4.4375 
Q 8.5 10.296875 8.5 21.578125 
z
M 31.109375 56 
z
" id="DejaVuSans-117"/>
      <path d="M 11.71875 12.40625 
L 22.015625 12.40625 
L 22.015625 4 
L 14.015625 -11.625 
L 7.71875 -11.625 
L 11.71875 4 
z
" id="DejaVuSans-44"/>
      <path d="M 18.109375 8.203125 
L 18.109375 -20.796875 
L 9.078125 -20.796875 
L 9.078125 54.6875 
L 18.109375 54.6875 
L 18.109375 46.390625 
Q 20.953125 51.265625 25.265625 53.625 
Q 29.59375 56 35.59375 56 
Q 45.5625 56 51.78125 48.09375 
Q 58.015625 40.1875 58.015625 27.296875 
Q 58.015625 14.40625 51.78125 6.484375 
Q 45.5625 -1.421875 35.59375 -1.421875 
Q 29.59375 -1.421875 25.265625 0.953125 
Q 20.953125 3.328125 18.109375 8.203125 
z
M 48.6875 27.296875 
Q 48.6875 37.203125 44.609375 42.84375 
Q 40.53125 48.484375 33.40625 48.484375 
Q 26.265625 48.484375 22.1875 42.84375 
Q 18.109375 37.203125 18.109375 27.296875 
Q 18.109375 17.390625 22.1875 11.75 
Q 26.265625 6.109375 33.40625 6.109375 
Q 40.53125 6.109375 44.609375 11.75 
Q 48.6875 17.390625 48.6875 27.296875 
z
" id="DejaVuSans-112"/>
     </defs>
     <g transform="translate(17.619531 286.339375)rotate(-90)scale(0.17 -0.17)">
      <use xlink:href="#DejaVuSans-70"/>
      <use x="57.410156" xlink:href="#DejaVuSans-114"/>
      <use x="98.523438" xlink:href="#DejaVuSans-97"/>
      <use x="159.802734" xlink:href="#DejaVuSans-99"/>
      <use x="214.783203" xlink:href="#DejaVuSans-116"/>
      <use x="253.992188" xlink:href="#DejaVuSans-105"/>
      <use x="281.775391" xlink:href="#DejaVuSans-111"/>
      <use x="342.957031" xlink:href="#DejaVuSans-110"/>
      <use x="406.335938" xlink:href="#DejaVuSans-32"/>
      <use x="438.123047" xlink:href="#DejaVuSans-111"/>
      <use x="499.304688" xlink:href="#DejaVuSans-102"/>
      <use x="534.509766" xlink:href="#DejaVuSans-32"/>
      <use x="566.296875" xlink:href="#DejaVuSans-102"/>
      <use x="601.501953" xlink:href="#DejaVuSans-117"/>
      <use x="664.880859" xlink:href="#DejaVuSans-110"/>
      <use x="728.259766" xlink:href="#DejaVuSans-99"/>
      <use x="783.240234" xlink:href="#DejaVuSans-116"/>
      <use x="822.449219" xlink:href="#DejaVuSans-105"/>
      <use x="850.232422" xlink:href="#DejaVuSans-111"/>
      <use x="911.414062" xlink:href="#DejaVuSans-110"/>
      <use x="974.792969" xlink:href="#DejaVuSans-44"/>
      <use x="1006.580078" xlink:href="#DejaVuSans-116"/>
      <use x="1045.789062" xlink:href="#DejaVuSans-97"/>
      <use x="1107.068359" xlink:href="#DejaVuSans-114"/>
      <use x="1148.166016" xlink:href="#DejaVuSans-103"/>
      <use x="1211.642578" xlink:href="#DejaVuSans-101"/>
      <use x="1273.166016" xlink:href="#DejaVuSans-116"/>
      <use x="1312.375" xlink:href="#DejaVuSans-32"/>
      <use x="1344.162109" xlink:href="#DejaVuSans-112"/>
      <use x="1407.638672" xlink:href="#DejaVuSans-97"/>
      <use x="1468.917969" xlink:href="#DejaVuSans-105"/>
      <use x="1496.701172" xlink:href="#DejaVuSans-114"/>
      <use x="1537.814453" xlink:href="#DejaVuSans-115"/>
     </g>
    </g>
   </g>
   <g id="line2d_33">
    <defs>
     <path d="M 0 1.5 
C 0.397805 1.5 0.77937 1.341951 1.06066 1.06066 
C 1.341951 0.77937 1.5 0.397805 1.5 0 
C 1.5 -0.397805 1.341951 -0.77937 1.06066 -1.06066 
C 0.77937 -1.341951 0.397805 -1.5 0 -1.5 
C -0.397805 -1.5 -0.77937 -1.341951 -1.06066 -1.06066 
C -1.341951 -0.77937 -1.5 -0.397805 -1.5 0 
C -1.5 0.397805 -1.341951 0.77937 -1.06066 1.06066 
C -0.77937 1.341951 -0.397805 1.5 0 1.5 
z
" id="m321c9f6c55" style="stroke:#f5deb3;"/>
    </defs>
    <g>
     <use style="fill:#f5deb3;stroke:#f5deb3;" x="326.008163" xlink:href="#m321c9f6c55" y="41.690876"/>
     <use style="fill:#f5deb3;stroke:#f5deb3;" x="326.008163" xlink:href="#m321c9f6c55" y="41.690876"/>
    </g>
   </g>
   <g id="line2d_34">
    <defs>
     <path d="M 0 1.5 
C 0.397805 1.5 0.77937 1.341951 1.06066 1.06066 
C 1.341951 0.77937 1.5 0.397805 1.5 0 
C 1.5 -0.397805 1.341951 -0.77937 1.06066 -1.06066 
C 0.77937 -1.341951 0.397805 -1.5 0 -1.5 
C -0.397805 -1.5 -0.77937 -1.341951 -1.06066 -1.06066 
C -1.341951 -0.77937 -1.5 -0.397805 -1.5 0 
C -1.5 0.397805 -1.341951 0.77937 -1.06066 1.06066 
C -0.77937 1.341951 -0.397805 1.5 0 1.5 
z
" id="m421e13b710" style="stroke:#000080;"/>
    </defs>
    <g>
     <use style="fill:#000080;stroke:#000080;" x="216.31246" xlink:href="#m421e13b710" y="197.556004"/>
     <use style="fill:#000080;stroke:#000080;" x="216.31246" xlink:href="#m421e13b710" y="197.556004"/>
    </g>
   </g>
   <g id="line2d_35">
    <path d="M 38.440992 298.944 
L 38.440992 290.873314 
L 57.6 290.873314 
L 57.6 289.36006 
L 62.616969 289.36006 
L 62.616969 289.107851 
L 66.508432 289.107851 
L 66.508432 288.855642 
L 69.687988 288.855642 
L 69.687988 288.099015 
L 74.704957 288.099015 
L 74.704957 287.846806 
L 76.759008 287.846806 
L 76.759008 287.594597 
L 78.59642 287.594597 
L 78.59642 287.342389 
L 83.171864 287.342389 
L 83.171864 286.585762 
L 84.464254 286.585762 
L 84.464254 285.324717 
L 86.792945 285.324717 
L 86.792945 284.56809 
L 87.850195 284.56809 
L 87.850195 283.559254 
L 88.846997 283.559254 
L 88.846997 283.054836 
L 91.535274 283.054836 
L 91.535274 282.802628 
L 92.34655 282.802628 
L 92.34655 282.550419 
L 93.121756 282.550419 
L 93.121756 282.29821 
L 93.863965 282.29821 
L 93.863965 282.046001 
L 94.575872 282.046001 
L 94.575872 281.793792 
L 95.259853 281.793792 
L 95.259853 281.541583 
L 95.918017 281.541583 
L 95.918017 280.532747 
L 96.552242 280.532747 
L 96.552242 280.028329 
L 97.16421 280.028329 
L 97.16421 279.77612 
L 97.755429 279.77612 
L 97.755429 279.523911 
L 98.880934 279.523911 
L 98.880934 278.515075 
L 99.938184 278.515075 
L 99.938184 278.010658 
L 100.443706 278.010658 
L 100.443706 276.749613 
L 100.934985 276.749613 
L 100.934985 276.497404 
L 101.412804 276.497404 
L 101.412804 276.245195 
L 102.330873 276.245195 
L 102.330873 275.992986 
L 103.203018 275.992986 
L 103.203018 274.98415 
L 103.623262 274.98415 
L 103.623262 274.731941 
L 104.033617 274.731941 
L 104.033617 274.479732 
L 104.826449 274.479732 
L 104.826449 274.227523 
L 105.584798 274.227523 
L 105.584798 273.723105 
L 107.009204 273.723105 
L 107.009204 272.966479 
L 107.347841 272.966479 
L 107.347841 272.209852 
L 107.680028 272.209852 
L 107.680028 271.957643 
L 108.006005 271.957643 
L 108.006005 271.705434 
L 108.326001 271.705434 
L 108.326001 271.453225 
L 108.948899 271.453225 
L 108.948899 271.201016 
L 110.694282 271.201016 
L 110.694282 270.696598 
L 110.968922 270.696598 
L 110.968922 270.444389 
L 111.767808 270.444389 
L 111.767808 269.939971 
L 112.026172 269.939971 
L 112.026172 269.183344 
L 112.280765 269.183344 
L 112.280765 268.678927 
L 112.531694 268.678927 
L 112.531694 268.426718 
L 112.779064 268.426718 
L 112.779064 267.9223 
L 113.022974 267.9223 
L 113.022974 267.670091 
L 113.73488 267.670091 
L 113.73488 267.165673 
L 114.193835 267.165673 
L 114.193835 266.661255 
L 114.418861 266.661255 
L 114.418861 266.409046 
L 114.860386 266.409046 
L 114.860386 265.904628 
L 115.077025 265.904628 
L 115.077025 265.652419 
L 115.502395 265.652419 
L 115.502395 265.40021 
L 115.917635 265.40021 
L 115.917635 265.148001 
L 116.323218 265.148001 
L 116.323218 264.895792 
L 116.719583 264.895792 
L 116.719583 264.643583 
L 116.914437 264.643583 
L 116.914437 264.391375 
L 117.107138 264.391375 
L 117.107138 263.382539 
L 117.857331 263.382539 
L 117.857331 262.878121 
L 118.039942 262.878121 
L 118.039942 262.373703 
L 118.751849 262.373703 
L 118.751849 262.121494 
L 119.097192 262.121494 
L 119.097192 261.869285 
L 119.602714 261.869285 
L 119.602714 261.617076 
L 119.768017 261.617076 
L 119.768017 260.860449 
L 119.931767 260.860449 
L 119.931767 260.60824 
L 120.41399 260.60824 
L 120.41399 260.356031 
L 120.883236 260.356031 
L 120.883236 259.851614 
L 121.638301 259.851614 
L 121.638301 259.599405 
L 121.785469 259.599405 
L 121.785469 259.347196 
L 122.503236 259.347196 
L 122.503236 259.094987 
L 122.782271 259.094987 
L 122.782271 258.842778 
L 123.327293 258.842778 
L 123.327293 258.33836 
L 124.114161 258.33836 
L 124.114161 257.329524 
L 124.619683 257.329524 
L 124.619683 256.572897 
L 124.743806 256.572897 
L 124.743806 255.311853 
L 124.989434 255.311853 
L 124.989434 254.807435 
L 125.23165 254.807435 
L 125.23165 254.555226 
L 125.822869 254.555226 
L 125.822869 254.303017 
L 125.938745 254.303017 
L 125.938745 253.798599 
L 126.618283 253.798599 
L 126.618283 253.54639 
L 126.948374 253.54639 
L 126.948374 252.789763 
L 127.165014 252.789763 
L 127.165014 252.537554 
L 127.378995 252.537554 
L 127.378995 252.285345 
L 128.310692 252.285345 
L 128.310692 251.780927 
L 129.099042 251.780927 
L 129.099042 251.528718 
L 129.574256 251.528718 
L 129.574256 251.276509 
L 129.853291 251.276509 
L 129.853291 251.0243 
L 130.664567 251.0243 
L 130.664567 250.519883 
L 131.099484 250.519883 
L 131.099484 250.015465 
L 131.523818 250.015465 
L 131.523818 249.763256 
L 131.690703 249.763256 
L 131.690703 249.511047 
L 132.181982 249.511047 
L 132.181982 249.006629 
L 132.422528 249.006629 
L 132.422528 248.75442 
L 132.581068 248.75442 
L 132.581068 247.745584 
L 132.816208 247.745584 
L 132.816208 247.493375 
L 133.04822 247.493375 
L 133.04822 247.241166 
L 133.352844 247.241166 
L 133.352844 246.988957 
L 133.873458 246.988957 
L 133.873458 245.980122 
L 134.450015 245.980122 
L 134.450015 245.475704 
L 137.016339 245.475704 
L 137.016339 245.223495 
L 137.138292 245.223495 
L 137.138292 244.971286 
L 137.499118 244.971286 
L 137.499118 244.719077 
L 140.44901 244.719077 
L 140.44901 244.466868 
L 140.79731 244.466868 
L 140.79731 244.214659 
L 140.944478 244.214659 
L 141.041904 243.205823 
L 141.187031 243.205823 
L 141.283115 242.196987 
L 141.80232 242.196987 
L 141.80232 241.692569 
L 142.396639 241.692569 
L 142.396639 241.188152 
L 142.619936 241.188152 
L 142.619936 240.935943 
L 142.971369 240.935943 
L 142.971369 240.431525 
L 145.327221 240.431525 
L 145.327221 240.179316 
L 145.478539 240.179316 
L 145.478539 239.927107 
L 145.703082 239.927107 
L 145.703082 239.674898 
L 145.814278 239.674898 
L 145.814278 239.422689 
L 146.034567 239.422689 
L 146.143677 238.666062 
L 146.252108 238.666062 
L 146.252108 238.161644 
L 146.854132 238.161644 
L 146.854132 237.909435 
L 146.992815 237.909435 
L 146.992815 237.405017 
L 147.4697 237.405017 
L 147.4697 236.9006 
L 148.096724 236.9006 
L 148.096724 236.648391 
L 148.258051 236.648391 
L 148.354135 235.891764 
L 148.639252 235.891764 
L 148.639252 235.639555 
L 148.950676 235.639555 
L 149.043029 234.630719 
L 149.195872 234.630719 
L 149.195872 234.37851 
L 149.587107 234.37851 
L 149.587107 233.874092 
L 151.394733 233.874092 
L 151.394733 233.369674 
L 152.078714 233.369674 
L 152.078714 233.117465 
L 152.761703 233.117465 
L 152.761703 232.613047 
L 153.867041 232.613047 
L 153.890309 232.10863 
L 154.507086 232.10863 
L 154.507086 231.604212 
L 155.189341 231.604212 
L 155.189341 231.352003 
L 156.498681 231.352003 
L 156.498681 230.847585 
L 157.050478 230.847585 
L 157.147202 230.090958 
L 158.213527 230.090958 
L 158.213527 229.838749 
L 158.376091 229.838749 
L 158.376091 229.58654 
L 158.924708 229.58654 
L 158.924708 229.082122 
L 159.354904 229.082122 
L 159.354904 228.829913 
L 159.490356 228.829913 
L 159.490356 228.577704 
L 159.906985 228.577704 
L 159.906985 228.073286 
L 161.131018 228.073286 
L 161.131018 227.568869 
L 161.299072 227.568869 
L 161.299072 227.31666 
L 161.420284 227.31666 
L 161.420284 226.812242 
L 162.173813 226.812242 
L 162.173813 226.560033 
L 163.19871 226.560033 
L 163.19871 226.055615 
L 165.120455 226.055615 
L 165.120455 225.551197 
L 165.242153 225.551197 
L 165.242153 225.046779 
L 165.363008 225.046779 
L 165.363008 224.542361 
L 166.505065 224.542361 
L 166.505065 224.037943 
L 168.354881 224.037943 
L 168.354881 223.533525 
L 168.982583 223.533525 
L 168.982583 223.029108 
L 169.94401 223.029108 
L 169.94401 222.52469 
L 170.740545 222.52469 
L 170.740545 222.272481 
L 171.177424 222.272481 
L 171.177424 221.768063 
L 171.476854 221.768063 
L 171.476854 221.515854 
L 172.442055 221.515854 
L 172.442055 221.011436 
L 172.870132 221.011436 
L 172.870132 220.759227 
L 173.188276 220.759227 
L 173.188276 220.507018 
L 174.211117 220.507018 
L 174.211117 220.254809 
L 175.177275 220.254809 
L 175.177275 219.750391 
L 175.617599 219.750391 
L 175.617599 218.993764 
L 175.9292 218.993764 
L 175.9292 218.489347 
L 176.125223 218.489347 
L 176.125223 218.237138 
L 176.472605 218.237138 
L 176.472605 217.984929 
L 180.15647 217.984929 
L 180.15647 217.480511 
L 180.427645 217.480511 
L 180.427645 216.976093 
L 180.659634 216.976093 
L 180.664644 216.219466 
L 181.390568 216.219466 
L 181.390568 215.967257 
L 182.987073 215.967257 
L 182.987073 215.715048 
L 183.590271 215.715048 
L 183.590271 215.462839 
L 183.863389 215.462839 
L 183.863389 214.958421 
L 184.226462 214.958421 
L 184.311999 214.201794 
L 184.522016 214.201794 
L 184.542078 213.445168 
L 184.867832 213.445168 
L 184.867832 212.94075 
L 186.375078 212.94075 
L 186.375078 212.688541 
L 186.802969 212.688541 
L 186.802969 212.436332 
L 187.179296 212.436332 
L 187.179296 212.184123 
L 187.872026 212.184123 
L 187.872026 211.931914 
L 188.432739 211.931914 
L 188.432739 211.427496 
L 188.772672 211.427496 
L 188.772672 210.923078 
L 190.613229 210.923078 
L 190.613229 210.41866 
L 192.02653 210.41866 
L 192.02653 210.166451 
L 192.664764 210.166451 
L 192.664764 209.662033 
L 193.080093 209.662033 
L 193.080093 209.157616 
L 193.328986 209.157616 
L 193.328986 208.905407 
L 194.216962 208.905407 
L 194.216962 208.400989 
L 194.789981 208.400989 
L 194.789981 208.14878 
L 195.216961 208.14878 
L 195.216961 207.644362 
L 195.563541 207.644362 
L 195.563541 207.392153 
L 195.769073 207.392153 
L 195.769073 206.887735 
L 196.432463 206.887735 
L 196.432463 206.383317 
L 197.174841 206.383317 
L 197.279465 205.62669 
L 197.34502 205.62669 
L 197.366176 204.617855 
L 198.425121 204.617855 
L 198.425121 204.113437 
L 199.180892 204.113437 
L 199.180892 203.609019 
L 199.353252 203.609019 
L 199.353252 203.104601 
L 199.983189 203.104601 
L 199.983189 202.852392 
L 200.475756 202.852392 
L 200.475756 202.600183 
L 201.057752 202.600183 
L 201.057752 202.347974 
L 201.586278 202.347974 
L 201.658559 201.843556 
L 202.840795 201.843556 
L 202.840795 201.339138 
L 204.055679 201.339138 
L 204.055679 200.83472 
L 204.335025 200.83472 
L 204.335025 200.582511 
L 205.07197 200.582511 
L 205.07197 200.330302 
L 206.213763 200.330302 
L 206.213763 199.825885 
L 207.826491 199.825885 
L 207.826491 199.573676 
L 207.940068 199.573676 
L 207.940068 199.069258 
L 209.308438 199.069258 
L 209.308438 198.817049 
L 212.107534 198.817049 
L 212.107534 198.56484 
L 212.471835 198.56484 
L 212.471835 198.312631 
L 215.945428 198.312631 
L 215.945428 197.808213 
L 216.31246 197.808213 
L 216.31246 197.556004 
L 338.688 197.556004 
L 338.688 197.556004 
" style="fill:none;stroke:#000080;stroke-linecap:square;stroke-width:1.5;"/>
   </g>
   <g id="line2d_36">
    <defs>
     <path d="M 0 6 
C 1.591219 6 3.117479 5.367802 4.242641 4.242641 
C 5.367802 3.117479 6 1.591219 6 0 
C 6 -1.591219 5.367802 -3.117479 4.242641 -4.242641 
C 3.117479 -5.367802 1.591219 -6 0 -6 
C -1.591219 -6 -3.117479 -5.367802 -4.242641 -4.242641 
C -5.367802 -3.117479 -6 -1.591219 -6 0 
C -6 1.591219 -5.367802 3.117479 -4.242641 4.242641 
C -3.117479 5.367802 -1.591219 6 0 6 
z
" id="ma385ba5397" style="stroke:#000080;stroke-width:1.5;"/>
    </defs>
    <g>
     <use style="fill-opacity:0;stroke:#000080;stroke-width:1.5;" x="122.503236" xlink:href="#ma385ba5397" y="259.094987"/>
     <use style="fill-opacity:0;stroke:#000080;stroke-width:1.5;" x="192.664764" xlink:href="#ma385ba5397" y="209.662033"/>
     <use style="fill-opacity:0;stroke:#000080;stroke-width:1.5;" x="216.31246" xlink:href="#ma385ba5397" y="197.808213"/>
     <use style="fill-opacity:0;stroke:#000080;stroke-width:1.5;" x="216.31246" xlink:href="#ma385ba5397" y="197.556004"/>
     <use style="fill-opacity:0;stroke:#000080;stroke-width:1.5;" x="216.31246" xlink:href="#ma385ba5397" y="197.556004"/>
     <use style="fill-opacity:0;stroke:#000080;stroke-width:1.5;" x="338.688" xlink:href="#ma385ba5397" y="197.556004"/>
    </g>
   </g>
   <g id="line2d_37">
    <path style="fill:none;stroke:#000080;stroke-linecap:square;stroke-width:1.5;"/>
    <g/>
   </g>
   <g id="line2d_38">
    <path clip-path="url(#p0608d4666b)" d="M 218.224039 197.556004 
" style="fill:none;stroke:#000080;stroke-linecap:square;stroke-width:1.5;"/>
    <defs>
     <path d="M -12 12 
L 12 -12 
M -12 -12 
L 12 12 
" id="m4e78ae2324" style="stroke:#000080;"/>
    </defs>
    <g clip-path="url(#p0608d4666b)">
     <use style="fill:#000080;stroke:#000080;" x="218.224039" xlink:href="#m4e78ae2324" y="197.556004"/>
    </g>
   </g>
   <g id="line2d_39">
    <defs>
     <path d="M 0 1.5 
C 0.397805 1.5 0.77937 1.341951 1.06066 1.06066 
C 1.341951 0.77937 1.5 0.397805 1.5 0 
C 1.5 -0.397805 1.341951 -0.77937 1.06066 -1.06066 
C 0.77937 -1.341951 0.397805 -1.5 0 -1.5 
C -0.397805 -1.5 -0.77937 -1.341951 -1.06066 -1.06066 
C -1.341951 -0.77937 -1.5 -0.397805 -1.5 0 
C -1.5 0.397805 -1.341951 0.77937 -1.06066 1.06066 
C -0.77937 1.341951 -0.397805 1.5 0 1.5 
z
" id="m78cea60c2b" style="stroke:#ff00ff;"/>
    </defs>
    <g>
     <use style="fill:#ff00ff;stroke:#ff00ff;" x="206.582486" xlink:href="#m78cea60c2b" y="226.812242"/>
     <use style="fill:#ff00ff;stroke:#ff00ff;" x="206.582486" xlink:href="#m78cea60c2b" y="226.812242"/>
    </g>
   </g>
   <g id="line2d_40">
    <path d="M 38.440992 298.944 
L 38.440992 290.873314 
L 57.6 290.873314 
L 57.6 290.116687 
L 62.616969 290.116687 
L 62.616969 289.864478 
L 66.508432 289.864478 
L 66.508432 288.099015 
L 69.687988 288.099015 
L 69.687988 287.09018 
L 74.704957 287.09018 
L 74.704957 285.576926 
L 76.759008 285.576926 
L 76.759008 285.324717 
L 80.258561 285.324717 
L 80.258561 284.063672 
L 81.775977 284.063672 
L 81.775977 283.811463 
L 88.846997 283.811463 
L 88.846997 283.054836 
L 89.78989 283.054836 
L 89.78989 282.802628 
L 90.684409 282.802628 
L 90.684409 282.046001 
L 91.535274 282.046001 
L 91.535274 281.037165 
L 93.863965 281.037165 
L 93.863965 280.784956 
L 94.575872 280.784956 
L 94.575872 279.271702 
L 95.259853 279.271702 
L 95.259853 279.019493 
L 95.918017 279.019493 
L 95.918017 278.767284 
L 97.16421 278.767284 
L 97.16421 278.515075 
L 97.755429 278.515075 
L 97.755429 278.262867 
L 98.32726 278.262867 
L 98.32726 277.758449 
L 99.41757 277.758449 
L 99.41757 276.749613 
L 100.443706 276.749613 
L 100.443706 276.245195 
L 100.934985 276.245195 
L 100.934985 275.236359 
L 102.772397 275.236359 
L 102.772397 274.98415 
L 103.203018 274.98415 
L 103.203018 274.731941 
L 104.033617 274.731941 
L 104.033617 274.227523 
L 104.826449 274.227523 
L 104.826449 273.975314 
L 105.209745 273.975314 
L 105.209745 273.723105 
L 105.951954 273.723105 
L 105.951954 273.470897 
L 107.009204 273.470897 
L 107.009204 272.71427 
L 107.347841 272.71427 
L 107.347841 272.462061 
L 108.006005 272.462061 
L 108.006005 271.957643 
L 108.326001 271.957643 
L 108.326001 271.705434 
L 108.948899 271.705434 
L 108.948899 271.453225 
L 109.252198 271.453225 
L 109.252198 271.201016 
L 109.550313 271.201016 
L 109.550313 270.948807 
L 110.968922 270.948807 
L 110.968922 270.696598 
L 112.531694 270.696598 
L 112.531694 269.435553 
L 113.022974 269.435553 
L 113.022974 268.678927 
L 114.193835 268.678927 
L 114.193835 268.426718 
L 114.860386 268.426718 
L 114.860386 268.174509 
L 115.917635 268.174509 
L 115.917635 267.670091 
L 116.719583 267.670091 
L 116.719583 266.913464 
L 116.914437 266.913464 
L 116.914437 266.409046 
L 117.107138 266.409046 
L 117.107138 266.156837 
L 117.857331 266.156837 
L 117.857331 265.904628 
L 118.039942 265.904628 
L 118.039942 265.652419 
L 118.220662 265.652419 
L 118.220662 265.40021 
L 118.751849 265.40021 
L 118.751849 264.139166 
L 118.925375 264.139166 
L 118.925375 263.886957 
L 119.43583 263.886957 
L 119.43583 263.634748 
L 119.768017 263.634748 
L 119.768017 262.373703 
L 120.41399 262.373703 
L 120.41399 261.869285 
L 121.189196 261.869285 
L 121.189196 261.364867 
L 121.489881 261.364867 
L 121.489881 261.112658 
L 121.785469 261.112658 
L 121.785469 260.60824 
L 122.219665 260.60824 
L 122.219665 260.356031 
L 122.362027 260.356031 
L 122.362027 260.103822 
L 122.643312 260.103822 
L 122.643312 259.851614 
L 123.056911 259.851614 
L 123.056911 259.094987 
L 123.725164 259.094987 
L 123.725164 258.842778 
L 123.985457 258.842778 
L 123.985457 258.33836 
L 124.241922 258.33836 
L 124.241922 258.086151 
L 124.867052 258.086151 
L 124.867052 257.833942 
L 125.23165 257.833942 
L 125.23165 257.581733 
L 125.588781 257.581733 
L 125.588781 256.825106 
L 125.822869 256.825106 
L 125.822869 256.572897 
L 126.281824 256.572897 
L 126.281824 256.320688 
L 126.3947 256.320688 
L 126.3947 256.068479 
L 126.618283 256.068479 
L 126.618283 255.81627 
L 126.948374 255.81627 
L 127.05703 254.303017 
L 127.272333 254.303017 
L 127.378995 253.54639 
L 127.48501 253.54639 
L 127.590383 252.789763 
L 127.902737 252.789763 
L 127.902737 252.537554 
L 128.310692 252.537554 
L 128.310692 252.285345 
L 129.002426 252.285345 
L 129.099042 251.528718 
L 129.480244 251.528718 
L 129.480244 251.0243 
L 129.760775 251.0243 
L 129.760775 250.267674 
L 131.099484 250.267674 
L 131.099484 249.763256 
L 131.355321 249.763256 
L 131.355321 249.006629 
L 131.523818 249.006629 
L 131.523818 248.75442 
L 131.856005 248.75442 
L 131.856005 248.250002 
L 132.659801 248.250002 
L 132.659801 247.997793 
L 133.352844 247.997793 
L 133.352844 247.745584 
L 134.307653 247.745584 
L 134.307653 247.493375 
L 135.00812 247.493375 
L 135.00812 247.241166 
L 135.212889 247.241166 
L 135.212889 246.988957 
L 135.615352 246.988957 
L 135.615352 246.23233 
L 135.747468 246.23233 
L 135.747468 245.727913 
L 136.008736 245.727913 
L 136.008736 245.475704 
L 136.769843 245.475704 
L 136.769843 244.971286 
L 136.893527 244.971286 
L 136.955041 244.214659 
L 137.439497 244.214659 
L 137.439497 243.96245 
L 137.735587 243.96245 
L 137.735587 243.458032 
L 137.910857 243.458032 
L 137.910857 242.953614 
L 138.141844 242.953614 
L 138.141844 242.196987 
L 139.036363 242.196987 
L 139.036363 241.692569 
L 139.253002 241.692569 
L 139.360321 241.188152 
L 139.413734 241.188152 
L 139.413734 240.935943 
L 139.783113 240.935943 
L 139.783113 240.683734 
L 140.297583 240.683734 
L 140.297583 239.927107 
L 141.987354 239.927107 
L 142.033307 238.666062 
L 142.306513 238.666062 
L 142.306513 238.413853 
L 142.708461 238.413853 
L 142.752555 237.909435 
L 143.187472 237.909435 
L 143.273169 236.9006 
L 143.569835 236.9006 
L 143.569835 236.396182 
L 145.516164 236.396182 
L 145.516164 236.143973 
L 146.359869 236.143973 
L 146.359869 235.891764 
L 148.733265 235.891764 
L 148.733265 235.639555 
L 148.919783 235.639555 
L 148.981515 234.882928 
L 149.165411 234.882928 
L 149.165411 234.630719 
L 149.527485 234.630719 
L 149.527485 234.126301 
L 150.682827 234.126301 
L 150.682827 233.621883 
L 152.786492 233.621883 
L 152.786492 233.369674 
L 156.317544 233.369674 
L 156.317544 233.117465 
L 156.796456 233.117465 
L 156.796456 232.613047 
L 157.28172 232.613047 
L 157.28172 232.10863 
L 158.376091 232.10863 
L 158.39406 231.352003 
L 160.249422 231.352003 
L 160.249422 231.099794 
L 161.823263 231.099794 
L 161.823263 230.847585 
L 164.205356 230.847585 
L 164.205356 230.343167 
L 167.136471 230.343167 
L 167.136471 230.090958 
L 167.255733 230.090958 
L 167.255733 229.838749 
L 167.395635 229.838749 
L 167.395635 229.58654 
L 168.354881 229.58654 
L 168.354881 229.334331 
L 169.897641 229.334331 
L 169.897641 228.829913 
L 174.211117 228.829913 
L 174.211117 228.577704 
L 187.296108 228.577704 
L 187.296108 228.073286 
L 188.141592 228.073286 
L 188.141592 227.568869 
L 201.738023 227.568869 
L 201.738023 227.31666 
L 206.582486 227.31666 
L 206.582486 226.812242 
L 338.688 226.812242 
L 338.688 226.812242 
" style="fill:none;stroke:#ff00ff;stroke-linecap:square;stroke-width:1.5;"/>
   </g>
   <g id="line2d_41">
    <defs>
     <path d="M 0 8.485281 
L 5.091169 0 
L 0 -8.485281 
L -5.091169 0 
z
" id="m778e3b2129" style="stroke:#ff00ff;stroke-linejoin:miter;stroke-width:1.5;"/>
    </defs>
    <g>
     <use style="fill-opacity:0;stroke:#ff00ff;stroke-linejoin:miter;stroke-width:1.5;" x="97.755429" xlink:href="#m778e3b2129" y="278.262867"/>
     <use style="fill-opacity:0;stroke:#ff00ff;stroke-linejoin:miter;stroke-width:1.5;" x="157.28172" xlink:href="#m778e3b2129" y="232.613047"/>
     <use style="fill-opacity:0;stroke:#ff00ff;stroke-linejoin:miter;stroke-width:1.5;" x="206.582486" xlink:href="#m778e3b2129" y="227.31666"/>
     <use style="fill-opacity:0;stroke:#ff00ff;stroke-linejoin:miter;stroke-width:1.5;" x="206.582486" xlink:href="#m778e3b2129" y="226.812242"/>
     <use style="fill-opacity:0;stroke:#ff00ff;stroke-linejoin:miter;stroke-width:1.5;" x="206.582486" xlink:href="#m778e3b2129" y="226.812242"/>
     <use style="fill-opacity:0;stroke:#ff00ff;stroke-linejoin:miter;stroke-width:1.5;" x="338.688" xlink:href="#m778e3b2129" y="226.812242"/>
    </g>
   </g>
   <g id="line2d_42">
    <path style="fill:none;stroke:#ff00ff;stroke-linecap:square;stroke-width:1.5;"/>
    <g/>
   </g>
   <g id="line2d_43">
    <path clip-path="url(#p0608d4666b)" d="M 218.224039 226.812242 
" style="fill:none;stroke:#ff00ff;stroke-linecap:square;stroke-width:1.5;"/>
    <defs>
     <path d="M -12 12 
L 12 -12 
M -12 -12 
L 12 12 
" id="mc36cceb4c6" style="stroke:#ff00ff;"/>
    </defs>
    <g clip-path="url(#p0608d4666b)">
     <use style="fill:#ff00ff;stroke:#ff00ff;" x="218.224039" xlink:href="#mc36cceb4c6" y="226.812242"/>
    </g>
   </g>
   <g id="line2d_44">
    <defs>
     <path d="M 0 1.5 
C 0.397805 1.5 0.77937 1.341951 1.06066 1.06066 
C 1.341951 0.77937 1.5 0.397805 1.5 0 
C 1.5 -0.397805 1.341951 -0.77937 1.06066 -1.06066 
C 0.77937 -1.341951 0.397805 -1.5 0 -1.5 
C -0.397805 -1.5 -0.77937 -1.341951 -1.06066 -1.06066 
C -1.341951 -0.77937 -1.5 -0.397805 -1.5 0 
C -1.5 0.397805 -1.341951 0.77937 -1.06066 1.06066 
C -0.77937 1.341951 -0.397805 1.5 0 1.5 
z
" id="me3f12e95c3" style="stroke:#ffa500;"/>
    </defs>
    <g>
     <use style="fill:#ffa500;stroke:#ffa500;" x="227.952088" xlink:href="#me3f12e95c3" y="216.471675"/>
     <use style="fill:#ffa500;stroke:#ffa500;" x="227.952088" xlink:href="#me3f12e95c3" y="216.471675"/>
    </g>
   </g>
   <g id="line2d_45">
    <path d="M 38.440992 298.944 
L 38.440992 290.873314 
L 57.6 290.873314 
L 57.6 290.621105 
L 66.508432 290.621105 
L 66.508432 290.368896 
L 69.687988 290.368896 
L 69.687988 290.116687 
L 74.704957 290.116687 
L 74.704957 289.107851 
L 78.59642 289.107851 
L 78.59642 288.855642 
L 80.258561 288.855642 
L 80.258561 288.603433 
L 81.775977 288.603433 
L 81.775977 288.099015 
L 83.171864 288.099015 
L 83.171864 287.594597 
L 84.464254 287.594597 
L 84.464254 286.333553 
L 85.66744 286.333553 
L 85.66744 286.081344 
L 88.846997 286.081344 
L 88.846997 285.576926 
L 90.684409 285.576926 
L 90.684409 284.820299 
L 91.535274 284.820299 
L 91.535274 284.315881 
L 92.34655 284.315881 
L 92.34655 283.811463 
L 93.121756 283.811463 
L 93.121756 283.559254 
L 93.863965 283.559254 
L 93.863965 283.307045 
L 94.575872 283.307045 
L 94.575872 283.054836 
L 95.259853 283.054836 
L 95.259853 282.550419 
L 95.918017 282.550419 
L 95.918017 281.289374 
L 96.552242 281.289374 
L 96.552242 280.532747 
L 97.16421 280.532747 
L 97.16421 279.019493 
L 97.755429 279.019493 
L 97.755429 278.262867 
L 98.32726 278.262867 
L 98.32726 277.758449 
L 98.880934 277.758449 
L 98.880934 277.254031 
L 99.938184 277.254031 
L 99.938184 277.001822 
L 100.443706 277.001822 
L 100.443706 276.245195 
L 100.934985 276.245195 
L 100.934985 275.992986 
L 101.412804 275.992986 
L 101.412804 275.740777 
L 102.772397 275.740777 
L 102.772397 274.98415 
L 103.623262 274.98415 
L 103.623262 274.227523 
L 104.826449 274.227523 
L 104.826449 273.975314 
L 105.584798 273.975314 
L 105.584798 273.470897 
L 105.951954 273.470897 
L 105.951954 273.218688 
L 106.311539 273.218688 
L 106.311539 272.71427 
L 107.009204 272.71427 
L 107.009204 271.957643 
L 108.006005 271.957643 
L 108.006005 271.705434 
L 108.326001 271.705434 
L 108.326001 270.948807 
L 108.948899 270.948807 
L 108.948899 270.696598 
L 109.550313 270.696598 
L 109.550313 269.687762 
L 109.843417 269.687762 
L 109.843417 268.678927 
L 110.968922 268.678927 
L 110.968922 268.426718 
L 111.239304 268.426718 
L 111.239304 268.174509 
L 111.505558 268.174509 
L 111.505558 267.9223 
L 111.767808 267.9223 
L 111.767808 267.670091 
L 112.280765 267.670091 
L 112.280765 267.165673 
L 113.022974 267.165673 
L 113.022974 266.913464 
L 113.500792 266.913464 
L 113.500792 266.661255 
L 113.73488 266.661255 
L 113.73488 266.409046 
L 113.965867 266.409046 
L 113.965867 266.156837 
L 114.193835 266.156837 
L 114.193835 265.904628 
L 114.418861 265.904628 
L 114.418861 265.40021 
L 114.641021 265.40021 
L 114.641021 265.148001 
L 115.502395 265.148001 
L 115.502395 264.391375 
L 115.917635 264.391375 
L 115.917635 263.886957 
L 116.121606 263.886957 
L 116.121606 263.634748 
L 116.323218 263.634748 
L 116.323218 262.878121 
L 116.914437 262.878121 
L 116.914437 262.625912 
L 117.107138 262.625912 
L 117.107138 262.373703 
L 117.297733 262.373703 
L 117.297733 262.121494 
L 117.672786 262.121494 
L 117.672786 261.617076 
L 118.220662 261.617076 
L 118.220662 260.860449 
L 118.576578 260.860449 
L 118.576578 260.60824 
L 119.267333 260.60824 
L 119.267333 260.103822 
L 119.602714 260.103822 
L 119.602714 259.347196 
L 119.931767 259.347196 
L 119.931767 259.094987 
L 120.41399 259.094987 
L 120.41399 258.590569 
L 120.728219 258.590569 
L 120.728219 258.33836 
L 120.883236 258.33836 
L 120.883236 258.086151 
L 121.189196 258.086151 
L 121.189196 257.329524 
L 121.340187 257.329524 
L 121.340187 257.077315 
L 122.076131 257.077315 
L 122.076131 256.825106 
L 122.362027 256.825106 
L 122.362027 256.572897 
L 123.327293 256.572897 
L 123.327293 256.320688 
L 123.460928 256.320688 
L 123.460928 255.81627 
L 123.593547 255.81627 
L 123.593547 255.311853 
L 123.985457 255.311853 
L 123.985457 255.059644 
L 124.241922 255.059644 
L 124.241922 254.807435 
L 124.619683 254.807435 
L 124.619683 254.555226 
L 124.743806 254.555226 
L 124.743806 254.050808 
L 124.867052 254.050808 
L 124.867052 253.54639 
L 125.23165 253.54639 
L 125.23165 253.294181 
L 125.588781 253.294181 
L 125.588781 252.285345 
L 125.706218 252.285345 
L 125.706218 252.033136 
L 126.3947 252.033136 
L 126.3947 251.780927 
L 127.48501 251.780927 
L 127.48501 251.528718 
L 127.902737 251.528718 
L 127.902737 251.276509 
L 128.411207 251.276509 
L 128.411207 251.0243 
L 128.905271 251.0243 
L 128.905271 250.519883 
L 129.099042 250.519883 
L 129.099042 250.267674 
L 129.290685 250.267674 
L 129.385722 249.763256 
L 129.945319 249.763256 
L 129.945319 249.006629 
L 130.487516 249.006629 
L 130.487516 248.75442 
L 130.839837 248.75442 
L 130.839837 248.502211 
L 131.523818 248.502211 
L 131.523818 247.745584 
L 131.856005 247.745584 
L 131.856005 247.493375 
L 132.501978 247.493375 
L 132.501978 247.241166 
L 133.124876 247.241166 
L 133.124876 246.23233 
L 133.652238 246.23233 
L 133.652238 245.727913 
L 134.019394 245.727913 
L 134.019394 244.971286 
L 134.870259 244.971286 
L 134.870259 244.719077 
L 135.076644 244.719077 
L 135.076644 244.214659 
L 135.348078 244.214659 
L 135.348078 243.96245 
L 135.482227 243.96245 
L 135.482227 243.458032 
L 136.073445 243.458032 
L 136.073445 243.205823 
L 136.266147 243.205823 
L 136.266147 242.196987 
L 136.893527 242.196987 
L 136.893527 241.944778 
L 137.198951 241.944778 
L 137.198951 241.692569 
L 137.499118 241.692569 
L 137.499118 241.440361 
L 138.538853 241.440361 
L 138.538853 240.431525 
L 139.199094 240.431525 
L 139.199094 239.927107 
L 139.572998 239.927107 
L 139.678372 238.413853 
L 141.041904 238.413853 
L 141.041904 238.161644 
L 141.848763 238.161644 
L 141.848763 237.657226 
L 142.351634 237.657226 
L 142.396639 236.9006 
L 143.44331 236.9006 
L 143.44331 236.143973 
L 143.778691 236.143973 
L 143.778691 235.891764 
L 145.814278 235.891764 
L 145.814278 235.639555 
L 146.644018 235.639555 
L 146.644018 235.387346 
L 147.061745 235.387346 
L 147.061745 234.882928 
L 147.96658 234.882928 
L 147.96658 234.37851 
L 148.576295 234.37851 
L 148.576295 234.126301 
L 149.911431 234.126301 
L 149.911431 233.874092 
L 150.987572 233.874092 
L 150.987572 233.621883 
L 152.612222 233.621883 
L 152.612222 233.369674 
L 154.075343 233.369674 
L 154.075343 233.117465 
L 156.578586 233.117465 
L 156.578586 232.865256 
L 157.339055 232.865256 
L 157.339055 232.613047 
L 157.939176 232.613047 
L 157.939176 232.10863 
L 158.48363 232.10863 
L 158.48363 231.604212 
L 158.942121 231.604212 
L 158.942121 231.099794 
L 161.585586 231.099794 
L 161.585586 230.847585 
L 161.88218 230.847585 
L 161.88218 230.595376 
L 163.361568 230.595376 
L 163.361568 230.090958 
L 163.682792 230.090958 
L 163.722532 229.334331 
L 163.841212 229.334331 
L 163.841212 229.082122 
L 164.35912 229.082122 
L 164.35912 228.577704 
L 165.506937 228.577704 
L 165.506937 228.325495 
L 168.415645 228.325495 
L 168.415645 227.821078 
L 171.211906 227.821078 
L 171.211906 227.568869 
L 171.72948 227.568869 
L 171.72948 227.064451 
L 180.824181 227.064451 
L 180.824181 226.812242 
L 181.153558 226.812242 
L 181.153558 226.307824 
L 186.138843 226.307824 
L 186.138843 226.055615 
L 192.213492 226.055615 
L 192.295947 225.298988 
L 192.406137 225.298988 
L 192.406137 224.79457 
L 193.954816 224.79457 
L 193.954816 224.542361 
L 195.825854 224.542361 
L 195.825854 224.290152 
L 196.152415 224.290152 
L 196.152415 223.785734 
L 205.950233 223.785734 
L 205.950233 223.281316 
L 207.721725 223.281316 
L 207.721725 222.776899 
L 208.48188 222.776899 
L 208.48188 222.272481 
L 209.521308 222.272481 
L 209.521308 221.768063 
L 212.098452 221.768063 
L 212.098452 221.011436 
L 213.070139 221.011436 
L 213.070139 220.507018 
L 213.345243 220.507018 
L 213.345243 220.254809 
L 214.152778 220.254809 
L 214.221645 219.245973 
L 216.635038 219.245973 
L 216.635038 218.993764 
L 217.075114 218.993764 
L 217.117278 218.237138 
L 217.853964 218.237138 
L 217.853964 217.984929 
L 222.236443 217.984929 
L 222.236443 217.480511 
L 225.926337 217.480511 
L 225.926337 217.228302 
L 226.996398 217.228302 
L 226.996398 216.976093 
L 227.952088 216.976093 
L 227.952088 216.471675 
L 338.688 216.471675 
L 338.688 216.471675 
" style="fill:none;stroke:#ffa500;stroke-linecap:square;stroke-width:1.5;"/>
   </g>
   <g id="line2d_46">
    <defs>
     <path d="M 0 -6 
L -1.347084 -1.854102 
L -5.706339 -1.854102 
L -2.179628 0.708204 
L -3.526712 4.854102 
L -0 2.291796 
L 3.526712 4.854102 
L 2.179628 0.708204 
L 5.706339 -1.854102 
L 1.347084 -1.854102 
z
" id="m722ef538cd" style="stroke:#ffa500;stroke-linejoin:bevel;stroke-width:1.5;"/>
    </defs>
    <g>
     <use style="fill-opacity:0;stroke:#ffa500;stroke-linejoin:bevel;stroke-width:1.5;" x="92.34655" xlink:href="#m722ef538cd" y="283.811463"/>
     <use style="fill-opacity:0;stroke:#ffa500;stroke-linejoin:bevel;stroke-width:1.5;" x="143.778691" xlink:href="#m722ef538cd" y="235.891764"/>
     <use style="fill-opacity:0;stroke:#ffa500;stroke-linejoin:bevel;stroke-width:1.5;" x="209.521308" xlink:href="#m722ef538cd" y="221.768063"/>
     <use style="fill-opacity:0;stroke:#ffa500;stroke-linejoin:bevel;stroke-width:1.5;" x="227.952088" xlink:href="#m722ef538cd" y="216.471675"/>
     <use style="fill-opacity:0;stroke:#ffa500;stroke-linejoin:bevel;stroke-width:1.5;" x="227.952088" xlink:href="#m722ef538cd" y="216.471675"/>
     <use style="fill-opacity:0;stroke:#ffa500;stroke-linejoin:bevel;stroke-width:1.5;" x="338.688" xlink:href="#m722ef538cd" y="216.471675"/>
    </g>
   </g>
   <g id="line2d_47">
    <path style="fill:none;stroke:#ffa500;stroke-linecap:square;stroke-width:1.5;"/>
    <g/>
   </g>
   <g id="line2d_48">
    <path clip-path="url(#p0608d4666b)" d="M 230.310865 216.471675 
" style="fill:none;stroke:#ffa500;stroke-linecap:square;stroke-width:1.5;"/>
    <defs>
     <path d="M -12 12 
L 12 -12 
M -12 -12 
L 12 12 
" id="m4e2b0cee52" style="stroke:#ffa500;"/>
    </defs>
    <g clip-path="url(#p0608d4666b)">
     <use style="fill:#ffa500;stroke:#ffa500;" x="230.310865" xlink:href="#m4e2b0cee52" y="216.471675"/>
    </g>
   </g>
   <g id="line2d_49">
    <path d="M 338.688 226.812242 
L 369.60768 293.092752 
" style="fill:none;stroke:#ff00ff;stroke-linecap:square;stroke-width:1.5;"/>
    <g>
     <use style="fill-opacity:0;stroke:#ff00ff;stroke-linejoin:miter;stroke-width:1.5;" x="338.688" xlink:href="#m778e3b2129" y="226.812242"/>
     <use style="fill-opacity:0;stroke:#ff00ff;stroke-linejoin:miter;stroke-width:1.5;" x="369.60768" xlink:href="#m778e3b2129" y="293.092752"/>
    </g>
   </g>
   <g id="line2d_50">
    <path d="M 338.688 216.471675 
L 369.60768 199.472792 
" style="fill:none;stroke:#ffa500;stroke-linecap:square;stroke-width:1.5;"/>
    <g>
     <use style="fill-opacity:0;stroke:#ffa500;stroke-linejoin:bevel;stroke-width:1.5;" x="338.688" xlink:href="#m722ef538cd" y="216.471675"/>
     <use style="fill-opacity:0;stroke:#ffa500;stroke-linejoin:bevel;stroke-width:1.5;" x="369.60768" xlink:href="#m722ef538cd" y="199.472792"/>
    </g>
   </g>
   <g id="line2d_51">
    <path d="M 338.688 197.556004 
L 369.60768 105.852832 
" style="fill:none;stroke:#000080;stroke-linecap:square;stroke-width:1.5;"/>
    <g>
     <use style="fill-opacity:0;stroke:#000080;stroke-width:1.5;" x="338.688" xlink:href="#ma385ba5397" y="197.556004"/>
     <use style="fill-opacity:0;stroke:#000080;stroke-width:1.5;" x="369.60768" xlink:href="#ma385ba5397" y="105.852832"/>
    </g>
   </g>
   <g id="line2d_52">
    <path d="M 338.688 298.944 
L 338.688 6.381624 
" style="fill:none;stroke:#000000;stroke-linecap:square;stroke-width:1.5;"/>
   </g>
   <g id="patch_3">
    <path d="M 57.6 298.944 
L 57.6 3.456 
" style="fill:none;stroke:#000000;stroke-linecap:square;stroke-linejoin:miter;stroke-width:0.8;"/>
   </g>
   <g id="patch_4">
    <path d="M 338.688 298.944 
L 338.688 3.456 
" style="fill:none;stroke:#000000;stroke-linecap:square;stroke-linejoin:miter;stroke-width:0.8;"/>
   </g>
   <g id="patch_5">
    <path d="M 57.6 298.944 
L 338.688 298.944 
" style="fill:none;stroke:#000000;stroke-linecap:square;stroke-linejoin:miter;stroke-width:0.8;"/>
   </g>
   <g id="patch_6">
    <path d="M 57.6 3.456 
L 338.688 3.456 
" style="fill:none;stroke:#000000;stroke-linecap:square;stroke-linejoin:miter;stroke-width:0.8;"/>
   </g>
   <g id="text_13">
    <!-- onlychvre -->
    <defs>
     <path d="M 32.171875 -5.078125 
Q 28.375 -14.84375 24.75 -17.8125 
Q 21.140625 -20.796875 15.09375 -20.796875 
L 7.90625 -20.796875 
L 7.90625 -13.28125 
L 13.1875 -13.28125 
Q 16.890625 -13.28125 18.9375 -11.515625 
Q 21 -9.765625 23.484375 -3.21875 
L 25.09375 0.875 
L 2.984375 54.6875 
L 12.5 54.6875 
L 29.59375 11.921875 
L 46.6875 54.6875 
L 56.203125 54.6875 
z
" id="DejaVuSans-121"/>
     <path d="M 54.890625 33.015625 
L 54.890625 0 
L 45.90625 0 
L 45.90625 32.71875 
Q 45.90625 40.484375 42.875 44.328125 
Q 39.84375 48.1875 33.796875 48.1875 
Q 26.515625 48.1875 22.3125 43.546875 
Q 18.109375 38.921875 18.109375 30.90625 
L 18.109375 0 
L 9.078125 0 
L 9.078125 75.984375 
L 18.109375 75.984375 
L 18.109375 46.1875 
Q 21.34375 51.125 25.703125 53.5625 
Q 30.078125 56 35.796875 56 
Q 45.21875 56 50.046875 50.171875 
Q 54.890625 44.34375 54.890625 33.015625 
z
" id="DejaVuSans-104"/>
    </defs>
    <g transform="translate(375.22944 297.78369)scale(0.17 -0.17)">
     <use xlink:href="#DejaVuSans-111"/>
     <use x="61.181641" xlink:href="#DejaVuSans-110"/>
     <use x="124.560547" xlink:href="#DejaVuSans-108"/>
     <use x="152.34375" xlink:href="#DejaVuSans-121"/>
     <use x="211.523438" xlink:href="#DejaVuSans-99"/>
     <use x="266.503906" xlink:href="#DejaVuSans-104"/>
     <use x="329.882812" xlink:href="#DejaVuSans-118"/>
     <use x="389.0625" xlink:href="#DejaVuSans-114"/>
     <use x="430.144531" xlink:href="#DejaVuSans-101"/>
    </g>
   </g>
   <g id="text_14">
    <!-- randomres -->
    <g transform="translate(375.22944 204.16373)scale(0.17 -0.17)">
     <use xlink:href="#DejaVuSans-114"/>
     <use x="41.113281" xlink:href="#DejaVuSans-97"/>
     <use x="102.392578" xlink:href="#DejaVuSans-110"/>
     <use x="165.771484" xlink:href="#DejaVuSans-100"/>
     <use x="229.248047" xlink:href="#DejaVuSans-111"/>
     <use x="290.429688" xlink:href="#DejaVuSans-109"/>
     <use x="387.841797" xlink:href="#DejaVuSans-114"/>
     <use x="428.923828" xlink:href="#DejaVuSans-101"/>
     <use x="490.447266" xlink:href="#DejaVuSans-115"/>
    </g>
   </g>
   <g id="text_15">
    <!-- derandomi -->
    <g transform="translate(375.22944 110.543769)scale(0.17 -0.17)">
     <use xlink:href="#DejaVuSans-100"/>
     <use x="63.476562" xlink:href="#DejaVuSans-101"/>
     <use x="125" xlink:href="#DejaVuSans-114"/>
     <use x="166.113281" xlink:href="#DejaVuSans-97"/>
     <use x="227.392578" xlink:href="#DejaVuSans-110"/>
     <use x="290.771484" xlink:href="#DejaVuSans-100"/>
     <use x="354.248047" xlink:href="#DejaVuSans-111"/>
     <use x="415.429688" xlink:href="#DejaVuSans-109"/>
     <use x="512.841797" xlink:href="#DejaVuSans-105"/>
    </g>
   </g>
   <g id="text_16">
    <!-- best 2016 -->
    <defs>
     <path d="M 48.6875 27.296875 
Q 48.6875 37.203125 44.609375 42.84375 
Q 40.53125 48.484375 33.40625 48.484375 
Q 26.265625 48.484375 22.1875 42.84375 
Q 18.109375 37.203125 18.109375 27.296875 
Q 18.109375 17.390625 22.1875 11.75 
Q 26.265625 6.109375 33.40625 6.109375 
Q 40.53125 6.109375 44.609375 11.75 
Q 48.6875 17.390625 48.6875 27.296875 
z
M 18.109375 46.390625 
Q 20.953125 51.265625 25.265625 53.625 
Q 29.59375 56 35.59375 56 
Q 45.5625 56 51.78125 48.09375 
Q 58.015625 40.1875 58.015625 27.296875 
Q 58.015625 14.40625 51.78125 6.484375 
Q 45.5625 -1.421875 35.59375 -1.421875 
Q 29.59375 -1.421875 25.265625 0.953125 
Q 20.953125 3.328125 18.109375 8.203125 
L 18.109375 0 
L 9.078125 0 
L 9.078125 75.984375 
L 18.109375 75.984375 
z
" id="DejaVuSans-98"/>
    </defs>
    <g transform="translate(375.22944 16.923809)scale(0.17 -0.17)">
     <use xlink:href="#DejaVuSans-98"/>
     <use x="63.476562" xlink:href="#DejaVuSans-101"/>
     <use x="125" xlink:href="#DejaVuSans-115"/>
     <use x="177.099609" xlink:href="#DejaVuSans-116"/>
     <use x="216.308594" xlink:href="#DejaVuSans-32"/>
     <use x="248.095703" xlink:href="#DejaVuSans-50"/>
     <use x="311.71875" xlink:href="#DejaVuSans-48"/>
     <use x="375.341797" xlink:href="#DejaVuSans-49"/>
     <use x="438.964844" xlink:href="#DejaVuSans-54"/>
    </g>
   </g>
   <g id="text_17">
    <!-- bbob-biobj f7, f8, f16, f17, 3-D -->
    <defs>
     <path d="M 9.421875 54.6875 
L 18.40625 54.6875 
L 18.40625 -0.984375 
Q 18.40625 -11.421875 14.421875 -16.109375 
Q 10.453125 -20.796875 1.609375 -20.796875 
L -1.8125 -20.796875 
L -1.8125 -13.1875 
L 0.59375 -13.1875 
Q 5.71875 -13.1875 7.5625 -10.8125 
Q 9.421875 -8.453125 9.421875 -0.984375 
z
M 9.421875 75.984375 
L 18.40625 75.984375 
L 18.40625 64.59375 
L 9.421875 64.59375 
z
" id="DejaVuSans-106"/>
     <path d="M 8.203125 72.90625 
L 55.078125 72.90625 
L 55.078125 68.703125 
L 28.609375 0 
L 18.3125 0 
L 43.21875 64.59375 
L 8.203125 64.59375 
z
" id="DejaVuSans-55"/>
     <path d="M 40.578125 39.3125 
Q 47.65625 37.796875 51.625 33 
Q 55.609375 28.21875 55.609375 21.1875 
Q 55.609375 10.40625 48.1875 4.484375 
Q 40.765625 -1.421875 27.09375 -1.421875 
Q 22.515625 -1.421875 17.65625 -0.515625 
Q 12.796875 0.390625 7.625 2.203125 
L 7.625 11.71875 
Q 11.71875 9.328125 16.59375 8.109375 
Q 21.484375 6.890625 26.8125 6.890625 
Q 36.078125 6.890625 40.9375 10.546875 
Q 45.796875 14.203125 45.796875 21.1875 
Q 45.796875 27.640625 41.28125 31.265625 
Q 36.765625 34.90625 28.71875 34.90625 
L 20.21875 34.90625 
L 20.21875 43.015625 
L 29.109375 43.015625 
Q 36.375 43.015625 40.234375 45.921875 
Q 44.09375 48.828125 44.09375 54.296875 
Q 44.09375 59.90625 40.109375 62.90625 
Q 36.140625 65.921875 28.71875 65.921875 
Q 24.65625 65.921875 20.015625 65.03125 
Q 15.375 64.15625 9.8125 62.3125 
L 9.8125 71.09375 
Q 15.4375 72.65625 20.34375 73.4375 
Q 25.25 74.21875 29.59375 74.21875 
Q 40.828125 74.21875 47.359375 69.109375 
Q 53.90625 64.015625 53.90625 55.328125 
Q 53.90625 49.265625 50.4375 45.09375 
Q 46.96875 40.921875 40.578125 39.3125 
z
" id="DejaVuSans-51"/>
     <path d="M 19.671875 64.796875 
L 19.671875 8.109375 
L 31.59375 8.109375 
Q 46.6875 8.109375 53.6875 14.9375 
Q 60.6875 21.78125 60.6875 36.53125 
Q 60.6875 51.171875 53.6875 57.984375 
Q 46.6875 64.796875 31.59375 64.796875 
z
M 9.8125 72.90625 
L 30.078125 72.90625 
Q 51.265625 72.90625 61.171875 64.09375 
Q 71.09375 55.28125 71.09375 36.53125 
Q 71.09375 17.671875 61.125 8.828125 
Q 51.171875 0 30.078125 0 
L 9.8125 0 
z
" id="DejaVuSans-68"/>
    </defs>
    <g transform="translate(60.41088 14.161286)scale(0.102 -0.102)">
     <use xlink:href="#DejaVuSans-98"/>
     <use x="63.476562" xlink:href="#DejaVuSans-98"/>
     <use x="126.953125" xlink:href="#DejaVuSans-111"/>
     <use x="188.134766" xlink:href="#DejaVuSans-98"/>
     <use x="251.611328" xlink:href="#DejaVuSans-45"/>
     <use x="287.695312" xlink:href="#DejaVuSans-98"/>
     <use x="351.171875" xlink:href="#DejaVuSans-105"/>
     <use x="378.955078" xlink:href="#DejaVuSans-111"/>
     <use x="440.136719" xlink:href="#DejaVuSans-98"/>
     <use x="503.613281" xlink:href="#DejaVuSans-106"/>
     <use x="531.396484" xlink:href="#DejaVuSans-32"/>
     <use x="563.183594" xlink:href="#DejaVuSans-102"/>
     <use x="598.388672" xlink:href="#DejaVuSans-55"/>
     <use x="662.011719" xlink:href="#DejaVuSans-44"/>
     <use x="693.798828" xlink:href="#DejaVuSans-32"/>
     <use x="725.585938" xlink:href="#DejaVuSans-102"/>
     <use x="760.791016" xlink:href="#DejaVuSans-56"/>
     <use x="824.414062" xlink:href="#DejaVuSans-44"/>
     <use x="856.201172" xlink:href="#DejaVuSans-32"/>
     <use x="887.988281" xlink:href="#DejaVuSans-102"/>
     <use x="923.193359" xlink:href="#DejaVuSans-49"/>
     <use x="986.816406" xlink:href="#DejaVuSans-54"/>
     <use x="1050.439453" xlink:href="#DejaVuSans-44"/>
     <use x="1082.226562" xlink:href="#DejaVuSans-32"/>
     <use x="1114.013672" xlink:href="#DejaVuSans-102"/>
     <use x="1149.21875" xlink:href="#DejaVuSans-49"/>
     <use x="1212.841797" xlink:href="#DejaVuSans-55"/>
     <use x="1276.464844" xlink:href="#DejaVuSans-44"/>
     <use x="1308.251953" xlink:href="#DejaVuSans-32"/>
     <use x="1340.039062" xlink:href="#DejaVuSans-51"/>
     <use x="1403.662109" xlink:href="#DejaVuSans-45"/>
     <use x="1439.746094" xlink:href="#DejaVuSans-68"/>
    </g>
    <!-- 58 targets: 1..-1.0e-4 -->
    <defs>
     <path d="M 10.796875 72.90625 
L 49.515625 72.90625 
L 49.515625 64.59375 
L 19.828125 64.59375 
L 19.828125 46.734375 
Q 21.96875 47.46875 24.109375 47.828125 
Q 26.265625 48.1875 28.421875 48.1875 
Q 40.625 48.1875 47.75 41.5 
Q 54.890625 34.8125 54.890625 23.390625 
Q 54.890625 11.625 47.5625 5.09375 
Q 40.234375 -1.421875 26.90625 -1.421875 
Q 22.3125 -1.421875 17.546875 -0.640625 
Q 12.796875 0.140625 7.71875 1.703125 
L 7.71875 11.625 
Q 12.109375 9.234375 16.796875 8.0625 
Q 21.484375 6.890625 26.703125 6.890625 
Q 35.15625 6.890625 40.078125 11.328125 
Q 45.015625 15.765625 45.015625 23.390625 
Q 45.015625 31 40.078125 35.4375 
Q 35.15625 39.890625 26.703125 39.890625 
Q 22.75 39.890625 18.8125 39.015625 
Q 14.890625 38.140625 10.796875 36.28125 
z
" id="DejaVuSans-53"/>
     <path d="M 11.71875 12.40625 
L 22.015625 12.40625 
L 22.015625 0 
L 11.71875 0 
z
M 11.71875 51.703125 
L 22.015625 51.703125 
L 22.015625 39.3125 
L 11.71875 39.3125 
z
" id="DejaVuSans-58"/>
    </defs>
    <g transform="translate(60.41088 25.583055)scale(0.102 -0.102)">
     <use xlink:href="#DejaVuSans-53"/>
     <use x="63.623047" xlink:href="#DejaVuSans-56"/>
     <use x="127.246094" xlink:href="#DejaVuSans-32"/>
     <use x="159.033203" xlink:href="#DejaVuSans-116"/>
     <use x="198.242188" xlink:href="#DejaVuSans-97"/>
     <use x="259.521484" xlink:href="#DejaVuSans-114"/>
     <use x="300.619141" xlink:href="#DejaVuSans-103"/>
     <use x="364.095703" xlink:href="#DejaVuSans-101"/>
     <use x="425.619141" xlink:href="#DejaVuSans-116"/>
     <use x="464.828125" xlink:href="#DejaVuSans-115"/>
     <use x="516.927734" xlink:href="#DejaVuSans-58"/>
     <use x="550.619141" xlink:href="#DejaVuSans-32"/>
     <use x="582.40625" xlink:href="#DejaVuSans-49"/>
     <use x="646.029297" xlink:href="#DejaVuSans-46"/>
     <use x="677.816406" xlink:href="#DejaVuSans-46"/>
     <use x="709.603516" xlink:href="#DejaVuSans-45"/>
     <use x="745.6875" xlink:href="#DejaVuSans-49"/>
     <use x="809.310547" xlink:href="#DejaVuSans-46"/>
     <use x="841.097656" xlink:href="#DejaVuSans-48"/>
     <use x="904.720703" xlink:href="#DejaVuSans-101"/>
     <use x="966.244141" xlink:href="#DejaVuSans-45"/>
     <use x="1002.328125" xlink:href="#DejaVuSans-52"/>
    </g>
    <!-- 5 instances -->
    <g transform="translate(60.41088 37.004824)scale(0.102 -0.102)">
     <use xlink:href="#DejaVuSans-53"/>
     <use x="63.623047" xlink:href="#DejaVuSans-32"/>
     <use x="95.410156" xlink:href="#DejaVuSans-105"/>
     <use x="123.193359" xlink:href="#DejaVuSans-110"/>
     <use x="186.572266" xlink:href="#DejaVuSans-115"/>
     <use x="238.671875" xlink:href="#DejaVuSans-116"/>
     <use x="277.880859" xlink:href="#DejaVuSans-97"/>
     <use x="339.160156" xlink:href="#DejaVuSans-110"/>
     <use x="402.539062" xlink:href="#DejaVuSans-99"/>
     <use x="457.519531" xlink:href="#DejaVuSans-101"/>
     <use x="519.042969" xlink:href="#DejaVuSans-115"/>
    </g>
   </g>
   <g id="text_18">
    <!-- v2.3.1.83 -->
    <g style="fill:#808080;" transform="translate(174.511187 293.909432)scale(0.1 -0.1)">
     <use xlink:href="#DejaVuSans-118"/>
     <use x="59.179688" xlink:href="#DejaVuSans-50"/>
     <use x="122.802734" xlink:href="#DejaVuSans-46"/>
     <use x="154.589844" xlink:href="#DejaVuSans-51"/>
     <use x="218.212891" xlink:href="#DejaVuSans-46"/>
     <use x="250" xlink:href="#DejaVuSans-49"/>
     <use x="313.623047" xlink:href="#DejaVuSans-46"/>
     <use x="345.410156" xlink:href="#DejaVuSans-56"/>
     <use x="409.033203" xlink:href="#DejaVuSans-51"/>
    </g>
   </g>
  </g>
 </g>
 <defs>
  <clipPath id="p0608d4666b">
   <rect height="295.488" width="281.088" x="57.6" y="3.456"/>
  </clipPath>
 </defs>
</svg>
