<?xml version="1.0" encoding="utf-8" standalone="no"?>
<!DOCTYPE svg PUBLIC "-//W3C//DTD SVG 1.1//EN"
  "http://www.w3.org/Graphics/SVG/1.1/DTD/svg11.dtd">
<!-- Created with matplotlib (https://matplotlib.org/) -->
<svg height="345.6pt" version="1.1" viewBox="0 0 460.8 345.6" width="460.8pt" xmlns="http://www.w3.org/2000/svg" xmlns:xlink="http://www.w3.org/1999/xlink">
 <defs>
  <style type="text/css">
*{stroke-linecap:butt;stroke-linejoin:round;}
  </style>
 </defs>
 <g id="figure_1">
  <g id="patch_1">
   <path d="M 0 345.6 
L 460.8 345.6 
L 460.8 0 
L 0 0 
z
" style="fill:#ffffff;"/>
  </g>
  <g id="axes_1">
   <g id="patch_2">
    <path d="M 57.6 298.944 
L 338.688 298.944 
L 338.688 27.648 
L 57.6 27.648 
z
" style="fill:#ffffff;"/>
   </g>
   <g id="line2d_1">
    <path d="M 41.620548 298.944 
L 41.620548 294.312795 
L 60.779557 294.312795 
L 60.779557 275.787974 
L 82.626842 275.787974 
L 82.626842 271.156769 
L 89.972502 271.156769 
L 89.972502 257.263153 
L 99.731799 257.263153 
L 99.731799 248.000743 
L 105.951954 248.000743 
L 105.951954 243.369538 
L 113.022974 243.369538 
L 113.022974 234.107127 
L 117.709852 234.107127 
L 117.709852 220.213512 
L 128.768338 220.213512 
L 128.768338 210.951101 
L 139.793552 210.951101 
L 139.793552 201.688691 
L 146.367029 201.688691 
L 146.367029 192.426281 
L 158.858379 192.426281 
L 158.858379 187.795075 
L 163.50953 187.795075 
L 163.50953 173.90146 
L 170.041906 173.90146 
L 170.041906 169.270255 
L 183.713493 169.270255 
L 183.713493 155.376639 
L 189.691273 155.376639 
L 189.691273 146.114229 
L 198.054 146.114229 
L 198.054 141.483024 
L 208.433444 141.483024 
L 208.433444 127.589408 
L 218.498534 127.589408 
L 218.498534 122.958203 
L 222.782396 122.958203 
L 222.782396 109.064587 
L 226.1675 109.064587 
L 226.1675 99.802177 
L 267.45428 99.802177 
L 267.45428 90.539766 
L 270.8195 90.539766 
L 270.8195 85.908561 
L 274.641693 85.908561 
L 274.641693 76.646151 
L 278.566013 76.646151 
L 278.566013 62.752535 
L 338.688 62.752535 
" style="fill:none;stroke:#f5deb3;stroke-linecap:square;stroke-width:4;"/>
   </g>
   <g id="line2d_2">
    <defs>
     <path d="M 0 7.778175 
L 7.778175 0 
L 0 -7.778175 
L -7.778175 0 
z
" id="m0a423a6bad" style="stroke:#f5deb3;stroke-linejoin:miter;stroke-width:1.5;"/>
    </defs>
    <g>
     <use style="fill:#f5deb3;stroke:#f5deb3;stroke-linejoin:miter;stroke-width:1.5;" x="60.779557" xlink:href="#m0a423a6bad" y="275.787974"/>
     <use style="fill:#f5deb3;stroke:#f5deb3;stroke-linejoin:miter;stroke-width:1.5;" x="139.793552" xlink:href="#m0a423a6bad" y="210.951101"/>
     <use style="fill:#f5deb3;stroke:#f5deb3;stroke-linejoin:miter;stroke-width:1.5;" x="189.691273" xlink:href="#m0a423a6bad" y="155.376639"/>
     <use style="fill:#f5deb3;stroke:#f5deb3;stroke-linejoin:miter;stroke-width:1.5;" x="270.8195" xlink:href="#m0a423a6bad" y="90.539766"/>
     <use style="fill:#f5deb3;stroke:#f5deb3;stroke-linejoin:miter;stroke-width:1.5;" x="278.566013" xlink:href="#m0a423a6bad" y="62.752535"/>
     <use style="fill:#f5deb3;stroke:#f5deb3;stroke-linejoin:miter;stroke-width:1.5;" x="338.688" xlink:href="#m0a423a6bad" y="62.752535"/>
    </g>
   </g>
   <g id="line2d_3">
    <path style="fill:none;stroke:#f5deb3;stroke-linecap:square;stroke-width:4;"/>
    <g/>
   </g>
   <g id="line2d_4">
    <path d="M 338.688 62.752535 
L 369.60768 35.706297 
" style="fill:none;stroke:#f5deb3;stroke-linecap:square;stroke-width:4;"/>
    <g>
     <use style="fill:#f5deb3;stroke:#f5deb3;stroke-linejoin:miter;stroke-width:1.5;" x="338.688" xlink:href="#m0a423a6bad" y="62.752535"/>
     <use style="fill:#f5deb3;stroke:#f5deb3;stroke-linejoin:miter;stroke-width:1.5;" x="369.60768" xlink:href="#m0a423a6bad" y="35.706297"/>
    </g>
   </g>
   <g id="matplotlib.axis_1">
    <g id="xtick_1">
     <g id="line2d_5">
      <path clip-path="url(#pecd7295e47)" d="M 57.6 298.944 
L 57.6 27.648 
" style="fill:none;stroke:#b0b0b0;stroke-linecap:square;stroke-width:0.8;"/>
     </g>
     <g id="line2d_6">
      <defs>
       <path d="M 0 0 
L 0 3.5 
" id="m900f32e618" style="stroke:#000000;stroke-width:0.8;"/>
      </defs>
      <g>
       <use style="stroke:#000000;stroke-width:0.8;" x="57.6" xlink:href="#m900f32e618" y="298.944"/>
      </g>
     </g>
     <g id="text_1">
      <!-- 0 -->
      <defs>
       <path d="M 31.78125 66.40625 
Q 24.171875 66.40625 20.328125 58.90625 
Q 16.5 51.421875 16.5 36.375 
Q 16.5 21.390625 20.328125 13.890625 
Q 24.171875 6.390625 31.78125 6.390625 
Q 39.453125 6.390625 43.28125 13.890625 
Q 47.125 21.390625 47.125 36.375 
Q 47.125 51.421875 43.28125 58.90625 
Q 39.453125 66.40625 31.78125 66.40625 
z
M 31.78125 74.21875 
Q 44.046875 74.21875 50.515625 64.515625 
Q 56.984375 54.828125 56.984375 36.375 
Q 56.984375 17.96875 50.515625 8.265625 
Q 44.046875 -1.421875 31.78125 -1.421875 
Q 19.53125 -1.421875 13.0625 8.265625 
Q 6.59375 17.96875 6.59375 36.375 
Q 6.59375 54.828125 13.0625 64.515625 
Q 19.53125 74.21875 31.78125 74.21875 
z
" id="DejaVuSans-48"/>
      </defs>
      <g transform="translate(51.2375 321.140875)scale(0.2 -0.2)">
       <use xlink:href="#DejaVuSans-48"/>
      </g>
     </g>
    </g>
    <g id="xtick_2">
     <g id="line2d_7">
      <path clip-path="url(#pecd7295e47)" d="M 137.910857 298.944 
L 137.910857 27.648 
" style="fill:none;stroke:#b0b0b0;stroke-linecap:square;stroke-width:0.8;"/>
     </g>
     <g id="line2d_8">
      <g>
       <use style="stroke:#000000;stroke-width:0.8;" x="137.910857" xlink:href="#m900f32e618" y="298.944"/>
      </g>
     </g>
     <g id="text_2">
      <!-- 2 -->
      <defs>
       <path d="M 19.1875 8.296875 
L 53.609375 8.296875 
L 53.609375 0 
L 7.328125 0 
L 7.328125 8.296875 
Q 12.9375 14.109375 22.625 23.890625 
Q 32.328125 33.6875 34.8125 36.53125 
Q 39.546875 41.84375 41.421875 45.53125 
Q 43.3125 49.21875 43.3125 52.78125 
Q 43.3125 58.59375 39.234375 62.25 
Q 35.15625 65.921875 28.609375 65.921875 
Q 23.96875 65.921875 18.8125 64.3125 
Q 13.671875 62.703125 7.8125 59.421875 
L 7.8125 69.390625 
Q 13.765625 71.78125 18.9375 73 
Q 24.125 74.21875 28.421875 74.21875 
Q 39.75 74.21875 46.484375 68.546875 
Q 53.21875 62.890625 53.21875 53.421875 
Q 53.21875 48.921875 51.53125 44.890625 
Q 49.859375 40.875 45.40625 35.40625 
Q 44.1875 33.984375 37.640625 27.21875 
Q 31.109375 20.453125 19.1875 8.296875 
z
" id="DejaVuSans-50"/>
      </defs>
      <g transform="translate(131.548357 321.140875)scale(0.2 -0.2)">
       <use xlink:href="#DejaVuSans-50"/>
      </g>
     </g>
    </g>
    <g id="xtick_3">
     <g id="line2d_9">
      <path clip-path="url(#pecd7295e47)" d="M 218.221714 298.944 
L 218.221714 27.648 
" style="fill:none;stroke:#b0b0b0;stroke-linecap:square;stroke-width:0.8;"/>
     </g>
     <g id="line2d_10">
      <g>
       <use style="stroke:#000000;stroke-width:0.8;" x="218.221714" xlink:href="#m900f32e618" y="298.944"/>
      </g>
     </g>
     <g id="text_3">
      <!-- 4 -->
      <defs>
       <path d="M 37.796875 64.3125 
L 12.890625 25.390625 
L 37.796875 25.390625 
z
M 35.203125 72.90625 
L 47.609375 72.90625 
L 47.609375 25.390625 
L 58.015625 25.390625 
L 58.015625 17.1875 
L 47.609375 17.1875 
L 47.609375 0 
L 37.796875 0 
L 37.796875 17.1875 
L 4.890625 17.1875 
L 4.890625 26.703125 
z
" id="DejaVuSans-52"/>
      </defs>
      <g transform="translate(211.859214 321.140875)scale(0.2 -0.2)">
       <use xlink:href="#DejaVuSans-52"/>
      </g>
     </g>
    </g>
    <g id="xtick_4">
     <g id="line2d_11">
      <path clip-path="url(#pecd7295e47)" d="M 298.532571 298.944 
L 298.532571 27.648 
" style="fill:none;stroke:#b0b0b0;stroke-linecap:square;stroke-width:0.8;"/>
     </g>
     <g id="line2d_12">
      <g>
       <use style="stroke:#000000;stroke-width:0.8;" x="298.532571" xlink:href="#m900f32e618" y="298.944"/>
      </g>
     </g>
     <g id="text_4">
      <!-- 6 -->
      <defs>
       <path d="M 33.015625 40.375 
Q 26.375 40.375 22.484375 35.828125 
Q 18.609375 31.296875 18.609375 23.390625 
Q 18.609375 15.53125 22.484375 10.953125 
Q 26.375 6.390625 33.015625 6.390625 
Q 39.65625 6.390625 43.53125 10.953125 
Q 47.40625 15.53125 47.40625 23.390625 
Q 47.40625 31.296875 43.53125 35.828125 
Q 39.65625 40.375 33.015625 40.375 
z
M 52.59375 71.296875 
L 52.59375 62.3125 
Q 48.875 64.0625 45.09375 64.984375 
Q 41.3125 65.921875 37.59375 65.921875 
Q 27.828125 65.921875 22.671875 59.328125 
Q 17.53125 52.734375 16.796875 39.40625 
Q 19.671875 43.65625 24.015625 45.921875 
Q 28.375 48.1875 33.59375 48.1875 
Q 44.578125 48.1875 50.953125 41.515625 
Q 57.328125 34.859375 57.328125 23.390625 
Q 57.328125 12.15625 50.6875 5.359375 
Q 44.046875 -1.421875 33.015625 -1.421875 
Q 20.359375 -1.421875 13.671875 8.265625 
Q 6.984375 17.96875 6.984375 36.375 
Q 6.984375 53.65625 15.1875 63.9375 
Q 23.390625 74.21875 37.203125 74.21875 
Q 40.921875 74.21875 44.703125 73.484375 
Q 48.484375 72.75 52.59375 71.296875 
z
" id="DejaVuSans-54"/>
      </defs>
      <g transform="translate(292.170071 321.140875)scale(0.2 -0.2)">
       <use xlink:href="#DejaVuSans-54"/>
      </g>
     </g>
    </g>
    <g id="xtick_5">
     <g id="line2d_13">
      <path clip-path="url(#pecd7295e47)" d="M 97.755429 298.944 
L 97.755429 27.648 
" style="fill:none;stroke:#b0b0b0;stroke-linecap:square;stroke-width:0.8;"/>
     </g>
     <g id="line2d_14">
      <defs>
       <path d="M 0 0 
L 0 2 
" id="mb0dc0267d9" style="stroke:#000000;stroke-width:0.6;"/>
      </defs>
      <g>
       <use style="stroke:#000000;stroke-width:0.6;" x="97.755429" xlink:href="#mb0dc0267d9" y="298.944"/>
      </g>
     </g>
    </g>
    <g id="xtick_6">
     <g id="line2d_15">
      <path clip-path="url(#pecd7295e47)" d="M 178.066286 298.944 
L 178.066286 27.648 
" style="fill:none;stroke:#b0b0b0;stroke-linecap:square;stroke-width:0.8;"/>
     </g>
     <g id="line2d_16">
      <g>
       <use style="stroke:#000000;stroke-width:0.6;" x="178.066286" xlink:href="#mb0dc0267d9" y="298.944"/>
      </g>
     </g>
    </g>
    <g id="xtick_7">
     <g id="line2d_17">
      <path clip-path="url(#pecd7295e47)" d="M 258.377143 298.944 
L 258.377143 27.648 
" style="fill:none;stroke:#b0b0b0;stroke-linecap:square;stroke-width:0.8;"/>
     </g>
     <g id="line2d_18">
      <g>
       <use style="stroke:#000000;stroke-width:0.6;" x="258.377143" xlink:href="#mb0dc0267d9" y="298.944"/>
      </g>
     </g>
    </g>
    <g id="xtick_8">
     <g id="line2d_19">
      <path clip-path="url(#pecd7295e47)" d="M 338.688 298.944 
L 338.688 27.648 
" style="fill:none;stroke:#b0b0b0;stroke-linecap:square;stroke-width:0.8;"/>
     </g>
     <g id="line2d_20">
      <g>
       <use style="stroke:#000000;stroke-width:0.6;" x="338.688" xlink:href="#mb0dc0267d9" y="298.944"/>
      </g>
     </g>
    </g>
    <g id="text_5">
     <!-- log10(# f-evals / dimension) -->
     <defs>
      <path d="M 9.421875 75.984375 
L 18.40625 75.984375 
L 18.40625 0 
L 9.421875 0 
z
" id="DejaVuSans-108"/>
      <path d="M 30.609375 48.390625 
Q 23.390625 48.390625 19.1875 42.75 
Q 14.984375 37.109375 14.984375 27.296875 
Q 14.984375 17.484375 19.15625 11.84375 
Q 23.34375 6.203125 30.609375 6.203125 
Q 37.796875 6.203125 41.984375 11.859375 
Q 46.1875 17.53125 46.1875 27.296875 
Q 46.1875 37.015625 41.984375 42.703125 
Q 37.796875 48.390625 30.609375 48.390625 
z
M 30.609375 56 
Q 42.328125 56 49.015625 48.375 
Q 55.71875 40.765625 55.71875 27.296875 
Q 55.71875 13.875 49.015625 6.21875 
Q 42.328125 -1.421875 30.609375 -1.421875 
Q 18.84375 -1.421875 12.171875 6.21875 
Q 5.515625 13.875 5.515625 27.296875 
Q 5.515625 40.765625 12.171875 48.375 
Q 18.84375 56 30.609375 56 
z
" id="DejaVuSans-111"/>
      <path d="M 45.40625 27.984375 
Q 45.40625 37.75 41.375 43.109375 
Q 37.359375 48.484375 30.078125 48.484375 
Q 22.859375 48.484375 18.828125 43.109375 
Q 14.796875 37.75 14.796875 27.984375 
Q 14.796875 18.265625 18.828125 12.890625 
Q 22.859375 7.515625 30.078125 7.515625 
Q 37.359375 7.515625 41.375 12.890625 
Q 45.40625 18.265625 45.40625 27.984375 
z
M 54.390625 6.78125 
Q 54.390625 -7.171875 48.1875 -13.984375 
Q 42 -20.796875 29.203125 -20.796875 
Q 24.46875 -20.796875 20.265625 -20.09375 
Q 16.0625 -19.390625 12.109375 -17.921875 
L 12.109375 -9.1875 
Q 16.0625 -11.328125 19.921875 -12.34375 
Q 23.78125 -13.375 27.78125 -13.375 
Q 36.625 -13.375 41.015625 -8.765625 
Q 45.40625 -4.15625 45.40625 5.171875 
L 45.40625 9.625 
Q 42.625 4.78125 38.28125 2.390625 
Q 33.9375 0 27.875 0 
Q 17.828125 0 11.671875 7.65625 
Q 5.515625 15.328125 5.515625 27.984375 
Q 5.515625 40.671875 11.671875 48.328125 
Q 17.828125 56 27.875 56 
Q 33.9375 56 38.28125 53.609375 
Q 42.625 51.21875 45.40625 46.390625 
L 45.40625 54.6875 
L 54.390625 54.6875 
z
" id="DejaVuSans-103"/>
      <path d="M 12.40625 8.296875 
L 28.515625 8.296875 
L 28.515625 63.921875 
L 10.984375 60.40625 
L 10.984375 69.390625 
L 28.421875 72.90625 
L 38.28125 72.90625 
L 38.28125 8.296875 
L 54.390625 8.296875 
L 54.390625 0 
L 12.40625 0 
z
" id="DejaVuSans-49"/>
      <path d="M 31 75.875 
Q 24.46875 64.65625 21.28125 53.65625 
Q 18.109375 42.671875 18.109375 31.390625 
Q 18.109375 20.125 21.3125 9.0625 
Q 24.515625 -2 31 -13.1875 
L 23.1875 -13.1875 
Q 15.875 -1.703125 12.234375 9.375 
Q 8.59375 20.453125 8.59375 31.390625 
Q 8.59375 42.28125 12.203125 53.3125 
Q 15.828125 64.359375 23.1875 75.875 
z
" id="DejaVuSans-40"/>
      <path d="M 51.125 44 
L 36.921875 44 
L 32.8125 27.6875 
L 47.125 27.6875 
z
M 43.796875 71.78125 
L 38.71875 51.515625 
L 52.984375 51.515625 
L 58.109375 71.78125 
L 65.921875 71.78125 
L 60.890625 51.515625 
L 76.125 51.515625 
L 76.125 44 
L 58.984375 44 
L 54.984375 27.6875 
L 70.515625 27.6875 
L 70.515625 20.21875 
L 53.078125 20.21875 
L 48 0 
L 40.1875 0 
L 45.21875 20.21875 
L 30.90625 20.21875 
L 25.875 0 
L 18.015625 0 
L 23.09375 20.21875 
L 7.71875 20.21875 
L 7.71875 27.6875 
L 24.90625 27.6875 
L 29 44 
L 13.28125 44 
L 13.28125 51.515625 
L 30.90625 51.515625 
L 35.890625 71.78125 
z
" id="DejaVuSans-35"/>
      <path id="DejaVuSans-32"/>
      <path d="M 37.109375 75.984375 
L 37.109375 68.5 
L 28.515625 68.5 
Q 23.6875 68.5 21.796875 66.546875 
Q 19.921875 64.59375 19.921875 59.515625 
L 19.921875 54.6875 
L 34.71875 54.6875 
L 34.71875 47.703125 
L 19.921875 47.703125 
L 19.921875 0 
L 10.890625 0 
L 10.890625 47.703125 
L 2.296875 47.703125 
L 2.296875 54.6875 
L 10.890625 54.6875 
L 10.890625 58.5 
Q 10.890625 67.625 15.140625 71.796875 
Q 19.390625 75.984375 28.609375 75.984375 
z
" id="DejaVuSans-102"/>
      <path d="M 4.890625 31.390625 
L 31.203125 31.390625 
L 31.203125 23.390625 
L 4.890625 23.390625 
z
" id="DejaVuSans-45"/>
      <path d="M 56.203125 29.59375 
L 56.203125 25.203125 
L 14.890625 25.203125 
Q 15.484375 15.921875 20.484375 11.0625 
Q 25.484375 6.203125 34.421875 6.203125 
Q 39.59375 6.203125 44.453125 7.46875 
Q 49.3125 8.734375 54.109375 11.28125 
L 54.109375 2.78125 
Q 49.265625 0.734375 44.1875 -0.34375 
Q 39.109375 -1.421875 33.890625 -1.421875 
Q 20.796875 -1.421875 13.15625 6.1875 
Q 5.515625 13.8125 5.515625 26.8125 
Q 5.515625 40.234375 12.765625 48.109375 
Q 20.015625 56 32.328125 56 
Q 43.359375 56 49.78125 48.890625 
Q 56.203125 41.796875 56.203125 29.59375 
z
M 47.21875 32.234375 
Q 47.125 39.59375 43.09375 43.984375 
Q 39.0625 48.390625 32.421875 48.390625 
Q 24.90625 48.390625 20.390625 44.140625 
Q 15.875 39.890625 15.1875 32.171875 
z
" id="DejaVuSans-101"/>
      <path d="M 2.984375 54.6875 
L 12.5 54.6875 
L 29.59375 8.796875 
L 46.6875 54.6875 
L 56.203125 54.6875 
L 35.6875 0 
L 23.484375 0 
z
" id="DejaVuSans-118"/>
      <path d="M 34.28125 27.484375 
Q 23.390625 27.484375 19.1875 25 
Q 14.984375 22.515625 14.984375 16.5 
Q 14.984375 11.71875 18.140625 8.90625 
Q 21.296875 6.109375 26.703125 6.109375 
Q 34.1875 6.109375 38.703125 11.40625 
Q 43.21875 16.703125 43.21875 25.484375 
L 43.21875 27.484375 
z
M 52.203125 31.203125 
L 52.203125 0 
L 43.21875 0 
L 43.21875 8.296875 
Q 40.140625 3.328125 35.546875 0.953125 
Q 30.953125 -1.421875 24.3125 -1.421875 
Q 15.921875 -1.421875 10.953125 3.296875 
Q 6 8.015625 6 15.921875 
Q 6 25.140625 12.171875 29.828125 
Q 18.359375 34.515625 30.609375 34.515625 
L 43.21875 34.515625 
L 43.21875 35.40625 
Q 43.21875 41.609375 39.140625 45 
Q 35.0625 48.390625 27.6875 48.390625 
Q 23 48.390625 18.546875 47.265625 
Q 14.109375 46.140625 10.015625 43.890625 
L 10.015625 52.203125 
Q 14.9375 54.109375 19.578125 55.046875 
Q 24.21875 56 28.609375 56 
Q 40.484375 56 46.34375 49.84375 
Q 52.203125 43.703125 52.203125 31.203125 
z
" id="DejaVuSans-97"/>
      <path d="M 44.28125 53.078125 
L 44.28125 44.578125 
Q 40.484375 46.53125 36.375 47.5 
Q 32.28125 48.484375 27.875 48.484375 
Q 21.1875 48.484375 17.84375 46.4375 
Q 14.5 44.390625 14.5 40.28125 
Q 14.5 37.15625 16.890625 35.375 
Q 19.28125 33.59375 26.515625 31.984375 
L 29.59375 31.296875 
Q 39.15625 29.25 43.1875 25.515625 
Q 47.21875 21.78125 47.21875 15.09375 
Q 47.21875 7.46875 41.1875 3.015625 
Q 35.15625 -1.421875 24.609375 -1.421875 
Q 20.21875 -1.421875 15.453125 -0.5625 
Q 10.6875 0.296875 5.421875 2 
L 5.421875 11.28125 
Q 10.40625 8.6875 15.234375 7.390625 
Q 20.0625 6.109375 24.8125 6.109375 
Q 31.15625 6.109375 34.5625 8.28125 
Q 37.984375 10.453125 37.984375 14.40625 
Q 37.984375 18.0625 35.515625 20.015625 
Q 33.0625 21.96875 24.703125 23.78125 
L 21.578125 24.515625 
Q 13.234375 26.265625 9.515625 29.90625 
Q 5.8125 33.546875 5.8125 39.890625 
Q 5.8125 47.609375 11.28125 51.796875 
Q 16.75 56 26.8125 56 
Q 31.78125 56 36.171875 55.265625 
Q 40.578125 54.546875 44.28125 53.078125 
z
" id="DejaVuSans-115"/>
      <path d="M 25.390625 72.90625 
L 33.6875 72.90625 
L 8.296875 -9.28125 
L 0 -9.28125 
z
" id="DejaVuSans-47"/>
      <path d="M 45.40625 46.390625 
L 45.40625 75.984375 
L 54.390625 75.984375 
L 54.390625 0 
L 45.40625 0 
L 45.40625 8.203125 
Q 42.578125 3.328125 38.25 0.953125 
Q 33.9375 -1.421875 27.875 -1.421875 
Q 17.96875 -1.421875 11.734375 6.484375 
Q 5.515625 14.40625 5.515625 27.296875 
Q 5.515625 40.1875 11.734375 48.09375 
Q 17.96875 56 27.875 56 
Q 33.9375 56 38.25 53.625 
Q 42.578125 51.265625 45.40625 46.390625 
z
M 14.796875 27.296875 
Q 14.796875 17.390625 18.875 11.75 
Q 22.953125 6.109375 30.078125 6.109375 
Q 37.203125 6.109375 41.296875 11.75 
Q 45.40625 17.390625 45.40625 27.296875 
Q 45.40625 37.203125 41.296875 42.84375 
Q 37.203125 48.484375 30.078125 48.484375 
Q 22.953125 48.484375 18.875 42.84375 
Q 14.796875 37.203125 14.796875 27.296875 
z
" id="DejaVuSans-100"/>
      <path d="M 9.421875 54.6875 
L 18.40625 54.6875 
L 18.40625 0 
L 9.421875 0 
z
M 9.421875 75.984375 
L 18.40625 75.984375 
L 18.40625 64.59375 
L 9.421875 64.59375 
z
" id="DejaVuSans-105"/>
      <path d="M 52 44.1875 
Q 55.375 50.25 60.0625 53.125 
Q 64.75 56 71.09375 56 
Q 79.640625 56 84.28125 50.015625 
Q 88.921875 44.046875 88.921875 33.015625 
L 88.921875 0 
L 79.890625 0 
L 79.890625 32.71875 
Q 79.890625 40.578125 77.09375 44.375 
Q 74.3125 48.1875 68.609375 48.1875 
Q 61.625 48.1875 57.5625 43.546875 
Q 53.515625 38.921875 53.515625 30.90625 
L 53.515625 0 
L 44.484375 0 
L 44.484375 32.71875 
Q 44.484375 40.625 41.703125 44.40625 
Q 38.921875 48.1875 33.109375 48.1875 
Q 26.21875 48.1875 22.15625 43.53125 
Q 18.109375 38.875 18.109375 30.90625 
L 18.109375 0 
L 9.078125 0 
L 9.078125 54.6875 
L 18.109375 54.6875 
L 18.109375 46.1875 
Q 21.1875 51.21875 25.484375 53.609375 
Q 29.78125 56 35.6875 56 
Q 41.65625 56 45.828125 52.96875 
Q 50 49.953125 52 44.1875 
z
" id="DejaVuSans-109"/>
      <path d="M 54.890625 33.015625 
L 54.890625 0 
L 45.90625 0 
L 45.90625 32.71875 
Q 45.90625 40.484375 42.875 44.328125 
Q 39.84375 48.1875 33.796875 48.1875 
Q 26.515625 48.1875 22.3125 43.546875 
Q 18.109375 38.921875 18.109375 30.90625 
L 18.109375 0 
L 9.078125 0 
L 9.078125 54.6875 
L 18.109375 54.6875 
L 18.109375 46.1875 
Q 21.34375 51.125 25.703125 53.5625 
Q 30.078125 56 35.796875 56 
Q 45.21875 56 50.046875 50.171875 
Q 54.890625 44.34375 54.890625 33.015625 
z
" id="DejaVuSans-110"/>
      <path d="M 8.015625 75.875 
L 15.828125 75.875 
Q 23.140625 64.359375 26.78125 53.3125 
Q 30.421875 42.28125 30.421875 31.390625 
Q 30.421875 20.453125 26.78125 9.375 
Q 23.140625 -1.703125 15.828125 -13.1875 
L 8.015625 -13.1875 
Q 14.5 -2 17.703125 9.0625 
Q 20.90625 20.125 20.90625 31.390625 
Q 20.90625 42.671875 17.703125 53.65625 
Q 14.5 64.65625 8.015625 75.875 
z
" id="DejaVuSans-41"/>
     </defs>
     <g transform="translate(77.303219 342.217594)scale(0.17 -0.17)">
      <use xlink:href="#DejaVuSans-108"/>
      <use x="27.783203" xlink:href="#DejaVuSans-111"/>
      <use x="88.964844" xlink:href="#DejaVuSans-103"/>
      <use x="152.441406" xlink:href="#DejaVuSans-49"/>
      <use x="216.064453" xlink:href="#DejaVuSans-48"/>
      <use x="279.6875" xlink:href="#DejaVuSans-40"/>
      <use x="318.701172" xlink:href="#DejaVuSans-35"/>
      <use x="402.490234" xlink:href="#DejaVuSans-32"/>
      <use x="434.277344" xlink:href="#DejaVuSans-102"/>
      <use x="469.404297" xlink:href="#DejaVuSans-45"/>
      <use x="505.488281" xlink:href="#DejaVuSans-101"/>
      <use x="567.011719" xlink:href="#DejaVuSans-118"/>
      <use x="626.191406" xlink:href="#DejaVuSans-97"/>
      <use x="687.470703" xlink:href="#DejaVuSans-108"/>
      <use x="715.253906" xlink:href="#DejaVuSans-115"/>
      <use x="767.353516" xlink:href="#DejaVuSans-32"/>
      <use x="799.140625" xlink:href="#DejaVuSans-47"/>
      <use x="832.832031" xlink:href="#DejaVuSans-32"/>
      <use x="864.619141" xlink:href="#DejaVuSans-100"/>
      <use x="928.095703" xlink:href="#DejaVuSans-105"/>
      <use x="955.878906" xlink:href="#DejaVuSans-109"/>
      <use x="1053.291016" xlink:href="#DejaVuSans-101"/>
      <use x="1114.814453" xlink:href="#DejaVuSans-110"/>
      <use x="1178.193359" xlink:href="#DejaVuSans-115"/>
      <use x="1230.292969" xlink:href="#DejaVuSans-105"/>
      <use x="1258.076172" xlink:href="#DejaVuSans-111"/>
      <use x="1319.257812" xlink:href="#DejaVuSans-110"/>
      <use x="1382.636719" xlink:href="#DejaVuSans-41"/>
     </g>
    </g>
   </g>
   <g id="matplotlib.axis_2">
    <g id="ytick_1">
     <g id="line2d_21">
      <path clip-path="url(#pecd7295e47)" d="M 57.6 298.944 
L 338.688 298.944 
" style="fill:none;stroke:#b0b0b0;stroke-linecap:square;stroke-width:0.8;"/>
     </g>
     <g id="line2d_22">
      <defs>
       <path d="M 0 0 
L -3.5 0 
" id="m8745d10bb0" style="stroke:#000000;stroke-width:0.8;"/>
      </defs>
      <g>
       <use style="stroke:#000000;stroke-width:0.8;" x="57.6" xlink:href="#m8745d10bb0" y="298.944"/>
      </g>
     </g>
     <g id="text_6">
      <!-- 0.0 -->
      <defs>
       <path d="M 10.6875 12.40625 
L 21 12.40625 
L 21 0 
L 10.6875 0 
z
" id="DejaVuSans-46"/>
      </defs>
      <g transform="translate(25.155 305.02275)scale(0.16 -0.16)">
       <use xlink:href="#DejaVuSans-48"/>
       <use x="63.623047" xlink:href="#DejaVuSans-46"/>
       <use x="95.410156" xlink:href="#DejaVuSans-48"/>
      </g>
     </g>
    </g>
    <g id="ytick_2">
     <g id="line2d_23">
      <path clip-path="url(#pecd7295e47)" d="M 57.6 245.22202 
L 338.688 245.22202 
" style="fill:none;stroke:#b0b0b0;stroke-linecap:square;stroke-width:0.8;"/>
     </g>
     <g id="line2d_24">
      <g>
       <use style="stroke:#000000;stroke-width:0.8;" x="57.6" xlink:href="#m8745d10bb0" y="245.22202"/>
      </g>
     </g>
     <g id="text_7">
      <!-- 0.2 -->
      <g transform="translate(25.155 251.30077)scale(0.16 -0.16)">
       <use xlink:href="#DejaVuSans-48"/>
       <use x="63.623047" xlink:href="#DejaVuSans-46"/>
       <use x="95.410156" xlink:href="#DejaVuSans-50"/>
      </g>
     </g>
    </g>
    <g id="ytick_3">
     <g id="line2d_25">
      <path clip-path="url(#pecd7295e47)" d="M 57.6 191.50004 
L 338.688 191.50004 
" style="fill:none;stroke:#b0b0b0;stroke-linecap:square;stroke-width:0.8;"/>
     </g>
     <g id="line2d_26">
      <g>
       <use style="stroke:#000000;stroke-width:0.8;" x="57.6" xlink:href="#m8745d10bb0" y="191.50004"/>
      </g>
     </g>
     <g id="text_8">
      <!-- 0.4 -->
      <g transform="translate(25.155 197.57879)scale(0.16 -0.16)">
       <use xlink:href="#DejaVuSans-48"/>
       <use x="63.623047" xlink:href="#DejaVuSans-46"/>
       <use x="95.410156" xlink:href="#DejaVuSans-52"/>
      </g>
     </g>
    </g>
    <g id="ytick_4">
     <g id="line2d_27">
      <path clip-path="url(#pecd7295e47)" d="M 57.6 137.778059 
L 338.688 137.778059 
" style="fill:none;stroke:#b0b0b0;stroke-linecap:square;stroke-width:0.8;"/>
     </g>
     <g id="line2d_28">
      <g>
       <use style="stroke:#000000;stroke-width:0.8;" x="57.6" xlink:href="#m8745d10bb0" y="137.778059"/>
      </g>
     </g>
     <g id="text_9">
      <!-- 0.6 -->
      <g transform="translate(25.155 143.856809)scale(0.16 -0.16)">
       <use xlink:href="#DejaVuSans-48"/>
       <use x="63.623047" xlink:href="#DejaVuSans-46"/>
       <use x="95.410156" xlink:href="#DejaVuSans-54"/>
      </g>
     </g>
    </g>
    <g id="ytick_5">
     <g id="line2d_29">
      <path clip-path="url(#pecd7295e47)" d="M 57.6 84.056079 
L 338.688 84.056079 
" style="fill:none;stroke:#b0b0b0;stroke-linecap:square;stroke-width:0.8;"/>
     </g>
     <g id="line2d_30">
      <g>
       <use style="stroke:#000000;stroke-width:0.8;" x="57.6" xlink:href="#m8745d10bb0" y="84.056079"/>
      </g>
     </g>
     <g id="text_10">
      <!-- 0.8 -->
      <defs>
       <path d="M 31.78125 34.625 
Q 24.75 34.625 20.71875 30.859375 
Q 16.703125 27.09375 16.703125 20.515625 
Q 16.703125 13.921875 20.71875 10.15625 
Q 24.75 6.390625 31.78125 6.390625 
Q 38.8125 6.390625 42.859375 10.171875 
Q 46.921875 13.96875 46.921875 20.515625 
Q 46.921875 27.09375 42.890625 30.859375 
Q 38.875 34.625 31.78125 34.625 
z
M 21.921875 38.8125 
Q 15.578125 40.375 12.03125 44.71875 
Q 8.5 49.078125 8.5 55.328125 
Q 8.5 64.0625 14.71875 69.140625 
Q 20.953125 74.21875 31.78125 74.21875 
Q 42.671875 74.21875 48.875 69.140625 
Q 55.078125 64.0625 55.078125 55.328125 
Q 55.078125 49.078125 51.53125 44.71875 
Q 48 40.375 41.703125 38.8125 
Q 48.828125 37.15625 52.796875 32.3125 
Q 56.78125 27.484375 56.78125 20.515625 
Q 56.78125 9.90625 50.3125 4.234375 
Q 43.84375 -1.421875 31.78125 -1.421875 
Q 19.734375 -1.421875 13.25 4.234375 
Q 6.78125 9.90625 6.78125 20.515625 
Q 6.78125 27.484375 10.78125 32.3125 
Q 14.796875 37.15625 21.921875 38.8125 
z
M 18.3125 54.390625 
Q 18.3125 48.734375 21.84375 45.5625 
Q 25.390625 42.390625 31.78125 42.390625 
Q 38.140625 42.390625 41.71875 45.5625 
Q 45.3125 48.734375 45.3125 54.390625 
Q 45.3125 60.0625 41.71875 63.234375 
Q 38.140625 66.40625 31.78125 66.40625 
Q 25.390625 66.40625 21.84375 63.234375 
Q 18.3125 60.0625 18.3125 54.390625 
z
" id="DejaVuSans-56"/>
      </defs>
      <g transform="translate(25.155 90.134829)scale(0.16 -0.16)">
       <use xlink:href="#DejaVuSans-48"/>
       <use x="63.623047" xlink:href="#DejaVuSans-46"/>
       <use x="95.410156" xlink:href="#DejaVuSans-56"/>
      </g>
     </g>
    </g>
    <g id="ytick_6">
     <g id="line2d_31">
      <path clip-path="url(#pecd7295e47)" d="M 57.6 30.334099 
L 338.688 30.334099 
" style="fill:none;stroke:#b0b0b0;stroke-linecap:square;stroke-width:0.8;"/>
     </g>
     <g id="line2d_32">
      <g>
       <use style="stroke:#000000;stroke-width:0.8;" x="57.6" xlink:href="#m8745d10bb0" y="30.334099"/>
      </g>
     </g>
     <g id="text_11">
      <!-- 1.0 -->
      <g transform="translate(25.155 36.412849)scale(0.16 -0.16)">
       <use xlink:href="#DejaVuSans-49"/>
       <use x="63.623047" xlink:href="#DejaVuSans-46"/>
       <use x="95.410156" xlink:href="#DejaVuSans-48"/>
      </g>
     </g>
    </g>
    <g id="text_12">
     <!-- Fraction of function,target pairs -->
     <defs>
      <path d="M 9.8125 72.90625 
L 51.703125 72.90625 
L 51.703125 64.59375 
L 19.671875 64.59375 
L 19.671875 43.109375 
L 48.578125 43.109375 
L 48.578125 34.8125 
L 19.671875 34.8125 
L 19.671875 0 
L 9.8125 0 
z
" id="DejaVuSans-70"/>
      <path d="M 41.109375 46.296875 
Q 39.59375 47.171875 37.8125 47.578125 
Q 36.03125 48 33.890625 48 
Q 26.265625 48 22.1875 43.046875 
Q 18.109375 38.09375 18.109375 28.8125 
L 18.109375 0 
L 9.078125 0 
L 9.078125 54.6875 
L 18.109375 54.6875 
L 18.109375 46.1875 
Q 20.953125 51.171875 25.484375 53.578125 
Q 30.03125 56 36.53125 56 
Q 37.453125 56 38.578125 55.875 
Q 39.703125 55.765625 41.0625 55.515625 
z
" id="DejaVuSans-114"/>
      <path d="M 48.78125 52.59375 
L 48.78125 44.1875 
Q 44.96875 46.296875 41.140625 47.34375 
Q 37.3125 48.390625 33.40625 48.390625 
Q 24.65625 48.390625 19.8125 42.84375 
Q 14.984375 37.3125 14.984375 27.296875 
Q 14.984375 17.28125 19.8125 11.734375 
Q 24.65625 6.203125 33.40625 6.203125 
Q 37.3125 6.203125 41.140625 7.25 
Q 44.96875 8.296875 48.78125 10.40625 
L 48.78125 2.09375 
Q 45.015625 0.34375 40.984375 -0.53125 
Q 36.96875 -1.421875 32.421875 -1.421875 
Q 20.0625 -1.421875 12.78125 6.34375 
Q 5.515625 14.109375 5.515625 27.296875 
Q 5.515625 40.671875 12.859375 48.328125 
Q 20.21875 56 33.015625 56 
Q 37.15625 56 41.109375 55.140625 
Q 45.0625 54.296875 48.78125 52.59375 
z
" id="DejaVuSans-99"/>
      <path d="M 18.3125 70.21875 
L 18.3125 54.6875 
L 36.8125 54.6875 
L 36.8125 47.703125 
L 18.3125 47.703125 
L 18.3125 18.015625 
Q 18.3125 11.328125 20.140625 9.421875 
Q 21.96875 7.515625 27.59375 7.515625 
L 36.8125 7.515625 
L 36.8125 0 
L 27.59375 0 
Q 17.1875 0 13.234375 3.875 
Q 9.28125 7.765625 9.28125 18.015625 
L 9.28125 47.703125 
L 2.6875 47.703125 
L 2.6875 54.6875 
L 9.28125 54.6875 
L 9.28125 70.21875 
z
" id="DejaVuSans-116"/>
      <path d="M 8.5 21.578125 
L 8.5 54.6875 
L 17.484375 54.6875 
L 17.484375 21.921875 
Q 17.484375 14.15625 20.5 10.265625 
Q 23.53125 6.390625 29.59375 6.390625 
Q 36.859375 6.390625 41.078125 11.03125 
Q 45.3125 15.671875 45.3125 23.6875 
L 45.3125 54.6875 
L 54.296875 54.6875 
L 54.296875 0 
L 45.3125 0 
L 45.3125 8.40625 
Q 42.046875 3.421875 37.71875 1 
Q 33.40625 -1.421875 27.6875 -1.421875 
Q 18.265625 -1.421875 13.375 4.4375 
Q 8.5 10.296875 8.5 21.578125 
z
M 31.109375 56 
z
" id="DejaVuSans-117"/>
      <path d="M 11.71875 12.40625 
L 22.015625 12.40625 
L 22.015625 4 
L 14.015625 -11.625 
L 7.71875 -11.625 
L 11.71875 4 
z
" id="DejaVuSans-44"/>
      <path d="M 18.109375 8.203125 
L 18.109375 -20.796875 
L 9.078125 -20.796875 
L 9.078125 54.6875 
L 18.109375 54.6875 
L 18.109375 46.390625 
Q 20.953125 51.265625 25.265625 53.625 
Q 29.59375 56 35.59375 56 
Q 45.5625 56 51.78125 48.09375 
Q 58.015625 40.1875 58.015625 27.296875 
Q 58.015625 14.40625 51.78125 6.484375 
Q 45.5625 -1.421875 35.59375 -1.421875 
Q 29.59375 -1.421875 25.265625 0.953125 
Q 20.953125 3.328125 18.109375 8.203125 
z
M 48.6875 27.296875 
Q 48.6875 37.203125 44.609375 42.84375 
Q 40.53125 48.484375 33.40625 48.484375 
Q 26.265625 48.484375 22.1875 42.84375 
Q 18.109375 37.203125 18.109375 27.296875 
Q 18.109375 17.390625 22.1875 11.75 
Q 26.265625 6.109375 33.40625 6.109375 
Q 40.53125 6.109375 44.609375 11.75 
Q 48.6875 17.390625 48.6875 27.296875 
z
" id="DejaVuSans-112"/>
     </defs>
     <g transform="translate(17.619531 298.435375)rotate(-90)scale(0.17 -0.17)">
      <use xlink:href="#DejaVuSans-70"/>
      <use x="57.410156" xlink:href="#DejaVuSans-114"/>
      <use x="98.523438" xlink:href="#DejaVuSans-97"/>
      <use x="159.802734" xlink:href="#DejaVuSans-99"/>
      <use x="214.783203" xlink:href="#DejaVuSans-116"/>
      <use x="253.992188" xlink:href="#DejaVuSans-105"/>
      <use x="281.775391" xlink:href="#DejaVuSans-111"/>
      <use x="342.957031" xlink:href="#DejaVuSans-110"/>
      <use x="406.335938" xlink:href="#DejaVuSans-32"/>
      <use x="438.123047" xlink:href="#DejaVuSans-111"/>
      <use x="499.304688" xlink:href="#DejaVuSans-102"/>
      <use x="534.509766" xlink:href="#DejaVuSans-32"/>
      <use x="566.296875" xlink:href="#DejaVuSans-102"/>
      <use x="601.501953" xlink:href="#DejaVuSans-117"/>
      <use x="664.880859" xlink:href="#DejaVuSans-110"/>
      <use x="728.259766" xlink:href="#DejaVuSans-99"/>
      <use x="783.240234" xlink:href="#DejaVuSans-116"/>
      <use x="822.449219" xlink:href="#DejaVuSans-105"/>
      <use x="850.232422" xlink:href="#DejaVuSans-111"/>
      <use x="911.414062" xlink:href="#DejaVuSans-110"/>
      <use x="974.792969" xlink:href="#DejaVuSans-44"/>
      <use x="1006.580078" xlink:href="#DejaVuSans-116"/>
      <use x="1045.789062" xlink:href="#DejaVuSans-97"/>
      <use x="1107.068359" xlink:href="#DejaVuSans-114"/>
      <use x="1148.166016" xlink:href="#DejaVuSans-103"/>
      <use x="1211.642578" xlink:href="#DejaVuSans-101"/>
      <use x="1273.166016" xlink:href="#DejaVuSans-116"/>
      <use x="1312.375" xlink:href="#DejaVuSans-32"/>
      <use x="1344.162109" xlink:href="#DejaVuSans-112"/>
      <use x="1407.638672" xlink:href="#DejaVuSans-97"/>
      <use x="1468.917969" xlink:href="#DejaVuSans-105"/>
      <use x="1496.701172" xlink:href="#DejaVuSans-114"/>
      <use x="1537.814453" xlink:href="#DejaVuSans-115"/>
     </g>
    </g>
   </g>
   <g id="line2d_33">
    <defs>
     <path d="M 0 1.5 
C 0.397805 1.5 0.77937 1.341951 1.06066 1.06066 
C 1.341951 0.77937 1.5 0.397805 1.5 0 
C 1.5 -0.397805 1.341951 -0.77937 1.06066 -1.06066 
C 0.77937 -1.341951 0.397805 -1.5 0 -1.5 
C -0.397805 -1.5 -0.77937 -1.341951 -1.06066 -1.06066 
C -1.341951 -0.77937 -1.5 -0.397805 -1.5 0 
C -1.5 0.397805 -1.341951 0.77937 -1.06066 1.06066 
C -0.77937 1.341951 -0.397805 1.5 0 1.5 
z
" id="m2396e3abe9" style="stroke:#f5deb3;"/>
    </defs>
    <g>
     <use style="fill:#f5deb3;stroke:#f5deb3;" x="278.566013" xlink:href="#m2396e3abe9" y="62.752535"/>
     <use style="fill:#f5deb3;stroke:#f5deb3;" x="278.566013" xlink:href="#m2396e3abe9" y="62.752535"/>
    </g>
   </g>
   <g id="line2d_34">
    <defs>
     <path d="M 0 1.5 
C 0.397805 1.5 0.77937 1.341951 1.06066 1.06066 
C 1.341951 0.77937 1.5 0.397805 1.5 0 
C 1.5 -0.397805 1.341951 -0.77937 1.06066 -1.06066 
C 0.77937 -1.341951 0.397805 -1.5 0 -1.5 
C -0.397805 -1.5 -0.77937 -1.341951 -1.06066 -1.06066 
C -1.341951 -0.77937 -1.5 -0.397805 -1.5 0 
C -1.5 0.397805 -1.341951 0.77937 -1.06066 1.06066 
C -0.77937 1.341951 -0.397805 1.5 0 1.5 
z
" id="m0ae9dc0b86" style="stroke:#000080;"/>
    </defs>
    <g>
     <use style="fill:#000080;stroke:#000080;" x="189.732414" xlink:href="#m0ae9dc0b86" y="165.565291"/>
     <use style="fill:#000080;stroke:#000080;" x="189.732414" xlink:href="#m0ae9dc0b86" y="165.565291"/>
    </g>
   </g>
   <g id="line2d_35">
    <path d="M 29.53256 298.944 
L 29.53256 289.68159 
L 48.691568 289.68159 
L 48.691568 286.902867 
L 57.6 286.902867 
L 57.6 285.050384 
L 71.35013 285.050384 
L 71.35013 284.124143 
L 72.867545 284.124143 
L 72.867545 281.34542 
L 75.555822 281.34542 
L 75.555822 280.419179 
L 80.881459 280.419179 
L 80.881459 277.640456 
L 81.775977 277.640456 
L 81.775977 273.009251 
L 87.009585 273.009251 
L 87.009585 272.08301 
L 87.643811 272.08301 
L 87.643811 270.230528 
L 88.846997 270.230528 
L 88.846997 269.304287 
L 89.418828 269.304287 
L 89.418828 268.378046 
L 89.972502 268.378046 
L 89.972502 267.451805 
L 92.026554 267.451805 
L 92.026554 265.599323 
L 93.422441 265.599323 
L 93.422441 262.8206 
L 96.301313 262.8206 
L 96.301313 259.115635 
L 96.676366 259.115635 
L 96.676366 258.189394 
L 97.755429 258.189394 
L 97.755429 256.336912 
L 100.641881 256.336912 
L 100.641881 255.410671 
L 101.506816 255.410671 
L 101.506816 252.631948 
L 102.060491 252.631948 
L 102.060491 251.705707 
L 105.285403 251.705707 
L 105.285403 250.779466 
L 105.732589 250.779466 
L 105.732589 248.000743 
L 106.382575 248.000743 
L 106.382575 246.148261 
L 106.802819 246.148261 
L 106.802819 245.22202 
L 107.614095 245.22202 
L 107.614095 243.369538 
L 110.188761 243.369538 
L 110.188761 242.443297 
L 111.505558 242.443297 
L 111.505558 240.590815 
L 112.128456 240.590815 
L 112.128456 238.738333 
L 113.873839 238.738333 
L 113.873839 237.812091 
L 114.148479 237.812091 
L 114.148479 235.959609 
L 115.460322 235.959609 
L 115.460322 234.107127 
L 115.835374 234.107127 
L 115.835374 232.254645 
L 117.373392 232.254645 
L 117.373392 231.328404 
L 118.148599 231.328404 
L 118.148599 229.475922 
L 118.890808 229.475922 
L 118.890808 225.770958 
L 119.199476 225.770958 
L 119.199476 222.065994 
L 119.502775 222.065994 
L 119.502775 220.213512 
L 120.286695 220.213512 
L 120.286695 219.287271 
L 120.759333 219.287271 
L 120.759333 217.434789 
L 122.276749 217.434789 
L 122.362027 215.582307 
L 124.368753 215.582307 
L 124.368753 214.656066 
L 127.293718 214.656066 
L 127.293718 212.803583 
L 130.61164 212.803583 
L 130.61164 210.951101 
L 144.582038 210.951101 
L 144.582038 210.02486 
L 144.981877 210.02486 
L 144.981877 208.172378 
L 148.122637 208.172378 
L 148.122637 206.319896 
L 148.714503 206.319896 
L 148.714503 204.467414 
L 151.080698 204.467414 
L 151.080698 202.614932 
L 152.253262 202.614932 
L 152.253262 200.76245 
L 153.032466 200.76245 
L 153.032466 199.836209 
L 153.294279 199.836209 
L 153.294279 198.909968 
L 155.82927 198.909968 
L 155.82927 197.983727 
L 156.333721 197.983727 
L 156.333721 196.131245 
L 159.718236 196.131245 
L 159.718236 195.205004 
L 160.142522 195.205004 
L 160.142522 194.278763 
L 161.805549 194.278763 
L 161.840959 190.573799 
L 162.034438 190.573799 
L 162.034438 188.721316 
L 162.576903 188.721316 
L 162.576903 187.795075 
L 163.020547 187.795075 
L 163.086542 185.942593 
L 164.094319 185.942593 
L 164.15638 183.16387 
L 169.491796 183.16387 
L 169.491796 182.237629 
L 169.695899 182.237629 
L 169.695899 181.311388 
L 173.08184 181.311388 
L 173.08184 180.385147 
L 173.508272 180.385147 
L 173.508272 179.458906 
L 174.003955 179.458906 
L 174.003955 178.532665 
L 177.437743 178.532665 
L 177.473864 174.827701 
L 177.742414 174.827701 
L 177.742414 172.975219 
L 183.841696 172.975219 
L 183.841696 171.122737 
L 184.181489 171.122737 
L 184.181489 170.196496 
L 184.801586 170.196496 
L 184.801586 169.270255 
L 185.894913 169.270255 
L 185.894913 168.344014 
L 186.30418 168.344014 
L 186.395281 166.491532 
L 189.732414 166.491532 
L 189.732414 165.565291 
L 338.688 165.565291 
L 338.688 165.565291 
" style="fill:none;stroke:#000080;stroke-linecap:square;stroke-width:1.5;"/>
   </g>
   <g id="line2d_36">
    <defs>
     <path d="M 0 6 
C 1.591219 6 3.117479 5.367802 4.242641 4.242641 
C 5.367802 3.117479 6 1.591219 6 0 
C 6 -1.591219 5.367802 -3.117479 4.242641 -4.242641 
C 3.117479 -5.367802 1.591219 -6 0 -6 
C -1.591219 -6 -3.117479 -5.367802 -4.242641 -4.242641 
C -5.367802 -3.117479 -6 -1.591219 -6 0 
C -6 1.591219 -5.367802 3.117479 -4.242641 4.242641 
C -3.117479 5.367802 -1.591219 6 0 6 
z
" id="mbba2220f9b" style="stroke:#000080;stroke-width:1.5;"/>
    </defs>
    <g>
     <use style="fill-opacity:0;stroke:#000080;stroke-width:1.5;" x="111.505558" xlink:href="#mbba2220f9b" y="242.443297"/>
     <use style="fill-opacity:0;stroke:#000080;stroke-width:1.5;" x="156.333721" xlink:href="#mbba2220f9b" y="196.131245"/>
     <use style="fill-opacity:0;stroke:#000080;stroke-width:1.5;" x="189.732414" xlink:href="#mbba2220f9b" y="166.491532"/>
     <use style="fill-opacity:0;stroke:#000080;stroke-width:1.5;" x="189.732414" xlink:href="#mbba2220f9b" y="165.565291"/>
     <use style="fill-opacity:0;stroke:#000080;stroke-width:1.5;" x="189.732414" xlink:href="#mbba2220f9b" y="165.565291"/>
     <use style="fill-opacity:0;stroke:#000080;stroke-width:1.5;" x="338.688" xlink:href="#mbba2220f9b" y="165.565291"/>
    </g>
   </g>
   <g id="line2d_37">
    <path style="fill:none;stroke:#000080;stroke-linecap:square;stroke-width:1.5;"/>
    <g/>
   </g>
   <g id="line2d_38">
    <path clip-path="url(#pecd7295e47)" d="M 190.159505 165.565291 
" style="fill:none;stroke:#000080;stroke-linecap:square;stroke-width:1.5;"/>
    <defs>
     <path d="M -12 12 
L 12 -12 
M -12 -12 
L 12 12 
" id="m31c14a56ae" style="stroke:#000080;"/>
    </defs>
    <g clip-path="url(#pecd7295e47)">
     <use style="fill:#000080;stroke:#000080;" x="190.159505" xlink:href="#m31c14a56ae" y="165.565291"/>
    </g>
   </g>
   <g id="line2d_39">
    <defs>
     <path d="M 0 1.5 
C 0.397805 1.5 0.77937 1.341951 1.06066 1.06066 
C 1.341951 0.77937 1.5 0.397805 1.5 0 
C 1.5 -0.397805 1.341951 -0.77937 1.06066 -1.06066 
C 0.77937 -1.341951 0.397805 -1.5 0 -1.5 
C -0.397805 -1.5 -0.77937 -1.341951 -1.06066 -1.06066 
C -1.341951 -0.77937 -1.5 -0.397805 -1.5 0 
C -1.5 0.397805 -1.341951 0.77937 -1.06066 1.06066 
C -0.77937 1.341951 -0.397805 1.5 0 1.5 
z
" id="m93a1a3251d" style="stroke:#ff00ff;"/>
    </defs>
    <g>
     <use style="fill:#ff00ff;stroke:#ff00ff;" x="177.252352" xlink:href="#m93a1a3251d" y="180.385147"/>
     <use style="fill:#ff00ff;stroke:#ff00ff;" x="177.252352" xlink:href="#m93a1a3251d" y="180.385147"/>
    </g>
   </g>
   <g id="line2d_40">
    <path d="M 29.53256 298.944 
L 29.53256 289.68159 
L 60.779557 289.68159 
L 60.779557 288.755349 
L 63.467834 288.755349 
L 63.467834 287.829108 
L 72.867545 287.829108 
L 72.867545 285.976625 
L 76.759008 285.976625 
L 76.759008 285.050384 
L 83.438118 285.050384 
L 83.438118 284.124143 
L 87.643811 284.124143 
L 87.643811 279.492938 
L 89.418828 279.492938 
L 89.418828 275.787974 
L 91.029752 275.787974 
L 91.029752 273.935492 
L 91.535274 273.935492 
L 91.535274 272.08301 
L 92.504372 272.08301 
L 92.504372 270.230528 
L 93.422441 270.230528 
L 93.422441 265.599323 
L 95.125186 265.599323 
L 95.125186 264.673082 
L 95.526106 264.673082 
L 95.526106 263.746841 
L 97.043522 263.746841 
L 97.043522 260.968117 
L 99.097574 260.968117 
L 99.097574 258.189394 
L 99.41757 258.189394 
L 99.41757 257.263153 
L 100.641881 257.263153 
L 100.641881 256.336912 
L 102.597126 256.336912 
L 102.597126 253.558189 
L 105.951954 253.558189 
L 105.951954 251.705707 
L 111.185562 251.705707 
L 111.185562 249.853225 
L 111.819788 249.853225 
L 111.819788 248.000743 
L 112.877038 248.000743 
L 112.877038 246.148261 
L 113.022974 246.148261 
L 113.022974 242.443297 
L 113.453595 242.443297 
L 113.453595 241.517056 
L 113.73488 241.517056 
L 113.73488 240.590815 
L 114.148479 240.590815 
L 114.148479 239.664574 
L 114.418861 239.664574 
L 114.418861 237.812091 
L 114.552496 237.812091 
L 114.552496 236.88585 
L 114.816733 236.88585 
L 114.816733 235.959609 
L 115.460322 235.959609 
L 115.460322 235.033368 
L 115.835374 235.033368 
L 115.835374 234.107127 
L 116.562116 234.107127 
L 116.562116 233.180886 
L 117.709852 233.180886 
L 117.709852 232.254645 
L 117.930605 232.254645 
L 117.930605 231.328404 
L 119.602714 231.328404 
L 119.602714 229.475922 
L 120.47729 229.475922 
L 120.47729 227.62344 
L 120.852343 227.62344 
L 120.852343 225.770958 
L 121.756135 225.770958 
L 121.756135 223.918476 
L 122.018385 223.918476 
L 122.018385 222.065994 
L 123.111324 222.065994 
L 123.192626 218.36103 
L 123.514096 218.36103 
L 123.514096 216.508548 
L 123.751369 216.508548 
L 123.751369 215.582307 
L 124.368753 215.582307 
L 124.368753 214.656066 
L 125.399222 214.656066 
L 125.399222 213.729825 
L 127.861412 213.729825 
L 127.861412 212.803583 
L 128.650105 212.803583 
L 128.650105 210.951101 
L 129.233413 210.951101 
L 129.233413 209.098619 
L 153.017805 209.098619 
L 153.017805 208.172378 
L 153.423725 208.172378 
L 153.423725 206.319896 
L 154.180855 206.319896 
L 154.180855 204.467414 
L 154.945917 204.467414 
L 154.945917 202.614932 
L 155.86668 202.614932 
L 155.86668 200.76245 
L 156.297301 200.76245 
L 156.297301 199.836209 
L 156.646219 199.836209 
L 156.646219 198.909968 
L 164.164122 198.909968 
L 164.164122 197.057486 
L 165.069087 197.057486 
L 165.069087 196.131245 
L 165.880363 196.131245 
L 165.880363 195.205004 
L 166.213873 195.205004 
L 166.213873 193.352522 
L 166.337313 193.352522 
L 166.337313 192.426281 
L 167.216791 192.426281 
L 167.216791 191.50004 
L 167.659453 191.50004 
L 167.659453 189.647558 
L 167.935973 189.647558 
L 167.935973 187.795075 
L 169.925477 187.795075 
L 169.925477 186.868834 
L 170.299701 186.868834 
L 170.299701 185.016352 
L 172.829364 185.016352 
L 172.932666 183.16387 
L 173.183662 183.16387 
L 173.183662 182.237629 
L 176.706692 182.237629 
L 176.706692 181.311388 
L 177.252352 181.311388 
L 177.252352 180.385147 
L 338.688 180.385147 
L 338.688 180.385147 
" style="fill:none;stroke:#ff00ff;stroke-linecap:square;stroke-width:1.5;"/>
   </g>
   <g id="line2d_41">
    <defs>
     <path d="M 0 8.485281 
L 5.091169 0 
L 0 -8.485281 
L -5.091169 0 
z
" id="m540ac06731" style="stroke:#ff00ff;stroke-linejoin:miter;stroke-width:1.5;"/>
    </defs>
    <g>
     <use style="fill-opacity:0;stroke:#ff00ff;stroke-linejoin:miter;stroke-width:1.5;" x="93.422441" xlink:href="#m540ac06731" y="270.230528"/>
     <use style="fill-opacity:0;stroke:#ff00ff;stroke-linejoin:miter;stroke-width:1.5;" x="129.233413" xlink:href="#m540ac06731" y="209.098619"/>
     <use style="fill-opacity:0;stroke:#ff00ff;stroke-linejoin:miter;stroke-width:1.5;" x="177.252352" xlink:href="#m540ac06731" y="181.311388"/>
     <use style="fill-opacity:0;stroke:#ff00ff;stroke-linejoin:miter;stroke-width:1.5;" x="177.252352" xlink:href="#m540ac06731" y="180.385147"/>
     <use style="fill-opacity:0;stroke:#ff00ff;stroke-linejoin:miter;stroke-width:1.5;" x="177.252352" xlink:href="#m540ac06731" y="180.385147"/>
     <use style="fill-opacity:0;stroke:#ff00ff;stroke-linejoin:miter;stroke-width:1.5;" x="338.688" xlink:href="#m540ac06731" y="180.385147"/>
    </g>
   </g>
   <g id="line2d_42">
    <path style="fill:none;stroke:#ff00ff;stroke-linecap:square;stroke-width:1.5;"/>
    <g/>
   </g>
   <g id="line2d_43">
    <path clip-path="url(#pecd7295e47)" d="M 178.069773 180.385147 
" style="fill:none;stroke:#ff00ff;stroke-linecap:square;stroke-width:1.5;"/>
    <defs>
     <path d="M -12 12 
L 12 -12 
M -12 -12 
L 12 12 
" id="m36bef412ec" style="stroke:#ff00ff;"/>
    </defs>
    <g clip-path="url(#pecd7295e47)">
     <use style="fill:#ff00ff;stroke:#ff00ff;" x="178.069773" xlink:href="#m36bef412ec" y="180.385147"/>
    </g>
   </g>
   <g id="line2d_44">
    <defs>
     <path d="M 0 1.5 
C 0.397805 1.5 0.77937 1.341951 1.06066 1.06066 
C 1.341951 0.77937 1.5 0.397805 1.5 0 
C 1.5 -0.397805 1.341951 -0.77937 1.06066 -1.06066 
C 0.77937 -1.341951 0.397805 -1.5 0 -1.5 
C -0.397805 -1.5 -0.77937 -1.341951 -1.06066 -1.06066 
C -1.341951 -0.77937 -1.5 -0.397805 -1.5 0 
C -1.5 0.397805 -1.341951 0.77937 -1.06066 1.06066 
C -0.77937 1.341951 -0.397805 1.5 0 1.5 
z
" id="m3f9947ef64" style="stroke:#ffa500;"/>
    </defs>
    <g>
     <use style="fill:#ffa500;stroke:#ffa500;" x="130.073348" xlink:href="#m3f9947ef64" y="217.434789"/>
     <use style="fill:#ffa500;stroke:#ffa500;" x="130.073348" xlink:href="#m3f9947ef64" y="217.434789"/>
    </g>
   </g>
   <g id="line2d_45">
    <path d="M 29.53256 298.944 
L 29.53256 289.68159 
L 48.691568 289.68159 
L 48.691568 288.755349 
L 71.35013 288.755349 
L 71.35013 287.829108 
L 76.759008 287.829108 
L 76.759008 286.902867 
L 82.626842 286.902867 
L 82.626842 285.976625 
L 88.846997 285.976625 
L 88.846997 285.050384 
L 91.029752 285.050384 
L 91.029752 283.197902 
L 94.294587 283.197902 
L 94.294587 282.271661 
L 96.301313 282.271661 
L 96.301313 275.787974 
L 96.676366 275.787974 
L 96.676366 273.009251 
L 97.403108 273.009251 
L 97.403108 271.156769 
L 99.097574 271.156769 
L 99.097574 270.230528 
L 99.731799 270.230528 
L 99.731799 269.304287 
L 100.641881 269.304287 
L 100.641881 268.378046 
L 101.223245 268.378046 
L 101.223245 266.525564 
L 102.859376 266.525564 
L 102.859376 265.599323 
L 104.826449 265.599323 
L 104.826449 264.673082 
L 105.057436 264.673082 
L 105.057436 262.8206 
L 105.951954 262.8206 
L 105.951954 259.115635 
L 107.614095 259.115635 
L 107.614095 258.189394 
L 108.198707 258.189394 
L 108.198707 254.48443 
L 109.31223 254.48443 
L 109.31223 251.705707 
L 110.188761 251.705707 
L 110.188761 250.779466 
L 110.358901 250.779466 
L 110.358901 247.074502 
L 110.527398 247.074502 
L 110.527398 246.148261 
L 111.346294 246.148261 
L 111.346294 245.22202 
L 111.819788 245.22202 
L 111.819788 244.295779 
L 112.128456 244.295779 
L 112.128456 242.443297 
L 113.022974 242.443297 
L 113.022974 241.517056 
L 114.418861 241.517056 
L 114.418861 240.590815 
L 116.323218 240.590815 
L 116.323218 238.738333 
L 116.562116 238.738333 
L 116.562116 237.812091 
L 117.820578 237.812091 
L 117.820578 236.88585 
L 119.097192 236.88585 
L 119.097192 235.033368 
L 119.40226 235.033368 
L 119.40226 234.107127 
L 119.702083 234.107127 
L 119.702083 233.180886 
L 120.944859 233.180886 
L 120.944859 232.254645 
L 122.531342 232.254645 
L 122.531342 230.402163 
L 122.782271 230.402163 
L 122.782271 228.549681 
L 123.192626 228.549681 
L 123.192626 227.62344 
L 123.514096 227.62344 
L 123.514096 225.770958 
L 123.829748 225.770958 
L 123.829748 223.918476 
L 124.216444 223.918476 
L 124.216444 222.992235 
L 124.368753 222.992235 
L 124.368753 222.065994 
L 125.255688 222.065994 
L 125.255688 221.139753 
L 126.099688 221.139753 
L 126.099688 220.213512 
L 128.827155 220.213512 
L 128.827155 219.287271 
L 130.073348 219.287271 
L 130.073348 217.434789 
L 338.688 217.434789 
" style="fill:none;stroke:#ffa500;stroke-linecap:square;stroke-width:1.5;"/>
   </g>
   <g id="line2d_46">
    <defs>
     <path d="M 0 -6 
L -1.347084 -1.854102 
L -5.706339 -1.854102 
L -2.179628 0.708204 
L -3.526712 4.854102 
L -0 2.291796 
L 3.526712 4.854102 
L 2.179628 0.708204 
L 5.706339 -1.854102 
L 1.347084 -1.854102 
z
" id="m7ab5d9f165" style="stroke:#ffa500;stroke-linejoin:bevel;stroke-width:1.5;"/>
    </defs>
    <g>
     <use style="fill-opacity:0;stroke:#ffa500;stroke-linejoin:bevel;stroke-width:1.5;" x="114.418861" xlink:href="#m7ab5d9f165" y="240.590815"/>
     <use style="fill-opacity:0;stroke:#ffa500;stroke-linejoin:bevel;stroke-width:1.5;" x="130.073348" xlink:href="#m7ab5d9f165" y="219.287271"/>
     <use style="fill-opacity:0;stroke:#ffa500;stroke-linejoin:bevel;stroke-width:1.5;" x="130.073348" xlink:href="#m7ab5d9f165" y="217.434789"/>
     <use style="fill-opacity:0;stroke:#ffa500;stroke-linejoin:bevel;stroke-width:1.5;" x="130.073348" xlink:href="#m7ab5d9f165" y="217.434789"/>
     <use style="fill-opacity:0;stroke:#ffa500;stroke-linejoin:bevel;stroke-width:1.5;" x="338.688" xlink:href="#m7ab5d9f165" y="217.434789"/>
    </g>
   </g>
   <g id="line2d_47">
    <path style="fill:none;stroke:#ffa500;stroke-linecap:square;stroke-width:1.5;"/>
    <g/>
   </g>
   <g id="line2d_48">
    <path clip-path="url(#pecd7295e47)" d="M 178.066286 217.434789 
" style="fill:none;stroke:#ffa500;stroke-linecap:square;stroke-width:1.5;"/>
    <defs>
     <path d="M -12 12 
L 12 -12 
M -12 -12 
L 12 12 
" id="mcee5a571fb" style="stroke:#ffa500;"/>
    </defs>
    <g clip-path="url(#pecd7295e47)">
     <use style="fill:#ffa500;stroke:#ffa500;" x="178.066286" xlink:href="#mcee5a571fb" y="217.434789"/>
    </g>
   </g>
   <g id="line2d_49">
    <defs>
     <path d="M 0 1.5 
C 0.397805 1.5 0.77937 1.341951 1.06066 1.06066 
C 1.341951 0.77937 1.5 0.397805 1.5 0 
C 1.5 -0.397805 1.341951 -0.77937 1.06066 -1.06066 
C 0.77937 -1.341951 0.397805 -1.5 0 -1.5 
C -0.397805 -1.5 -0.77937 -1.341951 -1.06066 -1.06066 
C -1.341951 -0.77937 -1.5 -0.397805 -1.5 0 
C -1.5 0.397805 -1.341951 0.77937 -1.06066 1.06066 
C -0.77937 1.341951 -0.397805 1.5 0 1.5 
z
" id="me231691cc5" style="stroke:#6495ed;"/>
    </defs>
    <g>
     <use style="fill:#6495ed;stroke:#6495ed;" x="128.768338" xlink:href="#me231691cc5" y="233.180886"/>
     <use style="fill:#6495ed;stroke:#6495ed;" x="128.768338" xlink:href="#me231691cc5" y="233.180886"/>
    </g>
   </g>
   <g id="line2d_50">
    <path d="M 29.53256 298.944 
L 29.53256 289.68159 
L 57.6 289.68159 
L 57.6 288.755349 
L 72.867545 288.755349 
L 72.867545 285.976625 
L 74.263433 285.976625 
L 74.263433 284.124143 
L 75.555822 284.124143 
L 75.555822 283.197902 
L 82.626842 283.197902 
L 82.626842 281.34542 
L 84.213325 281.34542 
L 84.213325 278.566697 
L 88.846997 278.566697 
L 88.846997 276.714215 
L 91.535274 276.714215 
L 91.535274 275.787974 
L 92.504372 275.787974 
L 92.504372 274.861733 
L 95.526106 274.861733 
L 95.526106 273.935492 
L 96.676366 273.935492 
L 96.676366 273.009251 
L 98.43941 273.009251 
L 98.43941 271.156769 
L 100.040467 271.156769 
L 100.040467 264.673082 
L 102.859376 264.673082 
L 102.859376 262.8206 
L 105.057436 262.8206 
L 105.057436 261.894358 
L 108.577836 261.894358 
L 108.577836 260.968117 
L 110.358901 260.968117 
L 110.358901 259.115635 
L 111.505558 259.115635 
L 111.505558 257.263153 
L 113.022974 257.263153 
L 113.022974 256.336912 
L 113.594805 256.336912 
L 113.594805 253.558189 
L 115.711251 253.558189 
L 115.711251 252.631948 
L 116.680349 252.631948 
L 116.680349 250.779466 
L 117.486268 250.779466 
L 117.486268 249.853225 
L 118.148599 249.853225 
L 118.148599 247.074502 
L 119.301163 247.074502 
L 119.301163 245.22202 
L 121.310093 245.22202 
L 121.310093 243.369538 
L 121.756135 243.369538 
L 121.756135 242.443297 
L 122.018385 242.443297 
L 122.018385 240.590815 
L 123.514096 240.590815 
L 123.514096 239.664574 
L 125.682793 239.664574 
L 125.682793 238.738333 
L 126.97016 238.738333 
L 126.97016 237.812091 
L 127.611382 237.812091 
L 127.611382 235.959609 
L 128.471239 235.959609 
L 128.471239 235.033368 
L 128.768338 235.033368 
L 128.768338 233.180886 
L 338.688 233.180886 
" style="fill:none;stroke:#6495ed;stroke-linecap:square;stroke-width:1.5;"/>
   </g>
   <g id="line2d_51">
    <defs>
     <path d="M -0 6 
L 6 -6 
L -6 -6 
z
" id="mc17e5be858" style="stroke:#6495ed;stroke-linejoin:miter;stroke-width:1.5;"/>
    </defs>
    <g>
     <use style="fill-opacity:0;stroke:#6495ed;stroke-linejoin:miter;stroke-width:1.5;" x="105.057436" xlink:href="#mc17e5be858" y="262.8206"/>
     <use style="fill-opacity:0;stroke:#6495ed;stroke-linejoin:miter;stroke-width:1.5;" x="128.768338" xlink:href="#mc17e5be858" y="235.033368"/>
     <use style="fill-opacity:0;stroke:#6495ed;stroke-linejoin:miter;stroke-width:1.5;" x="128.768338" xlink:href="#mc17e5be858" y="233.180886"/>
     <use style="fill-opacity:0;stroke:#6495ed;stroke-linejoin:miter;stroke-width:1.5;" x="128.768338" xlink:href="#mc17e5be858" y="233.180886"/>
     <use style="fill-opacity:0;stroke:#6495ed;stroke-linejoin:miter;stroke-width:1.5;" x="128.768338" xlink:href="#mc17e5be858" y="233.180886"/>
     <use style="fill-opacity:0;stroke:#6495ed;stroke-linejoin:miter;stroke-width:1.5;" x="338.688" xlink:href="#mc17e5be858" y="233.180886"/>
    </g>
   </g>
   <g id="line2d_52">
    <path style="fill:none;stroke:#6495ed;stroke-linecap:square;stroke-width:1.5;"/>
    <g/>
   </g>
   <g id="line2d_53">
    <path clip-path="url(#pecd7295e47)" d="M 190.157762 233.180886 
" style="fill:none;stroke:#6495ed;stroke-linecap:square;stroke-width:1.5;"/>
    <defs>
     <path d="M -12 12 
L 12 -12 
M -12 -12 
L 12 12 
" id="m4825ff9b08" style="stroke:#6495ed;"/>
    </defs>
    <g clip-path="url(#pecd7295e47)">
     <use style="fill:#6495ed;stroke:#6495ed;" x="190.157762" xlink:href="#m4825ff9b08" y="233.180886"/>
    </g>
   </g>
   <g id="line2d_54">
    <defs>
     <path d="M 0 1.5 
C 0.397805 1.5 0.77937 1.341951 1.06066 1.06066 
C 1.341951 0.77937 1.5 0.397805 1.5 0 
C 1.5 -0.397805 1.341951 -0.77937 1.06066 -1.06066 
C 0.77937 -1.341951 0.397805 -1.5 0 -1.5 
C -0.397805 -1.5 -0.77937 -1.341951 -1.06066 -1.06066 
C -1.341951 -0.77937 -1.5 -0.397805 -1.5 0 
C -1.5 0.397805 -1.341951 0.77937 -1.06066 1.06066 
C -0.77937 1.341951 -0.397805 1.5 0 1.5 
z
" id="mf6ade599c3" style="stroke:#ff0000;"/>
    </defs>
    <g>
     <use style="fill:#ff0000;stroke:#ff0000;" x="159.426147" xlink:href="#mf6ade599c3" y="185.016352"/>
     <use style="fill:#ff0000;stroke:#ff0000;" x="159.426147" xlink:href="#mf6ade599c3" y="185.016352"/>
    </g>
   </g>
   <g id="line2d_55">
    <path d="M 29.53256 298.944 
L 29.53256 285.976625 
L 48.691568 285.976625 
L 48.691568 283.661023 
L 60.779557 283.661023 
L 60.779557 282.271661 
L 63.467834 282.271661 
L 63.467834 281.808541 
L 72.867545 281.808541 
L 72.867545 281.34542 
L 75.555822 281.34542 
L 75.555822 279.956059 
L 76.759008 279.956059 
L 76.759008 278.566697 
L 81.775977 278.566697 
L 81.775977 277.640456 
L 82.626842 277.640456 
L 82.626842 277.177336 
L 83.438118 277.177336 
L 83.438118 275.324854 
L 84.955534 275.324854 
L 84.955534 274.861733 
L 87.009585 274.861733 
L 87.009585 274.398612 
L 89.418828 274.398612 
L 89.418828 271.619889 
L 89.972502 271.619889 
L 89.972502 271.156769 
L 92.026554 271.156769 
L 92.026554 270.230528 
L 93.863965 270.230528 
L 93.863965 269.304287 
L 94.714831 269.304287 
L 94.714831 268.378046 
L 95.526106 268.378046 
L 95.526106 267.451805 
L 95.918017 267.451805 
L 95.918017 266.062443 
L 96.301313 266.062443 
L 96.301313 265.136202 
L 100.934985 265.136202 
L 100.934985 264.209961 
L 101.785851 264.209961 
L 101.785851 261.894358 
L 102.330873 261.894358 
L 102.330873 260.968117 
L 102.859376 260.968117 
L 102.859376 260.041876 
L 103.117741 260.041876 
L 103.117741 259.578756 
L 104.114542 259.578756 
L 104.114542 258.652515 
L 104.592361 258.652515 
L 104.592361 257.263153 
L 105.057436 257.263153 
L 105.057436 256.800033 
L 105.51043 256.800033 
L 105.51043 254.48443 
L 105.951954 254.48443 
L 105.951954 254.02131 
L 106.382575 254.02131 
L 106.382575 253.558189 
L 108.577836 253.558189 
L 108.577836 252.631948 
L 108.764355 252.631948 
L 108.764355 251.705707 
L 109.131511 251.705707 
L 109.131511 249.853225 
L 109.668146 249.853225 
L 109.668146 249.390104 
L 109.843417 249.390104 
L 109.843417 248.463863 
L 110.358901 248.463863 
L 110.358901 246.611381 
L 111.819788 246.611381 
L 111.819788 245.68514 
L 112.877038 245.68514 
L 112.877038 244.758899 
L 113.167699 244.758899 
L 113.167699 244.295779 
L 113.311233 244.295779 
L 113.311233 242.906417 
L 113.73488 242.906417 
L 113.73488 242.443297 
L 114.418861 242.443297 
L 114.418861 241.053935 
L 114.947365 241.053935 
L 114.947365 240.590815 
L 115.33349 240.590815 
L 115.33349 240.127694 
L 116.323218 240.127694 
L 116.323218 239.664574 
L 116.562116 239.664574 
L 116.562116 239.201453 
L 116.680349 239.201453 
L 116.680349 238.738333 
L 117.709852 238.738333 
L 117.709852 237.812091 
L 118.148599 237.812091 
L 118.148599 237.348971 
L 118.994305 237.348971 
L 118.994305 236.88585 
L 120.190611 236.88585 
L 120.190611 236.42273 
L 120.759333 236.42273 
L 120.759333 235.496489 
L 120.944859 235.496489 
L 120.944859 234.570248 
L 121.489881 234.570248 
L 121.489881 233.644007 
L 123.029641 233.644007 
L 123.029641 232.717766 
L 123.514096 232.717766 
L 123.593547 230.402163 
L 124.292765 230.402163 
L 124.292765 229.475922 
L 124.891598 229.475922 
L 124.965026 227.62344 
L 125.038147 227.62344 
L 125.038147 226.697199 
L 125.892487 226.697199 
L 125.892487 225.770958 
L 126.773103 225.770958 
L 126.773103 224.844717 
L 127.674226 224.844717 
L 127.674226 223.918476 
L 127.861412 223.918476 
L 127.861412 223.455355 
L 128.107907 223.455355 
L 128.168991 222.065994 
L 129.742212 222.065994 
L 129.79784 221.139753 
L 130.505303 221.139753 
L 130.558552 219.750391 
L 130.978796 219.750391 
L 130.978796 218.82415 
L 131.185181 218.82415 
L 131.236397 217.434789 
L 131.740458 217.434789 
L 131.740458 216.971668 
L 132.278599 216.971668 
L 132.278599 216.508548 
L 132.422528 216.508548 
L 132.422528 216.045427 
L 133.711505 216.045427 
L 133.711505 215.582307 
L 133.844123 215.582307 
L 133.888106 213.729825 
L 134.828688 213.729825 
L 134.911732 212.340463 
L 135.117629 212.340463 
L 135.117629 211.414222 
L 135.878591 211.414222 
L 135.878591 209.56174 
L 136.380754 209.56174 
L 136.380754 208.635499 
L 136.979586 208.635499 
L 136.979586 208.172378 
L 138.01518 208.172378 
L 138.01518 206.783017 
L 138.358484 206.783017 
L 138.392446 204.930535 
L 138.527635 204.930535 
L 138.527635 204.467414 
L 140.073083 204.467414 
L 140.073083 203.541173 
L 140.589166 203.541173 
L 140.678675 202.151812 
L 141.002999 202.151812 
L 141.032186 200.76245 
L 141.292695 200.76245 
L 141.292695 199.836209 
L 141.521035 199.836209 
L 141.521035 199.373088 
L 142.133981 199.373088 
L 142.133981 198.446847 
L 142.831645 198.446847 
L 142.831645 197.983727 
L 142.962669 197.983727 
L 142.962669 197.057486 
L 143.40093 197.057486 
L 143.40093 196.594365 
L 143.703791 196.594365 
L 143.703791 196.131245 
L 143.976867 196.131245 
L 144.075117 195.205004 
L 144.818346 195.205004 
L 144.818346 194.741883 
L 145.005114 194.741883 
L 145.005114 194.278763 
L 145.621085 194.278763 
L 145.621085 193.352522 
L 145.732804 193.352522 
L 145.732804 192.889401 
L 146.129168 192.889401 
L 146.129168 192.426281 
L 146.728368 192.426281 
L 146.728368 191.96316 
L 147.041095 191.96316 
L 147.041095 191.50004 
L 147.449528 191.50004 
L 147.449528 191.036919 
L 148.956849 191.036919 
L 148.956849 190.573799 
L 149.195872 190.573799 
L 149.195872 189.647558 
L 149.485628 189.647558 
L 149.485628 188.721316 
L 150.033689 188.721316 
L 150.033689 187.795075 
L 150.849711 187.795075 
L 150.849711 187.331955 
L 151.308666 187.331955 
L 151.308666 186.868834 
L 151.517715 186.868834 
L 151.517715 186.405714 
L 151.740076 186.405714 
L 151.740076 185.942593 
L 156.370066 185.942593 
L 156.370066 185.479473 
L 159.426147 185.479473 
L 159.426147 185.016352 
L 338.688 185.016352 
L 338.688 185.016352 
" style="fill:none;stroke:#ff0000;stroke-linecap:square;stroke-width:1.5;"/>
   </g>
   <g id="line2d_56">
    <defs>
     <path d="M 0 -6 
L -5.196152 -3 
L -5.196152 3 
L -0 6 
L 5.196152 3 
L 5.196152 -3 
z
" id="m3069fc2dba" style="stroke:#ff0000;stroke-linejoin:miter;stroke-width:1.5;"/>
    </defs>
    <g>
     <use style="fill-opacity:0;stroke:#ff0000;stroke-linejoin:miter;stroke-width:1.5;" x="76.759008" xlink:href="#m3069fc2dba" y="278.566697"/>
     <use style="fill-opacity:0;stroke:#ff0000;stroke-linejoin:miter;stroke-width:1.5;" x="134.911732" xlink:href="#m3069fc2dba" y="212.340463"/>
     <use style="fill-opacity:0;stroke:#ff0000;stroke-linejoin:miter;stroke-width:1.5;" x="159.426147" xlink:href="#m3069fc2dba" y="185.479473"/>
     <use style="fill-opacity:0;stroke:#ff0000;stroke-linejoin:miter;stroke-width:1.5;" x="159.426147" xlink:href="#m3069fc2dba" y="185.016352"/>
     <use style="fill-opacity:0;stroke:#ff0000;stroke-linejoin:miter;stroke-width:1.5;" x="159.426147" xlink:href="#m3069fc2dba" y="185.016352"/>
     <use style="fill-opacity:0;stroke:#ff0000;stroke-linejoin:miter;stroke-width:1.5;" x="338.688" xlink:href="#m3069fc2dba" y="185.016352"/>
    </g>
   </g>
   <g id="line2d_57">
    <path style="fill:none;stroke:#ff0000;stroke-linecap:square;stroke-width:1.5;"/>
    <g/>
   </g>
   <g id="line2d_58">
    <path clip-path="url(#pecd7295e47)" d="M 258.377213 185.016352 
" style="fill:none;stroke:#ff0000;stroke-linecap:square;stroke-width:1.5;"/>
    <defs>
     <path d="M -12 12 
L 12 -12 
M -12 -12 
L 12 12 
" id="m235531ad31" style="stroke:#ff0000;"/>
    </defs>
    <g clip-path="url(#pecd7295e47)">
     <use style="fill:#ff0000;stroke:#ff0000;" x="258.377213" xlink:href="#m235531ad31" y="185.016352"/>
    </g>
   </g>
   <g id="line2d_59">
    <defs>
     <path d="M 0 1.5 
C 0.397805 1.5 0.77937 1.341951 1.06066 1.06066 
C 1.341951 0.77937 1.5 0.397805 1.5 0 
C 1.5 -0.397805 1.341951 -0.77937 1.06066 -1.06066 
C 0.77937 -1.341951 0.397805 -1.5 0 -1.5 
C -0.397805 -1.5 -0.77937 -1.341951 -1.06066 -1.06066 
C -1.341951 -0.77937 -1.5 -0.397805 -1.5 0 
C -1.5 0.397805 -1.341951 0.77937 -1.06066 1.06066 
C -0.77937 1.341951 -0.397805 1.5 0 1.5 
z
" id="mcf182ca17d" style="stroke:#9acd32;"/>
    </defs>
    <g>
     <use style="fill:#9acd32;stroke:#9acd32;" x="202.958075" xlink:href="#mcf182ca17d" y="155.83976"/>
     <use style="fill:#9acd32;stroke:#9acd32;" x="202.958075" xlink:href="#mcf182ca17d" y="155.83976"/>
    </g>
   </g>
   <g id="line2d_60">
    <path d="M 29.53256 298.944 
L 29.53256 285.976625 
L 41.620548 285.976625 
L 41.620548 285.513505 
L 48.691568 285.513505 
L 48.691568 283.197902 
L 53.708537 283.197902 
L 53.708537 282.734782 
L 57.6 282.734782 
L 57.6 281.808541 
L 60.779557 281.808541 
L 60.779557 279.956059 
L 63.467834 279.956059 
L 63.467834 278.566697 
L 65.796525 278.566697 
L 65.796525 277.640456 
L 67.850577 277.640456 
L 67.850577 276.714215 
L 69.687988 276.714215 
L 69.687988 276.251095 
L 76.759008 276.251095 
L 76.759008 275.787974 
L 83.438118 275.787974 
L 83.438118 275.324854 
L 88.255778 275.324854 
L 88.255778 274.398612 
L 89.972502 274.398612 
L 89.972502 273.472371 
L 91.029752 273.472371 
L 91.029752 269.304287 
L 92.026554 269.304287 
L 92.026554 268.841166 
L 92.504372 268.841166 
L 92.504372 267.451805 
L 95.125186 267.451805 
L 95.125186 266.988684 
L 96.676366 266.988684 
L 96.676366 266.062443 
L 99.41757 266.062443 
L 99.41757 265.136202 
L 101.785851 265.136202 
L 101.785851 264.673082 
L 102.060491 264.673082 
L 102.060491 262.357479 
L 102.330873 262.357479 
L 102.330873 260.504997 
L 102.859376 260.504997 
L 102.859376 259.578756 
L 105.51043 259.578756 
L 105.51043 259.115635 
L 106.593963 259.115635 
L 106.593963 258.652515 
L 107.414787 258.652515 
L 107.414787 257.726274 
L 107.614095 257.726274 
L 107.614095 256.336912 
L 108.764355 256.336912 
L 108.764355 255.873792 
L 108.948899 255.873792 
L 108.948899 254.947551 
L 111.023335 254.947551 
L 111.023335 254.02131 
L 111.185562 254.02131 
L 111.185562 253.558189 
L 111.974805 253.558189 
L 111.974805 253.095069 
L 112.877038 253.095069 
L 112.877038 252.631948 
L 114.0117 252.631948 
L 114.0117 251.242587 
L 114.148479 251.242587 
L 114.148479 249.390104 
L 115.586238 249.390104 
L 115.586238 248.463863 
L 117.373392 248.463863 
L 117.373392 247.074502 
L 117.930605 247.074502 
L 117.930605 246.611381 
L 119.301163 246.611381 
L 119.301163 246.148261 
L 120.665825 246.148261 
L 120.665825 245.68514 
L 120.852343 245.68514 
L 120.852343 244.758899 
L 121.84399 244.758899 
L 121.84399 243.832658 
L 124.139788 243.832658 
L 124.139788 242.906417 
L 124.817858 242.906417 
L 124.817858 241.980176 
L 125.470548 241.980176 
L 125.470548 241.053935 
L 126.099688 241.053935 
L 126.099688 240.127694 
L 126.50685 240.127694 
L 126.50685 239.201453 
L 127.293718 239.201453 
L 127.293718 238.738333 
L 128.229861 238.738333 
L 128.229861 238.275212 
L 128.944197 238.275212 
L 128.944197 237.812091 
L 129.06046 237.812091 
L 129.06046 237.348971 
L 129.46138 237.348971 
L 129.46138 235.959609 
L 129.963666 235.959609 
L 129.963666 235.033368 
L 130.398313 235.033368 
L 130.398313 234.107127 
L 131.185181 234.107127 
L 131.185181 233.644007 
L 131.690703 233.644007 
L 131.690703 232.717766 
L 131.839545 232.717766 
L 131.839545 231.791525 
L 132.230358 231.791525 
L 132.230358 230.865284 
L 133.931979 230.865284 
L 133.931979 229.475922 
L 134.534878 229.475922 
L 134.534878 228.549681 
L 134.787017 228.549681 
L 134.787017 228.086561 
L 135.076644 228.086561 
L 135.076644 227.16032 
L 136.034648 227.16032 
L 136.034648 226.234079 
L 136.380754 226.234079 
L 136.456742 223.918476 
L 136.494612 223.918476 
L 136.494612 222.065994 
L 137.089613 222.065994 
L 137.089613 221.602873 
L 137.48721 221.602873 
L 137.48721 220.676632 
L 138.187677 220.676632 
L 138.187677 219.750391 
L 139.058148 219.750391 
L 139.058148 218.82415 
L 139.604677 218.82415 
L 139.604677 218.36103 
L 139.887228 218.36103 
L 139.887228 216.971668 
L 141.002999 216.971668 
L 141.002999 216.508548 
L 141.235139 216.508548 
L 141.235139 216.045427 
L 141.746425 216.045427 
L 141.746425 215.582307 
L 141.996555 215.582307 
L 141.996555 214.656066 
L 143.349938 214.656066 
L 143.349938 214.192945 
L 143.952218 214.192945 
L 143.952218 213.266704 
L 144.653267 213.266704 
L 144.653267 212.340463 
L 144.865226 212.340463 
L 144.865226 211.877342 
L 145.143889 211.877342 
L 145.143889 210.951101 
L 146.749392 210.951101 
L 146.749392 210.487981 
L 146.999721 210.487981 
L 146.999721 209.56174 
L 147.590249 209.56174 
L 147.590249 208.635499 
L 147.927346 208.635499 
L 148.025265 207.246137 
L 148.525764 207.246137 
L 148.525764 206.783017 
L 149.067574 206.783017 
L 149.067574 205.856776 
L 149.805951 205.856776 
L 149.805951 205.393655 
L 150.344189 205.393655 
L 150.344189 204.930535 
L 150.463462 204.930535 
L 150.463462 204.467414 
L 152.988446 204.467414 
L 152.988446 204.004294 
L 153.163864 204.004294 
L 153.163864 202.151812 
L 154.276638 202.151812 
L 154.276638 201.225571 
L 154.707925 201.225571 
L 154.787617 199.836209 
L 154.866947 199.836209 
L 154.866947 199.373088 
L 154.998366 199.373088 
L 154.998366 198.446847 
L 155.322646 198.446847 
L 155.322646 197.983727 
L 155.916435 197.983727 
L 155.916435 197.520606 
L 156.406335 197.520606 
L 156.406335 197.057486 
L 156.562634 197.057486 
L 156.562634 196.594365 
L 156.953214 196.594365 
L 156.953214 196.131245 
L 157.081488 196.131245 
L 157.081488 195.205004 
L 157.289376 195.205004 
L 157.335239 193.815642 
L 157.415209 193.815642 
L 157.415209 192.889401 
L 157.84305 192.889401 
L 157.84305 192.426281 
L 158.031107 192.426281 
L 158.031107 191.96316 
L 158.952561 191.96316 
L 158.962994 190.573799 
L 159.098062 190.573799 
L 159.17036 189.647558 
L 159.807898 189.647558 
L 159.807898 189.184437 
L 160.297798 189.184437 
L 160.297798 188.258196 
L 161.118732 188.258196 
L 161.118732 187.795075 
L 161.365843 187.795075 
L 161.365843 187.331955 
L 161.698887 187.331955 
L 161.698887 185.942593 
L 161.946759 185.942593 
L 161.946759 185.016352 
L 162.191157 185.016352 
L 162.234442 184.090111 
L 162.720437 184.090111 
L 162.720437 183.626991 
L 163.589711 183.626991 
L 163.589711 183.16387 
L 163.77274 183.16387 
L 163.77274 182.70075 
L 163.9617 182.70075 
L 163.9617 182.237629 
L 164.279845 182.237629 
L 164.279845 181.774509 
L 164.854652 181.774509 
L 164.854652 181.311388 
L 165.375047 181.311388 
L 165.375047 180.848268 
L 165.943384 180.848268 
L 165.943384 180.385147 
L 167.190782 180.385147 
L 167.190782 179.458906 
L 167.346259 179.458906 
L 167.346259 178.995786 
L 167.627751 178.995786 
L 167.640438 177.143304 
L 168.214315 177.143304 
L 168.214315 176.680183 
L 168.488284 176.680183 
L 168.584667 174.827701 
L 169.204297 174.827701 
L 169.204297 174.36458 
L 169.650749 174.36458 
L 169.650749 173.90146 
L 169.942157 173.90146 
L 169.942157 172.975219 
L 170.299701 172.975219 
L 170.299701 172.512098 
L 170.429886 172.512098 
L 170.429886 172.048978 
L 170.825279 172.048978 
L 170.825279 171.585857 
L 171.67086 171.585857 
L 171.67086 171.122737 
L 172.249996 171.122737 
L 172.356777 169.733375 
L 172.48694 169.733375 
L 172.48694 169.270255 
L 172.819942 169.270255 
L 172.819942 168.344014 
L 173.701969 168.344014 
L 173.701969 167.880893 
L 173.977519 167.880893 
L 173.977519 167.417773 
L 174.929925 167.417773 
L 174.929925 166.491532 
L 175.415753 166.491532 
L 175.516968 165.565291 
L 176.080984 165.565291 
L 176.080984 165.10217 
L 176.425408 165.10217 
L 176.425408 164.175929 
L 177.873391 164.175929 
L 177.873391 163.712808 
L 178.571608 163.712808 
L 178.571608 163.249688 
L 178.760325 163.249688 
L 178.760325 162.786567 
L 180.039542 162.786567 
L 180.039542 162.323447 
L 180.630553 162.323447 
L 180.630553 161.860326 
L 181.240029 161.860326 
L 181.240029 161.397206 
L 181.971695 161.397206 
L 181.971695 160.934085 
L 182.174044 160.934085 
L 182.174044 160.470965 
L 183.652835 160.470965 
L 183.652835 160.007844 
L 185.072077 160.007844 
L 185.072077 159.081603 
L 186.393118 159.081603 
L 186.393118 158.618483 
L 189.438734 158.618483 
L 189.493159 157.229121 
L 194.260655 157.229121 
L 194.260655 156.766001 
L 202.010531 156.766001 
L 202.010531 156.30288 
L 202.958075 156.30288 
L 202.958075 155.83976 
L 338.688 155.83976 
L 338.688 155.83976 
" style="fill:none;stroke:#9acd32;stroke-linecap:square;stroke-width:1.5;"/>
   </g>
   <g id="line2d_61">
    <defs>
     <path d="M 0 -6 
L -6 6 
L 6 6 
z
" id="m04f49805af" style="stroke:#9acd32;stroke-linejoin:miter;stroke-width:1.5;"/>
    </defs>
    <g>
     <use style="fill-opacity:0;stroke:#9acd32;stroke-linejoin:miter;stroke-width:1.5;" x="102.330873" xlink:href="#m04f49805af" y="262.357479"/>
     <use style="fill-opacity:0;stroke:#9acd32;stroke-linejoin:miter;stroke-width:1.5;" x="147.590249" xlink:href="#m04f49805af" y="209.56174"/>
     <use style="fill-opacity:0;stroke:#9acd32;stroke-linejoin:miter;stroke-width:1.5;" x="202.958075" xlink:href="#m04f49805af" y="156.30288"/>
     <use style="fill-opacity:0;stroke:#9acd32;stroke-linejoin:miter;stroke-width:1.5;" x="202.958075" xlink:href="#m04f49805af" y="155.83976"/>
     <use style="fill-opacity:0;stroke:#9acd32;stroke-linejoin:miter;stroke-width:1.5;" x="202.958075" xlink:href="#m04f49805af" y="155.83976"/>
     <use style="fill-opacity:0;stroke:#9acd32;stroke-linejoin:miter;stroke-width:1.5;" x="338.688" xlink:href="#m04f49805af" y="155.83976"/>
    </g>
   </g>
   <g id="line2d_62">
    <path style="fill:none;stroke:#9acd32;stroke-linecap:square;stroke-width:1.5;"/>
    <g/>
   </g>
   <g id="line2d_63">
    <path clip-path="url(#pecd7295e47)" d="M 258.377317 155.83976 
" style="fill:none;stroke:#9acd32;stroke-linecap:square;stroke-width:1.5;"/>
    <defs>
     <path d="M -12 12 
L 12 -12 
M -12 -12 
L 12 12 
" id="m10eb539577" style="stroke:#9acd32;"/>
    </defs>
    <g clip-path="url(#pecd7295e47)">
     <use style="fill:#9acd32;stroke:#9acd32;" x="258.377317" xlink:href="#m10eb539577" y="155.83976"/>
    </g>
   </g>
   <g id="line2d_64">
    <path d="M 338.688 233.180886 
L 369.60768 293.571802 
" style="fill:none;stroke:#6495ed;stroke-linecap:square;stroke-width:1.5;"/>
    <g>
     <use style="fill-opacity:0;stroke:#6495ed;stroke-linejoin:miter;stroke-width:1.5;" x="338.688" xlink:href="#mc17e5be858" y="233.180886"/>
     <use style="fill-opacity:0;stroke:#6495ed;stroke-linejoin:miter;stroke-width:1.5;" x="369.60768" xlink:href="#mc17e5be858" y="293.571802"/>
    </g>
   </g>
   <g id="line2d_65">
    <path d="M 338.688 217.434789 
L 369.60768 250.594218 
" style="fill:none;stroke:#ffa500;stroke-linecap:square;stroke-width:1.5;"/>
    <g>
     <use style="fill-opacity:0;stroke:#ffa500;stroke-linejoin:bevel;stroke-width:1.5;" x="338.688" xlink:href="#m7ab5d9f165" y="217.434789"/>
     <use style="fill-opacity:0;stroke:#ffa500;stroke-linejoin:bevel;stroke-width:1.5;" x="369.60768" xlink:href="#m7ab5d9f165" y="250.594218"/>
    </g>
   </g>
   <g id="line2d_66">
    <path d="M 338.688 185.016352 
L 369.60768 207.616634 
" style="fill:none;stroke:#ff0000;stroke-linecap:square;stroke-width:1.5;"/>
    <g>
     <use style="fill-opacity:0;stroke:#ff0000;stroke-linejoin:miter;stroke-width:1.5;" x="338.688" xlink:href="#m3069fc2dba" y="185.016352"/>
     <use style="fill-opacity:0;stroke:#ff0000;stroke-linejoin:miter;stroke-width:1.5;" x="369.60768" xlink:href="#m3069fc2dba" y="207.616634"/>
    </g>
   </g>
   <g id="line2d_67">
    <path d="M 338.688 180.385147 
L 369.60768 164.63905 
" style="fill:none;stroke:#ff00ff;stroke-linecap:square;stroke-width:1.5;"/>
    <g>
     <use style="fill-opacity:0;stroke:#ff00ff;stroke-linejoin:miter;stroke-width:1.5;" x="338.688" xlink:href="#m540ac06731" y="180.385147"/>
     <use style="fill-opacity:0;stroke:#ff00ff;stroke-linejoin:miter;stroke-width:1.5;" x="369.60768" xlink:href="#m540ac06731" y="164.63905"/>
    </g>
   </g>
   <g id="line2d_68">
    <path d="M 338.688 165.565291 
L 369.60768 121.661465 
" style="fill:none;stroke:#000080;stroke-linecap:square;stroke-width:1.5;"/>
    <g>
     <use style="fill-opacity:0;stroke:#000080;stroke-width:1.5;" x="338.688" xlink:href="#mbba2220f9b" y="165.565291"/>
     <use style="fill-opacity:0;stroke:#000080;stroke-width:1.5;" x="369.60768" xlink:href="#mbba2220f9b" y="121.661465"/>
    </g>
   </g>
   <g id="line2d_69">
    <path d="M 338.688 155.83976 
L 369.60768 78.683881 
" style="fill:none;stroke:#9acd32;stroke-linecap:square;stroke-width:1.5;"/>
    <g>
     <use style="fill-opacity:0;stroke:#9acd32;stroke-linejoin:miter;stroke-width:1.5;" x="338.688" xlink:href="#m04f49805af" y="155.83976"/>
     <use style="fill-opacity:0;stroke:#9acd32;stroke-linejoin:miter;stroke-width:1.5;" x="369.60768" xlink:href="#m04f49805af" y="78.683881"/>
    </g>
   </g>
   <g id="line2d_70">
    <path d="M 338.688 298.944 
L 338.688 30.334099 
" style="fill:none;stroke:#000000;stroke-linecap:square;stroke-width:1.5;"/>
   </g>
   <g id="patch_3">
    <path d="M 57.6 298.944 
L 57.6 27.648 
" style="fill:none;stroke:#000000;stroke-linecap:square;stroke-linejoin:miter;stroke-width:0.8;"/>
   </g>
   <g id="patch_4">
    <path d="M 338.688 298.944 
L 338.688 27.648 
" style="fill:none;stroke:#000000;stroke-linecap:square;stroke-linejoin:miter;stroke-width:0.8;"/>
   </g>
   <g id="patch_5">
    <path d="M 57.6 298.944 
L 338.688 298.944 
" style="fill:none;stroke:#000000;stroke-linecap:square;stroke-linejoin:miter;stroke-width:0.8;"/>
   </g>
   <g id="patch_6">
    <path d="M 57.6 27.648 
L 338.688 27.648 
" style="fill:none;stroke:#000000;stroke-linecap:square;stroke-linejoin:miter;stroke-width:0.8;"/>
   </g>
   <g id="text_13">
    <!-- rand-50xsi -->
    <defs>
     <path d="M 10.796875 72.90625 
L 49.515625 72.90625 
L 49.515625 64.59375 
L 19.828125 64.59375 
L 19.828125 46.734375 
Q 21.96875 47.46875 24.109375 47.828125 
Q 26.265625 48.1875 28.421875 48.1875 
Q 40.625 48.1875 47.75 41.5 
Q 54.890625 34.8125 54.890625 23.390625 
Q 54.890625 11.625 47.5625 5.09375 
Q 40.234375 -1.421875 26.90625 -1.421875 
Q 22.3125 -1.421875 17.546875 -0.640625 
Q 12.796875 0.140625 7.71875 1.703125 
L 7.71875 11.625 
Q 12.109375 9.234375 16.796875 8.0625 
Q 21.484375 6.890625 26.703125 6.890625 
Q 35.15625 6.890625 40.078125 11.328125 
Q 45.015625 15.765625 45.015625 23.390625 
Q 45.015625 31 40.078125 35.4375 
Q 35.15625 39.890625 26.703125 39.890625 
Q 22.75 39.890625 18.8125 39.015625 
Q 14.890625 38.140625 10.796875 36.28125 
z
" id="DejaVuSans-53"/>
     <path d="M 54.890625 54.6875 
L 35.109375 28.078125 
L 55.90625 0 
L 45.3125 0 
L 29.390625 21.484375 
L 13.484375 0 
L 2.875 0 
L 24.125 28.609375 
L 4.6875 54.6875 
L 15.28125 54.6875 
L 29.78125 35.203125 
L 44.28125 54.6875 
z
" id="DejaVuSans-120"/>
    </defs>
    <g transform="translate(375.22944 298.262739)scale(0.17 -0.17)">
     <use xlink:href="#DejaVuSans-114"/>
     <use x="41.113281" xlink:href="#DejaVuSans-97"/>
     <use x="102.392578" xlink:href="#DejaVuSans-110"/>
     <use x="165.771484" xlink:href="#DejaVuSans-100"/>
     <use x="229.248047" xlink:href="#DejaVuSans-45"/>
     <use x="265.332031" xlink:href="#DejaVuSans-53"/>
     <use x="328.955078" xlink:href="#DejaVuSans-48"/>
     <use x="392.578125" xlink:href="#DejaVuSans-120"/>
     <use x="451.757812" xlink:href="#DejaVuSans-115"/>
     <use x="503.857422" xlink:href="#DejaVuSans-105"/>
    </g>
   </g>
   <g id="text_14">
    <!-- rand-200xs -->
    <g transform="translate(375.22944 255.285155)scale(0.17 -0.17)">
     <use xlink:href="#DejaVuSans-114"/>
     <use x="41.113281" xlink:href="#DejaVuSans-97"/>
     <use x="102.392578" xlink:href="#DejaVuSans-110"/>
     <use x="165.771484" xlink:href="#DejaVuSans-100"/>
     <use x="229.248047" xlink:href="#DejaVuSans-45"/>
     <use x="265.332031" xlink:href="#DejaVuSans-50"/>
     <use x="328.955078" xlink:href="#DejaVuSans-48"/>
     <use x="392.578125" xlink:href="#DejaVuSans-48"/>
     <use x="456.201172" xlink:href="#DejaVuSans-120"/>
     <use x="515.380859" xlink:href="#DejaVuSans-115"/>
    </g>
   </g>
   <g id="text_15">
    <!-- COMO-3 bio -->
    <defs>
     <path d="M 64.40625 67.28125 
L 64.40625 56.890625 
Q 59.421875 61.53125 53.78125 63.8125 
Q 48.140625 66.109375 41.796875 66.109375 
Q 29.296875 66.109375 22.65625 58.46875 
Q 16.015625 50.828125 16.015625 36.375 
Q 16.015625 21.96875 22.65625 14.328125 
Q 29.296875 6.6875 41.796875 6.6875 
Q 48.140625 6.6875 53.78125 8.984375 
Q 59.421875 11.28125 64.40625 15.921875 
L 64.40625 5.609375 
Q 59.234375 2.09375 53.4375 0.328125 
Q 47.65625 -1.421875 41.21875 -1.421875 
Q 24.65625 -1.421875 15.125 8.703125 
Q 5.609375 18.84375 5.609375 36.375 
Q 5.609375 53.953125 15.125 64.078125 
Q 24.65625 74.21875 41.21875 74.21875 
Q 47.75 74.21875 53.53125 72.484375 
Q 59.328125 70.75 64.40625 67.28125 
z
" id="DejaVuSans-67"/>
     <path d="M 39.40625 66.21875 
Q 28.65625 66.21875 22.328125 58.203125 
Q 16.015625 50.203125 16.015625 36.375 
Q 16.015625 22.609375 22.328125 14.59375 
Q 28.65625 6.59375 39.40625 6.59375 
Q 50.140625 6.59375 56.421875 14.59375 
Q 62.703125 22.609375 62.703125 36.375 
Q 62.703125 50.203125 56.421875 58.203125 
Q 50.140625 66.21875 39.40625 66.21875 
z
M 39.40625 74.21875 
Q 54.734375 74.21875 63.90625 63.9375 
Q 73.09375 53.65625 73.09375 36.375 
Q 73.09375 19.140625 63.90625 8.859375 
Q 54.734375 -1.421875 39.40625 -1.421875 
Q 24.03125 -1.421875 14.8125 8.828125 
Q 5.609375 19.09375 5.609375 36.375 
Q 5.609375 53.65625 14.8125 63.9375 
Q 24.03125 74.21875 39.40625 74.21875 
z
" id="DejaVuSans-79"/>
     <path d="M 9.8125 72.90625 
L 24.515625 72.90625 
L 43.109375 23.296875 
L 61.8125 72.90625 
L 76.515625 72.90625 
L 76.515625 0 
L 66.890625 0 
L 66.890625 64.015625 
L 48.09375 14.015625 
L 38.1875 14.015625 
L 19.390625 64.015625 
L 19.390625 0 
L 9.8125 0 
z
" id="DejaVuSans-77"/>
     <path d="M 40.578125 39.3125 
Q 47.65625 37.796875 51.625 33 
Q 55.609375 28.21875 55.609375 21.1875 
Q 55.609375 10.40625 48.1875 4.484375 
Q 40.765625 -1.421875 27.09375 -1.421875 
Q 22.515625 -1.421875 17.65625 -0.515625 
Q 12.796875 0.390625 7.625 2.203125 
L 7.625 11.71875 
Q 11.71875 9.328125 16.59375 8.109375 
Q 21.484375 6.890625 26.8125 6.890625 
Q 36.078125 6.890625 40.9375 10.546875 
Q 45.796875 14.203125 45.796875 21.1875 
Q 45.796875 27.640625 41.28125 31.265625 
Q 36.765625 34.90625 28.71875 34.90625 
L 20.21875 34.90625 
L 20.21875 43.015625 
L 29.109375 43.015625 
Q 36.375 43.015625 40.234375 45.921875 
Q 44.09375 48.828125 44.09375 54.296875 
Q 44.09375 59.90625 40.109375 62.90625 
Q 36.140625 65.921875 28.71875 65.921875 
Q 24.65625 65.921875 20.015625 65.03125 
Q 15.375 64.15625 9.8125 62.3125 
L 9.8125 71.09375 
Q 15.4375 72.65625 20.34375 73.4375 
Q 25.25 74.21875 29.59375 74.21875 
Q 40.828125 74.21875 47.359375 69.109375 
Q 53.90625 64.015625 53.90625 55.328125 
Q 53.90625 49.265625 50.4375 45.09375 
Q 46.96875 40.921875 40.578125 39.3125 
z
" id="DejaVuSans-51"/>
     <path d="M 48.6875 27.296875 
Q 48.6875 37.203125 44.609375 42.84375 
Q 40.53125 48.484375 33.40625 48.484375 
Q 26.265625 48.484375 22.1875 42.84375 
Q 18.109375 37.203125 18.109375 27.296875 
Q 18.109375 17.390625 22.1875 11.75 
Q 26.265625 6.109375 33.40625 6.109375 
Q 40.53125 6.109375 44.609375 11.75 
Q 48.6875 17.390625 48.6875 27.296875 
z
M 18.109375 46.390625 
Q 20.953125 51.265625 25.265625 53.625 
Q 29.59375 56 35.59375 56 
Q 45.5625 56 51.78125 48.09375 
Q 58.015625 40.1875 58.015625 27.296875 
Q 58.015625 14.40625 51.78125 6.484375 
Q 45.5625 -1.421875 35.59375 -1.421875 
Q 29.59375 -1.421875 25.265625 0.953125 
Q 20.953125 3.328125 18.109375 8.203125 
L 18.109375 0 
L 9.078125 0 
L 9.078125 75.984375 
L 18.109375 75.984375 
z
" id="DejaVuSans-98"/>
    </defs>
    <g transform="translate(375.22944 212.307571)scale(0.17 -0.17)">
     <use xlink:href="#DejaVuSans-67"/>
     <use x="69.824219" xlink:href="#DejaVuSans-79"/>
     <use x="148.535156" xlink:href="#DejaVuSans-77"/>
     <use x="234.814453" xlink:href="#DejaVuSans-79"/>
     <use x="313.556641" xlink:href="#DejaVuSans-45"/>
     <use x="349.640625" xlink:href="#DejaVuSans-51"/>
     <use x="413.263672" xlink:href="#DejaVuSans-32"/>
     <use x="445.050781" xlink:href="#DejaVuSans-98"/>
     <use x="508.527344" xlink:href="#DejaVuSans-105"/>
     <use x="536.310547" xlink:href="#DejaVuSans-111"/>
    </g>
   </g>
   <g id="text_16">
    <!-- rand-20xsi -->
    <g transform="translate(375.22944 169.329987)scale(0.17 -0.17)">
     <use xlink:href="#DejaVuSans-114"/>
     <use x="41.113281" xlink:href="#DejaVuSans-97"/>
     <use x="102.392578" xlink:href="#DejaVuSans-110"/>
     <use x="165.771484" xlink:href="#DejaVuSans-100"/>
     <use x="229.248047" xlink:href="#DejaVuSans-45"/>
     <use x="265.332031" xlink:href="#DejaVuSans-50"/>
     <use x="328.955078" xlink:href="#DejaVuSans-48"/>
     <use x="392.578125" xlink:href="#DejaVuSans-120"/>
     <use x="451.757812" xlink:href="#DejaVuSans-115"/>
     <use x="503.857422" xlink:href="#DejaVuSans-105"/>
    </g>
   </g>
   <g id="text_17">
    <!-- rand-1xsig -->
    <g transform="translate(375.22944 126.352403)scale(0.17 -0.17)">
     <use xlink:href="#DejaVuSans-114"/>
     <use x="41.113281" xlink:href="#DejaVuSans-97"/>
     <use x="102.392578" xlink:href="#DejaVuSans-110"/>
     <use x="165.771484" xlink:href="#DejaVuSans-100"/>
     <use x="229.248047" xlink:href="#DejaVuSans-45"/>
     <use x="265.332031" xlink:href="#DejaVuSans-49"/>
     <use x="328.955078" xlink:href="#DejaVuSans-120"/>
     <use x="388.134766" xlink:href="#DejaVuSans-115"/>
     <use x="440.234375" xlink:href="#DejaVuSans-105"/>
     <use x="468.017578" xlink:href="#DejaVuSans-103"/>
    </g>
   </g>
   <g id="text_18">
    <!-- COMO-10 bi -->
    <g transform="translate(375.22944 83.374819)scale(0.17 -0.17)">
     <use xlink:href="#DejaVuSans-67"/>
     <use x="69.824219" xlink:href="#DejaVuSans-79"/>
     <use x="148.535156" xlink:href="#DejaVuSans-77"/>
     <use x="234.814453" xlink:href="#DejaVuSans-79"/>
     <use x="313.556641" xlink:href="#DejaVuSans-45"/>
     <use x="349.640625" xlink:href="#DejaVuSans-49"/>
     <use x="413.263672" xlink:href="#DejaVuSans-48"/>
     <use x="476.886719" xlink:href="#DejaVuSans-32"/>
     <use x="508.673828" xlink:href="#DejaVuSans-98"/>
     <use x="572.150391" xlink:href="#DejaVuSans-105"/>
    </g>
   </g>
   <g id="text_19">
    <!-- best 2016 -->
    <g transform="translate(375.22944 40.397235)scale(0.17 -0.17)">
     <use xlink:href="#DejaVuSans-98"/>
     <use x="63.476562" xlink:href="#DejaVuSans-101"/>
     <use x="125" xlink:href="#DejaVuSans-115"/>
     <use x="177.099609" xlink:href="#DejaVuSans-116"/>
     <use x="216.308594" xlink:href="#DejaVuSans-32"/>
     <use x="248.095703" xlink:href="#DejaVuSans-50"/>
     <use x="311.71875" xlink:href="#DejaVuSans-48"/>
     <use x="375.341797" xlink:href="#DejaVuSans-49"/>
     <use x="438.964844" xlink:href="#DejaVuSans-54"/>
    </g>
   </g>
   <g id="text_20">
    <!-- bbob-biobj f18, 5-D -->
    <defs>
     <path d="M 9.421875 54.6875 
L 18.40625 54.6875 
L 18.40625 -0.984375 
Q 18.40625 -11.421875 14.421875 -16.109375 
Q 10.453125 -20.796875 1.609375 -20.796875 
L -1.8125 -20.796875 
L -1.8125 -13.1875 
L 0.59375 -13.1875 
Q 5.71875 -13.1875 7.5625 -10.8125 
Q 9.421875 -8.453125 9.421875 -0.984375 
z
M 9.421875 75.984375 
L 18.40625 75.984375 
L 18.40625 64.59375 
L 9.421875 64.59375 
z
" id="DejaVuSans-106"/>
     <path d="M 19.671875 64.796875 
L 19.671875 8.109375 
L 31.59375 8.109375 
Q 46.6875 8.109375 53.6875 14.9375 
Q 60.6875 21.78125 60.6875 36.53125 
Q 60.6875 51.171875 53.6875 57.984375 
Q 46.6875 64.796875 31.59375 64.796875 
z
M 9.8125 72.90625 
L 30.078125 72.90625 
Q 51.265625 72.90625 61.171875 64.09375 
Q 71.09375 55.28125 71.09375 36.53125 
Q 71.09375 17.671875 61.125 8.828125 
Q 51.171875 0 30.078125 0 
L 9.8125 0 
z
" id="DejaVuSans-68"/>
    </defs>
    <g transform="translate(60.41088 38.111366)scale(0.102 -0.102)">
     <use xlink:href="#DejaVuSans-98"/>
     <use x="63.476562" xlink:href="#DejaVuSans-98"/>
     <use x="126.953125" xlink:href="#DejaVuSans-111"/>
     <use x="188.134766" xlink:href="#DejaVuSans-98"/>
     <use x="251.611328" xlink:href="#DejaVuSans-45"/>
     <use x="287.695312" xlink:href="#DejaVuSans-98"/>
     <use x="351.171875" xlink:href="#DejaVuSans-105"/>
     <use x="378.955078" xlink:href="#DejaVuSans-111"/>
     <use x="440.136719" xlink:href="#DejaVuSans-98"/>
     <use x="503.613281" xlink:href="#DejaVuSans-106"/>
     <use x="531.396484" xlink:href="#DejaVuSans-32"/>
     <use x="563.183594" xlink:href="#DejaVuSans-102"/>
     <use x="598.388672" xlink:href="#DejaVuSans-49"/>
     <use x="662.011719" xlink:href="#DejaVuSans-56"/>
     <use x="725.634766" xlink:href="#DejaVuSans-44"/>
     <use x="757.421875" xlink:href="#DejaVuSans-32"/>
     <use x="789.208984" xlink:href="#DejaVuSans-53"/>
     <use x="852.832031" xlink:href="#DejaVuSans-45"/>
     <use x="888.916016" xlink:href="#DejaVuSans-68"/>
    </g>
    <!-- 58 targets: 1..-1.0e-4 -->
    <defs>
     <path d="M 11.71875 12.40625 
L 22.015625 12.40625 
L 22.015625 0 
L 11.71875 0 
z
M 11.71875 51.703125 
L 22.015625 51.703125 
L 22.015625 39.3125 
L 11.71875 39.3125 
z
" id="DejaVuSans-58"/>
    </defs>
    <g transform="translate(60.41088 49.533135)scale(0.102 -0.102)">
     <use xlink:href="#DejaVuSans-53"/>
     <use x="63.623047" xlink:href="#DejaVuSans-56"/>
     <use x="127.246094" xlink:href="#DejaVuSans-32"/>
     <use x="159.033203" xlink:href="#DejaVuSans-116"/>
     <use x="198.242188" xlink:href="#DejaVuSans-97"/>
     <use x="259.521484" xlink:href="#DejaVuSans-114"/>
     <use x="300.619141" xlink:href="#DejaVuSans-103"/>
     <use x="364.095703" xlink:href="#DejaVuSans-101"/>
     <use x="425.619141" xlink:href="#DejaVuSans-116"/>
     <use x="464.828125" xlink:href="#DejaVuSans-115"/>
     <use x="516.927734" xlink:href="#DejaVuSans-58"/>
     <use x="550.619141" xlink:href="#DejaVuSans-32"/>
     <use x="582.40625" xlink:href="#DejaVuSans-49"/>
     <use x="646.029297" xlink:href="#DejaVuSans-46"/>
     <use x="677.816406" xlink:href="#DejaVuSans-46"/>
     <use x="709.603516" xlink:href="#DejaVuSans-45"/>
     <use x="745.6875" xlink:href="#DejaVuSans-49"/>
     <use x="809.310547" xlink:href="#DejaVuSans-46"/>
     <use x="841.097656" xlink:href="#DejaVuSans-48"/>
     <use x="904.720703" xlink:href="#DejaVuSans-101"/>
     <use x="966.244141" xlink:href="#DejaVuSans-45"/>
     <use x="1002.328125" xlink:href="#DejaVuSans-52"/>
    </g>
    <!-- 10, 5 instances -->
    <g transform="translate(60.41088 60.954904)scale(0.102 -0.102)">
     <use xlink:href="#DejaVuSans-49"/>
     <use x="63.623047" xlink:href="#DejaVuSans-48"/>
     <use x="127.246094" xlink:href="#DejaVuSans-44"/>
     <use x="159.033203" xlink:href="#DejaVuSans-32"/>
     <use x="190.820312" xlink:href="#DejaVuSans-53"/>
     <use x="254.443359" xlink:href="#DejaVuSans-32"/>
     <use x="286.230469" xlink:href="#DejaVuSans-105"/>
     <use x="314.013672" xlink:href="#DejaVuSans-110"/>
     <use x="377.392578" xlink:href="#DejaVuSans-115"/>
     <use x="429.492188" xlink:href="#DejaVuSans-116"/>
     <use x="468.701172" xlink:href="#DejaVuSans-97"/>
     <use x="529.980469" xlink:href="#DejaVuSans-110"/>
     <use x="593.359375" xlink:href="#DejaVuSans-99"/>
     <use x="648.339844" xlink:href="#DejaVuSans-101"/>
     <use x="709.863281" xlink:href="#DejaVuSans-115"/>
    </g>
   </g>
   <g id="text_21">
    <!-- v2.3.1.83, hv-hash=0c7413f31c4f720c -->
    <defs>
     <path d="M 54.890625 33.015625 
L 54.890625 0 
L 45.90625 0 
L 45.90625 32.71875 
Q 45.90625 40.484375 42.875 44.328125 
Q 39.84375 48.1875 33.796875 48.1875 
Q 26.515625 48.1875 22.3125 43.546875 
Q 18.109375 38.921875 18.109375 30.90625 
L 18.109375 0 
L 9.078125 0 
L 9.078125 75.984375 
L 18.109375 75.984375 
L 18.109375 46.1875 
Q 21.34375 51.125 25.703125 53.5625 
Q 30.078125 56 35.796875 56 
Q 45.21875 56 50.046875 50.171875 
Q 54.890625 44.34375 54.890625 33.015625 
z
" id="DejaVuSans-104"/>
     <path d="M 10.59375 45.40625 
L 73.1875 45.40625 
L 73.1875 37.203125 
L 10.59375 37.203125 
z
M 10.59375 25.484375 
L 73.1875 25.484375 
L 73.1875 17.1875 
L 10.59375 17.1875 
z
" id="DejaVuSans-61"/>
     <path d="M 8.203125 72.90625 
L 55.078125 72.90625 
L 55.078125 68.703125 
L 28.609375 0 
L 18.3125 0 
L 43.21875 64.59375 
L 8.203125 64.59375 
z
" id="DejaVuSans-55"/>
    </defs>
    <g style="fill:#808080;" transform="translate(100.444781 294.151352)scale(0.1 -0.1)">
     <use xlink:href="#DejaVuSans-118"/>
     <use x="59.179688" xlink:href="#DejaVuSans-50"/>
     <use x="122.802734" xlink:href="#DejaVuSans-46"/>
     <use x="154.589844" xlink:href="#DejaVuSans-51"/>
     <use x="218.212891" xlink:href="#DejaVuSans-46"/>
     <use x="250" xlink:href="#DejaVuSans-49"/>
     <use x="313.623047" xlink:href="#DejaVuSans-46"/>
     <use x="345.410156" xlink:href="#DejaVuSans-56"/>
     <use x="409.033203" xlink:href="#DejaVuSans-51"/>
     <use x="472.65625" xlink:href="#DejaVuSans-44"/>
     <use x="504.443359" xlink:href="#DejaVuSans-32"/>
     <use x="536.230469" xlink:href="#DejaVuSans-104"/>
     <use x="599.609375" xlink:href="#DejaVuSans-118"/>
     <use x="658.757812" xlink:href="#DejaVuSans-45"/>
     <use x="694.841797" xlink:href="#DejaVuSans-104"/>
     <use x="758.220703" xlink:href="#DejaVuSans-97"/>
     <use x="819.5" xlink:href="#DejaVuSans-115"/>
     <use x="871.599609" xlink:href="#DejaVuSans-104"/>
     <use x="934.978516" xlink:href="#DejaVuSans-61"/>
     <use x="1018.767578" xlink:href="#DejaVuSans-48"/>
     <use x="1082.390625" xlink:href="#DejaVuSans-99"/>
     <use x="1137.371094" xlink:href="#DejaVuSans-55"/>
     <use x="1200.994141" xlink:href="#DejaVuSans-52"/>
     <use x="1264.617188" xlink:href="#DejaVuSans-49"/>
     <use x="1328.240234" xlink:href="#DejaVuSans-51"/>
     <use x="1391.863281" xlink:href="#DejaVuSans-102"/>
     <use x="1427.068359" xlink:href="#DejaVuSans-51"/>
     <use x="1490.691406" xlink:href="#DejaVuSans-49"/>
     <use x="1554.314453" xlink:href="#DejaVuSans-99"/>
     <use x="1609.294922" xlink:href="#DejaVuSans-52"/>
     <use x="1672.917969" xlink:href="#DejaVuSans-102"/>
     <use x="1708.123047" xlink:href="#DejaVuSans-55"/>
     <use x="1771.746094" xlink:href="#DejaVuSans-50"/>
     <use x="1835.369141" xlink:href="#DejaVuSans-48"/>
     <use x="1898.992188" xlink:href="#DejaVuSans-99"/>
    </g>
   </g>
   <g id="text_22">
    <!-- 18 sep. Ellipsoid/Schwefel -->
    <defs>
     <path d="M 9.8125 72.90625 
L 55.90625 72.90625 
L 55.90625 64.59375 
L 19.671875 64.59375 
L 19.671875 43.015625 
L 54.390625 43.015625 
L 54.390625 34.71875 
L 19.671875 34.71875 
L 19.671875 8.296875 
L 56.78125 8.296875 
L 56.78125 0 
L 9.8125 0 
z
" id="DejaVuSans-69"/>
     <path d="M 53.515625 70.515625 
L 53.515625 60.890625 
Q 47.90625 63.578125 42.921875 64.890625 
Q 37.9375 66.21875 33.296875 66.21875 
Q 25.25 66.21875 20.875 63.09375 
Q 16.5 59.96875 16.5 54.203125 
Q 16.5 49.359375 19.40625 46.890625 
Q 22.3125 44.4375 30.421875 42.921875 
L 36.375 41.703125 
Q 47.40625 39.59375 52.65625 34.296875 
Q 57.90625 29 57.90625 20.125 
Q 57.90625 9.515625 50.796875 4.046875 
Q 43.703125 -1.421875 29.984375 -1.421875 
Q 24.8125 -1.421875 18.96875 -0.25 
Q 13.140625 0.921875 6.890625 3.21875 
L 6.890625 13.375 
Q 12.890625 10.015625 18.65625 8.296875 
Q 24.421875 6.59375 29.984375 6.59375 
Q 38.421875 6.59375 43.015625 9.90625 
Q 47.609375 13.234375 47.609375 19.390625 
Q 47.609375 24.75 44.3125 27.78125 
Q 41.015625 30.8125 33.5 32.328125 
L 27.484375 33.5 
Q 16.453125 35.6875 11.515625 40.375 
Q 6.59375 45.0625 6.59375 53.421875 
Q 6.59375 63.09375 13.40625 68.65625 
Q 20.21875 74.21875 32.171875 74.21875 
Q 37.3125 74.21875 42.625 73.28125 
Q 47.953125 72.359375 53.515625 70.515625 
z
" id="DejaVuSans-83"/>
     <path d="M 4.203125 54.6875 
L 13.1875 54.6875 
L 24.421875 12.015625 
L 35.59375 54.6875 
L 46.1875 54.6875 
L 57.421875 12.015625 
L 68.609375 54.6875 
L 77.59375 54.6875 
L 63.28125 0 
L 52.6875 0 
L 40.921875 44.828125 
L 29.109375 0 
L 18.5 0 
z
" id="DejaVuSans-119"/>
    </defs>
    <g transform="translate(68.3815 21.648)scale(0.2 -0.2)">
     <use xlink:href="#DejaVuSans-49"/>
     <use x="63.623047" xlink:href="#DejaVuSans-56"/>
     <use x="127.246094" xlink:href="#DejaVuSans-32"/>
     <use x="159.033203" xlink:href="#DejaVuSans-115"/>
     <use x="211.132812" xlink:href="#DejaVuSans-101"/>
     <use x="272.65625" xlink:href="#DejaVuSans-112"/>
     <use x="336.132812" xlink:href="#DejaVuSans-46"/>
     <use x="367.919922" xlink:href="#DejaVuSans-32"/>
     <use x="399.707031" xlink:href="#DejaVuSans-69"/>
     <use x="462.890625" xlink:href="#DejaVuSans-108"/>
     <use x="490.673828" xlink:href="#DejaVuSans-108"/>
     <use x="518.457031" xlink:href="#DejaVuSans-105"/>
     <use x="546.240234" xlink:href="#DejaVuSans-112"/>
     <use x="609.716797" xlink:href="#DejaVuSans-115"/>
     <use x="661.816406" xlink:href="#DejaVuSans-111"/>
     <use x="722.998047" xlink:href="#DejaVuSans-105"/>
     <use x="750.78125" xlink:href="#DejaVuSans-100"/>
     <use x="814.257812" xlink:href="#DejaVuSans-47"/>
     <use x="847.949219" xlink:href="#DejaVuSans-83"/>
     <use x="911.425781" xlink:href="#DejaVuSans-99"/>
     <use x="966.40625" xlink:href="#DejaVuSans-104"/>
     <use x="1029.785156" xlink:href="#DejaVuSans-119"/>
     <use x="1111.572266" xlink:href="#DejaVuSans-101"/>
     <use x="1173.095703" xlink:href="#DejaVuSans-102"/>
     <use x="1208.300781" xlink:href="#DejaVuSans-101"/>
     <use x="1269.824219" xlink:href="#DejaVuSans-108"/>
    </g>
   </g>
  </g>
 </g>
 <defs>
  <clipPath id="pecd7295e47">
   <rect height="271.296" width="281.088" x="57.6" y="27.648"/>
  </clipPath>
 </defs>
</svg>
