<?xml version="1.0" encoding="utf-8" standalone="no"?>
<!DOCTYPE svg PUBLIC "-//W3C//DTD SVG 1.1//EN"
  "http://www.w3.org/Graphics/SVG/1.1/DTD/svg11.dtd">
<!-- Created with matplotlib (https://matplotlib.org/) -->
<svg height="345.6pt" version="1.1" viewBox="0 0 460.8 345.6" width="460.8pt" xmlns="http://www.w3.org/2000/svg" xmlns:xlink="http://www.w3.org/1999/xlink">
 <defs>
  <style type="text/css">
*{stroke-linecap:butt;stroke-linejoin:round;}
  </style>
 </defs>
 <g id="figure_1">
  <g id="patch_1">
   <path d="M 0 345.6 
L 460.8 345.6 
L 460.8 0 
L 0 0 
z
" style="fill:#ffffff;"/>
  </g>
  <g id="axes_1">
   <g id="patch_2">
    <path d="M 57.6 298.944 
L 338.688 298.944 
L 338.688 41.472 
L 57.6 41.472 
z
" style="fill:#ffffff;"/>
   </g>
   <g id="line2d_1">
    <path d="M 38.440992 298.944 
L 38.440992 294.54878 
L 50.52898 294.54878 
L 50.52898 285.758339 
L 66.508432 285.758339 
L 66.508432 276.967899 
L 88.846997 276.967899 
L 88.846997 272.572679 
L 93.863965 272.572679 
L 93.863965 259.387018 
L 103.623262 259.387018 
L 103.623262 250.596578 
L 109.550313 250.596578 
L 109.550313 246.201357 
L 114.418861 246.201357 
L 114.418861 237.410917 
L 127.378995 237.410917 
L 127.378995 224.225256 
L 137.910857 224.225256 
L 137.910857 215.434816 
L 143.611807 215.434816 
L 143.611807 206.644376 
L 149.377533 206.644376 
L 149.377533 197.853935 
L 155.403849 197.853935 
L 155.403849 193.458715 
L 160.727241 193.458715 
L 160.727241 180.273054 
L 166.751482 180.273054 
L 166.751482 175.877834 
L 173.203648 175.877834 
L 173.203648 162.692173 
L 183.838356 162.692173 
L 183.838356 153.901733 
L 188.000754 153.901733 
L 188.000754 149.506513 
L 192.946874 149.506513 
L 192.946874 136.320852 
L 198.24329 136.320852 
L 198.24329 131.925632 
L 204.127567 131.925632 
L 204.127567 118.739971 
L 210.409698 118.739971 
L 210.409698 109.949531 
L 217.088146 109.949531 
L 217.088146 101.15909 
L 223.937749 101.15909 
L 223.937749 96.76387 
L 230.985577 96.76387 
L 230.985577 87.97343 
L 238.043264 87.97343 
L 238.043264 74.787769 
L 338.688 74.787769 
" style="fill:none;stroke:#f5deb3;stroke-linecap:square;stroke-width:4;"/>
   </g>
   <g id="line2d_2">
    <defs>
     <path d="M 0 7.778175 
L 7.778175 0 
L 0 -7.778175 
L -7.778175 0 
z
" id="mc758723180" style="stroke:#f5deb3;stroke-linejoin:miter;stroke-width:1.5;"/>
    </defs>
    <g>
     <use style="fill:#f5deb3;stroke:#f5deb3;stroke-linejoin:miter;stroke-width:1.5;" x="88.846997" xlink:href="#mc758723180" y="272.572679"/>
     <use style="fill:#f5deb3;stroke:#f5deb3;stroke-linejoin:miter;stroke-width:1.5;" x="149.377533" xlink:href="#mc758723180" y="197.853935"/>
     <use style="fill:#f5deb3;stroke:#f5deb3;stroke-linejoin:miter;stroke-width:1.5;" x="192.946874" xlink:href="#mc758723180" y="149.506513"/>
     <use style="fill:#f5deb3;stroke:#f5deb3;stroke-linejoin:miter;stroke-width:1.5;" x="238.043264" xlink:href="#mc758723180" y="87.97343"/>
     <use style="fill:#f5deb3;stroke:#f5deb3;stroke-linejoin:miter;stroke-width:1.5;" x="238.043264" xlink:href="#mc758723180" y="74.787769"/>
     <use style="fill:#f5deb3;stroke:#f5deb3;stroke-linejoin:miter;stroke-width:1.5;" x="338.688" xlink:href="#mc758723180" y="74.787769"/>
    </g>
   </g>
   <g id="line2d_3">
    <path style="fill:none;stroke:#f5deb3;stroke-linecap:square;stroke-width:4;"/>
    <g/>
   </g>
   <g id="line2d_4">
    <path d="M 338.688 74.787769 
L 369.60768 49.119683 
" style="fill:none;stroke:#f5deb3;stroke-linecap:square;stroke-width:4;"/>
    <g>
     <use style="fill:#f5deb3;stroke:#f5deb3;stroke-linejoin:miter;stroke-width:1.5;" x="338.688" xlink:href="#mc758723180" y="74.787769"/>
     <use style="fill:#f5deb3;stroke:#f5deb3;stroke-linejoin:miter;stroke-width:1.5;" x="369.60768" xlink:href="#mc758723180" y="49.119683"/>
    </g>
   </g>
   <g id="matplotlib.axis_1">
    <g id="xtick_1">
     <g id="line2d_5">
      <path clip-path="url(#p9a7e30fded)" d="M 57.6 298.944 
L 57.6 41.472 
" style="fill:none;stroke:#b0b0b0;stroke-linecap:square;stroke-width:0.8;"/>
     </g>
     <g id="line2d_6">
      <defs>
       <path d="M 0 0 
L 0 3.5 
" id="m9e324812b0" style="stroke:#000000;stroke-width:0.8;"/>
      </defs>
      <g>
       <use style="stroke:#000000;stroke-width:0.8;" x="57.6" xlink:href="#m9e324812b0" y="298.944"/>
      </g>
     </g>
     <g id="text_1">
      <!-- 0 -->
      <defs>
       <path d="M 31.78125 66.40625 
Q 24.171875 66.40625 20.328125 58.90625 
Q 16.5 51.421875 16.5 36.375 
Q 16.5 21.390625 20.328125 13.890625 
Q 24.171875 6.390625 31.78125 6.390625 
Q 39.453125 6.390625 43.28125 13.890625 
Q 47.125 21.390625 47.125 36.375 
Q 47.125 51.421875 43.28125 58.90625 
Q 39.453125 66.40625 31.78125 66.40625 
z
M 31.78125 74.21875 
Q 44.046875 74.21875 50.515625 64.515625 
Q 56.984375 54.828125 56.984375 36.375 
Q 56.984375 17.96875 50.515625 8.265625 
Q 44.046875 -1.421875 31.78125 -1.421875 
Q 19.53125 -1.421875 13.0625 8.265625 
Q 6.59375 17.96875 6.59375 36.375 
Q 6.59375 54.828125 13.0625 64.515625 
Q 19.53125 74.21875 31.78125 74.21875 
z
" id="DejaVuSans-48"/>
      </defs>
      <g transform="translate(51.2375 321.140875)scale(0.2 -0.2)">
       <use xlink:href="#DejaVuSans-48"/>
      </g>
     </g>
    </g>
    <g id="xtick_2">
     <g id="line2d_7">
      <path clip-path="url(#p9a7e30fded)" d="M 137.910857 298.944 
L 137.910857 41.472 
" style="fill:none;stroke:#b0b0b0;stroke-linecap:square;stroke-width:0.8;"/>
     </g>
     <g id="line2d_8">
      <g>
       <use style="stroke:#000000;stroke-width:0.8;" x="137.910857" xlink:href="#m9e324812b0" y="298.944"/>
      </g>
     </g>
     <g id="text_2">
      <!-- 2 -->
      <defs>
       <path d="M 19.1875 8.296875 
L 53.609375 8.296875 
L 53.609375 0 
L 7.328125 0 
L 7.328125 8.296875 
Q 12.9375 14.109375 22.625 23.890625 
Q 32.328125 33.6875 34.8125 36.53125 
Q 39.546875 41.84375 41.421875 45.53125 
Q 43.3125 49.21875 43.3125 52.78125 
Q 43.3125 58.59375 39.234375 62.25 
Q 35.15625 65.921875 28.609375 65.921875 
Q 23.96875 65.921875 18.8125 64.3125 
Q 13.671875 62.703125 7.8125 59.421875 
L 7.8125 69.390625 
Q 13.765625 71.78125 18.9375 73 
Q 24.125 74.21875 28.421875 74.21875 
Q 39.75 74.21875 46.484375 68.546875 
Q 53.21875 62.890625 53.21875 53.421875 
Q 53.21875 48.921875 51.53125 44.890625 
Q 49.859375 40.875 45.40625 35.40625 
Q 44.1875 33.984375 37.640625 27.21875 
Q 31.109375 20.453125 19.1875 8.296875 
z
" id="DejaVuSans-50"/>
      </defs>
      <g transform="translate(131.548357 321.140875)scale(0.2 -0.2)">
       <use xlink:href="#DejaVuSans-50"/>
      </g>
     </g>
    </g>
    <g id="xtick_3">
     <g id="line2d_9">
      <path clip-path="url(#p9a7e30fded)" d="M 218.221714 298.944 
L 218.221714 41.472 
" style="fill:none;stroke:#b0b0b0;stroke-linecap:square;stroke-width:0.8;"/>
     </g>
     <g id="line2d_10">
      <g>
       <use style="stroke:#000000;stroke-width:0.8;" x="218.221714" xlink:href="#m9e324812b0" y="298.944"/>
      </g>
     </g>
     <g id="text_3">
      <!-- 4 -->
      <defs>
       <path d="M 37.796875 64.3125 
L 12.890625 25.390625 
L 37.796875 25.390625 
z
M 35.203125 72.90625 
L 47.609375 72.90625 
L 47.609375 25.390625 
L 58.015625 25.390625 
L 58.015625 17.1875 
L 47.609375 17.1875 
L 47.609375 0 
L 37.796875 0 
L 37.796875 17.1875 
L 4.890625 17.1875 
L 4.890625 26.703125 
z
" id="DejaVuSans-52"/>
      </defs>
      <g transform="translate(211.859214 321.140875)scale(0.2 -0.2)">
       <use xlink:href="#DejaVuSans-52"/>
      </g>
     </g>
    </g>
    <g id="xtick_4">
     <g id="line2d_11">
      <path clip-path="url(#p9a7e30fded)" d="M 298.532571 298.944 
L 298.532571 41.472 
" style="fill:none;stroke:#b0b0b0;stroke-linecap:square;stroke-width:0.8;"/>
     </g>
     <g id="line2d_12">
      <g>
       <use style="stroke:#000000;stroke-width:0.8;" x="298.532571" xlink:href="#m9e324812b0" y="298.944"/>
      </g>
     </g>
     <g id="text_4">
      <!-- 6 -->
      <defs>
       <path d="M 33.015625 40.375 
Q 26.375 40.375 22.484375 35.828125 
Q 18.609375 31.296875 18.609375 23.390625 
Q 18.609375 15.53125 22.484375 10.953125 
Q 26.375 6.390625 33.015625 6.390625 
Q 39.65625 6.390625 43.53125 10.953125 
Q 47.40625 15.53125 47.40625 23.390625 
Q 47.40625 31.296875 43.53125 35.828125 
Q 39.65625 40.375 33.015625 40.375 
z
M 52.59375 71.296875 
L 52.59375 62.3125 
Q 48.875 64.0625 45.09375 64.984375 
Q 41.3125 65.921875 37.59375 65.921875 
Q 27.828125 65.921875 22.671875 59.328125 
Q 17.53125 52.734375 16.796875 39.40625 
Q 19.671875 43.65625 24.015625 45.921875 
Q 28.375 48.1875 33.59375 48.1875 
Q 44.578125 48.1875 50.953125 41.515625 
Q 57.328125 34.859375 57.328125 23.390625 
Q 57.328125 12.15625 50.6875 5.359375 
Q 44.046875 -1.421875 33.015625 -1.421875 
Q 20.359375 -1.421875 13.671875 8.265625 
Q 6.984375 17.96875 6.984375 36.375 
Q 6.984375 53.65625 15.1875 63.9375 
Q 23.390625 74.21875 37.203125 74.21875 
Q 40.921875 74.21875 44.703125 73.484375 
Q 48.484375 72.75 52.59375 71.296875 
z
" id="DejaVuSans-54"/>
      </defs>
      <g transform="translate(292.170071 321.140875)scale(0.2 -0.2)">
       <use xlink:href="#DejaVuSans-54"/>
      </g>
     </g>
    </g>
    <g id="xtick_5">
     <g id="line2d_13">
      <path clip-path="url(#p9a7e30fded)" d="M 57.6 298.944 
L 57.6 41.472 
" style="fill:none;stroke:#b0b0b0;stroke-linecap:square;stroke-width:0.8;"/>
     </g>
     <g id="line2d_14">
      <defs>
       <path d="M 0 0 
L 0 2 
" id="m5f9acbd581" style="stroke:#000000;stroke-width:0.6;"/>
      </defs>
      <g>
       <use style="stroke:#000000;stroke-width:0.6;" x="57.6" xlink:href="#m5f9acbd581" y="298.944"/>
      </g>
     </g>
    </g>
    <g id="xtick_6">
     <g id="line2d_15">
      <path clip-path="url(#p9a7e30fded)" d="M 97.755429 298.944 
L 97.755429 41.472 
" style="fill:none;stroke:#b0b0b0;stroke-linecap:square;stroke-width:0.8;"/>
     </g>
     <g id="line2d_16">
      <g>
       <use style="stroke:#000000;stroke-width:0.6;" x="97.755429" xlink:href="#m5f9acbd581" y="298.944"/>
      </g>
     </g>
    </g>
    <g id="xtick_7">
     <g id="line2d_17">
      <path clip-path="url(#p9a7e30fded)" d="M 137.910857 298.944 
L 137.910857 41.472 
" style="fill:none;stroke:#b0b0b0;stroke-linecap:square;stroke-width:0.8;"/>
     </g>
     <g id="line2d_18">
      <g>
       <use style="stroke:#000000;stroke-width:0.6;" x="137.910857" xlink:href="#m5f9acbd581" y="298.944"/>
      </g>
     </g>
    </g>
    <g id="xtick_8">
     <g id="line2d_19">
      <path clip-path="url(#p9a7e30fded)" d="M 178.066286 298.944 
L 178.066286 41.472 
" style="fill:none;stroke:#b0b0b0;stroke-linecap:square;stroke-width:0.8;"/>
     </g>
     <g id="line2d_20">
      <g>
       <use style="stroke:#000000;stroke-width:0.6;" x="178.066286" xlink:href="#m5f9acbd581" y="298.944"/>
      </g>
     </g>
    </g>
    <g id="xtick_9">
     <g id="line2d_21">
      <path clip-path="url(#p9a7e30fded)" d="M 218.221714 298.944 
L 218.221714 41.472 
" style="fill:none;stroke:#b0b0b0;stroke-linecap:square;stroke-width:0.8;"/>
     </g>
     <g id="line2d_22">
      <g>
       <use style="stroke:#000000;stroke-width:0.6;" x="218.221714" xlink:href="#m5f9acbd581" y="298.944"/>
      </g>
     </g>
    </g>
    <g id="xtick_10">
     <g id="line2d_23">
      <path clip-path="url(#p9a7e30fded)" d="M 258.377143 298.944 
L 258.377143 41.472 
" style="fill:none;stroke:#b0b0b0;stroke-linecap:square;stroke-width:0.8;"/>
     </g>
     <g id="line2d_24">
      <g>
       <use style="stroke:#000000;stroke-width:0.6;" x="258.377143" xlink:href="#m5f9acbd581" y="298.944"/>
      </g>
     </g>
    </g>
    <g id="xtick_11">
     <g id="line2d_25">
      <path clip-path="url(#p9a7e30fded)" d="M 298.532571 298.944 
L 298.532571 41.472 
" style="fill:none;stroke:#b0b0b0;stroke-linecap:square;stroke-width:0.8;"/>
     </g>
     <g id="line2d_26">
      <g>
       <use style="stroke:#000000;stroke-width:0.6;" x="298.532571" xlink:href="#m5f9acbd581" y="298.944"/>
      </g>
     </g>
    </g>
    <g id="xtick_12">
     <g id="line2d_27">
      <path clip-path="url(#p9a7e30fded)" d="M 338.688 298.944 
L 338.688 41.472 
" style="fill:none;stroke:#b0b0b0;stroke-linecap:square;stroke-width:0.8;"/>
     </g>
     <g id="line2d_28">
      <g>
       <use style="stroke:#000000;stroke-width:0.6;" x="338.688" xlink:href="#m5f9acbd581" y="298.944"/>
      </g>
     </g>
    </g>
    <g id="text_5">
     <!-- log10(# f-evals / dimension) -->
     <defs>
      <path d="M 9.421875 75.984375 
L 18.40625 75.984375 
L 18.40625 0 
L 9.421875 0 
z
" id="DejaVuSans-108"/>
      <path d="M 30.609375 48.390625 
Q 23.390625 48.390625 19.1875 42.75 
Q 14.984375 37.109375 14.984375 27.296875 
Q 14.984375 17.484375 19.15625 11.84375 
Q 23.34375 6.203125 30.609375 6.203125 
Q 37.796875 6.203125 41.984375 11.859375 
Q 46.1875 17.53125 46.1875 27.296875 
Q 46.1875 37.015625 41.984375 42.703125 
Q 37.796875 48.390625 30.609375 48.390625 
z
M 30.609375 56 
Q 42.328125 56 49.015625 48.375 
Q 55.71875 40.765625 55.71875 27.296875 
Q 55.71875 13.875 49.015625 6.21875 
Q 42.328125 -1.421875 30.609375 -1.421875 
Q 18.84375 -1.421875 12.171875 6.21875 
Q 5.515625 13.875 5.515625 27.296875 
Q 5.515625 40.765625 12.171875 48.375 
Q 18.84375 56 30.609375 56 
z
" id="DejaVuSans-111"/>
      <path d="M 45.40625 27.984375 
Q 45.40625 37.75 41.375 43.109375 
Q 37.359375 48.484375 30.078125 48.484375 
Q 22.859375 48.484375 18.828125 43.109375 
Q 14.796875 37.75 14.796875 27.984375 
Q 14.796875 18.265625 18.828125 12.890625 
Q 22.859375 7.515625 30.078125 7.515625 
Q 37.359375 7.515625 41.375 12.890625 
Q 45.40625 18.265625 45.40625 27.984375 
z
M 54.390625 6.78125 
Q 54.390625 -7.171875 48.1875 -13.984375 
Q 42 -20.796875 29.203125 -20.796875 
Q 24.46875 -20.796875 20.265625 -20.09375 
Q 16.0625 -19.390625 12.109375 -17.921875 
L 12.109375 -9.1875 
Q 16.0625 -11.328125 19.921875 -12.34375 
Q 23.78125 -13.375 27.78125 -13.375 
Q 36.625 -13.375 41.015625 -8.765625 
Q 45.40625 -4.15625 45.40625 5.171875 
L 45.40625 9.625 
Q 42.625 4.78125 38.28125 2.390625 
Q 33.9375 0 27.875 0 
Q 17.828125 0 11.671875 7.65625 
Q 5.515625 15.328125 5.515625 27.984375 
Q 5.515625 40.671875 11.671875 48.328125 
Q 17.828125 56 27.875 56 
Q 33.9375 56 38.28125 53.609375 
Q 42.625 51.21875 45.40625 46.390625 
L 45.40625 54.6875 
L 54.390625 54.6875 
z
" id="DejaVuSans-103"/>
      <path d="M 12.40625 8.296875 
L 28.515625 8.296875 
L 28.515625 63.921875 
L 10.984375 60.40625 
L 10.984375 69.390625 
L 28.421875 72.90625 
L 38.28125 72.90625 
L 38.28125 8.296875 
L 54.390625 8.296875 
L 54.390625 0 
L 12.40625 0 
z
" id="DejaVuSans-49"/>
      <path d="M 31 75.875 
Q 24.46875 64.65625 21.28125 53.65625 
Q 18.109375 42.671875 18.109375 31.390625 
Q 18.109375 20.125 21.3125 9.0625 
Q 24.515625 -2 31 -13.1875 
L 23.1875 -13.1875 
Q 15.875 -1.703125 12.234375 9.375 
Q 8.59375 20.453125 8.59375 31.390625 
Q 8.59375 42.28125 12.203125 53.3125 
Q 15.828125 64.359375 23.1875 75.875 
z
" id="DejaVuSans-40"/>
      <path d="M 51.125 44 
L 36.921875 44 
L 32.8125 27.6875 
L 47.125 27.6875 
z
M 43.796875 71.78125 
L 38.71875 51.515625 
L 52.984375 51.515625 
L 58.109375 71.78125 
L 65.921875 71.78125 
L 60.890625 51.515625 
L 76.125 51.515625 
L 76.125 44 
L 58.984375 44 
L 54.984375 27.6875 
L 70.515625 27.6875 
L 70.515625 20.21875 
L 53.078125 20.21875 
L 48 0 
L 40.1875 0 
L 45.21875 20.21875 
L 30.90625 20.21875 
L 25.875 0 
L 18.015625 0 
L 23.09375 20.21875 
L 7.71875 20.21875 
L 7.71875 27.6875 
L 24.90625 27.6875 
L 29 44 
L 13.28125 44 
L 13.28125 51.515625 
L 30.90625 51.515625 
L 35.890625 71.78125 
z
" id="DejaVuSans-35"/>
      <path id="DejaVuSans-32"/>
      <path d="M 37.109375 75.984375 
L 37.109375 68.5 
L 28.515625 68.5 
Q 23.6875 68.5 21.796875 66.546875 
Q 19.921875 64.59375 19.921875 59.515625 
L 19.921875 54.6875 
L 34.71875 54.6875 
L 34.71875 47.703125 
L 19.921875 47.703125 
L 19.921875 0 
L 10.890625 0 
L 10.890625 47.703125 
L 2.296875 47.703125 
L 2.296875 54.6875 
L 10.890625 54.6875 
L 10.890625 58.5 
Q 10.890625 67.625 15.140625 71.796875 
Q 19.390625 75.984375 28.609375 75.984375 
z
" id="DejaVuSans-102"/>
      <path d="M 4.890625 31.390625 
L 31.203125 31.390625 
L 31.203125 23.390625 
L 4.890625 23.390625 
z
" id="DejaVuSans-45"/>
      <path d="M 56.203125 29.59375 
L 56.203125 25.203125 
L 14.890625 25.203125 
Q 15.484375 15.921875 20.484375 11.0625 
Q 25.484375 6.203125 34.421875 6.203125 
Q 39.59375 6.203125 44.453125 7.46875 
Q 49.3125 8.734375 54.109375 11.28125 
L 54.109375 2.78125 
Q 49.265625 0.734375 44.1875 -0.34375 
Q 39.109375 -1.421875 33.890625 -1.421875 
Q 20.796875 -1.421875 13.15625 6.1875 
Q 5.515625 13.8125 5.515625 26.8125 
Q 5.515625 40.234375 12.765625 48.109375 
Q 20.015625 56 32.328125 56 
Q 43.359375 56 49.78125 48.890625 
Q 56.203125 41.796875 56.203125 29.59375 
z
M 47.21875 32.234375 
Q 47.125 39.59375 43.09375 43.984375 
Q 39.0625 48.390625 32.421875 48.390625 
Q 24.90625 48.390625 20.390625 44.140625 
Q 15.875 39.890625 15.1875 32.171875 
z
" id="DejaVuSans-101"/>
      <path d="M 2.984375 54.6875 
L 12.5 54.6875 
L 29.59375 8.796875 
L 46.6875 54.6875 
L 56.203125 54.6875 
L 35.6875 0 
L 23.484375 0 
z
" id="DejaVuSans-118"/>
      <path d="M 34.28125 27.484375 
Q 23.390625 27.484375 19.1875 25 
Q 14.984375 22.515625 14.984375 16.5 
Q 14.984375 11.71875 18.140625 8.90625 
Q 21.296875 6.109375 26.703125 6.109375 
Q 34.1875 6.109375 38.703125 11.40625 
Q 43.21875 16.703125 43.21875 25.484375 
L 43.21875 27.484375 
z
M 52.203125 31.203125 
L 52.203125 0 
L 43.21875 0 
L 43.21875 8.296875 
Q 40.140625 3.328125 35.546875 0.953125 
Q 30.953125 -1.421875 24.3125 -1.421875 
Q 15.921875 -1.421875 10.953125 3.296875 
Q 6 8.015625 6 15.921875 
Q 6 25.140625 12.171875 29.828125 
Q 18.359375 34.515625 30.609375 34.515625 
L 43.21875 34.515625 
L 43.21875 35.40625 
Q 43.21875 41.609375 39.140625 45 
Q 35.0625 48.390625 27.6875 48.390625 
Q 23 48.390625 18.546875 47.265625 
Q 14.109375 46.140625 10.015625 43.890625 
L 10.015625 52.203125 
Q 14.9375 54.109375 19.578125 55.046875 
Q 24.21875 56 28.609375 56 
Q 40.484375 56 46.34375 49.84375 
Q 52.203125 43.703125 52.203125 31.203125 
z
" id="DejaVuSans-97"/>
      <path d="M 44.28125 53.078125 
L 44.28125 44.578125 
Q 40.484375 46.53125 36.375 47.5 
Q 32.28125 48.484375 27.875 48.484375 
Q 21.1875 48.484375 17.84375 46.4375 
Q 14.5 44.390625 14.5 40.28125 
Q 14.5 37.15625 16.890625 35.375 
Q 19.28125 33.59375 26.515625 31.984375 
L 29.59375 31.296875 
Q 39.15625 29.25 43.1875 25.515625 
Q 47.21875 21.78125 47.21875 15.09375 
Q 47.21875 7.46875 41.1875 3.015625 
Q 35.15625 -1.421875 24.609375 -1.421875 
Q 20.21875 -1.421875 15.453125 -0.5625 
Q 10.6875 0.296875 5.421875 2 
L 5.421875 11.28125 
Q 10.40625 8.6875 15.234375 7.390625 
Q 20.0625 6.109375 24.8125 6.109375 
Q 31.15625 6.109375 34.5625 8.28125 
Q 37.984375 10.453125 37.984375 14.40625 
Q 37.984375 18.0625 35.515625 20.015625 
Q 33.0625 21.96875 24.703125 23.78125 
L 21.578125 24.515625 
Q 13.234375 26.265625 9.515625 29.90625 
Q 5.8125 33.546875 5.8125 39.890625 
Q 5.8125 47.609375 11.28125 51.796875 
Q 16.75 56 26.8125 56 
Q 31.78125 56 36.171875 55.265625 
Q 40.578125 54.546875 44.28125 53.078125 
z
" id="DejaVuSans-115"/>
      <path d="M 25.390625 72.90625 
L 33.6875 72.90625 
L 8.296875 -9.28125 
L 0 -9.28125 
z
" id="DejaVuSans-47"/>
      <path d="M 45.40625 46.390625 
L 45.40625 75.984375 
L 54.390625 75.984375 
L 54.390625 0 
L 45.40625 0 
L 45.40625 8.203125 
Q 42.578125 3.328125 38.25 0.953125 
Q 33.9375 -1.421875 27.875 -1.421875 
Q 17.96875 -1.421875 11.734375 6.484375 
Q 5.515625 14.40625 5.515625 27.296875 
Q 5.515625 40.1875 11.734375 48.09375 
Q 17.96875 56 27.875 56 
Q 33.9375 56 38.25 53.625 
Q 42.578125 51.265625 45.40625 46.390625 
z
M 14.796875 27.296875 
Q 14.796875 17.390625 18.875 11.75 
Q 22.953125 6.109375 30.078125 6.109375 
Q 37.203125 6.109375 41.296875 11.75 
Q 45.40625 17.390625 45.40625 27.296875 
Q 45.40625 37.203125 41.296875 42.84375 
Q 37.203125 48.484375 30.078125 48.484375 
Q 22.953125 48.484375 18.875 42.84375 
Q 14.796875 37.203125 14.796875 27.296875 
z
" id="DejaVuSans-100"/>
      <path d="M 9.421875 54.6875 
L 18.40625 54.6875 
L 18.40625 0 
L 9.421875 0 
z
M 9.421875 75.984375 
L 18.40625 75.984375 
L 18.40625 64.59375 
L 9.421875 64.59375 
z
" id="DejaVuSans-105"/>
      <path d="M 52 44.1875 
Q 55.375 50.25 60.0625 53.125 
Q 64.75 56 71.09375 56 
Q 79.640625 56 84.28125 50.015625 
Q 88.921875 44.046875 88.921875 33.015625 
L 88.921875 0 
L 79.890625 0 
L 79.890625 32.71875 
Q 79.890625 40.578125 77.09375 44.375 
Q 74.3125 48.1875 68.609375 48.1875 
Q 61.625 48.1875 57.5625 43.546875 
Q 53.515625 38.921875 53.515625 30.90625 
L 53.515625 0 
L 44.484375 0 
L 44.484375 32.71875 
Q 44.484375 40.625 41.703125 44.40625 
Q 38.921875 48.1875 33.109375 48.1875 
Q 26.21875 48.1875 22.15625 43.53125 
Q 18.109375 38.875 18.109375 30.90625 
L 18.109375 0 
L 9.078125 0 
L 9.078125 54.6875 
L 18.109375 54.6875 
L 18.109375 46.1875 
Q 21.1875 51.21875 25.484375 53.609375 
Q 29.78125 56 35.6875 56 
Q 41.65625 56 45.828125 52.96875 
Q 50 49.953125 52 44.1875 
z
" id="DejaVuSans-109"/>
      <path d="M 54.890625 33.015625 
L 54.890625 0 
L 45.90625 0 
L 45.90625 32.71875 
Q 45.90625 40.484375 42.875 44.328125 
Q 39.84375 48.1875 33.796875 48.1875 
Q 26.515625 48.1875 22.3125 43.546875 
Q 18.109375 38.921875 18.109375 30.90625 
L 18.109375 0 
L 9.078125 0 
L 9.078125 54.6875 
L 18.109375 54.6875 
L 18.109375 46.1875 
Q 21.34375 51.125 25.703125 53.5625 
Q 30.078125 56 35.796875 56 
Q 45.21875 56 50.046875 50.171875 
Q 54.890625 44.34375 54.890625 33.015625 
z
" id="DejaVuSans-110"/>
      <path d="M 8.015625 75.875 
L 15.828125 75.875 
Q 23.140625 64.359375 26.78125 53.3125 
Q 30.421875 42.28125 30.421875 31.390625 
Q 30.421875 20.453125 26.78125 9.375 
Q 23.140625 -1.703125 15.828125 -13.1875 
L 8.015625 -13.1875 
Q 14.5 -2 17.703125 9.0625 
Q 20.90625 20.125 20.90625 31.390625 
Q 20.90625 42.671875 17.703125 53.65625 
Q 14.5 64.65625 8.015625 75.875 
z
" id="DejaVuSans-41"/>
     </defs>
     <g transform="translate(77.303219 342.217594)scale(0.17 -0.17)">
      <use xlink:href="#DejaVuSans-108"/>
      <use x="27.783203" xlink:href="#DejaVuSans-111"/>
      <use x="88.964844" xlink:href="#DejaVuSans-103"/>
      <use x="152.441406" xlink:href="#DejaVuSans-49"/>
      <use x="216.064453" xlink:href="#DejaVuSans-48"/>
      <use x="279.6875" xlink:href="#DejaVuSans-40"/>
      <use x="318.701172" xlink:href="#DejaVuSans-35"/>
      <use x="402.490234" xlink:href="#DejaVuSans-32"/>
      <use x="434.277344" xlink:href="#DejaVuSans-102"/>
      <use x="469.404297" xlink:href="#DejaVuSans-45"/>
      <use x="505.488281" xlink:href="#DejaVuSans-101"/>
      <use x="567.011719" xlink:href="#DejaVuSans-118"/>
      <use x="626.191406" xlink:href="#DejaVuSans-97"/>
      <use x="687.470703" xlink:href="#DejaVuSans-108"/>
      <use x="715.253906" xlink:href="#DejaVuSans-115"/>
      <use x="767.353516" xlink:href="#DejaVuSans-32"/>
      <use x="799.140625" xlink:href="#DejaVuSans-47"/>
      <use x="832.832031" xlink:href="#DejaVuSans-32"/>
      <use x="864.619141" xlink:href="#DejaVuSans-100"/>
      <use x="928.095703" xlink:href="#DejaVuSans-105"/>
      <use x="955.878906" xlink:href="#DejaVuSans-109"/>
      <use x="1053.291016" xlink:href="#DejaVuSans-101"/>
      <use x="1114.814453" xlink:href="#DejaVuSans-110"/>
      <use x="1178.193359" xlink:href="#DejaVuSans-115"/>
      <use x="1230.292969" xlink:href="#DejaVuSans-105"/>
      <use x="1258.076172" xlink:href="#DejaVuSans-111"/>
      <use x="1319.257812" xlink:href="#DejaVuSans-110"/>
      <use x="1382.636719" xlink:href="#DejaVuSans-41"/>
     </g>
    </g>
   </g>
   <g id="matplotlib.axis_2">
    <g id="ytick_1">
     <g id="line2d_29">
      <path clip-path="url(#p9a7e30fded)" d="M 57.6 298.944 
L 338.688 298.944 
" style="fill:none;stroke:#b0b0b0;stroke-linecap:square;stroke-width:0.8;"/>
     </g>
     <g id="line2d_30">
      <defs>
       <path d="M 0 0 
L -3.5 0 
" id="m6f983673be" style="stroke:#000000;stroke-width:0.8;"/>
      </defs>
      <g>
       <use style="stroke:#000000;stroke-width:0.8;" x="57.6" xlink:href="#m6f983673be" y="298.944"/>
      </g>
     </g>
     <g id="text_6">
      <!-- 0.0 -->
      <defs>
       <path d="M 10.6875 12.40625 
L 21 12.40625 
L 21 0 
L 10.6875 0 
z
" id="DejaVuSans-46"/>
      </defs>
      <g transform="translate(25.155 305.02275)scale(0.16 -0.16)">
       <use xlink:href="#DejaVuSans-48"/>
       <use x="63.623047" xlink:href="#DejaVuSans-46"/>
       <use x="95.410156" xlink:href="#DejaVuSans-48"/>
      </g>
     </g>
    </g>
    <g id="ytick_2">
     <g id="line2d_31">
      <path clip-path="url(#p9a7e30fded)" d="M 57.6 247.959446 
L 338.688 247.959446 
" style="fill:none;stroke:#b0b0b0;stroke-linecap:square;stroke-width:0.8;"/>
     </g>
     <g id="line2d_32">
      <g>
       <use style="stroke:#000000;stroke-width:0.8;" x="57.6" xlink:href="#m6f983673be" y="247.959446"/>
      </g>
     </g>
     <g id="text_7">
      <!-- 0.2 -->
      <g transform="translate(25.155 254.038196)scale(0.16 -0.16)">
       <use xlink:href="#DejaVuSans-48"/>
       <use x="63.623047" xlink:href="#DejaVuSans-46"/>
       <use x="95.410156" xlink:href="#DejaVuSans-50"/>
      </g>
     </g>
    </g>
    <g id="ytick_3">
     <g id="line2d_33">
      <path clip-path="url(#p9a7e30fded)" d="M 57.6 196.974891 
L 338.688 196.974891 
" style="fill:none;stroke:#b0b0b0;stroke-linecap:square;stroke-width:0.8;"/>
     </g>
     <g id="line2d_34">
      <g>
       <use style="stroke:#000000;stroke-width:0.8;" x="57.6" xlink:href="#m6f983673be" y="196.974891"/>
      </g>
     </g>
     <g id="text_8">
      <!-- 0.4 -->
      <g transform="translate(25.155 203.053641)scale(0.16 -0.16)">
       <use xlink:href="#DejaVuSans-48"/>
       <use x="63.623047" xlink:href="#DejaVuSans-46"/>
       <use x="95.410156" xlink:href="#DejaVuSans-52"/>
      </g>
     </g>
    </g>
    <g id="ytick_4">
     <g id="line2d_35">
      <path clip-path="url(#p9a7e30fded)" d="M 57.6 145.990337 
L 338.688 145.990337 
" style="fill:none;stroke:#b0b0b0;stroke-linecap:square;stroke-width:0.8;"/>
     </g>
     <g id="line2d_36">
      <g>
       <use style="stroke:#000000;stroke-width:0.8;" x="57.6" xlink:href="#m6f983673be" y="145.990337"/>
      </g>
     </g>
     <g id="text_9">
      <!-- 0.6 -->
      <g transform="translate(25.155 152.069087)scale(0.16 -0.16)">
       <use xlink:href="#DejaVuSans-48"/>
       <use x="63.623047" xlink:href="#DejaVuSans-46"/>
       <use x="95.410156" xlink:href="#DejaVuSans-54"/>
      </g>
     </g>
    </g>
    <g id="ytick_5">
     <g id="line2d_37">
      <path clip-path="url(#p9a7e30fded)" d="M 57.6 95.005782 
L 338.688 95.005782 
" style="fill:none;stroke:#b0b0b0;stroke-linecap:square;stroke-width:0.8;"/>
     </g>
     <g id="line2d_38">
      <g>
       <use style="stroke:#000000;stroke-width:0.8;" x="57.6" xlink:href="#m6f983673be" y="95.005782"/>
      </g>
     </g>
     <g id="text_10">
      <!-- 0.8 -->
      <defs>
       <path d="M 31.78125 34.625 
Q 24.75 34.625 20.71875 30.859375 
Q 16.703125 27.09375 16.703125 20.515625 
Q 16.703125 13.921875 20.71875 10.15625 
Q 24.75 6.390625 31.78125 6.390625 
Q 38.8125 6.390625 42.859375 10.171875 
Q 46.921875 13.96875 46.921875 20.515625 
Q 46.921875 27.09375 42.890625 30.859375 
Q 38.875 34.625 31.78125 34.625 
z
M 21.921875 38.8125 
Q 15.578125 40.375 12.03125 44.71875 
Q 8.5 49.078125 8.5 55.328125 
Q 8.5 64.0625 14.71875 69.140625 
Q 20.953125 74.21875 31.78125 74.21875 
Q 42.671875 74.21875 48.875 69.140625 
Q 55.078125 64.0625 55.078125 55.328125 
Q 55.078125 49.078125 51.53125 44.71875 
Q 48 40.375 41.703125 38.8125 
Q 48.828125 37.15625 52.796875 32.3125 
Q 56.78125 27.484375 56.78125 20.515625 
Q 56.78125 9.90625 50.3125 4.234375 
Q 43.84375 -1.421875 31.78125 -1.421875 
Q 19.734375 -1.421875 13.25 4.234375 
Q 6.78125 9.90625 6.78125 20.515625 
Q 6.78125 27.484375 10.78125 32.3125 
Q 14.796875 37.15625 21.921875 38.8125 
z
M 18.3125 54.390625 
Q 18.3125 48.734375 21.84375 45.5625 
Q 25.390625 42.390625 31.78125 42.390625 
Q 38.140625 42.390625 41.71875 45.5625 
Q 45.3125 48.734375 45.3125 54.390625 
Q 45.3125 60.0625 41.71875 63.234375 
Q 38.140625 66.40625 31.78125 66.40625 
Q 25.390625 66.40625 21.84375 63.234375 
Q 18.3125 60.0625 18.3125 54.390625 
z
" id="DejaVuSans-56"/>
      </defs>
      <g transform="translate(25.155 101.084532)scale(0.16 -0.16)">
       <use xlink:href="#DejaVuSans-48"/>
       <use x="63.623047" xlink:href="#DejaVuSans-46"/>
       <use x="95.410156" xlink:href="#DejaVuSans-56"/>
      </g>
     </g>
    </g>
    <g id="ytick_6">
     <g id="line2d_39">
      <path clip-path="url(#p9a7e30fded)" d="M 57.6 44.021228 
L 338.688 44.021228 
" style="fill:none;stroke:#b0b0b0;stroke-linecap:square;stroke-width:0.8;"/>
     </g>
     <g id="line2d_40">
      <g>
       <use style="stroke:#000000;stroke-width:0.8;" x="57.6" xlink:href="#m6f983673be" y="44.021228"/>
      </g>
     </g>
     <g id="text_11">
      <!-- 1.0 -->
      <g transform="translate(25.155 50.099978)scale(0.16 -0.16)">
       <use xlink:href="#DejaVuSans-49"/>
       <use x="63.623047" xlink:href="#DejaVuSans-46"/>
       <use x="95.410156" xlink:href="#DejaVuSans-48"/>
      </g>
     </g>
    </g>
    <g id="text_12">
     <!-- Fraction of function,target pairs -->
     <defs>
      <path d="M 9.8125 72.90625 
L 51.703125 72.90625 
L 51.703125 64.59375 
L 19.671875 64.59375 
L 19.671875 43.109375 
L 48.578125 43.109375 
L 48.578125 34.8125 
L 19.671875 34.8125 
L 19.671875 0 
L 9.8125 0 
z
" id="DejaVuSans-70"/>
      <path d="M 41.109375 46.296875 
Q 39.59375 47.171875 37.8125 47.578125 
Q 36.03125 48 33.890625 48 
Q 26.265625 48 22.1875 43.046875 
Q 18.109375 38.09375 18.109375 28.8125 
L 18.109375 0 
L 9.078125 0 
L 9.078125 54.6875 
L 18.109375 54.6875 
L 18.109375 46.1875 
Q 20.953125 51.171875 25.484375 53.578125 
Q 30.03125 56 36.53125 56 
Q 37.453125 56 38.578125 55.875 
Q 39.703125 55.765625 41.0625 55.515625 
z
" id="DejaVuSans-114"/>
      <path d="M 48.78125 52.59375 
L 48.78125 44.1875 
Q 44.96875 46.296875 41.140625 47.34375 
Q 37.3125 48.390625 33.40625 48.390625 
Q 24.65625 48.390625 19.8125 42.84375 
Q 14.984375 37.3125 14.984375 27.296875 
Q 14.984375 17.28125 19.8125 11.734375 
Q 24.65625 6.203125 33.40625 6.203125 
Q 37.3125 6.203125 41.140625 7.25 
Q 44.96875 8.296875 48.78125 10.40625 
L 48.78125 2.09375 
Q 45.015625 0.34375 40.984375 -0.53125 
Q 36.96875 -1.421875 32.421875 -1.421875 
Q 20.0625 -1.421875 12.78125 6.34375 
Q 5.515625 14.109375 5.515625 27.296875 
Q 5.515625 40.671875 12.859375 48.328125 
Q 20.21875 56 33.015625 56 
Q 37.15625 56 41.109375 55.140625 
Q 45.0625 54.296875 48.78125 52.59375 
z
" id="DejaVuSans-99"/>
      <path d="M 18.3125 70.21875 
L 18.3125 54.6875 
L 36.8125 54.6875 
L 36.8125 47.703125 
L 18.3125 47.703125 
L 18.3125 18.015625 
Q 18.3125 11.328125 20.140625 9.421875 
Q 21.96875 7.515625 27.59375 7.515625 
L 36.8125 7.515625 
L 36.8125 0 
L 27.59375 0 
Q 17.1875 0 13.234375 3.875 
Q 9.28125 7.765625 9.28125 18.015625 
L 9.28125 47.703125 
L 2.6875 47.703125 
L 2.6875 54.6875 
L 9.28125 54.6875 
L 9.28125 70.21875 
z
" id="DejaVuSans-116"/>
      <path d="M 8.5 21.578125 
L 8.5 54.6875 
L 17.484375 54.6875 
L 17.484375 21.921875 
Q 17.484375 14.15625 20.5 10.265625 
Q 23.53125 6.390625 29.59375 6.390625 
Q 36.859375 6.390625 41.078125 11.03125 
Q 45.3125 15.671875 45.3125 23.6875 
L 45.3125 54.6875 
L 54.296875 54.6875 
L 54.296875 0 
L 45.3125 0 
L 45.3125 8.40625 
Q 42.046875 3.421875 37.71875 1 
Q 33.40625 -1.421875 27.6875 -1.421875 
Q 18.265625 -1.421875 13.375 4.4375 
Q 8.5 10.296875 8.5 21.578125 
z
M 31.109375 56 
z
" id="DejaVuSans-117"/>
      <path d="M 11.71875 12.40625 
L 22.015625 12.40625 
L 22.015625 4 
L 14.015625 -11.625 
L 7.71875 -11.625 
L 11.71875 4 
z
" id="DejaVuSans-44"/>
      <path d="M 18.109375 8.203125 
L 18.109375 -20.796875 
L 9.078125 -20.796875 
L 9.078125 54.6875 
L 18.109375 54.6875 
L 18.109375 46.390625 
Q 20.953125 51.265625 25.265625 53.625 
Q 29.59375 56 35.59375 56 
Q 45.5625 56 51.78125 48.09375 
Q 58.015625 40.1875 58.015625 27.296875 
Q 58.015625 14.40625 51.78125 6.484375 
Q 45.5625 -1.421875 35.59375 -1.421875 
Q 29.59375 -1.421875 25.265625 0.953125 
Q 20.953125 3.328125 18.109375 8.203125 
z
M 48.6875 27.296875 
Q 48.6875 37.203125 44.609375 42.84375 
Q 40.53125 48.484375 33.40625 48.484375 
Q 26.265625 48.484375 22.1875 42.84375 
Q 18.109375 37.203125 18.109375 27.296875 
Q 18.109375 17.390625 22.1875 11.75 
Q 26.265625 6.109375 33.40625 6.109375 
Q 40.53125 6.109375 44.609375 11.75 
Q 48.6875 17.390625 48.6875 27.296875 
z
" id="DejaVuSans-112"/>
     </defs>
     <g transform="translate(17.619531 305.347375)rotate(-90)scale(0.17 -0.17)">
      <use xlink:href="#DejaVuSans-70"/>
      <use x="57.410156" xlink:href="#DejaVuSans-114"/>
      <use x="98.523438" xlink:href="#DejaVuSans-97"/>
      <use x="159.802734" xlink:href="#DejaVuSans-99"/>
      <use x="214.783203" xlink:href="#DejaVuSans-116"/>
      <use x="253.992188" xlink:href="#DejaVuSans-105"/>
      <use x="281.775391" xlink:href="#DejaVuSans-111"/>
      <use x="342.957031" xlink:href="#DejaVuSans-110"/>
      <use x="406.335938" xlink:href="#DejaVuSans-32"/>
      <use x="438.123047" xlink:href="#DejaVuSans-111"/>
      <use x="499.304688" xlink:href="#DejaVuSans-102"/>
      <use x="534.509766" xlink:href="#DejaVuSans-32"/>
      <use x="566.296875" xlink:href="#DejaVuSans-102"/>
      <use x="601.501953" xlink:href="#DejaVuSans-117"/>
      <use x="664.880859" xlink:href="#DejaVuSans-110"/>
      <use x="728.259766" xlink:href="#DejaVuSans-99"/>
      <use x="783.240234" xlink:href="#DejaVuSans-116"/>
      <use x="822.449219" xlink:href="#DejaVuSans-105"/>
      <use x="850.232422" xlink:href="#DejaVuSans-111"/>
      <use x="911.414062" xlink:href="#DejaVuSans-110"/>
      <use x="974.792969" xlink:href="#DejaVuSans-44"/>
      <use x="1006.580078" xlink:href="#DejaVuSans-116"/>
      <use x="1045.789062" xlink:href="#DejaVuSans-97"/>
      <use x="1107.068359" xlink:href="#DejaVuSans-114"/>
      <use x="1148.166016" xlink:href="#DejaVuSans-103"/>
      <use x="1211.642578" xlink:href="#DejaVuSans-101"/>
      <use x="1273.166016" xlink:href="#DejaVuSans-116"/>
      <use x="1312.375" xlink:href="#DejaVuSans-32"/>
      <use x="1344.162109" xlink:href="#DejaVuSans-112"/>
      <use x="1407.638672" xlink:href="#DejaVuSans-97"/>
      <use x="1468.917969" xlink:href="#DejaVuSans-105"/>
      <use x="1496.701172" xlink:href="#DejaVuSans-114"/>
      <use x="1537.814453" xlink:href="#DejaVuSans-115"/>
     </g>
    </g>
   </g>
   <g id="line2d_41">
    <defs>
     <path d="M 0 1.5 
C 0.397805 1.5 0.77937 1.341951 1.06066 1.06066 
C 1.341951 0.77937 1.5 0.397805 1.5 0 
C 1.5 -0.397805 1.341951 -0.77937 1.06066 -1.06066 
C 0.77937 -1.341951 0.397805 -1.5 0 -1.5 
C -0.397805 -1.5 -0.77937 -1.341951 -1.06066 -1.06066 
C -1.341951 -0.77937 -1.5 -0.397805 -1.5 0 
C -1.5 0.397805 -1.341951 0.77937 -1.06066 1.06066 
C -0.77937 1.341951 -0.397805 1.5 0 1.5 
z
" id="m22c9d76988" style="stroke:#f5deb3;"/>
    </defs>
    <g>
     <use style="fill:#f5deb3;stroke:#f5deb3;" x="238.043264" xlink:href="#m22c9d76988" y="74.787769"/>
     <use style="fill:#f5deb3;stroke:#f5deb3;" x="238.043264" xlink:href="#m22c9d76988" y="74.787769"/>
    </g>
   </g>
   <g id="line2d_42">
    <defs>
     <path d="M 0 1.5 
C 0.397805 1.5 0.77937 1.341951 1.06066 1.06066 
C 1.341951 0.77937 1.5 0.397805 1.5 0 
C 1.5 -0.397805 1.341951 -0.77937 1.06066 -1.06066 
C 0.77937 -1.341951 0.397805 -1.5 0 -1.5 
C -0.397805 -1.5 -0.77937 -1.341951 -1.06066 -1.06066 
C -1.341951 -0.77937 -1.5 -0.397805 -1.5 0 
C -1.5 0.397805 -1.341951 0.77937 -1.06066 1.06066 
C -0.77937 1.341951 -0.397805 1.5 0 1.5 
z
" id="m8fbd875a3c" style="stroke:#000080;"/>
    </defs>
    <g>
     <use style="fill:#000080;stroke:#000080;" x="238.96306" xlink:href="#m8fbd875a3c" y="104.675267"/>
     <use style="fill:#000080;stroke:#000080;" x="238.96306" xlink:href="#m8fbd875a3c" y="104.675267"/>
    </g>
   </g>
   <g id="line2d_43">
    <path d="M 38.440992 298.944 
L 38.440992 284.439773 
L 66.508432 284.439773 
L 66.508432 281.802641 
L 69.687988 281.802641 
L 69.687988 281.363119 
L 72.376266 281.363119 
L 72.376266 280.923597 
L 74.704957 280.923597 
L 74.704957 279.605031 
L 76.759008 279.605031 
L 76.759008 278.286465 
L 80.258561 278.286465 
L 80.258561 276.967899 
L 81.775977 276.967899 
L 81.775977 276.528377 
L 83.171864 276.528377 
L 83.171864 273.012201 
L 84.464254 273.012201 
L 84.464254 272.572679 
L 86.792945 272.572679 
L 86.792945 271.254113 
L 87.850195 271.254113 
L 87.850195 269.935547 
L 88.846997 269.935547 
L 88.846997 268.616981 
L 91.535274 268.616981 
L 91.535274 268.177459 
L 93.121756 268.177459 
L 93.121756 267.737936 
L 93.863965 267.737936 
L 93.863965 266.858892 
L 94.575872 266.858892 
L 94.575872 266.41937 
L 95.918017 266.41937 
L 95.918017 265.979848 
L 97.16421 265.979848 
L 97.16421 265.540326 
L 98.32726 265.540326 
L 98.32726 265.100804 
L 98.880934 265.100804 
L 98.880934 264.661282 
L 99.938184 264.661282 
L 99.938184 262.903194 
L 101.877879 262.903194 
L 101.877879 261.145106 
L 102.772397 261.145106 
L 102.772397 259.387018 
L 103.203018 259.387018 
L 103.203018 258.947496 
L 103.623262 258.947496 
L 103.623262 258.068452 
L 104.033617 258.068452 
L 104.033617 256.749886 
L 104.434538 256.749886 
L 104.434538 256.310364 
L 105.209745 256.310364 
L 105.209745 255.43132 
L 105.584798 255.43132 
L 105.584798 253.673232 
L 106.66386 253.673232 
L 106.66386 252.794188 
L 107.347841 252.794188 
L 107.347841 252.354666 
L 109.252198 252.354666 
L 109.252198 251.475622 
L 110.131676 251.475622 
L 110.131676 251.0361 
L 110.968922 251.0361 
L 110.968922 250.596578 
L 111.239304 250.596578 
L 111.239304 250.157056 
L 112.280765 250.157056 
L 112.280765 248.83849 
L 112.779064 248.83849 
L 112.779064 247.959446 
L 114.418861 247.959446 
L 114.418861 247.519924 
L 115.077025 247.519924 
L 115.077025 246.640879 
L 116.121606 246.640879 
L 116.121606 246.201357 
L 116.914437 246.201357 
L 116.914437 244.003747 
L 117.107138 244.003747 
L 117.107138 243.124703 
L 117.486268 243.124703 
L 117.486268 241.366615 
L 117.857331 241.366615 
L 117.857331 239.608527 
L 118.220662 239.608527 
L 118.220662 239.169005 
L 118.399528 239.169005 
L 118.399528 238.289961 
L 118.576578 238.289961 
L 118.576578 236.531873 
L 118.925375 236.531873 
L 118.925375 235.652829 
L 119.267333 235.652829 
L 119.267333 235.213307 
L 119.43583 235.213307 
L 119.43583 234.773785 
L 119.931767 234.773785 
L 119.931767 233.894741 
L 120.093994 233.894741 
L 120.093994 233.015697 
L 121.189196 233.015697 
L 121.189196 232.136653 
L 123.056911 232.136653 
L 123.056911 231.257609 
L 123.593547 231.257609 
L 123.593547 230.378565 
L 123.725164 230.378565 
L 123.725164 229.499521 
L 124.867052 229.499521 
L 124.867052 228.180955 
L 124.989434 228.180955 
L 124.989434 227.301911 
L 125.351508 227.301911 
L 125.351508 226.422867 
L 125.588781 226.422867 
L 125.588781 225.983344 
L 126.948374 225.983344 
L 126.948374 225.543822 
L 128.005624 225.543822 
L 128.005624 224.664778 
L 128.610515 224.664778 
L 128.610515 224.225256 
L 129.480244 224.225256 
L 129.480244 223.346212 
L 129.667765 223.346212 
L 129.667765 222.90669 
L 129.945319 222.90669 
L 129.945319 222.467168 
L 132.971225 222.467168 
L 132.971225 221.588124 
L 134.870259 221.588124 
L 134.939326 219.830036 
L 135.280614 219.830036 
L 135.348078 218.071948 
L 135.681535 218.071948 
L 135.681535 217.192904 
L 136.456742 217.192904 
L 136.456742 216.31386 
L 136.582658 216.31386 
L 136.582658 215.434816 
L 137.676769 215.434816 
L 137.676769 214.555772 
L 139.036363 214.555772 
L 139.090775 213.237206 
L 139.990725 213.237206 
L 139.990725 212.797684 
L 141.709062 212.797684 
L 141.709062 211.91864 
L 141.848763 211.91864 
L 141.848763 210.160552 
L 141.987354 210.160552 
L 142.033307 209.281508 
L 142.927826 209.281508 
L 142.927826 208.402464 
L 144.026061 208.402464 
L 144.026061 207.52342 
L 144.826168 207.52342 
L 144.826168 207.083898 
L 145.251067 207.083898 
L 145.251067 206.644376 
L 145.628555 206.644376 
L 145.665858 205.765332 
L 145.740226 205.765332 
L 145.740226 204.886287 
L 145.924771 204.886287 
L 145.924771 204.007243 
L 146.679213 204.007243 
L 146.679213 203.567721 
L 147.70334 203.567721 
L 147.70334 203.128199 
L 147.835457 203.128199 
L 147.835457 202.688677 
L 148.354135 202.688677 
L 148.354135 202.249155 
L 149.705742 202.249155 
L 149.705742 201.809633 
L 149.882194 201.809633 
L 149.940618 200.930589 
L 150.987572 200.930589 
L 151.069768 199.612023 
L 151.394733 199.612023 
L 151.394733 199.172501 
L 152.637225 199.172501 
L 152.637225 198.732979 
L 153.008024 198.732979 
L 153.056874 197.414413 
L 154.529516 197.414413 
L 154.529516 196.535369 
L 154.906477 196.535369 
L 154.906477 196.095847 
L 155.232454 196.095847 
L 155.232454 195.656325 
L 155.825108 195.656325 
L 155.825108 195.216803 
L 156.154939 195.216803 
L 156.154939 194.777281 
L 156.933697 194.777281 
L 156.933697 194.337759 
L 157.528821 194.337759 
L 157.622935 192.579671 
L 158.031107 192.579671 
L 158.031107 192.140149 
L 158.465753 192.140149 
L 158.465753 191.261105 
L 159.93989 191.261105 
L 159.93989 190.382061 
L 160.184713 190.382061 
L 160.184713 189.503017 
L 160.537682 189.503017 
L 160.632719 188.184451 
L 160.80562 188.184451 
L 160.80562 187.744929 
L 161.435376 187.744929 
L 161.465522 186.865885 
L 161.600536 186.865885 
L 161.600536 185.986841 
L 162.159347 185.986841 
L 162.159347 185.547319 
L 162.303474 185.547319 
L 162.303474 185.107797 
L 163.157756 185.107797 
L 163.157756 184.668274 
L 163.455871 184.668274 
L 163.455871 184.228752 
L 164.063205 184.228752 
L 164.063205 183.78923 
L 164.39735 183.78923 
L 164.39735 183.349708 
L 164.51154 183.349708 
L 164.51154 182.910186 
L 164.911599 182.910186 
L 165.010195 182.031142 
L 165.242153 182.031142 
L 165.278497 181.152098 
L 166.277988 181.152098 
L 166.277988 180.712576 
L 166.572616 180.712576 
L 166.572616 179.833532 
L 166.784816 179.833532 
L 166.784816 179.39401 
L 167.06015 179.39401 
L 167.06015 178.954488 
L 170.301516 178.954488 
L 170.301516 178.514966 
L 170.562682 178.514966 
L 170.562682 177.635922 
L 171.082245 177.635922 
L 171.142873 176.756878 
L 171.459882 176.756878 
L 171.459882 176.317356 
L 172.191475 176.317356 
L 172.296995 175.438312 
L 172.60183 175.438312 
L 172.60183 174.99879 
L 172.901427 174.99879 
L 172.901427 174.559268 
L 173.080293 174.559268 
L 173.080293 173.680224 
L 173.807666 173.680224 
L 173.807666 173.240702 
L 174.851815 173.240702 
L 174.851815 172.80118 
L 175.664362 172.80118 
L 175.664362 171.922136 
L 175.85017 171.922136 
L 175.9292 170.60357 
L 176.170646 170.60357 
L 176.215951 168.845482 
L 177.517111 168.845482 
L 177.517111 167.966438 
L 178.019719 167.966438 
L 178.019719 167.526916 
L 178.182162 167.526916 
L 178.182162 167.087394 
L 178.513913 167.087394 
L 178.513913 166.647872 
L 178.73349 166.647872 
L 178.73349 165.768828 
L 178.872805 165.768828 
L 178.872805 165.329306 
L 179.300447 165.329306 
L 179.300447 164.889784 
L 179.574495 164.889784 
L 179.574495 164.450262 
L 180.135832 164.450262 
L 180.135832 164.01074 
L 180.789406 164.01074 
L 180.789406 163.571217 
L 181.095021 163.571217 
L 181.095021 163.131695 
L 181.733085 163.131695 
L 181.733085 162.692173 
L 181.859814 162.692173 
L 181.859814 162.252651 
L 181.999553 162.252651 
L 181.999553 161.813129 
L 182.730934 161.813129 
L 182.757606 160.934085 
L 183.41577 160.934085 
L 183.41577 160.055041 
L 183.79237 160.055041 
L 183.79237 159.615519 
L 184.082962 159.615519 
L 184.082962 158.736475 
L 184.246866 158.736475 
L 184.246866 158.296953 
L 188.095862 158.296953 
L 188.095862 157.857431 
L 188.284538 157.857431 
L 188.284538 157.417909 
L 188.42953 157.417909 
L 188.42953 156.978387 
L 188.671702 156.978387 
L 188.671702 156.538865 
L 188.797823 156.538865 
L 188.797823 156.099343 
L 190.104793 156.099343 
L 190.104793 155.659821 
L 190.570712 155.659821 
L 190.570712 155.220299 
L 190.697955 155.220299 
L 190.697955 154.341255 
L 190.899632 154.341255 
L 190.935798 153.462211 
L 191.385728 153.462211 
L 191.385728 152.583167 
L 191.787325 152.583167 
L 191.787325 151.704123 
L 192.60678 151.704123 
L 192.60678 151.264601 
L 193.454519 151.264601 
L 193.454519 150.385557 
L 193.653034 150.385557 
L 193.653034 149.506513 
L 194.667003 149.506513 
L 194.727482 148.187947 
L 195.327494 148.187947 
L 195.327494 147.748425 
L 196.088417 147.748425 
L 196.088417 147.308903 
L 196.381694 147.308903 
L 196.393892 146.429859 
L 197.114494 146.429859 
L 197.114494 145.990337 
L 197.250466 145.990337 
L 197.250466 145.550815 
L 197.555434 145.550815 
L 197.555434 144.671771 
L 198.305326 144.671771 
L 198.305326 144.232249 
L 199.483116 144.232249 
L 199.483116 143.792727 
L 199.840339 143.792727 
L 199.870335 142.913682 
L 200.178944 142.913682 
L 200.240994 141.595116 
L 201.000106 141.595116 
L 201.000106 141.155594 
L 202.000809 141.155594 
L 202.000809 140.716072 
L 202.655862 140.716072 
L 202.655862 140.27655 
L 203.315918 140.27655 
L 203.315918 139.837028 
L 203.678348 139.837028 
L 203.678348 139.397506 
L 205.844168 139.397506 
L 205.844168 138.957984 
L 206.798692 138.957984 
L 206.893559 138.07894 
L 207.475871 138.07894 
L 207.475871 137.639418 
L 208.256881 137.639418 
L 208.256881 137.199896 
L 208.644719 137.199896 
L 208.669869 136.320852 
L 208.771106 136.320852 
L 208.776102 135.441808 
L 210.955154 135.441808 
L 211.042234 133.68372 
L 211.315585 133.68372 
L 211.315585 133.244198 
L 211.486632 133.244198 
L 211.486632 132.365154 
L 211.92082 132.365154 
L 211.92082 131.48611 
L 212.093496 131.48611 
L 212.093496 131.046588 
L 212.872976 131.046588 
L 212.872976 130.607066 
L 213.196993 130.607066 
L 213.196993 129.728022 
L 213.510531 129.728022 
L 213.510531 128.848978 
L 213.742039 128.848978 
L 213.742039 127.969934 
L 215.108301 127.969934 
L 215.108301 127.09089 
L 215.595527 127.09089 
L 215.595527 126.211846 
L 215.805775 126.211846 
L 215.805775 125.332802 
L 216.865891 125.332802 
L 216.865891 124.89328 
L 217.098069 124.89328 
L 217.098069 124.014236 
L 218.01706 124.014236 
L 218.01706 123.574714 
L 218.13722 123.574714 
L 218.13722 122.69567 
L 219.234043 122.69567 
L 219.234043 122.256147 
L 219.669039 122.256147 
L 219.669039 121.377103 
L 219.852119 121.377103 
L 219.852119 120.498059 
L 220.397287 120.498059 
L 220.397287 119.619015 
L 221.68953 119.619015 
L 221.68953 119.179493 
L 222.194834 119.179493 
L 222.194834 118.300449 
L 222.637689 118.300449 
L 222.637689 117.860927 
L 223.451016 117.860927 
L 223.451016 117.421405 
L 223.707544 117.421405 
L 223.734261 116.102839 
L 223.863034 116.102839 
L 223.879852 115.223795 
L 223.999629 115.223795 
L 223.999629 114.784273 
L 225.391663 114.784273 
L 225.391663 114.344751 
L 225.701034 114.344751 
L 225.701034 113.905229 
L 226.340316 113.905229 
L 226.340316 113.465707 
L 226.801654 113.465707 
L 226.801654 113.026185 
L 227.011154 113.026185 
L 227.011154 112.586663 
L 227.62903 112.586663 
L 227.62903 112.147141 
L 228.733847 112.147141 
L 228.733847 111.707619 
L 229.061927 111.707619 
L 229.061927 110.828575 
L 230.03019 110.828575 
L 230.03019 110.389053 
L 232.968807 110.389053 
L 232.968807 109.949531 
L 233.946563 109.949531 
L 233.946563 109.070487 
L 235.571493 109.070487 
L 235.571493 108.630965 
L 236.0993 108.630965 
L 236.0993 108.191443 
L 236.955289 108.191443 
L 236.955289 107.751921 
L 237.272848 107.751921 
L 237.272848 107.312399 
L 237.789212 107.312399 
L 237.789212 106.872877 
L 237.903166 106.872877 
L 237.903166 106.433355 
L 238.036547 106.433355 
L 238.036547 105.993833 
L 238.765159 105.993833 
L 238.765159 105.554311 
L 238.96306 105.554311 
L 238.96306 104.675267 
L 338.688 104.675267 
L 338.688 104.675267 
" style="fill:none;stroke:#000080;stroke-linecap:square;stroke-width:1.5;"/>
   </g>
   <g id="line2d_44">
    <defs>
     <path d="M 0 6 
C 1.591219 6 3.117479 5.367802 4.242641 4.242641 
C 5.367802 3.117479 6 1.591219 6 0 
C 6 -1.591219 5.367802 -3.117479 4.242641 -4.242641 
C 3.117479 -5.367802 1.591219 -6 0 -6 
C -1.591219 -6 -3.117479 -5.367802 -4.242641 -4.242641 
C -5.367802 -3.117479 -6 -1.591219 -6 0 
C -6 1.591219 -5.367802 3.117479 -4.242641 4.242641 
C -3.117479 5.367802 -1.591219 6 0 6 
z
" id="m918a45793a" style="stroke:#000080;stroke-width:1.5;"/>
    </defs>
    <g>
     <use style="fill-opacity:0;stroke:#000080;stroke-width:1.5;" x="69.687988" xlink:href="#m918a45793a" y="281.802641"/>
     <use style="fill-opacity:0;stroke:#000080;stroke-width:1.5;" x="139.990725" xlink:href="#m918a45793a" y="213.237206"/>
     <use style="fill-opacity:0;stroke:#000080;stroke-width:1.5;" x="193.653034" xlink:href="#m918a45793a" y="149.506513"/>
     <use style="fill-opacity:0;stroke:#000080;stroke-width:1.5;" x="238.96306" xlink:href="#m918a45793a" y="105.554311"/>
     <use style="fill-opacity:0;stroke:#000080;stroke-width:1.5;" x="238.96306" xlink:href="#m918a45793a" y="104.675267"/>
     <use style="fill-opacity:0;stroke:#000080;stroke-width:1.5;" x="338.688" xlink:href="#m918a45793a" y="104.675267"/>
    </g>
   </g>
   <g id="line2d_45">
    <path style="fill:none;stroke:#000080;stroke-linecap:square;stroke-width:1.5;"/>
    <g/>
   </g>
   <g id="line2d_46">
    <path clip-path="url(#p9a7e30fded)" d="M 239.218483 104.675267 
" style="fill:none;stroke:#000080;stroke-linecap:square;stroke-width:1.5;"/>
    <defs>
     <path d="M -12 12 
L 12 -12 
M -12 -12 
L 12 12 
" id="mb1a249b312" style="stroke:#000080;"/>
    </defs>
    <g clip-path="url(#p9a7e30fded)">
     <use style="fill:#000080;stroke:#000080;" x="239.218483" xlink:href="#mb1a249b312" y="104.675267"/>
    </g>
   </g>
   <g id="line2d_47">
    <defs>
     <path d="M 0 1.5 
C 0.397805 1.5 0.77937 1.341951 1.06066 1.06066 
C 1.341951 0.77937 1.5 0.397805 1.5 0 
C 1.5 -0.397805 1.341951 -0.77937 1.06066 -1.06066 
C 0.77937 -1.341951 0.397805 -1.5 0 -1.5 
C -0.397805 -1.5 -0.77937 -1.341951 -1.06066 -1.06066 
C -1.341951 -0.77937 -1.5 -0.397805 -1.5 0 
C -1.5 0.397805 -1.341951 0.77937 -1.06066 1.06066 
C -0.77937 1.341951 -0.397805 1.5 0 1.5 
z
" id="m810f9e2572" style="stroke:#ff00ff;"/>
    </defs>
    <g>
     <use style="fill:#ff00ff;stroke:#ff00ff;" x="258.162192" xlink:href="#m810f9e2572" y="134.123242"/>
     <use style="fill:#ff00ff;stroke:#ff00ff;" x="258.162192" xlink:href="#m810f9e2572" y="134.123242"/>
    </g>
   </g>
   <g id="line2d_48">
    <path d="M 38.440992 298.944 
L 38.440992 287.076905 
L 137.735587 287.076905 
L 137.735587 286.637383 
L 138.084384 286.637383 
L 138.084384 285.758339 
L 139.520072 285.758339 
L 139.520072 285.318817 
L 140.698504 285.318817 
L 140.698504 284.439773 
L 143.144465 284.439773 
L 143.144465 284.000251 
L 143.569835 284.000251 
L 143.653678 282.681685 
L 143.820164 282.681685 
L 143.820164 282.242163 
L 144.708467 282.242163 
L 144.708467 281.802641 
L 144.904196 281.802641 
L 144.904196 281.363119 
L 145.628555 281.363119 
L 145.628555 280.923597 
L 147.027314 280.923597 
L 147.130404 278.725987 
L 147.198794 278.725987 
L 147.198794 278.286465 
L 147.368603 278.286465 
L 147.368603 277.846943 
L 147.50327 277.846943 
L 147.536775 276.528377 
L 147.70334 276.528377 
L 147.736463 274.770289 
L 148.193699 274.770289 
L 148.290138 273.891245 
L 148.354135 273.891245 
L 148.354135 273.451723 
L 148.826773 273.451723 
L 148.826773 273.012201 
L 148.950676 273.012201 
L 148.950676 271.693635 
L 149.073705 271.693635 
L 149.073705 270.814591 
L 150.114722 270.814591 
L 150.201126 267.737936 
L 150.401087 267.737936 
L 150.401087 267.298414 
L 150.570677 267.298414 
L 150.570677 266.858892 
L 150.766468 266.858892 
L 150.822008 265.979848 
L 150.987572 265.979848 
L 151.069768 263.782238 
L 151.501723 263.782238 
L 151.501723 263.342716 
L 151.713753 263.342716 
L 151.792604 262.463672 
L 151.949246 262.463672 
L 152.027042 261.584628 
L 152.155936 261.584628 
L 152.181601 260.266062 
L 152.360205 260.266062 
L 152.360205 259.387018 
L 152.736878 259.387018 
L 152.761703 256.749886 
L 152.860649 256.749886 
L 152.909913 254.991798 
L 153.056874 254.991798 
L 153.154164 253.23371 
L 153.178403 253.23371 
L 153.178403 252.794188 
L 153.347132 252.794188 
L 153.418948 250.596578 
L 153.49047 250.596578 
L 153.585377 249.278012 
L 153.609024 249.278012 
L 153.609024 248.398968 
L 153.773658 248.398968 
L 153.773658 247.959446 
L 153.936752 247.959446 
L 154.006185 245.761835 
L 154.796449 245.761835 
L 154.796449 245.322313 
L 155.081089 245.322313 
L 155.081089 244.882791 
L 155.210911 244.882791 
L 155.275461 243.564225 
L 155.46769 243.564225 
L 155.531298 241.806137 
L 155.678822 241.806137 
L 155.720743 240.487571 
L 155.804285 240.487571 
L 155.804285 240.048049 
L 156.031982 240.048049 
L 156.031982 239.608527 
L 156.154939 239.608527 
L 156.236431 237.850439 
L 156.297301 237.850439 
L 156.398281 236.092351 
L 156.478647 236.092351 
L 156.478647 235.652829 
L 156.618401 235.652829 
L 156.618401 235.213307 
L 157.224197 235.213307 
L 157.224197 234.334263 
L 157.339055 234.334263 
L 157.339055 233.455219 
L 157.547684 233.455219 
L 157.622935 231.697131 
L 157.660438 231.697131 
L 157.660438 230.818087 
L 157.846757 230.818087 
L 157.902267 229.059999 
L 158.122556 229.059999 
L 158.122556 228.180955 
L 158.358103 228.180955 
L 158.429943 227.301911 
L 158.83738 227.301911 
L 158.889829 226.422867 
L 159.063529 226.422867 
L 159.063529 225.543822 
L 159.405822 225.543822 
L 159.439685 222.90669 
L 159.591258 222.90669 
L 159.608019 221.588124 
L 159.824452 221.588124 
L 159.84099 220.269558 
L 160.152267 220.269558 
L 160.152267 219.390514 
L 160.378126 219.390514 
L 160.378126 218.51147 
L 160.616915 218.51147 
L 160.680044 217.632426 
L 160.930298 217.632426 
L 160.930298 216.753382 
L 161.131018 216.753382 
L 161.131018 215.874338 
L 161.314269 215.874338 
L 161.314269 215.434816 
L 161.970183 215.434816 
L 161.970183 214.555772 
L 162.20271 214.555772 
L 162.245966 211.91864 
L 162.403659 211.91864 
L 162.403659 211.039596 
L 162.79874 211.039596 
L 162.79874 210.160552 
L 163.116707 210.160552 
L 163.116707 209.72103 
L 163.50953 209.72103 
L 163.536298 207.962942 
L 163.959089 207.962942 
L 163.985177 206.644376 
L 164.637547 206.644376 
L 164.637547 205.765332 
L 164.9363 205.765332 
L 164.973287 204.446765 
L 165.059286 204.446765 
L 165.059286 204.007243 
L 165.266391 204.007243 
L 165.338904 203.128199 
L 165.483031 203.128199 
L 165.483031 202.688677 
L 165.685193 202.688677 
L 165.685193 202.249155 
L 166.001534 202.249155 
L 166.001534 201.809633 
L 166.673454 201.809633 
L 166.718084 200.930589 
L 166.851294 200.930589 
L 166.928532 200.051545 
L 167.136471 200.051545 
L 167.136471 199.612023 
L 167.320442 199.612023 
L 167.320442 199.172501 
L 168.058166 199.172501 
L 168.058166 198.732979 
L 168.171308 198.732979 
L 168.253135 197.414413 
L 169.302579 197.414413 
L 169.302579 196.974891 
L 170.337772 196.974891 
L 170.337772 196.535369 
L 170.571619 196.535369 
L 170.571619 196.095847 
L 172.272701 196.095847 
L 172.272701 195.656325 
L 172.482136 195.656325 
L 172.522125 194.337759 
L 172.932666 194.337759 
L 172.932666 193.898237 
L 174.145733 193.898237 
L 174.145733 193.019193 
L 174.963293 193.019193 
L 174.984116 192.140149 
L 175.279879 192.140149 
L 175.279879 191.261105 
L 175.93577 191.261105 
L 175.994786 188.623973 
L 176.466234 188.623973 
L 176.466234 188.184451 
L 177.092038 188.184451 
L 177.092038 187.744929 
L 177.390674 187.744929 
L 177.390674 187.305407 
L 178.485561 187.305407 
L 178.508246 186.426363 
L 178.6156 186.426363 
L 178.6156 185.547319 
L 179.175434 185.547319 
L 179.175434 185.107797 
L 179.701984 185.107797 
L 179.701984 184.668274 
L 180.300258 184.668274 
L 180.341123 183.78923 
L 180.664644 183.78923 
L 180.664644 182.910186 
L 181.553151 182.910186 
L 181.600682 181.59162 
L 182.673003 181.59162 
L 182.673003 181.152098 
L 182.815256 181.152098 
L 182.815256 180.273054 
L 183.884222 180.273054 
L 183.884222 179.833532 
L 184.922846 179.833532 
L 184.922846 179.39401 
L 185.051838 179.39401 
L 185.051838 178.954488 
L 185.906783 178.954488 
L 185.906783 178.514966 
L 187.682159 178.514966 
L 187.682159 178.075444 
L 188.115475 178.075444 
L 188.115475 177.635922 
L 188.763231 177.635922 
L 188.763231 177.1964 
L 189.95256 177.1964 
L 189.95256 176.756878 
L 190.264375 176.756878 
L 190.264375 176.317356 
L 192.259921 176.317356 
L 192.259921 175.877834 
L 193.560037 175.877834 
L 193.560037 175.438312 
L 194.586037 175.438312 
L 194.586037 174.559268 
L 196.414203 174.559268 
L 196.509351 173.680224 
L 197.046109 173.680224 
L 197.046109 173.240702 
L 197.437149 173.240702 
L 197.437149 172.80118 
L 197.708768 172.80118 
L 197.708768 171.922136 
L 197.894363 171.922136 
L 197.894363 171.482614 
L 199.229324 171.482614 
L 199.229324 171.043092 
L 200.841773 171.043092 
L 200.841773 170.164048 
L 202.208805 170.164048 
L 202.208805 169.724526 
L 202.77608 169.724526 
L 202.77608 169.285004 
L 203.67701 169.285004 
L 203.67701 168.845482 
L 204.09754 168.845482 
L 204.09754 167.966438 
L 204.344045 167.966438 
L 204.383936 166.647872 
L 204.651787 166.647872 
L 204.651787 165.768828 
L 206.554136 165.768828 
L 206.554136 165.329306 
L 207.863379 165.329306 
L 207.863379 164.450262 
L 210.279107 164.450262 
L 210.304755 163.131695 
L 211.161155 163.131695 
L 211.161155 162.692173 
L 211.748945 162.692173 
L 211.836352 160.934085 
L 212.304516 160.934085 
L 212.304516 160.494563 
L 213.102134 160.494563 
L 213.102134 160.055041 
L 213.869339 160.055041 
L 213.869339 159.615519 
L 216.24553 159.615519 
L 216.24553 159.175997 
L 216.605726 159.175997 
L 216.605726 158.736475 
L 217.486176 158.736475 
L 217.486176 158.296953 
L 218.201939 158.296953 
L 218.256558 156.538865 
L 218.771592 156.538865 
L 218.771592 156.099343 
L 219.123439 156.099343 
L 219.123439 155.659821 
L 221.702391 155.659821 
L 221.702391 155.220299 
L 224.928942 155.220299 
L 225.038997 154.341255 
L 225.69384 154.341255 
L 225.69384 153.462211 
L 226.008732 153.462211 
L 226.008732 153.022689 
L 226.421872 153.022689 
L 226.421872 152.583167 
L 230.168748 152.583167 
L 230.168748 152.143645 
L 230.462209 152.143645 
L 230.462209 151.704123 
L 231.35847 151.704123 
L 231.35847 151.264601 
L 232.371762 151.264601 
L 232.371762 150.825079 
L 233.489017 150.825079 
L 233.489017 150.385557 
L 233.932873 150.385557 
L 233.932873 149.506513 
L 235.402151 149.506513 
L 235.402151 148.627469 
L 235.858233 148.627469 
L 235.858233 148.187947 
L 237.282399 148.187947 
L 237.282399 147.748425 
L 237.547533 147.748425 
L 237.547533 147.308903 
L 239.895574 147.308903 
L 239.895574 146.429859 
L 240.17943 146.429859 
L 240.17943 145.990337 
L 240.412552 145.990337 
L 240.412552 145.550815 
L 241.084227 145.550815 
L 241.084227 145.111293 
L 241.428514 145.111293 
L 241.428514 144.232249 
L 242.536506 144.232249 
L 242.536506 143.792727 
L 244.950162 143.792727 
L 244.950162 142.913682 
L 245.125535 142.913682 
L 245.125535 142.034638 
L 247.233333 142.034638 
L 247.233333 141.595116 
L 247.886279 141.595116 
L 247.886279 140.716072 
L 248.388 140.716072 
L 248.388 140.27655 
L 248.629584 140.27655 
L 248.629584 139.837028 
L 249.062626 139.837028 
L 249.062626 139.397506 
L 249.709735 139.397506 
L 249.709735 138.957984 
L 250.148686 138.957984 
L 250.148686 138.07894 
L 252.467206 138.07894 
L 252.467206 137.639418 
L 253.192653 137.639418 
L 253.192653 137.199896 
L 253.432494 137.199896 
L 253.432494 136.760374 
L 255.180417 136.760374 
L 255.180417 136.320852 
L 255.507879 136.320852 
L 255.507879 135.88133 
L 256.155152 135.88133 
L 256.155152 135.002286 
L 256.994659 135.002286 
L 256.994659 134.562764 
L 258.162192 134.562764 
L 258.162192 134.123242 
L 338.688 134.123242 
L 338.688 134.123242 
" style="fill:none;stroke:#ff00ff;stroke-linecap:square;stroke-width:1.5;"/>
   </g>
   <g id="line2d_49">
    <defs>
     <path d="M 0 8.485281 
L 5.091169 0 
L 0 -8.485281 
L -5.091169 0 
z
" id="mb532a4ac1d" style="stroke:#ff00ff;stroke-linejoin:miter;stroke-width:1.5;"/>
    </defs>
    <g>
     <use style="fill-opacity:0;stroke:#ff00ff;stroke-linejoin:miter;stroke-width:1.5;" x="150.570677" xlink:href="#mb532a4ac1d" y="266.858892"/>
     <use style="fill-opacity:0;stroke:#ff00ff;stroke-linejoin:miter;stroke-width:1.5;" x="187.682159" xlink:href="#mb532a4ac1d" y="178.514966"/>
     <use style="fill-opacity:0;stroke:#ff00ff;stroke-linejoin:miter;stroke-width:1.5;" x="258.162192" xlink:href="#mb532a4ac1d" y="134.562764"/>
     <use style="fill-opacity:0;stroke:#ff00ff;stroke-linejoin:miter;stroke-width:1.5;" x="258.162192" xlink:href="#mb532a4ac1d" y="134.123242"/>
     <use style="fill-opacity:0;stroke:#ff00ff;stroke-linejoin:miter;stroke-width:1.5;" x="258.162192" xlink:href="#mb532a4ac1d" y="134.123242"/>
     <use style="fill-opacity:0;stroke:#ff00ff;stroke-linejoin:miter;stroke-width:1.5;" x="338.688" xlink:href="#mb532a4ac1d" y="134.123242"/>
    </g>
   </g>
   <g id="line2d_50">
    <path style="fill:none;stroke:#ff00ff;stroke-linecap:square;stroke-width:1.5;"/>
    <g/>
   </g>
   <g id="line2d_51">
    <path clip-path="url(#p9a7e30fded)" d="M 258.384117 134.123242 
" style="fill:none;stroke:#ff00ff;stroke-linecap:square;stroke-width:1.5;"/>
    <defs>
     <path d="M -12 12 
L 12 -12 
M -12 -12 
L 12 12 
" id="m5550b7d88f" style="stroke:#ff00ff;"/>
    </defs>
    <g clip-path="url(#p9a7e30fded)">
     <use style="fill:#ff00ff;stroke:#ff00ff;" x="258.384117" xlink:href="#m5550b7d88f" y="134.123242"/>
    </g>
   </g>
   <g id="line2d_52">
    <defs>
     <path d="M 0 1.5 
C 0.397805 1.5 0.77937 1.341951 1.06066 1.06066 
C 1.341951 0.77937 1.5 0.397805 1.5 0 
C 1.5 -0.397805 1.341951 -0.77937 1.06066 -1.06066 
C 0.77937 -1.341951 0.397805 -1.5 0 -1.5 
C -0.397805 -1.5 -0.77937 -1.341951 -1.06066 -1.06066 
C -1.341951 -0.77937 -1.5 -0.397805 -1.5 0 
C -1.5 0.397805 -1.341951 0.77937 -1.06066 1.06066 
C -0.77937 1.341951 -0.397805 1.5 0 1.5 
z
" id="mdd9d1a0e85" style="stroke:#ffa500;"/>
    </defs>
    <g>
     <use style="fill:#ffa500;stroke:#ffa500;" x="259.858621" xlink:href="#mdd9d1a0e85" y="74.787769"/>
     <use style="fill:#ffa500;stroke:#ffa500;" x="259.858621" xlink:href="#mdd9d1a0e85" y="74.787769"/>
    </g>
   </g>
   <g id="line2d_53">
    <path d="M 38.440992 298.944 
L 38.440992 294.988302 
L 50.52898 294.988302 
L 50.52898 291.472126 
L 57.6 291.472126 
L 57.6 287.955949 
L 62.616969 287.955949 
L 62.616969 286.197861 
L 69.687988 286.197861 
L 69.687988 285.758339 
L 72.376266 285.758339 
L 72.376266 284.879295 
L 80.258561 284.879295 
L 80.258561 284.439773 
L 81.775977 284.439773 
L 81.775977 283.121207 
L 83.171864 283.121207 
L 83.171864 282.242163 
L 84.464254 282.242163 
L 84.464254 281.802641 
L 85.66744 281.802641 
L 85.66744 280.484075 
L 87.850195 280.484075 
L 87.850195 279.165509 
L 88.846997 279.165509 
L 88.846997 278.725987 
L 89.78989 278.725987 
L 89.78989 278.286465 
L 90.684409 278.286465 
L 90.684409 276.967899 
L 92.34655 276.967899 
L 92.34655 276.528377 
L 95.259853 276.528377 
L 95.259853 275.649333 
L 95.918017 275.649333 
L 95.918017 275.209811 
L 98.32726 275.209811 
L 98.32726 273.012201 
L 100.443706 273.012201 
L 100.443706 272.572679 
L 102.330873 272.572679 
L 102.330873 271.693635 
L 102.772397 271.693635 
L 102.772397 270.814591 
L 104.033617 270.814591 
L 104.033617 270.375069 
L 105.584798 270.375069 
L 105.584798 269.056503 
L 107.009204 269.056503 
L 107.009204 268.616981 
L 109.550313 268.616981 
L 109.550313 268.177459 
L 110.694282 268.177459 
L 110.694282 267.737936 
L 112.779064 267.737936 
L 112.779064 267.298414 
L 113.73488 267.298414 
L 113.73488 266.858892 
L 114.860386 266.858892 
L 114.860386 265.979848 
L 115.291007 265.979848 
L 115.291007 265.100804 
L 115.711251 265.100804 
L 115.711251 264.661282 
L 116.914437 264.661282 
L 116.914437 264.22176 
L 118.039942 264.22176 
L 118.039942 263.782238 
L 119.931767 263.782238 
L 119.931767 263.342716 
L 121.489881 263.342716 
L 121.489881 262.903194 
L 121.785469 262.903194 
L 121.785469 262.463672 
L 122.503236 262.463672 
L 122.503236 262.02415 
L 123.593547 262.02415 
L 123.593547 261.145106 
L 124.867052 261.145106 
L 124.867052 260.266062 
L 125.706218 260.266062 
L 125.706218 259.82654 
L 125.822869 259.82654 
L 125.822869 258.947496 
L 129.290685 258.947496 
L 129.290685 258.068452 
L 129.667765 258.068452 
L 129.667765 257.189408 
L 131.270459 257.189408 
L 131.270459 256.310364 
L 131.523818 256.310364 
L 131.523818 255.870842 
L 134.520763 255.870842 
L 134.520763 255.43132 
L 134.661403 255.43132 
L 134.661403 254.112754 
L 134.870259 254.112754 
L 134.870259 253.23371 
L 136.073445 253.23371 
L 136.073445 252.354666 
L 136.645276 252.354666 
L 136.645276 251.915144 
L 137.077422 251.915144 
L 137.077422 251.475622 
L 138.256201 251.475622 
L 138.256201 250.596578 
L 138.538853 250.596578 
L 138.538853 250.157056 
L 138.706272 250.157056 
L 138.706272 249.717534 
L 138.872098 249.717534 
L 138.872098 249.278012 
L 140.195896 249.278012 
L 140.195896 248.83849 
L 141.090414 248.83849 
L 141.138789 247.959446 
L 141.941279 247.959446 
L 141.941279 247.519924 
L 142.752555 247.519924 
L 142.752555 247.080402 
L 143.014805 247.080402 
L 143.014805 246.640879 
L 143.40093 246.640879 
L 143.40093 245.761835 
L 146.216039 245.761835 
L 146.324022 244.882791 
L 147.232888 244.882791 
L 147.232888 244.003747 
L 148.225905 244.003747 
L 148.225905 243.564225 
L 148.888835 243.564225 
L 148.888835 242.685181 
L 149.497598 242.685181 
L 149.497598 242.245659 
L 151.015013 242.245659 
L 151.015013 241.806137 
L 151.314058 241.806137 
L 151.314058 241.366615 
L 152.637225 241.366615 
L 152.637225 240.487571 
L 152.934492 240.487571 
L 152.934492 239.608527 
L 155.382516 239.608527 
L 155.46769 237.850439 
L 156.031982 237.850439 
L 156.031982 236.092351 
L 157.28172 236.092351 
L 157.28172 235.213307 
L 157.735205 235.213307 
L 157.735205 234.334263 
L 159.132527 234.334263 
L 159.132527 233.455219 
L 159.741526 233.455219 
L 159.741526 233.015697 
L 160.281688 233.015697 
L 160.281688 232.576175 
L 162.217141 232.576175 
L 162.260361 230.818087 
L 162.375093 230.818087 
L 162.375093 229.939043 
L 164.346358 229.939043 
L 164.346358 229.499521 
L 165.387079 229.499521 
L 165.399101 227.741433 
L 166.140309 227.741433 
L 166.186323 226.422867 
L 167.996141 226.422867 
L 167.996141 225.543822 
L 168.109685 225.543822 
L 168.109685 225.1043 
L 168.616676 225.1043 
L 168.656606 223.785734 
L 169.206229 223.785734 
L 169.206229 223.346212 
L 171.962007 223.346212 
L 172.011434 222.027646 
L 173.310873 222.027646 
L 173.310873 221.588124 
L 175.074063 221.588124 
L 175.074063 220.70908 
L 175.218389 220.70908 
L 175.218389 219.830036 
L 175.537141 219.830036 
L 175.537141 218.950992 
L 176.956275 218.950992 
L 176.956275 218.071948 
L 177.38463 218.071948 
L 177.38463 217.192904 
L 177.553068 217.192904 
L 177.553068 216.31386 
L 178.474207 216.31386 
L 178.474207 215.434816 
L 179.654285 215.434816 
L 179.654285 214.555772 
L 180.094482 214.555772 
L 180.094482 213.676728 
L 180.305371 213.676728 
L 180.305371 212.797684 
L 181.270047 212.797684 
L 181.270047 212.358162 
L 182.695307 212.358162 
L 182.695307 211.91864 
L 183.256781 211.91864 
L 183.256781 211.039596 
L 183.855049 211.039596 
L 183.855049 210.600074 
L 184.016967 210.600074 
L 184.016967 209.72103 
L 184.938532 209.72103 
L 184.938532 208.841986 
L 185.125676 208.841986 
L 185.125676 208.402464 
L 186.069181 208.402464 
L 186.069181 207.52342 
L 187.03391 207.52342 
L 187.03391 206.644376 
L 187.148244 206.644376 
L 187.148244 206.204854 
L 187.278979 206.204854 
L 187.278979 205.325809 
L 187.425744 205.325809 
L 187.425744 204.446765 
L 187.828904 204.446765 
L 187.828904 204.007243 
L 188.010617 204.007243 
L 188.010617 203.567721 
L 188.888693 203.567721 
L 188.888693 203.128199 
L 189.028769 203.128199 
L 189.028769 202.688677 
L 189.490743 202.688677 
L 189.490743 202.249155 
L 190.322044 202.249155 
L 190.322044 201.809633 
L 190.633035 201.809633 
L 190.633035 201.370111 
L 190.821479 201.370111 
L 190.821479 200.930589 
L 191.374891 200.930589 
L 191.412791 200.051545 
L 192.792653 200.051545 
L 192.792653 199.612023 
L 192.949351 199.612023 
L 192.949351 199.172501 
L 193.350778 199.172501 
L 193.350778 198.732979 
L 193.978175 198.732979 
L 193.978175 198.293457 
L 194.251465 198.293457 
L 194.251465 197.853935 
L 195.488781 197.853935 
L 195.488781 197.414413 
L 196.024184 197.414413 
L 196.024184 196.974891 
L 198.074314 196.974891 
L 198.074314 196.535369 
L 199.756745 196.535369 
L 199.756745 196.095847 
L 199.946757 196.095847 
L 200.05253 195.216803 
L 200.268682 195.216803 
L 200.268682 194.337759 
L 200.666089 194.337759 
L 200.694698 192.579671 
L 200.832321 192.579671 
L 200.893664 191.700627 
L 201.968361 191.700627 
L 201.968361 190.821583 
L 203.468299 190.821583 
L 203.534549 189.063495 
L 203.864724 189.063495 
L 203.864724 188.184451 
L 203.986124 188.184451 
L 204.046508 185.547319 
L 204.271753 185.547319 
L 204.307936 184.228752 
L 204.93054 184.228752 
L 204.93054 183.78923 
L 206.299193 183.78923 
L 206.299193 183.349708 
L 206.62436 183.349708 
L 206.62436 182.910186 
L 206.807643 182.910186 
L 206.807643 182.470664 
L 207.2516 182.470664 
L 207.324506 181.59162 
L 207.575699 181.59162 
L 207.575699 181.152098 
L 207.733396 181.152098 
L 207.733396 180.712576 
L 207.926436 180.712576 
L 207.926436 180.273054 
L 208.401419 180.273054 
L 208.401419 179.833532 
L 208.869771 179.833532 
L 208.869771 179.39401 
L 209.755243 179.39401 
L 209.755243 178.954488 
L 210.147531 178.954488 
L 210.147531 178.514966 
L 210.615912 178.514966 
L 210.615912 178.075444 
L 210.791254 178.075444 
L 210.799263 177.1964 
L 210.925147 177.1964 
L 211.01765 176.317356 
L 211.949163 176.317356 
L 211.949163 175.877834 
L 216.708103 175.877834 
L 216.708103 175.438312 
L 216.901041 175.438312 
L 216.901041 174.99879 
L 217.081942 174.99879 
L 217.081942 174.559268 
L 217.265898 174.559268 
L 217.265898 174.119746 
L 217.784363 174.119746 
L 217.784363 173.680224 
L 217.987626 173.680224 
L 217.987626 173.240702 
L 218.237403 173.240702 
L 218.313898 171.922136 
L 218.35952 171.922136 
L 218.35952 171.482614 
L 218.717434 171.482614 
L 218.823335 167.966438 
L 218.868205 167.966438 
L 218.977095 163.571217 
L 219.006573 163.571217 
L 219.006573 162.692173 
L 219.401089 162.692173 
L 219.491585 160.494563 
L 219.521825 160.494563 
L 219.604719 158.736475 
L 219.633692 158.736475 
L 219.633692 158.296953 
L 220.09919 158.296953 
L 220.185624 156.099343 
L 220.218834 156.099343 
L 220.325816 154.341255 
L 220.34281 154.341255 
L 220.34281 153.901733 
L 221.840397 153.901733 
L 221.924749 152.583167 
L 221.959032 152.583167 
L 222.069408 149.946035 
L 222.102013 149.946035 
L 222.102013 149.506513 
L 222.80744 149.506513 
L 222.80744 148.627469 
L 222.976882 148.627469 
L 223.070897 145.111293 
L 223.098168 145.111293 
L 223.149515 143.353205 
L 223.212941 143.353205 
L 223.225162 140.716072 
L 223.956587 140.716072 
L 223.956587 140.27655 
L 224.093285 140.27655 
L 224.169089 138.957984 
L 224.226448 138.957984 
L 224.308238 138.07894 
L 224.39536 138.07894 
L 224.482455 136.760374 
L 224.506796 136.760374 
L 224.506796 136.320852 
L 225.251607 136.320852 
L 225.251607 135.88133 
L 225.422079 135.88133 
L 225.526398 134.562764 
L 225.53328 134.562764 
L 225.53328 134.123242 
L 225.662377 134.123242 
L 225.698763 132.804676 
L 225.89866 132.804676 
L 225.990497 131.925632 
L 228.370589 131.925632 
L 228.370589 131.48611 
L 228.596506 131.48611 
L 228.62278 130.167544 
L 228.710607 130.167544 
L 228.770077 129.2885 
L 228.882736 129.2885 
L 228.949481 127.969934 
L 229.180477 127.969934 
L 229.180477 127.530412 
L 230.219074 127.530412 
L 230.219074 126.651368 
L 230.453563 126.651368 
L 230.519164 123.135192 
L 230.662169 123.135192 
L 230.766676 121.377103 
L 230.822083 121.377103 
L 230.842674 119.619015 
L 230.985577 119.619015 
L 230.985577 118.739971 
L 234.801776 118.739971 
L 234.899003 116.102839 
L 234.980355 116.102839 
L 235.06642 113.465707 
L 235.229394 113.465707 
L 235.267714 110.828575 
L 235.380867 110.828575 
L 235.380867 109.949531 
L 237.360947 109.949531 
L 237.376265 109.070487 
L 237.487164 109.070487 
L 237.532557 108.191443 
L 237.609989 108.191443 
L 237.624326 107.312399 
L 237.730625 107.312399 
L 237.79962 105.993833 
L 238.057436 105.993833 
L 238.057436 105.554311 
L 240.16936 105.554311 
L 240.232492 103.796223 
L 240.344512 103.796223 
L 240.373261 102.477657 
L 240.478381 102.477657 
L 240.509341 101.598612 
L 240.939468 101.598612 
L 240.939468 101.15909 
L 243.089356 101.15909 
L 243.196993 98.96148 
L 243.219883 98.96148 
L 243.27207 98.082436 
L 243.335536 98.082436 
L 243.397948 97.203392 
L 243.807524 97.203392 
L 243.807524 96.76387 
L 249.289134 96.76387 
L 249.394923 93.247694 
L 249.458729 93.247694 
L 249.537268 89.731518 
L 249.574479 89.731518 
L 249.574479 88.852474 
L 249.94521 88.852474 
L 249.94521 87.97343 
L 255.867543 87.97343 
L 255.949314 85.336298 
L 256.006547 85.336298 
L 256.097346 82.699166 
L 256.140289 82.699166 
L 256.181412 80.062033 
L 256.453485 80.062033 
L 256.453485 79.182989 
L 259.246711 79.182989 
L 259.331065 77.864423 
L 259.409426 77.864423 
L 259.469537 76.545857 
L 259.556952 76.545857 
L 259.570909 75.227291 
L 259.858621 75.227291 
L 259.858621 74.787769 
L 338.688 74.787769 
L 338.688 74.787769 
" style="fill:none;stroke:#ffa500;stroke-linecap:square;stroke-width:1.5;"/>
   </g>
   <g id="line2d_54">
    <defs>
     <path d="M 0 -6 
L -1.347084 -1.854102 
L -5.706339 -1.854102 
L -2.179628 0.708204 
L -3.526712 4.854102 
L -0 2.291796 
L 3.526712 4.854102 
L 2.179628 0.708204 
L 5.706339 -1.854102 
L 1.347084 -1.854102 
z
" id="m2f5133f76b" style="stroke:#ffa500;stroke-linejoin:bevel;stroke-width:1.5;"/>
    </defs>
    <g>
     <use style="fill-opacity:0;stroke:#ffa500;stroke-linejoin:bevel;stroke-width:1.5;" x="123.593547" xlink:href="#m2f5133f76b" y="262.02415"/>
     <use style="fill-opacity:0;stroke:#ffa500;stroke-linejoin:bevel;stroke-width:1.5;" x="185.125676" xlink:href="#m2f5133f76b" y="208.402464"/>
     <use style="fill-opacity:0;stroke:#ffa500;stroke-linejoin:bevel;stroke-width:1.5;" x="243.807524" xlink:href="#m2f5133f76b" y="97.203392"/>
     <use style="fill-opacity:0;stroke:#ffa500;stroke-linejoin:bevel;stroke-width:1.5;" x="259.858621" xlink:href="#m2f5133f76b" y="74.787769"/>
     <use style="fill-opacity:0;stroke:#ffa500;stroke-linejoin:bevel;stroke-width:1.5;" x="259.858621" xlink:href="#m2f5133f76b" y="74.787769"/>
     <use style="fill-opacity:0;stroke:#ffa500;stroke-linejoin:bevel;stroke-width:1.5;" x="338.688" xlink:href="#m2f5133f76b" y="74.787769"/>
    </g>
   </g>
   <g id="line2d_55">
    <path style="fill:none;stroke:#ffa500;stroke-linecap:square;stroke-width:1.5;"/>
    <g/>
   </g>
   <g id="line2d_56">
    <path clip-path="url(#p9a7e30fded)" d="M 298.532571 74.787769 
" style="fill:none;stroke:#ffa500;stroke-linecap:square;stroke-width:1.5;"/>
    <defs>
     <path d="M -12 12 
L 12 -12 
M -12 -12 
L 12 12 
" id="maa2ea15edb" style="stroke:#ffa500;"/>
    </defs>
    <g clip-path="url(#p9a7e30fded)">
     <use style="fill:#ffa500;stroke:#ffa500;" x="298.532571" xlink:href="#maa2ea15edb" y="74.787769"/>
    </g>
   </g>
   <g id="line2d_57">
    <path d="M 338.688 134.123242 
L 369.60768 293.845545 
" style="fill:none;stroke:#ff00ff;stroke-linecap:square;stroke-width:1.5;"/>
    <g>
     <use style="fill-opacity:0;stroke:#ff00ff;stroke-linejoin:miter;stroke-width:1.5;" x="338.688" xlink:href="#mb532a4ac1d" y="134.123242"/>
     <use style="fill-opacity:0;stroke:#ff00ff;stroke-linejoin:miter;stroke-width:1.5;" x="369.60768" xlink:href="#mb532a4ac1d" y="293.845545"/>
    </g>
   </g>
   <g id="line2d_58">
    <path d="M 338.688 104.675267 
L 369.60768 212.270257 
" style="fill:none;stroke:#000080;stroke-linecap:square;stroke-width:1.5;"/>
    <g>
     <use style="fill-opacity:0;stroke:#000080;stroke-width:1.5;" x="338.688" xlink:href="#m918a45793a" y="104.675267"/>
     <use style="fill-opacity:0;stroke:#000080;stroke-width:1.5;" x="369.60768" xlink:href="#m918a45793a" y="212.270257"/>
    </g>
   </g>
   <g id="line2d_59">
    <path d="M 338.688 74.787769 
L 369.60768 130.69497 
" style="fill:none;stroke:#ffa500;stroke-linecap:square;stroke-width:1.5;"/>
    <g>
     <use style="fill-opacity:0;stroke:#ffa500;stroke-linejoin:bevel;stroke-width:1.5;" x="338.688" xlink:href="#m2f5133f76b" y="74.787769"/>
     <use style="fill-opacity:0;stroke:#ffa500;stroke-linejoin:bevel;stroke-width:1.5;" x="369.60768" xlink:href="#m2f5133f76b" y="130.69497"/>
    </g>
   </g>
   <g id="line2d_60">
    <path d="M 338.688 298.944 
L 338.688 44.021228 
" style="fill:none;stroke:#000000;stroke-linecap:square;stroke-width:1.5;"/>
   </g>
   <g id="patch_3">
    <path d="M 57.6 298.944 
L 57.6 41.472 
" style="fill:none;stroke:#000000;stroke-linecap:square;stroke-linejoin:miter;stroke-width:0.8;"/>
   </g>
   <g id="patch_4">
    <path d="M 338.688 298.944 
L 338.688 41.472 
" style="fill:none;stroke:#000000;stroke-linecap:square;stroke-linejoin:miter;stroke-width:0.8;"/>
   </g>
   <g id="patch_5">
    <path d="M 57.6 298.944 
L 338.688 298.944 
" style="fill:none;stroke:#000000;stroke-linecap:square;stroke-linejoin:miter;stroke-width:0.8;"/>
   </g>
   <g id="patch_6">
    <path d="M 57.6 41.472 
L 338.688 41.472 
" style="fill:none;stroke:#000000;stroke-linecap:square;stroke-linejoin:miter;stroke-width:0.8;"/>
   </g>
   <g id="text_13">
    <!-- NSGA-II-M -->
    <defs>
     <path d="M 9.8125 72.90625 
L 23.09375 72.90625 
L 55.421875 11.921875 
L 55.421875 72.90625 
L 64.984375 72.90625 
L 64.984375 0 
L 51.703125 0 
L 19.390625 60.984375 
L 19.390625 0 
L 9.8125 0 
z
" id="DejaVuSans-78"/>
     <path d="M 53.515625 70.515625 
L 53.515625 60.890625 
Q 47.90625 63.578125 42.921875 64.890625 
Q 37.9375 66.21875 33.296875 66.21875 
Q 25.25 66.21875 20.875 63.09375 
Q 16.5 59.96875 16.5 54.203125 
Q 16.5 49.359375 19.40625 46.890625 
Q 22.3125 44.4375 30.421875 42.921875 
L 36.375 41.703125 
Q 47.40625 39.59375 52.65625 34.296875 
Q 57.90625 29 57.90625 20.125 
Q 57.90625 9.515625 50.796875 4.046875 
Q 43.703125 -1.421875 29.984375 -1.421875 
Q 24.8125 -1.421875 18.96875 -0.25 
Q 13.140625 0.921875 6.890625 3.21875 
L 6.890625 13.375 
Q 12.890625 10.015625 18.65625 8.296875 
Q 24.421875 6.59375 29.984375 6.59375 
Q 38.421875 6.59375 43.015625 9.90625 
Q 47.609375 13.234375 47.609375 19.390625 
Q 47.609375 24.75 44.3125 27.78125 
Q 41.015625 30.8125 33.5 32.328125 
L 27.484375 33.5 
Q 16.453125 35.6875 11.515625 40.375 
Q 6.59375 45.0625 6.59375 53.421875 
Q 6.59375 63.09375 13.40625 68.65625 
Q 20.21875 74.21875 32.171875 74.21875 
Q 37.3125 74.21875 42.625 73.28125 
Q 47.953125 72.359375 53.515625 70.515625 
z
" id="DejaVuSans-83"/>
     <path d="M 59.515625 10.40625 
L 59.515625 29.984375 
L 43.40625 29.984375 
L 43.40625 38.09375 
L 69.28125 38.09375 
L 69.28125 6.78125 
Q 63.578125 2.734375 56.6875 0.65625 
Q 49.8125 -1.421875 42 -1.421875 
Q 24.90625 -1.421875 15.25 8.5625 
Q 5.609375 18.5625 5.609375 36.375 
Q 5.609375 54.25 15.25 64.234375 
Q 24.90625 74.21875 42 74.21875 
Q 49.125 74.21875 55.546875 72.453125 
Q 61.96875 70.703125 67.390625 67.28125 
L 67.390625 56.78125 
Q 61.921875 61.421875 55.765625 63.765625 
Q 49.609375 66.109375 42.828125 66.109375 
Q 29.4375 66.109375 22.71875 58.640625 
Q 16.015625 51.171875 16.015625 36.375 
Q 16.015625 21.625 22.71875 14.15625 
Q 29.4375 6.6875 42.828125 6.6875 
Q 48.046875 6.6875 52.140625 7.59375 
Q 56.25 8.5 59.515625 10.40625 
z
" id="DejaVuSans-71"/>
     <path d="M 34.1875 63.1875 
L 20.796875 26.90625 
L 47.609375 26.90625 
z
M 28.609375 72.90625 
L 39.796875 72.90625 
L 67.578125 0 
L 57.328125 0 
L 50.6875 18.703125 
L 17.828125 18.703125 
L 11.1875 0 
L 0.78125 0 
z
" id="DejaVuSans-65"/>
     <path d="M 9.8125 72.90625 
L 19.671875 72.90625 
L 19.671875 0 
L 9.8125 0 
z
" id="DejaVuSans-73"/>
     <path d="M 9.8125 72.90625 
L 24.515625 72.90625 
L 43.109375 23.296875 
L 61.8125 72.90625 
L 76.515625 72.90625 
L 76.515625 0 
L 66.890625 0 
L 66.890625 64.015625 
L 48.09375 14.015625 
L 38.1875 14.015625 
L 19.390625 64.015625 
L 19.390625 0 
L 9.8125 0 
z
" id="DejaVuSans-77"/>
    </defs>
    <g transform="translate(375.22944 298.536482)scale(0.17 -0.17)">
     <use xlink:href="#DejaVuSans-78"/>
     <use x="74.804688" xlink:href="#DejaVuSans-83"/>
     <use x="138.28125" xlink:href="#DejaVuSans-71"/>
     <use x="215.771484" xlink:href="#DejaVuSans-65"/>
     <use x="284.148438" xlink:href="#DejaVuSans-45"/>
     <use x="320.232422" xlink:href="#DejaVuSans-73"/>
     <use x="349.724609" xlink:href="#DejaVuSans-73"/>
     <use x="379.216797" xlink:href="#DejaVuSans-45"/>
     <use x="415.300781" xlink:href="#DejaVuSans-77"/>
    </g>
   </g>
   <g id="text_14">
    <!-- DMS on bb -->
    <defs>
     <path d="M 19.671875 64.796875 
L 19.671875 8.109375 
L 31.59375 8.109375 
Q 46.6875 8.109375 53.6875 14.9375 
Q 60.6875 21.78125 60.6875 36.53125 
Q 60.6875 51.171875 53.6875 57.984375 
Q 46.6875 64.796875 31.59375 64.796875 
z
M 9.8125 72.90625 
L 30.078125 72.90625 
Q 51.265625 72.90625 61.171875 64.09375 
Q 71.09375 55.28125 71.09375 36.53125 
Q 71.09375 17.671875 61.125 8.828125 
Q 51.171875 0 30.078125 0 
L 9.8125 0 
z
" id="DejaVuSans-68"/>
     <path d="M 48.6875 27.296875 
Q 48.6875 37.203125 44.609375 42.84375 
Q 40.53125 48.484375 33.40625 48.484375 
Q 26.265625 48.484375 22.1875 42.84375 
Q 18.109375 37.203125 18.109375 27.296875 
Q 18.109375 17.390625 22.1875 11.75 
Q 26.265625 6.109375 33.40625 6.109375 
Q 40.53125 6.109375 44.609375 11.75 
Q 48.6875 17.390625 48.6875 27.296875 
z
M 18.109375 46.390625 
Q 20.953125 51.265625 25.265625 53.625 
Q 29.59375 56 35.59375 56 
Q 45.5625 56 51.78125 48.09375 
Q 58.015625 40.1875 58.015625 27.296875 
Q 58.015625 14.40625 51.78125 6.484375 
Q 45.5625 -1.421875 35.59375 -1.421875 
Q 29.59375 -1.421875 25.265625 0.953125 
Q 20.953125 3.328125 18.109375 8.203125 
L 18.109375 0 
L 9.078125 0 
L 9.078125 75.984375 
L 18.109375 75.984375 
z
" id="DejaVuSans-98"/>
    </defs>
    <g transform="translate(375.22944 216.961195)scale(0.17 -0.17)">
     <use xlink:href="#DejaVuSans-68"/>
     <use x="77.001953" xlink:href="#DejaVuSans-77"/>
     <use x="163.28125" xlink:href="#DejaVuSans-83"/>
     <use x="226.757812" xlink:href="#DejaVuSans-32"/>
     <use x="258.544922" xlink:href="#DejaVuSans-111"/>
     <use x="319.726562" xlink:href="#DejaVuSans-110"/>
     <use x="383.105469" xlink:href="#DejaVuSans-32"/>
     <use x="414.892578" xlink:href="#DejaVuSans-98"/>
     <use x="478.369141" xlink:href="#DejaVuSans-98"/>
    </g>
   </g>
   <g id="text_15">
    <!-- UP-MO-CMA -->
    <defs>
     <path d="M 8.6875 72.90625 
L 18.609375 72.90625 
L 18.609375 28.609375 
Q 18.609375 16.890625 22.84375 11.734375 
Q 27.09375 6.59375 36.625 6.59375 
Q 46.09375 6.59375 50.34375 11.734375 
Q 54.59375 16.890625 54.59375 28.609375 
L 54.59375 72.90625 
L 64.5 72.90625 
L 64.5 27.390625 
Q 64.5 13.140625 57.4375 5.859375 
Q 50.390625 -1.421875 36.625 -1.421875 
Q 22.796875 -1.421875 15.734375 5.859375 
Q 8.6875 13.140625 8.6875 27.390625 
z
" id="DejaVuSans-85"/>
     <path d="M 19.671875 64.796875 
L 19.671875 37.40625 
L 32.078125 37.40625 
Q 38.96875 37.40625 42.71875 40.96875 
Q 46.484375 44.53125 46.484375 51.125 
Q 46.484375 57.671875 42.71875 61.234375 
Q 38.96875 64.796875 32.078125 64.796875 
z
M 9.8125 72.90625 
L 32.078125 72.90625 
Q 44.34375 72.90625 50.609375 67.359375 
Q 56.890625 61.8125 56.890625 51.125 
Q 56.890625 40.328125 50.609375 34.8125 
Q 44.34375 29.296875 32.078125 29.296875 
L 19.671875 29.296875 
L 19.671875 0 
L 9.8125 0 
z
" id="DejaVuSans-80"/>
     <path d="M 39.40625 66.21875 
Q 28.65625 66.21875 22.328125 58.203125 
Q 16.015625 50.203125 16.015625 36.375 
Q 16.015625 22.609375 22.328125 14.59375 
Q 28.65625 6.59375 39.40625 6.59375 
Q 50.140625 6.59375 56.421875 14.59375 
Q 62.703125 22.609375 62.703125 36.375 
Q 62.703125 50.203125 56.421875 58.203125 
Q 50.140625 66.21875 39.40625 66.21875 
z
M 39.40625 74.21875 
Q 54.734375 74.21875 63.90625 63.9375 
Q 73.09375 53.65625 73.09375 36.375 
Q 73.09375 19.140625 63.90625 8.859375 
Q 54.734375 -1.421875 39.40625 -1.421875 
Q 24.03125 -1.421875 14.8125 8.828125 
Q 5.609375 19.09375 5.609375 36.375 
Q 5.609375 53.65625 14.8125 63.9375 
Q 24.03125 74.21875 39.40625 74.21875 
z
" id="DejaVuSans-79"/>
     <path d="M 64.40625 67.28125 
L 64.40625 56.890625 
Q 59.421875 61.53125 53.78125 63.8125 
Q 48.140625 66.109375 41.796875 66.109375 
Q 29.296875 66.109375 22.65625 58.46875 
Q 16.015625 50.828125 16.015625 36.375 
Q 16.015625 21.96875 22.65625 14.328125 
Q 29.296875 6.6875 41.796875 6.6875 
Q 48.140625 6.6875 53.78125 8.984375 
Q 59.421875 11.28125 64.40625 15.921875 
L 64.40625 5.609375 
Q 59.234375 2.09375 53.4375 0.328125 
Q 47.65625 -1.421875 41.21875 -1.421875 
Q 24.65625 -1.421875 15.125 8.703125 
Q 5.609375 18.84375 5.609375 36.375 
Q 5.609375 53.953125 15.125 64.078125 
Q 24.65625 74.21875 41.21875 74.21875 
Q 47.75 74.21875 53.53125 72.484375 
Q 59.328125 70.75 64.40625 67.28125 
z
" id="DejaVuSans-67"/>
    </defs>
    <g transform="translate(375.22944 135.385908)scale(0.17 -0.17)">
     <use xlink:href="#DejaVuSans-85"/>
     <use x="73.193359" xlink:href="#DejaVuSans-80"/>
     <use x="133.464844" xlink:href="#DejaVuSans-45"/>
     <use x="169.548828" xlink:href="#DejaVuSans-77"/>
     <use x="255.828125" xlink:href="#DejaVuSans-79"/>
     <use x="334.570312" xlink:href="#DejaVuSans-45"/>
     <use x="370.654297" xlink:href="#DejaVuSans-67"/>
     <use x="440.478516" xlink:href="#DejaVuSans-77"/>
     <use x="526.757812" xlink:href="#DejaVuSans-65"/>
    </g>
   </g>
   <g id="text_16">
    <!-- best 2016 -->
    <g transform="translate(375.22944 53.810621)scale(0.17 -0.17)">
     <use xlink:href="#DejaVuSans-98"/>
     <use x="63.476562" xlink:href="#DejaVuSans-101"/>
     <use x="125" xlink:href="#DejaVuSans-115"/>
     <use x="177.099609" xlink:href="#DejaVuSans-116"/>
     <use x="216.308594" xlink:href="#DejaVuSans-32"/>
     <use x="248.095703" xlink:href="#DejaVuSans-50"/>
     <use x="311.71875" xlink:href="#DejaVuSans-48"/>
     <use x="375.341797" xlink:href="#DejaVuSans-49"/>
     <use x="438.964844" xlink:href="#DejaVuSans-54"/>
    </g>
   </g>
   <g id="text_17">
    <!-- bbob-biobj f1, 3-D -->
    <defs>
     <path d="M 9.421875 54.6875 
L 18.40625 54.6875 
L 18.40625 -0.984375 
Q 18.40625 -11.421875 14.421875 -16.109375 
Q 10.453125 -20.796875 1.609375 -20.796875 
L -1.8125 -20.796875 
L -1.8125 -13.1875 
L 0.59375 -13.1875 
Q 5.71875 -13.1875 7.5625 -10.8125 
Q 9.421875 -8.453125 9.421875 -0.984375 
z
M 9.421875 75.984375 
L 18.40625 75.984375 
L 18.40625 64.59375 
L 9.421875 64.59375 
z
" id="DejaVuSans-106"/>
     <path d="M 40.578125 39.3125 
Q 47.65625 37.796875 51.625 33 
Q 55.609375 28.21875 55.609375 21.1875 
Q 55.609375 10.40625 48.1875 4.484375 
Q 40.765625 -1.421875 27.09375 -1.421875 
Q 22.515625 -1.421875 17.65625 -0.515625 
Q 12.796875 0.390625 7.625 2.203125 
L 7.625 11.71875 
Q 11.71875 9.328125 16.59375 8.109375 
Q 21.484375 6.890625 26.8125 6.890625 
Q 36.078125 6.890625 40.9375 10.546875 
Q 45.796875 14.203125 45.796875 21.1875 
Q 45.796875 27.640625 41.28125 31.265625 
Q 36.765625 34.90625 28.71875 34.90625 
L 20.21875 34.90625 
L 20.21875 43.015625 
L 29.109375 43.015625 
Q 36.375 43.015625 40.234375 45.921875 
Q 44.09375 48.828125 44.09375 54.296875 
Q 44.09375 59.90625 40.109375 62.90625 
Q 36.140625 65.921875 28.71875 65.921875 
Q 24.65625 65.921875 20.015625 65.03125 
Q 15.375 64.15625 9.8125 62.3125 
L 9.8125 71.09375 
Q 15.4375 72.65625 20.34375 73.4375 
Q 25.25 74.21875 29.59375 74.21875 
Q 40.828125 74.21875 47.359375 69.109375 
Q 53.90625 64.015625 53.90625 55.328125 
Q 53.90625 49.265625 50.4375 45.09375 
Q 46.96875 40.921875 40.578125 39.3125 
z
" id="DejaVuSans-51"/>
    </defs>
    <g transform="translate(60.41088 51.797126)scale(0.102 -0.102)">
     <use xlink:href="#DejaVuSans-98"/>
     <use x="63.476562" xlink:href="#DejaVuSans-98"/>
     <use x="126.953125" xlink:href="#DejaVuSans-111"/>
     <use x="188.134766" xlink:href="#DejaVuSans-98"/>
     <use x="251.611328" xlink:href="#DejaVuSans-45"/>
     <use x="287.695312" xlink:href="#DejaVuSans-98"/>
     <use x="351.171875" xlink:href="#DejaVuSans-105"/>
     <use x="378.955078" xlink:href="#DejaVuSans-111"/>
     <use x="440.136719" xlink:href="#DejaVuSans-98"/>
     <use x="503.613281" xlink:href="#DejaVuSans-106"/>
     <use x="531.396484" xlink:href="#DejaVuSans-32"/>
     <use x="563.183594" xlink:href="#DejaVuSans-102"/>
     <use x="598.388672" xlink:href="#DejaVuSans-49"/>
     <use x="662.011719" xlink:href="#DejaVuSans-44"/>
     <use x="693.798828" xlink:href="#DejaVuSans-32"/>
     <use x="725.585938" xlink:href="#DejaVuSans-51"/>
     <use x="789.208984" xlink:href="#DejaVuSans-45"/>
     <use x="825.292969" xlink:href="#DejaVuSans-68"/>
    </g>
    <!-- 58 targets: 1..-1.0e-4 -->
    <defs>
     <path d="M 10.796875 72.90625 
L 49.515625 72.90625 
L 49.515625 64.59375 
L 19.828125 64.59375 
L 19.828125 46.734375 
Q 21.96875 47.46875 24.109375 47.828125 
Q 26.265625 48.1875 28.421875 48.1875 
Q 40.625 48.1875 47.75 41.5 
Q 54.890625 34.8125 54.890625 23.390625 
Q 54.890625 11.625 47.5625 5.09375 
Q 40.234375 -1.421875 26.90625 -1.421875 
Q 22.3125 -1.421875 17.546875 -0.640625 
Q 12.796875 0.140625 7.71875 1.703125 
L 7.71875 11.625 
Q 12.109375 9.234375 16.796875 8.0625 
Q 21.484375 6.890625 26.703125 6.890625 
Q 35.15625 6.890625 40.078125 11.328125 
Q 45.015625 15.765625 45.015625 23.390625 
Q 45.015625 31 40.078125 35.4375 
Q 35.15625 39.890625 26.703125 39.890625 
Q 22.75 39.890625 18.8125 39.015625 
Q 14.890625 38.140625 10.796875 36.28125 
z
" id="DejaVuSans-53"/>
     <path d="M 11.71875 12.40625 
L 22.015625 12.40625 
L 22.015625 0 
L 11.71875 0 
z
M 11.71875 51.703125 
L 22.015625 51.703125 
L 22.015625 39.3125 
L 11.71875 39.3125 
z
" id="DejaVuSans-58"/>
    </defs>
    <g transform="translate(60.41088 63.218895)scale(0.102 -0.102)">
     <use xlink:href="#DejaVuSans-53"/>
     <use x="63.623047" xlink:href="#DejaVuSans-56"/>
     <use x="127.246094" xlink:href="#DejaVuSans-32"/>
     <use x="159.033203" xlink:href="#DejaVuSans-116"/>
     <use x="198.242188" xlink:href="#DejaVuSans-97"/>
     <use x="259.521484" xlink:href="#DejaVuSans-114"/>
     <use x="300.619141" xlink:href="#DejaVuSans-103"/>
     <use x="364.095703" xlink:href="#DejaVuSans-101"/>
     <use x="425.619141" xlink:href="#DejaVuSans-116"/>
     <use x="464.828125" xlink:href="#DejaVuSans-115"/>
     <use x="516.927734" xlink:href="#DejaVuSans-58"/>
     <use x="550.619141" xlink:href="#DejaVuSans-32"/>
     <use x="582.40625" xlink:href="#DejaVuSans-49"/>
     <use x="646.029297" xlink:href="#DejaVuSans-46"/>
     <use x="677.816406" xlink:href="#DejaVuSans-46"/>
     <use x="709.603516" xlink:href="#DejaVuSans-45"/>
     <use x="745.6875" xlink:href="#DejaVuSans-49"/>
     <use x="809.310547" xlink:href="#DejaVuSans-46"/>
     <use x="841.097656" xlink:href="#DejaVuSans-48"/>
     <use x="904.720703" xlink:href="#DejaVuSans-101"/>
     <use x="966.244141" xlink:href="#DejaVuSans-45"/>
     <use x="1002.328125" xlink:href="#DejaVuSans-52"/>
    </g>
    <!-- 10 instances -->
    <g transform="translate(60.41088 74.640664)scale(0.102 -0.102)">
     <use xlink:href="#DejaVuSans-49"/>
     <use x="63.623047" xlink:href="#DejaVuSans-48"/>
     <use x="127.246094" xlink:href="#DejaVuSans-32"/>
     <use x="159.033203" xlink:href="#DejaVuSans-105"/>
     <use x="186.816406" xlink:href="#DejaVuSans-110"/>
     <use x="250.195312" xlink:href="#DejaVuSans-115"/>
     <use x="302.294922" xlink:href="#DejaVuSans-116"/>
     <use x="341.503906" xlink:href="#DejaVuSans-97"/>
     <use x="402.783203" xlink:href="#DejaVuSans-110"/>
     <use x="466.162109" xlink:href="#DejaVuSans-99"/>
     <use x="521.142578" xlink:href="#DejaVuSans-101"/>
     <use x="582.666016" xlink:href="#DejaVuSans-115"/>
    </g>
   </g>
   <g id="text_18">
    <!-- v2.3.1.31, hv-hash=ff0e71e8cd978373 -->
    <defs>
     <path d="M 54.890625 33.015625 
L 54.890625 0 
L 45.90625 0 
L 45.90625 32.71875 
Q 45.90625 40.484375 42.875 44.328125 
Q 39.84375 48.1875 33.796875 48.1875 
Q 26.515625 48.1875 22.3125 43.546875 
Q 18.109375 38.921875 18.109375 30.90625 
L 18.109375 0 
L 9.078125 0 
L 9.078125 75.984375 
L 18.109375 75.984375 
L 18.109375 46.1875 
Q 21.34375 51.125 25.703125 53.5625 
Q 30.078125 56 35.796875 56 
Q 45.21875 56 50.046875 50.171875 
Q 54.890625 44.34375 54.890625 33.015625 
z
" id="DejaVuSans-104"/>
     <path d="M 10.59375 45.40625 
L 73.1875 45.40625 
L 73.1875 37.203125 
L 10.59375 37.203125 
z
M 10.59375 25.484375 
L 73.1875 25.484375 
L 73.1875 17.1875 
L 10.59375 17.1875 
z
" id="DejaVuSans-61"/>
     <path d="M 8.203125 72.90625 
L 55.078125 72.90625 
L 55.078125 68.703125 
L 28.609375 0 
L 18.3125 0 
L 43.21875 64.59375 
L 8.203125 64.59375 
z
" id="DejaVuSans-55"/>
     <path d="M 10.984375 1.515625 
L 10.984375 10.5 
Q 14.703125 8.734375 18.5 7.8125 
Q 22.3125 6.890625 25.984375 6.890625 
Q 35.75 6.890625 40.890625 13.453125 
Q 46.046875 20.015625 46.78125 33.40625 
Q 43.953125 29.203125 39.59375 26.953125 
Q 35.25 24.703125 29.984375 24.703125 
Q 19.046875 24.703125 12.671875 31.3125 
Q 6.296875 37.9375 6.296875 49.421875 
Q 6.296875 60.640625 12.9375 67.421875 
Q 19.578125 74.21875 30.609375 74.21875 
Q 43.265625 74.21875 49.921875 64.515625 
Q 56.59375 54.828125 56.59375 36.375 
Q 56.59375 19.140625 48.40625 8.859375 
Q 40.234375 -1.421875 26.421875 -1.421875 
Q 22.703125 -1.421875 18.890625 -0.6875 
Q 15.09375 0.046875 10.984375 1.515625 
z
M 30.609375 32.421875 
Q 37.25 32.421875 41.125 36.953125 
Q 45.015625 41.5 45.015625 49.421875 
Q 45.015625 57.28125 41.125 61.84375 
Q 37.25 66.40625 30.609375 66.40625 
Q 23.96875 66.40625 20.09375 61.84375 
Q 16.21875 57.28125 16.21875 49.421875 
Q 16.21875 41.5 20.09375 36.953125 
Q 23.96875 32.421875 30.609375 32.421875 
z
" id="DejaVuSans-57"/>
    </defs>
    <g style="fill:#808080;" transform="translate(99.797125 294.289592)scale(0.1 -0.1)">
     <use xlink:href="#DejaVuSans-118"/>
     <use x="59.179688" xlink:href="#DejaVuSans-50"/>
     <use x="122.802734" xlink:href="#DejaVuSans-46"/>
     <use x="154.589844" xlink:href="#DejaVuSans-51"/>
     <use x="218.212891" xlink:href="#DejaVuSans-46"/>
     <use x="250" xlink:href="#DejaVuSans-49"/>
     <use x="313.623047" xlink:href="#DejaVuSans-46"/>
     <use x="345.410156" xlink:href="#DejaVuSans-51"/>
     <use x="409.033203" xlink:href="#DejaVuSans-49"/>
     <use x="472.65625" xlink:href="#DejaVuSans-44"/>
     <use x="504.443359" xlink:href="#DejaVuSans-32"/>
     <use x="536.230469" xlink:href="#DejaVuSans-104"/>
     <use x="599.609375" xlink:href="#DejaVuSans-118"/>
     <use x="658.757812" xlink:href="#DejaVuSans-45"/>
     <use x="694.841797" xlink:href="#DejaVuSans-104"/>
     <use x="758.220703" xlink:href="#DejaVuSans-97"/>
     <use x="819.5" xlink:href="#DejaVuSans-115"/>
     <use x="871.599609" xlink:href="#DejaVuSans-104"/>
     <use x="934.978516" xlink:href="#DejaVuSans-61"/>
     <use x="1018.767578" xlink:href="#DejaVuSans-102"/>
     <use x="1053.972656" xlink:href="#DejaVuSans-102"/>
     <use x="1089.177734" xlink:href="#DejaVuSans-48"/>
     <use x="1152.800781" xlink:href="#DejaVuSans-101"/>
     <use x="1214.324219" xlink:href="#DejaVuSans-55"/>
     <use x="1277.947266" xlink:href="#DejaVuSans-49"/>
     <use x="1341.570312" xlink:href="#DejaVuSans-101"/>
     <use x="1403.09375" xlink:href="#DejaVuSans-56"/>
     <use x="1466.716797" xlink:href="#DejaVuSans-99"/>
     <use x="1521.697266" xlink:href="#DejaVuSans-100"/>
     <use x="1585.173828" xlink:href="#DejaVuSans-57"/>
     <use x="1648.796875" xlink:href="#DejaVuSans-55"/>
     <use x="1712.419922" xlink:href="#DejaVuSans-56"/>
     <use x="1776.042969" xlink:href="#DejaVuSans-51"/>
     <use x="1839.666016" xlink:href="#DejaVuSans-55"/>
     <use x="1903.289062" xlink:href="#DejaVuSans-51"/>
    </g>
   </g>
   <g id="text_19">
    <!-- 1 Sphere/Sphere -->
    <g transform="translate(114.33775 35.472)scale(0.2 -0.2)">
     <use xlink:href="#DejaVuSans-49"/>
     <use x="63.623047" xlink:href="#DejaVuSans-32"/>
     <use x="95.410156" xlink:href="#DejaVuSans-83"/>
     <use x="158.886719" xlink:href="#DejaVuSans-112"/>
     <use x="222.363281" xlink:href="#DejaVuSans-104"/>
     <use x="285.742188" xlink:href="#DejaVuSans-101"/>
     <use x="347.265625" xlink:href="#DejaVuSans-114"/>
     <use x="388.347656" xlink:href="#DejaVuSans-101"/>
     <use x="449.871094" xlink:href="#DejaVuSans-47"/>
     <use x="483.5625" xlink:href="#DejaVuSans-83"/>
     <use x="547.039062" xlink:href="#DejaVuSans-112"/>
     <use x="610.515625" xlink:href="#DejaVuSans-104"/>
     <use x="673.894531" xlink:href="#DejaVuSans-101"/>
     <use x="735.417969" xlink:href="#DejaVuSans-114"/>
     <use x="776.5" xlink:href="#DejaVuSans-101"/>
    </g>
   </g>
  </g>
 </g>
 <defs>
  <clipPath id="p9a7e30fded">
   <rect height="257.472" width="281.088" x="57.6" y="41.472"/>
  </clipPath>
 </defs>
</svg>
