<?xml version="1.0" encoding="utf-8" standalone="no"?>
<!DOCTYPE svg PUBLIC "-//W3C//DTD SVG 1.1//EN"
  "http://www.w3.org/Graphics/SVG/1.1/DTD/svg11.dtd">
<!-- Created with matplotlib (https://matplotlib.org/) -->
<svg height="345.6pt" version="1.1" viewBox="0 0 460.8 345.6" width="460.8pt" xmlns="http://www.w3.org/2000/svg" xmlns:xlink="http://www.w3.org/1999/xlink">
 <defs>
  <style type="text/css">
*{stroke-linecap:butt;stroke-linejoin:round;}
  </style>
 </defs>
 <g id="figure_1">
  <g id="patch_1">
   <path d="M 0 345.6 
L 460.8 345.6 
L 460.8 0 
L 0 0 
z
" style="fill:#ffffff;"/>
  </g>
  <g id="axes_1">
   <g id="patch_2">
    <path d="M 57.6 298.944 
L 338.688 298.944 
L 338.688 41.472 
L 57.6 41.472 
z
" style="fill:#ffffff;"/>
   </g>
   <g id="line2d_1">
    <path d="M 80.258561 298.944 
L 80.258561 294.54878 
L 86.792945 294.54878 
L 86.792945 285.758339 
L 100.443706 285.758339 
L 100.443706 276.967899 
L 127.378995 276.967899 
L 127.378995 272.572679 
L 143.144465 272.572679 
L 143.144465 259.387018 
L 148.576295 259.387018 
L 148.576295 250.596578 
L 163.946031 250.596578 
L 163.946031 246.201357 
L 164.725213 246.201357 
L 164.725213 237.410917 
L 168.058166 237.410917 
L 168.058166 224.225256 
L 170.890315 224.225256 
L 170.890315 215.434816 
L 172.12622 215.434816 
L 172.12622 206.644376 
L 177.396715 206.644376 
L 177.396715 197.853935 
L 178.98346 197.853935 
L 178.98346 193.458715 
L 179.664896 193.458715 
L 179.664896 180.273054 
L 179.907185 180.273054 
L 179.907185 175.877834 
L 180.564187 175.877834 
L 180.564187 162.692173 
L 181.31353 162.692173 
L 181.31353 153.901733 
L 187.53079 153.901733 
L 187.53079 149.506513 
L 188.069677 149.506513 
L 188.069677 136.320852 
L 196.146232 136.320852 
L 196.146232 131.925632 
L 204.576948 131.925632 
L 204.576948 118.739971 
L 217.495875 118.739971 
L 217.495875 109.949531 
L 252.442552 109.949531 
L 252.442552 101.15909 
L 255.28276 101.15909 
L 255.28276 96.76387 
L 258.223878 96.76387 
L 258.223878 87.97343 
L 261.188307 87.97343 
L 261.188307 74.787769 
L 338.688 74.787769 
" style="fill:none;stroke:#f5deb3;stroke-linecap:square;stroke-width:4;"/>
   </g>
   <g id="line2d_2">
    <defs>
     <path d="M 0 7.778175 
L 7.778175 0 
L 0 -7.778175 
L -7.778175 0 
z
" id="m8cdedb6a35" style="stroke:#f5deb3;stroke-linejoin:miter;stroke-width:1.5;"/>
    </defs>
    <g>
     <use style="fill:#f5deb3;stroke:#f5deb3;stroke-linejoin:miter;stroke-width:1.5;" x="168.058166" xlink:href="#m8cdedb6a35" y="237.410917"/>
     <use style="fill:#f5deb3;stroke:#f5deb3;stroke-linejoin:miter;stroke-width:1.5;" x="187.53079" xlink:href="#m8cdedb6a35" y="149.506513"/>
     <use style="fill:#f5deb3;stroke:#f5deb3;stroke-linejoin:miter;stroke-width:1.5;" x="261.188307" xlink:href="#m8cdedb6a35" y="87.97343"/>
     <use style="fill:#f5deb3;stroke:#f5deb3;stroke-linejoin:miter;stroke-width:1.5;" x="261.188307" xlink:href="#m8cdedb6a35" y="74.787769"/>
     <use style="fill:#f5deb3;stroke:#f5deb3;stroke-linejoin:miter;stroke-width:1.5;" x="338.688" xlink:href="#m8cdedb6a35" y="74.787769"/>
    </g>
   </g>
   <g id="line2d_3">
    <path style="fill:none;stroke:#f5deb3;stroke-linecap:square;stroke-width:4;"/>
    <g/>
   </g>
   <g id="line2d_4">
    <path d="M 338.688 74.787769 
L 369.60768 49.119683 
" style="fill:none;stroke:#f5deb3;stroke-linecap:square;stroke-width:4;"/>
    <g>
     <use style="fill:#f5deb3;stroke:#f5deb3;stroke-linejoin:miter;stroke-width:1.5;" x="338.688" xlink:href="#m8cdedb6a35" y="74.787769"/>
     <use style="fill:#f5deb3;stroke:#f5deb3;stroke-linejoin:miter;stroke-width:1.5;" x="369.60768" xlink:href="#m8cdedb6a35" y="49.119683"/>
    </g>
   </g>
   <g id="matplotlib.axis_1">
    <g id="xtick_1">
     <g id="line2d_5">
      <path clip-path="url(#p4b3010a628)" d="M 57.6 298.944 
L 57.6 41.472 
" style="fill:none;stroke:#b0b0b0;stroke-linecap:square;stroke-width:0.8;"/>
     </g>
     <g id="line2d_6">
      <defs>
       <path d="M 0 0 
L 0 3.5 
" id="m9e9bc8b05e" style="stroke:#000000;stroke-width:0.8;"/>
      </defs>
      <g>
       <use style="stroke:#000000;stroke-width:0.8;" x="57.6" xlink:href="#m9e9bc8b05e" y="298.944"/>
      </g>
     </g>
     <g id="text_1">
      <!-- 0 -->
      <defs>
       <path d="M 31.78125 66.40625 
Q 24.171875 66.40625 20.328125 58.90625 
Q 16.5 51.421875 16.5 36.375 
Q 16.5 21.390625 20.328125 13.890625 
Q 24.171875 6.390625 31.78125 6.390625 
Q 39.453125 6.390625 43.28125 13.890625 
Q 47.125 21.390625 47.125 36.375 
Q 47.125 51.421875 43.28125 58.90625 
Q 39.453125 66.40625 31.78125 66.40625 
z
M 31.78125 74.21875 
Q 44.046875 74.21875 50.515625 64.515625 
Q 56.984375 54.828125 56.984375 36.375 
Q 56.984375 17.96875 50.515625 8.265625 
Q 44.046875 -1.421875 31.78125 -1.421875 
Q 19.53125 -1.421875 13.0625 8.265625 
Q 6.59375 17.96875 6.59375 36.375 
Q 6.59375 54.828125 13.0625 64.515625 
Q 19.53125 74.21875 31.78125 74.21875 
z
" id="DejaVuSans-48"/>
      </defs>
      <g transform="translate(51.2375 321.140875)scale(0.2 -0.2)">
       <use xlink:href="#DejaVuSans-48"/>
      </g>
     </g>
    </g>
    <g id="xtick_2">
     <g id="line2d_7">
      <path clip-path="url(#p4b3010a628)" d="M 137.910857 298.944 
L 137.910857 41.472 
" style="fill:none;stroke:#b0b0b0;stroke-linecap:square;stroke-width:0.8;"/>
     </g>
     <g id="line2d_8">
      <g>
       <use style="stroke:#000000;stroke-width:0.8;" x="137.910857" xlink:href="#m9e9bc8b05e" y="298.944"/>
      </g>
     </g>
     <g id="text_2">
      <!-- 2 -->
      <defs>
       <path d="M 19.1875 8.296875 
L 53.609375 8.296875 
L 53.609375 0 
L 7.328125 0 
L 7.328125 8.296875 
Q 12.9375 14.109375 22.625 23.890625 
Q 32.328125 33.6875 34.8125 36.53125 
Q 39.546875 41.84375 41.421875 45.53125 
Q 43.3125 49.21875 43.3125 52.78125 
Q 43.3125 58.59375 39.234375 62.25 
Q 35.15625 65.921875 28.609375 65.921875 
Q 23.96875 65.921875 18.8125 64.3125 
Q 13.671875 62.703125 7.8125 59.421875 
L 7.8125 69.390625 
Q 13.765625 71.78125 18.9375 73 
Q 24.125 74.21875 28.421875 74.21875 
Q 39.75 74.21875 46.484375 68.546875 
Q 53.21875 62.890625 53.21875 53.421875 
Q 53.21875 48.921875 51.53125 44.890625 
Q 49.859375 40.875 45.40625 35.40625 
Q 44.1875 33.984375 37.640625 27.21875 
Q 31.109375 20.453125 19.1875 8.296875 
z
" id="DejaVuSans-50"/>
      </defs>
      <g transform="translate(131.548357 321.140875)scale(0.2 -0.2)">
       <use xlink:href="#DejaVuSans-50"/>
      </g>
     </g>
    </g>
    <g id="xtick_3">
     <g id="line2d_9">
      <path clip-path="url(#p4b3010a628)" d="M 218.221714 298.944 
L 218.221714 41.472 
" style="fill:none;stroke:#b0b0b0;stroke-linecap:square;stroke-width:0.8;"/>
     </g>
     <g id="line2d_10">
      <g>
       <use style="stroke:#000000;stroke-width:0.8;" x="218.221714" xlink:href="#m9e9bc8b05e" y="298.944"/>
      </g>
     </g>
     <g id="text_3">
      <!-- 4 -->
      <defs>
       <path d="M 37.796875 64.3125 
L 12.890625 25.390625 
L 37.796875 25.390625 
z
M 35.203125 72.90625 
L 47.609375 72.90625 
L 47.609375 25.390625 
L 58.015625 25.390625 
L 58.015625 17.1875 
L 47.609375 17.1875 
L 47.609375 0 
L 37.796875 0 
L 37.796875 17.1875 
L 4.890625 17.1875 
L 4.890625 26.703125 
z
" id="DejaVuSans-52"/>
      </defs>
      <g transform="translate(211.859214 321.140875)scale(0.2 -0.2)">
       <use xlink:href="#DejaVuSans-52"/>
      </g>
     </g>
    </g>
    <g id="xtick_4">
     <g id="line2d_11">
      <path clip-path="url(#p4b3010a628)" d="M 298.532571 298.944 
L 298.532571 41.472 
" style="fill:none;stroke:#b0b0b0;stroke-linecap:square;stroke-width:0.8;"/>
     </g>
     <g id="line2d_12">
      <g>
       <use style="stroke:#000000;stroke-width:0.8;" x="298.532571" xlink:href="#m9e9bc8b05e" y="298.944"/>
      </g>
     </g>
     <g id="text_4">
      <!-- 6 -->
      <defs>
       <path d="M 33.015625 40.375 
Q 26.375 40.375 22.484375 35.828125 
Q 18.609375 31.296875 18.609375 23.390625 
Q 18.609375 15.53125 22.484375 10.953125 
Q 26.375 6.390625 33.015625 6.390625 
Q 39.65625 6.390625 43.53125 10.953125 
Q 47.40625 15.53125 47.40625 23.390625 
Q 47.40625 31.296875 43.53125 35.828125 
Q 39.65625 40.375 33.015625 40.375 
z
M 52.59375 71.296875 
L 52.59375 62.3125 
Q 48.875 64.0625 45.09375 64.984375 
Q 41.3125 65.921875 37.59375 65.921875 
Q 27.828125 65.921875 22.671875 59.328125 
Q 17.53125 52.734375 16.796875 39.40625 
Q 19.671875 43.65625 24.015625 45.921875 
Q 28.375 48.1875 33.59375 48.1875 
Q 44.578125 48.1875 50.953125 41.515625 
Q 57.328125 34.859375 57.328125 23.390625 
Q 57.328125 12.15625 50.6875 5.359375 
Q 44.046875 -1.421875 33.015625 -1.421875 
Q 20.359375 -1.421875 13.671875 8.265625 
Q 6.984375 17.96875 6.984375 36.375 
Q 6.984375 53.65625 15.1875 63.9375 
Q 23.390625 74.21875 37.203125 74.21875 
Q 40.921875 74.21875 44.703125 73.484375 
Q 48.484375 72.75 52.59375 71.296875 
z
" id="DejaVuSans-54"/>
      </defs>
      <g transform="translate(292.170071 321.140875)scale(0.2 -0.2)">
       <use xlink:href="#DejaVuSans-54"/>
      </g>
     </g>
    </g>
    <g id="xtick_5">
     <g id="line2d_13">
      <path clip-path="url(#p4b3010a628)" d="M 57.6 298.944 
L 57.6 41.472 
" style="fill:none;stroke:#b0b0b0;stroke-linecap:square;stroke-width:0.8;"/>
     </g>
     <g id="line2d_14">
      <defs>
       <path d="M 0 0 
L 0 2 
" id="me14813d35b" style="stroke:#000000;stroke-width:0.6;"/>
      </defs>
      <g>
       <use style="stroke:#000000;stroke-width:0.6;" x="57.6" xlink:href="#me14813d35b" y="298.944"/>
      </g>
     </g>
    </g>
    <g id="xtick_6">
     <g id="line2d_15">
      <path clip-path="url(#p4b3010a628)" d="M 97.755429 298.944 
L 97.755429 41.472 
" style="fill:none;stroke:#b0b0b0;stroke-linecap:square;stroke-width:0.8;"/>
     </g>
     <g id="line2d_16">
      <g>
       <use style="stroke:#000000;stroke-width:0.6;" x="97.755429" xlink:href="#me14813d35b" y="298.944"/>
      </g>
     </g>
    </g>
    <g id="xtick_7">
     <g id="line2d_17">
      <path clip-path="url(#p4b3010a628)" d="M 137.910857 298.944 
L 137.910857 41.472 
" style="fill:none;stroke:#b0b0b0;stroke-linecap:square;stroke-width:0.8;"/>
     </g>
     <g id="line2d_18">
      <g>
       <use style="stroke:#000000;stroke-width:0.6;" x="137.910857" xlink:href="#me14813d35b" y="298.944"/>
      </g>
     </g>
    </g>
    <g id="xtick_8">
     <g id="line2d_19">
      <path clip-path="url(#p4b3010a628)" d="M 178.066286 298.944 
L 178.066286 41.472 
" style="fill:none;stroke:#b0b0b0;stroke-linecap:square;stroke-width:0.8;"/>
     </g>
     <g id="line2d_20">
      <g>
       <use style="stroke:#000000;stroke-width:0.6;" x="178.066286" xlink:href="#me14813d35b" y="298.944"/>
      </g>
     </g>
    </g>
    <g id="xtick_9">
     <g id="line2d_21">
      <path clip-path="url(#p4b3010a628)" d="M 218.221714 298.944 
L 218.221714 41.472 
" style="fill:none;stroke:#b0b0b0;stroke-linecap:square;stroke-width:0.8;"/>
     </g>
     <g id="line2d_22">
      <g>
       <use style="stroke:#000000;stroke-width:0.6;" x="218.221714" xlink:href="#me14813d35b" y="298.944"/>
      </g>
     </g>
    </g>
    <g id="xtick_10">
     <g id="line2d_23">
      <path clip-path="url(#p4b3010a628)" d="M 258.377143 298.944 
L 258.377143 41.472 
" style="fill:none;stroke:#b0b0b0;stroke-linecap:square;stroke-width:0.8;"/>
     </g>
     <g id="line2d_24">
      <g>
       <use style="stroke:#000000;stroke-width:0.6;" x="258.377143" xlink:href="#me14813d35b" y="298.944"/>
      </g>
     </g>
    </g>
    <g id="xtick_11">
     <g id="line2d_25">
      <path clip-path="url(#p4b3010a628)" d="M 298.532571 298.944 
L 298.532571 41.472 
" style="fill:none;stroke:#b0b0b0;stroke-linecap:square;stroke-width:0.8;"/>
     </g>
     <g id="line2d_26">
      <g>
       <use style="stroke:#000000;stroke-width:0.6;" x="298.532571" xlink:href="#me14813d35b" y="298.944"/>
      </g>
     </g>
    </g>
    <g id="xtick_12">
     <g id="line2d_27">
      <path clip-path="url(#p4b3010a628)" d="M 338.688 298.944 
L 338.688 41.472 
" style="fill:none;stroke:#b0b0b0;stroke-linecap:square;stroke-width:0.8;"/>
     </g>
     <g id="line2d_28">
      <g>
       <use style="stroke:#000000;stroke-width:0.6;" x="338.688" xlink:href="#me14813d35b" y="298.944"/>
      </g>
     </g>
    </g>
    <g id="text_5">
     <!-- log10(# f-evals / dimension) -->
     <defs>
      <path d="M 9.421875 75.984375 
L 18.40625 75.984375 
L 18.40625 0 
L 9.421875 0 
z
" id="DejaVuSans-108"/>
      <path d="M 30.609375 48.390625 
Q 23.390625 48.390625 19.1875 42.75 
Q 14.984375 37.109375 14.984375 27.296875 
Q 14.984375 17.484375 19.15625 11.84375 
Q 23.34375 6.203125 30.609375 6.203125 
Q 37.796875 6.203125 41.984375 11.859375 
Q 46.1875 17.53125 46.1875 27.296875 
Q 46.1875 37.015625 41.984375 42.703125 
Q 37.796875 48.390625 30.609375 48.390625 
z
M 30.609375 56 
Q 42.328125 56 49.015625 48.375 
Q 55.71875 40.765625 55.71875 27.296875 
Q 55.71875 13.875 49.015625 6.21875 
Q 42.328125 -1.421875 30.609375 -1.421875 
Q 18.84375 -1.421875 12.171875 6.21875 
Q 5.515625 13.875 5.515625 27.296875 
Q 5.515625 40.765625 12.171875 48.375 
Q 18.84375 56 30.609375 56 
z
" id="DejaVuSans-111"/>
      <path d="M 45.40625 27.984375 
Q 45.40625 37.75 41.375 43.109375 
Q 37.359375 48.484375 30.078125 48.484375 
Q 22.859375 48.484375 18.828125 43.109375 
Q 14.796875 37.75 14.796875 27.984375 
Q 14.796875 18.265625 18.828125 12.890625 
Q 22.859375 7.515625 30.078125 7.515625 
Q 37.359375 7.515625 41.375 12.890625 
Q 45.40625 18.265625 45.40625 27.984375 
z
M 54.390625 6.78125 
Q 54.390625 -7.171875 48.1875 -13.984375 
Q 42 -20.796875 29.203125 -20.796875 
Q 24.46875 -20.796875 20.265625 -20.09375 
Q 16.0625 -19.390625 12.109375 -17.921875 
L 12.109375 -9.1875 
Q 16.0625 -11.328125 19.921875 -12.34375 
Q 23.78125 -13.375 27.78125 -13.375 
Q 36.625 -13.375 41.015625 -8.765625 
Q 45.40625 -4.15625 45.40625 5.171875 
L 45.40625 9.625 
Q 42.625 4.78125 38.28125 2.390625 
Q 33.9375 0 27.875 0 
Q 17.828125 0 11.671875 7.65625 
Q 5.515625 15.328125 5.515625 27.984375 
Q 5.515625 40.671875 11.671875 48.328125 
Q 17.828125 56 27.875 56 
Q 33.9375 56 38.28125 53.609375 
Q 42.625 51.21875 45.40625 46.390625 
L 45.40625 54.6875 
L 54.390625 54.6875 
z
" id="DejaVuSans-103"/>
      <path d="M 12.40625 8.296875 
L 28.515625 8.296875 
L 28.515625 63.921875 
L 10.984375 60.40625 
L 10.984375 69.390625 
L 28.421875 72.90625 
L 38.28125 72.90625 
L 38.28125 8.296875 
L 54.390625 8.296875 
L 54.390625 0 
L 12.40625 0 
z
" id="DejaVuSans-49"/>
      <path d="M 31 75.875 
Q 24.46875 64.65625 21.28125 53.65625 
Q 18.109375 42.671875 18.109375 31.390625 
Q 18.109375 20.125 21.3125 9.0625 
Q 24.515625 -2 31 -13.1875 
L 23.1875 -13.1875 
Q 15.875 -1.703125 12.234375 9.375 
Q 8.59375 20.453125 8.59375 31.390625 
Q 8.59375 42.28125 12.203125 53.3125 
Q 15.828125 64.359375 23.1875 75.875 
z
" id="DejaVuSans-40"/>
      <path d="M 51.125 44 
L 36.921875 44 
L 32.8125 27.6875 
L 47.125 27.6875 
z
M 43.796875 71.78125 
L 38.71875 51.515625 
L 52.984375 51.515625 
L 58.109375 71.78125 
L 65.921875 71.78125 
L 60.890625 51.515625 
L 76.125 51.515625 
L 76.125 44 
L 58.984375 44 
L 54.984375 27.6875 
L 70.515625 27.6875 
L 70.515625 20.21875 
L 53.078125 20.21875 
L 48 0 
L 40.1875 0 
L 45.21875 20.21875 
L 30.90625 20.21875 
L 25.875 0 
L 18.015625 0 
L 23.09375 20.21875 
L 7.71875 20.21875 
L 7.71875 27.6875 
L 24.90625 27.6875 
L 29 44 
L 13.28125 44 
L 13.28125 51.515625 
L 30.90625 51.515625 
L 35.890625 71.78125 
z
" id="DejaVuSans-35"/>
      <path id="DejaVuSans-32"/>
      <path d="M 37.109375 75.984375 
L 37.109375 68.5 
L 28.515625 68.5 
Q 23.6875 68.5 21.796875 66.546875 
Q 19.921875 64.59375 19.921875 59.515625 
L 19.921875 54.6875 
L 34.71875 54.6875 
L 34.71875 47.703125 
L 19.921875 47.703125 
L 19.921875 0 
L 10.890625 0 
L 10.890625 47.703125 
L 2.296875 47.703125 
L 2.296875 54.6875 
L 10.890625 54.6875 
L 10.890625 58.5 
Q 10.890625 67.625 15.140625 71.796875 
Q 19.390625 75.984375 28.609375 75.984375 
z
" id="DejaVuSans-102"/>
      <path d="M 4.890625 31.390625 
L 31.203125 31.390625 
L 31.203125 23.390625 
L 4.890625 23.390625 
z
" id="DejaVuSans-45"/>
      <path d="M 56.203125 29.59375 
L 56.203125 25.203125 
L 14.890625 25.203125 
Q 15.484375 15.921875 20.484375 11.0625 
Q 25.484375 6.203125 34.421875 6.203125 
Q 39.59375 6.203125 44.453125 7.46875 
Q 49.3125 8.734375 54.109375 11.28125 
L 54.109375 2.78125 
Q 49.265625 0.734375 44.1875 -0.34375 
Q 39.109375 -1.421875 33.890625 -1.421875 
Q 20.796875 -1.421875 13.15625 6.1875 
Q 5.515625 13.8125 5.515625 26.8125 
Q 5.515625 40.234375 12.765625 48.109375 
Q 20.015625 56 32.328125 56 
Q 43.359375 56 49.78125 48.890625 
Q 56.203125 41.796875 56.203125 29.59375 
z
M 47.21875 32.234375 
Q 47.125 39.59375 43.09375 43.984375 
Q 39.0625 48.390625 32.421875 48.390625 
Q 24.90625 48.390625 20.390625 44.140625 
Q 15.875 39.890625 15.1875 32.171875 
z
" id="DejaVuSans-101"/>
      <path d="M 2.984375 54.6875 
L 12.5 54.6875 
L 29.59375 8.796875 
L 46.6875 54.6875 
L 56.203125 54.6875 
L 35.6875 0 
L 23.484375 0 
z
" id="DejaVuSans-118"/>
      <path d="M 34.28125 27.484375 
Q 23.390625 27.484375 19.1875 25 
Q 14.984375 22.515625 14.984375 16.5 
Q 14.984375 11.71875 18.140625 8.90625 
Q 21.296875 6.109375 26.703125 6.109375 
Q 34.1875 6.109375 38.703125 11.40625 
Q 43.21875 16.703125 43.21875 25.484375 
L 43.21875 27.484375 
z
M 52.203125 31.203125 
L 52.203125 0 
L 43.21875 0 
L 43.21875 8.296875 
Q 40.140625 3.328125 35.546875 0.953125 
Q 30.953125 -1.421875 24.3125 -1.421875 
Q 15.921875 -1.421875 10.953125 3.296875 
Q 6 8.015625 6 15.921875 
Q 6 25.140625 12.171875 29.828125 
Q 18.359375 34.515625 30.609375 34.515625 
L 43.21875 34.515625 
L 43.21875 35.40625 
Q 43.21875 41.609375 39.140625 45 
Q 35.0625 48.390625 27.6875 48.390625 
Q 23 48.390625 18.546875 47.265625 
Q 14.109375 46.140625 10.015625 43.890625 
L 10.015625 52.203125 
Q 14.9375 54.109375 19.578125 55.046875 
Q 24.21875 56 28.609375 56 
Q 40.484375 56 46.34375 49.84375 
Q 52.203125 43.703125 52.203125 31.203125 
z
" id="DejaVuSans-97"/>
      <path d="M 44.28125 53.078125 
L 44.28125 44.578125 
Q 40.484375 46.53125 36.375 47.5 
Q 32.28125 48.484375 27.875 48.484375 
Q 21.1875 48.484375 17.84375 46.4375 
Q 14.5 44.390625 14.5 40.28125 
Q 14.5 37.15625 16.890625 35.375 
Q 19.28125 33.59375 26.515625 31.984375 
L 29.59375 31.296875 
Q 39.15625 29.25 43.1875 25.515625 
Q 47.21875 21.78125 47.21875 15.09375 
Q 47.21875 7.46875 41.1875 3.015625 
Q 35.15625 -1.421875 24.609375 -1.421875 
Q 20.21875 -1.421875 15.453125 -0.5625 
Q 10.6875 0.296875 5.421875 2 
L 5.421875 11.28125 
Q 10.40625 8.6875 15.234375 7.390625 
Q 20.0625 6.109375 24.8125 6.109375 
Q 31.15625 6.109375 34.5625 8.28125 
Q 37.984375 10.453125 37.984375 14.40625 
Q 37.984375 18.0625 35.515625 20.015625 
Q 33.0625 21.96875 24.703125 23.78125 
L 21.578125 24.515625 
Q 13.234375 26.265625 9.515625 29.90625 
Q 5.8125 33.546875 5.8125 39.890625 
Q 5.8125 47.609375 11.28125 51.796875 
Q 16.75 56 26.8125 56 
Q 31.78125 56 36.171875 55.265625 
Q 40.578125 54.546875 44.28125 53.078125 
z
" id="DejaVuSans-115"/>
      <path d="M 25.390625 72.90625 
L 33.6875 72.90625 
L 8.296875 -9.28125 
L 0 -9.28125 
z
" id="DejaVuSans-47"/>
      <path d="M 45.40625 46.390625 
L 45.40625 75.984375 
L 54.390625 75.984375 
L 54.390625 0 
L 45.40625 0 
L 45.40625 8.203125 
Q 42.578125 3.328125 38.25 0.953125 
Q 33.9375 -1.421875 27.875 -1.421875 
Q 17.96875 -1.421875 11.734375 6.484375 
Q 5.515625 14.40625 5.515625 27.296875 
Q 5.515625 40.1875 11.734375 48.09375 
Q 17.96875 56 27.875 56 
Q 33.9375 56 38.25 53.625 
Q 42.578125 51.265625 45.40625 46.390625 
z
M 14.796875 27.296875 
Q 14.796875 17.390625 18.875 11.75 
Q 22.953125 6.109375 30.078125 6.109375 
Q 37.203125 6.109375 41.296875 11.75 
Q 45.40625 17.390625 45.40625 27.296875 
Q 45.40625 37.203125 41.296875 42.84375 
Q 37.203125 48.484375 30.078125 48.484375 
Q 22.953125 48.484375 18.875 42.84375 
Q 14.796875 37.203125 14.796875 27.296875 
z
" id="DejaVuSans-100"/>
      <path d="M 9.421875 54.6875 
L 18.40625 54.6875 
L 18.40625 0 
L 9.421875 0 
z
M 9.421875 75.984375 
L 18.40625 75.984375 
L 18.40625 64.59375 
L 9.421875 64.59375 
z
" id="DejaVuSans-105"/>
      <path d="M 52 44.1875 
Q 55.375 50.25 60.0625 53.125 
Q 64.75 56 71.09375 56 
Q 79.640625 56 84.28125 50.015625 
Q 88.921875 44.046875 88.921875 33.015625 
L 88.921875 0 
L 79.890625 0 
L 79.890625 32.71875 
Q 79.890625 40.578125 77.09375 44.375 
Q 74.3125 48.1875 68.609375 48.1875 
Q 61.625 48.1875 57.5625 43.546875 
Q 53.515625 38.921875 53.515625 30.90625 
L 53.515625 0 
L 44.484375 0 
L 44.484375 32.71875 
Q 44.484375 40.625 41.703125 44.40625 
Q 38.921875 48.1875 33.109375 48.1875 
Q 26.21875 48.1875 22.15625 43.53125 
Q 18.109375 38.875 18.109375 30.90625 
L 18.109375 0 
L 9.078125 0 
L 9.078125 54.6875 
L 18.109375 54.6875 
L 18.109375 46.1875 
Q 21.1875 51.21875 25.484375 53.609375 
Q 29.78125 56 35.6875 56 
Q 41.65625 56 45.828125 52.96875 
Q 50 49.953125 52 44.1875 
z
" id="DejaVuSans-109"/>
      <path d="M 54.890625 33.015625 
L 54.890625 0 
L 45.90625 0 
L 45.90625 32.71875 
Q 45.90625 40.484375 42.875 44.328125 
Q 39.84375 48.1875 33.796875 48.1875 
Q 26.515625 48.1875 22.3125 43.546875 
Q 18.109375 38.921875 18.109375 30.90625 
L 18.109375 0 
L 9.078125 0 
L 9.078125 54.6875 
L 18.109375 54.6875 
L 18.109375 46.1875 
Q 21.34375 51.125 25.703125 53.5625 
Q 30.078125 56 35.796875 56 
Q 45.21875 56 50.046875 50.171875 
Q 54.890625 44.34375 54.890625 33.015625 
z
" id="DejaVuSans-110"/>
      <path d="M 8.015625 75.875 
L 15.828125 75.875 
Q 23.140625 64.359375 26.78125 53.3125 
Q 30.421875 42.28125 30.421875 31.390625 
Q 30.421875 20.453125 26.78125 9.375 
Q 23.140625 -1.703125 15.828125 -13.1875 
L 8.015625 -13.1875 
Q 14.5 -2 17.703125 9.0625 
Q 20.90625 20.125 20.90625 31.390625 
Q 20.90625 42.671875 17.703125 53.65625 
Q 14.5 64.65625 8.015625 75.875 
z
" id="DejaVuSans-41"/>
     </defs>
     <g transform="translate(77.303219 342.217594)scale(0.17 -0.17)">
      <use xlink:href="#DejaVuSans-108"/>
      <use x="27.783203" xlink:href="#DejaVuSans-111"/>
      <use x="88.964844" xlink:href="#DejaVuSans-103"/>
      <use x="152.441406" xlink:href="#DejaVuSans-49"/>
      <use x="216.064453" xlink:href="#DejaVuSans-48"/>
      <use x="279.6875" xlink:href="#DejaVuSans-40"/>
      <use x="318.701172" xlink:href="#DejaVuSans-35"/>
      <use x="402.490234" xlink:href="#DejaVuSans-32"/>
      <use x="434.277344" xlink:href="#DejaVuSans-102"/>
      <use x="469.404297" xlink:href="#DejaVuSans-45"/>
      <use x="505.488281" xlink:href="#DejaVuSans-101"/>
      <use x="567.011719" xlink:href="#DejaVuSans-118"/>
      <use x="626.191406" xlink:href="#DejaVuSans-97"/>
      <use x="687.470703" xlink:href="#DejaVuSans-108"/>
      <use x="715.253906" xlink:href="#DejaVuSans-115"/>
      <use x="767.353516" xlink:href="#DejaVuSans-32"/>
      <use x="799.140625" xlink:href="#DejaVuSans-47"/>
      <use x="832.832031" xlink:href="#DejaVuSans-32"/>
      <use x="864.619141" xlink:href="#DejaVuSans-100"/>
      <use x="928.095703" xlink:href="#DejaVuSans-105"/>
      <use x="955.878906" xlink:href="#DejaVuSans-109"/>
      <use x="1053.291016" xlink:href="#DejaVuSans-101"/>
      <use x="1114.814453" xlink:href="#DejaVuSans-110"/>
      <use x="1178.193359" xlink:href="#DejaVuSans-115"/>
      <use x="1230.292969" xlink:href="#DejaVuSans-105"/>
      <use x="1258.076172" xlink:href="#DejaVuSans-111"/>
      <use x="1319.257812" xlink:href="#DejaVuSans-110"/>
      <use x="1382.636719" xlink:href="#DejaVuSans-41"/>
     </g>
    </g>
   </g>
   <g id="matplotlib.axis_2">
    <g id="ytick_1">
     <g id="line2d_29">
      <path clip-path="url(#p4b3010a628)" d="M 57.6 298.944 
L 338.688 298.944 
" style="fill:none;stroke:#b0b0b0;stroke-linecap:square;stroke-width:0.8;"/>
     </g>
     <g id="line2d_30">
      <defs>
       <path d="M 0 0 
L -3.5 0 
" id="md25b8defc0" style="stroke:#000000;stroke-width:0.8;"/>
      </defs>
      <g>
       <use style="stroke:#000000;stroke-width:0.8;" x="57.6" xlink:href="#md25b8defc0" y="298.944"/>
      </g>
     </g>
     <g id="text_6">
      <!-- 0.0 -->
      <defs>
       <path d="M 10.6875 12.40625 
L 21 12.40625 
L 21 0 
L 10.6875 0 
z
" id="DejaVuSans-46"/>
      </defs>
      <g transform="translate(25.155 305.02275)scale(0.16 -0.16)">
       <use xlink:href="#DejaVuSans-48"/>
       <use x="63.623047" xlink:href="#DejaVuSans-46"/>
       <use x="95.410156" xlink:href="#DejaVuSans-48"/>
      </g>
     </g>
    </g>
    <g id="ytick_2">
     <g id="line2d_31">
      <path clip-path="url(#p4b3010a628)" d="M 57.6 247.959446 
L 338.688 247.959446 
" style="fill:none;stroke:#b0b0b0;stroke-linecap:square;stroke-width:0.8;"/>
     </g>
     <g id="line2d_32">
      <g>
       <use style="stroke:#000000;stroke-width:0.8;" x="57.6" xlink:href="#md25b8defc0" y="247.959446"/>
      </g>
     </g>
     <g id="text_7">
      <!-- 0.2 -->
      <g transform="translate(25.155 254.038196)scale(0.16 -0.16)">
       <use xlink:href="#DejaVuSans-48"/>
       <use x="63.623047" xlink:href="#DejaVuSans-46"/>
       <use x="95.410156" xlink:href="#DejaVuSans-50"/>
      </g>
     </g>
    </g>
    <g id="ytick_3">
     <g id="line2d_33">
      <path clip-path="url(#p4b3010a628)" d="M 57.6 196.974891 
L 338.688 196.974891 
" style="fill:none;stroke:#b0b0b0;stroke-linecap:square;stroke-width:0.8;"/>
     </g>
     <g id="line2d_34">
      <g>
       <use style="stroke:#000000;stroke-width:0.8;" x="57.6" xlink:href="#md25b8defc0" y="196.974891"/>
      </g>
     </g>
     <g id="text_8">
      <!-- 0.4 -->
      <g transform="translate(25.155 203.053641)scale(0.16 -0.16)">
       <use xlink:href="#DejaVuSans-48"/>
       <use x="63.623047" xlink:href="#DejaVuSans-46"/>
       <use x="95.410156" xlink:href="#DejaVuSans-52"/>
      </g>
     </g>
    </g>
    <g id="ytick_4">
     <g id="line2d_35">
      <path clip-path="url(#p4b3010a628)" d="M 57.6 145.990337 
L 338.688 145.990337 
" style="fill:none;stroke:#b0b0b0;stroke-linecap:square;stroke-width:0.8;"/>
     </g>
     <g id="line2d_36">
      <g>
       <use style="stroke:#000000;stroke-width:0.8;" x="57.6" xlink:href="#md25b8defc0" y="145.990337"/>
      </g>
     </g>
     <g id="text_9">
      <!-- 0.6 -->
      <g transform="translate(25.155 152.069087)scale(0.16 -0.16)">
       <use xlink:href="#DejaVuSans-48"/>
       <use x="63.623047" xlink:href="#DejaVuSans-46"/>
       <use x="95.410156" xlink:href="#DejaVuSans-54"/>
      </g>
     </g>
    </g>
    <g id="ytick_5">
     <g id="line2d_37">
      <path clip-path="url(#p4b3010a628)" d="M 57.6 95.005782 
L 338.688 95.005782 
" style="fill:none;stroke:#b0b0b0;stroke-linecap:square;stroke-width:0.8;"/>
     </g>
     <g id="line2d_38">
      <g>
       <use style="stroke:#000000;stroke-width:0.8;" x="57.6" xlink:href="#md25b8defc0" y="95.005782"/>
      </g>
     </g>
     <g id="text_10">
      <!-- 0.8 -->
      <defs>
       <path d="M 31.78125 34.625 
Q 24.75 34.625 20.71875 30.859375 
Q 16.703125 27.09375 16.703125 20.515625 
Q 16.703125 13.921875 20.71875 10.15625 
Q 24.75 6.390625 31.78125 6.390625 
Q 38.8125 6.390625 42.859375 10.171875 
Q 46.921875 13.96875 46.921875 20.515625 
Q 46.921875 27.09375 42.890625 30.859375 
Q 38.875 34.625 31.78125 34.625 
z
M 21.921875 38.8125 
Q 15.578125 40.375 12.03125 44.71875 
Q 8.5 49.078125 8.5 55.328125 
Q 8.5 64.0625 14.71875 69.140625 
Q 20.953125 74.21875 31.78125 74.21875 
Q 42.671875 74.21875 48.875 69.140625 
Q 55.078125 64.0625 55.078125 55.328125 
Q 55.078125 49.078125 51.53125 44.71875 
Q 48 40.375 41.703125 38.8125 
Q 48.828125 37.15625 52.796875 32.3125 
Q 56.78125 27.484375 56.78125 20.515625 
Q 56.78125 9.90625 50.3125 4.234375 
Q 43.84375 -1.421875 31.78125 -1.421875 
Q 19.734375 -1.421875 13.25 4.234375 
Q 6.78125 9.90625 6.78125 20.515625 
Q 6.78125 27.484375 10.78125 32.3125 
Q 14.796875 37.15625 21.921875 38.8125 
z
M 18.3125 54.390625 
Q 18.3125 48.734375 21.84375 45.5625 
Q 25.390625 42.390625 31.78125 42.390625 
Q 38.140625 42.390625 41.71875 45.5625 
Q 45.3125 48.734375 45.3125 54.390625 
Q 45.3125 60.0625 41.71875 63.234375 
Q 38.140625 66.40625 31.78125 66.40625 
Q 25.390625 66.40625 21.84375 63.234375 
Q 18.3125 60.0625 18.3125 54.390625 
z
" id="DejaVuSans-56"/>
      </defs>
      <g transform="translate(25.155 101.084532)scale(0.16 -0.16)">
       <use xlink:href="#DejaVuSans-48"/>
       <use x="63.623047" xlink:href="#DejaVuSans-46"/>
       <use x="95.410156" xlink:href="#DejaVuSans-56"/>
      </g>
     </g>
    </g>
    <g id="ytick_6">
     <g id="line2d_39">
      <path clip-path="url(#p4b3010a628)" d="M 57.6 44.021228 
L 338.688 44.021228 
" style="fill:none;stroke:#b0b0b0;stroke-linecap:square;stroke-width:0.8;"/>
     </g>
     <g id="line2d_40">
      <g>
       <use style="stroke:#000000;stroke-width:0.8;" x="57.6" xlink:href="#md25b8defc0" y="44.021228"/>
      </g>
     </g>
     <g id="text_11">
      <!-- 1.0 -->
      <g transform="translate(25.155 50.099978)scale(0.16 -0.16)">
       <use xlink:href="#DejaVuSans-49"/>
       <use x="63.623047" xlink:href="#DejaVuSans-46"/>
       <use x="95.410156" xlink:href="#DejaVuSans-48"/>
      </g>
     </g>
    </g>
    <g id="text_12">
     <!-- Fraction of function,target pairs -->
     <defs>
      <path d="M 9.8125 72.90625 
L 51.703125 72.90625 
L 51.703125 64.59375 
L 19.671875 64.59375 
L 19.671875 43.109375 
L 48.578125 43.109375 
L 48.578125 34.8125 
L 19.671875 34.8125 
L 19.671875 0 
L 9.8125 0 
z
" id="DejaVuSans-70"/>
      <path d="M 41.109375 46.296875 
Q 39.59375 47.171875 37.8125 47.578125 
Q 36.03125 48 33.890625 48 
Q 26.265625 48 22.1875 43.046875 
Q 18.109375 38.09375 18.109375 28.8125 
L 18.109375 0 
L 9.078125 0 
L 9.078125 54.6875 
L 18.109375 54.6875 
L 18.109375 46.1875 
Q 20.953125 51.171875 25.484375 53.578125 
Q 30.03125 56 36.53125 56 
Q 37.453125 56 38.578125 55.875 
Q 39.703125 55.765625 41.0625 55.515625 
z
" id="DejaVuSans-114"/>
      <path d="M 48.78125 52.59375 
L 48.78125 44.1875 
Q 44.96875 46.296875 41.140625 47.34375 
Q 37.3125 48.390625 33.40625 48.390625 
Q 24.65625 48.390625 19.8125 42.84375 
Q 14.984375 37.3125 14.984375 27.296875 
Q 14.984375 17.28125 19.8125 11.734375 
Q 24.65625 6.203125 33.40625 6.203125 
Q 37.3125 6.203125 41.140625 7.25 
Q 44.96875 8.296875 48.78125 10.40625 
L 48.78125 2.09375 
Q 45.015625 0.34375 40.984375 -0.53125 
Q 36.96875 -1.421875 32.421875 -1.421875 
Q 20.0625 -1.421875 12.78125 6.34375 
Q 5.515625 14.109375 5.515625 27.296875 
Q 5.515625 40.671875 12.859375 48.328125 
Q 20.21875 56 33.015625 56 
Q 37.15625 56 41.109375 55.140625 
Q 45.0625 54.296875 48.78125 52.59375 
z
" id="DejaVuSans-99"/>
      <path d="M 18.3125 70.21875 
L 18.3125 54.6875 
L 36.8125 54.6875 
L 36.8125 47.703125 
L 18.3125 47.703125 
L 18.3125 18.015625 
Q 18.3125 11.328125 20.140625 9.421875 
Q 21.96875 7.515625 27.59375 7.515625 
L 36.8125 7.515625 
L 36.8125 0 
L 27.59375 0 
Q 17.1875 0 13.234375 3.875 
Q 9.28125 7.765625 9.28125 18.015625 
L 9.28125 47.703125 
L 2.6875 47.703125 
L 2.6875 54.6875 
L 9.28125 54.6875 
L 9.28125 70.21875 
z
" id="DejaVuSans-116"/>
      <path d="M 8.5 21.578125 
L 8.5 54.6875 
L 17.484375 54.6875 
L 17.484375 21.921875 
Q 17.484375 14.15625 20.5 10.265625 
Q 23.53125 6.390625 29.59375 6.390625 
Q 36.859375 6.390625 41.078125 11.03125 
Q 45.3125 15.671875 45.3125 23.6875 
L 45.3125 54.6875 
L 54.296875 54.6875 
L 54.296875 0 
L 45.3125 0 
L 45.3125 8.40625 
Q 42.046875 3.421875 37.71875 1 
Q 33.40625 -1.421875 27.6875 -1.421875 
Q 18.265625 -1.421875 13.375 4.4375 
Q 8.5 10.296875 8.5 21.578125 
z
M 31.109375 56 
z
" id="DejaVuSans-117"/>
      <path d="M 11.71875 12.40625 
L 22.015625 12.40625 
L 22.015625 4 
L 14.015625 -11.625 
L 7.71875 -11.625 
L 11.71875 4 
z
" id="DejaVuSans-44"/>
      <path d="M 18.109375 8.203125 
L 18.109375 -20.796875 
L 9.078125 -20.796875 
L 9.078125 54.6875 
L 18.109375 54.6875 
L 18.109375 46.390625 
Q 20.953125 51.265625 25.265625 53.625 
Q 29.59375 56 35.59375 56 
Q 45.5625 56 51.78125 48.09375 
Q 58.015625 40.1875 58.015625 27.296875 
Q 58.015625 14.40625 51.78125 6.484375 
Q 45.5625 -1.421875 35.59375 -1.421875 
Q 29.59375 -1.421875 25.265625 0.953125 
Q 20.953125 3.328125 18.109375 8.203125 
z
M 48.6875 27.296875 
Q 48.6875 37.203125 44.609375 42.84375 
Q 40.53125 48.484375 33.40625 48.484375 
Q 26.265625 48.484375 22.1875 42.84375 
Q 18.109375 37.203125 18.109375 27.296875 
Q 18.109375 17.390625 22.1875 11.75 
Q 26.265625 6.109375 33.40625 6.109375 
Q 40.53125 6.109375 44.609375 11.75 
Q 48.6875 17.390625 48.6875 27.296875 
z
" id="DejaVuSans-112"/>
     </defs>
     <g transform="translate(17.619531 305.347375)rotate(-90)scale(0.17 -0.17)">
      <use xlink:href="#DejaVuSans-70"/>
      <use x="57.410156" xlink:href="#DejaVuSans-114"/>
      <use x="98.523438" xlink:href="#DejaVuSans-97"/>
      <use x="159.802734" xlink:href="#DejaVuSans-99"/>
      <use x="214.783203" xlink:href="#DejaVuSans-116"/>
      <use x="253.992188" xlink:href="#DejaVuSans-105"/>
      <use x="281.775391" xlink:href="#DejaVuSans-111"/>
      <use x="342.957031" xlink:href="#DejaVuSans-110"/>
      <use x="406.335938" xlink:href="#DejaVuSans-32"/>
      <use x="438.123047" xlink:href="#DejaVuSans-111"/>
      <use x="499.304688" xlink:href="#DejaVuSans-102"/>
      <use x="534.509766" xlink:href="#DejaVuSans-32"/>
      <use x="566.296875" xlink:href="#DejaVuSans-102"/>
      <use x="601.501953" xlink:href="#DejaVuSans-117"/>
      <use x="664.880859" xlink:href="#DejaVuSans-110"/>
      <use x="728.259766" xlink:href="#DejaVuSans-99"/>
      <use x="783.240234" xlink:href="#DejaVuSans-116"/>
      <use x="822.449219" xlink:href="#DejaVuSans-105"/>
      <use x="850.232422" xlink:href="#DejaVuSans-111"/>
      <use x="911.414062" xlink:href="#DejaVuSans-110"/>
      <use x="974.792969" xlink:href="#DejaVuSans-44"/>
      <use x="1006.580078" xlink:href="#DejaVuSans-116"/>
      <use x="1045.789062" xlink:href="#DejaVuSans-97"/>
      <use x="1107.068359" xlink:href="#DejaVuSans-114"/>
      <use x="1148.166016" xlink:href="#DejaVuSans-103"/>
      <use x="1211.642578" xlink:href="#DejaVuSans-101"/>
      <use x="1273.166016" xlink:href="#DejaVuSans-116"/>
      <use x="1312.375" xlink:href="#DejaVuSans-32"/>
      <use x="1344.162109" xlink:href="#DejaVuSans-112"/>
      <use x="1407.638672" xlink:href="#DejaVuSans-97"/>
      <use x="1468.917969" xlink:href="#DejaVuSans-105"/>
      <use x="1496.701172" xlink:href="#DejaVuSans-114"/>
      <use x="1537.814453" xlink:href="#DejaVuSans-115"/>
     </g>
    </g>
   </g>
   <g id="line2d_41">
    <defs>
     <path d="M 0 1.5 
C 0.397805 1.5 0.77937 1.341951 1.06066 1.06066 
C 1.341951 0.77937 1.5 0.397805 1.5 0 
C 1.5 -0.397805 1.341951 -0.77937 1.06066 -1.06066 
C 0.77937 -1.341951 0.397805 -1.5 0 -1.5 
C -0.397805 -1.5 -0.77937 -1.341951 -1.06066 -1.06066 
C -1.341951 -0.77937 -1.5 -0.397805 -1.5 0 
C -1.5 0.397805 -1.341951 0.77937 -1.06066 1.06066 
C -0.77937 1.341951 -0.397805 1.5 0 1.5 
z
" id="m5fc11f8957" style="stroke:#f5deb3;"/>
    </defs>
    <g>
     <use style="fill:#f5deb3;stroke:#f5deb3;" x="261.188307" xlink:href="#m5fc11f8957" y="74.787769"/>
     <use style="fill:#f5deb3;stroke:#f5deb3;" x="261.188307" xlink:href="#m5fc11f8957" y="74.787769"/>
    </g>
   </g>
   <g id="line2d_42">
    <defs>
     <path d="M 0 1.5 
C 0.397805 1.5 0.77937 1.341951 1.06066 1.06066 
C 1.341951 0.77937 1.5 0.397805 1.5 0 
C 1.5 -0.397805 1.341951 -0.77937 1.06066 -1.06066 
C 0.77937 -1.341951 0.397805 -1.5 0 -1.5 
C -0.397805 -1.5 -0.77937 -1.341951 -1.06066 -1.06066 
C -1.341951 -0.77937 -1.5 -0.397805 -1.5 0 
C -1.5 0.397805 -1.341951 0.77937 -1.06066 1.06066 
C -0.77937 1.341951 -0.397805 1.5 0 1.5 
z
" id="mcb72fce59d" style="stroke:#000080;"/>
    </defs>
    <g>
     <use style="fill:#000080;stroke:#000080;" x="232.877984" xlink:href="#mcb72fce59d" y="166.647872"/>
     <use style="fill:#000080;stroke:#000080;" x="232.877984" xlink:href="#mcb72fce59d" y="166.647872"/>
    </g>
   </g>
   <g id="line2d_43">
    <path d="M 38.440992 298.944 
L 38.440992 293.230214 
L 66.508432 293.230214 
L 66.508432 291.472126 
L 69.687988 291.472126 
L 69.687988 290.593082 
L 72.376266 290.593082 
L 72.376266 286.637383 
L 74.704957 286.637383 
L 74.704957 286.197861 
L 76.759008 286.197861 
L 76.759008 284.000251 
L 78.59642 284.000251 
L 78.59642 281.363119 
L 80.258561 281.363119 
L 80.258561 279.605031 
L 81.775977 279.605031 
L 81.775977 276.528377 
L 83.171864 276.528377 
L 83.171864 273.451723 
L 84.464254 273.451723 
L 84.464254 273.012201 
L 85.66744 273.012201 
L 85.66744 272.133157 
L 86.792945 272.133157 
L 86.792945 269.935547 
L 87.850195 269.935547 
L 87.850195 267.298414 
L 88.846997 267.298414 
L 88.846997 261.145106 
L 89.78989 261.145106 
L 89.78989 258.507974 
L 90.684409 258.507974 
L 90.684409 256.749886 
L 91.535274 256.749886 
L 91.535274 253.673232 
L 92.34655 253.673232 
L 92.34655 251.0361 
L 93.121756 251.0361 
L 93.121756 250.157056 
L 94.575872 250.157056 
L 94.575872 249.717534 
L 95.259853 249.717534 
L 95.259853 249.278012 
L 95.918017 249.278012 
L 95.918017 247.080402 
L 96.552242 247.080402 
L 96.552242 246.201357 
L 97.16421 246.201357 
L 97.16421 245.322313 
L 97.755429 245.322313 
L 97.755429 242.685181 
L 99.938184 242.685181 
L 99.938184 241.366615 
L 100.443706 241.366615 
L 100.443706 239.608527 
L 101.877879 239.608527 
L 101.877879 239.169005 
L 102.772397 239.169005 
L 102.772397 238.729483 
L 103.203018 238.729483 
L 103.203018 237.410917 
L 103.623262 237.410917 
L 103.623262 236.531873 
L 104.434538 236.531873 
L 104.434538 236.092351 
L 105.951954 236.092351 
L 105.951954 235.652829 
L 106.311539 235.652829 
L 106.311539 234.334263 
L 108.006005 234.334263 
L 108.006005 233.455219 
L 110.131676 233.455219 
L 110.131676 233.015697 
L 110.415248 233.015697 
L 110.415248 232.576175 
L 111.505558 232.576175 
L 111.505558 231.697131 
L 112.531694 231.697131 
L 112.531694 231.257609 
L 113.500792 231.257609 
L 113.500792 229.939043 
L 117.297733 229.939043 
L 117.297733 229.059999 
L 117.672786 229.059999 
L 117.672786 227.741433 
L 118.751849 227.741433 
L 118.751849 226.862389 
L 119.43583 226.862389 
L 119.43583 226.422867 
L 119.768017 226.422867 
L 119.768017 225.983344 
L 119.931767 225.983344 
L 119.931767 224.225256 
L 120.728219 224.225256 
L 120.728219 223.346212 
L 121.785469 223.346212 
L 121.785469 222.90669 
L 122.076131 222.90669 
L 122.076131 222.467168 
L 123.855796 222.467168 
L 123.855796 221.588124 
L 125.938745 221.588124 
L 125.938745 221.148602 
L 126.50685 221.148602 
L 126.50685 220.70908 
L 126.839037 220.70908 
L 126.839037 220.269558 
L 128.005624 220.269558 
L 128.005624 219.390514 
L 128.807571 219.390514 
L 128.905271 217.192904 
L 129.002426 217.192904 
L 129.002426 216.753382 
L 129.385722 216.753382 
L 129.385722 215.874338 
L 130.036864 215.874338 
L 130.036864 214.555772 
L 131.355321 214.555772 
L 131.355321 214.11625 
L 133.428175 214.11625 
L 133.428175 213.676728 
L 134.591225 213.676728 
L 134.591225 213.237206 
L 134.870259 213.237206 
L 134.870259 212.797684 
L 135.548916 212.797684 
L 135.548916 211.479118 
L 135.878591 211.479118 
L 135.878591 211.039596 
L 138.706272 211.039596 
L 138.706272 210.600074 
L 140.79731 210.600074 
L 140.79731 210.160552 
L 145.888018 210.160552 
L 145.888018 209.72103 
L 149.557321 209.72103 
L 149.557321 209.281508 
L 151.042412 209.281508 
L 151.042412 208.841986 
L 152.001148 208.841986 
L 152.001148 207.962942 
L 156.776762 207.962942 
L 156.776762 207.083898 
L 156.972711 207.083898 
L 156.972711 206.644376 
L 160.346039 206.644376 
L 160.346039 206.204854 
L 162.317821 206.204854 
L 162.317821 205.765332 
L 164.76265 205.765332 
L 164.76265 204.886287 
L 169.331381 204.886287 
L 169.331381 204.446765 
L 173.613646 204.446765 
L 173.613646 204.007243 
L 177.177886 204.007243 
L 177.177886 203.567721 
L 178.176386 203.567721 
L 178.176386 202.688677 
L 179.980262 202.688677 
L 180.084129 196.535369 
L 180.228512 196.535369 
L 180.228512 196.095847 
L 180.51374 196.095847 
L 180.51374 195.656325 
L 185.862228 195.656325 
L 185.862228 195.216803 
L 187.615046 195.216803 
L 187.615046 194.337759 
L 191.156727 194.337759 
L 191.156727 193.458715 
L 193.229368 193.458715 
L 193.268311 191.261105 
L 193.626854 191.261105 
L 193.626854 190.821583 
L 194.233072 190.821583 
L 194.233072 190.382061 
L 194.792209 190.382061 
L 194.792209 189.503017 
L 195.392188 189.503017 
L 195.465219 188.184451 
L 195.527269 188.184451 
L 195.527269 187.305407 
L 195.739557 187.305407 
L 195.739557 186.865885 
L 196.383727 186.865885 
L 196.383727 186.426363 
L 196.678119 186.426363 
L 196.678119 185.547319 
L 196.841309 185.547319 
L 196.841309 185.107797 
L 198.50273 185.107797 
L 198.50273 184.668274 
L 198.713944 184.668274 
L 198.769011 182.910186 
L 199.842007 182.910186 
L 199.842007 182.470664 
L 200.340141 182.470664 
L 200.374144 181.152098 
L 201.043747 181.152098 
L 201.043747 180.712576 
L 201.289516 180.712576 
L 201.382894 179.39401 
L 201.474255 179.39401 
L 201.474255 178.954488 
L 202.749279 178.954488 
L 202.749279 178.514966 
L 204.287269 178.514966 
L 204.34018 177.1964 
L 205.877235 177.1964 
L 205.877235 176.756878 
L 206.703306 176.756878 
L 206.703306 175.877834 
L 207.133434 175.877834 
L 207.133434 174.99879 
L 208.003893 174.99879 
L 208.003893 174.119746 
L 209.239494 174.119746 
L 209.295835 172.80118 
L 210.111474 172.80118 
L 210.111474 171.922136 
L 210.978066 171.922136 
L 210.978066 171.482614 
L 212.123209 171.482614 
L 212.123209 171.043092 
L 213.730762 171.043092 
L 213.730762 170.60357 
L 215.035878 170.60357 
L 215.035878 169.724526 
L 217.89725 169.724526 
L 217.89725 169.285004 
L 225.579087 169.285004 
L 225.579087 168.845482 
L 226.839643 168.845482 
L 226.839643 167.966438 
L 227.634791 167.966438 
L 227.634791 167.526916 
L 228.412119 167.526916 
L 228.412119 167.087394 
L 232.877984 167.087394 
L 232.877984 166.647872 
L 338.688 166.647872 
L 338.688 166.647872 
" style="fill:none;stroke:#000080;stroke-linecap:square;stroke-width:1.5;"/>
   </g>
   <g id="line2d_44">
    <defs>
     <path d="M 0 6 
C 1.591219 6 3.117479 5.367802 4.242641 4.242641 
C 5.367802 3.117479 6 1.591219 6 0 
C 6 -1.591219 5.367802 -3.117479 4.242641 -4.242641 
C 3.117479 -5.367802 1.591219 -6 0 -6 
C -1.591219 -6 -3.117479 -5.367802 -4.242641 -4.242641 
C -5.367802 -3.117479 -6 -1.591219 -6 0 
C -6 1.591219 -5.367802 3.117479 -4.242641 4.242641 
C -3.117479 5.367802 -1.591219 6 0 6 
z
" id="mda11aad822" style="stroke:#000080;stroke-width:1.5;"/>
    </defs>
    <g>
     <use style="fill-opacity:0;stroke:#000080;stroke-width:1.5;" x="97.755429" xlink:href="#mda11aad822" y="242.685181"/>
     <use style="fill-opacity:0;stroke:#000080;stroke-width:1.5;" x="152.001148" xlink:href="#mda11aad822" y="207.962942"/>
     <use style="fill-opacity:0;stroke:#000080;stroke-width:1.5;" x="217.89725" xlink:href="#mda11aad822" y="169.724526"/>
     <use style="fill-opacity:0;stroke:#000080;stroke-width:1.5;" x="232.877984" xlink:href="#mda11aad822" y="166.647872"/>
     <use style="fill-opacity:0;stroke:#000080;stroke-width:1.5;" x="232.877984" xlink:href="#mda11aad822" y="166.647872"/>
     <use style="fill-opacity:0;stroke:#000080;stroke-width:1.5;" x="338.688" xlink:href="#mda11aad822" y="166.647872"/>
    </g>
   </g>
   <g id="line2d_45">
    <path style="fill:none;stroke:#000080;stroke-linecap:square;stroke-width:1.5;"/>
    <g/>
   </g>
   <g id="line2d_46">
    <path clip-path="url(#p4b3010a628)" d="M 214.495142 170.60357 
" style="fill:none;stroke:#000080;stroke-linecap:square;stroke-width:1.5;"/>
    <defs>
     <path d="M -12 12 
L 12 -12 
M -12 -12 
L 12 12 
" id="mf84805fcd3" style="stroke:#000080;"/>
    </defs>
    <g clip-path="url(#p4b3010a628)">
     <use style="fill:#000080;stroke:#000080;" x="214.495142" xlink:href="#mf84805fcd3" y="170.60357"/>
    </g>
   </g>
   <g id="line2d_47">
    <defs>
     <path d="M 0 1.5 
C 0.397805 1.5 0.77937 1.341951 1.06066 1.06066 
C 1.341951 0.77937 1.5 0.397805 1.5 0 
C 1.5 -0.397805 1.341951 -0.77937 1.06066 -1.06066 
C 0.77937 -1.341951 0.397805 -1.5 0 -1.5 
C -0.397805 -1.5 -0.77937 -1.341951 -1.06066 -1.06066 
C -1.341951 -0.77937 -1.5 -0.397805 -1.5 0 
C -1.5 0.397805 -1.341951 0.77937 -1.06066 1.06066 
C -0.77937 1.341951 -0.397805 1.5 0 1.5 
z
" id="m5f35e26cba" style="stroke:#ff00ff;"/>
    </defs>
    <g>
     <use style="fill:#ff00ff;stroke:#ff00ff;" x="254.839" xlink:href="#m5f35e26cba" y="123.135192"/>
     <use style="fill:#ff00ff;stroke:#ff00ff;" x="254.839" xlink:href="#m5f35e26cba" y="123.135192"/>
    </g>
   </g>
   <g id="line2d_48">
    <path d="M 38.440992 298.944 
L 38.440992 290.15356 
L 137.968891 290.15356 
L 137.968891 288.834994 
L 139.413734 288.834994 
L 139.413734 288.395471 
L 140.89556 288.395471 
L 140.89556 286.637383 
L 141.090414 286.637383 
L 141.090414 284.439773 
L 142.840411 284.439773 
L 142.840411 284.000251 
L 144.981877 284.000251 
L 144.981877 282.242163 
L 145.665858 282.242163 
L 145.665858 278.725987 
L 146.034567 278.725987 
L 146.034567 276.088855 
L 146.679213 276.088855 
L 146.679213 275.649333 
L 146.888907 275.649333 
L 146.888907 274.770289 
L 147.232888 274.770289 
L 147.232888 274.330767 
L 147.570215 274.330767 
L 147.570215 273.451723 
L 148.064279 273.451723 
L 148.064279 273.012201 
L 148.193699 273.012201 
L 148.193699 268.616981 
L 149.043029 268.616981 
L 149.043029 267.737936 
L 149.256637 267.737936 
L 149.256637 264.661282 
L 149.676158 264.661282 
L 149.676158 263.342716 
L 150.143571 263.342716 
L 150.229833 261.584628 
L 150.31567 261.584628 
L 150.344189 259.82654 
L 150.904986 259.82654 
L 150.904986 259.387018 
L 151.042412 259.387018 
L 151.042412 258.947496 
L 151.233007 258.947496 
L 151.287083 255.870842 
L 151.501723 255.870842 
L 151.581536 254.112754 
L 151.634543 254.112754 
L 151.634543 253.673232 
L 151.792604 253.673232 
L 151.792604 253.23371 
L 151.975216 253.23371 
L 151.975216 252.354666 
L 152.104493 252.354666 
L 152.181601 250.157056 
L 152.761703 250.157056 
L 152.761703 247.959446 
L 153.032466 247.959446 
L 153.129893 244.882791 
L 153.561699 244.882791 
L 153.656221 242.685181 
L 153.843742 242.685181 
L 153.913546 240.927093 
L 153.959927 240.927093 
L 153.959927 240.487571 
L 154.144227 240.487571 
L 154.144227 240.048049 
L 154.663493 240.048049 
L 154.707925 239.169005 
L 154.928399 239.169005 
L 155.015814 237.850439 
L 155.102793 237.850439 
L 155.210911 235.652829 
L 155.275461 235.652829 
L 155.339773 233.894741 
L 155.55245 233.894741 
L 155.573575 232.136653 
L 155.699795 232.136653 
L 155.741666 229.939043 
L 155.908152 229.939043 
L 155.908152 228.180955 
L 156.031982 228.180955 
L 156.031982 227.741433 
L 156.638275 227.741433 
L 156.677955 225.983344 
L 156.855406 225.983344 
L 156.855406 225.1043 
L 157.031069 225.1043 
L 157.031069 224.664778 
L 157.243392 224.664778 
L 157.28172 222.467168 
L 157.396202 222.467168 
L 157.472107 221.148602 
L 157.772468 221.148602 
L 157.828215 218.51147 
L 157.994392 218.51147 
L 157.994392 217.632426 
L 158.447857 217.632426 
L 158.447857 217.192904 
L 158.625992 217.192904 
L 158.625992 216.753382 
L 158.889829 216.753382 
L 158.889829 216.31386 
L 159.115303 216.31386 
L 159.201253 214.995294 
L 159.286782 214.995294 
L 159.388866 212.797684 
L 159.405822 212.797684 
L 159.405822 212.358162 
L 159.658204 212.358162 
L 159.724893 211.039596 
L 159.807898 211.039596 
L 159.807898 210.600074 
L 160.054568 210.600074 
L 160.054568 210.160552 
L 160.616915 210.160552 
L 160.616915 209.72103 
L 160.774311 209.72103 
L 160.883648 207.962942 
L 161.238149 207.962942 
L 161.253399 206.644376 
L 161.359783 206.644376 
L 161.359783 205.325809 
L 161.510643 205.325809 
L 161.570623 203.567721 
L 162.317821 203.567721 
L 162.317821 203.128199 
L 162.432178 203.128199 
L 162.432178 202.249155 
L 162.992975 202.249155 
L 163.048075 200.930589 
L 163.52292 200.930589 
L 163.52292 200.051545 
L 163.682792 200.051545 
L 163.722532 198.293457 
L 163.814908 198.293457 
L 163.814908 197.853935 
L 164.923954 197.853935 
L 164.973287 196.974891 
L 165.059286 196.974891 
L 165.071537 196.095847 
L 165.411116 196.095847 
L 165.411116 195.216803 
L 165.55465 195.216803 
L 165.637836 192.579671 
L 165.720627 192.579671 
L 165.720627 192.140149 
L 166.939538 192.140149 
L 166.939538 190.821583 
L 167.136471 190.821583 
L 167.136471 189.942539 
L 167.438457 189.942539 
L 167.438457 189.503017 
L 167.640438 189.503017 
L 167.640438 188.623973 
L 168.11997 188.623973 
L 168.181557 186.865885 
L 169.157854 186.865885 
L 169.157854 185.986841 
L 169.971772 185.986841 
L 169.971772 185.547319 
L 170.219663 185.547319 
L 170.219663 184.668274 
L 170.419074 184.668274 
L 170.419074 184.228752 
L 170.802371 184.228752 
L 170.85519 183.349708 
L 171.754542 183.349708 
L 171.754542 182.910186 
L 171.879317 182.910186 
L 171.895887 181.152098 
L 172.06072 181.152098 
L 172.06072 180.712576 
L 172.183331 180.712576 
L 172.183331 179.833532 
L 174.584164 179.833532 
L 174.584164 179.39401 
L 175.163549 179.39401 
L 175.163549 178.954488 
L 175.408984 178.954488 
L 175.408984 178.075444 
L 176.203019 178.075444 
L 176.203019 176.756878 
L 177.354379 176.756878 
L 177.354379 175.877834 
L 178.037196 175.877834 
L 178.037196 175.438312 
L 178.542219 175.438312 
L 178.542219 174.99879 
L 180.202817 174.99879 
L 180.274668 171.922136 
L 180.589355 171.922136 
L 180.589355 171.482614 
L 181.756623 171.482614 
L 181.756623 171.043092 
L 182.632784 171.043092 
L 182.632784 170.164048 
L 183.07017 170.164048 
L 183.07017 169.285004 
L 183.875892 169.285004 
L 183.875892 168.845482 
L 184.602123 168.845482 
L 184.602123 168.40596 
L 185.1528 168.40596 
L 185.1528 167.526916 
L 185.637733 167.526916 
L 185.637733 167.087394 
L 191.953277 167.087394 
L 191.953277 166.20835 
L 192.11247 166.20835 
L 192.11247 165.768828 
L 195.84474 165.768828 
L 195.84474 165.329306 
L 197.59911 165.329306 
L 197.59911 164.889784 
L 200.538363 164.889784 
L 200.538363 164.01074 
L 202.926244 164.01074 
L 202.926244 163.131695 
L 204.590925 163.131695 
L 204.62265 161.813129 
L 205.209811 161.813129 
L 205.209811 161.373607 
L 205.335622 161.373607 
L 205.335622 160.934085 
L 205.738644 160.934085 
L 205.738644 160.055041 
L 206.510955 160.055041 
L 206.510955 159.615519 
L 207.529613 159.615519 
L 207.529613 158.736475 
L 208.913443 158.736475 
L 208.913443 158.296953 
L 209.408936 158.296953 
L 209.408936 157.857431 
L 210.148455 157.857431 
L 210.148455 157.417909 
L 211.486632 157.417909 
L 211.486632 156.978387 
L 212.094322 156.978387 
L 212.094322 156.538865 
L 214.789206 156.538865 
L 214.789206 155.659821 
L 215.202556 155.659821 
L 215.202556 155.220299 
L 215.527817 155.220299 
L 215.527817 154.780777 
L 216.757486 154.780777 
L 216.839482 153.462211 
L 216.956134 153.462211 
L 217.04218 152.143645 
L 217.112323 152.143645 
L 217.112323 151.704123 
L 217.366925 151.704123 
L 217.366925 151.264601 
L 217.659337 151.264601 
L 217.659337 150.385557 
L 218.535685 150.385557 
L 218.535685 149.946035 
L 224.600597 149.946035 
L 224.600597 149.506513 
L 227.443659 149.506513 
L 227.547832 147.748425 
L 227.598837 147.748425 
L 227.685542 146.869381 
L 228.502622 146.869381 
L 228.568908 145.111293 
L 228.854008 145.111293 
L 228.854008 144.671771 
L 229.368311 144.671771 
L 229.368311 144.232249 
L 230.362232 144.232249 
L 230.45241 142.913682 
L 230.998155 142.913682 
L 230.998155 142.47416 
L 232.157662 142.47416 
L 232.157662 142.034638 
L 233.250016 142.034638 
L 233.250016 141.155594 
L 235.260057 141.155594 
L 235.260057 140.27655 
L 236.345718 140.27655 
L 236.345718 139.397506 
L 237.103376 139.397506 
L 237.103376 138.518462 
L 238.574399 138.518462 
L 238.574399 138.07894 
L 240.084937 138.07894 
L 240.084937 136.760374 
L 240.535395 136.760374 
L 240.535395 135.88133 
L 240.671985 135.88133 
L 240.671985 135.441808 
L 240.870126 135.441808 
L 240.870126 135.002286 
L 241.09347 135.002286 
L 241.09347 133.68372 
L 241.255436 133.68372 
L 241.286906 131.925632 
L 241.374351 131.925632 
L 241.374351 131.046588 
L 241.56258 131.046588 
L 241.575381 130.167544 
L 241.94916 130.167544 
L 241.94916 129.728022 
L 244.492 129.728022 
L 244.492 128.848978 
L 245.044438 128.848978 
L 245.044438 128.409456 
L 247.512914 128.409456 
L 247.512914 127.530412 
L 248.517193 127.530412 
L 248.517193 127.09089 
L 248.881902 127.09089 
L 248.964472 125.332802 
L 249.524814 125.332802 
L 249.524814 124.89328 
L 251.813309 124.89328 
L 251.908249 123.574714 
L 254.839 123.574714 
L 254.839 123.135192 
L 338.688 123.135192 
L 338.688 123.135192 
" style="fill:none;stroke:#ff00ff;stroke-linecap:square;stroke-width:1.5;"/>
   </g>
   <g id="line2d_49">
    <defs>
     <path d="M 0 8.485281 
L 5.091169 0 
L 0 -8.485281 
L -5.091169 0 
z
" id="m5d9b6bf37e" style="stroke:#ff00ff;stroke-linejoin:miter;stroke-width:1.5;"/>
    </defs>
    <g>
     <use style="fill-opacity:0;stroke:#ff00ff;stroke-linejoin:miter;stroke-width:1.5;" x="148.193699" xlink:href="#m5d9b6bf37e" y="273.012201"/>
     <use style="fill-opacity:0;stroke:#ff00ff;stroke-linejoin:miter;stroke-width:1.5;" x="183.07017" xlink:href="#m5d9b6bf37e" y="170.164048"/>
     <use style="fill-opacity:0;stroke:#ff00ff;stroke-linejoin:miter;stroke-width:1.5;" x="233.250016" xlink:href="#m5d9b6bf37e" y="142.034638"/>
     <use style="fill-opacity:0;stroke:#ff00ff;stroke-linejoin:miter;stroke-width:1.5;" x="254.839" xlink:href="#m5d9b6bf37e" y="123.135192"/>
     <use style="fill-opacity:0;stroke:#ff00ff;stroke-linejoin:miter;stroke-width:1.5;" x="254.839" xlink:href="#m5d9b6bf37e" y="123.135192"/>
     <use style="fill-opacity:0;stroke:#ff00ff;stroke-linejoin:miter;stroke-width:1.5;" x="338.688" xlink:href="#m5d9b6bf37e" y="123.135192"/>
    </g>
   </g>
   <g id="line2d_50">
    <path style="fill:none;stroke:#ff00ff;stroke-linecap:square;stroke-width:1.5;"/>
    <g/>
   </g>
   <g id="line2d_51">
    <path clip-path="url(#p4b3010a628)" d="M 258.384233 123.135192 
" style="fill:none;stroke:#ff00ff;stroke-linecap:square;stroke-width:1.5;"/>
    <defs>
     <path d="M -12 12 
L 12 -12 
M -12 -12 
L 12 12 
" id="m5da634a642" style="stroke:#ff00ff;"/>
    </defs>
    <g clip-path="url(#p4b3010a628)">
     <use style="fill:#ff00ff;stroke:#ff00ff;" x="258.384233" xlink:href="#m5da634a642" y="123.135192"/>
    </g>
   </g>
   <g id="line2d_52">
    <defs>
     <path d="M 0 1.5 
C 0.397805 1.5 0.77937 1.341951 1.06066 1.06066 
C 1.341951 0.77937 1.5 0.397805 1.5 0 
C 1.5 -0.397805 1.341951 -0.77937 1.06066 -1.06066 
C 0.77937 -1.341951 0.397805 -1.5 0 -1.5 
C -0.397805 -1.5 -0.77937 -1.341951 -1.06066 -1.06066 
C -1.341951 -0.77937 -1.5 -0.397805 -1.5 0 
C -1.5 0.397805 -1.341951 0.77937 -1.06066 1.06066 
C -0.77937 1.341951 -0.397805 1.5 0 1.5 
z
" id="m538bf0e4e1" style="stroke:#ffa500;"/>
    </defs>
    <g>
     <use style="fill:#ffa500;stroke:#ffa500;" x="242.745314" xlink:href="#m538bf0e4e1" y="125.772324"/>
     <use style="fill:#ffa500;stroke:#ffa500;" x="242.745314" xlink:href="#m538bf0e4e1" y="125.772324"/>
    </g>
   </g>
   <g id="line2d_53">
    <path d="M 38.440992 298.944 
L 38.440992 296.74639 
L 57.6 296.74639 
L 57.6 295.867346 
L 62.616969 295.867346 
L 62.616969 292.790692 
L 66.508432 292.790692 
L 66.508432 287.516427 
L 80.258561 287.516427 
L 80.258561 286.637383 
L 85.66744 286.637383 
L 85.66744 285.758339 
L 89.78989 285.758339 
L 89.78989 284.000251 
L 92.34655 284.000251 
L 92.34655 281.363119 
L 93.863965 281.363119 
L 93.863965 280.923597 
L 95.918017 280.923597 
L 95.918017 279.165509 
L 98.880934 279.165509 
L 98.880934 272.572679 
L 100.934985 272.572679 
L 100.934985 272.133157 
L 101.877879 272.133157 
L 101.877879 271.254113 
L 102.330873 271.254113 
L 102.330873 269.056503 
L 103.203018 269.056503 
L 103.203018 268.616981 
L 105.209745 268.616981 
L 105.209745 266.858892 
L 109.843417 266.858892 
L 109.843417 262.903194 
L 110.968922 262.903194 
L 110.968922 262.463672 
L 113.965867 262.463672 
L 113.965867 262.02415 
L 114.641021 262.02415 
L 114.641021 261.145106 
L 123.855796 261.145106 
L 123.855796 260.705584 
L 124.114161 260.705584 
L 124.114161 259.387018 
L 124.368753 259.387018 
L 124.368753 256.749886 
L 126.729009 256.749886 
L 126.729009 255.870842 
L 127.378995 255.870842 
L 127.378995 255.43132 
L 128.005624 255.43132 
L 128.005624 254.552276 
L 129.574256 254.552276 
L 129.574256 252.794188 
L 130.576266 252.794188 
L 130.576266 252.354666 
L 132.816208 252.354666 
L 132.816208 251.475622 
L 133.652238 251.475622 
L 133.652238 251.0361 
L 136.073445 251.0361 
L 136.073445 250.157056 
L 136.831795 250.157056 
L 136.831795 248.83849 
L 137.077422 248.83849 
L 137.077422 248.398968 
L 137.676769 248.398968 
L 137.676769 247.519924 
L 137.968891 247.519924 
L 138.026733 246.640879 
L 138.141844 246.640879 
L 138.141844 245.322313 
L 138.369812 245.322313 
L 138.369812 244.882791 
L 139.625765 244.882791 
L 139.625765 244.003747 
L 140.549236 244.003747 
L 140.549236 243.124703 
L 143.187472 243.124703 
L 143.273169 239.169005 
L 143.527762 239.169005 
L 143.527762 238.729483 
L 143.861538 238.729483 
L 143.861538 238.289961 
L 144.148442 238.289961 
L 144.148442 237.410917 
L 144.589967 237.410917 
L 144.589967 234.334263 
L 145.888018 234.334263 
L 145.888018 233.455219 
L 146.502522 233.455219 
L 146.502522 232.576175 
L 148.129109 232.576175 
L 148.129109 232.136653 
L 149.764758 232.136653 
L 149.764758 230.378565 
L 150.229833 230.378565 
L 150.229833 229.939043 
L 150.344189 229.939043 
L 150.344189 228.620477 
L 150.570677 228.620477 
L 150.570677 228.180955 
L 151.260066 228.180955 
L 151.260066 227.741433 
L 151.897188 227.741433 
L 151.897188 226.862389 
L 153.79705 226.862389 
L 153.79705 225.983344 
L 154.796449 225.983344 
L 154.796449 225.543822 
L 157.050478 225.543822 
L 157.050478 225.1043 
L 157.828215 225.1043 
L 157.828215 224.664778 
L 158.249784 224.664778 
L 158.249784 222.90669 
L 159.166924 222.90669 
L 159.166924 222.467168 
L 160.789972 222.467168 
L 160.836873 221.588124 
L 160.961329 221.588124 
L 160.961329 219.830036 
L 162.20271 219.830036 
L 162.260361 218.51147 
L 162.965359 218.51147 
L 162.965359 218.071948 
L 163.616356 218.071948 
L 163.616356 217.192904 
L 164.127963 217.192904 
L 164.127963 216.753382 
L 164.269589 216.753382 
L 164.269589 215.874338 
L 164.650098 215.874338 
L 164.650098 215.434816 
L 165.673366 215.434816 
L 165.673366 214.555772 
L 166.917519 214.555772 
L 166.917519 214.11625 
L 167.234109 214.11625 
L 167.234109 213.676728 
L 167.481174 213.676728 
L 167.481174 213.237206 
L 167.902688 213.237206 
L 167.902688 212.797684 
L 170.364915 212.797684 
L 170.364915 211.479118 
L 171.030109 211.479118 
L 171.030109 211.039596 
L 171.18605 211.039596 
L 171.18605 210.600074 
L 172.736497 210.600074 
L 172.736497 210.160552 
L 173.613646 210.160552 
L 173.613646 208.402464 
L 173.889107 208.402464 
L 173.889107 207.962942 
L 175.503506 207.962942 
L 175.503506 207.52342 
L 176.363988 207.52342 
L 176.363988 207.083898 
L 176.662646 207.083898 
L 176.706692 205.765332 
L 176.999587 205.765332 
L 176.999587 204.886287 
L 178.054656 204.886287 
L 178.054656 204.446765 
L 178.170609 204.446765 
L 178.245567 203.567721 
L 178.739084 203.567721 
L 178.739084 202.688677 
L 179.159062 202.688677 
L 179.159062 201.809633 
L 179.6755 201.809633 
L 179.6755 201.370111 
L 180.320702 201.370111 
L 180.371709 200.491067 
L 181.143816 200.491067 
L 181.177891 198.732979 
L 183.666333 198.732979 
L 183.666333 198.293457 
L 183.992154 198.293457 
L 183.992154 197.853935 
L 184.725567 197.853935 
L 184.725567 197.414413 
L 185.067409 197.414413 
L 185.067409 196.974891 
L 185.54712 196.974891 
L 185.54712 196.535369 
L 185.73537 196.535369 
L 185.73537 196.095847 
L 187.87865 196.095847 
L 187.87865 195.656325 
L 188.248911 195.656325 
L 188.248911 195.216803 
L 189.016363 195.216803 
L 189.016363 194.337759 
L 189.140025 194.337759 
L 189.140025 193.458715 
L 189.253636 193.458715 
L 189.253636 193.019193 
L 189.4575 193.019193 
L 189.4575 192.579671 
L 189.661998 192.579671 
L 189.661998 191.700627 
L 190.168801 191.700627 
L 190.168801 191.261105 
L 190.604734 191.261105 
L 190.604734 189.942539 
L 190.83546 189.942539 
L 190.83546 189.503017 
L 191.445211 189.503017 
L 191.445211 188.623973 
L 191.654485 188.623973 
L 191.654485 187.744929 
L 192.528321 187.744929 
L 192.528321 187.305407 
L 192.750128 187.305407 
L 192.777656 185.986841 
L 193.384622 185.986841 
L 193.384622 185.107797 
L 193.832847 185.107797 
L 193.868118 183.78923 
L 195.232174 183.78923 
L 195.232174 182.910186 
L 196.049077 182.910186 
L 196.150354 181.59162 
L 197.505928 181.59162 
L 197.505928 181.152098 
L 197.665365 181.152098 
L 197.665365 180.273054 
L 197.983643 180.273054 
L 198.07616 179.39401 
L 198.701485 179.39401 
L 198.701485 178.514966 
L 199.635662 178.514966 
L 199.635662 177.635922 
L 199.928513 177.635922 
L 199.928513 177.1964 
L 201.017264 177.1964 
L 201.017264 176.756878 
L 202.678554 176.756878 
L 202.678554 176.317356 
L 203.082052 176.317356 
L 203.082052 175.877834 
L 203.54669 175.877834 
L 203.54669 174.99879 
L 203.717118 174.99879 
L 203.717118 174.559268 
L 204.466003 174.559268 
L 204.519651 173.240702 
L 204.717481 173.240702 
L 204.717481 172.80118 
L 205.336839 172.80118 
L 205.336839 172.361658 
L 206.415122 172.361658 
L 206.415122 171.482614 
L 206.845632 171.482614 
L 206.845632 171.043092 
L 206.972407 171.043092 
L 206.972407 170.164048 
L 207.184956 170.164048 
L 207.184956 169.724526 
L 207.544631 169.724526 
L 207.544631 168.845482 
L 207.721725 168.845482 
L 207.721725 168.40596 
L 208.116324 168.40596 
L 208.116324 167.966438 
L 208.936229 167.966438 
L 208.936229 167.526916 
L 209.138991 167.526916 
L 209.211256 166.647872 
L 210.040064 166.647872 
L 210.040064 165.768828 
L 210.853452 165.768828 
L 210.853452 165.329306 
L 211.175092 165.329306 
L 211.175092 164.450262 
L 212.099278 164.450262 
L 212.099278 163.571217 
L 212.337131 163.571217 
L 212.383502 162.692173 
L 212.789832 162.692173 
L 212.789832 162.252651 
L 212.911642 162.252651 
L 212.911642 161.813129 
L 213.306757 161.813129 
L 213.306757 160.934085 
L 215.017725 160.934085 
L 215.017725 160.494563 
L 215.33339 160.494563 
L 215.33339 159.175997 
L 215.483664 159.175997 
L 215.483664 158.736475 
L 216.502745 158.736475 
L 216.502745 158.296953 
L 217.155634 158.296953 
L 217.155634 157.857431 
L 217.784363 157.857431 
L 217.784363 157.417909 
L 218.094526 157.417909 
L 218.094526 156.978387 
L 218.235079 156.978387 
L 218.345673 149.506513 
L 218.347982 149.506513 
L 218.457864 146.869381 
L 218.501395 146.869381 
L 218.594961 145.550815 
L 218.630204 145.550815 
L 218.733812 143.353205 
L 218.784542 143.353205 
L 218.784542 142.913682 
L 218.898987 142.913682 
L 218.918546 141.155594 
L 219.0543 141.155594 
L 219.082542 138.518462 
L 219.176903 138.518462 
L 219.198352 136.760374 
L 219.656194 136.760374 
L 219.656194 135.88133 
L 219.809182 135.88133 
L 219.880684 133.68372 
L 220.039583 133.68372 
L 220.115364 132.804676 
L 220.463867 132.804676 
L 220.463867 131.925632 
L 221.173074 131.925632 
L 221.173074 131.48611 
L 221.319211 131.48611 
L 221.399333 130.167544 
L 222.195297 130.167544 
L 222.195297 129.728022 
L 222.516782 129.728022 
L 222.516782 129.2885 
L 223.466515 129.2885 
L 223.466515 128.848978 
L 227.491895 128.848978 
L 227.491895 127.969934 
L 231.518391 127.969934 
L 231.616827 126.651368 
L 242.745314 126.651368 
L 242.745314 125.772324 
L 338.688 125.772324 
L 338.688 125.772324 
" style="fill:none;stroke:#ffa500;stroke-linecap:square;stroke-width:1.5;"/>
   </g>
   <g id="line2d_54">
    <defs>
     <path d="M 0 -6 
L -1.347084 -1.854102 
L -5.706339 -1.854102 
L -2.179628 0.708204 
L -3.526712 4.854102 
L -0 2.291796 
L 3.526712 4.854102 
L 2.179628 0.708204 
L 5.706339 -1.854102 
L 1.347084 -1.854102 
z
" id="m3af235b492" style="stroke:#ffa500;stroke-linejoin:bevel;stroke-width:1.5;"/>
    </defs>
    <g>
     <use style="fill-opacity:0;stroke:#ffa500;stroke-linejoin:bevel;stroke-width:1.5;" x="138.141844" xlink:href="#m3af235b492" y="246.640879"/>
     <use style="fill-opacity:0;stroke:#ffa500;stroke-linejoin:bevel;stroke-width:1.5;" x="189.661998" xlink:href="#m3af235b492" y="192.579671"/>
     <use style="fill-opacity:0;stroke:#ffa500;stroke-linejoin:bevel;stroke-width:1.5;" x="242.745314" xlink:href="#m3af235b492" y="126.651368"/>
     <use style="fill-opacity:0;stroke:#ffa500;stroke-linejoin:bevel;stroke-width:1.5;" x="242.745314" xlink:href="#m3af235b492" y="125.772324"/>
     <use style="fill-opacity:0;stroke:#ffa500;stroke-linejoin:bevel;stroke-width:1.5;" x="242.745314" xlink:href="#m3af235b492" y="125.772324"/>
     <use style="fill-opacity:0;stroke:#ffa500;stroke-linejoin:bevel;stroke-width:1.5;" x="338.688" xlink:href="#m3af235b492" y="125.772324"/>
    </g>
   </g>
   <g id="line2d_55">
    <path style="fill:none;stroke:#ffa500;stroke-linecap:square;stroke-width:1.5;"/>
    <g/>
   </g>
   <g id="line2d_56">
    <path clip-path="url(#p4b3010a628)" d="M 298.532571 125.772324 
" style="fill:none;stroke:#ffa500;stroke-linecap:square;stroke-width:1.5;"/>
    <defs>
     <path d="M -12 12 
L 12 -12 
M -12 -12 
L 12 12 
" id="m55332b43a4" style="stroke:#ffa500;"/>
    </defs>
    <g clip-path="url(#p4b3010a628)">
     <use style="fill:#ffa500;stroke:#ffa500;" x="298.532571" xlink:href="#m55332b43a4" y="125.772324"/>
    </g>
   </g>
   <g id="line2d_57">
    <path d="M 338.688 166.647872 
L 369.60768 293.845545 
" style="fill:none;stroke:#000080;stroke-linecap:square;stroke-width:1.5;"/>
    <g>
     <use style="fill-opacity:0;stroke:#000080;stroke-width:1.5;" x="338.688" xlink:href="#mda11aad822" y="166.647872"/>
     <use style="fill-opacity:0;stroke:#000080;stroke-width:1.5;" x="369.60768" xlink:href="#mda11aad822" y="293.845545"/>
    </g>
   </g>
   <g id="line2d_58">
    <path d="M 338.688 125.772324 
L 369.60768 212.270257 
" style="fill:none;stroke:#ffa500;stroke-linecap:square;stroke-width:1.5;"/>
    <g>
     <use style="fill-opacity:0;stroke:#ffa500;stroke-linejoin:bevel;stroke-width:1.5;" x="338.688" xlink:href="#m3af235b492" y="125.772324"/>
     <use style="fill-opacity:0;stroke:#ffa500;stroke-linejoin:bevel;stroke-width:1.5;" x="369.60768" xlink:href="#m3af235b492" y="212.270257"/>
    </g>
   </g>
   <g id="line2d_59">
    <path d="M 338.688 123.135192 
L 369.60768 130.69497 
" style="fill:none;stroke:#ff00ff;stroke-linecap:square;stroke-width:1.5;"/>
    <g>
     <use style="fill-opacity:0;stroke:#ff00ff;stroke-linejoin:miter;stroke-width:1.5;" x="338.688" xlink:href="#m5d9b6bf37e" y="123.135192"/>
     <use style="fill-opacity:0;stroke:#ff00ff;stroke-linejoin:miter;stroke-width:1.5;" x="369.60768" xlink:href="#m5d9b6bf37e" y="130.69497"/>
    </g>
   </g>
   <g id="line2d_60">
    <path d="M 338.688 298.944 
L 338.688 44.021228 
" style="fill:none;stroke:#000000;stroke-linecap:square;stroke-width:1.5;"/>
   </g>
   <g id="patch_3">
    <path d="M 57.6 298.944 
L 57.6 41.472 
" style="fill:none;stroke:#000000;stroke-linecap:square;stroke-linejoin:miter;stroke-width:0.8;"/>
   </g>
   <g id="patch_4">
    <path d="M 338.688 298.944 
L 338.688 41.472 
" style="fill:none;stroke:#000000;stroke-linecap:square;stroke-linejoin:miter;stroke-width:0.8;"/>
   </g>
   <g id="patch_5">
    <path d="M 57.6 298.944 
L 338.688 298.944 
" style="fill:none;stroke:#000000;stroke-linecap:square;stroke-linejoin:miter;stroke-width:0.8;"/>
   </g>
   <g id="patch_6">
    <path d="M 57.6 41.472 
L 338.688 41.472 
" style="fill:none;stroke:#000000;stroke-linecap:square;stroke-linejoin:miter;stroke-width:0.8;"/>
   </g>
   <g id="text_13">
    <!-- DMS on bb -->
    <defs>
     <path d="M 19.671875 64.796875 
L 19.671875 8.109375 
L 31.59375 8.109375 
Q 46.6875 8.109375 53.6875 14.9375 
Q 60.6875 21.78125 60.6875 36.53125 
Q 60.6875 51.171875 53.6875 57.984375 
Q 46.6875 64.796875 31.59375 64.796875 
z
M 9.8125 72.90625 
L 30.078125 72.90625 
Q 51.265625 72.90625 61.171875 64.09375 
Q 71.09375 55.28125 71.09375 36.53125 
Q 71.09375 17.671875 61.125 8.828125 
Q 51.171875 0 30.078125 0 
L 9.8125 0 
z
" id="DejaVuSans-68"/>
     <path d="M 9.8125 72.90625 
L 24.515625 72.90625 
L 43.109375 23.296875 
L 61.8125 72.90625 
L 76.515625 72.90625 
L 76.515625 0 
L 66.890625 0 
L 66.890625 64.015625 
L 48.09375 14.015625 
L 38.1875 14.015625 
L 19.390625 64.015625 
L 19.390625 0 
L 9.8125 0 
z
" id="DejaVuSans-77"/>
     <path d="M 53.515625 70.515625 
L 53.515625 60.890625 
Q 47.90625 63.578125 42.921875 64.890625 
Q 37.9375 66.21875 33.296875 66.21875 
Q 25.25 66.21875 20.875 63.09375 
Q 16.5 59.96875 16.5 54.203125 
Q 16.5 49.359375 19.40625 46.890625 
Q 22.3125 44.4375 30.421875 42.921875 
L 36.375 41.703125 
Q 47.40625 39.59375 52.65625 34.296875 
Q 57.90625 29 57.90625 20.125 
Q 57.90625 9.515625 50.796875 4.046875 
Q 43.703125 -1.421875 29.984375 -1.421875 
Q 24.8125 -1.421875 18.96875 -0.25 
Q 13.140625 0.921875 6.890625 3.21875 
L 6.890625 13.375 
Q 12.890625 10.015625 18.65625 8.296875 
Q 24.421875 6.59375 29.984375 6.59375 
Q 38.421875 6.59375 43.015625 9.90625 
Q 47.609375 13.234375 47.609375 19.390625 
Q 47.609375 24.75 44.3125 27.78125 
Q 41.015625 30.8125 33.5 32.328125 
L 27.484375 33.5 
Q 16.453125 35.6875 11.515625 40.375 
Q 6.59375 45.0625 6.59375 53.421875 
Q 6.59375 63.09375 13.40625 68.65625 
Q 20.21875 74.21875 32.171875 74.21875 
Q 37.3125 74.21875 42.625 73.28125 
Q 47.953125 72.359375 53.515625 70.515625 
z
" id="DejaVuSans-83"/>
     <path d="M 48.6875 27.296875 
Q 48.6875 37.203125 44.609375 42.84375 
Q 40.53125 48.484375 33.40625 48.484375 
Q 26.265625 48.484375 22.1875 42.84375 
Q 18.109375 37.203125 18.109375 27.296875 
Q 18.109375 17.390625 22.1875 11.75 
Q 26.265625 6.109375 33.40625 6.109375 
Q 40.53125 6.109375 44.609375 11.75 
Q 48.6875 17.390625 48.6875 27.296875 
z
M 18.109375 46.390625 
Q 20.953125 51.265625 25.265625 53.625 
Q 29.59375 56 35.59375 56 
Q 45.5625 56 51.78125 48.09375 
Q 58.015625 40.1875 58.015625 27.296875 
Q 58.015625 14.40625 51.78125 6.484375 
Q 45.5625 -1.421875 35.59375 -1.421875 
Q 29.59375 -1.421875 25.265625 0.953125 
Q 20.953125 3.328125 18.109375 8.203125 
L 18.109375 0 
L 9.078125 0 
L 9.078125 75.984375 
L 18.109375 75.984375 
z
" id="DejaVuSans-98"/>
    </defs>
    <g transform="translate(375.22944 298.536482)scale(0.17 -0.17)">
     <use xlink:href="#DejaVuSans-68"/>
     <use x="77.001953" xlink:href="#DejaVuSans-77"/>
     <use x="163.28125" xlink:href="#DejaVuSans-83"/>
     <use x="226.757812" xlink:href="#DejaVuSans-32"/>
     <use x="258.544922" xlink:href="#DejaVuSans-111"/>
     <use x="319.726562" xlink:href="#DejaVuSans-110"/>
     <use x="383.105469" xlink:href="#DejaVuSans-32"/>
     <use x="414.892578" xlink:href="#DejaVuSans-98"/>
     <use x="478.369141" xlink:href="#DejaVuSans-98"/>
    </g>
   </g>
   <g id="text_14">
    <!-- UP-MO-CMA -->
    <defs>
     <path d="M 8.6875 72.90625 
L 18.609375 72.90625 
L 18.609375 28.609375 
Q 18.609375 16.890625 22.84375 11.734375 
Q 27.09375 6.59375 36.625 6.59375 
Q 46.09375 6.59375 50.34375 11.734375 
Q 54.59375 16.890625 54.59375 28.609375 
L 54.59375 72.90625 
L 64.5 72.90625 
L 64.5 27.390625 
Q 64.5 13.140625 57.4375 5.859375 
Q 50.390625 -1.421875 36.625 -1.421875 
Q 22.796875 -1.421875 15.734375 5.859375 
Q 8.6875 13.140625 8.6875 27.390625 
z
" id="DejaVuSans-85"/>
     <path d="M 19.671875 64.796875 
L 19.671875 37.40625 
L 32.078125 37.40625 
Q 38.96875 37.40625 42.71875 40.96875 
Q 46.484375 44.53125 46.484375 51.125 
Q 46.484375 57.671875 42.71875 61.234375 
Q 38.96875 64.796875 32.078125 64.796875 
z
M 9.8125 72.90625 
L 32.078125 72.90625 
Q 44.34375 72.90625 50.609375 67.359375 
Q 56.890625 61.8125 56.890625 51.125 
Q 56.890625 40.328125 50.609375 34.8125 
Q 44.34375 29.296875 32.078125 29.296875 
L 19.671875 29.296875 
L 19.671875 0 
L 9.8125 0 
z
" id="DejaVuSans-80"/>
     <path d="M 39.40625 66.21875 
Q 28.65625 66.21875 22.328125 58.203125 
Q 16.015625 50.203125 16.015625 36.375 
Q 16.015625 22.609375 22.328125 14.59375 
Q 28.65625 6.59375 39.40625 6.59375 
Q 50.140625 6.59375 56.421875 14.59375 
Q 62.703125 22.609375 62.703125 36.375 
Q 62.703125 50.203125 56.421875 58.203125 
Q 50.140625 66.21875 39.40625 66.21875 
z
M 39.40625 74.21875 
Q 54.734375 74.21875 63.90625 63.9375 
Q 73.09375 53.65625 73.09375 36.375 
Q 73.09375 19.140625 63.90625 8.859375 
Q 54.734375 -1.421875 39.40625 -1.421875 
Q 24.03125 -1.421875 14.8125 8.828125 
Q 5.609375 19.09375 5.609375 36.375 
Q 5.609375 53.65625 14.8125 63.9375 
Q 24.03125 74.21875 39.40625 74.21875 
z
" id="DejaVuSans-79"/>
     <path d="M 64.40625 67.28125 
L 64.40625 56.890625 
Q 59.421875 61.53125 53.78125 63.8125 
Q 48.140625 66.109375 41.796875 66.109375 
Q 29.296875 66.109375 22.65625 58.46875 
Q 16.015625 50.828125 16.015625 36.375 
Q 16.015625 21.96875 22.65625 14.328125 
Q 29.296875 6.6875 41.796875 6.6875 
Q 48.140625 6.6875 53.78125 8.984375 
Q 59.421875 11.28125 64.40625 15.921875 
L 64.40625 5.609375 
Q 59.234375 2.09375 53.4375 0.328125 
Q 47.65625 -1.421875 41.21875 -1.421875 
Q 24.65625 -1.421875 15.125 8.703125 
Q 5.609375 18.84375 5.609375 36.375 
Q 5.609375 53.953125 15.125 64.078125 
Q 24.65625 74.21875 41.21875 74.21875 
Q 47.75 74.21875 53.53125 72.484375 
Q 59.328125 70.75 64.40625 67.28125 
z
" id="DejaVuSans-67"/>
     <path d="M 34.1875 63.1875 
L 20.796875 26.90625 
L 47.609375 26.90625 
z
M 28.609375 72.90625 
L 39.796875 72.90625 
L 67.578125 0 
L 57.328125 0 
L 50.6875 18.703125 
L 17.828125 18.703125 
L 11.1875 0 
L 0.78125 0 
z
" id="DejaVuSans-65"/>
    </defs>
    <g transform="translate(375.22944 216.961195)scale(0.17 -0.17)">
     <use xlink:href="#DejaVuSans-85"/>
     <use x="73.193359" xlink:href="#DejaVuSans-80"/>
     <use x="133.464844" xlink:href="#DejaVuSans-45"/>
     <use x="169.548828" xlink:href="#DejaVuSans-77"/>
     <use x="255.828125" xlink:href="#DejaVuSans-79"/>
     <use x="334.570312" xlink:href="#DejaVuSans-45"/>
     <use x="370.654297" xlink:href="#DejaVuSans-67"/>
     <use x="440.478516" xlink:href="#DejaVuSans-77"/>
     <use x="526.757812" xlink:href="#DejaVuSans-65"/>
    </g>
   </g>
   <g id="text_15">
    <!-- NSGA-II-M -->
    <defs>
     <path d="M 9.8125 72.90625 
L 23.09375 72.90625 
L 55.421875 11.921875 
L 55.421875 72.90625 
L 64.984375 72.90625 
L 64.984375 0 
L 51.703125 0 
L 19.390625 60.984375 
L 19.390625 0 
L 9.8125 0 
z
" id="DejaVuSans-78"/>
     <path d="M 59.515625 10.40625 
L 59.515625 29.984375 
L 43.40625 29.984375 
L 43.40625 38.09375 
L 69.28125 38.09375 
L 69.28125 6.78125 
Q 63.578125 2.734375 56.6875 0.65625 
Q 49.8125 -1.421875 42 -1.421875 
Q 24.90625 -1.421875 15.25 8.5625 
Q 5.609375 18.5625 5.609375 36.375 
Q 5.609375 54.25 15.25 64.234375 
Q 24.90625 74.21875 42 74.21875 
Q 49.125 74.21875 55.546875 72.453125 
Q 61.96875 70.703125 67.390625 67.28125 
L 67.390625 56.78125 
Q 61.921875 61.421875 55.765625 63.765625 
Q 49.609375 66.109375 42.828125 66.109375 
Q 29.4375 66.109375 22.71875 58.640625 
Q 16.015625 51.171875 16.015625 36.375 
Q 16.015625 21.625 22.71875 14.15625 
Q 29.4375 6.6875 42.828125 6.6875 
Q 48.046875 6.6875 52.140625 7.59375 
Q 56.25 8.5 59.515625 10.40625 
z
" id="DejaVuSans-71"/>
     <path d="M 9.8125 72.90625 
L 19.671875 72.90625 
L 19.671875 0 
L 9.8125 0 
z
" id="DejaVuSans-73"/>
    </defs>
    <g transform="translate(375.22944 135.385908)scale(0.17 -0.17)">
     <use xlink:href="#DejaVuSans-78"/>
     <use x="74.804688" xlink:href="#DejaVuSans-83"/>
     <use x="138.28125" xlink:href="#DejaVuSans-71"/>
     <use x="215.771484" xlink:href="#DejaVuSans-65"/>
     <use x="284.148438" xlink:href="#DejaVuSans-45"/>
     <use x="320.232422" xlink:href="#DejaVuSans-73"/>
     <use x="349.724609" xlink:href="#DejaVuSans-73"/>
     <use x="379.216797" xlink:href="#DejaVuSans-45"/>
     <use x="415.300781" xlink:href="#DejaVuSans-77"/>
    </g>
   </g>
   <g id="text_16">
    <!-- best 2016 -->
    <g transform="translate(375.22944 53.810621)scale(0.17 -0.17)">
     <use xlink:href="#DejaVuSans-98"/>
     <use x="63.476562" xlink:href="#DejaVuSans-101"/>
     <use x="125" xlink:href="#DejaVuSans-115"/>
     <use x="177.099609" xlink:href="#DejaVuSans-116"/>
     <use x="216.308594" xlink:href="#DejaVuSans-32"/>
     <use x="248.095703" xlink:href="#DejaVuSans-50"/>
     <use x="311.71875" xlink:href="#DejaVuSans-48"/>
     <use x="375.341797" xlink:href="#DejaVuSans-49"/>
     <use x="438.964844" xlink:href="#DejaVuSans-54"/>
    </g>
   </g>
   <g id="text_17">
    <!-- bbob-biobj f33, 3-D -->
    <defs>
     <path d="M 9.421875 54.6875 
L 18.40625 54.6875 
L 18.40625 -0.984375 
Q 18.40625 -11.421875 14.421875 -16.109375 
Q 10.453125 -20.796875 1.609375 -20.796875 
L -1.8125 -20.796875 
L -1.8125 -13.1875 
L 0.59375 -13.1875 
Q 5.71875 -13.1875 7.5625 -10.8125 
Q 9.421875 -8.453125 9.421875 -0.984375 
z
M 9.421875 75.984375 
L 18.40625 75.984375 
L 18.40625 64.59375 
L 9.421875 64.59375 
z
" id="DejaVuSans-106"/>
     <path d="M 40.578125 39.3125 
Q 47.65625 37.796875 51.625 33 
Q 55.609375 28.21875 55.609375 21.1875 
Q 55.609375 10.40625 48.1875 4.484375 
Q 40.765625 -1.421875 27.09375 -1.421875 
Q 22.515625 -1.421875 17.65625 -0.515625 
Q 12.796875 0.390625 7.625 2.203125 
L 7.625 11.71875 
Q 11.71875 9.328125 16.59375 8.109375 
Q 21.484375 6.890625 26.8125 6.890625 
Q 36.078125 6.890625 40.9375 10.546875 
Q 45.796875 14.203125 45.796875 21.1875 
Q 45.796875 27.640625 41.28125 31.265625 
Q 36.765625 34.90625 28.71875 34.90625 
L 20.21875 34.90625 
L 20.21875 43.015625 
L 29.109375 43.015625 
Q 36.375 43.015625 40.234375 45.921875 
Q 44.09375 48.828125 44.09375 54.296875 
Q 44.09375 59.90625 40.109375 62.90625 
Q 36.140625 65.921875 28.71875 65.921875 
Q 24.65625 65.921875 20.015625 65.03125 
Q 15.375 64.15625 9.8125 62.3125 
L 9.8125 71.09375 
Q 15.4375 72.65625 20.34375 73.4375 
Q 25.25 74.21875 29.59375 74.21875 
Q 40.828125 74.21875 47.359375 69.109375 
Q 53.90625 64.015625 53.90625 55.328125 
Q 53.90625 49.265625 50.4375 45.09375 
Q 46.96875 40.921875 40.578125 39.3125 
z
" id="DejaVuSans-51"/>
    </defs>
    <g transform="translate(60.41088 51.797126)scale(0.102 -0.102)">
     <use xlink:href="#DejaVuSans-98"/>
     <use x="63.476562" xlink:href="#DejaVuSans-98"/>
     <use x="126.953125" xlink:href="#DejaVuSans-111"/>
     <use x="188.134766" xlink:href="#DejaVuSans-98"/>
     <use x="251.611328" xlink:href="#DejaVuSans-45"/>
     <use x="287.695312" xlink:href="#DejaVuSans-98"/>
     <use x="351.171875" xlink:href="#DejaVuSans-105"/>
     <use x="378.955078" xlink:href="#DejaVuSans-111"/>
     <use x="440.136719" xlink:href="#DejaVuSans-98"/>
     <use x="503.613281" xlink:href="#DejaVuSans-106"/>
     <use x="531.396484" xlink:href="#DejaVuSans-32"/>
     <use x="563.183594" xlink:href="#DejaVuSans-102"/>
     <use x="598.388672" xlink:href="#DejaVuSans-51"/>
     <use x="662.011719" xlink:href="#DejaVuSans-51"/>
     <use x="725.634766" xlink:href="#DejaVuSans-44"/>
     <use x="757.421875" xlink:href="#DejaVuSans-32"/>
     <use x="789.208984" xlink:href="#DejaVuSans-51"/>
     <use x="852.832031" xlink:href="#DejaVuSans-45"/>
     <use x="888.916016" xlink:href="#DejaVuSans-68"/>
    </g>
    <!-- 58 targets: 1..-1.0e-4 -->
    <defs>
     <path d="M 10.796875 72.90625 
L 49.515625 72.90625 
L 49.515625 64.59375 
L 19.828125 64.59375 
L 19.828125 46.734375 
Q 21.96875 47.46875 24.109375 47.828125 
Q 26.265625 48.1875 28.421875 48.1875 
Q 40.625 48.1875 47.75 41.5 
Q 54.890625 34.8125 54.890625 23.390625 
Q 54.890625 11.625 47.5625 5.09375 
Q 40.234375 -1.421875 26.90625 -1.421875 
Q 22.3125 -1.421875 17.546875 -0.640625 
Q 12.796875 0.140625 7.71875 1.703125 
L 7.71875 11.625 
Q 12.109375 9.234375 16.796875 8.0625 
Q 21.484375 6.890625 26.703125 6.890625 
Q 35.15625 6.890625 40.078125 11.328125 
Q 45.015625 15.765625 45.015625 23.390625 
Q 45.015625 31 40.078125 35.4375 
Q 35.15625 39.890625 26.703125 39.890625 
Q 22.75 39.890625 18.8125 39.015625 
Q 14.890625 38.140625 10.796875 36.28125 
z
" id="DejaVuSans-53"/>
     <path d="M 11.71875 12.40625 
L 22.015625 12.40625 
L 22.015625 0 
L 11.71875 0 
z
M 11.71875 51.703125 
L 22.015625 51.703125 
L 22.015625 39.3125 
L 11.71875 39.3125 
z
" id="DejaVuSans-58"/>
    </defs>
    <g transform="translate(60.41088 63.218895)scale(0.102 -0.102)">
     <use xlink:href="#DejaVuSans-53"/>
     <use x="63.623047" xlink:href="#DejaVuSans-56"/>
     <use x="127.246094" xlink:href="#DejaVuSans-32"/>
     <use x="159.033203" xlink:href="#DejaVuSans-116"/>
     <use x="198.242188" xlink:href="#DejaVuSans-97"/>
     <use x="259.521484" xlink:href="#DejaVuSans-114"/>
     <use x="300.619141" xlink:href="#DejaVuSans-103"/>
     <use x="364.095703" xlink:href="#DejaVuSans-101"/>
     <use x="425.619141" xlink:href="#DejaVuSans-116"/>
     <use x="464.828125" xlink:href="#DejaVuSans-115"/>
     <use x="516.927734" xlink:href="#DejaVuSans-58"/>
     <use x="550.619141" xlink:href="#DejaVuSans-32"/>
     <use x="582.40625" xlink:href="#DejaVuSans-49"/>
     <use x="646.029297" xlink:href="#DejaVuSans-46"/>
     <use x="677.816406" xlink:href="#DejaVuSans-46"/>
     <use x="709.603516" xlink:href="#DejaVuSans-45"/>
     <use x="745.6875" xlink:href="#DejaVuSans-49"/>
     <use x="809.310547" xlink:href="#DejaVuSans-46"/>
     <use x="841.097656" xlink:href="#DejaVuSans-48"/>
     <use x="904.720703" xlink:href="#DejaVuSans-101"/>
     <use x="966.244141" xlink:href="#DejaVuSans-45"/>
     <use x="1002.328125" xlink:href="#DejaVuSans-52"/>
    </g>
    <!-- 10 instances -->
    <g transform="translate(60.41088 74.640664)scale(0.102 -0.102)">
     <use xlink:href="#DejaVuSans-49"/>
     <use x="63.623047" xlink:href="#DejaVuSans-48"/>
     <use x="127.246094" xlink:href="#DejaVuSans-32"/>
     <use x="159.033203" xlink:href="#DejaVuSans-105"/>
     <use x="186.816406" xlink:href="#DejaVuSans-110"/>
     <use x="250.195312" xlink:href="#DejaVuSans-115"/>
     <use x="302.294922" xlink:href="#DejaVuSans-116"/>
     <use x="341.503906" xlink:href="#DejaVuSans-97"/>
     <use x="402.783203" xlink:href="#DejaVuSans-110"/>
     <use x="466.162109" xlink:href="#DejaVuSans-99"/>
     <use x="521.142578" xlink:href="#DejaVuSans-101"/>
     <use x="582.666016" xlink:href="#DejaVuSans-115"/>
    </g>
   </g>
   <g id="text_18">
    <!-- v2.3.1.31, hv-hash=ff0e71e8cd978373 -->
    <defs>
     <path d="M 54.890625 33.015625 
L 54.890625 0 
L 45.90625 0 
L 45.90625 32.71875 
Q 45.90625 40.484375 42.875 44.328125 
Q 39.84375 48.1875 33.796875 48.1875 
Q 26.515625 48.1875 22.3125 43.546875 
Q 18.109375 38.921875 18.109375 30.90625 
L 18.109375 0 
L 9.078125 0 
L 9.078125 75.984375 
L 18.109375 75.984375 
L 18.109375 46.1875 
Q 21.34375 51.125 25.703125 53.5625 
Q 30.078125 56 35.796875 56 
Q 45.21875 56 50.046875 50.171875 
Q 54.890625 44.34375 54.890625 33.015625 
z
" id="DejaVuSans-104"/>
     <path d="M 10.59375 45.40625 
L 73.1875 45.40625 
L 73.1875 37.203125 
L 10.59375 37.203125 
z
M 10.59375 25.484375 
L 73.1875 25.484375 
L 73.1875 17.1875 
L 10.59375 17.1875 
z
" id="DejaVuSans-61"/>
     <path d="M 8.203125 72.90625 
L 55.078125 72.90625 
L 55.078125 68.703125 
L 28.609375 0 
L 18.3125 0 
L 43.21875 64.59375 
L 8.203125 64.59375 
z
" id="DejaVuSans-55"/>
     <path d="M 10.984375 1.515625 
L 10.984375 10.5 
Q 14.703125 8.734375 18.5 7.8125 
Q 22.3125 6.890625 25.984375 6.890625 
Q 35.75 6.890625 40.890625 13.453125 
Q 46.046875 20.015625 46.78125 33.40625 
Q 43.953125 29.203125 39.59375 26.953125 
Q 35.25 24.703125 29.984375 24.703125 
Q 19.046875 24.703125 12.671875 31.3125 
Q 6.296875 37.9375 6.296875 49.421875 
Q 6.296875 60.640625 12.9375 67.421875 
Q 19.578125 74.21875 30.609375 74.21875 
Q 43.265625 74.21875 49.921875 64.515625 
Q 56.59375 54.828125 56.59375 36.375 
Q 56.59375 19.140625 48.40625 8.859375 
Q 40.234375 -1.421875 26.421875 -1.421875 
Q 22.703125 -1.421875 18.890625 -0.6875 
Q 15.09375 0.046875 10.984375 1.515625 
z
M 30.609375 32.421875 
Q 37.25 32.421875 41.125 36.953125 
Q 45.015625 41.5 45.015625 49.421875 
Q 45.015625 57.28125 41.125 61.84375 
Q 37.25 66.40625 30.609375 66.40625 
Q 23.96875 66.40625 20.09375 61.84375 
Q 16.21875 57.28125 16.21875 49.421875 
Q 16.21875 41.5 20.09375 36.953125 
Q 23.96875 32.421875 30.609375 32.421875 
z
" id="DejaVuSans-57"/>
    </defs>
    <g style="fill:#808080;" transform="translate(99.797125 294.289592)scale(0.1 -0.1)">
     <use xlink:href="#DejaVuSans-118"/>
     <use x="59.179688" xlink:href="#DejaVuSans-50"/>
     <use x="122.802734" xlink:href="#DejaVuSans-46"/>
     <use x="154.589844" xlink:href="#DejaVuSans-51"/>
     <use x="218.212891" xlink:href="#DejaVuSans-46"/>
     <use x="250" xlink:href="#DejaVuSans-49"/>
     <use x="313.623047" xlink:href="#DejaVuSans-46"/>
     <use x="345.410156" xlink:href="#DejaVuSans-51"/>
     <use x="409.033203" xlink:href="#DejaVuSans-49"/>
     <use x="472.65625" xlink:href="#DejaVuSans-44"/>
     <use x="504.443359" xlink:href="#DejaVuSans-32"/>
     <use x="536.230469" xlink:href="#DejaVuSans-104"/>
     <use x="599.609375" xlink:href="#DejaVuSans-118"/>
     <use x="658.757812" xlink:href="#DejaVuSans-45"/>
     <use x="694.841797" xlink:href="#DejaVuSans-104"/>
     <use x="758.220703" xlink:href="#DejaVuSans-97"/>
     <use x="819.5" xlink:href="#DejaVuSans-115"/>
     <use x="871.599609" xlink:href="#DejaVuSans-104"/>
     <use x="934.978516" xlink:href="#DejaVuSans-61"/>
     <use x="1018.767578" xlink:href="#DejaVuSans-102"/>
     <use x="1053.972656" xlink:href="#DejaVuSans-102"/>
     <use x="1089.177734" xlink:href="#DejaVuSans-48"/>
     <use x="1152.800781" xlink:href="#DejaVuSans-101"/>
     <use x="1214.324219" xlink:href="#DejaVuSans-55"/>
     <use x="1277.947266" xlink:href="#DejaVuSans-49"/>
     <use x="1341.570312" xlink:href="#DejaVuSans-101"/>
     <use x="1403.09375" xlink:href="#DejaVuSans-56"/>
     <use x="1466.716797" xlink:href="#DejaVuSans-99"/>
     <use x="1521.697266" xlink:href="#DejaVuSans-100"/>
     <use x="1585.173828" xlink:href="#DejaVuSans-57"/>
     <use x="1648.796875" xlink:href="#DejaVuSans-55"/>
     <use x="1712.419922" xlink:href="#DejaVuSans-56"/>
     <use x="1776.042969" xlink:href="#DejaVuSans-51"/>
     <use x="1839.666016" xlink:href="#DejaVuSans-55"/>
     <use x="1903.289062" xlink:href="#DejaVuSans-51"/>
    </g>
   </g>
   <g id="text_19">
    <!-- 33 Rosenbrock/Schwefel -->
    <defs>
     <path d="M 44.390625 34.1875 
Q 47.5625 33.109375 50.5625 29.59375 
Q 53.5625 26.078125 56.59375 19.921875 
L 66.609375 0 
L 56 0 
L 46.6875 18.703125 
Q 43.0625 26.03125 39.671875 28.421875 
Q 36.28125 30.8125 30.421875 30.8125 
L 19.671875 30.8125 
L 19.671875 0 
L 9.8125 0 
L 9.8125 72.90625 
L 32.078125 72.90625 
Q 44.578125 72.90625 50.734375 67.671875 
Q 56.890625 62.453125 56.890625 51.90625 
Q 56.890625 45.015625 53.6875 40.46875 
Q 50.484375 35.9375 44.390625 34.1875 
z
M 19.671875 64.796875 
L 19.671875 38.921875 
L 32.078125 38.921875 
Q 39.203125 38.921875 42.84375 42.21875 
Q 46.484375 45.515625 46.484375 51.90625 
Q 46.484375 58.296875 42.84375 61.546875 
Q 39.203125 64.796875 32.078125 64.796875 
z
" id="DejaVuSans-82"/>
     <path d="M 9.078125 75.984375 
L 18.109375 75.984375 
L 18.109375 31.109375 
L 44.921875 54.6875 
L 56.390625 54.6875 
L 27.390625 29.109375 
L 57.625 0 
L 45.90625 0 
L 18.109375 26.703125 
L 18.109375 0 
L 9.078125 0 
z
" id="DejaVuSans-107"/>
     <path d="M 4.203125 54.6875 
L 13.1875 54.6875 
L 24.421875 12.015625 
L 35.59375 54.6875 
L 46.1875 54.6875 
L 57.421875 12.015625 
L 68.609375 54.6875 
L 77.59375 54.6875 
L 63.28125 0 
L 52.6875 0 
L 40.921875 44.828125 
L 29.109375 0 
L 18.5 0 
z
" id="DejaVuSans-119"/>
    </defs>
    <g transform="translate(75.279937 35.472)scale(0.2 -0.2)">
     <use xlink:href="#DejaVuSans-51"/>
     <use x="63.623047" xlink:href="#DejaVuSans-51"/>
     <use x="127.246094" xlink:href="#DejaVuSans-32"/>
     <use x="159.033203" xlink:href="#DejaVuSans-82"/>
     <use x="228.453125" xlink:href="#DejaVuSans-111"/>
     <use x="289.634766" xlink:href="#DejaVuSans-115"/>
     <use x="341.734375" xlink:href="#DejaVuSans-101"/>
     <use x="403.257812" xlink:href="#DejaVuSans-110"/>
     <use x="466.636719" xlink:href="#DejaVuSans-98"/>
     <use x="530.113281" xlink:href="#DejaVuSans-114"/>
     <use x="571.195312" xlink:href="#DejaVuSans-111"/>
     <use x="632.376953" xlink:href="#DejaVuSans-99"/>
     <use x="687.357422" xlink:href="#DejaVuSans-107"/>
     <use x="745.267578" xlink:href="#DejaVuSans-47"/>
     <use x="778.958984" xlink:href="#DejaVuSans-83"/>
     <use x="842.435547" xlink:href="#DejaVuSans-99"/>
     <use x="897.416016" xlink:href="#DejaVuSans-104"/>
     <use x="960.794922" xlink:href="#DejaVuSans-119"/>
     <use x="1042.582031" xlink:href="#DejaVuSans-101"/>
     <use x="1104.105469" xlink:href="#DejaVuSans-102"/>
     <use x="1139.310547" xlink:href="#DejaVuSans-101"/>
     <use x="1200.833984" xlink:href="#DejaVuSans-108"/>
    </g>
   </g>
  </g>
 </g>
 <defs>
  <clipPath id="p4b3010a628">
   <rect height="257.472" width="281.088" x="57.6" y="41.472"/>
  </clipPath>
 </defs>
</svg>
