<?xml version="1.0" encoding="utf-8" standalone="no"?>
<!DOCTYPE svg PUBLIC "-//W3C//DTD SVG 1.1//EN"
  "http://www.w3.org/Graphics/SVG/1.1/DTD/svg11.dtd">
<!-- Created with matplotlib (https://matplotlib.org/) -->
<svg height="345.6pt" version="1.1" viewBox="0 0 460.8 345.6" width="460.8pt" xmlns="http://www.w3.org/2000/svg" xmlns:xlink="http://www.w3.org/1999/xlink">
 <defs>
  <style type="text/css">
*{stroke-linecap:butt;stroke-linejoin:round;}
  </style>
 </defs>
 <g id="figure_1">
  <g id="patch_1">
   <path d="M 0 345.6 
L 460.8 345.6 
L 460.8 0 
L 0 0 
z
" style="fill:#ffffff;"/>
  </g>
  <g id="axes_1">
   <g id="patch_2">
    <path d="M 57.6 298.944 
L 338.688 298.944 
L 338.688 41.472 
L 57.6 41.472 
z
" style="fill:#ffffff;"/>
   </g>
   <g id="line2d_1">
    <path d="M 83.830028 298.944 
L 83.830028 294.54878 
L 87.329581 294.54878 
L 87.329581 285.758339 
L 90.242884 285.758339 
L 90.242884 276.967899 
L 103.623262 276.967899 
L 103.623262 272.572679 
L 118.310324 272.572679 
L 118.310324 259.387018 
L 127.48501 259.387018 
L 127.48501 250.596578 
L 132.060454 250.596578 
L 132.060454 246.201357 
L 137.735587 246.201357 
L 137.735587 237.410917 
L 143.014805 237.410917 
L 143.014805 224.225256 
L 149.955193 224.225256 
L 149.955193 215.434816 
L 156.052535 215.434816 
L 156.052535 206.644376 
L 161.215247 206.644376 
L 161.215247 197.853935 
L 165.393091 197.853935 
L 165.393091 193.458715 
L 172.827009 193.458715 
L 172.827009 180.273054 
L 182.828533 180.273054 
L 182.828533 175.877834 
L 188.316863 175.877834 
L 188.316863 162.692173 
L 191.950655 162.692173 
L 191.950655 153.901733 
L 197.199116 153.901733 
L 197.199116 149.506513 
L 204.892506 149.506513 
L 204.892506 136.320852 
L 218.58927 136.320852 
L 218.58927 131.925632 
L 224.548705 131.925632 
L 224.548705 118.739971 
L 227.652063 118.739971 
L 227.652063 109.949531 
L 231.312292 109.949531 
L 231.312292 101.15909 
L 235.756442 101.15909 
L 235.756442 96.76387 
L 240.967728 96.76387 
L 240.967728 87.97343 
L 246.698155 87.97343 
L 246.698155 74.787769 
L 338.688 74.787769 
" style="fill:none;stroke:#f5deb3;stroke-linecap:square;stroke-width:4;"/>
   </g>
   <g id="line2d_2">
    <defs>
     <path d="M 0 7.778175 
L 7.778175 0 
L 0 -7.778175 
L -7.778175 0 
z
" id="ma90e58d677" style="stroke:#f5deb3;stroke-linejoin:miter;stroke-width:1.5;"/>
    </defs>
    <g>
     <use style="fill:#f5deb3;stroke:#f5deb3;stroke-linejoin:miter;stroke-width:1.5;" x="137.735587" xlink:href="#ma90e58d677" y="237.410917"/>
     <use style="fill:#f5deb3;stroke:#f5deb3;stroke-linejoin:miter;stroke-width:1.5;" x="204.892506" xlink:href="#ma90e58d677" y="149.506513"/>
     <use style="fill:#f5deb3;stroke:#f5deb3;stroke-linejoin:miter;stroke-width:1.5;" x="246.698155" xlink:href="#ma90e58d677" y="87.97343"/>
     <use style="fill:#f5deb3;stroke:#f5deb3;stroke-linejoin:miter;stroke-width:1.5;" x="246.698155" xlink:href="#ma90e58d677" y="74.787769"/>
     <use style="fill:#f5deb3;stroke:#f5deb3;stroke-linejoin:miter;stroke-width:1.5;" x="338.688" xlink:href="#ma90e58d677" y="74.787769"/>
    </g>
   </g>
   <g id="line2d_3">
    <path style="fill:none;stroke:#f5deb3;stroke-linecap:square;stroke-width:4;"/>
    <g/>
   </g>
   <g id="line2d_4">
    <path d="M 338.688 74.787769 
L 369.60768 49.119683 
" style="fill:none;stroke:#f5deb3;stroke-linecap:square;stroke-width:4;"/>
    <g>
     <use style="fill:#f5deb3;stroke:#f5deb3;stroke-linejoin:miter;stroke-width:1.5;" x="338.688" xlink:href="#ma90e58d677" y="74.787769"/>
     <use style="fill:#f5deb3;stroke:#f5deb3;stroke-linejoin:miter;stroke-width:1.5;" x="369.60768" xlink:href="#ma90e58d677" y="49.119683"/>
    </g>
   </g>
   <g id="matplotlib.axis_1">
    <g id="xtick_1">
     <g id="line2d_5">
      <path clip-path="url(#p64d7ae8913)" d="M 57.6 298.944 
L 57.6 41.472 
" style="fill:none;stroke:#b0b0b0;stroke-linecap:square;stroke-width:0.8;"/>
     </g>
     <g id="line2d_6">
      <defs>
       <path d="M 0 0 
L 0 3.5 
" id="m9cf2855818" style="stroke:#000000;stroke-width:0.8;"/>
      </defs>
      <g>
       <use style="stroke:#000000;stroke-width:0.8;" x="57.6" xlink:href="#m9cf2855818" y="298.944"/>
      </g>
     </g>
     <g id="text_1">
      <!-- 0 -->
      <defs>
       <path d="M 31.78125 66.40625 
Q 24.171875 66.40625 20.328125 58.90625 
Q 16.5 51.421875 16.5 36.375 
Q 16.5 21.390625 20.328125 13.890625 
Q 24.171875 6.390625 31.78125 6.390625 
Q 39.453125 6.390625 43.28125 13.890625 
Q 47.125 21.390625 47.125 36.375 
Q 47.125 51.421875 43.28125 58.90625 
Q 39.453125 66.40625 31.78125 66.40625 
z
M 31.78125 74.21875 
Q 44.046875 74.21875 50.515625 64.515625 
Q 56.984375 54.828125 56.984375 36.375 
Q 56.984375 17.96875 50.515625 8.265625 
Q 44.046875 -1.421875 31.78125 -1.421875 
Q 19.53125 -1.421875 13.0625 8.265625 
Q 6.59375 17.96875 6.59375 36.375 
Q 6.59375 54.828125 13.0625 64.515625 
Q 19.53125 74.21875 31.78125 74.21875 
z
" id="DejaVuSans-48"/>
      </defs>
      <g transform="translate(51.2375 321.140875)scale(0.2 -0.2)">
       <use xlink:href="#DejaVuSans-48"/>
      </g>
     </g>
    </g>
    <g id="xtick_2">
     <g id="line2d_7">
      <path clip-path="url(#p64d7ae8913)" d="M 137.910857 298.944 
L 137.910857 41.472 
" style="fill:none;stroke:#b0b0b0;stroke-linecap:square;stroke-width:0.8;"/>
     </g>
     <g id="line2d_8">
      <g>
       <use style="stroke:#000000;stroke-width:0.8;" x="137.910857" xlink:href="#m9cf2855818" y="298.944"/>
      </g>
     </g>
     <g id="text_2">
      <!-- 2 -->
      <defs>
       <path d="M 19.1875 8.296875 
L 53.609375 8.296875 
L 53.609375 0 
L 7.328125 0 
L 7.328125 8.296875 
Q 12.9375 14.109375 22.625 23.890625 
Q 32.328125 33.6875 34.8125 36.53125 
Q 39.546875 41.84375 41.421875 45.53125 
Q 43.3125 49.21875 43.3125 52.78125 
Q 43.3125 58.59375 39.234375 62.25 
Q 35.15625 65.921875 28.609375 65.921875 
Q 23.96875 65.921875 18.8125 64.3125 
Q 13.671875 62.703125 7.8125 59.421875 
L 7.8125 69.390625 
Q 13.765625 71.78125 18.9375 73 
Q 24.125 74.21875 28.421875 74.21875 
Q 39.75 74.21875 46.484375 68.546875 
Q 53.21875 62.890625 53.21875 53.421875 
Q 53.21875 48.921875 51.53125 44.890625 
Q 49.859375 40.875 45.40625 35.40625 
Q 44.1875 33.984375 37.640625 27.21875 
Q 31.109375 20.453125 19.1875 8.296875 
z
" id="DejaVuSans-50"/>
      </defs>
      <g transform="translate(131.548357 321.140875)scale(0.2 -0.2)">
       <use xlink:href="#DejaVuSans-50"/>
      </g>
     </g>
    </g>
    <g id="xtick_3">
     <g id="line2d_9">
      <path clip-path="url(#p64d7ae8913)" d="M 218.221714 298.944 
L 218.221714 41.472 
" style="fill:none;stroke:#b0b0b0;stroke-linecap:square;stroke-width:0.8;"/>
     </g>
     <g id="line2d_10">
      <g>
       <use style="stroke:#000000;stroke-width:0.8;" x="218.221714" xlink:href="#m9cf2855818" y="298.944"/>
      </g>
     </g>
     <g id="text_3">
      <!-- 4 -->
      <defs>
       <path d="M 37.796875 64.3125 
L 12.890625 25.390625 
L 37.796875 25.390625 
z
M 35.203125 72.90625 
L 47.609375 72.90625 
L 47.609375 25.390625 
L 58.015625 25.390625 
L 58.015625 17.1875 
L 47.609375 17.1875 
L 47.609375 0 
L 37.796875 0 
L 37.796875 17.1875 
L 4.890625 17.1875 
L 4.890625 26.703125 
z
" id="DejaVuSans-52"/>
      </defs>
      <g transform="translate(211.859214 321.140875)scale(0.2 -0.2)">
       <use xlink:href="#DejaVuSans-52"/>
      </g>
     </g>
    </g>
    <g id="xtick_4">
     <g id="line2d_11">
      <path clip-path="url(#p64d7ae8913)" d="M 298.532571 298.944 
L 298.532571 41.472 
" style="fill:none;stroke:#b0b0b0;stroke-linecap:square;stroke-width:0.8;"/>
     </g>
     <g id="line2d_12">
      <g>
       <use style="stroke:#000000;stroke-width:0.8;" x="298.532571" xlink:href="#m9cf2855818" y="298.944"/>
      </g>
     </g>
     <g id="text_4">
      <!-- 6 -->
      <defs>
       <path d="M 33.015625 40.375 
Q 26.375 40.375 22.484375 35.828125 
Q 18.609375 31.296875 18.609375 23.390625 
Q 18.609375 15.53125 22.484375 10.953125 
Q 26.375 6.390625 33.015625 6.390625 
Q 39.65625 6.390625 43.53125 10.953125 
Q 47.40625 15.53125 47.40625 23.390625 
Q 47.40625 31.296875 43.53125 35.828125 
Q 39.65625 40.375 33.015625 40.375 
z
M 52.59375 71.296875 
L 52.59375 62.3125 
Q 48.875 64.0625 45.09375 64.984375 
Q 41.3125 65.921875 37.59375 65.921875 
Q 27.828125 65.921875 22.671875 59.328125 
Q 17.53125 52.734375 16.796875 39.40625 
Q 19.671875 43.65625 24.015625 45.921875 
Q 28.375 48.1875 33.59375 48.1875 
Q 44.578125 48.1875 50.953125 41.515625 
Q 57.328125 34.859375 57.328125 23.390625 
Q 57.328125 12.15625 50.6875 5.359375 
Q 44.046875 -1.421875 33.015625 -1.421875 
Q 20.359375 -1.421875 13.671875 8.265625 
Q 6.984375 17.96875 6.984375 36.375 
Q 6.984375 53.65625 15.1875 63.9375 
Q 23.390625 74.21875 37.203125 74.21875 
Q 40.921875 74.21875 44.703125 73.484375 
Q 48.484375 72.75 52.59375 71.296875 
z
" id="DejaVuSans-54"/>
      </defs>
      <g transform="translate(292.170071 321.140875)scale(0.2 -0.2)">
       <use xlink:href="#DejaVuSans-54"/>
      </g>
     </g>
    </g>
    <g id="xtick_5">
     <g id="line2d_13">
      <path clip-path="url(#p64d7ae8913)" d="M 57.6 298.944 
L 57.6 41.472 
" style="fill:none;stroke:#b0b0b0;stroke-linecap:square;stroke-width:0.8;"/>
     </g>
     <g id="line2d_14">
      <defs>
       <path d="M 0 0 
L 0 2 
" id="ma8aa97c11d" style="stroke:#000000;stroke-width:0.6;"/>
      </defs>
      <g>
       <use style="stroke:#000000;stroke-width:0.6;" x="57.6" xlink:href="#ma8aa97c11d" y="298.944"/>
      </g>
     </g>
    </g>
    <g id="xtick_6">
     <g id="line2d_15">
      <path clip-path="url(#p64d7ae8913)" d="M 97.755429 298.944 
L 97.755429 41.472 
" style="fill:none;stroke:#b0b0b0;stroke-linecap:square;stroke-width:0.8;"/>
     </g>
     <g id="line2d_16">
      <g>
       <use style="stroke:#000000;stroke-width:0.6;" x="97.755429" xlink:href="#ma8aa97c11d" y="298.944"/>
      </g>
     </g>
    </g>
    <g id="xtick_7">
     <g id="line2d_17">
      <path clip-path="url(#p64d7ae8913)" d="M 137.910857 298.944 
L 137.910857 41.472 
" style="fill:none;stroke:#b0b0b0;stroke-linecap:square;stroke-width:0.8;"/>
     </g>
     <g id="line2d_18">
      <g>
       <use style="stroke:#000000;stroke-width:0.6;" x="137.910857" xlink:href="#ma8aa97c11d" y="298.944"/>
      </g>
     </g>
    </g>
    <g id="xtick_8">
     <g id="line2d_19">
      <path clip-path="url(#p64d7ae8913)" d="M 178.066286 298.944 
L 178.066286 41.472 
" style="fill:none;stroke:#b0b0b0;stroke-linecap:square;stroke-width:0.8;"/>
     </g>
     <g id="line2d_20">
      <g>
       <use style="stroke:#000000;stroke-width:0.6;" x="178.066286" xlink:href="#ma8aa97c11d" y="298.944"/>
      </g>
     </g>
    </g>
    <g id="xtick_9">
     <g id="line2d_21">
      <path clip-path="url(#p64d7ae8913)" d="M 218.221714 298.944 
L 218.221714 41.472 
" style="fill:none;stroke:#b0b0b0;stroke-linecap:square;stroke-width:0.8;"/>
     </g>
     <g id="line2d_22">
      <g>
       <use style="stroke:#000000;stroke-width:0.6;" x="218.221714" xlink:href="#ma8aa97c11d" y="298.944"/>
      </g>
     </g>
    </g>
    <g id="xtick_10">
     <g id="line2d_23">
      <path clip-path="url(#p64d7ae8913)" d="M 258.377143 298.944 
L 258.377143 41.472 
" style="fill:none;stroke:#b0b0b0;stroke-linecap:square;stroke-width:0.8;"/>
     </g>
     <g id="line2d_24">
      <g>
       <use style="stroke:#000000;stroke-width:0.6;" x="258.377143" xlink:href="#ma8aa97c11d" y="298.944"/>
      </g>
     </g>
    </g>
    <g id="xtick_11">
     <g id="line2d_25">
      <path clip-path="url(#p64d7ae8913)" d="M 298.532571 298.944 
L 298.532571 41.472 
" style="fill:none;stroke:#b0b0b0;stroke-linecap:square;stroke-width:0.8;"/>
     </g>
     <g id="line2d_26">
      <g>
       <use style="stroke:#000000;stroke-width:0.6;" x="298.532571" xlink:href="#ma8aa97c11d" y="298.944"/>
      </g>
     </g>
    </g>
    <g id="xtick_12">
     <g id="line2d_27">
      <path clip-path="url(#p64d7ae8913)" d="M 338.688 298.944 
L 338.688 41.472 
" style="fill:none;stroke:#b0b0b0;stroke-linecap:square;stroke-width:0.8;"/>
     </g>
     <g id="line2d_28">
      <g>
       <use style="stroke:#000000;stroke-width:0.6;" x="338.688" xlink:href="#ma8aa97c11d" y="298.944"/>
      </g>
     </g>
    </g>
    <g id="text_5">
     <!-- log10(# f-evals / dimension) -->
     <defs>
      <path d="M 9.421875 75.984375 
L 18.40625 75.984375 
L 18.40625 0 
L 9.421875 0 
z
" id="DejaVuSans-108"/>
      <path d="M 30.609375 48.390625 
Q 23.390625 48.390625 19.1875 42.75 
Q 14.984375 37.109375 14.984375 27.296875 
Q 14.984375 17.484375 19.15625 11.84375 
Q 23.34375 6.203125 30.609375 6.203125 
Q 37.796875 6.203125 41.984375 11.859375 
Q 46.1875 17.53125 46.1875 27.296875 
Q 46.1875 37.015625 41.984375 42.703125 
Q 37.796875 48.390625 30.609375 48.390625 
z
M 30.609375 56 
Q 42.328125 56 49.015625 48.375 
Q 55.71875 40.765625 55.71875 27.296875 
Q 55.71875 13.875 49.015625 6.21875 
Q 42.328125 -1.421875 30.609375 -1.421875 
Q 18.84375 -1.421875 12.171875 6.21875 
Q 5.515625 13.875 5.515625 27.296875 
Q 5.515625 40.765625 12.171875 48.375 
Q 18.84375 56 30.609375 56 
z
" id="DejaVuSans-111"/>
      <path d="M 45.40625 27.984375 
Q 45.40625 37.75 41.375 43.109375 
Q 37.359375 48.484375 30.078125 48.484375 
Q 22.859375 48.484375 18.828125 43.109375 
Q 14.796875 37.75 14.796875 27.984375 
Q 14.796875 18.265625 18.828125 12.890625 
Q 22.859375 7.515625 30.078125 7.515625 
Q 37.359375 7.515625 41.375 12.890625 
Q 45.40625 18.265625 45.40625 27.984375 
z
M 54.390625 6.78125 
Q 54.390625 -7.171875 48.1875 -13.984375 
Q 42 -20.796875 29.203125 -20.796875 
Q 24.46875 -20.796875 20.265625 -20.09375 
Q 16.0625 -19.390625 12.109375 -17.921875 
L 12.109375 -9.1875 
Q 16.0625 -11.328125 19.921875 -12.34375 
Q 23.78125 -13.375 27.78125 -13.375 
Q 36.625 -13.375 41.015625 -8.765625 
Q 45.40625 -4.15625 45.40625 5.171875 
L 45.40625 9.625 
Q 42.625 4.78125 38.28125 2.390625 
Q 33.9375 0 27.875 0 
Q 17.828125 0 11.671875 7.65625 
Q 5.515625 15.328125 5.515625 27.984375 
Q 5.515625 40.671875 11.671875 48.328125 
Q 17.828125 56 27.875 56 
Q 33.9375 56 38.28125 53.609375 
Q 42.625 51.21875 45.40625 46.390625 
L 45.40625 54.6875 
L 54.390625 54.6875 
z
" id="DejaVuSans-103"/>
      <path d="M 12.40625 8.296875 
L 28.515625 8.296875 
L 28.515625 63.921875 
L 10.984375 60.40625 
L 10.984375 69.390625 
L 28.421875 72.90625 
L 38.28125 72.90625 
L 38.28125 8.296875 
L 54.390625 8.296875 
L 54.390625 0 
L 12.40625 0 
z
" id="DejaVuSans-49"/>
      <path d="M 31 75.875 
Q 24.46875 64.65625 21.28125 53.65625 
Q 18.109375 42.671875 18.109375 31.390625 
Q 18.109375 20.125 21.3125 9.0625 
Q 24.515625 -2 31 -13.1875 
L 23.1875 -13.1875 
Q 15.875 -1.703125 12.234375 9.375 
Q 8.59375 20.453125 8.59375 31.390625 
Q 8.59375 42.28125 12.203125 53.3125 
Q 15.828125 64.359375 23.1875 75.875 
z
" id="DejaVuSans-40"/>
      <path d="M 51.125 44 
L 36.921875 44 
L 32.8125 27.6875 
L 47.125 27.6875 
z
M 43.796875 71.78125 
L 38.71875 51.515625 
L 52.984375 51.515625 
L 58.109375 71.78125 
L 65.921875 71.78125 
L 60.890625 51.515625 
L 76.125 51.515625 
L 76.125 44 
L 58.984375 44 
L 54.984375 27.6875 
L 70.515625 27.6875 
L 70.515625 20.21875 
L 53.078125 20.21875 
L 48 0 
L 40.1875 0 
L 45.21875 20.21875 
L 30.90625 20.21875 
L 25.875 0 
L 18.015625 0 
L 23.09375 20.21875 
L 7.71875 20.21875 
L 7.71875 27.6875 
L 24.90625 27.6875 
L 29 44 
L 13.28125 44 
L 13.28125 51.515625 
L 30.90625 51.515625 
L 35.890625 71.78125 
z
" id="DejaVuSans-35"/>
      <path id="DejaVuSans-32"/>
      <path d="M 37.109375 75.984375 
L 37.109375 68.5 
L 28.515625 68.5 
Q 23.6875 68.5 21.796875 66.546875 
Q 19.921875 64.59375 19.921875 59.515625 
L 19.921875 54.6875 
L 34.71875 54.6875 
L 34.71875 47.703125 
L 19.921875 47.703125 
L 19.921875 0 
L 10.890625 0 
L 10.890625 47.703125 
L 2.296875 47.703125 
L 2.296875 54.6875 
L 10.890625 54.6875 
L 10.890625 58.5 
Q 10.890625 67.625 15.140625 71.796875 
Q 19.390625 75.984375 28.609375 75.984375 
z
" id="DejaVuSans-102"/>
      <path d="M 4.890625 31.390625 
L 31.203125 31.390625 
L 31.203125 23.390625 
L 4.890625 23.390625 
z
" id="DejaVuSans-45"/>
      <path d="M 56.203125 29.59375 
L 56.203125 25.203125 
L 14.890625 25.203125 
Q 15.484375 15.921875 20.484375 11.0625 
Q 25.484375 6.203125 34.421875 6.203125 
Q 39.59375 6.203125 44.453125 7.46875 
Q 49.3125 8.734375 54.109375 11.28125 
L 54.109375 2.78125 
Q 49.265625 0.734375 44.1875 -0.34375 
Q 39.109375 -1.421875 33.890625 -1.421875 
Q 20.796875 -1.421875 13.15625 6.1875 
Q 5.515625 13.8125 5.515625 26.8125 
Q 5.515625 40.234375 12.765625 48.109375 
Q 20.015625 56 32.328125 56 
Q 43.359375 56 49.78125 48.890625 
Q 56.203125 41.796875 56.203125 29.59375 
z
M 47.21875 32.234375 
Q 47.125 39.59375 43.09375 43.984375 
Q 39.0625 48.390625 32.421875 48.390625 
Q 24.90625 48.390625 20.390625 44.140625 
Q 15.875 39.890625 15.1875 32.171875 
z
" id="DejaVuSans-101"/>
      <path d="M 2.984375 54.6875 
L 12.5 54.6875 
L 29.59375 8.796875 
L 46.6875 54.6875 
L 56.203125 54.6875 
L 35.6875 0 
L 23.484375 0 
z
" id="DejaVuSans-118"/>
      <path d="M 34.28125 27.484375 
Q 23.390625 27.484375 19.1875 25 
Q 14.984375 22.515625 14.984375 16.5 
Q 14.984375 11.71875 18.140625 8.90625 
Q 21.296875 6.109375 26.703125 6.109375 
Q 34.1875 6.109375 38.703125 11.40625 
Q 43.21875 16.703125 43.21875 25.484375 
L 43.21875 27.484375 
z
M 52.203125 31.203125 
L 52.203125 0 
L 43.21875 0 
L 43.21875 8.296875 
Q 40.140625 3.328125 35.546875 0.953125 
Q 30.953125 -1.421875 24.3125 -1.421875 
Q 15.921875 -1.421875 10.953125 3.296875 
Q 6 8.015625 6 15.921875 
Q 6 25.140625 12.171875 29.828125 
Q 18.359375 34.515625 30.609375 34.515625 
L 43.21875 34.515625 
L 43.21875 35.40625 
Q 43.21875 41.609375 39.140625 45 
Q 35.0625 48.390625 27.6875 48.390625 
Q 23 48.390625 18.546875 47.265625 
Q 14.109375 46.140625 10.015625 43.890625 
L 10.015625 52.203125 
Q 14.9375 54.109375 19.578125 55.046875 
Q 24.21875 56 28.609375 56 
Q 40.484375 56 46.34375 49.84375 
Q 52.203125 43.703125 52.203125 31.203125 
z
" id="DejaVuSans-97"/>
      <path d="M 44.28125 53.078125 
L 44.28125 44.578125 
Q 40.484375 46.53125 36.375 47.5 
Q 32.28125 48.484375 27.875 48.484375 
Q 21.1875 48.484375 17.84375 46.4375 
Q 14.5 44.390625 14.5 40.28125 
Q 14.5 37.15625 16.890625 35.375 
Q 19.28125 33.59375 26.515625 31.984375 
L 29.59375 31.296875 
Q 39.15625 29.25 43.1875 25.515625 
Q 47.21875 21.78125 47.21875 15.09375 
Q 47.21875 7.46875 41.1875 3.015625 
Q 35.15625 -1.421875 24.609375 -1.421875 
Q 20.21875 -1.421875 15.453125 -0.5625 
Q 10.6875 0.296875 5.421875 2 
L 5.421875 11.28125 
Q 10.40625 8.6875 15.234375 7.390625 
Q 20.0625 6.109375 24.8125 6.109375 
Q 31.15625 6.109375 34.5625 8.28125 
Q 37.984375 10.453125 37.984375 14.40625 
Q 37.984375 18.0625 35.515625 20.015625 
Q 33.0625 21.96875 24.703125 23.78125 
L 21.578125 24.515625 
Q 13.234375 26.265625 9.515625 29.90625 
Q 5.8125 33.546875 5.8125 39.890625 
Q 5.8125 47.609375 11.28125 51.796875 
Q 16.75 56 26.8125 56 
Q 31.78125 56 36.171875 55.265625 
Q 40.578125 54.546875 44.28125 53.078125 
z
" id="DejaVuSans-115"/>
      <path d="M 25.390625 72.90625 
L 33.6875 72.90625 
L 8.296875 -9.28125 
L 0 -9.28125 
z
" id="DejaVuSans-47"/>
      <path d="M 45.40625 46.390625 
L 45.40625 75.984375 
L 54.390625 75.984375 
L 54.390625 0 
L 45.40625 0 
L 45.40625 8.203125 
Q 42.578125 3.328125 38.25 0.953125 
Q 33.9375 -1.421875 27.875 -1.421875 
Q 17.96875 -1.421875 11.734375 6.484375 
Q 5.515625 14.40625 5.515625 27.296875 
Q 5.515625 40.1875 11.734375 48.09375 
Q 17.96875 56 27.875 56 
Q 33.9375 56 38.25 53.625 
Q 42.578125 51.265625 45.40625 46.390625 
z
M 14.796875 27.296875 
Q 14.796875 17.390625 18.875 11.75 
Q 22.953125 6.109375 30.078125 6.109375 
Q 37.203125 6.109375 41.296875 11.75 
Q 45.40625 17.390625 45.40625 27.296875 
Q 45.40625 37.203125 41.296875 42.84375 
Q 37.203125 48.484375 30.078125 48.484375 
Q 22.953125 48.484375 18.875 42.84375 
Q 14.796875 37.203125 14.796875 27.296875 
z
" id="DejaVuSans-100"/>
      <path d="M 9.421875 54.6875 
L 18.40625 54.6875 
L 18.40625 0 
L 9.421875 0 
z
M 9.421875 75.984375 
L 18.40625 75.984375 
L 18.40625 64.59375 
L 9.421875 64.59375 
z
" id="DejaVuSans-105"/>
      <path d="M 52 44.1875 
Q 55.375 50.25 60.0625 53.125 
Q 64.75 56 71.09375 56 
Q 79.640625 56 84.28125 50.015625 
Q 88.921875 44.046875 88.921875 33.015625 
L 88.921875 0 
L 79.890625 0 
L 79.890625 32.71875 
Q 79.890625 40.578125 77.09375 44.375 
Q 74.3125 48.1875 68.609375 48.1875 
Q 61.625 48.1875 57.5625 43.546875 
Q 53.515625 38.921875 53.515625 30.90625 
L 53.515625 0 
L 44.484375 0 
L 44.484375 32.71875 
Q 44.484375 40.625 41.703125 44.40625 
Q 38.921875 48.1875 33.109375 48.1875 
Q 26.21875 48.1875 22.15625 43.53125 
Q 18.109375 38.875 18.109375 30.90625 
L 18.109375 0 
L 9.078125 0 
L 9.078125 54.6875 
L 18.109375 54.6875 
L 18.109375 46.1875 
Q 21.1875 51.21875 25.484375 53.609375 
Q 29.78125 56 35.6875 56 
Q 41.65625 56 45.828125 52.96875 
Q 50 49.953125 52 44.1875 
z
" id="DejaVuSans-109"/>
      <path d="M 54.890625 33.015625 
L 54.890625 0 
L 45.90625 0 
L 45.90625 32.71875 
Q 45.90625 40.484375 42.875 44.328125 
Q 39.84375 48.1875 33.796875 48.1875 
Q 26.515625 48.1875 22.3125 43.546875 
Q 18.109375 38.921875 18.109375 30.90625 
L 18.109375 0 
L 9.078125 0 
L 9.078125 54.6875 
L 18.109375 54.6875 
L 18.109375 46.1875 
Q 21.34375 51.125 25.703125 53.5625 
Q 30.078125 56 35.796875 56 
Q 45.21875 56 50.046875 50.171875 
Q 54.890625 44.34375 54.890625 33.015625 
z
" id="DejaVuSans-110"/>
      <path d="M 8.015625 75.875 
L 15.828125 75.875 
Q 23.140625 64.359375 26.78125 53.3125 
Q 30.421875 42.28125 30.421875 31.390625 
Q 30.421875 20.453125 26.78125 9.375 
Q 23.140625 -1.703125 15.828125 -13.1875 
L 8.015625 -13.1875 
Q 14.5 -2 17.703125 9.0625 
Q 20.90625 20.125 20.90625 31.390625 
Q 20.90625 42.671875 17.703125 53.65625 
Q 14.5 64.65625 8.015625 75.875 
z
" id="DejaVuSans-41"/>
     </defs>
     <g transform="translate(77.303219 342.217594)scale(0.17 -0.17)">
      <use xlink:href="#DejaVuSans-108"/>
      <use x="27.783203" xlink:href="#DejaVuSans-111"/>
      <use x="88.964844" xlink:href="#DejaVuSans-103"/>
      <use x="152.441406" xlink:href="#DejaVuSans-49"/>
      <use x="216.064453" xlink:href="#DejaVuSans-48"/>
      <use x="279.6875" xlink:href="#DejaVuSans-40"/>
      <use x="318.701172" xlink:href="#DejaVuSans-35"/>
      <use x="402.490234" xlink:href="#DejaVuSans-32"/>
      <use x="434.277344" xlink:href="#DejaVuSans-102"/>
      <use x="469.404297" xlink:href="#DejaVuSans-45"/>
      <use x="505.488281" xlink:href="#DejaVuSans-101"/>
      <use x="567.011719" xlink:href="#DejaVuSans-118"/>
      <use x="626.191406" xlink:href="#DejaVuSans-97"/>
      <use x="687.470703" xlink:href="#DejaVuSans-108"/>
      <use x="715.253906" xlink:href="#DejaVuSans-115"/>
      <use x="767.353516" xlink:href="#DejaVuSans-32"/>
      <use x="799.140625" xlink:href="#DejaVuSans-47"/>
      <use x="832.832031" xlink:href="#DejaVuSans-32"/>
      <use x="864.619141" xlink:href="#DejaVuSans-100"/>
      <use x="928.095703" xlink:href="#DejaVuSans-105"/>
      <use x="955.878906" xlink:href="#DejaVuSans-109"/>
      <use x="1053.291016" xlink:href="#DejaVuSans-101"/>
      <use x="1114.814453" xlink:href="#DejaVuSans-110"/>
      <use x="1178.193359" xlink:href="#DejaVuSans-115"/>
      <use x="1230.292969" xlink:href="#DejaVuSans-105"/>
      <use x="1258.076172" xlink:href="#DejaVuSans-111"/>
      <use x="1319.257812" xlink:href="#DejaVuSans-110"/>
      <use x="1382.636719" xlink:href="#DejaVuSans-41"/>
     </g>
    </g>
   </g>
   <g id="matplotlib.axis_2">
    <g id="ytick_1">
     <g id="line2d_29">
      <path clip-path="url(#p64d7ae8913)" d="M 57.6 298.944 
L 338.688 298.944 
" style="fill:none;stroke:#b0b0b0;stroke-linecap:square;stroke-width:0.8;"/>
     </g>
     <g id="line2d_30">
      <defs>
       <path d="M 0 0 
L -3.5 0 
" id="m0312247d82" style="stroke:#000000;stroke-width:0.8;"/>
      </defs>
      <g>
       <use style="stroke:#000000;stroke-width:0.8;" x="57.6" xlink:href="#m0312247d82" y="298.944"/>
      </g>
     </g>
     <g id="text_6">
      <!-- 0.0 -->
      <defs>
       <path d="M 10.6875 12.40625 
L 21 12.40625 
L 21 0 
L 10.6875 0 
z
" id="DejaVuSans-46"/>
      </defs>
      <g transform="translate(25.155 305.02275)scale(0.16 -0.16)">
       <use xlink:href="#DejaVuSans-48"/>
       <use x="63.623047" xlink:href="#DejaVuSans-46"/>
       <use x="95.410156" xlink:href="#DejaVuSans-48"/>
      </g>
     </g>
    </g>
    <g id="ytick_2">
     <g id="line2d_31">
      <path clip-path="url(#p64d7ae8913)" d="M 57.6 247.959446 
L 338.688 247.959446 
" style="fill:none;stroke:#b0b0b0;stroke-linecap:square;stroke-width:0.8;"/>
     </g>
     <g id="line2d_32">
      <g>
       <use style="stroke:#000000;stroke-width:0.8;" x="57.6" xlink:href="#m0312247d82" y="247.959446"/>
      </g>
     </g>
     <g id="text_7">
      <!-- 0.2 -->
      <g transform="translate(25.155 254.038196)scale(0.16 -0.16)">
       <use xlink:href="#DejaVuSans-48"/>
       <use x="63.623047" xlink:href="#DejaVuSans-46"/>
       <use x="95.410156" xlink:href="#DejaVuSans-50"/>
      </g>
     </g>
    </g>
    <g id="ytick_3">
     <g id="line2d_33">
      <path clip-path="url(#p64d7ae8913)" d="M 57.6 196.974891 
L 338.688 196.974891 
" style="fill:none;stroke:#b0b0b0;stroke-linecap:square;stroke-width:0.8;"/>
     </g>
     <g id="line2d_34">
      <g>
       <use style="stroke:#000000;stroke-width:0.8;" x="57.6" xlink:href="#m0312247d82" y="196.974891"/>
      </g>
     </g>
     <g id="text_8">
      <!-- 0.4 -->
      <g transform="translate(25.155 203.053641)scale(0.16 -0.16)">
       <use xlink:href="#DejaVuSans-48"/>
       <use x="63.623047" xlink:href="#DejaVuSans-46"/>
       <use x="95.410156" xlink:href="#DejaVuSans-52"/>
      </g>
     </g>
    </g>
    <g id="ytick_4">
     <g id="line2d_35">
      <path clip-path="url(#p64d7ae8913)" d="M 57.6 145.990337 
L 338.688 145.990337 
" style="fill:none;stroke:#b0b0b0;stroke-linecap:square;stroke-width:0.8;"/>
     </g>
     <g id="line2d_36">
      <g>
       <use style="stroke:#000000;stroke-width:0.8;" x="57.6" xlink:href="#m0312247d82" y="145.990337"/>
      </g>
     </g>
     <g id="text_9">
      <!-- 0.6 -->
      <g transform="translate(25.155 152.069087)scale(0.16 -0.16)">
       <use xlink:href="#DejaVuSans-48"/>
       <use x="63.623047" xlink:href="#DejaVuSans-46"/>
       <use x="95.410156" xlink:href="#DejaVuSans-54"/>
      </g>
     </g>
    </g>
    <g id="ytick_5">
     <g id="line2d_37">
      <path clip-path="url(#p64d7ae8913)" d="M 57.6 95.005782 
L 338.688 95.005782 
" style="fill:none;stroke:#b0b0b0;stroke-linecap:square;stroke-width:0.8;"/>
     </g>
     <g id="line2d_38">
      <g>
       <use style="stroke:#000000;stroke-width:0.8;" x="57.6" xlink:href="#m0312247d82" y="95.005782"/>
      </g>
     </g>
     <g id="text_10">
      <!-- 0.8 -->
      <defs>
       <path d="M 31.78125 34.625 
Q 24.75 34.625 20.71875 30.859375 
Q 16.703125 27.09375 16.703125 20.515625 
Q 16.703125 13.921875 20.71875 10.15625 
Q 24.75 6.390625 31.78125 6.390625 
Q 38.8125 6.390625 42.859375 10.171875 
Q 46.921875 13.96875 46.921875 20.515625 
Q 46.921875 27.09375 42.890625 30.859375 
Q 38.875 34.625 31.78125 34.625 
z
M 21.921875 38.8125 
Q 15.578125 40.375 12.03125 44.71875 
Q 8.5 49.078125 8.5 55.328125 
Q 8.5 64.0625 14.71875 69.140625 
Q 20.953125 74.21875 31.78125 74.21875 
Q 42.671875 74.21875 48.875 69.140625 
Q 55.078125 64.0625 55.078125 55.328125 
Q 55.078125 49.078125 51.53125 44.71875 
Q 48 40.375 41.703125 38.8125 
Q 48.828125 37.15625 52.796875 32.3125 
Q 56.78125 27.484375 56.78125 20.515625 
Q 56.78125 9.90625 50.3125 4.234375 
Q 43.84375 -1.421875 31.78125 -1.421875 
Q 19.734375 -1.421875 13.25 4.234375 
Q 6.78125 9.90625 6.78125 20.515625 
Q 6.78125 27.484375 10.78125 32.3125 
Q 14.796875 37.15625 21.921875 38.8125 
z
M 18.3125 54.390625 
Q 18.3125 48.734375 21.84375 45.5625 
Q 25.390625 42.390625 31.78125 42.390625 
Q 38.140625 42.390625 41.71875 45.5625 
Q 45.3125 48.734375 45.3125 54.390625 
Q 45.3125 60.0625 41.71875 63.234375 
Q 38.140625 66.40625 31.78125 66.40625 
Q 25.390625 66.40625 21.84375 63.234375 
Q 18.3125 60.0625 18.3125 54.390625 
z
" id="DejaVuSans-56"/>
      </defs>
      <g transform="translate(25.155 101.084532)scale(0.16 -0.16)">
       <use xlink:href="#DejaVuSans-48"/>
       <use x="63.623047" xlink:href="#DejaVuSans-46"/>
       <use x="95.410156" xlink:href="#DejaVuSans-56"/>
      </g>
     </g>
    </g>
    <g id="ytick_6">
     <g id="line2d_39">
      <path clip-path="url(#p64d7ae8913)" d="M 57.6 44.021228 
L 338.688 44.021228 
" style="fill:none;stroke:#b0b0b0;stroke-linecap:square;stroke-width:0.8;"/>
     </g>
     <g id="line2d_40">
      <g>
       <use style="stroke:#000000;stroke-width:0.8;" x="57.6" xlink:href="#m0312247d82" y="44.021228"/>
      </g>
     </g>
     <g id="text_11">
      <!-- 1.0 -->
      <g transform="translate(25.155 50.099978)scale(0.16 -0.16)">
       <use xlink:href="#DejaVuSans-49"/>
       <use x="63.623047" xlink:href="#DejaVuSans-46"/>
       <use x="95.410156" xlink:href="#DejaVuSans-48"/>
      </g>
     </g>
    </g>
    <g id="text_12">
     <!-- Fraction of function,target pairs -->
     <defs>
      <path d="M 9.8125 72.90625 
L 51.703125 72.90625 
L 51.703125 64.59375 
L 19.671875 64.59375 
L 19.671875 43.109375 
L 48.578125 43.109375 
L 48.578125 34.8125 
L 19.671875 34.8125 
L 19.671875 0 
L 9.8125 0 
z
" id="DejaVuSans-70"/>
      <path d="M 41.109375 46.296875 
Q 39.59375 47.171875 37.8125 47.578125 
Q 36.03125 48 33.890625 48 
Q 26.265625 48 22.1875 43.046875 
Q 18.109375 38.09375 18.109375 28.8125 
L 18.109375 0 
L 9.078125 0 
L 9.078125 54.6875 
L 18.109375 54.6875 
L 18.109375 46.1875 
Q 20.953125 51.171875 25.484375 53.578125 
Q 30.03125 56 36.53125 56 
Q 37.453125 56 38.578125 55.875 
Q 39.703125 55.765625 41.0625 55.515625 
z
" id="DejaVuSans-114"/>
      <path d="M 48.78125 52.59375 
L 48.78125 44.1875 
Q 44.96875 46.296875 41.140625 47.34375 
Q 37.3125 48.390625 33.40625 48.390625 
Q 24.65625 48.390625 19.8125 42.84375 
Q 14.984375 37.3125 14.984375 27.296875 
Q 14.984375 17.28125 19.8125 11.734375 
Q 24.65625 6.203125 33.40625 6.203125 
Q 37.3125 6.203125 41.140625 7.25 
Q 44.96875 8.296875 48.78125 10.40625 
L 48.78125 2.09375 
Q 45.015625 0.34375 40.984375 -0.53125 
Q 36.96875 -1.421875 32.421875 -1.421875 
Q 20.0625 -1.421875 12.78125 6.34375 
Q 5.515625 14.109375 5.515625 27.296875 
Q 5.515625 40.671875 12.859375 48.328125 
Q 20.21875 56 33.015625 56 
Q 37.15625 56 41.109375 55.140625 
Q 45.0625 54.296875 48.78125 52.59375 
z
" id="DejaVuSans-99"/>
      <path d="M 18.3125 70.21875 
L 18.3125 54.6875 
L 36.8125 54.6875 
L 36.8125 47.703125 
L 18.3125 47.703125 
L 18.3125 18.015625 
Q 18.3125 11.328125 20.140625 9.421875 
Q 21.96875 7.515625 27.59375 7.515625 
L 36.8125 7.515625 
L 36.8125 0 
L 27.59375 0 
Q 17.1875 0 13.234375 3.875 
Q 9.28125 7.765625 9.28125 18.015625 
L 9.28125 47.703125 
L 2.6875 47.703125 
L 2.6875 54.6875 
L 9.28125 54.6875 
L 9.28125 70.21875 
z
" id="DejaVuSans-116"/>
      <path d="M 8.5 21.578125 
L 8.5 54.6875 
L 17.484375 54.6875 
L 17.484375 21.921875 
Q 17.484375 14.15625 20.5 10.265625 
Q 23.53125 6.390625 29.59375 6.390625 
Q 36.859375 6.390625 41.078125 11.03125 
Q 45.3125 15.671875 45.3125 23.6875 
L 45.3125 54.6875 
L 54.296875 54.6875 
L 54.296875 0 
L 45.3125 0 
L 45.3125 8.40625 
Q 42.046875 3.421875 37.71875 1 
Q 33.40625 -1.421875 27.6875 -1.421875 
Q 18.265625 -1.421875 13.375 4.4375 
Q 8.5 10.296875 8.5 21.578125 
z
M 31.109375 56 
z
" id="DejaVuSans-117"/>
      <path d="M 11.71875 12.40625 
L 22.015625 12.40625 
L 22.015625 4 
L 14.015625 -11.625 
L 7.71875 -11.625 
L 11.71875 4 
z
" id="DejaVuSans-44"/>
      <path d="M 18.109375 8.203125 
L 18.109375 -20.796875 
L 9.078125 -20.796875 
L 9.078125 54.6875 
L 18.109375 54.6875 
L 18.109375 46.390625 
Q 20.953125 51.265625 25.265625 53.625 
Q 29.59375 56 35.59375 56 
Q 45.5625 56 51.78125 48.09375 
Q 58.015625 40.1875 58.015625 27.296875 
Q 58.015625 14.40625 51.78125 6.484375 
Q 45.5625 -1.421875 35.59375 -1.421875 
Q 29.59375 -1.421875 25.265625 0.953125 
Q 20.953125 3.328125 18.109375 8.203125 
z
M 48.6875 27.296875 
Q 48.6875 37.203125 44.609375 42.84375 
Q 40.53125 48.484375 33.40625 48.484375 
Q 26.265625 48.484375 22.1875 42.84375 
Q 18.109375 37.203125 18.109375 27.296875 
Q 18.109375 17.390625 22.1875 11.75 
Q 26.265625 6.109375 33.40625 6.109375 
Q 40.53125 6.109375 44.609375 11.75 
Q 48.6875 17.390625 48.6875 27.296875 
z
" id="DejaVuSans-112"/>
     </defs>
     <g transform="translate(17.619531 305.347375)rotate(-90)scale(0.17 -0.17)">
      <use xlink:href="#DejaVuSans-70"/>
      <use x="57.410156" xlink:href="#DejaVuSans-114"/>
      <use x="98.523438" xlink:href="#DejaVuSans-97"/>
      <use x="159.802734" xlink:href="#DejaVuSans-99"/>
      <use x="214.783203" xlink:href="#DejaVuSans-116"/>
      <use x="253.992188" xlink:href="#DejaVuSans-105"/>
      <use x="281.775391" xlink:href="#DejaVuSans-111"/>
      <use x="342.957031" xlink:href="#DejaVuSans-110"/>
      <use x="406.335938" xlink:href="#DejaVuSans-32"/>
      <use x="438.123047" xlink:href="#DejaVuSans-111"/>
      <use x="499.304688" xlink:href="#DejaVuSans-102"/>
      <use x="534.509766" xlink:href="#DejaVuSans-32"/>
      <use x="566.296875" xlink:href="#DejaVuSans-102"/>
      <use x="601.501953" xlink:href="#DejaVuSans-117"/>
      <use x="664.880859" xlink:href="#DejaVuSans-110"/>
      <use x="728.259766" xlink:href="#DejaVuSans-99"/>
      <use x="783.240234" xlink:href="#DejaVuSans-116"/>
      <use x="822.449219" xlink:href="#DejaVuSans-105"/>
      <use x="850.232422" xlink:href="#DejaVuSans-111"/>
      <use x="911.414062" xlink:href="#DejaVuSans-110"/>
      <use x="974.792969" xlink:href="#DejaVuSans-44"/>
      <use x="1006.580078" xlink:href="#DejaVuSans-116"/>
      <use x="1045.789062" xlink:href="#DejaVuSans-97"/>
      <use x="1107.068359" xlink:href="#DejaVuSans-114"/>
      <use x="1148.166016" xlink:href="#DejaVuSans-103"/>
      <use x="1211.642578" xlink:href="#DejaVuSans-101"/>
      <use x="1273.166016" xlink:href="#DejaVuSans-116"/>
      <use x="1312.375" xlink:href="#DejaVuSans-32"/>
      <use x="1344.162109" xlink:href="#DejaVuSans-112"/>
      <use x="1407.638672" xlink:href="#DejaVuSans-97"/>
      <use x="1468.917969" xlink:href="#DejaVuSans-105"/>
      <use x="1496.701172" xlink:href="#DejaVuSans-114"/>
      <use x="1537.814453" xlink:href="#DejaVuSans-115"/>
     </g>
    </g>
   </g>
   <g id="line2d_41">
    <defs>
     <path d="M 0 1.5 
C 0.397805 1.5 0.77937 1.341951 1.06066 1.06066 
C 1.341951 0.77937 1.5 0.397805 1.5 0 
C 1.5 -0.397805 1.341951 -0.77937 1.06066 -1.06066 
C 0.77937 -1.341951 0.397805 -1.5 0 -1.5 
C -0.397805 -1.5 -0.77937 -1.341951 -1.06066 -1.06066 
C -1.341951 -0.77937 -1.5 -0.397805 -1.5 0 
C -1.5 0.397805 -1.341951 0.77937 -1.06066 1.06066 
C -0.77937 1.341951 -0.397805 1.5 0 1.5 
z
" id="m7ca51f8d8d" style="stroke:#f5deb3;"/>
    </defs>
    <g>
     <use style="fill:#f5deb3;stroke:#f5deb3;" x="246.698155" xlink:href="#m7ca51f8d8d" y="74.787769"/>
     <use style="fill:#f5deb3;stroke:#f5deb3;" x="246.698155" xlink:href="#m7ca51f8d8d" y="74.787769"/>
    </g>
   </g>
   <g id="line2d_42">
    <defs>
     <path d="M 0 1.5 
C 0.397805 1.5 0.77937 1.341951 1.06066 1.06066 
C 1.341951 0.77937 1.5 0.397805 1.5 0 
C 1.5 -0.397805 1.341951 -0.77937 1.06066 -1.06066 
C 0.77937 -1.341951 0.397805 -1.5 0 -1.5 
C -0.397805 -1.5 -0.77937 -1.341951 -1.06066 -1.06066 
C -1.341951 -0.77937 -1.5 -0.397805 -1.5 0 
C -1.5 0.397805 -1.341951 0.77937 -1.06066 1.06066 
C -0.77937 1.341951 -0.397805 1.5 0 1.5 
z
" id="m9728a6b0f4" style="stroke:#000080;"/>
    </defs>
    <g>
     <use style="fill:#000080;stroke:#000080;" x="228.731938" xlink:href="#m9728a6b0f4" y="171.922136"/>
     <use style="fill:#000080;stroke:#000080;" x="228.731938" xlink:href="#m9728a6b0f4" y="171.922136"/>
    </g>
   </g>
   <g id="line2d_43">
    <path d="M 45.512012 298.944 
L 45.512012 291.911648 
L 151.178764 291.911648 
L 151.178764 291.472126 
L 151.300575 291.472126 
L 151.340991 290.593082 
L 151.975216 290.593082 
L 152.052897 289.274516 
L 152.168773 289.274516 
L 152.168773 288.834994 
L 152.322086 288.834994 
L 152.398241 287.076905 
L 152.624728 287.076905 
L 152.699575 285.758339 
L 152.811246 285.758339 
L 152.848312 284.879295 
L 153.069065 284.879295 
L 153.142033 282.242163 
L 153.214697 282.242163 
L 153.287059 281.363119 
L 153.359122 281.363119 
L 153.430889 280.044553 
L 153.502361 280.044553 
L 153.537988 277.846943 
L 153.679772 277.846943 
L 153.679772 277.407421 
L 153.855395 277.407421 
L 153.959927 276.088855 
L 153.994632 276.088855 
L 154.098334 272.133157 
L 154.132765 272.133157 
L 154.235652 270.375069 
L 154.269814 270.375069 
L 154.337936 268.177459 
L 154.439623 268.177459 
L 154.439623 264.22176 
L 154.641235 264.22176 
L 154.674612 263.342716 
L 154.873541 263.342716 
L 154.873541 262.463672 
L 155.004911 262.463672 
L 155.0376 260.705584 
L 155.135299 260.705584 
L 155.232454 258.507974 
L 155.296925 258.507974 
L 155.296925 257.62893 
L 155.425155 257.62893 
L 155.488919 256.310364 
L 155.55245 256.310364 
L 155.584129 254.991798 
L 155.678822 254.991798 
L 155.678822 254.552276 
L 155.804285 254.552276 
L 155.804285 254.112754 
L 156.114049 254.112754 
L 156.205916 252.794188 
L 156.327657 252.794188 
L 156.38821 251.475622 
L 156.568618 251.475622 
L 156.568618 251.0361 
L 157.837488 251.0361 
L 157.837488 250.157056 
L 158.51933 250.157056 
L 158.546057 248.83849 
L 158.67908 248.83849 
L 158.67908 248.398968 
L 158.83738 248.398968 
L 158.889829 246.201357 
L 158.994256 246.201357 
L 159.046236 244.443269 
L 159.405822 244.443269 
L 159.405822 244.003747 
L 159.633129 244.003747 
L 159.633129 243.564225 
L 159.758143 243.564225 
L 159.832723 242.245659 
L 160.030058 242.245659 
L 160.103486 240.487571 
L 160.225184 240.487571 
L 160.225184 239.608527 
L 160.844678 239.608527 
L 160.86807 238.729483 
L 161.007772 238.729483 
L 161.030947 236.971395 
L 161.329454 236.971395 
L 161.329454 236.531873 
L 161.488097 236.531873 
L 161.555647 234.773785 
L 161.911563 234.773785 
L 161.911563 234.334263 
L 164.024234 234.334263 
L 164.024234 233.455219 
L 166.7626 233.455219 
L 166.7626 233.015697 
L 167.497166 233.015697 
L 167.497166 232.136653 
L 174.03255 232.136653 
L 174.03255 231.257609 
L 181.704798 231.257609 
L 181.704798 230.818087 
L 183.013357 230.818087 
L 183.013357 229.939043 
L 185.224285 229.939043 
L 185.224285 229.059999 
L 185.943825 229.059999 
L 185.943825 228.620477 
L 186.910072 228.620477 
L 186.910072 228.180955 
L 188.841751 228.180955 
L 188.841751 227.741433 
L 190.123729 227.741433 
L 190.123729 226.862389 
L 192.716283 226.862389 
L 192.716283 225.983344 
L 194.367128 225.983344 
L 194.367128 225.1043 
L 195.647529 225.1043 
L 195.647529 224.664778 
L 196.158596 224.664778 
L 196.158596 224.225256 
L 196.391859 224.225256 
L 196.391859 223.346212 
L 198.296217 223.346212 
L 198.296217 222.467168 
L 199.400354 222.467168 
L 199.400354 221.588124 
L 200.236919 221.588124 
L 200.32717 220.70908 
L 200.484598 220.70908 
L 200.484598 219.830036 
L 201.258023 219.830036 
L 201.258023 219.390514 
L 201.503086 219.390514 
L 201.503086 218.950992 
L 201.729045 218.950992 
L 201.729045 218.51147 
L 201.863229 218.51147 
L 201.863229 217.632426 
L 202.290155 217.632426 
L 202.290155 217.192904 
L 202.521228 217.192904 
L 202.521228 216.753382 
L 202.831665 216.753382 
L 202.831665 215.874338 
L 203.209004 215.874338 
L 203.209004 215.434816 
L 203.491312 215.434816 
L 203.491312 214.995294 
L 203.928168 214.995294 
L 203.928168 214.555772 
L 204.177712 214.555772 
L 204.177712 213.676728 
L 204.377508 213.676728 
L 204.487099 212.797684 
L 204.792976 212.797684 
L 204.792976 212.358162 
L 204.950459 212.358162 
L 204.950459 211.479118 
L 205.123172 211.479118 
L 205.123172 211.039596 
L 206.562646 211.039596 
L 206.562646 210.160552 
L 207.064132 210.160552 
L 207.064132 209.281508 
L 207.233598 209.281508 
L 207.233598 208.402464 
L 208.828479 208.402464 
L 208.885168 207.52342 
L 209.752409 207.52342 
L 209.777899 206.204854 
L 210.523056 206.204854 
L 210.523056 205.325809 
L 211.92791 205.325809 
L 211.92791 204.886287 
L 212.526716 204.886287 
L 212.526716 204.446765 
L 212.699908 204.446765 
L 212.699908 203.567721 
L 212.932911 203.567721 
L 212.945895 202.249155 
L 213.126676 202.249155 
L 213.183806 200.930589 
L 213.411623 200.930589 
L 213.411623 200.491067 
L 213.868593 200.491067 
L 213.868593 200.051545 
L 214.191275 200.051545 
L 214.269107 198.732979 
L 214.709756 198.732979 
L 214.767252 195.656325 
L 215.162422 195.656325 
L 215.162422 195.216803 
L 215.363891 195.216803 
L 215.363891 194.777281 
L 216.48381 194.777281 
L 216.48381 194.337759 
L 216.619114 194.337759 
L 216.619114 193.458715 
L 216.918589 193.458715 
L 216.918589 193.019193 
L 217.317097 193.019193 
L 217.317097 192.140149 
L 217.438817 192.140149 
L 217.448846 191.261105 
L 217.756026 191.261105 
L 217.863164 189.942539 
L 217.975839 189.942539 
L 217.975839 189.503017 
L 219.543663 189.503017 
L 219.543663 189.063495 
L 219.715789 189.063495 
L 219.803609 187.744929 
L 219.869581 187.744929 
L 219.916326 186.426363 
L 219.992905 186.426363 
L 220.040107 185.107797 
L 220.113017 185.107797 
L 220.113017 184.668274 
L 220.37007 184.668274 
L 220.37007 184.228752 
L 220.512871 184.228752 
L 220.571647 182.470664 
L 220.798021 182.470664 
L 220.903014 180.712576 
L 220.991764 180.712576 
L 221.033373 179.39401 
L 221.127369 179.39401 
L 221.228202 178.514966 
L 225.935864 178.514966 
L 225.935864 177.635922 
L 226.211563 177.635922 
L 226.211563 176.756878 
L 226.33192 176.756878 
L 226.33192 176.317356 
L 226.572331 176.317356 
L 226.572331 175.438312 
L 226.870647 175.438312 
L 226.870647 174.559268 
L 226.982861 174.559268 
L 226.982861 174.119746 
L 228.169332 174.119746 
L 228.169332 173.680224 
L 228.32782 173.680224 
L 228.424267 172.361658 
L 228.731938 172.361658 
L 228.731938 171.922136 
L 338.688 171.922136 
L 338.688 171.922136 
" style="fill:none;stroke:#000080;stroke-linecap:square;stroke-width:1.5;"/>
   </g>
   <g id="line2d_44">
    <defs>
     <path d="M 0 6 
C 1.591219 6 3.117479 5.367802 4.242641 4.242641 
C 5.367802 3.117479 6 1.591219 6 0 
C 6 -1.591219 5.367802 -3.117479 4.242641 -4.242641 
C 3.117479 -5.367802 1.591219 -6 0 -6 
C -1.591219 -6 -3.117479 -5.367802 -4.242641 -4.242641 
C -5.367802 -3.117479 -6 -1.591219 -6 0 
C -6 1.591219 -5.367802 3.117479 -4.242641 4.242641 
C -3.117479 5.367802 -1.591219 6 0 6 
z
" id="m0961206f40" style="stroke:#000080;stroke-width:1.5;"/>
    </defs>
    <g>
     <use style="fill-opacity:0;stroke:#000080;stroke-width:1.5;" x="185.943825" xlink:href="#m0961206f40" y="228.620477"/>
     <use style="fill-opacity:0;stroke:#000080;stroke-width:1.5;" x="228.731938" xlink:href="#m0961206f40" y="172.361658"/>
     <use style="fill-opacity:0;stroke:#000080;stroke-width:1.5;" x="228.731938" xlink:href="#m0961206f40" y="171.922136"/>
     <use style="fill-opacity:0;stroke:#000080;stroke-width:1.5;" x="228.731938" xlink:href="#m0961206f40" y="171.922136"/>
     <use style="fill-opacity:0;stroke:#000080;stroke-width:1.5;" x="338.688" xlink:href="#m0961206f40" y="171.922136"/>
    </g>
   </g>
   <g id="line2d_45">
    <path style="fill:none;stroke:#000080;stroke-linecap:square;stroke-width:1.5;"/>
    <g/>
   </g>
   <g id="line2d_46">
    <path clip-path="url(#p64d7ae8913)" d="M 222.530863 178.514966 
" style="fill:none;stroke:#000080;stroke-linecap:square;stroke-width:1.5;"/>
    <defs>
     <path d="M -12 12 
L 12 -12 
M -12 -12 
L 12 12 
" id="m2fbf14c732" style="stroke:#000080;"/>
    </defs>
    <g clip-path="url(#p64d7ae8913)">
     <use style="fill:#000080;stroke:#000080;" x="222.530863" xlink:href="#m2fbf14c732" y="178.514966"/>
    </g>
   </g>
   <g id="line2d_47">
    <defs>
     <path d="M 0 1.5 
C 0.397805 1.5 0.77937 1.341951 1.06066 1.06066 
C 1.341951 0.77937 1.5 0.397805 1.5 0 
C 1.5 -0.397805 1.341951 -0.77937 1.06066 -1.06066 
C 0.77937 -1.341951 0.397805 -1.5 0 -1.5 
C -0.397805 -1.5 -0.77937 -1.341951 -1.06066 -1.06066 
C -1.341951 -0.77937 -1.5 -0.397805 -1.5 0 
C -1.5 0.397805 -1.341951 0.77937 -1.06066 1.06066 
C -0.77937 1.341951 -0.397805 1.5 0 1.5 
z
" id="m0ea5c4b067" style="stroke:#ff00ff;"/>
    </defs>
    <g>
     <use style="fill:#ff00ff;stroke:#ff00ff;" x="257.120842" xlink:href="#m0ea5c4b067" y="135.441808"/>
     <use style="fill:#ff00ff;stroke:#ff00ff;" x="257.120842" xlink:href="#m0ea5c4b067" y="135.441808"/>
    </g>
   </g>
   <g id="line2d_48">
    <path d="M 45.512012 298.944 
L 45.512012 290.593082 
L 83.830028 290.593082 
L 83.830028 287.955949 
L 116.621333 287.955949 
L 116.621333 287.076905 
L 140.042245 287.076905 
L 140.042245 286.637383 
L 140.871049 286.637383 
L 140.871049 286.197861 
L 142.949611 286.197861 
L 142.949611 285.758339 
L 144.688773 285.758339 
L 144.747789 284.879295 
L 145.212864 284.879295 
L 145.212864 283.560729 
L 146.538004 283.560729 
L 146.538004 282.681685 
L 147.061745 282.681685 
L 147.061745 281.802641 
L 147.266916 281.802641 
L 147.266916 281.363119 
L 147.52003 281.363119 
L 147.52003 280.923597 
L 147.670154 280.923597 
L 147.670154 279.605031 
L 148.449693 279.605031 
L 148.449693 278.725987 
L 149.104327 278.725987 
L 149.104327 276.967899 
L 149.779481 276.967899 
L 149.779481 276.528377 
L 150.085825 276.528377 
L 150.129152 274.770289 
L 150.556607 274.770289 
L 150.556607 273.451723 
L 150.682827 273.451723 
L 150.682827 272.572679 
L 151.461678 272.572679 
L 151.461678 270.814591 
L 151.818809 270.814591 
L 151.818809 270.375069 
L 152.130233 270.375069 
L 152.207228 268.616981 
L 154.029268 268.616981 
L 154.029268 267.737936 
L 154.201424 267.737936 
L 154.201424 267.298414 
L 154.337936 267.298414 
L 154.337936 266.858892 
L 154.607795 266.858892 
L 154.641235 265.540326 
L 154.873541 265.540326 
L 154.93935 263.342716 
L 155.329071 263.342716 
L 155.329071 262.463672 
L 155.678822 262.463672 
L 155.678822 260.705584 
L 156.266892 260.705584 
L 156.266892 259.82654 
L 156.418408 259.82654 
L 156.508689 258.507974 
L 156.687861 258.507974 
L 156.687861 258.068452 
L 157.1279 258.068452 
L 157.156845 256.749886 
L 157.329512 256.749886 
L 157.329512 255.870842 
L 157.697862 255.870842 
L 157.781772 254.112754 
L 158.113432 254.112754 
L 158.113432 253.673232 
L 158.546057 253.673232 
L 158.652556 252.354666 
L 158.67908 252.354666 
L 158.75841 251.0361 
L 158.811096 251.0361 
L 158.811096 250.596578 
L 159.507213 250.596578 
L 159.507213 249.278012 
L 159.956318 249.278012 
L 160.030058 246.201357 
L 160.585265 246.201357 
L 160.680044 243.564225 
L 160.727241 243.564225 
L 160.774311 242.245659 
L 160.891432 242.245659 
L 160.891432 241.806137 
L 161.169354 241.806137 
L 161.169354 240.927093 
L 161.329454 240.927093 
L 161.329454 238.289961 
L 161.442917 238.289961 
L 161.53316 236.092351 
L 162.043181 236.092351 
L 162.043181 235.652829 
L 162.173813 235.652829 
L 162.173813 229.059999 
L 162.389382 229.059999 
L 162.389382 228.620477 
L 162.602318 228.620477 
L 162.602318 227.301911 
L 162.875305 227.301911 
L 162.916926 225.983344 
L 163.061823 225.983344 
L 163.061823 225.543822 
L 163.867476 225.543822 
L 163.867476 225.1043 
L 164.179597 225.1043 
L 164.179597 224.664778 
L 164.295217 224.664778 
L 164.333587 222.90669 
L 164.712717 222.90669 
L 164.712717 222.027646 
L 165.820633 222.027646 
L 165.820633 221.588124 
L 166.030537 221.588124 
L 166.134549 218.950992 
L 166.695783 218.950992 
L 166.695783 218.51147 
L 166.994465 218.51147 
L 166.994465 218.071948 
L 167.174506 218.071948 
L 167.190782 216.31386 
L 167.352708 216.31386 
L 167.352708 215.434816 
L 167.923499 215.434816 
L 167.923499 214.995294 
L 168.140524 214.995294 
L 168.217383 211.91864 
L 168.309168 211.91864 
L 168.309168 211.479118 
L 168.71633 211.479118 
L 168.71633 211.039596 
L 169.070439 211.039596 
L 169.070439 210.160552 
L 169.374494 210.160552 
L 169.374494 209.72103 
L 169.673338 209.72103 
L 169.673338 208.841986 
L 170.310587 208.841986 
L 170.364915 207.52342 
L 171.095254 207.52342 
L 171.095254 206.644376 
L 171.289242 206.644376 
L 171.289242 205.325809 
L 171.531901 205.325809 
L 171.531901 204.446765 
L 172.325296 204.446765 
L 172.325296 204.007243 
L 172.97942 204.007243 
L 173.06094 202.249155 
L 173.530906 202.249155 
L 173.530906 201.809633 
L 173.911252 201.809633 
L 173.911252 201.370111 
L 174.658532 201.370111 
L 174.764225 199.612023 
L 175.486665 199.612023 
L 175.486665 198.732979 
L 176.866214 198.732979 
L 176.866214 198.293457 
L 177.005766 198.293457 
L 177.005766 197.414413 
L 177.171768 197.414413 
L 177.272441 195.656325 
L 177.588952 195.656325 
L 177.588952 194.777281 
L 177.713965 194.777281 
L 177.79386 193.898237 
L 177.882205 193.898237 
L 177.882205 193.458715 
L 178.013889 193.458715 
L 178.013889 193.019193 
L 179.319393 193.019193 
L 179.319393 192.579671 
L 180.097069 192.579671 
L 180.097069 192.140149 
L 180.2131 192.140149 
L 180.2131 191.700627 
L 180.518792 191.700627 
L 180.579292 190.382061 
L 181.690637 190.382061 
L 181.690637 189.942539 
L 182.635021 189.942539 
L 182.635021 189.503017 
L 183.518129 189.503017 
L 183.518129 189.063495 
L 186.032405 189.063495 
L 186.032405 188.623973 
L 186.409338 188.623973 
L 186.409338 188.184451 
L 188.504772 188.184451 
L 188.504772 187.744929 
L 188.940185 187.744929 
L 188.949531 186.426363 
L 191.22383 186.426363 
L 191.22383 185.986841 
L 192.304942 185.986841 
L 192.304942 185.547319 
L 192.716283 185.547319 
L 192.742612 184.668274 
L 194.24342 184.668274 
L 194.24342 184.228752 
L 195.068485 184.228752 
L 195.068485 183.78923 
L 195.232174 183.78923 
L 195.232174 182.910186 
L 198.233234 182.910186 
L 198.307147 181.59162 
L 200.05253 181.59162 
L 200.116673 180.712576 
L 200.214895 180.712576 
L 200.214895 180.273054 
L 201.079514 180.273054 
L 201.100473 178.954488 
L 203.503483 178.954488 
L 203.503483 178.514966 
L 203.997297 178.514966 
L 203.997297 178.075444 
L 205.674306 178.075444 
L 205.674306 177.1964 
L 207.102117 177.1964 
L 207.102117 175.877834 
L 207.437074 175.877834 
L 207.437074 174.99879 
L 208.676904 174.99879 
L 208.676904 174.119746 
L 209.4508 174.119746 
L 209.525616 173.240702 
L 210.110086 173.240702 
L 210.110086 172.80118 
L 210.356849 172.80118 
L 210.356849 172.361658 
L 210.963529 172.361658 
L 210.963529 171.922136 
L 211.182927 171.922136 
L 211.182927 171.482614 
L 212.736968 171.482614 
L 212.736968 171.043092 
L 212.968301 171.043092 
L 213.063498 169.285004 
L 213.098625 169.285004 
L 213.189625 168.40596 
L 214.102054 168.40596 
L 214.109782 167.526916 
L 214.264731 167.526916 
L 214.264731 167.087394 
L 214.445405 167.087394 
L 214.445405 166.647872 
L 216.124666 166.647872 
L 216.124666 166.20835 
L 216.379458 166.20835 
L 216.379458 165.329306 
L 217.66624 165.329306 
L 217.66624 164.889784 
L 219.912369 164.889784 
L 219.912369 164.450262 
L 220.066013 164.450262 
L 220.066013 164.01074 
L 222.11248 164.01074 
L 222.11248 163.571217 
L 222.451681 163.571217 
L 222.519282 162.692173 
L 222.83468 162.692173 
L 222.94277 160.494563 
L 223.130661 160.494563 
L 223.130661 160.055041 
L 224.300035 160.055041 
L 224.300035 159.615519 
L 224.579617 159.615519 
L 224.579617 159.175997 
L 226.340133 159.175997 
L 226.340133 158.296953 
L 228.353201 158.296953 
L 228.353201 157.857431 
L 228.710448 157.857431 
L 228.710448 157.417909 
L 230.446932 157.417909 
L 230.446932 156.978387 
L 230.810789 156.978387 
L 230.810789 156.538865 
L 231.322169 156.538865 
L 231.322169 155.659821 
L 231.804578 155.659821 
L 231.804578 155.220299 
L 232.496176 155.220299 
L 232.496176 154.780777 
L 232.783029 154.780777 
L 232.783029 154.341255 
L 233.298936 154.341255 
L 233.298936 153.022689 
L 234.056871 153.022689 
L 234.056871 152.583167 
L 234.4615 152.583167 
L 234.4615 152.143645 
L 234.822993 152.143645 
L 234.822993 151.704123 
L 235.346497 151.704123 
L 235.410722 150.825079 
L 235.833476 150.825079 
L 235.833476 149.946035 
L 238.22965 149.946035 
L 238.22965 149.066991 
L 238.77178 149.066991 
L 238.77178 148.187947 
L 238.985166 148.187947 
L 238.985166 147.748425 
L 240.41532 147.748425 
L 240.41532 147.308903 
L 240.775006 147.308903 
L 240.775006 146.429859 
L 242.547244 146.429859 
L 242.547244 145.550815 
L 245.060663 145.550815 
L 245.13945 143.792727 
L 245.353468 143.792727 
L 245.353468 143.353205 
L 245.93541 143.353205 
L 245.989251 142.47416 
L 246.687078 142.47416 
L 246.687078 142.034638 
L 246.936542 142.034638 
L 246.936542 141.595116 
L 247.963182 141.595116 
L 248.07389 140.27655 
L 248.548168 140.27655 
L 248.548168 139.837028 
L 249.356595 139.837028 
L 249.356595 139.397506 
L 250.87841 139.397506 
L 250.918309 138.07894 
L 251.26247 138.07894 
L 251.26247 137.639418 
L 251.420411 137.639418 
L 251.420411 137.199896 
L 252.189221 137.199896 
L 252.189221 136.760374 
L 253.903291 136.760374 
L 253.903291 136.320852 
L 256.222175 136.320852 
L 256.222175 135.88133 
L 257.120842 135.88133 
L 257.120842 135.441808 
L 338.688 135.441808 
L 338.688 135.441808 
" style="fill:none;stroke:#ff00ff;stroke-linecap:square;stroke-width:1.5;"/>
   </g>
   <g id="line2d_49">
    <defs>
     <path d="M 0 8.485281 
L 5.091169 0 
L 0 -8.485281 
L -5.091169 0 
z
" id="m0598e12f0a" style="stroke:#ff00ff;stroke-linejoin:miter;stroke-width:1.5;"/>
    </defs>
    <g>
     <use style="fill-opacity:0;stroke:#ff00ff;stroke-linejoin:miter;stroke-width:1.5;" x="83.830028" xlink:href="#m0598e12f0a" y="290.593082"/>
     <use style="fill-opacity:0;stroke:#ff00ff;stroke-linejoin:miter;stroke-width:1.5;" x="162.173813" xlink:href="#m0598e12f0a" y="235.652829"/>
     <use style="fill-opacity:0;stroke:#ff00ff;stroke-linejoin:miter;stroke-width:1.5;" x="214.109782" xlink:href="#m0598e12f0a" y="167.526916"/>
     <use style="fill-opacity:0;stroke:#ff00ff;stroke-linejoin:miter;stroke-width:1.5;" x="257.120842" xlink:href="#m0598e12f0a" y="135.88133"/>
     <use style="fill-opacity:0;stroke:#ff00ff;stroke-linejoin:miter;stroke-width:1.5;" x="257.120842" xlink:href="#m0598e12f0a" y="135.441808"/>
     <use style="fill-opacity:0;stroke:#ff00ff;stroke-linejoin:miter;stroke-width:1.5;" x="338.688" xlink:href="#m0598e12f0a" y="135.441808"/>
    </g>
   </g>
   <g id="line2d_50">
    <path style="fill:none;stroke:#ff00ff;stroke-linecap:square;stroke-width:1.5;"/>
    <g/>
   </g>
   <g id="line2d_51">
    <path clip-path="url(#p64d7ae8913)" d="M 258.387255 135.441808 
" style="fill:none;stroke:#ff00ff;stroke-linecap:square;stroke-width:1.5;"/>
    <defs>
     <path d="M -12 12 
L 12 -12 
M -12 -12 
L 12 12 
" id="ma69680322f" style="stroke:#ff00ff;"/>
    </defs>
    <g clip-path="url(#p64d7ae8913)">
     <use style="fill:#ff00ff;stroke:#ff00ff;" x="258.387255" xlink:href="#ma69680322f" y="135.441808"/>
    </g>
   </g>
   <g id="line2d_52">
    <defs>
     <path d="M 0 1.5 
C 0.397805 1.5 0.77937 1.341951 1.06066 1.06066 
C 1.341951 0.77937 1.5 0.397805 1.5 0 
C 1.5 -0.397805 1.341951 -0.77937 1.06066 -1.06066 
C 0.77937 -1.341951 0.397805 -1.5 0 -1.5 
C -0.397805 -1.5 -0.77937 -1.341951 -1.06066 -1.06066 
C -1.341951 -0.77937 -1.5 -0.397805 -1.5 0 
C -1.5 0.397805 -1.341951 0.77937 -1.06066 1.06066 
C -0.77937 1.341951 -0.397805 1.5 0 1.5 
z
" id="m5b3beddb2e" style="stroke:#ffa500;"/>
    </defs>
    <g>
     <use style="fill:#ffa500;stroke:#ffa500;" x="265.993759" xlink:href="#m5b3beddb2e" y="74.787769"/>
     <use style="fill:#ffa500;stroke:#ffa500;" x="265.993759" xlink:href="#m5b3beddb2e" y="74.787769"/>
    </g>
   </g>
   <g id="line2d_53">
    <path d="M 45.512012 298.944 
L 45.512012 298.064956 
L 57.6 298.064956 
L 57.6 297.625434 
L 64.67102 297.625434 
L 64.67102 294.54878 
L 69.687988 294.54878 
L 69.687988 292.35117 
L 73.579452 292.35117 
L 73.579452 291.472126 
L 76.759008 291.472126 
L 76.759008 291.032604 
L 85.66744 291.032604 
L 85.66744 289.714038 
L 88.846997 289.714038 
L 88.846997 287.076905 
L 92.73846 287.076905 
L 92.73846 284.879295 
L 95.918017 284.879295 
L 95.918017 283.560729 
L 97.755429 283.560729 
L 97.755429 280.923597 
L 98.606294 280.923597 
L 98.606294 280.484075 
L 99.41757 280.484075 
L 99.41757 278.286465 
L 100.192776 278.286465 
L 100.192776 277.846943 
L 100.934985 277.846943 
L 100.934985 276.967899 
L 107.514726 276.967899 
L 107.514726 276.088855 
L 108.006005 276.088855 
L 108.006005 275.649333 
L 110.274038 275.649333 
L 110.274038 275.209811 
L 111.104637 275.209811 
L 111.104637 274.770289 
L 113.022974 274.770289 
L 113.022974 274.330767 
L 115.077025 274.330767 
L 115.077025 273.891245 
L 116.019919 273.891245 
L 116.019919 273.451723 
L 116.323218 273.451723 
L 116.323218 273.012201 
L 117.486268 273.012201 
L 117.486268 272.572679 
L 118.838828 272.572679 
L 118.838828 271.693635 
L 119.097192 271.693635 
L 119.097192 271.254113 
L 119.351785 271.254113 
L 119.351785 270.814591 
L 119.602714 270.814591 
L 119.602714 269.496025 
L 120.8059 269.496025 
L 120.8059 269.056503 
L 121.036887 269.056503 
L 121.036887 268.177459 
L 121.489881 268.177459 
L 121.489881 267.737936 
L 121.712041 267.737936 
L 121.712041 266.858892 
L 121.931406 266.858892 
L 121.931406 265.979848 
L 123.192626 265.979848 
L 123.192626 264.661282 
L 123.790603 264.661282 
L 123.790603 264.22176 
L 125.647598 264.22176 
L 125.647598 263.782238 
L 128.107907 263.782238 
L 128.107907 263.342716 
L 128.856489 263.342716 
L 128.856489 262.463672 
L 129.433047 262.463672 
L 129.433047 261.584628 
L 130.664567 261.584628 
L 130.664567 261.145106 
L 131.056477 261.145106 
L 131.056477 260.266062 
L 131.938072 260.266062 
L 131.938072 256.310364 
L 132.060454 256.310364 
L 132.060454 255.43132 
L 133.689303 255.43132 
L 133.689303 254.552276 
L 134.019394 254.552276 
L 134.019394 253.673232 
L 134.661403 253.673232 
L 134.661403 252.794188 
L 136.645276 252.794188 
L 136.738785 251.915144 
L 138.084384 251.915144 
L 138.084384 251.0361 
L 140.499195 251.0361 
L 140.499195 250.596578 
L 140.64889 250.596578 
L 140.64889 250.157056 
L 140.944478 250.157056 
L 140.944478 249.717534 
L 141.162927 249.717534 
L 141.162927 248.83849 
L 141.662245 248.83849 
L 141.662245 248.398968 
L 142.553247 248.398968 
L 142.553247 247.959446 
L 144.510517 247.959446 
L 144.510517 246.640879 
L 146.324022 246.640879 
L 146.324022 246.201357 
L 149.058374 246.201357 
L 149.058374 245.761835 
L 149.735275 245.761835 
L 149.735275 244.882791 
L 150.085825 244.882791 
L 150.085825 244.003747 
L 152.995791 244.003747 
L 152.995791 240.927093 
L 154.269814 240.927093 
L 154.269814 240.048049 
L 155.488919 240.048049 
L 155.488919 239.608527 
L 157.837488 239.608527 
L 157.837488 239.169005 
L 158.75841 239.169005 
L 158.75841 238.289961 
L 159.123917 238.289961 
L 159.123917 237.410917 
L 159.931669 237.410917 
L 159.931669 236.092351 
L 161.88953 236.092351 
L 161.88953 235.213307 
L 162.453536 235.213307 
L 162.453536 234.334263 
L 162.979172 234.334263 
L 162.979172 233.455219 
L 163.348054 233.455219 
L 163.348054 232.576175 
L 164.082658 232.576175 
L 164.140886 230.378565 
L 164.824867 230.378565 
L 164.824867 228.620477 
L 165.46508 228.620477 
L 165.46508 227.301911 
L 166.845764 227.301911 
L 166.845764 226.422867 
L 168.476198 226.422867 
L 168.476198 225.543822 
L 169.602648 225.543822 
L 169.602648 225.1043 
L 171.758716 225.1043 
L 171.758716 224.225256 
L 172.685129 224.225256 
L 172.685129 223.346212 
L 173.462916 223.346212 
L 173.564801 222.027646 
L 173.855836 222.027646 
L 173.855836 221.588124 
L 174.795808 221.588124 
L 174.795808 220.70908 
L 175.056802 220.70908 
L 175.056802 219.830036 
L 175.85677 219.830036 
L 175.85677 218.950992 
L 177.864572 218.950992 
L 177.864572 218.071948 
L 178.075003 218.071948 
L 178.075003 217.632426 
L 178.394524 217.632426 
L 178.394524 214.995294 
L 179.148138 214.995294 
L 179.148138 214.11625 
L 180.135832 214.11625 
L 180.135832 213.676728 
L 180.930556 213.676728 
L 180.989647 212.797684 
L 181.253107 212.797684 
L 181.332822 210.600074 
L 181.55553 210.600074 
L 181.55553 210.160552 
L 182.78202 210.160552 
L 182.78202 209.281508 
L 183.790277 209.281508 
L 183.796556 207.962942 
L 184.027295 207.962942 
L 184.027295 207.52342 
L 185.720384 207.52342 
L 185.720384 207.083898 
L 186.093044 207.083898 
L 186.093044 206.644376 
L 186.650846 206.644376 
L 186.682796 204.886287 
L 187.513889 204.886287 
L 187.513889 203.567721 
L 188.418296 203.567721 
L 188.418296 203.128199 
L 188.771098 203.128199 
L 188.771098 202.688677 
L 189.126156 202.688677 
L 189.126156 201.809633 
L 189.801954 201.809633 
L 189.801954 200.930589 
L 190.101878 200.930589 
L 190.101878 200.491067 
L 190.215205 200.491067 
L 190.215205 199.612023 
L 190.512436 199.612023 
L 190.512436 199.172501 
L 191.087987 199.172501 
L 191.087987 198.293457 
L 191.268877 198.293457 
L 191.268877 197.414413 
L 192.219948 197.414413 
L 192.219948 196.974891 
L 192.519441 196.974891 
L 192.519441 196.095847 
L 192.693684 196.095847 
L 192.693684 195.216803 
L 193.062882 195.216803 
L 193.062882 194.777281 
L 193.961827 194.777281 
L 193.961827 193.898237 
L 194.281313 193.898237 
L 194.319124 192.579671 
L 194.709584 192.579671 
L 194.709584 192.140149 
L 194.926473 192.140149 
L 194.926473 191.700627 
L 195.219135 191.700627 
L 195.219135 191.261105 
L 196.28789 191.261105 
L 196.28789 189.503017 
L 196.443613 189.503017 
L 196.501273 188.184451 
L 197.1408 188.184451 
L 197.1408 187.744929 
L 198.216766 187.744929 
L 198.326258 186.426363 
L 198.674758 186.426363 
L 198.738834 185.547319 
L 198.823904 185.547319 
L 198.823904 185.107797 
L 199.995592 185.107797 
L 199.995592 184.668274 
L 200.375761 184.668274 
L 200.375761 184.228752 
L 200.785778 184.228752 
L 200.785778 183.78923 
L 201.589296 183.78923 
L 201.62095 182.910186 
L 202.259693 182.910186 
L 202.259693 182.470664 
L 202.831665 182.470664 
L 202.877967 181.59162 
L 203.430328 181.59162 
L 203.430328 181.152098 
L 203.65491 181.152098 
L 203.65491 180.273054 
L 204.452566 180.273054 
L 204.552142 179.39401 
L 204.762817 179.39401 
L 204.762817 178.514966 
L 205.487095 178.514966 
L 205.487095 178.075444 
L 205.598943 178.075444 
L 205.598943 177.1964 
L 205.961978 177.1964 
L 205.99365 176.317356 
L 206.64921 176.317356 
L 206.666133 174.99879 
L 206.814353 174.99879 
L 206.854559 173.680224 
L 207.174554 173.680224 
L 207.174554 173.240702 
L 208.257395 173.240702 
L 208.257395 172.361658 
L 208.513353 172.361658 
L 208.552867 171.043092 
L 209.458008 171.043092 
L 209.472414 169.724526 
L 209.682831 169.724526 
L 209.682831 169.285004 
L 210.022398 169.285004 
L 210.022398 168.845482 
L 210.328079 168.845482 
L 210.328079 168.40596 
L 210.527123 168.40596 
L 210.540673 167.526916 
L 210.662155 167.526916 
L 210.662155 167.087394 
L 210.82549 167.087394 
L 210.852121 165.329306 
L 211.025556 165.329306 
L 211.025556 164.450262 
L 211.694938 164.450262 
L 211.694938 164.01074 
L 211.945415 164.01074 
L 211.945415 163.131695 
L 212.210816 163.131695 
L 212.210816 162.252651 
L 212.385939 162.252651 
L 212.385939 161.813129 
L 212.615932 161.813129 
L 212.696317 160.934085 
L 212.787054 160.934085 
L 212.787054 160.494563 
L 213.130179 160.494563 
L 213.130179 160.055041 
L 213.495292 160.055041 
L 213.495292 159.615519 
L 214.041211 159.615519 
L 214.041211 159.175997 
L 214.766189 159.175997 
L 214.773628 158.296953 
L 215.040413 158.296953 
L 215.081178 156.978387 
L 215.66634 156.978387 
L 215.748929 155.659821 
L 216.338707 155.659821 
L 216.338707 155.220299 
L 216.749582 155.220299 
L 216.787491 153.901733 
L 217.118517 153.901733 
L 217.143579 153.022689 
L 217.341876 153.022689 
L 217.341876 152.583167 
L 218.121149 152.583167 
L 218.225202 149.506513 
L 218.233918 149.506513 
L 218.343364 146.429859 
L 218.359808 146.429859 
L 218.430602 143.792727 
L 218.486515 143.792727 
L 218.509688 142.47416 
L 218.608043 142.47416 
L 218.608043 142.034638 
L 218.775253 142.034638 
L 218.882204 138.957984 
L 218.927481 138.957984 
L 219.03184 137.199896 
L 219.138889 137.199896 
L 219.238705 135.88133 
L 219.2609 135.88133 
L 219.29455 134.562764 
L 219.377984 134.562764 
L 219.408965 132.804676 
L 219.604987 132.804676 
L 219.604987 131.925632 
L 219.745378 131.925632 
L 219.85053 130.167544 
L 220.000781 130.167544 
L 220.106757 128.409456 
L 220.170035 128.409456 
L 220.170035 127.969934 
L 220.42395 127.969934 
L 220.477663 126.211846 
L 220.569361 126.211846 
L 220.569361 125.772324 
L 220.721126 125.772324 
L 220.812307 124.014236 
L 220.834841 124.014236 
L 220.834841 123.574714 
L 221.141388 123.574714 
L 221.141388 123.135192 
L 221.415072 123.135192 
L 221.493311 121.377103 
L 221.581991 121.377103 
L 221.581991 120.937581 
L 221.753737 120.937581 
L 221.791438 119.619015 
L 221.997697 119.619015 
L 221.997697 118.739971 
L 222.141058 118.739971 
L 222.232056 116.981883 
L 222.392743 116.981883 
L 222.392743 116.542361 
L 222.526095 116.542361 
L 222.593409 115.663317 
L 223.00187 115.663317 
L 223.00187 115.223795 
L 223.126713 115.223795 
L 223.129345 113.905229 
L 223.285271 113.905229 
L 223.285271 112.147141 
L 223.504986 112.147141 
L 223.614774 111.268097 
L 224.075217 111.268097 
L 224.139304 110.389053 
L 224.307418 110.389053 
L 224.333847 109.510009 
L 224.528674 109.510009 
L 224.528674 109.070487 
L 224.696103 109.070487 
L 224.696103 108.630965 
L 225.374507 108.630965 
L 225.394168 107.751921 
L 225.575847 107.751921 
L 225.575847 106.872877 
L 225.783368 106.872877 
L 225.804832 105.554311 
L 225.92017 105.554311 
L 225.92017 104.675267 
L 226.710608 104.675267 
L 226.726678 103.796223 
L 227.099076 103.796223 
L 227.099076 103.356701 
L 227.33438 103.356701 
L 227.373119 102.038135 
L 228.526462 102.038135 
L 228.55927 100.280046 
L 228.783406 100.280046 
L 228.783406 99.840524 
L 228.986364 99.840524 
L 228.986364 99.401002 
L 229.154875 99.401002 
L 229.215792 98.082436 
L 229.788402 98.082436 
L 229.788402 97.203392 
L 230.806553 97.203392 
L 230.912166 95.884826 
L 230.931109 95.884826 
L 230.931109 95.005782 
L 231.125655 95.005782 
L 231.125655 94.56626 
L 232.532676 94.56626 
L 232.57446 92.808172 
L 232.961444 92.808172 
L 232.961444 92.36865 
L 233.265111 92.36865 
L 233.265111 91.929128 
L 233.872674 91.929128 
L 233.872674 91.050084 
L 234.774122 91.050084 
L 234.774122 90.610562 
L 234.964783 90.610562 
L 234.964783 90.17104 
L 235.155033 90.17104 
L 235.155033 89.291996 
L 235.380758 89.291996 
L 235.380758 88.412952 
L 235.768242 88.412952 
L 235.768242 87.533908 
L 236.249016 87.533908 
L 236.249016 87.094386 
L 237.560579 87.094386 
L 237.560579 86.654864 
L 237.812195 86.654864 
L 237.812195 86.215342 
L 240.183968 86.215342 
L 240.272347 84.896776 
L 240.505211 84.896776 
L 240.505211 84.457254 
L 241.105603 84.457254 
L 241.105603 83.57821 
L 243.015731 83.57821 
L 243.015731 83.138688 
L 243.424139 83.138688 
L 243.424139 82.699166 
L 243.790225 82.699166 
L 243.790225 82.259644 
L 246.416172 82.259644 
L 246.416172 81.3806 
L 246.72692 81.3806 
L 246.72692 80.941078 
L 249.579245 80.941078 
L 249.6513 79.622511 
L 252.877821 79.622511 
L 252.877821 78.743467 
L 255.987757 78.743467 
L 256.066678 76.985379 
L 256.153864 76.985379 
L 256.153864 76.545857 
L 259.439644 76.545857 
L 259.439644 76.106335 
L 262.701541 76.106335 
L 262.701541 75.227291 
L 265.993759 75.227291 
L 265.993759 74.787769 
L 338.688 74.787769 
L 338.688 74.787769 
" style="fill:none;stroke:#ffa500;stroke-linecap:square;stroke-width:1.5;"/>
   </g>
   <g id="line2d_54">
    <defs>
     <path d="M 0 -6 
L -1.347084 -1.854102 
L -5.706339 -1.854102 
L -2.179628 0.708204 
L -3.526712 4.854102 
L -0 2.291796 
L 3.526712 4.854102 
L 2.179628 0.708204 
L 5.706339 -1.854102 
L 1.347084 -1.854102 
z
" id="mb997e4e06f" style="stroke:#ffa500;stroke-linejoin:bevel;stroke-width:1.5;"/>
    </defs>
    <g>
     <use style="fill-opacity:0;stroke:#ffa500;stroke-linejoin:bevel;stroke-width:1.5;" x="128.107907" xlink:href="#mb997e4e06f" y="263.342716"/>
     <use style="fill-opacity:0;stroke:#ffa500;stroke-linejoin:bevel;stroke-width:1.5;" x="186.093044" xlink:href="#mb997e4e06f" y="206.644376"/>
     <use style="fill-opacity:0;stroke:#ffa500;stroke-linejoin:bevel;stroke-width:1.5;" x="223.126713" xlink:href="#mb997e4e06f" y="115.223795"/>
     <use style="fill-opacity:0;stroke:#ffa500;stroke-linejoin:bevel;stroke-width:1.5;" x="265.993759" xlink:href="#mb997e4e06f" y="74.787769"/>
     <use style="fill-opacity:0;stroke:#ffa500;stroke-linejoin:bevel;stroke-width:1.5;" x="265.993759" xlink:href="#mb997e4e06f" y="74.787769"/>
     <use style="fill-opacity:0;stroke:#ffa500;stroke-linejoin:bevel;stroke-width:1.5;" x="338.688" xlink:href="#mb997e4e06f" y="74.787769"/>
    </g>
   </g>
   <g id="line2d_55">
    <path style="fill:none;stroke:#ffa500;stroke-linecap:square;stroke-width:1.5;"/>
    <g/>
   </g>
   <g id="line2d_56">
    <path clip-path="url(#p64d7ae8913)" d="M 298.532571 74.787769 
" style="fill:none;stroke:#ffa500;stroke-linecap:square;stroke-width:1.5;"/>
    <defs>
     <path d="M -12 12 
L 12 -12 
M -12 -12 
L 12 12 
" id="mb81c631cf2" style="stroke:#ffa500;"/>
    </defs>
    <g clip-path="url(#p64d7ae8913)">
     <use style="fill:#ffa500;stroke:#ffa500;" x="298.532571" xlink:href="#mb81c631cf2" y="74.787769"/>
    </g>
   </g>
   <g id="line2d_57">
    <path d="M 338.688 171.922136 
L 369.60768 293.845545 
" style="fill:none;stroke:#000080;stroke-linecap:square;stroke-width:1.5;"/>
    <g>
     <use style="fill-opacity:0;stroke:#000080;stroke-width:1.5;" x="338.688" xlink:href="#m0961206f40" y="171.922136"/>
     <use style="fill-opacity:0;stroke:#000080;stroke-width:1.5;" x="369.60768" xlink:href="#m0961206f40" y="293.845545"/>
    </g>
   </g>
   <g id="line2d_58">
    <path d="M 338.688 135.441808 
L 369.60768 212.270257 
" style="fill:none;stroke:#ff00ff;stroke-linecap:square;stroke-width:1.5;"/>
    <g>
     <use style="fill-opacity:0;stroke:#ff00ff;stroke-linejoin:miter;stroke-width:1.5;" x="338.688" xlink:href="#m0598e12f0a" y="135.441808"/>
     <use style="fill-opacity:0;stroke:#ff00ff;stroke-linejoin:miter;stroke-width:1.5;" x="369.60768" xlink:href="#m0598e12f0a" y="212.270257"/>
    </g>
   </g>
   <g id="line2d_59">
    <path d="M 338.688 74.787769 
L 369.60768 130.69497 
" style="fill:none;stroke:#ffa500;stroke-linecap:square;stroke-width:1.5;"/>
    <g>
     <use style="fill-opacity:0;stroke:#ffa500;stroke-linejoin:bevel;stroke-width:1.5;" x="338.688" xlink:href="#mb997e4e06f" y="74.787769"/>
     <use style="fill-opacity:0;stroke:#ffa500;stroke-linejoin:bevel;stroke-width:1.5;" x="369.60768" xlink:href="#mb997e4e06f" y="130.69497"/>
    </g>
   </g>
   <g id="line2d_60">
    <path d="M 338.688 298.944 
L 338.688 44.021228 
" style="fill:none;stroke:#000000;stroke-linecap:square;stroke-width:1.5;"/>
   </g>
   <g id="patch_3">
    <path d="M 57.6 298.944 
L 57.6 41.472 
" style="fill:none;stroke:#000000;stroke-linecap:square;stroke-linejoin:miter;stroke-width:0.8;"/>
   </g>
   <g id="patch_4">
    <path d="M 338.688 298.944 
L 338.688 41.472 
" style="fill:none;stroke:#000000;stroke-linecap:square;stroke-linejoin:miter;stroke-width:0.8;"/>
   </g>
   <g id="patch_5">
    <path d="M 57.6 298.944 
L 338.688 298.944 
" style="fill:none;stroke:#000000;stroke-linecap:square;stroke-linejoin:miter;stroke-width:0.8;"/>
   </g>
   <g id="patch_6">
    <path d="M 57.6 41.472 
L 338.688 41.472 
" style="fill:none;stroke:#000000;stroke-linecap:square;stroke-linejoin:miter;stroke-width:0.8;"/>
   </g>
   <g id="text_13">
    <!-- DMS on bb -->
    <defs>
     <path d="M 19.671875 64.796875 
L 19.671875 8.109375 
L 31.59375 8.109375 
Q 46.6875 8.109375 53.6875 14.9375 
Q 60.6875 21.78125 60.6875 36.53125 
Q 60.6875 51.171875 53.6875 57.984375 
Q 46.6875 64.796875 31.59375 64.796875 
z
M 9.8125 72.90625 
L 30.078125 72.90625 
Q 51.265625 72.90625 61.171875 64.09375 
Q 71.09375 55.28125 71.09375 36.53125 
Q 71.09375 17.671875 61.125 8.828125 
Q 51.171875 0 30.078125 0 
L 9.8125 0 
z
" id="DejaVuSans-68"/>
     <path d="M 9.8125 72.90625 
L 24.515625 72.90625 
L 43.109375 23.296875 
L 61.8125 72.90625 
L 76.515625 72.90625 
L 76.515625 0 
L 66.890625 0 
L 66.890625 64.015625 
L 48.09375 14.015625 
L 38.1875 14.015625 
L 19.390625 64.015625 
L 19.390625 0 
L 9.8125 0 
z
" id="DejaVuSans-77"/>
     <path d="M 53.515625 70.515625 
L 53.515625 60.890625 
Q 47.90625 63.578125 42.921875 64.890625 
Q 37.9375 66.21875 33.296875 66.21875 
Q 25.25 66.21875 20.875 63.09375 
Q 16.5 59.96875 16.5 54.203125 
Q 16.5 49.359375 19.40625 46.890625 
Q 22.3125 44.4375 30.421875 42.921875 
L 36.375 41.703125 
Q 47.40625 39.59375 52.65625 34.296875 
Q 57.90625 29 57.90625 20.125 
Q 57.90625 9.515625 50.796875 4.046875 
Q 43.703125 -1.421875 29.984375 -1.421875 
Q 24.8125 -1.421875 18.96875 -0.25 
Q 13.140625 0.921875 6.890625 3.21875 
L 6.890625 13.375 
Q 12.890625 10.015625 18.65625 8.296875 
Q 24.421875 6.59375 29.984375 6.59375 
Q 38.421875 6.59375 43.015625 9.90625 
Q 47.609375 13.234375 47.609375 19.390625 
Q 47.609375 24.75 44.3125 27.78125 
Q 41.015625 30.8125 33.5 32.328125 
L 27.484375 33.5 
Q 16.453125 35.6875 11.515625 40.375 
Q 6.59375 45.0625 6.59375 53.421875 
Q 6.59375 63.09375 13.40625 68.65625 
Q 20.21875 74.21875 32.171875 74.21875 
Q 37.3125 74.21875 42.625 73.28125 
Q 47.953125 72.359375 53.515625 70.515625 
z
" id="DejaVuSans-83"/>
     <path d="M 48.6875 27.296875 
Q 48.6875 37.203125 44.609375 42.84375 
Q 40.53125 48.484375 33.40625 48.484375 
Q 26.265625 48.484375 22.1875 42.84375 
Q 18.109375 37.203125 18.109375 27.296875 
Q 18.109375 17.390625 22.1875 11.75 
Q 26.265625 6.109375 33.40625 6.109375 
Q 40.53125 6.109375 44.609375 11.75 
Q 48.6875 17.390625 48.6875 27.296875 
z
M 18.109375 46.390625 
Q 20.953125 51.265625 25.265625 53.625 
Q 29.59375 56 35.59375 56 
Q 45.5625 56 51.78125 48.09375 
Q 58.015625 40.1875 58.015625 27.296875 
Q 58.015625 14.40625 51.78125 6.484375 
Q 45.5625 -1.421875 35.59375 -1.421875 
Q 29.59375 -1.421875 25.265625 0.953125 
Q 20.953125 3.328125 18.109375 8.203125 
L 18.109375 0 
L 9.078125 0 
L 9.078125 75.984375 
L 18.109375 75.984375 
z
" id="DejaVuSans-98"/>
    </defs>
    <g transform="translate(375.22944 298.536482)scale(0.17 -0.17)">
     <use xlink:href="#DejaVuSans-68"/>
     <use x="77.001953" xlink:href="#DejaVuSans-77"/>
     <use x="163.28125" xlink:href="#DejaVuSans-83"/>
     <use x="226.757812" xlink:href="#DejaVuSans-32"/>
     <use x="258.544922" xlink:href="#DejaVuSans-111"/>
     <use x="319.726562" xlink:href="#DejaVuSans-110"/>
     <use x="383.105469" xlink:href="#DejaVuSans-32"/>
     <use x="414.892578" xlink:href="#DejaVuSans-98"/>
     <use x="478.369141" xlink:href="#DejaVuSans-98"/>
    </g>
   </g>
   <g id="text_14">
    <!-- NSGA-II-M -->
    <defs>
     <path d="M 9.8125 72.90625 
L 23.09375 72.90625 
L 55.421875 11.921875 
L 55.421875 72.90625 
L 64.984375 72.90625 
L 64.984375 0 
L 51.703125 0 
L 19.390625 60.984375 
L 19.390625 0 
L 9.8125 0 
z
" id="DejaVuSans-78"/>
     <path d="M 59.515625 10.40625 
L 59.515625 29.984375 
L 43.40625 29.984375 
L 43.40625 38.09375 
L 69.28125 38.09375 
L 69.28125 6.78125 
Q 63.578125 2.734375 56.6875 0.65625 
Q 49.8125 -1.421875 42 -1.421875 
Q 24.90625 -1.421875 15.25 8.5625 
Q 5.609375 18.5625 5.609375 36.375 
Q 5.609375 54.25 15.25 64.234375 
Q 24.90625 74.21875 42 74.21875 
Q 49.125 74.21875 55.546875 72.453125 
Q 61.96875 70.703125 67.390625 67.28125 
L 67.390625 56.78125 
Q 61.921875 61.421875 55.765625 63.765625 
Q 49.609375 66.109375 42.828125 66.109375 
Q 29.4375 66.109375 22.71875 58.640625 
Q 16.015625 51.171875 16.015625 36.375 
Q 16.015625 21.625 22.71875 14.15625 
Q 29.4375 6.6875 42.828125 6.6875 
Q 48.046875 6.6875 52.140625 7.59375 
Q 56.25 8.5 59.515625 10.40625 
z
" id="DejaVuSans-71"/>
     <path d="M 34.1875 63.1875 
L 20.796875 26.90625 
L 47.609375 26.90625 
z
M 28.609375 72.90625 
L 39.796875 72.90625 
L 67.578125 0 
L 57.328125 0 
L 50.6875 18.703125 
L 17.828125 18.703125 
L 11.1875 0 
L 0.78125 0 
z
" id="DejaVuSans-65"/>
     <path d="M 9.8125 72.90625 
L 19.671875 72.90625 
L 19.671875 0 
L 9.8125 0 
z
" id="DejaVuSans-73"/>
    </defs>
    <g transform="translate(375.22944 216.961195)scale(0.17 -0.17)">
     <use xlink:href="#DejaVuSans-78"/>
     <use x="74.804688" xlink:href="#DejaVuSans-83"/>
     <use x="138.28125" xlink:href="#DejaVuSans-71"/>
     <use x="215.771484" xlink:href="#DejaVuSans-65"/>
     <use x="284.148438" xlink:href="#DejaVuSans-45"/>
     <use x="320.232422" xlink:href="#DejaVuSans-73"/>
     <use x="349.724609" xlink:href="#DejaVuSans-73"/>
     <use x="379.216797" xlink:href="#DejaVuSans-45"/>
     <use x="415.300781" xlink:href="#DejaVuSans-77"/>
    </g>
   </g>
   <g id="text_15">
    <!-- UP-MO-CMA -->
    <defs>
     <path d="M 8.6875 72.90625 
L 18.609375 72.90625 
L 18.609375 28.609375 
Q 18.609375 16.890625 22.84375 11.734375 
Q 27.09375 6.59375 36.625 6.59375 
Q 46.09375 6.59375 50.34375 11.734375 
Q 54.59375 16.890625 54.59375 28.609375 
L 54.59375 72.90625 
L 64.5 72.90625 
L 64.5 27.390625 
Q 64.5 13.140625 57.4375 5.859375 
Q 50.390625 -1.421875 36.625 -1.421875 
Q 22.796875 -1.421875 15.734375 5.859375 
Q 8.6875 13.140625 8.6875 27.390625 
z
" id="DejaVuSans-85"/>
     <path d="M 19.671875 64.796875 
L 19.671875 37.40625 
L 32.078125 37.40625 
Q 38.96875 37.40625 42.71875 40.96875 
Q 46.484375 44.53125 46.484375 51.125 
Q 46.484375 57.671875 42.71875 61.234375 
Q 38.96875 64.796875 32.078125 64.796875 
z
M 9.8125 72.90625 
L 32.078125 72.90625 
Q 44.34375 72.90625 50.609375 67.359375 
Q 56.890625 61.8125 56.890625 51.125 
Q 56.890625 40.328125 50.609375 34.8125 
Q 44.34375 29.296875 32.078125 29.296875 
L 19.671875 29.296875 
L 19.671875 0 
L 9.8125 0 
z
" id="DejaVuSans-80"/>
     <path d="M 39.40625 66.21875 
Q 28.65625 66.21875 22.328125 58.203125 
Q 16.015625 50.203125 16.015625 36.375 
Q 16.015625 22.609375 22.328125 14.59375 
Q 28.65625 6.59375 39.40625 6.59375 
Q 50.140625 6.59375 56.421875 14.59375 
Q 62.703125 22.609375 62.703125 36.375 
Q 62.703125 50.203125 56.421875 58.203125 
Q 50.140625 66.21875 39.40625 66.21875 
z
M 39.40625 74.21875 
Q 54.734375 74.21875 63.90625 63.9375 
Q 73.09375 53.65625 73.09375 36.375 
Q 73.09375 19.140625 63.90625 8.859375 
Q 54.734375 -1.421875 39.40625 -1.421875 
Q 24.03125 -1.421875 14.8125 8.828125 
Q 5.609375 19.09375 5.609375 36.375 
Q 5.609375 53.65625 14.8125 63.9375 
Q 24.03125 74.21875 39.40625 74.21875 
z
" id="DejaVuSans-79"/>
     <path d="M 64.40625 67.28125 
L 64.40625 56.890625 
Q 59.421875 61.53125 53.78125 63.8125 
Q 48.140625 66.109375 41.796875 66.109375 
Q 29.296875 66.109375 22.65625 58.46875 
Q 16.015625 50.828125 16.015625 36.375 
Q 16.015625 21.96875 22.65625 14.328125 
Q 29.296875 6.6875 41.796875 6.6875 
Q 48.140625 6.6875 53.78125 8.984375 
Q 59.421875 11.28125 64.40625 15.921875 
L 64.40625 5.609375 
Q 59.234375 2.09375 53.4375 0.328125 
Q 47.65625 -1.421875 41.21875 -1.421875 
Q 24.65625 -1.421875 15.125 8.703125 
Q 5.609375 18.84375 5.609375 36.375 
Q 5.609375 53.953125 15.125 64.078125 
Q 24.65625 74.21875 41.21875 74.21875 
Q 47.75 74.21875 53.53125 72.484375 
Q 59.328125 70.75 64.40625 67.28125 
z
" id="DejaVuSans-67"/>
    </defs>
    <g transform="translate(375.22944 135.385908)scale(0.17 -0.17)">
     <use xlink:href="#DejaVuSans-85"/>
     <use x="73.193359" xlink:href="#DejaVuSans-80"/>
     <use x="133.464844" xlink:href="#DejaVuSans-45"/>
     <use x="169.548828" xlink:href="#DejaVuSans-77"/>
     <use x="255.828125" xlink:href="#DejaVuSans-79"/>
     <use x="334.570312" xlink:href="#DejaVuSans-45"/>
     <use x="370.654297" xlink:href="#DejaVuSans-67"/>
     <use x="440.478516" xlink:href="#DejaVuSans-77"/>
     <use x="526.757812" xlink:href="#DejaVuSans-65"/>
    </g>
   </g>
   <g id="text_16">
    <!-- best 2016 -->
    <g transform="translate(375.22944 53.810621)scale(0.17 -0.17)">
     <use xlink:href="#DejaVuSans-98"/>
     <use x="63.476562" xlink:href="#DejaVuSans-101"/>
     <use x="125" xlink:href="#DejaVuSans-115"/>
     <use x="177.099609" xlink:href="#DejaVuSans-116"/>
     <use x="216.308594" xlink:href="#DejaVuSans-32"/>
     <use x="248.095703" xlink:href="#DejaVuSans-50"/>
     <use x="311.71875" xlink:href="#DejaVuSans-48"/>
     <use x="375.341797" xlink:href="#DejaVuSans-49"/>
     <use x="438.964844" xlink:href="#DejaVuSans-54"/>
    </g>
   </g>
   <g id="text_17">
    <!-- bbob-biobj f14, 2-D -->
    <defs>
     <path d="M 9.421875 54.6875 
L 18.40625 54.6875 
L 18.40625 -0.984375 
Q 18.40625 -11.421875 14.421875 -16.109375 
Q 10.453125 -20.796875 1.609375 -20.796875 
L -1.8125 -20.796875 
L -1.8125 -13.1875 
L 0.59375 -13.1875 
Q 5.71875 -13.1875 7.5625 -10.8125 
Q 9.421875 -8.453125 9.421875 -0.984375 
z
M 9.421875 75.984375 
L 18.40625 75.984375 
L 18.40625 64.59375 
L 9.421875 64.59375 
z
" id="DejaVuSans-106"/>
    </defs>
    <g transform="translate(60.41088 51.797126)scale(0.102 -0.102)">
     <use xlink:href="#DejaVuSans-98"/>
     <use x="63.476562" xlink:href="#DejaVuSans-98"/>
     <use x="126.953125" xlink:href="#DejaVuSans-111"/>
     <use x="188.134766" xlink:href="#DejaVuSans-98"/>
     <use x="251.611328" xlink:href="#DejaVuSans-45"/>
     <use x="287.695312" xlink:href="#DejaVuSans-98"/>
     <use x="351.171875" xlink:href="#DejaVuSans-105"/>
     <use x="378.955078" xlink:href="#DejaVuSans-111"/>
     <use x="440.136719" xlink:href="#DejaVuSans-98"/>
     <use x="503.613281" xlink:href="#DejaVuSans-106"/>
     <use x="531.396484" xlink:href="#DejaVuSans-32"/>
     <use x="563.183594" xlink:href="#DejaVuSans-102"/>
     <use x="598.388672" xlink:href="#DejaVuSans-49"/>
     <use x="662.011719" xlink:href="#DejaVuSans-52"/>
     <use x="725.634766" xlink:href="#DejaVuSans-44"/>
     <use x="757.421875" xlink:href="#DejaVuSans-32"/>
     <use x="789.208984" xlink:href="#DejaVuSans-50"/>
     <use x="852.832031" xlink:href="#DejaVuSans-45"/>
     <use x="888.916016" xlink:href="#DejaVuSans-68"/>
    </g>
    <!-- 58 targets: 1..-1.0e-4 -->
    <defs>
     <path d="M 10.796875 72.90625 
L 49.515625 72.90625 
L 49.515625 64.59375 
L 19.828125 64.59375 
L 19.828125 46.734375 
Q 21.96875 47.46875 24.109375 47.828125 
Q 26.265625 48.1875 28.421875 48.1875 
Q 40.625 48.1875 47.75 41.5 
Q 54.890625 34.8125 54.890625 23.390625 
Q 54.890625 11.625 47.5625 5.09375 
Q 40.234375 -1.421875 26.90625 -1.421875 
Q 22.3125 -1.421875 17.546875 -0.640625 
Q 12.796875 0.140625 7.71875 1.703125 
L 7.71875 11.625 
Q 12.109375 9.234375 16.796875 8.0625 
Q 21.484375 6.890625 26.703125 6.890625 
Q 35.15625 6.890625 40.078125 11.328125 
Q 45.015625 15.765625 45.015625 23.390625 
Q 45.015625 31 40.078125 35.4375 
Q 35.15625 39.890625 26.703125 39.890625 
Q 22.75 39.890625 18.8125 39.015625 
Q 14.890625 38.140625 10.796875 36.28125 
z
" id="DejaVuSans-53"/>
     <path d="M 11.71875 12.40625 
L 22.015625 12.40625 
L 22.015625 0 
L 11.71875 0 
z
M 11.71875 51.703125 
L 22.015625 51.703125 
L 22.015625 39.3125 
L 11.71875 39.3125 
z
" id="DejaVuSans-58"/>
    </defs>
    <g transform="translate(60.41088 63.218895)scale(0.102 -0.102)">
     <use xlink:href="#DejaVuSans-53"/>
     <use x="63.623047" xlink:href="#DejaVuSans-56"/>
     <use x="127.246094" xlink:href="#DejaVuSans-32"/>
     <use x="159.033203" xlink:href="#DejaVuSans-116"/>
     <use x="198.242188" xlink:href="#DejaVuSans-97"/>
     <use x="259.521484" xlink:href="#DejaVuSans-114"/>
     <use x="300.619141" xlink:href="#DejaVuSans-103"/>
     <use x="364.095703" xlink:href="#DejaVuSans-101"/>
     <use x="425.619141" xlink:href="#DejaVuSans-116"/>
     <use x="464.828125" xlink:href="#DejaVuSans-115"/>
     <use x="516.927734" xlink:href="#DejaVuSans-58"/>
     <use x="550.619141" xlink:href="#DejaVuSans-32"/>
     <use x="582.40625" xlink:href="#DejaVuSans-49"/>
     <use x="646.029297" xlink:href="#DejaVuSans-46"/>
     <use x="677.816406" xlink:href="#DejaVuSans-46"/>
     <use x="709.603516" xlink:href="#DejaVuSans-45"/>
     <use x="745.6875" xlink:href="#DejaVuSans-49"/>
     <use x="809.310547" xlink:href="#DejaVuSans-46"/>
     <use x="841.097656" xlink:href="#DejaVuSans-48"/>
     <use x="904.720703" xlink:href="#DejaVuSans-101"/>
     <use x="966.244141" xlink:href="#DejaVuSans-45"/>
     <use x="1002.328125" xlink:href="#DejaVuSans-52"/>
    </g>
    <!-- 10 instances -->
    <g transform="translate(60.41088 74.640664)scale(0.102 -0.102)">
     <use xlink:href="#DejaVuSans-49"/>
     <use x="63.623047" xlink:href="#DejaVuSans-48"/>
     <use x="127.246094" xlink:href="#DejaVuSans-32"/>
     <use x="159.033203" xlink:href="#DejaVuSans-105"/>
     <use x="186.816406" xlink:href="#DejaVuSans-110"/>
     <use x="250.195312" xlink:href="#DejaVuSans-115"/>
     <use x="302.294922" xlink:href="#DejaVuSans-116"/>
     <use x="341.503906" xlink:href="#DejaVuSans-97"/>
     <use x="402.783203" xlink:href="#DejaVuSans-110"/>
     <use x="466.162109" xlink:href="#DejaVuSans-99"/>
     <use x="521.142578" xlink:href="#DejaVuSans-101"/>
     <use x="582.666016" xlink:href="#DejaVuSans-115"/>
    </g>
   </g>
   <g id="text_18">
    <!-- v2.3.1.31, hv-hash=ff0e71e8cd978373 -->
    <defs>
     <path d="M 40.578125 39.3125 
Q 47.65625 37.796875 51.625 33 
Q 55.609375 28.21875 55.609375 21.1875 
Q 55.609375 10.40625 48.1875 4.484375 
Q 40.765625 -1.421875 27.09375 -1.421875 
Q 22.515625 -1.421875 17.65625 -0.515625 
Q 12.796875 0.390625 7.625 2.203125 
L 7.625 11.71875 
Q 11.71875 9.328125 16.59375 8.109375 
Q 21.484375 6.890625 26.8125 6.890625 
Q 36.078125 6.890625 40.9375 10.546875 
Q 45.796875 14.203125 45.796875 21.1875 
Q 45.796875 27.640625 41.28125 31.265625 
Q 36.765625 34.90625 28.71875 34.90625 
L 20.21875 34.90625 
L 20.21875 43.015625 
L 29.109375 43.015625 
Q 36.375 43.015625 40.234375 45.921875 
Q 44.09375 48.828125 44.09375 54.296875 
Q 44.09375 59.90625 40.109375 62.90625 
Q 36.140625 65.921875 28.71875 65.921875 
Q 24.65625 65.921875 20.015625 65.03125 
Q 15.375 64.15625 9.8125 62.3125 
L 9.8125 71.09375 
Q 15.4375 72.65625 20.34375 73.4375 
Q 25.25 74.21875 29.59375 74.21875 
Q 40.828125 74.21875 47.359375 69.109375 
Q 53.90625 64.015625 53.90625 55.328125 
Q 53.90625 49.265625 50.4375 45.09375 
Q 46.96875 40.921875 40.578125 39.3125 
z
" id="DejaVuSans-51"/>
     <path d="M 54.890625 33.015625 
L 54.890625 0 
L 45.90625 0 
L 45.90625 32.71875 
Q 45.90625 40.484375 42.875 44.328125 
Q 39.84375 48.1875 33.796875 48.1875 
Q 26.515625 48.1875 22.3125 43.546875 
Q 18.109375 38.921875 18.109375 30.90625 
L 18.109375 0 
L 9.078125 0 
L 9.078125 75.984375 
L 18.109375 75.984375 
L 18.109375 46.1875 
Q 21.34375 51.125 25.703125 53.5625 
Q 30.078125 56 35.796875 56 
Q 45.21875 56 50.046875 50.171875 
Q 54.890625 44.34375 54.890625 33.015625 
z
" id="DejaVuSans-104"/>
     <path d="M 10.59375 45.40625 
L 73.1875 45.40625 
L 73.1875 37.203125 
L 10.59375 37.203125 
z
M 10.59375 25.484375 
L 73.1875 25.484375 
L 73.1875 17.1875 
L 10.59375 17.1875 
z
" id="DejaVuSans-61"/>
     <path d="M 8.203125 72.90625 
L 55.078125 72.90625 
L 55.078125 68.703125 
L 28.609375 0 
L 18.3125 0 
L 43.21875 64.59375 
L 8.203125 64.59375 
z
" id="DejaVuSans-55"/>
     <path d="M 10.984375 1.515625 
L 10.984375 10.5 
Q 14.703125 8.734375 18.5 7.8125 
Q 22.3125 6.890625 25.984375 6.890625 
Q 35.75 6.890625 40.890625 13.453125 
Q 46.046875 20.015625 46.78125 33.40625 
Q 43.953125 29.203125 39.59375 26.953125 
Q 35.25 24.703125 29.984375 24.703125 
Q 19.046875 24.703125 12.671875 31.3125 
Q 6.296875 37.9375 6.296875 49.421875 
Q 6.296875 60.640625 12.9375 67.421875 
Q 19.578125 74.21875 30.609375 74.21875 
Q 43.265625 74.21875 49.921875 64.515625 
Q 56.59375 54.828125 56.59375 36.375 
Q 56.59375 19.140625 48.40625 8.859375 
Q 40.234375 -1.421875 26.421875 -1.421875 
Q 22.703125 -1.421875 18.890625 -0.6875 
Q 15.09375 0.046875 10.984375 1.515625 
z
M 30.609375 32.421875 
Q 37.25 32.421875 41.125 36.953125 
Q 45.015625 41.5 45.015625 49.421875 
Q 45.015625 57.28125 41.125 61.84375 
Q 37.25 66.40625 30.609375 66.40625 
Q 23.96875 66.40625 20.09375 61.84375 
Q 16.21875 57.28125 16.21875 49.421875 
Q 16.21875 41.5 20.09375 36.953125 
Q 23.96875 32.421875 30.609375 32.421875 
z
" id="DejaVuSans-57"/>
    </defs>
    <g style="fill:#808080;" transform="translate(99.797125 294.289592)scale(0.1 -0.1)">
     <use xlink:href="#DejaVuSans-118"/>
     <use x="59.179688" xlink:href="#DejaVuSans-50"/>
     <use x="122.802734" xlink:href="#DejaVuSans-46"/>
     <use x="154.589844" xlink:href="#DejaVuSans-51"/>
     <use x="218.212891" xlink:href="#DejaVuSans-46"/>
     <use x="250" xlink:href="#DejaVuSans-49"/>
     <use x="313.623047" xlink:href="#DejaVuSans-46"/>
     <use x="345.410156" xlink:href="#DejaVuSans-51"/>
     <use x="409.033203" xlink:href="#DejaVuSans-49"/>
     <use x="472.65625" xlink:href="#DejaVuSans-44"/>
     <use x="504.443359" xlink:href="#DejaVuSans-32"/>
     <use x="536.230469" xlink:href="#DejaVuSans-104"/>
     <use x="599.609375" xlink:href="#DejaVuSans-118"/>
     <use x="658.757812" xlink:href="#DejaVuSans-45"/>
     <use x="694.841797" xlink:href="#DejaVuSans-104"/>
     <use x="758.220703" xlink:href="#DejaVuSans-97"/>
     <use x="819.5" xlink:href="#DejaVuSans-115"/>
     <use x="871.599609" xlink:href="#DejaVuSans-104"/>
     <use x="934.978516" xlink:href="#DejaVuSans-61"/>
     <use x="1018.767578" xlink:href="#DejaVuSans-102"/>
     <use x="1053.972656" xlink:href="#DejaVuSans-102"/>
     <use x="1089.177734" xlink:href="#DejaVuSans-48"/>
     <use x="1152.800781" xlink:href="#DejaVuSans-101"/>
     <use x="1214.324219" xlink:href="#DejaVuSans-55"/>
     <use x="1277.947266" xlink:href="#DejaVuSans-49"/>
     <use x="1341.570312" xlink:href="#DejaVuSans-101"/>
     <use x="1403.09375" xlink:href="#DejaVuSans-56"/>
     <use x="1466.716797" xlink:href="#DejaVuSans-99"/>
     <use x="1521.697266" xlink:href="#DejaVuSans-100"/>
     <use x="1585.173828" xlink:href="#DejaVuSans-57"/>
     <use x="1648.796875" xlink:href="#DejaVuSans-55"/>
     <use x="1712.419922" xlink:href="#DejaVuSans-56"/>
     <use x="1776.042969" xlink:href="#DejaVuSans-51"/>
     <use x="1839.666016" xlink:href="#DejaVuSans-55"/>
     <use x="1903.289062" xlink:href="#DejaVuSans-51"/>
    </g>
   </g>
   <g id="text_19">
    <!-- 14 sep. Ellipsoid/Sharp ridge -->
    <defs>
     <path d="M 9.8125 72.90625 
L 55.90625 72.90625 
L 55.90625 64.59375 
L 19.671875 64.59375 
L 19.671875 43.015625 
L 54.390625 43.015625 
L 54.390625 34.71875 
L 19.671875 34.71875 
L 19.671875 8.296875 
L 56.78125 8.296875 
L 56.78125 0 
L 9.8125 0 
z
" id="DejaVuSans-69"/>
    </defs>
    <g transform="translate(55.158062 35.472)scale(0.2 -0.2)">
     <use xlink:href="#DejaVuSans-49"/>
     <use x="63.623047" xlink:href="#DejaVuSans-52"/>
     <use x="127.246094" xlink:href="#DejaVuSans-32"/>
     <use x="159.033203" xlink:href="#DejaVuSans-115"/>
     <use x="211.132812" xlink:href="#DejaVuSans-101"/>
     <use x="272.65625" xlink:href="#DejaVuSans-112"/>
     <use x="336.132812" xlink:href="#DejaVuSans-46"/>
     <use x="367.919922" xlink:href="#DejaVuSans-32"/>
     <use x="399.707031" xlink:href="#DejaVuSans-69"/>
     <use x="462.890625" xlink:href="#DejaVuSans-108"/>
     <use x="490.673828" xlink:href="#DejaVuSans-108"/>
     <use x="518.457031" xlink:href="#DejaVuSans-105"/>
     <use x="546.240234" xlink:href="#DejaVuSans-112"/>
     <use x="609.716797" xlink:href="#DejaVuSans-115"/>
     <use x="661.816406" xlink:href="#DejaVuSans-111"/>
     <use x="722.998047" xlink:href="#DejaVuSans-105"/>
     <use x="750.78125" xlink:href="#DejaVuSans-100"/>
     <use x="814.257812" xlink:href="#DejaVuSans-47"/>
     <use x="847.949219" xlink:href="#DejaVuSans-83"/>
     <use x="911.425781" xlink:href="#DejaVuSans-104"/>
     <use x="974.804688" xlink:href="#DejaVuSans-97"/>
     <use x="1036.083984" xlink:href="#DejaVuSans-114"/>
     <use x="1077.197266" xlink:href="#DejaVuSans-112"/>
     <use x="1140.673828" xlink:href="#DejaVuSans-32"/>
     <use x="1172.460938" xlink:href="#DejaVuSans-114"/>
     <use x="1213.574219" xlink:href="#DejaVuSans-105"/>
     <use x="1241.357422" xlink:href="#DejaVuSans-100"/>
     <use x="1304.833984" xlink:href="#DejaVuSans-103"/>
     <use x="1368.310547" xlink:href="#DejaVuSans-101"/>
    </g>
   </g>
  </g>
 </g>
 <defs>
  <clipPath id="p64d7ae8913">
   <rect height="257.472" width="281.088" x="57.6" y="41.472"/>
  </clipPath>
 </defs>
</svg>
