<?xml version="1.0" encoding="utf-8" standalone="no"?>
<!DOCTYPE svg PUBLIC "-//W3C//DTD SVG 1.1//EN"
  "http://www.w3.org/Graphics/SVG/1.1/DTD/svg11.dtd">
<!-- Created with matplotlib (https://matplotlib.org/) -->
<svg height="345.6pt" version="1.1" viewBox="0 0 460.8 345.6" width="460.8pt" xmlns="http://www.w3.org/2000/svg" xmlns:xlink="http://www.w3.org/1999/xlink">
 <defs>
  <style type="text/css">
*{stroke-linecap:butt;stroke-linejoin:round;}
  </style>
 </defs>
 <g id="figure_1">
  <g id="patch_1">
   <path d="M 0 345.6 
L 460.8 345.6 
L 460.8 0 
L 0 0 
z
" style="fill:#ffffff;"/>
  </g>
  <g id="axes_1">
   <g id="patch_2">
    <path d="M 57.6 298.944 
L 338.688 298.944 
L 338.688 41.472 
L 57.6 41.472 
z
" style="fill:#ffffff;"/>
   </g>
   <g id="line2d_1">
    <path d="M 89.78989 298.944 
L 89.78989 294.54878 
L 96.552242 294.54878 
L 96.552242 285.758339 
L 102.330873 285.758339 
L 102.330873 276.967899 
L 105.209745 276.967899 
L 105.209745 272.572679 
L 110.968922 272.572679 
L 110.968922 259.387018 
L 119.097192 259.387018 
L 119.097192 250.596578 
L 126.729009 250.596578 
L 126.729009 246.201357 
L 132.101058 246.201357 
L 132.101058 237.410917 
L 134.591225 237.410917 
L 134.591225 224.225256 
L 138.199116 224.225256 
L 138.199116 215.434816 
L 142.441528 215.434816 
L 142.441528 206.644376 
L 146.608752 206.644376 
L 146.608752 197.853935 
L 151.501723 197.853935 
L 151.501723 193.458715 
L 164.985598 193.458715 
L 164.985598 180.273054 
L 169.360135 180.273054 
L 169.360135 175.877834 
L 177.396715 175.877834 
L 177.396715 162.692173 
L 187.628489 162.692173 
L 187.628489 153.901733 
L 191.963761 153.901733 
L 191.963761 149.506513 
L 197.804624 149.506513 
L 197.804624 136.320852 
L 206.504127 136.320852 
L 206.504127 131.925632 
L 213.278223 131.925632 
L 213.278223 118.739971 
L 221.314343 118.739971 
L 221.314343 109.949531 
L 228.59843 109.949531 
L 228.59843 101.15909 
L 234.749579 101.15909 
L 234.749579 96.76387 
L 239.886178 96.76387 
L 239.886178 87.97343 
L 245.382394 87.97343 
L 245.382394 74.787769 
L 338.688 74.787769 
" style="fill:none;stroke:#f5deb3;stroke-linecap:square;stroke-width:4;"/>
   </g>
   <g id="line2d_2">
    <defs>
     <path d="M 0 7.778175 
L 7.778175 0 
L 0 -7.778175 
L -7.778175 0 
z
" id="m1e371cba93" style="stroke:#f5deb3;stroke-linejoin:miter;stroke-width:1.5;"/>
    </defs>
    <g>
     <use style="fill:#f5deb3;stroke:#f5deb3;stroke-linejoin:miter;stroke-width:1.5;" x="126.729009" xlink:href="#m1e371cba93" y="246.201357"/>
     <use style="fill:#f5deb3;stroke:#f5deb3;stroke-linejoin:miter;stroke-width:1.5;" x="164.985598" xlink:href="#m1e371cba93" y="193.458715"/>
     <use style="fill:#f5deb3;stroke:#f5deb3;stroke-linejoin:miter;stroke-width:1.5;" x="234.749579" xlink:href="#m1e371cba93" y="101.15909"/>
     <use style="fill:#f5deb3;stroke:#f5deb3;stroke-linejoin:miter;stroke-width:1.5;" x="245.382394" xlink:href="#m1e371cba93" y="74.787769"/>
     <use style="fill:#f5deb3;stroke:#f5deb3;stroke-linejoin:miter;stroke-width:1.5;" x="338.688" xlink:href="#m1e371cba93" y="74.787769"/>
    </g>
   </g>
   <g id="line2d_3">
    <path style="fill:none;stroke:#f5deb3;stroke-linecap:square;stroke-width:4;"/>
    <g/>
   </g>
   <g id="line2d_4">
    <path d="M 338.688 74.787769 
L 369.60768 49.119683 
" style="fill:none;stroke:#f5deb3;stroke-linecap:square;stroke-width:4;"/>
    <g>
     <use style="fill:#f5deb3;stroke:#f5deb3;stroke-linejoin:miter;stroke-width:1.5;" x="338.688" xlink:href="#m1e371cba93" y="74.787769"/>
     <use style="fill:#f5deb3;stroke:#f5deb3;stroke-linejoin:miter;stroke-width:1.5;" x="369.60768" xlink:href="#m1e371cba93" y="49.119683"/>
    </g>
   </g>
   <g id="matplotlib.axis_1">
    <g id="xtick_1">
     <g id="line2d_5">
      <path clip-path="url(#pd6c37f9373)" d="M 57.6 298.944 
L 57.6 41.472 
" style="fill:none;stroke:#b0b0b0;stroke-linecap:square;stroke-width:0.8;"/>
     </g>
     <g id="line2d_6">
      <defs>
       <path d="M 0 0 
L 0 3.5 
" id="m629f03a6f2" style="stroke:#000000;stroke-width:0.8;"/>
      </defs>
      <g>
       <use style="stroke:#000000;stroke-width:0.8;" x="57.6" xlink:href="#m629f03a6f2" y="298.944"/>
      </g>
     </g>
     <g id="text_1">
      <!-- 0 -->
      <defs>
       <path d="M 31.78125 66.40625 
Q 24.171875 66.40625 20.328125 58.90625 
Q 16.5 51.421875 16.5 36.375 
Q 16.5 21.390625 20.328125 13.890625 
Q 24.171875 6.390625 31.78125 6.390625 
Q 39.453125 6.390625 43.28125 13.890625 
Q 47.125 21.390625 47.125 36.375 
Q 47.125 51.421875 43.28125 58.90625 
Q 39.453125 66.40625 31.78125 66.40625 
z
M 31.78125 74.21875 
Q 44.046875 74.21875 50.515625 64.515625 
Q 56.984375 54.828125 56.984375 36.375 
Q 56.984375 17.96875 50.515625 8.265625 
Q 44.046875 -1.421875 31.78125 -1.421875 
Q 19.53125 -1.421875 13.0625 8.265625 
Q 6.59375 17.96875 6.59375 36.375 
Q 6.59375 54.828125 13.0625 64.515625 
Q 19.53125 74.21875 31.78125 74.21875 
z
" id="DejaVuSans-48"/>
      </defs>
      <g transform="translate(51.2375 321.140875)scale(0.2 -0.2)">
       <use xlink:href="#DejaVuSans-48"/>
      </g>
     </g>
    </g>
    <g id="xtick_2">
     <g id="line2d_7">
      <path clip-path="url(#pd6c37f9373)" d="M 137.910857 298.944 
L 137.910857 41.472 
" style="fill:none;stroke:#b0b0b0;stroke-linecap:square;stroke-width:0.8;"/>
     </g>
     <g id="line2d_8">
      <g>
       <use style="stroke:#000000;stroke-width:0.8;" x="137.910857" xlink:href="#m629f03a6f2" y="298.944"/>
      </g>
     </g>
     <g id="text_2">
      <!-- 2 -->
      <defs>
       <path d="M 19.1875 8.296875 
L 53.609375 8.296875 
L 53.609375 0 
L 7.328125 0 
L 7.328125 8.296875 
Q 12.9375 14.109375 22.625 23.890625 
Q 32.328125 33.6875 34.8125 36.53125 
Q 39.546875 41.84375 41.421875 45.53125 
Q 43.3125 49.21875 43.3125 52.78125 
Q 43.3125 58.59375 39.234375 62.25 
Q 35.15625 65.921875 28.609375 65.921875 
Q 23.96875 65.921875 18.8125 64.3125 
Q 13.671875 62.703125 7.8125 59.421875 
L 7.8125 69.390625 
Q 13.765625 71.78125 18.9375 73 
Q 24.125 74.21875 28.421875 74.21875 
Q 39.75 74.21875 46.484375 68.546875 
Q 53.21875 62.890625 53.21875 53.421875 
Q 53.21875 48.921875 51.53125 44.890625 
Q 49.859375 40.875 45.40625 35.40625 
Q 44.1875 33.984375 37.640625 27.21875 
Q 31.109375 20.453125 19.1875 8.296875 
z
" id="DejaVuSans-50"/>
      </defs>
      <g transform="translate(131.548357 321.140875)scale(0.2 -0.2)">
       <use xlink:href="#DejaVuSans-50"/>
      </g>
     </g>
    </g>
    <g id="xtick_3">
     <g id="line2d_9">
      <path clip-path="url(#pd6c37f9373)" d="M 218.221714 298.944 
L 218.221714 41.472 
" style="fill:none;stroke:#b0b0b0;stroke-linecap:square;stroke-width:0.8;"/>
     </g>
     <g id="line2d_10">
      <g>
       <use style="stroke:#000000;stroke-width:0.8;" x="218.221714" xlink:href="#m629f03a6f2" y="298.944"/>
      </g>
     </g>
     <g id="text_3">
      <!-- 4 -->
      <defs>
       <path d="M 37.796875 64.3125 
L 12.890625 25.390625 
L 37.796875 25.390625 
z
M 35.203125 72.90625 
L 47.609375 72.90625 
L 47.609375 25.390625 
L 58.015625 25.390625 
L 58.015625 17.1875 
L 47.609375 17.1875 
L 47.609375 0 
L 37.796875 0 
L 37.796875 17.1875 
L 4.890625 17.1875 
L 4.890625 26.703125 
z
" id="DejaVuSans-52"/>
      </defs>
      <g transform="translate(211.859214 321.140875)scale(0.2 -0.2)">
       <use xlink:href="#DejaVuSans-52"/>
      </g>
     </g>
    </g>
    <g id="xtick_4">
     <g id="line2d_11">
      <path clip-path="url(#pd6c37f9373)" d="M 298.532571 298.944 
L 298.532571 41.472 
" style="fill:none;stroke:#b0b0b0;stroke-linecap:square;stroke-width:0.8;"/>
     </g>
     <g id="line2d_12">
      <g>
       <use style="stroke:#000000;stroke-width:0.8;" x="298.532571" xlink:href="#m629f03a6f2" y="298.944"/>
      </g>
     </g>
     <g id="text_4">
      <!-- 6 -->
      <defs>
       <path d="M 33.015625 40.375 
Q 26.375 40.375 22.484375 35.828125 
Q 18.609375 31.296875 18.609375 23.390625 
Q 18.609375 15.53125 22.484375 10.953125 
Q 26.375 6.390625 33.015625 6.390625 
Q 39.65625 6.390625 43.53125 10.953125 
Q 47.40625 15.53125 47.40625 23.390625 
Q 47.40625 31.296875 43.53125 35.828125 
Q 39.65625 40.375 33.015625 40.375 
z
M 52.59375 71.296875 
L 52.59375 62.3125 
Q 48.875 64.0625 45.09375 64.984375 
Q 41.3125 65.921875 37.59375 65.921875 
Q 27.828125 65.921875 22.671875 59.328125 
Q 17.53125 52.734375 16.796875 39.40625 
Q 19.671875 43.65625 24.015625 45.921875 
Q 28.375 48.1875 33.59375 48.1875 
Q 44.578125 48.1875 50.953125 41.515625 
Q 57.328125 34.859375 57.328125 23.390625 
Q 57.328125 12.15625 50.6875 5.359375 
Q 44.046875 -1.421875 33.015625 -1.421875 
Q 20.359375 -1.421875 13.671875 8.265625 
Q 6.984375 17.96875 6.984375 36.375 
Q 6.984375 53.65625 15.1875 63.9375 
Q 23.390625 74.21875 37.203125 74.21875 
Q 40.921875 74.21875 44.703125 73.484375 
Q 48.484375 72.75 52.59375 71.296875 
z
" id="DejaVuSans-54"/>
      </defs>
      <g transform="translate(292.170071 321.140875)scale(0.2 -0.2)">
       <use xlink:href="#DejaVuSans-54"/>
      </g>
     </g>
    </g>
    <g id="xtick_5">
     <g id="line2d_13">
      <path clip-path="url(#pd6c37f9373)" d="M 57.6 298.944 
L 57.6 41.472 
" style="fill:none;stroke:#b0b0b0;stroke-linecap:square;stroke-width:0.8;"/>
     </g>
     <g id="line2d_14">
      <defs>
       <path d="M 0 0 
L 0 2 
" id="m9c7b2f4464" style="stroke:#000000;stroke-width:0.6;"/>
      </defs>
      <g>
       <use style="stroke:#000000;stroke-width:0.6;" x="57.6" xlink:href="#m9c7b2f4464" y="298.944"/>
      </g>
     </g>
    </g>
    <g id="xtick_6">
     <g id="line2d_15">
      <path clip-path="url(#pd6c37f9373)" d="M 97.755429 298.944 
L 97.755429 41.472 
" style="fill:none;stroke:#b0b0b0;stroke-linecap:square;stroke-width:0.8;"/>
     </g>
     <g id="line2d_16">
      <g>
       <use style="stroke:#000000;stroke-width:0.6;" x="97.755429" xlink:href="#m9c7b2f4464" y="298.944"/>
      </g>
     </g>
    </g>
    <g id="xtick_7">
     <g id="line2d_17">
      <path clip-path="url(#pd6c37f9373)" d="M 137.910857 298.944 
L 137.910857 41.472 
" style="fill:none;stroke:#b0b0b0;stroke-linecap:square;stroke-width:0.8;"/>
     </g>
     <g id="line2d_18">
      <g>
       <use style="stroke:#000000;stroke-width:0.6;" x="137.910857" xlink:href="#m9c7b2f4464" y="298.944"/>
      </g>
     </g>
    </g>
    <g id="xtick_8">
     <g id="line2d_19">
      <path clip-path="url(#pd6c37f9373)" d="M 178.066286 298.944 
L 178.066286 41.472 
" style="fill:none;stroke:#b0b0b0;stroke-linecap:square;stroke-width:0.8;"/>
     </g>
     <g id="line2d_20">
      <g>
       <use style="stroke:#000000;stroke-width:0.6;" x="178.066286" xlink:href="#m9c7b2f4464" y="298.944"/>
      </g>
     </g>
    </g>
    <g id="xtick_9">
     <g id="line2d_21">
      <path clip-path="url(#pd6c37f9373)" d="M 218.221714 298.944 
L 218.221714 41.472 
" style="fill:none;stroke:#b0b0b0;stroke-linecap:square;stroke-width:0.8;"/>
     </g>
     <g id="line2d_22">
      <g>
       <use style="stroke:#000000;stroke-width:0.6;" x="218.221714" xlink:href="#m9c7b2f4464" y="298.944"/>
      </g>
     </g>
    </g>
    <g id="xtick_10">
     <g id="line2d_23">
      <path clip-path="url(#pd6c37f9373)" d="M 258.377143 298.944 
L 258.377143 41.472 
" style="fill:none;stroke:#b0b0b0;stroke-linecap:square;stroke-width:0.8;"/>
     </g>
     <g id="line2d_24">
      <g>
       <use style="stroke:#000000;stroke-width:0.6;" x="258.377143" xlink:href="#m9c7b2f4464" y="298.944"/>
      </g>
     </g>
    </g>
    <g id="xtick_11">
     <g id="line2d_25">
      <path clip-path="url(#pd6c37f9373)" d="M 298.532571 298.944 
L 298.532571 41.472 
" style="fill:none;stroke:#b0b0b0;stroke-linecap:square;stroke-width:0.8;"/>
     </g>
     <g id="line2d_26">
      <g>
       <use style="stroke:#000000;stroke-width:0.6;" x="298.532571" xlink:href="#m9c7b2f4464" y="298.944"/>
      </g>
     </g>
    </g>
    <g id="xtick_12">
     <g id="line2d_27">
      <path clip-path="url(#pd6c37f9373)" d="M 338.688 298.944 
L 338.688 41.472 
" style="fill:none;stroke:#b0b0b0;stroke-linecap:square;stroke-width:0.8;"/>
     </g>
     <g id="line2d_28">
      <g>
       <use style="stroke:#000000;stroke-width:0.6;" x="338.688" xlink:href="#m9c7b2f4464" y="298.944"/>
      </g>
     </g>
    </g>
    <g id="text_5">
     <!-- log10(# f-evals / dimension) -->
     <defs>
      <path d="M 9.421875 75.984375 
L 18.40625 75.984375 
L 18.40625 0 
L 9.421875 0 
z
" id="DejaVuSans-108"/>
      <path d="M 30.609375 48.390625 
Q 23.390625 48.390625 19.1875 42.75 
Q 14.984375 37.109375 14.984375 27.296875 
Q 14.984375 17.484375 19.15625 11.84375 
Q 23.34375 6.203125 30.609375 6.203125 
Q 37.796875 6.203125 41.984375 11.859375 
Q 46.1875 17.53125 46.1875 27.296875 
Q 46.1875 37.015625 41.984375 42.703125 
Q 37.796875 48.390625 30.609375 48.390625 
z
M 30.609375 56 
Q 42.328125 56 49.015625 48.375 
Q 55.71875 40.765625 55.71875 27.296875 
Q 55.71875 13.875 49.015625 6.21875 
Q 42.328125 -1.421875 30.609375 -1.421875 
Q 18.84375 -1.421875 12.171875 6.21875 
Q 5.515625 13.875 5.515625 27.296875 
Q 5.515625 40.765625 12.171875 48.375 
Q 18.84375 56 30.609375 56 
z
" id="DejaVuSans-111"/>
      <path d="M 45.40625 27.984375 
Q 45.40625 37.75 41.375 43.109375 
Q 37.359375 48.484375 30.078125 48.484375 
Q 22.859375 48.484375 18.828125 43.109375 
Q 14.796875 37.75 14.796875 27.984375 
Q 14.796875 18.265625 18.828125 12.890625 
Q 22.859375 7.515625 30.078125 7.515625 
Q 37.359375 7.515625 41.375 12.890625 
Q 45.40625 18.265625 45.40625 27.984375 
z
M 54.390625 6.78125 
Q 54.390625 -7.171875 48.1875 -13.984375 
Q 42 -20.796875 29.203125 -20.796875 
Q 24.46875 -20.796875 20.265625 -20.09375 
Q 16.0625 -19.390625 12.109375 -17.921875 
L 12.109375 -9.1875 
Q 16.0625 -11.328125 19.921875 -12.34375 
Q 23.78125 -13.375 27.78125 -13.375 
Q 36.625 -13.375 41.015625 -8.765625 
Q 45.40625 -4.15625 45.40625 5.171875 
L 45.40625 9.625 
Q 42.625 4.78125 38.28125 2.390625 
Q 33.9375 0 27.875 0 
Q 17.828125 0 11.671875 7.65625 
Q 5.515625 15.328125 5.515625 27.984375 
Q 5.515625 40.671875 11.671875 48.328125 
Q 17.828125 56 27.875 56 
Q 33.9375 56 38.28125 53.609375 
Q 42.625 51.21875 45.40625 46.390625 
L 45.40625 54.6875 
L 54.390625 54.6875 
z
" id="DejaVuSans-103"/>
      <path d="M 12.40625 8.296875 
L 28.515625 8.296875 
L 28.515625 63.921875 
L 10.984375 60.40625 
L 10.984375 69.390625 
L 28.421875 72.90625 
L 38.28125 72.90625 
L 38.28125 8.296875 
L 54.390625 8.296875 
L 54.390625 0 
L 12.40625 0 
z
" id="DejaVuSans-49"/>
      <path d="M 31 75.875 
Q 24.46875 64.65625 21.28125 53.65625 
Q 18.109375 42.671875 18.109375 31.390625 
Q 18.109375 20.125 21.3125 9.0625 
Q 24.515625 -2 31 -13.1875 
L 23.1875 -13.1875 
Q 15.875 -1.703125 12.234375 9.375 
Q 8.59375 20.453125 8.59375 31.390625 
Q 8.59375 42.28125 12.203125 53.3125 
Q 15.828125 64.359375 23.1875 75.875 
z
" id="DejaVuSans-40"/>
      <path d="M 51.125 44 
L 36.921875 44 
L 32.8125 27.6875 
L 47.125 27.6875 
z
M 43.796875 71.78125 
L 38.71875 51.515625 
L 52.984375 51.515625 
L 58.109375 71.78125 
L 65.921875 71.78125 
L 60.890625 51.515625 
L 76.125 51.515625 
L 76.125 44 
L 58.984375 44 
L 54.984375 27.6875 
L 70.515625 27.6875 
L 70.515625 20.21875 
L 53.078125 20.21875 
L 48 0 
L 40.1875 0 
L 45.21875 20.21875 
L 30.90625 20.21875 
L 25.875 0 
L 18.015625 0 
L 23.09375 20.21875 
L 7.71875 20.21875 
L 7.71875 27.6875 
L 24.90625 27.6875 
L 29 44 
L 13.28125 44 
L 13.28125 51.515625 
L 30.90625 51.515625 
L 35.890625 71.78125 
z
" id="DejaVuSans-35"/>
      <path id="DejaVuSans-32"/>
      <path d="M 37.109375 75.984375 
L 37.109375 68.5 
L 28.515625 68.5 
Q 23.6875 68.5 21.796875 66.546875 
Q 19.921875 64.59375 19.921875 59.515625 
L 19.921875 54.6875 
L 34.71875 54.6875 
L 34.71875 47.703125 
L 19.921875 47.703125 
L 19.921875 0 
L 10.890625 0 
L 10.890625 47.703125 
L 2.296875 47.703125 
L 2.296875 54.6875 
L 10.890625 54.6875 
L 10.890625 58.5 
Q 10.890625 67.625 15.140625 71.796875 
Q 19.390625 75.984375 28.609375 75.984375 
z
" id="DejaVuSans-102"/>
      <path d="M 4.890625 31.390625 
L 31.203125 31.390625 
L 31.203125 23.390625 
L 4.890625 23.390625 
z
" id="DejaVuSans-45"/>
      <path d="M 56.203125 29.59375 
L 56.203125 25.203125 
L 14.890625 25.203125 
Q 15.484375 15.921875 20.484375 11.0625 
Q 25.484375 6.203125 34.421875 6.203125 
Q 39.59375 6.203125 44.453125 7.46875 
Q 49.3125 8.734375 54.109375 11.28125 
L 54.109375 2.78125 
Q 49.265625 0.734375 44.1875 -0.34375 
Q 39.109375 -1.421875 33.890625 -1.421875 
Q 20.796875 -1.421875 13.15625 6.1875 
Q 5.515625 13.8125 5.515625 26.8125 
Q 5.515625 40.234375 12.765625 48.109375 
Q 20.015625 56 32.328125 56 
Q 43.359375 56 49.78125 48.890625 
Q 56.203125 41.796875 56.203125 29.59375 
z
M 47.21875 32.234375 
Q 47.125 39.59375 43.09375 43.984375 
Q 39.0625 48.390625 32.421875 48.390625 
Q 24.90625 48.390625 20.390625 44.140625 
Q 15.875 39.890625 15.1875 32.171875 
z
" id="DejaVuSans-101"/>
      <path d="M 2.984375 54.6875 
L 12.5 54.6875 
L 29.59375 8.796875 
L 46.6875 54.6875 
L 56.203125 54.6875 
L 35.6875 0 
L 23.484375 0 
z
" id="DejaVuSans-118"/>
      <path d="M 34.28125 27.484375 
Q 23.390625 27.484375 19.1875 25 
Q 14.984375 22.515625 14.984375 16.5 
Q 14.984375 11.71875 18.140625 8.90625 
Q 21.296875 6.109375 26.703125 6.109375 
Q 34.1875 6.109375 38.703125 11.40625 
Q 43.21875 16.703125 43.21875 25.484375 
L 43.21875 27.484375 
z
M 52.203125 31.203125 
L 52.203125 0 
L 43.21875 0 
L 43.21875 8.296875 
Q 40.140625 3.328125 35.546875 0.953125 
Q 30.953125 -1.421875 24.3125 -1.421875 
Q 15.921875 -1.421875 10.953125 3.296875 
Q 6 8.015625 6 15.921875 
Q 6 25.140625 12.171875 29.828125 
Q 18.359375 34.515625 30.609375 34.515625 
L 43.21875 34.515625 
L 43.21875 35.40625 
Q 43.21875 41.609375 39.140625 45 
Q 35.0625 48.390625 27.6875 48.390625 
Q 23 48.390625 18.546875 47.265625 
Q 14.109375 46.140625 10.015625 43.890625 
L 10.015625 52.203125 
Q 14.9375 54.109375 19.578125 55.046875 
Q 24.21875 56 28.609375 56 
Q 40.484375 56 46.34375 49.84375 
Q 52.203125 43.703125 52.203125 31.203125 
z
" id="DejaVuSans-97"/>
      <path d="M 44.28125 53.078125 
L 44.28125 44.578125 
Q 40.484375 46.53125 36.375 47.5 
Q 32.28125 48.484375 27.875 48.484375 
Q 21.1875 48.484375 17.84375 46.4375 
Q 14.5 44.390625 14.5 40.28125 
Q 14.5 37.15625 16.890625 35.375 
Q 19.28125 33.59375 26.515625 31.984375 
L 29.59375 31.296875 
Q 39.15625 29.25 43.1875 25.515625 
Q 47.21875 21.78125 47.21875 15.09375 
Q 47.21875 7.46875 41.1875 3.015625 
Q 35.15625 -1.421875 24.609375 -1.421875 
Q 20.21875 -1.421875 15.453125 -0.5625 
Q 10.6875 0.296875 5.421875 2 
L 5.421875 11.28125 
Q 10.40625 8.6875 15.234375 7.390625 
Q 20.0625 6.109375 24.8125 6.109375 
Q 31.15625 6.109375 34.5625 8.28125 
Q 37.984375 10.453125 37.984375 14.40625 
Q 37.984375 18.0625 35.515625 20.015625 
Q 33.0625 21.96875 24.703125 23.78125 
L 21.578125 24.515625 
Q 13.234375 26.265625 9.515625 29.90625 
Q 5.8125 33.546875 5.8125 39.890625 
Q 5.8125 47.609375 11.28125 51.796875 
Q 16.75 56 26.8125 56 
Q 31.78125 56 36.171875 55.265625 
Q 40.578125 54.546875 44.28125 53.078125 
z
" id="DejaVuSans-115"/>
      <path d="M 25.390625 72.90625 
L 33.6875 72.90625 
L 8.296875 -9.28125 
L 0 -9.28125 
z
" id="DejaVuSans-47"/>
      <path d="M 45.40625 46.390625 
L 45.40625 75.984375 
L 54.390625 75.984375 
L 54.390625 0 
L 45.40625 0 
L 45.40625 8.203125 
Q 42.578125 3.328125 38.25 0.953125 
Q 33.9375 -1.421875 27.875 -1.421875 
Q 17.96875 -1.421875 11.734375 6.484375 
Q 5.515625 14.40625 5.515625 27.296875 
Q 5.515625 40.1875 11.734375 48.09375 
Q 17.96875 56 27.875 56 
Q 33.9375 56 38.25 53.625 
Q 42.578125 51.265625 45.40625 46.390625 
z
M 14.796875 27.296875 
Q 14.796875 17.390625 18.875 11.75 
Q 22.953125 6.109375 30.078125 6.109375 
Q 37.203125 6.109375 41.296875 11.75 
Q 45.40625 17.390625 45.40625 27.296875 
Q 45.40625 37.203125 41.296875 42.84375 
Q 37.203125 48.484375 30.078125 48.484375 
Q 22.953125 48.484375 18.875 42.84375 
Q 14.796875 37.203125 14.796875 27.296875 
z
" id="DejaVuSans-100"/>
      <path d="M 9.421875 54.6875 
L 18.40625 54.6875 
L 18.40625 0 
L 9.421875 0 
z
M 9.421875 75.984375 
L 18.40625 75.984375 
L 18.40625 64.59375 
L 9.421875 64.59375 
z
" id="DejaVuSans-105"/>
      <path d="M 52 44.1875 
Q 55.375 50.25 60.0625 53.125 
Q 64.75 56 71.09375 56 
Q 79.640625 56 84.28125 50.015625 
Q 88.921875 44.046875 88.921875 33.015625 
L 88.921875 0 
L 79.890625 0 
L 79.890625 32.71875 
Q 79.890625 40.578125 77.09375 44.375 
Q 74.3125 48.1875 68.609375 48.1875 
Q 61.625 48.1875 57.5625 43.546875 
Q 53.515625 38.921875 53.515625 30.90625 
L 53.515625 0 
L 44.484375 0 
L 44.484375 32.71875 
Q 44.484375 40.625 41.703125 44.40625 
Q 38.921875 48.1875 33.109375 48.1875 
Q 26.21875 48.1875 22.15625 43.53125 
Q 18.109375 38.875 18.109375 30.90625 
L 18.109375 0 
L 9.078125 0 
L 9.078125 54.6875 
L 18.109375 54.6875 
L 18.109375 46.1875 
Q 21.1875 51.21875 25.484375 53.609375 
Q 29.78125 56 35.6875 56 
Q 41.65625 56 45.828125 52.96875 
Q 50 49.953125 52 44.1875 
z
" id="DejaVuSans-109"/>
      <path d="M 54.890625 33.015625 
L 54.890625 0 
L 45.90625 0 
L 45.90625 32.71875 
Q 45.90625 40.484375 42.875 44.328125 
Q 39.84375 48.1875 33.796875 48.1875 
Q 26.515625 48.1875 22.3125 43.546875 
Q 18.109375 38.921875 18.109375 30.90625 
L 18.109375 0 
L 9.078125 0 
L 9.078125 54.6875 
L 18.109375 54.6875 
L 18.109375 46.1875 
Q 21.34375 51.125 25.703125 53.5625 
Q 30.078125 56 35.796875 56 
Q 45.21875 56 50.046875 50.171875 
Q 54.890625 44.34375 54.890625 33.015625 
z
" id="DejaVuSans-110"/>
      <path d="M 8.015625 75.875 
L 15.828125 75.875 
Q 23.140625 64.359375 26.78125 53.3125 
Q 30.421875 42.28125 30.421875 31.390625 
Q 30.421875 20.453125 26.78125 9.375 
Q 23.140625 -1.703125 15.828125 -13.1875 
L 8.015625 -13.1875 
Q 14.5 -2 17.703125 9.0625 
Q 20.90625 20.125 20.90625 31.390625 
Q 20.90625 42.671875 17.703125 53.65625 
Q 14.5 64.65625 8.015625 75.875 
z
" id="DejaVuSans-41"/>
     </defs>
     <g transform="translate(77.303219 342.217594)scale(0.17 -0.17)">
      <use xlink:href="#DejaVuSans-108"/>
      <use x="27.783203" xlink:href="#DejaVuSans-111"/>
      <use x="88.964844" xlink:href="#DejaVuSans-103"/>
      <use x="152.441406" xlink:href="#DejaVuSans-49"/>
      <use x="216.064453" xlink:href="#DejaVuSans-48"/>
      <use x="279.6875" xlink:href="#DejaVuSans-40"/>
      <use x="318.701172" xlink:href="#DejaVuSans-35"/>
      <use x="402.490234" xlink:href="#DejaVuSans-32"/>
      <use x="434.277344" xlink:href="#DejaVuSans-102"/>
      <use x="469.404297" xlink:href="#DejaVuSans-45"/>
      <use x="505.488281" xlink:href="#DejaVuSans-101"/>
      <use x="567.011719" xlink:href="#DejaVuSans-118"/>
      <use x="626.191406" xlink:href="#DejaVuSans-97"/>
      <use x="687.470703" xlink:href="#DejaVuSans-108"/>
      <use x="715.253906" xlink:href="#DejaVuSans-115"/>
      <use x="767.353516" xlink:href="#DejaVuSans-32"/>
      <use x="799.140625" xlink:href="#DejaVuSans-47"/>
      <use x="832.832031" xlink:href="#DejaVuSans-32"/>
      <use x="864.619141" xlink:href="#DejaVuSans-100"/>
      <use x="928.095703" xlink:href="#DejaVuSans-105"/>
      <use x="955.878906" xlink:href="#DejaVuSans-109"/>
      <use x="1053.291016" xlink:href="#DejaVuSans-101"/>
      <use x="1114.814453" xlink:href="#DejaVuSans-110"/>
      <use x="1178.193359" xlink:href="#DejaVuSans-115"/>
      <use x="1230.292969" xlink:href="#DejaVuSans-105"/>
      <use x="1258.076172" xlink:href="#DejaVuSans-111"/>
      <use x="1319.257812" xlink:href="#DejaVuSans-110"/>
      <use x="1382.636719" xlink:href="#DejaVuSans-41"/>
     </g>
    </g>
   </g>
   <g id="matplotlib.axis_2">
    <g id="ytick_1">
     <g id="line2d_29">
      <path clip-path="url(#pd6c37f9373)" d="M 57.6 298.944 
L 338.688 298.944 
" style="fill:none;stroke:#b0b0b0;stroke-linecap:square;stroke-width:0.8;"/>
     </g>
     <g id="line2d_30">
      <defs>
       <path d="M 0 0 
L -3.5 0 
" id="m7e4bb24698" style="stroke:#000000;stroke-width:0.8;"/>
      </defs>
      <g>
       <use style="stroke:#000000;stroke-width:0.8;" x="57.6" xlink:href="#m7e4bb24698" y="298.944"/>
      </g>
     </g>
     <g id="text_6">
      <!-- 0.0 -->
      <defs>
       <path d="M 10.6875 12.40625 
L 21 12.40625 
L 21 0 
L 10.6875 0 
z
" id="DejaVuSans-46"/>
      </defs>
      <g transform="translate(25.155 305.02275)scale(0.16 -0.16)">
       <use xlink:href="#DejaVuSans-48"/>
       <use x="63.623047" xlink:href="#DejaVuSans-46"/>
       <use x="95.410156" xlink:href="#DejaVuSans-48"/>
      </g>
     </g>
    </g>
    <g id="ytick_2">
     <g id="line2d_31">
      <path clip-path="url(#pd6c37f9373)" d="M 57.6 247.959446 
L 338.688 247.959446 
" style="fill:none;stroke:#b0b0b0;stroke-linecap:square;stroke-width:0.8;"/>
     </g>
     <g id="line2d_32">
      <g>
       <use style="stroke:#000000;stroke-width:0.8;" x="57.6" xlink:href="#m7e4bb24698" y="247.959446"/>
      </g>
     </g>
     <g id="text_7">
      <!-- 0.2 -->
      <g transform="translate(25.155 254.038196)scale(0.16 -0.16)">
       <use xlink:href="#DejaVuSans-48"/>
       <use x="63.623047" xlink:href="#DejaVuSans-46"/>
       <use x="95.410156" xlink:href="#DejaVuSans-50"/>
      </g>
     </g>
    </g>
    <g id="ytick_3">
     <g id="line2d_33">
      <path clip-path="url(#pd6c37f9373)" d="M 57.6 196.974891 
L 338.688 196.974891 
" style="fill:none;stroke:#b0b0b0;stroke-linecap:square;stroke-width:0.8;"/>
     </g>
     <g id="line2d_34">
      <g>
       <use style="stroke:#000000;stroke-width:0.8;" x="57.6" xlink:href="#m7e4bb24698" y="196.974891"/>
      </g>
     </g>
     <g id="text_8">
      <!-- 0.4 -->
      <g transform="translate(25.155 203.053641)scale(0.16 -0.16)">
       <use xlink:href="#DejaVuSans-48"/>
       <use x="63.623047" xlink:href="#DejaVuSans-46"/>
       <use x="95.410156" xlink:href="#DejaVuSans-52"/>
      </g>
     </g>
    </g>
    <g id="ytick_4">
     <g id="line2d_35">
      <path clip-path="url(#pd6c37f9373)" d="M 57.6 145.990337 
L 338.688 145.990337 
" style="fill:none;stroke:#b0b0b0;stroke-linecap:square;stroke-width:0.8;"/>
     </g>
     <g id="line2d_36">
      <g>
       <use style="stroke:#000000;stroke-width:0.8;" x="57.6" xlink:href="#m7e4bb24698" y="145.990337"/>
      </g>
     </g>
     <g id="text_9">
      <!-- 0.6 -->
      <g transform="translate(25.155 152.069087)scale(0.16 -0.16)">
       <use xlink:href="#DejaVuSans-48"/>
       <use x="63.623047" xlink:href="#DejaVuSans-46"/>
       <use x="95.410156" xlink:href="#DejaVuSans-54"/>
      </g>
     </g>
    </g>
    <g id="ytick_5">
     <g id="line2d_37">
      <path clip-path="url(#pd6c37f9373)" d="M 57.6 95.005782 
L 338.688 95.005782 
" style="fill:none;stroke:#b0b0b0;stroke-linecap:square;stroke-width:0.8;"/>
     </g>
     <g id="line2d_38">
      <g>
       <use style="stroke:#000000;stroke-width:0.8;" x="57.6" xlink:href="#m7e4bb24698" y="95.005782"/>
      </g>
     </g>
     <g id="text_10">
      <!-- 0.8 -->
      <defs>
       <path d="M 31.78125 34.625 
Q 24.75 34.625 20.71875 30.859375 
Q 16.703125 27.09375 16.703125 20.515625 
Q 16.703125 13.921875 20.71875 10.15625 
Q 24.75 6.390625 31.78125 6.390625 
Q 38.8125 6.390625 42.859375 10.171875 
Q 46.921875 13.96875 46.921875 20.515625 
Q 46.921875 27.09375 42.890625 30.859375 
Q 38.875 34.625 31.78125 34.625 
z
M 21.921875 38.8125 
Q 15.578125 40.375 12.03125 44.71875 
Q 8.5 49.078125 8.5 55.328125 
Q 8.5 64.0625 14.71875 69.140625 
Q 20.953125 74.21875 31.78125 74.21875 
Q 42.671875 74.21875 48.875 69.140625 
Q 55.078125 64.0625 55.078125 55.328125 
Q 55.078125 49.078125 51.53125 44.71875 
Q 48 40.375 41.703125 38.8125 
Q 48.828125 37.15625 52.796875 32.3125 
Q 56.78125 27.484375 56.78125 20.515625 
Q 56.78125 9.90625 50.3125 4.234375 
Q 43.84375 -1.421875 31.78125 -1.421875 
Q 19.734375 -1.421875 13.25 4.234375 
Q 6.78125 9.90625 6.78125 20.515625 
Q 6.78125 27.484375 10.78125 32.3125 
Q 14.796875 37.15625 21.921875 38.8125 
z
M 18.3125 54.390625 
Q 18.3125 48.734375 21.84375 45.5625 
Q 25.390625 42.390625 31.78125 42.390625 
Q 38.140625 42.390625 41.71875 45.5625 
Q 45.3125 48.734375 45.3125 54.390625 
Q 45.3125 60.0625 41.71875 63.234375 
Q 38.140625 66.40625 31.78125 66.40625 
Q 25.390625 66.40625 21.84375 63.234375 
Q 18.3125 60.0625 18.3125 54.390625 
z
" id="DejaVuSans-56"/>
      </defs>
      <g transform="translate(25.155 101.084532)scale(0.16 -0.16)">
       <use xlink:href="#DejaVuSans-48"/>
       <use x="63.623047" xlink:href="#DejaVuSans-46"/>
       <use x="95.410156" xlink:href="#DejaVuSans-56"/>
      </g>
     </g>
    </g>
    <g id="ytick_6">
     <g id="line2d_39">
      <path clip-path="url(#pd6c37f9373)" d="M 57.6 44.021228 
L 338.688 44.021228 
" style="fill:none;stroke:#b0b0b0;stroke-linecap:square;stroke-width:0.8;"/>
     </g>
     <g id="line2d_40">
      <g>
       <use style="stroke:#000000;stroke-width:0.8;" x="57.6" xlink:href="#m7e4bb24698" y="44.021228"/>
      </g>
     </g>
     <g id="text_11">
      <!-- 1.0 -->
      <g transform="translate(25.155 50.099978)scale(0.16 -0.16)">
       <use xlink:href="#DejaVuSans-49"/>
       <use x="63.623047" xlink:href="#DejaVuSans-46"/>
       <use x="95.410156" xlink:href="#DejaVuSans-48"/>
      </g>
     </g>
    </g>
    <g id="text_12">
     <!-- Fraction of function,target pairs -->
     <defs>
      <path d="M 9.8125 72.90625 
L 51.703125 72.90625 
L 51.703125 64.59375 
L 19.671875 64.59375 
L 19.671875 43.109375 
L 48.578125 43.109375 
L 48.578125 34.8125 
L 19.671875 34.8125 
L 19.671875 0 
L 9.8125 0 
z
" id="DejaVuSans-70"/>
      <path d="M 41.109375 46.296875 
Q 39.59375 47.171875 37.8125 47.578125 
Q 36.03125 48 33.890625 48 
Q 26.265625 48 22.1875 43.046875 
Q 18.109375 38.09375 18.109375 28.8125 
L 18.109375 0 
L 9.078125 0 
L 9.078125 54.6875 
L 18.109375 54.6875 
L 18.109375 46.1875 
Q 20.953125 51.171875 25.484375 53.578125 
Q 30.03125 56 36.53125 56 
Q 37.453125 56 38.578125 55.875 
Q 39.703125 55.765625 41.0625 55.515625 
z
" id="DejaVuSans-114"/>
      <path d="M 48.78125 52.59375 
L 48.78125 44.1875 
Q 44.96875 46.296875 41.140625 47.34375 
Q 37.3125 48.390625 33.40625 48.390625 
Q 24.65625 48.390625 19.8125 42.84375 
Q 14.984375 37.3125 14.984375 27.296875 
Q 14.984375 17.28125 19.8125 11.734375 
Q 24.65625 6.203125 33.40625 6.203125 
Q 37.3125 6.203125 41.140625 7.25 
Q 44.96875 8.296875 48.78125 10.40625 
L 48.78125 2.09375 
Q 45.015625 0.34375 40.984375 -0.53125 
Q 36.96875 -1.421875 32.421875 -1.421875 
Q 20.0625 -1.421875 12.78125 6.34375 
Q 5.515625 14.109375 5.515625 27.296875 
Q 5.515625 40.671875 12.859375 48.328125 
Q 20.21875 56 33.015625 56 
Q 37.15625 56 41.109375 55.140625 
Q 45.0625 54.296875 48.78125 52.59375 
z
" id="DejaVuSans-99"/>
      <path d="M 18.3125 70.21875 
L 18.3125 54.6875 
L 36.8125 54.6875 
L 36.8125 47.703125 
L 18.3125 47.703125 
L 18.3125 18.015625 
Q 18.3125 11.328125 20.140625 9.421875 
Q 21.96875 7.515625 27.59375 7.515625 
L 36.8125 7.515625 
L 36.8125 0 
L 27.59375 0 
Q 17.1875 0 13.234375 3.875 
Q 9.28125 7.765625 9.28125 18.015625 
L 9.28125 47.703125 
L 2.6875 47.703125 
L 2.6875 54.6875 
L 9.28125 54.6875 
L 9.28125 70.21875 
z
" id="DejaVuSans-116"/>
      <path d="M 8.5 21.578125 
L 8.5 54.6875 
L 17.484375 54.6875 
L 17.484375 21.921875 
Q 17.484375 14.15625 20.5 10.265625 
Q 23.53125 6.390625 29.59375 6.390625 
Q 36.859375 6.390625 41.078125 11.03125 
Q 45.3125 15.671875 45.3125 23.6875 
L 45.3125 54.6875 
L 54.296875 54.6875 
L 54.296875 0 
L 45.3125 0 
L 45.3125 8.40625 
Q 42.046875 3.421875 37.71875 1 
Q 33.40625 -1.421875 27.6875 -1.421875 
Q 18.265625 -1.421875 13.375 4.4375 
Q 8.5 10.296875 8.5 21.578125 
z
M 31.109375 56 
z
" id="DejaVuSans-117"/>
      <path d="M 11.71875 12.40625 
L 22.015625 12.40625 
L 22.015625 4 
L 14.015625 -11.625 
L 7.71875 -11.625 
L 11.71875 4 
z
" id="DejaVuSans-44"/>
      <path d="M 18.109375 8.203125 
L 18.109375 -20.796875 
L 9.078125 -20.796875 
L 9.078125 54.6875 
L 18.109375 54.6875 
L 18.109375 46.390625 
Q 20.953125 51.265625 25.265625 53.625 
Q 29.59375 56 35.59375 56 
Q 45.5625 56 51.78125 48.09375 
Q 58.015625 40.1875 58.015625 27.296875 
Q 58.015625 14.40625 51.78125 6.484375 
Q 45.5625 -1.421875 35.59375 -1.421875 
Q 29.59375 -1.421875 25.265625 0.953125 
Q 20.953125 3.328125 18.109375 8.203125 
z
M 48.6875 27.296875 
Q 48.6875 37.203125 44.609375 42.84375 
Q 40.53125 48.484375 33.40625 48.484375 
Q 26.265625 48.484375 22.1875 42.84375 
Q 18.109375 37.203125 18.109375 27.296875 
Q 18.109375 17.390625 22.1875 11.75 
Q 26.265625 6.109375 33.40625 6.109375 
Q 40.53125 6.109375 44.609375 11.75 
Q 48.6875 17.390625 48.6875 27.296875 
z
" id="DejaVuSans-112"/>
     </defs>
     <g transform="translate(17.619531 305.347375)rotate(-90)scale(0.17 -0.17)">
      <use xlink:href="#DejaVuSans-70"/>
      <use x="57.410156" xlink:href="#DejaVuSans-114"/>
      <use x="98.523438" xlink:href="#DejaVuSans-97"/>
      <use x="159.802734" xlink:href="#DejaVuSans-99"/>
      <use x="214.783203" xlink:href="#DejaVuSans-116"/>
      <use x="253.992188" xlink:href="#DejaVuSans-105"/>
      <use x="281.775391" xlink:href="#DejaVuSans-111"/>
      <use x="342.957031" xlink:href="#DejaVuSans-110"/>
      <use x="406.335938" xlink:href="#DejaVuSans-32"/>
      <use x="438.123047" xlink:href="#DejaVuSans-111"/>
      <use x="499.304688" xlink:href="#DejaVuSans-102"/>
      <use x="534.509766" xlink:href="#DejaVuSans-32"/>
      <use x="566.296875" xlink:href="#DejaVuSans-102"/>
      <use x="601.501953" xlink:href="#DejaVuSans-117"/>
      <use x="664.880859" xlink:href="#DejaVuSans-110"/>
      <use x="728.259766" xlink:href="#DejaVuSans-99"/>
      <use x="783.240234" xlink:href="#DejaVuSans-116"/>
      <use x="822.449219" xlink:href="#DejaVuSans-105"/>
      <use x="850.232422" xlink:href="#DejaVuSans-111"/>
      <use x="911.414062" xlink:href="#DejaVuSans-110"/>
      <use x="974.792969" xlink:href="#DejaVuSans-44"/>
      <use x="1006.580078" xlink:href="#DejaVuSans-116"/>
      <use x="1045.789062" xlink:href="#DejaVuSans-97"/>
      <use x="1107.068359" xlink:href="#DejaVuSans-114"/>
      <use x="1148.166016" xlink:href="#DejaVuSans-103"/>
      <use x="1211.642578" xlink:href="#DejaVuSans-101"/>
      <use x="1273.166016" xlink:href="#DejaVuSans-116"/>
      <use x="1312.375" xlink:href="#DejaVuSans-32"/>
      <use x="1344.162109" xlink:href="#DejaVuSans-112"/>
      <use x="1407.638672" xlink:href="#DejaVuSans-97"/>
      <use x="1468.917969" xlink:href="#DejaVuSans-105"/>
      <use x="1496.701172" xlink:href="#DejaVuSans-114"/>
      <use x="1537.814453" xlink:href="#DejaVuSans-115"/>
     </g>
    </g>
   </g>
   <g id="line2d_41">
    <defs>
     <path d="M 0 1.5 
C 0.397805 1.5 0.77937 1.341951 1.06066 1.06066 
C 1.341951 0.77937 1.5 0.397805 1.5 0 
C 1.5 -0.397805 1.341951 -0.77937 1.06066 -1.06066 
C 0.77937 -1.341951 0.397805 -1.5 0 -1.5 
C -0.397805 -1.5 -0.77937 -1.341951 -1.06066 -1.06066 
C -1.341951 -0.77937 -1.5 -0.397805 -1.5 0 
C -1.5 0.397805 -1.341951 0.77937 -1.06066 1.06066 
C -0.77937 1.341951 -0.397805 1.5 0 1.5 
z
" id="mc71403d072" style="stroke:#f5deb3;"/>
    </defs>
    <g>
     <use style="fill:#f5deb3;stroke:#f5deb3;" x="245.382394" xlink:href="#mc71403d072" y="74.787769"/>
     <use style="fill:#f5deb3;stroke:#f5deb3;" x="245.382394" xlink:href="#mc71403d072" y="74.787769"/>
    </g>
   </g>
   <g id="line2d_42">
    <defs>
     <path d="M 0 1.5 
C 0.397805 1.5 0.77937 1.341951 1.06066 1.06066 
C 1.341951 0.77937 1.5 0.397805 1.5 0 
C 1.5 -0.397805 1.341951 -0.77937 1.06066 -1.06066 
C 0.77937 -1.341951 0.397805 -1.5 0 -1.5 
C -0.397805 -1.5 -0.77937 -1.341951 -1.06066 -1.06066 
C -1.341951 -0.77937 -1.5 -0.397805 -1.5 0 
C -1.5 0.397805 -1.341951 0.77937 -1.06066 1.06066 
C -0.77937 1.341951 -0.397805 1.5 0 1.5 
z
" id="m305897a243" style="stroke:#000080;"/>
    </defs>
    <g>
     <use style="fill:#000080;stroke:#000080;" x="237.180185" xlink:href="#m305897a243" y="114.784273"/>
     <use style="fill:#000080;stroke:#000080;" x="237.180185" xlink:href="#m305897a243" y="114.784273"/>
    </g>
   </g>
   <g id="line2d_43">
    <path d="M 38.440992 298.944 
L 38.440992 294.54878 
L 66.508432 294.54878 
L 66.508432 294.109258 
L 69.687988 294.109258 
L 69.687988 290.593082 
L 74.704957 290.593082 
L 74.704957 290.15356 
L 76.759008 290.15356 
L 76.759008 289.714038 
L 78.59642 289.714038 
L 78.59642 287.516427 
L 80.258561 287.516427 
L 80.258561 286.637383 
L 81.775977 286.637383 
L 81.775977 280.044553 
L 83.171864 280.044553 
L 83.171864 279.165509 
L 84.464254 279.165509 
L 84.464254 277.846943 
L 85.66744 277.846943 
L 85.66744 275.649333 
L 88.846997 275.649333 
L 88.846997 274.770289 
L 90.684409 274.770289 
L 90.684409 274.330767 
L 91.535274 274.330767 
L 91.535274 273.012201 
L 93.121756 273.012201 
L 93.121756 272.572679 
L 93.863965 272.572679 
L 93.863965 270.814591 
L 94.575872 270.814591 
L 94.575872 270.375069 
L 95.918017 270.375069 
L 95.918017 269.496025 
L 96.552242 269.496025 
L 96.552242 269.056503 
L 97.16421 269.056503 
L 97.16421 268.616981 
L 97.755429 268.616981 
L 97.755429 266.858892 
L 98.32726 266.858892 
L 98.32726 265.540326 
L 98.880934 265.540326 
L 98.880934 265.100804 
L 99.41757 265.100804 
L 99.41757 262.463672 
L 99.938184 262.463672 
L 99.938184 259.387018 
L 100.934985 259.387018 
L 100.934985 258.947496 
L 101.877879 258.947496 
L 101.877879 258.507974 
L 102.330873 258.507974 
L 102.330873 256.749886 
L 103.203018 256.749886 
L 103.203018 256.310364 
L 103.623262 256.310364 
L 103.623262 255.43132 
L 104.033617 255.43132 
L 104.033617 254.991798 
L 105.209745 254.991798 
L 105.209745 254.552276 
L 105.951954 254.552276 
L 105.951954 254.112754 
L 106.66386 254.112754 
L 106.66386 253.23371 
L 107.009204 253.23371 
L 107.009204 251.915144 
L 107.347841 251.915144 
L 107.347841 251.475622 
L 107.680028 251.475622 
L 107.680028 250.157056 
L 108.640231 250.157056 
L 108.640231 248.83849 
L 109.252198 248.83849 
L 109.252198 248.398968 
L 109.550313 248.398968 
L 109.550313 247.959446 
L 109.843417 247.959446 
L 109.843417 246.640879 
L 110.968922 246.640879 
L 110.968922 245.761835 
L 111.767808 245.761835 
L 111.767808 245.322313 
L 112.280765 245.322313 
L 112.280765 244.882791 
L 113.022974 244.882791 
L 113.022974 244.443269 
L 113.500792 244.443269 
L 113.500792 244.003747 
L 113.965867 244.003747 
L 113.965867 243.564225 
L 114.418861 243.564225 
L 114.418861 243.124703 
L 114.860386 243.124703 
L 114.860386 242.685181 
L 116.719583 242.685181 
L 116.719583 241.806137 
L 116.914437 241.806137 
L 116.914437 240.487571 
L 117.297733 240.487571 
L 117.297733 238.729483 
L 117.672786 238.729483 
L 117.672786 237.850439 
L 117.857331 237.850439 
L 117.857331 236.971395 
L 118.039942 236.971395 
L 118.039942 236.531873 
L 118.220662 236.531873 
L 118.220662 235.213307 
L 118.399528 235.213307 
L 118.399528 234.773785 
L 118.576578 234.773785 
L 118.576578 233.894741 
L 119.097192 233.894741 
L 119.097192 233.455219 
L 119.43583 233.455219 
L 119.43583 232.576175 
L 119.602714 232.576175 
L 119.602714 232.136653 
L 120.093994 232.136653 
L 120.093994 231.697131 
L 120.571812 231.697131 
L 120.571812 230.378565 
L 121.489881 230.378565 
L 121.489881 229.499521 
L 121.785469 229.499521 
L 121.785469 229.059999 
L 122.362027 229.059999 
L 122.362027 228.620477 
L 123.192626 228.620477 
L 123.192626 228.180955 
L 124.114161 228.180955 
L 124.114161 227.741433 
L 124.241922 227.741433 
L 124.241922 227.301911 
L 124.989434 227.301911 
L 124.989434 226.422867 
L 126.168212 226.422867 
L 126.168212 225.543822 
L 126.3947 225.543822 
L 126.3947 225.1043 
L 126.50685 225.1043 
L 126.50685 224.225256 
L 126.729009 224.225256 
L 126.729009 223.346212 
L 127.272333 223.346212 
L 127.272333 222.90669 
L 127.695124 222.90669 
L 127.799239 222.027646 
L 128.310692 222.027646 
L 128.310692 221.148602 
L 129.667765 221.148602 
L 129.667765 220.70908 
L 130.30865 220.70908 
L 130.30865 219.830036 
L 130.664567 219.830036 
L 130.664567 218.950992 
L 131.013364 218.950992 
L 131.013364 218.51147 
L 131.185181 218.51147 
L 131.185181 217.632426 
L 132.181982 217.632426 
L 132.181982 216.31386 
L 132.659801 216.31386 
L 132.659801 215.874338 
L 132.893889 215.874338 
L 132.971225 213.237206 
L 133.124876 213.237206 
L 133.124876 211.479118 
L 133.352844 211.479118 
L 133.428175 210.160552 
L 133.57787 210.160552 
L 133.57787 209.72103 
L 133.946579 209.72103 
L 133.946579 209.281508 
L 134.091907 209.281508 
L 134.091907 208.402464 
L 134.37898 208.402464 
L 134.37898 207.962942 
L 134.591225 207.962942 
L 134.591225 206.644376 
L 134.939326 206.644376 
L 134.939326 205.765332 
L 135.747468 205.765332 
L 135.813153 204.446765 
L 137.077422 204.446765 
L 137.077422 204.007243 
L 137.968891 204.007243 
L 137.968891 203.128199 
L 138.313099 203.128199 
L 138.313099 202.249155 
L 139.520072 202.249155 
L 139.520072 201.809633 
L 140.297583 201.809633 
L 140.297583 201.370111 
L 140.549236 201.370111 
L 140.549236 200.491067 
L 140.846504 200.491067 
L 140.846504 200.051545 
L 141.187031 200.051545 
L 141.187031 199.612023 
L 142.306513 199.612023 
L 142.306513 198.732979 
L 142.840411 198.732979 
L 142.840411 198.293457 
L 144.310293 198.293457 
L 144.390658 196.535369 
L 145.365173 196.535369 
L 145.365173 195.656325 
L 145.591172 195.656325 
L 145.591172 194.777281 
L 146.324022 194.777281 
L 146.324022 193.898237 
L 146.854132 193.898237 
L 146.854132 193.458715 
L 147.198794 193.458715 
L 147.198794 193.019193 
L 147.4697 193.019193 
L 147.4697 192.140149 
L 147.835457 192.140149 
L 147.835457 191.261105 
L 148.639252 191.261105 
L 148.639252 190.821583 
L 149.527485 190.821583 
L 149.527485 190.382061 
L 149.794191 190.382061 
L 149.794191 189.942539 
L 151.660987 189.942539 
L 151.660987 189.503017 
L 152.181601 189.503017 
L 152.181601 189.063495 
L 153.913546 189.063495 
L 153.913546 188.184451 
L 154.303908 188.184451 
L 154.303908 187.305407 
L 155.86668 187.305407 
L 155.86668 186.426363 
L 157.262567 186.426363 
L 157.262567 185.547319 
L 157.604152 185.547319 
L 157.697862 184.668274 
L 158.267884 184.668274 
L 158.267884 183.78923 
L 159.046236 183.78923 
L 159.046236 182.910186 
L 160.184713 182.910186 
L 160.184713 182.470664 
L 160.36209 182.470664 
L 160.36209 182.031142 
L 160.883648 182.031142 
L 160.883648 181.59162 
L 161.238149 181.59162 
L 161.268637 179.833532 
L 161.480575 179.833532 
L 161.525657 178.954488 
L 161.911563 178.954488 
L 161.984807 177.635922 
L 162.173813 177.635922 
L 162.173813 177.1964 
L 162.784783 177.1964 
L 162.784783 176.756878 
L 164.243924 176.756878 
L 164.243924 175.877834 
L 164.86209 175.877834 
L 164.948638 174.559268 
L 166.862349 174.559268 
L 166.862349 174.119746 
L 167.555679 174.119746 
L 167.555679 173.680224 
L 167.902688 173.680224 
L 167.913096 172.80118 
L 169.748427 172.80118 
L 169.748427 172.361658 
L 170.210544 172.361658 
L 170.210544 171.922136 
L 173.041565 171.922136 
L 173.041565 171.482614 
L 173.718386 171.482614 
L 173.718386 170.60357 
L 173.889107 170.60357 
L 173.889107 170.164048 
L 174.094709 170.164048 
L 174.094709 169.285004 
L 174.73962 169.285004 
L 174.73962 168.845482 
L 175.503506 168.845482 
L 175.503506 168.40596 
L 176.383205 168.40596 
L 176.383205 167.526916 
L 177.042792 167.526916 
L 177.042792 166.647872 
L 177.678338 166.647872 
L 177.678338 166.20835 
L 178.25132 166.20835 
L 178.25132 165.329306 
L 179.327506 165.329306 
L 179.327506 164.889784 
L 179.733711 164.889784 
L 179.733711 164.450262 
L 181.080356 164.450262 
L 181.080356 164.01074 
L 181.803604 164.01074 
L 181.803604 163.571217 
L 182.673003 163.571217 
L 182.673003 162.692173 
L 182.894767 162.692173 
L 182.894767 162.252651 
L 183.100685 162.252651 
L 183.100685 161.813129 
L 183.526631 161.813129 
L 183.526631 161.373607 
L 183.70424 161.373607 
L 183.70424 160.934085 
L 184.469749 160.934085 
L 184.469749 160.055041 
L 184.689818 160.055041 
L 184.697769 159.175997 
L 185.187613 159.175997 
L 185.187613 158.736475 
L 185.509225 158.736475 
L 185.509225 158.296953 
L 186.490213 158.296953 
L 186.490213 157.857431 
L 186.739451 157.857431 
L 186.750054 156.978387 
L 189.093754 156.978387 
L 189.093754 156.099343 
L 189.241389 156.099343 
L 189.241389 155.659821 
L 190.73173 155.659821 
L 190.73173 155.220299 
L 191.729 155.220299 
L 191.729 154.780777 
L 192.976567 154.780777 
L 192.976567 154.341255 
L 193.319292 154.341255 
L 193.319292 153.901733 
L 193.650656 153.901733 
L 193.650656 153.462211 
L 194.488831 153.462211 
L 194.529588 151.704123 
L 195.208262 151.704123 
L 195.208262 151.264601 
L 195.383576 151.264601 
L 195.383576 150.385557 
L 195.540079 150.385557 
L 195.540079 149.506513 
L 195.800641 149.506513 
L 195.800641 149.066991 
L 197.008872 149.066991 
L 197.008872 148.187947 
L 197.857028 148.187947 
L 197.857028 147.748425 
L 198.40159 147.748425 
L 198.448621 146.869381 
L 199.04002 146.869381 
L 199.04002 146.429859 
L 199.236232 146.429859 
L 199.236232 145.990337 
L 200.009637 145.990337 
L 200.096962 144.232249 
L 202.233541 144.232249 
L 202.233541 143.792727 
L 202.836581 143.792727 
L 202.836581 143.353205 
L 203.623387 143.353205 
L 203.623387 142.913682 
L 203.742473 142.913682 
L 203.840873 142.034638 
L 204.050439 142.034638 
L 204.050439 141.155594 
L 205.677886 141.155594 
L 205.677886 140.716072 
L 205.793265 140.716072 
L 205.793265 140.27655 
L 208.189844 140.27655 
L 208.189844 139.837028 
L 209.631059 139.837028 
L 209.631059 139.397506 
L 210.378737 139.397506 
L 210.378737 138.957984 
L 213.349087 138.957984 
L 213.349087 138.518462 
L 214.163052 138.518462 
L 214.163052 137.639418 
L 214.69553 137.639418 
L 214.69553 137.199896 
L 215.959332 137.199896 
L 215.959332 136.760374 
L 216.732179 136.760374 
L 216.732179 136.320852 
L 217.372418 136.320852 
L 217.372418 135.88133 
L 218.511117 135.88133 
L 218.511117 135.441808 
L 218.766522 135.441808 
L 218.793545 133.68372 
L 218.898987 133.68372 
L 218.898987 133.244198 
L 220.173674 133.244198 
L 220.173674 132.365154 
L 220.475109 132.365154 
L 220.475109 131.925632 
L 221.119986 131.925632 
L 221.119986 131.48611 
L 222.556725 131.48611 
L 222.667448 129.728022 
L 222.994134 129.728022 
L 222.994134 128.848978 
L 224.089548 128.848978 
L 224.089548 128.409456 
L 224.707528 128.409456 
L 224.707528 127.969934 
L 225.267914 127.969934 
L 225.267914 127.530412 
L 225.4063 127.530412 
L 225.4063 127.09089 
L 225.691189 127.09089 
L 225.691189 126.211846 
L 227.484036 126.211846 
L 227.484036 125.772324 
L 227.884747 125.772324 
L 227.884747 125.332802 
L 228.154867 125.332802 
L 228.154867 124.453758 
L 228.584959 124.453758 
L 228.584959 124.014236 
L 229.245476 124.014236 
L 229.245476 123.135192 
L 229.837745 123.135192 
L 229.897666 121.816625 
L 231.073709 121.816625 
L 231.073709 121.377103 
L 231.844549 121.377103 
L 231.844549 120.498059 
L 231.964708 120.498059 
L 231.964708 120.058537 
L 232.957074 120.058537 
L 232.957074 119.619015 
L 233.630622 119.619015 
L 233.630622 119.179493 
L 234.195817 119.179493 
L 234.195817 118.739971 
L 234.321199 118.739971 
L 234.321199 118.300449 
L 234.57885 118.300449 
L 234.57885 117.860927 
L 235.920077 117.860927 
L 235.99891 116.542361 
L 236.639727 116.542361 
L 236.639727 116.102839 
L 237.076383 116.102839 
L 237.180185 114.784273 
L 338.688 114.784273 
L 338.688 114.784273 
" style="fill:none;stroke:#000080;stroke-linecap:square;stroke-width:1.5;"/>
   </g>
   <g id="line2d_44">
    <defs>
     <path d="M 0 6 
C 1.591219 6 3.117479 5.367802 4.242641 4.242641 
C 5.367802 3.117479 6 1.591219 6 0 
C 6 -1.591219 5.367802 -3.117479 4.242641 -4.242641 
C 3.117479 -5.367802 1.591219 -6 0 -6 
C -1.591219 -6 -3.117479 -5.367802 -4.242641 -4.242641 
C -5.367802 -3.117479 -6 -1.591219 -6 0 
C -6 1.591219 -5.367802 3.117479 -4.242641 4.242641 
C -3.117479 5.367802 -1.591219 6 0 6 
z
" id="m5c4894d785" style="stroke:#000080;stroke-width:1.5;"/>
    </defs>
    <g>
     <use style="fill-opacity:0;stroke:#000080;stroke-width:1.5;" x="120.571812" xlink:href="#m5c4894d785" y="231.697131"/>
     <use style="fill-opacity:0;stroke:#000080;stroke-width:1.5;" x="185.509225" xlink:href="#m5c4894d785" y="158.296953"/>
     <use style="fill-opacity:0;stroke:#000080;stroke-width:1.5;" x="236.639727" xlink:href="#m5c4894d785" y="116.542361"/>
     <use style="fill-opacity:0;stroke:#000080;stroke-width:1.5;" x="237.180185" xlink:href="#m5c4894d785" y="114.784273"/>
     <use style="fill-opacity:0;stroke:#000080;stroke-width:1.5;" x="237.180185" xlink:href="#m5c4894d785" y="114.784273"/>
     <use style="fill-opacity:0;stroke:#000080;stroke-width:1.5;" x="338.688" xlink:href="#m5c4894d785" y="114.784273"/>
    </g>
   </g>
   <g id="line2d_45">
    <path style="fill:none;stroke:#000080;stroke-linecap:square;stroke-width:1.5;"/>
    <g/>
   </g>
   <g id="line2d_46">
    <path clip-path="url(#pd6c37f9373)" d="M 239.218309 114.784273 
" style="fill:none;stroke:#000080;stroke-linecap:square;stroke-width:1.5;"/>
    <defs>
     <path d="M -12 12 
L 12 -12 
M -12 -12 
L 12 12 
" id="m1d482adde6" style="stroke:#000080;"/>
    </defs>
    <g clip-path="url(#pd6c37f9373)">
     <use style="fill:#000080;stroke:#000080;" x="239.218309" xlink:href="#m1d482adde6" y="114.784273"/>
    </g>
   </g>
   <g id="line2d_47">
    <defs>
     <path d="M 0 1.5 
C 0.397805 1.5 0.77937 1.341951 1.06066 1.06066 
C 1.341951 0.77937 1.5 0.397805 1.5 0 
C 1.5 -0.397805 1.341951 -0.77937 1.06066 -1.06066 
C 0.77937 -1.341951 0.397805 -1.5 0 -1.5 
C -0.397805 -1.5 -0.77937 -1.341951 -1.06066 -1.06066 
C -1.341951 -0.77937 -1.5 -0.397805 -1.5 0 
C -1.5 0.397805 -1.341951 0.77937 -1.06066 1.06066 
C -0.77937 1.341951 -0.397805 1.5 0 1.5 
z
" id="m4b31352082" style="stroke:#ff00ff;"/>
    </defs>
    <g>
     <use style="fill:#ff00ff;stroke:#ff00ff;" x="257.96951" xlink:href="#m4b31352082" y="139.397506"/>
     <use style="fill:#ff00ff;stroke:#ff00ff;" x="257.96951" xlink:href="#m4b31352082" y="139.397506"/>
    </g>
   </g>
   <g id="line2d_48">
    <path d="M 38.440992 298.944 
L 38.440992 294.54878 
L 115.502395 294.54878 
L 115.502395 291.472126 
L 128.807571 291.472126 
L 128.807571 291.032604 
L 132.501978 291.032604 
L 132.501978 290.593082 
L 132.971225 290.593082 
L 132.971225 290.15356 
L 133.652238 290.15356 
L 133.652238 289.714038 
L 135.00812 289.714038 
L 135.00812 288.834994 
L 135.415281 288.834994 
L 135.415281 288.395471 
L 135.548916 288.395471 
L 135.548916 287.076905 
L 135.943785 287.076905 
L 135.943785 286.197861 
L 136.456742 286.197861 
L 136.456742 284.000251 
L 137.968891 284.000251 
L 137.968891 283.121207 
L 138.256201 283.121207 
L 138.256201 280.923597 
L 138.482688 280.923597 
L 138.482688 280.484075 
L 139.678372 280.484075 
L 139.730821 279.165509 
L 142.927826 279.165509 
L 142.927826 278.725987 
L 143.273169 278.725987 
L 143.31586 276.088855 
L 143.44331 276.088855 
L 143.44331 274.770289 
L 143.861538 274.770289 
L 143.861538 273.012201 
L 144.107744 273.012201 
L 144.107744 271.254113 
L 144.550287 271.254113 
L 144.550287 270.375069 
L 145.212864 270.375069 
L 145.212864 269.935547 
L 145.553708 269.935547 
L 145.553708 269.496025 
L 145.777292 269.496025 
L 145.777292 268.616981 
L 145.998045 268.616981 
L 145.998045 266.858892 
L 146.395642 266.858892 
L 146.395642 266.41937 
L 147.061745 266.41937 
L 147.061745 264.22176 
L 147.50327 264.22176 
L 147.50327 263.342716 
L 148.096724 263.342716 
L 148.096724 262.903194 
L 148.258051 262.903194 
L 148.258051 262.463672 
L 148.826773 262.463672 
L 148.826773 262.02415 
L 150.05688 262.02415 
L 150.05688 261.145106 
L 150.172372 261.145106 
L 150.172372 260.705584 
L 150.344189 260.705584 
L 150.344189 259.82654 
L 150.486088 259.82654 
L 150.486088 258.507974 
L 150.626842 258.507974 
L 150.626842 257.62893 
L 150.738632 257.62893 
L 150.79426 255.870842 
L 151.501723 255.870842 
L 151.501723 254.991798 
L 151.818809 254.991798 
L 151.818809 254.552276 
L 152.835965 254.552276 
L 152.835965 253.673232 
L 152.983548 253.673232 
L 153.056874 251.915144 
L 153.129893 251.915144 
L 153.226778 250.157056 
L 153.347132 250.157056 
L 153.442821 248.398968 
L 153.537988 248.398968 
L 153.632638 246.201357 
L 153.913546 246.201357 
L 153.913546 245.761835 
L 154.439623 245.761835 
L 154.439623 245.322313 
L 155.253971 245.322313 
L 155.361158 244.003747 
L 155.425155 244.003747 
L 155.425155 243.124703 
L 155.657823 243.124703 
L 155.699795 241.366615 
L 156.236431 241.366615 
L 156.236431 240.927093 
L 156.658127 240.927093 
L 156.658127 240.048049 
L 156.796456 240.048049 
L 156.796456 239.169005 
L 157.1279 239.169005 
L 157.1279 238.289961 
L 157.660438 238.289961 
L 157.660438 237.850439 
L 157.957601 237.850439 
L 157.976006 236.531873 
L 158.784773 236.531873 
L 158.784773 235.652829 
L 158.994256 235.652829 
L 158.994256 235.213307 
L 159.115303 235.213307 
L 159.132527 234.334263 
L 159.439685 234.334263 
L 159.439685 233.894741 
L 159.774744 233.894741 
L 159.857512 232.576175 
L 159.89051 232.576175 
L 159.89051 232.136653 
L 160.36209 232.136653 
L 160.36209 231.697131 
L 160.961329 231.697131 
L 160.961329 230.818087 
L 161.299072 230.818087 
L 161.39006 228.180955 
L 161.630398 228.180955 
L 161.689969 226.862389 
L 161.911563 226.862389 
L 161.911563 226.422867 
L 162.403659 226.422867 
L 162.503271 225.1043 
L 162.588203 225.1043 
L 162.588203 224.664778 
L 163.103002 224.664778 
L 163.130401 223.785734 
L 163.225959 223.785734 
L 163.225959 222.90669 
L 164.269589 222.90669 
L 164.333587 220.70908 
L 164.42279 220.70908 
L 164.42279 220.269558 
L 164.562052 220.269558 
L 164.562052 219.830036 
L 164.899235 219.830036 
L 164.899235 219.390514 
L 165.471066 219.390514 
L 165.494988 218.51147 
L 166.036331 218.51147 
L 166.036331 217.632426 
L 166.277988 217.632426 
L 166.380539 216.753382 
L 166.994465 216.753382 
L 166.994465 216.31386 
L 168.13025 216.31386 
L 168.13025 215.874338 
L 168.242927 215.874338 
L 168.253135 214.555772 
L 168.546579 214.555772 
L 168.546579 214.11625 
L 168.845033 214.11625 
L 168.845033 213.676728 
L 169.244833 213.676728 
L 169.264103 212.358162 
L 169.99949 212.358162 
L 169.99949 211.479118 
L 170.696249 211.479118 
L 170.696249 210.600074 
L 171.400348 210.600074 
L 171.400348 210.160552 
L 171.779569 210.160552 
L 171.779569 209.72103 
L 172.003206 209.72103 
L 172.003206 209.281508 
L 172.199614 209.281508 
L 172.199614 208.841986 
L 174.31234 208.841986 
L 174.31234 208.402464 
L 176.144704 208.402464 
L 176.144704 207.52342 
L 176.894213 207.52342 
L 176.894213 207.083898 
L 179.027527 207.083898 
L 179.027527 206.644376 
L 179.267922 206.644376 
L 179.267922 206.204854 
L 179.585155 206.204854 
L 179.585155 205.325809 
L 180.898464 205.325809 
L 180.898464 204.446765 
L 182.380429 204.446765 
L 182.403109 203.128199 
L 182.978303 203.128199 
L 182.978303 202.688677 
L 184.299805 202.688677 
L 184.299805 201.809633 
L 184.485848 201.809633 
L 184.485848 200.930589 
L 186.714687 200.930589 
L 186.714687 200.491067 
L 187.268693 200.491067 
L 187.268693 200.051545 
L 188.30394 200.051545 
L 188.30394 199.612023 
L 188.772672 199.612023 
L 188.772672 199.172501 
L 190.03177 199.172501 
L 190.03177 198.732979 
L 192.122858 198.732979 
L 192.122858 198.293457 
L 193.707647 198.293457 
L 193.707647 197.853935 
L 194.242271 197.853935 
L 194.242271 196.974891 
L 194.982756 196.974891 
L 194.982756 196.535369 
L 197.637001 196.535369 
L 197.637001 195.656325 
L 199.237959 195.656325 
L 199.237959 195.216803 
L 199.751717 195.216803 
L 199.751717 194.337759 
L 200.240994 194.337759 
L 200.240994 193.458715 
L 200.939138 193.458715 
L 200.939138 193.019193 
L 201.574202 193.019193 
L 201.574202 192.579671 
L 201.926976 192.579671 
L 201.926976 192.140149 
L 202.529092 192.140149 
L 202.529092 191.261105 
L 202.856234 191.261105 
L 202.856234 190.821583 
L 204.34018 190.821583 
L 204.34018 190.382061 
L 205.070735 190.382061 
L 205.070735 189.503017 
L 206.914694 189.503017 
L 206.914694 189.063495 
L 207.25269 189.063495 
L 207.25269 188.623973 
L 208.505236 188.623973 
L 208.603395 187.305407 
L 208.70602 187.305407 
L 208.70602 186.865885 
L 209.499275 186.865885 
L 209.499275 186.426363 
L 209.685202 186.426363 
L 209.775068 185.547319 
L 210.282774 185.547319 
L 210.282774 184.668274 
L 210.525767 184.668274 
L 210.538416 183.78923 
L 210.936627 183.78923 
L 210.936627 183.349708 
L 211.658558 183.349708 
L 211.658558 182.470664 
L 212.173442 182.470664 
L 212.173442 182.031142 
L 212.643169 182.031142 
L 212.643169 181.152098 
L 212.861123 181.152098 
L 212.861123 180.712576 
L 213.128622 180.712576 
L 213.128622 180.273054 
L 213.35293 180.273054 
L 213.35293 179.833532 
L 213.606988 179.833532 
L 213.660681 178.514966 
L 213.920744 178.514966 
L 213.920744 178.075444 
L 214.749526 178.075444 
L 214.749526 177.635922 
L 215.160343 177.635922 
L 215.171425 176.317356 
L 215.849786 176.317356 
L 215.920903 174.99879 
L 216.689707 174.99879 
L 216.689707 174.119746 
L 217.960504 174.119746 
L 217.960504 173.680224 
L 218.304065 173.680224 
L 218.304065 173.240702 
L 219.485098 173.240702 
L 219.485098 172.80118 
L 220.132044 172.80118 
L 220.132044 171.922136 
L 220.249911 171.922136 
L 220.249911 171.482614 
L 220.44392 171.482614 
L 220.44392 171.043092 
L 220.953784 171.043092 
L 220.953784 170.60357 
L 221.622695 170.60357 
L 221.622695 170.164048 
L 222.014775 170.164048 
L 222.014775 169.724526 
L 222.413783 169.724526 
L 222.413783 169.285004 
L 224.316847 169.285004 
L 224.316847 168.845482 
L 225.072388 168.845482 
L 225.110416 167.526916 
L 225.254326 167.526916 
L 225.302033 166.647872 
L 226.159463 166.647872 
L 226.159463 165.768828 
L 226.439662 165.768828 
L 226.439662 165.329306 
L 227.084745 165.329306 
L 227.170558 163.571217 
L 227.230308 163.571217 
L 227.230308 162.692173 
L 228.045666 162.692173 
L 228.045666 162.252651 
L 229.952933 162.252651 
L 229.952933 161.813129 
L 230.394079 161.813129 
L 230.394079 161.373607 
L 231.180211 161.373607 
L 231.180211 160.934085 
L 232.565652 160.934085 
L 232.586326 158.736475 
L 233.11864 158.736475 
L 233.220032 156.978387 
L 233.232081 156.978387 
L 233.232081 156.099343 
L 235.732605 156.099343 
L 235.732605 155.659821 
L 236.032228 155.659821 
L 236.032228 155.220299 
L 236.321438 155.220299 
L 236.321438 154.780777 
L 236.60755 154.780777 
L 236.60755 153.901733 
L 238.397987 153.901733 
L 238.439249 153.022689 
L 239.702268 153.022689 
L 239.702268 152.143645 
L 242.578123 152.143645 
L 242.578123 151.264601 
L 243.408374 151.264601 
L 243.408374 150.385557 
L 246.420153 150.385557 
L 246.420153 149.506513 
L 246.644526 149.506513 
L 246.644526 149.066991 
L 247.923688 149.066991 
L 247.923688 148.627469 
L 248.328421 148.627469 
L 248.328421 148.187947 
L 250.475828 148.187947 
L 250.475828 147.748425 
L 250.920137 147.748425 
L 250.920137 146.869381 
L 251.950065 146.869381 
L 251.950065 146.429859 
L 252.281112 146.429859 
L 252.383386 145.111293 
L 252.455945 145.111293 
L 252.455945 144.671771 
L 252.653919 144.671771 
L 252.653919 144.232249 
L 253.330308 144.232249 
L 253.330308 143.792727 
L 254.073271 143.792727 
L 254.073271 142.913682 
L 254.973558 142.913682 
L 254.973558 142.034638 
L 255.800083 142.034638 
L 255.800083 141.155594 
L 256.18273 141.155594 
L 256.18273 140.716072 
L 256.677409 140.716072 
L 256.677409 140.27655 
L 257.96951 140.27655 
L 257.96951 139.397506 
L 338.688 139.397506 
L 338.688 139.397506 
" style="fill:none;stroke:#ff00ff;stroke-linecap:square;stroke-width:1.5;"/>
   </g>
   <g id="line2d_49">
    <defs>
     <path d="M 0 8.485281 
L 5.091169 0 
L 0 -8.485281 
L -5.091169 0 
z
" id="m3704c8b9bc" style="stroke:#ff00ff;stroke-linejoin:miter;stroke-width:1.5;"/>
    </defs>
    <g>
     <use style="fill-opacity:0;stroke:#ff00ff;stroke-linejoin:miter;stroke-width:1.5;" x="133.652238" xlink:href="#m3704c8b9bc" y="290.15356"/>
     <use style="fill-opacity:0;stroke:#ff00ff;stroke-linejoin:miter;stroke-width:1.5;" x="199.751717" xlink:href="#m3704c8b9bc" y="194.337759"/>
     <use style="fill-opacity:0;stroke:#ff00ff;stroke-linejoin:miter;stroke-width:1.5;" x="242.578123" xlink:href="#m3704c8b9bc" y="151.264601"/>
     <use style="fill-opacity:0;stroke:#ff00ff;stroke-linejoin:miter;stroke-width:1.5;" x="257.96951" xlink:href="#m3704c8b9bc" y="139.397506"/>
     <use style="fill-opacity:0;stroke:#ff00ff;stroke-linejoin:miter;stroke-width:1.5;" x="257.96951" xlink:href="#m3704c8b9bc" y="139.397506"/>
     <use style="fill-opacity:0;stroke:#ff00ff;stroke-linejoin:miter;stroke-width:1.5;" x="338.688" xlink:href="#m3704c8b9bc" y="139.397506"/>
    </g>
   </g>
   <g id="line2d_50">
    <path style="fill:none;stroke:#ff00ff;stroke-linecap:square;stroke-width:1.5;"/>
    <g/>
   </g>
   <g id="line2d_51">
    <path clip-path="url(#pd6c37f9373)" d="M 258.383652 139.397506 
" style="fill:none;stroke:#ff00ff;stroke-linecap:square;stroke-width:1.5;"/>
    <defs>
     <path d="M -12 12 
L 12 -12 
M -12 -12 
L 12 12 
" id="mcbe962810f" style="stroke:#ff00ff;"/>
    </defs>
    <g clip-path="url(#pd6c37f9373)">
     <use style="fill:#ff00ff;stroke:#ff00ff;" x="258.383652" xlink:href="#mcbe962810f" y="139.397506"/>
    </g>
   </g>
   <g id="line2d_52">
    <defs>
     <path d="M 0 1.5 
C 0.397805 1.5 0.77937 1.341951 1.06066 1.06066 
C 1.341951 0.77937 1.5 0.397805 1.5 0 
C 1.5 -0.397805 1.341951 -0.77937 1.06066 -1.06066 
C 0.77937 -1.341951 0.397805 -1.5 0 -1.5 
C -0.397805 -1.5 -0.77937 -1.341951 -1.06066 -1.06066 
C -1.341951 -0.77937 -1.5 -0.397805 -1.5 0 
C -1.5 0.397805 -1.341951 0.77937 -1.06066 1.06066 
C -0.77937 1.341951 -0.397805 1.5 0 1.5 
z
" id="m774728e53b" style="stroke:#ffa500;"/>
    </defs>
    <g>
     <use style="fill:#ffa500;stroke:#ffa500;" x="259.903257" xlink:href="#m774728e53b" y="74.787769"/>
     <use style="fill:#ffa500;stroke:#ffa500;" x="259.903257" xlink:href="#m774728e53b" y="74.787769"/>
    </g>
   </g>
   <g id="line2d_53">
    <path d="M 38.440992 298.944 
L 38.440992 295.427824 
L 50.52898 295.427824 
L 50.52898 292.790692 
L 57.6 292.790692 
L 57.6 290.593082 
L 62.616969 290.593082 
L 62.616969 289.714038 
L 66.508432 289.714038 
L 66.508432 288.834994 
L 69.687988 288.834994 
L 69.687988 282.681685 
L 72.376266 282.681685 
L 72.376266 281.363119 
L 76.759008 281.363119 
L 76.759008 280.923597 
L 78.59642 280.923597 
L 78.59642 280.484075 
L 80.258561 280.484075 
L 80.258561 279.165509 
L 81.775977 279.165509 
L 81.775977 278.725987 
L 83.171864 278.725987 
L 83.171864 278.286465 
L 84.464254 278.286465 
L 84.464254 277.407421 
L 86.792945 277.407421 
L 86.792945 276.528377 
L 87.850195 276.528377 
L 87.850195 275.649333 
L 89.78989 275.649333 
L 89.78989 274.330767 
L 90.684409 274.330767 
L 90.684409 272.133157 
L 91.535274 272.133157 
L 91.535274 271.693635 
L 95.259853 271.693635 
L 95.259853 269.935547 
L 97.755429 269.935547 
L 97.755429 267.737936 
L 99.938184 267.737936 
L 99.938184 266.41937 
L 100.934985 266.41937 
L 100.934985 265.100804 
L 101.877879 265.100804 
L 101.877879 264.661282 
L 102.772397 264.661282 
L 102.772397 262.463672 
L 104.033617 262.463672 
L 104.033617 261.584628 
L 105.584798 261.584628 
L 105.584798 260.705584 
L 107.347841 260.705584 
L 107.347841 259.82654 
L 117.107138 259.82654 
L 117.107138 258.507974 
L 118.399528 258.507974 
L 118.399528 258.068452 
L 118.576578 258.068452 
L 118.576578 257.189408 
L 121.489881 257.189408 
L 121.489881 256.310364 
L 121.638301 256.310364 
L 121.638301 253.673232 
L 122.782271 253.673232 
L 122.782271 252.354666 
L 124.494669 252.354666 
L 124.494669 251.915144 
L 124.619683 251.915144 
L 124.619683 251.475622 
L 128.610515 251.475622 
L 128.610515 250.596578 
L 134.307653 250.596578 
L 134.307653 249.717534 
L 134.870259 249.717534 
L 134.870259 248.398968 
L 138.426341 248.398968 
L 138.426341 247.959446 
L 138.761723 247.959446 
L 138.761723 247.080402 
L 139.520072 247.080402 
L 139.520072 246.640879 
L 140.297583 246.640879 
L 140.297583 245.761835 
L 140.549236 245.761835 
L 140.549236 245.322313 
L 141.235139 245.322313 
L 141.235139 244.882791 
L 142.033307 244.882791 
L 142.124852 243.564225 
L 142.840411 243.564225 
L 142.840411 243.124703 
L 143.230373 243.124703 
L 143.230373 242.245659 
L 143.653678 242.245659 
L 143.653678 241.806137 
L 144.669057 241.806137 
L 144.747789 239.608527 
L 145.777292 239.608527 
L 145.777292 239.169005 
L 146.143677 239.169005 
L 146.143677 238.729483 
L 148.225905 238.729483 
L 148.225905 238.289961 
L 148.950676 238.289961 
L 148.950676 237.850439 
L 150.027887 237.850439 
L 150.027887 237.410917 
L 150.429467 237.410917 
L 150.429467 236.531873 
L 152.25837 236.531873 
L 152.25837 234.773785 
L 154.641235 234.773785 
L 154.641235 233.015697 
L 155.146121 233.015697 
L 155.146121 232.576175 
L 155.382516 232.576175 
L 155.382516 232.136653 
L 155.845906 232.136653 
L 155.908152 230.818087 
L 156.073064 230.818087 
L 156.073064 229.939043 
L 159.624763 229.939043 
L 159.624763 229.059999 
L 162.68677 229.059999 
L 162.68677 228.620477 
L 163.775378 228.620477 
L 163.775378 227.741433 
L 164.9363 227.741433 
L 165.034758 226.422867 
L 165.059286 226.422867 
L 165.059286 225.983344 
L 165.314766 225.983344 
L 165.314766 225.1043 
L 165.494988 225.1043 
L 165.494988 224.664778 
L 165.697012 224.664778 
L 165.791279 223.346212 
L 166.437252 223.346212 
L 166.437252 222.027646 
L 166.917519 222.027646 
L 166.917519 221.148602 
L 169.302579 221.148602 
L 169.321786 219.830036 
L 170.482048 219.830036 
L 170.499999 217.192904 
L 170.669617 217.192904 
L 170.669617 216.753382 
L 170.846398 216.753382 
L 170.846398 216.31386 
L 171.425887 216.31386 
L 171.536129 212.797684 
L 171.54458 212.797684 
L 171.54458 212.358162 
L 171.796233 212.358162 
L 171.796233 211.91864 
L 172.377733 211.91864 
L 172.377733 211.479118 
L 173.00275 211.479118 
L 173.049317 210.160552 
L 173.310873 210.160552 
L 173.310873 209.72103 
L 174.072796 209.72103 
L 174.072796 209.281508 
L 175.225232 209.281508 
L 175.225232 208.841986 
L 175.341154 208.841986 
L 175.341154 208.402464 
L 176.209486 208.402464 
L 176.209486 207.52342 
L 176.775685 207.52342 
L 176.775685 207.083898 
L 176.968661 207.083898 
L 176.968661 206.204854 
L 177.378584 206.204854 
L 177.438948 204.886287 
L 178.234056 204.886287 
L 178.325932 203.567721 
L 180.473278 203.567721 
L 180.473278 203.128199 
L 180.61951 203.128199 
L 180.61951 202.688677 
L 182.92119 202.688677 
L 183.017734 201.370111 
L 183.471289 201.370111 
L 183.471289 200.930589 
L 184.02523 200.930589 
L 184.02523 200.491067 
L 184.606119 200.491067 
L 184.606119 200.051545 
L 185.68662 200.051545 
L 185.76904 198.732979 
L 186.058157 198.732979 
L 186.058157 198.293457 
L 186.465092 198.293457 
L 186.561788 196.535369 
L 188.368458 196.535369 
L 188.455181 194.777281 
L 188.741181 194.777281 
L 188.741181 193.898237 
L 189.275047 193.898237 
L 189.275047 193.458715 
L 189.650035 193.458715 
L 189.650035 193.019193 
L 189.926077 193.019193 
L 189.95256 192.140149 
L 190.09313 192.140149 
L 190.09313 191.700627 
L 190.759826 191.700627 
L 190.759826 191.261105 
L 191.26615 191.261105 
L 191.26615 190.821583 
L 191.657151 190.821583 
L 191.657151 189.942539 
L 191.792618 189.942539 
L 191.792618 189.503017 
L 192.02653 189.503017 
L 192.02653 188.623973 
L 192.288234 188.623973 
L 192.288234 187.744929 
L 192.621925 187.744929 
L 192.621925 187.305407 
L 193.343517 187.305407 
L 193.343517 186.426363 
L 193.456924 186.426363 
L 193.456924 185.986841 
L 194.340856 185.986841 
L 194.340856 185.547319 
L 194.599557 185.547319 
L 194.617568 184.668274 
L 194.876661 184.668274 
L 194.967323 182.910186 
L 195.366339 182.910186 
L 195.366339 182.031142 
L 195.84474 182.031142 
L 195.84474 181.59162 
L 196.383727 181.59162 
L 196.389827 180.273054 
L 196.59193 180.273054 
L 196.59193 179.833532 
L 198.186535 179.833532 
L 198.186535 178.954488 
L 199.229324 178.954488 
L 199.229324 178.075444 
L 199.840339 178.075444 
L 199.938467 176.756878 
L 200.370908 176.756878 
L 200.370908 175.877834 
L 200.827594 175.877834 
L 200.827594 175.438312 
L 201.323251 175.438312 
L 201.323251 174.99879 
L 201.593822 174.99879 
L 201.593822 174.119746 
L 202.127075 174.119746 
L 202.127075 173.240702 
L 202.253885 173.240702 
L 202.253885 172.80118 
L 202.630297 172.80118 
L 202.691306 171.922136 
L 203.07374 171.922136 
L 203.07374 171.482614 
L 203.456103 171.482614 
L 203.456103 171.043092 
L 203.644856 171.043092 
L 203.644856 170.164048 
L 204.594735 170.164048 
L 204.594735 169.285004 
L 204.875644 169.285004 
L 204.875644 168.845482 
L 205.489507 168.845482 
L 205.489507 167.966438 
L 205.903173 167.966438 
L 205.916127 166.20835 
L 206.617576 166.20835 
L 206.617576 165.329306 
L 206.731415 165.329306 
L 206.810998 164.450262 
L 206.910247 164.450262 
L 206.910247 163.571217 
L 207.720663 163.571217 
L 207.720663 163.131695 
L 208.461545 163.131695 
L 208.542743 162.252651 
L 209.034951 162.252651 
L 209.034951 161.813129 
L 209.174184 161.813129 
L 209.265744 160.494563 
L 209.418569 160.494563 
L 209.418569 160.055041 
L 209.67951 160.055041 
L 209.67951 159.615519 
L 209.934736 159.615519 
L 209.934736 159.175997 
L 210.645557 159.175997 
L 210.645557 158.736475 
L 210.819715 158.736475 
L 210.819715 158.296953 
L 210.979827 158.296953 
L 211.069413 156.538865 
L 211.42923 156.538865 
L 211.42923 156.099343 
L 212.062904 156.099343 
L 212.062904 155.659821 
L 212.466984 155.659821 
L 212.466984 155.220299 
L 212.624749 155.220299 
L 212.728607 153.901733 
L 213.123172 153.901733 
L 213.169832 152.583167 
L 213.905115 152.583167 
L 213.905115 152.143645 
L 215.156879 152.143645 
L 215.156879 151.704123 
L 215.715403 151.704123 
L 215.718759 150.825079 
L 215.827127 150.825079 
L 215.827127 150.385557 
L 216.100392 150.385557 
L 216.100392 149.946035 
L 216.496329 149.946035 
L 216.496329 149.506513 
L 217.053994 149.506513 
L 217.053994 149.066991 
L 217.316178 149.066991 
L 217.316178 148.187947 
L 218.143644 148.187947 
L 218.143644 147.308903 
L 218.267577 147.308903 
L 218.361827 143.792727 
L 218.399845 143.792727 
L 218.490522 140.27655 
L 218.528261 140.27655 
L 218.528261 139.397506 
L 218.679537 139.397506 
L 218.763141 136.760374 
L 218.810976 136.760374 
L 218.851393 135.002286 
L 218.998791 135.002286 
L 219.084755 131.925632 
L 219.136683 131.925632 
L 219.136683 131.48611 
L 219.286075 131.48611 
L 219.379344 129.2885 
L 219.770928 129.2885 
L 219.876455 127.530412 
L 219.923972 127.530412 
L 220.032773 126.651368 
L 220.360817 126.651368 
L 220.422412 124.014236 
L 220.480217 124.014236 
L 220.480217 123.135192 
L 220.777951 123.135192 
L 220.777951 122.256147 
L 220.97812 122.256147 
L 220.97812 121.816625 
L 221.097326 121.816625 
L 221.175037 119.619015 
L 221.700962 119.619015 
L 221.700962 119.179493 
L 221.931329 119.179493 
L 222.016646 116.981883 
L 222.48631 116.981883 
L 222.48631 116.102839 
L 222.89837 116.102839 
L 222.95208 114.784273 
L 223.181913 114.784273 
L 223.181913 113.905229 
L 223.643765 113.905229 
L 223.647598 113.026185 
L 223.907146 113.026185 
L 223.980837 112.147141 
L 224.107808 112.147141 
L 224.17818 111.268097 
L 224.332824 111.268097 
L 224.332824 110.828575 
L 224.779916 110.828575 
L 224.779916 109.949531 
L 225.040569 109.949531 
L 225.040569 109.510009 
L 225.176083 109.510009 
L 225.176083 108.630965 
L 225.294284 108.630965 
L 225.294284 107.751921 
L 225.457817 107.751921 
L 225.466261 106.872877 
L 226.606149 106.872877 
L 226.642055 105.993833 
L 226.968258 105.993833 
L 226.980927 105.114789 
L 227.629707 105.114789 
L 227.629707 104.235745 
L 228.216915 104.235745 
L 228.216915 103.796223 
L 228.450317 103.796223 
L 228.450317 102.917179 
L 228.674572 102.917179 
L 228.722708 101.598612 
L 229.186987 101.598612 
L 229.186987 101.15909 
L 230.20446 101.15909 
L 230.20446 100.719568 
L 230.419514 100.719568 
L 230.458463 98.082436 
L 230.954233 98.082436 
L 230.954233 97.642914 
L 231.539802 97.642914 
L 231.539802 97.203392 
L 232.081944 97.203392 
L 232.081944 96.76387 
L 232.723783 96.76387 
L 232.723783 95.884826 
L 232.955326 95.884826 
L 232.955326 95.445304 
L 233.515399 95.445304 
L 233.515399 94.56626 
L 234.283748 94.56626 
L 234.283748 94.126738 
L 234.575437 94.126738 
L 234.575437 93.247694 
L 234.81076 93.247694 
L 234.910616 91.489606 
L 235.038739 91.489606 
L 235.038739 91.050084 
L 236.938403 91.050084 
L 236.938403 90.610562 
L 237.270898 90.610562 
L 237.33571 89.731518 
L 237.411505 89.731518 
L 237.510068 88.412952 
L 237.529291 88.412952 
L 237.529291 87.533908 
L 239.319163 87.533908 
L 239.382507 86.215342 
L 239.815711 86.215342 
L 239.815711 85.77582 
L 239.999603 85.77582 
L 239.999603 85.336298 
L 241.867553 85.336298 
L 241.867553 84.896776 
L 242.518186 84.896776 
L 242.591207 83.57821 
L 245.071263 83.57821 
L 245.150995 82.259644 
L 245.19252 82.259644 
L 245.241973 80.941078 
L 247.500554 80.941078 
L 247.500554 80.062033 
L 248.082494 80.062033 
L 248.082494 79.622511 
L 250.678213 79.622511 
L 250.678213 78.743467 
L 251.334961 78.743467 
L 251.334961 77.864423 
L 253.650416 77.864423 
L 253.650416 76.985379 
L 254.527121 76.985379 
L 254.527121 76.545857 
L 256.795878 76.545857 
L 256.856429 75.227291 
L 259.903257 75.227291 
L 259.903257 74.787769 
L 338.688 74.787769 
L 338.688 74.787769 
" style="fill:none;stroke:#ffa500;stroke-linecap:square;stroke-width:1.5;"/>
   </g>
   <g id="line2d_54">
    <defs>
     <path d="M 0 -6 
L -1.347084 -1.854102 
L -5.706339 -1.854102 
L -2.179628 0.708204 
L -3.526712 4.854102 
L -0 2.291796 
L 3.526712 4.854102 
L 2.179628 0.708204 
L 5.706339 -1.854102 
L 1.347084 -1.854102 
z
" id="m9686066065" style="stroke:#ffa500;stroke-linejoin:bevel;stroke-width:1.5;"/>
    </defs>
    <g>
     <use style="fill-opacity:0;stroke:#ffa500;stroke-linejoin:bevel;stroke-width:1.5;" x="107.347841" xlink:href="#m9686066065" y="260.705584"/>
     <use style="fill-opacity:0;stroke:#ffa500;stroke-linejoin:bevel;stroke-width:1.5;" x="166.917519" xlink:href="#m9686066065" y="221.148602"/>
     <use style="fill-opacity:0;stroke:#ffa500;stroke-linejoin:bevel;stroke-width:1.5;" x="219.360294" xlink:href="#m9686066065" y="130.167544"/>
     <use style="fill-opacity:0;stroke:#ffa500;stroke-linejoin:bevel;stroke-width:1.5;" x="259.903257" xlink:href="#m9686066065" y="75.227291"/>
     <use style="fill-opacity:0;stroke:#ffa500;stroke-linejoin:bevel;stroke-width:1.5;" x="259.903257" xlink:href="#m9686066065" y="74.787769"/>
     <use style="fill-opacity:0;stroke:#ffa500;stroke-linejoin:bevel;stroke-width:1.5;" x="338.688" xlink:href="#m9686066065" y="74.787769"/>
    </g>
   </g>
   <g id="line2d_55">
    <path style="fill:none;stroke:#ffa500;stroke-linecap:square;stroke-width:1.5;"/>
    <g/>
   </g>
   <g id="line2d_56">
    <path clip-path="url(#pd6c37f9373)" d="M 298.532571 74.787769 
" style="fill:none;stroke:#ffa500;stroke-linecap:square;stroke-width:1.5;"/>
    <defs>
     <path d="M -12 12 
L 12 -12 
M -12 -12 
L 12 12 
" id="mb579e29ed2" style="stroke:#ffa500;"/>
    </defs>
    <g clip-path="url(#pd6c37f9373)">
     <use style="fill:#ffa500;stroke:#ffa500;" x="298.532571" xlink:href="#mb579e29ed2" y="74.787769"/>
    </g>
   </g>
   <g id="line2d_57">
    <path d="M 338.688 139.397506 
L 369.60768 293.845545 
" style="fill:none;stroke:#ff00ff;stroke-linecap:square;stroke-width:1.5;"/>
    <g>
     <use style="fill-opacity:0;stroke:#ff00ff;stroke-linejoin:miter;stroke-width:1.5;" x="338.688" xlink:href="#m3704c8b9bc" y="139.397506"/>
     <use style="fill-opacity:0;stroke:#ff00ff;stroke-linejoin:miter;stroke-width:1.5;" x="369.60768" xlink:href="#m3704c8b9bc" y="293.845545"/>
    </g>
   </g>
   <g id="line2d_58">
    <path d="M 338.688 114.784273 
L 369.60768 212.270257 
" style="fill:none;stroke:#000080;stroke-linecap:square;stroke-width:1.5;"/>
    <g>
     <use style="fill-opacity:0;stroke:#000080;stroke-width:1.5;" x="338.688" xlink:href="#m5c4894d785" y="114.784273"/>
     <use style="fill-opacity:0;stroke:#000080;stroke-width:1.5;" x="369.60768" xlink:href="#m5c4894d785" y="212.270257"/>
    </g>
   </g>
   <g id="line2d_59">
    <path d="M 338.688 74.787769 
L 369.60768 130.69497 
" style="fill:none;stroke:#ffa500;stroke-linecap:square;stroke-width:1.5;"/>
    <g>
     <use style="fill-opacity:0;stroke:#ffa500;stroke-linejoin:bevel;stroke-width:1.5;" x="338.688" xlink:href="#m9686066065" y="74.787769"/>
     <use style="fill-opacity:0;stroke:#ffa500;stroke-linejoin:bevel;stroke-width:1.5;" x="369.60768" xlink:href="#m9686066065" y="130.69497"/>
    </g>
   </g>
   <g id="line2d_60">
    <path d="M 338.688 298.944 
L 338.688 44.021228 
" style="fill:none;stroke:#000000;stroke-linecap:square;stroke-width:1.5;"/>
   </g>
   <g id="patch_3">
    <path d="M 57.6 298.944 
L 57.6 41.472 
" style="fill:none;stroke:#000000;stroke-linecap:square;stroke-linejoin:miter;stroke-width:0.8;"/>
   </g>
   <g id="patch_4">
    <path d="M 338.688 298.944 
L 338.688 41.472 
" style="fill:none;stroke:#000000;stroke-linecap:square;stroke-linejoin:miter;stroke-width:0.8;"/>
   </g>
   <g id="patch_5">
    <path d="M 57.6 298.944 
L 338.688 298.944 
" style="fill:none;stroke:#000000;stroke-linecap:square;stroke-linejoin:miter;stroke-width:0.8;"/>
   </g>
   <g id="patch_6">
    <path d="M 57.6 41.472 
L 338.688 41.472 
" style="fill:none;stroke:#000000;stroke-linecap:square;stroke-linejoin:miter;stroke-width:0.8;"/>
   </g>
   <g id="text_13">
    <!-- NSGA-II-M -->
    <defs>
     <path d="M 9.8125 72.90625 
L 23.09375 72.90625 
L 55.421875 11.921875 
L 55.421875 72.90625 
L 64.984375 72.90625 
L 64.984375 0 
L 51.703125 0 
L 19.390625 60.984375 
L 19.390625 0 
L 9.8125 0 
z
" id="DejaVuSans-78"/>
     <path d="M 53.515625 70.515625 
L 53.515625 60.890625 
Q 47.90625 63.578125 42.921875 64.890625 
Q 37.9375 66.21875 33.296875 66.21875 
Q 25.25 66.21875 20.875 63.09375 
Q 16.5 59.96875 16.5 54.203125 
Q 16.5 49.359375 19.40625 46.890625 
Q 22.3125 44.4375 30.421875 42.921875 
L 36.375 41.703125 
Q 47.40625 39.59375 52.65625 34.296875 
Q 57.90625 29 57.90625 20.125 
Q 57.90625 9.515625 50.796875 4.046875 
Q 43.703125 -1.421875 29.984375 -1.421875 
Q 24.8125 -1.421875 18.96875 -0.25 
Q 13.140625 0.921875 6.890625 3.21875 
L 6.890625 13.375 
Q 12.890625 10.015625 18.65625 8.296875 
Q 24.421875 6.59375 29.984375 6.59375 
Q 38.421875 6.59375 43.015625 9.90625 
Q 47.609375 13.234375 47.609375 19.390625 
Q 47.609375 24.75 44.3125 27.78125 
Q 41.015625 30.8125 33.5 32.328125 
L 27.484375 33.5 
Q 16.453125 35.6875 11.515625 40.375 
Q 6.59375 45.0625 6.59375 53.421875 
Q 6.59375 63.09375 13.40625 68.65625 
Q 20.21875 74.21875 32.171875 74.21875 
Q 37.3125 74.21875 42.625 73.28125 
Q 47.953125 72.359375 53.515625 70.515625 
z
" id="DejaVuSans-83"/>
     <path d="M 59.515625 10.40625 
L 59.515625 29.984375 
L 43.40625 29.984375 
L 43.40625 38.09375 
L 69.28125 38.09375 
L 69.28125 6.78125 
Q 63.578125 2.734375 56.6875 0.65625 
Q 49.8125 -1.421875 42 -1.421875 
Q 24.90625 -1.421875 15.25 8.5625 
Q 5.609375 18.5625 5.609375 36.375 
Q 5.609375 54.25 15.25 64.234375 
Q 24.90625 74.21875 42 74.21875 
Q 49.125 74.21875 55.546875 72.453125 
Q 61.96875 70.703125 67.390625 67.28125 
L 67.390625 56.78125 
Q 61.921875 61.421875 55.765625 63.765625 
Q 49.609375 66.109375 42.828125 66.109375 
Q 29.4375 66.109375 22.71875 58.640625 
Q 16.015625 51.171875 16.015625 36.375 
Q 16.015625 21.625 22.71875 14.15625 
Q 29.4375 6.6875 42.828125 6.6875 
Q 48.046875 6.6875 52.140625 7.59375 
Q 56.25 8.5 59.515625 10.40625 
z
" id="DejaVuSans-71"/>
     <path d="M 34.1875 63.1875 
L 20.796875 26.90625 
L 47.609375 26.90625 
z
M 28.609375 72.90625 
L 39.796875 72.90625 
L 67.578125 0 
L 57.328125 0 
L 50.6875 18.703125 
L 17.828125 18.703125 
L 11.1875 0 
L 0.78125 0 
z
" id="DejaVuSans-65"/>
     <path d="M 9.8125 72.90625 
L 19.671875 72.90625 
L 19.671875 0 
L 9.8125 0 
z
" id="DejaVuSans-73"/>
     <path d="M 9.8125 72.90625 
L 24.515625 72.90625 
L 43.109375 23.296875 
L 61.8125 72.90625 
L 76.515625 72.90625 
L 76.515625 0 
L 66.890625 0 
L 66.890625 64.015625 
L 48.09375 14.015625 
L 38.1875 14.015625 
L 19.390625 64.015625 
L 19.390625 0 
L 9.8125 0 
z
" id="DejaVuSans-77"/>
    </defs>
    <g transform="translate(375.22944 298.536482)scale(0.17 -0.17)">
     <use xlink:href="#DejaVuSans-78"/>
     <use x="74.804688" xlink:href="#DejaVuSans-83"/>
     <use x="138.28125" xlink:href="#DejaVuSans-71"/>
     <use x="215.771484" xlink:href="#DejaVuSans-65"/>
     <use x="284.148438" xlink:href="#DejaVuSans-45"/>
     <use x="320.232422" xlink:href="#DejaVuSans-73"/>
     <use x="349.724609" xlink:href="#DejaVuSans-73"/>
     <use x="379.216797" xlink:href="#DejaVuSans-45"/>
     <use x="415.300781" xlink:href="#DejaVuSans-77"/>
    </g>
   </g>
   <g id="text_14">
    <!-- DMS on bb -->
    <defs>
     <path d="M 19.671875 64.796875 
L 19.671875 8.109375 
L 31.59375 8.109375 
Q 46.6875 8.109375 53.6875 14.9375 
Q 60.6875 21.78125 60.6875 36.53125 
Q 60.6875 51.171875 53.6875 57.984375 
Q 46.6875 64.796875 31.59375 64.796875 
z
M 9.8125 72.90625 
L 30.078125 72.90625 
Q 51.265625 72.90625 61.171875 64.09375 
Q 71.09375 55.28125 71.09375 36.53125 
Q 71.09375 17.671875 61.125 8.828125 
Q 51.171875 0 30.078125 0 
L 9.8125 0 
z
" id="DejaVuSans-68"/>
     <path d="M 48.6875 27.296875 
Q 48.6875 37.203125 44.609375 42.84375 
Q 40.53125 48.484375 33.40625 48.484375 
Q 26.265625 48.484375 22.1875 42.84375 
Q 18.109375 37.203125 18.109375 27.296875 
Q 18.109375 17.390625 22.1875 11.75 
Q 26.265625 6.109375 33.40625 6.109375 
Q 40.53125 6.109375 44.609375 11.75 
Q 48.6875 17.390625 48.6875 27.296875 
z
M 18.109375 46.390625 
Q 20.953125 51.265625 25.265625 53.625 
Q 29.59375 56 35.59375 56 
Q 45.5625 56 51.78125 48.09375 
Q 58.015625 40.1875 58.015625 27.296875 
Q 58.015625 14.40625 51.78125 6.484375 
Q 45.5625 -1.421875 35.59375 -1.421875 
Q 29.59375 -1.421875 25.265625 0.953125 
Q 20.953125 3.328125 18.109375 8.203125 
L 18.109375 0 
L 9.078125 0 
L 9.078125 75.984375 
L 18.109375 75.984375 
z
" id="DejaVuSans-98"/>
    </defs>
    <g transform="translate(375.22944 216.961195)scale(0.17 -0.17)">
     <use xlink:href="#DejaVuSans-68"/>
     <use x="77.001953" xlink:href="#DejaVuSans-77"/>
     <use x="163.28125" xlink:href="#DejaVuSans-83"/>
     <use x="226.757812" xlink:href="#DejaVuSans-32"/>
     <use x="258.544922" xlink:href="#DejaVuSans-111"/>
     <use x="319.726562" xlink:href="#DejaVuSans-110"/>
     <use x="383.105469" xlink:href="#DejaVuSans-32"/>
     <use x="414.892578" xlink:href="#DejaVuSans-98"/>
     <use x="478.369141" xlink:href="#DejaVuSans-98"/>
    </g>
   </g>
   <g id="text_15">
    <!-- UP-MO-CMA -->
    <defs>
     <path d="M 8.6875 72.90625 
L 18.609375 72.90625 
L 18.609375 28.609375 
Q 18.609375 16.890625 22.84375 11.734375 
Q 27.09375 6.59375 36.625 6.59375 
Q 46.09375 6.59375 50.34375 11.734375 
Q 54.59375 16.890625 54.59375 28.609375 
L 54.59375 72.90625 
L 64.5 72.90625 
L 64.5 27.390625 
Q 64.5 13.140625 57.4375 5.859375 
Q 50.390625 -1.421875 36.625 -1.421875 
Q 22.796875 -1.421875 15.734375 5.859375 
Q 8.6875 13.140625 8.6875 27.390625 
z
" id="DejaVuSans-85"/>
     <path d="M 19.671875 64.796875 
L 19.671875 37.40625 
L 32.078125 37.40625 
Q 38.96875 37.40625 42.71875 40.96875 
Q 46.484375 44.53125 46.484375 51.125 
Q 46.484375 57.671875 42.71875 61.234375 
Q 38.96875 64.796875 32.078125 64.796875 
z
M 9.8125 72.90625 
L 32.078125 72.90625 
Q 44.34375 72.90625 50.609375 67.359375 
Q 56.890625 61.8125 56.890625 51.125 
Q 56.890625 40.328125 50.609375 34.8125 
Q 44.34375 29.296875 32.078125 29.296875 
L 19.671875 29.296875 
L 19.671875 0 
L 9.8125 0 
z
" id="DejaVuSans-80"/>
     <path d="M 39.40625 66.21875 
Q 28.65625 66.21875 22.328125 58.203125 
Q 16.015625 50.203125 16.015625 36.375 
Q 16.015625 22.609375 22.328125 14.59375 
Q 28.65625 6.59375 39.40625 6.59375 
Q 50.140625 6.59375 56.421875 14.59375 
Q 62.703125 22.609375 62.703125 36.375 
Q 62.703125 50.203125 56.421875 58.203125 
Q 50.140625 66.21875 39.40625 66.21875 
z
M 39.40625 74.21875 
Q 54.734375 74.21875 63.90625 63.9375 
Q 73.09375 53.65625 73.09375 36.375 
Q 73.09375 19.140625 63.90625 8.859375 
Q 54.734375 -1.421875 39.40625 -1.421875 
Q 24.03125 -1.421875 14.8125 8.828125 
Q 5.609375 19.09375 5.609375 36.375 
Q 5.609375 53.65625 14.8125 63.9375 
Q 24.03125 74.21875 39.40625 74.21875 
z
" id="DejaVuSans-79"/>
     <path d="M 64.40625 67.28125 
L 64.40625 56.890625 
Q 59.421875 61.53125 53.78125 63.8125 
Q 48.140625 66.109375 41.796875 66.109375 
Q 29.296875 66.109375 22.65625 58.46875 
Q 16.015625 50.828125 16.015625 36.375 
Q 16.015625 21.96875 22.65625 14.328125 
Q 29.296875 6.6875 41.796875 6.6875 
Q 48.140625 6.6875 53.78125 8.984375 
Q 59.421875 11.28125 64.40625 15.921875 
L 64.40625 5.609375 
Q 59.234375 2.09375 53.4375 0.328125 
Q 47.65625 -1.421875 41.21875 -1.421875 
Q 24.65625 -1.421875 15.125 8.703125 
Q 5.609375 18.84375 5.609375 36.375 
Q 5.609375 53.953125 15.125 64.078125 
Q 24.65625 74.21875 41.21875 74.21875 
Q 47.75 74.21875 53.53125 72.484375 
Q 59.328125 70.75 64.40625 67.28125 
z
" id="DejaVuSans-67"/>
    </defs>
    <g transform="translate(375.22944 135.385908)scale(0.17 -0.17)">
     <use xlink:href="#DejaVuSans-85"/>
     <use x="73.193359" xlink:href="#DejaVuSans-80"/>
     <use x="133.464844" xlink:href="#DejaVuSans-45"/>
     <use x="169.548828" xlink:href="#DejaVuSans-77"/>
     <use x="255.828125" xlink:href="#DejaVuSans-79"/>
     <use x="334.570312" xlink:href="#DejaVuSans-45"/>
     <use x="370.654297" xlink:href="#DejaVuSans-67"/>
     <use x="440.478516" xlink:href="#DejaVuSans-77"/>
     <use x="526.757812" xlink:href="#DejaVuSans-65"/>
    </g>
   </g>
   <g id="text_16">
    <!-- best 2016 -->
    <g transform="translate(375.22944 53.810621)scale(0.17 -0.17)">
     <use xlink:href="#DejaVuSans-98"/>
     <use x="63.476562" xlink:href="#DejaVuSans-101"/>
     <use x="125" xlink:href="#DejaVuSans-115"/>
     <use x="177.099609" xlink:href="#DejaVuSans-116"/>
     <use x="216.308594" xlink:href="#DejaVuSans-32"/>
     <use x="248.095703" xlink:href="#DejaVuSans-50"/>
     <use x="311.71875" xlink:href="#DejaVuSans-48"/>
     <use x="375.341797" xlink:href="#DejaVuSans-49"/>
     <use x="438.964844" xlink:href="#DejaVuSans-54"/>
    </g>
   </g>
   <g id="text_17">
    <!-- bbob-biobj f20, 3-D -->
    <defs>
     <path d="M 9.421875 54.6875 
L 18.40625 54.6875 
L 18.40625 -0.984375 
Q 18.40625 -11.421875 14.421875 -16.109375 
Q 10.453125 -20.796875 1.609375 -20.796875 
L -1.8125 -20.796875 
L -1.8125 -13.1875 
L 0.59375 -13.1875 
Q 5.71875 -13.1875 7.5625 -10.8125 
Q 9.421875 -8.453125 9.421875 -0.984375 
z
M 9.421875 75.984375 
L 18.40625 75.984375 
L 18.40625 64.59375 
L 9.421875 64.59375 
z
" id="DejaVuSans-106"/>
     <path d="M 40.578125 39.3125 
Q 47.65625 37.796875 51.625 33 
Q 55.609375 28.21875 55.609375 21.1875 
Q 55.609375 10.40625 48.1875 4.484375 
Q 40.765625 -1.421875 27.09375 -1.421875 
Q 22.515625 -1.421875 17.65625 -0.515625 
Q 12.796875 0.390625 7.625 2.203125 
L 7.625 11.71875 
Q 11.71875 9.328125 16.59375 8.109375 
Q 21.484375 6.890625 26.8125 6.890625 
Q 36.078125 6.890625 40.9375 10.546875 
Q 45.796875 14.203125 45.796875 21.1875 
Q 45.796875 27.640625 41.28125 31.265625 
Q 36.765625 34.90625 28.71875 34.90625 
L 20.21875 34.90625 
L 20.21875 43.015625 
L 29.109375 43.015625 
Q 36.375 43.015625 40.234375 45.921875 
Q 44.09375 48.828125 44.09375 54.296875 
Q 44.09375 59.90625 40.109375 62.90625 
Q 36.140625 65.921875 28.71875 65.921875 
Q 24.65625 65.921875 20.015625 65.03125 
Q 15.375 64.15625 9.8125 62.3125 
L 9.8125 71.09375 
Q 15.4375 72.65625 20.34375 73.4375 
Q 25.25 74.21875 29.59375 74.21875 
Q 40.828125 74.21875 47.359375 69.109375 
Q 53.90625 64.015625 53.90625 55.328125 
Q 53.90625 49.265625 50.4375 45.09375 
Q 46.96875 40.921875 40.578125 39.3125 
z
" id="DejaVuSans-51"/>
    </defs>
    <g transform="translate(60.41088 51.797126)scale(0.102 -0.102)">
     <use xlink:href="#DejaVuSans-98"/>
     <use x="63.476562" xlink:href="#DejaVuSans-98"/>
     <use x="126.953125" xlink:href="#DejaVuSans-111"/>
     <use x="188.134766" xlink:href="#DejaVuSans-98"/>
     <use x="251.611328" xlink:href="#DejaVuSans-45"/>
     <use x="287.695312" xlink:href="#DejaVuSans-98"/>
     <use x="351.171875" xlink:href="#DejaVuSans-105"/>
     <use x="378.955078" xlink:href="#DejaVuSans-111"/>
     <use x="440.136719" xlink:href="#DejaVuSans-98"/>
     <use x="503.613281" xlink:href="#DejaVuSans-106"/>
     <use x="531.396484" xlink:href="#DejaVuSans-32"/>
     <use x="563.183594" xlink:href="#DejaVuSans-102"/>
     <use x="598.388672" xlink:href="#DejaVuSans-50"/>
     <use x="662.011719" xlink:href="#DejaVuSans-48"/>
     <use x="725.634766" xlink:href="#DejaVuSans-44"/>
     <use x="757.421875" xlink:href="#DejaVuSans-32"/>
     <use x="789.208984" xlink:href="#DejaVuSans-51"/>
     <use x="852.832031" xlink:href="#DejaVuSans-45"/>
     <use x="888.916016" xlink:href="#DejaVuSans-68"/>
    </g>
    <!-- 58 targets: 1..-1.0e-4 -->
    <defs>
     <path d="M 10.796875 72.90625 
L 49.515625 72.90625 
L 49.515625 64.59375 
L 19.828125 64.59375 
L 19.828125 46.734375 
Q 21.96875 47.46875 24.109375 47.828125 
Q 26.265625 48.1875 28.421875 48.1875 
Q 40.625 48.1875 47.75 41.5 
Q 54.890625 34.8125 54.890625 23.390625 
Q 54.890625 11.625 47.5625 5.09375 
Q 40.234375 -1.421875 26.90625 -1.421875 
Q 22.3125 -1.421875 17.546875 -0.640625 
Q 12.796875 0.140625 7.71875 1.703125 
L 7.71875 11.625 
Q 12.109375 9.234375 16.796875 8.0625 
Q 21.484375 6.890625 26.703125 6.890625 
Q 35.15625 6.890625 40.078125 11.328125 
Q 45.015625 15.765625 45.015625 23.390625 
Q 45.015625 31 40.078125 35.4375 
Q 35.15625 39.890625 26.703125 39.890625 
Q 22.75 39.890625 18.8125 39.015625 
Q 14.890625 38.140625 10.796875 36.28125 
z
" id="DejaVuSans-53"/>
     <path d="M 11.71875 12.40625 
L 22.015625 12.40625 
L 22.015625 0 
L 11.71875 0 
z
M 11.71875 51.703125 
L 22.015625 51.703125 
L 22.015625 39.3125 
L 11.71875 39.3125 
z
" id="DejaVuSans-58"/>
    </defs>
    <g transform="translate(60.41088 63.218895)scale(0.102 -0.102)">
     <use xlink:href="#DejaVuSans-53"/>
     <use x="63.623047" xlink:href="#DejaVuSans-56"/>
     <use x="127.246094" xlink:href="#DejaVuSans-32"/>
     <use x="159.033203" xlink:href="#DejaVuSans-116"/>
     <use x="198.242188" xlink:href="#DejaVuSans-97"/>
     <use x="259.521484" xlink:href="#DejaVuSans-114"/>
     <use x="300.619141" xlink:href="#DejaVuSans-103"/>
     <use x="364.095703" xlink:href="#DejaVuSans-101"/>
     <use x="425.619141" xlink:href="#DejaVuSans-116"/>
     <use x="464.828125" xlink:href="#DejaVuSans-115"/>
     <use x="516.927734" xlink:href="#DejaVuSans-58"/>
     <use x="550.619141" xlink:href="#DejaVuSans-32"/>
     <use x="582.40625" xlink:href="#DejaVuSans-49"/>
     <use x="646.029297" xlink:href="#DejaVuSans-46"/>
     <use x="677.816406" xlink:href="#DejaVuSans-46"/>
     <use x="709.603516" xlink:href="#DejaVuSans-45"/>
     <use x="745.6875" xlink:href="#DejaVuSans-49"/>
     <use x="809.310547" xlink:href="#DejaVuSans-46"/>
     <use x="841.097656" xlink:href="#DejaVuSans-48"/>
     <use x="904.720703" xlink:href="#DejaVuSans-101"/>
     <use x="966.244141" xlink:href="#DejaVuSans-45"/>
     <use x="1002.328125" xlink:href="#DejaVuSans-52"/>
    </g>
    <!-- 10 instances -->
    <g transform="translate(60.41088 74.640664)scale(0.102 -0.102)">
     <use xlink:href="#DejaVuSans-49"/>
     <use x="63.623047" xlink:href="#DejaVuSans-48"/>
     <use x="127.246094" xlink:href="#DejaVuSans-32"/>
     <use x="159.033203" xlink:href="#DejaVuSans-105"/>
     <use x="186.816406" xlink:href="#DejaVuSans-110"/>
     <use x="250.195312" xlink:href="#DejaVuSans-115"/>
     <use x="302.294922" xlink:href="#DejaVuSans-116"/>
     <use x="341.503906" xlink:href="#DejaVuSans-97"/>
     <use x="402.783203" xlink:href="#DejaVuSans-110"/>
     <use x="466.162109" xlink:href="#DejaVuSans-99"/>
     <use x="521.142578" xlink:href="#DejaVuSans-101"/>
     <use x="582.666016" xlink:href="#DejaVuSans-115"/>
    </g>
   </g>
   <g id="text_18">
    <!-- v2.3.1.31, hv-hash=ff0e71e8cd978373 -->
    <defs>
     <path d="M 54.890625 33.015625 
L 54.890625 0 
L 45.90625 0 
L 45.90625 32.71875 
Q 45.90625 40.484375 42.875 44.328125 
Q 39.84375 48.1875 33.796875 48.1875 
Q 26.515625 48.1875 22.3125 43.546875 
Q 18.109375 38.921875 18.109375 30.90625 
L 18.109375 0 
L 9.078125 0 
L 9.078125 75.984375 
L 18.109375 75.984375 
L 18.109375 46.1875 
Q 21.34375 51.125 25.703125 53.5625 
Q 30.078125 56 35.796875 56 
Q 45.21875 56 50.046875 50.171875 
Q 54.890625 44.34375 54.890625 33.015625 
z
" id="DejaVuSans-104"/>
     <path d="M 10.59375 45.40625 
L 73.1875 45.40625 
L 73.1875 37.203125 
L 10.59375 37.203125 
z
M 10.59375 25.484375 
L 73.1875 25.484375 
L 73.1875 17.1875 
L 10.59375 17.1875 
z
" id="DejaVuSans-61"/>
     <path d="M 8.203125 72.90625 
L 55.078125 72.90625 
L 55.078125 68.703125 
L 28.609375 0 
L 18.3125 0 
L 43.21875 64.59375 
L 8.203125 64.59375 
z
" id="DejaVuSans-55"/>
     <path d="M 10.984375 1.515625 
L 10.984375 10.5 
Q 14.703125 8.734375 18.5 7.8125 
Q 22.3125 6.890625 25.984375 6.890625 
Q 35.75 6.890625 40.890625 13.453125 
Q 46.046875 20.015625 46.78125 33.40625 
Q 43.953125 29.203125 39.59375 26.953125 
Q 35.25 24.703125 29.984375 24.703125 
Q 19.046875 24.703125 12.671875 31.3125 
Q 6.296875 37.9375 6.296875 49.421875 
Q 6.296875 60.640625 12.9375 67.421875 
Q 19.578125 74.21875 30.609375 74.21875 
Q 43.265625 74.21875 49.921875 64.515625 
Q 56.59375 54.828125 56.59375 36.375 
Q 56.59375 19.140625 48.40625 8.859375 
Q 40.234375 -1.421875 26.421875 -1.421875 
Q 22.703125 -1.421875 18.890625 -0.6875 
Q 15.09375 0.046875 10.984375 1.515625 
z
M 30.609375 32.421875 
Q 37.25 32.421875 41.125 36.953125 
Q 45.015625 41.5 45.015625 49.421875 
Q 45.015625 57.28125 41.125 61.84375 
Q 37.25 66.40625 30.609375 66.40625 
Q 23.96875 66.40625 20.09375 61.84375 
Q 16.21875 57.28125 16.21875 49.421875 
Q 16.21875 41.5 20.09375 36.953125 
Q 23.96875 32.421875 30.609375 32.421875 
z
" id="DejaVuSans-57"/>
    </defs>
    <g style="fill:#808080;" transform="translate(99.797125 294.289592)scale(0.1 -0.1)">
     <use xlink:href="#DejaVuSans-118"/>
     <use x="59.179688" xlink:href="#DejaVuSans-50"/>
     <use x="122.802734" xlink:href="#DejaVuSans-46"/>
     <use x="154.589844" xlink:href="#DejaVuSans-51"/>
     <use x="218.212891" xlink:href="#DejaVuSans-46"/>
     <use x="250" xlink:href="#DejaVuSans-49"/>
     <use x="313.623047" xlink:href="#DejaVuSans-46"/>
     <use x="345.410156" xlink:href="#DejaVuSans-51"/>
     <use x="409.033203" xlink:href="#DejaVuSans-49"/>
     <use x="472.65625" xlink:href="#DejaVuSans-44"/>
     <use x="504.443359" xlink:href="#DejaVuSans-32"/>
     <use x="536.230469" xlink:href="#DejaVuSans-104"/>
     <use x="599.609375" xlink:href="#DejaVuSans-118"/>
     <use x="658.757812" xlink:href="#DejaVuSans-45"/>
     <use x="694.841797" xlink:href="#DejaVuSans-104"/>
     <use x="758.220703" xlink:href="#DejaVuSans-97"/>
     <use x="819.5" xlink:href="#DejaVuSans-115"/>
     <use x="871.599609" xlink:href="#DejaVuSans-104"/>
     <use x="934.978516" xlink:href="#DejaVuSans-61"/>
     <use x="1018.767578" xlink:href="#DejaVuSans-102"/>
     <use x="1053.972656" xlink:href="#DejaVuSans-102"/>
     <use x="1089.177734" xlink:href="#DejaVuSans-48"/>
     <use x="1152.800781" xlink:href="#DejaVuSans-101"/>
     <use x="1214.324219" xlink:href="#DejaVuSans-55"/>
     <use x="1277.947266" xlink:href="#DejaVuSans-49"/>
     <use x="1341.570312" xlink:href="#DejaVuSans-101"/>
     <use x="1403.09375" xlink:href="#DejaVuSans-56"/>
     <use x="1466.716797" xlink:href="#DejaVuSans-99"/>
     <use x="1521.697266" xlink:href="#DejaVuSans-100"/>
     <use x="1585.173828" xlink:href="#DejaVuSans-57"/>
     <use x="1648.796875" xlink:href="#DejaVuSans-55"/>
     <use x="1712.419922" xlink:href="#DejaVuSans-56"/>
     <use x="1776.042969" xlink:href="#DejaVuSans-51"/>
     <use x="1839.666016" xlink:href="#DejaVuSans-55"/>
     <use x="1903.289062" xlink:href="#DejaVuSans-51"/>
    </g>
   </g>
   <g id="text_19">
    <!-- 20 Attr. sector/Attr. sector -->
    <g transform="translate(66.584625 35.472)scale(0.2 -0.2)">
     <use xlink:href="#DejaVuSans-50"/>
     <use x="63.623047" xlink:href="#DejaVuSans-48"/>
     <use x="127.246094" xlink:href="#DejaVuSans-32"/>
     <use x="159.033203" xlink:href="#DejaVuSans-65"/>
     <use x="227.425781" xlink:href="#DejaVuSans-116"/>
     <use x="266.634766" xlink:href="#DejaVuSans-116"/>
     <use x="305.84375" xlink:href="#DejaVuSans-114"/>
     <use x="346.816406" xlink:href="#DejaVuSans-46"/>
     <use x="378.603516" xlink:href="#DejaVuSans-32"/>
     <use x="410.390625" xlink:href="#DejaVuSans-115"/>
     <use x="462.490234" xlink:href="#DejaVuSans-101"/>
     <use x="524.013672" xlink:href="#DejaVuSans-99"/>
     <use x="578.994141" xlink:href="#DejaVuSans-116"/>
     <use x="618.203125" xlink:href="#DejaVuSans-111"/>
     <use x="679.384766" xlink:href="#DejaVuSans-114"/>
     <use x="720.498047" xlink:href="#DejaVuSans-47"/>
     <use x="754.189453" xlink:href="#DejaVuSans-65"/>
     <use x="822.582031" xlink:href="#DejaVuSans-116"/>
     <use x="861.791016" xlink:href="#DejaVuSans-116"/>
     <use x="901" xlink:href="#DejaVuSans-114"/>
     <use x="941.972656" xlink:href="#DejaVuSans-46"/>
     <use x="973.759766" xlink:href="#DejaVuSans-32"/>
     <use x="1005.546875" xlink:href="#DejaVuSans-115"/>
     <use x="1057.646484" xlink:href="#DejaVuSans-101"/>
     <use x="1119.169922" xlink:href="#DejaVuSans-99"/>
     <use x="1174.150391" xlink:href="#DejaVuSans-116"/>
     <use x="1213.359375" xlink:href="#DejaVuSans-111"/>
     <use x="1274.541016" xlink:href="#DejaVuSans-114"/>
    </g>
   </g>
  </g>
 </g>
 <defs>
  <clipPath id="pd6c37f9373">
   <rect height="257.472" width="281.088" x="57.6" y="41.472"/>
  </clipPath>
 </defs>
</svg>
