<?xml version="1.0" encoding="utf-8" standalone="no"?>
<!DOCTYPE svg PUBLIC "-//W3C//DTD SVG 1.1//EN"
  "http://www.w3.org/Graphics/SVG/1.1/DTD/svg11.dtd">
<!-- Created with matplotlib (https://matplotlib.org/) -->
<svg height="345.6pt" version="1.1" viewBox="0 0 460.8 345.6" width="460.8pt" xmlns="http://www.w3.org/2000/svg" xmlns:xlink="http://www.w3.org/1999/xlink">
 <defs>
  <style type="text/css">
*{stroke-linecap:butt;stroke-linejoin:round;}
  </style>
 </defs>
 <g id="figure_1">
  <g id="patch_1">
   <path d="M 0 345.6 
L 460.8 345.6 
L 460.8 0 
L 0 0 
z
" style="fill:#ffffff;"/>
  </g>
  <g id="axes_1">
   <g id="patch_2">
    <path d="M 57.6 298.944 
L 338.688 298.944 
L 338.688 41.472 
L 57.6 41.472 
z
" style="fill:#ffffff;"/>
   </g>
   <g id="line2d_1">
    <path d="M 69.687988 298.944 
L 69.687988 294.54878 
L 94.921215 294.54878 
L 94.921215 285.758339 
L 107.009204 285.758339 
L 107.009204 276.967899 
L 126.50685 276.967899 
L 126.50685 272.572679 
L 142.010346 272.572679 
L 142.010346 259.387018 
L 147.164632 259.387018 
L 147.164632 250.596578 
L 148.780082 250.596578 
L 148.780082 246.201357 
L 158.51933 246.201357 
L 158.51933 237.410917 
L 165.873346 237.410917 
L 165.873346 224.225256 
L 169.813865 224.225256 
L 169.813865 215.434816 
L 175.160115 215.434816 
L 175.160115 206.644376 
L 177.934998 206.644376 
L 177.934998 197.853935 
L 180.05044 197.853935 
L 180.05044 193.458715 
L 181.011755 193.458715 
L 181.011755 180.273054 
L 187.630169 180.273054 
L 187.630169 175.877834 
L 191.923102 175.877834 
L 191.923102 162.692173 
L 205.359946 162.692173 
L 205.359946 153.901733 
L 217.456136 153.901733 
L 217.456136 149.506513 
L 217.837333 149.506513 
L 217.837333 136.320852 
L 218.031464 136.320852 
L 218.031464 131.925632 
L 229.433074 131.925632 
L 229.433074 118.739971 
L 231.339438 118.739971 
L 231.339438 109.949531 
L 233.416809 109.949531 
L 233.416809 101.15909 
L 235.84935 101.15909 
L 235.84935 96.76387 
L 240.627726 96.76387 
L 240.627726 87.97343 
L 245.22882 87.97343 
L 245.22882 74.787769 
L 338.688 74.787769 
" style="fill:none;stroke:#f5deb3;stroke-linecap:square;stroke-width:4;"/>
   </g>
   <g id="line2d_2">
    <defs>
     <path d="M 0 7.778175 
L 7.778175 0 
L 0 -7.778175 
L -7.778175 0 
z
" id="m40d8442920" style="stroke:#f5deb3;stroke-linejoin:miter;stroke-width:1.5;"/>
    </defs>
    <g>
     <use style="fill:#f5deb3;stroke:#f5deb3;stroke-linejoin:miter;stroke-width:1.5;" x="126.50685" xlink:href="#m40d8442920" y="272.572679"/>
     <use style="fill:#f5deb3;stroke:#f5deb3;stroke-linejoin:miter;stroke-width:1.5;" x="205.359946" xlink:href="#m40d8442920" y="162.692173"/>
     <use style="fill:#f5deb3;stroke:#f5deb3;stroke-linejoin:miter;stroke-width:1.5;" x="245.22882" xlink:href="#m40d8442920" y="87.97343"/>
     <use style="fill:#f5deb3;stroke:#f5deb3;stroke-linejoin:miter;stroke-width:1.5;" x="245.22882" xlink:href="#m40d8442920" y="74.787769"/>
     <use style="fill:#f5deb3;stroke:#f5deb3;stroke-linejoin:miter;stroke-width:1.5;" x="338.688" xlink:href="#m40d8442920" y="74.787769"/>
    </g>
   </g>
   <g id="line2d_3">
    <path style="fill:none;stroke:#f5deb3;stroke-linecap:square;stroke-width:4;"/>
    <g/>
   </g>
   <g id="line2d_4">
    <path d="M 338.688 74.787769 
L 369.60768 49.119683 
" style="fill:none;stroke:#f5deb3;stroke-linecap:square;stroke-width:4;"/>
    <g>
     <use style="fill:#f5deb3;stroke:#f5deb3;stroke-linejoin:miter;stroke-width:1.5;" x="338.688" xlink:href="#m40d8442920" y="74.787769"/>
     <use style="fill:#f5deb3;stroke:#f5deb3;stroke-linejoin:miter;stroke-width:1.5;" x="369.60768" xlink:href="#m40d8442920" y="49.119683"/>
    </g>
   </g>
   <g id="matplotlib.axis_1">
    <g id="xtick_1">
     <g id="line2d_5">
      <path clip-path="url(#p18eb120f83)" d="M 57.6 298.944 
L 57.6 41.472 
" style="fill:none;stroke:#b0b0b0;stroke-linecap:square;stroke-width:0.8;"/>
     </g>
     <g id="line2d_6">
      <defs>
       <path d="M 0 0 
L 0 3.5 
" id="mee96e322c3" style="stroke:#000000;stroke-width:0.8;"/>
      </defs>
      <g>
       <use style="stroke:#000000;stroke-width:0.8;" x="57.6" xlink:href="#mee96e322c3" y="298.944"/>
      </g>
     </g>
     <g id="text_1">
      <!-- 0 -->
      <defs>
       <path d="M 31.78125 66.40625 
Q 24.171875 66.40625 20.328125 58.90625 
Q 16.5 51.421875 16.5 36.375 
Q 16.5 21.390625 20.328125 13.890625 
Q 24.171875 6.390625 31.78125 6.390625 
Q 39.453125 6.390625 43.28125 13.890625 
Q 47.125 21.390625 47.125 36.375 
Q 47.125 51.421875 43.28125 58.90625 
Q 39.453125 66.40625 31.78125 66.40625 
z
M 31.78125 74.21875 
Q 44.046875 74.21875 50.515625 64.515625 
Q 56.984375 54.828125 56.984375 36.375 
Q 56.984375 17.96875 50.515625 8.265625 
Q 44.046875 -1.421875 31.78125 -1.421875 
Q 19.53125 -1.421875 13.0625 8.265625 
Q 6.59375 17.96875 6.59375 36.375 
Q 6.59375 54.828125 13.0625 64.515625 
Q 19.53125 74.21875 31.78125 74.21875 
z
" id="DejaVuSans-48"/>
      </defs>
      <g transform="translate(51.2375 321.140875)scale(0.2 -0.2)">
       <use xlink:href="#DejaVuSans-48"/>
      </g>
     </g>
    </g>
    <g id="xtick_2">
     <g id="line2d_7">
      <path clip-path="url(#p18eb120f83)" d="M 137.910857 298.944 
L 137.910857 41.472 
" style="fill:none;stroke:#b0b0b0;stroke-linecap:square;stroke-width:0.8;"/>
     </g>
     <g id="line2d_8">
      <g>
       <use style="stroke:#000000;stroke-width:0.8;" x="137.910857" xlink:href="#mee96e322c3" y="298.944"/>
      </g>
     </g>
     <g id="text_2">
      <!-- 2 -->
      <defs>
       <path d="M 19.1875 8.296875 
L 53.609375 8.296875 
L 53.609375 0 
L 7.328125 0 
L 7.328125 8.296875 
Q 12.9375 14.109375 22.625 23.890625 
Q 32.328125 33.6875 34.8125 36.53125 
Q 39.546875 41.84375 41.421875 45.53125 
Q 43.3125 49.21875 43.3125 52.78125 
Q 43.3125 58.59375 39.234375 62.25 
Q 35.15625 65.921875 28.609375 65.921875 
Q 23.96875 65.921875 18.8125 64.3125 
Q 13.671875 62.703125 7.8125 59.421875 
L 7.8125 69.390625 
Q 13.765625 71.78125 18.9375 73 
Q 24.125 74.21875 28.421875 74.21875 
Q 39.75 74.21875 46.484375 68.546875 
Q 53.21875 62.890625 53.21875 53.421875 
Q 53.21875 48.921875 51.53125 44.890625 
Q 49.859375 40.875 45.40625 35.40625 
Q 44.1875 33.984375 37.640625 27.21875 
Q 31.109375 20.453125 19.1875 8.296875 
z
" id="DejaVuSans-50"/>
      </defs>
      <g transform="translate(131.548357 321.140875)scale(0.2 -0.2)">
       <use xlink:href="#DejaVuSans-50"/>
      </g>
     </g>
    </g>
    <g id="xtick_3">
     <g id="line2d_9">
      <path clip-path="url(#p18eb120f83)" d="M 218.221714 298.944 
L 218.221714 41.472 
" style="fill:none;stroke:#b0b0b0;stroke-linecap:square;stroke-width:0.8;"/>
     </g>
     <g id="line2d_10">
      <g>
       <use style="stroke:#000000;stroke-width:0.8;" x="218.221714" xlink:href="#mee96e322c3" y="298.944"/>
      </g>
     </g>
     <g id="text_3">
      <!-- 4 -->
      <defs>
       <path d="M 37.796875 64.3125 
L 12.890625 25.390625 
L 37.796875 25.390625 
z
M 35.203125 72.90625 
L 47.609375 72.90625 
L 47.609375 25.390625 
L 58.015625 25.390625 
L 58.015625 17.1875 
L 47.609375 17.1875 
L 47.609375 0 
L 37.796875 0 
L 37.796875 17.1875 
L 4.890625 17.1875 
L 4.890625 26.703125 
z
" id="DejaVuSans-52"/>
      </defs>
      <g transform="translate(211.859214 321.140875)scale(0.2 -0.2)">
       <use xlink:href="#DejaVuSans-52"/>
      </g>
     </g>
    </g>
    <g id="xtick_4">
     <g id="line2d_11">
      <path clip-path="url(#p18eb120f83)" d="M 298.532571 298.944 
L 298.532571 41.472 
" style="fill:none;stroke:#b0b0b0;stroke-linecap:square;stroke-width:0.8;"/>
     </g>
     <g id="line2d_12">
      <g>
       <use style="stroke:#000000;stroke-width:0.8;" x="298.532571" xlink:href="#mee96e322c3" y="298.944"/>
      </g>
     </g>
     <g id="text_4">
      <!-- 6 -->
      <defs>
       <path d="M 33.015625 40.375 
Q 26.375 40.375 22.484375 35.828125 
Q 18.609375 31.296875 18.609375 23.390625 
Q 18.609375 15.53125 22.484375 10.953125 
Q 26.375 6.390625 33.015625 6.390625 
Q 39.65625 6.390625 43.53125 10.953125 
Q 47.40625 15.53125 47.40625 23.390625 
Q 47.40625 31.296875 43.53125 35.828125 
Q 39.65625 40.375 33.015625 40.375 
z
M 52.59375 71.296875 
L 52.59375 62.3125 
Q 48.875 64.0625 45.09375 64.984375 
Q 41.3125 65.921875 37.59375 65.921875 
Q 27.828125 65.921875 22.671875 59.328125 
Q 17.53125 52.734375 16.796875 39.40625 
Q 19.671875 43.65625 24.015625 45.921875 
Q 28.375 48.1875 33.59375 48.1875 
Q 44.578125 48.1875 50.953125 41.515625 
Q 57.328125 34.859375 57.328125 23.390625 
Q 57.328125 12.15625 50.6875 5.359375 
Q 44.046875 -1.421875 33.015625 -1.421875 
Q 20.359375 -1.421875 13.671875 8.265625 
Q 6.984375 17.96875 6.984375 36.375 
Q 6.984375 53.65625 15.1875 63.9375 
Q 23.390625 74.21875 37.203125 74.21875 
Q 40.921875 74.21875 44.703125 73.484375 
Q 48.484375 72.75 52.59375 71.296875 
z
" id="DejaVuSans-54"/>
      </defs>
      <g transform="translate(292.170071 321.140875)scale(0.2 -0.2)">
       <use xlink:href="#DejaVuSans-54"/>
      </g>
     </g>
    </g>
    <g id="xtick_5">
     <g id="line2d_13">
      <path clip-path="url(#p18eb120f83)" d="M 57.6 298.944 
L 57.6 41.472 
" style="fill:none;stroke:#b0b0b0;stroke-linecap:square;stroke-width:0.8;"/>
     </g>
     <g id="line2d_14">
      <defs>
       <path d="M 0 0 
L 0 2 
" id="mb89ff67c0d" style="stroke:#000000;stroke-width:0.6;"/>
      </defs>
      <g>
       <use style="stroke:#000000;stroke-width:0.6;" x="57.6" xlink:href="#mb89ff67c0d" y="298.944"/>
      </g>
     </g>
    </g>
    <g id="xtick_6">
     <g id="line2d_15">
      <path clip-path="url(#p18eb120f83)" d="M 97.755429 298.944 
L 97.755429 41.472 
" style="fill:none;stroke:#b0b0b0;stroke-linecap:square;stroke-width:0.8;"/>
     </g>
     <g id="line2d_16">
      <g>
       <use style="stroke:#000000;stroke-width:0.6;" x="97.755429" xlink:href="#mb89ff67c0d" y="298.944"/>
      </g>
     </g>
    </g>
    <g id="xtick_7">
     <g id="line2d_17">
      <path clip-path="url(#p18eb120f83)" d="M 137.910857 298.944 
L 137.910857 41.472 
" style="fill:none;stroke:#b0b0b0;stroke-linecap:square;stroke-width:0.8;"/>
     </g>
     <g id="line2d_18">
      <g>
       <use style="stroke:#000000;stroke-width:0.6;" x="137.910857" xlink:href="#mb89ff67c0d" y="298.944"/>
      </g>
     </g>
    </g>
    <g id="xtick_8">
     <g id="line2d_19">
      <path clip-path="url(#p18eb120f83)" d="M 178.066286 298.944 
L 178.066286 41.472 
" style="fill:none;stroke:#b0b0b0;stroke-linecap:square;stroke-width:0.8;"/>
     </g>
     <g id="line2d_20">
      <g>
       <use style="stroke:#000000;stroke-width:0.6;" x="178.066286" xlink:href="#mb89ff67c0d" y="298.944"/>
      </g>
     </g>
    </g>
    <g id="xtick_9">
     <g id="line2d_21">
      <path clip-path="url(#p18eb120f83)" d="M 218.221714 298.944 
L 218.221714 41.472 
" style="fill:none;stroke:#b0b0b0;stroke-linecap:square;stroke-width:0.8;"/>
     </g>
     <g id="line2d_22">
      <g>
       <use style="stroke:#000000;stroke-width:0.6;" x="218.221714" xlink:href="#mb89ff67c0d" y="298.944"/>
      </g>
     </g>
    </g>
    <g id="xtick_10">
     <g id="line2d_23">
      <path clip-path="url(#p18eb120f83)" d="M 258.377143 298.944 
L 258.377143 41.472 
" style="fill:none;stroke:#b0b0b0;stroke-linecap:square;stroke-width:0.8;"/>
     </g>
     <g id="line2d_24">
      <g>
       <use style="stroke:#000000;stroke-width:0.6;" x="258.377143" xlink:href="#mb89ff67c0d" y="298.944"/>
      </g>
     </g>
    </g>
    <g id="xtick_11">
     <g id="line2d_25">
      <path clip-path="url(#p18eb120f83)" d="M 298.532571 298.944 
L 298.532571 41.472 
" style="fill:none;stroke:#b0b0b0;stroke-linecap:square;stroke-width:0.8;"/>
     </g>
     <g id="line2d_26">
      <g>
       <use style="stroke:#000000;stroke-width:0.6;" x="298.532571" xlink:href="#mb89ff67c0d" y="298.944"/>
      </g>
     </g>
    </g>
    <g id="xtick_12">
     <g id="line2d_27">
      <path clip-path="url(#p18eb120f83)" d="M 338.688 298.944 
L 338.688 41.472 
" style="fill:none;stroke:#b0b0b0;stroke-linecap:square;stroke-width:0.8;"/>
     </g>
     <g id="line2d_28">
      <g>
       <use style="stroke:#000000;stroke-width:0.6;" x="338.688" xlink:href="#mb89ff67c0d" y="298.944"/>
      </g>
     </g>
    </g>
    <g id="text_5">
     <!-- log10(# f-evals / dimension) -->
     <defs>
      <path d="M 9.421875 75.984375 
L 18.40625 75.984375 
L 18.40625 0 
L 9.421875 0 
z
" id="DejaVuSans-108"/>
      <path d="M 30.609375 48.390625 
Q 23.390625 48.390625 19.1875 42.75 
Q 14.984375 37.109375 14.984375 27.296875 
Q 14.984375 17.484375 19.15625 11.84375 
Q 23.34375 6.203125 30.609375 6.203125 
Q 37.796875 6.203125 41.984375 11.859375 
Q 46.1875 17.53125 46.1875 27.296875 
Q 46.1875 37.015625 41.984375 42.703125 
Q 37.796875 48.390625 30.609375 48.390625 
z
M 30.609375 56 
Q 42.328125 56 49.015625 48.375 
Q 55.71875 40.765625 55.71875 27.296875 
Q 55.71875 13.875 49.015625 6.21875 
Q 42.328125 -1.421875 30.609375 -1.421875 
Q 18.84375 -1.421875 12.171875 6.21875 
Q 5.515625 13.875 5.515625 27.296875 
Q 5.515625 40.765625 12.171875 48.375 
Q 18.84375 56 30.609375 56 
z
" id="DejaVuSans-111"/>
      <path d="M 45.40625 27.984375 
Q 45.40625 37.75 41.375 43.109375 
Q 37.359375 48.484375 30.078125 48.484375 
Q 22.859375 48.484375 18.828125 43.109375 
Q 14.796875 37.75 14.796875 27.984375 
Q 14.796875 18.265625 18.828125 12.890625 
Q 22.859375 7.515625 30.078125 7.515625 
Q 37.359375 7.515625 41.375 12.890625 
Q 45.40625 18.265625 45.40625 27.984375 
z
M 54.390625 6.78125 
Q 54.390625 -7.171875 48.1875 -13.984375 
Q 42 -20.796875 29.203125 -20.796875 
Q 24.46875 -20.796875 20.265625 -20.09375 
Q 16.0625 -19.390625 12.109375 -17.921875 
L 12.109375 -9.1875 
Q 16.0625 -11.328125 19.921875 -12.34375 
Q 23.78125 -13.375 27.78125 -13.375 
Q 36.625 -13.375 41.015625 -8.765625 
Q 45.40625 -4.15625 45.40625 5.171875 
L 45.40625 9.625 
Q 42.625 4.78125 38.28125 2.390625 
Q 33.9375 0 27.875 0 
Q 17.828125 0 11.671875 7.65625 
Q 5.515625 15.328125 5.515625 27.984375 
Q 5.515625 40.671875 11.671875 48.328125 
Q 17.828125 56 27.875 56 
Q 33.9375 56 38.28125 53.609375 
Q 42.625 51.21875 45.40625 46.390625 
L 45.40625 54.6875 
L 54.390625 54.6875 
z
" id="DejaVuSans-103"/>
      <path d="M 12.40625 8.296875 
L 28.515625 8.296875 
L 28.515625 63.921875 
L 10.984375 60.40625 
L 10.984375 69.390625 
L 28.421875 72.90625 
L 38.28125 72.90625 
L 38.28125 8.296875 
L 54.390625 8.296875 
L 54.390625 0 
L 12.40625 0 
z
" id="DejaVuSans-49"/>
      <path d="M 31 75.875 
Q 24.46875 64.65625 21.28125 53.65625 
Q 18.109375 42.671875 18.109375 31.390625 
Q 18.109375 20.125 21.3125 9.0625 
Q 24.515625 -2 31 -13.1875 
L 23.1875 -13.1875 
Q 15.875 -1.703125 12.234375 9.375 
Q 8.59375 20.453125 8.59375 31.390625 
Q 8.59375 42.28125 12.203125 53.3125 
Q 15.828125 64.359375 23.1875 75.875 
z
" id="DejaVuSans-40"/>
      <path d="M 51.125 44 
L 36.921875 44 
L 32.8125 27.6875 
L 47.125 27.6875 
z
M 43.796875 71.78125 
L 38.71875 51.515625 
L 52.984375 51.515625 
L 58.109375 71.78125 
L 65.921875 71.78125 
L 60.890625 51.515625 
L 76.125 51.515625 
L 76.125 44 
L 58.984375 44 
L 54.984375 27.6875 
L 70.515625 27.6875 
L 70.515625 20.21875 
L 53.078125 20.21875 
L 48 0 
L 40.1875 0 
L 45.21875 20.21875 
L 30.90625 20.21875 
L 25.875 0 
L 18.015625 0 
L 23.09375 20.21875 
L 7.71875 20.21875 
L 7.71875 27.6875 
L 24.90625 27.6875 
L 29 44 
L 13.28125 44 
L 13.28125 51.515625 
L 30.90625 51.515625 
L 35.890625 71.78125 
z
" id="DejaVuSans-35"/>
      <path id="DejaVuSans-32"/>
      <path d="M 37.109375 75.984375 
L 37.109375 68.5 
L 28.515625 68.5 
Q 23.6875 68.5 21.796875 66.546875 
Q 19.921875 64.59375 19.921875 59.515625 
L 19.921875 54.6875 
L 34.71875 54.6875 
L 34.71875 47.703125 
L 19.921875 47.703125 
L 19.921875 0 
L 10.890625 0 
L 10.890625 47.703125 
L 2.296875 47.703125 
L 2.296875 54.6875 
L 10.890625 54.6875 
L 10.890625 58.5 
Q 10.890625 67.625 15.140625 71.796875 
Q 19.390625 75.984375 28.609375 75.984375 
z
" id="DejaVuSans-102"/>
      <path d="M 4.890625 31.390625 
L 31.203125 31.390625 
L 31.203125 23.390625 
L 4.890625 23.390625 
z
" id="DejaVuSans-45"/>
      <path d="M 56.203125 29.59375 
L 56.203125 25.203125 
L 14.890625 25.203125 
Q 15.484375 15.921875 20.484375 11.0625 
Q 25.484375 6.203125 34.421875 6.203125 
Q 39.59375 6.203125 44.453125 7.46875 
Q 49.3125 8.734375 54.109375 11.28125 
L 54.109375 2.78125 
Q 49.265625 0.734375 44.1875 -0.34375 
Q 39.109375 -1.421875 33.890625 -1.421875 
Q 20.796875 -1.421875 13.15625 6.1875 
Q 5.515625 13.8125 5.515625 26.8125 
Q 5.515625 40.234375 12.765625 48.109375 
Q 20.015625 56 32.328125 56 
Q 43.359375 56 49.78125 48.890625 
Q 56.203125 41.796875 56.203125 29.59375 
z
M 47.21875 32.234375 
Q 47.125 39.59375 43.09375 43.984375 
Q 39.0625 48.390625 32.421875 48.390625 
Q 24.90625 48.390625 20.390625 44.140625 
Q 15.875 39.890625 15.1875 32.171875 
z
" id="DejaVuSans-101"/>
      <path d="M 2.984375 54.6875 
L 12.5 54.6875 
L 29.59375 8.796875 
L 46.6875 54.6875 
L 56.203125 54.6875 
L 35.6875 0 
L 23.484375 0 
z
" id="DejaVuSans-118"/>
      <path d="M 34.28125 27.484375 
Q 23.390625 27.484375 19.1875 25 
Q 14.984375 22.515625 14.984375 16.5 
Q 14.984375 11.71875 18.140625 8.90625 
Q 21.296875 6.109375 26.703125 6.109375 
Q 34.1875 6.109375 38.703125 11.40625 
Q 43.21875 16.703125 43.21875 25.484375 
L 43.21875 27.484375 
z
M 52.203125 31.203125 
L 52.203125 0 
L 43.21875 0 
L 43.21875 8.296875 
Q 40.140625 3.328125 35.546875 0.953125 
Q 30.953125 -1.421875 24.3125 -1.421875 
Q 15.921875 -1.421875 10.953125 3.296875 
Q 6 8.015625 6 15.921875 
Q 6 25.140625 12.171875 29.828125 
Q 18.359375 34.515625 30.609375 34.515625 
L 43.21875 34.515625 
L 43.21875 35.40625 
Q 43.21875 41.609375 39.140625 45 
Q 35.0625 48.390625 27.6875 48.390625 
Q 23 48.390625 18.546875 47.265625 
Q 14.109375 46.140625 10.015625 43.890625 
L 10.015625 52.203125 
Q 14.9375 54.109375 19.578125 55.046875 
Q 24.21875 56 28.609375 56 
Q 40.484375 56 46.34375 49.84375 
Q 52.203125 43.703125 52.203125 31.203125 
z
" id="DejaVuSans-97"/>
      <path d="M 44.28125 53.078125 
L 44.28125 44.578125 
Q 40.484375 46.53125 36.375 47.5 
Q 32.28125 48.484375 27.875 48.484375 
Q 21.1875 48.484375 17.84375 46.4375 
Q 14.5 44.390625 14.5 40.28125 
Q 14.5 37.15625 16.890625 35.375 
Q 19.28125 33.59375 26.515625 31.984375 
L 29.59375 31.296875 
Q 39.15625 29.25 43.1875 25.515625 
Q 47.21875 21.78125 47.21875 15.09375 
Q 47.21875 7.46875 41.1875 3.015625 
Q 35.15625 -1.421875 24.609375 -1.421875 
Q 20.21875 -1.421875 15.453125 -0.5625 
Q 10.6875 0.296875 5.421875 2 
L 5.421875 11.28125 
Q 10.40625 8.6875 15.234375 7.390625 
Q 20.0625 6.109375 24.8125 6.109375 
Q 31.15625 6.109375 34.5625 8.28125 
Q 37.984375 10.453125 37.984375 14.40625 
Q 37.984375 18.0625 35.515625 20.015625 
Q 33.0625 21.96875 24.703125 23.78125 
L 21.578125 24.515625 
Q 13.234375 26.265625 9.515625 29.90625 
Q 5.8125 33.546875 5.8125 39.890625 
Q 5.8125 47.609375 11.28125 51.796875 
Q 16.75 56 26.8125 56 
Q 31.78125 56 36.171875 55.265625 
Q 40.578125 54.546875 44.28125 53.078125 
z
" id="DejaVuSans-115"/>
      <path d="M 25.390625 72.90625 
L 33.6875 72.90625 
L 8.296875 -9.28125 
L 0 -9.28125 
z
" id="DejaVuSans-47"/>
      <path d="M 45.40625 46.390625 
L 45.40625 75.984375 
L 54.390625 75.984375 
L 54.390625 0 
L 45.40625 0 
L 45.40625 8.203125 
Q 42.578125 3.328125 38.25 0.953125 
Q 33.9375 -1.421875 27.875 -1.421875 
Q 17.96875 -1.421875 11.734375 6.484375 
Q 5.515625 14.40625 5.515625 27.296875 
Q 5.515625 40.1875 11.734375 48.09375 
Q 17.96875 56 27.875 56 
Q 33.9375 56 38.25 53.625 
Q 42.578125 51.265625 45.40625 46.390625 
z
M 14.796875 27.296875 
Q 14.796875 17.390625 18.875 11.75 
Q 22.953125 6.109375 30.078125 6.109375 
Q 37.203125 6.109375 41.296875 11.75 
Q 45.40625 17.390625 45.40625 27.296875 
Q 45.40625 37.203125 41.296875 42.84375 
Q 37.203125 48.484375 30.078125 48.484375 
Q 22.953125 48.484375 18.875 42.84375 
Q 14.796875 37.203125 14.796875 27.296875 
z
" id="DejaVuSans-100"/>
      <path d="M 9.421875 54.6875 
L 18.40625 54.6875 
L 18.40625 0 
L 9.421875 0 
z
M 9.421875 75.984375 
L 18.40625 75.984375 
L 18.40625 64.59375 
L 9.421875 64.59375 
z
" id="DejaVuSans-105"/>
      <path d="M 52 44.1875 
Q 55.375 50.25 60.0625 53.125 
Q 64.75 56 71.09375 56 
Q 79.640625 56 84.28125 50.015625 
Q 88.921875 44.046875 88.921875 33.015625 
L 88.921875 0 
L 79.890625 0 
L 79.890625 32.71875 
Q 79.890625 40.578125 77.09375 44.375 
Q 74.3125 48.1875 68.609375 48.1875 
Q 61.625 48.1875 57.5625 43.546875 
Q 53.515625 38.921875 53.515625 30.90625 
L 53.515625 0 
L 44.484375 0 
L 44.484375 32.71875 
Q 44.484375 40.625 41.703125 44.40625 
Q 38.921875 48.1875 33.109375 48.1875 
Q 26.21875 48.1875 22.15625 43.53125 
Q 18.109375 38.875 18.109375 30.90625 
L 18.109375 0 
L 9.078125 0 
L 9.078125 54.6875 
L 18.109375 54.6875 
L 18.109375 46.1875 
Q 21.1875 51.21875 25.484375 53.609375 
Q 29.78125 56 35.6875 56 
Q 41.65625 56 45.828125 52.96875 
Q 50 49.953125 52 44.1875 
z
" id="DejaVuSans-109"/>
      <path d="M 54.890625 33.015625 
L 54.890625 0 
L 45.90625 0 
L 45.90625 32.71875 
Q 45.90625 40.484375 42.875 44.328125 
Q 39.84375 48.1875 33.796875 48.1875 
Q 26.515625 48.1875 22.3125 43.546875 
Q 18.109375 38.921875 18.109375 30.90625 
L 18.109375 0 
L 9.078125 0 
L 9.078125 54.6875 
L 18.109375 54.6875 
L 18.109375 46.1875 
Q 21.34375 51.125 25.703125 53.5625 
Q 30.078125 56 35.796875 56 
Q 45.21875 56 50.046875 50.171875 
Q 54.890625 44.34375 54.890625 33.015625 
z
" id="DejaVuSans-110"/>
      <path d="M 8.015625 75.875 
L 15.828125 75.875 
Q 23.140625 64.359375 26.78125 53.3125 
Q 30.421875 42.28125 30.421875 31.390625 
Q 30.421875 20.453125 26.78125 9.375 
Q 23.140625 -1.703125 15.828125 -13.1875 
L 8.015625 -13.1875 
Q 14.5 -2 17.703125 9.0625 
Q 20.90625 20.125 20.90625 31.390625 
Q 20.90625 42.671875 17.703125 53.65625 
Q 14.5 64.65625 8.015625 75.875 
z
" id="DejaVuSans-41"/>
     </defs>
     <g transform="translate(77.303219 342.217594)scale(0.17 -0.17)">
      <use xlink:href="#DejaVuSans-108"/>
      <use x="27.783203" xlink:href="#DejaVuSans-111"/>
      <use x="88.964844" xlink:href="#DejaVuSans-103"/>
      <use x="152.441406" xlink:href="#DejaVuSans-49"/>
      <use x="216.064453" xlink:href="#DejaVuSans-48"/>
      <use x="279.6875" xlink:href="#DejaVuSans-40"/>
      <use x="318.701172" xlink:href="#DejaVuSans-35"/>
      <use x="402.490234" xlink:href="#DejaVuSans-32"/>
      <use x="434.277344" xlink:href="#DejaVuSans-102"/>
      <use x="469.404297" xlink:href="#DejaVuSans-45"/>
      <use x="505.488281" xlink:href="#DejaVuSans-101"/>
      <use x="567.011719" xlink:href="#DejaVuSans-118"/>
      <use x="626.191406" xlink:href="#DejaVuSans-97"/>
      <use x="687.470703" xlink:href="#DejaVuSans-108"/>
      <use x="715.253906" xlink:href="#DejaVuSans-115"/>
      <use x="767.353516" xlink:href="#DejaVuSans-32"/>
      <use x="799.140625" xlink:href="#DejaVuSans-47"/>
      <use x="832.832031" xlink:href="#DejaVuSans-32"/>
      <use x="864.619141" xlink:href="#DejaVuSans-100"/>
      <use x="928.095703" xlink:href="#DejaVuSans-105"/>
      <use x="955.878906" xlink:href="#DejaVuSans-109"/>
      <use x="1053.291016" xlink:href="#DejaVuSans-101"/>
      <use x="1114.814453" xlink:href="#DejaVuSans-110"/>
      <use x="1178.193359" xlink:href="#DejaVuSans-115"/>
      <use x="1230.292969" xlink:href="#DejaVuSans-105"/>
      <use x="1258.076172" xlink:href="#DejaVuSans-111"/>
      <use x="1319.257812" xlink:href="#DejaVuSans-110"/>
      <use x="1382.636719" xlink:href="#DejaVuSans-41"/>
     </g>
    </g>
   </g>
   <g id="matplotlib.axis_2">
    <g id="ytick_1">
     <g id="line2d_29">
      <path clip-path="url(#p18eb120f83)" d="M 57.6 298.944 
L 338.688 298.944 
" style="fill:none;stroke:#b0b0b0;stroke-linecap:square;stroke-width:0.8;"/>
     </g>
     <g id="line2d_30">
      <defs>
       <path d="M 0 0 
L -3.5 0 
" id="m2e3287c375" style="stroke:#000000;stroke-width:0.8;"/>
      </defs>
      <g>
       <use style="stroke:#000000;stroke-width:0.8;" x="57.6" xlink:href="#m2e3287c375" y="298.944"/>
      </g>
     </g>
     <g id="text_6">
      <!-- 0.0 -->
      <defs>
       <path d="M 10.6875 12.40625 
L 21 12.40625 
L 21 0 
L 10.6875 0 
z
" id="DejaVuSans-46"/>
      </defs>
      <g transform="translate(25.155 305.02275)scale(0.16 -0.16)">
       <use xlink:href="#DejaVuSans-48"/>
       <use x="63.623047" xlink:href="#DejaVuSans-46"/>
       <use x="95.410156" xlink:href="#DejaVuSans-48"/>
      </g>
     </g>
    </g>
    <g id="ytick_2">
     <g id="line2d_31">
      <path clip-path="url(#p18eb120f83)" d="M 57.6 247.959446 
L 338.688 247.959446 
" style="fill:none;stroke:#b0b0b0;stroke-linecap:square;stroke-width:0.8;"/>
     </g>
     <g id="line2d_32">
      <g>
       <use style="stroke:#000000;stroke-width:0.8;" x="57.6" xlink:href="#m2e3287c375" y="247.959446"/>
      </g>
     </g>
     <g id="text_7">
      <!-- 0.2 -->
      <g transform="translate(25.155 254.038196)scale(0.16 -0.16)">
       <use xlink:href="#DejaVuSans-48"/>
       <use x="63.623047" xlink:href="#DejaVuSans-46"/>
       <use x="95.410156" xlink:href="#DejaVuSans-50"/>
      </g>
     </g>
    </g>
    <g id="ytick_3">
     <g id="line2d_33">
      <path clip-path="url(#p18eb120f83)" d="M 57.6 196.974891 
L 338.688 196.974891 
" style="fill:none;stroke:#b0b0b0;stroke-linecap:square;stroke-width:0.8;"/>
     </g>
     <g id="line2d_34">
      <g>
       <use style="stroke:#000000;stroke-width:0.8;" x="57.6" xlink:href="#m2e3287c375" y="196.974891"/>
      </g>
     </g>
     <g id="text_8">
      <!-- 0.4 -->
      <g transform="translate(25.155 203.053641)scale(0.16 -0.16)">
       <use xlink:href="#DejaVuSans-48"/>
       <use x="63.623047" xlink:href="#DejaVuSans-46"/>
       <use x="95.410156" xlink:href="#DejaVuSans-52"/>
      </g>
     </g>
    </g>
    <g id="ytick_4">
     <g id="line2d_35">
      <path clip-path="url(#p18eb120f83)" d="M 57.6 145.990337 
L 338.688 145.990337 
" style="fill:none;stroke:#b0b0b0;stroke-linecap:square;stroke-width:0.8;"/>
     </g>
     <g id="line2d_36">
      <g>
       <use style="stroke:#000000;stroke-width:0.8;" x="57.6" xlink:href="#m2e3287c375" y="145.990337"/>
      </g>
     </g>
     <g id="text_9">
      <!-- 0.6 -->
      <g transform="translate(25.155 152.069087)scale(0.16 -0.16)">
       <use xlink:href="#DejaVuSans-48"/>
       <use x="63.623047" xlink:href="#DejaVuSans-46"/>
       <use x="95.410156" xlink:href="#DejaVuSans-54"/>
      </g>
     </g>
    </g>
    <g id="ytick_5">
     <g id="line2d_37">
      <path clip-path="url(#p18eb120f83)" d="M 57.6 95.005782 
L 338.688 95.005782 
" style="fill:none;stroke:#b0b0b0;stroke-linecap:square;stroke-width:0.8;"/>
     </g>
     <g id="line2d_38">
      <g>
       <use style="stroke:#000000;stroke-width:0.8;" x="57.6" xlink:href="#m2e3287c375" y="95.005782"/>
      </g>
     </g>
     <g id="text_10">
      <!-- 0.8 -->
      <defs>
       <path d="M 31.78125 34.625 
Q 24.75 34.625 20.71875 30.859375 
Q 16.703125 27.09375 16.703125 20.515625 
Q 16.703125 13.921875 20.71875 10.15625 
Q 24.75 6.390625 31.78125 6.390625 
Q 38.8125 6.390625 42.859375 10.171875 
Q 46.921875 13.96875 46.921875 20.515625 
Q 46.921875 27.09375 42.890625 30.859375 
Q 38.875 34.625 31.78125 34.625 
z
M 21.921875 38.8125 
Q 15.578125 40.375 12.03125 44.71875 
Q 8.5 49.078125 8.5 55.328125 
Q 8.5 64.0625 14.71875 69.140625 
Q 20.953125 74.21875 31.78125 74.21875 
Q 42.671875 74.21875 48.875 69.140625 
Q 55.078125 64.0625 55.078125 55.328125 
Q 55.078125 49.078125 51.53125 44.71875 
Q 48 40.375 41.703125 38.8125 
Q 48.828125 37.15625 52.796875 32.3125 
Q 56.78125 27.484375 56.78125 20.515625 
Q 56.78125 9.90625 50.3125 4.234375 
Q 43.84375 -1.421875 31.78125 -1.421875 
Q 19.734375 -1.421875 13.25 4.234375 
Q 6.78125 9.90625 6.78125 20.515625 
Q 6.78125 27.484375 10.78125 32.3125 
Q 14.796875 37.15625 21.921875 38.8125 
z
M 18.3125 54.390625 
Q 18.3125 48.734375 21.84375 45.5625 
Q 25.390625 42.390625 31.78125 42.390625 
Q 38.140625 42.390625 41.71875 45.5625 
Q 45.3125 48.734375 45.3125 54.390625 
Q 45.3125 60.0625 41.71875 63.234375 
Q 38.140625 66.40625 31.78125 66.40625 
Q 25.390625 66.40625 21.84375 63.234375 
Q 18.3125 60.0625 18.3125 54.390625 
z
" id="DejaVuSans-56"/>
      </defs>
      <g transform="translate(25.155 101.084532)scale(0.16 -0.16)">
       <use xlink:href="#DejaVuSans-48"/>
       <use x="63.623047" xlink:href="#DejaVuSans-46"/>
       <use x="95.410156" xlink:href="#DejaVuSans-56"/>
      </g>
     </g>
    </g>
    <g id="ytick_6">
     <g id="line2d_39">
      <path clip-path="url(#p18eb120f83)" d="M 57.6 44.021228 
L 338.688 44.021228 
" style="fill:none;stroke:#b0b0b0;stroke-linecap:square;stroke-width:0.8;"/>
     </g>
     <g id="line2d_40">
      <g>
       <use style="stroke:#000000;stroke-width:0.8;" x="57.6" xlink:href="#m2e3287c375" y="44.021228"/>
      </g>
     </g>
     <g id="text_11">
      <!-- 1.0 -->
      <g transform="translate(25.155 50.099978)scale(0.16 -0.16)">
       <use xlink:href="#DejaVuSans-49"/>
       <use x="63.623047" xlink:href="#DejaVuSans-46"/>
       <use x="95.410156" xlink:href="#DejaVuSans-48"/>
      </g>
     </g>
    </g>
    <g id="text_12">
     <!-- Fraction of function,target pairs -->
     <defs>
      <path d="M 9.8125 72.90625 
L 51.703125 72.90625 
L 51.703125 64.59375 
L 19.671875 64.59375 
L 19.671875 43.109375 
L 48.578125 43.109375 
L 48.578125 34.8125 
L 19.671875 34.8125 
L 19.671875 0 
L 9.8125 0 
z
" id="DejaVuSans-70"/>
      <path d="M 41.109375 46.296875 
Q 39.59375 47.171875 37.8125 47.578125 
Q 36.03125 48 33.890625 48 
Q 26.265625 48 22.1875 43.046875 
Q 18.109375 38.09375 18.109375 28.8125 
L 18.109375 0 
L 9.078125 0 
L 9.078125 54.6875 
L 18.109375 54.6875 
L 18.109375 46.1875 
Q 20.953125 51.171875 25.484375 53.578125 
Q 30.03125 56 36.53125 56 
Q 37.453125 56 38.578125 55.875 
Q 39.703125 55.765625 41.0625 55.515625 
z
" id="DejaVuSans-114"/>
      <path d="M 48.78125 52.59375 
L 48.78125 44.1875 
Q 44.96875 46.296875 41.140625 47.34375 
Q 37.3125 48.390625 33.40625 48.390625 
Q 24.65625 48.390625 19.8125 42.84375 
Q 14.984375 37.3125 14.984375 27.296875 
Q 14.984375 17.28125 19.8125 11.734375 
Q 24.65625 6.203125 33.40625 6.203125 
Q 37.3125 6.203125 41.140625 7.25 
Q 44.96875 8.296875 48.78125 10.40625 
L 48.78125 2.09375 
Q 45.015625 0.34375 40.984375 -0.53125 
Q 36.96875 -1.421875 32.421875 -1.421875 
Q 20.0625 -1.421875 12.78125 6.34375 
Q 5.515625 14.109375 5.515625 27.296875 
Q 5.515625 40.671875 12.859375 48.328125 
Q 20.21875 56 33.015625 56 
Q 37.15625 56 41.109375 55.140625 
Q 45.0625 54.296875 48.78125 52.59375 
z
" id="DejaVuSans-99"/>
      <path d="M 18.3125 70.21875 
L 18.3125 54.6875 
L 36.8125 54.6875 
L 36.8125 47.703125 
L 18.3125 47.703125 
L 18.3125 18.015625 
Q 18.3125 11.328125 20.140625 9.421875 
Q 21.96875 7.515625 27.59375 7.515625 
L 36.8125 7.515625 
L 36.8125 0 
L 27.59375 0 
Q 17.1875 0 13.234375 3.875 
Q 9.28125 7.765625 9.28125 18.015625 
L 9.28125 47.703125 
L 2.6875 47.703125 
L 2.6875 54.6875 
L 9.28125 54.6875 
L 9.28125 70.21875 
z
" id="DejaVuSans-116"/>
      <path d="M 8.5 21.578125 
L 8.5 54.6875 
L 17.484375 54.6875 
L 17.484375 21.921875 
Q 17.484375 14.15625 20.5 10.265625 
Q 23.53125 6.390625 29.59375 6.390625 
Q 36.859375 6.390625 41.078125 11.03125 
Q 45.3125 15.671875 45.3125 23.6875 
L 45.3125 54.6875 
L 54.296875 54.6875 
L 54.296875 0 
L 45.3125 0 
L 45.3125 8.40625 
Q 42.046875 3.421875 37.71875 1 
Q 33.40625 -1.421875 27.6875 -1.421875 
Q 18.265625 -1.421875 13.375 4.4375 
Q 8.5 10.296875 8.5 21.578125 
z
M 31.109375 56 
z
" id="DejaVuSans-117"/>
      <path d="M 11.71875 12.40625 
L 22.015625 12.40625 
L 22.015625 4 
L 14.015625 -11.625 
L 7.71875 -11.625 
L 11.71875 4 
z
" id="DejaVuSans-44"/>
      <path d="M 18.109375 8.203125 
L 18.109375 -20.796875 
L 9.078125 -20.796875 
L 9.078125 54.6875 
L 18.109375 54.6875 
L 18.109375 46.390625 
Q 20.953125 51.265625 25.265625 53.625 
Q 29.59375 56 35.59375 56 
Q 45.5625 56 51.78125 48.09375 
Q 58.015625 40.1875 58.015625 27.296875 
Q 58.015625 14.40625 51.78125 6.484375 
Q 45.5625 -1.421875 35.59375 -1.421875 
Q 29.59375 -1.421875 25.265625 0.953125 
Q 20.953125 3.328125 18.109375 8.203125 
z
M 48.6875 27.296875 
Q 48.6875 37.203125 44.609375 42.84375 
Q 40.53125 48.484375 33.40625 48.484375 
Q 26.265625 48.484375 22.1875 42.84375 
Q 18.109375 37.203125 18.109375 27.296875 
Q 18.109375 17.390625 22.1875 11.75 
Q 26.265625 6.109375 33.40625 6.109375 
Q 40.53125 6.109375 44.609375 11.75 
Q 48.6875 17.390625 48.6875 27.296875 
z
" id="DejaVuSans-112"/>
     </defs>
     <g transform="translate(17.619531 305.347375)rotate(-90)scale(0.17 -0.17)">
      <use xlink:href="#DejaVuSans-70"/>
      <use x="57.410156" xlink:href="#DejaVuSans-114"/>
      <use x="98.523438" xlink:href="#DejaVuSans-97"/>
      <use x="159.802734" xlink:href="#DejaVuSans-99"/>
      <use x="214.783203" xlink:href="#DejaVuSans-116"/>
      <use x="253.992188" xlink:href="#DejaVuSans-105"/>
      <use x="281.775391" xlink:href="#DejaVuSans-111"/>
      <use x="342.957031" xlink:href="#DejaVuSans-110"/>
      <use x="406.335938" xlink:href="#DejaVuSans-32"/>
      <use x="438.123047" xlink:href="#DejaVuSans-111"/>
      <use x="499.304688" xlink:href="#DejaVuSans-102"/>
      <use x="534.509766" xlink:href="#DejaVuSans-32"/>
      <use x="566.296875" xlink:href="#DejaVuSans-102"/>
      <use x="601.501953" xlink:href="#DejaVuSans-117"/>
      <use x="664.880859" xlink:href="#DejaVuSans-110"/>
      <use x="728.259766" xlink:href="#DejaVuSans-99"/>
      <use x="783.240234" xlink:href="#DejaVuSans-116"/>
      <use x="822.449219" xlink:href="#DejaVuSans-105"/>
      <use x="850.232422" xlink:href="#DejaVuSans-111"/>
      <use x="911.414062" xlink:href="#DejaVuSans-110"/>
      <use x="974.792969" xlink:href="#DejaVuSans-44"/>
      <use x="1006.580078" xlink:href="#DejaVuSans-116"/>
      <use x="1045.789062" xlink:href="#DejaVuSans-97"/>
      <use x="1107.068359" xlink:href="#DejaVuSans-114"/>
      <use x="1148.166016" xlink:href="#DejaVuSans-103"/>
      <use x="1211.642578" xlink:href="#DejaVuSans-101"/>
      <use x="1273.166016" xlink:href="#DejaVuSans-116"/>
      <use x="1312.375" xlink:href="#DejaVuSans-32"/>
      <use x="1344.162109" xlink:href="#DejaVuSans-112"/>
      <use x="1407.638672" xlink:href="#DejaVuSans-97"/>
      <use x="1468.917969" xlink:href="#DejaVuSans-105"/>
      <use x="1496.701172" xlink:href="#DejaVuSans-114"/>
      <use x="1537.814453" xlink:href="#DejaVuSans-115"/>
     </g>
    </g>
   </g>
   <g id="line2d_41">
    <defs>
     <path d="M 0 1.5 
C 0.397805 1.5 0.77937 1.341951 1.06066 1.06066 
C 1.341951 0.77937 1.5 0.397805 1.5 0 
C 1.5 -0.397805 1.341951 -0.77937 1.06066 -1.06066 
C 0.77937 -1.341951 0.397805 -1.5 0 -1.5 
C -0.397805 -1.5 -0.77937 -1.341951 -1.06066 -1.06066 
C -1.341951 -0.77937 -1.5 -0.397805 -1.5 0 
C -1.5 0.397805 -1.341951 0.77937 -1.06066 1.06066 
C -0.77937 1.341951 -0.397805 1.5 0 1.5 
z
" id="m370d729170" style="stroke:#f5deb3;"/>
    </defs>
    <g>
     <use style="fill:#f5deb3;stroke:#f5deb3;" x="245.22882" xlink:href="#m370d729170" y="74.787769"/>
     <use style="fill:#f5deb3;stroke:#f5deb3;" x="245.22882" xlink:href="#m370d729170" y="74.787769"/>
    </g>
   </g>
   <g id="line2d_42">
    <defs>
     <path d="M 0 1.5 
C 0.397805 1.5 0.77937 1.341951 1.06066 1.06066 
C 1.341951 0.77937 1.5 0.397805 1.5 0 
C 1.5 -0.397805 1.341951 -0.77937 1.06066 -1.06066 
C 0.77937 -1.341951 0.397805 -1.5 0 -1.5 
C -0.397805 -1.5 -0.77937 -1.341951 -1.06066 -1.06066 
C -1.341951 -0.77937 -1.5 -0.397805 -1.5 0 
C -1.5 0.397805 -1.341951 0.77937 -1.06066 1.06066 
C -0.77937 1.341951 -0.397805 1.5 0 1.5 
z
" id="m7efecd2743" style="stroke:#000080;"/>
    </defs>
    <g>
     <use style="fill:#000080;stroke:#000080;" x="194.29851" xlink:href="#m7efecd2743" y="271.254113"/>
     <use style="fill:#000080;stroke:#000080;" x="194.29851" xlink:href="#m7efecd2743" y="271.254113"/>
    </g>
   </g>
   <g id="line2d_43">
    <path d="M 45.512012 298.944 
L 45.512012 295.427824 
L 149.557321 295.427824 
L 149.557321 294.988302 
L 149.646525 294.988302 
L 149.646525 294.54878 
L 149.735275 294.54878 
L 149.735275 293.230214 
L 149.867558 293.230214 
L 149.867558 292.790692 
L 149.911431 292.790692 
L 149.911431 291.911648 
L 149.998846 291.911648 
L 149.998846 291.472126 
L 150.042389 291.472126 
L 150.042389 290.15356 
L 150.085825 290.15356 
L 150.085825 289.714038 
L 150.215485 289.714038 
L 150.215485 288.395471 
L 150.258492 288.395471 
L 150.258492 287.955949 
L 150.344189 287.955949 
L 150.344189 286.637383 
L 150.640855 286.637383 
L 150.640855 286.197861 
L 150.682827 286.197861 
L 150.682827 285.318817 
L 150.973835 285.318817 
L 150.973835 284.439773 
L 151.097081 284.439773 
L 151.097081 283.121207 
L 151.260066 283.121207 
L 151.260066 281.802641 
L 151.740076 281.802641 
L 151.740076 281.363119 
L 151.818809 281.363119 
L 151.818809 280.484075 
L 151.975216 280.484075 
L 151.975216 280.044553 
L 152.0141 280.044553 
L 152.0141 279.605031 
L 152.168773 279.605031 
L 152.168773 278.725987 
L 152.207228 278.725987 
L 152.207228 278.286465 
L 152.245598 278.286465 
L 152.245598 277.407421 
L 152.360205 277.407421 
L 152.360205 276.967899 
L 153.323128 276.967899 
L 153.323128 276.528377 
L 155.55245 276.528377 
L 155.55245 276.088855 
L 160.844678 276.088855 
L 160.844678 275.649333 
L 165.338904 275.649333 
L 165.338904 275.209811 
L 165.855793 275.209811 
L 165.855793 274.330767 
L 165.873346 274.330767 
L 165.873346 273.891245 
L 165.978297 273.891245 
L 165.978297 273.451723 
L 166.186323 273.451723 
L 166.186323 273.012201 
L 168.611679 273.012201 
L 168.611679 272.572679 
L 186.894312 272.572679 
L 186.894312 272.133157 
L 193.732522 272.133157 
L 193.732522 271.693635 
L 194.29851 271.693635 
L 194.29851 271.254113 
L 338.688 271.254113 
" style="fill:none;stroke:#000080;stroke-linecap:square;stroke-width:1.5;"/>
   </g>
   <g id="line2d_44">
    <defs>
     <path d="M 0 6 
C 1.591219 6 3.117479 5.367802 4.242641 4.242641 
C 5.367802 3.117479 6 1.591219 6 0 
C 6 -1.591219 5.367802 -3.117479 4.242641 -4.242641 
C 3.117479 -5.367802 1.591219 -6 0 -6 
C -1.591219 -6 -3.117479 -5.367802 -4.242641 -4.242641 
C -5.367802 -3.117479 -6 -1.591219 -6 0 
C -6 1.591219 -5.367802 3.117479 -4.242641 4.242641 
C -3.117479 5.367802 -1.591219 6 0 6 
z
" id="mde100d3df8" style="stroke:#000080;stroke-width:1.5;"/>
    </defs>
    <g>
     <use style="fill-opacity:0;stroke:#000080;stroke-width:1.5;" x="168.611679" xlink:href="#mde100d3df8" y="273.012201"/>
     <use style="fill-opacity:0;stroke:#000080;stroke-width:1.5;" x="194.29851" xlink:href="#mde100d3df8" y="271.693635"/>
     <use style="fill-opacity:0;stroke:#000080;stroke-width:1.5;" x="194.29851" xlink:href="#mde100d3df8" y="271.254113"/>
     <use style="fill-opacity:0;stroke:#000080;stroke-width:1.5;" x="194.29851" xlink:href="#mde100d3df8" y="271.254113"/>
     <use style="fill-opacity:0;stroke:#000080;stroke-width:1.5;" x="338.688" xlink:href="#mde100d3df8" y="271.254113"/>
    </g>
   </g>
   <g id="line2d_45">
    <path style="fill:none;stroke:#000080;stroke-linecap:square;stroke-width:1.5;"/>
    <g/>
   </g>
   <g id="line2d_46">
    <path clip-path="url(#p18eb120f83)" d="M 193.380999 272.133157 
" style="fill:none;stroke:#000080;stroke-linecap:square;stroke-width:1.5;"/>
    <defs>
     <path d="M -12 12 
L 12 -12 
M -12 -12 
L 12 12 
" id="m16aede4f22" style="stroke:#000080;"/>
    </defs>
    <g clip-path="url(#p18eb120f83)">
     <use style="fill:#000080;stroke:#000080;" x="193.380999" xlink:href="#m16aede4f22" y="272.133157"/>
    </g>
   </g>
   <g id="line2d_47">
    <defs>
     <path d="M 0 1.5 
C 0.397805 1.5 0.77937 1.341951 1.06066 1.06066 
C 1.341951 0.77937 1.5 0.397805 1.5 0 
C 1.5 -0.397805 1.341951 -0.77937 1.06066 -1.06066 
C 0.77937 -1.341951 0.397805 -1.5 0 -1.5 
C -0.397805 -1.5 -0.77937 -1.341951 -1.06066 -1.06066 
C -1.341951 -0.77937 -1.5 -0.397805 -1.5 0 
C -1.5 0.397805 -1.341951 0.77937 -1.06066 1.06066 
C -0.77937 1.341951 -0.397805 1.5 0 1.5 
z
" id="m0a6357a692" style="stroke:#ff00ff;"/>
    </defs>
    <g>
     <use style="fill:#ff00ff;stroke:#ff00ff;" x="257.726439" xlink:href="#m0a6357a692" y="128.409456"/>
     <use style="fill:#ff00ff;stroke:#ff00ff;" x="257.726439" xlink:href="#m0a6357a692" y="128.409456"/>
    </g>
   </g>
   <g id="line2d_48">
    <path d="M 128.856489 298.944 
L 128.856489 297.625434 
L 142.07914 297.625434 
L 142.07914 296.74639 
L 142.752555 296.74639 
L 142.752555 296.306868 
L 142.884173 296.306868 
L 142.884173 294.988302 
L 144.087359 294.988302 
L 144.087359 294.54878 
L 145.097753 294.54878 
L 145.097753 294.109258 
L 145.497361 294.109258 
L 145.497361 293.230214 
L 146.696785 293.230214 
L 146.696785 292.790692 
L 146.854132 292.790692 
L 146.854132 292.35117 
L 147.419225 292.35117 
L 147.419225 291.032604 
L 147.620256 291.032604 
L 147.620256 290.593082 
L 148.112924 290.593082 
L 148.112924 290.15356 
L 148.733265 290.15356 
L 148.733265 289.714038 
L 149.911431 289.714038 
L 149.911431 288.834994 
L 150.085825 288.834994 
L 150.085825 287.955949 
L 150.598782 287.955949 
L 150.682827 286.637383 
L 151.936246 286.637383 
L 151.936246 286.197861 
L 152.398241 286.197861 
L 152.474064 284.879295 
L 152.511852 284.879295 
L 152.511852 284.439773 
L 152.774102 284.439773 
L 152.774102 283.121207 
L 152.922207 283.121207 
L 152.922207 282.681685 
L 153.466662 282.681685 
L 153.466662 282.242163 
L 154.132765 282.242163 
L 154.132765 281.363119 
L 154.337936 281.363119 
L 154.337936 280.923597 
L 154.473387 280.923597 
L 154.473387 280.484075 
L 154.707925 280.484075 
L 154.707925 279.605031 
L 154.840544 279.605031 
L 154.93935 278.725987 
L 155.167744 278.725987 
L 155.264719 277.846943 
L 155.361158 277.846943 
L 155.361158 277.407421 
L 155.710272 277.407421 
L 155.710272 276.088855 
L 155.928852 276.088855 
L 155.928852 275.649333 
L 156.357959 275.649333 
L 156.357959 274.330767 
L 156.865211 274.330767 
L 156.865211 273.891245 
L 157.243392 273.891245 
L 157.243392 273.012201 
L 157.500487 273.012201 
L 157.557108 272.133157 
L 158.086033 272.133157 
L 158.140788 270.375069 
L 158.412011 270.375069 
L 158.438903 268.616981 
L 158.599388 268.616981 
L 158.599388 267.298414 
L 158.784773 267.298414 
L 158.784773 266.41937 
L 159.252621 266.41937 
L 159.252621 264.661282 
L 159.431225 264.661282 
L 159.431225 264.22176 
L 159.633129 264.22176 
L 159.708245 262.903194 
L 160.005512 262.903194 
L 160.103486 262.02415 
L 160.127894 262.02415 
L 160.127894 261.145106 
L 160.273627 261.145106 
L 160.273627 260.705584 
L 160.442124 260.705584 
L 160.442124 260.266062 
L 160.585265 260.266062 
L 160.585265 259.82654 
L 160.86807 259.82654 
L 160.86807 259.387018 
L 161.054091 259.387018 
L 161.12334 258.068452 
L 161.306672 258.068452 
L 161.306672 257.62893 
L 161.555647 257.62893 
L 161.555647 257.189408 
L 161.977497 257.189408 
L 162.086834 256.310364 
L 162.130378 256.310364 
L 162.152109 255.43132 
L 162.281931 255.43132 
L 162.281931 254.552276 
L 162.53871 254.552276 
L 162.581141 253.23371 
L 162.749842 253.23371 
L 162.749842 252.354666 
L 163.061823 252.354666 
L 163.164589 251.475622 
L 163.965615 251.475622 
L 163.965615 251.0361 
L 164.314412 251.0361 
L 164.314412 250.596578 
L 164.768882 250.596578 
L 164.768882 249.717534 
L 164.917777 249.717534 
L 164.917777 248.83849 
L 165.065412 248.83849 
L 165.065412 247.959446 
L 165.193576 247.959446 
L 165.302685 245.322313 
L 165.697012 245.322313 
L 165.697012 244.443269 
L 166.08262 244.443269 
L 166.08262 243.124703 
L 166.357802 243.124703 
L 166.357802 242.245659 
L 166.628709 242.245659 
L 166.628709 241.366615 
L 166.812546 241.366615 
L 166.812546 240.487571 
L 167.513144 240.487571 
L 167.592812 238.729483 
L 167.798261 238.729483 
L 167.798261 238.289961 
L 168.491304 238.289961 
L 168.491304 237.850439 
L 168.686493 237.850439 
L 168.686493 236.971395 
L 168.894283 236.971395 
L 168.894283 236.531873 
L 169.011918 236.531873 
L 169.011918 236.092351 
L 169.302579 236.092351 
L 169.316986 234.334263 
L 169.488944 234.334263 
L 169.488944 233.455219 
L 170.51345 233.455219 
L 170.51345 232.576175 
L 170.634045 232.576175 
L 170.713981 230.378565 
L 170.780315 230.378565 
L 170.780315 229.939043 
L 171.003983 229.939043 
L 171.003983 229.499521 
L 171.224819 229.499521 
L 171.224819 228.620477 
L 171.442893 228.620477 
L 171.442893 228.180955 
L 171.970255 228.180955 
L 171.970255 227.301911 
L 172.167033 227.301911 
L 172.276753 225.543822 
L 172.554051 225.543822 
L 172.554051 224.664778 
L 172.791647 224.664778 
L 172.791647 224.225256 
L 173.406055 224.225256 
L 173.406055 223.785734 
L 173.519593 223.785734 
L 173.519593 222.90669 
L 173.699729 222.90669 
L 173.699729 222.027646 
L 174.087407 222.027646 
L 174.142093 219.830036 
L 174.509477 219.830036 
L 174.509477 218.950992 
L 175.405599 218.950992 
L 175.415753 218.071948 
L 176.043814 218.071948 
L 176.043814 217.632426 
L 178.075003 217.632426 
L 178.075003 216.753382 
L 178.282926 216.753382 
L 178.282926 216.31386 
L 178.590234 216.31386 
L 178.590234 215.874338 
L 179.286902 215.874338 
L 179.295031 214.555772 
L 179.625071 214.555772 
L 179.633043 213.676728 
L 180.579292 213.676728 
L 180.579292 212.797684 
L 181.231304 212.797684 
L 181.231304 211.91864 
L 181.669373 211.91864 
L 181.669373 211.479118 
L 181.824704 211.479118 
L 181.824704 211.039596 
L 183.402933 211.039596 
L 183.402933 210.600074 
L 184.101478 210.600074 
L 184.101478 210.160552 
L 185.692252 210.160552 
L 185.692252 209.281508 
L 186.043446 209.281508 
L 186.043446 208.841986 
L 186.999115 208.841986 
L 186.999115 208.402464 
L 187.69555 208.402464 
L 187.69555 207.962942 
L 192.060435 207.962942 
L 192.060435 207.083898 
L 192.227692 207.083898 
L 192.227692 206.204854 
L 193.686297 206.204854 
L 193.686297 205.325809 
L 195.433037 205.325809 
L 195.433037 204.886287 
L 195.97221 204.886287 
L 195.97221 204.446765 
L 196.090485 204.446765 
L 196.090485 203.567721 
L 199.126243 203.567721 
L 199.126243 202.688677 
L 202.634561 202.688677 
L 202.634561 202.249155 
L 204.715589 202.249155 
L 204.715589 201.809633 
L 205.783185 201.809633 
L 205.783185 201.370111 
L 207.370595 201.370111 
L 207.370595 200.930589 
L 209.473855 200.930589 
L 209.558606 200.051545 
L 209.718364 200.051545 
L 209.718364 199.612023 
L 210.054462 199.612023 
L 210.165532 197.853935 
L 210.270397 197.853935 
L 210.270397 197.414413 
L 210.824158 197.414413 
L 210.824158 196.974891 
L 212.025211 196.974891 
L 212.113311 195.216803 
L 212.54363 195.216803 
L 212.54363 194.337759 
L 213.438027 194.337759 
L 213.438027 193.898237 
L 214.370533 193.898237 
L 214.370533 193.458715 
L 214.866887 193.458715 
L 214.866887 193.019193 
L 220.488386 193.019193 
L 220.488386 192.579671 
L 220.684823 192.579671 
L 220.780712 190.382061 
L 220.927671 190.382061 
L 221.009608 188.623973 
L 221.228202 188.623973 
L 221.228202 188.184451 
L 221.543834 188.184451 
L 221.543834 187.305407 
L 221.683812 187.305407 
L 221.683812 186.865885 
L 223.252629 186.865885 
L 223.252629 185.986841 
L 225.521427 185.986841 
L 225.521427 185.547319 
L 226.023604 185.547319 
L 226.023604 184.668274 
L 226.579891 184.668274 
L 226.579891 184.228752 
L 228.020827 184.228752 
L 228.075921 183.349708 
L 228.461146 183.349708 
L 228.461146 182.470664 
L 229.143225 182.470664 
L 229.143225 182.031142 
L 229.688842 182.031142 
L 229.688842 181.152098 
L 229.864153 181.152098 
L 229.864153 180.712576 
L 230.001813 180.712576 
L 230.001813 179.833532 
L 232.110017 179.833532 
L 232.172035 178.514966 
L 232.362592 178.514966 
L 232.440319 177.635922 
L 232.593977 177.635922 
L 232.626837 175.877834 
L 232.912693 175.877834 
L 232.94046 174.99879 
L 233.16028 174.99879 
L 233.16028 174.559268 
L 233.27578 174.559268 
L 233.293793 173.680224 
L 233.523378 173.680224 
L 233.523378 173.240702 
L 233.736732 173.240702 
L 233.736732 172.361658 
L 234.39678 172.361658 
L 234.463561 171.043092 
L 234.677665 171.043092 
L 234.746086 169.724526 
L 235.08356 169.724526 
L 235.08356 169.285004 
L 235.315114 169.285004 
L 235.315114 168.845482 
L 235.8303 168.845482 
L 235.8303 167.526916 
L 236.331628 167.526916 
L 236.402786 166.647872 
L 236.535699 166.647872 
L 236.625467 164.889784 
L 236.868403 164.889784 
L 236.868403 164.450262 
L 237.045299 164.450262 
L 237.089097 162.692173 
L 237.176068 162.692173 
L 237.176068 162.252651 
L 237.294476 162.252651 
L 237.380723 161.373607 
L 237.559141 161.373607 
L 237.559141 160.934085 
L 238.263116 160.934085 
L 238.263116 160.055041 
L 238.502685 160.055041 
L 238.502685 159.615519 
L 238.985166 159.615519 
L 238.985166 158.296953 
L 239.270722 158.296953 
L 239.270722 157.857431 
L 239.413317 157.857431 
L 239.413317 157.417909 
L 239.539611 157.417909 
L 239.619297 155.659821 
L 239.704727 155.659821 
L 239.782144 153.462211 
L 239.841307 153.462211 
L 239.841307 153.022689 
L 240.202521 153.022689 
L 240.202521 152.583167 
L 240.500107 152.583167 
L 240.561006 150.825079 
L 241.32373 150.825079 
L 241.32373 150.385557 
L 242.025117 150.385557 
L 242.079593 149.066991 
L 244.144642 149.066991 
L 244.144642 148.627469 
L 245.055984 148.627469 
L 245.055984 148.187947 
L 245.502791 148.187947 
L 245.502791 147.308903 
L 245.619342 147.308903 
L 245.619342 146.429859 
L 246.325738 146.429859 
L 246.351649 145.111293 
L 246.490458 145.111293 
L 246.597529 142.034638 
L 246.692703 142.034638 
L 246.771422 140.716072 
L 246.805654 140.716072 
L 246.902902 139.837028 
L 247.033565 139.837028 
L 247.033565 139.397506 
L 247.305322 139.397506 
L 247.305322 138.518462 
L 247.516274 138.518462 
L 247.516274 138.07894 
L 247.804666 138.07894 
L 247.804666 137.639418 
L 248.03149 137.639418 
L 248.03149 137.199896 
L 248.36443 137.199896 
L 248.36443 136.320852 
L 248.696602 136.320852 
L 248.696602 135.88133 
L 248.813632 135.88133 
L 248.813632 135.441808 
L 249.498768 135.441808 
L 249.498768 135.002286 
L 249.711598 135.002286 
L 249.711598 134.123242 
L 251.22046 134.123242 
L 251.22046 133.68372 
L 251.818263 133.68372 
L 251.818263 133.244198 
L 252.02683 133.244198 
L 252.02683 132.804676 
L 253.93538 132.804676 
L 253.93538 132.365154 
L 255.11697 132.365154 
L 255.11697 131.925632 
L 255.38568 131.925632 
L 255.38568 131.48611 
L 256.048651 131.48611 
L 256.048651 131.046588 
L 256.321249 131.046588 
L 256.321249 130.167544 
L 256.962411 130.167544 
L 256.962411 129.2885 
L 257.280354 129.2885 
L 257.280354 128.848978 
L 257.726439 128.848978 
L 257.726439 128.409456 
L 338.688 128.409456 
L 338.688 128.409456 
" style="fill:none;stroke:#ff00ff;stroke-linecap:square;stroke-width:1.5;"/>
   </g>
   <g id="line2d_49">
    <defs>
     <path d="M 0 8.485281 
L 5.091169 0 
L 0 -8.485281 
L -5.091169 0 
z
" id="m0c66357adf" style="stroke:#ff00ff;stroke-linejoin:miter;stroke-width:1.5;"/>
    </defs>
    <g>
     <use style="fill-opacity:0;stroke:#ff00ff;stroke-linejoin:miter;stroke-width:1.5;" x="161.555647" xlink:href="#m0c66357adf" y="257.189408"/>
     <use style="fill-opacity:0;stroke:#ff00ff;stroke-linejoin:miter;stroke-width:1.5;" x="205.783185" xlink:href="#m0c66357adf" y="201.809633"/>
     <use style="fill-opacity:0;stroke:#ff00ff;stroke-linejoin:miter;stroke-width:1.5;" x="257.726439" xlink:href="#m0c66357adf" y="128.848978"/>
     <use style="fill-opacity:0;stroke:#ff00ff;stroke-linejoin:miter;stroke-width:1.5;" x="257.726439" xlink:href="#m0c66357adf" y="128.409456"/>
     <use style="fill-opacity:0;stroke:#ff00ff;stroke-linejoin:miter;stroke-width:1.5;" x="338.688" xlink:href="#m0c66357adf" y="128.409456"/>
    </g>
   </g>
   <g id="line2d_50">
    <path style="fill:none;stroke:#ff00ff;stroke-linecap:square;stroke-width:1.5;"/>
    <g/>
   </g>
   <g id="line2d_51">
    <path clip-path="url(#p18eb120f83)" d="M 258.387255 128.409456 
" style="fill:none;stroke:#ff00ff;stroke-linecap:square;stroke-width:1.5;"/>
    <defs>
     <path d="M -12 12 
L 12 -12 
M -12 -12 
L 12 12 
" id="m5b66365a0d" style="stroke:#ff00ff;"/>
    </defs>
    <g clip-path="url(#p18eb120f83)">
     <use style="fill:#ff00ff;stroke:#ff00ff;" x="258.387255" xlink:href="#m5b66365a0d" y="128.409456"/>
    </g>
   </g>
   <g id="line2d_52">
    <defs>
     <path d="M 0 1.5 
C 0.397805 1.5 0.77937 1.341951 1.06066 1.06066 
C 1.341951 0.77937 1.5 0.397805 1.5 0 
C 1.5 -0.397805 1.341951 -0.77937 1.06066 -1.06066 
C 0.77937 -1.341951 0.397805 -1.5 0 -1.5 
C -0.397805 -1.5 -0.77937 -1.341951 -1.06066 -1.06066 
C -1.341951 -0.77937 -1.5 -0.397805 -1.5 0 
C -1.5 0.397805 -1.341951 0.77937 -1.06066 1.06066 
C -0.77937 1.341951 -0.397805 1.5 0 1.5 
z
" id="maba9e3691b" style="stroke:#ffa500;"/>
    </defs>
    <g>
     <use style="fill:#ffa500;stroke:#ffa500;" x="260.23438" xlink:href="#maba9e3691b" y="74.787769"/>
     <use style="fill:#ffa500;stroke:#ffa500;" x="260.23438" xlink:href="#maba9e3691b" y="74.787769"/>
    </g>
   </g>
   <g id="line2d_53">
    <path d="M 45.512012 298.944 
L 45.512012 298.504478 
L 57.6 298.504478 
L 57.6 297.625434 
L 64.67102 297.625434 
L 64.67102 294.988302 
L 69.687988 294.988302 
L 69.687988 294.109258 
L 73.579452 294.109258 
L 73.579452 291.911648 
L 81.775977 291.911648 
L 81.775977 291.472126 
L 83.830028 291.472126 
L 83.830028 291.032604 
L 85.66744 291.032604 
L 85.66744 289.274516 
L 87.329581 289.274516 
L 87.329581 288.834994 
L 88.846997 288.834994 
L 88.846997 288.395471 
L 92.73846 288.395471 
L 92.73846 285.318817 
L 94.921215 285.318817 
L 94.921215 284.879295 
L 96.86091 284.879295 
L 96.86091 282.242163 
L 97.755429 282.242163 
L 97.755429 281.802641 
L 98.606294 281.802641 
L 98.606294 280.484075 
L 104.23523 280.484075 
L 104.23523 280.044553 
L 105.398279 280.044553 
L 105.398279 279.605031 
L 107.009204 279.605031 
L 107.009204 279.165509 
L 107.514726 279.165509 
L 107.514726 277.846943 
L 108.483824 277.846943 
L 108.483824 277.407421 
L 108.948899 277.407421 
L 108.948899 276.967899 
L 110.694282 276.967899 
L 110.694282 275.209811 
L 111.897469 275.209811 
L 111.897469 273.451723 
L 114.080224 273.451723 
L 114.080224 271.254113 
L 115.711251 271.254113 
L 115.711251 269.496025 
L 117.486268 269.496025 
L 117.486268 269.056503 
L 118.576578 269.056503 
L 118.576578 268.616981 
L 120.571812 268.616981 
L 120.571812 268.177459 
L 121.036887 268.177459 
L 121.036887 267.737936 
L 121.931406 267.737936 
L 121.931406 267.298414 
L 125.291682 267.298414 
L 125.291682 266.858892 
L 125.647598 266.858892 
L 125.647598 266.41937 
L 126.50685 266.41937 
L 126.50685 265.979848 
L 131.312942 265.979848 
L 131.312942 265.540326 
L 131.439773 265.540326 
L 131.439773 263.342716 
L 131.690703 263.342716 
L 131.690703 262.903194 
L 133.124876 262.903194 
L 133.124876 262.463672 
L 133.352844 262.463672 
L 133.352844 262.02415 
L 134.019394 262.02415 
L 134.019394 260.266062 
L 134.973757 260.266062 
L 134.973757 259.387018 
L 136.170062 259.387018 
L 136.170062 258.947496 
L 137.647286 258.947496 
L 137.647286 258.507974 
L 137.997836 258.507974 
L 137.997836 258.068452 
L 141.090414 258.068452 
L 141.090414 257.189408 
L 142.949611 257.189408 
L 142.949611 256.749886 
L 144.45069 256.749886 
L 144.45069 256.310364 
L 145.497361 256.310364 
L 145.497361 255.43132 
L 148.54473 255.43132 
L 148.54473 254.991798 
L 149.104327 254.991798 
L 149.195872 252.354666 
L 149.467659 252.354666 
L 149.467659 251.475622 
L 151.097081 251.475622 
L 151.178764 250.596578 
L 152.511852 250.596578 
L 152.511852 249.717534 
L 152.624728 249.717534 
L 152.624728 247.959446 
L 154.201424 247.959446 
L 154.201424 247.080402 
L 154.807483 247.080402 
L 154.807483 246.640879 
L 156.747178 246.640879 
L 156.747178 245.761835 
L 158.304027 245.761835 
L 158.304027 244.443269 
L 158.438903 244.443269 
L 158.51933 242.685181 
L 160.984566 242.685181 
L 161.077205 240.927093 
L 162.833584 240.927093 
L 162.833584 240.487571 
L 163.629664 240.487571 
L 163.629664 239.608527 
L 164.991751 239.608527 
L 164.991751 238.729483 
L 166.220754 238.729483 
L 166.220754 237.850439 
L 169.27373 237.850439 
L 169.27373 237.410917 
L 169.503198 237.410917 
L 169.503198 236.531873 
L 169.659223 236.531873 
L 169.659223 235.652829 
L 170.446091 235.652829 
L 170.446091 234.773785 
L 170.912232 234.773785 
L 170.912232 233.894741 
L 171.708567 233.894741 
L 171.708567 233.015697 
L 173.371849 233.015697 
L 173.371849 231.257609 
L 174.283479 231.257609 
L 174.283479 230.378565 
L 174.605444 230.378565 
L 174.605444 229.499521 
L 174.879752 229.499521 
L 174.879752 229.059999 
L 175.056802 229.059999 
L 175.056802 228.620477 
L 175.221811 228.620477 
L 175.221811 227.741433 
L 175.687696 227.741433 
L 175.687696 226.862389 
L 176.335123 226.862389 
L 176.335123 225.983344 
L 176.687829 225.983344 
L 176.687829 225.1043 
L 177.290683 225.1043 
L 177.290683 224.225256 
L 177.802715 224.225256 
L 177.802715 223.785734 
L 177.943781 223.785734 
L 177.943781 223.346212 
L 178.213893 223.346212 
L 178.213893 222.90669 
L 178.351686 222.90669 
L 178.351686 222.467168 
L 180.251605 222.467168 
L 180.274668 221.148602 
L 181.433752 221.148602 
L 181.448123 219.830036 
L 182.006511 219.830036 
L 182.006511 218.950992 
L 182.587988 218.950992 
L 182.587988 218.071948 
L 182.74872 218.071948 
L 182.74872 217.192904 
L 183.422185 217.192904 
L 183.422185 216.753382 
L 183.543625 216.753382 
L 183.543625 216.31386 
L 184.419343 216.31386 
L 184.419343 215.874338 
L 184.630074 215.874338 
L 184.630074 214.995294 
L 184.767181 214.995294 
L 184.767181 214.555772 
L 184.897325 214.555772 
L 184.897325 213.676728 
L 185.63585 213.676728 
L 185.63585 213.237206 
L 186.852213 213.237206 
L 186.852213 212.797684 
L 186.999115 212.797684 
L 187.108485 211.039596 
L 187.513889 211.039596 
L 187.513889 210.160552 
L 187.974425 210.160552 
L 187.974425 209.281508 
L 188.117109 209.281508 
L 188.117109 208.841986 
L 188.341067 208.841986 
L 188.341067 207.962942 
L 188.514354 207.962942 
L 188.514354 207.083898 
L 188.756934 207.083898 
L 188.756934 206.204854 
L 189.121531 206.204854 
L 189.223003 204.886287 
L 189.301011 204.886287 
L 189.301011 204.446765 
L 189.895129 204.446765 
L 189.895129 204.007243 
L 190.022987 204.007243 
L 190.022987 203.567721 
L 190.249927 203.567721 
L 190.249927 203.128199 
L 190.804686 203.128199 
L 190.896847 202.249155 
L 191.009291 202.249155 
L 191.038326 200.491067 
L 191.580988 200.491067 
L 191.617107 199.172501 
L 191.768789 199.172501 
L 191.768789 198.732979 
L 191.883664 198.732979 
L 191.883664 198.293457 
L 192.28952 198.293457 
L 192.28952 197.414413 
L 192.686144 197.414413 
L 192.686144 196.974891 
L 192.985217 196.974891 
L 193.062882 195.656325 
L 193.118145 195.656325 
L 193.118145 195.216803 
L 193.767997 195.216803 
L 193.767997 194.337759 
L 194.452523 194.337759 
L 194.544282 193.458715 
L 195.290728 193.458715 
L 195.290728 192.140149 
L 195.742722 192.140149 
L 195.742722 191.261105 
L 196.109087 191.261105 
L 196.109087 190.821583 
L 196.336894 190.821583 
L 196.355235 189.503017 
L 196.74796 189.503017 
L 196.74796 189.063495 
L 197.202026 189.063495 
L 197.303595 187.744929 
L 197.421828 187.744929 
L 197.421828 187.305407 
L 197.777424 187.305407 
L 197.777424 186.865885 
L 198.233234 186.865885 
L 198.334443 185.986841 
L 198.424217 185.986841 
L 198.486515 185.107797 
L 198.685454 185.107797 
L 198.685454 184.668274 
L 199.387521 184.668274 
L 199.387521 184.228752 
L 199.98567 184.228752 
L 200.082164 182.031142 
L 200.474952 182.031142 
L 200.474952 181.59162 
L 200.685961 181.59162 
L 200.733564 180.273054 
L 201.281073 180.273054 
L 201.372967 179.39401 
L 201.580241 179.39401 
L 201.580241 178.954488 
L 202.394193 178.954488 
L 202.394193 178.514966 
L 202.568361 178.514966 
L 202.608965 177.1964 
L 203.422181 177.1964 
L 203.422181 176.756878 
L 203.967704 176.756878 
L 203.967704 175.877834 
L 204.304063 175.877834 
L 204.410265 174.119746 
L 205.106533 174.119746 
L 205.15456 172.80118 
L 205.506991 172.80118 
L 205.506991 171.922136 
L 206.1407 171.922136 
L 206.1407 171.482614 
L 206.76901 171.482614 
L 206.76901 171.043092 
L 206.961323 171.043092 
L 206.961323 170.164048 
L 207.218856 170.164048 
L 207.218856 169.724526 
L 208.046139 169.724526 
L 208.046139 169.285004 
L 208.929793 169.285004 
L 209.023134 167.966438 
L 209.314736 167.966438 
L 209.314736 167.526916 
L 209.58438 167.526916 
L 209.58438 167.087394 
L 209.925851 167.087394 
L 209.925851 166.647872 
L 210.646006 166.647872 
L 210.646006 166.20835 
L 211.003146 166.20835 
L 211.003146 165.329306 
L 211.836352 165.329306 
L 211.866507 164.450262 
L 212.088539 164.450262 
L 212.088539 164.01074 
L 212.376188 164.01074 
L 212.376188 163.571217 
L 212.872581 163.571217 
L 212.872581 163.131695 
L 213.075215 163.131695 
L 213.075215 162.252651 
L 213.460956 162.252651 
L 213.460956 161.813129 
L 213.685203 161.813129 
L 213.685203 161.373607 
L 214.156081 161.373607 
L 214.156081 160.934085 
L 214.277855 160.934085 
L 214.277855 160.494563 
L 215.233977 160.494563 
L 215.233977 160.055041 
L 215.663311 160.055041 
L 215.663311 159.175997 
L 215.997346 159.175997 
L 215.997346 158.296953 
L 216.140393 158.296953 
L 216.140393 157.417909 
L 216.405604 157.417909 
L 216.405604 156.538865 
L 216.714442 156.538865 
L 216.714442 156.099343 
L 217.561504 156.099343 
L 217.561504 155.659821 
L 217.735416 155.659821 
L 217.735416 155.220299 
L 218.16232 155.220299 
L 218.228689 153.901733 
L 218.275692 153.901733 
L 218.379694 151.264601 
L 218.387469 151.264601 
L 218.496818 148.627469 
L 218.540537 148.627469 
L 218.584147 146.429859 
L 218.715174 146.429859 
L 218.764268 144.232249 
L 218.850271 144.232249 
L 218.924131 142.034638 
L 218.980156 142.034638 
L 219.015185 141.155594 
L 219.094987 141.155594 
L 219.18103 139.837028 
L 219.314217 139.837028 
L 219.396742 138.518462 
L 219.46102 138.518462 
L 219.564667 136.320852 
L 219.635568 136.320852 
L 219.736587 134.562764 
L 219.865614 134.562764 
L 219.971623 133.244198 
L 220.036178 133.244198 
L 220.064444 131.925632 
L 220.171595 131.925632 
L 220.269564 130.607066 
L 220.543429 130.607066 
L 220.616549 129.728022 
L 220.700715 129.728022 
L 220.786734 127.969934 
L 221.085984 127.969934 
L 221.119248 126.651368 
L 221.308013 126.651368 
L 221.391095 124.453758 
L 221.548158 124.453758 
L 221.627955 123.135192 
L 221.978024 123.135192 
L 222.076167 121.816625 
L 222.096428 121.816625 
L 222.096428 120.937581 
L 222.296371 120.937581 
L 222.296371 120.498059 
L 222.615789 120.498059 
L 222.635433 119.179493 
L 222.780382 119.179493 
L 222.849398 117.421405 
L 223.251322 117.421405 
L 223.272221 116.102839 
L 223.417173 116.102839 
L 223.483719 114.784273 
L 223.656965 114.784273 
L 223.656965 114.344751 
L 223.806997 114.344751 
L 223.806997 113.905229 
L 224.315413 113.905229 
L 224.400052 112.586663 
L 224.428174 112.586663 
L 224.428174 112.147141 
L 224.816595 112.147141 
L 224.816595 111.707619 
L 224.932107 111.707619 
L 224.932107 111.268097 
L 225.069248 111.268097 
L 225.153245 109.070487 
L 225.321195 109.070487 
L 225.321195 108.630965 
L 225.698384 108.630965 
L 225.767536 107.312399 
L 225.82345 107.312399 
L 225.82345 106.872877 
L 226.24462 106.872877 
L 226.343965 105.993833 
L 227.037121 105.993833 
L 227.037121 105.554311 
L 227.447256 105.554311 
L 227.447256 105.114789 
L 228.035238 105.114789 
L 228.035238 104.675267 
L 228.639581 104.675267 
L 228.639581 104.235745 
L 229.008927 104.235745 
L 229.061459 102.917179 
L 229.313004 102.917179 
L 229.313004 102.038135 
L 229.813091 102.038135 
L 229.813091 101.15909 
L 230.234552 101.15909 
L 230.234552 100.719568 
L 231.035555 100.719568 
L 231.035555 100.280046 
L 231.362849 100.280046 
L 231.362849 99.401002 
L 231.638521 99.401002 
L 231.638521 98.96148 
L 232.52423 98.96148 
L 232.52423 98.082436 
L 233.230483 98.082436 
L 233.230483 97.203392 
L 233.4649 97.203392 
L 233.4649 96.76387 
L 234.8203 96.76387 
L 234.8203 95.884826 
L 234.971125 95.884826 
L 235.00713 94.56626 
L 236.153853 94.56626 
L 236.153853 93.687216 
L 236.416308 93.687216 
L 236.523796 92.36865 
L 237.290678 92.36865 
L 237.290678 91.489606 
L 237.539279 91.489606 
L 237.539279 91.050084 
L 238.747072 91.050084 
L 238.813596 89.731518 
L 239.419266 89.731518 
L 239.419266 88.852474 
L 240.034086 88.852474 
L 240.034086 88.412952 
L 242.159552 88.412952 
L 242.159552 87.97343 
L 242.945527 87.97343 
L 242.945527 87.094386 
L 244.014789 87.094386 
L 244.014789 86.215342 
L 244.259436 86.215342 
L 244.259436 85.77582 
L 244.913528 85.77582 
L 244.913528 85.336298 
L 245.982862 85.336298 
L 245.982862 84.896776 
L 246.158394 84.896776 
L 246.158394 84.457254 
L 248.591929 84.457254 
L 248.686574 82.699166 
L 249.344597 82.699166 
L 249.344597 82.259644 
L 250.255932 82.259644 
L 250.255932 81.820122 
L 250.59626 81.820122 
L 250.59626 80.941078 
L 251.080708 80.941078 
L 251.080708 80.062033 
L 251.195337 80.062033 
L 251.195337 79.622511 
L 251.345926 79.622511 
L 251.345926 79.182989 
L 251.501952 79.182989 
L 251.509452 78.303945 
L 254.111101 78.303945 
L 254.117002 76.545857 
L 257.114375 76.545857 
L 257.114375 76.106335 
L 258.762704 76.106335 
L 258.762704 75.227291 
L 260.23438 75.227291 
L 260.23438 74.787769 
L 338.688 74.787769 
L 338.688 74.787769 
" style="fill:none;stroke:#ffa500;stroke-linecap:square;stroke-width:1.5;"/>
   </g>
   <g id="line2d_54">
    <defs>
     <path d="M 0 -6 
L -1.347084 -1.854102 
L -5.706339 -1.854102 
L -2.179628 0.708204 
L -3.526712 4.854102 
L -0 2.291796 
L 3.526712 4.854102 
L 2.179628 0.708204 
L 5.706339 -1.854102 
L 1.347084 -1.854102 
z
" id="m4876a9c4a9" style="stroke:#ffa500;stroke-linejoin:bevel;stroke-width:1.5;"/>
    </defs>
    <g>
     <use style="fill-opacity:0;stroke:#ffa500;stroke-linejoin:bevel;stroke-width:1.5;" x="126.50685" xlink:href="#m4876a9c4a9" y="266.41937"/>
     <use style="fill-opacity:0;stroke:#ffa500;stroke-linejoin:bevel;stroke-width:1.5;" x="185.63585" xlink:href="#m4876a9c4a9" y="213.237206"/>
     <use style="fill-opacity:0;stroke:#ffa500;stroke-linejoin:bevel;stroke-width:1.5;" x="233.230483" xlink:href="#m4876a9c4a9" y="97.203392"/>
     <use style="fill-opacity:0;stroke:#ffa500;stroke-linejoin:bevel;stroke-width:1.5;" x="260.23438" xlink:href="#m4876a9c4a9" y="74.787769"/>
     <use style="fill-opacity:0;stroke:#ffa500;stroke-linejoin:bevel;stroke-width:1.5;" x="260.23438" xlink:href="#m4876a9c4a9" y="74.787769"/>
     <use style="fill-opacity:0;stroke:#ffa500;stroke-linejoin:bevel;stroke-width:1.5;" x="338.688" xlink:href="#m4876a9c4a9" y="74.787769"/>
    </g>
   </g>
   <g id="line2d_55">
    <path style="fill:none;stroke:#ffa500;stroke-linecap:square;stroke-width:1.5;"/>
    <g/>
   </g>
   <g id="line2d_56">
    <path clip-path="url(#p18eb120f83)" d="M 298.532571 74.787769 
" style="fill:none;stroke:#ffa500;stroke-linecap:square;stroke-width:1.5;"/>
    <defs>
     <path d="M -12 12 
L 12 -12 
M -12 -12 
L 12 12 
" id="m1c58607cb6" style="stroke:#ffa500;"/>
    </defs>
    <g clip-path="url(#p18eb120f83)">
     <use style="fill:#ffa500;stroke:#ffa500;" x="298.532571" xlink:href="#m1c58607cb6" y="74.787769"/>
    </g>
   </g>
   <g id="line2d_57">
    <path d="M 338.688 271.254113 
L 369.60768 293.845545 
" style="fill:none;stroke:#000080;stroke-linecap:square;stroke-width:1.5;"/>
    <g>
     <use style="fill-opacity:0;stroke:#000080;stroke-width:1.5;" x="338.688" xlink:href="#mde100d3df8" y="271.254113"/>
     <use style="fill-opacity:0;stroke:#000080;stroke-width:1.5;" x="369.60768" xlink:href="#mde100d3df8" y="293.845545"/>
    </g>
   </g>
   <g id="line2d_58">
    <path d="M 338.688 128.409456 
L 369.60768 212.270257 
" style="fill:none;stroke:#ff00ff;stroke-linecap:square;stroke-width:1.5;"/>
    <g>
     <use style="fill-opacity:0;stroke:#ff00ff;stroke-linejoin:miter;stroke-width:1.5;" x="338.688" xlink:href="#m0c66357adf" y="128.409456"/>
     <use style="fill-opacity:0;stroke:#ff00ff;stroke-linejoin:miter;stroke-width:1.5;" x="369.60768" xlink:href="#m0c66357adf" y="212.270257"/>
    </g>
   </g>
   <g id="line2d_59">
    <path d="M 338.688 74.787769 
L 369.60768 130.69497 
" style="fill:none;stroke:#ffa500;stroke-linecap:square;stroke-width:1.5;"/>
    <g>
     <use style="fill-opacity:0;stroke:#ffa500;stroke-linejoin:bevel;stroke-width:1.5;" x="338.688" xlink:href="#m4876a9c4a9" y="74.787769"/>
     <use style="fill-opacity:0;stroke:#ffa500;stroke-linejoin:bevel;stroke-width:1.5;" x="369.60768" xlink:href="#m4876a9c4a9" y="130.69497"/>
    </g>
   </g>
   <g id="line2d_60">
    <path d="M 338.688 298.944 
L 338.688 44.021228 
" style="fill:none;stroke:#000000;stroke-linecap:square;stroke-width:1.5;"/>
   </g>
   <g id="patch_3">
    <path d="M 57.6 298.944 
L 57.6 41.472 
" style="fill:none;stroke:#000000;stroke-linecap:square;stroke-linejoin:miter;stroke-width:0.8;"/>
   </g>
   <g id="patch_4">
    <path d="M 338.688 298.944 
L 338.688 41.472 
" style="fill:none;stroke:#000000;stroke-linecap:square;stroke-linejoin:miter;stroke-width:0.8;"/>
   </g>
   <g id="patch_5">
    <path d="M 57.6 298.944 
L 338.688 298.944 
" style="fill:none;stroke:#000000;stroke-linecap:square;stroke-linejoin:miter;stroke-width:0.8;"/>
   </g>
   <g id="patch_6">
    <path d="M 57.6 41.472 
L 338.688 41.472 
" style="fill:none;stroke:#000000;stroke-linecap:square;stroke-linejoin:miter;stroke-width:0.8;"/>
   </g>
   <g id="text_13">
    <!-- DMS on bb -->
    <defs>
     <path d="M 19.671875 64.796875 
L 19.671875 8.109375 
L 31.59375 8.109375 
Q 46.6875 8.109375 53.6875 14.9375 
Q 60.6875 21.78125 60.6875 36.53125 
Q 60.6875 51.171875 53.6875 57.984375 
Q 46.6875 64.796875 31.59375 64.796875 
z
M 9.8125 72.90625 
L 30.078125 72.90625 
Q 51.265625 72.90625 61.171875 64.09375 
Q 71.09375 55.28125 71.09375 36.53125 
Q 71.09375 17.671875 61.125 8.828125 
Q 51.171875 0 30.078125 0 
L 9.8125 0 
z
" id="DejaVuSans-68"/>
     <path d="M 9.8125 72.90625 
L 24.515625 72.90625 
L 43.109375 23.296875 
L 61.8125 72.90625 
L 76.515625 72.90625 
L 76.515625 0 
L 66.890625 0 
L 66.890625 64.015625 
L 48.09375 14.015625 
L 38.1875 14.015625 
L 19.390625 64.015625 
L 19.390625 0 
L 9.8125 0 
z
" id="DejaVuSans-77"/>
     <path d="M 53.515625 70.515625 
L 53.515625 60.890625 
Q 47.90625 63.578125 42.921875 64.890625 
Q 37.9375 66.21875 33.296875 66.21875 
Q 25.25 66.21875 20.875 63.09375 
Q 16.5 59.96875 16.5 54.203125 
Q 16.5 49.359375 19.40625 46.890625 
Q 22.3125 44.4375 30.421875 42.921875 
L 36.375 41.703125 
Q 47.40625 39.59375 52.65625 34.296875 
Q 57.90625 29 57.90625 20.125 
Q 57.90625 9.515625 50.796875 4.046875 
Q 43.703125 -1.421875 29.984375 -1.421875 
Q 24.8125 -1.421875 18.96875 -0.25 
Q 13.140625 0.921875 6.890625 3.21875 
L 6.890625 13.375 
Q 12.890625 10.015625 18.65625 8.296875 
Q 24.421875 6.59375 29.984375 6.59375 
Q 38.421875 6.59375 43.015625 9.90625 
Q 47.609375 13.234375 47.609375 19.390625 
Q 47.609375 24.75 44.3125 27.78125 
Q 41.015625 30.8125 33.5 32.328125 
L 27.484375 33.5 
Q 16.453125 35.6875 11.515625 40.375 
Q 6.59375 45.0625 6.59375 53.421875 
Q 6.59375 63.09375 13.40625 68.65625 
Q 20.21875 74.21875 32.171875 74.21875 
Q 37.3125 74.21875 42.625 73.28125 
Q 47.953125 72.359375 53.515625 70.515625 
z
" id="DejaVuSans-83"/>
     <path d="M 48.6875 27.296875 
Q 48.6875 37.203125 44.609375 42.84375 
Q 40.53125 48.484375 33.40625 48.484375 
Q 26.265625 48.484375 22.1875 42.84375 
Q 18.109375 37.203125 18.109375 27.296875 
Q 18.109375 17.390625 22.1875 11.75 
Q 26.265625 6.109375 33.40625 6.109375 
Q 40.53125 6.109375 44.609375 11.75 
Q 48.6875 17.390625 48.6875 27.296875 
z
M 18.109375 46.390625 
Q 20.953125 51.265625 25.265625 53.625 
Q 29.59375 56 35.59375 56 
Q 45.5625 56 51.78125 48.09375 
Q 58.015625 40.1875 58.015625 27.296875 
Q 58.015625 14.40625 51.78125 6.484375 
Q 45.5625 -1.421875 35.59375 -1.421875 
Q 29.59375 -1.421875 25.265625 0.953125 
Q 20.953125 3.328125 18.109375 8.203125 
L 18.109375 0 
L 9.078125 0 
L 9.078125 75.984375 
L 18.109375 75.984375 
z
" id="DejaVuSans-98"/>
    </defs>
    <g transform="translate(375.22944 298.536482)scale(0.17 -0.17)">
     <use xlink:href="#DejaVuSans-68"/>
     <use x="77.001953" xlink:href="#DejaVuSans-77"/>
     <use x="163.28125" xlink:href="#DejaVuSans-83"/>
     <use x="226.757812" xlink:href="#DejaVuSans-32"/>
     <use x="258.544922" xlink:href="#DejaVuSans-111"/>
     <use x="319.726562" xlink:href="#DejaVuSans-110"/>
     <use x="383.105469" xlink:href="#DejaVuSans-32"/>
     <use x="414.892578" xlink:href="#DejaVuSans-98"/>
     <use x="478.369141" xlink:href="#DejaVuSans-98"/>
    </g>
   </g>
   <g id="text_14">
    <!-- NSGA-II-M -->
    <defs>
     <path d="M 9.8125 72.90625 
L 23.09375 72.90625 
L 55.421875 11.921875 
L 55.421875 72.90625 
L 64.984375 72.90625 
L 64.984375 0 
L 51.703125 0 
L 19.390625 60.984375 
L 19.390625 0 
L 9.8125 0 
z
" id="DejaVuSans-78"/>
     <path d="M 59.515625 10.40625 
L 59.515625 29.984375 
L 43.40625 29.984375 
L 43.40625 38.09375 
L 69.28125 38.09375 
L 69.28125 6.78125 
Q 63.578125 2.734375 56.6875 0.65625 
Q 49.8125 -1.421875 42 -1.421875 
Q 24.90625 -1.421875 15.25 8.5625 
Q 5.609375 18.5625 5.609375 36.375 
Q 5.609375 54.25 15.25 64.234375 
Q 24.90625 74.21875 42 74.21875 
Q 49.125 74.21875 55.546875 72.453125 
Q 61.96875 70.703125 67.390625 67.28125 
L 67.390625 56.78125 
Q 61.921875 61.421875 55.765625 63.765625 
Q 49.609375 66.109375 42.828125 66.109375 
Q 29.4375 66.109375 22.71875 58.640625 
Q 16.015625 51.171875 16.015625 36.375 
Q 16.015625 21.625 22.71875 14.15625 
Q 29.4375 6.6875 42.828125 6.6875 
Q 48.046875 6.6875 52.140625 7.59375 
Q 56.25 8.5 59.515625 10.40625 
z
" id="DejaVuSans-71"/>
     <path d="M 34.1875 63.1875 
L 20.796875 26.90625 
L 47.609375 26.90625 
z
M 28.609375 72.90625 
L 39.796875 72.90625 
L 67.578125 0 
L 57.328125 0 
L 50.6875 18.703125 
L 17.828125 18.703125 
L 11.1875 0 
L 0.78125 0 
z
" id="DejaVuSans-65"/>
     <path d="M 9.8125 72.90625 
L 19.671875 72.90625 
L 19.671875 0 
L 9.8125 0 
z
" id="DejaVuSans-73"/>
    </defs>
    <g transform="translate(375.22944 216.961195)scale(0.17 -0.17)">
     <use xlink:href="#DejaVuSans-78"/>
     <use x="74.804688" xlink:href="#DejaVuSans-83"/>
     <use x="138.28125" xlink:href="#DejaVuSans-71"/>
     <use x="215.771484" xlink:href="#DejaVuSans-65"/>
     <use x="284.148438" xlink:href="#DejaVuSans-45"/>
     <use x="320.232422" xlink:href="#DejaVuSans-73"/>
     <use x="349.724609" xlink:href="#DejaVuSans-73"/>
     <use x="379.216797" xlink:href="#DejaVuSans-45"/>
     <use x="415.300781" xlink:href="#DejaVuSans-77"/>
    </g>
   </g>
   <g id="text_15">
    <!-- UP-MO-CMA -->
    <defs>
     <path d="M 8.6875 72.90625 
L 18.609375 72.90625 
L 18.609375 28.609375 
Q 18.609375 16.890625 22.84375 11.734375 
Q 27.09375 6.59375 36.625 6.59375 
Q 46.09375 6.59375 50.34375 11.734375 
Q 54.59375 16.890625 54.59375 28.609375 
L 54.59375 72.90625 
L 64.5 72.90625 
L 64.5 27.390625 
Q 64.5 13.140625 57.4375 5.859375 
Q 50.390625 -1.421875 36.625 -1.421875 
Q 22.796875 -1.421875 15.734375 5.859375 
Q 8.6875 13.140625 8.6875 27.390625 
z
" id="DejaVuSans-85"/>
     <path d="M 19.671875 64.796875 
L 19.671875 37.40625 
L 32.078125 37.40625 
Q 38.96875 37.40625 42.71875 40.96875 
Q 46.484375 44.53125 46.484375 51.125 
Q 46.484375 57.671875 42.71875 61.234375 
Q 38.96875 64.796875 32.078125 64.796875 
z
M 9.8125 72.90625 
L 32.078125 72.90625 
Q 44.34375 72.90625 50.609375 67.359375 
Q 56.890625 61.8125 56.890625 51.125 
Q 56.890625 40.328125 50.609375 34.8125 
Q 44.34375 29.296875 32.078125 29.296875 
L 19.671875 29.296875 
L 19.671875 0 
L 9.8125 0 
z
" id="DejaVuSans-80"/>
     <path d="M 39.40625 66.21875 
Q 28.65625 66.21875 22.328125 58.203125 
Q 16.015625 50.203125 16.015625 36.375 
Q 16.015625 22.609375 22.328125 14.59375 
Q 28.65625 6.59375 39.40625 6.59375 
Q 50.140625 6.59375 56.421875 14.59375 
Q 62.703125 22.609375 62.703125 36.375 
Q 62.703125 50.203125 56.421875 58.203125 
Q 50.140625 66.21875 39.40625 66.21875 
z
M 39.40625 74.21875 
Q 54.734375 74.21875 63.90625 63.9375 
Q 73.09375 53.65625 73.09375 36.375 
Q 73.09375 19.140625 63.90625 8.859375 
Q 54.734375 -1.421875 39.40625 -1.421875 
Q 24.03125 -1.421875 14.8125 8.828125 
Q 5.609375 19.09375 5.609375 36.375 
Q 5.609375 53.65625 14.8125 63.9375 
Q 24.03125 74.21875 39.40625 74.21875 
z
" id="DejaVuSans-79"/>
     <path d="M 64.40625 67.28125 
L 64.40625 56.890625 
Q 59.421875 61.53125 53.78125 63.8125 
Q 48.140625 66.109375 41.796875 66.109375 
Q 29.296875 66.109375 22.65625 58.46875 
Q 16.015625 50.828125 16.015625 36.375 
Q 16.015625 21.96875 22.65625 14.328125 
Q 29.296875 6.6875 41.796875 6.6875 
Q 48.140625 6.6875 53.78125 8.984375 
Q 59.421875 11.28125 64.40625 15.921875 
L 64.40625 5.609375 
Q 59.234375 2.09375 53.4375 0.328125 
Q 47.65625 -1.421875 41.21875 -1.421875 
Q 24.65625 -1.421875 15.125 8.703125 
Q 5.609375 18.84375 5.609375 36.375 
Q 5.609375 53.953125 15.125 64.078125 
Q 24.65625 74.21875 41.21875 74.21875 
Q 47.75 74.21875 53.53125 72.484375 
Q 59.328125 70.75 64.40625 67.28125 
z
" id="DejaVuSans-67"/>
    </defs>
    <g transform="translate(375.22944 135.385908)scale(0.17 -0.17)">
     <use xlink:href="#DejaVuSans-85"/>
     <use x="73.193359" xlink:href="#DejaVuSans-80"/>
     <use x="133.464844" xlink:href="#DejaVuSans-45"/>
     <use x="169.548828" xlink:href="#DejaVuSans-77"/>
     <use x="255.828125" xlink:href="#DejaVuSans-79"/>
     <use x="334.570312" xlink:href="#DejaVuSans-45"/>
     <use x="370.654297" xlink:href="#DejaVuSans-67"/>
     <use x="440.478516" xlink:href="#DejaVuSans-77"/>
     <use x="526.757812" xlink:href="#DejaVuSans-65"/>
    </g>
   </g>
   <g id="text_16">
    <!-- best 2016 -->
    <g transform="translate(375.22944 53.810621)scale(0.17 -0.17)">
     <use xlink:href="#DejaVuSans-98"/>
     <use x="63.476562" xlink:href="#DejaVuSans-101"/>
     <use x="125" xlink:href="#DejaVuSans-115"/>
     <use x="177.099609" xlink:href="#DejaVuSans-116"/>
     <use x="216.308594" xlink:href="#DejaVuSans-32"/>
     <use x="248.095703" xlink:href="#DejaVuSans-50"/>
     <use x="311.71875" xlink:href="#DejaVuSans-48"/>
     <use x="375.341797" xlink:href="#DejaVuSans-49"/>
     <use x="438.964844" xlink:href="#DejaVuSans-54"/>
    </g>
   </g>
   <g id="text_17">
    <!-- bbob-biobj f55, 2-D -->
    <defs>
     <path d="M 9.421875 54.6875 
L 18.40625 54.6875 
L 18.40625 -0.984375 
Q 18.40625 -11.421875 14.421875 -16.109375 
Q 10.453125 -20.796875 1.609375 -20.796875 
L -1.8125 -20.796875 
L -1.8125 -13.1875 
L 0.59375 -13.1875 
Q 5.71875 -13.1875 7.5625 -10.8125 
Q 9.421875 -8.453125 9.421875 -0.984375 
z
M 9.421875 75.984375 
L 18.40625 75.984375 
L 18.40625 64.59375 
L 9.421875 64.59375 
z
" id="DejaVuSans-106"/>
     <path d="M 10.796875 72.90625 
L 49.515625 72.90625 
L 49.515625 64.59375 
L 19.828125 64.59375 
L 19.828125 46.734375 
Q 21.96875 47.46875 24.109375 47.828125 
Q 26.265625 48.1875 28.421875 48.1875 
Q 40.625 48.1875 47.75 41.5 
Q 54.890625 34.8125 54.890625 23.390625 
Q 54.890625 11.625 47.5625 5.09375 
Q 40.234375 -1.421875 26.90625 -1.421875 
Q 22.3125 -1.421875 17.546875 -0.640625 
Q 12.796875 0.140625 7.71875 1.703125 
L 7.71875 11.625 
Q 12.109375 9.234375 16.796875 8.0625 
Q 21.484375 6.890625 26.703125 6.890625 
Q 35.15625 6.890625 40.078125 11.328125 
Q 45.015625 15.765625 45.015625 23.390625 
Q 45.015625 31 40.078125 35.4375 
Q 35.15625 39.890625 26.703125 39.890625 
Q 22.75 39.890625 18.8125 39.015625 
Q 14.890625 38.140625 10.796875 36.28125 
z
" id="DejaVuSans-53"/>
    </defs>
    <g transform="translate(60.41088 51.797126)scale(0.102 -0.102)">
     <use xlink:href="#DejaVuSans-98"/>
     <use x="63.476562" xlink:href="#DejaVuSans-98"/>
     <use x="126.953125" xlink:href="#DejaVuSans-111"/>
     <use x="188.134766" xlink:href="#DejaVuSans-98"/>
     <use x="251.611328" xlink:href="#DejaVuSans-45"/>
     <use x="287.695312" xlink:href="#DejaVuSans-98"/>
     <use x="351.171875" xlink:href="#DejaVuSans-105"/>
     <use x="378.955078" xlink:href="#DejaVuSans-111"/>
     <use x="440.136719" xlink:href="#DejaVuSans-98"/>
     <use x="503.613281" xlink:href="#DejaVuSans-106"/>
     <use x="531.396484" xlink:href="#DejaVuSans-32"/>
     <use x="563.183594" xlink:href="#DejaVuSans-102"/>
     <use x="598.388672" xlink:href="#DejaVuSans-53"/>
     <use x="662.011719" xlink:href="#DejaVuSans-53"/>
     <use x="725.634766" xlink:href="#DejaVuSans-44"/>
     <use x="757.421875" xlink:href="#DejaVuSans-32"/>
     <use x="789.208984" xlink:href="#DejaVuSans-50"/>
     <use x="852.832031" xlink:href="#DejaVuSans-45"/>
     <use x="888.916016" xlink:href="#DejaVuSans-68"/>
    </g>
    <!-- 58 targets: 1..-1.0e-4 -->
    <defs>
     <path d="M 11.71875 12.40625 
L 22.015625 12.40625 
L 22.015625 0 
L 11.71875 0 
z
M 11.71875 51.703125 
L 22.015625 51.703125 
L 22.015625 39.3125 
L 11.71875 39.3125 
z
" id="DejaVuSans-58"/>
    </defs>
    <g transform="translate(60.41088 63.218895)scale(0.102 -0.102)">
     <use xlink:href="#DejaVuSans-53"/>
     <use x="63.623047" xlink:href="#DejaVuSans-56"/>
     <use x="127.246094" xlink:href="#DejaVuSans-32"/>
     <use x="159.033203" xlink:href="#DejaVuSans-116"/>
     <use x="198.242188" xlink:href="#DejaVuSans-97"/>
     <use x="259.521484" xlink:href="#DejaVuSans-114"/>
     <use x="300.619141" xlink:href="#DejaVuSans-103"/>
     <use x="364.095703" xlink:href="#DejaVuSans-101"/>
     <use x="425.619141" xlink:href="#DejaVuSans-116"/>
     <use x="464.828125" xlink:href="#DejaVuSans-115"/>
     <use x="516.927734" xlink:href="#DejaVuSans-58"/>
     <use x="550.619141" xlink:href="#DejaVuSans-32"/>
     <use x="582.40625" xlink:href="#DejaVuSans-49"/>
     <use x="646.029297" xlink:href="#DejaVuSans-46"/>
     <use x="677.816406" xlink:href="#DejaVuSans-46"/>
     <use x="709.603516" xlink:href="#DejaVuSans-45"/>
     <use x="745.6875" xlink:href="#DejaVuSans-49"/>
     <use x="809.310547" xlink:href="#DejaVuSans-46"/>
     <use x="841.097656" xlink:href="#DejaVuSans-48"/>
     <use x="904.720703" xlink:href="#DejaVuSans-101"/>
     <use x="966.244141" xlink:href="#DejaVuSans-45"/>
     <use x="1002.328125" xlink:href="#DejaVuSans-52"/>
    </g>
    <!-- 10 instances -->
    <g transform="translate(60.41088 74.640664)scale(0.102 -0.102)">
     <use xlink:href="#DejaVuSans-49"/>
     <use x="63.623047" xlink:href="#DejaVuSans-48"/>
     <use x="127.246094" xlink:href="#DejaVuSans-32"/>
     <use x="159.033203" xlink:href="#DejaVuSans-105"/>
     <use x="186.816406" xlink:href="#DejaVuSans-110"/>
     <use x="250.195312" xlink:href="#DejaVuSans-115"/>
     <use x="302.294922" xlink:href="#DejaVuSans-116"/>
     <use x="341.503906" xlink:href="#DejaVuSans-97"/>
     <use x="402.783203" xlink:href="#DejaVuSans-110"/>
     <use x="466.162109" xlink:href="#DejaVuSans-99"/>
     <use x="521.142578" xlink:href="#DejaVuSans-101"/>
     <use x="582.666016" xlink:href="#DejaVuSans-115"/>
    </g>
   </g>
   <g id="text_18">
    <!-- v2.3.1.31, hv-hash=ff0e71e8cd978373 -->
    <defs>
     <path d="M 40.578125 39.3125 
Q 47.65625 37.796875 51.625 33 
Q 55.609375 28.21875 55.609375 21.1875 
Q 55.609375 10.40625 48.1875 4.484375 
Q 40.765625 -1.421875 27.09375 -1.421875 
Q 22.515625 -1.421875 17.65625 -0.515625 
Q 12.796875 0.390625 7.625 2.203125 
L 7.625 11.71875 
Q 11.71875 9.328125 16.59375 8.109375 
Q 21.484375 6.890625 26.8125 6.890625 
Q 36.078125 6.890625 40.9375 10.546875 
Q 45.796875 14.203125 45.796875 21.1875 
Q 45.796875 27.640625 41.28125 31.265625 
Q 36.765625 34.90625 28.71875 34.90625 
L 20.21875 34.90625 
L 20.21875 43.015625 
L 29.109375 43.015625 
Q 36.375 43.015625 40.234375 45.921875 
Q 44.09375 48.828125 44.09375 54.296875 
Q 44.09375 59.90625 40.109375 62.90625 
Q 36.140625 65.921875 28.71875 65.921875 
Q 24.65625 65.921875 20.015625 65.03125 
Q 15.375 64.15625 9.8125 62.3125 
L 9.8125 71.09375 
Q 15.4375 72.65625 20.34375 73.4375 
Q 25.25 74.21875 29.59375 74.21875 
Q 40.828125 74.21875 47.359375 69.109375 
Q 53.90625 64.015625 53.90625 55.328125 
Q 53.90625 49.265625 50.4375 45.09375 
Q 46.96875 40.921875 40.578125 39.3125 
z
" id="DejaVuSans-51"/>
     <path d="M 54.890625 33.015625 
L 54.890625 0 
L 45.90625 0 
L 45.90625 32.71875 
Q 45.90625 40.484375 42.875 44.328125 
Q 39.84375 48.1875 33.796875 48.1875 
Q 26.515625 48.1875 22.3125 43.546875 
Q 18.109375 38.921875 18.109375 30.90625 
L 18.109375 0 
L 9.078125 0 
L 9.078125 75.984375 
L 18.109375 75.984375 
L 18.109375 46.1875 
Q 21.34375 51.125 25.703125 53.5625 
Q 30.078125 56 35.796875 56 
Q 45.21875 56 50.046875 50.171875 
Q 54.890625 44.34375 54.890625 33.015625 
z
" id="DejaVuSans-104"/>
     <path d="M 10.59375 45.40625 
L 73.1875 45.40625 
L 73.1875 37.203125 
L 10.59375 37.203125 
z
M 10.59375 25.484375 
L 73.1875 25.484375 
L 73.1875 17.1875 
L 10.59375 17.1875 
z
" id="DejaVuSans-61"/>
     <path d="M 8.203125 72.90625 
L 55.078125 72.90625 
L 55.078125 68.703125 
L 28.609375 0 
L 18.3125 0 
L 43.21875 64.59375 
L 8.203125 64.59375 
z
" id="DejaVuSans-55"/>
     <path d="M 10.984375 1.515625 
L 10.984375 10.5 
Q 14.703125 8.734375 18.5 7.8125 
Q 22.3125 6.890625 25.984375 6.890625 
Q 35.75 6.890625 40.890625 13.453125 
Q 46.046875 20.015625 46.78125 33.40625 
Q 43.953125 29.203125 39.59375 26.953125 
Q 35.25 24.703125 29.984375 24.703125 
Q 19.046875 24.703125 12.671875 31.3125 
Q 6.296875 37.9375 6.296875 49.421875 
Q 6.296875 60.640625 12.9375 67.421875 
Q 19.578125 74.21875 30.609375 74.21875 
Q 43.265625 74.21875 49.921875 64.515625 
Q 56.59375 54.828125 56.59375 36.375 
Q 56.59375 19.140625 48.40625 8.859375 
Q 40.234375 -1.421875 26.421875 -1.421875 
Q 22.703125 -1.421875 18.890625 -0.6875 
Q 15.09375 0.046875 10.984375 1.515625 
z
M 30.609375 32.421875 
Q 37.25 32.421875 41.125 36.953125 
Q 45.015625 41.5 45.015625 49.421875 
Q 45.015625 57.28125 41.125 61.84375 
Q 37.25 66.40625 30.609375 66.40625 
Q 23.96875 66.40625 20.09375 61.84375 
Q 16.21875 57.28125 16.21875 49.421875 
Q 16.21875 41.5 20.09375 36.953125 
Q 23.96875 32.421875 30.609375 32.421875 
z
" id="DejaVuSans-57"/>
    </defs>
    <g style="fill:#808080;" transform="translate(99.797125 294.289592)scale(0.1 -0.1)">
     <use xlink:href="#DejaVuSans-118"/>
     <use x="59.179688" xlink:href="#DejaVuSans-50"/>
     <use x="122.802734" xlink:href="#DejaVuSans-46"/>
     <use x="154.589844" xlink:href="#DejaVuSans-51"/>
     <use x="218.212891" xlink:href="#DejaVuSans-46"/>
     <use x="250" xlink:href="#DejaVuSans-49"/>
     <use x="313.623047" xlink:href="#DejaVuSans-46"/>
     <use x="345.410156" xlink:href="#DejaVuSans-51"/>
     <use x="409.033203" xlink:href="#DejaVuSans-49"/>
     <use x="472.65625" xlink:href="#DejaVuSans-44"/>
     <use x="504.443359" xlink:href="#DejaVuSans-32"/>
     <use x="536.230469" xlink:href="#DejaVuSans-104"/>
     <use x="599.609375" xlink:href="#DejaVuSans-118"/>
     <use x="658.757812" xlink:href="#DejaVuSans-45"/>
     <use x="694.841797" xlink:href="#DejaVuSans-104"/>
     <use x="758.220703" xlink:href="#DejaVuSans-97"/>
     <use x="819.5" xlink:href="#DejaVuSans-115"/>
     <use x="871.599609" xlink:href="#DejaVuSans-104"/>
     <use x="934.978516" xlink:href="#DejaVuSans-61"/>
     <use x="1018.767578" xlink:href="#DejaVuSans-102"/>
     <use x="1053.972656" xlink:href="#DejaVuSans-102"/>
     <use x="1089.177734" xlink:href="#DejaVuSans-48"/>
     <use x="1152.800781" xlink:href="#DejaVuSans-101"/>
     <use x="1214.324219" xlink:href="#DejaVuSans-55"/>
     <use x="1277.947266" xlink:href="#DejaVuSans-49"/>
     <use x="1341.570312" xlink:href="#DejaVuSans-101"/>
     <use x="1403.09375" xlink:href="#DejaVuSans-56"/>
     <use x="1466.716797" xlink:href="#DejaVuSans-99"/>
     <use x="1521.697266" xlink:href="#DejaVuSans-100"/>
     <use x="1585.173828" xlink:href="#DejaVuSans-57"/>
     <use x="1648.796875" xlink:href="#DejaVuSans-55"/>
     <use x="1712.419922" xlink:href="#DejaVuSans-56"/>
     <use x="1776.042969" xlink:href="#DejaVuSans-51"/>
     <use x="1839.666016" xlink:href="#DejaVuSans-55"/>
     <use x="1903.289062" xlink:href="#DejaVuSans-51"/>
    </g>
   </g>
   <g id="text_19">
    <!-- 55 Gallagher 101/Gallagh. 101 -->
    <g transform="translate(44.404937 35.472)scale(0.2 -0.2)">
     <use xlink:href="#DejaVuSans-53"/>
     <use x="63.623047" xlink:href="#DejaVuSans-53"/>
     <use x="127.246094" xlink:href="#DejaVuSans-32"/>
     <use x="159.033203" xlink:href="#DejaVuSans-71"/>
     <use x="236.523438" xlink:href="#DejaVuSans-97"/>
     <use x="297.802734" xlink:href="#DejaVuSans-108"/>
     <use x="325.585938" xlink:href="#DejaVuSans-108"/>
     <use x="353.369141" xlink:href="#DejaVuSans-97"/>
     <use x="414.648438" xlink:href="#DejaVuSans-103"/>
     <use x="478.125" xlink:href="#DejaVuSans-104"/>
     <use x="541.503906" xlink:href="#DejaVuSans-101"/>
     <use x="603.027344" xlink:href="#DejaVuSans-114"/>
     <use x="644.140625" xlink:href="#DejaVuSans-32"/>
     <use x="675.927734" xlink:href="#DejaVuSans-49"/>
     <use x="739.550781" xlink:href="#DejaVuSans-48"/>
     <use x="803.173828" xlink:href="#DejaVuSans-49"/>
     <use x="866.796875" xlink:href="#DejaVuSans-47"/>
     <use x="900.488281" xlink:href="#DejaVuSans-71"/>
     <use x="977.978516" xlink:href="#DejaVuSans-97"/>
     <use x="1039.257812" xlink:href="#DejaVuSans-108"/>
     <use x="1067.041016" xlink:href="#DejaVuSans-108"/>
     <use x="1094.824219" xlink:href="#DejaVuSans-97"/>
     <use x="1156.103516" xlink:href="#DejaVuSans-103"/>
     <use x="1219.580078" xlink:href="#DejaVuSans-104"/>
     <use x="1282.958984" xlink:href="#DejaVuSans-46"/>
     <use x="1314.746094" xlink:href="#DejaVuSans-32"/>
     <use x="1346.533203" xlink:href="#DejaVuSans-49"/>
     <use x="1410.15625" xlink:href="#DejaVuSans-48"/>
     <use x="1473.779297" xlink:href="#DejaVuSans-49"/>
    </g>
   </g>
  </g>
 </g>
 <defs>
  <clipPath id="p18eb120f83">
   <rect height="257.472" width="281.088" x="57.6" y="41.472"/>
  </clipPath>
 </defs>
</svg>
