<?xml version="1.0" encoding="utf-8" standalone="no"?>
<!DOCTYPE svg PUBLIC "-//W3C//DTD SVG 1.1//EN"
  "http://www.w3.org/Graphics/SVG/1.1/DTD/svg11.dtd">
<!-- Created with matplotlib (https://matplotlib.org/) -->
<svg height="345.6pt" version="1.1" viewBox="0 0 460.8 345.6" width="460.8pt" xmlns="http://www.w3.org/2000/svg" xmlns:xlink="http://www.w3.org/1999/xlink">
 <defs>
  <style type="text/css">
*{stroke-linecap:butt;stroke-linejoin:round;}
  </style>
 </defs>
 <g id="figure_1">
  <g id="patch_1">
   <path d="M 0 345.6 
L 460.8 345.6 
L 460.8 0 
L 0 0 
z
" style="fill:#ffffff;"/>
  </g>
  <g id="axes_1">
   <g id="patch_2">
    <path d="M 57.6 298.944 
L 338.688 298.944 
L 338.688 41.472 
L 57.6 41.472 
z
" style="fill:#ffffff;"/>
   </g>
   <g id="line2d_1">
    <path d="M 48.691568 298.944 
L 48.691568 294.54878 
L 91.535274 294.54878 
L 91.535274 285.758339 
L 112.72987 285.758339 
L 112.72987 276.967899 
L 146.686244 276.967899 
L 146.686244 272.572679 
L 148.525764 272.572679 
L 148.525764 259.387018 
L 160.259108 259.387018 
L 160.259108 250.596578 
L 163.780654 250.596578 
L 163.780654 246.201357 
L 165.543926 246.201357 
L 165.543926 237.410917 
L 196.372336 237.410917 
L 196.372336 224.225256 
L 201.886828 224.225256 
L 201.886828 215.434816 
L 207.502333 215.434816 
L 207.502333 206.644376 
L 213.164473 206.644376 
L 213.164473 197.853935 
L 243.40954 197.853935 
L 243.40954 193.458715 
L 248.968301 193.458715 
L 248.968301 180.273054 
L 249.941533 180.273054 
L 249.941533 175.877834 
L 256.606222 175.877834 
L 256.606222 162.692173 
L 257.151982 162.692173 
L 257.151982 153.901733 
L 257.588207 153.901733 
L 257.588207 149.506513 
L 258.972411 149.506513 
L 258.972411 136.320852 
L 259.460962 136.320852 
L 259.460962 131.925632 
L 259.930393 131.925632 
L 259.930393 118.739971 
L 260.415034 118.739971 
L 260.415034 109.949531 
L 261.087205 109.949531 
L 261.087205 101.15909 
L 261.95522 101.15909 
L 261.95522 96.76387 
L 263.892008 96.76387 
L 263.892008 87.97343 
L 265.985373 87.97343 
L 265.985373 74.787769 
L 338.688 74.787769 
" style="fill:none;stroke:#f5deb3;stroke-linecap:square;stroke-width:4;"/>
   </g>
   <g id="line2d_2">
    <defs>
     <path d="M 0 7.778175 
L 7.778175 0 
L 0 -7.778175 
L -7.778175 0 
z
" id="mdc9948a567" style="stroke:#f5deb3;stroke-linejoin:miter;stroke-width:1.5;"/>
    </defs>
    <g>
     <use style="fill:#f5deb3;stroke:#f5deb3;stroke-linejoin:miter;stroke-width:1.5;" x="165.543926" xlink:href="#mdc9948a567" y="237.410917"/>
     <use style="fill:#f5deb3;stroke:#f5deb3;stroke-linejoin:miter;stroke-width:1.5;" x="243.40954" xlink:href="#mdc9948a567" y="197.853935"/>
     <use style="fill:#f5deb3;stroke:#f5deb3;stroke-linejoin:miter;stroke-width:1.5;" x="259.930393" xlink:href="#mdc9948a567" y="131.925632"/>
     <use style="fill:#f5deb3;stroke:#f5deb3;stroke-linejoin:miter;stroke-width:1.5;" x="265.985373" xlink:href="#mdc9948a567" y="74.787769"/>
     <use style="fill:#f5deb3;stroke:#f5deb3;stroke-linejoin:miter;stroke-width:1.5;" x="338.688" xlink:href="#mdc9948a567" y="74.787769"/>
    </g>
   </g>
   <g id="line2d_3">
    <path style="fill:none;stroke:#f5deb3;stroke-linecap:square;stroke-width:4;"/>
    <g/>
   </g>
   <g id="line2d_4">
    <path d="M 338.688 74.787769 
L 369.60768 49.119683 
" style="fill:none;stroke:#f5deb3;stroke-linecap:square;stroke-width:4;"/>
    <g>
     <use style="fill:#f5deb3;stroke:#f5deb3;stroke-linejoin:miter;stroke-width:1.5;" x="338.688" xlink:href="#mdc9948a567" y="74.787769"/>
     <use style="fill:#f5deb3;stroke:#f5deb3;stroke-linejoin:miter;stroke-width:1.5;" x="369.60768" xlink:href="#mdc9948a567" y="49.119683"/>
    </g>
   </g>
   <g id="matplotlib.axis_1">
    <g id="xtick_1">
     <g id="line2d_5">
      <path clip-path="url(#p8c25afa98f)" d="M 57.6 298.944 
L 57.6 41.472 
" style="fill:none;stroke:#b0b0b0;stroke-linecap:square;stroke-width:0.8;"/>
     </g>
     <g id="line2d_6">
      <defs>
       <path d="M 0 0 
L 0 3.5 
" id="mfde7862894" style="stroke:#000000;stroke-width:0.8;"/>
      </defs>
      <g>
       <use style="stroke:#000000;stroke-width:0.8;" x="57.6" xlink:href="#mfde7862894" y="298.944"/>
      </g>
     </g>
     <g id="text_1">
      <!-- 0 -->
      <defs>
       <path d="M 31.78125 66.40625 
Q 24.171875 66.40625 20.328125 58.90625 
Q 16.5 51.421875 16.5 36.375 
Q 16.5 21.390625 20.328125 13.890625 
Q 24.171875 6.390625 31.78125 6.390625 
Q 39.453125 6.390625 43.28125 13.890625 
Q 47.125 21.390625 47.125 36.375 
Q 47.125 51.421875 43.28125 58.90625 
Q 39.453125 66.40625 31.78125 66.40625 
z
M 31.78125 74.21875 
Q 44.046875 74.21875 50.515625 64.515625 
Q 56.984375 54.828125 56.984375 36.375 
Q 56.984375 17.96875 50.515625 8.265625 
Q 44.046875 -1.421875 31.78125 -1.421875 
Q 19.53125 -1.421875 13.0625 8.265625 
Q 6.59375 17.96875 6.59375 36.375 
Q 6.59375 54.828125 13.0625 64.515625 
Q 19.53125 74.21875 31.78125 74.21875 
z
" id="DejaVuSans-48"/>
      </defs>
      <g transform="translate(51.2375 321.140875)scale(0.2 -0.2)">
       <use xlink:href="#DejaVuSans-48"/>
      </g>
     </g>
    </g>
    <g id="xtick_2">
     <g id="line2d_7">
      <path clip-path="url(#p8c25afa98f)" d="M 137.910857 298.944 
L 137.910857 41.472 
" style="fill:none;stroke:#b0b0b0;stroke-linecap:square;stroke-width:0.8;"/>
     </g>
     <g id="line2d_8">
      <g>
       <use style="stroke:#000000;stroke-width:0.8;" x="137.910857" xlink:href="#mfde7862894" y="298.944"/>
      </g>
     </g>
     <g id="text_2">
      <!-- 2 -->
      <defs>
       <path d="M 19.1875 8.296875 
L 53.609375 8.296875 
L 53.609375 0 
L 7.328125 0 
L 7.328125 8.296875 
Q 12.9375 14.109375 22.625 23.890625 
Q 32.328125 33.6875 34.8125 36.53125 
Q 39.546875 41.84375 41.421875 45.53125 
Q 43.3125 49.21875 43.3125 52.78125 
Q 43.3125 58.59375 39.234375 62.25 
Q 35.15625 65.921875 28.609375 65.921875 
Q 23.96875 65.921875 18.8125 64.3125 
Q 13.671875 62.703125 7.8125 59.421875 
L 7.8125 69.390625 
Q 13.765625 71.78125 18.9375 73 
Q 24.125 74.21875 28.421875 74.21875 
Q 39.75 74.21875 46.484375 68.546875 
Q 53.21875 62.890625 53.21875 53.421875 
Q 53.21875 48.921875 51.53125 44.890625 
Q 49.859375 40.875 45.40625 35.40625 
Q 44.1875 33.984375 37.640625 27.21875 
Q 31.109375 20.453125 19.1875 8.296875 
z
" id="DejaVuSans-50"/>
      </defs>
      <g transform="translate(131.548357 321.140875)scale(0.2 -0.2)">
       <use xlink:href="#DejaVuSans-50"/>
      </g>
     </g>
    </g>
    <g id="xtick_3">
     <g id="line2d_9">
      <path clip-path="url(#p8c25afa98f)" d="M 218.221714 298.944 
L 218.221714 41.472 
" style="fill:none;stroke:#b0b0b0;stroke-linecap:square;stroke-width:0.8;"/>
     </g>
     <g id="line2d_10">
      <g>
       <use style="stroke:#000000;stroke-width:0.8;" x="218.221714" xlink:href="#mfde7862894" y="298.944"/>
      </g>
     </g>
     <g id="text_3">
      <!-- 4 -->
      <defs>
       <path d="M 37.796875 64.3125 
L 12.890625 25.390625 
L 37.796875 25.390625 
z
M 35.203125 72.90625 
L 47.609375 72.90625 
L 47.609375 25.390625 
L 58.015625 25.390625 
L 58.015625 17.1875 
L 47.609375 17.1875 
L 47.609375 0 
L 37.796875 0 
L 37.796875 17.1875 
L 4.890625 17.1875 
L 4.890625 26.703125 
z
" id="DejaVuSans-52"/>
      </defs>
      <g transform="translate(211.859214 321.140875)scale(0.2 -0.2)">
       <use xlink:href="#DejaVuSans-52"/>
      </g>
     </g>
    </g>
    <g id="xtick_4">
     <g id="line2d_11">
      <path clip-path="url(#p8c25afa98f)" d="M 298.532571 298.944 
L 298.532571 41.472 
" style="fill:none;stroke:#b0b0b0;stroke-linecap:square;stroke-width:0.8;"/>
     </g>
     <g id="line2d_12">
      <g>
       <use style="stroke:#000000;stroke-width:0.8;" x="298.532571" xlink:href="#mfde7862894" y="298.944"/>
      </g>
     </g>
     <g id="text_4">
      <!-- 6 -->
      <defs>
       <path d="M 33.015625 40.375 
Q 26.375 40.375 22.484375 35.828125 
Q 18.609375 31.296875 18.609375 23.390625 
Q 18.609375 15.53125 22.484375 10.953125 
Q 26.375 6.390625 33.015625 6.390625 
Q 39.65625 6.390625 43.53125 10.953125 
Q 47.40625 15.53125 47.40625 23.390625 
Q 47.40625 31.296875 43.53125 35.828125 
Q 39.65625 40.375 33.015625 40.375 
z
M 52.59375 71.296875 
L 52.59375 62.3125 
Q 48.875 64.0625 45.09375 64.984375 
Q 41.3125 65.921875 37.59375 65.921875 
Q 27.828125 65.921875 22.671875 59.328125 
Q 17.53125 52.734375 16.796875 39.40625 
Q 19.671875 43.65625 24.015625 45.921875 
Q 28.375 48.1875 33.59375 48.1875 
Q 44.578125 48.1875 50.953125 41.515625 
Q 57.328125 34.859375 57.328125 23.390625 
Q 57.328125 12.15625 50.6875 5.359375 
Q 44.046875 -1.421875 33.015625 -1.421875 
Q 20.359375 -1.421875 13.671875 8.265625 
Q 6.984375 17.96875 6.984375 36.375 
Q 6.984375 53.65625 15.1875 63.9375 
Q 23.390625 74.21875 37.203125 74.21875 
Q 40.921875 74.21875 44.703125 73.484375 
Q 48.484375 72.75 52.59375 71.296875 
z
" id="DejaVuSans-54"/>
      </defs>
      <g transform="translate(292.170071 321.140875)scale(0.2 -0.2)">
       <use xlink:href="#DejaVuSans-54"/>
      </g>
     </g>
    </g>
    <g id="xtick_5">
     <g id="line2d_13">
      <path clip-path="url(#p8c25afa98f)" d="M 57.6 298.944 
L 57.6 41.472 
" style="fill:none;stroke:#b0b0b0;stroke-linecap:square;stroke-width:0.8;"/>
     </g>
     <g id="line2d_14">
      <defs>
       <path d="M 0 0 
L 0 2 
" id="m4386bc4a02" style="stroke:#000000;stroke-width:0.6;"/>
      </defs>
      <g>
       <use style="stroke:#000000;stroke-width:0.6;" x="57.6" xlink:href="#m4386bc4a02" y="298.944"/>
      </g>
     </g>
    </g>
    <g id="xtick_6">
     <g id="line2d_15">
      <path clip-path="url(#p8c25afa98f)" d="M 97.755429 298.944 
L 97.755429 41.472 
" style="fill:none;stroke:#b0b0b0;stroke-linecap:square;stroke-width:0.8;"/>
     </g>
     <g id="line2d_16">
      <g>
       <use style="stroke:#000000;stroke-width:0.6;" x="97.755429" xlink:href="#m4386bc4a02" y="298.944"/>
      </g>
     </g>
    </g>
    <g id="xtick_7">
     <g id="line2d_17">
      <path clip-path="url(#p8c25afa98f)" d="M 137.910857 298.944 
L 137.910857 41.472 
" style="fill:none;stroke:#b0b0b0;stroke-linecap:square;stroke-width:0.8;"/>
     </g>
     <g id="line2d_18">
      <g>
       <use style="stroke:#000000;stroke-width:0.6;" x="137.910857" xlink:href="#m4386bc4a02" y="298.944"/>
      </g>
     </g>
    </g>
    <g id="xtick_8">
     <g id="line2d_19">
      <path clip-path="url(#p8c25afa98f)" d="M 178.066286 298.944 
L 178.066286 41.472 
" style="fill:none;stroke:#b0b0b0;stroke-linecap:square;stroke-width:0.8;"/>
     </g>
     <g id="line2d_20">
      <g>
       <use style="stroke:#000000;stroke-width:0.6;" x="178.066286" xlink:href="#m4386bc4a02" y="298.944"/>
      </g>
     </g>
    </g>
    <g id="xtick_9">
     <g id="line2d_21">
      <path clip-path="url(#p8c25afa98f)" d="M 218.221714 298.944 
L 218.221714 41.472 
" style="fill:none;stroke:#b0b0b0;stroke-linecap:square;stroke-width:0.8;"/>
     </g>
     <g id="line2d_22">
      <g>
       <use style="stroke:#000000;stroke-width:0.6;" x="218.221714" xlink:href="#m4386bc4a02" y="298.944"/>
      </g>
     </g>
    </g>
    <g id="xtick_10">
     <g id="line2d_23">
      <path clip-path="url(#p8c25afa98f)" d="M 258.377143 298.944 
L 258.377143 41.472 
" style="fill:none;stroke:#b0b0b0;stroke-linecap:square;stroke-width:0.8;"/>
     </g>
     <g id="line2d_24">
      <g>
       <use style="stroke:#000000;stroke-width:0.6;" x="258.377143" xlink:href="#m4386bc4a02" y="298.944"/>
      </g>
     </g>
    </g>
    <g id="xtick_11">
     <g id="line2d_25">
      <path clip-path="url(#p8c25afa98f)" d="M 298.532571 298.944 
L 298.532571 41.472 
" style="fill:none;stroke:#b0b0b0;stroke-linecap:square;stroke-width:0.8;"/>
     </g>
     <g id="line2d_26">
      <g>
       <use style="stroke:#000000;stroke-width:0.6;" x="298.532571" xlink:href="#m4386bc4a02" y="298.944"/>
      </g>
     </g>
    </g>
    <g id="xtick_12">
     <g id="line2d_27">
      <path clip-path="url(#p8c25afa98f)" d="M 338.688 298.944 
L 338.688 41.472 
" style="fill:none;stroke:#b0b0b0;stroke-linecap:square;stroke-width:0.8;"/>
     </g>
     <g id="line2d_28">
      <g>
       <use style="stroke:#000000;stroke-width:0.6;" x="338.688" xlink:href="#m4386bc4a02" y="298.944"/>
      </g>
     </g>
    </g>
    <g id="text_5">
     <!-- log10(# f-evals / dimension) -->
     <defs>
      <path d="M 9.421875 75.984375 
L 18.40625 75.984375 
L 18.40625 0 
L 9.421875 0 
z
" id="DejaVuSans-108"/>
      <path d="M 30.609375 48.390625 
Q 23.390625 48.390625 19.1875 42.75 
Q 14.984375 37.109375 14.984375 27.296875 
Q 14.984375 17.484375 19.15625 11.84375 
Q 23.34375 6.203125 30.609375 6.203125 
Q 37.796875 6.203125 41.984375 11.859375 
Q 46.1875 17.53125 46.1875 27.296875 
Q 46.1875 37.015625 41.984375 42.703125 
Q 37.796875 48.390625 30.609375 48.390625 
z
M 30.609375 56 
Q 42.328125 56 49.015625 48.375 
Q 55.71875 40.765625 55.71875 27.296875 
Q 55.71875 13.875 49.015625 6.21875 
Q 42.328125 -1.421875 30.609375 -1.421875 
Q 18.84375 -1.421875 12.171875 6.21875 
Q 5.515625 13.875 5.515625 27.296875 
Q 5.515625 40.765625 12.171875 48.375 
Q 18.84375 56 30.609375 56 
z
" id="DejaVuSans-111"/>
      <path d="M 45.40625 27.984375 
Q 45.40625 37.75 41.375 43.109375 
Q 37.359375 48.484375 30.078125 48.484375 
Q 22.859375 48.484375 18.828125 43.109375 
Q 14.796875 37.75 14.796875 27.984375 
Q 14.796875 18.265625 18.828125 12.890625 
Q 22.859375 7.515625 30.078125 7.515625 
Q 37.359375 7.515625 41.375 12.890625 
Q 45.40625 18.265625 45.40625 27.984375 
z
M 54.390625 6.78125 
Q 54.390625 -7.171875 48.1875 -13.984375 
Q 42 -20.796875 29.203125 -20.796875 
Q 24.46875 -20.796875 20.265625 -20.09375 
Q 16.0625 -19.390625 12.109375 -17.921875 
L 12.109375 -9.1875 
Q 16.0625 -11.328125 19.921875 -12.34375 
Q 23.78125 -13.375 27.78125 -13.375 
Q 36.625 -13.375 41.015625 -8.765625 
Q 45.40625 -4.15625 45.40625 5.171875 
L 45.40625 9.625 
Q 42.625 4.78125 38.28125 2.390625 
Q 33.9375 0 27.875 0 
Q 17.828125 0 11.671875 7.65625 
Q 5.515625 15.328125 5.515625 27.984375 
Q 5.515625 40.671875 11.671875 48.328125 
Q 17.828125 56 27.875 56 
Q 33.9375 56 38.28125 53.609375 
Q 42.625 51.21875 45.40625 46.390625 
L 45.40625 54.6875 
L 54.390625 54.6875 
z
" id="DejaVuSans-103"/>
      <path d="M 12.40625 8.296875 
L 28.515625 8.296875 
L 28.515625 63.921875 
L 10.984375 60.40625 
L 10.984375 69.390625 
L 28.421875 72.90625 
L 38.28125 72.90625 
L 38.28125 8.296875 
L 54.390625 8.296875 
L 54.390625 0 
L 12.40625 0 
z
" id="DejaVuSans-49"/>
      <path d="M 31 75.875 
Q 24.46875 64.65625 21.28125 53.65625 
Q 18.109375 42.671875 18.109375 31.390625 
Q 18.109375 20.125 21.3125 9.0625 
Q 24.515625 -2 31 -13.1875 
L 23.1875 -13.1875 
Q 15.875 -1.703125 12.234375 9.375 
Q 8.59375 20.453125 8.59375 31.390625 
Q 8.59375 42.28125 12.203125 53.3125 
Q 15.828125 64.359375 23.1875 75.875 
z
" id="DejaVuSans-40"/>
      <path d="M 51.125 44 
L 36.921875 44 
L 32.8125 27.6875 
L 47.125 27.6875 
z
M 43.796875 71.78125 
L 38.71875 51.515625 
L 52.984375 51.515625 
L 58.109375 71.78125 
L 65.921875 71.78125 
L 60.890625 51.515625 
L 76.125 51.515625 
L 76.125 44 
L 58.984375 44 
L 54.984375 27.6875 
L 70.515625 27.6875 
L 70.515625 20.21875 
L 53.078125 20.21875 
L 48 0 
L 40.1875 0 
L 45.21875 20.21875 
L 30.90625 20.21875 
L 25.875 0 
L 18.015625 0 
L 23.09375 20.21875 
L 7.71875 20.21875 
L 7.71875 27.6875 
L 24.90625 27.6875 
L 29 44 
L 13.28125 44 
L 13.28125 51.515625 
L 30.90625 51.515625 
L 35.890625 71.78125 
z
" id="DejaVuSans-35"/>
      <path id="DejaVuSans-32"/>
      <path d="M 37.109375 75.984375 
L 37.109375 68.5 
L 28.515625 68.5 
Q 23.6875 68.5 21.796875 66.546875 
Q 19.921875 64.59375 19.921875 59.515625 
L 19.921875 54.6875 
L 34.71875 54.6875 
L 34.71875 47.703125 
L 19.921875 47.703125 
L 19.921875 0 
L 10.890625 0 
L 10.890625 47.703125 
L 2.296875 47.703125 
L 2.296875 54.6875 
L 10.890625 54.6875 
L 10.890625 58.5 
Q 10.890625 67.625 15.140625 71.796875 
Q 19.390625 75.984375 28.609375 75.984375 
z
" id="DejaVuSans-102"/>
      <path d="M 4.890625 31.390625 
L 31.203125 31.390625 
L 31.203125 23.390625 
L 4.890625 23.390625 
z
" id="DejaVuSans-45"/>
      <path d="M 56.203125 29.59375 
L 56.203125 25.203125 
L 14.890625 25.203125 
Q 15.484375 15.921875 20.484375 11.0625 
Q 25.484375 6.203125 34.421875 6.203125 
Q 39.59375 6.203125 44.453125 7.46875 
Q 49.3125 8.734375 54.109375 11.28125 
L 54.109375 2.78125 
Q 49.265625 0.734375 44.1875 -0.34375 
Q 39.109375 -1.421875 33.890625 -1.421875 
Q 20.796875 -1.421875 13.15625 6.1875 
Q 5.515625 13.8125 5.515625 26.8125 
Q 5.515625 40.234375 12.765625 48.109375 
Q 20.015625 56 32.328125 56 
Q 43.359375 56 49.78125 48.890625 
Q 56.203125 41.796875 56.203125 29.59375 
z
M 47.21875 32.234375 
Q 47.125 39.59375 43.09375 43.984375 
Q 39.0625 48.390625 32.421875 48.390625 
Q 24.90625 48.390625 20.390625 44.140625 
Q 15.875 39.890625 15.1875 32.171875 
z
" id="DejaVuSans-101"/>
      <path d="M 2.984375 54.6875 
L 12.5 54.6875 
L 29.59375 8.796875 
L 46.6875 54.6875 
L 56.203125 54.6875 
L 35.6875 0 
L 23.484375 0 
z
" id="DejaVuSans-118"/>
      <path d="M 34.28125 27.484375 
Q 23.390625 27.484375 19.1875 25 
Q 14.984375 22.515625 14.984375 16.5 
Q 14.984375 11.71875 18.140625 8.90625 
Q 21.296875 6.109375 26.703125 6.109375 
Q 34.1875 6.109375 38.703125 11.40625 
Q 43.21875 16.703125 43.21875 25.484375 
L 43.21875 27.484375 
z
M 52.203125 31.203125 
L 52.203125 0 
L 43.21875 0 
L 43.21875 8.296875 
Q 40.140625 3.328125 35.546875 0.953125 
Q 30.953125 -1.421875 24.3125 -1.421875 
Q 15.921875 -1.421875 10.953125 3.296875 
Q 6 8.015625 6 15.921875 
Q 6 25.140625 12.171875 29.828125 
Q 18.359375 34.515625 30.609375 34.515625 
L 43.21875 34.515625 
L 43.21875 35.40625 
Q 43.21875 41.609375 39.140625 45 
Q 35.0625 48.390625 27.6875 48.390625 
Q 23 48.390625 18.546875 47.265625 
Q 14.109375 46.140625 10.015625 43.890625 
L 10.015625 52.203125 
Q 14.9375 54.109375 19.578125 55.046875 
Q 24.21875 56 28.609375 56 
Q 40.484375 56 46.34375 49.84375 
Q 52.203125 43.703125 52.203125 31.203125 
z
" id="DejaVuSans-97"/>
      <path d="M 44.28125 53.078125 
L 44.28125 44.578125 
Q 40.484375 46.53125 36.375 47.5 
Q 32.28125 48.484375 27.875 48.484375 
Q 21.1875 48.484375 17.84375 46.4375 
Q 14.5 44.390625 14.5 40.28125 
Q 14.5 37.15625 16.890625 35.375 
Q 19.28125 33.59375 26.515625 31.984375 
L 29.59375 31.296875 
Q 39.15625 29.25 43.1875 25.515625 
Q 47.21875 21.78125 47.21875 15.09375 
Q 47.21875 7.46875 41.1875 3.015625 
Q 35.15625 -1.421875 24.609375 -1.421875 
Q 20.21875 -1.421875 15.453125 -0.5625 
Q 10.6875 0.296875 5.421875 2 
L 5.421875 11.28125 
Q 10.40625 8.6875 15.234375 7.390625 
Q 20.0625 6.109375 24.8125 6.109375 
Q 31.15625 6.109375 34.5625 8.28125 
Q 37.984375 10.453125 37.984375 14.40625 
Q 37.984375 18.0625 35.515625 20.015625 
Q 33.0625 21.96875 24.703125 23.78125 
L 21.578125 24.515625 
Q 13.234375 26.265625 9.515625 29.90625 
Q 5.8125 33.546875 5.8125 39.890625 
Q 5.8125 47.609375 11.28125 51.796875 
Q 16.75 56 26.8125 56 
Q 31.78125 56 36.171875 55.265625 
Q 40.578125 54.546875 44.28125 53.078125 
z
" id="DejaVuSans-115"/>
      <path d="M 25.390625 72.90625 
L 33.6875 72.90625 
L 8.296875 -9.28125 
L 0 -9.28125 
z
" id="DejaVuSans-47"/>
      <path d="M 45.40625 46.390625 
L 45.40625 75.984375 
L 54.390625 75.984375 
L 54.390625 0 
L 45.40625 0 
L 45.40625 8.203125 
Q 42.578125 3.328125 38.25 0.953125 
Q 33.9375 -1.421875 27.875 -1.421875 
Q 17.96875 -1.421875 11.734375 6.484375 
Q 5.515625 14.40625 5.515625 27.296875 
Q 5.515625 40.1875 11.734375 48.09375 
Q 17.96875 56 27.875 56 
Q 33.9375 56 38.25 53.625 
Q 42.578125 51.265625 45.40625 46.390625 
z
M 14.796875 27.296875 
Q 14.796875 17.390625 18.875 11.75 
Q 22.953125 6.109375 30.078125 6.109375 
Q 37.203125 6.109375 41.296875 11.75 
Q 45.40625 17.390625 45.40625 27.296875 
Q 45.40625 37.203125 41.296875 42.84375 
Q 37.203125 48.484375 30.078125 48.484375 
Q 22.953125 48.484375 18.875 42.84375 
Q 14.796875 37.203125 14.796875 27.296875 
z
" id="DejaVuSans-100"/>
      <path d="M 9.421875 54.6875 
L 18.40625 54.6875 
L 18.40625 0 
L 9.421875 0 
z
M 9.421875 75.984375 
L 18.40625 75.984375 
L 18.40625 64.59375 
L 9.421875 64.59375 
z
" id="DejaVuSans-105"/>
      <path d="M 52 44.1875 
Q 55.375 50.25 60.0625 53.125 
Q 64.75 56 71.09375 56 
Q 79.640625 56 84.28125 50.015625 
Q 88.921875 44.046875 88.921875 33.015625 
L 88.921875 0 
L 79.890625 0 
L 79.890625 32.71875 
Q 79.890625 40.578125 77.09375 44.375 
Q 74.3125 48.1875 68.609375 48.1875 
Q 61.625 48.1875 57.5625 43.546875 
Q 53.515625 38.921875 53.515625 30.90625 
L 53.515625 0 
L 44.484375 0 
L 44.484375 32.71875 
Q 44.484375 40.625 41.703125 44.40625 
Q 38.921875 48.1875 33.109375 48.1875 
Q 26.21875 48.1875 22.15625 43.53125 
Q 18.109375 38.875 18.109375 30.90625 
L 18.109375 0 
L 9.078125 0 
L 9.078125 54.6875 
L 18.109375 54.6875 
L 18.109375 46.1875 
Q 21.1875 51.21875 25.484375 53.609375 
Q 29.78125 56 35.6875 56 
Q 41.65625 56 45.828125 52.96875 
Q 50 49.953125 52 44.1875 
z
" id="DejaVuSans-109"/>
      <path d="M 54.890625 33.015625 
L 54.890625 0 
L 45.90625 0 
L 45.90625 32.71875 
Q 45.90625 40.484375 42.875 44.328125 
Q 39.84375 48.1875 33.796875 48.1875 
Q 26.515625 48.1875 22.3125 43.546875 
Q 18.109375 38.921875 18.109375 30.90625 
L 18.109375 0 
L 9.078125 0 
L 9.078125 54.6875 
L 18.109375 54.6875 
L 18.109375 46.1875 
Q 21.34375 51.125 25.703125 53.5625 
Q 30.078125 56 35.796875 56 
Q 45.21875 56 50.046875 50.171875 
Q 54.890625 44.34375 54.890625 33.015625 
z
" id="DejaVuSans-110"/>
      <path d="M 8.015625 75.875 
L 15.828125 75.875 
Q 23.140625 64.359375 26.78125 53.3125 
Q 30.421875 42.28125 30.421875 31.390625 
Q 30.421875 20.453125 26.78125 9.375 
Q 23.140625 -1.703125 15.828125 -13.1875 
L 8.015625 -13.1875 
Q 14.5 -2 17.703125 9.0625 
Q 20.90625 20.125 20.90625 31.390625 
Q 20.90625 42.671875 17.703125 53.65625 
Q 14.5 64.65625 8.015625 75.875 
z
" id="DejaVuSans-41"/>
     </defs>
     <g transform="translate(77.303219 342.217594)scale(0.17 -0.17)">
      <use xlink:href="#DejaVuSans-108"/>
      <use x="27.783203" xlink:href="#DejaVuSans-111"/>
      <use x="88.964844" xlink:href="#DejaVuSans-103"/>
      <use x="152.441406" xlink:href="#DejaVuSans-49"/>
      <use x="216.064453" xlink:href="#DejaVuSans-48"/>
      <use x="279.6875" xlink:href="#DejaVuSans-40"/>
      <use x="318.701172" xlink:href="#DejaVuSans-35"/>
      <use x="402.490234" xlink:href="#DejaVuSans-32"/>
      <use x="434.277344" xlink:href="#DejaVuSans-102"/>
      <use x="469.404297" xlink:href="#DejaVuSans-45"/>
      <use x="505.488281" xlink:href="#DejaVuSans-101"/>
      <use x="567.011719" xlink:href="#DejaVuSans-118"/>
      <use x="626.191406" xlink:href="#DejaVuSans-97"/>
      <use x="687.470703" xlink:href="#DejaVuSans-108"/>
      <use x="715.253906" xlink:href="#DejaVuSans-115"/>
      <use x="767.353516" xlink:href="#DejaVuSans-32"/>
      <use x="799.140625" xlink:href="#DejaVuSans-47"/>
      <use x="832.832031" xlink:href="#DejaVuSans-32"/>
      <use x="864.619141" xlink:href="#DejaVuSans-100"/>
      <use x="928.095703" xlink:href="#DejaVuSans-105"/>
      <use x="955.878906" xlink:href="#DejaVuSans-109"/>
      <use x="1053.291016" xlink:href="#DejaVuSans-101"/>
      <use x="1114.814453" xlink:href="#DejaVuSans-110"/>
      <use x="1178.193359" xlink:href="#DejaVuSans-115"/>
      <use x="1230.292969" xlink:href="#DejaVuSans-105"/>
      <use x="1258.076172" xlink:href="#DejaVuSans-111"/>
      <use x="1319.257812" xlink:href="#DejaVuSans-110"/>
      <use x="1382.636719" xlink:href="#DejaVuSans-41"/>
     </g>
    </g>
   </g>
   <g id="matplotlib.axis_2">
    <g id="ytick_1">
     <g id="line2d_29">
      <path clip-path="url(#p8c25afa98f)" d="M 57.6 298.944 
L 338.688 298.944 
" style="fill:none;stroke:#b0b0b0;stroke-linecap:square;stroke-width:0.8;"/>
     </g>
     <g id="line2d_30">
      <defs>
       <path d="M 0 0 
L -3.5 0 
" id="m6b7f56a4eb" style="stroke:#000000;stroke-width:0.8;"/>
      </defs>
      <g>
       <use style="stroke:#000000;stroke-width:0.8;" x="57.6" xlink:href="#m6b7f56a4eb" y="298.944"/>
      </g>
     </g>
     <g id="text_6">
      <!-- 0.0 -->
      <defs>
       <path d="M 10.6875 12.40625 
L 21 12.40625 
L 21 0 
L 10.6875 0 
z
" id="DejaVuSans-46"/>
      </defs>
      <g transform="translate(25.155 305.02275)scale(0.16 -0.16)">
       <use xlink:href="#DejaVuSans-48"/>
       <use x="63.623047" xlink:href="#DejaVuSans-46"/>
       <use x="95.410156" xlink:href="#DejaVuSans-48"/>
      </g>
     </g>
    </g>
    <g id="ytick_2">
     <g id="line2d_31">
      <path clip-path="url(#p8c25afa98f)" d="M 57.6 247.959446 
L 338.688 247.959446 
" style="fill:none;stroke:#b0b0b0;stroke-linecap:square;stroke-width:0.8;"/>
     </g>
     <g id="line2d_32">
      <g>
       <use style="stroke:#000000;stroke-width:0.8;" x="57.6" xlink:href="#m6b7f56a4eb" y="247.959446"/>
      </g>
     </g>
     <g id="text_7">
      <!-- 0.2 -->
      <g transform="translate(25.155 254.038196)scale(0.16 -0.16)">
       <use xlink:href="#DejaVuSans-48"/>
       <use x="63.623047" xlink:href="#DejaVuSans-46"/>
       <use x="95.410156" xlink:href="#DejaVuSans-50"/>
      </g>
     </g>
    </g>
    <g id="ytick_3">
     <g id="line2d_33">
      <path clip-path="url(#p8c25afa98f)" d="M 57.6 196.974891 
L 338.688 196.974891 
" style="fill:none;stroke:#b0b0b0;stroke-linecap:square;stroke-width:0.8;"/>
     </g>
     <g id="line2d_34">
      <g>
       <use style="stroke:#000000;stroke-width:0.8;" x="57.6" xlink:href="#m6b7f56a4eb" y="196.974891"/>
      </g>
     </g>
     <g id="text_8">
      <!-- 0.4 -->
      <g transform="translate(25.155 203.053641)scale(0.16 -0.16)">
       <use xlink:href="#DejaVuSans-48"/>
       <use x="63.623047" xlink:href="#DejaVuSans-46"/>
       <use x="95.410156" xlink:href="#DejaVuSans-52"/>
      </g>
     </g>
    </g>
    <g id="ytick_4">
     <g id="line2d_35">
      <path clip-path="url(#p8c25afa98f)" d="M 57.6 145.990337 
L 338.688 145.990337 
" style="fill:none;stroke:#b0b0b0;stroke-linecap:square;stroke-width:0.8;"/>
     </g>
     <g id="line2d_36">
      <g>
       <use style="stroke:#000000;stroke-width:0.8;" x="57.6" xlink:href="#m6b7f56a4eb" y="145.990337"/>
      </g>
     </g>
     <g id="text_9">
      <!-- 0.6 -->
      <g transform="translate(25.155 152.069087)scale(0.16 -0.16)">
       <use xlink:href="#DejaVuSans-48"/>
       <use x="63.623047" xlink:href="#DejaVuSans-46"/>
       <use x="95.410156" xlink:href="#DejaVuSans-54"/>
      </g>
     </g>
    </g>
    <g id="ytick_5">
     <g id="line2d_37">
      <path clip-path="url(#p8c25afa98f)" d="M 57.6 95.005782 
L 338.688 95.005782 
" style="fill:none;stroke:#b0b0b0;stroke-linecap:square;stroke-width:0.8;"/>
     </g>
     <g id="line2d_38">
      <g>
       <use style="stroke:#000000;stroke-width:0.8;" x="57.6" xlink:href="#m6b7f56a4eb" y="95.005782"/>
      </g>
     </g>
     <g id="text_10">
      <!-- 0.8 -->
      <defs>
       <path d="M 31.78125 34.625 
Q 24.75 34.625 20.71875 30.859375 
Q 16.703125 27.09375 16.703125 20.515625 
Q 16.703125 13.921875 20.71875 10.15625 
Q 24.75 6.390625 31.78125 6.390625 
Q 38.8125 6.390625 42.859375 10.171875 
Q 46.921875 13.96875 46.921875 20.515625 
Q 46.921875 27.09375 42.890625 30.859375 
Q 38.875 34.625 31.78125 34.625 
z
M 21.921875 38.8125 
Q 15.578125 40.375 12.03125 44.71875 
Q 8.5 49.078125 8.5 55.328125 
Q 8.5 64.0625 14.71875 69.140625 
Q 20.953125 74.21875 31.78125 74.21875 
Q 42.671875 74.21875 48.875 69.140625 
Q 55.078125 64.0625 55.078125 55.328125 
Q 55.078125 49.078125 51.53125 44.71875 
Q 48 40.375 41.703125 38.8125 
Q 48.828125 37.15625 52.796875 32.3125 
Q 56.78125 27.484375 56.78125 20.515625 
Q 56.78125 9.90625 50.3125 4.234375 
Q 43.84375 -1.421875 31.78125 -1.421875 
Q 19.734375 -1.421875 13.25 4.234375 
Q 6.78125 9.90625 6.78125 20.515625 
Q 6.78125 27.484375 10.78125 32.3125 
Q 14.796875 37.15625 21.921875 38.8125 
z
M 18.3125 54.390625 
Q 18.3125 48.734375 21.84375 45.5625 
Q 25.390625 42.390625 31.78125 42.390625 
Q 38.140625 42.390625 41.71875 45.5625 
Q 45.3125 48.734375 45.3125 54.390625 
Q 45.3125 60.0625 41.71875 63.234375 
Q 38.140625 66.40625 31.78125 66.40625 
Q 25.390625 66.40625 21.84375 63.234375 
Q 18.3125 60.0625 18.3125 54.390625 
z
" id="DejaVuSans-56"/>
      </defs>
      <g transform="translate(25.155 101.084532)scale(0.16 -0.16)">
       <use xlink:href="#DejaVuSans-48"/>
       <use x="63.623047" xlink:href="#DejaVuSans-46"/>
       <use x="95.410156" xlink:href="#DejaVuSans-56"/>
      </g>
     </g>
    </g>
    <g id="ytick_6">
     <g id="line2d_39">
      <path clip-path="url(#p8c25afa98f)" d="M 57.6 44.021228 
L 338.688 44.021228 
" style="fill:none;stroke:#b0b0b0;stroke-linecap:square;stroke-width:0.8;"/>
     </g>
     <g id="line2d_40">
      <g>
       <use style="stroke:#000000;stroke-width:0.8;" x="57.6" xlink:href="#m6b7f56a4eb" y="44.021228"/>
      </g>
     </g>
     <g id="text_11">
      <!-- 1.0 -->
      <g transform="translate(25.155 50.099978)scale(0.16 -0.16)">
       <use xlink:href="#DejaVuSans-49"/>
       <use x="63.623047" xlink:href="#DejaVuSans-46"/>
       <use x="95.410156" xlink:href="#DejaVuSans-48"/>
      </g>
     </g>
    </g>
    <g id="text_12">
     <!-- Fraction of function,target pairs -->
     <defs>
      <path d="M 9.8125 72.90625 
L 51.703125 72.90625 
L 51.703125 64.59375 
L 19.671875 64.59375 
L 19.671875 43.109375 
L 48.578125 43.109375 
L 48.578125 34.8125 
L 19.671875 34.8125 
L 19.671875 0 
L 9.8125 0 
z
" id="DejaVuSans-70"/>
      <path d="M 41.109375 46.296875 
Q 39.59375 47.171875 37.8125 47.578125 
Q 36.03125 48 33.890625 48 
Q 26.265625 48 22.1875 43.046875 
Q 18.109375 38.09375 18.109375 28.8125 
L 18.109375 0 
L 9.078125 0 
L 9.078125 54.6875 
L 18.109375 54.6875 
L 18.109375 46.1875 
Q 20.953125 51.171875 25.484375 53.578125 
Q 30.03125 56 36.53125 56 
Q 37.453125 56 38.578125 55.875 
Q 39.703125 55.765625 41.0625 55.515625 
z
" id="DejaVuSans-114"/>
      <path d="M 48.78125 52.59375 
L 48.78125 44.1875 
Q 44.96875 46.296875 41.140625 47.34375 
Q 37.3125 48.390625 33.40625 48.390625 
Q 24.65625 48.390625 19.8125 42.84375 
Q 14.984375 37.3125 14.984375 27.296875 
Q 14.984375 17.28125 19.8125 11.734375 
Q 24.65625 6.203125 33.40625 6.203125 
Q 37.3125 6.203125 41.140625 7.25 
Q 44.96875 8.296875 48.78125 10.40625 
L 48.78125 2.09375 
Q 45.015625 0.34375 40.984375 -0.53125 
Q 36.96875 -1.421875 32.421875 -1.421875 
Q 20.0625 -1.421875 12.78125 6.34375 
Q 5.515625 14.109375 5.515625 27.296875 
Q 5.515625 40.671875 12.859375 48.328125 
Q 20.21875 56 33.015625 56 
Q 37.15625 56 41.109375 55.140625 
Q 45.0625 54.296875 48.78125 52.59375 
z
" id="DejaVuSans-99"/>
      <path d="M 18.3125 70.21875 
L 18.3125 54.6875 
L 36.8125 54.6875 
L 36.8125 47.703125 
L 18.3125 47.703125 
L 18.3125 18.015625 
Q 18.3125 11.328125 20.140625 9.421875 
Q 21.96875 7.515625 27.59375 7.515625 
L 36.8125 7.515625 
L 36.8125 0 
L 27.59375 0 
Q 17.1875 0 13.234375 3.875 
Q 9.28125 7.765625 9.28125 18.015625 
L 9.28125 47.703125 
L 2.6875 47.703125 
L 2.6875 54.6875 
L 9.28125 54.6875 
L 9.28125 70.21875 
z
" id="DejaVuSans-116"/>
      <path d="M 8.5 21.578125 
L 8.5 54.6875 
L 17.484375 54.6875 
L 17.484375 21.921875 
Q 17.484375 14.15625 20.5 10.265625 
Q 23.53125 6.390625 29.59375 6.390625 
Q 36.859375 6.390625 41.078125 11.03125 
Q 45.3125 15.671875 45.3125 23.6875 
L 45.3125 54.6875 
L 54.296875 54.6875 
L 54.296875 0 
L 45.3125 0 
L 45.3125 8.40625 
Q 42.046875 3.421875 37.71875 1 
Q 33.40625 -1.421875 27.6875 -1.421875 
Q 18.265625 -1.421875 13.375 4.4375 
Q 8.5 10.296875 8.5 21.578125 
z
M 31.109375 56 
z
" id="DejaVuSans-117"/>
      <path d="M 11.71875 12.40625 
L 22.015625 12.40625 
L 22.015625 4 
L 14.015625 -11.625 
L 7.71875 -11.625 
L 11.71875 4 
z
" id="DejaVuSans-44"/>
      <path d="M 18.109375 8.203125 
L 18.109375 -20.796875 
L 9.078125 -20.796875 
L 9.078125 54.6875 
L 18.109375 54.6875 
L 18.109375 46.390625 
Q 20.953125 51.265625 25.265625 53.625 
Q 29.59375 56 35.59375 56 
Q 45.5625 56 51.78125 48.09375 
Q 58.015625 40.1875 58.015625 27.296875 
Q 58.015625 14.40625 51.78125 6.484375 
Q 45.5625 -1.421875 35.59375 -1.421875 
Q 29.59375 -1.421875 25.265625 0.953125 
Q 20.953125 3.328125 18.109375 8.203125 
z
M 48.6875 27.296875 
Q 48.6875 37.203125 44.609375 42.84375 
Q 40.53125 48.484375 33.40625 48.484375 
Q 26.265625 48.484375 22.1875 42.84375 
Q 18.109375 37.203125 18.109375 27.296875 
Q 18.109375 17.390625 22.1875 11.75 
Q 26.265625 6.109375 33.40625 6.109375 
Q 40.53125 6.109375 44.609375 11.75 
Q 48.6875 17.390625 48.6875 27.296875 
z
" id="DejaVuSans-112"/>
     </defs>
     <g transform="translate(17.619531 305.347375)rotate(-90)scale(0.17 -0.17)">
      <use xlink:href="#DejaVuSans-70"/>
      <use x="57.410156" xlink:href="#DejaVuSans-114"/>
      <use x="98.523438" xlink:href="#DejaVuSans-97"/>
      <use x="159.802734" xlink:href="#DejaVuSans-99"/>
      <use x="214.783203" xlink:href="#DejaVuSans-116"/>
      <use x="253.992188" xlink:href="#DejaVuSans-105"/>
      <use x="281.775391" xlink:href="#DejaVuSans-111"/>
      <use x="342.957031" xlink:href="#DejaVuSans-110"/>
      <use x="406.335938" xlink:href="#DejaVuSans-32"/>
      <use x="438.123047" xlink:href="#DejaVuSans-111"/>
      <use x="499.304688" xlink:href="#DejaVuSans-102"/>
      <use x="534.509766" xlink:href="#DejaVuSans-32"/>
      <use x="566.296875" xlink:href="#DejaVuSans-102"/>
      <use x="601.501953" xlink:href="#DejaVuSans-117"/>
      <use x="664.880859" xlink:href="#DejaVuSans-110"/>
      <use x="728.259766" xlink:href="#DejaVuSans-99"/>
      <use x="783.240234" xlink:href="#DejaVuSans-116"/>
      <use x="822.449219" xlink:href="#DejaVuSans-105"/>
      <use x="850.232422" xlink:href="#DejaVuSans-111"/>
      <use x="911.414062" xlink:href="#DejaVuSans-110"/>
      <use x="974.792969" xlink:href="#DejaVuSans-44"/>
      <use x="1006.580078" xlink:href="#DejaVuSans-116"/>
      <use x="1045.789062" xlink:href="#DejaVuSans-97"/>
      <use x="1107.068359" xlink:href="#DejaVuSans-114"/>
      <use x="1148.166016" xlink:href="#DejaVuSans-103"/>
      <use x="1211.642578" xlink:href="#DejaVuSans-101"/>
      <use x="1273.166016" xlink:href="#DejaVuSans-116"/>
      <use x="1312.375" xlink:href="#DejaVuSans-32"/>
      <use x="1344.162109" xlink:href="#DejaVuSans-112"/>
      <use x="1407.638672" xlink:href="#DejaVuSans-97"/>
      <use x="1468.917969" xlink:href="#DejaVuSans-105"/>
      <use x="1496.701172" xlink:href="#DejaVuSans-114"/>
      <use x="1537.814453" xlink:href="#DejaVuSans-115"/>
     </g>
    </g>
   </g>
   <g id="line2d_41">
    <defs>
     <path d="M 0 1.5 
C 0.397805 1.5 0.77937 1.341951 1.06066 1.06066 
C 1.341951 0.77937 1.5 0.397805 1.5 0 
C 1.5 -0.397805 1.341951 -0.77937 1.06066 -1.06066 
C 0.77937 -1.341951 0.397805 -1.5 0 -1.5 
C -0.397805 -1.5 -0.77937 -1.341951 -1.06066 -1.06066 
C -1.341951 -0.77937 -1.5 -0.397805 -1.5 0 
C -1.5 0.397805 -1.341951 0.77937 -1.06066 1.06066 
C -0.77937 1.341951 -0.397805 1.5 0 1.5 
z
" id="mc57c289587" style="stroke:#f5deb3;"/>
    </defs>
    <g>
     <use style="fill:#f5deb3;stroke:#f5deb3;" x="265.985373" xlink:href="#mc57c289587" y="74.787769"/>
     <use style="fill:#f5deb3;stroke:#f5deb3;" x="265.985373" xlink:href="#mc57c289587" y="74.787769"/>
    </g>
   </g>
   <g id="line2d_42">
    <defs>
     <path d="M 0 1.5 
C 0.397805 1.5 0.77937 1.341951 1.06066 1.06066 
C 1.341951 0.77937 1.5 0.397805 1.5 0 
C 1.5 -0.397805 1.341951 -0.77937 1.06066 -1.06066 
C 0.77937 -1.341951 0.397805 -1.5 0 -1.5 
C -0.397805 -1.5 -0.77937 -1.341951 -1.06066 -1.06066 
C -1.341951 -0.77937 -1.5 -0.397805 -1.5 0 
C -1.5 0.397805 -1.341951 0.77937 -1.06066 1.06066 
C -0.77937 1.341951 -0.397805 1.5 0 1.5 
z
" id="m0abf200122" style="stroke:#000080;"/>
    </defs>
    <g>
     <use style="fill:#000080;stroke:#000080;" x="212.071426" xlink:href="#m0abf200122" y="258.068452"/>
     <use style="fill:#000080;stroke:#000080;" x="212.071426" xlink:href="#m0abf200122" y="258.068452"/>
    </g>
   </g>
   <g id="line2d_43">
    <path d="M 17.444571 298.944 
L 17.444571 293.230214 
L 144.865226 293.230214 
L 144.865226 292.790692 
L 146.885432 292.790692 
L 146.885432 292.35117 
L 147.56019 292.35117 
L 147.56019 291.911648 
L 148.723886 291.911648 
L 148.723886 291.472126 
L 149.012299 291.472126 
L 149.058374 290.593082 
L 149.168459 290.593082 
L 149.223242 289.274516 
L 149.386567 289.274516 
L 149.386567 288.834994 
L 149.575199 288.834994 
L 149.610898 287.955949 
L 149.893895 287.955949 
L 149.981398 286.637383 
L 150.051085 286.637383 
L 150.051085 285.758339 
L 150.275665 285.758339 
L 150.275665 285.318817 
L 150.581924 285.318817 
L 150.581924 284.879295 
L 150.774811 284.879295 
L 150.774811 284.439773 
L 150.899466 284.439773 
L 150.899466 284.000251 
L 151.015013 284.000251 
L 151.056095 283.121207 
L 151.186911 283.121207 
L 151.186911 282.681685 
L 151.308666 282.681685 
L 151.308666 282.242163 
L 151.549655 282.242163 
L 151.597455 280.923597 
L 151.779487 280.923597 
L 151.779487 280.484075 
L 152.314453 280.484075 
L 152.314453 280.044553 
L 152.892686 280.044553 
L 152.944315 279.165509 
L 153.459513 279.165509 
L 153.459513 278.725987 
L 154.276638 278.725987 
L 154.276638 278.286465 
L 154.807483 278.286465 
L 154.807483 277.846943 
L 155.678822 277.846943 
L 155.678822 277.407421 
L 156.364014 277.407421 
L 156.364014 276.967899 
L 156.717545 276.967899 
L 156.717545 276.528377 
L 158.075062 276.528377 
L 158.075062 276.088855 
L 159.180664 276.088855 
L 159.180664 275.649333 
L 160.162007 275.649333 
L 160.162007 275.209811 
L 161.091058 275.209811 
L 161.091058 274.770289 
L 163.521581 274.770289 
L 163.521581 274.330767 
L 166.24825 274.330767 
L 166.24825 273.451723 
L 172.105778 273.451723 
L 172.105778 273.012201 
L 172.274322 273.012201 
L 172.274322 272.572679 
L 172.812873 272.572679 
L 172.812873 272.133157 
L 173.695248 272.133157 
L 173.777957 270.375069 
L 173.920102 270.375069 
L 173.920102 269.935547 
L 174.187897 269.935547 
L 174.187897 269.056503 
L 174.498781 269.056503 
L 174.498781 268.616981 
L 175.293514 268.616981 
L 175.391374 267.737936 
L 177.018734 267.737936 
L 177.090809 266.858892 
L 177.186447 266.858892 
L 177.219431 265.979848 
L 177.327109 265.979848 
L 177.327109 265.540326 
L 178.059309 265.540326 
L 178.059309 265.100804 
L 178.541087 265.100804 
L 178.541087 264.661282 
L 180.354384 264.661282 
L 180.354384 264.22176 
L 196.821291 264.22176 
L 196.821291 263.782238 
L 198.032923 263.782238 
L 198.122602 262.02415 
L 198.257359 262.02415 
L 198.279808 261.145106 
L 198.446995 261.145106 
L 198.446995 260.266062 
L 205.314676 260.266062 
L 205.314676 259.82654 
L 205.438887 259.82654 
L 205.438887 258.947496 
L 212.071426 258.947496 
L 212.071426 258.068452 
L 338.688 258.068452 
L 338.688 258.068452 
" style="fill:none;stroke:#000080;stroke-linecap:square;stroke-width:1.5;"/>
   </g>
   <g id="line2d_44">
    <defs>
     <path d="M 0 6 
C 1.591219 6 3.117479 5.367802 4.242641 4.242641 
C 5.367802 3.117479 6 1.591219 6 0 
C 6 -1.591219 5.367802 -3.117479 4.242641 -4.242641 
C 3.117479 -5.367802 1.591219 -6 0 -6 
C -1.591219 -6 -3.117479 -5.367802 -4.242641 -4.242641 
C -5.367802 -3.117479 -6 -1.591219 -6 0 
C -6 1.591219 -5.367802 3.117479 -4.242641 4.242641 
C -3.117479 5.367802 -1.591219 6 0 6 
z
" id="mbc492ffb92" style="stroke:#000080;stroke-width:1.5;"/>
    </defs>
    <g>
     <use style="fill-opacity:0;stroke:#000080;stroke-width:1.5;" x="150.899466" xlink:href="#mbc492ffb92" y="284.000251"/>
     <use style="fill-opacity:0;stroke:#000080;stroke-width:1.5;" x="205.438887" xlink:href="#mbc492ffb92" y="258.947496"/>
     <use style="fill-opacity:0;stroke:#000080;stroke-width:1.5;" x="212.071426" xlink:href="#mbc492ffb92" y="258.068452"/>
     <use style="fill-opacity:0;stroke:#000080;stroke-width:1.5;" x="212.071426" xlink:href="#mbc492ffb92" y="258.068452"/>
     <use style="fill-opacity:0;stroke:#000080;stroke-width:1.5;" x="338.688" xlink:href="#mbc492ffb92" y="258.068452"/>
    </g>
   </g>
   <g id="line2d_45">
    <path style="fill:none;stroke:#000080;stroke-linecap:square;stroke-width:1.5;"/>
    <g/>
   </g>
   <g id="line2d_46">
    <path clip-path="url(#p8c25afa98f)" d="M 218.223981 258.068452 
" style="fill:none;stroke:#000080;stroke-linecap:square;stroke-width:1.5;"/>
    <defs>
     <path d="M -12 12 
L 12 -12 
M -12 -12 
L 12 12 
" id="mccb4ce137b" style="stroke:#000080;"/>
    </defs>
    <g clip-path="url(#p8c25afa98f)">
     <use style="fill:#000080;stroke:#000080;" x="218.223981" xlink:href="#mccb4ce137b" y="258.068452"/>
    </g>
   </g>
   <g id="line2d_47">
    <defs>
     <path d="M 0 1.5 
C 0.397805 1.5 0.77937 1.341951 1.06066 1.06066 
C 1.341951 0.77937 1.5 0.397805 1.5 0 
C 1.5 -0.397805 1.341951 -0.77937 1.06066 -1.06066 
C 0.77937 -1.341951 0.397805 -1.5 0 -1.5 
C -0.397805 -1.5 -0.77937 -1.341951 -1.06066 -1.06066 
C -1.341951 -0.77937 -1.5 -0.397805 -1.5 0 
C -1.5 0.397805 -1.341951 0.77937 -1.06066 1.06066 
C -0.77937 1.341951 -0.397805 1.5 0 1.5 
z
" id="m12546a7a44" style="stroke:#ff00ff;"/>
    </defs>
    <g>
     <use style="fill:#ff00ff;stroke:#ff00ff;" x="257.721098" xlink:href="#m12546a7a44" y="214.11625"/>
     <use style="fill:#ff00ff;stroke:#ff00ff;" x="257.721098" xlink:href="#m12546a7a44" y="214.11625"/>
    </g>
   </g>
   <g id="line2d_48">
    <path d="M 17.444571 298.944 
L 17.444571 296.306868 
L 125.255688 296.306868 
L 125.255688 295.867346 
L 130.155159 295.867346 
L 130.155159 295.427824 
L 133.398082 295.427824 
L 133.398082 294.54878 
L 134.12805 294.54878 
L 134.12805 294.109258 
L 134.386096 294.109258 
L 134.386096 293.669736 
L 134.891008 293.669736 
L 134.891008 293.230214 
L 135.035562 293.230214 
L 135.035562 292.35117 
L 136.997972 292.35117 
L 137.089613 291.472126 
L 138.136107 291.472126 
L 138.136107 290.593082 
L 138.426341 290.593082 
L 138.426341 290.15356 
L 138.927025 290.15356 
L 138.927025 289.714038 
L 139.236847 289.714038 
L 139.236847 289.274516 
L 139.604677 289.274516 
L 139.604677 288.834994 
L 139.762215 288.834994 
L 139.824833 287.955949 
L 140.195896 287.955949 
L 140.272217 287.076905 
L 141.133958 287.076905 
L 141.133958 286.637383 
L 141.263941 286.637383 
L 141.263941 286.197861 
L 142.539878 286.197861 
L 142.633244 284.879295 
L 142.726112 284.879295 
L 142.726112 284.439773 
L 143.027814 284.439773 
L 143.027814 284.000251 
L 144.676946 284.000251 
L 144.676946 283.560729 
L 144.830078 283.560729 
L 144.876926 282.681685 
L 145.039911 282.681685 
L 145.0862 281.363119 
L 145.576196 281.363119 
L 145.576196 280.923597 
L 146.140051 280.923597 
L 146.140051 280.484075 
L 146.388493 280.484075 
L 146.388493 280.044553 
L 146.516724 280.044553 
L 146.516724 279.605031 
L 146.644018 279.605031 
L 146.644018 278.725987 
L 147.530079 278.725987 
L 147.530079 277.846943 
L 147.87818 277.846943 
L 147.87818 277.407421 
L 148.296548 277.407421 
L 148.296548 276.967899 
L 148.94759 276.967899 
L 148.94759 276.528377 
L 149.413639 276.528377 
L 149.503579 275.649333 
L 150.361278 275.649333 
L 150.361278 274.770289 
L 150.649257 274.770289 
L 150.649257 274.330767 
L 151.676833 274.330767 
L 151.676833 273.891245 
L 152.774102 273.891245 
L 152.774102 273.451723 
L 153.243677 273.451723 
L 153.243677 273.012201 
L 154.119001 273.012201 
L 154.119001 272.133157 
L 154.317527 272.133157 
L 154.317527 271.693635 
L 154.661269 271.693635 
L 154.661269 271.254113 
L 155.425155 271.254113 
L 155.425155 270.814591 
L 155.94126 270.814591 
L 155.94126 270.375069 
L 156.052535 270.375069 
L 156.052535 269.935547 
L 157.574059 269.935547 
L 157.574059 269.496025 
L 157.926266 269.496025 
L 157.926266 268.616981 
L 159.242359 268.616981 
L 159.242359 267.737936 
L 159.995685 267.737936 
L 159.995685 267.298414 
L 163.489428 267.298414 
L 163.489428 266.858892 
L 164.75018 266.858892 
L 164.832318 265.979848 
L 166.825841 265.979848 
L 166.825841 265.540326 
L 170.397431 265.540326 
L 170.397431 265.100804 
L 171.188638 265.100804 
L 171.188638 264.661282 
L 172.450881 264.661282 
L 172.450881 264.22176 
L 177.248698 264.22176 
L 177.248698 263.342716 
L 181.806419 263.342716 
L 181.806419 262.903194 
L 182.488126 262.903194 
L 182.497597 261.145106 
L 182.9726 261.145106 
L 182.9726 260.705584 
L 183.548719 260.705584 
L 183.548719 260.266062 
L 183.834181 260.266062 
L 183.834181 259.82654 
L 184.202355 259.82654 
L 184.202355 259.387018 
L 185.593996 259.387018 
L 185.593996 258.947496 
L 185.820169 258.947496 
L 185.820169 258.507974 
L 186.141404 258.507974 
L 186.141404 258.068452 
L 186.579279 258.068452 
L 186.579279 257.189408 
L 188.288743 257.189408 
L 188.288743 256.749886 
L 189.155729 256.749886 
L 189.155729 256.310364 
L 190.327801 256.310364 
L 190.327801 255.870842 
L 190.461963 255.870842 
L 190.461963 255.43132 
L 190.769368 255.43132 
L 190.769368 254.991798 
L 191.243501 254.991798 
L 191.243501 254.552276 
L 191.361064 254.552276 
L 191.361064 253.673232 
L 192.361888 253.673232 
L 192.361888 253.23371 
L 192.977803 253.23371 
L 192.977803 252.794188 
L 193.338917 252.794188 
L 193.338917 252.354666 
L 193.469907 252.354666 
L 193.469907 251.915144 
L 195.601651 251.915144 
L 195.601651 251.0361 
L 200.006003 251.0361 
L 200.006003 250.157056 
L 201.448418 250.157056 
L 201.532173 248.398968 
L 202.712821 248.398968 
L 202.712821 247.959446 
L 207.126186 247.959446 
L 207.141007 246.640879 
L 207.304841 246.640879 
L 207.304841 246.201357 
L 207.887578 246.201357 
L 207.887578 245.761835 
L 208.128149 245.761835 
L 208.128149 245.322313 
L 208.326736 245.322313 
L 208.425494 243.564225 
L 208.500263 243.564225 
L 208.609549 242.685181 
L 208.71274 242.685181 
L 208.7782 241.366615 
L 209.375951 241.366615 
L 209.375951 240.487571 
L 209.797133 240.487571 
L 209.797133 240.048049 
L 210.517089 240.048049 
L 210.517089 239.608527 
L 211.609281 239.608527 
L 211.609281 238.729483 
L 212.565111 238.729483 
L 212.612565 237.410917 
L 212.788721 237.410917 
L 212.788721 236.971395 
L 213.34901 236.971395 
L 213.34901 236.092351 
L 216.012594 236.092351 
L 216.012594 235.213307 
L 216.890566 235.213307 
L 216.890566 234.773785 
L 217.00669 234.773785 
L 217.00669 234.334263 
L 217.1997 234.334263 
L 217.1997 233.894741 
L 217.45158 233.894741 
L 217.45158 233.015697 
L 217.638131 233.015697 
L 217.638131 232.136653 
L 217.758713 232.136653 
L 217.758713 231.697131 
L 218.183131 231.697131 
L 218.183131 230.818087 
L 220.539154 230.818087 
L 220.539154 229.939043 
L 221.8871 229.939043 
L 221.8871 229.499521 
L 223.289705 229.499521 
L 223.289705 228.620477 
L 223.4349 228.620477 
L 223.4349 227.741433 
L 223.597229 227.741433 
L 223.597229 227.301911 
L 226.482212 227.301911 
L 226.482212 226.862389 
L 227.918217 226.862389 
L 227.918217 225.983344 
L 228.169627 225.983344 
L 228.169627 225.543822 
L 228.973284 225.543822 
L 228.973284 225.1043 
L 229.293882 225.1043 
L 229.293882 224.225256 
L 229.55642 224.225256 
L 229.569253 223.346212 
L 234.494936 223.346212 
L 234.494936 222.467168 
L 236.109328 222.467168 
L 236.109328 222.027646 
L 236.419932 222.027646 
L 236.419932 221.588124 
L 237.301894 221.588124 
L 237.301894 220.70908 
L 238.101556 220.70908 
L 238.101556 220.269558 
L 244.74408 220.269558 
L 244.74408 219.390514 
L 245.058979 219.390514 
L 245.058979 218.950992 
L 250.097184 218.950992 
L 250.097184 218.071948 
L 250.711211 218.071948 
L 250.711211 217.192904 
L 251.49269 217.192904 
L 251.536605 215.434816 
L 254.560269 215.434816 
L 254.560269 214.555772 
L 257.721098 214.555772 
L 257.721098 214.11625 
L 338.688 214.11625 
L 338.688 214.11625 
" style="fill:none;stroke:#ff00ff;stroke-linecap:square;stroke-width:1.5;"/>
   </g>
   <g id="line2d_49">
    <defs>
     <path d="M 0 8.485281 
L 5.091169 0 
L 0 -8.485281 
L -5.091169 0 
z
" id="mf2291c7f8e" style="stroke:#ff00ff;stroke-linejoin:miter;stroke-width:1.5;"/>
    </defs>
    <g>
     <use style="fill-opacity:0;stroke:#ff00ff;stroke-linejoin:miter;stroke-width:1.5;" x="125.255688" xlink:href="#mf2291c7f8e" y="296.306868"/>
     <use style="fill-opacity:0;stroke:#ff00ff;stroke-linejoin:miter;stroke-width:1.5;" x="184.202355" xlink:href="#mf2291c7f8e" y="259.82654"/>
     <use style="fill-opacity:0;stroke:#ff00ff;stroke-linejoin:miter;stroke-width:1.5;" x="254.560269" xlink:href="#mf2291c7f8e" y="214.555772"/>
     <use style="fill-opacity:0;stroke:#ff00ff;stroke-linejoin:miter;stroke-width:1.5;" x="257.721098" xlink:href="#mf2291c7f8e" y="214.11625"/>
     <use style="fill-opacity:0;stroke:#ff00ff;stroke-linejoin:miter;stroke-width:1.5;" x="257.721098" xlink:href="#mf2291c7f8e" y="214.11625"/>
     <use style="fill-opacity:0;stroke:#ff00ff;stroke-linejoin:miter;stroke-width:1.5;" x="338.688" xlink:href="#mf2291c7f8e" y="214.11625"/>
    </g>
   </g>
   <g id="line2d_50">
    <path style="fill:none;stroke:#ff00ff;stroke-linecap:square;stroke-width:1.5;"/>
    <g/>
   </g>
   <g id="line2d_51">
    <path clip-path="url(#p8c25afa98f)" d="M 258.379375 214.11625 
" style="fill:none;stroke:#ff00ff;stroke-linecap:square;stroke-width:1.5;"/>
    <defs>
     <path d="M -12 12 
L 12 -12 
M -12 -12 
L 12 12 
" id="m2d51334844" style="stroke:#ff00ff;"/>
    </defs>
    <g clip-path="url(#p8c25afa98f)">
     <use style="fill:#ff00ff;stroke:#ff00ff;" x="258.379375" xlink:href="#m2d51334844" y="214.11625"/>
    </g>
   </g>
   <g id="line2d_52">
    <defs>
     <path d="M 0 1.5 
C 0.397805 1.5 0.77937 1.341951 1.06066 1.06066 
C 1.341951 0.77937 1.5 0.397805 1.5 0 
C 1.5 -0.397805 1.341951 -0.77937 1.06066 -1.06066 
C 0.77937 -1.341951 0.397805 -1.5 0 -1.5 
C -0.397805 -1.5 -0.77937 -1.341951 -1.06066 -1.06066 
C -1.341951 -0.77937 -1.5 -0.397805 -1.5 0 
C -1.5 0.397805 -1.341951 0.77937 -1.06066 1.06066 
C -0.77937 1.341951 -0.397805 1.5 0 1.5 
z
" id="m4d972e98a4" style="stroke:#ffa500;"/>
    </defs>
    <g>
     <use style="fill:#ffa500;stroke:#ffa500;" x="264.840495" xlink:href="#m4d972e98a4" y="99.840524"/>
     <use style="fill:#ffa500;stroke:#ffa500;" x="264.840495" xlink:href="#m4d972e98a4" y="99.840524"/>
    </g>
   </g>
   <g id="line2d_53">
    <path d="M 41.620548 298.944 
L 41.620548 298.504478 
L 48.691568 298.504478 
L 48.691568 298.064956 
L 51.379845 298.064956 
L 51.379845 297.625434 
L 57.6 297.625434 
L 57.6 296.74639 
L 62.175444 296.74639 
L 62.175444 296.306868 
L 72.125336 296.306868 
L 72.125336 295.867346 
L 84.955534 295.867346 
L 84.955534 295.427824 
L 88.846997 295.427824 
L 88.846997 294.988302 
L 96.110718 294.988302 
L 96.110718 294.54878 
L 97.043522 294.54878 
L 97.043522 294.109258 
L 99.097574 294.109258 
L 99.097574 293.669736 
L 101.223245 293.669736 
L 101.223245 293.230214 
L 109.401893 293.230214 
L 109.401893 292.790692 
L 113.311233 292.790692 
L 113.311233 292.35117 
L 115.33349 292.35117 
L 115.33349 291.911648 
L 115.958621 291.911648 
L 115.958621 291.032604 
L 116.914437 291.032604 
L 116.914437 290.593082 
L 118.838828 290.593082 
L 118.838828 290.15356 
L 126.065325 290.15356 
L 126.065325 289.714038 
L 137.253364 289.714038 
L 137.253364 289.274516 
L 138.628343 289.274516 
L 138.628343 288.834994 
L 139.933878 288.834994 
L 139.933878 288.395471 
L 140.088482 288.395471 
L 140.088482 287.955949 
L 140.484155 287.955949 
L 140.484155 287.516427 
L 141.996555 287.516427 
L 141.996555 287.076905 
L 143.3627 287.076905 
L 143.3627 286.637383 
L 147.051423 286.637383 
L 147.051423 286.197861 
L 147.449528 286.197861 
L 147.449528 285.758339 
L 148.23877 285.758339 
L 148.23877 285.318817 
L 148.676918 285.318817 
L 148.676918 284.879295 
L 150.137805 284.879295 
L 150.137805 284.439773 
L 150.990318 284.439773 
L 151.039674 283.560729 
L 151.268175 283.560729 
L 151.268175 283.121207 
L 151.889366 283.121207 
L 151.889366 282.681685 
L 153.294279 282.681685 
L 153.294279 282.242163 
L 153.416559 282.242163 
L 153.416559 281.363119 
L 153.545105 281.363119 
L 153.545105 280.923597 
L 153.834414 280.923597 
L 153.834414 280.044553 
L 154.173993 280.044553 
L 154.235652 279.165509 
L 155.55879 279.165509 
L 155.55879 278.725987 
L 155.691409 278.725987 
L 155.691409 278.286465 
L 155.816782 278.286465 
L 155.885354 277.407421 
L 156.640261 277.407421 
L 156.640261 276.967899 
L 157.162628 276.967899 
L 157.162628 276.528377 
L 157.392398 276.528377 
L 157.392398 276.088855 
L 158.064083 276.088855 
L 158.064083 275.649333 
L 158.358103 275.649333 
L 158.358103 275.209811 
L 159.718236 275.209811 
L 159.718236 274.770289 
L 159.837683 274.770289 
L 159.837683 274.330767 
L 160.750792 274.330767 
L 160.750792 273.891245 
L 161.081824 273.891245 
L 161.086442 272.572679 
L 161.384008 272.572679 
L 161.424813 270.814591 
L 161.64531 270.814591 
L 161.64531 270.375069 
L 162.754039 270.375069 
L 162.754039 269.935547 
L 163.653591 269.935547 
L 163.653591 269.496025 
L 164.302897 269.496025 
L 164.302897 269.056503 
L 165.266391 269.056503 
L 165.266391 268.177459 
L 165.461488 268.177459 
L 165.461488 267.298414 
L 166.43612 267.298414 
L 166.490395 266.41937 
L 167.233027 266.41937 
L 167.233027 265.979848 
L 167.362375 265.979848 
L 167.362375 265.540326 
L 167.497166 265.540326 
L 167.497166 264.22176 
L 168.013737 264.22176 
L 168.013737 263.782238 
L 169.363007 263.782238 
L 169.363007 262.903194 
L 170.302423 262.903194 
L 170.302423 262.463672 
L 170.508071 262.463672 
L 170.508071 262.02415 
L 170.663398 262.02415 
L 170.663398 261.145106 
L 171.348301 261.145106 
L 171.348301 260.705584 
L 171.826189 260.705584 
L 171.826189 260.266062 
L 171.950454 260.266062 
L 171.950454 259.387018 
L 172.218321 259.387018 
L 172.218321 258.947496 
L 173.049317 258.947496 
L 173.049317 258.507974 
L 173.977519 258.507974 
L 173.977519 258.068452 
L 174.122426 258.068452 
L 174.122426 257.62893 
L 175.717652 257.62893 
L 175.717652 257.189408 
L 176.03402 257.189408 
L 176.03402 256.749886 
L 176.281114 256.749886 
L 176.281114 256.310364 
L 177.103714 256.310364 
L 177.103714 255.43132 
L 177.621184 255.43132 
L 177.621184 254.552276 
L 178.225994 254.552276 
L 178.225994 254.112754 
L 178.58177 254.112754 
L 178.602076 252.794188 
L 178.827232 252.794188 
L 178.827232 252.354666 
L 179.890962 252.354666 
L 179.890962 251.915144 
L 180.436781 251.915144 
L 180.54453 250.596578 
L 180.798355 250.596578 
L 180.798355 250.157056 
L 181.667955 250.157056 
L 181.667955 249.717534 
L 182.157501 249.717534 
L 182.174044 248.398968 
L 182.318132 248.398968 
L 182.318132 247.959446 
L 182.496245 247.959446 
L 182.496245 247.519924 
L 183.094586 247.519924 
L 183.094586 247.080402 
L 183.68319 247.080402 
L 183.745003 246.201357 
L 183.839191 246.201357 
L 183.839191 245.761835 
L 184.756489 245.761835 
L 184.756489 245.322313 
L 184.999574 245.322313 
L 184.999574 244.443269 
L 185.494044 244.443269 
L 185.494044 244.003747 
L 185.691125 244.003747 
L 185.691125 243.124703 
L 186.896414 243.124703 
L 186.896414 242.245659 
L 187.126129 242.245659 
L 187.126129 241.366615 
L 187.537207 241.366615 
L 187.570609 240.048049 
L 188.168972 240.048049 
L 188.168972 239.169005 
L 188.316863 239.169005 
L 188.316863 238.289961 
L 188.898067 238.289961 
L 188.993389 236.971395 
L 189.031559 236.971395 
L 189.031559 236.092351 
L 190.946078 236.092351 
L 190.956907 234.334263 
L 191.464903 234.334263 
L 191.464903 233.455219 
L 191.587415 233.455219 
L 191.587415 233.015697 
L 193.42081 233.015697 
L 193.436709 231.257609 
L 194.00663 231.257609 
L 194.00663 230.378565 
L 194.260655 230.378565 
L 194.260655 229.499521 
L 194.584233 229.499521 
L 194.584233 228.620477 
L 194.929789 228.620477 
L 194.929789 227.741433 
L 195.511456 227.741433 
L 195.539012 225.983344 
L 195.782549 225.983344 
L 195.782549 225.1043 
L 196.2793 225.1043 
L 196.2793 224.664778 
L 196.642492 224.664778 
L 196.642492 224.225256 
L 196.868227 224.225256 
L 196.868227 223.785734 
L 197.736263 223.785734 
L 197.736263 223.346212 
L 197.989023 223.346212 
L 198.039027 222.027646 
L 199.759929 222.027646 
L 199.766965 221.148602 
L 200.068835 221.148602 
L 200.068835 220.70908 
L 200.671655 220.70908 
L 200.671655 219.830036 
L 200.896333 219.830036 
L 200.896333 218.950992 
L 201.025369 218.950992 
L 201.025369 218.071948 
L 202.044518 218.071948 
L 202.074477 216.31386 
L 203.340089 216.31386 
L 203.340089 215.434816 
L 203.474664 215.434816 
L 203.474664 214.995294 
L 203.595304 214.995294 
L 203.662548 214.11625 
L 205.927777 214.11625 
L 205.927777 213.237206 
L 206.412948 213.237206 
L 206.483856 211.479118 
L 206.802273 211.479118 
L 206.868609 209.72103 
L 206.981934 209.72103 
L 207.088584 207.962942 
L 207.820581 207.962942 
L 207.820581 207.083898 
L 208.352553 207.083898 
L 208.352553 206.204854 
L 209.060036 206.204854 
L 209.154152 204.886287 
L 209.785821 204.886287 
L 209.785821 204.446765 
L 210.16747 204.446765 
L 210.16747 204.007243 
L 210.309971 204.007243 
L 210.309971 203.567721 
L 210.577477 203.567721 
L 210.577477 203.128199 
L 210.925147 203.128199 
L 210.925147 202.249155 
L 211.818486 202.249155 
L 211.833585 201.370111 
L 212.121725 201.370111 
L 212.178046 200.491067 
L 212.404207 200.491067 
L 212.404207 200.051545 
L 212.524057 200.051545 
L 212.524057 199.172501 
L 213.016082 199.172501 
L 213.016082 198.732979 
L 213.332398 198.732979 
L 213.415988 197.853935 
L 213.924909 197.853935 
L 213.924909 197.414413 
L 214.423519 197.414413 
L 214.423519 196.974891 
L 214.841079 196.974891 
L 214.841079 196.535369 
L 215.618016 196.535369 
L 215.618016 196.095847 
L 216.215685 196.095847 
L 216.215685 195.656325 
L 217.518162 195.656325 
L 217.518162 194.777281 
L 217.810392 194.777281 
L 217.810392 194.337759 
L 218.224156 194.337759 
L 218.33245 185.107797 
L 218.336609 185.107797 
L 218.410084 180.712576 
L 218.464343 180.712576 
L 218.534714 178.075444 
L 218.584318 178.075444 
L 218.678348 175.877834 
L 218.702455 175.877834 
L 218.702455 175.438312 
L 218.856999 175.438312 
L 218.942882 172.80118 
L 218.985498 172.80118 
L 219.015351 171.482614 
L 219.107092 171.482614 
L 219.207254 169.724526 
L 219.226362 169.724526 
L 219.316019 165.768828 
L 219.353159 165.768828 
L 219.353159 165.329306 
L 219.498988 165.329306 
L 219.573223 164.01074 
L 219.616904 164.01074 
L 219.623181 162.692173 
L 219.756561 162.692173 
L 219.847671 160.934085 
L 219.907303 160.934085 
L 219.907303 160.494563 
L 220.024859 160.494563 
L 220.024859 160.055041 
L 220.207425 160.055041 
L 220.277161 158.736475 
L 220.398724 158.736475 
L 220.404264 157.857431 
L 220.613661 157.857431 
L 220.613661 157.417909 
L 220.770318 157.417909 
L 220.834991 155.659821 
L 220.928268 155.659821 
L 220.928268 154.780777 
L 221.185585 154.780777 
L 221.286522 153.462211 
L 221.338085 153.462211 
L 221.372181 152.143645 
L 221.457277 152.143645 
L 221.544267 150.825079 
L 221.735213 150.825079 
L 221.786179 149.506513 
L 222.050003 149.506513 
L 222.105642 147.748425 
L 222.201267 147.748425 
L 222.309619 146.429859 
L 222.54584 146.429859 
L 222.617145 145.111293 
L 223.002135 145.111293 
L 223.002135 144.671771 
L 223.231967 144.671771 
L 223.342312 143.353205 
L 223.677767 143.353205 
L 223.677767 142.913682 
L 223.823574 142.913682 
L 223.918429 141.595116 
L 223.999629 141.595116 
L 223.999629 141.155594 
L 224.130731 141.155594 
L 224.201547 138.957984 
L 224.318118 138.957984 
L 224.318118 138.518462 
L 224.468809 138.518462 
L 224.468809 138.07894 
L 224.619539 138.07894 
L 224.726154 136.760374 
L 224.92724 136.760374 
L 224.92724 136.320852 
L 225.143046 136.320852 
L 225.245585 134.562764 
L 225.368488 134.562764 
L 225.368488 134.123242 
L 225.502828 134.123242 
L 225.549632 133.244198 
L 225.638534 133.244198 
L 225.638534 132.365154 
L 225.966539 132.365154 
L 225.966539 131.48611 
L 226.671872 131.48611 
L 226.671872 131.046588 
L 226.854815 131.046588 
L 226.885084 130.167544 
L 227.175847 130.167544 
L 227.175847 129.2885 
L 227.757155 129.2885 
L 227.845757 127.530412 
L 228.016651 127.530412 
L 228.016651 127.09089 
L 228.14299 127.09089 
L 228.14299 126.651368 
L 228.357005 126.651368 
L 228.357005 125.772324 
L 228.595769 125.772324 
L 228.624509 124.453758 
L 228.729933 124.453758 
L 228.729933 123.574714 
L 228.842598 123.574714 
L 228.842598 123.135192 
L 229.059492 123.135192 
L 229.167075 122.256147 
L 229.430873 122.256147 
L 229.430873 121.816625 
L 229.715567 121.816625 
L 229.823315 120.498059 
L 230.120951 120.498059 
L 230.120951 120.058537 
L 230.709587 120.058537 
L 230.709587 119.619015 
L 230.989994 119.619015 
L 230.989994 119.179493 
L 231.617258 119.179493 
L 231.618067 118.300449 
L 231.854528 118.300449 
L 231.854528 117.860927 
L 232.425033 117.860927 
L 232.425033 117.421405 
L 232.74197 117.421405 
L 232.74197 116.542361 
L 232.902551 116.542361 
L 232.902551 115.663317 
L 233.287766 115.663317 
L 233.287766 115.223795 
L 233.663146 115.223795 
L 233.755992 114.344751 
L 233.777233 114.344751 
L 233.777233 113.905229 
L 235.781691 113.905229 
L 235.793856 112.586663 
L 236.119329 112.586663 
L 236.119329 111.707619 
L 236.576958 111.707619 
L 236.576958 110.828575 
L 237.101269 110.828575 
L 237.101269 109.949531 
L 239.028589 109.949531 
L 239.028589 109.070487 
L 239.491778 109.070487 
L 239.491778 108.630965 
L 239.854478 108.630965 
L 239.854478 107.751921 
L 240.537642 107.751921 
L 240.537642 106.872877 
L 240.787968 106.872877 
L 240.787968 105.993833 
L 241.511936 105.993833 
L 241.511936 105.114789 
L 243.209982 105.114789 
L 243.209982 104.675267 
L 244.240382 104.675267 
L 244.240382 104.235745 
L 245.564309 104.235745 
L 245.564309 103.356701 
L 248.480596 103.356701 
L 248.480596 102.477657 
L 249.86172 102.477657 
L 249.86172 102.038135 
L 253.176822 102.038135 
L 253.176822 101.598612 
L 256.895349 101.598612 
L 256.895349 100.719568 
L 264.840495 100.719568 
L 264.840495 99.840524 
L 338.688 99.840524 
L 338.688 99.840524 
" style="fill:none;stroke:#ffa500;stroke-linecap:square;stroke-width:1.5;"/>
   </g>
   <g id="line2d_54">
    <defs>
     <path d="M 0 -6 
L -1.347084 -1.854102 
L -5.706339 -1.854102 
L -2.179628 0.708204 
L -3.526712 4.854102 
L -0 2.291796 
L 3.526712 4.854102 
L 2.179628 0.708204 
L 5.706339 -1.854102 
L 1.347084 -1.854102 
z
" id="mf507dcbf1d" style="stroke:#ffa500;stroke-linejoin:bevel;stroke-width:1.5;"/>
    </defs>
    <g>
     <use style="fill-opacity:0;stroke:#ffa500;stroke-linejoin:bevel;stroke-width:1.5;" x="118.838828" xlink:href="#mf507dcbf1d" y="290.593082"/>
     <use style="fill-opacity:0;stroke:#ffa500;stroke-linejoin:bevel;stroke-width:1.5;" x="194.929789" xlink:href="#mf507dcbf1d" y="228.620477"/>
     <use style="fill-opacity:0;stroke:#ffa500;stroke-linejoin:bevel;stroke-width:1.5;" x="227.845757" xlink:href="#mf507dcbf1d" y="128.409456"/>
     <use style="fill-opacity:0;stroke:#ffa500;stroke-linejoin:bevel;stroke-width:1.5;" x="264.840495" xlink:href="#mf507dcbf1d" y="100.719568"/>
     <use style="fill-opacity:0;stroke:#ffa500;stroke-linejoin:bevel;stroke-width:1.5;" x="264.840495" xlink:href="#mf507dcbf1d" y="99.840524"/>
     <use style="fill-opacity:0;stroke:#ffa500;stroke-linejoin:bevel;stroke-width:1.5;" x="338.688" xlink:href="#mf507dcbf1d" y="99.840524"/>
    </g>
   </g>
   <g id="line2d_55">
    <path style="fill:none;stroke:#ffa500;stroke-linecap:square;stroke-width:1.5;"/>
    <g/>
   </g>
   <g id="line2d_56">
    <path clip-path="url(#p8c25afa98f)" d="M 298.532571 99.840524 
" style="fill:none;stroke:#ffa500;stroke-linecap:square;stroke-width:1.5;"/>
    <defs>
     <path d="M -12 12 
L 12 -12 
M -12 -12 
L 12 12 
" id="md12531dbbf" style="stroke:#ffa500;"/>
    </defs>
    <g clip-path="url(#p8c25afa98f)">
     <use style="fill:#ffa500;stroke:#ffa500;" x="298.532571" xlink:href="#md12531dbbf" y="99.840524"/>
    </g>
   </g>
   <g id="line2d_57">
    <path d="M 338.688 258.068452 
L 369.60768 293.845545 
" style="fill:none;stroke:#000080;stroke-linecap:square;stroke-width:1.5;"/>
    <g>
     <use style="fill-opacity:0;stroke:#000080;stroke-width:1.5;" x="338.688" xlink:href="#mbc492ffb92" y="258.068452"/>
     <use style="fill-opacity:0;stroke:#000080;stroke-width:1.5;" x="369.60768" xlink:href="#mbc492ffb92" y="293.845545"/>
    </g>
   </g>
   <g id="line2d_58">
    <path d="M 338.688 214.11625 
L 369.60768 212.270257 
" style="fill:none;stroke:#ff00ff;stroke-linecap:square;stroke-width:1.5;"/>
    <g>
     <use style="fill-opacity:0;stroke:#ff00ff;stroke-linejoin:miter;stroke-width:1.5;" x="338.688" xlink:href="#mf2291c7f8e" y="214.11625"/>
     <use style="fill-opacity:0;stroke:#ff00ff;stroke-linejoin:miter;stroke-width:1.5;" x="369.60768" xlink:href="#mf2291c7f8e" y="212.270257"/>
    </g>
   </g>
   <g id="line2d_59">
    <path d="M 338.688 99.840524 
L 369.60768 130.69497 
" style="fill:none;stroke:#ffa500;stroke-linecap:square;stroke-width:1.5;"/>
    <g>
     <use style="fill-opacity:0;stroke:#ffa500;stroke-linejoin:bevel;stroke-width:1.5;" x="338.688" xlink:href="#mf507dcbf1d" y="99.840524"/>
     <use style="fill-opacity:0;stroke:#ffa500;stroke-linejoin:bevel;stroke-width:1.5;" x="369.60768" xlink:href="#mf507dcbf1d" y="130.69497"/>
    </g>
   </g>
   <g id="line2d_60">
    <path d="M 338.688 298.944 
L 338.688 44.021228 
" style="fill:none;stroke:#000000;stroke-linecap:square;stroke-width:1.5;"/>
   </g>
   <g id="patch_3">
    <path d="M 57.6 298.944 
L 57.6 41.472 
" style="fill:none;stroke:#000000;stroke-linecap:square;stroke-linejoin:miter;stroke-width:0.8;"/>
   </g>
   <g id="patch_4">
    <path d="M 338.688 298.944 
L 338.688 41.472 
" style="fill:none;stroke:#000000;stroke-linecap:square;stroke-linejoin:miter;stroke-width:0.8;"/>
   </g>
   <g id="patch_5">
    <path d="M 57.6 298.944 
L 338.688 298.944 
" style="fill:none;stroke:#000000;stroke-linecap:square;stroke-linejoin:miter;stroke-width:0.8;"/>
   </g>
   <g id="patch_6">
    <path d="M 57.6 41.472 
L 338.688 41.472 
" style="fill:none;stroke:#000000;stroke-linecap:square;stroke-linejoin:miter;stroke-width:0.8;"/>
   </g>
   <g id="text_13">
    <!-- DMS on bb -->
    <defs>
     <path d="M 19.671875 64.796875 
L 19.671875 8.109375 
L 31.59375 8.109375 
Q 46.6875 8.109375 53.6875 14.9375 
Q 60.6875 21.78125 60.6875 36.53125 
Q 60.6875 51.171875 53.6875 57.984375 
Q 46.6875 64.796875 31.59375 64.796875 
z
M 9.8125 72.90625 
L 30.078125 72.90625 
Q 51.265625 72.90625 61.171875 64.09375 
Q 71.09375 55.28125 71.09375 36.53125 
Q 71.09375 17.671875 61.125 8.828125 
Q 51.171875 0 30.078125 0 
L 9.8125 0 
z
" id="DejaVuSans-68"/>
     <path d="M 9.8125 72.90625 
L 24.515625 72.90625 
L 43.109375 23.296875 
L 61.8125 72.90625 
L 76.515625 72.90625 
L 76.515625 0 
L 66.890625 0 
L 66.890625 64.015625 
L 48.09375 14.015625 
L 38.1875 14.015625 
L 19.390625 64.015625 
L 19.390625 0 
L 9.8125 0 
z
" id="DejaVuSans-77"/>
     <path d="M 53.515625 70.515625 
L 53.515625 60.890625 
Q 47.90625 63.578125 42.921875 64.890625 
Q 37.9375 66.21875 33.296875 66.21875 
Q 25.25 66.21875 20.875 63.09375 
Q 16.5 59.96875 16.5 54.203125 
Q 16.5 49.359375 19.40625 46.890625 
Q 22.3125 44.4375 30.421875 42.921875 
L 36.375 41.703125 
Q 47.40625 39.59375 52.65625 34.296875 
Q 57.90625 29 57.90625 20.125 
Q 57.90625 9.515625 50.796875 4.046875 
Q 43.703125 -1.421875 29.984375 -1.421875 
Q 24.8125 -1.421875 18.96875 -0.25 
Q 13.140625 0.921875 6.890625 3.21875 
L 6.890625 13.375 
Q 12.890625 10.015625 18.65625 8.296875 
Q 24.421875 6.59375 29.984375 6.59375 
Q 38.421875 6.59375 43.015625 9.90625 
Q 47.609375 13.234375 47.609375 19.390625 
Q 47.609375 24.75 44.3125 27.78125 
Q 41.015625 30.8125 33.5 32.328125 
L 27.484375 33.5 
Q 16.453125 35.6875 11.515625 40.375 
Q 6.59375 45.0625 6.59375 53.421875 
Q 6.59375 63.09375 13.40625 68.65625 
Q 20.21875 74.21875 32.171875 74.21875 
Q 37.3125 74.21875 42.625 73.28125 
Q 47.953125 72.359375 53.515625 70.515625 
z
" id="DejaVuSans-83"/>
     <path d="M 48.6875 27.296875 
Q 48.6875 37.203125 44.609375 42.84375 
Q 40.53125 48.484375 33.40625 48.484375 
Q 26.265625 48.484375 22.1875 42.84375 
Q 18.109375 37.203125 18.109375 27.296875 
Q 18.109375 17.390625 22.1875 11.75 
Q 26.265625 6.109375 33.40625 6.109375 
Q 40.53125 6.109375 44.609375 11.75 
Q 48.6875 17.390625 48.6875 27.296875 
z
M 18.109375 46.390625 
Q 20.953125 51.265625 25.265625 53.625 
Q 29.59375 56 35.59375 56 
Q 45.5625 56 51.78125 48.09375 
Q 58.015625 40.1875 58.015625 27.296875 
Q 58.015625 14.40625 51.78125 6.484375 
Q 45.5625 -1.421875 35.59375 -1.421875 
Q 29.59375 -1.421875 25.265625 0.953125 
Q 20.953125 3.328125 18.109375 8.203125 
L 18.109375 0 
L 9.078125 0 
L 9.078125 75.984375 
L 18.109375 75.984375 
z
" id="DejaVuSans-98"/>
    </defs>
    <g transform="translate(375.22944 298.536482)scale(0.17 -0.17)">
     <use xlink:href="#DejaVuSans-68"/>
     <use x="77.001953" xlink:href="#DejaVuSans-77"/>
     <use x="163.28125" xlink:href="#DejaVuSans-83"/>
     <use x="226.757812" xlink:href="#DejaVuSans-32"/>
     <use x="258.544922" xlink:href="#DejaVuSans-111"/>
     <use x="319.726562" xlink:href="#DejaVuSans-110"/>
     <use x="383.105469" xlink:href="#DejaVuSans-32"/>
     <use x="414.892578" xlink:href="#DejaVuSans-98"/>
     <use x="478.369141" xlink:href="#DejaVuSans-98"/>
    </g>
   </g>
   <g id="text_14">
    <!-- NSGA-II-M -->
    <defs>
     <path d="M 9.8125 72.90625 
L 23.09375 72.90625 
L 55.421875 11.921875 
L 55.421875 72.90625 
L 64.984375 72.90625 
L 64.984375 0 
L 51.703125 0 
L 19.390625 60.984375 
L 19.390625 0 
L 9.8125 0 
z
" id="DejaVuSans-78"/>
     <path d="M 59.515625 10.40625 
L 59.515625 29.984375 
L 43.40625 29.984375 
L 43.40625 38.09375 
L 69.28125 38.09375 
L 69.28125 6.78125 
Q 63.578125 2.734375 56.6875 0.65625 
Q 49.8125 -1.421875 42 -1.421875 
Q 24.90625 -1.421875 15.25 8.5625 
Q 5.609375 18.5625 5.609375 36.375 
Q 5.609375 54.25 15.25 64.234375 
Q 24.90625 74.21875 42 74.21875 
Q 49.125 74.21875 55.546875 72.453125 
Q 61.96875 70.703125 67.390625 67.28125 
L 67.390625 56.78125 
Q 61.921875 61.421875 55.765625 63.765625 
Q 49.609375 66.109375 42.828125 66.109375 
Q 29.4375 66.109375 22.71875 58.640625 
Q 16.015625 51.171875 16.015625 36.375 
Q 16.015625 21.625 22.71875 14.15625 
Q 29.4375 6.6875 42.828125 6.6875 
Q 48.046875 6.6875 52.140625 7.59375 
Q 56.25 8.5 59.515625 10.40625 
z
" id="DejaVuSans-71"/>
     <path d="M 34.1875 63.1875 
L 20.796875 26.90625 
L 47.609375 26.90625 
z
M 28.609375 72.90625 
L 39.796875 72.90625 
L 67.578125 0 
L 57.328125 0 
L 50.6875 18.703125 
L 17.828125 18.703125 
L 11.1875 0 
L 0.78125 0 
z
" id="DejaVuSans-65"/>
     <path d="M 9.8125 72.90625 
L 19.671875 72.90625 
L 19.671875 0 
L 9.8125 0 
z
" id="DejaVuSans-73"/>
    </defs>
    <g transform="translate(375.22944 216.961195)scale(0.17 -0.17)">
     <use xlink:href="#DejaVuSans-78"/>
     <use x="74.804688" xlink:href="#DejaVuSans-83"/>
     <use x="138.28125" xlink:href="#DejaVuSans-71"/>
     <use x="215.771484" xlink:href="#DejaVuSans-65"/>
     <use x="284.148438" xlink:href="#DejaVuSans-45"/>
     <use x="320.232422" xlink:href="#DejaVuSans-73"/>
     <use x="349.724609" xlink:href="#DejaVuSans-73"/>
     <use x="379.216797" xlink:href="#DejaVuSans-45"/>
     <use x="415.300781" xlink:href="#DejaVuSans-77"/>
    </g>
   </g>
   <g id="text_15">
    <!-- UP-MO-CMA -->
    <defs>
     <path d="M 8.6875 72.90625 
L 18.609375 72.90625 
L 18.609375 28.609375 
Q 18.609375 16.890625 22.84375 11.734375 
Q 27.09375 6.59375 36.625 6.59375 
Q 46.09375 6.59375 50.34375 11.734375 
Q 54.59375 16.890625 54.59375 28.609375 
L 54.59375 72.90625 
L 64.5 72.90625 
L 64.5 27.390625 
Q 64.5 13.140625 57.4375 5.859375 
Q 50.390625 -1.421875 36.625 -1.421875 
Q 22.796875 -1.421875 15.734375 5.859375 
Q 8.6875 13.140625 8.6875 27.390625 
z
" id="DejaVuSans-85"/>
     <path d="M 19.671875 64.796875 
L 19.671875 37.40625 
L 32.078125 37.40625 
Q 38.96875 37.40625 42.71875 40.96875 
Q 46.484375 44.53125 46.484375 51.125 
Q 46.484375 57.671875 42.71875 61.234375 
Q 38.96875 64.796875 32.078125 64.796875 
z
M 9.8125 72.90625 
L 32.078125 72.90625 
Q 44.34375 72.90625 50.609375 67.359375 
Q 56.890625 61.8125 56.890625 51.125 
Q 56.890625 40.328125 50.609375 34.8125 
Q 44.34375 29.296875 32.078125 29.296875 
L 19.671875 29.296875 
L 19.671875 0 
L 9.8125 0 
z
" id="DejaVuSans-80"/>
     <path d="M 39.40625 66.21875 
Q 28.65625 66.21875 22.328125 58.203125 
Q 16.015625 50.203125 16.015625 36.375 
Q 16.015625 22.609375 22.328125 14.59375 
Q 28.65625 6.59375 39.40625 6.59375 
Q 50.140625 6.59375 56.421875 14.59375 
Q 62.703125 22.609375 62.703125 36.375 
Q 62.703125 50.203125 56.421875 58.203125 
Q 50.140625 66.21875 39.40625 66.21875 
z
M 39.40625 74.21875 
Q 54.734375 74.21875 63.90625 63.9375 
Q 73.09375 53.65625 73.09375 36.375 
Q 73.09375 19.140625 63.90625 8.859375 
Q 54.734375 -1.421875 39.40625 -1.421875 
Q 24.03125 -1.421875 14.8125 8.828125 
Q 5.609375 19.09375 5.609375 36.375 
Q 5.609375 53.65625 14.8125 63.9375 
Q 24.03125 74.21875 39.40625 74.21875 
z
" id="DejaVuSans-79"/>
     <path d="M 64.40625 67.28125 
L 64.40625 56.890625 
Q 59.421875 61.53125 53.78125 63.8125 
Q 48.140625 66.109375 41.796875 66.109375 
Q 29.296875 66.109375 22.65625 58.46875 
Q 16.015625 50.828125 16.015625 36.375 
Q 16.015625 21.96875 22.65625 14.328125 
Q 29.296875 6.6875 41.796875 6.6875 
Q 48.140625 6.6875 53.78125 8.984375 
Q 59.421875 11.28125 64.40625 15.921875 
L 64.40625 5.609375 
Q 59.234375 2.09375 53.4375 0.328125 
Q 47.65625 -1.421875 41.21875 -1.421875 
Q 24.65625 -1.421875 15.125 8.703125 
Q 5.609375 18.84375 5.609375 36.375 
Q 5.609375 53.953125 15.125 64.078125 
Q 24.65625 74.21875 41.21875 74.21875 
Q 47.75 74.21875 53.53125 72.484375 
Q 59.328125 70.75 64.40625 67.28125 
z
" id="DejaVuSans-67"/>
    </defs>
    <g transform="translate(375.22944 135.385908)scale(0.17 -0.17)">
     <use xlink:href="#DejaVuSans-85"/>
     <use x="73.193359" xlink:href="#DejaVuSans-80"/>
     <use x="133.464844" xlink:href="#DejaVuSans-45"/>
     <use x="169.548828" xlink:href="#DejaVuSans-77"/>
     <use x="255.828125" xlink:href="#DejaVuSans-79"/>
     <use x="334.570312" xlink:href="#DejaVuSans-45"/>
     <use x="370.654297" xlink:href="#DejaVuSans-67"/>
     <use x="440.478516" xlink:href="#DejaVuSans-77"/>
     <use x="526.757812" xlink:href="#DejaVuSans-65"/>
    </g>
   </g>
   <g id="text_16">
    <!-- best 2016 -->
    <g transform="translate(375.22944 53.810621)scale(0.17 -0.17)">
     <use xlink:href="#DejaVuSans-98"/>
     <use x="63.476562" xlink:href="#DejaVuSans-101"/>
     <use x="125" xlink:href="#DejaVuSans-115"/>
     <use x="177.099609" xlink:href="#DejaVuSans-116"/>
     <use x="216.308594" xlink:href="#DejaVuSans-32"/>
     <use x="248.095703" xlink:href="#DejaVuSans-50"/>
     <use x="311.71875" xlink:href="#DejaVuSans-48"/>
     <use x="375.341797" xlink:href="#DejaVuSans-49"/>
     <use x="438.964844" xlink:href="#DejaVuSans-54"/>
    </g>
   </g>
   <g id="text_17">
    <!-- bbob-biobj f34, 10-D -->
    <defs>
     <path d="M 9.421875 54.6875 
L 18.40625 54.6875 
L 18.40625 -0.984375 
Q 18.40625 -11.421875 14.421875 -16.109375 
Q 10.453125 -20.796875 1.609375 -20.796875 
L -1.8125 -20.796875 
L -1.8125 -13.1875 
L 0.59375 -13.1875 
Q 5.71875 -13.1875 7.5625 -10.8125 
Q 9.421875 -8.453125 9.421875 -0.984375 
z
M 9.421875 75.984375 
L 18.40625 75.984375 
L 18.40625 64.59375 
L 9.421875 64.59375 
z
" id="DejaVuSans-106"/>
     <path d="M 40.578125 39.3125 
Q 47.65625 37.796875 51.625 33 
Q 55.609375 28.21875 55.609375 21.1875 
Q 55.609375 10.40625 48.1875 4.484375 
Q 40.765625 -1.421875 27.09375 -1.421875 
Q 22.515625 -1.421875 17.65625 -0.515625 
Q 12.796875 0.390625 7.625 2.203125 
L 7.625 11.71875 
Q 11.71875 9.328125 16.59375 8.109375 
Q 21.484375 6.890625 26.8125 6.890625 
Q 36.078125 6.890625 40.9375 10.546875 
Q 45.796875 14.203125 45.796875 21.1875 
Q 45.796875 27.640625 41.28125 31.265625 
Q 36.765625 34.90625 28.71875 34.90625 
L 20.21875 34.90625 
L 20.21875 43.015625 
L 29.109375 43.015625 
Q 36.375 43.015625 40.234375 45.921875 
Q 44.09375 48.828125 44.09375 54.296875 
Q 44.09375 59.90625 40.109375 62.90625 
Q 36.140625 65.921875 28.71875 65.921875 
Q 24.65625 65.921875 20.015625 65.03125 
Q 15.375 64.15625 9.8125 62.3125 
L 9.8125 71.09375 
Q 15.4375 72.65625 20.34375 73.4375 
Q 25.25 74.21875 29.59375 74.21875 
Q 40.828125 74.21875 47.359375 69.109375 
Q 53.90625 64.015625 53.90625 55.328125 
Q 53.90625 49.265625 50.4375 45.09375 
Q 46.96875 40.921875 40.578125 39.3125 
z
" id="DejaVuSans-51"/>
    </defs>
    <g transform="translate(60.41088 51.797126)scale(0.102 -0.102)">
     <use xlink:href="#DejaVuSans-98"/>
     <use x="63.476562" xlink:href="#DejaVuSans-98"/>
     <use x="126.953125" xlink:href="#DejaVuSans-111"/>
     <use x="188.134766" xlink:href="#DejaVuSans-98"/>
     <use x="251.611328" xlink:href="#DejaVuSans-45"/>
     <use x="287.695312" xlink:href="#DejaVuSans-98"/>
     <use x="351.171875" xlink:href="#DejaVuSans-105"/>
     <use x="378.955078" xlink:href="#DejaVuSans-111"/>
     <use x="440.136719" xlink:href="#DejaVuSans-98"/>
     <use x="503.613281" xlink:href="#DejaVuSans-106"/>
     <use x="531.396484" xlink:href="#DejaVuSans-32"/>
     <use x="563.183594" xlink:href="#DejaVuSans-102"/>
     <use x="598.388672" xlink:href="#DejaVuSans-51"/>
     <use x="662.011719" xlink:href="#DejaVuSans-52"/>
     <use x="725.634766" xlink:href="#DejaVuSans-44"/>
     <use x="757.421875" xlink:href="#DejaVuSans-32"/>
     <use x="789.208984" xlink:href="#DejaVuSans-49"/>
     <use x="852.832031" xlink:href="#DejaVuSans-48"/>
     <use x="916.455078" xlink:href="#DejaVuSans-45"/>
     <use x="952.539062" xlink:href="#DejaVuSans-68"/>
    </g>
    <!-- 58 targets: 1..-1.0e-4 -->
    <defs>
     <path d="M 10.796875 72.90625 
L 49.515625 72.90625 
L 49.515625 64.59375 
L 19.828125 64.59375 
L 19.828125 46.734375 
Q 21.96875 47.46875 24.109375 47.828125 
Q 26.265625 48.1875 28.421875 48.1875 
Q 40.625 48.1875 47.75 41.5 
Q 54.890625 34.8125 54.890625 23.390625 
Q 54.890625 11.625 47.5625 5.09375 
Q 40.234375 -1.421875 26.90625 -1.421875 
Q 22.3125 -1.421875 17.546875 -0.640625 
Q 12.796875 0.140625 7.71875 1.703125 
L 7.71875 11.625 
Q 12.109375 9.234375 16.796875 8.0625 
Q 21.484375 6.890625 26.703125 6.890625 
Q 35.15625 6.890625 40.078125 11.328125 
Q 45.015625 15.765625 45.015625 23.390625 
Q 45.015625 31 40.078125 35.4375 
Q 35.15625 39.890625 26.703125 39.890625 
Q 22.75 39.890625 18.8125 39.015625 
Q 14.890625 38.140625 10.796875 36.28125 
z
" id="DejaVuSans-53"/>
     <path d="M 11.71875 12.40625 
L 22.015625 12.40625 
L 22.015625 0 
L 11.71875 0 
z
M 11.71875 51.703125 
L 22.015625 51.703125 
L 22.015625 39.3125 
L 11.71875 39.3125 
z
" id="DejaVuSans-58"/>
    </defs>
    <g transform="translate(60.41088 63.218895)scale(0.102 -0.102)">
     <use xlink:href="#DejaVuSans-53"/>
     <use x="63.623047" xlink:href="#DejaVuSans-56"/>
     <use x="127.246094" xlink:href="#DejaVuSans-32"/>
     <use x="159.033203" xlink:href="#DejaVuSans-116"/>
     <use x="198.242188" xlink:href="#DejaVuSans-97"/>
     <use x="259.521484" xlink:href="#DejaVuSans-114"/>
     <use x="300.619141" xlink:href="#DejaVuSans-103"/>
     <use x="364.095703" xlink:href="#DejaVuSans-101"/>
     <use x="425.619141" xlink:href="#DejaVuSans-116"/>
     <use x="464.828125" xlink:href="#DejaVuSans-115"/>
     <use x="516.927734" xlink:href="#DejaVuSans-58"/>
     <use x="550.619141" xlink:href="#DejaVuSans-32"/>
     <use x="582.40625" xlink:href="#DejaVuSans-49"/>
     <use x="646.029297" xlink:href="#DejaVuSans-46"/>
     <use x="677.816406" xlink:href="#DejaVuSans-46"/>
     <use x="709.603516" xlink:href="#DejaVuSans-45"/>
     <use x="745.6875" xlink:href="#DejaVuSans-49"/>
     <use x="809.310547" xlink:href="#DejaVuSans-46"/>
     <use x="841.097656" xlink:href="#DejaVuSans-48"/>
     <use x="904.720703" xlink:href="#DejaVuSans-101"/>
     <use x="966.244141" xlink:href="#DejaVuSans-45"/>
     <use x="1002.328125" xlink:href="#DejaVuSans-52"/>
    </g>
    <!-- 10 instances -->
    <g transform="translate(60.41088 74.640664)scale(0.102 -0.102)">
     <use xlink:href="#DejaVuSans-49"/>
     <use x="63.623047" xlink:href="#DejaVuSans-48"/>
     <use x="127.246094" xlink:href="#DejaVuSans-32"/>
     <use x="159.033203" xlink:href="#DejaVuSans-105"/>
     <use x="186.816406" xlink:href="#DejaVuSans-110"/>
     <use x="250.195312" xlink:href="#DejaVuSans-115"/>
     <use x="302.294922" xlink:href="#DejaVuSans-116"/>
     <use x="341.503906" xlink:href="#DejaVuSans-97"/>
     <use x="402.783203" xlink:href="#DejaVuSans-110"/>
     <use x="466.162109" xlink:href="#DejaVuSans-99"/>
     <use x="521.142578" xlink:href="#DejaVuSans-101"/>
     <use x="582.666016" xlink:href="#DejaVuSans-115"/>
    </g>
   </g>
   <g id="text_18">
    <!-- v2.3.1.31, hv-hash=ff0e71e8cd978373 -->
    <defs>
     <path d="M 54.890625 33.015625 
L 54.890625 0 
L 45.90625 0 
L 45.90625 32.71875 
Q 45.90625 40.484375 42.875 44.328125 
Q 39.84375 48.1875 33.796875 48.1875 
Q 26.515625 48.1875 22.3125 43.546875 
Q 18.109375 38.921875 18.109375 30.90625 
L 18.109375 0 
L 9.078125 0 
L 9.078125 75.984375 
L 18.109375 75.984375 
L 18.109375 46.1875 
Q 21.34375 51.125 25.703125 53.5625 
Q 30.078125 56 35.796875 56 
Q 45.21875 56 50.046875 50.171875 
Q 54.890625 44.34375 54.890625 33.015625 
z
" id="DejaVuSans-104"/>
     <path d="M 10.59375 45.40625 
L 73.1875 45.40625 
L 73.1875 37.203125 
L 10.59375 37.203125 
z
M 10.59375 25.484375 
L 73.1875 25.484375 
L 73.1875 17.1875 
L 10.59375 17.1875 
z
" id="DejaVuSans-61"/>
     <path d="M 8.203125 72.90625 
L 55.078125 72.90625 
L 55.078125 68.703125 
L 28.609375 0 
L 18.3125 0 
L 43.21875 64.59375 
L 8.203125 64.59375 
z
" id="DejaVuSans-55"/>
     <path d="M 10.984375 1.515625 
L 10.984375 10.5 
Q 14.703125 8.734375 18.5 7.8125 
Q 22.3125 6.890625 25.984375 6.890625 
Q 35.75 6.890625 40.890625 13.453125 
Q 46.046875 20.015625 46.78125 33.40625 
Q 43.953125 29.203125 39.59375 26.953125 
Q 35.25 24.703125 29.984375 24.703125 
Q 19.046875 24.703125 12.671875 31.3125 
Q 6.296875 37.9375 6.296875 49.421875 
Q 6.296875 60.640625 12.9375 67.421875 
Q 19.578125 74.21875 30.609375 74.21875 
Q 43.265625 74.21875 49.921875 64.515625 
Q 56.59375 54.828125 56.59375 36.375 
Q 56.59375 19.140625 48.40625 8.859375 
Q 40.234375 -1.421875 26.421875 -1.421875 
Q 22.703125 -1.421875 18.890625 -0.6875 
Q 15.09375 0.046875 10.984375 1.515625 
z
M 30.609375 32.421875 
Q 37.25 32.421875 41.125 36.953125 
Q 45.015625 41.5 45.015625 49.421875 
Q 45.015625 57.28125 41.125 61.84375 
Q 37.25 66.40625 30.609375 66.40625 
Q 23.96875 66.40625 20.09375 61.84375 
Q 16.21875 57.28125 16.21875 49.421875 
Q 16.21875 41.5 20.09375 36.953125 
Q 23.96875 32.421875 30.609375 32.421875 
z
" id="DejaVuSans-57"/>
    </defs>
    <g style="fill:#808080;" transform="translate(99.797125 294.289592)scale(0.1 -0.1)">
     <use xlink:href="#DejaVuSans-118"/>
     <use x="59.179688" xlink:href="#DejaVuSans-50"/>
     <use x="122.802734" xlink:href="#DejaVuSans-46"/>
     <use x="154.589844" xlink:href="#DejaVuSans-51"/>
     <use x="218.212891" xlink:href="#DejaVuSans-46"/>
     <use x="250" xlink:href="#DejaVuSans-49"/>
     <use x="313.623047" xlink:href="#DejaVuSans-46"/>
     <use x="345.410156" xlink:href="#DejaVuSans-51"/>
     <use x="409.033203" xlink:href="#DejaVuSans-49"/>
     <use x="472.65625" xlink:href="#DejaVuSans-44"/>
     <use x="504.443359" xlink:href="#DejaVuSans-32"/>
     <use x="536.230469" xlink:href="#DejaVuSans-104"/>
     <use x="599.609375" xlink:href="#DejaVuSans-118"/>
     <use x="658.757812" xlink:href="#DejaVuSans-45"/>
     <use x="694.841797" xlink:href="#DejaVuSans-104"/>
     <use x="758.220703" xlink:href="#DejaVuSans-97"/>
     <use x="819.5" xlink:href="#DejaVuSans-115"/>
     <use x="871.599609" xlink:href="#DejaVuSans-104"/>
     <use x="934.978516" xlink:href="#DejaVuSans-61"/>
     <use x="1018.767578" xlink:href="#DejaVuSans-102"/>
     <use x="1053.972656" xlink:href="#DejaVuSans-102"/>
     <use x="1089.177734" xlink:href="#DejaVuSans-48"/>
     <use x="1152.800781" xlink:href="#DejaVuSans-101"/>
     <use x="1214.324219" xlink:href="#DejaVuSans-55"/>
     <use x="1277.947266" xlink:href="#DejaVuSans-49"/>
     <use x="1341.570312" xlink:href="#DejaVuSans-101"/>
     <use x="1403.09375" xlink:href="#DejaVuSans-56"/>
     <use x="1466.716797" xlink:href="#DejaVuSans-99"/>
     <use x="1521.697266" xlink:href="#DejaVuSans-100"/>
     <use x="1585.173828" xlink:href="#DejaVuSans-57"/>
     <use x="1648.796875" xlink:href="#DejaVuSans-55"/>
     <use x="1712.419922" xlink:href="#DejaVuSans-56"/>
     <use x="1776.042969" xlink:href="#DejaVuSans-51"/>
     <use x="1839.666016" xlink:href="#DejaVuSans-55"/>
     <use x="1903.289062" xlink:href="#DejaVuSans-51"/>
    </g>
   </g>
   <g id="text_19">
    <!-- 34 Rosenbrock/Gallagher 101 -->
    <defs>
     <path d="M 44.390625 34.1875 
Q 47.5625 33.109375 50.5625 29.59375 
Q 53.5625 26.078125 56.59375 19.921875 
L 66.609375 0 
L 56 0 
L 46.6875 18.703125 
Q 43.0625 26.03125 39.671875 28.421875 
Q 36.28125 30.8125 30.421875 30.8125 
L 19.671875 30.8125 
L 19.671875 0 
L 9.8125 0 
L 9.8125 72.90625 
L 32.078125 72.90625 
Q 44.578125 72.90625 50.734375 67.671875 
Q 56.890625 62.453125 56.890625 51.90625 
Q 56.890625 45.015625 53.6875 40.46875 
Q 50.484375 35.9375 44.390625 34.1875 
z
M 19.671875 64.796875 
L 19.671875 38.921875 
L 32.078125 38.921875 
Q 39.203125 38.921875 42.84375 42.21875 
Q 46.484375 45.515625 46.484375 51.90625 
Q 46.484375 58.296875 42.84375 61.546875 
Q 39.203125 64.796875 32.078125 64.796875 
z
" id="DejaVuSans-82"/>
     <path d="M 9.078125 75.984375 
L 18.109375 75.984375 
L 18.109375 31.109375 
L 44.921875 54.6875 
L 56.390625 54.6875 
L 27.390625 29.109375 
L 57.625 0 
L 45.90625 0 
L 18.109375 26.703125 
L 18.109375 0 
L 9.078125 0 
z
" id="DejaVuSans-107"/>
    </defs>
    <g transform="translate(49.470562 35.472)scale(0.2 -0.2)">
     <use xlink:href="#DejaVuSans-51"/>
     <use x="63.623047" xlink:href="#DejaVuSans-52"/>
     <use x="127.246094" xlink:href="#DejaVuSans-32"/>
     <use x="159.033203" xlink:href="#DejaVuSans-82"/>
     <use x="228.453125" xlink:href="#DejaVuSans-111"/>
     <use x="289.634766" xlink:href="#DejaVuSans-115"/>
     <use x="341.734375" xlink:href="#DejaVuSans-101"/>
     <use x="403.257812" xlink:href="#DejaVuSans-110"/>
     <use x="466.636719" xlink:href="#DejaVuSans-98"/>
     <use x="530.113281" xlink:href="#DejaVuSans-114"/>
     <use x="571.195312" xlink:href="#DejaVuSans-111"/>
     <use x="632.376953" xlink:href="#DejaVuSans-99"/>
     <use x="687.357422" xlink:href="#DejaVuSans-107"/>
     <use x="745.267578" xlink:href="#DejaVuSans-47"/>
     <use x="778.958984" xlink:href="#DejaVuSans-71"/>
     <use x="856.449219" xlink:href="#DejaVuSans-97"/>
     <use x="917.728516" xlink:href="#DejaVuSans-108"/>
     <use x="945.511719" xlink:href="#DejaVuSans-108"/>
     <use x="973.294922" xlink:href="#DejaVuSans-97"/>
     <use x="1034.574219" xlink:href="#DejaVuSans-103"/>
     <use x="1098.050781" xlink:href="#DejaVuSans-104"/>
     <use x="1161.429688" xlink:href="#DejaVuSans-101"/>
     <use x="1222.953125" xlink:href="#DejaVuSans-114"/>
     <use x="1264.066406" xlink:href="#DejaVuSans-32"/>
     <use x="1295.853516" xlink:href="#DejaVuSans-49"/>
     <use x="1359.476562" xlink:href="#DejaVuSans-48"/>
     <use x="1423.099609" xlink:href="#DejaVuSans-49"/>
    </g>
   </g>
  </g>
 </g>
 <defs>
  <clipPath id="p8c25afa98f">
   <rect height="257.472" width="281.088" x="57.6" y="41.472"/>
  </clipPath>
 </defs>
</svg>
