<?xml version="1.0" encoding="utf-8" standalone="no"?>
<!DOCTYPE svg PUBLIC "-//W3C//DTD SVG 1.1//EN"
  "http://www.w3.org/Graphics/SVG/1.1/DTD/svg11.dtd">
<!-- Created with matplotlib (https://matplotlib.org/) -->
<svg height="345.6pt" version="1.1" viewBox="0 0 460.8 345.6" width="460.8pt" xmlns="http://www.w3.org/2000/svg" xmlns:xlink="http://www.w3.org/1999/xlink">
 <defs>
  <style type="text/css">
*{stroke-linecap:butt;stroke-linejoin:round;}
  </style>
 </defs>
 <g id="figure_1">
  <g id="patch_1">
   <path d="M 0 345.6 
L 460.8 345.6 
L 460.8 0 
L 0 0 
z
" style="fill:#ffffff;"/>
  </g>
  <g id="axes_1">
   <g id="patch_2">
    <path d="M 57.6 298.944 
L 338.688 298.944 
L 338.688 41.472 
L 57.6 41.472 
z
" style="fill:#ffffff;"/>
   </g>
   <g id="line2d_1">
    <path d="M 64.67102 298.944 
L 64.67102 294.54878 
L 69.687988 294.54878 
L 69.687988 285.758339 
L 83.830028 285.758339 
L 83.830028 276.967899 
L 94.921215 276.967899 
L 94.921215 272.572679 
L 103.623262 272.572679 
L 103.623262 259.387018 
L 108.948899 259.387018 
L 108.948899 250.596578 
L 114.751048 250.596578 
L 114.751048 246.201357 
L 121.489881 246.201357 
L 121.489881 237.410917 
L 128.709321 237.410917 
L 128.709321 224.225256 
L 135.076644 224.225256 
L 135.076644 215.434816 
L 139.652088 215.434816 
L 139.652088 206.644376 
L 147.86833 206.644376 
L 147.86833 197.853935 
L 156.658127 197.853935 
L 156.658127 193.458715 
L 162.833584 193.458715 
L 162.833584 180.273054 
L 168.805533 180.273054 
L 168.805533 175.877834 
L 180.549068 175.877834 
L 180.549068 162.692173 
L 189.401447 162.692173 
L 189.401447 153.901733 
L 197.436192 153.901733 
L 197.436192 149.506513 
L 205.330753 149.506513 
L 205.330753 136.320852 
L 212.409075 136.320852 
L 212.409075 131.925632 
L 220.091098 131.925632 
L 220.091098 118.739971 
L 228.055095 118.739971 
L 228.055095 109.949531 
L 236.412621 109.949531 
L 236.412621 101.15909 
L 243.62156 101.15909 
L 243.62156 96.76387 
L 249.923419 96.76387 
L 249.923419 87.97343 
L 256.58714 87.97343 
L 256.58714 74.787769 
L 338.688 74.787769 
" style="fill:none;stroke:#f5deb3;stroke-linecap:square;stroke-width:4;"/>
   </g>
   <g id="line2d_2">
    <defs>
     <path d="M 0 7.778175 
L 7.778175 0 
L 0 -7.778175 
L -7.778175 0 
z
" id="macf5c29443" style="stroke:#f5deb3;stroke-linejoin:miter;stroke-width:1.5;"/>
    </defs>
    <g>
     <use style="fill:#f5deb3;stroke:#f5deb3;stroke-linejoin:miter;stroke-width:1.5;" x="135.076644" xlink:href="#macf5c29443" y="224.225256"/>
     <use style="fill:#f5deb3;stroke:#f5deb3;stroke-linejoin:miter;stroke-width:1.5;" x="205.330753" xlink:href="#macf5c29443" y="149.506513"/>
     <use style="fill:#f5deb3;stroke:#f5deb3;stroke-linejoin:miter;stroke-width:1.5;" x="256.58714" xlink:href="#macf5c29443" y="74.787769"/>
     <use style="fill:#f5deb3;stroke:#f5deb3;stroke-linejoin:miter;stroke-width:1.5;" x="256.58714" xlink:href="#macf5c29443" y="74.787769"/>
     <use style="fill:#f5deb3;stroke:#f5deb3;stroke-linejoin:miter;stroke-width:1.5;" x="338.688" xlink:href="#macf5c29443" y="74.787769"/>
    </g>
   </g>
   <g id="line2d_3">
    <path style="fill:none;stroke:#f5deb3;stroke-linecap:square;stroke-width:4;"/>
    <g/>
   </g>
   <g id="line2d_4">
    <path d="M 338.688 74.787769 
L 369.60768 49.119683 
" style="fill:none;stroke:#f5deb3;stroke-linecap:square;stroke-width:4;"/>
    <g>
     <use style="fill:#f5deb3;stroke:#f5deb3;stroke-linejoin:miter;stroke-width:1.5;" x="338.688" xlink:href="#macf5c29443" y="74.787769"/>
     <use style="fill:#f5deb3;stroke:#f5deb3;stroke-linejoin:miter;stroke-width:1.5;" x="369.60768" xlink:href="#macf5c29443" y="49.119683"/>
    </g>
   </g>
   <g id="matplotlib.axis_1">
    <g id="xtick_1">
     <g id="line2d_5">
      <path clip-path="url(#p62980b7927)" d="M 57.6 298.944 
L 57.6 41.472 
" style="fill:none;stroke:#b0b0b0;stroke-linecap:square;stroke-width:0.8;"/>
     </g>
     <g id="line2d_6">
      <defs>
       <path d="M 0 0 
L 0 3.5 
" id="m805d1e045a" style="stroke:#000000;stroke-width:0.8;"/>
      </defs>
      <g>
       <use style="stroke:#000000;stroke-width:0.8;" x="57.6" xlink:href="#m805d1e045a" y="298.944"/>
      </g>
     </g>
     <g id="text_1">
      <!-- 0 -->
      <defs>
       <path d="M 31.78125 66.40625 
Q 24.171875 66.40625 20.328125 58.90625 
Q 16.5 51.421875 16.5 36.375 
Q 16.5 21.390625 20.328125 13.890625 
Q 24.171875 6.390625 31.78125 6.390625 
Q 39.453125 6.390625 43.28125 13.890625 
Q 47.125 21.390625 47.125 36.375 
Q 47.125 51.421875 43.28125 58.90625 
Q 39.453125 66.40625 31.78125 66.40625 
z
M 31.78125 74.21875 
Q 44.046875 74.21875 50.515625 64.515625 
Q 56.984375 54.828125 56.984375 36.375 
Q 56.984375 17.96875 50.515625 8.265625 
Q 44.046875 -1.421875 31.78125 -1.421875 
Q 19.53125 -1.421875 13.0625 8.265625 
Q 6.59375 17.96875 6.59375 36.375 
Q 6.59375 54.828125 13.0625 64.515625 
Q 19.53125 74.21875 31.78125 74.21875 
z
" id="DejaVuSans-48"/>
      </defs>
      <g transform="translate(51.2375 321.140875)scale(0.2 -0.2)">
       <use xlink:href="#DejaVuSans-48"/>
      </g>
     </g>
    </g>
    <g id="xtick_2">
     <g id="line2d_7">
      <path clip-path="url(#p62980b7927)" d="M 137.910857 298.944 
L 137.910857 41.472 
" style="fill:none;stroke:#b0b0b0;stroke-linecap:square;stroke-width:0.8;"/>
     </g>
     <g id="line2d_8">
      <g>
       <use style="stroke:#000000;stroke-width:0.8;" x="137.910857" xlink:href="#m805d1e045a" y="298.944"/>
      </g>
     </g>
     <g id="text_2">
      <!-- 2 -->
      <defs>
       <path d="M 19.1875 8.296875 
L 53.609375 8.296875 
L 53.609375 0 
L 7.328125 0 
L 7.328125 8.296875 
Q 12.9375 14.109375 22.625 23.890625 
Q 32.328125 33.6875 34.8125 36.53125 
Q 39.546875 41.84375 41.421875 45.53125 
Q 43.3125 49.21875 43.3125 52.78125 
Q 43.3125 58.59375 39.234375 62.25 
Q 35.15625 65.921875 28.609375 65.921875 
Q 23.96875 65.921875 18.8125 64.3125 
Q 13.671875 62.703125 7.8125 59.421875 
L 7.8125 69.390625 
Q 13.765625 71.78125 18.9375 73 
Q 24.125 74.21875 28.421875 74.21875 
Q 39.75 74.21875 46.484375 68.546875 
Q 53.21875 62.890625 53.21875 53.421875 
Q 53.21875 48.921875 51.53125 44.890625 
Q 49.859375 40.875 45.40625 35.40625 
Q 44.1875 33.984375 37.640625 27.21875 
Q 31.109375 20.453125 19.1875 8.296875 
z
" id="DejaVuSans-50"/>
      </defs>
      <g transform="translate(131.548357 321.140875)scale(0.2 -0.2)">
       <use xlink:href="#DejaVuSans-50"/>
      </g>
     </g>
    </g>
    <g id="xtick_3">
     <g id="line2d_9">
      <path clip-path="url(#p62980b7927)" d="M 218.221714 298.944 
L 218.221714 41.472 
" style="fill:none;stroke:#b0b0b0;stroke-linecap:square;stroke-width:0.8;"/>
     </g>
     <g id="line2d_10">
      <g>
       <use style="stroke:#000000;stroke-width:0.8;" x="218.221714" xlink:href="#m805d1e045a" y="298.944"/>
      </g>
     </g>
     <g id="text_3">
      <!-- 4 -->
      <defs>
       <path d="M 37.796875 64.3125 
L 12.890625 25.390625 
L 37.796875 25.390625 
z
M 35.203125 72.90625 
L 47.609375 72.90625 
L 47.609375 25.390625 
L 58.015625 25.390625 
L 58.015625 17.1875 
L 47.609375 17.1875 
L 47.609375 0 
L 37.796875 0 
L 37.796875 17.1875 
L 4.890625 17.1875 
L 4.890625 26.703125 
z
" id="DejaVuSans-52"/>
      </defs>
      <g transform="translate(211.859214 321.140875)scale(0.2 -0.2)">
       <use xlink:href="#DejaVuSans-52"/>
      </g>
     </g>
    </g>
    <g id="xtick_4">
     <g id="line2d_11">
      <path clip-path="url(#p62980b7927)" d="M 298.532571 298.944 
L 298.532571 41.472 
" style="fill:none;stroke:#b0b0b0;stroke-linecap:square;stroke-width:0.8;"/>
     </g>
     <g id="line2d_12">
      <g>
       <use style="stroke:#000000;stroke-width:0.8;" x="298.532571" xlink:href="#m805d1e045a" y="298.944"/>
      </g>
     </g>
     <g id="text_4">
      <!-- 6 -->
      <defs>
       <path d="M 33.015625 40.375 
Q 26.375 40.375 22.484375 35.828125 
Q 18.609375 31.296875 18.609375 23.390625 
Q 18.609375 15.53125 22.484375 10.953125 
Q 26.375 6.390625 33.015625 6.390625 
Q 39.65625 6.390625 43.53125 10.953125 
Q 47.40625 15.53125 47.40625 23.390625 
Q 47.40625 31.296875 43.53125 35.828125 
Q 39.65625 40.375 33.015625 40.375 
z
M 52.59375 71.296875 
L 52.59375 62.3125 
Q 48.875 64.0625 45.09375 64.984375 
Q 41.3125 65.921875 37.59375 65.921875 
Q 27.828125 65.921875 22.671875 59.328125 
Q 17.53125 52.734375 16.796875 39.40625 
Q 19.671875 43.65625 24.015625 45.921875 
Q 28.375 48.1875 33.59375 48.1875 
Q 44.578125 48.1875 50.953125 41.515625 
Q 57.328125 34.859375 57.328125 23.390625 
Q 57.328125 12.15625 50.6875 5.359375 
Q 44.046875 -1.421875 33.015625 -1.421875 
Q 20.359375 -1.421875 13.671875 8.265625 
Q 6.984375 17.96875 6.984375 36.375 
Q 6.984375 53.65625 15.1875 63.9375 
Q 23.390625 74.21875 37.203125 74.21875 
Q 40.921875 74.21875 44.703125 73.484375 
Q 48.484375 72.75 52.59375 71.296875 
z
" id="DejaVuSans-54"/>
      </defs>
      <g transform="translate(292.170071 321.140875)scale(0.2 -0.2)">
       <use xlink:href="#DejaVuSans-54"/>
      </g>
     </g>
    </g>
    <g id="xtick_5">
     <g id="line2d_13">
      <path clip-path="url(#p62980b7927)" d="M 57.6 298.944 
L 57.6 41.472 
" style="fill:none;stroke:#b0b0b0;stroke-linecap:square;stroke-width:0.8;"/>
     </g>
     <g id="line2d_14">
      <defs>
       <path d="M 0 0 
L 0 2 
" id="m3bf4fb9361" style="stroke:#000000;stroke-width:0.6;"/>
      </defs>
      <g>
       <use style="stroke:#000000;stroke-width:0.6;" x="57.6" xlink:href="#m3bf4fb9361" y="298.944"/>
      </g>
     </g>
    </g>
    <g id="xtick_6">
     <g id="line2d_15">
      <path clip-path="url(#p62980b7927)" d="M 97.755429 298.944 
L 97.755429 41.472 
" style="fill:none;stroke:#b0b0b0;stroke-linecap:square;stroke-width:0.8;"/>
     </g>
     <g id="line2d_16">
      <g>
       <use style="stroke:#000000;stroke-width:0.6;" x="97.755429" xlink:href="#m3bf4fb9361" y="298.944"/>
      </g>
     </g>
    </g>
    <g id="xtick_7">
     <g id="line2d_17">
      <path clip-path="url(#p62980b7927)" d="M 137.910857 298.944 
L 137.910857 41.472 
" style="fill:none;stroke:#b0b0b0;stroke-linecap:square;stroke-width:0.8;"/>
     </g>
     <g id="line2d_18">
      <g>
       <use style="stroke:#000000;stroke-width:0.6;" x="137.910857" xlink:href="#m3bf4fb9361" y="298.944"/>
      </g>
     </g>
    </g>
    <g id="xtick_8">
     <g id="line2d_19">
      <path clip-path="url(#p62980b7927)" d="M 178.066286 298.944 
L 178.066286 41.472 
" style="fill:none;stroke:#b0b0b0;stroke-linecap:square;stroke-width:0.8;"/>
     </g>
     <g id="line2d_20">
      <g>
       <use style="stroke:#000000;stroke-width:0.6;" x="178.066286" xlink:href="#m3bf4fb9361" y="298.944"/>
      </g>
     </g>
    </g>
    <g id="xtick_9">
     <g id="line2d_21">
      <path clip-path="url(#p62980b7927)" d="M 218.221714 298.944 
L 218.221714 41.472 
" style="fill:none;stroke:#b0b0b0;stroke-linecap:square;stroke-width:0.8;"/>
     </g>
     <g id="line2d_22">
      <g>
       <use style="stroke:#000000;stroke-width:0.6;" x="218.221714" xlink:href="#m3bf4fb9361" y="298.944"/>
      </g>
     </g>
    </g>
    <g id="xtick_10">
     <g id="line2d_23">
      <path clip-path="url(#p62980b7927)" d="M 258.377143 298.944 
L 258.377143 41.472 
" style="fill:none;stroke:#b0b0b0;stroke-linecap:square;stroke-width:0.8;"/>
     </g>
     <g id="line2d_24">
      <g>
       <use style="stroke:#000000;stroke-width:0.6;" x="258.377143" xlink:href="#m3bf4fb9361" y="298.944"/>
      </g>
     </g>
    </g>
    <g id="xtick_11">
     <g id="line2d_25">
      <path clip-path="url(#p62980b7927)" d="M 298.532571 298.944 
L 298.532571 41.472 
" style="fill:none;stroke:#b0b0b0;stroke-linecap:square;stroke-width:0.8;"/>
     </g>
     <g id="line2d_26">
      <g>
       <use style="stroke:#000000;stroke-width:0.6;" x="298.532571" xlink:href="#m3bf4fb9361" y="298.944"/>
      </g>
     </g>
    </g>
    <g id="xtick_12">
     <g id="line2d_27">
      <path clip-path="url(#p62980b7927)" d="M 338.688 298.944 
L 338.688 41.472 
" style="fill:none;stroke:#b0b0b0;stroke-linecap:square;stroke-width:0.8;"/>
     </g>
     <g id="line2d_28">
      <g>
       <use style="stroke:#000000;stroke-width:0.6;" x="338.688" xlink:href="#m3bf4fb9361" y="298.944"/>
      </g>
     </g>
    </g>
    <g id="text_5">
     <!-- log10(# f-evals / dimension) -->
     <defs>
      <path d="M 9.421875 75.984375 
L 18.40625 75.984375 
L 18.40625 0 
L 9.421875 0 
z
" id="DejaVuSans-108"/>
      <path d="M 30.609375 48.390625 
Q 23.390625 48.390625 19.1875 42.75 
Q 14.984375 37.109375 14.984375 27.296875 
Q 14.984375 17.484375 19.15625 11.84375 
Q 23.34375 6.203125 30.609375 6.203125 
Q 37.796875 6.203125 41.984375 11.859375 
Q 46.1875 17.53125 46.1875 27.296875 
Q 46.1875 37.015625 41.984375 42.703125 
Q 37.796875 48.390625 30.609375 48.390625 
z
M 30.609375 56 
Q 42.328125 56 49.015625 48.375 
Q 55.71875 40.765625 55.71875 27.296875 
Q 55.71875 13.875 49.015625 6.21875 
Q 42.328125 -1.421875 30.609375 -1.421875 
Q 18.84375 -1.421875 12.171875 6.21875 
Q 5.515625 13.875 5.515625 27.296875 
Q 5.515625 40.765625 12.171875 48.375 
Q 18.84375 56 30.609375 56 
z
" id="DejaVuSans-111"/>
      <path d="M 45.40625 27.984375 
Q 45.40625 37.75 41.375 43.109375 
Q 37.359375 48.484375 30.078125 48.484375 
Q 22.859375 48.484375 18.828125 43.109375 
Q 14.796875 37.75 14.796875 27.984375 
Q 14.796875 18.265625 18.828125 12.890625 
Q 22.859375 7.515625 30.078125 7.515625 
Q 37.359375 7.515625 41.375 12.890625 
Q 45.40625 18.265625 45.40625 27.984375 
z
M 54.390625 6.78125 
Q 54.390625 -7.171875 48.1875 -13.984375 
Q 42 -20.796875 29.203125 -20.796875 
Q 24.46875 -20.796875 20.265625 -20.09375 
Q 16.0625 -19.390625 12.109375 -17.921875 
L 12.109375 -9.1875 
Q 16.0625 -11.328125 19.921875 -12.34375 
Q 23.78125 -13.375 27.78125 -13.375 
Q 36.625 -13.375 41.015625 -8.765625 
Q 45.40625 -4.15625 45.40625 5.171875 
L 45.40625 9.625 
Q 42.625 4.78125 38.28125 2.390625 
Q 33.9375 0 27.875 0 
Q 17.828125 0 11.671875 7.65625 
Q 5.515625 15.328125 5.515625 27.984375 
Q 5.515625 40.671875 11.671875 48.328125 
Q 17.828125 56 27.875 56 
Q 33.9375 56 38.28125 53.609375 
Q 42.625 51.21875 45.40625 46.390625 
L 45.40625 54.6875 
L 54.390625 54.6875 
z
" id="DejaVuSans-103"/>
      <path d="M 12.40625 8.296875 
L 28.515625 8.296875 
L 28.515625 63.921875 
L 10.984375 60.40625 
L 10.984375 69.390625 
L 28.421875 72.90625 
L 38.28125 72.90625 
L 38.28125 8.296875 
L 54.390625 8.296875 
L 54.390625 0 
L 12.40625 0 
z
" id="DejaVuSans-49"/>
      <path d="M 31 75.875 
Q 24.46875 64.65625 21.28125 53.65625 
Q 18.109375 42.671875 18.109375 31.390625 
Q 18.109375 20.125 21.3125 9.0625 
Q 24.515625 -2 31 -13.1875 
L 23.1875 -13.1875 
Q 15.875 -1.703125 12.234375 9.375 
Q 8.59375 20.453125 8.59375 31.390625 
Q 8.59375 42.28125 12.203125 53.3125 
Q 15.828125 64.359375 23.1875 75.875 
z
" id="DejaVuSans-40"/>
      <path d="M 51.125 44 
L 36.921875 44 
L 32.8125 27.6875 
L 47.125 27.6875 
z
M 43.796875 71.78125 
L 38.71875 51.515625 
L 52.984375 51.515625 
L 58.109375 71.78125 
L 65.921875 71.78125 
L 60.890625 51.515625 
L 76.125 51.515625 
L 76.125 44 
L 58.984375 44 
L 54.984375 27.6875 
L 70.515625 27.6875 
L 70.515625 20.21875 
L 53.078125 20.21875 
L 48 0 
L 40.1875 0 
L 45.21875 20.21875 
L 30.90625 20.21875 
L 25.875 0 
L 18.015625 0 
L 23.09375 20.21875 
L 7.71875 20.21875 
L 7.71875 27.6875 
L 24.90625 27.6875 
L 29 44 
L 13.28125 44 
L 13.28125 51.515625 
L 30.90625 51.515625 
L 35.890625 71.78125 
z
" id="DejaVuSans-35"/>
      <path id="DejaVuSans-32"/>
      <path d="M 37.109375 75.984375 
L 37.109375 68.5 
L 28.515625 68.5 
Q 23.6875 68.5 21.796875 66.546875 
Q 19.921875 64.59375 19.921875 59.515625 
L 19.921875 54.6875 
L 34.71875 54.6875 
L 34.71875 47.703125 
L 19.921875 47.703125 
L 19.921875 0 
L 10.890625 0 
L 10.890625 47.703125 
L 2.296875 47.703125 
L 2.296875 54.6875 
L 10.890625 54.6875 
L 10.890625 58.5 
Q 10.890625 67.625 15.140625 71.796875 
Q 19.390625 75.984375 28.609375 75.984375 
z
" id="DejaVuSans-102"/>
      <path d="M 4.890625 31.390625 
L 31.203125 31.390625 
L 31.203125 23.390625 
L 4.890625 23.390625 
z
" id="DejaVuSans-45"/>
      <path d="M 56.203125 29.59375 
L 56.203125 25.203125 
L 14.890625 25.203125 
Q 15.484375 15.921875 20.484375 11.0625 
Q 25.484375 6.203125 34.421875 6.203125 
Q 39.59375 6.203125 44.453125 7.46875 
Q 49.3125 8.734375 54.109375 11.28125 
L 54.109375 2.78125 
Q 49.265625 0.734375 44.1875 -0.34375 
Q 39.109375 -1.421875 33.890625 -1.421875 
Q 20.796875 -1.421875 13.15625 6.1875 
Q 5.515625 13.8125 5.515625 26.8125 
Q 5.515625 40.234375 12.765625 48.109375 
Q 20.015625 56 32.328125 56 
Q 43.359375 56 49.78125 48.890625 
Q 56.203125 41.796875 56.203125 29.59375 
z
M 47.21875 32.234375 
Q 47.125 39.59375 43.09375 43.984375 
Q 39.0625 48.390625 32.421875 48.390625 
Q 24.90625 48.390625 20.390625 44.140625 
Q 15.875 39.890625 15.1875 32.171875 
z
" id="DejaVuSans-101"/>
      <path d="M 2.984375 54.6875 
L 12.5 54.6875 
L 29.59375 8.796875 
L 46.6875 54.6875 
L 56.203125 54.6875 
L 35.6875 0 
L 23.484375 0 
z
" id="DejaVuSans-118"/>
      <path d="M 34.28125 27.484375 
Q 23.390625 27.484375 19.1875 25 
Q 14.984375 22.515625 14.984375 16.5 
Q 14.984375 11.71875 18.140625 8.90625 
Q 21.296875 6.109375 26.703125 6.109375 
Q 34.1875 6.109375 38.703125 11.40625 
Q 43.21875 16.703125 43.21875 25.484375 
L 43.21875 27.484375 
z
M 52.203125 31.203125 
L 52.203125 0 
L 43.21875 0 
L 43.21875 8.296875 
Q 40.140625 3.328125 35.546875 0.953125 
Q 30.953125 -1.421875 24.3125 -1.421875 
Q 15.921875 -1.421875 10.953125 3.296875 
Q 6 8.015625 6 15.921875 
Q 6 25.140625 12.171875 29.828125 
Q 18.359375 34.515625 30.609375 34.515625 
L 43.21875 34.515625 
L 43.21875 35.40625 
Q 43.21875 41.609375 39.140625 45 
Q 35.0625 48.390625 27.6875 48.390625 
Q 23 48.390625 18.546875 47.265625 
Q 14.109375 46.140625 10.015625 43.890625 
L 10.015625 52.203125 
Q 14.9375 54.109375 19.578125 55.046875 
Q 24.21875 56 28.609375 56 
Q 40.484375 56 46.34375 49.84375 
Q 52.203125 43.703125 52.203125 31.203125 
z
" id="DejaVuSans-97"/>
      <path d="M 44.28125 53.078125 
L 44.28125 44.578125 
Q 40.484375 46.53125 36.375 47.5 
Q 32.28125 48.484375 27.875 48.484375 
Q 21.1875 48.484375 17.84375 46.4375 
Q 14.5 44.390625 14.5 40.28125 
Q 14.5 37.15625 16.890625 35.375 
Q 19.28125 33.59375 26.515625 31.984375 
L 29.59375 31.296875 
Q 39.15625 29.25 43.1875 25.515625 
Q 47.21875 21.78125 47.21875 15.09375 
Q 47.21875 7.46875 41.1875 3.015625 
Q 35.15625 -1.421875 24.609375 -1.421875 
Q 20.21875 -1.421875 15.453125 -0.5625 
Q 10.6875 0.296875 5.421875 2 
L 5.421875 11.28125 
Q 10.40625 8.6875 15.234375 7.390625 
Q 20.0625 6.109375 24.8125 6.109375 
Q 31.15625 6.109375 34.5625 8.28125 
Q 37.984375 10.453125 37.984375 14.40625 
Q 37.984375 18.0625 35.515625 20.015625 
Q 33.0625 21.96875 24.703125 23.78125 
L 21.578125 24.515625 
Q 13.234375 26.265625 9.515625 29.90625 
Q 5.8125 33.546875 5.8125 39.890625 
Q 5.8125 47.609375 11.28125 51.796875 
Q 16.75 56 26.8125 56 
Q 31.78125 56 36.171875 55.265625 
Q 40.578125 54.546875 44.28125 53.078125 
z
" id="DejaVuSans-115"/>
      <path d="M 25.390625 72.90625 
L 33.6875 72.90625 
L 8.296875 -9.28125 
L 0 -9.28125 
z
" id="DejaVuSans-47"/>
      <path d="M 45.40625 46.390625 
L 45.40625 75.984375 
L 54.390625 75.984375 
L 54.390625 0 
L 45.40625 0 
L 45.40625 8.203125 
Q 42.578125 3.328125 38.25 0.953125 
Q 33.9375 -1.421875 27.875 -1.421875 
Q 17.96875 -1.421875 11.734375 6.484375 
Q 5.515625 14.40625 5.515625 27.296875 
Q 5.515625 40.1875 11.734375 48.09375 
Q 17.96875 56 27.875 56 
Q 33.9375 56 38.25 53.625 
Q 42.578125 51.265625 45.40625 46.390625 
z
M 14.796875 27.296875 
Q 14.796875 17.390625 18.875 11.75 
Q 22.953125 6.109375 30.078125 6.109375 
Q 37.203125 6.109375 41.296875 11.75 
Q 45.40625 17.390625 45.40625 27.296875 
Q 45.40625 37.203125 41.296875 42.84375 
Q 37.203125 48.484375 30.078125 48.484375 
Q 22.953125 48.484375 18.875 42.84375 
Q 14.796875 37.203125 14.796875 27.296875 
z
" id="DejaVuSans-100"/>
      <path d="M 9.421875 54.6875 
L 18.40625 54.6875 
L 18.40625 0 
L 9.421875 0 
z
M 9.421875 75.984375 
L 18.40625 75.984375 
L 18.40625 64.59375 
L 9.421875 64.59375 
z
" id="DejaVuSans-105"/>
      <path d="M 52 44.1875 
Q 55.375 50.25 60.0625 53.125 
Q 64.75 56 71.09375 56 
Q 79.640625 56 84.28125 50.015625 
Q 88.921875 44.046875 88.921875 33.015625 
L 88.921875 0 
L 79.890625 0 
L 79.890625 32.71875 
Q 79.890625 40.578125 77.09375 44.375 
Q 74.3125 48.1875 68.609375 48.1875 
Q 61.625 48.1875 57.5625 43.546875 
Q 53.515625 38.921875 53.515625 30.90625 
L 53.515625 0 
L 44.484375 0 
L 44.484375 32.71875 
Q 44.484375 40.625 41.703125 44.40625 
Q 38.921875 48.1875 33.109375 48.1875 
Q 26.21875 48.1875 22.15625 43.53125 
Q 18.109375 38.875 18.109375 30.90625 
L 18.109375 0 
L 9.078125 0 
L 9.078125 54.6875 
L 18.109375 54.6875 
L 18.109375 46.1875 
Q 21.1875 51.21875 25.484375 53.609375 
Q 29.78125 56 35.6875 56 
Q 41.65625 56 45.828125 52.96875 
Q 50 49.953125 52 44.1875 
z
" id="DejaVuSans-109"/>
      <path d="M 54.890625 33.015625 
L 54.890625 0 
L 45.90625 0 
L 45.90625 32.71875 
Q 45.90625 40.484375 42.875 44.328125 
Q 39.84375 48.1875 33.796875 48.1875 
Q 26.515625 48.1875 22.3125 43.546875 
Q 18.109375 38.921875 18.109375 30.90625 
L 18.109375 0 
L 9.078125 0 
L 9.078125 54.6875 
L 18.109375 54.6875 
L 18.109375 46.1875 
Q 21.34375 51.125 25.703125 53.5625 
Q 30.078125 56 35.796875 56 
Q 45.21875 56 50.046875 50.171875 
Q 54.890625 44.34375 54.890625 33.015625 
z
" id="DejaVuSans-110"/>
      <path d="M 8.015625 75.875 
L 15.828125 75.875 
Q 23.140625 64.359375 26.78125 53.3125 
Q 30.421875 42.28125 30.421875 31.390625 
Q 30.421875 20.453125 26.78125 9.375 
Q 23.140625 -1.703125 15.828125 -13.1875 
L 8.015625 -13.1875 
Q 14.5 -2 17.703125 9.0625 
Q 20.90625 20.125 20.90625 31.390625 
Q 20.90625 42.671875 17.703125 53.65625 
Q 14.5 64.65625 8.015625 75.875 
z
" id="DejaVuSans-41"/>
     </defs>
     <g transform="translate(77.303219 342.217594)scale(0.17 -0.17)">
      <use xlink:href="#DejaVuSans-108"/>
      <use x="27.783203" xlink:href="#DejaVuSans-111"/>
      <use x="88.964844" xlink:href="#DejaVuSans-103"/>
      <use x="152.441406" xlink:href="#DejaVuSans-49"/>
      <use x="216.064453" xlink:href="#DejaVuSans-48"/>
      <use x="279.6875" xlink:href="#DejaVuSans-40"/>
      <use x="318.701172" xlink:href="#DejaVuSans-35"/>
      <use x="402.490234" xlink:href="#DejaVuSans-32"/>
      <use x="434.277344" xlink:href="#DejaVuSans-102"/>
      <use x="469.404297" xlink:href="#DejaVuSans-45"/>
      <use x="505.488281" xlink:href="#DejaVuSans-101"/>
      <use x="567.011719" xlink:href="#DejaVuSans-118"/>
      <use x="626.191406" xlink:href="#DejaVuSans-97"/>
      <use x="687.470703" xlink:href="#DejaVuSans-108"/>
      <use x="715.253906" xlink:href="#DejaVuSans-115"/>
      <use x="767.353516" xlink:href="#DejaVuSans-32"/>
      <use x="799.140625" xlink:href="#DejaVuSans-47"/>
      <use x="832.832031" xlink:href="#DejaVuSans-32"/>
      <use x="864.619141" xlink:href="#DejaVuSans-100"/>
      <use x="928.095703" xlink:href="#DejaVuSans-105"/>
      <use x="955.878906" xlink:href="#DejaVuSans-109"/>
      <use x="1053.291016" xlink:href="#DejaVuSans-101"/>
      <use x="1114.814453" xlink:href="#DejaVuSans-110"/>
      <use x="1178.193359" xlink:href="#DejaVuSans-115"/>
      <use x="1230.292969" xlink:href="#DejaVuSans-105"/>
      <use x="1258.076172" xlink:href="#DejaVuSans-111"/>
      <use x="1319.257812" xlink:href="#DejaVuSans-110"/>
      <use x="1382.636719" xlink:href="#DejaVuSans-41"/>
     </g>
    </g>
   </g>
   <g id="matplotlib.axis_2">
    <g id="ytick_1">
     <g id="line2d_29">
      <path clip-path="url(#p62980b7927)" d="M 57.6 298.944 
L 338.688 298.944 
" style="fill:none;stroke:#b0b0b0;stroke-linecap:square;stroke-width:0.8;"/>
     </g>
     <g id="line2d_30">
      <defs>
       <path d="M 0 0 
L -3.5 0 
" id="mff8fa71c65" style="stroke:#000000;stroke-width:0.8;"/>
      </defs>
      <g>
       <use style="stroke:#000000;stroke-width:0.8;" x="57.6" xlink:href="#mff8fa71c65" y="298.944"/>
      </g>
     </g>
     <g id="text_6">
      <!-- 0.0 -->
      <defs>
       <path d="M 10.6875 12.40625 
L 21 12.40625 
L 21 0 
L 10.6875 0 
z
" id="DejaVuSans-46"/>
      </defs>
      <g transform="translate(25.155 305.02275)scale(0.16 -0.16)">
       <use xlink:href="#DejaVuSans-48"/>
       <use x="63.623047" xlink:href="#DejaVuSans-46"/>
       <use x="95.410156" xlink:href="#DejaVuSans-48"/>
      </g>
     </g>
    </g>
    <g id="ytick_2">
     <g id="line2d_31">
      <path clip-path="url(#p62980b7927)" d="M 57.6 247.959446 
L 338.688 247.959446 
" style="fill:none;stroke:#b0b0b0;stroke-linecap:square;stroke-width:0.8;"/>
     </g>
     <g id="line2d_32">
      <g>
       <use style="stroke:#000000;stroke-width:0.8;" x="57.6" xlink:href="#mff8fa71c65" y="247.959446"/>
      </g>
     </g>
     <g id="text_7">
      <!-- 0.2 -->
      <g transform="translate(25.155 254.038196)scale(0.16 -0.16)">
       <use xlink:href="#DejaVuSans-48"/>
       <use x="63.623047" xlink:href="#DejaVuSans-46"/>
       <use x="95.410156" xlink:href="#DejaVuSans-50"/>
      </g>
     </g>
    </g>
    <g id="ytick_3">
     <g id="line2d_33">
      <path clip-path="url(#p62980b7927)" d="M 57.6 196.974891 
L 338.688 196.974891 
" style="fill:none;stroke:#b0b0b0;stroke-linecap:square;stroke-width:0.8;"/>
     </g>
     <g id="line2d_34">
      <g>
       <use style="stroke:#000000;stroke-width:0.8;" x="57.6" xlink:href="#mff8fa71c65" y="196.974891"/>
      </g>
     </g>
     <g id="text_8">
      <!-- 0.4 -->
      <g transform="translate(25.155 203.053641)scale(0.16 -0.16)">
       <use xlink:href="#DejaVuSans-48"/>
       <use x="63.623047" xlink:href="#DejaVuSans-46"/>
       <use x="95.410156" xlink:href="#DejaVuSans-52"/>
      </g>
     </g>
    </g>
    <g id="ytick_4">
     <g id="line2d_35">
      <path clip-path="url(#p62980b7927)" d="M 57.6 145.990337 
L 338.688 145.990337 
" style="fill:none;stroke:#b0b0b0;stroke-linecap:square;stroke-width:0.8;"/>
     </g>
     <g id="line2d_36">
      <g>
       <use style="stroke:#000000;stroke-width:0.8;" x="57.6" xlink:href="#mff8fa71c65" y="145.990337"/>
      </g>
     </g>
     <g id="text_9">
      <!-- 0.6 -->
      <g transform="translate(25.155 152.069087)scale(0.16 -0.16)">
       <use xlink:href="#DejaVuSans-48"/>
       <use x="63.623047" xlink:href="#DejaVuSans-46"/>
       <use x="95.410156" xlink:href="#DejaVuSans-54"/>
      </g>
     </g>
    </g>
    <g id="ytick_5">
     <g id="line2d_37">
      <path clip-path="url(#p62980b7927)" d="M 57.6 95.005782 
L 338.688 95.005782 
" style="fill:none;stroke:#b0b0b0;stroke-linecap:square;stroke-width:0.8;"/>
     </g>
     <g id="line2d_38">
      <g>
       <use style="stroke:#000000;stroke-width:0.8;" x="57.6" xlink:href="#mff8fa71c65" y="95.005782"/>
      </g>
     </g>
     <g id="text_10">
      <!-- 0.8 -->
      <defs>
       <path d="M 31.78125 34.625 
Q 24.75 34.625 20.71875 30.859375 
Q 16.703125 27.09375 16.703125 20.515625 
Q 16.703125 13.921875 20.71875 10.15625 
Q 24.75 6.390625 31.78125 6.390625 
Q 38.8125 6.390625 42.859375 10.171875 
Q 46.921875 13.96875 46.921875 20.515625 
Q 46.921875 27.09375 42.890625 30.859375 
Q 38.875 34.625 31.78125 34.625 
z
M 21.921875 38.8125 
Q 15.578125 40.375 12.03125 44.71875 
Q 8.5 49.078125 8.5 55.328125 
Q 8.5 64.0625 14.71875 69.140625 
Q 20.953125 74.21875 31.78125 74.21875 
Q 42.671875 74.21875 48.875 69.140625 
Q 55.078125 64.0625 55.078125 55.328125 
Q 55.078125 49.078125 51.53125 44.71875 
Q 48 40.375 41.703125 38.8125 
Q 48.828125 37.15625 52.796875 32.3125 
Q 56.78125 27.484375 56.78125 20.515625 
Q 56.78125 9.90625 50.3125 4.234375 
Q 43.84375 -1.421875 31.78125 -1.421875 
Q 19.734375 -1.421875 13.25 4.234375 
Q 6.78125 9.90625 6.78125 20.515625 
Q 6.78125 27.484375 10.78125 32.3125 
Q 14.796875 37.15625 21.921875 38.8125 
z
M 18.3125 54.390625 
Q 18.3125 48.734375 21.84375 45.5625 
Q 25.390625 42.390625 31.78125 42.390625 
Q 38.140625 42.390625 41.71875 45.5625 
Q 45.3125 48.734375 45.3125 54.390625 
Q 45.3125 60.0625 41.71875 63.234375 
Q 38.140625 66.40625 31.78125 66.40625 
Q 25.390625 66.40625 21.84375 63.234375 
Q 18.3125 60.0625 18.3125 54.390625 
z
" id="DejaVuSans-56"/>
      </defs>
      <g transform="translate(25.155 101.084532)scale(0.16 -0.16)">
       <use xlink:href="#DejaVuSans-48"/>
       <use x="63.623047" xlink:href="#DejaVuSans-46"/>
       <use x="95.410156" xlink:href="#DejaVuSans-56"/>
      </g>
     </g>
    </g>
    <g id="ytick_6">
     <g id="line2d_39">
      <path clip-path="url(#p62980b7927)" d="M 57.6 44.021228 
L 338.688 44.021228 
" style="fill:none;stroke:#b0b0b0;stroke-linecap:square;stroke-width:0.8;"/>
     </g>
     <g id="line2d_40">
      <g>
       <use style="stroke:#000000;stroke-width:0.8;" x="57.6" xlink:href="#mff8fa71c65" y="44.021228"/>
      </g>
     </g>
     <g id="text_11">
      <!-- 1.0 -->
      <g transform="translate(25.155 50.099978)scale(0.16 -0.16)">
       <use xlink:href="#DejaVuSans-49"/>
       <use x="63.623047" xlink:href="#DejaVuSans-46"/>
       <use x="95.410156" xlink:href="#DejaVuSans-48"/>
      </g>
     </g>
    </g>
    <g id="text_12">
     <!-- Fraction of function,target pairs -->
     <defs>
      <path d="M 9.8125 72.90625 
L 51.703125 72.90625 
L 51.703125 64.59375 
L 19.671875 64.59375 
L 19.671875 43.109375 
L 48.578125 43.109375 
L 48.578125 34.8125 
L 19.671875 34.8125 
L 19.671875 0 
L 9.8125 0 
z
" id="DejaVuSans-70"/>
      <path d="M 41.109375 46.296875 
Q 39.59375 47.171875 37.8125 47.578125 
Q 36.03125 48 33.890625 48 
Q 26.265625 48 22.1875 43.046875 
Q 18.109375 38.09375 18.109375 28.8125 
L 18.109375 0 
L 9.078125 0 
L 9.078125 54.6875 
L 18.109375 54.6875 
L 18.109375 46.1875 
Q 20.953125 51.171875 25.484375 53.578125 
Q 30.03125 56 36.53125 56 
Q 37.453125 56 38.578125 55.875 
Q 39.703125 55.765625 41.0625 55.515625 
z
" id="DejaVuSans-114"/>
      <path d="M 48.78125 52.59375 
L 48.78125 44.1875 
Q 44.96875 46.296875 41.140625 47.34375 
Q 37.3125 48.390625 33.40625 48.390625 
Q 24.65625 48.390625 19.8125 42.84375 
Q 14.984375 37.3125 14.984375 27.296875 
Q 14.984375 17.28125 19.8125 11.734375 
Q 24.65625 6.203125 33.40625 6.203125 
Q 37.3125 6.203125 41.140625 7.25 
Q 44.96875 8.296875 48.78125 10.40625 
L 48.78125 2.09375 
Q 45.015625 0.34375 40.984375 -0.53125 
Q 36.96875 -1.421875 32.421875 -1.421875 
Q 20.0625 -1.421875 12.78125 6.34375 
Q 5.515625 14.109375 5.515625 27.296875 
Q 5.515625 40.671875 12.859375 48.328125 
Q 20.21875 56 33.015625 56 
Q 37.15625 56 41.109375 55.140625 
Q 45.0625 54.296875 48.78125 52.59375 
z
" id="DejaVuSans-99"/>
      <path d="M 18.3125 70.21875 
L 18.3125 54.6875 
L 36.8125 54.6875 
L 36.8125 47.703125 
L 18.3125 47.703125 
L 18.3125 18.015625 
Q 18.3125 11.328125 20.140625 9.421875 
Q 21.96875 7.515625 27.59375 7.515625 
L 36.8125 7.515625 
L 36.8125 0 
L 27.59375 0 
Q 17.1875 0 13.234375 3.875 
Q 9.28125 7.765625 9.28125 18.015625 
L 9.28125 47.703125 
L 2.6875 47.703125 
L 2.6875 54.6875 
L 9.28125 54.6875 
L 9.28125 70.21875 
z
" id="DejaVuSans-116"/>
      <path d="M 8.5 21.578125 
L 8.5 54.6875 
L 17.484375 54.6875 
L 17.484375 21.921875 
Q 17.484375 14.15625 20.5 10.265625 
Q 23.53125 6.390625 29.59375 6.390625 
Q 36.859375 6.390625 41.078125 11.03125 
Q 45.3125 15.671875 45.3125 23.6875 
L 45.3125 54.6875 
L 54.296875 54.6875 
L 54.296875 0 
L 45.3125 0 
L 45.3125 8.40625 
Q 42.046875 3.421875 37.71875 1 
Q 33.40625 -1.421875 27.6875 -1.421875 
Q 18.265625 -1.421875 13.375 4.4375 
Q 8.5 10.296875 8.5 21.578125 
z
M 31.109375 56 
z
" id="DejaVuSans-117"/>
      <path d="M 11.71875 12.40625 
L 22.015625 12.40625 
L 22.015625 4 
L 14.015625 -11.625 
L 7.71875 -11.625 
L 11.71875 4 
z
" id="DejaVuSans-44"/>
      <path d="M 18.109375 8.203125 
L 18.109375 -20.796875 
L 9.078125 -20.796875 
L 9.078125 54.6875 
L 18.109375 54.6875 
L 18.109375 46.390625 
Q 20.953125 51.265625 25.265625 53.625 
Q 29.59375 56 35.59375 56 
Q 45.5625 56 51.78125 48.09375 
Q 58.015625 40.1875 58.015625 27.296875 
Q 58.015625 14.40625 51.78125 6.484375 
Q 45.5625 -1.421875 35.59375 -1.421875 
Q 29.59375 -1.421875 25.265625 0.953125 
Q 20.953125 3.328125 18.109375 8.203125 
z
M 48.6875 27.296875 
Q 48.6875 37.203125 44.609375 42.84375 
Q 40.53125 48.484375 33.40625 48.484375 
Q 26.265625 48.484375 22.1875 42.84375 
Q 18.109375 37.203125 18.109375 27.296875 
Q 18.109375 17.390625 22.1875 11.75 
Q 26.265625 6.109375 33.40625 6.109375 
Q 40.53125 6.109375 44.609375 11.75 
Q 48.6875 17.390625 48.6875 27.296875 
z
" id="DejaVuSans-112"/>
     </defs>
     <g transform="translate(17.619531 305.347375)rotate(-90)scale(0.17 -0.17)">
      <use xlink:href="#DejaVuSans-70"/>
      <use x="57.410156" xlink:href="#DejaVuSans-114"/>
      <use x="98.523438" xlink:href="#DejaVuSans-97"/>
      <use x="159.802734" xlink:href="#DejaVuSans-99"/>
      <use x="214.783203" xlink:href="#DejaVuSans-116"/>
      <use x="253.992188" xlink:href="#DejaVuSans-105"/>
      <use x="281.775391" xlink:href="#DejaVuSans-111"/>
      <use x="342.957031" xlink:href="#DejaVuSans-110"/>
      <use x="406.335938" xlink:href="#DejaVuSans-32"/>
      <use x="438.123047" xlink:href="#DejaVuSans-111"/>
      <use x="499.304688" xlink:href="#DejaVuSans-102"/>
      <use x="534.509766" xlink:href="#DejaVuSans-32"/>
      <use x="566.296875" xlink:href="#DejaVuSans-102"/>
      <use x="601.501953" xlink:href="#DejaVuSans-117"/>
      <use x="664.880859" xlink:href="#DejaVuSans-110"/>
      <use x="728.259766" xlink:href="#DejaVuSans-99"/>
      <use x="783.240234" xlink:href="#DejaVuSans-116"/>
      <use x="822.449219" xlink:href="#DejaVuSans-105"/>
      <use x="850.232422" xlink:href="#DejaVuSans-111"/>
      <use x="911.414062" xlink:href="#DejaVuSans-110"/>
      <use x="974.792969" xlink:href="#DejaVuSans-44"/>
      <use x="1006.580078" xlink:href="#DejaVuSans-116"/>
      <use x="1045.789062" xlink:href="#DejaVuSans-97"/>
      <use x="1107.068359" xlink:href="#DejaVuSans-114"/>
      <use x="1148.166016" xlink:href="#DejaVuSans-103"/>
      <use x="1211.642578" xlink:href="#DejaVuSans-101"/>
      <use x="1273.166016" xlink:href="#DejaVuSans-116"/>
      <use x="1312.375" xlink:href="#DejaVuSans-32"/>
      <use x="1344.162109" xlink:href="#DejaVuSans-112"/>
      <use x="1407.638672" xlink:href="#DejaVuSans-97"/>
      <use x="1468.917969" xlink:href="#DejaVuSans-105"/>
      <use x="1496.701172" xlink:href="#DejaVuSans-114"/>
      <use x="1537.814453" xlink:href="#DejaVuSans-115"/>
     </g>
    </g>
   </g>
   <g id="line2d_41">
    <defs>
     <path d="M 0 1.5 
C 0.397805 1.5 0.77937 1.341951 1.06066 1.06066 
C 1.341951 0.77937 1.5 0.397805 1.5 0 
C 1.5 -0.397805 1.341951 -0.77937 1.06066 -1.06066 
C 0.77937 -1.341951 0.397805 -1.5 0 -1.5 
C -0.397805 -1.5 -0.77937 -1.341951 -1.06066 -1.06066 
C -1.341951 -0.77937 -1.5 -0.397805 -1.5 0 
C -1.5 0.397805 -1.341951 0.77937 -1.06066 1.06066 
C -0.77937 1.341951 -0.397805 1.5 0 1.5 
z
" id="mc1f287050d" style="stroke:#f5deb3;"/>
    </defs>
    <g>
     <use style="fill:#f5deb3;stroke:#f5deb3;" x="256.58714" xlink:href="#mc1f287050d" y="74.787769"/>
     <use style="fill:#f5deb3;stroke:#f5deb3;" x="256.58714" xlink:href="#mc1f287050d" y="74.787769"/>
    </g>
   </g>
   <g id="line2d_42">
    <defs>
     <path d="M 0 1.5 
C 0.397805 1.5 0.77937 1.341951 1.06066 1.06066 
C 1.341951 0.77937 1.5 0.397805 1.5 0 
C 1.5 -0.397805 1.341951 -0.77937 1.06066 -1.06066 
C 0.77937 -1.341951 0.397805 -1.5 0 -1.5 
C -0.397805 -1.5 -0.77937 -1.341951 -1.06066 -1.06066 
C -1.341951 -0.77937 -1.5 -0.397805 -1.5 0 
C -1.5 0.397805 -1.341951 0.77937 -1.06066 1.06066 
C -0.77937 1.341951 -0.397805 1.5 0 1.5 
z
" id="m1fcca167fe" style="stroke:#000080;"/>
    </defs>
    <g>
     <use style="fill:#000080;stroke:#000080;" x="244.895592" xlink:href="#m1fcca167fe" y="99.401002"/>
     <use style="fill:#000080;stroke:#000080;" x="244.895592" xlink:href="#m1fcca167fe" y="99.401002"/>
    </g>
   </g>
   <g id="line2d_43">
    <path d="M 45.512012 298.944 
L 45.512012 287.955949 
L 152.360205 287.955949 
L 152.360205 287.516427 
L 152.511852 287.516427 
L 152.549559 286.197861 
L 152.624728 286.197861 
L 152.699575 284.879295 
L 152.774102 284.879295 
L 152.811246 282.681685 
L 152.885298 282.681685 
L 152.959038 281.363119 
L 153.105587 281.363119 
L 153.178403 280.044553 
L 153.250915 280.044553 
L 153.359122 275.649333 
L 153.430889 275.649333 
L 153.537988 273.451723 
L 153.573542 273.451723 
L 153.679772 269.496025 
L 153.750233 269.496025 
L 153.820412 265.979848 
L 153.890309 265.979848 
L 153.959927 265.100804 
L 154.029268 265.100804 
L 154.132765 262.903194 
L 154.269814 262.903194 
L 154.269814 261.145106 
L 154.405793 261.145106 
L 154.473387 260.266062 
L 154.54072 260.266062 
L 154.641235 258.507974 
L 154.77436 258.507974 
L 154.873541 257.62893 
L 155.004911 257.62893 
L 155.102793 256.749886 
L 155.264719 256.749886 
L 155.329071 253.23371 
L 155.393186 253.23371 
L 155.393186 252.354666 
L 155.520713 252.354666 
L 155.520713 251.475622 
L 155.647315 251.475622 
L 155.741666 247.959446 
L 155.83551 247.959446 
L 155.86668 246.640879 
L 155.959855 246.640879 
L 155.959855 245.761835 
L 156.114049 245.761835 
L 156.175347 244.003747 
L 156.266892 244.003747 
L 156.297301 243.124703 
L 156.38821 243.124703 
L 156.448553 240.927093 
L 156.538679 240.927093 
L 156.598505 239.608527 
L 156.658127 239.608527 
L 156.687861 237.850439 
L 156.894595 237.850439 
L 156.953214 235.652829 
L 157.040776 235.652829 
L 157.098907 233.894741 
L 157.415209 233.894741 
L 157.415209 233.015697 
L 157.697862 233.015697 
L 157.697862 232.136653 
L 157.893028 232.136653 
L 158.003578 229.939043 
L 158.031107 229.939043 
L 158.031107 229.499521 
L 158.168101 229.499521 
L 158.168101 228.180955 
L 158.492562 228.180955 
L 158.599388 226.862389 
L 158.75841 226.862389 
L 158.83738 224.225256 
L 159.072168 224.225256 
L 159.175513 221.588124 
L 159.405822 221.588124 
L 159.431225 219.830036 
L 159.708245 219.830036 
L 159.807898 218.51147 
L 160.127894 218.51147 
L 160.127894 217.632426 
L 160.273627 217.632426 
L 160.273627 217.192904 
L 160.466062 217.192904 
L 160.466062 216.753382 
L 160.821253 216.753382 
L 160.821253 215.434816 
L 161.146363 215.434816 
L 161.169354 214.11625 
L 162.043181 214.11625 
L 162.10862 212.358162 
L 162.173813 212.358162 
L 162.281931 210.160552 
L 162.303474 210.160552 
L 162.389382 208.402464 
L 162.665696 208.402464 
L 162.665696 207.962942 
L 162.791763 207.962942 
L 162.875305 206.644376 
L 162.999872 206.644376 
L 163.020547 205.325809 
L 163.225959 205.325809 
L 163.287113 203.567721 
L 164.102088 203.567721 
L 164.102088 203.128199 
L 164.218222 203.128199 
L 164.218222 202.249155 
L 164.580957 202.249155 
L 164.580957 201.809633 
L 164.75018 201.809633 
L 164.75018 201.370111 
L 164.973287 201.370111 
L 165.065412 199.172501 
L 165.102127 199.172501 
L 165.102127 198.293457 
L 165.230021 198.293457 
L 165.284547 197.414413 
L 165.46508 197.414413 
L 165.46508 196.535369 
L 165.697012 196.535369 
L 165.785402 195.656325 
L 165.855793 195.656325 
L 165.855793 195.216803 
L 165.978297 195.216803 
L 166.030537 194.337759 
L 166.237944 194.337759 
L 166.289413 192.140149 
L 166.476842 192.140149 
L 166.476842 191.261105 
L 166.679039 191.261105 
L 166.679039 190.821583 
L 167.43311 190.821583 
L 167.43311 190.382061 
L 167.545055 190.382061 
L 167.576907 188.623973 
L 167.782543 188.623973 
L 167.782543 188.184451 
L 168.063324 188.184451 
L 168.063324 187.305407 
L 168.232714 187.305407 
L 168.278627 186.426363 
L 168.445948 186.426363 
L 168.521475 185.107797 
L 168.581663 185.107797 
L 168.581663 184.228752 
L 168.731229 184.228752 
L 168.820356 182.470664 
L 168.967898 182.470664 
L 168.967898 182.031142 
L 169.128764 182.031142 
L 169.128764 181.59162 
L 169.360135 181.59162 
L 169.403177 180.712576 
L 169.616809 180.712576 
L 169.616809 180.273054 
L 169.799863 180.273054 
L 169.799863 179.833532 
L 170.567151 179.833532 
L 170.674059 177.635922 
L 170.780315 177.635922 
L 170.780315 177.1964 
L 171.595202 177.1964 
L 171.595202 176.756878 
L 171.808721 176.756878 
L 171.808721 176.317356 
L 172.385786 176.317356 
L 172.385786 175.438312 
L 172.768032 175.438312 
L 172.768032 174.99879 
L 172.885786 174.99879 
L 172.885786 174.559268 
L 173.744474 174.559268 
L 173.744474 174.119746 
L 173.889107 174.119746 
L 173.889107 173.680224 
L 174.261802 173.680224 
L 174.261802 173.240702 
L 174.952873 173.240702 
L 174.952873 172.80118 
L 175.527057 172.80118 
L 175.527057 172.361658 
L 175.93577 172.361658 
L 175.93577 171.922136 
L 176.536182 171.922136 
L 176.545699 170.60357 
L 176.734949 170.60357 
L 176.734949 170.164048 
L 176.866214 170.164048 
L 176.950079 168.40596 
L 177.372536 168.40596 
L 177.408792 167.526916 
L 178.144586 167.526916 
L 178.179274 165.768828 
L 178.950337 165.768828 
L 178.950337 165.329306 
L 179.295031 165.329306 
L 179.295031 164.450262 
L 179.601132 164.450262 
L 179.601132 164.01074 
L 179.941152 164.01074 
L 179.941152 163.131695 
L 180.189955 163.131695 
L 180.189955 162.692173 
L 180.313038 162.692173 
L 180.313038 161.813129 
L 181.397773 161.813129 
L 181.397773 161.373607 
L 181.824704 161.373607 
L 181.901854 160.494563 
L 182.034313 160.494563 
L 182.145083 159.615519 
L 182.364534 159.615519 
L 182.364534 159.175997 
L 182.500302 159.175997 
L 182.500302 158.736475 
L 182.907984 158.736475 
L 182.940981 157.417909 
L 183.41577 157.417909 
L 183.41577 156.978387 
L 184.582131 156.978387 
L 184.665945 155.659821 
L 185.310832 155.659821 
L 185.316587 154.780777 
L 185.528183 154.780777 
L 185.528183 154.341255 
L 186.142502 154.341255 
L 186.142502 153.901733 
L 187.113676 153.901733 
L 187.113676 153.462211 
L 187.417244 153.462211 
L 187.417244 153.022689 
L 188.180693 153.022689 
L 188.180693 152.583167 
L 188.360406 152.583167 
L 188.413479 151.704123 
L 188.96354 151.704123 
L 188.96354 151.264601 
L 190.097504 151.264601 
L 190.128096 149.946035 
L 190.219549 149.946035 
L 190.219549 149.506513 
L 191.236127 149.506513 
L 191.236127 149.066991 
L 191.520624 149.066991 
L 191.520624 148.627469 
L 191.919162 148.627469 
L 191.950655 146.869381 
L 192.821362 146.869381 
L 192.828844 145.990337 
L 192.992629 145.990337 
L 192.992629 145.550815 
L 194.080581 145.550815 
L 194.080581 144.671771 
L 194.229621 144.671771 
L 194.229621 144.232249 
L 194.883311 144.232249 
L 194.883311 143.792727 
L 195.032266 143.792727 
L 195.032266 143.353205 
L 195.355558 143.353205 
L 195.355558 142.913682 
L 195.771179 142.913682 
L 195.771179 142.47416 
L 196.170951 142.47416 
L 196.170951 141.595116 
L 197.14664 141.595116 
L 197.21948 139.837028 
L 197.303595 139.837028 
L 197.303595 138.957984 
L 198.386187 138.957984 
L 198.386187 138.518462 
L 198.51893 138.518462 
L 198.51893 138.07894 
L 198.752154 138.07894 
L 198.752154 137.639418 
L 199.10016 137.639418 
L 199.10016 137.199896 
L 199.348964 137.199896 
L 199.348964 136.320852 
L 199.545991 136.320852 
L 199.545991 135.88133 
L 200.894449 135.88133 
L 200.894449 135.441808 
L 201.666071 135.441808 
L 201.666071 135.002286 
L 201.885493 135.002286 
L 201.885493 134.562764 
L 202.534095 134.562764 
L 202.534095 133.68372 
L 202.980657 133.68372 
L 202.980657 133.244198 
L 203.757135 133.244198 
L 203.757135 132.804676 
L 205.822286 132.804676 
L 205.824061 131.48611 
L 206.340028 131.48611 
L 206.340028 131.046588 
L 207.42898 131.046588 
L 207.42898 130.167544 
L 207.912793 130.167544 
L 207.912793 129.728022 
L 208.269743 129.728022 
L 208.269743 129.2885 
L 208.78659 129.2885 
L 208.822501 127.969934 
L 209.931463 127.969934 
L 209.931463 127.09089 
L 210.065601 127.09089 
L 210.065601 126.651368 
L 211.288356 126.651368 
L 211.288356 126.211846 
L 211.584293 126.211846 
L 211.584293 125.332802 
L 211.925408 125.332802 
L 211.925408 124.89328 
L 213.304445 124.89328 
L 213.304445 124.453758 
L 213.782201 124.453758 
L 213.782201 123.574714 
L 215.390578 123.574714 
L 215.390578 122.69567 
L 215.704662 122.69567 
L 215.704662 122.256147 
L 216.093169 122.256147 
L 216.093169 121.816625 
L 216.430745 121.816625 
L 216.430745 121.377103 
L 218.827547 121.377103 
L 218.827547 120.498059 
L 219.115709 120.498059 
L 219.115709 119.619015 
L 219.346947 119.619015 
L 219.346947 118.739971 
L 219.789269 118.739971 
L 219.789269 118.300449 
L 220.106757 118.300449 
L 220.106757 117.860927 
L 221.288277 117.860927 
L 221.288277 116.981883 
L 221.64731 116.981883 
L 221.64731 116.542361 
L 222.120849 116.542361 
L 222.120849 115.663317 
L 222.271503 115.663317 
L 222.271503 115.223795 
L 223.253935 115.223795 
L 223.253935 114.784273 
L 224.095775 114.784273 
L 224.095775 114.344751 
L 224.70332 114.344751 
L 224.720748 113.026185 
L 225.080432 113.026185 
L 225.080432 112.586663 
L 226.437303 112.586663 
L 226.437303 112.147141 
L 227.654094 112.147141 
L 227.680474 111.268097 
L 227.851983 111.268097 
L 227.851983 110.389053 
L 228.417465 110.389053 
L 228.417465 109.510009 
L 230.364985 109.510009 
L 230.364985 109.070487 
L 231.038482 109.070487 
L 231.059794 108.191443 
L 232.133986 108.191443 
L 232.133986 107.312399 
L 235.699883 107.312399 
L 235.749422 105.993833 
L 236.482533 105.993833 
L 236.482533 105.114789 
L 236.759109 105.114789 
L 236.759109 104.235745 
L 237.45063 104.235745 
L 237.45063 103.356701 
L 237.965488 103.356701 
L 237.965488 102.917179 
L 239.035464 102.917179 
L 239.035464 102.477657 
L 239.708288 102.477657 
L 239.708288 102.038135 
L 240.059779 102.038135 
L 240.073982 101.15909 
L 242.498113 101.15909 
L 242.498113 100.280046 
L 244.895592 100.280046 
L 244.895592 99.401002 
L 338.688 99.401002 
L 338.688 99.401002 
" style="fill:none;stroke:#000080;stroke-linecap:square;stroke-width:1.5;"/>
   </g>
   <g id="line2d_44">
    <defs>
     <path d="M 0 6 
C 1.591219 6 3.117479 5.367802 4.242641 4.242641 
C 5.367802 3.117479 6 1.591219 6 0 
C 6 -1.591219 5.367802 -3.117479 4.242641 -4.242641 
C 3.117479 -5.367802 1.591219 -6 0 -6 
C -1.591219 -6 -3.117479 -5.367802 -4.242641 -4.242641 
C -5.367802 -3.117479 -6 -1.591219 -6 0 
C -6 1.591219 -5.367802 3.117479 -4.242641 4.242641 
C -3.117479 5.367802 -1.591219 6 0 6 
z
" id="mcd2e458229" style="stroke:#000080;stroke-width:1.5;"/>
    </defs>
    <g>
     <use style="fill-opacity:0;stroke:#000080;stroke-width:1.5;" x="152.662192" xlink:href="#mcd2e458229" y="285.318817"/>
     <use style="fill-opacity:0;stroke:#000080;stroke-width:1.5;" x="182.940981" xlink:href="#mcd2e458229" y="157.857431"/>
     <use style="fill-opacity:0;stroke:#000080;stroke-width:1.5;" x="242.498113" xlink:href="#mcd2e458229" y="101.15909"/>
     <use style="fill-opacity:0;stroke:#000080;stroke-width:1.5;" x="244.895592" xlink:href="#mcd2e458229" y="99.401002"/>
     <use style="fill-opacity:0;stroke:#000080;stroke-width:1.5;" x="244.895592" xlink:href="#mcd2e458229" y="99.401002"/>
     <use style="fill-opacity:0;stroke:#000080;stroke-width:1.5;" x="338.688" xlink:href="#mcd2e458229" y="99.401002"/>
    </g>
   </g>
   <g id="line2d_45">
    <path style="fill:none;stroke:#000080;stroke-linecap:square;stroke-width:1.5;"/>
    <g/>
   </g>
   <g id="line2d_46">
    <path clip-path="url(#p62980b7927)" d="M 228.988246 109.510009 
" style="fill:none;stroke:#000080;stroke-linecap:square;stroke-width:1.5;"/>
    <defs>
     <path d="M -12 12 
L 12 -12 
M -12 -12 
L 12 12 
" id="m41970dfaf4" style="stroke:#000080;"/>
    </defs>
    <g clip-path="url(#p62980b7927)">
     <use style="fill:#000080;stroke:#000080;" x="228.988246" xlink:href="#m41970dfaf4" y="109.510009"/>
    </g>
   </g>
   <g id="line2d_47">
    <defs>
     <path d="M 0 1.5 
C 0.397805 1.5 0.77937 1.341951 1.06066 1.06066 
C 1.341951 0.77937 1.5 0.397805 1.5 0 
C 1.5 -0.397805 1.341951 -0.77937 1.06066 -1.06066 
C 0.77937 -1.341951 0.397805 -1.5 0 -1.5 
C -0.397805 -1.5 -0.77937 -1.341951 -1.06066 -1.06066 
C -1.341951 -0.77937 -1.5 -0.397805 -1.5 0 
C -1.5 0.397805 -1.341951 0.77937 -1.06066 1.06066 
C -0.77937 1.341951 -0.397805 1.5 0 1.5 
z
" id="m9c32f77291" style="stroke:#ff00ff;"/>
    </defs>
    <g>
     <use style="fill:#ff00ff;stroke:#ff00ff;" x="257.45001" xlink:href="#m9c32f77291" y="124.014236"/>
     <use style="fill:#ff00ff;stroke:#ff00ff;" x="257.45001" xlink:href="#m9c32f77291" y="124.014236"/>
    </g>
   </g>
   <g id="line2d_48">
    <path d="M 45.512012 298.944 
L 45.512012 287.516427 
L 122.782271 287.516427 
L 122.782271 287.076905 
L 124.178158 287.076905 
L 124.178158 286.637383 
L 140.79731 286.637383 
L 140.79731 286.197861 
L 142.949611 286.197861 
L 142.949611 284.439773 
L 143.902815 284.439773 
L 143.964547 283.560729 
L 144.026061 283.560729 
L 144.026061 281.802641 
L 145.327221 281.802641 
L 145.327221 280.044553 
L 145.609873 280.044553 
L 145.609873 278.725987 
L 146.591092 278.725987 
L 146.591092 276.967899 
L 146.749392 276.967899 
L 146.749392 276.528377 
L 147.368603 276.528377 
L 147.368603 274.770289 
L 149.467659 274.770289 
L 149.557321 273.891245 
L 150.344189 273.891245 
L 150.429467 272.133157 
L 150.640855 272.133157 
L 150.724698 271.254113 
L 151.381313 271.254113 
L 151.421542 269.056503 
L 152.052897 269.056503 
L 152.052897 268.616981 
L 152.168773 268.616981 
L 152.168773 267.298414 
L 152.549559 267.298414 
L 152.549559 266.858892 
L 153.323128 266.858892 
L 153.323128 265.979848 
L 154.029268 265.979848 
L 154.029268 265.100804 
L 154.167129 265.100804 
L 154.235652 263.782238 
L 154.371897 263.782238 
L 154.405793 261.584628 
L 154.641235 261.584628 
L 154.707925 259.82654 
L 155.135299 259.82654 
L 155.232454 257.189408 
L 155.329071 257.189408 
L 155.393186 255.43132 
L 155.55245 255.43132 
L 155.55245 254.552276 
L 155.83551 254.552276 
L 155.86668 252.354666 
L 156.021696 252.354666 
L 156.083319 251.0361 
L 156.297301 251.0361 
L 156.297301 250.157056 
L 156.568618 250.157056 
L 156.658127 249.278012 
L 156.835778 249.278012 
L 156.835778 248.83849 
L 157.300853 248.83849 
L 157.38669 245.761835 
L 157.500487 245.761835 
L 157.500487 245.322313 
L 157.697862 245.322313 
L 157.697862 244.882791 
L 157.920731 244.882791 
L 157.976006 243.564225 
L 158.385078 243.564225 
L 158.438903 241.806137 
L 158.546057 241.806137 
L 158.546057 241.366615 
L 158.705563 241.366615 
L 158.705563 240.927093 
L 158.889829 240.927093 
L 158.889829 240.048049 
L 159.098062 240.048049 
L 159.098062 239.169005 
L 159.226956 239.169005 
L 159.226956 238.289961 
L 159.354904 238.289961 
L 159.354904 237.850439 
L 159.557689 237.850439 
L 159.582872 236.092351 
L 160.005512 236.092351 
L 160.005512 235.213307 
L 160.394148 235.213307 
L 160.418152 233.894741 
L 160.537682 233.894741 
L 160.537682 233.015697 
L 160.680044 233.015697 
L 160.774311 229.059999 
L 160.821253 229.059999 
L 160.891432 227.301911 
L 161.007772 227.301911 
L 161.007772 226.422867 
L 161.352206 226.422867 
L 161.352206 225.983344 
L 161.465522 225.983344 
L 161.465522 225.1043 
L 161.600536 225.1043 
L 161.600536 224.664778 
L 161.823263 224.664778 
L 161.823263 224.225256 
L 162.173813 224.225256 
L 162.281931 222.90669 
L 162.324991 222.90669 
L 162.410793 220.70908 
L 162.474869 220.70908 
L 162.581141 218.950992 
L 162.68677 218.950992 
L 162.770815 217.192904 
L 162.979172 217.192904 
L 162.979172 216.753382 
L 163.123555 216.753382 
L 163.123555 215.874338 
L 163.287113 215.874338 
L 163.388564 214.555772 
L 164.140886 214.555772 
L 164.237502 213.237206 
L 164.448194 213.237206 
L 164.448194 212.358162 
L 164.712717 212.358162 
L 164.712717 211.91864 
L 164.824867 211.91864 
L 164.824867 211.039596 
L 164.954803 211.039596 
L 164.954803 210.160552 
L 165.248216 210.160552 
L 165.248216 209.72103 
L 165.55465 209.72103 
L 165.55465 208.841986 
L 165.697012 208.841986 
L 165.697012 207.962942 
L 166.134549 207.962942 
L 166.203547 204.886287 
L 166.425924 204.886287 
L 166.425924 204.446765 
L 166.729224 204.446765 
L 166.729224 204.007243 
L 167.320442 204.007243 
L 167.320442 203.128199 
L 167.529106 203.128199 
L 167.529106 202.688677 
L 167.735303 202.688677 
L 167.735303 202.249155 
L 167.87664 202.249155 
L 167.87664 201.370111 
L 168.001318 201.370111 
L 168.032349 199.612023 
L 168.155922 199.612023 
L 168.155922 198.732979 
L 168.671556 198.732979 
L 168.671556 198.293457 
L 168.909031 198.293457 
L 168.923766 196.974891 
L 169.488944 196.974891 
L 169.488944 196.535369 
L 169.78585 196.535369 
L 169.78585 196.095847 
L 170.28336 196.095847 
L 170.28336 195.216803 
L 170.473066 195.216803 
L 170.473066 194.337759 
L 170.634045 194.337759 
L 170.687376 193.458715 
L 170.753812 193.458715 
L 170.753812 193.019193 
L 171.069226 193.019193 
L 171.069226 192.579671 
L 171.18605 192.579671 
L 171.18605 192.140149 
L 171.46837 192.140149 
L 171.46837 191.700627 
L 172.506141 191.700627 
L 172.589897 190.821583 
L 172.768032 190.821583 
L 172.874047 189.503017 
L 173.889107 189.503017 
L 173.977519 187.744929 
L 174.647927 187.744929 
L 174.647927 186.865885 
L 176.545699 186.865885 
L 176.621646 185.986841 
L 176.725536 185.986841 
L 176.725536 185.547319 
L 177.272441 185.547319 
L 177.327109 184.228752 
L 177.606866 184.228752 
L 177.606866 183.78923 
L 180.374256 183.78923 
L 180.404784 182.470664 
L 180.616999 182.470664 
L 180.616999 182.031142 
L 180.967511 182.031142 
L 181.048539 180.712576 
L 182.124367 180.712576 
L 182.124367 180.273054 
L 182.500302 180.273054 
L 182.500302 179.833532 
L 183.364365 179.833532 
L 183.383659 178.514966 
L 183.746262 178.514966 
L 183.746262 178.075444 
L 185.613239 178.075444 
L 185.613239 177.1964 
L 186.403933 177.1964 
L 186.403933 176.756878 
L 187.503741 176.756878 
L 187.610002 175.438312 
L 187.715618 175.438312 
L 187.775685 174.119746 
L 188.068039 174.119746 
L 188.170926 172.80118 
L 188.690678 172.80118 
L 188.690678 172.361658 
L 191.681134 172.361658 
L 191.681134 171.922136 
L 192.103375 171.922136 
L 192.103375 171.482614 
L 193.366499 171.482614 
L 193.366499 171.043092 
L 193.554059 171.043092 
L 193.554059 170.60357 
L 194.222717 170.60357 
L 194.222717 170.164048 
L 194.404753 170.164048 
L 194.404753 169.724526 
L 195.818504 169.724526 
L 195.818504 169.285004 
L 196.229518 169.285004 
L 196.229518 168.845482 
L 197.277534 168.845482 
L 197.277534 168.40596 
L 197.791499 168.40596 
L 197.791499 167.526916 
L 198.712165 167.526916 
L 198.712165 167.087394 
L 200.200197 167.087394 
L 200.200197 166.20835 
L 200.852006 166.20835 
L 200.852006 165.768828 
L 201.234943 165.768828 
L 201.234943 164.889784 
L 202.287981 164.889784 
L 202.287981 164.01074 
L 203.239912 164.01074 
L 203.239912 163.571217 
L 205.562941 163.571217 
L 205.562941 163.131695 
L 206.623795 163.131695 
L 206.623795 162.692173 
L 207.186051 162.692173 
L 207.186051 162.252651 
L 207.333191 162.252651 
L 207.333191 161.813129 
L 208.759608 161.813129 
L 208.759608 161.373607 
L 209.789216 161.373607 
L 209.84428 160.494563 
L 211.325948 160.494563 
L 211.325948 160.055041 
L 211.740518 160.055041 
L 211.740518 159.615519 
L 212.08482 159.615519 
L 212.08482 158.736475 
L 212.44433 158.736475 
L 212.44433 158.296953 
L 212.872581 158.296953 
L 212.872581 157.857431 
L 213.540968 157.857431 
L 213.540968 156.978387 
L 214.147272 156.978387 
L 214.147272 156.099343 
L 215.581329 156.099343 
L 215.581329 155.220299 
L 215.870088 155.220299 
L 215.870088 154.341255 
L 216.456815 154.341255 
L 216.456815 153.901733 
L 217.269275 153.901733 
L 217.269275 153.462211 
L 217.749756 153.462211 
L 217.749756 153.022689 
L 217.924472 153.022689 
L 217.924472 152.583167 
L 218.32257 152.583167 
L 218.32257 152.143645 
L 218.489091 152.143645 
L 218.489091 151.704123 
L 221.061551 151.704123 
L 221.061551 151.264601 
L 221.834019 151.264601 
L 221.834019 150.825079 
L 222.154286 150.825079 
L 222.154286 150.385557 
L 224.121905 150.385557 
L 224.121905 149.506513 
L 224.506188 149.506513 
L 224.589909 148.627469 
L 225.29099 148.627469 
L 225.29099 148.187947 
L 225.434577 148.187947 
L 225.434577 147.748425 
L 226.088704 147.748425 
L 226.088704 147.308903 
L 227.7997 147.308903 
L 227.7997 146.869381 
L 228.239185 146.869381 
L 228.239185 146.429859 
L 228.66068 146.429859 
L 228.66068 145.990337 
L 230.012904 145.990337 
L 230.012904 145.111293 
L 230.188955 145.111293 
L 230.188955 144.232249 
L 231.717123 144.232249 
L 231.717123 143.353205 
L 232.613853 143.353205 
L 232.613853 142.913682 
L 233.266951 142.913682 
L 233.266951 142.034638 
L 234.696999 142.034638 
L 234.696999 141.595116 
L 236.046563 141.595116 
L 236.156348 140.716072 
L 237.269923 140.716072 
L 237.269923 140.27655 
L 237.391183 140.27655 
L 237.391183 139.837028 
L 238.21885 139.837028 
L 238.21885 138.957984 
L 239.31188 138.957984 
L 239.410989 138.07894 
L 240.876153 138.07894 
L 240.876153 137.639418 
L 241.973597 137.639418 
L 241.973597 137.199896 
L 243.168443 137.199896 
L 243.270342 136.320852 
L 243.909166 136.320852 
L 244.00505 134.562764 
L 245.007815 134.562764 
L 245.007815 133.68372 
L 245.135165 133.68372 
L 245.135165 132.804676 
L 246.118111 132.804676 
L 246.118111 131.925632 
L 246.992409 131.925632 
L 246.992409 131.48611 
L 248.124822 131.48611 
L 248.124822 131.046588 
L 249.112534 131.046588 
L 249.112534 130.607066 
L 250.035197 130.607066 
L 250.035197 130.167544 
L 250.663563 130.167544 
L 250.663563 129.728022 
L 252.58761 129.728022 
L 252.58761 129.2885 
L 253.418324 129.2885 
L 253.418324 128.409456 
L 255.892195 128.409456 
L 255.892195 127.530412 
L 256.428541 127.530412 
L 256.428541 126.651368 
L 256.752926 126.651368 
L 256.798232 125.772324 
L 256.88574 125.772324 
L 256.88574 125.332802 
L 257.005951 125.332802 
L 257.005951 124.89328 
L 257.45001 124.89328 
L 257.45001 124.014236 
L 338.688 124.014236 
L 338.688 124.014236 
" style="fill:none;stroke:#ff00ff;stroke-linecap:square;stroke-width:1.5;"/>
   </g>
   <g id="line2d_49">
    <defs>
     <path d="M 0 8.485281 
L 5.091169 0 
L 0 -8.485281 
L -5.091169 0 
z
" id="m25fab782be" style="stroke:#ff00ff;stroke-linejoin:miter;stroke-width:1.5;"/>
    </defs>
    <g>
     <use style="fill-opacity:0;stroke:#ff00ff;stroke-linejoin:miter;stroke-width:1.5;" x="144.026061" xlink:href="#m25fab782be" y="283.560729"/>
     <use style="fill-opacity:0;stroke:#ff00ff;stroke-linejoin:miter;stroke-width:1.5;" x="173.889107" xlink:href="#m25fab782be" y="189.503017"/>
     <use style="fill-opacity:0;stroke:#ff00ff;stroke-linejoin:miter;stroke-width:1.5;" x="233.266951" xlink:href="#m25fab782be" y="142.034638"/>
     <use style="fill-opacity:0;stroke:#ff00ff;stroke-linejoin:miter;stroke-width:1.5;" x="257.45001" xlink:href="#m25fab782be" y="124.89328"/>
     <use style="fill-opacity:0;stroke:#ff00ff;stroke-linejoin:miter;stroke-width:1.5;" x="257.45001" xlink:href="#m25fab782be" y="124.014236"/>
     <use style="fill-opacity:0;stroke:#ff00ff;stroke-linejoin:miter;stroke-width:1.5;" x="338.688" xlink:href="#m25fab782be" y="124.014236"/>
    </g>
   </g>
   <g id="line2d_50">
    <path style="fill:none;stroke:#ff00ff;stroke-linecap:square;stroke-width:1.5;"/>
    <g/>
   </g>
   <g id="line2d_51">
    <path clip-path="url(#p62980b7927)" d="M 258.386993 124.014236 
" style="fill:none;stroke:#ff00ff;stroke-linecap:square;stroke-width:1.5;"/>
    <defs>
     <path d="M -12 12 
L 12 -12 
M -12 -12 
L 12 12 
" id="m3173a5f24f" style="stroke:#ff00ff;"/>
    </defs>
    <g clip-path="url(#p62980b7927)">
     <use style="fill:#ff00ff;stroke:#ff00ff;" x="258.386993" xlink:href="#m3173a5f24f" y="124.014236"/>
    </g>
   </g>
   <g id="line2d_52">
    <defs>
     <path d="M 0 1.5 
C 0.397805 1.5 0.77937 1.341951 1.06066 1.06066 
C 1.341951 0.77937 1.5 0.397805 1.5 0 
C 1.5 -0.397805 1.341951 -0.77937 1.06066 -1.06066 
C 0.77937 -1.341951 0.397805 -1.5 0 -1.5 
C -0.397805 -1.5 -0.77937 -1.341951 -1.06066 -1.06066 
C -1.341951 -0.77937 -1.5 -0.397805 -1.5 0 
C -1.5 0.397805 -1.341951 0.77937 -1.06066 1.06066 
C -0.77937 1.341951 -0.397805 1.5 0 1.5 
z
" id="m313214be0e" style="stroke:#ffa500;"/>
    </defs>
    <g>
     <use style="fill:#ffa500;stroke:#ffa500;" x="264.980206" xlink:href="#m313214be0e" y="74.787769"/>
     <use style="fill:#ffa500;stroke:#ffa500;" x="264.980206" xlink:href="#m313214be0e" y="74.787769"/>
    </g>
   </g>
   <g id="line2d_53">
    <path d="M 45.512012 298.944 
L 45.512012 288.834994 
L 57.6 288.834994 
L 57.6 288.395471 
L 64.67102 288.395471 
L 64.67102 287.516427 
L 69.687988 287.516427 
L 69.687988 286.637383 
L 73.579452 286.637383 
L 73.579452 285.758339 
L 76.759008 285.758339 
L 76.759008 279.605031 
L 79.447285 279.605031 
L 79.447285 275.649333 
L 81.775977 275.649333 
L 81.775977 274.770289 
L 83.830028 274.770289 
L 83.830028 273.891245 
L 85.66744 273.891245 
L 85.66744 273.451723 
L 88.846997 273.451723 
L 88.846997 272.133157 
L 91.535274 272.133157 
L 91.535274 270.814591 
L 92.73846 270.814591 
L 92.73846 270.375069 
L 93.863965 270.375069 
L 93.863965 269.056503 
L 95.918017 269.056503 
L 95.918017 268.616981 
L 96.86091 268.616981 
L 96.86091 267.737936 
L 103.623262 267.737936 
L 103.623262 267.298414 
L 108.948899 267.298414 
L 108.948899 266.858892 
L 109.843417 266.858892 
L 109.843417 266.41937 
L 110.694282 266.41937 
L 110.694282 265.979848 
L 111.104637 265.979848 
L 111.104637 265.100804 
L 112.280765 265.100804 
L 112.280765 263.782238 
L 112.655818 263.782238 
L 112.655818 262.463672 
L 113.022974 262.463672 
L 113.022974 262.02415 
L 114.080224 262.02415 
L 114.080224 261.145106 
L 115.397021 261.145106 
L 115.397021 260.266062 
L 115.711251 260.266062 
L 115.711251 259.387018 
L 116.621333 259.387018 
L 116.621333 258.507974 
L 117.486268 258.507974 
L 117.486268 257.62893 
L 117.765302 257.62893 
L 117.765302 257.189408 
L 119.602714 257.189408 
L 119.602714 256.749886 
L 120.093994 256.749886 
L 120.093994 255.870842 
L 120.571812 255.870842 
L 120.571812 254.991798 
L 123.192626 254.991798 
L 123.192626 254.112754 
L 124.92835 254.112754 
L 124.92835 253.23371 
L 125.822869 253.23371 
L 125.822869 252.794188 
L 126.50685 252.794188 
L 126.50685 252.354666 
L 126.839037 252.354666 
L 126.839037 251.915144 
L 127.165014 251.915144 
L 127.165014 251.0361 
L 127.954256 251.0361 
L 127.954256 250.596578 
L 128.260216 250.596578 
L 128.260216 249.717534 
L 131.814826 249.717534 
L 131.814826 248.398968 
L 131.938072 248.398968 
L 131.938072 247.959446 
L 133.239232 247.959446 
L 133.239232 247.519924 
L 133.46572 247.519924 
L 133.46572 246.640879 
L 134.019394 246.640879 
L 134.12805 245.322313 
L 135.681535 245.322313 
L 135.681535 244.882791 
L 136.645276 244.882791 
L 136.645276 244.443269 
L 137.107884 244.443269 
L 137.107884 243.564225 
L 137.469333 243.564225 
L 137.469333 242.685181 
L 138.256201 242.685181 
L 138.256201 241.806137 
L 138.67848 241.806137 
L 138.67848 241.366615 
L 139.413734 241.366615 
L 139.413734 240.487571 
L 140.423864 240.487571 
L 140.423864 240.048049 
L 140.64889 240.048049 
L 140.64889 239.169005 
L 141.521035 239.169005 
L 141.521035 238.729483 
L 142.283909 238.729483 
L 142.283909 238.289961 
L 143.273169 238.289961 
L 143.273169 237.410917 
L 144.45069 237.410917 
L 144.45069 236.531873 
L 144.923649 236.531873 
L 144.923649 235.652829 
L 145.270136 235.652829 
L 145.270136 234.773785 
L 145.497361 234.773785 
L 145.497361 234.334263 
L 146.484754 234.334263 
L 146.484754 233.455219 
L 146.801841 233.455219 
L 146.801841 233.015697 
L 147.769524 233.015697 
L 147.769524 232.136653 
L 149.467659 232.136653 
L 149.467659 231.697131 
L 150.38688 231.697131 
L 150.38688 231.257609 
L 151.178764 231.257609 
L 151.178764 230.378565 
L 152.130233 230.378565 
L 152.130233 229.939043 
L 152.587184 229.939043 
L 152.587184 229.059999 
L 153.395042 229.059999 
L 153.395042 227.741433 
L 153.537988 227.741433 
L 153.609024 225.983344 
L 153.715038 225.983344 
L 153.715038 225.543822 
L 154.235652 225.543822 
L 154.235652 224.664778 
L 155.329071 224.664778 
L 155.329071 223.785734 
L 157.098907 223.785734 
L 157.098907 223.346212 
L 157.669802 223.346212 
L 157.669802 222.90669 
L 158.465753 222.90669 
L 158.465753 222.467168 
L 158.75841 222.467168 
L 158.75841 222.027646 
L 160.537682 222.027646 
L 160.537682 221.148602 
L 160.797798 221.148602 
L 160.797798 220.269558 
L 161.283861 220.269558 
L 161.283861 219.390514 
L 162.602318 219.390514 
L 162.602318 218.950992 
L 163.689421 218.950992 
L 163.788565 216.31386 
L 163.847782 216.31386 
L 163.887148 215.434816 
L 164.314412 215.434816 
L 164.314412 214.995294 
L 166.186323 214.995294 
L 166.289413 213.676728 
L 166.306535 213.676728 
L 166.306535 213.237206 
L 167.320442 213.237206 
L 167.320442 212.797684 
L 167.672117 212.797684 
L 167.672117 212.358162 
L 167.798261 212.358162 
L 167.798261 211.91864 
L 168.415645 211.91864 
L 168.415645 211.479118 
L 170.063995 211.479118 
L 170.063995 210.600074 
L 170.499999 210.600074 
L 170.499999 209.72103 
L 172.118046 209.72103 
L 172.118046 209.281508 
L 172.288901 209.281508 
L 172.288901 208.402464 
L 173.199806 208.402464 
L 173.199806 207.52342 
L 174.753684 207.52342 
L 174.753684 207.083898 
L 175.647675 207.083898 
L 175.647675 206.204854 
L 175.866664 206.204854 
L 175.94562 205.325809 
L 176.02422 205.325809 
L 176.02422 204.886287 
L 176.517133 204.886287 
L 176.517133 204.007243 
L 177.463036 204.007243 
L 177.463036 203.128199 
L 177.633702 203.128199 
L 177.705065 202.249155 
L 178.170609 202.249155 
L 178.170609 201.370111 
L 178.883902 201.370111 
L 178.883902 200.930589 
L 179.13174 200.930589 
L 179.13174 200.051545 
L 179.27877 200.051545 
L 179.27877 199.172501 
L 180.034869 199.172501 
L 180.034869 198.732979 
L 180.282349 198.732979 
L 180.282349 198.293457 
L 181.697718 198.293457 
L 181.697718 197.853935 
L 181.929824 197.853935 
L 181.929824 197.414413 
L 182.186441 197.414413 
L 182.268864 196.095847 
L 182.828533 196.095847 
L 182.828533 195.656325 
L 183.428598 195.656325 
L 183.428598 195.216803 
L 184.303871 195.216803 
L 184.303871 194.337759 
L 185.247406 194.337759 
L 185.247406 193.898237 
L 185.402679 193.898237 
L 185.402679 193.019193 
L 185.567927 193.019193 
L 185.567927 192.579671 
L 185.91049 192.579671 
L 185.91049 192.140149 
L 186.543922 192.140149 
L 186.543922 191.261105 
L 187.620088 191.261105 
L 187.620088 190.382061 
L 187.770687 190.382061 
L 187.810628 189.503017 
L 188.471193 189.503017 
L 188.519143 188.623973 
L 189.241389 188.623973 
L 189.241389 188.184451 
L 190.014199 188.184451 
L 190.014199 187.305407 
L 190.503892 187.305407 
L 190.503892 186.865885 
L 190.87176 186.865885 
L 190.87176 186.426363 
L 191.56089 186.426363 
L 191.633136 185.547319 
L 191.938852 185.547319 
L 191.938852 184.668274 
L 192.111171 184.668274 
L 192.111171 183.78923 
L 192.450782 183.78923 
L 192.450782 183.349708 
L 193.000037 183.349708 
L 193.000037 182.910186 
L 193.65779 182.910186 
L 193.65779 182.470664 
L 195.10791 182.470664 
L 195.10791 182.031142 
L 195.407249 182.031142 
L 195.474862 181.152098 
L 195.805896 181.152098 
L 195.805896 180.712576 
L 196.177125 180.712576 
L 196.177125 180.273054 
L 196.582885 180.273054 
L 196.582885 179.833532 
L 197.34117 179.833532 
L 197.34117 179.39401 
L 197.878506 179.39401 
L 197.93999 178.075444 
L 197.995698 178.075444 
L 197.995698 177.635922 
L 198.274335 177.635922 
L 198.274335 177.1964 
L 198.706826 177.1964 
L 198.762802 175.438312 
L 199.024297 175.438312 
L 199.024297 174.99879 
L 200.721676 174.99879 
L 200.721676 174.119746 
L 200.967304 174.119746 
L 200.967304 173.240702 
L 201.573447 173.240702 
L 201.573447 172.80118 
L 201.800738 172.80118 
L 201.800738 171.922136 
L 202.106582 171.922136 
L 202.106582 171.482614 
L 202.255337 171.482614 
L 202.255337 171.043092 
L 203.862738 171.043092 
L 203.862738 170.60357 
L 204.525389 170.60357 
L 204.525389 170.164048 
L 204.677715 170.164048 
L 204.677715 169.724526 
L 204.931785 169.724526 
L 204.931785 169.285004 
L 205.350828 169.285004 
L 205.350828 168.845482 
L 205.465363 168.845482 
L 205.465363 168.40596 
L 205.731507 168.40596 
L 205.767163 167.526916 
L 205.956694 167.526916 
L 205.956694 167.087394 
L 206.130238 167.087394 
L 206.130238 166.647872 
L 207.446781 166.647872 
L 207.446781 166.20835 
L 208.158299 166.20835 
L 208.158299 165.329306 
L 208.694982 165.329306 
L 208.738593 163.131695 
L 209.430602 163.131695 
L 209.430602 162.252651 
L 210.030769 162.252651 
L 210.030769 161.813129 
L 211.549812 161.813129 
L 211.549812 161.373607 
L 211.92791 161.373607 
L 211.92791 160.934085 
L 212.144226 160.934085 
L 212.144226 160.494563 
L 212.583433 160.494563 
L 212.583433 160.055041 
L 212.765606 160.055041 
L 212.765606 159.615519 
L 213.112656 159.615519 
L 213.112656 159.175997 
L 213.24307 159.175997 
L 213.24307 158.736475 
L 214.629585 158.736475 
L 214.629585 158.296953 
L 214.884845 158.296953 
L 214.969108 157.417909 
L 215.504056 157.417909 
L 215.504056 156.538865 
L 215.949733 156.538865 
L 215.949733 156.099343 
L 216.128599 156.099343 
L 216.128599 155.659821 
L 216.506914 155.659821 
L 216.506914 154.780777 
L 216.816814 154.780777 
L 216.816814 153.901733 
L 217.334537 153.901733 
L 217.440641 153.022689 
L 217.512533 153.022689 
L 217.512533 152.143645 
L 218.38315 152.143645 
L 218.38315 151.704123 
L 218.687179 151.704123 
L 218.687179 151.264601 
L 218.822493 151.264601 
L 218.822493 150.825079 
L 219.033505 150.825079 
L 219.033505 149.946035 
L 219.16782 149.946035 
L 219.16782 149.506513 
L 219.301108 149.506513 
L 219.301108 149.066991 
L 219.413038 149.066991 
L 219.463457 147.308903 
L 219.559822 147.308903 
L 219.559822 146.869381 
L 219.869581 146.869381 
L 219.869581 146.429859 
L 219.989754 146.429859 
L 219.989754 145.990337 
L 220.249393 145.990337 
L 220.249393 145.550815 
L 220.420107 145.550815 
L 220.430097 144.232249 
L 220.624149 144.232249 
L 220.630985 142.47416 
L 220.749059 142.47416 
L 220.749059 142.034638 
L 221.140651 142.034638 
L 221.140651 141.595116 
L 221.535905 141.595116 
L 221.580552 140.716072 
L 221.807063 140.716072 
L 221.868717 139.397506 
L 221.937907 139.397506 
L 221.937907 138.957984 
L 222.644908 138.957984 
L 222.644908 138.518462 
L 222.758884 138.518462 
L 222.829994 136.760374 
L 222.871452 136.760374 
L 222.880133 135.441808 
L 222.985953 135.441808 
L 222.985953 135.002286 
L 223.402278 135.002286 
L 223.402278 134.562764 
L 223.990236 134.562764 
L 223.990236 134.123242 
L 224.126878 134.123242 
L 224.126878 133.244198 
L 224.26924 133.244198 
L 224.303727 131.48611 
L 224.635844 131.48611 
L 224.667205 130.607066 
L 224.890516 130.607066 
L 224.890516 130.167544 
L 225.514541 130.167544 
L 225.514541 129.728022 
L 225.707469 129.728022 
L 225.707469 129.2885 
L 225.830779 129.2885 
L 225.830779 128.848978 
L 226.098143 128.848978 
L 226.098143 128.409456 
L 226.429136 128.409456 
L 226.513893 126.651368 
L 226.605251 126.651368 
L 226.605251 125.772324 
L 227.223371 125.772324 
L 227.223371 124.89328 
L 227.377761 124.89328 
L 227.377761 124.014236 
L 227.503677 124.014236 
L 227.503677 123.574714 
L 227.885582 123.574714 
L 227.971542 121.816625 
L 228.254888 121.816625 
L 228.254888 120.937581 
L 228.887309 120.937581 
L 228.887309 120.498059 
L 229.192566 120.498059 
L 229.192566 120.058537 
L 230.073111 120.058537 
L 230.073111 119.619015 
L 230.37324 119.619015 
L 230.482366 117.421405 
L 230.886034 117.421405 
L 230.886034 116.542361 
L 231.062717 116.542361 
L 231.062717 115.663317 
L 231.366132 115.663317 
L 231.409575 114.784273 
L 232.209609 114.784273 
L 232.215473 113.465707 
L 232.38041 113.465707 
L 232.38041 112.586663 
L 232.494253 112.586663 
L 232.494253 112.147141 
L 232.736432 112.147141 
L 232.736432 111.707619 
L 232.952828 111.707619 
L 232.952828 110.828575 
L 233.354677 110.828575 
L 233.354677 110.389053 
L 233.651271 110.389053 
L 233.735299 109.070487 
L 234.472836 109.070487 
L 234.521872 108.191443 
L 234.733235 108.191443 
L 234.733235 107.751921 
L 234.872734 107.751921 
L 234.872734 107.312399 
L 235.263995 107.312399 
L 235.359557 105.993833 
L 235.862356 105.993833 
L 235.862356 105.554311 
L 236.891137 105.554311 
L 236.891137 105.114789 
L 237.188709 105.114789 
L 237.188709 104.675267 
L 237.406282 104.675267 
L 237.406282 104.235745 
L 237.881527 104.235745 
L 237.881527 103.796223 
L 238.064145 103.796223 
L 238.064145 103.356701 
L 238.392503 103.356701 
L 238.392503 102.477657 
L 238.526109 102.477657 
L 238.526109 102.038135 
L 238.720446 102.038135 
L 238.720446 101.15909 
L 238.959166 101.15909 
L 238.959166 100.280046 
L 239.530363 100.280046 
L 239.530363 99.840524 
L 239.726337 99.840524 
L 239.726337 98.96148 
L 239.889954 98.96148 
L 239.889954 98.521958 
L 240.646777 98.521958 
L 240.646777 98.082436 
L 241.312134 98.082436 
L 241.312134 97.642914 
L 241.521291 97.642914 
L 241.521291 97.203392 
L 243.252916 97.203392 
L 243.252916 96.324348 
L 243.592679 96.324348 
L 243.592679 95.884826 
L 243.866537 95.884826 
L 243.866537 95.005782 
L 244.402456 95.005782 
L 244.480397 93.247694 
L 244.927864 93.247694 
L 244.927864 92.36865 
L 245.491476 92.36865 
L 245.491476 91.489606 
L 245.710079 91.489606 
L 245.767494 89.731518 
L 247.621124 89.731518 
L 247.653085 88.852474 
L 248.124508 88.852474 
L 248.124508 88.412952 
L 248.89282 88.412952 
L 248.89282 87.97343 
L 249.522979 87.97343 
L 249.522979 87.094386 
L 249.726783 87.094386 
L 249.726783 86.215342 
L 250.405316 86.215342 
L 250.405316 85.336298 
L 250.817045 85.336298 
L 250.817045 84.457254 
L 251.882285 84.457254 
L 251.882285 83.57821 
L 252.173299 83.57821 
L 252.173299 82.699166 
L 252.857012 82.699166 
L 252.857012 82.259644 
L 253.758212 82.259644 
L 253.758212 81.820122 
L 254.117559 81.820122 
L 254.122567 80.501555 
L 254.432955 80.501555 
L 254.432955 79.622511 
L 255.162113 79.622511 
L 255.162113 79.182989 
L 255.540262 79.182989 
L 255.540262 78.743467 
L 256.286682 78.743467 
L 256.286682 77.864423 
L 259.715089 77.864423 
L 259.715089 77.424901 
L 260.76985 77.424901 
L 260.76985 76.545857 
L 261.385172 76.545857 
L 261.385172 75.666813 
L 264.088318 75.666813 
L 264.088318 75.227291 
L 264.980206 75.227291 
L 264.980206 74.787769 
L 338.688 74.787769 
L 338.688 74.787769 
" style="fill:none;stroke:#ffa500;stroke-linecap:square;stroke-width:1.5;"/>
   </g>
   <g id="line2d_54">
    <defs>
     <path d="M 0 -6 
L -1.347084 -1.854102 
L -5.706339 -1.854102 
L -2.179628 0.708204 
L -3.526712 4.854102 
L -0 2.291796 
L 3.526712 4.854102 
L 2.179628 0.708204 
L 5.706339 -1.854102 
L 1.347084 -1.854102 
z
" id="med4e3ad3ed" style="stroke:#ffa500;stroke-linejoin:bevel;stroke-width:1.5;"/>
    </defs>
    <g>
     <use style="fill-opacity:0;stroke:#ffa500;stroke-linejoin:bevel;stroke-width:1.5;" x="109.843417" xlink:href="#med4e3ad3ed" y="266.858892"/>
     <use style="fill-opacity:0;stroke:#ffa500;stroke-linejoin:bevel;stroke-width:1.5;" x="161.283861" xlink:href="#med4e3ad3ed" y="220.269558"/>
     <use style="fill-opacity:0;stroke:#ffa500;stroke-linejoin:bevel;stroke-width:1.5;" x="208.694982" xlink:href="#med4e3ad3ed" y="165.329306"/>
     <use style="fill-opacity:0;stroke:#ffa500;stroke-linejoin:bevel;stroke-width:1.5;" x="264.980206" xlink:href="#med4e3ad3ed" y="75.227291"/>
     <use style="fill-opacity:0;stroke:#ffa500;stroke-linejoin:bevel;stroke-width:1.5;" x="264.980206" xlink:href="#med4e3ad3ed" y="74.787769"/>
     <use style="fill-opacity:0;stroke:#ffa500;stroke-linejoin:bevel;stroke-width:1.5;" x="338.688" xlink:href="#med4e3ad3ed" y="74.787769"/>
    </g>
   </g>
   <g id="line2d_55">
    <path style="fill:none;stroke:#ffa500;stroke-linecap:square;stroke-width:1.5;"/>
    <g/>
   </g>
   <g id="line2d_56">
    <path clip-path="url(#p62980b7927)" d="M 298.532571 74.787769 
" style="fill:none;stroke:#ffa500;stroke-linecap:square;stroke-width:1.5;"/>
    <defs>
     <path d="M -12 12 
L 12 -12 
M -12 -12 
L 12 12 
" id="m181bc6caa7" style="stroke:#ffa500;"/>
    </defs>
    <g clip-path="url(#p62980b7927)">
     <use style="fill:#ffa500;stroke:#ffa500;" x="298.532571" xlink:href="#m181bc6caa7" y="74.787769"/>
    </g>
   </g>
   <g id="line2d_57">
    <path d="M 338.688 124.014236 
L 369.60768 293.845545 
" style="fill:none;stroke:#ff00ff;stroke-linecap:square;stroke-width:1.5;"/>
    <g>
     <use style="fill-opacity:0;stroke:#ff00ff;stroke-linejoin:miter;stroke-width:1.5;" x="338.688" xlink:href="#m25fab782be" y="124.014236"/>
     <use style="fill-opacity:0;stroke:#ff00ff;stroke-linejoin:miter;stroke-width:1.5;" x="369.60768" xlink:href="#m25fab782be" y="293.845545"/>
    </g>
   </g>
   <g id="line2d_58">
    <path d="M 338.688 99.401002 
L 369.60768 212.270257 
" style="fill:none;stroke:#000080;stroke-linecap:square;stroke-width:1.5;"/>
    <g>
     <use style="fill-opacity:0;stroke:#000080;stroke-width:1.5;" x="338.688" xlink:href="#mcd2e458229" y="99.401002"/>
     <use style="fill-opacity:0;stroke:#000080;stroke-width:1.5;" x="369.60768" xlink:href="#mcd2e458229" y="212.270257"/>
    </g>
   </g>
   <g id="line2d_59">
    <path d="M 338.688 74.787769 
L 369.60768 130.69497 
" style="fill:none;stroke:#ffa500;stroke-linecap:square;stroke-width:1.5;"/>
    <g>
     <use style="fill-opacity:0;stroke:#ffa500;stroke-linejoin:bevel;stroke-width:1.5;" x="338.688" xlink:href="#med4e3ad3ed" y="74.787769"/>
     <use style="fill-opacity:0;stroke:#ffa500;stroke-linejoin:bevel;stroke-width:1.5;" x="369.60768" xlink:href="#med4e3ad3ed" y="130.69497"/>
    </g>
   </g>
   <g id="line2d_60">
    <path d="M 338.688 298.944 
L 338.688 44.021228 
" style="fill:none;stroke:#000000;stroke-linecap:square;stroke-width:1.5;"/>
   </g>
   <g id="patch_3">
    <path d="M 57.6 298.944 
L 57.6 41.472 
" style="fill:none;stroke:#000000;stroke-linecap:square;stroke-linejoin:miter;stroke-width:0.8;"/>
   </g>
   <g id="patch_4">
    <path d="M 338.688 298.944 
L 338.688 41.472 
" style="fill:none;stroke:#000000;stroke-linecap:square;stroke-linejoin:miter;stroke-width:0.8;"/>
   </g>
   <g id="patch_5">
    <path d="M 57.6 298.944 
L 338.688 298.944 
" style="fill:none;stroke:#000000;stroke-linecap:square;stroke-linejoin:miter;stroke-width:0.8;"/>
   </g>
   <g id="patch_6">
    <path d="M 57.6 41.472 
L 338.688 41.472 
" style="fill:none;stroke:#000000;stroke-linecap:square;stroke-linejoin:miter;stroke-width:0.8;"/>
   </g>
   <g id="text_13">
    <!-- NSGA-II-M -->
    <defs>
     <path d="M 9.8125 72.90625 
L 23.09375 72.90625 
L 55.421875 11.921875 
L 55.421875 72.90625 
L 64.984375 72.90625 
L 64.984375 0 
L 51.703125 0 
L 19.390625 60.984375 
L 19.390625 0 
L 9.8125 0 
z
" id="DejaVuSans-78"/>
     <path d="M 53.515625 70.515625 
L 53.515625 60.890625 
Q 47.90625 63.578125 42.921875 64.890625 
Q 37.9375 66.21875 33.296875 66.21875 
Q 25.25 66.21875 20.875 63.09375 
Q 16.5 59.96875 16.5 54.203125 
Q 16.5 49.359375 19.40625 46.890625 
Q 22.3125 44.4375 30.421875 42.921875 
L 36.375 41.703125 
Q 47.40625 39.59375 52.65625 34.296875 
Q 57.90625 29 57.90625 20.125 
Q 57.90625 9.515625 50.796875 4.046875 
Q 43.703125 -1.421875 29.984375 -1.421875 
Q 24.8125 -1.421875 18.96875 -0.25 
Q 13.140625 0.921875 6.890625 3.21875 
L 6.890625 13.375 
Q 12.890625 10.015625 18.65625 8.296875 
Q 24.421875 6.59375 29.984375 6.59375 
Q 38.421875 6.59375 43.015625 9.90625 
Q 47.609375 13.234375 47.609375 19.390625 
Q 47.609375 24.75 44.3125 27.78125 
Q 41.015625 30.8125 33.5 32.328125 
L 27.484375 33.5 
Q 16.453125 35.6875 11.515625 40.375 
Q 6.59375 45.0625 6.59375 53.421875 
Q 6.59375 63.09375 13.40625 68.65625 
Q 20.21875 74.21875 32.171875 74.21875 
Q 37.3125 74.21875 42.625 73.28125 
Q 47.953125 72.359375 53.515625 70.515625 
z
" id="DejaVuSans-83"/>
     <path d="M 59.515625 10.40625 
L 59.515625 29.984375 
L 43.40625 29.984375 
L 43.40625 38.09375 
L 69.28125 38.09375 
L 69.28125 6.78125 
Q 63.578125 2.734375 56.6875 0.65625 
Q 49.8125 -1.421875 42 -1.421875 
Q 24.90625 -1.421875 15.25 8.5625 
Q 5.609375 18.5625 5.609375 36.375 
Q 5.609375 54.25 15.25 64.234375 
Q 24.90625 74.21875 42 74.21875 
Q 49.125 74.21875 55.546875 72.453125 
Q 61.96875 70.703125 67.390625 67.28125 
L 67.390625 56.78125 
Q 61.921875 61.421875 55.765625 63.765625 
Q 49.609375 66.109375 42.828125 66.109375 
Q 29.4375 66.109375 22.71875 58.640625 
Q 16.015625 51.171875 16.015625 36.375 
Q 16.015625 21.625 22.71875 14.15625 
Q 29.4375 6.6875 42.828125 6.6875 
Q 48.046875 6.6875 52.140625 7.59375 
Q 56.25 8.5 59.515625 10.40625 
z
" id="DejaVuSans-71"/>
     <path d="M 34.1875 63.1875 
L 20.796875 26.90625 
L 47.609375 26.90625 
z
M 28.609375 72.90625 
L 39.796875 72.90625 
L 67.578125 0 
L 57.328125 0 
L 50.6875 18.703125 
L 17.828125 18.703125 
L 11.1875 0 
L 0.78125 0 
z
" id="DejaVuSans-65"/>
     <path d="M 9.8125 72.90625 
L 19.671875 72.90625 
L 19.671875 0 
L 9.8125 0 
z
" id="DejaVuSans-73"/>
     <path d="M 9.8125 72.90625 
L 24.515625 72.90625 
L 43.109375 23.296875 
L 61.8125 72.90625 
L 76.515625 72.90625 
L 76.515625 0 
L 66.890625 0 
L 66.890625 64.015625 
L 48.09375 14.015625 
L 38.1875 14.015625 
L 19.390625 64.015625 
L 19.390625 0 
L 9.8125 0 
z
" id="DejaVuSans-77"/>
    </defs>
    <g transform="translate(375.22944 298.536482)scale(0.17 -0.17)">
     <use xlink:href="#DejaVuSans-78"/>
     <use x="74.804688" xlink:href="#DejaVuSans-83"/>
     <use x="138.28125" xlink:href="#DejaVuSans-71"/>
     <use x="215.771484" xlink:href="#DejaVuSans-65"/>
     <use x="284.148438" xlink:href="#DejaVuSans-45"/>
     <use x="320.232422" xlink:href="#DejaVuSans-73"/>
     <use x="349.724609" xlink:href="#DejaVuSans-73"/>
     <use x="379.216797" xlink:href="#DejaVuSans-45"/>
     <use x="415.300781" xlink:href="#DejaVuSans-77"/>
    </g>
   </g>
   <g id="text_14">
    <!-- DMS on bb -->
    <defs>
     <path d="M 19.671875 64.796875 
L 19.671875 8.109375 
L 31.59375 8.109375 
Q 46.6875 8.109375 53.6875 14.9375 
Q 60.6875 21.78125 60.6875 36.53125 
Q 60.6875 51.171875 53.6875 57.984375 
Q 46.6875 64.796875 31.59375 64.796875 
z
M 9.8125 72.90625 
L 30.078125 72.90625 
Q 51.265625 72.90625 61.171875 64.09375 
Q 71.09375 55.28125 71.09375 36.53125 
Q 71.09375 17.671875 61.125 8.828125 
Q 51.171875 0 30.078125 0 
L 9.8125 0 
z
" id="DejaVuSans-68"/>
     <path d="M 48.6875 27.296875 
Q 48.6875 37.203125 44.609375 42.84375 
Q 40.53125 48.484375 33.40625 48.484375 
Q 26.265625 48.484375 22.1875 42.84375 
Q 18.109375 37.203125 18.109375 27.296875 
Q 18.109375 17.390625 22.1875 11.75 
Q 26.265625 6.109375 33.40625 6.109375 
Q 40.53125 6.109375 44.609375 11.75 
Q 48.6875 17.390625 48.6875 27.296875 
z
M 18.109375 46.390625 
Q 20.953125 51.265625 25.265625 53.625 
Q 29.59375 56 35.59375 56 
Q 45.5625 56 51.78125 48.09375 
Q 58.015625 40.1875 58.015625 27.296875 
Q 58.015625 14.40625 51.78125 6.484375 
Q 45.5625 -1.421875 35.59375 -1.421875 
Q 29.59375 -1.421875 25.265625 0.953125 
Q 20.953125 3.328125 18.109375 8.203125 
L 18.109375 0 
L 9.078125 0 
L 9.078125 75.984375 
L 18.109375 75.984375 
z
" id="DejaVuSans-98"/>
    </defs>
    <g transform="translate(375.22944 216.961195)scale(0.17 -0.17)">
     <use xlink:href="#DejaVuSans-68"/>
     <use x="77.001953" xlink:href="#DejaVuSans-77"/>
     <use x="163.28125" xlink:href="#DejaVuSans-83"/>
     <use x="226.757812" xlink:href="#DejaVuSans-32"/>
     <use x="258.544922" xlink:href="#DejaVuSans-111"/>
     <use x="319.726562" xlink:href="#DejaVuSans-110"/>
     <use x="383.105469" xlink:href="#DejaVuSans-32"/>
     <use x="414.892578" xlink:href="#DejaVuSans-98"/>
     <use x="478.369141" xlink:href="#DejaVuSans-98"/>
    </g>
   </g>
   <g id="text_15">
    <!-- UP-MO-CMA -->
    <defs>
     <path d="M 8.6875 72.90625 
L 18.609375 72.90625 
L 18.609375 28.609375 
Q 18.609375 16.890625 22.84375 11.734375 
Q 27.09375 6.59375 36.625 6.59375 
Q 46.09375 6.59375 50.34375 11.734375 
Q 54.59375 16.890625 54.59375 28.609375 
L 54.59375 72.90625 
L 64.5 72.90625 
L 64.5 27.390625 
Q 64.5 13.140625 57.4375 5.859375 
Q 50.390625 -1.421875 36.625 -1.421875 
Q 22.796875 -1.421875 15.734375 5.859375 
Q 8.6875 13.140625 8.6875 27.390625 
z
" id="DejaVuSans-85"/>
     <path d="M 19.671875 64.796875 
L 19.671875 37.40625 
L 32.078125 37.40625 
Q 38.96875 37.40625 42.71875 40.96875 
Q 46.484375 44.53125 46.484375 51.125 
Q 46.484375 57.671875 42.71875 61.234375 
Q 38.96875 64.796875 32.078125 64.796875 
z
M 9.8125 72.90625 
L 32.078125 72.90625 
Q 44.34375 72.90625 50.609375 67.359375 
Q 56.890625 61.8125 56.890625 51.125 
Q 56.890625 40.328125 50.609375 34.8125 
Q 44.34375 29.296875 32.078125 29.296875 
L 19.671875 29.296875 
L 19.671875 0 
L 9.8125 0 
z
" id="DejaVuSans-80"/>
     <path d="M 39.40625 66.21875 
Q 28.65625 66.21875 22.328125 58.203125 
Q 16.015625 50.203125 16.015625 36.375 
Q 16.015625 22.609375 22.328125 14.59375 
Q 28.65625 6.59375 39.40625 6.59375 
Q 50.140625 6.59375 56.421875 14.59375 
Q 62.703125 22.609375 62.703125 36.375 
Q 62.703125 50.203125 56.421875 58.203125 
Q 50.140625 66.21875 39.40625 66.21875 
z
M 39.40625 74.21875 
Q 54.734375 74.21875 63.90625 63.9375 
Q 73.09375 53.65625 73.09375 36.375 
Q 73.09375 19.140625 63.90625 8.859375 
Q 54.734375 -1.421875 39.40625 -1.421875 
Q 24.03125 -1.421875 14.8125 8.828125 
Q 5.609375 19.09375 5.609375 36.375 
Q 5.609375 53.65625 14.8125 63.9375 
Q 24.03125 74.21875 39.40625 74.21875 
z
" id="DejaVuSans-79"/>
     <path d="M 64.40625 67.28125 
L 64.40625 56.890625 
Q 59.421875 61.53125 53.78125 63.8125 
Q 48.140625 66.109375 41.796875 66.109375 
Q 29.296875 66.109375 22.65625 58.46875 
Q 16.015625 50.828125 16.015625 36.375 
Q 16.015625 21.96875 22.65625 14.328125 
Q 29.296875 6.6875 41.796875 6.6875 
Q 48.140625 6.6875 53.78125 8.984375 
Q 59.421875 11.28125 64.40625 15.921875 
L 64.40625 5.609375 
Q 59.234375 2.09375 53.4375 0.328125 
Q 47.65625 -1.421875 41.21875 -1.421875 
Q 24.65625 -1.421875 15.125 8.703125 
Q 5.609375 18.84375 5.609375 36.375 
Q 5.609375 53.953125 15.125 64.078125 
Q 24.65625 74.21875 41.21875 74.21875 
Q 47.75 74.21875 53.53125 72.484375 
Q 59.328125 70.75 64.40625 67.28125 
z
" id="DejaVuSans-67"/>
    </defs>
    <g transform="translate(375.22944 135.385908)scale(0.17 -0.17)">
     <use xlink:href="#DejaVuSans-85"/>
     <use x="73.193359" xlink:href="#DejaVuSans-80"/>
     <use x="133.464844" xlink:href="#DejaVuSans-45"/>
     <use x="169.548828" xlink:href="#DejaVuSans-77"/>
     <use x="255.828125" xlink:href="#DejaVuSans-79"/>
     <use x="334.570312" xlink:href="#DejaVuSans-45"/>
     <use x="370.654297" xlink:href="#DejaVuSans-67"/>
     <use x="440.478516" xlink:href="#DejaVuSans-77"/>
     <use x="526.757812" xlink:href="#DejaVuSans-65"/>
    </g>
   </g>
   <g id="text_16">
    <!-- best 2016 -->
    <g transform="translate(375.22944 53.810621)scale(0.17 -0.17)">
     <use xlink:href="#DejaVuSans-98"/>
     <use x="63.476562" xlink:href="#DejaVuSans-101"/>
     <use x="125" xlink:href="#DejaVuSans-115"/>
     <use x="177.099609" xlink:href="#DejaVuSans-116"/>
     <use x="216.308594" xlink:href="#DejaVuSans-32"/>
     <use x="248.095703" xlink:href="#DejaVuSans-50"/>
     <use x="311.71875" xlink:href="#DejaVuSans-48"/>
     <use x="375.341797" xlink:href="#DejaVuSans-49"/>
     <use x="438.964844" xlink:href="#DejaVuSans-54"/>
    </g>
   </g>
   <g id="text_17">
    <!-- bbob-biobj f6, 2-D -->
    <defs>
     <path d="M 9.421875 54.6875 
L 18.40625 54.6875 
L 18.40625 -0.984375 
Q 18.40625 -11.421875 14.421875 -16.109375 
Q 10.453125 -20.796875 1.609375 -20.796875 
L -1.8125 -20.796875 
L -1.8125 -13.1875 
L 0.59375 -13.1875 
Q 5.71875 -13.1875 7.5625 -10.8125 
Q 9.421875 -8.453125 9.421875 -0.984375 
z
M 9.421875 75.984375 
L 18.40625 75.984375 
L 18.40625 64.59375 
L 9.421875 64.59375 
z
" id="DejaVuSans-106"/>
    </defs>
    <g transform="translate(60.41088 51.797126)scale(0.102 -0.102)">
     <use xlink:href="#DejaVuSans-98"/>
     <use x="63.476562" xlink:href="#DejaVuSans-98"/>
     <use x="126.953125" xlink:href="#DejaVuSans-111"/>
     <use x="188.134766" xlink:href="#DejaVuSans-98"/>
     <use x="251.611328" xlink:href="#DejaVuSans-45"/>
     <use x="287.695312" xlink:href="#DejaVuSans-98"/>
     <use x="351.171875" xlink:href="#DejaVuSans-105"/>
     <use x="378.955078" xlink:href="#DejaVuSans-111"/>
     <use x="440.136719" xlink:href="#DejaVuSans-98"/>
     <use x="503.613281" xlink:href="#DejaVuSans-106"/>
     <use x="531.396484" xlink:href="#DejaVuSans-32"/>
     <use x="563.183594" xlink:href="#DejaVuSans-102"/>
     <use x="598.388672" xlink:href="#DejaVuSans-54"/>
     <use x="662.011719" xlink:href="#DejaVuSans-44"/>
     <use x="693.798828" xlink:href="#DejaVuSans-32"/>
     <use x="725.585938" xlink:href="#DejaVuSans-50"/>
     <use x="789.208984" xlink:href="#DejaVuSans-45"/>
     <use x="825.292969" xlink:href="#DejaVuSans-68"/>
    </g>
    <!-- 58 targets: 1..-1.0e-4 -->
    <defs>
     <path d="M 10.796875 72.90625 
L 49.515625 72.90625 
L 49.515625 64.59375 
L 19.828125 64.59375 
L 19.828125 46.734375 
Q 21.96875 47.46875 24.109375 47.828125 
Q 26.265625 48.1875 28.421875 48.1875 
Q 40.625 48.1875 47.75 41.5 
Q 54.890625 34.8125 54.890625 23.390625 
Q 54.890625 11.625 47.5625 5.09375 
Q 40.234375 -1.421875 26.90625 -1.421875 
Q 22.3125 -1.421875 17.546875 -0.640625 
Q 12.796875 0.140625 7.71875 1.703125 
L 7.71875 11.625 
Q 12.109375 9.234375 16.796875 8.0625 
Q 21.484375 6.890625 26.703125 6.890625 
Q 35.15625 6.890625 40.078125 11.328125 
Q 45.015625 15.765625 45.015625 23.390625 
Q 45.015625 31 40.078125 35.4375 
Q 35.15625 39.890625 26.703125 39.890625 
Q 22.75 39.890625 18.8125 39.015625 
Q 14.890625 38.140625 10.796875 36.28125 
z
" id="DejaVuSans-53"/>
     <path d="M 11.71875 12.40625 
L 22.015625 12.40625 
L 22.015625 0 
L 11.71875 0 
z
M 11.71875 51.703125 
L 22.015625 51.703125 
L 22.015625 39.3125 
L 11.71875 39.3125 
z
" id="DejaVuSans-58"/>
    </defs>
    <g transform="translate(60.41088 63.218895)scale(0.102 -0.102)">
     <use xlink:href="#DejaVuSans-53"/>
     <use x="63.623047" xlink:href="#DejaVuSans-56"/>
     <use x="127.246094" xlink:href="#DejaVuSans-32"/>
     <use x="159.033203" xlink:href="#DejaVuSans-116"/>
     <use x="198.242188" xlink:href="#DejaVuSans-97"/>
     <use x="259.521484" xlink:href="#DejaVuSans-114"/>
     <use x="300.619141" xlink:href="#DejaVuSans-103"/>
     <use x="364.095703" xlink:href="#DejaVuSans-101"/>
     <use x="425.619141" xlink:href="#DejaVuSans-116"/>
     <use x="464.828125" xlink:href="#DejaVuSans-115"/>
     <use x="516.927734" xlink:href="#DejaVuSans-58"/>
     <use x="550.619141" xlink:href="#DejaVuSans-32"/>
     <use x="582.40625" xlink:href="#DejaVuSans-49"/>
     <use x="646.029297" xlink:href="#DejaVuSans-46"/>
     <use x="677.816406" xlink:href="#DejaVuSans-46"/>
     <use x="709.603516" xlink:href="#DejaVuSans-45"/>
     <use x="745.6875" xlink:href="#DejaVuSans-49"/>
     <use x="809.310547" xlink:href="#DejaVuSans-46"/>
     <use x="841.097656" xlink:href="#DejaVuSans-48"/>
     <use x="904.720703" xlink:href="#DejaVuSans-101"/>
     <use x="966.244141" xlink:href="#DejaVuSans-45"/>
     <use x="1002.328125" xlink:href="#DejaVuSans-52"/>
    </g>
    <!-- 10 instances -->
    <g transform="translate(60.41088 74.640664)scale(0.102 -0.102)">
     <use xlink:href="#DejaVuSans-49"/>
     <use x="63.623047" xlink:href="#DejaVuSans-48"/>
     <use x="127.246094" xlink:href="#DejaVuSans-32"/>
     <use x="159.033203" xlink:href="#DejaVuSans-105"/>
     <use x="186.816406" xlink:href="#DejaVuSans-110"/>
     <use x="250.195312" xlink:href="#DejaVuSans-115"/>
     <use x="302.294922" xlink:href="#DejaVuSans-116"/>
     <use x="341.503906" xlink:href="#DejaVuSans-97"/>
     <use x="402.783203" xlink:href="#DejaVuSans-110"/>
     <use x="466.162109" xlink:href="#DejaVuSans-99"/>
     <use x="521.142578" xlink:href="#DejaVuSans-101"/>
     <use x="582.666016" xlink:href="#DejaVuSans-115"/>
    </g>
   </g>
   <g id="text_18">
    <!-- v2.3.1.31, hv-hash=ff0e71e8cd978373 -->
    <defs>
     <path d="M 40.578125 39.3125 
Q 47.65625 37.796875 51.625 33 
Q 55.609375 28.21875 55.609375 21.1875 
Q 55.609375 10.40625 48.1875 4.484375 
Q 40.765625 -1.421875 27.09375 -1.421875 
Q 22.515625 -1.421875 17.65625 -0.515625 
Q 12.796875 0.390625 7.625 2.203125 
L 7.625 11.71875 
Q 11.71875 9.328125 16.59375 8.109375 
Q 21.484375 6.890625 26.8125 6.890625 
Q 36.078125 6.890625 40.9375 10.546875 
Q 45.796875 14.203125 45.796875 21.1875 
Q 45.796875 27.640625 41.28125 31.265625 
Q 36.765625 34.90625 28.71875 34.90625 
L 20.21875 34.90625 
L 20.21875 43.015625 
L 29.109375 43.015625 
Q 36.375 43.015625 40.234375 45.921875 
Q 44.09375 48.828125 44.09375 54.296875 
Q 44.09375 59.90625 40.109375 62.90625 
Q 36.140625 65.921875 28.71875 65.921875 
Q 24.65625 65.921875 20.015625 65.03125 
Q 15.375 64.15625 9.8125 62.3125 
L 9.8125 71.09375 
Q 15.4375 72.65625 20.34375 73.4375 
Q 25.25 74.21875 29.59375 74.21875 
Q 40.828125 74.21875 47.359375 69.109375 
Q 53.90625 64.015625 53.90625 55.328125 
Q 53.90625 49.265625 50.4375 45.09375 
Q 46.96875 40.921875 40.578125 39.3125 
z
" id="DejaVuSans-51"/>
     <path d="M 54.890625 33.015625 
L 54.890625 0 
L 45.90625 0 
L 45.90625 32.71875 
Q 45.90625 40.484375 42.875 44.328125 
Q 39.84375 48.1875 33.796875 48.1875 
Q 26.515625 48.1875 22.3125 43.546875 
Q 18.109375 38.921875 18.109375 30.90625 
L 18.109375 0 
L 9.078125 0 
L 9.078125 75.984375 
L 18.109375 75.984375 
L 18.109375 46.1875 
Q 21.34375 51.125 25.703125 53.5625 
Q 30.078125 56 35.796875 56 
Q 45.21875 56 50.046875 50.171875 
Q 54.890625 44.34375 54.890625 33.015625 
z
" id="DejaVuSans-104"/>
     <path d="M 10.59375 45.40625 
L 73.1875 45.40625 
L 73.1875 37.203125 
L 10.59375 37.203125 
z
M 10.59375 25.484375 
L 73.1875 25.484375 
L 73.1875 17.1875 
L 10.59375 17.1875 
z
" id="DejaVuSans-61"/>
     <path d="M 8.203125 72.90625 
L 55.078125 72.90625 
L 55.078125 68.703125 
L 28.609375 0 
L 18.3125 0 
L 43.21875 64.59375 
L 8.203125 64.59375 
z
" id="DejaVuSans-55"/>
     <path d="M 10.984375 1.515625 
L 10.984375 10.5 
Q 14.703125 8.734375 18.5 7.8125 
Q 22.3125 6.890625 25.984375 6.890625 
Q 35.75 6.890625 40.890625 13.453125 
Q 46.046875 20.015625 46.78125 33.40625 
Q 43.953125 29.203125 39.59375 26.953125 
Q 35.25 24.703125 29.984375 24.703125 
Q 19.046875 24.703125 12.671875 31.3125 
Q 6.296875 37.9375 6.296875 49.421875 
Q 6.296875 60.640625 12.9375 67.421875 
Q 19.578125 74.21875 30.609375 74.21875 
Q 43.265625 74.21875 49.921875 64.515625 
Q 56.59375 54.828125 56.59375 36.375 
Q 56.59375 19.140625 48.40625 8.859375 
Q 40.234375 -1.421875 26.421875 -1.421875 
Q 22.703125 -1.421875 18.890625 -0.6875 
Q 15.09375 0.046875 10.984375 1.515625 
z
M 30.609375 32.421875 
Q 37.25 32.421875 41.125 36.953125 
Q 45.015625 41.5 45.015625 49.421875 
Q 45.015625 57.28125 41.125 61.84375 
Q 37.25 66.40625 30.609375 66.40625 
Q 23.96875 66.40625 20.09375 61.84375 
Q 16.21875 57.28125 16.21875 49.421875 
Q 16.21875 41.5 20.09375 36.953125 
Q 23.96875 32.421875 30.609375 32.421875 
z
" id="DejaVuSans-57"/>
    </defs>
    <g style="fill:#808080;" transform="translate(99.797125 294.289592)scale(0.1 -0.1)">
     <use xlink:href="#DejaVuSans-118"/>
     <use x="59.179688" xlink:href="#DejaVuSans-50"/>
     <use x="122.802734" xlink:href="#DejaVuSans-46"/>
     <use x="154.589844" xlink:href="#DejaVuSans-51"/>
     <use x="218.212891" xlink:href="#DejaVuSans-46"/>
     <use x="250" xlink:href="#DejaVuSans-49"/>
     <use x="313.623047" xlink:href="#DejaVuSans-46"/>
     <use x="345.410156" xlink:href="#DejaVuSans-51"/>
     <use x="409.033203" xlink:href="#DejaVuSans-49"/>
     <use x="472.65625" xlink:href="#DejaVuSans-44"/>
     <use x="504.443359" xlink:href="#DejaVuSans-32"/>
     <use x="536.230469" xlink:href="#DejaVuSans-104"/>
     <use x="599.609375" xlink:href="#DejaVuSans-118"/>
     <use x="658.757812" xlink:href="#DejaVuSans-45"/>
     <use x="694.841797" xlink:href="#DejaVuSans-104"/>
     <use x="758.220703" xlink:href="#DejaVuSans-97"/>
     <use x="819.5" xlink:href="#DejaVuSans-115"/>
     <use x="871.599609" xlink:href="#DejaVuSans-104"/>
     <use x="934.978516" xlink:href="#DejaVuSans-61"/>
     <use x="1018.767578" xlink:href="#DejaVuSans-102"/>
     <use x="1053.972656" xlink:href="#DejaVuSans-102"/>
     <use x="1089.177734" xlink:href="#DejaVuSans-48"/>
     <use x="1152.800781" xlink:href="#DejaVuSans-101"/>
     <use x="1214.324219" xlink:href="#DejaVuSans-55"/>
     <use x="1277.947266" xlink:href="#DejaVuSans-49"/>
     <use x="1341.570312" xlink:href="#DejaVuSans-101"/>
     <use x="1403.09375" xlink:href="#DejaVuSans-56"/>
     <use x="1466.716797" xlink:href="#DejaVuSans-99"/>
     <use x="1521.697266" xlink:href="#DejaVuSans-100"/>
     <use x="1585.173828" xlink:href="#DejaVuSans-57"/>
     <use x="1648.796875" xlink:href="#DejaVuSans-55"/>
     <use x="1712.419922" xlink:href="#DejaVuSans-56"/>
     <use x="1776.042969" xlink:href="#DejaVuSans-51"/>
     <use x="1839.666016" xlink:href="#DejaVuSans-55"/>
     <use x="1903.289062" xlink:href="#DejaVuSans-51"/>
    </g>
   </g>
   <g id="text_19">
    <!-- 6 Sphere/Different Powers -->
    <defs>
     <path d="M 4.203125 54.6875 
L 13.1875 54.6875 
L 24.421875 12.015625 
L 35.59375 54.6875 
L 46.1875 54.6875 
L 57.421875 12.015625 
L 68.609375 54.6875 
L 77.59375 54.6875 
L 63.28125 0 
L 52.6875 0 
L 40.921875 44.828125 
L 29.109375 0 
L 18.5 0 
z
" id="DejaVuSans-119"/>
    </defs>
    <g transform="translate(66.622125 35.472)scale(0.2 -0.2)">
     <use xlink:href="#DejaVuSans-54"/>
     <use x="63.623047" xlink:href="#DejaVuSans-32"/>
     <use x="95.410156" xlink:href="#DejaVuSans-83"/>
     <use x="158.886719" xlink:href="#DejaVuSans-112"/>
     <use x="222.363281" xlink:href="#DejaVuSans-104"/>
     <use x="285.742188" xlink:href="#DejaVuSans-101"/>
     <use x="347.265625" xlink:href="#DejaVuSans-114"/>
     <use x="388.347656" xlink:href="#DejaVuSans-101"/>
     <use x="449.871094" xlink:href="#DejaVuSans-47"/>
     <use x="483.5625" xlink:href="#DejaVuSans-68"/>
     <use x="560.564453" xlink:href="#DejaVuSans-105"/>
     <use x="588.347656" xlink:href="#DejaVuSans-102"/>
     <use x="623.552734" xlink:href="#DejaVuSans-102"/>
     <use x="658.757812" xlink:href="#DejaVuSans-101"/>
     <use x="720.28125" xlink:href="#DejaVuSans-114"/>
     <use x="761.363281" xlink:href="#DejaVuSans-101"/>
     <use x="822.886719" xlink:href="#DejaVuSans-110"/>
     <use x="886.265625" xlink:href="#DejaVuSans-116"/>
     <use x="925.474609" xlink:href="#DejaVuSans-32"/>
     <use x="957.261719" xlink:href="#DejaVuSans-80"/>
     <use x="1017.517578" xlink:href="#DejaVuSans-111"/>
     <use x="1078.699219" xlink:href="#DejaVuSans-119"/>
     <use x="1160.486328" xlink:href="#DejaVuSans-101"/>
     <use x="1222.009766" xlink:href="#DejaVuSans-114"/>
     <use x="1263.123047" xlink:href="#DejaVuSans-115"/>
    </g>
   </g>
  </g>
 </g>
 <defs>
  <clipPath id="p62980b7927">
   <rect height="257.472" width="281.088" x="57.6" y="41.472"/>
  </clipPath>
 </defs>
</svg>
