<?xml version="1.0" encoding="utf-8" standalone="no"?>
<!DOCTYPE svg PUBLIC "-//W3C//DTD SVG 1.1//EN"
  "http://www.w3.org/Graphics/SVG/1.1/DTD/svg11.dtd">
<!-- Created with matplotlib (http://matplotlib.org/) -->
<svg height="353pt" version="1.1" viewBox="0 0 506 353" width="506pt" xmlns="http://www.w3.org/2000/svg" xmlns:xlink="http://www.w3.org/1999/xlink">
 <defs>
  <style type="text/css">
*{stroke-linecap:butt;stroke-linejoin:round;}
  </style>
 </defs>
 <g id="figure_1">
  <g id="patch_1">
   <path d="M 0 353.22225 
L 506.0775 353.22225 
L 506.0775 0 
L 0 0 
z
" style="fill:#ffffff;"/>
  </g>
  <g id="axes_1">
   <g id="patch_2">
    <path d="M 70.8 298.245375 
L 427.92 298.245375 
L 427.92 32.133375 
L 70.8 32.133375 
z
" style="fill:#ffffff;"/>
   </g>
   <g id="matplotlib.axis_1">
    <g id="xtick_1">
     <g id="line2d_1">
      <path clip-path="url(#p6819888fd7)" d="M 70.8 298.245375 
L 70.8 32.133375 
" style="fill:none;stroke:#b0b0b0;stroke-linecap:square;stroke-width:0.8;"/>
     </g>
     <g id="line2d_2">
      <defs>
       <path d="M 0 0 
L 0 3.5 
" id="mf02ec9f16b" style="stroke:#000000;stroke-width:0.8;"/>
      </defs>
      <g>
       <use style="stroke:#000000;stroke-width:0.8;" x="70.8" xlink:href="#mf02ec9f16b" y="298.245375"/>
      </g>
     </g>
     <g id="text_1">
      <!-- 0 -->
      <defs>
       <path d="M 31.78125 66.40625 
Q 24.171875 66.40625 20.328125 58.90625 
Q 16.5 51.421875 16.5 36.375 
Q 16.5 21.390625 20.328125 13.890625 
Q 24.171875 6.390625 31.78125 6.390625 
Q 39.453125 6.390625 43.28125 13.890625 
Q 47.125 21.390625 47.125 36.375 
Q 47.125 51.421875 43.28125 58.90625 
Q 39.453125 66.40625 31.78125 66.40625 
z
M 31.78125 74.21875 
Q 44.046875 74.21875 50.515625 64.515625 
Q 56.984375 54.828125 56.984375 36.375 
Q 56.984375 17.96875 50.515625 8.265625 
Q 44.046875 -1.421875 31.78125 -1.421875 
Q 19.53125 -1.421875 13.0625 8.265625 
Q 6.59375 17.96875 6.59375 36.375 
Q 6.59375 54.828125 13.0625 64.515625 
Q 19.53125 74.21875 31.78125 74.21875 
z
" id="DejaVuSans-30"/>
      </defs>
      <g transform="translate(64.4375 320.44225)scale(0.2 -0.2)">
       <use xlink:href="#DejaVuSans-30"/>
      </g>
     </g>
    </g>
    <g id="xtick_2">
     <g id="line2d_3">
      <path clip-path="url(#p6819888fd7)" d="M 153.085714 298.245375 
L 153.085714 32.133375 
" style="fill:none;stroke:#b0b0b0;stroke-linecap:square;stroke-width:0.8;"/>
     </g>
     <g id="line2d_4">
      <g>
       <use style="stroke:#000000;stroke-width:0.8;" x="153.085714" xlink:href="#mf02ec9f16b" y="298.245375"/>
      </g>
     </g>
     <g id="text_2">
      <!-- 2 -->
      <defs>
       <path d="M 19.1875 8.296875 
L 53.609375 8.296875 
L 53.609375 0 
L 7.328125 0 
L 7.328125 8.296875 
Q 12.9375 14.109375 22.625 23.890625 
Q 32.328125 33.6875 34.8125 36.53125 
Q 39.546875 41.84375 41.421875 45.53125 
Q 43.3125 49.21875 43.3125 52.78125 
Q 43.3125 58.59375 39.234375 62.25 
Q 35.15625 65.921875 28.609375 65.921875 
Q 23.96875 65.921875 18.8125 64.3125 
Q 13.671875 62.703125 7.8125 59.421875 
L 7.8125 69.390625 
Q 13.765625 71.78125 18.9375 73 
Q 24.125 74.21875 28.421875 74.21875 
Q 39.75 74.21875 46.484375 68.546875 
Q 53.21875 62.890625 53.21875 53.421875 
Q 53.21875 48.921875 51.53125 44.890625 
Q 49.859375 40.875 45.40625 35.40625 
Q 44.1875 33.984375 37.640625 27.21875 
Q 31.109375 20.453125 19.1875 8.296875 
z
" id="DejaVuSans-32"/>
      </defs>
      <g transform="translate(146.723214 320.44225)scale(0.2 -0.2)">
       <use xlink:href="#DejaVuSans-32"/>
      </g>
     </g>
    </g>
    <g id="xtick_3">
     <g id="line2d_5">
      <path clip-path="url(#p6819888fd7)" d="M 235.371429 298.245375 
L 235.371429 32.133375 
" style="fill:none;stroke:#b0b0b0;stroke-linecap:square;stroke-width:0.8;"/>
     </g>
     <g id="line2d_6">
      <g>
       <use style="stroke:#000000;stroke-width:0.8;" x="235.371429" xlink:href="#mf02ec9f16b" y="298.245375"/>
      </g>
     </g>
     <g id="text_3">
      <!-- 4 -->
      <defs>
       <path d="M 37.796875 64.3125 
L 12.890625 25.390625 
L 37.796875 25.390625 
z
M 35.203125 72.90625 
L 47.609375 72.90625 
L 47.609375 25.390625 
L 58.015625 25.390625 
L 58.015625 17.1875 
L 47.609375 17.1875 
L 47.609375 0 
L 37.796875 0 
L 37.796875 17.1875 
L 4.890625 17.1875 
L 4.890625 26.703125 
z
" id="DejaVuSans-34"/>
      </defs>
      <g transform="translate(229.008929 320.44225)scale(0.2 -0.2)">
       <use xlink:href="#DejaVuSans-34"/>
      </g>
     </g>
    </g>
    <g id="xtick_4">
     <g id="line2d_7">
      <path clip-path="url(#p6819888fd7)" d="M 317.657143 298.245375 
L 317.657143 32.133375 
" style="fill:none;stroke:#b0b0b0;stroke-linecap:square;stroke-width:0.8;"/>
     </g>
     <g id="line2d_8">
      <g>
       <use style="stroke:#000000;stroke-width:0.8;" x="317.657143" xlink:href="#mf02ec9f16b" y="298.245375"/>
      </g>
     </g>
     <g id="text_4">
      <!-- 6 -->
      <defs>
       <path d="M 33.015625 40.375 
Q 26.375 40.375 22.484375 35.828125 
Q 18.609375 31.296875 18.609375 23.390625 
Q 18.609375 15.53125 22.484375 10.953125 
Q 26.375 6.390625 33.015625 6.390625 
Q 39.65625 6.390625 43.53125 10.953125 
Q 47.40625 15.53125 47.40625 23.390625 
Q 47.40625 31.296875 43.53125 35.828125 
Q 39.65625 40.375 33.015625 40.375 
z
M 52.59375 71.296875 
L 52.59375 62.3125 
Q 48.875 64.0625 45.09375 64.984375 
Q 41.3125 65.921875 37.59375 65.921875 
Q 27.828125 65.921875 22.671875 59.328125 
Q 17.53125 52.734375 16.796875 39.40625 
Q 19.671875 43.65625 24.015625 45.921875 
Q 28.375 48.1875 33.59375 48.1875 
Q 44.578125 48.1875 50.953125 41.515625 
Q 57.328125 34.859375 57.328125 23.390625 
Q 57.328125 12.15625 50.6875 5.359375 
Q 44.046875 -1.421875 33.015625 -1.421875 
Q 20.359375 -1.421875 13.671875 8.265625 
Q 6.984375 17.96875 6.984375 36.375 
Q 6.984375 53.65625 15.1875 63.9375 
Q 23.390625 74.21875 37.203125 74.21875 
Q 40.921875 74.21875 44.703125 73.484375 
Q 48.484375 72.75 52.59375 71.296875 
z
" id="DejaVuSans-36"/>
      </defs>
      <g transform="translate(311.294643 320.44225)scale(0.2 -0.2)">
       <use xlink:href="#DejaVuSans-36"/>
      </g>
     </g>
    </g>
    <g id="xtick_5">
     <g id="line2d_9">
      <path clip-path="url(#p6819888fd7)" d="M 399.942857 298.245375 
L 399.942857 32.133375 
" style="fill:none;stroke:#b0b0b0;stroke-linecap:square;stroke-width:0.8;"/>
     </g>
     <g id="line2d_10">
      <g>
       <use style="stroke:#000000;stroke-width:0.8;" x="399.942857" xlink:href="#mf02ec9f16b" y="298.245375"/>
      </g>
     </g>
     <g id="text_5">
      <!-- 8 -->
      <defs>
       <path d="M 31.78125 34.625 
Q 24.75 34.625 20.71875 30.859375 
Q 16.703125 27.09375 16.703125 20.515625 
Q 16.703125 13.921875 20.71875 10.15625 
Q 24.75 6.390625 31.78125 6.390625 
Q 38.8125 6.390625 42.859375 10.171875 
Q 46.921875 13.96875 46.921875 20.515625 
Q 46.921875 27.09375 42.890625 30.859375 
Q 38.875 34.625 31.78125 34.625 
z
M 21.921875 38.8125 
Q 15.578125 40.375 12.03125 44.71875 
Q 8.5 49.078125 8.5 55.328125 
Q 8.5 64.0625 14.71875 69.140625 
Q 20.953125 74.21875 31.78125 74.21875 
Q 42.671875 74.21875 48.875 69.140625 
Q 55.078125 64.0625 55.078125 55.328125 
Q 55.078125 49.078125 51.53125 44.71875 
Q 48 40.375 41.703125 38.8125 
Q 48.828125 37.15625 52.796875 32.3125 
Q 56.78125 27.484375 56.78125 20.515625 
Q 56.78125 9.90625 50.3125 4.234375 
Q 43.84375 -1.421875 31.78125 -1.421875 
Q 19.734375 -1.421875 13.25 4.234375 
Q 6.78125 9.90625 6.78125 20.515625 
Q 6.78125 27.484375 10.78125 32.3125 
Q 14.796875 37.15625 21.921875 38.8125 
z
M 18.3125 54.390625 
Q 18.3125 48.734375 21.84375 45.5625 
Q 25.390625 42.390625 31.78125 42.390625 
Q 38.140625 42.390625 41.71875 45.5625 
Q 45.3125 48.734375 45.3125 54.390625 
Q 45.3125 60.0625 41.71875 63.234375 
Q 38.140625 66.40625 31.78125 66.40625 
Q 25.390625 66.40625 21.84375 63.234375 
Q 18.3125 60.0625 18.3125 54.390625 
z
" id="DejaVuSans-38"/>
      </defs>
      <g transform="translate(393.580357 320.44225)scale(0.2 -0.2)">
       <use xlink:href="#DejaVuSans-38"/>
      </g>
     </g>
    </g>
    <g id="text_6">
     <!-- log10 of # (f+g)-evals / dimension -->
     <defs>
      <path d="M 9.421875 75.984375 
L 18.40625 75.984375 
L 18.40625 0 
L 9.421875 0 
z
" id="DejaVuSans-6c"/>
      <path d="M 30.609375 48.390625 
Q 23.390625 48.390625 19.1875 42.75 
Q 14.984375 37.109375 14.984375 27.296875 
Q 14.984375 17.484375 19.15625 11.84375 
Q 23.34375 6.203125 30.609375 6.203125 
Q 37.796875 6.203125 41.984375 11.859375 
Q 46.1875 17.53125 46.1875 27.296875 
Q 46.1875 37.015625 41.984375 42.703125 
Q 37.796875 48.390625 30.609375 48.390625 
z
M 30.609375 56 
Q 42.328125 56 49.015625 48.375 
Q 55.71875 40.765625 55.71875 27.296875 
Q 55.71875 13.875 49.015625 6.21875 
Q 42.328125 -1.421875 30.609375 -1.421875 
Q 18.84375 -1.421875 12.171875 6.21875 
Q 5.515625 13.875 5.515625 27.296875 
Q 5.515625 40.765625 12.171875 48.375 
Q 18.84375 56 30.609375 56 
z
" id="DejaVuSans-6f"/>
      <path d="M 45.40625 27.984375 
Q 45.40625 37.75 41.375 43.109375 
Q 37.359375 48.484375 30.078125 48.484375 
Q 22.859375 48.484375 18.828125 43.109375 
Q 14.796875 37.75 14.796875 27.984375 
Q 14.796875 18.265625 18.828125 12.890625 
Q 22.859375 7.515625 30.078125 7.515625 
Q 37.359375 7.515625 41.375 12.890625 
Q 45.40625 18.265625 45.40625 27.984375 
z
M 54.390625 6.78125 
Q 54.390625 -7.171875 48.1875 -13.984375 
Q 42 -20.796875 29.203125 -20.796875 
Q 24.46875 -20.796875 20.265625 -20.09375 
Q 16.0625 -19.390625 12.109375 -17.921875 
L 12.109375 -9.1875 
Q 16.0625 -11.328125 19.921875 -12.34375 
Q 23.78125 -13.375 27.78125 -13.375 
Q 36.625 -13.375 41.015625 -8.765625 
Q 45.40625 -4.15625 45.40625 5.171875 
L 45.40625 9.625 
Q 42.625 4.78125 38.28125 2.390625 
Q 33.9375 0 27.875 0 
Q 17.828125 0 11.671875 7.65625 
Q 5.515625 15.328125 5.515625 27.984375 
Q 5.515625 40.671875 11.671875 48.328125 
Q 17.828125 56 27.875 56 
Q 33.9375 56 38.28125 53.609375 
Q 42.625 51.21875 45.40625 46.390625 
L 45.40625 54.6875 
L 54.390625 54.6875 
z
" id="DejaVuSans-67"/>
      <path d="M 12.40625 8.296875 
L 28.515625 8.296875 
L 28.515625 63.921875 
L 10.984375 60.40625 
L 10.984375 69.390625 
L 28.421875 72.90625 
L 38.28125 72.90625 
L 38.28125 8.296875 
L 54.390625 8.296875 
L 54.390625 0 
L 12.40625 0 
z
" id="DejaVuSans-31"/>
      <path id="DejaVuSans-20"/>
      <path d="M 37.109375 75.984375 
L 37.109375 68.5 
L 28.515625 68.5 
Q 23.6875 68.5 21.796875 66.546875 
Q 19.921875 64.59375 19.921875 59.515625 
L 19.921875 54.6875 
L 34.71875 54.6875 
L 34.71875 47.703125 
L 19.921875 47.703125 
L 19.921875 0 
L 10.890625 0 
L 10.890625 47.703125 
L 2.296875 47.703125 
L 2.296875 54.6875 
L 10.890625 54.6875 
L 10.890625 58.5 
Q 10.890625 67.625 15.140625 71.796875 
Q 19.390625 75.984375 28.609375 75.984375 
z
" id="DejaVuSans-66"/>
      <path d="M 51.125 44 
L 36.921875 44 
L 32.8125 27.6875 
L 47.125 27.6875 
z
M 43.796875 71.78125 
L 38.71875 51.515625 
L 52.984375 51.515625 
L 58.109375 71.78125 
L 65.921875 71.78125 
L 60.890625 51.515625 
L 76.125 51.515625 
L 76.125 44 
L 58.984375 44 
L 54.984375 27.6875 
L 70.515625 27.6875 
L 70.515625 20.21875 
L 53.078125 20.21875 
L 48 0 
L 40.1875 0 
L 45.21875 20.21875 
L 30.90625 20.21875 
L 25.875 0 
L 18.015625 0 
L 23.09375 20.21875 
L 7.71875 20.21875 
L 7.71875 27.6875 
L 24.90625 27.6875 
L 29 44 
L 13.28125 44 
L 13.28125 51.515625 
L 30.90625 51.515625 
L 35.890625 71.78125 
z
" id="DejaVuSans-23"/>
      <path d="M 31 75.875 
Q 24.46875 64.65625 21.28125 53.65625 
Q 18.109375 42.671875 18.109375 31.390625 
Q 18.109375 20.125 21.3125 9.0625 
Q 24.515625 -2 31 -13.1875 
L 23.1875 -13.1875 
Q 15.875 -1.703125 12.234375 9.375 
Q 8.59375 20.453125 8.59375 31.390625 
Q 8.59375 42.28125 12.203125 53.3125 
Q 15.828125 64.359375 23.1875 75.875 
z
" id="DejaVuSans-28"/>
      <path d="M 46 62.703125 
L 46 35.5 
L 73.1875 35.5 
L 73.1875 27.203125 
L 46 27.203125 
L 46 0 
L 37.796875 0 
L 37.796875 27.203125 
L 10.59375 27.203125 
L 10.59375 35.5 
L 37.796875 35.5 
L 37.796875 62.703125 
z
" id="DejaVuSans-2b"/>
      <path d="M 8.015625 75.875 
L 15.828125 75.875 
Q 23.140625 64.359375 26.78125 53.3125 
Q 30.421875 42.28125 30.421875 31.390625 
Q 30.421875 20.453125 26.78125 9.375 
Q 23.140625 -1.703125 15.828125 -13.1875 
L 8.015625 -13.1875 
Q 14.5 -2 17.703125 9.0625 
Q 20.90625 20.125 20.90625 31.390625 
Q 20.90625 42.671875 17.703125 53.65625 
Q 14.5 64.65625 8.015625 75.875 
z
" id="DejaVuSans-29"/>
      <path d="M 4.890625 31.390625 
L 31.203125 31.390625 
L 31.203125 23.390625 
L 4.890625 23.390625 
z
" id="DejaVuSans-2d"/>
      <path d="M 56.203125 29.59375 
L 56.203125 25.203125 
L 14.890625 25.203125 
Q 15.484375 15.921875 20.484375 11.0625 
Q 25.484375 6.203125 34.421875 6.203125 
Q 39.59375 6.203125 44.453125 7.46875 
Q 49.3125 8.734375 54.109375 11.28125 
L 54.109375 2.78125 
Q 49.265625 0.734375 44.1875 -0.34375 
Q 39.109375 -1.421875 33.890625 -1.421875 
Q 20.796875 -1.421875 13.15625 6.1875 
Q 5.515625 13.8125 5.515625 26.8125 
Q 5.515625 40.234375 12.765625 48.109375 
Q 20.015625 56 32.328125 56 
Q 43.359375 56 49.78125 48.890625 
Q 56.203125 41.796875 56.203125 29.59375 
z
M 47.21875 32.234375 
Q 47.125 39.59375 43.09375 43.984375 
Q 39.0625 48.390625 32.421875 48.390625 
Q 24.90625 48.390625 20.390625 44.140625 
Q 15.875 39.890625 15.1875 32.171875 
z
" id="DejaVuSans-65"/>
      <path d="M 2.984375 54.6875 
L 12.5 54.6875 
L 29.59375 8.796875 
L 46.6875 54.6875 
L 56.203125 54.6875 
L 35.6875 0 
L 23.484375 0 
z
" id="DejaVuSans-76"/>
      <path d="M 34.28125 27.484375 
Q 23.390625 27.484375 19.1875 25 
Q 14.984375 22.515625 14.984375 16.5 
Q 14.984375 11.71875 18.140625 8.90625 
Q 21.296875 6.109375 26.703125 6.109375 
Q 34.1875 6.109375 38.703125 11.40625 
Q 43.21875 16.703125 43.21875 25.484375 
L 43.21875 27.484375 
z
M 52.203125 31.203125 
L 52.203125 0 
L 43.21875 0 
L 43.21875 8.296875 
Q 40.140625 3.328125 35.546875 0.953125 
Q 30.953125 -1.421875 24.3125 -1.421875 
Q 15.921875 -1.421875 10.953125 3.296875 
Q 6 8.015625 6 15.921875 
Q 6 25.140625 12.171875 29.828125 
Q 18.359375 34.515625 30.609375 34.515625 
L 43.21875 34.515625 
L 43.21875 35.40625 
Q 43.21875 41.609375 39.140625 45 
Q 35.0625 48.390625 27.6875 48.390625 
Q 23 48.390625 18.546875 47.265625 
Q 14.109375 46.140625 10.015625 43.890625 
L 10.015625 52.203125 
Q 14.9375 54.109375 19.578125 55.046875 
Q 24.21875 56 28.609375 56 
Q 40.484375 56 46.34375 49.84375 
Q 52.203125 43.703125 52.203125 31.203125 
z
" id="DejaVuSans-61"/>
      <path d="M 44.28125 53.078125 
L 44.28125 44.578125 
Q 40.484375 46.53125 36.375 47.5 
Q 32.28125 48.484375 27.875 48.484375 
Q 21.1875 48.484375 17.84375 46.4375 
Q 14.5 44.390625 14.5 40.28125 
Q 14.5 37.15625 16.890625 35.375 
Q 19.28125 33.59375 26.515625 31.984375 
L 29.59375 31.296875 
Q 39.15625 29.25 43.1875 25.515625 
Q 47.21875 21.78125 47.21875 15.09375 
Q 47.21875 7.46875 41.1875 3.015625 
Q 35.15625 -1.421875 24.609375 -1.421875 
Q 20.21875 -1.421875 15.453125 -0.5625 
Q 10.6875 0.296875 5.421875 2 
L 5.421875 11.28125 
Q 10.40625 8.6875 15.234375 7.390625 
Q 20.0625 6.109375 24.8125 6.109375 
Q 31.15625 6.109375 34.5625 8.28125 
Q 37.984375 10.453125 37.984375 14.40625 
Q 37.984375 18.0625 35.515625 20.015625 
Q 33.0625 21.96875 24.703125 23.78125 
L 21.578125 24.515625 
Q 13.234375 26.265625 9.515625 29.90625 
Q 5.8125 33.546875 5.8125 39.890625 
Q 5.8125 47.609375 11.28125 51.796875 
Q 16.75 56 26.8125 56 
Q 31.78125 56 36.171875 55.265625 
Q 40.578125 54.546875 44.28125 53.078125 
z
" id="DejaVuSans-73"/>
      <path d="M 25.390625 72.90625 
L 33.6875 72.90625 
L 8.296875 -9.28125 
L 0 -9.28125 
z
" id="DejaVuSans-2f"/>
      <path d="M 45.40625 46.390625 
L 45.40625 75.984375 
L 54.390625 75.984375 
L 54.390625 0 
L 45.40625 0 
L 45.40625 8.203125 
Q 42.578125 3.328125 38.25 0.953125 
Q 33.9375 -1.421875 27.875 -1.421875 
Q 17.96875 -1.421875 11.734375 6.484375 
Q 5.515625 14.40625 5.515625 27.296875 
Q 5.515625 40.1875 11.734375 48.09375 
Q 17.96875 56 27.875 56 
Q 33.9375 56 38.25 53.625 
Q 42.578125 51.265625 45.40625 46.390625 
z
M 14.796875 27.296875 
Q 14.796875 17.390625 18.875 11.75 
Q 22.953125 6.109375 30.078125 6.109375 
Q 37.203125 6.109375 41.296875 11.75 
Q 45.40625 17.390625 45.40625 27.296875 
Q 45.40625 37.203125 41.296875 42.84375 
Q 37.203125 48.484375 30.078125 48.484375 
Q 22.953125 48.484375 18.875 42.84375 
Q 14.796875 37.203125 14.796875 27.296875 
z
" id="DejaVuSans-64"/>
      <path d="M 9.421875 54.6875 
L 18.40625 54.6875 
L 18.40625 0 
L 9.421875 0 
z
M 9.421875 75.984375 
L 18.40625 75.984375 
L 18.40625 64.59375 
L 9.421875 64.59375 
z
" id="DejaVuSans-69"/>
      <path d="M 52 44.1875 
Q 55.375 50.25 60.0625 53.125 
Q 64.75 56 71.09375 56 
Q 79.640625 56 84.28125 50.015625 
Q 88.921875 44.046875 88.921875 33.015625 
L 88.921875 0 
L 79.890625 0 
L 79.890625 32.71875 
Q 79.890625 40.578125 77.09375 44.375 
Q 74.3125 48.1875 68.609375 48.1875 
Q 61.625 48.1875 57.5625 43.546875 
Q 53.515625 38.921875 53.515625 30.90625 
L 53.515625 0 
L 44.484375 0 
L 44.484375 32.71875 
Q 44.484375 40.625 41.703125 44.40625 
Q 38.921875 48.1875 33.109375 48.1875 
Q 26.21875 48.1875 22.15625 43.53125 
Q 18.109375 38.875 18.109375 30.90625 
L 18.109375 0 
L 9.078125 0 
L 9.078125 54.6875 
L 18.109375 54.6875 
L 18.109375 46.1875 
Q 21.1875 51.21875 25.484375 53.609375 
Q 29.78125 56 35.6875 56 
Q 41.65625 56 45.828125 52.96875 
Q 50 49.953125 52 44.1875 
z
" id="DejaVuSans-6d"/>
      <path d="M 54.890625 33.015625 
L 54.890625 0 
L 45.90625 0 
L 45.90625 32.71875 
Q 45.90625 40.484375 42.875 44.328125 
Q 39.84375 48.1875 33.796875 48.1875 
Q 26.515625 48.1875 22.3125 43.546875 
Q 18.109375 38.921875 18.109375 30.90625 
L 18.109375 0 
L 9.078125 0 
L 9.078125 54.6875 
L 18.109375 54.6875 
L 18.109375 46.1875 
Q 21.34375 51.125 25.703125 53.5625 
Q 30.078125 56 35.796875 56 
Q 45.21875 56 50.046875 50.171875 
Q 54.890625 44.34375 54.890625 33.015625 
z
" id="DejaVuSans-6e"/>
     </defs>
     <g transform="translate(93.752813 342.278812)scale(0.18 -0.18)">
      <use xlink:href="#DejaVuSans-6c"/>
      <use x="27.783203" xlink:href="#DejaVuSans-6f"/>
      <use x="88.964844" xlink:href="#DejaVuSans-67"/>
      <use x="152.441406" xlink:href="#DejaVuSans-31"/>
      <use x="216.064453" xlink:href="#DejaVuSans-30"/>
      <use x="279.6875" xlink:href="#DejaVuSans-20"/>
      <use x="311.474609" xlink:href="#DejaVuSans-6f"/>
      <use x="372.65625" xlink:href="#DejaVuSans-66"/>
      <use x="407.861328" xlink:href="#DejaVuSans-20"/>
      <use x="439.648438" xlink:href="#DejaVuSans-23"/>
      <use x="523.4375" xlink:href="#DejaVuSans-20"/>
      <use x="555.224609" xlink:href="#DejaVuSans-28"/>
      <use x="594.238281" xlink:href="#DejaVuSans-66"/>
      <use x="629.443359" xlink:href="#DejaVuSans-2b"/>
      <use x="713.232422" xlink:href="#DejaVuSans-67"/>
      <use x="776.708984" xlink:href="#DejaVuSans-29"/>
      <use x="815.722656" xlink:href="#DejaVuSans-2d"/>
      <use x="851.806641" xlink:href="#DejaVuSans-65"/>
      <use x="913.330078" xlink:href="#DejaVuSans-76"/>
      <use x="972.509766" xlink:href="#DejaVuSans-61"/>
      <use x="1033.789062" xlink:href="#DejaVuSans-6c"/>
      <use x="1061.572266" xlink:href="#DejaVuSans-73"/>
      <use x="1113.671875" xlink:href="#DejaVuSans-20"/>
      <use x="1145.458984" xlink:href="#DejaVuSans-2f"/>
      <use x="1179.150391" xlink:href="#DejaVuSans-20"/>
      <use x="1210.9375" xlink:href="#DejaVuSans-64"/>
      <use x="1274.414062" xlink:href="#DejaVuSans-69"/>
      <use x="1302.197266" xlink:href="#DejaVuSans-6d"/>
      <use x="1399.609375" xlink:href="#DejaVuSans-65"/>
      <use x="1461.132812" xlink:href="#DejaVuSans-6e"/>
      <use x="1524.511719" xlink:href="#DejaVuSans-73"/>
      <use x="1576.611328" xlink:href="#DejaVuSans-69"/>
      <use x="1604.394531" xlink:href="#DejaVuSans-6f"/>
      <use x="1665.576172" xlink:href="#DejaVuSans-6e"/>
     </g>
    </g>
   </g>
   <g id="matplotlib.axis_2">
    <g id="ytick_1">
     <g id="line2d_11">
      <path clip-path="url(#p6819888fd7)" d="M 70.8 298.245375 
L 427.92 298.245375 
" style="fill:none;stroke:#b0b0b0;stroke-linecap:square;stroke-width:0.8;"/>
     </g>
     <g id="line2d_12">
      <defs>
       <path d="M 0 0 
L -3.5 0 
" id="md0ecbbbcd9" style="stroke:#000000;stroke-width:0.8;"/>
      </defs>
      <g>
       <use style="stroke:#000000;stroke-width:0.8;" x="70.8" xlink:href="#md0ecbbbcd9" y="298.245375"/>
      </g>
     </g>
     <g id="text_7">
      <!-- 0.0 -->
      <defs>
       <path d="M 10.6875 12.40625 
L 21 12.40625 
L 21 0 
L 10.6875 0 
z
" id="DejaVuSans-2e"/>
      </defs>
      <g transform="translate(31.99375 305.843812)scale(0.2 -0.2)">
       <use xlink:href="#DejaVuSans-30"/>
       <use x="63.623047" xlink:href="#DejaVuSans-2e"/>
       <use x="95.410156" xlink:href="#DejaVuSans-30"/>
      </g>
     </g>
    </g>
    <g id="ytick_2">
     <g id="line2d_13">
      <path clip-path="url(#p6819888fd7)" d="M 70.8 245.549929 
L 427.92 245.549929 
" style="fill:none;stroke:#b0b0b0;stroke-linecap:square;stroke-width:0.8;"/>
     </g>
     <g id="line2d_14">
      <g>
       <use style="stroke:#000000;stroke-width:0.8;" x="70.8" xlink:href="#md0ecbbbcd9" y="245.549929"/>
      </g>
     </g>
     <g id="text_8">
      <!-- 0.2 -->
      <g transform="translate(31.99375 253.148367)scale(0.2 -0.2)">
       <use xlink:href="#DejaVuSans-30"/>
       <use x="63.623047" xlink:href="#DejaVuSans-2e"/>
       <use x="95.410156" xlink:href="#DejaVuSans-32"/>
      </g>
     </g>
    </g>
    <g id="ytick_3">
     <g id="line2d_15">
      <path clip-path="url(#p6819888fd7)" d="M 70.8 192.854484 
L 427.92 192.854484 
" style="fill:none;stroke:#b0b0b0;stroke-linecap:square;stroke-width:0.8;"/>
     </g>
     <g id="line2d_16">
      <g>
       <use style="stroke:#000000;stroke-width:0.8;" x="70.8" xlink:href="#md0ecbbbcd9" y="192.854484"/>
      </g>
     </g>
     <g id="text_9">
      <!-- 0.4 -->
      <g transform="translate(31.99375 200.452921)scale(0.2 -0.2)">
       <use xlink:href="#DejaVuSans-30"/>
       <use x="63.623047" xlink:href="#DejaVuSans-2e"/>
       <use x="95.410156" xlink:href="#DejaVuSans-34"/>
      </g>
     </g>
    </g>
    <g id="ytick_4">
     <g id="line2d_17">
      <path clip-path="url(#p6819888fd7)" d="M 70.8 140.159038 
L 427.92 140.159038 
" style="fill:none;stroke:#b0b0b0;stroke-linecap:square;stroke-width:0.8;"/>
     </g>
     <g id="line2d_18">
      <g>
       <use style="stroke:#000000;stroke-width:0.8;" x="70.8" xlink:href="#md0ecbbbcd9" y="140.159038"/>
      </g>
     </g>
     <g id="text_10">
      <!-- 0.6 -->
      <g transform="translate(31.99375 147.757476)scale(0.2 -0.2)">
       <use xlink:href="#DejaVuSans-30"/>
       <use x="63.623047" xlink:href="#DejaVuSans-2e"/>
       <use x="95.410156" xlink:href="#DejaVuSans-36"/>
      </g>
     </g>
    </g>
    <g id="ytick_5">
     <g id="line2d_19">
      <path clip-path="url(#p6819888fd7)" d="M 70.8 87.463593 
L 427.92 87.463593 
" style="fill:none;stroke:#b0b0b0;stroke-linecap:square;stroke-width:0.8;"/>
     </g>
     <g id="line2d_20">
      <g>
       <use style="stroke:#000000;stroke-width:0.8;" x="70.8" xlink:href="#md0ecbbbcd9" y="87.463593"/>
      </g>
     </g>
     <g id="text_11">
      <!-- 0.8 -->
      <g transform="translate(31.99375 95.06203)scale(0.2 -0.2)">
       <use xlink:href="#DejaVuSans-30"/>
       <use x="63.623047" xlink:href="#DejaVuSans-2e"/>
       <use x="95.410156" xlink:href="#DejaVuSans-38"/>
      </g>
     </g>
    </g>
    <g id="ytick_6">
     <g id="line2d_21">
      <path clip-path="url(#p6819888fd7)" d="M 70.8 34.768147 
L 427.92 34.768147 
" style="fill:none;stroke:#b0b0b0;stroke-linecap:square;stroke-width:0.8;"/>
     </g>
     <g id="line2d_22">
      <g>
       <use style="stroke:#000000;stroke-width:0.8;" x="70.8" xlink:href="#md0ecbbbcd9" y="34.768147"/>
      </g>
     </g>
     <g id="text_12">
      <!-- 1.0 -->
      <g transform="translate(31.99375 42.366585)scale(0.2 -0.2)">
       <use xlink:href="#DejaVuSans-31"/>
       <use x="63.623047" xlink:href="#DejaVuSans-2e"/>
       <use x="95.410156" xlink:href="#DejaVuSans-30"/>
      </g>
     </g>
    </g>
    <g id="text_13">
     <!-- Proportion of function+target pairs -->
     <defs>
      <path d="M 19.671875 64.796875 
L 19.671875 37.40625 
L 32.078125 37.40625 
Q 38.96875 37.40625 42.71875 40.96875 
Q 46.484375 44.53125 46.484375 51.125 
Q 46.484375 57.671875 42.71875 61.234375 
Q 38.96875 64.796875 32.078125 64.796875 
z
M 9.8125 72.90625 
L 32.078125 72.90625 
Q 44.34375 72.90625 50.609375 67.359375 
Q 56.890625 61.8125 56.890625 51.125 
Q 56.890625 40.328125 50.609375 34.8125 
Q 44.34375 29.296875 32.078125 29.296875 
L 19.671875 29.296875 
L 19.671875 0 
L 9.8125 0 
z
" id="DejaVuSans-50"/>
      <path d="M 41.109375 46.296875 
Q 39.59375 47.171875 37.8125 47.578125 
Q 36.03125 48 33.890625 48 
Q 26.265625 48 22.1875 43.046875 
Q 18.109375 38.09375 18.109375 28.8125 
L 18.109375 0 
L 9.078125 0 
L 9.078125 54.6875 
L 18.109375 54.6875 
L 18.109375 46.1875 
Q 20.953125 51.171875 25.484375 53.578125 
Q 30.03125 56 36.53125 56 
Q 37.453125 56 38.578125 55.875 
Q 39.703125 55.765625 41.0625 55.515625 
z
" id="DejaVuSans-72"/>
      <path d="M 18.109375 8.203125 
L 18.109375 -20.796875 
L 9.078125 -20.796875 
L 9.078125 54.6875 
L 18.109375 54.6875 
L 18.109375 46.390625 
Q 20.953125 51.265625 25.265625 53.625 
Q 29.59375 56 35.59375 56 
Q 45.5625 56 51.78125 48.09375 
Q 58.015625 40.1875 58.015625 27.296875 
Q 58.015625 14.40625 51.78125 6.484375 
Q 45.5625 -1.421875 35.59375 -1.421875 
Q 29.59375 -1.421875 25.265625 0.953125 
Q 20.953125 3.328125 18.109375 8.203125 
z
M 48.6875 27.296875 
Q 48.6875 37.203125 44.609375 42.84375 
Q 40.53125 48.484375 33.40625 48.484375 
Q 26.265625 48.484375 22.1875 42.84375 
Q 18.109375 37.203125 18.109375 27.296875 
Q 18.109375 17.390625 22.1875 11.75 
Q 26.265625 6.109375 33.40625 6.109375 
Q 40.53125 6.109375 44.609375 11.75 
Q 48.6875 17.390625 48.6875 27.296875 
z
" id="DejaVuSans-70"/>
      <path d="M 18.3125 70.21875 
L 18.3125 54.6875 
L 36.8125 54.6875 
L 36.8125 47.703125 
L 18.3125 47.703125 
L 18.3125 18.015625 
Q 18.3125 11.328125 20.140625 9.421875 
Q 21.96875 7.515625 27.59375 7.515625 
L 36.8125 7.515625 
L 36.8125 0 
L 27.59375 0 
Q 17.1875 0 13.234375 3.875 
Q 9.28125 7.765625 9.28125 18.015625 
L 9.28125 47.703125 
L 2.6875 47.703125 
L 2.6875 54.6875 
L 9.28125 54.6875 
L 9.28125 70.21875 
z
" id="DejaVuSans-74"/>
      <path d="M 8.5 21.578125 
L 8.5 54.6875 
L 17.484375 54.6875 
L 17.484375 21.921875 
Q 17.484375 14.15625 20.5 10.265625 
Q 23.53125 6.390625 29.59375 6.390625 
Q 36.859375 6.390625 41.078125 11.03125 
Q 45.3125 15.671875 45.3125 23.6875 
L 45.3125 54.6875 
L 54.296875 54.6875 
L 54.296875 0 
L 45.3125 0 
L 45.3125 8.40625 
Q 42.046875 3.421875 37.71875 1 
Q 33.40625 -1.421875 27.6875 -1.421875 
Q 18.265625 -1.421875 13.375 4.4375 
Q 8.5 10.296875 8.5 21.578125 
z
M 31.109375 56 
z
" id="DejaVuSans-75"/>
      <path d="M 48.78125 52.59375 
L 48.78125 44.1875 
Q 44.96875 46.296875 41.140625 47.34375 
Q 37.3125 48.390625 33.40625 48.390625 
Q 24.65625 48.390625 19.8125 42.84375 
Q 14.984375 37.3125 14.984375 27.296875 
Q 14.984375 17.28125 19.8125 11.734375 
Q 24.65625 6.203125 33.40625 6.203125 
Q 37.3125 6.203125 41.140625 7.25 
Q 44.96875 8.296875 48.78125 10.40625 
L 48.78125 2.09375 
Q 45.015625 0.34375 40.984375 -0.53125 
Q 36.96875 -1.421875 32.421875 -1.421875 
Q 20.0625 -1.421875 12.78125 6.34375 
Q 5.515625 14.109375 5.515625 27.296875 
Q 5.515625 40.671875 12.859375 48.328125 
Q 20.21875 56 33.015625 56 
Q 37.15625 56 41.109375 55.140625 
Q 45.0625 54.296875 48.78125 52.59375 
z
" id="DejaVuSans-63"/>
     </defs>
     <g transform="translate(24.250312 323.17875)rotate(-90)scale(0.18 -0.18)">
      <use xlink:href="#DejaVuSans-50"/>
      <use x="60.287109" xlink:href="#DejaVuSans-72"/>
      <use x="101.369141" xlink:href="#DejaVuSans-6f"/>
      <use x="162.550781" xlink:href="#DejaVuSans-70"/>
      <use x="226.027344" xlink:href="#DejaVuSans-6f"/>
      <use x="287.208984" xlink:href="#DejaVuSans-72"/>
      <use x="328.322266" xlink:href="#DejaVuSans-74"/>
      <use x="367.53125" xlink:href="#DejaVuSans-69"/>
      <use x="395.314453" xlink:href="#DejaVuSans-6f"/>
      <use x="456.496094" xlink:href="#DejaVuSans-6e"/>
      <use x="519.875" xlink:href="#DejaVuSans-20"/>
      <use x="551.662109" xlink:href="#DejaVuSans-6f"/>
      <use x="612.84375" xlink:href="#DejaVuSans-66"/>
      <use x="648.048828" xlink:href="#DejaVuSans-20"/>
      <use x="679.835938" xlink:href="#DejaVuSans-66"/>
      <use x="715.041016" xlink:href="#DejaVuSans-75"/>
      <use x="778.419922" xlink:href="#DejaVuSans-6e"/>
      <use x="841.798828" xlink:href="#DejaVuSans-63"/>
      <use x="896.779297" xlink:href="#DejaVuSans-74"/>
      <use x="935.988281" xlink:href="#DejaVuSans-69"/>
      <use x="963.771484" xlink:href="#DejaVuSans-6f"/>
      <use x="1024.953125" xlink:href="#DejaVuSans-6e"/>
      <use x="1088.332031" xlink:href="#DejaVuSans-2b"/>
      <use x="1172.121094" xlink:href="#DejaVuSans-74"/>
      <use x="1211.330078" xlink:href="#DejaVuSans-61"/>
      <use x="1272.609375" xlink:href="#DejaVuSans-72"/>
      <use x="1313.707031" xlink:href="#DejaVuSans-67"/>
      <use x="1377.183594" xlink:href="#DejaVuSans-65"/>
      <use x="1438.707031" xlink:href="#DejaVuSans-74"/>
      <use x="1477.916016" xlink:href="#DejaVuSans-20"/>
      <use x="1509.703125" xlink:href="#DejaVuSans-70"/>
      <use x="1573.179688" xlink:href="#DejaVuSans-61"/>
      <use x="1634.458984" xlink:href="#DejaVuSans-69"/>
      <use x="1662.242188" xlink:href="#DejaVuSans-72"/>
      <use x="1703.355469" xlink:href="#DejaVuSans-73"/>
     </g>
    </g>
   </g>
   <g id="line2d_23">
    <defs>
     <path d="M 0 1.5 
C 0.397805 1.5 0.77937 1.341951 1.06066 1.06066 
C 1.341951 0.77937 1.5 0.397805 1.5 0 
C 1.5 -0.397805 1.341951 -0.77937 1.06066 -1.06066 
C 0.77937 -1.341951 0.397805 -1.5 0 -1.5 
C -0.397805 -1.5 -0.77937 -1.341951 -1.06066 -1.06066 
C -1.341951 -0.77937 -1.5 -0.397805 -1.5 0 
C -1.5 0.397805 -1.341951 0.77937 -1.06066 1.06066 
C -0.77937 1.341951 -0.397805 1.5 0 1.5 
z
" id="m0946556436" style="stroke:#000080;"/>
    </defs>
    <g>
     <use style="fill:#000080;stroke:#000080;" x="210.234141" xlink:href="#m0946556436" y="122.59389"/>
     <use style="fill:#000080;stroke:#000080;" x="210.234141" xlink:href="#m0946556436" y="122.59389"/>
    </g>
   </g>
   <g id="line2d_24">
    <path d="M 29.657143 298.245375 
L 29.657143 292.993051 
L 42.042377 292.993051 
L 42.042377 292.074612 
L 61.672509 291.988508 
L 61.672509 291.845002 
L 66.812845 291.845002 
L 66.812845 291.615392 
L 70.8 291.615392 
L 70.8 291.357081 
L 76.812125 291.299679 
L 76.812125 291.242277 
L 79.198079 291.242277 
L 79.198079 290.955264 
L 81.30264 290.955264 
L 81.30264 290.696953 
L 83.185234 290.696953 
L 83.185234 290.352539 
L 84.888247 290.352539 
L 84.888247 290.237734 
L 86.442977 290.237734 
L 86.442977 281.569964 
L 87.873189 281.569964 
L 87.873189 279.388671 
L 89.197359 279.388671 
L 89.197359 278.355427 
L 91.583313 278.298025 
L 91.583313 277.95361 
L 92.666561 277.95361 
L 92.666561 277.149976 
L 93.687874 277.149976 
L 93.687874 276.891665 
L 94.653954 276.891665 
L 94.653954 275.456604 
L 95.570468 275.456604 
L 95.570468 273.332713 
L 96.442257 273.332713 
L 96.442257 270.807006 
L 97.273482 270.807006 
L 97.273482 266.157408 
L 98.067751 266.157408 
L 98.067751 261.134694 
L 98.828211 261.134694 
L 98.828211 253.06965 
L 99.557623 253.06965 
L 99.557623 244.401881 
L 100.258423 244.401881 
L 100.258423 232.634379 
L 100.932772 232.634379 
L 100.932772 229.735556 
L 101.582593 229.735556 
L 101.582593 224.741543 
L 102.209609 224.741543 
L 102.209609 221.928823 
L 102.815366 221.928823 
L 102.815366 219.604024 
L 103.401258 219.604024 
L 103.401258 217.652341 
L 103.968548 217.652341 
L 103.968548 214.58131 
L 104.518379 214.58131 
L 104.518379 214.208194 
L 105.051795 214.208194 
L 105.051795 212.801834 
L 105.569748 212.801834 
L 105.569748 211.625084 
L 106.073108 211.625084 
L 106.073108 209.730803 
L 106.562676 209.730803 
L 106.562676 209.587297 
L 107.039188 209.587297 
L 107.039188 209.242882 
L 107.503321 209.242882 
L 107.503321 208.95587 
L 107.955702 208.95587 
L 107.955702 207.893925 
L 108.396913 207.893925 
L 108.396913 206.946784 
L 108.827491 206.946784 
L 108.827491 206.774577 
L 109.247936 206.774577 
L 109.247936 206.344059 
L 109.658716 206.344059 
L 109.658716 206.114449 
L 110.060263 206.114449 
L 110.060263 205.798736 
L 110.452985 205.798736 
L 110.452985 205.339516 
L 110.83726 205.339516 
L 110.83726 205.167309 
L 111.213445 205.167309 
L 111.213445 204.908998 
L 111.581873 204.908998 
L 111.581873 204.478479 
L 111.942857 204.478479 
L 111.942857 204.220168 
L 112.296693 204.220168 
L 112.296693 203.875754 
L 112.643657 203.875754 
L 112.643657 203.531339 
L 112.984013 203.531339 
L 112.984013 203.158223 
L 113.318006 203.158223 
L 113.318006 202.813808 
L 113.64587 202.813808 
L 113.64587 202.38329 
L 113.967827 202.38329 
L 113.967827 201.665759 
L 114.284085 201.665759 
L 114.284085 201.464851 
L 114.594843 201.464851 
L 114.594843 201.263942 
L 114.900288 201.263942 
L 114.900288 201.063034 
L 115.2006 201.063034 
L 115.2006 200.718619 
L 115.495947 200.718619 
L 115.495947 200.51771 
L 115.786492 200.51771 
L 115.786492 200.144595 
L 116.072388 200.144595 
L 116.072388 199.972387 
L 116.353782 199.972387 
L 116.353782 199.57057 
L 116.903613 199.484466 
L 116.903613 199.254857 
L 117.172312 199.254857 
L 117.172312 198.192911 
L 117.437029 198.192911 
L 117.437029 197.819796 
L 117.697882 197.819796 
L 117.697882 197.303173 
L 117.954982 197.303173 
L 117.954982 197.130966 
L 118.458343 197.130966 
L 118.458343 196.872655 
L 118.704803 196.872655 
L 118.704803 196.442137 
L 118.947911 196.442137 
L 118.947911 196.241228 
L 119.187755 196.241228 
L 119.187755 195.81071 
L 119.424422 195.81071 
L 119.424422 195.494996 
L 119.657995 195.494996 
L 119.657995 195.150582 
L 119.888555 195.150582 
L 119.888555 195.007076 
L 120.340936 194.949673 
L 120.340936 194.892271 
L 120.562903 194.892271 
L 120.562903 194.748765 
L 120.998733 194.662661 
L 120.998733 194.232143 
L 121.212725 194.232143 
L 121.212725 194.031234 
L 121.424184 194.031234 
L 121.424184 193.772923 
L 121.63317 193.772923 
L 121.63317 193.428508 
L 121.839741 193.428508 
L 121.839741 193.026691 
L 122.04395 193.026691 
L 122.04395 192.883185 
L 122.245852 192.883185 
L 122.245852 192.624874 
L 122.445497 192.624874 
L 122.445497 192.337862 
L 122.642937 192.337862 
L 122.642937 192.165655 
L 122.838219 192.165655 
L 122.838219 191.878642 
L 123.03139 191.878642 
L 123.03139 191.763837 
L 123.222494 191.763837 
L 123.222494 191.534228 
L 123.411577 191.534228 
L 123.411577 191.333319 
L 123.783843 191.247215 
L 123.783843 191.017606 
L 124.148511 190.960203 
L 124.148511 190.8741 
L 124.328091 190.8741 
L 124.328091 190.529685 
L 124.505885 190.529685 
L 124.505885 190.386179 
L 124.681927 190.386179 
L 124.681927 190.156569 
L 124.856251 190.156569 
L 124.856251 189.697349 
L 125.028891 189.697349 
L 125.028891 189.410337 
L 125.19988 189.410337 
L 125.19988 189.295532 
L 125.537024 189.266831 
L 125.537024 189.180727 
L 125.70324 189.180727 
L 125.70324 189.065922 
L 125.867924 189.065922 
L 125.867924 188.606703 
L 126.031105 188.606703 
L 126.031105 188.176185 
L 126.192808 188.176185 
L 126.192808 187.889172 
L 126.353061 187.889172 
L 126.353061 187.774367 
L 126.51189 187.774367 
L 126.51189 187.487355 
L 126.669319 187.487355 
L 126.669319 187.114239 
L 126.825374 187.114239 
L 126.825374 186.88463 
L 126.980077 186.88463 
L 126.980077 186.511514 
L 127.133452 186.511514 
L 127.133452 186.224501 
L 127.285522 186.224501 
L 127.285522 186.109696 
L 127.436309 186.109696 
L 127.436309 185.937489 
L 127.585834 185.937489 
L 127.585834 185.736581 
L 127.734118 185.736581 
L 127.734118 185.506971 
L 128.027044 185.449568 
L 128.027044 185.334763 
L 128.171726 185.334763 
L 128.171726 185.191257 
L 128.457622 185.133855 
L 128.457622 184.732038 
L 128.598873 184.732038 
L 128.598873 184.158013 
L 128.739016 184.158013 
L 128.739016 183.784897 
L 128.878068 183.784897 
L 128.878068 183.469184 
L 129.152967 183.38308 
L 129.152967 183.268275 
L 129.288847 183.268275 
L 129.288847 182.837757 
L 129.423702 182.837757 
L 129.423702 182.722952 
L 129.690395 182.636849 
L 129.690395 182.349836 
L 129.822263 182.349836 
L 129.822263 181.747111 
L 130.083117 181.661007 
L 130.083117 181.287891 
L 130.212129 181.287891 
L 130.212129 181.173086 
L 130.340216 181.173086 
L 130.340216 180.972178 
L 130.467392 180.972178 
L 130.467392 180.857373 
L 130.71906 180.771269 
L 130.71906 180.656464 
L 130.843577 180.656464 
L 130.843577 180.398153 
L 130.967232 180.398153 
L 130.967232 179.738025 
L 131.090037 179.738025 
L 131.090037 179.537116 
L 131.212004 179.537116 
L 131.212004 179.364909 
L 131.333145 179.364909 
L 131.333145 178.762183 
L 131.453469 178.762183 
L 131.453469 178.331665 
L 131.572989 178.331665 
L 131.572989 178.130756 
L 131.691714 178.130756 
L 131.691714 177.929848 
L 131.809656 177.929848 
L 131.809656 176.925305 
L 131.926824 176.925305 
L 131.926824 176.121671 
L 132.043229 176.121671 
L 132.043229 175.920762 
L 132.158881 175.920762 
L 132.158881 175.576348 
L 132.273789 175.576348 
L 132.273789 175.289335 
L 132.501411 175.231933 
L 132.501411 175.002323 
L 132.837499 174.973622 
L 132.948138 174.457 
L 133.058096 174.457 
L 133.167381 173.768171 
L 133.276002 173.768171 
L 133.383967 173.395055 
L 133.704001 173.308951 
L 133.809418 173.05064 
L 133.914217 173.05064 
L 134.018404 172.419213 
L 134.121988 172.419213 
L 134.224975 171.845189 
L 134.429184 171.759085 
L 134.53042 171.64428 
L 134.631086 171.64428 
L 134.731187 171.472073 
L 134.830731 171.472073 
L 134.929724 170.811945 
L 135.126079 170.754542 
L 135.223453 170.46753 
L 135.512432 170.410127 
L 135.560144 170.151816 
L 135.70252 170.151816 
L 135.749727 170.00831 
L 135.890607 170.00831 
L 135.983913 169.721298 
L 136.076735 169.692597 
L 136.169077 169.348182 
L 136.533745 169.29078 
L 136.578809 169.118572 
L 136.668599 169.118572 
L 136.75794 168.888963 
L 136.891119 168.860261 
L 136.979357 168.60195 
L 137.067161 168.515847 
L 137.154536 168.429743 
L 137.198064 168.429743 
L 137.284802 168.286237 
L 137.371122 168.200133 
L 137.457026 168.027926 
L 137.627606 167.970524 
L 137.712289 167.65481 
L 137.880461 167.626109 
L 137.922258 167.511304 
L 138.129788 167.482603 
L 138.212129 167.367798 
L 138.334935 167.281694 
L 138.334935 167.224292 
L 138.61824 167.138188 
L 138.698367 167.080786 
L 138.778135 167.052084 
L 138.778135 166.965981 
L 139.093695 166.908578 
L 139.171722 166.765072 
L 139.24941 166.765072 
L 139.326761 166.47806 
L 139.480466 166.391956 
L 139.556826 166.277151 
L 140.008255 166.191048 
L 140.008255 166.162346 
L 140.156232 166.162346 
L 140.229763 165.817932 
L 140.375924 165.731828 
L 140.448559 165.53092 
L 140.592949 165.473517 
L 140.664708 165.186505 
L 140.807369 165.186505 
L 140.807369 164.095858 
L 140.948899 164.095858 
L 141.019246 163.866249 
L 141.159114 163.780145 
L 141.159114 163.636639 
L 141.366886 163.550535 
L 141.435609 163.320925 
L 141.640208 163.292224 
L 141.707891 162.402486 
L 141.775317 162.402486 
L 141.842491 161.512748 
L 141.909413 161.512748 
L 141.976085 160.307297 
L 142.042509 160.307297 
L 142.108687 159.073144 
L 142.174622 159.073144 
L 142.240313 157.867693 
L 142.305764 157.867693 
L 142.370976 157.121461 
L 142.435951 157.121461 
L 142.500691 155.91601 
L 142.565197 155.91601 
L 142.629471 154.567052 
L 142.693514 154.567052 
L 142.757329 153.964327 
L 142.820917 153.964327 
L 142.884279 152.414461 
L 142.947417 152.414461 
L 143.010333 149.860052 
L 143.073028 149.860052 
L 143.135504 149.314729 
L 143.197763 149.314729 
L 143.259805 148.970314 
L 143.383247 148.88421 
L 143.444649 147.70746 
L 143.505841 147.70746 
L 143.566825 146.645515 
L 143.627601 146.645515 
L 143.688171 146.358503 
L 143.748536 146.358503 
L 143.808698 145.899283 
L 143.868658 145.899283 
L 143.928418 145.640972 
L 143.987978 145.640972 
L 144.047341 144.89474 
L 144.165478 144.866039 
L 144.224254 144.320716 
L 144.282838 144.320716 
L 144.341231 143.603185 
L 144.399433 143.603185 
L 144.457447 143.115264 
L 144.515272 143.115264 
L 144.572912 142.225526 
L 144.630365 142.225526 
L 144.687635 141.967215 
L 144.744722 141.967215 
L 144.801627 141.278386 
L 144.858351 141.278386 
L 144.914895 140.733063 
L 144.971262 140.733063 
L 145.027451 140.446051 
L 145.139302 140.417349 
L 145.194966 139.843325 
L 145.305776 139.757221 
L 145.415904 138.953587 
L 145.470714 138.953587 
L 145.579832 138.379563 
L 145.634143 138.379563 
L 145.742271 137.489825 
L 145.849749 137.403721 
L 145.956584 136.9158 
L 146.009763 136.9158 
L 146.115648 136.054763 
L 146.168356 136.054763 
L 146.273309 135.595544 
L 146.429591 135.50944 
L 146.533025 134.705806 
L 146.584518 134.705806 
L 146.687061 133.701263 
L 146.789019 133.61516 
L 146.890399 133.213342 
L 146.991206 133.213342 
L 147.091449 132.725422 
L 147.191131 132.69672 
L 147.290261 131.204257 
L 147.339621 131.204257 
L 147.437933 130.974647 
L 147.486886 130.974647 
L 147.584393 130.544129 
L 147.632948 130.544129 
L 147.729663 130.171013 
L 147.777825 130.171013 
L 147.873762 129.855299 
L 147.921538 129.826598 
L 148.016708 129.39608 
L 148.064103 129.39608 
L 148.111373 129.252574 
L 148.252438 129.195171 
L 148.345866 128.649848 
L 148.438809 128.621147 
L 148.485099 128.448939 
L 148.71477 128.362836 
L 148.805818 127.961019 
L 148.851168 127.961019 
L 148.941525 127.358293 
L 149.07621 127.329592 
L 149.16544 127.128683 
L 149.209888 127.128683 
L 149.298453 126.468555 
L 149.386582 126.411153 
L 149.430484 126.12414 
L 149.605022 126.12414 
L 149.691655 125.779726 
L 149.734815 125.779726 
L 149.820823 125.550116 
L 149.906419 125.464012 
L 149.949064 125.234402 
L 150.24476 125.148299 
L 150.328354 125.033494 
L 150.943143 124.94739 
L 150.943143 124.918689 
L 154.059315 124.832585 
L 154.059315 124.803884 
L 154.625547 124.71778 
L 154.625547 124.660378 
L 155.110684 124.574274 
L 155.174385 124.516872 
L 155.891075 124.430768 
L 155.982473 124.344664 
L 156.986896 124.287262 
L 156.986896 124.172457 
L 197.579876 124.115055 
L 197.672951 123.914146 
L 197.721512 123.828042 
L 197.831389 123.483628 
L 198.22573 123.397524 
L 198.309822 123.225317 
L 198.373695 123.139213 
L 198.466964 122.852201 
L 198.50498 122.766097 
L 198.570963 122.679994 
L 358.8 122.59389 
L 358.8 122.59389 
" style="fill:none;stroke:#000080;stroke-linecap:square;stroke-width:1.5;"/>
   </g>
   <g id="line2d_25">
    <defs>
     <path d="M 0 6 
C 1.591219 6 3.117479 5.367802 4.242641 4.242641 
C 5.367802 3.117479 6 1.591219 6 0 
C 6 -1.591219 5.367802 -3.117479 4.242641 -4.242641 
C 3.117479 -5.367802 1.591219 -6 0 -6 
C -1.591219 -6 -3.117479 -5.367802 -4.242641 -4.242641 
C -5.367802 -3.117479 -6 -1.591219 -6 0 
C -6 1.591219 -5.367802 3.117479 -4.242641 4.242641 
C -3.117479 5.367802 -1.591219 6 0 6 
z
" id="m5534336076" style="stroke:#000080;stroke-width:1.5;"/>
    </defs>
    <g>
     <use style="fill:none;stroke:#000080;stroke-width:1.5;" x="90.430132" xlink:href="#m5534336076" y="278.298025"/>
     <use style="fill:none;stroke:#000080;stroke-width:1.5;" x="116.630812" xlink:href="#m5534336076" y="199.484466"/>
     <use style="fill:none;stroke:#000080;stroke-width:1.5;" x="143.444649" xlink:href="#m5534336076" y="148.798107"/>
     <use style="fill:none;stroke:#000080;stroke-width:1.5;" x="210.234141" xlink:href="#m5534336076" y="122.622591"/>
     <use style="fill:none;stroke:#000080;stroke-width:1.5;" x="210.234141" xlink:href="#m5534336076" y="122.59389"/>
     <use style="fill:none;stroke:#000080;stroke-width:1.5;" x="358.8" xlink:href="#m5534336076" y="122.59389"/>
    </g>
   </g>
   <g id="line2d_26"/>
   <g id="line2d_27">
    <path clip-path="url(#p6819888fd7)" d="M 197.456509 124.172457 
" style="fill:none;stroke:#000080;stroke-linecap:square;stroke-width:1.5;"/>
    <defs>
     <path d="M -12 12 
L 12 -12 
M -12 -12 
L 12 12 
" id="m42a3cbd0aa" style="stroke:#000080;stroke-width:3;"/>
    </defs>
    <g clip-path="url(#p6819888fd7)">
     <use style="fill:#000080;stroke:#000080;stroke-width:3;" x="197.456509" xlink:href="#m42a3cbd0aa" y="124.172457"/>
    </g>
   </g>
   <g id="line2d_28">
    <defs>
     <path d="M 0 1.5 
C 0.397805 1.5 0.77937 1.341951 1.06066 1.06066 
C 1.341951 0.77937 1.5 0.397805 1.5 0 
C 1.5 -0.397805 1.341951 -0.77937 1.06066 -1.06066 
C 0.77937 -1.341951 0.397805 -1.5 0 -1.5 
C -0.397805 -1.5 -0.77937 -1.341951 -1.06066 -1.06066 
C -1.341951 -0.77937 -1.5 -0.397805 -1.5 0 
C -1.5 0.397805 -1.341951 0.77937 -1.06066 1.06066 
C -0.77937 1.341951 -0.397805 1.5 0 1.5 
z
" id="m474977f9fe" style="stroke:#ff00ff;"/>
    </defs>
    <g>
     <use style="fill:#ff00ff;stroke:#ff00ff;" x="198.373695" xlink:href="#m474977f9fe" y="122.59389"/>
     <use style="fill:#ff00ff;stroke:#ff00ff;" x="198.373695" xlink:href="#m474977f9fe" y="122.59389"/>
    </g>
   </g>
   <g id="line2d_29">
    <path d="M 29.657143 298.245375 
L 29.657143 292.906948 
L 42.042377 292.906948 
L 42.042377 292.160716 
L 54.427611 292.160716 
L 54.427611 291.931106 
L 61.672509 291.931106 
L 61.672509 291.816301 
L 66.812845 291.816301 
L 66.812845 291.672795 
L 70.8 291.672795 
L 70.8 291.471886 
L 74.057743 291.471886 
L 74.057743 291.270978 
L 79.198079 291.242277 
L 79.198079 291.070069 
L 81.30264 291.070069 
L 81.30264 290.840459 
L 83.185234 290.840459 
L 83.185234 290.553447 
L 84.888247 290.553447 
L 84.888247 290.352539 
L 86.442977 290.352539 
L 86.442977 281.110745 
L 87.873189 281.110745 
L 87.873189 279.560879 
L 89.197359 279.560879 
L 89.197359 278.527635 
L 90.430132 278.527635 
L 90.430132 278.41283 
L 91.583313 278.41283 
L 91.583313 278.039714 
L 92.666561 278.039714 
L 92.666561 277.23608 
L 93.687874 277.23608 
L 93.687874 276.862964 
L 94.653954 276.862964 
L 94.653954 275.112189 
L 95.570468 275.112189 
L 95.570468 272.758689 
L 96.442257 272.758689 
L 96.442257 270.20428 
L 97.273482 270.20428 
L 97.273482 265.554682 
L 98.067751 265.554682 
L 98.067751 260.158852 
L 98.828211 260.158852 
L 98.828211 252.151211 
L 99.557623 252.151211 
L 99.557623 244.028765 
L 100.258423 244.028765 
L 100.258423 233.237105 
L 100.932772 233.237105 
L 100.932772 229.620751 
L 101.582593 229.620751 
L 101.582593 224.569335 
L 102.209609 224.569335 
L 102.209609 221.699213 
L 102.815366 221.699213 
L 102.815366 219.087402 
L 103.401258 219.087402 
L 103.401258 216.159877 
L 103.968548 216.159877 
L 103.968548 213.146249 
L 104.518379 213.146249 
L 104.518379 212.859236 
L 105.051795 212.859236 
L 105.051795 211.366773 
L 105.569748 211.366773 
L 105.569748 210.046517 
L 106.073108 210.046517 
L 106.073108 208.410547 
L 107.039188 208.324443 
L 107.039188 207.980028 
L 107.503321 207.980028 
L 107.503321 207.606913 
L 107.955702 207.606913 
L 107.955702 206.487565 
L 108.396913 206.487565 
L 108.396913 205.42562 
L 108.827491 205.42562 
L 108.827491 205.282113 
L 109.247936 205.282113 
L 109.247936 204.765491 
L 109.658716 204.765491 
L 109.658716 204.593284 
L 110.060263 204.593284 
L 110.060263 204.277571 
L 110.452985 204.277571 
L 110.452985 203.990558 
L 110.83726 203.990558 
L 110.83726 203.760949 
L 111.213445 203.760949 
L 111.213445 203.56004 
L 111.581873 203.56004 
L 111.581873 203.301729 
L 111.942857 203.301729 
L 111.942857 203.014717 
L 112.296693 203.014717 
L 112.296693 202.641601 
L 112.643657 202.641601 
L 112.643657 202.354589 
L 112.984013 202.354589 
L 112.984013 201.92407 
L 113.318006 201.92407 
L 113.318006 201.608357 
L 113.64587 201.608357 
L 113.64587 201.321345 
L 113.967827 201.321345 
L 113.967827 200.776021 
L 114.284085 200.776021 
L 114.284085 200.546412 
L 114.594843 200.546412 
L 114.594843 200.431607 
L 114.900288 200.431607 
L 114.900288 200.087192 
L 115.2006 200.087192 
L 115.2006 199.742777 
L 115.495947 199.742777 
L 115.495947 199.398363 
L 115.786492 199.398363 
L 115.786492 199.025247 
L 116.072388 199.025247 
L 116.072388 198.881741 
L 116.353782 198.881741 
L 116.353782 198.479924 
L 116.903613 198.422521 
L 116.903613 198.020704 
L 117.172312 198.020704 
L 117.172312 197.130966 
L 117.437029 197.130966 
L 117.437029 196.872655 
L 117.697882 196.872655 
L 117.697882 196.556942 
L 118.458343 196.470838 
L 118.458343 196.356033 
L 118.704803 196.356033 
L 118.704803 195.868112 
L 118.947911 195.868112 
L 118.947911 195.753307 
L 119.187755 195.753307 
L 119.187755 195.35149 
L 119.424422 195.35149 
L 119.424422 194.834868 
L 119.657995 194.834868 
L 119.657995 194.720063 
L 119.888555 194.720063 
L 119.888555 194.547856 
L 120.340936 194.461752 
L 120.340936 194.232143 
L 120.782147 194.17474 
L 120.782147 194.002533 
L 120.998733 194.002533 
L 120.998733 193.772923 
L 121.212725 193.772923 
L 121.212725 193.428508 
L 121.424184 193.428508 
L 121.424184 193.141496 
L 121.63317 193.141496 
L 121.63317 192.567472 
L 121.839741 192.567472 
L 121.839741 192.366563 
L 122.245852 192.280459 
L 122.245852 191.936045 
L 122.445497 191.936045 
L 122.445497 191.735136 
L 122.642937 191.735136 
L 122.642937 191.534228 
L 122.838219 191.534228 
L 122.838219 191.161112 
L 123.03139 191.161112 
L 123.03139 191.046307 
L 123.222494 191.046307 
L 123.222494 190.8741 
L 123.598679 190.816697 
L 123.598679 190.730593 
L 123.783843 190.730593 
L 123.783843 190.558386 
L 124.148511 190.472282 
L 124.148511 190.386179 
L 124.328091 190.386179 
L 124.328091 189.984362 
L 124.505885 189.984362 
L 124.505885 189.840855 
L 124.681927 189.840855 
L 124.681927 189.639947 
L 124.856251 189.639947 
L 124.856251 189.23813 
L 125.028891 189.23813 
L 125.028891 188.893715 
L 125.19988 188.893715 
L 125.19988 188.692807 
L 125.537024 188.606703 
L 125.537024 188.348392 
L 125.70324 188.348392 
L 125.70324 188.06138 
L 125.867924 188.06138 
L 125.867924 187.573459 
L 126.031105 187.573459 
L 126.031105 187.401252 
L 126.192808 187.401252 
L 126.192808 187.257745 
L 126.353061 187.257745 
L 126.353061 187.085538 
L 126.51189 187.085538 
L 126.51189 186.827227 
L 126.669319 186.827227 
L 126.669319 186.454111 
L 126.825374 186.454111 
L 126.825374 186.310605 
L 126.980077 186.310605 
L 126.980077 185.908788 
L 127.133452 185.908788 
L 127.133452 185.334763 
L 127.285522 185.334763 
L 127.285522 185.076452 
L 127.585834 184.990349 
L 127.585834 184.703337 
L 127.734118 184.703337 
L 127.734118 184.473727 
L 127.881181 184.473727 
L 127.881181 184.330221 
L 128.171726 184.244117 
L 128.171726 184.186715 
L 128.457622 184.158013 
L 128.457622 183.8423 
L 128.598873 183.8423 
L 128.598873 183.440483 
L 128.739016 183.440483 
L 128.739016 183.124769 
L 128.878068 183.124769 
L 128.878068 182.866458 
L 129.016046 182.866458 
L 129.016046 182.751653 
L 129.288847 182.66555 
L 129.288847 182.263733 
L 129.423702 182.263733 
L 129.423702 182.091525 
L 129.557546 182.091525 
L 129.557546 181.97672 
L 129.690395 181.97672 
L 129.690395 181.632306 
L 129.822263 181.632306 
L 129.822263 181.086982 
L 129.953166 181.086982 
L 129.953166 180.972178 
L 130.083117 180.972178 
L 130.083117 180.685165 
L 130.276287 180.599062 
L 130.340216 180.369452 
L 130.467392 180.369452 
L 130.530642 180.225946 
L 130.593669 180.225946 
L 130.593669 180.08244 
L 130.71906 180.08244 
L 130.781427 179.85283 
L 130.843577 179.85283 
L 130.843577 179.680623 
L 130.967232 179.680623 
L 131.02874 178.934391 
L 131.090037 178.934391 
L 131.090037 178.67608 
L 131.333145 178.589976 
L 131.393408 177.815043 
L 131.453469 177.815043 
L 131.513329 177.183616 
L 131.572989 177.183616 
L 131.63245 176.925305 
L 131.691714 176.925305 
L 131.750782 176.724397 
L 131.809656 176.724397 
L 131.868336 175.86336 
L 131.926824 175.86336 
L 131.985122 175.174531 
L 132.043229 175.174531 
L 132.101149 174.801415 
L 132.158881 174.801415 
L 132.216427 174.543104 
L 132.273789 174.543104 
L 132.330967 174.22739 
L 132.444777 174.169988 
L 132.501411 173.99778 
L 132.781921 173.969079 
L 132.837499 173.739469 
L 132.948138 173.739469 
L 133.058096 173.079341 
L 133.112822 173.079341 
L 133.221774 172.447914 
L 133.330066 172.361811 
L 133.437706 172.189603 
L 133.704001 172.1035 
L 133.756788 171.845189 
L 133.914217 171.816487 
L 134.018404 171.500774 
L 134.121988 171.472073 
L 134.224975 170.611036 
L 134.327371 170.524932 
L 134.429184 170.324024 
L 134.53042 170.324024 
L 134.631086 169.950908 
L 134.681207 169.950908 
L 134.781029 169.692597 
L 134.880296 169.606493 
L 134.979015 167.827017 
L 135.126079 167.769615 
L 135.223453 167.310395 
L 135.271942 167.310395 
L 135.3203 167.138188 
L 135.464592 167.138188 
L 135.560144 166.678968 
L 135.607728 166.678968 
L 135.70252 166.334554 
L 135.749727 166.334554 
L 135.84377 165.444816 
L 135.890607 165.444816 
L 135.983913 164.755987 
L 136.030384 164.755987 
L 136.122965 164.268066 
L 136.215069 164.210663 
L 136.306701 164.009755 
L 136.397865 163.981054 
L 136.488566 163.550535 
L 136.578809 163.521834 
L 136.668599 162.402486 
L 136.75794 162.316383 
L 136.846836 161.08223 
L 136.935292 161.053529 
L 137.023313 159.561065 
L 137.110902 159.532364 
L 137.198064 158.26951 
L 137.284802 158.183406 
L 137.371122 157.55198 
L 137.457026 157.55198 
L 137.54252 155.858607 
L 137.627606 155.772504 
L 137.712289 154.854065 
L 137.796573 154.854065 
L 137.880461 153.935625 
L 137.963957 153.878223 
L 138.047065 153.10329 
L 138.129788 153.10329 
L 138.212129 152.012643 
L 138.294093 152.012643 
L 138.375683 151.639528 
L 138.456902 151.639528 
L 138.537753 151.295113 
L 138.61824 151.295113 
L 138.698367 149.659143 
L 138.778135 149.57304 
L 138.857549 149.286027 
L 138.936612 149.286027 
L 139.015326 148.912911 
L 139.093695 148.912911 
L 139.171722 148.539796 
L 139.24941 148.539796 
L 139.326761 148.137978 
L 139.403779 148.137978 
L 139.480466 147.104734 
L 139.556826 147.104734 
L 139.63286 146.387204 
L 139.708573 146.387204 
L 139.783966 145.870582 
L 139.859042 145.870582 
L 139.933804 145.468765 
L 140.008255 145.468765 
L 140.082396 144.033703 
L 140.156232 144.033703 
L 140.229763 143.517081 
L 140.302993 143.517081 
L 140.375924 142.943057 
L 140.448559 142.943057 
L 140.5209 142.512539 
L 140.664708 142.455136 
L 140.736181 140.560855 
L 140.878274 140.532154 
L 140.948899 140.18774 
L 141.159114 140.101636 
L 141.22864 139.412807 
L 141.297897 139.412807 
L 141.366886 139.068392 
L 141.435609 139.068392 
L 141.504069 138.207355 
L 141.572268 138.207355 
L 141.640208 137.690733 
L 141.707891 137.690733 
L 141.775317 137.317617 
L 141.842491 137.317617 
L 141.909413 136.973203 
L 141.976085 136.973203 
L 142.042509 135.538141 
L 142.305764 135.452038 
L 142.370976 135.136324 
L 142.435951 135.136324 
L 142.500691 134.79191 
L 142.565197 134.79191 
L 142.565197 134.677105 
L 142.693514 134.677105 
L 142.757329 134.10308 
L 142.820917 134.10308 
L 142.884279 133.787367 
L 143.010333 133.701263 
L 143.073028 133.012434 
L 143.135504 133.012434 
L 143.197763 132.409708 
L 143.259805 132.409708 
L 143.321632 132.036592 
L 143.383247 132.036592 
L 143.383247 131.921787 
L 143.505841 131.921787 
L 143.566825 131.433867 
L 143.688171 131.347763 
L 143.748536 131.032049 
L 143.808698 131.032049 
L 143.868658 130.859842 
L 143.928418 130.859842 
L 143.987978 130.544129 
L 144.106507 130.486726 
L 144.165478 130.084909 
L 144.224254 130.084909 
L 144.282838 129.826598 
L 144.457447 129.769196 
L 144.515272 129.482183 
L 144.572912 129.482183 
L 144.630365 128.735952 
L 144.687635 128.735952 
L 144.744722 128.305433 
L 144.858351 128.248031 
L 144.914895 127.961019 
L 144.971262 127.961019 
L 145.027451 127.386994 
L 145.250457 127.329592 
L 145.360925 126.525957 
L 145.470714 126.468555 
L 145.579832 126.066738 
L 145.688289 126.038037 
L 145.796091 125.837128 
L 145.849749 125.837128 
L 145.956584 125.148299 
L 146.22091 125.062195 
L 146.325555 124.889988 
L 146.429591 124.803884 
L 146.533025 124.545573 
L 146.635863 124.545573 
L 146.687061 124.344664 
L 146.991206 124.258561 
L 146.991206 124.201158 
L 147.339621 124.143756 
L 147.339621 124.057652 
L 147.681371 124.00025 
L 147.681371 123.942847 
L 151.673361 123.856744 
L 151.673361 123.828042 
L 154.059315 123.77064 
L 154.059315 123.713238 
L 154.788728 123.627134 
L 154.788728 123.598433 
L 155.269513 123.512329 
L 155.269513 123.483628 
L 155.891075 123.426225 
L 155.891075 123.340122 
L 156.813698 123.254018 
L 156.842681 123.167914 
L 156.986896 123.167914 
L 156.986896 123.024408 
L 198.139804 122.995707 
L 198.24001 122.651292 
L 358.8 122.59389 
L 358.8 122.59389 
" style="fill:none;stroke:#ff00ff;stroke-linecap:square;stroke-width:1.5;"/>
   </g>
   <g id="line2d_30">
    <defs>
     <path d="M -0 8.485281 
L 5.091169 0 
L 0 -8.485281 
L -5.091169 -0 
z
" id="m5c84bd9ce5" style="stroke:#ff00ff;stroke-linejoin:miter;stroke-width:1.5;"/>
    </defs>
    <g>
     <use style="fill:none;stroke:#ff00ff;stroke-linejoin:miter;stroke-width:1.5;" x="98.828211" xlink:href="#m5c84bd9ce5" y="252.151211"/>
     <use style="fill:none;stroke:#ff00ff;stroke-linejoin:miter;stroke-width:1.5;" x="131.333145" xlink:href="#m5c84bd9ce5" y="178.589976"/>
     <use style="fill:none;stroke:#ff00ff;stroke-linejoin:miter;stroke-width:1.5;" x="156.986896" xlink:href="#m5c84bd9ce5" y="123.167914"/>
     <use style="fill:none;stroke:#ff00ff;stroke-linejoin:miter;stroke-width:1.5;" x="198.373695" xlink:href="#m5c84bd9ce5" y="122.59389"/>
     <use style="fill:none;stroke:#ff00ff;stroke-linejoin:miter;stroke-width:1.5;" x="198.373695" xlink:href="#m5c84bd9ce5" y="122.59389"/>
     <use style="fill:none;stroke:#ff00ff;stroke-linejoin:miter;stroke-width:1.5;" x="358.8" xlink:href="#m5c84bd9ce5" y="122.59389"/>
    </g>
   </g>
   <g id="line2d_31"/>
   <g id="line2d_32">
    <path clip-path="url(#p6819888fd7)" d="M 197.456509 123.024408 
" style="fill:none;stroke:#ff00ff;stroke-linecap:square;stroke-width:1.5;"/>
    <defs>
     <path d="M -12 12 
L 12 -12 
M -12 -12 
L 12 12 
" id="mfaefabc933" style="stroke:#ff00ff;stroke-width:3;"/>
    </defs>
    <g clip-path="url(#p6819888fd7)">
     <use style="fill:#ff00ff;stroke:#ff00ff;stroke-width:3;" x="197.456509" xlink:href="#mfaefabc933" y="123.024408"/>
    </g>
   </g>
   <g id="line2d_33">
    <defs>
     <path d="M 0 1.5 
C 0.397805 1.5 0.77937 1.341951 1.06066 1.06066 
C 1.341951 0.77937 1.5 0.397805 1.5 0 
C 1.5 -0.397805 1.341951 -0.77937 1.06066 -1.06066 
C 0.77937 -1.341951 0.397805 -1.5 0 -1.5 
C -0.397805 -1.5 -0.77937 -1.341951 -1.06066 -1.06066 
C -1.341951 -0.77937 -1.5 -0.397805 -1.5 0 
C -1.5 0.397805 -1.341951 0.77937 -1.06066 1.06066 
C -0.77937 1.341951 -0.397805 1.5 0 1.5 
z
" id="mc42fdcc994" style="stroke:#ffa500;"/>
    </defs>
    <g>
     <use style="fill:#ffa500;stroke:#ffa500;" x="156.986896" xlink:href="#mc42fdcc994" y="122.59389"/>
     <use style="fill:#ffa500;stroke:#ffa500;" x="156.986896" xlink:href="#mc42fdcc994" y="122.59389"/>
    </g>
   </g>
   <g id="line2d_34">
    <path d="M 29.657143 298.245375 
L 29.657143 292.906948 
L 42.042377 292.906948 
L 42.042377 292.074612 
L 54.427611 292.074612 
L 54.427611 291.902405 
L 61.672509 291.902405 
L 61.672509 291.7876 
L 70.8 291.701496 
L 70.8 291.55799 
L 74.057743 291.55799 
L 74.057743 291.385783 
L 76.812125 291.385783 
L 76.812125 291.270978 
L 79.198079 291.270978 
L 79.198079 290.869161 
L 83.185234 290.811758 
L 83.185234 290.582148 
L 84.888247 290.582148 
L 84.888247 290.438642 
L 86.442977 290.438642 
L 86.442977 282.000483 
L 87.873189 282.000483 
L 87.873189 279.560879 
L 89.197359 279.560879 
L 89.197359 278.585037 
L 90.430132 278.585037 
L 90.430132 278.441531 
L 91.583313 278.441531 
L 91.583313 278.18322 
L 92.666561 278.18322 
L 92.666561 277.207378 
L 93.687874 277.207378 
L 93.687874 276.834263 
L 94.653954 276.834263 
L 94.653954 275.198293 
L 95.570468 275.198293 
L 95.570468 272.959597 
L 96.442257 272.959597 
L 96.442257 270.634798 
L 97.273482 270.634798 
L 97.273482 265.927798 
L 98.067751 265.927798 
L 98.067751 260.704175 
L 98.828211 260.704175 
L 98.828211 252.954845 
L 99.557623 252.954845 
L 99.557623 244.229673 
L 100.258423 244.229673 
L 100.258423 233.438013 
L 100.932772 233.438013 
L 100.932772 230.30958 
L 101.582593 230.30958 
L 101.582593 225.028555 
L 102.209609 225.028555 
L 102.209609 222.301939 
L 102.815366 222.301939 
L 102.815366 220.178048 
L 103.401258 220.178048 
L 103.401258 218.082859 
L 103.968548 218.082859 
L 103.968548 214.897023 
L 104.518379 214.897023 
L 104.518379 214.380401 
L 105.051795 214.380401 
L 105.051795 212.687029 
L 105.569748 212.687029 
L 105.569748 211.395474 
L 106.073108 211.395474 
L 106.073108 209.443791 
L 106.562676 209.443791 
L 106.562676 209.271584 
L 107.039188 209.271584 
L 107.039188 208.697559 
L 107.503321 208.697559 
L 107.503321 208.324443 
L 107.955702 208.324443 
L 107.955702 207.406004 
L 108.396913 207.406004 
L 108.396913 206.057047 
L 108.827491 206.057047 
L 108.827491 205.884839 
L 109.247936 205.884839 
L 109.247936 205.368217 
L 109.658716 205.368217 
L 109.658716 205.138607 
L 110.060263 205.138607 
L 110.060263 204.851595 
L 110.452985 204.851595 
L 110.452985 204.535882 
L 111.213445 204.478479 
L 111.213445 204.248869 
L 111.581873 204.248869 
L 111.581873 204.047961 
L 111.942857 204.047961 
L 111.942857 203.78965 
L 112.296693 203.78965 
L 112.296693 203.56004 
L 112.643657 203.56004 
L 112.643657 203.100821 
L 112.984013 203.100821 
L 112.984013 202.871211 
L 113.318006 202.871211 
L 113.318006 202.555497 
L 113.64587 202.555497 
L 113.64587 201.837967 
L 113.967827 201.837967 
L 113.967827 201.321345 
L 114.284085 201.321345 
L 114.284085 201.149137 
L 114.594843 201.149137 
L 114.594843 200.97693 
L 114.900288 200.97693 
L 114.900288 200.804723 
L 115.2006 200.804723 
L 115.2006 200.51771 
L 115.495947 200.51771 
L 115.495947 200.230698 
L 115.786492 200.230698 
L 115.786492 200.087192 
L 116.072388 200.087192 
L 116.072388 199.914985 
L 116.353782 199.914985 
L 116.353782 199.742777 
L 116.630812 199.742777 
L 116.630812 199.627973 
L 116.903613 199.627973 
L 116.903613 199.283558 
L 117.172312 199.283558 
L 117.172312 198.250314 
L 117.437029 198.250314 
L 117.437029 197.819796 
L 117.697882 197.819796 
L 117.697882 197.590186 
L 118.458343 197.532783 
L 118.458343 197.245771 
L 118.704803 197.245771 
L 118.704803 196.901356 
L 118.947911 196.901356 
L 118.947911 196.585643 
L 119.187755 196.585643 
L 119.187755 196.241228 
L 119.424422 196.241228 
L 119.424422 195.868112 
L 119.657995 195.868112 
L 119.657995 195.638503 
L 119.888555 195.638503 
L 119.888555 195.523698 
L 120.340936 195.494996 
L 120.340936 195.380192 
L 120.562903 195.380192 
L 120.562903 195.265387 
L 120.782147 195.265387 
L 120.782147 195.150582 
L 120.998733 195.150582 
L 120.998733 194.748765 
L 121.212725 194.748765 
L 121.212725 194.547856 
L 121.424184 194.547856 
L 121.424184 194.232143 
L 121.63317 194.232143 
L 121.63317 193.94513 
L 121.839741 193.94513 
L 121.839741 193.629417 
L 122.04395 193.629417 
L 122.04395 193.2276 
L 122.245852 193.2276 
L 122.245852 193.026691 
L 122.445497 193.026691 
L 122.445497 192.624874 
L 122.642937 192.624874 
L 122.642937 192.395264 
L 122.838219 192.395264 
L 122.838219 192.251758 
L 123.03139 192.251758 
L 123.03139 192.108252 
L 123.222494 192.108252 
L 123.222494 191.849941 
L 123.411577 191.849941 
L 123.411577 191.735136 
L 123.783843 191.706435 
L 123.783843 191.59163 
L 123.967107 191.59163 
L 123.967107 191.419423 
L 124.148511 191.419423 
L 124.148511 191.218514 
L 124.328091 191.218514 
L 124.328091 190.902801 
L 124.505885 190.902801 
L 124.505885 190.558386 
L 124.681927 190.558386 
L 124.681927 190.300075 
L 124.856251 190.300075 
L 124.856251 189.668648 
L 125.028891 189.668648 
L 125.028891 189.46774 
L 125.369247 189.410337 
L 125.369247 189.324233 
L 125.537024 189.324233 
L 125.537024 188.979819 
L 125.70324 188.979819 
L 125.785772 188.692807 
L 125.867924 188.692807 
L 125.949701 188.032678 
L 126.031105 188.032678 
L 126.031105 187.774367 
L 126.192808 187.774367 
L 126.192808 187.487355 
L 126.353061 187.487355 
L 126.353061 187.315148 
L 126.51189 187.315148 
L 126.51189 187.142941 
L 126.669319 187.142941 
L 126.747517 186.741123 
L 126.825374 186.741123 
L 126.902893 186.511514 
L 126.980077 186.511514 
L 127.056929 186.052294 
L 127.133452 186.052294 
L 127.133452 185.564373 
L 127.285522 185.564373 
L 127.361075 185.334763 
L 127.436309 185.334763 
L 127.511228 185.105154 
L 127.585834 185.105154 
L 127.66013 184.760739 
L 127.734118 184.760739 
L 127.807801 184.473727 
L 128.027044 184.416324 
L 128.099532 184.244117 
L 128.171726 184.244117 
L 128.24363 183.928404 
L 128.386576 183.8423 
L 128.457622 183.411782 
L 128.598873 183.325678 
L 128.669082 182.66555 
L 128.739016 182.66555 
L 128.808677 182.148928 
L 128.878068 182.148928 
L 128.94719 181.919318 
L 129.084638 181.833214 
L 129.152967 181.546202 
L 129.288847 181.517501 
L 129.356402 180.914775 
L 129.490749 180.857373 
L 129.557546 180.627763 
L 129.690395 180.57036 
L 129.756451 180.340751 
L 129.822263 180.340751 
L 129.887835 179.594519 
L 129.953166 179.594519 
L 130.018259 179.250104 
L 130.083117 179.250104 
L 130.147739 177.958549 
L 130.212129 177.958549 
L 130.276287 177.728939 
L 130.340216 177.728939 
L 130.403917 177.49933 
L 130.530642 177.470628 
L 130.593669 177.212317 
L 130.71906 177.183616 
L 130.781427 176.867903 
L 130.843577 176.867903 
L 130.843577 176.724397 
L 130.967232 176.724397 
L 131.02874 176.035567 
L 131.090037 176.035567 
L 131.151125 175.576348 
L 131.212004 175.576348 
L 131.272677 175.031024 
L 131.333145 175.031024 
L 131.393408 174.485701 
L 131.453469 174.485701 
L 131.513329 173.969079 
L 131.572989 173.969079 
L 131.63245 173.682067 
L 131.691714 173.682067 
L 131.750782 173.481158 
L 131.809656 173.481158 
L 131.868336 172.447914 
L 131.926824 172.447914 
L 131.985122 169.778701 
L 132.043229 169.778701 
L 132.101149 169.348182 
L 132.158881 169.348182 
L 132.216427 166.822475 
L 132.273789 166.822475 
L 132.330967 166.305853 
L 132.444777 166.277151 
L 132.501411 165.789231 
L 132.557867 165.789231 
L 132.557867 165.272609 
L 132.670245 165.272609 
L 132.670245 164.755987 
L 132.781921 164.755987 
L 132.892904 162.660797 
L 132.948138 162.660797 
L 133.058096 160.823919 
L 133.112822 160.823919 
L 133.221774 159.245352 
L 133.276002 159.245352 
L 133.383967 158.929638 
L 133.437706 158.929638 
L 133.544701 157.609382 
L 133.651059 157.55198 
L 133.756788 156.231723 
L 133.809418 156.231723 
L 133.914217 155.91601 
L 133.966387 155.91601 
L 134.070271 154.538351 
L 134.121988 154.538351 
L 134.224975 153.619912 
L 134.276246 153.619912 
L 134.37835 153.189394 
L 134.429184 153.189394 
L 134.53042 152.615369 
L 134.580824 152.615369 
L 134.681207 151.783034 
L 134.781029 151.783034 
L 134.880296 151.266412 
L 134.929724 151.266412 
L 135.028171 150.721088 
L 135.126079 150.663686 
L 135.223453 150.147064 
L 135.271942 150.147064 
L 135.368527 149.687844 
L 135.464592 149.687844 
L 135.560144 148.568497 
L 135.607728 148.568497 
L 135.70252 148.080576 
L 135.749727 148.080576 
L 135.84377 147.334344 
L 135.890607 147.334344 
L 135.983913 146.616814 
L 136.030384 146.616814 
L 136.122965 145.35396 
L 136.215069 145.35396 
L 136.306701 144.837338 
L 136.397865 144.779935 
L 136.488566 144.17721 
L 136.578809 144.148508 
L 136.668599 142.742148 
L 136.75794 142.713447 
L 136.846836 142.455136 
L 136.979357 142.369033 
L 137.067161 141.881112 
L 137.110902 141.881112 
L 137.198064 141.048776 
L 137.284802 140.991374 
L 137.371122 140.819166 
L 137.457026 140.819166 
L 137.54252 139.556313 
L 137.627606 139.470209 
L 137.712289 139.211898 
L 137.796573 139.211898 
L 137.880461 138.953587 
L 138.047065 138.867483 
L 138.129788 138.465666 
L 138.212129 138.465666 
L 138.294093 138.149953 
L 138.334935 138.149953 
L 138.375683 137.748136 
L 138.537753 137.662032 
L 138.61824 137.260215 
L 138.698367 137.260215 
L 138.778135 137.030605 
L 138.857549 137.030605 
L 138.936612 136.600087 
L 139.015326 136.600087 
L 139.093695 136.341776 
L 139.24941 136.255672 
L 139.326761 135.595544 
L 139.442163 135.50944 
L 139.480466 135.394635 
L 139.63286 135.365934 
L 139.708573 135.193727 
L 139.783966 135.193727 
L 139.859042 134.849312 
L 139.933804 134.849312 
L 140.008255 134.33269 
L 140.156232 134.275288 
L 140.229763 134.074379 
L 140.302993 134.074379 
L 140.375924 133.500355 
L 140.448559 133.500355 
L 140.5209 133.213342 
L 140.592949 133.213342 
L 140.664708 132.553214 
L 140.878274 132.467111 
L 140.948899 131.634775 
L 141.019246 131.634775 
L 141.019246 131.146854 
L 141.159114 131.146854 
L 141.22864 130.831141 
L 141.366886 130.745037 
L 141.435609 130.056208 
L 141.504069 130.056208 
L 141.572268 129.424781 
L 141.775317 129.338677 
L 141.842491 129.137769 
L 141.909413 129.137769 
L 141.976085 128.879458 
L 142.042509 128.879458 
L 142.108687 128.448939 
L 142.174622 128.448939 
L 142.240313 128.018421 
L 142.370976 127.932317 
L 142.435951 127.473098 
L 142.565197 127.444397 
L 142.629471 127.243488 
L 142.884279 127.157384 
L 142.884279 126.899073 
L 143.010333 126.899073 
L 143.073028 126.439854 
L 143.135504 126.439854 
L 143.197763 126.181543 
L 143.259805 126.181543 
L 143.259805 125.894531 
L 143.444649 125.865829 
L 143.505841 125.464012 
L 143.627601 125.40661 
L 143.688171 125.177 
L 143.808698 125.148299 
L 143.868658 124.889988 
L 143.928418 124.889988 
L 143.928418 124.689079 
L 144.282838 124.602975 
L 144.282838 124.574274 
L 144.399433 124.574274 
L 144.457447 124.201158 
L 144.914895 124.201158 
L 144.914895 124.028951 
L 145.305776 124.00025 
L 145.305776 123.914146 
L 145.903246 123.885445 
L 145.903246 123.799341 
L 150.349191 123.741939 
L 150.349191 123.684536 
L 151.556956 123.627134 
L 151.556956 123.512329 
L 152.978183 123.454927 
L 152.978183 123.397524 
L 154.853585 123.31142 
L 154.950431 123.196616 
L 155.30111 123.139213 
L 155.30111 123.081811 
L 155.891075 123.024408 
L 155.982473 122.909603 
L 156.813698 122.8235 
L 156.813698 122.794798 
L 156.986896 122.794798 
L 156.986896 122.59389 
L 358.8 122.59389 
L 358.8 122.59389 
" style="fill:none;stroke:#ffa500;stroke-linecap:square;stroke-width:1.5;"/>
   </g>
   <g id="line2d_35">
    <defs>
     <path d="M 0 -6 
L -1.347084 -1.854102 
L -5.706339 -1.854102 
L -2.179628 0.708204 
L -3.526712 4.854102 
L -0 2.291796 
L 3.526712 4.854102 
L 2.179628 0.708204 
L 5.706339 -1.854102 
L 1.347084 -1.854102 
z
" id="m2586953a2f" style="stroke:#ffa500;stroke-linejoin:bevel;stroke-width:1.5;"/>
    </defs>
    <g>
     <use style="fill:none;stroke:#ffa500;stroke-linejoin:bevel;stroke-width:1.5;" x="99.557623" xlink:href="#m2586953a2f" y="244.229673"/>
     <use style="fill:none;stroke:#ffa500;stroke-linejoin:bevel;stroke-width:1.5;" x="133.058096" xlink:href="#m2586953a2f" y="160.823919"/>
     <use style="fill:none;stroke:#ffa500;stroke-linejoin:bevel;stroke-width:1.5;" x="156.986896" xlink:href="#m2586953a2f" y="122.794798"/>
     <use style="fill:none;stroke:#ffa500;stroke-linejoin:bevel;stroke-width:1.5;" x="156.986896" xlink:href="#m2586953a2f" y="122.59389"/>
     <use style="fill:none;stroke:#ffa500;stroke-linejoin:bevel;stroke-width:1.5;" x="156.986896" xlink:href="#m2586953a2f" y="122.59389"/>
     <use style="fill:none;stroke:#ffa500;stroke-linejoin:bevel;stroke-width:1.5;" x="358.8" xlink:href="#m2586953a2f" y="122.59389"/>
    </g>
   </g>
   <g id="line2d_36"/>
   <g id="line2d_37">
    <path clip-path="url(#p6819888fd7)" d="M 197.458001 122.59389 
" style="fill:none;stroke:#ffa500;stroke-linecap:square;stroke-width:1.5;"/>
    <defs>
     <path d="M -12 12 
L 12 -12 
M -12 -12 
L 12 12 
" id="m3cf0ed1046" style="stroke:#ffa500;stroke-width:3;"/>
    </defs>
    <g clip-path="url(#p6819888fd7)">
     <use style="fill:#ffa500;stroke:#ffa500;stroke-width:3;" x="197.458001" xlink:href="#m3cf0ed1046" y="122.59389"/>
    </g>
   </g>
   <g id="line2d_38">
    <path d="M 358.8 122.59389 
L 390.48 292.97583 
" style="fill:none;stroke:#000080;stroke-linecap:square;stroke-width:1.5;"/>
    <g>
     <use style="fill:none;stroke:#000080;stroke-width:1.5;" x="358.8" xlink:href="#m5534336076" y="122.59389"/>
     <use style="fill:none;stroke:#000080;stroke-width:1.5;" x="390.48" xlink:href="#m5534336076" y="292.97583"/>
    </g>
   </g>
   <g id="line2d_39">
    <path d="M 358.8 122.59389 
L 390.48 166.506761 
" style="fill:none;stroke:#ff00ff;stroke-linecap:square;stroke-width:1.5;"/>
    <g>
     <use style="fill:none;stroke:#ff00ff;stroke-linejoin:miter;stroke-width:1.5;" x="358.8" xlink:href="#m5c84bd9ce5" y="122.59389"/>
     <use style="fill:none;stroke:#ff00ff;stroke-linejoin:miter;stroke-width:1.5;" x="390.48" xlink:href="#m5c84bd9ce5" y="166.506761"/>
    </g>
   </g>
   <g id="line2d_40">
    <path d="M 358.8 122.59389 
L 390.48 40.037692 
" style="fill:none;stroke:#ffa500;stroke-linecap:square;stroke-width:1.5;"/>
    <g>
     <use style="fill:none;stroke:#ffa500;stroke-linejoin:bevel;stroke-width:1.5;" x="358.8" xlink:href="#m2586953a2f" y="122.59389"/>
     <use style="fill:none;stroke:#ffa500;stroke-linejoin:bevel;stroke-width:1.5;" x="390.48" xlink:href="#m2586953a2f" y="40.037692"/>
    </g>
   </g>
   <g id="line2d_41">
    <path d="M 358.8 298.245375 
L 358.8 34.768147 
" style="fill:none;stroke:#000000;stroke-linecap:square;stroke-width:1.5;"/>
   </g>
   <g id="patch_3">
    <path d="M 70.8 298.245375 
L 70.8 32.133375 
" style="fill:none;stroke:#000000;stroke-linecap:square;stroke-linejoin:miter;stroke-width:0.8;"/>
   </g>
   <g id="patch_4">
    <path d="M 427.92 298.245375 
L 427.92 32.133375 
" style="fill:none;stroke:#000000;stroke-linecap:square;stroke-linejoin:miter;stroke-width:0.8;"/>
   </g>
   <g id="patch_5">
    <path d="M 70.8 298.245375 
L 427.92 298.245375 
" style="fill:none;stroke:#000000;stroke-linecap:square;stroke-linejoin:miter;stroke-width:0.8;"/>
   </g>
   <g id="patch_6">
    <path d="M 70.8 32.133375 
L 427.92 32.133375 
" style="fill:none;stroke:#000000;stroke-linecap:square;stroke-linejoin:miter;stroke-width:0.8;"/>
   </g>
   <g id="text_14">
    <!-- cobyla-1e-10  -->
    <defs>
     <path d="M 48.6875 27.296875 
Q 48.6875 37.203125 44.609375 42.84375 
Q 40.53125 48.484375 33.40625 48.484375 
Q 26.265625 48.484375 22.1875 42.84375 
Q 18.109375 37.203125 18.109375 27.296875 
Q 18.109375 17.390625 22.1875 11.75 
Q 26.265625 6.109375 33.40625 6.109375 
Q 40.53125 6.109375 44.609375 11.75 
Q 48.6875 17.390625 48.6875 27.296875 
z
M 18.109375 46.390625 
Q 20.953125 51.265625 25.265625 53.625 
Q 29.59375 56 35.59375 56 
Q 45.5625 56 51.78125 48.09375 
Q 58.015625 40.1875 58.015625 27.296875 
Q 58.015625 14.40625 51.78125 6.484375 
Q 45.5625 -1.421875 35.59375 -1.421875 
Q 29.59375 -1.421875 25.265625 0.953125 
Q 20.953125 3.328125 18.109375 8.203125 
L 18.109375 0 
L 9.078125 0 
L 9.078125 75.984375 
L 18.109375 75.984375 
z
" id="DejaVuSans-62"/>
     <path d="M 32.171875 -5.078125 
Q 28.375 -14.84375 24.75 -17.8125 
Q 21.140625 -20.796875 15.09375 -20.796875 
L 7.90625 -20.796875 
L 7.90625 -13.28125 
L 13.1875 -13.28125 
Q 16.890625 -13.28125 18.9375 -11.515625 
Q 21 -9.765625 23.484375 -3.21875 
L 25.09375 0.875 
L 2.984375 54.6875 
L 12.5 54.6875 
L 29.59375 11.921875 
L 46.6875 54.6875 
L 56.203125 54.6875 
z
" id="DejaVuSans-79"/>
    </defs>
    <g transform="translate(396.24 297.114893)scale(0.15 -0.15)">
     <use xlink:href="#DejaVuSans-63"/>
     <use x="54.980469" xlink:href="#DejaVuSans-6f"/>
     <use x="116.162109" xlink:href="#DejaVuSans-62"/>
     <use x="179.638672" xlink:href="#DejaVuSans-79"/>
     <use x="238.818359" xlink:href="#DejaVuSans-6c"/>
     <use x="266.601562" xlink:href="#DejaVuSans-61"/>
     <use x="327.880859" xlink:href="#DejaVuSans-2d"/>
     <use x="363.964844" xlink:href="#DejaVuSans-31"/>
     <use x="427.587891" xlink:href="#DejaVuSans-65"/>
     <use x="489.111328" xlink:href="#DejaVuSans-2d"/>
     <use x="525.195312" xlink:href="#DejaVuSans-31"/>
     <use x="588.818359" xlink:href="#DejaVuSans-30"/>
     <use x="652.441406" xlink:href="#DejaVuSans-20"/>
    </g>
   </g>
   <g id="text_15">
    <!-- cobyla-1e-7 o -->
    <defs>
     <path d="M 8.203125 72.90625 
L 55.078125 72.90625 
L 55.078125 68.703125 
L 28.609375 0 
L 18.3125 0 
L 43.21875 64.59375 
L 8.203125 64.59375 
z
" id="DejaVuSans-37"/>
    </defs>
    <g transform="translate(396.24 170.645824)scale(0.15 -0.15)">
     <use xlink:href="#DejaVuSans-63"/>
     <use x="54.980469" xlink:href="#DejaVuSans-6f"/>
     <use x="116.162109" xlink:href="#DejaVuSans-62"/>
     <use x="179.638672" xlink:href="#DejaVuSans-79"/>
     <use x="238.818359" xlink:href="#DejaVuSans-6c"/>
     <use x="266.601562" xlink:href="#DejaVuSans-61"/>
     <use x="327.880859" xlink:href="#DejaVuSans-2d"/>
     <use x="363.964844" xlink:href="#DejaVuSans-31"/>
     <use x="427.587891" xlink:href="#DejaVuSans-65"/>
     <use x="489.111328" xlink:href="#DejaVuSans-2d"/>
     <use x="525.195312" xlink:href="#DejaVuSans-37"/>
     <use x="588.818359" xlink:href="#DejaVuSans-20"/>
     <use x="620.605469" xlink:href="#DejaVuSans-6f"/>
    </g>
   </g>
   <g id="text_16">
    <!-- cobyla-1e-5 o -->
    <defs>
     <path d="M 10.796875 72.90625 
L 49.515625 72.90625 
L 49.515625 64.59375 
L 19.828125 64.59375 
L 19.828125 46.734375 
Q 21.96875 47.46875 24.109375 47.828125 
Q 26.265625 48.1875 28.421875 48.1875 
Q 40.625 48.1875 47.75 41.5 
Q 54.890625 34.8125 54.890625 23.390625 
Q 54.890625 11.625 47.5625 5.09375 
Q 40.234375 -1.421875 26.90625 -1.421875 
Q 22.3125 -1.421875 17.546875 -0.640625 
Q 12.796875 0.140625 7.71875 1.703125 
L 7.71875 11.625 
Q 12.109375 9.234375 16.796875 8.0625 
Q 21.484375 6.890625 26.703125 6.890625 
Q 35.15625 6.890625 40.078125 11.328125 
Q 45.015625 15.765625 45.015625 23.390625 
Q 45.015625 31 40.078125 35.4375 
Q 35.15625 39.890625 26.703125 39.890625 
Q 22.75 39.890625 18.8125 39.015625 
Q 14.890625 38.140625 10.796875 36.28125 
z
" id="DejaVuSans-35"/>
    </defs>
    <g transform="translate(396.24 44.176754)scale(0.15 -0.15)">
     <use xlink:href="#DejaVuSans-63"/>
     <use x="54.980469" xlink:href="#DejaVuSans-6f"/>
     <use x="116.162109" xlink:href="#DejaVuSans-62"/>
     <use x="179.638672" xlink:href="#DejaVuSans-79"/>
     <use x="238.818359" xlink:href="#DejaVuSans-6c"/>
     <use x="266.601562" xlink:href="#DejaVuSans-61"/>
     <use x="327.880859" xlink:href="#DejaVuSans-2d"/>
     <use x="363.964844" xlink:href="#DejaVuSans-31"/>
     <use x="427.587891" xlink:href="#DejaVuSans-65"/>
     <use x="489.111328" xlink:href="#DejaVuSans-2d"/>
     <use x="525.195312" xlink:href="#DejaVuSans-35"/>
     <use x="588.818359" xlink:href="#DejaVuSans-20"/>
     <use x="620.605469" xlink:href="#DejaVuSans-6f"/>
    </g>
   </g>
   <g id="text_17">
    <!-- bbob-constrained - f1-f18, 10-D -->
    <defs>
     <path d="M 11.71875 12.40625 
L 22.015625 12.40625 
L 22.015625 4 
L 14.015625 -11.625 
L 7.71875 -11.625 
L 11.71875 4 
z
" id="DejaVuSans-2c"/>
     <path d="M 19.671875 64.796875 
L 19.671875 8.109375 
L 31.59375 8.109375 
Q 46.6875 8.109375 53.6875 14.9375 
Q 60.6875 21.78125 60.6875 36.53125 
Q 60.6875 51.171875 53.6875 57.984375 
Q 46.6875 64.796875 31.59375 64.796875 
z
M 9.8125 72.90625 
L 30.078125 72.90625 
Q 51.265625 72.90625 61.171875 64.09375 
Q 71.09375 55.28125 71.09375 36.53125 
Q 71.09375 17.671875 61.125 8.828125 
Q 51.171875 0 30.078125 0 
L 9.8125 0 
z
" id="DejaVuSans-44"/>
    </defs>
    <g transform="translate(74.3712 50.114612)scale(0.1666 -0.1666)">
     <use xlink:href="#DejaVuSans-62"/>
     <use x="63.476562" xlink:href="#DejaVuSans-62"/>
     <use x="126.953125" xlink:href="#DejaVuSans-6f"/>
     <use x="188.134766" xlink:href="#DejaVuSans-62"/>
     <use x="251.611328" xlink:href="#DejaVuSans-2d"/>
     <use x="287.695312" xlink:href="#DejaVuSans-63"/>
     <use x="342.675781" xlink:href="#DejaVuSans-6f"/>
     <use x="403.857422" xlink:href="#DejaVuSans-6e"/>
     <use x="467.236328" xlink:href="#DejaVuSans-73"/>
     <use x="519.335938" xlink:href="#DejaVuSans-74"/>
     <use x="558.544922" xlink:href="#DejaVuSans-72"/>
     <use x="599.658203" xlink:href="#DejaVuSans-61"/>
     <use x="660.9375" xlink:href="#DejaVuSans-69"/>
     <use x="688.720703" xlink:href="#DejaVuSans-6e"/>
     <use x="752.099609" xlink:href="#DejaVuSans-65"/>
     <use x="813.623047" xlink:href="#DejaVuSans-64"/>
     <use x="877.099609" xlink:href="#DejaVuSans-20"/>
     <use x="908.886719" xlink:href="#DejaVuSans-2d"/>
     <use x="944.970703" xlink:href="#DejaVuSans-20"/>
     <use x="976.757812" xlink:href="#DejaVuSans-66"/>
     <use x="1011.962891" xlink:href="#DejaVuSans-31"/>
     <use x="1075.585938" xlink:href="#DejaVuSans-2d"/>
     <use x="1111.669922" xlink:href="#DejaVuSans-66"/>
     <use x="1146.875" xlink:href="#DejaVuSans-31"/>
     <use x="1210.498047" xlink:href="#DejaVuSans-38"/>
     <use x="1274.121094" xlink:href="#DejaVuSans-2c"/>
     <use x="1305.908203" xlink:href="#DejaVuSans-20"/>
     <use x="1337.695312" xlink:href="#DejaVuSans-31"/>
     <use x="1401.318359" xlink:href="#DejaVuSans-30"/>
     <use x="1464.941406" xlink:href="#DejaVuSans-2d"/>
     <use x="1501.025391" xlink:href="#DejaVuSans-44"/>
    </g>
    <!-- 51 targets in 100..1e-08 -->
    <g transform="translate(74.3712 68.770168)scale(0.1666 -0.1666)">
     <use xlink:href="#DejaVuSans-35"/>
     <use x="63.623047" xlink:href="#DejaVuSans-31"/>
     <use x="127.246094" xlink:href="#DejaVuSans-20"/>
     <use x="159.033203" xlink:href="#DejaVuSans-74"/>
     <use x="198.242188" xlink:href="#DejaVuSans-61"/>
     <use x="259.521484" xlink:href="#DejaVuSans-72"/>
     <use x="300.619141" xlink:href="#DejaVuSans-67"/>
     <use x="364.095703" xlink:href="#DejaVuSans-65"/>
     <use x="425.619141" xlink:href="#DejaVuSans-74"/>
     <use x="464.828125" xlink:href="#DejaVuSans-73"/>
     <use x="516.927734" xlink:href="#DejaVuSans-20"/>
     <use x="548.714844" xlink:href="#DejaVuSans-69"/>
     <use x="576.498047" xlink:href="#DejaVuSans-6e"/>
     <use x="639.876953" xlink:href="#DejaVuSans-20"/>
     <use x="671.664062" xlink:href="#DejaVuSans-31"/>
     <use x="735.287109" xlink:href="#DejaVuSans-30"/>
     <use x="798.910156" xlink:href="#DejaVuSans-30"/>
     <use x="862.533203" xlink:href="#DejaVuSans-2e"/>
     <use x="894.320312" xlink:href="#DejaVuSans-2e"/>
     <use x="926.107422" xlink:href="#DejaVuSans-31"/>
     <use x="989.730469" xlink:href="#DejaVuSans-65"/>
     <use x="1051.253906" xlink:href="#DejaVuSans-2d"/>
     <use x="1087.337891" xlink:href="#DejaVuSans-30"/>
     <use x="1150.960938" xlink:href="#DejaVuSans-38"/>
    </g>
    <!-- 15 instances -->
    <g transform="translate(74.3712 87.425723)scale(0.1666 -0.1666)">
     <use xlink:href="#DejaVuSans-31"/>
     <use x="63.623047" xlink:href="#DejaVuSans-35"/>
     <use x="127.246094" xlink:href="#DejaVuSans-20"/>
     <use x="159.033203" xlink:href="#DejaVuSans-69"/>
     <use x="186.816406" xlink:href="#DejaVuSans-6e"/>
     <use x="250.195312" xlink:href="#DejaVuSans-73"/>
     <use x="302.294922" xlink:href="#DejaVuSans-74"/>
     <use x="341.503906" xlink:href="#DejaVuSans-61"/>
     <use x="402.783203" xlink:href="#DejaVuSans-6e"/>
     <use x="466.162109" xlink:href="#DejaVuSans-63"/>
     <use x="521.142578" xlink:href="#DejaVuSans-65"/>
     <use x="582.666016" xlink:href="#DejaVuSans-73"/>
    </g>
   </g>
   <g id="text_18">
    <!-- v2.0.312 -->
    <defs>
     <path d="M 40.578125 39.3125 
Q 47.65625 37.796875 51.625 33 
Q 55.609375 28.21875 55.609375 21.1875 
Q 55.609375 10.40625 48.1875 4.484375 
Q 40.765625 -1.421875 27.09375 -1.421875 
Q 22.515625 -1.421875 17.65625 -0.515625 
Q 12.796875 0.390625 7.625 2.203125 
L 7.625 11.71875 
Q 11.71875 9.328125 16.59375 8.109375 
Q 21.484375 6.890625 26.8125 6.890625 
Q 36.078125 6.890625 40.9375 10.546875 
Q 45.796875 14.203125 45.796875 21.1875 
Q 45.796875 27.640625 41.28125 31.265625 
Q 36.765625 34.90625 28.71875 34.90625 
L 20.21875 34.90625 
L 20.21875 43.015625 
L 29.109375 43.015625 
Q 36.375 43.015625 40.234375 45.921875 
Q 44.09375 48.828125 44.09375 54.296875 
Q 44.09375 59.90625 40.109375 62.90625 
Q 36.140625 65.921875 28.71875 65.921875 
Q 24.65625 65.921875 20.015625 65.03125 
Q 15.375 64.15625 9.8125 62.3125 
L 9.8125 71.09375 
Q 15.4375 72.65625 20.34375 73.4375 
Q 25.25 74.21875 29.59375 74.21875 
Q 40.828125 74.21875 47.359375 69.109375 
Q 53.90625 64.015625 53.90625 55.328125 
Q 53.90625 49.265625 50.4375 45.09375 
Q 46.96875 40.921875 40.578125 39.3125 
z
" id="DejaVuSans-33"/>
    </defs>
    <g style="fill:#808080;" transform="translate(227.31625 293.504568)scale(0.1 -0.1)">
     <use xlink:href="#DejaVuSans-76"/>
     <use x="59.179688" xlink:href="#DejaVuSans-32"/>
     <use x="122.802734" xlink:href="#DejaVuSans-2e"/>
     <use x="154.589844" xlink:href="#DejaVuSans-30"/>
     <use x="218.212891" xlink:href="#DejaVuSans-2e"/>
     <use x="250" xlink:href="#DejaVuSans-33"/>
     <use x="313.623047" xlink:href="#DejaVuSans-31"/>
     <use x="377.246094" xlink:href="#DejaVuSans-32"/>
    </g>
   </g>
  </g>
 </g>
 <defs>
  <clipPath id="p6819888fd7">
   <rect height="266.112" width="357.12" x="70.8" y="32.133375"/>
  </clipPath>
 </defs>
</svg>
