<?xml version="1.0" encoding="utf-8" standalone="no"?>
<!DOCTYPE svg PUBLIC "-//W3C//DTD SVG 1.1//EN"
  "http://www.w3.org/Graphics/SVG/1.1/DTD/svg11.dtd">
<!-- Created with matplotlib (http://matplotlib.org/) -->
<svg height="353pt" version="1.1" viewBox="0 0 506 353" width="506pt" xmlns="http://www.w3.org/2000/svg" xmlns:xlink="http://www.w3.org/1999/xlink">
 <defs>
  <style type="text/css">
*{stroke-linecap:butt;stroke-linejoin:round;}
  </style>
 </defs>
 <g id="figure_1">
  <g id="patch_1">
   <path d="M 0 353.22225 
L 506.0775 353.22225 
L 506.0775 0 
L 0 0 
z
" style="fill:#ffffff;"/>
  </g>
  <g id="axes_1">
   <g id="patch_2">
    <path d="M 70.8 298.245375 
L 427.92 298.245375 
L 427.92 32.133375 
L 70.8 32.133375 
z
" style="fill:#ffffff;"/>
   </g>
   <g id="matplotlib.axis_1">
    <g id="xtick_1">
     <g id="line2d_1">
      <path clip-path="url(#pea6a131106)" d="M 70.8 298.245375 
L 70.8 32.133375 
" style="fill:none;stroke:#b0b0b0;stroke-linecap:square;stroke-width:0.8;"/>
     </g>
     <g id="line2d_2">
      <defs>
       <path d="M 0 0 
L 0 3.5 
" id="m204f821e1f" style="stroke:#000000;stroke-width:0.8;"/>
      </defs>
      <g>
       <use style="stroke:#000000;stroke-width:0.8;" x="70.8" xlink:href="#m204f821e1f" y="298.245375"/>
      </g>
     </g>
     <g id="text_1">
      <!-- 0 -->
      <defs>
       <path d="M 31.78125 66.40625 
Q 24.171875 66.40625 20.328125 58.90625 
Q 16.5 51.421875 16.5 36.375 
Q 16.5 21.390625 20.328125 13.890625 
Q 24.171875 6.390625 31.78125 6.390625 
Q 39.453125 6.390625 43.28125 13.890625 
Q 47.125 21.390625 47.125 36.375 
Q 47.125 51.421875 43.28125 58.90625 
Q 39.453125 66.40625 31.78125 66.40625 
z
M 31.78125 74.21875 
Q 44.046875 74.21875 50.515625 64.515625 
Q 56.984375 54.828125 56.984375 36.375 
Q 56.984375 17.96875 50.515625 8.265625 
Q 44.046875 -1.421875 31.78125 -1.421875 
Q 19.53125 -1.421875 13.0625 8.265625 
Q 6.59375 17.96875 6.59375 36.375 
Q 6.59375 54.828125 13.0625 64.515625 
Q 19.53125 74.21875 31.78125 74.21875 
z
" id="DejaVuSans-30"/>
      </defs>
      <g transform="translate(64.4375 320.44225)scale(0.2 -0.2)">
       <use xlink:href="#DejaVuSans-30"/>
      </g>
     </g>
    </g>
    <g id="xtick_2">
     <g id="line2d_3">
      <path clip-path="url(#pea6a131106)" d="M 153.085714 298.245375 
L 153.085714 32.133375 
" style="fill:none;stroke:#b0b0b0;stroke-linecap:square;stroke-width:0.8;"/>
     </g>
     <g id="line2d_4">
      <g>
       <use style="stroke:#000000;stroke-width:0.8;" x="153.085714" xlink:href="#m204f821e1f" y="298.245375"/>
      </g>
     </g>
     <g id="text_2">
      <!-- 2 -->
      <defs>
       <path d="M 19.1875 8.296875 
L 53.609375 8.296875 
L 53.609375 0 
L 7.328125 0 
L 7.328125 8.296875 
Q 12.9375 14.109375 22.625 23.890625 
Q 32.328125 33.6875 34.8125 36.53125 
Q 39.546875 41.84375 41.421875 45.53125 
Q 43.3125 49.21875 43.3125 52.78125 
Q 43.3125 58.59375 39.234375 62.25 
Q 35.15625 65.921875 28.609375 65.921875 
Q 23.96875 65.921875 18.8125 64.3125 
Q 13.671875 62.703125 7.8125 59.421875 
L 7.8125 69.390625 
Q 13.765625 71.78125 18.9375 73 
Q 24.125 74.21875 28.421875 74.21875 
Q 39.75 74.21875 46.484375 68.546875 
Q 53.21875 62.890625 53.21875 53.421875 
Q 53.21875 48.921875 51.53125 44.890625 
Q 49.859375 40.875 45.40625 35.40625 
Q 44.1875 33.984375 37.640625 27.21875 
Q 31.109375 20.453125 19.1875 8.296875 
z
" id="DejaVuSans-32"/>
      </defs>
      <g transform="translate(146.723214 320.44225)scale(0.2 -0.2)">
       <use xlink:href="#DejaVuSans-32"/>
      </g>
     </g>
    </g>
    <g id="xtick_3">
     <g id="line2d_5">
      <path clip-path="url(#pea6a131106)" d="M 235.371429 298.245375 
L 235.371429 32.133375 
" style="fill:none;stroke:#b0b0b0;stroke-linecap:square;stroke-width:0.8;"/>
     </g>
     <g id="line2d_6">
      <g>
       <use style="stroke:#000000;stroke-width:0.8;" x="235.371429" xlink:href="#m204f821e1f" y="298.245375"/>
      </g>
     </g>
     <g id="text_3">
      <!-- 4 -->
      <defs>
       <path d="M 37.796875 64.3125 
L 12.890625 25.390625 
L 37.796875 25.390625 
z
M 35.203125 72.90625 
L 47.609375 72.90625 
L 47.609375 25.390625 
L 58.015625 25.390625 
L 58.015625 17.1875 
L 47.609375 17.1875 
L 47.609375 0 
L 37.796875 0 
L 37.796875 17.1875 
L 4.890625 17.1875 
L 4.890625 26.703125 
z
" id="DejaVuSans-34"/>
      </defs>
      <g transform="translate(229.008929 320.44225)scale(0.2 -0.2)">
       <use xlink:href="#DejaVuSans-34"/>
      </g>
     </g>
    </g>
    <g id="xtick_4">
     <g id="line2d_7">
      <path clip-path="url(#pea6a131106)" d="M 317.657143 298.245375 
L 317.657143 32.133375 
" style="fill:none;stroke:#b0b0b0;stroke-linecap:square;stroke-width:0.8;"/>
     </g>
     <g id="line2d_8">
      <g>
       <use style="stroke:#000000;stroke-width:0.8;" x="317.657143" xlink:href="#m204f821e1f" y="298.245375"/>
      </g>
     </g>
     <g id="text_4">
      <!-- 6 -->
      <defs>
       <path d="M 33.015625 40.375 
Q 26.375 40.375 22.484375 35.828125 
Q 18.609375 31.296875 18.609375 23.390625 
Q 18.609375 15.53125 22.484375 10.953125 
Q 26.375 6.390625 33.015625 6.390625 
Q 39.65625 6.390625 43.53125 10.953125 
Q 47.40625 15.53125 47.40625 23.390625 
Q 47.40625 31.296875 43.53125 35.828125 
Q 39.65625 40.375 33.015625 40.375 
z
M 52.59375 71.296875 
L 52.59375 62.3125 
Q 48.875 64.0625 45.09375 64.984375 
Q 41.3125 65.921875 37.59375 65.921875 
Q 27.828125 65.921875 22.671875 59.328125 
Q 17.53125 52.734375 16.796875 39.40625 
Q 19.671875 43.65625 24.015625 45.921875 
Q 28.375 48.1875 33.59375 48.1875 
Q 44.578125 48.1875 50.953125 41.515625 
Q 57.328125 34.859375 57.328125 23.390625 
Q 57.328125 12.15625 50.6875 5.359375 
Q 44.046875 -1.421875 33.015625 -1.421875 
Q 20.359375 -1.421875 13.671875 8.265625 
Q 6.984375 17.96875 6.984375 36.375 
Q 6.984375 53.65625 15.1875 63.9375 
Q 23.390625 74.21875 37.203125 74.21875 
Q 40.921875 74.21875 44.703125 73.484375 
Q 48.484375 72.75 52.59375 71.296875 
z
" id="DejaVuSans-36"/>
      </defs>
      <g transform="translate(311.294643 320.44225)scale(0.2 -0.2)">
       <use xlink:href="#DejaVuSans-36"/>
      </g>
     </g>
    </g>
    <g id="xtick_5">
     <g id="line2d_9">
      <path clip-path="url(#pea6a131106)" d="M 399.942857 298.245375 
L 399.942857 32.133375 
" style="fill:none;stroke:#b0b0b0;stroke-linecap:square;stroke-width:0.8;"/>
     </g>
     <g id="line2d_10">
      <g>
       <use style="stroke:#000000;stroke-width:0.8;" x="399.942857" xlink:href="#m204f821e1f" y="298.245375"/>
      </g>
     </g>
     <g id="text_5">
      <!-- 8 -->
      <defs>
       <path d="M 31.78125 34.625 
Q 24.75 34.625 20.71875 30.859375 
Q 16.703125 27.09375 16.703125 20.515625 
Q 16.703125 13.921875 20.71875 10.15625 
Q 24.75 6.390625 31.78125 6.390625 
Q 38.8125 6.390625 42.859375 10.171875 
Q 46.921875 13.96875 46.921875 20.515625 
Q 46.921875 27.09375 42.890625 30.859375 
Q 38.875 34.625 31.78125 34.625 
z
M 21.921875 38.8125 
Q 15.578125 40.375 12.03125 44.71875 
Q 8.5 49.078125 8.5 55.328125 
Q 8.5 64.0625 14.71875 69.140625 
Q 20.953125 74.21875 31.78125 74.21875 
Q 42.671875 74.21875 48.875 69.140625 
Q 55.078125 64.0625 55.078125 55.328125 
Q 55.078125 49.078125 51.53125 44.71875 
Q 48 40.375 41.703125 38.8125 
Q 48.828125 37.15625 52.796875 32.3125 
Q 56.78125 27.484375 56.78125 20.515625 
Q 56.78125 9.90625 50.3125 4.234375 
Q 43.84375 -1.421875 31.78125 -1.421875 
Q 19.734375 -1.421875 13.25 4.234375 
Q 6.78125 9.90625 6.78125 20.515625 
Q 6.78125 27.484375 10.78125 32.3125 
Q 14.796875 37.15625 21.921875 38.8125 
z
M 18.3125 54.390625 
Q 18.3125 48.734375 21.84375 45.5625 
Q 25.390625 42.390625 31.78125 42.390625 
Q 38.140625 42.390625 41.71875 45.5625 
Q 45.3125 48.734375 45.3125 54.390625 
Q 45.3125 60.0625 41.71875 63.234375 
Q 38.140625 66.40625 31.78125 66.40625 
Q 25.390625 66.40625 21.84375 63.234375 
Q 18.3125 60.0625 18.3125 54.390625 
z
" id="DejaVuSans-38"/>
      </defs>
      <g transform="translate(393.580357 320.44225)scale(0.2 -0.2)">
       <use xlink:href="#DejaVuSans-38"/>
      </g>
     </g>
    </g>
    <g id="text_6">
     <!-- log10 of # (f+g)-evals / dimension -->
     <defs>
      <path d="M 9.421875 75.984375 
L 18.40625 75.984375 
L 18.40625 0 
L 9.421875 0 
z
" id="DejaVuSans-6c"/>
      <path d="M 30.609375 48.390625 
Q 23.390625 48.390625 19.1875 42.75 
Q 14.984375 37.109375 14.984375 27.296875 
Q 14.984375 17.484375 19.15625 11.84375 
Q 23.34375 6.203125 30.609375 6.203125 
Q 37.796875 6.203125 41.984375 11.859375 
Q 46.1875 17.53125 46.1875 27.296875 
Q 46.1875 37.015625 41.984375 42.703125 
Q 37.796875 48.390625 30.609375 48.390625 
z
M 30.609375 56 
Q 42.328125 56 49.015625 48.375 
Q 55.71875 40.765625 55.71875 27.296875 
Q 55.71875 13.875 49.015625 6.21875 
Q 42.328125 -1.421875 30.609375 -1.421875 
Q 18.84375 -1.421875 12.171875 6.21875 
Q 5.515625 13.875 5.515625 27.296875 
Q 5.515625 40.765625 12.171875 48.375 
Q 18.84375 56 30.609375 56 
z
" id="DejaVuSans-6f"/>
      <path d="M 45.40625 27.984375 
Q 45.40625 37.75 41.375 43.109375 
Q 37.359375 48.484375 30.078125 48.484375 
Q 22.859375 48.484375 18.828125 43.109375 
Q 14.796875 37.75 14.796875 27.984375 
Q 14.796875 18.265625 18.828125 12.890625 
Q 22.859375 7.515625 30.078125 7.515625 
Q 37.359375 7.515625 41.375 12.890625 
Q 45.40625 18.265625 45.40625 27.984375 
z
M 54.390625 6.78125 
Q 54.390625 -7.171875 48.1875 -13.984375 
Q 42 -20.796875 29.203125 -20.796875 
Q 24.46875 -20.796875 20.265625 -20.09375 
Q 16.0625 -19.390625 12.109375 -17.921875 
L 12.109375 -9.1875 
Q 16.0625 -11.328125 19.921875 -12.34375 
Q 23.78125 -13.375 27.78125 -13.375 
Q 36.625 -13.375 41.015625 -8.765625 
Q 45.40625 -4.15625 45.40625 5.171875 
L 45.40625 9.625 
Q 42.625 4.78125 38.28125 2.390625 
Q 33.9375 0 27.875 0 
Q 17.828125 0 11.671875 7.65625 
Q 5.515625 15.328125 5.515625 27.984375 
Q 5.515625 40.671875 11.671875 48.328125 
Q 17.828125 56 27.875 56 
Q 33.9375 56 38.28125 53.609375 
Q 42.625 51.21875 45.40625 46.390625 
L 45.40625 54.6875 
L 54.390625 54.6875 
z
" id="DejaVuSans-67"/>
      <path d="M 12.40625 8.296875 
L 28.515625 8.296875 
L 28.515625 63.921875 
L 10.984375 60.40625 
L 10.984375 69.390625 
L 28.421875 72.90625 
L 38.28125 72.90625 
L 38.28125 8.296875 
L 54.390625 8.296875 
L 54.390625 0 
L 12.40625 0 
z
" id="DejaVuSans-31"/>
      <path id="DejaVuSans-20"/>
      <path d="M 37.109375 75.984375 
L 37.109375 68.5 
L 28.515625 68.5 
Q 23.6875 68.5 21.796875 66.546875 
Q 19.921875 64.59375 19.921875 59.515625 
L 19.921875 54.6875 
L 34.71875 54.6875 
L 34.71875 47.703125 
L 19.921875 47.703125 
L 19.921875 0 
L 10.890625 0 
L 10.890625 47.703125 
L 2.296875 47.703125 
L 2.296875 54.6875 
L 10.890625 54.6875 
L 10.890625 58.5 
Q 10.890625 67.625 15.140625 71.796875 
Q 19.390625 75.984375 28.609375 75.984375 
z
" id="DejaVuSans-66"/>
      <path d="M 51.125 44 
L 36.921875 44 
L 32.8125 27.6875 
L 47.125 27.6875 
z
M 43.796875 71.78125 
L 38.71875 51.515625 
L 52.984375 51.515625 
L 58.109375 71.78125 
L 65.921875 71.78125 
L 60.890625 51.515625 
L 76.125 51.515625 
L 76.125 44 
L 58.984375 44 
L 54.984375 27.6875 
L 70.515625 27.6875 
L 70.515625 20.21875 
L 53.078125 20.21875 
L 48 0 
L 40.1875 0 
L 45.21875 20.21875 
L 30.90625 20.21875 
L 25.875 0 
L 18.015625 0 
L 23.09375 20.21875 
L 7.71875 20.21875 
L 7.71875 27.6875 
L 24.90625 27.6875 
L 29 44 
L 13.28125 44 
L 13.28125 51.515625 
L 30.90625 51.515625 
L 35.890625 71.78125 
z
" id="DejaVuSans-23"/>
      <path d="M 31 75.875 
Q 24.46875 64.65625 21.28125 53.65625 
Q 18.109375 42.671875 18.109375 31.390625 
Q 18.109375 20.125 21.3125 9.0625 
Q 24.515625 -2 31 -13.1875 
L 23.1875 -13.1875 
Q 15.875 -1.703125 12.234375 9.375 
Q 8.59375 20.453125 8.59375 31.390625 
Q 8.59375 42.28125 12.203125 53.3125 
Q 15.828125 64.359375 23.1875 75.875 
z
" id="DejaVuSans-28"/>
      <path d="M 46 62.703125 
L 46 35.5 
L 73.1875 35.5 
L 73.1875 27.203125 
L 46 27.203125 
L 46 0 
L 37.796875 0 
L 37.796875 27.203125 
L 10.59375 27.203125 
L 10.59375 35.5 
L 37.796875 35.5 
L 37.796875 62.703125 
z
" id="DejaVuSans-2b"/>
      <path d="M 8.015625 75.875 
L 15.828125 75.875 
Q 23.140625 64.359375 26.78125 53.3125 
Q 30.421875 42.28125 30.421875 31.390625 
Q 30.421875 20.453125 26.78125 9.375 
Q 23.140625 -1.703125 15.828125 -13.1875 
L 8.015625 -13.1875 
Q 14.5 -2 17.703125 9.0625 
Q 20.90625 20.125 20.90625 31.390625 
Q 20.90625 42.671875 17.703125 53.65625 
Q 14.5 64.65625 8.015625 75.875 
z
" id="DejaVuSans-29"/>
      <path d="M 4.890625 31.390625 
L 31.203125 31.390625 
L 31.203125 23.390625 
L 4.890625 23.390625 
z
" id="DejaVuSans-2d"/>
      <path d="M 56.203125 29.59375 
L 56.203125 25.203125 
L 14.890625 25.203125 
Q 15.484375 15.921875 20.484375 11.0625 
Q 25.484375 6.203125 34.421875 6.203125 
Q 39.59375 6.203125 44.453125 7.46875 
Q 49.3125 8.734375 54.109375 11.28125 
L 54.109375 2.78125 
Q 49.265625 0.734375 44.1875 -0.34375 
Q 39.109375 -1.421875 33.890625 -1.421875 
Q 20.796875 -1.421875 13.15625 6.1875 
Q 5.515625 13.8125 5.515625 26.8125 
Q 5.515625 40.234375 12.765625 48.109375 
Q 20.015625 56 32.328125 56 
Q 43.359375 56 49.78125 48.890625 
Q 56.203125 41.796875 56.203125 29.59375 
z
M 47.21875 32.234375 
Q 47.125 39.59375 43.09375 43.984375 
Q 39.0625 48.390625 32.421875 48.390625 
Q 24.90625 48.390625 20.390625 44.140625 
Q 15.875 39.890625 15.1875 32.171875 
z
" id="DejaVuSans-65"/>
      <path d="M 2.984375 54.6875 
L 12.5 54.6875 
L 29.59375 8.796875 
L 46.6875 54.6875 
L 56.203125 54.6875 
L 35.6875 0 
L 23.484375 0 
z
" id="DejaVuSans-76"/>
      <path d="M 34.28125 27.484375 
Q 23.390625 27.484375 19.1875 25 
Q 14.984375 22.515625 14.984375 16.5 
Q 14.984375 11.71875 18.140625 8.90625 
Q 21.296875 6.109375 26.703125 6.109375 
Q 34.1875 6.109375 38.703125 11.40625 
Q 43.21875 16.703125 43.21875 25.484375 
L 43.21875 27.484375 
z
M 52.203125 31.203125 
L 52.203125 0 
L 43.21875 0 
L 43.21875 8.296875 
Q 40.140625 3.328125 35.546875 0.953125 
Q 30.953125 -1.421875 24.3125 -1.421875 
Q 15.921875 -1.421875 10.953125 3.296875 
Q 6 8.015625 6 15.921875 
Q 6 25.140625 12.171875 29.828125 
Q 18.359375 34.515625 30.609375 34.515625 
L 43.21875 34.515625 
L 43.21875 35.40625 
Q 43.21875 41.609375 39.140625 45 
Q 35.0625 48.390625 27.6875 48.390625 
Q 23 48.390625 18.546875 47.265625 
Q 14.109375 46.140625 10.015625 43.890625 
L 10.015625 52.203125 
Q 14.9375 54.109375 19.578125 55.046875 
Q 24.21875 56 28.609375 56 
Q 40.484375 56 46.34375 49.84375 
Q 52.203125 43.703125 52.203125 31.203125 
z
" id="DejaVuSans-61"/>
      <path d="M 44.28125 53.078125 
L 44.28125 44.578125 
Q 40.484375 46.53125 36.375 47.5 
Q 32.28125 48.484375 27.875 48.484375 
Q 21.1875 48.484375 17.84375 46.4375 
Q 14.5 44.390625 14.5 40.28125 
Q 14.5 37.15625 16.890625 35.375 
Q 19.28125 33.59375 26.515625 31.984375 
L 29.59375 31.296875 
Q 39.15625 29.25 43.1875 25.515625 
Q 47.21875 21.78125 47.21875 15.09375 
Q 47.21875 7.46875 41.1875 3.015625 
Q 35.15625 -1.421875 24.609375 -1.421875 
Q 20.21875 -1.421875 15.453125 -0.5625 
Q 10.6875 0.296875 5.421875 2 
L 5.421875 11.28125 
Q 10.40625 8.6875 15.234375 7.390625 
Q 20.0625 6.109375 24.8125 6.109375 
Q 31.15625 6.109375 34.5625 8.28125 
Q 37.984375 10.453125 37.984375 14.40625 
Q 37.984375 18.0625 35.515625 20.015625 
Q 33.0625 21.96875 24.703125 23.78125 
L 21.578125 24.515625 
Q 13.234375 26.265625 9.515625 29.90625 
Q 5.8125 33.546875 5.8125 39.890625 
Q 5.8125 47.609375 11.28125 51.796875 
Q 16.75 56 26.8125 56 
Q 31.78125 56 36.171875 55.265625 
Q 40.578125 54.546875 44.28125 53.078125 
z
" id="DejaVuSans-73"/>
      <path d="M 25.390625 72.90625 
L 33.6875 72.90625 
L 8.296875 -9.28125 
L 0 -9.28125 
z
" id="DejaVuSans-2f"/>
      <path d="M 45.40625 46.390625 
L 45.40625 75.984375 
L 54.390625 75.984375 
L 54.390625 0 
L 45.40625 0 
L 45.40625 8.203125 
Q 42.578125 3.328125 38.25 0.953125 
Q 33.9375 -1.421875 27.875 -1.421875 
Q 17.96875 -1.421875 11.734375 6.484375 
Q 5.515625 14.40625 5.515625 27.296875 
Q 5.515625 40.1875 11.734375 48.09375 
Q 17.96875 56 27.875 56 
Q 33.9375 56 38.25 53.625 
Q 42.578125 51.265625 45.40625 46.390625 
z
M 14.796875 27.296875 
Q 14.796875 17.390625 18.875 11.75 
Q 22.953125 6.109375 30.078125 6.109375 
Q 37.203125 6.109375 41.296875 11.75 
Q 45.40625 17.390625 45.40625 27.296875 
Q 45.40625 37.203125 41.296875 42.84375 
Q 37.203125 48.484375 30.078125 48.484375 
Q 22.953125 48.484375 18.875 42.84375 
Q 14.796875 37.203125 14.796875 27.296875 
z
" id="DejaVuSans-64"/>
      <path d="M 9.421875 54.6875 
L 18.40625 54.6875 
L 18.40625 0 
L 9.421875 0 
z
M 9.421875 75.984375 
L 18.40625 75.984375 
L 18.40625 64.59375 
L 9.421875 64.59375 
z
" id="DejaVuSans-69"/>
      <path d="M 52 44.1875 
Q 55.375 50.25 60.0625 53.125 
Q 64.75 56 71.09375 56 
Q 79.640625 56 84.28125 50.015625 
Q 88.921875 44.046875 88.921875 33.015625 
L 88.921875 0 
L 79.890625 0 
L 79.890625 32.71875 
Q 79.890625 40.578125 77.09375 44.375 
Q 74.3125 48.1875 68.609375 48.1875 
Q 61.625 48.1875 57.5625 43.546875 
Q 53.515625 38.921875 53.515625 30.90625 
L 53.515625 0 
L 44.484375 0 
L 44.484375 32.71875 
Q 44.484375 40.625 41.703125 44.40625 
Q 38.921875 48.1875 33.109375 48.1875 
Q 26.21875 48.1875 22.15625 43.53125 
Q 18.109375 38.875 18.109375 30.90625 
L 18.109375 0 
L 9.078125 0 
L 9.078125 54.6875 
L 18.109375 54.6875 
L 18.109375 46.1875 
Q 21.1875 51.21875 25.484375 53.609375 
Q 29.78125 56 35.6875 56 
Q 41.65625 56 45.828125 52.96875 
Q 50 49.953125 52 44.1875 
z
" id="DejaVuSans-6d"/>
      <path d="M 54.890625 33.015625 
L 54.890625 0 
L 45.90625 0 
L 45.90625 32.71875 
Q 45.90625 40.484375 42.875 44.328125 
Q 39.84375 48.1875 33.796875 48.1875 
Q 26.515625 48.1875 22.3125 43.546875 
Q 18.109375 38.921875 18.109375 30.90625 
L 18.109375 0 
L 9.078125 0 
L 9.078125 54.6875 
L 18.109375 54.6875 
L 18.109375 46.1875 
Q 21.34375 51.125 25.703125 53.5625 
Q 30.078125 56 35.796875 56 
Q 45.21875 56 50.046875 50.171875 
Q 54.890625 44.34375 54.890625 33.015625 
z
" id="DejaVuSans-6e"/>
     </defs>
     <g transform="translate(93.752813 342.278812)scale(0.18 -0.18)">
      <use xlink:href="#DejaVuSans-6c"/>
      <use x="27.783203" xlink:href="#DejaVuSans-6f"/>
      <use x="88.964844" xlink:href="#DejaVuSans-67"/>
      <use x="152.441406" xlink:href="#DejaVuSans-31"/>
      <use x="216.064453" xlink:href="#DejaVuSans-30"/>
      <use x="279.6875" xlink:href="#DejaVuSans-20"/>
      <use x="311.474609" xlink:href="#DejaVuSans-6f"/>
      <use x="372.65625" xlink:href="#DejaVuSans-66"/>
      <use x="407.861328" xlink:href="#DejaVuSans-20"/>
      <use x="439.648438" xlink:href="#DejaVuSans-23"/>
      <use x="523.4375" xlink:href="#DejaVuSans-20"/>
      <use x="555.224609" xlink:href="#DejaVuSans-28"/>
      <use x="594.238281" xlink:href="#DejaVuSans-66"/>
      <use x="629.443359" xlink:href="#DejaVuSans-2b"/>
      <use x="713.232422" xlink:href="#DejaVuSans-67"/>
      <use x="776.708984" xlink:href="#DejaVuSans-29"/>
      <use x="815.722656" xlink:href="#DejaVuSans-2d"/>
      <use x="851.806641" xlink:href="#DejaVuSans-65"/>
      <use x="913.330078" xlink:href="#DejaVuSans-76"/>
      <use x="972.509766" xlink:href="#DejaVuSans-61"/>
      <use x="1033.789062" xlink:href="#DejaVuSans-6c"/>
      <use x="1061.572266" xlink:href="#DejaVuSans-73"/>
      <use x="1113.671875" xlink:href="#DejaVuSans-20"/>
      <use x="1145.458984" xlink:href="#DejaVuSans-2f"/>
      <use x="1179.150391" xlink:href="#DejaVuSans-20"/>
      <use x="1210.9375" xlink:href="#DejaVuSans-64"/>
      <use x="1274.414062" xlink:href="#DejaVuSans-69"/>
      <use x="1302.197266" xlink:href="#DejaVuSans-6d"/>
      <use x="1399.609375" xlink:href="#DejaVuSans-65"/>
      <use x="1461.132812" xlink:href="#DejaVuSans-6e"/>
      <use x="1524.511719" xlink:href="#DejaVuSans-73"/>
      <use x="1576.611328" xlink:href="#DejaVuSans-69"/>
      <use x="1604.394531" xlink:href="#DejaVuSans-6f"/>
      <use x="1665.576172" xlink:href="#DejaVuSans-6e"/>
     </g>
    </g>
   </g>
   <g id="matplotlib.axis_2">
    <g id="ytick_1">
     <g id="line2d_11">
      <path clip-path="url(#pea6a131106)" d="M 70.8 298.245375 
L 427.92 298.245375 
" style="fill:none;stroke:#b0b0b0;stroke-linecap:square;stroke-width:0.8;"/>
     </g>
     <g id="line2d_12">
      <defs>
       <path d="M 0 0 
L -3.5 0 
" id="m083116b7d7" style="stroke:#000000;stroke-width:0.8;"/>
      </defs>
      <g>
       <use style="stroke:#000000;stroke-width:0.8;" x="70.8" xlink:href="#m083116b7d7" y="298.245375"/>
      </g>
     </g>
     <g id="text_7">
      <!-- 0.0 -->
      <defs>
       <path d="M 10.6875 12.40625 
L 21 12.40625 
L 21 0 
L 10.6875 0 
z
" id="DejaVuSans-2e"/>
      </defs>
      <g transform="translate(31.99375 305.843812)scale(0.2 -0.2)">
       <use xlink:href="#DejaVuSans-30"/>
       <use x="63.623047" xlink:href="#DejaVuSans-2e"/>
       <use x="95.410156" xlink:href="#DejaVuSans-30"/>
      </g>
     </g>
    </g>
    <g id="ytick_2">
     <g id="line2d_13">
      <path clip-path="url(#pea6a131106)" d="M 70.8 245.549929 
L 427.92 245.549929 
" style="fill:none;stroke:#b0b0b0;stroke-linecap:square;stroke-width:0.8;"/>
     </g>
     <g id="line2d_14">
      <g>
       <use style="stroke:#000000;stroke-width:0.8;" x="70.8" xlink:href="#m083116b7d7" y="245.549929"/>
      </g>
     </g>
     <g id="text_8">
      <!-- 0.2 -->
      <g transform="translate(31.99375 253.148367)scale(0.2 -0.2)">
       <use xlink:href="#DejaVuSans-30"/>
       <use x="63.623047" xlink:href="#DejaVuSans-2e"/>
       <use x="95.410156" xlink:href="#DejaVuSans-32"/>
      </g>
     </g>
    </g>
    <g id="ytick_3">
     <g id="line2d_15">
      <path clip-path="url(#pea6a131106)" d="M 70.8 192.854484 
L 427.92 192.854484 
" style="fill:none;stroke:#b0b0b0;stroke-linecap:square;stroke-width:0.8;"/>
     </g>
     <g id="line2d_16">
      <g>
       <use style="stroke:#000000;stroke-width:0.8;" x="70.8" xlink:href="#m083116b7d7" y="192.854484"/>
      </g>
     </g>
     <g id="text_9">
      <!-- 0.4 -->
      <g transform="translate(31.99375 200.452921)scale(0.2 -0.2)">
       <use xlink:href="#DejaVuSans-30"/>
       <use x="63.623047" xlink:href="#DejaVuSans-2e"/>
       <use x="95.410156" xlink:href="#DejaVuSans-34"/>
      </g>
     </g>
    </g>
    <g id="ytick_4">
     <g id="line2d_17">
      <path clip-path="url(#pea6a131106)" d="M 70.8 140.159038 
L 427.92 140.159038 
" style="fill:none;stroke:#b0b0b0;stroke-linecap:square;stroke-width:0.8;"/>
     </g>
     <g id="line2d_18">
      <g>
       <use style="stroke:#000000;stroke-width:0.8;" x="70.8" xlink:href="#m083116b7d7" y="140.159038"/>
      </g>
     </g>
     <g id="text_10">
      <!-- 0.6 -->
      <g transform="translate(31.99375 147.757476)scale(0.2 -0.2)">
       <use xlink:href="#DejaVuSans-30"/>
       <use x="63.623047" xlink:href="#DejaVuSans-2e"/>
       <use x="95.410156" xlink:href="#DejaVuSans-36"/>
      </g>
     </g>
    </g>
    <g id="ytick_5">
     <g id="line2d_19">
      <path clip-path="url(#pea6a131106)" d="M 70.8 87.463593 
L 427.92 87.463593 
" style="fill:none;stroke:#b0b0b0;stroke-linecap:square;stroke-width:0.8;"/>
     </g>
     <g id="line2d_20">
      <g>
       <use style="stroke:#000000;stroke-width:0.8;" x="70.8" xlink:href="#m083116b7d7" y="87.463593"/>
      </g>
     </g>
     <g id="text_11">
      <!-- 0.8 -->
      <g transform="translate(31.99375 95.06203)scale(0.2 -0.2)">
       <use xlink:href="#DejaVuSans-30"/>
       <use x="63.623047" xlink:href="#DejaVuSans-2e"/>
       <use x="95.410156" xlink:href="#DejaVuSans-38"/>
      </g>
     </g>
    </g>
    <g id="ytick_6">
     <g id="line2d_21">
      <path clip-path="url(#pea6a131106)" d="M 70.8 34.768147 
L 427.92 34.768147 
" style="fill:none;stroke:#b0b0b0;stroke-linecap:square;stroke-width:0.8;"/>
     </g>
     <g id="line2d_22">
      <g>
       <use style="stroke:#000000;stroke-width:0.8;" x="70.8" xlink:href="#m083116b7d7" y="34.768147"/>
      </g>
     </g>
     <g id="text_12">
      <!-- 1.0 -->
      <g transform="translate(31.99375 42.366585)scale(0.2 -0.2)">
       <use xlink:href="#DejaVuSans-31"/>
       <use x="63.623047" xlink:href="#DejaVuSans-2e"/>
       <use x="95.410156" xlink:href="#DejaVuSans-30"/>
      </g>
     </g>
    </g>
    <g id="text_13">
     <!-- Proportion of function+target pairs -->
     <defs>
      <path d="M 19.671875 64.796875 
L 19.671875 37.40625 
L 32.078125 37.40625 
Q 38.96875 37.40625 42.71875 40.96875 
Q 46.484375 44.53125 46.484375 51.125 
Q 46.484375 57.671875 42.71875 61.234375 
Q 38.96875 64.796875 32.078125 64.796875 
z
M 9.8125 72.90625 
L 32.078125 72.90625 
Q 44.34375 72.90625 50.609375 67.359375 
Q 56.890625 61.8125 56.890625 51.125 
Q 56.890625 40.328125 50.609375 34.8125 
Q 44.34375 29.296875 32.078125 29.296875 
L 19.671875 29.296875 
L 19.671875 0 
L 9.8125 0 
z
" id="DejaVuSans-50"/>
      <path d="M 41.109375 46.296875 
Q 39.59375 47.171875 37.8125 47.578125 
Q 36.03125 48 33.890625 48 
Q 26.265625 48 22.1875 43.046875 
Q 18.109375 38.09375 18.109375 28.8125 
L 18.109375 0 
L 9.078125 0 
L 9.078125 54.6875 
L 18.109375 54.6875 
L 18.109375 46.1875 
Q 20.953125 51.171875 25.484375 53.578125 
Q 30.03125 56 36.53125 56 
Q 37.453125 56 38.578125 55.875 
Q 39.703125 55.765625 41.0625 55.515625 
z
" id="DejaVuSans-72"/>
      <path d="M 18.109375 8.203125 
L 18.109375 -20.796875 
L 9.078125 -20.796875 
L 9.078125 54.6875 
L 18.109375 54.6875 
L 18.109375 46.390625 
Q 20.953125 51.265625 25.265625 53.625 
Q 29.59375 56 35.59375 56 
Q 45.5625 56 51.78125 48.09375 
Q 58.015625 40.1875 58.015625 27.296875 
Q 58.015625 14.40625 51.78125 6.484375 
Q 45.5625 -1.421875 35.59375 -1.421875 
Q 29.59375 -1.421875 25.265625 0.953125 
Q 20.953125 3.328125 18.109375 8.203125 
z
M 48.6875 27.296875 
Q 48.6875 37.203125 44.609375 42.84375 
Q 40.53125 48.484375 33.40625 48.484375 
Q 26.265625 48.484375 22.1875 42.84375 
Q 18.109375 37.203125 18.109375 27.296875 
Q 18.109375 17.390625 22.1875 11.75 
Q 26.265625 6.109375 33.40625 6.109375 
Q 40.53125 6.109375 44.609375 11.75 
Q 48.6875 17.390625 48.6875 27.296875 
z
" id="DejaVuSans-70"/>
      <path d="M 18.3125 70.21875 
L 18.3125 54.6875 
L 36.8125 54.6875 
L 36.8125 47.703125 
L 18.3125 47.703125 
L 18.3125 18.015625 
Q 18.3125 11.328125 20.140625 9.421875 
Q 21.96875 7.515625 27.59375 7.515625 
L 36.8125 7.515625 
L 36.8125 0 
L 27.59375 0 
Q 17.1875 0 13.234375 3.875 
Q 9.28125 7.765625 9.28125 18.015625 
L 9.28125 47.703125 
L 2.6875 47.703125 
L 2.6875 54.6875 
L 9.28125 54.6875 
L 9.28125 70.21875 
z
" id="DejaVuSans-74"/>
      <path d="M 8.5 21.578125 
L 8.5 54.6875 
L 17.484375 54.6875 
L 17.484375 21.921875 
Q 17.484375 14.15625 20.5 10.265625 
Q 23.53125 6.390625 29.59375 6.390625 
Q 36.859375 6.390625 41.078125 11.03125 
Q 45.3125 15.671875 45.3125 23.6875 
L 45.3125 54.6875 
L 54.296875 54.6875 
L 54.296875 0 
L 45.3125 0 
L 45.3125 8.40625 
Q 42.046875 3.421875 37.71875 1 
Q 33.40625 -1.421875 27.6875 -1.421875 
Q 18.265625 -1.421875 13.375 4.4375 
Q 8.5 10.296875 8.5 21.578125 
z
M 31.109375 56 
z
" id="DejaVuSans-75"/>
      <path d="M 48.78125 52.59375 
L 48.78125 44.1875 
Q 44.96875 46.296875 41.140625 47.34375 
Q 37.3125 48.390625 33.40625 48.390625 
Q 24.65625 48.390625 19.8125 42.84375 
Q 14.984375 37.3125 14.984375 27.296875 
Q 14.984375 17.28125 19.8125 11.734375 
Q 24.65625 6.203125 33.40625 6.203125 
Q 37.3125 6.203125 41.140625 7.25 
Q 44.96875 8.296875 48.78125 10.40625 
L 48.78125 2.09375 
Q 45.015625 0.34375 40.984375 -0.53125 
Q 36.96875 -1.421875 32.421875 -1.421875 
Q 20.0625 -1.421875 12.78125 6.34375 
Q 5.515625 14.109375 5.515625 27.296875 
Q 5.515625 40.671875 12.859375 48.328125 
Q 20.21875 56 33.015625 56 
Q 37.15625 56 41.109375 55.140625 
Q 45.0625 54.296875 48.78125 52.59375 
z
" id="DejaVuSans-63"/>
     </defs>
     <g transform="translate(24.250312 323.17875)rotate(-90)scale(0.18 -0.18)">
      <use xlink:href="#DejaVuSans-50"/>
      <use x="60.287109" xlink:href="#DejaVuSans-72"/>
      <use x="101.369141" xlink:href="#DejaVuSans-6f"/>
      <use x="162.550781" xlink:href="#DejaVuSans-70"/>
      <use x="226.027344" xlink:href="#DejaVuSans-6f"/>
      <use x="287.208984" xlink:href="#DejaVuSans-72"/>
      <use x="328.322266" xlink:href="#DejaVuSans-74"/>
      <use x="367.53125" xlink:href="#DejaVuSans-69"/>
      <use x="395.314453" xlink:href="#DejaVuSans-6f"/>
      <use x="456.496094" xlink:href="#DejaVuSans-6e"/>
      <use x="519.875" xlink:href="#DejaVuSans-20"/>
      <use x="551.662109" xlink:href="#DejaVuSans-6f"/>
      <use x="612.84375" xlink:href="#DejaVuSans-66"/>
      <use x="648.048828" xlink:href="#DejaVuSans-20"/>
      <use x="679.835938" xlink:href="#DejaVuSans-66"/>
      <use x="715.041016" xlink:href="#DejaVuSans-75"/>
      <use x="778.419922" xlink:href="#DejaVuSans-6e"/>
      <use x="841.798828" xlink:href="#DejaVuSans-63"/>
      <use x="896.779297" xlink:href="#DejaVuSans-74"/>
      <use x="935.988281" xlink:href="#DejaVuSans-69"/>
      <use x="963.771484" xlink:href="#DejaVuSans-6f"/>
      <use x="1024.953125" xlink:href="#DejaVuSans-6e"/>
      <use x="1088.332031" xlink:href="#DejaVuSans-2b"/>
      <use x="1172.121094" xlink:href="#DejaVuSans-74"/>
      <use x="1211.330078" xlink:href="#DejaVuSans-61"/>
      <use x="1272.609375" xlink:href="#DejaVuSans-72"/>
      <use x="1313.707031" xlink:href="#DejaVuSans-67"/>
      <use x="1377.183594" xlink:href="#DejaVuSans-65"/>
      <use x="1438.707031" xlink:href="#DejaVuSans-74"/>
      <use x="1477.916016" xlink:href="#DejaVuSans-20"/>
      <use x="1509.703125" xlink:href="#DejaVuSans-70"/>
      <use x="1573.179688" xlink:href="#DejaVuSans-61"/>
      <use x="1634.458984" xlink:href="#DejaVuSans-69"/>
      <use x="1662.242188" xlink:href="#DejaVuSans-72"/>
      <use x="1703.355469" xlink:href="#DejaVuSans-73"/>
     </g>
    </g>
   </g>
   <g id="line2d_23">
    <defs>
     <path d="M 0 1.5 
C 0.397805 1.5 0.77937 1.341951 1.06066 1.06066 
C 1.341951 0.77937 1.5 0.397805 1.5 0 
C 1.5 -0.397805 1.341951 -0.77937 1.06066 -1.06066 
C 0.77937 -1.341951 0.397805 -1.5 0 -1.5 
C -0.397805 -1.5 -0.77937 -1.341951 -1.06066 -1.06066 
C -1.341951 -0.77937 -1.5 -0.397805 -1.5 0 
C -1.5 0.397805 -1.341951 0.77937 -1.06066 1.06066 
C -0.77937 1.341951 -0.397805 1.5 0 1.5 
z
" id="m3525257be9" style="stroke:#000080;"/>
    </defs>
    <g>
     <use style="fill:#000080;stroke:#000080;" x="232.349413" xlink:href="#m3525257be9" y="34.768147"/>
     <use style="fill:#000080;stroke:#000080;" x="232.349413" xlink:href="#m3525257be9" y="34.768147"/>
    </g>
   </g>
   <g id="line2d_24">
    <path d="M 58.414766 298.245375 
L 58.414766 295.963628 
L 70.8 295.963628 
L 70.8 294.284606 
L 83.185234 294.284606 
L 83.185234 294.047821 
L 90.430132 294.047821 
L 90.430132 293.358992 
L 95.570468 293.358992 
L 95.570468 290.108578 
L 99.557623 290.108578 
L 99.557623 287.396313 
L 102.815366 287.396313 
L 102.815366 281.433634 
L 105.569748 281.433634 
L 105.569748 271.919178 
L 107.955702 271.919178 
L 107.955702 264.449685 
L 110.060263 264.449685 
L 110.060263 260.510442 
L 111.942857 260.510442 
L 111.942857 255.322696 
L 113.64587 255.322696 
L 113.64587 251.577186 
L 115.2006 251.577186 
L 115.2006 247.013692 
L 116.630812 247.013692 
L 116.630812 243.569545 
L 117.954982 243.569545 
L 117.954982 239.673354 
L 119.187755 239.673354 
L 119.187755 235.540378 
L 120.340936 235.540378 
L 120.340936 231.601135 
L 121.424184 231.601135 
L 121.424184 227.425107 
L 122.445497 227.425107 
L 122.445497 221.613109 
L 123.411577 221.613109 
L 123.411577 214.509557 
L 124.328091 214.509557 
L 124.328091 207.104641 
L 125.19988 207.104641 
L 125.19988 202.024525 
L 126.031105 202.024525 
L 126.031105 194.29672 
L 126.825374 194.29672 
L 126.825374 185.255835 
L 127.585834 185.255835 
L 127.585834 176.537839 
L 128.315246 176.537839 
L 128.315246 169.692597 
L 129.016046 169.692597 
L 129.016046 162.180052 
L 129.690395 162.180052 
L 129.690395 155.162603 
L 130.340216 155.162603 
L 130.340216 149.286027 
L 130.967232 149.286027 
L 130.967232 140.460401 
L 131.572989 140.460401 
L 131.572989 135.03587 
L 132.158881 135.03587 
L 132.158881 129.353028 
L 132.726171 129.353028 
L 132.726171 125.7582 
L 133.276002 125.7582 
L 133.276002 122.400157 
L 133.809418 122.400157 
L 133.809418 119.42958 
L 134.327371 119.42958 
L 134.327371 114.758456 
L 134.830731 114.758456 
L 134.830731 112.26145 
L 135.3203 112.26145 
L 135.3203 108.106948 
L 135.796811 108.106948 
L 135.796811 106.320296 
L 136.260944 106.320296 
L 136.260944 105.200949 
L 136.713325 105.200949 
L 136.713325 104.146179 
L 137.154536 104.146179 
L 137.154536 102.811572 
L 137.585114 102.811572 
L 137.585114 101.175602 
L 138.005559 101.175602 
L 138.005559 100.809662 
L 138.416339 100.809662 
L 138.416339 100.18541 
L 138.817886 100.18541 
L 138.817886 99.754892 
L 139.210608 99.754892 
L 139.210608 99.518107 
L 139.594883 99.518107 
L 139.594883 99.345899 
L 139.971068 99.345899 
L 139.971068 98.570966 
L 140.339496 98.570966 
L 140.339496 97.903663 
L 140.70048 97.903663 
L 140.70048 97.408567 
L 141.054316 97.408567 
L 141.054316 97.171782 
L 141.40128 97.171782 
L 141.40128 96.418374 
L 141.741636 96.418374 
L 141.741636 95.514286 
L 141.909413 95.514286 
L 141.909413 95.342079 
L 142.075629 95.342079 
L 142.075629 95.01919 
L 142.403494 95.01919 
L 142.403494 93.921368 
L 142.72545 93.921368 
L 142.72545 92.845072 
L 143.352466 92.737443 
L 143.352466 91.079947 
L 143.657911 91.079947 
L 143.657911 89.766866 
L 143.958223 89.74534 
L 143.958223 89.228718 
L 144.544115 89.16414 
L 144.544115 88.755148 
L 144.830011 88.733622 
L 144.830011 87.678852 
L 144.971262 87.678852 
L 144.971262 87.442067 
L 145.388435 87.355963 
L 145.388435 86.624082 
L 145.525356 86.624082 
L 145.525356 86.473401 
L 145.661236 86.473401 
L 145.661236 84.686749 
L 145.796091 84.686749 
L 145.796091 83.459772 
L 145.929935 83.459772 
L 145.929935 81.716173 
L 146.062784 81.716173 
L 146.062784 81.500914 
L 146.194652 81.500914 
L 146.194652 81.027344 
L 146.455505 80.962766 
L 146.455505 80.898188 
L 146.584518 80.898188 
L 146.584518 80.747507 
L 146.712605 80.747507 
L 146.712605 80.273936 
L 147.091449 80.166307 
L 147.091449 79.262218 
L 147.339621 79.262218 
L 147.339621 78.659493 
L 147.584393 78.659493 
L 147.584393 77.863034 
L 147.705534 77.863034 
L 147.705534 77.30336 
L 147.825858 77.30336 
L 147.825858 76.463849 
L 147.945378 76.463849 
L 147.945378 75.968753 
L 148.064103 75.968753 
L 148.064103 75.387553 
L 148.299213 75.387553 
L 148.299213 74.095998 
L 148.53127 74.095998 
L 148.53127 73.923791 
L 148.760352 73.923791 
L 148.760352 73.687006 
L 149.209888 73.600902 
L 149.209888 73.234961 
L 149.430484 73.234961 
L 149.430484 72.653762 
L 149.648391 72.653762 
L 149.648391 71.254577 
L 149.863672 71.254577 
L 149.863672 70.888637 
L 150.07639 70.888637 
L 150.07639 69.833867 
L 150.286606 69.833867 
L 150.286606 69.424874 
L 150.494377 69.424874 
L 150.494377 68.606889 
L 150.69976 68.606889 
L 150.69976 67.530593 
L 150.902809 67.530593 
L 151.003475 66.497349 
L 151.103576 66.497349 
L 151.103576 65.959201 
L 151.498468 65.873098 
L 151.498468 64.969009 
L 151.884821 64.947483 
L 151.884821 64.323232 
L 154.625547 64.28018 
L 154.625547 63.483721 
L 164.9267 63.462195 
L 164.9267 62.794892 
L 175.521207 62.794892 
L 175.521207 62.27827 
L 177.449558 62.27827 
L 177.449558 61.69707 
L 184.433602 61.58944 
L 184.433602 60.986715 
L 185.715769 60.986715 
L 185.715769 60.513144 
L 186.085958 60.513144 
L 186.085958 59.867367 
L 186.885128 59.867367 
L 186.885128 59.264641 
L 187.650079 59.264641 
L 187.753066 58.64039 
L 189.651057 58.618864 
L 189.651057 58.489708 
L 193.7395 58.403604 
L 193.7395 57.843931 
L 197.51607 57.779353 
L 197.619825 56.89679 
L 197.649359 56.810687 
L 197.752346 54.722673 
L 197.76701 54.722673 
L 197.869322 49.814763 
L 197.883891 49.814763 
L 197.985538 46.069254 
L 198.000012 46.069254 
L 198.101003 44.411758 
L 198.158457 44.304129 
L 198.258558 43.679877 
L 198.272813 43.679877 
L 198.372278 42.366796 
L 198.414737 42.259166 
L 198.520445 41.225922 
L 198.52747 41.225922 
L 198.562553 40.730826 
L 199.012481 40.623197 
L 199.012481 40.515567 
L 202.04783 40.472515 
L 202.04783 40.34336 
L 202.503383 40.34336 
L 202.503383 40.128101 
L 204.918831 40.085049 
L 204.918831 39.998945 
L 205.326708 39.912842 
L 205.326708 39.86979 
L 208.079718 39.76216 
L 208.079718 39.676056 
L 209.916163 39.568427 
L 210.027214 38.427553 
L 210.034593 38.427553 
L 210.144913 36.920739 
L 210.152244 36.920739 
L 210.254556 36.425643 
L 210.269125 36.425643 
L 210.334536 36.102754 
L 210.636661 35.995125 
L 210.636661 35.952073 
L 214.375294 35.844443 
L 214.375294 35.822917 
L 217.205564 35.715288 
L 217.304065 35.284769 
L 217.455677 35.17714 
L 217.545546 35.112562 
L 222.323662 35.004932 
L 222.397681 34.832725 
L 358.8 34.768147 
L 358.8 34.768147 
" style="fill:none;stroke:#000080;stroke-linecap:square;stroke-width:1.5;"/>
   </g>
   <g id="line2d_25">
    <defs>
     <path d="M 0 6 
C 1.591219 6 3.117479 5.367802 4.242641 4.242641 
C 5.367802 3.117479 6 1.591219 6 0 
C 6 -1.591219 5.367802 -3.117479 4.242641 -4.242641 
C 3.117479 -5.367802 1.591219 -6 0 -6 
C -1.591219 -6 -3.117479 -5.367802 -4.242641 -4.242641 
C -5.367802 -3.117479 -6 -1.591219 -6 0 
C -6 1.591219 -5.367802 3.117479 -4.242641 4.242641 
C -3.117479 5.367802 -1.591219 6 0 6 
z
" id="mfb77e5a946" style="stroke:#000080;stroke-width:1.5;"/>
    </defs>
    <g>
     <use style="fill:none;stroke:#000080;stroke-width:1.5;" x="126.825374" xlink:href="#mfb77e5a946" y="185.255835"/>
     <use style="fill:none;stroke:#000080;stroke-width:1.5;" x="140.70048" xlink:href="#mfb77e5a946" y="97.903663"/>
     <use style="fill:none;stroke:#000080;stroke-width:1.5;" x="210.019832" xlink:href="#mfb77e5a946" y="38.664338"/>
     <use style="fill:none;stroke:#000080;stroke-width:1.5;" x="232.349413" xlink:href="#mfb77e5a946" y="34.768147"/>
     <use style="fill:none;stroke:#000080;stroke-width:1.5;" x="232.349413" xlink:href="#mfb77e5a946" y="34.768147"/>
     <use style="fill:none;stroke:#000080;stroke-width:1.5;" x="358.8" xlink:href="#mfb77e5a946" y="34.768147"/>
    </g>
   </g>
   <g id="line2d_26"/>
   <g id="line2d_27">
    <path clip-path="url(#pea6a131106)" d="M 197.456509 57.779353 
" style="fill:none;stroke:#000080;stroke-linecap:square;stroke-width:1.5;"/>
    <defs>
     <path d="M -12 12 
L 12 -12 
M -12 -12 
L 12 12 
" id="m87b8469a98" style="stroke:#000080;stroke-width:3;"/>
    </defs>
    <g clip-path="url(#pea6a131106)">
     <use style="fill:#000080;stroke:#000080;stroke-width:3;" x="197.456509" xlink:href="#m87b8469a98" y="57.779353"/>
    </g>
   </g>
   <g id="line2d_28">
    <defs>
     <path d="M 0 1.5 
C 0.397805 1.5 0.77937 1.341951 1.06066 1.06066 
C 1.341951 0.77937 1.5 0.397805 1.5 0 
C 1.5 -0.397805 1.341951 -0.77937 1.06066 -1.06066 
C 0.77937 -1.341951 0.397805 -1.5 0 -1.5 
C -0.397805 -1.5 -0.77937 -1.341951 -1.06066 -1.06066 
C -1.341951 -0.77937 -1.5 -0.397805 -1.5 0 
C -1.5 0.397805 -1.341951 0.77937 -1.06066 1.06066 
C -0.77937 1.341951 -0.397805 1.5 0 1.5 
z
" id="m10eb14e40c" style="stroke:#ff00ff;"/>
    </defs>
    <g>
     <use style="fill:#ff00ff;stroke:#ff00ff;" x="227.231633" xlink:href="#m10eb14e40c" y="34.768147"/>
     <use style="fill:#ff00ff;stroke:#ff00ff;" x="227.231633" xlink:href="#m10eb14e40c" y="34.768147"/>
    </g>
   </g>
   <g id="line2d_29">
    <path d="M 58.414766 298.245375 
L 58.414766 295.748369 
L 70.8 295.748369 
L 70.8 293.832562 
L 83.185234 293.832562 
L 83.185234 293.681881 
L 90.430132 293.681881 
L 90.430132 292.971525 
L 95.570468 292.971525 
L 95.570468 289.118386 
L 99.557623 289.118386 
L 99.557623 286.599854 
L 102.815366 286.599854 
L 102.815366 280.529545 
L 105.569748 280.529545 
L 105.569748 271.8546 
L 107.955702 271.8546 
L 107.955702 264.751048 
L 110.060263 264.751048 
L 110.060263 261.543686 
L 111.942857 261.543686 
L 111.942857 255.387274 
L 113.64587 255.387274 
L 113.64587 251.577186 
L 115.2006 251.577186 
L 115.2006 247.659469 
L 116.630812 247.659469 
L 116.630812 243.935486 
L 117.954982 243.935486 
L 117.954982 240.319132 
L 119.187755 240.319132 
L 119.187755 236.057 
L 120.340936 236.057 
L 120.340936 231.794868 
L 121.424184 231.794868 
L 121.424184 227.984781 
L 122.445497 227.984781 
L 122.445497 222.646353 
L 123.411577 222.646353 
L 123.411577 214.767868 
L 124.328091 214.767868 
L 124.328091 207.53516 
L 125.19988 207.53516 
L 125.19988 202.820984 
L 126.031105 202.820984 
L 126.031105 196.320157 
L 126.825374 196.320157 
L 126.825374 187.580634 
L 127.585834 187.580634 
L 127.585834 179.422312 
L 128.315246 179.422312 
L 128.315246 172.254181 
L 129.016046 172.254181 
L 129.016046 164.741636 
L 129.690395 164.741636 
L 129.690395 157.595031 
L 130.340216 157.595031 
L 130.340216 150.900471 
L 130.967232 150.900471 
L 130.967232 142.548415 
L 131.572989 142.548415 
L 131.572989 136.908625 
L 132.158881 136.908625 
L 132.158881 131.785457 
L 132.726171 131.785457 
L 132.726171 128.061473 
L 133.276002 128.061473 
L 133.276002 124.402067 
L 133.809418 124.402067 
L 133.809418 122.055742 
L 134.327371 122.055742 
L 134.327371 117.233936 
L 134.830731 117.233936 
L 134.830731 114.6293 
L 135.3203 114.6293 
L 135.3203 110.302591 
L 135.796811 110.302591 
L 135.796811 108.537466 
L 136.260944 108.537466 
L 136.260944 107.396592 
L 136.713325 107.396592 
L 136.713325 106.557081 
L 137.154536 106.557081 
L 137.154536 104.899586 
L 137.585114 104.899586 
L 137.585114 103.844816 
L 138.005559 103.844816 
L 138.005559 103.414298 
L 138.212129 103.414298 
L 138.212129 103.263616 
L 138.416339 103.263616 
L 138.416339 102.574787 
L 138.61824 102.574787 
L 138.61824 102.29495 
L 138.817886 102.29495 
L 138.817886 102.015113 
L 139.015326 102.015113 
L 139.015326 101.649172 
L 139.210608 101.649172 
L 139.210608 101.412387 
L 139.594883 101.369335 
L 139.594883 101.218654 
L 139.783966 101.218654 
L 139.783966 100.680506 
L 139.971068 100.680506 
L 139.971068 100.465247 
L 140.339496 100.422195 
L 140.339496 99.733366 
L 140.70048 99.647262 
L 140.70048 98.872329 
L 140.878274 98.872329 
L 140.878274 98.484862 
L 141.054316 98.484862 
L 141.054316 98.355707 
L 141.40128 98.312655 
L 141.40128 97.709929 
L 141.572268 97.709929 
L 141.572268 96.913471 
L 141.741636 96.913471 
L 141.741636 96.246167 
L 141.909413 96.246167 
L 141.909413 94.739353 
L 142.075629 94.739353 
L 142.075629 94.416464 
L 142.403494 94.373412 
L 142.403494 93.426272 
L 142.72545 93.404746 
L 142.72545 92.522183 
L 142.884279 92.522183 
L 142.884279 91.596569 
L 143.197763 91.510465 
L 143.197763 88.819726 
L 143.352466 88.819726 
L 143.352466 87.291385 
L 143.505841 87.291385 
L 143.505841 86.193564 
L 143.657911 86.193564 
L 143.657911 85.138794 
L 143.958223 85.031164 
L 143.958223 84.342335 
L 144.106507 84.342335 
L 144.106507 84.127076 
L 144.399433 84.019446 
L 144.399433 82.512632 
L 144.544115 82.512632 
L 144.544115 82.146691 
L 144.687635 82.146691 
L 144.687635 81.952958 
L 144.830011 81.952958 
L 144.830011 81.134973 
L 144.971262 81.134973 
L 144.971262 80.855136 
L 145.250457 80.83361 
L 145.250457 78.659493 
L 145.388435 78.659493 
L 145.388435 77.927611 
L 145.525356 77.927611 
L 145.525356 77.260308 
L 145.661236 77.260308 
L 145.661236 75.172294 
L 145.929935 75.08619 
L 145.929935 73.450221 
L 146.062784 73.450221 
L 146.062784 72.912073 
L 146.194652 72.912073 
L 146.194652 72.352399 
L 146.325555 72.352399 
L 146.325555 71.66357 
L 146.584518 71.598992 
L 146.584518 71.297629 
L 146.712605 71.297629 
L 146.712605 70.694903 
L 147.091449 70.694903 
L 147.091449 70.50117 
L 147.339621 70.50117 
L 147.339621 70.307437 
L 147.584393 70.307437 
L 147.584393 69.532504 
L 147.705534 69.532504 
L 147.705534 68.97283 
L 147.945378 68.929778 
L 147.945378 68.542312 
L 148.064103 68.542312 
L 148.064103 67.982638 
L 148.299213 67.982638 
L 148.299213 67.831956 
L 148.760352 67.767378 
L 148.760352 67.530593 
L 149.430484 67.487542 
L 149.430484 67.379912 
L 149.863672 67.358386 
L 149.863672 66.992445 
L 150.286606 66.949394 
L 150.286606 66.841764 
L 154.625547 66.798712 
L 154.625547 66.045305 
L 164.9267 66.023779 
L 164.9267 65.528683 
L 175.521207 65.507157 
L 175.521207 64.925957 
L 177.449558 64.925957 
L 177.449558 64.258654 
L 180.430984 64.215602 
L 180.430984 64.129498 
L 184.433602 64.107973 
L 184.433602 63.376091 
L 185.715769 63.376091 
L 185.715769 62.665736 
L 186.085958 62.665736 
L 186.085958 62.192166 
L 186.885128 62.192166 
L 186.885128 61.654018 
L 187.650079 61.654018 
L 187.753066 60.857559 
L 189.651057 60.771455 
L 189.651057 60.728404 
L 192.998989 60.685352 
L 192.998989 60.125678 
L 193.7395 60.125678 
L 193.7395 59.436849 
L 197.530929 59.329219 
L 197.634598 58.468182 
L 197.664108 58.403604 
L 197.76701 56.078805 
L 197.781662 56.078805 
L 197.883891 49.965445 
L 197.898447 49.965445 
L 198.000012 46.435194 
L 198.014474 46.435194 
L 198.115384 44.992958 
L 198.158457 44.885328 
L 198.258558 43.98124 
L 198.272813 43.98124 
L 198.372278 42.34527 
L 198.400595 42.34527 
L 198.450042 41.268974 
L 198.52747 41.268974 
L 198.541511 40.752352 
L 199.012481 40.752352 
L 199.012481 40.623197 
L 202.04783 40.537093 
L 202.04783 40.429464 
L 204.491368 40.34336 
L 204.491368 40.300308 
L 205.046076 40.214204 
L 205.046076 40.149627 
L 205.603 40.106575 
L 205.603 39.955893 
L 207.751625 39.955893 
L 207.751625 39.805212 
L 208.079718 39.805212 
L 208.079718 39.676056 
L 209.945844 39.568427 
L 210.056712 37.695672 
L 210.071442 37.609568 
L 210.159571 36.727006 
L 210.254556 36.640902 
L 210.334536 36.102754 
L 214.206698 35.995125 
L 214.206698 35.973599 
L 217.175907 35.865969 
L 217.279491 35.284769 
L 217.416675 35.17714 
L 217.455677 35.047984 
L 222.323662 34.940355 
L 222.334785 34.875777 
L 358.8 34.768147 
L 358.8 34.768147 
" style="fill:none;stroke:#ff00ff;stroke-linecap:square;stroke-width:1.5;"/>
   </g>
   <g id="line2d_30">
    <defs>
     <path d="M -0 8.485281 
L 5.091169 0 
L 0 -8.485281 
L -5.091169 -0 
z
" id="mabeb563697" style="stroke:#ff00ff;stroke-linejoin:miter;stroke-width:1.5;"/>
    </defs>
    <g>
     <use style="fill:none;stroke:#ff00ff;stroke-linejoin:miter;stroke-width:1.5;" x="125.19988" xlink:href="#mabeb563697" y="207.53516"/>
     <use style="fill:none;stroke:#ff00ff;stroke-linejoin:miter;stroke-width:1.5;" x="148.064103" xlink:href="#mabeb563697" y="67.982638"/>
     <use style="fill:none;stroke:#ff00ff;stroke-linejoin:miter;stroke-width:1.5;" x="202.503383" xlink:href="#mabeb563697" y="40.429464"/>
     <use style="fill:none;stroke:#ff00ff;stroke-linejoin:miter;stroke-width:1.5;" x="227.231633" xlink:href="#mabeb563697" y="34.768147"/>
     <use style="fill:none;stroke:#ff00ff;stroke-linejoin:miter;stroke-width:1.5;" x="227.231633" xlink:href="#mabeb563697" y="34.768147"/>
     <use style="fill:none;stroke:#ff00ff;stroke-linejoin:miter;stroke-width:1.5;" x="358.8" xlink:href="#mabeb563697" y="34.768147"/>
    </g>
   </g>
   <g id="line2d_31"/>
   <g id="line2d_32">
    <path clip-path="url(#pea6a131106)" d="M 197.456509 59.329219 
" style="fill:none;stroke:#ff00ff;stroke-linecap:square;stroke-width:1.5;"/>
    <defs>
     <path d="M -12 12 
L 12 -12 
M -12 -12 
L 12 12 
" id="m3963130fd7" style="stroke:#ff00ff;stroke-width:3;"/>
    </defs>
    <g clip-path="url(#pea6a131106)">
     <use style="fill:#ff00ff;stroke:#ff00ff;stroke-width:3;" x="197.456509" xlink:href="#m3963130fd7" y="59.329219"/>
    </g>
   </g>
   <g id="line2d_33">
    <defs>
     <path d="M 0 1.5 
C 0.397805 1.5 0.77937 1.341951 1.06066 1.06066 
C 1.341951 0.77937 1.5 0.397805 1.5 0 
C 1.5 -0.397805 1.341951 -0.77937 1.06066 -1.06066 
C 0.77937 -1.341951 0.397805 -1.5 0 -1.5 
C -0.397805 -1.5 -0.77937 -1.341951 -1.06066 -1.06066 
C -1.341951 -0.77937 -1.5 -0.397805 -1.5 0 
C -1.5 0.397805 -1.341951 0.77937 -1.06066 1.06066 
C -0.77937 1.341951 -0.397805 1.5 0 1.5 
z
" id="m8df7555f9e" style="stroke:#ffa500;"/>
    </defs>
    <g>
     <use style="fill:#ffa500;stroke:#ffa500;" x="229.705255" xlink:href="#m8df7555f9e" y="34.768147"/>
     <use style="fill:#ffa500;stroke:#ffa500;" x="229.705255" xlink:href="#m8df7555f9e" y="34.768147"/>
    </g>
   </g>
   <g id="line2d_34">
    <path d="M 58.414766 298.245375 
L 58.414766 295.920576 
L 70.8 295.920576 
L 70.8 294.650547 
L 83.185234 294.650547 
L 83.185234 294.435288 
L 90.430132 294.435288 
L 90.430132 293.78951 
L 95.570468 293.78951 
L 95.570468 289.591956 
L 99.557623 289.591956 
L 99.557623 286.772061 
L 102.815366 286.772061 
L 102.815366 281.369056 
L 105.569748 281.369056 
L 105.569748 272.06986 
L 107.955702 272.06986 
L 107.955702 264.471211 
L 110.060263 264.471211 
L 110.060263 260.510442 
L 111.942857 260.510442 
L 111.942857 255.215066 
L 113.64587 255.215066 
L 113.64587 251.749394 
L 115.2006 251.749394 
L 115.2006 247.401158 
L 116.630812 247.401158 
L 116.630812 243.763278 
L 117.954982 243.763278 
L 117.954982 239.608776 
L 119.187755 239.608776 
L 119.187755 235.368171 
L 120.340936 235.368171 
L 120.340936 231.36435 
L 121.424184 231.36435 
L 121.424184 227.231374 
L 122.445497 227.231374 
L 122.445497 222.172783 
L 123.411577 222.172783 
L 123.411577 214.660238 
L 124.328091 214.660238 
L 124.328091 207.642789 
L 125.19988 207.642789 
L 125.19988 202.84251 
L 126.031105 202.84251 
L 126.031105 196.427786 
L 126.825374 196.427786 
L 126.825374 187.645212 
L 127.585834 187.645212 
L 127.585834 180.111141 
L 128.315246 180.111141 
L 128.315246 173.007588 
L 129.016046 173.007588 
L 129.016046 165.258258 
L 129.356402 165.258258 
L 129.356402 165.086051 
L 129.690395 165.086051 
L 129.690395 158.585224 
L 130.340216 158.585224 
L 130.340216 153.720366 
L 130.656474 153.720366 
L 130.656474 153.031537 
L 130.967232 153.031537 
L 130.967232 145.196103 
L 131.572989 145.196103 
L 131.572989 140.072935 
L 132.158881 140.072935 
L 132.158881 135.401811 
L 132.444777 135.401811 
L 132.444777 134.605352 
L 132.726171 134.605352 
L 132.726171 131.333412 
L 133.276002 131.333412 
L 133.276002 129.073191 
L 133.544701 129.073191 
L 133.544701 128.34131 
L 133.809418 128.34131 
L 133.809418 126.339399 
L 134.327371 126.339399 
L 134.327371 121.302335 
L 134.830731 121.259283 
L 134.830731 118.95601 
L 135.077192 118.95601 
L 135.077192 118.245655 
L 135.3203 118.245655 
L 135.3203 113.78979 
L 135.560144 113.78979 
L 135.560144 113.466901 
L 135.796811 113.466901 
L 135.796811 111.852457 
L 136.030384 111.852457 
L 136.030384 110.99142 
L 136.260944 110.99142 
L 136.260944 109.979702 
L 136.488566 109.979702 
L 136.488566 109.506132 
L 136.713325 109.506132 
L 136.713325 108.795777 
L 137.154536 108.795777 
L 137.154536 107.375066 
L 137.371122 107.375066 
L 137.371122 107.159807 
L 137.585114 107.159807 
L 137.585114 106.083511 
L 137.796573 106.083511 
L 137.796573 105.330104 
L 138.005559 105.330104 
L 138.005559 105.114845 
L 138.212129 105.114845 
L 138.212129 104.835008 
L 138.416339 104.835008 
L 138.416339 104.189231 
L 138.61824 104.189231 
L 138.61824 102.553261 
L 138.817886 102.553261 
L 138.817886 101.950535 
L 139.210608 101.950535 
L 139.210608 101.799854 
L 139.403779 101.799854 
L 139.403779 101.60612 
L 139.594883 101.60612 
L 139.594883 101.433913 
L 139.783966 101.433913 
L 139.783966 99.259796 
L 139.971068 99.259796 
L 139.971068 98.872329 
L 140.156232 98.872329 
L 140.156232 98.678596 
L 140.339496 98.678596 
L 140.339496 97.989766 
L 140.5209 97.989766 
L 140.5209 97.817559 
L 140.70048 97.817559 
L 140.70048 97.279411 
L 140.878274 97.279411 
L 140.878274 97.085678 
L 141.40128 96.999574 
L 141.40128 96.267693 
L 141.572268 96.267693 
L 141.572268 93.942894 
L 141.741636 93.942894 
L 141.741636 93.167961 
L 141.909413 93.167961 
L 141.909413 92.543709 
L 142.075629 92.543709 
L 142.075629 92.306924 
L 142.403494 92.263872 
L 142.403494 91.467413 
L 142.565197 91.467413 
L 142.565197 91.187577 
L 142.72545 91.187577 
L 142.72545 90.627903 
L 143.041708 90.627903 
L 143.041708 90.498747 
L 143.197763 90.498747 
L 143.197763 89.723814 
L 143.352466 89.723814 
L 143.352466 89.185666 
L 143.505841 89.185666 
L 143.505841 88.776674 
L 143.657911 88.776674 
L 143.657911 88.001741 
L 143.808698 88.001741 
L 143.808698 87.248334 
L 143.958223 87.248334 
L 143.958223 86.624082 
L 144.106507 86.624082 
L 144.106507 85.590838 
L 144.25357 85.590838 
L 144.25357 85.397105 
L 144.544115 85.397105 
L 144.544115 84.772853 
L 144.830011 84.772853 
L 144.830011 84.084024 
L 144.971262 84.084024 
L 144.971262 83.330617 
L 145.250457 83.330617 
L 145.250457 83.05078 
L 145.661236 83.029254 
L 145.661236 80.876662 
L 145.929935 80.876662 
L 145.929935 79.197641 
L 146.062784 79.197641 
L 146.062784 78.616441 
L 146.194652 78.616441 
L 146.194652 78.035241 
L 146.712605 77.970663 
L 146.712605 76.82979 
L 146.966058 76.82979 
L 146.966058 76.313168 
L 147.339621 76.313168 
L 147.339621 76.162486 
L 147.584393 76.162486 
L 147.584393 75.688916 
L 147.705534 75.688916 
L 147.705534 75.000087 
L 147.825858 75.000087 
L 147.825858 74.61262 
L 147.945378 74.61262 
L 147.945378 74.052946 
L 149.320526 74.052946 
L 149.320526 73.55785 
L 150.07639 73.55785 
L 150.07639 72.847495 
L 150.801573 72.804443 
L 150.801573 72.13714 
L 151.302113 72.094088 
L 151.302113 71.491362 
L 152.074909 71.491362 
L 152.074909 70.910162 
L 152.633333 70.910162 
L 152.72473 69.833867 
L 154.625547 69.833867 
L 154.625547 69.145037 
L 155.967272 69.037408 
L 156.043145 68.004164 
L 156.118698 68.004164 
L 156.118698 67.44449 
L 164.9267 67.401438 
L 164.9267 66.798712 
L 175.521207 66.798712 
L 175.521207 66.217512 
L 177.334945 66.217512 
L 177.334945 65.657839 
L 177.449558 65.657839 
L 177.449558 64.925957 
L 181.771722 64.839854 
L 181.771722 64.237128 
L 184.433602 64.237128 
L 184.433602 63.33304 
L 186.085958 63.33304 
L 186.085958 62.880995 
L 186.885128 62.880995 
L 186.885128 62.213692 
L 187.650079 62.213692 
L 187.650079 61.675544 
L 189.651057 61.654018 
L 189.743161 60.922137 
L 190.40815 60.922137 
L 190.40815 60.254833 
L 194.228571 60.190256 
L 194.228571 60.125678 
L 197.530929 60.0611 
L 197.64198 59.027856 
L 197.649359 59.027856 
L 197.759679 56.595427 
L 197.76701 56.595427 
L 197.876608 50.482067 
L 197.883891 50.482067 
L 197.985538 46.133832 
L 198.000012 46.133832 
L 198.101003 44.34718 
L 198.158457 44.261077 
L 198.258558 43.593773 
L 198.272813 43.593773 
L 198.372278 42.81884 
L 198.414737 42.81884 
L 198.442987 42.173063 
L 198.52747 42.173063 
L 198.541511 41.893226 
L 198.813143 41.8717 
L 198.813143 41.699493 
L 199.012481 41.699493 
L 199.012481 41.527285 
L 199.128309 41.527285 
L 199.128309 41.312026 
L 202.04783 41.204397 
L 202.04783 41.053715 
L 202.503383 40.989137 
L 202.503383 40.92456 
L 203.667806 40.881508 
L 203.667806 40.687775 
L 205.046076 40.623197 
L 205.050952 40.429464 
L 206.361884 40.34336 
L 206.361884 40.085049 
L 209.882712 39.977419 
L 209.990274 39.439271 
L 210.005059 39.353168 
L 210.115561 37.157524 
L 210.152244 37.07142 
L 210.261842 36.748532 
L 210.334536 36.640902 
L 210.392479 36.490221 
L 212.526743 36.382591 
L 212.542778 36.274961 
L 214.042393 36.167332 
L 214.042393 36.145806 
L 217.17096 36.038176 
L 217.269651 35.478503 
L 217.348214 35.370873 
L 217.455677 35.241717 
L 222.323662 35.134088 
L 222.397681 34.897303 
L 229.705255 34.789673 
L 229.705255 34.768147 
L 358.8 34.768147 
L 358.8 34.768147 
" style="fill:none;stroke:#ffa500;stroke-linecap:square;stroke-width:1.5;"/>
   </g>
   <g id="line2d_35">
    <defs>
     <path d="M 0 -6 
L -1.347084 -1.854102 
L -5.706339 -1.854102 
L -2.179628 0.708204 
L -3.526712 4.854102 
L -0 2.291796 
L 3.526712 4.854102 
L 2.179628 0.708204 
L 5.706339 -1.854102 
L 1.347084 -1.854102 
z
" id="mc864659ff7" style="stroke:#ffa500;stroke-linejoin:bevel;stroke-width:1.5;"/>
    </defs>
    <g>
     <use style="fill:none;stroke:#ffa500;stroke-linejoin:bevel;stroke-width:1.5;" x="124.328091" xlink:href="#mc864659ff7" y="207.642789"/>
     <use style="fill:none;stroke:#ffa500;stroke-linejoin:bevel;stroke-width:1.5;" x="132.726171" xlink:href="#mc864659ff7" y="131.333412"/>
     <use style="fill:none;stroke:#ffa500;stroke-linejoin:bevel;stroke-width:1.5;" x="197.985538" xlink:href="#mc864659ff7" y="46.45672"/>
     <use style="fill:none;stroke:#ffa500;stroke-linejoin:bevel;stroke-width:1.5;" x="229.705255" xlink:href="#mc864659ff7" y="34.789673"/>
     <use style="fill:none;stroke:#ffa500;stroke-linejoin:bevel;stroke-width:1.5;" x="229.705255" xlink:href="#mc864659ff7" y="34.768147"/>
     <use style="fill:none;stroke:#ffa500;stroke-linejoin:bevel;stroke-width:1.5;" x="358.8" xlink:href="#mc864659ff7" y="34.768147"/>
    </g>
   </g>
   <g id="line2d_36"/>
   <g id="line2d_37">
    <path clip-path="url(#pea6a131106)" d="M 197.456509 60.082626 
" style="fill:none;stroke:#ffa500;stroke-linecap:square;stroke-width:1.5;"/>
    <defs>
     <path d="M -12 12 
L 12 -12 
M -12 -12 
L 12 12 
" id="mcadf55369b" style="stroke:#ffa500;stroke-width:3;"/>
    </defs>
    <g clip-path="url(#pea6a131106)">
     <use style="fill:#ffa500;stroke:#ffa500;stroke-width:3;" x="197.456509" xlink:href="#mcadf55369b" y="60.082626"/>
    </g>
   </g>
   <g id="line2d_38">
    <path d="M 358.8 34.768147 
L 390.48 292.97583 
" style="fill:none;stroke:#000080;stroke-linecap:square;stroke-width:1.5;"/>
    <g>
     <use style="fill:none;stroke:#000080;stroke-width:1.5;" x="358.8" xlink:href="#mfb77e5a946" y="34.768147"/>
     <use style="fill:none;stroke:#000080;stroke-width:1.5;" x="390.48" xlink:href="#mfb77e5a946" y="292.97583"/>
    </g>
   </g>
   <g id="line2d_39">
    <path d="M 358.8 34.768147 
L 390.48 166.506761 
" style="fill:none;stroke:#ffa500;stroke-linecap:square;stroke-width:1.5;"/>
    <g>
     <use style="fill:none;stroke:#ffa500;stroke-linejoin:bevel;stroke-width:1.5;" x="358.8" xlink:href="#mc864659ff7" y="34.768147"/>
     <use style="fill:none;stroke:#ffa500;stroke-linejoin:bevel;stroke-width:1.5;" x="390.48" xlink:href="#mc864659ff7" y="166.506761"/>
    </g>
   </g>
   <g id="line2d_40">
    <path d="M 358.8 34.768147 
L 390.48 40.037692 
" style="fill:none;stroke:#ff00ff;stroke-linecap:square;stroke-width:1.5;"/>
    <g>
     <use style="fill:none;stroke:#ff00ff;stroke-linejoin:miter;stroke-width:1.5;" x="358.8" xlink:href="#mabeb563697" y="34.768147"/>
     <use style="fill:none;stroke:#ff00ff;stroke-linejoin:miter;stroke-width:1.5;" x="390.48" xlink:href="#mabeb563697" y="40.037692"/>
    </g>
   </g>
   <g id="line2d_41">
    <path d="M 358.8 298.245375 
L 358.8 34.768147 
" style="fill:none;stroke:#000000;stroke-linecap:square;stroke-width:1.5;"/>
   </g>
   <g id="patch_3">
    <path d="M 70.8 298.245375 
L 70.8 32.133375 
" style="fill:none;stroke:#000000;stroke-linecap:square;stroke-linejoin:miter;stroke-width:0.8;"/>
   </g>
   <g id="patch_4">
    <path d="M 427.92 298.245375 
L 427.92 32.133375 
" style="fill:none;stroke:#000000;stroke-linecap:square;stroke-linejoin:miter;stroke-width:0.8;"/>
   </g>
   <g id="patch_5">
    <path d="M 70.8 298.245375 
L 427.92 298.245375 
" style="fill:none;stroke:#000000;stroke-linecap:square;stroke-linejoin:miter;stroke-width:0.8;"/>
   </g>
   <g id="patch_6">
    <path d="M 70.8 32.133375 
L 427.92 32.133375 
" style="fill:none;stroke:#000000;stroke-linecap:square;stroke-linejoin:miter;stroke-width:0.8;"/>
   </g>
   <g id="text_14">
    <!-- cobyla-1e-10  -->
    <defs>
     <path d="M 48.6875 27.296875 
Q 48.6875 37.203125 44.609375 42.84375 
Q 40.53125 48.484375 33.40625 48.484375 
Q 26.265625 48.484375 22.1875 42.84375 
Q 18.109375 37.203125 18.109375 27.296875 
Q 18.109375 17.390625 22.1875 11.75 
Q 26.265625 6.109375 33.40625 6.109375 
Q 40.53125 6.109375 44.609375 11.75 
Q 48.6875 17.390625 48.6875 27.296875 
z
M 18.109375 46.390625 
Q 20.953125 51.265625 25.265625 53.625 
Q 29.59375 56 35.59375 56 
Q 45.5625 56 51.78125 48.09375 
Q 58.015625 40.1875 58.015625 27.296875 
Q 58.015625 14.40625 51.78125 6.484375 
Q 45.5625 -1.421875 35.59375 -1.421875 
Q 29.59375 -1.421875 25.265625 0.953125 
Q 20.953125 3.328125 18.109375 8.203125 
L 18.109375 0 
L 9.078125 0 
L 9.078125 75.984375 
L 18.109375 75.984375 
z
" id="DejaVuSans-62"/>
     <path d="M 32.171875 -5.078125 
Q 28.375 -14.84375 24.75 -17.8125 
Q 21.140625 -20.796875 15.09375 -20.796875 
L 7.90625 -20.796875 
L 7.90625 -13.28125 
L 13.1875 -13.28125 
Q 16.890625 -13.28125 18.9375 -11.515625 
Q 21 -9.765625 23.484375 -3.21875 
L 25.09375 0.875 
L 2.984375 54.6875 
L 12.5 54.6875 
L 29.59375 11.921875 
L 46.6875 54.6875 
L 56.203125 54.6875 
z
" id="DejaVuSans-79"/>
    </defs>
    <g transform="translate(396.24 297.114893)scale(0.15 -0.15)">
     <use xlink:href="#DejaVuSans-63"/>
     <use x="54.980469" xlink:href="#DejaVuSans-6f"/>
     <use x="116.162109" xlink:href="#DejaVuSans-62"/>
     <use x="179.638672" xlink:href="#DejaVuSans-79"/>
     <use x="238.818359" xlink:href="#DejaVuSans-6c"/>
     <use x="266.601562" xlink:href="#DejaVuSans-61"/>
     <use x="327.880859" xlink:href="#DejaVuSans-2d"/>
     <use x="363.964844" xlink:href="#DejaVuSans-31"/>
     <use x="427.587891" xlink:href="#DejaVuSans-65"/>
     <use x="489.111328" xlink:href="#DejaVuSans-2d"/>
     <use x="525.195312" xlink:href="#DejaVuSans-31"/>
     <use x="588.818359" xlink:href="#DejaVuSans-30"/>
     <use x="652.441406" xlink:href="#DejaVuSans-20"/>
    </g>
   </g>
   <g id="text_15">
    <!-- cobyla-1e-5 o -->
    <defs>
     <path d="M 10.796875 72.90625 
L 49.515625 72.90625 
L 49.515625 64.59375 
L 19.828125 64.59375 
L 19.828125 46.734375 
Q 21.96875 47.46875 24.109375 47.828125 
Q 26.265625 48.1875 28.421875 48.1875 
Q 40.625 48.1875 47.75 41.5 
Q 54.890625 34.8125 54.890625 23.390625 
Q 54.890625 11.625 47.5625 5.09375 
Q 40.234375 -1.421875 26.90625 -1.421875 
Q 22.3125 -1.421875 17.546875 -0.640625 
Q 12.796875 0.140625 7.71875 1.703125 
L 7.71875 11.625 
Q 12.109375 9.234375 16.796875 8.0625 
Q 21.484375 6.890625 26.703125 6.890625 
Q 35.15625 6.890625 40.078125 11.328125 
Q 45.015625 15.765625 45.015625 23.390625 
Q 45.015625 31 40.078125 35.4375 
Q 35.15625 39.890625 26.703125 39.890625 
Q 22.75 39.890625 18.8125 39.015625 
Q 14.890625 38.140625 10.796875 36.28125 
z
" id="DejaVuSans-35"/>
    </defs>
    <g transform="translate(396.24 170.645824)scale(0.15 -0.15)">
     <use xlink:href="#DejaVuSans-63"/>
     <use x="54.980469" xlink:href="#DejaVuSans-6f"/>
     <use x="116.162109" xlink:href="#DejaVuSans-62"/>
     <use x="179.638672" xlink:href="#DejaVuSans-79"/>
     <use x="238.818359" xlink:href="#DejaVuSans-6c"/>
     <use x="266.601562" xlink:href="#DejaVuSans-61"/>
     <use x="327.880859" xlink:href="#DejaVuSans-2d"/>
     <use x="363.964844" xlink:href="#DejaVuSans-31"/>
     <use x="427.587891" xlink:href="#DejaVuSans-65"/>
     <use x="489.111328" xlink:href="#DejaVuSans-2d"/>
     <use x="525.195312" xlink:href="#DejaVuSans-35"/>
     <use x="588.818359" xlink:href="#DejaVuSans-20"/>
     <use x="620.605469" xlink:href="#DejaVuSans-6f"/>
    </g>
   </g>
   <g id="text_16">
    <!-- cobyla-1e-7 o -->
    <defs>
     <path d="M 8.203125 72.90625 
L 55.078125 72.90625 
L 55.078125 68.703125 
L 28.609375 0 
L 18.3125 0 
L 43.21875 64.59375 
L 8.203125 64.59375 
z
" id="DejaVuSans-37"/>
    </defs>
    <g transform="translate(396.24 44.176754)scale(0.15 -0.15)">
     <use xlink:href="#DejaVuSans-63"/>
     <use x="54.980469" xlink:href="#DejaVuSans-6f"/>
     <use x="116.162109" xlink:href="#DejaVuSans-62"/>
     <use x="179.638672" xlink:href="#DejaVuSans-79"/>
     <use x="238.818359" xlink:href="#DejaVuSans-6c"/>
     <use x="266.601562" xlink:href="#DejaVuSans-61"/>
     <use x="327.880859" xlink:href="#DejaVuSans-2d"/>
     <use x="363.964844" xlink:href="#DejaVuSans-31"/>
     <use x="427.587891" xlink:href="#DejaVuSans-65"/>
     <use x="489.111328" xlink:href="#DejaVuSans-2d"/>
     <use x="525.195312" xlink:href="#DejaVuSans-37"/>
     <use x="588.818359" xlink:href="#DejaVuSans-20"/>
     <use x="620.605469" xlink:href="#DejaVuSans-6f"/>
    </g>
   </g>
   <g id="text_17">
    <!-- bbob-constrained - f19-f42, 2-D -->
    <defs>
     <path d="M 10.984375 1.515625 
L 10.984375 10.5 
Q 14.703125 8.734375 18.5 7.8125 
Q 22.3125 6.890625 25.984375 6.890625 
Q 35.75 6.890625 40.890625 13.453125 
Q 46.046875 20.015625 46.78125 33.40625 
Q 43.953125 29.203125 39.59375 26.953125 
Q 35.25 24.703125 29.984375 24.703125 
Q 19.046875 24.703125 12.671875 31.3125 
Q 6.296875 37.9375 6.296875 49.421875 
Q 6.296875 60.640625 12.9375 67.421875 
Q 19.578125 74.21875 30.609375 74.21875 
Q 43.265625 74.21875 49.921875 64.515625 
Q 56.59375 54.828125 56.59375 36.375 
Q 56.59375 19.140625 48.40625 8.859375 
Q 40.234375 -1.421875 26.421875 -1.421875 
Q 22.703125 -1.421875 18.890625 -0.6875 
Q 15.09375 0.046875 10.984375 1.515625 
z
M 30.609375 32.421875 
Q 37.25 32.421875 41.125 36.953125 
Q 45.015625 41.5 45.015625 49.421875 
Q 45.015625 57.28125 41.125 61.84375 
Q 37.25 66.40625 30.609375 66.40625 
Q 23.96875 66.40625 20.09375 61.84375 
Q 16.21875 57.28125 16.21875 49.421875 
Q 16.21875 41.5 20.09375 36.953125 
Q 23.96875 32.421875 30.609375 32.421875 
z
" id="DejaVuSans-39"/>
     <path d="M 11.71875 12.40625 
L 22.015625 12.40625 
L 22.015625 4 
L 14.015625 -11.625 
L 7.71875 -11.625 
L 11.71875 4 
z
" id="DejaVuSans-2c"/>
     <path d="M 19.671875 64.796875 
L 19.671875 8.109375 
L 31.59375 8.109375 
Q 46.6875 8.109375 53.6875 14.9375 
Q 60.6875 21.78125 60.6875 36.53125 
Q 60.6875 51.171875 53.6875 57.984375 
Q 46.6875 64.796875 31.59375 64.796875 
z
M 9.8125 72.90625 
L 30.078125 72.90625 
Q 51.265625 72.90625 61.171875 64.09375 
Q 71.09375 55.28125 71.09375 36.53125 
Q 71.09375 17.671875 61.125 8.828125 
Q 51.171875 0 30.078125 0 
L 9.8125 0 
z
" id="DejaVuSans-44"/>
    </defs>
    <g transform="translate(74.3712 50.114612)scale(0.1666 -0.1666)">
     <use xlink:href="#DejaVuSans-62"/>
     <use x="63.476562" xlink:href="#DejaVuSans-62"/>
     <use x="126.953125" xlink:href="#DejaVuSans-6f"/>
     <use x="188.134766" xlink:href="#DejaVuSans-62"/>
     <use x="251.611328" xlink:href="#DejaVuSans-2d"/>
     <use x="287.695312" xlink:href="#DejaVuSans-63"/>
     <use x="342.675781" xlink:href="#DejaVuSans-6f"/>
     <use x="403.857422" xlink:href="#DejaVuSans-6e"/>
     <use x="467.236328" xlink:href="#DejaVuSans-73"/>
     <use x="519.335938" xlink:href="#DejaVuSans-74"/>
     <use x="558.544922" xlink:href="#DejaVuSans-72"/>
     <use x="599.658203" xlink:href="#DejaVuSans-61"/>
     <use x="660.9375" xlink:href="#DejaVuSans-69"/>
     <use x="688.720703" xlink:href="#DejaVuSans-6e"/>
     <use x="752.099609" xlink:href="#DejaVuSans-65"/>
     <use x="813.623047" xlink:href="#DejaVuSans-64"/>
     <use x="877.099609" xlink:href="#DejaVuSans-20"/>
     <use x="908.886719" xlink:href="#DejaVuSans-2d"/>
     <use x="944.970703" xlink:href="#DejaVuSans-20"/>
     <use x="976.757812" xlink:href="#DejaVuSans-66"/>
     <use x="1011.962891" xlink:href="#DejaVuSans-31"/>
     <use x="1075.585938" xlink:href="#DejaVuSans-39"/>
     <use x="1139.208984" xlink:href="#DejaVuSans-2d"/>
     <use x="1175.292969" xlink:href="#DejaVuSans-66"/>
     <use x="1210.498047" xlink:href="#DejaVuSans-34"/>
     <use x="1274.121094" xlink:href="#DejaVuSans-32"/>
     <use x="1337.744141" xlink:href="#DejaVuSans-2c"/>
     <use x="1369.53125" xlink:href="#DejaVuSans-20"/>
     <use x="1401.318359" xlink:href="#DejaVuSans-32"/>
     <use x="1464.941406" xlink:href="#DejaVuSans-2d"/>
     <use x="1501.025391" xlink:href="#DejaVuSans-44"/>
    </g>
    <!-- 51 targets in 100..1e-08 -->
    <g transform="translate(74.3712 68.770168)scale(0.1666 -0.1666)">
     <use xlink:href="#DejaVuSans-35"/>
     <use x="63.623047" xlink:href="#DejaVuSans-31"/>
     <use x="127.246094" xlink:href="#DejaVuSans-20"/>
     <use x="159.033203" xlink:href="#DejaVuSans-74"/>
     <use x="198.242188" xlink:href="#DejaVuSans-61"/>
     <use x="259.521484" xlink:href="#DejaVuSans-72"/>
     <use x="300.619141" xlink:href="#DejaVuSans-67"/>
     <use x="364.095703" xlink:href="#DejaVuSans-65"/>
     <use x="425.619141" xlink:href="#DejaVuSans-74"/>
     <use x="464.828125" xlink:href="#DejaVuSans-73"/>
     <use x="516.927734" xlink:href="#DejaVuSans-20"/>
     <use x="548.714844" xlink:href="#DejaVuSans-69"/>
     <use x="576.498047" xlink:href="#DejaVuSans-6e"/>
     <use x="639.876953" xlink:href="#DejaVuSans-20"/>
     <use x="671.664062" xlink:href="#DejaVuSans-31"/>
     <use x="735.287109" xlink:href="#DejaVuSans-30"/>
     <use x="798.910156" xlink:href="#DejaVuSans-30"/>
     <use x="862.533203" xlink:href="#DejaVuSans-2e"/>
     <use x="894.320312" xlink:href="#DejaVuSans-2e"/>
     <use x="926.107422" xlink:href="#DejaVuSans-31"/>
     <use x="989.730469" xlink:href="#DejaVuSans-65"/>
     <use x="1051.253906" xlink:href="#DejaVuSans-2d"/>
     <use x="1087.337891" xlink:href="#DejaVuSans-30"/>
     <use x="1150.960938" xlink:href="#DejaVuSans-38"/>
    </g>
    <!-- 15 instances -->
    <g transform="translate(74.3712 87.425723)scale(0.1666 -0.1666)">
     <use xlink:href="#DejaVuSans-31"/>
     <use x="63.623047" xlink:href="#DejaVuSans-35"/>
     <use x="127.246094" xlink:href="#DejaVuSans-20"/>
     <use x="159.033203" xlink:href="#DejaVuSans-69"/>
     <use x="186.816406" xlink:href="#DejaVuSans-6e"/>
     <use x="250.195312" xlink:href="#DejaVuSans-73"/>
     <use x="302.294922" xlink:href="#DejaVuSans-74"/>
     <use x="341.503906" xlink:href="#DejaVuSans-61"/>
     <use x="402.783203" xlink:href="#DejaVuSans-6e"/>
     <use x="466.162109" xlink:href="#DejaVuSans-63"/>
     <use x="521.142578" xlink:href="#DejaVuSans-65"/>
     <use x="582.666016" xlink:href="#DejaVuSans-73"/>
    </g>
   </g>
   <g id="text_18">
    <!-- v2.0.312 -->
    <defs>
     <path d="M 40.578125 39.3125 
Q 47.65625 37.796875 51.625 33 
Q 55.609375 28.21875 55.609375 21.1875 
Q 55.609375 10.40625 48.1875 4.484375 
Q 40.765625 -1.421875 27.09375 -1.421875 
Q 22.515625 -1.421875 17.65625 -0.515625 
Q 12.796875 0.390625 7.625 2.203125 
L 7.625 11.71875 
Q 11.71875 9.328125 16.59375 8.109375 
Q 21.484375 6.890625 26.8125 6.890625 
Q 36.078125 6.890625 40.9375 10.546875 
Q 45.796875 14.203125 45.796875 21.1875 
Q 45.796875 27.640625 41.28125 31.265625 
Q 36.765625 34.90625 28.71875 34.90625 
L 20.21875 34.90625 
L 20.21875 43.015625 
L 29.109375 43.015625 
Q 36.375 43.015625 40.234375 45.921875 
Q 44.09375 48.828125 44.09375 54.296875 
Q 44.09375 59.90625 40.109375 62.90625 
Q 36.140625 65.921875 28.71875 65.921875 
Q 24.65625 65.921875 20.015625 65.03125 
Q 15.375 64.15625 9.8125 62.3125 
L 9.8125 71.09375 
Q 15.4375 72.65625 20.34375 73.4375 
Q 25.25 74.21875 29.59375 74.21875 
Q 40.828125 74.21875 47.359375 69.109375 
Q 53.90625 64.015625 53.90625 55.328125 
Q 53.90625 49.265625 50.4375 45.09375 
Q 46.96875 40.921875 40.578125 39.3125 
z
" id="DejaVuSans-33"/>
    </defs>
    <g style="fill:#808080;" transform="translate(227.31625 293.504568)scale(0.1 -0.1)">
     <use xlink:href="#DejaVuSans-76"/>
     <use x="59.179688" xlink:href="#DejaVuSans-32"/>
     <use x="122.802734" xlink:href="#DejaVuSans-2e"/>
     <use x="154.589844" xlink:href="#DejaVuSans-30"/>
     <use x="218.212891" xlink:href="#DejaVuSans-2e"/>
     <use x="250" xlink:href="#DejaVuSans-33"/>
     <use x="313.623047" xlink:href="#DejaVuSans-31"/>
     <use x="377.246094" xlink:href="#DejaVuSans-32"/>
    </g>
   </g>
  </g>
 </g>
 <defs>
  <clipPath id="pea6a131106">
   <rect height="266.112" width="357.12" x="70.8" y="32.133375"/>
  </clipPath>
 </defs>
</svg>
