<?xml version="1.0" encoding="utf-8" standalone="no"?>
<!DOCTYPE svg PUBLIC "-//W3C//DTD SVG 1.1//EN"
  "http://www.w3.org/Graphics/SVG/1.1/DTD/svg11.dtd">
<!-- Created with matplotlib (http://matplotlib.org/) -->
<svg height="380pt" version="1.1" viewBox="0 0 686 380" width="686pt" xmlns="http://www.w3.org/2000/svg" xmlns:xlink="http://www.w3.org/1999/xlink">
 <defs>
  <style type="text/css">
*{stroke-linecap:butt;stroke-linejoin:round;}
  </style>
 </defs>
 <g id="figure_1">
  <g id="patch_1">
   <path d="M 0 380.23475 
L 686.743 380.23475 
L 686.743 0 
L 0 0 
z
" style="fill:#ffffff;"/>
  </g>
  <g id="axes_1">
   <g id="patch_2">
    <path d="M 224.8675 315.57975 
L 581.9875 315.57975 
L 581.9875 49.46775 
L 224.8675 49.46775 
z
" style="fill:#ffffff;"/>
   </g>
   <g id="matplotlib.axis_1">
    <g id="xtick_1">
     <g id="line2d_1">
      <path clip-path="url(#p1ab435c3d4)" d="M 581.9875 315.57975 
L 581.9875 49.46775 
" style="fill:none;stroke:#b0b0b0;stroke-linecap:square;stroke-width:0.8;"/>
     </g>
     <g id="line2d_2">
      <defs>
       <path d="M 0 0 
L 0 3.5 
" id="m0e6385a395" style="stroke:#000000;stroke-width:0.8;"/>
      </defs>
      <g>
       <use style="stroke:#000000;stroke-width:0.8;" x="581.9875" xlink:href="#m0e6385a395" y="315.57975"/>
      </g>
     </g>
     <g id="text_1">
      <!-- -8 -->
      <defs>
       <path d="M 4.890625 31.390625 
L 31.203125 31.390625 
L 31.203125 23.390625 
L 4.890625 23.390625 
z
" id="DejaVuSans-2d"/>
       <path d="M 31.78125 34.625 
Q 24.75 34.625 20.71875 30.859375 
Q 16.703125 27.09375 16.703125 20.515625 
Q 16.703125 13.921875 20.71875 10.15625 
Q 24.75 6.390625 31.78125 6.390625 
Q 38.8125 6.390625 42.859375 10.171875 
Q 46.921875 13.96875 46.921875 20.515625 
Q 46.921875 27.09375 42.890625 30.859375 
Q 38.875 34.625 31.78125 34.625 
z
M 21.921875 38.8125 
Q 15.578125 40.375 12.03125 44.71875 
Q 8.5 49.078125 8.5 55.328125 
Q 8.5 64.0625 14.71875 69.140625 
Q 20.953125 74.21875 31.78125 74.21875 
Q 42.671875 74.21875 48.875 69.140625 
Q 55.078125 64.0625 55.078125 55.328125 
Q 55.078125 49.078125 51.53125 44.71875 
Q 48 40.375 41.703125 38.8125 
Q 48.828125 37.15625 52.796875 32.3125 
Q 56.78125 27.484375 56.78125 20.515625 
Q 56.78125 9.90625 50.3125 4.234375 
Q 43.84375 -1.421875 31.78125 -1.421875 
Q 19.734375 -1.421875 13.25 4.234375 
Q 6.78125 9.90625 6.78125 20.515625 
Q 6.78125 27.484375 10.78125 32.3125 
Q 14.796875 37.15625 21.921875 38.8125 
z
M 18.3125 54.390625 
Q 18.3125 48.734375 21.84375 45.5625 
Q 25.390625 42.390625 31.78125 42.390625 
Q 38.140625 42.390625 41.71875 45.5625 
Q 45.3125 48.734375 45.3125 54.390625 
Q 45.3125 60.0625 41.71875 63.234375 
Q 38.140625 66.40625 31.78125 66.40625 
Q 25.390625 66.40625 21.84375 63.234375 
Q 18.3125 60.0625 18.3125 54.390625 
z
" id="DejaVuSans-38"/>
      </defs>
      <g transform="translate(570.023125 340.816)scale(0.24 -0.24)">
       <use xlink:href="#DejaVuSans-2d"/>
       <use x="36.083984" xlink:href="#DejaVuSans-38"/>
      </g>
     </g>
    </g>
    <g id="xtick_2">
     <g id="line2d_3">
      <path clip-path="url(#p1ab435c3d4)" d="M 484.591136 315.57975 
L 484.591136 49.46775 
" style="fill:none;stroke:#b0b0b0;stroke-linecap:square;stroke-width:0.8;"/>
     </g>
     <g id="line2d_4">
      <g>
       <use style="stroke:#000000;stroke-width:0.8;" x="484.591136" xlink:href="#m0e6385a395" y="315.57975"/>
      </g>
     </g>
     <g id="text_2">
      <!-- -5 -->
      <defs>
       <path d="M 10.796875 72.90625 
L 49.515625 72.90625 
L 49.515625 64.59375 
L 19.828125 64.59375 
L 19.828125 46.734375 
Q 21.96875 47.46875 24.109375 47.828125 
Q 26.265625 48.1875 28.421875 48.1875 
Q 40.625 48.1875 47.75 41.5 
Q 54.890625 34.8125 54.890625 23.390625 
Q 54.890625 11.625 47.5625 5.09375 
Q 40.234375 -1.421875 26.90625 -1.421875 
Q 22.3125 -1.421875 17.546875 -0.640625 
Q 12.796875 0.140625 7.71875 1.703125 
L 7.71875 11.625 
Q 12.109375 9.234375 16.796875 8.0625 
Q 21.484375 6.890625 26.703125 6.890625 
Q 35.15625 6.890625 40.078125 11.328125 
Q 45.015625 15.765625 45.015625 23.390625 
Q 45.015625 31 40.078125 35.4375 
Q 35.15625 39.890625 26.703125 39.890625 
Q 22.75 39.890625 18.8125 39.015625 
Q 14.890625 38.140625 10.796875 36.28125 
z
" id="DejaVuSans-35"/>
      </defs>
      <g transform="translate(472.626761 340.816)scale(0.24 -0.24)">
       <use xlink:href="#DejaVuSans-2d"/>
       <use x="36.083984" xlink:href="#DejaVuSans-35"/>
      </g>
     </g>
    </g>
    <g id="xtick_3">
     <g id="line2d_5">
      <path clip-path="url(#p1ab435c3d4)" d="M 387.194773 315.57975 
L 387.194773 49.46775 
" style="fill:none;stroke:#b0b0b0;stroke-linecap:square;stroke-width:0.8;"/>
     </g>
     <g id="line2d_6">
      <g>
       <use style="stroke:#000000;stroke-width:0.8;" x="387.194773" xlink:href="#m0e6385a395" y="315.57975"/>
      </g>
     </g>
     <g id="text_3">
      <!-- -2 -->
      <defs>
       <path d="M 19.1875 8.296875 
L 53.609375 8.296875 
L 53.609375 0 
L 7.328125 0 
L 7.328125 8.296875 
Q 12.9375 14.109375 22.625 23.890625 
Q 32.328125 33.6875 34.8125 36.53125 
Q 39.546875 41.84375 41.421875 45.53125 
Q 43.3125 49.21875 43.3125 52.78125 
Q 43.3125 58.59375 39.234375 62.25 
Q 35.15625 65.921875 28.609375 65.921875 
Q 23.96875 65.921875 18.8125 64.3125 
Q 13.671875 62.703125 7.8125 59.421875 
L 7.8125 69.390625 
Q 13.765625 71.78125 18.9375 73 
Q 24.125 74.21875 28.421875 74.21875 
Q 39.75 74.21875 46.484375 68.546875 
Q 53.21875 62.890625 53.21875 53.421875 
Q 53.21875 48.921875 51.53125 44.890625 
Q 49.859375 40.875 45.40625 35.40625 
Q 44.1875 33.984375 37.640625 27.21875 
Q 31.109375 20.453125 19.1875 8.296875 
z
" id="DejaVuSans-32"/>
      </defs>
      <g transform="translate(375.230398 340.816)scale(0.24 -0.24)">
       <use xlink:href="#DejaVuSans-2d"/>
       <use x="36.083984" xlink:href="#DejaVuSans-32"/>
      </g>
     </g>
    </g>
    <g id="xtick_4">
     <g id="line2d_7">
      <path clip-path="url(#p1ab435c3d4)" d="M 289.798409 315.57975 
L 289.798409 49.46775 
" style="fill:none;stroke:#b0b0b0;stroke-linecap:square;stroke-width:0.8;"/>
     </g>
     <g id="line2d_8">
      <g>
       <use style="stroke:#000000;stroke-width:0.8;" x="289.798409" xlink:href="#m0e6385a395" y="315.57975"/>
      </g>
     </g>
     <g id="text_4">
      <!-- 1 -->
      <defs>
       <path d="M 12.40625 8.296875 
L 28.515625 8.296875 
L 28.515625 63.921875 
L 10.984375 60.40625 
L 10.984375 69.390625 
L 28.421875 72.90625 
L 38.28125 72.90625 
L 38.28125 8.296875 
L 54.390625 8.296875 
L 54.390625 0 
L 12.40625 0 
z
" id="DejaVuSans-31"/>
      </defs>
      <g transform="translate(282.163409 340.816)scale(0.24 -0.24)">
       <use xlink:href="#DejaVuSans-31"/>
      </g>
     </g>
    </g>
    <g id="text_5">
     <!-- log10(Delta ftarget) -->
     <defs>
      <path d="M 9.421875 75.984375 
L 18.40625 75.984375 
L 18.40625 0 
L 9.421875 0 
z
" id="DejaVuSans-6c"/>
      <path d="M 30.609375 48.390625 
Q 23.390625 48.390625 19.1875 42.75 
Q 14.984375 37.109375 14.984375 27.296875 
Q 14.984375 17.484375 19.15625 11.84375 
Q 23.34375 6.203125 30.609375 6.203125 
Q 37.796875 6.203125 41.984375 11.859375 
Q 46.1875 17.53125 46.1875 27.296875 
Q 46.1875 37.015625 41.984375 42.703125 
Q 37.796875 48.390625 30.609375 48.390625 
z
M 30.609375 56 
Q 42.328125 56 49.015625 48.375 
Q 55.71875 40.765625 55.71875 27.296875 
Q 55.71875 13.875 49.015625 6.21875 
Q 42.328125 -1.421875 30.609375 -1.421875 
Q 18.84375 -1.421875 12.171875 6.21875 
Q 5.515625 13.875 5.515625 27.296875 
Q 5.515625 40.765625 12.171875 48.375 
Q 18.84375 56 30.609375 56 
z
" id="DejaVuSans-6f"/>
      <path d="M 45.40625 27.984375 
Q 45.40625 37.75 41.375 43.109375 
Q 37.359375 48.484375 30.078125 48.484375 
Q 22.859375 48.484375 18.828125 43.109375 
Q 14.796875 37.75 14.796875 27.984375 
Q 14.796875 18.265625 18.828125 12.890625 
Q 22.859375 7.515625 30.078125 7.515625 
Q 37.359375 7.515625 41.375 12.890625 
Q 45.40625 18.265625 45.40625 27.984375 
z
M 54.390625 6.78125 
Q 54.390625 -7.171875 48.1875 -13.984375 
Q 42 -20.796875 29.203125 -20.796875 
Q 24.46875 -20.796875 20.265625 -20.09375 
Q 16.0625 -19.390625 12.109375 -17.921875 
L 12.109375 -9.1875 
Q 16.0625 -11.328125 19.921875 -12.34375 
Q 23.78125 -13.375 27.78125 -13.375 
Q 36.625 -13.375 41.015625 -8.765625 
Q 45.40625 -4.15625 45.40625 5.171875 
L 45.40625 9.625 
Q 42.625 4.78125 38.28125 2.390625 
Q 33.9375 0 27.875 0 
Q 17.828125 0 11.671875 7.65625 
Q 5.515625 15.328125 5.515625 27.984375 
Q 5.515625 40.671875 11.671875 48.328125 
Q 17.828125 56 27.875 56 
Q 33.9375 56 38.28125 53.609375 
Q 42.625 51.21875 45.40625 46.390625 
L 45.40625 54.6875 
L 54.390625 54.6875 
z
" id="DejaVuSans-67"/>
      <path d="M 31.78125 66.40625 
Q 24.171875 66.40625 20.328125 58.90625 
Q 16.5 51.421875 16.5 36.375 
Q 16.5 21.390625 20.328125 13.890625 
Q 24.171875 6.390625 31.78125 6.390625 
Q 39.453125 6.390625 43.28125 13.890625 
Q 47.125 21.390625 47.125 36.375 
Q 47.125 51.421875 43.28125 58.90625 
Q 39.453125 66.40625 31.78125 66.40625 
z
M 31.78125 74.21875 
Q 44.046875 74.21875 50.515625 64.515625 
Q 56.984375 54.828125 56.984375 36.375 
Q 56.984375 17.96875 50.515625 8.265625 
Q 44.046875 -1.421875 31.78125 -1.421875 
Q 19.53125 -1.421875 13.0625 8.265625 
Q 6.59375 17.96875 6.59375 36.375 
Q 6.59375 54.828125 13.0625 64.515625 
Q 19.53125 74.21875 31.78125 74.21875 
z
" id="DejaVuSans-30"/>
      <path d="M 31 75.875 
Q 24.46875 64.65625 21.28125 53.65625 
Q 18.109375 42.671875 18.109375 31.390625 
Q 18.109375 20.125 21.3125 9.0625 
Q 24.515625 -2 31 -13.1875 
L 23.1875 -13.1875 
Q 15.875 -1.703125 12.234375 9.375 
Q 8.59375 20.453125 8.59375 31.390625 
Q 8.59375 42.28125 12.203125 53.3125 
Q 15.828125 64.359375 23.1875 75.875 
z
" id="DejaVuSans-28"/>
      <path d="M 19.671875 64.796875 
L 19.671875 8.109375 
L 31.59375 8.109375 
Q 46.6875 8.109375 53.6875 14.9375 
Q 60.6875 21.78125 60.6875 36.53125 
Q 60.6875 51.171875 53.6875 57.984375 
Q 46.6875 64.796875 31.59375 64.796875 
z
M 9.8125 72.90625 
L 30.078125 72.90625 
Q 51.265625 72.90625 61.171875 64.09375 
Q 71.09375 55.28125 71.09375 36.53125 
Q 71.09375 17.671875 61.125 8.828125 
Q 51.171875 0 30.078125 0 
L 9.8125 0 
z
" id="DejaVuSans-44"/>
      <path d="M 56.203125 29.59375 
L 56.203125 25.203125 
L 14.890625 25.203125 
Q 15.484375 15.921875 20.484375 11.0625 
Q 25.484375 6.203125 34.421875 6.203125 
Q 39.59375 6.203125 44.453125 7.46875 
Q 49.3125 8.734375 54.109375 11.28125 
L 54.109375 2.78125 
Q 49.265625 0.734375 44.1875 -0.34375 
Q 39.109375 -1.421875 33.890625 -1.421875 
Q 20.796875 -1.421875 13.15625 6.1875 
Q 5.515625 13.8125 5.515625 26.8125 
Q 5.515625 40.234375 12.765625 48.109375 
Q 20.015625 56 32.328125 56 
Q 43.359375 56 49.78125 48.890625 
Q 56.203125 41.796875 56.203125 29.59375 
z
M 47.21875 32.234375 
Q 47.125 39.59375 43.09375 43.984375 
Q 39.0625 48.390625 32.421875 48.390625 
Q 24.90625 48.390625 20.390625 44.140625 
Q 15.875 39.890625 15.1875 32.171875 
z
" id="DejaVuSans-65"/>
      <path d="M 18.3125 70.21875 
L 18.3125 54.6875 
L 36.8125 54.6875 
L 36.8125 47.703125 
L 18.3125 47.703125 
L 18.3125 18.015625 
Q 18.3125 11.328125 20.140625 9.421875 
Q 21.96875 7.515625 27.59375 7.515625 
L 36.8125 7.515625 
L 36.8125 0 
L 27.59375 0 
Q 17.1875 0 13.234375 3.875 
Q 9.28125 7.765625 9.28125 18.015625 
L 9.28125 47.703125 
L 2.6875 47.703125 
L 2.6875 54.6875 
L 9.28125 54.6875 
L 9.28125 70.21875 
z
" id="DejaVuSans-74"/>
      <path d="M 34.28125 27.484375 
Q 23.390625 27.484375 19.1875 25 
Q 14.984375 22.515625 14.984375 16.5 
Q 14.984375 11.71875 18.140625 8.90625 
Q 21.296875 6.109375 26.703125 6.109375 
Q 34.1875 6.109375 38.703125 11.40625 
Q 43.21875 16.703125 43.21875 25.484375 
L 43.21875 27.484375 
z
M 52.203125 31.203125 
L 52.203125 0 
L 43.21875 0 
L 43.21875 8.296875 
Q 40.140625 3.328125 35.546875 0.953125 
Q 30.953125 -1.421875 24.3125 -1.421875 
Q 15.921875 -1.421875 10.953125 3.296875 
Q 6 8.015625 6 15.921875 
Q 6 25.140625 12.171875 29.828125 
Q 18.359375 34.515625 30.609375 34.515625 
L 43.21875 34.515625 
L 43.21875 35.40625 
Q 43.21875 41.609375 39.140625 45 
Q 35.0625 48.390625 27.6875 48.390625 
Q 23 48.390625 18.546875 47.265625 
Q 14.109375 46.140625 10.015625 43.890625 
L 10.015625 52.203125 
Q 14.9375 54.109375 19.578125 55.046875 
Q 24.21875 56 28.609375 56 
Q 40.484375 56 46.34375 49.84375 
Q 52.203125 43.703125 52.203125 31.203125 
z
" id="DejaVuSans-61"/>
      <path id="DejaVuSans-20"/>
      <path d="M 37.109375 75.984375 
L 37.109375 68.5 
L 28.515625 68.5 
Q 23.6875 68.5 21.796875 66.546875 
Q 19.921875 64.59375 19.921875 59.515625 
L 19.921875 54.6875 
L 34.71875 54.6875 
L 34.71875 47.703125 
L 19.921875 47.703125 
L 19.921875 0 
L 10.890625 0 
L 10.890625 47.703125 
L 2.296875 47.703125 
L 2.296875 54.6875 
L 10.890625 54.6875 
L 10.890625 58.5 
Q 10.890625 67.625 15.140625 71.796875 
Q 19.390625 75.984375 28.609375 75.984375 
z
" id="DejaVuSans-66"/>
      <path d="M 41.109375 46.296875 
Q 39.59375 47.171875 37.8125 47.578125 
Q 36.03125 48 33.890625 48 
Q 26.265625 48 22.1875 43.046875 
Q 18.109375 38.09375 18.109375 28.8125 
L 18.109375 0 
L 9.078125 0 
L 9.078125 54.6875 
L 18.109375 54.6875 
L 18.109375 46.1875 
Q 20.953125 51.171875 25.484375 53.578125 
Q 30.03125 56 36.53125 56 
Q 37.453125 56 38.578125 55.875 
Q 39.703125 55.765625 41.0625 55.515625 
z
" id="DejaVuSans-72"/>
      <path d="M 8.015625 75.875 
L 15.828125 75.875 
Q 23.140625 64.359375 26.78125 53.3125 
Q 30.421875 42.28125 30.421875 31.390625 
Q 30.421875 20.453125 26.78125 9.375 
Q 23.140625 -1.703125 15.828125 -13.1875 
L 8.015625 -13.1875 
Q 14.5 -2 17.703125 9.0625 
Q 20.90625 20.125 20.90625 31.390625 
Q 20.90625 42.671875 17.703125 53.65625 
Q 14.5 64.65625 8.015625 75.875 
z
" id="DejaVuSans-29"/>
     </defs>
     <g transform="translate(283.751875 368.0435)scale(0.24 -0.24)">
      <use xlink:href="#DejaVuSans-6c"/>
      <use x="27.783203" xlink:href="#DejaVuSans-6f"/>
      <use x="88.964844" xlink:href="#DejaVuSans-67"/>
      <use x="152.441406" xlink:href="#DejaVuSans-31"/>
      <use x="216.064453" xlink:href="#DejaVuSans-30"/>
      <use x="279.6875" xlink:href="#DejaVuSans-28"/>
      <use x="318.701172" xlink:href="#DejaVuSans-44"/>
      <use x="395.703125" xlink:href="#DejaVuSans-65"/>
      <use x="457.226562" xlink:href="#DejaVuSans-6c"/>
      <use x="485.009766" xlink:href="#DejaVuSans-74"/>
      <use x="524.21875" xlink:href="#DejaVuSans-61"/>
      <use x="585.498047" xlink:href="#DejaVuSans-20"/>
      <use x="617.285156" xlink:href="#DejaVuSans-66"/>
      <use x="652.474609" xlink:href="#DejaVuSans-74"/>
      <use x="691.683594" xlink:href="#DejaVuSans-61"/>
      <use x="752.962891" xlink:href="#DejaVuSans-72"/>
      <use x="794.060547" xlink:href="#DejaVuSans-67"/>
      <use x="857.537109" xlink:href="#DejaVuSans-65"/>
      <use x="919.060547" xlink:href="#DejaVuSans-74"/>
      <use x="958.269531" xlink:href="#DejaVuSans-29"/>
     </g>
    </g>
   </g>
   <g id="matplotlib.axis_2">
    <g id="ytick_1">
     <g id="line2d_9">
      <path clip-path="url(#p1ab435c3d4)" d="M 224.8675 282.005427 
L 581.9875 282.005427 
" style="fill:none;stroke:#b0b0b0;stroke-linecap:square;stroke-width:0.8;"/>
     </g>
     <g id="line2d_10">
      <defs>
       <path d="M 0 0 
L -3.5 0 
" id="ma0740f4677" style="stroke:#000000;stroke-width:2;"/>
      </defs>
      <g>
       <use style="stroke:#000000;stroke-width:2;" x="224.8675" xlink:href="#ma0740f4677" y="282.005427"/>
      </g>
     </g>
     <g id="text_6">
      <!-- -1 -->
      <g transform="translate(193.93875 291.123552)scale(0.24 -0.24)">
       <use xlink:href="#DejaVuSans-2d"/>
       <use x="36.083984" xlink:href="#DejaVuSans-31"/>
      </g>
     </g>
    </g>
    <g id="ytick_2">
     <g id="line2d_11">
      <path clip-path="url(#p1ab435c3d4)" d="M 224.8675 182.52375 
L 581.9875 182.52375 
" style="fill:none;stroke:#b0b0b0;stroke-linecap:square;stroke-width:0.8;"/>
     </g>
     <g id="line2d_12">
      <g>
       <use style="stroke:#000000;stroke-width:2;" x="224.8675" xlink:href="#ma0740f4677" y="182.52375"/>
      </g>
     </g>
     <g id="text_7">
      <!-- 0 -->
      <g transform="translate(202.5975 191.641875)scale(0.24 -0.24)">
       <use xlink:href="#DejaVuSans-30"/>
      </g>
     </g>
    </g>
    <g id="ytick_3">
     <g id="line2d_13">
      <path clip-path="url(#p1ab435c3d4)" d="M 224.8675 83.042073 
L 581.9875 83.042073 
" style="fill:none;stroke:#b0b0b0;stroke-linecap:square;stroke-width:0.8;"/>
     </g>
     <g id="line2d_14">
      <g>
       <use style="stroke:#000000;stroke-width:2;" x="224.8675" xlink:href="#ma0740f4677" y="83.042073"/>
      </g>
     </g>
     <g id="text_8">
      <!-- 1 -->
      <g transform="translate(202.5975 92.160198)scale(0.24 -0.24)">
       <use xlink:href="#DejaVuSans-31"/>
      </g>
     </g>
    </g>
    <g id="ytick_4">
     <g id="line2d_15">
      <path clip-path="url(#p1ab435c3d4)" d="M 224.8675 311.952396 
L 581.9875 311.952396 
" style="fill:none;stroke:#b0b0b0;stroke-linecap:square;stroke-width:0.8;"/>
     </g>
     <g id="line2d_16">
      <defs>
       <path d="M 0 0 
L -2 0 
" id="m1f087641a4" style="stroke:#000000;stroke-width:2;"/>
      </defs>
      <g>
       <use style="stroke:#000000;stroke-width:2;" x="224.8675" xlink:href="#m1f087641a4" y="311.952396"/>
      </g>
     </g>
    </g>
    <g id="ytick_5">
     <g id="line2d_17">
      <path clip-path="url(#p1ab435c3d4)" d="M 224.8675 277.453395 
L 581.9875 277.453395 
" style="fill:none;stroke:#b0b0b0;stroke-linecap:square;stroke-width:0.8;"/>
     </g>
     <g id="line2d_18">
      <g>
       <use style="stroke:#000000;stroke-width:2;" x="224.8675" xlink:href="#m1f087641a4" y="277.453395"/>
      </g>
     </g>
     <g id="text_9">
      <!-- $\mathdefault{1.11111\times10^{-1}}$ -->
      <defs>
       <path d="M 10.6875 12.40625 
L 21 12.40625 
L 21 0 
L 10.6875 0 
z
" id="DejaVuSans-2e"/>
       <path d="M 70.125 53.71875 
L 47.796875 31.296875 
L 70.125 8.984375 
L 64.3125 3.078125 
L 41.890625 25.484375 
L 19.484375 3.078125 
L 13.71875 8.984375 
L 35.984375 31.296875 
L 13.71875 53.71875 
L 19.484375 59.625 
L 41.890625 37.203125 
L 64.3125 59.625 
z
" id="DejaVuSans-d7"/>
       <path d="M 10.59375 35.5 
L 73.1875 35.5 
L 73.1875 27.203125 
L 10.59375 27.203125 
z
" id="DejaVuSans-2212"/>
      </defs>
      <g transform="translate(34.4275 286.57152)scale(0.24 -0.24)">
       <use transform="translate(0 0.684375)" xlink:href="#DejaVuSans-31"/>
       <use transform="translate(63.623047 0.684375)" xlink:href="#DejaVuSans-2e"/>
       <use transform="translate(95.410156 0.684375)" xlink:href="#DejaVuSans-31"/>
       <use transform="translate(159.033203 0.684375)" xlink:href="#DejaVuSans-31"/>
       <use transform="translate(222.65625 0.684375)" xlink:href="#DejaVuSans-31"/>
       <use transform="translate(286.279297 0.684375)" xlink:href="#DejaVuSans-31"/>
       <use transform="translate(349.902344 0.684375)" xlink:href="#DejaVuSans-31"/>
       <use transform="translate(433.007812 0.684375)" xlink:href="#DejaVuSans-d7"/>
       <use transform="translate(536.279297 0.684375)" xlink:href="#DejaVuSans-31"/>
       <use transform="translate(599.902344 0.684375)" xlink:href="#DejaVuSans-30"/>
       <use transform="translate(664.482422 38.965625)scale(0.7)" xlink:href="#DejaVuSans-2212"/>
       <use transform="translate(723.134766 38.965625)scale(0.7)" xlink:href="#DejaVuSans-31"/>
      </g>
     </g>
    </g>
    <g id="ytick_6">
     <g id="line2d_19">
      <path clip-path="url(#p1ab435c3d4)" d="M 224.8675 272.364656 
L 581.9875 272.364656 
" style="fill:none;stroke:#b0b0b0;stroke-linecap:square;stroke-width:0.8;"/>
     </g>
     <g id="line2d_20">
      <g>
       <use style="stroke:#000000;stroke-width:2;" x="224.8675" xlink:href="#m1f087641a4" y="272.364656"/>
      </g>
     </g>
     <g id="text_10">
      <!-- $\mathdefault{1.25\times10^{-1}}$ -->
      <g transform="translate(80.2675 281.482781)scale(0.24 -0.24)">
       <use transform="translate(0 0.684375)" xlink:href="#DejaVuSans-31"/>
       <use transform="translate(63.623047 0.684375)" xlink:href="#DejaVuSans-2e"/>
       <use transform="translate(95.332031 0.684375)" xlink:href="#DejaVuSans-32"/>
       <use transform="translate(158.955078 0.684375)" xlink:href="#DejaVuSans-35"/>
       <use transform="translate(242.060547 0.684375)" xlink:href="#DejaVuSans-d7"/>
       <use transform="translate(345.332031 0.684375)" xlink:href="#DejaVuSans-31"/>
       <use transform="translate(408.955078 0.684375)" xlink:href="#DejaVuSans-30"/>
       <use transform="translate(473.535156 38.965625)scale(0.7)" xlink:href="#DejaVuSans-2212"/>
       <use transform="translate(532.1875 38.965625)scale(0.7)" xlink:href="#DejaVuSans-31"/>
      </g>
     </g>
    </g>
    <g id="ytick_7">
     <g id="line2d_21">
      <path clip-path="url(#p1ab435c3d4)" d="M 224.8675 266.59552 
L 581.9875 266.59552 
" style="fill:none;stroke:#b0b0b0;stroke-linecap:square;stroke-width:0.8;"/>
     </g>
     <g id="line2d_22">
      <g>
       <use style="stroke:#000000;stroke-width:2;" x="224.8675" xlink:href="#m1f087641a4" y="266.59552"/>
      </g>
     </g>
     <g id="text_11">
      <!-- $\mathdefault{1.42857\times10^{-1}}$ -->
      <defs>
       <path d="M 37.796875 64.3125 
L 12.890625 25.390625 
L 37.796875 25.390625 
z
M 35.203125 72.90625 
L 47.609375 72.90625 
L 47.609375 25.390625 
L 58.015625 25.390625 
L 58.015625 17.1875 
L 47.609375 17.1875 
L 47.609375 0 
L 37.796875 0 
L 37.796875 17.1875 
L 4.890625 17.1875 
L 4.890625 26.703125 
z
" id="DejaVuSans-34"/>
       <path d="M 8.203125 72.90625 
L 55.078125 72.90625 
L 55.078125 68.703125 
L 28.609375 0 
L 18.3125 0 
L 43.21875 64.59375 
L 8.203125 64.59375 
z
" id="DejaVuSans-37"/>
      </defs>
      <g transform="translate(34.4275 275.713645)scale(0.24 -0.24)">
       <use transform="translate(0 0.684375)" xlink:href="#DejaVuSans-31"/>
       <use transform="translate(63.623047 0.684375)" xlink:href="#DejaVuSans-2e"/>
       <use transform="translate(95.410156 0.684375)" xlink:href="#DejaVuSans-34"/>
       <use transform="translate(159.033203 0.684375)" xlink:href="#DejaVuSans-32"/>
       <use transform="translate(222.65625 0.684375)" xlink:href="#DejaVuSans-38"/>
       <use transform="translate(286.279297 0.684375)" xlink:href="#DejaVuSans-35"/>
       <use transform="translate(349.792969 0.684375)" xlink:href="#DejaVuSans-37"/>
       <use transform="translate(432.898438 0.684375)" xlink:href="#DejaVuSans-d7"/>
       <use transform="translate(536.169922 0.684375)" xlink:href="#DejaVuSans-31"/>
       <use transform="translate(599.792969 0.684375)" xlink:href="#DejaVuSans-30"/>
       <use transform="translate(664.373047 38.965625)scale(0.7)" xlink:href="#DejaVuSans-2212"/>
       <use transform="translate(723.025391 38.965625)scale(0.7)" xlink:href="#DejaVuSans-31"/>
      </g>
     </g>
    </g>
    <g id="ytick_8">
     <g id="line2d_23">
      <path clip-path="url(#p1ab435c3d4)" d="M 224.8675 259.935541 
L 581.9875 259.935541 
" style="fill:none;stroke:#b0b0b0;stroke-linecap:square;stroke-width:0.8;"/>
     </g>
     <g id="line2d_24">
      <g>
       <use style="stroke:#000000;stroke-width:2;" x="224.8675" xlink:href="#m1f087641a4" y="259.935541"/>
      </g>
     </g>
    </g>
    <g id="ytick_9">
     <g id="line2d_25">
      <path clip-path="url(#p1ab435c3d4)" d="M 224.8675 252.058458 
L 581.9875 252.058458 
" style="fill:none;stroke:#b0b0b0;stroke-linecap:square;stroke-width:0.8;"/>
     </g>
     <g id="line2d_26">
      <g>
       <use style="stroke:#000000;stroke-width:2;" x="224.8675" xlink:href="#m1f087641a4" y="252.058458"/>
      </g>
     </g>
    </g>
    <g id="ytick_10">
     <g id="line2d_27">
      <path clip-path="url(#p1ab435c3d4)" d="M 224.8675 242.417687 
L 581.9875 242.417687 
" style="fill:none;stroke:#b0b0b0;stroke-linecap:square;stroke-width:0.8;"/>
     </g>
     <g id="line2d_28">
      <g>
       <use style="stroke:#000000;stroke-width:2;" x="224.8675" xlink:href="#m1f087641a4" y="242.417687"/>
      </g>
     </g>
    </g>
    <g id="ytick_11">
     <g id="line2d_29">
      <path clip-path="url(#p1ab435c3d4)" d="M 224.8675 229.988572 
L 581.9875 229.988572 
" style="fill:none;stroke:#b0b0b0;stroke-linecap:square;stroke-width:0.8;"/>
     </g>
     <g id="line2d_30">
      <g>
       <use style="stroke:#000000;stroke-width:2;" x="224.8675" xlink:href="#m1f087641a4" y="229.988572"/>
      </g>
     </g>
    </g>
    <g id="ytick_12">
     <g id="line2d_31">
      <path clip-path="url(#p1ab435c3d4)" d="M 224.8675 212.470719 
L 581.9875 212.470719 
" style="fill:none;stroke:#b0b0b0;stroke-linecap:square;stroke-width:0.8;"/>
     </g>
     <g id="line2d_32">
      <g>
       <use style="stroke:#000000;stroke-width:2;" x="224.8675" xlink:href="#m1f087641a4" y="212.470719"/>
      </g>
     </g>
    </g>
    <g id="ytick_13">
     <g id="line2d_33">
      <path clip-path="url(#p1ab435c3d4)" d="M 224.8675 152.576781 
L 581.9875 152.576781 
" style="fill:none;stroke:#b0b0b0;stroke-linecap:square;stroke-width:0.8;"/>
     </g>
     <g id="line2d_34">
      <g>
       <use style="stroke:#000000;stroke-width:2;" x="224.8675" xlink:href="#m1f087641a4" y="152.576781"/>
      </g>
     </g>
    </g>
    <g id="ytick_14">
     <g id="line2d_35">
      <path clip-path="url(#p1ab435c3d4)" d="M 224.8675 135.058928 
L 581.9875 135.058928 
" style="fill:none;stroke:#b0b0b0;stroke-linecap:square;stroke-width:0.8;"/>
     </g>
     <g id="line2d_36">
      <g>
       <use style="stroke:#000000;stroke-width:2;" x="224.8675" xlink:href="#m1f087641a4" y="135.058928"/>
      </g>
     </g>
    </g>
    <g id="ytick_15">
     <g id="line2d_37">
      <path clip-path="url(#p1ab435c3d4)" d="M 224.8675 122.629813 
L 581.9875 122.629813 
" style="fill:none;stroke:#b0b0b0;stroke-linecap:square;stroke-width:0.8;"/>
     </g>
     <g id="line2d_38">
      <g>
       <use style="stroke:#000000;stroke-width:2;" x="224.8675" xlink:href="#m1f087641a4" y="122.629813"/>
      </g>
     </g>
    </g>
    <g id="ytick_16">
     <g id="line2d_39">
      <path clip-path="url(#p1ab435c3d4)" d="M 224.8675 112.989042 
L 581.9875 112.989042 
" style="fill:none;stroke:#b0b0b0;stroke-linecap:square;stroke-width:0.8;"/>
     </g>
     <g id="line2d_40">
      <g>
       <use style="stroke:#000000;stroke-width:2;" x="224.8675" xlink:href="#m1f087641a4" y="112.989042"/>
      </g>
     </g>
    </g>
    <g id="ytick_17">
     <g id="line2d_41">
      <path clip-path="url(#p1ab435c3d4)" d="M 224.8675 105.111959 
L 581.9875 105.111959 
" style="fill:none;stroke:#b0b0b0;stroke-linecap:square;stroke-width:0.8;"/>
     </g>
     <g id="line2d_42">
      <g>
       <use style="stroke:#000000;stroke-width:2;" x="224.8675" xlink:href="#m1f087641a4" y="105.111959"/>
      </g>
     </g>
    </g>
    <g id="ytick_18">
     <g id="line2d_43">
      <path clip-path="url(#p1ab435c3d4)" d="M 224.8675 98.45198 
L 581.9875 98.45198 
" style="fill:none;stroke:#b0b0b0;stroke-linecap:square;stroke-width:0.8;"/>
     </g>
     <g id="line2d_44">
      <g>
       <use style="stroke:#000000;stroke-width:2;" x="224.8675" xlink:href="#m1f087641a4" y="98.45198"/>
      </g>
     </g>
    </g>
    <g id="ytick_19">
     <g id="line2d_45">
      <path clip-path="url(#p1ab435c3d4)" d="M 224.8675 92.682844 
L 581.9875 92.682844 
" style="fill:none;stroke:#b0b0b0;stroke-linecap:square;stroke-width:0.8;"/>
     </g>
     <g id="line2d_46">
      <g>
       <use style="stroke:#000000;stroke-width:2;" x="224.8675" xlink:href="#m1f087641a4" y="92.682844"/>
      </g>
     </g>
    </g>
    <g id="ytick_20">
     <g id="line2d_47">
      <path clip-path="url(#p1ab435c3d4)" d="M 224.8675 87.594105 
L 581.9875 87.594105 
" style="fill:none;stroke:#b0b0b0;stroke-linecap:square;stroke-width:0.8;"/>
     </g>
     <g id="line2d_48">
      <g>
       <use style="stroke:#000000;stroke-width:2;" x="224.8675" xlink:href="#m1f087641a4" y="87.594105"/>
      </g>
     </g>
    </g>
    <g id="ytick_21">
     <g id="line2d_49">
      <path clip-path="url(#p1ab435c3d4)" d="M 224.8675 53.095104 
L 581.9875 53.095104 
" style="fill:none;stroke:#b0b0b0;stroke-linecap:square;stroke-width:0.8;"/>
     </g>
     <g id="line2d_50">
      <g>
       <use style="stroke:#000000;stroke-width:2;" x="224.8675" xlink:href="#m1f087641a4" y="53.095104"/>
      </g>
     </g>
    </g>
    <g id="text_12">
     <!-- log10(aRT1/aRT0) or ~#succ -->
     <defs>
      <path d="M 44.390625 34.1875 
Q 47.5625 33.109375 50.5625 29.59375 
Q 53.5625 26.078125 56.59375 19.921875 
L 66.609375 0 
L 56 0 
L 46.6875 18.703125 
Q 43.0625 26.03125 39.671875 28.421875 
Q 36.28125 30.8125 30.421875 30.8125 
L 19.671875 30.8125 
L 19.671875 0 
L 9.8125 0 
L 9.8125 72.90625 
L 32.078125 72.90625 
Q 44.578125 72.90625 50.734375 67.671875 
Q 56.890625 62.453125 56.890625 51.90625 
Q 56.890625 45.015625 53.6875 40.46875 
Q 50.484375 35.9375 44.390625 34.1875 
z
M 19.671875 64.796875 
L 19.671875 38.921875 
L 32.078125 38.921875 
Q 39.203125 38.921875 42.84375 42.21875 
Q 46.484375 45.515625 46.484375 51.90625 
Q 46.484375 58.296875 42.84375 61.546875 
Q 39.203125 64.796875 32.078125 64.796875 
z
" id="DejaVuSans-52"/>
      <path d="M -0.296875 72.90625 
L 61.375 72.90625 
L 61.375 64.59375 
L 35.5 64.59375 
L 35.5 0 
L 25.59375 0 
L 25.59375 64.59375 
L -0.296875 64.59375 
z
" id="DejaVuSans-54"/>
      <path d="M 25.390625 72.90625 
L 33.6875 72.90625 
L 8.296875 -9.28125 
L 0 -9.28125 
z
" id="DejaVuSans-2f"/>
      <path d="M 73.1875 39.890625 
L 73.1875 31.203125 
Q 68.0625 27.34375 63.6875 25.6875 
Q 59.328125 24.03125 54.59375 24.03125 
Q 49.21875 24.03125 42.09375 26.90625 
Q 41.546875 27.09375 41.3125 27.203125 
Q 40.96875 27.34375 40.234375 27.59375 
Q 32.671875 30.609375 28.078125 30.609375 
Q 23.78125 30.609375 19.578125 28.734375 
Q 15.375 26.859375 10.59375 22.796875 
L 10.59375 31.5 
Q 15.71875 35.359375 20.09375 37.03125 
Q 24.46875 38.71875 29.203125 38.71875 
Q 34.578125 38.71875 41.75 35.796875 
Q 42.234375 35.59375 42.484375 35.5 
Q 42.875 35.359375 43.5625 35.109375 
Q 51.125 32.078125 55.71875 32.078125 
Q 59.90625 32.078125 64.03125 33.9375 
Q 68.171875 35.796875 73.1875 39.890625 
z
" id="DejaVuSans-7e"/>
      <path d="M 51.125 44 
L 36.921875 44 
L 32.8125 27.6875 
L 47.125 27.6875 
z
M 43.796875 71.78125 
L 38.71875 51.515625 
L 52.984375 51.515625 
L 58.109375 71.78125 
L 65.921875 71.78125 
L 60.890625 51.515625 
L 76.125 51.515625 
L 76.125 44 
L 58.984375 44 
L 54.984375 27.6875 
L 70.515625 27.6875 
L 70.515625 20.21875 
L 53.078125 20.21875 
L 48 0 
L 40.1875 0 
L 45.21875 20.21875 
L 30.90625 20.21875 
L 25.875 0 
L 18.015625 0 
L 23.09375 20.21875 
L 7.71875 20.21875 
L 7.71875 27.6875 
L 24.90625 27.6875 
L 29 44 
L 13.28125 44 
L 13.28125 51.515625 
L 30.90625 51.515625 
L 35.890625 71.78125 
z
" id="DejaVuSans-23"/>
      <path d="M 44.28125 53.078125 
L 44.28125 44.578125 
Q 40.484375 46.53125 36.375 47.5 
Q 32.28125 48.484375 27.875 48.484375 
Q 21.1875 48.484375 17.84375 46.4375 
Q 14.5 44.390625 14.5 40.28125 
Q 14.5 37.15625 16.890625 35.375 
Q 19.28125 33.59375 26.515625 31.984375 
L 29.59375 31.296875 
Q 39.15625 29.25 43.1875 25.515625 
Q 47.21875 21.78125 47.21875 15.09375 
Q 47.21875 7.46875 41.1875 3.015625 
Q 35.15625 -1.421875 24.609375 -1.421875 
Q 20.21875 -1.421875 15.453125 -0.5625 
Q 10.6875 0.296875 5.421875 2 
L 5.421875 11.28125 
Q 10.40625 8.6875 15.234375 7.390625 
Q 20.0625 6.109375 24.8125 6.109375 
Q 31.15625 6.109375 34.5625 8.28125 
Q 37.984375 10.453125 37.984375 14.40625 
Q 37.984375 18.0625 35.515625 20.015625 
Q 33.0625 21.96875 24.703125 23.78125 
L 21.578125 24.515625 
Q 13.234375 26.265625 9.515625 29.90625 
Q 5.8125 33.546875 5.8125 39.890625 
Q 5.8125 47.609375 11.28125 51.796875 
Q 16.75 56 26.8125 56 
Q 31.78125 56 36.171875 55.265625 
Q 40.578125 54.546875 44.28125 53.078125 
z
" id="DejaVuSans-73"/>
      <path d="M 8.5 21.578125 
L 8.5 54.6875 
L 17.484375 54.6875 
L 17.484375 21.921875 
Q 17.484375 14.15625 20.5 10.265625 
Q 23.53125 6.390625 29.59375 6.390625 
Q 36.859375 6.390625 41.078125 11.03125 
Q 45.3125 15.671875 45.3125 23.6875 
L 45.3125 54.6875 
L 54.296875 54.6875 
L 54.296875 0 
L 45.3125 0 
L 45.3125 8.40625 
Q 42.046875 3.421875 37.71875 1 
Q 33.40625 -1.421875 27.6875 -1.421875 
Q 18.265625 -1.421875 13.375 4.4375 
Q 8.5 10.296875 8.5 21.578125 
z
M 31.109375 56 
z
" id="DejaVuSans-75"/>
      <path d="M 48.78125 52.59375 
L 48.78125 44.1875 
Q 44.96875 46.296875 41.140625 47.34375 
Q 37.3125 48.390625 33.40625 48.390625 
Q 24.65625 48.390625 19.8125 42.84375 
Q 14.984375 37.3125 14.984375 27.296875 
Q 14.984375 17.28125 19.8125 11.734375 
Q 24.65625 6.203125 33.40625 6.203125 
Q 37.3125 6.203125 41.140625 7.25 
Q 44.96875 8.296875 48.78125 10.40625 
L 48.78125 2.09375 
Q 45.015625 0.34375 40.984375 -0.53125 
Q 36.96875 -1.421875 32.421875 -1.421875 
Q 20.0625 -1.421875 12.78125 6.34375 
Q 5.515625 14.109375 5.515625 27.296875 
Q 5.515625 40.671875 12.859375 48.328125 
Q 20.21875 56 33.015625 56 
Q 37.15625 56 41.109375 55.140625 
Q 45.0625 54.296875 48.78125 52.59375 
z
" id="DejaVuSans-63"/>
     </defs>
     <g transform="translate(25.43625 357.8475)rotate(-90)scale(0.24 -0.24)">
      <use xlink:href="#DejaVuSans-6c"/>
      <use x="27.783203" xlink:href="#DejaVuSans-6f"/>
      <use x="88.964844" xlink:href="#DejaVuSans-67"/>
      <use x="152.441406" xlink:href="#DejaVuSans-31"/>
      <use x="216.064453" xlink:href="#DejaVuSans-30"/>
      <use x="279.6875" xlink:href="#DejaVuSans-28"/>
      <use x="318.701172" xlink:href="#DejaVuSans-61"/>
      <use x="379.980469" xlink:href="#DejaVuSans-52"/>
      <use x="449.353516" xlink:href="#DejaVuSans-54"/>
      <use x="510.4375" xlink:href="#DejaVuSans-31"/>
      <use x="574.060547" xlink:href="#DejaVuSans-2f"/>
      <use x="607.751953" xlink:href="#DejaVuSans-61"/>
      <use x="669.03125" xlink:href="#DejaVuSans-52"/>
      <use x="738.404297" xlink:href="#DejaVuSans-54"/>
      <use x="799.488281" xlink:href="#DejaVuSans-30"/>
      <use x="863.111328" xlink:href="#DejaVuSans-29"/>
      <use x="902.125" xlink:href="#DejaVuSans-20"/>
      <use x="933.912109" xlink:href="#DejaVuSans-6f"/>
      <use x="995.09375" xlink:href="#DejaVuSans-72"/>
      <use x="1036.207031" xlink:href="#DejaVuSans-20"/>
      <use x="1067.994141" xlink:href="#DejaVuSans-7e"/>
      <use x="1151.783203" xlink:href="#DejaVuSans-23"/>
      <use x="1235.572266" xlink:href="#DejaVuSans-73"/>
      <use x="1287.671875" xlink:href="#DejaVuSans-75"/>
      <use x="1351.050781" xlink:href="#DejaVuSans-63"/>
      <use x="1406.03125" xlink:href="#DejaVuSans-63"/>
     </g>
    </g>
   </g>
   <g id="line2d_51">
    <path clip-path="url(#p1ab435c3d4)" d="M 231.360591 182.52375 
L 237.853682 182.52375 
L 244.346773 185.183318 
L 250.839864 185.530482 
L 257.332955 185.127209 
L 263.826045 185.080966 
L 270.319136 183.956069 
L 276.812227 183.895432 
L 283.305318 183.881066 
L 289.798409 184.305625 
L 296.2915 183.819978 
L 302.784591 183.740854 
L 309.277682 181.533349 
L 315.770773 181.374631 
L 322.263864 182.52375 
L 328.756955 182.52375 
L 335.250045 182.318015 
L 341.743136 182.327366 
L 348.236227 181.939899 
L 354.729318 183.64358 
L 361.222409 183.257599 
L 367.7155 183.066071 
L 374.208591 182.700817 
L 380.701682 183.205489 
L 387.194773 185.873365 
L 393.687864 186.604141 
L 400.180955 186.502889 
L 406.674045 186.342873 
L 413.167136 186.15778 
L 419.660227 186.0001 
L 432.646409 185.530482 
L 445.632591 184.871592 
L 465.111864 184.847905 
L 497.577318 185.54929 
L 556.015136 185.826686 
L 581.9875 186.648347 
" style="fill:none;stroke:#00bfbf;stroke-dasharray:5.55,2.4;stroke-dashoffset:0;stroke-width:1.5;"/>
   </g>
   <g id="line2d_52">
    <defs>
     <path d="M -6 0 
L 6 0 
M 0 6 
L 0 -6 
" id="m190f068cda" style="stroke:#00bfbf;"/>
    </defs>
    <g clip-path="url(#p1ab435c3d4)">
     <use style="fill:none;stroke:#00bfbf;" x="250.839864" xlink:href="#m190f068cda" y="185.530482"/>
     <use style="fill:none;stroke:#00bfbf;" x="276.812227" xlink:href="#m190f068cda" y="183.895432"/>
     <use style="fill:none;stroke:#00bfbf;" x="302.784591" xlink:href="#m190f068cda" y="183.740854"/>
     <use style="fill:none;stroke:#00bfbf;" x="315.770773" xlink:href="#m190f068cda" y="181.374631"/>
     <use style="fill:none;stroke:#00bfbf;" x="348.236227" xlink:href="#m190f068cda" y="181.939899"/>
     <use style="fill:none;stroke:#00bfbf;" x="367.7155" xlink:href="#m190f068cda" y="183.066071"/>
     <use style="fill:none;stroke:#00bfbf;" x="380.701682" xlink:href="#m190f068cda" y="183.205489"/>
     <use style="fill:none;stroke:#00bfbf;" x="406.674045" xlink:href="#m190f068cda" y="186.342873"/>
     <use style="fill:none;stroke:#00bfbf;" x="432.646409" xlink:href="#m190f068cda" y="185.530482"/>
     <use style="fill:none;stroke:#00bfbf;" x="465.111864" xlink:href="#m190f068cda" y="184.847905"/>
     <use style="fill:none;stroke:#00bfbf;" x="497.577318" xlink:href="#m190f068cda" y="185.54929"/>
     <use style="fill:none;stroke:#00bfbf;" x="556.015136" xlink:href="#m190f068cda" y="185.826686"/>
     <use style="fill:none;stroke:#00bfbf;" x="581.9875" xlink:href="#m190f068cda" y="186.648347"/>
    </g>
   </g>
   <g id="line2d_53"/>
   <g id="line2d_54">
    <path clip-path="url(#p1ab435c3d4)" d="M 231.360591 182.52375 
L 237.853682 182.52375 
L 244.346773 185.183318 
L 250.839864 185.530482 
L 257.332955 185.127209 
L 263.826045 185.080966 
L 270.319136 183.956069 
L 276.812227 183.895432 
L 283.305318 183.881066 
L 289.798409 184.305625 
L 296.2915 183.819978 
L 302.784591 183.740854 
L 309.277682 181.533349 
L 315.770773 181.374631 
L 322.263864 182.52375 
L 328.756955 182.52375 
L 335.250045 182.318015 
L 341.743136 182.327366 
L 348.236227 181.939899 
L 354.729318 183.64358 
L 361.222409 183.257599 
L 367.7155 183.066071 
L 374.208591 182.700817 
L 380.701682 183.205489 
L 387.194773 185.873365 
L 393.687864 186.604141 
L 400.180955 186.502889 
L 406.674045 186.342873 
L 413.167136 186.15778 
L 419.660227 186.0001 
L 432.646409 185.530482 
L 445.632591 184.871592 
L 465.111864 184.847905 
L 497.577318 185.54929 
L 556.015136 185.826686 
L 581.9875 186.648347 
" style="fill:none;stroke:#00bfbf;stroke-linecap:square;stroke-width:1.5;"/>
   </g>
   <g id="line2d_55">
    <g clip-path="url(#p1ab435c3d4)">
     <use style="fill:none;stroke:#00bfbf;" x="244.346773" xlink:href="#m190f068cda" y="185.183318"/>
     <use style="fill:none;stroke:#00bfbf;" x="276.812227" xlink:href="#m190f068cda" y="183.895432"/>
     <use style="fill:none;stroke:#00bfbf;" x="296.2915" xlink:href="#m190f068cda" y="183.819978"/>
     <use style="fill:none;stroke:#00bfbf;" x="315.770773" xlink:href="#m190f068cda" y="181.374631"/>
     <use style="fill:none;stroke:#00bfbf;" x="341.743136" xlink:href="#m190f068cda" y="182.327366"/>
     <use style="fill:none;stroke:#00bfbf;" x="367.7155" xlink:href="#m190f068cda" y="183.066071"/>
     <use style="fill:none;stroke:#00bfbf;" x="380.701682" xlink:href="#m190f068cda" y="183.205489"/>
     <use style="fill:none;stroke:#00bfbf;" x="393.687864" xlink:href="#m190f068cda" y="186.604141"/>
     <use style="fill:none;stroke:#00bfbf;" x="432.646409" xlink:href="#m190f068cda" y="185.530482"/>
     <use style="fill:none;stroke:#00bfbf;" x="465.111864" xlink:href="#m190f068cda" y="184.847905"/>
     <use style="fill:none;stroke:#00bfbf;" x="497.577318" xlink:href="#m190f068cda" y="185.54929"/>
     <use style="fill:none;stroke:#00bfbf;" x="556.015136" xlink:href="#m190f068cda" y="185.826686"/>
     <use style="fill:none;stroke:#00bfbf;" x="581.9875" xlink:href="#m190f068cda" y="186.648347"/>
    </g>
   </g>
   <g id="line2d_56">
    <path clip-path="url(#p1ab435c3d4)" d="M 231.360591 182.52375 
L 237.853682 182.52375 
L 244.346773 179.966534 
L 250.839864 180.249312 
L 257.332955 180.504488 
L 263.826045 180.577279 
L 270.319136 180.407196 
L 276.812227 180.566992 
L 283.305318 181.275884 
L 289.798409 192.479151 
L 296.2915 193.724688 
L 302.784591 192.60116 
L 309.277682 193.773726 
L 315.770773 193.222639 
L 322.263864 193.940009 
L 328.756955 194.586058 
L 335.250045 193.561549 
L 341.743136 194.668129 
L 348.236227 194.641274 
L 354.729318 192.031379 
L 361.222409 192.247412 
L 367.7155 195.491743 
L 374.208591 195.423645 
L 380.701682 193.165204 
L 387.194773 194.155224 
L 393.687864 192.56782 
L 400.180955 192.645431 
L 406.674045 191.550947 
L 413.167136 189.562645 
L 419.660227 188.636418 
L 426.153318 188.395126 
L 432.646409 188.096965 
L 439.1395 187.981637 
L 445.632591 187.174407 
L 452.125682 186.251809 
L 458.618773 185.972736 
L 465.111864 186.500843 
L 471.604955 186.991493 
L 478.098045 187.333534 
L 484.591136 187.700008 
L 491.084227 188.196824 
L 497.577318 188.602477 
L 504.070409 188.754087 
L 510.5635 188.476103 
L 517.056591 188.819688 
L 523.549682 188.872357 
L 530.042773 188.850529 
L 536.535864 189.052452 
L 543.028955 187.589719 
L 549.522045 187.798055 
L 556.015136 188.476714 
L 562.508227 188.815832 
L 569.001318 189.979168 
L 575.494409 192.627904 
L 581.9875 195.550939 
" style="fill:none;stroke:#008000;stroke-dasharray:5.55,2.4;stroke-dashoffset:0;stroke-width:1.5;"/>
   </g>
   <g id="line2d_57">
    <defs>
     <path d="M -0 6 
L 6 -6 
L -6 -6 
z
" id="m71b34527de" style="stroke:#008000;stroke-linejoin:miter;"/>
    </defs>
    <g clip-path="url(#p1ab435c3d4)">
     <use style="fill:none;stroke:#008000;stroke-linejoin:miter;" x="276.812227" xlink:href="#m71b34527de" y="180.566992"/>
     <use style="fill:none;stroke:#008000;stroke-linejoin:miter;" x="283.305318" xlink:href="#m71b34527de" y="181.275884"/>
     <use style="fill:none;stroke:#008000;stroke-linejoin:miter;" x="289.798409" xlink:href="#m71b34527de" y="192.479151"/>
     <use style="fill:none;stroke:#008000;stroke-linejoin:miter;" x="335.250045" xlink:href="#m71b34527de" y="193.561549"/>
     <use style="fill:none;stroke:#008000;stroke-linejoin:miter;" x="354.729318" xlink:href="#m71b34527de" y="192.031379"/>
     <use style="fill:none;stroke:#008000;stroke-linejoin:miter;" x="380.701682" xlink:href="#m71b34527de" y="193.165204"/>
     <use style="fill:none;stroke:#008000;stroke-linejoin:miter;" x="406.674045" xlink:href="#m71b34527de" y="191.550947"/>
     <use style="fill:none;stroke:#008000;stroke-linejoin:miter;" x="439.1395" xlink:href="#m71b34527de" y="187.981637"/>
     <use style="fill:none;stroke:#008000;stroke-linejoin:miter;" x="491.084227" xlink:href="#m71b34527de" y="188.196824"/>
     <use style="fill:none;stroke:#008000;stroke-linejoin:miter;" x="530.042773" xlink:href="#m71b34527de" y="188.850529"/>
     <use style="fill:none;stroke:#008000;stroke-linejoin:miter;" x="569.001318" xlink:href="#m71b34527de" y="189.979168"/>
     <use style="fill:none;stroke:#008000;stroke-linejoin:miter;" x="575.494409" xlink:href="#m71b34527de" y="192.627904"/>
     <use style="fill:none;stroke:#008000;stroke-linejoin:miter;" x="581.9875" xlink:href="#m71b34527de" y="195.550939"/>
    </g>
   </g>
   <g id="line2d_58"/>
   <g id="line2d_59">
    <path clip-path="url(#p1ab435c3d4)" d="M 231.360591 182.52375 
L 237.853682 182.52375 
L 244.346773 179.966534 
L 250.839864 180.249312 
L 257.332955 180.504488 
L 263.826045 180.577279 
L 270.319136 180.407196 
L 276.812227 180.566992 
L 283.305318 181.275884 
L 289.798409 192.479151 
L 296.2915 193.724688 
L 302.784591 192.60116 
L 309.277682 193.773726 
L 315.770773 193.222639 
L 322.263864 193.940009 
L 328.756955 194.586058 
L 335.250045 193.561549 
L 341.743136 194.668129 
L 348.236227 194.641274 
L 354.729318 192.031379 
L 361.222409 192.247412 
L 367.7155 195.491743 
L 374.208591 195.423645 
L 380.701682 193.165204 
L 387.194773 194.155224 
L 393.687864 192.56782 
L 400.180955 192.645431 
L 406.674045 191.550947 
L 413.167136 189.562645 
L 419.660227 188.636418 
L 426.153318 188.395126 
L 432.646409 188.096965 
L 439.1395 187.981637 
L 445.632591 187.174407 
L 452.125682 186.251809 
L 458.618773 185.972736 
L 465.111864 186.500843 
L 471.604955 186.991493 
L 478.098045 187.333534 
L 484.591136 187.700008 
L 491.084227 188.196824 
L 497.577318 188.602477 
L 504.070409 188.754087 
L 510.5635 188.476103 
L 517.056591 188.819688 
L 523.549682 188.872357 
L 530.042773 188.850529 
L 536.535864 189.052452 
L 543.028955 187.589719 
L 549.522045 187.798055 
L 556.015136 188.476714 
L 562.508227 188.815832 
L 569.001318 189.979168 
L 575.494409 192.627904 
L 581.9875 195.550939 
" style="fill:none;stroke:#008000;stroke-linecap:square;stroke-width:1.5;"/>
   </g>
   <g id="line2d_60">
    <g clip-path="url(#p1ab435c3d4)">
     <use style="fill:none;stroke:#008000;stroke-linejoin:miter;" x="270.319136" xlink:href="#m71b34527de" y="180.407196"/>
     <use style="fill:none;stroke:#008000;stroke-linejoin:miter;" x="283.305318" xlink:href="#m71b34527de" y="181.275884"/>
     <use style="fill:none;stroke:#008000;stroke-linejoin:miter;" x="289.798409" xlink:href="#m71b34527de" y="192.479151"/>
     <use style="fill:none;stroke:#008000;stroke-linejoin:miter;" x="322.263864" xlink:href="#m71b34527de" y="193.940009"/>
     <use style="fill:none;stroke:#008000;stroke-linejoin:miter;" x="348.236227" xlink:href="#m71b34527de" y="194.641274"/>
     <use style="fill:none;stroke:#008000;stroke-linejoin:miter;" x="374.208591" xlink:href="#m71b34527de" y="195.423645"/>
     <use style="fill:none;stroke:#008000;stroke-linejoin:miter;" x="393.687864" xlink:href="#m71b34527de" y="192.56782"/>
     <use style="fill:none;stroke:#008000;stroke-linejoin:miter;" x="432.646409" xlink:href="#m71b34527de" y="188.096965"/>
     <use style="fill:none;stroke:#008000;stroke-linejoin:miter;" x="471.604955" xlink:href="#m71b34527de" y="186.991493"/>
     <use style="fill:none;stroke:#008000;stroke-linejoin:miter;" x="517.056591" xlink:href="#m71b34527de" y="188.819688"/>
     <use style="fill:none;stroke:#008000;stroke-linejoin:miter;" x="562.508227" xlink:href="#m71b34527de" y="188.815832"/>
     <use style="fill:none;stroke:#008000;stroke-linejoin:miter;" x="575.494409" xlink:href="#m71b34527de" y="192.627904"/>
     <use style="fill:none;stroke:#008000;stroke-linejoin:miter;" x="581.9875" xlink:href="#m71b34527de" y="195.550939"/>
    </g>
   </g>
   <g id="line2d_61">
    <path clip-path="url(#p1ab435c3d4)" d="M 231.360591 182.52375 
L 237.853682 182.52375 
L 244.346773 182.52375 
L 250.839864 180.513883 
L 257.332955 181.327706 
L 263.826045 181.803661 
L 270.319136 182.076033 
L 276.812227 181.757356 
L 283.305318 182.701546 
L 289.798409 183.351445 
L 296.2915 185.119845 
L 302.784591 185.165245 
L 309.277682 184.118722 
L 315.770773 186.39339 
L 322.263864 187.516814 
L 328.756955 187.329181 
L 335.250045 189.504081 
L 341.743136 187.552098 
L 348.236227 188.207799 
L 354.729318 187.032199 
L 361.222409 186.592331 
L 367.7155 187.584516 
L 374.208591 187.393388 
L 380.701682 186.033949 
L 387.194773 186.096143 
L 393.687864 186.113631 
L 400.180955 185.770977 
L 406.674045 185.271665 
L 413.167136 184.760364 
L 419.660227 184.873939 
L 426.153318 184.397215 
L 432.646409 188.733388 
L 439.1395 183.990182 
L 445.632591 184.017802 
L 452.125682 184.339044 
L 458.618773 187.222809 
L 465.111864 183.754147 
L 471.604955 184.466236 
L 478.098045 186.267055 
L 484.591136 190.474705 
L 491.084227 190.536679 
L 497.577318 190.566604 
L 504.070409 190.377548 
L 510.5635 190.425266 
L 517.056591 190.587964 
L 523.549682 190.727847 
L 530.042773 190.906089 
L 536.535864 191.018755 
L 543.028955 191.164192 
L 549.522045 191.485637 
L 556.015136 191.674248 
L 562.508227 192.086207 
L 569.001318 192.354789 
L 575.494409 192.871321 
L 581.9875 193.307232 
" style="fill:none;stroke:#0000ff;stroke-dasharray:5.55,2.4;stroke-dashoffset:0;stroke-width:1.5;"/>
   </g>
   <g id="line2d_62">
    <defs>
     <path d="M 0 -6 
L -1.347084 -1.854102 
L -5.706339 -1.854102 
L -2.179628 0.708204 
L -3.526712 4.854102 
L -0 2.291796 
L 3.526712 4.854102 
L 2.179628 0.708204 
L 5.706339 -1.854102 
L 1.347084 -1.854102 
z
" id="mb323c4f81b" style="stroke:#0000ff;stroke-linejoin:bevel;"/>
    </defs>
    <g clip-path="url(#p1ab435c3d4)">
     <use style="fill:none;stroke:#0000ff;stroke-linejoin:bevel;" x="276.812227" xlink:href="#mb323c4f81b" y="181.757356"/>
     <use style="fill:none;stroke:#0000ff;stroke-linejoin:bevel;" x="302.784591" xlink:href="#mb323c4f81b" y="185.165245"/>
     <use style="fill:none;stroke:#0000ff;stroke-linejoin:bevel;" x="322.263864" xlink:href="#mb323c4f81b" y="187.516814"/>
     <use style="fill:none;stroke:#0000ff;stroke-linejoin:bevel;" x="348.236227" xlink:href="#mb323c4f81b" y="188.207799"/>
     <use style="fill:none;stroke:#0000ff;stroke-linejoin:bevel;" x="380.701682" xlink:href="#mb323c4f81b" y="186.033949"/>
     <use style="fill:none;stroke:#0000ff;stroke-linejoin:bevel;" x="419.660227" xlink:href="#mb323c4f81b" y="184.873939"/>
     <use style="fill:none;stroke:#0000ff;stroke-linejoin:bevel;" x="432.646409" xlink:href="#mb323c4f81b" y="188.733388"/>
     <use style="fill:none;stroke:#0000ff;stroke-linejoin:bevel;" x="452.125682" xlink:href="#mb323c4f81b" y="184.339044"/>
     <use style="fill:none;stroke:#0000ff;stroke-linejoin:bevel;" x="465.111864" xlink:href="#mb323c4f81b" y="183.754147"/>
     <use style="fill:none;stroke:#0000ff;stroke-linejoin:bevel;" x="484.591136" xlink:href="#mb323c4f81b" y="190.474705"/>
     <use style="fill:none;stroke:#0000ff;stroke-linejoin:bevel;" x="549.522045" xlink:href="#mb323c4f81b" y="191.485637"/>
     <use style="fill:none;stroke:#0000ff;stroke-linejoin:bevel;" x="575.494409" xlink:href="#mb323c4f81b" y="192.871321"/>
     <use style="fill:none;stroke:#0000ff;stroke-linejoin:bevel;" x="581.9875" xlink:href="#mb323c4f81b" y="193.307232"/>
    </g>
   </g>
   <g id="line2d_63"/>
   <g id="line2d_64">
    <path clip-path="url(#p1ab435c3d4)" d="M 231.360591 182.52375 
L 237.853682 182.52375 
L 244.346773 182.52375 
L 250.839864 180.513883 
L 257.332955 181.327706 
L 263.826045 181.803661 
L 270.319136 182.076033 
L 276.812227 181.757356 
L 283.305318 182.701546 
L 289.798409 183.351445 
L 296.2915 185.119845 
L 302.784591 185.165245 
L 309.277682 184.118722 
L 315.770773 186.39339 
L 322.263864 187.516814 
L 328.756955 187.329181 
L 335.250045 189.504081 
L 341.743136 187.552098 
L 348.236227 188.207799 
L 354.729318 187.032199 
L 361.222409 186.592331 
L 367.7155 187.584516 
L 374.208591 187.393388 
L 380.701682 186.033949 
L 387.194773 186.096143 
L 393.687864 186.113631 
L 400.180955 185.770977 
L 406.674045 185.271665 
L 413.167136 184.760364 
L 419.660227 184.873939 
L 426.153318 184.397215 
L 432.646409 188.733388 
L 439.1395 183.990182 
L 445.632591 184.017802 
L 452.125682 184.339044 
L 458.618773 187.222809 
L 465.111864 183.754147 
L 471.604955 184.466236 
L 478.098045 186.267055 
L 484.591136 190.474705 
L 491.084227 190.536679 
L 497.577318 190.566604 
L 504.070409 190.377548 
L 510.5635 190.425266 
L 517.056591 190.587964 
L 523.549682 190.727847 
L 530.042773 190.906089 
L 536.535864 191.018755 
L 543.028955 191.164192 
L 549.522045 191.485637 
L 556.015136 191.674248 
L 562.508227 192.086207 
L 569.001318 192.354789 
L 575.494409 192.871321 
L 581.9875 193.307232 
" style="fill:none;stroke:#0000ff;stroke-linecap:square;stroke-width:1.5;"/>
   </g>
   <g id="line2d_65">
    <g clip-path="url(#p1ab435c3d4)">
     <use style="fill:none;stroke:#0000ff;stroke-linejoin:bevel;" x="276.812227" xlink:href="#mb323c4f81b" y="181.757356"/>
     <use style="fill:none;stroke:#0000ff;stroke-linejoin:bevel;" x="309.277682" xlink:href="#mb323c4f81b" y="184.118722"/>
     <use style="fill:none;stroke:#0000ff;stroke-linejoin:bevel;" x="328.756955" xlink:href="#mb323c4f81b" y="187.329181"/>
     <use style="fill:none;stroke:#0000ff;stroke-linejoin:bevel;" x="361.222409" xlink:href="#mb323c4f81b" y="186.592331"/>
     <use style="fill:none;stroke:#0000ff;stroke-linejoin:bevel;" x="393.687864" xlink:href="#mb323c4f81b" y="186.113631"/>
     <use style="fill:none;stroke:#0000ff;stroke-linejoin:bevel;" x="426.153318" xlink:href="#mb323c4f81b" y="184.397215"/>
     <use style="fill:none;stroke:#0000ff;stroke-linejoin:bevel;" x="432.646409" xlink:href="#mb323c4f81b" y="188.733388"/>
     <use style="fill:none;stroke:#0000ff;stroke-linejoin:bevel;" x="452.125682" xlink:href="#mb323c4f81b" y="184.339044"/>
     <use style="fill:none;stroke:#0000ff;stroke-linejoin:bevel;" x="471.604955" xlink:href="#mb323c4f81b" y="184.466236"/>
     <use style="fill:none;stroke:#0000ff;stroke-linejoin:bevel;" x="510.5635" xlink:href="#mb323c4f81b" y="190.425266"/>
     <use style="fill:none;stroke:#0000ff;stroke-linejoin:bevel;" x="562.508227" xlink:href="#mb323c4f81b" y="192.086207"/>
     <use style="fill:none;stroke:#0000ff;stroke-linejoin:bevel;" x="575.494409" xlink:href="#mb323c4f81b" y="192.871321"/>
     <use style="fill:none;stroke:#0000ff;stroke-linejoin:bevel;" x="581.9875" xlink:href="#mb323c4f81b" y="193.307232"/>
    </g>
   </g>
   <g id="line2d_66">
    <path clip-path="url(#p1ab435c3d4)" d="M 224.8675 182.52375 
L 237.853682 182.52375 
L 244.346773 183.660772 
L 250.839864 182.394396 
L 257.332955 183.415742 
L 263.826045 185.613095 
L 270.319136 185.199665 
L 276.812227 185.176408 
L 283.305318 185.387857 
L 289.798409 185.866552 
L 296.2915 186.222836 
L 302.784591 186.074283 
L 309.277682 185.337262 
L 315.770773 187.97599 
L 322.263864 190.686696 
L 328.756955 191.035193 
L 335.250045 192.025573 
L 341.743136 191.938377 
L 348.236227 191.397211 
L 354.729318 192.862718 
L 361.222409 193.079866 
L 367.7155 191.396164 
L 374.208591 189.990061 
L 380.701682 187.015141 
L 387.194773 185.527425 
L 393.687864 185.77247 
L 400.180955 185.136333 
L 406.674045 185.009405 
L 413.167136 184.648505 
L 419.660227 184.96903 
L 426.153318 185.536288 
L 432.646409 183.772347 
L 439.1395 183.784813 
L 445.632591 184.771374 
L 452.125682 187.613126 
L 458.618773 195.42242 
L 465.111864 202.333992 
L 471.604955 204.538619 
L 478.098045 208.471955 
L 484.591136 212.39356 
L 491.084227 215.999374 
L 497.577318 219.833678 
L 504.070409 226.948279 
L 510.5635 229.745661 
L 517.056591 232.996351 
L 523.549682 240.250305 
L 530.042773 241.9093 
L 536.535864 247.175465 
L 543.028955 248.573691 
L 549.522045 253.03453 
L 556.015136 253.307518 
L 562.508227 258.318045 
L 569.001318 258.838475 
L 575.494409 259.32457 
L 581.9875 259.830701 
" style="fill:none;stroke:#000000;stroke-dasharray:5.55,2.4;stroke-dashoffset:0;stroke-width:1.5;"/>
   </g>
   <g id="line2d_67">
    <defs>
     <path d="M 0 6 
C 1.591219 6 3.117479 5.367802 4.242641 4.242641 
C 5.367802 3.117479 6 1.591219 6 0 
C 6 -1.591219 5.367802 -3.117479 4.242641 -4.242641 
C 3.117479 -5.367802 1.591219 -6 0 -6 
C -1.591219 -6 -3.117479 -5.367802 -4.242641 -4.242641 
C -5.367802 -3.117479 -6 -1.591219 -6 0 
C -6 1.591219 -5.367802 3.117479 -4.242641 4.242641 
C -3.117479 5.367802 -1.591219 6 0 6 
z
" id="med6a17c7d4" style="stroke:#000000;"/>
    </defs>
    <g clip-path="url(#p1ab435c3d4)">
     <use style="fill:none;stroke:#000000;" x="250.839864" xlink:href="#med6a17c7d4" y="182.394396"/>
     <use style="fill:none;stroke:#000000;" x="302.784591" xlink:href="#med6a17c7d4" y="186.074283"/>
     <use style="fill:none;stroke:#000000;" x="322.263864" xlink:href="#med6a17c7d4" y="190.686696"/>
     <use style="fill:none;stroke:#000000;" x="361.222409" xlink:href="#med6a17c7d4" y="193.079866"/>
     <use style="fill:none;stroke:#000000;" x="413.167136" xlink:href="#med6a17c7d4" y="184.648505"/>
     <use style="fill:none;stroke:#000000;" x="439.1395" xlink:href="#med6a17c7d4" y="183.784813"/>
     <use style="fill:none;stroke:#000000;" x="452.125682" xlink:href="#med6a17c7d4" y="187.613126"/>
     <use style="fill:none;stroke:#000000;" x="478.098045" xlink:href="#med6a17c7d4" y="208.471955"/>
     <use style="fill:none;stroke:#000000;" x="497.577318" xlink:href="#med6a17c7d4" y="219.833678"/>
     <use style="fill:none;stroke:#000000;" x="510.5635" xlink:href="#med6a17c7d4" y="229.745661"/>
     <use style="fill:none;stroke:#000000;" x="543.028955" xlink:href="#med6a17c7d4" y="248.573691"/>
     <use style="fill:none;stroke:#000000;" x="556.015136" xlink:href="#med6a17c7d4" y="253.307518"/>
     <use style="fill:none;stroke:#000000;" x="581.9875" xlink:href="#med6a17c7d4" y="259.830701"/>
    </g>
   </g>
   <g id="line2d_68"/>
   <g id="line2d_69">
    <path clip-path="url(#p1ab435c3d4)" d="M 224.8675 182.52375 
L 237.853682 182.52375 
L 244.346773 183.660772 
L 250.839864 182.394396 
L 257.332955 183.415742 
L 263.826045 185.613095 
L 270.319136 185.199665 
L 276.812227 185.176408 
L 283.305318 185.387857 
L 289.798409 185.866552 
L 296.2915 186.222836 
L 302.784591 186.074283 
L 309.277682 185.337262 
L 315.770773 187.97599 
L 322.263864 190.686696 
L 328.756955 191.035193 
L 335.250045 192.025573 
L 341.743136 191.938377 
L 348.236227 191.397211 
L 354.729318 192.862718 
L 361.222409 193.079866 
L 367.7155 191.396164 
L 374.208591 189.990061 
L 380.701682 187.015141 
L 387.194773 185.527425 
L 393.687864 185.77247 
L 400.180955 185.136333 
L 406.674045 185.009405 
L 413.167136 184.648505 
L 419.660227 184.96903 
L 426.153318 185.536288 
L 432.646409 183.772347 
L 439.1395 183.784813 
L 445.632591 184.771374 
L 452.125682 187.613126 
L 458.618773 195.42242 
L 465.111864 202.333992 
L 471.604955 204.538619 
L 478.098045 208.471955 
L 484.591136 212.39356 
L 491.084227 215.999374 
L 497.577318 219.833678 
L 504.070409 226.948279 
L 510.5635 229.745661 
L 517.056591 232.996351 
L 523.549682 240.250305 
L 530.042773 241.9093 
L 536.535864 247.175465 
L 543.028955 248.573691 
L 549.522045 253.03453 
L 556.015136 253.307518 
L 562.508227 258.318045 
L 569.001318 258.838475 
L 575.494409 259.32457 
L 581.9875 259.830701 
" style="fill:none;stroke:#000000;stroke-linecap:square;stroke-width:1.5;"/>
   </g>
   <g id="line2d_70">
    <g clip-path="url(#p1ab435c3d4)">
     <use style="fill:none;stroke:#000000;" x="263.826045" xlink:href="#med6a17c7d4" y="185.613095"/>
     <use style="fill:none;stroke:#000000;" x="309.277682" xlink:href="#med6a17c7d4" y="185.337262"/>
     <use style="fill:none;stroke:#000000;" x="354.729318" xlink:href="#med6a17c7d4" y="192.862718"/>
     <use style="fill:none;stroke:#000000;" x="387.194773" xlink:href="#med6a17c7d4" y="185.527425"/>
     <use style="fill:none;stroke:#000000;" x="426.153318" xlink:href="#med6a17c7d4" y="185.536288"/>
     <use style="fill:none;stroke:#000000;" x="452.125682" xlink:href="#med6a17c7d4" y="187.613126"/>
     <use style="fill:none;stroke:#000000;" x="465.111864" xlink:href="#med6a17c7d4" y="202.333992"/>
     <use style="fill:none;stroke:#000000;" x="491.084227" xlink:href="#med6a17c7d4" y="215.999374"/>
     <use style="fill:none;stroke:#000000;" x="510.5635" xlink:href="#med6a17c7d4" y="229.745661"/>
     <use style="fill:none;stroke:#000000;" x="530.042773" xlink:href="#med6a17c7d4" y="241.9093"/>
     <use style="fill:none;stroke:#000000;" x="549.522045" xlink:href="#med6a17c7d4" y="253.03453"/>
     <use style="fill:none;stroke:#000000;" x="575.494409" xlink:href="#med6a17c7d4" y="259.32457"/>
     <use style="fill:none;stroke:#000000;" x="581.9875" xlink:href="#med6a17c7d4" y="259.830701"/>
    </g>
   </g>
   <g id="line2d_71">
    <path clip-path="url(#p1ab435c3d4)" d="M 224.8675 182.52375 
L 231.360591 182.52375 
L 237.853682 182.52375 
L 244.346773 182.52375 
L 250.839864 183.508106 
L 257.332955 183.537586 
L 263.826045 183.115149 
L 270.319136 183.111784 
L 276.812227 183.749487 
L 283.305318 183.721226 
L 289.798409 183.065374 
L 296.2915 182.87327 
L 302.784591 183.416036 
L 309.277682 184.107664 
L 315.770773 183.826771 
L 322.263864 182.378362 
L 328.756955 180.634792 
L 335.250045 180.256243 
L 341.743136 179.382822 
L 348.236227 179.820728 
L 354.729318 180.204183 
L 361.222409 181.830544 
L 367.7155 182.929324 
L 374.208591 183.40525 
L 380.701682 183.398701 
L 387.194773 183.679998 
L 393.687864 183.60777 
L 400.180955 183.953245 
L 406.674045 184.206164 
L 413.167136 185.29755 
L 419.660227 187.575478 
L 426.153318 190.440128 
L 432.646409 195.254745 
L 439.1395 199.718124 
L 445.632591 205.476582 
L 452.125682 208.549771 
L 458.618773 208.709558 
L 465.111864 207.141574 
L 471.604955 212.371725 
L 478.098045 216.753325 
L 484.591136 224.328557 
L 491.084227 234.328698 
L 497.577318 241.222677 
L 504.070409 239.391346 
L 510.5635 258.645946 
L 517.056591 276.948397 
L 523.549682 289.570885 
L 530.042773 289.781147 
L 536.535864 290.002737 
L 543.028955 290.21078 
L 549.522045 290.432023 
L 556.015136 290.660638 
L 562.508227 290.886489 
L 569.001318 291.129534 
L 575.494409 291.375167 
L 581.9875 309.094182 
" style="fill:none;stroke:#ff0000;stroke-dasharray:5.55,2.4;stroke-dashoffset:0;stroke-width:1.5;"/>
   </g>
   <g id="line2d_72">
    <defs>
     <path d="M -6 6 
L 6 6 
L 6 -6 
L -6 -6 
z
" id="mb67f7d441c" style="stroke:#ff0000;stroke-linejoin:miter;"/>
    </defs>
    <g clip-path="url(#p1ab435c3d4)">
     <use style="fill:none;stroke:#ff0000;stroke-linejoin:miter;" x="276.812227" xlink:href="#mb67f7d441c" y="183.749487"/>
     <use style="fill:none;stroke:#ff0000;stroke-linejoin:miter;" x="315.770773" xlink:href="#mb67f7d441c" y="183.826771"/>
     <use style="fill:none;stroke:#ff0000;stroke-linejoin:miter;" x="367.7155" xlink:href="#mb67f7d441c" y="182.929324"/>
     <use style="fill:none;stroke:#ff0000;stroke-linejoin:miter;" x="413.167136" xlink:href="#mb67f7d441c" y="185.29755"/>
     <use style="fill:none;stroke:#ff0000;stroke-linejoin:miter;" x="432.646409" xlink:href="#mb67f7d441c" y="195.254745"/>
     <use style="fill:none;stroke:#ff0000;stroke-linejoin:miter;" x="458.618773" xlink:href="#mb67f7d441c" y="208.709558"/>
     <use style="fill:none;stroke:#ff0000;stroke-linejoin:miter;" x="478.098045" xlink:href="#mb67f7d441c" y="216.753325"/>
     <use style="fill:none;stroke:#ff0000;stroke-linejoin:miter;" x="497.577318" xlink:href="#mb67f7d441c" y="241.222677"/>
     <use style="fill:none;stroke:#ff0000;stroke-linejoin:miter;" x="504.070409" xlink:href="#mb67f7d441c" y="239.391346"/>
     <use style="fill:none;stroke:#ff0000;stroke-linejoin:miter;" x="517.056591" xlink:href="#mb67f7d441c" y="276.948397"/>
     <use style="fill:none;stroke:#ff0000;stroke-linejoin:miter;" x="549.522045" xlink:href="#mb67f7d441c" y="290.432023"/>
     <use style="fill:none;stroke:#ff0000;stroke-linejoin:miter;" x="575.494409" xlink:href="#mb67f7d441c" y="291.375167"/>
     <use style="fill:none;stroke:#ff0000;stroke-linejoin:miter;" x="581.9875" xlink:href="#mb67f7d441c" y="309.094182"/>
    </g>
   </g>
   <g id="line2d_73"/>
   <g id="line2d_74">
    <path clip-path="url(#p1ab435c3d4)" d="M 224.8675 182.52375 
L 231.360591 182.52375 
L 237.853682 182.52375 
L 244.346773 182.52375 
L 250.839864 183.508106 
L 257.332955 183.537586 
L 263.826045 183.115149 
L 270.319136 183.111784 
L 276.812227 183.749487 
L 283.305318 183.721226 
L 289.798409 183.065374 
L 296.2915 182.87327 
L 302.784591 183.416036 
L 309.277682 184.107664 
L 315.770773 183.826771 
L 322.263864 182.378362 
L 328.756955 180.634792 
L 335.250045 180.256243 
L 341.743136 179.382822 
L 348.236227 179.820728 
L 354.729318 180.204183 
L 361.222409 181.830544 
L 367.7155 182.929324 
L 374.208591 183.40525 
L 380.701682 183.398701 
L 387.194773 183.679998 
L 393.687864 183.60777 
L 400.180955 183.953245 
L 406.674045 184.206164 
L 413.167136 185.29755 
L 419.660227 187.575478 
L 426.153318 190.440128 
L 432.646409 195.254745 
L 439.1395 199.718124 
L 445.632591 205.476582 
L 452.125682 208.549771 
L 458.618773 208.709558 
L 465.111864 207.141574 
L 471.604955 212.371725 
L 478.098045 216.753325 
L 484.591136 224.328557 
L 491.084227 234.328698 
L 497.577318 241.222677 
L 504.070409 239.391346 
L 510.5635 258.645946 
" style="fill:none;stroke:#ff0000;stroke-linecap:square;stroke-width:1.5;"/>
   </g>
   <g id="line2d_75">
    <g clip-path="url(#p1ab435c3d4)">
     <use style="fill:none;stroke:#ff0000;stroke-linejoin:miter;" x="276.812227" xlink:href="#mb67f7d441c" y="183.749487"/>
     <use style="fill:none;stroke:#ff0000;stroke-linejoin:miter;" x="322.263864" xlink:href="#mb67f7d441c" y="182.378362"/>
     <use style="fill:none;stroke:#ff0000;stroke-linejoin:miter;" x="367.7155" xlink:href="#mb67f7d441c" y="182.929324"/>
     <use style="fill:none;stroke:#ff0000;stroke-linejoin:miter;" x="406.674045" xlink:href="#mb67f7d441c" y="184.206164"/>
     <use style="fill:none;stroke:#ff0000;stroke-linejoin:miter;" x="426.153318" xlink:href="#mb67f7d441c" y="190.440128"/>
     <use style="fill:none;stroke:#ff0000;stroke-linejoin:miter;" x="458.618773" xlink:href="#mb67f7d441c" y="208.709558"/>
     <use style="fill:none;stroke:#ff0000;stroke-linejoin:miter;" x="478.098045" xlink:href="#mb67f7d441c" y="216.753325"/>
     <use style="fill:none;stroke:#ff0000;stroke-linejoin:miter;" x="484.591136" xlink:href="#mb67f7d441c" y="224.328557"/>
     <use style="fill:none;stroke:#ff0000;stroke-linejoin:miter;" x="497.577318" xlink:href="#mb67f7d441c" y="241.222677"/>
     <use style="fill:none;stroke:#ff0000;stroke-linejoin:miter;" x="504.070409" xlink:href="#mb67f7d441c" y="239.391346"/>
     <use style="fill:none;stroke:#ff0000;stroke-linejoin:miter;" x="510.5635" xlink:href="#mb67f7d441c" y="258.645946"/>
    </g>
   </g>
   <g id="patch_3">
    <path d="M 224.8675 315.57975 
L 224.8675 49.46775 
" style="fill:none;stroke:#000000;stroke-linecap:square;stroke-linejoin:miter;stroke-width:0.8;"/>
   </g>
   <g id="patch_4">
    <path d="M 581.9875 315.57975 
L 581.9875 49.46775 
" style="fill:none;stroke:#000000;stroke-linecap:square;stroke-linejoin:miter;stroke-width:0.8;"/>
   </g>
   <g id="patch_5">
    <path d="M 224.8675 315.57975 
L 581.9875 315.57975 
" style="fill:none;stroke:#000000;stroke-linecap:square;stroke-linejoin:miter;stroke-width:0.8;"/>
   </g>
   <g id="patch_6">
    <path d="M 224.8675 49.46775 
L 581.9875 49.46775 
" style="fill:none;stroke:#000000;stroke-linecap:square;stroke-linejoin:miter;stroke-width:0.8;"/>
   </g>
   <g id="text_13">
    <!-- 2D -->
    <g transform="translate(581.9875 193.270847)scale(0.24 -0.24)">
     <use xlink:href="#DejaVuSans-32"/>
     <use x="63.623047" xlink:href="#DejaVuSans-44"/>
    </g>
   </g>
   <g id="text_14">
    <!-- 3D -->
    <defs>
     <path d="M 40.578125 39.3125 
Q 47.65625 37.796875 51.625 33 
Q 55.609375 28.21875 55.609375 21.1875 
Q 55.609375 10.40625 48.1875 4.484375 
Q 40.765625 -1.421875 27.09375 -1.421875 
Q 22.515625 -1.421875 17.65625 -0.515625 
Q 12.796875 0.390625 7.625 2.203125 
L 7.625 11.71875 
Q 11.71875 9.328125 16.59375 8.109375 
Q 21.484375 6.890625 26.8125 6.890625 
Q 36.078125 6.890625 40.9375 10.546875 
Q 45.796875 14.203125 45.796875 21.1875 
Q 45.796875 27.640625 41.28125 31.265625 
Q 36.765625 34.90625 28.71875 34.90625 
L 20.21875 34.90625 
L 20.21875 43.015625 
L 29.109375 43.015625 
Q 36.375 43.015625 40.234375 45.921875 
Q 44.09375 48.828125 44.09375 54.296875 
Q 44.09375 59.90625 40.109375 62.90625 
Q 36.140625 65.921875 28.71875 65.921875 
Q 24.65625 65.921875 20.015625 65.03125 
Q 15.375 64.15625 9.8125 62.3125 
L 9.8125 71.09375 
Q 15.4375 72.65625 20.34375 73.4375 
Q 25.25 74.21875 29.59375 74.21875 
Q 40.828125 74.21875 47.359375 69.109375 
Q 53.90625 64.015625 53.90625 55.328125 
Q 53.90625 49.265625 50.4375 45.09375 
Q 46.96875 40.921875 40.578125 39.3125 
z
" id="DejaVuSans-33"/>
    </defs>
    <g transform="translate(581.9875 202.173439)scale(0.24 -0.24)">
     <use xlink:href="#DejaVuSans-33"/>
     <use x="63.623047" xlink:href="#DejaVuSans-44"/>
    </g>
   </g>
   <g id="text_15">
    <!-- 5D -->
    <g transform="translate(581.9875 199.929732)scale(0.24 -0.24)">
     <use xlink:href="#DejaVuSans-35"/>
     <use x="63.623047" xlink:href="#DejaVuSans-44"/>
    </g>
   </g>
   <g id="text_16">
    <!-- 10D -->
    <g transform="translate(581.9875 266.453201)scale(0.24 -0.24)">
     <use xlink:href="#DejaVuSans-31"/>
     <use x="63.623047" xlink:href="#DejaVuSans-30"/>
     <use x="127.246094" xlink:href="#DejaVuSans-44"/>
    </g>
   </g>
   <g id="text_17">
    <!-- 20D -->
    <g transform="translate(581.9875 315.716682)scale(0.24 -0.24)">
     <use xlink:href="#DejaVuSans-32"/>
     <use x="63.623047" xlink:href="#DejaVuSans-30"/>
     <use x="127.246094" xlink:href="#DejaVuSans-44"/>
    </g>
   </g>
   <g id="text_18">
    <!-- v2.0.361 -->
    <defs>
     <path d="M 2.984375 54.6875 
L 12.5 54.6875 
L 29.59375 8.796875 
L 46.6875 54.6875 
L 56.203125 54.6875 
L 35.6875 0 
L 23.484375 0 
z
" id="DejaVuSans-76"/>
     <path d="M 33.015625 40.375 
Q 26.375 40.375 22.484375 35.828125 
Q 18.609375 31.296875 18.609375 23.390625 
Q 18.609375 15.53125 22.484375 10.953125 
Q 26.375 6.390625 33.015625 6.390625 
Q 39.65625 6.390625 43.53125 10.953125 
Q 47.40625 15.53125 47.40625 23.390625 
Q 47.40625 31.296875 43.53125 35.828125 
Q 39.65625 40.375 33.015625 40.375 
z
M 52.59375 71.296875 
L 52.59375 62.3125 
Q 48.875 64.0625 45.09375 64.984375 
Q 41.3125 65.921875 37.59375 65.921875 
Q 27.828125 65.921875 22.671875 59.328125 
Q 17.53125 52.734375 16.796875 39.40625 
Q 19.671875 43.65625 24.015625 45.921875 
Q 28.375 48.1875 33.59375 48.1875 
Q 44.578125 48.1875 50.953125 41.515625 
Q 57.328125 34.859375 57.328125 23.390625 
Q 57.328125 12.15625 50.6875 5.359375 
Q 44.046875 -1.421875 33.015625 -1.421875 
Q 20.359375 -1.421875 13.671875 8.265625 
Q 6.984375 17.96875 6.984375 36.375 
Q 6.984375 53.65625 15.1875 63.9375 
Q 23.390625 74.21875 37.203125 74.21875 
Q 40.921875 74.21875 44.703125 73.484375 
Q 48.484375 72.75 52.59375 71.296875 
z
" id="DejaVuSans-36"/>
    </defs>
    <g style="fill:#808080;" transform="translate(381.38375 310.838942)scale(0.1 -0.1)">
     <use xlink:href="#DejaVuSans-76"/>
     <use x="59.179688" xlink:href="#DejaVuSans-32"/>
     <use x="122.802734" xlink:href="#DejaVuSans-2e"/>
     <use x="154.589844" xlink:href="#DejaVuSans-30"/>
     <use x="218.212891" xlink:href="#DejaVuSans-2e"/>
     <use x="250" xlink:href="#DejaVuSans-33"/>
     <use x="313.623047" xlink:href="#DejaVuSans-36"/>
     <use x="377.246094" xlink:href="#DejaVuSans-31"/>
    </g>
   </g>
   <g id="text_19">
    <!-- 38 Different Powers with 2 constraints -->
    <defs>
     <path d="M 9.421875 54.6875 
L 18.40625 54.6875 
L 18.40625 0 
L 9.421875 0 
z
M 9.421875 75.984375 
L 18.40625 75.984375 
L 18.40625 64.59375 
L 9.421875 64.59375 
z
" id="DejaVuSans-69"/>
     <path d="M 54.890625 33.015625 
L 54.890625 0 
L 45.90625 0 
L 45.90625 32.71875 
Q 45.90625 40.484375 42.875 44.328125 
Q 39.84375 48.1875 33.796875 48.1875 
Q 26.515625 48.1875 22.3125 43.546875 
Q 18.109375 38.921875 18.109375 30.90625 
L 18.109375 0 
L 9.078125 0 
L 9.078125 54.6875 
L 18.109375 54.6875 
L 18.109375 46.1875 
Q 21.34375 51.125 25.703125 53.5625 
Q 30.078125 56 35.796875 56 
Q 45.21875 56 50.046875 50.171875 
Q 54.890625 44.34375 54.890625 33.015625 
z
" id="DejaVuSans-6e"/>
     <path d="M 19.671875 64.796875 
L 19.671875 37.40625 
L 32.078125 37.40625 
Q 38.96875 37.40625 42.71875 40.96875 
Q 46.484375 44.53125 46.484375 51.125 
Q 46.484375 57.671875 42.71875 61.234375 
Q 38.96875 64.796875 32.078125 64.796875 
z
M 9.8125 72.90625 
L 32.078125 72.90625 
Q 44.34375 72.90625 50.609375 67.359375 
Q 56.890625 61.8125 56.890625 51.125 
Q 56.890625 40.328125 50.609375 34.8125 
Q 44.34375 29.296875 32.078125 29.296875 
L 19.671875 29.296875 
L 19.671875 0 
L 9.8125 0 
z
" id="DejaVuSans-50"/>
     <path d="M 4.203125 54.6875 
L 13.1875 54.6875 
L 24.421875 12.015625 
L 35.59375 54.6875 
L 46.1875 54.6875 
L 57.421875 12.015625 
L 68.609375 54.6875 
L 77.59375 54.6875 
L 63.28125 0 
L 52.6875 0 
L 40.921875 44.828125 
L 29.109375 0 
L 18.5 0 
z
" id="DejaVuSans-77"/>
     <path d="M 54.890625 33.015625 
L 54.890625 0 
L 45.90625 0 
L 45.90625 32.71875 
Q 45.90625 40.484375 42.875 44.328125 
Q 39.84375 48.1875 33.796875 48.1875 
Q 26.515625 48.1875 22.3125 43.546875 
Q 18.109375 38.921875 18.109375 30.90625 
L 18.109375 0 
L 9.078125 0 
L 9.078125 75.984375 
L 18.109375 75.984375 
L 18.109375 46.1875 
Q 21.34375 51.125 25.703125 53.5625 
Q 30.078125 56 35.796875 56 
Q 45.21875 56 50.046875 50.171875 
Q 54.890625 44.34375 54.890625 33.015625 
z
" id="DejaVuSans-68"/>
    </defs>
    <g transform="translate(127.312 43.46775)scale(0.288 -0.288)">
     <use xlink:href="#DejaVuSans-33"/>
     <use x="63.623047" xlink:href="#DejaVuSans-38"/>
     <use x="127.246094" xlink:href="#DejaVuSans-20"/>
     <use x="159.033203" xlink:href="#DejaVuSans-44"/>
     <use x="236.035156" xlink:href="#DejaVuSans-69"/>
     <use x="263.818359" xlink:href="#DejaVuSans-66"/>
     <use x="299.023438" xlink:href="#DejaVuSans-66"/>
     <use x="334.228516" xlink:href="#DejaVuSans-65"/>
     <use x="395.751953" xlink:href="#DejaVuSans-72"/>
     <use x="436.833984" xlink:href="#DejaVuSans-65"/>
     <use x="498.357422" xlink:href="#DejaVuSans-6e"/>
     <use x="561.736328" xlink:href="#DejaVuSans-74"/>
     <use x="600.945312" xlink:href="#DejaVuSans-20"/>
     <use x="632.732422" xlink:href="#DejaVuSans-50"/>
     <use x="692.988281" xlink:href="#DejaVuSans-6f"/>
     <use x="754.169922" xlink:href="#DejaVuSans-77"/>
     <use x="835.957031" xlink:href="#DejaVuSans-65"/>
     <use x="897.480469" xlink:href="#DejaVuSans-72"/>
     <use x="938.59375" xlink:href="#DejaVuSans-73"/>
     <use x="990.693359" xlink:href="#DejaVuSans-20"/>
     <use x="1022.480469" xlink:href="#DejaVuSans-77"/>
     <use x="1104.267578" xlink:href="#DejaVuSans-69"/>
     <use x="1132.050781" xlink:href="#DejaVuSans-74"/>
     <use x="1171.259766" xlink:href="#DejaVuSans-68"/>
     <use x="1234.638672" xlink:href="#DejaVuSans-20"/>
     <use x="1266.425781" xlink:href="#DejaVuSans-32"/>
     <use x="1330.048828" xlink:href="#DejaVuSans-20"/>
     <use x="1361.835938" xlink:href="#DejaVuSans-63"/>
     <use x="1416.816406" xlink:href="#DejaVuSans-6f"/>
     <use x="1477.998047" xlink:href="#DejaVuSans-6e"/>
     <use x="1541.376953" xlink:href="#DejaVuSans-73"/>
     <use x="1593.476562" xlink:href="#DejaVuSans-74"/>
     <use x="1632.685547" xlink:href="#DejaVuSans-72"/>
     <use x="1673.798828" xlink:href="#DejaVuSans-61"/>
     <use x="1735.078125" xlink:href="#DejaVuSans-69"/>
     <use x="1762.861328" xlink:href="#DejaVuSans-6e"/>
     <use x="1826.240234" xlink:href="#DejaVuSans-74"/>
     <use x="1865.449219" xlink:href="#DejaVuSans-73"/>
    </g>
   </g>
   <g id="line2d_76">
    <defs>
     <path d="M 0 -10 
L -2.24514 -3.09017 
L -9.510565 -3.09017 
L -3.632713 1.18034 
L -5.877853 8.09017 
L -0 3.81966 
L 5.877853 8.09017 
L 3.632713 1.18034 
L 9.510565 -3.09017 
L 2.24514 -3.09017 
z
" id="ma7ed742f49" style="stroke:#000000;stroke-linejoin:bevel;stroke-width:1.6;"/>
    </defs>
    <g>
     <use style="fill:none;stroke:#000000;stroke-linejoin:bevel;stroke-width:1.6;" x="576.270617" xlink:href="#ma7ed742f49" y="259.830701"/>
     <use style="fill:none;stroke:#000000;stroke-linejoin:bevel;stroke-width:1.6;" x="570.553734" xlink:href="#ma7ed742f49" y="259.830701"/>
    </g>
   </g>
   <g id="line2d_77">
    <g>
     <use style="fill:none;stroke:#000000;stroke-linejoin:bevel;stroke-width:1.6;" x="576.270617" xlink:href="#ma7ed742f49" y="309.094182"/>
     <use style="fill:none;stroke:#000000;stroke-linejoin:bevel;stroke-width:1.6;" x="570.553734" xlink:href="#ma7ed742f49" y="309.094182"/>
     <use style="fill:none;stroke:#000000;stroke-linejoin:bevel;stroke-width:1.6;" x="564.836852" xlink:href="#ma7ed742f49" y="309.094182"/>
    </g>
   </g>
  </g>
 </g>
 <defs>
  <clipPath id="p1ab435c3d4">
   <rect height="266.112" width="357.12" x="224.8675" y="49.46775"/>
  </clipPath>
 </defs>
</svg>
