<?xml version="1.0" encoding="utf-8" standalone="no"?>
<!DOCTYPE svg PUBLIC "-//W3C//DTD SVG 1.1//EN"
  "http://www.w3.org/Graphics/SVG/1.1/DTD/svg11.dtd">
<!-- Created with matplotlib (http://matplotlib.org/) -->
<svg height="380pt" version="1.1" viewBox="0 0 638 380" width="638pt" xmlns="http://www.w3.org/2000/svg" xmlns:xlink="http://www.w3.org/1999/xlink">
 <defs>
  <style type="text/css">
*{stroke-linecap:butt;stroke-linejoin:round;}
  </style>
 </defs>
 <g id="figure_1">
  <g id="patch_1">
   <path d="M 0 380.23475 
L 638.2075 380.23475 
L 638.2075 0 
L 0 0 
z
" style="fill:#ffffff;"/>
  </g>
  <g id="axes_1">
   <g id="patch_2">
    <path d="M 224.8675 315.57975 
L 581.9875 315.57975 
L 581.9875 49.46775 
L 224.8675 49.46775 
z
" style="fill:#ffffff;"/>
   </g>
   <g id="matplotlib.axis_1">
    <g id="xtick_1">
     <g id="line2d_1">
      <path clip-path="url(#pc6477210ae)" d="M 581.9875 315.57975 
L 581.9875 49.46775 
" style="fill:none;stroke:#b0b0b0;stroke-linecap:square;stroke-width:0.8;"/>
     </g>
     <g id="line2d_2">
      <defs>
       <path d="M 0 0 
L 0 3.5 
" id="me93904c07e" style="stroke:#000000;stroke-width:0.8;"/>
      </defs>
      <g>
       <use style="stroke:#000000;stroke-width:0.8;" x="581.9875" xlink:href="#me93904c07e" y="315.57975"/>
      </g>
     </g>
     <g id="text_1">
      <!-- -8 -->
      <defs>
       <path d="M 4.890625 31.390625 
L 31.203125 31.390625 
L 31.203125 23.390625 
L 4.890625 23.390625 
z
" id="DejaVuSans-2d"/>
       <path d="M 31.78125 34.625 
Q 24.75 34.625 20.71875 30.859375 
Q 16.703125 27.09375 16.703125 20.515625 
Q 16.703125 13.921875 20.71875 10.15625 
Q 24.75 6.390625 31.78125 6.390625 
Q 38.8125 6.390625 42.859375 10.171875 
Q 46.921875 13.96875 46.921875 20.515625 
Q 46.921875 27.09375 42.890625 30.859375 
Q 38.875 34.625 31.78125 34.625 
z
M 21.921875 38.8125 
Q 15.578125 40.375 12.03125 44.71875 
Q 8.5 49.078125 8.5 55.328125 
Q 8.5 64.0625 14.71875 69.140625 
Q 20.953125 74.21875 31.78125 74.21875 
Q 42.671875 74.21875 48.875 69.140625 
Q 55.078125 64.0625 55.078125 55.328125 
Q 55.078125 49.078125 51.53125 44.71875 
Q 48 40.375 41.703125 38.8125 
Q 48.828125 37.15625 52.796875 32.3125 
Q 56.78125 27.484375 56.78125 20.515625 
Q 56.78125 9.90625 50.3125 4.234375 
Q 43.84375 -1.421875 31.78125 -1.421875 
Q 19.734375 -1.421875 13.25 4.234375 
Q 6.78125 9.90625 6.78125 20.515625 
Q 6.78125 27.484375 10.78125 32.3125 
Q 14.796875 37.15625 21.921875 38.8125 
z
M 18.3125 54.390625 
Q 18.3125 48.734375 21.84375 45.5625 
Q 25.390625 42.390625 31.78125 42.390625 
Q 38.140625 42.390625 41.71875 45.5625 
Q 45.3125 48.734375 45.3125 54.390625 
Q 45.3125 60.0625 41.71875 63.234375 
Q 38.140625 66.40625 31.78125 66.40625 
Q 25.390625 66.40625 21.84375 63.234375 
Q 18.3125 60.0625 18.3125 54.390625 
z
" id="DejaVuSans-38"/>
      </defs>
      <g transform="translate(570.023125 340.816)scale(0.24 -0.24)">
       <use xlink:href="#DejaVuSans-2d"/>
       <use x="36.083984" xlink:href="#DejaVuSans-38"/>
      </g>
     </g>
    </g>
    <g id="xtick_2">
     <g id="line2d_3">
      <path clip-path="url(#pc6477210ae)" d="M 484.591136 315.57975 
L 484.591136 49.46775 
" style="fill:none;stroke:#b0b0b0;stroke-linecap:square;stroke-width:0.8;"/>
     </g>
     <g id="line2d_4">
      <g>
       <use style="stroke:#000000;stroke-width:0.8;" x="484.591136" xlink:href="#me93904c07e" y="315.57975"/>
      </g>
     </g>
     <g id="text_2">
      <!-- -5 -->
      <defs>
       <path d="M 10.796875 72.90625 
L 49.515625 72.90625 
L 49.515625 64.59375 
L 19.828125 64.59375 
L 19.828125 46.734375 
Q 21.96875 47.46875 24.109375 47.828125 
Q 26.265625 48.1875 28.421875 48.1875 
Q 40.625 48.1875 47.75 41.5 
Q 54.890625 34.8125 54.890625 23.390625 
Q 54.890625 11.625 47.5625 5.09375 
Q 40.234375 -1.421875 26.90625 -1.421875 
Q 22.3125 -1.421875 17.546875 -0.640625 
Q 12.796875 0.140625 7.71875 1.703125 
L 7.71875 11.625 
Q 12.109375 9.234375 16.796875 8.0625 
Q 21.484375 6.890625 26.703125 6.890625 
Q 35.15625 6.890625 40.078125 11.328125 
Q 45.015625 15.765625 45.015625 23.390625 
Q 45.015625 31 40.078125 35.4375 
Q 35.15625 39.890625 26.703125 39.890625 
Q 22.75 39.890625 18.8125 39.015625 
Q 14.890625 38.140625 10.796875 36.28125 
z
" id="DejaVuSans-35"/>
      </defs>
      <g transform="translate(472.626761 340.816)scale(0.24 -0.24)">
       <use xlink:href="#DejaVuSans-2d"/>
       <use x="36.083984" xlink:href="#DejaVuSans-35"/>
      </g>
     </g>
    </g>
    <g id="xtick_3">
     <g id="line2d_5">
      <path clip-path="url(#pc6477210ae)" d="M 387.194773 315.57975 
L 387.194773 49.46775 
" style="fill:none;stroke:#b0b0b0;stroke-linecap:square;stroke-width:0.8;"/>
     </g>
     <g id="line2d_6">
      <g>
       <use style="stroke:#000000;stroke-width:0.8;" x="387.194773" xlink:href="#me93904c07e" y="315.57975"/>
      </g>
     </g>
     <g id="text_3">
      <!-- -2 -->
      <defs>
       <path d="M 19.1875 8.296875 
L 53.609375 8.296875 
L 53.609375 0 
L 7.328125 0 
L 7.328125 8.296875 
Q 12.9375 14.109375 22.625 23.890625 
Q 32.328125 33.6875 34.8125 36.53125 
Q 39.546875 41.84375 41.421875 45.53125 
Q 43.3125 49.21875 43.3125 52.78125 
Q 43.3125 58.59375 39.234375 62.25 
Q 35.15625 65.921875 28.609375 65.921875 
Q 23.96875 65.921875 18.8125 64.3125 
Q 13.671875 62.703125 7.8125 59.421875 
L 7.8125 69.390625 
Q 13.765625 71.78125 18.9375 73 
Q 24.125 74.21875 28.421875 74.21875 
Q 39.75 74.21875 46.484375 68.546875 
Q 53.21875 62.890625 53.21875 53.421875 
Q 53.21875 48.921875 51.53125 44.890625 
Q 49.859375 40.875 45.40625 35.40625 
Q 44.1875 33.984375 37.640625 27.21875 
Q 31.109375 20.453125 19.1875 8.296875 
z
" id="DejaVuSans-32"/>
      </defs>
      <g transform="translate(375.230398 340.816)scale(0.24 -0.24)">
       <use xlink:href="#DejaVuSans-2d"/>
       <use x="36.083984" xlink:href="#DejaVuSans-32"/>
      </g>
     </g>
    </g>
    <g id="xtick_4">
     <g id="line2d_7">
      <path clip-path="url(#pc6477210ae)" d="M 289.798409 315.57975 
L 289.798409 49.46775 
" style="fill:none;stroke:#b0b0b0;stroke-linecap:square;stroke-width:0.8;"/>
     </g>
     <g id="line2d_8">
      <g>
       <use style="stroke:#000000;stroke-width:0.8;" x="289.798409" xlink:href="#me93904c07e" y="315.57975"/>
      </g>
     </g>
     <g id="text_4">
      <!-- 1 -->
      <defs>
       <path d="M 12.40625 8.296875 
L 28.515625 8.296875 
L 28.515625 63.921875 
L 10.984375 60.40625 
L 10.984375 69.390625 
L 28.421875 72.90625 
L 38.28125 72.90625 
L 38.28125 8.296875 
L 54.390625 8.296875 
L 54.390625 0 
L 12.40625 0 
z
" id="DejaVuSans-31"/>
      </defs>
      <g transform="translate(282.163409 340.816)scale(0.24 -0.24)">
       <use xlink:href="#DejaVuSans-31"/>
      </g>
     </g>
    </g>
    <g id="text_5">
     <!-- log10(Delta ftarget) -->
     <defs>
      <path d="M 9.421875 75.984375 
L 18.40625 75.984375 
L 18.40625 0 
L 9.421875 0 
z
" id="DejaVuSans-6c"/>
      <path d="M 30.609375 48.390625 
Q 23.390625 48.390625 19.1875 42.75 
Q 14.984375 37.109375 14.984375 27.296875 
Q 14.984375 17.484375 19.15625 11.84375 
Q 23.34375 6.203125 30.609375 6.203125 
Q 37.796875 6.203125 41.984375 11.859375 
Q 46.1875 17.53125 46.1875 27.296875 
Q 46.1875 37.015625 41.984375 42.703125 
Q 37.796875 48.390625 30.609375 48.390625 
z
M 30.609375 56 
Q 42.328125 56 49.015625 48.375 
Q 55.71875 40.765625 55.71875 27.296875 
Q 55.71875 13.875 49.015625 6.21875 
Q 42.328125 -1.421875 30.609375 -1.421875 
Q 18.84375 -1.421875 12.171875 6.21875 
Q 5.515625 13.875 5.515625 27.296875 
Q 5.515625 40.765625 12.171875 48.375 
Q 18.84375 56 30.609375 56 
z
" id="DejaVuSans-6f"/>
      <path d="M 45.40625 27.984375 
Q 45.40625 37.75 41.375 43.109375 
Q 37.359375 48.484375 30.078125 48.484375 
Q 22.859375 48.484375 18.828125 43.109375 
Q 14.796875 37.75 14.796875 27.984375 
Q 14.796875 18.265625 18.828125 12.890625 
Q 22.859375 7.515625 30.078125 7.515625 
Q 37.359375 7.515625 41.375 12.890625 
Q 45.40625 18.265625 45.40625 27.984375 
z
M 54.390625 6.78125 
Q 54.390625 -7.171875 48.1875 -13.984375 
Q 42 -20.796875 29.203125 -20.796875 
Q 24.46875 -20.796875 20.265625 -20.09375 
Q 16.0625 -19.390625 12.109375 -17.921875 
L 12.109375 -9.1875 
Q 16.0625 -11.328125 19.921875 -12.34375 
Q 23.78125 -13.375 27.78125 -13.375 
Q 36.625 -13.375 41.015625 -8.765625 
Q 45.40625 -4.15625 45.40625 5.171875 
L 45.40625 9.625 
Q 42.625 4.78125 38.28125 2.390625 
Q 33.9375 0 27.875 0 
Q 17.828125 0 11.671875 7.65625 
Q 5.515625 15.328125 5.515625 27.984375 
Q 5.515625 40.671875 11.671875 48.328125 
Q 17.828125 56 27.875 56 
Q 33.9375 56 38.28125 53.609375 
Q 42.625 51.21875 45.40625 46.390625 
L 45.40625 54.6875 
L 54.390625 54.6875 
z
" id="DejaVuSans-67"/>
      <path d="M 31.78125 66.40625 
Q 24.171875 66.40625 20.328125 58.90625 
Q 16.5 51.421875 16.5 36.375 
Q 16.5 21.390625 20.328125 13.890625 
Q 24.171875 6.390625 31.78125 6.390625 
Q 39.453125 6.390625 43.28125 13.890625 
Q 47.125 21.390625 47.125 36.375 
Q 47.125 51.421875 43.28125 58.90625 
Q 39.453125 66.40625 31.78125 66.40625 
z
M 31.78125 74.21875 
Q 44.046875 74.21875 50.515625 64.515625 
Q 56.984375 54.828125 56.984375 36.375 
Q 56.984375 17.96875 50.515625 8.265625 
Q 44.046875 -1.421875 31.78125 -1.421875 
Q 19.53125 -1.421875 13.0625 8.265625 
Q 6.59375 17.96875 6.59375 36.375 
Q 6.59375 54.828125 13.0625 64.515625 
Q 19.53125 74.21875 31.78125 74.21875 
z
" id="DejaVuSans-30"/>
      <path d="M 31 75.875 
Q 24.46875 64.65625 21.28125 53.65625 
Q 18.109375 42.671875 18.109375 31.390625 
Q 18.109375 20.125 21.3125 9.0625 
Q 24.515625 -2 31 -13.1875 
L 23.1875 -13.1875 
Q 15.875 -1.703125 12.234375 9.375 
Q 8.59375 20.453125 8.59375 31.390625 
Q 8.59375 42.28125 12.203125 53.3125 
Q 15.828125 64.359375 23.1875 75.875 
z
" id="DejaVuSans-28"/>
      <path d="M 19.671875 64.796875 
L 19.671875 8.109375 
L 31.59375 8.109375 
Q 46.6875 8.109375 53.6875 14.9375 
Q 60.6875 21.78125 60.6875 36.53125 
Q 60.6875 51.171875 53.6875 57.984375 
Q 46.6875 64.796875 31.59375 64.796875 
z
M 9.8125 72.90625 
L 30.078125 72.90625 
Q 51.265625 72.90625 61.171875 64.09375 
Q 71.09375 55.28125 71.09375 36.53125 
Q 71.09375 17.671875 61.125 8.828125 
Q 51.171875 0 30.078125 0 
L 9.8125 0 
z
" id="DejaVuSans-44"/>
      <path d="M 56.203125 29.59375 
L 56.203125 25.203125 
L 14.890625 25.203125 
Q 15.484375 15.921875 20.484375 11.0625 
Q 25.484375 6.203125 34.421875 6.203125 
Q 39.59375 6.203125 44.453125 7.46875 
Q 49.3125 8.734375 54.109375 11.28125 
L 54.109375 2.78125 
Q 49.265625 0.734375 44.1875 -0.34375 
Q 39.109375 -1.421875 33.890625 -1.421875 
Q 20.796875 -1.421875 13.15625 6.1875 
Q 5.515625 13.8125 5.515625 26.8125 
Q 5.515625 40.234375 12.765625 48.109375 
Q 20.015625 56 32.328125 56 
Q 43.359375 56 49.78125 48.890625 
Q 56.203125 41.796875 56.203125 29.59375 
z
M 47.21875 32.234375 
Q 47.125 39.59375 43.09375 43.984375 
Q 39.0625 48.390625 32.421875 48.390625 
Q 24.90625 48.390625 20.390625 44.140625 
Q 15.875 39.890625 15.1875 32.171875 
z
" id="DejaVuSans-65"/>
      <path d="M 18.3125 70.21875 
L 18.3125 54.6875 
L 36.8125 54.6875 
L 36.8125 47.703125 
L 18.3125 47.703125 
L 18.3125 18.015625 
Q 18.3125 11.328125 20.140625 9.421875 
Q 21.96875 7.515625 27.59375 7.515625 
L 36.8125 7.515625 
L 36.8125 0 
L 27.59375 0 
Q 17.1875 0 13.234375 3.875 
Q 9.28125 7.765625 9.28125 18.015625 
L 9.28125 47.703125 
L 2.6875 47.703125 
L 2.6875 54.6875 
L 9.28125 54.6875 
L 9.28125 70.21875 
z
" id="DejaVuSans-74"/>
      <path d="M 34.28125 27.484375 
Q 23.390625 27.484375 19.1875 25 
Q 14.984375 22.515625 14.984375 16.5 
Q 14.984375 11.71875 18.140625 8.90625 
Q 21.296875 6.109375 26.703125 6.109375 
Q 34.1875 6.109375 38.703125 11.40625 
Q 43.21875 16.703125 43.21875 25.484375 
L 43.21875 27.484375 
z
M 52.203125 31.203125 
L 52.203125 0 
L 43.21875 0 
L 43.21875 8.296875 
Q 40.140625 3.328125 35.546875 0.953125 
Q 30.953125 -1.421875 24.3125 -1.421875 
Q 15.921875 -1.421875 10.953125 3.296875 
Q 6 8.015625 6 15.921875 
Q 6 25.140625 12.171875 29.828125 
Q 18.359375 34.515625 30.609375 34.515625 
L 43.21875 34.515625 
L 43.21875 35.40625 
Q 43.21875 41.609375 39.140625 45 
Q 35.0625 48.390625 27.6875 48.390625 
Q 23 48.390625 18.546875 47.265625 
Q 14.109375 46.140625 10.015625 43.890625 
L 10.015625 52.203125 
Q 14.9375 54.109375 19.578125 55.046875 
Q 24.21875 56 28.609375 56 
Q 40.484375 56 46.34375 49.84375 
Q 52.203125 43.703125 52.203125 31.203125 
z
" id="DejaVuSans-61"/>
      <path id="DejaVuSans-20"/>
      <path d="M 37.109375 75.984375 
L 37.109375 68.5 
L 28.515625 68.5 
Q 23.6875 68.5 21.796875 66.546875 
Q 19.921875 64.59375 19.921875 59.515625 
L 19.921875 54.6875 
L 34.71875 54.6875 
L 34.71875 47.703125 
L 19.921875 47.703125 
L 19.921875 0 
L 10.890625 0 
L 10.890625 47.703125 
L 2.296875 47.703125 
L 2.296875 54.6875 
L 10.890625 54.6875 
L 10.890625 58.5 
Q 10.890625 67.625 15.140625 71.796875 
Q 19.390625 75.984375 28.609375 75.984375 
z
" id="DejaVuSans-66"/>
      <path d="M 41.109375 46.296875 
Q 39.59375 47.171875 37.8125 47.578125 
Q 36.03125 48 33.890625 48 
Q 26.265625 48 22.1875 43.046875 
Q 18.109375 38.09375 18.109375 28.8125 
L 18.109375 0 
L 9.078125 0 
L 9.078125 54.6875 
L 18.109375 54.6875 
L 18.109375 46.1875 
Q 20.953125 51.171875 25.484375 53.578125 
Q 30.03125 56 36.53125 56 
Q 37.453125 56 38.578125 55.875 
Q 39.703125 55.765625 41.0625 55.515625 
z
" id="DejaVuSans-72"/>
      <path d="M 8.015625 75.875 
L 15.828125 75.875 
Q 23.140625 64.359375 26.78125 53.3125 
Q 30.421875 42.28125 30.421875 31.390625 
Q 30.421875 20.453125 26.78125 9.375 
Q 23.140625 -1.703125 15.828125 -13.1875 
L 8.015625 -13.1875 
Q 14.5 -2 17.703125 9.0625 
Q 20.90625 20.125 20.90625 31.390625 
Q 20.90625 42.671875 17.703125 53.65625 
Q 14.5 64.65625 8.015625 75.875 
z
" id="DejaVuSans-29"/>
     </defs>
     <g transform="translate(283.751875 368.0435)scale(0.24 -0.24)">
      <use xlink:href="#DejaVuSans-6c"/>
      <use x="27.783203" xlink:href="#DejaVuSans-6f"/>
      <use x="88.964844" xlink:href="#DejaVuSans-67"/>
      <use x="152.441406" xlink:href="#DejaVuSans-31"/>
      <use x="216.064453" xlink:href="#DejaVuSans-30"/>
      <use x="279.6875" xlink:href="#DejaVuSans-28"/>
      <use x="318.701172" xlink:href="#DejaVuSans-44"/>
      <use x="395.703125" xlink:href="#DejaVuSans-65"/>
      <use x="457.226562" xlink:href="#DejaVuSans-6c"/>
      <use x="485.009766" xlink:href="#DejaVuSans-74"/>
      <use x="524.21875" xlink:href="#DejaVuSans-61"/>
      <use x="585.498047" xlink:href="#DejaVuSans-20"/>
      <use x="617.285156" xlink:href="#DejaVuSans-66"/>
      <use x="652.474609" xlink:href="#DejaVuSans-74"/>
      <use x="691.683594" xlink:href="#DejaVuSans-61"/>
      <use x="752.962891" xlink:href="#DejaVuSans-72"/>
      <use x="794.060547" xlink:href="#DejaVuSans-67"/>
      <use x="857.537109" xlink:href="#DejaVuSans-65"/>
      <use x="919.060547" xlink:href="#DejaVuSans-74"/>
      <use x="958.269531" xlink:href="#DejaVuSans-29"/>
     </g>
    </g>
   </g>
   <g id="matplotlib.axis_2">
    <g id="ytick_1">
     <g id="line2d_9">
      <path clip-path="url(#pc6477210ae)" d="M 224.8675 251.932731 
L 581.9875 251.932731 
" style="fill:none;stroke:#b0b0b0;stroke-linecap:square;stroke-width:0.8;"/>
     </g>
     <g id="line2d_10">
      <defs>
       <path d="M 0 0 
L -3.5 0 
" id="m2df3e97c56" style="stroke:#000000;stroke-width:2;"/>
      </defs>
      <g>
       <use style="stroke:#000000;stroke-width:2;" x="224.8675" xlink:href="#m2df3e97c56" y="251.932731"/>
      </g>
     </g>
     <g id="text_6">
      <!-- -1 -->
      <g transform="translate(193.93875 261.050856)scale(0.24 -0.24)">
       <use xlink:href="#DejaVuSans-2d"/>
       <use x="36.083984" xlink:href="#DejaVuSans-31"/>
      </g>
     </g>
    </g>
    <g id="ytick_2">
     <g id="line2d_11">
      <path clip-path="url(#pc6477210ae)" d="M 224.8675 182.52375 
L 581.9875 182.52375 
" style="fill:none;stroke:#b0b0b0;stroke-linecap:square;stroke-width:0.8;"/>
     </g>
     <g id="line2d_12">
      <g>
       <use style="stroke:#000000;stroke-width:2;" x="224.8675" xlink:href="#m2df3e97c56" y="182.52375"/>
      </g>
     </g>
     <g id="text_7">
      <!-- 0 -->
      <g transform="translate(202.5975 191.641875)scale(0.24 -0.24)">
       <use xlink:href="#DejaVuSans-30"/>
      </g>
     </g>
    </g>
    <g id="ytick_3">
     <g id="line2d_13">
      <path clip-path="url(#pc6477210ae)" d="M 224.8675 113.114769 
L 581.9875 113.114769 
" style="fill:none;stroke:#b0b0b0;stroke-linecap:square;stroke-width:0.8;"/>
     </g>
     <g id="line2d_14">
      <g>
       <use style="stroke:#000000;stroke-width:2;" x="224.8675" xlink:href="#m2df3e97c56" y="113.114769"/>
      </g>
     </g>
     <g id="text_8">
      <!-- 1 -->
      <g transform="translate(202.5975 122.232894)scale(0.24 -0.24)">
       <use xlink:href="#DejaVuSans-31"/>
      </g>
     </g>
    </g>
    <g id="ytick_4">
     <g id="line2d_15">
      <path clip-path="url(#pc6477210ae)" d="M 224.8675 314.615288 
L 581.9875 314.615288 
" style="fill:none;stroke:#b0b0b0;stroke-linecap:square;stroke-width:0.8;"/>
     </g>
     <g id="line2d_16">
      <defs>
       <path d="M 0 0 
L -2 0 
" id="m2b37823d12" style="stroke:#000000;stroke-width:2;"/>
      </defs>
      <g>
       <use style="stroke:#000000;stroke-width:2;" x="224.8675" xlink:href="#m2b37823d12" y="314.615288"/>
      </g>
     </g>
     <g id="text_9">
      <!-- $\mathdefault{1.25\times10^{-2}}$ -->
      <defs>
       <path d="M 10.6875 12.40625 
L 21 12.40625 
L 21 0 
L 10.6875 0 
z
" id="DejaVuSans-2e"/>
       <path d="M 70.125 53.71875 
L 47.796875 31.296875 
L 70.125 8.984375 
L 64.3125 3.078125 
L 41.890625 25.484375 
L 19.484375 3.078125 
L 13.71875 8.984375 
L 35.984375 31.296875 
L 13.71875 53.71875 
L 19.484375 59.625 
L 41.890625 37.203125 
L 64.3125 59.625 
z
" id="DejaVuSans-d7"/>
       <path d="M 10.59375 35.5 
L 73.1875 35.5 
L 73.1875 27.203125 
L 10.59375 27.203125 
z
" id="DejaVuSans-2212"/>
      </defs>
      <g transform="translate(80.2675 323.733413)scale(0.24 -0.24)">
       <use transform="translate(0 0.765625)" xlink:href="#DejaVuSans-31"/>
       <use transform="translate(63.623047 0.765625)" xlink:href="#DejaVuSans-2e"/>
       <use transform="translate(95.332031 0.765625)" xlink:href="#DejaVuSans-32"/>
       <use transform="translate(158.955078 0.765625)" xlink:href="#DejaVuSans-35"/>
       <use transform="translate(242.060547 0.765625)" xlink:href="#DejaVuSans-d7"/>
       <use transform="translate(345.332031 0.765625)" xlink:href="#DejaVuSans-31"/>
       <use transform="translate(408.955078 0.765625)" xlink:href="#DejaVuSans-30"/>
       <use transform="translate(473.535156 39.046875)scale(0.7)" xlink:href="#DejaVuSans-2212"/>
       <use transform="translate(532.1875 39.046875)scale(0.7)" xlink:href="#DejaVuSans-32"/>
      </g>
     </g>
    </g>
    <g id="ytick_5">
     <g id="line2d_17">
      <path clip-path="url(#pc6477210ae)" d="M 224.8675 310.590126 
L 581.9875 310.590126 
" style="fill:none;stroke:#b0b0b0;stroke-linecap:square;stroke-width:0.8;"/>
     </g>
     <g id="line2d_18">
      <g>
       <use style="stroke:#000000;stroke-width:2;" x="224.8675" xlink:href="#m2b37823d12" y="310.590126"/>
      </g>
     </g>
     <g id="text_10">
      <!-- $\mathdefault{1.42857\times10^{-2}}$ -->
      <defs>
       <path d="M 37.796875 64.3125 
L 12.890625 25.390625 
L 37.796875 25.390625 
z
M 35.203125 72.90625 
L 47.609375 72.90625 
L 47.609375 25.390625 
L 58.015625 25.390625 
L 58.015625 17.1875 
L 47.609375 17.1875 
L 47.609375 0 
L 37.796875 0 
L 37.796875 17.1875 
L 4.890625 17.1875 
L 4.890625 26.703125 
z
" id="DejaVuSans-34"/>
       <path d="M 8.203125 72.90625 
L 55.078125 72.90625 
L 55.078125 68.703125 
L 28.609375 0 
L 18.3125 0 
L 43.21875 64.59375 
L 8.203125 64.59375 
z
" id="DejaVuSans-37"/>
      </defs>
      <g transform="translate(34.4275 319.708251)scale(0.24 -0.24)">
       <use transform="translate(0 0.765625)" xlink:href="#DejaVuSans-31"/>
       <use transform="translate(63.623047 0.765625)" xlink:href="#DejaVuSans-2e"/>
       <use transform="translate(95.410156 0.765625)" xlink:href="#DejaVuSans-34"/>
       <use transform="translate(159.033203 0.765625)" xlink:href="#DejaVuSans-32"/>
       <use transform="translate(222.65625 0.765625)" xlink:href="#DejaVuSans-38"/>
       <use transform="translate(286.279297 0.765625)" xlink:href="#DejaVuSans-35"/>
       <use transform="translate(349.792969 0.765625)" xlink:href="#DejaVuSans-37"/>
       <use transform="translate(432.898438 0.765625)" xlink:href="#DejaVuSans-d7"/>
       <use transform="translate(536.169922 0.765625)" xlink:href="#DejaVuSans-31"/>
       <use transform="translate(599.792969 0.765625)" xlink:href="#DejaVuSans-30"/>
       <use transform="translate(664.373047 39.046875)scale(0.7)" xlink:href="#DejaVuSans-2212"/>
       <use transform="translate(723.025391 39.046875)scale(0.7)" xlink:href="#DejaVuSans-32"/>
      </g>
     </g>
    </g>
    <g id="ytick_6">
     <g id="line2d_19">
      <path clip-path="url(#pc6477210ae)" d="M 224.8675 305.943417 
L 581.9875 305.943417 
" style="fill:none;stroke:#b0b0b0;stroke-linecap:square;stroke-width:0.8;"/>
     </g>
     <g id="line2d_20">
      <g>
       <use style="stroke:#000000;stroke-width:2;" x="224.8675" xlink:href="#m2b37823d12" y="305.943417"/>
      </g>
     </g>
    </g>
    <g id="ytick_7">
     <g id="line2d_21">
      <path clip-path="url(#pc6477210ae)" d="M 224.8675 300.447527 
L 581.9875 300.447527 
" style="fill:none;stroke:#b0b0b0;stroke-linecap:square;stroke-width:0.8;"/>
     </g>
     <g id="line2d_22">
      <g>
       <use style="stroke:#000000;stroke-width:2;" x="224.8675" xlink:href="#m2b37823d12" y="300.447527"/>
      </g>
     </g>
    </g>
    <g id="ytick_8">
     <g id="line2d_23">
      <path clip-path="url(#pc6477210ae)" d="M 224.8675 293.721102 
L 581.9875 293.721102 
" style="fill:none;stroke:#b0b0b0;stroke-linecap:square;stroke-width:0.8;"/>
     </g>
     <g id="line2d_24">
      <g>
       <use style="stroke:#000000;stroke-width:2;" x="224.8675" xlink:href="#m2b37823d12" y="293.721102"/>
      </g>
     </g>
    </g>
    <g id="ytick_9">
     <g id="line2d_25">
      <path clip-path="url(#pc6477210ae)" d="M 224.8675 285.049232 
L 581.9875 285.049232 
" style="fill:none;stroke:#b0b0b0;stroke-linecap:square;stroke-width:0.8;"/>
     </g>
     <g id="line2d_26">
      <g>
       <use style="stroke:#000000;stroke-width:2;" x="224.8675" xlink:href="#m2b37823d12" y="285.049232"/>
      </g>
     </g>
    </g>
    <g id="ytick_10">
     <g id="line2d_27">
      <path clip-path="url(#pc6477210ae)" d="M 224.8675 272.826917 
L 581.9875 272.826917 
" style="fill:none;stroke:#b0b0b0;stroke-linecap:square;stroke-width:0.8;"/>
     </g>
     <g id="line2d_28">
      <g>
       <use style="stroke:#000000;stroke-width:2;" x="224.8675" xlink:href="#m2b37823d12" y="272.826917"/>
      </g>
     </g>
    </g>
    <g id="ytick_11">
     <g id="line2d_29">
      <path clip-path="url(#pc6477210ae)" d="M 224.8675 248.756751 
L 581.9875 248.756751 
" style="fill:none;stroke:#b0b0b0;stroke-linecap:square;stroke-width:0.8;"/>
     </g>
     <g id="line2d_30">
      <g>
       <use style="stroke:#000000;stroke-width:2;" x="224.8675" xlink:href="#m2b37823d12" y="248.756751"/>
      </g>
     </g>
     <g id="text_11">
      <!-- $\mathdefault{1.11111\times10^{-1}}$ -->
      <g transform="translate(34.4275 257.874876)scale(0.24 -0.24)">
       <use transform="translate(0 0.684375)" xlink:href="#DejaVuSans-31"/>
       <use transform="translate(63.623047 0.684375)" xlink:href="#DejaVuSans-2e"/>
       <use transform="translate(95.410156 0.684375)" xlink:href="#DejaVuSans-31"/>
       <use transform="translate(159.033203 0.684375)" xlink:href="#DejaVuSans-31"/>
       <use transform="translate(222.65625 0.684375)" xlink:href="#DejaVuSans-31"/>
       <use transform="translate(286.279297 0.684375)" xlink:href="#DejaVuSans-31"/>
       <use transform="translate(349.902344 0.684375)" xlink:href="#DejaVuSans-31"/>
       <use transform="translate(433.007812 0.684375)" xlink:href="#DejaVuSans-d7"/>
       <use transform="translate(536.279297 0.684375)" xlink:href="#DejaVuSans-31"/>
       <use transform="translate(599.902344 0.684375)" xlink:href="#DejaVuSans-30"/>
       <use transform="translate(664.482422 38.965625)scale(0.7)" xlink:href="#DejaVuSans-2212"/>
       <use transform="translate(723.134766 38.965625)scale(0.7)" xlink:href="#DejaVuSans-31"/>
      </g>
     </g>
    </g>
    <g id="ytick_12">
     <g id="line2d_31">
      <path clip-path="url(#pc6477210ae)" d="M 224.8675 245.206306 
L 581.9875 245.206306 
" style="fill:none;stroke:#b0b0b0;stroke-linecap:square;stroke-width:0.8;"/>
     </g>
     <g id="line2d_32">
      <g>
       <use style="stroke:#000000;stroke-width:2;" x="224.8675" xlink:href="#m2b37823d12" y="245.206306"/>
      </g>
     </g>
     <g id="text_12">
      <!-- $\mathdefault{1.25\times10^{-1}}$ -->
      <g transform="translate(80.2675 254.324431)scale(0.24 -0.24)">
       <use transform="translate(0 0.684375)" xlink:href="#DejaVuSans-31"/>
       <use transform="translate(63.623047 0.684375)" xlink:href="#DejaVuSans-2e"/>
       <use transform="translate(95.332031 0.684375)" xlink:href="#DejaVuSans-32"/>
       <use transform="translate(158.955078 0.684375)" xlink:href="#DejaVuSans-35"/>
       <use transform="translate(242.060547 0.684375)" xlink:href="#DejaVuSans-d7"/>
       <use transform="translate(345.332031 0.684375)" xlink:href="#DejaVuSans-31"/>
       <use transform="translate(408.955078 0.684375)" xlink:href="#DejaVuSans-30"/>
       <use transform="translate(473.535156 38.965625)scale(0.7)" xlink:href="#DejaVuSans-2212"/>
       <use transform="translate(532.1875 38.965625)scale(0.7)" xlink:href="#DejaVuSans-31"/>
      </g>
     </g>
    </g>
    <g id="ytick_13">
     <g id="line2d_33">
      <path clip-path="url(#pc6477210ae)" d="M 224.8675 241.181144 
L 581.9875 241.181144 
" style="fill:none;stroke:#b0b0b0;stroke-linecap:square;stroke-width:0.8;"/>
     </g>
     <g id="line2d_34">
      <g>
       <use style="stroke:#000000;stroke-width:2;" x="224.8675" xlink:href="#m2b37823d12" y="241.181144"/>
      </g>
     </g>
     <g id="text_13">
      <!-- $\mathdefault{1.42857\times10^{-1}}$ -->
      <g transform="translate(34.4275 250.299269)scale(0.24 -0.24)">
       <use transform="translate(0 0.684375)" xlink:href="#DejaVuSans-31"/>
       <use transform="translate(63.623047 0.684375)" xlink:href="#DejaVuSans-2e"/>
       <use transform="translate(95.410156 0.684375)" xlink:href="#DejaVuSans-34"/>
       <use transform="translate(159.033203 0.684375)" xlink:href="#DejaVuSans-32"/>
       <use transform="translate(222.65625 0.684375)" xlink:href="#DejaVuSans-38"/>
       <use transform="translate(286.279297 0.684375)" xlink:href="#DejaVuSans-35"/>
       <use transform="translate(349.792969 0.684375)" xlink:href="#DejaVuSans-37"/>
       <use transform="translate(432.898438 0.684375)" xlink:href="#DejaVuSans-d7"/>
       <use transform="translate(536.169922 0.684375)" xlink:href="#DejaVuSans-31"/>
       <use transform="translate(599.792969 0.684375)" xlink:href="#DejaVuSans-30"/>
       <use transform="translate(664.373047 38.965625)scale(0.7)" xlink:href="#DejaVuSans-2212"/>
       <use transform="translate(723.025391 38.965625)scale(0.7)" xlink:href="#DejaVuSans-31"/>
      </g>
     </g>
    </g>
    <g id="ytick_14">
     <g id="line2d_35">
      <path clip-path="url(#pc6477210ae)" d="M 224.8675 236.534436 
L 581.9875 236.534436 
" style="fill:none;stroke:#b0b0b0;stroke-linecap:square;stroke-width:0.8;"/>
     </g>
     <g id="line2d_36">
      <g>
       <use style="stroke:#000000;stroke-width:2;" x="224.8675" xlink:href="#m2b37823d12" y="236.534436"/>
      </g>
     </g>
    </g>
    <g id="ytick_15">
     <g id="line2d_37">
      <path clip-path="url(#pc6477210ae)" d="M 224.8675 231.038546 
L 581.9875 231.038546 
" style="fill:none;stroke:#b0b0b0;stroke-linecap:square;stroke-width:0.8;"/>
     </g>
     <g id="line2d_38">
      <g>
       <use style="stroke:#000000;stroke-width:2;" x="224.8675" xlink:href="#m2b37823d12" y="231.038546"/>
      </g>
     </g>
    </g>
    <g id="ytick_16">
     <g id="line2d_39">
      <path clip-path="url(#pc6477210ae)" d="M 224.8675 224.312121 
L 581.9875 224.312121 
" style="fill:none;stroke:#b0b0b0;stroke-linecap:square;stroke-width:0.8;"/>
     </g>
     <g id="line2d_40">
      <g>
       <use style="stroke:#000000;stroke-width:2;" x="224.8675" xlink:href="#m2b37823d12" y="224.312121"/>
      </g>
     </g>
    </g>
    <g id="ytick_17">
     <g id="line2d_41">
      <path clip-path="url(#pc6477210ae)" d="M 224.8675 215.64025 
L 581.9875 215.64025 
" style="fill:none;stroke:#b0b0b0;stroke-linecap:square;stroke-width:0.8;"/>
     </g>
     <g id="line2d_42">
      <g>
       <use style="stroke:#000000;stroke-width:2;" x="224.8675" xlink:href="#m2b37823d12" y="215.64025"/>
      </g>
     </g>
    </g>
    <g id="ytick_18">
     <g id="line2d_43">
      <path clip-path="url(#pc6477210ae)" d="M 224.8675 203.417935 
L 581.9875 203.417935 
" style="fill:none;stroke:#b0b0b0;stroke-linecap:square;stroke-width:0.8;"/>
     </g>
     <g id="line2d_44">
      <g>
       <use style="stroke:#000000;stroke-width:2;" x="224.8675" xlink:href="#m2b37823d12" y="203.417935"/>
      </g>
     </g>
    </g>
    <g id="ytick_19">
     <g id="line2d_45">
      <path clip-path="url(#pc6477210ae)" d="M 224.8675 161.629565 
L 581.9875 161.629565 
" style="fill:none;stroke:#b0b0b0;stroke-linecap:square;stroke-width:0.8;"/>
     </g>
     <g id="line2d_46">
      <g>
       <use style="stroke:#000000;stroke-width:2;" x="224.8675" xlink:href="#m2b37823d12" y="161.629565"/>
      </g>
     </g>
    </g>
    <g id="ytick_20">
     <g id="line2d_47">
      <path clip-path="url(#pc6477210ae)" d="M 224.8675 149.40725 
L 581.9875 149.40725 
" style="fill:none;stroke:#b0b0b0;stroke-linecap:square;stroke-width:0.8;"/>
     </g>
     <g id="line2d_48">
      <g>
       <use style="stroke:#000000;stroke-width:2;" x="224.8675" xlink:href="#m2b37823d12" y="149.40725"/>
      </g>
     </g>
    </g>
    <g id="ytick_21">
     <g id="line2d_49">
      <path clip-path="url(#pc6477210ae)" d="M 224.8675 140.735379 
L 581.9875 140.735379 
" style="fill:none;stroke:#b0b0b0;stroke-linecap:square;stroke-width:0.8;"/>
     </g>
     <g id="line2d_50">
      <g>
       <use style="stroke:#000000;stroke-width:2;" x="224.8675" xlink:href="#m2b37823d12" y="140.735379"/>
      </g>
     </g>
    </g>
    <g id="ytick_22">
     <g id="line2d_51">
      <path clip-path="url(#pc6477210ae)" d="M 224.8675 134.008954 
L 581.9875 134.008954 
" style="fill:none;stroke:#b0b0b0;stroke-linecap:square;stroke-width:0.8;"/>
     </g>
     <g id="line2d_52">
      <g>
       <use style="stroke:#000000;stroke-width:2;" x="224.8675" xlink:href="#m2b37823d12" y="134.008954"/>
      </g>
     </g>
    </g>
    <g id="ytick_23">
     <g id="line2d_53">
      <path clip-path="url(#pc6477210ae)" d="M 224.8675 128.513064 
L 581.9875 128.513064 
" style="fill:none;stroke:#b0b0b0;stroke-linecap:square;stroke-width:0.8;"/>
     </g>
     <g id="line2d_54">
      <g>
       <use style="stroke:#000000;stroke-width:2;" x="224.8675" xlink:href="#m2b37823d12" y="128.513064"/>
      </g>
     </g>
    </g>
    <g id="ytick_24">
     <g id="line2d_55">
      <path clip-path="url(#pc6477210ae)" d="M 224.8675 123.866356 
L 581.9875 123.866356 
" style="fill:none;stroke:#b0b0b0;stroke-linecap:square;stroke-width:0.8;"/>
     </g>
     <g id="line2d_56">
      <g>
       <use style="stroke:#000000;stroke-width:2;" x="224.8675" xlink:href="#m2b37823d12" y="123.866356"/>
      </g>
     </g>
    </g>
    <g id="ytick_25">
     <g id="line2d_57">
      <path clip-path="url(#pc6477210ae)" d="M 224.8675 119.841194 
L 581.9875 119.841194 
" style="fill:none;stroke:#b0b0b0;stroke-linecap:square;stroke-width:0.8;"/>
     </g>
     <g id="line2d_58">
      <g>
       <use style="stroke:#000000;stroke-width:2;" x="224.8675" xlink:href="#m2b37823d12" y="119.841194"/>
      </g>
     </g>
    </g>
    <g id="ytick_26">
     <g id="line2d_59">
      <path clip-path="url(#pc6477210ae)" d="M 224.8675 116.290749 
L 581.9875 116.290749 
" style="fill:none;stroke:#b0b0b0;stroke-linecap:square;stroke-width:0.8;"/>
     </g>
     <g id="line2d_60">
      <g>
       <use style="stroke:#000000;stroke-width:2;" x="224.8675" xlink:href="#m2b37823d12" y="116.290749"/>
      </g>
     </g>
    </g>
    <g id="ytick_27">
     <g id="line2d_61">
      <path clip-path="url(#pc6477210ae)" d="M 224.8675 92.220583 
L 581.9875 92.220583 
" style="fill:none;stroke:#b0b0b0;stroke-linecap:square;stroke-width:0.8;"/>
     </g>
     <g id="line2d_62">
      <g>
       <use style="stroke:#000000;stroke-width:2;" x="224.8675" xlink:href="#m2b37823d12" y="92.220583"/>
      </g>
     </g>
    </g>
    <g id="ytick_28">
     <g id="line2d_63">
      <path clip-path="url(#pc6477210ae)" d="M 224.8675 79.998268 
L 581.9875 79.998268 
" style="fill:none;stroke:#b0b0b0;stroke-linecap:square;stroke-width:0.8;"/>
     </g>
     <g id="line2d_64">
      <g>
       <use style="stroke:#000000;stroke-width:2;" x="224.8675" xlink:href="#m2b37823d12" y="79.998268"/>
      </g>
     </g>
    </g>
    <g id="ytick_29">
     <g id="line2d_65">
      <path clip-path="url(#pc6477210ae)" d="M 224.8675 71.326398 
L 581.9875 71.326398 
" style="fill:none;stroke:#b0b0b0;stroke-linecap:square;stroke-width:0.8;"/>
     </g>
     <g id="line2d_66">
      <g>
       <use style="stroke:#000000;stroke-width:2;" x="224.8675" xlink:href="#m2b37823d12" y="71.326398"/>
      </g>
     </g>
    </g>
    <g id="ytick_30">
     <g id="line2d_67">
      <path clip-path="url(#pc6477210ae)" d="M 224.8675 64.599973 
L 581.9875 64.599973 
" style="fill:none;stroke:#b0b0b0;stroke-linecap:square;stroke-width:0.8;"/>
     </g>
     <g id="line2d_68">
      <g>
       <use style="stroke:#000000;stroke-width:2;" x="224.8675" xlink:href="#m2b37823d12" y="64.599973"/>
      </g>
     </g>
    </g>
    <g id="ytick_31">
     <g id="line2d_69">
      <path clip-path="url(#pc6477210ae)" d="M 224.8675 59.104083 
L 581.9875 59.104083 
" style="fill:none;stroke:#b0b0b0;stroke-linecap:square;stroke-width:0.8;"/>
     </g>
     <g id="line2d_70">
      <g>
       <use style="stroke:#000000;stroke-width:2;" x="224.8675" xlink:href="#m2b37823d12" y="59.104083"/>
      </g>
     </g>
    </g>
    <g id="ytick_32">
     <g id="line2d_71">
      <path clip-path="url(#pc6477210ae)" d="M 224.8675 54.457374 
L 581.9875 54.457374 
" style="fill:none;stroke:#b0b0b0;stroke-linecap:square;stroke-width:0.8;"/>
     </g>
     <g id="line2d_72">
      <g>
       <use style="stroke:#000000;stroke-width:2;" x="224.8675" xlink:href="#m2b37823d12" y="54.457374"/>
      </g>
     </g>
    </g>
    <g id="ytick_33">
     <g id="line2d_73">
      <path clip-path="url(#pc6477210ae)" d="M 224.8675 50.432212 
L 581.9875 50.432212 
" style="fill:none;stroke:#b0b0b0;stroke-linecap:square;stroke-width:0.8;"/>
     </g>
     <g id="line2d_74">
      <g>
       <use style="stroke:#000000;stroke-width:2;" x="224.8675" xlink:href="#m2b37823d12" y="50.432212"/>
      </g>
     </g>
    </g>
    <g id="text_14">
     <!-- log10(aRT1/aRT0) or ~#succ -->
     <defs>
      <path d="M 44.390625 34.1875 
Q 47.5625 33.109375 50.5625 29.59375 
Q 53.5625 26.078125 56.59375 19.921875 
L 66.609375 0 
L 56 0 
L 46.6875 18.703125 
Q 43.0625 26.03125 39.671875 28.421875 
Q 36.28125 30.8125 30.421875 30.8125 
L 19.671875 30.8125 
L 19.671875 0 
L 9.8125 0 
L 9.8125 72.90625 
L 32.078125 72.90625 
Q 44.578125 72.90625 50.734375 67.671875 
Q 56.890625 62.453125 56.890625 51.90625 
Q 56.890625 45.015625 53.6875 40.46875 
Q 50.484375 35.9375 44.390625 34.1875 
z
M 19.671875 64.796875 
L 19.671875 38.921875 
L 32.078125 38.921875 
Q 39.203125 38.921875 42.84375 42.21875 
Q 46.484375 45.515625 46.484375 51.90625 
Q 46.484375 58.296875 42.84375 61.546875 
Q 39.203125 64.796875 32.078125 64.796875 
z
" id="DejaVuSans-52"/>
      <path d="M -0.296875 72.90625 
L 61.375 72.90625 
L 61.375 64.59375 
L 35.5 64.59375 
L 35.5 0 
L 25.59375 0 
L 25.59375 64.59375 
L -0.296875 64.59375 
z
" id="DejaVuSans-54"/>
      <path d="M 25.390625 72.90625 
L 33.6875 72.90625 
L 8.296875 -9.28125 
L 0 -9.28125 
z
" id="DejaVuSans-2f"/>
      <path d="M 73.1875 39.890625 
L 73.1875 31.203125 
Q 68.0625 27.34375 63.6875 25.6875 
Q 59.328125 24.03125 54.59375 24.03125 
Q 49.21875 24.03125 42.09375 26.90625 
Q 41.546875 27.09375 41.3125 27.203125 
Q 40.96875 27.34375 40.234375 27.59375 
Q 32.671875 30.609375 28.078125 30.609375 
Q 23.78125 30.609375 19.578125 28.734375 
Q 15.375 26.859375 10.59375 22.796875 
L 10.59375 31.5 
Q 15.71875 35.359375 20.09375 37.03125 
Q 24.46875 38.71875 29.203125 38.71875 
Q 34.578125 38.71875 41.75 35.796875 
Q 42.234375 35.59375 42.484375 35.5 
Q 42.875 35.359375 43.5625 35.109375 
Q 51.125 32.078125 55.71875 32.078125 
Q 59.90625 32.078125 64.03125 33.9375 
Q 68.171875 35.796875 73.1875 39.890625 
z
" id="DejaVuSans-7e"/>
      <path d="M 51.125 44 
L 36.921875 44 
L 32.8125 27.6875 
L 47.125 27.6875 
z
M 43.796875 71.78125 
L 38.71875 51.515625 
L 52.984375 51.515625 
L 58.109375 71.78125 
L 65.921875 71.78125 
L 60.890625 51.515625 
L 76.125 51.515625 
L 76.125 44 
L 58.984375 44 
L 54.984375 27.6875 
L 70.515625 27.6875 
L 70.515625 20.21875 
L 53.078125 20.21875 
L 48 0 
L 40.1875 0 
L 45.21875 20.21875 
L 30.90625 20.21875 
L 25.875 0 
L 18.015625 0 
L 23.09375 20.21875 
L 7.71875 20.21875 
L 7.71875 27.6875 
L 24.90625 27.6875 
L 29 44 
L 13.28125 44 
L 13.28125 51.515625 
L 30.90625 51.515625 
L 35.890625 71.78125 
z
" id="DejaVuSans-23"/>
      <path d="M 44.28125 53.078125 
L 44.28125 44.578125 
Q 40.484375 46.53125 36.375 47.5 
Q 32.28125 48.484375 27.875 48.484375 
Q 21.1875 48.484375 17.84375 46.4375 
Q 14.5 44.390625 14.5 40.28125 
Q 14.5 37.15625 16.890625 35.375 
Q 19.28125 33.59375 26.515625 31.984375 
L 29.59375 31.296875 
Q 39.15625 29.25 43.1875 25.515625 
Q 47.21875 21.78125 47.21875 15.09375 
Q 47.21875 7.46875 41.1875 3.015625 
Q 35.15625 -1.421875 24.609375 -1.421875 
Q 20.21875 -1.421875 15.453125 -0.5625 
Q 10.6875 0.296875 5.421875 2 
L 5.421875 11.28125 
Q 10.40625 8.6875 15.234375 7.390625 
Q 20.0625 6.109375 24.8125 6.109375 
Q 31.15625 6.109375 34.5625 8.28125 
Q 37.984375 10.453125 37.984375 14.40625 
Q 37.984375 18.0625 35.515625 20.015625 
Q 33.0625 21.96875 24.703125 23.78125 
L 21.578125 24.515625 
Q 13.234375 26.265625 9.515625 29.90625 
Q 5.8125 33.546875 5.8125 39.890625 
Q 5.8125 47.609375 11.28125 51.796875 
Q 16.75 56 26.8125 56 
Q 31.78125 56 36.171875 55.265625 
Q 40.578125 54.546875 44.28125 53.078125 
z
" id="DejaVuSans-73"/>
      <path d="M 8.5 21.578125 
L 8.5 54.6875 
L 17.484375 54.6875 
L 17.484375 21.921875 
Q 17.484375 14.15625 20.5 10.265625 
Q 23.53125 6.390625 29.59375 6.390625 
Q 36.859375 6.390625 41.078125 11.03125 
Q 45.3125 15.671875 45.3125 23.6875 
L 45.3125 54.6875 
L 54.296875 54.6875 
L 54.296875 0 
L 45.3125 0 
L 45.3125 8.40625 
Q 42.046875 3.421875 37.71875 1 
Q 33.40625 -1.421875 27.6875 -1.421875 
Q 18.265625 -1.421875 13.375 4.4375 
Q 8.5 10.296875 8.5 21.578125 
z
M 31.109375 56 
z
" id="DejaVuSans-75"/>
      <path d="M 48.78125 52.59375 
L 48.78125 44.1875 
Q 44.96875 46.296875 41.140625 47.34375 
Q 37.3125 48.390625 33.40625 48.390625 
Q 24.65625 48.390625 19.8125 42.84375 
Q 14.984375 37.3125 14.984375 27.296875 
Q 14.984375 17.28125 19.8125 11.734375 
Q 24.65625 6.203125 33.40625 6.203125 
Q 37.3125 6.203125 41.140625 7.25 
Q 44.96875 8.296875 48.78125 10.40625 
L 48.78125 2.09375 
Q 45.015625 0.34375 40.984375 -0.53125 
Q 36.96875 -1.421875 32.421875 -1.421875 
Q 20.0625 -1.421875 12.78125 6.34375 
Q 5.515625 14.109375 5.515625 27.296875 
Q 5.515625 40.671875 12.859375 48.328125 
Q 20.21875 56 33.015625 56 
Q 37.15625 56 41.109375 55.140625 
Q 45.0625 54.296875 48.78125 52.59375 
z
" id="DejaVuSans-63"/>
     </defs>
     <g transform="translate(25.43625 357.8475)rotate(-90)scale(0.24 -0.24)">
      <use xlink:href="#DejaVuSans-6c"/>
      <use x="27.783203" xlink:href="#DejaVuSans-6f"/>
      <use x="88.964844" xlink:href="#DejaVuSans-67"/>
      <use x="152.441406" xlink:href="#DejaVuSans-31"/>
      <use x="216.064453" xlink:href="#DejaVuSans-30"/>
      <use x="279.6875" xlink:href="#DejaVuSans-28"/>
      <use x="318.701172" xlink:href="#DejaVuSans-61"/>
      <use x="379.980469" xlink:href="#DejaVuSans-52"/>
      <use x="449.353516" xlink:href="#DejaVuSans-54"/>
      <use x="510.4375" xlink:href="#DejaVuSans-31"/>
      <use x="574.060547" xlink:href="#DejaVuSans-2f"/>
      <use x="607.751953" xlink:href="#DejaVuSans-61"/>
      <use x="669.03125" xlink:href="#DejaVuSans-52"/>
      <use x="738.404297" xlink:href="#DejaVuSans-54"/>
      <use x="799.488281" xlink:href="#DejaVuSans-30"/>
      <use x="863.111328" xlink:href="#DejaVuSans-29"/>
      <use x="902.125" xlink:href="#DejaVuSans-20"/>
      <use x="933.912109" xlink:href="#DejaVuSans-6f"/>
      <use x="995.09375" xlink:href="#DejaVuSans-72"/>
      <use x="1036.207031" xlink:href="#DejaVuSans-20"/>
      <use x="1067.994141" xlink:href="#DejaVuSans-7e"/>
      <use x="1151.783203" xlink:href="#DejaVuSans-23"/>
      <use x="1235.572266" xlink:href="#DejaVuSans-73"/>
      <use x="1287.671875" xlink:href="#DejaVuSans-75"/>
      <use x="1351.050781" xlink:href="#DejaVuSans-63"/>
      <use x="1406.03125" xlink:href="#DejaVuSans-63"/>
     </g>
    </g>
   </g>
   <g id="line2d_75">
    <path clip-path="url(#pc6477210ae)" d="M 224.8675 184.757656 
L 231.360591 185.057014 
L 237.853682 186.20066 
L 244.346773 186.688145 
L 250.839864 186.764017 
L 257.332955 187.354297 
L 263.826045 187.437741 
L 270.319136 187.883213 
L 276.812227 264.076342 
L 283.305318 208.500651 
L 289.798409 222.151306 
L 296.2915 228.16762 
L 302.784591 213.379931 
L 309.277682 223.899477 
L 315.770773 229.814836 
L 322.263864 243.202945 
L 328.756955 260.042925 
L 335.250045 285.970176 
L 341.743136 309.130234 
L 348.236227 309.131133 
L 354.729318 309.135628 
" style="fill:none;stroke:#00bfbf;stroke-dasharray:5.55,2.4;stroke-dashoffset:0;stroke-width:1.5;"/>
   </g>
   <g id="line2d_76">
    <defs>
     <path d="M -6 0 
L 6 0 
M 0 6 
L 0 -6 
" id="m4e84cb4d92" style="stroke:#00bfbf;"/>
    </defs>
    <g clip-path="url(#pc6477210ae)">
     <use style="fill:none;stroke:#00bfbf;" x="270.319136" xlink:href="#m4e84cb4d92" y="187.883213"/>
     <use style="fill:none;stroke:#00bfbf;" x="270.319136" xlink:href="#m4e84cb4d92" y="187.883213"/>
     <use style="fill:none;stroke:#00bfbf;" x="289.798409" xlink:href="#m4e84cb4d92" y="222.151306"/>
     <use style="fill:none;stroke:#00bfbf;" x="315.770773" xlink:href="#m4e84cb4d92" y="229.814836"/>
     <use style="fill:none;stroke:#00bfbf;" x="348.236227" xlink:href="#m4e84cb4d92" y="309.131133"/>
     <use style="fill:none;stroke:#00bfbf;" x="354.729318" xlink:href="#m4e84cb4d92" y="309.135628"/>
    </g>
   </g>
   <g id="line2d_77"/>
   <g id="line2d_78">
    <path clip-path="url(#pc6477210ae)" d="M 224.8675 184.757656 
L 231.360591 185.057014 
L 237.853682 186.20066 
L 244.346773 186.688145 
L 250.839864 186.764017 
L 257.332955 187.354297 
L 263.826045 187.437741 
L 270.319136 187.883213 
L 276.812227 264.076342 
" style="fill:none;stroke:#00bfbf;stroke-linecap:square;stroke-width:1.5;"/>
   </g>
   <g id="line2d_79">
    <g clip-path="url(#pc6477210ae)">
     <use style="fill:none;stroke:#00bfbf;" x="263.826045" xlink:href="#m4e84cb4d92" y="187.437741"/>
     <use style="fill:none;stroke:#00bfbf;" x="270.319136" xlink:href="#m4e84cb4d92" y="187.883213"/>
     <use style="fill:none;stroke:#00bfbf;" x="270.319136" xlink:href="#m4e84cb4d92" y="187.883213"/>
     <use style="fill:none;stroke:#00bfbf;" x="276.812227" xlink:href="#m4e84cb4d92" y="264.076342"/>
    </g>
   </g>
   <g id="line2d_80">
    <path clip-path="url(#pc6477210ae)" d="M 224.8675 182.596299 
L 231.360591 182.594098 
L 237.853682 182.590961 
L 244.346773 182.977051 
L 250.839864 182.964735 
L 257.332955 183.00703 
L 263.826045 184.141054 
L 270.319136 210.38991 
L 276.812227 217.653018 
L 283.305318 225.420303 
L 289.798409 224.365585 
L 296.2915 225.599 
L 302.784591 225.618341 
L 309.277682 241.703835 
L 315.770773 269.538461 
L 322.263864 269.506936 
L 328.756955 262.697165 
L 335.250045 277.247789 
L 341.743136 300.325955 
L 348.236227 300.338734 
" style="fill:none;stroke:#008000;stroke-dasharray:5.55,2.4;stroke-dashoffset:0;stroke-width:1.5;"/>
   </g>
   <g id="line2d_81">
    <defs>
     <path d="M -0 6 
L 6 -6 
L -6 -6 
z
" id="m91470e7488" style="stroke:#008000;stroke-linejoin:miter;"/>
    </defs>
    <g clip-path="url(#pc6477210ae)">
     <use style="fill:none;stroke:#008000;stroke-linejoin:miter;" x="257.332955" xlink:href="#m91470e7488" y="183.00703"/>
     <use style="fill:none;stroke:#008000;stroke-linejoin:miter;" x="276.812227" xlink:href="#m91470e7488" y="217.653018"/>
     <use style="fill:none;stroke:#008000;stroke-linejoin:miter;" x="302.784591" xlink:href="#m91470e7488" y="225.618341"/>
     <use style="fill:none;stroke:#008000;stroke-linejoin:miter;" x="315.770773" xlink:href="#m91470e7488" y="269.538461"/>
     <use style="fill:none;stroke:#008000;stroke-linejoin:miter;" x="328.756955" xlink:href="#m91470e7488" y="262.697165"/>
     <use style="fill:none;stroke:#008000;stroke-linejoin:miter;" x="348.236227" xlink:href="#m91470e7488" y="300.338734"/>
    </g>
   </g>
   <g id="line2d_82"/>
   <g id="line2d_83">
    <path clip-path="url(#pc6477210ae)" d="M 224.8675 182.596299 
L 231.360591 182.594098 
L 237.853682 182.590961 
L 244.346773 182.977051 
L 250.839864 182.964735 
L 257.332955 183.00703 
L 263.826045 184.141054 
L 270.319136 210.38991 
" style="fill:none;stroke:#008000;stroke-linecap:square;stroke-width:1.5;"/>
   </g>
   <g id="line2d_84">
    <g clip-path="url(#pc6477210ae)">
     <use style="fill:none;stroke:#008000;stroke-linejoin:miter;" x="257.332955" xlink:href="#m91470e7488" y="183.00703"/>
     <use style="fill:none;stroke:#008000;stroke-linejoin:miter;" x="263.826045" xlink:href="#m91470e7488" y="184.141054"/>
     <use style="fill:none;stroke:#008000;stroke-linejoin:miter;" x="263.826045" xlink:href="#m91470e7488" y="184.141054"/>
     <use style="fill:none;stroke:#008000;stroke-linejoin:miter;" x="270.319136" xlink:href="#m91470e7488" y="210.38991"/>
    </g>
   </g>
   <g id="line2d_85">
    <path clip-path="url(#pc6477210ae)" d="M 224.8675 182.568943 
L 231.360591 182.831344 
L 237.853682 182.868996 
L 244.346773 183.431644 
L 250.839864 183.478885 
L 257.332955 183.747036 
L 263.826045 183.606651 
L 270.319136 203.922188 
L 276.812227 182.720626 
L 283.305318 196.458671 
L 289.798409 220.719165 
L 296.2915 228.809305 
L 302.784591 254.118454 
L 309.277682 268.678045 
L 315.770773 268.679546 
L 322.263864 268.612354 
L 328.756955 282.39383 
" style="fill:none;stroke:#0000ff;stroke-dasharray:5.55,2.4;stroke-dashoffset:0;stroke-width:1.5;"/>
   </g>
   <g id="line2d_86">
    <defs>
     <path d="M 0 -6 
L -1.347084 -1.854102 
L -5.706339 -1.854102 
L -2.179628 0.708204 
L -3.526712 4.854102 
L -0 2.291796 
L 3.526712 4.854102 
L 2.179628 0.708204 
L 5.706339 -1.854102 
L 1.347084 -1.854102 
z
" id="m6a2994e5cd" style="stroke:#0000ff;stroke-linejoin:bevel;"/>
    </defs>
    <g clip-path="url(#pc6477210ae)">
     <use style="fill:none;stroke:#0000ff;stroke-linejoin:bevel;" x="257.332955" xlink:href="#m6a2994e5cd" y="183.747036"/>
     <use style="fill:none;stroke:#0000ff;stroke-linejoin:bevel;" x="270.319136" xlink:href="#m6a2994e5cd" y="203.922188"/>
     <use style="fill:none;stroke:#0000ff;stroke-linejoin:bevel;" x="283.305318" xlink:href="#m6a2994e5cd" y="196.458671"/>
     <use style="fill:none;stroke:#0000ff;stroke-linejoin:bevel;" x="296.2915" xlink:href="#m6a2994e5cd" y="228.809305"/>
     <use style="fill:none;stroke:#0000ff;stroke-linejoin:bevel;" x="315.770773" xlink:href="#m6a2994e5cd" y="268.679546"/>
     <use style="fill:none;stroke:#0000ff;stroke-linejoin:bevel;" x="328.756955" xlink:href="#m6a2994e5cd" y="282.39383"/>
    </g>
   </g>
   <g id="line2d_87"/>
   <g id="line2d_88">
    <path clip-path="url(#pc6477210ae)" d="M 224.8675 182.568943 
L 231.360591 182.831344 
L 237.853682 182.868996 
L 244.346773 183.431644 
L 250.839864 183.478885 
L 257.332955 183.747036 
L 263.826045 183.606651 
" style="fill:none;stroke:#0000ff;stroke-linecap:square;stroke-width:1.5;"/>
   </g>
   <g id="line2d_89">
    <g clip-path="url(#pc6477210ae)">
     <use style="fill:none;stroke:#0000ff;stroke-linejoin:bevel;" x="231.360591" xlink:href="#m6a2994e5cd" y="182.831344"/>
     <use style="fill:none;stroke:#0000ff;stroke-linejoin:bevel;" x="244.346773" xlink:href="#m6a2994e5cd" y="183.431644"/>
     <use style="fill:none;stroke:#0000ff;stroke-linejoin:bevel;" x="257.332955" xlink:href="#m6a2994e5cd" y="183.747036"/>
     <use style="fill:none;stroke:#0000ff;stroke-linejoin:bevel;" x="263.826045" xlink:href="#m6a2994e5cd" y="183.606651"/>
    </g>
   </g>
   <g id="line2d_90">
    <path clip-path="url(#pc6477210ae)" d="M 224.8675 185.050375 
L 231.360591 184.920626 
L 237.853682 185.153771 
L 244.346773 184.864935 
L 250.839864 184.892111 
L 257.332955 185.53529 
L 263.826045 253.791361 
L 270.319136 244.391896 
L 276.812227 260.086968 
L 283.305318 277.764278 
L 289.798409 301.734824 
" style="fill:none;stroke:#000000;stroke-dasharray:5.55,2.4;stroke-dashoffset:0;stroke-width:1.5;"/>
   </g>
   <g id="line2d_91">
    <defs>
     <path d="M 0 6 
C 1.591219 6 3.117479 5.367802 4.242641 4.242641 
C 5.367802 3.117479 6 1.591219 6 0 
C 6 -1.591219 5.367802 -3.117479 4.242641 -4.242641 
C 3.117479 -5.367802 1.591219 -6 0 -6 
C -1.591219 -6 -3.117479 -5.367802 -4.242641 -4.242641 
C -5.367802 -3.117479 -6 -1.591219 -6 0 
C -6 1.591219 -5.367802 3.117479 -4.242641 4.242641 
C -3.117479 5.367802 -1.591219 6 0 6 
z
" id="m1f66b9c79e" style="stroke:#000000;"/>
    </defs>
    <g clip-path="url(#pc6477210ae)">
     <use style="fill:none;stroke:#000000;" x="250.839864" xlink:href="#m1f66b9c79e" y="184.892111"/>
     <use style="fill:none;stroke:#000000;" x="257.332955" xlink:href="#m1f66b9c79e" y="185.53529"/>
     <use style="fill:none;stroke:#000000;" x="283.305318" xlink:href="#m1f66b9c79e" y="277.764278"/>
     <use style="fill:none;stroke:#000000;" x="289.798409" xlink:href="#m1f66b9c79e" y="301.734824"/>
    </g>
   </g>
   <g id="line2d_92"/>
   <g id="line2d_93">
    <path clip-path="url(#pc6477210ae)" d="M 224.8675 185.050375 
L 231.360591 184.920626 
L 237.853682 185.153771 
L 244.346773 184.864935 
L 250.839864 184.892111 
L 257.332955 185.53529 
L 263.826045 253.791361 
L 270.319136 244.391896 
L 276.812227 260.086968 
" style="fill:none;stroke:#000000;stroke-linecap:square;stroke-width:1.5;"/>
   </g>
   <g id="line2d_94">
    <g clip-path="url(#pc6477210ae)">
     <use style="fill:none;stroke:#000000;" x="257.332955" xlink:href="#m1f66b9c79e" y="185.53529"/>
     <use style="fill:none;stroke:#000000;" x="257.332955" xlink:href="#m1f66b9c79e" y="185.53529"/>
     <use style="fill:none;stroke:#000000;" x="270.319136" xlink:href="#m1f66b9c79e" y="244.391896"/>
     <use style="fill:none;stroke:#000000;" x="276.812227" xlink:href="#m1f66b9c79e" y="260.086968"/>
    </g>
   </g>
   <g id="line2d_95">
    <path clip-path="url(#pc6477210ae)" d="M 224.8675 180.411728 
L 231.360591 180.775523 
L 237.853682 180.253183 
L 244.346773 228.421472 
L 250.839864 206.246623 
L 257.332955 211.622219 
L 263.826045 192.050055 
L 270.319136 192.050561 
L 276.812227 204.018091 
L 283.305318 241.019586 
L 289.798409 231.638894 
" style="fill:none;stroke:#ff0000;stroke-dasharray:5.55,2.4;stroke-dashoffset:0;stroke-width:1.5;"/>
   </g>
   <g id="line2d_96">
    <defs>
     <path d="M -6 6 
L 6 6 
L 6 -6 
L -6 -6 
z
" id="m078f4a1a79" style="stroke:#ff0000;stroke-linejoin:miter;"/>
    </defs>
    <g clip-path="url(#pc6477210ae)">
     <use style="fill:none;stroke:#ff0000;stroke-linejoin:miter;" x="237.853682" xlink:href="#m078f4a1a79" y="180.253183"/>
     <use style="fill:none;stroke:#ff0000;stroke-linejoin:miter;" x="250.839864" xlink:href="#m078f4a1a79" y="206.246623"/>
     <use style="fill:none;stroke:#ff0000;stroke-linejoin:miter;" x="276.812227" xlink:href="#m078f4a1a79" y="204.018091"/>
     <use style="fill:none;stroke:#ff0000;stroke-linejoin:miter;" x="289.798409" xlink:href="#m078f4a1a79" y="231.638894"/>
    </g>
   </g>
   <g id="line2d_97"/>
   <g id="line2d_98">
    <path clip-path="url(#pc6477210ae)" d="M 224.8675 180.411728 
L 231.360591 180.775523 
L 237.853682 180.253183 
L 244.346773 228.421472 
L 250.839864 206.246623 
L 257.332955 211.622219 
L 263.826045 192.050055 
L 270.319136 192.050561 
" style="fill:none;stroke:#ff0000;stroke-linecap:square;stroke-width:1.5;"/>
   </g>
   <g id="line2d_99">
    <g clip-path="url(#pc6477210ae)">
     <use style="fill:none;stroke:#ff0000;stroke-linejoin:miter;" x="237.853682" xlink:href="#m078f4a1a79" y="180.253183"/>
     <use style="fill:none;stroke:#ff0000;stroke-linejoin:miter;" x="244.346773" xlink:href="#m078f4a1a79" y="228.421472"/>
     <use style="fill:none;stroke:#ff0000;stroke-linejoin:miter;" x="263.826045" xlink:href="#m078f4a1a79" y="192.050055"/>
     <use style="fill:none;stroke:#ff0000;stroke-linejoin:miter;" x="270.319136" xlink:href="#m078f4a1a79" y="192.050561"/>
    </g>
   </g>
   <g id="line2d_100">
    <defs>
     <path d="M -0 11.313708 
L 11.313708 0 
L 0 -11.313708 
L -11.313708 -0 
z
" id="mccc76968c7" style="stroke:#00bfbf;stroke-linejoin:miter;"/>
    </defs>
    <g clip-path="url(#pc6477210ae)">
     <use style="fill:#00bfbf;stroke:#00bfbf;stroke-linejoin:miter;" x="354.729318" xlink:href="#mccc76968c7" y="309.135628"/>
    </g>
   </g>
   <g id="line2d_101">
    <path clip-path="url(#pc6477210ae)" d="M 354.729318 309.135628 
L 354.729318 291.18615 
" style="fill:none;stroke:#00bfbf;stroke-dasharray:5.55,2.4;stroke-dashoffset:0;stroke-width:1.5;"/>
   </g>
   <g id="line2d_102">
    <g clip-path="url(#pc6477210ae)">
     <use style="fill:#00bfbf;stroke:#00bfbf;stroke-linejoin:miter;" x="354.729318" xlink:href="#mccc76968c7" y="291.18615"/>
    </g>
   </g>
   <g id="line2d_103">
    <path clip-path="url(#pc6477210ae)" d="M 354.729318 291.18615 
L 581.9875 291.18615 
" style="fill:none;stroke:#00bfbf;stroke-dasharray:5.55,2.4;stroke-dashoffset:0;stroke-width:1.5;"/>
   </g>
   <g id="line2d_104">
    <g clip-path="url(#pc6477210ae)">
     <use style="fill:none;stroke:#00bfbf;" x="354.729318" xlink:href="#m4e84cb4d92" y="291.18615"/>
     <use style="fill:none;stroke:#00bfbf;" x="354.729318" xlink:href="#m4e84cb4d92" y="291.18615"/>
     <use style="fill:none;stroke:#00bfbf;" x="354.729318" xlink:href="#m4e84cb4d92" y="291.18615"/>
     <use style="fill:none;stroke:#00bfbf;" x="354.729318" xlink:href="#m4e84cb4d92" y="291.18615"/>
     <use style="fill:none;stroke:#00bfbf;" x="354.729318" xlink:href="#m4e84cb4d92" y="291.18615"/>
     <use style="fill:none;stroke:#00bfbf;" x="354.729318" xlink:href="#m4e84cb4d92" y="291.18615"/>
     <use style="fill:none;stroke:#00bfbf;" x="354.729318" xlink:href="#m4e84cb4d92" y="291.18615"/>
     <use style="fill:none;stroke:#00bfbf;" x="354.729318" xlink:href="#m4e84cb4d92" y="291.18615"/>
     <use style="fill:none;stroke:#00bfbf;" x="581.9875" xlink:href="#m4e84cb4d92" y="291.18615"/>
    </g>
   </g>
   <g id="line2d_105">
    <defs>
     <path d="M -0 11.313708 
L 11.313708 0 
L 0 -11.313708 
L -11.313708 -0 
z
" id="m27333564f9" style="stroke:#008000;stroke-linejoin:miter;"/>
    </defs>
    <g clip-path="url(#pc6477210ae)">
     <use style="fill:#008000;stroke:#008000;stroke-linejoin:miter;" x="348.236227" xlink:href="#m27333564f9" y="300.338734"/>
    </g>
   </g>
   <g id="line2d_106">
    <path clip-path="url(#pc6477210ae)" d="M 348.236227 300.338734 
L 348.236227 283.64631 
" style="fill:none;stroke:#008000;stroke-dasharray:5.55,2.4;stroke-dashoffset:0;stroke-width:1.5;"/>
   </g>
   <g id="line2d_107">
    <g clip-path="url(#pc6477210ae)">
     <use style="fill:#008000;stroke:#008000;stroke-linejoin:miter;" x="348.236227" xlink:href="#m27333564f9" y="283.64631"/>
    </g>
   </g>
   <g id="line2d_108">
    <path clip-path="url(#pc6477210ae)" d="M 348.236227 283.64631 
L 354.729318 283.64631 
L 581.9875 274.77591 
" style="fill:none;stroke:#008000;stroke-dasharray:5.55,2.4;stroke-dashoffset:0;stroke-width:1.5;"/>
   </g>
   <g id="line2d_109">
    <g clip-path="url(#pc6477210ae)">
     <use style="fill:none;stroke:#008000;stroke-linejoin:miter;" x="348.236227" xlink:href="#m91470e7488" y="283.64631"/>
     <use style="fill:none;stroke:#008000;stroke-linejoin:miter;" x="348.236227" xlink:href="#m91470e7488" y="283.64631"/>
     <use style="fill:none;stroke:#008000;stroke-linejoin:miter;" x="348.236227" xlink:href="#m91470e7488" y="283.64631"/>
     <use style="fill:none;stroke:#008000;stroke-linejoin:miter;" x="348.236227" xlink:href="#m91470e7488" y="283.64631"/>
     <use style="fill:none;stroke:#008000;stroke-linejoin:miter;" x="354.729318" xlink:href="#m91470e7488" y="283.64631"/>
     <use style="fill:none;stroke:#008000;stroke-linejoin:miter;" x="354.729318" xlink:href="#m91470e7488" y="283.64631"/>
     <use style="fill:none;stroke:#008000;stroke-linejoin:miter;" x="354.729318" xlink:href="#m91470e7488" y="283.64631"/>
     <use style="fill:none;stroke:#008000;stroke-linejoin:miter;" x="354.729318" xlink:href="#m91470e7488" y="283.64631"/>
     <use style="fill:none;stroke:#008000;stroke-linejoin:miter;" x="354.729318" xlink:href="#m91470e7488" y="283.64631"/>
     <use style="fill:none;stroke:#008000;stroke-linejoin:miter;" x="581.9875" xlink:href="#m91470e7488" y="274.77591"/>
    </g>
   </g>
   <g id="line2d_110">
    <defs>
     <path d="M -0 11.313708 
L 11.313708 0 
L 0 -11.313708 
L -11.313708 -0 
z
" id="m418ef2fdea" style="stroke:#0000ff;stroke-linejoin:miter;"/>
    </defs>
    <g clip-path="url(#pc6477210ae)">
     <use style="fill:#0000ff;stroke:#0000ff;stroke-linejoin:miter;" x="328.756955" xlink:href="#m418ef2fdea" y="282.39383"/>
    </g>
   </g>
   <g id="line2d_111">
    <path clip-path="url(#pc6477210ae)" d="M 328.756955 282.39383 
L 328.756955 267.23607 
" style="fill:none;stroke:#0000ff;stroke-dasharray:5.55,2.4;stroke-dashoffset:0;stroke-width:1.5;"/>
   </g>
   <g id="line2d_112">
    <g clip-path="url(#pc6477210ae)">
     <use style="fill:#0000ff;stroke:#0000ff;stroke-linejoin:miter;" x="328.756955" xlink:href="#m418ef2fdea" y="267.23607"/>
    </g>
   </g>
   <g id="line2d_113">
    <path clip-path="url(#pc6477210ae)" d="M 328.756955 267.23607 
L 348.236227 267.23607 
L 374.208591 267.23607 
L 581.9875 267.23607 
" style="fill:none;stroke:#0000ff;stroke-dasharray:5.55,2.4;stroke-dashoffset:0;stroke-width:1.5;"/>
   </g>
   <g id="line2d_114">
    <g clip-path="url(#pc6477210ae)">
     <use style="fill:none;stroke:#0000ff;stroke-linejoin:bevel;" x="348.236227" xlink:href="#m6a2994e5cd" y="267.23607"/>
     <use style="fill:none;stroke:#0000ff;stroke-linejoin:bevel;" x="348.236227" xlink:href="#m6a2994e5cd" y="267.23607"/>
     <use style="fill:none;stroke:#0000ff;stroke-linejoin:bevel;" x="348.236227" xlink:href="#m6a2994e5cd" y="267.23607"/>
     <use style="fill:none;stroke:#0000ff;stroke-linejoin:bevel;" x="348.236227" xlink:href="#m6a2994e5cd" y="267.23607"/>
     <use style="fill:none;stroke:#0000ff;stroke-linejoin:bevel;" x="374.208591" xlink:href="#m6a2994e5cd" y="267.23607"/>
     <use style="fill:none;stroke:#0000ff;stroke-linejoin:bevel;" x="374.208591" xlink:href="#m6a2994e5cd" y="267.23607"/>
     <use style="fill:none;stroke:#0000ff;stroke-linejoin:bevel;" x="374.208591" xlink:href="#m6a2994e5cd" y="267.23607"/>
     <use style="fill:none;stroke:#0000ff;stroke-linejoin:bevel;" x="374.208591" xlink:href="#m6a2994e5cd" y="267.23607"/>
     <use style="fill:none;stroke:#0000ff;stroke-linejoin:bevel;" x="374.208591" xlink:href="#m6a2994e5cd" y="267.23607"/>
     <use style="fill:none;stroke:#0000ff;stroke-linejoin:bevel;" x="581.9875" xlink:href="#m6a2994e5cd" y="267.23607"/>
    </g>
   </g>
   <g id="line2d_115">
    <defs>
     <path d="M -0 11.313708 
L 11.313708 0 
L 0 -11.313708 
L -11.313708 -0 
z
" id="m76d52a50a4" style="stroke:#000000;stroke-linejoin:miter;"/>
    </defs>
    <g clip-path="url(#pc6477210ae)">
     <use style="stroke:#000000;stroke-linejoin:miter;" x="289.798409" xlink:href="#m76d52a50a4" y="301.734824"/>
    </g>
   </g>
   <g id="line2d_116">
    <path clip-path="url(#pc6477210ae)" d="M 289.798409 301.734824 
L 289.798409 286.30743 
" style="fill:none;stroke:#000000;stroke-dasharray:5.55,2.4;stroke-dashoffset:0;stroke-width:1.5;"/>
   </g>
   <g id="line2d_117">
    <g clip-path="url(#pc6477210ae)">
     <use style="stroke:#000000;stroke-linejoin:miter;" x="289.798409" xlink:href="#m76d52a50a4" y="286.30743"/>
    </g>
   </g>
   <g id="line2d_118">
    <path clip-path="url(#pc6477210ae)" d="M 289.798409 286.30743 
L 296.2915 259.69623 
L 309.277682 250.82583 
L 322.263864 250.82583 
L 335.250045 250.82583 
L 581.9875 241.95543 
" style="fill:none;stroke:#000000;stroke-dasharray:5.55,2.4;stroke-dashoffset:0;stroke-width:1.5;"/>
   </g>
   <g id="line2d_119">
    <g clip-path="url(#pc6477210ae)">
     <use style="fill:none;stroke:#000000;" x="289.798409" xlink:href="#m1f66b9c79e" y="286.30743"/>
     <use style="fill:none;stroke:#000000;" x="309.277682" xlink:href="#m1f66b9c79e" y="250.82583"/>
     <use style="fill:none;stroke:#000000;" x="322.263864" xlink:href="#m1f66b9c79e" y="250.82583"/>
     <use style="fill:none;stroke:#000000;" x="322.263864" xlink:href="#m1f66b9c79e" y="250.82583"/>
     <use style="fill:none;stroke:#000000;" x="322.263864" xlink:href="#m1f66b9c79e" y="250.82583"/>
     <use style="fill:none;stroke:#000000;" x="322.263864" xlink:href="#m1f66b9c79e" y="250.82583"/>
     <use style="fill:none;stroke:#000000;" x="335.250045" xlink:href="#m1f66b9c79e" y="250.82583"/>
     <use style="fill:none;stroke:#000000;" x="335.250045" xlink:href="#m1f66b9c79e" y="250.82583"/>
     <use style="fill:none;stroke:#000000;" x="335.250045" xlink:href="#m1f66b9c79e" y="250.82583"/>
     <use style="fill:none;stroke:#000000;" x="335.250045" xlink:href="#m1f66b9c79e" y="250.82583"/>
     <use style="fill:none;stroke:#000000;" x="581.9875" xlink:href="#m1f66b9c79e" y="241.95543"/>
    </g>
   </g>
   <g id="line2d_120">
    <defs>
     <path d="M -0 11.313708 
L 11.313708 0 
L 0 -11.313708 
L -11.313708 -0 
z
" id="mb486618efe" style="stroke:#ff0000;stroke-linejoin:miter;"/>
    </defs>
    <g clip-path="url(#pc6477210ae)">
     <use style="fill:#ff0000;stroke:#ff0000;stroke-linejoin:miter;" x="289.798409" xlink:href="#mb486618efe" y="231.638894"/>
    </g>
   </g>
   <g id="line2d_121">
    <path clip-path="url(#pc6477210ae)" d="M 289.798409 231.638894 
L 289.798409 216.67479 
" style="fill:none;stroke:#ff0000;stroke-dasharray:5.55,2.4;stroke-dashoffset:0;stroke-width:1.5;"/>
   </g>
   <g id="line2d_122">
    <g clip-path="url(#pc6477210ae)">
     <use style="fill:#ff0000;stroke:#ff0000;stroke-linejoin:miter;" x="289.798409" xlink:href="#mb486618efe" y="216.67479"/>
    </g>
   </g>
   <g id="line2d_123">
    <path clip-path="url(#pc6477210ae)" d="M 289.798409 216.67479 
L 296.2915 198.93399 
L 581.9875 198.93399 
" style="fill:none;stroke:#ff0000;stroke-dasharray:5.55,2.4;stroke-dashoffset:0;stroke-width:1.5;"/>
   </g>
   <g id="line2d_124">
    <g clip-path="url(#pc6477210ae)">
     <use style="fill:none;stroke:#ff0000;stroke-linejoin:miter;" x="289.798409" xlink:href="#m078f4a1a79" y="216.67479"/>
     <use style="fill:none;stroke:#ff0000;stroke-linejoin:miter;" x="289.798409" xlink:href="#m078f4a1a79" y="216.67479"/>
     <use style="fill:none;stroke:#ff0000;stroke-linejoin:miter;" x="289.798409" xlink:href="#m078f4a1a79" y="216.67479"/>
     <use style="fill:none;stroke:#ff0000;stroke-linejoin:miter;" x="289.798409" xlink:href="#m078f4a1a79" y="216.67479"/>
     <use style="fill:none;stroke:#ff0000;stroke-linejoin:miter;" x="289.798409" xlink:href="#m078f4a1a79" y="216.67479"/>
     <use style="fill:none;stroke:#ff0000;stroke-linejoin:miter;" x="296.2915" xlink:href="#m078f4a1a79" y="198.93399"/>
     <use style="fill:none;stroke:#ff0000;stroke-linejoin:miter;" x="296.2915" xlink:href="#m078f4a1a79" y="198.93399"/>
     <use style="fill:none;stroke:#ff0000;stroke-linejoin:miter;" x="296.2915" xlink:href="#m078f4a1a79" y="198.93399"/>
     <use style="fill:none;stroke:#ff0000;stroke-linejoin:miter;" x="296.2915" xlink:href="#m078f4a1a79" y="198.93399"/>
     <use style="fill:none;stroke:#ff0000;stroke-linejoin:miter;" x="296.2915" xlink:href="#m078f4a1a79" y="198.93399"/>
     <use style="fill:none;stroke:#ff0000;stroke-linejoin:miter;" x="581.9875" xlink:href="#m078f4a1a79" y="198.93399"/>
    </g>
   </g>
   <g id="patch_3">
    <path d="M 224.8675 315.57975 
L 224.8675 49.46775 
" style="fill:none;stroke:#000000;stroke-linecap:square;stroke-linejoin:miter;stroke-width:0.8;"/>
   </g>
   <g id="patch_4">
    <path d="M 581.9875 315.57975 
L 581.9875 49.46775 
" style="fill:none;stroke:#000000;stroke-linecap:square;stroke-linejoin:miter;stroke-width:0.8;"/>
   </g>
   <g id="patch_5">
    <path d="M 224.8675 315.57975 
L 581.9875 315.57975 
" style="fill:none;stroke:#000000;stroke-linecap:square;stroke-linejoin:miter;stroke-width:0.8;"/>
   </g>
   <g id="patch_6">
    <path d="M 224.8675 49.46775 
L 581.9875 49.46775 
" style="fill:none;stroke:#000000;stroke-linecap:square;stroke-linejoin:miter;stroke-width:0.8;"/>
   </g>
   <g id="text_15">
    <!-- 2D -->
    <g transform="translate(581.9875 297.80865)scale(0.24 -0.24)">
     <use xlink:href="#DejaVuSans-32"/>
     <use x="63.623047" xlink:href="#DejaVuSans-44"/>
    </g>
   </g>
   <g id="text_16">
    <!-- 3D -->
    <defs>
     <path d="M 40.578125 39.3125 
Q 47.65625 37.796875 51.625 33 
Q 55.609375 28.21875 55.609375 21.1875 
Q 55.609375 10.40625 48.1875 4.484375 
Q 40.765625 -1.421875 27.09375 -1.421875 
Q 22.515625 -1.421875 17.65625 -0.515625 
Q 12.796875 0.390625 7.625 2.203125 
L 7.625 11.71875 
Q 11.71875 9.328125 16.59375 8.109375 
Q 21.484375 6.890625 26.8125 6.890625 
Q 36.078125 6.890625 40.9375 10.546875 
Q 45.796875 14.203125 45.796875 21.1875 
Q 45.796875 27.640625 41.28125 31.265625 
Q 36.765625 34.90625 28.71875 34.90625 
L 20.21875 34.90625 
L 20.21875 43.015625 
L 29.109375 43.015625 
Q 36.375 43.015625 40.234375 45.921875 
Q 44.09375 48.828125 44.09375 54.296875 
Q 44.09375 59.90625 40.109375 62.90625 
Q 36.140625 65.921875 28.71875 65.921875 
Q 24.65625 65.921875 20.015625 65.03125 
Q 15.375 64.15625 9.8125 62.3125 
L 9.8125 71.09375 
Q 15.4375 72.65625 20.34375 73.4375 
Q 25.25 74.21875 29.59375 74.21875 
Q 40.828125 74.21875 47.359375 69.109375 
Q 53.90625 64.015625 53.90625 55.328125 
Q 53.90625 49.265625 50.4375 45.09375 
Q 46.96875 40.921875 40.578125 39.3125 
z
" id="DejaVuSans-33"/>
    </defs>
    <g transform="translate(581.9875 281.39841)scale(0.24 -0.24)">
     <use xlink:href="#DejaVuSans-33"/>
     <use x="63.623047" xlink:href="#DejaVuSans-44"/>
    </g>
   </g>
   <g id="text_17">
    <!-- 5D -->
    <g transform="translate(581.9875 273.85857)scale(0.24 -0.24)">
     <use xlink:href="#DejaVuSans-35"/>
     <use x="63.623047" xlink:href="#DejaVuSans-44"/>
    </g>
   </g>
   <g id="text_18">
    <!-- 10D -->
    <g transform="translate(581.9875 248.57793)scale(0.24 -0.24)">
     <use xlink:href="#DejaVuSans-31"/>
     <use x="63.623047" xlink:href="#DejaVuSans-30"/>
     <use x="127.246094" xlink:href="#DejaVuSans-44"/>
    </g>
   </g>
   <g id="text_19">
    <!-- 20D -->
    <g transform="translate(581.9875 205.55649)scale(0.24 -0.24)">
     <use xlink:href="#DejaVuSans-32"/>
     <use x="63.623047" xlink:href="#DejaVuSans-30"/>
     <use x="127.246094" xlink:href="#DejaVuSans-44"/>
    </g>
   </g>
   <g id="text_20">
    <!-- v2.0.361 -->
    <defs>
     <path d="M 2.984375 54.6875 
L 12.5 54.6875 
L 29.59375 8.796875 
L 46.6875 54.6875 
L 56.203125 54.6875 
L 35.6875 0 
L 23.484375 0 
z
" id="DejaVuSans-76"/>
     <path d="M 33.015625 40.375 
Q 26.375 40.375 22.484375 35.828125 
Q 18.609375 31.296875 18.609375 23.390625 
Q 18.609375 15.53125 22.484375 10.953125 
Q 26.375 6.390625 33.015625 6.390625 
Q 39.65625 6.390625 43.53125 10.953125 
Q 47.40625 15.53125 47.40625 23.390625 
Q 47.40625 31.296875 43.53125 35.828125 
Q 39.65625 40.375 33.015625 40.375 
z
M 52.59375 71.296875 
L 52.59375 62.3125 
Q 48.875 64.0625 45.09375 64.984375 
Q 41.3125 65.921875 37.59375 65.921875 
Q 27.828125 65.921875 22.671875 59.328125 
Q 17.53125 52.734375 16.796875 39.40625 
Q 19.671875 43.65625 24.015625 45.921875 
Q 28.375 48.1875 33.59375 48.1875 
Q 44.578125 48.1875 50.953125 41.515625 
Q 57.328125 34.859375 57.328125 23.390625 
Q 57.328125 12.15625 50.6875 5.359375 
Q 44.046875 -1.421875 33.015625 -1.421875 
Q 20.359375 -1.421875 13.671875 8.265625 
Q 6.984375 17.96875 6.984375 36.375 
Q 6.984375 53.65625 15.1875 63.9375 
Q 23.390625 74.21875 37.203125 74.21875 
Q 40.921875 74.21875 44.703125 73.484375 
Q 48.484375 72.75 52.59375 71.296875 
z
" id="DejaVuSans-36"/>
    </defs>
    <g style="fill:#808080;" transform="translate(381.38375 310.838942)scale(0.1 -0.1)">
     <use xlink:href="#DejaVuSans-76"/>
     <use x="59.179688" xlink:href="#DejaVuSans-32"/>
     <use x="122.802734" xlink:href="#DejaVuSans-2e"/>
     <use x="154.589844" xlink:href="#DejaVuSans-30"/>
     <use x="218.212891" xlink:href="#DejaVuSans-2e"/>
     <use x="250" xlink:href="#DejaVuSans-33"/>
     <use x="313.623047" xlink:href="#DejaVuSans-36"/>
     <use x="377.246094" xlink:href="#DejaVuSans-31"/>
    </g>
   </g>
   <g id="text_21">
    <!-- 29 Discus with n-1 constraints -->
    <defs>
     <path d="M 10.984375 1.515625 
L 10.984375 10.5 
Q 14.703125 8.734375 18.5 7.8125 
Q 22.3125 6.890625 25.984375 6.890625 
Q 35.75 6.890625 40.890625 13.453125 
Q 46.046875 20.015625 46.78125 33.40625 
Q 43.953125 29.203125 39.59375 26.953125 
Q 35.25 24.703125 29.984375 24.703125 
Q 19.046875 24.703125 12.671875 31.3125 
Q 6.296875 37.9375 6.296875 49.421875 
Q 6.296875 60.640625 12.9375 67.421875 
Q 19.578125 74.21875 30.609375 74.21875 
Q 43.265625 74.21875 49.921875 64.515625 
Q 56.59375 54.828125 56.59375 36.375 
Q 56.59375 19.140625 48.40625 8.859375 
Q 40.234375 -1.421875 26.421875 -1.421875 
Q 22.703125 -1.421875 18.890625 -0.6875 
Q 15.09375 0.046875 10.984375 1.515625 
z
M 30.609375 32.421875 
Q 37.25 32.421875 41.125 36.953125 
Q 45.015625 41.5 45.015625 49.421875 
Q 45.015625 57.28125 41.125 61.84375 
Q 37.25 66.40625 30.609375 66.40625 
Q 23.96875 66.40625 20.09375 61.84375 
Q 16.21875 57.28125 16.21875 49.421875 
Q 16.21875 41.5 20.09375 36.953125 
Q 23.96875 32.421875 30.609375 32.421875 
z
" id="DejaVuSans-39"/>
     <path d="M 9.421875 54.6875 
L 18.40625 54.6875 
L 18.40625 0 
L 9.421875 0 
z
M 9.421875 75.984375 
L 18.40625 75.984375 
L 18.40625 64.59375 
L 9.421875 64.59375 
z
" id="DejaVuSans-69"/>
     <path d="M 4.203125 54.6875 
L 13.1875 54.6875 
L 24.421875 12.015625 
L 35.59375 54.6875 
L 46.1875 54.6875 
L 57.421875 12.015625 
L 68.609375 54.6875 
L 77.59375 54.6875 
L 63.28125 0 
L 52.6875 0 
L 40.921875 44.828125 
L 29.109375 0 
L 18.5 0 
z
" id="DejaVuSans-77"/>
     <path d="M 54.890625 33.015625 
L 54.890625 0 
L 45.90625 0 
L 45.90625 32.71875 
Q 45.90625 40.484375 42.875 44.328125 
Q 39.84375 48.1875 33.796875 48.1875 
Q 26.515625 48.1875 22.3125 43.546875 
Q 18.109375 38.921875 18.109375 30.90625 
L 18.109375 0 
L 9.078125 0 
L 9.078125 75.984375 
L 18.109375 75.984375 
L 18.109375 46.1875 
Q 21.34375 51.125 25.703125 53.5625 
Q 30.078125 56 35.796875 56 
Q 45.21875 56 50.046875 50.171875 
Q 54.890625 44.34375 54.890625 33.015625 
z
" id="DejaVuSans-68"/>
     <path d="M 54.890625 33.015625 
L 54.890625 0 
L 45.90625 0 
L 45.90625 32.71875 
Q 45.90625 40.484375 42.875 44.328125 
Q 39.84375 48.1875 33.796875 48.1875 
Q 26.515625 48.1875 22.3125 43.546875 
Q 18.109375 38.921875 18.109375 30.90625 
L 18.109375 0 
L 9.078125 0 
L 9.078125 54.6875 
L 18.109375 54.6875 
L 18.109375 46.1875 
Q 21.34375 51.125 25.703125 53.5625 
Q 30.078125 56 35.796875 56 
Q 45.21875 56 50.046875 50.171875 
Q 54.890625 44.34375 54.890625 33.015625 
z
" id="DejaVuSans-6e"/>
    </defs>
    <g transform="translate(185.61175 43.46775)scale(0.288 -0.288)">
     <use xlink:href="#DejaVuSans-32"/>
     <use x="63.623047" xlink:href="#DejaVuSans-39"/>
     <use x="127.246094" xlink:href="#DejaVuSans-20"/>
     <use x="159.033203" xlink:href="#DejaVuSans-44"/>
     <use x="236.035156" xlink:href="#DejaVuSans-69"/>
     <use x="263.818359" xlink:href="#DejaVuSans-73"/>
     <use x="315.917969" xlink:href="#DejaVuSans-63"/>
     <use x="370.898438" xlink:href="#DejaVuSans-75"/>
     <use x="434.277344" xlink:href="#DejaVuSans-73"/>
     <use x="486.376953" xlink:href="#DejaVuSans-20"/>
     <use x="518.164062" xlink:href="#DejaVuSans-77"/>
     <use x="599.951172" xlink:href="#DejaVuSans-69"/>
     <use x="627.734375" xlink:href="#DejaVuSans-74"/>
     <use x="666.943359" xlink:href="#DejaVuSans-68"/>
     <use x="730.322266" xlink:href="#DejaVuSans-20"/>
     <use x="762.109375" xlink:href="#DejaVuSans-6e"/>
     <use x="825.488281" xlink:href="#DejaVuSans-2d"/>
     <use x="861.572266" xlink:href="#DejaVuSans-31"/>
     <use x="925.195312" xlink:href="#DejaVuSans-20"/>
     <use x="956.982422" xlink:href="#DejaVuSans-63"/>
     <use x="1011.962891" xlink:href="#DejaVuSans-6f"/>
     <use x="1073.144531" xlink:href="#DejaVuSans-6e"/>
     <use x="1136.523438" xlink:href="#DejaVuSans-73"/>
     <use x="1188.623047" xlink:href="#DejaVuSans-74"/>
     <use x="1227.832031" xlink:href="#DejaVuSans-72"/>
     <use x="1268.945312" xlink:href="#DejaVuSans-61"/>
     <use x="1330.224609" xlink:href="#DejaVuSans-69"/>
     <use x="1358.007812" xlink:href="#DejaVuSans-6e"/>
     <use x="1421.386719" xlink:href="#DejaVuSans-74"/>
     <use x="1460.595703" xlink:href="#DejaVuSans-73"/>
    </g>
   </g>
   <g id="line2d_125">
    <defs>
     <path d="M 0 -10 
L -2.24514 -3.09017 
L -9.510565 -3.09017 
L -3.632713 1.18034 
L -5.877853 8.09017 
L -0 3.81966 
L 5.877853 8.09017 
L 3.632713 1.18034 
L 9.510565 -3.09017 
L 2.24514 -3.09017 
z
" id="m90b31be403" style="stroke:#000000;stroke-linejoin:bevel;stroke-width:1.6;"/>
    </defs>
    <g>
     <use style="fill:none;stroke:#000000;stroke-linejoin:bevel;stroke-width:1.6;" x="576.270617" xlink:href="#m90b31be403" y="291.18615"/>
     <use style="fill:none;stroke:#000000;stroke-linejoin:bevel;stroke-width:1.6;" x="570.553734" xlink:href="#m90b31be403" y="291.18615"/>
    </g>
   </g>
   <g id="line2d_126">
    <g>
     <use style="fill:none;stroke:#000000;stroke-linejoin:bevel;stroke-width:1.6;" x="576.270617" xlink:href="#m90b31be403" y="274.77591"/>
     <use style="fill:none;stroke:#000000;stroke-linejoin:bevel;stroke-width:1.6;" x="570.553734" xlink:href="#m90b31be403" y="274.77591"/>
    </g>
   </g>
   <g id="line2d_127">
    <g>
     <use style="fill:none;stroke:#000000;stroke-linejoin:bevel;stroke-width:1.6;" x="576.270617" xlink:href="#m90b31be403" y="267.23607"/>
    </g>
   </g>
   <g id="line2d_128">
    <g>
     <use style="fill:none;stroke:#000000;stroke-linejoin:bevel;stroke-width:1.6;" x="576.270617" xlink:href="#m90b31be403" y="241.95543"/>
     <use style="fill:none;stroke:#000000;stroke-linejoin:bevel;stroke-width:1.6;" x="570.553734" xlink:href="#m90b31be403" y="241.95543"/>
     <use style="fill:none;stroke:#000000;stroke-linejoin:bevel;stroke-width:1.6;" x="564.836852" xlink:href="#m90b31be403" y="241.95543"/>
    </g>
   </g>
  </g>
 </g>
 <defs>
  <clipPath id="pc6477210ae">
   <rect height="266.112" width="357.12" x="224.8675" y="49.46775"/>
  </clipPath>
 </defs>
</svg>
