<?xml version="1.0" encoding="utf-8" standalone="no"?>
<!DOCTYPE svg PUBLIC "-//W3C//DTD SVG 1.1//EN"
  "http://www.w3.org/Graphics/SVG/1.1/DTD/svg11.dtd">
<!-- Created with matplotlib (http://matplotlib.org/) -->
<svg height="353pt" version="1.1" viewBox="0 0 481 353" width="481pt" xmlns="http://www.w3.org/2000/svg" xmlns:xlink="http://www.w3.org/1999/xlink">
 <defs>
  <style type="text/css">
*{stroke-linecap:butt;stroke-linejoin:round;}
  </style>
 </defs>
 <g id="figure_1">
  <g id="patch_1">
   <path d="M 0 353.22225 
L 481.578281 353.22225 
L 481.578281 0 
L 0 0 
z
" style="fill:#ffffff;"/>
  </g>
  <g id="axes_1">
   <g id="patch_2">
    <path d="M 70.8 298.245375 
L 427.92 298.245375 
L 427.92 32.133375 
L 70.8 32.133375 
z
" style="fill:#ffffff;"/>
   </g>
   <g id="matplotlib.axis_1">
    <g id="xtick_1">
     <g id="line2d_1">
      <path clip-path="url(#p58be9ac51a)" d="M 70.8 298.245375 
L 70.8 32.133375 
" style="fill:none;stroke:#b0b0b0;stroke-linecap:square;stroke-width:0.8;"/>
     </g>
     <g id="line2d_2">
      <defs>
       <path d="M 0 0 
L 0 3.5 
" id="mcface0cf72" style="stroke:#000000;stroke-width:0.8;"/>
      </defs>
      <g>
       <use style="stroke:#000000;stroke-width:0.8;" x="70.8" xlink:href="#mcface0cf72" y="298.245375"/>
      </g>
     </g>
     <g id="text_1">
      <!-- 0 -->
      <defs>
       <path d="M 31.78125 66.40625 
Q 24.171875 66.40625 20.328125 58.90625 
Q 16.5 51.421875 16.5 36.375 
Q 16.5 21.390625 20.328125 13.890625 
Q 24.171875 6.390625 31.78125 6.390625 
Q 39.453125 6.390625 43.28125 13.890625 
Q 47.125 21.390625 47.125 36.375 
Q 47.125 51.421875 43.28125 58.90625 
Q 39.453125 66.40625 31.78125 66.40625 
z
M 31.78125 74.21875 
Q 44.046875 74.21875 50.515625 64.515625 
Q 56.984375 54.828125 56.984375 36.375 
Q 56.984375 17.96875 50.515625 8.265625 
Q 44.046875 -1.421875 31.78125 -1.421875 
Q 19.53125 -1.421875 13.0625 8.265625 
Q 6.59375 17.96875 6.59375 36.375 
Q 6.59375 54.828125 13.0625 64.515625 
Q 19.53125 74.21875 31.78125 74.21875 
z
" id="DejaVuSans-30"/>
      </defs>
      <g transform="translate(64.4375 320.44225)scale(0.2 -0.2)">
       <use xlink:href="#DejaVuSans-30"/>
      </g>
     </g>
    </g>
    <g id="xtick_2">
     <g id="line2d_3">
      <path clip-path="url(#p58be9ac51a)" d="M 153.085714 298.245375 
L 153.085714 32.133375 
" style="fill:none;stroke:#b0b0b0;stroke-linecap:square;stroke-width:0.8;"/>
     </g>
     <g id="line2d_4">
      <g>
       <use style="stroke:#000000;stroke-width:0.8;" x="153.085714" xlink:href="#mcface0cf72" y="298.245375"/>
      </g>
     </g>
     <g id="text_2">
      <!-- 2 -->
      <defs>
       <path d="M 19.1875 8.296875 
L 53.609375 8.296875 
L 53.609375 0 
L 7.328125 0 
L 7.328125 8.296875 
Q 12.9375 14.109375 22.625 23.890625 
Q 32.328125 33.6875 34.8125 36.53125 
Q 39.546875 41.84375 41.421875 45.53125 
Q 43.3125 49.21875 43.3125 52.78125 
Q 43.3125 58.59375 39.234375 62.25 
Q 35.15625 65.921875 28.609375 65.921875 
Q 23.96875 65.921875 18.8125 64.3125 
Q 13.671875 62.703125 7.8125 59.421875 
L 7.8125 69.390625 
Q 13.765625 71.78125 18.9375 73 
Q 24.125 74.21875 28.421875 74.21875 
Q 39.75 74.21875 46.484375 68.546875 
Q 53.21875 62.890625 53.21875 53.421875 
Q 53.21875 48.921875 51.53125 44.890625 
Q 49.859375 40.875 45.40625 35.40625 
Q 44.1875 33.984375 37.640625 27.21875 
Q 31.109375 20.453125 19.1875 8.296875 
z
" id="DejaVuSans-32"/>
      </defs>
      <g transform="translate(146.723214 320.44225)scale(0.2 -0.2)">
       <use xlink:href="#DejaVuSans-32"/>
      </g>
     </g>
    </g>
    <g id="xtick_3">
     <g id="line2d_5">
      <path clip-path="url(#p58be9ac51a)" d="M 235.371429 298.245375 
L 235.371429 32.133375 
" style="fill:none;stroke:#b0b0b0;stroke-linecap:square;stroke-width:0.8;"/>
     </g>
     <g id="line2d_6">
      <g>
       <use style="stroke:#000000;stroke-width:0.8;" x="235.371429" xlink:href="#mcface0cf72" y="298.245375"/>
      </g>
     </g>
     <g id="text_3">
      <!-- 4 -->
      <defs>
       <path d="M 37.796875 64.3125 
L 12.890625 25.390625 
L 37.796875 25.390625 
z
M 35.203125 72.90625 
L 47.609375 72.90625 
L 47.609375 25.390625 
L 58.015625 25.390625 
L 58.015625 17.1875 
L 47.609375 17.1875 
L 47.609375 0 
L 37.796875 0 
L 37.796875 17.1875 
L 4.890625 17.1875 
L 4.890625 26.703125 
z
" id="DejaVuSans-34"/>
      </defs>
      <g transform="translate(229.008929 320.44225)scale(0.2 -0.2)">
       <use xlink:href="#DejaVuSans-34"/>
      </g>
     </g>
    </g>
    <g id="xtick_4">
     <g id="line2d_7">
      <path clip-path="url(#p58be9ac51a)" d="M 317.657143 298.245375 
L 317.657143 32.133375 
" style="fill:none;stroke:#b0b0b0;stroke-linecap:square;stroke-width:0.8;"/>
     </g>
     <g id="line2d_8">
      <g>
       <use style="stroke:#000000;stroke-width:0.8;" x="317.657143" xlink:href="#mcface0cf72" y="298.245375"/>
      </g>
     </g>
     <g id="text_4">
      <!-- 6 -->
      <defs>
       <path d="M 33.015625 40.375 
Q 26.375 40.375 22.484375 35.828125 
Q 18.609375 31.296875 18.609375 23.390625 
Q 18.609375 15.53125 22.484375 10.953125 
Q 26.375 6.390625 33.015625 6.390625 
Q 39.65625 6.390625 43.53125 10.953125 
Q 47.40625 15.53125 47.40625 23.390625 
Q 47.40625 31.296875 43.53125 35.828125 
Q 39.65625 40.375 33.015625 40.375 
z
M 52.59375 71.296875 
L 52.59375 62.3125 
Q 48.875 64.0625 45.09375 64.984375 
Q 41.3125 65.921875 37.59375 65.921875 
Q 27.828125 65.921875 22.671875 59.328125 
Q 17.53125 52.734375 16.796875 39.40625 
Q 19.671875 43.65625 24.015625 45.921875 
Q 28.375 48.1875 33.59375 48.1875 
Q 44.578125 48.1875 50.953125 41.515625 
Q 57.328125 34.859375 57.328125 23.390625 
Q 57.328125 12.15625 50.6875 5.359375 
Q 44.046875 -1.421875 33.015625 -1.421875 
Q 20.359375 -1.421875 13.671875 8.265625 
Q 6.984375 17.96875 6.984375 36.375 
Q 6.984375 53.65625 15.1875 63.9375 
Q 23.390625 74.21875 37.203125 74.21875 
Q 40.921875 74.21875 44.703125 73.484375 
Q 48.484375 72.75 52.59375 71.296875 
z
" id="DejaVuSans-36"/>
      </defs>
      <g transform="translate(311.294643 320.44225)scale(0.2 -0.2)">
       <use xlink:href="#DejaVuSans-36"/>
      </g>
     </g>
    </g>
    <g id="xtick_5">
     <g id="line2d_9">
      <path clip-path="url(#p58be9ac51a)" d="M 399.942857 298.245375 
L 399.942857 32.133375 
" style="fill:none;stroke:#b0b0b0;stroke-linecap:square;stroke-width:0.8;"/>
     </g>
     <g id="line2d_10">
      <g>
       <use style="stroke:#000000;stroke-width:0.8;" x="399.942857" xlink:href="#mcface0cf72" y="298.245375"/>
      </g>
     </g>
     <g id="text_5">
      <!-- 8 -->
      <defs>
       <path d="M 31.78125 34.625 
Q 24.75 34.625 20.71875 30.859375 
Q 16.703125 27.09375 16.703125 20.515625 
Q 16.703125 13.921875 20.71875 10.15625 
Q 24.75 6.390625 31.78125 6.390625 
Q 38.8125 6.390625 42.859375 10.171875 
Q 46.921875 13.96875 46.921875 20.515625 
Q 46.921875 27.09375 42.890625 30.859375 
Q 38.875 34.625 31.78125 34.625 
z
M 21.921875 38.8125 
Q 15.578125 40.375 12.03125 44.71875 
Q 8.5 49.078125 8.5 55.328125 
Q 8.5 64.0625 14.71875 69.140625 
Q 20.953125 74.21875 31.78125 74.21875 
Q 42.671875 74.21875 48.875 69.140625 
Q 55.078125 64.0625 55.078125 55.328125 
Q 55.078125 49.078125 51.53125 44.71875 
Q 48 40.375 41.703125 38.8125 
Q 48.828125 37.15625 52.796875 32.3125 
Q 56.78125 27.484375 56.78125 20.515625 
Q 56.78125 9.90625 50.3125 4.234375 
Q 43.84375 -1.421875 31.78125 -1.421875 
Q 19.734375 -1.421875 13.25 4.234375 
Q 6.78125 9.90625 6.78125 20.515625 
Q 6.78125 27.484375 10.78125 32.3125 
Q 14.796875 37.15625 21.921875 38.8125 
z
M 18.3125 54.390625 
Q 18.3125 48.734375 21.84375 45.5625 
Q 25.390625 42.390625 31.78125 42.390625 
Q 38.140625 42.390625 41.71875 45.5625 
Q 45.3125 48.734375 45.3125 54.390625 
Q 45.3125 60.0625 41.71875 63.234375 
Q 38.140625 66.40625 31.78125 66.40625 
Q 25.390625 66.40625 21.84375 63.234375 
Q 18.3125 60.0625 18.3125 54.390625 
z
" id="DejaVuSans-38"/>
      </defs>
      <g transform="translate(393.580357 320.44225)scale(0.2 -0.2)">
       <use xlink:href="#DejaVuSans-38"/>
      </g>
     </g>
    </g>
    <g id="text_6">
     <!-- log10 of # (f+g)-evals / dimension -->
     <defs>
      <path d="M 9.421875 75.984375 
L 18.40625 75.984375 
L 18.40625 0 
L 9.421875 0 
z
" id="DejaVuSans-6c"/>
      <path d="M 30.609375 48.390625 
Q 23.390625 48.390625 19.1875 42.75 
Q 14.984375 37.109375 14.984375 27.296875 
Q 14.984375 17.484375 19.15625 11.84375 
Q 23.34375 6.203125 30.609375 6.203125 
Q 37.796875 6.203125 41.984375 11.859375 
Q 46.1875 17.53125 46.1875 27.296875 
Q 46.1875 37.015625 41.984375 42.703125 
Q 37.796875 48.390625 30.609375 48.390625 
z
M 30.609375 56 
Q 42.328125 56 49.015625 48.375 
Q 55.71875 40.765625 55.71875 27.296875 
Q 55.71875 13.875 49.015625 6.21875 
Q 42.328125 -1.421875 30.609375 -1.421875 
Q 18.84375 -1.421875 12.171875 6.21875 
Q 5.515625 13.875 5.515625 27.296875 
Q 5.515625 40.765625 12.171875 48.375 
Q 18.84375 56 30.609375 56 
z
" id="DejaVuSans-6f"/>
      <path d="M 45.40625 27.984375 
Q 45.40625 37.75 41.375 43.109375 
Q 37.359375 48.484375 30.078125 48.484375 
Q 22.859375 48.484375 18.828125 43.109375 
Q 14.796875 37.75 14.796875 27.984375 
Q 14.796875 18.265625 18.828125 12.890625 
Q 22.859375 7.515625 30.078125 7.515625 
Q 37.359375 7.515625 41.375 12.890625 
Q 45.40625 18.265625 45.40625 27.984375 
z
M 54.390625 6.78125 
Q 54.390625 -7.171875 48.1875 -13.984375 
Q 42 -20.796875 29.203125 -20.796875 
Q 24.46875 -20.796875 20.265625 -20.09375 
Q 16.0625 -19.390625 12.109375 -17.921875 
L 12.109375 -9.1875 
Q 16.0625 -11.328125 19.921875 -12.34375 
Q 23.78125 -13.375 27.78125 -13.375 
Q 36.625 -13.375 41.015625 -8.765625 
Q 45.40625 -4.15625 45.40625 5.171875 
L 45.40625 9.625 
Q 42.625 4.78125 38.28125 2.390625 
Q 33.9375 0 27.875 0 
Q 17.828125 0 11.671875 7.65625 
Q 5.515625 15.328125 5.515625 27.984375 
Q 5.515625 40.671875 11.671875 48.328125 
Q 17.828125 56 27.875 56 
Q 33.9375 56 38.28125 53.609375 
Q 42.625 51.21875 45.40625 46.390625 
L 45.40625 54.6875 
L 54.390625 54.6875 
z
" id="DejaVuSans-67"/>
      <path d="M 12.40625 8.296875 
L 28.515625 8.296875 
L 28.515625 63.921875 
L 10.984375 60.40625 
L 10.984375 69.390625 
L 28.421875 72.90625 
L 38.28125 72.90625 
L 38.28125 8.296875 
L 54.390625 8.296875 
L 54.390625 0 
L 12.40625 0 
z
" id="DejaVuSans-31"/>
      <path id="DejaVuSans-20"/>
      <path d="M 37.109375 75.984375 
L 37.109375 68.5 
L 28.515625 68.5 
Q 23.6875 68.5 21.796875 66.546875 
Q 19.921875 64.59375 19.921875 59.515625 
L 19.921875 54.6875 
L 34.71875 54.6875 
L 34.71875 47.703125 
L 19.921875 47.703125 
L 19.921875 0 
L 10.890625 0 
L 10.890625 47.703125 
L 2.296875 47.703125 
L 2.296875 54.6875 
L 10.890625 54.6875 
L 10.890625 58.5 
Q 10.890625 67.625 15.140625 71.796875 
Q 19.390625 75.984375 28.609375 75.984375 
z
" id="DejaVuSans-66"/>
      <path d="M 51.125 44 
L 36.921875 44 
L 32.8125 27.6875 
L 47.125 27.6875 
z
M 43.796875 71.78125 
L 38.71875 51.515625 
L 52.984375 51.515625 
L 58.109375 71.78125 
L 65.921875 71.78125 
L 60.890625 51.515625 
L 76.125 51.515625 
L 76.125 44 
L 58.984375 44 
L 54.984375 27.6875 
L 70.515625 27.6875 
L 70.515625 20.21875 
L 53.078125 20.21875 
L 48 0 
L 40.1875 0 
L 45.21875 20.21875 
L 30.90625 20.21875 
L 25.875 0 
L 18.015625 0 
L 23.09375 20.21875 
L 7.71875 20.21875 
L 7.71875 27.6875 
L 24.90625 27.6875 
L 29 44 
L 13.28125 44 
L 13.28125 51.515625 
L 30.90625 51.515625 
L 35.890625 71.78125 
z
" id="DejaVuSans-23"/>
      <path d="M 31 75.875 
Q 24.46875 64.65625 21.28125 53.65625 
Q 18.109375 42.671875 18.109375 31.390625 
Q 18.109375 20.125 21.3125 9.0625 
Q 24.515625 -2 31 -13.1875 
L 23.1875 -13.1875 
Q 15.875 -1.703125 12.234375 9.375 
Q 8.59375 20.453125 8.59375 31.390625 
Q 8.59375 42.28125 12.203125 53.3125 
Q 15.828125 64.359375 23.1875 75.875 
z
" id="DejaVuSans-28"/>
      <path d="M 46 62.703125 
L 46 35.5 
L 73.1875 35.5 
L 73.1875 27.203125 
L 46 27.203125 
L 46 0 
L 37.796875 0 
L 37.796875 27.203125 
L 10.59375 27.203125 
L 10.59375 35.5 
L 37.796875 35.5 
L 37.796875 62.703125 
z
" id="DejaVuSans-2b"/>
      <path d="M 8.015625 75.875 
L 15.828125 75.875 
Q 23.140625 64.359375 26.78125 53.3125 
Q 30.421875 42.28125 30.421875 31.390625 
Q 30.421875 20.453125 26.78125 9.375 
Q 23.140625 -1.703125 15.828125 -13.1875 
L 8.015625 -13.1875 
Q 14.5 -2 17.703125 9.0625 
Q 20.90625 20.125 20.90625 31.390625 
Q 20.90625 42.671875 17.703125 53.65625 
Q 14.5 64.65625 8.015625 75.875 
z
" id="DejaVuSans-29"/>
      <path d="M 4.890625 31.390625 
L 31.203125 31.390625 
L 31.203125 23.390625 
L 4.890625 23.390625 
z
" id="DejaVuSans-2d"/>
      <path d="M 56.203125 29.59375 
L 56.203125 25.203125 
L 14.890625 25.203125 
Q 15.484375 15.921875 20.484375 11.0625 
Q 25.484375 6.203125 34.421875 6.203125 
Q 39.59375 6.203125 44.453125 7.46875 
Q 49.3125 8.734375 54.109375 11.28125 
L 54.109375 2.78125 
Q 49.265625 0.734375 44.1875 -0.34375 
Q 39.109375 -1.421875 33.890625 -1.421875 
Q 20.796875 -1.421875 13.15625 6.1875 
Q 5.515625 13.8125 5.515625 26.8125 
Q 5.515625 40.234375 12.765625 48.109375 
Q 20.015625 56 32.328125 56 
Q 43.359375 56 49.78125 48.890625 
Q 56.203125 41.796875 56.203125 29.59375 
z
M 47.21875 32.234375 
Q 47.125 39.59375 43.09375 43.984375 
Q 39.0625 48.390625 32.421875 48.390625 
Q 24.90625 48.390625 20.390625 44.140625 
Q 15.875 39.890625 15.1875 32.171875 
z
" id="DejaVuSans-65"/>
      <path d="M 2.984375 54.6875 
L 12.5 54.6875 
L 29.59375 8.796875 
L 46.6875 54.6875 
L 56.203125 54.6875 
L 35.6875 0 
L 23.484375 0 
z
" id="DejaVuSans-76"/>
      <path d="M 34.28125 27.484375 
Q 23.390625 27.484375 19.1875 25 
Q 14.984375 22.515625 14.984375 16.5 
Q 14.984375 11.71875 18.140625 8.90625 
Q 21.296875 6.109375 26.703125 6.109375 
Q 34.1875 6.109375 38.703125 11.40625 
Q 43.21875 16.703125 43.21875 25.484375 
L 43.21875 27.484375 
z
M 52.203125 31.203125 
L 52.203125 0 
L 43.21875 0 
L 43.21875 8.296875 
Q 40.140625 3.328125 35.546875 0.953125 
Q 30.953125 -1.421875 24.3125 -1.421875 
Q 15.921875 -1.421875 10.953125 3.296875 
Q 6 8.015625 6 15.921875 
Q 6 25.140625 12.171875 29.828125 
Q 18.359375 34.515625 30.609375 34.515625 
L 43.21875 34.515625 
L 43.21875 35.40625 
Q 43.21875 41.609375 39.140625 45 
Q 35.0625 48.390625 27.6875 48.390625 
Q 23 48.390625 18.546875 47.265625 
Q 14.109375 46.140625 10.015625 43.890625 
L 10.015625 52.203125 
Q 14.9375 54.109375 19.578125 55.046875 
Q 24.21875 56 28.609375 56 
Q 40.484375 56 46.34375 49.84375 
Q 52.203125 43.703125 52.203125 31.203125 
z
" id="DejaVuSans-61"/>
      <path d="M 44.28125 53.078125 
L 44.28125 44.578125 
Q 40.484375 46.53125 36.375 47.5 
Q 32.28125 48.484375 27.875 48.484375 
Q 21.1875 48.484375 17.84375 46.4375 
Q 14.5 44.390625 14.5 40.28125 
Q 14.5 37.15625 16.890625 35.375 
Q 19.28125 33.59375 26.515625 31.984375 
L 29.59375 31.296875 
Q 39.15625 29.25 43.1875 25.515625 
Q 47.21875 21.78125 47.21875 15.09375 
Q 47.21875 7.46875 41.1875 3.015625 
Q 35.15625 -1.421875 24.609375 -1.421875 
Q 20.21875 -1.421875 15.453125 -0.5625 
Q 10.6875 0.296875 5.421875 2 
L 5.421875 11.28125 
Q 10.40625 8.6875 15.234375 7.390625 
Q 20.0625 6.109375 24.8125 6.109375 
Q 31.15625 6.109375 34.5625 8.28125 
Q 37.984375 10.453125 37.984375 14.40625 
Q 37.984375 18.0625 35.515625 20.015625 
Q 33.0625 21.96875 24.703125 23.78125 
L 21.578125 24.515625 
Q 13.234375 26.265625 9.515625 29.90625 
Q 5.8125 33.546875 5.8125 39.890625 
Q 5.8125 47.609375 11.28125 51.796875 
Q 16.75 56 26.8125 56 
Q 31.78125 56 36.171875 55.265625 
Q 40.578125 54.546875 44.28125 53.078125 
z
" id="DejaVuSans-73"/>
      <path d="M 25.390625 72.90625 
L 33.6875 72.90625 
L 8.296875 -9.28125 
L 0 -9.28125 
z
" id="DejaVuSans-2f"/>
      <path d="M 45.40625 46.390625 
L 45.40625 75.984375 
L 54.390625 75.984375 
L 54.390625 0 
L 45.40625 0 
L 45.40625 8.203125 
Q 42.578125 3.328125 38.25 0.953125 
Q 33.9375 -1.421875 27.875 -1.421875 
Q 17.96875 -1.421875 11.734375 6.484375 
Q 5.515625 14.40625 5.515625 27.296875 
Q 5.515625 40.1875 11.734375 48.09375 
Q 17.96875 56 27.875 56 
Q 33.9375 56 38.25 53.625 
Q 42.578125 51.265625 45.40625 46.390625 
z
M 14.796875 27.296875 
Q 14.796875 17.390625 18.875 11.75 
Q 22.953125 6.109375 30.078125 6.109375 
Q 37.203125 6.109375 41.296875 11.75 
Q 45.40625 17.390625 45.40625 27.296875 
Q 45.40625 37.203125 41.296875 42.84375 
Q 37.203125 48.484375 30.078125 48.484375 
Q 22.953125 48.484375 18.875 42.84375 
Q 14.796875 37.203125 14.796875 27.296875 
z
" id="DejaVuSans-64"/>
      <path d="M 9.421875 54.6875 
L 18.40625 54.6875 
L 18.40625 0 
L 9.421875 0 
z
M 9.421875 75.984375 
L 18.40625 75.984375 
L 18.40625 64.59375 
L 9.421875 64.59375 
z
" id="DejaVuSans-69"/>
      <path d="M 52 44.1875 
Q 55.375 50.25 60.0625 53.125 
Q 64.75 56 71.09375 56 
Q 79.640625 56 84.28125 50.015625 
Q 88.921875 44.046875 88.921875 33.015625 
L 88.921875 0 
L 79.890625 0 
L 79.890625 32.71875 
Q 79.890625 40.578125 77.09375 44.375 
Q 74.3125 48.1875 68.609375 48.1875 
Q 61.625 48.1875 57.5625 43.546875 
Q 53.515625 38.921875 53.515625 30.90625 
L 53.515625 0 
L 44.484375 0 
L 44.484375 32.71875 
Q 44.484375 40.625 41.703125 44.40625 
Q 38.921875 48.1875 33.109375 48.1875 
Q 26.21875 48.1875 22.15625 43.53125 
Q 18.109375 38.875 18.109375 30.90625 
L 18.109375 0 
L 9.078125 0 
L 9.078125 54.6875 
L 18.109375 54.6875 
L 18.109375 46.1875 
Q 21.1875 51.21875 25.484375 53.609375 
Q 29.78125 56 35.6875 56 
Q 41.65625 56 45.828125 52.96875 
Q 50 49.953125 52 44.1875 
z
" id="DejaVuSans-6d"/>
      <path d="M 54.890625 33.015625 
L 54.890625 0 
L 45.90625 0 
L 45.90625 32.71875 
Q 45.90625 40.484375 42.875 44.328125 
Q 39.84375 48.1875 33.796875 48.1875 
Q 26.515625 48.1875 22.3125 43.546875 
Q 18.109375 38.921875 18.109375 30.90625 
L 18.109375 0 
L 9.078125 0 
L 9.078125 54.6875 
L 18.109375 54.6875 
L 18.109375 46.1875 
Q 21.34375 51.125 25.703125 53.5625 
Q 30.078125 56 35.796875 56 
Q 45.21875 56 50.046875 50.171875 
Q 54.890625 44.34375 54.890625 33.015625 
z
" id="DejaVuSans-6e"/>
     </defs>
     <g transform="translate(93.752813 342.278812)scale(0.18 -0.18)">
      <use xlink:href="#DejaVuSans-6c"/>
      <use x="27.783203" xlink:href="#DejaVuSans-6f"/>
      <use x="88.964844" xlink:href="#DejaVuSans-67"/>
      <use x="152.441406" xlink:href="#DejaVuSans-31"/>
      <use x="216.064453" xlink:href="#DejaVuSans-30"/>
      <use x="279.6875" xlink:href="#DejaVuSans-20"/>
      <use x="311.474609" xlink:href="#DejaVuSans-6f"/>
      <use x="372.65625" xlink:href="#DejaVuSans-66"/>
      <use x="407.861328" xlink:href="#DejaVuSans-20"/>
      <use x="439.648438" xlink:href="#DejaVuSans-23"/>
      <use x="523.4375" xlink:href="#DejaVuSans-20"/>
      <use x="555.224609" xlink:href="#DejaVuSans-28"/>
      <use x="594.238281" xlink:href="#DejaVuSans-66"/>
      <use x="629.443359" xlink:href="#DejaVuSans-2b"/>
      <use x="713.232422" xlink:href="#DejaVuSans-67"/>
      <use x="776.708984" xlink:href="#DejaVuSans-29"/>
      <use x="815.722656" xlink:href="#DejaVuSans-2d"/>
      <use x="851.806641" xlink:href="#DejaVuSans-65"/>
      <use x="913.330078" xlink:href="#DejaVuSans-76"/>
      <use x="972.509766" xlink:href="#DejaVuSans-61"/>
      <use x="1033.789062" xlink:href="#DejaVuSans-6c"/>
      <use x="1061.572266" xlink:href="#DejaVuSans-73"/>
      <use x="1113.671875" xlink:href="#DejaVuSans-20"/>
      <use x="1145.458984" xlink:href="#DejaVuSans-2f"/>
      <use x="1179.150391" xlink:href="#DejaVuSans-20"/>
      <use x="1210.9375" xlink:href="#DejaVuSans-64"/>
      <use x="1274.414062" xlink:href="#DejaVuSans-69"/>
      <use x="1302.197266" xlink:href="#DejaVuSans-6d"/>
      <use x="1399.609375" xlink:href="#DejaVuSans-65"/>
      <use x="1461.132812" xlink:href="#DejaVuSans-6e"/>
      <use x="1524.511719" xlink:href="#DejaVuSans-73"/>
      <use x="1576.611328" xlink:href="#DejaVuSans-69"/>
      <use x="1604.394531" xlink:href="#DejaVuSans-6f"/>
      <use x="1665.576172" xlink:href="#DejaVuSans-6e"/>
     </g>
    </g>
   </g>
   <g id="matplotlib.axis_2">
    <g id="ytick_1">
     <g id="line2d_11">
      <path clip-path="url(#p58be9ac51a)" d="M 70.8 298.245375 
L 427.92 298.245375 
" style="fill:none;stroke:#b0b0b0;stroke-linecap:square;stroke-width:0.8;"/>
     </g>
     <g id="line2d_12">
      <defs>
       <path d="M 0 0 
L -3.5 0 
" id="mbc5141b0f9" style="stroke:#000000;stroke-width:0.8;"/>
      </defs>
      <g>
       <use style="stroke:#000000;stroke-width:0.8;" x="70.8" xlink:href="#mbc5141b0f9" y="298.245375"/>
      </g>
     </g>
     <g id="text_7">
      <!-- 0.0 -->
      <defs>
       <path d="M 10.6875 12.40625 
L 21 12.40625 
L 21 0 
L 10.6875 0 
z
" id="DejaVuSans-2e"/>
      </defs>
      <g transform="translate(31.99375 305.843812)scale(0.2 -0.2)">
       <use xlink:href="#DejaVuSans-30"/>
       <use x="63.623047" xlink:href="#DejaVuSans-2e"/>
       <use x="95.410156" xlink:href="#DejaVuSans-30"/>
      </g>
     </g>
    </g>
    <g id="ytick_2">
     <g id="line2d_13">
      <path clip-path="url(#p58be9ac51a)" d="M 70.8 245.549929 
L 427.92 245.549929 
" style="fill:none;stroke:#b0b0b0;stroke-linecap:square;stroke-width:0.8;"/>
     </g>
     <g id="line2d_14">
      <g>
       <use style="stroke:#000000;stroke-width:0.8;" x="70.8" xlink:href="#mbc5141b0f9" y="245.549929"/>
      </g>
     </g>
     <g id="text_8">
      <!-- 0.2 -->
      <g transform="translate(31.99375 253.148367)scale(0.2 -0.2)">
       <use xlink:href="#DejaVuSans-30"/>
       <use x="63.623047" xlink:href="#DejaVuSans-2e"/>
       <use x="95.410156" xlink:href="#DejaVuSans-32"/>
      </g>
     </g>
    </g>
    <g id="ytick_3">
     <g id="line2d_15">
      <path clip-path="url(#p58be9ac51a)" d="M 70.8 192.854484 
L 427.92 192.854484 
" style="fill:none;stroke:#b0b0b0;stroke-linecap:square;stroke-width:0.8;"/>
     </g>
     <g id="line2d_16">
      <g>
       <use style="stroke:#000000;stroke-width:0.8;" x="70.8" xlink:href="#mbc5141b0f9" y="192.854484"/>
      </g>
     </g>
     <g id="text_9">
      <!-- 0.4 -->
      <g transform="translate(31.99375 200.452921)scale(0.2 -0.2)">
       <use xlink:href="#DejaVuSans-30"/>
       <use x="63.623047" xlink:href="#DejaVuSans-2e"/>
       <use x="95.410156" xlink:href="#DejaVuSans-34"/>
      </g>
     </g>
    </g>
    <g id="ytick_4">
     <g id="line2d_17">
      <path clip-path="url(#p58be9ac51a)" d="M 70.8 140.159038 
L 427.92 140.159038 
" style="fill:none;stroke:#b0b0b0;stroke-linecap:square;stroke-width:0.8;"/>
     </g>
     <g id="line2d_18">
      <g>
       <use style="stroke:#000000;stroke-width:0.8;" x="70.8" xlink:href="#mbc5141b0f9" y="140.159038"/>
      </g>
     </g>
     <g id="text_10">
      <!-- 0.6 -->
      <g transform="translate(31.99375 147.757476)scale(0.2 -0.2)">
       <use xlink:href="#DejaVuSans-30"/>
       <use x="63.623047" xlink:href="#DejaVuSans-2e"/>
       <use x="95.410156" xlink:href="#DejaVuSans-36"/>
      </g>
     </g>
    </g>
    <g id="ytick_5">
     <g id="line2d_19">
      <path clip-path="url(#p58be9ac51a)" d="M 70.8 87.463593 
L 427.92 87.463593 
" style="fill:none;stroke:#b0b0b0;stroke-linecap:square;stroke-width:0.8;"/>
     </g>
     <g id="line2d_20">
      <g>
       <use style="stroke:#000000;stroke-width:0.8;" x="70.8" xlink:href="#mbc5141b0f9" y="87.463593"/>
      </g>
     </g>
     <g id="text_11">
      <!-- 0.8 -->
      <g transform="translate(31.99375 95.06203)scale(0.2 -0.2)">
       <use xlink:href="#DejaVuSans-30"/>
       <use x="63.623047" xlink:href="#DejaVuSans-2e"/>
       <use x="95.410156" xlink:href="#DejaVuSans-38"/>
      </g>
     </g>
    </g>
    <g id="ytick_6">
     <g id="line2d_21">
      <path clip-path="url(#p58be9ac51a)" d="M 70.8 34.768147 
L 427.92 34.768147 
" style="fill:none;stroke:#b0b0b0;stroke-linecap:square;stroke-width:0.8;"/>
     </g>
     <g id="line2d_22">
      <g>
       <use style="stroke:#000000;stroke-width:0.8;" x="70.8" xlink:href="#mbc5141b0f9" y="34.768147"/>
      </g>
     </g>
     <g id="text_12">
      <!-- 1.0 -->
      <g transform="translate(31.99375 42.366585)scale(0.2 -0.2)">
       <use xlink:href="#DejaVuSans-31"/>
       <use x="63.623047" xlink:href="#DejaVuSans-2e"/>
       <use x="95.410156" xlink:href="#DejaVuSans-30"/>
      </g>
     </g>
    </g>
    <g id="text_13">
     <!-- Proportion of function+target pairs -->
     <defs>
      <path d="M 19.671875 64.796875 
L 19.671875 37.40625 
L 32.078125 37.40625 
Q 38.96875 37.40625 42.71875 40.96875 
Q 46.484375 44.53125 46.484375 51.125 
Q 46.484375 57.671875 42.71875 61.234375 
Q 38.96875 64.796875 32.078125 64.796875 
z
M 9.8125 72.90625 
L 32.078125 72.90625 
Q 44.34375 72.90625 50.609375 67.359375 
Q 56.890625 61.8125 56.890625 51.125 
Q 56.890625 40.328125 50.609375 34.8125 
Q 44.34375 29.296875 32.078125 29.296875 
L 19.671875 29.296875 
L 19.671875 0 
L 9.8125 0 
z
" id="DejaVuSans-50"/>
      <path d="M 41.109375 46.296875 
Q 39.59375 47.171875 37.8125 47.578125 
Q 36.03125 48 33.890625 48 
Q 26.265625 48 22.1875 43.046875 
Q 18.109375 38.09375 18.109375 28.8125 
L 18.109375 0 
L 9.078125 0 
L 9.078125 54.6875 
L 18.109375 54.6875 
L 18.109375 46.1875 
Q 20.953125 51.171875 25.484375 53.578125 
Q 30.03125 56 36.53125 56 
Q 37.453125 56 38.578125 55.875 
Q 39.703125 55.765625 41.0625 55.515625 
z
" id="DejaVuSans-72"/>
      <path d="M 18.109375 8.203125 
L 18.109375 -20.796875 
L 9.078125 -20.796875 
L 9.078125 54.6875 
L 18.109375 54.6875 
L 18.109375 46.390625 
Q 20.953125 51.265625 25.265625 53.625 
Q 29.59375 56 35.59375 56 
Q 45.5625 56 51.78125 48.09375 
Q 58.015625 40.1875 58.015625 27.296875 
Q 58.015625 14.40625 51.78125 6.484375 
Q 45.5625 -1.421875 35.59375 -1.421875 
Q 29.59375 -1.421875 25.265625 0.953125 
Q 20.953125 3.328125 18.109375 8.203125 
z
M 48.6875 27.296875 
Q 48.6875 37.203125 44.609375 42.84375 
Q 40.53125 48.484375 33.40625 48.484375 
Q 26.265625 48.484375 22.1875 42.84375 
Q 18.109375 37.203125 18.109375 27.296875 
Q 18.109375 17.390625 22.1875 11.75 
Q 26.265625 6.109375 33.40625 6.109375 
Q 40.53125 6.109375 44.609375 11.75 
Q 48.6875 17.390625 48.6875 27.296875 
z
" id="DejaVuSans-70"/>
      <path d="M 18.3125 70.21875 
L 18.3125 54.6875 
L 36.8125 54.6875 
L 36.8125 47.703125 
L 18.3125 47.703125 
L 18.3125 18.015625 
Q 18.3125 11.328125 20.140625 9.421875 
Q 21.96875 7.515625 27.59375 7.515625 
L 36.8125 7.515625 
L 36.8125 0 
L 27.59375 0 
Q 17.1875 0 13.234375 3.875 
Q 9.28125 7.765625 9.28125 18.015625 
L 9.28125 47.703125 
L 2.6875 47.703125 
L 2.6875 54.6875 
L 9.28125 54.6875 
L 9.28125 70.21875 
z
" id="DejaVuSans-74"/>
      <path d="M 8.5 21.578125 
L 8.5 54.6875 
L 17.484375 54.6875 
L 17.484375 21.921875 
Q 17.484375 14.15625 20.5 10.265625 
Q 23.53125 6.390625 29.59375 6.390625 
Q 36.859375 6.390625 41.078125 11.03125 
Q 45.3125 15.671875 45.3125 23.6875 
L 45.3125 54.6875 
L 54.296875 54.6875 
L 54.296875 0 
L 45.3125 0 
L 45.3125 8.40625 
Q 42.046875 3.421875 37.71875 1 
Q 33.40625 -1.421875 27.6875 -1.421875 
Q 18.265625 -1.421875 13.375 4.4375 
Q 8.5 10.296875 8.5 21.578125 
z
M 31.109375 56 
z
" id="DejaVuSans-75"/>
      <path d="M 48.78125 52.59375 
L 48.78125 44.1875 
Q 44.96875 46.296875 41.140625 47.34375 
Q 37.3125 48.390625 33.40625 48.390625 
Q 24.65625 48.390625 19.8125 42.84375 
Q 14.984375 37.3125 14.984375 27.296875 
Q 14.984375 17.28125 19.8125 11.734375 
Q 24.65625 6.203125 33.40625 6.203125 
Q 37.3125 6.203125 41.140625 7.25 
Q 44.96875 8.296875 48.78125 10.40625 
L 48.78125 2.09375 
Q 45.015625 0.34375 40.984375 -0.53125 
Q 36.96875 -1.421875 32.421875 -1.421875 
Q 20.0625 -1.421875 12.78125 6.34375 
Q 5.515625 14.109375 5.515625 27.296875 
Q 5.515625 40.671875 12.859375 48.328125 
Q 20.21875 56 33.015625 56 
Q 37.15625 56 41.109375 55.140625 
Q 45.0625 54.296875 48.78125 52.59375 
z
" id="DejaVuSans-63"/>
     </defs>
     <g transform="translate(24.250312 323.17875)rotate(-90)scale(0.18 -0.18)">
      <use xlink:href="#DejaVuSans-50"/>
      <use x="60.287109" xlink:href="#DejaVuSans-72"/>
      <use x="101.369141" xlink:href="#DejaVuSans-6f"/>
      <use x="162.550781" xlink:href="#DejaVuSans-70"/>
      <use x="226.027344" xlink:href="#DejaVuSans-6f"/>
      <use x="287.208984" xlink:href="#DejaVuSans-72"/>
      <use x="328.322266" xlink:href="#DejaVuSans-74"/>
      <use x="367.53125" xlink:href="#DejaVuSans-69"/>
      <use x="395.314453" xlink:href="#DejaVuSans-6f"/>
      <use x="456.496094" xlink:href="#DejaVuSans-6e"/>
      <use x="519.875" xlink:href="#DejaVuSans-20"/>
      <use x="551.662109" xlink:href="#DejaVuSans-6f"/>
      <use x="612.84375" xlink:href="#DejaVuSans-66"/>
      <use x="648.048828" xlink:href="#DejaVuSans-20"/>
      <use x="679.835938" xlink:href="#DejaVuSans-66"/>
      <use x="715.041016" xlink:href="#DejaVuSans-75"/>
      <use x="778.419922" xlink:href="#DejaVuSans-6e"/>
      <use x="841.798828" xlink:href="#DejaVuSans-63"/>
      <use x="896.779297" xlink:href="#DejaVuSans-74"/>
      <use x="935.988281" xlink:href="#DejaVuSans-69"/>
      <use x="963.771484" xlink:href="#DejaVuSans-6f"/>
      <use x="1024.953125" xlink:href="#DejaVuSans-6e"/>
      <use x="1088.332031" xlink:href="#DejaVuSans-2b"/>
      <use x="1172.121094" xlink:href="#DejaVuSans-74"/>
      <use x="1211.330078" xlink:href="#DejaVuSans-61"/>
      <use x="1272.609375" xlink:href="#DejaVuSans-72"/>
      <use x="1313.707031" xlink:href="#DejaVuSans-67"/>
      <use x="1377.183594" xlink:href="#DejaVuSans-65"/>
      <use x="1438.707031" xlink:href="#DejaVuSans-74"/>
      <use x="1477.916016" xlink:href="#DejaVuSans-20"/>
      <use x="1509.703125" xlink:href="#DejaVuSans-70"/>
      <use x="1573.179688" xlink:href="#DejaVuSans-61"/>
      <use x="1634.458984" xlink:href="#DejaVuSans-69"/>
      <use x="1662.242188" xlink:href="#DejaVuSans-72"/>
      <use x="1703.355469" xlink:href="#DejaVuSans-73"/>
     </g>
    </g>
   </g>
   <g id="line2d_23">
    <defs>
     <path d="M 0 1.5 
C 0.397805 1.5 0.77937 1.341951 1.06066 1.06066 
C 1.341951 0.77937 1.5 0.397805 1.5 0 
C 1.5 -0.397805 1.341951 -0.77937 1.06066 -1.06066 
C 0.77937 -1.341951 0.397805 -1.5 0 -1.5 
C -0.397805 -1.5 -0.77937 -1.341951 -1.06066 -1.06066 
C -1.341951 -0.77937 -1.5 -0.397805 -1.5 0 
C -1.5 0.397805 -1.341951 0.77937 -1.06066 1.06066 
C -0.77937 1.341951 -0.397805 1.5 0 1.5 
z
" id="m3ea2a4bbf7" style="stroke:#000080;"/>
    </defs>
    <g>
     <use style="fill:#000080;stroke:#000080;" x="286.050415" xlink:href="#m3ea2a4bbf7" y="196.643045"/>
     <use style="fill:#000080;stroke:#000080;" x="286.050415" xlink:href="#m3ea2a4bbf7" y="196.643045"/>
    </g>
   </g>
   <g id="line2d_24">
    <path d="M 17.271909 298.245375 
L 17.271909 297.922486 
L 29.657143 297.922486 
L 29.657143 297.685701 
L 68.917406 297.578072 
L 68.917406 297.513494 
L 76.812125 297.42739 
L 76.812125 297.362812 
L 81.30264 297.298235 
L 81.30264 297.233657 
L 84.057022 297.126027 
L 84.057022 297.104501 
L 84.888247 297.104501 
L 84.888247 296.95382 
L 88.547538 296.84619 
L 88.547538 296.803139 
L 89.197359 296.803139 
L 89.197359 296.630931 
L 91.016024 296.523302 
L 91.016024 296.48025 
L 93.687874 296.37262 
L 93.687874 296.351094 
L 95.570468 296.264991 
L 95.570468 296.221939 
L 96.442257 296.157361 
L 96.442257 296.092783 
L 96.862702 296.092783 
L 96.862702 295.963628 
L 97.273482 295.963628 
L 97.273482 295.662265 
L 97.675029 295.662265 
L 97.675029 295.533109 
L 98.067751 295.533109 
L 98.067751 295.339376 
L 98.828211 295.31785 
L 98.828211 295.167169 
L 99.557623 295.059539 
L 99.557623 294.95191 
L 99.911459 294.95191 
L 99.911459 294.758176 
L 100.932772 294.672073 
L 100.932772 294.499865 
L 101.260636 294.499865 
L 101.260636 294.198503 
L 101.898851 294.155451 
L 101.898851 293.918666 
L 102.515054 293.854088 
L 102.515054 293.767984 
L 103.401258 293.724932 
L 103.401258 293.552725 
L 103.968548 293.445095 
L 103.968548 293.358992 
L 104.245578 293.358992 
L 104.245578 293.20831 
L 106.073108 293.100681 
L 106.073108 293.057629 
L 107.039188 292.949999 
L 107.039188 292.928473 
L 107.272761 292.928473 
L 107.272761 292.799318 
L 107.955702 292.691688 
L 107.955702 292.605585 
L 109.454506 292.519481 
L 109.454506 292.476429 
L 111.026343 292.3688 
L 111.026343 292.26117 
L 111.763277 292.218118 
L 111.763277 291.981333 
L 113.48269 291.895229 
L 113.48269 291.852178 
L 115.051075 291.744548 
L 115.051075 291.658444 
L 115.64181 291.550815 
L 115.64181 291.486237 
L 117.038468 291.421659 
L 117.038468 291.357081 
L 117.826895 291.249452 
L 117.826895 291.227926 
L 118.704803 291.120296 
L 118.704803 291.012667 
L 119.424422 290.948089 
L 119.424422 290.797408 
L 120.452265 290.754356 
L 120.452265 290.6252 
L 121.424184 290.517571 
L 121.424184 290.496045 
L 122.145186 290.409941 
L 122.245852 290.302312 
L 122.54449 290.194682 
L 122.54449 290.130104 
L 123.598679 290.044001 
L 123.691501 289.828741 
L 124.058039 289.742638 
L 124.148511 289.67806 
L 124.417209 289.656534 
L 124.417209 289.419749 
L 124.856251 289.376697 
L 124.856251 289.247542 
L 125.11459 289.20449 
L 125.19988 288.967705 
L 127.133452 288.860075 
L 127.133452 288.838549 
L 127.66013 288.795497 
L 127.66013 288.709394 
L 128.739016 288.62329 
L 128.739016 288.580238 
L 129.887835 288.494134 
L 129.887835 288.386505 
L 130.467392 288.278875 
L 130.530642 288.235823 
L 131.090037 288.128194 
L 131.090037 288.106668 
L 131.750782 287.999038 
L 131.750782 287.955987 
L 132.130038 287.934461 
L 132.216427 287.762253 
L 133.003201 287.654624 
L 133.112822 287.590046 
L 133.651059 287.482416 
L 133.651059 287.439365 
L 134.224975 287.331735 
L 134.327371 287.224105 
L 134.979015 287.159528 
L 134.979015 287.073424 
L 135.247714 286.98732 
L 135.344429 286.815113 
L 135.488528 286.707483 
L 135.583952 286.492224 
L 135.70252 286.384595 
L 135.70252 286.363069 
L 136.030384 286.298491 
L 136.053575 286.212387 
L 136.283837 286.104758 
L 136.375117 285.954076 
L 136.690976 285.846447 
L 136.735647 285.717291 
L 136.868991 285.631187 
L 136.979357 285.45898 
L 137.089045 285.351351 
L 137.198064 285.136091 
L 137.306421 285.028462 
L 137.414126 284.856254 
L 137.478438 284.813203 
L 137.585114 284.51184 
L 137.733398 284.40421 
L 137.838566 284.167425 
L 137.901372 284.081321 
L 137.98477 283.779959 
L 138.19158 283.693855 
L 138.294093 283.521648 
L 138.497373 283.435544 
L 138.557909 283.327914 
L 138.658348 283.220285 
L 138.758226 283.069603 
L 138.956323 282.9835 
L 138.956323 282.789766 
L 139.093695 282.703663 
L 139.171722 282.509929 
L 139.307454 282.466878 
L 139.384555 282.316196 
L 139.670757 282.230093 
L 139.765147 281.971782 
L 140.06389 281.907204 
L 140.174643 281.541263 
L 140.284714 281.45516 
L 140.357719 281.390582 
L 140.502842 281.34753 
L 140.592949 281.024641 
L 140.754004 280.917012 
L 140.754004 280.809382 
L 140.984107 280.723278 
L 141.036789 280.594123 
L 141.486979 280.486493 
L 141.589278 280.357338 
L 141.657153 280.271234 
L 141.724771 280.099027 
L 141.94278 279.991397 
L 141.976085 279.926819 
L 142.207498 279.840716 
L 142.240313 279.776138 
L 142.354696 279.754612 
L 142.41973 279.625457 
L 142.516839 279.582405 
L 142.613424 279.324094 
L 142.805041 279.216464 
L 142.900084 279.108835 
L 142.963167 279.108835 
L 143.073028 278.915101 
L 143.197763 278.807472 
L 143.244315 278.699842 
L 143.551598 278.613738 
L 143.612426 278.527635 
L 143.778642 278.420005 
L 143.838703 278.29085 
L 144.297454 278.18322 
L 144.384901 278.07559 
L 144.457447 277.967961 
L 144.5297 277.774228 
L 144.787417 277.666598 
L 144.886646 277.537443 
L 144.985326 277.451339 
L 145.083464 277.23608 
L 145.208855 277.149976 
L 145.264303 276.956243 
L 145.347153 276.956243 
L 145.457027 276.697932 
L 145.566229 276.633354 
L 145.620581 276.461147 
L 145.996483 276.353517 
L 146.089235 276.267413 
L 146.494307 276.159784 
L 146.55879 276.116732 
L 146.750853 276.052154 
L 146.852449 275.944525 
L 146.95347 275.858421 
L 147.028863 275.664688 
L 147.128895 275.60011 
L 147.22837 275.449429 
L 147.327294 275.341799 
L 147.425673 275.12654 
L 147.499104 275.01891 
L 147.596544 274.932807 
L 147.765797 274.889755 
L 147.861798 274.373133 
L 147.945378 274.287029 
L 148.052266 274.028718 
L 148.357511 273.921088 
L 148.450393 273.813459 
L 148.588816 273.813459 
L 148.691935 273.619726 
L 149.087388 273.512096 
L 149.176562 273.447518 
L 149.572426 273.339889 
L 149.670036 273.189207 
L 149.745589 273.189207 
L 149.831545 272.608007 
L 150.129177 272.500378 
L 150.192315 272.220541 
L 150.328354 272.134437 
L 150.328354 272.091385 
L 150.658872 271.983756 
L 150.760917 271.725445 
L 151.113556 271.639341 
L 151.222963 271.38103 
L 151.547221 271.273401 
L 151.615253 270.950512 
L 151.884821 270.842882 
L 151.970611 270.735253 
L 152.055991 270.670675 
L 152.122116 270.563045 
L 152.253638 270.476942 
L 152.291039 270.390838 
L 152.412053 270.32626 
L 152.458379 270.024897 
L 152.550674 270.024897 
L 152.660801 269.831164 
L 152.715611 269.766586 
L 152.797513 269.594379 
L 153.112496 269.486749 
L 153.201481 269.37912 
L 153.360546 269.27149 
L 153.413254 269.228438 
L 153.846547 269.142335 
L 153.914909 269.013179 
L 154.269581 268.90555 
L 154.361319 268.79792 
L 154.394562 268.711816 
L 154.485663 268.625713 
L 154.73993 268.539609 
L 154.813077 268.43198 
L 154.877846 268.32435 
L 154.910142 268.238246 
L 155.166435 268.152143 
L 155.166435 268.044513 
L 155.403416 267.936883 
L 155.403416 267.915358 
L 155.69915 267.829254 
L 155.69915 267.786202 
L 156.065845 267.678572 
L 156.065845 267.635521 
L 156.373212 267.613995 
L 156.462182 267.205002 
L 156.646126 267.097373 
L 156.719176 266.989743 
L 156.936553 266.882113 
L 157.008428 266.79601 
L 157.461706 266.68838 
L 157.5663 266.645328 
L 157.855948 266.537699 
L 157.944657 266.408543 
L 158.060002 266.32244 
L 158.060002 266.279388 
L 158.295156 266.171758 
L 158.348474 266.128706 
L 158.586454 266.021077 
L 158.691215 265.956499 
L 158.821307 265.848869 
L 158.911812 265.784292 
L 159.046714 265.676662 
L 159.15518 265.590558 
L 159.557717 265.525981 
L 159.619803 265.418351 
L 159.975704 265.375299 
L 160.054512 265.203092 
L 160.455253 265.138514 
L 160.549637 264.944781 
L 160.6201 264.880203 
L 160.672765 264.751048 
L 160.847203 264.643418 
L 160.956806 264.428159 
L 161.162649 264.342055 
L 161.259034 264.10527 
L 161.427868 263.997641 
L 161.522837 263.825433 
L 161.832154 263.717804 
L 161.832154 263.653226 
L 162.08229 263.588648 
L 162.11466 263.481019 
L 162.392768 263.373389 
L 162.413983 263.330337 
L 162.905413 263.222708 
L 162.920877 263.179656 
L 163.2071 263.072026 
L 163.2071 263.0505 
L 163.423808 262.942871 
L 163.503777 262.813715 
L 163.873935 262.706086 
L 163.956782 262.619982 
L 164.198247 262.512352 
L 164.241366 262.404723 
L 164.417549 262.297093 
L 164.521489 262.124886 
L 164.94051 262.017256 
L 165.036884 261.931153 
L 165.123633 261.888101 
L 165.191824 261.715893 
L 165.421743 261.608264 
L 165.524472 261.500634 
L 165.964379 261.414531 
L 166.046751 261.328427 
L 166.180337 261.220797 
L 166.287345 261.091642 
L 166.397957 260.984012 
L 166.48258 260.94096 
L 166.646451 260.833331 
L 166.717415 260.682649 
L 166.841961 260.57502 
L 166.899786 260.510442 
L 167.112944 260.402812 
L 167.1699 260.252131 
L 167.435992 260.144501 
L 167.543716 259.99382 
L 167.587417 259.88619 
L 167.682398 259.52025 
L 167.713946 259.52025 
L 167.816095 259.175835 
L 168.034144 259.068206 
L 168.126785 259.025154 
L 168.280127 258.917524 
L 168.356308 258.83142 
L 168.55287 258.723791 
L 168.609171 258.46548 
L 168.683965 258.400902 
L 168.791862 258.164117 
L 168.836319 258.121065 
L 168.836319 258.013436 
L 169.122627 257.905806 
L 169.166269 257.798176 
L 169.390075 257.690547 
L 169.440226 257.539865 
L 169.660647 257.432236 
L 169.660647 257.41071 
L 170.141714 257.30308 
L 170.206945 257.173925 
L 170.5632 257.066295 
L 170.610168 256.93714 
L 170.727052 256.82951 
L 170.810075 256.442044 
L 170.932245 256.377466 
L 170.961836 256.183733 
L 171.154618 256.119155 
L 171.21626 255.925422 
L 171.354986 255.817792 
L 171.354986 255.796266 
L 171.635576 255.688637 
L 171.708191 255.581007 
L 171.970917 255.473377 
L 172.045277 255.30117 
L 172.312268 255.19354 
L 172.412506 255.064385 
L 172.58733 254.978281 
L 172.662161 254.763022 
L 172.822734 254.655392 
L 172.822734 254.633867 
L 173.025833 254.547763 
L 173.049232 254.483185 
L 173.223756 254.375556 
L 173.327657 254.181822 
L 173.428096 254.117245 
L 173.493793 253.945037 
L 173.678163 253.837408 
L 173.768236 253.729778 
L 173.921995 253.622148 
L 174.002539 253.385363 
L 174.157051 253.29926 
L 174.266604 253.148578 
L 174.567143 253.040949 
L 174.644837 252.868741 
L 174.857428 252.761112 
L 174.962783 252.61043 
L 175.176838 252.524327 
L 175.28549 252.179912 
L 175.416543 252.093808 
L 175.503381 251.986179 
L 175.690935 251.900075 
L 175.786486 251.706342 
L 175.891505 251.598712 
L 175.99591 251.512609 
L 176.126794 251.426505 
L 176.198007 251.168194 
L 176.487286 251.060564 
L 176.593072 250.931409 
L 176.664841 250.823779 
L 176.757712 250.759201 
L 176.814625 250.694624 
L 176.918496 250.50089 
L 177.105819 250.393261 
L 177.196432 250.156476 
L 177.542995 250.048846 
L 177.647249 249.962743 
L 177.96973 249.855113 
L 178.069324 249.725957 
L 178.146403 249.618328 
L 178.231902 249.467646 
L 178.414675 249.360017 
L 178.414675 249.295439 
L 178.627714 249.187809 
L 178.738603 249.037128 
L 178.922605 248.929498 
L 179.019133 248.821869 
L 179.133867 248.714239 
L 179.235467 248.585084 
L 179.569345 248.477454 
L 179.676577 248.348299 
L 179.755074 248.262195 
L 179.755074 248.219143 
L 179.988517 248.111514 
L 180.091298 247.91778 
L 180.277559 247.831677 
L 180.277559 247.788625 
L 180.625236 247.680995 
L 180.732037 247.616418 
L 180.909887 247.508788 
L 181.013133 247.379632 
L 181.082256 247.315055 
L 181.165965 247.185899 
L 181.311979 247.099796 
L 181.38729 246.949114 
L 181.589604 246.86301 
L 181.665562 246.647751 
L 181.952002 246.540122 
L 182.056478 246.38944 
L 182.279317 246.303337 
L 182.376701 246.195707 
L 182.471832 246.109603 
L 182.55616 245.980448 
L 182.733835 245.872818 
L 182.842301 245.571455 
L 182.903026 245.528404 
L 183.01382 245.183989 
L 183.324059 245.076359 
L 183.391365 244.925678 
L 183.688727 244.818048 
L 183.757887 244.645841 
L 183.860329 244.581263 
L 183.95425 244.366004 
L 184.113894 244.2799 
L 184.132767 244.150745 
L 184.445964 244.064641 
L 184.527641 243.91396 
L 184.618129 243.827856 
L 184.724895 243.677175 
L 184.858217 243.569545 
L 184.945548 243.354286 
L 185.178341 243.246656 
L 185.280348 243.160553 
L 185.561166 243.074449 
L 185.650912 242.966819 
L 186.011116 242.85919 
L 186.104268 242.730034 
L 186.266821 242.643931 
L 186.36559 242.342568 
L 186.643645 242.234938 
L 186.744433 242.084257 
L 186.949692 241.976627 
L 186.985907 241.847472 
L 187.16589 241.739842 
L 187.274334 241.503057 
L 187.358519 241.416953 
L 187.431856 241.33085 
L 187.674592 241.22322 
L 187.742794 241.094065 
L 187.938229 240.986435 
L 187.956006 240.943383 
L 188.238054 240.835754 
L 188.285463 240.728124 
L 188.446706 240.620494 
L 188.54153 240.534391 
L 188.781865 240.426761 
L 188.888187 240.27608 
L 189.02738 240.16845 
L 189.06678 240.103872 
L 189.299022 239.996243 
L 189.36248 239.80251 
L 189.480568 239.69488 
L 189.561956 239.608776 
L 189.797051 239.501147 
L 189.886129 239.264362 
L 190.075367 239.199784 
L 190.075367 239.135206 
L 190.278232 239.027577 
L 190.364949 238.941473 
L 190.635716 238.855369 
L 190.635716 238.833843 
L 190.677179 238.790791 
L 190.809648 238.704688 
L 190.916427 238.510954 
L 191.001179 238.424851 
L 191.036463 238.360273 
L 191.207614 238.274169 
L 191.314151 238.145014 
L 191.501417 238.037384 
L 191.566863 237.843651 
L 191.804799 237.736021 
L 191.859966 237.671444 
L 191.967765 237.563814 
L 192.067861 237.434659 
L 192.332075 237.327029 
L 192.35987 237.219399 
L 192.76199 237.11177 
L 192.832648 237.068718 
L 192.947234 237.00414 
L 193.014295 236.896511 
L 193.164745 236.788881 
L 193.250824 236.6382 
L 193.374018 236.53057 
L 193.43483 236.379889 
L 193.621582 236.272259 
L 193.725721 236.078526 
L 193.829257 236.013948 
L 193.939462 235.820215 
L 194.208906 235.712585 
L 194.208906 235.691059 
L 194.671525 235.58343 
L 194.757599 235.454274 
L 194.932808 235.368171 
L 195.017635 235.239015 
L 195.111418 235.131385 
L 195.204711 235.066808 
L 195.35549 234.959178 
L 195.463369 234.808497 
L 195.672249 234.743919 
L 195.756106 234.507134 
L 195.868122 234.399504 
L 195.948633 234.141193 
L 196.329956 234.033564 
L 196.41158 233.94746 
L 196.761555 233.83983 
L 196.849724 233.732201 
L 197.010245 233.624571 
L 197.114691 233.47389 
L 197.260801 233.387786 
L 197.365295 233.237105 
L 197.596162 233.129475 
L 197.70534 233.043372 
L 197.813854 232.935742 
L 197.885347 232.871164 
L 198.019533 232.763535 
L 198.124006 232.548275 
L 198.324035 232.440646 
L 198.342496 232.397594 
L 198.670877 232.289964 
L 198.763998 232.074705 
L 198.929579 231.967076 
L 198.962512 231.902498 
L 199.152063 231.816394 
L 199.196771 231.644187 
L 199.454692 231.536557 
L 199.563059 231.428928 
L 199.769324 231.321298 
L 199.847776 231.192143 
L 200.088168 231.084513 
L 200.198529 230.998409 
L 200.37104 230.912306 
L 200.462663 230.718572 
L 200.650127 230.610943 
L 200.716737 230.438736 
L 200.897262 230.331106 
L 200.986234 230.223476 
L 201.24871 230.115847 
L 201.25474 230.072795 
L 201.540052 229.965165 
L 201.540052 229.943639 
L 201.8127 229.83601 
L 201.903636 229.749906 
L 202.03225 229.642277 
L 202.142169 229.556173 
L 202.258258 229.448543 
L 202.34866 229.36244 
L 202.608215 229.25481 
L 202.692975 228.996499 
L 202.873968 228.888869 
L 202.979391 228.845818 
L 203.268833 228.738188 
L 203.306499 228.652084 
L 203.506414 228.544455 
L 203.601309 228.372247 
L 203.804245 228.264618 
L 203.881968 228.178514 
L 204.092564 228.070885 
L 204.176726 228.006307 
L 204.400589 227.898677 
L 204.46519 227.812574 
L 204.825761 227.704944 
L 204.825761 227.683418 
L 205.136068 227.575789 
L 205.234296 227.468159 
L 205.510109 227.360529 
L 205.526732 227.295952 
L 205.805582 227.188322 
L 205.915078 226.973063 
L 206.170127 226.865433 
L 206.256467 226.77933 
L 206.337403 226.714752 
L 206.437383 226.607122 
L 206.707368 226.499493 
L 206.815025 226.391863 
L 206.994336 226.284233 
L 207.078534 226.176604 
L 207.314176 226.068974 
L 207.378918 225.982871 
L 207.580637 225.896767 
L 207.620794 225.810663 
L 207.888994 225.72456 
L 207.950032 225.61693 
L 208.14749 225.5093 
L 208.24031 225.466249 
L 208.564837 225.358619 
L 208.651534 225.250989 
L 208.860743 225.14336 
L 208.966002 225.03573 
L 209.166548 224.928101 
L 209.273107 224.712842 
L 209.439391 224.605212 
L 209.523095 224.497582 
L 209.807032 224.411479 
L 209.906877 224.303849 
L 210.188851 224.217745 
L 210.295318 224.08859 
L 210.472204 224.002486 
L 210.574854 223.227553 
L 210.682965 223.119924 
L 210.793608 222.753983 
L 210.881773 222.646353 
L 210.980004 222.409568 
L 211.091262 222.323465 
L 211.175898 222.194309 
L 211.434589 222.08668 
L 211.51592 222.022102 
L 211.671759 221.914472 
L 211.700681 221.828369 
L 212.024684 221.720739 
L 212.024684 221.699213 
L 212.203958 221.591584 
L 212.310145 221.39785 
L 212.440548 221.290221 
L 212.541175 221.182591 
L 212.652075 221.074961 
L 212.734722 220.967332 
L 212.853569 220.859702 
L 212.929331 220.730547 
L 213.241544 220.622917 
L 213.334399 220.45071 
L 213.449946 220.34308 
L 213.558997 220.278503 
L 213.621575 220.170873 
L 213.685739 220.041717 
L 213.833968 219.934088 
L 213.902723 219.804932 
L 214.287997 219.697303 
L 214.343441 219.632725 
L 214.494096 219.546621 
L 214.598404 219.460518 
L 214.680789 219.352888 
L 214.782036 219.202207 
L 214.961 219.094577 
L 215.051486 218.92237 
L 215.396624 218.81474 
L 215.489557 218.728637 
L 215.61767 218.621007 
L 215.724761 218.556429 
L 215.813072 218.470325 
L 215.845876 218.319644 
L 216.130309 218.212014 
L 216.241419 218.104385 
L 216.453605 217.996755 
L 216.557608 217.889126 
L 216.658718 217.781496 
L 216.766347 217.673867 
L 216.858986 217.566237 
L 216.940625 217.437081 
L 217.370493 217.329452 
L 217.480254 217.200296 
L 217.805311 217.092667 
L 217.88869 216.963511 
L 218.212068 216.855882 
L 218.322363 216.726726 
L 218.425293 216.619097 
L 218.509279 216.532993 
L 218.696078 216.425363 
L 218.78423 216.296208 
L 219.059688 216.188578 
L 219.074373 216.145526 
L 219.263971 216.037897 
L 219.369291 215.930267 
L 219.904405 215.822638 
L 220.001172 215.736534 
L 220.541331 215.628904 
L 220.627787 215.542801 
L 220.768933 215.435171 
L 220.870798 215.349067 
L 221.257003 215.241438 
L 221.257003 215.219912 
L 221.639084 215.112282 
L 221.680268 215.004653 
L 222.058015 214.897023 
L 222.155616 214.789394 
L 222.320695 214.681764 
L 222.38475 214.617186 
L 222.525564 214.509557 
L 222.628309 214.423453 
L 222.811847 214.315823 
L 222.91996 213.949883 
L 222.945767 213.842253 
L 222.995483 213.626994 
L 223.353164 213.519365 
L 223.386567 213.476313 
L 223.684246 213.368683 
L 223.767392 213.282579 
L 223.893174 213.17495 
L 223.936599 213.06732 
L 224.116468 212.959691 
L 224.201305 212.873587 
L 224.433827 212.765957 
L 224.542904 212.658328 
L 224.770889 212.550698 
L 224.850911 212.421543 
L 225.089961 212.313913 
L 225.168412 212.227809 
L 225.249354 212.141706 
L 225.335414 212.01255 
L 225.528789 211.904921 
L 225.625082 211.861869 
L 225.725152 211.754239 
L 225.824817 211.668136 
L 225.990959 211.560506 
L 226.093061 211.388299 
L 226.218457 211.280669 
L 226.281718 211.237617 
L 226.543971 211.129988 
L 226.599816 210.979306 
L 226.817721 210.871677 
L 226.844089 210.807099 
L 227.063463 210.699469 
L 227.169532 210.548788 
L 227.300257 210.441158 
L 227.392791 210.333529 
L 227.788141 210.225899 
L 227.887698 210.11827 
L 228.12394 210.01064 
L 228.20778 209.924536 
L 228.639028 209.816907 
L 228.744327 209.752329 
L 228.969068 209.644699 
L 228.969452 209.601648 
L 229.177124 209.494018 
L 229.266991 209.450966 
L 229.6662 209.343337 
L 229.7512 209.300285 
L 230.037548 209.192655 
L 230.13039 208.676033 
L 230.285566 208.568404 
L 230.360228 208.525352 
L 230.582125 208.417722 
L 230.645436 208.353144 
L 231.01246 208.267041 
L 231.103561 208.180937 
L 231.429445 208.073307 
L 231.513794 208.030256 
L 231.854551 207.922626 
L 231.959752 207.836522 
L 232.1932 207.728893 
L 232.213468 207.664315 
L 232.434382 207.556685 
L 232.460373 207.492108 
L 232.69499 207.406004 
L 232.778129 207.298374 
L 233.025046 207.190745 
L 233.076116 207.147693 
L 233.273623 207.040063 
L 233.376609 206.910908 
L 233.552451 206.803278 
L 233.552451 206.781752 
L 233.775002 206.674123 
L 233.861152 206.566493 
L 234.050695 206.458864 
L 234.050695 206.437338 
L 234.46394 206.329708 
L 234.521747 206.26513 
L 235.026664 206.157501 
L 235.137077 206.049871 
L 235.17659 205.942242 
L 235.286802 205.597827 
L 235.519742 205.490197 
L 235.519742 205.468671 
L 235.986721 205.361042 
L 236.087942 205.296464 
L 236.368618 205.188835 
L 236.457115 205.081205 
L 236.891826 204.973575 
L 236.990917 204.84442 
L 237.240169 204.73679 
L 237.29328 204.672213 
L 237.613008 204.564583 
L 237.65048 204.478479 
L 237.833951 204.37085 
L 237.944219 204.26322 
L 238.195641 204.15559 
L 238.253139 204.069487 
L 238.740203 203.961857 
L 238.847094 203.875754 
L 239.077426 203.768124 
L 239.165642 203.660494 
L 239.326105 203.552865 
L 239.326105 203.531339 
L 239.648892 203.423709 
L 239.732098 203.380657 
L 239.961805 203.273028 
L 240.042126 203.186924 
L 240.427699 203.079295 
L 240.427699 203.057769 
L 240.741275 202.950139 
L 240.781647 202.864035 
L 241.041508 202.756406 
L 241.090941 202.713354 
L 241.537575 202.605724 
L 241.595623 202.562673 
L 241.890822 202.455043 
L 241.984919 202.390465 
L 242.404228 202.282836 
L 242.472506 202.067577 
L 243.136273 201.959947 
L 243.217314 201.916895 
L 243.545088 201.809266 
L 243.578079 201.744688 
L 243.872566 201.637058 
L 243.872566 201.615532 
L 244.295011 201.507903 
L 244.40059 201.443325 
L 244.997947 201.335695 
L 244.997947 201.314169 
L 245.282529 201.20654 
L 245.299041 201.163488 
L 245.687669 201.055858 
L 245.687669 201.034332 
L 246.040507 200.926703 
L 246.069839 200.883651 
L 246.404879 200.776021 
L 246.472925 200.73297 
L 246.962361 200.62534 
L 247.039438 200.582288 
L 247.545831 200.474659 
L 247.567875 200.388555 
L 248.150744 200.280925 
L 248.256871 200.237874 
L 248.755753 200.130244 
L 248.863565 200.04414 
L 249.388876 199.936511 
L 249.388876 199.914985 
L 249.646594 199.807355 
L 249.650291 199.764303 
L 250.334867 199.656674 
L 250.357629 199.613622 
L 250.968821 199.505992 
L 251.076649 199.419889 
L 251.987971 199.312259 
L 252.014813 199.247681 
L 252.804045 199.140052 
L 252.804045 199.118526 
L 253.729594 199.010896 
L 253.729594 198.98937 
L 254.783163 198.881741 
L 254.809672 198.774111 
L 255.576008 198.666482 
L 255.658983 198.62343 
L 256.23897 198.5158 
L 256.23897 198.494274 
L 257.102415 198.386645 
L 257.102415 198.365119 
L 257.774286 198.257489 
L 257.774286 198.235963 
L 258.768033 198.128334 
L 258.858375 198.04223 
L 259.921955 197.9346 
L 259.99984 197.891549 
L 260.387342 197.783919 
L 260.387342 197.762393 
L 261.227057 197.654763 
L 261.30152 197.56866 
L 263.593017 197.46103 
L 263.593017 197.439504 
L 264.866547 197.331875 
L 264.866547 197.310349 
L 265.839909 197.202719 
L 265.839909 197.181193 
L 268.373631 197.073564 
L 268.373631 197.052038 
L 271.950271 196.944408 
L 272.000914 196.901356 
L 277.296304 196.793727 
L 277.296304 196.772201 
L 286.050415 196.664571 
L 286.050415 196.643045 
L 358.8 196.643045 
L 358.8 196.643045 
" style="fill:none;stroke:#000080;stroke-linecap:square;stroke-width:1.5;"/>
   </g>
   <g id="line2d_25">
    <defs>
     <path d="M 0 6 
C 1.591219 6 3.117479 5.367802 4.242641 4.242641 
C 5.367802 3.117479 6 1.591219 6 0 
C 6 -1.591219 5.367802 -3.117479 4.242641 -4.242641 
C 3.117479 -5.367802 1.591219 -6 0 -6 
C -1.591219 -6 -3.117479 -5.367802 -4.242641 -4.242641 
C -5.367802 -3.117479 -6 -1.591219 -6 0 
C -6 1.591219 -5.367802 3.117479 -4.242641 4.242641 
C -3.117479 5.367802 -1.591219 6 0 6 
z
" id="m1fd51377d2" style="stroke:#000080;stroke-width:1.5;"/>
    </defs>
    <g>
     <use style="fill:none;stroke:#000080;stroke-width:1.5;" x="103.110713" xlink:href="#m1fd51377d2" y="293.767984"/>
     <use style="fill:none;stroke:#000080;stroke-width:1.5;" x="166.180337" xlink:href="#m1fd51377d2" y="261.199271"/>
     <use style="fill:none;stroke:#000080;stroke-width:1.5;" x="207.331349" xlink:href="#m1fd51377d2" y="226.047448"/>
     <use style="fill:none;stroke:#000080;stroke-width:1.5;" x="246.069839" xlink:href="#m1fd51377d2" y="200.883651"/>
     <use style="fill:none;stroke:#000080;stroke-width:1.5;" x="286.050415" xlink:href="#m1fd51377d2" y="196.643045"/>
     <use style="fill:none;stroke:#000080;stroke-width:1.5;" x="358.8" xlink:href="#m1fd51377d2" y="196.643045"/>
    </g>
   </g>
   <g id="line2d_26"/>
   <g id="line2d_27">
    <path clip-path="url(#p58be9ac51a)" d="M 210.371134 224.024012 
" style="fill:none;stroke:#000080;stroke-linecap:square;stroke-width:1.5;"/>
    <defs>
     <path d="M -12 12 
L 12 -12 
M -12 -12 
L 12 12 
" id="m497a23bb4b" style="stroke:#000080;stroke-width:3;"/>
    </defs>
    <g clip-path="url(#p58be9ac51a)">
     <use style="fill:#000080;stroke:#000080;stroke-width:3;" x="210.371134" xlink:href="#m497a23bb4b" y="224.024012"/>
    </g>
   </g>
   <g id="line2d_28">
    <defs>
     <path d="M 0 1.5 
C 0.397805 1.5 0.77937 1.341951 1.06066 1.06066 
C 1.341951 0.77937 1.5 0.397805 1.5 0 
C 1.5 -0.397805 1.341951 -0.77937 1.06066 -1.06066 
C 0.77937 -1.341951 0.397805 -1.5 0 -1.5 
C -0.397805 -1.5 -0.77937 -1.341951 -1.06066 -1.06066 
C -1.341951 -0.77937 -1.5 -0.397805 -1.5 0 
C -1.5 0.397805 -1.341951 0.77937 -1.06066 1.06066 
C -0.77937 1.341951 -0.397805 1.5 0 1.5 
z
" id="mc1d8a06ddc" style="stroke:#ff00ff;"/>
    </defs>
    <g>
     <use style="fill:#ff00ff;stroke:#ff00ff;" x="290.973114" xlink:href="#mc1d8a06ddc" y="100.637454"/>
     <use style="fill:#ff00ff;stroke:#ff00ff;" x="290.973114" xlink:href="#mc1d8a06ddc" y="100.637454"/>
    </g>
   </g>
   <g id="line2d_29">
    <path d="M 17.271909 298.245375 
L 17.271909 297.922486 
L 29.657143 297.922486 
L 29.657143 297.793331 
L 58.414766 297.728753 
L 58.414766 297.642649 
L 68.917406 297.578072 
L 68.917406 297.491968 
L 75.487955 297.470442 
L 75.487955 297.362812 
L 81.30264 297.255183 
L 81.30264 297.212131 
L 83.185234 297.190605 
L 83.185234 297.039924 
L 84.888247 297.018398 
L 84.888247 296.867716 
L 86.442977 296.760087 
L 86.442977 296.738561 
L 89.197359 296.652457 
L 89.197359 296.587879 
L 91.583313 296.501776 
L 91.583313 296.437198 
L 95.118087 296.351094 
L 95.118087 296.286517 
L 96.442257 296.178887 
L 96.442257 296.135835 
L 96.862702 296.135835 
L 96.862702 295.920576 
L 97.273482 295.920576 
L 97.273482 295.296324 
L 97.675029 295.296324 
L 97.675029 294.887332 
L 98.067751 294.887332 
L 98.067751 294.758176 
L 98.828211 294.73665 
L 98.828211 294.37071 
L 99.196639 294.37071 
L 99.196639 294.176977 
L 99.911459 294.090873 
L 99.911459 293.918666 
L 100.258423 293.918666 
L 100.258423 293.767984 
L 100.598779 293.767984 
L 100.598779 293.638829 
L 101.260636 293.595777 
L 101.260636 293.509673 
L 101.898851 293.402044 
L 101.898851 293.337466 
L 102.515054 293.31594 
L 102.515054 293.20831 
L 103.401258 293.165259 
L 103.401258 293.079155 
L 103.968548 293.079155 
L 103.968548 292.84237 
L 104.518379 292.73474 
L 104.518379 292.648637 
L 105.823201 292.562533 
L 105.823201 292.519481 
L 106.073108 292.519481 
L 106.073108 292.390325 
L 106.802521 292.3688 
L 106.802521 292.26117 
L 107.039188 292.26117 
L 107.039188 292.132014 
L 107.730943 292.024385 
L 107.730943 292.002859 
L 108.827491 291.895229 
L 108.827491 291.852178 
L 110.060263 291.7876 
L 110.060263 291.701496 
L 111.213445 291.636918 
L 111.213445 291.550815 
L 111.763277 291.486237 
L 111.763277 291.400133 
L 113.15179 291.31403 
L 113.15179 291.270978 
L 114.126656 291.184874 
L 114.126656 291.141822 
L 114.748218 291.034193 
L 114.748218 291.012667 
L 116.072388 290.905037 
L 116.072388 290.818934 
L 116.492834 290.711304 
L 116.492834 290.689778 
L 116.767733 290.582148 
L 116.767733 290.517571 
L 117.697882 290.409941 
L 117.697882 290.345363 
L 118.333826 290.237734 
L 118.333826 290.216208 
L 118.82677 290.15163 
L 118.82677 290.022475 
L 119.068235 289.979423 
L 119.068235 289.828741 
L 120.22891 289.721112 
L 120.22891 289.635008 
L 120.890768 289.527378 
L 120.890768 289.505853 
L 121.318767 289.441275 
L 121.318767 289.355171 
L 121.63317 289.247542 
L 121.736754 287.740727 
L 122.04395 287.654624 
L 122.145186 287.590046 
L 122.345953 287.546994 
L 122.445497 286.836639 
L 122.740845 286.750535 
L 122.740845 286.061706 
L 123.127198 285.997128 
L 123.222494 285.157617 
L 123.87571 285.049988 
L 123.87571 285.006936 
L 124.238527 284.942358 
L 124.328091 284.081321 
L 125.028891 283.995218 
L 125.11459 283.801484 
L 125.453332 283.736907 
L 125.537024 282.961974 
L 125.70324 282.940448 
L 125.785772 282.165515 
L 126.353061 282.079411 
L 126.353061 282.014833 
L 126.825374 281.92873 
L 126.825374 281.864152 
L 128.315246 281.756522 
L 128.315246 281.713471 
L 128.94719 281.605841 
L 129.016046 281.541263 
L 129.221037 281.541263 
L 129.221037 280.895486 
L 129.423702 280.895486 
L 129.457257 280.29276 
L 129.953166 280.18513 
L 129.953166 279.646982 
L 130.593669 279.539353 
L 130.593669 279.517827 
L 130.967232 279.410197 
L 131.059415 279.302568 
L 131.453469 279.23799 
L 131.483424 279.151886 
L 131.809656 279.065783 
L 131.83902 279.001205 
L 132.158881 278.958153 
L 132.216427 278.054065 
L 132.387963 277.967961 
L 132.473117 277.903383 
L 132.501411 277.903383 
L 132.501411 277.774228 
L 132.837499 277.688124 
L 132.892904 276.568776 
L 133.276002 276.461147 
L 133.330066 276.396569 
L 133.491283 276.396569 
L 133.544701 275.643162 
L 133.966387 275.621636 
L 134.070271 274.825177 
L 134.580824 274.717547 
L 134.580824 274.696021 
L 135.126079 274.588392 
L 135.223453 272.866319 
L 135.416624 272.801741 
L 135.488528 272.134437 
L 135.560144 272.134437 
L 135.655187 271.553238 
L 135.796811 271.445608 
L 135.867204 270.735253 
L 135.983913 270.627623 
L 136.030384 270.541519 
L 136.192088 270.43389 
L 136.283837 270.261683 
L 136.420583 270.175579 
L 136.51117 270.024897 
L 136.735647 269.917268 
L 136.824654 269.702009 
L 136.957338 269.615905 
L 137.04525 269.314542 
L 137.154536 269.249964 
L 137.263157 268.238246 
L 137.349581 268.173669 
L 137.435589 267.936883 
L 137.499824 267.893832 
L 137.606373 267.075847 
L 137.691156 267.032795 
L 137.796573 265.999551 
L 137.859526 265.891921 
L 137.94312 265.698188 
L 138.026324 265.612084 
L 138.109143 265.353773 
L 138.232656 265.26767 
L 138.314526 264.2129 
L 138.436632 264.10527 
L 138.517575 263.933063 
L 138.598153 263.911537 
L 138.678369 263.696278 
L 138.837729 263.610174 
L 138.916879 263.459493 
L 139.015326 263.373389 
L 139.093695 263.201182 
L 139.384555 263.093552 
L 139.461325 262.813715 
L 139.746309 262.706086 
L 139.840302 262.641508 
L 139.952446 262.57693 
L 140.026819 262.404723 
L 140.248099 262.361671 
L 140.357719 262.124886 
L 140.574964 262.060308 
L 140.682603 261.931153 
L 140.825121 261.845049 
L 140.931269 261.62979 
L 141.036789 261.586738 
L 141.106792 261.457582 
L 141.22864 261.371479 
L 141.315169 261.156219 
L 141.435609 261.04859 
L 141.538202 260.94096 
L 141.859245 260.833331 
L 141.95944 260.661123 
L 142.025926 260.57502 
L 142.025926 260.46739 
L 142.32209 260.359761 
L 142.403494 260.187553 
L 142.613424 260.10145 
L 142.709489 259.929242 
L 142.86846 259.864664 
L 142.947417 259.649405 
L 143.337056 259.541776 
L 143.429318 257.066295 
L 143.521107 257.044769 
L 143.551598 256.269836 
L 143.853687 256.162207 
L 143.943327 255.30117 
L 144.121268 255.19354 
L 144.18019 254.418607 
L 144.26821 254.418607 
L 144.355799 252.976371 
L 144.558519 252.868741 
L 144.616019 252.481275 
L 144.758965 252.438223 
L 144.858351 250.866831 
L 144.872504 250.866831 
L 144.957187 250.565468 
L 144.985326 250.565468 
L 145.083464 249.037128 
L 145.264303 248.929498 
L 145.347153 248.800343 
L 145.593425 248.692713 
L 145.701799 247.594892 
L 145.728791 247.594892 
L 145.782651 245.4423 
L 145.889887 245.399248 
L 145.996483 244.624315 
L 146.207786 244.516685 
L 146.312508 244.344478 
L 146.377649 244.236849 
L 146.468449 243.461915 
L 146.520128 243.397338 
L 146.571658 241.180168 
L 146.725363 241.137116 
L 146.827104 240.16845 
L 147.01632 240.103872 
L 147.01632 239.996243 
L 147.203553 239.888613 
L 147.302614 239.673354 
L 147.47466 239.58725 
L 147.572234 238.080436 
L 147.753761 238.015858 
L 147.849826 237.886703 
L 148.052266 237.779073 
L 148.099568 236.767355 
L 148.334215 236.724303 
L 148.427217 234.765445 
L 148.450393 234.765445 
L 148.542794 234.119667 
L 148.63472 234.076616 
L 148.726176 232.828112 
L 148.748967 232.828112 
L 148.771729 231.880972 
L 148.907695 231.773342 
L 148.907695 231.751816 
L 149.087388 231.644187 
L 149.15431 230.998409 
L 149.243151 230.998409 
L 149.331553 230.395684 
L 149.594163 230.288054 
L 149.670036 230.137373 
L 149.767116 230.115847 
L 149.767116 229.986691 
L 150.034049 229.879062 
L 150.129177 229.663802 
L 150.286606 229.556173 
L 150.390793 229.491595 
L 150.61789 229.405491 
L 150.720169 229.25481 
L 150.740555 229.25481 
L 150.77109 228.522929 
L 151.083601 228.436825 
L 151.12353 227.877151 
L 151.508229 227.769522 
L 151.60555 226.628648 
L 151.827398 226.56407 
L 151.846559 226.112026 
L 152.112685 226.004397 
L 152.216159 225.164886 
L 152.300377 225.078782 
L 152.365606 224.949627 
L 152.596643 224.841997 
L 152.706488 224.734367 
L 153.094646 224.691316 
L 153.157044 223.399761 
L 153.526925 223.292131 
L 153.605198 222.667879 
L 153.812267 222.56025 
L 153.906378 222.474146 
L 154.067774 222.388042 
L 154.168962 221.720739 
L 154.311338 221.634635 
L 154.369636 221.527006 
L 154.436029 221.527006 
L 154.485663 220.601391 
L 154.600941 220.601391 
L 154.674658 219.761881 
L 154.958478 219.654251 
L 155.062759 219.50357 
L 155.166435 219.417466 
L 155.245779 218.621007 
L 155.419104 218.513377 
L 155.497336 218.4488 
L 155.544111 218.4488 
L 155.652779 217.028089 
L 155.944447 216.985037 
L 156.020417 215.715008 
L 156.223937 215.628904 
L 156.306193 215.435171 
L 156.3509 215.435171 
L 156.425165 214.681764 
L 156.469577 214.681764 
L 156.572776 213.928357 
L 156.726465 213.842253 
L 156.75559 213.691572 
L 156.950951 213.64852 
L 157.008428 212.421543 
L 157.257738 212.378491 
L 157.34946 211.108462 
L 157.5802 211.000832 
L 157.614902 210.936254 
L 157.807998 210.850151 
L 157.869624 210.613366 
L 158.188041 210.505736 
L 158.295156 208.783663 
L 158.428153 208.697559 
L 158.428153 208.632981 
L 158.579887 208.568404 
L 158.684685 208.073307 
L 158.950459 207.965678 
L 159.014687 207.083115 
L 159.16154 206.997012 
L 159.23135 206.84633 
L 159.470434 206.738701 
L 159.495416 206.695649 
L 159.761785 206.609545 
L 159.866009 206.458864 
L 160.35442 206.351234 
L 160.41973 205.404094 
L 160.649378 205.296464 
L 160.760197 205.124257 
L 160.829836 205.059679 
L 160.910739 204.26322 
L 161.208072 204.177116 
L 161.298572 203.725072 
L 161.611761 203.638968 
L 161.716787 202.799458 
L 161.733314 202.799458 
L 161.832154 202.433517 
L 161.946781 202.325888 
L 162.001108 201.873843 
L 162.264948 201.78774 
L 162.275635 201.335695 
L 162.561785 201.249592 
L 162.656159 201.141962 
L 162.687507 201.141962 
L 162.786413 199.721252 
L 163.049222 199.613622 
L 163.095201 199.549044 
L 163.363595 199.441415 
L 163.413787 199.355311 
L 163.956782 199.290733 
L 164.05376 198.752585 
L 164.246151 198.644956 
L 164.246151 198.62343 
L 164.549731 198.537326 
L 164.643552 198.451222 
L 164.834358 198.343593 
L 164.922094 197.654763 
L 165.150941 197.547134 
L 165.255234 196.707623 
L 165.27331 196.707623 
L 165.309407 196.449312 
L 165.679675 196.341683 
L 165.780936 195.846586 
L 165.794102 195.846586 
L 165.846668 195.028602 
L 166.072684 194.942498 
L 166.094267 194.146039 
L 166.486801 194.038409 
L 166.591995 193.543313 
L 166.953314 193.45721 
L 166.969752 193.392632 
L 167.407957 193.285002 
L 167.511865 193.155847 
L 167.717885 193.048217 
L 167.800417 192.962113 
L 168.119083 192.854484 
L 168.172926 192.76838 
L 168.466196 192.725328 
L 168.466196 192.423966 
L 168.791862 192.40244 
L 168.873283 191.498351 
L 169.038679 191.412247 
L 169.038679 191.369196 
L 169.307377 191.261566 
L 169.411586 190.701892 
L 169.745247 190.594263 
L 169.850436 189.582544 
L 170.069339 189.474915 
L 170.145153 189.367285 
L 170.485768 189.259656 
L 170.543033 188.678456 
L 170.743687 188.570826 
L 170.853094 188.441671 
L 171.047047 188.334041 
L 171.135108 187.688264 
L 171.303493 187.688264 
L 171.390302 187.386901 
L 171.460724 187.365375 
L 171.559487 186.65502 
L 171.597572 186.65502 
L 171.597572 186.482812 
L 171.764816 186.482812 
L 171.8056 186.052294 
L 172.06073 185.944664 
L 172.073082 185.686353 
L 172.245129 185.643302 
L 172.303127 184.91142 
L 172.742628 184.825317 
L 172.76046 184.760739 
L 172.970137 184.739213 
L 172.970137 184.588532 
L 173.413782 184.480902 
L 173.510892 184.287169 
L 173.695086 184.201065 
L 173.768236 183.835125 
L 173.877401 183.749021 
L 173.919211 183.662917 
L 174.044057 183.662917 
L 174.151555 183.38308 
L 174.291161 183.340028 
L 174.361916 183.01714 
L 174.762075 182.90951 
L 174.867992 182.844932 
L 174.904915 182.844932 
L 175.015228 182.371362 
L 175.174242 182.306784 
L 175.246761 181.445748 
L 175.518662 181.38117 
L 175.518662 181.165911 
L 175.874045 181.058281 
L 175.874045 181.036755 
L 176.077516 180.950652 
L 176.188201 180.756918 
L 176.508975 180.649289 
L 176.617027 180.111141 
L 176.821726 180.046563 
L 176.911433 179.099423 
L 177.007719 179.034845 
L 177.042817 178.927215 
L 177.138399 178.90569 
L 177.182521 178.668904 
L 177.422118 178.561275 
L 177.422118 178.518223 
L 177.579326 178.518223 
L 177.581595 178.32449 
L 177.971949 178.281438 
L 178.056076 178.023127 
L 178.345268 177.915497 
L 178.438472 177.807868 
L 178.629853 177.700238 
L 178.693904 177.63566 
L 178.783191 177.63566 
L 178.79591 177.398875 
L 179.249934 177.291246 
L 179.359094 177.011409 
L 179.632144 176.903779 
L 179.668506 176.860727 
L 180.254138 176.753098 
L 180.339865 176.645468 
L 180.889166 176.559365 
L 180.889166 176.494787 
L 181.009389 176.494787 
L 181.039319 175.999691 
L 181.614959 175.913587 
L 181.614959 175.870535 
L 182.394035 175.784431 
L 182.440754 175.719854 
L 182.636674 175.676802 
L 182.71002 175.332387 
L 183.022186 175.224758 
L 183.033891 175.138654 
L 183.425741 175.031024 
L 183.487777 174.665084 
L 184.25652 174.57898 
L 184.365463 174.191514 
L 184.820443 174.083884 
L 184.930521 173.933203 
L 185.135294 173.890151 
L 185.215367 173.63184 
L 185.314221 173.588788 
L 185.375911 173.330477 
L 186.066219 173.244373 
L 186.066219 173.201321 
L 186.321142 173.15827 
L 186.357264 172.835381 
L 186.662757 172.749277 
L 186.662757 172.663173 
L 187.363767 172.620122 
L 187.410933 171.651455 
L 187.629411 171.586878 
L 187.701647 171.113307 
L 188.246797 171.005678 
L 188.249294 170.876522 
L 188.60406 170.833471 
L 188.715091 170.618211 
L 189.035745 170.553634 
L 189.059623 170.46753 
L 189.384754 170.381426 
L 189.435062 170.080063 
L 189.682195 169.972434 
L 189.727077 169.929382 
L 189.880432 169.907856 
L 189.941862 169.348182 
L 190.151852 169.283604 
L 190.151852 168.960716 
L 190.378252 168.917664 
L 190.484328 167.733738 
L 190.964753 167.669161 
L 191.004389 167.260168 
L 191.433642 167.19559 
L 191.435731 166.72202 
L 192.033548 166.635917 
L 192.033548 166.506761 
L 192.531632 166.506761 
L 192.617876 166.076243 
L 194.04177 165.990139 
L 194.04177 165.796406 
L 194.781868 165.710302 
L 194.781868 165.645724 
L 195.668952 165.538095 
L 195.668952 165.516569 
L 196.082017 165.408939 
L 196.187211 165.365888 
L 196.680738 165.30131 
L 196.739056 164.82774 
L 197.16858 164.72011 
L 197.16858 164.698584 
L 197.568023 164.677058 
L 197.568023 164.569429 
L 198.547827 164.461799 
L 198.596869 164.418747 
L 198.90759 164.418747 
L 198.918588 164.117384 
L 199.402602 164.031281 
L 199.402602 163.966703 
L 199.518595 163.966703 
L 199.518595 163.66534 
L 199.86147 163.55771 
L 199.86147 163.256348 
L 200.309484 163.19177 
L 200.348219 162.976511 
L 200.78929 162.911933 
L 200.86956 162.481415 
L 200.9795 162.481415 
L 200.996636 162.158526 
L 201.73774 162.050896 
L 201.755337 161.641904 
L 202.029941 161.5558 
L 202.066853 161.448171 
L 202.360566 161.340541 
L 202.360566 161.232911 
L 202.574086 161.232911 
L 202.584723 160.737815 
L 202.949256 160.716289 
L 202.949256 160.307297 
L 203.278526 160.221193 
L 203.278526 160.070512 
L 205.108389 159.962882 
L 205.108389 159.704571 
L 205.518185 159.704571 
L 205.518185 159.317105 
L 207.197825 159.209475 
L 207.197825 159.015742 
L 208.106447 158.908112 
L 208.106447 158.886586 
L 209.112253 158.778957 
L 209.112253 158.757431 
L 210.16836 158.735905 
L 210.16836 158.520646 
L 210.465364 158.413016 
L 210.568411 151.094204 
L 210.643792 151.008101 
L 210.748299 150.534531 
L 210.768136 150.426901 
L 210.814808 149.759597 
L 211.064818 149.651968 
L 211.106902 149.608916 
L 211.294887 149.522812 
L 211.384381 149.350605 
L 211.47377 149.242975 
L 211.546451 149.135346 
L 211.805885 149.027716 
L 211.858921 148.984664 
L 212.328323 148.877035 
L 212.390182 148.747879 
L 212.583123 148.64025 
L 212.583123 148.618724 
L 214.101541 148.511094 
L 214.103891 148.446517 
L 214.782884 148.338887 
L 214.782884 148.317361 
L 215.843744 148.209731 
L 215.84934 147.994472 
L 217.196919 147.886843 
L 217.196919 147.843791 
L 217.932368 147.757687 
L 217.933791 147.693109 
L 219.199817 147.607006 
L 219.283985 147.47785 
L 220.499281 147.370221 
L 220.502772 147.305643 
L 222.658181 147.219539 
L 222.658181 147.176487 
L 222.809321 147.068858 
L 222.911529 141.063127 
L 222.969212 140.955497 
L 223.069444 140.611083 
L 223.226505 140.503453 
L 223.337577 140.30972 
L 223.730752 140.20209 
L 223.795762 140.159038 
L 226.430574 140.051409 
L 226.430574 140.029883 
L 230.031165 139.922253 
L 230.137217 134.799085 
L 230.147153 134.756033 
L 230.150384 134.540774 
L 232.577231 134.433144 
L 232.577231 134.411618 
L 235.167827 134.303989 
L 235.251219 130.041857 
L 239.147209 129.934228 
L 239.217585 126.511607 
L 242.404228 126.425503 
L 242.459653 123.17509 
L 245.158301 123.088986 
L 245.203551 120.441298 
L 247.542079 120.37672 
L 247.581729 118.224129 
L 249.644906 118.159551 
L 249.661698 115.942381 
L 251.52615 115.877804 
L 251.55781 114.543197 
L 253.22842 114.435567 
L 253.241734 113.230116 
L 254.781867 113.122486 
L 254.808318 111.917035 
L 256.2113 111.809405 
L 256.235663 110.733109 
L 257.534776 110.62548 
L 257.545498 109.742917 
L 258.767791 109.656814 
L 258.776907 109.118666 
L 259.919648 109.011036 
L 259.924035 108.386784 
L 261.003153 108.279155 
L 261.011196 107.525748 
L 262.024071 107.439644 
L 262.031587 107.073703 
L 262.989702 106.966074 
L 262.99688 106.492504 
L 263.905903 106.4064 
L 263.905903 106.384874 
L 263.912722 106.083511 
L 264.777339 105.997408 
L 264.783817 105.739097 
L 265.608326 105.631467 
L 265.61122 105.330104 
L 266.402315 105.222475 
L 266.405099 104.813482 
L 267.162789 104.705853 
L 267.168066 104.469067 
L 267.891722 104.382964 
L 267.89427 104.146179 
L 268.592595 104.038549 
L 268.601821 103.952445 
L 269.266435 103.844816 
L 269.266784 103.586505 
L 269.916133 103.500401 
L 269.916805 103.328194 
L 270.542984 103.220564 
L 270.543595 103.155987 
L 271.148997 103.048357 
L 271.153001 102.962253 
L 271.734534 102.87615 
L 271.734744 102.76852 
L 272.301738 102.66089 
L 272.303446 102.617839 
L 273.384438 102.510209 
L 273.384672 102.402579 
L 273.902507 102.29495 
L 273.904151 102.251898 
L 274.896726 102.144268 
L 274.898545 102.101217 
L 275.835632 101.993587 
L 275.838824 101.929009 
L 276.72906 101.82138 
L 276.729078 101.778328 
L 277.579783 101.670698 
L 277.580229 101.584595 
L 278.784614 101.476965 
L 278.78463 101.433913 
L 280.628118 101.326284 
L 280.628168 101.24018 
L 281.977096 101.13255 
L 281.977148 101.089498 
L 283.531553 100.981869 
L 283.531559 100.938817 
L 286.788965 100.831187 
L 286.788965 100.788136 
L 288.218997 100.680506 
L 288.218997 100.65898 
L 358.8 100.637454 
L 358.8 100.637454 
" style="fill:none;stroke:#ff00ff;stroke-linecap:square;stroke-width:1.5;"/>
   </g>
   <g id="line2d_30">
    <defs>
     <path d="M -0 8.485281 
L 5.091169 0 
L 0 -8.485281 
L -5.091169 -0 
z
" id="m828e2d696f" style="stroke:#ff00ff;stroke-linejoin:miter;stroke-width:1.5;"/>
    </defs>
    <g>
     <use style="fill:none;stroke:#ff00ff;stroke-linejoin:miter;stroke-width:1.5;" x="98.828211" xlink:href="#m828e2d696f" y="294.73665"/>
     <use style="fill:none;stroke:#ff00ff;stroke-linejoin:miter;stroke-width:1.5;" x="148.703356" xlink:href="#m828e2d696f" y="233.452364"/>
     <use style="fill:none;stroke:#ff00ff;stroke-linejoin:miter;stroke-width:1.5;" x="207.929294" xlink:href="#m828e2d696f" y="158.929638"/>
     <use style="fill:none;stroke:#ff00ff;stroke-linejoin:miter;stroke-width:1.5;" x="282.925909" xlink:href="#m828e2d696f" y="101.003395"/>
     <use style="fill:none;stroke:#ff00ff;stroke-linejoin:miter;stroke-width:1.5;" x="290.973114" xlink:href="#m828e2d696f" y="100.637454"/>
     <use style="fill:none;stroke:#ff00ff;stroke-linejoin:miter;stroke-width:1.5;" x="358.8" xlink:href="#m828e2d696f" y="100.637454"/>
    </g>
   </g>
   <g id="line2d_31"/>
   <g id="line2d_32">
    <path clip-path="url(#p58be9ac51a)" d="M 210.371134 158.520646 
" style="fill:none;stroke:#ff00ff;stroke-linecap:square;stroke-width:1.5;"/>
    <defs>
     <path d="M -12 12 
L 12 -12 
M -12 -12 
L 12 12 
" id="mcf2124e8a2" style="stroke:#ff00ff;stroke-width:3;"/>
    </defs>
    <g clip-path="url(#p58be9ac51a)">
     <use style="fill:#ff00ff;stroke:#ff00ff;stroke-width:3;" x="210.371134" xlink:href="#mcf2124e8a2" y="158.520646"/>
    </g>
   </g>
   <g id="line2d_33">
    <path d="M 358.8 196.643045 
L 390.48 292.97583 
" style="fill:none;stroke:#000080;stroke-linecap:square;stroke-width:1.5;"/>
    <g>
     <use style="fill:none;stroke:#000080;stroke-width:1.5;" x="358.8" xlink:href="#m1fd51377d2" y="196.643045"/>
     <use style="fill:none;stroke:#000080;stroke-width:1.5;" x="390.48" xlink:href="#m1fd51377d2" y="292.97583"/>
    </g>
   </g>
   <g id="line2d_34">
    <path d="M 358.8 100.637454 
L 390.48 40.037692 
" style="fill:none;stroke:#ff00ff;stroke-linecap:square;stroke-width:1.5;"/>
    <g>
     <use style="fill:none;stroke:#ff00ff;stroke-linejoin:miter;stroke-width:1.5;" x="358.8" xlink:href="#m828e2d696f" y="100.637454"/>
     <use style="fill:none;stroke:#ff00ff;stroke-linejoin:miter;stroke-width:1.5;" x="390.48" xlink:href="#m828e2d696f" y="40.037692"/>
    </g>
   </g>
   <g id="line2d_35">
    <path d="M 358.8 298.245375 
L 358.8 34.768147 
" style="fill:none;stroke:#000000;stroke-linecap:square;stroke-width:1.5;"/>
   </g>
   <g id="patch_3">
    <path d="M 70.8 298.245375 
L 70.8 32.133375 
" style="fill:none;stroke:#000000;stroke-linecap:square;stroke-linejoin:miter;stroke-width:0.8;"/>
   </g>
   <g id="patch_4">
    <path d="M 427.92 298.245375 
L 427.92 32.133375 
" style="fill:none;stroke:#000000;stroke-linecap:square;stroke-linejoin:miter;stroke-width:0.8;"/>
   </g>
   <g id="patch_5">
    <path d="M 70.8 298.245375 
L 427.92 298.245375 
" style="fill:none;stroke:#000000;stroke-linecap:square;stroke-linejoin:miter;stroke-width:0.8;"/>
   </g>
   <g id="patch_6">
    <path d="M 70.8 32.133375 
L 427.92 32.133375 
" style="fill:none;stroke:#000000;stroke-linecap:square;stroke-linejoin:miter;stroke-width:0.8;"/>
   </g>
   <g id="text_14">
    <!-- cobyla 0.0 -->
    <defs>
     <path d="M 48.6875 27.296875 
Q 48.6875 37.203125 44.609375 42.84375 
Q 40.53125 48.484375 33.40625 48.484375 
Q 26.265625 48.484375 22.1875 42.84375 
Q 18.109375 37.203125 18.109375 27.296875 
Q 18.109375 17.390625 22.1875 11.75 
Q 26.265625 6.109375 33.40625 6.109375 
Q 40.53125 6.109375 44.609375 11.75 
Q 48.6875 17.390625 48.6875 27.296875 
z
M 18.109375 46.390625 
Q 20.953125 51.265625 25.265625 53.625 
Q 29.59375 56 35.59375 56 
Q 45.5625 56 51.78125 48.09375 
Q 58.015625 40.1875 58.015625 27.296875 
Q 58.015625 14.40625 51.78125 6.484375 
Q 45.5625 -1.421875 35.59375 -1.421875 
Q 29.59375 -1.421875 25.265625 0.953125 
Q 20.953125 3.328125 18.109375 8.203125 
L 18.109375 0 
L 9.078125 0 
L 9.078125 75.984375 
L 18.109375 75.984375 
z
" id="DejaVuSans-62"/>
     <path d="M 32.171875 -5.078125 
Q 28.375 -14.84375 24.75 -17.8125 
Q 21.140625 -20.796875 15.09375 -20.796875 
L 7.90625 -20.796875 
L 7.90625 -13.28125 
L 13.1875 -13.28125 
Q 16.890625 -13.28125 18.9375 -11.515625 
Q 21 -9.765625 23.484375 -3.21875 
L 25.09375 0.875 
L 2.984375 54.6875 
L 12.5 54.6875 
L 29.59375 11.921875 
L 46.6875 54.6875 
L 56.203125 54.6875 
z
" id="DejaVuSans-79"/>
    </defs>
    <g transform="translate(396.24 297.114893)scale(0.15 -0.15)">
     <use xlink:href="#DejaVuSans-63"/>
     <use x="54.980469" xlink:href="#DejaVuSans-6f"/>
     <use x="116.162109" xlink:href="#DejaVuSans-62"/>
     <use x="179.638672" xlink:href="#DejaVuSans-79"/>
     <use x="238.818359" xlink:href="#DejaVuSans-6c"/>
     <use x="266.601562" xlink:href="#DejaVuSans-61"/>
     <use x="327.880859" xlink:href="#DejaVuSans-20"/>
     <use x="359.667969" xlink:href="#DejaVuSans-30"/>
     <use x="423.291016" xlink:href="#DejaVuSans-2e"/>
     <use x="455.078125" xlink:href="#DejaVuSans-30"/>
    </g>
   </g>
   <g id="text_15">
    <!-- cobyla 1e- -->
    <g transform="translate(396.24 44.176754)scale(0.15 -0.15)">
     <use xlink:href="#DejaVuSans-63"/>
     <use x="54.980469" xlink:href="#DejaVuSans-6f"/>
     <use x="116.162109" xlink:href="#DejaVuSans-62"/>
     <use x="179.638672" xlink:href="#DejaVuSans-79"/>
     <use x="238.818359" xlink:href="#DejaVuSans-6c"/>
     <use x="266.601562" xlink:href="#DejaVuSans-61"/>
     <use x="327.880859" xlink:href="#DejaVuSans-20"/>
     <use x="359.667969" xlink:href="#DejaVuSans-31"/>
     <use x="423.291016" xlink:href="#DejaVuSans-65"/>
     <use x="484.814453" xlink:href="#DejaVuSans-2d"/>
    </g>
   </g>
   <g id="text_16">
    <!-- bbob-constrained - f19-f42, 20-D -->
    <defs>
     <path d="M 10.984375 1.515625 
L 10.984375 10.5 
Q 14.703125 8.734375 18.5 7.8125 
Q 22.3125 6.890625 25.984375 6.890625 
Q 35.75 6.890625 40.890625 13.453125 
Q 46.046875 20.015625 46.78125 33.40625 
Q 43.953125 29.203125 39.59375 26.953125 
Q 35.25 24.703125 29.984375 24.703125 
Q 19.046875 24.703125 12.671875 31.3125 
Q 6.296875 37.9375 6.296875 49.421875 
Q 6.296875 60.640625 12.9375 67.421875 
Q 19.578125 74.21875 30.609375 74.21875 
Q 43.265625 74.21875 49.921875 64.515625 
Q 56.59375 54.828125 56.59375 36.375 
Q 56.59375 19.140625 48.40625 8.859375 
Q 40.234375 -1.421875 26.421875 -1.421875 
Q 22.703125 -1.421875 18.890625 -0.6875 
Q 15.09375 0.046875 10.984375 1.515625 
z
M 30.609375 32.421875 
Q 37.25 32.421875 41.125 36.953125 
Q 45.015625 41.5 45.015625 49.421875 
Q 45.015625 57.28125 41.125 61.84375 
Q 37.25 66.40625 30.609375 66.40625 
Q 23.96875 66.40625 20.09375 61.84375 
Q 16.21875 57.28125 16.21875 49.421875 
Q 16.21875 41.5 20.09375 36.953125 
Q 23.96875 32.421875 30.609375 32.421875 
z
" id="DejaVuSans-39"/>
     <path d="M 11.71875 12.40625 
L 22.015625 12.40625 
L 22.015625 4 
L 14.015625 -11.625 
L 7.71875 -11.625 
L 11.71875 4 
z
" id="DejaVuSans-2c"/>
     <path d="M 19.671875 64.796875 
L 19.671875 8.109375 
L 31.59375 8.109375 
Q 46.6875 8.109375 53.6875 14.9375 
Q 60.6875 21.78125 60.6875 36.53125 
Q 60.6875 51.171875 53.6875 57.984375 
Q 46.6875 64.796875 31.59375 64.796875 
z
M 9.8125 72.90625 
L 30.078125 72.90625 
Q 51.265625 72.90625 61.171875 64.09375 
Q 71.09375 55.28125 71.09375 36.53125 
Q 71.09375 17.671875 61.125 8.828125 
Q 51.171875 0 30.078125 0 
L 9.8125 0 
z
" id="DejaVuSans-44"/>
    </defs>
    <g transform="translate(74.3712 50.114612)scale(0.1666 -0.1666)">
     <use xlink:href="#DejaVuSans-62"/>
     <use x="63.476562" xlink:href="#DejaVuSans-62"/>
     <use x="126.953125" xlink:href="#DejaVuSans-6f"/>
     <use x="188.134766" xlink:href="#DejaVuSans-62"/>
     <use x="251.611328" xlink:href="#DejaVuSans-2d"/>
     <use x="287.695312" xlink:href="#DejaVuSans-63"/>
     <use x="342.675781" xlink:href="#DejaVuSans-6f"/>
     <use x="403.857422" xlink:href="#DejaVuSans-6e"/>
     <use x="467.236328" xlink:href="#DejaVuSans-73"/>
     <use x="519.335938" xlink:href="#DejaVuSans-74"/>
     <use x="558.544922" xlink:href="#DejaVuSans-72"/>
     <use x="599.658203" xlink:href="#DejaVuSans-61"/>
     <use x="660.9375" xlink:href="#DejaVuSans-69"/>
     <use x="688.720703" xlink:href="#DejaVuSans-6e"/>
     <use x="752.099609" xlink:href="#DejaVuSans-65"/>
     <use x="813.623047" xlink:href="#DejaVuSans-64"/>
     <use x="877.099609" xlink:href="#DejaVuSans-20"/>
     <use x="908.886719" xlink:href="#DejaVuSans-2d"/>
     <use x="944.970703" xlink:href="#DejaVuSans-20"/>
     <use x="976.757812" xlink:href="#DejaVuSans-66"/>
     <use x="1011.962891" xlink:href="#DejaVuSans-31"/>
     <use x="1075.585938" xlink:href="#DejaVuSans-39"/>
     <use x="1139.208984" xlink:href="#DejaVuSans-2d"/>
     <use x="1175.292969" xlink:href="#DejaVuSans-66"/>
     <use x="1210.498047" xlink:href="#DejaVuSans-34"/>
     <use x="1274.121094" xlink:href="#DejaVuSans-32"/>
     <use x="1337.744141" xlink:href="#DejaVuSans-2c"/>
     <use x="1369.53125" xlink:href="#DejaVuSans-20"/>
     <use x="1401.318359" xlink:href="#DejaVuSans-32"/>
     <use x="1464.941406" xlink:href="#DejaVuSans-30"/>
     <use x="1528.564453" xlink:href="#DejaVuSans-2d"/>
     <use x="1564.648438" xlink:href="#DejaVuSans-44"/>
    </g>
    <!-- 51 targets in 100..1e-08 -->
    <defs>
     <path d="M 10.796875 72.90625 
L 49.515625 72.90625 
L 49.515625 64.59375 
L 19.828125 64.59375 
L 19.828125 46.734375 
Q 21.96875 47.46875 24.109375 47.828125 
Q 26.265625 48.1875 28.421875 48.1875 
Q 40.625 48.1875 47.75 41.5 
Q 54.890625 34.8125 54.890625 23.390625 
Q 54.890625 11.625 47.5625 5.09375 
Q 40.234375 -1.421875 26.90625 -1.421875 
Q 22.3125 -1.421875 17.546875 -0.640625 
Q 12.796875 0.140625 7.71875 1.703125 
L 7.71875 11.625 
Q 12.109375 9.234375 16.796875 8.0625 
Q 21.484375 6.890625 26.703125 6.890625 
Q 35.15625 6.890625 40.078125 11.328125 
Q 45.015625 15.765625 45.015625 23.390625 
Q 45.015625 31 40.078125 35.4375 
Q 35.15625 39.890625 26.703125 39.890625 
Q 22.75 39.890625 18.8125 39.015625 
Q 14.890625 38.140625 10.796875 36.28125 
z
" id="DejaVuSans-35"/>
    </defs>
    <g transform="translate(74.3712 68.770168)scale(0.1666 -0.1666)">
     <use xlink:href="#DejaVuSans-35"/>
     <use x="63.623047" xlink:href="#DejaVuSans-31"/>
     <use x="127.246094" xlink:href="#DejaVuSans-20"/>
     <use x="159.033203" xlink:href="#DejaVuSans-74"/>
     <use x="198.242188" xlink:href="#DejaVuSans-61"/>
     <use x="259.521484" xlink:href="#DejaVuSans-72"/>
     <use x="300.619141" xlink:href="#DejaVuSans-67"/>
     <use x="364.095703" xlink:href="#DejaVuSans-65"/>
     <use x="425.619141" xlink:href="#DejaVuSans-74"/>
     <use x="464.828125" xlink:href="#DejaVuSans-73"/>
     <use x="516.927734" xlink:href="#DejaVuSans-20"/>
     <use x="548.714844" xlink:href="#DejaVuSans-69"/>
     <use x="576.498047" xlink:href="#DejaVuSans-6e"/>
     <use x="639.876953" xlink:href="#DejaVuSans-20"/>
     <use x="671.664062" xlink:href="#DejaVuSans-31"/>
     <use x="735.287109" xlink:href="#DejaVuSans-30"/>
     <use x="798.910156" xlink:href="#DejaVuSans-30"/>
     <use x="862.533203" xlink:href="#DejaVuSans-2e"/>
     <use x="894.320312" xlink:href="#DejaVuSans-2e"/>
     <use x="926.107422" xlink:href="#DejaVuSans-31"/>
     <use x="989.730469" xlink:href="#DejaVuSans-65"/>
     <use x="1051.253906" xlink:href="#DejaVuSans-2d"/>
     <use x="1087.337891" xlink:href="#DejaVuSans-30"/>
     <use x="1150.960938" xlink:href="#DejaVuSans-38"/>
    </g>
    <!-- 15 instances -->
    <g transform="translate(74.3712 87.425723)scale(0.1666 -0.1666)">
     <use xlink:href="#DejaVuSans-31"/>
     <use x="63.623047" xlink:href="#DejaVuSans-35"/>
     <use x="127.246094" xlink:href="#DejaVuSans-20"/>
     <use x="159.033203" xlink:href="#DejaVuSans-69"/>
     <use x="186.816406" xlink:href="#DejaVuSans-6e"/>
     <use x="250.195312" xlink:href="#DejaVuSans-73"/>
     <use x="302.294922" xlink:href="#DejaVuSans-74"/>
     <use x="341.503906" xlink:href="#DejaVuSans-61"/>
     <use x="402.783203" xlink:href="#DejaVuSans-6e"/>
     <use x="466.162109" xlink:href="#DejaVuSans-63"/>
     <use x="521.142578" xlink:href="#DejaVuSans-65"/>
     <use x="582.666016" xlink:href="#DejaVuSans-73"/>
    </g>
   </g>
   <g id="text_17">
    <!-- v2.0.361 -->
    <defs>
     <path d="M 40.578125 39.3125 
Q 47.65625 37.796875 51.625 33 
Q 55.609375 28.21875 55.609375 21.1875 
Q 55.609375 10.40625 48.1875 4.484375 
Q 40.765625 -1.421875 27.09375 -1.421875 
Q 22.515625 -1.421875 17.65625 -0.515625 
Q 12.796875 0.390625 7.625 2.203125 
L 7.625 11.71875 
Q 11.71875 9.328125 16.59375 8.109375 
Q 21.484375 6.890625 26.8125 6.890625 
Q 36.078125 6.890625 40.9375 10.546875 
Q 45.796875 14.203125 45.796875 21.1875 
Q 45.796875 27.640625 41.28125 31.265625 
Q 36.765625 34.90625 28.71875 34.90625 
L 20.21875 34.90625 
L 20.21875 43.015625 
L 29.109375 43.015625 
Q 36.375 43.015625 40.234375 45.921875 
Q 44.09375 48.828125 44.09375 54.296875 
Q 44.09375 59.90625 40.109375 62.90625 
Q 36.140625 65.921875 28.71875 65.921875 
Q 24.65625 65.921875 20.015625 65.03125 
Q 15.375 64.15625 9.8125 62.3125 
L 9.8125 71.09375 
Q 15.4375 72.65625 20.34375 73.4375 
Q 25.25 74.21875 29.59375 74.21875 
Q 40.828125 74.21875 47.359375 69.109375 
Q 53.90625 64.015625 53.90625 55.328125 
Q 53.90625 49.265625 50.4375 45.09375 
Q 46.96875 40.921875 40.578125 39.3125 
z
" id="DejaVuSans-33"/>
    </defs>
    <g style="fill:#808080;" transform="translate(227.31625 293.504568)scale(0.1 -0.1)">
     <use xlink:href="#DejaVuSans-76"/>
     <use x="59.179688" xlink:href="#DejaVuSans-32"/>
     <use x="122.802734" xlink:href="#DejaVuSans-2e"/>
     <use x="154.589844" xlink:href="#DejaVuSans-30"/>
     <use x="218.212891" xlink:href="#DejaVuSans-2e"/>
     <use x="250" xlink:href="#DejaVuSans-33"/>
     <use x="313.623047" xlink:href="#DejaVuSans-36"/>
     <use x="377.246094" xlink:href="#DejaVuSans-31"/>
    </g>
   </g>
  </g>
 </g>
 <defs>
  <clipPath id="p58be9ac51a">
   <rect height="266.112" width="357.12" x="70.8" y="32.133375"/>
  </clipPath>
 </defs>
</svg>
