<?xml version="1.0" encoding="utf-8" standalone="no"?>
<!DOCTYPE svg PUBLIC "-//W3C//DTD SVG 1.1//EN"
  "http://www.w3.org/Graphics/SVG/1.1/DTD/svg11.dtd">
<!-- Created with matplotlib (http://matplotlib.org/) -->
<svg height="353pt" version="1.1" viewBox="0 0 481 353" width="481pt" xmlns="http://www.w3.org/2000/svg" xmlns:xlink="http://www.w3.org/1999/xlink">
 <defs>
  <style type="text/css">
*{stroke-linecap:butt;stroke-linejoin:round;}
  </style>
 </defs>
 <g id="figure_1">
  <g id="patch_1">
   <path d="M 0 353.22225 
L 481.578281 353.22225 
L 481.578281 0 
L 0 0 
z
" style="fill:#ffffff;"/>
  </g>
  <g id="axes_1">
   <g id="patch_2">
    <path d="M 70.8 298.245375 
L 427.92 298.245375 
L 427.92 32.133375 
L 70.8 32.133375 
z
" style="fill:#ffffff;"/>
   </g>
   <g id="matplotlib.axis_1">
    <g id="xtick_1">
     <g id="line2d_1">
      <path clip-path="url(#p3c0c0c3000)" d="M 70.8 298.245375 
L 70.8 32.133375 
" style="fill:none;stroke:#b0b0b0;stroke-linecap:square;stroke-width:0.8;"/>
     </g>
     <g id="line2d_2">
      <defs>
       <path d="M 0 0 
L 0 3.5 
" id="m3891731020" style="stroke:#000000;stroke-width:0.8;"/>
      </defs>
      <g>
       <use style="stroke:#000000;stroke-width:0.8;" x="70.8" xlink:href="#m3891731020" y="298.245375"/>
      </g>
     </g>
     <g id="text_1">
      <!-- 0 -->
      <defs>
       <path d="M 31.78125 66.40625 
Q 24.171875 66.40625 20.328125 58.90625 
Q 16.5 51.421875 16.5 36.375 
Q 16.5 21.390625 20.328125 13.890625 
Q 24.171875 6.390625 31.78125 6.390625 
Q 39.453125 6.390625 43.28125 13.890625 
Q 47.125 21.390625 47.125 36.375 
Q 47.125 51.421875 43.28125 58.90625 
Q 39.453125 66.40625 31.78125 66.40625 
z
M 31.78125 74.21875 
Q 44.046875 74.21875 50.515625 64.515625 
Q 56.984375 54.828125 56.984375 36.375 
Q 56.984375 17.96875 50.515625 8.265625 
Q 44.046875 -1.421875 31.78125 -1.421875 
Q 19.53125 -1.421875 13.0625 8.265625 
Q 6.59375 17.96875 6.59375 36.375 
Q 6.59375 54.828125 13.0625 64.515625 
Q 19.53125 74.21875 31.78125 74.21875 
z
" id="DejaVuSans-30"/>
      </defs>
      <g transform="translate(64.4375 320.44225)scale(0.2 -0.2)">
       <use xlink:href="#DejaVuSans-30"/>
      </g>
     </g>
    </g>
    <g id="xtick_2">
     <g id="line2d_3">
      <path clip-path="url(#p3c0c0c3000)" d="M 153.085714 298.245375 
L 153.085714 32.133375 
" style="fill:none;stroke:#b0b0b0;stroke-linecap:square;stroke-width:0.8;"/>
     </g>
     <g id="line2d_4">
      <g>
       <use style="stroke:#000000;stroke-width:0.8;" x="153.085714" xlink:href="#m3891731020" y="298.245375"/>
      </g>
     </g>
     <g id="text_2">
      <!-- 2 -->
      <defs>
       <path d="M 19.1875 8.296875 
L 53.609375 8.296875 
L 53.609375 0 
L 7.328125 0 
L 7.328125 8.296875 
Q 12.9375 14.109375 22.625 23.890625 
Q 32.328125 33.6875 34.8125 36.53125 
Q 39.546875 41.84375 41.421875 45.53125 
Q 43.3125 49.21875 43.3125 52.78125 
Q 43.3125 58.59375 39.234375 62.25 
Q 35.15625 65.921875 28.609375 65.921875 
Q 23.96875 65.921875 18.8125 64.3125 
Q 13.671875 62.703125 7.8125 59.421875 
L 7.8125 69.390625 
Q 13.765625 71.78125 18.9375 73 
Q 24.125 74.21875 28.421875 74.21875 
Q 39.75 74.21875 46.484375 68.546875 
Q 53.21875 62.890625 53.21875 53.421875 
Q 53.21875 48.921875 51.53125 44.890625 
Q 49.859375 40.875 45.40625 35.40625 
Q 44.1875 33.984375 37.640625 27.21875 
Q 31.109375 20.453125 19.1875 8.296875 
z
" id="DejaVuSans-32"/>
      </defs>
      <g transform="translate(146.723214 320.44225)scale(0.2 -0.2)">
       <use xlink:href="#DejaVuSans-32"/>
      </g>
     </g>
    </g>
    <g id="xtick_3">
     <g id="line2d_5">
      <path clip-path="url(#p3c0c0c3000)" d="M 235.371429 298.245375 
L 235.371429 32.133375 
" style="fill:none;stroke:#b0b0b0;stroke-linecap:square;stroke-width:0.8;"/>
     </g>
     <g id="line2d_6">
      <g>
       <use style="stroke:#000000;stroke-width:0.8;" x="235.371429" xlink:href="#m3891731020" y="298.245375"/>
      </g>
     </g>
     <g id="text_3">
      <!-- 4 -->
      <defs>
       <path d="M 37.796875 64.3125 
L 12.890625 25.390625 
L 37.796875 25.390625 
z
M 35.203125 72.90625 
L 47.609375 72.90625 
L 47.609375 25.390625 
L 58.015625 25.390625 
L 58.015625 17.1875 
L 47.609375 17.1875 
L 47.609375 0 
L 37.796875 0 
L 37.796875 17.1875 
L 4.890625 17.1875 
L 4.890625 26.703125 
z
" id="DejaVuSans-34"/>
      </defs>
      <g transform="translate(229.008929 320.44225)scale(0.2 -0.2)">
       <use xlink:href="#DejaVuSans-34"/>
      </g>
     </g>
    </g>
    <g id="xtick_4">
     <g id="line2d_7">
      <path clip-path="url(#p3c0c0c3000)" d="M 317.657143 298.245375 
L 317.657143 32.133375 
" style="fill:none;stroke:#b0b0b0;stroke-linecap:square;stroke-width:0.8;"/>
     </g>
     <g id="line2d_8">
      <g>
       <use style="stroke:#000000;stroke-width:0.8;" x="317.657143" xlink:href="#m3891731020" y="298.245375"/>
      </g>
     </g>
     <g id="text_4">
      <!-- 6 -->
      <defs>
       <path d="M 33.015625 40.375 
Q 26.375 40.375 22.484375 35.828125 
Q 18.609375 31.296875 18.609375 23.390625 
Q 18.609375 15.53125 22.484375 10.953125 
Q 26.375 6.390625 33.015625 6.390625 
Q 39.65625 6.390625 43.53125 10.953125 
Q 47.40625 15.53125 47.40625 23.390625 
Q 47.40625 31.296875 43.53125 35.828125 
Q 39.65625 40.375 33.015625 40.375 
z
M 52.59375 71.296875 
L 52.59375 62.3125 
Q 48.875 64.0625 45.09375 64.984375 
Q 41.3125 65.921875 37.59375 65.921875 
Q 27.828125 65.921875 22.671875 59.328125 
Q 17.53125 52.734375 16.796875 39.40625 
Q 19.671875 43.65625 24.015625 45.921875 
Q 28.375 48.1875 33.59375 48.1875 
Q 44.578125 48.1875 50.953125 41.515625 
Q 57.328125 34.859375 57.328125 23.390625 
Q 57.328125 12.15625 50.6875 5.359375 
Q 44.046875 -1.421875 33.015625 -1.421875 
Q 20.359375 -1.421875 13.671875 8.265625 
Q 6.984375 17.96875 6.984375 36.375 
Q 6.984375 53.65625 15.1875 63.9375 
Q 23.390625 74.21875 37.203125 74.21875 
Q 40.921875 74.21875 44.703125 73.484375 
Q 48.484375 72.75 52.59375 71.296875 
z
" id="DejaVuSans-36"/>
      </defs>
      <g transform="translate(311.294643 320.44225)scale(0.2 -0.2)">
       <use xlink:href="#DejaVuSans-36"/>
      </g>
     </g>
    </g>
    <g id="xtick_5">
     <g id="line2d_9">
      <path clip-path="url(#p3c0c0c3000)" d="M 399.942857 298.245375 
L 399.942857 32.133375 
" style="fill:none;stroke:#b0b0b0;stroke-linecap:square;stroke-width:0.8;"/>
     </g>
     <g id="line2d_10">
      <g>
       <use style="stroke:#000000;stroke-width:0.8;" x="399.942857" xlink:href="#m3891731020" y="298.245375"/>
      </g>
     </g>
     <g id="text_5">
      <!-- 8 -->
      <defs>
       <path d="M 31.78125 34.625 
Q 24.75 34.625 20.71875 30.859375 
Q 16.703125 27.09375 16.703125 20.515625 
Q 16.703125 13.921875 20.71875 10.15625 
Q 24.75 6.390625 31.78125 6.390625 
Q 38.8125 6.390625 42.859375 10.171875 
Q 46.921875 13.96875 46.921875 20.515625 
Q 46.921875 27.09375 42.890625 30.859375 
Q 38.875 34.625 31.78125 34.625 
z
M 21.921875 38.8125 
Q 15.578125 40.375 12.03125 44.71875 
Q 8.5 49.078125 8.5 55.328125 
Q 8.5 64.0625 14.71875 69.140625 
Q 20.953125 74.21875 31.78125 74.21875 
Q 42.671875 74.21875 48.875 69.140625 
Q 55.078125 64.0625 55.078125 55.328125 
Q 55.078125 49.078125 51.53125 44.71875 
Q 48 40.375 41.703125 38.8125 
Q 48.828125 37.15625 52.796875 32.3125 
Q 56.78125 27.484375 56.78125 20.515625 
Q 56.78125 9.90625 50.3125 4.234375 
Q 43.84375 -1.421875 31.78125 -1.421875 
Q 19.734375 -1.421875 13.25 4.234375 
Q 6.78125 9.90625 6.78125 20.515625 
Q 6.78125 27.484375 10.78125 32.3125 
Q 14.796875 37.15625 21.921875 38.8125 
z
M 18.3125 54.390625 
Q 18.3125 48.734375 21.84375 45.5625 
Q 25.390625 42.390625 31.78125 42.390625 
Q 38.140625 42.390625 41.71875 45.5625 
Q 45.3125 48.734375 45.3125 54.390625 
Q 45.3125 60.0625 41.71875 63.234375 
Q 38.140625 66.40625 31.78125 66.40625 
Q 25.390625 66.40625 21.84375 63.234375 
Q 18.3125 60.0625 18.3125 54.390625 
z
" id="DejaVuSans-38"/>
      </defs>
      <g transform="translate(393.580357 320.44225)scale(0.2 -0.2)">
       <use xlink:href="#DejaVuSans-38"/>
      </g>
     </g>
    </g>
    <g id="text_6">
     <!-- log10 of # (f+g)-evals / dimension -->
     <defs>
      <path d="M 9.421875 75.984375 
L 18.40625 75.984375 
L 18.40625 0 
L 9.421875 0 
z
" id="DejaVuSans-6c"/>
      <path d="M 30.609375 48.390625 
Q 23.390625 48.390625 19.1875 42.75 
Q 14.984375 37.109375 14.984375 27.296875 
Q 14.984375 17.484375 19.15625 11.84375 
Q 23.34375 6.203125 30.609375 6.203125 
Q 37.796875 6.203125 41.984375 11.859375 
Q 46.1875 17.53125 46.1875 27.296875 
Q 46.1875 37.015625 41.984375 42.703125 
Q 37.796875 48.390625 30.609375 48.390625 
z
M 30.609375 56 
Q 42.328125 56 49.015625 48.375 
Q 55.71875 40.765625 55.71875 27.296875 
Q 55.71875 13.875 49.015625 6.21875 
Q 42.328125 -1.421875 30.609375 -1.421875 
Q 18.84375 -1.421875 12.171875 6.21875 
Q 5.515625 13.875 5.515625 27.296875 
Q 5.515625 40.765625 12.171875 48.375 
Q 18.84375 56 30.609375 56 
z
" id="DejaVuSans-6f"/>
      <path d="M 45.40625 27.984375 
Q 45.40625 37.75 41.375 43.109375 
Q 37.359375 48.484375 30.078125 48.484375 
Q 22.859375 48.484375 18.828125 43.109375 
Q 14.796875 37.75 14.796875 27.984375 
Q 14.796875 18.265625 18.828125 12.890625 
Q 22.859375 7.515625 30.078125 7.515625 
Q 37.359375 7.515625 41.375 12.890625 
Q 45.40625 18.265625 45.40625 27.984375 
z
M 54.390625 6.78125 
Q 54.390625 -7.171875 48.1875 -13.984375 
Q 42 -20.796875 29.203125 -20.796875 
Q 24.46875 -20.796875 20.265625 -20.09375 
Q 16.0625 -19.390625 12.109375 -17.921875 
L 12.109375 -9.1875 
Q 16.0625 -11.328125 19.921875 -12.34375 
Q 23.78125 -13.375 27.78125 -13.375 
Q 36.625 -13.375 41.015625 -8.765625 
Q 45.40625 -4.15625 45.40625 5.171875 
L 45.40625 9.625 
Q 42.625 4.78125 38.28125 2.390625 
Q 33.9375 0 27.875 0 
Q 17.828125 0 11.671875 7.65625 
Q 5.515625 15.328125 5.515625 27.984375 
Q 5.515625 40.671875 11.671875 48.328125 
Q 17.828125 56 27.875 56 
Q 33.9375 56 38.28125 53.609375 
Q 42.625 51.21875 45.40625 46.390625 
L 45.40625 54.6875 
L 54.390625 54.6875 
z
" id="DejaVuSans-67"/>
      <path d="M 12.40625 8.296875 
L 28.515625 8.296875 
L 28.515625 63.921875 
L 10.984375 60.40625 
L 10.984375 69.390625 
L 28.421875 72.90625 
L 38.28125 72.90625 
L 38.28125 8.296875 
L 54.390625 8.296875 
L 54.390625 0 
L 12.40625 0 
z
" id="DejaVuSans-31"/>
      <path id="DejaVuSans-20"/>
      <path d="M 37.109375 75.984375 
L 37.109375 68.5 
L 28.515625 68.5 
Q 23.6875 68.5 21.796875 66.546875 
Q 19.921875 64.59375 19.921875 59.515625 
L 19.921875 54.6875 
L 34.71875 54.6875 
L 34.71875 47.703125 
L 19.921875 47.703125 
L 19.921875 0 
L 10.890625 0 
L 10.890625 47.703125 
L 2.296875 47.703125 
L 2.296875 54.6875 
L 10.890625 54.6875 
L 10.890625 58.5 
Q 10.890625 67.625 15.140625 71.796875 
Q 19.390625 75.984375 28.609375 75.984375 
z
" id="DejaVuSans-66"/>
      <path d="M 51.125 44 
L 36.921875 44 
L 32.8125 27.6875 
L 47.125 27.6875 
z
M 43.796875 71.78125 
L 38.71875 51.515625 
L 52.984375 51.515625 
L 58.109375 71.78125 
L 65.921875 71.78125 
L 60.890625 51.515625 
L 76.125 51.515625 
L 76.125 44 
L 58.984375 44 
L 54.984375 27.6875 
L 70.515625 27.6875 
L 70.515625 20.21875 
L 53.078125 20.21875 
L 48 0 
L 40.1875 0 
L 45.21875 20.21875 
L 30.90625 20.21875 
L 25.875 0 
L 18.015625 0 
L 23.09375 20.21875 
L 7.71875 20.21875 
L 7.71875 27.6875 
L 24.90625 27.6875 
L 29 44 
L 13.28125 44 
L 13.28125 51.515625 
L 30.90625 51.515625 
L 35.890625 71.78125 
z
" id="DejaVuSans-23"/>
      <path d="M 31 75.875 
Q 24.46875 64.65625 21.28125 53.65625 
Q 18.109375 42.671875 18.109375 31.390625 
Q 18.109375 20.125 21.3125 9.0625 
Q 24.515625 -2 31 -13.1875 
L 23.1875 -13.1875 
Q 15.875 -1.703125 12.234375 9.375 
Q 8.59375 20.453125 8.59375 31.390625 
Q 8.59375 42.28125 12.203125 53.3125 
Q 15.828125 64.359375 23.1875 75.875 
z
" id="DejaVuSans-28"/>
      <path d="M 46 62.703125 
L 46 35.5 
L 73.1875 35.5 
L 73.1875 27.203125 
L 46 27.203125 
L 46 0 
L 37.796875 0 
L 37.796875 27.203125 
L 10.59375 27.203125 
L 10.59375 35.5 
L 37.796875 35.5 
L 37.796875 62.703125 
z
" id="DejaVuSans-2b"/>
      <path d="M 8.015625 75.875 
L 15.828125 75.875 
Q 23.140625 64.359375 26.78125 53.3125 
Q 30.421875 42.28125 30.421875 31.390625 
Q 30.421875 20.453125 26.78125 9.375 
Q 23.140625 -1.703125 15.828125 -13.1875 
L 8.015625 -13.1875 
Q 14.5 -2 17.703125 9.0625 
Q 20.90625 20.125 20.90625 31.390625 
Q 20.90625 42.671875 17.703125 53.65625 
Q 14.5 64.65625 8.015625 75.875 
z
" id="DejaVuSans-29"/>
      <path d="M 4.890625 31.390625 
L 31.203125 31.390625 
L 31.203125 23.390625 
L 4.890625 23.390625 
z
" id="DejaVuSans-2d"/>
      <path d="M 56.203125 29.59375 
L 56.203125 25.203125 
L 14.890625 25.203125 
Q 15.484375 15.921875 20.484375 11.0625 
Q 25.484375 6.203125 34.421875 6.203125 
Q 39.59375 6.203125 44.453125 7.46875 
Q 49.3125 8.734375 54.109375 11.28125 
L 54.109375 2.78125 
Q 49.265625 0.734375 44.1875 -0.34375 
Q 39.109375 -1.421875 33.890625 -1.421875 
Q 20.796875 -1.421875 13.15625 6.1875 
Q 5.515625 13.8125 5.515625 26.8125 
Q 5.515625 40.234375 12.765625 48.109375 
Q 20.015625 56 32.328125 56 
Q 43.359375 56 49.78125 48.890625 
Q 56.203125 41.796875 56.203125 29.59375 
z
M 47.21875 32.234375 
Q 47.125 39.59375 43.09375 43.984375 
Q 39.0625 48.390625 32.421875 48.390625 
Q 24.90625 48.390625 20.390625 44.140625 
Q 15.875 39.890625 15.1875 32.171875 
z
" id="DejaVuSans-65"/>
      <path d="M 2.984375 54.6875 
L 12.5 54.6875 
L 29.59375 8.796875 
L 46.6875 54.6875 
L 56.203125 54.6875 
L 35.6875 0 
L 23.484375 0 
z
" id="DejaVuSans-76"/>
      <path d="M 34.28125 27.484375 
Q 23.390625 27.484375 19.1875 25 
Q 14.984375 22.515625 14.984375 16.5 
Q 14.984375 11.71875 18.140625 8.90625 
Q 21.296875 6.109375 26.703125 6.109375 
Q 34.1875 6.109375 38.703125 11.40625 
Q 43.21875 16.703125 43.21875 25.484375 
L 43.21875 27.484375 
z
M 52.203125 31.203125 
L 52.203125 0 
L 43.21875 0 
L 43.21875 8.296875 
Q 40.140625 3.328125 35.546875 0.953125 
Q 30.953125 -1.421875 24.3125 -1.421875 
Q 15.921875 -1.421875 10.953125 3.296875 
Q 6 8.015625 6 15.921875 
Q 6 25.140625 12.171875 29.828125 
Q 18.359375 34.515625 30.609375 34.515625 
L 43.21875 34.515625 
L 43.21875 35.40625 
Q 43.21875 41.609375 39.140625 45 
Q 35.0625 48.390625 27.6875 48.390625 
Q 23 48.390625 18.546875 47.265625 
Q 14.109375 46.140625 10.015625 43.890625 
L 10.015625 52.203125 
Q 14.9375 54.109375 19.578125 55.046875 
Q 24.21875 56 28.609375 56 
Q 40.484375 56 46.34375 49.84375 
Q 52.203125 43.703125 52.203125 31.203125 
z
" id="DejaVuSans-61"/>
      <path d="M 44.28125 53.078125 
L 44.28125 44.578125 
Q 40.484375 46.53125 36.375 47.5 
Q 32.28125 48.484375 27.875 48.484375 
Q 21.1875 48.484375 17.84375 46.4375 
Q 14.5 44.390625 14.5 40.28125 
Q 14.5 37.15625 16.890625 35.375 
Q 19.28125 33.59375 26.515625 31.984375 
L 29.59375 31.296875 
Q 39.15625 29.25 43.1875 25.515625 
Q 47.21875 21.78125 47.21875 15.09375 
Q 47.21875 7.46875 41.1875 3.015625 
Q 35.15625 -1.421875 24.609375 -1.421875 
Q 20.21875 -1.421875 15.453125 -0.5625 
Q 10.6875 0.296875 5.421875 2 
L 5.421875 11.28125 
Q 10.40625 8.6875 15.234375 7.390625 
Q 20.0625 6.109375 24.8125 6.109375 
Q 31.15625 6.109375 34.5625 8.28125 
Q 37.984375 10.453125 37.984375 14.40625 
Q 37.984375 18.0625 35.515625 20.015625 
Q 33.0625 21.96875 24.703125 23.78125 
L 21.578125 24.515625 
Q 13.234375 26.265625 9.515625 29.90625 
Q 5.8125 33.546875 5.8125 39.890625 
Q 5.8125 47.609375 11.28125 51.796875 
Q 16.75 56 26.8125 56 
Q 31.78125 56 36.171875 55.265625 
Q 40.578125 54.546875 44.28125 53.078125 
z
" id="DejaVuSans-73"/>
      <path d="M 25.390625 72.90625 
L 33.6875 72.90625 
L 8.296875 -9.28125 
L 0 -9.28125 
z
" id="DejaVuSans-2f"/>
      <path d="M 45.40625 46.390625 
L 45.40625 75.984375 
L 54.390625 75.984375 
L 54.390625 0 
L 45.40625 0 
L 45.40625 8.203125 
Q 42.578125 3.328125 38.25 0.953125 
Q 33.9375 -1.421875 27.875 -1.421875 
Q 17.96875 -1.421875 11.734375 6.484375 
Q 5.515625 14.40625 5.515625 27.296875 
Q 5.515625 40.1875 11.734375 48.09375 
Q 17.96875 56 27.875 56 
Q 33.9375 56 38.25 53.625 
Q 42.578125 51.265625 45.40625 46.390625 
z
M 14.796875 27.296875 
Q 14.796875 17.390625 18.875 11.75 
Q 22.953125 6.109375 30.078125 6.109375 
Q 37.203125 6.109375 41.296875 11.75 
Q 45.40625 17.390625 45.40625 27.296875 
Q 45.40625 37.203125 41.296875 42.84375 
Q 37.203125 48.484375 30.078125 48.484375 
Q 22.953125 48.484375 18.875 42.84375 
Q 14.796875 37.203125 14.796875 27.296875 
z
" id="DejaVuSans-64"/>
      <path d="M 9.421875 54.6875 
L 18.40625 54.6875 
L 18.40625 0 
L 9.421875 0 
z
M 9.421875 75.984375 
L 18.40625 75.984375 
L 18.40625 64.59375 
L 9.421875 64.59375 
z
" id="DejaVuSans-69"/>
      <path d="M 52 44.1875 
Q 55.375 50.25 60.0625 53.125 
Q 64.75 56 71.09375 56 
Q 79.640625 56 84.28125 50.015625 
Q 88.921875 44.046875 88.921875 33.015625 
L 88.921875 0 
L 79.890625 0 
L 79.890625 32.71875 
Q 79.890625 40.578125 77.09375 44.375 
Q 74.3125 48.1875 68.609375 48.1875 
Q 61.625 48.1875 57.5625 43.546875 
Q 53.515625 38.921875 53.515625 30.90625 
L 53.515625 0 
L 44.484375 0 
L 44.484375 32.71875 
Q 44.484375 40.625 41.703125 44.40625 
Q 38.921875 48.1875 33.109375 48.1875 
Q 26.21875 48.1875 22.15625 43.53125 
Q 18.109375 38.875 18.109375 30.90625 
L 18.109375 0 
L 9.078125 0 
L 9.078125 54.6875 
L 18.109375 54.6875 
L 18.109375 46.1875 
Q 21.1875 51.21875 25.484375 53.609375 
Q 29.78125 56 35.6875 56 
Q 41.65625 56 45.828125 52.96875 
Q 50 49.953125 52 44.1875 
z
" id="DejaVuSans-6d"/>
      <path d="M 54.890625 33.015625 
L 54.890625 0 
L 45.90625 0 
L 45.90625 32.71875 
Q 45.90625 40.484375 42.875 44.328125 
Q 39.84375 48.1875 33.796875 48.1875 
Q 26.515625 48.1875 22.3125 43.546875 
Q 18.109375 38.921875 18.109375 30.90625 
L 18.109375 0 
L 9.078125 0 
L 9.078125 54.6875 
L 18.109375 54.6875 
L 18.109375 46.1875 
Q 21.34375 51.125 25.703125 53.5625 
Q 30.078125 56 35.796875 56 
Q 45.21875 56 50.046875 50.171875 
Q 54.890625 44.34375 54.890625 33.015625 
z
" id="DejaVuSans-6e"/>
     </defs>
     <g transform="translate(93.752813 342.278812)scale(0.18 -0.18)">
      <use xlink:href="#DejaVuSans-6c"/>
      <use x="27.783203" xlink:href="#DejaVuSans-6f"/>
      <use x="88.964844" xlink:href="#DejaVuSans-67"/>
      <use x="152.441406" xlink:href="#DejaVuSans-31"/>
      <use x="216.064453" xlink:href="#DejaVuSans-30"/>
      <use x="279.6875" xlink:href="#DejaVuSans-20"/>
      <use x="311.474609" xlink:href="#DejaVuSans-6f"/>
      <use x="372.65625" xlink:href="#DejaVuSans-66"/>
      <use x="407.861328" xlink:href="#DejaVuSans-20"/>
      <use x="439.648438" xlink:href="#DejaVuSans-23"/>
      <use x="523.4375" xlink:href="#DejaVuSans-20"/>
      <use x="555.224609" xlink:href="#DejaVuSans-28"/>
      <use x="594.238281" xlink:href="#DejaVuSans-66"/>
      <use x="629.443359" xlink:href="#DejaVuSans-2b"/>
      <use x="713.232422" xlink:href="#DejaVuSans-67"/>
      <use x="776.708984" xlink:href="#DejaVuSans-29"/>
      <use x="815.722656" xlink:href="#DejaVuSans-2d"/>
      <use x="851.806641" xlink:href="#DejaVuSans-65"/>
      <use x="913.330078" xlink:href="#DejaVuSans-76"/>
      <use x="972.509766" xlink:href="#DejaVuSans-61"/>
      <use x="1033.789062" xlink:href="#DejaVuSans-6c"/>
      <use x="1061.572266" xlink:href="#DejaVuSans-73"/>
      <use x="1113.671875" xlink:href="#DejaVuSans-20"/>
      <use x="1145.458984" xlink:href="#DejaVuSans-2f"/>
      <use x="1179.150391" xlink:href="#DejaVuSans-20"/>
      <use x="1210.9375" xlink:href="#DejaVuSans-64"/>
      <use x="1274.414062" xlink:href="#DejaVuSans-69"/>
      <use x="1302.197266" xlink:href="#DejaVuSans-6d"/>
      <use x="1399.609375" xlink:href="#DejaVuSans-65"/>
      <use x="1461.132812" xlink:href="#DejaVuSans-6e"/>
      <use x="1524.511719" xlink:href="#DejaVuSans-73"/>
      <use x="1576.611328" xlink:href="#DejaVuSans-69"/>
      <use x="1604.394531" xlink:href="#DejaVuSans-6f"/>
      <use x="1665.576172" xlink:href="#DejaVuSans-6e"/>
     </g>
    </g>
   </g>
   <g id="matplotlib.axis_2">
    <g id="ytick_1">
     <g id="line2d_11">
      <path clip-path="url(#p3c0c0c3000)" d="M 70.8 298.245375 
L 427.92 298.245375 
" style="fill:none;stroke:#b0b0b0;stroke-linecap:square;stroke-width:0.8;"/>
     </g>
     <g id="line2d_12">
      <defs>
       <path d="M 0 0 
L -3.5 0 
" id="mb07289308d" style="stroke:#000000;stroke-width:0.8;"/>
      </defs>
      <g>
       <use style="stroke:#000000;stroke-width:0.8;" x="70.8" xlink:href="#mb07289308d" y="298.245375"/>
      </g>
     </g>
     <g id="text_7">
      <!-- 0.0 -->
      <defs>
       <path d="M 10.6875 12.40625 
L 21 12.40625 
L 21 0 
L 10.6875 0 
z
" id="DejaVuSans-2e"/>
      </defs>
      <g transform="translate(31.99375 305.843812)scale(0.2 -0.2)">
       <use xlink:href="#DejaVuSans-30"/>
       <use x="63.623047" xlink:href="#DejaVuSans-2e"/>
       <use x="95.410156" xlink:href="#DejaVuSans-30"/>
      </g>
     </g>
    </g>
    <g id="ytick_2">
     <g id="line2d_13">
      <path clip-path="url(#p3c0c0c3000)" d="M 70.8 245.549929 
L 427.92 245.549929 
" style="fill:none;stroke:#b0b0b0;stroke-linecap:square;stroke-width:0.8;"/>
     </g>
     <g id="line2d_14">
      <g>
       <use style="stroke:#000000;stroke-width:0.8;" x="70.8" xlink:href="#mb07289308d" y="245.549929"/>
      </g>
     </g>
     <g id="text_8">
      <!-- 0.2 -->
      <g transform="translate(31.99375 253.148367)scale(0.2 -0.2)">
       <use xlink:href="#DejaVuSans-30"/>
       <use x="63.623047" xlink:href="#DejaVuSans-2e"/>
       <use x="95.410156" xlink:href="#DejaVuSans-32"/>
      </g>
     </g>
    </g>
    <g id="ytick_3">
     <g id="line2d_15">
      <path clip-path="url(#p3c0c0c3000)" d="M 70.8 192.854484 
L 427.92 192.854484 
" style="fill:none;stroke:#b0b0b0;stroke-linecap:square;stroke-width:0.8;"/>
     </g>
     <g id="line2d_16">
      <g>
       <use style="stroke:#000000;stroke-width:0.8;" x="70.8" xlink:href="#mb07289308d" y="192.854484"/>
      </g>
     </g>
     <g id="text_9">
      <!-- 0.4 -->
      <g transform="translate(31.99375 200.452921)scale(0.2 -0.2)">
       <use xlink:href="#DejaVuSans-30"/>
       <use x="63.623047" xlink:href="#DejaVuSans-2e"/>
       <use x="95.410156" xlink:href="#DejaVuSans-34"/>
      </g>
     </g>
    </g>
    <g id="ytick_4">
     <g id="line2d_17">
      <path clip-path="url(#p3c0c0c3000)" d="M 70.8 140.159038 
L 427.92 140.159038 
" style="fill:none;stroke:#b0b0b0;stroke-linecap:square;stroke-width:0.8;"/>
     </g>
     <g id="line2d_18">
      <g>
       <use style="stroke:#000000;stroke-width:0.8;" x="70.8" xlink:href="#mb07289308d" y="140.159038"/>
      </g>
     </g>
     <g id="text_10">
      <!-- 0.6 -->
      <g transform="translate(31.99375 147.757476)scale(0.2 -0.2)">
       <use xlink:href="#DejaVuSans-30"/>
       <use x="63.623047" xlink:href="#DejaVuSans-2e"/>
       <use x="95.410156" xlink:href="#DejaVuSans-36"/>
      </g>
     </g>
    </g>
    <g id="ytick_5">
     <g id="line2d_19">
      <path clip-path="url(#p3c0c0c3000)" d="M 70.8 87.463593 
L 427.92 87.463593 
" style="fill:none;stroke:#b0b0b0;stroke-linecap:square;stroke-width:0.8;"/>
     </g>
     <g id="line2d_20">
      <g>
       <use style="stroke:#000000;stroke-width:0.8;" x="70.8" xlink:href="#mb07289308d" y="87.463593"/>
      </g>
     </g>
     <g id="text_11">
      <!-- 0.8 -->
      <g transform="translate(31.99375 95.06203)scale(0.2 -0.2)">
       <use xlink:href="#DejaVuSans-30"/>
       <use x="63.623047" xlink:href="#DejaVuSans-2e"/>
       <use x="95.410156" xlink:href="#DejaVuSans-38"/>
      </g>
     </g>
    </g>
    <g id="ytick_6">
     <g id="line2d_21">
      <path clip-path="url(#p3c0c0c3000)" d="M 70.8 34.768147 
L 427.92 34.768147 
" style="fill:none;stroke:#b0b0b0;stroke-linecap:square;stroke-width:0.8;"/>
     </g>
     <g id="line2d_22">
      <g>
       <use style="stroke:#000000;stroke-width:0.8;" x="70.8" xlink:href="#mb07289308d" y="34.768147"/>
      </g>
     </g>
     <g id="text_12">
      <!-- 1.0 -->
      <g transform="translate(31.99375 42.366585)scale(0.2 -0.2)">
       <use xlink:href="#DejaVuSans-31"/>
       <use x="63.623047" xlink:href="#DejaVuSans-2e"/>
       <use x="95.410156" xlink:href="#DejaVuSans-30"/>
      </g>
     </g>
    </g>
    <g id="text_13">
     <!-- Proportion of function+target pairs -->
     <defs>
      <path d="M 19.671875 64.796875 
L 19.671875 37.40625 
L 32.078125 37.40625 
Q 38.96875 37.40625 42.71875 40.96875 
Q 46.484375 44.53125 46.484375 51.125 
Q 46.484375 57.671875 42.71875 61.234375 
Q 38.96875 64.796875 32.078125 64.796875 
z
M 9.8125 72.90625 
L 32.078125 72.90625 
Q 44.34375 72.90625 50.609375 67.359375 
Q 56.890625 61.8125 56.890625 51.125 
Q 56.890625 40.328125 50.609375 34.8125 
Q 44.34375 29.296875 32.078125 29.296875 
L 19.671875 29.296875 
L 19.671875 0 
L 9.8125 0 
z
" id="DejaVuSans-50"/>
      <path d="M 41.109375 46.296875 
Q 39.59375 47.171875 37.8125 47.578125 
Q 36.03125 48 33.890625 48 
Q 26.265625 48 22.1875 43.046875 
Q 18.109375 38.09375 18.109375 28.8125 
L 18.109375 0 
L 9.078125 0 
L 9.078125 54.6875 
L 18.109375 54.6875 
L 18.109375 46.1875 
Q 20.953125 51.171875 25.484375 53.578125 
Q 30.03125 56 36.53125 56 
Q 37.453125 56 38.578125 55.875 
Q 39.703125 55.765625 41.0625 55.515625 
z
" id="DejaVuSans-72"/>
      <path d="M 18.109375 8.203125 
L 18.109375 -20.796875 
L 9.078125 -20.796875 
L 9.078125 54.6875 
L 18.109375 54.6875 
L 18.109375 46.390625 
Q 20.953125 51.265625 25.265625 53.625 
Q 29.59375 56 35.59375 56 
Q 45.5625 56 51.78125 48.09375 
Q 58.015625 40.1875 58.015625 27.296875 
Q 58.015625 14.40625 51.78125 6.484375 
Q 45.5625 -1.421875 35.59375 -1.421875 
Q 29.59375 -1.421875 25.265625 0.953125 
Q 20.953125 3.328125 18.109375 8.203125 
z
M 48.6875 27.296875 
Q 48.6875 37.203125 44.609375 42.84375 
Q 40.53125 48.484375 33.40625 48.484375 
Q 26.265625 48.484375 22.1875 42.84375 
Q 18.109375 37.203125 18.109375 27.296875 
Q 18.109375 17.390625 22.1875 11.75 
Q 26.265625 6.109375 33.40625 6.109375 
Q 40.53125 6.109375 44.609375 11.75 
Q 48.6875 17.390625 48.6875 27.296875 
z
" id="DejaVuSans-70"/>
      <path d="M 18.3125 70.21875 
L 18.3125 54.6875 
L 36.8125 54.6875 
L 36.8125 47.703125 
L 18.3125 47.703125 
L 18.3125 18.015625 
Q 18.3125 11.328125 20.140625 9.421875 
Q 21.96875 7.515625 27.59375 7.515625 
L 36.8125 7.515625 
L 36.8125 0 
L 27.59375 0 
Q 17.1875 0 13.234375 3.875 
Q 9.28125 7.765625 9.28125 18.015625 
L 9.28125 47.703125 
L 2.6875 47.703125 
L 2.6875 54.6875 
L 9.28125 54.6875 
L 9.28125 70.21875 
z
" id="DejaVuSans-74"/>
      <path d="M 8.5 21.578125 
L 8.5 54.6875 
L 17.484375 54.6875 
L 17.484375 21.921875 
Q 17.484375 14.15625 20.5 10.265625 
Q 23.53125 6.390625 29.59375 6.390625 
Q 36.859375 6.390625 41.078125 11.03125 
Q 45.3125 15.671875 45.3125 23.6875 
L 45.3125 54.6875 
L 54.296875 54.6875 
L 54.296875 0 
L 45.3125 0 
L 45.3125 8.40625 
Q 42.046875 3.421875 37.71875 1 
Q 33.40625 -1.421875 27.6875 -1.421875 
Q 18.265625 -1.421875 13.375 4.4375 
Q 8.5 10.296875 8.5 21.578125 
z
M 31.109375 56 
z
" id="DejaVuSans-75"/>
      <path d="M 48.78125 52.59375 
L 48.78125 44.1875 
Q 44.96875 46.296875 41.140625 47.34375 
Q 37.3125 48.390625 33.40625 48.390625 
Q 24.65625 48.390625 19.8125 42.84375 
Q 14.984375 37.3125 14.984375 27.296875 
Q 14.984375 17.28125 19.8125 11.734375 
Q 24.65625 6.203125 33.40625 6.203125 
Q 37.3125 6.203125 41.140625 7.25 
Q 44.96875 8.296875 48.78125 10.40625 
L 48.78125 2.09375 
Q 45.015625 0.34375 40.984375 -0.53125 
Q 36.96875 -1.421875 32.421875 -1.421875 
Q 20.0625 -1.421875 12.78125 6.34375 
Q 5.515625 14.109375 5.515625 27.296875 
Q 5.515625 40.671875 12.859375 48.328125 
Q 20.21875 56 33.015625 56 
Q 37.15625 56 41.109375 55.140625 
Q 45.0625 54.296875 48.78125 52.59375 
z
" id="DejaVuSans-63"/>
     </defs>
     <g transform="translate(24.250312 323.17875)rotate(-90)scale(0.18 -0.18)">
      <use xlink:href="#DejaVuSans-50"/>
      <use x="60.287109" xlink:href="#DejaVuSans-72"/>
      <use x="101.369141" xlink:href="#DejaVuSans-6f"/>
      <use x="162.550781" xlink:href="#DejaVuSans-70"/>
      <use x="226.027344" xlink:href="#DejaVuSans-6f"/>
      <use x="287.208984" xlink:href="#DejaVuSans-72"/>
      <use x="328.322266" xlink:href="#DejaVuSans-74"/>
      <use x="367.53125" xlink:href="#DejaVuSans-69"/>
      <use x="395.314453" xlink:href="#DejaVuSans-6f"/>
      <use x="456.496094" xlink:href="#DejaVuSans-6e"/>
      <use x="519.875" xlink:href="#DejaVuSans-20"/>
      <use x="551.662109" xlink:href="#DejaVuSans-6f"/>
      <use x="612.84375" xlink:href="#DejaVuSans-66"/>
      <use x="648.048828" xlink:href="#DejaVuSans-20"/>
      <use x="679.835938" xlink:href="#DejaVuSans-66"/>
      <use x="715.041016" xlink:href="#DejaVuSans-75"/>
      <use x="778.419922" xlink:href="#DejaVuSans-6e"/>
      <use x="841.798828" xlink:href="#DejaVuSans-63"/>
      <use x="896.779297" xlink:href="#DejaVuSans-74"/>
      <use x="935.988281" xlink:href="#DejaVuSans-69"/>
      <use x="963.771484" xlink:href="#DejaVuSans-6f"/>
      <use x="1024.953125" xlink:href="#DejaVuSans-6e"/>
      <use x="1088.332031" xlink:href="#DejaVuSans-2b"/>
      <use x="1172.121094" xlink:href="#DejaVuSans-74"/>
      <use x="1211.330078" xlink:href="#DejaVuSans-61"/>
      <use x="1272.609375" xlink:href="#DejaVuSans-72"/>
      <use x="1313.707031" xlink:href="#DejaVuSans-67"/>
      <use x="1377.183594" xlink:href="#DejaVuSans-65"/>
      <use x="1438.707031" xlink:href="#DejaVuSans-74"/>
      <use x="1477.916016" xlink:href="#DejaVuSans-20"/>
      <use x="1509.703125" xlink:href="#DejaVuSans-70"/>
      <use x="1573.179688" xlink:href="#DejaVuSans-61"/>
      <use x="1634.458984" xlink:href="#DejaVuSans-69"/>
      <use x="1662.242188" xlink:href="#DejaVuSans-72"/>
      <use x="1703.355469" xlink:href="#DejaVuSans-73"/>
     </g>
    </g>
   </g>
   <g id="line2d_23">
    <defs>
     <path d="M 0 1.5 
C 0.397805 1.5 0.77937 1.341951 1.06066 1.06066 
C 1.341951 0.77937 1.5 0.397805 1.5 0 
C 1.5 -0.397805 1.341951 -0.77937 1.06066 -1.06066 
C 0.77937 -1.341951 0.397805 -1.5 0 -1.5 
C -0.397805 -1.5 -0.77937 -1.341951 -1.06066 -1.06066 
C -1.341951 -0.77937 -1.5 -0.397805 -1.5 0 
C -1.5 0.397805 -1.341951 0.77937 -1.06066 1.06066 
C -0.77937 1.341951 -0.397805 1.5 0 1.5 
z
" id="m0db966dcf0" style="stroke:#000080;"/>
    </defs>
    <g>
     <use style="fill:#000080;stroke:#000080;" x="287.247323" xlink:href="#m0db966dcf0" y="109.57071"/>
     <use style="fill:#000080;stroke:#000080;" x="287.247323" xlink:href="#m0db966dcf0" y="109.57071"/>
    </g>
   </g>
   <g id="line2d_24">
    <path d="M 51.169868 298.245375 
L 51.169868 294.725888 
L 63.555102 294.725888 
L 63.555102 293.251362 
L 75.940337 293.251362 
L 75.940337 293.13297 
L 83.185234 293.13297 
L 83.185234 292.584059 
L 88.325571 292.584059 
L 88.325571 292.035148 
L 92.312726 292.035148 
L 92.312726 289.09686 
L 95.570468 289.09686 
L 95.570468 286.352306 
L 98.32485 286.352306 
L 98.32485 283.64004 
L 100.710805 283.64004 
L 100.710805 282.423826 
L 102.815366 282.423826 
L 102.815366 279.001205 
L 104.69796 279.001205 
L 104.69796 275.89071 
L 106.400973 275.89071 
L 106.400973 272.005282 
L 107.955702 272.005282 
L 107.955702 269.153098 
L 109.385915 269.153098 
L 109.385915 265.472166 
L 110.710085 265.472166 
L 110.710085 264.137559 
L 111.942857 264.137559 
L 111.942857 261.33919 
L 113.096039 261.33919 
L 113.096039 259.563302 
L 114.179287 259.563302 
L 114.179287 256.754169 
L 115.2006 256.754169 
L 115.2006 253.848171 
L 116.166679 253.848171 
L 116.166679 252.007705 
L 117.083194 252.007705 
L 117.083194 249.586039 
L 117.954982 249.586039 
L 117.954982 248.391351 
L 118.786207 248.391351 
L 118.786207 246.464781 
L 119.580476 246.464781 
L 119.580476 243.601834 
L 120.340936 243.601834 
L 120.340936 241.868998 
L 121.070349 241.868998 
L 121.070349 239.598013 
L 121.771149 239.598013 
L 121.771149 238.091199 
L 122.445497 238.091199 
L 122.445497 236.853459 
L 123.095319 236.853459 
L 123.095319 235.465037 
L 123.722334 235.465037 
L 123.722334 233.355497 
L 124.328091 233.355497 
L 124.328091 231.805631 
L 124.913984 231.805631 
L 124.913984 230.20195 
L 125.481273 230.20195 
L 125.481273 229.114892 
L 126.031105 229.114892 
L 126.031105 227.059166 
L 126.564521 227.048404 
L 126.564521 225.627693 
L 127.082473 225.627693 
L 127.082473 224.788182 
L 127.585834 224.788182 
L 127.585834 223.50739 
L 128.075402 223.50739 
L 128.075402 222.011339 
L 128.551913 222.011339 
L 128.551913 220.149347 
L 129.016046 220.149347 
L 129.016046 218.771688 
L 129.468428 218.760925 
L 129.468428 217.221822 
L 129.909638 217.221822 
L 129.909638 215.564327 
L 130.340216 215.564327 
L 130.340216 214.283535 
L 130.760662 214.283535 
L 130.760662 212.798246 
L 131.171441 212.798246 
L 131.171441 211.894158 
L 131.572989 211.894158 
L 131.572989 210.494973 
L 131.96571 210.48421 
L 131.96571 210.398107 
L 131.96571 209.569359 
L 132.349986 209.569359 
L 132.349986 208.428485 
L 132.726171 208.428485 
L 132.726171 207.750419 
L 133.094598 207.750419 
L 133.094598 207.007775 
L 133.455583 207.007775 
L 133.455583 206.383523 
L 133.809418 206.383523 
L 133.809418 205.694694 
L 134.156383 205.694694 
L 134.156383 204.424664 
L 134.496738 204.424664 
L 134.496738 204.403139 
L 134.496738 203.477524 
L 134.830731 203.477524 
L 134.830731 202.347413 
L 135.158596 202.347413 
L 135.158596 202.002999 
L 135.480553 202.002999 
L 135.480553 201.131199 
L 135.796811 201.131199 
L 135.796811 200.560762 
L 136.107569 200.51771 
L 136.107569 200.162533 
L 136.413014 200.162533 
L 136.413014 199.592096 
L 136.713325 199.57057 
L 136.713325 199.043185 
L 137.008673 198.967844 
L 137.008673 198.343593 
L 137.299218 198.322067 
L 137.299218 198.289778 
L 137.299218 197.579423 
L 137.585114 197.547134 
L 137.585114 197.030512 
L 137.866507 196.98746 
L 137.866507 196.69686 
L 138.005559 196.69686 
L 138.005559 196.556942 
L 138.143538 196.556942 
L 138.143538 196.51389 
L 138.143538 196.234053 
L 138.416339 196.137186 
L 138.416339 195.82506 
L 138.551193 195.82506 
L 138.551193 195.674379 
L 138.685037 195.674379 
L 138.685037 195.254624 
L 138.817886 195.254624 
L 138.817886 195.071653 
L 138.949755 195.071653 
L 138.949755 195.06089 
L 138.949755 194.931735 
L 139.080657 194.931735 
L 139.080657 194.705713 
L 139.210608 194.705713 
L 139.210608 194.490454 
L 139.33962 194.490454 
L 139.33962 193.973832 
L 139.467708 193.973832 
L 139.467708 193.489498 
L 139.594883 193.489498 
L 139.594883 192.886773 
L 139.72116 192.886773 
L 139.72116 192.865247 
L 139.72116 192.660751 
L 139.971068 192.574647 
L 139.971068 192.40244 
L 140.094723 192.40244 
L 140.094723 192.230232 
L 140.217529 192.230232 
L 140.217529 192.025736 
L 140.339496 192.025736 
L 140.339496 191.433773 
L 140.460636 191.401484 
L 140.460636 191.283092 
L 140.70048 191.250803 
L 140.70048 191.067833 
L 140.819206 191.067833 
L 140.819206 190.798759 
L 140.937147 190.798759 
L 140.937147 190.572737 
L 141.054316 190.572737 
L 141.054316 190.36824 
L 141.170721 190.36824 
L 141.170721 190.314426 
L 141.170721 190.239085 
L 141.286373 190.239085 
L 141.286373 189.550256 
L 141.40128 189.550256 
L 141.40128 189.324233 
L 141.515454 189.324233 
L 141.515454 189.022871 
L 141.628903 189.022871 
L 141.628903 188.818374 
L 141.741636 188.818374 
L 141.741636 188.603115 
L 141.853662 188.5493 
L 141.853662 188.5493 
L 141.853662 188.452434 
L 142.075629 188.344804 
L 142.185587 187.903523 
L 142.294872 187.903523 
L 142.403494 187.214694 
L 142.511458 187.214694 
L 142.511458 187.12859 
L 142.618775 186.568916 
L 142.72545 186.568916 
L 142.831493 186.18145 
L 142.93691 186.18145 
L 143.041708 185.78322 
L 143.145896 185.78322 
L 143.145896 185.772457 
L 143.145896 185.664828 
L 143.454862 185.567961 
L 143.556675 184.814554 
L 143.657911 184.814554 
L 143.758577 184.491665 
L 143.858679 184.491665 
L 143.958223 184.082673 
L 144.155663 183.985806 
L 144.25357 183.770547 
L 144.350945 183.770547 
L 144.447791 183.372317 
L 144.544115 183.372317 
L 144.639923 182.952562 
L 144.73522 182.952562 
L 144.73522 182.844932 
L 144.830011 182.672725 
L 145.111405 182.565095 
L 145.204226 182.360599 
L 145.296568 182.360599 
L 145.296568 182.349836 
L 145.388435 182.048473 
L 145.570765 181.96237 
L 145.661236 181.714822 
L 145.751252 181.714822 
L 145.840817 181.165911 
L 145.929935 181.165911 
L 146.01861 180.982941 
L 146.106848 180.982941 
L 146.106848 180.961415 
L 146.194652 180.617 
L 146.282027 180.617 
L 146.368977 180.380215 
L 146.455505 180.380215 
L 146.541617 180.111141 
L 146.627316 180.111141 
L 146.712605 179.874356 
L 146.797489 179.874356 
L 146.881972 179.712911 
L 146.966058 179.712911 
L 147.049749 179.476126 
L 147.133051 179.476126 
L 147.133051 179.4546 
L 147.215966 179.207052 
L 147.298497 179.207052 
L 147.38065 178.894927 
L 147.54383 178.787297 
L 147.624865 178.604327 
L 147.78584 178.496697 
L 147.865787 178.21686 
L 147.945378 178.21686 
L 148.024616 177.840157 
L 148.182045 177.732527 
L 148.260243 177.56032 
L 148.415618 177.528031 
L 148.492803 177.366586 
L 148.722375 177.258957 
L 148.722375 176.97912 
L 148.949035 176.882253 
L 149.023953 176.763861 
L 149.172855 176.753098 
L 149.172855 176.699283 
L 149.246843 176.613179 
L 149.393907 176.548602 
L 149.466987 176.440972 
L 149.612257 176.387157 
L 149.684452 176.247239 
L 149.970348 176.161135 
L 150.041113 176.021217 
L 150.181807 175.956639 
L 150.181807 175.838246 
L 150.597364 175.74138 
L 150.665693 175.687565 
L 150.733762 175.687565 
L 150.801573 175.504595 
L 151.003475 175.440017 
L 151.070271 175.267809 
L 151.269176 175.170943 
L 151.269176 175.127891 
L 151.465892 175.05255 
L 151.530985 174.901869 
L 151.660465 174.858817 
L 151.660465 174.794239 
L 151.724854 174.729662 
L 151.852942 174.665084 
L 151.916643 174.266854 
L 152.106394 174.159225 
L 152.1692 174.062358 
L 152.356302 173.954729 
L 152.418237 173.717943 
L 152.602763 173.63184 
L 152.66385 173.438107 
L 152.785403 173.34124 
L 152.84587 173.222847 
L 153.20444 173.115218 
L 153.263508 172.996825 
L 153.497847 172.921484 
L 153.555955 172.792329 
L 153.729153 172.727751 
L 153.729153 172.706225 
L 153.786515 172.630885 
L 153.957503 172.534018 
L 154.014137 172.437151 
L 154.238896 172.361811 
L 154.238896 172.351048 
L 154.294647 172.307996 
L 154.515927 172.200366 
L 154.625547 172.125026 
L 154.788728 172.049685 
L 154.896692 171.920529 
L 155.269513 171.8129 
L 155.37462 171.662218 
L 155.634714 171.576115 
L 155.634714 171.565352 
L 155.686281 171.500774 
L 155.941909 171.436196 
L 155.941909 171.393144 
L 155.992599 171.371618 
L 156.44245 171.263989 
L 156.540897 170.973389 
L 156.736179 170.887285 
L 156.736179 170.865759 
L 156.833025 170.801182 
L 157.120454 170.704315 
L 157.120454 170.693552 
L 157.215245 170.618211 
L 157.496639 170.510582 
L 157.58946 170.456767 
L 157.727795 170.402952 
L 157.819426 170.230745 
L 157.955999 170.144641 
L 157.955999 170.123115 
L 158.04647 170.037012 
L 158.270665 169.929382 
L 158.359562 169.843278 
L 158.667261 169.778701 
L 158.667261 169.735649 
L 158.754211 169.660308 
L 158.84074 169.628019 
L 158.926851 169.455812 
L 159.182724 169.348182 
L 159.267206 169.251316 
L 159.6012 169.143686 
L 159.683732 169.003768 
L 160.090768 168.896138 
L 160.171074 168.842323 
L 160.40985 168.734694 
L 160.488738 168.691642 
L 160.645477 168.584012 
L 160.723333 168.54096 
L 161.031412 168.433331 
L 161.107609 168.401042 
L 161.183482 168.401042 
L 161.183482 168.390279 
L 161.259034 168.218072 
L 161.483794 168.142731 
L 161.558089 167.895183 
L 162.069686 167.787553 
L 162.177434 167.712213 
L 162.390999 167.615346 
L 162.390999 167.604583 
L 162.496833 167.507716 
L 162.706637 167.41085 
L 162.810622 167.174065 
L 163.016795 167.066435 
L 163.118996 167.023383 
L 163.321661 166.948042 
L 163.388709 166.797361 
L 163.785794 166.700494 
L 163.851126 166.635917 
L 163.981076 166.549813 
L 164.077923 166.43142 
L 164.617019 166.323791 
L 164.679386 166.033191 
L 164.865192 165.947087 
L 164.957375 165.860984 
L 165.170637 165.796406 
L 165.200896 165.634961 
L 165.351429 165.613436 
L 165.381384 165.505806 
L 165.824784 165.398176 
L 165.883081 165.344362 
L 166.056841 165.269021 
L 166.143091 164.924606 
L 166.62413 164.816977 
L 166.707691 164.677058 
L 167.038082 164.569429 
L 167.146868 164.53714 
L 167.335665 164.472562 
L 167.44266 164.343406 
L 167.681082 164.235777 
L 167.681082 164.203488 
L 167.994108 164.149673 
L 168.071515 163.998992 
L 168.503932 163.912888 
L 168.579166 163.84831 
L 168.802987 163.77297 
L 168.90157 163.460844 
L 169.218259 163.353214 
L 169.314583 163.267111 
L 170.020925 163.159481 
L 170.113029 163.116429 
L 170.181797 163.062614 
L 170.204661 162.965748 
L 170.566559 162.858118 
L 170.633606 162.772014 
L 170.833252 162.707437 
L 170.877316 162.578281 
L 171.139445 162.470652 
L 171.24754 162.31997 
L 171.354986 162.212341 
L 171.440479 162.007844 
L 171.715542 161.900215 
L 171.820218 161.8464 
L 171.88273 161.781822 
L 171.986434 161.545037 
L 172.171597 161.448171 
L 172.273643 161.297489 
L 172.536265 161.211385 
L 172.616302 160.89926 
L 173.030711 160.802393 
L 173.108568 160.705526 
L 173.263271 160.619423 
L 173.359285 160.490267 
L 173.62541 160.414927 
L 173.719503 160.339586 
L 173.961849 160.242719 
L 174.054191 159.973645 
L 174.346519 159.866016 
L 174.45492 159.693808 
L 174.846859 159.607705 
L 174.952275 159.532364 
L 174.987277 159.532364 
L 174.987277 159.360157 
L 175.402029 159.26329 
L 175.402029 159.252527 
L 175.402029 159.241764 
L 176.301453 159.134134 
L 176.301453 159.123372 
L 176.766419 159.015742 
L 176.829613 158.929638 
L 177.188705 158.854298 
L 177.188705 158.800483 
L 177.736663 158.703616 
L 177.826377 158.574461 
L 178.239191 158.477594 
L 178.239191 158.466831 
L 178.326423 158.39149 
L 178.499621 158.294624 
L 178.499621 158.262335 
L 179.148416 158.176231 
L 179.258884 158.02555 
L 179.774477 157.91792 
L 179.827894 157.799528 
L 180.24958 157.691898 
L 180.353465 157.541217 
L 180.585021 157.433587 
L 180.674266 157.369009 
L 180.876596 157.272143 
L 180.876596 157.218328 
L 181.126329 157.164513 
L 181.212918 157.013832 
L 181.567237 156.906202 
L 181.65172 156.820098 
L 182.032921 156.712469 
L 182.1035 156.583313 
L 182.42923 156.486447 
L 182.521215 156.346528 
L 182.703777 156.249662 
L 182.805655 156.09898 
L 182.951793 156.023639 
L 183.01884 155.969825 
L 183.207453 155.883721 
L 183.306507 155.453203 
L 183.3613 155.453203 
L 183.372239 155.291758 
L 183.74022 155.194892 
L 183.825714 155.108788 
L 183.932008 155.087262 
L 184.037675 154.947344 
L 184.901434 154.839714 
L 184.991551 154.785899 
L 185.667749 154.67827 
L 185.696576 154.635218 
L 186.457837 154.527588 
L 186.549609 154.506062 
L 187.108315 154.398433 
L 187.17915 154.333855 
L 187.64147 154.247751 
L 187.64147 154.236988 
L 187.64147 154.215462 
L 188.646032 154.107833 
L 188.751544 154.043255 
L 188.936708 154.000203 
L 189.024591 153.688077 
L 189.119972 153.612737 
L 189.222731 153.451292 
L 189.356222 153.397478 
L 189.418698 153.149929 
L 189.566209 153.0423 
L 189.597109 153.020774 
L 189.811928 152.988485 
L 189.910794 152.64407 
L 190.514782 152.536441 
L 190.595252 152.471863 
L 190.877672 152.374996 
L 190.977975 152.331945 
L 191.436428 152.224315 
L 191.540575 151.976767 
L 192.398842 151.869137 
L 192.477846 151.80456 
L 192.673842 151.69693 
L 192.673842 151.686167 
L 192.906234 151.653878 
L 192.983031 151.503197 
L 193.708867 151.395567 
L 193.806708 151.341752 
L 194.192799 151.234123 
L 194.264272 151.191071 
L 194.482863 151.094204 
L 194.535632 150.93276 
L 194.733586 150.82513 
L 194.831747 150.782079 
L 194.969415 150.674449 
L 195.060609 150.469953 
L 195.297799 150.383849 
L 195.392917 150.276219 
L 195.576125 150.16859 
L 195.598205 150.147064 
L 196.306641 150.039434 
L 196.401825 149.845701 
L 196.694752 149.738072 
L 196.767239 149.705783 
L 196.982954 149.608916 
L 197.054284 149.544338 
L 197.236406 149.468998 
L 197.236406 149.458235 
L 197.346797 149.307553 
L 197.883891 149.199924 
L 197.927525 149.178398 
L 198.196657 149.081531 
L 198.296545 148.898561 
L 198.475889 148.812457 
L 198.569562 148.521857 
L 198.889016 148.414228 
L 198.975988 148.34965 
L 199.757745 148.24202 
L 199.844949 148.188206 
L 199.90574 148.188206 
L 200.013783 147.972946 
L 200.159681 147.87608 
L 200.24495 147.811502 
L 200.515109 147.736161 
L 200.611208 147.650058 
L 201.776626 147.574717 
L 201.885602 147.456324 
L 202.017043 147.359458 
L 202.032443 147.273354 
L 202.435786 147.18725 
L 202.544567 147.068858 
L 202.645254 146.982754 
L 202.667552 146.89665 
L 203.226947 146.810547 
L 203.334608 146.659865 
L 203.646723 146.573762 
L 203.688865 146.466132 
L 204.067169 146.358503 
L 204.1494 146.05714 
L 205.320306 145.971036 
L 205.396979 145.852643 
L 205.524042 145.755777 
L 205.574615 145.58357 
L 206.087968 145.497466 
L 206.176689 145.336021 
L 206.31955 145.271444 
L 206.31955 145.18534 
L 207.320332 145.088473 
L 207.423088 144.883977 
L 207.440157 144.808637 
L 207.547882 144.453459 
L 207.64372 144.356592 
L 207.64372 144.270489 
L 208.76067 144.162859 
L 208.76067 144.152096 
L 209.606534 144.055229 
L 209.681938 143.883022 
L 210.044427 143.775392 
L 210.154687 143.560133 
L 210.462243 143.47403 
L 210.572348 141.870349 
L 210.579506 141.762719 
L 210.686522 139.308765 
L 210.698373 139.201135 
L 210.809392 138.178654 
L 210.847029 138.081787 
L 210.957132 137.769662 
L 210.996789 137.683558 
L 211.099026 137.382195 
L 211.226004 137.274565 
L 211.333803 136.940914 
L 211.481822 136.833284 
L 211.592601 136.639551 
L 211.693735 136.531921 
L 211.772001 136.370477 
L 211.86103 136.262847 
L 211.958453 136.155218 
L 212.053151 136.047588 
L 212.145164 135.896907 
L 212.260604 135.789277 
L 212.368831 135.660122 
L 212.47855 135.552492 
L 212.484984 135.530966 
L 212.683272 135.4341 
L 212.788975 135.380285 
L 213.170605 135.272655 
L 213.277575 135.208077 
L 213.473392 135.111211 
L 213.542232 135.03587 
L 213.828898 134.92824 
L 213.937941 134.766796 
L 213.995169 134.659166 
L 214.101247 134.583826 
L 215.052786 134.476196 
L 215.160169 134.357804 
L 215.360245 134.250174 
L 215.429473 134.196359 
L 215.766295 134.08873 
L 215.771647 134.056441 
L 216.135378 133.948811 
L 216.135378 133.938048 
L 216.65388 133.830419 
L 216.752085 133.658211 
L 216.853111 133.550582 
L 216.85479 133.529056 
L 217.154458 133.421426 
L 217.172609 133.356849 
L 217.802923 133.259982 
L 217.885521 133.163115 
L 218.230809 133.055486 
L 218.331562 132.883278 
L 218.542076 132.786412 
L 218.549712 132.711071 
L 219.162085 132.624967 
L 219.16356 132.571153 
L 219.696976 132.463523 
L 219.754163 132.420471 
L 219.94583 132.334367 
L 219.94583 132.302079 
L 220.489627 132.194449 
L 220.579808 132.086819 
L 220.960081 131.97919 
L 220.960081 131.968427 
L 221.424966 131.87156 
L 221.487256 131.806982 
L 222.502019 131.699353 
L 222.605751 131.677827 
L 222.825855 131.570197 
L 222.936094 129.68668 
L 222.945647 129.589813 
L 223.051591 129.10548 
L 223.114384 128.99785 
L 223.218159 128.674961 
L 223.254573 128.567332 
L 223.361039 128.395125 
L 223.391342 128.287495 
L 223.491209 128.072236 
L 223.572087 127.964606 
L 223.676683 127.813925 
L 223.770413 127.706295 
L 223.879525 127.534088 
L 224.298363 127.426458 
L 224.383389 127.372643 
L 224.625201 127.265014 
L 224.730311 127.038992 
L 225.346221 126.931362 
L 225.439919 126.834496 
L 225.705828 126.726866 
L 225.74364 126.70534 
L 226.193239 126.59771 
L 226.302409 126.479318 
L 226.507034 126.371688 
L 226.585117 126.328637 
L 226.861503 126.23177 
L 226.93901 126.145666 
L 227.205314 126.038037 
L 227.299135 125.984222 
L 227.811071 125.876592 
L 227.900867 125.812014 
L 228.57994 125.704385 
L 228.594741 125.639807 
L 229.156726 125.532178 
L 229.182851 125.4676 
L 230.0475 125.35997 
L 230.157084 123.896208 
L 230.178602 123.788578 
L 230.286595 123.551793 
L 230.319815 123.444164 
L 230.423819 123.261193 
L 230.49282 123.164327 
L 230.595824 122.970593 
L 230.787757 122.862964 
L 230.891376 122.798386 
L 231.303686 122.690756 
L 231.338801 122.59389 
L 231.94421 122.48626 
L 232.037046 122.400157 
L 232.370561 122.292527 
L 232.476628 122.141846 
L 232.826165 122.044979 
L 232.926839 121.937349 
L 233.125824 121.840483 
L 233.125824 121.82972 
L 233.189869 121.786668 
L 234.118224 121.679038 
L 234.118224 121.668275 
L 235.176199 121.560646 
L 235.285455 120.624268 
L 235.35534 120.516639 
L 235.447504 120.387483 
L 235.540964 120.279854 
L 235.648019 120.161461 
L 235.886863 120.053832 
L 235.995322 119.978491 
L 236.339389 119.870861 
L 236.361379 119.849335 
L 236.778535 119.741706 
L 236.78569 119.72018 
L 237.415002 119.61255 
L 237.482341 119.558736 
L 237.96839 119.451106 
L 237.96839 119.440343 
L 238.839369 119.332713 
L 238.839369 119.32195 
L 239.171782 119.235847 
L 239.274525 118.654647 
L 239.319469 118.55778 
L 239.422318 118.460914 
L 239.534962 118.353284 
L 239.625788 118.288706 
L 240.007537 118.181077 
L 240.110624 118.148788 
L 240.631082 118.041158 
L 240.738144 118.008869 
L 241.283296 117.90124 
L 241.331575 117.879714 
L 242.415074 117.772084 
L 242.515983 117.223173 
L 242.599244 117.115544 
L 242.705839 117.018677 
L 243.08734 116.911048 
L 243.128288 116.867996 
L 243.731871 116.760366 
L 243.731871 116.749603 
L 244.314285 116.641974 
L 244.314285 116.631211 
L 245.177027 116.523581 
L 245.277894 116.146878 
L 245.367985 116.039248 
L 245.430509 115.953144 
L 246.001338 115.845515 
L 246.094729 115.802463 
L 246.968213 115.694833 
L 247.055457 115.662544 
L 247.558422 115.565678 
L 247.650329 115.081345 
L 247.772142 114.973715 
L 247.842817 114.930663 
L 248.379694 114.823034 
L 248.464048 114.790745 
L 249.274625 114.683115 
L 249.274625 114.672352 
L 249.663451 114.564723 
L 249.741704 114.274123 
L 249.897188 114.166493 
L 249.931499 114.123441 
L 250.55133 114.015812 
L 250.55515 113.994286 
L 251.536541 113.886656 
L 251.641798 113.628345 
L 252.135685 113.520716 
L 252.176891 113.49919 
L 253.24295 113.39156 
L 253.326439 113.20859 
L 253.951635 113.10096 
L 254.05388 113.079434 
L 254.788257 112.971805 
L 254.89303 112.788835 
L 255.348387 112.681205 
L 255.36318 112.659679 
L 256.224589 112.552049 
L 256.300072 112.455183 
L 257.017133 112.347553 
L 257.076979 112.315264 
L 257.547116 112.239924 
L 257.637108 112.089242 
L 258.238941 111.981613 
L 258.267077 111.960087 
L 258.779269 111.852457 
L 258.889969 111.75559 
L 259.636903 111.647961 
L 259.744866 111.604909 
L 260.001979 111.497279 
L 260.05338 111.475754 
L 261.013685 111.368124 
L 261.116344 111.314309 
L 262.061662 111.20668 
L 262.133865 111.152865 
L 263.001645 111.045235 
L 263.096804 111.023709 
L 263.961259 110.91608 
L 264.051455 110.873028 
L 264.783059 110.765398 
L 264.784666 110.743872 
L 265.758709 110.636243 
L 265.859009 110.593191 
L 267.265976 110.485561 
L 267.327732 110.464035 
L 267.940765 110.356406 
L 267.940765 110.345643 
L 269.270639 110.238013 
L 269.270818 110.216487 
L 271.339291 110.108858 
L 271.339291 110.098095 
L 273.234874 109.990465 
L 273.234874 109.979702 
L 274.662835 109.872073 
L 274.662835 109.86131 
L 277.581775 109.75368 
L 277.58228 109.732154 
L 285.697261 109.624525 
L 285.697261 109.613762 
L 358.8 109.57071 
L 358.8 109.57071 
" style="fill:none;stroke:#000080;stroke-linecap:square;stroke-width:1.5;"/>
   </g>
   <g id="line2d_25">
    <defs>
     <path d="M 0 6 
C 1.591219 6 3.117479 5.367802 4.242641 4.242641 
C 5.367802 3.117479 6 1.591219 6 0 
C 6 -1.591219 5.367802 -3.117479 4.242641 -4.242641 
C 3.117479 -5.367802 1.591219 -6 0 -6 
C -1.591219 -6 -3.117479 -5.367802 -4.242641 -4.242641 
C -5.367802 -3.117479 -6 -1.591219 -6 0 
C -6 1.591219 -5.367802 3.117479 -4.242641 4.242641 
C -3.117479 5.367802 -1.591219 6 0 6 
z
" id="m3f3df8be9e" style="stroke:#000080;stroke-width:1.5;"/>
    </defs>
    <g>
     <use style="fill:none;stroke:#000080;stroke-width:1.5;" x="120.340936" xlink:href="#m3f3df8be9e" y="243.601834"/>
     <use style="fill:none;stroke:#000080;stroke-width:1.5;" x="147.215966" xlink:href="#m3f3df8be9e" y="179.293156"/>
     <use style="fill:none;stroke:#000080;stroke-width:1.5;" x="221.152505" xlink:href="#m3f3df8be9e" y="131.957664"/>
     <use style="fill:none;stroke:#000080;stroke-width:1.5;" x="287.247323" xlink:href="#m3f3df8be9e" y="109.57071"/>
     <use style="fill:none;stroke:#000080;stroke-width:1.5;" x="287.247323" xlink:href="#m3f3df8be9e" y="109.57071"/>
     <use style="fill:none;stroke:#000080;stroke-width:1.5;" x="358.8" xlink:href="#m3f3df8be9e" y="109.57071"/>
    </g>
   </g>
   <g id="line2d_26"/>
   <g id="line2d_27">
    <path clip-path="url(#p3c0c0c3000)" d="M 210.370772 143.517081 
" style="fill:none;stroke:#000080;stroke-linecap:square;stroke-width:1.5;"/>
    <defs>
     <path d="M -12 12 
L 12 -12 
M -12 -12 
L 12 12 
" id="mca784e7983" style="stroke:#000080;stroke-width:3;"/>
    </defs>
    <g clip-path="url(#p3c0c0c3000)">
     <use style="fill:#000080;stroke:#000080;stroke-width:3;" x="210.370772" xlink:href="#mca784e7983" y="143.517081"/>
    </g>
   </g>
   <g id="line2d_28">
    <defs>
     <path d="M 0 1.5 
C 0.397805 1.5 0.77937 1.341951 1.06066 1.06066 
C 1.341951 0.77937 1.5 0.397805 1.5 0 
C 1.5 -0.397805 1.341951 -0.77937 1.06066 -1.06066 
C 0.77937 -1.341951 0.397805 -1.5 0 -1.5 
C -0.397805 -1.5 -0.77937 -1.341951 -1.06066 -1.06066 
C -1.341951 -0.77937 -1.5 -0.397805 -1.5 0 
C -1.5 0.397805 -1.341951 0.77937 -1.06066 1.06066 
C -0.77937 1.341951 -0.397805 1.5 0 1.5 
z
" id="me4ade975bf" style="stroke:#ff00ff;"/>
    </defs>
    <g>
     <use style="fill:#ff00ff;stroke:#ff00ff;" x="286.148587" xlink:href="#me4ade975bf" y="34.768147"/>
     <use style="fill:#ff00ff;stroke:#ff00ff;" x="286.148587" xlink:href="#me4ade975bf" y="34.768147"/>
    </g>
   </g>
   <g id="line2d_29">
    <path d="M 51.169868 298.245375 
L 51.169868 294.693599 
L 63.555102 294.693599 
L 63.555102 293.176021 
L 75.940337 293.176021 
L 75.940337 293.02534 
L 83.185234 293.02534 
L 83.185234 292.680925 
L 88.325571 292.680925 
L 88.325571 292.15354 
L 92.312726 292.15354 
L 92.312726 287.138002 
L 95.570468 287.138002 
L 95.570468 281.175323 
L 98.32485 281.175323 
L 98.32485 275.331036 
L 100.710805 275.331036 
L 100.710805 271.951467 
L 102.815366 271.951467 
L 102.815366 267.226528 
L 104.69796 267.226528 
L 104.69796 261.317664 
L 106.400973 261.317664 
L 106.400973 257.432236 
L 107.955702 257.432236 
L 107.955702 253.084001 
L 109.385915 253.084001 
L 109.385915 250.307157 
L 110.710085 250.307157 
L 110.710085 247.336581 
L 111.942857 247.336581 
L 111.942857 244.183034 
L 113.096039 244.183034 
L 113.096039 241.589161 
L 114.179287 241.589161 
L 114.179287 238.123488 
L 115.2006 238.123488 
L 115.2006 236.584385 
L 116.166679 236.584385 
L 116.166679 234.991467 
L 117.083194 234.991467 
L 117.083194 232.289964 
L 117.954982 232.289964 
L 117.954982 229.599225 
L 118.786207 229.599225 
L 118.786207 227.500448 
L 119.580476 227.500448 
L 119.580476 224.659027 
L 120.340936 224.659027 
L 120.340936 223.432049 
L 121.070349 223.432049 
L 121.070349 220.838176 
L 121.771149 220.838176 
L 121.771149 217.75997 
L 122.445497 217.75997 
L 122.445497 213.110372 
L 123.095319 213.110372 
L 123.095319 209.741566 
L 123.722334 209.741566 
L 123.722334 205.640879 
L 124.328091 205.640879 
L 124.328091 203.380657 
L 124.913984 203.380657 
L 124.913984 200.420844 
L 125.481273 200.420844 
L 125.481273 195.555987 
L 126.031105 195.555987 
L 126.031105 189.614833 
L 126.564521 189.614833 
L 126.564521 186.439761 
L 127.082473 186.439761 
L 127.082473 183.426132 
L 127.585834 183.426132 
L 127.585834 178.550512 
L 128.075402 178.550512 
L 128.075402 175.192469 
L 128.551913 175.192469 
L 128.551913 172.609359 
L 129.016046 172.609359 
L 129.016046 169.800226 
L 129.468428 169.800226 
L 129.468428 166.022428 
L 129.909638 166.022428 
L 129.909638 163.95594 
L 130.340216 163.95594 
L 130.340216 161.900215 
L 130.760662 161.900215 
L 130.760662 159.360157 
L 131.171441 159.360157 
L 131.171441 157.229091 
L 131.572989 157.229091 
L 131.572989 155.237943 
L 131.96571 155.237943 
L 131.96571 154.043255 
L 132.349986 154.043255 
L 132.349986 153.548159 
L 132.726171 153.548159 
L 132.726171 151.567775 
L 133.094598 151.567775 
L 133.094598 150.997338 
L 133.455583 150.997338 
L 133.455583 148.500331 
L 133.809418 148.500331 
L 133.809418 147.757687 
L 134.156383 147.757687 
L 134.156383 147.176487 
L 134.496738 147.176487 
L 134.496738 146.283162 
L 134.830731 146.283162 
L 134.830731 144.722533 
L 135.158596 144.722533 
L 135.158596 143.721578 
L 135.480553 143.710815 
L 135.480553 143.280296 
L 135.796811 143.280296 
L 135.796811 141.805771 
L 136.107569 141.795008 
L 136.107569 141.332201 
L 136.413014 141.332201 
L 136.413014 139.825387 
L 136.713325 139.803861 
L 136.713325 139.448683 
L 137.008673 139.427157 
L 137.008673 139.007402 
L 137.154536 139.007402 
L 137.154536 138.56612 
L 137.299218 138.56612 
L 137.299218 138.167891 
L 137.585114 138.081787 
L 137.585114 137.888054 
L 137.726364 137.888054 
L 137.726364 136.897862 
L 137.866507 136.897862 
L 137.866507 136.187507 
L 138.005559 136.187507 
L 138.005559 135.961484 
L 138.143538 135.961484 
L 138.143538 135.649359 
L 138.280459 135.649359 
L 138.280459 135.412574 
L 138.416339 135.412574 
L 138.416339 134.939003 
L 138.551193 134.939003 
L 138.551193 134.099493 
L 138.685037 134.099493 
L 138.685037 133.496767 
L 138.817886 133.496767 
L 138.817886 133.335323 
L 138.949755 133.335323 
L 138.949755 132.775649 
L 139.080657 132.775649 
L 139.080657 131.387227 
L 139.210608 131.387227 
L 139.210608 131.247309 
L 139.33962 131.247309 
L 139.33962 130.902894 
L 139.467708 130.902894 
L 139.467708 130.224828 
L 139.594883 130.224828 
L 139.594883 129.622102 
L 139.846551 129.57905 
L 139.846551 128.99785 
L 139.971068 128.99785 
L 139.971068 128.610384 
L 140.094723 128.610384 
L 140.094723 127.803162 
L 140.217529 127.803162 
L 140.217529 127.394169 
L 140.339496 127.394169 
L 140.339496 126.791444 
L 140.460636 126.791444 
L 140.460636 126.328637 
L 140.580961 126.328637 
L 140.580961 125.629044 
L 141.054316 125.596755 
L 141.054316 124.714193 
L 141.170721 124.714193 
L 141.170721 124.434356 
L 141.286373 124.434356 
L 141.286373 124.3052 
L 141.40128 124.3052 
L 141.40128 124.068415 
L 141.741636 123.982312 
L 141.741636 123.605608 
L 141.96499 123.562556 
L 142.075629 123.142801 
L 142.185587 123.142801 
L 142.185587 122.819912 
L 142.403494 122.819912 
L 142.511458 121.991164 
L 142.618775 121.991164 
L 142.72545 120.904105 
L 142.831493 120.904105 
L 142.93691 120.66732 
L 143.041708 120.66732 
L 143.145896 120.419772 
L 143.249479 120.419772 
L 143.352466 119.192795 
L 143.454862 119.192795 
L 143.556675 118.396336 
L 143.758577 118.342521 
L 143.858679 117.373855 
L 143.958223 117.373855 
L 144.057215 116.6635 
L 144.25357 116.588159 
L 144.350945 116.211455 
L 144.447791 116.211455 
L 144.544115 115.780937 
L 144.830011 115.68407 
L 144.924302 114.812271 
L 145.018098 114.812271 
L 145.018098 114.607775 
L 145.204226 114.607775 
L 145.204226 114.424804 
L 145.388435 114.424804 
L 145.479832 114.005049 
L 145.570765 114.005049 
L 145.661236 113.531479 
L 145.751252 113.531479 
L 145.840817 112.778072 
L 145.929935 112.778072 
L 146.01861 112.62739 
L 146.106848 112.62739 
L 146.106848 112.293738 
L 146.282027 112.293738 
L 146.368977 111.927798 
L 146.797489 111.820168 
L 146.881972 111.68025 
L 146.966058 111.68025 
L 147.049749 111.518805 
L 147.298497 111.464991 
L 147.38065 111.077524 
L 147.462426 111.077524 
L 147.54383 110.507087 
L 147.705534 110.44251 
L 147.78584 109.850547 
L 147.945378 109.818258 
L 148.024616 109.667577 
L 148.103504 109.667577 
L 148.182045 109.355451 
L 148.415618 109.355451 
L 148.492803 109.043325 
L 148.722375 108.967984 
L 148.722375 108.914169 
L 148.8738 108.914169 
L 148.949035 108.720436 
L 149.246843 108.666621 
L 149.320526 108.063896 
L 149.612257 108.020844 
L 149.612257 107.676429 
L 149.899301 107.622614 
L 149.899301 107.385829 
L 150.321403 107.288963 
L 150.390793 107.235148 
L 150.936427 107.181333 
L 151.003475 107.009126 
L 151.724854 106.966074 
L 151.789013 106.643185 
L 151.852942 106.643185 
L 151.916643 106.331059 
L 152.231785 106.309533 
L 152.231785 105.879015 
L 152.356302 105.879015 
L 152.418237 105.631467 
L 152.602763 105.620704 
L 152.66385 105.394682 
L 152.785403 105.394682 
L 152.84587 105.200949 
L 153.20444 105.200949 
L 153.20444 104.942638 
L 154.014137 104.835008 
L 154.014137 104.824245 
L 154.12687 104.824245 
L 154.12687 104.619749 
L 155.269513 104.576697 
L 155.322144 104.103127 
L 155.840096 104.027786 
L 155.941909 103.941683 
L 156.143811 103.898631 
L 156.143811 103.564979 
L 156.638804 103.500401 
L 156.638804 103.209801 
L 157.309536 103.112935 
L 157.356496 102.962253 
L 157.773669 102.886913 
L 157.865067 102.833098 
L 158.091535 102.833098 
L 158.136486 102.650127 
L 158.226051 102.650127 
L 158.315169 102.424105 
L 158.492082 102.359528 
L 158.492082 101.972061 
L 158.883847 101.950535 
L 158.926851 101.799854 
L 160.645477 101.692224 
L 160.645477 101.681461 
L 161.632078 101.584595 
L 161.705761 101.520017 
L 162.069686 101.42315 
L 162.069686 101.380098 
L 162.810622 101.293995 
L 162.914006 101.218654 
L 163.220616 101.13255 
L 163.321661 100.992632 
L 163.948677 100.885002 
L 163.948677 100.874239 
L 164.803471 100.76661 
L 164.865192 100.626691 
L 165.411289 100.540588 
L 165.470948 100.47601 
L 165.999108 100.400669 
L 165.999108 100.303802 
L 166.596189 100.217699 
L 166.596189 100.153121 
L 166.735458 100.131595 
L 166.790863 99.679551 
L 166.87365 99.679551 
L 166.956055 99.475055 
L 167.119734 99.432003 
L 167.146868 99.227507 
L 167.415972 99.152166 
L 167.522488 99.02301 
L 167.890374 98.969196 
L 167.994108 98.710885 
L 168.403124 98.614018 
L 168.503932 98.431048 
L 168.554123 98.431048 
L 168.629147 98.161974 
L 168.926131 98.054344 
L 168.926131 98.032818 
L 169.69477 97.957478 
L 169.718266 97.677641 
L 170.250301 97.656115 
L 170.341233 97.247122 
L 170.566559 97.225596 
L 170.633606 96.83813 
L 171.161117 96.7305 
L 171.269081 96.569056 
L 171.924284 96.472189 
L 172.027747 96.267693 
L 172.273643 96.267693 
L 172.354862 95.890989 
L 173.069682 95.78336 
L 173.069682 95.751071 
L 173.378426 95.686493 
L 173.378426 95.621915 
L 174.127723 95.578864 
L 174.237455 95.363604 
L 175.29924 95.266738 
L 175.29924 95.223686 
L 176.36631 95.137582 
L 176.36631 94.857745 
L 176.813836 94.771642 
L 176.813836 94.739353 
L 176.939668 94.739353 
L 177.017866 94.427227 
L 177.188705 94.351886 
L 177.219592 94.233494 
L 177.495198 94.125864 
L 177.571007 93.899842 
L 177.781576 93.824501 
L 177.841286 93.620005 
L 178.253759 93.512376 
L 178.253759 93.469324 
L 178.614161 93.426272 
L 178.614161 93.103383 
L 178.727971 93.103383 
L 178.727971 92.952702 
L 179.814555 92.845072 
L 179.827894 92.780494 
L 180.366408 92.683628 
L 180.456749 92.532946 
L 180.775717 92.425317 
L 180.876596 92.306924 
L 181.001899 92.306924 
L 181.089091 92.048613 
L 181.17586 91.951747 
L 181.249899 91.865643 
L 181.433666 91.865643 
L 181.530908 91.252154 
L 182.032921 91.241391 
L 182.032921 91.079947 
L 182.336768 90.972317 
L 182.359929 90.843162 
L 182.498263 90.832399 
L 182.567031 90.61714 
L 182.828215 90.61714 
L 182.828215 90.197384 
L 183.825714 90.089755 
L 183.9108 89.92831 
L 184.111271 89.863733 
L 184.205452 89.465503 
L 184.901434 89.400925 
L 184.901434 89.056511 
L 186.586187 88.948881 
L 186.659118 88.636755 
L 186.912058 88.604466 
L 186.983674 88.410733 
L 187.537837 88.303104 
L 187.555151 88.260052 
L 187.897955 88.206237 
L 187.897955 88.055556 
L 188.84034 88.023267 
L 188.936708 87.528171 
L 189.697168 87.517408 
L 189.773757 87.129941 
L 190.001573 87.022312 
L 190.106901 86.957734 
L 191.324664 86.850104 
L 191.324664 86.817815 
L 191.609671 86.731712 
L 191.651 86.39806 
L 191.978239 86.29043 
L 192.072566 86.150512 
L 193.224067 86.075171 
L 193.224067 85.698468 
L 193.904015 85.644653 
L 193.988727 85.375579 
L 194.576567 85.311001 
L 194.6814 84.880483 
L 194.894977 84.783616 
L 194.997963 84.536068 
L 195.219085 84.428438 
L 195.309016 84.223942 
L 195.364994 84.223942 
L 195.465314 83.933342 
L 196.290728 83.847239 
L 196.290728 83.675031 
L 196.901084 83.63198 
L 196.901084 83.212224 
L 198.28231 83.179935 
L 198.358102 82.921624 
L 199.7315 82.813995 
L 199.840599 82.706365 
L 199.91874 82.674076 
L 199.91874 82.426528 
L 200.793622 82.351187 
L 200.851274 82.17898 
L 201.108432 82.071351 
L 201.213492 81.985247 
L 201.357946 81.920669 
L 201.397866 81.791514 
L 201.916616 81.683884 
L 202.024744 81.500914 
L 202.178087 81.425573 
L 202.178087 81.134973 
L 203.811214 81.038107 
L 203.908493 80.952003 
L 203.956935 80.844373 
L 204.067169 80.682929 
L 204.190374 80.586062 
L 204.275436 80.026388 
L 204.397218 79.918759 
L 204.504777 79.520529 
L 204.980936 79.434426 
L 205.052577 79.262218 
L 205.098019 79.262218 
L 205.098019 79.068485 
L 205.741124 79.003907 
L 205.822243 78.756359 
L 205.995722 78.64873 
L 206.057272 78.390419 
L 208.510688 78.325841 
L 208.59085 77.981426 
L 209.796942 77.873797 
L 209.871548 77.6693 
L 210.443025 77.604723 
L 210.553248 71.200762 
L 210.558025 71.179236 
L 210.667544 67.885771 
L 210.696004 67.799667 
L 210.696004 67.778141 
L 210.807038 66.497349 
L 210.900994 66.411246 
L 210.982802 66.228275 
L 211.047981 66.131409 
L 211.119866 65.894624 
L 211.209893 65.883861 
L 211.232905 65.647076 
L 211.324654 65.647076 
L 211.347518 65.51792 
L 211.691494 65.410291 
L 211.7943 65.205794 
L 211.86103 65.108928 
L 211.962869 64.904431 
L 212.079489 64.796802 
L 212.169185 64.344758 
L 212.19971 64.344758 
L 212.201889 64.204839 
L 212.405479 64.09721 
L 212.450647 64.011106 
L 212.854199 63.903476 
L 212.944278 63.311514 
L 213.06299 63.203884 
L 213.172668 62.870232 
L 213.343086 62.762603 
L 213.434806 62.741077 
L 213.528081 62.64421 
L 213.630928 62.256744 
L 213.755166 62.17064 
L 213.8448 61.847751 
L 214.069882 61.826225 
L 214.146238 61.610966 
L 214.220323 61.600203 
L 214.266955 61.331129 
L 214.574769 61.331129 
L 214.685054 60.911374 
L 215.073201 60.803744 
L 215.134308 60.685352 
L 215.255898 60.674589 
L 215.362071 60.416278 
L 215.748443 60.308648 
L 215.842856 60.16873 
L 216.165067 60.125678 
L 216.166811 59.985759 
L 216.355986 59.985759 
L 216.355986 59.705922 
L 216.71659 59.598293 
L 216.819499 59.415323 
L 217.261448 59.318456 
L 217.268011 59.060145 
L 218.30217 58.963278 
L 218.308362 58.920226 
L 218.668417 58.834123 
L 218.765231 58.758782 
L 218.858522 58.672678 
L 218.909475 58.608101 
L 219.16946 58.500471 
L 219.272405 58.414367 
L 219.870828 58.306738 
L 219.97969 57.822405 
L 220.026142 57.714775 
L 220.072475 57.338072 
L 220.602963 57.230442 
L 220.703407 57.133575 
L 220.765561 57.047472 
L 220.775001 56.972131 
L 222.489776 56.864501 
L 222.543584 56.71382 
L 222.807817 56.616953 
L 222.91697 53.151281 
L 222.955196 53.07594 
L 223.046843 52.699236 
L 223.142746 52.591607 
L 223.239312 52.397874 
L 223.555941 52.290244 
L 223.651452 52.096511 
L 223.693866 51.988881 
L 223.786367 51.827437 
L 224.04083 51.773622 
L 224.140493 51.450733 
L 224.242934 51.343104 
L 224.303897 51.289289 
L 224.442777 51.181659 
L 224.509627 50.998689 
L 224.784251 50.891059 
L 224.784251 50.654274 
L 224.98136 50.654274 
L 225.075925 50.352911 
L 225.365 50.30986 
L 225.453413 50.137652 
L 225.998056 50.030023 
L 225.998056 49.890104 
L 226.531472 49.793238 
L 226.536355 49.567215 
L 227.411073 49.459586 
L 227.517693 49.341193 
L 228.122063 49.244327 
L 228.227202 48.953727 
L 228.251172 48.932201 
L 228.285739 48.544734 
L 228.467224 48.447868 
L 228.467224 48.426342 
L 228.701469 48.329475 
L 228.729131 48.178794 
L 229.884688 48.071164 
L 229.887117 48.028112 
L 230.044291 47.952772 
L 230.146714 46.467483 
L 230.285012 46.402906 
L 230.395514 46.252224 
L 230.602826 46.144595 
L 230.693596 45.940098 
L 230.867635 45.907809 
L 230.976126 45.69255 
L 231.14292 45.595684 
L 231.252008 45.445002 
L 231.378317 45.380425 
L 231.394694 45.262032 
L 231.515568 45.186691 
L 231.590057 45.111351 
L 231.78185 45.089825 
L 231.892907 44.939143 
L 232.226257 44.896091 
L 232.226257 44.777699 
L 232.604336 44.756173 
L 232.607117 44.56244 
L 233.769204 44.45481 
L 233.880261 44.196499 
L 234.208715 44.088869 
L 234.215705 44.035055 
L 235.17379 43.948951 
L 235.251309 43.313936 
L 235.593984 43.238596 
L 235.6574 43.023337 
L 235.795198 43.023337 
L 235.904214 42.765026 
L 236.004523 42.732737 
L 236.114558 42.560529 
L 236.184126 42.549766 
L 236.288539 42.388322 
L 236.493314 42.323744 
L 236.599277 42.226878 
L 237.128506 42.173063 
L 237.134983 41.936278 
L 237.721536 41.828648 
L 237.779407 41.807122 
L 238.077758 41.699493 
L 238.14775 41.5811 
L 239.076192 41.473471 
L 239.186221 41.075241 
L 239.491976 40.967611 
L 239.530715 40.870745 
L 239.806068 40.763115 
L 239.822325 40.677012 
L 240.131626 40.569382 
L 240.232187 40.504804 
L 240.735497 40.429464 
L 240.738144 40.224967 
L 241.532681 40.138864 
L 241.583237 40.05276 
L 242.419089 39.955893 
L 242.528757 39.805212 
L 242.838881 39.697582 
L 242.944061 39.633005 
L 243.088114 39.546901 
L 243.159515 39.493086 
L 243.735228 39.385457 
L 243.738211 39.148671 
L 244.41151 39.094857 
L 244.455269 38.965701 
L 245.20453 38.858072 
L 245.31378 38.81502 
L 245.529959 38.70739 
L 245.638919 38.610524 
L 246.12836 38.513657 
L 246.12836 38.459842 
L 246.303654 38.352213 
L 246.304623 38.287635 
L 247.548784 38.180005 
L 247.632346 38.158479 
L 248.547721 38.093901 
L 248.54943 37.900168 
L 249.655955 37.792539 
L 249.659436 37.771013 
L 250.54165 37.663383 
L 250.544962 37.491176 
L 252.210809 37.383546 
L 252.210809 37.36202 
L 252.338238 37.254391 
L 252.338238 37.243628 
L 253.851555 37.146761 
L 253.851555 37.125235 
L 253.966157 37.017606 
L 253.967209 36.899213 
L 256.215131 36.791584 
L 256.215131 36.780821 
L 257.537472 36.673191 
L 257.541262 36.651665 
L 258.118118 36.554798 
L 258.118285 36.52251 
L 259.311849 36.41488 
L 259.313876 36.318013 
L 260.430945 36.221147 
L 260.431531 36.188858 
L 262.478683 36.081228 
L 262.479729 36.048939 
L 264.314746 35.94131 
L 264.315453 35.876732 
L 265.980564 35.769102 
L 265.981101 35.715288 
L 268.219968 35.607658 
L 268.221958 35.532317 
L 270.210303 35.424688 
L 270.210303 35.413925 
L 272.559265 35.306295 
L 272.559265 35.295532 
L 273.626698 35.187903 
L 273.626768 35.155614 
L 276.046626 35.047984 
L 276.047421 35.026458 
L 278.178109 34.918829 
L 278.17876 34.897303 
L 285.089495 34.789673 
L 285.089495 34.77891 
L 358.8 34.768147 
L 358.8 34.768147 
" style="fill:none;stroke:#ff00ff;stroke-linecap:square;stroke-width:1.5;"/>
   </g>
   <g id="line2d_30">
    <defs>
     <path d="M -0 8.485281 
L 5.091169 0 
L 0 -8.485281 
L -5.091169 -0 
z
" id="m42d663d841" style="stroke:#ff00ff;stroke-linejoin:miter;stroke-width:1.5;"/>
    </defs>
    <g>
     <use style="fill:none;stroke:#ff00ff;stroke-linejoin:miter;stroke-width:1.5;" x="116.166679" xlink:href="#m42d663d841" y="234.991467"/>
     <use style="fill:none;stroke:#ff00ff;stroke-linejoin:miter;stroke-width:1.5;" x="147.705534" xlink:href="#m42d663d841" y="110.15191"/>
     <use style="fill:none;stroke:#ff00ff;stroke-linejoin:miter;stroke-width:1.5;" x="206.057272" xlink:href="#m42d663d841" y="78.476522"/>
     <use style="fill:none;stroke:#ff00ff;stroke-linejoin:miter;stroke-width:1.5;" x="286.148587" xlink:href="#m42d663d841" y="34.77891"/>
     <use style="fill:none;stroke:#ff00ff;stroke-linejoin:miter;stroke-width:1.5;" x="286.148587" xlink:href="#m42d663d841" y="34.768147"/>
     <use style="fill:none;stroke:#ff00ff;stroke-linejoin:miter;stroke-width:1.5;" x="358.8" xlink:href="#m42d663d841" y="34.768147"/>
    </g>
   </g>
   <g id="line2d_31"/>
   <g id="line2d_32">
    <path clip-path="url(#p3c0c0c3000)" d="M 210.370772 77.658537 
" style="fill:none;stroke:#ff00ff;stroke-linecap:square;stroke-width:1.5;"/>
    <defs>
     <path d="M -12 12 
L 12 -12 
M -12 -12 
L 12 12 
" id="mb88966bf11" style="stroke:#ff00ff;stroke-width:3;"/>
    </defs>
    <g clip-path="url(#p3c0c0c3000)">
     <use style="fill:#ff00ff;stroke:#ff00ff;stroke-width:3;" x="210.370772" xlink:href="#mb88966bf11" y="77.658537"/>
    </g>
   </g>
   <g id="line2d_33">
    <path d="M 358.8 109.57071 
L 390.48 292.97583 
" style="fill:none;stroke:#000080;stroke-linecap:square;stroke-width:1.5;"/>
    <g>
     <use style="fill:none;stroke:#000080;stroke-width:1.5;" x="358.8" xlink:href="#m3f3df8be9e" y="109.57071"/>
     <use style="fill:none;stroke:#000080;stroke-width:1.5;" x="390.48" xlink:href="#m3f3df8be9e" y="292.97583"/>
    </g>
   </g>
   <g id="line2d_34">
    <path d="M 358.8 34.768147 
L 390.48 40.037692 
" style="fill:none;stroke:#ff00ff;stroke-linecap:square;stroke-width:1.5;"/>
    <g>
     <use style="fill:none;stroke:#ff00ff;stroke-linejoin:miter;stroke-width:1.5;" x="358.8" xlink:href="#m42d663d841" y="34.768147"/>
     <use style="fill:none;stroke:#ff00ff;stroke-linejoin:miter;stroke-width:1.5;" x="390.48" xlink:href="#m42d663d841" y="40.037692"/>
    </g>
   </g>
   <g id="line2d_35">
    <path d="M 358.8 298.245375 
L 358.8 34.768147 
" style="fill:none;stroke:#000000;stroke-linecap:square;stroke-width:1.5;"/>
   </g>
   <g id="patch_3">
    <path d="M 70.8 298.245375 
L 70.8 32.133375 
" style="fill:none;stroke:#000000;stroke-linecap:square;stroke-linejoin:miter;stroke-width:0.8;"/>
   </g>
   <g id="patch_4">
    <path d="M 427.92 298.245375 
L 427.92 32.133375 
" style="fill:none;stroke:#000000;stroke-linecap:square;stroke-linejoin:miter;stroke-width:0.8;"/>
   </g>
   <g id="patch_5">
    <path d="M 70.8 298.245375 
L 427.92 298.245375 
" style="fill:none;stroke:#000000;stroke-linecap:square;stroke-linejoin:miter;stroke-width:0.8;"/>
   </g>
   <g id="patch_6">
    <path d="M 70.8 32.133375 
L 427.92 32.133375 
" style="fill:none;stroke:#000000;stroke-linecap:square;stroke-linejoin:miter;stroke-width:0.8;"/>
   </g>
   <g id="text_14">
    <!-- cobyla 0.0 -->
    <defs>
     <path d="M 48.6875 27.296875 
Q 48.6875 37.203125 44.609375 42.84375 
Q 40.53125 48.484375 33.40625 48.484375 
Q 26.265625 48.484375 22.1875 42.84375 
Q 18.109375 37.203125 18.109375 27.296875 
Q 18.109375 17.390625 22.1875 11.75 
Q 26.265625 6.109375 33.40625 6.109375 
Q 40.53125 6.109375 44.609375 11.75 
Q 48.6875 17.390625 48.6875 27.296875 
z
M 18.109375 46.390625 
Q 20.953125 51.265625 25.265625 53.625 
Q 29.59375 56 35.59375 56 
Q 45.5625 56 51.78125 48.09375 
Q 58.015625 40.1875 58.015625 27.296875 
Q 58.015625 14.40625 51.78125 6.484375 
Q 45.5625 -1.421875 35.59375 -1.421875 
Q 29.59375 -1.421875 25.265625 0.953125 
Q 20.953125 3.328125 18.109375 8.203125 
L 18.109375 0 
L 9.078125 0 
L 9.078125 75.984375 
L 18.109375 75.984375 
z
" id="DejaVuSans-62"/>
     <path d="M 32.171875 -5.078125 
Q 28.375 -14.84375 24.75 -17.8125 
Q 21.140625 -20.796875 15.09375 -20.796875 
L 7.90625 -20.796875 
L 7.90625 -13.28125 
L 13.1875 -13.28125 
Q 16.890625 -13.28125 18.9375 -11.515625 
Q 21 -9.765625 23.484375 -3.21875 
L 25.09375 0.875 
L 2.984375 54.6875 
L 12.5 54.6875 
L 29.59375 11.921875 
L 46.6875 54.6875 
L 56.203125 54.6875 
z
" id="DejaVuSans-79"/>
    </defs>
    <g transform="translate(396.24 297.114893)scale(0.15 -0.15)">
     <use xlink:href="#DejaVuSans-63"/>
     <use x="54.980469" xlink:href="#DejaVuSans-6f"/>
     <use x="116.162109" xlink:href="#DejaVuSans-62"/>
     <use x="179.638672" xlink:href="#DejaVuSans-79"/>
     <use x="238.818359" xlink:href="#DejaVuSans-6c"/>
     <use x="266.601562" xlink:href="#DejaVuSans-61"/>
     <use x="327.880859" xlink:href="#DejaVuSans-20"/>
     <use x="359.667969" xlink:href="#DejaVuSans-30"/>
     <use x="423.291016" xlink:href="#DejaVuSans-2e"/>
     <use x="455.078125" xlink:href="#DejaVuSans-30"/>
    </g>
   </g>
   <g id="text_15">
    <!-- cobyla 1e- -->
    <g transform="translate(396.24 44.176754)scale(0.15 -0.15)">
     <use xlink:href="#DejaVuSans-63"/>
     <use x="54.980469" xlink:href="#DejaVuSans-6f"/>
     <use x="116.162109" xlink:href="#DejaVuSans-62"/>
     <use x="179.638672" xlink:href="#DejaVuSans-79"/>
     <use x="238.818359" xlink:href="#DejaVuSans-6c"/>
     <use x="266.601562" xlink:href="#DejaVuSans-61"/>
     <use x="327.880859" xlink:href="#DejaVuSans-20"/>
     <use x="359.667969" xlink:href="#DejaVuSans-31"/>
     <use x="423.291016" xlink:href="#DejaVuSans-65"/>
     <use x="484.814453" xlink:href="#DejaVuSans-2d"/>
    </g>
   </g>
   <g id="text_16">
    <!-- bbob-constrained - f1-f48, 3-D -->
    <defs>
     <path d="M 11.71875 12.40625 
L 22.015625 12.40625 
L 22.015625 4 
L 14.015625 -11.625 
L 7.71875 -11.625 
L 11.71875 4 
z
" id="DejaVuSans-2c"/>
     <path d="M 40.578125 39.3125 
Q 47.65625 37.796875 51.625 33 
Q 55.609375 28.21875 55.609375 21.1875 
Q 55.609375 10.40625 48.1875 4.484375 
Q 40.765625 -1.421875 27.09375 -1.421875 
Q 22.515625 -1.421875 17.65625 -0.515625 
Q 12.796875 0.390625 7.625 2.203125 
L 7.625 11.71875 
Q 11.71875 9.328125 16.59375 8.109375 
Q 21.484375 6.890625 26.8125 6.890625 
Q 36.078125 6.890625 40.9375 10.546875 
Q 45.796875 14.203125 45.796875 21.1875 
Q 45.796875 27.640625 41.28125 31.265625 
Q 36.765625 34.90625 28.71875 34.90625 
L 20.21875 34.90625 
L 20.21875 43.015625 
L 29.109375 43.015625 
Q 36.375 43.015625 40.234375 45.921875 
Q 44.09375 48.828125 44.09375 54.296875 
Q 44.09375 59.90625 40.109375 62.90625 
Q 36.140625 65.921875 28.71875 65.921875 
Q 24.65625 65.921875 20.015625 65.03125 
Q 15.375 64.15625 9.8125 62.3125 
L 9.8125 71.09375 
Q 15.4375 72.65625 20.34375 73.4375 
Q 25.25 74.21875 29.59375 74.21875 
Q 40.828125 74.21875 47.359375 69.109375 
Q 53.90625 64.015625 53.90625 55.328125 
Q 53.90625 49.265625 50.4375 45.09375 
Q 46.96875 40.921875 40.578125 39.3125 
z
" id="DejaVuSans-33"/>
     <path d="M 19.671875 64.796875 
L 19.671875 8.109375 
L 31.59375 8.109375 
Q 46.6875 8.109375 53.6875 14.9375 
Q 60.6875 21.78125 60.6875 36.53125 
Q 60.6875 51.171875 53.6875 57.984375 
Q 46.6875 64.796875 31.59375 64.796875 
z
M 9.8125 72.90625 
L 30.078125 72.90625 
Q 51.265625 72.90625 61.171875 64.09375 
Q 71.09375 55.28125 71.09375 36.53125 
Q 71.09375 17.671875 61.125 8.828125 
Q 51.171875 0 30.078125 0 
L 9.8125 0 
z
" id="DejaVuSans-44"/>
    </defs>
    <g transform="translate(74.3712 50.114612)scale(0.1666 -0.1666)">
     <use xlink:href="#DejaVuSans-62"/>
     <use x="63.476562" xlink:href="#DejaVuSans-62"/>
     <use x="126.953125" xlink:href="#DejaVuSans-6f"/>
     <use x="188.134766" xlink:href="#DejaVuSans-62"/>
     <use x="251.611328" xlink:href="#DejaVuSans-2d"/>
     <use x="287.695312" xlink:href="#DejaVuSans-63"/>
     <use x="342.675781" xlink:href="#DejaVuSans-6f"/>
     <use x="403.857422" xlink:href="#DejaVuSans-6e"/>
     <use x="467.236328" xlink:href="#DejaVuSans-73"/>
     <use x="519.335938" xlink:href="#DejaVuSans-74"/>
     <use x="558.544922" xlink:href="#DejaVuSans-72"/>
     <use x="599.658203" xlink:href="#DejaVuSans-61"/>
     <use x="660.9375" xlink:href="#DejaVuSans-69"/>
     <use x="688.720703" xlink:href="#DejaVuSans-6e"/>
     <use x="752.099609" xlink:href="#DejaVuSans-65"/>
     <use x="813.623047" xlink:href="#DejaVuSans-64"/>
     <use x="877.099609" xlink:href="#DejaVuSans-20"/>
     <use x="908.886719" xlink:href="#DejaVuSans-2d"/>
     <use x="944.970703" xlink:href="#DejaVuSans-20"/>
     <use x="976.757812" xlink:href="#DejaVuSans-66"/>
     <use x="1011.962891" xlink:href="#DejaVuSans-31"/>
     <use x="1075.585938" xlink:href="#DejaVuSans-2d"/>
     <use x="1111.669922" xlink:href="#DejaVuSans-66"/>
     <use x="1146.875" xlink:href="#DejaVuSans-34"/>
     <use x="1210.498047" xlink:href="#DejaVuSans-38"/>
     <use x="1274.121094" xlink:href="#DejaVuSans-2c"/>
     <use x="1305.908203" xlink:href="#DejaVuSans-20"/>
     <use x="1337.695312" xlink:href="#DejaVuSans-33"/>
     <use x="1401.318359" xlink:href="#DejaVuSans-2d"/>
     <use x="1437.402344" xlink:href="#DejaVuSans-44"/>
    </g>
    <!-- 51 targets in 100..1e-08 -->
    <defs>
     <path d="M 10.796875 72.90625 
L 49.515625 72.90625 
L 49.515625 64.59375 
L 19.828125 64.59375 
L 19.828125 46.734375 
Q 21.96875 47.46875 24.109375 47.828125 
Q 26.265625 48.1875 28.421875 48.1875 
Q 40.625 48.1875 47.75 41.5 
Q 54.890625 34.8125 54.890625 23.390625 
Q 54.890625 11.625 47.5625 5.09375 
Q 40.234375 -1.421875 26.90625 -1.421875 
Q 22.3125 -1.421875 17.546875 -0.640625 
Q 12.796875 0.140625 7.71875 1.703125 
L 7.71875 11.625 
Q 12.109375 9.234375 16.796875 8.0625 
Q 21.484375 6.890625 26.703125 6.890625 
Q 35.15625 6.890625 40.078125 11.328125 
Q 45.015625 15.765625 45.015625 23.390625 
Q 45.015625 31 40.078125 35.4375 
Q 35.15625 39.890625 26.703125 39.890625 
Q 22.75 39.890625 18.8125 39.015625 
Q 14.890625 38.140625 10.796875 36.28125 
z
" id="DejaVuSans-35"/>
    </defs>
    <g transform="translate(74.3712 68.770168)scale(0.1666 -0.1666)">
     <use xlink:href="#DejaVuSans-35"/>
     <use x="63.623047" xlink:href="#DejaVuSans-31"/>
     <use x="127.246094" xlink:href="#DejaVuSans-20"/>
     <use x="159.033203" xlink:href="#DejaVuSans-74"/>
     <use x="198.242188" xlink:href="#DejaVuSans-61"/>
     <use x="259.521484" xlink:href="#DejaVuSans-72"/>
     <use x="300.619141" xlink:href="#DejaVuSans-67"/>
     <use x="364.095703" xlink:href="#DejaVuSans-65"/>
     <use x="425.619141" xlink:href="#DejaVuSans-74"/>
     <use x="464.828125" xlink:href="#DejaVuSans-73"/>
     <use x="516.927734" xlink:href="#DejaVuSans-20"/>
     <use x="548.714844" xlink:href="#DejaVuSans-69"/>
     <use x="576.498047" xlink:href="#DejaVuSans-6e"/>
     <use x="639.876953" xlink:href="#DejaVuSans-20"/>
     <use x="671.664062" xlink:href="#DejaVuSans-31"/>
     <use x="735.287109" xlink:href="#DejaVuSans-30"/>
     <use x="798.910156" xlink:href="#DejaVuSans-30"/>
     <use x="862.533203" xlink:href="#DejaVuSans-2e"/>
     <use x="894.320312" xlink:href="#DejaVuSans-2e"/>
     <use x="926.107422" xlink:href="#DejaVuSans-31"/>
     <use x="989.730469" xlink:href="#DejaVuSans-65"/>
     <use x="1051.253906" xlink:href="#DejaVuSans-2d"/>
     <use x="1087.337891" xlink:href="#DejaVuSans-30"/>
     <use x="1150.960938" xlink:href="#DejaVuSans-38"/>
    </g>
    <!-- 15 instances -->
    <g transform="translate(74.3712 87.425723)scale(0.1666 -0.1666)">
     <use xlink:href="#DejaVuSans-31"/>
     <use x="63.623047" xlink:href="#DejaVuSans-35"/>
     <use x="127.246094" xlink:href="#DejaVuSans-20"/>
     <use x="159.033203" xlink:href="#DejaVuSans-69"/>
     <use x="186.816406" xlink:href="#DejaVuSans-6e"/>
     <use x="250.195312" xlink:href="#DejaVuSans-73"/>
     <use x="302.294922" xlink:href="#DejaVuSans-74"/>
     <use x="341.503906" xlink:href="#DejaVuSans-61"/>
     <use x="402.783203" xlink:href="#DejaVuSans-6e"/>
     <use x="466.162109" xlink:href="#DejaVuSans-63"/>
     <use x="521.142578" xlink:href="#DejaVuSans-65"/>
     <use x="582.666016" xlink:href="#DejaVuSans-73"/>
    </g>
   </g>
   <g id="text_17">
    <!-- v2.0.361 -->
    <g style="fill:#808080;" transform="translate(227.31625 293.504568)scale(0.1 -0.1)">
     <use xlink:href="#DejaVuSans-76"/>
     <use x="59.179688" xlink:href="#DejaVuSans-32"/>
     <use x="122.802734" xlink:href="#DejaVuSans-2e"/>
     <use x="154.589844" xlink:href="#DejaVuSans-30"/>
     <use x="218.212891" xlink:href="#DejaVuSans-2e"/>
     <use x="250" xlink:href="#DejaVuSans-33"/>
     <use x="313.623047" xlink:href="#DejaVuSans-36"/>
     <use x="377.246094" xlink:href="#DejaVuSans-31"/>
    </g>
   </g>
  </g>
 </g>
 <defs>
  <clipPath id="p3c0c0c3000">
   <rect height="266.112" width="357.12" x="70.8" y="32.133375"/>
  </clipPath>
 </defs>
</svg>
