<?xml version="1.0" encoding="utf-8" standalone="no"?>
<!DOCTYPE svg PUBLIC "-//W3C//DTD SVG 1.1//EN"
  "http://www.w3.org/Graphics/SVG/1.1/DTD/svg11.dtd">
<!-- Created with matplotlib (http://matplotlib.org/) -->
<svg height="469pt" version="1.1" viewBox="0 0 329 469" width="329pt" xmlns="http://www.w3.org/2000/svg" xmlns:xlink="http://www.w3.org/1999/xlink">
 <defs>
  <style type="text/css">
*{stroke-linecap:butt;stroke-linejoin:round;}
  </style>
 </defs>
 <g id="figure_1">
  <g id="patch_1">
   <path d="M -0 469.390938 
L 329.528875 469.390938 
L 329.528875 0 
L -0 0 
z
" style="fill:#ffffff;"/>
  </g>
  <g id="axes_1">
   <g id="patch_2">
    <path d="M 52.216875 367.751469 
L 318.328875 367.751469 
L 318.328875 101.639469 
L 52.216875 101.639469 
z
" style="fill:#ffffff;"/>
   </g>
   <g id="line2d_1">
    <path clip-path="url(#p36dd12a7d9)" d="M 170.140744 285.373113 
L 170.140744 229.50959 
" style="fill:none;stroke:#00bfbf;stroke-linecap:square;stroke-width:1.5;"/>
   </g>
   <g id="line2d_2">
    <path clip-path="url(#p36dd12a7d9)" d="M 114.27722 229.50959 
L 170.140744 229.50959 
" style="fill:none;stroke:#00bfbf;stroke-linecap:square;stroke-width:1.5;"/>
   </g>
   <g id="line2d_3">
    <path clip-path="url(#p36dd12a7d9)" d="M 207.413781 268.424924 
L 207.413781 212.5614 
" style="fill:none;stroke:#008000;stroke-linecap:square;stroke-width:1.5;"/>
   </g>
   <g id="line2d_4">
    <path clip-path="url(#p36dd12a7d9)" d="M 151.550257 212.5614 
L 207.413781 212.5614 
" style="fill:none;stroke:#008000;stroke-linecap:square;stroke-width:1.5;"/>
   </g>
   <g id="line2d_5">
    <path clip-path="url(#p36dd12a7d9)" d="M 220.350671 255.485307 
L 220.350671 199.621784 
" style="fill:none;stroke:#0000ff;stroke-linecap:square;stroke-width:1.5;"/>
   </g>
   <g id="line2d_6">
    <path clip-path="url(#p36dd12a7d9)" d="M 164.487147 199.621784 
L 220.350671 199.621784 
" style="fill:none;stroke:#0000ff;stroke-linecap:square;stroke-width:1.5;"/>
   </g>
   <g id="line2d_7">
    <path clip-path="url(#p36dd12a7d9)" d="M 237.936633 237.894205 
L 237.936633 182.030682 
" style="fill:none;stroke:#000000;stroke-linecap:square;stroke-width:1.5;"/>
   </g>
   <g id="line2d_8">
    <path clip-path="url(#p36dd12a7d9)" d="M 182.07311 182.030682 
L 237.936633 182.030682 
" style="fill:none;stroke:#000000;stroke-linecap:square;stroke-width:1.5;"/>
   </g>
   <g id="line2d_9">
    <path clip-path="url(#p36dd12a7d9)" d="M 255.542628 220.289754 
L 255.542628 164.42623 
" style="fill:none;stroke:#ff0000;stroke-linecap:square;stroke-width:1.5;"/>
   </g>
   <g id="line2d_10">
    <path clip-path="url(#p36dd12a7d9)" d="M 199.679105 164.42623 
L 255.542628 164.42623 
" style="fill:none;stroke:#ff0000;stroke-linecap:square;stroke-width:1.5;"/>
   </g>
   <g id="matplotlib.axis_1">
    <g id="xtick_1">
     <g id="line2d_11">
      <path clip-path="url(#p36dd12a7d9)" d="M 97.854487 367.751469 
L 97.854487 101.639469 
" style="fill:none;stroke:#b0b0b0;stroke-linecap:square;stroke-width:0.8;"/>
     </g>
     <g id="line2d_12">
      <defs>
       <path d="M 0 0 
L 0 3.5 
" id="m27334fad87" style="stroke:#000000;stroke-width:0.8;"/>
      </defs>
      <g>
       <use style="stroke:#000000;stroke-width:0.8;" x="97.854487" xlink:href="#m27334fad87" y="367.751469"/>
      </g>
     </g>
     <g id="text_1">
      <!-- 2 -->
      <defs>
       <path d="M 19.1875 8.296875 
L 53.609375 8.296875 
L 53.609375 0 
L 7.328125 0 
L 7.328125 8.296875 
Q 12.9375 14.109375 22.625 23.890625 
Q 32.328125 33.6875 34.8125 36.53125 
Q 39.546875 41.84375 41.421875 45.53125 
Q 43.3125 49.21875 43.3125 52.78125 
Q 43.3125 58.59375 39.234375 62.25 
Q 35.15625 65.921875 28.609375 65.921875 
Q 23.96875 65.921875 18.8125 64.3125 
Q 13.671875 62.703125 7.8125 59.421875 
L 7.8125 69.390625 
Q 13.765625 71.78125 18.9375 73 
Q 24.125 74.21875 28.421875 74.21875 
Q 39.75 74.21875 46.484375 68.546875 
Q 53.21875 62.890625 53.21875 53.421875 
Q 53.21875 48.921875 51.53125 44.890625 
Q 49.859375 40.875 45.40625 35.40625 
Q 44.1875 33.984375 37.640625 27.21875 
Q 31.109375 20.453125 19.1875 8.296875 
z
" id="DejaVuSans-32"/>
      </defs>
      <g transform="translate(91.491987 389.948344)scale(0.2 -0.2)">
       <use xlink:href="#DejaVuSans-32"/>
      </g>
     </g>
    </g>
    <g id="xtick_2">
     <g id="line2d_13">
      <path clip-path="url(#p36dd12a7d9)" d="M 156.396757 367.751469 
L 156.396757 101.639469 
" style="fill:none;stroke:#b0b0b0;stroke-linecap:square;stroke-width:0.8;"/>
     </g>
     <g id="line2d_14">
      <g>
       <use style="stroke:#000000;stroke-width:0.8;" x="156.396757" xlink:href="#m27334fad87" y="367.751469"/>
      </g>
     </g>
     <g id="text_2">
      <!-- 3 -->
      <defs>
       <path d="M 40.578125 39.3125 
Q 47.65625 37.796875 51.625 33 
Q 55.609375 28.21875 55.609375 21.1875 
Q 55.609375 10.40625 48.1875 4.484375 
Q 40.765625 -1.421875 27.09375 -1.421875 
Q 22.515625 -1.421875 17.65625 -0.515625 
Q 12.796875 0.390625 7.625 2.203125 
L 7.625 11.71875 
Q 11.71875 9.328125 16.59375 8.109375 
Q 21.484375 6.890625 26.8125 6.890625 
Q 36.078125 6.890625 40.9375 10.546875 
Q 45.796875 14.203125 45.796875 21.1875 
Q 45.796875 27.640625 41.28125 31.265625 
Q 36.765625 34.90625 28.71875 34.90625 
L 20.21875 34.90625 
L 20.21875 43.015625 
L 29.109375 43.015625 
Q 36.375 43.015625 40.234375 45.921875 
Q 44.09375 48.828125 44.09375 54.296875 
Q 44.09375 59.90625 40.109375 62.90625 
Q 36.140625 65.921875 28.71875 65.921875 
Q 24.65625 65.921875 20.015625 65.03125 
Q 15.375 64.15625 9.8125 62.3125 
L 9.8125 71.09375 
Q 15.4375 72.65625 20.34375 73.4375 
Q 25.25 74.21875 29.59375 74.21875 
Q 40.828125 74.21875 47.359375 69.109375 
Q 53.90625 64.015625 53.90625 55.328125 
Q 53.90625 49.265625 50.4375 45.09375 
Q 46.96875 40.921875 40.578125 39.3125 
z
" id="DejaVuSans-33"/>
      </defs>
      <g transform="translate(150.034257 389.948344)scale(0.2 -0.2)">
       <use xlink:href="#DejaVuSans-33"/>
      </g>
     </g>
    </g>
    <g id="xtick_3">
     <g id="line2d_15">
      <path clip-path="url(#p36dd12a7d9)" d="M 214.939028 367.751469 
L 214.939028 101.639469 
" style="fill:none;stroke:#b0b0b0;stroke-linecap:square;stroke-width:0.8;"/>
     </g>
     <g id="line2d_16">
      <g>
       <use style="stroke:#000000;stroke-width:0.8;" x="214.939028" xlink:href="#m27334fad87" y="367.751469"/>
      </g>
     </g>
     <g id="text_3">
      <!-- 4 -->
      <defs>
       <path d="M 37.796875 64.3125 
L 12.890625 25.390625 
L 37.796875 25.390625 
z
M 35.203125 72.90625 
L 47.609375 72.90625 
L 47.609375 25.390625 
L 58.015625 25.390625 
L 58.015625 17.1875 
L 47.609375 17.1875 
L 47.609375 0 
L 37.796875 0 
L 37.796875 17.1875 
L 4.890625 17.1875 
L 4.890625 26.703125 
z
" id="DejaVuSans-34"/>
      </defs>
      <g transform="translate(208.576528 389.948344)scale(0.2 -0.2)">
       <use xlink:href="#DejaVuSans-34"/>
      </g>
     </g>
    </g>
    <g id="xtick_4">
     <g id="line2d_17">
      <path clip-path="url(#p36dd12a7d9)" d="M 273.481299 367.751469 
L 273.481299 101.639469 
" style="fill:none;stroke:#b0b0b0;stroke-linecap:square;stroke-width:0.8;"/>
     </g>
     <g id="line2d_18">
      <g>
       <use style="stroke:#000000;stroke-width:0.8;" x="273.481299" xlink:href="#m27334fad87" y="367.751469"/>
      </g>
     </g>
     <g id="text_4">
      <!-- 5 -->
      <defs>
       <path d="M 10.796875 72.90625 
L 49.515625 72.90625 
L 49.515625 64.59375 
L 19.828125 64.59375 
L 19.828125 46.734375 
Q 21.96875 47.46875 24.109375 47.828125 
Q 26.265625 48.1875 28.421875 48.1875 
Q 40.625 48.1875 47.75 41.5 
Q 54.890625 34.8125 54.890625 23.390625 
Q 54.890625 11.625 47.5625 5.09375 
Q 40.234375 -1.421875 26.90625 -1.421875 
Q 22.3125 -1.421875 17.546875 -0.640625 
Q 12.796875 0.140625 7.71875 1.703125 
L 7.71875 11.625 
Q 12.109375 9.234375 16.796875 8.0625 
Q 21.484375 6.890625 26.703125 6.890625 
Q 35.15625 6.890625 40.078125 11.328125 
Q 45.015625 15.765625 45.015625 23.390625 
Q 45.015625 31 40.078125 35.4375 
Q 35.15625 39.890625 26.703125 39.890625 
Q 22.75 39.890625 18.8125 39.015625 
Q 14.890625 38.140625 10.796875 36.28125 
z
" id="DejaVuSans-35"/>
      </defs>
      <g transform="translate(267.118799 389.948344)scale(0.2 -0.2)">
       <use xlink:href="#DejaVuSans-35"/>
      </g>
     </g>
    </g>
    <g id="xtick_5">
     <g id="line2d_19">
      <defs>
       <path d="M 0 0 
L 0 2 
" id="m483ade7887" style="stroke:#000000;stroke-width:0.6;"/>
      </defs>
      <g>
       <use style="stroke:#000000;stroke-width:0.6;" x="56.935196" xlink:href="#m483ade7887" y="367.751469"/>
      </g>
     </g>
    </g>
    <g id="xtick_6">
     <g id="line2d_20">
      <g>
       <use style="stroke:#000000;stroke-width:0.6;" x="67.243978" xlink:href="#m483ade7887" y="367.751469"/>
      </g>
     </g>
    </g>
    <g id="xtick_7">
     <g id="line2d_21">
      <g>
       <use style="stroke:#000000;stroke-width:0.6;" x="74.558175" xlink:href="#m483ade7887" y="367.751469"/>
      </g>
     </g>
    </g>
    <g id="xtick_8">
     <g id="line2d_22">
      <g>
       <use style="stroke:#000000;stroke-width:0.6;" x="80.231507" xlink:href="#m483ade7887" y="367.751469"/>
      </g>
     </g>
    </g>
    <g id="xtick_9">
     <g id="line2d_23">
      <g>
       <use style="stroke:#000000;stroke-width:0.6;" x="84.866957" xlink:href="#m483ade7887" y="367.751469"/>
      </g>
     </g>
    </g>
    <g id="xtick_10">
     <g id="line2d_24">
      <g>
       <use style="stroke:#000000;stroke-width:0.6;" x="88.786174" xlink:href="#m483ade7887" y="367.751469"/>
      </g>
     </g>
    </g>
    <g id="xtick_11">
     <g id="line2d_25">
      <g>
       <use style="stroke:#000000;stroke-width:0.6;" x="92.181155" xlink:href="#m483ade7887" y="367.751469"/>
      </g>
     </g>
    </g>
    <g id="xtick_12">
     <g id="line2d_26">
      <g>
       <use style="stroke:#000000;stroke-width:0.6;" x="95.175739" xlink:href="#m483ade7887" y="367.751469"/>
      </g>
     </g>
    </g>
    <g id="xtick_13">
     <g id="line2d_27">
      <g>
       <use style="stroke:#000000;stroke-width:0.6;" x="115.477466" xlink:href="#m483ade7887" y="367.751469"/>
      </g>
     </g>
    </g>
    <g id="xtick_14">
     <g id="line2d_28">
      <g>
       <use style="stroke:#000000;stroke-width:0.6;" x="125.786248" xlink:href="#m483ade7887" y="367.751469"/>
      </g>
     </g>
    </g>
    <g id="xtick_15">
     <g id="line2d_29">
      <g>
       <use style="stroke:#000000;stroke-width:0.6;" x="133.100446" xlink:href="#m483ade7887" y="367.751469"/>
      </g>
     </g>
    </g>
    <g id="xtick_16">
     <g id="line2d_30">
      <g>
       <use style="stroke:#000000;stroke-width:0.6;" x="138.773778" xlink:href="#m483ade7887" y="367.751469"/>
      </g>
     </g>
    </g>
    <g id="xtick_17">
     <g id="line2d_31">
      <g>
       <use style="stroke:#000000;stroke-width:0.6;" x="143.409228" xlink:href="#m483ade7887" y="367.751469"/>
      </g>
     </g>
    </g>
    <g id="xtick_18">
     <g id="line2d_32">
      <g>
       <use style="stroke:#000000;stroke-width:0.6;" x="147.328445" xlink:href="#m483ade7887" y="367.751469"/>
      </g>
     </g>
    </g>
    <g id="xtick_19">
     <g id="line2d_33">
      <g>
       <use style="stroke:#000000;stroke-width:0.6;" x="150.723425" xlink:href="#m483ade7887" y="367.751469"/>
      </g>
     </g>
    </g>
    <g id="xtick_20">
     <g id="line2d_34">
      <g>
       <use style="stroke:#000000;stroke-width:0.6;" x="153.71801" xlink:href="#m483ade7887" y="367.751469"/>
      </g>
     </g>
    </g>
    <g id="xtick_21">
     <g id="line2d_35">
      <g>
       <use style="stroke:#000000;stroke-width:0.6;" x="174.019737" xlink:href="#m483ade7887" y="367.751469"/>
      </g>
     </g>
    </g>
    <g id="xtick_22">
     <g id="line2d_36">
      <g>
       <use style="stroke:#000000;stroke-width:0.6;" x="184.328519" xlink:href="#m483ade7887" y="367.751469"/>
      </g>
     </g>
    </g>
    <g id="xtick_23">
     <g id="line2d_37">
      <g>
       <use style="stroke:#000000;stroke-width:0.6;" x="191.642717" xlink:href="#m483ade7887" y="367.751469"/>
      </g>
     </g>
    </g>
    <g id="xtick_24">
     <g id="line2d_38">
      <g>
       <use style="stroke:#000000;stroke-width:0.6;" x="197.316049" xlink:href="#m483ade7887" y="367.751469"/>
      </g>
     </g>
    </g>
    <g id="xtick_25">
     <g id="line2d_39">
      <g>
       <use style="stroke:#000000;stroke-width:0.6;" x="201.951499" xlink:href="#m483ade7887" y="367.751469"/>
      </g>
     </g>
    </g>
    <g id="xtick_26">
     <g id="line2d_40">
      <g>
       <use style="stroke:#000000;stroke-width:0.6;" x="205.870716" xlink:href="#m483ade7887" y="367.751469"/>
      </g>
     </g>
    </g>
    <g id="xtick_27">
     <g id="line2d_41">
      <g>
       <use style="stroke:#000000;stroke-width:0.6;" x="209.265696" xlink:href="#m483ade7887" y="367.751469"/>
      </g>
     </g>
    </g>
    <g id="xtick_28">
     <g id="line2d_42">
      <g>
       <use style="stroke:#000000;stroke-width:0.6;" x="212.260281" xlink:href="#m483ade7887" y="367.751469"/>
      </g>
     </g>
    </g>
    <g id="xtick_29">
     <g id="line2d_43">
      <g>
       <use style="stroke:#000000;stroke-width:0.6;" x="232.562008" xlink:href="#m483ade7887" y="367.751469"/>
      </g>
     </g>
    </g>
    <g id="xtick_30">
     <g id="line2d_44">
      <g>
       <use style="stroke:#000000;stroke-width:0.6;" x="242.87079" xlink:href="#m483ade7887" y="367.751469"/>
      </g>
     </g>
    </g>
    <g id="xtick_31">
     <g id="line2d_45">
      <g>
       <use style="stroke:#000000;stroke-width:0.6;" x="250.184987" xlink:href="#m483ade7887" y="367.751469"/>
      </g>
     </g>
    </g>
    <g id="xtick_32">
     <g id="line2d_46">
      <g>
       <use style="stroke:#000000;stroke-width:0.6;" x="255.858319" xlink:href="#m483ade7887" y="367.751469"/>
      </g>
     </g>
    </g>
    <g id="xtick_33">
     <g id="line2d_47">
      <g>
       <use style="stroke:#000000;stroke-width:0.6;" x="260.493769" xlink:href="#m483ade7887" y="367.751469"/>
      </g>
     </g>
    </g>
    <g id="xtick_34">
     <g id="line2d_48">
      <g>
       <use style="stroke:#000000;stroke-width:0.6;" x="264.412986" xlink:href="#m483ade7887" y="367.751469"/>
      </g>
     </g>
    </g>
    <g id="xtick_35">
     <g id="line2d_49">
      <g>
       <use style="stroke:#000000;stroke-width:0.6;" x="267.807967" xlink:href="#m483ade7887" y="367.751469"/>
      </g>
     </g>
    </g>
    <g id="xtick_36">
     <g id="line2d_50">
      <g>
       <use style="stroke:#000000;stroke-width:0.6;" x="270.802552" xlink:href="#m483ade7887" y="367.751469"/>
      </g>
     </g>
    </g>
    <g id="xtick_37">
     <g id="line2d_51">
      <g>
       <use style="stroke:#000000;stroke-width:0.6;" x="291.104278" xlink:href="#m483ade7887" y="367.751469"/>
      </g>
     </g>
    </g>
    <g id="xtick_38">
     <g id="line2d_52">
      <g>
       <use style="stroke:#000000;stroke-width:0.6;" x="301.413061" xlink:href="#m483ade7887" y="367.751469"/>
      </g>
     </g>
    </g>
    <g id="xtick_39">
     <g id="line2d_53">
      <g>
       <use style="stroke:#000000;stroke-width:0.6;" x="308.727258" xlink:href="#m483ade7887" y="367.751469"/>
      </g>
     </g>
    </g>
    <g id="xtick_40">
     <g id="line2d_54">
      <g>
       <use style="stroke:#000000;stroke-width:0.6;" x="314.40059" xlink:href="#m483ade7887" y="367.751469"/>
      </g>
     </g>
    </g>
   </g>
   <g id="matplotlib.axis_2">
    <g id="ytick_1">
     <g id="line2d_55">
      <path clip-path="url(#p36dd12a7d9)" d="M 52.216875 322.113857 
L 318.328875 322.113857 
" style="fill:none;stroke:#b0b0b0;stroke-linecap:square;stroke-width:0.8;"/>
     </g>
     <g id="line2d_56">
      <defs>
       <path d="M 0 0 
L -3.5 0 
" id="m3afd34129d" style="stroke:#000000;stroke-width:0.8;"/>
      </defs>
      <g>
       <use style="stroke:#000000;stroke-width:0.8;" x="52.216875" xlink:href="#m3afd34129d" y="322.113857"/>
      </g>
     </g>
     <g id="text_5">
      <!-- 2 -->
      <g transform="translate(32.491875 329.712295)scale(0.2 -0.2)">
       <use xlink:href="#DejaVuSans-32"/>
      </g>
     </g>
    </g>
    <g id="ytick_2">
     <g id="line2d_57">
      <path clip-path="url(#p36dd12a7d9)" d="M 52.216875 263.571586 
L 318.328875 263.571586 
" style="fill:none;stroke:#b0b0b0;stroke-linecap:square;stroke-width:0.8;"/>
     </g>
     <g id="line2d_58">
      <g>
       <use style="stroke:#000000;stroke-width:0.8;" x="52.216875" xlink:href="#m3afd34129d" y="263.571586"/>
      </g>
     </g>
     <g id="text_6">
      <!-- 3 -->
      <g transform="translate(32.491875 271.170024)scale(0.2 -0.2)">
       <use xlink:href="#DejaVuSans-33"/>
      </g>
     </g>
    </g>
    <g id="ytick_3">
     <g id="line2d_59">
      <path clip-path="url(#p36dd12a7d9)" d="M 52.216875 205.029316 
L 318.328875 205.029316 
" style="fill:none;stroke:#b0b0b0;stroke-linecap:square;stroke-width:0.8;"/>
     </g>
     <g id="line2d_60">
      <g>
       <use style="stroke:#000000;stroke-width:0.8;" x="52.216875" xlink:href="#m3afd34129d" y="205.029316"/>
      </g>
     </g>
     <g id="text_7">
      <!-- 4 -->
      <g transform="translate(32.491875 212.627753)scale(0.2 -0.2)">
       <use xlink:href="#DejaVuSans-34"/>
      </g>
     </g>
    </g>
    <g id="ytick_4">
     <g id="line2d_61">
      <path clip-path="url(#p36dd12a7d9)" d="M 52.216875 146.487045 
L 318.328875 146.487045 
" style="fill:none;stroke:#b0b0b0;stroke-linecap:square;stroke-width:0.8;"/>
     </g>
     <g id="line2d_62">
      <g>
       <use style="stroke:#000000;stroke-width:0.8;" x="52.216875" xlink:href="#m3afd34129d" y="146.487045"/>
      </g>
     </g>
     <g id="text_8">
      <!-- 5 -->
      <g transform="translate(32.491875 154.085482)scale(0.2 -0.2)">
       <use xlink:href="#DejaVuSans-35"/>
      </g>
     </g>
    </g>
    <g id="ytick_5">
     <g id="line2d_63">
      <defs>
       <path d="M 0 0 
L -2 0 
" id="mfa887a91b0" style="stroke:#000000;stroke-width:0.6;"/>
      </defs>
      <g>
       <use style="stroke:#000000;stroke-width:0.6;" x="52.216875" xlink:href="#mfa887a91b0" y="363.033148"/>
      </g>
     </g>
    </g>
    <g id="ytick_6">
     <g id="line2d_64">
      <g>
       <use style="stroke:#000000;stroke-width:0.6;" x="52.216875" xlink:href="#mfa887a91b0" y="352.724366"/>
      </g>
     </g>
    </g>
    <g id="ytick_7">
     <g id="line2d_65">
      <g>
       <use style="stroke:#000000;stroke-width:0.6;" x="52.216875" xlink:href="#mfa887a91b0" y="345.410169"/>
      </g>
     </g>
    </g>
    <g id="ytick_8">
     <g id="line2d_66">
      <g>
       <use style="stroke:#000000;stroke-width:0.6;" x="52.216875" xlink:href="#mfa887a91b0" y="339.736837"/>
      </g>
     </g>
    </g>
    <g id="ytick_9">
     <g id="line2d_67">
      <g>
       <use style="stroke:#000000;stroke-width:0.6;" x="52.216875" xlink:href="#mfa887a91b0" y="335.101387"/>
      </g>
     </g>
    </g>
    <g id="ytick_10">
     <g id="line2d_68">
      <g>
       <use style="stroke:#000000;stroke-width:0.6;" x="52.216875" xlink:href="#mfa887a91b0" y="331.182169"/>
      </g>
     </g>
    </g>
    <g id="ytick_11">
     <g id="line2d_69">
      <g>
       <use style="stroke:#000000;stroke-width:0.6;" x="52.216875" xlink:href="#mfa887a91b0" y="327.787189"/>
      </g>
     </g>
    </g>
    <g id="ytick_12">
     <g id="line2d_70">
      <g>
       <use style="stroke:#000000;stroke-width:0.6;" x="52.216875" xlink:href="#mfa887a91b0" y="324.792604"/>
      </g>
     </g>
    </g>
    <g id="ytick_13">
     <g id="line2d_71">
      <g>
       <use style="stroke:#000000;stroke-width:0.6;" x="52.216875" xlink:href="#mfa887a91b0" y="304.490877"/>
      </g>
     </g>
    </g>
    <g id="ytick_14">
     <g id="line2d_72">
      <g>
       <use style="stroke:#000000;stroke-width:0.6;" x="52.216875" xlink:href="#mfa887a91b0" y="294.182095"/>
      </g>
     </g>
    </g>
    <g id="ytick_15">
     <g id="line2d_73">
      <g>
       <use style="stroke:#000000;stroke-width:0.6;" x="52.216875" xlink:href="#mfa887a91b0" y="286.867898"/>
      </g>
     </g>
    </g>
    <g id="ytick_16">
     <g id="line2d_74">
      <g>
       <use style="stroke:#000000;stroke-width:0.6;" x="52.216875" xlink:href="#mfa887a91b0" y="281.194566"/>
      </g>
     </g>
    </g>
    <g id="ytick_17">
     <g id="line2d_75">
      <g>
       <use style="stroke:#000000;stroke-width:0.6;" x="52.216875" xlink:href="#mfa887a91b0" y="276.559116"/>
      </g>
     </g>
    </g>
    <g id="ytick_18">
     <g id="line2d_76">
      <g>
       <use style="stroke:#000000;stroke-width:0.6;" x="52.216875" xlink:href="#mfa887a91b0" y="272.639899"/>
      </g>
     </g>
    </g>
    <g id="ytick_19">
     <g id="line2d_77">
      <g>
       <use style="stroke:#000000;stroke-width:0.6;" x="52.216875" xlink:href="#mfa887a91b0" y="269.244918"/>
      </g>
     </g>
    </g>
    <g id="ytick_20">
     <g id="line2d_78">
      <g>
       <use style="stroke:#000000;stroke-width:0.6;" x="52.216875" xlink:href="#mfa887a91b0" y="266.250334"/>
      </g>
     </g>
    </g>
    <g id="ytick_21">
     <g id="line2d_79">
      <g>
       <use style="stroke:#000000;stroke-width:0.6;" x="52.216875" xlink:href="#mfa887a91b0" y="245.948607"/>
      </g>
     </g>
    </g>
    <g id="ytick_22">
     <g id="line2d_80">
      <g>
       <use style="stroke:#000000;stroke-width:0.6;" x="52.216875" xlink:href="#mfa887a91b0" y="235.639825"/>
      </g>
     </g>
    </g>
    <g id="ytick_23">
     <g id="line2d_81">
      <g>
       <use style="stroke:#000000;stroke-width:0.6;" x="52.216875" xlink:href="#mfa887a91b0" y="228.325627"/>
      </g>
     </g>
    </g>
    <g id="ytick_24">
     <g id="line2d_82">
      <g>
       <use style="stroke:#000000;stroke-width:0.6;" x="52.216875" xlink:href="#mfa887a91b0" y="222.652295"/>
      </g>
     </g>
    </g>
    <g id="ytick_25">
     <g id="line2d_83">
      <g>
       <use style="stroke:#000000;stroke-width:0.6;" x="52.216875" xlink:href="#mfa887a91b0" y="218.016845"/>
      </g>
     </g>
    </g>
    <g id="ytick_26">
     <g id="line2d_84">
      <g>
       <use style="stroke:#000000;stroke-width:0.6;" x="52.216875" xlink:href="#mfa887a91b0" y="214.097628"/>
      </g>
     </g>
    </g>
    <g id="ytick_27">
     <g id="line2d_85">
      <g>
       <use style="stroke:#000000;stroke-width:0.6;" x="52.216875" xlink:href="#mfa887a91b0" y="210.702648"/>
      </g>
     </g>
    </g>
    <g id="ytick_28">
     <g id="line2d_86">
      <g>
       <use style="stroke:#000000;stroke-width:0.6;" x="52.216875" xlink:href="#mfa887a91b0" y="207.708063"/>
      </g>
     </g>
    </g>
    <g id="ytick_29">
     <g id="line2d_87">
      <g>
       <use style="stroke:#000000;stroke-width:0.6;" x="52.216875" xlink:href="#mfa887a91b0" y="187.406336"/>
      </g>
     </g>
    </g>
    <g id="ytick_30">
     <g id="line2d_88">
      <g>
       <use style="stroke:#000000;stroke-width:0.6;" x="52.216875" xlink:href="#mfa887a91b0" y="177.097554"/>
      </g>
     </g>
    </g>
    <g id="ytick_31">
     <g id="line2d_89">
      <g>
       <use style="stroke:#000000;stroke-width:0.6;" x="52.216875" xlink:href="#mfa887a91b0" y="169.783357"/>
      </g>
     </g>
    </g>
    <g id="ytick_32">
     <g id="line2d_90">
      <g>
       <use style="stroke:#000000;stroke-width:0.6;" x="52.216875" xlink:href="#mfa887a91b0" y="164.110024"/>
      </g>
     </g>
    </g>
    <g id="ytick_33">
     <g id="line2d_91">
      <g>
       <use style="stroke:#000000;stroke-width:0.6;" x="52.216875" xlink:href="#mfa887a91b0" y="159.474574"/>
      </g>
     </g>
    </g>
    <g id="ytick_34">
     <g id="line2d_92">
      <g>
       <use style="stroke:#000000;stroke-width:0.6;" x="52.216875" xlink:href="#mfa887a91b0" y="155.555357"/>
      </g>
     </g>
    </g>
    <g id="ytick_35">
     <g id="line2d_93">
      <g>
       <use style="stroke:#000000;stroke-width:0.6;" x="52.216875" xlink:href="#mfa887a91b0" y="152.160377"/>
      </g>
     </g>
    </g>
    <g id="ytick_36">
     <g id="line2d_94">
      <g>
       <use style="stroke:#000000;stroke-width:0.6;" x="52.216875" xlink:href="#mfa887a91b0" y="149.165792"/>
      </g>
     </g>
    </g>
    <g id="ytick_37">
     <g id="line2d_95">
      <g>
       <use style="stroke:#000000;stroke-width:0.6;" x="52.216875" xlink:href="#mfa887a91b0" y="128.864065"/>
      </g>
     </g>
    </g>
    <g id="ytick_38">
     <g id="line2d_96">
      <g>
       <use style="stroke:#000000;stroke-width:0.6;" x="52.216875" xlink:href="#mfa887a91b0" y="118.555283"/>
      </g>
     </g>
    </g>
    <g id="ytick_39">
     <g id="line2d_97">
      <g>
       <use style="stroke:#000000;stroke-width:0.6;" x="52.216875" xlink:href="#mfa887a91b0" y="111.241086"/>
      </g>
     </g>
    </g>
    <g id="ytick_40">
     <g id="line2d_98">
      <g>
       <use style="stroke:#000000;stroke-width:0.6;" x="52.216875" xlink:href="#mfa887a91b0" y="105.567754"/>
      </g>
     </g>
    </g>
    <g id="text_9">
     <!-- 44 Separable Rastrigin with 2 constraints -->
     <defs>
      <path id="DejaVuSans-20"/>
      <path d="M 53.515625 70.515625 
L 53.515625 60.890625 
Q 47.90625 63.578125 42.921875 64.890625 
Q 37.9375 66.21875 33.296875 66.21875 
Q 25.25 66.21875 20.875 63.09375 
Q 16.5 59.96875 16.5 54.203125 
Q 16.5 49.359375 19.40625 46.890625 
Q 22.3125 44.4375 30.421875 42.921875 
L 36.375 41.703125 
Q 47.40625 39.59375 52.65625 34.296875 
Q 57.90625 29 57.90625 20.125 
Q 57.90625 9.515625 50.796875 4.046875 
Q 43.703125 -1.421875 29.984375 -1.421875 
Q 24.8125 -1.421875 18.96875 -0.25 
Q 13.140625 0.921875 6.890625 3.21875 
L 6.890625 13.375 
Q 12.890625 10.015625 18.65625 8.296875 
Q 24.421875 6.59375 29.984375 6.59375 
Q 38.421875 6.59375 43.015625 9.90625 
Q 47.609375 13.234375 47.609375 19.390625 
Q 47.609375 24.75 44.3125 27.78125 
Q 41.015625 30.8125 33.5 32.328125 
L 27.484375 33.5 
Q 16.453125 35.6875 11.515625 40.375 
Q 6.59375 45.0625 6.59375 53.421875 
Q 6.59375 63.09375 13.40625 68.65625 
Q 20.21875 74.21875 32.171875 74.21875 
Q 37.3125 74.21875 42.625 73.28125 
Q 47.953125 72.359375 53.515625 70.515625 
z
" id="DejaVuSans-53"/>
      <path d="M 56.203125 29.59375 
L 56.203125 25.203125 
L 14.890625 25.203125 
Q 15.484375 15.921875 20.484375 11.0625 
Q 25.484375 6.203125 34.421875 6.203125 
Q 39.59375 6.203125 44.453125 7.46875 
Q 49.3125 8.734375 54.109375 11.28125 
L 54.109375 2.78125 
Q 49.265625 0.734375 44.1875 -0.34375 
Q 39.109375 -1.421875 33.890625 -1.421875 
Q 20.796875 -1.421875 13.15625 6.1875 
Q 5.515625 13.8125 5.515625 26.8125 
Q 5.515625 40.234375 12.765625 48.109375 
Q 20.015625 56 32.328125 56 
Q 43.359375 56 49.78125 48.890625 
Q 56.203125 41.796875 56.203125 29.59375 
z
M 47.21875 32.234375 
Q 47.125 39.59375 43.09375 43.984375 
Q 39.0625 48.390625 32.421875 48.390625 
Q 24.90625 48.390625 20.390625 44.140625 
Q 15.875 39.890625 15.1875 32.171875 
z
" id="DejaVuSans-65"/>
      <path d="M 18.109375 8.203125 
L 18.109375 -20.796875 
L 9.078125 -20.796875 
L 9.078125 54.6875 
L 18.109375 54.6875 
L 18.109375 46.390625 
Q 20.953125 51.265625 25.265625 53.625 
Q 29.59375 56 35.59375 56 
Q 45.5625 56 51.78125 48.09375 
Q 58.015625 40.1875 58.015625 27.296875 
Q 58.015625 14.40625 51.78125 6.484375 
Q 45.5625 -1.421875 35.59375 -1.421875 
Q 29.59375 -1.421875 25.265625 0.953125 
Q 20.953125 3.328125 18.109375 8.203125 
z
M 48.6875 27.296875 
Q 48.6875 37.203125 44.609375 42.84375 
Q 40.53125 48.484375 33.40625 48.484375 
Q 26.265625 48.484375 22.1875 42.84375 
Q 18.109375 37.203125 18.109375 27.296875 
Q 18.109375 17.390625 22.1875 11.75 
Q 26.265625 6.109375 33.40625 6.109375 
Q 40.53125 6.109375 44.609375 11.75 
Q 48.6875 17.390625 48.6875 27.296875 
z
" id="DejaVuSans-70"/>
      <path d="M 34.28125 27.484375 
Q 23.390625 27.484375 19.1875 25 
Q 14.984375 22.515625 14.984375 16.5 
Q 14.984375 11.71875 18.140625 8.90625 
Q 21.296875 6.109375 26.703125 6.109375 
Q 34.1875 6.109375 38.703125 11.40625 
Q 43.21875 16.703125 43.21875 25.484375 
L 43.21875 27.484375 
z
M 52.203125 31.203125 
L 52.203125 0 
L 43.21875 0 
L 43.21875 8.296875 
Q 40.140625 3.328125 35.546875 0.953125 
Q 30.953125 -1.421875 24.3125 -1.421875 
Q 15.921875 -1.421875 10.953125 3.296875 
Q 6 8.015625 6 15.921875 
Q 6 25.140625 12.171875 29.828125 
Q 18.359375 34.515625 30.609375 34.515625 
L 43.21875 34.515625 
L 43.21875 35.40625 
Q 43.21875 41.609375 39.140625 45 
Q 35.0625 48.390625 27.6875 48.390625 
Q 23 48.390625 18.546875 47.265625 
Q 14.109375 46.140625 10.015625 43.890625 
L 10.015625 52.203125 
Q 14.9375 54.109375 19.578125 55.046875 
Q 24.21875 56 28.609375 56 
Q 40.484375 56 46.34375 49.84375 
Q 52.203125 43.703125 52.203125 31.203125 
z
" id="DejaVuSans-61"/>
      <path d="M 41.109375 46.296875 
Q 39.59375 47.171875 37.8125 47.578125 
Q 36.03125 48 33.890625 48 
Q 26.265625 48 22.1875 43.046875 
Q 18.109375 38.09375 18.109375 28.8125 
L 18.109375 0 
L 9.078125 0 
L 9.078125 54.6875 
L 18.109375 54.6875 
L 18.109375 46.1875 
Q 20.953125 51.171875 25.484375 53.578125 
Q 30.03125 56 36.53125 56 
Q 37.453125 56 38.578125 55.875 
Q 39.703125 55.765625 41.0625 55.515625 
z
" id="DejaVuSans-72"/>
      <path d="M 48.6875 27.296875 
Q 48.6875 37.203125 44.609375 42.84375 
Q 40.53125 48.484375 33.40625 48.484375 
Q 26.265625 48.484375 22.1875 42.84375 
Q 18.109375 37.203125 18.109375 27.296875 
Q 18.109375 17.390625 22.1875 11.75 
Q 26.265625 6.109375 33.40625 6.109375 
Q 40.53125 6.109375 44.609375 11.75 
Q 48.6875 17.390625 48.6875 27.296875 
z
M 18.109375 46.390625 
Q 20.953125 51.265625 25.265625 53.625 
Q 29.59375 56 35.59375 56 
Q 45.5625 56 51.78125 48.09375 
Q 58.015625 40.1875 58.015625 27.296875 
Q 58.015625 14.40625 51.78125 6.484375 
Q 45.5625 -1.421875 35.59375 -1.421875 
Q 29.59375 -1.421875 25.265625 0.953125 
Q 20.953125 3.328125 18.109375 8.203125 
L 18.109375 0 
L 9.078125 0 
L 9.078125 75.984375 
L 18.109375 75.984375 
z
" id="DejaVuSans-62"/>
      <path d="M 9.421875 75.984375 
L 18.40625 75.984375 
L 18.40625 0 
L 9.421875 0 
z
" id="DejaVuSans-6c"/>
      <path d="M 44.390625 34.1875 
Q 47.5625 33.109375 50.5625 29.59375 
Q 53.5625 26.078125 56.59375 19.921875 
L 66.609375 0 
L 56 0 
L 46.6875 18.703125 
Q 43.0625 26.03125 39.671875 28.421875 
Q 36.28125 30.8125 30.421875 30.8125 
L 19.671875 30.8125 
L 19.671875 0 
L 9.8125 0 
L 9.8125 72.90625 
L 32.078125 72.90625 
Q 44.578125 72.90625 50.734375 67.671875 
Q 56.890625 62.453125 56.890625 51.90625 
Q 56.890625 45.015625 53.6875 40.46875 
Q 50.484375 35.9375 44.390625 34.1875 
z
M 19.671875 64.796875 
L 19.671875 38.921875 
L 32.078125 38.921875 
Q 39.203125 38.921875 42.84375 42.21875 
Q 46.484375 45.515625 46.484375 51.90625 
Q 46.484375 58.296875 42.84375 61.546875 
Q 39.203125 64.796875 32.078125 64.796875 
z
" id="DejaVuSans-52"/>
      <path d="M 44.28125 53.078125 
L 44.28125 44.578125 
Q 40.484375 46.53125 36.375 47.5 
Q 32.28125 48.484375 27.875 48.484375 
Q 21.1875 48.484375 17.84375 46.4375 
Q 14.5 44.390625 14.5 40.28125 
Q 14.5 37.15625 16.890625 35.375 
Q 19.28125 33.59375 26.515625 31.984375 
L 29.59375 31.296875 
Q 39.15625 29.25 43.1875 25.515625 
Q 47.21875 21.78125 47.21875 15.09375 
Q 47.21875 7.46875 41.1875 3.015625 
Q 35.15625 -1.421875 24.609375 -1.421875 
Q 20.21875 -1.421875 15.453125 -0.5625 
Q 10.6875 0.296875 5.421875 2 
L 5.421875 11.28125 
Q 10.40625 8.6875 15.234375 7.390625 
Q 20.0625 6.109375 24.8125 6.109375 
Q 31.15625 6.109375 34.5625 8.28125 
Q 37.984375 10.453125 37.984375 14.40625 
Q 37.984375 18.0625 35.515625 20.015625 
Q 33.0625 21.96875 24.703125 23.78125 
L 21.578125 24.515625 
Q 13.234375 26.265625 9.515625 29.90625 
Q 5.8125 33.546875 5.8125 39.890625 
Q 5.8125 47.609375 11.28125 51.796875 
Q 16.75 56 26.8125 56 
Q 31.78125 56 36.171875 55.265625 
Q 40.578125 54.546875 44.28125 53.078125 
z
" id="DejaVuSans-73"/>
      <path d="M 18.3125 70.21875 
L 18.3125 54.6875 
L 36.8125 54.6875 
L 36.8125 47.703125 
L 18.3125 47.703125 
L 18.3125 18.015625 
Q 18.3125 11.328125 20.140625 9.421875 
Q 21.96875 7.515625 27.59375 7.515625 
L 36.8125 7.515625 
L 36.8125 0 
L 27.59375 0 
Q 17.1875 0 13.234375 3.875 
Q 9.28125 7.765625 9.28125 18.015625 
L 9.28125 47.703125 
L 2.6875 47.703125 
L 2.6875 54.6875 
L 9.28125 54.6875 
L 9.28125 70.21875 
z
" id="DejaVuSans-74"/>
      <path d="M 9.421875 54.6875 
L 18.40625 54.6875 
L 18.40625 0 
L 9.421875 0 
z
M 9.421875 75.984375 
L 18.40625 75.984375 
L 18.40625 64.59375 
L 9.421875 64.59375 
z
" id="DejaVuSans-69"/>
      <path d="M 45.40625 27.984375 
Q 45.40625 37.75 41.375 43.109375 
Q 37.359375 48.484375 30.078125 48.484375 
Q 22.859375 48.484375 18.828125 43.109375 
Q 14.796875 37.75 14.796875 27.984375 
Q 14.796875 18.265625 18.828125 12.890625 
Q 22.859375 7.515625 30.078125 7.515625 
Q 37.359375 7.515625 41.375 12.890625 
Q 45.40625 18.265625 45.40625 27.984375 
z
M 54.390625 6.78125 
Q 54.390625 -7.171875 48.1875 -13.984375 
Q 42 -20.796875 29.203125 -20.796875 
Q 24.46875 -20.796875 20.265625 -20.09375 
Q 16.0625 -19.390625 12.109375 -17.921875 
L 12.109375 -9.1875 
Q 16.0625 -11.328125 19.921875 -12.34375 
Q 23.78125 -13.375 27.78125 -13.375 
Q 36.625 -13.375 41.015625 -8.765625 
Q 45.40625 -4.15625 45.40625 5.171875 
L 45.40625 9.625 
Q 42.625 4.78125 38.28125 2.390625 
Q 33.9375 0 27.875 0 
Q 17.828125 0 11.671875 7.65625 
Q 5.515625 15.328125 5.515625 27.984375 
Q 5.515625 40.671875 11.671875 48.328125 
Q 17.828125 56 27.875 56 
Q 33.9375 56 38.28125 53.609375 
Q 42.625 51.21875 45.40625 46.390625 
L 45.40625 54.6875 
L 54.390625 54.6875 
z
" id="DejaVuSans-67"/>
      <path d="M 54.890625 33.015625 
L 54.890625 0 
L 45.90625 0 
L 45.90625 32.71875 
Q 45.90625 40.484375 42.875 44.328125 
Q 39.84375 48.1875 33.796875 48.1875 
Q 26.515625 48.1875 22.3125 43.546875 
Q 18.109375 38.921875 18.109375 30.90625 
L 18.109375 0 
L 9.078125 0 
L 9.078125 54.6875 
L 18.109375 54.6875 
L 18.109375 46.1875 
Q 21.34375 51.125 25.703125 53.5625 
Q 30.078125 56 35.796875 56 
Q 45.21875 56 50.046875 50.171875 
Q 54.890625 44.34375 54.890625 33.015625 
z
" id="DejaVuSans-6e"/>
      <path d="M 4.203125 54.6875 
L 13.1875 54.6875 
L 24.421875 12.015625 
L 35.59375 54.6875 
L 46.1875 54.6875 
L 57.421875 12.015625 
L 68.609375 54.6875 
L 77.59375 54.6875 
L 63.28125 0 
L 52.6875 0 
L 40.921875 44.828125 
L 29.109375 0 
L 18.5 0 
z
" id="DejaVuSans-77"/>
      <path d="M 54.890625 33.015625 
L 54.890625 0 
L 45.90625 0 
L 45.90625 32.71875 
Q 45.90625 40.484375 42.875 44.328125 
Q 39.84375 48.1875 33.796875 48.1875 
Q 26.515625 48.1875 22.3125 43.546875 
Q 18.109375 38.921875 18.109375 30.90625 
L 18.109375 0 
L 9.078125 0 
L 9.078125 75.984375 
L 18.109375 75.984375 
L 18.109375 46.1875 
Q 21.34375 51.125 25.703125 53.5625 
Q 30.078125 56 35.796875 56 
Q 45.21875 56 50.046875 50.171875 
Q 54.890625 44.34375 54.890625 33.015625 
z
" id="DejaVuSans-68"/>
      <path d="M 48.78125 52.59375 
L 48.78125 44.1875 
Q 44.96875 46.296875 41.140625 47.34375 
Q 37.3125 48.390625 33.40625 48.390625 
Q 24.65625 48.390625 19.8125 42.84375 
Q 14.984375 37.3125 14.984375 27.296875 
Q 14.984375 17.28125 19.8125 11.734375 
Q 24.65625 6.203125 33.40625 6.203125 
Q 37.3125 6.203125 41.140625 7.25 
Q 44.96875 8.296875 48.78125 10.40625 
L 48.78125 2.09375 
Q 45.015625 0.34375 40.984375 -0.53125 
Q 36.96875 -1.421875 32.421875 -1.421875 
Q 20.0625 -1.421875 12.78125 6.34375 
Q 5.515625 14.109375 5.515625 27.296875 
Q 5.515625 40.671875 12.859375 48.328125 
Q 20.21875 56 33.015625 56 
Q 37.15625 56 41.109375 55.140625 
Q 45.0625 54.296875 48.78125 52.59375 
z
" id="DejaVuSans-63"/>
      <path d="M 30.609375 48.390625 
Q 23.390625 48.390625 19.1875 42.75 
Q 14.984375 37.109375 14.984375 27.296875 
Q 14.984375 17.484375 19.15625 11.84375 
Q 23.34375 6.203125 30.609375 6.203125 
Q 37.796875 6.203125 41.984375 11.859375 
Q 46.1875 17.53125 46.1875 27.296875 
Q 46.1875 37.015625 41.984375 42.703125 
Q 37.796875 48.390625 30.609375 48.390625 
z
M 30.609375 56 
Q 42.328125 56 49.015625 48.375 
Q 55.71875 40.765625 55.71875 27.296875 
Q 55.71875 13.875 49.015625 6.21875 
Q 42.328125 -1.421875 30.609375 -1.421875 
Q 18.84375 -1.421875 12.171875 6.21875 
Q 5.515625 13.875 5.515625 27.296875 
Q 5.515625 40.765625 12.171875 48.375 
Q 18.84375 56 30.609375 56 
z
" id="DejaVuSans-6f"/>
     </defs>
     <g transform="translate(23.916563 462.190938)rotate(-90)scale(0.22 -0.22)">
      <use xlink:href="#DejaVuSans-34"/>
      <use x="63.623047" xlink:href="#DejaVuSans-34"/>
      <use x="127.246094" xlink:href="#DejaVuSans-20"/>
      <use x="159.033203" xlink:href="#DejaVuSans-53"/>
      <use x="222.509766" xlink:href="#DejaVuSans-65"/>
      <use x="284.033203" xlink:href="#DejaVuSans-70"/>
      <use x="347.509766" xlink:href="#DejaVuSans-61"/>
      <use x="408.789062" xlink:href="#DejaVuSans-72"/>
      <use x="449.902344" xlink:href="#DejaVuSans-61"/>
      <use x="511.181641" xlink:href="#DejaVuSans-62"/>
      <use x="574.658203" xlink:href="#DejaVuSans-6c"/>
      <use x="602.441406" xlink:href="#DejaVuSans-65"/>
      <use x="663.964844" xlink:href="#DejaVuSans-20"/>
      <use x="695.751953" xlink:href="#DejaVuSans-52"/>
      <use x="765.203125" xlink:href="#DejaVuSans-61"/>
      <use x="826.482422" xlink:href="#DejaVuSans-73"/>
      <use x="878.582031" xlink:href="#DejaVuSans-74"/>
      <use x="917.791016" xlink:href="#DejaVuSans-72"/>
      <use x="958.904297" xlink:href="#DejaVuSans-69"/>
      <use x="986.6875" xlink:href="#DejaVuSans-67"/>
      <use x="1050.164062" xlink:href="#DejaVuSans-69"/>
      <use x="1077.947266" xlink:href="#DejaVuSans-6e"/>
      <use x="1141.326172" xlink:href="#DejaVuSans-20"/>
      <use x="1173.113281" xlink:href="#DejaVuSans-77"/>
      <use x="1254.900391" xlink:href="#DejaVuSans-69"/>
      <use x="1282.683594" xlink:href="#DejaVuSans-74"/>
      <use x="1321.892578" xlink:href="#DejaVuSans-68"/>
      <use x="1385.271484" xlink:href="#DejaVuSans-20"/>
      <use x="1417.058594" xlink:href="#DejaVuSans-32"/>
      <use x="1480.681641" xlink:href="#DejaVuSans-20"/>
      <use x="1512.46875" xlink:href="#DejaVuSans-63"/>
      <use x="1567.449219" xlink:href="#DejaVuSans-6f"/>
      <use x="1628.630859" xlink:href="#DejaVuSans-6e"/>
      <use x="1692.009766" xlink:href="#DejaVuSans-73"/>
      <use x="1744.109375" xlink:href="#DejaVuSans-74"/>
      <use x="1783.318359" xlink:href="#DejaVuSans-72"/>
      <use x="1824.431641" xlink:href="#DejaVuSans-61"/>
      <use x="1885.710938" xlink:href="#DejaVuSans-69"/>
      <use x="1913.494141" xlink:href="#DejaVuSans-6e"/>
      <use x="1976.873047" xlink:href="#DejaVuSans-74"/>
      <use x="2016.082031" xlink:href="#DejaVuSans-73"/>
     </g>
    </g>
   </g>
   <g id="line2d_99">
    <defs>
     <path d="M -7 0 
L 7 0 
M 0 7 
L 0 -7 
" id="mcb3442b922" style="stroke:#00bfbf;stroke-width:3;"/>
    </defs>
    <g>
     <use style="fill:none;stroke:#00bfbf;stroke-width:3;" x="64.312875" xlink:href="#mcb3442b922" y="355.655469"/>
     <use style="fill:none;stroke:#00bfbf;stroke-width:3;" x="73.957904" xlink:href="#mcb3442b922" y="346.01044"/>
     <use style="fill:none;stroke:#00bfbf;stroke-width:3;" x="86.080508" xlink:href="#mcb3442b922" y="328.714961"/>
     <use style="fill:none;stroke:#00bfbf;stroke-width:3;" x="121.527665" xlink:href="#mcb3442b922" y="286.430981"/>
     <use style="fill:none;stroke:#00bfbf;stroke-width:3;" x="131.9697" xlink:href="#mcb3442b922" y="284.789855"/>
     <use style="fill:none;stroke:#00bfbf;stroke-width:3;" x="132.102258" xlink:href="#mcb3442b922" y="284.610863"/>
     <use style="fill:none;stroke:#00bfbf;stroke-width:3;" x="132.461097" xlink:href="#mcb3442b922" y="284.494804"/>
     <use style="fill:none;stroke:#00bfbf;stroke-width:3;" x="132.720489" xlink:href="#mcb3442b922" y="284.126937"/>
     <use style="fill:none;stroke:#00bfbf;stroke-width:3;" x="132.763465" xlink:href="#mcb3442b922" y="283.98278"/>
     <use style="fill:none;stroke:#00bfbf;stroke-width:3;" x="132.943175" xlink:href="#mcb3442b922" y="283.809361"/>
     <use style="fill:none;stroke:#00bfbf;stroke-width:3;" x="133.163928" xlink:href="#mcb3442b922" y="283.637118"/>
     <use style="fill:none;stroke:#00bfbf;stroke-width:3;" x="133.349233" xlink:href="#mcb3442b922" y="283.377226"/>
     <use style="fill:none;stroke:#00bfbf;stroke-width:3;" x="133.508189" xlink:href="#mcb3442b922" y="283.163882"/>
     <use style="fill:none;stroke:#00bfbf;stroke-width:3;" x="133.616379" xlink:href="#mcb3442b922" y="282.988665"/>
     <use style="fill:none;stroke:#00bfbf;stroke-width:3;" x="133.773679" xlink:href="#mcb3442b922" y="282.930527"/>
     <use style="fill:none;stroke:#00bfbf;stroke-width:3;" x="133.839621" xlink:href="#mcb3442b922" y="282.749697"/>
     <use style="fill:none;stroke:#00bfbf;stroke-width:3;" x="133.85608" xlink:href="#mcb3442b922" y="280.945179"/>
     <use style="fill:none;stroke:#00bfbf;stroke-width:3;" x="133.864305" xlink:href="#mcb3442b922" y="280.823187"/>
     <use style="fill:none;stroke:#00bfbf;stroke-width:3;" x="133.89718" xlink:href="#mcb3442b922" y="278.903253"/>
     <use style="fill:none;stroke:#00bfbf;stroke-width:3;" x="133.930012" xlink:href="#mcb3442b922" y="269.482616"/>
     <use style="fill:none;stroke:#00bfbf;stroke-width:3;" x="133.930012" xlink:href="#mcb3442b922" y="263.085923"/>
    </g>
   </g>
   <g id="line2d_100">
    <defs>
     <path d="M -0 7 
L 7 -7 
L -7 -7 
z
" id="md512c57a5c" style="stroke:#008000;stroke-linejoin:miter;stroke-width:3;"/>
    </defs>
    <g>
     <use style="fill:none;stroke:#008000;stroke-linejoin:miter;stroke-width:3;" x="69.564266" xlink:href="#md512c57a5c" y="350.50743"/>
     <use style="fill:none;stroke:#008000;stroke-linejoin:miter;stroke-width:3;" x="100.931802" xlink:href="#md512c57a5c" y="313.998819"/>
     <use style="fill:none;stroke:#008000;stroke-linejoin:miter;stroke-width:3;" x="140.315931" xlink:href="#md512c57a5c" y="269.620574"/>
     <use style="fill:none;stroke:#008000;stroke-linejoin:miter;stroke-width:3;" x="174.717085" xlink:href="#md512c57a5c" y="235.552618"/>
     <use style="fill:none;stroke:#008000;stroke-linejoin:miter;stroke-width:3;" x="194.202674" xlink:href="#md512c57a5c" y="232.235488"/>
     <use style="fill:none;stroke:#008000;stroke-linejoin:miter;stroke-width:3;" x="194.265294" xlink:href="#md512c57a5c" y="232.178721"/>
     <use style="fill:none;stroke:#008000;stroke-linejoin:miter;stroke-width:3;" x="194.286134" xlink:href="#md512c57a5c" y="232.13069"/>
     <use style="fill:none;stroke:#008000;stroke-linejoin:miter;stroke-width:3;" x="194.325682" xlink:href="#md512c57a5c" y="232.083979"/>
     <use style="fill:none;stroke:#008000;stroke-linejoin:miter;stroke-width:3;" x="194.367245" xlink:href="#md512c57a5c" y="232.045936"/>
     <use style="fill:none;stroke:#008000;stroke-linejoin:miter;stroke-width:3;" x="194.411849" xlink:href="#md512c57a5c" y="232.014072"/>
     <use style="fill:none;stroke:#008000;stroke-linejoin:miter;stroke-width:3;" x="194.43464" xlink:href="#md512c57a5c" y="231.990812"/>
     <use style="fill:none;stroke:#008000;stroke-linejoin:miter;stroke-width:3;" x="194.452237" xlink:href="#md512c57a5c" y="231.896767"/>
     <use style="fill:none;stroke:#008000;stroke-linejoin:miter;stroke-width:3;" x="194.469822" xlink:href="#md512c57a5c" y="231.86509"/>
     <use style="fill:none;stroke:#008000;stroke-linejoin:miter;stroke-width:3;" x="194.516311" xlink:href="#md512c57a5c" y="231.810357"/>
     <use style="fill:none;stroke:#008000;stroke-linejoin:miter;stroke-width:3;" x="194.529726" xlink:href="#md512c57a5c" y="231.793353"/>
     <use style="fill:none;stroke:#008000;stroke-linejoin:miter;stroke-width:3;" x="194.537977" xlink:href="#md512c57a5c" y="231.793353"/>
     <use style="fill:none;stroke:#008000;stroke-linejoin:miter;stroke-width:3;" x="194.537977" xlink:href="#md512c57a5c" y="231.772721"/>
     <use style="fill:none;stroke:#008000;stroke-linejoin:miter;stroke-width:3;" x="194.554472" xlink:href="#md512c57a5c" y="231.772721"/>
     <use style="fill:none;stroke:#008000;stroke-linejoin:miter;stroke-width:3;" x="194.554472" xlink:href="#md512c57a5c" y="231.772721"/>
     <use style="fill:none;stroke:#008000;stroke-linejoin:miter;stroke-width:3;" x="194.554472" xlink:href="#md512c57a5c" y="231.772721"/>
     <use style="fill:none;stroke:#008000;stroke-linejoin:miter;stroke-width:3;" x="194.554472" xlink:href="#md512c57a5c" y="231.772721"/>
    </g>
   </g>
   <g id="line2d_101">
    <defs>
     <path d="M 0 -7 
L -1.571598 -2.163119 
L -6.657396 -2.163119 
L -2.542899 0.826238 
L -4.114497 5.663119 
L -0 2.673762 
L 4.114497 5.663119 
L 2.542899 0.826238 
L 6.657396 -2.163119 
L 1.571598 -2.163119 
z
" id="m0d5e5856e8" style="stroke:#0000ff;stroke-linejoin:bevel;stroke-width:3;"/>
    </defs>
    <g>
     <use style="fill:none;stroke:#0000ff;stroke-linejoin:bevel;stroke-width:3;" x="127.992826" xlink:href="#m0d5e5856e8" y="289.149561"/>
     <use style="fill:none;stroke:#0000ff;stroke-linejoin:bevel;stroke-width:3;" x="184.798736" xlink:href="#m0d5e5856e8" y="232.574025"/>
    </g>
   </g>
   <g id="line2d_102">
    <defs>
     <path d="M 0 -4 
L -0.898056 -1.236068 
L -3.804226 -1.236068 
L -1.453085 0.472136 
L -2.351141 3.236068 
L -0 1.527864 
L 2.351141 3.236068 
L 1.453085 0.472136 
L 3.804226 -1.236068 
L 0.898056 -1.236068 
z
" id="m1a66c43e5b" style="stroke:#0000ff;stroke-linejoin:bevel;"/>
    </defs>
    <g>
     <use style="fill:none;stroke:#0000ff;stroke-linejoin:bevel;" x="230.155216" xlink:href="#m1a66c43e5b" y="199.609865"/>
    </g>
   </g>
   <g id="line2d_103">
    <g>
     <use style="fill:none;stroke:#0000ff;stroke-linejoin:bevel;" x="288.864947" xlink:href="#m1a66c43e5b" y="101.639469"/>
    </g>
   </g>
   <g id="line2d_104">
    <g>
     <use style="fill:none;stroke:#0000ff;stroke-linejoin:bevel;" x="318.328875" xlink:href="#m1a66c43e5b" y="101.639469"/>
     <use style="fill:none;stroke:#0000ff;stroke-linejoin:bevel;" x="318.328875" xlink:href="#m1a66c43e5b" y="101.639469"/>
     <use style="fill:none;stroke:#0000ff;stroke-linejoin:bevel;" x="318.328875" xlink:href="#m1a66c43e5b" y="101.639469"/>
     <use style="fill:none;stroke:#0000ff;stroke-linejoin:bevel;" x="318.328875" xlink:href="#m1a66c43e5b" y="101.639469"/>
     <use style="fill:none;stroke:#0000ff;stroke-linejoin:bevel;" x="318.328875" xlink:href="#m1a66c43e5b" y="101.639469"/>
     <use style="fill:none;stroke:#0000ff;stroke-linejoin:bevel;" x="318.328875" xlink:href="#m1a66c43e5b" y="101.639469"/>
     <use style="fill:none;stroke:#0000ff;stroke-linejoin:bevel;" x="318.328875" xlink:href="#m1a66c43e5b" y="101.639469"/>
     <use style="fill:none;stroke:#0000ff;stroke-linejoin:bevel;" x="318.328875" xlink:href="#m1a66c43e5b" y="101.639469"/>
     <use style="fill:none;stroke:#0000ff;stroke-linejoin:bevel;" x="318.328875" xlink:href="#m1a66c43e5b" y="101.639469"/>
     <use style="fill:none;stroke:#0000ff;stroke-linejoin:bevel;" x="318.328875" xlink:href="#m1a66c43e5b" y="101.639469"/>
     <use style="fill:none;stroke:#0000ff;stroke-linejoin:bevel;" x="318.328875" xlink:href="#m1a66c43e5b" y="101.639469"/>
     <use style="fill:none;stroke:#0000ff;stroke-linejoin:bevel;" x="318.328875" xlink:href="#m1a66c43e5b" y="101.639469"/>
     <use style="fill:none;stroke:#0000ff;stroke-linejoin:bevel;" x="318.328875" xlink:href="#m1a66c43e5b" y="101.639469"/>
     <use style="fill:none;stroke:#0000ff;stroke-linejoin:bevel;" x="318.328875" xlink:href="#m1a66c43e5b" y="101.639469"/>
     <use style="fill:none;stroke:#0000ff;stroke-linejoin:bevel;" x="318.328875" xlink:href="#m1a66c43e5b" y="101.639469"/>
     <use style="fill:none;stroke:#0000ff;stroke-linejoin:bevel;" x="318.328875" xlink:href="#m1a66c43e5b" y="101.639469"/>
     <use style="fill:none;stroke:#0000ff;stroke-linejoin:bevel;" x="318.328875" xlink:href="#m1a66c43e5b" y="101.639469"/>
    </g>
   </g>
   <g id="line2d_105">
    <defs>
     <path d="M 0 7 
C 1.856422 7 3.637059 6.262436 4.949747 4.949747 
C 6.262436 3.637059 7 1.856422 7 0 
C 7 -1.856422 6.262436 -3.637059 4.949747 -4.949747 
C 3.637059 -6.262436 1.856422 -7 0 -7 
C -1.856422 -7 -3.637059 -6.262436 -4.949747 -4.949747 
C -6.262436 -3.637059 -7 -1.856422 -7 0 
C -7 1.856422 -6.262436 3.637059 -4.949747 4.949747 
C -3.637059 6.262436 -1.856422 7 0 7 
z
" id="m8308845be2" style="stroke:#000000;stroke-width:3;"/>
    </defs>
    <g>
     <use style="fill:none;stroke:#000000;stroke-width:3;" x="172.776216" xlink:href="#m8308845be2" y="249.444517"/>
    </g>
   </g>
   <g id="line2d_106">
    <defs>
     <path d="M 0 4 
C 1.060812 4 2.078319 3.578535 2.828427 2.828427 
C 3.578535 2.078319 4 1.060812 4 0 
C 4 -1.060812 3.578535 -2.078319 2.828427 -2.828427 
C 2.078319 -3.578535 1.060812 -4 0 -4 
C -1.060812 -4 -2.078319 -3.578535 -2.828427 -2.828427 
C -3.578535 -2.078319 -4 -1.060812 -4 0 
C -4 1.060812 -3.578535 2.078319 -2.828427 2.828427 
C -2.078319 3.578535 -1.060812 4 0 4 
z
" id="mcd474a3c02" style="stroke:#000000;"/>
    </defs>
    <g>
     <use style="fill:none;stroke:#000000;" x="267.071041" xlink:href="#mcd474a3c02" y="113.735469"/>
    </g>
   </g>
   <g id="line2d_107">
    <g>
     <use style="fill:none;stroke:#000000;" x="287.733694" xlink:href="#mcd474a3c02" y="101.639469"/>
    </g>
   </g>
   <g id="line2d_108">
    <g>
     <use style="fill:none;stroke:#000000;" x="318.328875" xlink:href="#mcd474a3c02" y="101.639469"/>
     <use style="fill:none;stroke:#000000;" x="318.328875" xlink:href="#mcd474a3c02" y="101.639469"/>
     <use style="fill:none;stroke:#000000;" x="318.328875" xlink:href="#mcd474a3c02" y="101.639469"/>
     <use style="fill:none;stroke:#000000;" x="318.328875" xlink:href="#mcd474a3c02" y="101.639469"/>
     <use style="fill:none;stroke:#000000;" x="318.328875" xlink:href="#mcd474a3c02" y="101.639469"/>
     <use style="fill:none;stroke:#000000;" x="318.328875" xlink:href="#mcd474a3c02" y="101.639469"/>
     <use style="fill:none;stroke:#000000;" x="318.328875" xlink:href="#mcd474a3c02" y="101.639469"/>
     <use style="fill:none;stroke:#000000;" x="318.328875" xlink:href="#mcd474a3c02" y="101.639469"/>
     <use style="fill:none;stroke:#000000;" x="318.328875" xlink:href="#mcd474a3c02" y="101.639469"/>
     <use style="fill:none;stroke:#000000;" x="318.328875" xlink:href="#mcd474a3c02" y="101.639469"/>
     <use style="fill:none;stroke:#000000;" x="318.328875" xlink:href="#mcd474a3c02" y="101.639469"/>
     <use style="fill:none;stroke:#000000;" x="318.328875" xlink:href="#mcd474a3c02" y="101.639469"/>
     <use style="fill:none;stroke:#000000;" x="318.328875" xlink:href="#mcd474a3c02" y="101.639469"/>
     <use style="fill:none;stroke:#000000;" x="318.328875" xlink:href="#mcd474a3c02" y="101.639469"/>
     <use style="fill:none;stroke:#000000;" x="318.328875" xlink:href="#mcd474a3c02" y="101.639469"/>
     <use style="fill:none;stroke:#000000;" x="318.328875" xlink:href="#mcd474a3c02" y="101.639469"/>
     <use style="fill:none;stroke:#000000;" x="318.328875" xlink:href="#mcd474a3c02" y="101.639469"/>
     <use style="fill:none;stroke:#000000;" x="318.328875" xlink:href="#mcd474a3c02" y="101.639469"/>
    </g>
   </g>
   <g id="line2d_109">
    <defs>
     <path d="M -4 4 
L 4 4 
L 4 -4 
L -4 -4 
z
" id="m9d3a0aa651" style="stroke:#ff0000;stroke-linejoin:miter;"/>
    </defs>
    <g>
     <use style="fill:none;stroke:#ff0000;stroke-linejoin:miter;" x="284.426891" xlink:href="#m9d3a0aa651" y="134.638422"/>
    </g>
   </g>
   <g id="line2d_110">
    <g>
     <use style="fill:none;stroke:#ff0000;stroke-linejoin:miter;" x="318.328875" xlink:href="#m9d3a0aa651" y="101.639469"/>
     <use style="fill:none;stroke:#ff0000;stroke-linejoin:miter;" x="318.328875" xlink:href="#m9d3a0aa651" y="101.639469"/>
     <use style="fill:none;stroke:#ff0000;stroke-linejoin:miter;" x="318.328875" xlink:href="#m9d3a0aa651" y="101.639469"/>
     <use style="fill:none;stroke:#ff0000;stroke-linejoin:miter;" x="318.328875" xlink:href="#m9d3a0aa651" y="101.639469"/>
     <use style="fill:none;stroke:#ff0000;stroke-linejoin:miter;" x="318.328875" xlink:href="#m9d3a0aa651" y="101.639469"/>
     <use style="fill:none;stroke:#ff0000;stroke-linejoin:miter;" x="318.328875" xlink:href="#m9d3a0aa651" y="101.639469"/>
     <use style="fill:none;stroke:#ff0000;stroke-linejoin:miter;" x="318.328875" xlink:href="#m9d3a0aa651" y="101.639469"/>
     <use style="fill:none;stroke:#ff0000;stroke-linejoin:miter;" x="318.328875" xlink:href="#m9d3a0aa651" y="101.639469"/>
     <use style="fill:none;stroke:#ff0000;stroke-linejoin:miter;" x="318.328875" xlink:href="#m9d3a0aa651" y="101.639469"/>
     <use style="fill:none;stroke:#ff0000;stroke-linejoin:miter;" x="318.328875" xlink:href="#m9d3a0aa651" y="101.639469"/>
     <use style="fill:none;stroke:#ff0000;stroke-linejoin:miter;" x="318.328875" xlink:href="#m9d3a0aa651" y="101.639469"/>
     <use style="fill:none;stroke:#ff0000;stroke-linejoin:miter;" x="318.328875" xlink:href="#m9d3a0aa651" y="101.639469"/>
     <use style="fill:none;stroke:#ff0000;stroke-linejoin:miter;" x="318.328875" xlink:href="#m9d3a0aa651" y="101.639469"/>
     <use style="fill:none;stroke:#ff0000;stroke-linejoin:miter;" x="318.328875" xlink:href="#m9d3a0aa651" y="101.639469"/>
     <use style="fill:none;stroke:#ff0000;stroke-linejoin:miter;" x="318.328875" xlink:href="#m9d3a0aa651" y="101.639469"/>
     <use style="fill:none;stroke:#ff0000;stroke-linejoin:miter;" x="318.328875" xlink:href="#m9d3a0aa651" y="101.639469"/>
     <use style="fill:none;stroke:#ff0000;stroke-linejoin:miter;" x="318.328875" xlink:href="#m9d3a0aa651" y="101.639469"/>
     <use style="fill:none;stroke:#ff0000;stroke-linejoin:miter;" x="318.328875" xlink:href="#m9d3a0aa651" y="101.639469"/>
     <use style="fill:none;stroke:#ff0000;stroke-linejoin:miter;" x="318.328875" xlink:href="#m9d3a0aa651" y="101.639469"/>
     <use style="fill:none;stroke:#ff0000;stroke-linejoin:miter;" x="318.328875" xlink:href="#m9d3a0aa651" y="101.639469"/>
    </g>
   </g>
   <g id="line2d_111">
    <path clip-path="url(#p36dd12a7d9)" d="M 52.216875 367.751469 
L 318.328875 101.639469 
" style="fill:none;stroke:#000000;stroke-linecap:square;stroke-width:1.5;"/>
   </g>
   <g id="line2d_112">
    <path clip-path="url(#p36dd12a7d9)" d="M 110.759146 367.751469 
L 330.528875 147.981739 
" style="fill:none;stroke:#000000;stroke-dasharray:1.5,2.475;stroke-dashoffset:0;stroke-width:1.5;"/>
   </g>
   <g id="line2d_113">
    <path clip-path="url(#p36dd12a7d9)" d="M 169.301416 367.751469 
L 330.528875 206.52401 
" style="fill:none;stroke:#000000;stroke-dasharray:1.5,2.475;stroke-dashoffset:0;stroke-width:1.5;"/>
   </g>
   <g id="line2d_114">
    <path clip-path="url(#p36dd12a7d9)" d="M 52.216875 309.209198 
L 318.328875 43.097198 
" style="fill:none;stroke:#000000;stroke-dasharray:1.5,2.475;stroke-dashoffset:0;stroke-width:1.5;"/>
   </g>
   <g id="line2d_115">
    <path clip-path="url(#p36dd12a7d9)" d="M 52.216875 250.666927 
L 303.883802 -1 
" style="fill:none;stroke:#000000;stroke-dasharray:1.5,2.475;stroke-dashoffset:0;stroke-width:1.5;"/>
   </g>
   <g id="patch_3">
    <path d="M 52.216875 367.751469 
L 52.216875 101.639469 
" style="fill:none;stroke:#000000;stroke-linecap:square;stroke-linejoin:miter;stroke-width:0.8;"/>
   </g>
   <g id="patch_4">
    <path d="M 318.328875 367.751469 
L 318.328875 101.639469 
" style="fill:none;stroke:#000000;stroke-linecap:square;stroke-linejoin:miter;stroke-width:0.8;"/>
   </g>
   <g id="patch_5">
    <path d="M 52.216875 367.751469 
L 318.328875 367.751469 
" style="fill:none;stroke:#000000;stroke-linecap:square;stroke-linejoin:miter;stroke-width:0.8;"/>
   </g>
   <g id="patch_6">
    <path d="M 52.216875 101.639469 
L 318.328875 101.639469 
" style="fill:none;stroke:#000000;stroke-linecap:square;stroke-linejoin:miter;stroke-width:0.8;"/>
   </g>
   <g id="text_10">
    <!-- 21 targets in 100..1e-8 -->
    <defs>
     <path d="M 12.40625 8.296875 
L 28.515625 8.296875 
L 28.515625 63.921875 
L 10.984375 60.40625 
L 10.984375 69.390625 
L 28.421875 72.90625 
L 38.28125 72.90625 
L 38.28125 8.296875 
L 54.390625 8.296875 
L 54.390625 0 
L 12.40625 0 
z
" id="DejaVuSans-31"/>
     <path d="M 31.78125 66.40625 
Q 24.171875 66.40625 20.328125 58.90625 
Q 16.5 51.421875 16.5 36.375 
Q 16.5 21.390625 20.328125 13.890625 
Q 24.171875 6.390625 31.78125 6.390625 
Q 39.453125 6.390625 43.28125 13.890625 
Q 47.125 21.390625 47.125 36.375 
Q 47.125 51.421875 43.28125 58.90625 
Q 39.453125 66.40625 31.78125 66.40625 
z
M 31.78125 74.21875 
Q 44.046875 74.21875 50.515625 64.515625 
Q 56.984375 54.828125 56.984375 36.375 
Q 56.984375 17.96875 50.515625 8.265625 
Q 44.046875 -1.421875 31.78125 -1.421875 
Q 19.53125 -1.421875 13.0625 8.265625 
Q 6.59375 17.96875 6.59375 36.375 
Q 6.59375 54.828125 13.0625 64.515625 
Q 19.53125 74.21875 31.78125 74.21875 
z
" id="DejaVuSans-30"/>
     <path d="M 10.6875 12.40625 
L 21 12.40625 
L 21 0 
L 10.6875 0 
z
" id="DejaVuSans-2e"/>
     <path d="M 4.890625 31.390625 
L 31.203125 31.390625 
L 31.203125 23.390625 
L 4.890625 23.390625 
z
" id="DejaVuSans-2d"/>
     <path d="M 31.78125 34.625 
Q 24.75 34.625 20.71875 30.859375 
Q 16.703125 27.09375 16.703125 20.515625 
Q 16.703125 13.921875 20.71875 10.15625 
Q 24.75 6.390625 31.78125 6.390625 
Q 38.8125 6.390625 42.859375 10.171875 
Q 46.921875 13.96875 46.921875 20.515625 
Q 46.921875 27.09375 42.890625 30.859375 
Q 38.875 34.625 31.78125 34.625 
z
M 21.921875 38.8125 
Q 15.578125 40.375 12.03125 44.71875 
Q 8.5 49.078125 8.5 55.328125 
Q 8.5 64.0625 14.71875 69.140625 
Q 20.953125 74.21875 31.78125 74.21875 
Q 42.671875 74.21875 48.875 69.140625 
Q 55.078125 64.0625 55.078125 55.328125 
Q 55.078125 49.078125 51.53125 44.71875 
Q 48 40.375 41.703125 38.8125 
Q 48.828125 37.15625 52.796875 32.3125 
Q 56.78125 27.484375 56.78125 20.515625 
Q 56.78125 9.90625 50.3125 4.234375 
Q 43.84375 -1.421875 31.78125 -1.421875 
Q 19.734375 -1.421875 13.25 4.234375 
Q 6.78125 9.90625 6.78125 20.515625 
Q 6.78125 27.484375 10.78125 32.3125 
Q 14.796875 37.15625 21.921875 38.8125 
z
M 18.3125 54.390625 
Q 18.3125 48.734375 21.84375 45.5625 
Q 25.390625 42.390625 31.78125 42.390625 
Q 38.140625 42.390625 41.71875 45.5625 
Q 45.3125 48.734375 45.3125 54.390625 
Q 45.3125 60.0625 41.71875 63.234375 
Q 38.140625 66.40625 31.78125 66.40625 
Q 25.390625 66.40625 21.84375 63.234375 
Q 18.3125 60.0625 18.3125 54.390625 
z
" id="DejaVuSans-38"/>
    </defs>
    <g transform="translate(54.877995 119.620706)scale(0.1666 -0.1666)">
     <use xlink:href="#DejaVuSans-32"/>
     <use x="63.623047" xlink:href="#DejaVuSans-31"/>
     <use x="127.246094" xlink:href="#DejaVuSans-20"/>
     <use x="159.033203" xlink:href="#DejaVuSans-74"/>
     <use x="198.242188" xlink:href="#DejaVuSans-61"/>
     <use x="259.521484" xlink:href="#DejaVuSans-72"/>
     <use x="300.619141" xlink:href="#DejaVuSans-67"/>
     <use x="364.095703" xlink:href="#DejaVuSans-65"/>
     <use x="425.619141" xlink:href="#DejaVuSans-74"/>
     <use x="464.828125" xlink:href="#DejaVuSans-73"/>
     <use x="516.927734" xlink:href="#DejaVuSans-20"/>
     <use x="548.714844" xlink:href="#DejaVuSans-69"/>
     <use x="576.498047" xlink:href="#DejaVuSans-6e"/>
     <use x="639.876953" xlink:href="#DejaVuSans-20"/>
     <use x="671.664062" xlink:href="#DejaVuSans-31"/>
     <use x="735.287109" xlink:href="#DejaVuSans-30"/>
     <use x="798.910156" xlink:href="#DejaVuSans-30"/>
     <use x="862.533203" xlink:href="#DejaVuSans-2e"/>
     <use x="894.320312" xlink:href="#DejaVuSans-2e"/>
     <use x="926.107422" xlink:href="#DejaVuSans-31"/>
     <use x="989.730469" xlink:href="#DejaVuSans-65"/>
     <use x="1051.253906" xlink:href="#DejaVuSans-2d"/>
     <use x="1087.337891" xlink:href="#DejaVuSans-38"/>
    </g>
    <!-- 15 and 15 instances -->
    <defs>
     <path d="M 45.40625 46.390625 
L 45.40625 75.984375 
L 54.390625 75.984375 
L 54.390625 0 
L 45.40625 0 
L 45.40625 8.203125 
Q 42.578125 3.328125 38.25 0.953125 
Q 33.9375 -1.421875 27.875 -1.421875 
Q 17.96875 -1.421875 11.734375 6.484375 
Q 5.515625 14.40625 5.515625 27.296875 
Q 5.515625 40.1875 11.734375 48.09375 
Q 17.96875 56 27.875 56 
Q 33.9375 56 38.25 53.625 
Q 42.578125 51.265625 45.40625 46.390625 
z
M 14.796875 27.296875 
Q 14.796875 17.390625 18.875 11.75 
Q 22.953125 6.109375 30.078125 6.109375 
Q 37.203125 6.109375 41.296875 11.75 
Q 45.40625 17.390625 45.40625 27.296875 
Q 45.40625 37.203125 41.296875 42.84375 
Q 37.203125 48.484375 30.078125 48.484375 
Q 22.953125 48.484375 18.875 42.84375 
Q 14.796875 37.203125 14.796875 27.296875 
z
" id="DejaVuSans-64"/>
    </defs>
    <g transform="translate(54.877995 138.276261)scale(0.1666 -0.1666)">
     <use xlink:href="#DejaVuSans-31"/>
     <use x="63.623047" xlink:href="#DejaVuSans-35"/>
     <use x="127.246094" xlink:href="#DejaVuSans-20"/>
     <use x="159.033203" xlink:href="#DejaVuSans-61"/>
     <use x="220.3125" xlink:href="#DejaVuSans-6e"/>
     <use x="283.691406" xlink:href="#DejaVuSans-64"/>
     <use x="347.167969" xlink:href="#DejaVuSans-20"/>
     <use x="378.955078" xlink:href="#DejaVuSans-31"/>
     <use x="442.578125" xlink:href="#DejaVuSans-35"/>
     <use x="506.201172" xlink:href="#DejaVuSans-20"/>
     <use x="537.988281" xlink:href="#DejaVuSans-69"/>
     <use x="565.771484" xlink:href="#DejaVuSans-6e"/>
     <use x="629.150391" xlink:href="#DejaVuSans-73"/>
     <use x="681.25" xlink:href="#DejaVuSans-74"/>
     <use x="720.458984" xlink:href="#DejaVuSans-61"/>
     <use x="781.738281" xlink:href="#DejaVuSans-6e"/>
     <use x="845.117188" xlink:href="#DejaVuSans-63"/>
     <use x="900.097656" xlink:href="#DejaVuSans-65"/>
     <use x="961.621094" xlink:href="#DejaVuSans-73"/>
    </g>
   </g>
   <g id="text_11">
    <!-- v2.0.361 -->
    <defs>
     <path d="M 2.984375 54.6875 
L 12.5 54.6875 
L 29.59375 8.796875 
L 46.6875 54.6875 
L 56.203125 54.6875 
L 35.6875 0 
L 23.484375 0 
z
" id="DejaVuSans-76"/>
     <path d="M 33.015625 40.375 
Q 26.375 40.375 22.484375 35.828125 
Q 18.609375 31.296875 18.609375 23.390625 
Q 18.609375 15.53125 22.484375 10.953125 
Q 26.375 6.390625 33.015625 6.390625 
Q 39.65625 6.390625 43.53125 10.953125 
Q 47.40625 15.53125 47.40625 23.390625 
Q 47.40625 31.296875 43.53125 35.828125 
Q 39.65625 40.375 33.015625 40.375 
z
M 52.59375 71.296875 
L 52.59375 62.3125 
Q 48.875 64.0625 45.09375 64.984375 
Q 41.3125 65.921875 37.59375 65.921875 
Q 27.828125 65.921875 22.671875 59.328125 
Q 17.53125 52.734375 16.796875 39.40625 
Q 19.671875 43.65625 24.015625 45.921875 
Q 28.375 48.1875 33.59375 48.1875 
Q 44.578125 48.1875 50.953125 41.515625 
Q 57.328125 34.859375 57.328125 23.390625 
Q 57.328125 12.15625 50.6875 5.359375 
Q 44.046875 -1.421875 33.015625 -1.421875 
Q 20.359375 -1.421875 13.671875 8.265625 
Q 6.984375 17.96875 6.984375 36.375 
Q 6.984375 53.65625 15.1875 63.9375 
Q 23.390625 74.21875 37.203125 74.21875 
Q 40.921875 74.21875 44.703125 73.484375 
Q 48.484375 72.75 52.59375 71.296875 
z
" id="DejaVuSans-36"/>
    </defs>
    <g style="fill:#808080;" transform="translate(163.229125 363.010661)scale(0.1 -0.1)">
     <use xlink:href="#DejaVuSans-76"/>
     <use x="59.179688" xlink:href="#DejaVuSans-32"/>
     <use x="122.802734" xlink:href="#DejaVuSans-2e"/>
     <use x="154.589844" xlink:href="#DejaVuSans-30"/>
     <use x="218.212891" xlink:href="#DejaVuSans-2e"/>
     <use x="250" xlink:href="#DejaVuSans-33"/>
     <use x="313.623047" xlink:href="#DejaVuSans-36"/>
     <use x="377.246094" xlink:href="#DejaVuSans-31"/>
    </g>
   </g>
  </g>
 </g>
 <defs>
  <clipPath id="p36dd12a7d9">
   <rect height="266.112" width="266.112" x="52.216875" y="101.639469"/>
  </clipPath>
 </defs>
</svg>
