<?xml version="1.0" encoding="utf-8" standalone="no"?>
<!DOCTYPE svg PUBLIC "-//W3C//DTD SVG 1.1//EN"
  "http://www.w3.org/Graphics/SVG/1.1/DTD/svg11.dtd">
<!-- Created with matplotlib (http://matplotlib.org/) -->
<svg height="353pt" version="1.1" viewBox="0 0 526 353" width="526pt" xmlns="http://www.w3.org/2000/svg" xmlns:xlink="http://www.w3.org/1999/xlink">
 <defs>
  <style type="text/css">
*{stroke-linecap:butt;stroke-linejoin:round;}
  </style>
 </defs>
 <g id="figure_1">
  <g id="patch_1">
   <path d="M 0 353.22225 
L 526.02375 353.22225 
L 526.02375 0 
L 0 0 
z
" style="fill:#ffffff;"/>
  </g>
  <g id="axes_1">
   <g id="patch_2">
    <path d="M 84.451875 298.245375 
L 441.571875 298.245375 
L 441.571875 32.133375 
L 84.451875 32.133375 
z
" style="fill:#ffffff;"/>
   </g>
   <g id="matplotlib.axis_1">
    <g id="xtick_1">
     <g id="line2d_1">
      <path clip-path="url(#p9910b95198)" d="M 84.451875 298.245375 
L 84.451875 32.133375 
" style="fill:none;stroke:#b0b0b0;stroke-linecap:square;stroke-width:0.8;"/>
     </g>
     <g id="line2d_2">
      <defs>
       <path d="M 0 0 
L 0 3.5 
" id="ma41ffeea6e" style="stroke:#000000;stroke-width:0.8;"/>
      </defs>
      <g>
       <use style="stroke:#000000;stroke-width:0.8;" x="84.451875" xlink:href="#ma41ffeea6e" y="298.245375"/>
      </g>
     </g>
     <g id="text_1">
      <!-- 0 -->
      <defs>
       <path d="M 31.78125 66.40625 
Q 24.171875 66.40625 20.328125 58.90625 
Q 16.5 51.421875 16.5 36.375 
Q 16.5 21.390625 20.328125 13.890625 
Q 24.171875 6.390625 31.78125 6.390625 
Q 39.453125 6.390625 43.28125 13.890625 
Q 47.125 21.390625 47.125 36.375 
Q 47.125 51.421875 43.28125 58.90625 
Q 39.453125 66.40625 31.78125 66.40625 
z
M 31.78125 74.21875 
Q 44.046875 74.21875 50.515625 64.515625 
Q 56.984375 54.828125 56.984375 36.375 
Q 56.984375 17.96875 50.515625 8.265625 
Q 44.046875 -1.421875 31.78125 -1.421875 
Q 19.53125 -1.421875 13.0625 8.265625 
Q 6.59375 17.96875 6.59375 36.375 
Q 6.59375 54.828125 13.0625 64.515625 
Q 19.53125 74.21875 31.78125 74.21875 
z
" id="DejaVuSans-30"/>
      </defs>
      <g transform="translate(78.089375 320.44225)scale(0.2 -0.2)">
       <use xlink:href="#DejaVuSans-30"/>
      </g>
     </g>
    </g>
    <g id="xtick_2">
     <g id="line2d_3">
      <path clip-path="url(#p9910b95198)" d="M 166.737589 298.245375 
L 166.737589 32.133375 
" style="fill:none;stroke:#b0b0b0;stroke-linecap:square;stroke-width:0.8;"/>
     </g>
     <g id="line2d_4">
      <g>
       <use style="stroke:#000000;stroke-width:0.8;" x="166.737589" xlink:href="#ma41ffeea6e" y="298.245375"/>
      </g>
     </g>
     <g id="text_2">
      <!-- 2 -->
      <defs>
       <path d="M 19.1875 8.296875 
L 53.609375 8.296875 
L 53.609375 0 
L 7.328125 0 
L 7.328125 8.296875 
Q 12.9375 14.109375 22.625 23.890625 
Q 32.328125 33.6875 34.8125 36.53125 
Q 39.546875 41.84375 41.421875 45.53125 
Q 43.3125 49.21875 43.3125 52.78125 
Q 43.3125 58.59375 39.234375 62.25 
Q 35.15625 65.921875 28.609375 65.921875 
Q 23.96875 65.921875 18.8125 64.3125 
Q 13.671875 62.703125 7.8125 59.421875 
L 7.8125 69.390625 
Q 13.765625 71.78125 18.9375 73 
Q 24.125 74.21875 28.421875 74.21875 
Q 39.75 74.21875 46.484375 68.546875 
Q 53.21875 62.890625 53.21875 53.421875 
Q 53.21875 48.921875 51.53125 44.890625 
Q 49.859375 40.875 45.40625 35.40625 
Q 44.1875 33.984375 37.640625 27.21875 
Q 31.109375 20.453125 19.1875 8.296875 
z
" id="DejaVuSans-32"/>
      </defs>
      <g transform="translate(160.375089 320.44225)scale(0.2 -0.2)">
       <use xlink:href="#DejaVuSans-32"/>
      </g>
     </g>
    </g>
    <g id="xtick_3">
     <g id="line2d_5">
      <path clip-path="url(#p9910b95198)" d="M 249.023304 298.245375 
L 249.023304 32.133375 
" style="fill:none;stroke:#b0b0b0;stroke-linecap:square;stroke-width:0.8;"/>
     </g>
     <g id="line2d_6">
      <g>
       <use style="stroke:#000000;stroke-width:0.8;" x="249.023304" xlink:href="#ma41ffeea6e" y="298.245375"/>
      </g>
     </g>
     <g id="text_3">
      <!-- 4 -->
      <defs>
       <path d="M 37.796875 64.3125 
L 12.890625 25.390625 
L 37.796875 25.390625 
z
M 35.203125 72.90625 
L 47.609375 72.90625 
L 47.609375 25.390625 
L 58.015625 25.390625 
L 58.015625 17.1875 
L 47.609375 17.1875 
L 47.609375 0 
L 37.796875 0 
L 37.796875 17.1875 
L 4.890625 17.1875 
L 4.890625 26.703125 
z
" id="DejaVuSans-34"/>
      </defs>
      <g transform="translate(242.660804 320.44225)scale(0.2 -0.2)">
       <use xlink:href="#DejaVuSans-34"/>
      </g>
     </g>
    </g>
    <g id="xtick_4">
     <g id="line2d_7">
      <path clip-path="url(#p9910b95198)" d="M 331.309018 298.245375 
L 331.309018 32.133375 
" style="fill:none;stroke:#b0b0b0;stroke-linecap:square;stroke-width:0.8;"/>
     </g>
     <g id="line2d_8">
      <g>
       <use style="stroke:#000000;stroke-width:0.8;" x="331.309018" xlink:href="#ma41ffeea6e" y="298.245375"/>
      </g>
     </g>
     <g id="text_4">
      <!-- 6 -->
      <defs>
       <path d="M 33.015625 40.375 
Q 26.375 40.375 22.484375 35.828125 
Q 18.609375 31.296875 18.609375 23.390625 
Q 18.609375 15.53125 22.484375 10.953125 
Q 26.375 6.390625 33.015625 6.390625 
Q 39.65625 6.390625 43.53125 10.953125 
Q 47.40625 15.53125 47.40625 23.390625 
Q 47.40625 31.296875 43.53125 35.828125 
Q 39.65625 40.375 33.015625 40.375 
z
M 52.59375 71.296875 
L 52.59375 62.3125 
Q 48.875 64.0625 45.09375 64.984375 
Q 41.3125 65.921875 37.59375 65.921875 
Q 27.828125 65.921875 22.671875 59.328125 
Q 17.53125 52.734375 16.796875 39.40625 
Q 19.671875 43.65625 24.015625 45.921875 
Q 28.375 48.1875 33.59375 48.1875 
Q 44.578125 48.1875 50.953125 41.515625 
Q 57.328125 34.859375 57.328125 23.390625 
Q 57.328125 12.15625 50.6875 5.359375 
Q 44.046875 -1.421875 33.015625 -1.421875 
Q 20.359375 -1.421875 13.671875 8.265625 
Q 6.984375 17.96875 6.984375 36.375 
Q 6.984375 53.65625 15.1875 63.9375 
Q 23.390625 74.21875 37.203125 74.21875 
Q 40.921875 74.21875 44.703125 73.484375 
Q 48.484375 72.75 52.59375 71.296875 
z
" id="DejaVuSans-36"/>
      </defs>
      <g transform="translate(324.946518 320.44225)scale(0.2 -0.2)">
       <use xlink:href="#DejaVuSans-36"/>
      </g>
     </g>
    </g>
    <g id="xtick_5">
     <g id="line2d_9">
      <path clip-path="url(#p9910b95198)" d="M 413.594732 298.245375 
L 413.594732 32.133375 
" style="fill:none;stroke:#b0b0b0;stroke-linecap:square;stroke-width:0.8;"/>
     </g>
     <g id="line2d_10">
      <g>
       <use style="stroke:#000000;stroke-width:0.8;" x="413.594732" xlink:href="#ma41ffeea6e" y="298.245375"/>
      </g>
     </g>
     <g id="text_5">
      <!-- 8 -->
      <defs>
       <path d="M 31.78125 34.625 
Q 24.75 34.625 20.71875 30.859375 
Q 16.703125 27.09375 16.703125 20.515625 
Q 16.703125 13.921875 20.71875 10.15625 
Q 24.75 6.390625 31.78125 6.390625 
Q 38.8125 6.390625 42.859375 10.171875 
Q 46.921875 13.96875 46.921875 20.515625 
Q 46.921875 27.09375 42.890625 30.859375 
Q 38.875 34.625 31.78125 34.625 
z
M 21.921875 38.8125 
Q 15.578125 40.375 12.03125 44.71875 
Q 8.5 49.078125 8.5 55.328125 
Q 8.5 64.0625 14.71875 69.140625 
Q 20.953125 74.21875 31.78125 74.21875 
Q 42.671875 74.21875 48.875 69.140625 
Q 55.078125 64.0625 55.078125 55.328125 
Q 55.078125 49.078125 51.53125 44.71875 
Q 48 40.375 41.703125 38.8125 
Q 48.828125 37.15625 52.796875 32.3125 
Q 56.78125 27.484375 56.78125 20.515625 
Q 56.78125 9.90625 50.3125 4.234375 
Q 43.84375 -1.421875 31.78125 -1.421875 
Q 19.734375 -1.421875 13.25 4.234375 
Q 6.78125 9.90625 6.78125 20.515625 
Q 6.78125 27.484375 10.78125 32.3125 
Q 14.796875 37.15625 21.921875 38.8125 
z
M 18.3125 54.390625 
Q 18.3125 48.734375 21.84375 45.5625 
Q 25.390625 42.390625 31.78125 42.390625 
Q 38.140625 42.390625 41.71875 45.5625 
Q 45.3125 48.734375 45.3125 54.390625 
Q 45.3125 60.0625 41.71875 63.234375 
Q 38.140625 66.40625 31.78125 66.40625 
Q 25.390625 66.40625 21.84375 63.234375 
Q 18.3125 60.0625 18.3125 54.390625 
z
" id="DejaVuSans-38"/>
      </defs>
      <g transform="translate(407.232232 320.44225)scale(0.2 -0.2)">
       <use xlink:href="#DejaVuSans-38"/>
      </g>
     </g>
    </g>
    <g id="text_6">
     <!-- log10 of # (f+g)-evals / dimension -->
     <defs>
      <path d="M 9.421875 75.984375 
L 18.40625 75.984375 
L 18.40625 0 
L 9.421875 0 
z
" id="DejaVuSans-6c"/>
      <path d="M 30.609375 48.390625 
Q 23.390625 48.390625 19.1875 42.75 
Q 14.984375 37.109375 14.984375 27.296875 
Q 14.984375 17.484375 19.15625 11.84375 
Q 23.34375 6.203125 30.609375 6.203125 
Q 37.796875 6.203125 41.984375 11.859375 
Q 46.1875 17.53125 46.1875 27.296875 
Q 46.1875 37.015625 41.984375 42.703125 
Q 37.796875 48.390625 30.609375 48.390625 
z
M 30.609375 56 
Q 42.328125 56 49.015625 48.375 
Q 55.71875 40.765625 55.71875 27.296875 
Q 55.71875 13.875 49.015625 6.21875 
Q 42.328125 -1.421875 30.609375 -1.421875 
Q 18.84375 -1.421875 12.171875 6.21875 
Q 5.515625 13.875 5.515625 27.296875 
Q 5.515625 40.765625 12.171875 48.375 
Q 18.84375 56 30.609375 56 
z
" id="DejaVuSans-6f"/>
      <path d="M 45.40625 27.984375 
Q 45.40625 37.75 41.375 43.109375 
Q 37.359375 48.484375 30.078125 48.484375 
Q 22.859375 48.484375 18.828125 43.109375 
Q 14.796875 37.75 14.796875 27.984375 
Q 14.796875 18.265625 18.828125 12.890625 
Q 22.859375 7.515625 30.078125 7.515625 
Q 37.359375 7.515625 41.375 12.890625 
Q 45.40625 18.265625 45.40625 27.984375 
z
M 54.390625 6.78125 
Q 54.390625 -7.171875 48.1875 -13.984375 
Q 42 -20.796875 29.203125 -20.796875 
Q 24.46875 -20.796875 20.265625 -20.09375 
Q 16.0625 -19.390625 12.109375 -17.921875 
L 12.109375 -9.1875 
Q 16.0625 -11.328125 19.921875 -12.34375 
Q 23.78125 -13.375 27.78125 -13.375 
Q 36.625 -13.375 41.015625 -8.765625 
Q 45.40625 -4.15625 45.40625 5.171875 
L 45.40625 9.625 
Q 42.625 4.78125 38.28125 2.390625 
Q 33.9375 0 27.875 0 
Q 17.828125 0 11.671875 7.65625 
Q 5.515625 15.328125 5.515625 27.984375 
Q 5.515625 40.671875 11.671875 48.328125 
Q 17.828125 56 27.875 56 
Q 33.9375 56 38.28125 53.609375 
Q 42.625 51.21875 45.40625 46.390625 
L 45.40625 54.6875 
L 54.390625 54.6875 
z
" id="DejaVuSans-67"/>
      <path d="M 12.40625 8.296875 
L 28.515625 8.296875 
L 28.515625 63.921875 
L 10.984375 60.40625 
L 10.984375 69.390625 
L 28.421875 72.90625 
L 38.28125 72.90625 
L 38.28125 8.296875 
L 54.390625 8.296875 
L 54.390625 0 
L 12.40625 0 
z
" id="DejaVuSans-31"/>
      <path id="DejaVuSans-20"/>
      <path d="M 37.109375 75.984375 
L 37.109375 68.5 
L 28.515625 68.5 
Q 23.6875 68.5 21.796875 66.546875 
Q 19.921875 64.59375 19.921875 59.515625 
L 19.921875 54.6875 
L 34.71875 54.6875 
L 34.71875 47.703125 
L 19.921875 47.703125 
L 19.921875 0 
L 10.890625 0 
L 10.890625 47.703125 
L 2.296875 47.703125 
L 2.296875 54.6875 
L 10.890625 54.6875 
L 10.890625 58.5 
Q 10.890625 67.625 15.140625 71.796875 
Q 19.390625 75.984375 28.609375 75.984375 
z
" id="DejaVuSans-66"/>
      <path d="M 51.125 44 
L 36.921875 44 
L 32.8125 27.6875 
L 47.125 27.6875 
z
M 43.796875 71.78125 
L 38.71875 51.515625 
L 52.984375 51.515625 
L 58.109375 71.78125 
L 65.921875 71.78125 
L 60.890625 51.515625 
L 76.125 51.515625 
L 76.125 44 
L 58.984375 44 
L 54.984375 27.6875 
L 70.515625 27.6875 
L 70.515625 20.21875 
L 53.078125 20.21875 
L 48 0 
L 40.1875 0 
L 45.21875 20.21875 
L 30.90625 20.21875 
L 25.875 0 
L 18.015625 0 
L 23.09375 20.21875 
L 7.71875 20.21875 
L 7.71875 27.6875 
L 24.90625 27.6875 
L 29 44 
L 13.28125 44 
L 13.28125 51.515625 
L 30.90625 51.515625 
L 35.890625 71.78125 
z
" id="DejaVuSans-23"/>
      <path d="M 31 75.875 
Q 24.46875 64.65625 21.28125 53.65625 
Q 18.109375 42.671875 18.109375 31.390625 
Q 18.109375 20.125 21.3125 9.0625 
Q 24.515625 -2 31 -13.1875 
L 23.1875 -13.1875 
Q 15.875 -1.703125 12.234375 9.375 
Q 8.59375 20.453125 8.59375 31.390625 
Q 8.59375 42.28125 12.203125 53.3125 
Q 15.828125 64.359375 23.1875 75.875 
z
" id="DejaVuSans-28"/>
      <path d="M 46 62.703125 
L 46 35.5 
L 73.1875 35.5 
L 73.1875 27.203125 
L 46 27.203125 
L 46 0 
L 37.796875 0 
L 37.796875 27.203125 
L 10.59375 27.203125 
L 10.59375 35.5 
L 37.796875 35.5 
L 37.796875 62.703125 
z
" id="DejaVuSans-2b"/>
      <path d="M 8.015625 75.875 
L 15.828125 75.875 
Q 23.140625 64.359375 26.78125 53.3125 
Q 30.421875 42.28125 30.421875 31.390625 
Q 30.421875 20.453125 26.78125 9.375 
Q 23.140625 -1.703125 15.828125 -13.1875 
L 8.015625 -13.1875 
Q 14.5 -2 17.703125 9.0625 
Q 20.90625 20.125 20.90625 31.390625 
Q 20.90625 42.671875 17.703125 53.65625 
Q 14.5 64.65625 8.015625 75.875 
z
" id="DejaVuSans-29"/>
      <path d="M 4.890625 31.390625 
L 31.203125 31.390625 
L 31.203125 23.390625 
L 4.890625 23.390625 
z
" id="DejaVuSans-2d"/>
      <path d="M 56.203125 29.59375 
L 56.203125 25.203125 
L 14.890625 25.203125 
Q 15.484375 15.921875 20.484375 11.0625 
Q 25.484375 6.203125 34.421875 6.203125 
Q 39.59375 6.203125 44.453125 7.46875 
Q 49.3125 8.734375 54.109375 11.28125 
L 54.109375 2.78125 
Q 49.265625 0.734375 44.1875 -0.34375 
Q 39.109375 -1.421875 33.890625 -1.421875 
Q 20.796875 -1.421875 13.15625 6.1875 
Q 5.515625 13.8125 5.515625 26.8125 
Q 5.515625 40.234375 12.765625 48.109375 
Q 20.015625 56 32.328125 56 
Q 43.359375 56 49.78125 48.890625 
Q 56.203125 41.796875 56.203125 29.59375 
z
M 47.21875 32.234375 
Q 47.125 39.59375 43.09375 43.984375 
Q 39.0625 48.390625 32.421875 48.390625 
Q 24.90625 48.390625 20.390625 44.140625 
Q 15.875 39.890625 15.1875 32.171875 
z
" id="DejaVuSans-65"/>
      <path d="M 2.984375 54.6875 
L 12.5 54.6875 
L 29.59375 8.796875 
L 46.6875 54.6875 
L 56.203125 54.6875 
L 35.6875 0 
L 23.484375 0 
z
" id="DejaVuSans-76"/>
      <path d="M 34.28125 27.484375 
Q 23.390625 27.484375 19.1875 25 
Q 14.984375 22.515625 14.984375 16.5 
Q 14.984375 11.71875 18.140625 8.90625 
Q 21.296875 6.109375 26.703125 6.109375 
Q 34.1875 6.109375 38.703125 11.40625 
Q 43.21875 16.703125 43.21875 25.484375 
L 43.21875 27.484375 
z
M 52.203125 31.203125 
L 52.203125 0 
L 43.21875 0 
L 43.21875 8.296875 
Q 40.140625 3.328125 35.546875 0.953125 
Q 30.953125 -1.421875 24.3125 -1.421875 
Q 15.921875 -1.421875 10.953125 3.296875 
Q 6 8.015625 6 15.921875 
Q 6 25.140625 12.171875 29.828125 
Q 18.359375 34.515625 30.609375 34.515625 
L 43.21875 34.515625 
L 43.21875 35.40625 
Q 43.21875 41.609375 39.140625 45 
Q 35.0625 48.390625 27.6875 48.390625 
Q 23 48.390625 18.546875 47.265625 
Q 14.109375 46.140625 10.015625 43.890625 
L 10.015625 52.203125 
Q 14.9375 54.109375 19.578125 55.046875 
Q 24.21875 56 28.609375 56 
Q 40.484375 56 46.34375 49.84375 
Q 52.203125 43.703125 52.203125 31.203125 
z
" id="DejaVuSans-61"/>
      <path d="M 44.28125 53.078125 
L 44.28125 44.578125 
Q 40.484375 46.53125 36.375 47.5 
Q 32.28125 48.484375 27.875 48.484375 
Q 21.1875 48.484375 17.84375 46.4375 
Q 14.5 44.390625 14.5 40.28125 
Q 14.5 37.15625 16.890625 35.375 
Q 19.28125 33.59375 26.515625 31.984375 
L 29.59375 31.296875 
Q 39.15625 29.25 43.1875 25.515625 
Q 47.21875 21.78125 47.21875 15.09375 
Q 47.21875 7.46875 41.1875 3.015625 
Q 35.15625 -1.421875 24.609375 -1.421875 
Q 20.21875 -1.421875 15.453125 -0.5625 
Q 10.6875 0.296875 5.421875 2 
L 5.421875 11.28125 
Q 10.40625 8.6875 15.234375 7.390625 
Q 20.0625 6.109375 24.8125 6.109375 
Q 31.15625 6.109375 34.5625 8.28125 
Q 37.984375 10.453125 37.984375 14.40625 
Q 37.984375 18.0625 35.515625 20.015625 
Q 33.0625 21.96875 24.703125 23.78125 
L 21.578125 24.515625 
Q 13.234375 26.265625 9.515625 29.90625 
Q 5.8125 33.546875 5.8125 39.890625 
Q 5.8125 47.609375 11.28125 51.796875 
Q 16.75 56 26.8125 56 
Q 31.78125 56 36.171875 55.265625 
Q 40.578125 54.546875 44.28125 53.078125 
z
" id="DejaVuSans-73"/>
      <path d="M 25.390625 72.90625 
L 33.6875 72.90625 
L 8.296875 -9.28125 
L 0 -9.28125 
z
" id="DejaVuSans-2f"/>
      <path d="M 45.40625 46.390625 
L 45.40625 75.984375 
L 54.390625 75.984375 
L 54.390625 0 
L 45.40625 0 
L 45.40625 8.203125 
Q 42.578125 3.328125 38.25 0.953125 
Q 33.9375 -1.421875 27.875 -1.421875 
Q 17.96875 -1.421875 11.734375 6.484375 
Q 5.515625 14.40625 5.515625 27.296875 
Q 5.515625 40.1875 11.734375 48.09375 
Q 17.96875 56 27.875 56 
Q 33.9375 56 38.25 53.625 
Q 42.578125 51.265625 45.40625 46.390625 
z
M 14.796875 27.296875 
Q 14.796875 17.390625 18.875 11.75 
Q 22.953125 6.109375 30.078125 6.109375 
Q 37.203125 6.109375 41.296875 11.75 
Q 45.40625 17.390625 45.40625 27.296875 
Q 45.40625 37.203125 41.296875 42.84375 
Q 37.203125 48.484375 30.078125 48.484375 
Q 22.953125 48.484375 18.875 42.84375 
Q 14.796875 37.203125 14.796875 27.296875 
z
" id="DejaVuSans-64"/>
      <path d="M 9.421875 54.6875 
L 18.40625 54.6875 
L 18.40625 0 
L 9.421875 0 
z
M 9.421875 75.984375 
L 18.40625 75.984375 
L 18.40625 64.59375 
L 9.421875 64.59375 
z
" id="DejaVuSans-69"/>
      <path d="M 52 44.1875 
Q 55.375 50.25 60.0625 53.125 
Q 64.75 56 71.09375 56 
Q 79.640625 56 84.28125 50.015625 
Q 88.921875 44.046875 88.921875 33.015625 
L 88.921875 0 
L 79.890625 0 
L 79.890625 32.71875 
Q 79.890625 40.578125 77.09375 44.375 
Q 74.3125 48.1875 68.609375 48.1875 
Q 61.625 48.1875 57.5625 43.546875 
Q 53.515625 38.921875 53.515625 30.90625 
L 53.515625 0 
L 44.484375 0 
L 44.484375 32.71875 
Q 44.484375 40.625 41.703125 44.40625 
Q 38.921875 48.1875 33.109375 48.1875 
Q 26.21875 48.1875 22.15625 43.53125 
Q 18.109375 38.875 18.109375 30.90625 
L 18.109375 0 
L 9.078125 0 
L 9.078125 54.6875 
L 18.109375 54.6875 
L 18.109375 46.1875 
Q 21.1875 51.21875 25.484375 53.609375 
Q 29.78125 56 35.6875 56 
Q 41.65625 56 45.828125 52.96875 
Q 50 49.953125 52 44.1875 
z
" id="DejaVuSans-6d"/>
      <path d="M 54.890625 33.015625 
L 54.890625 0 
L 45.90625 0 
L 45.90625 32.71875 
Q 45.90625 40.484375 42.875 44.328125 
Q 39.84375 48.1875 33.796875 48.1875 
Q 26.515625 48.1875 22.3125 43.546875 
Q 18.109375 38.921875 18.109375 30.90625 
L 18.109375 0 
L 9.078125 0 
L 9.078125 54.6875 
L 18.109375 54.6875 
L 18.109375 46.1875 
Q 21.34375 51.125 25.703125 53.5625 
Q 30.078125 56 35.796875 56 
Q 45.21875 56 50.046875 50.171875 
Q 54.890625 44.34375 54.890625 33.015625 
z
" id="DejaVuSans-6e"/>
     </defs>
     <g transform="translate(107.404688 342.278812)scale(0.18 -0.18)">
      <use xlink:href="#DejaVuSans-6c"/>
      <use x="27.783203" xlink:href="#DejaVuSans-6f"/>
      <use x="88.964844" xlink:href="#DejaVuSans-67"/>
      <use x="152.441406" xlink:href="#DejaVuSans-31"/>
      <use x="216.064453" xlink:href="#DejaVuSans-30"/>
      <use x="279.6875" xlink:href="#DejaVuSans-20"/>
      <use x="311.474609" xlink:href="#DejaVuSans-6f"/>
      <use x="372.65625" xlink:href="#DejaVuSans-66"/>
      <use x="407.861328" xlink:href="#DejaVuSans-20"/>
      <use x="439.648438" xlink:href="#DejaVuSans-23"/>
      <use x="523.4375" xlink:href="#DejaVuSans-20"/>
      <use x="555.224609" xlink:href="#DejaVuSans-28"/>
      <use x="594.238281" xlink:href="#DejaVuSans-66"/>
      <use x="629.443359" xlink:href="#DejaVuSans-2b"/>
      <use x="713.232422" xlink:href="#DejaVuSans-67"/>
      <use x="776.708984" xlink:href="#DejaVuSans-29"/>
      <use x="815.722656" xlink:href="#DejaVuSans-2d"/>
      <use x="851.806641" xlink:href="#DejaVuSans-65"/>
      <use x="913.330078" xlink:href="#DejaVuSans-76"/>
      <use x="972.509766" xlink:href="#DejaVuSans-61"/>
      <use x="1033.789062" xlink:href="#DejaVuSans-6c"/>
      <use x="1061.572266" xlink:href="#DejaVuSans-73"/>
      <use x="1113.671875" xlink:href="#DejaVuSans-20"/>
      <use x="1145.458984" xlink:href="#DejaVuSans-2f"/>
      <use x="1179.150391" xlink:href="#DejaVuSans-20"/>
      <use x="1210.9375" xlink:href="#DejaVuSans-64"/>
      <use x="1274.414062" xlink:href="#DejaVuSans-69"/>
      <use x="1302.197266" xlink:href="#DejaVuSans-6d"/>
      <use x="1399.609375" xlink:href="#DejaVuSans-65"/>
      <use x="1461.132812" xlink:href="#DejaVuSans-6e"/>
      <use x="1524.511719" xlink:href="#DejaVuSans-73"/>
      <use x="1576.611328" xlink:href="#DejaVuSans-69"/>
      <use x="1604.394531" xlink:href="#DejaVuSans-6f"/>
      <use x="1665.576172" xlink:href="#DejaVuSans-6e"/>
     </g>
    </g>
   </g>
   <g id="matplotlib.axis_2">
    <g id="ytick_1">
     <g id="line2d_11">
      <path clip-path="url(#p9910b95198)" d="M 84.451875 298.245375 
L 441.571875 298.245375 
" style="fill:none;stroke:#b0b0b0;stroke-linecap:square;stroke-width:0.8;"/>
     </g>
     <g id="line2d_12">
      <defs>
       <path d="M 0 0 
L -3.5 0 
" id="m20ea7ee37a" style="stroke:#000000;stroke-width:0.8;"/>
      </defs>
      <g>
       <use style="stroke:#000000;stroke-width:0.8;" x="84.451875" xlink:href="#m20ea7ee37a" y="298.245375"/>
      </g>
     </g>
     <g id="text_7">
      <!-- 0.0 -->
      <defs>
       <path d="M 10.6875 12.40625 
L 21 12.40625 
L 21 0 
L 10.6875 0 
z
" id="DejaVuSans-2e"/>
      </defs>
      <g transform="translate(45.645625 305.843812)scale(0.2 -0.2)">
       <use xlink:href="#DejaVuSans-30"/>
       <use x="63.623047" xlink:href="#DejaVuSans-2e"/>
       <use x="95.410156" xlink:href="#DejaVuSans-30"/>
      </g>
     </g>
    </g>
    <g id="ytick_2">
     <g id="line2d_13">
      <path clip-path="url(#p9910b95198)" d="M 84.451875 245.549929 
L 441.571875 245.549929 
" style="fill:none;stroke:#b0b0b0;stroke-linecap:square;stroke-width:0.8;"/>
     </g>
     <g id="line2d_14">
      <g>
       <use style="stroke:#000000;stroke-width:0.8;" x="84.451875" xlink:href="#m20ea7ee37a" y="245.549929"/>
      </g>
     </g>
     <g id="text_8">
      <!-- 0.2 -->
      <g transform="translate(45.645625 253.148367)scale(0.2 -0.2)">
       <use xlink:href="#DejaVuSans-30"/>
       <use x="63.623047" xlink:href="#DejaVuSans-2e"/>
       <use x="95.410156" xlink:href="#DejaVuSans-32"/>
      </g>
     </g>
    </g>
    <g id="ytick_3">
     <g id="line2d_15">
      <path clip-path="url(#p9910b95198)" d="M 84.451875 192.854484 
L 441.571875 192.854484 
" style="fill:none;stroke:#b0b0b0;stroke-linecap:square;stroke-width:0.8;"/>
     </g>
     <g id="line2d_16">
      <g>
       <use style="stroke:#000000;stroke-width:0.8;" x="84.451875" xlink:href="#m20ea7ee37a" y="192.854484"/>
      </g>
     </g>
     <g id="text_9">
      <!-- 0.4 -->
      <g transform="translate(45.645625 200.452921)scale(0.2 -0.2)">
       <use xlink:href="#DejaVuSans-30"/>
       <use x="63.623047" xlink:href="#DejaVuSans-2e"/>
       <use x="95.410156" xlink:href="#DejaVuSans-34"/>
      </g>
     </g>
    </g>
    <g id="ytick_4">
     <g id="line2d_17">
      <path clip-path="url(#p9910b95198)" d="M 84.451875 140.159038 
L 441.571875 140.159038 
" style="fill:none;stroke:#b0b0b0;stroke-linecap:square;stroke-width:0.8;"/>
     </g>
     <g id="line2d_18">
      <g>
       <use style="stroke:#000000;stroke-width:0.8;" x="84.451875" xlink:href="#m20ea7ee37a" y="140.159038"/>
      </g>
     </g>
     <g id="text_10">
      <!-- 0.6 -->
      <g transform="translate(45.645625 147.757476)scale(0.2 -0.2)">
       <use xlink:href="#DejaVuSans-30"/>
       <use x="63.623047" xlink:href="#DejaVuSans-2e"/>
       <use x="95.410156" xlink:href="#DejaVuSans-36"/>
      </g>
     </g>
    </g>
    <g id="ytick_5">
     <g id="line2d_19">
      <path clip-path="url(#p9910b95198)" d="M 84.451875 87.463593 
L 441.571875 87.463593 
" style="fill:none;stroke:#b0b0b0;stroke-linecap:square;stroke-width:0.8;"/>
     </g>
     <g id="line2d_20">
      <g>
       <use style="stroke:#000000;stroke-width:0.8;" x="84.451875" xlink:href="#m20ea7ee37a" y="87.463593"/>
      </g>
     </g>
     <g id="text_11">
      <!-- 0.8 -->
      <g transform="translate(45.645625 95.06203)scale(0.2 -0.2)">
       <use xlink:href="#DejaVuSans-30"/>
       <use x="63.623047" xlink:href="#DejaVuSans-2e"/>
       <use x="95.410156" xlink:href="#DejaVuSans-38"/>
      </g>
     </g>
    </g>
    <g id="ytick_6">
     <g id="line2d_21">
      <path clip-path="url(#p9910b95198)" d="M 84.451875 34.768147 
L 441.571875 34.768147 
" style="fill:none;stroke:#b0b0b0;stroke-linecap:square;stroke-width:0.8;"/>
     </g>
     <g id="line2d_22">
      <g>
       <use style="stroke:#000000;stroke-width:0.8;" x="84.451875" xlink:href="#m20ea7ee37a" y="34.768147"/>
      </g>
     </g>
     <g id="text_12">
      <!-- 1.0 -->
      <g transform="translate(45.645625 42.366585)scale(0.2 -0.2)">
       <use xlink:href="#DejaVuSans-31"/>
       <use x="63.623047" xlink:href="#DejaVuSans-2e"/>
       <use x="95.410156" xlink:href="#DejaVuSans-30"/>
      </g>
     </g>
    </g>
    <g id="text_13">
     <!-- Proportion of function+target pairs -->
     <defs>
      <path d="M 19.671875 64.796875 
L 19.671875 37.40625 
L 32.078125 37.40625 
Q 38.96875 37.40625 42.71875 40.96875 
Q 46.484375 44.53125 46.484375 51.125 
Q 46.484375 57.671875 42.71875 61.234375 
Q 38.96875 64.796875 32.078125 64.796875 
z
M 9.8125 72.90625 
L 32.078125 72.90625 
Q 44.34375 72.90625 50.609375 67.359375 
Q 56.890625 61.8125 56.890625 51.125 
Q 56.890625 40.328125 50.609375 34.8125 
Q 44.34375 29.296875 32.078125 29.296875 
L 19.671875 29.296875 
L 19.671875 0 
L 9.8125 0 
z
" id="DejaVuSans-50"/>
      <path d="M 41.109375 46.296875 
Q 39.59375 47.171875 37.8125 47.578125 
Q 36.03125 48 33.890625 48 
Q 26.265625 48 22.1875 43.046875 
Q 18.109375 38.09375 18.109375 28.8125 
L 18.109375 0 
L 9.078125 0 
L 9.078125 54.6875 
L 18.109375 54.6875 
L 18.109375 46.1875 
Q 20.953125 51.171875 25.484375 53.578125 
Q 30.03125 56 36.53125 56 
Q 37.453125 56 38.578125 55.875 
Q 39.703125 55.765625 41.0625 55.515625 
z
" id="DejaVuSans-72"/>
      <path d="M 18.109375 8.203125 
L 18.109375 -20.796875 
L 9.078125 -20.796875 
L 9.078125 54.6875 
L 18.109375 54.6875 
L 18.109375 46.390625 
Q 20.953125 51.265625 25.265625 53.625 
Q 29.59375 56 35.59375 56 
Q 45.5625 56 51.78125 48.09375 
Q 58.015625 40.1875 58.015625 27.296875 
Q 58.015625 14.40625 51.78125 6.484375 
Q 45.5625 -1.421875 35.59375 -1.421875 
Q 29.59375 -1.421875 25.265625 0.953125 
Q 20.953125 3.328125 18.109375 8.203125 
z
M 48.6875 27.296875 
Q 48.6875 37.203125 44.609375 42.84375 
Q 40.53125 48.484375 33.40625 48.484375 
Q 26.265625 48.484375 22.1875 42.84375 
Q 18.109375 37.203125 18.109375 27.296875 
Q 18.109375 17.390625 22.1875 11.75 
Q 26.265625 6.109375 33.40625 6.109375 
Q 40.53125 6.109375 44.609375 11.75 
Q 48.6875 17.390625 48.6875 27.296875 
z
" id="DejaVuSans-70"/>
      <path d="M 18.3125 70.21875 
L 18.3125 54.6875 
L 36.8125 54.6875 
L 36.8125 47.703125 
L 18.3125 47.703125 
L 18.3125 18.015625 
Q 18.3125 11.328125 20.140625 9.421875 
Q 21.96875 7.515625 27.59375 7.515625 
L 36.8125 7.515625 
L 36.8125 0 
L 27.59375 0 
Q 17.1875 0 13.234375 3.875 
Q 9.28125 7.765625 9.28125 18.015625 
L 9.28125 47.703125 
L 2.6875 47.703125 
L 2.6875 54.6875 
L 9.28125 54.6875 
L 9.28125 70.21875 
z
" id="DejaVuSans-74"/>
      <path d="M 8.5 21.578125 
L 8.5 54.6875 
L 17.484375 54.6875 
L 17.484375 21.921875 
Q 17.484375 14.15625 20.5 10.265625 
Q 23.53125 6.390625 29.59375 6.390625 
Q 36.859375 6.390625 41.078125 11.03125 
Q 45.3125 15.671875 45.3125 23.6875 
L 45.3125 54.6875 
L 54.296875 54.6875 
L 54.296875 0 
L 45.3125 0 
L 45.3125 8.40625 
Q 42.046875 3.421875 37.71875 1 
Q 33.40625 -1.421875 27.6875 -1.421875 
Q 18.265625 -1.421875 13.375 4.4375 
Q 8.5 10.296875 8.5 21.578125 
z
M 31.109375 56 
z
" id="DejaVuSans-75"/>
      <path d="M 48.78125 52.59375 
L 48.78125 44.1875 
Q 44.96875 46.296875 41.140625 47.34375 
Q 37.3125 48.390625 33.40625 48.390625 
Q 24.65625 48.390625 19.8125 42.84375 
Q 14.984375 37.3125 14.984375 27.296875 
Q 14.984375 17.28125 19.8125 11.734375 
Q 24.65625 6.203125 33.40625 6.203125 
Q 37.3125 6.203125 41.140625 7.25 
Q 44.96875 8.296875 48.78125 10.40625 
L 48.78125 2.09375 
Q 45.015625 0.34375 40.984375 -0.53125 
Q 36.96875 -1.421875 32.421875 -1.421875 
Q 20.0625 -1.421875 12.78125 6.34375 
Q 5.515625 14.109375 5.515625 27.296875 
Q 5.515625 40.671875 12.859375 48.328125 
Q 20.21875 56 33.015625 56 
Q 37.15625 56 41.109375 55.140625 
Q 45.0625 54.296875 48.78125 52.59375 
z
" id="DejaVuSans-63"/>
     </defs>
     <g transform="translate(37.902187 323.17875)rotate(-90)scale(0.18 -0.18)">
      <use xlink:href="#DejaVuSans-50"/>
      <use x="60.287109" xlink:href="#DejaVuSans-72"/>
      <use x="101.369141" xlink:href="#DejaVuSans-6f"/>
      <use x="162.550781" xlink:href="#DejaVuSans-70"/>
      <use x="226.027344" xlink:href="#DejaVuSans-6f"/>
      <use x="287.208984" xlink:href="#DejaVuSans-72"/>
      <use x="328.322266" xlink:href="#DejaVuSans-74"/>
      <use x="367.53125" xlink:href="#DejaVuSans-69"/>
      <use x="395.314453" xlink:href="#DejaVuSans-6f"/>
      <use x="456.496094" xlink:href="#DejaVuSans-6e"/>
      <use x="519.875" xlink:href="#DejaVuSans-20"/>
      <use x="551.662109" xlink:href="#DejaVuSans-6f"/>
      <use x="612.84375" xlink:href="#DejaVuSans-66"/>
      <use x="648.048828" xlink:href="#DejaVuSans-20"/>
      <use x="679.835938" xlink:href="#DejaVuSans-66"/>
      <use x="715.041016" xlink:href="#DejaVuSans-75"/>
      <use x="778.419922" xlink:href="#DejaVuSans-6e"/>
      <use x="841.798828" xlink:href="#DejaVuSans-63"/>
      <use x="896.779297" xlink:href="#DejaVuSans-74"/>
      <use x="935.988281" xlink:href="#DejaVuSans-69"/>
      <use x="963.771484" xlink:href="#DejaVuSans-6f"/>
      <use x="1024.953125" xlink:href="#DejaVuSans-6e"/>
      <use x="1088.332031" xlink:href="#DejaVuSans-2b"/>
      <use x="1172.121094" xlink:href="#DejaVuSans-74"/>
      <use x="1211.330078" xlink:href="#DejaVuSans-61"/>
      <use x="1272.609375" xlink:href="#DejaVuSans-72"/>
      <use x="1313.707031" xlink:href="#DejaVuSans-67"/>
      <use x="1377.183594" xlink:href="#DejaVuSans-65"/>
      <use x="1438.707031" xlink:href="#DejaVuSans-74"/>
      <use x="1477.916016" xlink:href="#DejaVuSans-20"/>
      <use x="1509.703125" xlink:href="#DejaVuSans-70"/>
      <use x="1573.179688" xlink:href="#DejaVuSans-61"/>
      <use x="1634.458984" xlink:href="#DejaVuSans-69"/>
      <use x="1662.242188" xlink:href="#DejaVuSans-72"/>
      <use x="1703.355469" xlink:href="#DejaVuSans-73"/>
     </g>
    </g>
   </g>
   <g id="line2d_23">
    <defs>
     <path d="M 0 1.5 
C 0.397805 1.5 0.77937 1.341951 1.06066 1.06066 
C 1.341951 0.77937 1.5 0.397805 1.5 0 
C 1.5 -0.397805 1.341951 -0.77937 1.06066 -1.06066 
C 0.77937 -1.341951 0.397805 -1.5 0 -1.5 
C -0.397805 -1.5 -0.77937 -1.341951 -1.06066 -1.06066 
C -1.341951 -0.77937 -1.5 -0.397805 -1.5 0 
C -1.5 0.397805 -1.341951 0.77937 -1.06066 1.06066 
C -0.77937 1.341951 -0.397805 1.5 0 1.5 
z
" id="mbae310c264" style="stroke:#000080;"/>
    </defs>
    <g>
     <use style="fill:#000080;stroke:#000080;" x="265.006535" xlink:href="#mbae310c264" y="34.768147"/>
     <use style="fill:#000080;stroke:#000080;" x="265.006535" xlink:href="#mbae310c264" y="34.768147"/>
    </g>
   </g>
   <g id="line2d_24">
    <path d="M 55.694252 298.245375 
L 55.694252 296.695509 
L 117.620423 296.695509 
L 117.620423 295.145643 
L 122.479366 295.145643 
L 122.479366 294.629021 
L 124.10486 294.629021 
L 124.10486 294.112399 
L 124.86532 294.112399 
L 124.86532 293.079155 
L 128.246718 293.079155 
L 128.246718 292.562533 
L 128.852475 292.562533 
L 128.852475 291.529289 
L 130.005657 291.529289 
L 130.005657 290.496045 
L 130.555488 290.496045 
L 130.555488 289.979423 
L 131.606857 289.979423 
L 131.606857 289.462801 
L 133.076297 289.462801 
L 133.076297 284.813203 
L 134.434022 284.813203 
L 134.434022 282.746715 
L 135.285045 282.746715 
L 135.285045 282.230093 
L 136.490094 282.230093 
L 136.490094 280.680226 
L 137.250554 280.680226 
L 137.250554 280.163604 
L 144.741912 280.163604 
L 144.741912 279.646982 
L 148.081059 279.646982 
L 148.081059 278.613738 
L 157.905445 278.613738 
L 157.905445 277.580494 
L 159.367175 277.580494 
L 159.367175 277.063872 
L 168.794438 277.063872 
L 168.794438 276.030628 
L 169.481758 276.030628 
L 169.481758 275.514006 
L 178.907109 275.514006 
L 178.907109 274.997384 
L 184.231863 274.997384 
L 184.231863 273.96414 
L 190.22096 273.96414 
L 190.22096 271.897652 
L 194.167743 271.897652 
L 194.167743 269.831164 
L 194.758354 269.831164 
L 194.773244 257.948858 
L 195.039165 257.948858 
L 195.039165 255.88237 
L 195.416419 255.88237 
L 195.416419 252.266016 
L 197.379236 252.266016 
L 197.379236 251.749394 
L 197.596596 251.749394 
L 197.672685 246.583173 
L 197.735846 246.583173 
L 197.735846 243.483441 
L 198.085477 243.483441 
L 198.085477 242.966819 
L 198.31889 242.966819 
L 198.31889 239.350465 
L 199.61907 239.350465 
L 199.61907 238.833843 
L 201.229509 238.833843 
L 201.229509 238.317221 
L 202.586981 238.317221 
L 202.586981 237.800599 
L 203.995739 237.800599 
L 203.995739 236.250733 
L 204.163724 236.250733 
L 204.172521 228.501403 
L 204.312698 228.501403 
L 204.312698 225.401671 
L 204.589796 225.401671 
L 204.589796 207.3199 
L 208.100649 207.3199 
L 208.20974 201.637058 
L 208.297235 201.637058 
L 208.297235 201.120436 
L 212.732581 201.120436 
L 212.732581 200.603814 
L 214.674184 200.603814 
L 214.688838 197.504082 
L 214.863755 197.504082 
L 214.960196 189.754752 
L 215.087185 189.754752 
L 215.094346 187.171642 
L 215.837594 187.171642 
L 215.899299 177.872445 
L 216.101201 177.872445 
L 216.112476 175.805957 
L 216.68047 175.805957 
L 216.68047 175.289335 
L 218.493922 175.289335 
L 218.566776 170.639737 
L 218.682339 170.639737 
L 218.692098 155.657699 
L 220.383223 155.657699 
L 220.420461 154.624455 
L 221.213883 154.624455 
L 221.213883 154.107833 
L 221.958945 154.107833 
L 221.958945 153.591211 
L 223.98496 153.591211 
L 224.093458 150.491479 
L 224.096342 150.491479 
L 224.151055 148.424991 
L 224.22995 148.424991 
L 224.22995 147.391747 
L 224.67102 147.391747 
L 224.717042 143.775392 
L 224.78932 143.775392 
L 224.848869 138.609172 
L 225.136872 138.609172 
L 225.200699 137.575928 
L 226.302039 137.575928 
L 226.383425 133.442952 
L 226.45939 133.442952 
L 226.474544 123.110512 
L 227.581908 123.110512 
L 227.606806 120.527402 
L 230.067838 120.527402 
L 230.156401 115.877804 
L 230.240439 115.877804 
L 230.246572 114.327938 
L 230.565663 114.327938 
L 230.676761 107.611851 
L 230.682746 107.611851 
L 230.684741 106.061985 
L 230.943166 106.061985 
L 230.943166 105.545363 
L 231.747561 105.545363 
L 231.783236 102.962253 
L 231.865577 102.962253 
L 231.877709 95.212923 
L 232.710673 95.212923 
L 232.715124 94.179679 
L 234.659924 94.179679 
L 234.737996 89.530081 
L 234.992926 89.530081 
L 235.0836 85.397105 
L 235.942129 85.397105 
L 236.019246 81.264129 
L 236.684466 81.264129 
L 236.687318 80.230885 
L 238.258373 80.230885 
L 238.325482 78.164397 
L 238.530452 78.164397 
L 238.606154 72.998176 
L 239.290671 72.998176 
L 239.380399 68.348578 
L 241.248336 68.348578 
L 241.308423 66.28209 
L 241.494562 66.28209 
L 241.550028 63.69898 
L 242.171613 63.69898 
L 242.203572 61.632492 
L 242.680799 61.632492 
L 242.680799 61.11587 
L 243.81996 61.11587 
L 243.86342 58.016138 
L 244.015887 58.016138 
L 244.073022 56.466272 
L 244.640032 56.466272 
L 244.646425 52.333296 
L 246.061283 52.333296 
L 246.100046 50.78343 
L 246.238818 50.78343 
L 246.285531 49.750186 
L 246.750123 49.750186 
L 246.791472 48.716942 
L 247.156982 48.716942 
L 247.164121 47.683698 
L 248.056311 47.683698 
L 248.086841 46.133832 
L 248.249912 46.133832 
L 248.249912 45.61721 
L 248.710025 45.61721 
L 248.710025 45.100588 
L 249.877385 45.100588 
L 249.987765 44.067344 
L 249.994197 44.067344 
L 250.01517 43.0341 
L 250.436464 43.0341 
L 250.439436 41.484233 
L 251.480143 41.484233 
L 251.482946 40.450989 
L 253.467421 40.450989 
L 253.467421 39.934367 
L 254.346121 39.934367 
L 254.346121 39.417745 
L 254.483547 39.417745 
L 254.483547 38.901123 
L 256.040426 38.901123 
L 256.040426 38.384501 
L 257.20273 38.384501 
L 257.20273 37.867879 
L 258.04578 37.867879 
L 258.04578 37.351257 
L 258.990085 37.351257 
L 258.990085 36.834635 
L 259.342753 36.834635 
L 259.342753 36.318013 
L 262.669163 36.318013 
L 262.669163 35.801391 
L 265.006242 35.801391 
L 265.006535 34.768147 
L 372.451875 34.768147 
L 372.451875 34.768147 
" style="fill:none;stroke:#000080;stroke-linecap:square;stroke-width:1.5;"/>
   </g>
   <g id="line2d_25">
    <defs>
     <path d="M 0 6 
C 1.591219 6 3.117479 5.367802 4.242641 4.242641 
C 5.367802 3.117479 6 1.591219 6 0 
C 6 -1.591219 5.367802 -3.117479 4.242641 -4.242641 
C 3.117479 -5.367802 1.591219 -6 0 -6 
C -1.591219 -6 -3.117479 -5.367802 -4.242641 -4.242641 
C -5.367802 -3.117479 -6 -1.591219 -6 0 
C -6 1.591219 -5.367802 3.117479 -4.242641 4.242641 
C -3.117479 5.367802 -1.591219 6 0 6 
z
" id="mfa24e5e9b4" style="stroke:#000080;stroke-width:1.5;"/>
    </defs>
    <g>
     <use style="fill:none;stroke:#000080;stroke-width:1.5;" x="148.081059" xlink:href="#mfa24e5e9b4" y="278.613738"/>
     <use style="fill:none;stroke:#000080;stroke-width:1.5;" x="203.995739" xlink:href="#mfa24e5e9b4" y="236.250733"/>
     <use style="fill:none;stroke:#000080;stroke-width:1.5;" x="226.473282" xlink:href="#mfa24e5e9b4" y="125.693622"/>
     <use style="fill:none;stroke:#000080;stroke-width:1.5;" x="262.669163" xlink:href="#mfa24e5e9b4" y="35.801391"/>
     <use style="fill:none;stroke:#000080;stroke-width:1.5;" x="265.006535" xlink:href="#mfa24e5e9b4" y="34.768147"/>
     <use style="fill:none;stroke:#000080;stroke-width:1.5;" x="372.451875" xlink:href="#mfa24e5e9b4" y="34.768147"/>
    </g>
   </g>
   <g id="line2d_26"/>
   <g id="line2d_27">
    <path clip-path="url(#p9910b95198)" d="M 207.869722 207.3199 
" style="fill:none;stroke:#000080;stroke-linecap:square;stroke-width:1.5;"/>
    <defs>
     <path d="M -12 12 
L 12 -12 
M -12 -12 
L 12 12 
" id="m114d0c1a76" style="stroke:#000080;stroke-width:3;"/>
    </defs>
    <g clip-path="url(#p9910b95198)">
     <use style="fill:#000080;stroke:#000080;stroke-width:3;" x="207.869722" xlink:href="#m114d0c1a76" y="207.3199"/>
    </g>
   </g>
   <g id="line2d_28">
    <defs>
     <path d="M 0 1.5 
C 0.397805 1.5 0.77937 1.341951 1.06066 1.06066 
C 1.341951 0.77937 1.5 0.397805 1.5 0 
C 1.5 -0.397805 1.341951 -0.77937 1.06066 -1.06066 
C 0.77937 -1.341951 0.397805 -1.5 0 -1.5 
C -0.397805 -1.5 -0.77937 -1.341951 -1.06066 -1.06066 
C -1.341951 -0.77937 -1.5 -0.397805 -1.5 0 
C -1.5 0.397805 -1.341951 0.77937 -1.06066 1.06066 
C -0.77937 1.341951 -0.397805 1.5 0 1.5 
z
" id="ma40b90fba9" style="stroke:#ff00ff;"/>
    </defs>
    <g>
     <use style="fill:#ff00ff;stroke:#ff00ff;" x="255.542511" xlink:href="#ma40b90fba9" y="34.768147"/>
     <use style="fill:#ff00ff;stroke:#ff00ff;" x="255.542511" xlink:href="#ma40b90fba9" y="34.768147"/>
    </g>
   </g>
   <g id="line2d_29">
    <path d="M 55.694252 298.245375 
L 55.694252 296.695509 
L 117.620423 296.695509 
L 117.620423 295.662265 
L 122.479366 295.662265 
L 122.479366 295.145643 
L 124.10486 295.145643 
L 124.10486 293.079155 
L 124.86532 293.079155 
L 124.86532 292.045911 
L 126.295532 292.045911 
L 126.295532 291.529289 
L 128.246718 291.529289 
L 128.246718 291.012667 
L 128.852475 291.012667 
L 128.852475 289.979423 
L 133.076297 289.979423 
L 133.076297 285.846447 
L 134.434022 285.846447 
L 134.434022 283.779959 
L 135.285045 283.779959 
L 135.285045 282.746715 
L 136.097372 282.746715 
L 136.097372 282.230093 
L 136.490094 282.230093 
L 136.490094 280.680226 
L 136.874369 280.680226 
L 136.874369 280.163604 
L 137.250554 280.163604 
L 137.250554 279.13036 
L 142.109497 279.13036 
L 142.109497 278.097116 
L 142.940722 278.097116 
L 142.940722 277.063872 
L 144.741912 277.063872 
L 144.741912 276.54725 
L 148.081059 276.54725 
L 148.081059 276.030628 
L 152.149248 276.030628 
L 152.149248 275.514006 
L 176.960097 275.514006 
L 176.960097 274.997384 
L 178.393411 274.997384 
L 178.393411 272.930896 
L 178.798267 272.930896 
L 178.798267 266.731432 
L 179.2652 266.731432 
L 179.2652 265.698188 
L 179.823624 265.698188 
L 179.823624 263.6317 
L 183.15281 263.6317 
L 183.15281 259.498724 
L 184.042924 259.498724 
L 184.042924 255.88237 
L 184.392236 255.88237 
L 184.392236 254.332504 
L 186.557305 254.332504 
L 186.557305 253.815882 
L 187.520903 253.815882 
L 187.520903 252.266016 
L 191.703534 252.266016 
L 191.791684 250.71615 
L 192.174463 250.71615 
L 192.174463 243.483441 
L 192.345779 243.483441 
L 192.345779 242.966819 
L 192.783662 242.966819 
L 192.866654 235.217489 
L 192.998644 235.217489 
L 192.998644 234.700867 
L 194.305781 234.700867 
L 194.305781 233.667623 
L 194.518409 233.667623 
L 194.518409 232.117757 
L 195.380489 232.117757 
L 195.380489 228.501403 
L 195.750678 228.501403 
L 195.849048 227.468159 
L 195.891041 227.468159 
L 195.946879 226.434915 
L 202.962665 226.434915 
L 203.009662 210.936254 
L 203.293695 210.936254 
L 203.367454 206.286656 
L 203.821676 206.286656 
L 203.821676 194.920972 
L 204.684065 194.920972 
L 204.684065 194.40435 
L 205.416724 194.40435 
L 205.47406 193.371106 
L 208.121815 193.371106 
L 208.164073 189.754752 
L 211.066573 189.754752 
L 211.176861 186.138398 
L 211.19765 186.138398 
L 211.253956 185.105154 
L 211.85044 185.105154 
L 211.879033 180.972178 
L 212.04681 180.972178 
L 212.128703 175.805957 
L 212.838495 175.805957 
L 212.838495 175.289335 
L 213.946095 175.289335 
L 213.946095 174.772713 
L 214.062781 174.772713 
L 214.133436 165.473517 
L 214.256414 165.473517 
L 214.333782 159.790675 
L 215.065684 159.790675 
L 215.084797 157.207565 
L 217.957157 157.207565 
L 217.997775 142.742148 
L 218.102954 142.742148 
L 218.149278 139.125794 
L 218.333384 139.125794 
L 218.353282 131.376464 
L 220.383223 131.376464 
L 220.386772 130.34322 
L 221.893816 130.34322 
L 222.002773 125.177 
L 222.347992 125.177 
L 222.457384 122.59389 
L 222.462125 122.59389 
L 222.522069 119.494158 
L 223.614023 119.494158 
L 223.627351 117.42767 
L 223.726262 117.42767 
L 223.738036 114.84456 
L 224.218496 114.84456 
L 224.228518 111.744828 
L 226.001273 111.744828 
L 226.107247 102.962253 
L 226.11884 102.962253 
L 226.11884 102.445631 
L 226.240755 102.445631 
L 226.257373 97.796033 
L 227.573601 97.796033 
L 227.591397 96.762789 
L 228.632463 96.762789 
L 228.703918 93.146435 
L 228.92649 93.146435 
L 229.023069 89.530081 
L 229.040573 89.530081 
L 229.040573 89.013459 
L 229.80158 89.013459 
L 229.899808 82.813995 
L 229.914392 82.813995 
L 229.923761 81.264129 
L 230.230211 81.264129 
L 230.239416 79.714263 
L 231.521541 79.714263 
L 231.542466 74.548042 
L 231.700513 74.548042 
L 231.711816 72.481554 
L 233.724911 72.481554 
L 233.813865 69.381822 
L 234.396112 69.381822 
L 234.491469 64.215602 
L 234.732431 64.215602 
L 234.732431 63.69898 
L 235.736595 63.69898 
L 235.808614 60.599248 
L 235.886308 60.599248 
L 235.88929 59.049382 
L 236.695869 59.049382 
L 236.695869 58.53276 
L 237.308606 58.53276 
L 237.358788 56.982894 
L 237.501688 56.982894 
L 237.544539 55.433028 
L 238.040992 55.433028 
L 238.116817 53.36654 
L 238.318327 53.36654 
L 238.318978 52.333296 
L 239.153366 52.333296 
L 239.160195 50.266808 
L 239.272795 50.266808 
L 239.272795 49.750186 
L 240.651507 49.750186 
L 240.670908 48.716942 
L 241.135889 48.716942 
L 241.135889 48.20032 
L 242.005667 48.20032 
L 242.109629 45.100588 
L 242.68029 45.100588 
L 242.68029 44.583966 
L 243.136175 44.583966 
L 243.158021 43.550722 
L 243.67111 43.550722 
L 243.67111 43.0341 
L 243.865805 43.0341 
L 243.865805 42.517478 
L 245.462099 42.517478 
L 245.462099 42.000855 
L 246.098784 42.000855 
L 246.098784 41.484233 
L 247.962511 41.484233 
L 247.974642 39.934367 
L 248.090606 39.934367 
L 248.090606 39.417745 
L 250.383556 39.417745 
L 250.383556 38.901123 
L 252.567897 38.901123 
L 252.567897 38.384501 
L 253.37158 38.384501 
L 253.416072 37.351257 
L 253.977019 37.351257 
L 254.056738 36.318013 
L 254.289523 36.318013 
L 254.293515 35.284769 
L 255.542511 35.284769 
L 255.542511 34.768147 
L 372.451875 34.768147 
L 372.451875 34.768147 
" style="fill:none;stroke:#ff00ff;stroke-linecap:square;stroke-width:1.5;"/>
   </g>
   <g id="line2d_30">
    <defs>
     <path d="M -0 8.485281 
L 5.091169 0 
L 0 -8.485281 
L -5.091169 -0 
z
" id="maea3fa0672" style="stroke:#ff00ff;stroke-linejoin:miter;stroke-width:1.5;"/>
    </defs>
    <g>
     <use style="fill:none;stroke:#ff00ff;stroke-linejoin:miter;stroke-width:1.5;" x="178.798267" xlink:href="#maea3fa0672" y="272.930896"/>
     <use style="fill:none;stroke:#ff00ff;stroke-linejoin:miter;stroke-width:1.5;" x="217.957157" xlink:href="#maea3fa0672" y="155.141077"/>
     <use style="fill:none;stroke:#ff00ff;stroke-linejoin:miter;stroke-width:1.5;" x="235.886308" xlink:href="#maea3fa0672" y="60.599248"/>
     <use style="fill:none;stroke:#ff00ff;stroke-linejoin:miter;stroke-width:1.5;" x="255.542511" xlink:href="#maea3fa0672" y="34.768147"/>
     <use style="fill:none;stroke:#ff00ff;stroke-linejoin:miter;stroke-width:1.5;" x="255.542511" xlink:href="#maea3fa0672" y="34.768147"/>
     <use style="fill:none;stroke:#ff00ff;stroke-linejoin:miter;stroke-width:1.5;" x="372.451875" xlink:href="#maea3fa0672" y="34.768147"/>
    </g>
   </g>
   <g id="line2d_31"/>
   <g id="line2d_32">
    <path clip-path="url(#p9910b95198)" d="M 207.866146 193.371106 
" style="fill:none;stroke:#ff00ff;stroke-linecap:square;stroke-width:1.5;"/>
    <defs>
     <path d="M -12 12 
L 12 -12 
M -12 -12 
L 12 12 
" id="m064d22a9bd" style="stroke:#ff00ff;stroke-width:3;"/>
    </defs>
    <g clip-path="url(#p9910b95198)">
     <use style="fill:#ff00ff;stroke:#ff00ff;stroke-width:3;" x="207.866146" xlink:href="#m064d22a9bd" y="193.371106"/>
    </g>
   </g>
   <g id="line2d_33">
    <defs>
     <path d="M 0 1.5 
C 0.397805 1.5 0.77937 1.341951 1.06066 1.06066 
C 1.341951 0.77937 1.5 0.397805 1.5 0 
C 1.5 -0.397805 1.341951 -0.77937 1.06066 -1.06066 
C 0.77937 -1.341951 0.397805 -1.5 0 -1.5 
C -0.397805 -1.5 -0.77937 -1.341951 -1.06066 -1.06066 
C -1.341951 -0.77937 -1.5 -0.397805 -1.5 0 
C -1.5 0.397805 -1.341951 0.77937 -1.06066 1.06066 
C -0.77937 1.341951 -0.397805 1.5 0 1.5 
z
" id="m72d8c85b37" style="stroke:#ffa500;"/>
    </defs>
    <g>
     <use style="fill:#ffa500;stroke:#ffa500;" x="283.908514" xlink:href="#m72d8c85b37" y="50.266808"/>
     <use style="fill:#ffa500;stroke:#ffa500;" x="283.908514" xlink:href="#m72d8c85b37" y="50.266808"/>
    </g>
   </g>
   <g id="line2d_34">
    <path d="M 55.694252 298.245375 
L 55.694252 297.212131 
L 117.620423 297.212131 
L 117.620423 296.178887 
L 124.10486 296.178887 
L 124.10486 293.595777 
L 126.295532 293.595777 
L 126.295532 293.079155 
L 128.246718 293.079155 
L 128.246718 292.562533 
L 128.852475 292.562533 
L 128.852475 292.045911 
L 130.005657 292.045911 
L 130.005657 290.496045 
L 130.555488 290.496045 
L 130.555488 289.979423 
L 131.606857 289.979423 
L 131.606857 288.946179 
L 133.076297 288.946179 
L 133.076297 283.263337 
L 134.434022 283.263337 
L 134.434022 282.746715 
L 136.490094 282.746715 
L 136.490094 280.163604 
L 141.823601 280.163604 
L 141.823601 279.13036 
L 142.940722 279.13036 
L 142.940722 278.097116 
L 148.182295 278.097116 
L 148.182295 277.580494 
L 153.246758 277.580494 
L 153.246758 277.063872 
L 155.527858 277.063872 
L 155.527858 276.54725 
L 155.79356 276.54725 
L 155.79356 276.030628 
L 158.253537 276.030628 
L 158.253537 274.997384 
L 174.729044 274.997384 
L 174.729044 273.96414 
L 176.049949 273.96414 
L 176.049949 272.414274 
L 181.557848 272.414274 
L 181.557848 271.897652 
L 183.631198 271.897652 
L 183.631198 271.38103 
L 183.824518 271.38103 
L 183.824518 270.864408 
L 186.826355 270.864408 
L 186.826355 269.831164 
L 190.806543 269.831164 
L 190.806543 269.314542 
L 191.219856 269.314542 
L 191.219856 265.181566 
L 191.508058 265.181566 
L 191.543758 262.598456 
L 191.641568 262.598456 
L 191.747663 249.682906 
L 191.826823 249.682906 
L 191.826823 246.583173 
L 194.518409 246.583173 
L 194.518409 237.283977 
L 197.411367 237.283977 
L 197.411367 235.217489 
L 197.855239 235.217489 
L 197.855239 227.468159 
L 198.294464 227.468159 
L 198.294464 226.434915 
L 198.501034 226.434915 
L 198.501034 219.718829 
L 198.741039 219.718829 
L 198.741039 217.652341 
L 205.177213 217.652341 
L 205.177213 213.519365 
L 205.29324 213.519365 
L 205.29324 205.253412 
L 208.135912 205.253412 
L 208.216756 199.053948 
L 210.655238 199.053948 
L 210.655238 198.537326 
L 212.009977 198.537326 
L 212.009977 198.020704 
L 213.800441 198.020704 
L 213.897676 194.920972 
L 213.925724 194.920972 
L 213.986768 188.721508 
L 214.795935 188.721508 
L 214.81049 183.555288 
L 215.784862 183.555288 
L 215.784862 183.038666 
L 215.926655 183.038666 
L 215.95397 176.839201 
L 216.103457 176.839201 
L 216.191206 172.706225 
L 216.269589 172.706225 
L 216.276292 171.672981 
L 218.957447 171.672981 
L 219.022695 165.990139 
L 220.013759 165.990139 
L 220.035492 161.857163 
L 220.404511 161.857163 
L 220.429316 160.307297 
L 223.459281 160.307297 
L 223.562096 152.041345 
L 223.571008 152.041345 
L 223.573978 150.491479 
L 224.0458 150.491479 
L 224.0617 146.358503 
L 224.641672 146.358503 
L 224.750437 143.25877 
L 224.877879 143.25877 
L 224.946762 138.609172 
L 226.659148 138.609172 
L 226.692848 137.575928 
L 227.349037 137.575928 
L 227.351441 136.026062 
L 227.591397 136.026062 
L 227.617466 134.992818 
L 228.065318 134.992818 
L 228.065318 134.476196 
L 229.745956 134.476196 
L 229.779561 131.893086 
L 230.117323 131.893086 
L 230.13173 126.726866 
L 230.549592 126.726866 
L 230.627803 125.177 
L 230.722599 125.177 
L 230.767328 123.627134 
L 232.006916 123.627134 
L 232.038379 122.077268 
L 232.526298 122.077268 
L 232.535292 118.977536 
L 232.713344 118.977536 
L 232.718685 117.944292 
L 234.31897 117.944292 
L 234.38071 111.744828 
L 234.635156 111.744828 
L 234.657529 105.028741 
L 234.978031 105.028741 
L 235.031284 102.962253 
L 235.092175 102.962253 
L 235.146643 100.895765 
L 236.14459 100.895765 
L 236.146059 99.862521 
L 236.543476 99.862521 
L 236.543476 99.345899 
L 236.701567 99.345899 
L 236.701567 98.829277 
L 238.008585 98.829277 
L 238.027772 97.279411 
L 238.242047 97.279411 
L 238.253151 92.629813 
L 238.635578 92.629813 
L 238.635578 92.113191 
L 239.485531 92.113191 
L 239.485531 91.596569 
L 239.813429 91.596569 
L 239.813429 91.079947 
L 239.940427 91.079947 
L 239.940427 90.563325 
L 241.04676 90.563325 
L 241.067969 89.013459 
L 241.242813 89.013459 
L 241.250544 84.880483 
L 241.482576 84.880483 
L 241.482576 84.363861 
L 242.302749 84.363861 
L 242.302749 83.847239 
L 243.647469 83.847239 
L 243.659052 82.297373 
L 243.8147 82.297373 
L 243.8147 81.780751 
L 245.907512 81.780751 
L 245.907512 81.264129 
L 246.052001 81.264129 
L 246.062127 80.230885 
L 246.256767 80.230885 
L 246.256767 79.714263 
L 246.87227 79.714263 
L 246.87227 79.197641 
L 247.088618 79.197641 
L 247.088618 78.681019 
L 247.897166 78.681019 
L 247.923028 77.647775 
L 248.042348 77.647775 
L 248.056311 76.097908 
L 248.963524 76.097908 
L 248.973561 74.548042 
L 249.721355 74.548042 
L 249.734753 73.514798 
L 249.848404 73.514798 
L 249.848404 72.998176 
L 250.496458 72.998176 
L 250.496458 72.481554 
L 250.682079 72.481554 
L 250.682079 71.964932 
L 251.348224 71.964932 
L 251.348224 71.44831 
L 251.473913 71.44831 
L 251.474847 70.415066 
L 252.238111 70.415066 
L 252.238111 69.898444 
L 252.964084 69.898444 
L 252.970389 68.8652 
L 253.670528 68.8652 
L 253.670528 68.348578 
L 254.346121 68.348578 
L 254.346121 67.831956 
L 255.00068 67.831956 
L 255.00068 67.315334 
L 255.627413 67.315334 
L 255.627413 66.798712 
L 256.816242 66.798712 
L 256.817628 65.765468 
L 257.936961 65.765468 
L 257.942819 63.69898 
L 260.460585 63.69898 
L 260.460585 63.182358 
L 260.925709 63.182358 
L 260.925709 62.665736 
L 261.379031 62.665736 
L 261.379031 62.149114 
L 261.823755 62.149114 
L 261.823755 61.632492 
L 262.256316 61.632492 
L 262.256316 61.11587 
L 263.879231 61.11587 
L 263.879231 60.599248 
L 264.263616 60.599248 
L 264.263616 60.082626 
L 265.723723 60.082626 
L 265.723723 59.566004 
L 266.076139 59.566004 
L 266.076139 59.049382 
L 267.718102 59.049382 
L 267.718102 58.53276 
L 268.633292 58.53276 
L 268.633292 58.016138 
L 268.927445 58.016138 
L 268.927445 57.499516 
L 269.217642 57.499516 
L 269.218565 56.466272 
L 269.788516 56.466272 
L 269.788516 55.94965 
L 271.132685 55.94965 
L 271.132685 55.433028 
L 273.776431 55.433028 
L 273.776431 54.916406 
L 274.649557 54.916406 
L 274.649557 54.399784 
L 275.883635 54.399784 
L 275.883635 53.883162 
L 277.222599 53.883162 
L 277.222599 53.36654 
L 277.587046 53.36654 
L 277.587046 52.849918 
L 278.979102 52.849918 
L 278.979102 52.333296 
L 280.266832 52.333296 
L 280.266832 51.816674 
L 280.728664 51.816674 
L 280.728664 51.300052 
L 281.175136 51.300052 
L 281.175136 50.78343 
L 283.908514 50.78343 
L 283.908514 50.266808 
L 372.451875 50.266808 
L 372.451875 50.266808 
" style="fill:none;stroke:#ffa500;stroke-linecap:square;stroke-width:1.5;"/>
   </g>
   <g id="line2d_35">
    <defs>
     <path d="M 0 -6 
L -1.347084 -1.854102 
L -5.706339 -1.854102 
L -2.179628 0.708204 
L -3.526712 4.854102 
L -0 2.291796 
L 3.526712 4.854102 
L 2.179628 0.708204 
L 5.706339 -1.854102 
L 1.347084 -1.854102 
z
" id="m2c769cb1e3" style="stroke:#ffa500;stroke-linejoin:bevel;stroke-width:1.5;"/>
    </defs>
    <g>
     <use style="fill:none;stroke:#ffa500;stroke-linejoin:bevel;stroke-width:1.5;" x="158.253537" xlink:href="#m2c769cb1e3" y="274.997384"/>
     <use style="fill:none;stroke:#ffa500;stroke-linejoin:bevel;stroke-width:1.5;" x="214.795935" xlink:href="#m2c769cb1e3" y="188.204886"/>
     <use style="fill:none;stroke:#ffa500;stroke-linejoin:bevel;stroke-width:1.5;" x="235.092175" xlink:href="#m2c769cb1e3" y="102.962253"/>
     <use style="fill:none;stroke:#ffa500;stroke-linejoin:bevel;stroke-width:1.5;" x="283.908514" xlink:href="#m2c769cb1e3" y="50.78343"/>
     <use style="fill:none;stroke:#ffa500;stroke-linejoin:bevel;stroke-width:1.5;" x="283.908514" xlink:href="#m2c769cb1e3" y="50.266808"/>
     <use style="fill:none;stroke:#ffa500;stroke-linejoin:bevel;stroke-width:1.5;" x="372.451875" xlink:href="#m2c769cb1e3" y="50.266808"/>
    </g>
   </g>
   <g id="line2d_36"/>
   <g id="line2d_37">
    <path clip-path="url(#p9910b95198)" d="M 207.876872 205.253412 
" style="fill:none;stroke:#ffa500;stroke-linecap:square;stroke-width:1.5;"/>
    <defs>
     <path d="M -12 12 
L 12 -12 
M -12 -12 
L 12 12 
" id="m643d63c95b" style="stroke:#ffa500;stroke-width:3;"/>
    </defs>
    <g clip-path="url(#p9910b95198)">
     <use style="fill:#ffa500;stroke:#ffa500;stroke-width:3;" x="207.876872" xlink:href="#m643d63c95b" y="205.253412"/>
    </g>
   </g>
   <g id="line2d_38">
    <defs>
     <path d="M 0 1.5 
C 0.397805 1.5 0.77937 1.341951 1.06066 1.06066 
C 1.341951 0.77937 1.5 0.397805 1.5 0 
C 1.5 -0.397805 1.341951 -0.77937 1.06066 -1.06066 
C 0.77937 -1.341951 0.397805 -1.5 0 -1.5 
C -0.397805 -1.5 -0.77937 -1.341951 -1.06066 -1.06066 
C -1.341951 -0.77937 -1.5 -0.397805 -1.5 0 
C -1.5 0.397805 -1.341951 0.77937 -1.06066 1.06066 
C -0.77937 1.341951 -0.397805 1.5 0 1.5 
z
" id="m375dd50e37" style="stroke:#6495ed;"/>
    </defs>
    <g>
     <use style="fill:#6495ed;stroke:#6495ed;" x="279.089376" xlink:href="#m375dd50e37" y="127.76011"/>
     <use style="fill:#6495ed;stroke:#6495ed;" x="279.089376" xlink:href="#m375dd50e37" y="127.76011"/>
    </g>
   </g>
   <g id="line2d_39">
    <path d="M 55.694252 298.245375 
L 55.694252 296.695509 
L 117.620423 296.695509 
L 117.620423 296.178887 
L 124.10486 296.178887 
L 124.10486 294.629021 
L 124.86532 294.629021 
L 124.86532 293.595777 
L 128.246718 293.595777 
L 128.246718 292.562533 
L 130.555488 292.562533 
L 130.555488 291.012667 
L 133.076297 291.012667 
L 133.076297 287.912935 
L 134.434022 287.912935 
L 134.434022 286.879691 
L 135.695825 286.879691 
L 135.695825 286.363069 
L 136.490094 286.363069 
L 136.490094 284.296581 
L 136.874369 284.296581 
L 136.874369 283.779959 
L 137.250554 283.779959 
L 137.250554 283.263337 
L 142.940722 283.263337 
L 142.940722 281.713471 
L 144.741912 281.713471 
L 144.741912 281.196849 
L 148.081059 281.196849 
L 148.081059 280.163604 
L 148.383062 280.163604 
L 148.383062 279.646982 
L 152.149248 279.646982 
L 152.149248 279.13036 
L 153.548337 279.13036 
L 153.548337 278.613738 
L 162.615919 278.613738 
L 162.615919 278.097116 
L 167.506981 278.097116 
L 167.506981 276.030628 
L 176.176824 276.030628 
L 176.176824 274.480762 
L 176.675502 274.480762 
L 176.675502 272.414274 
L 177.279892 272.414274 
L 177.279892 270.347786 
L 177.555094 270.347786 
L 177.555094 268.281298 
L 178.055203 268.281298 
L 178.055203 267.248054 
L 178.430598 267.248054 
L 178.430598 265.698188 
L 184.994002 265.698188 
L 184.994002 264.148322 
L 189.803257 264.148322 
L 189.881712 262.081834 
L 190.076356 262.081834 
L 190.076356 260.531968 
L 193.105173 260.531968 
L 193.105173 260.015346 
L 194.854918 260.015346 
L 194.884526 254.332504 
L 196.583504 254.332504 
L 196.583504 246.066551 
L 196.770817 246.066551 
L 196.850497 243.483441 
L 200.580072 243.483441 
L 200.580072 239.867087 
L 202.281619 239.867087 
L 202.281619 239.350465 
L 203.302932 239.350465 
L 203.302932 234.700867 
L 208.160556 234.700867 
L 208.227274 232.634379 
L 209.248976 232.634379 
L 209.248976 232.117757 
L 209.641842 232.117757 
L 209.709714 229.534647 
L 210.679698 229.534647 
L 210.762004 228.501403 
L 210.816666 228.501403 
L 210.907398 226.434915 
L 211.024665 226.434915 
L 211.045631 223.851805 
L 211.164971 223.851805 
L 211.176861 222.818561 
L 214.873423 222.818561 
L 214.931319 218.168963 
L 215.495522 218.168963 
L 215.579334 210.936254 
L 215.64425 210.936254 
L 215.64425 210.419632 
L 216.977178 210.419632 
L 217.000789 207.836522 
L 218.123109 207.836522 
L 218.137205 201.120436 
L 220.408057 201.120436 
L 220.434626 198.020704 
L 221.179961 198.020704 
L 221.215577 195.954216 
L 221.775982 195.954216 
L 221.877497 191.304618 
L 224.096342 191.304618 
L 224.115079 190.271374 
L 224.482918 190.271374 
L 224.546308 186.65502 
L 225.382773 186.65502 
L 225.384115 185.621776 
L 226.094357 185.621776 
L 226.12399 181.4888 
L 227.609176 181.4888 
L 227.612729 180.455556 
L 228.127568 180.455556 
L 228.141372 179.422312 
L 228.532619 179.422312 
L 228.629107 176.839201 
L 229.592889 176.839201 
L 229.592889 176.322579 
L 230.146126 176.322579 
L 230.156401 174.772713 
L 230.448818 174.772713 
L 230.480119 173.222847 
L 231.608883 173.222847 
L 231.626869 172.189603 
L 232.742699 172.189603 
L 232.742699 171.672981 
L 233.093868 171.672981 
L 233.129565 169.089871 
L 233.455358 169.089871 
L 233.455358 168.573249 
L 234.221049 168.573249 
L 234.221049 168.056627 
L 234.688643 168.056627 
L 234.691034 167.023383 
L 234.8813 167.023383 
L 234.908091 164.956895 
L 235.405042 164.956895 
L 235.405042 164.440273 
L 235.801875 164.440273 
L 235.825078 162.373785 
L 236.710111 162.373785 
L 236.710111 161.857163 
L 237.016413 161.857163 
L 237.016413 161.340541 
L 237.294832 161.340541 
L 237.319617 159.274053 
L 238.471208 159.274053 
L 238.471208 158.757431 
L 238.881855 158.757431 
L 238.881855 158.240809 
L 239.199252 158.240809 
L 239.217202 156.690943 
L 239.953493 156.690943 
L 239.953493 156.174321 
L 240.197603 156.174321 
L 240.197603 155.657699 
L 240.427441 155.657699 
L 240.427441 155.141077 
L 241.419245 155.141077 
L 241.434006 153.074589 
L 242.069066 153.074589 
L 242.074339 152.041345 
L 243.117285 152.041345 
L 243.143625 151.008101 
L 243.987487 151.008101 
L 243.987487 150.491479 
L 244.51813 150.491479 
L 244.539271 146.358503 
L 246.212906 146.358503 
L 246.212906 145.841881 
L 247.349534 145.841881 
L 247.349534 145.325259 
L 247.528769 145.325259 
L 247.528769 144.808637 
L 248.621797 144.808637 
L 248.628009 143.25877 
L 249.952857 143.25877 
L 249.965744 142.225526 
L 250.361686 142.225526 
L 250.36699 141.192282 
L 251.582009 141.192282 
L 251.582009 140.67566 
L 251.951031 140.67566 
L 251.951031 140.159038 
L 252.30991 140.159038 
L 252.30991 139.642416 
L 252.450582 139.642416 
L 252.450582 139.125794 
L 253.401813 139.125794 
L 253.401813 138.609172 
L 255.999358 138.609172 
L 256.005645 137.575928 
L 257.172633 137.575928 
L 257.172633 137.059306 
L 258.019447 137.059306 
L 258.019447 136.542684 
L 258.705928 136.542684 
L 258.705928 136.026062 
L 261.211441 136.026062 
L 261.213429 134.992818 
L 263.734556 134.992818 
L 263.734556 134.476196 
L 264.501734 134.476196 
L 264.501734 133.959574 
L 265.239776 133.959574 
L 265.239776 133.442952 
L 265.950756 133.442952 
L 265.950756 132.92633 
L 266.623452 132.92633 
L 266.627722 131.893086 
L 268.520239 131.893086 
L 268.520239 131.376464 
L 269.117409 131.376464 
L 269.117409 130.859842 
L 271.29556 130.859842 
L 271.29556 130.34322 
L 271.805344 130.34322 
L 271.80824 129.309976 
L 273.702142 129.309976 
L 273.702142 128.793354 
L 276.207267 128.793354 
L 276.207267 128.276732 
L 279.089376 128.276732 
L 279.089376 127.76011 
L 372.451875 127.76011 
L 372.451875 127.76011 
" style="fill:none;stroke:#6495ed;stroke-linecap:square;stroke-width:1.5;"/>
   </g>
   <g id="line2d_40">
    <defs>
     <path d="M -0 6 
L 6 -6 
L -6 -6 
z
" id="m018d91c349" style="stroke:#6495ed;stroke-linejoin:miter;stroke-width:1.5;"/>
    </defs>
    <g>
     <use style="fill:none;stroke:#6495ed;stroke-linejoin:miter;stroke-width:1.5;" x="153.548337" xlink:href="#m018d91c349" y="278.613738"/>
     <use style="fill:none;stroke:#6495ed;stroke-linejoin:miter;stroke-width:1.5;" x="215.55144" xlink:href="#m018d91c349" y="215.069231"/>
     <use style="fill:none;stroke:#6495ed;stroke-linejoin:miter;stroke-width:1.5;" x="241.43018" xlink:href="#m018d91c349" y="153.591211"/>
     <use style="fill:none;stroke:#6495ed;stroke-linejoin:miter;stroke-width:1.5;" x="279.089376" xlink:href="#m018d91c349" y="127.76011"/>
     <use style="fill:none;stroke:#6495ed;stroke-linejoin:miter;stroke-width:1.5;" x="279.089376" xlink:href="#m018d91c349" y="127.76011"/>
     <use style="fill:none;stroke:#6495ed;stroke-linejoin:miter;stroke-width:1.5;" x="372.451875" xlink:href="#m018d91c349" y="127.76011"/>
    </g>
   </g>
   <g id="line2d_41"/>
   <g id="line2d_42">
    <path clip-path="url(#p9910b95198)" d="M 207.887592 234.700867 
" style="fill:none;stroke:#6495ed;stroke-linecap:square;stroke-width:1.5;"/>
    <defs>
     <path d="M -12 12 
L 12 -12 
M -12 -12 
L 12 12 
" id="mb17eff8853" style="stroke:#6495ed;stroke-width:3;"/>
    </defs>
    <g clip-path="url(#p9910b95198)">
     <use style="fill:#6495ed;stroke:#6495ed;stroke-width:3;" x="207.887592" xlink:href="#mb17eff8853" y="234.700867"/>
    </g>
   </g>
   <g id="line2d_43">
    <path d="M 372.451875 127.76011 
L 404.131875 292.97583 
" style="fill:none;stroke:#6495ed;stroke-linecap:square;stroke-width:1.5;"/>
    <g>
     <use style="fill:none;stroke:#6495ed;stroke-linejoin:miter;stroke-width:1.5;" x="372.451875" xlink:href="#m018d91c349" y="127.76011"/>
     <use style="fill:none;stroke:#6495ed;stroke-linejoin:miter;stroke-width:1.5;" x="404.131875" xlink:href="#m018d91c349" y="292.97583"/>
    </g>
   </g>
   <g id="line2d_44">
    <path d="M 372.451875 50.266808 
L 404.131875 208.663118 
" style="fill:none;stroke:#ffa500;stroke-linecap:square;stroke-width:1.5;"/>
    <g>
     <use style="fill:none;stroke:#ffa500;stroke-linejoin:bevel;stroke-width:1.5;" x="372.451875" xlink:href="#m2c769cb1e3" y="50.266808"/>
     <use style="fill:none;stroke:#ffa500;stroke-linejoin:bevel;stroke-width:1.5;" x="404.131875" xlink:href="#m2c769cb1e3" y="208.663118"/>
    </g>
   </g>
   <g id="line2d_45">
    <path d="M 372.451875 34.768147 
L 404.131875 124.350405 
" style="fill:none;stroke:#000080;stroke-linecap:square;stroke-width:1.5;"/>
    <g>
     <use style="fill:none;stroke:#000080;stroke-width:1.5;" x="372.451875" xlink:href="#mfa24e5e9b4" y="34.768147"/>
     <use style="fill:none;stroke:#000080;stroke-width:1.5;" x="404.131875" xlink:href="#mfa24e5e9b4" y="124.350405"/>
    </g>
   </g>
   <g id="line2d_46">
    <path d="M 372.451875 34.768147 
L 404.131875 40.037692 
" style="fill:none;stroke:#ff00ff;stroke-linecap:square;stroke-width:1.5;"/>
    <g>
     <use style="fill:none;stroke:#ff00ff;stroke-linejoin:miter;stroke-width:1.5;" x="372.451875" xlink:href="#maea3fa0672" y="34.768147"/>
     <use style="fill:none;stroke:#ff00ff;stroke-linejoin:miter;stroke-width:1.5;" x="404.131875" xlink:href="#maea3fa0672" y="40.037692"/>
    </g>
   </g>
   <g id="line2d_47">
    <path d="M 372.451875 298.245375 
L 372.451875 34.768147 
" style="fill:none;stroke:#000000;stroke-linecap:square;stroke-width:1.5;"/>
   </g>
   <g id="patch_3">
    <path d="M 84.451875 298.245375 
L 84.451875 32.133375 
" style="fill:none;stroke:#000000;stroke-linecap:square;stroke-linejoin:miter;stroke-width:0.8;"/>
   </g>
   <g id="patch_4">
    <path d="M 441.571875 298.245375 
L 441.571875 32.133375 
" style="fill:none;stroke:#000000;stroke-linecap:square;stroke-linejoin:miter;stroke-width:0.8;"/>
   </g>
   <g id="patch_5">
    <path d="M 84.451875 298.245375 
L 441.571875 298.245375 
" style="fill:none;stroke:#000000;stroke-linecap:square;stroke-linejoin:miter;stroke-width:0.8;"/>
   </g>
   <g id="patch_6">
    <path d="M 84.451875 32.133375 
L 441.571875 32.133375 
" style="fill:none;stroke:#000000;stroke-linecap:square;stroke-linejoin:miter;stroke-width:0.8;"/>
   </g>
   <g id="text_14">
    <!-- cob-1e-5 o -->
    <defs>
     <path d="M 48.6875 27.296875 
Q 48.6875 37.203125 44.609375 42.84375 
Q 40.53125 48.484375 33.40625 48.484375 
Q 26.265625 48.484375 22.1875 42.84375 
Q 18.109375 37.203125 18.109375 27.296875 
Q 18.109375 17.390625 22.1875 11.75 
Q 26.265625 6.109375 33.40625 6.109375 
Q 40.53125 6.109375 44.609375 11.75 
Q 48.6875 17.390625 48.6875 27.296875 
z
M 18.109375 46.390625 
Q 20.953125 51.265625 25.265625 53.625 
Q 29.59375 56 35.59375 56 
Q 45.5625 56 51.78125 48.09375 
Q 58.015625 40.1875 58.015625 27.296875 
Q 58.015625 14.40625 51.78125 6.484375 
Q 45.5625 -1.421875 35.59375 -1.421875 
Q 29.59375 -1.421875 25.265625 0.953125 
Q 20.953125 3.328125 18.109375 8.203125 
L 18.109375 0 
L 9.078125 0 
L 9.078125 75.984375 
L 18.109375 75.984375 
z
" id="DejaVuSans-62"/>
     <path d="M 10.796875 72.90625 
L 49.515625 72.90625 
L 49.515625 64.59375 
L 19.828125 64.59375 
L 19.828125 46.734375 
Q 21.96875 47.46875 24.109375 47.828125 
Q 26.265625 48.1875 28.421875 48.1875 
Q 40.625 48.1875 47.75 41.5 
Q 54.890625 34.8125 54.890625 23.390625 
Q 54.890625 11.625 47.5625 5.09375 
Q 40.234375 -1.421875 26.90625 -1.421875 
Q 22.3125 -1.421875 17.546875 -0.640625 
Q 12.796875 0.140625 7.71875 1.703125 
L 7.71875 11.625 
Q 12.109375 9.234375 16.796875 8.0625 
Q 21.484375 6.890625 26.703125 6.890625 
Q 35.15625 6.890625 40.078125 11.328125 
Q 45.015625 15.765625 45.015625 23.390625 
Q 45.015625 31 40.078125 35.4375 
Q 35.15625 39.890625 26.703125 39.890625 
Q 22.75 39.890625 18.8125 39.015625 
Q 14.890625 38.140625 10.796875 36.28125 
z
" id="DejaVuSans-35"/>
    </defs>
    <g transform="translate(409.891875 297.114893)scale(0.15 -0.15)">
     <use xlink:href="#DejaVuSans-63"/>
     <use x="54.980469" xlink:href="#DejaVuSans-6f"/>
     <use x="116.162109" xlink:href="#DejaVuSans-62"/>
     <use x="179.638672" xlink:href="#DejaVuSans-2d"/>
     <use x="215.722656" xlink:href="#DejaVuSans-31"/>
     <use x="279.345703" xlink:href="#DejaVuSans-65"/>
     <use x="340.869141" xlink:href="#DejaVuSans-2d"/>
     <use x="376.953125" xlink:href="#DejaVuSans-35"/>
     <use x="440.576172" xlink:href="#DejaVuSans-20"/>
     <use x="472.363281" xlink:href="#DejaVuSans-6f"/>
    </g>
   </g>
   <g id="text_15">
    <!-- cob-1e-7 o -->
    <defs>
     <path d="M 8.203125 72.90625 
L 55.078125 72.90625 
L 55.078125 68.703125 
L 28.609375 0 
L 18.3125 0 
L 43.21875 64.59375 
L 8.203125 64.59375 
z
" id="DejaVuSans-37"/>
    </defs>
    <g transform="translate(409.891875 212.80218)scale(0.15 -0.15)">
     <use xlink:href="#DejaVuSans-63"/>
     <use x="54.980469" xlink:href="#DejaVuSans-6f"/>
     <use x="116.162109" xlink:href="#DejaVuSans-62"/>
     <use x="179.638672" xlink:href="#DejaVuSans-2d"/>
     <use x="215.722656" xlink:href="#DejaVuSans-31"/>
     <use x="279.345703" xlink:href="#DejaVuSans-65"/>
     <use x="340.869141" xlink:href="#DejaVuSans-2d"/>
     <use x="376.953125" xlink:href="#DejaVuSans-37"/>
     <use x="440.576172" xlink:href="#DejaVuSans-20"/>
     <use x="472.363281" xlink:href="#DejaVuSans-6f"/>
    </g>
   </g>
   <g id="text_16">
    <!-- cob-1e-12  -->
    <g transform="translate(409.891875 128.489467)scale(0.15 -0.15)">
     <use xlink:href="#DejaVuSans-63"/>
     <use x="54.980469" xlink:href="#DejaVuSans-6f"/>
     <use x="116.162109" xlink:href="#DejaVuSans-62"/>
     <use x="179.638672" xlink:href="#DejaVuSans-2d"/>
     <use x="215.722656" xlink:href="#DejaVuSans-31"/>
     <use x="279.345703" xlink:href="#DejaVuSans-65"/>
     <use x="340.869141" xlink:href="#DejaVuSans-2d"/>
     <use x="376.953125" xlink:href="#DejaVuSans-31"/>
     <use x="440.576172" xlink:href="#DejaVuSans-32"/>
     <use x="504.199219" xlink:href="#DejaVuSans-20"/>
    </g>
   </g>
   <g id="text_17">
    <!-- cob-1e-9 o -->
    <defs>
     <path d="M 10.984375 1.515625 
L 10.984375 10.5 
Q 14.703125 8.734375 18.5 7.8125 
Q 22.3125 6.890625 25.984375 6.890625 
Q 35.75 6.890625 40.890625 13.453125 
Q 46.046875 20.015625 46.78125 33.40625 
Q 43.953125 29.203125 39.59375 26.953125 
Q 35.25 24.703125 29.984375 24.703125 
Q 19.046875 24.703125 12.671875 31.3125 
Q 6.296875 37.9375 6.296875 49.421875 
Q 6.296875 60.640625 12.9375 67.421875 
Q 19.578125 74.21875 30.609375 74.21875 
Q 43.265625 74.21875 49.921875 64.515625 
Q 56.59375 54.828125 56.59375 36.375 
Q 56.59375 19.140625 48.40625 8.859375 
Q 40.234375 -1.421875 26.421875 -1.421875 
Q 22.703125 -1.421875 18.890625 -0.6875 
Q 15.09375 0.046875 10.984375 1.515625 
z
M 30.609375 32.421875 
Q 37.25 32.421875 41.125 36.953125 
Q 45.015625 41.5 45.015625 49.421875 
Q 45.015625 57.28125 41.125 61.84375 
Q 37.25 66.40625 30.609375 66.40625 
Q 23.96875 66.40625 20.09375 61.84375 
Q 16.21875 57.28125 16.21875 49.421875 
Q 16.21875 41.5 20.09375 36.953125 
Q 23.96875 32.421875 30.609375 32.421875 
z
" id="DejaVuSans-39"/>
    </defs>
    <g transform="translate(409.891875 44.176754)scale(0.15 -0.15)">
     <use xlink:href="#DejaVuSans-63"/>
     <use x="54.980469" xlink:href="#DejaVuSans-6f"/>
     <use x="116.162109" xlink:href="#DejaVuSans-62"/>
     <use x="179.638672" xlink:href="#DejaVuSans-2d"/>
     <use x="215.722656" xlink:href="#DejaVuSans-31"/>
     <use x="279.345703" xlink:href="#DejaVuSans-65"/>
     <use x="340.869141" xlink:href="#DejaVuSans-2d"/>
     <use x="376.953125" xlink:href="#DejaVuSans-39"/>
     <use x="440.576172" xlink:href="#DejaVuSans-20"/>
     <use x="472.363281" xlink:href="#DejaVuSans-6f"/>
    </g>
   </g>
   <g id="text_18">
    <!-- bbob-constrained - f45, 5-D -->
    <defs>
     <path d="M 11.71875 12.40625 
L 22.015625 12.40625 
L 22.015625 4 
L 14.015625 -11.625 
L 7.71875 -11.625 
L 11.71875 4 
z
" id="DejaVuSans-2c"/>
     <path d="M 19.671875 64.796875 
L 19.671875 8.109375 
L 31.59375 8.109375 
Q 46.6875 8.109375 53.6875 14.9375 
Q 60.6875 21.78125 60.6875 36.53125 
Q 60.6875 51.171875 53.6875 57.984375 
Q 46.6875 64.796875 31.59375 64.796875 
z
M 9.8125 72.90625 
L 30.078125 72.90625 
Q 51.265625 72.90625 61.171875 64.09375 
Q 71.09375 55.28125 71.09375 36.53125 
Q 71.09375 17.671875 61.125 8.828125 
Q 51.171875 0 30.078125 0 
L 9.8125 0 
z
" id="DejaVuSans-44"/>
    </defs>
    <g transform="translate(88.023075 50.114612)scale(0.1666 -0.1666)">
     <use xlink:href="#DejaVuSans-62"/>
     <use x="63.476562" xlink:href="#DejaVuSans-62"/>
     <use x="126.953125" xlink:href="#DejaVuSans-6f"/>
     <use x="188.134766" xlink:href="#DejaVuSans-62"/>
     <use x="251.611328" xlink:href="#DejaVuSans-2d"/>
     <use x="287.695312" xlink:href="#DejaVuSans-63"/>
     <use x="342.675781" xlink:href="#DejaVuSans-6f"/>
     <use x="403.857422" xlink:href="#DejaVuSans-6e"/>
     <use x="467.236328" xlink:href="#DejaVuSans-73"/>
     <use x="519.335938" xlink:href="#DejaVuSans-74"/>
     <use x="558.544922" xlink:href="#DejaVuSans-72"/>
     <use x="599.658203" xlink:href="#DejaVuSans-61"/>
     <use x="660.9375" xlink:href="#DejaVuSans-69"/>
     <use x="688.720703" xlink:href="#DejaVuSans-6e"/>
     <use x="752.099609" xlink:href="#DejaVuSans-65"/>
     <use x="813.623047" xlink:href="#DejaVuSans-64"/>
     <use x="877.099609" xlink:href="#DejaVuSans-20"/>
     <use x="908.886719" xlink:href="#DejaVuSans-2d"/>
     <use x="944.970703" xlink:href="#DejaVuSans-20"/>
     <use x="976.757812" xlink:href="#DejaVuSans-66"/>
     <use x="1011.962891" xlink:href="#DejaVuSans-34"/>
     <use x="1075.585938" xlink:href="#DejaVuSans-35"/>
     <use x="1139.208984" xlink:href="#DejaVuSans-2c"/>
     <use x="1170.996094" xlink:href="#DejaVuSans-20"/>
     <use x="1202.783203" xlink:href="#DejaVuSans-35"/>
     <use x="1266.40625" xlink:href="#DejaVuSans-2d"/>
     <use x="1302.490234" xlink:href="#DejaVuSans-44"/>
    </g>
    <!-- 51 targets in 100..1e-08 -->
    <g transform="translate(88.023075 68.770168)scale(0.1666 -0.1666)">
     <use xlink:href="#DejaVuSans-35"/>
     <use x="63.623047" xlink:href="#DejaVuSans-31"/>
     <use x="127.246094" xlink:href="#DejaVuSans-20"/>
     <use x="159.033203" xlink:href="#DejaVuSans-74"/>
     <use x="198.242188" xlink:href="#DejaVuSans-61"/>
     <use x="259.521484" xlink:href="#DejaVuSans-72"/>
     <use x="300.619141" xlink:href="#DejaVuSans-67"/>
     <use x="364.095703" xlink:href="#DejaVuSans-65"/>
     <use x="425.619141" xlink:href="#DejaVuSans-74"/>
     <use x="464.828125" xlink:href="#DejaVuSans-73"/>
     <use x="516.927734" xlink:href="#DejaVuSans-20"/>
     <use x="548.714844" xlink:href="#DejaVuSans-69"/>
     <use x="576.498047" xlink:href="#DejaVuSans-6e"/>
     <use x="639.876953" xlink:href="#DejaVuSans-20"/>
     <use x="671.664062" xlink:href="#DejaVuSans-31"/>
     <use x="735.287109" xlink:href="#DejaVuSans-30"/>
     <use x="798.910156" xlink:href="#DejaVuSans-30"/>
     <use x="862.533203" xlink:href="#DejaVuSans-2e"/>
     <use x="894.320312" xlink:href="#DejaVuSans-2e"/>
     <use x="926.107422" xlink:href="#DejaVuSans-31"/>
     <use x="989.730469" xlink:href="#DejaVuSans-65"/>
     <use x="1051.253906" xlink:href="#DejaVuSans-2d"/>
     <use x="1087.337891" xlink:href="#DejaVuSans-30"/>
     <use x="1150.960938" xlink:href="#DejaVuSans-38"/>
    </g>
    <!-- 15 instances -->
    <g transform="translate(88.023075 87.425723)scale(0.1666 -0.1666)">
     <use xlink:href="#DejaVuSans-31"/>
     <use x="63.623047" xlink:href="#DejaVuSans-35"/>
     <use x="127.246094" xlink:href="#DejaVuSans-20"/>
     <use x="159.033203" xlink:href="#DejaVuSans-69"/>
     <use x="186.816406" xlink:href="#DejaVuSans-6e"/>
     <use x="250.195312" xlink:href="#DejaVuSans-73"/>
     <use x="302.294922" xlink:href="#DejaVuSans-74"/>
     <use x="341.503906" xlink:href="#DejaVuSans-61"/>
     <use x="402.783203" xlink:href="#DejaVuSans-6e"/>
     <use x="466.162109" xlink:href="#DejaVuSans-63"/>
     <use x="521.142578" xlink:href="#DejaVuSans-65"/>
     <use x="582.666016" xlink:href="#DejaVuSans-73"/>
    </g>
   </g>
   <g id="text_19">
    <!-- v2.0.312 -->
    <defs>
     <path d="M 40.578125 39.3125 
Q 47.65625 37.796875 51.625 33 
Q 55.609375 28.21875 55.609375 21.1875 
Q 55.609375 10.40625 48.1875 4.484375 
Q 40.765625 -1.421875 27.09375 -1.421875 
Q 22.515625 -1.421875 17.65625 -0.515625 
Q 12.796875 0.390625 7.625 2.203125 
L 7.625 11.71875 
Q 11.71875 9.328125 16.59375 8.109375 
Q 21.484375 6.890625 26.8125 6.890625 
Q 36.078125 6.890625 40.9375 10.546875 
Q 45.796875 14.203125 45.796875 21.1875 
Q 45.796875 27.640625 41.28125 31.265625 
Q 36.765625 34.90625 28.71875 34.90625 
L 20.21875 34.90625 
L 20.21875 43.015625 
L 29.109375 43.015625 
Q 36.375 43.015625 40.234375 45.921875 
Q 44.09375 48.828125 44.09375 54.296875 
Q 44.09375 59.90625 40.109375 62.90625 
Q 36.140625 65.921875 28.71875 65.921875 
Q 24.65625 65.921875 20.015625 65.03125 
Q 15.375 64.15625 9.8125 62.3125 
L 9.8125 71.09375 
Q 15.4375 72.65625 20.34375 73.4375 
Q 25.25 74.21875 29.59375 74.21875 
Q 40.828125 74.21875 47.359375 69.109375 
Q 53.90625 64.015625 53.90625 55.328125 
Q 53.90625 49.265625 50.4375 45.09375 
Q 46.96875 40.921875 40.578125 39.3125 
z
" id="DejaVuSans-33"/>
    </defs>
    <g style="fill:#808080;" transform="translate(240.968125 293.504568)scale(0.1 -0.1)">
     <use xlink:href="#DejaVuSans-76"/>
     <use x="59.179688" xlink:href="#DejaVuSans-32"/>
     <use x="122.802734" xlink:href="#DejaVuSans-2e"/>
     <use x="154.589844" xlink:href="#DejaVuSans-30"/>
     <use x="218.212891" xlink:href="#DejaVuSans-2e"/>
     <use x="250" xlink:href="#DejaVuSans-33"/>
     <use x="313.623047" xlink:href="#DejaVuSans-31"/>
     <use x="377.246094" xlink:href="#DejaVuSans-32"/>
    </g>
   </g>
   <g id="text_20">
    <!-- 45 Separable Rastrigin with 10 constraints -->
    <defs>
     <path d="M 53.515625 70.515625 
L 53.515625 60.890625 
Q 47.90625 63.578125 42.921875 64.890625 
Q 37.9375 66.21875 33.296875 66.21875 
Q 25.25 66.21875 20.875 63.09375 
Q 16.5 59.96875 16.5 54.203125 
Q 16.5 49.359375 19.40625 46.890625 
Q 22.3125 44.4375 30.421875 42.921875 
L 36.375 41.703125 
Q 47.40625 39.59375 52.65625 34.296875 
Q 57.90625 29 57.90625 20.125 
Q 57.90625 9.515625 50.796875 4.046875 
Q 43.703125 -1.421875 29.984375 -1.421875 
Q 24.8125 -1.421875 18.96875 -0.25 
Q 13.140625 0.921875 6.890625 3.21875 
L 6.890625 13.375 
Q 12.890625 10.015625 18.65625 8.296875 
Q 24.421875 6.59375 29.984375 6.59375 
Q 38.421875 6.59375 43.015625 9.90625 
Q 47.609375 13.234375 47.609375 19.390625 
Q 47.609375 24.75 44.3125 27.78125 
Q 41.015625 30.8125 33.5 32.328125 
L 27.484375 33.5 
Q 16.453125 35.6875 11.515625 40.375 
Q 6.59375 45.0625 6.59375 53.421875 
Q 6.59375 63.09375 13.40625 68.65625 
Q 20.21875 74.21875 32.171875 74.21875 
Q 37.3125 74.21875 42.625 73.28125 
Q 47.953125 72.359375 53.515625 70.515625 
z
" id="DejaVuSans-53"/>
     <path d="M 44.390625 34.1875 
Q 47.5625 33.109375 50.5625 29.59375 
Q 53.5625 26.078125 56.59375 19.921875 
L 66.609375 0 
L 56 0 
L 46.6875 18.703125 
Q 43.0625 26.03125 39.671875 28.421875 
Q 36.28125 30.8125 30.421875 30.8125 
L 19.671875 30.8125 
L 19.671875 0 
L 9.8125 0 
L 9.8125 72.90625 
L 32.078125 72.90625 
Q 44.578125 72.90625 50.734375 67.671875 
Q 56.890625 62.453125 56.890625 51.90625 
Q 56.890625 45.015625 53.6875 40.46875 
Q 50.484375 35.9375 44.390625 34.1875 
z
M 19.671875 64.796875 
L 19.671875 38.921875 
L 32.078125 38.921875 
Q 39.203125 38.921875 42.84375 42.21875 
Q 46.484375 45.515625 46.484375 51.90625 
Q 46.484375 58.296875 42.84375 61.546875 
Q 39.203125 64.796875 32.078125 64.796875 
z
" id="DejaVuSans-52"/>
     <path d="M 4.203125 54.6875 
L 13.1875 54.6875 
L 24.421875 12.015625 
L 35.59375 54.6875 
L 46.1875 54.6875 
L 57.421875 12.015625 
L 68.609375 54.6875 
L 77.59375 54.6875 
L 63.28125 0 
L 52.6875 0 
L 40.921875 44.828125 
L 29.109375 0 
L 18.5 0 
z
" id="DejaVuSans-77"/>
     <path d="M 54.890625 33.015625 
L 54.890625 0 
L 45.90625 0 
L 45.90625 32.71875 
Q 45.90625 40.484375 42.875 44.328125 
Q 39.84375 48.1875 33.796875 48.1875 
Q 26.515625 48.1875 22.3125 43.546875 
Q 18.109375 38.921875 18.109375 30.90625 
L 18.109375 0 
L 9.078125 0 
L 9.078125 75.984375 
L 18.109375 75.984375 
L 18.109375 46.1875 
Q 21.34375 51.125 25.703125 53.5625 
Q 30.078125 56 35.796875 56 
Q 45.21875 56 50.046875 50.171875 
Q 54.890625 44.34375 54.890625 33.015625 
z
" id="DejaVuSans-68"/>
    </defs>
    <g transform="translate(7.2 26.133375)scale(0.24 -0.24)">
     <use xlink:href="#DejaVuSans-34"/>
     <use x="63.623047" xlink:href="#DejaVuSans-35"/>
     <use x="127.246094" xlink:href="#DejaVuSans-20"/>
     <use x="159.033203" xlink:href="#DejaVuSans-53"/>
     <use x="222.509766" xlink:href="#DejaVuSans-65"/>
     <use x="284.033203" xlink:href="#DejaVuSans-70"/>
     <use x="347.509766" xlink:href="#DejaVuSans-61"/>
     <use x="408.789062" xlink:href="#DejaVuSans-72"/>
     <use x="449.902344" xlink:href="#DejaVuSans-61"/>
     <use x="511.181641" xlink:href="#DejaVuSans-62"/>
     <use x="574.658203" xlink:href="#DejaVuSans-6c"/>
     <use x="602.441406" xlink:href="#DejaVuSans-65"/>
     <use x="663.964844" xlink:href="#DejaVuSans-20"/>
     <use x="695.751953" xlink:href="#DejaVuSans-52"/>
     <use x="765.203125" xlink:href="#DejaVuSans-61"/>
     <use x="826.482422" xlink:href="#DejaVuSans-73"/>
     <use x="878.582031" xlink:href="#DejaVuSans-74"/>
     <use x="917.791016" xlink:href="#DejaVuSans-72"/>
     <use x="958.904297" xlink:href="#DejaVuSans-69"/>
     <use x="986.6875" xlink:href="#DejaVuSans-67"/>
     <use x="1050.164062" xlink:href="#DejaVuSans-69"/>
     <use x="1077.947266" xlink:href="#DejaVuSans-6e"/>
     <use x="1141.326172" xlink:href="#DejaVuSans-20"/>
     <use x="1173.113281" xlink:href="#DejaVuSans-77"/>
     <use x="1254.900391" xlink:href="#DejaVuSans-69"/>
     <use x="1282.683594" xlink:href="#DejaVuSans-74"/>
     <use x="1321.892578" xlink:href="#DejaVuSans-68"/>
     <use x="1385.271484" xlink:href="#DejaVuSans-20"/>
     <use x="1417.058594" xlink:href="#DejaVuSans-31"/>
     <use x="1480.681641" xlink:href="#DejaVuSans-30"/>
     <use x="1544.304688" xlink:href="#DejaVuSans-20"/>
     <use x="1576.091797" xlink:href="#DejaVuSans-63"/>
     <use x="1631.072266" xlink:href="#DejaVuSans-6f"/>
     <use x="1692.253906" xlink:href="#DejaVuSans-6e"/>
     <use x="1755.632812" xlink:href="#DejaVuSans-73"/>
     <use x="1807.732422" xlink:href="#DejaVuSans-74"/>
     <use x="1846.941406" xlink:href="#DejaVuSans-72"/>
     <use x="1888.054688" xlink:href="#DejaVuSans-61"/>
     <use x="1949.333984" xlink:href="#DejaVuSans-69"/>
     <use x="1977.117188" xlink:href="#DejaVuSans-6e"/>
     <use x="2040.496094" xlink:href="#DejaVuSans-74"/>
     <use x="2079.705078" xlink:href="#DejaVuSans-73"/>
    </g>
   </g>
  </g>
 </g>
 <defs>
  <clipPath id="p9910b95198">
   <rect height="266.112" width="357.12" x="84.451875" y="32.133375"/>
  </clipPath>
 </defs>
</svg>
