<?xml version="1.0" encoding="utf-8" standalone="no"?>
<!DOCTYPE svg PUBLIC "-//W3C//DTD SVG 1.1//EN"
  "http://www.w3.org/Graphics/SVG/1.1/DTD/svg11.dtd">
<!-- Created with matplotlib (http://matplotlib.org/) -->
<svg height="353pt" version="1.1" viewBox="0 0 509 353" width="509pt" xmlns="http://www.w3.org/2000/svg" xmlns:xlink="http://www.w3.org/1999/xlink">
 <defs>
  <style type="text/css">
*{stroke-linecap:butt;stroke-linejoin:round;}
  </style>
 </defs>
 <g id="figure_1">
  <g id="patch_1">
   <path d="M 0 353.22225 
L 509.91375 353.22225 
L 509.91375 0 
L 0 0 
z
" style="fill:#ffffff;"/>
  </g>
  <g id="axes_1">
   <g id="patch_2">
    <path d="M 76.396875 298.245375 
L 433.516875 298.245375 
L 433.516875 32.133375 
L 76.396875 32.133375 
z
" style="fill:#ffffff;"/>
   </g>
   <g id="matplotlib.axis_1">
    <g id="xtick_1">
     <g id="line2d_1">
      <path clip-path="url(#pedf02ef635)" d="M 76.396875 298.245375 
L 76.396875 32.133375 
" style="fill:none;stroke:#b0b0b0;stroke-linecap:square;stroke-width:0.8;"/>
     </g>
     <g id="line2d_2">
      <defs>
       <path d="M 0 0 
L 0 3.5 
" id="mde494867cf" style="stroke:#000000;stroke-width:0.8;"/>
      </defs>
      <g>
       <use style="stroke:#000000;stroke-width:0.8;" x="76.396875" xlink:href="#mde494867cf" y="298.245375"/>
      </g>
     </g>
     <g id="text_1">
      <!-- 0 -->
      <defs>
       <path d="M 31.78125 66.40625 
Q 24.171875 66.40625 20.328125 58.90625 
Q 16.5 51.421875 16.5 36.375 
Q 16.5 21.390625 20.328125 13.890625 
Q 24.171875 6.390625 31.78125 6.390625 
Q 39.453125 6.390625 43.28125 13.890625 
Q 47.125 21.390625 47.125 36.375 
Q 47.125 51.421875 43.28125 58.90625 
Q 39.453125 66.40625 31.78125 66.40625 
z
M 31.78125 74.21875 
Q 44.046875 74.21875 50.515625 64.515625 
Q 56.984375 54.828125 56.984375 36.375 
Q 56.984375 17.96875 50.515625 8.265625 
Q 44.046875 -1.421875 31.78125 -1.421875 
Q 19.53125 -1.421875 13.0625 8.265625 
Q 6.59375 17.96875 6.59375 36.375 
Q 6.59375 54.828125 13.0625 64.515625 
Q 19.53125 74.21875 31.78125 74.21875 
z
" id="DejaVuSans-30"/>
      </defs>
      <g transform="translate(70.034375 320.44225)scale(0.2 -0.2)">
       <use xlink:href="#DejaVuSans-30"/>
      </g>
     </g>
    </g>
    <g id="xtick_2">
     <g id="line2d_3">
      <path clip-path="url(#pedf02ef635)" d="M 158.682589 298.245375 
L 158.682589 32.133375 
" style="fill:none;stroke:#b0b0b0;stroke-linecap:square;stroke-width:0.8;"/>
     </g>
     <g id="line2d_4">
      <g>
       <use style="stroke:#000000;stroke-width:0.8;" x="158.682589" xlink:href="#mde494867cf" y="298.245375"/>
      </g>
     </g>
     <g id="text_2">
      <!-- 2 -->
      <defs>
       <path d="M 19.1875 8.296875 
L 53.609375 8.296875 
L 53.609375 0 
L 7.328125 0 
L 7.328125 8.296875 
Q 12.9375 14.109375 22.625 23.890625 
Q 32.328125 33.6875 34.8125 36.53125 
Q 39.546875 41.84375 41.421875 45.53125 
Q 43.3125 49.21875 43.3125 52.78125 
Q 43.3125 58.59375 39.234375 62.25 
Q 35.15625 65.921875 28.609375 65.921875 
Q 23.96875 65.921875 18.8125 64.3125 
Q 13.671875 62.703125 7.8125 59.421875 
L 7.8125 69.390625 
Q 13.765625 71.78125 18.9375 73 
Q 24.125 74.21875 28.421875 74.21875 
Q 39.75 74.21875 46.484375 68.546875 
Q 53.21875 62.890625 53.21875 53.421875 
Q 53.21875 48.921875 51.53125 44.890625 
Q 49.859375 40.875 45.40625 35.40625 
Q 44.1875 33.984375 37.640625 27.21875 
Q 31.109375 20.453125 19.1875 8.296875 
z
" id="DejaVuSans-32"/>
      </defs>
      <g transform="translate(152.320089 320.44225)scale(0.2 -0.2)">
       <use xlink:href="#DejaVuSans-32"/>
      </g>
     </g>
    </g>
    <g id="xtick_3">
     <g id="line2d_5">
      <path clip-path="url(#pedf02ef635)" d="M 240.968304 298.245375 
L 240.968304 32.133375 
" style="fill:none;stroke:#b0b0b0;stroke-linecap:square;stroke-width:0.8;"/>
     </g>
     <g id="line2d_6">
      <g>
       <use style="stroke:#000000;stroke-width:0.8;" x="240.968304" xlink:href="#mde494867cf" y="298.245375"/>
      </g>
     </g>
     <g id="text_3">
      <!-- 4 -->
      <defs>
       <path d="M 37.796875 64.3125 
L 12.890625 25.390625 
L 37.796875 25.390625 
z
M 35.203125 72.90625 
L 47.609375 72.90625 
L 47.609375 25.390625 
L 58.015625 25.390625 
L 58.015625 17.1875 
L 47.609375 17.1875 
L 47.609375 0 
L 37.796875 0 
L 37.796875 17.1875 
L 4.890625 17.1875 
L 4.890625 26.703125 
z
" id="DejaVuSans-34"/>
      </defs>
      <g transform="translate(234.605804 320.44225)scale(0.2 -0.2)">
       <use xlink:href="#DejaVuSans-34"/>
      </g>
     </g>
    </g>
    <g id="xtick_4">
     <g id="line2d_7">
      <path clip-path="url(#pedf02ef635)" d="M 323.254018 298.245375 
L 323.254018 32.133375 
" style="fill:none;stroke:#b0b0b0;stroke-linecap:square;stroke-width:0.8;"/>
     </g>
     <g id="line2d_8">
      <g>
       <use style="stroke:#000000;stroke-width:0.8;" x="323.254018" xlink:href="#mde494867cf" y="298.245375"/>
      </g>
     </g>
     <g id="text_4">
      <!-- 6 -->
      <defs>
       <path d="M 33.015625 40.375 
Q 26.375 40.375 22.484375 35.828125 
Q 18.609375 31.296875 18.609375 23.390625 
Q 18.609375 15.53125 22.484375 10.953125 
Q 26.375 6.390625 33.015625 6.390625 
Q 39.65625 6.390625 43.53125 10.953125 
Q 47.40625 15.53125 47.40625 23.390625 
Q 47.40625 31.296875 43.53125 35.828125 
Q 39.65625 40.375 33.015625 40.375 
z
M 52.59375 71.296875 
L 52.59375 62.3125 
Q 48.875 64.0625 45.09375 64.984375 
Q 41.3125 65.921875 37.59375 65.921875 
Q 27.828125 65.921875 22.671875 59.328125 
Q 17.53125 52.734375 16.796875 39.40625 
Q 19.671875 43.65625 24.015625 45.921875 
Q 28.375 48.1875 33.59375 48.1875 
Q 44.578125 48.1875 50.953125 41.515625 
Q 57.328125 34.859375 57.328125 23.390625 
Q 57.328125 12.15625 50.6875 5.359375 
Q 44.046875 -1.421875 33.015625 -1.421875 
Q 20.359375 -1.421875 13.671875 8.265625 
Q 6.984375 17.96875 6.984375 36.375 
Q 6.984375 53.65625 15.1875 63.9375 
Q 23.390625 74.21875 37.203125 74.21875 
Q 40.921875 74.21875 44.703125 73.484375 
Q 48.484375 72.75 52.59375 71.296875 
z
" id="DejaVuSans-36"/>
      </defs>
      <g transform="translate(316.891518 320.44225)scale(0.2 -0.2)">
       <use xlink:href="#DejaVuSans-36"/>
      </g>
     </g>
    </g>
    <g id="xtick_5">
     <g id="line2d_9">
      <path clip-path="url(#pedf02ef635)" d="M 405.539732 298.245375 
L 405.539732 32.133375 
" style="fill:none;stroke:#b0b0b0;stroke-linecap:square;stroke-width:0.8;"/>
     </g>
     <g id="line2d_10">
      <g>
       <use style="stroke:#000000;stroke-width:0.8;" x="405.539732" xlink:href="#mde494867cf" y="298.245375"/>
      </g>
     </g>
     <g id="text_5">
      <!-- 8 -->
      <defs>
       <path d="M 31.78125 34.625 
Q 24.75 34.625 20.71875 30.859375 
Q 16.703125 27.09375 16.703125 20.515625 
Q 16.703125 13.921875 20.71875 10.15625 
Q 24.75 6.390625 31.78125 6.390625 
Q 38.8125 6.390625 42.859375 10.171875 
Q 46.921875 13.96875 46.921875 20.515625 
Q 46.921875 27.09375 42.890625 30.859375 
Q 38.875 34.625 31.78125 34.625 
z
M 21.921875 38.8125 
Q 15.578125 40.375 12.03125 44.71875 
Q 8.5 49.078125 8.5 55.328125 
Q 8.5 64.0625 14.71875 69.140625 
Q 20.953125 74.21875 31.78125 74.21875 
Q 42.671875 74.21875 48.875 69.140625 
Q 55.078125 64.0625 55.078125 55.328125 
Q 55.078125 49.078125 51.53125 44.71875 
Q 48 40.375 41.703125 38.8125 
Q 48.828125 37.15625 52.796875 32.3125 
Q 56.78125 27.484375 56.78125 20.515625 
Q 56.78125 9.90625 50.3125 4.234375 
Q 43.84375 -1.421875 31.78125 -1.421875 
Q 19.734375 -1.421875 13.25 4.234375 
Q 6.78125 9.90625 6.78125 20.515625 
Q 6.78125 27.484375 10.78125 32.3125 
Q 14.796875 37.15625 21.921875 38.8125 
z
M 18.3125 54.390625 
Q 18.3125 48.734375 21.84375 45.5625 
Q 25.390625 42.390625 31.78125 42.390625 
Q 38.140625 42.390625 41.71875 45.5625 
Q 45.3125 48.734375 45.3125 54.390625 
Q 45.3125 60.0625 41.71875 63.234375 
Q 38.140625 66.40625 31.78125 66.40625 
Q 25.390625 66.40625 21.84375 63.234375 
Q 18.3125 60.0625 18.3125 54.390625 
z
" id="DejaVuSans-38"/>
      </defs>
      <g transform="translate(399.177232 320.44225)scale(0.2 -0.2)">
       <use xlink:href="#DejaVuSans-38"/>
      </g>
     </g>
    </g>
    <g id="text_6">
     <!-- log10 of # (f+g)-evals / dimension -->
     <defs>
      <path d="M 9.421875 75.984375 
L 18.40625 75.984375 
L 18.40625 0 
L 9.421875 0 
z
" id="DejaVuSans-6c"/>
      <path d="M 30.609375 48.390625 
Q 23.390625 48.390625 19.1875 42.75 
Q 14.984375 37.109375 14.984375 27.296875 
Q 14.984375 17.484375 19.15625 11.84375 
Q 23.34375 6.203125 30.609375 6.203125 
Q 37.796875 6.203125 41.984375 11.859375 
Q 46.1875 17.53125 46.1875 27.296875 
Q 46.1875 37.015625 41.984375 42.703125 
Q 37.796875 48.390625 30.609375 48.390625 
z
M 30.609375 56 
Q 42.328125 56 49.015625 48.375 
Q 55.71875 40.765625 55.71875 27.296875 
Q 55.71875 13.875 49.015625 6.21875 
Q 42.328125 -1.421875 30.609375 -1.421875 
Q 18.84375 -1.421875 12.171875 6.21875 
Q 5.515625 13.875 5.515625 27.296875 
Q 5.515625 40.765625 12.171875 48.375 
Q 18.84375 56 30.609375 56 
z
" id="DejaVuSans-6f"/>
      <path d="M 45.40625 27.984375 
Q 45.40625 37.75 41.375 43.109375 
Q 37.359375 48.484375 30.078125 48.484375 
Q 22.859375 48.484375 18.828125 43.109375 
Q 14.796875 37.75 14.796875 27.984375 
Q 14.796875 18.265625 18.828125 12.890625 
Q 22.859375 7.515625 30.078125 7.515625 
Q 37.359375 7.515625 41.375 12.890625 
Q 45.40625 18.265625 45.40625 27.984375 
z
M 54.390625 6.78125 
Q 54.390625 -7.171875 48.1875 -13.984375 
Q 42 -20.796875 29.203125 -20.796875 
Q 24.46875 -20.796875 20.265625 -20.09375 
Q 16.0625 -19.390625 12.109375 -17.921875 
L 12.109375 -9.1875 
Q 16.0625 -11.328125 19.921875 -12.34375 
Q 23.78125 -13.375 27.78125 -13.375 
Q 36.625 -13.375 41.015625 -8.765625 
Q 45.40625 -4.15625 45.40625 5.171875 
L 45.40625 9.625 
Q 42.625 4.78125 38.28125 2.390625 
Q 33.9375 0 27.875 0 
Q 17.828125 0 11.671875 7.65625 
Q 5.515625 15.328125 5.515625 27.984375 
Q 5.515625 40.671875 11.671875 48.328125 
Q 17.828125 56 27.875 56 
Q 33.9375 56 38.28125 53.609375 
Q 42.625 51.21875 45.40625 46.390625 
L 45.40625 54.6875 
L 54.390625 54.6875 
z
" id="DejaVuSans-67"/>
      <path d="M 12.40625 8.296875 
L 28.515625 8.296875 
L 28.515625 63.921875 
L 10.984375 60.40625 
L 10.984375 69.390625 
L 28.421875 72.90625 
L 38.28125 72.90625 
L 38.28125 8.296875 
L 54.390625 8.296875 
L 54.390625 0 
L 12.40625 0 
z
" id="DejaVuSans-31"/>
      <path id="DejaVuSans-20"/>
      <path d="M 37.109375 75.984375 
L 37.109375 68.5 
L 28.515625 68.5 
Q 23.6875 68.5 21.796875 66.546875 
Q 19.921875 64.59375 19.921875 59.515625 
L 19.921875 54.6875 
L 34.71875 54.6875 
L 34.71875 47.703125 
L 19.921875 47.703125 
L 19.921875 0 
L 10.890625 0 
L 10.890625 47.703125 
L 2.296875 47.703125 
L 2.296875 54.6875 
L 10.890625 54.6875 
L 10.890625 58.5 
Q 10.890625 67.625 15.140625 71.796875 
Q 19.390625 75.984375 28.609375 75.984375 
z
" id="DejaVuSans-66"/>
      <path d="M 51.125 44 
L 36.921875 44 
L 32.8125 27.6875 
L 47.125 27.6875 
z
M 43.796875 71.78125 
L 38.71875 51.515625 
L 52.984375 51.515625 
L 58.109375 71.78125 
L 65.921875 71.78125 
L 60.890625 51.515625 
L 76.125 51.515625 
L 76.125 44 
L 58.984375 44 
L 54.984375 27.6875 
L 70.515625 27.6875 
L 70.515625 20.21875 
L 53.078125 20.21875 
L 48 0 
L 40.1875 0 
L 45.21875 20.21875 
L 30.90625 20.21875 
L 25.875 0 
L 18.015625 0 
L 23.09375 20.21875 
L 7.71875 20.21875 
L 7.71875 27.6875 
L 24.90625 27.6875 
L 29 44 
L 13.28125 44 
L 13.28125 51.515625 
L 30.90625 51.515625 
L 35.890625 71.78125 
z
" id="DejaVuSans-23"/>
      <path d="M 31 75.875 
Q 24.46875 64.65625 21.28125 53.65625 
Q 18.109375 42.671875 18.109375 31.390625 
Q 18.109375 20.125 21.3125 9.0625 
Q 24.515625 -2 31 -13.1875 
L 23.1875 -13.1875 
Q 15.875 -1.703125 12.234375 9.375 
Q 8.59375 20.453125 8.59375 31.390625 
Q 8.59375 42.28125 12.203125 53.3125 
Q 15.828125 64.359375 23.1875 75.875 
z
" id="DejaVuSans-28"/>
      <path d="M 46 62.703125 
L 46 35.5 
L 73.1875 35.5 
L 73.1875 27.203125 
L 46 27.203125 
L 46 0 
L 37.796875 0 
L 37.796875 27.203125 
L 10.59375 27.203125 
L 10.59375 35.5 
L 37.796875 35.5 
L 37.796875 62.703125 
z
" id="DejaVuSans-2b"/>
      <path d="M 8.015625 75.875 
L 15.828125 75.875 
Q 23.140625 64.359375 26.78125 53.3125 
Q 30.421875 42.28125 30.421875 31.390625 
Q 30.421875 20.453125 26.78125 9.375 
Q 23.140625 -1.703125 15.828125 -13.1875 
L 8.015625 -13.1875 
Q 14.5 -2 17.703125 9.0625 
Q 20.90625 20.125 20.90625 31.390625 
Q 20.90625 42.671875 17.703125 53.65625 
Q 14.5 64.65625 8.015625 75.875 
z
" id="DejaVuSans-29"/>
      <path d="M 4.890625 31.390625 
L 31.203125 31.390625 
L 31.203125 23.390625 
L 4.890625 23.390625 
z
" id="DejaVuSans-2d"/>
      <path d="M 56.203125 29.59375 
L 56.203125 25.203125 
L 14.890625 25.203125 
Q 15.484375 15.921875 20.484375 11.0625 
Q 25.484375 6.203125 34.421875 6.203125 
Q 39.59375 6.203125 44.453125 7.46875 
Q 49.3125 8.734375 54.109375 11.28125 
L 54.109375 2.78125 
Q 49.265625 0.734375 44.1875 -0.34375 
Q 39.109375 -1.421875 33.890625 -1.421875 
Q 20.796875 -1.421875 13.15625 6.1875 
Q 5.515625 13.8125 5.515625 26.8125 
Q 5.515625 40.234375 12.765625 48.109375 
Q 20.015625 56 32.328125 56 
Q 43.359375 56 49.78125 48.890625 
Q 56.203125 41.796875 56.203125 29.59375 
z
M 47.21875 32.234375 
Q 47.125 39.59375 43.09375 43.984375 
Q 39.0625 48.390625 32.421875 48.390625 
Q 24.90625 48.390625 20.390625 44.140625 
Q 15.875 39.890625 15.1875 32.171875 
z
" id="DejaVuSans-65"/>
      <path d="M 2.984375 54.6875 
L 12.5 54.6875 
L 29.59375 8.796875 
L 46.6875 54.6875 
L 56.203125 54.6875 
L 35.6875 0 
L 23.484375 0 
z
" id="DejaVuSans-76"/>
      <path d="M 34.28125 27.484375 
Q 23.390625 27.484375 19.1875 25 
Q 14.984375 22.515625 14.984375 16.5 
Q 14.984375 11.71875 18.140625 8.90625 
Q 21.296875 6.109375 26.703125 6.109375 
Q 34.1875 6.109375 38.703125 11.40625 
Q 43.21875 16.703125 43.21875 25.484375 
L 43.21875 27.484375 
z
M 52.203125 31.203125 
L 52.203125 0 
L 43.21875 0 
L 43.21875 8.296875 
Q 40.140625 3.328125 35.546875 0.953125 
Q 30.953125 -1.421875 24.3125 -1.421875 
Q 15.921875 -1.421875 10.953125 3.296875 
Q 6 8.015625 6 15.921875 
Q 6 25.140625 12.171875 29.828125 
Q 18.359375 34.515625 30.609375 34.515625 
L 43.21875 34.515625 
L 43.21875 35.40625 
Q 43.21875 41.609375 39.140625 45 
Q 35.0625 48.390625 27.6875 48.390625 
Q 23 48.390625 18.546875 47.265625 
Q 14.109375 46.140625 10.015625 43.890625 
L 10.015625 52.203125 
Q 14.9375 54.109375 19.578125 55.046875 
Q 24.21875 56 28.609375 56 
Q 40.484375 56 46.34375 49.84375 
Q 52.203125 43.703125 52.203125 31.203125 
z
" id="DejaVuSans-61"/>
      <path d="M 44.28125 53.078125 
L 44.28125 44.578125 
Q 40.484375 46.53125 36.375 47.5 
Q 32.28125 48.484375 27.875 48.484375 
Q 21.1875 48.484375 17.84375 46.4375 
Q 14.5 44.390625 14.5 40.28125 
Q 14.5 37.15625 16.890625 35.375 
Q 19.28125 33.59375 26.515625 31.984375 
L 29.59375 31.296875 
Q 39.15625 29.25 43.1875 25.515625 
Q 47.21875 21.78125 47.21875 15.09375 
Q 47.21875 7.46875 41.1875 3.015625 
Q 35.15625 -1.421875 24.609375 -1.421875 
Q 20.21875 -1.421875 15.453125 -0.5625 
Q 10.6875 0.296875 5.421875 2 
L 5.421875 11.28125 
Q 10.40625 8.6875 15.234375 7.390625 
Q 20.0625 6.109375 24.8125 6.109375 
Q 31.15625 6.109375 34.5625 8.28125 
Q 37.984375 10.453125 37.984375 14.40625 
Q 37.984375 18.0625 35.515625 20.015625 
Q 33.0625 21.96875 24.703125 23.78125 
L 21.578125 24.515625 
Q 13.234375 26.265625 9.515625 29.90625 
Q 5.8125 33.546875 5.8125 39.890625 
Q 5.8125 47.609375 11.28125 51.796875 
Q 16.75 56 26.8125 56 
Q 31.78125 56 36.171875 55.265625 
Q 40.578125 54.546875 44.28125 53.078125 
z
" id="DejaVuSans-73"/>
      <path d="M 25.390625 72.90625 
L 33.6875 72.90625 
L 8.296875 -9.28125 
L 0 -9.28125 
z
" id="DejaVuSans-2f"/>
      <path d="M 45.40625 46.390625 
L 45.40625 75.984375 
L 54.390625 75.984375 
L 54.390625 0 
L 45.40625 0 
L 45.40625 8.203125 
Q 42.578125 3.328125 38.25 0.953125 
Q 33.9375 -1.421875 27.875 -1.421875 
Q 17.96875 -1.421875 11.734375 6.484375 
Q 5.515625 14.40625 5.515625 27.296875 
Q 5.515625 40.1875 11.734375 48.09375 
Q 17.96875 56 27.875 56 
Q 33.9375 56 38.25 53.625 
Q 42.578125 51.265625 45.40625 46.390625 
z
M 14.796875 27.296875 
Q 14.796875 17.390625 18.875 11.75 
Q 22.953125 6.109375 30.078125 6.109375 
Q 37.203125 6.109375 41.296875 11.75 
Q 45.40625 17.390625 45.40625 27.296875 
Q 45.40625 37.203125 41.296875 42.84375 
Q 37.203125 48.484375 30.078125 48.484375 
Q 22.953125 48.484375 18.875 42.84375 
Q 14.796875 37.203125 14.796875 27.296875 
z
" id="DejaVuSans-64"/>
      <path d="M 9.421875 54.6875 
L 18.40625 54.6875 
L 18.40625 0 
L 9.421875 0 
z
M 9.421875 75.984375 
L 18.40625 75.984375 
L 18.40625 64.59375 
L 9.421875 64.59375 
z
" id="DejaVuSans-69"/>
      <path d="M 52 44.1875 
Q 55.375 50.25 60.0625 53.125 
Q 64.75 56 71.09375 56 
Q 79.640625 56 84.28125 50.015625 
Q 88.921875 44.046875 88.921875 33.015625 
L 88.921875 0 
L 79.890625 0 
L 79.890625 32.71875 
Q 79.890625 40.578125 77.09375 44.375 
Q 74.3125 48.1875 68.609375 48.1875 
Q 61.625 48.1875 57.5625 43.546875 
Q 53.515625 38.921875 53.515625 30.90625 
L 53.515625 0 
L 44.484375 0 
L 44.484375 32.71875 
Q 44.484375 40.625 41.703125 44.40625 
Q 38.921875 48.1875 33.109375 48.1875 
Q 26.21875 48.1875 22.15625 43.53125 
Q 18.109375 38.875 18.109375 30.90625 
L 18.109375 0 
L 9.078125 0 
L 9.078125 54.6875 
L 18.109375 54.6875 
L 18.109375 46.1875 
Q 21.1875 51.21875 25.484375 53.609375 
Q 29.78125 56 35.6875 56 
Q 41.65625 56 45.828125 52.96875 
Q 50 49.953125 52 44.1875 
z
" id="DejaVuSans-6d"/>
      <path d="M 54.890625 33.015625 
L 54.890625 0 
L 45.90625 0 
L 45.90625 32.71875 
Q 45.90625 40.484375 42.875 44.328125 
Q 39.84375 48.1875 33.796875 48.1875 
Q 26.515625 48.1875 22.3125 43.546875 
Q 18.109375 38.921875 18.109375 30.90625 
L 18.109375 0 
L 9.078125 0 
L 9.078125 54.6875 
L 18.109375 54.6875 
L 18.109375 46.1875 
Q 21.34375 51.125 25.703125 53.5625 
Q 30.078125 56 35.796875 56 
Q 45.21875 56 50.046875 50.171875 
Q 54.890625 44.34375 54.890625 33.015625 
z
" id="DejaVuSans-6e"/>
     </defs>
     <g transform="translate(99.349688 342.278812)scale(0.18 -0.18)">
      <use xlink:href="#DejaVuSans-6c"/>
      <use x="27.783203" xlink:href="#DejaVuSans-6f"/>
      <use x="88.964844" xlink:href="#DejaVuSans-67"/>
      <use x="152.441406" xlink:href="#DejaVuSans-31"/>
      <use x="216.064453" xlink:href="#DejaVuSans-30"/>
      <use x="279.6875" xlink:href="#DejaVuSans-20"/>
      <use x="311.474609" xlink:href="#DejaVuSans-6f"/>
      <use x="372.65625" xlink:href="#DejaVuSans-66"/>
      <use x="407.861328" xlink:href="#DejaVuSans-20"/>
      <use x="439.648438" xlink:href="#DejaVuSans-23"/>
      <use x="523.4375" xlink:href="#DejaVuSans-20"/>
      <use x="555.224609" xlink:href="#DejaVuSans-28"/>
      <use x="594.238281" xlink:href="#DejaVuSans-66"/>
      <use x="629.443359" xlink:href="#DejaVuSans-2b"/>
      <use x="713.232422" xlink:href="#DejaVuSans-67"/>
      <use x="776.708984" xlink:href="#DejaVuSans-29"/>
      <use x="815.722656" xlink:href="#DejaVuSans-2d"/>
      <use x="851.806641" xlink:href="#DejaVuSans-65"/>
      <use x="913.330078" xlink:href="#DejaVuSans-76"/>
      <use x="972.509766" xlink:href="#DejaVuSans-61"/>
      <use x="1033.789062" xlink:href="#DejaVuSans-6c"/>
      <use x="1061.572266" xlink:href="#DejaVuSans-73"/>
      <use x="1113.671875" xlink:href="#DejaVuSans-20"/>
      <use x="1145.458984" xlink:href="#DejaVuSans-2f"/>
      <use x="1179.150391" xlink:href="#DejaVuSans-20"/>
      <use x="1210.9375" xlink:href="#DejaVuSans-64"/>
      <use x="1274.414062" xlink:href="#DejaVuSans-69"/>
      <use x="1302.197266" xlink:href="#DejaVuSans-6d"/>
      <use x="1399.609375" xlink:href="#DejaVuSans-65"/>
      <use x="1461.132812" xlink:href="#DejaVuSans-6e"/>
      <use x="1524.511719" xlink:href="#DejaVuSans-73"/>
      <use x="1576.611328" xlink:href="#DejaVuSans-69"/>
      <use x="1604.394531" xlink:href="#DejaVuSans-6f"/>
      <use x="1665.576172" xlink:href="#DejaVuSans-6e"/>
     </g>
    </g>
   </g>
   <g id="matplotlib.axis_2">
    <g id="ytick_1">
     <g id="line2d_11">
      <path clip-path="url(#pedf02ef635)" d="M 76.396875 298.245375 
L 433.516875 298.245375 
" style="fill:none;stroke:#b0b0b0;stroke-linecap:square;stroke-width:0.8;"/>
     </g>
     <g id="line2d_12">
      <defs>
       <path d="M 0 0 
L -3.5 0 
" id="m62fe0a4140" style="stroke:#000000;stroke-width:0.8;"/>
      </defs>
      <g>
       <use style="stroke:#000000;stroke-width:0.8;" x="76.396875" xlink:href="#m62fe0a4140" y="298.245375"/>
      </g>
     </g>
     <g id="text_7">
      <!-- 0.0 -->
      <defs>
       <path d="M 10.6875 12.40625 
L 21 12.40625 
L 21 0 
L 10.6875 0 
z
" id="DejaVuSans-2e"/>
      </defs>
      <g transform="translate(37.590625 305.843812)scale(0.2 -0.2)">
       <use xlink:href="#DejaVuSans-30"/>
       <use x="63.623047" xlink:href="#DejaVuSans-2e"/>
       <use x="95.410156" xlink:href="#DejaVuSans-30"/>
      </g>
     </g>
    </g>
    <g id="ytick_2">
     <g id="line2d_13">
      <path clip-path="url(#pedf02ef635)" d="M 76.396875 245.549929 
L 433.516875 245.549929 
" style="fill:none;stroke:#b0b0b0;stroke-linecap:square;stroke-width:0.8;"/>
     </g>
     <g id="line2d_14">
      <g>
       <use style="stroke:#000000;stroke-width:0.8;" x="76.396875" xlink:href="#m62fe0a4140" y="245.549929"/>
      </g>
     </g>
     <g id="text_8">
      <!-- 0.2 -->
      <g transform="translate(37.590625 253.148367)scale(0.2 -0.2)">
       <use xlink:href="#DejaVuSans-30"/>
       <use x="63.623047" xlink:href="#DejaVuSans-2e"/>
       <use x="95.410156" xlink:href="#DejaVuSans-32"/>
      </g>
     </g>
    </g>
    <g id="ytick_3">
     <g id="line2d_15">
      <path clip-path="url(#pedf02ef635)" d="M 76.396875 192.854484 
L 433.516875 192.854484 
" style="fill:none;stroke:#b0b0b0;stroke-linecap:square;stroke-width:0.8;"/>
     </g>
     <g id="line2d_16">
      <g>
       <use style="stroke:#000000;stroke-width:0.8;" x="76.396875" xlink:href="#m62fe0a4140" y="192.854484"/>
      </g>
     </g>
     <g id="text_9">
      <!-- 0.4 -->
      <g transform="translate(37.590625 200.452921)scale(0.2 -0.2)">
       <use xlink:href="#DejaVuSans-30"/>
       <use x="63.623047" xlink:href="#DejaVuSans-2e"/>
       <use x="95.410156" xlink:href="#DejaVuSans-34"/>
      </g>
     </g>
    </g>
    <g id="ytick_4">
     <g id="line2d_17">
      <path clip-path="url(#pedf02ef635)" d="M 76.396875 140.159038 
L 433.516875 140.159038 
" style="fill:none;stroke:#b0b0b0;stroke-linecap:square;stroke-width:0.8;"/>
     </g>
     <g id="line2d_18">
      <g>
       <use style="stroke:#000000;stroke-width:0.8;" x="76.396875" xlink:href="#m62fe0a4140" y="140.159038"/>
      </g>
     </g>
     <g id="text_10">
      <!-- 0.6 -->
      <g transform="translate(37.590625 147.757476)scale(0.2 -0.2)">
       <use xlink:href="#DejaVuSans-30"/>
       <use x="63.623047" xlink:href="#DejaVuSans-2e"/>
       <use x="95.410156" xlink:href="#DejaVuSans-36"/>
      </g>
     </g>
    </g>
    <g id="ytick_5">
     <g id="line2d_19">
      <path clip-path="url(#pedf02ef635)" d="M 76.396875 87.463593 
L 433.516875 87.463593 
" style="fill:none;stroke:#b0b0b0;stroke-linecap:square;stroke-width:0.8;"/>
     </g>
     <g id="line2d_20">
      <g>
       <use style="stroke:#000000;stroke-width:0.8;" x="76.396875" xlink:href="#m62fe0a4140" y="87.463593"/>
      </g>
     </g>
     <g id="text_11">
      <!-- 0.8 -->
      <g transform="translate(37.590625 95.06203)scale(0.2 -0.2)">
       <use xlink:href="#DejaVuSans-30"/>
       <use x="63.623047" xlink:href="#DejaVuSans-2e"/>
       <use x="95.410156" xlink:href="#DejaVuSans-38"/>
      </g>
     </g>
    </g>
    <g id="ytick_6">
     <g id="line2d_21">
      <path clip-path="url(#pedf02ef635)" d="M 76.396875 34.768147 
L 433.516875 34.768147 
" style="fill:none;stroke:#b0b0b0;stroke-linecap:square;stroke-width:0.8;"/>
     </g>
     <g id="line2d_22">
      <g>
       <use style="stroke:#000000;stroke-width:0.8;" x="76.396875" xlink:href="#m62fe0a4140" y="34.768147"/>
      </g>
     </g>
     <g id="text_12">
      <!-- 1.0 -->
      <g transform="translate(37.590625 42.366585)scale(0.2 -0.2)">
       <use xlink:href="#DejaVuSans-31"/>
       <use x="63.623047" xlink:href="#DejaVuSans-2e"/>
       <use x="95.410156" xlink:href="#DejaVuSans-30"/>
      </g>
     </g>
    </g>
    <g id="text_13">
     <!-- Proportion of function+target pairs -->
     <defs>
      <path d="M 19.671875 64.796875 
L 19.671875 37.40625 
L 32.078125 37.40625 
Q 38.96875 37.40625 42.71875 40.96875 
Q 46.484375 44.53125 46.484375 51.125 
Q 46.484375 57.671875 42.71875 61.234375 
Q 38.96875 64.796875 32.078125 64.796875 
z
M 9.8125 72.90625 
L 32.078125 72.90625 
Q 44.34375 72.90625 50.609375 67.359375 
Q 56.890625 61.8125 56.890625 51.125 
Q 56.890625 40.328125 50.609375 34.8125 
Q 44.34375 29.296875 32.078125 29.296875 
L 19.671875 29.296875 
L 19.671875 0 
L 9.8125 0 
z
" id="DejaVuSans-50"/>
      <path d="M 41.109375 46.296875 
Q 39.59375 47.171875 37.8125 47.578125 
Q 36.03125 48 33.890625 48 
Q 26.265625 48 22.1875 43.046875 
Q 18.109375 38.09375 18.109375 28.8125 
L 18.109375 0 
L 9.078125 0 
L 9.078125 54.6875 
L 18.109375 54.6875 
L 18.109375 46.1875 
Q 20.953125 51.171875 25.484375 53.578125 
Q 30.03125 56 36.53125 56 
Q 37.453125 56 38.578125 55.875 
Q 39.703125 55.765625 41.0625 55.515625 
z
" id="DejaVuSans-72"/>
      <path d="M 18.109375 8.203125 
L 18.109375 -20.796875 
L 9.078125 -20.796875 
L 9.078125 54.6875 
L 18.109375 54.6875 
L 18.109375 46.390625 
Q 20.953125 51.265625 25.265625 53.625 
Q 29.59375 56 35.59375 56 
Q 45.5625 56 51.78125 48.09375 
Q 58.015625 40.1875 58.015625 27.296875 
Q 58.015625 14.40625 51.78125 6.484375 
Q 45.5625 -1.421875 35.59375 -1.421875 
Q 29.59375 -1.421875 25.265625 0.953125 
Q 20.953125 3.328125 18.109375 8.203125 
z
M 48.6875 27.296875 
Q 48.6875 37.203125 44.609375 42.84375 
Q 40.53125 48.484375 33.40625 48.484375 
Q 26.265625 48.484375 22.1875 42.84375 
Q 18.109375 37.203125 18.109375 27.296875 
Q 18.109375 17.390625 22.1875 11.75 
Q 26.265625 6.109375 33.40625 6.109375 
Q 40.53125 6.109375 44.609375 11.75 
Q 48.6875 17.390625 48.6875 27.296875 
z
" id="DejaVuSans-70"/>
      <path d="M 18.3125 70.21875 
L 18.3125 54.6875 
L 36.8125 54.6875 
L 36.8125 47.703125 
L 18.3125 47.703125 
L 18.3125 18.015625 
Q 18.3125 11.328125 20.140625 9.421875 
Q 21.96875 7.515625 27.59375 7.515625 
L 36.8125 7.515625 
L 36.8125 0 
L 27.59375 0 
Q 17.1875 0 13.234375 3.875 
Q 9.28125 7.765625 9.28125 18.015625 
L 9.28125 47.703125 
L 2.6875 47.703125 
L 2.6875 54.6875 
L 9.28125 54.6875 
L 9.28125 70.21875 
z
" id="DejaVuSans-74"/>
      <path d="M 8.5 21.578125 
L 8.5 54.6875 
L 17.484375 54.6875 
L 17.484375 21.921875 
Q 17.484375 14.15625 20.5 10.265625 
Q 23.53125 6.390625 29.59375 6.390625 
Q 36.859375 6.390625 41.078125 11.03125 
Q 45.3125 15.671875 45.3125 23.6875 
L 45.3125 54.6875 
L 54.296875 54.6875 
L 54.296875 0 
L 45.3125 0 
L 45.3125 8.40625 
Q 42.046875 3.421875 37.71875 1 
Q 33.40625 -1.421875 27.6875 -1.421875 
Q 18.265625 -1.421875 13.375 4.4375 
Q 8.5 10.296875 8.5 21.578125 
z
M 31.109375 56 
z
" id="DejaVuSans-75"/>
      <path d="M 48.78125 52.59375 
L 48.78125 44.1875 
Q 44.96875 46.296875 41.140625 47.34375 
Q 37.3125 48.390625 33.40625 48.390625 
Q 24.65625 48.390625 19.8125 42.84375 
Q 14.984375 37.3125 14.984375 27.296875 
Q 14.984375 17.28125 19.8125 11.734375 
Q 24.65625 6.203125 33.40625 6.203125 
Q 37.3125 6.203125 41.140625 7.25 
Q 44.96875 8.296875 48.78125 10.40625 
L 48.78125 2.09375 
Q 45.015625 0.34375 40.984375 -0.53125 
Q 36.96875 -1.421875 32.421875 -1.421875 
Q 20.0625 -1.421875 12.78125 6.34375 
Q 5.515625 14.109375 5.515625 27.296875 
Q 5.515625 40.671875 12.859375 48.328125 
Q 20.21875 56 33.015625 56 
Q 37.15625 56 41.109375 55.140625 
Q 45.0625 54.296875 48.78125 52.59375 
z
" id="DejaVuSans-63"/>
     </defs>
     <g transform="translate(29.847187 323.17875)rotate(-90)scale(0.18 -0.18)">
      <use xlink:href="#DejaVuSans-50"/>
      <use x="60.287109" xlink:href="#DejaVuSans-72"/>
      <use x="101.369141" xlink:href="#DejaVuSans-6f"/>
      <use x="162.550781" xlink:href="#DejaVuSans-70"/>
      <use x="226.027344" xlink:href="#DejaVuSans-6f"/>
      <use x="287.208984" xlink:href="#DejaVuSans-72"/>
      <use x="328.322266" xlink:href="#DejaVuSans-74"/>
      <use x="367.53125" xlink:href="#DejaVuSans-69"/>
      <use x="395.314453" xlink:href="#DejaVuSans-6f"/>
      <use x="456.496094" xlink:href="#DejaVuSans-6e"/>
      <use x="519.875" xlink:href="#DejaVuSans-20"/>
      <use x="551.662109" xlink:href="#DejaVuSans-6f"/>
      <use x="612.84375" xlink:href="#DejaVuSans-66"/>
      <use x="648.048828" xlink:href="#DejaVuSans-20"/>
      <use x="679.835938" xlink:href="#DejaVuSans-66"/>
      <use x="715.041016" xlink:href="#DejaVuSans-75"/>
      <use x="778.419922" xlink:href="#DejaVuSans-6e"/>
      <use x="841.798828" xlink:href="#DejaVuSans-63"/>
      <use x="896.779297" xlink:href="#DejaVuSans-74"/>
      <use x="935.988281" xlink:href="#DejaVuSans-69"/>
      <use x="963.771484" xlink:href="#DejaVuSans-6f"/>
      <use x="1024.953125" xlink:href="#DejaVuSans-6e"/>
      <use x="1088.332031" xlink:href="#DejaVuSans-2b"/>
      <use x="1172.121094" xlink:href="#DejaVuSans-74"/>
      <use x="1211.330078" xlink:href="#DejaVuSans-61"/>
      <use x="1272.609375" xlink:href="#DejaVuSans-72"/>
      <use x="1313.707031" xlink:href="#DejaVuSans-67"/>
      <use x="1377.183594" xlink:href="#DejaVuSans-65"/>
      <use x="1438.707031" xlink:href="#DejaVuSans-74"/>
      <use x="1477.916016" xlink:href="#DejaVuSans-20"/>
      <use x="1509.703125" xlink:href="#DejaVuSans-70"/>
      <use x="1573.179688" xlink:href="#DejaVuSans-61"/>
      <use x="1634.458984" xlink:href="#DejaVuSans-69"/>
      <use x="1662.242188" xlink:href="#DejaVuSans-72"/>
      <use x="1703.355469" xlink:href="#DejaVuSans-73"/>
     </g>
    </g>
   </g>
   <g id="line2d_23">
    <defs>
     <path d="M 0 1.5 
C 0.397805 1.5 0.77937 1.341951 1.06066 1.06066 
C 1.341951 0.77937 1.5 0.397805 1.5 0 
C 1.5 -0.397805 1.341951 -0.77937 1.06066 -1.06066 
C 0.77937 -1.341951 0.397805 -1.5 0 -1.5 
C -0.397805 -1.5 -0.77937 -1.341951 -1.06066 -1.06066 
C -1.341951 -0.77937 -1.5 -0.397805 -1.5 0 
C -1.5 0.397805 -1.341951 0.77937 -1.06066 1.06066 
C -0.77937 1.341951 -0.397805 1.5 0 1.5 
z
" id="m27c095885e" style="stroke:#000080;"/>
    </defs>
    <g>
     <use style="fill:#000080;stroke:#000080;" x="219.534025" xlink:href="#m27c095885e" y="34.768147"/>
     <use style="fill:#000080;stroke:#000080;" x="219.534025" xlink:href="#m27c095885e" y="34.768147"/>
    </g>
   </g>
   <g id="line2d_24">
    <path d="M 47.639252 298.245375 
L 47.639252 294.112399 
L 72.40972 294.112399 
L 72.40972 293.079155 
L 79.654618 293.079155 
L 79.654618 291.012667 
L 94.794234 291.012667 
L 94.794234 288.946179 
L 99.284749 288.946179 
L 99.284749 287.912935 
L 102.870357 287.912935 
L 102.870357 287.396313 
L 104.425086 287.396313 
L 104.425086 286.363069 
L 105.855298 286.363069 
L 105.855298 282.230093 
L 107.179468 282.230093 
L 107.179468 279.646982 
L 108.412241 279.646982 
L 108.412241 275.514006 
L 109.565423 275.514006 
L 109.565423 272.930896 
L 110.64867 272.930896 
L 110.64867 272.414274 
L 111.669983 272.414274 
L 111.669983 271.897652 
L 112.636063 271.897652 
L 112.636063 271.38103 
L 113.552577 271.38103 
L 113.552577 270.864408 
L 114.424366 270.864408 
L 114.424366 268.79792 
L 115.255591 268.79792 
L 115.255591 268.281298 
L 117.539732 268.281298 
L 117.539732 264.664944 
L 118.240532 264.664944 
L 118.240532 264.148322 
L 120.191718 264.148322 
L 120.191718 261.04859 
L 120.797475 261.04859 
L 120.797475 255.365748 
L 121.383367 255.365748 
L 121.383367 253.815882 
L 122.500488 253.815882 
L 122.500488 251.232772 
L 124.055218 251.232772 
L 124.055218 247.099796 
L 125.48543 247.099796 
L 125.48543 243.483441 
L 127.230045 243.483441 
L 127.230045 229.534647 
L 128.435094 229.534647 
L 128.435094 229.018025 
L 128.819369 229.018025 
L 128.819369 224.368427 
L 129.195554 224.368427 
L 129.195554 216.619097 
L 129.563982 216.619097 
L 129.563982 214.552609 
L 130.966122 214.552609 
L 130.966122 212.48612 
L 131.300115 212.48612 
L 131.300115 209.90301 
L 132.576952 209.90301 
L 132.576952 208.353144 
L 132.882397 208.353144 
L 132.882397 199.053948 
L 133.182709 199.053948 
L 133.182709 176.322579 
L 133.478056 176.322579 
L 133.478056 171.672981 
L 134.054497 171.672981 
L 134.054497 162.890407 
L 135.154421 162.890407 
L 135.154421 160.823919 
L 138.098286 160.823919 
L 138.098286 147.391747 
L 146.510496 147.391747 
L 146.510496 145.325259 
L 147.203146 145.325259 
L 147.203146 140.67566 
L 148.258396 140.67566 
L 148.258396 137.575928 
L 149.133234 137.575928 
L 149.133234 132.409708 
L 149.254786 132.409708 
L 149.254786 131.376464 
L 150.98531 131.376464 
L 150.98531 128.276732 
L 151.312175 128.276732 
L 151.312175 125.177 
L 151.633168 125.177 
L 151.633168 122.59389 
L 151.948496 122.59389 
L 151.948496 121.044024 
L 152.155665 121.044024 
L 152.155665 120.527402 
L 152.862405 120.527402 
L 152.862405 112.26145 
L 153.254051 112.26145 
L 153.254051 108.645095 
L 154.012493 108.645095 
L 154.012493 108.128473 
L 154.740049 108.128473 
L 154.740049 97.279411 
L 155.093011 97.279411 
L 155.093011 91.079947 
L 155.353231 91.079947 
L 155.439135 86.946971 
L 155.694399 86.946971 
L 155.778682 82.813995 
L 156.111897 82.813995 
L 156.111897 81.264129 
L 156.276203 81.264129 
L 156.357792 80.230885 
L 157.231519 80.230885 
L 157.30887 76.614531 
L 157.462575 76.614531 
L 157.462575 68.8652 
L 158.575058 68.8652 
L 158.575058 67.831956 
L 159.210749 67.831956 
L 159.210749 67.315334 
L 159.69 67.315334 
L 159.69 66.28209 
L 160.385603 66.28209 
L 160.385603 56.982894 
L 165.370953 56.982894 
L 165.370953 56.466272 
L 167.191997 56.466272 
L 167.191997 55.433028 
L 167.994949 55.433028 
L 167.994949 54.399784 
L 168.803975 54.399784 
L 168.803975 53.883162 
L 172.226588 53.883162 
L 172.226588 53.36654 
L 173.518433 53.36654 
L 173.518433 52.849918 
L 175.742028 52.849918 
L 175.742028 51.816674 
L 176.310607 51.816674 
L 176.310607 51.300052 
L 177.743894 51.300052 
L 177.743894 49.233564 
L 181.738426 49.233564 
L 181.738426 48.716942 
L 182.881156 48.716942 
L 182.881156 48.20032 
L 184.333352 48.20032 
L 184.333352 47.683698 
L 184.786797 47.683698 
L 184.786797 47.167076 
L 185.341904 47.167076 
L 185.341904 46.650454 
L 185.973631 46.650454 
L 185.973631 45.61721 
L 187.275065 45.61721 
L 187.275065 45.100588 
L 187.801054 45.100588 
L 187.801054 44.067344 
L 188.675844 44.067344 
L 188.675844 42.517478 
L 189.356367 42.517478 
L 189.356367 42.000855 
L 190.042839 42.000855 
L 190.042839 41.484233 
L 193.28822 41.484233 
L 193.28822 40.967611 
L 200.094998 40.967611 
L 200.094998 40.450989 
L 200.214283 40.450989 
L 200.26317 37.351257 
L 200.346666 37.351257 
L 200.346666 36.834635 
L 201.17079 36.834635 
L 201.17079 35.801391 
L 201.296297 35.801391 
L 201.296297 35.284769 
L 219.534025 35.284769 
L 219.534025 34.768147 
L 364.396875 34.768147 
L 364.396875 34.768147 
" style="fill:none;stroke:#000080;stroke-linecap:square;stroke-width:1.5;"/>
   </g>
   <g id="line2d_25">
    <defs>
     <path d="M 0 6 
C 1.591219 6 3.117479 5.367802 4.242641 4.242641 
C 5.367802 3.117479 6 1.591219 6 0 
C 6 -1.591219 5.367802 -3.117479 4.242641 -4.242641 
C 3.117479 -5.367802 1.591219 -6 0 -6 
C -1.591219 -6 -3.117479 -5.367802 -4.242641 -4.242641 
C -5.367802 -3.117479 -6 -1.591219 -6 0 
C -6 1.591219 -5.367802 3.117479 -4.242641 4.242641 
C -3.117479 5.367802 -1.591219 6 0 6 
z
" id="m2f1de386b9" style="stroke:#000080;stroke-width:1.5;"/>
    </defs>
    <g>
     <use style="fill:none;stroke:#000080;stroke-width:1.5;" x="132.576952" xlink:href="#m2f1de386b9" y="208.353144"/>
     <use style="fill:none;stroke:#000080;stroke-width:1.5;" x="154.740049" xlink:href="#m2f1de386b9" y="108.128473"/>
     <use style="fill:none;stroke:#000080;stroke-width:1.5;" x="201.296297" xlink:href="#m2f1de386b9" y="35.801391"/>
     <use style="fill:none;stroke:#000080;stroke-width:1.5;" x="219.534025" xlink:href="#m2f1de386b9" y="34.768147"/>
     <use style="fill:none;stroke:#000080;stroke-width:1.5;" x="219.534025" xlink:href="#m2f1de386b9" y="34.768147"/>
     <use style="fill:none;stroke:#000080;stroke-width:1.5;" x="364.396875" xlink:href="#m2f1de386b9" y="34.768147"/>
    </g>
   </g>
   <g id="line2d_26"/>
   <g id="line2d_27">
    <path clip-path="url(#pedf02ef635)" d="M 199.789674 40.967611 
" style="fill:none;stroke:#000080;stroke-linecap:square;stroke-width:1.5;"/>
    <defs>
     <path d="M -12 12 
L 12 -12 
M -12 -12 
L 12 12 
" id="m62d90cc89d" style="stroke:#000080;stroke-width:3;"/>
    </defs>
    <g clip-path="url(#pedf02ef635)">
     <use style="fill:#000080;stroke:#000080;stroke-width:3;" x="199.789674" xlink:href="#m62d90cc89d" y="40.967611"/>
    </g>
   </g>
   <g id="line2d_28">
    <defs>
     <path d="M 0 1.5 
C 0.397805 1.5 0.77937 1.341951 1.06066 1.06066 
C 1.341951 0.77937 1.5 0.397805 1.5 0 
C 1.5 -0.397805 1.341951 -0.77937 1.06066 -1.06066 
C 0.77937 -1.341951 0.397805 -1.5 0 -1.5 
C -0.397805 -1.5 -0.77937 -1.341951 -1.06066 -1.06066 
C -1.341951 -0.77937 -1.5 -0.397805 -1.5 0 
C -1.5 0.397805 -1.341951 0.77937 -1.06066 1.06066 
C -0.77937 1.341951 -0.397805 1.5 0 1.5 
z
" id="mabd60b7e49" style="stroke:#ff00ff;"/>
    </defs>
    <g>
     <use style="fill:#ff00ff;stroke:#ff00ff;" x="219.560098" xlink:href="#mabd60b7e49" y="34.768147"/>
     <use style="fill:#ff00ff;stroke:#ff00ff;" x="219.560098" xlink:href="#mabd60b7e49" y="34.768147"/>
    </g>
   </g>
   <g id="line2d_29">
    <path d="M 47.639252 298.245375 
L 47.639252 291.529289 
L 84.794954 291.529289 
L 84.794954 291.012667 
L 92.039852 291.012667 
L 92.039852 290.496045 
L 99.284749 290.496045 
L 99.284749 289.979423 
L 102.870357 289.979423 
L 102.870357 288.946179 
L 104.425086 288.946179 
L 104.425086 287.396313 
L 105.855298 287.396313 
L 105.855298 276.54725 
L 107.179468 276.54725 
L 107.179468 275.514006 
L 108.412241 275.514006 
L 108.412241 272.930896 
L 109.565423 272.930896 
L 109.565423 269.314542 
L 110.64867 269.314542 
L 110.64867 268.79792 
L 113.552577 268.79792 
L 113.552577 268.281298 
L 114.424366 268.281298 
L 114.424366 265.698188 
L 115.255591 265.698188 
L 115.255591 264.664944 
L 117.539732 264.664944 
L 117.539732 261.04859 
L 120.191718 261.04859 
L 120.191718 260.531968 
L 120.797475 260.531968 
L 120.797475 256.398992 
L 121.383367 256.398992 
L 121.383367 253.815882 
L 122.500488 253.815882 
L 122.500488 251.232772 
L 123.551857 251.232772 
L 123.551857 249.682906 
L 124.055218 249.682906 
L 124.055218 247.616418 
L 125.48543 247.616418 
L 125.48543 244.516685 
L 127.230045 244.516685 
L 127.230045 231.601135 
L 128.819369 231.601135 
L 128.819369 227.984781 
L 129.195554 227.984781 
L 129.195554 222.818561 
L 129.563982 222.818561 
L 129.563982 222.301939 
L 130.966122 222.301939 
L 130.966122 219.718829 
L 131.300115 219.718829 
L 131.300115 215.585853 
L 132.576952 215.585853 
L 132.576952 214.035987 
L 132.882397 214.035987 
L 132.882397 205.253412 
L 133.182709 205.253412 
L 133.182709 185.105154 
L 133.478056 185.105154 
L 133.478056 179.938934 
L 134.054497 179.938934 
L 134.054497 172.706225 
L 135.154421 172.706225 
L 135.154421 168.573249 
L 137.870664 168.573249 
L 137.870664 157.207565 
L 139.194834 157.207565 
L 139.194834 156.690943 
L 143.266873 156.690943 
L 143.266873 155.141077 
L 144.094248 155.141077 
L 144.094248 154.107833 
L 144.885002 154.107833 
L 144.885002 153.591211 
L 145.039038 153.591211 
L 145.039038 153.074589 
L 145.191758 153.074589 
L 145.191758 151.008101 
L 145.343184 151.008101 
L 145.343184 150.491479 
L 146.081641 150.491479 
L 146.081641 149.974857 
L 146.225739 149.974857 
L 146.225739 149.458235 
L 146.790786 149.458235 
L 146.790786 144.808637 
L 147.73856 144.808637 
L 147.73856 144.292014 
L 147.869944 144.292014 
L 147.869944 140.67566 
L 148.000369 140.67566 
L 148.000369 137.575928 
L 148.258396 137.575928 
L 148.258396 125.177 
L 148.386026 125.177 
L 148.386026 124.660378 
L 149.375517 124.660378 
L 149.375517 118.460914 
L 149.495438 118.460914 
L 149.495438 117.42767 
L 150.875013 117.42767 
L 150.875013 115.361182 
L 151.203883 115.361182 
L 151.312175 112.26145 
L 151.52681 112.26145 
L 151.52681 108.128473 
L 151.948496 108.128473 
L 151.948496 97.796033 
L 152.512529 97.796033 
L 152.512529 97.279411 
L 152.763138 97.279411 
L 152.763138 96.246167 
L 153.350636 96.246167 
L 153.350636 93.663057 
L 153.91943 93.663057 
L 154.012493 70.415066 
L 154.197178 70.415066 
L 154.197178 68.348578 
L 154.470675 68.348578 
L 154.470675 67.831956 
L 155.093011 67.831956 
L 155.093011 66.28209 
L 155.353231 66.28209 
L 155.353231 65.765468 
L 156.680476 65.765468 
L 156.680476 63.69898 
L 157.075804 63.69898 
L 157.075804 63.182358 
L 158.285102 63.182358 
L 158.285102 62.149114 
L 160.61158 62.149114 
L 160.61158 61.632492 
L 162.555021 61.632492 
L 162.555021 61.11587 
L 165.370953 61.11587 
L 165.370953 60.599248 
L 167.191997 60.599248 
L 167.191997 60.082626 
L 167.994949 60.082626 
L 167.994949 59.049382 
L 168.393667 59.049382 
L 168.393667 58.53276 
L 170.094794 58.53276 
L 170.094794 58.016138 
L 171.751434 58.016138 
L 171.751434 56.982894 
L 172.209834 56.982894 
L 172.209834 55.94965 
L 174.22103 55.94965 
L 174.22103 55.433028 
L 175.43682 55.433028 
L 175.43682 54.916406 
L 176.310607 54.916406 
L 176.310607 54.399784 
L 177.866447 54.399784 
L 177.866447 53.883162 
L 178.608068 53.883162 
L 178.608068 53.36654 
L 179.275038 53.36654 
L 179.275038 52.849918 
L 181.639816 52.849918 
L 181.639816 51.300052 
L 183.727889 51.300052 
L 183.727889 50.78343 
L 185.009276 50.78343 
L 185.009276 49.750186 
L 186.688451 49.750186 
L 186.688451 49.233564 
L 187.210024 49.233564 
L 187.210024 48.716942 
L 188.106618 48.716942 
L 188.106618 48.20032 
L 188.582223 48.20032 
L 188.582223 47.683698 
L 189.032425 47.683698 
L 189.032425 46.650454 
L 189.67454 46.650454 
L 189.67454 45.61721 
L 190.042839 45.61721 
L 190.042839 44.067344 
L 190.822596 44.067344 
L 190.822596 43.550722 
L 191.104267 43.550722 
L 191.104267 42.517478 
L 191.347138 42.517478 
L 191.347138 42.000855 
L 191.834378 42.000855 
L 191.834378 41.484233 
L 193.28822 41.484233 
L 193.28822 40.967611 
L 195.58637 40.967611 
L 195.58637 40.450989 
L 200.094998 40.450989 
L 200.130165 38.901123 
L 200.207289 38.901123 
L 200.235251 36.318013 
L 201.322607 36.318013 
L 201.322607 35.801391 
L 212.399086 35.801391 
L 212.399086 35.284769 
L 219.560098 35.284769 
L 219.560098 34.768147 
L 364.396875 34.768147 
L 364.396875 34.768147 
" style="fill:none;stroke:#ff00ff;stroke-linecap:square;stroke-width:1.5;"/>
   </g>
   <g id="line2d_30">
    <defs>
     <path d="M -0 8.485281 
L 5.091169 0 
L 0 -8.485281 
L -5.091169 -0 
z
" id="m70d48fc1fd" style="stroke:#ff00ff;stroke-linejoin:miter;stroke-width:1.5;"/>
    </defs>
    <g>
     <use style="fill:none;stroke:#ff00ff;stroke-linejoin:miter;stroke-width:1.5;" x="105.855298" xlink:href="#m70d48fc1fd" y="287.396313"/>
     <use style="fill:none;stroke:#ff00ff;stroke-linejoin:miter;stroke-width:1.5;" x="145.191758" xlink:href="#m70d48fc1fd" y="153.074589"/>
     <use style="fill:none;stroke:#ff00ff;stroke-linejoin:miter;stroke-width:1.5;" x="160.61158" xlink:href="#m70d48fc1fd" y="62.149114"/>
     <use style="fill:none;stroke:#ff00ff;stroke-linejoin:miter;stroke-width:1.5;" x="219.560098" xlink:href="#m70d48fc1fd" y="35.284769"/>
     <use style="fill:none;stroke:#ff00ff;stroke-linejoin:miter;stroke-width:1.5;" x="219.560098" xlink:href="#m70d48fc1fd" y="34.768147"/>
     <use style="fill:none;stroke:#ff00ff;stroke-linejoin:miter;stroke-width:1.5;" x="364.396875" xlink:href="#m70d48fc1fd" y="34.768147"/>
    </g>
   </g>
   <g id="line2d_31"/>
   <g id="line2d_32">
    <path clip-path="url(#pedf02ef635)" d="M 199.789674 40.450989 
" style="fill:none;stroke:#ff00ff;stroke-linecap:square;stroke-width:1.5;"/>
    <defs>
     <path d="M -12 12 
L 12 -12 
M -12 -12 
L 12 12 
" id="m178c221aaf" style="stroke:#ff00ff;stroke-width:3;"/>
    </defs>
    <g clip-path="url(#pedf02ef635)">
     <use style="fill:#ff00ff;stroke:#ff00ff;stroke-width:3;" x="199.789674" xlink:href="#m178c221aaf" y="40.450989"/>
    </g>
   </g>
   <g id="line2d_33">
    <defs>
     <path d="M 0 1.5 
C 0.397805 1.5 0.77937 1.341951 1.06066 1.06066 
C 1.341951 0.77937 1.5 0.397805 1.5 0 
C 1.5 -0.397805 1.341951 -0.77937 1.06066 -1.06066 
C 0.77937 -1.341951 0.397805 -1.5 0 -1.5 
C -0.397805 -1.5 -0.77937 -1.341951 -1.06066 -1.06066 
C -1.341951 -0.77937 -1.5 -0.397805 -1.5 0 
C -1.5 0.397805 -1.341951 0.77937 -1.06066 1.06066 
C -0.77937 1.341951 -0.397805 1.5 0 1.5 
z
" id="m5536df00c5" style="stroke:#ffa500;"/>
    </defs>
    <g>
     <use style="fill:#ffa500;stroke:#ffa500;" x="201.54145" xlink:href="#m5536df00c5" y="34.768147"/>
     <use style="fill:#ffa500;stroke:#ffa500;" x="201.54145" xlink:href="#m5536df00c5" y="34.768147"/>
    </g>
   </g>
   <g id="line2d_34">
    <path d="M 47.639252 298.245375 
L 47.639252 293.595777 
L 79.654618 293.595777 
L 79.654618 292.562533 
L 92.039852 292.562533 
L 92.039852 292.045911 
L 94.794234 292.045911 
L 94.794234 291.529289 
L 99.284749 291.529289 
L 99.284749 291.012667 
L 102.870357 291.012667 
L 102.870357 290.496045 
L 104.425086 290.496045 
L 104.425086 288.429557 
L 105.855298 288.429557 
L 105.855298 281.713471 
L 107.179468 281.713471 
L 107.179468 278.097116 
L 108.412241 278.097116 
L 108.412241 276.030628 
L 109.565423 276.030628 
L 109.565423 272.930896 
L 110.64867 272.930896 
L 110.64867 272.414274 
L 111.669983 272.414274 
L 111.669983 271.897652 
L 113.552577 271.897652 
L 113.552577 271.38103 
L 114.424366 271.38103 
L 114.424366 267.764676 
L 115.255591 267.764676 
L 115.255591 265.181566 
L 117.539732 265.181566 
L 117.539732 259.498724 
L 118.240532 259.498724 
L 118.240532 258.982102 
L 120.797475 258.982102 
L 120.797475 254.849126 
L 121.383367 254.849126 
L 121.383367 253.29926 
L 121.950657 253.29926 
L 121.950657 251.749394 
L 122.500488 251.749394 
L 122.500488 249.166284 
L 123.551857 249.166284 
L 123.551857 248.649662 
L 124.055218 248.649662 
L 124.055218 244.000063 
L 125.48543 244.000063 
L 125.48543 241.416953 
L 127.230045 241.416953 
L 127.230045 226.434915 
L 128.435094 226.434915 
L 128.435094 225.918293 
L 128.819369 225.918293 
L 128.819369 222.818561 
L 129.195554 222.818561 
L 129.195554 216.102475 
L 129.563982 216.102475 
L 129.563982 214.552609 
L 130.966122 214.552609 
L 130.966122 213.002743 
L 131.300115 213.002743 
L 131.300115 211.452876 
L 132.576952 211.452876 
L 132.576952 208.353144 
L 132.882397 208.353144 
L 132.882397 202.670302 
L 133.182709 202.670302 
L 133.182709 182.522044 
L 133.478056 182.522044 
L 133.478056 178.90569 
L 134.054497 178.90569 
L 134.054497 167.023383 
L 135.154421 167.023383 
L 135.154421 161.340541 
L 141.857819 161.340541 
L 141.857819 159.790675 
L 142.040148 159.790675 
L 142.040148 155.657699 
L 142.576232 155.657699 
L 142.576232 147.908369 
L 142.751411 147.908369 
L 142.751411 137.059306 
L 142.924889 137.059306 
L 142.924889 136.542684 
L 143.096699 136.542684 
L 143.096699 133.442952 
L 143.435441 133.442952 
L 143.435441 132.92633 
L 144.094248 132.92633 
L 144.094248 128.793354 
L 144.572887 128.793354 
L 144.572887 125.693622 
L 144.729626 125.693622 
L 144.729626 122.59389 
L 145.343184 122.59389 
L 145.343184 120.527402 
L 145.642239 120.527402 
L 145.642239 120.01078 
L 146.081641 120.01078 
L 146.081641 119.494158 
L 146.225739 119.494158 
L 146.225739 118.460914 
L 146.368685 118.460914 
L 146.368685 115.877804 
L 147.338511 115.877804 
L 147.338511 114.327938 
L 147.606203 114.327938 
L 147.606203 113.294694 
L 147.73856 113.294694 
L 147.73856 106.061985 
L 147.869944 106.061985 
L 147.869944 105.545363 
L 148.000369 105.545363 
L 148.000369 105.028741 
L 148.512751 105.028741 
L 148.512751 103.478875 
L 149.133234 103.478875 
L 149.133234 102.962253 
L 149.732892 102.962253 
L 149.732892 101.929009 
L 150.198537 101.929009 
L 150.198537 93.146435 
L 150.313076 93.146435 
L 150.313076 88.496837 
L 150.539976 88.496837 
L 150.539976 79.714263 
L 150.875013 79.714263 
L 150.875013 77.647775 
L 151.738897 77.647775 
L 151.738897 72.998176 
L 152.512529 72.998176 
L 152.512529 72.481554 
L 153.059301 72.481554 
L 153.059301 67.315334 
L 154.60587 67.315334 
L 154.60587 61.11587 
L 155.04927 61.11587 
L 155.04927 58.016138 
L 155.820675 58.016138 
L 155.904367 55.94965 
L 157.036663 55.94965 
L 157.036663 49.750186 
L 159.17602 49.750186 
L 159.17602 47.683698 
L 161.880672 47.683698 
L 161.880672 46.650454 
L 172.209834 46.650454 
L 172.209834 45.61721 
L 176.350536 45.61721 
L 176.350536 45.100588 
L 181.7089 45.100588 
L 181.7089 44.067344 
L 185.009276 44.067344 
L 185.009276 42.517478 
L 187.210024 42.517478 
L 187.210024 42.000855 
L 190.042839 42.000855 
L 190.042839 40.967611 
L 195.58637 40.967611 
L 195.58637 40.450989 
L 200.207289 40.450989 
L 200.214283 38.384501 
L 200.509058 38.384501 
L 200.509058 37.351257 
L 200.734634 37.351257 
L 200.734634 36.834635 
L 200.869973 36.834635 
L 200.964104 35.801391 
L 201.35216 35.801391 
L 201.35216 35.284769 
L 201.54145 35.284769 
L 201.54145 34.768147 
L 364.396875 34.768147 
L 364.396875 34.768147 
" style="fill:none;stroke:#ffa500;stroke-linecap:square;stroke-width:1.5;"/>
   </g>
   <g id="line2d_35">
    <defs>
     <path d="M 0 -6 
L -1.347084 -1.854102 
L -5.706339 -1.854102 
L -2.179628 0.708204 
L -3.526712 4.854102 
L -0 2.291796 
L 3.526712 4.854102 
L 2.179628 0.708204 
L 5.706339 -1.854102 
L 1.347084 -1.854102 
z
" id="m5b4cf35c8a" style="stroke:#ffa500;stroke-linejoin:bevel;stroke-width:1.5;"/>
    </defs>
    <g>
     <use style="fill:none;stroke:#ffa500;stroke-linejoin:bevel;stroke-width:1.5;" x="123.551857" xlink:href="#m5b4cf35c8a" y="249.166284"/>
     <use style="fill:none;stroke:#ffa500;stroke-linejoin:bevel;stroke-width:1.5;" x="143.435441" xlink:href="#m5b4cf35c8a" y="133.442952"/>
     <use style="fill:none;stroke:#ffa500;stroke-linejoin:bevel;stroke-width:1.5;" x="195.58637" xlink:href="#m5b4cf35c8a" y="40.967611"/>
     <use style="fill:none;stroke:#ffa500;stroke-linejoin:bevel;stroke-width:1.5;" x="201.54145" xlink:href="#m5b4cf35c8a" y="34.768147"/>
     <use style="fill:none;stroke:#ffa500;stroke-linejoin:bevel;stroke-width:1.5;" x="201.54145" xlink:href="#m5b4cf35c8a" y="34.768147"/>
     <use style="fill:none;stroke:#ffa500;stroke-linejoin:bevel;stroke-width:1.5;" x="364.396875" xlink:href="#m5b4cf35c8a" y="34.768147"/>
    </g>
   </g>
   <g id="line2d_36"/>
   <g id="line2d_37">
    <path clip-path="url(#pedf02ef635)" d="M 199.789674 40.450989 
" style="fill:none;stroke:#ffa500;stroke-linecap:square;stroke-width:1.5;"/>
    <defs>
     <path d="M -12 12 
L 12 -12 
M -12 -12 
L 12 12 
" id="made802a068" style="stroke:#ffa500;stroke-width:3;"/>
    </defs>
    <g clip-path="url(#pedf02ef635)">
     <use style="fill:#ffa500;stroke:#ffa500;stroke-width:3;" x="199.789674" xlink:href="#made802a068" y="40.450989"/>
    </g>
   </g>
   <g id="line2d_38">
    <defs>
     <path d="M 0 1.5 
C 0.397805 1.5 0.77937 1.341951 1.06066 1.06066 
C 1.341951 0.77937 1.5 0.397805 1.5 0 
C 1.5 -0.397805 1.341951 -0.77937 1.06066 -1.06066 
C 0.77937 -1.341951 0.397805 -1.5 0 -1.5 
C -0.397805 -1.5 -0.77937 -1.341951 -1.06066 -1.06066 
C -1.341951 -0.77937 -1.5 -0.397805 -1.5 0 
C -1.5 0.397805 -1.341951 0.77937 -1.06066 1.06066 
C -0.77937 1.341951 -0.397805 1.5 0 1.5 
z
" id="m4b495835da" style="stroke:#6495ed;"/>
    </defs>
    <g>
     <use style="fill:#6495ed;stroke:#6495ed;" x="207.653931" xlink:href="#m4b495835da" y="34.768147"/>
     <use style="fill:#6495ed;stroke:#6495ed;" x="207.653931" xlink:href="#m4b495835da" y="34.768147"/>
    </g>
   </g>
   <g id="line2d_39">
    <path d="M 47.639252 298.245375 
L 47.639252 295.662265 
L 72.40972 295.662265 
L 72.40972 294.629021 
L 79.654618 294.629021 
L 79.654618 293.079155 
L 92.039852 293.079155 
L 92.039852 292.562533 
L 94.794234 292.562533 
L 94.794234 291.529289 
L 99.284749 291.529289 
L 99.284749 291.012667 
L 104.425086 291.012667 
L 104.425086 289.462801 
L 105.855298 289.462801 
L 105.855298 283.779959 
L 107.179468 283.779959 
L 107.179468 280.163604 
L 108.412241 280.163604 
L 108.412241 277.580494 
L 109.565423 277.580494 
L 109.565423 274.997384 
L 110.64867 274.997384 
L 110.64867 272.414274 
L 112.636063 272.414274 
L 112.636063 271.897652 
L 113.552577 271.897652 
L 113.552577 270.864408 
L 114.424366 270.864408 
L 114.424366 268.79792 
L 115.255591 268.79792 
L 115.255591 266.21481 
L 117.539732 266.21481 
L 117.539732 261.565212 
L 120.797475 261.565212 
L 120.797475 254.332504 
L 121.383367 254.332504 
L 121.383367 251.749394 
L 121.950657 251.749394 
L 121.950657 251.232772 
L 122.500488 251.232772 
L 122.500488 248.649662 
L 123.551857 248.649662 
L 123.551857 247.099796 
L 124.055218 247.099796 
L 124.055218 245.033307 
L 125.48543 245.033307 
L 125.48543 240.383709 
L 127.230045 240.383709 
L 127.230045 221.268695 
L 128.435094 221.268695 
L 128.435094 220.752073 
L 128.819369 220.752073 
L 128.819369 216.619097 
L 129.195554 216.619097 
L 129.195554 208.353144 
L 130.966122 208.353144 
L 130.966122 206.803278 
L 131.300115 206.803278 
L 131.300115 203.703546 
L 132.576952 203.703546 
L 132.576952 201.637058 
L 132.882397 201.637058 
L 132.882397 192.337862 
L 133.182709 192.337862 
L 133.182709 188.721508 
L 134.054497 188.721508 
L 134.054497 182.522044 
L 135.809004 182.522044 
L 135.809004 180.455556 
L 136.315935 180.455556 
L 136.315935 179.422312 
L 138.211019 179.422312 
L 138.211019 170.123115 
L 138.872877 170.123115 
L 138.872877 167.540005 
L 139.088158 167.540005 
L 139.194834 166.506761 
L 140.917175 166.506761 
L 140.917175 165.990139 
L 141.857819 165.990139 
L 141.857819 164.440273 
L 142.040148 164.440273 
L 142.040148 163.923651 
L 142.576232 163.923651 
L 142.576232 151.008101 
L 143.266873 151.008101 
L 143.266873 141.708904 
L 144.572887 141.708904 
L 144.572887 133.442952 
L 144.885002 133.442952 
L 144.885002 129.826598 
L 145.191758 129.826598 
L 145.191758 128.276732 
L 145.78991 128.276732 
L 145.78991 126.210244 
L 145.936371 126.210244 
L 145.936371 122.59389 
L 146.368685 122.59389 
L 146.368685 121.560646 
L 147.066747 121.560646 
L 147.066747 120.01078 
L 147.338511 120.01078 
L 147.338511 118.977536 
L 147.73856 118.977536 
L 147.73856 117.944292 
L 148.386026 117.944292 
L 148.386026 116.911048 
L 149.072146 116.911048 
L 149.072146 109.161717 
L 149.254786 109.161717 
L 149.254786 108.645095 
L 149.435578 108.645095 
L 149.495438 107.611851 
L 150.539976 107.611851 
L 150.539976 105.028741 
L 151.738897 105.028741 
L 151.738897 104.512119 
L 151.948496 104.512119 
L 152.000514 100.379143 
L 152.663316 100.379143 
L 152.663316 97.796033 
L 152.862405 97.796033 
L 152.862405 97.279411 
L 153.254051 97.279411 
L 153.350636 92.629813 
L 153.542253 92.629813 
L 153.542253 90.563325 
L 154.650708 90.563325 
L 154.740049 88.496837 
L 155.005422 88.496837 
L 155.005422 87.463593 
L 155.180173 87.463593 
L 155.180173 79.714263 
L 155.439135 79.714263 
L 155.439135 78.164397 
L 156.760244 78.164397 
L 156.760244 74.03142 
L 157.231519 74.03142 
L 157.231519 73.514798 
L 157.385888 73.514798 
L 157.385888 69.898444 
L 158.503009 69.898444 
L 158.503009 65.248846 
L 159.554378 65.248846 
L 159.554378 64.215602 
L 161.850767 64.215602 
L 161.850767 63.69898 
L 163.7782 63.69898 
L 163.7782 63.182358 
L 164.489331 63.182358 
L 164.489331 61.632492 
L 165.222874 61.632492 
L 165.222874 60.599248 
L 166.559431 60.599248 
L 166.559431 60.082626 
L 169.71339 60.082626 
L 169.71339 59.566004 
L 171.298612 59.566004 
L 171.298612 59.049382 
L 171.421659 59.049382 
L 171.421659 53.36654 
L 172.193064 53.36654 
L 172.193064 52.849918 
L 173.611658 52.849918 
L 173.611658 52.333296 
L 174.664798 52.333296 
L 174.664798 51.300052 
L 176.310607 51.300052 
L 176.350536 50.266808 
L 177.194447 50.266808 
L 177.194447 49.750186 
L 178.701558 49.750186 
L 178.701558 49.233564 
L 180.091378 49.233564 
L 180.091378 48.20032 
L 182.732949 48.20032 
L 182.732949 47.683698 
L 183.692663 47.683698 
L 183.692663 47.167076 
L 184.40126 47.167076 
L 184.40126 46.133832 
L 185.009276 46.133832 
L 185.009276 45.61721 
L 187.210024 45.61721 
L 187.210024 45.100588 
L 188.312001 45.100588 
L 188.312001 44.583966 
L 189.201608 44.583966 
L 189.201608 43.550722 
L 190.042839 43.550722 
L 190.042839 43.0341 
L 193.28822 43.0341 
L 193.28822 42.517478 
L 197.013795 42.517478 
L 197.013795 41.484233 
L 199.551766 41.484233 
L 199.551766 40.967611 
L 200.214283 40.967611 
L 200.235251 39.934367 
L 200.502177 39.934367 
L 200.598261 37.867879 
L 200.639282 37.867879 
L 200.639282 37.351257 
L 201.024357 37.351257 
L 201.084406 35.801391 
L 203.112945 35.801391 
L 203.112945 35.284769 
L 207.653931 35.284769 
L 207.653931 34.768147 
L 364.396875 34.768147 
L 364.396875 34.768147 
" style="fill:none;stroke:#6495ed;stroke-linecap:square;stroke-width:1.5;"/>
   </g>
   <g id="line2d_40">
    <defs>
     <path d="M -0 6 
L 6 -6 
L -6 -6 
z
" id="mc1b18afe96" style="stroke:#6495ed;stroke-linejoin:miter;stroke-width:1.5;"/>
    </defs>
    <g>
     <use style="fill:none;stroke:#6495ed;stroke-linejoin:miter;stroke-width:1.5;" x="117.539732" xlink:href="#mc1b18afe96" y="266.21481"/>
     <use style="fill:none;stroke:#6495ed;stroke-linejoin:miter;stroke-width:1.5;" x="135.809004" xlink:href="#mc1b18afe96" y="182.522044"/>
     <use style="fill:none;stroke:#6495ed;stroke-linejoin:miter;stroke-width:1.5;" x="157.385888" xlink:href="#mc1b18afe96" y="73.514798"/>
     <use style="fill:none;stroke:#6495ed;stroke-linejoin:miter;stroke-width:1.5;" x="207.653931" xlink:href="#mc1b18afe96" y="35.284769"/>
     <use style="fill:none;stroke:#6495ed;stroke-linejoin:miter;stroke-width:1.5;" x="207.653931" xlink:href="#mc1b18afe96" y="34.768147"/>
     <use style="fill:none;stroke:#6495ed;stroke-linejoin:miter;stroke-width:1.5;" x="364.396875" xlink:href="#mc1b18afe96" y="34.768147"/>
    </g>
   </g>
   <g id="line2d_41"/>
   <g id="line2d_42">
    <path clip-path="url(#pedf02ef635)" d="M 199.789674 40.967611 
" style="fill:none;stroke:#6495ed;stroke-linecap:square;stroke-width:1.5;"/>
    <defs>
     <path d="M -12 12 
L 12 -12 
M -12 -12 
L 12 12 
" id="m371f3d8c88" style="stroke:#6495ed;stroke-width:3;"/>
    </defs>
    <g clip-path="url(#pedf02ef635)">
     <use style="fill:#6495ed;stroke:#6495ed;stroke-width:3;" x="199.789674" xlink:href="#m371f3d8c88" y="40.967611"/>
    </g>
   </g>
   <g id="line2d_43">
    <path d="M 364.396875 34.768147 
L 396.076875 292.97583 
" style="fill:none;stroke:#ff00ff;stroke-linecap:square;stroke-width:1.5;"/>
    <g>
     <use style="fill:none;stroke:#ff00ff;stroke-linejoin:miter;stroke-width:1.5;" x="364.396875" xlink:href="#m70d48fc1fd" y="34.768147"/>
     <use style="fill:none;stroke:#ff00ff;stroke-linejoin:miter;stroke-width:1.5;" x="396.076875" xlink:href="#m70d48fc1fd" y="292.97583"/>
    </g>
   </g>
   <g id="line2d_44">
    <path d="M 364.396875 34.768147 
L 396.076875 208.663118 
" style="fill:none;stroke:#000080;stroke-linecap:square;stroke-width:1.5;"/>
    <g>
     <use style="fill:none;stroke:#000080;stroke-width:1.5;" x="364.396875" xlink:href="#m2f1de386b9" y="34.768147"/>
     <use style="fill:none;stroke:#000080;stroke-width:1.5;" x="396.076875" xlink:href="#m2f1de386b9" y="208.663118"/>
    </g>
   </g>
   <g id="line2d_45">
    <path d="M 364.396875 34.768147 
L 396.076875 124.350405 
" style="fill:none;stroke:#6495ed;stroke-linecap:square;stroke-width:1.5;"/>
    <g>
     <use style="fill:none;stroke:#6495ed;stroke-linejoin:miter;stroke-width:1.5;" x="364.396875" xlink:href="#mc1b18afe96" y="34.768147"/>
     <use style="fill:none;stroke:#6495ed;stroke-linejoin:miter;stroke-width:1.5;" x="396.076875" xlink:href="#mc1b18afe96" y="124.350405"/>
    </g>
   </g>
   <g id="line2d_46">
    <path d="M 364.396875 34.768147 
L 396.076875 40.037692 
" style="fill:none;stroke:#ffa500;stroke-linecap:square;stroke-width:1.5;"/>
    <g>
     <use style="fill:none;stroke:#ffa500;stroke-linejoin:bevel;stroke-width:1.5;" x="364.396875" xlink:href="#m5b4cf35c8a" y="34.768147"/>
     <use style="fill:none;stroke:#ffa500;stroke-linejoin:bevel;stroke-width:1.5;" x="396.076875" xlink:href="#m5b4cf35c8a" y="40.037692"/>
    </g>
   </g>
   <g id="line2d_47">
    <path d="M 364.396875 298.245375 
L 364.396875 34.768147 
" style="fill:none;stroke:#000000;stroke-linecap:square;stroke-width:1.5;"/>
   </g>
   <g id="patch_3">
    <path d="M 76.396875 298.245375 
L 76.396875 32.133375 
" style="fill:none;stroke:#000000;stroke-linecap:square;stroke-linejoin:miter;stroke-width:0.8;"/>
   </g>
   <g id="patch_4">
    <path d="M 433.516875 298.245375 
L 433.516875 32.133375 
" style="fill:none;stroke:#000000;stroke-linecap:square;stroke-linejoin:miter;stroke-width:0.8;"/>
   </g>
   <g id="patch_5">
    <path d="M 76.396875 298.245375 
L 433.516875 298.245375 
" style="fill:none;stroke:#000000;stroke-linecap:square;stroke-linejoin:miter;stroke-width:0.8;"/>
   </g>
   <g id="patch_6">
    <path d="M 76.396875 32.133375 
L 433.516875 32.133375 
" style="fill:none;stroke:#000000;stroke-linecap:square;stroke-linejoin:miter;stroke-width:0.8;"/>
   </g>
   <g id="text_14">
    <!-- cob-1e-9 o -->
    <defs>
     <path d="M 48.6875 27.296875 
Q 48.6875 37.203125 44.609375 42.84375 
Q 40.53125 48.484375 33.40625 48.484375 
Q 26.265625 48.484375 22.1875 42.84375 
Q 18.109375 37.203125 18.109375 27.296875 
Q 18.109375 17.390625 22.1875 11.75 
Q 26.265625 6.109375 33.40625 6.109375 
Q 40.53125 6.109375 44.609375 11.75 
Q 48.6875 17.390625 48.6875 27.296875 
z
M 18.109375 46.390625 
Q 20.953125 51.265625 25.265625 53.625 
Q 29.59375 56 35.59375 56 
Q 45.5625 56 51.78125 48.09375 
Q 58.015625 40.1875 58.015625 27.296875 
Q 58.015625 14.40625 51.78125 6.484375 
Q 45.5625 -1.421875 35.59375 -1.421875 
Q 29.59375 -1.421875 25.265625 0.953125 
Q 20.953125 3.328125 18.109375 8.203125 
L 18.109375 0 
L 9.078125 0 
L 9.078125 75.984375 
L 18.109375 75.984375 
z
" id="DejaVuSans-62"/>
     <path d="M 10.984375 1.515625 
L 10.984375 10.5 
Q 14.703125 8.734375 18.5 7.8125 
Q 22.3125 6.890625 25.984375 6.890625 
Q 35.75 6.890625 40.890625 13.453125 
Q 46.046875 20.015625 46.78125 33.40625 
Q 43.953125 29.203125 39.59375 26.953125 
Q 35.25 24.703125 29.984375 24.703125 
Q 19.046875 24.703125 12.671875 31.3125 
Q 6.296875 37.9375 6.296875 49.421875 
Q 6.296875 60.640625 12.9375 67.421875 
Q 19.578125 74.21875 30.609375 74.21875 
Q 43.265625 74.21875 49.921875 64.515625 
Q 56.59375 54.828125 56.59375 36.375 
Q 56.59375 19.140625 48.40625 8.859375 
Q 40.234375 -1.421875 26.421875 -1.421875 
Q 22.703125 -1.421875 18.890625 -0.6875 
Q 15.09375 0.046875 10.984375 1.515625 
z
M 30.609375 32.421875 
Q 37.25 32.421875 41.125 36.953125 
Q 45.015625 41.5 45.015625 49.421875 
Q 45.015625 57.28125 41.125 61.84375 
Q 37.25 66.40625 30.609375 66.40625 
Q 23.96875 66.40625 20.09375 61.84375 
Q 16.21875 57.28125 16.21875 49.421875 
Q 16.21875 41.5 20.09375 36.953125 
Q 23.96875 32.421875 30.609375 32.421875 
z
" id="DejaVuSans-39"/>
    </defs>
    <g transform="translate(401.836875 297.114893)scale(0.15 -0.15)">
     <use xlink:href="#DejaVuSans-63"/>
     <use x="54.980469" xlink:href="#DejaVuSans-6f"/>
     <use x="116.162109" xlink:href="#DejaVuSans-62"/>
     <use x="179.638672" xlink:href="#DejaVuSans-2d"/>
     <use x="215.722656" xlink:href="#DejaVuSans-31"/>
     <use x="279.345703" xlink:href="#DejaVuSans-65"/>
     <use x="340.869141" xlink:href="#DejaVuSans-2d"/>
     <use x="376.953125" xlink:href="#DejaVuSans-39"/>
     <use x="440.576172" xlink:href="#DejaVuSans-20"/>
     <use x="472.363281" xlink:href="#DejaVuSans-6f"/>
    </g>
   </g>
   <g id="text_15">
    <!-- cob-1e-12  -->
    <g transform="translate(401.836875 212.80218)scale(0.15 -0.15)">
     <use xlink:href="#DejaVuSans-63"/>
     <use x="54.980469" xlink:href="#DejaVuSans-6f"/>
     <use x="116.162109" xlink:href="#DejaVuSans-62"/>
     <use x="179.638672" xlink:href="#DejaVuSans-2d"/>
     <use x="215.722656" xlink:href="#DejaVuSans-31"/>
     <use x="279.345703" xlink:href="#DejaVuSans-65"/>
     <use x="340.869141" xlink:href="#DejaVuSans-2d"/>
     <use x="376.953125" xlink:href="#DejaVuSans-31"/>
     <use x="440.576172" xlink:href="#DejaVuSans-32"/>
     <use x="504.199219" xlink:href="#DejaVuSans-20"/>
    </g>
   </g>
   <g id="text_16">
    <!-- cob-1e-5 o -->
    <defs>
     <path d="M 10.796875 72.90625 
L 49.515625 72.90625 
L 49.515625 64.59375 
L 19.828125 64.59375 
L 19.828125 46.734375 
Q 21.96875 47.46875 24.109375 47.828125 
Q 26.265625 48.1875 28.421875 48.1875 
Q 40.625 48.1875 47.75 41.5 
Q 54.890625 34.8125 54.890625 23.390625 
Q 54.890625 11.625 47.5625 5.09375 
Q 40.234375 -1.421875 26.90625 -1.421875 
Q 22.3125 -1.421875 17.546875 -0.640625 
Q 12.796875 0.140625 7.71875 1.703125 
L 7.71875 11.625 
Q 12.109375 9.234375 16.796875 8.0625 
Q 21.484375 6.890625 26.703125 6.890625 
Q 35.15625 6.890625 40.078125 11.328125 
Q 45.015625 15.765625 45.015625 23.390625 
Q 45.015625 31 40.078125 35.4375 
Q 35.15625 39.890625 26.703125 39.890625 
Q 22.75 39.890625 18.8125 39.015625 
Q 14.890625 38.140625 10.796875 36.28125 
z
" id="DejaVuSans-35"/>
    </defs>
    <g transform="translate(401.836875 128.489467)scale(0.15 -0.15)">
     <use xlink:href="#DejaVuSans-63"/>
     <use x="54.980469" xlink:href="#DejaVuSans-6f"/>
     <use x="116.162109" xlink:href="#DejaVuSans-62"/>
     <use x="179.638672" xlink:href="#DejaVuSans-2d"/>
     <use x="215.722656" xlink:href="#DejaVuSans-31"/>
     <use x="279.345703" xlink:href="#DejaVuSans-65"/>
     <use x="340.869141" xlink:href="#DejaVuSans-2d"/>
     <use x="376.953125" xlink:href="#DejaVuSans-35"/>
     <use x="440.576172" xlink:href="#DejaVuSans-20"/>
     <use x="472.363281" xlink:href="#DejaVuSans-6f"/>
    </g>
   </g>
   <g id="text_17">
    <!-- cob-1e-7 o -->
    <defs>
     <path d="M 8.203125 72.90625 
L 55.078125 72.90625 
L 55.078125 68.703125 
L 28.609375 0 
L 18.3125 0 
L 43.21875 64.59375 
L 8.203125 64.59375 
z
" id="DejaVuSans-37"/>
    </defs>
    <g transform="translate(401.836875 44.176754)scale(0.15 -0.15)">
     <use xlink:href="#DejaVuSans-63"/>
     <use x="54.980469" xlink:href="#DejaVuSans-6f"/>
     <use x="116.162109" xlink:href="#DejaVuSans-62"/>
     <use x="179.638672" xlink:href="#DejaVuSans-2d"/>
     <use x="215.722656" xlink:href="#DejaVuSans-31"/>
     <use x="279.345703" xlink:href="#DejaVuSans-65"/>
     <use x="340.869141" xlink:href="#DejaVuSans-2d"/>
     <use x="376.953125" xlink:href="#DejaVuSans-37"/>
     <use x="440.576172" xlink:href="#DejaVuSans-20"/>
     <use x="472.363281" xlink:href="#DejaVuSans-6f"/>
    </g>
   </g>
   <g id="text_18">
    <!-- bbob-constrained - f42, 5-D -->
    <defs>
     <path d="M 11.71875 12.40625 
L 22.015625 12.40625 
L 22.015625 4 
L 14.015625 -11.625 
L 7.71875 -11.625 
L 11.71875 4 
z
" id="DejaVuSans-2c"/>
     <path d="M 19.671875 64.796875 
L 19.671875 8.109375 
L 31.59375 8.109375 
Q 46.6875 8.109375 53.6875 14.9375 
Q 60.6875 21.78125 60.6875 36.53125 
Q 60.6875 51.171875 53.6875 57.984375 
Q 46.6875 64.796875 31.59375 64.796875 
z
M 9.8125 72.90625 
L 30.078125 72.90625 
Q 51.265625 72.90625 61.171875 64.09375 
Q 71.09375 55.28125 71.09375 36.53125 
Q 71.09375 17.671875 61.125 8.828125 
Q 51.171875 0 30.078125 0 
L 9.8125 0 
z
" id="DejaVuSans-44"/>
    </defs>
    <g transform="translate(79.968075 50.114612)scale(0.1666 -0.1666)">
     <use xlink:href="#DejaVuSans-62"/>
     <use x="63.476562" xlink:href="#DejaVuSans-62"/>
     <use x="126.953125" xlink:href="#DejaVuSans-6f"/>
     <use x="188.134766" xlink:href="#DejaVuSans-62"/>
     <use x="251.611328" xlink:href="#DejaVuSans-2d"/>
     <use x="287.695312" xlink:href="#DejaVuSans-63"/>
     <use x="342.675781" xlink:href="#DejaVuSans-6f"/>
     <use x="403.857422" xlink:href="#DejaVuSans-6e"/>
     <use x="467.236328" xlink:href="#DejaVuSans-73"/>
     <use x="519.335938" xlink:href="#DejaVuSans-74"/>
     <use x="558.544922" xlink:href="#DejaVuSans-72"/>
     <use x="599.658203" xlink:href="#DejaVuSans-61"/>
     <use x="660.9375" xlink:href="#DejaVuSans-69"/>
     <use x="688.720703" xlink:href="#DejaVuSans-6e"/>
     <use x="752.099609" xlink:href="#DejaVuSans-65"/>
     <use x="813.623047" xlink:href="#DejaVuSans-64"/>
     <use x="877.099609" xlink:href="#DejaVuSans-20"/>
     <use x="908.886719" xlink:href="#DejaVuSans-2d"/>
     <use x="944.970703" xlink:href="#DejaVuSans-20"/>
     <use x="976.757812" xlink:href="#DejaVuSans-66"/>
     <use x="1011.962891" xlink:href="#DejaVuSans-34"/>
     <use x="1075.585938" xlink:href="#DejaVuSans-32"/>
     <use x="1139.208984" xlink:href="#DejaVuSans-2c"/>
     <use x="1170.996094" xlink:href="#DejaVuSans-20"/>
     <use x="1202.783203" xlink:href="#DejaVuSans-35"/>
     <use x="1266.40625" xlink:href="#DejaVuSans-2d"/>
     <use x="1302.490234" xlink:href="#DejaVuSans-44"/>
    </g>
    <!-- 51 targets in 100..1e-08 -->
    <g transform="translate(79.968075 68.770168)scale(0.1666 -0.1666)">
     <use xlink:href="#DejaVuSans-35"/>
     <use x="63.623047" xlink:href="#DejaVuSans-31"/>
     <use x="127.246094" xlink:href="#DejaVuSans-20"/>
     <use x="159.033203" xlink:href="#DejaVuSans-74"/>
     <use x="198.242188" xlink:href="#DejaVuSans-61"/>
     <use x="259.521484" xlink:href="#DejaVuSans-72"/>
     <use x="300.619141" xlink:href="#DejaVuSans-67"/>
     <use x="364.095703" xlink:href="#DejaVuSans-65"/>
     <use x="425.619141" xlink:href="#DejaVuSans-74"/>
     <use x="464.828125" xlink:href="#DejaVuSans-73"/>
     <use x="516.927734" xlink:href="#DejaVuSans-20"/>
     <use x="548.714844" xlink:href="#DejaVuSans-69"/>
     <use x="576.498047" xlink:href="#DejaVuSans-6e"/>
     <use x="639.876953" xlink:href="#DejaVuSans-20"/>
     <use x="671.664062" xlink:href="#DejaVuSans-31"/>
     <use x="735.287109" xlink:href="#DejaVuSans-30"/>
     <use x="798.910156" xlink:href="#DejaVuSans-30"/>
     <use x="862.533203" xlink:href="#DejaVuSans-2e"/>
     <use x="894.320312" xlink:href="#DejaVuSans-2e"/>
     <use x="926.107422" xlink:href="#DejaVuSans-31"/>
     <use x="989.730469" xlink:href="#DejaVuSans-65"/>
     <use x="1051.253906" xlink:href="#DejaVuSans-2d"/>
     <use x="1087.337891" xlink:href="#DejaVuSans-30"/>
     <use x="1150.960938" xlink:href="#DejaVuSans-38"/>
    </g>
    <!-- 15 instances -->
    <g transform="translate(79.968075 87.425723)scale(0.1666 -0.1666)">
     <use xlink:href="#DejaVuSans-31"/>
     <use x="63.623047" xlink:href="#DejaVuSans-35"/>
     <use x="127.246094" xlink:href="#DejaVuSans-20"/>
     <use x="159.033203" xlink:href="#DejaVuSans-69"/>
     <use x="186.816406" xlink:href="#DejaVuSans-6e"/>
     <use x="250.195312" xlink:href="#DejaVuSans-73"/>
     <use x="302.294922" xlink:href="#DejaVuSans-74"/>
     <use x="341.503906" xlink:href="#DejaVuSans-61"/>
     <use x="402.783203" xlink:href="#DejaVuSans-6e"/>
     <use x="466.162109" xlink:href="#DejaVuSans-63"/>
     <use x="521.142578" xlink:href="#DejaVuSans-65"/>
     <use x="582.666016" xlink:href="#DejaVuSans-73"/>
    </g>
   </g>
   <g id="text_19">
    <!-- v2.0.312 -->
    <defs>
     <path d="M 40.578125 39.3125 
Q 47.65625 37.796875 51.625 33 
Q 55.609375 28.21875 55.609375 21.1875 
Q 55.609375 10.40625 48.1875 4.484375 
Q 40.765625 -1.421875 27.09375 -1.421875 
Q 22.515625 -1.421875 17.65625 -0.515625 
Q 12.796875 0.390625 7.625 2.203125 
L 7.625 11.71875 
Q 11.71875 9.328125 16.59375 8.109375 
Q 21.484375 6.890625 26.8125 6.890625 
Q 36.078125 6.890625 40.9375 10.546875 
Q 45.796875 14.203125 45.796875 21.1875 
Q 45.796875 27.640625 41.28125 31.265625 
Q 36.765625 34.90625 28.71875 34.90625 
L 20.21875 34.90625 
L 20.21875 43.015625 
L 29.109375 43.015625 
Q 36.375 43.015625 40.234375 45.921875 
Q 44.09375 48.828125 44.09375 54.296875 
Q 44.09375 59.90625 40.109375 62.90625 
Q 36.140625 65.921875 28.71875 65.921875 
Q 24.65625 65.921875 20.015625 65.03125 
Q 15.375 64.15625 9.8125 62.3125 
L 9.8125 71.09375 
Q 15.4375 72.65625 20.34375 73.4375 
Q 25.25 74.21875 29.59375 74.21875 
Q 40.828125 74.21875 47.359375 69.109375 
Q 53.90625 64.015625 53.90625 55.328125 
Q 53.90625 49.265625 50.4375 45.09375 
Q 46.96875 40.921875 40.578125 39.3125 
z
" id="DejaVuSans-33"/>
    </defs>
    <g style="fill:#808080;" transform="translate(232.913125 293.504568)scale(0.1 -0.1)">
     <use xlink:href="#DejaVuSans-76"/>
     <use x="59.179688" xlink:href="#DejaVuSans-32"/>
     <use x="122.802734" xlink:href="#DejaVuSans-2e"/>
     <use x="154.589844" xlink:href="#DejaVuSans-30"/>
     <use x="218.212891" xlink:href="#DejaVuSans-2e"/>
     <use x="250" xlink:href="#DejaVuSans-33"/>
     <use x="313.623047" xlink:href="#DejaVuSans-31"/>
     <use x="377.246094" xlink:href="#DejaVuSans-32"/>
    </g>
   </g>
   <g id="text_20">
    <!-- 42 Different Powers with n+1 constraints -->
    <defs>
     <path d="M 4.203125 54.6875 
L 13.1875 54.6875 
L 24.421875 12.015625 
L 35.59375 54.6875 
L 46.1875 54.6875 
L 57.421875 12.015625 
L 68.609375 54.6875 
L 77.59375 54.6875 
L 63.28125 0 
L 52.6875 0 
L 40.921875 44.828125 
L 29.109375 0 
L 18.5 0 
z
" id="DejaVuSans-77"/>
     <path d="M 54.890625 33.015625 
L 54.890625 0 
L 45.90625 0 
L 45.90625 32.71875 
Q 45.90625 40.484375 42.875 44.328125 
Q 39.84375 48.1875 33.796875 48.1875 
Q 26.515625 48.1875 22.3125 43.546875 
Q 18.109375 38.921875 18.109375 30.90625 
L 18.109375 0 
L 9.078125 0 
L 9.078125 75.984375 
L 18.109375 75.984375 
L 18.109375 46.1875 
Q 21.34375 51.125 25.703125 53.5625 
Q 30.078125 56 35.796875 56 
Q 45.21875 56 50.046875 50.171875 
Q 54.890625 44.34375 54.890625 33.015625 
z
" id="DejaVuSans-68"/>
    </defs>
    <g transform="translate(7.2 26.133375)scale(0.24 -0.24)">
     <use xlink:href="#DejaVuSans-34"/>
     <use x="63.623047" xlink:href="#DejaVuSans-32"/>
     <use x="127.246094" xlink:href="#DejaVuSans-20"/>
     <use x="159.033203" xlink:href="#DejaVuSans-44"/>
     <use x="236.035156" xlink:href="#DejaVuSans-69"/>
     <use x="263.818359" xlink:href="#DejaVuSans-66"/>
     <use x="299.023438" xlink:href="#DejaVuSans-66"/>
     <use x="334.228516" xlink:href="#DejaVuSans-65"/>
     <use x="395.751953" xlink:href="#DejaVuSans-72"/>
     <use x="436.833984" xlink:href="#DejaVuSans-65"/>
     <use x="498.357422" xlink:href="#DejaVuSans-6e"/>
     <use x="561.736328" xlink:href="#DejaVuSans-74"/>
     <use x="600.945312" xlink:href="#DejaVuSans-20"/>
     <use x="632.732422" xlink:href="#DejaVuSans-50"/>
     <use x="692.988281" xlink:href="#DejaVuSans-6f"/>
     <use x="754.169922" xlink:href="#DejaVuSans-77"/>
     <use x="835.957031" xlink:href="#DejaVuSans-65"/>
     <use x="897.480469" xlink:href="#DejaVuSans-72"/>
     <use x="938.59375" xlink:href="#DejaVuSans-73"/>
     <use x="990.693359" xlink:href="#DejaVuSans-20"/>
     <use x="1022.480469" xlink:href="#DejaVuSans-77"/>
     <use x="1104.267578" xlink:href="#DejaVuSans-69"/>
     <use x="1132.050781" xlink:href="#DejaVuSans-74"/>
     <use x="1171.259766" xlink:href="#DejaVuSans-68"/>
     <use x="1234.638672" xlink:href="#DejaVuSans-20"/>
     <use x="1266.425781" xlink:href="#DejaVuSans-6e"/>
     <use x="1329.804688" xlink:href="#DejaVuSans-2b"/>
     <use x="1413.59375" xlink:href="#DejaVuSans-31"/>
     <use x="1477.216797" xlink:href="#DejaVuSans-20"/>
     <use x="1509.003906" xlink:href="#DejaVuSans-63"/>
     <use x="1563.984375" xlink:href="#DejaVuSans-6f"/>
     <use x="1625.166016" xlink:href="#DejaVuSans-6e"/>
     <use x="1688.544922" xlink:href="#DejaVuSans-73"/>
     <use x="1740.644531" xlink:href="#DejaVuSans-74"/>
     <use x="1779.853516" xlink:href="#DejaVuSans-72"/>
     <use x="1820.966797" xlink:href="#DejaVuSans-61"/>
     <use x="1882.246094" xlink:href="#DejaVuSans-69"/>
     <use x="1910.029297" xlink:href="#DejaVuSans-6e"/>
     <use x="1973.408203" xlink:href="#DejaVuSans-74"/>
     <use x="2012.617188" xlink:href="#DejaVuSans-73"/>
    </g>
   </g>
  </g>
 </g>
 <defs>
  <clipPath id="pedf02ef635">
   <rect height="266.112" width="357.12" x="76.396875" y="32.133375"/>
  </clipPath>
 </defs>
</svg>
