<?xml version="1.0" encoding="utf-8" standalone="no"?>
<!DOCTYPE svg PUBLIC "-//W3C//DTD SVG 1.1//EN"
  "http://www.w3.org/Graphics/SVG/1.1/DTD/svg11.dtd">
<!-- Created with matplotlib (http://matplotlib.org/) -->
<svg height="353pt" version="1.1" viewBox="0 0 483 353" width="483pt" xmlns="http://www.w3.org/2000/svg" xmlns:xlink="http://www.w3.org/1999/xlink">
 <defs>
  <style type="text/css">
*{stroke-linecap:butt;stroke-linejoin:round;}
  </style>
 </defs>
 <g id="figure_1">
  <g id="patch_1">
   <path d="M 0 353.22225 
L 483.84 353.22225 
L 483.84 0 
L 0 0 
z
" style="fill:#ffffff;"/>
  </g>
  <g id="axes_1">
   <g id="patch_2">
    <path d="M 70.8 298.245375 
L 427.92 298.245375 
L 427.92 32.133375 
L 70.8 32.133375 
z
" style="fill:#ffffff;"/>
   </g>
   <g id="matplotlib.axis_1">
    <g id="xtick_1">
     <g id="line2d_1">
      <path clip-path="url(#p446df52dc5)" d="M 70.8 298.245375 
L 70.8 32.133375 
" style="fill:none;stroke:#b0b0b0;stroke-linecap:square;stroke-width:0.8;"/>
     </g>
     <g id="line2d_2">
      <defs>
       <path d="M 0 0 
L 0 3.5 
" id="m3c3042fa93" style="stroke:#000000;stroke-width:0.8;"/>
      </defs>
      <g>
       <use style="stroke:#000000;stroke-width:0.8;" x="70.8" xlink:href="#m3c3042fa93" y="298.245375"/>
      </g>
     </g>
     <g id="text_1">
      <!-- 0 -->
      <defs>
       <path d="M 31.78125 66.40625 
Q 24.171875 66.40625 20.328125 58.90625 
Q 16.5 51.421875 16.5 36.375 
Q 16.5 21.390625 20.328125 13.890625 
Q 24.171875 6.390625 31.78125 6.390625 
Q 39.453125 6.390625 43.28125 13.890625 
Q 47.125 21.390625 47.125 36.375 
Q 47.125 51.421875 43.28125 58.90625 
Q 39.453125 66.40625 31.78125 66.40625 
z
M 31.78125 74.21875 
Q 44.046875 74.21875 50.515625 64.515625 
Q 56.984375 54.828125 56.984375 36.375 
Q 56.984375 17.96875 50.515625 8.265625 
Q 44.046875 -1.421875 31.78125 -1.421875 
Q 19.53125 -1.421875 13.0625 8.265625 
Q 6.59375 17.96875 6.59375 36.375 
Q 6.59375 54.828125 13.0625 64.515625 
Q 19.53125 74.21875 31.78125 74.21875 
z
" id="DejaVuSans-30"/>
      </defs>
      <g transform="translate(64.4375 320.44225)scale(0.2 -0.2)">
       <use xlink:href="#DejaVuSans-30"/>
      </g>
     </g>
    </g>
    <g id="xtick_2">
     <g id="line2d_3">
      <path clip-path="url(#p446df52dc5)" d="M 153.085714 298.245375 
L 153.085714 32.133375 
" style="fill:none;stroke:#b0b0b0;stroke-linecap:square;stroke-width:0.8;"/>
     </g>
     <g id="line2d_4">
      <g>
       <use style="stroke:#000000;stroke-width:0.8;" x="153.085714" xlink:href="#m3c3042fa93" y="298.245375"/>
      </g>
     </g>
     <g id="text_2">
      <!-- 2 -->
      <defs>
       <path d="M 19.1875 8.296875 
L 53.609375 8.296875 
L 53.609375 0 
L 7.328125 0 
L 7.328125 8.296875 
Q 12.9375 14.109375 22.625 23.890625 
Q 32.328125 33.6875 34.8125 36.53125 
Q 39.546875 41.84375 41.421875 45.53125 
Q 43.3125 49.21875 43.3125 52.78125 
Q 43.3125 58.59375 39.234375 62.25 
Q 35.15625 65.921875 28.609375 65.921875 
Q 23.96875 65.921875 18.8125 64.3125 
Q 13.671875 62.703125 7.8125 59.421875 
L 7.8125 69.390625 
Q 13.765625 71.78125 18.9375 73 
Q 24.125 74.21875 28.421875 74.21875 
Q 39.75 74.21875 46.484375 68.546875 
Q 53.21875 62.890625 53.21875 53.421875 
Q 53.21875 48.921875 51.53125 44.890625 
Q 49.859375 40.875 45.40625 35.40625 
Q 44.1875 33.984375 37.640625 27.21875 
Q 31.109375 20.453125 19.1875 8.296875 
z
" id="DejaVuSans-32"/>
      </defs>
      <g transform="translate(146.723214 320.44225)scale(0.2 -0.2)">
       <use xlink:href="#DejaVuSans-32"/>
      </g>
     </g>
    </g>
    <g id="xtick_3">
     <g id="line2d_5">
      <path clip-path="url(#p446df52dc5)" d="M 235.371429 298.245375 
L 235.371429 32.133375 
" style="fill:none;stroke:#b0b0b0;stroke-linecap:square;stroke-width:0.8;"/>
     </g>
     <g id="line2d_6">
      <g>
       <use style="stroke:#000000;stroke-width:0.8;" x="235.371429" xlink:href="#m3c3042fa93" y="298.245375"/>
      </g>
     </g>
     <g id="text_3">
      <!-- 4 -->
      <defs>
       <path d="M 37.796875 64.3125 
L 12.890625 25.390625 
L 37.796875 25.390625 
z
M 35.203125 72.90625 
L 47.609375 72.90625 
L 47.609375 25.390625 
L 58.015625 25.390625 
L 58.015625 17.1875 
L 47.609375 17.1875 
L 47.609375 0 
L 37.796875 0 
L 37.796875 17.1875 
L 4.890625 17.1875 
L 4.890625 26.703125 
z
" id="DejaVuSans-34"/>
      </defs>
      <g transform="translate(229.008929 320.44225)scale(0.2 -0.2)">
       <use xlink:href="#DejaVuSans-34"/>
      </g>
     </g>
    </g>
    <g id="xtick_4">
     <g id="line2d_7">
      <path clip-path="url(#p446df52dc5)" d="M 317.657143 298.245375 
L 317.657143 32.133375 
" style="fill:none;stroke:#b0b0b0;stroke-linecap:square;stroke-width:0.8;"/>
     </g>
     <g id="line2d_8">
      <g>
       <use style="stroke:#000000;stroke-width:0.8;" x="317.657143" xlink:href="#m3c3042fa93" y="298.245375"/>
      </g>
     </g>
     <g id="text_4">
      <!-- 6 -->
      <defs>
       <path d="M 33.015625 40.375 
Q 26.375 40.375 22.484375 35.828125 
Q 18.609375 31.296875 18.609375 23.390625 
Q 18.609375 15.53125 22.484375 10.953125 
Q 26.375 6.390625 33.015625 6.390625 
Q 39.65625 6.390625 43.53125 10.953125 
Q 47.40625 15.53125 47.40625 23.390625 
Q 47.40625 31.296875 43.53125 35.828125 
Q 39.65625 40.375 33.015625 40.375 
z
M 52.59375 71.296875 
L 52.59375 62.3125 
Q 48.875 64.0625 45.09375 64.984375 
Q 41.3125 65.921875 37.59375 65.921875 
Q 27.828125 65.921875 22.671875 59.328125 
Q 17.53125 52.734375 16.796875 39.40625 
Q 19.671875 43.65625 24.015625 45.921875 
Q 28.375 48.1875 33.59375 48.1875 
Q 44.578125 48.1875 50.953125 41.515625 
Q 57.328125 34.859375 57.328125 23.390625 
Q 57.328125 12.15625 50.6875 5.359375 
Q 44.046875 -1.421875 33.015625 -1.421875 
Q 20.359375 -1.421875 13.671875 8.265625 
Q 6.984375 17.96875 6.984375 36.375 
Q 6.984375 53.65625 15.1875 63.9375 
Q 23.390625 74.21875 37.203125 74.21875 
Q 40.921875 74.21875 44.703125 73.484375 
Q 48.484375 72.75 52.59375 71.296875 
z
" id="DejaVuSans-36"/>
      </defs>
      <g transform="translate(311.294643 320.44225)scale(0.2 -0.2)">
       <use xlink:href="#DejaVuSans-36"/>
      </g>
     </g>
    </g>
    <g id="xtick_5">
     <g id="line2d_9">
      <path clip-path="url(#p446df52dc5)" d="M 399.942857 298.245375 
L 399.942857 32.133375 
" style="fill:none;stroke:#b0b0b0;stroke-linecap:square;stroke-width:0.8;"/>
     </g>
     <g id="line2d_10">
      <g>
       <use style="stroke:#000000;stroke-width:0.8;" x="399.942857" xlink:href="#m3c3042fa93" y="298.245375"/>
      </g>
     </g>
     <g id="text_5">
      <!-- 8 -->
      <defs>
       <path d="M 31.78125 34.625 
Q 24.75 34.625 20.71875 30.859375 
Q 16.703125 27.09375 16.703125 20.515625 
Q 16.703125 13.921875 20.71875 10.15625 
Q 24.75 6.390625 31.78125 6.390625 
Q 38.8125 6.390625 42.859375 10.171875 
Q 46.921875 13.96875 46.921875 20.515625 
Q 46.921875 27.09375 42.890625 30.859375 
Q 38.875 34.625 31.78125 34.625 
z
M 21.921875 38.8125 
Q 15.578125 40.375 12.03125 44.71875 
Q 8.5 49.078125 8.5 55.328125 
Q 8.5 64.0625 14.71875 69.140625 
Q 20.953125 74.21875 31.78125 74.21875 
Q 42.671875 74.21875 48.875 69.140625 
Q 55.078125 64.0625 55.078125 55.328125 
Q 55.078125 49.078125 51.53125 44.71875 
Q 48 40.375 41.703125 38.8125 
Q 48.828125 37.15625 52.796875 32.3125 
Q 56.78125 27.484375 56.78125 20.515625 
Q 56.78125 9.90625 50.3125 4.234375 
Q 43.84375 -1.421875 31.78125 -1.421875 
Q 19.734375 -1.421875 13.25 4.234375 
Q 6.78125 9.90625 6.78125 20.515625 
Q 6.78125 27.484375 10.78125 32.3125 
Q 14.796875 37.15625 21.921875 38.8125 
z
M 18.3125 54.390625 
Q 18.3125 48.734375 21.84375 45.5625 
Q 25.390625 42.390625 31.78125 42.390625 
Q 38.140625 42.390625 41.71875 45.5625 
Q 45.3125 48.734375 45.3125 54.390625 
Q 45.3125 60.0625 41.71875 63.234375 
Q 38.140625 66.40625 31.78125 66.40625 
Q 25.390625 66.40625 21.84375 63.234375 
Q 18.3125 60.0625 18.3125 54.390625 
z
" id="DejaVuSans-38"/>
      </defs>
      <g transform="translate(393.580357 320.44225)scale(0.2 -0.2)">
       <use xlink:href="#DejaVuSans-38"/>
      </g>
     </g>
    </g>
    <g id="text_6">
     <!-- log10 of # (f+g)-evals / dimension -->
     <defs>
      <path d="M 9.421875 75.984375 
L 18.40625 75.984375 
L 18.40625 0 
L 9.421875 0 
z
" id="DejaVuSans-6c"/>
      <path d="M 30.609375 48.390625 
Q 23.390625 48.390625 19.1875 42.75 
Q 14.984375 37.109375 14.984375 27.296875 
Q 14.984375 17.484375 19.15625 11.84375 
Q 23.34375 6.203125 30.609375 6.203125 
Q 37.796875 6.203125 41.984375 11.859375 
Q 46.1875 17.53125 46.1875 27.296875 
Q 46.1875 37.015625 41.984375 42.703125 
Q 37.796875 48.390625 30.609375 48.390625 
z
M 30.609375 56 
Q 42.328125 56 49.015625 48.375 
Q 55.71875 40.765625 55.71875 27.296875 
Q 55.71875 13.875 49.015625 6.21875 
Q 42.328125 -1.421875 30.609375 -1.421875 
Q 18.84375 -1.421875 12.171875 6.21875 
Q 5.515625 13.875 5.515625 27.296875 
Q 5.515625 40.765625 12.171875 48.375 
Q 18.84375 56 30.609375 56 
z
" id="DejaVuSans-6f"/>
      <path d="M 45.40625 27.984375 
Q 45.40625 37.75 41.375 43.109375 
Q 37.359375 48.484375 30.078125 48.484375 
Q 22.859375 48.484375 18.828125 43.109375 
Q 14.796875 37.75 14.796875 27.984375 
Q 14.796875 18.265625 18.828125 12.890625 
Q 22.859375 7.515625 30.078125 7.515625 
Q 37.359375 7.515625 41.375 12.890625 
Q 45.40625 18.265625 45.40625 27.984375 
z
M 54.390625 6.78125 
Q 54.390625 -7.171875 48.1875 -13.984375 
Q 42 -20.796875 29.203125 -20.796875 
Q 24.46875 -20.796875 20.265625 -20.09375 
Q 16.0625 -19.390625 12.109375 -17.921875 
L 12.109375 -9.1875 
Q 16.0625 -11.328125 19.921875 -12.34375 
Q 23.78125 -13.375 27.78125 -13.375 
Q 36.625 -13.375 41.015625 -8.765625 
Q 45.40625 -4.15625 45.40625 5.171875 
L 45.40625 9.625 
Q 42.625 4.78125 38.28125 2.390625 
Q 33.9375 0 27.875 0 
Q 17.828125 0 11.671875 7.65625 
Q 5.515625 15.328125 5.515625 27.984375 
Q 5.515625 40.671875 11.671875 48.328125 
Q 17.828125 56 27.875 56 
Q 33.9375 56 38.28125 53.609375 
Q 42.625 51.21875 45.40625 46.390625 
L 45.40625 54.6875 
L 54.390625 54.6875 
z
" id="DejaVuSans-67"/>
      <path d="M 12.40625 8.296875 
L 28.515625 8.296875 
L 28.515625 63.921875 
L 10.984375 60.40625 
L 10.984375 69.390625 
L 28.421875 72.90625 
L 38.28125 72.90625 
L 38.28125 8.296875 
L 54.390625 8.296875 
L 54.390625 0 
L 12.40625 0 
z
" id="DejaVuSans-31"/>
      <path id="DejaVuSans-20"/>
      <path d="M 37.109375 75.984375 
L 37.109375 68.5 
L 28.515625 68.5 
Q 23.6875 68.5 21.796875 66.546875 
Q 19.921875 64.59375 19.921875 59.515625 
L 19.921875 54.6875 
L 34.71875 54.6875 
L 34.71875 47.703125 
L 19.921875 47.703125 
L 19.921875 0 
L 10.890625 0 
L 10.890625 47.703125 
L 2.296875 47.703125 
L 2.296875 54.6875 
L 10.890625 54.6875 
L 10.890625 58.5 
Q 10.890625 67.625 15.140625 71.796875 
Q 19.390625 75.984375 28.609375 75.984375 
z
" id="DejaVuSans-66"/>
      <path d="M 51.125 44 
L 36.921875 44 
L 32.8125 27.6875 
L 47.125 27.6875 
z
M 43.796875 71.78125 
L 38.71875 51.515625 
L 52.984375 51.515625 
L 58.109375 71.78125 
L 65.921875 71.78125 
L 60.890625 51.515625 
L 76.125 51.515625 
L 76.125 44 
L 58.984375 44 
L 54.984375 27.6875 
L 70.515625 27.6875 
L 70.515625 20.21875 
L 53.078125 20.21875 
L 48 0 
L 40.1875 0 
L 45.21875 20.21875 
L 30.90625 20.21875 
L 25.875 0 
L 18.015625 0 
L 23.09375 20.21875 
L 7.71875 20.21875 
L 7.71875 27.6875 
L 24.90625 27.6875 
L 29 44 
L 13.28125 44 
L 13.28125 51.515625 
L 30.90625 51.515625 
L 35.890625 71.78125 
z
" id="DejaVuSans-23"/>
      <path d="M 31 75.875 
Q 24.46875 64.65625 21.28125 53.65625 
Q 18.109375 42.671875 18.109375 31.390625 
Q 18.109375 20.125 21.3125 9.0625 
Q 24.515625 -2 31 -13.1875 
L 23.1875 -13.1875 
Q 15.875 -1.703125 12.234375 9.375 
Q 8.59375 20.453125 8.59375 31.390625 
Q 8.59375 42.28125 12.203125 53.3125 
Q 15.828125 64.359375 23.1875 75.875 
z
" id="DejaVuSans-28"/>
      <path d="M 46 62.703125 
L 46 35.5 
L 73.1875 35.5 
L 73.1875 27.203125 
L 46 27.203125 
L 46 0 
L 37.796875 0 
L 37.796875 27.203125 
L 10.59375 27.203125 
L 10.59375 35.5 
L 37.796875 35.5 
L 37.796875 62.703125 
z
" id="DejaVuSans-2b"/>
      <path d="M 8.015625 75.875 
L 15.828125 75.875 
Q 23.140625 64.359375 26.78125 53.3125 
Q 30.421875 42.28125 30.421875 31.390625 
Q 30.421875 20.453125 26.78125 9.375 
Q 23.140625 -1.703125 15.828125 -13.1875 
L 8.015625 -13.1875 
Q 14.5 -2 17.703125 9.0625 
Q 20.90625 20.125 20.90625 31.390625 
Q 20.90625 42.671875 17.703125 53.65625 
Q 14.5 64.65625 8.015625 75.875 
z
" id="DejaVuSans-29"/>
      <path d="M 4.890625 31.390625 
L 31.203125 31.390625 
L 31.203125 23.390625 
L 4.890625 23.390625 
z
" id="DejaVuSans-2d"/>
      <path d="M 56.203125 29.59375 
L 56.203125 25.203125 
L 14.890625 25.203125 
Q 15.484375 15.921875 20.484375 11.0625 
Q 25.484375 6.203125 34.421875 6.203125 
Q 39.59375 6.203125 44.453125 7.46875 
Q 49.3125 8.734375 54.109375 11.28125 
L 54.109375 2.78125 
Q 49.265625 0.734375 44.1875 -0.34375 
Q 39.109375 -1.421875 33.890625 -1.421875 
Q 20.796875 -1.421875 13.15625 6.1875 
Q 5.515625 13.8125 5.515625 26.8125 
Q 5.515625 40.234375 12.765625 48.109375 
Q 20.015625 56 32.328125 56 
Q 43.359375 56 49.78125 48.890625 
Q 56.203125 41.796875 56.203125 29.59375 
z
M 47.21875 32.234375 
Q 47.125 39.59375 43.09375 43.984375 
Q 39.0625 48.390625 32.421875 48.390625 
Q 24.90625 48.390625 20.390625 44.140625 
Q 15.875 39.890625 15.1875 32.171875 
z
" id="DejaVuSans-65"/>
      <path d="M 2.984375 54.6875 
L 12.5 54.6875 
L 29.59375 8.796875 
L 46.6875 54.6875 
L 56.203125 54.6875 
L 35.6875 0 
L 23.484375 0 
z
" id="DejaVuSans-76"/>
      <path d="M 34.28125 27.484375 
Q 23.390625 27.484375 19.1875 25 
Q 14.984375 22.515625 14.984375 16.5 
Q 14.984375 11.71875 18.140625 8.90625 
Q 21.296875 6.109375 26.703125 6.109375 
Q 34.1875 6.109375 38.703125 11.40625 
Q 43.21875 16.703125 43.21875 25.484375 
L 43.21875 27.484375 
z
M 52.203125 31.203125 
L 52.203125 0 
L 43.21875 0 
L 43.21875 8.296875 
Q 40.140625 3.328125 35.546875 0.953125 
Q 30.953125 -1.421875 24.3125 -1.421875 
Q 15.921875 -1.421875 10.953125 3.296875 
Q 6 8.015625 6 15.921875 
Q 6 25.140625 12.171875 29.828125 
Q 18.359375 34.515625 30.609375 34.515625 
L 43.21875 34.515625 
L 43.21875 35.40625 
Q 43.21875 41.609375 39.140625 45 
Q 35.0625 48.390625 27.6875 48.390625 
Q 23 48.390625 18.546875 47.265625 
Q 14.109375 46.140625 10.015625 43.890625 
L 10.015625 52.203125 
Q 14.9375 54.109375 19.578125 55.046875 
Q 24.21875 56 28.609375 56 
Q 40.484375 56 46.34375 49.84375 
Q 52.203125 43.703125 52.203125 31.203125 
z
" id="DejaVuSans-61"/>
      <path d="M 44.28125 53.078125 
L 44.28125 44.578125 
Q 40.484375 46.53125 36.375 47.5 
Q 32.28125 48.484375 27.875 48.484375 
Q 21.1875 48.484375 17.84375 46.4375 
Q 14.5 44.390625 14.5 40.28125 
Q 14.5 37.15625 16.890625 35.375 
Q 19.28125 33.59375 26.515625 31.984375 
L 29.59375 31.296875 
Q 39.15625 29.25 43.1875 25.515625 
Q 47.21875 21.78125 47.21875 15.09375 
Q 47.21875 7.46875 41.1875 3.015625 
Q 35.15625 -1.421875 24.609375 -1.421875 
Q 20.21875 -1.421875 15.453125 -0.5625 
Q 10.6875 0.296875 5.421875 2 
L 5.421875 11.28125 
Q 10.40625 8.6875 15.234375 7.390625 
Q 20.0625 6.109375 24.8125 6.109375 
Q 31.15625 6.109375 34.5625 8.28125 
Q 37.984375 10.453125 37.984375 14.40625 
Q 37.984375 18.0625 35.515625 20.015625 
Q 33.0625 21.96875 24.703125 23.78125 
L 21.578125 24.515625 
Q 13.234375 26.265625 9.515625 29.90625 
Q 5.8125 33.546875 5.8125 39.890625 
Q 5.8125 47.609375 11.28125 51.796875 
Q 16.75 56 26.8125 56 
Q 31.78125 56 36.171875 55.265625 
Q 40.578125 54.546875 44.28125 53.078125 
z
" id="DejaVuSans-73"/>
      <path d="M 25.390625 72.90625 
L 33.6875 72.90625 
L 8.296875 -9.28125 
L 0 -9.28125 
z
" id="DejaVuSans-2f"/>
      <path d="M 45.40625 46.390625 
L 45.40625 75.984375 
L 54.390625 75.984375 
L 54.390625 0 
L 45.40625 0 
L 45.40625 8.203125 
Q 42.578125 3.328125 38.25 0.953125 
Q 33.9375 -1.421875 27.875 -1.421875 
Q 17.96875 -1.421875 11.734375 6.484375 
Q 5.515625 14.40625 5.515625 27.296875 
Q 5.515625 40.1875 11.734375 48.09375 
Q 17.96875 56 27.875 56 
Q 33.9375 56 38.25 53.625 
Q 42.578125 51.265625 45.40625 46.390625 
z
M 14.796875 27.296875 
Q 14.796875 17.390625 18.875 11.75 
Q 22.953125 6.109375 30.078125 6.109375 
Q 37.203125 6.109375 41.296875 11.75 
Q 45.40625 17.390625 45.40625 27.296875 
Q 45.40625 37.203125 41.296875 42.84375 
Q 37.203125 48.484375 30.078125 48.484375 
Q 22.953125 48.484375 18.875 42.84375 
Q 14.796875 37.203125 14.796875 27.296875 
z
" id="DejaVuSans-64"/>
      <path d="M 9.421875 54.6875 
L 18.40625 54.6875 
L 18.40625 0 
L 9.421875 0 
z
M 9.421875 75.984375 
L 18.40625 75.984375 
L 18.40625 64.59375 
L 9.421875 64.59375 
z
" id="DejaVuSans-69"/>
      <path d="M 52 44.1875 
Q 55.375 50.25 60.0625 53.125 
Q 64.75 56 71.09375 56 
Q 79.640625 56 84.28125 50.015625 
Q 88.921875 44.046875 88.921875 33.015625 
L 88.921875 0 
L 79.890625 0 
L 79.890625 32.71875 
Q 79.890625 40.578125 77.09375 44.375 
Q 74.3125 48.1875 68.609375 48.1875 
Q 61.625 48.1875 57.5625 43.546875 
Q 53.515625 38.921875 53.515625 30.90625 
L 53.515625 0 
L 44.484375 0 
L 44.484375 32.71875 
Q 44.484375 40.625 41.703125 44.40625 
Q 38.921875 48.1875 33.109375 48.1875 
Q 26.21875 48.1875 22.15625 43.53125 
Q 18.109375 38.875 18.109375 30.90625 
L 18.109375 0 
L 9.078125 0 
L 9.078125 54.6875 
L 18.109375 54.6875 
L 18.109375 46.1875 
Q 21.1875 51.21875 25.484375 53.609375 
Q 29.78125 56 35.6875 56 
Q 41.65625 56 45.828125 52.96875 
Q 50 49.953125 52 44.1875 
z
" id="DejaVuSans-6d"/>
      <path d="M 54.890625 33.015625 
L 54.890625 0 
L 45.90625 0 
L 45.90625 32.71875 
Q 45.90625 40.484375 42.875 44.328125 
Q 39.84375 48.1875 33.796875 48.1875 
Q 26.515625 48.1875 22.3125 43.546875 
Q 18.109375 38.921875 18.109375 30.90625 
L 18.109375 0 
L 9.078125 0 
L 9.078125 54.6875 
L 18.109375 54.6875 
L 18.109375 46.1875 
Q 21.34375 51.125 25.703125 53.5625 
Q 30.078125 56 35.796875 56 
Q 45.21875 56 50.046875 50.171875 
Q 54.890625 44.34375 54.890625 33.015625 
z
" id="DejaVuSans-6e"/>
     </defs>
     <g transform="translate(93.752813 342.278812)scale(0.18 -0.18)">
      <use xlink:href="#DejaVuSans-6c"/>
      <use x="27.783203" xlink:href="#DejaVuSans-6f"/>
      <use x="88.964844" xlink:href="#DejaVuSans-67"/>
      <use x="152.441406" xlink:href="#DejaVuSans-31"/>
      <use x="216.064453" xlink:href="#DejaVuSans-30"/>
      <use x="279.6875" xlink:href="#DejaVuSans-20"/>
      <use x="311.474609" xlink:href="#DejaVuSans-6f"/>
      <use x="372.65625" xlink:href="#DejaVuSans-66"/>
      <use x="407.861328" xlink:href="#DejaVuSans-20"/>
      <use x="439.648438" xlink:href="#DejaVuSans-23"/>
      <use x="523.4375" xlink:href="#DejaVuSans-20"/>
      <use x="555.224609" xlink:href="#DejaVuSans-28"/>
      <use x="594.238281" xlink:href="#DejaVuSans-66"/>
      <use x="629.443359" xlink:href="#DejaVuSans-2b"/>
      <use x="713.232422" xlink:href="#DejaVuSans-67"/>
      <use x="776.708984" xlink:href="#DejaVuSans-29"/>
      <use x="815.722656" xlink:href="#DejaVuSans-2d"/>
      <use x="851.806641" xlink:href="#DejaVuSans-65"/>
      <use x="913.330078" xlink:href="#DejaVuSans-76"/>
      <use x="972.509766" xlink:href="#DejaVuSans-61"/>
      <use x="1033.789062" xlink:href="#DejaVuSans-6c"/>
      <use x="1061.572266" xlink:href="#DejaVuSans-73"/>
      <use x="1113.671875" xlink:href="#DejaVuSans-20"/>
      <use x="1145.458984" xlink:href="#DejaVuSans-2f"/>
      <use x="1179.150391" xlink:href="#DejaVuSans-20"/>
      <use x="1210.9375" xlink:href="#DejaVuSans-64"/>
      <use x="1274.414062" xlink:href="#DejaVuSans-69"/>
      <use x="1302.197266" xlink:href="#DejaVuSans-6d"/>
      <use x="1399.609375" xlink:href="#DejaVuSans-65"/>
      <use x="1461.132812" xlink:href="#DejaVuSans-6e"/>
      <use x="1524.511719" xlink:href="#DejaVuSans-73"/>
      <use x="1576.611328" xlink:href="#DejaVuSans-69"/>
      <use x="1604.394531" xlink:href="#DejaVuSans-6f"/>
      <use x="1665.576172" xlink:href="#DejaVuSans-6e"/>
     </g>
    </g>
   </g>
   <g id="matplotlib.axis_2">
    <g id="ytick_1">
     <g id="line2d_11">
      <path clip-path="url(#p446df52dc5)" d="M 70.8 298.245375 
L 427.92 298.245375 
" style="fill:none;stroke:#b0b0b0;stroke-linecap:square;stroke-width:0.8;"/>
     </g>
     <g id="line2d_12">
      <defs>
       <path d="M 0 0 
L -3.5 0 
" id="m4bdf1b2b91" style="stroke:#000000;stroke-width:0.8;"/>
      </defs>
      <g>
       <use style="stroke:#000000;stroke-width:0.8;" x="70.8" xlink:href="#m4bdf1b2b91" y="298.245375"/>
      </g>
     </g>
     <g id="text_7">
      <!-- 0.0 -->
      <defs>
       <path d="M 10.6875 12.40625 
L 21 12.40625 
L 21 0 
L 10.6875 0 
z
" id="DejaVuSans-2e"/>
      </defs>
      <g transform="translate(31.99375 305.843812)scale(0.2 -0.2)">
       <use xlink:href="#DejaVuSans-30"/>
       <use x="63.623047" xlink:href="#DejaVuSans-2e"/>
       <use x="95.410156" xlink:href="#DejaVuSans-30"/>
      </g>
     </g>
    </g>
    <g id="ytick_2">
     <g id="line2d_13">
      <path clip-path="url(#p446df52dc5)" d="M 70.8 245.549929 
L 427.92 245.549929 
" style="fill:none;stroke:#b0b0b0;stroke-linecap:square;stroke-width:0.8;"/>
     </g>
     <g id="line2d_14">
      <g>
       <use style="stroke:#000000;stroke-width:0.8;" x="70.8" xlink:href="#m4bdf1b2b91" y="245.549929"/>
      </g>
     </g>
     <g id="text_8">
      <!-- 0.2 -->
      <g transform="translate(31.99375 253.148367)scale(0.2 -0.2)">
       <use xlink:href="#DejaVuSans-30"/>
       <use x="63.623047" xlink:href="#DejaVuSans-2e"/>
       <use x="95.410156" xlink:href="#DejaVuSans-32"/>
      </g>
     </g>
    </g>
    <g id="ytick_3">
     <g id="line2d_15">
      <path clip-path="url(#p446df52dc5)" d="M 70.8 192.854484 
L 427.92 192.854484 
" style="fill:none;stroke:#b0b0b0;stroke-linecap:square;stroke-width:0.8;"/>
     </g>
     <g id="line2d_16">
      <g>
       <use style="stroke:#000000;stroke-width:0.8;" x="70.8" xlink:href="#m4bdf1b2b91" y="192.854484"/>
      </g>
     </g>
     <g id="text_9">
      <!-- 0.4 -->
      <g transform="translate(31.99375 200.452921)scale(0.2 -0.2)">
       <use xlink:href="#DejaVuSans-30"/>
       <use x="63.623047" xlink:href="#DejaVuSans-2e"/>
       <use x="95.410156" xlink:href="#DejaVuSans-34"/>
      </g>
     </g>
    </g>
    <g id="ytick_4">
     <g id="line2d_17">
      <path clip-path="url(#p446df52dc5)" d="M 70.8 140.159038 
L 427.92 140.159038 
" style="fill:none;stroke:#b0b0b0;stroke-linecap:square;stroke-width:0.8;"/>
     </g>
     <g id="line2d_18">
      <g>
       <use style="stroke:#000000;stroke-width:0.8;" x="70.8" xlink:href="#m4bdf1b2b91" y="140.159038"/>
      </g>
     </g>
     <g id="text_10">
      <!-- 0.6 -->
      <g transform="translate(31.99375 147.757476)scale(0.2 -0.2)">
       <use xlink:href="#DejaVuSans-30"/>
       <use x="63.623047" xlink:href="#DejaVuSans-2e"/>
       <use x="95.410156" xlink:href="#DejaVuSans-36"/>
      </g>
     </g>
    </g>
    <g id="ytick_5">
     <g id="line2d_19">
      <path clip-path="url(#p446df52dc5)" d="M 70.8 87.463593 
L 427.92 87.463593 
" style="fill:none;stroke:#b0b0b0;stroke-linecap:square;stroke-width:0.8;"/>
     </g>
     <g id="line2d_20">
      <g>
       <use style="stroke:#000000;stroke-width:0.8;" x="70.8" xlink:href="#m4bdf1b2b91" y="87.463593"/>
      </g>
     </g>
     <g id="text_11">
      <!-- 0.8 -->
      <g transform="translate(31.99375 95.06203)scale(0.2 -0.2)">
       <use xlink:href="#DejaVuSans-30"/>
       <use x="63.623047" xlink:href="#DejaVuSans-2e"/>
       <use x="95.410156" xlink:href="#DejaVuSans-38"/>
      </g>
     </g>
    </g>
    <g id="ytick_6">
     <g id="line2d_21">
      <path clip-path="url(#p446df52dc5)" d="M 70.8 34.768147 
L 427.92 34.768147 
" style="fill:none;stroke:#b0b0b0;stroke-linecap:square;stroke-width:0.8;"/>
     </g>
     <g id="line2d_22">
      <g>
       <use style="stroke:#000000;stroke-width:0.8;" x="70.8" xlink:href="#m4bdf1b2b91" y="34.768147"/>
      </g>
     </g>
     <g id="text_12">
      <!-- 1.0 -->
      <g transform="translate(31.99375 42.366585)scale(0.2 -0.2)">
       <use xlink:href="#DejaVuSans-31"/>
       <use x="63.623047" xlink:href="#DejaVuSans-2e"/>
       <use x="95.410156" xlink:href="#DejaVuSans-30"/>
      </g>
     </g>
    </g>
    <g id="text_13">
     <!-- Proportion of function+target pairs -->
     <defs>
      <path d="M 19.671875 64.796875 
L 19.671875 37.40625 
L 32.078125 37.40625 
Q 38.96875 37.40625 42.71875 40.96875 
Q 46.484375 44.53125 46.484375 51.125 
Q 46.484375 57.671875 42.71875 61.234375 
Q 38.96875 64.796875 32.078125 64.796875 
z
M 9.8125 72.90625 
L 32.078125 72.90625 
Q 44.34375 72.90625 50.609375 67.359375 
Q 56.890625 61.8125 56.890625 51.125 
Q 56.890625 40.328125 50.609375 34.8125 
Q 44.34375 29.296875 32.078125 29.296875 
L 19.671875 29.296875 
L 19.671875 0 
L 9.8125 0 
z
" id="DejaVuSans-50"/>
      <path d="M 41.109375 46.296875 
Q 39.59375 47.171875 37.8125 47.578125 
Q 36.03125 48 33.890625 48 
Q 26.265625 48 22.1875 43.046875 
Q 18.109375 38.09375 18.109375 28.8125 
L 18.109375 0 
L 9.078125 0 
L 9.078125 54.6875 
L 18.109375 54.6875 
L 18.109375 46.1875 
Q 20.953125 51.171875 25.484375 53.578125 
Q 30.03125 56 36.53125 56 
Q 37.453125 56 38.578125 55.875 
Q 39.703125 55.765625 41.0625 55.515625 
z
" id="DejaVuSans-72"/>
      <path d="M 18.109375 8.203125 
L 18.109375 -20.796875 
L 9.078125 -20.796875 
L 9.078125 54.6875 
L 18.109375 54.6875 
L 18.109375 46.390625 
Q 20.953125 51.265625 25.265625 53.625 
Q 29.59375 56 35.59375 56 
Q 45.5625 56 51.78125 48.09375 
Q 58.015625 40.1875 58.015625 27.296875 
Q 58.015625 14.40625 51.78125 6.484375 
Q 45.5625 -1.421875 35.59375 -1.421875 
Q 29.59375 -1.421875 25.265625 0.953125 
Q 20.953125 3.328125 18.109375 8.203125 
z
M 48.6875 27.296875 
Q 48.6875 37.203125 44.609375 42.84375 
Q 40.53125 48.484375 33.40625 48.484375 
Q 26.265625 48.484375 22.1875 42.84375 
Q 18.109375 37.203125 18.109375 27.296875 
Q 18.109375 17.390625 22.1875 11.75 
Q 26.265625 6.109375 33.40625 6.109375 
Q 40.53125 6.109375 44.609375 11.75 
Q 48.6875 17.390625 48.6875 27.296875 
z
" id="DejaVuSans-70"/>
      <path d="M 18.3125 70.21875 
L 18.3125 54.6875 
L 36.8125 54.6875 
L 36.8125 47.703125 
L 18.3125 47.703125 
L 18.3125 18.015625 
Q 18.3125 11.328125 20.140625 9.421875 
Q 21.96875 7.515625 27.59375 7.515625 
L 36.8125 7.515625 
L 36.8125 0 
L 27.59375 0 
Q 17.1875 0 13.234375 3.875 
Q 9.28125 7.765625 9.28125 18.015625 
L 9.28125 47.703125 
L 2.6875 47.703125 
L 2.6875 54.6875 
L 9.28125 54.6875 
L 9.28125 70.21875 
z
" id="DejaVuSans-74"/>
      <path d="M 8.5 21.578125 
L 8.5 54.6875 
L 17.484375 54.6875 
L 17.484375 21.921875 
Q 17.484375 14.15625 20.5 10.265625 
Q 23.53125 6.390625 29.59375 6.390625 
Q 36.859375 6.390625 41.078125 11.03125 
Q 45.3125 15.671875 45.3125 23.6875 
L 45.3125 54.6875 
L 54.296875 54.6875 
L 54.296875 0 
L 45.3125 0 
L 45.3125 8.40625 
Q 42.046875 3.421875 37.71875 1 
Q 33.40625 -1.421875 27.6875 -1.421875 
Q 18.265625 -1.421875 13.375 4.4375 
Q 8.5 10.296875 8.5 21.578125 
z
M 31.109375 56 
z
" id="DejaVuSans-75"/>
      <path d="M 48.78125 52.59375 
L 48.78125 44.1875 
Q 44.96875 46.296875 41.140625 47.34375 
Q 37.3125 48.390625 33.40625 48.390625 
Q 24.65625 48.390625 19.8125 42.84375 
Q 14.984375 37.3125 14.984375 27.296875 
Q 14.984375 17.28125 19.8125 11.734375 
Q 24.65625 6.203125 33.40625 6.203125 
Q 37.3125 6.203125 41.140625 7.25 
Q 44.96875 8.296875 48.78125 10.40625 
L 48.78125 2.09375 
Q 45.015625 0.34375 40.984375 -0.53125 
Q 36.96875 -1.421875 32.421875 -1.421875 
Q 20.0625 -1.421875 12.78125 6.34375 
Q 5.515625 14.109375 5.515625 27.296875 
Q 5.515625 40.671875 12.859375 48.328125 
Q 20.21875 56 33.015625 56 
Q 37.15625 56 41.109375 55.140625 
Q 45.0625 54.296875 48.78125 52.59375 
z
" id="DejaVuSans-63"/>
     </defs>
     <g transform="translate(24.250312 323.17875)rotate(-90)scale(0.18 -0.18)">
      <use xlink:href="#DejaVuSans-50"/>
      <use x="60.287109" xlink:href="#DejaVuSans-72"/>
      <use x="101.369141" xlink:href="#DejaVuSans-6f"/>
      <use x="162.550781" xlink:href="#DejaVuSans-70"/>
      <use x="226.027344" xlink:href="#DejaVuSans-6f"/>
      <use x="287.208984" xlink:href="#DejaVuSans-72"/>
      <use x="328.322266" xlink:href="#DejaVuSans-74"/>
      <use x="367.53125" xlink:href="#DejaVuSans-69"/>
      <use x="395.314453" xlink:href="#DejaVuSans-6f"/>
      <use x="456.496094" xlink:href="#DejaVuSans-6e"/>
      <use x="519.875" xlink:href="#DejaVuSans-20"/>
      <use x="551.662109" xlink:href="#DejaVuSans-6f"/>
      <use x="612.84375" xlink:href="#DejaVuSans-66"/>
      <use x="648.048828" xlink:href="#DejaVuSans-20"/>
      <use x="679.835938" xlink:href="#DejaVuSans-66"/>
      <use x="715.041016" xlink:href="#DejaVuSans-75"/>
      <use x="778.419922" xlink:href="#DejaVuSans-6e"/>
      <use x="841.798828" xlink:href="#DejaVuSans-63"/>
      <use x="896.779297" xlink:href="#DejaVuSans-74"/>
      <use x="935.988281" xlink:href="#DejaVuSans-69"/>
      <use x="963.771484" xlink:href="#DejaVuSans-6f"/>
      <use x="1024.953125" xlink:href="#DejaVuSans-6e"/>
      <use x="1088.332031" xlink:href="#DejaVuSans-2b"/>
      <use x="1172.121094" xlink:href="#DejaVuSans-74"/>
      <use x="1211.330078" xlink:href="#DejaVuSans-61"/>
      <use x="1272.609375" xlink:href="#DejaVuSans-72"/>
      <use x="1313.707031" xlink:href="#DejaVuSans-67"/>
      <use x="1377.183594" xlink:href="#DejaVuSans-65"/>
      <use x="1438.707031" xlink:href="#DejaVuSans-74"/>
      <use x="1477.916016" xlink:href="#DejaVuSans-20"/>
      <use x="1509.703125" xlink:href="#DejaVuSans-70"/>
      <use x="1573.179688" xlink:href="#DejaVuSans-61"/>
      <use x="1634.458984" xlink:href="#DejaVuSans-69"/>
      <use x="1662.242188" xlink:href="#DejaVuSans-72"/>
      <use x="1703.355469" xlink:href="#DejaVuSans-73"/>
     </g>
    </g>
   </g>
   <g id="line2d_23">
    <defs>
     <path d="M 0 1.5 
C 0.397805 1.5 0.77937 1.341951 1.06066 1.06066 
C 1.341951 0.77937 1.5 0.397805 1.5 0 
C 1.5 -0.397805 1.341951 -0.77937 1.06066 -1.06066 
C 0.77937 -1.341951 0.397805 -1.5 0 -1.5 
C -0.397805 -1.5 -0.77937 -1.341951 -1.06066 -1.06066 
C -1.341951 -0.77937 -1.5 -0.397805 -1.5 0 
C -1.5 0.397805 -1.341951 0.77937 -1.06066 1.06066 
C -0.77937 1.341951 -0.397805 1.5 0 1.5 
z
" id="mdb154dbead" style="stroke:#000080;"/>
    </defs>
    <g>
     <use style="fill:#000080;stroke:#000080;" x="245.103247" xlink:href="#mdb154dbead" y="34.768147"/>
     <use style="fill:#000080;stroke:#000080;" x="245.103247" xlink:href="#mdb154dbead" y="34.768147"/>
    </g>
   </g>
   <g id="line2d_24">
    <path d="M 123.095319 298.245375 
L 123.095319 288.946179 
L 124.913984 288.946179 
L 124.913984 287.912935 
L 127.082473 287.912935 
L 127.082473 283.263337 
L 127.585834 283.263337 
L 127.585834 279.646982 
L 128.075402 279.646982 
L 128.075402 278.613738 
L 128.551913 278.613738 
L 128.551913 275.514006 
L 129.016046 275.514006 
L 129.016046 274.480762 
L 129.909638 274.480762 
L 129.909638 273.447518 
L 130.760662 273.447518 
L 130.760662 270.864408 
L 131.171441 270.864408 
L 131.171441 269.314542 
L 131.572989 269.314542 
L 131.572989 268.281298 
L 132.726171 268.281298 
L 132.726171 267.248054 
L 133.094598 267.248054 
L 133.094598 262.081834 
L 133.455583 262.081834 
L 133.455583 252.266016 
L 133.809418 252.266016 
L 133.809418 249.682906 
L 134.156383 249.682906 
L 134.156383 246.583173 
L 134.496738 246.583173 
L 134.496738 241.416953 
L 134.830731 241.416953 
L 134.830731 237.800599 
L 135.480553 237.800599 
L 135.480553 215.069231 
L 135.796811 215.069231 
L 135.796811 211.969498 
L 136.107569 211.969498 
L 136.107569 211.452876 
L 136.413014 211.452876 
L 136.413014 193.371106 
L 136.713325 193.371106 
L 136.713325 186.65502 
L 137.008673 186.65502 
L 137.008673 175.289335 
L 137.299218 175.289335 
L 137.299218 170.123115 
L 137.585114 170.123115 
L 137.585114 163.407029 
L 137.866507 163.407029 
L 137.866507 161.857163 
L 138.416339 161.857163 
L 138.416339 161.340541 
L 138.949755 161.340541 
L 138.949755 160.307297 
L 139.210608 160.307297 
L 139.210608 159.790675 
L 139.72116 159.790675 
L 139.72116 158.757431 
L 140.460636 158.757431 
L 140.460636 157.207565 
L 140.70048 157.207565 
L 140.70048 155.141077 
L 140.937147 155.141077 
L 140.937147 154.107833 
L 141.170721 154.107833 
L 141.170721 151.008101 
L 141.40128 151.008101 
L 141.40128 150.491479 
L 142.075629 150.491479 
L 142.075629 149.974857 
L 148.8738 149.974857 
L 148.8738 148.424991 
L 149.612257 148.424991 
L 149.612257 144.808637 
L 149.899301 144.808637 
L 149.899301 144.292014 
L 150.459916 144.292014 
L 150.459916 141.192282 
L 150.733762 141.192282 
L 150.733762 138.09255 
L 151.003475 138.09255 
L 151.003475 136.542684 
L 151.136819 136.542684 
L 151.136819 135.50944 
L 151.269176 135.50944 
L 151.269176 132.409708 
L 152.906134 132.409708 
L 152.906134 131.893086 
L 153.026054 131.893086 
L 153.026054 130.859842 
L 153.497847 130.859842 
L 153.497847 124.143756 
L 153.957503 124.143756 
L 153.957503 114.327938 
L 154.515927 114.327938 
L 154.515927 113.811316 
L 155.269513 113.811316 
L 155.269513 111.744828 
L 156.589918 111.744828 
L 156.589918 107.611851 
L 157.450047 107.611851 
L 157.450047 106.578607 
L 158.091535 106.578607 
L 158.091535 104.512119 
L 158.754211 104.512119 
L 158.754211 103.478875 
L 158.926851 103.478875 
L 158.926851 102.962253 
L 159.765884 102.962253 
L 159.765884 101.929009 
L 162.496833 101.929009 
L 162.496833 93.146435 
L 162.84515 93.146435 
L 162.84515 90.563325 
L 163.220616 90.563325 
L 163.288043 83.847239 
L 166.228927 83.847239 
L 166.228927 82.813995 
L 166.455826 82.813995 
L 166.455826 78.164397 
L 170.611285 78.164397 
L 170.611285 77.647775 
L 176.252655 77.647775 
L 176.252655 76.614531 
L 176.36631 76.614531 
L 176.36631 76.097908 
L 178.981424 76.097908 
L 179.009364 72.481554 
L 180.236552 72.481554 
L 180.236552 71.964932 
L 186.160955 71.964932 
L 186.160955 71.44831 
L 186.76796 71.44831 
L 186.76796 70.931688 
L 187.081679 70.931688 
L 187.081679 70.415066 
L 187.897955 70.415066 
L 187.897955 65.765468 
L 191.705958 65.765468 
L 191.705958 65.248846 
L 192.00524 65.248846 
L 192.00524 60.599248 
L 194.293968 60.599248 
L 194.293968 59.566004 
L 195.020769 59.566004 
L 195.020769 59.049382 
L 196.354297 59.049382 
L 196.354297 58.53276 
L 197.094916 58.53276 
L 197.145577 55.433028 
L 197.698474 55.433028 
L 197.722981 52.333296 
L 201.497277 52.333296 
L 201.497277 51.816674 
L 203.765868 51.816674 
L 203.772851 49.750186 
L 205.574615 49.750186 
L 205.584082 48.20032 
L 207.040483 48.20032 
L 207.040483 47.683698 
L 208.156371 47.683698 
L 208.164564 45.61721 
L 208.475839 45.61721 
L 208.475839 45.100588 
L 211.756376 45.100588 
L 211.756376 44.583966 
L 214.173568 44.583966 
L 214.173568 44.067344 
L 214.918579 44.067344 
L 214.93541 41.484233 
L 216.665761 41.484233 
L 216.665761 40.967611 
L 217.678306 40.967611 
L 217.678306 40.450989 
L 219.981099 40.450989 
L 219.993779 39.417745 
L 221.95016 39.417745 
L 221.95016 38.901123 
L 225.960779 38.901123 
L 225.960779 38.384501 
L 226.818298 38.384501 
L 226.818298 37.867879 
L 228.762787 37.867879 
L 228.762787 37.351257 
L 230.767731 37.351257 
L 230.776976 36.318013 
L 238.953787 36.318013 
L 238.953787 35.801391 
L 243.494542 35.801391 
L 243.494542 35.284769 
L 245.103247 35.284769 
L 245.103247 34.768147 
L 358.8 34.768147 
L 358.8 34.768147 
" style="fill:none;stroke:#000080;stroke-linecap:square;stroke-width:1.5;"/>
   </g>
   <g id="line2d_25">
    <defs>
     <path d="M 0 6 
C 1.591219 6 3.117479 5.367802 4.242641 4.242641 
C 5.367802 3.117479 6 1.591219 6 0 
C 6 -1.591219 5.367802 -3.117479 4.242641 -4.242641 
C 3.117479 -5.367802 1.591219 -6 0 -6 
C -1.591219 -6 -3.117479 -5.367802 -4.242641 -4.242641 
C -5.367802 -3.117479 -6 -1.591219 -6 0 
C -6 1.591219 -5.367802 3.117479 -4.242641 4.242641 
C -3.117479 5.367802 -1.591219 6 0 6 
z
" id="m9a694deb2a" style="stroke:#000080;stroke-width:1.5;"/>
    </defs>
    <g>
     <use style="fill:none;stroke:#000080;stroke-width:1.5;" x="137.299218" xlink:href="#m9a694deb2a" y="170.123115"/>
     <use style="fill:none;stroke:#000080;stroke-width:1.5;" x="187.081679" xlink:href="#m9a694deb2a" y="70.415066"/>
     <use style="fill:none;stroke:#000080;stroke-width:1.5;" x="245.103247" xlink:href="#m9a694deb2a" y="35.284769"/>
     <use style="fill:none;stroke:#000080;stroke-width:1.5;" x="245.103247" xlink:href="#m9a694deb2a" y="34.768147"/>
     <use style="fill:none;stroke:#000080;stroke-width:1.5;" x="358.8" xlink:href="#m9a694deb2a" y="34.768147"/>
    </g>
   </g>
   <g id="line2d_26"/>
   <g id="line2d_27">
    <path clip-path="url(#p446df52dc5)" d="M 194.305833 59.566004 
" style="fill:none;stroke:#000080;stroke-linecap:square;stroke-width:1.5;"/>
    <defs>
     <path d="M -12 12 
L 12 -12 
M -12 -12 
L 12 12 
" id="m521c97ed8e" style="stroke:#000080;stroke-width:3;"/>
    </defs>
    <g clip-path="url(#p446df52dc5)">
     <use style="fill:#000080;stroke:#000080;stroke-width:3;" x="194.305833" xlink:href="#m521c97ed8e" y="59.566004"/>
    </g>
   </g>
   <g id="line2d_28">
    <defs>
     <path d="M 0 1.5 
C 0.397805 1.5 0.77937 1.341951 1.06066 1.06066 
C 1.341951 0.77937 1.5 0.397805 1.5 0 
C 1.5 -0.397805 1.341951 -0.77937 1.06066 -1.06066 
C 0.77937 -1.341951 0.397805 -1.5 0 -1.5 
C -0.397805 -1.5 -0.77937 -1.341951 -1.06066 -1.06066 
C -1.341951 -0.77937 -1.5 -0.397805 -1.5 0 
C -1.5 0.397805 -1.341951 0.77937 -1.06066 1.06066 
C -0.77937 1.341951 -0.397805 1.5 0 1.5 
z
" id="m294ebfe04f" style="stroke:#ff00ff;"/>
    </defs>
    <g>
     <use style="fill:#ff00ff;stroke:#ff00ff;" x="270.469719" xlink:href="#m294ebfe04f" y="96.762789"/>
     <use style="fill:#ff00ff;stroke:#ff00ff;" x="270.469719" xlink:href="#m294ebfe04f" y="96.762789"/>
    </g>
   </g>
   <g id="line2d_29">
    <path d="M 123.095319 298.245375 
L 123.095319 287.396313 
L 124.328091 287.396313 
L 124.328091 285.846447 
L 124.913984 285.846447 
L 124.913984 285.329825 
L 127.082473 285.329825 
L 127.082473 283.779959 
L 127.585834 283.779959 
L 127.585834 281.196849 
L 128.075402 281.196849 
L 128.075402 279.646982 
L 128.551913 279.646982 
L 128.551913 278.097116 
L 129.016046 278.097116 
L 129.016046 277.580494 
L 129.909638 277.580494 
L 129.909638 274.480762 
L 130.760662 274.480762 
L 130.760662 271.38103 
L 131.572989 271.38103 
L 131.572989 268.281298 
L 132.726171 268.281298 
L 132.726171 266.731432 
L 133.094598 266.731432 
L 133.094598 264.664944 
L 133.455583 264.664944 
L 133.455583 256.398992 
L 133.809418 256.398992 
L 133.809418 253.815882 
L 134.156383 253.815882 
L 134.156383 250.199528 
L 134.830731 250.199528 
L 134.830731 247.099796 
L 135.480553 247.099796 
L 135.480553 246.066551 
L 135.796811 246.066551 
L 135.796811 245.549929 
L 136.107569 245.549929 
L 136.107569 243.483441 
L 136.413014 243.483441 
L 136.413014 239.867087 
L 136.713325 239.867087 
L 136.713325 235.734111 
L 137.299218 235.734111 
L 137.299218 231.601135 
L 144.447791 231.601135 
L 144.447791 225.918293 
L 144.830011 225.918293 
L 144.830011 223.851805 
L 145.388435 223.851805 
L 145.388435 222.818561 
L 145.929935 222.818561 
L 145.929935 221.268695 
L 146.282027 221.268695 
L 146.282027 216.619097 
L 146.966058 216.619097 
L 146.966058 214.552609 
L 147.298497 214.552609 
L 147.298497 210.936254 
L 147.462426 210.936254 
L 147.462426 209.386388 
L 147.78584 209.386388 
L 147.78584 208.869766 
L 148.260243 208.869766 
L 148.260243 205.253412 
L 148.722375 205.253412 
L 148.722375 204.220168 
L 148.8738 204.220168 
L 148.8738 201.637058 
L 149.612257 201.637058 
L 149.612257 201.120436 
L 156.929349 201.120436 
L 156.929349 199.57057 
L 158.579887 199.57057 
L 158.579887 197.504082 
L 159.6012 197.504082 
L 159.683732 194.920972 
L 159.84766 194.920972 
L 159.84766 190.271374 
L 161.221298 190.271374 
L 161.221298 180.455556 
L 161.595122 180.455556 
L 161.595122 178.389067 
L 162.248906 178.389067 
L 162.248906 174.256091 
L 162.879611 174.256091 
L 162.879611 172.189603 
L 163.355216 172.189603 
L 163.355216 169.606493 
L 165.049085 169.606493 
L 165.049085 168.573249 
L 165.351429 168.573249 
L 165.351429 167.540005 
L 165.999108 167.540005 
L 165.999108 164.440273 
L 166.87365 164.440273 
L 166.956055 160.823919 
L 168.703857 160.823919 
L 168.703857 160.307297 
L 172.5162 160.307297 
L 172.5162 157.724187 
L 174.035761 157.724187 
L 174.035761 156.174321 
L 175.60585 156.174321 
L 175.60585 154.624455 
L 182.243826 154.624455 
L 182.243826 153.074589 
L 182.406159 153.074589 
L 182.406159 152.041345 
L 182.646927 152.041345 
L 182.646927 151.008101 
L 185.792333 151.008101 
L 185.792333 149.974857 
L 186.577049 149.974857 
L 186.577049 148.941613 
L 188.391881 148.941613 
L 188.391881 147.391747 
L 190.870486 147.391747 
L 190.970829 140.159038 
L 193.002179 140.159038 
L 193.002179 136.026062 
L 196.736209 136.026062 
L 196.736209 135.50944 
L 197.170854 135.50944 
L 197.236406 134.476196 
L 197.84015 134.476196 
L 197.84015 133.959574 
L 198.948569 133.959574 
L 198.948569 132.92633 
L 201.678761 132.92633 
L 201.678761 132.409708 
L 201.811726 132.409708 
L 201.819517 131.376464 
L 205.075313 131.376464 
L 205.123933 128.276732 
L 206.041904 128.276732 
L 206.072627 125.177 
L 207.066634 125.177 
L 207.075342 124.143756 
L 208.142707 124.143756 
L 208.229975 122.59389 
L 209.155057 122.59389 
L 209.155057 122.077268 
L 212.88148 122.077268 
L 212.902437 121.044024 
L 213.513918 121.044024 
L 213.534147 118.460914 
L 214.582396 118.460914 
L 214.582396 117.944292 
L 214.97089 117.944292 
L 214.97089 117.42767 
L 216.811086 117.42767 
L 216.811086 116.911048 
L 218.291329 116.911048 
L 218.291329 116.394426 
L 221.287945 116.394426 
L 221.287945 115.877804 
L 222.451768 115.877804 
L 222.460357 113.811316 
L 222.811426 113.811316 
L 222.839072 110.711584 
L 224.100247 110.711584 
L 224.100247 110.194961 
L 225.157339 110.194961 
L 225.157339 109.678339 
L 228.080013 109.678339 
L 228.080013 109.161717 
L 228.895067 109.161717 
L 228.916449 107.611851 
L 231.090775 107.611851 
L 231.097585 106.578607 
L 231.30892 106.578607 
L 231.329842 105.028741 
L 235.339834 105.028741 
L 235.339834 104.512119 
L 237.043552 104.512119 
L 237.05277 102.962253 
L 237.653521 102.962253 
L 237.653521 102.445631 
L 239.923252 102.445631 
L 239.923252 101.929009 
L 240.053427 101.929009 
L 240.053427 101.412387 
L 241.269601 101.412387 
L 241.269601 100.895765 
L 242.505199 100.895765 
L 242.508395 99.862521 
L 242.62625 99.862521 
L 242.62625 99.345899 
L 245.802453 99.345899 
L 245.802453 98.829277 
L 247.692221 98.829277 
L 247.692221 98.312655 
L 257.824052 98.312655 
L 257.824052 97.796033 
L 258.805444 97.796033 
L 258.805444 97.279411 
L 270.469719 97.279411 
L 270.469719 96.762789 
L 358.8 96.762789 
L 358.8 96.762789 
" style="fill:none;stroke:#ff00ff;stroke-linecap:square;stroke-width:1.5;"/>
   </g>
   <g id="line2d_30">
    <defs>
     <path d="M -0 8.485281 
L 5.091169 0 
L 0 -8.485281 
L -5.091169 -0 
z
" id="m60531f1bf5" style="stroke:#ff00ff;stroke-linejoin:miter;stroke-width:1.5;"/>
    </defs>
    <g>
     <use style="fill:none;stroke:#ff00ff;stroke-linejoin:miter;stroke-width:1.5;" x="156.929349" xlink:href="#m60531f1bf5" y="201.120436"/>
     <use style="fill:none;stroke:#ff00ff;stroke-linejoin:miter;stroke-width:1.5;" x="193.002179" xlink:href="#m60531f1bf5" y="136.026062"/>
     <use style="fill:none;stroke:#ff00ff;stroke-linejoin:miter;stroke-width:1.5;" x="270.469719" xlink:href="#m60531f1bf5" y="97.279411"/>
     <use style="fill:none;stroke:#ff00ff;stroke-linejoin:miter;stroke-width:1.5;" x="270.469719" xlink:href="#m60531f1bf5" y="96.762789"/>
     <use style="fill:none;stroke:#ff00ff;stroke-linejoin:miter;stroke-width:1.5;" x="358.8" xlink:href="#m60531f1bf5" y="96.762789"/>
    </g>
   </g>
   <g id="line2d_31"/>
   <g id="line2d_32">
    <path clip-path="url(#p446df52dc5)" d="M 194.329538 136.026062 
" style="fill:none;stroke:#ff00ff;stroke-linecap:square;stroke-width:1.5;"/>
    <defs>
     <path d="M -12 12 
L 12 -12 
M -12 -12 
L 12 12 
" id="me07440d4ab" style="stroke:#ff00ff;stroke-width:3;"/>
    </defs>
    <g clip-path="url(#p446df52dc5)">
     <use style="fill:#ff00ff;stroke:#ff00ff;stroke-width:3;" x="194.329538" xlink:href="#me07440d4ab" y="136.026062"/>
    </g>
   </g>
   <g id="line2d_33">
    <defs>
     <path d="M 0 1.5 
C 0.397805 1.5 0.77937 1.341951 1.06066 1.06066 
C 1.341951 0.77937 1.5 0.397805 1.5 0 
C 1.5 -0.397805 1.341951 -0.77937 1.06066 -1.06066 
C 0.77937 -1.341951 0.397805 -1.5 0 -1.5 
C -0.397805 -1.5 -0.77937 -1.341951 -1.06066 -1.06066 
C -1.341951 -0.77937 -1.5 -0.397805 -1.5 0 
C -1.5 0.397805 -1.341951 0.77937 -1.06066 1.06066 
C -0.77937 1.341951 -0.397805 1.5 0 1.5 
z
" id="m606e9a41b2" style="stroke:#ffa500;"/>
    </defs>
    <g>
     <use style="fill:#ffa500;stroke:#ffa500;" x="263.02054" xlink:href="#m606e9a41b2" y="163.923651"/>
     <use style="fill:#ffa500;stroke:#ffa500;" x="263.02054" xlink:href="#m606e9a41b2" y="163.923651"/>
    </g>
   </g>
   <g id="line2d_34">
    <path d="M 121.771149 298.245375 
L 121.771149 297.728753 
L 123.095319 297.728753 
L 123.095319 289.462801 
L 124.328091 289.462801 
L 124.328091 288.946179 
L 124.913984 288.946179 
L 124.913984 288.429557 
L 127.082473 288.429557 
L 127.082473 286.363069 
L 127.585834 286.363069 
L 127.585834 283.263337 
L 128.551913 283.263337 
L 128.551913 276.030628 
L 129.016046 276.030628 
L 129.016046 274.997384 
L 129.909638 274.997384 
L 129.909638 268.79792 
L 130.760662 268.79792 
L 130.760662 264.664944 
L 131.171441 264.664944 
L 131.171441 263.115078 
L 131.572989 263.115078 
L 131.572989 259.498724 
L 132.726171 259.498724 
L 132.726171 257.948858 
L 133.094598 257.948858 
L 133.094598 253.29926 
L 133.809418 253.29926 
L 133.809418 252.782638 
L 135.796811 252.782638 
L 135.796811 251.749394 
L 142.618775 251.749394 
L 142.618775 248.649662 
L 144.447791 248.649662 
L 144.447791 246.583173 
L 146.797489 246.583173 
L 146.797489 241.933575 
L 147.624865 241.933575 
L 147.624865 239.867087 
L 149.899301 239.867087 
L 149.899301 239.350465 
L 151.070271 239.350465 
L 151.070271 236.767355 
L 151.595842 236.767355 
L 151.595842 235.734111 
L 152.106394 235.734111 
L 152.106394 235.217489 
L 152.231785 235.217489 
L 152.231785 234.184245 
L 152.84587 234.184245 
L 152.84587 233.151001 
L 152.966195 233.151001 
L 152.966195 232.634379 
L 157.262453 232.634379 
L 157.262453 231.084513 
L 158.883847 231.084513 
L 158.883847 227.984781 
L 160.488738 227.984781 
L 160.488738 225.401671 
L 161.107609 225.401671 
L 161.145586 219.718829 
L 163.455505 219.718829 
L 163.455505 218.685585 
L 166.735458 218.685585 
L 166.735458 218.168963 
L 168.27631 218.168963 
L 168.27631 217.652341 
L 169.765164 217.652341 
L 169.765164 216.619097 
L 170.566559 216.619097 
L 170.566559 216.102475 
L 170.987004 216.102475 
L 170.987004 215.069231 
L 171.117747 215.069231 
L 171.117747 213.002743 
L 172.991655 213.002743 
L 172.991655 212.48612 
L 174.436899 212.48612 
L 174.436899 211.969498 
L 174.687558 211.969498 
L 174.687558 210.419632 
L 179.13456 210.419632 
L 179.13456 209.386388 
L 179.423316 209.386388 
L 179.423316 208.353144 
L 180.674266 208.353144 
L 180.674266 204.73679 
L 180.80099 204.73679 
L 180.80099 203.703546 
L 184.184565 203.703546 
L 184.184565 203.186924 
L 186.142236 203.186924 
L 186.216998 198.537326 
L 187.108315 198.537326 
L 187.108315 197.504082 
L 187.931876 197.504082 
L 187.931876 196.470838 
L 189.880432 196.470838 
L 189.880432 193.371106 
L 190.448671 193.371106 
L 190.448671 192.854484 
L 191.883412 192.854484 
L 191.883412 191.304618 
L 194.883497 191.304618 
L 194.883497 190.787996 
L 195.01507 190.787996 
L 195.032161 189.754752 
L 195.565075 189.754752 
L 195.576125 188.721508 
L 195.752004 188.721508 
L 195.806613 187.688264 
L 195.942411 187.688264 
L 195.991046 186.138398 
L 200.801869 186.138398 
L 200.801869 185.621776 
L 201.181232 185.621776 
L 201.233625 183.555288 
L 201.365937 183.555288 
L 201.365937 183.038666 
L 204.892617 183.038666 
L 204.892617 182.522044 
L 207.573301 182.522044 
L 207.573301 182.005422 
L 208.860743 182.005422 
L 208.860743 181.4888 
L 210.481441 181.4888 
L 210.481441 180.972178 
L 211.874347 180.972178 
L 211.885436 179.938934 
L 217.735929 179.938934 
L 217.735929 179.422312 
L 218.230809 179.422312 
L 218.237026 178.389067 
L 224.691373 178.389067 
L 224.691373 177.872445 
L 227.685142 177.872445 
L 227.685142 177.355823 
L 228.246736 177.355823 
L 228.24851 176.322579 
L 231.01265 176.322579 
L 231.01265 175.805957 
L 232.519998 175.805957 
L 232.519998 175.289335 
L 232.949361 175.289335 
L 232.949361 174.772713 
L 234.87501 174.772713 
L 234.895207 173.739469 
L 237.952933 173.739469 
L 237.952933 173.222847 
L 238.231177 173.222847 
L 238.248424 171.672981 
L 240.813409 171.672981 
L 240.830092 170.639737 
L 241.076318 170.639737 
L 241.076318 170.123115 
L 242.340629 170.123115 
L 242.340629 169.606493 
L 243.293822 169.606493 
L 243.293822 169.089871 
L 243.519474 169.089871 
L 243.5274 168.056627 
L 245.65802 168.056627 
L 245.65802 167.540005 
L 247.586405 167.540005 
L 247.586405 167.023383 
L 249.148899 167.023383 
L 249.149175 165.990139 
L 251.630053 165.990139 
L 251.630053 165.473517 
L 252.883146 165.473517 
L 252.883146 164.956895 
L 253.549628 164.956895 
L 253.549628 164.440273 
L 263.02054 164.440273 
L 263.02054 163.923651 
L 358.8 163.923651 
L 358.8 163.923651 
" style="fill:none;stroke:#ffa500;stroke-linecap:square;stroke-width:1.5;"/>
   </g>
   <g id="line2d_35">
    <defs>
     <path d="M 0 -6 
L -1.347084 -1.854102 
L -5.706339 -1.854102 
L -2.179628 0.708204 
L -3.526712 4.854102 
L -0 2.291796 
L 3.526712 4.854102 
L 2.179628 0.708204 
L 5.706339 -1.854102 
L 1.347084 -1.854102 
z
" id="m17d76f5f4e" style="stroke:#ffa500;stroke-linejoin:bevel;stroke-width:1.5;"/>
    </defs>
    <g>
     <use style="fill:none;stroke:#ffa500;stroke-linejoin:bevel;stroke-width:1.5;" x="179.13456" xlink:href="#m17d76f5f4e" y="209.386388"/>
     <use style="fill:none;stroke:#ffa500;stroke-linejoin:bevel;stroke-width:1.5;" x="251.630053" xlink:href="#m17d76f5f4e" y="165.473517"/>
     <use style="fill:none;stroke:#ffa500;stroke-linejoin:bevel;stroke-width:1.5;" x="263.02054" xlink:href="#m17d76f5f4e" y="163.923651"/>
     <use style="fill:none;stroke:#ffa500;stroke-linejoin:bevel;stroke-width:1.5;" x="263.02054" xlink:href="#m17d76f5f4e" y="163.923651"/>
     <use style="fill:none;stroke:#ffa500;stroke-linejoin:bevel;stroke-width:1.5;" x="358.8" xlink:href="#m17d76f5f4e" y="163.923651"/>
    </g>
   </g>
   <g id="line2d_36"/>
   <g id="line2d_37">
    <path clip-path="url(#p446df52dc5)" d="M 194.353213 191.304618 
" style="fill:none;stroke:#ffa500;stroke-linecap:square;stroke-width:1.5;"/>
    <defs>
     <path d="M -12 12 
L 12 -12 
M -12 -12 
L 12 12 
" id="m23792abbe9" style="stroke:#ffa500;stroke-width:3;"/>
    </defs>
    <g clip-path="url(#p446df52dc5)">
     <use style="fill:#ffa500;stroke:#ffa500;stroke-width:3;" x="194.353213" xlink:href="#m23792abbe9" y="191.304618"/>
    </g>
   </g>
   <g id="line2d_38">
    <defs>
     <path d="M 0 1.5 
C 0.397805 1.5 0.77937 1.341951 1.06066 1.06066 
C 1.341951 0.77937 1.5 0.397805 1.5 0 
C 1.5 -0.397805 1.341951 -0.77937 1.06066 -1.06066 
C 0.77937 -1.341951 0.397805 -1.5 0 -1.5 
C -0.397805 -1.5 -0.77937 -1.341951 -1.06066 -1.06066 
C -1.341951 -0.77937 -1.5 -0.397805 -1.5 0 
C -1.5 0.397805 -1.341951 0.77937 -1.06066 1.06066 
C -0.77937 1.341951 -0.397805 1.5 0 1.5 
z
" id="mbbfaa7c64c" style="stroke:#6495ed;"/>
    </defs>
    <g>
     <use style="fill:#6495ed;stroke:#6495ed;" x="277.001864" xlink:href="#mbbfaa7c64c" y="200.087192"/>
     <use style="fill:#6495ed;stroke:#6495ed;" x="277.001864" xlink:href="#mbbfaa7c64c" y="200.087192"/>
    </g>
   </g>
   <g id="line2d_39">
    <path d="M 121.771149 298.245375 
L 121.771149 297.728753 
L 123.095319 297.728753 
L 123.095319 288.429557 
L 127.082473 288.429557 
L 127.082473 282.230093 
L 129.909638 282.230093 
L 129.909638 279.13036 
L 131.171441 279.13036 
L 131.171441 278.097116 
L 140.819206 278.097116 
L 140.819206 276.54725 
L 141.054316 276.54725 
L 141.054316 276.030628 
L 141.96499 276.030628 
L 141.96499 274.480762 
L 146.455505 274.480762 
L 146.541617 271.38103 
L 147.865787 271.38103 
L 147.865787 270.864408 
L 148.103504 270.864408 
L 148.103504 270.347786 
L 149.827972 270.347786 
L 149.827972 269.831164 
L 150.459916 269.831164 
L 150.459916 268.79792 
L 150.665693 268.79792 
L 150.665693 268.281298 
L 152.294152 268.281298 
L 152.294152 267.764676 
L 152.418237 267.764676 
L 152.418237 265.181566 
L 154.182971 265.181566 
L 154.182971 264.148322 
L 155.37462 264.148322 
L 155.37462 263.115078 
L 160.40985 263.115078 
L 160.40985 260.531968 
L 161.52098 260.531968 
L 161.52098 260.015346 
L 162.177434 260.015346 
L 162.177434 258.982102 
L 162.496833 258.982102 
L 162.496833 258.46548 
L 162.84515 258.46548 
L 162.84515 257.432236 
L 170.566559 257.432236 
L 170.566559 254.849126 
L 172.375109 254.849126 
L 172.375109 253.815882 
L 174.364631 253.815882 
L 174.364631 252.266016 
L 177.676602 252.266016 
L 177.691636 250.71615 
L 177.900797 250.71615 
L 177.900797 250.199528 
L 181.360386 250.199528 
L 181.360386 248.649662 
L 182.692422 248.649662 
L 182.760447 245.033307 
L 186.640913 245.033307 
L 186.640913 244.516685 
L 187.965733 244.516685 
L 187.965733 242.966819 
L 189.473186 242.966819 
L 189.473186 241.416953 
L 192.072566 241.416953 
L 192.072566 238.317221 
L 194.634883 238.317221 
L 194.727795 236.767355 
L 196.104017 236.767355 
L 196.200283 235.734111 
L 196.221606 235.734111 
L 196.317243 234.700867 
L 196.359584 234.700867 
L 196.359584 234.184245 
L 197.044111 234.184245 
L 197.044111 233.151001 
L 199.444687 233.151001 
L 199.449134 232.117757 
L 200.321346 232.117757 
L 200.384761 230.567891 
L 201.429738 230.567891 
L 201.437697 229.534647 
L 201.889482 229.534647 
L 201.889482 229.018025 
L 205.669056 229.018025 
L 205.669056 228.501403 
L 209.178291 228.501403 
L 209.178291 227.984781 
L 209.490294 227.984781 
L 209.490294 227.468159 
L 209.997668 227.468159 
L 210.032134 226.434915 
L 212.683272 226.434915 
L 212.721397 224.885049 
L 216.175533 224.885049 
L 216.175533 224.368427 
L 216.696276 224.368427 
L 216.696276 223.851805 
L 216.890011 223.851805 
L 216.890011 223.335183 
L 218.05115 223.335183 
L 218.073118 222.301939 
L 218.198136 222.301939 
L 218.212146 221.268695 
L 218.624376 221.268695 
L 218.627416 220.235451 
L 220.438871 220.235451 
L 220.438871 219.718829 
L 220.800597 219.718829 
L 220.800597 219.202207 
L 221.22627 219.202207 
L 221.22627 218.685585 
L 222.264226 218.685585 
L 222.370577 217.135719 
L 222.725814 217.135719 
L 222.725814 216.619097 
L 224.161697 216.619097 
L 224.17842 215.585853 
L 224.541321 215.585853 
L 224.541321 215.069231 
L 225.326378 215.069231 
L 225.326378 214.552609 
L 225.730363 214.552609 
L 225.781371 211.969498 
L 226.042284 211.969498 
L 226.042284 211.452876 
L 227.244778 211.452876 
L 227.244778 210.936254 
L 228.556407 210.936254 
L 228.617355 209.90301 
L 228.833344 209.90301 
L 228.871089 207.836522 
L 233.190542 207.836522 
L 233.243624 206.286656 
L 233.421869 206.286656 
L 233.421869 205.770034 
L 236.893767 205.770034 
L 236.893767 205.253412 
L 237.725191 205.253412 
L 237.725191 204.73679 
L 241.275594 204.73679 
L 241.275594 204.220168 
L 243.108985 204.220168 
L 243.116708 203.186924 
L 243.698266 203.186924 
L 243.698266 202.670302 
L 248.615967 202.670302 
L 248.615967 202.15368 
L 249.53532 202.15368 
L 249.53532 201.637058 
L 253.148722 201.637058 
L 253.148722 201.120436 
L 256.746937 201.120436 
L 256.746937 200.603814 
L 277.001864 200.603814 
L 277.001864 200.087192 
L 358.8 200.087192 
L 358.8 200.087192 
" style="fill:none;stroke:#6495ed;stroke-linecap:square;stroke-width:1.5;"/>
   </g>
   <g id="line2d_40">
    <defs>
     <path d="M -0 6 
L 6 -6 
L -6 -6 
z
" id="m1f46c7839f" style="stroke:#6495ed;stroke-linejoin:miter;stroke-width:1.5;"/>
    </defs>
    <g>
     <use style="fill:none;stroke:#6495ed;stroke-linejoin:miter;stroke-width:1.5;" x="162.177434" xlink:href="#m1f46c7839f" y="260.015346"/>
     <use style="fill:none;stroke:#6495ed;stroke-linejoin:miter;stroke-width:1.5;" x="212.721397" xlink:href="#m1f46c7839f" y="224.885049"/>
     <use style="fill:none;stroke:#6495ed;stroke-linejoin:miter;stroke-width:1.5;" x="277.001864" xlink:href="#m1f46c7839f" y="200.603814"/>
     <use style="fill:none;stroke:#6495ed;stroke-linejoin:miter;stroke-width:1.5;" x="277.001864" xlink:href="#m1f46c7839f" y="200.087192"/>
     <use style="fill:none;stroke:#6495ed;stroke-linejoin:miter;stroke-width:1.5;" x="358.8" xlink:href="#m1f46c7839f" y="200.087192"/>
    </g>
   </g>
   <g id="line2d_41"/>
   <g id="line2d_42">
    <path clip-path="url(#p446df52dc5)" d="M 194.406365 238.317221 
" style="fill:none;stroke:#6495ed;stroke-linecap:square;stroke-width:1.5;"/>
    <defs>
     <path d="M -12 12 
L 12 -12 
M -12 -12 
L 12 12 
" id="ma9acbe6674" style="stroke:#6495ed;stroke-width:3;"/>
    </defs>
    <g clip-path="url(#p446df52dc5)">
     <use style="fill:#6495ed;stroke:#6495ed;stroke-width:3;" x="194.406365" xlink:href="#ma9acbe6674" y="238.317221"/>
    </g>
   </g>
   <g id="line2d_43">
    <path d="M 358.8 200.087192 
L 390.48 292.97583 
" style="fill:none;stroke:#6495ed;stroke-linecap:square;stroke-width:1.5;"/>
    <g>
     <use style="fill:none;stroke:#6495ed;stroke-linejoin:miter;stroke-width:1.5;" x="358.8" xlink:href="#m1f46c7839f" y="200.087192"/>
     <use style="fill:none;stroke:#6495ed;stroke-linejoin:miter;stroke-width:1.5;" x="390.48" xlink:href="#m1f46c7839f" y="292.97583"/>
    </g>
   </g>
   <g id="line2d_44">
    <path d="M 358.8 163.923651 
L 390.48 208.663118 
" style="fill:none;stroke:#ffa500;stroke-linecap:square;stroke-width:1.5;"/>
    <g>
     <use style="fill:none;stroke:#ffa500;stroke-linejoin:bevel;stroke-width:1.5;" x="358.8" xlink:href="#m17d76f5f4e" y="163.923651"/>
     <use style="fill:none;stroke:#ffa500;stroke-linejoin:bevel;stroke-width:1.5;" x="390.48" xlink:href="#m17d76f5f4e" y="208.663118"/>
    </g>
   </g>
   <g id="line2d_45">
    <path d="M 358.8 96.762789 
L 390.48 124.350405 
" style="fill:none;stroke:#ff00ff;stroke-linecap:square;stroke-width:1.5;"/>
    <g>
     <use style="fill:none;stroke:#ff00ff;stroke-linejoin:miter;stroke-width:1.5;" x="358.8" xlink:href="#m60531f1bf5" y="96.762789"/>
     <use style="fill:none;stroke:#ff00ff;stroke-linejoin:miter;stroke-width:1.5;" x="390.48" xlink:href="#m60531f1bf5" y="124.350405"/>
    </g>
   </g>
   <g id="line2d_46">
    <path d="M 358.8 34.768147 
L 390.48 40.037692 
" style="fill:none;stroke:#000080;stroke-linecap:square;stroke-width:1.5;"/>
    <g>
     <use style="fill:none;stroke:#000080;stroke-width:1.5;" x="358.8" xlink:href="#m9a694deb2a" y="34.768147"/>
     <use style="fill:none;stroke:#000080;stroke-width:1.5;" x="390.48" xlink:href="#m9a694deb2a" y="40.037692"/>
    </g>
   </g>
   <g id="line2d_47">
    <path d="M 358.8 298.245375 
L 358.8 34.768147 
" style="fill:none;stroke:#000000;stroke-linecap:square;stroke-width:1.5;"/>
   </g>
   <g id="patch_3">
    <path d="M 70.8 298.245375 
L 70.8 32.133375 
" style="fill:none;stroke:#000000;stroke-linecap:square;stroke-linejoin:miter;stroke-width:0.8;"/>
   </g>
   <g id="patch_4">
    <path d="M 427.92 298.245375 
L 427.92 32.133375 
" style="fill:none;stroke:#000000;stroke-linecap:square;stroke-linejoin:miter;stroke-width:0.8;"/>
   </g>
   <g id="patch_5">
    <path d="M 70.8 298.245375 
L 427.92 298.245375 
" style="fill:none;stroke:#000000;stroke-linecap:square;stroke-linejoin:miter;stroke-width:0.8;"/>
   </g>
   <g id="patch_6">
    <path d="M 70.8 32.133375 
L 427.92 32.133375 
" style="fill:none;stroke:#000000;stroke-linecap:square;stroke-linejoin:miter;stroke-width:0.8;"/>
   </g>
   <g id="text_14">
    <!-- cob-1e-5 o -->
    <defs>
     <path d="M 48.6875 27.296875 
Q 48.6875 37.203125 44.609375 42.84375 
Q 40.53125 48.484375 33.40625 48.484375 
Q 26.265625 48.484375 22.1875 42.84375 
Q 18.109375 37.203125 18.109375 27.296875 
Q 18.109375 17.390625 22.1875 11.75 
Q 26.265625 6.109375 33.40625 6.109375 
Q 40.53125 6.109375 44.609375 11.75 
Q 48.6875 17.390625 48.6875 27.296875 
z
M 18.109375 46.390625 
Q 20.953125 51.265625 25.265625 53.625 
Q 29.59375 56 35.59375 56 
Q 45.5625 56 51.78125 48.09375 
Q 58.015625 40.1875 58.015625 27.296875 
Q 58.015625 14.40625 51.78125 6.484375 
Q 45.5625 -1.421875 35.59375 -1.421875 
Q 29.59375 -1.421875 25.265625 0.953125 
Q 20.953125 3.328125 18.109375 8.203125 
L 18.109375 0 
L 9.078125 0 
L 9.078125 75.984375 
L 18.109375 75.984375 
z
" id="DejaVuSans-62"/>
     <path d="M 10.796875 72.90625 
L 49.515625 72.90625 
L 49.515625 64.59375 
L 19.828125 64.59375 
L 19.828125 46.734375 
Q 21.96875 47.46875 24.109375 47.828125 
Q 26.265625 48.1875 28.421875 48.1875 
Q 40.625 48.1875 47.75 41.5 
Q 54.890625 34.8125 54.890625 23.390625 
Q 54.890625 11.625 47.5625 5.09375 
Q 40.234375 -1.421875 26.90625 -1.421875 
Q 22.3125 -1.421875 17.546875 -0.640625 
Q 12.796875 0.140625 7.71875 1.703125 
L 7.71875 11.625 
Q 12.109375 9.234375 16.796875 8.0625 
Q 21.484375 6.890625 26.703125 6.890625 
Q 35.15625 6.890625 40.078125 11.328125 
Q 45.015625 15.765625 45.015625 23.390625 
Q 45.015625 31 40.078125 35.4375 
Q 35.15625 39.890625 26.703125 39.890625 
Q 22.75 39.890625 18.8125 39.015625 
Q 14.890625 38.140625 10.796875 36.28125 
z
" id="DejaVuSans-35"/>
    </defs>
    <g transform="translate(396.24 297.114893)scale(0.15 -0.15)">
     <use xlink:href="#DejaVuSans-63"/>
     <use x="54.980469" xlink:href="#DejaVuSans-6f"/>
     <use x="116.162109" xlink:href="#DejaVuSans-62"/>
     <use x="179.638672" xlink:href="#DejaVuSans-2d"/>
     <use x="215.722656" xlink:href="#DejaVuSans-31"/>
     <use x="279.345703" xlink:href="#DejaVuSans-65"/>
     <use x="340.869141" xlink:href="#DejaVuSans-2d"/>
     <use x="376.953125" xlink:href="#DejaVuSans-35"/>
     <use x="440.576172" xlink:href="#DejaVuSans-20"/>
     <use x="472.363281" xlink:href="#DejaVuSans-6f"/>
    </g>
   </g>
   <g id="text_15">
    <!-- cob-1e-7 o -->
    <defs>
     <path d="M 8.203125 72.90625 
L 55.078125 72.90625 
L 55.078125 68.703125 
L 28.609375 0 
L 18.3125 0 
L 43.21875 64.59375 
L 8.203125 64.59375 
z
" id="DejaVuSans-37"/>
    </defs>
    <g transform="translate(396.24 212.80218)scale(0.15 -0.15)">
     <use xlink:href="#DejaVuSans-63"/>
     <use x="54.980469" xlink:href="#DejaVuSans-6f"/>
     <use x="116.162109" xlink:href="#DejaVuSans-62"/>
     <use x="179.638672" xlink:href="#DejaVuSans-2d"/>
     <use x="215.722656" xlink:href="#DejaVuSans-31"/>
     <use x="279.345703" xlink:href="#DejaVuSans-65"/>
     <use x="340.869141" xlink:href="#DejaVuSans-2d"/>
     <use x="376.953125" xlink:href="#DejaVuSans-37"/>
     <use x="440.576172" xlink:href="#DejaVuSans-20"/>
     <use x="472.363281" xlink:href="#DejaVuSans-6f"/>
    </g>
   </g>
   <g id="text_16">
    <!-- cob-1e-9 o -->
    <defs>
     <path d="M 10.984375 1.515625 
L 10.984375 10.5 
Q 14.703125 8.734375 18.5 7.8125 
Q 22.3125 6.890625 25.984375 6.890625 
Q 35.75 6.890625 40.890625 13.453125 
Q 46.046875 20.015625 46.78125 33.40625 
Q 43.953125 29.203125 39.59375 26.953125 
Q 35.25 24.703125 29.984375 24.703125 
Q 19.046875 24.703125 12.671875 31.3125 
Q 6.296875 37.9375 6.296875 49.421875 
Q 6.296875 60.640625 12.9375 67.421875 
Q 19.578125 74.21875 30.609375 74.21875 
Q 43.265625 74.21875 49.921875 64.515625 
Q 56.59375 54.828125 56.59375 36.375 
Q 56.59375 19.140625 48.40625 8.859375 
Q 40.234375 -1.421875 26.421875 -1.421875 
Q 22.703125 -1.421875 18.890625 -0.6875 
Q 15.09375 0.046875 10.984375 1.515625 
z
M 30.609375 32.421875 
Q 37.25 32.421875 41.125 36.953125 
Q 45.015625 41.5 45.015625 49.421875 
Q 45.015625 57.28125 41.125 61.84375 
Q 37.25 66.40625 30.609375 66.40625 
Q 23.96875 66.40625 20.09375 61.84375 
Q 16.21875 57.28125 16.21875 49.421875 
Q 16.21875 41.5 20.09375 36.953125 
Q 23.96875 32.421875 30.609375 32.421875 
z
" id="DejaVuSans-39"/>
    </defs>
    <g transform="translate(396.24 128.489467)scale(0.15 -0.15)">
     <use xlink:href="#DejaVuSans-63"/>
     <use x="54.980469" xlink:href="#DejaVuSans-6f"/>
     <use x="116.162109" xlink:href="#DejaVuSans-62"/>
     <use x="179.638672" xlink:href="#DejaVuSans-2d"/>
     <use x="215.722656" xlink:href="#DejaVuSans-31"/>
     <use x="279.345703" xlink:href="#DejaVuSans-65"/>
     <use x="340.869141" xlink:href="#DejaVuSans-2d"/>
     <use x="376.953125" xlink:href="#DejaVuSans-39"/>
     <use x="440.576172" xlink:href="#DejaVuSans-20"/>
     <use x="472.363281" xlink:href="#DejaVuSans-6f"/>
    </g>
   </g>
   <g id="text_17">
    <!-- cob-1e-12  -->
    <g transform="translate(396.24 44.176754)scale(0.15 -0.15)">
     <use xlink:href="#DejaVuSans-63"/>
     <use x="54.980469" xlink:href="#DejaVuSans-6f"/>
     <use x="116.162109" xlink:href="#DejaVuSans-62"/>
     <use x="179.638672" xlink:href="#DejaVuSans-2d"/>
     <use x="215.722656" xlink:href="#DejaVuSans-31"/>
     <use x="279.345703" xlink:href="#DejaVuSans-65"/>
     <use x="340.869141" xlink:href="#DejaVuSans-2d"/>
     <use x="376.953125" xlink:href="#DejaVuSans-31"/>
     <use x="440.576172" xlink:href="#DejaVuSans-32"/>
     <use x="504.199219" xlink:href="#DejaVuSans-20"/>
    </g>
   </g>
   <g id="text_18">
    <!-- bbob-constrained - f9, 3-D -->
    <defs>
     <path d="M 11.71875 12.40625 
L 22.015625 12.40625 
L 22.015625 4 
L 14.015625 -11.625 
L 7.71875 -11.625 
L 11.71875 4 
z
" id="DejaVuSans-2c"/>
     <path d="M 40.578125 39.3125 
Q 47.65625 37.796875 51.625 33 
Q 55.609375 28.21875 55.609375 21.1875 
Q 55.609375 10.40625 48.1875 4.484375 
Q 40.765625 -1.421875 27.09375 -1.421875 
Q 22.515625 -1.421875 17.65625 -0.515625 
Q 12.796875 0.390625 7.625 2.203125 
L 7.625 11.71875 
Q 11.71875 9.328125 16.59375 8.109375 
Q 21.484375 6.890625 26.8125 6.890625 
Q 36.078125 6.890625 40.9375 10.546875 
Q 45.796875 14.203125 45.796875 21.1875 
Q 45.796875 27.640625 41.28125 31.265625 
Q 36.765625 34.90625 28.71875 34.90625 
L 20.21875 34.90625 
L 20.21875 43.015625 
L 29.109375 43.015625 
Q 36.375 43.015625 40.234375 45.921875 
Q 44.09375 48.828125 44.09375 54.296875 
Q 44.09375 59.90625 40.109375 62.90625 
Q 36.140625 65.921875 28.71875 65.921875 
Q 24.65625 65.921875 20.015625 65.03125 
Q 15.375 64.15625 9.8125 62.3125 
L 9.8125 71.09375 
Q 15.4375 72.65625 20.34375 73.4375 
Q 25.25 74.21875 29.59375 74.21875 
Q 40.828125 74.21875 47.359375 69.109375 
Q 53.90625 64.015625 53.90625 55.328125 
Q 53.90625 49.265625 50.4375 45.09375 
Q 46.96875 40.921875 40.578125 39.3125 
z
" id="DejaVuSans-33"/>
     <path d="M 19.671875 64.796875 
L 19.671875 8.109375 
L 31.59375 8.109375 
Q 46.6875 8.109375 53.6875 14.9375 
Q 60.6875 21.78125 60.6875 36.53125 
Q 60.6875 51.171875 53.6875 57.984375 
Q 46.6875 64.796875 31.59375 64.796875 
z
M 9.8125 72.90625 
L 30.078125 72.90625 
Q 51.265625 72.90625 61.171875 64.09375 
Q 71.09375 55.28125 71.09375 36.53125 
Q 71.09375 17.671875 61.125 8.828125 
Q 51.171875 0 30.078125 0 
L 9.8125 0 
z
" id="DejaVuSans-44"/>
    </defs>
    <g transform="translate(74.3712 50.114612)scale(0.1666 -0.1666)">
     <use xlink:href="#DejaVuSans-62"/>
     <use x="63.476562" xlink:href="#DejaVuSans-62"/>
     <use x="126.953125" xlink:href="#DejaVuSans-6f"/>
     <use x="188.134766" xlink:href="#DejaVuSans-62"/>
     <use x="251.611328" xlink:href="#DejaVuSans-2d"/>
     <use x="287.695312" xlink:href="#DejaVuSans-63"/>
     <use x="342.675781" xlink:href="#DejaVuSans-6f"/>
     <use x="403.857422" xlink:href="#DejaVuSans-6e"/>
     <use x="467.236328" xlink:href="#DejaVuSans-73"/>
     <use x="519.335938" xlink:href="#DejaVuSans-74"/>
     <use x="558.544922" xlink:href="#DejaVuSans-72"/>
     <use x="599.658203" xlink:href="#DejaVuSans-61"/>
     <use x="660.9375" xlink:href="#DejaVuSans-69"/>
     <use x="688.720703" xlink:href="#DejaVuSans-6e"/>
     <use x="752.099609" xlink:href="#DejaVuSans-65"/>
     <use x="813.623047" xlink:href="#DejaVuSans-64"/>
     <use x="877.099609" xlink:href="#DejaVuSans-20"/>
     <use x="908.886719" xlink:href="#DejaVuSans-2d"/>
     <use x="944.970703" xlink:href="#DejaVuSans-20"/>
     <use x="976.757812" xlink:href="#DejaVuSans-66"/>
     <use x="1011.962891" xlink:href="#DejaVuSans-39"/>
     <use x="1075.585938" xlink:href="#DejaVuSans-2c"/>
     <use x="1107.373047" xlink:href="#DejaVuSans-20"/>
     <use x="1139.160156" xlink:href="#DejaVuSans-33"/>
     <use x="1202.783203" xlink:href="#DejaVuSans-2d"/>
     <use x="1238.867188" xlink:href="#DejaVuSans-44"/>
    </g>
    <!-- 51 targets in 100..1e-08 -->
    <g transform="translate(74.3712 68.770168)scale(0.1666 -0.1666)">
     <use xlink:href="#DejaVuSans-35"/>
     <use x="63.623047" xlink:href="#DejaVuSans-31"/>
     <use x="127.246094" xlink:href="#DejaVuSans-20"/>
     <use x="159.033203" xlink:href="#DejaVuSans-74"/>
     <use x="198.242188" xlink:href="#DejaVuSans-61"/>
     <use x="259.521484" xlink:href="#DejaVuSans-72"/>
     <use x="300.619141" xlink:href="#DejaVuSans-67"/>
     <use x="364.095703" xlink:href="#DejaVuSans-65"/>
     <use x="425.619141" xlink:href="#DejaVuSans-74"/>
     <use x="464.828125" xlink:href="#DejaVuSans-73"/>
     <use x="516.927734" xlink:href="#DejaVuSans-20"/>
     <use x="548.714844" xlink:href="#DejaVuSans-69"/>
     <use x="576.498047" xlink:href="#DejaVuSans-6e"/>
     <use x="639.876953" xlink:href="#DejaVuSans-20"/>
     <use x="671.664062" xlink:href="#DejaVuSans-31"/>
     <use x="735.287109" xlink:href="#DejaVuSans-30"/>
     <use x="798.910156" xlink:href="#DejaVuSans-30"/>
     <use x="862.533203" xlink:href="#DejaVuSans-2e"/>
     <use x="894.320312" xlink:href="#DejaVuSans-2e"/>
     <use x="926.107422" xlink:href="#DejaVuSans-31"/>
     <use x="989.730469" xlink:href="#DejaVuSans-65"/>
     <use x="1051.253906" xlink:href="#DejaVuSans-2d"/>
     <use x="1087.337891" xlink:href="#DejaVuSans-30"/>
     <use x="1150.960938" xlink:href="#DejaVuSans-38"/>
    </g>
    <!-- 15 instances -->
    <g transform="translate(74.3712 87.425723)scale(0.1666 -0.1666)">
     <use xlink:href="#DejaVuSans-31"/>
     <use x="63.623047" xlink:href="#DejaVuSans-35"/>
     <use x="127.246094" xlink:href="#DejaVuSans-20"/>
     <use x="159.033203" xlink:href="#DejaVuSans-69"/>
     <use x="186.816406" xlink:href="#DejaVuSans-6e"/>
     <use x="250.195312" xlink:href="#DejaVuSans-73"/>
     <use x="302.294922" xlink:href="#DejaVuSans-74"/>
     <use x="341.503906" xlink:href="#DejaVuSans-61"/>
     <use x="402.783203" xlink:href="#DejaVuSans-6e"/>
     <use x="466.162109" xlink:href="#DejaVuSans-63"/>
     <use x="521.142578" xlink:href="#DejaVuSans-65"/>
     <use x="582.666016" xlink:href="#DejaVuSans-73"/>
    </g>
   </g>
   <g id="text_19">
    <!-- v2.0.312 -->
    <g style="fill:#808080;" transform="translate(227.31625 293.504568)scale(0.1 -0.1)">
     <use xlink:href="#DejaVuSans-76"/>
     <use x="59.179688" xlink:href="#DejaVuSans-32"/>
     <use x="122.802734" xlink:href="#DejaVuSans-2e"/>
     <use x="154.589844" xlink:href="#DejaVuSans-30"/>
     <use x="218.212891" xlink:href="#DejaVuSans-2e"/>
     <use x="250" xlink:href="#DejaVuSans-33"/>
     <use x="313.623047" xlink:href="#DejaVuSans-31"/>
     <use x="377.246094" xlink:href="#DejaVuSans-32"/>
    </g>
   </g>
   <g id="text_20">
    <!-- 9 Sep. Ellipsoid with 10 constraints -->
    <defs>
     <path d="M 53.515625 70.515625 
L 53.515625 60.890625 
Q 47.90625 63.578125 42.921875 64.890625 
Q 37.9375 66.21875 33.296875 66.21875 
Q 25.25 66.21875 20.875 63.09375 
Q 16.5 59.96875 16.5 54.203125 
Q 16.5 49.359375 19.40625 46.890625 
Q 22.3125 44.4375 30.421875 42.921875 
L 36.375 41.703125 
Q 47.40625 39.59375 52.65625 34.296875 
Q 57.90625 29 57.90625 20.125 
Q 57.90625 9.515625 50.796875 4.046875 
Q 43.703125 -1.421875 29.984375 -1.421875 
Q 24.8125 -1.421875 18.96875 -0.25 
Q 13.140625 0.921875 6.890625 3.21875 
L 6.890625 13.375 
Q 12.890625 10.015625 18.65625 8.296875 
Q 24.421875 6.59375 29.984375 6.59375 
Q 38.421875 6.59375 43.015625 9.90625 
Q 47.609375 13.234375 47.609375 19.390625 
Q 47.609375 24.75 44.3125 27.78125 
Q 41.015625 30.8125 33.5 32.328125 
L 27.484375 33.5 
Q 16.453125 35.6875 11.515625 40.375 
Q 6.59375 45.0625 6.59375 53.421875 
Q 6.59375 63.09375 13.40625 68.65625 
Q 20.21875 74.21875 32.171875 74.21875 
Q 37.3125 74.21875 42.625 73.28125 
Q 47.953125 72.359375 53.515625 70.515625 
z
" id="DejaVuSans-53"/>
     <path d="M 9.8125 72.90625 
L 55.90625 72.90625 
L 55.90625 64.59375 
L 19.671875 64.59375 
L 19.671875 43.015625 
L 54.390625 43.015625 
L 54.390625 34.71875 
L 19.671875 34.71875 
L 19.671875 8.296875 
L 56.78125 8.296875 
L 56.78125 0 
L 9.8125 0 
z
" id="DejaVuSans-45"/>
     <path d="M 4.203125 54.6875 
L 13.1875 54.6875 
L 24.421875 12.015625 
L 35.59375 54.6875 
L 46.1875 54.6875 
L 57.421875 12.015625 
L 68.609375 54.6875 
L 77.59375 54.6875 
L 63.28125 0 
L 52.6875 0 
L 40.921875 44.828125 
L 29.109375 0 
L 18.5 0 
z
" id="DejaVuSans-77"/>
     <path d="M 54.890625 33.015625 
L 54.890625 0 
L 45.90625 0 
L 45.90625 32.71875 
Q 45.90625 40.484375 42.875 44.328125 
Q 39.84375 48.1875 33.796875 48.1875 
Q 26.515625 48.1875 22.3125 43.546875 
Q 18.109375 38.921875 18.109375 30.90625 
L 18.109375 0 
L 9.078125 0 
L 9.078125 75.984375 
L 18.109375 75.984375 
L 18.109375 46.1875 
Q 21.34375 51.125 25.703125 53.5625 
Q 30.078125 56 35.796875 56 
Q 45.21875 56 50.046875 50.171875 
Q 54.890625 44.34375 54.890625 33.015625 
z
" id="DejaVuSans-68"/>
    </defs>
    <g transform="translate(39.065625 26.133375)scale(0.24 -0.24)">
     <use xlink:href="#DejaVuSans-39"/>
     <use x="63.623047" xlink:href="#DejaVuSans-20"/>
     <use x="95.410156" xlink:href="#DejaVuSans-53"/>
     <use x="158.886719" xlink:href="#DejaVuSans-65"/>
     <use x="220.410156" xlink:href="#DejaVuSans-70"/>
     <use x="283.886719" xlink:href="#DejaVuSans-2e"/>
     <use x="315.673828" xlink:href="#DejaVuSans-20"/>
     <use x="347.460938" xlink:href="#DejaVuSans-45"/>
     <use x="410.644531" xlink:href="#DejaVuSans-6c"/>
     <use x="438.427734" xlink:href="#DejaVuSans-6c"/>
     <use x="466.210938" xlink:href="#DejaVuSans-69"/>
     <use x="493.994141" xlink:href="#DejaVuSans-70"/>
     <use x="557.470703" xlink:href="#DejaVuSans-73"/>
     <use x="609.570312" xlink:href="#DejaVuSans-6f"/>
     <use x="670.751953" xlink:href="#DejaVuSans-69"/>
     <use x="698.535156" xlink:href="#DejaVuSans-64"/>
     <use x="762.011719" xlink:href="#DejaVuSans-20"/>
     <use x="793.798828" xlink:href="#DejaVuSans-77"/>
     <use x="875.585938" xlink:href="#DejaVuSans-69"/>
     <use x="903.369141" xlink:href="#DejaVuSans-74"/>
     <use x="942.578125" xlink:href="#DejaVuSans-68"/>
     <use x="1005.957031" xlink:href="#DejaVuSans-20"/>
     <use x="1037.744141" xlink:href="#DejaVuSans-31"/>
     <use x="1101.367188" xlink:href="#DejaVuSans-30"/>
     <use x="1164.990234" xlink:href="#DejaVuSans-20"/>
     <use x="1196.777344" xlink:href="#DejaVuSans-63"/>
     <use x="1251.757812" xlink:href="#DejaVuSans-6f"/>
     <use x="1312.939453" xlink:href="#DejaVuSans-6e"/>
     <use x="1376.318359" xlink:href="#DejaVuSans-73"/>
     <use x="1428.417969" xlink:href="#DejaVuSans-74"/>
     <use x="1467.626953" xlink:href="#DejaVuSans-72"/>
     <use x="1508.740234" xlink:href="#DejaVuSans-61"/>
     <use x="1570.019531" xlink:href="#DejaVuSans-69"/>
     <use x="1597.802734" xlink:href="#DejaVuSans-6e"/>
     <use x="1661.181641" xlink:href="#DejaVuSans-74"/>
     <use x="1700.390625" xlink:href="#DejaVuSans-73"/>
    </g>
   </g>
  </g>
 </g>
 <defs>
  <clipPath id="p446df52dc5">
   <rect height="266.112" width="357.12" x="70.8" y="32.133375"/>
  </clipPath>
 </defs>
</svg>
