<?xml version="1.0" encoding="utf-8" standalone="no"?>
<!DOCTYPE svg PUBLIC "-//W3C//DTD SVG 1.1//EN"
  "http://www.w3.org/Graphics/SVG/1.1/DTD/svg11.dtd">
<!-- Created with matplotlib (http://matplotlib.org/) -->
<svg height="345pt" version="1.1" viewBox="0 0 460 345" width="460pt" xmlns="http://www.w3.org/2000/svg" xmlns:xlink="http://www.w3.org/1999/xlink">
 <defs>
  <style type="text/css">
*{stroke-linecap:butt;stroke-linejoin:round;}
  </style>
 </defs>
 <g id="figure_1">
  <g id="patch_1">
   <path d="M 0 345.6 
L 460.8 345.6 
L 460.8 0 
L 0 0 
z
" style="fill:#ffffff;"/>
  </g>
  <g id="axes_1">
   <g id="patch_2">
    <path d="M 56.12 294.88 
L 399.984 294.88 
L 399.984 24.84 
L 56.12 24.84 
z
" style="fill:#ffffff;"/>
   </g>
   <g id="line2d_1">
    <path d="M 44.194496 294.88 
L 44.194496 273.910091 
L 56.12 273.910091 
L 56.12 268.667614 
L 63.095973 268.667614 
L 63.095973 263.425137 
L 75.021477 263.425137 
L 75.021477 258.18266 
L 83.810164 258.18266 
L 83.810164 252.940182 
L 101.524628 252.940182 
L 101.524628 247.697705 
L 108.086006 247.697705 
L 108.086006 242.455228 
L 114.92153 242.455228 
L 114.92153 231.970274 
L 119.800405 231.970274 
L 119.800405 226.727797 
L 121.991263 226.727797 
L 121.991263 221.485319 
L 126.418675 221.485319 
L 126.418675 216.242842 
L 128.332297 216.242842 
L 128.332297 205.757888 
L 132.145561 205.757888 
L 132.145561 200.515411 
L 135.692038 200.515411 
L 135.692038 195.272933 
L 139.531193 195.272933 
L 139.531193 190.030456 
L 140.83029 190.030456 
L 140.83029 184.787979 
L 143.437686 184.787979 
L 143.437686 179.545502 
L 143.862519 179.545502 
L 143.862519 174.303025 
L 145.320153 174.303025 
L 145.320153 169.060547 
L 145.842271 169.060547 
L 145.842271 163.81807 
L 147.103926 163.81807 
L 147.103926 158.575593 
L 149.904387 158.575593 
L 149.904387 153.333116 
L 152.247865 153.333116 
L 152.247865 148.090639 
L 154.733507 148.090639 
L 154.733507 142.848162 
L 157.837762 142.848162 
L 157.837762 137.605684 
L 157.953776 137.605684 
L 157.953776 132.363207 
L 159.95965 132.363207 
L 159.95965 127.12073 
L 160.062243 127.12073 
L 160.062243 121.878253 
L 164.060232 121.878253 
L 164.060232 116.635776 
L 164.189471 116.635776 
L 164.189471 111.393298 
L 164.460923 111.393298 
L 164.460923 106.150821 
L 164.883437 106.150821 
L 164.883437 100.908344 
L 165.535617 100.908344 
L 165.535617 95.665867 
L 169.398568 95.665867 
L 169.398568 90.42339 
L 169.457916 90.42339 
L 169.457916 85.180912 
L 169.763266 85.180912 
L 169.763266 79.938435 
L 170.211365 79.938435 
L 170.211365 74.695958 
L 170.867822 74.695958 
L 170.867822 69.453481 
L 171.309687 69.453481 
L 171.309687 64.211004 
L 171.489623 64.211004 
L 171.489623 58.968526 
L 171.730108 58.968526 
L 171.730108 53.726049 
L 171.987748 53.726049 
L 171.987748 48.483572 
L 172.894263 48.483572 
L 172.894263 43.241095 
L 173.14473 43.241095 
L 173.14473 37.998618 
L 173.306547 37.998618 
L 173.306547 32.756141 
L 173.448074 32.756141 
L 173.448074 27.513663 
L 333.429677 27.513663 
" style="fill:none;stroke:#f5deb3;stroke-linecap:square;stroke-width:6;"/>
   </g>
   <g id="line2d_2">
    <path d="M 0 0 
" style="fill:none;stroke:#f5deb3;stroke-linecap:square;stroke-width:6;"/>
    <defs>
     <path d="M -0 7.778175 
L 7.778175 0 
L 0 -7.778175 
L -7.778175 -0 
z
" id="m0f7a229f58" style="stroke:#f5deb3;stroke-linejoin:miter;stroke-width:1.5;"/>
    </defs>
    <g>
     <use style="fill:#f5deb3;stroke:#f5deb3;stroke-linejoin:miter;stroke-width:1.5;" x="0" xlink:href="#m0f7a229f58" y="0"/>
    </g>
   </g>
   <g id="line2d_3">
    <path d="M 333.429677 27.513663 
L 363.933742 32.86099 
" style="fill:none;stroke:#f5deb3;stroke-linecap:square;stroke-width:6;"/>
    <g>
     <use style="fill:#f5deb3;stroke:#f5deb3;stroke-linejoin:miter;stroke-width:1.5;" x="333.429677" xlink:href="#m0f7a229f58" y="27.513663"/>
     <use style="fill:#f5deb3;stroke:#f5deb3;stroke-linejoin:miter;stroke-width:1.5;" x="363.933742" xlink:href="#m0f7a229f58" y="32.86099"/>
    </g>
   </g>
   <g id="matplotlib.axis_1">
    <g id="xtick_1">
     <g id="line2d_4">
      <path clip-path="url(#p8060ccce14)" d="M 56.12 294.88 
L 56.12 24.84 
" style="fill:none;stroke:#b0b0b0;stroke-linecap:square;stroke-width:0.8;"/>
     </g>
     <g id="line2d_5">
      <defs>
       <path d="M 0 0 
L 0 3.5 
" id="mefaeda6440" style="stroke:#000000;stroke-width:0.8;"/>
      </defs>
      <g>
       <use style="stroke:#000000;stroke-width:0.8;" x="56.12" xlink:href="#mefaeda6440" y="294.88"/>
      </g>
     </g>
     <g id="text_1">
      <!-- 0 -->
      <defs>
       <path d="M 31.78125 66.40625 
Q 24.171875 66.40625 20.328125 58.90625 
Q 16.5 51.421875 16.5 36.375 
Q 16.5 21.390625 20.328125 13.890625 
Q 24.171875 6.390625 31.78125 6.390625 
Q 39.453125 6.390625 43.28125 13.890625 
Q 47.125 21.390625 47.125 36.375 
Q 47.125 51.421875 43.28125 58.90625 
Q 39.453125 66.40625 31.78125 66.40625 
z
M 31.78125 74.21875 
Q 44.046875 74.21875 50.515625 64.515625 
Q 56.984375 54.828125 56.984375 36.375 
Q 56.984375 17.96875 50.515625 8.265625 
Q 44.046875 -1.421875 31.78125 -1.421875 
Q 19.53125 -1.421875 13.0625 8.265625 
Q 6.59375 17.96875 6.59375 36.375 
Q 6.59375 54.828125 13.0625 64.515625 
Q 19.53125 74.21875 31.78125 74.21875 
z
" id="DejaVuSans-30"/>
      </defs>
      <g transform="translate(49.7575 317.076875)scale(0.2 -0.2)">
       <use xlink:href="#DejaVuSans-30"/>
      </g>
     </g>
    </g>
    <g id="xtick_2">
     <g id="line2d_6">
      <path clip-path="url(#p8060ccce14)" d="M 135.351336 294.88 
L 135.351336 24.84 
" style="fill:none;stroke:#b0b0b0;stroke-linecap:square;stroke-width:0.8;"/>
     </g>
     <g id="line2d_7">
      <g>
       <use style="stroke:#000000;stroke-width:0.8;" x="135.351336" xlink:href="#mefaeda6440" y="294.88"/>
      </g>
     </g>
     <g id="text_2">
      <!-- 2 -->
      <defs>
       <path d="M 19.1875 8.296875 
L 53.609375 8.296875 
L 53.609375 0 
L 7.328125 0 
L 7.328125 8.296875 
Q 12.9375 14.109375 22.625 23.890625 
Q 32.328125 33.6875 34.8125 36.53125 
Q 39.546875 41.84375 41.421875 45.53125 
Q 43.3125 49.21875 43.3125 52.78125 
Q 43.3125 58.59375 39.234375 62.25 
Q 35.15625 65.921875 28.609375 65.921875 
Q 23.96875 65.921875 18.8125 64.3125 
Q 13.671875 62.703125 7.8125 59.421875 
L 7.8125 69.390625 
Q 13.765625 71.78125 18.9375 73 
Q 24.125 74.21875 28.421875 74.21875 
Q 39.75 74.21875 46.484375 68.546875 
Q 53.21875 62.890625 53.21875 53.421875 
Q 53.21875 48.921875 51.53125 44.890625 
Q 49.859375 40.875 45.40625 35.40625 
Q 44.1875 33.984375 37.640625 27.21875 
Q 31.109375 20.453125 19.1875 8.296875 
z
" id="DejaVuSans-32"/>
      </defs>
      <g transform="translate(128.988836 317.076875)scale(0.2 -0.2)">
       <use xlink:href="#DejaVuSans-32"/>
      </g>
     </g>
    </g>
    <g id="xtick_3">
     <g id="line2d_8">
      <path clip-path="url(#p8060ccce14)" d="M 214.582673 294.88 
L 214.582673 24.84 
" style="fill:none;stroke:#b0b0b0;stroke-linecap:square;stroke-width:0.8;"/>
     </g>
     <g id="line2d_9">
      <g>
       <use style="stroke:#000000;stroke-width:0.8;" x="214.582673" xlink:href="#mefaeda6440" y="294.88"/>
      </g>
     </g>
     <g id="text_3">
      <!-- 4 -->
      <defs>
       <path d="M 37.796875 64.3125 
L 12.890625 25.390625 
L 37.796875 25.390625 
z
M 35.203125 72.90625 
L 47.609375 72.90625 
L 47.609375 25.390625 
L 58.015625 25.390625 
L 58.015625 17.1875 
L 47.609375 17.1875 
L 47.609375 0 
L 37.796875 0 
L 37.796875 17.1875 
L 4.890625 17.1875 
L 4.890625 26.703125 
z
" id="DejaVuSans-34"/>
      </defs>
      <g transform="translate(208.220173 317.076875)scale(0.2 -0.2)">
       <use xlink:href="#DejaVuSans-34"/>
      </g>
     </g>
    </g>
    <g id="xtick_4">
     <g id="line2d_10">
      <path clip-path="url(#p8060ccce14)" d="M 293.814009 294.88 
L 293.814009 24.84 
" style="fill:none;stroke:#b0b0b0;stroke-linecap:square;stroke-width:0.8;"/>
     </g>
     <g id="line2d_11">
      <g>
       <use style="stroke:#000000;stroke-width:0.8;" x="293.814009" xlink:href="#mefaeda6440" y="294.88"/>
      </g>
     </g>
     <g id="text_4">
      <!-- 6 -->
      <defs>
       <path d="M 33.015625 40.375 
Q 26.375 40.375 22.484375 35.828125 
Q 18.609375 31.296875 18.609375 23.390625 
Q 18.609375 15.53125 22.484375 10.953125 
Q 26.375 6.390625 33.015625 6.390625 
Q 39.65625 6.390625 43.53125 10.953125 
Q 47.40625 15.53125 47.40625 23.390625 
Q 47.40625 31.296875 43.53125 35.828125 
Q 39.65625 40.375 33.015625 40.375 
z
M 52.59375 71.296875 
L 52.59375 62.3125 
Q 48.875 64.0625 45.09375 64.984375 
Q 41.3125 65.921875 37.59375 65.921875 
Q 27.828125 65.921875 22.671875 59.328125 
Q 17.53125 52.734375 16.796875 39.40625 
Q 19.671875 43.65625 24.015625 45.921875 
Q 28.375 48.1875 33.59375 48.1875 
Q 44.578125 48.1875 50.953125 41.515625 
Q 57.328125 34.859375 57.328125 23.390625 
Q 57.328125 12.15625 50.6875 5.359375 
Q 44.046875 -1.421875 33.015625 -1.421875 
Q 20.359375 -1.421875 13.671875 8.265625 
Q 6.984375 17.96875 6.984375 36.375 
Q 6.984375 53.65625 15.1875 63.9375 
Q 23.390625 74.21875 37.203125 74.21875 
Q 40.921875 74.21875 44.703125 73.484375 
Q 48.484375 72.75 52.59375 71.296875 
z
" id="DejaVuSans-36"/>
      </defs>
      <g transform="translate(287.451509 317.076875)scale(0.2 -0.2)">
       <use xlink:href="#DejaVuSans-36"/>
      </g>
     </g>
    </g>
    <g id="xtick_5">
     <g id="line2d_12">
      <path clip-path="url(#p8060ccce14)" d="M 373.045346 294.88 
L 373.045346 24.84 
" style="fill:none;stroke:#b0b0b0;stroke-linecap:square;stroke-width:0.8;"/>
     </g>
     <g id="line2d_13">
      <g>
       <use style="stroke:#000000;stroke-width:0.8;" x="373.045346" xlink:href="#mefaeda6440" y="294.88"/>
      </g>
     </g>
     <g id="text_5">
      <!-- 8 -->
      <defs>
       <path d="M 31.78125 34.625 
Q 24.75 34.625 20.71875 30.859375 
Q 16.703125 27.09375 16.703125 20.515625 
Q 16.703125 13.921875 20.71875 10.15625 
Q 24.75 6.390625 31.78125 6.390625 
Q 38.8125 6.390625 42.859375 10.171875 
Q 46.921875 13.96875 46.921875 20.515625 
Q 46.921875 27.09375 42.890625 30.859375 
Q 38.875 34.625 31.78125 34.625 
z
M 21.921875 38.8125 
Q 15.578125 40.375 12.03125 44.71875 
Q 8.5 49.078125 8.5 55.328125 
Q 8.5 64.0625 14.71875 69.140625 
Q 20.953125 74.21875 31.78125 74.21875 
Q 42.671875 74.21875 48.875 69.140625 
Q 55.078125 64.0625 55.078125 55.328125 
Q 55.078125 49.078125 51.53125 44.71875 
Q 48 40.375 41.703125 38.8125 
Q 48.828125 37.15625 52.796875 32.3125 
Q 56.78125 27.484375 56.78125 20.515625 
Q 56.78125 9.90625 50.3125 4.234375 
Q 43.84375 -1.421875 31.78125 -1.421875 
Q 19.734375 -1.421875 13.25 4.234375 
Q 6.78125 9.90625 6.78125 20.515625 
Q 6.78125 27.484375 10.78125 32.3125 
Q 14.796875 37.15625 21.921875 38.8125 
z
M 18.3125 54.390625 
Q 18.3125 48.734375 21.84375 45.5625 
Q 25.390625 42.390625 31.78125 42.390625 
Q 38.140625 42.390625 41.71875 45.5625 
Q 45.3125 48.734375 45.3125 54.390625 
Q 45.3125 60.0625 41.71875 63.234375 
Q 38.140625 66.40625 31.78125 66.40625 
Q 25.390625 66.40625 21.84375 63.234375 
Q 18.3125 60.0625 18.3125 54.390625 
z
" id="DejaVuSans-38"/>
      </defs>
      <g transform="translate(366.682846 317.076875)scale(0.2 -0.2)">
       <use xlink:href="#DejaVuSans-38"/>
      </g>
     </g>
    </g>
    <g id="text_6">
     <!-- log10(# f-evals / dimension) -->
     <defs>
      <path d="M 9.421875 75.984375 
L 18.40625 75.984375 
L 18.40625 0 
L 9.421875 0 
z
" id="DejaVuSans-6c"/>
      <path d="M 30.609375 48.390625 
Q 23.390625 48.390625 19.1875 42.75 
Q 14.984375 37.109375 14.984375 27.296875 
Q 14.984375 17.484375 19.15625 11.84375 
Q 23.34375 6.203125 30.609375 6.203125 
Q 37.796875 6.203125 41.984375 11.859375 
Q 46.1875 17.53125 46.1875 27.296875 
Q 46.1875 37.015625 41.984375 42.703125 
Q 37.796875 48.390625 30.609375 48.390625 
z
M 30.609375 56 
Q 42.328125 56 49.015625 48.375 
Q 55.71875 40.765625 55.71875 27.296875 
Q 55.71875 13.875 49.015625 6.21875 
Q 42.328125 -1.421875 30.609375 -1.421875 
Q 18.84375 -1.421875 12.171875 6.21875 
Q 5.515625 13.875 5.515625 27.296875 
Q 5.515625 40.765625 12.171875 48.375 
Q 18.84375 56 30.609375 56 
z
" id="DejaVuSans-6f"/>
      <path d="M 45.40625 27.984375 
Q 45.40625 37.75 41.375 43.109375 
Q 37.359375 48.484375 30.078125 48.484375 
Q 22.859375 48.484375 18.828125 43.109375 
Q 14.796875 37.75 14.796875 27.984375 
Q 14.796875 18.265625 18.828125 12.890625 
Q 22.859375 7.515625 30.078125 7.515625 
Q 37.359375 7.515625 41.375 12.890625 
Q 45.40625 18.265625 45.40625 27.984375 
z
M 54.390625 6.78125 
Q 54.390625 -7.171875 48.1875 -13.984375 
Q 42 -20.796875 29.203125 -20.796875 
Q 24.46875 -20.796875 20.265625 -20.09375 
Q 16.0625 -19.390625 12.109375 -17.921875 
L 12.109375 -9.1875 
Q 16.0625 -11.328125 19.921875 -12.34375 
Q 23.78125 -13.375 27.78125 -13.375 
Q 36.625 -13.375 41.015625 -8.765625 
Q 45.40625 -4.15625 45.40625 5.171875 
L 45.40625 9.625 
Q 42.625 4.78125 38.28125 2.390625 
Q 33.9375 0 27.875 0 
Q 17.828125 0 11.671875 7.65625 
Q 5.515625 15.328125 5.515625 27.984375 
Q 5.515625 40.671875 11.671875 48.328125 
Q 17.828125 56 27.875 56 
Q 33.9375 56 38.28125 53.609375 
Q 42.625 51.21875 45.40625 46.390625 
L 45.40625 54.6875 
L 54.390625 54.6875 
z
" id="DejaVuSans-67"/>
      <path d="M 12.40625 8.296875 
L 28.515625 8.296875 
L 28.515625 63.921875 
L 10.984375 60.40625 
L 10.984375 69.390625 
L 28.421875 72.90625 
L 38.28125 72.90625 
L 38.28125 8.296875 
L 54.390625 8.296875 
L 54.390625 0 
L 12.40625 0 
z
" id="DejaVuSans-31"/>
      <path d="M 31 75.875 
Q 24.46875 64.65625 21.28125 53.65625 
Q 18.109375 42.671875 18.109375 31.390625 
Q 18.109375 20.125 21.3125 9.0625 
Q 24.515625 -2 31 -13.1875 
L 23.1875 -13.1875 
Q 15.875 -1.703125 12.234375 9.375 
Q 8.59375 20.453125 8.59375 31.390625 
Q 8.59375 42.28125 12.203125 53.3125 
Q 15.828125 64.359375 23.1875 75.875 
z
" id="DejaVuSans-28"/>
      <path d="M 51.125 44 
L 36.921875 44 
L 32.8125 27.6875 
L 47.125 27.6875 
z
M 43.796875 71.78125 
L 38.71875 51.515625 
L 52.984375 51.515625 
L 58.109375 71.78125 
L 65.921875 71.78125 
L 60.890625 51.515625 
L 76.125 51.515625 
L 76.125 44 
L 58.984375 44 
L 54.984375 27.6875 
L 70.515625 27.6875 
L 70.515625 20.21875 
L 53.078125 20.21875 
L 48 0 
L 40.1875 0 
L 45.21875 20.21875 
L 30.90625 20.21875 
L 25.875 0 
L 18.015625 0 
L 23.09375 20.21875 
L 7.71875 20.21875 
L 7.71875 27.6875 
L 24.90625 27.6875 
L 29 44 
L 13.28125 44 
L 13.28125 51.515625 
L 30.90625 51.515625 
L 35.890625 71.78125 
z
" id="DejaVuSans-23"/>
      <path id="DejaVuSans-20"/>
      <path d="M 37.109375 75.984375 
L 37.109375 68.5 
L 28.515625 68.5 
Q 23.6875 68.5 21.796875 66.546875 
Q 19.921875 64.59375 19.921875 59.515625 
L 19.921875 54.6875 
L 34.71875 54.6875 
L 34.71875 47.703125 
L 19.921875 47.703125 
L 19.921875 0 
L 10.890625 0 
L 10.890625 47.703125 
L 2.296875 47.703125 
L 2.296875 54.6875 
L 10.890625 54.6875 
L 10.890625 58.5 
Q 10.890625 67.625 15.140625 71.796875 
Q 19.390625 75.984375 28.609375 75.984375 
z
" id="DejaVuSans-66"/>
      <path d="M 4.890625 31.390625 
L 31.203125 31.390625 
L 31.203125 23.390625 
L 4.890625 23.390625 
z
" id="DejaVuSans-2d"/>
      <path d="M 56.203125 29.59375 
L 56.203125 25.203125 
L 14.890625 25.203125 
Q 15.484375 15.921875 20.484375 11.0625 
Q 25.484375 6.203125 34.421875 6.203125 
Q 39.59375 6.203125 44.453125 7.46875 
Q 49.3125 8.734375 54.109375 11.28125 
L 54.109375 2.78125 
Q 49.265625 0.734375 44.1875 -0.34375 
Q 39.109375 -1.421875 33.890625 -1.421875 
Q 20.796875 -1.421875 13.15625 6.1875 
Q 5.515625 13.8125 5.515625 26.8125 
Q 5.515625 40.234375 12.765625 48.109375 
Q 20.015625 56 32.328125 56 
Q 43.359375 56 49.78125 48.890625 
Q 56.203125 41.796875 56.203125 29.59375 
z
M 47.21875 32.234375 
Q 47.125 39.59375 43.09375 43.984375 
Q 39.0625 48.390625 32.421875 48.390625 
Q 24.90625 48.390625 20.390625 44.140625 
Q 15.875 39.890625 15.1875 32.171875 
z
" id="DejaVuSans-65"/>
      <path d="M 2.984375 54.6875 
L 12.5 54.6875 
L 29.59375 8.796875 
L 46.6875 54.6875 
L 56.203125 54.6875 
L 35.6875 0 
L 23.484375 0 
z
" id="DejaVuSans-76"/>
      <path d="M 34.28125 27.484375 
Q 23.390625 27.484375 19.1875 25 
Q 14.984375 22.515625 14.984375 16.5 
Q 14.984375 11.71875 18.140625 8.90625 
Q 21.296875 6.109375 26.703125 6.109375 
Q 34.1875 6.109375 38.703125 11.40625 
Q 43.21875 16.703125 43.21875 25.484375 
L 43.21875 27.484375 
z
M 52.203125 31.203125 
L 52.203125 0 
L 43.21875 0 
L 43.21875 8.296875 
Q 40.140625 3.328125 35.546875 0.953125 
Q 30.953125 -1.421875 24.3125 -1.421875 
Q 15.921875 -1.421875 10.953125 3.296875 
Q 6 8.015625 6 15.921875 
Q 6 25.140625 12.171875 29.828125 
Q 18.359375 34.515625 30.609375 34.515625 
L 43.21875 34.515625 
L 43.21875 35.40625 
Q 43.21875 41.609375 39.140625 45 
Q 35.0625 48.390625 27.6875 48.390625 
Q 23 48.390625 18.546875 47.265625 
Q 14.109375 46.140625 10.015625 43.890625 
L 10.015625 52.203125 
Q 14.9375 54.109375 19.578125 55.046875 
Q 24.21875 56 28.609375 56 
Q 40.484375 56 46.34375 49.84375 
Q 52.203125 43.703125 52.203125 31.203125 
z
" id="DejaVuSans-61"/>
      <path d="M 44.28125 53.078125 
L 44.28125 44.578125 
Q 40.484375 46.53125 36.375 47.5 
Q 32.28125 48.484375 27.875 48.484375 
Q 21.1875 48.484375 17.84375 46.4375 
Q 14.5 44.390625 14.5 40.28125 
Q 14.5 37.15625 16.890625 35.375 
Q 19.28125 33.59375 26.515625 31.984375 
L 29.59375 31.296875 
Q 39.15625 29.25 43.1875 25.515625 
Q 47.21875 21.78125 47.21875 15.09375 
Q 47.21875 7.46875 41.1875 3.015625 
Q 35.15625 -1.421875 24.609375 -1.421875 
Q 20.21875 -1.421875 15.453125 -0.5625 
Q 10.6875 0.296875 5.421875 2 
L 5.421875 11.28125 
Q 10.40625 8.6875 15.234375 7.390625 
Q 20.0625 6.109375 24.8125 6.109375 
Q 31.15625 6.109375 34.5625 8.28125 
Q 37.984375 10.453125 37.984375 14.40625 
Q 37.984375 18.0625 35.515625 20.015625 
Q 33.0625 21.96875 24.703125 23.78125 
L 21.578125 24.515625 
Q 13.234375 26.265625 9.515625 29.90625 
Q 5.8125 33.546875 5.8125 39.890625 
Q 5.8125 47.609375 11.28125 51.796875 
Q 16.75 56 26.8125 56 
Q 31.78125 56 36.171875 55.265625 
Q 40.578125 54.546875 44.28125 53.078125 
z
" id="DejaVuSans-73"/>
      <path d="M 25.390625 72.90625 
L 33.6875 72.90625 
L 8.296875 -9.28125 
L 0 -9.28125 
z
" id="DejaVuSans-2f"/>
      <path d="M 45.40625 46.390625 
L 45.40625 75.984375 
L 54.390625 75.984375 
L 54.390625 0 
L 45.40625 0 
L 45.40625 8.203125 
Q 42.578125 3.328125 38.25 0.953125 
Q 33.9375 -1.421875 27.875 -1.421875 
Q 17.96875 -1.421875 11.734375 6.484375 
Q 5.515625 14.40625 5.515625 27.296875 
Q 5.515625 40.1875 11.734375 48.09375 
Q 17.96875 56 27.875 56 
Q 33.9375 56 38.25 53.625 
Q 42.578125 51.265625 45.40625 46.390625 
z
M 14.796875 27.296875 
Q 14.796875 17.390625 18.875 11.75 
Q 22.953125 6.109375 30.078125 6.109375 
Q 37.203125 6.109375 41.296875 11.75 
Q 45.40625 17.390625 45.40625 27.296875 
Q 45.40625 37.203125 41.296875 42.84375 
Q 37.203125 48.484375 30.078125 48.484375 
Q 22.953125 48.484375 18.875 42.84375 
Q 14.796875 37.203125 14.796875 27.296875 
z
" id="DejaVuSans-64"/>
      <path d="M 9.421875 54.6875 
L 18.40625 54.6875 
L 18.40625 0 
L 9.421875 0 
z
M 9.421875 75.984375 
L 18.40625 75.984375 
L 18.40625 64.59375 
L 9.421875 64.59375 
z
" id="DejaVuSans-69"/>
      <path d="M 52 44.1875 
Q 55.375 50.25 60.0625 53.125 
Q 64.75 56 71.09375 56 
Q 79.640625 56 84.28125 50.015625 
Q 88.921875 44.046875 88.921875 33.015625 
L 88.921875 0 
L 79.890625 0 
L 79.890625 32.71875 
Q 79.890625 40.578125 77.09375 44.375 
Q 74.3125 48.1875 68.609375 48.1875 
Q 61.625 48.1875 57.5625 43.546875 
Q 53.515625 38.921875 53.515625 30.90625 
L 53.515625 0 
L 44.484375 0 
L 44.484375 32.71875 
Q 44.484375 40.625 41.703125 44.40625 
Q 38.921875 48.1875 33.109375 48.1875 
Q 26.21875 48.1875 22.15625 43.53125 
Q 18.109375 38.875 18.109375 30.90625 
L 18.109375 0 
L 9.078125 0 
L 9.078125 54.6875 
L 18.109375 54.6875 
L 18.109375 46.1875 
Q 21.1875 51.21875 25.484375 53.609375 
Q 29.78125 56 35.6875 56 
Q 41.65625 56 45.828125 52.96875 
Q 50 49.953125 52 44.1875 
z
" id="DejaVuSans-6d"/>
      <path d="M 54.890625 33.015625 
L 54.890625 0 
L 45.90625 0 
L 45.90625 32.71875 
Q 45.90625 40.484375 42.875 44.328125 
Q 39.84375 48.1875 33.796875 48.1875 
Q 26.515625 48.1875 22.3125 43.546875 
Q 18.109375 38.921875 18.109375 30.90625 
L 18.109375 0 
L 9.078125 0 
L 9.078125 54.6875 
L 18.109375 54.6875 
L 18.109375 46.1875 
Q 21.34375 51.125 25.703125 53.5625 
Q 30.078125 56 35.796875 56 
Q 45.21875 56 50.046875 50.171875 
Q 54.890625 44.34375 54.890625 33.015625 
z
" id="DejaVuSans-6e"/>
      <path d="M 8.015625 75.875 
L 15.828125 75.875 
Q 23.140625 64.359375 26.78125 53.3125 
Q 30.421875 42.28125 30.421875 31.390625 
Q 30.421875 20.453125 26.78125 9.375 
Q 23.140625 -1.703125 15.828125 -13.1875 
L 8.015625 -13.1875 
Q 14.5 -2 17.703125 9.0625 
Q 20.90625 20.125 20.90625 31.390625 
Q 20.90625 42.671875 17.703125 53.65625 
Q 14.5 64.65625 8.015625 75.875 
z
" id="DejaVuSans-29"/>
     </defs>
     <g transform="translate(107.211219 338.153594)scale(0.17 -0.17)">
      <use xlink:href="#DejaVuSans-6c"/>
      <use x="27.783203" xlink:href="#DejaVuSans-6f"/>
      <use x="88.964844" xlink:href="#DejaVuSans-67"/>
      <use x="152.441406" xlink:href="#DejaVuSans-31"/>
      <use x="216.064453" xlink:href="#DejaVuSans-30"/>
      <use x="279.6875" xlink:href="#DejaVuSans-28"/>
      <use x="318.701172" xlink:href="#DejaVuSans-23"/>
      <use x="402.490234" xlink:href="#DejaVuSans-20"/>
      <use x="434.277344" xlink:href="#DejaVuSans-66"/>
      <use x="469.404297" xlink:href="#DejaVuSans-2d"/>
      <use x="505.488281" xlink:href="#DejaVuSans-65"/>
      <use x="567.011719" xlink:href="#DejaVuSans-76"/>
      <use x="626.191406" xlink:href="#DejaVuSans-61"/>
      <use x="687.470703" xlink:href="#DejaVuSans-6c"/>
      <use x="715.253906" xlink:href="#DejaVuSans-73"/>
      <use x="767.353516" xlink:href="#DejaVuSans-20"/>
      <use x="799.140625" xlink:href="#DejaVuSans-2f"/>
      <use x="832.832031" xlink:href="#DejaVuSans-20"/>
      <use x="864.619141" xlink:href="#DejaVuSans-64"/>
      <use x="928.095703" xlink:href="#DejaVuSans-69"/>
      <use x="955.878906" xlink:href="#DejaVuSans-6d"/>
      <use x="1053.291016" xlink:href="#DejaVuSans-65"/>
      <use x="1114.814453" xlink:href="#DejaVuSans-6e"/>
      <use x="1178.193359" xlink:href="#DejaVuSans-73"/>
      <use x="1230.292969" xlink:href="#DejaVuSans-69"/>
      <use x="1258.076172" xlink:href="#DejaVuSans-6f"/>
      <use x="1319.257812" xlink:href="#DejaVuSans-6e"/>
      <use x="1382.636719" xlink:href="#DejaVuSans-29"/>
     </g>
    </g>
   </g>
   <g id="matplotlib.axis_2">
    <g id="ytick_1">
     <g id="line2d_14">
      <path clip-path="url(#p8060ccce14)" d="M 56.12 294.88 
L 399.984 294.88 
" style="fill:none;stroke:#b0b0b0;stroke-linecap:square;stroke-width:0.8;"/>
     </g>
     <g id="line2d_15">
      <defs>
       <path d="M 0 0 
L -3.5 0 
" id="m732814b2f4" style="stroke:#000000;stroke-width:0.8;"/>
      </defs>
      <g>
       <use style="stroke:#000000;stroke-width:0.8;" x="56.12" xlink:href="#m732814b2f4" y="294.88"/>
      </g>
     </g>
     <g id="text_7">
      <!-- 0.0 -->
      <defs>
       <path d="M 10.6875 12.40625 
L 21 12.40625 
L 21 0 
L 10.6875 0 
z
" id="DejaVuSans-2e"/>
      </defs>
      <g transform="translate(23.675 300.95875)scale(0.16 -0.16)">
       <use xlink:href="#DejaVuSans-30"/>
       <use x="63.623047" xlink:href="#DejaVuSans-2e"/>
       <use x="95.410156" xlink:href="#DejaVuSans-30"/>
      </g>
     </g>
    </g>
    <g id="ytick_2">
     <g id="line2d_16">
      <path clip-path="url(#p8060ccce14)" d="M 56.12 241.406733 
L 399.984 241.406733 
" style="fill:none;stroke:#b0b0b0;stroke-linecap:square;stroke-width:0.8;"/>
     </g>
     <g id="line2d_17">
      <g>
       <use style="stroke:#000000;stroke-width:0.8;" x="56.12" xlink:href="#m732814b2f4" y="241.406733"/>
      </g>
     </g>
     <g id="text_8">
      <!-- 0.2 -->
      <g transform="translate(23.675 247.485483)scale(0.16 -0.16)">
       <use xlink:href="#DejaVuSans-30"/>
       <use x="63.623047" xlink:href="#DejaVuSans-2e"/>
       <use x="95.410156" xlink:href="#DejaVuSans-32"/>
      </g>
     </g>
    </g>
    <g id="ytick_3">
     <g id="line2d_18">
      <path clip-path="url(#p8060ccce14)" d="M 56.12 187.933465 
L 399.984 187.933465 
" style="fill:none;stroke:#b0b0b0;stroke-linecap:square;stroke-width:0.8;"/>
     </g>
     <g id="line2d_19">
      <g>
       <use style="stroke:#000000;stroke-width:0.8;" x="56.12" xlink:href="#m732814b2f4" y="187.933465"/>
      </g>
     </g>
     <g id="text_9">
      <!-- 0.4 -->
      <g transform="translate(23.675 194.012215)scale(0.16 -0.16)">
       <use xlink:href="#DejaVuSans-30"/>
       <use x="63.623047" xlink:href="#DejaVuSans-2e"/>
       <use x="95.410156" xlink:href="#DejaVuSans-34"/>
      </g>
     </g>
    </g>
    <g id="ytick_4">
     <g id="line2d_20">
      <path clip-path="url(#p8060ccce14)" d="M 56.12 134.460198 
L 399.984 134.460198 
" style="fill:none;stroke:#b0b0b0;stroke-linecap:square;stroke-width:0.8;"/>
     </g>
     <g id="line2d_21">
      <g>
       <use style="stroke:#000000;stroke-width:0.8;" x="56.12" xlink:href="#m732814b2f4" y="134.460198"/>
      </g>
     </g>
     <g id="text_10">
      <!-- 0.6 -->
      <g transform="translate(23.675 140.538948)scale(0.16 -0.16)">
       <use xlink:href="#DejaVuSans-30"/>
       <use x="63.623047" xlink:href="#DejaVuSans-2e"/>
       <use x="95.410156" xlink:href="#DejaVuSans-36"/>
      </g>
     </g>
    </g>
    <g id="ytick_5">
     <g id="line2d_22">
      <path clip-path="url(#p8060ccce14)" d="M 56.12 80.986931 
L 399.984 80.986931 
" style="fill:none;stroke:#b0b0b0;stroke-linecap:square;stroke-width:0.8;"/>
     </g>
     <g id="line2d_23">
      <g>
       <use style="stroke:#000000;stroke-width:0.8;" x="56.12" xlink:href="#m732814b2f4" y="80.986931"/>
      </g>
     </g>
     <g id="text_11">
      <!-- 0.8 -->
      <g transform="translate(23.675 87.065681)scale(0.16 -0.16)">
       <use xlink:href="#DejaVuSans-30"/>
       <use x="63.623047" xlink:href="#DejaVuSans-2e"/>
       <use x="95.410156" xlink:href="#DejaVuSans-38"/>
      </g>
     </g>
    </g>
    <g id="ytick_6">
     <g id="line2d_24">
      <path clip-path="url(#p8060ccce14)" d="M 56.12 27.513663 
L 399.984 27.513663 
" style="fill:none;stroke:#b0b0b0;stroke-linecap:square;stroke-width:0.8;"/>
     </g>
     <g id="line2d_25">
      <g>
       <use style="stroke:#000000;stroke-width:0.8;" x="56.12" xlink:href="#m732814b2f4" y="27.513663"/>
      </g>
     </g>
     <g id="text_12">
      <!-- 1.0 -->
      <g transform="translate(23.675 33.592413)scale(0.16 -0.16)">
       <use xlink:href="#DejaVuSans-31"/>
       <use x="63.623047" xlink:href="#DejaVuSans-2e"/>
       <use x="95.410156" xlink:href="#DejaVuSans-30"/>
      </g>
     </g>
    </g>
    <g id="text_13">
     <!-- Fraction of function,target pairs -->
     <defs>
      <path d="M 9.8125 72.90625 
L 51.703125 72.90625 
L 51.703125 64.59375 
L 19.671875 64.59375 
L 19.671875 43.109375 
L 48.578125 43.109375 
L 48.578125 34.8125 
L 19.671875 34.8125 
L 19.671875 0 
L 9.8125 0 
z
" id="DejaVuSans-46"/>
      <path d="M 41.109375 46.296875 
Q 39.59375 47.171875 37.8125 47.578125 
Q 36.03125 48 33.890625 48 
Q 26.265625 48 22.1875 43.046875 
Q 18.109375 38.09375 18.109375 28.8125 
L 18.109375 0 
L 9.078125 0 
L 9.078125 54.6875 
L 18.109375 54.6875 
L 18.109375 46.1875 
Q 20.953125 51.171875 25.484375 53.578125 
Q 30.03125 56 36.53125 56 
Q 37.453125 56 38.578125 55.875 
Q 39.703125 55.765625 41.0625 55.515625 
z
" id="DejaVuSans-72"/>
      <path d="M 48.78125 52.59375 
L 48.78125 44.1875 
Q 44.96875 46.296875 41.140625 47.34375 
Q 37.3125 48.390625 33.40625 48.390625 
Q 24.65625 48.390625 19.8125 42.84375 
Q 14.984375 37.3125 14.984375 27.296875 
Q 14.984375 17.28125 19.8125 11.734375 
Q 24.65625 6.203125 33.40625 6.203125 
Q 37.3125 6.203125 41.140625 7.25 
Q 44.96875 8.296875 48.78125 10.40625 
L 48.78125 2.09375 
Q 45.015625 0.34375 40.984375 -0.53125 
Q 36.96875 -1.421875 32.421875 -1.421875 
Q 20.0625 -1.421875 12.78125 6.34375 
Q 5.515625 14.109375 5.515625 27.296875 
Q 5.515625 40.671875 12.859375 48.328125 
Q 20.21875 56 33.015625 56 
Q 37.15625 56 41.109375 55.140625 
Q 45.0625 54.296875 48.78125 52.59375 
z
" id="DejaVuSans-63"/>
      <path d="M 18.3125 70.21875 
L 18.3125 54.6875 
L 36.8125 54.6875 
L 36.8125 47.703125 
L 18.3125 47.703125 
L 18.3125 18.015625 
Q 18.3125 11.328125 20.140625 9.421875 
Q 21.96875 7.515625 27.59375 7.515625 
L 36.8125 7.515625 
L 36.8125 0 
L 27.59375 0 
Q 17.1875 0 13.234375 3.875 
Q 9.28125 7.765625 9.28125 18.015625 
L 9.28125 47.703125 
L 2.6875 47.703125 
L 2.6875 54.6875 
L 9.28125 54.6875 
L 9.28125 70.21875 
z
" id="DejaVuSans-74"/>
      <path d="M 8.5 21.578125 
L 8.5 54.6875 
L 17.484375 54.6875 
L 17.484375 21.921875 
Q 17.484375 14.15625 20.5 10.265625 
Q 23.53125 6.390625 29.59375 6.390625 
Q 36.859375 6.390625 41.078125 11.03125 
Q 45.3125 15.671875 45.3125 23.6875 
L 45.3125 54.6875 
L 54.296875 54.6875 
L 54.296875 0 
L 45.3125 0 
L 45.3125 8.40625 
Q 42.046875 3.421875 37.71875 1 
Q 33.40625 -1.421875 27.6875 -1.421875 
Q 18.265625 -1.421875 13.375 4.4375 
Q 8.5 10.296875 8.5 21.578125 
z
M 31.109375 56 
z
" id="DejaVuSans-75"/>
      <path d="M 11.71875 12.40625 
L 22.015625 12.40625 
L 22.015625 4 
L 14.015625 -11.625 
L 7.71875 -11.625 
L 11.71875 4 
z
" id="DejaVuSans-2c"/>
      <path d="M 18.109375 8.203125 
L 18.109375 -20.796875 
L 9.078125 -20.796875 
L 9.078125 54.6875 
L 18.109375 54.6875 
L 18.109375 46.390625 
Q 20.953125 51.265625 25.265625 53.625 
Q 29.59375 56 35.59375 56 
Q 45.5625 56 51.78125 48.09375 
Q 58.015625 40.1875 58.015625 27.296875 
Q 58.015625 14.40625 51.78125 6.484375 
Q 45.5625 -1.421875 35.59375 -1.421875 
Q 29.59375 -1.421875 25.265625 0.953125 
Q 20.953125 3.328125 18.109375 8.203125 
z
M 48.6875 27.296875 
Q 48.6875 37.203125 44.609375 42.84375 
Q 40.53125 48.484375 33.40625 48.484375 
Q 26.265625 48.484375 22.1875 42.84375 
Q 18.109375 37.203125 18.109375 27.296875 
Q 18.109375 17.390625 22.1875 11.75 
Q 26.265625 6.109375 33.40625 6.109375 
Q 40.53125 6.109375 44.609375 11.75 
Q 48.6875 17.390625 48.6875 27.296875 
z
" id="DejaVuSans-70"/>
     </defs>
     <g transform="translate(16.139531 294.999375)rotate(-90)scale(0.17 -0.17)">
      <use xlink:href="#DejaVuSans-46"/>
      <use x="57.410156" xlink:href="#DejaVuSans-72"/>
      <use x="98.523438" xlink:href="#DejaVuSans-61"/>
      <use x="159.802734" xlink:href="#DejaVuSans-63"/>
      <use x="214.783203" xlink:href="#DejaVuSans-74"/>
      <use x="253.992188" xlink:href="#DejaVuSans-69"/>
      <use x="281.775391" xlink:href="#DejaVuSans-6f"/>
      <use x="342.957031" xlink:href="#DejaVuSans-6e"/>
      <use x="406.335938" xlink:href="#DejaVuSans-20"/>
      <use x="438.123047" xlink:href="#DejaVuSans-6f"/>
      <use x="499.304688" xlink:href="#DejaVuSans-66"/>
      <use x="534.509766" xlink:href="#DejaVuSans-20"/>
      <use x="566.296875" xlink:href="#DejaVuSans-66"/>
      <use x="601.501953" xlink:href="#DejaVuSans-75"/>
      <use x="664.880859" xlink:href="#DejaVuSans-6e"/>
      <use x="728.259766" xlink:href="#DejaVuSans-63"/>
      <use x="783.240234" xlink:href="#DejaVuSans-74"/>
      <use x="822.449219" xlink:href="#DejaVuSans-69"/>
      <use x="850.232422" xlink:href="#DejaVuSans-6f"/>
      <use x="911.414062" xlink:href="#DejaVuSans-6e"/>
      <use x="974.792969" xlink:href="#DejaVuSans-2c"/>
      <use x="1006.580078" xlink:href="#DejaVuSans-74"/>
      <use x="1045.789062" xlink:href="#DejaVuSans-61"/>
      <use x="1107.068359" xlink:href="#DejaVuSans-72"/>
      <use x="1148.166016" xlink:href="#DejaVuSans-67"/>
      <use x="1211.642578" xlink:href="#DejaVuSans-65"/>
      <use x="1273.166016" xlink:href="#DejaVuSans-74"/>
      <use x="1312.375" xlink:href="#DejaVuSans-20"/>
      <use x="1344.162109" xlink:href="#DejaVuSans-70"/>
      <use x="1407.638672" xlink:href="#DejaVuSans-61"/>
      <use x="1468.917969" xlink:href="#DejaVuSans-69"/>
      <use x="1496.701172" xlink:href="#DejaVuSans-72"/>
      <use x="1537.814453" xlink:href="#DejaVuSans-73"/>
     </g>
    </g>
   </g>
   <g id="line2d_26">
    <defs>
     <path d="M 0 1.5 
C 0.397805 1.5 0.77937 1.341951 1.06066 1.06066 
C 1.341951 0.77937 1.5 0.397805 1.5 0 
C 1.5 -0.397805 1.341951 -0.77937 1.06066 -1.06066 
C 0.77937 -1.341951 0.397805 -1.5 0 -1.5 
C -0.397805 -1.5 -0.77937 -1.341951 -1.06066 -1.06066 
C -1.341951 -0.77937 -1.5 -0.397805 -1.5 0 
C -1.5 0.397805 -1.341951 0.77937 -1.06066 1.06066 
C -0.77937 1.341951 -0.397805 1.5 0 1.5 
z
" id="mbde5ffb6da" style="stroke:#f5deb3;"/>
    </defs>
    <g>
     <use style="fill:#f5deb3;stroke:#f5deb3;" x="173.448074" xlink:href="#mbde5ffb6da" y="27.513663"/>
     <use style="fill:#f5deb3;stroke:#f5deb3;" x="173.448074" xlink:href="#mbde5ffb6da" y="27.513663"/>
    </g>
   </g>
   <g id="line2d_27">
    <g>
     <use style="fill:#f5deb3;stroke:#f5deb3;stroke-linejoin:miter;stroke-width:1.5;" x="126.418675" xlink:href="#m0f7a229f58" y="221.485319"/>
     <use style="fill:#f5deb3;stroke:#f5deb3;stroke-linejoin:miter;stroke-width:1.5;" x="160.062243" xlink:href="#m0f7a229f58" y="127.12073"/>
     <use style="fill:#f5deb3;stroke:#f5deb3;stroke-linejoin:miter;stroke-width:1.5;" x="173.448074" xlink:href="#m0f7a229f58" y="32.756141"/>
     <use style="fill:#f5deb3;stroke:#f5deb3;stroke-linejoin:miter;stroke-width:1.5;" x="173.448074" xlink:href="#m0f7a229f58" y="27.513663"/>
     <use style="fill:#f5deb3;stroke:#f5deb3;stroke-linejoin:miter;stroke-width:1.5;" x="173.448074" xlink:href="#m0f7a229f58" y="27.513663"/>
     <use style="fill:#f5deb3;stroke:#f5deb3;stroke-linejoin:miter;stroke-width:1.5;" x="333.429677" xlink:href="#m0f7a229f58" y="27.513663"/>
    </g>
   </g>
   <g id="line2d_28">
    <defs>
     <path d="M 0 1.5 
C 0.397805 1.5 0.77937 1.341951 1.06066 1.06066 
C 1.341951 0.77937 1.5 0.397805 1.5 0 
C 1.5 -0.397805 1.341951 -0.77937 1.06066 -1.06066 
C 0.77937 -1.341951 0.397805 -1.5 0 -1.5 
C -0.397805 -1.5 -0.77937 -1.341951 -1.06066 -1.06066 
C -1.341951 -0.77937 -1.5 -0.397805 -1.5 0 
C -1.5 0.397805 -1.341951 0.77937 -1.06066 1.06066 
C -0.77937 1.341951 -0.397805 1.5 0 1.5 
z
" id="mdb581fa6b2" style="stroke:#000080;"/>
    </defs>
    <g>
     <use style="fill:#000080;stroke:#000080;" x="241.817119" xlink:href="#mdb581fa6b2" y="121.878253"/>
     <use style="fill:#000080;stroke:#000080;" x="241.817119" xlink:href="#mdb581fa6b2" y="121.878253"/>
    </g>
   </g>
   <g id="line2d_29">
    <path d="M 44.194496 294.88 
L 44.194496 276.53133 
L 77.673619 276.53133 
L 77.673619 270.764605 
L 79.971009 270.764605 
L 79.971009 267.619119 
L 81.99745 267.619119 
L 81.99745 262.900889 
L 83.810164 262.900889 
L 83.810164 259.231155 
L 85.449963 259.231155 
L 85.449963 256.085669 
L 86.946982 256.085669 
L 86.946982 254.512926 
L 88.324106 254.512926 
L 88.324106 253.988678 
L 90.786137 253.988678 
L 90.786137 252.940182 
L 91.896513 252.940182 
L 91.896513 251.891687 
L 92.939552 251.891687 
L 92.939552 249.794696 
L 93.922955 249.794696 
L 93.922955 249.270448 
L 95.735668 249.270448 
L 95.735668 248.221953 
L 97.375467 248.221953 
L 97.375467 247.173458 
L 102.711641 247.173458 
L 102.711641 246.64921 
L 125.065631 246.64921 
L 125.065631 245.600714 
L 126.12706 245.600714 
L 126.12706 245.076467 
L 126.70543 245.076467 
L 126.70543 243.503724 
L 126.847034 243.503724 
L 126.847034 242.979476 
L 126.987483 242.979476 
L 126.987483 241.93098 
L 127.402078 241.93098 
L 127.402078 241.406733 
L 135.265096 241.406733 
L 135.265096 240.358237 
L 135.437146 240.358237 
L 135.437146 239.83399 
L 136.675441 239.83399 
L 136.675441 238.785494 
L 137.904883 238.785494 
L 137.904883 237.736999 
L 138.271738 237.736999 
L 138.271738 236.688503 
L 138.416318 236.688503 
L 138.416318 235.11576 
L 138.912987 235.11576 
L 138.912987 234.591512 
L 139.190491 234.591512 
L 139.190491 234.067265 
L 139.327583 234.067265 
L 139.327583 233.018769 
L 139.531193 233.018769 
L 139.531193 231.970274 
L 139.732422 231.970274 
L 139.732422 230.921778 
L 140.193 230.921778 
L 140.193 230.397531 
L 140.514596 230.397531 
L 140.5782 228.824787 
L 145.028538 228.824787 
L 145.028538 226.203549 
L 149.149666 226.203549 
L 149.149666 225.679301 
L 149.379579 225.679301 
L 149.379579 225.155053 
L 149.568853 225.155053 
L 149.568853 223.58231 
L 150.160907 223.58231 
L 150.160907 223.058063 
L 150.341822 223.058063 
L 150.449465 222.009567 
L 150.556439 222.009567 
L 150.556439 220.436824 
L 157.221544 220.436824 
L 157.221544 219.388328 
L 158.500008 219.388328 
L 158.500008 218.864081 
L 158.656113 218.864081 
L 158.656113 217.815585 
L 159.159279 217.815585 
L 159.266743 213.097356 
L 161.132938 213.097356 
L 161.171341 211.000365 
L 161.266977 211.000365 
L 161.266977 209.95187 
L 162.728991 209.95187 
L 162.746503 207.854879 
L 163.12731 207.854879 
L 163.12731 207.330631 
L 163.24673 207.330631 
L 163.24673 206.282136 
L 164.571464 206.282136 
L 164.571464 205.23364 
L 169.774903 205.23364 
L 169.774903 204.709392 
L 170.324406 204.709392 
L 170.414308 201.563906 
L 171.915997 201.563906 
L 171.987748 200.515411 
L 175.061372 200.515411 
L 175.146714 197.369924 
L 175.197716 197.369924 
L 175.29927 192.651695 
L 175.341408 192.651695 
L 175.341408 192.127447 
L 177.938147 192.127447 
L 177.952618 190.554704 
L 178.847402 190.554704 
L 178.902238 189.506209 
L 179.546992 189.506209 
L 179.625914 184.787979 
L 182.18783 184.787979 
L 182.18783 183.215236 
L 182.766012 183.215236 
L 182.766012 182.16674 
L 183.251144 182.16674 
L 183.251144 181.642493 
L 184.491579 181.642493 
L 184.506409 179.545502 
L 197.721395 179.545502 
L 197.72827 178.497006 
L 197.849279 178.497006 
L 197.878831 176.924263 
L 198.636407 176.924263 
L 198.636407 174.303025 
L 199.05509 174.303025 
L 199.099577 165.915061 
L 199.438951 165.915061 
L 199.438951 164.866566 
L 200.430419 164.866566 
L 200.430419 164.342318 
L 201.47507 164.342318 
L 201.500851 160.148336 
L 202.524178 160.148336 
L 202.524178 159.099841 
L 203.606031 159.099841 
L 203.606031 158.575593 
L 204.237429 158.575593 
L 204.237429 158.051345 
L 204.395223 158.051345 
L 204.395223 157.527098 
L 204.826769 157.527098 
L 204.919036 155.954354 
L 205.536869 155.954354 
L 205.536869 155.430107 
L 206.292795 155.430107 
L 206.292795 154.381611 
L 206.816772 154.381611 
L 206.816772 153.857364 
L 207.581735 153.857364 
L 207.671955 152.808868 
L 207.927149 152.808868 
L 207.938544 151.760373 
L 208.66471 151.760373 
L 208.66471 151.236125 
L 208.836157 151.236125 
L 208.836157 150.711877 
L 213.394123 150.711877 
L 213.394123 150.18763 
L 213.531837 150.18763 
L 213.531837 149.663382 
L 213.789592 149.663382 
L 213.789592 149.139134 
L 213.925976 149.139134 
L 213.934017 146.517896 
L 214.278046 146.517896 
L 214.310414 144.945152 
L 214.390631 144.945152 
L 214.497297 142.848162 
L 214.990712 142.848162 
L 214.990712 142.323914 
L 215.698425 142.323914 
L 215.698425 141.799666 
L 216.882966 141.799666 
L 216.882966 141.275418 
L 217.718774 141.275418 
L 217.718774 140.751171 
L 218.03628 140.751171 
L 218.076349 139.702675 
L 218.374967 139.702675 
L 218.442461 138.65418 
L 218.52338 138.65418 
L 218.526801 137.605684 
L 218.933055 137.605684 
L 218.938399 136.557189 
L 219.0688 136.557189 
L 219.157386 135.508693 
L 219.212029 135.508693 
L 219.212029 134.984446 
L 221.835131 134.984446 
L 221.835131 134.460198 
L 222.079446 134.460198 
L 222.079446 133.93595 
L 223.713073 133.93595 
L 223.713073 133.411703 
L 223.867215 133.411703 
L 223.867215 132.887455 
L 226.959008 132.887455 
L 226.964035 131.838959 
L 227.610218 131.838959 
L 227.649709 130.790464 
L 229.318611 130.790464 
L 229.318611 130.266216 
L 231.118461 130.266216 
L 231.118461 129.741969 
L 231.388427 129.741969 
L 231.388427 129.217721 
L 231.506887 129.217721 
L 231.506887 128.693473 
L 231.749319 128.693473 
L 231.749319 128.169225 
L 232.508741 128.169225 
L 232.565699 127.12073 
L 233.031494 127.12073 
L 233.074716 126.072235 
L 234.242278 126.072235 
L 234.242278 125.547987 
L 234.574353 125.547987 
L 234.574353 125.023739 
L 234.889044 125.023739 
L 234.958406 123.975244 
L 235.356204 123.975244 
L 235.356204 123.450996 
L 237.718122 123.450996 
L 237.718122 122.926748 
L 240.945091 122.926748 
L 240.945091 122.4025 
L 241.817119 122.4025 
L 241.817119 121.878253 
L 333.429677 121.878253 
L 333.429677 121.878253 
" style="fill:none;stroke:#000080;stroke-linecap:square;stroke-width:1.5;"/>
   </g>
   <g id="line2d_30">
    <defs>
     <path d="M 0 6 
C 1.591219 6 3.117479 5.367802 4.242641 4.242641 
C 5.367802 3.117479 6 1.591219 6 0 
C 6 -1.591219 5.367802 -3.117479 4.242641 -4.242641 
C 3.117479 -5.367802 1.591219 -6 0 -6 
C -1.591219 -6 -3.117479 -5.367802 -4.242641 -4.242641 
C -5.367802 -3.117479 -6 -1.591219 -6 0 
C -6 1.591219 -5.367802 3.117479 -4.242641 4.242641 
C -3.117479 5.367802 -1.591219 6 0 6 
z
" id="mb7dafeb16a" style="stroke:#000080;stroke-width:1.5;"/>
    </defs>
    <g>
     <use style="fill:none;stroke:#000080;stroke-width:1.5;" x="127.402078" xlink:href="#mb7dafeb16a" y="241.93098"/>
     <use style="fill:none;stroke:#000080;stroke-width:1.5;" x="184.506409" xlink:href="#mb7dafeb16a" y="179.545502"/>
     <use style="fill:none;stroke:#000080;stroke-width:1.5;" x="234.574353" xlink:href="#mb7dafeb16a" y="125.023739"/>
     <use style="fill:none;stroke:#000080;stroke-width:1.5;" x="241.817119" xlink:href="#mb7dafeb16a" y="121.878253"/>
     <use style="fill:none;stroke:#000080;stroke-width:1.5;" x="241.817119" xlink:href="#mb7dafeb16a" y="121.878253"/>
     <use style="fill:none;stroke:#000080;stroke-width:1.5;" x="333.429677" xlink:href="#mb7dafeb16a" y="121.878253"/>
    </g>
   </g>
   <g id="line2d_31">
    <path d="M 0 0 
" style="fill:none;stroke:#000080;stroke-linecap:square;stroke-width:1.5;"/>
    <g>
     <use style="fill:none;stroke:#000080;stroke-width:1.5;" x="0" xlink:href="#mb7dafeb16a" y="0"/>
    </g>
   </g>
   <g id="line2d_32">
    <path clip-path="url(#p8060ccce14)" d="M 204.514557 157.527098 
" style="fill:none;stroke:#000080;stroke-linecap:square;stroke-width:1.5;"/>
    <defs>
     <path d="M -12 12 
L 12 -12 
M -12 -12 
L 12 12 
" id="mfc4f34623d" style="stroke:#000080;stroke-width:3;"/>
    </defs>
    <g clip-path="url(#p8060ccce14)">
     <use style="fill:#000080;stroke:#000080;stroke-width:3;" x="204.514557" xlink:href="#mfc4f34623d" y="157.527098"/>
    </g>
   </g>
   <g id="line2d_33">
    <defs>
     <path d="M 0 1.5 
C 0.397805 1.5 0.77937 1.341951 1.06066 1.06066 
C 1.341951 0.77937 1.5 0.397805 1.5 0 
C 1.5 -0.397805 1.341951 -0.77937 1.06066 -1.06066 
C 0.77937 -1.341951 0.397805 -1.5 0 -1.5 
C -0.397805 -1.5 -0.77937 -1.341951 -1.06066 -1.06066 
C -1.341951 -0.77937 -1.5 -0.397805 -1.5 0 
C -1.5 0.397805 -1.341951 0.77937 -1.06066 1.06066 
C -0.77937 1.341951 -0.397805 1.5 0 1.5 
z
" id="mb17c13ef84" style="stroke:#ff00ff;"/>
    </defs>
    <g>
     <use style="fill:#ff00ff;stroke:#ff00ff;" x="252.036677" xlink:href="#mb17c13ef84" y="158.575593"/>
     <use style="fill:#ff00ff;stroke:#ff00ff;" x="252.036677" xlink:href="#mb17c13ef84" y="158.575593"/>
    </g>
   </g>
   <g id="line2d_34">
    <path d="M 44.194496 294.88 
L 44.194496 278.104073 
L 63.095973 278.104073 
L 63.095973 277.579825 
L 68.045504 277.579825 
L 68.045504 277.055578 
L 75.021477 277.055578 
L 75.021477 264.99788 
L 77.673619 264.99788 
L 77.673619 260.803898 
L 79.971009 260.803898 
L 79.971009 258.706907 
L 81.99745 258.706907 
L 81.99745 256.609917 
L 83.810164 256.609917 
L 83.810164 255.037173 
L 85.449963 255.037173 
L 85.449963 254.512926 
L 89.599124 254.512926 
L 89.599124 253.988678 
L 123.252917 253.988678 
L 123.252917 253.46443 
L 124.100619 253.46443 
L 124.100619 252.940182 
L 124.58989 252.940182 
L 124.58989 252.415935 
L 125.375637 252.415935 
L 125.375637 251.367439 
L 126.418675 251.367439 
L 126.418675 250.843192 
L 126.56265 250.843192 
L 126.56265 249.270448 
L 126.70543 249.270448 
L 126.70543 247.697705 
L 126.987483 247.697705 
L 126.987483 247.173458 
L 127.538086 247.173458 
L 127.538086 246.64921 
L 128.967235 246.64921 
L 128.967235 246.124962 
L 135.859892 246.124962 
L 135.859892 245.600714 
L 136.026124 245.600714 
L 136.026124 245.076467 
L 136.434809 245.076467 
L 136.434809 243.503724 
L 136.991135 243.503724 
L 136.991135 241.93098 
L 137.301141 241.93098 
L 137.301141 239.83399 
L 138.416318 239.83399 
L 138.416318 239.309742 
L 142.555192 239.309742 
L 142.555192 238.261246 
L 142.724144 238.261246 
L 142.724144 237.736999 
L 147.190601 237.736999 
L 147.190601 237.212751 
L 147.951628 237.212751 
L 148.034145 236.164255 
L 151.422929 236.164255 
L 151.422929 233.543017 
L 151.856829 233.543017 
L 151.856829 233.018769 
L 152.630211 233.018769 
L 152.630211 232.494521 
L 154.281465 232.494521 
L 154.281465 230.921778 
L 154.537198 230.921778 
L 154.537198 230.397531 
L 154.677647 230.397531 
L 154.677647 228.824787 
L 156.099903 228.824787 
L 156.176997 226.727797 
L 156.929516 226.727797 
L 156.929516 226.203549 
L 157.48495 226.203549 
L 157.48495 225.155053 
L 157.697504 225.155053 
L 157.767776 223.58231 
L 158.251803 223.58231 
L 158.251803 222.533815 
L 158.365067 222.533815 
L 158.365067 220.436824 
L 158.522396 220.436824 
L 158.522396 219.912576 
L 158.942317 219.912576 
L 158.942317 219.388328 
L 163.365326 219.388328 
L 163.43273 217.291338 
L 163.683169 217.291338 
L 163.683169 216.76709 
L 163.831701 216.76709 
L 163.831701 216.242842 
L 165.174662 216.242842 
L 165.174662 215.718594 
L 168.432642 215.718594 
L 168.470331 213.097356 
L 170.592714 213.097356 
L 170.592714 212.573108 
L 171.56317 212.573108 
L 171.615513 209.427622 
L 174.264668 209.427622 
L 174.318349 205.757888 
L 174.380766 205.757888 
L 174.442958 201.563906 
L 174.654496 201.563906 
L 174.654496 201.039658 
L 180.047226 201.039658 
L 180.047226 200.515411 
L 180.181166 200.515411 
L 180.181166 199.991163 
L 187.66627 199.991163 
L 187.66627 199.466915 
L 188.449997 199.466915 
L 188.449997 198.942667 
L 189.604763 198.942667 
L 189.604763 197.894172 
L 191.853865 197.894172 
L 191.853865 196.321429 
L 195.596684 196.321429 
L 195.596684 195.272933 
L 196.907048 195.272933 
L 196.907048 194.748686 
L 198.055084 194.748686 
L 198.055084 193.70019 
L 199.040235 193.70019 
L 199.040235 192.651695 
L 199.27429 192.651695 
L 199.27429 191.603199 
L 199.655393 191.603199 
L 199.679957 187.409218 
L 200.203738 187.409218 
L 200.229513 185.312227 
L 201.125078 185.312227 
L 201.125078 184.787979 
L 203.843723 184.787979 
L 203.843723 184.263731 
L 203.981273 184.263731 
L 203.981273 183.739484 
L 205.405389 183.739484 
L 205.405389 183.215236 
L 206.199226 183.215236 
L 206.199226 182.690988 
L 206.861297 182.690988 
L 206.861297 182.16674 
L 208.743401 182.16674 
L 208.743401 181.642493 
L 208.977338 181.642493 
L 209.038 180.06975 
L 212.00678 180.06975 
L 212.047698 179.021254 
L 212.531266 179.021254 
L 212.633694 177.972759 
L 213.239495 177.972759 
L 213.348897 176.924263 
L 213.478718 176.924263 
L 213.478718 176.400016 
L 213.904513 176.400016 
L 213.904513 175.875768 
L 215.858919 175.875768 
L 215.858919 175.35152 
L 216.379723 175.35152 
L 216.379723 174.827272 
L 216.518647 174.827272 
L 216.518647 174.303025 
L 216.7371 174.303025 
L 216.7371 173.778777 
L 217.341155 173.778777 
L 217.341155 173.254529 
L 217.867957 173.254529 
L 217.867957 172.730281 
L 217.995412 172.730281 
L 217.995412 172.206034 
L 220.561676 172.206034 
L 220.561676 171.681786 
L 220.723776 171.681786 
L 220.723776 171.157538 
L 221.027503 171.157538 
L 221.027503 170.633291 
L 222.673323 170.633291 
L 222.673323 170.109043 
L 222.950586 170.109043 
L 222.950586 169.584795 
L 223.883255 169.584795 
L 223.883255 169.060547 
L 224.164025 169.060547 
L 224.164025 168.5363 
L 224.276532 168.5363 
L 224.276532 168.012052 
L 226.32744 168.012052 
L 226.32744 167.487804 
L 226.466836 167.487804 
L 226.466836 166.963557 
L 227.312751 166.963557 
L 227.355387 165.915061 
L 227.751244 165.915061 
L 227.751244 165.390813 
L 230.182062 165.390813 
L 230.266624 163.81807 
L 230.311164 163.81807 
L 230.311164 163.293823 
L 231.326777 163.293823 
L 231.326777 162.769575 
L 233.419511 162.769575 
L 233.419511 162.245327 
L 234.615751 162.245327 
L 234.615751 161.721079 
L 239.543588 161.721079 
L 239.543588 161.196832 
L 241.328475 161.196832 
L 241.328475 160.672584 
L 241.561178 160.672584 
L 241.561178 160.148336 
L 247.339862 160.148336 
L 247.339862 159.624089 
L 249.520441 159.624089 
L 249.520441 159.099841 
L 252.036677 159.099841 
L 252.036677 158.575593 
L 333.429677 158.575593 
L 333.429677 158.575593 
" style="fill:none;stroke:#ff00ff;stroke-linecap:square;stroke-width:1.5;"/>
   </g>
   <g id="line2d_35">
    <defs>
     <path d="M -0 8.485281 
L 5.091169 0 
L 0 -8.485281 
L -5.091169 -0 
z
" id="mc659f5d3d5" style="stroke:#ff00ff;stroke-linejoin:miter;stroke-width:1.5;"/>
    </defs>
    <g>
     <use style="fill:none;stroke:#ff00ff;stroke-linejoin:miter;stroke-width:1.5;" x="89.599124" xlink:href="#mc659f5d3d5" y="253.988678"/>
     <use style="fill:none;stroke:#ff00ff;stroke-linejoin:miter;stroke-width:1.5;" x="180.181166" xlink:href="#mc659f5d3d5" y="199.991163"/>
     <use style="fill:none;stroke:#ff00ff;stroke-linejoin:miter;stroke-width:1.5;" x="234.615751" xlink:href="#mc659f5d3d5" y="161.721079"/>
     <use style="fill:none;stroke:#ff00ff;stroke-linejoin:miter;stroke-width:1.5;" x="252.036677" xlink:href="#mc659f5d3d5" y="158.575593"/>
     <use style="fill:none;stroke:#ff00ff;stroke-linejoin:miter;stroke-width:1.5;" x="252.036677" xlink:href="#mc659f5d3d5" y="158.575593"/>
     <use style="fill:none;stroke:#ff00ff;stroke-linejoin:miter;stroke-width:1.5;" x="333.429677" xlink:href="#mc659f5d3d5" y="158.575593"/>
    </g>
   </g>
   <g id="line2d_36">
    <path d="M 0 0 
" style="fill:none;stroke:#ff00ff;stroke-linecap:square;stroke-width:1.5;"/>
    <g>
     <use style="fill:none;stroke:#ff00ff;stroke-linejoin:miter;stroke-width:1.5;" x="0" xlink:href="#mc659f5d3d5" y="0"/>
    </g>
   </g>
   <g id="line2d_37">
    <path clip-path="url(#p8060ccce14)" d="M 202.826659 184.787979 
" style="fill:none;stroke:#ff00ff;stroke-linecap:square;stroke-width:1.5;"/>
    <defs>
     <path d="M -12 12 
L 12 -12 
M -12 -12 
L 12 12 
" id="m90fa63d138" style="stroke:#ff00ff;stroke-width:3;"/>
    </defs>
    <g clip-path="url(#p8060ccce14)">
     <use style="fill:#ff00ff;stroke:#ff00ff;stroke-width:3;" x="202.826659" xlink:href="#m90fa63d138" y="184.787979"/>
    </g>
   </g>
   <g id="line2d_38">
    <defs>
     <path d="M 0 1.5 
C 0.397805 1.5 0.77937 1.341951 1.06066 1.06066 
C 1.341951 0.77937 1.5 0.397805 1.5 0 
C 1.5 -0.397805 1.341951 -0.77937 1.06066 -1.06066 
C 0.77937 -1.341951 0.397805 -1.5 0 -1.5 
C -0.397805 -1.5 -0.77937 -1.341951 -1.06066 -1.06066 
C -1.341951 -0.77937 -1.5 -0.397805 -1.5 0 
C -1.5 0.397805 -1.341951 0.77937 -1.06066 1.06066 
C -0.77937 1.341951 -0.397805 1.5 0 1.5 
z
" id="m801e064b07" style="stroke:#ffa500;"/>
    </defs>
    <g>
     <use style="fill:#ffa500;stroke:#ffa500;" x="265.166665" xlink:href="#m801e064b07" y="142.848162"/>
     <use style="fill:#ffa500;stroke:#ffa500;" x="265.166665" xlink:href="#m801e064b07" y="142.848162"/>
    </g>
   </g>
   <g id="line2d_39">
    <path d="M 44.194496 294.88 
L 44.194496 279.152568 
L 68.045504 279.152568 
L 68.045504 277.579825 
L 75.021477 277.579825 
L 75.021477 269.191862 
L 77.673619 269.191862 
L 77.673619 264.473632 
L 79.971009 264.473632 
L 79.971009 263.425137 
L 81.99745 263.425137 
L 81.99745 255.037173 
L 83.810164 255.037173 
L 83.810164 252.415935 
L 85.449963 252.415935 
L 85.449963 251.367439 
L 86.946982 251.367439 
L 86.946982 249.794696 
L 88.324106 249.794696 
L 88.324106 248.746201 
L 89.599124 248.746201 
L 89.599124 248.221953 
L 91.896513 248.221953 
L 91.896513 246.124962 
L 122.361274 246.124962 
L 122.361274 245.076467 
L 123.252917 245.076467 
L 123.252917 242.979476 
L 123.766534 242.979476 
L 123.766534 241.406733 
L 124.428341 241.406733 
L 124.428341 240.882485 
L 124.58989 240.882485 
L 124.58989 239.83399 
L 124.749936 239.83399 
L 124.749936 239.309742 
L 125.221332 239.309742 
L 125.221332 237.736999 
L 126.12706 237.736999 
L 126.12706 237.212751 
L 126.56265 237.212751 
L 126.56265 235.11576 
L 126.847034 235.11576 
L 126.847034 234.591512 
L 127.673027 234.591512 
L 127.673027 234.067265 
L 127.806917 234.067265 
L 127.806917 233.543017 
L 134.559157 233.543017 
L 134.559157 232.494521 
L 135.692038 232.494521 
L 135.692038 231.970274 
L 135.859892 231.970274 
L 135.859892 230.397531 
L 136.108641 230.397531 
L 136.108641 229.873283 
L 136.272498 229.873283 
L 136.272498 229.349035 
L 136.834012 229.349035 
L 136.912753 227.252044 
L 137.755922 227.252044 
L 137.755922 226.727797 
L 142.555192 226.727797 
L 142.555192 225.679301 
L 143.275629 225.679301 
L 143.275629 225.155053 
L 144.631866 225.155053 
L 144.631866 224.630806 
L 147.103926 224.630806 
L 147.103926 223.058063 
L 147.65966 223.058063 
L 147.65966 221.485319 
L 148.561073 221.485319 
L 148.561073 220.961072 
L 152.215616 220.961072 
L 152.215616 219.388328 
L 152.567074 219.388328 
L 152.567074 218.864081 
L 157.293783 218.864081 
L 157.293783 218.339833 
L 159.094477 218.339833 
L 159.094477 217.291338 
L 159.288155 217.291338 
L 159.288155 216.76709 
L 159.918441 216.76709 
L 159.918441 215.718594 
L 162.231295 215.718594 
L 162.231295 215.194347 
L 163.897306 215.194347 
L 163.978962 210.476117 
L 165.595046 210.476117 
L 165.595046 208.903374 
L 166.306873 208.903374 
L 166.335311 207.330631 
L 168.089676 207.330631 
L 168.19201 204.185145 
L 168.268364 204.185145 
L 168.331733 203.136649 
L 173.419862 203.136649 
L 173.419862 202.612401 
L 180.489697 202.612401 
L 180.545769 199.466915 
L 182.601214 199.466915 
L 182.67282 195.797181 
L 184.668697 195.797181 
L 184.756577 193.175943 
L 185.671667 193.175943 
L 185.671667 192.127447 
L 186.470149 192.127447 
L 186.505378 190.554704 
L 191.156497 190.554704 
L 191.156497 190.030456 
L 196.50587 190.030456 
L 196.554999 186.360722 
L 197.928726 186.360722 
L 197.928726 185.312227 
L 202.272676 185.312227 
L 202.284988 182.16674 
L 202.840283 182.16674 
L 202.840283 181.642493 
L 203.142322 181.642493 
L 203.142322 181.118245 
L 203.771308 181.118245 
L 203.771308 180.593997 
L 204.378108 180.593997 
L 204.378108 180.06975 
L 204.614652 180.06975 
L 204.617723 179.021254 
L 204.89035 179.021254 
L 204.89035 178.497006 
L 205.798287 178.497006 
L 205.798287 177.972759 
L 206.85321 177.972759 
L 206.85321 177.448511 
L 207.320014 177.448511 
L 207.320014 176.924263 
L 207.861161 176.924263 
L 207.861161 176.400016 
L 211.397614 176.400016 
L 211.397614 175.875768 
L 211.595231 175.875768 
L 211.597278 174.827272 
L 211.791616 174.827272 
L 211.791616 174.303025 
L 211.964763 174.303025 
L 212.002783 172.206034 
L 212.203489 172.206034 
L 212.208427 170.633291 
L 212.550639 170.633291 
L 212.550639 170.109043 
L 214.029335 170.109043 
L 214.033777 169.060547 
L 214.54478 169.060547 
L 214.54478 168.5363 
L 215.425378 168.5363 
L 215.425378 168.012052 
L 215.751554 168.012052 
L 215.851729 166.963557 
L 215.990209 166.963557 
L 216.067716 165.915061 
L 219.772674 165.915061 
L 219.772674 165.390813 
L 220.94925 165.390813 
L 220.988421 164.342318 
L 221.075936 164.342318 
L 221.075936 163.81807 
L 221.311422 163.81807 
L 221.311422 163.293823 
L 221.456836 163.293823 
L 221.456836 162.769575 
L 221.80689 162.769575 
L 221.80689 162.245327 
L 222.257128 162.245327 
L 222.257128 161.721079 
L 224.985488 161.721079 
L 225.071738 160.672584 
L 225.144525 160.672584 
L 225.144525 160.148336 
L 225.270242 160.148336 
L 225.270242 159.624089 
L 226.296987 159.624089 
L 226.296987 159.099841 
L 226.549849 159.099841 
L 226.611526 158.051345 
L 226.666591 158.051345 
L 226.666591 157.527098 
L 226.943917 157.527098 
L 226.943917 157.00285 
L 229.828251 157.00285 
L 229.828251 156.478602 
L 232.239281 156.478602 
L 232.239281 155.954354 
L 232.415626 155.954354 
L 232.415626 155.430107 
L 232.791667 155.430107 
L 232.791667 154.905859 
L 233.055618 154.905859 
L 233.055618 154.381611 
L 233.51366 154.381611 
L 233.51366 153.857364 
L 235.990169 153.857364 
L 236.052028 152.808868 
L 236.169686 152.808868 
L 236.226503 151.760373 
L 236.577183 151.760373 
L 236.638403 150.711877 
L 236.740983 150.711877 
L 236.740983 150.18763 
L 238.333387 150.18763 
L 238.333387 149.663382 
L 239.720309 149.663382 
L 239.720309 149.139134 
L 240.288174 149.139134 
L 240.288174 148.614886 
L 242.039163 148.614886 
L 242.100443 147.566391 
L 243.603471 147.566391 
L 243.677995 146.517896 
L 245.120636 146.517896 
L 245.189173 145.4694 
L 246.701869 145.4694 
L 246.701869 144.945152 
L 248.084762 144.945152 
L 248.084762 144.420905 
L 250.243201 144.420905 
L 250.243201 143.896657 
L 252.286991 143.896657 
L 252.286991 143.372409 
L 265.166665 143.372409 
L 265.166665 142.848162 
L 333.429677 142.848162 
L 333.429677 142.848162 
" style="fill:none;stroke:#ffa500;stroke-linecap:square;stroke-width:1.5;"/>
   </g>
   <g id="line2d_40">
    <defs>
     <path d="M 0 -6 
L -1.347084 -1.854102 
L -5.706339 -1.854102 
L -2.179628 0.708204 
L -3.526712 4.854102 
L -0 2.291796 
L 3.526712 4.854102 
L 2.179628 0.708204 
L 5.706339 -1.854102 
L 1.347084 -1.854102 
z
" id="m081f6844c7" style="stroke:#ffa500;stroke-linejoin:bevel;stroke-width:1.5;"/>
    </defs>
    <g>
     <use style="fill:none;stroke:#ffa500;stroke-linejoin:bevel;stroke-width:1.5;" x="77.673619" xlink:href="#m081f6844c7" y="264.473632"/>
     <use style="fill:none;stroke:#ffa500;stroke-linejoin:bevel;stroke-width:1.5;" x="142.555192" xlink:href="#m081f6844c7" y="226.727797"/>
     <use style="fill:none;stroke:#ffa500;stroke-linejoin:bevel;stroke-width:1.5;" x="185.671667" xlink:href="#m081f6844c7" y="193.175943"/>
     <use style="fill:none;stroke:#ffa500;stroke-linejoin:bevel;stroke-width:1.5;" x="252.286991" xlink:href="#m081f6844c7" y="143.372409"/>
     <use style="fill:none;stroke:#ffa500;stroke-linejoin:bevel;stroke-width:1.5;" x="265.166665" xlink:href="#m081f6844c7" y="142.848162"/>
     <use style="fill:none;stroke:#ffa500;stroke-linejoin:bevel;stroke-width:1.5;" x="333.429677" xlink:href="#m081f6844c7" y="142.848162"/>
    </g>
   </g>
   <g id="line2d_41">
    <path d="M 0 0 
" style="fill:none;stroke:#ffa500;stroke-linecap:square;stroke-width:1.5;"/>
    <g>
     <use style="fill:none;stroke:#ffa500;stroke-linejoin:bevel;stroke-width:1.5;" x="0" xlink:href="#m081f6844c7" y="0"/>
    </g>
   </g>
   <g id="line2d_42">
    <path clip-path="url(#p8060ccce14)" d="M 202.650285 182.16674 
" style="fill:none;stroke:#ffa500;stroke-linecap:square;stroke-width:1.5;"/>
    <defs>
     <path d="M -12 12 
L 12 -12 
M -12 -12 
L 12 12 
" id="mc4a73e105a" style="stroke:#ffa500;stroke-width:3;"/>
    </defs>
    <g clip-path="url(#p8060ccce14)">
     <use style="fill:#ffa500;stroke:#ffa500;stroke-width:3;" x="202.650285" xlink:href="#mc4a73e105a" y="182.16674"/>
    </g>
   </g>
   <g id="line2d_43">
    <defs>
     <path d="M 0 1.5 
C 0.397805 1.5 0.77937 1.341951 1.06066 1.06066 
C 1.341951 0.77937 1.5 0.397805 1.5 0 
C 1.5 -0.397805 1.341951 -0.77937 1.06066 -1.06066 
C 0.77937 -1.341951 0.397805 -1.5 0 -1.5 
C -0.397805 -1.5 -0.77937 -1.341951 -1.06066 -1.06066 
C -1.341951 -0.77937 -1.5 -0.397805 -1.5 0 
C -1.5 0.397805 -1.341951 0.77937 -1.06066 1.06066 
C -0.77937 1.341951 -0.397805 1.5 0 1.5 
z
" id="ma4b3539c99" style="stroke:#6495ed;"/>
    </defs>
    <g>
     <use style="fill:#6495ed;stroke:#6495ed;" x="233.347981" xlink:href="#ma4b3539c99" y="27.513663"/>
     <use style="fill:#6495ed;stroke:#6495ed;" x="233.347981" xlink:href="#ma4b3539c99" y="27.513663"/>
    </g>
   </g>
   <g id="line2d_44">
    <path d="M 44.194496 294.88 
L 44.194496 271.288853 
L 56.12 271.288853 
L 56.12 269.191862 
L 63.095973 269.191862 
L 63.095973 263.425137 
L 68.045504 263.425137 
L 68.045504 262.376641 
L 71.884659 262.376641 
L 71.884659 259.755403 
L 75.021477 259.755403 
L 75.021477 258.18266 
L 77.673619 258.18266 
L 77.673619 255.037173 
L 79.971009 255.037173 
L 79.971009 252.940182 
L 83.810164 252.940182 
L 83.810164 249.794696 
L 85.449963 249.794696 
L 85.449963 247.173458 
L 86.946982 247.173458 
L 86.946982 246.64921 
L 88.324106 246.64921 
L 88.324106 245.076467 
L 89.599124 245.076467 
L 89.599124 244.552219 
L 91.896513 244.552219 
L 91.896513 244.027971 
L 92.939552 244.027971 
L 92.939552 242.979476 
L 93.922955 242.979476 
L 93.922955 241.93098 
L 97.375467 241.93098 
L 97.375467 239.83399 
L 98.140254 239.83399 
L 98.140254 236.688503 
L 102.711641 236.688503 
L 102.711641 236.164255 
L 105.848459 236.164255 
L 105.848459 234.067265 
L 108.500601 234.067265 
L 108.500601 232.494521 
L 109.300972 232.494521 
L 109.300972 231.970274 
L 109.687614 231.970274 
L 109.687614 231.446026 
L 111.500328 231.446026 
L 111.500328 230.921778 
L 112.175115 230.921778 
L 112.175115 230.397531 
L 112.502836 230.397531 
L 112.502836 228.824787 
L 112.824432 228.824787 
L 112.824432 227.252044 
L 113.754651 227.252044 
L 113.754651 226.727797 
L 116.790561 226.727797 
L 116.790561 225.679301 
L 119.370261 225.679301 
L 119.370261 225.155053 
L 119.586677 225.155053 
L 119.586677 223.58231 
L 120.426105 223.58231 
L 120.426105 223.058063 
L 123.934387 223.058063 
L 123.934387 222.533815 
L 126.56265 222.533815 
L 126.56265 222.009567 
L 126.70543 222.009567 
L 126.70543 219.388328 
L 130.05422 219.388328 
L 130.05422 218.864081 
L 130.286722 218.864081 
L 130.286722 216.76709 
L 130.401805 216.76709 
L 130.401805 215.718594 
L 131.076592 215.718594 
L 131.076592 213.097356 
L 131.725909 213.097356 
L 131.831786 211.524613 
L 133.823007 211.524613 
L 133.823007 209.95187 
L 134.286778 209.95187 
L 134.286778 209.427622 
L 137.530034 209.427622 
L 137.530034 208.903374 
L 141.862285 208.903374 
L 141.862285 207.330631 
L 143.057152 207.330631 
L 143.057152 206.282136 
L 143.437686 206.282136 
L 143.544882 205.23364 
L 143.75729 205.23364 
L 143.75729 202.612401 
L 144.225833 202.612401 
L 144.225833 201.563906 
L 144.831345 201.563906 
L 144.831345 200.515411 
L 145.464127 200.515411 
L 145.511852 198.942667 
L 145.98196 198.942667 
L 145.98196 198.41842 
L 148.400654 198.41842 
L 148.440899 196.845677 
L 148.720011 196.845677 
L 148.720011 196.321429 
L 148.91664 196.321429 
L 148.994666 193.70019 
L 149.830387 193.70019 
L 149.941267 191.603199 
L 150.160907 191.603199 
L 150.160907 190.030456 
L 150.768411 190.030456 
L 150.768411 189.506209 
L 151.389095 189.506209 
L 151.389095 188.457713 
L 152.053458 188.457713 
L 152.150936 186.88497 
L 152.880468 186.88497 
L 152.880468 185.312227 
L 158.766756 185.312227 
L 158.876691 183.215236 
L 158.964137 183.215236 
L 158.985929 180.06975 
L 159.479677 180.06975 
L 159.543047 179.021254 
L 159.918441 179.021254 
L 159.918441 177.972759 
L 160.10311 177.972759 
L 160.10311 177.448511 
L 160.225131 177.448511 
L 160.225131 176.924263 
L 161.075171 176.924263 
L 161.075171 174.827272 
L 161.209659 174.827272 
L 161.209659 174.303025 
L 161.531964 174.303025 
L 161.58822 168.5363 
L 161.755892 168.5363 
L 161.774421 167.487804 
L 162.535181 167.487804 
L 162.535181 162.769575 
L 162.885955 162.769575 
L 162.885955 160.148336 
L 163.782333 160.148336 
L 163.782333 158.051345 
L 164.929749 158.051345 
L 164.929749 157.00285 
L 165.46104 157.00285 
L 165.475981 155.430107 
L 165.801448 155.430107 
L 165.903728 153.857364 
L 166.178318 153.857364 
L 166.178318 152.808868 
L 166.406201 152.808868 
L 166.406201 152.28462 
L 170.097576 152.28462 
L 170.097576 150.18763 
L 173.457468 150.18763 
L 173.457468 144.420905 
L 173.764623 144.420905 
L 173.764623 142.848162 
L 173.939014 142.848162 
L 173.957268 141.799666 
L 177.438782 141.799666 
L 177.438782 141.275418 
L 177.704956 141.275418 
L 177.756238 138.129932 
L 177.894664 138.129932 
L 177.959848 133.93595 
L 178.010376 133.93595 
L 178.060757 131.838959 
L 178.246602 131.838959 
L 178.345848 128.169225 
L 178.444524 128.169225 
L 178.444524 126.596482 
L 178.619336 126.596482 
L 178.702619 123.975244 
L 178.764818 123.975244 
L 178.764818 121.878253 
L 179.314715 121.878253 
L 179.394707 117.684271 
L 182.656322 117.684271 
L 182.766012 115.063032 
L 182.804239 115.063032 
L 182.804239 114.014537 
L 183.530561 114.014537 
L 183.530561 111.393298 
L 183.702273 111.393298 
L 183.810659 108.247812 
L 183.867161 108.247812 
L 183.867161 105.102326 
L 184.172129 105.102326 
L 184.257563 101.956839 
L 186.505378 101.956839 
L 186.597512 99.335601 
L 195.84387 99.335601 
L 195.84387 97.762858 
L 199.490733 97.762858 
L 199.585605 89.899142 
L 199.671773 89.899142 
L 199.76769 84.656665 
L 200.203738 84.656665 
L 200.203738 84.132417 
L 200.87883 84.132417 
L 200.87883 83.083922 
L 202.906543 83.083922 
L 202.99787 77.317197 
L 203.021468 77.317197 
L 203.071927 72.074719 
L 204.163504 72.074719 
L 204.246844 70.501976 
L 206.591033 70.501976 
L 206.60198 58.444279 
L 206.705632 58.444279 
L 206.705632 57.920031 
L 213.997325 57.920031 
L 214.087867 47.435077 
L 215.422101 47.435077 
L 215.474455 44.813838 
L 216.573138 44.813838 
L 216.651119 38.522865 
L 217.263302 38.522865 
L 217.287577 36.950122 
L 217.729524 36.950122 
L 217.729524 36.425875 
L 220.632026 36.425875 
L 220.69787 34.328884 
L 221.034599 34.328884 
L 221.034599 33.804636 
L 221.688908 33.804636 
L 221.719616 32.231893 
L 223.019736 32.231893 
L 223.02553 30.65915 
L 226.246402 30.65915 
L 226.303082 28.037911 
L 233.347981 28.037911 
L 233.347981 27.513663 
L 333.429677 27.513663 
L 333.429677 27.513663 
" style="fill:none;stroke:#6495ed;stroke-linecap:square;stroke-width:1.5;"/>
   </g>
   <g id="line2d_45">
    <defs>
     <path d="M -0 6 
L 6 -6 
L -6 -6 
z
" id="m9483322cc5" style="stroke:#6495ed;stroke-linejoin:miter;stroke-width:1.5;"/>
    </defs>
    <g>
     <use style="fill:none;stroke:#6495ed;stroke-linejoin:miter;stroke-width:1.5;" x="83.810164" xlink:href="#m9483322cc5" y="252.940182"/>
     <use style="fill:none;stroke:#6495ed;stroke-linejoin:miter;stroke-width:1.5;" x="141.862285" xlink:href="#m9483322cc5" y="208.903374"/>
     <use style="fill:none;stroke:#6495ed;stroke-linejoin:miter;stroke-width:1.5;" x="179.314715" xlink:href="#m9483322cc5" y="119.781262"/>
     <use style="fill:none;stroke:#6495ed;stroke-linejoin:miter;stroke-width:1.5;" x="226.303082" xlink:href="#m9483322cc5" y="28.037911"/>
     <use style="fill:none;stroke:#6495ed;stroke-linejoin:miter;stroke-width:1.5;" x="233.347981" xlink:href="#m9483322cc5" y="27.513663"/>
     <use style="fill:none;stroke:#6495ed;stroke-linejoin:miter;stroke-width:1.5;" x="333.429677" xlink:href="#m9483322cc5" y="27.513663"/>
    </g>
   </g>
   <g id="line2d_46">
    <path d="M 0 0 
" style="fill:none;stroke:#6495ed;stroke-linecap:square;stroke-width:1.5;"/>
    <g>
     <use style="fill:none;stroke:#6495ed;stroke-linejoin:miter;stroke-width:1.5;" x="0" xlink:href="#m9483322cc5" y="0"/>
    </g>
   </g>
   <g id="line2d_47">
    <path clip-path="url(#p8060ccce14)" d="M 214.653069 47.435077 
" style="fill:none;stroke:#6495ed;stroke-linecap:square;stroke-width:1.5;"/>
    <defs>
     <path d="M -12 12 
L 12 -12 
M -12 -12 
L 12 12 
" id="m9e0b95c4bd" style="stroke:#6495ed;stroke-width:3;"/>
    </defs>
    <g clip-path="url(#p8060ccce14)">
     <use style="fill:#6495ed;stroke:#6495ed;stroke-width:3;" x="214.653069" xlink:href="#m9e0b95c4bd" y="47.435077"/>
    </g>
   </g>
   <g id="line2d_48">
    <path d="M 333.429677 158.575593 
L 363.933742 289.532673 
" style="fill:none;stroke:#ff00ff;stroke-linecap:square;stroke-width:1.5;"/>
    <g>
     <use style="fill:none;stroke:#ff00ff;stroke-linejoin:miter;stroke-width:1.5;" x="333.429677" xlink:href="#mc659f5d3d5" y="158.575593"/>
     <use style="fill:none;stroke:#ff00ff;stroke-linejoin:miter;stroke-width:1.5;" x="363.933742" xlink:href="#mc659f5d3d5" y="289.532673"/>
    </g>
   </g>
   <g id="line2d_49">
    <path d="M 333.429677 142.848162 
L 363.933742 225.364752 
" style="fill:none;stroke:#ffa500;stroke-linecap:square;stroke-width:1.5;"/>
    <g>
     <use style="fill:none;stroke:#ffa500;stroke-linejoin:bevel;stroke-width:1.5;" x="333.429677" xlink:href="#m081f6844c7" y="142.848162"/>
     <use style="fill:none;stroke:#ffa500;stroke-linejoin:bevel;stroke-width:1.5;" x="363.933742" xlink:href="#m081f6844c7" y="225.364752"/>
    </g>
   </g>
   <g id="line2d_50">
    <path d="M 333.429677 121.878253 
L 363.933742 161.196832 
" style="fill:none;stroke:#000080;stroke-linecap:square;stroke-width:1.5;"/>
    <g>
     <use style="fill:none;stroke:#000080;stroke-width:1.5;" x="333.429677" xlink:href="#mb7dafeb16a" y="121.878253"/>
     <use style="fill:none;stroke:#000080;stroke-width:1.5;" x="363.933742" xlink:href="#mb7dafeb16a" y="161.196832"/>
    </g>
   </g>
   <g id="line2d_51">
    <path d="M 333.429677 27.513663 
L 363.933742 97.028911 
" style="fill:none;stroke:#6495ed;stroke-linecap:square;stroke-width:1.5;"/>
    <g>
     <use style="fill:none;stroke:#6495ed;stroke-linejoin:miter;stroke-width:1.5;" x="333.429677" xlink:href="#m9483322cc5" y="27.513663"/>
     <use style="fill:none;stroke:#6495ed;stroke-linejoin:miter;stroke-width:1.5;" x="363.933742" xlink:href="#m9483322cc5" y="97.028911"/>
    </g>
   </g>
   <g id="line2d_52">
    <path d="M 333.429677 294.88 
L 333.429677 27.513663 
" style="fill:none;stroke:#000000;stroke-linecap:square;stroke-width:1.5;"/>
   </g>
   <g id="patch_3">
    <path d="M 56.12 294.88 
L 56.12 24.84 
" style="fill:none;stroke:#000000;stroke-linecap:square;stroke-linejoin:miter;stroke-width:0.8;"/>
   </g>
   <g id="patch_4">
    <path d="M 399.984 294.88 
L 399.984 24.84 
" style="fill:none;stroke:#000000;stroke-linecap:square;stroke-linejoin:miter;stroke-width:0.8;"/>
   </g>
   <g id="patch_5">
    <path d="M 56.12 294.88 
L 399.984 294.88 
" style="fill:none;stroke:#000000;stroke-linecap:square;stroke-linejoin:miter;stroke-width:0.8;"/>
   </g>
   <g id="patch_6">
    <path d="M 56.12 24.84 
L 399.984 24.84 
" style="fill:none;stroke:#000000;stroke-linecap:square;stroke-linejoin:miter;stroke-width:0.8;"/>
   </g>
   <g id="text_14">
    <!-- NEWUOA ro -->
    <defs>
     <path d="M 9.8125 72.90625 
L 23.09375 72.90625 
L 55.421875 11.921875 
L 55.421875 72.90625 
L 64.984375 72.90625 
L 64.984375 0 
L 51.703125 0 
L 19.390625 60.984375 
L 19.390625 0 
L 9.8125 0 
z
" id="DejaVuSans-4e"/>
     <path d="M 9.8125 72.90625 
L 55.90625 72.90625 
L 55.90625 64.59375 
L 19.671875 64.59375 
L 19.671875 43.015625 
L 54.390625 43.015625 
L 54.390625 34.71875 
L 19.671875 34.71875 
L 19.671875 8.296875 
L 56.78125 8.296875 
L 56.78125 0 
L 9.8125 0 
z
" id="DejaVuSans-45"/>
     <path d="M 3.328125 72.90625 
L 13.28125 72.90625 
L 28.609375 11.28125 
L 43.890625 72.90625 
L 54.984375 72.90625 
L 70.3125 11.28125 
L 85.59375 72.90625 
L 95.609375 72.90625 
L 77.296875 0 
L 64.890625 0 
L 49.515625 63.28125 
L 33.984375 0 
L 21.578125 0 
z
" id="DejaVuSans-57"/>
     <path d="M 8.6875 72.90625 
L 18.609375 72.90625 
L 18.609375 28.609375 
Q 18.609375 16.890625 22.84375 11.734375 
Q 27.09375 6.59375 36.625 6.59375 
Q 46.09375 6.59375 50.34375 11.734375 
Q 54.59375 16.890625 54.59375 28.609375 
L 54.59375 72.90625 
L 64.5 72.90625 
L 64.5 27.390625 
Q 64.5 13.140625 57.4375 5.859375 
Q 50.390625 -1.421875 36.625 -1.421875 
Q 22.796875 -1.421875 15.734375 5.859375 
Q 8.6875 13.140625 8.6875 27.390625 
z
" id="DejaVuSans-55"/>
     <path d="M 39.40625 66.21875 
Q 28.65625 66.21875 22.328125 58.203125 
Q 16.015625 50.203125 16.015625 36.375 
Q 16.015625 22.609375 22.328125 14.59375 
Q 28.65625 6.59375 39.40625 6.59375 
Q 50.140625 6.59375 56.421875 14.59375 
Q 62.703125 22.609375 62.703125 36.375 
Q 62.703125 50.203125 56.421875 58.203125 
Q 50.140625 66.21875 39.40625 66.21875 
z
M 39.40625 74.21875 
Q 54.734375 74.21875 63.90625 63.9375 
Q 73.09375 53.65625 73.09375 36.375 
Q 73.09375 19.140625 63.90625 8.859375 
Q 54.734375 -1.421875 39.40625 -1.421875 
Q 24.03125 -1.421875 14.8125 8.828125 
Q 5.609375 19.09375 5.609375 36.375 
Q 5.609375 53.65625 14.8125 63.9375 
Q 24.03125 74.21875 39.40625 74.21875 
z
" id="DejaVuSans-4f"/>
     <path d="M 34.1875 63.1875 
L 20.796875 26.90625 
L 47.609375 26.90625 
z
M 28.609375 72.90625 
L 39.796875 72.90625 
L 67.578125 0 
L 57.328125 0 
L 50.6875 18.703125 
L 17.828125 18.703125 
L 11.1875 0 
L 0.78125 0 
z
" id="DejaVuSans-41"/>
    </defs>
    <g transform="translate(369.479935 294.223611)scale(0.17 -0.17)">
     <use xlink:href="#DejaVuSans-4e"/>
     <use x="74.804688" xlink:href="#DejaVuSans-45"/>
     <use x="137.988281" xlink:href="#DejaVuSans-57"/>
     <use x="236.865234" xlink:href="#DejaVuSans-55"/>
     <use x="310.058594" xlink:href="#DejaVuSans-4f"/>
     <use x="388.753906" xlink:href="#DejaVuSans-41"/>
     <use x="457.162109" xlink:href="#DejaVuSans-20"/>
     <use x="488.949219" xlink:href="#DejaVuSans-72"/>
     <use x="530.03125" xlink:href="#DejaVuSans-6f"/>
    </g>
   </g>
   <g id="text_15">
    <!-- AVGNEWUOA -->
    <defs>
     <path d="M 28.609375 0 
L 0.78125 72.90625 
L 11.078125 72.90625 
L 34.1875 11.53125 
L 57.328125 72.90625 
L 67.578125 72.90625 
L 39.796875 0 
z
" id="DejaVuSans-56"/>
     <path d="M 59.515625 10.40625 
L 59.515625 29.984375 
L 43.40625 29.984375 
L 43.40625 38.09375 
L 69.28125 38.09375 
L 69.28125 6.78125 
Q 63.578125 2.734375 56.6875 0.65625 
Q 49.8125 -1.421875 42 -1.421875 
Q 24.90625 -1.421875 15.25 8.5625 
Q 5.609375 18.5625 5.609375 36.375 
Q 5.609375 54.25 15.25 64.234375 
Q 24.90625 74.21875 42 74.21875 
Q 49.125 74.21875 55.546875 72.453125 
Q 61.96875 70.703125 67.390625 67.28125 
L 67.390625 56.78125 
Q 61.921875 61.421875 55.765625 63.765625 
Q 49.609375 66.109375 42.828125 66.109375 
Q 29.4375 66.109375 22.71875 58.640625 
Q 16.015625 51.171875 16.015625 36.375 
Q 16.015625 21.625 22.71875 14.15625 
Q 29.4375 6.6875 42.828125 6.6875 
Q 48.046875 6.6875 52.140625 7.59375 
Q 56.25 8.5 59.515625 10.40625 
z
" id="DejaVuSans-47"/>
    </defs>
    <g transform="translate(369.479935 230.05569)scale(0.17 -0.17)">
     <use xlink:href="#DejaVuSans-41"/>
     <use x="68.314453" xlink:href="#DejaVuSans-56"/>
     <use x="136.722656" xlink:href="#DejaVuSans-47"/>
     <use x="214.212891" xlink:href="#DejaVuSans-4e"/>
     <use x="289.017578" xlink:href="#DejaVuSans-45"/>
     <use x="352.201172" xlink:href="#DejaVuSans-57"/>
     <use x="451.078125" xlink:href="#DejaVuSans-55"/>
     <use x="524.271484" xlink:href="#DejaVuSans-4f"/>
     <use x="602.966797" xlink:href="#DejaVuSans-41"/>
    </g>
   </g>
   <g id="text_16">
    <!-- FULLNEWUO -->
    <defs>
     <path d="M 9.8125 72.90625 
L 19.671875 72.90625 
L 19.671875 8.296875 
L 55.171875 8.296875 
L 55.171875 0 
L 9.8125 0 
z
" id="DejaVuSans-4c"/>
    </defs>
    <g transform="translate(369.479935 165.887769)scale(0.17 -0.17)">
     <use xlink:href="#DejaVuSans-46"/>
     <use x="57.519531" xlink:href="#DejaVuSans-55"/>
     <use x="130.712891" xlink:href="#DejaVuSans-4c"/>
     <use x="186.425781" xlink:href="#DejaVuSans-4c"/>
     <use x="242.138672" xlink:href="#DejaVuSans-4e"/>
     <use x="316.943359" xlink:href="#DejaVuSans-45"/>
     <use x="380.126953" xlink:href="#DejaVuSans-57"/>
     <use x="479.003906" xlink:href="#DejaVuSans-55"/>
     <use x="552.197266" xlink:href="#DejaVuSans-4f"/>
    </g>
   </g>
   <g id="text_17">
    <!-- DFO -->
    <defs>
     <path d="M 19.671875 64.796875 
L 19.671875 8.109375 
L 31.59375 8.109375 
Q 46.6875 8.109375 53.6875 14.9375 
Q 60.6875 21.78125 60.6875 36.53125 
Q 60.6875 51.171875 53.6875 57.984375 
Q 46.6875 64.796875 31.59375 64.796875 
z
M 9.8125 72.90625 
L 30.078125 72.90625 
Q 51.265625 72.90625 61.171875 64.09375 
Q 71.09375 55.28125 71.09375 36.53125 
Q 71.09375 17.671875 61.125 8.828125 
Q 51.171875 0 30.078125 0 
L 9.8125 0 
z
" id="DejaVuSans-44"/>
    </defs>
    <g transform="translate(369.479935 101.719848)scale(0.17 -0.17)">
     <use xlink:href="#DejaVuSans-44"/>
     <use x="77.001953" xlink:href="#DejaVuSans-46"/>
     <use x="134.521484" xlink:href="#DejaVuSans-4f"/>
    </g>
   </g>
   <g id="text_18">
    <!-- best 2009 -->
    <defs>
     <path d="M 48.6875 27.296875 
Q 48.6875 37.203125 44.609375 42.84375 
Q 40.53125 48.484375 33.40625 48.484375 
Q 26.265625 48.484375 22.1875 42.84375 
Q 18.109375 37.203125 18.109375 27.296875 
Q 18.109375 17.390625 22.1875 11.75 
Q 26.265625 6.109375 33.40625 6.109375 
Q 40.53125 6.109375 44.609375 11.75 
Q 48.6875 17.390625 48.6875 27.296875 
z
M 18.109375 46.390625 
Q 20.953125 51.265625 25.265625 53.625 
Q 29.59375 56 35.59375 56 
Q 45.5625 56 51.78125 48.09375 
Q 58.015625 40.1875 58.015625 27.296875 
Q 58.015625 14.40625 51.78125 6.484375 
Q 45.5625 -1.421875 35.59375 -1.421875 
Q 29.59375 -1.421875 25.265625 0.953125 
Q 20.953125 3.328125 18.109375 8.203125 
L 18.109375 0 
L 9.078125 0 
L 9.078125 75.984375 
L 18.109375 75.984375 
z
" id="DejaVuSans-62"/>
     <path d="M 10.984375 1.515625 
L 10.984375 10.5 
Q 14.703125 8.734375 18.5 7.8125 
Q 22.3125 6.890625 25.984375 6.890625 
Q 35.75 6.890625 40.890625 13.453125 
Q 46.046875 20.015625 46.78125 33.40625 
Q 43.953125 29.203125 39.59375 26.953125 
Q 35.25 24.703125 29.984375 24.703125 
Q 19.046875 24.703125 12.671875 31.3125 
Q 6.296875 37.9375 6.296875 49.421875 
Q 6.296875 60.640625 12.9375 67.421875 
Q 19.578125 74.21875 30.609375 74.21875 
Q 43.265625 74.21875 49.921875 64.515625 
Q 56.59375 54.828125 56.59375 36.375 
Q 56.59375 19.140625 48.40625 8.859375 
Q 40.234375 -1.421875 26.421875 -1.421875 
Q 22.703125 -1.421875 18.890625 -0.6875 
Q 15.09375 0.046875 10.984375 1.515625 
z
M 30.609375 32.421875 
Q 37.25 32.421875 41.125 36.953125 
Q 45.015625 41.5 45.015625 49.421875 
Q 45.015625 57.28125 41.125 61.84375 
Q 37.25 66.40625 30.609375 66.40625 
Q 23.96875 66.40625 20.09375 61.84375 
Q 16.21875 57.28125 16.21875 49.421875 
Q 16.21875 41.5 20.09375 36.953125 
Q 23.96875 32.421875 30.609375 32.421875 
z
" id="DejaVuSans-39"/>
    </defs>
    <g transform="translate(369.479935 37.551928)scale(0.17 -0.17)">
     <use xlink:href="#DejaVuSans-62"/>
     <use x="63.476562" xlink:href="#DejaVuSans-65"/>
     <use x="125" xlink:href="#DejaVuSans-73"/>
     <use x="177.099609" xlink:href="#DejaVuSans-74"/>
     <use x="216.308594" xlink:href="#DejaVuSans-20"/>
     <use x="248.095703" xlink:href="#DejaVuSans-32"/>
     <use x="311.71875" xlink:href="#DejaVuSans-30"/>
     <use x="375.341797" xlink:href="#DejaVuSans-30"/>
     <use x="438.964844" xlink:href="#DejaVuSans-39"/>
    </g>
   </g>
   <g id="text_19">
    <!-- bbob f17, 2-D -->
    <defs>
     <path d="M 8.203125 72.90625 
L 55.078125 72.90625 
L 55.078125 68.703125 
L 28.609375 0 
L 18.3125 0 
L 43.21875 64.59375 
L 8.203125 64.59375 
z
" id="DejaVuSans-37"/>
    </defs>
    <g transform="translate(59.55864 35.290806)scale(0.102 -0.102)">
     <use xlink:href="#DejaVuSans-62"/>
     <use x="63.476562" xlink:href="#DejaVuSans-62"/>
     <use x="126.953125" xlink:href="#DejaVuSans-6f"/>
     <use x="188.134766" xlink:href="#DejaVuSans-62"/>
     <use x="251.611328" xlink:href="#DejaVuSans-20"/>
     <use x="283.398438" xlink:href="#DejaVuSans-66"/>
     <use x="318.603516" xlink:href="#DejaVuSans-31"/>
     <use x="382.226562" xlink:href="#DejaVuSans-37"/>
     <use x="445.849609" xlink:href="#DejaVuSans-2c"/>
     <use x="477.636719" xlink:href="#DejaVuSans-20"/>
     <use x="509.423828" xlink:href="#DejaVuSans-32"/>
     <use x="573.046875" xlink:href="#DejaVuSans-2d"/>
     <use x="609.130859" xlink:href="#DejaVuSans-44"/>
    </g>
    <!-- 51 targets: 100..1e-08 -->
    <defs>
     <path d="M 10.796875 72.90625 
L 49.515625 72.90625 
L 49.515625 64.59375 
L 19.828125 64.59375 
L 19.828125 46.734375 
Q 21.96875 47.46875 24.109375 47.828125 
Q 26.265625 48.1875 28.421875 48.1875 
Q 40.625 48.1875 47.75 41.5 
Q 54.890625 34.8125 54.890625 23.390625 
Q 54.890625 11.625 47.5625 5.09375 
Q 40.234375 -1.421875 26.90625 -1.421875 
Q 22.3125 -1.421875 17.546875 -0.640625 
Q 12.796875 0.140625 7.71875 1.703125 
L 7.71875 11.625 
Q 12.109375 9.234375 16.796875 8.0625 
Q 21.484375 6.890625 26.703125 6.890625 
Q 35.15625 6.890625 40.078125 11.328125 
Q 45.015625 15.765625 45.015625 23.390625 
Q 45.015625 31 40.078125 35.4375 
Q 35.15625 39.890625 26.703125 39.890625 
Q 22.75 39.890625 18.8125 39.015625 
Q 14.890625 38.140625 10.796875 36.28125 
z
" id="DejaVuSans-35"/>
     <path d="M 11.71875 12.40625 
L 22.015625 12.40625 
L 22.015625 0 
L 11.71875 0 
z
M 11.71875 51.703125 
L 22.015625 51.703125 
L 22.015625 39.3125 
L 11.71875 39.3125 
z
" id="DejaVuSans-3a"/>
    </defs>
    <g transform="translate(59.55864 46.712575)scale(0.102 -0.102)">
     <use xlink:href="#DejaVuSans-35"/>
     <use x="63.623047" xlink:href="#DejaVuSans-31"/>
     <use x="127.246094" xlink:href="#DejaVuSans-20"/>
     <use x="159.033203" xlink:href="#DejaVuSans-74"/>
     <use x="198.242188" xlink:href="#DejaVuSans-61"/>
     <use x="259.521484" xlink:href="#DejaVuSans-72"/>
     <use x="300.619141" xlink:href="#DejaVuSans-67"/>
     <use x="364.095703" xlink:href="#DejaVuSans-65"/>
     <use x="425.619141" xlink:href="#DejaVuSans-74"/>
     <use x="464.828125" xlink:href="#DejaVuSans-73"/>
     <use x="516.927734" xlink:href="#DejaVuSans-3a"/>
     <use x="550.619141" xlink:href="#DejaVuSans-20"/>
     <use x="582.40625" xlink:href="#DejaVuSans-31"/>
     <use x="646.029297" xlink:href="#DejaVuSans-30"/>
     <use x="709.652344" xlink:href="#DejaVuSans-30"/>
     <use x="773.275391" xlink:href="#DejaVuSans-2e"/>
     <use x="805.0625" xlink:href="#DejaVuSans-2e"/>
     <use x="836.849609" xlink:href="#DejaVuSans-31"/>
     <use x="900.472656" xlink:href="#DejaVuSans-65"/>
     <use x="961.996094" xlink:href="#DejaVuSans-2d"/>
     <use x="998.080078" xlink:href="#DejaVuSans-30"/>
     <use x="1061.703125" xlink:href="#DejaVuSans-38"/>
    </g>
    <!-- 10, 15 instances -->
    <g transform="translate(59.55864 58.134344)scale(0.102 -0.102)">
     <use xlink:href="#DejaVuSans-31"/>
     <use x="63.623047" xlink:href="#DejaVuSans-30"/>
     <use x="127.246094" xlink:href="#DejaVuSans-2c"/>
     <use x="159.033203" xlink:href="#DejaVuSans-20"/>
     <use x="190.820312" xlink:href="#DejaVuSans-31"/>
     <use x="254.443359" xlink:href="#DejaVuSans-35"/>
     <use x="318.066406" xlink:href="#DejaVuSans-20"/>
     <use x="349.853516" xlink:href="#DejaVuSans-69"/>
     <use x="377.636719" xlink:href="#DejaVuSans-6e"/>
     <use x="441.015625" xlink:href="#DejaVuSans-73"/>
     <use x="493.115234" xlink:href="#DejaVuSans-74"/>
     <use x="532.324219" xlink:href="#DejaVuSans-61"/>
     <use x="593.603516" xlink:href="#DejaVuSans-6e"/>
     <use x="656.982422" xlink:href="#DejaVuSans-63"/>
     <use x="711.962891" xlink:href="#DejaVuSans-65"/>
     <use x="773.486328" xlink:href="#DejaVuSans-73"/>
    </g>
   </g>
   <g id="text_20">
    <!-- v2.0.805 -->
    <g style="fill:#808080;" transform="translate(206.00825 290.099912)scale(0.1 -0.1)">
     <use xlink:href="#DejaVuSans-76"/>
     <use x="59.179688" xlink:href="#DejaVuSans-32"/>
     <use x="122.802734" xlink:href="#DejaVuSans-2e"/>
     <use x="154.589844" xlink:href="#DejaVuSans-30"/>
     <use x="218.212891" xlink:href="#DejaVuSans-2e"/>
     <use x="250" xlink:href="#DejaVuSans-38"/>
     <use x="313.623047" xlink:href="#DejaVuSans-30"/>
     <use x="377.246094" xlink:href="#DejaVuSans-35"/>
    </g>
   </g>
   <g id="text_21">
    <!-- 17 Schaffer F7, condition 10 -->
    <defs>
     <path d="M 53.515625 70.515625 
L 53.515625 60.890625 
Q 47.90625 63.578125 42.921875 64.890625 
Q 37.9375 66.21875 33.296875 66.21875 
Q 25.25 66.21875 20.875 63.09375 
Q 16.5 59.96875 16.5 54.203125 
Q 16.5 49.359375 19.40625 46.890625 
Q 22.3125 44.4375 30.421875 42.921875 
L 36.375 41.703125 
Q 47.40625 39.59375 52.65625 34.296875 
Q 57.90625 29 57.90625 20.125 
Q 57.90625 9.515625 50.796875 4.046875 
Q 43.703125 -1.421875 29.984375 -1.421875 
Q 24.8125 -1.421875 18.96875 -0.25 
Q 13.140625 0.921875 6.890625 3.21875 
L 6.890625 13.375 
Q 12.890625 10.015625 18.65625 8.296875 
Q 24.421875 6.59375 29.984375 6.59375 
Q 38.421875 6.59375 43.015625 9.90625 
Q 47.609375 13.234375 47.609375 19.390625 
Q 47.609375 24.75 44.3125 27.78125 
Q 41.015625 30.8125 33.5 32.328125 
L 27.484375 33.5 
Q 16.453125 35.6875 11.515625 40.375 
Q 6.59375 45.0625 6.59375 53.421875 
Q 6.59375 63.09375 13.40625 68.65625 
Q 20.21875 74.21875 32.171875 74.21875 
Q 37.3125 74.21875 42.625 73.28125 
Q 47.953125 72.359375 53.515625 70.515625 
z
" id="DejaVuSans-53"/>
     <path d="M 54.890625 33.015625 
L 54.890625 0 
L 45.90625 0 
L 45.90625 32.71875 
Q 45.90625 40.484375 42.875 44.328125 
Q 39.84375 48.1875 33.796875 48.1875 
Q 26.515625 48.1875 22.3125 43.546875 
Q 18.109375 38.921875 18.109375 30.90625 
L 18.109375 0 
L 9.078125 0 
L 9.078125 75.984375 
L 18.109375 75.984375 
L 18.109375 46.1875 
Q 21.34375 51.125 25.703125 53.5625 
Q 30.078125 56 35.796875 56 
Q 45.21875 56 50.046875 50.171875 
Q 54.890625 44.34375 54.890625 33.015625 
z
" id="DejaVuSans-68"/>
    </defs>
    <g transform="translate(86.744188 18.84)scale(0.2 -0.2)">
     <use xlink:href="#DejaVuSans-31"/>
     <use x="63.623047" xlink:href="#DejaVuSans-37"/>
     <use x="127.246094" xlink:href="#DejaVuSans-20"/>
     <use x="159.033203" xlink:href="#DejaVuSans-53"/>
     <use x="222.509766" xlink:href="#DejaVuSans-63"/>
     <use x="277.490234" xlink:href="#DejaVuSans-68"/>
     <use x="340.869141" xlink:href="#DejaVuSans-61"/>
     <use x="402.148438" xlink:href="#DejaVuSans-66"/>
     <use x="437.353516" xlink:href="#DejaVuSans-66"/>
     <use x="472.558594" xlink:href="#DejaVuSans-65"/>
     <use x="534.082031" xlink:href="#DejaVuSans-72"/>
     <use x="575.195312" xlink:href="#DejaVuSans-20"/>
     <use x="606.982422" xlink:href="#DejaVuSans-46"/>
     <use x="664.501953" xlink:href="#DejaVuSans-37"/>
     <use x="728.125" xlink:href="#DejaVuSans-2c"/>
     <use x="759.912109" xlink:href="#DejaVuSans-20"/>
     <use x="791.699219" xlink:href="#DejaVuSans-63"/>
     <use x="846.679688" xlink:href="#DejaVuSans-6f"/>
     <use x="907.861328" xlink:href="#DejaVuSans-6e"/>
     <use x="971.240234" xlink:href="#DejaVuSans-64"/>
     <use x="1034.716797" xlink:href="#DejaVuSans-69"/>
     <use x="1062.5" xlink:href="#DejaVuSans-74"/>
     <use x="1101.708984" xlink:href="#DejaVuSans-69"/>
     <use x="1129.492188" xlink:href="#DejaVuSans-6f"/>
     <use x="1190.673828" xlink:href="#DejaVuSans-6e"/>
     <use x="1254.052734" xlink:href="#DejaVuSans-20"/>
     <use x="1285.839844" xlink:href="#DejaVuSans-31"/>
     <use x="1349.462891" xlink:href="#DejaVuSans-30"/>
    </g>
   </g>
  </g>
 </g>
 <defs>
  <clipPath id="p8060ccce14">
   <rect height="270.04" width="343.864" x="56.12" y="24.84"/>
  </clipPath>
 </defs>
</svg>
