<?xml version="1.0" encoding="utf-8" standalone="no"?>
<!DOCTYPE svg PUBLIC "-//W3C//DTD SVG 1.1//EN"
  "http://www.w3.org/Graphics/SVG/1.1/DTD/svg11.dtd">
<!-- Created with matplotlib (http://matplotlib.org/) -->
<svg height="345pt" version="1.1" viewBox="0 0 460 345" width="460pt" xmlns="http://www.w3.org/2000/svg" xmlns:xlink="http://www.w3.org/1999/xlink">
 <defs>
  <style type="text/css">
*{stroke-linecap:butt;stroke-linejoin:round;}
  </style>
 </defs>
 <g id="figure_1">
  <g id="patch_1">
   <path d="M 0 345.6 
L 460.8 345.6 
L 460.8 0 
L 0 0 
z
" style="fill:#ffffff;"/>
  </g>
  <g id="axes_1">
   <g id="patch_2">
    <path d="M 56.12 294.88 
L 399.984 294.88 
L 399.984 24.84 
L 56.12 24.84 
z
" style="fill:#ffffff;"/>
   </g>
   <g id="line2d_1">
    <path d="M 151.978349 294.88 
L 151.978349 289.637523 
L 153.660641 289.637523 
L 153.660641 284.395046 
L 154.794744 284.395046 
L 154.794744 279.152568 
L 155.751266 279.152568 
L 155.751266 273.910091 
L 156.868048 273.910091 
L 156.868048 268.667614 
L 157.891226 268.667614 
L 157.891226 263.425137 
L 158.788799 263.425137 
L 158.788799 258.18266 
L 158.981573 258.18266 
L 158.981573 252.940182 
L 159.814983 252.940182 
L 159.814983 247.697705 
L 160.287837 247.697705 
L 160.287837 242.455228 
L 160.568216 242.455228 
L 160.568216 237.212751 
L 160.863637 237.212751 
L 160.863637 231.970274 
L 162.542267 231.970274 
L 162.542267 226.727797 
L 162.7395 226.727797 
L 162.7395 221.485319 
L 164.058611 221.485319 
L 164.058611 216.242842 
L 164.261744 216.242842 
L 164.261744 211.000365 
L 166.056017 211.000365 
L 166.056017 205.757888 
L 167.443912 205.757888 
L 167.443912 200.515411 
L 167.713528 200.515411 
L 167.713528 195.272933 
L 168.008658 195.272933 
L 168.008658 190.030456 
L 168.383523 190.030456 
L 168.383523 184.787979 
L 168.668714 184.787979 
L 168.668714 179.545502 
L 168.930937 179.545502 
L 168.930937 174.303025 
L 169.300793 174.303025 
L 169.300793 169.060547 
L 169.567761 169.060547 
L 169.567761 163.81807 
L 169.925468 163.81807 
L 169.925468 158.575593 
L 170.240827 158.575593 
L 170.240827 153.333116 
L 170.499282 153.333116 
L 170.499282 148.090639 
L 170.756108 148.090639 
L 170.756108 142.848162 
L 171.038367 142.848162 
L 171.038367 137.605684 
L 171.351133 137.605684 
L 171.351133 132.363207 
L 171.628051 132.363207 
L 171.628051 127.12073 
L 171.900582 127.12073 
L 171.900582 121.878253 
L 172.155701 121.878253 
L 172.155701 116.635776 
L 172.202233 116.635776 
L 172.202233 111.393298 
L 172.24461 111.393298 
L 172.24461 106.150821 
L 172.283866 106.150821 
L 172.283866 100.908344 
L 172.330054 100.908344 
L 172.330054 95.665867 
L 172.365114 95.665867 
L 172.365114 90.42339 
L 172.402099 90.42339 
L 172.402099 85.180912 
L 172.438009 85.180912 
L 172.438009 79.938435 
L 172.485773 79.938435 
L 172.485773 74.695958 
L 172.523492 74.695958 
L 172.523492 69.453481 
L 172.568053 69.453481 
L 172.568053 64.211004 
L 172.613485 64.211004 
L 172.613485 58.968526 
L 172.646003 58.968526 
L 172.646003 53.726049 
L 172.684356 53.726049 
L 172.684356 48.483572 
L 172.727522 48.483572 
L 172.727522 43.241095 
L 172.765693 43.241095 
L 172.765693 37.998618 
L 172.812557 37.998618 
L 172.812557 32.756141 
L 172.85054 32.756141 
L 172.85054 27.513663 
L 333.429677 27.513663 
" style="fill:none;stroke:#f5deb3;stroke-linecap:square;stroke-width:6;"/>
   </g>
   <g id="line2d_2">
    <path d="M 0 0 
" style="fill:none;stroke:#f5deb3;stroke-linecap:square;stroke-width:6;"/>
    <defs>
     <path d="M -0 7.778175 
L 7.778175 0 
L 0 -7.778175 
L -7.778175 -0 
z
" id="m037a96d02d" style="stroke:#f5deb3;stroke-linejoin:miter;stroke-width:1.5;"/>
    </defs>
    <g>
     <use style="fill:#f5deb3;stroke:#f5deb3;stroke-linejoin:miter;stroke-width:1.5;" x="0" xlink:href="#m037a96d02d" y="0"/>
    </g>
   </g>
   <g id="line2d_3">
    <path d="M 333.429677 27.513663 
L 363.933742 32.86099 
" style="fill:none;stroke:#f5deb3;stroke-linecap:square;stroke-width:6;"/>
    <g>
     <use style="fill:#f5deb3;stroke:#f5deb3;stroke-linejoin:miter;stroke-width:1.5;" x="333.429677" xlink:href="#m037a96d02d" y="27.513663"/>
     <use style="fill:#f5deb3;stroke:#f5deb3;stroke-linejoin:miter;stroke-width:1.5;" x="363.933742" xlink:href="#m037a96d02d" y="32.86099"/>
    </g>
   </g>
   <g id="matplotlib.axis_1">
    <g id="xtick_1">
     <g id="line2d_4">
      <path clip-path="url(#pf3bfeb80a3)" d="M 56.12 294.88 
L 56.12 24.84 
" style="fill:none;stroke:#b0b0b0;stroke-linecap:square;stroke-width:0.8;"/>
     </g>
     <g id="line2d_5">
      <defs>
       <path d="M 0 0 
L 0 3.5 
" id="m8290dba73c" style="stroke:#000000;stroke-width:0.8;"/>
      </defs>
      <g>
       <use style="stroke:#000000;stroke-width:0.8;" x="56.12" xlink:href="#m8290dba73c" y="294.88"/>
      </g>
     </g>
     <g id="text_1">
      <!-- 0 -->
      <defs>
       <path d="M 31.78125 66.40625 
Q 24.171875 66.40625 20.328125 58.90625 
Q 16.5 51.421875 16.5 36.375 
Q 16.5 21.390625 20.328125 13.890625 
Q 24.171875 6.390625 31.78125 6.390625 
Q 39.453125 6.390625 43.28125 13.890625 
Q 47.125 21.390625 47.125 36.375 
Q 47.125 51.421875 43.28125 58.90625 
Q 39.453125 66.40625 31.78125 66.40625 
z
M 31.78125 74.21875 
Q 44.046875 74.21875 50.515625 64.515625 
Q 56.984375 54.828125 56.984375 36.375 
Q 56.984375 17.96875 50.515625 8.265625 
Q 44.046875 -1.421875 31.78125 -1.421875 
Q 19.53125 -1.421875 13.0625 8.265625 
Q 6.59375 17.96875 6.59375 36.375 
Q 6.59375 54.828125 13.0625 64.515625 
Q 19.53125 74.21875 31.78125 74.21875 
z
" id="DejaVuSans-30"/>
      </defs>
      <g transform="translate(49.7575 317.076875)scale(0.2 -0.2)">
       <use xlink:href="#DejaVuSans-30"/>
      </g>
     </g>
    </g>
    <g id="xtick_2">
     <g id="line2d_6">
      <path clip-path="url(#pf3bfeb80a3)" d="M 135.351336 294.88 
L 135.351336 24.84 
" style="fill:none;stroke:#b0b0b0;stroke-linecap:square;stroke-width:0.8;"/>
     </g>
     <g id="line2d_7">
      <g>
       <use style="stroke:#000000;stroke-width:0.8;" x="135.351336" xlink:href="#m8290dba73c" y="294.88"/>
      </g>
     </g>
     <g id="text_2">
      <!-- 2 -->
      <defs>
       <path d="M 19.1875 8.296875 
L 53.609375 8.296875 
L 53.609375 0 
L 7.328125 0 
L 7.328125 8.296875 
Q 12.9375 14.109375 22.625 23.890625 
Q 32.328125 33.6875 34.8125 36.53125 
Q 39.546875 41.84375 41.421875 45.53125 
Q 43.3125 49.21875 43.3125 52.78125 
Q 43.3125 58.59375 39.234375 62.25 
Q 35.15625 65.921875 28.609375 65.921875 
Q 23.96875 65.921875 18.8125 64.3125 
Q 13.671875 62.703125 7.8125 59.421875 
L 7.8125 69.390625 
Q 13.765625 71.78125 18.9375 73 
Q 24.125 74.21875 28.421875 74.21875 
Q 39.75 74.21875 46.484375 68.546875 
Q 53.21875 62.890625 53.21875 53.421875 
Q 53.21875 48.921875 51.53125 44.890625 
Q 49.859375 40.875 45.40625 35.40625 
Q 44.1875 33.984375 37.640625 27.21875 
Q 31.109375 20.453125 19.1875 8.296875 
z
" id="DejaVuSans-32"/>
      </defs>
      <g transform="translate(128.988836 317.076875)scale(0.2 -0.2)">
       <use xlink:href="#DejaVuSans-32"/>
      </g>
     </g>
    </g>
    <g id="xtick_3">
     <g id="line2d_8">
      <path clip-path="url(#pf3bfeb80a3)" d="M 214.582673 294.88 
L 214.582673 24.84 
" style="fill:none;stroke:#b0b0b0;stroke-linecap:square;stroke-width:0.8;"/>
     </g>
     <g id="line2d_9">
      <g>
       <use style="stroke:#000000;stroke-width:0.8;" x="214.582673" xlink:href="#m8290dba73c" y="294.88"/>
      </g>
     </g>
     <g id="text_3">
      <!-- 4 -->
      <defs>
       <path d="M 37.796875 64.3125 
L 12.890625 25.390625 
L 37.796875 25.390625 
z
M 35.203125 72.90625 
L 47.609375 72.90625 
L 47.609375 25.390625 
L 58.015625 25.390625 
L 58.015625 17.1875 
L 47.609375 17.1875 
L 47.609375 0 
L 37.796875 0 
L 37.796875 17.1875 
L 4.890625 17.1875 
L 4.890625 26.703125 
z
" id="DejaVuSans-34"/>
      </defs>
      <g transform="translate(208.220173 317.076875)scale(0.2 -0.2)">
       <use xlink:href="#DejaVuSans-34"/>
      </g>
     </g>
    </g>
    <g id="xtick_4">
     <g id="line2d_10">
      <path clip-path="url(#pf3bfeb80a3)" d="M 293.814009 294.88 
L 293.814009 24.84 
" style="fill:none;stroke:#b0b0b0;stroke-linecap:square;stroke-width:0.8;"/>
     </g>
     <g id="line2d_11">
      <g>
       <use style="stroke:#000000;stroke-width:0.8;" x="293.814009" xlink:href="#m8290dba73c" y="294.88"/>
      </g>
     </g>
     <g id="text_4">
      <!-- 6 -->
      <defs>
       <path d="M 33.015625 40.375 
Q 26.375 40.375 22.484375 35.828125 
Q 18.609375 31.296875 18.609375 23.390625 
Q 18.609375 15.53125 22.484375 10.953125 
Q 26.375 6.390625 33.015625 6.390625 
Q 39.65625 6.390625 43.53125 10.953125 
Q 47.40625 15.53125 47.40625 23.390625 
Q 47.40625 31.296875 43.53125 35.828125 
Q 39.65625 40.375 33.015625 40.375 
z
M 52.59375 71.296875 
L 52.59375 62.3125 
Q 48.875 64.0625 45.09375 64.984375 
Q 41.3125 65.921875 37.59375 65.921875 
Q 27.828125 65.921875 22.671875 59.328125 
Q 17.53125 52.734375 16.796875 39.40625 
Q 19.671875 43.65625 24.015625 45.921875 
Q 28.375 48.1875 33.59375 48.1875 
Q 44.578125 48.1875 50.953125 41.515625 
Q 57.328125 34.859375 57.328125 23.390625 
Q 57.328125 12.15625 50.6875 5.359375 
Q 44.046875 -1.421875 33.015625 -1.421875 
Q 20.359375 -1.421875 13.671875 8.265625 
Q 6.984375 17.96875 6.984375 36.375 
Q 6.984375 53.65625 15.1875 63.9375 
Q 23.390625 74.21875 37.203125 74.21875 
Q 40.921875 74.21875 44.703125 73.484375 
Q 48.484375 72.75 52.59375 71.296875 
z
" id="DejaVuSans-36"/>
      </defs>
      <g transform="translate(287.451509 317.076875)scale(0.2 -0.2)">
       <use xlink:href="#DejaVuSans-36"/>
      </g>
     </g>
    </g>
    <g id="xtick_5">
     <g id="line2d_12">
      <path clip-path="url(#pf3bfeb80a3)" d="M 373.045346 294.88 
L 373.045346 24.84 
" style="fill:none;stroke:#b0b0b0;stroke-linecap:square;stroke-width:0.8;"/>
     </g>
     <g id="line2d_13">
      <g>
       <use style="stroke:#000000;stroke-width:0.8;" x="373.045346" xlink:href="#m8290dba73c" y="294.88"/>
      </g>
     </g>
     <g id="text_5">
      <!-- 8 -->
      <defs>
       <path d="M 31.78125 34.625 
Q 24.75 34.625 20.71875 30.859375 
Q 16.703125 27.09375 16.703125 20.515625 
Q 16.703125 13.921875 20.71875 10.15625 
Q 24.75 6.390625 31.78125 6.390625 
Q 38.8125 6.390625 42.859375 10.171875 
Q 46.921875 13.96875 46.921875 20.515625 
Q 46.921875 27.09375 42.890625 30.859375 
Q 38.875 34.625 31.78125 34.625 
z
M 21.921875 38.8125 
Q 15.578125 40.375 12.03125 44.71875 
Q 8.5 49.078125 8.5 55.328125 
Q 8.5 64.0625 14.71875 69.140625 
Q 20.953125 74.21875 31.78125 74.21875 
Q 42.671875 74.21875 48.875 69.140625 
Q 55.078125 64.0625 55.078125 55.328125 
Q 55.078125 49.078125 51.53125 44.71875 
Q 48 40.375 41.703125 38.8125 
Q 48.828125 37.15625 52.796875 32.3125 
Q 56.78125 27.484375 56.78125 20.515625 
Q 56.78125 9.90625 50.3125 4.234375 
Q 43.84375 -1.421875 31.78125 -1.421875 
Q 19.734375 -1.421875 13.25 4.234375 
Q 6.78125 9.90625 6.78125 20.515625 
Q 6.78125 27.484375 10.78125 32.3125 
Q 14.796875 37.15625 21.921875 38.8125 
z
M 18.3125 54.390625 
Q 18.3125 48.734375 21.84375 45.5625 
Q 25.390625 42.390625 31.78125 42.390625 
Q 38.140625 42.390625 41.71875 45.5625 
Q 45.3125 48.734375 45.3125 54.390625 
Q 45.3125 60.0625 41.71875 63.234375 
Q 38.140625 66.40625 31.78125 66.40625 
Q 25.390625 66.40625 21.84375 63.234375 
Q 18.3125 60.0625 18.3125 54.390625 
z
" id="DejaVuSans-38"/>
      </defs>
      <g transform="translate(366.682846 317.076875)scale(0.2 -0.2)">
       <use xlink:href="#DejaVuSans-38"/>
      </g>
     </g>
    </g>
    <g id="text_6">
     <!-- log10(# f-evals / dimension) -->
     <defs>
      <path d="M 9.421875 75.984375 
L 18.40625 75.984375 
L 18.40625 0 
L 9.421875 0 
z
" id="DejaVuSans-6c"/>
      <path d="M 30.609375 48.390625 
Q 23.390625 48.390625 19.1875 42.75 
Q 14.984375 37.109375 14.984375 27.296875 
Q 14.984375 17.484375 19.15625 11.84375 
Q 23.34375 6.203125 30.609375 6.203125 
Q 37.796875 6.203125 41.984375 11.859375 
Q 46.1875 17.53125 46.1875 27.296875 
Q 46.1875 37.015625 41.984375 42.703125 
Q 37.796875 48.390625 30.609375 48.390625 
z
M 30.609375 56 
Q 42.328125 56 49.015625 48.375 
Q 55.71875 40.765625 55.71875 27.296875 
Q 55.71875 13.875 49.015625 6.21875 
Q 42.328125 -1.421875 30.609375 -1.421875 
Q 18.84375 -1.421875 12.171875 6.21875 
Q 5.515625 13.875 5.515625 27.296875 
Q 5.515625 40.765625 12.171875 48.375 
Q 18.84375 56 30.609375 56 
z
" id="DejaVuSans-6f"/>
      <path d="M 45.40625 27.984375 
Q 45.40625 37.75 41.375 43.109375 
Q 37.359375 48.484375 30.078125 48.484375 
Q 22.859375 48.484375 18.828125 43.109375 
Q 14.796875 37.75 14.796875 27.984375 
Q 14.796875 18.265625 18.828125 12.890625 
Q 22.859375 7.515625 30.078125 7.515625 
Q 37.359375 7.515625 41.375 12.890625 
Q 45.40625 18.265625 45.40625 27.984375 
z
M 54.390625 6.78125 
Q 54.390625 -7.171875 48.1875 -13.984375 
Q 42 -20.796875 29.203125 -20.796875 
Q 24.46875 -20.796875 20.265625 -20.09375 
Q 16.0625 -19.390625 12.109375 -17.921875 
L 12.109375 -9.1875 
Q 16.0625 -11.328125 19.921875 -12.34375 
Q 23.78125 -13.375 27.78125 -13.375 
Q 36.625 -13.375 41.015625 -8.765625 
Q 45.40625 -4.15625 45.40625 5.171875 
L 45.40625 9.625 
Q 42.625 4.78125 38.28125 2.390625 
Q 33.9375 0 27.875 0 
Q 17.828125 0 11.671875 7.65625 
Q 5.515625 15.328125 5.515625 27.984375 
Q 5.515625 40.671875 11.671875 48.328125 
Q 17.828125 56 27.875 56 
Q 33.9375 56 38.28125 53.609375 
Q 42.625 51.21875 45.40625 46.390625 
L 45.40625 54.6875 
L 54.390625 54.6875 
z
" id="DejaVuSans-67"/>
      <path d="M 12.40625 8.296875 
L 28.515625 8.296875 
L 28.515625 63.921875 
L 10.984375 60.40625 
L 10.984375 69.390625 
L 28.421875 72.90625 
L 38.28125 72.90625 
L 38.28125 8.296875 
L 54.390625 8.296875 
L 54.390625 0 
L 12.40625 0 
z
" id="DejaVuSans-31"/>
      <path d="M 31 75.875 
Q 24.46875 64.65625 21.28125 53.65625 
Q 18.109375 42.671875 18.109375 31.390625 
Q 18.109375 20.125 21.3125 9.0625 
Q 24.515625 -2 31 -13.1875 
L 23.1875 -13.1875 
Q 15.875 -1.703125 12.234375 9.375 
Q 8.59375 20.453125 8.59375 31.390625 
Q 8.59375 42.28125 12.203125 53.3125 
Q 15.828125 64.359375 23.1875 75.875 
z
" id="DejaVuSans-28"/>
      <path d="M 51.125 44 
L 36.921875 44 
L 32.8125 27.6875 
L 47.125 27.6875 
z
M 43.796875 71.78125 
L 38.71875 51.515625 
L 52.984375 51.515625 
L 58.109375 71.78125 
L 65.921875 71.78125 
L 60.890625 51.515625 
L 76.125 51.515625 
L 76.125 44 
L 58.984375 44 
L 54.984375 27.6875 
L 70.515625 27.6875 
L 70.515625 20.21875 
L 53.078125 20.21875 
L 48 0 
L 40.1875 0 
L 45.21875 20.21875 
L 30.90625 20.21875 
L 25.875 0 
L 18.015625 0 
L 23.09375 20.21875 
L 7.71875 20.21875 
L 7.71875 27.6875 
L 24.90625 27.6875 
L 29 44 
L 13.28125 44 
L 13.28125 51.515625 
L 30.90625 51.515625 
L 35.890625 71.78125 
z
" id="DejaVuSans-23"/>
      <path id="DejaVuSans-20"/>
      <path d="M 37.109375 75.984375 
L 37.109375 68.5 
L 28.515625 68.5 
Q 23.6875 68.5 21.796875 66.546875 
Q 19.921875 64.59375 19.921875 59.515625 
L 19.921875 54.6875 
L 34.71875 54.6875 
L 34.71875 47.703125 
L 19.921875 47.703125 
L 19.921875 0 
L 10.890625 0 
L 10.890625 47.703125 
L 2.296875 47.703125 
L 2.296875 54.6875 
L 10.890625 54.6875 
L 10.890625 58.5 
Q 10.890625 67.625 15.140625 71.796875 
Q 19.390625 75.984375 28.609375 75.984375 
z
" id="DejaVuSans-66"/>
      <path d="M 4.890625 31.390625 
L 31.203125 31.390625 
L 31.203125 23.390625 
L 4.890625 23.390625 
z
" id="DejaVuSans-2d"/>
      <path d="M 56.203125 29.59375 
L 56.203125 25.203125 
L 14.890625 25.203125 
Q 15.484375 15.921875 20.484375 11.0625 
Q 25.484375 6.203125 34.421875 6.203125 
Q 39.59375 6.203125 44.453125 7.46875 
Q 49.3125 8.734375 54.109375 11.28125 
L 54.109375 2.78125 
Q 49.265625 0.734375 44.1875 -0.34375 
Q 39.109375 -1.421875 33.890625 -1.421875 
Q 20.796875 -1.421875 13.15625 6.1875 
Q 5.515625 13.8125 5.515625 26.8125 
Q 5.515625 40.234375 12.765625 48.109375 
Q 20.015625 56 32.328125 56 
Q 43.359375 56 49.78125 48.890625 
Q 56.203125 41.796875 56.203125 29.59375 
z
M 47.21875 32.234375 
Q 47.125 39.59375 43.09375 43.984375 
Q 39.0625 48.390625 32.421875 48.390625 
Q 24.90625 48.390625 20.390625 44.140625 
Q 15.875 39.890625 15.1875 32.171875 
z
" id="DejaVuSans-65"/>
      <path d="M 2.984375 54.6875 
L 12.5 54.6875 
L 29.59375 8.796875 
L 46.6875 54.6875 
L 56.203125 54.6875 
L 35.6875 0 
L 23.484375 0 
z
" id="DejaVuSans-76"/>
      <path d="M 34.28125 27.484375 
Q 23.390625 27.484375 19.1875 25 
Q 14.984375 22.515625 14.984375 16.5 
Q 14.984375 11.71875 18.140625 8.90625 
Q 21.296875 6.109375 26.703125 6.109375 
Q 34.1875 6.109375 38.703125 11.40625 
Q 43.21875 16.703125 43.21875 25.484375 
L 43.21875 27.484375 
z
M 52.203125 31.203125 
L 52.203125 0 
L 43.21875 0 
L 43.21875 8.296875 
Q 40.140625 3.328125 35.546875 0.953125 
Q 30.953125 -1.421875 24.3125 -1.421875 
Q 15.921875 -1.421875 10.953125 3.296875 
Q 6 8.015625 6 15.921875 
Q 6 25.140625 12.171875 29.828125 
Q 18.359375 34.515625 30.609375 34.515625 
L 43.21875 34.515625 
L 43.21875 35.40625 
Q 43.21875 41.609375 39.140625 45 
Q 35.0625 48.390625 27.6875 48.390625 
Q 23 48.390625 18.546875 47.265625 
Q 14.109375 46.140625 10.015625 43.890625 
L 10.015625 52.203125 
Q 14.9375 54.109375 19.578125 55.046875 
Q 24.21875 56 28.609375 56 
Q 40.484375 56 46.34375 49.84375 
Q 52.203125 43.703125 52.203125 31.203125 
z
" id="DejaVuSans-61"/>
      <path d="M 44.28125 53.078125 
L 44.28125 44.578125 
Q 40.484375 46.53125 36.375 47.5 
Q 32.28125 48.484375 27.875 48.484375 
Q 21.1875 48.484375 17.84375 46.4375 
Q 14.5 44.390625 14.5 40.28125 
Q 14.5 37.15625 16.890625 35.375 
Q 19.28125 33.59375 26.515625 31.984375 
L 29.59375 31.296875 
Q 39.15625 29.25 43.1875 25.515625 
Q 47.21875 21.78125 47.21875 15.09375 
Q 47.21875 7.46875 41.1875 3.015625 
Q 35.15625 -1.421875 24.609375 -1.421875 
Q 20.21875 -1.421875 15.453125 -0.5625 
Q 10.6875 0.296875 5.421875 2 
L 5.421875 11.28125 
Q 10.40625 8.6875 15.234375 7.390625 
Q 20.0625 6.109375 24.8125 6.109375 
Q 31.15625 6.109375 34.5625 8.28125 
Q 37.984375 10.453125 37.984375 14.40625 
Q 37.984375 18.0625 35.515625 20.015625 
Q 33.0625 21.96875 24.703125 23.78125 
L 21.578125 24.515625 
Q 13.234375 26.265625 9.515625 29.90625 
Q 5.8125 33.546875 5.8125 39.890625 
Q 5.8125 47.609375 11.28125 51.796875 
Q 16.75 56 26.8125 56 
Q 31.78125 56 36.171875 55.265625 
Q 40.578125 54.546875 44.28125 53.078125 
z
" id="DejaVuSans-73"/>
      <path d="M 25.390625 72.90625 
L 33.6875 72.90625 
L 8.296875 -9.28125 
L 0 -9.28125 
z
" id="DejaVuSans-2f"/>
      <path d="M 45.40625 46.390625 
L 45.40625 75.984375 
L 54.390625 75.984375 
L 54.390625 0 
L 45.40625 0 
L 45.40625 8.203125 
Q 42.578125 3.328125 38.25 0.953125 
Q 33.9375 -1.421875 27.875 -1.421875 
Q 17.96875 -1.421875 11.734375 6.484375 
Q 5.515625 14.40625 5.515625 27.296875 
Q 5.515625 40.1875 11.734375 48.09375 
Q 17.96875 56 27.875 56 
Q 33.9375 56 38.25 53.625 
Q 42.578125 51.265625 45.40625 46.390625 
z
M 14.796875 27.296875 
Q 14.796875 17.390625 18.875 11.75 
Q 22.953125 6.109375 30.078125 6.109375 
Q 37.203125 6.109375 41.296875 11.75 
Q 45.40625 17.390625 45.40625 27.296875 
Q 45.40625 37.203125 41.296875 42.84375 
Q 37.203125 48.484375 30.078125 48.484375 
Q 22.953125 48.484375 18.875 42.84375 
Q 14.796875 37.203125 14.796875 27.296875 
z
" id="DejaVuSans-64"/>
      <path d="M 9.421875 54.6875 
L 18.40625 54.6875 
L 18.40625 0 
L 9.421875 0 
z
M 9.421875 75.984375 
L 18.40625 75.984375 
L 18.40625 64.59375 
L 9.421875 64.59375 
z
" id="DejaVuSans-69"/>
      <path d="M 52 44.1875 
Q 55.375 50.25 60.0625 53.125 
Q 64.75 56 71.09375 56 
Q 79.640625 56 84.28125 50.015625 
Q 88.921875 44.046875 88.921875 33.015625 
L 88.921875 0 
L 79.890625 0 
L 79.890625 32.71875 
Q 79.890625 40.578125 77.09375 44.375 
Q 74.3125 48.1875 68.609375 48.1875 
Q 61.625 48.1875 57.5625 43.546875 
Q 53.515625 38.921875 53.515625 30.90625 
L 53.515625 0 
L 44.484375 0 
L 44.484375 32.71875 
Q 44.484375 40.625 41.703125 44.40625 
Q 38.921875 48.1875 33.109375 48.1875 
Q 26.21875 48.1875 22.15625 43.53125 
Q 18.109375 38.875 18.109375 30.90625 
L 18.109375 0 
L 9.078125 0 
L 9.078125 54.6875 
L 18.109375 54.6875 
L 18.109375 46.1875 
Q 21.1875 51.21875 25.484375 53.609375 
Q 29.78125 56 35.6875 56 
Q 41.65625 56 45.828125 52.96875 
Q 50 49.953125 52 44.1875 
z
" id="DejaVuSans-6d"/>
      <path d="M 54.890625 33.015625 
L 54.890625 0 
L 45.90625 0 
L 45.90625 32.71875 
Q 45.90625 40.484375 42.875 44.328125 
Q 39.84375 48.1875 33.796875 48.1875 
Q 26.515625 48.1875 22.3125 43.546875 
Q 18.109375 38.921875 18.109375 30.90625 
L 18.109375 0 
L 9.078125 0 
L 9.078125 54.6875 
L 18.109375 54.6875 
L 18.109375 46.1875 
Q 21.34375 51.125 25.703125 53.5625 
Q 30.078125 56 35.796875 56 
Q 45.21875 56 50.046875 50.171875 
Q 54.890625 44.34375 54.890625 33.015625 
z
" id="DejaVuSans-6e"/>
      <path d="M 8.015625 75.875 
L 15.828125 75.875 
Q 23.140625 64.359375 26.78125 53.3125 
Q 30.421875 42.28125 30.421875 31.390625 
Q 30.421875 20.453125 26.78125 9.375 
Q 23.140625 -1.703125 15.828125 -13.1875 
L 8.015625 -13.1875 
Q 14.5 -2 17.703125 9.0625 
Q 20.90625 20.125 20.90625 31.390625 
Q 20.90625 42.671875 17.703125 53.65625 
Q 14.5 64.65625 8.015625 75.875 
z
" id="DejaVuSans-29"/>
     </defs>
     <g transform="translate(107.211219 338.153594)scale(0.17 -0.17)">
      <use xlink:href="#DejaVuSans-6c"/>
      <use x="27.783203" xlink:href="#DejaVuSans-6f"/>
      <use x="88.964844" xlink:href="#DejaVuSans-67"/>
      <use x="152.441406" xlink:href="#DejaVuSans-31"/>
      <use x="216.064453" xlink:href="#DejaVuSans-30"/>
      <use x="279.6875" xlink:href="#DejaVuSans-28"/>
      <use x="318.701172" xlink:href="#DejaVuSans-23"/>
      <use x="402.490234" xlink:href="#DejaVuSans-20"/>
      <use x="434.277344" xlink:href="#DejaVuSans-66"/>
      <use x="469.404297" xlink:href="#DejaVuSans-2d"/>
      <use x="505.488281" xlink:href="#DejaVuSans-65"/>
      <use x="567.011719" xlink:href="#DejaVuSans-76"/>
      <use x="626.191406" xlink:href="#DejaVuSans-61"/>
      <use x="687.470703" xlink:href="#DejaVuSans-6c"/>
      <use x="715.253906" xlink:href="#DejaVuSans-73"/>
      <use x="767.353516" xlink:href="#DejaVuSans-20"/>
      <use x="799.140625" xlink:href="#DejaVuSans-2f"/>
      <use x="832.832031" xlink:href="#DejaVuSans-20"/>
      <use x="864.619141" xlink:href="#DejaVuSans-64"/>
      <use x="928.095703" xlink:href="#DejaVuSans-69"/>
      <use x="955.878906" xlink:href="#DejaVuSans-6d"/>
      <use x="1053.291016" xlink:href="#DejaVuSans-65"/>
      <use x="1114.814453" xlink:href="#DejaVuSans-6e"/>
      <use x="1178.193359" xlink:href="#DejaVuSans-73"/>
      <use x="1230.292969" xlink:href="#DejaVuSans-69"/>
      <use x="1258.076172" xlink:href="#DejaVuSans-6f"/>
      <use x="1319.257812" xlink:href="#DejaVuSans-6e"/>
      <use x="1382.636719" xlink:href="#DejaVuSans-29"/>
     </g>
    </g>
   </g>
   <g id="matplotlib.axis_2">
    <g id="ytick_1">
     <g id="line2d_14">
      <path clip-path="url(#pf3bfeb80a3)" d="M 56.12 294.88 
L 399.984 294.88 
" style="fill:none;stroke:#b0b0b0;stroke-linecap:square;stroke-width:0.8;"/>
     </g>
     <g id="line2d_15">
      <defs>
       <path d="M 0 0 
L -3.5 0 
" id="m60b4f099ae" style="stroke:#000000;stroke-width:0.8;"/>
      </defs>
      <g>
       <use style="stroke:#000000;stroke-width:0.8;" x="56.12" xlink:href="#m60b4f099ae" y="294.88"/>
      </g>
     </g>
     <g id="text_7">
      <!-- 0.0 -->
      <defs>
       <path d="M 10.6875 12.40625 
L 21 12.40625 
L 21 0 
L 10.6875 0 
z
" id="DejaVuSans-2e"/>
      </defs>
      <g transform="translate(23.675 300.95875)scale(0.16 -0.16)">
       <use xlink:href="#DejaVuSans-30"/>
       <use x="63.623047" xlink:href="#DejaVuSans-2e"/>
       <use x="95.410156" xlink:href="#DejaVuSans-30"/>
      </g>
     </g>
    </g>
    <g id="ytick_2">
     <g id="line2d_16">
      <path clip-path="url(#pf3bfeb80a3)" d="M 56.12 241.406733 
L 399.984 241.406733 
" style="fill:none;stroke:#b0b0b0;stroke-linecap:square;stroke-width:0.8;"/>
     </g>
     <g id="line2d_17">
      <g>
       <use style="stroke:#000000;stroke-width:0.8;" x="56.12" xlink:href="#m60b4f099ae" y="241.406733"/>
      </g>
     </g>
     <g id="text_8">
      <!-- 0.2 -->
      <g transform="translate(23.675 247.485483)scale(0.16 -0.16)">
       <use xlink:href="#DejaVuSans-30"/>
       <use x="63.623047" xlink:href="#DejaVuSans-2e"/>
       <use x="95.410156" xlink:href="#DejaVuSans-32"/>
      </g>
     </g>
    </g>
    <g id="ytick_3">
     <g id="line2d_18">
      <path clip-path="url(#pf3bfeb80a3)" d="M 56.12 187.933465 
L 399.984 187.933465 
" style="fill:none;stroke:#b0b0b0;stroke-linecap:square;stroke-width:0.8;"/>
     </g>
     <g id="line2d_19">
      <g>
       <use style="stroke:#000000;stroke-width:0.8;" x="56.12" xlink:href="#m60b4f099ae" y="187.933465"/>
      </g>
     </g>
     <g id="text_9">
      <!-- 0.4 -->
      <g transform="translate(23.675 194.012215)scale(0.16 -0.16)">
       <use xlink:href="#DejaVuSans-30"/>
       <use x="63.623047" xlink:href="#DejaVuSans-2e"/>
       <use x="95.410156" xlink:href="#DejaVuSans-34"/>
      </g>
     </g>
    </g>
    <g id="ytick_4">
     <g id="line2d_20">
      <path clip-path="url(#pf3bfeb80a3)" d="M 56.12 134.460198 
L 399.984 134.460198 
" style="fill:none;stroke:#b0b0b0;stroke-linecap:square;stroke-width:0.8;"/>
     </g>
     <g id="line2d_21">
      <g>
       <use style="stroke:#000000;stroke-width:0.8;" x="56.12" xlink:href="#m60b4f099ae" y="134.460198"/>
      </g>
     </g>
     <g id="text_10">
      <!-- 0.6 -->
      <g transform="translate(23.675 140.538948)scale(0.16 -0.16)">
       <use xlink:href="#DejaVuSans-30"/>
       <use x="63.623047" xlink:href="#DejaVuSans-2e"/>
       <use x="95.410156" xlink:href="#DejaVuSans-36"/>
      </g>
     </g>
    </g>
    <g id="ytick_5">
     <g id="line2d_22">
      <path clip-path="url(#pf3bfeb80a3)" d="M 56.12 80.986931 
L 399.984 80.986931 
" style="fill:none;stroke:#b0b0b0;stroke-linecap:square;stroke-width:0.8;"/>
     </g>
     <g id="line2d_23">
      <g>
       <use style="stroke:#000000;stroke-width:0.8;" x="56.12" xlink:href="#m60b4f099ae" y="80.986931"/>
      </g>
     </g>
     <g id="text_11">
      <!-- 0.8 -->
      <g transform="translate(23.675 87.065681)scale(0.16 -0.16)">
       <use xlink:href="#DejaVuSans-30"/>
       <use x="63.623047" xlink:href="#DejaVuSans-2e"/>
       <use x="95.410156" xlink:href="#DejaVuSans-38"/>
      </g>
     </g>
    </g>
    <g id="ytick_6">
     <g id="line2d_24">
      <path clip-path="url(#pf3bfeb80a3)" d="M 56.12 27.513663 
L 399.984 27.513663 
" style="fill:none;stroke:#b0b0b0;stroke-linecap:square;stroke-width:0.8;"/>
     </g>
     <g id="line2d_25">
      <g>
       <use style="stroke:#000000;stroke-width:0.8;" x="56.12" xlink:href="#m60b4f099ae" y="27.513663"/>
      </g>
     </g>
     <g id="text_12">
      <!-- 1.0 -->
      <g transform="translate(23.675 33.592413)scale(0.16 -0.16)">
       <use xlink:href="#DejaVuSans-31"/>
       <use x="63.623047" xlink:href="#DejaVuSans-2e"/>
       <use x="95.410156" xlink:href="#DejaVuSans-30"/>
      </g>
     </g>
    </g>
    <g id="text_13">
     <!-- Fraction of function,target pairs -->
     <defs>
      <path d="M 9.8125 72.90625 
L 51.703125 72.90625 
L 51.703125 64.59375 
L 19.671875 64.59375 
L 19.671875 43.109375 
L 48.578125 43.109375 
L 48.578125 34.8125 
L 19.671875 34.8125 
L 19.671875 0 
L 9.8125 0 
z
" id="DejaVuSans-46"/>
      <path d="M 41.109375 46.296875 
Q 39.59375 47.171875 37.8125 47.578125 
Q 36.03125 48 33.890625 48 
Q 26.265625 48 22.1875 43.046875 
Q 18.109375 38.09375 18.109375 28.8125 
L 18.109375 0 
L 9.078125 0 
L 9.078125 54.6875 
L 18.109375 54.6875 
L 18.109375 46.1875 
Q 20.953125 51.171875 25.484375 53.578125 
Q 30.03125 56 36.53125 56 
Q 37.453125 56 38.578125 55.875 
Q 39.703125 55.765625 41.0625 55.515625 
z
" id="DejaVuSans-72"/>
      <path d="M 48.78125 52.59375 
L 48.78125 44.1875 
Q 44.96875 46.296875 41.140625 47.34375 
Q 37.3125 48.390625 33.40625 48.390625 
Q 24.65625 48.390625 19.8125 42.84375 
Q 14.984375 37.3125 14.984375 27.296875 
Q 14.984375 17.28125 19.8125 11.734375 
Q 24.65625 6.203125 33.40625 6.203125 
Q 37.3125 6.203125 41.140625 7.25 
Q 44.96875 8.296875 48.78125 10.40625 
L 48.78125 2.09375 
Q 45.015625 0.34375 40.984375 -0.53125 
Q 36.96875 -1.421875 32.421875 -1.421875 
Q 20.0625 -1.421875 12.78125 6.34375 
Q 5.515625 14.109375 5.515625 27.296875 
Q 5.515625 40.671875 12.859375 48.328125 
Q 20.21875 56 33.015625 56 
Q 37.15625 56 41.109375 55.140625 
Q 45.0625 54.296875 48.78125 52.59375 
z
" id="DejaVuSans-63"/>
      <path d="M 18.3125 70.21875 
L 18.3125 54.6875 
L 36.8125 54.6875 
L 36.8125 47.703125 
L 18.3125 47.703125 
L 18.3125 18.015625 
Q 18.3125 11.328125 20.140625 9.421875 
Q 21.96875 7.515625 27.59375 7.515625 
L 36.8125 7.515625 
L 36.8125 0 
L 27.59375 0 
Q 17.1875 0 13.234375 3.875 
Q 9.28125 7.765625 9.28125 18.015625 
L 9.28125 47.703125 
L 2.6875 47.703125 
L 2.6875 54.6875 
L 9.28125 54.6875 
L 9.28125 70.21875 
z
" id="DejaVuSans-74"/>
      <path d="M 8.5 21.578125 
L 8.5 54.6875 
L 17.484375 54.6875 
L 17.484375 21.921875 
Q 17.484375 14.15625 20.5 10.265625 
Q 23.53125 6.390625 29.59375 6.390625 
Q 36.859375 6.390625 41.078125 11.03125 
Q 45.3125 15.671875 45.3125 23.6875 
L 45.3125 54.6875 
L 54.296875 54.6875 
L 54.296875 0 
L 45.3125 0 
L 45.3125 8.40625 
Q 42.046875 3.421875 37.71875 1 
Q 33.40625 -1.421875 27.6875 -1.421875 
Q 18.265625 -1.421875 13.375 4.4375 
Q 8.5 10.296875 8.5 21.578125 
z
M 31.109375 56 
z
" id="DejaVuSans-75"/>
      <path d="M 11.71875 12.40625 
L 22.015625 12.40625 
L 22.015625 4 
L 14.015625 -11.625 
L 7.71875 -11.625 
L 11.71875 4 
z
" id="DejaVuSans-2c"/>
      <path d="M 18.109375 8.203125 
L 18.109375 -20.796875 
L 9.078125 -20.796875 
L 9.078125 54.6875 
L 18.109375 54.6875 
L 18.109375 46.390625 
Q 20.953125 51.265625 25.265625 53.625 
Q 29.59375 56 35.59375 56 
Q 45.5625 56 51.78125 48.09375 
Q 58.015625 40.1875 58.015625 27.296875 
Q 58.015625 14.40625 51.78125 6.484375 
Q 45.5625 -1.421875 35.59375 -1.421875 
Q 29.59375 -1.421875 25.265625 0.953125 
Q 20.953125 3.328125 18.109375 8.203125 
z
M 48.6875 27.296875 
Q 48.6875 37.203125 44.609375 42.84375 
Q 40.53125 48.484375 33.40625 48.484375 
Q 26.265625 48.484375 22.1875 42.84375 
Q 18.109375 37.203125 18.109375 27.296875 
Q 18.109375 17.390625 22.1875 11.75 
Q 26.265625 6.109375 33.40625 6.109375 
Q 40.53125 6.109375 44.609375 11.75 
Q 48.6875 17.390625 48.6875 27.296875 
z
" id="DejaVuSans-70"/>
     </defs>
     <g transform="translate(16.139531 294.999375)rotate(-90)scale(0.17 -0.17)">
      <use xlink:href="#DejaVuSans-46"/>
      <use x="57.410156" xlink:href="#DejaVuSans-72"/>
      <use x="98.523438" xlink:href="#DejaVuSans-61"/>
      <use x="159.802734" xlink:href="#DejaVuSans-63"/>
      <use x="214.783203" xlink:href="#DejaVuSans-74"/>
      <use x="253.992188" xlink:href="#DejaVuSans-69"/>
      <use x="281.775391" xlink:href="#DejaVuSans-6f"/>
      <use x="342.957031" xlink:href="#DejaVuSans-6e"/>
      <use x="406.335938" xlink:href="#DejaVuSans-20"/>
      <use x="438.123047" xlink:href="#DejaVuSans-6f"/>
      <use x="499.304688" xlink:href="#DejaVuSans-66"/>
      <use x="534.509766" xlink:href="#DejaVuSans-20"/>
      <use x="566.296875" xlink:href="#DejaVuSans-66"/>
      <use x="601.501953" xlink:href="#DejaVuSans-75"/>
      <use x="664.880859" xlink:href="#DejaVuSans-6e"/>
      <use x="728.259766" xlink:href="#DejaVuSans-63"/>
      <use x="783.240234" xlink:href="#DejaVuSans-74"/>
      <use x="822.449219" xlink:href="#DejaVuSans-69"/>
      <use x="850.232422" xlink:href="#DejaVuSans-6f"/>
      <use x="911.414062" xlink:href="#DejaVuSans-6e"/>
      <use x="974.792969" xlink:href="#DejaVuSans-2c"/>
      <use x="1006.580078" xlink:href="#DejaVuSans-74"/>
      <use x="1045.789062" xlink:href="#DejaVuSans-61"/>
      <use x="1107.068359" xlink:href="#DejaVuSans-72"/>
      <use x="1148.166016" xlink:href="#DejaVuSans-67"/>
      <use x="1211.642578" xlink:href="#DejaVuSans-65"/>
      <use x="1273.166016" xlink:href="#DejaVuSans-74"/>
      <use x="1312.375" xlink:href="#DejaVuSans-20"/>
      <use x="1344.162109" xlink:href="#DejaVuSans-70"/>
      <use x="1407.638672" xlink:href="#DejaVuSans-61"/>
      <use x="1468.917969" xlink:href="#DejaVuSans-69"/>
      <use x="1496.701172" xlink:href="#DejaVuSans-72"/>
      <use x="1537.814453" xlink:href="#DejaVuSans-73"/>
     </g>
    </g>
   </g>
   <g id="line2d_26">
    <defs>
     <path d="M 0 1.5 
C 0.397805 1.5 0.77937 1.341951 1.06066 1.06066 
C 1.341951 0.77937 1.5 0.397805 1.5 0 
C 1.5 -0.397805 1.341951 -0.77937 1.06066 -1.06066 
C 0.77937 -1.341951 0.397805 -1.5 0 -1.5 
C -0.397805 -1.5 -0.77937 -1.341951 -1.06066 -1.06066 
C -1.341951 -0.77937 -1.5 -0.397805 -1.5 0 
C -1.5 0.397805 -1.341951 0.77937 -1.06066 1.06066 
C -0.77937 1.341951 -0.397805 1.5 0 1.5 
z
" id="md7ba8ed3d6" style="stroke:#f5deb3;"/>
    </defs>
    <g>
     <use style="fill:#f5deb3;stroke:#f5deb3;" x="172.85054" xlink:href="#md7ba8ed3d6" y="27.513663"/>
     <use style="fill:#f5deb3;stroke:#f5deb3;" x="172.85054" xlink:href="#md7ba8ed3d6" y="27.513663"/>
    </g>
   </g>
   <g id="line2d_27">
    <g>
     <use style="fill:#f5deb3;stroke:#f5deb3;stroke-linejoin:miter;stroke-width:1.5;" x="172.568053" xlink:href="#m037a96d02d" y="69.453481"/>
     <use style="fill:#f5deb3;stroke:#f5deb3;stroke-linejoin:miter;stroke-width:1.5;" x="172.85054" xlink:href="#m037a96d02d" y="27.513663"/>
     <use style="fill:#f5deb3;stroke:#f5deb3;stroke-linejoin:miter;stroke-width:1.5;" x="172.85054" xlink:href="#m037a96d02d" y="27.513663"/>
     <use style="fill:#f5deb3;stroke:#f5deb3;stroke-linejoin:miter;stroke-width:1.5;" x="333.429677" xlink:href="#m037a96d02d" y="27.513663"/>
    </g>
   </g>
   <g id="line2d_28">
    <defs>
     <path d="M 0 1.5 
C 0.397805 1.5 0.77937 1.341951 1.06066 1.06066 
C 1.341951 0.77937 1.5 0.397805 1.5 0 
C 1.5 -0.397805 1.341951 -0.77937 1.06066 -1.06066 
C 0.77937 -1.341951 0.397805 -1.5 0 -1.5 
C -0.397805 -1.5 -0.77937 -1.341951 -1.06066 -1.06066 
C -1.341951 -0.77937 -1.5 -0.397805 -1.5 0 
C -1.5 0.397805 -1.341951 0.77937 -1.06066 1.06066 
C -0.77937 1.341951 -0.397805 1.5 0 1.5 
z
" id="mef32e53804" style="stroke:#000080;"/>
    </defs>
    <g>
     <use style="fill:#000080;stroke:#000080;" x="286.13085" xlink:href="#mef32e53804" y="247.697705"/>
     <use style="fill:#000080;stroke:#000080;" x="286.13085" xlink:href="#mef32e53804" y="247.697705"/>
    </g>
   </g>
   <g id="line2d_29">
    <path d="M 169.021111 294.88 
L 169.021111 294.355752 
L 181.78859 294.355752 
L 181.78859 293.831505 
L 184.522707 293.831505 
L 184.522707 291.734514 
L 186.422033 291.734514 
L 186.422033 290.161771 
L 189.619819 290.161771 
L 189.717913 288.589027 
L 192.983875 288.589027 
L 192.983875 288.06478 
L 193.375447 288.06478 
L 193.375447 287.016284 
L 193.487801 287.016284 
L 193.552469 285.967789 
L 194.689603 285.967789 
L 194.689603 285.443541 
L 196.8553 285.443541 
L 196.8553 284.395046 
L 197.538661 284.395046 
L 197.538661 283.870798 
L 199.519869 283.870798 
L 199.519869 283.34655 
L 200.518314 283.34655 
L 200.533698 281.773807 
L 201.201267 281.773807 
L 201.201267 281.249559 
L 201.783365 281.249559 
L 201.783365 280.725312 
L 203.774856 280.725312 
L 203.774856 280.201064 
L 204.307912 280.201064 
L 204.307912 279.676816 
L 204.527833 279.676816 
L 204.527833 278.628321 
L 204.779232 278.628321 
L 204.779232 278.104073 
L 205.317173 278.104073 
L 205.317173 277.579825 
L 205.553743 277.579825 
L 205.553743 276.53133 
L 206.65893 276.53133 
L 206.65893 276.007082 
L 208.329973 276.007082 
L 208.329973 275.482834 
L 208.605272 275.482834 
L 208.605272 274.958587 
L 209.252637 274.958587 
L 209.252637 274.434339 
L 209.854118 274.434339 
L 209.947847 271.8131 
L 210.494403 271.8131 
L 210.494403 271.288853 
L 210.663113 271.288853 
L 210.730825 270.240357 
L 211.435873 270.240357 
L 211.435873 269.716109 
L 211.75343 269.716109 
L 211.75343 269.191862 
L 211.8773 269.191862 
L 211.8773 268.667614 
L 212.051884 268.667614 
L 212.051884 268.143366 
L 212.389572 268.143366 
L 212.389572 267.619119 
L 212.717979 267.619119 
L 212.717979 267.094871 
L 212.856055 267.094871 
L 212.856055 266.570623 
L 213.052745 266.570623 
L 213.052745 265.522128 
L 213.943394 265.522128 
L 213.943394 264.99788 
L 214.269551 264.99788 
L 214.281636 263.949385 
L 216.967199 263.949385 
L 216.967199 263.425137 
L 218.984085 263.425137 
L 219.00951 262.376641 
L 219.372188 262.376641 
L 219.372188 261.852394 
L 223.034743 261.852394 
L 223.034743 261.328146 
L 225.289275 261.328146 
L 225.289275 260.803898 
L 225.479456 260.803898 
L 225.479456 260.279651 
L 225.601081 260.279651 
L 225.601081 258.706907 
L 226.358317 258.706907 
L 226.358317 258.18266 
L 232.274202 258.18266 
L 232.274202 257.658412 
L 233.384389 257.658412 
L 233.384389 257.134164 
L 235.935698 257.134164 
L 235.935698 256.609917 
L 237.69928 256.609917 
L 237.69928 256.085669 
L 237.986111 256.085669 
L 237.986111 255.561421 
L 238.355934 255.561421 
L 238.355934 255.037173 
L 245.275884 255.037173 
L 245.357862 253.988678 
L 247.460789 253.988678 
L 247.460789 253.46443 
L 250.258956 253.46443 
L 250.258956 252.940182 
L 252.351116 252.940182 
L 252.351116 252.415935 
L 255.765303 252.415935 
L 255.809909 251.367439 
L 257.309282 251.367439 
L 257.309282 250.843192 
L 258.688398 250.843192 
L 258.688398 250.318944 
L 263.309467 250.318944 
L 263.309467 249.794696 
L 266.035258 249.794696 
L 266.083823 248.746201 
L 277.605802 248.746201 
L 277.605802 248.221953 
L 286.13085 248.221953 
L 286.13085 247.697705 
L 333.429677 247.697705 
L 333.429677 247.697705 
" style="fill:none;stroke:#000080;stroke-linecap:square;stroke-width:1.5;"/>
   </g>
   <g id="line2d_30">
    <defs>
     <path d="M 0 6 
C 1.591219 6 3.117479 5.367802 4.242641 4.242641 
C 5.367802 3.117479 6 1.591219 6 0 
C 6 -1.591219 5.367802 -3.117479 4.242641 -4.242641 
C 3.117479 -5.367802 1.591219 -6 0 -6 
C -1.591219 -6 -3.117479 -5.367802 -4.242641 -4.242641 
C -5.367802 -3.117479 -6 -1.591219 -6 0 
C -6 1.591219 -5.367802 3.117479 -4.242641 4.242641 
C -3.117479 5.367802 -1.591219 6 0 6 
z
" id="m0849e3cc0b" style="stroke:#000080;stroke-width:1.5;"/>
    </defs>
    <g>
     <use style="fill:none;stroke:#000080;stroke-width:1.5;" x="226.358317" xlink:href="#m0849e3cc0b" y="258.706907"/>
     <use style="fill:none;stroke:#000080;stroke-width:1.5;" x="286.13085" xlink:href="#m0849e3cc0b" y="248.221953"/>
     <use style="fill:none;stroke:#000080;stroke-width:1.5;" x="286.13085" xlink:href="#m0849e3cc0b" y="247.697705"/>
     <use style="fill:none;stroke:#000080;stroke-width:1.5;" x="333.429677" xlink:href="#m0849e3cc0b" y="247.697705"/>
    </g>
   </g>
   <g id="line2d_31">
    <path d="M 0 0 
" style="fill:none;stroke:#000080;stroke-linecap:square;stroke-width:1.5;"/>
    <g>
     <use style="fill:none;stroke:#000080;stroke-width:1.5;" x="0" xlink:href="#m0849e3cc0b" y="0"/>
    </g>
   </g>
   <g id="line2d_32">
    <path clip-path="url(#pf3bfeb80a3)" d="M 214.582673 263.949385 
" style="fill:none;stroke:#000080;stroke-linecap:square;stroke-width:1.5;"/>
    <defs>
     <path d="M -12 12 
L 12 -12 
M -12 -12 
L 12 12 
" id="m55376369bf" style="stroke:#000080;stroke-width:3;"/>
    </defs>
    <g clip-path="url(#pf3bfeb80a3)">
     <use style="fill:#000080;stroke:#000080;stroke-width:3;" x="214.582673" xlink:href="#m55376369bf" y="263.949385"/>
    </g>
   </g>
   <g id="line2d_33">
    <defs>
     <path d="M 0 1.5 
C 0.397805 1.5 0.77937 1.341951 1.06066 1.06066 
C 1.341951 0.77937 1.5 0.397805 1.5 0 
C 1.5 -0.397805 1.341951 -0.77937 1.06066 -1.06066 
C 0.77937 -1.341951 0.397805 -1.5 0 -1.5 
C -0.397805 -1.5 -0.77937 -1.341951 -1.06066 -1.06066 
C -1.341951 -0.77937 -1.5 -0.397805 -1.5 0 
C -1.5 0.397805 -1.341951 0.77937 -1.06066 1.06066 
C -0.77937 1.341951 -0.397805 1.5 0 1.5 
z
" id="m41517a617c" style="stroke:#ff00ff;"/>
    </defs>
    <g>
     <use style="fill:#ff00ff;stroke:#ff00ff;" x="237.628458" xlink:href="#m41517a617c" y="27.513663"/>
     <use style="fill:#ff00ff;stroke:#ff00ff;" x="237.628458" xlink:href="#m41517a617c" y="27.513663"/>
    </g>
   </g>
   <g id="line2d_34">
    <path d="M 145.842271 294.88 
L 145.842271 294.355752 
L 147.212201 294.355752 
L 147.212201 292.783009 
L 148.177606 292.783009 
L 148.177606 292.258761 
L 150.417243 292.258761 
L 150.481627 291.210266 
L 151.34501 291.210266 
L 151.34501 290.161771 
L 151.637909 290.161771 
L 151.637909 289.637523 
L 153.133259 289.637523 
L 153.133259 288.589027 
L 155.089511 288.589027 
L 155.089511 288.06478 
L 155.371253 288.06478 
L 155.371253 287.016284 
L 156.215415 287.016284 
L 156.215415 286.492036 
L 156.492039 286.492036 
L 156.492039 285.967789 
L 156.831062 285.967789 
L 156.831062 284.919293 
L 157.000545 284.919293 
L 157.000545 284.395046 
L 157.223957 284.395046 
L 157.223957 283.870798 
L 157.615156 283.870798 
L 157.615156 282.822302 
L 158.146936 282.822302 
L 158.146936 282.298055 
L 159.040289 282.298055 
L 159.05331 281.249559 
L 159.36715 281.249559 
L 159.36715 280.725312 
L 160.51649 280.725312 
L 160.51649 280.201064 
L 160.651447 280.201064 
L 160.736244 279.152568 
L 160.765726 279.152568 
L 160.765726 278.628321 
L 160.887053 278.628321 
L 160.887053 277.055578 
L 161.515051 277.055578 
L 161.515051 276.53133 
L 161.674123 276.53133 
L 161.674123 276.007082 
L 162.108222 276.007082 
L 162.108222 274.958587 
L 162.697426 274.958587 
L 162.697426 273.910091 
L 163.803743 273.910091 
L 163.803743 273.385844 
L 164.09587 273.385844 
L 164.194299 271.288853 
L 164.274561 271.288853 
L 164.274561 270.764605 
L 164.459338 270.764605 
L 164.459338 270.240357 
L 164.846298 270.240357 
L 164.846298 268.667614 
L 166.55693 268.667614 
L 166.55693 267.619119 
L 166.77296 267.619119 
L 166.77296 267.094871 
L 167.249671 267.094871 
L 167.304817 266.046375 
L 167.722705 266.046375 
L 167.722705 264.99788 
L 168.008658 264.99788 
L 168.008658 264.473632 
L 168.62524 264.473632 
L 168.62524 263.949385 
L 168.808325 263.949385 
L 168.808325 263.425137 
L 168.994352 263.425137 
L 169.076928 261.328146 
L 169.511154 261.328146 
L 169.511154 260.803898 
L 170.148874 260.803898 
L 170.148874 259.231155 
L 170.677917 259.231155 
L 170.735219 257.134164 
L 170.991825 257.134164 
L 171.069685 256.085669 
L 171.81194 256.085669 
L 171.81194 255.561421 
L 171.994906 255.561421 
L 172.094816 253.988678 
L 172.148609 253.988678 
L 172.208293 252.415935 
L 172.907843 252.415935 
L 173.01128 250.843192 
L 173.21726 250.843192 
L 173.21726 250.318944 
L 173.539914 250.318944 
L 173.608008 249.270448 
L 173.857546 249.270448 
L 173.857546 247.697705 
L 174.181129 247.697705 
L 174.181129 247.173458 
L 174.539354 247.173458 
L 174.539354 246.64921 
L 174.731413 246.64921 
L 174.827945 243.503724 
L 174.981623 243.503724 
L 174.981623 242.979476 
L 175.427051 242.979476 
L 175.454667 241.93098 
L 175.6831 241.93098 
L 175.6831 241.406733 
L 175.903652 241.406733 
L 175.979249 240.358237 
L 176.03189 240.358237 
L 176.114171 239.309742 
L 176.24964 239.309742 
L 176.267994 237.736999 
L 176.390387 237.736999 
L 176.489096 233.543017 
L 176.816669 233.543017 
L 176.816669 233.018769 
L 177.200187 233.018769 
L 177.200187 232.494521 
L 177.870702 232.494521 
L 177.870702 231.970274 
L 178.291334 231.970274 
L 178.291334 231.446026 
L 179.33408 231.446026 
L 179.33408 230.921778 
L 179.477638 230.921778 
L 179.57334 229.873283 
L 180.036978 229.873283 
L 180.036978 228.824787 
L 180.233185 228.824787 
L 180.252177 227.252044 
L 180.347453 227.252044 
L 180.365691 226.203549 
L 180.579946 226.203549 
L 180.579946 225.155053 
L 180.928375 225.155053 
L 180.928375 224.630806 
L 181.098473 224.630806 
L 181.098473 224.106558 
L 181.525025 224.106558 
L 181.608262 223.058063 
L 182.002518 223.058063 
L 182.040767 220.961072 
L 182.45543 220.961072 
L 182.45543 220.436824 
L 182.631545 220.436824 
L 182.709609 218.864081 
L 182.990873 218.864081 
L 183.05873 216.242842 
L 183.132743 216.242842 
L 183.220822 215.194347 
L 183.260177 215.194347 
L 183.260177 214.670099 
L 183.372431 214.670099 
L 183.432492 213.097356 
L 183.720902 213.097356 
L 183.720902 212.573108 
L 183.954629 212.573108 
L 184.038609 210.476117 
L 184.069046 210.476117 
L 184.069046 209.95187 
L 184.426673 209.95187 
L 184.426673 209.427622 
L 184.743423 209.427622 
L 184.743423 208.903374 
L 184.950754 208.903374 
L 185.001239 206.806383 
L 185.099379 206.806383 
L 185.099379 206.282136 
L 185.323706 206.282136 
L 185.403152 205.23364 
L 185.477564 205.23364 
L 185.477564 204.709392 
L 185.733891 204.709392 
L 185.733891 203.660897 
L 185.987362 203.660897 
L 186.031734 201.563906 
L 186.325396 201.563906 
L 186.325396 201.039658 
L 186.666508 201.039658 
L 186.666508 200.515411 
L 186.792863 200.515411 
L 186.800648 198.942667 
L 186.967616 198.942667 
L 187.03472 197.369924 
L 187.699956 197.369924 
L 187.810409 194.748686 
L 188.176741 194.748686 
L 188.176741 194.224438 
L 188.554582 194.224438 
L 188.597095 192.651695 
L 188.773048 192.651695 
L 188.842698 191.078952 
L 188.938438 191.078952 
L 189.027951 190.030456 
L 189.301582 190.030456 
L 189.301582 188.981961 
L 189.507867 188.981961 
L 189.599986 186.360722 
L 189.70623 186.360722 
L 189.765296 185.312227 
L 189.834313 185.312227 
L 189.834313 184.787979 
L 189.953171 184.787979 
L 190.022157 182.16674 
L 190.104791 182.16674 
L 190.204779 180.06975 
L 190.277713 180.06975 
L 190.301367 179.021254 
L 190.422309 179.021254 
L 190.505837 176.400016 
L 190.74164 176.400016 
L 190.79349 175.35152 
L 190.951168 175.35152 
L 191.004424 172.730281 
L 191.21113 172.730281 
L 191.21113 171.681786 
L 191.498844 171.681786 
L 191.544199 170.633291 
L 191.86901 170.633291 
L 191.86901 169.584795 
L 192.072965 169.584795 
L 192.13492 167.487804 
L 192.222861 167.487804 
L 192.243673 165.390813 
L 192.756576 165.390813 
L 192.772169 164.342318 
L 193.009515 164.342318 
L 193.082907 160.148336 
L 193.246307 160.148336 
L 193.309813 159.099841 
L 193.572609 159.099841 
L 193.67296 156.478602 
L 193.685427 156.478602 
L 193.774171 154.905859 
L 194.085891 154.905859 
L 194.18133 153.333116 
L 194.197091 153.333116 
L 194.197091 152.808868 
L 194.420412 152.808868 
L 194.437621 151.760373 
L 194.650191 151.760373 
L 194.740105 150.18763 
L 194.762715 150.18763 
L 194.762715 149.663382 
L 195.091397 149.663382 
L 195.115416 148.090639 
L 195.538753 148.090639 
L 195.552539 147.042143 
L 195.710934 147.042143 
L 195.808555 144.420905 
L 195.933114 144.420905 
L 195.975787 142.323914 
L 196.103678 142.323914 
L 196.13764 140.751171 
L 196.325599 140.751171 
L 196.331564 138.65418 
L 196.443768 138.65418 
L 196.450926 137.605684 
L 196.572161 137.605684 
L 196.604477 136.032941 
L 196.743574 136.032941 
L 196.842761 133.93595 
L 196.924823 133.93595 
L 196.979473 131.838959 
L 197.160162 131.838959 
L 197.265694 129.217721 
L 197.299318 129.217721 
L 197.299318 128.693473 
L 197.488084 128.693473 
L 197.488084 127.644978 
L 197.63246 127.644978 
L 197.705802 123.975244 
L 197.767177 123.975244 
L 197.767177 122.926748 
L 197.91196 122.926748 
L 197.91196 122.4025 
L 198.048563 122.4025 
L 198.118365 120.30551 
L 198.184983 120.30551 
L 198.258678 118.208519 
L 198.351737 118.208519 
L 198.389701 117.160023 
L 198.495209 117.160023 
L 198.495209 116.635776 
L 198.66529 116.635776 
L 198.738905 114.014537 
L 198.798216 114.014537 
L 198.890123 111.393298 
L 198.934183 111.393298 
L 199.038325 108.77206 
L 199.103174 108.77206 
L 199.179365 105.102326 
L 199.274081 105.102326 
L 199.333875 101.956839 
L 199.413625 101.956839 
L 199.413625 101.432592 
L 199.732447 101.432592 
L 199.826405 98.811353 
L 199.865707 98.811353 
L 199.928524 97.23861 
L 199.982674 97.23861 
L 200.03966 94.617371 
L 200.229909 94.617371 
L 200.229909 94.093124 
L 200.354076 94.093124 
L 200.441577 90.947637 
L 200.500576 90.947637 
L 200.50896 89.899142 
L 200.662849 89.899142 
L 200.728794 87.802151 
L 200.794872 87.802151 
L 200.810202 85.70516 
L 200.98913 85.70516 
L 201.068752 84.132417 
L 201.110214 84.132417 
L 201.189466 81.511178 
L 201.292399 81.511178 
L 201.401013 78.88994 
L 201.423763 78.88994 
L 201.523102 77.317197 
L 201.556699 77.317197 
L 201.556699 75.744454 
L 201.722982 75.744454 
L 201.773406 74.17171 
L 201.872734 74.17171 
L 201.872734 73.647463 
L 202.071998 73.647463 
L 202.168559 71.026224 
L 202.39714 71.026224 
L 202.456077 68.404985 
L 202.568853 68.404985 
L 202.608582 66.307995 
L 202.699097 66.307995 
L 202.754273 64.211004 
L 202.875653 64.211004 
L 202.927558 60.54127 
L 203.191428 60.54127 
L 203.191428 58.444279 
L 203.513957 58.444279 
L 203.513957 57.920031 
L 203.72173 57.920031 
L 203.808841 55.82304 
L 204.03678 55.82304 
L 204.13795 53.201802 
L 204.178787 53.201802 
L 204.284137 50.580563 
L 204.316351 50.580563 
L 204.327908 49.00782 
L 204.432041 49.00782 
L 204.522431 47.435077 
L 204.708061 47.435077 
L 204.749245 44.813838 
L 204.827527 44.813838 
L 204.932759 41.668352 
L 205.046487 41.668352 
L 205.122388 40.095609 
L 205.300214 40.095609 
L 205.367365 37.998618 
L 205.466287 37.998618 
L 205.491403 35.377379 
L 205.732944 35.377379 
L 205.732944 34.853131 
L 205.853813 34.853131 
L 205.853813 34.328884 
L 206.204406 34.328884 
L 206.285133 33.280388 
L 206.362709 33.280388 
L 206.388629 31.183397 
L 207.28705 31.183397 
L 207.28705 30.65915 
L 207.402475 30.65915 
L 207.402475 30.134902 
L 208.62827 30.134902 
L 208.62827 29.086407 
L 213.363863 29.086407 
L 213.363863 28.562159 
L 232.834095 28.562159 
L 232.834095 28.037911 
L 237.628458 28.037911 
L 237.628458 27.513663 
L 333.429677 27.513663 
L 333.429677 27.513663 
" style="fill:none;stroke:#ff00ff;stroke-linecap:square;stroke-width:1.5;"/>
   </g>
   <g id="line2d_35">
    <defs>
     <path d="M -0 8.485281 
L 5.091169 0 
L 0 -8.485281 
L -5.091169 -0 
z
" id="md4af811cbf" style="stroke:#ff00ff;stroke-linejoin:miter;stroke-width:1.5;"/>
    </defs>
    <g>
     <use style="fill:none;stroke:#ff00ff;stroke-linejoin:miter;stroke-width:1.5;" x="184.021337" xlink:href="#md4af811cbf" y="212.04886"/>
     <use style="fill:none;stroke:#ff00ff;stroke-linejoin:miter;stroke-width:1.5;" x="204.178787" xlink:href="#md4af811cbf" y="53.201802"/>
     <use style="fill:none;stroke:#ff00ff;stroke-linejoin:miter;stroke-width:1.5;" x="237.628458" xlink:href="#md4af811cbf" y="27.513663"/>
     <use style="fill:none;stroke:#ff00ff;stroke-linejoin:miter;stroke-width:1.5;" x="237.628458" xlink:href="#md4af811cbf" y="27.513663"/>
     <use style="fill:none;stroke:#ff00ff;stroke-linejoin:miter;stroke-width:1.5;" x="333.429677" xlink:href="#md4af811cbf" y="27.513663"/>
    </g>
   </g>
   <g id="line2d_36">
    <path d="M 0 0 
" style="fill:none;stroke:#ff00ff;stroke-linecap:square;stroke-width:1.5;"/>
    <g>
     <use style="fill:none;stroke:#ff00ff;stroke-linejoin:miter;stroke-width:1.5;" x="0" xlink:href="#md4af811cbf" y="0"/>
    </g>
   </g>
   <g id="line2d_37">
    <defs>
     <path d="M 0 1.5 
C 0.397805 1.5 0.77937 1.341951 1.06066 1.06066 
C 1.341951 0.77937 1.5 0.397805 1.5 0 
C 1.5 -0.397805 1.341951 -0.77937 1.06066 -1.06066 
C 0.77937 -1.341951 0.397805 -1.5 0 -1.5 
C -0.397805 -1.5 -0.77937 -1.341951 -1.06066 -1.06066 
C -1.341951 -0.77937 -1.5 -0.397805 -1.5 0 
C -1.5 0.397805 -1.341951 0.77937 -1.06066 1.06066 
C -0.77937 1.341951 -0.397805 1.5 0 1.5 
z
" id="m6eb6430718" style="stroke:#ffa500;"/>
    </defs>
    <g>
     <use style="fill:#ffa500;stroke:#ffa500;" x="203.315901" xlink:href="#m6eb6430718" y="27.513663"/>
     <use style="fill:#ffa500;stroke:#ffa500;" x="203.315901" xlink:href="#m6eb6430718" y="27.513663"/>
    </g>
   </g>
   <g id="line2d_38">
    <path d="M 144.465537 294.88 
L 144.465537 294.355752 
L 152.215616 294.355752 
L 152.283269 292.783009 
L 152.604984 292.783009 
L 152.604984 291.734514 
L 152.982648 291.734514 
L 153.056581 290.686018 
L 153.574356 290.686018 
L 153.681403 289.637523 
L 154.077002 289.637523 
L 154.077002 289.113275 
L 154.897245 289.113275 
L 154.897245 288.06478 
L 155.021091 288.06478 
L 155.122256 287.016284 
L 155.414192 287.016284 
L 155.513078 284.919293 
L 156.043146 284.919293 
L 156.043146 284.395046 
L 156.340319 284.395046 
L 156.340319 283.34655 
L 156.860657 283.34655 
L 156.860657 282.822302 
L 157.211889 282.822302 
L 157.281764 280.201064 
L 157.544256 280.201064 
L 157.544256 279.676816 
L 157.854051 279.676816 
L 157.946837 276.53133 
L 158.098849 276.53133 
L 158.098849 276.007082 
L 158.649452 276.007082 
L 158.649452 275.482834 
L 159.547263 275.482834 
L 159.547263 274.958587 
L 159.821208 274.958587 
L 159.821208 274.434339 
L 160.402544 274.434339 
L 160.402544 273.910091 
L 160.572189 273.910091 
L 160.597988 271.8131 
L 161.119476 271.8131 
L 161.119476 271.288853 
L 161.390515 271.288853 
L 161.390515 270.240357 
L 161.741053 270.240357 
L 161.822505 269.191862 
L 161.892541 269.191862 
L 161.892541 268.667614 
L 162.108222 268.667614 
L 162.126376 267.619119 
L 162.529865 267.619119 
L 162.529865 266.570623 
L 163.729517 266.570623 
L 163.729517 264.99788 
L 164.606059 264.99788 
L 164.707868 263.425137 
L 165.431118 263.425137 
L 165.472994 261.328146 
L 166.056017 261.328146 
L 166.155363 259.231155 
L 167.351753 259.231155 
L 167.425253 256.609917 
L 167.498439 256.609917 
L 167.498439 256.085669 
L 168.534212 256.085669 
L 168.534212 255.561421 
L 169.864243 255.561421 
L 169.864243 254.512926 
L 170.426633 254.512926 
L 170.461319 252.940182 
L 170.682331 252.940182 
L 170.720911 251.367439 
L 170.938635 251.367439 
L 171.019982 250.318944 
L 172.416073 250.318944 
L 172.416073 249.270448 
L 172.858321 249.270448 
L 172.944649 247.173458 
L 173.621036 247.173458 
L 173.719361 246.124962 
L 174.49255 246.124962 
L 174.49255 245.600714 
L 174.898911 245.600714 
L 174.898911 244.552219 
L 175.076765 244.552219 
L 175.076765 244.027971 
L 175.198565 244.027971 
L 175.228246 242.455228 
L 175.68805 242.455228 
L 175.68805 241.406733 
L 176.486733 241.406733 
L 176.566089 239.309742 
L 176.638837 239.309742 
L 176.707392 238.261246 
L 176.808169 238.261246 
L 176.880672 236.164255 
L 177.044602 236.164255 
L 177.122191 234.591512 
L 177.23566 234.591512 
L 177.23566 233.543017 
L 177.402979 233.543017 
L 177.469305 231.446026 
L 177.521292 231.446026 
L 177.521292 230.921778 
L 177.731349 230.921778 
L 177.731349 230.397531 
L 178.107407 230.397531 
L 178.107407 228.824787 
L 178.296297 228.824787 
L 178.296297 228.30054 
L 178.808224 228.30054 
L 178.82748 226.203549 
L 179.067739 226.203549 
L 179.067739 225.155053 
L 179.238377 225.155053 
L 179.291314 224.106558 
L 179.677674 224.106558 
L 179.677674 223.058063 
L 179.844987 223.058063 
L 179.890925 222.009567 
L 180.170998 222.009567 
L 180.234451 219.388328 
L 180.292623 219.388328 
L 180.292623 218.339833 
L 180.538926 218.339833 
L 180.586153 216.76709 
L 181.580171 216.76709 
L 181.580171 215.194347 
L 182.001375 215.194347 
L 182.001375 214.145851 
L 182.474902 214.145851 
L 182.478794 213.097356 
L 183.312159 213.097356 
L 183.322748 212.04886 
L 183.488675 212.04886 
L 183.488675 210.476117 
L 183.631715 210.476117 
L 183.659246 208.379126 
L 183.813745 208.379126 
L 183.916832 207.330631 
L 184.050283 207.330631 
L 184.050283 205.757888 
L 184.303122 205.757888 
L 184.303122 205.23364 
L 184.558705 205.23364 
L 184.599543 203.660897 
L 184.751219 203.660897 
L 184.751219 202.612401 
L 184.972889 202.612401 
L 185.053969 199.991163 
L 185.134191 199.991163 
L 185.175114 196.321429 
L 185.564206 196.321429 
L 185.594382 193.175943 
L 185.725608 193.175943 
L 185.725608 192.651695 
L 185.854927 192.651695 
L 185.953781 190.554704 
L 186.140367 190.554704 
L 186.140367 190.030456 
L 186.587883 190.030456 
L 186.587883 188.981961 
L 186.926026 188.981961 
L 186.944046 187.409218 
L 187.14358 187.409218 
L 187.229415 186.360722 
L 187.731528 186.360722 
L 187.840965 184.263731 
L 187.94526 184.263731 
L 188.018336 182.690988 
L 188.191904 182.690988 
L 188.243276 180.593997 
L 188.350307 180.593997 
L 188.455104 177.972759 
L 188.499823 177.972759 
L 188.587354 176.924263 
L 188.74758 176.924263 
L 188.74758 175.875768 
L 188.90212 175.875768 
L 188.976205 174.303025 
L 189.263025 174.303025 
L 189.347886 171.681786 
L 189.383277 171.681786 
L 189.418223 170.633291 
L 189.535554 170.633291 
L 189.632662 169.060547 
L 189.710612 169.060547 
L 189.711342 167.487804 
L 190.053325 167.487804 
L 190.053325 166.963557 
L 190.333443 166.963557 
L 190.333443 166.439309 
L 190.561877 166.439309 
L 190.567089 163.81807 
L 190.776339 163.81807 
L 190.776339 162.769575 
L 190.924989 162.769575 
L 191.018305 160.148336 
L 191.11953 160.148336 
L 191.186014 158.051345 
L 191.651847 158.051345 
L 191.747153 157.00285 
L 191.8587 157.00285 
L 191.8587 155.954354 
L 192.133334 155.954354 
L 192.195072 154.905859 
L 192.292138 154.905859 
L 192.35738 153.857364 
L 192.470341 153.857364 
L 192.524684 151.236125 
L 192.679933 151.236125 
L 192.687612 150.18763 
L 192.840491 150.18763 
L 192.840491 149.663382 
L 192.982667 149.663382 
L 192.982667 149.139134 
L 193.118886 149.139134 
L 193.202547 148.090639 
L 193.243036 148.090639 
L 193.351824 143.372409 
L 193.402279 143.372409 
L 193.411115 141.275418 
L 193.538736 141.275418 
L 193.642771 139.702675 
L 193.67818 139.702675 
L 193.770999 134.984446 
L 193.816502 134.984446 
L 193.86418 132.363207 
L 194.146096 132.363207 
L 194.146096 131.314712 
L 194.332436 131.314712 
L 194.332436 130.266216 
L 194.552641 130.266216 
L 194.610963 127.644978 
L 194.880186 127.644978 
L 194.884511 126.072235 
L 194.998203 126.072235 
L 195.089527 121.878253 
L 195.230777 121.878253 
L 195.316924 118.732766 
L 195.524435 118.732766 
L 195.567613 114.014537 
L 195.665532 114.014537 
L 195.768289 111.917546 
L 195.798562 111.917546 
L 195.798562 110.869051 
L 195.932097 110.869051 
L 196.015824 109.296308 
L 196.060565 109.296308 
L 196.147689 107.199317 
L 196.364087 107.199317 
L 196.446236 102.481087 
L 196.532663 102.481087 
L 196.605455 101.432592 
L 196.696198 101.432592 
L 196.715407 99.335601 
L 196.859397 99.335601 
L 196.859397 98.811353 
L 197.072078 98.811353 
L 197.167975 94.617371 
L 197.226578 94.617371 
L 197.292505 92.520381 
L 197.660546 92.520381 
L 197.660546 91.996133 
L 197.829018 91.996133 
L 197.932802 90.947637 
L 198.215524 90.947637 
L 198.326528 88.326399 
L 198.438359 88.326399 
L 198.502438 83.083922 
L 198.562788 83.083922 
L 198.657911 79.938435 
L 198.752295 79.938435 
L 198.752295 78.88994 
L 199.116706 78.88994 
L 199.204197 76.268701 
L 199.327195 76.268701 
L 199.433557 74.17171 
L 199.474386 74.17171 
L 199.572642 72.074719 
L 199.653345 72.074719 
L 199.697744 69.977729 
L 199.80672 69.977729 
L 199.850118 68.929233 
L 199.958539 68.929233 
L 200.052075 66.832242 
L 200.221388 66.832242 
L 200.287662 63.686756 
L 200.33597 63.686756 
L 200.442947 58.968526 
L 200.46309 58.968526 
L 200.551208 56.347288 
L 200.579962 56.347288 
L 200.607119 53.201802 
L 200.704335 53.201802 
L 200.807329 50.056315 
L 200.96409 50.056315 
L 201.059693 47.959324 
L 201.177283 47.959324 
L 201.186656 45.338086 
L 201.305431 45.338086 
L 201.37953 43.241095 
L 201.510417 43.241095 
L 201.581442 40.619856 
L 201.706626 40.619856 
L 201.745129 39.571361 
L 201.973997 39.571361 
L 201.973997 39.047113 
L 202.098678 39.047113 
L 202.101699 36.950122 
L 202.236395 36.950122 
L 202.304492 33.804636 
L 202.352367 33.804636 
L 202.381413 30.65915 
L 202.550686 30.65915 
L 202.624965 29.086407 
L 202.71968 29.086407 
L 202.71968 28.562159 
L 203.238565 28.562159 
L 203.315901 27.513663 
L 333.429677 27.513663 
L 333.429677 27.513663 
" style="fill:none;stroke:#ffa500;stroke-linecap:square;stroke-width:1.5;"/>
   </g>
   <g id="line2d_39">
    <defs>
     <path d="M 0 -6 
L -1.347084 -1.854102 
L -5.706339 -1.854102 
L -2.179628 0.708204 
L -3.526712 4.854102 
L -0 2.291796 
L 3.526712 4.854102 
L 2.179628 0.708204 
L 5.706339 -1.854102 
L 1.347084 -1.854102 
z
" id="mcc5981a5a8" style="stroke:#ffa500;stroke-linejoin:bevel;stroke-width:1.5;"/>
    </defs>
    <g>
     <use style="fill:none;stroke:#ffa500;stroke-linejoin:bevel;stroke-width:1.5;" x="177.731349" xlink:href="#mcc5981a5a8" y="230.397531"/>
     <use style="fill:none;stroke:#ffa500;stroke-linejoin:bevel;stroke-width:1.5;" x="196.147689" xlink:href="#mcc5981a5a8" y="107.723564"/>
     <use style="fill:none;stroke:#ffa500;stroke-linejoin:bevel;stroke-width:1.5;" x="203.315901" xlink:href="#mcc5981a5a8" y="28.037911"/>
     <use style="fill:none;stroke:#ffa500;stroke-linejoin:bevel;stroke-width:1.5;" x="203.315901" xlink:href="#mcc5981a5a8" y="27.513663"/>
     <use style="fill:none;stroke:#ffa500;stroke-linejoin:bevel;stroke-width:1.5;" x="333.429677" xlink:href="#mcc5981a5a8" y="27.513663"/>
    </g>
   </g>
   <g id="line2d_40">
    <path d="M 0 0 
" style="fill:none;stroke:#ffa500;stroke-linecap:square;stroke-width:1.5;"/>
    <g>
     <use style="fill:none;stroke:#ffa500;stroke-linejoin:bevel;stroke-width:1.5;" x="0" xlink:href="#mcc5981a5a8" y="0"/>
    </g>
   </g>
   <g id="line2d_41">
    <defs>
     <path d="M 0 1.5 
C 0.397805 1.5 0.77937 1.341951 1.06066 1.06066 
C 1.341951 0.77937 1.5 0.397805 1.5 0 
C 1.5 -0.397805 1.341951 -0.77937 1.06066 -1.06066 
C 0.77937 -1.341951 0.397805 -1.5 0 -1.5 
C -0.397805 -1.5 -0.77937 -1.341951 -1.06066 -1.06066 
C -1.341951 -0.77937 -1.5 -0.397805 -1.5 0 
C -1.5 0.397805 -1.341951 0.77937 -1.06066 1.06066 
C -0.77937 1.341951 -0.397805 1.5 0 1.5 
z
" id="m8cfd133929" style="stroke:#6495ed;"/>
    </defs>
    <g>
     <use style="fill:#6495ed;stroke:#6495ed;" x="275.212945" xlink:href="#m8cfd133929" y="279.152568"/>
     <use style="fill:#6495ed;stroke:#6495ed;" x="275.212945" xlink:href="#m8cfd133929" y="279.152568"/>
    </g>
   </g>
   <g id="line2d_42">
    <path d="M 196.11249 294.88 
L 196.11249 294.355752 
L 197.602481 294.355752 
L 197.602481 293.307257 
L 198.117469 293.307257 
L 198.117469 292.258761 
L 199.134873 292.258761 
L 199.134873 291.210266 
L 199.524204 291.210266 
L 199.524204 290.161771 
L 199.949279 290.161771 
L 199.949279 289.637523 
L 201.91464 289.637523 
L 201.91464 289.113275 
L 202.366371 289.113275 
L 202.366371 288.589027 
L 211.217901 288.589027 
L 211.217901 288.06478 
L 220.179591 288.06478 
L 220.179591 287.540532 
L 220.707574 287.540532 
L 220.707574 287.016284 
L 224.911882 287.016284 
L 224.911882 286.492036 
L 225.689269 286.492036 
L 225.689269 284.919293 
L 229.454367 284.919293 
L 229.454367 284.395046 
L 229.812392 284.395046 
L 229.812392 283.870798 
L 232.439135 283.870798 
L 232.439135 283.34655 
L 232.94505 283.34655 
L 232.94505 282.822302 
L 238.032798 282.822302 
L 238.032798 281.773807 
L 240.109085 281.773807 
L 240.109085 281.249559 
L 247.837003 281.249559 
L 247.837003 280.725312 
L 254.043482 280.725312 
L 254.043482 280.201064 
L 257.20742 280.201064 
L 257.20742 279.676816 
L 275.212945 279.676816 
L 275.212945 279.152568 
L 333.429677 279.152568 
" style="fill:none;stroke:#6495ed;stroke-linecap:square;stroke-width:1.5;"/>
   </g>
   <g id="line2d_43">
    <defs>
     <path d="M -0 6 
L 6 -6 
L -6 -6 
z
" id="m07c2c1826f" style="stroke:#6495ed;stroke-linejoin:miter;stroke-width:1.5;"/>
    </defs>
    <g>
     <use style="fill:none;stroke:#6495ed;stroke-linejoin:miter;stroke-width:1.5;" x="240.109085" xlink:href="#m07c2c1826f" y="281.249559"/>
     <use style="fill:none;stroke:#6495ed;stroke-linejoin:miter;stroke-width:1.5;" x="275.212945" xlink:href="#m07c2c1826f" y="279.676816"/>
     <use style="fill:none;stroke:#6495ed;stroke-linejoin:miter;stroke-width:1.5;" x="275.212945" xlink:href="#m07c2c1826f" y="279.152568"/>
     <use style="fill:none;stroke:#6495ed;stroke-linejoin:miter;stroke-width:1.5;" x="333.429677" xlink:href="#m07c2c1826f" y="279.152568"/>
    </g>
   </g>
   <g id="line2d_44">
    <path d="M 0 0 
" style="fill:none;stroke:#6495ed;stroke-linecap:square;stroke-width:1.5;"/>
    <g>
     <use style="fill:none;stroke:#6495ed;stroke-linejoin:miter;stroke-width:1.5;" x="0" xlink:href="#m07c2c1826f" y="0"/>
    </g>
   </g>
   <g id="line2d_45">
    <path clip-path="url(#pf3bfeb80a3)" d="M 214.589897 288.06478 
" style="fill:none;stroke:#6495ed;stroke-linecap:square;stroke-width:1.5;"/>
    <defs>
     <path d="M -12 12 
L 12 -12 
M -12 -12 
L 12 12 
" id="m1106e2a38d" style="stroke:#6495ed;stroke-width:3;"/>
    </defs>
    <g clip-path="url(#pf3bfeb80a3)">
     <use style="fill:#6495ed;stroke:#6495ed;stroke-width:3;" x="214.589897" xlink:href="#m1106e2a38d" y="288.06478"/>
    </g>
   </g>
   <g id="line2d_46">
    <path d="M 333.429677 279.152568 
L 363.933742 289.532673 
" style="fill:none;stroke:#6495ed;stroke-linecap:square;stroke-width:1.5;"/>
    <g>
     <use style="fill:none;stroke:#6495ed;stroke-linejoin:miter;stroke-width:1.5;" x="333.429677" xlink:href="#m07c2c1826f" y="279.152568"/>
     <use style="fill:none;stroke:#6495ed;stroke-linejoin:miter;stroke-width:1.5;" x="363.933742" xlink:href="#m07c2c1826f" y="289.532673"/>
    </g>
   </g>
   <g id="line2d_47">
    <path d="M 333.429677 247.697705 
L 363.933742 225.364752 
" style="fill:none;stroke:#000080;stroke-linecap:square;stroke-width:1.5;"/>
    <g>
     <use style="fill:none;stroke:#000080;stroke-width:1.5;" x="333.429677" xlink:href="#m0849e3cc0b" y="247.697705"/>
     <use style="fill:none;stroke:#000080;stroke-width:1.5;" x="363.933742" xlink:href="#m0849e3cc0b" y="225.364752"/>
    </g>
   </g>
   <g id="line2d_48">
    <path d="M 333.429677 27.513663 
L 363.933742 161.196832 
" style="fill:none;stroke:#ff00ff;stroke-linecap:square;stroke-width:1.5;"/>
    <g>
     <use style="fill:none;stroke:#ff00ff;stroke-linejoin:miter;stroke-width:1.5;" x="333.429677" xlink:href="#md4af811cbf" y="27.513663"/>
     <use style="fill:none;stroke:#ff00ff;stroke-linejoin:miter;stroke-width:1.5;" x="363.933742" xlink:href="#md4af811cbf" y="161.196832"/>
    </g>
   </g>
   <g id="line2d_49">
    <path d="M 333.429677 27.513663 
L 363.933742 97.028911 
" style="fill:none;stroke:#ffa500;stroke-linecap:square;stroke-width:1.5;"/>
    <g>
     <use style="fill:none;stroke:#ffa500;stroke-linejoin:bevel;stroke-width:1.5;" x="333.429677" xlink:href="#mcc5981a5a8" y="27.513663"/>
     <use style="fill:none;stroke:#ffa500;stroke-linejoin:bevel;stroke-width:1.5;" x="363.933742" xlink:href="#mcc5981a5a8" y="97.028911"/>
    </g>
   </g>
   <g id="line2d_50">
    <path d="M 333.429677 294.88 
L 333.429677 27.513663 
" style="fill:none;stroke:#000000;stroke-linecap:square;stroke-width:1.5;"/>
   </g>
   <g id="patch_3">
    <path d="M 56.12 294.88 
L 56.12 24.84 
" style="fill:none;stroke:#000000;stroke-linecap:square;stroke-linejoin:miter;stroke-width:0.8;"/>
   </g>
   <g id="patch_4">
    <path d="M 399.984 294.88 
L 399.984 24.84 
" style="fill:none;stroke:#000000;stroke-linecap:square;stroke-linejoin:miter;stroke-width:0.8;"/>
   </g>
   <g id="patch_5">
    <path d="M 56.12 294.88 
L 399.984 294.88 
" style="fill:none;stroke:#000000;stroke-linecap:square;stroke-linejoin:miter;stroke-width:0.8;"/>
   </g>
   <g id="patch_6">
    <path d="M 56.12 24.84 
L 399.984 24.84 
" style="fill:none;stroke:#000000;stroke-linecap:square;stroke-linejoin:miter;stroke-width:0.8;"/>
   </g>
   <g id="text_14">
    <!-- DFO -->
    <defs>
     <path d="M 19.671875 64.796875 
L 19.671875 8.109375 
L 31.59375 8.109375 
Q 46.6875 8.109375 53.6875 14.9375 
Q 60.6875 21.78125 60.6875 36.53125 
Q 60.6875 51.171875 53.6875 57.984375 
Q 46.6875 64.796875 31.59375 64.796875 
z
M 9.8125 72.90625 
L 30.078125 72.90625 
Q 51.265625 72.90625 61.171875 64.09375 
Q 71.09375 55.28125 71.09375 36.53125 
Q 71.09375 17.671875 61.125 8.828125 
Q 51.171875 0 30.078125 0 
L 9.8125 0 
z
" id="DejaVuSans-44"/>
     <path d="M 39.40625 66.21875 
Q 28.65625 66.21875 22.328125 58.203125 
Q 16.015625 50.203125 16.015625 36.375 
Q 16.015625 22.609375 22.328125 14.59375 
Q 28.65625 6.59375 39.40625 6.59375 
Q 50.140625 6.59375 56.421875 14.59375 
Q 62.703125 22.609375 62.703125 36.375 
Q 62.703125 50.203125 56.421875 58.203125 
Q 50.140625 66.21875 39.40625 66.21875 
z
M 39.40625 74.21875 
Q 54.734375 74.21875 63.90625 63.9375 
Q 73.09375 53.65625 73.09375 36.375 
Q 73.09375 19.140625 63.90625 8.859375 
Q 54.734375 -1.421875 39.40625 -1.421875 
Q 24.03125 -1.421875 14.8125 8.828125 
Q 5.609375 19.09375 5.609375 36.375 
Q 5.609375 53.65625 14.8125 63.9375 
Q 24.03125 74.21875 39.40625 74.21875 
z
" id="DejaVuSans-4f"/>
    </defs>
    <g transform="translate(369.479935 294.223611)scale(0.17 -0.17)">
     <use xlink:href="#DejaVuSans-44"/>
     <use x="77.001953" xlink:href="#DejaVuSans-46"/>
     <use x="134.521484" xlink:href="#DejaVuSans-4f"/>
    </g>
   </g>
   <g id="text_15">
    <!-- FULLNEWUO -->
    <defs>
     <path d="M 8.6875 72.90625 
L 18.609375 72.90625 
L 18.609375 28.609375 
Q 18.609375 16.890625 22.84375 11.734375 
Q 27.09375 6.59375 36.625 6.59375 
Q 46.09375 6.59375 50.34375 11.734375 
Q 54.59375 16.890625 54.59375 28.609375 
L 54.59375 72.90625 
L 64.5 72.90625 
L 64.5 27.390625 
Q 64.5 13.140625 57.4375 5.859375 
Q 50.390625 -1.421875 36.625 -1.421875 
Q 22.796875 -1.421875 15.734375 5.859375 
Q 8.6875 13.140625 8.6875 27.390625 
z
" id="DejaVuSans-55"/>
     <path d="M 9.8125 72.90625 
L 19.671875 72.90625 
L 19.671875 8.296875 
L 55.171875 8.296875 
L 55.171875 0 
L 9.8125 0 
z
" id="DejaVuSans-4c"/>
     <path d="M 9.8125 72.90625 
L 23.09375 72.90625 
L 55.421875 11.921875 
L 55.421875 72.90625 
L 64.984375 72.90625 
L 64.984375 0 
L 51.703125 0 
L 19.390625 60.984375 
L 19.390625 0 
L 9.8125 0 
z
" id="DejaVuSans-4e"/>
     <path d="M 9.8125 72.90625 
L 55.90625 72.90625 
L 55.90625 64.59375 
L 19.671875 64.59375 
L 19.671875 43.015625 
L 54.390625 43.015625 
L 54.390625 34.71875 
L 19.671875 34.71875 
L 19.671875 8.296875 
L 56.78125 8.296875 
L 56.78125 0 
L 9.8125 0 
z
" id="DejaVuSans-45"/>
     <path d="M 3.328125 72.90625 
L 13.28125 72.90625 
L 28.609375 11.28125 
L 43.890625 72.90625 
L 54.984375 72.90625 
L 70.3125 11.28125 
L 85.59375 72.90625 
L 95.609375 72.90625 
L 77.296875 0 
L 64.890625 0 
L 49.515625 63.28125 
L 33.984375 0 
L 21.578125 0 
z
" id="DejaVuSans-57"/>
    </defs>
    <g transform="translate(369.479935 230.05569)scale(0.17 -0.17)">
     <use xlink:href="#DejaVuSans-46"/>
     <use x="57.519531" xlink:href="#DejaVuSans-55"/>
     <use x="130.712891" xlink:href="#DejaVuSans-4c"/>
     <use x="186.425781" xlink:href="#DejaVuSans-4c"/>
     <use x="242.138672" xlink:href="#DejaVuSans-4e"/>
     <use x="316.943359" xlink:href="#DejaVuSans-45"/>
     <use x="380.126953" xlink:href="#DejaVuSans-57"/>
     <use x="479.003906" xlink:href="#DejaVuSans-55"/>
     <use x="552.197266" xlink:href="#DejaVuSans-4f"/>
    </g>
   </g>
   <g id="text_16">
    <!-- NEWUOA ro -->
    <defs>
     <path d="M 34.1875 63.1875 
L 20.796875 26.90625 
L 47.609375 26.90625 
z
M 28.609375 72.90625 
L 39.796875 72.90625 
L 67.578125 0 
L 57.328125 0 
L 50.6875 18.703125 
L 17.828125 18.703125 
L 11.1875 0 
L 0.78125 0 
z
" id="DejaVuSans-41"/>
    </defs>
    <g transform="translate(369.479935 165.887769)scale(0.17 -0.17)">
     <use xlink:href="#DejaVuSans-4e"/>
     <use x="74.804688" xlink:href="#DejaVuSans-45"/>
     <use x="137.988281" xlink:href="#DejaVuSans-57"/>
     <use x="236.865234" xlink:href="#DejaVuSans-55"/>
     <use x="310.058594" xlink:href="#DejaVuSans-4f"/>
     <use x="388.753906" xlink:href="#DejaVuSans-41"/>
     <use x="457.162109" xlink:href="#DejaVuSans-20"/>
     <use x="488.949219" xlink:href="#DejaVuSans-72"/>
     <use x="530.03125" xlink:href="#DejaVuSans-6f"/>
    </g>
   </g>
   <g id="text_17">
    <!-- AVGNEWUOA -->
    <defs>
     <path d="M 28.609375 0 
L 0.78125 72.90625 
L 11.078125 72.90625 
L 34.1875 11.53125 
L 57.328125 72.90625 
L 67.578125 72.90625 
L 39.796875 0 
z
" id="DejaVuSans-56"/>
     <path d="M 59.515625 10.40625 
L 59.515625 29.984375 
L 43.40625 29.984375 
L 43.40625 38.09375 
L 69.28125 38.09375 
L 69.28125 6.78125 
Q 63.578125 2.734375 56.6875 0.65625 
Q 49.8125 -1.421875 42 -1.421875 
Q 24.90625 -1.421875 15.25 8.5625 
Q 5.609375 18.5625 5.609375 36.375 
Q 5.609375 54.25 15.25 64.234375 
Q 24.90625 74.21875 42 74.21875 
Q 49.125 74.21875 55.546875 72.453125 
Q 61.96875 70.703125 67.390625 67.28125 
L 67.390625 56.78125 
Q 61.921875 61.421875 55.765625 63.765625 
Q 49.609375 66.109375 42.828125 66.109375 
Q 29.4375 66.109375 22.71875 58.640625 
Q 16.015625 51.171875 16.015625 36.375 
Q 16.015625 21.625 22.71875 14.15625 
Q 29.4375 6.6875 42.828125 6.6875 
Q 48.046875 6.6875 52.140625 7.59375 
Q 56.25 8.5 59.515625 10.40625 
z
" id="DejaVuSans-47"/>
    </defs>
    <g transform="translate(369.479935 101.719848)scale(0.17 -0.17)">
     <use xlink:href="#DejaVuSans-41"/>
     <use x="68.314453" xlink:href="#DejaVuSans-56"/>
     <use x="136.722656" xlink:href="#DejaVuSans-47"/>
     <use x="214.212891" xlink:href="#DejaVuSans-4e"/>
     <use x="289.017578" xlink:href="#DejaVuSans-45"/>
     <use x="352.201172" xlink:href="#DejaVuSans-57"/>
     <use x="451.078125" xlink:href="#DejaVuSans-55"/>
     <use x="524.271484" xlink:href="#DejaVuSans-4f"/>
     <use x="602.966797" xlink:href="#DejaVuSans-41"/>
    </g>
   </g>
   <g id="text_18">
    <!-- best 2009 -->
    <defs>
     <path d="M 48.6875 27.296875 
Q 48.6875 37.203125 44.609375 42.84375 
Q 40.53125 48.484375 33.40625 48.484375 
Q 26.265625 48.484375 22.1875 42.84375 
Q 18.109375 37.203125 18.109375 27.296875 
Q 18.109375 17.390625 22.1875 11.75 
Q 26.265625 6.109375 33.40625 6.109375 
Q 40.53125 6.109375 44.609375 11.75 
Q 48.6875 17.390625 48.6875 27.296875 
z
M 18.109375 46.390625 
Q 20.953125 51.265625 25.265625 53.625 
Q 29.59375 56 35.59375 56 
Q 45.5625 56 51.78125 48.09375 
Q 58.015625 40.1875 58.015625 27.296875 
Q 58.015625 14.40625 51.78125 6.484375 
Q 45.5625 -1.421875 35.59375 -1.421875 
Q 29.59375 -1.421875 25.265625 0.953125 
Q 20.953125 3.328125 18.109375 8.203125 
L 18.109375 0 
L 9.078125 0 
L 9.078125 75.984375 
L 18.109375 75.984375 
z
" id="DejaVuSans-62"/>
     <path d="M 10.984375 1.515625 
L 10.984375 10.5 
Q 14.703125 8.734375 18.5 7.8125 
Q 22.3125 6.890625 25.984375 6.890625 
Q 35.75 6.890625 40.890625 13.453125 
Q 46.046875 20.015625 46.78125 33.40625 
Q 43.953125 29.203125 39.59375 26.953125 
Q 35.25 24.703125 29.984375 24.703125 
Q 19.046875 24.703125 12.671875 31.3125 
Q 6.296875 37.9375 6.296875 49.421875 
Q 6.296875 60.640625 12.9375 67.421875 
Q 19.578125 74.21875 30.609375 74.21875 
Q 43.265625 74.21875 49.921875 64.515625 
Q 56.59375 54.828125 56.59375 36.375 
Q 56.59375 19.140625 48.40625 8.859375 
Q 40.234375 -1.421875 26.421875 -1.421875 
Q 22.703125 -1.421875 18.890625 -0.6875 
Q 15.09375 0.046875 10.984375 1.515625 
z
M 30.609375 32.421875 
Q 37.25 32.421875 41.125 36.953125 
Q 45.015625 41.5 45.015625 49.421875 
Q 45.015625 57.28125 41.125 61.84375 
Q 37.25 66.40625 30.609375 66.40625 
Q 23.96875 66.40625 20.09375 61.84375 
Q 16.21875 57.28125 16.21875 49.421875 
Q 16.21875 41.5 20.09375 36.953125 
Q 23.96875 32.421875 30.609375 32.421875 
z
" id="DejaVuSans-39"/>
    </defs>
    <g transform="translate(369.479935 37.551928)scale(0.17 -0.17)">
     <use xlink:href="#DejaVuSans-62"/>
     <use x="63.476562" xlink:href="#DejaVuSans-65"/>
     <use x="125" xlink:href="#DejaVuSans-73"/>
     <use x="177.099609" xlink:href="#DejaVuSans-74"/>
     <use x="216.308594" xlink:href="#DejaVuSans-20"/>
     <use x="248.095703" xlink:href="#DejaVuSans-32"/>
     <use x="311.71875" xlink:href="#DejaVuSans-30"/>
     <use x="375.341797" xlink:href="#DejaVuSans-30"/>
     <use x="438.964844" xlink:href="#DejaVuSans-39"/>
    </g>
   </g>
   <g id="text_19">
    <!-- bbob f10, 20-D -->
    <g transform="translate(59.55864 35.290806)scale(0.102 -0.102)">
     <use xlink:href="#DejaVuSans-62"/>
     <use x="63.476562" xlink:href="#DejaVuSans-62"/>
     <use x="126.953125" xlink:href="#DejaVuSans-6f"/>
     <use x="188.134766" xlink:href="#DejaVuSans-62"/>
     <use x="251.611328" xlink:href="#DejaVuSans-20"/>
     <use x="283.398438" xlink:href="#DejaVuSans-66"/>
     <use x="318.603516" xlink:href="#DejaVuSans-31"/>
     <use x="382.226562" xlink:href="#DejaVuSans-30"/>
     <use x="445.849609" xlink:href="#DejaVuSans-2c"/>
     <use x="477.636719" xlink:href="#DejaVuSans-20"/>
     <use x="509.423828" xlink:href="#DejaVuSans-32"/>
     <use x="573.046875" xlink:href="#DejaVuSans-30"/>
     <use x="636.669922" xlink:href="#DejaVuSans-2d"/>
     <use x="672.753906" xlink:href="#DejaVuSans-44"/>
    </g>
    <!-- 51 targets: 100..1e-08 -->
    <defs>
     <path d="M 10.796875 72.90625 
L 49.515625 72.90625 
L 49.515625 64.59375 
L 19.828125 64.59375 
L 19.828125 46.734375 
Q 21.96875 47.46875 24.109375 47.828125 
Q 26.265625 48.1875 28.421875 48.1875 
Q 40.625 48.1875 47.75 41.5 
Q 54.890625 34.8125 54.890625 23.390625 
Q 54.890625 11.625 47.5625 5.09375 
Q 40.234375 -1.421875 26.90625 -1.421875 
Q 22.3125 -1.421875 17.546875 -0.640625 
Q 12.796875 0.140625 7.71875 1.703125 
L 7.71875 11.625 
Q 12.109375 9.234375 16.796875 8.0625 
Q 21.484375 6.890625 26.703125 6.890625 
Q 35.15625 6.890625 40.078125 11.328125 
Q 45.015625 15.765625 45.015625 23.390625 
Q 45.015625 31 40.078125 35.4375 
Q 35.15625 39.890625 26.703125 39.890625 
Q 22.75 39.890625 18.8125 39.015625 
Q 14.890625 38.140625 10.796875 36.28125 
z
" id="DejaVuSans-35"/>
     <path d="M 11.71875 12.40625 
L 22.015625 12.40625 
L 22.015625 0 
L 11.71875 0 
z
M 11.71875 51.703125 
L 22.015625 51.703125 
L 22.015625 39.3125 
L 11.71875 39.3125 
z
" id="DejaVuSans-3a"/>
    </defs>
    <g transform="translate(59.55864 46.712575)scale(0.102 -0.102)">
     <use xlink:href="#DejaVuSans-35"/>
     <use x="63.623047" xlink:href="#DejaVuSans-31"/>
     <use x="127.246094" xlink:href="#DejaVuSans-20"/>
     <use x="159.033203" xlink:href="#DejaVuSans-74"/>
     <use x="198.242188" xlink:href="#DejaVuSans-61"/>
     <use x="259.521484" xlink:href="#DejaVuSans-72"/>
     <use x="300.619141" xlink:href="#DejaVuSans-67"/>
     <use x="364.095703" xlink:href="#DejaVuSans-65"/>
     <use x="425.619141" xlink:href="#DejaVuSans-74"/>
     <use x="464.828125" xlink:href="#DejaVuSans-73"/>
     <use x="516.927734" xlink:href="#DejaVuSans-3a"/>
     <use x="550.619141" xlink:href="#DejaVuSans-20"/>
     <use x="582.40625" xlink:href="#DejaVuSans-31"/>
     <use x="646.029297" xlink:href="#DejaVuSans-30"/>
     <use x="709.652344" xlink:href="#DejaVuSans-30"/>
     <use x="773.275391" xlink:href="#DejaVuSans-2e"/>
     <use x="805.0625" xlink:href="#DejaVuSans-2e"/>
     <use x="836.849609" xlink:href="#DejaVuSans-31"/>
     <use x="900.472656" xlink:href="#DejaVuSans-65"/>
     <use x="961.996094" xlink:href="#DejaVuSans-2d"/>
     <use x="998.080078" xlink:href="#DejaVuSans-30"/>
     <use x="1061.703125" xlink:href="#DejaVuSans-38"/>
    </g>
    <!-- 10, 15 instances -->
    <g transform="translate(59.55864 58.134344)scale(0.102 -0.102)">
     <use xlink:href="#DejaVuSans-31"/>
     <use x="63.623047" xlink:href="#DejaVuSans-30"/>
     <use x="127.246094" xlink:href="#DejaVuSans-2c"/>
     <use x="159.033203" xlink:href="#DejaVuSans-20"/>
     <use x="190.820312" xlink:href="#DejaVuSans-31"/>
     <use x="254.443359" xlink:href="#DejaVuSans-35"/>
     <use x="318.066406" xlink:href="#DejaVuSans-20"/>
     <use x="349.853516" xlink:href="#DejaVuSans-69"/>
     <use x="377.636719" xlink:href="#DejaVuSans-6e"/>
     <use x="441.015625" xlink:href="#DejaVuSans-73"/>
     <use x="493.115234" xlink:href="#DejaVuSans-74"/>
     <use x="532.324219" xlink:href="#DejaVuSans-61"/>
     <use x="593.603516" xlink:href="#DejaVuSans-6e"/>
     <use x="656.982422" xlink:href="#DejaVuSans-63"/>
     <use x="711.962891" xlink:href="#DejaVuSans-65"/>
     <use x="773.486328" xlink:href="#DejaVuSans-73"/>
    </g>
   </g>
   <g id="text_20">
    <!-- v2.0.805 -->
    <g style="fill:#808080;" transform="translate(206.00825 290.099912)scale(0.1 -0.1)">
     <use xlink:href="#DejaVuSans-76"/>
     <use x="59.179688" xlink:href="#DejaVuSans-32"/>
     <use x="122.802734" xlink:href="#DejaVuSans-2e"/>
     <use x="154.589844" xlink:href="#DejaVuSans-30"/>
     <use x="218.212891" xlink:href="#DejaVuSans-2e"/>
     <use x="250" xlink:href="#DejaVuSans-38"/>
     <use x="313.623047" xlink:href="#DejaVuSans-30"/>
     <use x="377.246094" xlink:href="#DejaVuSans-35"/>
    </g>
   </g>
   <g id="text_21">
    <!-- 10 Ellipsoid -->
    <g transform="translate(170.692625 18.84)scale(0.2 -0.2)">
     <use xlink:href="#DejaVuSans-31"/>
     <use x="63.623047" xlink:href="#DejaVuSans-30"/>
     <use x="127.246094" xlink:href="#DejaVuSans-20"/>
     <use x="159.033203" xlink:href="#DejaVuSans-45"/>
     <use x="222.216797" xlink:href="#DejaVuSans-6c"/>
     <use x="250" xlink:href="#DejaVuSans-6c"/>
     <use x="277.783203" xlink:href="#DejaVuSans-69"/>
     <use x="305.566406" xlink:href="#DejaVuSans-70"/>
     <use x="369.042969" xlink:href="#DejaVuSans-73"/>
     <use x="421.142578" xlink:href="#DejaVuSans-6f"/>
     <use x="482.324219" xlink:href="#DejaVuSans-69"/>
     <use x="510.107422" xlink:href="#DejaVuSans-64"/>
    </g>
   </g>
  </g>
 </g>
 <defs>
  <clipPath id="pf3bfeb80a3">
   <rect height="270.04" width="343.864" x="56.12" y="24.84"/>
  </clipPath>
 </defs>
</svg>
