<?xml version="1.0" encoding="utf-8" standalone="no"?>
<!DOCTYPE svg PUBLIC "-//W3C//DTD SVG 1.1//EN"
  "http://www.w3.org/Graphics/SVG/1.1/DTD/svg11.dtd">
<!-- Created with matplotlib (http://matplotlib.org/) -->
<svg height="345pt" version="1.1" viewBox="0 0 460 345" width="460pt" xmlns="http://www.w3.org/2000/svg" xmlns:xlink="http://www.w3.org/1999/xlink">
 <defs>
  <style type="text/css">
*{stroke-linecap:butt;stroke-linejoin:round;}
  </style>
 </defs>
 <g id="figure_1">
  <g id="patch_1">
   <path d="M 0 345.6 
L 460.8 345.6 
L 460.8 0 
L 0 0 
z
" style="fill:#ffffff;"/>
  </g>
  <g id="axes_1">
   <g id="patch_2">
    <path d="M 56.12 294.88 
L 399.984 294.88 
L 399.984 24.84 
L 56.12 24.84 
z
" style="fill:#ffffff;"/>
   </g>
   <g id="line2d_1">
    <path d="M 96.846045 294.88 
L 96.846045 289.637523 
L 97.889083 289.637523 
L 97.889083 279.152568 
L 99.802705 279.152568 
L 99.802705 263.425137 
L 100.24961 263.425137 
L 100.24961 258.18266 
L 100.6852 258.18266 
L 100.6852 247.697705 
L 101.110033 247.697705 
L 101.110033 242.455228 
L 101.524628 242.455228 
L 101.524628 237.212751 
L 101.929467 237.212751 
L 101.929467 205.757888 
L 102.324999 205.757888 
L 102.324999 169.060547 
L 102.711641 169.060547 
L 102.711641 148.090639 
L 103.089785 148.090639 
L 103.089785 121.878253 
L 103.459797 121.878253 
L 103.459797 79.938435 
L 103.822018 79.938435 
L 103.822018 43.241095 
L 104.17677 43.241095 
L 104.17677 27.513663 
L 333.429677 27.513663 
" style="fill:none;stroke:#f5deb3;stroke-linecap:square;stroke-width:6;"/>
   </g>
   <g id="line2d_2">
    <path d="M 0 0 
" style="fill:none;stroke:#f5deb3;stroke-linecap:square;stroke-width:6;"/>
    <defs>
     <path d="M -0 7.778175 
L 7.778175 0 
L 0 -7.778175 
L -7.778175 -0 
z
" id="m26cfa70fc3" style="stroke:#f5deb3;stroke-linejoin:miter;stroke-width:1.5;"/>
    </defs>
    <g>
     <use style="fill:#f5deb3;stroke:#f5deb3;stroke-linejoin:miter;stroke-width:1.5;" x="0" xlink:href="#m26cfa70fc3" y="0"/>
    </g>
   </g>
   <g id="line2d_3">
    <path d="M 333.429677 27.513663 
L 363.933742 32.86099 
" style="fill:none;stroke:#f5deb3;stroke-linecap:square;stroke-width:6;"/>
    <g>
     <use style="fill:#f5deb3;stroke:#f5deb3;stroke-linejoin:miter;stroke-width:1.5;" x="333.429677" xlink:href="#m26cfa70fc3" y="27.513663"/>
     <use style="fill:#f5deb3;stroke:#f5deb3;stroke-linejoin:miter;stroke-width:1.5;" x="363.933742" xlink:href="#m26cfa70fc3" y="32.86099"/>
    </g>
   </g>
   <g id="matplotlib.axis_1">
    <g id="xtick_1">
     <g id="line2d_4">
      <path clip-path="url(#p9abb22cf26)" d="M 56.12 294.88 
L 56.12 24.84 
" style="fill:none;stroke:#b0b0b0;stroke-linecap:square;stroke-width:0.8;"/>
     </g>
     <g id="line2d_5">
      <defs>
       <path d="M 0 0 
L 0 3.5 
" id="mb287262a74" style="stroke:#000000;stroke-width:0.8;"/>
      </defs>
      <g>
       <use style="stroke:#000000;stroke-width:0.8;" x="56.12" xlink:href="#mb287262a74" y="294.88"/>
      </g>
     </g>
     <g id="text_1">
      <!-- 0 -->
      <defs>
       <path d="M 31.78125 66.40625 
Q 24.171875 66.40625 20.328125 58.90625 
Q 16.5 51.421875 16.5 36.375 
Q 16.5 21.390625 20.328125 13.890625 
Q 24.171875 6.390625 31.78125 6.390625 
Q 39.453125 6.390625 43.28125 13.890625 
Q 47.125 21.390625 47.125 36.375 
Q 47.125 51.421875 43.28125 58.90625 
Q 39.453125 66.40625 31.78125 66.40625 
z
M 31.78125 74.21875 
Q 44.046875 74.21875 50.515625 64.515625 
Q 56.984375 54.828125 56.984375 36.375 
Q 56.984375 17.96875 50.515625 8.265625 
Q 44.046875 -1.421875 31.78125 -1.421875 
Q 19.53125 -1.421875 13.0625 8.265625 
Q 6.59375 17.96875 6.59375 36.375 
Q 6.59375 54.828125 13.0625 64.515625 
Q 19.53125 74.21875 31.78125 74.21875 
z
" id="DejaVuSans-30"/>
      </defs>
      <g transform="translate(49.7575 317.076875)scale(0.2 -0.2)">
       <use xlink:href="#DejaVuSans-30"/>
      </g>
     </g>
    </g>
    <g id="xtick_2">
     <g id="line2d_6">
      <path clip-path="url(#p9abb22cf26)" d="M 135.351336 294.88 
L 135.351336 24.84 
" style="fill:none;stroke:#b0b0b0;stroke-linecap:square;stroke-width:0.8;"/>
     </g>
     <g id="line2d_7">
      <g>
       <use style="stroke:#000000;stroke-width:0.8;" x="135.351336" xlink:href="#mb287262a74" y="294.88"/>
      </g>
     </g>
     <g id="text_2">
      <!-- 2 -->
      <defs>
       <path d="M 19.1875 8.296875 
L 53.609375 8.296875 
L 53.609375 0 
L 7.328125 0 
L 7.328125 8.296875 
Q 12.9375 14.109375 22.625 23.890625 
Q 32.328125 33.6875 34.8125 36.53125 
Q 39.546875 41.84375 41.421875 45.53125 
Q 43.3125 49.21875 43.3125 52.78125 
Q 43.3125 58.59375 39.234375 62.25 
Q 35.15625 65.921875 28.609375 65.921875 
Q 23.96875 65.921875 18.8125 64.3125 
Q 13.671875 62.703125 7.8125 59.421875 
L 7.8125 69.390625 
Q 13.765625 71.78125 18.9375 73 
Q 24.125 74.21875 28.421875 74.21875 
Q 39.75 74.21875 46.484375 68.546875 
Q 53.21875 62.890625 53.21875 53.421875 
Q 53.21875 48.921875 51.53125 44.890625 
Q 49.859375 40.875 45.40625 35.40625 
Q 44.1875 33.984375 37.640625 27.21875 
Q 31.109375 20.453125 19.1875 8.296875 
z
" id="DejaVuSans-32"/>
      </defs>
      <g transform="translate(128.988836 317.076875)scale(0.2 -0.2)">
       <use xlink:href="#DejaVuSans-32"/>
      </g>
     </g>
    </g>
    <g id="xtick_3">
     <g id="line2d_8">
      <path clip-path="url(#p9abb22cf26)" d="M 214.582673 294.88 
L 214.582673 24.84 
" style="fill:none;stroke:#b0b0b0;stroke-linecap:square;stroke-width:0.8;"/>
     </g>
     <g id="line2d_9">
      <g>
       <use style="stroke:#000000;stroke-width:0.8;" x="214.582673" xlink:href="#mb287262a74" y="294.88"/>
      </g>
     </g>
     <g id="text_3">
      <!-- 4 -->
      <defs>
       <path d="M 37.796875 64.3125 
L 12.890625 25.390625 
L 37.796875 25.390625 
z
M 35.203125 72.90625 
L 47.609375 72.90625 
L 47.609375 25.390625 
L 58.015625 25.390625 
L 58.015625 17.1875 
L 47.609375 17.1875 
L 47.609375 0 
L 37.796875 0 
L 37.796875 17.1875 
L 4.890625 17.1875 
L 4.890625 26.703125 
z
" id="DejaVuSans-34"/>
      </defs>
      <g transform="translate(208.220173 317.076875)scale(0.2 -0.2)">
       <use xlink:href="#DejaVuSans-34"/>
      </g>
     </g>
    </g>
    <g id="xtick_4">
     <g id="line2d_10">
      <path clip-path="url(#p9abb22cf26)" d="M 293.814009 294.88 
L 293.814009 24.84 
" style="fill:none;stroke:#b0b0b0;stroke-linecap:square;stroke-width:0.8;"/>
     </g>
     <g id="line2d_11">
      <g>
       <use style="stroke:#000000;stroke-width:0.8;" x="293.814009" xlink:href="#mb287262a74" y="294.88"/>
      </g>
     </g>
     <g id="text_4">
      <!-- 6 -->
      <defs>
       <path d="M 33.015625 40.375 
Q 26.375 40.375 22.484375 35.828125 
Q 18.609375 31.296875 18.609375 23.390625 
Q 18.609375 15.53125 22.484375 10.953125 
Q 26.375 6.390625 33.015625 6.390625 
Q 39.65625 6.390625 43.53125 10.953125 
Q 47.40625 15.53125 47.40625 23.390625 
Q 47.40625 31.296875 43.53125 35.828125 
Q 39.65625 40.375 33.015625 40.375 
z
M 52.59375 71.296875 
L 52.59375 62.3125 
Q 48.875 64.0625 45.09375 64.984375 
Q 41.3125 65.921875 37.59375 65.921875 
Q 27.828125 65.921875 22.671875 59.328125 
Q 17.53125 52.734375 16.796875 39.40625 
Q 19.671875 43.65625 24.015625 45.921875 
Q 28.375 48.1875 33.59375 48.1875 
Q 44.578125 48.1875 50.953125 41.515625 
Q 57.328125 34.859375 57.328125 23.390625 
Q 57.328125 12.15625 50.6875 5.359375 
Q 44.046875 -1.421875 33.015625 -1.421875 
Q 20.359375 -1.421875 13.671875 8.265625 
Q 6.984375 17.96875 6.984375 36.375 
Q 6.984375 53.65625 15.1875 63.9375 
Q 23.390625 74.21875 37.203125 74.21875 
Q 40.921875 74.21875 44.703125 73.484375 
Q 48.484375 72.75 52.59375 71.296875 
z
" id="DejaVuSans-36"/>
      </defs>
      <g transform="translate(287.451509 317.076875)scale(0.2 -0.2)">
       <use xlink:href="#DejaVuSans-36"/>
      </g>
     </g>
    </g>
    <g id="xtick_5">
     <g id="line2d_12">
      <path clip-path="url(#p9abb22cf26)" d="M 373.045346 294.88 
L 373.045346 24.84 
" style="fill:none;stroke:#b0b0b0;stroke-linecap:square;stroke-width:0.8;"/>
     </g>
     <g id="line2d_13">
      <g>
       <use style="stroke:#000000;stroke-width:0.8;" x="373.045346" xlink:href="#mb287262a74" y="294.88"/>
      </g>
     </g>
     <g id="text_5">
      <!-- 8 -->
      <defs>
       <path d="M 31.78125 34.625 
Q 24.75 34.625 20.71875 30.859375 
Q 16.703125 27.09375 16.703125 20.515625 
Q 16.703125 13.921875 20.71875 10.15625 
Q 24.75 6.390625 31.78125 6.390625 
Q 38.8125 6.390625 42.859375 10.171875 
Q 46.921875 13.96875 46.921875 20.515625 
Q 46.921875 27.09375 42.890625 30.859375 
Q 38.875 34.625 31.78125 34.625 
z
M 21.921875 38.8125 
Q 15.578125 40.375 12.03125 44.71875 
Q 8.5 49.078125 8.5 55.328125 
Q 8.5 64.0625 14.71875 69.140625 
Q 20.953125 74.21875 31.78125 74.21875 
Q 42.671875 74.21875 48.875 69.140625 
Q 55.078125 64.0625 55.078125 55.328125 
Q 55.078125 49.078125 51.53125 44.71875 
Q 48 40.375 41.703125 38.8125 
Q 48.828125 37.15625 52.796875 32.3125 
Q 56.78125 27.484375 56.78125 20.515625 
Q 56.78125 9.90625 50.3125 4.234375 
Q 43.84375 -1.421875 31.78125 -1.421875 
Q 19.734375 -1.421875 13.25 4.234375 
Q 6.78125 9.90625 6.78125 20.515625 
Q 6.78125 27.484375 10.78125 32.3125 
Q 14.796875 37.15625 21.921875 38.8125 
z
M 18.3125 54.390625 
Q 18.3125 48.734375 21.84375 45.5625 
Q 25.390625 42.390625 31.78125 42.390625 
Q 38.140625 42.390625 41.71875 45.5625 
Q 45.3125 48.734375 45.3125 54.390625 
Q 45.3125 60.0625 41.71875 63.234375 
Q 38.140625 66.40625 31.78125 66.40625 
Q 25.390625 66.40625 21.84375 63.234375 
Q 18.3125 60.0625 18.3125 54.390625 
z
" id="DejaVuSans-38"/>
      </defs>
      <g transform="translate(366.682846 317.076875)scale(0.2 -0.2)">
       <use xlink:href="#DejaVuSans-38"/>
      </g>
     </g>
    </g>
    <g id="text_6">
     <!-- log10(# f-evals / dimension) -->
     <defs>
      <path d="M 9.421875 75.984375 
L 18.40625 75.984375 
L 18.40625 0 
L 9.421875 0 
z
" id="DejaVuSans-6c"/>
      <path d="M 30.609375 48.390625 
Q 23.390625 48.390625 19.1875 42.75 
Q 14.984375 37.109375 14.984375 27.296875 
Q 14.984375 17.484375 19.15625 11.84375 
Q 23.34375 6.203125 30.609375 6.203125 
Q 37.796875 6.203125 41.984375 11.859375 
Q 46.1875 17.53125 46.1875 27.296875 
Q 46.1875 37.015625 41.984375 42.703125 
Q 37.796875 48.390625 30.609375 48.390625 
z
M 30.609375 56 
Q 42.328125 56 49.015625 48.375 
Q 55.71875 40.765625 55.71875 27.296875 
Q 55.71875 13.875 49.015625 6.21875 
Q 42.328125 -1.421875 30.609375 -1.421875 
Q 18.84375 -1.421875 12.171875 6.21875 
Q 5.515625 13.875 5.515625 27.296875 
Q 5.515625 40.765625 12.171875 48.375 
Q 18.84375 56 30.609375 56 
z
" id="DejaVuSans-6f"/>
      <path d="M 45.40625 27.984375 
Q 45.40625 37.75 41.375 43.109375 
Q 37.359375 48.484375 30.078125 48.484375 
Q 22.859375 48.484375 18.828125 43.109375 
Q 14.796875 37.75 14.796875 27.984375 
Q 14.796875 18.265625 18.828125 12.890625 
Q 22.859375 7.515625 30.078125 7.515625 
Q 37.359375 7.515625 41.375 12.890625 
Q 45.40625 18.265625 45.40625 27.984375 
z
M 54.390625 6.78125 
Q 54.390625 -7.171875 48.1875 -13.984375 
Q 42 -20.796875 29.203125 -20.796875 
Q 24.46875 -20.796875 20.265625 -20.09375 
Q 16.0625 -19.390625 12.109375 -17.921875 
L 12.109375 -9.1875 
Q 16.0625 -11.328125 19.921875 -12.34375 
Q 23.78125 -13.375 27.78125 -13.375 
Q 36.625 -13.375 41.015625 -8.765625 
Q 45.40625 -4.15625 45.40625 5.171875 
L 45.40625 9.625 
Q 42.625 4.78125 38.28125 2.390625 
Q 33.9375 0 27.875 0 
Q 17.828125 0 11.671875 7.65625 
Q 5.515625 15.328125 5.515625 27.984375 
Q 5.515625 40.671875 11.671875 48.328125 
Q 17.828125 56 27.875 56 
Q 33.9375 56 38.28125 53.609375 
Q 42.625 51.21875 45.40625 46.390625 
L 45.40625 54.6875 
L 54.390625 54.6875 
z
" id="DejaVuSans-67"/>
      <path d="M 12.40625 8.296875 
L 28.515625 8.296875 
L 28.515625 63.921875 
L 10.984375 60.40625 
L 10.984375 69.390625 
L 28.421875 72.90625 
L 38.28125 72.90625 
L 38.28125 8.296875 
L 54.390625 8.296875 
L 54.390625 0 
L 12.40625 0 
z
" id="DejaVuSans-31"/>
      <path d="M 31 75.875 
Q 24.46875 64.65625 21.28125 53.65625 
Q 18.109375 42.671875 18.109375 31.390625 
Q 18.109375 20.125 21.3125 9.0625 
Q 24.515625 -2 31 -13.1875 
L 23.1875 -13.1875 
Q 15.875 -1.703125 12.234375 9.375 
Q 8.59375 20.453125 8.59375 31.390625 
Q 8.59375 42.28125 12.203125 53.3125 
Q 15.828125 64.359375 23.1875 75.875 
z
" id="DejaVuSans-28"/>
      <path d="M 51.125 44 
L 36.921875 44 
L 32.8125 27.6875 
L 47.125 27.6875 
z
M 43.796875 71.78125 
L 38.71875 51.515625 
L 52.984375 51.515625 
L 58.109375 71.78125 
L 65.921875 71.78125 
L 60.890625 51.515625 
L 76.125 51.515625 
L 76.125 44 
L 58.984375 44 
L 54.984375 27.6875 
L 70.515625 27.6875 
L 70.515625 20.21875 
L 53.078125 20.21875 
L 48 0 
L 40.1875 0 
L 45.21875 20.21875 
L 30.90625 20.21875 
L 25.875 0 
L 18.015625 0 
L 23.09375 20.21875 
L 7.71875 20.21875 
L 7.71875 27.6875 
L 24.90625 27.6875 
L 29 44 
L 13.28125 44 
L 13.28125 51.515625 
L 30.90625 51.515625 
L 35.890625 71.78125 
z
" id="DejaVuSans-23"/>
      <path id="DejaVuSans-20"/>
      <path d="M 37.109375 75.984375 
L 37.109375 68.5 
L 28.515625 68.5 
Q 23.6875 68.5 21.796875 66.546875 
Q 19.921875 64.59375 19.921875 59.515625 
L 19.921875 54.6875 
L 34.71875 54.6875 
L 34.71875 47.703125 
L 19.921875 47.703125 
L 19.921875 0 
L 10.890625 0 
L 10.890625 47.703125 
L 2.296875 47.703125 
L 2.296875 54.6875 
L 10.890625 54.6875 
L 10.890625 58.5 
Q 10.890625 67.625 15.140625 71.796875 
Q 19.390625 75.984375 28.609375 75.984375 
z
" id="DejaVuSans-66"/>
      <path d="M 4.890625 31.390625 
L 31.203125 31.390625 
L 31.203125 23.390625 
L 4.890625 23.390625 
z
" id="DejaVuSans-2d"/>
      <path d="M 56.203125 29.59375 
L 56.203125 25.203125 
L 14.890625 25.203125 
Q 15.484375 15.921875 20.484375 11.0625 
Q 25.484375 6.203125 34.421875 6.203125 
Q 39.59375 6.203125 44.453125 7.46875 
Q 49.3125 8.734375 54.109375 11.28125 
L 54.109375 2.78125 
Q 49.265625 0.734375 44.1875 -0.34375 
Q 39.109375 -1.421875 33.890625 -1.421875 
Q 20.796875 -1.421875 13.15625 6.1875 
Q 5.515625 13.8125 5.515625 26.8125 
Q 5.515625 40.234375 12.765625 48.109375 
Q 20.015625 56 32.328125 56 
Q 43.359375 56 49.78125 48.890625 
Q 56.203125 41.796875 56.203125 29.59375 
z
M 47.21875 32.234375 
Q 47.125 39.59375 43.09375 43.984375 
Q 39.0625 48.390625 32.421875 48.390625 
Q 24.90625 48.390625 20.390625 44.140625 
Q 15.875 39.890625 15.1875 32.171875 
z
" id="DejaVuSans-65"/>
      <path d="M 2.984375 54.6875 
L 12.5 54.6875 
L 29.59375 8.796875 
L 46.6875 54.6875 
L 56.203125 54.6875 
L 35.6875 0 
L 23.484375 0 
z
" id="DejaVuSans-76"/>
      <path d="M 34.28125 27.484375 
Q 23.390625 27.484375 19.1875 25 
Q 14.984375 22.515625 14.984375 16.5 
Q 14.984375 11.71875 18.140625 8.90625 
Q 21.296875 6.109375 26.703125 6.109375 
Q 34.1875 6.109375 38.703125 11.40625 
Q 43.21875 16.703125 43.21875 25.484375 
L 43.21875 27.484375 
z
M 52.203125 31.203125 
L 52.203125 0 
L 43.21875 0 
L 43.21875 8.296875 
Q 40.140625 3.328125 35.546875 0.953125 
Q 30.953125 -1.421875 24.3125 -1.421875 
Q 15.921875 -1.421875 10.953125 3.296875 
Q 6 8.015625 6 15.921875 
Q 6 25.140625 12.171875 29.828125 
Q 18.359375 34.515625 30.609375 34.515625 
L 43.21875 34.515625 
L 43.21875 35.40625 
Q 43.21875 41.609375 39.140625 45 
Q 35.0625 48.390625 27.6875 48.390625 
Q 23 48.390625 18.546875 47.265625 
Q 14.109375 46.140625 10.015625 43.890625 
L 10.015625 52.203125 
Q 14.9375 54.109375 19.578125 55.046875 
Q 24.21875 56 28.609375 56 
Q 40.484375 56 46.34375 49.84375 
Q 52.203125 43.703125 52.203125 31.203125 
z
" id="DejaVuSans-61"/>
      <path d="M 44.28125 53.078125 
L 44.28125 44.578125 
Q 40.484375 46.53125 36.375 47.5 
Q 32.28125 48.484375 27.875 48.484375 
Q 21.1875 48.484375 17.84375 46.4375 
Q 14.5 44.390625 14.5 40.28125 
Q 14.5 37.15625 16.890625 35.375 
Q 19.28125 33.59375 26.515625 31.984375 
L 29.59375 31.296875 
Q 39.15625 29.25 43.1875 25.515625 
Q 47.21875 21.78125 47.21875 15.09375 
Q 47.21875 7.46875 41.1875 3.015625 
Q 35.15625 -1.421875 24.609375 -1.421875 
Q 20.21875 -1.421875 15.453125 -0.5625 
Q 10.6875 0.296875 5.421875 2 
L 5.421875 11.28125 
Q 10.40625 8.6875 15.234375 7.390625 
Q 20.0625 6.109375 24.8125 6.109375 
Q 31.15625 6.109375 34.5625 8.28125 
Q 37.984375 10.453125 37.984375 14.40625 
Q 37.984375 18.0625 35.515625 20.015625 
Q 33.0625 21.96875 24.703125 23.78125 
L 21.578125 24.515625 
Q 13.234375 26.265625 9.515625 29.90625 
Q 5.8125 33.546875 5.8125 39.890625 
Q 5.8125 47.609375 11.28125 51.796875 
Q 16.75 56 26.8125 56 
Q 31.78125 56 36.171875 55.265625 
Q 40.578125 54.546875 44.28125 53.078125 
z
" id="DejaVuSans-73"/>
      <path d="M 25.390625 72.90625 
L 33.6875 72.90625 
L 8.296875 -9.28125 
L 0 -9.28125 
z
" id="DejaVuSans-2f"/>
      <path d="M 45.40625 46.390625 
L 45.40625 75.984375 
L 54.390625 75.984375 
L 54.390625 0 
L 45.40625 0 
L 45.40625 8.203125 
Q 42.578125 3.328125 38.25 0.953125 
Q 33.9375 -1.421875 27.875 -1.421875 
Q 17.96875 -1.421875 11.734375 6.484375 
Q 5.515625 14.40625 5.515625 27.296875 
Q 5.515625 40.1875 11.734375 48.09375 
Q 17.96875 56 27.875 56 
Q 33.9375 56 38.25 53.625 
Q 42.578125 51.265625 45.40625 46.390625 
z
M 14.796875 27.296875 
Q 14.796875 17.390625 18.875 11.75 
Q 22.953125 6.109375 30.078125 6.109375 
Q 37.203125 6.109375 41.296875 11.75 
Q 45.40625 17.390625 45.40625 27.296875 
Q 45.40625 37.203125 41.296875 42.84375 
Q 37.203125 48.484375 30.078125 48.484375 
Q 22.953125 48.484375 18.875 42.84375 
Q 14.796875 37.203125 14.796875 27.296875 
z
" id="DejaVuSans-64"/>
      <path d="M 9.421875 54.6875 
L 18.40625 54.6875 
L 18.40625 0 
L 9.421875 0 
z
M 9.421875 75.984375 
L 18.40625 75.984375 
L 18.40625 64.59375 
L 9.421875 64.59375 
z
" id="DejaVuSans-69"/>
      <path d="M 52 44.1875 
Q 55.375 50.25 60.0625 53.125 
Q 64.75 56 71.09375 56 
Q 79.640625 56 84.28125 50.015625 
Q 88.921875 44.046875 88.921875 33.015625 
L 88.921875 0 
L 79.890625 0 
L 79.890625 32.71875 
Q 79.890625 40.578125 77.09375 44.375 
Q 74.3125 48.1875 68.609375 48.1875 
Q 61.625 48.1875 57.5625 43.546875 
Q 53.515625 38.921875 53.515625 30.90625 
L 53.515625 0 
L 44.484375 0 
L 44.484375 32.71875 
Q 44.484375 40.625 41.703125 44.40625 
Q 38.921875 48.1875 33.109375 48.1875 
Q 26.21875 48.1875 22.15625 43.53125 
Q 18.109375 38.875 18.109375 30.90625 
L 18.109375 0 
L 9.078125 0 
L 9.078125 54.6875 
L 18.109375 54.6875 
L 18.109375 46.1875 
Q 21.1875 51.21875 25.484375 53.609375 
Q 29.78125 56 35.6875 56 
Q 41.65625 56 45.828125 52.96875 
Q 50 49.953125 52 44.1875 
z
" id="DejaVuSans-6d"/>
      <path d="M 54.890625 33.015625 
L 54.890625 0 
L 45.90625 0 
L 45.90625 32.71875 
Q 45.90625 40.484375 42.875 44.328125 
Q 39.84375 48.1875 33.796875 48.1875 
Q 26.515625 48.1875 22.3125 43.546875 
Q 18.109375 38.921875 18.109375 30.90625 
L 18.109375 0 
L 9.078125 0 
L 9.078125 54.6875 
L 18.109375 54.6875 
L 18.109375 46.1875 
Q 21.34375 51.125 25.703125 53.5625 
Q 30.078125 56 35.796875 56 
Q 45.21875 56 50.046875 50.171875 
Q 54.890625 44.34375 54.890625 33.015625 
z
" id="DejaVuSans-6e"/>
      <path d="M 8.015625 75.875 
L 15.828125 75.875 
Q 23.140625 64.359375 26.78125 53.3125 
Q 30.421875 42.28125 30.421875 31.390625 
Q 30.421875 20.453125 26.78125 9.375 
Q 23.140625 -1.703125 15.828125 -13.1875 
L 8.015625 -13.1875 
Q 14.5 -2 17.703125 9.0625 
Q 20.90625 20.125 20.90625 31.390625 
Q 20.90625 42.671875 17.703125 53.65625 
Q 14.5 64.65625 8.015625 75.875 
z
" id="DejaVuSans-29"/>
     </defs>
     <g transform="translate(107.211219 338.153594)scale(0.17 -0.17)">
      <use xlink:href="#DejaVuSans-6c"/>
      <use x="27.783203" xlink:href="#DejaVuSans-6f"/>
      <use x="88.964844" xlink:href="#DejaVuSans-67"/>
      <use x="152.441406" xlink:href="#DejaVuSans-31"/>
      <use x="216.064453" xlink:href="#DejaVuSans-30"/>
      <use x="279.6875" xlink:href="#DejaVuSans-28"/>
      <use x="318.701172" xlink:href="#DejaVuSans-23"/>
      <use x="402.490234" xlink:href="#DejaVuSans-20"/>
      <use x="434.277344" xlink:href="#DejaVuSans-66"/>
      <use x="469.404297" xlink:href="#DejaVuSans-2d"/>
      <use x="505.488281" xlink:href="#DejaVuSans-65"/>
      <use x="567.011719" xlink:href="#DejaVuSans-76"/>
      <use x="626.191406" xlink:href="#DejaVuSans-61"/>
      <use x="687.470703" xlink:href="#DejaVuSans-6c"/>
      <use x="715.253906" xlink:href="#DejaVuSans-73"/>
      <use x="767.353516" xlink:href="#DejaVuSans-20"/>
      <use x="799.140625" xlink:href="#DejaVuSans-2f"/>
      <use x="832.832031" xlink:href="#DejaVuSans-20"/>
      <use x="864.619141" xlink:href="#DejaVuSans-64"/>
      <use x="928.095703" xlink:href="#DejaVuSans-69"/>
      <use x="955.878906" xlink:href="#DejaVuSans-6d"/>
      <use x="1053.291016" xlink:href="#DejaVuSans-65"/>
      <use x="1114.814453" xlink:href="#DejaVuSans-6e"/>
      <use x="1178.193359" xlink:href="#DejaVuSans-73"/>
      <use x="1230.292969" xlink:href="#DejaVuSans-69"/>
      <use x="1258.076172" xlink:href="#DejaVuSans-6f"/>
      <use x="1319.257812" xlink:href="#DejaVuSans-6e"/>
      <use x="1382.636719" xlink:href="#DejaVuSans-29"/>
     </g>
    </g>
   </g>
   <g id="matplotlib.axis_2">
    <g id="ytick_1">
     <g id="line2d_14">
      <path clip-path="url(#p9abb22cf26)" d="M 56.12 294.88 
L 399.984 294.88 
" style="fill:none;stroke:#b0b0b0;stroke-linecap:square;stroke-width:0.8;"/>
     </g>
     <g id="line2d_15">
      <defs>
       <path d="M 0 0 
L -3.5 0 
" id="m327260e490" style="stroke:#000000;stroke-width:0.8;"/>
      </defs>
      <g>
       <use style="stroke:#000000;stroke-width:0.8;" x="56.12" xlink:href="#m327260e490" y="294.88"/>
      </g>
     </g>
     <g id="text_7">
      <!-- 0.0 -->
      <defs>
       <path d="M 10.6875 12.40625 
L 21 12.40625 
L 21 0 
L 10.6875 0 
z
" id="DejaVuSans-2e"/>
      </defs>
      <g transform="translate(23.675 300.95875)scale(0.16 -0.16)">
       <use xlink:href="#DejaVuSans-30"/>
       <use x="63.623047" xlink:href="#DejaVuSans-2e"/>
       <use x="95.410156" xlink:href="#DejaVuSans-30"/>
      </g>
     </g>
    </g>
    <g id="ytick_2">
     <g id="line2d_16">
      <path clip-path="url(#p9abb22cf26)" d="M 56.12 241.406733 
L 399.984 241.406733 
" style="fill:none;stroke:#b0b0b0;stroke-linecap:square;stroke-width:0.8;"/>
     </g>
     <g id="line2d_17">
      <g>
       <use style="stroke:#000000;stroke-width:0.8;" x="56.12" xlink:href="#m327260e490" y="241.406733"/>
      </g>
     </g>
     <g id="text_8">
      <!-- 0.2 -->
      <g transform="translate(23.675 247.485483)scale(0.16 -0.16)">
       <use xlink:href="#DejaVuSans-30"/>
       <use x="63.623047" xlink:href="#DejaVuSans-2e"/>
       <use x="95.410156" xlink:href="#DejaVuSans-32"/>
      </g>
     </g>
    </g>
    <g id="ytick_3">
     <g id="line2d_18">
      <path clip-path="url(#p9abb22cf26)" d="M 56.12 187.933465 
L 399.984 187.933465 
" style="fill:none;stroke:#b0b0b0;stroke-linecap:square;stroke-width:0.8;"/>
     </g>
     <g id="line2d_19">
      <g>
       <use style="stroke:#000000;stroke-width:0.8;" x="56.12" xlink:href="#m327260e490" y="187.933465"/>
      </g>
     </g>
     <g id="text_9">
      <!-- 0.4 -->
      <g transform="translate(23.675 194.012215)scale(0.16 -0.16)">
       <use xlink:href="#DejaVuSans-30"/>
       <use x="63.623047" xlink:href="#DejaVuSans-2e"/>
       <use x="95.410156" xlink:href="#DejaVuSans-34"/>
      </g>
     </g>
    </g>
    <g id="ytick_4">
     <g id="line2d_20">
      <path clip-path="url(#p9abb22cf26)" d="M 56.12 134.460198 
L 399.984 134.460198 
" style="fill:none;stroke:#b0b0b0;stroke-linecap:square;stroke-width:0.8;"/>
     </g>
     <g id="line2d_21">
      <g>
       <use style="stroke:#000000;stroke-width:0.8;" x="56.12" xlink:href="#m327260e490" y="134.460198"/>
      </g>
     </g>
     <g id="text_10">
      <!-- 0.6 -->
      <g transform="translate(23.675 140.538948)scale(0.16 -0.16)">
       <use xlink:href="#DejaVuSans-30"/>
       <use x="63.623047" xlink:href="#DejaVuSans-2e"/>
       <use x="95.410156" xlink:href="#DejaVuSans-36"/>
      </g>
     </g>
    </g>
    <g id="ytick_5">
     <g id="line2d_22">
      <path clip-path="url(#p9abb22cf26)" d="M 56.12 80.986931 
L 399.984 80.986931 
" style="fill:none;stroke:#b0b0b0;stroke-linecap:square;stroke-width:0.8;"/>
     </g>
     <g id="line2d_23">
      <g>
       <use style="stroke:#000000;stroke-width:0.8;" x="56.12" xlink:href="#m327260e490" y="80.986931"/>
      </g>
     </g>
     <g id="text_11">
      <!-- 0.8 -->
      <g transform="translate(23.675 87.065681)scale(0.16 -0.16)">
       <use xlink:href="#DejaVuSans-30"/>
       <use x="63.623047" xlink:href="#DejaVuSans-2e"/>
       <use x="95.410156" xlink:href="#DejaVuSans-38"/>
      </g>
     </g>
    </g>
    <g id="ytick_6">
     <g id="line2d_24">
      <path clip-path="url(#p9abb22cf26)" d="M 56.12 27.513663 
L 399.984 27.513663 
" style="fill:none;stroke:#b0b0b0;stroke-linecap:square;stroke-width:0.8;"/>
     </g>
     <g id="line2d_25">
      <g>
       <use style="stroke:#000000;stroke-width:0.8;" x="56.12" xlink:href="#m327260e490" y="27.513663"/>
      </g>
     </g>
     <g id="text_12">
      <!-- 1.0 -->
      <g transform="translate(23.675 33.592413)scale(0.16 -0.16)">
       <use xlink:href="#DejaVuSans-31"/>
       <use x="63.623047" xlink:href="#DejaVuSans-2e"/>
       <use x="95.410156" xlink:href="#DejaVuSans-30"/>
      </g>
     </g>
    </g>
    <g id="text_13">
     <!-- Fraction of function,target pairs -->
     <defs>
      <path d="M 9.8125 72.90625 
L 51.703125 72.90625 
L 51.703125 64.59375 
L 19.671875 64.59375 
L 19.671875 43.109375 
L 48.578125 43.109375 
L 48.578125 34.8125 
L 19.671875 34.8125 
L 19.671875 0 
L 9.8125 0 
z
" id="DejaVuSans-46"/>
      <path d="M 41.109375 46.296875 
Q 39.59375 47.171875 37.8125 47.578125 
Q 36.03125 48 33.890625 48 
Q 26.265625 48 22.1875 43.046875 
Q 18.109375 38.09375 18.109375 28.8125 
L 18.109375 0 
L 9.078125 0 
L 9.078125 54.6875 
L 18.109375 54.6875 
L 18.109375 46.1875 
Q 20.953125 51.171875 25.484375 53.578125 
Q 30.03125 56 36.53125 56 
Q 37.453125 56 38.578125 55.875 
Q 39.703125 55.765625 41.0625 55.515625 
z
" id="DejaVuSans-72"/>
      <path d="M 48.78125 52.59375 
L 48.78125 44.1875 
Q 44.96875 46.296875 41.140625 47.34375 
Q 37.3125 48.390625 33.40625 48.390625 
Q 24.65625 48.390625 19.8125 42.84375 
Q 14.984375 37.3125 14.984375 27.296875 
Q 14.984375 17.28125 19.8125 11.734375 
Q 24.65625 6.203125 33.40625 6.203125 
Q 37.3125 6.203125 41.140625 7.25 
Q 44.96875 8.296875 48.78125 10.40625 
L 48.78125 2.09375 
Q 45.015625 0.34375 40.984375 -0.53125 
Q 36.96875 -1.421875 32.421875 -1.421875 
Q 20.0625 -1.421875 12.78125 6.34375 
Q 5.515625 14.109375 5.515625 27.296875 
Q 5.515625 40.671875 12.859375 48.328125 
Q 20.21875 56 33.015625 56 
Q 37.15625 56 41.109375 55.140625 
Q 45.0625 54.296875 48.78125 52.59375 
z
" id="DejaVuSans-63"/>
      <path d="M 18.3125 70.21875 
L 18.3125 54.6875 
L 36.8125 54.6875 
L 36.8125 47.703125 
L 18.3125 47.703125 
L 18.3125 18.015625 
Q 18.3125 11.328125 20.140625 9.421875 
Q 21.96875 7.515625 27.59375 7.515625 
L 36.8125 7.515625 
L 36.8125 0 
L 27.59375 0 
Q 17.1875 0 13.234375 3.875 
Q 9.28125 7.765625 9.28125 18.015625 
L 9.28125 47.703125 
L 2.6875 47.703125 
L 2.6875 54.6875 
L 9.28125 54.6875 
L 9.28125 70.21875 
z
" id="DejaVuSans-74"/>
      <path d="M 8.5 21.578125 
L 8.5 54.6875 
L 17.484375 54.6875 
L 17.484375 21.921875 
Q 17.484375 14.15625 20.5 10.265625 
Q 23.53125 6.390625 29.59375 6.390625 
Q 36.859375 6.390625 41.078125 11.03125 
Q 45.3125 15.671875 45.3125 23.6875 
L 45.3125 54.6875 
L 54.296875 54.6875 
L 54.296875 0 
L 45.3125 0 
L 45.3125 8.40625 
Q 42.046875 3.421875 37.71875 1 
Q 33.40625 -1.421875 27.6875 -1.421875 
Q 18.265625 -1.421875 13.375 4.4375 
Q 8.5 10.296875 8.5 21.578125 
z
M 31.109375 56 
z
" id="DejaVuSans-75"/>
      <path d="M 11.71875 12.40625 
L 22.015625 12.40625 
L 22.015625 4 
L 14.015625 -11.625 
L 7.71875 -11.625 
L 11.71875 4 
z
" id="DejaVuSans-2c"/>
      <path d="M 18.109375 8.203125 
L 18.109375 -20.796875 
L 9.078125 -20.796875 
L 9.078125 54.6875 
L 18.109375 54.6875 
L 18.109375 46.390625 
Q 20.953125 51.265625 25.265625 53.625 
Q 29.59375 56 35.59375 56 
Q 45.5625 56 51.78125 48.09375 
Q 58.015625 40.1875 58.015625 27.296875 
Q 58.015625 14.40625 51.78125 6.484375 
Q 45.5625 -1.421875 35.59375 -1.421875 
Q 29.59375 -1.421875 25.265625 0.953125 
Q 20.953125 3.328125 18.109375 8.203125 
z
M 48.6875 27.296875 
Q 48.6875 37.203125 44.609375 42.84375 
Q 40.53125 48.484375 33.40625 48.484375 
Q 26.265625 48.484375 22.1875 42.84375 
Q 18.109375 37.203125 18.109375 27.296875 
Q 18.109375 17.390625 22.1875 11.75 
Q 26.265625 6.109375 33.40625 6.109375 
Q 40.53125 6.109375 44.609375 11.75 
Q 48.6875 17.390625 48.6875 27.296875 
z
" id="DejaVuSans-70"/>
     </defs>
     <g transform="translate(16.139531 294.999375)rotate(-90)scale(0.17 -0.17)">
      <use xlink:href="#DejaVuSans-46"/>
      <use x="57.410156" xlink:href="#DejaVuSans-72"/>
      <use x="98.523438" xlink:href="#DejaVuSans-61"/>
      <use x="159.802734" xlink:href="#DejaVuSans-63"/>
      <use x="214.783203" xlink:href="#DejaVuSans-74"/>
      <use x="253.992188" xlink:href="#DejaVuSans-69"/>
      <use x="281.775391" xlink:href="#DejaVuSans-6f"/>
      <use x="342.957031" xlink:href="#DejaVuSans-6e"/>
      <use x="406.335938" xlink:href="#DejaVuSans-20"/>
      <use x="438.123047" xlink:href="#DejaVuSans-6f"/>
      <use x="499.304688" xlink:href="#DejaVuSans-66"/>
      <use x="534.509766" xlink:href="#DejaVuSans-20"/>
      <use x="566.296875" xlink:href="#DejaVuSans-66"/>
      <use x="601.501953" xlink:href="#DejaVuSans-75"/>
      <use x="664.880859" xlink:href="#DejaVuSans-6e"/>
      <use x="728.259766" xlink:href="#DejaVuSans-63"/>
      <use x="783.240234" xlink:href="#DejaVuSans-74"/>
      <use x="822.449219" xlink:href="#DejaVuSans-69"/>
      <use x="850.232422" xlink:href="#DejaVuSans-6f"/>
      <use x="911.414062" xlink:href="#DejaVuSans-6e"/>
      <use x="974.792969" xlink:href="#DejaVuSans-2c"/>
      <use x="1006.580078" xlink:href="#DejaVuSans-74"/>
      <use x="1045.789062" xlink:href="#DejaVuSans-61"/>
      <use x="1107.068359" xlink:href="#DejaVuSans-72"/>
      <use x="1148.166016" xlink:href="#DejaVuSans-67"/>
      <use x="1211.642578" xlink:href="#DejaVuSans-65"/>
      <use x="1273.166016" xlink:href="#DejaVuSans-74"/>
      <use x="1312.375" xlink:href="#DejaVuSans-20"/>
      <use x="1344.162109" xlink:href="#DejaVuSans-70"/>
      <use x="1407.638672" xlink:href="#DejaVuSans-61"/>
      <use x="1468.917969" xlink:href="#DejaVuSans-69"/>
      <use x="1496.701172" xlink:href="#DejaVuSans-72"/>
      <use x="1537.814453" xlink:href="#DejaVuSans-73"/>
     </g>
    </g>
   </g>
   <g id="line2d_26">
    <defs>
     <path d="M 0 1.5 
C 0.397805 1.5 0.77937 1.341951 1.06066 1.06066 
C 1.341951 0.77937 1.5 0.397805 1.5 0 
C 1.5 -0.397805 1.341951 -0.77937 1.06066 -1.06066 
C 0.77937 -1.341951 0.397805 -1.5 0 -1.5 
C -0.397805 -1.5 -0.77937 -1.341951 -1.06066 -1.06066 
C -1.341951 -0.77937 -1.5 -0.397805 -1.5 0 
C -1.5 0.397805 -1.341951 0.77937 -1.06066 1.06066 
C -0.77937 1.341951 -0.397805 1.5 0 1.5 
z
" id="m3d3fbfd763" style="stroke:#f5deb3;"/>
    </defs>
    <g>
     <use style="fill:#f5deb3;stroke:#f5deb3;" x="104.17677" xlink:href="#m3d3fbfd763" y="27.513663"/>
     <use style="fill:#f5deb3;stroke:#f5deb3;" x="104.17677" xlink:href="#m3d3fbfd763" y="27.513663"/>
    </g>
   </g>
   <g id="line2d_27">
    <g>
     <use style="fill:#f5deb3;stroke:#f5deb3;stroke-linejoin:miter;stroke-width:1.5;" x="103.459797" xlink:href="#m26cfa70fc3" y="121.878253"/>
     <use style="fill:#f5deb3;stroke:#f5deb3;stroke-linejoin:miter;stroke-width:1.5;" x="104.17677" xlink:href="#m26cfa70fc3" y="43.241095"/>
     <use style="fill:#f5deb3;stroke:#f5deb3;stroke-linejoin:miter;stroke-width:1.5;" x="104.17677" xlink:href="#m26cfa70fc3" y="27.513663"/>
     <use style="fill:#f5deb3;stroke:#f5deb3;stroke-linejoin:miter;stroke-width:1.5;" x="104.17677" xlink:href="#m26cfa70fc3" y="27.513663"/>
     <use style="fill:#f5deb3;stroke:#f5deb3;stroke-linejoin:miter;stroke-width:1.5;" x="333.429677" xlink:href="#m26cfa70fc3" y="27.513663"/>
    </g>
   </g>
   <g id="line2d_28">
    <defs>
     <path d="M 0 1.5 
C 0.397805 1.5 0.77937 1.341951 1.06066 1.06066 
C 1.341951 0.77937 1.5 0.397805 1.5 0 
C 1.5 -0.397805 1.341951 -0.77937 1.06066 -1.06066 
C 0.77937 -1.341951 0.397805 -1.5 0 -1.5 
C -0.397805 -1.5 -0.77937 -1.341951 -1.06066 -1.06066 
C -1.341951 -0.77937 -1.5 -0.397805 -1.5 0 
C -1.5 0.397805 -1.341951 0.77937 -1.06066 1.06066 
C -0.77937 1.341951 -0.397805 1.5 0 1.5 
z
" id="mc47de8ccba" style="stroke:#000080;"/>
    </defs>
    <g>
     <use style="fill:#000080;stroke:#000080;" x="171.22792" xlink:href="#mc47de8ccba" y="27.513663"/>
     <use style="fill:#000080;stroke:#000080;" x="171.22792" xlink:href="#mc47de8ccba" y="27.513663"/>
    </g>
   </g>
   <g id="line2d_29">
    <path d="M 87.877201 294.88 
L 87.877201 294.355752 
L 91.896513 294.355752 
L 91.896513 293.831505 
L 93.273637 293.831505 
L 93.273637 292.783009 
L 95.735668 292.783009 
L 95.735668 291.734514 
L 96.299813 291.734514 
L 96.299813 290.161771 
L 96.846045 290.161771 
L 96.846045 289.637523 
L 97.375467 289.637523 
L 97.375467 289.113275 
L 98.38781 289.113275 
L 98.38781 285.967789 
L 98.872486 285.967789 
L 98.872486 284.395046 
L 99.343882 284.395046 
L 99.343882 282.822302 
L 99.802705 282.822302 
L 99.802705 282.298055 
L 100.24961 282.298055 
L 100.24961 281.773807 
L 100.6852 281.773807 
L 100.6852 280.725312 
L 101.110033 280.725312 
L 101.110033 280.201064 
L 101.929467 280.201064 
L 101.929467 277.579825 
L 102.324999 277.579825 
L 102.324999 275.482834 
L 102.711641 275.482834 
L 102.711641 273.910091 
L 103.089785 273.910091 
L 103.089785 272.861596 
L 103.459797 272.861596 
L 103.459797 272.337348 
L 103.822018 272.337348 
L 103.822018 268.667614 
L 104.17677 268.667614 
L 104.17677 267.094871 
L 104.524355 267.094871 
L 104.524355 263.949385 
L 104.865056 263.949385 
L 104.865056 262.376641 
L 105.199142 262.376641 
L 105.199142 261.852394 
L 105.848459 261.852394 
L 105.848459 257.134164 
L 106.164154 257.134164 
L 106.164154 256.085669 
L 106.47416 256.085669 
L 106.47416 255.561421 
L 106.778678 255.561421 
L 106.778678 255.037173 
L 107.372008 255.037173 
L 107.372008 254.512926 
L 109.559696 254.512926 
L 109.559696 253.988678 
L 110.313314 253.988678 
L 110.313314 252.940182 
L 110.557359 252.940182 
L 110.557359 251.891687 
L 110.797991 251.891687 
L 110.797991 251.367439 
L 116.276944 251.367439 
L 116.276944 250.843192 
L 117.289287 250.843192 
L 117.289287 250.318944 
L 117.773963 250.318944 
L 117.773963 249.794696 
L 118.089658 249.794696 
L 118.089658 248.221953 
L 118.704183 248.221953 
L 118.704183 247.697705 
L 118.854445 247.697705 
L 118.854445 247.173458 
L 119.151088 247.173458 
L 119.151088 246.64921 
L 120.01151 246.64921 
L 120.01151 246.124962 
L 121.09564 246.124962 
L 121.09564 245.600714 
L 123.310749 245.600714 
L 123.310749 243.503724 
L 124.210555 243.503724 
L 124.210555 242.979476 
L 124.428341 242.979476 
L 124.428341 241.93098 
L 125.979378 241.93098 
L 125.979378 240.358237 
L 126.273486 240.358237 
L 126.370415 238.261246 
L 126.752761 238.261246 
L 126.752761 237.736999 
L 127.034046 237.736999 
L 127.126794 236.688503 
L 127.310805 236.688503 
L 127.402078 235.640008 
L 128.883919 235.640008 
L 128.883919 235.11576 
L 129.377872 235.11576 
L 129.377872 234.591512 
L 130.170864 234.591512 
L 130.248189 233.018769 
L 130.478102 233.018769 
L 130.478102 231.446026 
L 130.629687 231.446026 
L 130.629687 230.921778 
L 131.14996 230.921778 
L 131.14996 228.30054 
L 131.440345 228.30054 
L 131.512181 225.679301 
L 131.583719 225.679301 
L 131.583719 225.155053 
L 131.725909 225.155053 
L 131.796566 223.058063 
L 131.937015 223.058063 
L 131.937015 222.533815 
L 132.35161 222.533815 
L 132.419748 221.485319 
L 132.756449 221.485319 
L 132.756449 220.961072 
L 133.021144 220.961072 
L 133.021144 220.436824 
L 133.665597 220.436824 
L 133.665597 219.912576 
L 133.916767 219.912576 
L 133.916767 219.388328 
L 134.04099 219.388328 
L 134.102767 218.339833 
L 134.529104 218.339833 
L 134.529104 217.815585 
L 135.748171 217.815585 
L 135.748171 217.291338 
L 136.515394 217.291338 
L 136.515394 216.76709 
L 136.675441 216.76709 
L 136.675441 215.194347 
L 136.886546 215.194347 
L 136.991135 213.621604 
L 137.043192 213.621604 
L 137.043192 212.04886 
L 137.60566 212.04886 
L 137.70598 211.000365 
L 138.101512 211.000365 
L 138.101512 210.476117 
L 138.819483 210.476117 
L 138.819483 209.95187 
L 139.098486 209.95187 
L 139.098486 209.427622 
L 139.282007 209.427622 
L 139.282007 208.379126 
L 139.508688 208.379126 
L 139.598531 204.185145 
L 139.776821 204.185145 
L 139.865278 202.088154 
L 139.997117 202.088154 
L 139.997117 201.563906 
L 140.127953 201.563906 
L 140.214628 199.991163 
L 141.262751 199.991163 
L 141.343906 198.942667 
L 141.5851 198.942667 
L 141.664752 197.369924 
L 141.744038 197.369924 
L 141.822959 196.321429 
L 142.057575 196.321429 
L 142.096368 193.70019 
L 142.3655 193.70019 
L 142.3655 193.175943 
L 142.555192 193.175943 
L 142.630487 190.554704 
L 143.002096 190.554704 
L 143.002096 190.030456 
L 143.184934 190.030456 
L 143.293711 188.457713 
L 143.473492 188.457713 
L 143.473492 187.409218 
L 143.827514 187.409218 
L 143.932316 185.312227 
L 144.036483 185.312227 
L 144.140023 183.739484 
L 144.413122 183.739484 
L 144.413122 183.215236 
L 144.615138 183.215236 
L 144.681953 180.593997 
L 145.207333 180.593997 
L 145.207333 180.06975 
L 145.495959 180.06975 
L 145.559445 177.448511 
L 145.622699 177.448511 
L 145.654238 176.400016 
L 145.842271 176.400016 
L 145.935523 175.35152 
L 146.151164 175.35152 
L 146.151164 174.827272 
L 146.899971 174.827272 
L 146.987677 173.254529 
L 147.0459 173.254529 
L 147.0459 172.730281 
L 147.161758 172.730281 
L 147.248142 171.157538 
L 147.334095 171.157538 
L 147.419621 169.584795 
L 147.840985 169.584795 
L 147.951628 168.5363 
L 148.006684 168.5363 
L 148.088938 164.342318 
L 148.143557 164.342318 
L 148.198003 162.245327 
L 148.30638 162.245327 
L 148.360314 160.672584 
L 148.547762 160.672584 
L 148.547762 159.624089 
L 148.759517 159.624089 
L 148.759517 159.099841 
L 148.890552 159.099841 
L 148.994666 157.527098 
L 149.072341 157.527098 
L 149.072341 157.00285 
L 149.226646 157.00285 
L 149.252229 155.954354 
L 149.455539 155.954354 
L 149.455539 153.857364 
L 149.631485 153.857364 
L 149.631485 153.333116 
L 150.00256 153.333116 
L 150.027016 152.28462 
L 150.245571 152.28462 
L 150.341822 149.139134 
L 150.413659 149.139134 
L 150.508977 146.517896 
L 150.532724 146.517896 
L 150.556439 144.420905 
L 150.791803 144.420905 
L 150.885054 142.323914 
L 150.954663 142.323914 
L 150.954663 141.275418 
L 151.13892 141.275418 
L 151.207511 139.702675 
L 151.27583 139.702675 
L 151.321225 136.557189 
L 151.434193 136.557189 
L 151.434193 135.508693 
L 151.591111 135.508693 
L 151.657926 133.411703 
L 152.009956 133.411703 
L 152.09685 131.838959 
L 152.29077 131.838959 
L 152.37626 128.169225 
L 152.461328 128.169225 
L 152.482529 126.596482 
L 152.672174 126.596482 
L 152.672174 125.547987 
L 152.859752 125.547987 
L 152.963085 123.450996 
L 153.167907 123.450996 
L 153.269411 121.878253 
L 153.330027 121.878253 
L 153.430582 119.257014 
L 153.450622 119.257014 
L 153.550477 117.684271 
L 153.649755 117.684271 
L 153.649755 117.160023 
L 153.905229 117.160023 
L 153.905229 116.111528 
L 154.137731 116.111528 
L 154.233687 114.538785 
L 154.27192 114.538785 
L 154.310068 112.441794 
L 154.480696 112.441794 
L 154.518385 110.344803 
L 154.816958 110.344803 
L 154.927601 106.675069 
L 154.982656 106.675069 
L 155.055791 103.529583 
L 155.164913 103.529583 
L 155.164913 102.481087 
L 155.327309 102.481087 
L 155.36319 100.908344 
L 155.488187 100.908344 
L 155.488187 100.384096 
L 155.822957 100.384096 
L 155.822957 99.335601 
L 156.117065 99.335601 
L 156.219678 97.23861 
L 156.236721 97.23861 
L 156.321684 95.665867 
L 156.456757 95.665867 
L 156.523898 94.093124 
L 156.624121 94.093124 
L 156.624121 93.568876 
L 156.970373 93.568876 
L 157.002989 92.520381 
L 157.100467 92.520381 
L 157.100467 90.947637 
L 157.453236 90.947637 
L 157.56398 88.326399 
L 157.674016 88.326399 
L 157.674016 86.753656 
L 157.83 86.753656 
L 157.938353 84.656665 
L 157.953776 84.656665 
L 157.999964 79.938435 
L 158.137787 79.938435 
L 158.137787 78.88994 
L 158.380113 78.88994 
L 158.395146 76.792949 
L 159.029431 76.792949 
L 159.10169 75.744454 
L 159.401907 75.744454 
L 159.401907 74.695958 
L 159.528985 74.695958 
L 159.571136 73.123215 
L 159.724815 73.123215 
L 159.835725 71.550472 
L 159.863341 71.550472 
L 159.863341 69.977729 
L 160.000761 69.977729 
L 160.000761 68.929233 
L 160.177781 68.929233 
L 160.177781 68.404985 
L 160.632326 68.404985 
L 160.69817 65.259499 
L 160.763762 65.259499 
L 160.855173 62.638261 
L 160.920171 62.638261 
L 160.920171 61.065517 
L 161.706381 61.065517 
L 161.768247 59.492774 
L 161.879048 59.492774 
L 161.879048 58.968526 
L 162.086411 58.968526 
L 162.086411 58.444279 
L 162.219268 58.444279 
L 162.219268 57.920031 
L 163.325885 57.920031 
L 163.325885 57.395783 
L 163.705255 57.395783 
L 163.705255 56.871536 
L 163.902762 56.871536 
L 163.98982 54.774545 
L 164.333714 54.774545 
L 164.333714 54.250297 
L 164.460923 54.250297 
L 164.460923 53.201802 
L 164.649989 53.201802 
L 164.649989 52.153306 
L 165.194915 52.153306 
L 165.194915 51.629058 
L 165.475981 51.629058 
L 165.475981 50.580563 
L 165.624685 50.580563 
L 165.624685 50.056315 
L 165.859968 50.056315 
L 165.879431 49.00782 
L 166.226043 49.00782 
L 166.226043 47.959324 
L 166.603151 47.959324 
L 166.696151 43.765343 
L 166.73321 43.765343 
L 166.73321 42.192599 
L 166.963041 42.192599 
L 167.026847 41.144104 
L 167.315556 41.144104 
L 167.315556 40.619856 
L 167.643447 40.619856 
L 167.748462 39.571361 
L 167.835487 39.571361 
L 167.835487 38.522865 
L 168.03399 38.522865 
L 168.06828 37.47437 
L 168.196261 37.47437 
L 168.196261 36.950122 
L 168.340165 36.950122 
L 168.340165 36.425875 
L 168.731864 36.425875 
L 168.773015 34.853131 
L 168.846838 34.853131 
L 168.846838 34.328884 
L 169.370802 34.328884 
L 169.370802 33.804636 
L 169.568153 33.804636 
L 169.568153 33.280388 
L 169.708857 33.280388 
L 169.708857 32.756141 
L 170.055664 32.756141 
L 170.055664 31.707645 
L 170.388135 31.707645 
L 170.388135 31.183397 
L 170.574216 31.183397 
L 170.574216 30.65915 
L 170.69226 30.65915 
L 170.69226 29.610654 
L 170.954935 29.610654 
L 170.954935 29.086407 
L 171.149342 29.086407 
L 171.22792 27.513663 
L 333.429677 27.513663 
L 333.429677 27.513663 
" style="fill:none;stroke:#000080;stroke-linecap:square;stroke-width:1.5;"/>
   </g>
   <g id="line2d_30">
    <defs>
     <path d="M 0 6 
C 1.591219 6 3.117479 5.367802 4.242641 4.242641 
C 5.367802 3.117479 6 1.591219 6 0 
C 6 -1.591219 5.367802 -3.117479 4.242641 -4.242641 
C 3.117479 -5.367802 1.591219 -6 0 -6 
C -1.591219 -6 -3.117479 -5.367802 -4.242641 -4.242641 
C -5.367802 -3.117479 -6 -1.591219 -6 0 
C -6 1.591219 -5.367802 3.117479 -4.242641 4.242641 
C -3.117479 5.367802 -1.591219 6 0 6 
z
" id="m544b129c42" style="stroke:#000080;stroke-width:1.5;"/>
    </defs>
    <g>
     <use style="fill:none;stroke:#000080;stroke-width:1.5;" x="136.991135" xlink:href="#m544b129c42" y="213.621604"/>
     <use style="fill:none;stroke:#000080;stroke-width:1.5;" x="158.137787" xlink:href="#m544b129c42" y="78.88994"/>
     <use style="fill:none;stroke:#000080;stroke-width:1.5;" x="171.22792" xlink:href="#m544b129c42" y="28.037911"/>
     <use style="fill:none;stroke:#000080;stroke-width:1.5;" x="171.22792" xlink:href="#m544b129c42" y="27.513663"/>
     <use style="fill:none;stroke:#000080;stroke-width:1.5;" x="333.429677" xlink:href="#m544b129c42" y="27.513663"/>
    </g>
   </g>
   <g id="line2d_31">
    <path d="M 0 0 
" style="fill:none;stroke:#000080;stroke-linecap:square;stroke-width:1.5;"/>
    <g>
     <use style="fill:none;stroke:#000080;stroke-width:1.5;" x="0" xlink:href="#m544b129c42" y="0"/>
    </g>
   </g>
   <g id="line2d_32">
    <defs>
     <path d="M 0 1.5 
C 0.397805 1.5 0.77937 1.341951 1.06066 1.06066 
C 1.341951 0.77937 1.5 0.397805 1.5 0 
C 1.5 -0.397805 1.341951 -0.77937 1.06066 -1.06066 
C 0.77937 -1.341951 0.397805 -1.5 0 -1.5 
C -0.397805 -1.5 -0.77937 -1.341951 -1.06066 -1.06066 
C -1.341951 -0.77937 -1.5 -0.397805 -1.5 0 
C -1.5 0.397805 -1.341951 0.77937 -1.06066 1.06066 
C -0.77937 1.341951 -0.397805 1.5 0 1.5 
z
" id="m051f81e153" style="stroke:#ff00ff;"/>
    </defs>
    <g>
     <use style="fill:#ff00ff;stroke:#ff00ff;" x="191.4329" xlink:href="#m051f81e153" y="27.513663"/>
     <use style="fill:#ff00ff;stroke:#ff00ff;" x="191.4329" xlink:href="#m051f81e153" y="27.513663"/>
    </g>
   </g>
   <g id="line2d_33">
    <path d="M 86.946982 294.88 
L 86.946982 292.783009 
L 87.877201 292.783009 
L 87.877201 292.258761 
L 91.164281 292.258761 
L 91.164281 291.210266 
L 92.59885 291.210266 
L 92.59885 289.637523 
L 94.548655 289.637523 
L 94.548655 288.589027 
L 95.735668 288.589027 
L 95.735668 287.540532 
L 96.299813 287.540532 
L 96.299813 283.870798 
L 96.846045 283.870798 
L 96.846045 282.298055 
L 97.889083 282.298055 
L 97.889083 281.249559 
L 98.38781 281.249559 
L 98.38781 278.104073 
L 98.872486 278.104073 
L 98.872486 276.007082 
L 99.343882 276.007082 
L 99.343882 272.337348 
L 99.802705 272.337348 
L 99.802705 271.8131 
L 100.24961 271.8131 
L 100.24961 270.240357 
L 100.6852 270.240357 
L 100.6852 269.716109 
L 101.110033 269.716109 
L 101.110033 269.191862 
L 103.089785 269.191862 
L 103.089785 266.570623 
L 103.822018 266.570623 
L 103.822018 266.046375 
L 105.199142 266.046375 
L 105.199142 264.99788 
L 105.526863 264.99788 
L 105.526863 263.425137 
L 106.164154 263.425137 
L 106.164154 262.376641 
L 106.778678 262.376641 
L 106.778678 261.328146 
L 107.077901 261.328146 
L 107.077901 260.803898 
L 107.661173 260.803898 
L 107.661173 260.279651 
L 108.771549 260.279651 
L 108.771549 259.755403 
L 109.038297 259.755403 
L 109.038297 258.706907 
L 110.065758 258.706907 
L 110.065758 257.658412 
L 110.557359 257.658412 
L 110.557359 257.134164 
L 110.797991 257.134164 
L 110.797991 256.609917 
L 111.035303 256.609917 
L 111.035303 256.085669 
L 111.953113 256.085669 
L 111.953113 255.561421 
L 114.053874 255.561421 
L 114.053874 253.988678 
L 114.637146 253.988678 
L 114.637146 253.46443 
L 114.827256 253.46443 
L 114.827256 252.415935 
L 117.773963 252.415935 
L 117.773963 251.367439 
L 123.766534 251.367439 
L 123.766534 250.318944 
L 124.100619 250.318944 
L 124.100619 249.270448 
L 125.579247 249.270448 
L 125.579247 248.221953 
L 126.077974 248.221953 
L 126.077974 247.697705 
L 126.370415 247.697705 
L 126.370415 247.173458 
L 126.847034 247.173458 
L 126.847034 246.124962 
L 127.126794 246.124962 
L 127.126794 245.600714 
L 127.310805 245.600714 
L 127.310805 244.552219 
L 127.492869 244.552219 
L 127.492869 244.027971 
L 128.375364 244.027971 
L 128.375364 242.979476 
L 128.63152 242.979476 
L 128.716065 241.93098 
L 128.800197 241.93098 
L 128.800197 240.358237 
L 129.050151 240.358237 
L 129.132668 238.261246 
L 129.296525 238.261246 
L 129.377872 237.212751 
L 130.401805 237.212751 
L 130.401805 236.688503 
L 131.368207 236.688503 
L 131.368207 235.640008 
L 131.654961 235.640008 
L 131.654961 234.591512 
L 131.937015 234.591512 
L 131.937015 234.067265 
L 132.823005 234.067265 
L 132.823005 233.018769 
L 133.086687 233.018769 
L 133.086687 232.494521 
L 133.978991 232.494521 
L 133.978991 231.446026 
L 134.768065 231.446026 
L 134.768065 230.921778 
L 137.403248 230.921778 
L 137.454074 228.824787 
L 137.70598 228.824787 
L 137.70598 227.776292 
L 138.295919 227.776292 
L 138.295919 227.252044 
L 138.772539 227.252044 
L 138.819483 225.155053 
L 139.005987 225.155053 
L 139.005987 224.630806 
L 141.545135 224.630806 
L 141.624972 223.058063 
L 141.979724 223.058063 
L 141.979724 222.009567 
L 142.817295 222.009567 
L 142.817295 220.436824 
L 143.002096 220.436824 
L 143.002096 219.388328 
L 143.686778 219.388328 
L 143.72207 217.815585 
L 144.277114 217.815585 
L 144.277114 217.291338 
L 145.077485 217.291338 
L 145.110039 216.242842 
L 145.559445 216.242842 
L 145.654238 214.670099 
L 145.842271 214.670099 
L 145.842271 214.145851 
L 147.504723 214.145851 
L 147.589407 211.524613 
L 148.440899 211.524613 
L 148.467677 209.427622 
L 148.600945 209.427622 
L 148.600945 208.379126 
L 149.046488 208.379126 
L 149.046488 207.330631 
L 149.631485 207.330631 
L 149.631485 206.806383 
L 150.051438 206.806383 
L 150.051438 205.757888 
L 150.31781 205.757888 
L 150.31781 205.23364 
L 150.508977 205.23364 
L 150.508977 204.709392 
L 150.791803 204.709392 
L 150.791803 204.185145 
L 152.482529 204.185145 
L 152.482529 203.660897 
L 152.672174 203.660897 
L 152.672174 203.136649 
L 152.901159 203.136649 
L 152.901159 202.612401 
L 153.024788 202.612401 
L 153.127137 201.563906 
L 153.450622 201.563906 
L 153.450622 200.515411 
L 153.983079 200.515411 
L 153.983079 198.942667 
L 154.32911 198.942667 
L 154.386112 197.369924 
L 154.461821 197.369924 
L 154.537198 196.321429 
L 154.982656 196.321429 
L 155.092242 193.175943 
L 155.183033 193.175943 
L 155.183033 192.127447 
L 155.416872 192.127447 
L 155.452566 190.030456 
L 155.909982 190.030456 
L 155.979287 187.933465 
L 156.270757 187.933465 
L 156.372461 185.836474 
L 156.456757 185.836474 
L 156.456757 185.312227 
L 156.574083 185.312227 
L 156.574083 184.787979 
L 157.149 184.787979 
L 157.149 184.263731 
L 157.357741 184.263731 
L 157.405555 182.16674 
L 157.500785 182.16674 
L 157.500785 181.642493 
L 157.891999 181.642493 
L 157.891999 181.118245 
L 158.122528 181.118245 
L 158.213881 180.06975 
L 159.116105 180.06975 
L 159.116105 179.545502 
L 159.3309 179.545502 
L 159.373539 178.497006 
L 159.500826 178.497006 
L 159.500826 177.972759 
L 159.945924 177.972759 
L 160.055423 174.827272 
L 160.339583 174.827272 
L 160.339583 173.254529 
L 160.56623 173.254529 
L 160.605918 171.157538 
L 160.750663 171.157538 
L 160.750663 170.109043 
L 160.933141 170.109043 
L 160.971993 167.487804 
L 161.113703 167.487804 
L 161.164947 166.439309 
L 161.531964 166.439309 
L 161.544481 164.866566 
L 161.731154 164.866566 
L 161.731154 163.81807 
L 161.976942 163.81807 
L 161.976942 163.293823 
L 162.422595 163.293823 
L 162.422595 162.769575 
L 162.541087 162.769575 
L 162.541087 162.245327 
L 162.658767 162.245327 
L 162.693915 161.196832 
L 162.903308 161.196832 
L 162.903308 160.672584 
L 163.415904 160.672584 
L 163.505454 155.954354 
L 163.594541 155.954354 
L 163.683169 154.381611 
L 163.957225 154.381611 
L 164.044009 150.711877 
L 164.087237 150.711877 
L 164.119587 149.139134 
L 164.460923 149.139134 
L 164.503117 147.042143 
L 164.681299 147.042143 
L 164.722957 145.4694 
L 165.275689 145.4694 
L 165.275689 144.945152 
L 165.436109 144.945152 
L 165.485935 143.372409 
L 165.55545 143.372409 
L 165.55545 142.848162 
L 165.742729 142.848162 
L 165.742729 142.323914 
L 165.889154 142.323914 
L 165.898871 140.751171 
L 166.547109 140.751171 
L 166.649714 137.605684 
L 166.908161 137.605684 
L 166.999531 134.984446 
L 167.180827 134.984446 
L 167.279732 133.93595 
L 167.351307 133.93595 
L 167.351307 132.887455 
L 167.581891 132.887455 
L 167.581891 132.363207 
L 167.765902 132.363207 
L 167.826804 131.314712 
L 167.878835 131.314712 
L 167.904792 129.741969 
L 168.093952 129.741969 
L 168.102501 127.12073 
L 168.682354 127.12073 
L 168.682354 126.072235 
L 168.871375 126.072235 
L 168.904038 122.926748 
L 169.291224 122.926748 
L 169.291224 122.4025 
L 169.473707 122.4025 
L 169.54459 121.354005 
L 169.871571 121.354005 
L 169.879281 119.781262 
L 170.131792 119.781262 
L 170.222703 116.635776 
L 170.425513 116.635776 
L 170.522316 114.014537 
L 170.596411 114.014537 
L 170.596411 112.966042 
L 170.75098 112.966042 
L 170.85326 110.869051 
L 170.875098 110.869051 
L 170.875098 110.344803 
L 170.991102 110.344803 
L 171.04161 107.723564 
L 171.142181 107.723564 
L 171.142181 107.199317 
L 171.256405 107.199317 
L 171.256405 106.150821 
L 171.419284 106.150821 
L 171.419284 105.626573 
L 172.311995 105.626573 
L 172.311995 104.578078 
L 172.728502 104.578078 
L 172.767649 103.529583 
L 172.936261 103.529583 
L 172.936261 103.005335 
L 173.084054 103.005335 
L 173.128783 101.956839 
L 173.30023 101.956839 
L 173.357002 100.908344 
L 173.569796 100.908344 
L 173.638082 99.335601 
L 173.810687 99.335601 
L 173.878025 95.665867 
L 174.240755 95.665867 
L 174.258693 94.093124 
L 174.496087 94.093124 
L 174.496087 93.044628 
L 174.759297 93.044628 
L 174.759297 92.520381 
L 174.984201 92.520381 
L 174.984201 91.996133 
L 175.1779 91.996133 
L 175.1779 91.471885 
L 175.318947 91.471885 
L 175.41979 88.326399 
L 175.430959 88.326399 
L 175.497817 87.277903 
L 175.547791 87.277903 
L 175.547791 85.70516 
L 175.696847 85.70516 
L 175.696847 85.180912 
L 175.947858 85.180912 
L 176.007344 83.083922 
L 176.354713 83.083922 
L 176.354713 82.559674 
L 176.580716 82.559674 
L 176.612016 81.511178 
L 176.752168 81.511178 
L 176.860392 78.88994 
L 176.901441 78.88994 
L 176.983247 76.268701 
L 177.436298 76.268701 
L 177.505713 74.695958 
L 177.564989 74.695958 
L 177.564989 74.17171 
L 177.780604 74.17171 
L 177.780604 73.647463 
L 178.031986 73.647463 
L 178.089479 71.026224 
L 178.146781 71.026224 
L 178.256079 68.404985 
L 178.260815 68.404985 
L 178.359979 63.162508 
L 178.704927 63.162508 
L 178.704927 62.638261 
L 178.925035 62.638261 
L 178.961447 60.54127 
L 179.115346 60.54127 
L 179.12886 59.492774 
L 179.687048 59.492774 
L 179.782679 57.920031 
L 180.006625 57.920031 
L 180.023732 55.82304 
L 180.1981 55.82304 
L 180.202331 54.774545 
L 180.425091 54.774545 
L 180.500095 52.677554 
L 180.97576 52.677554 
L 180.97576 52.153306 
L 181.180797 52.153306 
L 181.276447 50.056315 
L 181.505427 50.056315 
L 181.505427 49.00782 
L 181.723657 49.00782 
L 181.723657 47.959324 
L 181.87402 47.959324 
L 181.908533 46.910829 
L 182.133088 46.910829 
L 182.133088 45.862334 
L 182.365945 45.862334 
L 182.365945 45.338086 
L 182.705769 45.338086 
L 182.705769 44.813838 
L 182.909379 44.813838 
L 182.909379 43.765343 
L 183.436173 43.765343 
L 183.436173 43.241095 
L 183.575824 43.241095 
L 183.575824 42.716847 
L 184.011848 42.716847 
L 184.011848 42.192599 
L 184.220762 42.192599 
L 184.220762 41.144104 
L 184.367499 41.144104 
L 184.384095 37.998618 
L 184.839164 37.998618 
L 184.839164 37.47437 
L 185.028742 37.47437 
L 185.089351 36.425875 
L 185.498411 36.425875 
L 185.55739 35.377379 
L 185.674745 35.377379 
L 185.674745 34.853131 
L 186.172241 34.853131 
L 186.172241 34.328884 
L 186.28846 34.328884 
L 186.383237 33.280388 
L 186.975466 33.280388 
L 186.975466 32.231893 
L 187.303349 32.231893 
L 187.303349 31.183397 
L 189.304573 31.183397 
L 189.329479 30.134902 
L 189.544651 30.134902 
L 189.544651 29.086407 
L 190.975386 29.086407 
L 190.975386 28.037911 
L 191.4329 28.037911 
L 191.4329 27.513663 
L 333.429677 27.513663 
L 333.429677 27.513663 
" style="fill:none;stroke:#ff00ff;stroke-linecap:square;stroke-width:1.5;"/>
   </g>
   <g id="line2d_34">
    <defs>
     <path d="M -0 8.485281 
L 5.091169 0 
L 0 -8.485281 
L -5.091169 -0 
z
" id="mde86e8060b" style="stroke:#ff00ff;stroke-linejoin:miter;stroke-width:1.5;"/>
    </defs>
    <g>
     <use style="fill:none;stroke:#ff00ff;stroke-linejoin:miter;stroke-width:1.5;" x="137.454074" xlink:href="#mde86e8060b" y="228.824787"/>
     <use style="fill:none;stroke:#ff00ff;stroke-linejoin:miter;stroke-width:1.5;" x="171.034403" xlink:href="#mde86e8060b" y="109.296308"/>
     <use style="fill:none;stroke:#ff00ff;stroke-linejoin:miter;stroke-width:1.5;" x="191.4329" xlink:href="#mde86e8060b" y="28.037911"/>
     <use style="fill:none;stroke:#ff00ff;stroke-linejoin:miter;stroke-width:1.5;" x="191.4329" xlink:href="#mde86e8060b" y="27.513663"/>
     <use style="fill:none;stroke:#ff00ff;stroke-linejoin:miter;stroke-width:1.5;" x="333.429677" xlink:href="#mde86e8060b" y="27.513663"/>
    </g>
   </g>
   <g id="line2d_35">
    <path d="M 0 0 
" style="fill:none;stroke:#ff00ff;stroke-linecap:square;stroke-width:1.5;"/>
    <g>
     <use style="fill:none;stroke:#ff00ff;stroke-linejoin:miter;stroke-width:1.5;" x="0" xlink:href="#mde86e8060b" y="0"/>
    </g>
   </g>
   <g id="line2d_36">
    <defs>
     <path d="M 0 1.5 
C 0.397805 1.5 0.77937 1.341951 1.06066 1.06066 
C 1.341951 0.77937 1.5 0.397805 1.5 0 
C 1.5 -0.397805 1.341951 -0.77937 1.06066 -1.06066 
C 0.77937 -1.341951 0.397805 -1.5 0 -1.5 
C -0.397805 -1.5 -0.77937 -1.341951 -1.06066 -1.06066 
C -1.341951 -0.77937 -1.5 -0.397805 -1.5 0 
C -1.5 0.397805 -1.341951 0.77937 -1.06066 1.06066 
C -0.77937 1.341951 -0.397805 1.5 0 1.5 
z
" id="maf1ff7bbf7" style="stroke:#ffa500;"/>
    </defs>
    <g>
     <use style="fill:#ffa500;stroke:#ffa500;" x="197.770225" xlink:href="#maf1ff7bbf7" y="27.513663"/>
     <use style="fill:#ffa500;stroke:#ffa500;" x="197.770225" xlink:href="#maf1ff7bbf7" y="27.513663"/>
    </g>
   </g>
   <g id="line2d_37">
    <path d="M 76.834191 294.88 
L 76.834191 294.355752 
L 87.877201 294.355752 
L 87.877201 292.783009 
L 88.759695 292.783009 
L 88.759695 291.210266 
L 91.164281 291.210266 
L 91.164281 288.589027 
L 93.273637 288.589027 
L 93.273637 287.540532 
L 94.548655 287.540532 
L 94.548655 287.016284 
L 95.152397 287.016284 
L 95.152397 286.492036 
L 95.735668 286.492036 
L 95.735668 285.443541 
L 96.846045 285.443541 
L 96.846045 283.870798 
L 97.375467 283.870798 
L 97.375467 282.822302 
L 98.38781 282.822302 
L 98.38781 280.201064 
L 98.872486 280.201064 
L 98.872486 277.055578 
L 99.343882 277.055578 
L 99.343882 275.482834 
L 99.802705 275.482834 
L 99.802705 274.958587 
L 100.24961 274.958587 
L 100.24961 273.385844 
L 100.6852 273.385844 
L 100.6852 272.337348 
L 101.524628 272.337348 
L 101.524628 270.764605 
L 101.929467 270.764605 
L 101.929467 269.716109 
L 102.324999 269.716109 
L 102.324999 267.619119 
L 102.711641 267.619119 
L 102.711641 264.99788 
L 103.089785 264.99788 
L 103.089785 261.328146 
L 103.822018 261.328146 
L 103.822018 258.18266 
L 104.524355 258.18266 
L 104.524355 257.658412 
L 104.865056 257.658412 
L 104.865056 256.609917 
L 105.199142 256.609917 
L 105.199142 256.085669 
L 106.47416 256.085669 
L 106.47416 255.037173 
L 107.077901 255.037173 
L 107.077901 252.940182 
L 107.372008 252.940182 
L 107.372008 251.891687 
L 107.661173 251.891687 
L 107.661173 251.367439 
L 110.065758 251.367439 
L 110.065758 250.318944 
L 111.035303 250.318944 
L 111.035303 248.221953 
L 111.72821 248.221953 
L 111.72821 247.173458 
L 112.175115 247.173458 
L 112.175115 246.64921 
L 113.854971 246.64921 
L 113.854971 246.124962 
L 119.586677 246.124962 
L 119.586677 245.600714 
L 121.613118 245.600714 
L 121.613118 245.076467 
L 122.115486 245.076467 
L 122.115486 244.027971 
L 122.238819 244.027971 
L 122.238819 243.503724 
L 123.54015 243.503724 
L 123.54015 242.455228 
L 123.766534 242.455228 
L 123.766534 241.93098 
L 124.210555 241.93098 
L 124.319792 240.882485 
L 125.272921 240.882485 
L 125.272921 240.358237 
L 125.477743 240.358237 
L 125.477743 239.83399 
L 126.657968 239.83399 
L 126.657968 239.309742 
L 129.132668 239.309742 
L 129.132668 238.785494 
L 129.699468 238.785494 
L 129.699468 238.261246 
L 130.779949 238.261246 
L 130.779949 237.212751 
L 131.440345 237.212751 
L 131.440345 236.688503 
L 132.689634 236.688503 
L 132.689634 236.164255 
L 133.410705 236.164255 
L 133.410705 235.640008 
L 133.538623 235.640008 
L 133.538623 234.591512 
L 133.79164 234.591512 
L 133.79164 234.067265 
L 134.708635 234.067265 
L 134.768065 230.921778 
L 135.062172 230.921778 
L 135.062172 230.397531 
L 135.692038 230.397531 
L 135.748171 227.776292 
L 136.299657 227.776292 
L 136.299657 227.252044 
L 136.991135 227.252044 
L 137.043192 225.155053 
L 137.55528 225.155053 
L 137.55528 224.630806 
L 137.755922 224.630806 
L 137.755922 223.58231 
L 138.819483 223.58231 
L 138.912987 220.961072 
L 139.005987 220.961072 
L 139.098486 219.912576 
L 139.14455 219.912576 
L 139.23631 216.76709 
L 140.472062 216.76709 
L 140.472062 215.718594 
L 140.683687 215.718594 
L 140.683687 215.194347 
L 141.505077 215.194347 
L 141.505077 214.145851 
L 141.862285 214.145851 
L 141.862285 213.621604 
L 142.441628 213.621604 
L 142.441628 213.097356 
L 143.401805 213.097356 
L 143.401805 212.573108 
L 143.967108 212.573108 
L 143.967108 212.04886 
L 144.105579 212.04886 
L 144.105579 211.524613 
L 144.514426 211.524613 
L 144.548063 209.427622 
L 145.044869 209.427622 
L 145.044869 208.379126 
L 145.591101 208.379126 
L 145.68572 206.282136 
L 146.303556 206.282136 
L 146.303556 205.23364 
L 146.782331 205.23364 
L 146.870636 204.185145 
L 147.074937 204.185145 
L 147.074937 203.660897 
L 148.627475 203.660897 
L 148.627475 202.612401 
L 148.890552 202.612401 
L 148.890552 202.088154 
L 149.404936 202.088154 
L 149.404936 201.563906 
L 149.631485 201.563906 
L 149.656474 200.515411 
L 150.31781 200.515411 
L 150.365801 197.894172 
L 150.532724 197.894172 
L 150.532724 196.321429 
L 150.698043 196.321429 
L 150.744987 194.748686 
L 151.093041 194.748686 
L 151.184678 193.70019 
L 151.207511 193.70019 
L 151.27583 192.651695 
L 151.321225 192.651695 
L 151.321225 190.554704 
L 151.501619 190.554704 
L 151.501619 190.030456 
L 151.768711 190.030456 
L 151.768711 189.506209 
L 153.024788 189.506209 
L 153.024788 188.981961 
L 153.20858 188.981961 
L 153.20858 188.457713 
L 153.649755 188.457713 
L 153.649755 187.933465 
L 154.118475 187.933465 
L 154.118475 186.88497 
L 155.000969 186.88497 
L 155.000969 185.312227 
L 155.327309 185.312227 
L 155.434728 183.215236 
L 155.452566 183.215236 
L 155.452566 182.690988 
L 155.59461 182.690988 
L 155.59461 182.16674 
L 155.77053 182.16674 
L 155.77053 181.642493 
L 155.961987 181.642493 
L 156.048314 179.545502 
L 156.773369 179.545502 
L 156.822832 176.924263 
L 156.937696 176.924263 
L 157.019274 173.778777 
L 157.245657 173.778777 
L 157.293783 171.681786 
L 157.357741 171.681786 
L 157.421463 170.109043 
L 157.548203 170.109043 
L 157.548203 169.060547 
L 157.83 169.060547 
L 157.922915 167.487804 
L 158.544754 167.487804 
L 158.544754 166.963557 
L 158.781454 166.963557 
L 158.796141 165.915061 
L 158.927755 165.915061 
L 159.014942 161.721079 
L 159.058371 161.721079 
L 159.058371 161.196832 
L 159.188002 161.196832 
L 159.188002 160.672584 
L 159.373539 160.672584 
L 159.430228 159.624089 
L 159.48673 159.624089 
L 159.557097 158.575593 
L 159.64116 158.575593 
L 159.7109 157.00285 
L 159.835725 157.00285 
L 159.945924 155.954354 
L 160.055423 155.954354 
L 160.109912 153.857364 
L 160.204854 153.857364 
L 160.312722 151.236125 
L 160.499878 151.236125 
L 160.579469 149.663382 
L 160.737555 149.663382 
L 160.737555 147.566391 
L 161.023659 147.566391 
L 161.100869 146.517896 
L 161.279689 146.517896 
L 161.279689 145.993648 
L 161.494358 145.993648 
L 161.556989 144.945152 
L 161.866772 144.945152 
L 161.879048 143.896657 
L 162.219268 143.896657 
L 162.219268 143.372409 
L 162.434481 143.372409 
L 162.529274 141.799666 
L 162.552891 141.799666 
L 162.564687 139.178427 
L 162.693915 139.178427 
L 162.693915 138.65418 
L 162.810559 138.65418 
L 162.891741 137.605684 
L 163.415904 137.605684 
L 163.415904 137.081437 
L 163.538916 137.081437 
L 163.572313 134.460198 
L 163.957225 134.460198 
L 164.065637 132.887455 
L 164.108811 132.887455 
L 164.14112 131.838959 
L 164.280432 131.838959 
L 164.323071 129.741969 
L 164.418624 129.741969 
L 164.418624 128.693473 
L 164.534696 128.693473 
L 164.63954 127.12073 
L 164.649989 127.12073 
L 164.691723 125.023739 
L 164.816321 125.023739 
L 164.867972 123.450996 
L 165.164527 123.450996 
L 165.164527 122.926748 
L 165.325981 122.926748 
L 165.386138 118.732766 
L 165.446086 118.732766 
L 165.535617 116.111528 
L 165.575259 116.111528 
L 165.575259 115.58728 
L 165.693642 115.58728 
L 165.801448 113.490289 
L 165.820977 113.490289 
L 165.869702 111.917546 
L 166.05361 111.917546 
L 166.05361 111.393298 
L 166.500268 111.393298 
L 166.584491 108.77206 
L 166.816303 108.77206 
L 166.908161 107.199317 
L 166.972171 107.199317 
L 166.990415 106.150821 
L 167.14472 106.150821 
L 167.252814 105.102326 
L 167.466985 105.102326 
L 167.564263 103.005335 
L 167.599501 103.005335 
L 167.704783 101.956839 
L 167.713528 101.956839 
L 167.713528 101.432592 
L 167.844165 101.432592 
L 167.844165 100.908344 
L 168.136655 100.908344 
L 168.213254 99.335601 
L 168.348593 99.335601 
L 168.415865 95.665867 
L 168.532962 95.665867 
L 168.582904 94.617371 
L 168.657545 94.617371 
L 168.657545 94.093124 
L 168.904038 94.093124 
L 168.904038 93.568876 
L 169.01787 93.568876 
L 169.122901 91.471885 
L 169.15509 91.471885 
L 169.243299 88.326399 
L 169.275264 88.326399 
L 169.275264 87.802151 
L 169.402531 87.802151 
L 169.450015 86.229408 
L 169.77878 86.229408 
L 169.77878 85.70516 
L 170.055664 85.70516 
L 170.055664 85.180912 
L 171.10633 85.180912 
L 171.10633 84.132417 
L 171.270629 84.132417 
L 171.362805 83.083922 
L 171.405181 83.083922 
L 171.405181 82.559674 
L 171.678114 82.559674 
L 171.691994 80.986931 
L 171.946784 80.986931 
L 171.946784 80.462683 
L 172.082953 80.462683 
L 172.103285 78.365692 
L 172.197855 78.365692 
L 172.231504 77.317197 
L 172.338742 77.317197 
L 172.365447 75.220206 
L 172.538028 75.220206 
L 172.538028 74.695958 
L 172.649941 74.695958 
L 172.649941 74.17171 
L 172.91689 74.17171 
L 172.974939 72.074719 
L 173.26861 72.074719 
L 173.26861 71.550472 
L 173.407308 71.550472 
L 173.419862 69.977729 
L 173.532435 69.977729 
L 173.532435 68.929233 
L 173.712268 68.929233 
L 173.712268 68.404985 
L 173.841328 68.404985 
L 173.914644 67.35649 
L 174.198829 67.35649 
L 174.300474 66.307995 
L 174.324303 66.307995 
L 174.389665 64.735251 
L 174.578407 64.735251 
L 174.578407 64.211004 
L 174.817246 64.211004 
L 174.926813 62.114013 
L 174.989929 62.114013 
L 175.047107 61.065517 
L 175.514491 61.065517 
L 175.625241 58.968526 
L 175.669342 58.968526 
L 175.768157 57.395783 
L 175.817353 57.395783 
L 175.844623 54.250297 
L 175.953275 54.250297 
L 175.953275 53.726049 
L 176.349422 53.726049 
L 176.349422 52.677554 
L 176.565044 52.677554 
L 176.627645 51.104811 
L 176.783159 51.104811 
L 176.783159 50.580563 
L 176.973043 50.580563 
L 176.973043 50.056315 
L 177.296623 50.056315 
L 177.341643 48.483572 
L 177.426359 48.483572 
L 177.490862 46.386581 
L 177.722067 46.386581 
L 177.722067 45.862334 
L 178.089479 45.862334 
L 178.156313 42.716847 
L 178.251341 42.716847 
L 178.251341 42.192599 
L 178.407 42.192599 
L 178.486641 39.571361 
L 178.635562 39.571361 
L 178.635562 37.47437 
L 179.119852 37.47437 
L 179.119852 36.950122 
L 179.339196 36.950122 
L 179.339196 36.425875 
L 179.821648 36.425875 
L 179.87347 35.377379 
L 180.066424 35.377379 
L 180.066424 34.853131 
L 180.780525 34.853131 
L 180.780525 33.804636 
L 181.016156 33.804636 
L 181.016156 33.280388 
L 182.095234 33.280388 
L 182.095234 32.756141 
L 182.503422 32.756141 
L 182.503422 32.231893 
L 182.847824 32.231893 
L 182.847824 31.707645 
L 184.093019 31.707645 
L 184.146921 29.610654 
L 186.222997 29.610654 
L 186.222997 28.562159 
L 195.331855 28.562159 
L 195.331855 28.037911 
L 197.770225 28.037911 
L 197.770225 27.513663 
L 333.429677 27.513663 
L 333.429677 27.513663 
" style="fill:none;stroke:#ffa500;stroke-linecap:square;stroke-width:1.5;"/>
   </g>
   <g id="line2d_38">
    <defs>
     <path d="M 0 -6 
L -1.347084 -1.854102 
L -5.706339 -1.854102 
L -2.179628 0.708204 
L -3.526712 4.854102 
L -0 2.291796 
L 3.526712 4.854102 
L 2.179628 0.708204 
L 5.706339 -1.854102 
L 1.347084 -1.854102 
z
" id="m0f83bd8cce" style="stroke:#ffa500;stroke-linejoin:bevel;stroke-width:1.5;"/>
    </defs>
    <g>
     <use style="fill:none;stroke:#ffa500;stroke-linejoin:bevel;stroke-width:1.5;" x="160.737555" xlink:href="#m0f83bd8cce" y="149.663382"/>
     <use style="fill:none;stroke:#ffa500;stroke-linejoin:bevel;stroke-width:1.5;" x="177.341643" xlink:href="#m0f83bd8cce" y="49.00782"/>
     <use style="fill:none;stroke:#ffa500;stroke-linejoin:bevel;stroke-width:1.5;" x="197.770225" xlink:href="#m0f83bd8cce" y="27.513663"/>
     <use style="fill:none;stroke:#ffa500;stroke-linejoin:bevel;stroke-width:1.5;" x="197.770225" xlink:href="#m0f83bd8cce" y="27.513663"/>
     <use style="fill:none;stroke:#ffa500;stroke-linejoin:bevel;stroke-width:1.5;" x="333.429677" xlink:href="#m0f83bd8cce" y="27.513663"/>
    </g>
   </g>
   <g id="line2d_39">
    <path d="M 0 0 
" style="fill:none;stroke:#ffa500;stroke-linecap:square;stroke-width:1.5;"/>
    <g>
     <use style="fill:none;stroke:#ffa500;stroke-linejoin:bevel;stroke-width:1.5;" x="0" xlink:href="#m0f83bd8cce" y="0"/>
    </g>
   </g>
   <g id="line2d_40">
    <defs>
     <path d="M 0 1.5 
C 0.397805 1.5 0.77937 1.341951 1.06066 1.06066 
C 1.341951 0.77937 1.5 0.397805 1.5 0 
C 1.5 -0.397805 1.341951 -0.77937 1.06066 -1.06066 
C 0.77937 -1.341951 0.397805 -1.5 0 -1.5 
C -0.397805 -1.5 -0.77937 -1.341951 -1.06066 -1.06066 
C -1.341951 -0.77937 -1.5 -0.397805 -1.5 0 
C -1.5 0.397805 -1.341951 0.77937 -1.06066 1.06066 
C -0.77937 1.341951 -0.397805 1.5 0 1.5 
z
" id="m5460389a01" style="stroke:#6495ed;"/>
    </defs>
    <g>
     <use style="fill:#6495ed;stroke:#6495ed;" x="125.477743" xlink:href="#m5460389a01" y="27.513663"/>
     <use style="fill:#6495ed;stroke:#6495ed;" x="125.477743" xlink:href="#m5460389a01" y="27.513663"/>
    </g>
   </g>
   <g id="line2d_41">
    <path d="M 88.759695 294.88 
L 88.759695 292.258761 
L 91.896513 292.258761 
L 91.896513 288.589027 
L 93.922955 288.589027 
L 93.922955 286.492036 
L 95.735668 286.492036 
L 95.735668 285.443541 
L 96.299813 285.443541 
L 96.299813 283.870798 
L 97.375467 283.870798 
L 97.375467 281.249559 
L 97.889083 281.249559 
L 97.889083 279.676816 
L 98.38781 279.676816 
L 98.38781 276.53133 
L 99.343882 276.53133 
L 99.343882 276.007082 
L 99.802705 276.007082 
L 99.802705 273.910091 
L 100.24961 273.910091 
L 100.24961 269.191862 
L 100.6852 269.191862 
L 100.6852 268.667614 
L 101.110033 268.667614 
L 101.110033 267.619119 
L 101.524628 267.619119 
L 101.524628 266.570623 
L 102.711641 266.570623 
L 102.711641 257.658412 
L 103.089785 257.658412 
L 103.089785 253.988678 
L 103.822018 253.988678 
L 103.822018 252.415935 
L 104.17677 252.415935 
L 104.17677 249.794696 
L 104.524355 249.794696 
L 104.524355 249.270448 
L 104.865056 249.270448 
L 104.865056 239.83399 
L 105.199142 239.83399 
L 105.199142 233.018769 
L 105.526863 233.018769 
L 105.526863 231.446026 
L 105.848459 231.446026 
L 105.848459 229.349035 
L 106.164154 229.349035 
L 106.164154 226.727797 
L 106.47416 226.727797 
L 106.47416 219.912576 
L 106.778678 219.912576 
L 106.778678 218.864081 
L 107.077901 218.864081 
L 107.077901 216.76709 
L 107.372008 216.76709 
L 107.372008 213.097356 
L 107.661173 213.097356 
L 107.661173 207.330631 
L 107.945557 207.330631 
L 107.945557 197.894172 
L 108.225317 197.894172 
L 108.225317 197.369924 
L 108.500601 197.369924 
L 108.500601 193.175943 
L 108.771549 193.175943 
L 108.771549 186.88497 
L 109.300972 186.88497 
L 109.300972 184.263731 
L 109.559696 184.263731 
L 109.559696 183.215236 
L 109.814588 183.215236 
L 109.814588 178.497006 
L 110.065758 178.497006 
L 110.065758 172.730281 
L 110.313314 172.730281 
L 110.313314 171.681786 
L 110.557359 171.681786 
L 110.557359 168.5363 
L 110.797991 168.5363 
L 110.797991 165.390813 
L 111.035303 165.390813 
L 111.035303 164.342318 
L 111.269386 164.342318 
L 111.269386 161.196832 
L 111.500328 161.196832 
L 111.500328 159.099841 
L 111.72821 159.099841 
L 111.72821 156.478602 
L 111.953113 156.478602 
L 111.953113 153.333116 
L 112.175115 153.333116 
L 112.175115 147.566391 
L 112.394288 147.566391 
L 112.394288 146.517896 
L 112.610704 146.517896 
L 112.610704 145.4694 
L 112.824432 145.4694 
L 112.824432 141.799666 
L 113.035537 141.799666 
L 113.035537 140.751171 
L 113.244084 140.751171 
L 113.244084 140.226923 
L 113.653743 140.226923 
L 113.653743 136.032941 
L 114.053874 136.032941 
L 114.053874 130.266216 
L 114.250503 130.266216 
L 114.250503 128.693473 
L 114.44491 128.693473 
L 114.44491 128.169225 
L 114.637146 128.169225 
L 114.637146 123.975244 
L 115.01529 123.975244 
L 115.01529 117.160023 
L 115.385301 117.160023 
L 115.385301 114.538785 
L 115.567365 114.538785 
L 115.567365 114.014537 
L 115.747522 114.014537 
L 115.747522 109.820555 
L 115.925812 109.820555 
L 115.925812 108.77206 
L 116.102274 108.77206 
L 116.102274 106.150821 
L 116.449859 106.150821 
L 116.449859 105.102326 
L 117.289287 105.102326 
L 117.289287 103.529583 
L 117.452368 103.529583 
L 117.452368 100.384096 
L 117.932535 100.384096 
L 117.932535 99.859849 
L 118.854445 99.859849 
L 118.854445 99.335601 
L 119.003405 99.335601 
L 119.003405 98.811353 
L 119.151088 98.811353 
L 119.151088 95.141619 
L 119.297513 95.141619 
L 119.297513 93.568876 
L 119.442702 93.568876 
L 119.442702 91.996133 
L 119.586677 91.996133 
L 119.586677 84.656665 
L 119.871061 84.656665 
L 119.871061 84.132417 
L 120.01151 84.132417 
L 120.01151 82.035426 
L 120.697054 82.035426 
L 120.697054 78.88994 
L 120.830944 78.88994 
L 120.830944 73.123215 
L 120.963801 73.123215 
L 120.963801 72.598967 
L 121.09564 72.598967 
L 121.09564 70.501976 
L 122.115486 70.501976 
L 122.115486 68.404985 
L 122.482864 68.404985 
L 122.482864 67.35649 
L 122.6036 67.35649 
L 122.6036 66.832242 
L 122.84256 66.832242 
L 122.84256 63.686756 
L 123.425832 63.686756 
L 123.425832 62.114013 
L 123.54015 62.114013 
L 123.54015 61.589765 
L 123.766534 61.589765 
L 123.766534 60.54127 
L 123.878618 60.54127 
L 123.878618 59.492774 
L 123.989976 59.492774 
L 123.989976 50.056315 
L 124.319792 50.056315 
L 124.428341 42.192599 
L 124.536209 42.192599 
L 124.536209 40.619856 
L 124.855813 40.619856 
L 124.961042 34.853131 
L 125.065631 34.853131 
L 125.169588 31.183397 
L 125.375637 31.183397 
L 125.477743 27.513663 
L 333.429677 27.513663 
L 333.429677 27.513663 
" style="fill:none;stroke:#6495ed;stroke-linecap:square;stroke-width:1.5;"/>
   </g>
   <g id="line2d_42">
    <defs>
     <path d="M -0 6 
L 6 -6 
L -6 -6 
z
" id="m2f2de013a8" style="stroke:#6495ed;stroke-linejoin:miter;stroke-width:1.5;"/>
    </defs>
    <g>
     <use style="fill:none;stroke:#6495ed;stroke-linejoin:miter;stroke-width:1.5;" x="114.44491" xlink:href="#m2f2de013a8" y="128.169225"/>
     <use style="fill:none;stroke:#6495ed;stroke-linejoin:miter;stroke-width:1.5;" x="125.477743" xlink:href="#m2f2de013a8" y="29.086407"/>
     <use style="fill:none;stroke:#6495ed;stroke-linejoin:miter;stroke-width:1.5;" x="125.477743" xlink:href="#m2f2de013a8" y="27.513663"/>
     <use style="fill:none;stroke:#6495ed;stroke-linejoin:miter;stroke-width:1.5;" x="125.477743" xlink:href="#m2f2de013a8" y="27.513663"/>
     <use style="fill:none;stroke:#6495ed;stroke-linejoin:miter;stroke-width:1.5;" x="333.429677" xlink:href="#m2f2de013a8" y="27.513663"/>
    </g>
   </g>
   <g id="line2d_43">
    <path d="M 0 0 
" style="fill:none;stroke:#6495ed;stroke-linecap:square;stroke-width:1.5;"/>
    <g>
     <use style="fill:none;stroke:#6495ed;stroke-linejoin:miter;stroke-width:1.5;" x="0" xlink:href="#m2f2de013a8" y="0"/>
    </g>
   </g>
   <g id="line2d_44">
    <path d="M 333.429677 27.513663 
L 363.933742 289.532673 
" style="fill:none;stroke:#ffa500;stroke-linecap:square;stroke-width:1.5;"/>
    <g>
     <use style="fill:none;stroke:#ffa500;stroke-linejoin:bevel;stroke-width:1.5;" x="333.429677" xlink:href="#m0f83bd8cce" y="27.513663"/>
     <use style="fill:none;stroke:#ffa500;stroke-linejoin:bevel;stroke-width:1.5;" x="363.933742" xlink:href="#m0f83bd8cce" y="289.532673"/>
    </g>
   </g>
   <g id="line2d_45">
    <path d="M 333.429677 27.513663 
L 363.933742 225.364752 
" style="fill:none;stroke:#ff00ff;stroke-linecap:square;stroke-width:1.5;"/>
    <g>
     <use style="fill:none;stroke:#ff00ff;stroke-linejoin:miter;stroke-width:1.5;" x="333.429677" xlink:href="#mde86e8060b" y="27.513663"/>
     <use style="fill:none;stroke:#ff00ff;stroke-linejoin:miter;stroke-width:1.5;" x="363.933742" xlink:href="#mde86e8060b" y="225.364752"/>
    </g>
   </g>
   <g id="line2d_46">
    <path d="M 333.429677 27.513663 
L 363.933742 161.196832 
" style="fill:none;stroke:#000080;stroke-linecap:square;stroke-width:1.5;"/>
    <g>
     <use style="fill:none;stroke:#000080;stroke-width:1.5;" x="333.429677" xlink:href="#m544b129c42" y="27.513663"/>
     <use style="fill:none;stroke:#000080;stroke-width:1.5;" x="363.933742" xlink:href="#m544b129c42" y="161.196832"/>
    </g>
   </g>
   <g id="line2d_47">
    <path d="M 333.429677 27.513663 
L 363.933742 97.028911 
" style="fill:none;stroke:#6495ed;stroke-linecap:square;stroke-width:1.5;"/>
    <g>
     <use style="fill:none;stroke:#6495ed;stroke-linejoin:miter;stroke-width:1.5;" x="333.429677" xlink:href="#m2f2de013a8" y="27.513663"/>
     <use style="fill:none;stroke:#6495ed;stroke-linejoin:miter;stroke-width:1.5;" x="363.933742" xlink:href="#m2f2de013a8" y="97.028911"/>
    </g>
   </g>
   <g id="line2d_48">
    <path d="M 333.429677 294.88 
L 333.429677 27.513663 
" style="fill:none;stroke:#000000;stroke-linecap:square;stroke-width:1.5;"/>
   </g>
   <g id="patch_3">
    <path d="M 56.12 294.88 
L 56.12 24.84 
" style="fill:none;stroke:#000000;stroke-linecap:square;stroke-linejoin:miter;stroke-width:0.8;"/>
   </g>
   <g id="patch_4">
    <path d="M 399.984 294.88 
L 399.984 24.84 
" style="fill:none;stroke:#000000;stroke-linecap:square;stroke-linejoin:miter;stroke-width:0.8;"/>
   </g>
   <g id="patch_5">
    <path d="M 56.12 294.88 
L 399.984 294.88 
" style="fill:none;stroke:#000000;stroke-linecap:square;stroke-linejoin:miter;stroke-width:0.8;"/>
   </g>
   <g id="patch_6">
    <path d="M 56.12 24.84 
L 399.984 24.84 
" style="fill:none;stroke:#000000;stroke-linecap:square;stroke-linejoin:miter;stroke-width:0.8;"/>
   </g>
   <g id="text_14">
    <!-- AVGNEWUOA -->
    <defs>
     <path d="M 34.1875 63.1875 
L 20.796875 26.90625 
L 47.609375 26.90625 
z
M 28.609375 72.90625 
L 39.796875 72.90625 
L 67.578125 0 
L 57.328125 0 
L 50.6875 18.703125 
L 17.828125 18.703125 
L 11.1875 0 
L 0.78125 0 
z
" id="DejaVuSans-41"/>
     <path d="M 28.609375 0 
L 0.78125 72.90625 
L 11.078125 72.90625 
L 34.1875 11.53125 
L 57.328125 72.90625 
L 67.578125 72.90625 
L 39.796875 0 
z
" id="DejaVuSans-56"/>
     <path d="M 59.515625 10.40625 
L 59.515625 29.984375 
L 43.40625 29.984375 
L 43.40625 38.09375 
L 69.28125 38.09375 
L 69.28125 6.78125 
Q 63.578125 2.734375 56.6875 0.65625 
Q 49.8125 -1.421875 42 -1.421875 
Q 24.90625 -1.421875 15.25 8.5625 
Q 5.609375 18.5625 5.609375 36.375 
Q 5.609375 54.25 15.25 64.234375 
Q 24.90625 74.21875 42 74.21875 
Q 49.125 74.21875 55.546875 72.453125 
Q 61.96875 70.703125 67.390625 67.28125 
L 67.390625 56.78125 
Q 61.921875 61.421875 55.765625 63.765625 
Q 49.609375 66.109375 42.828125 66.109375 
Q 29.4375 66.109375 22.71875 58.640625 
Q 16.015625 51.171875 16.015625 36.375 
Q 16.015625 21.625 22.71875 14.15625 
Q 29.4375 6.6875 42.828125 6.6875 
Q 48.046875 6.6875 52.140625 7.59375 
Q 56.25 8.5 59.515625 10.40625 
z
" id="DejaVuSans-47"/>
     <path d="M 9.8125 72.90625 
L 23.09375 72.90625 
L 55.421875 11.921875 
L 55.421875 72.90625 
L 64.984375 72.90625 
L 64.984375 0 
L 51.703125 0 
L 19.390625 60.984375 
L 19.390625 0 
L 9.8125 0 
z
" id="DejaVuSans-4e"/>
     <path d="M 9.8125 72.90625 
L 55.90625 72.90625 
L 55.90625 64.59375 
L 19.671875 64.59375 
L 19.671875 43.015625 
L 54.390625 43.015625 
L 54.390625 34.71875 
L 19.671875 34.71875 
L 19.671875 8.296875 
L 56.78125 8.296875 
L 56.78125 0 
L 9.8125 0 
z
" id="DejaVuSans-45"/>
     <path d="M 3.328125 72.90625 
L 13.28125 72.90625 
L 28.609375 11.28125 
L 43.890625 72.90625 
L 54.984375 72.90625 
L 70.3125 11.28125 
L 85.59375 72.90625 
L 95.609375 72.90625 
L 77.296875 0 
L 64.890625 0 
L 49.515625 63.28125 
L 33.984375 0 
L 21.578125 0 
z
" id="DejaVuSans-57"/>
     <path d="M 8.6875 72.90625 
L 18.609375 72.90625 
L 18.609375 28.609375 
Q 18.609375 16.890625 22.84375 11.734375 
Q 27.09375 6.59375 36.625 6.59375 
Q 46.09375 6.59375 50.34375 11.734375 
Q 54.59375 16.890625 54.59375 28.609375 
L 54.59375 72.90625 
L 64.5 72.90625 
L 64.5 27.390625 
Q 64.5 13.140625 57.4375 5.859375 
Q 50.390625 -1.421875 36.625 -1.421875 
Q 22.796875 -1.421875 15.734375 5.859375 
Q 8.6875 13.140625 8.6875 27.390625 
z
" id="DejaVuSans-55"/>
     <path d="M 39.40625 66.21875 
Q 28.65625 66.21875 22.328125 58.203125 
Q 16.015625 50.203125 16.015625 36.375 
Q 16.015625 22.609375 22.328125 14.59375 
Q 28.65625 6.59375 39.40625 6.59375 
Q 50.140625 6.59375 56.421875 14.59375 
Q 62.703125 22.609375 62.703125 36.375 
Q 62.703125 50.203125 56.421875 58.203125 
Q 50.140625 66.21875 39.40625 66.21875 
z
M 39.40625 74.21875 
Q 54.734375 74.21875 63.90625 63.9375 
Q 73.09375 53.65625 73.09375 36.375 
Q 73.09375 19.140625 63.90625 8.859375 
Q 54.734375 -1.421875 39.40625 -1.421875 
Q 24.03125 -1.421875 14.8125 8.828125 
Q 5.609375 19.09375 5.609375 36.375 
Q 5.609375 53.65625 14.8125 63.9375 
Q 24.03125 74.21875 39.40625 74.21875 
z
" id="DejaVuSans-4f"/>
    </defs>
    <g transform="translate(369.479935 294.223611)scale(0.17 -0.17)">
     <use xlink:href="#DejaVuSans-41"/>
     <use x="68.314453" xlink:href="#DejaVuSans-56"/>
     <use x="136.722656" xlink:href="#DejaVuSans-47"/>
     <use x="214.212891" xlink:href="#DejaVuSans-4e"/>
     <use x="289.017578" xlink:href="#DejaVuSans-45"/>
     <use x="352.201172" xlink:href="#DejaVuSans-57"/>
     <use x="451.078125" xlink:href="#DejaVuSans-55"/>
     <use x="524.271484" xlink:href="#DejaVuSans-4f"/>
     <use x="602.966797" xlink:href="#DejaVuSans-41"/>
    </g>
   </g>
   <g id="text_15">
    <!-- NEWUOA ro -->
    <g transform="translate(369.479935 230.05569)scale(0.17 -0.17)">
     <use xlink:href="#DejaVuSans-4e"/>
     <use x="74.804688" xlink:href="#DejaVuSans-45"/>
     <use x="137.988281" xlink:href="#DejaVuSans-57"/>
     <use x="236.865234" xlink:href="#DejaVuSans-55"/>
     <use x="310.058594" xlink:href="#DejaVuSans-4f"/>
     <use x="388.753906" xlink:href="#DejaVuSans-41"/>
     <use x="457.162109" xlink:href="#DejaVuSans-20"/>
     <use x="488.949219" xlink:href="#DejaVuSans-72"/>
     <use x="530.03125" xlink:href="#DejaVuSans-6f"/>
    </g>
   </g>
   <g id="text_16">
    <!-- FULLNEWUO -->
    <defs>
     <path d="M 9.8125 72.90625 
L 19.671875 72.90625 
L 19.671875 8.296875 
L 55.171875 8.296875 
L 55.171875 0 
L 9.8125 0 
z
" id="DejaVuSans-4c"/>
    </defs>
    <g transform="translate(369.479935 165.887769)scale(0.17 -0.17)">
     <use xlink:href="#DejaVuSans-46"/>
     <use x="57.519531" xlink:href="#DejaVuSans-55"/>
     <use x="130.712891" xlink:href="#DejaVuSans-4c"/>
     <use x="186.425781" xlink:href="#DejaVuSans-4c"/>
     <use x="242.138672" xlink:href="#DejaVuSans-4e"/>
     <use x="316.943359" xlink:href="#DejaVuSans-45"/>
     <use x="380.126953" xlink:href="#DejaVuSans-57"/>
     <use x="479.003906" xlink:href="#DejaVuSans-55"/>
     <use x="552.197266" xlink:href="#DejaVuSans-4f"/>
    </g>
   </g>
   <g id="text_17">
    <!-- DFO -->
    <defs>
     <path d="M 19.671875 64.796875 
L 19.671875 8.109375 
L 31.59375 8.109375 
Q 46.6875 8.109375 53.6875 14.9375 
Q 60.6875 21.78125 60.6875 36.53125 
Q 60.6875 51.171875 53.6875 57.984375 
Q 46.6875 64.796875 31.59375 64.796875 
z
M 9.8125 72.90625 
L 30.078125 72.90625 
Q 51.265625 72.90625 61.171875 64.09375 
Q 71.09375 55.28125 71.09375 36.53125 
Q 71.09375 17.671875 61.125 8.828125 
Q 51.171875 0 30.078125 0 
L 9.8125 0 
z
" id="DejaVuSans-44"/>
    </defs>
    <g transform="translate(369.479935 101.719848)scale(0.17 -0.17)">
     <use xlink:href="#DejaVuSans-44"/>
     <use x="77.001953" xlink:href="#DejaVuSans-46"/>
     <use x="134.521484" xlink:href="#DejaVuSans-4f"/>
    </g>
   </g>
   <g id="text_18">
    <!-- best 2009 -->
    <defs>
     <path d="M 48.6875 27.296875 
Q 48.6875 37.203125 44.609375 42.84375 
Q 40.53125 48.484375 33.40625 48.484375 
Q 26.265625 48.484375 22.1875 42.84375 
Q 18.109375 37.203125 18.109375 27.296875 
Q 18.109375 17.390625 22.1875 11.75 
Q 26.265625 6.109375 33.40625 6.109375 
Q 40.53125 6.109375 44.609375 11.75 
Q 48.6875 17.390625 48.6875 27.296875 
z
M 18.109375 46.390625 
Q 20.953125 51.265625 25.265625 53.625 
Q 29.59375 56 35.59375 56 
Q 45.5625 56 51.78125 48.09375 
Q 58.015625 40.1875 58.015625 27.296875 
Q 58.015625 14.40625 51.78125 6.484375 
Q 45.5625 -1.421875 35.59375 -1.421875 
Q 29.59375 -1.421875 25.265625 0.953125 
Q 20.953125 3.328125 18.109375 8.203125 
L 18.109375 0 
L 9.078125 0 
L 9.078125 75.984375 
L 18.109375 75.984375 
z
" id="DejaVuSans-62"/>
     <path d="M 10.984375 1.515625 
L 10.984375 10.5 
Q 14.703125 8.734375 18.5 7.8125 
Q 22.3125 6.890625 25.984375 6.890625 
Q 35.75 6.890625 40.890625 13.453125 
Q 46.046875 20.015625 46.78125 33.40625 
Q 43.953125 29.203125 39.59375 26.953125 
Q 35.25 24.703125 29.984375 24.703125 
Q 19.046875 24.703125 12.671875 31.3125 
Q 6.296875 37.9375 6.296875 49.421875 
Q 6.296875 60.640625 12.9375 67.421875 
Q 19.578125 74.21875 30.609375 74.21875 
Q 43.265625 74.21875 49.921875 64.515625 
Q 56.59375 54.828125 56.59375 36.375 
Q 56.59375 19.140625 48.40625 8.859375 
Q 40.234375 -1.421875 26.421875 -1.421875 
Q 22.703125 -1.421875 18.890625 -0.6875 
Q 15.09375 0.046875 10.984375 1.515625 
z
M 30.609375 32.421875 
Q 37.25 32.421875 41.125 36.953125 
Q 45.015625 41.5 45.015625 49.421875 
Q 45.015625 57.28125 41.125 61.84375 
Q 37.25 66.40625 30.609375 66.40625 
Q 23.96875 66.40625 20.09375 61.84375 
Q 16.21875 57.28125 16.21875 49.421875 
Q 16.21875 41.5 20.09375 36.953125 
Q 23.96875 32.421875 30.609375 32.421875 
z
" id="DejaVuSans-39"/>
    </defs>
    <g transform="translate(369.479935 37.551928)scale(0.17 -0.17)">
     <use xlink:href="#DejaVuSans-62"/>
     <use x="63.476562" xlink:href="#DejaVuSans-65"/>
     <use x="125" xlink:href="#DejaVuSans-73"/>
     <use x="177.099609" xlink:href="#DejaVuSans-74"/>
     <use x="216.308594" xlink:href="#DejaVuSans-20"/>
     <use x="248.095703" xlink:href="#DejaVuSans-32"/>
     <use x="311.71875" xlink:href="#DejaVuSans-30"/>
     <use x="375.341797" xlink:href="#DejaVuSans-30"/>
     <use x="438.964844" xlink:href="#DejaVuSans-39"/>
    </g>
   </g>
   <g id="text_19">
    <!-- bbob f2, 3-D -->
    <defs>
     <path d="M 40.578125 39.3125 
Q 47.65625 37.796875 51.625 33 
Q 55.609375 28.21875 55.609375 21.1875 
Q 55.609375 10.40625 48.1875 4.484375 
Q 40.765625 -1.421875 27.09375 -1.421875 
Q 22.515625 -1.421875 17.65625 -0.515625 
Q 12.796875 0.390625 7.625 2.203125 
L 7.625 11.71875 
Q 11.71875 9.328125 16.59375 8.109375 
Q 21.484375 6.890625 26.8125 6.890625 
Q 36.078125 6.890625 40.9375 10.546875 
Q 45.796875 14.203125 45.796875 21.1875 
Q 45.796875 27.640625 41.28125 31.265625 
Q 36.765625 34.90625 28.71875 34.90625 
L 20.21875 34.90625 
L 20.21875 43.015625 
L 29.109375 43.015625 
Q 36.375 43.015625 40.234375 45.921875 
Q 44.09375 48.828125 44.09375 54.296875 
Q 44.09375 59.90625 40.109375 62.90625 
Q 36.140625 65.921875 28.71875 65.921875 
Q 24.65625 65.921875 20.015625 65.03125 
Q 15.375 64.15625 9.8125 62.3125 
L 9.8125 71.09375 
Q 15.4375 72.65625 20.34375 73.4375 
Q 25.25 74.21875 29.59375 74.21875 
Q 40.828125 74.21875 47.359375 69.109375 
Q 53.90625 64.015625 53.90625 55.328125 
Q 53.90625 49.265625 50.4375 45.09375 
Q 46.96875 40.921875 40.578125 39.3125 
z
" id="DejaVuSans-33"/>
    </defs>
    <g transform="translate(59.55864 35.290806)scale(0.102 -0.102)">
     <use xlink:href="#DejaVuSans-62"/>
     <use x="63.476562" xlink:href="#DejaVuSans-62"/>
     <use x="126.953125" xlink:href="#DejaVuSans-6f"/>
     <use x="188.134766" xlink:href="#DejaVuSans-62"/>
     <use x="251.611328" xlink:href="#DejaVuSans-20"/>
     <use x="283.398438" xlink:href="#DejaVuSans-66"/>
     <use x="318.603516" xlink:href="#DejaVuSans-32"/>
     <use x="382.226562" xlink:href="#DejaVuSans-2c"/>
     <use x="414.013672" xlink:href="#DejaVuSans-20"/>
     <use x="445.800781" xlink:href="#DejaVuSans-33"/>
     <use x="509.423828" xlink:href="#DejaVuSans-2d"/>
     <use x="545.507812" xlink:href="#DejaVuSans-44"/>
    </g>
    <!-- 51 targets: 100..1e-08 -->
    <defs>
     <path d="M 10.796875 72.90625 
L 49.515625 72.90625 
L 49.515625 64.59375 
L 19.828125 64.59375 
L 19.828125 46.734375 
Q 21.96875 47.46875 24.109375 47.828125 
Q 26.265625 48.1875 28.421875 48.1875 
Q 40.625 48.1875 47.75 41.5 
Q 54.890625 34.8125 54.890625 23.390625 
Q 54.890625 11.625 47.5625 5.09375 
Q 40.234375 -1.421875 26.90625 -1.421875 
Q 22.3125 -1.421875 17.546875 -0.640625 
Q 12.796875 0.140625 7.71875 1.703125 
L 7.71875 11.625 
Q 12.109375 9.234375 16.796875 8.0625 
Q 21.484375 6.890625 26.703125 6.890625 
Q 35.15625 6.890625 40.078125 11.328125 
Q 45.015625 15.765625 45.015625 23.390625 
Q 45.015625 31 40.078125 35.4375 
Q 35.15625 39.890625 26.703125 39.890625 
Q 22.75 39.890625 18.8125 39.015625 
Q 14.890625 38.140625 10.796875 36.28125 
z
" id="DejaVuSans-35"/>
     <path d="M 11.71875 12.40625 
L 22.015625 12.40625 
L 22.015625 0 
L 11.71875 0 
z
M 11.71875 51.703125 
L 22.015625 51.703125 
L 22.015625 39.3125 
L 11.71875 39.3125 
z
" id="DejaVuSans-3a"/>
    </defs>
    <g transform="translate(59.55864 46.712575)scale(0.102 -0.102)">
     <use xlink:href="#DejaVuSans-35"/>
     <use x="63.623047" xlink:href="#DejaVuSans-31"/>
     <use x="127.246094" xlink:href="#DejaVuSans-20"/>
     <use x="159.033203" xlink:href="#DejaVuSans-74"/>
     <use x="198.242188" xlink:href="#DejaVuSans-61"/>
     <use x="259.521484" xlink:href="#DejaVuSans-72"/>
     <use x="300.619141" xlink:href="#DejaVuSans-67"/>
     <use x="364.095703" xlink:href="#DejaVuSans-65"/>
     <use x="425.619141" xlink:href="#DejaVuSans-74"/>
     <use x="464.828125" xlink:href="#DejaVuSans-73"/>
     <use x="516.927734" xlink:href="#DejaVuSans-3a"/>
     <use x="550.619141" xlink:href="#DejaVuSans-20"/>
     <use x="582.40625" xlink:href="#DejaVuSans-31"/>
     <use x="646.029297" xlink:href="#DejaVuSans-30"/>
     <use x="709.652344" xlink:href="#DejaVuSans-30"/>
     <use x="773.275391" xlink:href="#DejaVuSans-2e"/>
     <use x="805.0625" xlink:href="#DejaVuSans-2e"/>
     <use x="836.849609" xlink:href="#DejaVuSans-31"/>
     <use x="900.472656" xlink:href="#DejaVuSans-65"/>
     <use x="961.996094" xlink:href="#DejaVuSans-2d"/>
     <use x="998.080078" xlink:href="#DejaVuSans-30"/>
     <use x="1061.703125" xlink:href="#DejaVuSans-38"/>
    </g>
    <!-- 10, 15 instances -->
    <g transform="translate(59.55864 58.134344)scale(0.102 -0.102)">
     <use xlink:href="#DejaVuSans-31"/>
     <use x="63.623047" xlink:href="#DejaVuSans-30"/>
     <use x="127.246094" xlink:href="#DejaVuSans-2c"/>
     <use x="159.033203" xlink:href="#DejaVuSans-20"/>
     <use x="190.820312" xlink:href="#DejaVuSans-31"/>
     <use x="254.443359" xlink:href="#DejaVuSans-35"/>
     <use x="318.066406" xlink:href="#DejaVuSans-20"/>
     <use x="349.853516" xlink:href="#DejaVuSans-69"/>
     <use x="377.636719" xlink:href="#DejaVuSans-6e"/>
     <use x="441.015625" xlink:href="#DejaVuSans-73"/>
     <use x="493.115234" xlink:href="#DejaVuSans-74"/>
     <use x="532.324219" xlink:href="#DejaVuSans-61"/>
     <use x="593.603516" xlink:href="#DejaVuSans-6e"/>
     <use x="656.982422" xlink:href="#DejaVuSans-63"/>
     <use x="711.962891" xlink:href="#DejaVuSans-65"/>
     <use x="773.486328" xlink:href="#DejaVuSans-73"/>
    </g>
   </g>
   <g id="text_20">
    <!-- v2.0.805 -->
    <g style="fill:#808080;" transform="translate(206.00825 290.099912)scale(0.1 -0.1)">
     <use xlink:href="#DejaVuSans-76"/>
     <use x="59.179688" xlink:href="#DejaVuSans-32"/>
     <use x="122.802734" xlink:href="#DejaVuSans-2e"/>
     <use x="154.589844" xlink:href="#DejaVuSans-30"/>
     <use x="218.212891" xlink:href="#DejaVuSans-2e"/>
     <use x="250" xlink:href="#DejaVuSans-38"/>
     <use x="313.623047" xlink:href="#DejaVuSans-30"/>
     <use x="377.246094" xlink:href="#DejaVuSans-35"/>
    </g>
   </g>
   <g id="text_21">
    <!-- 2 Ellipsoid separable -->
    <g transform="translate(124.519188 18.84)scale(0.2 -0.2)">
     <use xlink:href="#DejaVuSans-32"/>
     <use x="63.623047" xlink:href="#DejaVuSans-20"/>
     <use x="95.410156" xlink:href="#DejaVuSans-45"/>
     <use x="158.59375" xlink:href="#DejaVuSans-6c"/>
     <use x="186.376953" xlink:href="#DejaVuSans-6c"/>
     <use x="214.160156" xlink:href="#DejaVuSans-69"/>
     <use x="241.943359" xlink:href="#DejaVuSans-70"/>
     <use x="305.419922" xlink:href="#DejaVuSans-73"/>
     <use x="357.519531" xlink:href="#DejaVuSans-6f"/>
     <use x="418.701172" xlink:href="#DejaVuSans-69"/>
     <use x="446.484375" xlink:href="#DejaVuSans-64"/>
     <use x="509.960938" xlink:href="#DejaVuSans-20"/>
     <use x="541.748047" xlink:href="#DejaVuSans-73"/>
     <use x="593.847656" xlink:href="#DejaVuSans-65"/>
     <use x="655.371094" xlink:href="#DejaVuSans-70"/>
     <use x="718.847656" xlink:href="#DejaVuSans-61"/>
     <use x="780.126953" xlink:href="#DejaVuSans-72"/>
     <use x="821.240234" xlink:href="#DejaVuSans-61"/>
     <use x="882.519531" xlink:href="#DejaVuSans-62"/>
     <use x="945.996094" xlink:href="#DejaVuSans-6c"/>
     <use x="973.779297" xlink:href="#DejaVuSans-65"/>
    </g>
   </g>
  </g>
 </g>
 <defs>
  <clipPath id="p9abb22cf26">
   <rect height="270.04" width="343.864" x="56.12" y="24.84"/>
  </clipPath>
 </defs>
</svg>
