<?xml version="1.0" encoding="utf-8" standalone="no"?>
<!DOCTYPE svg PUBLIC "-//W3C//DTD SVG 1.1//EN"
  "http://www.w3.org/Graphics/SVG/1.1/DTD/svg11.dtd">
<!-- Created with matplotlib (http://matplotlib.org/) -->
<svg height="345pt" version="1.1" viewBox="0 0 460 345" width="460pt" xmlns="http://www.w3.org/2000/svg" xmlns:xlink="http://www.w3.org/1999/xlink">
 <defs>
  <style type="text/css">
*{stroke-linecap:butt;stroke-linejoin:round;}
  </style>
 </defs>
 <g id="figure_1">
  <g id="patch_1">
   <path d="M 0 345.6 
L 460.8 345.6 
L 460.8 0 
L 0 0 
z
" style="fill:#ffffff;"/>
  </g>
  <g id="axes_1">
   <g id="patch_2">
    <path d="M 56.12 294.88 
L 399.984 294.88 
L 399.984 24.84 
L 56.12 24.84 
z
" style="fill:#ffffff;"/>
   </g>
   <g id="line2d_1">
    <path d="M 102.711641 294.88 
L 102.711641 289.637523 
L 103.386428 289.637523 
L 103.386428 284.395046 
L 104.246851 284.395046 
L 104.246851 279.152568 
L 104.455397 279.152568 
L 104.455397 263.425137 
L 104.865056 263.425137 
L 104.865056 258.18266 
L 105.265187 258.18266 
L 105.265187 237.212751 
L 105.461817 237.212751 
L 105.461817 205.757888 
L 105.656224 205.757888 
L 105.656224 174.303025 
L 105.848459 174.303025 
L 105.848459 148.090639 
L 106.03857 148.090639 
L 106.03857 116.635776 
L 106.226603 116.635776 
L 106.226603 100.908344 
L 106.412604 100.908344 
L 106.412604 64.211004 
L 106.596615 64.211004 
L 106.596615 43.241095 
L 106.778678 43.241095 
L 106.778678 27.513663 
L 333.429677 27.513663 
" style="fill:none;stroke:#f5deb3;stroke-linecap:square;stroke-width:6;"/>
   </g>
   <g id="line2d_2">
    <path d="M 0 0 
" style="fill:none;stroke:#f5deb3;stroke-linecap:square;stroke-width:6;"/>
    <defs>
     <path d="M -0 7.778175 
L 7.778175 0 
L 0 -7.778175 
L -7.778175 -0 
z
" id="m7ba7c3d32c" style="stroke:#f5deb3;stroke-linejoin:miter;stroke-width:1.5;"/>
    </defs>
    <g>
     <use style="fill:#f5deb3;stroke:#f5deb3;stroke-linejoin:miter;stroke-width:1.5;" x="0" xlink:href="#m7ba7c3d32c" y="0"/>
    </g>
   </g>
   <g id="line2d_3">
    <path d="M 333.429677 27.513663 
L 363.933742 32.86099 
" style="fill:none;stroke:#f5deb3;stroke-linecap:square;stroke-width:6;"/>
    <g>
     <use style="fill:#f5deb3;stroke:#f5deb3;stroke-linejoin:miter;stroke-width:1.5;" x="333.429677" xlink:href="#m7ba7c3d32c" y="27.513663"/>
     <use style="fill:#f5deb3;stroke:#f5deb3;stroke-linejoin:miter;stroke-width:1.5;" x="363.933742" xlink:href="#m7ba7c3d32c" y="32.86099"/>
    </g>
   </g>
   <g id="matplotlib.axis_1">
    <g id="xtick_1">
     <g id="line2d_4">
      <path clip-path="url(#p8ba77a9459)" d="M 56.12 294.88 
L 56.12 24.84 
" style="fill:none;stroke:#b0b0b0;stroke-linecap:square;stroke-width:0.8;"/>
     </g>
     <g id="line2d_5">
      <defs>
       <path d="M 0 0 
L 0 3.5 
" id="m07dfa92c8e" style="stroke:#000000;stroke-width:0.8;"/>
      </defs>
      <g>
       <use style="stroke:#000000;stroke-width:0.8;" x="56.12" xlink:href="#m07dfa92c8e" y="294.88"/>
      </g>
     </g>
     <g id="text_1">
      <!-- 0 -->
      <defs>
       <path d="M 31.78125 66.40625 
Q 24.171875 66.40625 20.328125 58.90625 
Q 16.5 51.421875 16.5 36.375 
Q 16.5 21.390625 20.328125 13.890625 
Q 24.171875 6.390625 31.78125 6.390625 
Q 39.453125 6.390625 43.28125 13.890625 
Q 47.125 21.390625 47.125 36.375 
Q 47.125 51.421875 43.28125 58.90625 
Q 39.453125 66.40625 31.78125 66.40625 
z
M 31.78125 74.21875 
Q 44.046875 74.21875 50.515625 64.515625 
Q 56.984375 54.828125 56.984375 36.375 
Q 56.984375 17.96875 50.515625 8.265625 
Q 44.046875 -1.421875 31.78125 -1.421875 
Q 19.53125 -1.421875 13.0625 8.265625 
Q 6.59375 17.96875 6.59375 36.375 
Q 6.59375 54.828125 13.0625 64.515625 
Q 19.53125 74.21875 31.78125 74.21875 
z
" id="DejaVuSans-30"/>
      </defs>
      <g transform="translate(49.7575 317.076875)scale(0.2 -0.2)">
       <use xlink:href="#DejaVuSans-30"/>
      </g>
     </g>
    </g>
    <g id="xtick_2">
     <g id="line2d_6">
      <path clip-path="url(#p8ba77a9459)" d="M 135.351336 294.88 
L 135.351336 24.84 
" style="fill:none;stroke:#b0b0b0;stroke-linecap:square;stroke-width:0.8;"/>
     </g>
     <g id="line2d_7">
      <g>
       <use style="stroke:#000000;stroke-width:0.8;" x="135.351336" xlink:href="#m07dfa92c8e" y="294.88"/>
      </g>
     </g>
     <g id="text_2">
      <!-- 2 -->
      <defs>
       <path d="M 19.1875 8.296875 
L 53.609375 8.296875 
L 53.609375 0 
L 7.328125 0 
L 7.328125 8.296875 
Q 12.9375 14.109375 22.625 23.890625 
Q 32.328125 33.6875 34.8125 36.53125 
Q 39.546875 41.84375 41.421875 45.53125 
Q 43.3125 49.21875 43.3125 52.78125 
Q 43.3125 58.59375 39.234375 62.25 
Q 35.15625 65.921875 28.609375 65.921875 
Q 23.96875 65.921875 18.8125 64.3125 
Q 13.671875 62.703125 7.8125 59.421875 
L 7.8125 69.390625 
Q 13.765625 71.78125 18.9375 73 
Q 24.125 74.21875 28.421875 74.21875 
Q 39.75 74.21875 46.484375 68.546875 
Q 53.21875 62.890625 53.21875 53.421875 
Q 53.21875 48.921875 51.53125 44.890625 
Q 49.859375 40.875 45.40625 35.40625 
Q 44.1875 33.984375 37.640625 27.21875 
Q 31.109375 20.453125 19.1875 8.296875 
z
" id="DejaVuSans-32"/>
      </defs>
      <g transform="translate(128.988836 317.076875)scale(0.2 -0.2)">
       <use xlink:href="#DejaVuSans-32"/>
      </g>
     </g>
    </g>
    <g id="xtick_3">
     <g id="line2d_8">
      <path clip-path="url(#p8ba77a9459)" d="M 214.582673 294.88 
L 214.582673 24.84 
" style="fill:none;stroke:#b0b0b0;stroke-linecap:square;stroke-width:0.8;"/>
     </g>
     <g id="line2d_9">
      <g>
       <use style="stroke:#000000;stroke-width:0.8;" x="214.582673" xlink:href="#m07dfa92c8e" y="294.88"/>
      </g>
     </g>
     <g id="text_3">
      <!-- 4 -->
      <defs>
       <path d="M 37.796875 64.3125 
L 12.890625 25.390625 
L 37.796875 25.390625 
z
M 35.203125 72.90625 
L 47.609375 72.90625 
L 47.609375 25.390625 
L 58.015625 25.390625 
L 58.015625 17.1875 
L 47.609375 17.1875 
L 47.609375 0 
L 37.796875 0 
L 37.796875 17.1875 
L 4.890625 17.1875 
L 4.890625 26.703125 
z
" id="DejaVuSans-34"/>
      </defs>
      <g transform="translate(208.220173 317.076875)scale(0.2 -0.2)">
       <use xlink:href="#DejaVuSans-34"/>
      </g>
     </g>
    </g>
    <g id="xtick_4">
     <g id="line2d_10">
      <path clip-path="url(#p8ba77a9459)" d="M 293.814009 294.88 
L 293.814009 24.84 
" style="fill:none;stroke:#b0b0b0;stroke-linecap:square;stroke-width:0.8;"/>
     </g>
     <g id="line2d_11">
      <g>
       <use style="stroke:#000000;stroke-width:0.8;" x="293.814009" xlink:href="#m07dfa92c8e" y="294.88"/>
      </g>
     </g>
     <g id="text_4">
      <!-- 6 -->
      <defs>
       <path d="M 33.015625 40.375 
Q 26.375 40.375 22.484375 35.828125 
Q 18.609375 31.296875 18.609375 23.390625 
Q 18.609375 15.53125 22.484375 10.953125 
Q 26.375 6.390625 33.015625 6.390625 
Q 39.65625 6.390625 43.53125 10.953125 
Q 47.40625 15.53125 47.40625 23.390625 
Q 47.40625 31.296875 43.53125 35.828125 
Q 39.65625 40.375 33.015625 40.375 
z
M 52.59375 71.296875 
L 52.59375 62.3125 
Q 48.875 64.0625 45.09375 64.984375 
Q 41.3125 65.921875 37.59375 65.921875 
Q 27.828125 65.921875 22.671875 59.328125 
Q 17.53125 52.734375 16.796875 39.40625 
Q 19.671875 43.65625 24.015625 45.921875 
Q 28.375 48.1875 33.59375 48.1875 
Q 44.578125 48.1875 50.953125 41.515625 
Q 57.328125 34.859375 57.328125 23.390625 
Q 57.328125 12.15625 50.6875 5.359375 
Q 44.046875 -1.421875 33.015625 -1.421875 
Q 20.359375 -1.421875 13.671875 8.265625 
Q 6.984375 17.96875 6.984375 36.375 
Q 6.984375 53.65625 15.1875 63.9375 
Q 23.390625 74.21875 37.203125 74.21875 
Q 40.921875 74.21875 44.703125 73.484375 
Q 48.484375 72.75 52.59375 71.296875 
z
" id="DejaVuSans-36"/>
      </defs>
      <g transform="translate(287.451509 317.076875)scale(0.2 -0.2)">
       <use xlink:href="#DejaVuSans-36"/>
      </g>
     </g>
    </g>
    <g id="xtick_5">
     <g id="line2d_12">
      <path clip-path="url(#p8ba77a9459)" d="M 373.045346 294.88 
L 373.045346 24.84 
" style="fill:none;stroke:#b0b0b0;stroke-linecap:square;stroke-width:0.8;"/>
     </g>
     <g id="line2d_13">
      <g>
       <use style="stroke:#000000;stroke-width:0.8;" x="373.045346" xlink:href="#m07dfa92c8e" y="294.88"/>
      </g>
     </g>
     <g id="text_5">
      <!-- 8 -->
      <defs>
       <path d="M 31.78125 34.625 
Q 24.75 34.625 20.71875 30.859375 
Q 16.703125 27.09375 16.703125 20.515625 
Q 16.703125 13.921875 20.71875 10.15625 
Q 24.75 6.390625 31.78125 6.390625 
Q 38.8125 6.390625 42.859375 10.171875 
Q 46.921875 13.96875 46.921875 20.515625 
Q 46.921875 27.09375 42.890625 30.859375 
Q 38.875 34.625 31.78125 34.625 
z
M 21.921875 38.8125 
Q 15.578125 40.375 12.03125 44.71875 
Q 8.5 49.078125 8.5 55.328125 
Q 8.5 64.0625 14.71875 69.140625 
Q 20.953125 74.21875 31.78125 74.21875 
Q 42.671875 74.21875 48.875 69.140625 
Q 55.078125 64.0625 55.078125 55.328125 
Q 55.078125 49.078125 51.53125 44.71875 
Q 48 40.375 41.703125 38.8125 
Q 48.828125 37.15625 52.796875 32.3125 
Q 56.78125 27.484375 56.78125 20.515625 
Q 56.78125 9.90625 50.3125 4.234375 
Q 43.84375 -1.421875 31.78125 -1.421875 
Q 19.734375 -1.421875 13.25 4.234375 
Q 6.78125 9.90625 6.78125 20.515625 
Q 6.78125 27.484375 10.78125 32.3125 
Q 14.796875 37.15625 21.921875 38.8125 
z
M 18.3125 54.390625 
Q 18.3125 48.734375 21.84375 45.5625 
Q 25.390625 42.390625 31.78125 42.390625 
Q 38.140625 42.390625 41.71875 45.5625 
Q 45.3125 48.734375 45.3125 54.390625 
Q 45.3125 60.0625 41.71875 63.234375 
Q 38.140625 66.40625 31.78125 66.40625 
Q 25.390625 66.40625 21.84375 63.234375 
Q 18.3125 60.0625 18.3125 54.390625 
z
" id="DejaVuSans-38"/>
      </defs>
      <g transform="translate(366.682846 317.076875)scale(0.2 -0.2)">
       <use xlink:href="#DejaVuSans-38"/>
      </g>
     </g>
    </g>
    <g id="text_6">
     <!-- log10(# f-evals / dimension) -->
     <defs>
      <path d="M 9.421875 75.984375 
L 18.40625 75.984375 
L 18.40625 0 
L 9.421875 0 
z
" id="DejaVuSans-6c"/>
      <path d="M 30.609375 48.390625 
Q 23.390625 48.390625 19.1875 42.75 
Q 14.984375 37.109375 14.984375 27.296875 
Q 14.984375 17.484375 19.15625 11.84375 
Q 23.34375 6.203125 30.609375 6.203125 
Q 37.796875 6.203125 41.984375 11.859375 
Q 46.1875 17.53125 46.1875 27.296875 
Q 46.1875 37.015625 41.984375 42.703125 
Q 37.796875 48.390625 30.609375 48.390625 
z
M 30.609375 56 
Q 42.328125 56 49.015625 48.375 
Q 55.71875 40.765625 55.71875 27.296875 
Q 55.71875 13.875 49.015625 6.21875 
Q 42.328125 -1.421875 30.609375 -1.421875 
Q 18.84375 -1.421875 12.171875 6.21875 
Q 5.515625 13.875 5.515625 27.296875 
Q 5.515625 40.765625 12.171875 48.375 
Q 18.84375 56 30.609375 56 
z
" id="DejaVuSans-6f"/>
      <path d="M 45.40625 27.984375 
Q 45.40625 37.75 41.375 43.109375 
Q 37.359375 48.484375 30.078125 48.484375 
Q 22.859375 48.484375 18.828125 43.109375 
Q 14.796875 37.75 14.796875 27.984375 
Q 14.796875 18.265625 18.828125 12.890625 
Q 22.859375 7.515625 30.078125 7.515625 
Q 37.359375 7.515625 41.375 12.890625 
Q 45.40625 18.265625 45.40625 27.984375 
z
M 54.390625 6.78125 
Q 54.390625 -7.171875 48.1875 -13.984375 
Q 42 -20.796875 29.203125 -20.796875 
Q 24.46875 -20.796875 20.265625 -20.09375 
Q 16.0625 -19.390625 12.109375 -17.921875 
L 12.109375 -9.1875 
Q 16.0625 -11.328125 19.921875 -12.34375 
Q 23.78125 -13.375 27.78125 -13.375 
Q 36.625 -13.375 41.015625 -8.765625 
Q 45.40625 -4.15625 45.40625 5.171875 
L 45.40625 9.625 
Q 42.625 4.78125 38.28125 2.390625 
Q 33.9375 0 27.875 0 
Q 17.828125 0 11.671875 7.65625 
Q 5.515625 15.328125 5.515625 27.984375 
Q 5.515625 40.671875 11.671875 48.328125 
Q 17.828125 56 27.875 56 
Q 33.9375 56 38.28125 53.609375 
Q 42.625 51.21875 45.40625 46.390625 
L 45.40625 54.6875 
L 54.390625 54.6875 
z
" id="DejaVuSans-67"/>
      <path d="M 12.40625 8.296875 
L 28.515625 8.296875 
L 28.515625 63.921875 
L 10.984375 60.40625 
L 10.984375 69.390625 
L 28.421875 72.90625 
L 38.28125 72.90625 
L 38.28125 8.296875 
L 54.390625 8.296875 
L 54.390625 0 
L 12.40625 0 
z
" id="DejaVuSans-31"/>
      <path d="M 31 75.875 
Q 24.46875 64.65625 21.28125 53.65625 
Q 18.109375 42.671875 18.109375 31.390625 
Q 18.109375 20.125 21.3125 9.0625 
Q 24.515625 -2 31 -13.1875 
L 23.1875 -13.1875 
Q 15.875 -1.703125 12.234375 9.375 
Q 8.59375 20.453125 8.59375 31.390625 
Q 8.59375 42.28125 12.203125 53.3125 
Q 15.828125 64.359375 23.1875 75.875 
z
" id="DejaVuSans-28"/>
      <path d="M 51.125 44 
L 36.921875 44 
L 32.8125 27.6875 
L 47.125 27.6875 
z
M 43.796875 71.78125 
L 38.71875 51.515625 
L 52.984375 51.515625 
L 58.109375 71.78125 
L 65.921875 71.78125 
L 60.890625 51.515625 
L 76.125 51.515625 
L 76.125 44 
L 58.984375 44 
L 54.984375 27.6875 
L 70.515625 27.6875 
L 70.515625 20.21875 
L 53.078125 20.21875 
L 48 0 
L 40.1875 0 
L 45.21875 20.21875 
L 30.90625 20.21875 
L 25.875 0 
L 18.015625 0 
L 23.09375 20.21875 
L 7.71875 20.21875 
L 7.71875 27.6875 
L 24.90625 27.6875 
L 29 44 
L 13.28125 44 
L 13.28125 51.515625 
L 30.90625 51.515625 
L 35.890625 71.78125 
z
" id="DejaVuSans-23"/>
      <path id="DejaVuSans-20"/>
      <path d="M 37.109375 75.984375 
L 37.109375 68.5 
L 28.515625 68.5 
Q 23.6875 68.5 21.796875 66.546875 
Q 19.921875 64.59375 19.921875 59.515625 
L 19.921875 54.6875 
L 34.71875 54.6875 
L 34.71875 47.703125 
L 19.921875 47.703125 
L 19.921875 0 
L 10.890625 0 
L 10.890625 47.703125 
L 2.296875 47.703125 
L 2.296875 54.6875 
L 10.890625 54.6875 
L 10.890625 58.5 
Q 10.890625 67.625 15.140625 71.796875 
Q 19.390625 75.984375 28.609375 75.984375 
z
" id="DejaVuSans-66"/>
      <path d="M 4.890625 31.390625 
L 31.203125 31.390625 
L 31.203125 23.390625 
L 4.890625 23.390625 
z
" id="DejaVuSans-2d"/>
      <path d="M 56.203125 29.59375 
L 56.203125 25.203125 
L 14.890625 25.203125 
Q 15.484375 15.921875 20.484375 11.0625 
Q 25.484375 6.203125 34.421875 6.203125 
Q 39.59375 6.203125 44.453125 7.46875 
Q 49.3125 8.734375 54.109375 11.28125 
L 54.109375 2.78125 
Q 49.265625 0.734375 44.1875 -0.34375 
Q 39.109375 -1.421875 33.890625 -1.421875 
Q 20.796875 -1.421875 13.15625 6.1875 
Q 5.515625 13.8125 5.515625 26.8125 
Q 5.515625 40.234375 12.765625 48.109375 
Q 20.015625 56 32.328125 56 
Q 43.359375 56 49.78125 48.890625 
Q 56.203125 41.796875 56.203125 29.59375 
z
M 47.21875 32.234375 
Q 47.125 39.59375 43.09375 43.984375 
Q 39.0625 48.390625 32.421875 48.390625 
Q 24.90625 48.390625 20.390625 44.140625 
Q 15.875 39.890625 15.1875 32.171875 
z
" id="DejaVuSans-65"/>
      <path d="M 2.984375 54.6875 
L 12.5 54.6875 
L 29.59375 8.796875 
L 46.6875 54.6875 
L 56.203125 54.6875 
L 35.6875 0 
L 23.484375 0 
z
" id="DejaVuSans-76"/>
      <path d="M 34.28125 27.484375 
Q 23.390625 27.484375 19.1875 25 
Q 14.984375 22.515625 14.984375 16.5 
Q 14.984375 11.71875 18.140625 8.90625 
Q 21.296875 6.109375 26.703125 6.109375 
Q 34.1875 6.109375 38.703125 11.40625 
Q 43.21875 16.703125 43.21875 25.484375 
L 43.21875 27.484375 
z
M 52.203125 31.203125 
L 52.203125 0 
L 43.21875 0 
L 43.21875 8.296875 
Q 40.140625 3.328125 35.546875 0.953125 
Q 30.953125 -1.421875 24.3125 -1.421875 
Q 15.921875 -1.421875 10.953125 3.296875 
Q 6 8.015625 6 15.921875 
Q 6 25.140625 12.171875 29.828125 
Q 18.359375 34.515625 30.609375 34.515625 
L 43.21875 34.515625 
L 43.21875 35.40625 
Q 43.21875 41.609375 39.140625 45 
Q 35.0625 48.390625 27.6875 48.390625 
Q 23 48.390625 18.546875 47.265625 
Q 14.109375 46.140625 10.015625 43.890625 
L 10.015625 52.203125 
Q 14.9375 54.109375 19.578125 55.046875 
Q 24.21875 56 28.609375 56 
Q 40.484375 56 46.34375 49.84375 
Q 52.203125 43.703125 52.203125 31.203125 
z
" id="DejaVuSans-61"/>
      <path d="M 44.28125 53.078125 
L 44.28125 44.578125 
Q 40.484375 46.53125 36.375 47.5 
Q 32.28125 48.484375 27.875 48.484375 
Q 21.1875 48.484375 17.84375 46.4375 
Q 14.5 44.390625 14.5 40.28125 
Q 14.5 37.15625 16.890625 35.375 
Q 19.28125 33.59375 26.515625 31.984375 
L 29.59375 31.296875 
Q 39.15625 29.25 43.1875 25.515625 
Q 47.21875 21.78125 47.21875 15.09375 
Q 47.21875 7.46875 41.1875 3.015625 
Q 35.15625 -1.421875 24.609375 -1.421875 
Q 20.21875 -1.421875 15.453125 -0.5625 
Q 10.6875 0.296875 5.421875 2 
L 5.421875 11.28125 
Q 10.40625 8.6875 15.234375 7.390625 
Q 20.0625 6.109375 24.8125 6.109375 
Q 31.15625 6.109375 34.5625 8.28125 
Q 37.984375 10.453125 37.984375 14.40625 
Q 37.984375 18.0625 35.515625 20.015625 
Q 33.0625 21.96875 24.703125 23.78125 
L 21.578125 24.515625 
Q 13.234375 26.265625 9.515625 29.90625 
Q 5.8125 33.546875 5.8125 39.890625 
Q 5.8125 47.609375 11.28125 51.796875 
Q 16.75 56 26.8125 56 
Q 31.78125 56 36.171875 55.265625 
Q 40.578125 54.546875 44.28125 53.078125 
z
" id="DejaVuSans-73"/>
      <path d="M 25.390625 72.90625 
L 33.6875 72.90625 
L 8.296875 -9.28125 
L 0 -9.28125 
z
" id="DejaVuSans-2f"/>
      <path d="M 45.40625 46.390625 
L 45.40625 75.984375 
L 54.390625 75.984375 
L 54.390625 0 
L 45.40625 0 
L 45.40625 8.203125 
Q 42.578125 3.328125 38.25 0.953125 
Q 33.9375 -1.421875 27.875 -1.421875 
Q 17.96875 -1.421875 11.734375 6.484375 
Q 5.515625 14.40625 5.515625 27.296875 
Q 5.515625 40.1875 11.734375 48.09375 
Q 17.96875 56 27.875 56 
Q 33.9375 56 38.25 53.625 
Q 42.578125 51.265625 45.40625 46.390625 
z
M 14.796875 27.296875 
Q 14.796875 17.390625 18.875 11.75 
Q 22.953125 6.109375 30.078125 6.109375 
Q 37.203125 6.109375 41.296875 11.75 
Q 45.40625 17.390625 45.40625 27.296875 
Q 45.40625 37.203125 41.296875 42.84375 
Q 37.203125 48.484375 30.078125 48.484375 
Q 22.953125 48.484375 18.875 42.84375 
Q 14.796875 37.203125 14.796875 27.296875 
z
" id="DejaVuSans-64"/>
      <path d="M 9.421875 54.6875 
L 18.40625 54.6875 
L 18.40625 0 
L 9.421875 0 
z
M 9.421875 75.984375 
L 18.40625 75.984375 
L 18.40625 64.59375 
L 9.421875 64.59375 
z
" id="DejaVuSans-69"/>
      <path d="M 52 44.1875 
Q 55.375 50.25 60.0625 53.125 
Q 64.75 56 71.09375 56 
Q 79.640625 56 84.28125 50.015625 
Q 88.921875 44.046875 88.921875 33.015625 
L 88.921875 0 
L 79.890625 0 
L 79.890625 32.71875 
Q 79.890625 40.578125 77.09375 44.375 
Q 74.3125 48.1875 68.609375 48.1875 
Q 61.625 48.1875 57.5625 43.546875 
Q 53.515625 38.921875 53.515625 30.90625 
L 53.515625 0 
L 44.484375 0 
L 44.484375 32.71875 
Q 44.484375 40.625 41.703125 44.40625 
Q 38.921875 48.1875 33.109375 48.1875 
Q 26.21875 48.1875 22.15625 43.53125 
Q 18.109375 38.875 18.109375 30.90625 
L 18.109375 0 
L 9.078125 0 
L 9.078125 54.6875 
L 18.109375 54.6875 
L 18.109375 46.1875 
Q 21.1875 51.21875 25.484375 53.609375 
Q 29.78125 56 35.6875 56 
Q 41.65625 56 45.828125 52.96875 
Q 50 49.953125 52 44.1875 
z
" id="DejaVuSans-6d"/>
      <path d="M 54.890625 33.015625 
L 54.890625 0 
L 45.90625 0 
L 45.90625 32.71875 
Q 45.90625 40.484375 42.875 44.328125 
Q 39.84375 48.1875 33.796875 48.1875 
Q 26.515625 48.1875 22.3125 43.546875 
Q 18.109375 38.921875 18.109375 30.90625 
L 18.109375 0 
L 9.078125 0 
L 9.078125 54.6875 
L 18.109375 54.6875 
L 18.109375 46.1875 
Q 21.34375 51.125 25.703125 53.5625 
Q 30.078125 56 35.796875 56 
Q 45.21875 56 50.046875 50.171875 
Q 54.890625 44.34375 54.890625 33.015625 
z
" id="DejaVuSans-6e"/>
      <path d="M 8.015625 75.875 
L 15.828125 75.875 
Q 23.140625 64.359375 26.78125 53.3125 
Q 30.421875 42.28125 30.421875 31.390625 
Q 30.421875 20.453125 26.78125 9.375 
Q 23.140625 -1.703125 15.828125 -13.1875 
L 8.015625 -13.1875 
Q 14.5 -2 17.703125 9.0625 
Q 20.90625 20.125 20.90625 31.390625 
Q 20.90625 42.671875 17.703125 53.65625 
Q 14.5 64.65625 8.015625 75.875 
z
" id="DejaVuSans-29"/>
     </defs>
     <g transform="translate(107.211219 338.153594)scale(0.17 -0.17)">
      <use xlink:href="#DejaVuSans-6c"/>
      <use x="27.783203" xlink:href="#DejaVuSans-6f"/>
      <use x="88.964844" xlink:href="#DejaVuSans-67"/>
      <use x="152.441406" xlink:href="#DejaVuSans-31"/>
      <use x="216.064453" xlink:href="#DejaVuSans-30"/>
      <use x="279.6875" xlink:href="#DejaVuSans-28"/>
      <use x="318.701172" xlink:href="#DejaVuSans-23"/>
      <use x="402.490234" xlink:href="#DejaVuSans-20"/>
      <use x="434.277344" xlink:href="#DejaVuSans-66"/>
      <use x="469.404297" xlink:href="#DejaVuSans-2d"/>
      <use x="505.488281" xlink:href="#DejaVuSans-65"/>
      <use x="567.011719" xlink:href="#DejaVuSans-76"/>
      <use x="626.191406" xlink:href="#DejaVuSans-61"/>
      <use x="687.470703" xlink:href="#DejaVuSans-6c"/>
      <use x="715.253906" xlink:href="#DejaVuSans-73"/>
      <use x="767.353516" xlink:href="#DejaVuSans-20"/>
      <use x="799.140625" xlink:href="#DejaVuSans-2f"/>
      <use x="832.832031" xlink:href="#DejaVuSans-20"/>
      <use x="864.619141" xlink:href="#DejaVuSans-64"/>
      <use x="928.095703" xlink:href="#DejaVuSans-69"/>
      <use x="955.878906" xlink:href="#DejaVuSans-6d"/>
      <use x="1053.291016" xlink:href="#DejaVuSans-65"/>
      <use x="1114.814453" xlink:href="#DejaVuSans-6e"/>
      <use x="1178.193359" xlink:href="#DejaVuSans-73"/>
      <use x="1230.292969" xlink:href="#DejaVuSans-69"/>
      <use x="1258.076172" xlink:href="#DejaVuSans-6f"/>
      <use x="1319.257812" xlink:href="#DejaVuSans-6e"/>
      <use x="1382.636719" xlink:href="#DejaVuSans-29"/>
     </g>
    </g>
   </g>
   <g id="matplotlib.axis_2">
    <g id="ytick_1">
     <g id="line2d_14">
      <path clip-path="url(#p8ba77a9459)" d="M 56.12 294.88 
L 399.984 294.88 
" style="fill:none;stroke:#b0b0b0;stroke-linecap:square;stroke-width:0.8;"/>
     </g>
     <g id="line2d_15">
      <defs>
       <path d="M 0 0 
L -3.5 0 
" id="m7e95acad78" style="stroke:#000000;stroke-width:0.8;"/>
      </defs>
      <g>
       <use style="stroke:#000000;stroke-width:0.8;" x="56.12" xlink:href="#m7e95acad78" y="294.88"/>
      </g>
     </g>
     <g id="text_7">
      <!-- 0.0 -->
      <defs>
       <path d="M 10.6875 12.40625 
L 21 12.40625 
L 21 0 
L 10.6875 0 
z
" id="DejaVuSans-2e"/>
      </defs>
      <g transform="translate(23.675 300.95875)scale(0.16 -0.16)">
       <use xlink:href="#DejaVuSans-30"/>
       <use x="63.623047" xlink:href="#DejaVuSans-2e"/>
       <use x="95.410156" xlink:href="#DejaVuSans-30"/>
      </g>
     </g>
    </g>
    <g id="ytick_2">
     <g id="line2d_16">
      <path clip-path="url(#p8ba77a9459)" d="M 56.12 241.406733 
L 399.984 241.406733 
" style="fill:none;stroke:#b0b0b0;stroke-linecap:square;stroke-width:0.8;"/>
     </g>
     <g id="line2d_17">
      <g>
       <use style="stroke:#000000;stroke-width:0.8;" x="56.12" xlink:href="#m7e95acad78" y="241.406733"/>
      </g>
     </g>
     <g id="text_8">
      <!-- 0.2 -->
      <g transform="translate(23.675 247.485483)scale(0.16 -0.16)">
       <use xlink:href="#DejaVuSans-30"/>
       <use x="63.623047" xlink:href="#DejaVuSans-2e"/>
       <use x="95.410156" xlink:href="#DejaVuSans-32"/>
      </g>
     </g>
    </g>
    <g id="ytick_3">
     <g id="line2d_18">
      <path clip-path="url(#p8ba77a9459)" d="M 56.12 187.933465 
L 399.984 187.933465 
" style="fill:none;stroke:#b0b0b0;stroke-linecap:square;stroke-width:0.8;"/>
     </g>
     <g id="line2d_19">
      <g>
       <use style="stroke:#000000;stroke-width:0.8;" x="56.12" xlink:href="#m7e95acad78" y="187.933465"/>
      </g>
     </g>
     <g id="text_9">
      <!-- 0.4 -->
      <g transform="translate(23.675 194.012215)scale(0.16 -0.16)">
       <use xlink:href="#DejaVuSans-30"/>
       <use x="63.623047" xlink:href="#DejaVuSans-2e"/>
       <use x="95.410156" xlink:href="#DejaVuSans-34"/>
      </g>
     </g>
    </g>
    <g id="ytick_4">
     <g id="line2d_20">
      <path clip-path="url(#p8ba77a9459)" d="M 56.12 134.460198 
L 399.984 134.460198 
" style="fill:none;stroke:#b0b0b0;stroke-linecap:square;stroke-width:0.8;"/>
     </g>
     <g id="line2d_21">
      <g>
       <use style="stroke:#000000;stroke-width:0.8;" x="56.12" xlink:href="#m7e95acad78" y="134.460198"/>
      </g>
     </g>
     <g id="text_10">
      <!-- 0.6 -->
      <g transform="translate(23.675 140.538948)scale(0.16 -0.16)">
       <use xlink:href="#DejaVuSans-30"/>
       <use x="63.623047" xlink:href="#DejaVuSans-2e"/>
       <use x="95.410156" xlink:href="#DejaVuSans-36"/>
      </g>
     </g>
    </g>
    <g id="ytick_5">
     <g id="line2d_22">
      <path clip-path="url(#p8ba77a9459)" d="M 56.12 80.986931 
L 399.984 80.986931 
" style="fill:none;stroke:#b0b0b0;stroke-linecap:square;stroke-width:0.8;"/>
     </g>
     <g id="line2d_23">
      <g>
       <use style="stroke:#000000;stroke-width:0.8;" x="56.12" xlink:href="#m7e95acad78" y="80.986931"/>
      </g>
     </g>
     <g id="text_11">
      <!-- 0.8 -->
      <g transform="translate(23.675 87.065681)scale(0.16 -0.16)">
       <use xlink:href="#DejaVuSans-30"/>
       <use x="63.623047" xlink:href="#DejaVuSans-2e"/>
       <use x="95.410156" xlink:href="#DejaVuSans-38"/>
      </g>
     </g>
    </g>
    <g id="ytick_6">
     <g id="line2d_24">
      <path clip-path="url(#p8ba77a9459)" d="M 56.12 27.513663 
L 399.984 27.513663 
" style="fill:none;stroke:#b0b0b0;stroke-linecap:square;stroke-width:0.8;"/>
     </g>
     <g id="line2d_25">
      <g>
       <use style="stroke:#000000;stroke-width:0.8;" x="56.12" xlink:href="#m7e95acad78" y="27.513663"/>
      </g>
     </g>
     <g id="text_12">
      <!-- 1.0 -->
      <g transform="translate(23.675 33.592413)scale(0.16 -0.16)">
       <use xlink:href="#DejaVuSans-31"/>
       <use x="63.623047" xlink:href="#DejaVuSans-2e"/>
       <use x="95.410156" xlink:href="#DejaVuSans-30"/>
      </g>
     </g>
    </g>
    <g id="text_13">
     <!-- Fraction of function,target pairs -->
     <defs>
      <path d="M 9.8125 72.90625 
L 51.703125 72.90625 
L 51.703125 64.59375 
L 19.671875 64.59375 
L 19.671875 43.109375 
L 48.578125 43.109375 
L 48.578125 34.8125 
L 19.671875 34.8125 
L 19.671875 0 
L 9.8125 0 
z
" id="DejaVuSans-46"/>
      <path d="M 41.109375 46.296875 
Q 39.59375 47.171875 37.8125 47.578125 
Q 36.03125 48 33.890625 48 
Q 26.265625 48 22.1875 43.046875 
Q 18.109375 38.09375 18.109375 28.8125 
L 18.109375 0 
L 9.078125 0 
L 9.078125 54.6875 
L 18.109375 54.6875 
L 18.109375 46.1875 
Q 20.953125 51.171875 25.484375 53.578125 
Q 30.03125 56 36.53125 56 
Q 37.453125 56 38.578125 55.875 
Q 39.703125 55.765625 41.0625 55.515625 
z
" id="DejaVuSans-72"/>
      <path d="M 48.78125 52.59375 
L 48.78125 44.1875 
Q 44.96875 46.296875 41.140625 47.34375 
Q 37.3125 48.390625 33.40625 48.390625 
Q 24.65625 48.390625 19.8125 42.84375 
Q 14.984375 37.3125 14.984375 27.296875 
Q 14.984375 17.28125 19.8125 11.734375 
Q 24.65625 6.203125 33.40625 6.203125 
Q 37.3125 6.203125 41.140625 7.25 
Q 44.96875 8.296875 48.78125 10.40625 
L 48.78125 2.09375 
Q 45.015625 0.34375 40.984375 -0.53125 
Q 36.96875 -1.421875 32.421875 -1.421875 
Q 20.0625 -1.421875 12.78125 6.34375 
Q 5.515625 14.109375 5.515625 27.296875 
Q 5.515625 40.671875 12.859375 48.328125 
Q 20.21875 56 33.015625 56 
Q 37.15625 56 41.109375 55.140625 
Q 45.0625 54.296875 48.78125 52.59375 
z
" id="DejaVuSans-63"/>
      <path d="M 18.3125 70.21875 
L 18.3125 54.6875 
L 36.8125 54.6875 
L 36.8125 47.703125 
L 18.3125 47.703125 
L 18.3125 18.015625 
Q 18.3125 11.328125 20.140625 9.421875 
Q 21.96875 7.515625 27.59375 7.515625 
L 36.8125 7.515625 
L 36.8125 0 
L 27.59375 0 
Q 17.1875 0 13.234375 3.875 
Q 9.28125 7.765625 9.28125 18.015625 
L 9.28125 47.703125 
L 2.6875 47.703125 
L 2.6875 54.6875 
L 9.28125 54.6875 
L 9.28125 70.21875 
z
" id="DejaVuSans-74"/>
      <path d="M 8.5 21.578125 
L 8.5 54.6875 
L 17.484375 54.6875 
L 17.484375 21.921875 
Q 17.484375 14.15625 20.5 10.265625 
Q 23.53125 6.390625 29.59375 6.390625 
Q 36.859375 6.390625 41.078125 11.03125 
Q 45.3125 15.671875 45.3125 23.6875 
L 45.3125 54.6875 
L 54.296875 54.6875 
L 54.296875 0 
L 45.3125 0 
L 45.3125 8.40625 
Q 42.046875 3.421875 37.71875 1 
Q 33.40625 -1.421875 27.6875 -1.421875 
Q 18.265625 -1.421875 13.375 4.4375 
Q 8.5 10.296875 8.5 21.578125 
z
M 31.109375 56 
z
" id="DejaVuSans-75"/>
      <path d="M 11.71875 12.40625 
L 22.015625 12.40625 
L 22.015625 4 
L 14.015625 -11.625 
L 7.71875 -11.625 
L 11.71875 4 
z
" id="DejaVuSans-2c"/>
      <path d="M 18.109375 8.203125 
L 18.109375 -20.796875 
L 9.078125 -20.796875 
L 9.078125 54.6875 
L 18.109375 54.6875 
L 18.109375 46.390625 
Q 20.953125 51.265625 25.265625 53.625 
Q 29.59375 56 35.59375 56 
Q 45.5625 56 51.78125 48.09375 
Q 58.015625 40.1875 58.015625 27.296875 
Q 58.015625 14.40625 51.78125 6.484375 
Q 45.5625 -1.421875 35.59375 -1.421875 
Q 29.59375 -1.421875 25.265625 0.953125 
Q 20.953125 3.328125 18.109375 8.203125 
z
M 48.6875 27.296875 
Q 48.6875 37.203125 44.609375 42.84375 
Q 40.53125 48.484375 33.40625 48.484375 
Q 26.265625 48.484375 22.1875 42.84375 
Q 18.109375 37.203125 18.109375 27.296875 
Q 18.109375 17.390625 22.1875 11.75 
Q 26.265625 6.109375 33.40625 6.109375 
Q 40.53125 6.109375 44.609375 11.75 
Q 48.6875 17.390625 48.6875 27.296875 
z
" id="DejaVuSans-70"/>
     </defs>
     <g transform="translate(16.139531 294.999375)rotate(-90)scale(0.17 -0.17)">
      <use xlink:href="#DejaVuSans-46"/>
      <use x="57.410156" xlink:href="#DejaVuSans-72"/>
      <use x="98.523438" xlink:href="#DejaVuSans-61"/>
      <use x="159.802734" xlink:href="#DejaVuSans-63"/>
      <use x="214.783203" xlink:href="#DejaVuSans-74"/>
      <use x="253.992188" xlink:href="#DejaVuSans-69"/>
      <use x="281.775391" xlink:href="#DejaVuSans-6f"/>
      <use x="342.957031" xlink:href="#DejaVuSans-6e"/>
      <use x="406.335938" xlink:href="#DejaVuSans-20"/>
      <use x="438.123047" xlink:href="#DejaVuSans-6f"/>
      <use x="499.304688" xlink:href="#DejaVuSans-66"/>
      <use x="534.509766" xlink:href="#DejaVuSans-20"/>
      <use x="566.296875" xlink:href="#DejaVuSans-66"/>
      <use x="601.501953" xlink:href="#DejaVuSans-75"/>
      <use x="664.880859" xlink:href="#DejaVuSans-6e"/>
      <use x="728.259766" xlink:href="#DejaVuSans-63"/>
      <use x="783.240234" xlink:href="#DejaVuSans-74"/>
      <use x="822.449219" xlink:href="#DejaVuSans-69"/>
      <use x="850.232422" xlink:href="#DejaVuSans-6f"/>
      <use x="911.414062" xlink:href="#DejaVuSans-6e"/>
      <use x="974.792969" xlink:href="#DejaVuSans-2c"/>
      <use x="1006.580078" xlink:href="#DejaVuSans-74"/>
      <use x="1045.789062" xlink:href="#DejaVuSans-61"/>
      <use x="1107.068359" xlink:href="#DejaVuSans-72"/>
      <use x="1148.166016" xlink:href="#DejaVuSans-67"/>
      <use x="1211.642578" xlink:href="#DejaVuSans-65"/>
      <use x="1273.166016" xlink:href="#DejaVuSans-74"/>
      <use x="1312.375" xlink:href="#DejaVuSans-20"/>
      <use x="1344.162109" xlink:href="#DejaVuSans-70"/>
      <use x="1407.638672" xlink:href="#DejaVuSans-61"/>
      <use x="1468.917969" xlink:href="#DejaVuSans-69"/>
      <use x="1496.701172" xlink:href="#DejaVuSans-72"/>
      <use x="1537.814453" xlink:href="#DejaVuSans-73"/>
     </g>
    </g>
   </g>
   <g id="line2d_26">
    <defs>
     <path d="M 0 1.5 
C 0.397805 1.5 0.77937 1.341951 1.06066 1.06066 
C 1.341951 0.77937 1.5 0.397805 1.5 0 
C 1.5 -0.397805 1.341951 -0.77937 1.06066 -1.06066 
C 0.77937 -1.341951 0.397805 -1.5 0 -1.5 
C -0.397805 -1.5 -0.77937 -1.341951 -1.06066 -1.06066 
C -1.341951 -0.77937 -1.5 -0.397805 -1.5 0 
C -1.5 0.397805 -1.341951 0.77937 -1.06066 1.06066 
C -0.77937 1.341951 -0.397805 1.5 0 1.5 
z
" id="m31d0185b6b" style="stroke:#f5deb3;"/>
    </defs>
    <g>
     <use style="fill:#f5deb3;stroke:#f5deb3;" x="106.778678" xlink:href="#m31d0185b6b" y="27.513663"/>
     <use style="fill:#f5deb3;stroke:#f5deb3;" x="106.778678" xlink:href="#m31d0185b6b" y="27.513663"/>
    </g>
   </g>
   <g id="line2d_27">
    <g>
     <use style="fill:#f5deb3;stroke:#f5deb3;stroke-linejoin:miter;stroke-width:1.5;" x="105.656224" xlink:href="#m7ba7c3d32c" y="174.303025"/>
     <use style="fill:#f5deb3;stroke:#f5deb3;stroke-linejoin:miter;stroke-width:1.5;" x="106.596615" xlink:href="#m7ba7c3d32c" y="64.211004"/>
     <use style="fill:#f5deb3;stroke:#f5deb3;stroke-linejoin:miter;stroke-width:1.5;" x="106.778678" xlink:href="#m7ba7c3d32c" y="27.513663"/>
     <use style="fill:#f5deb3;stroke:#f5deb3;stroke-linejoin:miter;stroke-width:1.5;" x="106.778678" xlink:href="#m7ba7c3d32c" y="27.513663"/>
     <use style="fill:#f5deb3;stroke:#f5deb3;stroke-linejoin:miter;stroke-width:1.5;" x="333.429677" xlink:href="#m7ba7c3d32c" y="27.513663"/>
    </g>
   </g>
   <g id="line2d_28">
    <defs>
     <path d="M 0 1.5 
C 0.397805 1.5 0.77937 1.341951 1.06066 1.06066 
C 1.341951 0.77937 1.5 0.397805 1.5 0 
C 1.5 -0.397805 1.341951 -0.77937 1.06066 -1.06066 
C 0.77937 -1.341951 0.397805 -1.5 0 -1.5 
C -0.397805 -1.5 -0.77937 -1.341951 -1.06066 -1.06066 
C -1.341951 -0.77937 -1.5 -0.397805 -1.5 0 
C -1.5 0.397805 -1.341951 0.77937 -1.06066 1.06066 
C -0.77937 1.341951 -0.397805 1.5 0 1.5 
z
" id="md7301a00e4" style="stroke:#000080;"/>
    </defs>
    <g>
     <use style="fill:#000080;stroke:#000080;" x="218.727139" xlink:href="#md7301a00e4" y="27.513663"/>
     <use style="fill:#000080;stroke:#000080;" x="218.727139" xlink:href="#md7301a00e4" y="27.513663"/>
    </g>
   </g>
   <g id="line2d_29">
    <path d="M 104.035746 294.88 
L 104.035746 293.307257 
L 109.456673 293.307257 
L 109.456673 292.258761 
L 110.508826 292.258761 
L 110.508826 290.686018 
L 111.082375 290.686018 
L 111.082375 289.637523 
L 111.773426 289.637523 
L 111.773426 289.113275 
L 112.175115 289.113275 
L 112.175115 288.589027 
L 114.977847 288.589027 
L 114.977847 288.06478 
L 116.172355 288.06478 
L 116.172355 287.016284 
L 116.689057 287.016284 
L 116.689057 286.492036 
L 119.239092 286.492036 
L 119.239092 285.967789 
L 119.413762 285.967789 
L 119.500437 283.870798 
L 120.589186 283.870798 
L 120.589186 283.34655 
L 122.140223 283.34655 
L 122.140223 282.822302 
L 124.686096 282.822302 
L 124.686096 281.249559 
L 126.156445 281.249559 
L 126.156445 280.201064 
L 126.389735 280.201064 
L 126.447567 279.152568 
L 126.790532 279.152568 
L 126.790532 278.628321 
L 127.126794 278.628321 
L 127.126794 278.104073 
L 127.292493 278.104073 
L 127.347373 276.007082 
L 127.51097 276.007082 
L 127.619177 274.958587 
L 127.939774 274.958587 
L 127.939774 274.434339 
L 128.202449 274.434339 
L 128.202449 273.910091 
L 128.35815 273.910091 
L 128.461173 272.861596 
L 128.614561 272.861596 
L 128.614561 271.8131 
L 129.842248 271.8131 
L 129.842248 271.288853 
L 130.674904 271.288853 
L 130.674904 270.764605 
L 130.854591 270.764605 
L 130.854591 269.716109 
L 132.228277 269.716109 
L 132.228277 268.667614 
L 132.955351 268.667614 
L 132.955351 268.143366 
L 133.112834 268.143366 
L 133.112834 267.619119 
L 133.346388 267.619119 
L 133.346388 266.570623 
L 133.8418 266.570623 
L 133.8418 266.046375 
L 134.176608 266.046375 
L 134.176608 265.522128 
L 134.396248 265.522128 
L 134.396248 264.99788 
L 135.143629 264.99788 
L 135.143629 264.473632 
L 135.759376 264.473632 
L 135.759376 263.425137 
L 136.059178 263.425137 
L 136.059178 262.376641 
L 136.386277 262.376641 
L 136.386277 261.852394 
L 136.897034 261.852394 
L 136.897034 260.279651 
L 137.115809 260.279651 
L 137.115809 259.755403 
L 138.19899 259.755403 
L 138.19899 259.231155 
L 138.716037 259.231155 
L 138.716037 258.18266 
L 138.99671 258.18266 
L 138.99671 257.134164 
L 139.190491 257.134164 
L 139.272877 256.085669 
L 139.517694 256.085669 
L 139.517694 254.512926 
L 139.785688 254.512926 
L 139.785688 253.988678 
L 140.18001 253.988678 
L 140.18001 253.46443 
L 140.335243 253.46443 
L 140.335243 252.940182 
L 140.89274 252.940182 
L 140.89274 251.367439 
L 141.791434 251.367439 
L 141.791434 250.318944 
L 144.541341 250.318944 
L 144.541341 249.270448 
L 144.920362 249.270448 
L 144.920362 248.746201 
L 145.097025 248.746201 
L 145.097025 247.697705 
L 145.767305 247.697705 
L 145.767305 247.173458 
L 146.321752 247.173458 
L 146.321752 246.124962 
L 146.805923 246.124962 
L 146.894108 242.455228 
L 147.701674 242.455228 
L 147.701674 241.93098 
L 148.050602 241.93098 
L 148.050602 241.406733 
L 148.165356 241.406733 
L 148.165356 240.882485 
L 148.632777 240.882485 
L 148.632777 239.83399 
L 149.696381 239.83399 
L 149.696381 239.309742 
L 150.485197 239.309742 
L 150.485197 238.785494 
L 151.883176 238.785494 
L 151.883176 238.261246 
L 152.053458 238.261246 
L 152.053458 237.736999 
L 152.655401 237.736999 
L 152.755795 236.164255 
L 152.905295 236.164255 
L 152.905295 235.640008 
L 153.212642 235.640008 
L 153.212642 234.591512 
L 155.135881 234.591512 
L 155.135881 234.067265 
L 155.309341 234.067265 
L 155.309341 233.543017 
L 155.449 233.543017 
L 155.449 233.018769 
L 156.557371 233.018769 
L 156.557371 231.970274 
L 157.475442 231.970274 
L 157.475442 231.446026 
L 159.3309 231.446026 
L 159.424567 229.873283 
L 159.694189 229.873283 
L 159.694189 229.349035 
L 160.221077 229.349035 
L 160.293894 228.30054 
L 160.621768 228.30054 
L 160.621768 227.776292 
L 161.159829 227.776292 
L 161.159829 227.252044 
L 161.297469 227.252044 
L 161.312694 225.679301 
L 161.50941 225.679301 
L 161.524449 223.58231 
L 161.89622 223.58231 
L 161.89622 223.058063 
L 162.122747 223.058063 
L 162.122747 222.533815 
L 162.32482 222.533815 
L 162.34633 220.961072 
L 163.075876 220.961072 
L 163.185417 219.912576 
L 163.848126 219.912576 
L 163.848126 218.864081 
L 164.218417 218.864081 
L 164.327329 217.291338 
L 164.543107 217.291338 
L 164.64372 215.718594 
L 164.830799 215.718594 
L 164.830799 214.145851 
L 164.972861 214.145851 
L 164.972861 213.621604 
L 165.144238 213.621604 
L 165.174662 211.000365 
L 165.332007 211.000365 
L 165.33803 209.95187 
L 165.701505 209.95187 
L 165.701505 208.903374 
L 165.993814 208.903374 
L 166.086313 207.330631 
L 166.473981 207.330631 
L 166.473981 206.806383 
L 166.647854 206.806383 
L 166.647854 206.282136 
L 167.12121 206.282136 
L 167.213258 204.709392 
L 167.465211 204.709392 
L 167.465211 204.185145 
L 168.169038 204.185145 
L 168.169038 203.660897 
L 168.281056 203.660897 
L 168.341851 201.563906 
L 168.562944 201.563906 
L 168.60782 199.991163 
L 168.800941 199.991163 
L 168.805864 198.942667 
L 169.576001 198.942667 
L 169.674569 197.894172 
L 170.985321 197.894172 
L 170.985321 197.369924 
L 171.417874 197.369924 
L 171.502253 196.321429 
L 171.678114 196.321429 
L 171.678114 195.797181 
L 171.971374 195.797181 
L 171.971374 194.748686 
L 172.174936 194.748686 
L 172.247633 192.127447 
L 172.372117 192.127447 
L 172.372117 191.603199 
L 172.586833 191.603199 
L 172.586833 190.030456 
L 172.732421 190.030456 
L 172.841782 188.981961 
L 172.892322 188.981961 
L 172.892322 187.933465 
L 173.085334 187.933465 
L 173.085334 187.409218 
L 173.295175 187.409218 
L 173.295175 186.88497 
L 173.453711 186.88497 
L 173.453711 186.360722 
L 173.566064 186.360722 
L 173.566064 185.312227 
L 173.829078 185.312227 
L 173.829078 184.263731 
L 174.008278 184.263731 
L 174.008278 183.739484 
L 174.435862 183.739484 
L 174.478395 180.593997 
L 174.724435 180.593997 
L 174.724435 180.06975 
L 174.904955 180.06975 
L 174.925663 178.497006 
L 175.175634 178.497006 
L 175.175634 177.972759 
L 175.36496 177.972759 
L 175.405261 175.875768 
L 175.6451 175.875768 
L 175.727602 174.303025 
L 175.803155 174.303025 
L 175.910982 172.206034 
L 175.979249 172.206034 
L 176.02461 171.157538 
L 176.188851 171.157538 
L 176.188851 170.633291 
L 176.578627 170.633291 
L 176.578627 170.109043 
L 177.335647 170.109043 
L 177.389534 168.5363 
L 177.505713 168.5363 
L 177.573863 165.390813 
L 177.62701 165.390813 
L 177.62701 164.866566 
L 177.750385 164.866566 
L 177.817574 162.245327 
L 177.867068 162.245327 
L 177.867068 161.196832 
L 178.103823 161.196832 
L 178.103823 160.148336 
L 178.447335 160.148336 
L 178.511862 159.099841 
L 178.67629 159.099841 
L 178.786879 157.00285 
L 179.281275 157.00285 
L 179.313378 154.905859 
L 179.483593 154.905859 
L 179.483593 154.381611 
L 179.76967 154.381611 
L 179.876057 152.28462 
L 179.914816 152.28462 
L 179.914816 151.760373 
L 180.03057 151.760373 
L 180.063865 150.18763 
L 180.460967 150.18763 
L 180.460967 149.663382 
L 180.649951 149.663382 
L 180.738751 148.090639 
L 180.966051 148.090639 
L 181.070139 144.945152 
L 181.209548 144.945152 
L 181.259746 143.896657 
L 181.340711 143.896657 
L 181.340711 143.372409 
L 181.477953 143.372409 
L 181.548513 141.799666 
L 181.716686 141.799666 
L 181.716686 141.275418 
L 181.8625 141.275418 
L 181.8625 140.226923 
L 182.064131 140.226923 
L 182.064131 139.702675 
L 182.200264 139.702675 
L 182.306154 138.129932 
L 182.339812 138.129932 
L 182.362215 136.557189 
L 182.679415 136.557189 
L 182.679415 136.032941 
L 182.817326 136.032941 
L 182.830403 134.460198 
L 182.951977 134.460198 
L 182.951977 133.93595 
L 183.258584 133.93595 
L 183.349721 130.790464 
L 183.438276 130.790464 
L 183.538926 128.693473 
L 183.721936 128.693473 
L 183.721936 128.169225 
L 183.905067 128.169225 
L 183.905067 127.644978 
L 184.057892 127.644978 
L 184.110555 125.023739 
L 184.20736 125.023739 
L 184.315617 122.4025 
L 184.407302 122.4025 
L 184.486633 119.781262 
L 184.759498 119.781262 
L 184.759498 118.732766 
L 184.883694 118.732766 
L 184.985869 115.58728 
L 184.995477 115.58728 
L 184.995477 115.063032 
L 185.271797 115.063032 
L 185.36982 112.441794 
L 185.407373 112.441794 
L 185.407373 110.869051 
L 185.532581 110.869051 
L 185.630985 108.77206 
L 185.673514 108.77206 
L 185.738031 106.675069 
L 185.820628 106.675069 
L 185.901008 105.102326 
L 185.93742 105.102326 
L 185.93742 104.578078 
L 186.284896 104.578078 
L 186.284896 104.05383 
L 186.660405 104.05383 
L 186.7387 100.384096 
L 186.7907 100.384096 
L 186.7907 99.859849 
L 186.902829 99.859849 
L 186.990298 98.287105 
L 187.038132 98.287105 
L 187.114731 93.044628 
L 187.165608 93.044628 
L 187.165608 92.520381 
L 187.319021 92.520381 
L 187.319021 91.471885 
L 187.476067 91.471885 
L 187.476067 90.42339 
L 187.63499 90.42339 
L 187.63499 89.374894 
L 187.815301 89.374894 
L 187.815301 88.850646 
L 187.935548 88.850646 
L 187.95335 87.802151 
L 188.136776 87.802151 
L 188.234128 86.753656 
L 188.265927 86.753656 
L 188.357813 85.180912 
L 188.403573 85.180912 
L 188.4083 84.132417 
L 188.593199 84.132417 
L 188.691109 83.083922 
L 189.008945 83.083922 
L 189.008945 82.559674 
L 189.234144 82.559674 
L 189.273141 78.88994 
L 189.358325 78.88994 
L 189.358325 77.841444 
L 189.503802 77.841444 
L 189.503802 77.317197 
L 189.789665 77.317197 
L 189.789665 76.792949 
L 190.152189 76.792949 
L 190.152189 76.268701 
L 190.292545 76.268701 
L 190.389696 73.647463 
L 190.428964 73.647463 
L 190.428964 73.123215 
L 190.65856 73.123215 
L 190.65856 72.598967 
L 190.870121 72.598967 
L 190.961357 70.501976 
L 191.030483 70.501976 
L 191.031836 67.880738 
L 191.147767 67.880738 
L 191.147767 67.35649 
L 191.563225 67.35649 
L 191.575024 64.735251 
L 191.745855 64.735251 
L 191.844191 62.638261 
L 191.877704 62.638261 
L 191.938119 60.017022 
L 192.067234 60.017022 
L 192.167555 57.395783 
L 192.206762 57.395783 
L 192.206762 56.347288 
L 192.337646 56.347288 
L 192.337646 55.82304 
L 192.476249 55.82304 
L 192.529644 53.201802 
L 192.587817 53.201802 
L 192.674094 52.153306 
L 192.810024 52.153306 
L 192.823436 51.104811 
L 192.958196 51.104811 
L 192.958196 49.00782 
L 193.188831 49.00782 
L 193.231733 47.435077 
L 193.311294 47.435077 
L 193.311294 46.910829 
L 193.575818 46.910829 
L 193.589812 45.338086 
L 193.718723 45.338086 
L 193.768403 43.765343 
L 194.513466 43.765343 
L 194.592827 41.668352 
L 194.710095 41.668352 
L 194.789644 36.950122 
L 194.858001 36.950122 
L 194.858001 35.901627 
L 195.093533 35.901627 
L 195.093533 35.377379 
L 195.244547 35.377379 
L 195.355366 34.328884 
L 195.427804 34.328884 
L 195.427804 33.804636 
L 195.67741 33.804636 
L 195.751591 32.231893 
L 195.797793 32.231893 
L 195.797793 31.707645 
L 195.939725 31.707645 
L 195.939725 31.183397 
L 196.277057 31.183397 
L 196.277057 30.65915 
L 196.435866 30.65915 
L 196.435866 30.134902 
L 203.310767 30.134902 
L 203.310767 29.610654 
L 203.514284 29.610654 
L 203.514284 29.086407 
L 204.827982 29.086407 
L 204.827982 28.562159 
L 209.566487 28.562159 
L 209.566487 28.037911 
L 218.727139 28.037911 
L 218.727139 27.513663 
L 333.429677 27.513663 
L 333.429677 27.513663 
" style="fill:none;stroke:#000080;stroke-linecap:square;stroke-width:1.5;"/>
   </g>
   <g id="line2d_30">
    <defs>
     <path d="M 0 6 
C 1.591219 6 3.117479 5.367802 4.242641 4.242641 
C 5.367802 3.117479 6 1.591219 6 0 
C 6 -1.591219 5.367802 -3.117479 4.242641 -4.242641 
C 3.117479 -5.367802 1.591219 -6 0 -6 
C -1.591219 -6 -3.117479 -5.367802 -4.242641 -4.242641 
C -5.367802 -3.117479 -6 -1.591219 -6 0 
C -6 1.591219 -5.367802 3.117479 -4.242641 4.242641 
C -3.117479 5.367802 -1.591219 6 0 6 
z
" id="m869666d7ec" style="stroke:#000080;stroke-width:1.5;"/>
    </defs>
    <g>
     <use style="fill:none;stroke:#000080;stroke-width:1.5;" x="160.293894" xlink:href="#m869666d7ec" y="228.30054"/>
     <use style="fill:none;stroke:#000080;stroke-width:1.5;" x="184.962788" xlink:href="#m869666d7ec" y="117.684271"/>
     <use style="fill:none;stroke:#000080;stroke-width:1.5;" x="218.727139" xlink:href="#m869666d7ec" y="28.037911"/>
     <use style="fill:none;stroke:#000080;stroke-width:1.5;" x="218.727139" xlink:href="#m869666d7ec" y="27.513663"/>
     <use style="fill:none;stroke:#000080;stroke-width:1.5;" x="333.429677" xlink:href="#m869666d7ec" y="27.513663"/>
    </g>
   </g>
   <g id="line2d_31">
    <path d="M 0 0 
" style="fill:none;stroke:#000080;stroke-linecap:square;stroke-width:1.5;"/>
    <g>
     <use style="fill:none;stroke:#000080;stroke-width:1.5;" x="0" xlink:href="#m869666d7ec" y="0"/>
    </g>
   </g>
   <g id="line2d_32">
    <path clip-path="url(#p8ba77a9459)" d="M 214.582673 28.037911 
" style="fill:none;stroke:#000080;stroke-linecap:square;stroke-width:1.5;"/>
    <defs>
     <path d="M -12 12 
L 12 -12 
M -12 -12 
L 12 12 
" id="me3fc966185" style="stroke:#000080;stroke-width:3;"/>
    </defs>
    <g clip-path="url(#p8ba77a9459)">
     <use style="fill:#000080;stroke:#000080;stroke-width:3;" x="214.582673" xlink:href="#me3fc966185" y="28.037911"/>
    </g>
   </g>
   <g id="line2d_33">
    <defs>
     <path d="M 0 1.5 
C 0.397805 1.5 0.77937 1.341951 1.06066 1.06066 
C 1.341951 0.77937 1.5 0.397805 1.5 0 
C 1.5 -0.397805 1.341951 -0.77937 1.06066 -1.06066 
C 0.77937 -1.341951 0.397805 -1.5 0 -1.5 
C -0.397805 -1.5 -0.77937 -1.341951 -1.06066 -1.06066 
C -1.341951 -0.77937 -1.5 -0.397805 -1.5 0 
C -1.5 0.397805 -1.341951 0.77937 -1.06066 1.06066 
C -0.77937 1.341951 -0.397805 1.5 0 1.5 
z
" id="m52c09159ff" style="stroke:#ff00ff;"/>
    </defs>
    <g>
     <use style="fill:#ff00ff;stroke:#ff00ff;" x="211.523857" xlink:href="#m52c09159ff" y="27.513663"/>
     <use style="fill:#ff00ff;stroke:#ff00ff;" x="211.523857" xlink:href="#m52c09159ff" y="27.513663"/>
    </g>
   </g>
   <g id="line2d_34">
    <path d="M 86.946982 294.88 
L 86.946982 294.355752 
L 87.511126 294.355752 
L 87.511126 293.831505 
L 96.07637 293.831505 
L 96.07637 293.307257 
L 99.711914 293.307257 
L 99.711914 292.783009 
L 102.4807 292.783009 
L 102.4807 291.734514 
L 104.661446 291.734514 
L 104.661446 290.686018 
L 104.865056 290.686018 
L 104.865056 290.161771 
L 105.656224 290.161771 
L 105.656224 289.637523 
L 106.03857 289.637523 
L 106.03857 289.113275 
L 106.226603 289.113275 
L 106.226603 288.589027 
L 106.412604 288.589027 
L 106.412604 287.540532 
L 108.663681 287.540532 
L 108.663681 287.016284 
L 111.908367 287.016284 
L 111.908367 286.492036 
L 112.175115 286.492036 
L 112.175115 284.919293 
L 112.824432 284.919293 
L 112.824432 284.395046 
L 114.172121 284.395046 
L 114.172121 283.870798 
L 114.406204 283.870798 
L 114.406204 282.822302 
L 115.089931 282.822302 
L 115.089931 282.298055 
L 115.311933 282.298055 
L 115.311933 280.725312 
L 116.991789 280.725312 
L 116.991789 278.628321 
L 117.964074 278.628321 
L 118.058348 277.579825 
L 118.245359 277.579825 
L 118.245359 277.055578 
L 120.095232 277.055578 
L 120.178549 275.482834 
L 120.426105 275.482834 
L 120.426105 273.910091 
L 121.382177 273.910091 
L 121.382177 273.385844 
L 123.007879 273.385844 
L 123.007879 272.861596 
L 123.766534 272.861596 
L 123.833872 270.764605 
L 124.557701 270.764605 
L 124.557701 270.240357 
L 124.87691 270.240357 
L 124.87691 269.716109 
L 126.038603 269.716109 
L 126.038603 269.191862 
L 126.156445 269.191862 
L 126.156445 268.667614 
L 127.402078 268.667614 
L 127.45661 266.570623 
L 127.619177 266.570623 
L 127.619177 266.046375 
L 127.992631 266.046375 
L 128.045326 264.99788 
L 128.461173 264.99788 
L 128.461173 263.949385 
L 128.967235 263.949385 
L 128.967235 263.425137 
L 129.410304 263.425137 
L 129.458837 261.852394 
L 130.030796 261.852394 
L 130.030796 261.328146 
L 130.49332 261.328146 
L 130.49332 260.803898 
L 130.809845 260.803898 
L 130.809845 260.279651 
L 131.076592 260.279651 
L 131.120651 257.658412 
L 131.937015 257.658412 
L 131.937015 256.609917 
L 133.576813 256.609917 
L 133.576813 256.085669 
L 134.432583 256.085669 
L 134.432583 255.561421 
L 135.282379 255.561421 
L 135.282379 255.037173 
L 135.72574 255.037173 
L 135.72574 254.512926 
L 136.834012 254.512926 
L 136.834012 253.988678 
L 137.022388 253.988678 
L 137.022388 253.46443 
L 137.785817 253.46443 
L 137.785817 252.415935 
L 139.918135 252.415935 
L 139.918135 251.367439 
L 140.20598 251.367439 
L 140.20598 250.843192 
L 141.553136 250.843192 
L 141.553136 250.318944 
L 141.8387 250.318944 
L 141.8387 249.794696 
L 142.073102 249.794696 
L 142.073102 249.270448 
L 143.799459 249.270448 
L 143.799459 248.746201 
L 144.008766 248.746201 
L 144.008766 247.697705 
L 144.13314 247.697705 
L 144.13314 247.173458 
L 144.37922 247.173458 
L 144.37922 246.64921 
L 145.233186 246.64921 
L 145.233186 245.600714 
L 146.788232 245.600714 
L 146.788232 245.076467 
L 148.521108 245.076467 
L 148.521108 244.552219 
L 149.711322 244.552219 
L 149.711322 243.503724 
L 149.830387 243.503724 
L 149.830387 242.979476 
L 150.226256 242.979476 
L 150.226256 242.455228 
L 150.38496 242.455228 
L 150.38496 240.882485 
L 151.671258 240.882485 
L 151.671258 239.83399 
L 153.418546 239.83399 
L 153.418546 239.309742 
L 154.938626 239.309742 
L 154.938626 238.785494 
L 155.545028 238.785494 
L 155.545028 238.261246 
L 155.903037 238.261246 
L 155.903037 237.736999 
L 156.314902 237.736999 
L 156.314902 237.212751 
L 157.197397 237.212751 
L 157.197397 236.688503 
L 158.55369 236.688503 
L 158.55369 235.11576 
L 158.881074 235.11576 
L 158.942317 234.067265 
L 159.559906 234.067265 
L 159.559906 233.543017 
L 159.835725 233.543017 
L 159.835725 232.494521 
L 160.172361 232.494521 
L 160.204854 230.397531 
L 160.605918 230.397531 
L 160.605918 229.873283 
L 161.15215 229.873283 
L 161.15215 228.824787 
L 162.686891 228.824787 
L 162.735998 227.252044 
L 162.903308 227.252044 
L 162.903308 226.727797 
L 164.186252 226.727797 
L 164.276162 225.679301 
L 164.587197 225.679301 
L 164.587197 225.155053 
L 164.837 225.155053 
L 164.837 224.106558 
L 165.083228 224.106558 
L 165.083228 223.58231 
L 165.386138 223.58231 
L 165.386138 223.058063 
L 165.589113 223.058063 
L 165.589113 222.533815 
L 166.457061 222.533815 
L 166.530261 219.912576 
L 166.603151 219.912576 
L 166.614338 218.339833 
L 167.170003 218.339833 
L 167.186236 216.76709 
L 167.283317 216.76709 
L 167.283317 216.242842 
L 167.634667 216.242842 
L 167.634667 215.718594 
L 167.973818 215.718594 
L 167.973818 215.194347 
L 168.517951 215.194347 
L 168.60284 212.573108 
L 168.736808 212.573108 
L 168.736808 211.000365 
L 169.224092 211.000365 
L 169.224092 209.95187 
L 169.438947 209.95187 
L 169.457916 208.379126 
L 170.031231 208.379126 
L 170.031231 207.854879 
L 170.894002 207.854879 
L 170.954935 206.806383 
L 171.011323 206.806383 
L 171.011323 205.757888 
L 171.192247 205.757888 
L 171.192247 203.660897 
L 171.468551 203.660897 
L 171.468551 202.612401 
L 171.823303 202.612401 
L 171.823303 202.088154 
L 172.340078 202.088154 
L 172.424053 201.039658 
L 172.582881 201.039658 
L 172.582881 199.991163 
L 172.806706 199.991163 
L 172.857349 198.41842 
L 172.962056 198.41842 
L 172.962056 197.894172 
L 173.408564 197.894172 
L 173.408564 197.369924 
L 173.629406 197.369924 
L 173.629406 196.845677 
L 174.218008 196.845677 
L 174.271835 195.797181 
L 174.357609 195.797181 
L 174.371863 194.748686 
L 174.580753 194.748686 
L 174.580753 193.70019 
L 174.804514 193.70019 
L 174.866926 192.651695 
L 175.196019 192.651695 
L 175.22994 191.078952 
L 175.338041 191.078952 
L 175.338041 190.554704 
L 175.724309 190.554704 
L 175.724309 190.030456 
L 176.19526 190.030456 
L 176.230467 188.457713 
L 176.39593 188.457713 
L 176.484371 185.836474 
L 176.6599 185.836474 
L 176.6599 185.312227 
L 176.919881 185.312227 
L 176.919881 184.787979 
L 177.163883 184.787979 
L 177.163883 184.263731 
L 177.281591 184.263731 
L 177.281591 183.739484 
L 177.481945 183.739484 
L 177.588642 181.642493 
L 177.688808 181.642493 
L 177.691745 180.593997 
L 177.849616 180.593997 
L 177.901919 179.021254 
L 178.017582 179.021254 
L 178.017582 178.497006 
L 178.720611 178.497006 
L 178.808912 175.35152 
L 178.833665 175.35152 
L 178.833665 174.303025 
L 178.989614 174.303025 
L 179.046714 172.730281 
L 179.154956 172.730281 
L 179.26252 170.633291 
L 179.502109 170.633291 
L 179.612785 168.5363 
L 179.75144 168.5363 
L 179.795679 166.439309 
L 179.865707 166.439309 
L 179.901906 164.866566 
L 180.058747 164.866566 
L 180.058747 164.342318 
L 180.450963 164.342318 
L 180.450963 163.81807 
L 180.765793 163.81807 
L 180.807502 162.245327 
L 180.970906 162.245327 
L 181.072553 160.672584 
L 181.149597 160.672584 
L 181.149597 160.148336 
L 181.402368 160.148336 
L 181.447287 158.575593 
L 181.586027 158.575593 
L 181.586027 158.051345 
L 181.707386 158.051345 
L 181.797846 155.954354 
L 182.29492 155.954354 
L 182.29492 154.905859 
L 182.482685 154.905859 
L 182.589066 152.28462 
L 182.613353 152.28462 
L 182.613353 151.760373 
L 182.823866 151.760373 
L 182.852176 150.711877 
L 182.977918 150.711877 
L 183.025373 149.139134 
L 183.137024 149.139134 
L 183.137024 148.090639 
L 183.476089 148.090639 
L 183.476089 147.566391 
L 183.611948 147.566391 
L 183.645226 146.517896 
L 183.738478 146.517896 
L 183.755003 145.4694 
L 183.92961 145.4694 
L 183.952078 143.896657 
L 184.219422 143.896657 
L 184.287616 142.848162 
L 184.632438 142.848162 
L 184.632438 141.799666 
L 184.76534 141.799666 
L 184.775072 139.702675 
L 185.144669 139.702675 
L 185.144669 139.178427 
L 185.467288 139.178427 
L 185.467288 138.65418 
L 185.798641 138.65418 
L 185.899185 137.605684 
L 185.944694 137.605684 
L 185.944694 137.081437 
L 186.150699 137.081437 
L 186.150699 136.032941 
L 186.324063 136.032941 
L 186.414517 133.93595 
L 186.613257 133.93595 
L 186.68306 132.887455 
L 186.806269 132.887455 
L 186.890788 130.790464 
L 187.010815 130.790464 
L 187.107936 129.217721 
L 187.157139 129.217721 
L 187.189299 127.12073 
L 187.466086 127.12073 
L 187.466086 125.547987 
L 187.81204 125.547987 
L 187.916105 124.499491 
L 187.975982 124.499491 
L 187.975982 123.975244 
L 188.127171 123.975244 
L 188.147976 121.878253 
L 188.251625 121.878253 
L 188.354653 119.257014 
L 188.36887 119.257014 
L 188.416175 118.208519 
L 188.77459 118.208519 
L 188.822332 117.160023 
L 188.900589 117.160023 
L 188.983062 116.111528 
L 189.040863 116.111528 
L 189.146833 113.490289 
L 189.313544 113.490289 
L 189.359815 109.820555 
L 189.675889 109.820555 
L 189.699289 108.77206 
L 190.135098 108.77206 
L 190.164996 106.150821 
L 190.275593 106.150821 
L 190.319351 105.102326 
L 190.46954 105.102326 
L 190.553187 101.956839 
L 190.585145 101.956839 
L 190.585145 100.908344 
L 190.69722 100.908344 
L 190.79349 98.287105 
L 190.849628 98.287105 
L 190.947771 95.665867 
L 191.014243 95.665867 
L 191.103374 94.093124 
L 191.138359 94.093124 
L 191.185343 92.520381 
L 191.250906 92.520381 
L 191.305574 91.471885 
L 191.505425 91.471885 
L 191.505425 90.42339 
L 191.74845 90.42339 
L 191.829993 89.374894 
L 191.922714 89.374894 
L 192.003437 87.802151 
L 192.04812 87.802151 
L 192.148551 86.229408 
L 192.184007 86.229408 
L 192.293709 83.083922 
L 192.635939 83.083922 
L 192.704802 80.986931 
L 192.762387 80.986931 
L 192.762387 80.462683 
L 192.935204 80.462683 
L 192.936415 79.414188 
L 193.127869 79.414188 
L 193.225781 74.17171 
L 193.596805 74.17171 
L 193.67006 72.598967 
L 193.758017 72.598967 
L 193.764942 71.550472 
L 193.884532 71.550472 
L 193.884532 71.026224 
L 194.069177 71.026224 
L 194.168654 69.977729 
L 194.346944 69.977729 
L 194.39262 68.404985 
L 194.563109 68.404985 
L 194.570819 66.307995 
L 194.76462 66.307995 
L 194.821143 62.638261 
L 195.128746 62.638261 
L 195.16176 61.589765 
L 195.411034 61.589765 
L 195.504109 59.492774 
L 195.534329 59.492774 
L 195.612238 56.871536 
L 195.693922 56.871536 
L 195.735134 55.298792 
L 195.86431 55.298792 
L 195.906135 52.677554 
L 196.002657 52.677554 
L 196.072425 50.056315 
L 196.254107 50.056315 
L 196.331813 48.483572 
L 196.443768 48.483572 
L 196.551074 44.813838 
L 196.90176 44.813838 
L 197.00052 43.241095 
L 197.216195 43.241095 
L 197.30472 42.192599 
L 197.631308 42.192599 
L 197.631308 41.668352 
L 197.891999 41.668352 
L 197.891999 40.095609 
L 198.155953 40.095609 
L 198.224653 37.998618 
L 198.425602 37.998618 
L 198.51864 36.950122 
L 198.538761 36.950122 
L 198.561478 35.377379 
L 198.87984 35.377379 
L 198.938028 32.231893 
L 199.262139 32.231893 
L 199.262139 31.707645 
L 199.408223 31.707645 
L 199.408223 31.183397 
L 200.015805 31.183397 
L 200.015805 30.65915 
L 200.381001 30.65915 
L 200.381001 30.134902 
L 200.684666 30.134902 
L 200.684666 29.610654 
L 203.459854 29.610654 
L 203.459854 28.037911 
L 211.523857 28.037911 
L 211.523857 27.513663 
L 333.429677 27.513663 
L 333.429677 27.513663 
" style="fill:none;stroke:#ff00ff;stroke-linecap:square;stroke-width:1.5;"/>
   </g>
   <g id="line2d_35">
    <defs>
     <path d="M -0 8.485281 
L 5.091169 0 
L 0 -8.485281 
L -5.091169 -0 
z
" id="mda7060d072" style="stroke:#ff00ff;stroke-linejoin:miter;stroke-width:1.5;"/>
    </defs>
    <g>
     <use style="fill:none;stroke:#ff00ff;stroke-linejoin:miter;stroke-width:1.5;" x="178.833665" xlink:href="#mda7060d072" y="175.35152"/>
     <use style="fill:none;stroke:#ff00ff;stroke-linejoin:miter;stroke-width:1.5;" x="195.869416" xlink:href="#mda7060d072" y="54.774545"/>
     <use style="fill:none;stroke:#ff00ff;stroke-linejoin:miter;stroke-width:1.5;" x="211.523857" xlink:href="#mda7060d072" y="27.513663"/>
     <use style="fill:none;stroke:#ff00ff;stroke-linejoin:miter;stroke-width:1.5;" x="211.523857" xlink:href="#mda7060d072" y="27.513663"/>
     <use style="fill:none;stroke:#ff00ff;stroke-linejoin:miter;stroke-width:1.5;" x="333.429677" xlink:href="#mda7060d072" y="27.513663"/>
    </g>
   </g>
   <g id="line2d_36">
    <path d="M 0 0 
" style="fill:none;stroke:#ff00ff;stroke-linecap:square;stroke-width:1.5;"/>
    <g>
     <use style="fill:none;stroke:#ff00ff;stroke-linejoin:miter;stroke-width:1.5;" x="0" xlink:href="#mda7060d072" y="0"/>
    </g>
   </g>
   <g id="line2d_37">
    <defs>
     <path d="M 0 1.5 
C 0.397805 1.5 0.77937 1.341951 1.06066 1.06066 
C 1.341951 0.77937 1.5 0.397805 1.5 0 
C 1.5 -0.397805 1.341951 -0.77937 1.06066 -1.06066 
C 0.77937 -1.341951 0.397805 -1.5 0 -1.5 
C -0.397805 -1.5 -0.77937 -1.341951 -1.06066 -1.06066 
C -1.341951 -0.77937 -1.5 -0.397805 -1.5 0 
C -1.5 0.397805 -1.341951 0.77937 -1.06066 1.06066 
C -0.77937 1.341951 -0.397805 1.5 0 1.5 
z
" id="m9ec4bc8b41" style="stroke:#ffa500;"/>
    </defs>
    <g>
     <use style="fill:#ffa500;stroke:#ffa500;" x="219.951413" xlink:href="#m9ec4bc8b41" y="27.513663"/>
     <use style="fill:#ffa500;stroke:#ffa500;" x="219.951413" xlink:href="#m9ec4bc8b41" y="27.513663"/>
    </g>
   </g>
   <g id="line2d_38">
    <path d="M 91.896513 294.88 
L 91.896513 294.355752 
L 92.735942 294.355752 
L 92.735942 293.307257 
L 97.685473 293.307257 
L 97.685473 292.783009 
L 98.583322 292.783009 
L 98.583322 290.161771 
L 99.982863 290.161771 
L 99.982863 289.637523 
L 100.512285 289.637523 
L 100.512285 287.016284 
L 101.277072 287.016284 
L 101.277072 286.492036 
L 102.009304 286.492036 
L 102.009304 285.967789 
L 104.035746 285.967789 
L 104.035746 285.443541 
L 108.001874 285.443541 
L 108.001874 284.919293 
L 111.082375 284.919293 
L 111.082375 284.395046 
L 112.175115 284.395046 
L 112.175115 283.870798 
L 113.202576 283.870798 
L 113.202576 282.822302 
L 114.053874 282.822302 
L 114.053874 282.298055 
L 114.172121 282.298055 
L 114.172121 281.773807 
L 115.747522 281.773807 
L 115.747522 281.249559 
L 116.067126 281.249559 
L 116.067126 280.725312 
L 116.790561 280.725312 
L 116.790561 280.201064 
L 120.261464 280.201064 
L 120.261464 278.628321 
L 122.287906 278.628321 
L 122.361274 277.579825 
L 122.866275 277.579825 
L 122.866275 277.055578 
L 124.100619 277.055578 
L 124.100619 276.53133 
L 124.940047 276.53133 
L 124.940047 276.007082 
L 125.619682 276.007082 
L 125.619682 275.482834 
L 127.565159 275.482834 
L 127.565159 274.958587 
L 128.150234 274.958587 
L 128.150234 274.434339 
L 128.512455 274.434339 
L 128.512455 272.861596 
L 128.716065 272.861596 
L 128.716065 271.8131 
L 129.263878 271.8131 
L 129.263878 271.288853 
L 129.410304 271.288853 
L 129.507233 269.191862 
L 129.747193 269.191862 
L 129.747193 268.667614 
L 129.93678 268.667614 
L 129.983852 267.619119 
L 130.263612 267.619119 
L 130.263612 267.094871 
L 130.401805 267.094871 
L 130.447623 264.99788 
L 130.720002 264.99788 
L 130.764982 263.949385 
L 131.120651 263.949385 
L 131.120651 262.376641 
L 131.382659 262.376641 
L 131.382659 261.852394 
L 132.269486 261.852394 
L 132.269486 261.328146 
L 133.191038 261.328146 
L 133.191038 260.803898 
L 133.461986 260.803898 
L 133.461986 260.279651 
L 133.728734 260.279651 
L 133.804194 259.231155 
L 134.613119 259.231155 
L 134.613119 258.706907 
L 134.82729 258.706907 
L 134.82729 258.18266 
L 135.143629 258.18266 
L 135.143629 257.658412 
L 136.928458 257.658412 
L 136.928458 257.134164 
L 137.514869 257.134164 
L 137.514869 256.609917 
L 137.993644 256.609917 
L 137.993644 255.561421 
L 139.732422 255.561421 
L 139.732422 255.037173 
L 143.459179 255.037173 
L 143.459179 254.512926 
L 143.736167 254.512926 
L 143.841525 253.46443 
L 144.236101 253.46443 
L 144.297584 252.415935 
L 145.445 252.415935 
L 145.521381 250.318944 
L 148.001186 250.318944 
L 148.067042 249.270448 
L 148.327974 249.270448 
L 148.327974 248.221953 
L 148.664549 248.221953 
L 148.743725 247.173458 
L 148.979089 247.173458 
L 148.979089 246.64921 
L 151.143502 246.64921 
L 151.143502 246.124962 
L 152.053458 246.124962 
L 152.131484 245.076467 
L 152.705671 245.076467 
L 152.705671 244.552219 
L 152.855606 244.552219 
L 152.880468 243.503724 
L 154.068309 243.503724 
L 154.172336 241.93098 
L 154.604757 241.93098 
L 154.604757 241.406733 
L 154.761369 241.406733 
L 154.761369 240.358237 
L 154.971659 240.358237 
L 154.971659 239.83399 
L 155.298551 239.83399 
L 155.298551 239.309742 
L 155.587535 239.309742 
L 155.587535 238.261246 
L 156.517196 238.261246 
L 156.517196 237.212751 
L 157.560826 237.212751 
L 157.560826 236.688503 
L 157.683415 236.688503 
L 157.683415 235.11576 
L 157.944524 235.11576 
L 157.944524 234.591512 
L 158.146936 234.591512 
L 158.146936 234.067265 
L 158.819613 234.067265 
L 158.819613 233.543017 
L 159.32236 233.543017 
L 159.32236 232.494521 
L 159.992546 232.494521 
L 159.992546 231.446026 
L 160.245384 231.446026 
L 160.245384 230.397531 
L 160.518483 230.397531 
L 160.518483 229.873283 
L 160.802998 229.873283 
L 160.8968 228.30054 
L 161.591964 228.30054 
L 161.591964 227.776292 
L 162.159006 227.776292 
L 162.260126 226.727797 
L 162.93796 226.727797 
L 162.951801 224.630806 
L 163.199061 224.630806 
L 163.199061 224.106558 
L 165.523706 224.106558 
L 165.523706 223.58231 
L 165.766241 223.58231 
L 165.766241 223.058063 
L 166.619928 223.058063 
L 166.686873 221.485319 
L 166.897164 221.485319 
L 166.897164 220.436824 
L 167.175416 220.436824 
L 167.175416 219.912576 
L 167.528953 219.912576 
L 167.528953 219.388328 
L 167.676771 219.388328 
L 167.75544 218.339833 
L 167.807687 218.339833 
L 167.807687 217.815585 
L 168.107629 217.815585 
L 168.214952 216.242842 
L 168.281056 216.242842 
L 168.281056 215.718594 
L 168.532962 215.718594 
L 168.532962 215.194347 
L 168.850111 215.194347 
L 168.938266 212.573108 
L 169.059959 212.573108 
L 169.059959 211.524613 
L 169.343787 211.524613 
L 169.343787 210.476117 
L 169.467393 210.476117 
L 169.467393 209.95187 
L 169.744631 209.95187 
L 169.744631 208.903374 
L 169.907008 208.903374 
L 169.907008 208.379126 
L 170.026647 208.379126 
L 170.044979 206.282136 
L 170.258933 206.282136 
L 170.33567 203.660897 
L 170.376157 203.660897 
L 170.470259 202.088154 
L 170.62596 202.088154 
L 170.643665 200.515411 
L 171.084784 200.515411 
L 171.084784 199.991163 
L 171.235045 199.991163 
L 171.239319 197.894172 
L 171.765374 197.894172 
L 171.765374 197.369924 
L 172.215361 197.369924 
L 172.219398 196.321429 
L 172.392111 196.321429 
L 172.495707 194.748686 
L 172.681408 194.748686 
L 172.728502 193.70019 
L 172.822304 193.70019 
L 172.884556 192.651695 
L 173.524953 192.651695 
L 173.614523 191.603199 
L 173.677688 191.603199 
L 173.677688 190.554704 
L 173.862133 190.554704 
L 173.968212 188.981961 
L 174.055509 188.981961 
L 174.055509 188.457713 
L 174.203626 188.457713 
L 174.203626 187.409218 
L 174.350478 187.409218 
L 174.393223 185.836474 
L 175.168834 185.836474 
L 175.168834 185.312227 
L 175.321195 185.312227 
L 175.321195 184.787979 
L 175.724309 184.787979 
L 175.724309 184.263731 
L 175.972759 184.263731 
L 175.972759 183.739484 
L 176.134278 183.739484 
L 176.23686 182.690988 
L 176.246446 182.690988 
L 176.332478 181.118245 
L 176.437048 181.118245 
L 176.437048 180.06975 
L 176.603675 180.06975 
L 176.641179 178.497006 
L 176.94137 178.497006 
L 176.962832 177.448511 
L 177.078876 177.448511 
L 177.166911 174.827272 
L 177.191118 174.827272 
L 177.191118 174.303025 
L 177.502744 174.303025 
L 177.502744 173.778777 
L 177.788394 173.778777 
L 177.817574 172.206034 
L 178.0435 172.206034 
L 178.129611 170.109043 
L 178.15536 170.109043 
L 178.169648 169.060547 
L 178.422019 169.060547 
L 178.452956 167.487804 
L 178.759299 167.487804 
L 178.759299 166.439309 
L 178.992337 166.439309 
L 178.992337 165.915061 
L 179.125257 165.915061 
L 179.235692 163.293823 
L 179.459758 163.293823 
L 179.523245 162.245327 
L 179.575972 162.245327 
L 179.604903 160.148336 
L 179.968931 160.148336 
L 179.968931 159.099841 
L 180.165911 159.099841 
L 180.165911 158.575593 
L 180.279994 158.575593 
L 180.279994 158.051345 
L 180.418409 158.051345 
L 180.458466 157.00285 
L 180.578084 157.00285 
L 180.649951 154.905859 
L 180.719057 154.905859 
L 180.719057 154.381611 
L 180.922291 154.381611 
L 180.922291 153.857364 
L 181.055653 153.857364 
L 181.055653 153.333116 
L 181.269291 153.333116 
L 181.326451 151.760373 
L 181.477953 151.760373 
L 181.55086 149.139134 
L 181.714361 149.139134 
L 181.723657 148.090639 
L 181.830204 148.090639 
L 181.830204 147.566391 
L 182.004804 147.566391 
L 182.064131 145.4694 
L 182.393529 145.4694 
L 182.493797 144.420905 
L 182.865226 144.420905 
L 182.865226 143.896657 
L 182.986556 143.896657 
L 183.023219 141.275418 
L 183.192579 141.275418 
L 183.192579 140.751171 
L 183.315866 140.751171 
L 183.391947 138.65418 
L 183.47399 138.65418 
L 183.559821 134.984446 
L 183.636913 134.984446 
L 183.717799 132.363207 
L 183.868186 132.363207 
L 183.868186 131.838959 
L 184.003031 131.838959 
L 184.057892 128.693473 
L 184.197301 128.693473 
L 184.299622 126.596482 
L 184.343573 126.596482 
L 184.450979 125.023739 
L 184.583318 125.023739 
L 184.693153 120.829757 
L 184.726358 120.829757 
L 184.831408 116.635776 
L 184.933893 116.635776 
L 185.035771 115.58728 
L 185.051097 115.58728 
L 185.079795 114.538785 
L 185.288802 114.538785 
L 185.341601 112.966042 
L 185.426119 112.966042 
L 185.493435 111.917546 
L 185.630985 111.917546 
L 185.664278 110.344803 
L 185.760096 110.344803 
L 185.760096 109.820555 
L 185.984642 109.820555 
L 186.026306 108.77206 
L 186.121934 108.77206 
L 186.211665 107.723564 
L 186.30271 107.723564 
L 186.398589 106.150821 
L 186.632481 106.150821 
L 186.632481 105.102326 
L 186.83046 105.102326 
L 186.83046 104.578078 
L 186.99543 104.578078 
L 186.99543 104.05383 
L 187.199442 104.05383 
L 187.199442 103.005335 
L 187.412753 103.005335 
L 187.489367 101.432592 
L 187.656398 101.432592 
L 187.699135 98.811353 
L 187.803883 98.811353 
L 187.87553 97.762858 
L 188.04209 97.762858 
L 188.077457 96.714362 
L 188.313516 96.714362 
L 188.38623 95.141619 
L 188.576046 95.141619 
L 188.635229 90.947637 
L 188.705051 90.947637 
L 188.705051 90.42339 
L 188.885272 90.42339 
L 188.94951 88.850646 
L 189.010466 88.850646 
L 189.074238 87.277903 
L 189.259652 87.277903 
L 189.33147 84.656665 
L 189.408936 84.656665 
L 189.441605 82.035426 
L 189.593738 82.035426 
L 189.661248 80.462683 
L 189.830325 80.462683 
L 189.881014 79.414188 
L 189.95029 79.414188 
L 190.06084 77.841444 
L 190.089439 77.841444 
L 190.110857 76.792949 
L 190.209036 76.792949 
L 190.209036 76.268701 
L 190.364405 76.268701 
L 190.364405 75.744454 
L 190.730288 75.744454 
L 190.761918 74.17171 
L 190.859194 74.17171 
L 190.859194 73.123215 
L 191.023718 73.123215 
L 191.103374 71.026224 
L 191.145079 71.026224 
L 191.208118 67.880738 
L 191.262921 67.880738 
L 191.361395 64.735251 
L 191.418358 64.735251 
L 191.418358 64.211004 
L 191.540916 64.211004 
L 191.540916 63.686756 
L 191.719884 63.686756 
L 191.719884 63.162508 
L 192.037917 63.162508 
L 192.121912 61.589765 
L 192.481223 61.589765 
L 192.481223 61.065517 
L 192.676552 61.065517 
L 192.778281 59.492774 
L 192.925514 59.492774 
L 192.925514 58.968526 
L 193.109898 58.968526 
L 193.120683 57.920031 
L 193.276902 57.920031 
L 193.276902 57.395783 
L 193.555973 57.395783 
L 193.636378 55.82304 
L 193.692091 55.82304 
L 193.799524 53.201802 
L 193.921163 53.201802 
L 193.936022 49.532068 
L 194.139323 49.532068 
L 194.139323 49.00782 
L 194.407078 49.00782 
L 194.413746 47.959324 
L 194.564211 47.959324 
L 194.570819 46.386581 
L 194.722105 46.386581 
L 194.722105 45.862334 
L 194.881808 45.862334 
L 194.977783 44.28959 
L 195.106346 44.28959 
L 195.106346 43.765343 
L 195.412082 43.765343 
L 195.412082 43.241095 
L 195.642268 43.241095 
L 195.74645 41.144104 
L 195.876562 41.144104 
L 195.876562 40.619856 
L 196.03606 40.619856 
L 196.03606 40.095609 
L 196.200104 40.095609 
L 196.200104 39.571361 
L 196.362599 39.571361 
L 196.429937 37.47437 
L 196.524556 37.47437 
L 196.524556 36.950122 
L 196.636244 36.950122 
L 196.737507 35.377379 
L 196.788884 35.377379 
L 196.854577 33.804636 
L 197.213363 33.804636 
L 197.309416 32.756141 
L 197.34319 32.756141 
L 197.34319 32.231893 
L 197.693867 32.231893 
L 197.693867 31.707645 
L 198.167571 31.707645 
L 198.167571 31.183397 
L 199.066541 31.183397 
L 199.066541 30.65915 
L 199.247042 30.65915 
L 199.247042 29.610654 
L 200.633652 29.610654 
L 200.633652 29.086407 
L 202.62824 29.086407 
L 202.62824 28.562159 
L 206.240626 28.562159 
L 206.240626 28.037911 
L 219.951413 28.037911 
L 219.951413 27.513663 
L 333.429677 27.513663 
L 333.429677 27.513663 
" style="fill:none;stroke:#ffa500;stroke-linecap:square;stroke-width:1.5;"/>
   </g>
   <g id="line2d_39">
    <defs>
     <path d="M 0 -6 
L -1.347084 -1.854102 
L -5.706339 -1.854102 
L -2.179628 0.708204 
L -3.526712 4.854102 
L -0 2.291796 
L 3.526712 4.854102 
L 2.179628 0.708204 
L 5.706339 -1.854102 
L 1.347084 -1.854102 
z
" id="m1d4c035707" style="stroke:#ffa500;stroke-linejoin:bevel;stroke-width:1.5;"/>
    </defs>
    <g>
     <use style="fill:none;stroke:#ffa500;stroke-linejoin:bevel;stroke-width:1.5;" x="178.129611" xlink:href="#m1d4c035707" y="171.157538"/>
     <use style="fill:none;stroke:#ffa500;stroke-linejoin:bevel;stroke-width:1.5;" x="194.570819" xlink:href="#m1d4c035707" y="46.386581"/>
     <use style="fill:none;stroke:#ffa500;stroke-linejoin:bevel;stroke-width:1.5;" x="219.951413" xlink:href="#m1d4c035707" y="27.513663"/>
     <use style="fill:none;stroke:#ffa500;stroke-linejoin:bevel;stroke-width:1.5;" x="219.951413" xlink:href="#m1d4c035707" y="27.513663"/>
     <use style="fill:none;stroke:#ffa500;stroke-linejoin:bevel;stroke-width:1.5;" x="333.429677" xlink:href="#m1d4c035707" y="27.513663"/>
    </g>
   </g>
   <g id="line2d_40">
    <path d="M 0 0 
" style="fill:none;stroke:#ffa500;stroke-linecap:square;stroke-width:1.5;"/>
    <g>
     <use style="fill:none;stroke:#ffa500;stroke-linejoin:bevel;stroke-width:1.5;" x="0" xlink:href="#m1d4c035707" y="0"/>
    </g>
   </g>
   <g id="line2d_41">
    <defs>
     <path d="M 0 1.5 
C 0.397805 1.5 0.77937 1.341951 1.06066 1.06066 
C 1.341951 0.77937 1.5 0.397805 1.5 0 
C 1.5 -0.397805 1.341951 -0.77937 1.06066 -1.06066 
C 0.77937 -1.341951 0.397805 -1.5 0 -1.5 
C -0.397805 -1.5 -0.77937 -1.341951 -1.06066 -1.06066 
C -1.341951 -0.77937 -1.5 -0.397805 -1.5 0 
C -1.5 0.397805 -1.341951 0.77937 -1.06066 1.06066 
C -0.77937 1.341951 -0.397805 1.5 0 1.5 
z
" id="ma81a93c77d" style="stroke:#6495ed;"/>
    </defs>
    <g>
     <use style="fill:#6495ed;stroke:#6495ed;" x="156.697248" xlink:href="#ma81a93c77d" y="27.513663"/>
     <use style="fill:#6495ed;stroke:#6495ed;" x="156.697248" xlink:href="#ma81a93c77d" y="27.513663"/>
    </g>
   </g>
   <g id="line2d_42">
    <path d="M 89.100397 294.88 
L 89.100397 293.307257 
L 91.896513 293.307257 
L 91.896513 292.783009 
L 93.140781 292.783009 
L 93.140781 290.686018 
L 94.301099 290.686018 
L 94.301099 290.161771 
L 95.735668 290.161771 
L 95.735668 289.113275 
L 96.410455 289.113275 
L 96.410455 288.06478 
L 97.059773 288.06478 
L 97.059773 287.540532 
L 97.989992 287.540532 
L 97.989992 285.967789 
L 98.289215 285.967789 
L 98.289215 285.443541 
L 99.436631 285.443541 
L 99.436631 284.919293 
L 99.982863 284.919293 
L 99.982863 282.298055 
L 100.77101 282.298055 
L 100.77101 281.773807 
L 101.025901 281.773807 
L 101.025901 279.676816 
L 101.524628 279.676816 
L 101.524628 278.104073 
L 102.246616 278.104073 
L 102.246616 277.055578 
L 102.4807 277.055578 
L 102.4807 274.434339 
L 102.711641 274.434339 
L 102.711641 273.385844 
L 103.386428 273.385844 
L 103.386428 272.861596 
L 104.661446 272.861596 
L 104.661446 270.764605 
L 104.865056 270.764605 
L 104.865056 270.240357 
L 105.461817 270.240357 
L 105.461817 268.143366 
L 105.848459 268.143366 
L 105.848459 267.094871 
L 106.03857 267.094871 
L 106.03857 265.522128 
L 106.226603 265.522128 
L 106.226603 264.99788 
L 106.412604 264.99788 
L 106.412604 263.425137 
L 106.778678 263.425137 
L 106.778678 261.328146 
L 107.488258 261.328146 
L 107.488258 259.231155 
L 107.661173 259.231155 
L 107.661173 256.609917 
L 108.001874 256.609917 
L 108.001874 255.037173 
L 108.500601 255.037173 
L 108.500601 253.988678 
L 109.143848 253.988678 
L 109.143848 252.940182 
L 109.300972 252.940182 
L 109.300972 251.891687 
L 110.362401 251.891687 
L 110.362401 249.270448 
L 110.508826 249.270448 
L 110.508826 248.221953 
L 110.654016 248.221953 
L 110.654016 247.173458 
L 111.082375 247.173458 
L 111.082375 245.600714 
L 111.362135 245.600714 
L 111.362135 243.503724 
L 111.500328 243.503724 
L 111.500328 241.93098 
L 111.773426 241.93098 
L 111.773426 240.882485 
L 111.908367 240.882485 
L 111.908367 239.309742 
L 112.306953 239.309742 
L 112.306953 237.736999 
L 112.824432 237.736999 
L 112.824432 236.688503 
L 112.951406 236.688503 
L 112.951406 234.591512 
L 113.077449 234.591512 
L 113.077449 233.543017 
L 113.202576 233.543017 
L 113.202576 231.446026 
L 113.450132 231.446026 
L 113.450132 230.921778 
L 113.572587 230.921778 
L 113.572587 229.873283 
L 113.694177 229.873283 
L 113.694177 228.824787 
L 113.814914 228.824787 
L 113.814914 227.776292 
L 113.934809 227.776292 
L 113.934809 226.203549 
L 114.289561 226.203549 
L 114.289561 225.679301 
L 114.406204 225.679301 
L 114.406204 225.155053 
L 114.751464 225.155053 
L 114.751464 222.533815 
L 114.977847 222.533815 
L 114.977847 221.485319 
L 115.089931 221.485319 
L 115.089931 220.961072 
L 115.96125 220.961072 
L 115.96125 218.864081 
L 116.172355 218.864081 
L 116.172355 217.291338 
L 116.689057 217.291338 
L 116.689057 215.718594 
L 116.991789 215.718594 
L 117.091528 211.524613 
L 117.289287 211.524613 
L 117.289287 207.330631 
L 117.484799 207.330631 
L 117.581728 205.757888 
L 117.678114 205.757888 
L 117.773963 200.515411 
L 118.152108 200.515411 
L 118.152108 199.466915 
L 118.338108 199.466915 
L 118.338108 195.797181 
L 118.522119 195.797181 
L 118.613392 188.981961 
L 118.794497 188.981961 
L 118.794497 184.263731 
L 119.06263 184.263731 
L 119.151088 176.924263 
L 119.239092 176.924263 
L 119.239092 176.400016 
L 119.413762 176.400016 
L 119.500437 173.778777 
L 119.586677 173.778777 
L 119.586677 171.157538 
L 119.927379 171.157538 
L 120.01151 166.439309 
L 120.178549 166.439309 
L 120.261464 162.769575 
L 120.343982 162.769575 
L 120.343982 161.721079 
L 120.507839 161.721079 
L 120.589186 158.575593 
L 120.750735 158.575593 
L 120.750735 154.381611 
L 121.069353 154.381611 
L 121.069353 153.857364 
L 121.226476 153.857364 
L 121.226476 153.333116 
L 121.382177 153.333116 
L 121.382177 150.711877 
L 121.689415 150.711877 
L 121.765375 143.896657 
L 121.916296 143.896657 
L 121.916296 143.372409 
L 122.140223 143.372409 
L 122.214223 140.751171 
L 122.287906 140.751171 
L 122.361274 138.65418 
L 122.507079 138.65418 
L 122.507079 138.129932 
L 123.007879 138.129932 
L 123.007879 136.557189 
L 123.28764 136.557189 
L 123.28764 136.032941 
L 123.425832 136.032941 
L 123.425832 134.460198 
L 123.967762 134.460198 
L 123.967762 133.411703 
L 124.363294 133.411703 
L 124.428341 129.741969 
L 124.81354 129.741969 
L 124.81354 128.693473 
L 125.065631 128.693473 
L 125.065631 126.596482 
L 125.314081 126.596482 
L 125.314081 126.072235 
L 125.558994 126.072235 
L 125.619682 122.926748 
L 125.740418 122.926748 
L 125.740418 121.354005 
L 126.331709 121.354005 
L 126.389735 117.684271 
L 126.447567 117.684271 
L 126.447567 116.635776 
L 127.015436 116.635776 
L 127.015436 116.111528 
L 127.126794 116.111528 
L 127.126794 115.58728 
L 127.347373 115.58728 
L 127.45661 114.014537 
L 127.726708 114.014537 
L 127.726708 112.966042 
L 128.202449 112.966042 
L 128.254506 111.393298 
L 128.461173 111.393298 
L 128.461173 110.869051 
L 128.614561 110.869051 
L 128.716065 108.247812 
L 128.766593 108.247812 
L 128.816974 107.199317 
L 128.917294 107.199317 
L 128.967235 105.626573 
L 129.066686 105.626573 
L 129.066686 105.102326 
L 129.263878 105.102326 
L 129.263878 104.578078 
L 129.555493 104.578078 
L 129.555493 103.529583 
L 129.699468 103.529583 
L 129.794786 98.811353 
L 129.889579 98.811353 
L 129.93678 96.190115 
L 130.124301 96.190115 
L 130.124301 91.471885 
L 130.401805 91.471885 
L 130.401805 90.947637 
L 130.899221 90.947637 
L 130.943735 88.326399 
L 131.425941 88.326399 
L 131.469115 83.608169 
L 131.55514 83.608169 
L 131.55514 82.559674 
L 131.725909 82.559674 
L 131.810662 81.511178 
L 131.852883 81.511178 
L 131.852883 80.986931 
L 131.978927 80.986931 
L 131.978927 79.414188 
L 132.392525 79.414188 
L 132.433343 75.744454 
L 132.595654 75.744454 
L 132.635994 72.598967 
L 132.915754 72.598967 
L 132.955351 69.453481 
L 133.034273 69.453481 
L 133.034273 68.404985 
L 133.42354 68.404985 
L 133.461986 66.307995 
L 133.804194 66.307995 
L 133.804194 65.259499 
L 134.139727 65.259499 
L 134.176608 64.211004 
L 135.959823 64.211004 
L 135.959823 63.162508 
L 136.190765 63.162508 
L 136.190765 62.114013 
L 136.739045 62.114013 
L 136.739045 60.54127 
L 136.928458 60.54127 
L 136.928458 59.492774 
L 137.146836 59.492774 
L 137.146836 58.444279 
L 137.514869 58.444279 
L 137.545186 55.82304 
L 137.635818 55.82304 
L 137.635818 55.298792 
L 137.904883 55.298792 
L 137.904883 54.774545 
L 138.257213 54.774545 
L 138.257213 54.250297 
L 138.516805 54.250297 
L 138.516805 53.201802 
L 138.744311 53.201802 
L 138.744311 52.153306 
L 139.107709 52.153306 
L 139.107709 50.580563 
L 139.571627 50.580563 
L 139.571627 46.386581 
L 139.759075 46.386581 
L 139.759075 45.862334 
L 139.891727 45.862334 
L 139.997117 43.241095 
L 140.335243 43.241095 
L 140.335243 42.716847 
L 141.164857 42.716847 
L 141.164857 42.192599 
L 141.505077 42.192599 
L 141.505077 41.668352 
L 142.980025 41.668352 
L 142.980025 40.619856 
L 143.243034 40.619856 
L 143.243034 39.571361 
L 144.721918 39.571361 
L 144.721918 37.998618 
L 146.981843 37.998618 
L 146.981843 37.47437 
L 147.276841 37.47437 
L 147.276841 36.950122 
L 147.968163 36.950122 
L 147.968163 36.425875 
L 149.226646 36.425875 
L 149.226646 35.901627 
L 149.531165 35.901627 
L 149.531165 34.328884 
L 156.426458 34.328884 
L 156.426458 33.804636 
L 156.647423 33.804636 
L 156.697248 27.513663 
L 333.429677 27.513663 
L 333.429677 27.513663 
" style="fill:none;stroke:#6495ed;stroke-linecap:square;stroke-width:1.5;"/>
   </g>
   <g id="line2d_43">
    <defs>
     <path d="M -0 6 
L 6 -6 
L -6 -6 
z
" id="m53b9260bbf" style="stroke:#6495ed;stroke-linejoin:miter;stroke-width:1.5;"/>
    </defs>
    <g>
     <use style="fill:none;stroke:#6495ed;stroke-linejoin:miter;stroke-width:1.5;" x="123.425832" xlink:href="#m53b9260bbf" y="134.460198"/>
     <use style="fill:none;stroke:#6495ed;stroke-linejoin:miter;stroke-width:1.5;" x="156.697248" xlink:href="#m53b9260bbf" y="32.756141"/>
     <use style="fill:none;stroke:#6495ed;stroke-linejoin:miter;stroke-width:1.5;" x="156.697248" xlink:href="#m53b9260bbf" y="27.513663"/>
     <use style="fill:none;stroke:#6495ed;stroke-linejoin:miter;stroke-width:1.5;" x="156.697248" xlink:href="#m53b9260bbf" y="27.513663"/>
     <use style="fill:none;stroke:#6495ed;stroke-linejoin:miter;stroke-width:1.5;" x="333.429677" xlink:href="#m53b9260bbf" y="27.513663"/>
    </g>
   </g>
   <g id="line2d_44">
    <path d="M 0 0 
" style="fill:none;stroke:#6495ed;stroke-linecap:square;stroke-width:1.5;"/>
    <g>
     <use style="fill:none;stroke:#6495ed;stroke-linejoin:miter;stroke-width:1.5;" x="0" xlink:href="#m53b9260bbf" y="0"/>
    </g>
   </g>
   <g id="line2d_45">
    <path d="M 333.429677 27.513663 
L 363.933742 289.532673 
" style="fill:none;stroke:#ffa500;stroke-linecap:square;stroke-width:1.5;"/>
    <g>
     <use style="fill:none;stroke:#ffa500;stroke-linejoin:bevel;stroke-width:1.5;" x="333.429677" xlink:href="#m1d4c035707" y="27.513663"/>
     <use style="fill:none;stroke:#ffa500;stroke-linejoin:bevel;stroke-width:1.5;" x="363.933742" xlink:href="#m1d4c035707" y="289.532673"/>
    </g>
   </g>
   <g id="line2d_46">
    <path d="M 333.429677 27.513663 
L 363.933742 225.364752 
" style="fill:none;stroke:#000080;stroke-linecap:square;stroke-width:1.5;"/>
    <g>
     <use style="fill:none;stroke:#000080;stroke-width:1.5;" x="333.429677" xlink:href="#m869666d7ec" y="27.513663"/>
     <use style="fill:none;stroke:#000080;stroke-width:1.5;" x="363.933742" xlink:href="#m869666d7ec" y="225.364752"/>
    </g>
   </g>
   <g id="line2d_47">
    <path d="M 333.429677 27.513663 
L 363.933742 161.196832 
" style="fill:none;stroke:#ff00ff;stroke-linecap:square;stroke-width:1.5;"/>
    <g>
     <use style="fill:none;stroke:#ff00ff;stroke-linejoin:miter;stroke-width:1.5;" x="333.429677" xlink:href="#mda7060d072" y="27.513663"/>
     <use style="fill:none;stroke:#ff00ff;stroke-linejoin:miter;stroke-width:1.5;" x="363.933742" xlink:href="#mda7060d072" y="161.196832"/>
    </g>
   </g>
   <g id="line2d_48">
    <path d="M 333.429677 27.513663 
L 363.933742 97.028911 
" style="fill:none;stroke:#6495ed;stroke-linecap:square;stroke-width:1.5;"/>
    <g>
     <use style="fill:none;stroke:#6495ed;stroke-linejoin:miter;stroke-width:1.5;" x="333.429677" xlink:href="#m53b9260bbf" y="27.513663"/>
     <use style="fill:none;stroke:#6495ed;stroke-linejoin:miter;stroke-width:1.5;" x="363.933742" xlink:href="#m53b9260bbf" y="97.028911"/>
    </g>
   </g>
   <g id="line2d_49">
    <path d="M 333.429677 294.88 
L 333.429677 27.513663 
" style="fill:none;stroke:#000000;stroke-linecap:square;stroke-width:1.5;"/>
   </g>
   <g id="patch_3">
    <path d="M 56.12 294.88 
L 56.12 24.84 
" style="fill:none;stroke:#000000;stroke-linecap:square;stroke-linejoin:miter;stroke-width:0.8;"/>
   </g>
   <g id="patch_4">
    <path d="M 399.984 294.88 
L 399.984 24.84 
" style="fill:none;stroke:#000000;stroke-linecap:square;stroke-linejoin:miter;stroke-width:0.8;"/>
   </g>
   <g id="patch_5">
    <path d="M 56.12 294.88 
L 399.984 294.88 
" style="fill:none;stroke:#000000;stroke-linecap:square;stroke-linejoin:miter;stroke-width:0.8;"/>
   </g>
   <g id="patch_6">
    <path d="M 56.12 24.84 
L 399.984 24.84 
" style="fill:none;stroke:#000000;stroke-linecap:square;stroke-linejoin:miter;stroke-width:0.8;"/>
   </g>
   <g id="text_14">
    <!-- AVGNEWUOA -->
    <defs>
     <path d="M 34.1875 63.1875 
L 20.796875 26.90625 
L 47.609375 26.90625 
z
M 28.609375 72.90625 
L 39.796875 72.90625 
L 67.578125 0 
L 57.328125 0 
L 50.6875 18.703125 
L 17.828125 18.703125 
L 11.1875 0 
L 0.78125 0 
z
" id="DejaVuSans-41"/>
     <path d="M 28.609375 0 
L 0.78125 72.90625 
L 11.078125 72.90625 
L 34.1875 11.53125 
L 57.328125 72.90625 
L 67.578125 72.90625 
L 39.796875 0 
z
" id="DejaVuSans-56"/>
     <path d="M 59.515625 10.40625 
L 59.515625 29.984375 
L 43.40625 29.984375 
L 43.40625 38.09375 
L 69.28125 38.09375 
L 69.28125 6.78125 
Q 63.578125 2.734375 56.6875 0.65625 
Q 49.8125 -1.421875 42 -1.421875 
Q 24.90625 -1.421875 15.25 8.5625 
Q 5.609375 18.5625 5.609375 36.375 
Q 5.609375 54.25 15.25 64.234375 
Q 24.90625 74.21875 42 74.21875 
Q 49.125 74.21875 55.546875 72.453125 
Q 61.96875 70.703125 67.390625 67.28125 
L 67.390625 56.78125 
Q 61.921875 61.421875 55.765625 63.765625 
Q 49.609375 66.109375 42.828125 66.109375 
Q 29.4375 66.109375 22.71875 58.640625 
Q 16.015625 51.171875 16.015625 36.375 
Q 16.015625 21.625 22.71875 14.15625 
Q 29.4375 6.6875 42.828125 6.6875 
Q 48.046875 6.6875 52.140625 7.59375 
Q 56.25 8.5 59.515625 10.40625 
z
" id="DejaVuSans-47"/>
     <path d="M 9.8125 72.90625 
L 23.09375 72.90625 
L 55.421875 11.921875 
L 55.421875 72.90625 
L 64.984375 72.90625 
L 64.984375 0 
L 51.703125 0 
L 19.390625 60.984375 
L 19.390625 0 
L 9.8125 0 
z
" id="DejaVuSans-4e"/>
     <path d="M 9.8125 72.90625 
L 55.90625 72.90625 
L 55.90625 64.59375 
L 19.671875 64.59375 
L 19.671875 43.015625 
L 54.390625 43.015625 
L 54.390625 34.71875 
L 19.671875 34.71875 
L 19.671875 8.296875 
L 56.78125 8.296875 
L 56.78125 0 
L 9.8125 0 
z
" id="DejaVuSans-45"/>
     <path d="M 3.328125 72.90625 
L 13.28125 72.90625 
L 28.609375 11.28125 
L 43.890625 72.90625 
L 54.984375 72.90625 
L 70.3125 11.28125 
L 85.59375 72.90625 
L 95.609375 72.90625 
L 77.296875 0 
L 64.890625 0 
L 49.515625 63.28125 
L 33.984375 0 
L 21.578125 0 
z
" id="DejaVuSans-57"/>
     <path d="M 8.6875 72.90625 
L 18.609375 72.90625 
L 18.609375 28.609375 
Q 18.609375 16.890625 22.84375 11.734375 
Q 27.09375 6.59375 36.625 6.59375 
Q 46.09375 6.59375 50.34375 11.734375 
Q 54.59375 16.890625 54.59375 28.609375 
L 54.59375 72.90625 
L 64.5 72.90625 
L 64.5 27.390625 
Q 64.5 13.140625 57.4375 5.859375 
Q 50.390625 -1.421875 36.625 -1.421875 
Q 22.796875 -1.421875 15.734375 5.859375 
Q 8.6875 13.140625 8.6875 27.390625 
z
" id="DejaVuSans-55"/>
     <path d="M 39.40625 66.21875 
Q 28.65625 66.21875 22.328125 58.203125 
Q 16.015625 50.203125 16.015625 36.375 
Q 16.015625 22.609375 22.328125 14.59375 
Q 28.65625 6.59375 39.40625 6.59375 
Q 50.140625 6.59375 56.421875 14.59375 
Q 62.703125 22.609375 62.703125 36.375 
Q 62.703125 50.203125 56.421875 58.203125 
Q 50.140625 66.21875 39.40625 66.21875 
z
M 39.40625 74.21875 
Q 54.734375 74.21875 63.90625 63.9375 
Q 73.09375 53.65625 73.09375 36.375 
Q 73.09375 19.140625 63.90625 8.859375 
Q 54.734375 -1.421875 39.40625 -1.421875 
Q 24.03125 -1.421875 14.8125 8.828125 
Q 5.609375 19.09375 5.609375 36.375 
Q 5.609375 53.65625 14.8125 63.9375 
Q 24.03125 74.21875 39.40625 74.21875 
z
" id="DejaVuSans-4f"/>
    </defs>
    <g transform="translate(369.479935 294.223611)scale(0.17 -0.17)">
     <use xlink:href="#DejaVuSans-41"/>
     <use x="68.314453" xlink:href="#DejaVuSans-56"/>
     <use x="136.722656" xlink:href="#DejaVuSans-47"/>
     <use x="214.212891" xlink:href="#DejaVuSans-4e"/>
     <use x="289.017578" xlink:href="#DejaVuSans-45"/>
     <use x="352.201172" xlink:href="#DejaVuSans-57"/>
     <use x="451.078125" xlink:href="#DejaVuSans-55"/>
     <use x="524.271484" xlink:href="#DejaVuSans-4f"/>
     <use x="602.966797" xlink:href="#DejaVuSans-41"/>
    </g>
   </g>
   <g id="text_15">
    <!-- FULLNEWUO -->
    <defs>
     <path d="M 9.8125 72.90625 
L 19.671875 72.90625 
L 19.671875 8.296875 
L 55.171875 8.296875 
L 55.171875 0 
L 9.8125 0 
z
" id="DejaVuSans-4c"/>
    </defs>
    <g transform="translate(369.479935 230.05569)scale(0.17 -0.17)">
     <use xlink:href="#DejaVuSans-46"/>
     <use x="57.519531" xlink:href="#DejaVuSans-55"/>
     <use x="130.712891" xlink:href="#DejaVuSans-4c"/>
     <use x="186.425781" xlink:href="#DejaVuSans-4c"/>
     <use x="242.138672" xlink:href="#DejaVuSans-4e"/>
     <use x="316.943359" xlink:href="#DejaVuSans-45"/>
     <use x="380.126953" xlink:href="#DejaVuSans-57"/>
     <use x="479.003906" xlink:href="#DejaVuSans-55"/>
     <use x="552.197266" xlink:href="#DejaVuSans-4f"/>
    </g>
   </g>
   <g id="text_16">
    <!-- NEWUOA ro -->
    <g transform="translate(369.479935 165.887769)scale(0.17 -0.17)">
     <use xlink:href="#DejaVuSans-4e"/>
     <use x="74.804688" xlink:href="#DejaVuSans-45"/>
     <use x="137.988281" xlink:href="#DejaVuSans-57"/>
     <use x="236.865234" xlink:href="#DejaVuSans-55"/>
     <use x="310.058594" xlink:href="#DejaVuSans-4f"/>
     <use x="388.753906" xlink:href="#DejaVuSans-41"/>
     <use x="457.162109" xlink:href="#DejaVuSans-20"/>
     <use x="488.949219" xlink:href="#DejaVuSans-72"/>
     <use x="530.03125" xlink:href="#DejaVuSans-6f"/>
    </g>
   </g>
   <g id="text_17">
    <!-- DFO -->
    <defs>
     <path d="M 19.671875 64.796875 
L 19.671875 8.109375 
L 31.59375 8.109375 
Q 46.6875 8.109375 53.6875 14.9375 
Q 60.6875 21.78125 60.6875 36.53125 
Q 60.6875 51.171875 53.6875 57.984375 
Q 46.6875 64.796875 31.59375 64.796875 
z
M 9.8125 72.90625 
L 30.078125 72.90625 
Q 51.265625 72.90625 61.171875 64.09375 
Q 71.09375 55.28125 71.09375 36.53125 
Q 71.09375 17.671875 61.125 8.828125 
Q 51.171875 0 30.078125 0 
L 9.8125 0 
z
" id="DejaVuSans-44"/>
    </defs>
    <g transform="translate(369.479935 101.719848)scale(0.17 -0.17)">
     <use xlink:href="#DejaVuSans-44"/>
     <use x="77.001953" xlink:href="#DejaVuSans-46"/>
     <use x="134.521484" xlink:href="#DejaVuSans-4f"/>
    </g>
   </g>
   <g id="text_18">
    <!-- best 2009 -->
    <defs>
     <path d="M 48.6875 27.296875 
Q 48.6875 37.203125 44.609375 42.84375 
Q 40.53125 48.484375 33.40625 48.484375 
Q 26.265625 48.484375 22.1875 42.84375 
Q 18.109375 37.203125 18.109375 27.296875 
Q 18.109375 17.390625 22.1875 11.75 
Q 26.265625 6.109375 33.40625 6.109375 
Q 40.53125 6.109375 44.609375 11.75 
Q 48.6875 17.390625 48.6875 27.296875 
z
M 18.109375 46.390625 
Q 20.953125 51.265625 25.265625 53.625 
Q 29.59375 56 35.59375 56 
Q 45.5625 56 51.78125 48.09375 
Q 58.015625 40.1875 58.015625 27.296875 
Q 58.015625 14.40625 51.78125 6.484375 
Q 45.5625 -1.421875 35.59375 -1.421875 
Q 29.59375 -1.421875 25.265625 0.953125 
Q 20.953125 3.328125 18.109375 8.203125 
L 18.109375 0 
L 9.078125 0 
L 9.078125 75.984375 
L 18.109375 75.984375 
z
" id="DejaVuSans-62"/>
     <path d="M 10.984375 1.515625 
L 10.984375 10.5 
Q 14.703125 8.734375 18.5 7.8125 
Q 22.3125 6.890625 25.984375 6.890625 
Q 35.75 6.890625 40.890625 13.453125 
Q 46.046875 20.015625 46.78125 33.40625 
Q 43.953125 29.203125 39.59375 26.953125 
Q 35.25 24.703125 29.984375 24.703125 
Q 19.046875 24.703125 12.671875 31.3125 
Q 6.296875 37.9375 6.296875 49.421875 
Q 6.296875 60.640625 12.9375 67.421875 
Q 19.578125 74.21875 30.609375 74.21875 
Q 43.265625 74.21875 49.921875 64.515625 
Q 56.59375 54.828125 56.59375 36.375 
Q 56.59375 19.140625 48.40625 8.859375 
Q 40.234375 -1.421875 26.421875 -1.421875 
Q 22.703125 -1.421875 18.890625 -0.6875 
Q 15.09375 0.046875 10.984375 1.515625 
z
M 30.609375 32.421875 
Q 37.25 32.421875 41.125 36.953125 
Q 45.015625 41.5 45.015625 49.421875 
Q 45.015625 57.28125 41.125 61.84375 
Q 37.25 66.40625 30.609375 66.40625 
Q 23.96875 66.40625 20.09375 61.84375 
Q 16.21875 57.28125 16.21875 49.421875 
Q 16.21875 41.5 20.09375 36.953125 
Q 23.96875 32.421875 30.609375 32.421875 
z
" id="DejaVuSans-39"/>
    </defs>
    <g transform="translate(369.479935 37.551928)scale(0.17 -0.17)">
     <use xlink:href="#DejaVuSans-62"/>
     <use x="63.476562" xlink:href="#DejaVuSans-65"/>
     <use x="125" xlink:href="#DejaVuSans-73"/>
     <use x="177.099609" xlink:href="#DejaVuSans-74"/>
     <use x="216.308594" xlink:href="#DejaVuSans-20"/>
     <use x="248.095703" xlink:href="#DejaVuSans-32"/>
     <use x="311.71875" xlink:href="#DejaVuSans-30"/>
     <use x="375.341797" xlink:href="#DejaVuSans-30"/>
     <use x="438.964844" xlink:href="#DejaVuSans-39"/>
    </g>
   </g>
   <g id="text_19">
    <!-- bbob f2, 5-D -->
    <defs>
     <path d="M 10.796875 72.90625 
L 49.515625 72.90625 
L 49.515625 64.59375 
L 19.828125 64.59375 
L 19.828125 46.734375 
Q 21.96875 47.46875 24.109375 47.828125 
Q 26.265625 48.1875 28.421875 48.1875 
Q 40.625 48.1875 47.75 41.5 
Q 54.890625 34.8125 54.890625 23.390625 
Q 54.890625 11.625 47.5625 5.09375 
Q 40.234375 -1.421875 26.90625 -1.421875 
Q 22.3125 -1.421875 17.546875 -0.640625 
Q 12.796875 0.140625 7.71875 1.703125 
L 7.71875 11.625 
Q 12.109375 9.234375 16.796875 8.0625 
Q 21.484375 6.890625 26.703125 6.890625 
Q 35.15625 6.890625 40.078125 11.328125 
Q 45.015625 15.765625 45.015625 23.390625 
Q 45.015625 31 40.078125 35.4375 
Q 35.15625 39.890625 26.703125 39.890625 
Q 22.75 39.890625 18.8125 39.015625 
Q 14.890625 38.140625 10.796875 36.28125 
z
" id="DejaVuSans-35"/>
    </defs>
    <g transform="translate(59.55864 35.290806)scale(0.102 -0.102)">
     <use xlink:href="#DejaVuSans-62"/>
     <use x="63.476562" xlink:href="#DejaVuSans-62"/>
     <use x="126.953125" xlink:href="#DejaVuSans-6f"/>
     <use x="188.134766" xlink:href="#DejaVuSans-62"/>
     <use x="251.611328" xlink:href="#DejaVuSans-20"/>
     <use x="283.398438" xlink:href="#DejaVuSans-66"/>
     <use x="318.603516" xlink:href="#DejaVuSans-32"/>
     <use x="382.226562" xlink:href="#DejaVuSans-2c"/>
     <use x="414.013672" xlink:href="#DejaVuSans-20"/>
     <use x="445.800781" xlink:href="#DejaVuSans-35"/>
     <use x="509.423828" xlink:href="#DejaVuSans-2d"/>
     <use x="545.507812" xlink:href="#DejaVuSans-44"/>
    </g>
    <!-- 51 targets: 100..1e-08 -->
    <defs>
     <path d="M 11.71875 12.40625 
L 22.015625 12.40625 
L 22.015625 0 
L 11.71875 0 
z
M 11.71875 51.703125 
L 22.015625 51.703125 
L 22.015625 39.3125 
L 11.71875 39.3125 
z
" id="DejaVuSans-3a"/>
    </defs>
    <g transform="translate(59.55864 46.712575)scale(0.102 -0.102)">
     <use xlink:href="#DejaVuSans-35"/>
     <use x="63.623047" xlink:href="#DejaVuSans-31"/>
     <use x="127.246094" xlink:href="#DejaVuSans-20"/>
     <use x="159.033203" xlink:href="#DejaVuSans-74"/>
     <use x="198.242188" xlink:href="#DejaVuSans-61"/>
     <use x="259.521484" xlink:href="#DejaVuSans-72"/>
     <use x="300.619141" xlink:href="#DejaVuSans-67"/>
     <use x="364.095703" xlink:href="#DejaVuSans-65"/>
     <use x="425.619141" xlink:href="#DejaVuSans-74"/>
     <use x="464.828125" xlink:href="#DejaVuSans-73"/>
     <use x="516.927734" xlink:href="#DejaVuSans-3a"/>
     <use x="550.619141" xlink:href="#DejaVuSans-20"/>
     <use x="582.40625" xlink:href="#DejaVuSans-31"/>
     <use x="646.029297" xlink:href="#DejaVuSans-30"/>
     <use x="709.652344" xlink:href="#DejaVuSans-30"/>
     <use x="773.275391" xlink:href="#DejaVuSans-2e"/>
     <use x="805.0625" xlink:href="#DejaVuSans-2e"/>
     <use x="836.849609" xlink:href="#DejaVuSans-31"/>
     <use x="900.472656" xlink:href="#DejaVuSans-65"/>
     <use x="961.996094" xlink:href="#DejaVuSans-2d"/>
     <use x="998.080078" xlink:href="#DejaVuSans-30"/>
     <use x="1061.703125" xlink:href="#DejaVuSans-38"/>
    </g>
    <!-- 10, 15 instances -->
    <g transform="translate(59.55864 58.134344)scale(0.102 -0.102)">
     <use xlink:href="#DejaVuSans-31"/>
     <use x="63.623047" xlink:href="#DejaVuSans-30"/>
     <use x="127.246094" xlink:href="#DejaVuSans-2c"/>
     <use x="159.033203" xlink:href="#DejaVuSans-20"/>
     <use x="190.820312" xlink:href="#DejaVuSans-31"/>
     <use x="254.443359" xlink:href="#DejaVuSans-35"/>
     <use x="318.066406" xlink:href="#DejaVuSans-20"/>
     <use x="349.853516" xlink:href="#DejaVuSans-69"/>
     <use x="377.636719" xlink:href="#DejaVuSans-6e"/>
     <use x="441.015625" xlink:href="#DejaVuSans-73"/>
     <use x="493.115234" xlink:href="#DejaVuSans-74"/>
     <use x="532.324219" xlink:href="#DejaVuSans-61"/>
     <use x="593.603516" xlink:href="#DejaVuSans-6e"/>
     <use x="656.982422" xlink:href="#DejaVuSans-63"/>
     <use x="711.962891" xlink:href="#DejaVuSans-65"/>
     <use x="773.486328" xlink:href="#DejaVuSans-73"/>
    </g>
   </g>
   <g id="text_20">
    <!-- v2.0.805 -->
    <g style="fill:#808080;" transform="translate(206.00825 290.099912)scale(0.1 -0.1)">
     <use xlink:href="#DejaVuSans-76"/>
     <use x="59.179688" xlink:href="#DejaVuSans-32"/>
     <use x="122.802734" xlink:href="#DejaVuSans-2e"/>
     <use x="154.589844" xlink:href="#DejaVuSans-30"/>
     <use x="218.212891" xlink:href="#DejaVuSans-2e"/>
     <use x="250" xlink:href="#DejaVuSans-38"/>
     <use x="313.623047" xlink:href="#DejaVuSans-30"/>
     <use x="377.246094" xlink:href="#DejaVuSans-35"/>
    </g>
   </g>
   <g id="text_21">
    <!-- 2 Ellipsoid separable -->
    <g transform="translate(124.519188 18.84)scale(0.2 -0.2)">
     <use xlink:href="#DejaVuSans-32"/>
     <use x="63.623047" xlink:href="#DejaVuSans-20"/>
     <use x="95.410156" xlink:href="#DejaVuSans-45"/>
     <use x="158.59375" xlink:href="#DejaVuSans-6c"/>
     <use x="186.376953" xlink:href="#DejaVuSans-6c"/>
     <use x="214.160156" xlink:href="#DejaVuSans-69"/>
     <use x="241.943359" xlink:href="#DejaVuSans-70"/>
     <use x="305.419922" xlink:href="#DejaVuSans-73"/>
     <use x="357.519531" xlink:href="#DejaVuSans-6f"/>
     <use x="418.701172" xlink:href="#DejaVuSans-69"/>
     <use x="446.484375" xlink:href="#DejaVuSans-64"/>
     <use x="509.960938" xlink:href="#DejaVuSans-20"/>
     <use x="541.748047" xlink:href="#DejaVuSans-73"/>
     <use x="593.847656" xlink:href="#DejaVuSans-65"/>
     <use x="655.371094" xlink:href="#DejaVuSans-70"/>
     <use x="718.847656" xlink:href="#DejaVuSans-61"/>
     <use x="780.126953" xlink:href="#DejaVuSans-72"/>
     <use x="821.240234" xlink:href="#DejaVuSans-61"/>
     <use x="882.519531" xlink:href="#DejaVuSans-62"/>
     <use x="945.996094" xlink:href="#DejaVuSans-6c"/>
     <use x="973.779297" xlink:href="#DejaVuSans-65"/>
    </g>
   </g>
  </g>
 </g>
 <defs>
  <clipPath id="p8ba77a9459">
   <rect height="270.04" width="343.864" x="56.12" y="24.84"/>
  </clipPath>
 </defs>
</svg>
