<?xml version="1.0" encoding="utf-8" standalone="no"?>
<!DOCTYPE svg PUBLIC "-//W3C//DTD SVG 1.1//EN"
  "http://www.w3.org/Graphics/SVG/1.1/DTD/svg11.dtd">
<!-- Created with matplotlib (http://matplotlib.org/) -->
<svg height="353pt" version="1.1" viewBox="0 0 561 353" width="561pt" xmlns="http://www.w3.org/2000/svg" xmlns:xlink="http://www.w3.org/1999/xlink">
 <defs>
  <style type="text/css">
*{stroke-linecap:butt;stroke-linejoin:round;}
  </style>
 </defs>
 <g id="figure_1">
  <g id="patch_1">
   <path d="M 0 353.22225 
L 561.699505 353.22225 
L 561.699505 0 
L 0 0 
z
" style="fill:#ffffff;"/>
  </g>
  <g id="axes_1">
   <g id="patch_2">
    <path d="M 138.09888 298.245375 
L 495.21888 298.245375 
L 495.21888 32.133375 
L 138.09888 32.133375 
z
" style="fill:#ffffff;"/>
   </g>
   <g id="line2d_1">
    <path d="M 113.173698 298.245375 
L 113.173698 276.288939 
L 120.138562 276.288939 
L 120.138562 254.332504 
L 128.795518 254.332504 
L 128.795518 232.376068 
L 140.133052 232.376068 
L 140.133052 210.419632 
L 145.700279 210.419632 
L 145.700279 188.463197 
L 150.610921 188.463197 
L 150.610921 166.506761 
L 161.430532 166.506761 
L 161.430532 144.550325 
L 252.772256 144.550325 
L 252.772256 122.59389 
L 270.685927 122.59389 
L 270.685927 100.637454 
L 284.936512 100.637454 
L 284.936512 78.681019 
L 295.345899 78.681019 
L 295.345899 56.724583 
L 301.283301 56.724583 
L 301.283301 34.768147 
L 426.09888 34.768147 
" style="fill:none;stroke:#f5deb3;stroke-linecap:square;stroke-width:6;"/>
   </g>
   <g id="line2d_2"/>
   <g id="line2d_3">
    <path d="M 426.09888 34.768147 
L 457.77888 40.037692 
" style="fill:none;stroke:#f5deb3;stroke-linecap:square;stroke-width:6;"/>
    <defs>
     <path d="M -0 7.778175 
L 7.778175 0 
L 0 -7.778175 
L -7.778175 -0 
z
" id="m9aec6cce3b" style="stroke:#f5deb3;stroke-linejoin:miter;stroke-width:1.5;"/>
    </defs>
    <g>
     <use style="fill:#f5deb3;stroke:#f5deb3;stroke-linejoin:miter;stroke-width:1.5;" x="426.09888" xlink:href="#m9aec6cce3b" y="34.768147"/>
     <use style="fill:#f5deb3;stroke:#f5deb3;stroke-linejoin:miter;stroke-width:1.5;" x="457.77888" xlink:href="#m9aec6cce3b" y="40.037692"/>
    </g>
   </g>
   <g id="matplotlib.axis_1">
    <g id="xtick_1">
     <g id="line2d_4">
      <path clip-path="url(#pfa0249d512)" d="M 138.09888 298.245375 
L 138.09888 32.133375 
" style="fill:none;stroke:#b0b0b0;stroke-linecap:square;stroke-width:0.8;"/>
     </g>
     <g id="line2d_5">
      <defs>
       <path d="M 0 0 
L 0 3.5 
" id="m10e7fe30c7" style="stroke:#000000;stroke-width:0.8;"/>
      </defs>
      <g>
       <use style="stroke:#000000;stroke-width:0.8;" x="138.09888" xlink:href="#m10e7fe30c7" y="298.245375"/>
      </g>
     </g>
     <g id="text_1">
      <!-- 0 -->
      <defs>
       <path d="M 31.78125 66.40625 
Q 24.171875 66.40625 20.328125 58.90625 
Q 16.5 51.421875 16.5 36.375 
Q 16.5 21.390625 20.328125 13.890625 
Q 24.171875 6.390625 31.78125 6.390625 
Q 39.453125 6.390625 43.28125 13.890625 
Q 47.125 21.390625 47.125 36.375 
Q 47.125 51.421875 43.28125 58.90625 
Q 39.453125 66.40625 31.78125 66.40625 
z
M 31.78125 74.21875 
Q 44.046875 74.21875 50.515625 64.515625 
Q 56.984375 54.828125 56.984375 36.375 
Q 56.984375 17.96875 50.515625 8.265625 
Q 44.046875 -1.421875 31.78125 -1.421875 
Q 19.53125 -1.421875 13.0625 8.265625 
Q 6.59375 17.96875 6.59375 36.375 
Q 6.59375 54.828125 13.0625 64.515625 
Q 19.53125 74.21875 31.78125 74.21875 
z
" id="DejaVuSans-30"/>
      </defs>
      <g transform="translate(131.73638 320.44225)scale(0.2 -0.2)">
       <use xlink:href="#DejaVuSans-30"/>
      </g>
     </g>
    </g>
    <g id="xtick_2">
     <g id="line2d_6">
      <path clip-path="url(#pfa0249d512)" d="M 234.09888 298.245375 
L 234.09888 32.133375 
" style="fill:none;stroke:#b0b0b0;stroke-linecap:square;stroke-width:0.8;"/>
     </g>
     <g id="line2d_7">
      <g>
       <use style="stroke:#000000;stroke-width:0.8;" x="234.09888" xlink:href="#m10e7fe30c7" y="298.245375"/>
      </g>
     </g>
     <g id="text_2">
      <!-- 1 -->
      <defs>
       <path d="M 12.40625 8.296875 
L 28.515625 8.296875 
L 28.515625 63.921875 
L 10.984375 60.40625 
L 10.984375 69.390625 
L 28.421875 72.90625 
L 38.28125 72.90625 
L 38.28125 8.296875 
L 54.390625 8.296875 
L 54.390625 0 
L 12.40625 0 
z
" id="DejaVuSans-31"/>
      </defs>
      <g transform="translate(227.73638 320.44225)scale(0.2 -0.2)">
       <use xlink:href="#DejaVuSans-31"/>
      </g>
     </g>
    </g>
    <g id="xtick_3">
     <g id="line2d_8">
      <path clip-path="url(#pfa0249d512)" d="M 330.09888 298.245375 
L 330.09888 32.133375 
" style="fill:none;stroke:#b0b0b0;stroke-linecap:square;stroke-width:0.8;"/>
     </g>
     <g id="line2d_9">
      <g>
       <use style="stroke:#000000;stroke-width:0.8;" x="330.09888" xlink:href="#m10e7fe30c7" y="298.245375"/>
      </g>
     </g>
     <g id="text_3">
      <!-- 2 -->
      <defs>
       <path d="M 19.1875 8.296875 
L 53.609375 8.296875 
L 53.609375 0 
L 7.328125 0 
L 7.328125 8.296875 
Q 12.9375 14.109375 22.625 23.890625 
Q 32.328125 33.6875 34.8125 36.53125 
Q 39.546875 41.84375 41.421875 45.53125 
Q 43.3125 49.21875 43.3125 52.78125 
Q 43.3125 58.59375 39.234375 62.25 
Q 35.15625 65.921875 28.609375 65.921875 
Q 23.96875 65.921875 18.8125 64.3125 
Q 13.671875 62.703125 7.8125 59.421875 
L 7.8125 69.390625 
Q 13.765625 71.78125 18.9375 73 
Q 24.125 74.21875 28.421875 74.21875 
Q 39.75 74.21875 46.484375 68.546875 
Q 53.21875 62.890625 53.21875 53.421875 
Q 53.21875 48.921875 51.53125 44.890625 
Q 49.859375 40.875 45.40625 35.40625 
Q 44.1875 33.984375 37.640625 27.21875 
Q 31.109375 20.453125 19.1875 8.296875 
z
" id="DejaVuSans-32"/>
      </defs>
      <g transform="translate(323.73638 320.44225)scale(0.2 -0.2)">
       <use xlink:href="#DejaVuSans-32"/>
      </g>
     </g>
    </g>
    <g id="xtick_4">
     <g id="line2d_10">
      <path clip-path="url(#pfa0249d512)" d="M 426.09888 298.245375 
L 426.09888 32.133375 
" style="fill:none;stroke:#b0b0b0;stroke-linecap:square;stroke-width:0.8;"/>
     </g>
     <g id="line2d_11">
      <g>
       <use style="stroke:#000000;stroke-width:0.8;" x="426.09888" xlink:href="#m10e7fe30c7" y="298.245375"/>
      </g>
     </g>
     <g id="text_4">
      <!-- 3 -->
      <defs>
       <path d="M 40.578125 39.3125 
Q 47.65625 37.796875 51.625 33 
Q 55.609375 28.21875 55.609375 21.1875 
Q 55.609375 10.40625 48.1875 4.484375 
Q 40.765625 -1.421875 27.09375 -1.421875 
Q 22.515625 -1.421875 17.65625 -0.515625 
Q 12.796875 0.390625 7.625 2.203125 
L 7.625 11.71875 
Q 11.71875 9.328125 16.59375 8.109375 
Q 21.484375 6.890625 26.8125 6.890625 
Q 36.078125 6.890625 40.9375 10.546875 
Q 45.796875 14.203125 45.796875 21.1875 
Q 45.796875 27.640625 41.28125 31.265625 
Q 36.765625 34.90625 28.71875 34.90625 
L 20.21875 34.90625 
L 20.21875 43.015625 
L 29.109375 43.015625 
Q 36.375 43.015625 40.234375 45.921875 
Q 44.09375 48.828125 44.09375 54.296875 
Q 44.09375 59.90625 40.109375 62.90625 
Q 36.140625 65.921875 28.71875 65.921875 
Q 24.65625 65.921875 20.015625 65.03125 
Q 15.375 64.15625 9.8125 62.3125 
L 9.8125 71.09375 
Q 15.4375 72.65625 20.34375 73.4375 
Q 25.25 74.21875 29.59375 74.21875 
Q 40.828125 74.21875 47.359375 69.109375 
Q 53.90625 64.015625 53.90625 55.328125 
Q 53.90625 49.265625 50.4375 45.09375 
Q 46.96875 40.921875 40.578125 39.3125 
z
" id="DejaVuSans-33"/>
      </defs>
      <g transform="translate(419.73638 320.44225)scale(0.2 -0.2)">
       <use xlink:href="#DejaVuSans-33"/>
      </g>
     </g>
    </g>
    <g id="xtick_5">
     <g id="line2d_12">
      <defs>
       <path d="M 0 0 
L 0 2 
" id="mfc600cf1d3" style="stroke:#000000;stroke-width:0.6;"/>
      </defs>
      <g>
       <use style="stroke:#000000;stroke-width:0.6;" x="166.997759" xlink:href="#mfc600cf1d3" y="298.245375"/>
      </g>
     </g>
    </g>
    <g id="xtick_6">
     <g id="line2d_13">
      <g>
       <use style="stroke:#000000;stroke-width:0.6;" x="183.90252" xlink:href="#mfc600cf1d3" y="298.245375"/>
      </g>
     </g>
    </g>
    <g id="xtick_7">
     <g id="line2d_14">
      <g>
       <use style="stroke:#000000;stroke-width:0.6;" x="195.896639" xlink:href="#mfc600cf1d3" y="298.245375"/>
      </g>
     </g>
    </g>
    <g id="xtick_8">
     <g id="line2d_15">
      <g>
       <use style="stroke:#000000;stroke-width:0.6;" x="205.2" xlink:href="#mfc600cf1d3" y="298.245375"/>
      </g>
     </g>
    </g>
    <g id="xtick_9">
     <g id="line2d_16">
      <g>
       <use style="stroke:#000000;stroke-width:0.6;" x="212.8014" xlink:href="#mfc600cf1d3" y="298.245375"/>
      </g>
     </g>
    </g>
    <g id="xtick_10">
     <g id="line2d_17">
      <g>
       <use style="stroke:#000000;stroke-width:0.6;" x="219.228291" xlink:href="#mfc600cf1d3" y="298.245375"/>
      </g>
     </g>
    </g>
    <g id="xtick_11">
     <g id="line2d_18">
      <g>
       <use style="stroke:#000000;stroke-width:0.6;" x="224.795518" xlink:href="#mfc600cf1d3" y="298.245375"/>
      </g>
     </g>
    </g>
    <g id="xtick_12">
     <g id="line2d_19">
      <g>
       <use style="stroke:#000000;stroke-width:0.6;" x="229.70616" xlink:href="#mfc600cf1d3" y="298.245375"/>
      </g>
     </g>
    </g>
    <g id="xtick_13">
     <g id="line2d_20">
      <g>
       <use style="stroke:#000000;stroke-width:0.6;" x="262.997759" xlink:href="#mfc600cf1d3" y="298.245375"/>
      </g>
     </g>
    </g>
    <g id="xtick_14">
     <g id="line2d_21">
      <g>
       <use style="stroke:#000000;stroke-width:0.6;" x="279.90252" xlink:href="#mfc600cf1d3" y="298.245375"/>
      </g>
     </g>
    </g>
    <g id="xtick_15">
     <g id="line2d_22">
      <g>
       <use style="stroke:#000000;stroke-width:0.6;" x="291.896639" xlink:href="#mfc600cf1d3" y="298.245375"/>
      </g>
     </g>
    </g>
    <g id="xtick_16">
     <g id="line2d_23">
      <g>
       <use style="stroke:#000000;stroke-width:0.6;" x="301.2" xlink:href="#mfc600cf1d3" y="298.245375"/>
      </g>
     </g>
    </g>
    <g id="xtick_17">
     <g id="line2d_24">
      <g>
       <use style="stroke:#000000;stroke-width:0.6;" x="308.8014" xlink:href="#mfc600cf1d3" y="298.245375"/>
      </g>
     </g>
    </g>
    <g id="xtick_18">
     <g id="line2d_25">
      <g>
       <use style="stroke:#000000;stroke-width:0.6;" x="315.228291" xlink:href="#mfc600cf1d3" y="298.245375"/>
      </g>
     </g>
    </g>
    <g id="xtick_19">
     <g id="line2d_26">
      <g>
       <use style="stroke:#000000;stroke-width:0.6;" x="320.795518" xlink:href="#mfc600cf1d3" y="298.245375"/>
      </g>
     </g>
    </g>
    <g id="xtick_20">
     <g id="line2d_27">
      <g>
       <use style="stroke:#000000;stroke-width:0.6;" x="325.70616" xlink:href="#mfc600cf1d3" y="298.245375"/>
      </g>
     </g>
    </g>
    <g id="xtick_21">
     <g id="line2d_28">
      <g>
       <use style="stroke:#000000;stroke-width:0.6;" x="358.997759" xlink:href="#mfc600cf1d3" y="298.245375"/>
      </g>
     </g>
    </g>
    <g id="xtick_22">
     <g id="line2d_29">
      <g>
       <use style="stroke:#000000;stroke-width:0.6;" x="375.90252" xlink:href="#mfc600cf1d3" y="298.245375"/>
      </g>
     </g>
    </g>
    <g id="xtick_23">
     <g id="line2d_30">
      <g>
       <use style="stroke:#000000;stroke-width:0.6;" x="387.896639" xlink:href="#mfc600cf1d3" y="298.245375"/>
      </g>
     </g>
    </g>
    <g id="xtick_24">
     <g id="line2d_31">
      <g>
       <use style="stroke:#000000;stroke-width:0.6;" x="397.2" xlink:href="#mfc600cf1d3" y="298.245375"/>
      </g>
     </g>
    </g>
    <g id="xtick_25">
     <g id="line2d_32">
      <g>
       <use style="stroke:#000000;stroke-width:0.6;" x="404.8014" xlink:href="#mfc600cf1d3" y="298.245375"/>
      </g>
     </g>
    </g>
    <g id="xtick_26">
     <g id="line2d_33">
      <g>
       <use style="stroke:#000000;stroke-width:0.6;" x="411.228291" xlink:href="#mfc600cf1d3" y="298.245375"/>
      </g>
     </g>
    </g>
    <g id="xtick_27">
     <g id="line2d_34">
      <g>
       <use style="stroke:#000000;stroke-width:0.6;" x="416.795518" xlink:href="#mfc600cf1d3" y="298.245375"/>
      </g>
     </g>
    </g>
    <g id="xtick_28">
     <g id="line2d_35">
      <g>
       <use style="stroke:#000000;stroke-width:0.6;" x="421.70616" xlink:href="#mfc600cf1d3" y="298.245375"/>
      </g>
     </g>
    </g>
    <g id="xtick_29">
     <g id="line2d_36">
      <g>
       <use style="stroke:#000000;stroke-width:0.6;" x="454.997759" xlink:href="#mfc600cf1d3" y="298.245375"/>
      </g>
     </g>
    </g>
    <g id="xtick_30">
     <g id="line2d_37">
      <g>
       <use style="stroke:#000000;stroke-width:0.6;" x="471.90252" xlink:href="#mfc600cf1d3" y="298.245375"/>
      </g>
     </g>
    </g>
    <g id="xtick_31">
     <g id="line2d_38">
      <g>
       <use style="stroke:#000000;stroke-width:0.6;" x="483.896639" xlink:href="#mfc600cf1d3" y="298.245375"/>
      </g>
     </g>
    </g>
    <g id="xtick_32">
     <g id="line2d_39">
      <g>
       <use style="stroke:#000000;stroke-width:0.6;" x="493.2" xlink:href="#mfc600cf1d3" y="298.245375"/>
      </g>
     </g>
    </g>
    <g id="text_5">
     <!-- log10 of (# f-evals / dimension) -->
     <defs>
      <path d="M 9.421875 75.984375 
L 18.40625 75.984375 
L 18.40625 0 
L 9.421875 0 
z
" id="DejaVuSans-6c"/>
      <path d="M 30.609375 48.390625 
Q 23.390625 48.390625 19.1875 42.75 
Q 14.984375 37.109375 14.984375 27.296875 
Q 14.984375 17.484375 19.15625 11.84375 
Q 23.34375 6.203125 30.609375 6.203125 
Q 37.796875 6.203125 41.984375 11.859375 
Q 46.1875 17.53125 46.1875 27.296875 
Q 46.1875 37.015625 41.984375 42.703125 
Q 37.796875 48.390625 30.609375 48.390625 
z
M 30.609375 56 
Q 42.328125 56 49.015625 48.375 
Q 55.71875 40.765625 55.71875 27.296875 
Q 55.71875 13.875 49.015625 6.21875 
Q 42.328125 -1.421875 30.609375 -1.421875 
Q 18.84375 -1.421875 12.171875 6.21875 
Q 5.515625 13.875 5.515625 27.296875 
Q 5.515625 40.765625 12.171875 48.375 
Q 18.84375 56 30.609375 56 
z
" id="DejaVuSans-6f"/>
      <path d="M 45.40625 27.984375 
Q 45.40625 37.75 41.375 43.109375 
Q 37.359375 48.484375 30.078125 48.484375 
Q 22.859375 48.484375 18.828125 43.109375 
Q 14.796875 37.75 14.796875 27.984375 
Q 14.796875 18.265625 18.828125 12.890625 
Q 22.859375 7.515625 30.078125 7.515625 
Q 37.359375 7.515625 41.375 12.890625 
Q 45.40625 18.265625 45.40625 27.984375 
z
M 54.390625 6.78125 
Q 54.390625 -7.171875 48.1875 -13.984375 
Q 42 -20.796875 29.203125 -20.796875 
Q 24.46875 -20.796875 20.265625 -20.09375 
Q 16.0625 -19.390625 12.109375 -17.921875 
L 12.109375 -9.1875 
Q 16.0625 -11.328125 19.921875 -12.34375 
Q 23.78125 -13.375 27.78125 -13.375 
Q 36.625 -13.375 41.015625 -8.765625 
Q 45.40625 -4.15625 45.40625 5.171875 
L 45.40625 9.625 
Q 42.625 4.78125 38.28125 2.390625 
Q 33.9375 0 27.875 0 
Q 17.828125 0 11.671875 7.65625 
Q 5.515625 15.328125 5.515625 27.984375 
Q 5.515625 40.671875 11.671875 48.328125 
Q 17.828125 56 27.875 56 
Q 33.9375 56 38.28125 53.609375 
Q 42.625 51.21875 45.40625 46.390625 
L 45.40625 54.6875 
L 54.390625 54.6875 
z
" id="DejaVuSans-67"/>
      <path id="DejaVuSans-20"/>
      <path d="M 37.109375 75.984375 
L 37.109375 68.5 
L 28.515625 68.5 
Q 23.6875 68.5 21.796875 66.546875 
Q 19.921875 64.59375 19.921875 59.515625 
L 19.921875 54.6875 
L 34.71875 54.6875 
L 34.71875 47.703125 
L 19.921875 47.703125 
L 19.921875 0 
L 10.890625 0 
L 10.890625 47.703125 
L 2.296875 47.703125 
L 2.296875 54.6875 
L 10.890625 54.6875 
L 10.890625 58.5 
Q 10.890625 67.625 15.140625 71.796875 
Q 19.390625 75.984375 28.609375 75.984375 
z
" id="DejaVuSans-66"/>
      <path d="M 31 75.875 
Q 24.46875 64.65625 21.28125 53.65625 
Q 18.109375 42.671875 18.109375 31.390625 
Q 18.109375 20.125 21.3125 9.0625 
Q 24.515625 -2 31 -13.1875 
L 23.1875 -13.1875 
Q 15.875 -1.703125 12.234375 9.375 
Q 8.59375 20.453125 8.59375 31.390625 
Q 8.59375 42.28125 12.203125 53.3125 
Q 15.828125 64.359375 23.1875 75.875 
z
" id="DejaVuSans-28"/>
      <path d="M 51.125 44 
L 36.921875 44 
L 32.8125 27.6875 
L 47.125 27.6875 
z
M 43.796875 71.78125 
L 38.71875 51.515625 
L 52.984375 51.515625 
L 58.109375 71.78125 
L 65.921875 71.78125 
L 60.890625 51.515625 
L 76.125 51.515625 
L 76.125 44 
L 58.984375 44 
L 54.984375 27.6875 
L 70.515625 27.6875 
L 70.515625 20.21875 
L 53.078125 20.21875 
L 48 0 
L 40.1875 0 
L 45.21875 20.21875 
L 30.90625 20.21875 
L 25.875 0 
L 18.015625 0 
L 23.09375 20.21875 
L 7.71875 20.21875 
L 7.71875 27.6875 
L 24.90625 27.6875 
L 29 44 
L 13.28125 44 
L 13.28125 51.515625 
L 30.90625 51.515625 
L 35.890625 71.78125 
z
" id="DejaVuSans-23"/>
      <path d="M 4.890625 31.390625 
L 31.203125 31.390625 
L 31.203125 23.390625 
L 4.890625 23.390625 
z
" id="DejaVuSans-2d"/>
      <path d="M 56.203125 29.59375 
L 56.203125 25.203125 
L 14.890625 25.203125 
Q 15.484375 15.921875 20.484375 11.0625 
Q 25.484375 6.203125 34.421875 6.203125 
Q 39.59375 6.203125 44.453125 7.46875 
Q 49.3125 8.734375 54.109375 11.28125 
L 54.109375 2.78125 
Q 49.265625 0.734375 44.1875 -0.34375 
Q 39.109375 -1.421875 33.890625 -1.421875 
Q 20.796875 -1.421875 13.15625 6.1875 
Q 5.515625 13.8125 5.515625 26.8125 
Q 5.515625 40.234375 12.765625 48.109375 
Q 20.015625 56 32.328125 56 
Q 43.359375 56 49.78125 48.890625 
Q 56.203125 41.796875 56.203125 29.59375 
z
M 47.21875 32.234375 
Q 47.125 39.59375 43.09375 43.984375 
Q 39.0625 48.390625 32.421875 48.390625 
Q 24.90625 48.390625 20.390625 44.140625 
Q 15.875 39.890625 15.1875 32.171875 
z
" id="DejaVuSans-65"/>
      <path d="M 2.984375 54.6875 
L 12.5 54.6875 
L 29.59375 8.796875 
L 46.6875 54.6875 
L 56.203125 54.6875 
L 35.6875 0 
L 23.484375 0 
z
" id="DejaVuSans-76"/>
      <path d="M 34.28125 27.484375 
Q 23.390625 27.484375 19.1875 25 
Q 14.984375 22.515625 14.984375 16.5 
Q 14.984375 11.71875 18.140625 8.90625 
Q 21.296875 6.109375 26.703125 6.109375 
Q 34.1875 6.109375 38.703125 11.40625 
Q 43.21875 16.703125 43.21875 25.484375 
L 43.21875 27.484375 
z
M 52.203125 31.203125 
L 52.203125 0 
L 43.21875 0 
L 43.21875 8.296875 
Q 40.140625 3.328125 35.546875 0.953125 
Q 30.953125 -1.421875 24.3125 -1.421875 
Q 15.921875 -1.421875 10.953125 3.296875 
Q 6 8.015625 6 15.921875 
Q 6 25.140625 12.171875 29.828125 
Q 18.359375 34.515625 30.609375 34.515625 
L 43.21875 34.515625 
L 43.21875 35.40625 
Q 43.21875 41.609375 39.140625 45 
Q 35.0625 48.390625 27.6875 48.390625 
Q 23 48.390625 18.546875 47.265625 
Q 14.109375 46.140625 10.015625 43.890625 
L 10.015625 52.203125 
Q 14.9375 54.109375 19.578125 55.046875 
Q 24.21875 56 28.609375 56 
Q 40.484375 56 46.34375 49.84375 
Q 52.203125 43.703125 52.203125 31.203125 
z
" id="DejaVuSans-61"/>
      <path d="M 44.28125 53.078125 
L 44.28125 44.578125 
Q 40.484375 46.53125 36.375 47.5 
Q 32.28125 48.484375 27.875 48.484375 
Q 21.1875 48.484375 17.84375 46.4375 
Q 14.5 44.390625 14.5 40.28125 
Q 14.5 37.15625 16.890625 35.375 
Q 19.28125 33.59375 26.515625 31.984375 
L 29.59375 31.296875 
Q 39.15625 29.25 43.1875 25.515625 
Q 47.21875 21.78125 47.21875 15.09375 
Q 47.21875 7.46875 41.1875 3.015625 
Q 35.15625 -1.421875 24.609375 -1.421875 
Q 20.21875 -1.421875 15.453125 -0.5625 
Q 10.6875 0.296875 5.421875 2 
L 5.421875 11.28125 
Q 10.40625 8.6875 15.234375 7.390625 
Q 20.0625 6.109375 24.8125 6.109375 
Q 31.15625 6.109375 34.5625 8.28125 
Q 37.984375 10.453125 37.984375 14.40625 
Q 37.984375 18.0625 35.515625 20.015625 
Q 33.0625 21.96875 24.703125 23.78125 
L 21.578125 24.515625 
Q 13.234375 26.265625 9.515625 29.90625 
Q 5.8125 33.546875 5.8125 39.890625 
Q 5.8125 47.609375 11.28125 51.796875 
Q 16.75 56 26.8125 56 
Q 31.78125 56 36.171875 55.265625 
Q 40.578125 54.546875 44.28125 53.078125 
z
" id="DejaVuSans-73"/>
      <path d="M 25.390625 72.90625 
L 33.6875 72.90625 
L 8.296875 -9.28125 
L 0 -9.28125 
z
" id="DejaVuSans-2f"/>
      <path d="M 45.40625 46.390625 
L 45.40625 75.984375 
L 54.390625 75.984375 
L 54.390625 0 
L 45.40625 0 
L 45.40625 8.203125 
Q 42.578125 3.328125 38.25 0.953125 
Q 33.9375 -1.421875 27.875 -1.421875 
Q 17.96875 -1.421875 11.734375 6.484375 
Q 5.515625 14.40625 5.515625 27.296875 
Q 5.515625 40.1875 11.734375 48.09375 
Q 17.96875 56 27.875 56 
Q 33.9375 56 38.25 53.625 
Q 42.578125 51.265625 45.40625 46.390625 
z
M 14.796875 27.296875 
Q 14.796875 17.390625 18.875 11.75 
Q 22.953125 6.109375 30.078125 6.109375 
Q 37.203125 6.109375 41.296875 11.75 
Q 45.40625 17.390625 45.40625 27.296875 
Q 45.40625 37.203125 41.296875 42.84375 
Q 37.203125 48.484375 30.078125 48.484375 
Q 22.953125 48.484375 18.875 42.84375 
Q 14.796875 37.203125 14.796875 27.296875 
z
" id="DejaVuSans-64"/>
      <path d="M 9.421875 54.6875 
L 18.40625 54.6875 
L 18.40625 0 
L 9.421875 0 
z
M 9.421875 75.984375 
L 18.40625 75.984375 
L 18.40625 64.59375 
L 9.421875 64.59375 
z
" id="DejaVuSans-69"/>
      <path d="M 52 44.1875 
Q 55.375 50.25 60.0625 53.125 
Q 64.75 56 71.09375 56 
Q 79.640625 56 84.28125 50.015625 
Q 88.921875 44.046875 88.921875 33.015625 
L 88.921875 0 
L 79.890625 0 
L 79.890625 32.71875 
Q 79.890625 40.578125 77.09375 44.375 
Q 74.3125 48.1875 68.609375 48.1875 
Q 61.625 48.1875 57.5625 43.546875 
Q 53.515625 38.921875 53.515625 30.90625 
L 53.515625 0 
L 44.484375 0 
L 44.484375 32.71875 
Q 44.484375 40.625 41.703125 44.40625 
Q 38.921875 48.1875 33.109375 48.1875 
Q 26.21875 48.1875 22.15625 43.53125 
Q 18.109375 38.875 18.109375 30.90625 
L 18.109375 0 
L 9.078125 0 
L 9.078125 54.6875 
L 18.109375 54.6875 
L 18.109375 46.1875 
Q 21.1875 51.21875 25.484375 53.609375 
Q 29.78125 56 35.6875 56 
Q 41.65625 56 45.828125 52.96875 
Q 50 49.953125 52 44.1875 
z
" id="DejaVuSans-6d"/>
      <path d="M 54.890625 33.015625 
L 54.890625 0 
L 45.90625 0 
L 45.90625 32.71875 
Q 45.90625 40.484375 42.875 44.328125 
Q 39.84375 48.1875 33.796875 48.1875 
Q 26.515625 48.1875 22.3125 43.546875 
Q 18.109375 38.921875 18.109375 30.90625 
L 18.109375 0 
L 9.078125 0 
L 9.078125 54.6875 
L 18.109375 54.6875 
L 18.109375 46.1875 
Q 21.34375 51.125 25.703125 53.5625 
Q 30.078125 56 35.796875 56 
Q 45.21875 56 50.046875 50.171875 
Q 54.890625 44.34375 54.890625 33.015625 
z
" id="DejaVuSans-6e"/>
      <path d="M 8.015625 75.875 
L 15.828125 75.875 
Q 23.140625 64.359375 26.78125 53.3125 
Q 30.421875 42.28125 30.421875 31.390625 
Q 30.421875 20.453125 26.78125 9.375 
Q 23.140625 -1.703125 15.828125 -13.1875 
L 8.015625 -13.1875 
Q 14.5 -2 17.703125 9.0625 
Q 20.90625 20.125 20.90625 31.390625 
Q 20.90625 42.671875 17.703125 53.65625 
Q 14.5 64.65625 8.015625 75.875 
z
" id="DejaVuSans-29"/>
     </defs>
     <g transform="translate(174.314036 342.278812)scale(0.18 -0.18)">
      <use xlink:href="#DejaVuSans-6c"/>
      <use x="27.783203" xlink:href="#DejaVuSans-6f"/>
      <use x="88.964844" xlink:href="#DejaVuSans-67"/>
      <use x="152.441406" xlink:href="#DejaVuSans-31"/>
      <use x="216.064453" xlink:href="#DejaVuSans-30"/>
      <use x="279.6875" xlink:href="#DejaVuSans-20"/>
      <use x="311.474609" xlink:href="#DejaVuSans-6f"/>
      <use x="372.65625" xlink:href="#DejaVuSans-66"/>
      <use x="407.861328" xlink:href="#DejaVuSans-20"/>
      <use x="439.648438" xlink:href="#DejaVuSans-28"/>
      <use x="478.662109" xlink:href="#DejaVuSans-23"/>
      <use x="562.451172" xlink:href="#DejaVuSans-20"/>
      <use x="594.238281" xlink:href="#DejaVuSans-66"/>
      <use x="629.365234" xlink:href="#DejaVuSans-2d"/>
      <use x="665.449219" xlink:href="#DejaVuSans-65"/>
      <use x="726.972656" xlink:href="#DejaVuSans-76"/>
      <use x="786.152344" xlink:href="#DejaVuSans-61"/>
      <use x="847.431641" xlink:href="#DejaVuSans-6c"/>
      <use x="875.214844" xlink:href="#DejaVuSans-73"/>
      <use x="927.314453" xlink:href="#DejaVuSans-20"/>
      <use x="959.101562" xlink:href="#DejaVuSans-2f"/>
      <use x="992.792969" xlink:href="#DejaVuSans-20"/>
      <use x="1024.580078" xlink:href="#DejaVuSans-64"/>
      <use x="1088.056641" xlink:href="#DejaVuSans-69"/>
      <use x="1115.839844" xlink:href="#DejaVuSans-6d"/>
      <use x="1213.251953" xlink:href="#DejaVuSans-65"/>
      <use x="1274.775391" xlink:href="#DejaVuSans-6e"/>
      <use x="1338.154297" xlink:href="#DejaVuSans-73"/>
      <use x="1390.253906" xlink:href="#DejaVuSans-69"/>
      <use x="1418.037109" xlink:href="#DejaVuSans-6f"/>
      <use x="1479.21875" xlink:href="#DejaVuSans-6e"/>
      <use x="1542.597656" xlink:href="#DejaVuSans-29"/>
     </g>
    </g>
   </g>
   <g id="matplotlib.axis_2">
    <g id="ytick_1">
     <g id="line2d_40">
      <path clip-path="url(#pfa0249d512)" d="M 138.09888 298.245375 
L 495.21888 298.245375 
" style="fill:none;stroke:#b0b0b0;stroke-linecap:square;stroke-width:0.8;"/>
     </g>
     <g id="line2d_41">
      <defs>
       <path d="M 0 0 
L -3.5 0 
" id="m2ba4a59197" style="stroke:#000000;stroke-width:0.8;"/>
      </defs>
      <g>
       <use style="stroke:#000000;stroke-width:0.8;" x="138.09888" xlink:href="#m2ba4a59197" y="298.245375"/>
      </g>
     </g>
     <g id="text_6">
      <!-- 0.0 -->
      <defs>
       <path d="M 10.6875 12.40625 
L 21 12.40625 
L 21 0 
L 10.6875 0 
z
" id="DejaVuSans-2e"/>
      </defs>
      <g transform="translate(99.29263 305.843812)scale(0.2 -0.2)">
       <use xlink:href="#DejaVuSans-30"/>
       <use x="63.623047" xlink:href="#DejaVuSans-2e"/>
       <use x="95.410156" xlink:href="#DejaVuSans-30"/>
      </g>
     </g>
    </g>
    <g id="ytick_2">
     <g id="line2d_42">
      <path clip-path="url(#pfa0249d512)" d="M 138.09888 245.549929 
L 495.21888 245.549929 
" style="fill:none;stroke:#b0b0b0;stroke-linecap:square;stroke-width:0.8;"/>
     </g>
     <g id="line2d_43">
      <g>
       <use style="stroke:#000000;stroke-width:0.8;" x="138.09888" xlink:href="#m2ba4a59197" y="245.549929"/>
      </g>
     </g>
     <g id="text_7">
      <!-- 0.2 -->
      <g transform="translate(99.29263 253.148367)scale(0.2 -0.2)">
       <use xlink:href="#DejaVuSans-30"/>
       <use x="63.623047" xlink:href="#DejaVuSans-2e"/>
       <use x="95.410156" xlink:href="#DejaVuSans-32"/>
      </g>
     </g>
    </g>
    <g id="ytick_3">
     <g id="line2d_44">
      <path clip-path="url(#pfa0249d512)" d="M 138.09888 192.854484 
L 495.21888 192.854484 
" style="fill:none;stroke:#b0b0b0;stroke-linecap:square;stroke-width:0.8;"/>
     </g>
     <g id="line2d_45">
      <g>
       <use style="stroke:#000000;stroke-width:0.8;" x="138.09888" xlink:href="#m2ba4a59197" y="192.854484"/>
      </g>
     </g>
     <g id="text_8">
      <!-- 0.4 -->
      <defs>
       <path d="M 37.796875 64.3125 
L 12.890625 25.390625 
L 37.796875 25.390625 
z
M 35.203125 72.90625 
L 47.609375 72.90625 
L 47.609375 25.390625 
L 58.015625 25.390625 
L 58.015625 17.1875 
L 47.609375 17.1875 
L 47.609375 0 
L 37.796875 0 
L 37.796875 17.1875 
L 4.890625 17.1875 
L 4.890625 26.703125 
z
" id="DejaVuSans-34"/>
      </defs>
      <g transform="translate(99.29263 200.452921)scale(0.2 -0.2)">
       <use xlink:href="#DejaVuSans-30"/>
       <use x="63.623047" xlink:href="#DejaVuSans-2e"/>
       <use x="95.410156" xlink:href="#DejaVuSans-34"/>
      </g>
     </g>
    </g>
    <g id="ytick_4">
     <g id="line2d_46">
      <path clip-path="url(#pfa0249d512)" d="M 138.09888 140.159038 
L 495.21888 140.159038 
" style="fill:none;stroke:#b0b0b0;stroke-linecap:square;stroke-width:0.8;"/>
     </g>
     <g id="line2d_47">
      <g>
       <use style="stroke:#000000;stroke-width:0.8;" x="138.09888" xlink:href="#m2ba4a59197" y="140.159038"/>
      </g>
     </g>
     <g id="text_9">
      <!-- 0.6 -->
      <defs>
       <path d="M 33.015625 40.375 
Q 26.375 40.375 22.484375 35.828125 
Q 18.609375 31.296875 18.609375 23.390625 
Q 18.609375 15.53125 22.484375 10.953125 
Q 26.375 6.390625 33.015625 6.390625 
Q 39.65625 6.390625 43.53125 10.953125 
Q 47.40625 15.53125 47.40625 23.390625 
Q 47.40625 31.296875 43.53125 35.828125 
Q 39.65625 40.375 33.015625 40.375 
z
M 52.59375 71.296875 
L 52.59375 62.3125 
Q 48.875 64.0625 45.09375 64.984375 
Q 41.3125 65.921875 37.59375 65.921875 
Q 27.828125 65.921875 22.671875 59.328125 
Q 17.53125 52.734375 16.796875 39.40625 
Q 19.671875 43.65625 24.015625 45.921875 
Q 28.375 48.1875 33.59375 48.1875 
Q 44.578125 48.1875 50.953125 41.515625 
Q 57.328125 34.859375 57.328125 23.390625 
Q 57.328125 12.15625 50.6875 5.359375 
Q 44.046875 -1.421875 33.015625 -1.421875 
Q 20.359375 -1.421875 13.671875 8.265625 
Q 6.984375 17.96875 6.984375 36.375 
Q 6.984375 53.65625 15.1875 63.9375 
Q 23.390625 74.21875 37.203125 74.21875 
Q 40.921875 74.21875 44.703125 73.484375 
Q 48.484375 72.75 52.59375 71.296875 
z
" id="DejaVuSans-36"/>
      </defs>
      <g transform="translate(99.29263 147.757476)scale(0.2 -0.2)">
       <use xlink:href="#DejaVuSans-30"/>
       <use x="63.623047" xlink:href="#DejaVuSans-2e"/>
       <use x="95.410156" xlink:href="#DejaVuSans-36"/>
      </g>
     </g>
    </g>
    <g id="ytick_5">
     <g id="line2d_48">
      <path clip-path="url(#pfa0249d512)" d="M 138.09888 87.463593 
L 495.21888 87.463593 
" style="fill:none;stroke:#b0b0b0;stroke-linecap:square;stroke-width:0.8;"/>
     </g>
     <g id="line2d_49">
      <g>
       <use style="stroke:#000000;stroke-width:0.8;" x="138.09888" xlink:href="#m2ba4a59197" y="87.463593"/>
      </g>
     </g>
     <g id="text_10">
      <!-- 0.8 -->
      <defs>
       <path d="M 31.78125 34.625 
Q 24.75 34.625 20.71875 30.859375 
Q 16.703125 27.09375 16.703125 20.515625 
Q 16.703125 13.921875 20.71875 10.15625 
Q 24.75 6.390625 31.78125 6.390625 
Q 38.8125 6.390625 42.859375 10.171875 
Q 46.921875 13.96875 46.921875 20.515625 
Q 46.921875 27.09375 42.890625 30.859375 
Q 38.875 34.625 31.78125 34.625 
z
M 21.921875 38.8125 
Q 15.578125 40.375 12.03125 44.71875 
Q 8.5 49.078125 8.5 55.328125 
Q 8.5 64.0625 14.71875 69.140625 
Q 20.953125 74.21875 31.78125 74.21875 
Q 42.671875 74.21875 48.875 69.140625 
Q 55.078125 64.0625 55.078125 55.328125 
Q 55.078125 49.078125 51.53125 44.71875 
Q 48 40.375 41.703125 38.8125 
Q 48.828125 37.15625 52.796875 32.3125 
Q 56.78125 27.484375 56.78125 20.515625 
Q 56.78125 9.90625 50.3125 4.234375 
Q 43.84375 -1.421875 31.78125 -1.421875 
Q 19.734375 -1.421875 13.25 4.234375 
Q 6.78125 9.90625 6.78125 20.515625 
Q 6.78125 27.484375 10.78125 32.3125 
Q 14.796875 37.15625 21.921875 38.8125 
z
M 18.3125 54.390625 
Q 18.3125 48.734375 21.84375 45.5625 
Q 25.390625 42.390625 31.78125 42.390625 
Q 38.140625 42.390625 41.71875 45.5625 
Q 45.3125 48.734375 45.3125 54.390625 
Q 45.3125 60.0625 41.71875 63.234375 
Q 38.140625 66.40625 31.78125 66.40625 
Q 25.390625 66.40625 21.84375 63.234375 
Q 18.3125 60.0625 18.3125 54.390625 
z
" id="DejaVuSans-38"/>
      </defs>
      <g transform="translate(99.29263 95.06203)scale(0.2 -0.2)">
       <use xlink:href="#DejaVuSans-30"/>
       <use x="63.623047" xlink:href="#DejaVuSans-2e"/>
       <use x="95.410156" xlink:href="#DejaVuSans-38"/>
      </g>
     </g>
    </g>
    <g id="ytick_6">
     <g id="line2d_50">
      <path clip-path="url(#pfa0249d512)" d="M 138.09888 34.768147 
L 495.21888 34.768147 
" style="fill:none;stroke:#b0b0b0;stroke-linecap:square;stroke-width:0.8;"/>
     </g>
     <g id="line2d_51">
      <g>
       <use style="stroke:#000000;stroke-width:0.8;" x="138.09888" xlink:href="#m2ba4a59197" y="34.768147"/>
      </g>
     </g>
     <g id="text_11">
      <!-- 1.0 -->
      <g transform="translate(99.29263 42.366585)scale(0.2 -0.2)">
       <use xlink:href="#DejaVuSans-31"/>
       <use x="63.623047" xlink:href="#DejaVuSans-2e"/>
       <use x="95.410156" xlink:href="#DejaVuSans-30"/>
      </g>
     </g>
    </g>
    <g id="text_12">
     <!-- Proportion of function+target pairs -->
     <defs>
      <path d="M 19.671875 64.796875 
L 19.671875 37.40625 
L 32.078125 37.40625 
Q 38.96875 37.40625 42.71875 40.96875 
Q 46.484375 44.53125 46.484375 51.125 
Q 46.484375 57.671875 42.71875 61.234375 
Q 38.96875 64.796875 32.078125 64.796875 
z
M 9.8125 72.90625 
L 32.078125 72.90625 
Q 44.34375 72.90625 50.609375 67.359375 
Q 56.890625 61.8125 56.890625 51.125 
Q 56.890625 40.328125 50.609375 34.8125 
Q 44.34375 29.296875 32.078125 29.296875 
L 19.671875 29.296875 
L 19.671875 0 
L 9.8125 0 
z
" id="DejaVuSans-50"/>
      <path d="M 41.109375 46.296875 
Q 39.59375 47.171875 37.8125 47.578125 
Q 36.03125 48 33.890625 48 
Q 26.265625 48 22.1875 43.046875 
Q 18.109375 38.09375 18.109375 28.8125 
L 18.109375 0 
L 9.078125 0 
L 9.078125 54.6875 
L 18.109375 54.6875 
L 18.109375 46.1875 
Q 20.953125 51.171875 25.484375 53.578125 
Q 30.03125 56 36.53125 56 
Q 37.453125 56 38.578125 55.875 
Q 39.703125 55.765625 41.0625 55.515625 
z
" id="DejaVuSans-72"/>
      <path d="M 18.109375 8.203125 
L 18.109375 -20.796875 
L 9.078125 -20.796875 
L 9.078125 54.6875 
L 18.109375 54.6875 
L 18.109375 46.390625 
Q 20.953125 51.265625 25.265625 53.625 
Q 29.59375 56 35.59375 56 
Q 45.5625 56 51.78125 48.09375 
Q 58.015625 40.1875 58.015625 27.296875 
Q 58.015625 14.40625 51.78125 6.484375 
Q 45.5625 -1.421875 35.59375 -1.421875 
Q 29.59375 -1.421875 25.265625 0.953125 
Q 20.953125 3.328125 18.109375 8.203125 
z
M 48.6875 27.296875 
Q 48.6875 37.203125 44.609375 42.84375 
Q 40.53125 48.484375 33.40625 48.484375 
Q 26.265625 48.484375 22.1875 42.84375 
Q 18.109375 37.203125 18.109375 27.296875 
Q 18.109375 17.390625 22.1875 11.75 
Q 26.265625 6.109375 33.40625 6.109375 
Q 40.53125 6.109375 44.609375 11.75 
Q 48.6875 17.390625 48.6875 27.296875 
z
" id="DejaVuSans-70"/>
      <path d="M 18.3125 70.21875 
L 18.3125 54.6875 
L 36.8125 54.6875 
L 36.8125 47.703125 
L 18.3125 47.703125 
L 18.3125 18.015625 
Q 18.3125 11.328125 20.140625 9.421875 
Q 21.96875 7.515625 27.59375 7.515625 
L 36.8125 7.515625 
L 36.8125 0 
L 27.59375 0 
Q 17.1875 0 13.234375 3.875 
Q 9.28125 7.765625 9.28125 18.015625 
L 9.28125 47.703125 
L 2.6875 47.703125 
L 2.6875 54.6875 
L 9.28125 54.6875 
L 9.28125 70.21875 
z
" id="DejaVuSans-74"/>
      <path d="M 8.5 21.578125 
L 8.5 54.6875 
L 17.484375 54.6875 
L 17.484375 21.921875 
Q 17.484375 14.15625 20.5 10.265625 
Q 23.53125 6.390625 29.59375 6.390625 
Q 36.859375 6.390625 41.078125 11.03125 
Q 45.3125 15.671875 45.3125 23.6875 
L 45.3125 54.6875 
L 54.296875 54.6875 
L 54.296875 0 
L 45.3125 0 
L 45.3125 8.40625 
Q 42.046875 3.421875 37.71875 1 
Q 33.40625 -1.421875 27.6875 -1.421875 
Q 18.265625 -1.421875 13.375 4.4375 
Q 8.5 10.296875 8.5 21.578125 
z
M 31.109375 56 
z
" id="DejaVuSans-75"/>
      <path d="M 48.78125 52.59375 
L 48.78125 44.1875 
Q 44.96875 46.296875 41.140625 47.34375 
Q 37.3125 48.390625 33.40625 48.390625 
Q 24.65625 48.390625 19.8125 42.84375 
Q 14.984375 37.3125 14.984375 27.296875 
Q 14.984375 17.28125 19.8125 11.734375 
Q 24.65625 6.203125 33.40625 6.203125 
Q 37.3125 6.203125 41.140625 7.25 
Q 44.96875 8.296875 48.78125 10.40625 
L 48.78125 2.09375 
Q 45.015625 0.34375 40.984375 -0.53125 
Q 36.96875 -1.421875 32.421875 -1.421875 
Q 20.0625 -1.421875 12.78125 6.34375 
Q 5.515625 14.109375 5.515625 27.296875 
Q 5.515625 40.671875 12.859375 48.328125 
Q 20.21875 56 33.015625 56 
Q 37.15625 56 41.109375 55.140625 
Q 45.0625 54.296875 48.78125 52.59375 
z
" id="DejaVuSans-63"/>
      <path d="M 46 62.703125 
L 46 35.5 
L 73.1875 35.5 
L 73.1875 27.203125 
L 46 27.203125 
L 46 0 
L 37.796875 0 
L 37.796875 27.203125 
L 10.59375 27.203125 
L 10.59375 35.5 
L 37.796875 35.5 
L 37.796875 62.703125 
z
" id="DejaVuSans-2b"/>
     </defs>
     <g transform="translate(91.549192 323.17875)rotate(-90)scale(0.18 -0.18)">
      <use xlink:href="#DejaVuSans-50"/>
      <use x="60.287109" xlink:href="#DejaVuSans-72"/>
      <use x="101.369141" xlink:href="#DejaVuSans-6f"/>
      <use x="162.550781" xlink:href="#DejaVuSans-70"/>
      <use x="226.027344" xlink:href="#DejaVuSans-6f"/>
      <use x="287.208984" xlink:href="#DejaVuSans-72"/>
      <use x="328.322266" xlink:href="#DejaVuSans-74"/>
      <use x="367.53125" xlink:href="#DejaVuSans-69"/>
      <use x="395.314453" xlink:href="#DejaVuSans-6f"/>
      <use x="456.496094" xlink:href="#DejaVuSans-6e"/>
      <use x="519.875" xlink:href="#DejaVuSans-20"/>
      <use x="551.662109" xlink:href="#DejaVuSans-6f"/>
      <use x="612.84375" xlink:href="#DejaVuSans-66"/>
      <use x="648.048828" xlink:href="#DejaVuSans-20"/>
      <use x="679.835938" xlink:href="#DejaVuSans-66"/>
      <use x="715.041016" xlink:href="#DejaVuSans-75"/>
      <use x="778.419922" xlink:href="#DejaVuSans-6e"/>
      <use x="841.798828" xlink:href="#DejaVuSans-63"/>
      <use x="896.779297" xlink:href="#DejaVuSans-74"/>
      <use x="935.988281" xlink:href="#DejaVuSans-69"/>
      <use x="963.771484" xlink:href="#DejaVuSans-6f"/>
      <use x="1024.953125" xlink:href="#DejaVuSans-6e"/>
      <use x="1088.332031" xlink:href="#DejaVuSans-2b"/>
      <use x="1172.121094" xlink:href="#DejaVuSans-74"/>
      <use x="1211.330078" xlink:href="#DejaVuSans-61"/>
      <use x="1272.609375" xlink:href="#DejaVuSans-72"/>
      <use x="1313.707031" xlink:href="#DejaVuSans-67"/>
      <use x="1377.183594" xlink:href="#DejaVuSans-65"/>
      <use x="1438.707031" xlink:href="#DejaVuSans-74"/>
      <use x="1477.916016" xlink:href="#DejaVuSans-20"/>
      <use x="1509.703125" xlink:href="#DejaVuSans-70"/>
      <use x="1573.179688" xlink:href="#DejaVuSans-61"/>
      <use x="1634.458984" xlink:href="#DejaVuSans-69"/>
      <use x="1662.242188" xlink:href="#DejaVuSans-72"/>
      <use x="1703.355469" xlink:href="#DejaVuSans-73"/>
     </g>
    </g>
   </g>
   <g id="line2d_52">
    <defs>
     <path d="M 0 1.5 
C 0.397805 1.5 0.77937 1.341951 1.06066 1.06066 
C 1.341951 0.77937 1.5 0.397805 1.5 0 
C 1.5 -0.397805 1.341951 -0.77937 1.06066 -1.06066 
C 0.77937 -1.341951 0.397805 -1.5 0 -1.5 
C -0.397805 -1.5 -0.77937 -1.341951 -1.06066 -1.06066 
C -1.341951 -0.77937 -1.5 -0.397805 -1.5 0 
C -1.5 0.397805 -1.341951 0.77937 -1.06066 1.06066 
C -0.77937 1.341951 -0.397805 1.5 0 1.5 
z
" id="m8be4ed3a33" style="stroke:#f5deb3;"/>
    </defs>
    <g>
     <use style="fill:#f5deb3;stroke:#f5deb3;" x="301.283301" xlink:href="#m8be4ed3a33" y="34.768147"/>
     <use style="fill:#f5deb3;stroke:#f5deb3;" x="301.283301" xlink:href="#m8be4ed3a33" y="34.768147"/>
    </g>
   </g>
   <g id="line2d_53">
    <g>
     <use style="fill:#f5deb3;stroke:#f5deb3;stroke-linejoin:miter;stroke-width:1.5;" x="145.700279" xlink:href="#m9aec6cce3b" y="210.419632"/>
     <use style="fill:#f5deb3;stroke:#f5deb3;stroke-linejoin:miter;stroke-width:1.5;" x="161.430532" xlink:href="#m9aec6cce3b" y="166.506761"/>
     <use style="fill:#f5deb3;stroke:#f5deb3;stroke-linejoin:miter;stroke-width:1.5;" x="284.936512" xlink:href="#m9aec6cce3b" y="100.637454"/>
     <use style="fill:#f5deb3;stroke:#f5deb3;stroke-linejoin:miter;stroke-width:1.5;" x="301.283301" xlink:href="#m9aec6cce3b" y="56.724583"/>
     <use style="fill:#f5deb3;stroke:#f5deb3;stroke-linejoin:miter;stroke-width:1.5;" x="301.283301" xlink:href="#m9aec6cce3b" y="34.768147"/>
     <use style="fill:#f5deb3;stroke:#f5deb3;stroke-linejoin:miter;stroke-width:1.5;" x="426.09888" xlink:href="#m9aec6cce3b" y="34.768147"/>
    </g>
   </g>
   <g id="line2d_54">
    <defs>
     <path d="M 0 1.5 
C 0.397805 1.5 0.77937 1.341951 1.06066 1.06066 
C 1.341951 0.77937 1.5 0.397805 1.5 0 
C 1.5 -0.397805 1.341951 -0.77937 1.06066 -1.06066 
C 0.77937 -1.341951 0.397805 -1.5 0 -1.5 
C -0.397805 -1.5 -0.77937 -1.341951 -1.06066 -1.06066 
C -1.341951 -0.77937 -1.5 -0.397805 -1.5 0 
C -1.5 0.397805 -1.341951 0.77937 -1.06066 1.06066 
C -0.77937 1.341951 -0.397805 1.5 0 1.5 
z
" id="m5a9c0a415e" style="stroke:#000080;"/>
    </defs>
    <g>
     <use style="fill:#000080;stroke:#000080;" x="340.780081" xlink:href="#m5a9c0a415e" y="34.768147"/>
     <use style="fill:#000080;stroke:#000080;" x="340.780081" xlink:href="#m5a9c0a415e" y="34.768147"/>
    </g>
   </g>
   <g id="line2d_55">
    <path d="M 13.2 298.245375 
L 13.2 282.87587 
L 142.072577 282.87587 
L 142.072577 280.680226 
L 170.012972 280.680226 
L 170.012972 243.354286 
L 186.593278 243.354286 
L 186.593278 203.832702 
L 198.424217 203.832702 
L 198.424217 184.07191 
L 207.629363 184.07191 
L 207.629363 179.680623 
L 215.165157 179.680623 
L 215.165157 159.91983 
L 221.545125 159.91983 
L 221.545125 153.3329 
L 227.077124 153.3329 
L 227.077124 151.137256 
L 250.302914 151.137256 
L 250.302914 137.963395 
L 255.85247 137.963395 
L 255.85247 131.376464 
L 262.997759 131.376464 
L 262.997759 129.180821 
L 267.160538 129.180821 
L 267.160538 124.789533 
L 269.095775 124.789533 
L 269.095775 116.006959 
L 270.945155 116.006959 
L 270.945155 113.811316 
L 272.715972 113.811316 
L 272.715972 102.833098 
L 274.414631 102.833098 
L 274.414631 100.637454 
L 276.046783 100.637454 
L 276.046783 85.267949 
L 277.61744 85.267949 
L 277.61744 83.072306 
L 279.131068 83.072306 
L 279.131068 72.094088 
L 280.591664 72.094088 
L 280.591664 69.898444 
L 282.002818 69.898444 
L 282.002818 65.507157 
L 293.980416 65.507157 
L 293.980416 63.311514 
L 295.008698 63.311514 
L 295.008698 61.11587 
L 296.012228 61.11587 
L 296.012228 58.920226 
L 296.992169 58.920226 
L 296.992169 52.333296 
L 304.098699 52.333296 
L 304.098699 50.137652 
L 307.243952 50.137652 
L 307.243952 45.746365 
L 308.731855 45.746365 
L 308.731855 43.550722 
L 318.464537 43.550722 
L 318.464537 36.963791 
L 340.780081 36.963791 
L 340.780081 34.768147 
L 426.09888 34.768147 
" style="fill:none;stroke:#000080;stroke-linecap:square;stroke-width:1.5;"/>
   </g>
   <g id="line2d_56">
    <defs>
     <path d="M 0 6 
C 1.591219 6 3.117479 5.367802 4.242641 4.242641 
C 5.367802 3.117479 6 1.591219 6 0 
C 6 -1.591219 5.367802 -3.117479 4.242641 -4.242641 
C 3.117479 -5.367802 1.591219 -6 0 -6 
C -1.591219 -6 -3.117479 -5.367802 -4.242641 -4.242641 
C -5.367802 -3.117479 -6 -1.591219 -6 0 
C -6 1.591219 -5.367802 3.117479 -4.242641 4.242641 
C -3.117479 5.367802 -1.591219 6 0 6 
z
" id="m24fe2e413c" style="stroke:#000080;stroke-width:1.5;"/>
    </defs>
    <g>
     <use style="fill:none;stroke:#000080;stroke-width:1.5;" x="13.2" xlink:href="#m24fe2e413c" y="282.87587"/>
     <use style="fill:none;stroke:#000080;stroke-width:1.5;" x="170.012972" xlink:href="#m24fe2e413c" y="243.354286"/>
     <use style="fill:none;stroke:#000080;stroke-width:1.5;" x="227.077124" xlink:href="#m24fe2e413c" y="153.3329"/>
     <use style="fill:none;stroke:#000080;stroke-width:1.5;" x="270.945155" xlink:href="#m24fe2e413c" y="113.811316"/>
     <use style="fill:none;stroke:#000080;stroke-width:1.5;" x="308.731855" xlink:href="#m24fe2e413c" y="43.550722"/>
     <use style="fill:none;stroke:#000080;stroke-width:1.5;" x="340.780081" xlink:href="#m24fe2e413c" y="34.768147"/>
     <use style="fill:none;stroke:#000080;stroke-width:1.5;" x="426.09888" xlink:href="#m24fe2e413c" y="34.768147"/>
    </g>
   </g>
   <g id="line2d_57"/>
   <g id="line2d_58">
    <defs>
     <path d="M 0 1.5 
C 0.397805 1.5 0.77937 1.341951 1.06066 1.06066 
C 1.341951 0.77937 1.5 0.397805 1.5 0 
C 1.5 -0.397805 1.341951 -0.77937 1.06066 -1.06066 
C 0.77937 -1.341951 0.397805 -1.5 0 -1.5 
C -0.397805 -1.5 -0.77937 -1.341951 -1.06066 -1.06066 
C -1.341951 -0.77937 -1.5 -0.397805 -1.5 0 
C -1.5 0.397805 -1.341951 0.77937 -1.06066 1.06066 
C -0.77937 1.341951 -0.397805 1.5 0 1.5 
z
" id="m50d65a6734" style="stroke:#ff00ff;"/>
    </defs>
    <g>
     <use style="fill:#ff00ff;stroke:#ff00ff;" x="402.121759" xlink:href="#m50d65a6734" y="34.768147"/>
     <use style="fill:#ff00ff;stroke:#ff00ff;" x="402.121759" xlink:href="#m50d65a6734" y="34.768147"/>
    </g>
   </g>
   <g id="line2d_59">
    <path d="M 59.00364 298.245375 
L 59.00364 296.049731 
L 70.997759 296.049731 
L 70.997759 276.288939 
L 87.90252 276.288939 
L 87.90252 263.115078 
L 94.329412 263.115078 
L 94.329412 252.13686 
L 113.173698 252.13686 
L 113.173698 249.941217 
L 123.228291 249.941217 
L 123.228291 238.962999 
L 131.323096 238.962999 
L 131.323096 227.984781 
L 135.960346 227.984781 
L 135.960346 223.593494 
L 145.700279 223.593494 
L 145.700279 221.39785 
L 157.694398 221.39785 
L 157.694398 219.202207 
L 158.977338 219.202207 
L 158.977338 206.028345 
L 164.859225 206.028345 
L 164.859225 201.637058 
L 166.997759 201.637058 
L 166.997759 197.245771 
L 170.012972 197.245771 
L 170.012972 195.050127 
L 180.274818 195.050127 
L 180.274818 190.65884 
L 185.936693 190.65884 
L 185.936693 188.463197 
L 190.329412 188.463197 
L 190.329412 184.07191 
L 192.646245 184.07191 
L 192.646245 177.484979 
L 196.92613 177.484979 
L 196.92613 173.093692 
L 203.498038 173.093692 
L 203.498038 170.898048 
L 208.408681 170.898048 
L 208.408681 164.311118 
L 378.364647 164.311118 
L 378.364647 159.91983 
L 378.859517 159.91983 
L 378.859517 157.724187 
L 382.744264 157.724187 
L 382.744264 153.3329 
L 385.916891 153.3329 
L 385.916891 146.745969 
L 387.176474 146.745969 
L 387.176474 144.550325 
L 387.372201 144.550325 
L 387.372201 142.354682 
L 387.844491 142.354682 
L 387.844491 137.963395 
L 388.768214 137.963395 
L 388.768214 135.767751 
L 388.809024 135.767751 
L 388.809024 133.572108 
L 388.987098 133.572108 
L 388.987098 131.376464 
L 389.002327 131.376464 
L 389.002327 129.180821 
L 389.721827 129.180821 
L 389.721827 126.985177 
L 389.886117 126.985177 
L 389.886117 124.789533 
L 390.375138 124.789533 
L 390.375138 122.59389 
L 390.384959 122.59389 
L 390.384959 120.398246 
L 390.688248 120.398246 
L 390.688248 118.202603 
L 391.532591 118.202603 
L 391.532591 113.811316 
L 392.111265 113.811316 
L 392.111265 107.224385 
L 392.313324 107.224385 
L 392.313324 105.028741 
L 393.001392 105.028741 
L 393.001392 102.833098 
L 393.386925 102.833098 
L 393.386925 100.637454 
L 393.446273 100.637454 
L 393.446273 98.441811 
L 394.335441 98.441811 
L 394.335441 96.246167 
L 394.366689 96.246167 
L 394.366689 94.050524 
L 396.045976 94.050524 
L 396.045976 89.659236 
L 396.178638 89.659236 
L 396.178638 85.267949 
L 396.476654 85.267949 
L 396.476654 80.876662 
L 396.548709 80.876662 
L 396.548709 74.289731 
L 396.561412 74.289731 
L 396.561412 72.094088 
L 397.158287 72.094088 
L 397.158287 69.898444 
L 397.345668 69.898444 
L 397.345668 67.702801 
L 398.180652 67.702801 
L 398.180652 65.507157 
L 398.416179 65.507157 
L 398.416179 63.311514 
L 398.646357 63.311514 
L 398.646357 58.920226 
L 398.891287 58.920226 
L 398.891287 54.528939 
L 398.89529 54.528939 
L 398.89529 50.137652 
L 399.821647 50.137652 
L 399.821647 47.942009 
L 400.059789 47.942009 
L 400.059789 45.746365 
L 400.558965 45.746365 
L 400.558965 41.355078 
L 401.336359 41.355078 
L 401.336359 39.159434 
L 402.121759 39.159434 
L 402.121759 34.768147 
L 426.09888 34.768147 
" style="fill:none;stroke:#ff00ff;stroke-linecap:square;stroke-width:1.5;"/>
   </g>
   <g id="line2d_60">
    <defs>
     <path d="M -0 8.485281 
L 5.091169 0 
L 0 -8.485281 
L -5.091169 -0 
z
" id="mf6e0c80695" style="stroke:#ff00ff;stroke-linejoin:miter;stroke-width:1.5;"/>
    </defs>
    <g>
     <use style="fill:none;stroke:#ff00ff;stroke-linejoin:miter;stroke-width:1.5;" x="87.90252" xlink:href="#mf6e0c80695" y="276.288939"/>
     <use style="fill:none;stroke:#ff00ff;stroke-linejoin:miter;stroke-width:1.5;" x="164.859225" xlink:href="#mf6e0c80695" y="206.028345"/>
     <use style="fill:none;stroke:#ff00ff;stroke-linejoin:miter;stroke-width:1.5;" x="208.408681" xlink:href="#mf6e0c80695" y="170.898048"/>
     <use style="fill:none;stroke:#ff00ff;stroke-linejoin:miter;stroke-width:1.5;" x="208.408681" xlink:href="#mf6e0c80695" y="164.311118"/>
     <use style="fill:none;stroke:#ff00ff;stroke-linejoin:miter;stroke-width:1.5;" x="402.121759" xlink:href="#mf6e0c80695" y="39.159434"/>
     <use style="fill:none;stroke:#ff00ff;stroke-linejoin:miter;stroke-width:1.5;" x="426.09888" xlink:href="#mf6e0c80695" y="34.768147"/>
    </g>
   </g>
   <g id="line2d_61"/>
   <g id="line2d_62">
    <defs>
     <path d="M 0 1.5 
C 0.397805 1.5 0.77937 1.341951 1.06066 1.06066 
C 1.341951 0.77937 1.5 0.397805 1.5 0 
C 1.5 -0.397805 1.341951 -0.77937 1.06066 -1.06066 
C 0.77937 -1.341951 0.397805 -1.5 0 -1.5 
C -0.397805 -1.5 -0.77937 -1.341951 -1.06066 -1.06066 
C -1.341951 -0.77937 -1.5 -0.397805 -1.5 0 
C -1.5 0.397805 -1.341951 0.77937 -1.06066 1.06066 
C -0.77937 1.341951 -0.397805 1.5 0 1.5 
z
" id="m6e2c19e5c9" style="stroke:#ffa500;"/>
    </defs>
    <g>
     <use style="fill:#ffa500;stroke:#ffa500;" x="495.162639" xlink:href="#m6e2c19e5c9" y="120.398246"/>
     <use style="fill:#ffa500;stroke:#ffa500;" x="495.162639" xlink:href="#m6e2c19e5c9" y="120.398246"/>
    </g>
   </g>
   <g id="line2d_63">
    <path d="M 13.2 298.245375 
L 13.2 296.049731 
L 59.00364 296.049731 
L 59.00364 291.658444 
L 70.997759 291.658444 
L 70.997759 289.462801 
L 87.90252 289.462801 
L 87.90252 278.484583 
L 116.8014 278.484583 
L 116.8014 267.506365 
L 138.09888 267.506365 
L 138.09888 258.723791 
L 142.072577 258.723791 
L 142.072577 247.745573 
L 150.610921 247.745573 
L 150.610921 241.158642 
L 153.590208 241.158642 
L 153.590208 236.767355 
L 158.977338 236.767355 
L 158.977338 234.571712 
L 160.221976 234.571712 
L 160.221976 217.006563 
L 163.747366 217.006563 
L 163.747366 214.81092 
L 165.942202 214.81092 
L 165.942202 208.223989 
L 173.721394 208.223989 
L 173.721394 203.832702 
L 183.90252 203.832702 
L 183.90252 199.441415 
L 203.930086 199.441415 
L 203.930086 190.65884 
L 205.614852 190.65884 
L 205.614852 186.267553 
L 206.835201 186.267553 
L 206.835201 181.876266 
L 208.408681 181.876266 
L 208.408681 173.093692 
L 213.147396 173.093692 
L 213.147396 170.898048 
L 239.925872 170.898048 
L 239.925872 168.702405 
L 253.037813 168.702405 
L 253.037813 166.506761 
L 257.311241 166.506761 
L 257.311241 159.91983 
L 275.043961 159.91983 
L 275.043961 155.528543 
L 277.982844 155.528543 
L 277.982844 153.3329 
L 298.129509 153.3329 
L 298.129509 151.137256 
L 305.475817 151.137256 
L 305.475817 148.941613 
L 322.829691 148.941613 
L 322.829691 144.550325 
L 339.635066 144.550325 
L 339.635066 142.354682 
L 339.668221 142.354682 
L 339.668221 140.159038 
L 358.715382 140.159038 
L 358.715382 135.767751 
L 363.461295 135.767751 
L 363.461295 133.572108 
L 419.030224 133.572108 
L 419.030224 129.180821 
L 420.955939 129.180821 
L 420.955939 126.985177 
L 423.109092 126.985177 
L 423.109092 122.59389 
L 426.09888 122.59389 
" style="fill:none;stroke:#ffa500;stroke-linecap:square;stroke-width:1.5;"/>
   </g>
   <g id="line2d_64">
    <defs>
     <path d="M 0 -6 
L -1.347084 -1.854102 
L -5.706339 -1.854102 
L -2.179628 0.708204 
L -3.526712 4.854102 
L -0 2.291796 
L 3.526712 4.854102 
L 2.179628 0.708204 
L 5.706339 -1.854102 
L 1.347084 -1.854102 
z
" id="m9c11a97794" style="stroke:#ffa500;stroke-linejoin:bevel;stroke-width:1.5;"/>
    </defs>
    <g>
     <use style="fill:none;stroke:#ffa500;stroke-linejoin:bevel;stroke-width:1.5;" x="87.90252" xlink:href="#m9c11a97794" y="278.484583"/>
     <use style="fill:none;stroke:#ffa500;stroke-linejoin:bevel;stroke-width:1.5;" x="158.977338" xlink:href="#m9c11a97794" y="234.571712"/>
     <use style="fill:none;stroke:#ffa500;stroke-linejoin:bevel;stroke-width:1.5;" x="183.90252" xlink:href="#m9c11a97794" y="199.441415"/>
     <use style="fill:none;stroke:#ffa500;stroke-linejoin:bevel;stroke-width:1.5;" x="277.982844" xlink:href="#m9c11a97794" y="155.528543"/>
     <use style="fill:none;stroke:#ffa500;stroke-linejoin:bevel;stroke-width:1.5;" x="358.715382" xlink:href="#m9c11a97794" y="140.159038"/>
     <use style="fill:none;stroke:#ffa500;stroke-linejoin:bevel;stroke-width:1.5;" x="423.109092" xlink:href="#m9c11a97794" y="122.59389"/>
     <use style="fill:none;stroke:#ffa500;stroke-linejoin:bevel;stroke-width:1.5;" x="426.09888" xlink:href="#m9c11a97794" y="122.59389"/>
    </g>
   </g>
   <g id="line2d_65"/>
   <g id="line2d_66">
    <defs>
     <path d="M 0 1.5 
C 0.397805 1.5 0.77937 1.341951 1.06066 1.06066 
C 1.341951 0.77937 1.5 0.397805 1.5 0 
C 1.5 -0.397805 1.341951 -0.77937 1.06066 -1.06066 
C 0.77937 -1.341951 0.397805 -1.5 0 -1.5 
C -0.397805 -1.5 -0.77937 -1.341951 -1.06066 -1.06066 
C -1.341951 -0.77937 -1.5 -0.397805 -1.5 0 
C -1.5 0.397805 -1.341951 0.77937 -1.06066 1.06066 
C -0.77937 1.341951 -0.397805 1.5 0 1.5 
z
" id="md3e894c95f" style="stroke:#6495ed;"/>
    </defs>
    <g>
     <use style="fill:#6495ed;stroke:#6495ed;" x="327.005943" xlink:href="#md3e894c95f" y="34.768147"/>
     <use style="fill:#6495ed;stroke:#6495ed;" x="327.005943" xlink:href="#md3e894c95f" y="34.768147"/>
    </g>
   </g>
   <g id="line2d_67">
    <path d="M 42.09888 298.245375 
L 42.09888 291.658444 
L 99.896639 291.658444 
L 99.896639 287.267157 
L 116.8014 287.267157 
L 116.8014 274.093296 
L 123.228291 274.093296 
L 123.228291 269.702009 
L 128.795518 269.702009 
L 128.795518 256.528147 
L 135.960346 256.528147 
L 135.960346 252.13686 
L 140.133052 252.13686 
L 140.133052 249.941217 
L 147.402241 249.941217 
L 147.402241 245.549929 
L 155.00364 245.549929 
L 155.00364 238.962999 
L 162.60504 238.962999 
L 162.60504 227.984781 
L 165.942202 227.984781 
L 165.942202 225.789137 
L 170.971457 225.789137 
L 170.971457 208.223989 
L 172.824752 208.223989 
L 172.824752 201.637058 
L 173.721394 201.637058 
L 173.721394 199.441415 
L 174.599159 199.441415 
L 174.599159 179.680623 
L 175.458824 179.680623 
L 175.458824 175.289335 
L 176.30112 175.289335 
L 176.30112 173.093692 
L 179.509801 173.093692 
L 179.509801 168.702405 
L 180.274818 168.702405 
L 180.274818 164.311118 
L 183.201793 164.311118 
L 183.201793 159.91983 
L 189.729513 159.91983 
L 189.729513 157.724187 
L 197.431497 157.724187 
L 197.431497 155.528543 
L 253.824483 155.528543 
L 253.824483 153.3329 
L 270.337764 153.3329 
L 270.337764 146.745969 
L 291.792278 146.745969 
L 291.792278 144.550325 
L 315.643143 144.550325 
L 315.643143 142.354682 
L 316.863492 142.354682 
L 316.863492 140.159038 
L 317.177291 140.159038 
L 317.177291 137.963395 
L 317.601428 137.963395 
L 317.601428 135.767751 
L 317.965554 135.767751 
L 317.965554 133.572108 
L 318.684405 133.572108 
L 318.684405 131.376464 
L 319.093557 131.376464 
L 319.093557 129.180821 
L 319.174908 129.180821 
L 319.174908 126.985177 
L 319.201989 126.985177 
L 319.201989 124.789533 
L 319.846728 124.789533 
L 319.846728 120.398246 
L 319.900009 120.398246 
L 319.900009 116.006959 
L 320.244684 116.006959 
L 320.244684 111.615672 
L 320.977524 111.615672 
L 320.977524 105.028741 
L 321.184563 105.028741 
L 321.184563 100.637454 
L 321.697705 100.637454 
L 321.697705 96.246167 
L 321.723197 96.246167 
L 321.723197 91.85488 
L 322.078459 91.85488 
L 322.078459 89.659236 
L 322.305253 89.659236 
L 322.305253 87.463593 
L 322.53082 87.463593 
L 322.53082 85.267949 
L 322.904075 85.267949 
L 322.904075 83.072306 
L 323.151068 83.072306 
L 323.151068 80.876662 
L 323.298564 80.876662 
L 323.298564 74.289731 
L 323.421081 74.289731 
L 323.421081 72.094088 
L 324.196773 72.094088 
L 324.196773 67.702801 
L 324.436247 67.702801 
L 324.436247 63.311514 
L 324.887492 63.311514 
L 324.887492 61.11587 
L 325.357269 61.11587 
L 325.357269 56.724583 
L 325.636615 56.724583 
L 325.636615 54.528939 
L 325.70616 54.528939 
L 325.70616 47.942009 
L 325.844904 47.942009 
L 325.844904 45.746365 
L 325.937143 45.746365 
L 325.937143 43.550722 
L 326.258384 43.550722 
L 326.258384 41.355078 
L 326.803389 41.355078 
L 326.803389 36.963791 
L 327.005943 36.963791 
L 327.005943 34.768147 
L 426.09888 34.768147 
" style="fill:none;stroke:#6495ed;stroke-linecap:square;stroke-width:1.5;"/>
   </g>
   <g id="line2d_68">
    <defs>
     <path d="M -0 6 
L 6 -6 
L -6 -6 
z
" id="meceea86f5c" style="stroke:#6495ed;stroke-linejoin:miter;stroke-width:1.5;"/>
    </defs>
    <g>
     <use style="fill:none;stroke:#6495ed;stroke-linejoin:miter;stroke-width:1.5;" x="140.133052" xlink:href="#meceea86f5c" y="252.13686"/>
     <use style="fill:none;stroke:#6495ed;stroke-linejoin:miter;stroke-width:1.5;" x="180.274818" xlink:href="#meceea86f5c" y="168.702405"/>
     <use style="fill:none;stroke:#6495ed;stroke-linejoin:miter;stroke-width:1.5;" x="270.337764" xlink:href="#meceea86f5c" y="146.745969"/>
     <use style="fill:none;stroke:#6495ed;stroke-linejoin:miter;stroke-width:1.5;" x="325.636615" xlink:href="#meceea86f5c" y="54.528939"/>
     <use style="fill:none;stroke:#6495ed;stroke-linejoin:miter;stroke-width:1.5;" x="327.005943" xlink:href="#meceea86f5c" y="34.768147"/>
     <use style="fill:none;stroke:#6495ed;stroke-linejoin:miter;stroke-width:1.5;" x="426.09888" xlink:href="#meceea86f5c" y="34.768147"/>
    </g>
   </g>
   <g id="line2d_69"/>
   <g id="line2d_70">
    <defs>
     <path d="M 0 1.5 
C 0.397805 1.5 0.77937 1.341951 1.06066 1.06066 
C 1.341951 0.77937 1.5 0.397805 1.5 0 
C 1.5 -0.397805 1.341951 -0.77937 1.06066 -1.06066 
C 0.77937 -1.341951 0.397805 -1.5 0 -1.5 
C -0.397805 -1.5 -0.77937 -1.341951 -1.06066 -1.06066 
C -1.341951 -0.77937 -1.5 -0.397805 -1.5 0 
C -1.5 0.397805 -1.341951 0.77937 -1.06066 1.06066 
C -0.77937 1.341951 -0.397805 1.5 0 1.5 
z
" id="ma073a3b379" style="stroke:#ff0000;"/>
    </defs>
    <g>
     <use style="fill:#ff0000;stroke:#ff0000;" x="384.181671" xlink:href="#ma073a3b379" y="100.637454"/>
     <use style="fill:#ff0000;stroke:#ff0000;" x="384.181671" xlink:href="#ma073a3b379" y="100.637454"/>
    </g>
   </g>
   <g id="line2d_71">
    <path d="M 42.09888 298.245375 
L 42.09888 287.267157 
L 70.997759 287.267157 
L 70.997759 282.87587 
L 87.90252 282.87587 
L 87.90252 249.941217 
L 94.329412 249.941217 
L 94.329412 230.180425 
L 99.896639 230.180425 
L 99.896639 217.006563 
L 109.2 217.006563 
L 109.2 208.223989 
L 116.8014 208.223989 
L 116.8014 203.832702 
L 123.228291 203.832702 
L 123.228291 192.854484 
L 128.795518 192.854484 
L 128.795518 186.267553 
L 131.323096 186.267553 
L 131.323096 184.07191 
L 133.70616 184.07191 
L 133.70616 177.484979 
L 142.072577 177.484979 
L 142.072577 175.289335 
L 145.700279 175.289335 
L 145.700279 170.898048 
L 162.60504 170.898048 
L 162.60504 168.702405 
L 164.859225 168.702405 
L 164.859225 164.311118 
L 171.908401 164.311118 
L 171.908401 159.91983 
L 172.824752 159.91983 
L 172.824752 155.528543 
L 182.489087 155.528543 
L 182.489087 151.137256 
L 183.90252 151.137256 
L 183.90252 146.745969 
L 217.712042 146.745969 
L 217.712042 144.550325 
L 218.325174 144.550325 
L 218.325174 142.354682 
L 228.531653 142.354682 
L 228.531653 137.963395 
L 257.07163 137.963395 
L 257.07163 135.767751 
L 263.823376 135.767751 
L 263.823376 133.572108 
L 267.908401 133.572108 
L 267.908401 131.376464 
L 269.810007 131.376464 
L 269.810007 126.985177 
L 274.572857 126.985177 
L 274.572857 124.789533 
L 277.100435 124.789533 
L 277.100435 122.59389 
L 290.140355 122.59389 
L 290.140355 120.398246 
L 312.711879 120.398246 
L 312.711879 118.202603 
L 336.769257 118.202603 
L 336.769257 116.006959 
L 349.524678 116.006959 
L 349.524678 113.811316 
L 351.204133 113.811316 
L 351.204133 109.420028 
L 365.924923 109.420028 
L 365.924923 107.224385 
L 376.317372 107.224385 
L 376.317372 105.028741 
L 378.246576 105.028741 
L 378.246576 102.833098 
L 384.181671 102.833098 
L 384.181671 100.637454 
L 426.09888 100.637454 
" style="fill:none;stroke:#ff0000;stroke-linecap:square;stroke-width:1.5;"/>
   </g>
   <g id="line2d_72">
    <defs>
     <path d="M 0 -6 
L -5.196152 -3 
L -5.196152 3 
L -0 6 
L 5.196152 3 
L 5.196152 -3 
z
" id="m7d533f6f61" style="stroke:#ff0000;stroke-linejoin:miter;stroke-width:1.5;"/>
    </defs>
    <g>
     <use style="fill:none;stroke:#ff0000;stroke-linejoin:miter;stroke-width:1.5;" x="70.997759" xlink:href="#m7d533f6f61" y="287.267157"/>
     <use style="fill:none;stroke:#ff0000;stroke-linejoin:miter;stroke-width:1.5;" x="123.228291" xlink:href="#m7d533f6f61" y="203.832702"/>
     <use style="fill:none;stroke:#ff0000;stroke-linejoin:miter;stroke-width:1.5;" x="183.90252" xlink:href="#m7d533f6f61" y="151.137256"/>
     <use style="fill:none;stroke:#ff0000;stroke-linejoin:miter;stroke-width:1.5;" x="277.100435" xlink:href="#m7d533f6f61" y="122.59389"/>
     <use style="fill:none;stroke:#ff0000;stroke-linejoin:miter;stroke-width:1.5;" x="365.924923" xlink:href="#m7d533f6f61" y="107.224385"/>
     <use style="fill:none;stroke:#ff0000;stroke-linejoin:miter;stroke-width:1.5;" x="426.09888" xlink:href="#m7d533f6f61" y="100.637454"/>
    </g>
   </g>
   <g id="line2d_73"/>
   <g id="line2d_74">
    <path clip-path="url(#pfa0249d512)" d="M 330.09888 118.202603 
" style="fill:none;stroke:#ff0000;stroke-linecap:square;stroke-width:1.5;"/>
    <defs>
     <path d="M -12 12 
L 12 -12 
M -12 -12 
L 12 12 
" id="m3112ef8c48" style="stroke:#ff0000;stroke-width:3;"/>
    </defs>
    <g clip-path="url(#pfa0249d512)">
     <use style="fill:#ff0000;stroke:#ff0000;stroke-width:3;" x="330.09888" xlink:href="#m3112ef8c48" y="118.202603"/>
    </g>
   </g>
   <g id="line2d_75">
    <defs>
     <path d="M 0 1.5 
C 0.397805 1.5 0.77937 1.341951 1.06066 1.06066 
C 1.341951 0.77937 1.5 0.397805 1.5 0 
C 1.5 -0.397805 1.341951 -0.77937 1.06066 -1.06066 
C 0.77937 -1.341951 0.397805 -1.5 0 -1.5 
C -0.397805 -1.5 -0.77937 -1.341951 -1.06066 -1.06066 
C -1.341951 -0.77937 -1.5 -0.397805 -1.5 0 
C -1.5 0.397805 -1.341951 0.77937 -1.06066 1.06066 
C -0.77937 1.341951 -0.397805 1.5 0 1.5 
z
" id="m9addf452df" style="stroke:#9acd32;"/>
    </defs>
    <g>
     <use style="fill:#9acd32;stroke:#9acd32;" x="357.479965" xlink:href="#m9addf452df" y="34.768147"/>
     <use style="fill:#9acd32;stroke:#9acd32;" x="357.479965" xlink:href="#m9addf452df" y="34.768147"/>
    </g>
   </g>
   <g id="line2d_76">
    <path d="M 59.00364 298.245375 
L 59.00364 296.049731 
L 87.90252 296.049731 
L 87.90252 293.854088 
L 94.329412 293.854088 
L 94.329412 278.484583 
L 99.896639 278.484583 
L 99.896639 276.288939 
L 104.807281 276.288939 
L 104.807281 265.310722 
L 109.2 265.310722 
L 109.2 254.332504 
L 123.228291 254.332504 
L 123.228291 249.941217 
L 126.104761 249.941217 
L 126.104761 247.745573 
L 131.323096 247.745573 
L 131.323096 230.180425 
L 135.960346 230.180425 
L 135.960346 221.39785 
L 143.925872 221.39785 
L 143.925872 219.202207 
L 145.700279 219.202207 
L 145.700279 210.419632 
L 149.037441 210.419632 
L 149.037441 203.832702 
L 153.590208 203.832702 
L 153.590208 197.245771 
L 156.370723 197.245771 
L 156.370723 195.050127 
L 165.942202 195.050127 
L 165.942202 186.267553 
L 172.824752 186.267553 
L 172.824752 181.876266 
L 178.730483 181.876266 
L 178.730483 177.484979 
L 181.026051 177.484979 
L 181.026051 162.115474 
L 190.920801 162.115474 
L 190.920801 159.91983 
L 198.911851 159.91983 
L 198.911851 157.724187 
L 206.025616 157.724187 
L 206.025616 155.528543 
L 313.308615 155.528543 
L 313.308615 153.3329 
L 315.465855 153.3329 
L 315.465855 151.137256 
L 317.545125 151.137256 
L 317.545125 148.941613 
L 318.271197 148.941613 
L 318.271197 146.745969 
L 318.930377 146.745969 
L 318.930377 144.550325 
L 319.686476 144.550325 
L 319.686476 142.354682 
L 320.29746 142.354682 
L 320.29746 140.159038 
L 321.21037 140.159038 
L 321.21037 133.572108 
L 321.236162 133.572108 
L 321.236162 131.376464 
L 321.901206 131.376464 
L 321.901206 126.985177 
L 323.249457 126.985177 
L 323.249457 124.789533 
L 323.931754 124.789533 
L 323.931754 120.398246 
L 325.263736 120.398246 
L 325.263736 116.006959 
L 325.729316 116.006959 
L 325.729316 113.811316 
L 325.75246 113.811316 
L 325.75246 111.615672 
L 325.937143 111.615672 
L 325.937143 107.224385 
L 326.395305 107.224385 
L 326.395305 105.028741 
L 326.599846 105.028741 
L 326.599846 102.833098 
L 327.005943 102.833098 
L 327.005943 98.441811 
L 327.140434 98.441811 
L 327.140434 96.246167 
L 327.784429 96.246167 
L 327.784429 94.050524 
L 328.353466 94.050524 
L 328.353466 91.85488 
L 328.396918 91.85488 
L 328.396918 89.659236 
L 328.591894 89.659236 
L 328.591894 87.463593 
L 328.613502 87.463593 
L 328.613502 83.072306 
L 328.656684 83.072306 
L 328.656684 80.876662 
L 329.021937 80.876662 
L 329.021937 78.681019 
L 329.320349 78.681019 
L 329.320349 76.485375 
L 329.511063 76.485375 
L 329.511063 74.289731 
L 330.015412 74.289731 
L 330.015412 72.094088 
L 330.286074 72.094088 
L 330.286074 67.702801 
L 330.410405 67.702801 
L 330.410405 65.507157 
L 331.04694 65.507157 
L 331.04694 61.11587 
L 331.513007 61.11587 
L 331.513007 56.724583 
L 331.73408 56.724583 
L 331.73408 54.528939 
L 334.82381 54.528939 
L 334.82381 50.137652 
L 335.816968 50.137652 
L 335.816968 45.746365 
L 337.351388 45.746365 
L 337.351388 39.159434 
L 350.660285 39.159434 
L 350.660285 36.963791 
L 357.479965 36.963791 
L 357.479965 34.768147 
L 426.09888 34.768147 
" style="fill:none;stroke:#9acd32;stroke-linecap:square;stroke-width:1.5;"/>
   </g>
   <g id="line2d_77">
    <defs>
     <path d="M 0 -6 
L -6 6 
L 6 6 
z
" id="m3f6df9e2bf" style="stroke:#9acd32;stroke-linejoin:miter;stroke-width:1.5;"/>
    </defs>
    <g>
     <use style="fill:none;stroke:#9acd32;stroke-linejoin:miter;stroke-width:1.5;" x="99.896639" xlink:href="#m3f6df9e2bf" y="276.288939"/>
     <use style="fill:none;stroke:#9acd32;stroke-linejoin:miter;stroke-width:1.5;" x="156.370723" xlink:href="#m3f6df9e2bf" y="197.245771"/>
     <use style="fill:none;stroke:#9acd32;stroke-linejoin:miter;stroke-width:1.5;" x="206.025616" xlink:href="#m3f6df9e2bf" y="157.724187"/>
     <use style="fill:none;stroke:#9acd32;stroke-linejoin:miter;stroke-width:1.5;" x="323.931754" xlink:href="#m3f6df9e2bf" y="124.789533"/>
     <use style="fill:none;stroke:#9acd32;stroke-linejoin:miter;stroke-width:1.5;" x="357.479965" xlink:href="#m3f6df9e2bf" y="36.963791"/>
     <use style="fill:none;stroke:#9acd32;stroke-linejoin:miter;stroke-width:1.5;" x="426.09888" xlink:href="#m3f6df9e2bf" y="34.768147"/>
    </g>
   </g>
   <g id="line2d_78"/>
   <g id="line2d_79">
    <path d="M 426.09888 122.59389 
L 457.77888 292.97583 
" style="fill:none;stroke:#ffa500;stroke-linecap:square;stroke-width:1.5;"/>
    <g>
     <use style="fill:none;stroke:#ffa500;stroke-linejoin:bevel;stroke-width:1.5;" x="426.09888" xlink:href="#m9c11a97794" y="122.59389"/>
     <use style="fill:none;stroke:#ffa500;stroke-linejoin:bevel;stroke-width:1.5;" x="457.77888" xlink:href="#m9c11a97794" y="292.97583"/>
    </g>
   </g>
   <g id="line2d_80">
    <path d="M 426.09888 100.637454 
L 457.77888 250.819474 
" style="fill:none;stroke:#ff0000;stroke-linecap:square;stroke-width:1.5;"/>
    <g>
     <use style="fill:none;stroke:#ff0000;stroke-linejoin:miter;stroke-width:1.5;" x="426.09888" xlink:href="#m7d533f6f61" y="100.637454"/>
     <use style="fill:none;stroke:#ff0000;stroke-linejoin:miter;stroke-width:1.5;" x="457.77888" xlink:href="#m7d533f6f61" y="250.819474"/>
    </g>
   </g>
   <g id="line2d_81">
    <path d="M 426.09888 34.768147 
L 457.77888 208.663118 
" style="fill:none;stroke:#ff00ff;stroke-linecap:square;stroke-width:1.5;"/>
    <g>
     <use style="fill:none;stroke:#ff00ff;stroke-linejoin:miter;stroke-width:1.5;" x="426.09888" xlink:href="#mf6e0c80695" y="34.768147"/>
     <use style="fill:none;stroke:#ff00ff;stroke-linejoin:miter;stroke-width:1.5;" x="457.77888" xlink:href="#mf6e0c80695" y="208.663118"/>
    </g>
   </g>
   <g id="line2d_82">
    <path d="M 426.09888 34.768147 
L 457.77888 166.506761 
" style="fill:none;stroke:#9acd32;stroke-linecap:square;stroke-width:1.5;"/>
    <g>
     <use style="fill:none;stroke:#9acd32;stroke-linejoin:miter;stroke-width:1.5;" x="426.09888" xlink:href="#m3f6df9e2bf" y="34.768147"/>
     <use style="fill:none;stroke:#9acd32;stroke-linejoin:miter;stroke-width:1.5;" x="457.77888" xlink:href="#m3f6df9e2bf" y="166.506761"/>
    </g>
   </g>
   <g id="line2d_83">
    <path d="M 426.09888 34.768147 
L 457.77888 124.350405 
" style="fill:none;stroke:#000080;stroke-linecap:square;stroke-width:1.5;"/>
    <g>
     <use style="fill:none;stroke:#000080;stroke-width:1.5;" x="426.09888" xlink:href="#m24fe2e413c" y="34.768147"/>
     <use style="fill:none;stroke:#000080;stroke-width:1.5;" x="457.77888" xlink:href="#m24fe2e413c" y="124.350405"/>
    </g>
   </g>
   <g id="line2d_84">
    <path d="M 426.09888 34.768147 
L 457.77888 82.194048 
" style="fill:none;stroke:#6495ed;stroke-linecap:square;stroke-width:1.5;"/>
    <g>
     <use style="fill:none;stroke:#6495ed;stroke-linejoin:miter;stroke-width:1.5;" x="426.09888" xlink:href="#meceea86f5c" y="34.768147"/>
     <use style="fill:none;stroke:#6495ed;stroke-linejoin:miter;stroke-width:1.5;" x="457.77888" xlink:href="#meceea86f5c" y="82.194048"/>
    </g>
   </g>
   <g id="line2d_85">
    <path d="M 426.09888 298.245375 
L 426.09888 34.768147 
" style="fill:none;stroke:#000000;stroke-linecap:square;stroke-width:1.5;"/>
   </g>
   <g id="patch_3">
    <path d="M 138.09888 298.245375 
L 138.09888 32.133375 
" style="fill:none;stroke:#000000;stroke-linecap:square;stroke-linejoin:miter;stroke-width:0.8;"/>
   </g>
   <g id="patch_4">
    <path d="M 495.21888 298.245375 
L 495.21888 32.133375 
" style="fill:none;stroke:#000000;stroke-linecap:square;stroke-linejoin:miter;stroke-width:0.8;"/>
   </g>
   <g id="patch_5">
    <path d="M 138.09888 298.245375 
L 495.21888 298.245375 
" style="fill:none;stroke:#000000;stroke-linecap:square;stroke-linejoin:miter;stroke-width:0.8;"/>
   </g>
   <g id="patch_6">
    <path d="M 138.09888 32.133375 
L 495.21888 32.133375 
" style="fill:none;stroke:#000000;stroke-linecap:square;stroke-linejoin:miter;stroke-width:0.8;"/>
   </g>
   <g id="text_13">
    <!-- RANDOMSEA -->
    <defs>
     <path d="M 44.390625 34.1875 
Q 47.5625 33.109375 50.5625 29.59375 
Q 53.5625 26.078125 56.59375 19.921875 
L 66.609375 0 
L 56 0 
L 46.6875 18.703125 
Q 43.0625 26.03125 39.671875 28.421875 
Q 36.28125 30.8125 30.421875 30.8125 
L 19.671875 30.8125 
L 19.671875 0 
L 9.8125 0 
L 9.8125 72.90625 
L 32.078125 72.90625 
Q 44.578125 72.90625 50.734375 67.671875 
Q 56.890625 62.453125 56.890625 51.90625 
Q 56.890625 45.015625 53.6875 40.46875 
Q 50.484375 35.9375 44.390625 34.1875 
z
M 19.671875 64.796875 
L 19.671875 38.921875 
L 32.078125 38.921875 
Q 39.203125 38.921875 42.84375 42.21875 
Q 46.484375 45.515625 46.484375 51.90625 
Q 46.484375 58.296875 42.84375 61.546875 
Q 39.203125 64.796875 32.078125 64.796875 
z
" id="DejaVuSans-52"/>
     <path d="M 34.1875 63.1875 
L 20.796875 26.90625 
L 47.609375 26.90625 
z
M 28.609375 72.90625 
L 39.796875 72.90625 
L 67.578125 0 
L 57.328125 0 
L 50.6875 18.703125 
L 17.828125 18.703125 
L 11.1875 0 
L 0.78125 0 
z
" id="DejaVuSans-41"/>
     <path d="M 9.8125 72.90625 
L 23.09375 72.90625 
L 55.421875 11.921875 
L 55.421875 72.90625 
L 64.984375 72.90625 
L 64.984375 0 
L 51.703125 0 
L 19.390625 60.984375 
L 19.390625 0 
L 9.8125 0 
z
" id="DejaVuSans-4e"/>
     <path d="M 19.671875 64.796875 
L 19.671875 8.109375 
L 31.59375 8.109375 
Q 46.6875 8.109375 53.6875 14.9375 
Q 60.6875 21.78125 60.6875 36.53125 
Q 60.6875 51.171875 53.6875 57.984375 
Q 46.6875 64.796875 31.59375 64.796875 
z
M 9.8125 72.90625 
L 30.078125 72.90625 
Q 51.265625 72.90625 61.171875 64.09375 
Q 71.09375 55.28125 71.09375 36.53125 
Q 71.09375 17.671875 61.125 8.828125 
Q 51.171875 0 30.078125 0 
L 9.8125 0 
z
" id="DejaVuSans-44"/>
     <path d="M 39.40625 66.21875 
Q 28.65625 66.21875 22.328125 58.203125 
Q 16.015625 50.203125 16.015625 36.375 
Q 16.015625 22.609375 22.328125 14.59375 
Q 28.65625 6.59375 39.40625 6.59375 
Q 50.140625 6.59375 56.421875 14.59375 
Q 62.703125 22.609375 62.703125 36.375 
Q 62.703125 50.203125 56.421875 58.203125 
Q 50.140625 66.21875 39.40625 66.21875 
z
M 39.40625 74.21875 
Q 54.734375 74.21875 63.90625 63.9375 
Q 73.09375 53.65625 73.09375 36.375 
Q 73.09375 19.140625 63.90625 8.859375 
Q 54.734375 -1.421875 39.40625 -1.421875 
Q 24.03125 -1.421875 14.8125 8.828125 
Q 5.609375 19.09375 5.609375 36.375 
Q 5.609375 53.65625 14.8125 63.9375 
Q 24.03125 74.21875 39.40625 74.21875 
z
" id="DejaVuSans-4f"/>
     <path d="M 9.8125 72.90625 
L 24.515625 72.90625 
L 43.109375 23.296875 
L 61.8125 72.90625 
L 76.515625 72.90625 
L 76.515625 0 
L 66.890625 0 
L 66.890625 64.015625 
L 48.09375 14.015625 
L 38.1875 14.015625 
L 19.390625 64.015625 
L 19.390625 0 
L 9.8125 0 
z
" id="DejaVuSans-4d"/>
     <path d="M 53.515625 70.515625 
L 53.515625 60.890625 
Q 47.90625 63.578125 42.921875 64.890625 
Q 37.9375 66.21875 33.296875 66.21875 
Q 25.25 66.21875 20.875 63.09375 
Q 16.5 59.96875 16.5 54.203125 
Q 16.5 49.359375 19.40625 46.890625 
Q 22.3125 44.4375 30.421875 42.921875 
L 36.375 41.703125 
Q 47.40625 39.59375 52.65625 34.296875 
Q 57.90625 29 57.90625 20.125 
Q 57.90625 9.515625 50.796875 4.046875 
Q 43.703125 -1.421875 29.984375 -1.421875 
Q 24.8125 -1.421875 18.96875 -0.25 
Q 13.140625 0.921875 6.890625 3.21875 
L 6.890625 13.375 
Q 12.890625 10.015625 18.65625 8.296875 
Q 24.421875 6.59375 29.984375 6.59375 
Q 38.421875 6.59375 43.015625 9.90625 
Q 47.609375 13.234375 47.609375 19.390625 
Q 47.609375 24.75 44.3125 27.78125 
Q 41.015625 30.8125 33.5 32.328125 
L 27.484375 33.5 
Q 16.453125 35.6875 11.515625 40.375 
Q 6.59375 45.0625 6.59375 53.421875 
Q 6.59375 63.09375 13.40625 68.65625 
Q 20.21875 74.21875 32.171875 74.21875 
Q 37.3125 74.21875 42.625 73.28125 
Q 47.953125 72.359375 53.515625 70.515625 
z
" id="DejaVuSans-53"/>
     <path d="M 9.8125 72.90625 
L 55.90625 72.90625 
L 55.90625 64.59375 
L 19.671875 64.59375 
L 19.671875 43.015625 
L 54.390625 43.015625 
L 54.390625 34.71875 
L 19.671875 34.71875 
L 19.671875 8.296875 
L 56.78125 8.296875 
L 56.78125 0 
L 9.8125 0 
z
" id="DejaVuSans-45"/>
    </defs>
    <g transform="translate(463.53888 296.838955)scale(0.14 -0.14)">
     <use xlink:href="#DejaVuSans-52"/>
     <use x="69.419922" xlink:href="#DejaVuSans-41"/>
     <use x="137.828125" xlink:href="#DejaVuSans-4e"/>
     <use x="212.632812" xlink:href="#DejaVuSans-44"/>
     <use x="289.634766" xlink:href="#DejaVuSans-4f"/>
     <use x="368.345703" xlink:href="#DejaVuSans-4d"/>
     <use x="454.625" xlink:href="#DejaVuSans-53"/>
     <use x="518.101562" xlink:href="#DejaVuSans-45"/>
     <use x="581.285156" xlink:href="#DejaVuSans-41"/>
    </g>
   </g>
   <g id="text_14">
    <!-- SMAC-BBOB -->
    <defs>
     <path d="M 64.40625 67.28125 
L 64.40625 56.890625 
Q 59.421875 61.53125 53.78125 63.8125 
Q 48.140625 66.109375 41.796875 66.109375 
Q 29.296875 66.109375 22.65625 58.46875 
Q 16.015625 50.828125 16.015625 36.375 
Q 16.015625 21.96875 22.65625 14.328125 
Q 29.296875 6.6875 41.796875 6.6875 
Q 48.140625 6.6875 53.78125 8.984375 
Q 59.421875 11.28125 64.40625 15.921875 
L 64.40625 5.609375 
Q 59.234375 2.09375 53.4375 0.328125 
Q 47.65625 -1.421875 41.21875 -1.421875 
Q 24.65625 -1.421875 15.125 8.703125 
Q 5.609375 18.84375 5.609375 36.375 
Q 5.609375 53.953125 15.125 64.078125 
Q 24.65625 74.21875 41.21875 74.21875 
Q 47.75 74.21875 53.53125 72.484375 
Q 59.328125 70.75 64.40625 67.28125 
z
" id="DejaVuSans-43"/>
     <path d="M 19.671875 34.8125 
L 19.671875 8.109375 
L 35.5 8.109375 
Q 43.453125 8.109375 47.28125 11.40625 
Q 51.125 14.703125 51.125 21.484375 
Q 51.125 28.328125 47.28125 31.5625 
Q 43.453125 34.8125 35.5 34.8125 
z
M 19.671875 64.796875 
L 19.671875 42.828125 
L 34.28125 42.828125 
Q 41.5 42.828125 45.03125 45.53125 
Q 48.578125 48.25 48.578125 53.8125 
Q 48.578125 59.328125 45.03125 62.0625 
Q 41.5 64.796875 34.28125 64.796875 
z
M 9.8125 72.90625 
L 35.015625 72.90625 
Q 46.296875 72.90625 52.390625 68.21875 
Q 58.5 63.53125 58.5 54.890625 
Q 58.5 48.1875 55.375 44.234375 
Q 52.25 40.28125 46.1875 39.3125 
Q 53.46875 37.75 57.5 32.78125 
Q 61.53125 27.828125 61.53125 20.40625 
Q 61.53125 10.640625 54.890625 5.3125 
Q 48.25 0 35.984375 0 
L 9.8125 0 
z
" id="DejaVuSans-42"/>
    </defs>
    <g transform="translate(463.53888 254.682599)scale(0.14 -0.14)">
     <use xlink:href="#DejaVuSans-53"/>
     <use x="63.476562" xlink:href="#DejaVuSans-4d"/>
     <use x="149.755859" xlink:href="#DejaVuSans-41"/>
     <use x="218.148438" xlink:href="#DejaVuSans-43"/>
     <use x="287.972656" xlink:href="#DejaVuSans-2d"/>
     <use x="324.009766" xlink:href="#DejaVuSans-42"/>
     <use x="392.613281" xlink:href="#DejaVuSans-42"/>
     <use x="461.201172" xlink:href="#DejaVuSans-4f"/>
     <use x="539.912109" xlink:href="#DejaVuSans-42"/>
    </g>
   </g>
   <g id="text_15">
    <!-- BIPOP-CMA -->
    <defs>
     <path d="M 9.8125 72.90625 
L 19.671875 72.90625 
L 19.671875 0 
L 9.8125 0 
z
" id="DejaVuSans-49"/>
    </defs>
    <g transform="translate(463.53888 212.526243)scale(0.14 -0.14)">
     <use xlink:href="#DejaVuSans-42"/>
     <use x="68.603516" xlink:href="#DejaVuSans-49"/>
     <use x="98.095703" xlink:href="#DejaVuSans-50"/>
     <use x="158.398438" xlink:href="#DejaVuSans-4f"/>
     <use x="237.109375" xlink:href="#DejaVuSans-50"/>
     <use x="297.380859" xlink:href="#DejaVuSans-2d"/>
     <use x="333.464844" xlink:href="#DejaVuSans-43"/>
     <use x="403.289062" xlink:href="#DejaVuSans-4d"/>
     <use x="489.568359" xlink:href="#DejaVuSans-41"/>
    </g>
   </g>
   <g id="text_16">
    <!-- lmm-CMA-E -->
    <g transform="translate(463.53888 170.369886)scale(0.14 -0.14)">
     <use xlink:href="#DejaVuSans-6c"/>
     <use x="27.783203" xlink:href="#DejaVuSans-6d"/>
     <use x="125.195312" xlink:href="#DejaVuSans-6d"/>
     <use x="222.607422" xlink:href="#DejaVuSans-2d"/>
     <use x="258.691406" xlink:href="#DejaVuSans-43"/>
     <use x="328.515625" xlink:href="#DejaVuSans-4d"/>
     <use x="414.794922" xlink:href="#DejaVuSans-41"/>
     <use x="483.171875" xlink:href="#DejaVuSans-2d"/>
     <use x="519.255859" xlink:href="#DejaVuSans-45"/>
    </g>
   </g>
   <g id="text_17">
    <!-- BFGS ros  -->
    <defs>
     <path d="M 9.8125 72.90625 
L 51.703125 72.90625 
L 51.703125 64.59375 
L 19.671875 64.59375 
L 19.671875 43.109375 
L 48.578125 43.109375 
L 48.578125 34.8125 
L 19.671875 34.8125 
L 19.671875 0 
L 9.8125 0 
z
" id="DejaVuSans-46"/>
     <path d="M 59.515625 10.40625 
L 59.515625 29.984375 
L 43.40625 29.984375 
L 43.40625 38.09375 
L 69.28125 38.09375 
L 69.28125 6.78125 
Q 63.578125 2.734375 56.6875 0.65625 
Q 49.8125 -1.421875 42 -1.421875 
Q 24.90625 -1.421875 15.25 8.5625 
Q 5.609375 18.5625 5.609375 36.375 
Q 5.609375 54.25 15.25 64.234375 
Q 24.90625 74.21875 42 74.21875 
Q 49.125 74.21875 55.546875 72.453125 
Q 61.96875 70.703125 67.390625 67.28125 
L 67.390625 56.78125 
Q 61.921875 61.421875 55.765625 63.765625 
Q 49.609375 66.109375 42.828125 66.109375 
Q 29.4375 66.109375 22.71875 58.640625 
Q 16.015625 51.171875 16.015625 36.375 
Q 16.015625 21.625 22.71875 14.15625 
Q 29.4375 6.6875 42.828125 6.6875 
Q 48.046875 6.6875 52.140625 7.59375 
Q 56.25 8.5 59.515625 10.40625 
z
" id="DejaVuSans-47"/>
    </defs>
    <g transform="translate(463.53888 128.21353)scale(0.14 -0.14)">
     <use xlink:href="#DejaVuSans-42"/>
     <use x="68.603516" xlink:href="#DejaVuSans-46"/>
     <use x="126.123047" xlink:href="#DejaVuSans-47"/>
     <use x="203.613281" xlink:href="#DejaVuSans-53"/>
     <use x="267.089844" xlink:href="#DejaVuSans-20"/>
     <use x="298.876953" xlink:href="#DejaVuSans-72"/>
     <use x="339.958984" xlink:href="#DejaVuSans-6f"/>
     <use x="401.140625" xlink:href="#DejaVuSans-73"/>
     <use x="453.240234" xlink:href="#DejaVuSans-20"/>
    </g>
   </g>
   <g id="text_18">
    <!-- HCMA losh -->
    <defs>
     <path d="M 9.8125 72.90625 
L 19.671875 72.90625 
L 19.671875 43.015625 
L 55.515625 43.015625 
L 55.515625 72.90625 
L 65.375 72.90625 
L 65.375 0 
L 55.515625 0 
L 55.515625 34.71875 
L 19.671875 34.71875 
L 19.671875 0 
L 9.8125 0 
z
" id="DejaVuSans-48"/>
     <path d="M 54.890625 33.015625 
L 54.890625 0 
L 45.90625 0 
L 45.90625 32.71875 
Q 45.90625 40.484375 42.875 44.328125 
Q 39.84375 48.1875 33.796875 48.1875 
Q 26.515625 48.1875 22.3125 43.546875 
Q 18.109375 38.921875 18.109375 30.90625 
L 18.109375 0 
L 9.078125 0 
L 9.078125 75.984375 
L 18.109375 75.984375 
L 18.109375 46.1875 
Q 21.34375 51.125 25.703125 53.5625 
Q 30.078125 56 35.796875 56 
Q 45.21875 56 50.046875 50.171875 
Q 54.890625 44.34375 54.890625 33.015625 
z
" id="DejaVuSans-68"/>
    </defs>
    <g transform="translate(463.53888 86.057173)scale(0.14 -0.14)">
     <use xlink:href="#DejaVuSans-48"/>
     <use x="75.195312" xlink:href="#DejaVuSans-43"/>
     <use x="145.019531" xlink:href="#DejaVuSans-4d"/>
     <use x="231.298828" xlink:href="#DejaVuSans-41"/>
     <use x="299.707031" xlink:href="#DejaVuSans-20"/>
     <use x="331.494141" xlink:href="#DejaVuSans-6c"/>
     <use x="359.277344" xlink:href="#DejaVuSans-6f"/>
     <use x="420.458984" xlink:href="#DejaVuSans-73"/>
     <use x="472.558594" xlink:href="#DejaVuSans-68"/>
    </g>
   </g>
   <g id="text_19">
    <!-- best 2009 -->
    <defs>
     <path d="M 48.6875 27.296875 
Q 48.6875 37.203125 44.609375 42.84375 
Q 40.53125 48.484375 33.40625 48.484375 
Q 26.265625 48.484375 22.1875 42.84375 
Q 18.109375 37.203125 18.109375 27.296875 
Q 18.109375 17.390625 22.1875 11.75 
Q 26.265625 6.109375 33.40625 6.109375 
Q 40.53125 6.109375 44.609375 11.75 
Q 48.6875 17.390625 48.6875 27.296875 
z
M 18.109375 46.390625 
Q 20.953125 51.265625 25.265625 53.625 
Q 29.59375 56 35.59375 56 
Q 45.5625 56 51.78125 48.09375 
Q 58.015625 40.1875 58.015625 27.296875 
Q 58.015625 14.40625 51.78125 6.484375 
Q 45.5625 -1.421875 35.59375 -1.421875 
Q 29.59375 -1.421875 25.265625 0.953125 
Q 20.953125 3.328125 18.109375 8.203125 
L 18.109375 0 
L 9.078125 0 
L 9.078125 75.984375 
L 18.109375 75.984375 
z
" id="DejaVuSans-62"/>
     <path d="M 10.984375 1.515625 
L 10.984375 10.5 
Q 14.703125 8.734375 18.5 7.8125 
Q 22.3125 6.890625 25.984375 6.890625 
Q 35.75 6.890625 40.890625 13.453125 
Q 46.046875 20.015625 46.78125 33.40625 
Q 43.953125 29.203125 39.59375 26.953125 
Q 35.25 24.703125 29.984375 24.703125 
Q 19.046875 24.703125 12.671875 31.3125 
Q 6.296875 37.9375 6.296875 49.421875 
Q 6.296875 60.640625 12.9375 67.421875 
Q 19.578125 74.21875 30.609375 74.21875 
Q 43.265625 74.21875 49.921875 64.515625 
Q 56.59375 54.828125 56.59375 36.375 
Q 56.59375 19.140625 48.40625 8.859375 
Q 40.234375 -1.421875 26.421875 -1.421875 
Q 22.703125 -1.421875 18.890625 -0.6875 
Q 15.09375 0.046875 10.984375 1.515625 
z
M 30.609375 32.421875 
Q 37.25 32.421875 41.125 36.953125 
Q 45.015625 41.5 45.015625 49.421875 
Q 45.015625 57.28125 41.125 61.84375 
Q 37.25 66.40625 30.609375 66.40625 
Q 23.96875 66.40625 20.09375 61.84375 
Q 16.21875 57.28125 16.21875 49.421875 
Q 16.21875 41.5 20.09375 36.953125 
Q 23.96875 32.421875 30.609375 32.421875 
z
" id="DejaVuSans-39"/>
    </defs>
    <g transform="translate(463.53888 43.900817)scale(0.14 -0.14)">
     <use xlink:href="#DejaVuSans-62"/>
     <use x="63.476562" xlink:href="#DejaVuSans-65"/>
     <use x="125" xlink:href="#DejaVuSans-73"/>
     <use x="177.099609" xlink:href="#DejaVuSans-74"/>
     <use x="216.308594" xlink:href="#DejaVuSans-20"/>
     <use x="248.095703" xlink:href="#DejaVuSans-32"/>
     <use x="311.71875" xlink:href="#DejaVuSans-30"/>
     <use x="375.341797" xlink:href="#DejaVuSans-30"/>
     <use x="438.964844" xlink:href="#DejaVuSans-39"/>
    </g>
   </g>
   <g id="text_20">
    <!-- bbob - f11, 20-D -->
    <defs>
     <path d="M 11.71875 12.40625 
L 22.015625 12.40625 
L 22.015625 4 
L 14.015625 -11.625 
L 7.71875 -11.625 
L 11.71875 4 
z
" id="DejaVuSans-2c"/>
    </defs>
    <g transform="translate(141.67008 50.114612)scale(0.1666 -0.1666)">
     <use xlink:href="#DejaVuSans-62"/>
     <use x="63.476562" xlink:href="#DejaVuSans-62"/>
     <use x="126.953125" xlink:href="#DejaVuSans-6f"/>
     <use x="188.134766" xlink:href="#DejaVuSans-62"/>
     <use x="251.611328" xlink:href="#DejaVuSans-20"/>
     <use x="283.398438" xlink:href="#DejaVuSans-2d"/>
     <use x="319.482422" xlink:href="#DejaVuSans-20"/>
     <use x="351.269531" xlink:href="#DejaVuSans-66"/>
     <use x="386.474609" xlink:href="#DejaVuSans-31"/>
     <use x="450.097656" xlink:href="#DejaVuSans-31"/>
     <use x="513.720703" xlink:href="#DejaVuSans-2c"/>
     <use x="545.507812" xlink:href="#DejaVuSans-20"/>
     <use x="577.294922" xlink:href="#DejaVuSans-32"/>
     <use x="640.917969" xlink:href="#DejaVuSans-30"/>
     <use x="704.541016" xlink:href="#DejaVuSans-2d"/>
     <use x="740.625" xlink:href="#DejaVuSans-44"/>
    </g>
    <!-- 31 target RLs/dim: 0.5..50 -->
    <defs>
     <path d="M 9.8125 72.90625 
L 19.671875 72.90625 
L 19.671875 8.296875 
L 55.171875 8.296875 
L 55.171875 0 
L 9.8125 0 
z
" id="DejaVuSans-4c"/>
     <path d="M 11.71875 12.40625 
L 22.015625 12.40625 
L 22.015625 0 
L 11.71875 0 
z
M 11.71875 51.703125 
L 22.015625 51.703125 
L 22.015625 39.3125 
L 11.71875 39.3125 
z
" id="DejaVuSans-3a"/>
     <path d="M 10.796875 72.90625 
L 49.515625 72.90625 
L 49.515625 64.59375 
L 19.828125 64.59375 
L 19.828125 46.734375 
Q 21.96875 47.46875 24.109375 47.828125 
Q 26.265625 48.1875 28.421875 48.1875 
Q 40.625 48.1875 47.75 41.5 
Q 54.890625 34.8125 54.890625 23.390625 
Q 54.890625 11.625 47.5625 5.09375 
Q 40.234375 -1.421875 26.90625 -1.421875 
Q 22.3125 -1.421875 17.546875 -0.640625 
Q 12.796875 0.140625 7.71875 1.703125 
L 7.71875 11.625 
Q 12.109375 9.234375 16.796875 8.0625 
Q 21.484375 6.890625 26.703125 6.890625 
Q 35.15625 6.890625 40.078125 11.328125 
Q 45.015625 15.765625 45.015625 23.390625 
Q 45.015625 31 40.078125 35.4375 
Q 35.15625 39.890625 26.703125 39.890625 
Q 22.75 39.890625 18.8125 39.015625 
Q 14.890625 38.140625 10.796875 36.28125 
z
" id="DejaVuSans-35"/>
    </defs>
    <g transform="translate(141.67008 68.770168)scale(0.1666 -0.1666)">
     <use xlink:href="#DejaVuSans-33"/>
     <use x="63.623047" xlink:href="#DejaVuSans-31"/>
     <use x="127.246094" xlink:href="#DejaVuSans-20"/>
     <use x="159.033203" xlink:href="#DejaVuSans-74"/>
     <use x="198.242188" xlink:href="#DejaVuSans-61"/>
     <use x="259.521484" xlink:href="#DejaVuSans-72"/>
     <use x="300.619141" xlink:href="#DejaVuSans-67"/>
     <use x="364.095703" xlink:href="#DejaVuSans-65"/>
     <use x="425.619141" xlink:href="#DejaVuSans-74"/>
     <use x="464.828125" xlink:href="#DejaVuSans-20"/>
     <use x="496.615234" xlink:href="#DejaVuSans-52"/>
     <use x="566.097656" xlink:href="#DejaVuSans-4c"/>
     <use x="621.810547" xlink:href="#DejaVuSans-73"/>
     <use x="673.910156" xlink:href="#DejaVuSans-2f"/>
     <use x="707.601562" xlink:href="#DejaVuSans-64"/>
     <use x="771.078125" xlink:href="#DejaVuSans-69"/>
     <use x="798.861328" xlink:href="#DejaVuSans-6d"/>
     <use x="896.273438" xlink:href="#DejaVuSans-3a"/>
     <use x="929.964844" xlink:href="#DejaVuSans-20"/>
     <use x="961.751953" xlink:href="#DejaVuSans-30"/>
     <use x="1025.375" xlink:href="#DejaVuSans-2e"/>
     <use x="1057.162109" xlink:href="#DejaVuSans-35"/>
     <use x="1120.785156" xlink:href="#DejaVuSans-2e"/>
     <use x="1152.572266" xlink:href="#DejaVuSans-2e"/>
     <use x="1184.359375" xlink:href="#DejaVuSans-35"/>
     <use x="1247.982422" xlink:href="#DejaVuSans-30"/>
    </g>
    <!--    from refalgs/best2009-bbob.tar.gz -->
    <defs>
     <path d="M 5.515625 54.6875 
L 48.1875 54.6875 
L 48.1875 46.484375 
L 14.40625 7.171875 
L 48.1875 7.171875 
L 48.1875 0 
L 4.296875 0 
L 4.296875 8.203125 
L 38.09375 47.515625 
L 5.515625 47.515625 
z
" id="DejaVuSans-7a"/>
    </defs>
    <g transform="translate(141.67008 87.425723)scale(0.1666 -0.1666)">
     <use xlink:href="#DejaVuSans-20"/>
     <use x="31.787109" xlink:href="#DejaVuSans-20"/>
     <use x="63.574219" xlink:href="#DejaVuSans-20"/>
     <use x="95.361328" xlink:href="#DejaVuSans-66"/>
     <use x="130.566406" xlink:href="#DejaVuSans-72"/>
     <use x="171.648438" xlink:href="#DejaVuSans-6f"/>
     <use x="232.830078" xlink:href="#DejaVuSans-6d"/>
     <use x="330.242188" xlink:href="#DejaVuSans-20"/>
     <use x="362.029297" xlink:href="#DejaVuSans-72"/>
     <use x="403.111328" xlink:href="#DejaVuSans-65"/>
     <use x="464.634766" xlink:href="#DejaVuSans-66"/>
     <use x="499.839844" xlink:href="#DejaVuSans-61"/>
     <use x="561.119141" xlink:href="#DejaVuSans-6c"/>
     <use x="588.902344" xlink:href="#DejaVuSans-67"/>
     <use x="652.378906" xlink:href="#DejaVuSans-73"/>
     <use x="704.478516" xlink:href="#DejaVuSans-2f"/>
     <use x="738.169922" xlink:href="#DejaVuSans-62"/>
     <use x="801.646484" xlink:href="#DejaVuSans-65"/>
     <use x="863.169922" xlink:href="#DejaVuSans-73"/>
     <use x="915.269531" xlink:href="#DejaVuSans-74"/>
     <use x="954.478516" xlink:href="#DejaVuSans-32"/>
     <use x="1018.101562" xlink:href="#DejaVuSans-30"/>
     <use x="1081.724609" xlink:href="#DejaVuSans-30"/>
     <use x="1145.347656" xlink:href="#DejaVuSans-39"/>
     <use x="1208.970703" xlink:href="#DejaVuSans-2d"/>
     <use x="1245.054688" xlink:href="#DejaVuSans-62"/>
     <use x="1308.53125" xlink:href="#DejaVuSans-62"/>
     <use x="1372.007812" xlink:href="#DejaVuSans-6f"/>
     <use x="1433.189453" xlink:href="#DejaVuSans-62"/>
     <use x="1496.666016" xlink:href="#DejaVuSans-2e"/>
     <use x="1528.453125" xlink:href="#DejaVuSans-74"/>
     <use x="1567.662109" xlink:href="#DejaVuSans-61"/>
     <use x="1628.941406" xlink:href="#DejaVuSans-72"/>
     <use x="1669.914062" xlink:href="#DejaVuSans-2e"/>
     <use x="1701.701172" xlink:href="#DejaVuSans-67"/>
     <use x="1765.177734" xlink:href="#DejaVuSans-7a"/>
    </g>
    <!-- 15 instances -->
    <g transform="translate(141.67008 106.081279)scale(0.1666 -0.1666)">
     <use xlink:href="#DejaVuSans-31"/>
     <use x="63.623047" xlink:href="#DejaVuSans-35"/>
     <use x="127.246094" xlink:href="#DejaVuSans-20"/>
     <use x="159.033203" xlink:href="#DejaVuSans-69"/>
     <use x="186.816406" xlink:href="#DejaVuSans-6e"/>
     <use x="250.195312" xlink:href="#DejaVuSans-73"/>
     <use x="302.294922" xlink:href="#DejaVuSans-74"/>
     <use x="341.503906" xlink:href="#DejaVuSans-61"/>
     <use x="402.783203" xlink:href="#DejaVuSans-6e"/>
     <use x="466.162109" xlink:href="#DejaVuSans-63"/>
     <use x="521.142578" xlink:href="#DejaVuSans-65"/>
     <use x="582.666016" xlink:href="#DejaVuSans-73"/>
    </g>
   </g>
   <g id="text_21">
    <!-- v2.0.480 -->
    <g style="fill:#808080;" transform="translate(294.61513 293.504568)scale(0.1 -0.1)">
     <use xlink:href="#DejaVuSans-76"/>
     <use x="59.179688" xlink:href="#DejaVuSans-32"/>
     <use x="122.802734" xlink:href="#DejaVuSans-2e"/>
     <use x="154.589844" xlink:href="#DejaVuSans-30"/>
     <use x="218.212891" xlink:href="#DejaVuSans-2e"/>
     <use x="250" xlink:href="#DejaVuSans-34"/>
     <use x="313.623047" xlink:href="#DejaVuSans-38"/>
     <use x="377.246094" xlink:href="#DejaVuSans-30"/>
    </g>
   </g>
   <g id="text_22">
    <!-- 11 Discus -->
    <g transform="translate(258.295755 26.133375)scale(0.24 -0.24)">
     <use xlink:href="#DejaVuSans-31"/>
     <use x="63.623047" xlink:href="#DejaVuSans-31"/>
     <use x="127.246094" xlink:href="#DejaVuSans-20"/>
     <use x="159.033203" xlink:href="#DejaVuSans-44"/>
     <use x="236.035156" xlink:href="#DejaVuSans-69"/>
     <use x="263.818359" xlink:href="#DejaVuSans-73"/>
     <use x="315.917969" xlink:href="#DejaVuSans-63"/>
     <use x="370.898438" xlink:href="#DejaVuSans-75"/>
     <use x="434.277344" xlink:href="#DejaVuSans-73"/>
    </g>
   </g>
  </g>
 </g>
 <defs>
  <clipPath id="pfa0249d512">
   <rect height="266.112" width="357.12" x="138.09888" y="32.133375"/>
  </clipPath>
 </defs>
</svg>
