<?xml version="1.0" encoding="utf-8" standalone="no"?>
<!DOCTYPE svg PUBLIC "-//W3C//DTD SVG 1.1//EN"
  "http://www.w3.org/Graphics/SVG/1.1/DTD/svg11.dtd">
<!-- Created with matplotlib (http://matplotlib.org/) -->
<svg height="353pt" version="1.1" viewBox="0 0 494 353" width="494pt" xmlns="http://www.w3.org/2000/svg" xmlns:xlink="http://www.w3.org/1999/xlink">
 <defs>
  <style type="text/css">
*{stroke-linecap:butt;stroke-linejoin:round;}
  </style>
 </defs>
 <g id="figure_1">
  <g id="patch_1">
   <path d="M 0 353.22225 
L 494.400625 353.22225 
L 494.400625 0 
L 0 0 
z
" style="fill:#ffffff;"/>
  </g>
  <g id="axes_1">
   <g id="patch_2">
    <path d="M 70.8 298.245375 
L 427.92 298.245375 
L 427.92 32.133375 
L 70.8 32.133375 
z
" style="fill:#ffffff;"/>
   </g>
   <g id="line2d_1">
    <path d="M 70.8 298.245375 
L 70.8 283.607751 
L 87.704761 283.607751 
L 87.704761 268.970127 
L 109.002241 268.970127 
L 109.002241 254.332504 
L 137.90112 254.332504 
L 137.90112 239.69488 
L 148.839682 239.69488 
L 148.839682 225.057256 
L 151.929412 225.057256 
L 151.929412 210.419632 
L 157.496639 210.419632 
L 157.496639 195.782009 
L 164.661466 195.782009 
L 164.661466 181.144385 
L 172.626993 181.144385 
L 172.626993 166.506761 
L 186.395518 166.506761 
L 186.395518 151.869137 
L 190.131653 151.869137 
L 190.131653 137.231514 
L 196.728371 137.231514 
L 196.728371 122.59389 
L 202.422515 122.59389 
L 202.422515 107.956266 
L 211.902914 107.956266 
L 211.902914 93.318642 
L 215.940803 93.318642 
L 215.940803 78.681019 
L 222.459225 78.681019 
L 222.459225 64.043395 
L 227.612972 64.043395 
L 227.612972 49.405771 
L 233.90112 49.405771 
L 233.90112 34.768147 
L 358.8 34.768147 
" style="fill:none;stroke:#f5deb3;stroke-linecap:square;stroke-width:6;"/>
   </g>
   <g id="line2d_2"/>
   <g id="line2d_3">
    <path d="M 358.8 34.768147 
L 390.48 40.037692 
" style="fill:none;stroke:#f5deb3;stroke-linecap:square;stroke-width:6;"/>
    <defs>
     <path d="M -0 7.778175 
L 7.778175 0 
L 0 -7.778175 
L -7.778175 -0 
z
" id="m15fe35840b" style="stroke:#f5deb3;stroke-linejoin:miter;stroke-width:1.5;"/>
    </defs>
    <g>
     <use style="fill:#f5deb3;stroke:#f5deb3;stroke-linejoin:miter;stroke-width:1.5;" x="358.8" xlink:href="#m15fe35840b" y="34.768147"/>
     <use style="fill:#f5deb3;stroke:#f5deb3;stroke-linejoin:miter;stroke-width:1.5;" x="390.48" xlink:href="#m15fe35840b" y="40.037692"/>
    </g>
   </g>
   <g id="matplotlib.axis_1">
    <g id="xtick_1">
     <g id="line2d_4">
      <path clip-path="url(#pd1365c70af)" d="M 70.8 298.245375 
L 70.8 32.133375 
" style="fill:none;stroke:#b0b0b0;stroke-linecap:square;stroke-width:0.8;"/>
     </g>
     <g id="line2d_5">
      <defs>
       <path d="M 0 0 
L 0 3.5 
" id="md59f890e22" style="stroke:#000000;stroke-width:0.8;"/>
      </defs>
      <g>
       <use style="stroke:#000000;stroke-width:0.8;" x="70.8" xlink:href="#md59f890e22" y="298.245375"/>
      </g>
     </g>
     <g id="text_1">
      <!-- 0 -->
      <defs>
       <path d="M 31.78125 66.40625 
Q 24.171875 66.40625 20.328125 58.90625 
Q 16.5 51.421875 16.5 36.375 
Q 16.5 21.390625 20.328125 13.890625 
Q 24.171875 6.390625 31.78125 6.390625 
Q 39.453125 6.390625 43.28125 13.890625 
Q 47.125 21.390625 47.125 36.375 
Q 47.125 51.421875 43.28125 58.90625 
Q 39.453125 66.40625 31.78125 66.40625 
z
M 31.78125 74.21875 
Q 44.046875 74.21875 50.515625 64.515625 
Q 56.984375 54.828125 56.984375 36.375 
Q 56.984375 17.96875 50.515625 8.265625 
Q 44.046875 -1.421875 31.78125 -1.421875 
Q 19.53125 -1.421875 13.0625 8.265625 
Q 6.59375 17.96875 6.59375 36.375 
Q 6.59375 54.828125 13.0625 64.515625 
Q 19.53125 74.21875 31.78125 74.21875 
z
" id="DejaVuSans-30"/>
      </defs>
      <g transform="translate(64.4375 320.44225)scale(0.2 -0.2)">
       <use xlink:href="#DejaVuSans-30"/>
      </g>
     </g>
    </g>
    <g id="xtick_2">
     <g id="line2d_6">
      <path clip-path="url(#pd1365c70af)" d="M 166.8 298.245375 
L 166.8 32.133375 
" style="fill:none;stroke:#b0b0b0;stroke-linecap:square;stroke-width:0.8;"/>
     </g>
     <g id="line2d_7">
      <g>
       <use style="stroke:#000000;stroke-width:0.8;" x="166.8" xlink:href="#md59f890e22" y="298.245375"/>
      </g>
     </g>
     <g id="text_2">
      <!-- 1 -->
      <defs>
       <path d="M 12.40625 8.296875 
L 28.515625 8.296875 
L 28.515625 63.921875 
L 10.984375 60.40625 
L 10.984375 69.390625 
L 28.421875 72.90625 
L 38.28125 72.90625 
L 38.28125 8.296875 
L 54.390625 8.296875 
L 54.390625 0 
L 12.40625 0 
z
" id="DejaVuSans-31"/>
      </defs>
      <g transform="translate(160.4375 320.44225)scale(0.2 -0.2)">
       <use xlink:href="#DejaVuSans-31"/>
      </g>
     </g>
    </g>
    <g id="xtick_3">
     <g id="line2d_8">
      <path clip-path="url(#pd1365c70af)" d="M 262.8 298.245375 
L 262.8 32.133375 
" style="fill:none;stroke:#b0b0b0;stroke-linecap:square;stroke-width:0.8;"/>
     </g>
     <g id="line2d_9">
      <g>
       <use style="stroke:#000000;stroke-width:0.8;" x="262.8" xlink:href="#md59f890e22" y="298.245375"/>
      </g>
     </g>
     <g id="text_3">
      <!-- 2 -->
      <defs>
       <path d="M 19.1875 8.296875 
L 53.609375 8.296875 
L 53.609375 0 
L 7.328125 0 
L 7.328125 8.296875 
Q 12.9375 14.109375 22.625 23.890625 
Q 32.328125 33.6875 34.8125 36.53125 
Q 39.546875 41.84375 41.421875 45.53125 
Q 43.3125 49.21875 43.3125 52.78125 
Q 43.3125 58.59375 39.234375 62.25 
Q 35.15625 65.921875 28.609375 65.921875 
Q 23.96875 65.921875 18.8125 64.3125 
Q 13.671875 62.703125 7.8125 59.421875 
L 7.8125 69.390625 
Q 13.765625 71.78125 18.9375 73 
Q 24.125 74.21875 28.421875 74.21875 
Q 39.75 74.21875 46.484375 68.546875 
Q 53.21875 62.890625 53.21875 53.421875 
Q 53.21875 48.921875 51.53125 44.890625 
Q 49.859375 40.875 45.40625 35.40625 
Q 44.1875 33.984375 37.640625 27.21875 
Q 31.109375 20.453125 19.1875 8.296875 
z
" id="DejaVuSans-32"/>
      </defs>
      <g transform="translate(256.4375 320.44225)scale(0.2 -0.2)">
       <use xlink:href="#DejaVuSans-32"/>
      </g>
     </g>
    </g>
    <g id="xtick_4">
     <g id="line2d_10">
      <path clip-path="url(#pd1365c70af)" d="M 358.8 298.245375 
L 358.8 32.133375 
" style="fill:none;stroke:#b0b0b0;stroke-linecap:square;stroke-width:0.8;"/>
     </g>
     <g id="line2d_11">
      <g>
       <use style="stroke:#000000;stroke-width:0.8;" x="358.8" xlink:href="#md59f890e22" y="298.245375"/>
      </g>
     </g>
     <g id="text_4">
      <!-- 3 -->
      <defs>
       <path d="M 40.578125 39.3125 
Q 47.65625 37.796875 51.625 33 
Q 55.609375 28.21875 55.609375 21.1875 
Q 55.609375 10.40625 48.1875 4.484375 
Q 40.765625 -1.421875 27.09375 -1.421875 
Q 22.515625 -1.421875 17.65625 -0.515625 
Q 12.796875 0.390625 7.625 2.203125 
L 7.625 11.71875 
Q 11.71875 9.328125 16.59375 8.109375 
Q 21.484375 6.890625 26.8125 6.890625 
Q 36.078125 6.890625 40.9375 10.546875 
Q 45.796875 14.203125 45.796875 21.1875 
Q 45.796875 27.640625 41.28125 31.265625 
Q 36.765625 34.90625 28.71875 34.90625 
L 20.21875 34.90625 
L 20.21875 43.015625 
L 29.109375 43.015625 
Q 36.375 43.015625 40.234375 45.921875 
Q 44.09375 48.828125 44.09375 54.296875 
Q 44.09375 59.90625 40.109375 62.90625 
Q 36.140625 65.921875 28.71875 65.921875 
Q 24.65625 65.921875 20.015625 65.03125 
Q 15.375 64.15625 9.8125 62.3125 
L 9.8125 71.09375 
Q 15.4375 72.65625 20.34375 73.4375 
Q 25.25 74.21875 29.59375 74.21875 
Q 40.828125 74.21875 47.359375 69.109375 
Q 53.90625 64.015625 53.90625 55.328125 
Q 53.90625 49.265625 50.4375 45.09375 
Q 46.96875 40.921875 40.578125 39.3125 
z
" id="DejaVuSans-33"/>
      </defs>
      <g transform="translate(352.4375 320.44225)scale(0.2 -0.2)">
       <use xlink:href="#DejaVuSans-33"/>
      </g>
     </g>
    </g>
    <g id="xtick_5">
     <g id="line2d_12">
      <defs>
       <path d="M 0 0 
L 0 2 
" id="m992085a03d" style="stroke:#000000;stroke-width:0.6;"/>
      </defs>
      <g>
       <use style="stroke:#000000;stroke-width:0.6;" x="99.69888" xlink:href="#m992085a03d" y="298.245375"/>
      </g>
     </g>
    </g>
    <g id="xtick_6">
     <g id="line2d_13">
      <g>
       <use style="stroke:#000000;stroke-width:0.6;" x="116.60364" xlink:href="#m992085a03d" y="298.245375"/>
      </g>
     </g>
    </g>
    <g id="xtick_7">
     <g id="line2d_14">
      <g>
       <use style="stroke:#000000;stroke-width:0.6;" x="128.597759" xlink:href="#m992085a03d" y="298.245375"/>
      </g>
     </g>
    </g>
    <g id="xtick_8">
     <g id="line2d_15">
      <g>
       <use style="stroke:#000000;stroke-width:0.6;" x="137.90112" xlink:href="#m992085a03d" y="298.245375"/>
      </g>
     </g>
    </g>
    <g id="xtick_9">
     <g id="line2d_16">
      <g>
       <use style="stroke:#000000;stroke-width:0.6;" x="145.50252" xlink:href="#m992085a03d" y="298.245375"/>
      </g>
     </g>
    </g>
    <g id="xtick_10">
     <g id="line2d_17">
      <g>
       <use style="stroke:#000000;stroke-width:0.6;" x="151.929412" xlink:href="#m992085a03d" y="298.245375"/>
      </g>
     </g>
    </g>
    <g id="xtick_11">
     <g id="line2d_18">
      <g>
       <use style="stroke:#000000;stroke-width:0.6;" x="157.496639" xlink:href="#m992085a03d" y="298.245375"/>
      </g>
     </g>
    </g>
    <g id="xtick_12">
     <g id="line2d_19">
      <g>
       <use style="stroke:#000000;stroke-width:0.6;" x="162.407281" xlink:href="#m992085a03d" y="298.245375"/>
      </g>
     </g>
    </g>
    <g id="xtick_13">
     <g id="line2d_20">
      <g>
       <use style="stroke:#000000;stroke-width:0.6;" x="195.69888" xlink:href="#m992085a03d" y="298.245375"/>
      </g>
     </g>
    </g>
    <g id="xtick_14">
     <g id="line2d_21">
      <g>
       <use style="stroke:#000000;stroke-width:0.6;" x="212.60364" xlink:href="#m992085a03d" y="298.245375"/>
      </g>
     </g>
    </g>
    <g id="xtick_15">
     <g id="line2d_22">
      <g>
       <use style="stroke:#000000;stroke-width:0.6;" x="224.597759" xlink:href="#m992085a03d" y="298.245375"/>
      </g>
     </g>
    </g>
    <g id="xtick_16">
     <g id="line2d_23">
      <g>
       <use style="stroke:#000000;stroke-width:0.6;" x="233.90112" xlink:href="#m992085a03d" y="298.245375"/>
      </g>
     </g>
    </g>
    <g id="xtick_17">
     <g id="line2d_24">
      <g>
       <use style="stroke:#000000;stroke-width:0.6;" x="241.50252" xlink:href="#m992085a03d" y="298.245375"/>
      </g>
     </g>
    </g>
    <g id="xtick_18">
     <g id="line2d_25">
      <g>
       <use style="stroke:#000000;stroke-width:0.6;" x="247.929412" xlink:href="#m992085a03d" y="298.245375"/>
      </g>
     </g>
    </g>
    <g id="xtick_19">
     <g id="line2d_26">
      <g>
       <use style="stroke:#000000;stroke-width:0.6;" x="253.496639" xlink:href="#m992085a03d" y="298.245375"/>
      </g>
     </g>
    </g>
    <g id="xtick_20">
     <g id="line2d_27">
      <g>
       <use style="stroke:#000000;stroke-width:0.6;" x="258.407281" xlink:href="#m992085a03d" y="298.245375"/>
      </g>
     </g>
    </g>
    <g id="xtick_21">
     <g id="line2d_28">
      <g>
       <use style="stroke:#000000;stroke-width:0.6;" x="291.69888" xlink:href="#m992085a03d" y="298.245375"/>
      </g>
     </g>
    </g>
    <g id="xtick_22">
     <g id="line2d_29">
      <g>
       <use style="stroke:#000000;stroke-width:0.6;" x="308.60364" xlink:href="#m992085a03d" y="298.245375"/>
      </g>
     </g>
    </g>
    <g id="xtick_23">
     <g id="line2d_30">
      <g>
       <use style="stroke:#000000;stroke-width:0.6;" x="320.597759" xlink:href="#m992085a03d" y="298.245375"/>
      </g>
     </g>
    </g>
    <g id="xtick_24">
     <g id="line2d_31">
      <g>
       <use style="stroke:#000000;stroke-width:0.6;" x="329.90112" xlink:href="#m992085a03d" y="298.245375"/>
      </g>
     </g>
    </g>
    <g id="xtick_25">
     <g id="line2d_32">
      <g>
       <use style="stroke:#000000;stroke-width:0.6;" x="337.50252" xlink:href="#m992085a03d" y="298.245375"/>
      </g>
     </g>
    </g>
    <g id="xtick_26">
     <g id="line2d_33">
      <g>
       <use style="stroke:#000000;stroke-width:0.6;" x="343.929412" xlink:href="#m992085a03d" y="298.245375"/>
      </g>
     </g>
    </g>
    <g id="xtick_27">
     <g id="line2d_34">
      <g>
       <use style="stroke:#000000;stroke-width:0.6;" x="349.496639" xlink:href="#m992085a03d" y="298.245375"/>
      </g>
     </g>
    </g>
    <g id="xtick_28">
     <g id="line2d_35">
      <g>
       <use style="stroke:#000000;stroke-width:0.6;" x="354.407281" xlink:href="#m992085a03d" y="298.245375"/>
      </g>
     </g>
    </g>
    <g id="xtick_29">
     <g id="line2d_36">
      <g>
       <use style="stroke:#000000;stroke-width:0.6;" x="387.69888" xlink:href="#m992085a03d" y="298.245375"/>
      </g>
     </g>
    </g>
    <g id="xtick_30">
     <g id="line2d_37">
      <g>
       <use style="stroke:#000000;stroke-width:0.6;" x="404.60364" xlink:href="#m992085a03d" y="298.245375"/>
      </g>
     </g>
    </g>
    <g id="xtick_31">
     <g id="line2d_38">
      <g>
       <use style="stroke:#000000;stroke-width:0.6;" x="416.597759" xlink:href="#m992085a03d" y="298.245375"/>
      </g>
     </g>
    </g>
    <g id="xtick_32">
     <g id="line2d_39">
      <g>
       <use style="stroke:#000000;stroke-width:0.6;" x="425.90112" xlink:href="#m992085a03d" y="298.245375"/>
      </g>
     </g>
    </g>
    <g id="text_5">
     <!-- log10 of (# f-evals / dimension) -->
     <defs>
      <path d="M 9.421875 75.984375 
L 18.40625 75.984375 
L 18.40625 0 
L 9.421875 0 
z
" id="DejaVuSans-6c"/>
      <path d="M 30.609375 48.390625 
Q 23.390625 48.390625 19.1875 42.75 
Q 14.984375 37.109375 14.984375 27.296875 
Q 14.984375 17.484375 19.15625 11.84375 
Q 23.34375 6.203125 30.609375 6.203125 
Q 37.796875 6.203125 41.984375 11.859375 
Q 46.1875 17.53125 46.1875 27.296875 
Q 46.1875 37.015625 41.984375 42.703125 
Q 37.796875 48.390625 30.609375 48.390625 
z
M 30.609375 56 
Q 42.328125 56 49.015625 48.375 
Q 55.71875 40.765625 55.71875 27.296875 
Q 55.71875 13.875 49.015625 6.21875 
Q 42.328125 -1.421875 30.609375 -1.421875 
Q 18.84375 -1.421875 12.171875 6.21875 
Q 5.515625 13.875 5.515625 27.296875 
Q 5.515625 40.765625 12.171875 48.375 
Q 18.84375 56 30.609375 56 
z
" id="DejaVuSans-6f"/>
      <path d="M 45.40625 27.984375 
Q 45.40625 37.75 41.375 43.109375 
Q 37.359375 48.484375 30.078125 48.484375 
Q 22.859375 48.484375 18.828125 43.109375 
Q 14.796875 37.75 14.796875 27.984375 
Q 14.796875 18.265625 18.828125 12.890625 
Q 22.859375 7.515625 30.078125 7.515625 
Q 37.359375 7.515625 41.375 12.890625 
Q 45.40625 18.265625 45.40625 27.984375 
z
M 54.390625 6.78125 
Q 54.390625 -7.171875 48.1875 -13.984375 
Q 42 -20.796875 29.203125 -20.796875 
Q 24.46875 -20.796875 20.265625 -20.09375 
Q 16.0625 -19.390625 12.109375 -17.921875 
L 12.109375 -9.1875 
Q 16.0625 -11.328125 19.921875 -12.34375 
Q 23.78125 -13.375 27.78125 -13.375 
Q 36.625 -13.375 41.015625 -8.765625 
Q 45.40625 -4.15625 45.40625 5.171875 
L 45.40625 9.625 
Q 42.625 4.78125 38.28125 2.390625 
Q 33.9375 0 27.875 0 
Q 17.828125 0 11.671875 7.65625 
Q 5.515625 15.328125 5.515625 27.984375 
Q 5.515625 40.671875 11.671875 48.328125 
Q 17.828125 56 27.875 56 
Q 33.9375 56 38.28125 53.609375 
Q 42.625 51.21875 45.40625 46.390625 
L 45.40625 54.6875 
L 54.390625 54.6875 
z
" id="DejaVuSans-67"/>
      <path id="DejaVuSans-20"/>
      <path d="M 37.109375 75.984375 
L 37.109375 68.5 
L 28.515625 68.5 
Q 23.6875 68.5 21.796875 66.546875 
Q 19.921875 64.59375 19.921875 59.515625 
L 19.921875 54.6875 
L 34.71875 54.6875 
L 34.71875 47.703125 
L 19.921875 47.703125 
L 19.921875 0 
L 10.890625 0 
L 10.890625 47.703125 
L 2.296875 47.703125 
L 2.296875 54.6875 
L 10.890625 54.6875 
L 10.890625 58.5 
Q 10.890625 67.625 15.140625 71.796875 
Q 19.390625 75.984375 28.609375 75.984375 
z
" id="DejaVuSans-66"/>
      <path d="M 31 75.875 
Q 24.46875 64.65625 21.28125 53.65625 
Q 18.109375 42.671875 18.109375 31.390625 
Q 18.109375 20.125 21.3125 9.0625 
Q 24.515625 -2 31 -13.1875 
L 23.1875 -13.1875 
Q 15.875 -1.703125 12.234375 9.375 
Q 8.59375 20.453125 8.59375 31.390625 
Q 8.59375 42.28125 12.203125 53.3125 
Q 15.828125 64.359375 23.1875 75.875 
z
" id="DejaVuSans-28"/>
      <path d="M 51.125 44 
L 36.921875 44 
L 32.8125 27.6875 
L 47.125 27.6875 
z
M 43.796875 71.78125 
L 38.71875 51.515625 
L 52.984375 51.515625 
L 58.109375 71.78125 
L 65.921875 71.78125 
L 60.890625 51.515625 
L 76.125 51.515625 
L 76.125 44 
L 58.984375 44 
L 54.984375 27.6875 
L 70.515625 27.6875 
L 70.515625 20.21875 
L 53.078125 20.21875 
L 48 0 
L 40.1875 0 
L 45.21875 20.21875 
L 30.90625 20.21875 
L 25.875 0 
L 18.015625 0 
L 23.09375 20.21875 
L 7.71875 20.21875 
L 7.71875 27.6875 
L 24.90625 27.6875 
L 29 44 
L 13.28125 44 
L 13.28125 51.515625 
L 30.90625 51.515625 
L 35.890625 71.78125 
z
" id="DejaVuSans-23"/>
      <path d="M 4.890625 31.390625 
L 31.203125 31.390625 
L 31.203125 23.390625 
L 4.890625 23.390625 
z
" id="DejaVuSans-2d"/>
      <path d="M 56.203125 29.59375 
L 56.203125 25.203125 
L 14.890625 25.203125 
Q 15.484375 15.921875 20.484375 11.0625 
Q 25.484375 6.203125 34.421875 6.203125 
Q 39.59375 6.203125 44.453125 7.46875 
Q 49.3125 8.734375 54.109375 11.28125 
L 54.109375 2.78125 
Q 49.265625 0.734375 44.1875 -0.34375 
Q 39.109375 -1.421875 33.890625 -1.421875 
Q 20.796875 -1.421875 13.15625 6.1875 
Q 5.515625 13.8125 5.515625 26.8125 
Q 5.515625 40.234375 12.765625 48.109375 
Q 20.015625 56 32.328125 56 
Q 43.359375 56 49.78125 48.890625 
Q 56.203125 41.796875 56.203125 29.59375 
z
M 47.21875 32.234375 
Q 47.125 39.59375 43.09375 43.984375 
Q 39.0625 48.390625 32.421875 48.390625 
Q 24.90625 48.390625 20.390625 44.140625 
Q 15.875 39.890625 15.1875 32.171875 
z
" id="DejaVuSans-65"/>
      <path d="M 2.984375 54.6875 
L 12.5 54.6875 
L 29.59375 8.796875 
L 46.6875 54.6875 
L 56.203125 54.6875 
L 35.6875 0 
L 23.484375 0 
z
" id="DejaVuSans-76"/>
      <path d="M 34.28125 27.484375 
Q 23.390625 27.484375 19.1875 25 
Q 14.984375 22.515625 14.984375 16.5 
Q 14.984375 11.71875 18.140625 8.90625 
Q 21.296875 6.109375 26.703125 6.109375 
Q 34.1875 6.109375 38.703125 11.40625 
Q 43.21875 16.703125 43.21875 25.484375 
L 43.21875 27.484375 
z
M 52.203125 31.203125 
L 52.203125 0 
L 43.21875 0 
L 43.21875 8.296875 
Q 40.140625 3.328125 35.546875 0.953125 
Q 30.953125 -1.421875 24.3125 -1.421875 
Q 15.921875 -1.421875 10.953125 3.296875 
Q 6 8.015625 6 15.921875 
Q 6 25.140625 12.171875 29.828125 
Q 18.359375 34.515625 30.609375 34.515625 
L 43.21875 34.515625 
L 43.21875 35.40625 
Q 43.21875 41.609375 39.140625 45 
Q 35.0625 48.390625 27.6875 48.390625 
Q 23 48.390625 18.546875 47.265625 
Q 14.109375 46.140625 10.015625 43.890625 
L 10.015625 52.203125 
Q 14.9375 54.109375 19.578125 55.046875 
Q 24.21875 56 28.609375 56 
Q 40.484375 56 46.34375 49.84375 
Q 52.203125 43.703125 52.203125 31.203125 
z
" id="DejaVuSans-61"/>
      <path d="M 44.28125 53.078125 
L 44.28125 44.578125 
Q 40.484375 46.53125 36.375 47.5 
Q 32.28125 48.484375 27.875 48.484375 
Q 21.1875 48.484375 17.84375 46.4375 
Q 14.5 44.390625 14.5 40.28125 
Q 14.5 37.15625 16.890625 35.375 
Q 19.28125 33.59375 26.515625 31.984375 
L 29.59375 31.296875 
Q 39.15625 29.25 43.1875 25.515625 
Q 47.21875 21.78125 47.21875 15.09375 
Q 47.21875 7.46875 41.1875 3.015625 
Q 35.15625 -1.421875 24.609375 -1.421875 
Q 20.21875 -1.421875 15.453125 -0.5625 
Q 10.6875 0.296875 5.421875 2 
L 5.421875 11.28125 
Q 10.40625 8.6875 15.234375 7.390625 
Q 20.0625 6.109375 24.8125 6.109375 
Q 31.15625 6.109375 34.5625 8.28125 
Q 37.984375 10.453125 37.984375 14.40625 
Q 37.984375 18.0625 35.515625 20.015625 
Q 33.0625 21.96875 24.703125 23.78125 
L 21.578125 24.515625 
Q 13.234375 26.265625 9.515625 29.90625 
Q 5.8125 33.546875 5.8125 39.890625 
Q 5.8125 47.609375 11.28125 51.796875 
Q 16.75 56 26.8125 56 
Q 31.78125 56 36.171875 55.265625 
Q 40.578125 54.546875 44.28125 53.078125 
z
" id="DejaVuSans-73"/>
      <path d="M 25.390625 72.90625 
L 33.6875 72.90625 
L 8.296875 -9.28125 
L 0 -9.28125 
z
" id="DejaVuSans-2f"/>
      <path d="M 45.40625 46.390625 
L 45.40625 75.984375 
L 54.390625 75.984375 
L 54.390625 0 
L 45.40625 0 
L 45.40625 8.203125 
Q 42.578125 3.328125 38.25 0.953125 
Q 33.9375 -1.421875 27.875 -1.421875 
Q 17.96875 -1.421875 11.734375 6.484375 
Q 5.515625 14.40625 5.515625 27.296875 
Q 5.515625 40.1875 11.734375 48.09375 
Q 17.96875 56 27.875 56 
Q 33.9375 56 38.25 53.625 
Q 42.578125 51.265625 45.40625 46.390625 
z
M 14.796875 27.296875 
Q 14.796875 17.390625 18.875 11.75 
Q 22.953125 6.109375 30.078125 6.109375 
Q 37.203125 6.109375 41.296875 11.75 
Q 45.40625 17.390625 45.40625 27.296875 
Q 45.40625 37.203125 41.296875 42.84375 
Q 37.203125 48.484375 30.078125 48.484375 
Q 22.953125 48.484375 18.875 42.84375 
Q 14.796875 37.203125 14.796875 27.296875 
z
" id="DejaVuSans-64"/>
      <path d="M 9.421875 54.6875 
L 18.40625 54.6875 
L 18.40625 0 
L 9.421875 0 
z
M 9.421875 75.984375 
L 18.40625 75.984375 
L 18.40625 64.59375 
L 9.421875 64.59375 
z
" id="DejaVuSans-69"/>
      <path d="M 52 44.1875 
Q 55.375 50.25 60.0625 53.125 
Q 64.75 56 71.09375 56 
Q 79.640625 56 84.28125 50.015625 
Q 88.921875 44.046875 88.921875 33.015625 
L 88.921875 0 
L 79.890625 0 
L 79.890625 32.71875 
Q 79.890625 40.578125 77.09375 44.375 
Q 74.3125 48.1875 68.609375 48.1875 
Q 61.625 48.1875 57.5625 43.546875 
Q 53.515625 38.921875 53.515625 30.90625 
L 53.515625 0 
L 44.484375 0 
L 44.484375 32.71875 
Q 44.484375 40.625 41.703125 44.40625 
Q 38.921875 48.1875 33.109375 48.1875 
Q 26.21875 48.1875 22.15625 43.53125 
Q 18.109375 38.875 18.109375 30.90625 
L 18.109375 0 
L 9.078125 0 
L 9.078125 54.6875 
L 18.109375 54.6875 
L 18.109375 46.1875 
Q 21.1875 51.21875 25.484375 53.609375 
Q 29.78125 56 35.6875 56 
Q 41.65625 56 45.828125 52.96875 
Q 50 49.953125 52 44.1875 
z
" id="DejaVuSans-6d"/>
      <path d="M 54.890625 33.015625 
L 54.890625 0 
L 45.90625 0 
L 45.90625 32.71875 
Q 45.90625 40.484375 42.875 44.328125 
Q 39.84375 48.1875 33.796875 48.1875 
Q 26.515625 48.1875 22.3125 43.546875 
Q 18.109375 38.921875 18.109375 30.90625 
L 18.109375 0 
L 9.078125 0 
L 9.078125 54.6875 
L 18.109375 54.6875 
L 18.109375 46.1875 
Q 21.34375 51.125 25.703125 53.5625 
Q 30.078125 56 35.796875 56 
Q 45.21875 56 50.046875 50.171875 
Q 54.890625 44.34375 54.890625 33.015625 
z
" id="DejaVuSans-6e"/>
      <path d="M 8.015625 75.875 
L 15.828125 75.875 
Q 23.140625 64.359375 26.78125 53.3125 
Q 30.421875 42.28125 30.421875 31.390625 
Q 30.421875 20.453125 26.78125 9.375 
Q 23.140625 -1.703125 15.828125 -13.1875 
L 8.015625 -13.1875 
Q 14.5 -2 17.703125 9.0625 
Q 20.90625 20.125 20.90625 31.390625 
Q 20.90625 42.671875 17.703125 53.65625 
Q 14.5 64.65625 8.015625 75.875 
z
" id="DejaVuSans-29"/>
     </defs>
     <g transform="translate(107.015156 342.278812)scale(0.18 -0.18)">
      <use xlink:href="#DejaVuSans-6c"/>
      <use x="27.783203" xlink:href="#DejaVuSans-6f"/>
      <use x="88.964844" xlink:href="#DejaVuSans-67"/>
      <use x="152.441406" xlink:href="#DejaVuSans-31"/>
      <use x="216.064453" xlink:href="#DejaVuSans-30"/>
      <use x="279.6875" xlink:href="#DejaVuSans-20"/>
      <use x="311.474609" xlink:href="#DejaVuSans-6f"/>
      <use x="372.65625" xlink:href="#DejaVuSans-66"/>
      <use x="407.861328" xlink:href="#DejaVuSans-20"/>
      <use x="439.648438" xlink:href="#DejaVuSans-28"/>
      <use x="478.662109" xlink:href="#DejaVuSans-23"/>
      <use x="562.451172" xlink:href="#DejaVuSans-20"/>
      <use x="594.238281" xlink:href="#DejaVuSans-66"/>
      <use x="629.365234" xlink:href="#DejaVuSans-2d"/>
      <use x="665.449219" xlink:href="#DejaVuSans-65"/>
      <use x="726.972656" xlink:href="#DejaVuSans-76"/>
      <use x="786.152344" xlink:href="#DejaVuSans-61"/>
      <use x="847.431641" xlink:href="#DejaVuSans-6c"/>
      <use x="875.214844" xlink:href="#DejaVuSans-73"/>
      <use x="927.314453" xlink:href="#DejaVuSans-20"/>
      <use x="959.101562" xlink:href="#DejaVuSans-2f"/>
      <use x="992.792969" xlink:href="#DejaVuSans-20"/>
      <use x="1024.580078" xlink:href="#DejaVuSans-64"/>
      <use x="1088.056641" xlink:href="#DejaVuSans-69"/>
      <use x="1115.839844" xlink:href="#DejaVuSans-6d"/>
      <use x="1213.251953" xlink:href="#DejaVuSans-65"/>
      <use x="1274.775391" xlink:href="#DejaVuSans-6e"/>
      <use x="1338.154297" xlink:href="#DejaVuSans-73"/>
      <use x="1390.253906" xlink:href="#DejaVuSans-69"/>
      <use x="1418.037109" xlink:href="#DejaVuSans-6f"/>
      <use x="1479.21875" xlink:href="#DejaVuSans-6e"/>
      <use x="1542.597656" xlink:href="#DejaVuSans-29"/>
     </g>
    </g>
   </g>
   <g id="matplotlib.axis_2">
    <g id="ytick_1">
     <g id="line2d_40">
      <path clip-path="url(#pd1365c70af)" d="M 70.8 298.245375 
L 427.92 298.245375 
" style="fill:none;stroke:#b0b0b0;stroke-linecap:square;stroke-width:0.8;"/>
     </g>
     <g id="line2d_41">
      <defs>
       <path d="M 0 0 
L -3.5 0 
" id="mc46dd6bfe7" style="stroke:#000000;stroke-width:0.8;"/>
      </defs>
      <g>
       <use style="stroke:#000000;stroke-width:0.8;" x="70.8" xlink:href="#mc46dd6bfe7" y="298.245375"/>
      </g>
     </g>
     <g id="text_6">
      <!-- 0.0 -->
      <defs>
       <path d="M 10.6875 12.40625 
L 21 12.40625 
L 21 0 
L 10.6875 0 
z
" id="DejaVuSans-2e"/>
      </defs>
      <g transform="translate(31.99375 305.843812)scale(0.2 -0.2)">
       <use xlink:href="#DejaVuSans-30"/>
       <use x="63.623047" xlink:href="#DejaVuSans-2e"/>
       <use x="95.410156" xlink:href="#DejaVuSans-30"/>
      </g>
     </g>
    </g>
    <g id="ytick_2">
     <g id="line2d_42">
      <path clip-path="url(#pd1365c70af)" d="M 70.8 245.549929 
L 427.92 245.549929 
" style="fill:none;stroke:#b0b0b0;stroke-linecap:square;stroke-width:0.8;"/>
     </g>
     <g id="line2d_43">
      <g>
       <use style="stroke:#000000;stroke-width:0.8;" x="70.8" xlink:href="#mc46dd6bfe7" y="245.549929"/>
      </g>
     </g>
     <g id="text_7">
      <!-- 0.2 -->
      <g transform="translate(31.99375 253.148367)scale(0.2 -0.2)">
       <use xlink:href="#DejaVuSans-30"/>
       <use x="63.623047" xlink:href="#DejaVuSans-2e"/>
       <use x="95.410156" xlink:href="#DejaVuSans-32"/>
      </g>
     </g>
    </g>
    <g id="ytick_3">
     <g id="line2d_44">
      <path clip-path="url(#pd1365c70af)" d="M 70.8 192.854484 
L 427.92 192.854484 
" style="fill:none;stroke:#b0b0b0;stroke-linecap:square;stroke-width:0.8;"/>
     </g>
     <g id="line2d_45">
      <g>
       <use style="stroke:#000000;stroke-width:0.8;" x="70.8" xlink:href="#mc46dd6bfe7" y="192.854484"/>
      </g>
     </g>
     <g id="text_8">
      <!-- 0.4 -->
      <defs>
       <path d="M 37.796875 64.3125 
L 12.890625 25.390625 
L 37.796875 25.390625 
z
M 35.203125 72.90625 
L 47.609375 72.90625 
L 47.609375 25.390625 
L 58.015625 25.390625 
L 58.015625 17.1875 
L 47.609375 17.1875 
L 47.609375 0 
L 37.796875 0 
L 37.796875 17.1875 
L 4.890625 17.1875 
L 4.890625 26.703125 
z
" id="DejaVuSans-34"/>
      </defs>
      <g transform="translate(31.99375 200.452921)scale(0.2 -0.2)">
       <use xlink:href="#DejaVuSans-30"/>
       <use x="63.623047" xlink:href="#DejaVuSans-2e"/>
       <use x="95.410156" xlink:href="#DejaVuSans-34"/>
      </g>
     </g>
    </g>
    <g id="ytick_4">
     <g id="line2d_46">
      <path clip-path="url(#pd1365c70af)" d="M 70.8 140.159038 
L 427.92 140.159038 
" style="fill:none;stroke:#b0b0b0;stroke-linecap:square;stroke-width:0.8;"/>
     </g>
     <g id="line2d_47">
      <g>
       <use style="stroke:#000000;stroke-width:0.8;" x="70.8" xlink:href="#mc46dd6bfe7" y="140.159038"/>
      </g>
     </g>
     <g id="text_9">
      <!-- 0.6 -->
      <defs>
       <path d="M 33.015625 40.375 
Q 26.375 40.375 22.484375 35.828125 
Q 18.609375 31.296875 18.609375 23.390625 
Q 18.609375 15.53125 22.484375 10.953125 
Q 26.375 6.390625 33.015625 6.390625 
Q 39.65625 6.390625 43.53125 10.953125 
Q 47.40625 15.53125 47.40625 23.390625 
Q 47.40625 31.296875 43.53125 35.828125 
Q 39.65625 40.375 33.015625 40.375 
z
M 52.59375 71.296875 
L 52.59375 62.3125 
Q 48.875 64.0625 45.09375 64.984375 
Q 41.3125 65.921875 37.59375 65.921875 
Q 27.828125 65.921875 22.671875 59.328125 
Q 17.53125 52.734375 16.796875 39.40625 
Q 19.671875 43.65625 24.015625 45.921875 
Q 28.375 48.1875 33.59375 48.1875 
Q 44.578125 48.1875 50.953125 41.515625 
Q 57.328125 34.859375 57.328125 23.390625 
Q 57.328125 12.15625 50.6875 5.359375 
Q 44.046875 -1.421875 33.015625 -1.421875 
Q 20.359375 -1.421875 13.671875 8.265625 
Q 6.984375 17.96875 6.984375 36.375 
Q 6.984375 53.65625 15.1875 63.9375 
Q 23.390625 74.21875 37.203125 74.21875 
Q 40.921875 74.21875 44.703125 73.484375 
Q 48.484375 72.75 52.59375 71.296875 
z
" id="DejaVuSans-36"/>
      </defs>
      <g transform="translate(31.99375 147.757476)scale(0.2 -0.2)">
       <use xlink:href="#DejaVuSans-30"/>
       <use x="63.623047" xlink:href="#DejaVuSans-2e"/>
       <use x="95.410156" xlink:href="#DejaVuSans-36"/>
      </g>
     </g>
    </g>
    <g id="ytick_5">
     <g id="line2d_48">
      <path clip-path="url(#pd1365c70af)" d="M 70.8 87.463593 
L 427.92 87.463593 
" style="fill:none;stroke:#b0b0b0;stroke-linecap:square;stroke-width:0.8;"/>
     </g>
     <g id="line2d_49">
      <g>
       <use style="stroke:#000000;stroke-width:0.8;" x="70.8" xlink:href="#mc46dd6bfe7" y="87.463593"/>
      </g>
     </g>
     <g id="text_10">
      <!-- 0.8 -->
      <defs>
       <path d="M 31.78125 34.625 
Q 24.75 34.625 20.71875 30.859375 
Q 16.703125 27.09375 16.703125 20.515625 
Q 16.703125 13.921875 20.71875 10.15625 
Q 24.75 6.390625 31.78125 6.390625 
Q 38.8125 6.390625 42.859375 10.171875 
Q 46.921875 13.96875 46.921875 20.515625 
Q 46.921875 27.09375 42.890625 30.859375 
Q 38.875 34.625 31.78125 34.625 
z
M 21.921875 38.8125 
Q 15.578125 40.375 12.03125 44.71875 
Q 8.5 49.078125 8.5 55.328125 
Q 8.5 64.0625 14.71875 69.140625 
Q 20.953125 74.21875 31.78125 74.21875 
Q 42.671875 74.21875 48.875 69.140625 
Q 55.078125 64.0625 55.078125 55.328125 
Q 55.078125 49.078125 51.53125 44.71875 
Q 48 40.375 41.703125 38.8125 
Q 48.828125 37.15625 52.796875 32.3125 
Q 56.78125 27.484375 56.78125 20.515625 
Q 56.78125 9.90625 50.3125 4.234375 
Q 43.84375 -1.421875 31.78125 -1.421875 
Q 19.734375 -1.421875 13.25 4.234375 
Q 6.78125 9.90625 6.78125 20.515625 
Q 6.78125 27.484375 10.78125 32.3125 
Q 14.796875 37.15625 21.921875 38.8125 
z
M 18.3125 54.390625 
Q 18.3125 48.734375 21.84375 45.5625 
Q 25.390625 42.390625 31.78125 42.390625 
Q 38.140625 42.390625 41.71875 45.5625 
Q 45.3125 48.734375 45.3125 54.390625 
Q 45.3125 60.0625 41.71875 63.234375 
Q 38.140625 66.40625 31.78125 66.40625 
Q 25.390625 66.40625 21.84375 63.234375 
Q 18.3125 60.0625 18.3125 54.390625 
z
" id="DejaVuSans-38"/>
      </defs>
      <g transform="translate(31.99375 95.06203)scale(0.2 -0.2)">
       <use xlink:href="#DejaVuSans-30"/>
       <use x="63.623047" xlink:href="#DejaVuSans-2e"/>
       <use x="95.410156" xlink:href="#DejaVuSans-38"/>
      </g>
     </g>
    </g>
    <g id="ytick_6">
     <g id="line2d_50">
      <path clip-path="url(#pd1365c70af)" d="M 70.8 34.768147 
L 427.92 34.768147 
" style="fill:none;stroke:#b0b0b0;stroke-linecap:square;stroke-width:0.8;"/>
     </g>
     <g id="line2d_51">
      <g>
       <use style="stroke:#000000;stroke-width:0.8;" x="70.8" xlink:href="#mc46dd6bfe7" y="34.768147"/>
      </g>
     </g>
     <g id="text_11">
      <!-- 1.0 -->
      <g transform="translate(31.99375 42.366585)scale(0.2 -0.2)">
       <use xlink:href="#DejaVuSans-31"/>
       <use x="63.623047" xlink:href="#DejaVuSans-2e"/>
       <use x="95.410156" xlink:href="#DejaVuSans-30"/>
      </g>
     </g>
    </g>
    <g id="text_12">
     <!-- Proportion of function+target pairs -->
     <defs>
      <path d="M 19.671875 64.796875 
L 19.671875 37.40625 
L 32.078125 37.40625 
Q 38.96875 37.40625 42.71875 40.96875 
Q 46.484375 44.53125 46.484375 51.125 
Q 46.484375 57.671875 42.71875 61.234375 
Q 38.96875 64.796875 32.078125 64.796875 
z
M 9.8125 72.90625 
L 32.078125 72.90625 
Q 44.34375 72.90625 50.609375 67.359375 
Q 56.890625 61.8125 56.890625 51.125 
Q 56.890625 40.328125 50.609375 34.8125 
Q 44.34375 29.296875 32.078125 29.296875 
L 19.671875 29.296875 
L 19.671875 0 
L 9.8125 0 
z
" id="DejaVuSans-50"/>
      <path d="M 41.109375 46.296875 
Q 39.59375 47.171875 37.8125 47.578125 
Q 36.03125 48 33.890625 48 
Q 26.265625 48 22.1875 43.046875 
Q 18.109375 38.09375 18.109375 28.8125 
L 18.109375 0 
L 9.078125 0 
L 9.078125 54.6875 
L 18.109375 54.6875 
L 18.109375 46.1875 
Q 20.953125 51.171875 25.484375 53.578125 
Q 30.03125 56 36.53125 56 
Q 37.453125 56 38.578125 55.875 
Q 39.703125 55.765625 41.0625 55.515625 
z
" id="DejaVuSans-72"/>
      <path d="M 18.109375 8.203125 
L 18.109375 -20.796875 
L 9.078125 -20.796875 
L 9.078125 54.6875 
L 18.109375 54.6875 
L 18.109375 46.390625 
Q 20.953125 51.265625 25.265625 53.625 
Q 29.59375 56 35.59375 56 
Q 45.5625 56 51.78125 48.09375 
Q 58.015625 40.1875 58.015625 27.296875 
Q 58.015625 14.40625 51.78125 6.484375 
Q 45.5625 -1.421875 35.59375 -1.421875 
Q 29.59375 -1.421875 25.265625 0.953125 
Q 20.953125 3.328125 18.109375 8.203125 
z
M 48.6875 27.296875 
Q 48.6875 37.203125 44.609375 42.84375 
Q 40.53125 48.484375 33.40625 48.484375 
Q 26.265625 48.484375 22.1875 42.84375 
Q 18.109375 37.203125 18.109375 27.296875 
Q 18.109375 17.390625 22.1875 11.75 
Q 26.265625 6.109375 33.40625 6.109375 
Q 40.53125 6.109375 44.609375 11.75 
Q 48.6875 17.390625 48.6875 27.296875 
z
" id="DejaVuSans-70"/>
      <path d="M 18.3125 70.21875 
L 18.3125 54.6875 
L 36.8125 54.6875 
L 36.8125 47.703125 
L 18.3125 47.703125 
L 18.3125 18.015625 
Q 18.3125 11.328125 20.140625 9.421875 
Q 21.96875 7.515625 27.59375 7.515625 
L 36.8125 7.515625 
L 36.8125 0 
L 27.59375 0 
Q 17.1875 0 13.234375 3.875 
Q 9.28125 7.765625 9.28125 18.015625 
L 9.28125 47.703125 
L 2.6875 47.703125 
L 2.6875 54.6875 
L 9.28125 54.6875 
L 9.28125 70.21875 
z
" id="DejaVuSans-74"/>
      <path d="M 8.5 21.578125 
L 8.5 54.6875 
L 17.484375 54.6875 
L 17.484375 21.921875 
Q 17.484375 14.15625 20.5 10.265625 
Q 23.53125 6.390625 29.59375 6.390625 
Q 36.859375 6.390625 41.078125 11.03125 
Q 45.3125 15.671875 45.3125 23.6875 
L 45.3125 54.6875 
L 54.296875 54.6875 
L 54.296875 0 
L 45.3125 0 
L 45.3125 8.40625 
Q 42.046875 3.421875 37.71875 1 
Q 33.40625 -1.421875 27.6875 -1.421875 
Q 18.265625 -1.421875 13.375 4.4375 
Q 8.5 10.296875 8.5 21.578125 
z
M 31.109375 56 
z
" id="DejaVuSans-75"/>
      <path d="M 48.78125 52.59375 
L 48.78125 44.1875 
Q 44.96875 46.296875 41.140625 47.34375 
Q 37.3125 48.390625 33.40625 48.390625 
Q 24.65625 48.390625 19.8125 42.84375 
Q 14.984375 37.3125 14.984375 27.296875 
Q 14.984375 17.28125 19.8125 11.734375 
Q 24.65625 6.203125 33.40625 6.203125 
Q 37.3125 6.203125 41.140625 7.25 
Q 44.96875 8.296875 48.78125 10.40625 
L 48.78125 2.09375 
Q 45.015625 0.34375 40.984375 -0.53125 
Q 36.96875 -1.421875 32.421875 -1.421875 
Q 20.0625 -1.421875 12.78125 6.34375 
Q 5.515625 14.109375 5.515625 27.296875 
Q 5.515625 40.671875 12.859375 48.328125 
Q 20.21875 56 33.015625 56 
Q 37.15625 56 41.109375 55.140625 
Q 45.0625 54.296875 48.78125 52.59375 
z
" id="DejaVuSans-63"/>
      <path d="M 46 62.703125 
L 46 35.5 
L 73.1875 35.5 
L 73.1875 27.203125 
L 46 27.203125 
L 46 0 
L 37.796875 0 
L 37.796875 27.203125 
L 10.59375 27.203125 
L 10.59375 35.5 
L 37.796875 35.5 
L 37.796875 62.703125 
z
" id="DejaVuSans-2b"/>
     </defs>
     <g transform="translate(24.250312 323.17875)rotate(-90)scale(0.18 -0.18)">
      <use xlink:href="#DejaVuSans-50"/>
      <use x="60.287109" xlink:href="#DejaVuSans-72"/>
      <use x="101.369141" xlink:href="#DejaVuSans-6f"/>
      <use x="162.550781" xlink:href="#DejaVuSans-70"/>
      <use x="226.027344" xlink:href="#DejaVuSans-6f"/>
      <use x="287.208984" xlink:href="#DejaVuSans-72"/>
      <use x="328.322266" xlink:href="#DejaVuSans-74"/>
      <use x="367.53125" xlink:href="#DejaVuSans-69"/>
      <use x="395.314453" xlink:href="#DejaVuSans-6f"/>
      <use x="456.496094" xlink:href="#DejaVuSans-6e"/>
      <use x="519.875" xlink:href="#DejaVuSans-20"/>
      <use x="551.662109" xlink:href="#DejaVuSans-6f"/>
      <use x="612.84375" xlink:href="#DejaVuSans-66"/>
      <use x="648.048828" xlink:href="#DejaVuSans-20"/>
      <use x="679.835938" xlink:href="#DejaVuSans-66"/>
      <use x="715.041016" xlink:href="#DejaVuSans-75"/>
      <use x="778.419922" xlink:href="#DejaVuSans-6e"/>
      <use x="841.798828" xlink:href="#DejaVuSans-63"/>
      <use x="896.779297" xlink:href="#DejaVuSans-74"/>
      <use x="935.988281" xlink:href="#DejaVuSans-69"/>
      <use x="963.771484" xlink:href="#DejaVuSans-6f"/>
      <use x="1024.953125" xlink:href="#DejaVuSans-6e"/>
      <use x="1088.332031" xlink:href="#DejaVuSans-2b"/>
      <use x="1172.121094" xlink:href="#DejaVuSans-74"/>
      <use x="1211.330078" xlink:href="#DejaVuSans-61"/>
      <use x="1272.609375" xlink:href="#DejaVuSans-72"/>
      <use x="1313.707031" xlink:href="#DejaVuSans-67"/>
      <use x="1377.183594" xlink:href="#DejaVuSans-65"/>
      <use x="1438.707031" xlink:href="#DejaVuSans-74"/>
      <use x="1477.916016" xlink:href="#DejaVuSans-20"/>
      <use x="1509.703125" xlink:href="#DejaVuSans-70"/>
      <use x="1573.179688" xlink:href="#DejaVuSans-61"/>
      <use x="1634.458984" xlink:href="#DejaVuSans-69"/>
      <use x="1662.242188" xlink:href="#DejaVuSans-72"/>
      <use x="1703.355469" xlink:href="#DejaVuSans-73"/>
     </g>
    </g>
   </g>
   <g id="line2d_52">
    <defs>
     <path d="M 0 1.5 
C 0.397805 1.5 0.77937 1.341951 1.06066 1.06066 
C 1.341951 0.77937 1.5 0.397805 1.5 0 
C 1.5 -0.397805 1.341951 -0.77937 1.06066 -1.06066 
C 0.77937 -1.341951 0.397805 -1.5 0 -1.5 
C -0.397805 -1.5 -0.77937 -1.341951 -1.06066 -1.06066 
C -1.341951 -0.77937 -1.5 -0.397805 -1.5 0 
C -1.5 0.397805 -1.341951 0.77937 -1.06066 1.06066 
C -0.77937 1.341951 -0.397805 1.5 0 1.5 
z
" id="md37a35ff10" style="stroke:#f5deb3;"/>
    </defs>
    <g>
     <use style="fill:#f5deb3;stroke:#f5deb3;" x="233.90112" xlink:href="#md37a35ff10" y="34.768147"/>
     <use style="fill:#f5deb3;stroke:#f5deb3;" x="233.90112" xlink:href="#md37a35ff10" y="34.768147"/>
    </g>
   </g>
   <g id="line2d_53">
    <g>
     <use style="fill:#f5deb3;stroke:#f5deb3;stroke-linejoin:miter;stroke-width:1.5;" x="87.704761" xlink:href="#m15fe35840b" y="268.970127"/>
     <use style="fill:#f5deb3;stroke:#f5deb3;stroke-linejoin:miter;stroke-width:1.5;" x="172.626993" xlink:href="#m15fe35840b" y="181.144385"/>
     <use style="fill:#f5deb3;stroke:#f5deb3;stroke-linejoin:miter;stroke-width:1.5;" x="211.902914" xlink:href="#m15fe35840b" y="107.956266"/>
     <use style="fill:#f5deb3;stroke:#f5deb3;stroke-linejoin:miter;stroke-width:1.5;" x="233.90112" xlink:href="#m15fe35840b" y="34.768147"/>
     <use style="fill:#f5deb3;stroke:#f5deb3;stroke-linejoin:miter;stroke-width:1.5;" x="358.8" xlink:href="#m15fe35840b" y="34.768147"/>
    </g>
   </g>
   <g id="line2d_54">
    <defs>
     <path d="M 0 1.5 
C 0.397805 1.5 0.77937 1.341951 1.06066 1.06066 
C 1.341951 0.77937 1.5 0.397805 1.5 0 
C 1.5 -0.397805 1.341951 -0.77937 1.06066 -1.06066 
C 0.77937 -1.341951 0.397805 -1.5 0 -1.5 
C -0.397805 -1.5 -0.77937 -1.341951 -1.06066 -1.06066 
C -1.341951 -0.77937 -1.5 -0.397805 -1.5 0 
C -1.5 0.397805 -1.341951 0.77937 -1.06066 1.06066 
C -0.77937 1.341951 -0.397805 1.5 0 1.5 
z
" id="ma6f0ec7453" style="stroke:#000080;"/>
    </defs>
    <g>
     <use style="fill:#000080;stroke:#000080;" x="265.620843" xlink:href="#ma6f0ec7453" y="34.768147"/>
     <use style="fill:#000080;stroke:#000080;" x="265.620843" xlink:href="#ma6f0ec7453" y="34.768147"/>
    </g>
   </g>
   <g id="line2d_55">
    <path d="M 41.90112 298.245375 
L 41.90112 283.607751 
L 99.69888 283.607751 
L 99.69888 260.187553 
L 123.030532 260.187553 
L 123.030532 251.404979 
L 137.90112 251.404979 
L 137.90112 247.013692 
L 148.839682 247.013692 
L 148.839682 242.622405 
L 157.496639 242.622405 
L 157.496639 238.231118 
L 164.661466 238.231118 
L 164.661466 227.984781 
L 170.773698 227.984781 
L 170.773698 226.521019 
L 176.103361 226.521019 
L 176.103361 223.593494 
L 180.828291 223.593494 
L 180.828291 222.129731 
L 185.071843 222.129731 
L 185.071843 220.665969 
L 188.923096 220.665969 
L 188.923096 219.202207 
L 192.448486 219.202207 
L 192.448486 211.883395 
L 201.525872 211.883395 
L 201.525872 208.95587 
L 208.975939 208.95587 
L 208.975939 204.564583 
L 211.190208 204.564583 
L 211.190208 198.709533 
L 213.292785 198.709533 
L 213.292785 192.854484 
L 215.294398 192.854484 
L 215.294398 191.390722 
L 217.204301 191.390722 
L 217.204301 189.926959 
L 220.780115 189.926959 
L 220.780115 181.144385 
L 222.459225 181.144385 
L 222.459225 179.680623 
L 224.073321 179.680623 
L 224.073321 176.753098 
L 225.62725 176.753098 
L 225.62725 172.361811 
L 227.125337 172.361811 
L 227.125337 170.898048 
L 228.571457 170.898048 
L 228.571457 167.970524 
L 229.969094 167.970524 
L 229.969094 156.260425 
L 231.321394 156.260425 
L 231.321394 151.869137 
L 232.631207 151.869137 
L 232.631207 141.622801 
L 233.90112 141.622801 
L 233.90112 129.912702 
L 235.133494 129.912702 
L 235.133494 119.666365 
L 236.330483 119.666365 
L 236.330483 115.275078 
L 239.728113 115.275078 
L 239.728113 112.347553 
L 240.801793 112.347553 
L 240.801793 110.883791 
L 241.848516 110.883791 
L 241.848516 107.956266 
L 243.866278 107.956266 
L 243.866278 105.028741 
L 244.839682 105.028741 
L 244.839682 100.637454 
L 245.790878 100.637454 
L 245.790878 97.709929 
L 246.720856 97.709929 
L 246.720856 88.927355 
L 247.630541 88.927355 
L 247.630541 83.072306 
L 249.392449 83.072306 
L 249.392449 80.144781 
L 251.082907 80.144781 
L 251.082907 74.289731 
L 251.90311 74.289731 
L 251.90311 72.825969 
L 252.707487 72.825969 
L 252.707487 69.898444 
L 253.496639 69.898444 
L 253.496639 61.11587 
L 255.778244 61.11587 
L 255.778244 58.188345 
L 257.232773 58.188345 
L 257.232773 56.724583 
L 257.941441 56.724583 
L 257.941441 55.260821 
L 259.323631 55.260821 
L 259.323631 53.797058 
L 259.997915 53.797058 
L 259.997915 52.333296 
L 260.661466 52.333296 
L 260.661466 45.014484 
L 261.314622 45.014484 
L 261.314622 42.086959 
L 261.957703 42.086959 
L 261.957703 40.623197 
L 263.214852 40.623197 
L 263.214852 37.695672 
L 265.620843 37.695672 
L 265.620843 34.768147 
L 358.8 34.768147 
" style="fill:none;stroke:#000080;stroke-linecap:square;stroke-width:1.5;"/>
   </g>
   <g id="line2d_56">
    <defs>
     <path d="M 0 6 
C 1.591219 6 3.117479 5.367802 4.242641 4.242641 
C 5.367802 3.117479 6 1.591219 6 0 
C 6 -1.591219 5.367802 -3.117479 4.242641 -4.242641 
C 3.117479 -5.367802 1.591219 -6 0 -6 
C -1.591219 -6 -3.117479 -5.367802 -4.242641 -4.242641 
C -5.367802 -3.117479 -6 -1.591219 -6 0 
C -6 1.591219 -5.367802 3.117479 -4.242641 4.242641 
C -3.117479 5.367802 -1.591219 6 0 6 
z
" id="mf66883f5cd" style="stroke:#000080;stroke-width:1.5;"/>
    </defs>
    <g>
     <use style="fill:none;stroke:#000080;stroke-width:1.5;" x="41.90112" xlink:href="#mf66883f5cd" y="283.607751"/>
     <use style="fill:none;stroke:#000080;stroke-width:1.5;" x="148.839682" xlink:href="#mf66883f5cd" y="247.013692"/>
     <use style="fill:none;stroke:#000080;stroke-width:1.5;" x="213.292785" xlink:href="#mf66883f5cd" y="198.709533"/>
     <use style="fill:none;stroke:#000080;stroke-width:1.5;" x="245.790878" xlink:href="#mf66883f5cd" y="97.709929"/>
     <use style="fill:none;stroke:#000080;stroke-width:1.5;" x="265.620843" xlink:href="#mf66883f5cd" y="34.768147"/>
     <use style="fill:none;stroke:#000080;stroke-width:1.5;" x="358.8" xlink:href="#mf66883f5cd" y="34.768147"/>
    </g>
   </g>
   <g id="line2d_57"/>
   <g id="line2d_58">
    <defs>
     <path d="M 0 1.5 
C 0.397805 1.5 0.77937 1.341951 1.06066 1.06066 
C 1.341951 0.77937 1.5 0.397805 1.5 0 
C 1.5 -0.397805 1.341951 -0.77937 1.06066 -1.06066 
C 0.77937 -1.341951 0.397805 -1.5 0 -1.5 
C -0.397805 -1.5 -0.77937 -1.341951 -1.06066 -1.06066 
C -1.341951 -0.77937 -1.5 -0.397805 -1.5 0 
C -1.5 0.397805 -1.341951 0.77937 -1.06066 1.06066 
C -0.77937 1.341951 -0.397805 1.5 0 1.5 
z
" id="m53427297a3" style="stroke:#ff00ff;"/>
    </defs>
    <g>
     <use style="fill:#ff00ff;stroke:#ff00ff;" x="296.42381" xlink:href="#m53427297a3" y="34.768147"/>
     <use style="fill:#ff00ff;stroke:#ff00ff;" x="296.42381" xlink:href="#m53427297a3" y="34.768147"/>
    </g>
   </g>
   <g id="line2d_59">
    <path d="M 41.90112 298.245375 
L 41.90112 292.390325 
L 70.8 292.390325 
L 70.8 285.071514 
L 87.704761 285.071514 
L 87.704761 279.216464 
L 99.69888 279.216464 
L 99.69888 277.752702 
L 109.002241 277.752702 
L 109.002241 273.361415 
L 116.60364 273.361415 
L 116.60364 258.723791 
L 123.030532 258.723791 
L 123.030532 255.796266 
L 128.597759 255.796266 
L 128.597759 242.622405 
L 151.929412 242.622405 
L 151.929412 235.303593 
L 157.496639 235.303593 
L 157.496639 232.376068 
L 162.407281 232.376068 
L 162.407281 229.448543 
L 172.626993 229.448543 
L 172.626993 225.057256 
L 176.103361 225.057256 
L 176.103361 222.129731 
L 177.738562 222.129731 
L 177.738562 216.274682 
L 185.071843 216.274682 
L 185.071843 208.95587 
L 186.395518 208.95587 
L 186.395518 206.028345 
L 188.923096 206.028345 
L 188.923096 200.173296 
L 191.30616 200.173296 
L 191.30616 198.709533 
L 192.448486 198.709533 
L 192.448486 192.854484 
L 196.728371 192.854484 
L 196.728371 189.926959 
L 205.002241 189.926959 
L 205.002241 188.463197 
L 207.431604 188.463197 
L 207.431604 186.999434 
L 210.465107 186.999434 
L 210.465107 185.535672 
L 213.292785 185.535672 
L 213.292785 179.680623 
L 218.430633 179.680623 
L 218.430633 178.21686 
L 219.030532 178.21686 
L 219.030532 172.361811 
L 219.621922 172.361811 
L 219.621922 170.898048 
L 220.780115 170.898048 
L 220.780115 169.434286 
L 224.073321 169.434286 
L 224.073321 162.115474 
L 225.115682 162.115474 
L 225.115682 160.651712 
L 226.631932 160.651712 
L 226.631932 156.260425 
L 231.321394 156.260425 
L 231.321394 154.796662 
L 231.762587 154.796662 
L 231.762587 151.869137 
L 233.058824 151.869137 
L 233.058824 148.941613 
L 234.726737 148.941613 
L 234.726737 147.47785 
L 235.536321 147.47785 
L 235.536321 144.550325 
L 235.935293 144.550325 
L 235.935293 141.622801 
L 236.721963 141.622801 
L 236.721963 135.767751 
L 237.109801 135.767751 
L 237.109801 134.303989 
L 237.494064 134.303989 
L 237.494064 132.840226 
L 246.103181 132.840226 
L 246.103181 131.376464 
L 247.026295 131.376464 
L 247.026295 126.985177 
L 249.10392 126.985177 
L 249.10392 125.521415 
L 252.172963 125.521415 
L 252.172963 122.59389 
L 254.52613 122.59389 
L 254.52613 121.130127 
L 257.470337 121.130127 
L 257.470337 115.275078 
L 259.096425 115.275078 
L 259.096425 109.420028 
L 259.323631 109.420028 
L 259.323631 107.956266 
L 261.098038 107.956266 
L 261.098038 106.492504 
L 263.007942 106.492504 
L 263.007942 102.101217 
L 263.625616 102.101217 
L 263.625616 99.173692 
L 267.151006 99.173692 
L 267.151006 97.709929 
L 267.52493 97.709929 
L 267.52493 94.782405 
L 268.626993 94.782405 
L 268.626993 91.85488 
L 273.092157 91.85488 
L 273.092157 90.391118 
L 273.2547 90.391118 
L 273.2547 88.927355 
L 275.312042 88.927355 
L 275.312042 85.99983 
L 276.228392 85.99983 
L 276.228392 84.536068 
L 277.419681 84.536068 
L 277.419681 83.072306 
L 277.857783 83.072306 
L 277.857783 81.608543 
L 278.434847 81.608543 
L 278.434847 80.144781 
L 278.577874 80.144781 
L 278.577874 78.681019 
L 279.704761 78.681019 
L 279.704761 77.217256 
L 279.981787 77.217256 
L 279.981787 74.289731 
L 281.473377 74.289731 
L 281.473377 71.362207 
L 283.041923 71.362207 
L 283.041923 69.898444 
L 284.055767 69.898444 
L 284.055767 68.434682 
L 284.305422 68.434682 
L 284.305422 66.97092 
L 284.677124 66.97092 
L 284.677124 65.507157 
L 284.800291 65.507157 
L 284.800291 61.11587 
L 286.131653 61.11587 
L 286.131653 59.652108 
L 286.605434 59.652108 
L 286.605434 58.188345 
L 286.957269 58.188345 
L 286.957269 56.724583 
L 287.881235 56.724583 
L 287.881235 52.333296 
L 288.109063 52.333296 
L 288.109063 50.869533 
L 288.222511 50.869533 
L 288.222511 49.405771 
L 289.560346 49.405771 
L 289.560346 46.478246 
L 291.068758 46.478246 
L 291.068758 45.014484 
L 291.279858 45.014484 
L 291.385009 42.086959 
L 292.728371 42.086959 
L 292.728371 39.159434 
L 294.714092 39.159434 
L 294.714092 37.695672 
L 295.767225 37.695672 
L 295.767225 36.23191 
L 296.42381 36.23191 
L 296.42381 34.768147 
L 358.8 34.768147 
L 358.8 34.768147 
" style="fill:none;stroke:#ff00ff;stroke-linecap:square;stroke-width:1.5;"/>
   </g>
   <g id="line2d_60">
    <defs>
     <path d="M -0 8.485281 
L 5.091169 0 
L 0 -8.485281 
L -5.091169 -0 
z
" id="m7ae7a5afe0" style="stroke:#ff00ff;stroke-linejoin:miter;stroke-width:1.5;"/>
    </defs>
    <g>
     <use style="fill:none;stroke:#ff00ff;stroke-linejoin:miter;stroke-width:1.5;" x="128.597759" xlink:href="#m7ae7a5afe0" y="242.622405"/>
     <use style="fill:none;stroke:#ff00ff;stroke-linejoin:miter;stroke-width:1.5;" x="191.30616" xlink:href="#m7ae7a5afe0" y="198.709533"/>
     <use style="fill:none;stroke:#ff00ff;stroke-linejoin:miter;stroke-width:1.5;" x="249.10392" xlink:href="#m7ae7a5afe0" y="126.985177"/>
     <use style="fill:none;stroke:#ff00ff;stroke-linejoin:miter;stroke-width:1.5;" x="284.677124" xlink:href="#m7ae7a5afe0" y="65.507157"/>
     <use style="fill:none;stroke:#ff00ff;stroke-linejoin:miter;stroke-width:1.5;" x="296.42381" xlink:href="#m7ae7a5afe0" y="34.768147"/>
     <use style="fill:none;stroke:#ff00ff;stroke-linejoin:miter;stroke-width:1.5;" x="358.8" xlink:href="#m7ae7a5afe0" y="34.768147"/>
    </g>
   </g>
   <g id="line2d_61"/>
   <g id="line2d_62">
    <defs>
     <path d="M 0 1.5 
C 0.397805 1.5 0.77937 1.341951 1.06066 1.06066 
C 1.341951 0.77937 1.5 0.397805 1.5 0 
C 1.5 -0.397805 1.341951 -0.77937 1.06066 -1.06066 
C 0.77937 -1.341951 0.397805 -1.5 0 -1.5 
C -0.397805 -1.5 -0.77937 -1.341951 -1.06066 -1.06066 
C -1.341951 -0.77937 -1.5 -0.397805 -1.5 0 
C -1.5 0.397805 -1.341951 0.77937 -1.06066 1.06066 
C -0.77937 1.341951 -0.397805 1.5 0 1.5 
z
" id="mbb07dc1b1b" style="stroke:#ffa500;"/>
    </defs>
    <g>
     <use style="fill:#ffa500;stroke:#ffa500;" x="415.691599" xlink:href="#mbb07dc1b1b" y="106.492504"/>
     <use style="fill:#ffa500;stroke:#ffa500;" x="415.691599" xlink:href="#mbb07dc1b1b" y="106.492504"/>
    </g>
   </g>
   <g id="line2d_63">
    <path d="M 41.90112 298.245375 
L 41.90112 289.462801 
L 70.8 289.462801 
L 70.8 283.607751 
L 87.704761 283.607751 
L 87.704761 280.680226 
L 99.69888 280.680226 
L 99.69888 277.752702 
L 109.002241 277.752702 
L 109.002241 268.970127 
L 116.60364 268.970127 
L 116.60364 264.57884 
L 123.030532 264.57884 
L 123.030532 263.115078 
L 128.597759 263.115078 
L 128.597759 260.187553 
L 133.508401 260.187553 
L 133.508401 252.868741 
L 148.839682 252.868741 
L 148.839682 245.549929 
L 154.805881 245.549929 
L 154.805881 242.622405 
L 160.024217 242.622405 
L 160.024217 235.303593 
L 170.773698 235.303593 
L 170.773698 233.83983 
L 174.4014 233.83983 
L 174.4014 220.665969 
L 179.312042 220.665969 
L 179.312042 214.81092 
L 182.291328 214.81092 
L 182.291328 213.347157 
L 197.733052 213.347157 
L 197.733052 211.883395 
L 205.827857 211.883395 
L 205.827857 204.564583 
L 209.727171 204.564583 
L 209.727171 197.245771 
L 217.204301 197.245771 
L 217.204301 191.390722 
L 220.20504 191.390722 
L 220.20504 189.926959 
L 220.780115 189.926959 
L 220.780115 188.463197 
L 224.597759 188.463197 
L 224.597759 185.535672 
L 238.996651 185.535672 
L 238.996651 184.07191 
L 241.153629 184.07191 
L 241.153629 182.608147 
L 250.527002 182.608147 
L 250.527002 179.680623 
L 255.530811 179.680623 
L 255.530811 176.753098 
L 260.220274 176.753098 
L 260.220274 173.825573 
L 265.032236 173.825573 
L 265.032236 172.361811 
L 265.425562 172.361811 
L 265.425562 170.898048 
L 268.445327 170.898048 
L 268.445327 169.434286 
L 275.772735 169.434286 
L 275.772735 166.506761 
L 276.379178 166.506761 
L 276.379178 165.042999 
L 280.937134 165.042999 
L 280.937134 163.579236 
L 282.395518 163.579236 
L 282.395518 157.724187 
L 299.989423 157.724187 
L 299.989423 156.260425 
L 304.441904 156.260425 
L 304.441904 154.796662 
L 310.305602 154.796662 
L 310.305602 150.405375 
L 318.732618 150.405375 
L 318.732618 146.014088 
L 324.333894 146.014088 
L 324.333894 144.550325 
L 325.08938 144.550325 
L 325.08938 143.086563 
L 327.054421 143.086563 
L 327.054421 141.622801 
L 330.150527 141.622801 
L 330.150527 140.159038 
L 335.836734 140.159038 
L 335.836734 137.231514 
L 337.50252 137.231514 
L 337.50252 135.767751 
L 339.569769 135.767751 
L 339.569769 132.840226 
L 342.134283 132.840226 
L 342.134283 131.376464 
L 342.598051 131.376464 
L 342.598051 125.521415 
L 345.878411 125.521415 
L 345.878411 124.057652 
L 349.548722 124.057652 
L 349.548722 121.130127 
L 350.424317 121.130127 
L 350.424317 119.666365 
L 358.8 119.666365 
" style="fill:none;stroke:#ffa500;stroke-linecap:square;stroke-width:1.5;"/>
   </g>
   <g id="line2d_64">
    <defs>
     <path d="M 0 -6 
L -1.347084 -1.854102 
L -5.706339 -1.854102 
L -2.179628 0.708204 
L -3.526712 4.854102 
L -0 2.291796 
L 3.526712 4.854102 
L 2.179628 0.708204 
L 5.706339 -1.854102 
L 1.347084 -1.854102 
z
" id="m8ac8771676" style="stroke:#ffa500;stroke-linejoin:bevel;stroke-width:1.5;"/>
    </defs>
    <g>
     <use style="fill:none;stroke:#ffa500;stroke-linejoin:bevel;stroke-width:1.5;" x="70.8" xlink:href="#m8ac8771676" y="289.462801"/>
     <use style="fill:none;stroke:#ffa500;stroke-linejoin:bevel;stroke-width:1.5;" x="154.805881" xlink:href="#m8ac8771676" y="245.549929"/>
     <use style="fill:none;stroke:#ffa500;stroke-linejoin:bevel;stroke-width:1.5;" x="197.733052" xlink:href="#m8ac8771676" y="211.883395"/>
     <use style="fill:none;stroke:#ffa500;stroke-linejoin:bevel;stroke-width:1.5;" x="268.445327" xlink:href="#m8ac8771676" y="169.434286"/>
     <use style="fill:none;stroke:#ffa500;stroke-linejoin:bevel;stroke-width:1.5;" x="327.054421" xlink:href="#m8ac8771676" y="143.086563"/>
     <use style="fill:none;stroke:#ffa500;stroke-linejoin:bevel;stroke-width:1.5;" x="358.8" xlink:href="#m8ac8771676" y="119.666365"/>
    </g>
   </g>
   <g id="line2d_65"/>
   <g id="line2d_66">
    <defs>
     <path d="M 0 1.5 
C 0.397805 1.5 0.77937 1.341951 1.06066 1.06066 
C 1.341951 0.77937 1.5 0.397805 1.5 0 
C 1.5 -0.397805 1.341951 -0.77937 1.06066 -1.06066 
C 0.77937 -1.341951 0.397805 -1.5 0 -1.5 
C -0.397805 -1.5 -0.77937 -1.341951 -1.06066 -1.06066 
C -1.341951 -0.77937 -1.5 -0.397805 -1.5 0 
C -1.5 0.397805 -1.341951 0.77937 -1.06066 1.06066 
C -0.77937 1.341951 -0.397805 1.5 0 1.5 
z
" id="m3dad64fd34" style="stroke:#6495ed;"/>
    </defs>
    <g>
     <use style="fill:#6495ed;stroke:#6495ed;" x="320.96098" xlink:href="#m3dad64fd34" y="34.768147"/>
     <use style="fill:#6495ed;stroke:#6495ed;" x="320.96098" xlink:href="#m3dad64fd34" y="34.768147"/>
    </g>
   </g>
   <g id="line2d_67">
    <path d="M 41.90112 298.245375 
L 41.90112 290.926563 
L 70.8 290.926563 
L 70.8 286.535276 
L 87.704761 286.535276 
L 87.704761 282.143989 
L 109.002241 282.143989 
L 109.002241 276.288939 
L 123.030532 276.288939 
L 123.030532 271.897652 
L 137.90112 271.897652 
L 137.90112 267.506365 
L 141.874818 267.506365 
L 141.874818 264.57884 
L 145.50252 264.57884 
L 145.50252 263.115078 
L 148.839682 263.115078 
L 148.839682 255.796266 
L 151.929412 255.796266 
L 151.929412 251.404979 
L 154.805881 251.404979 
L 154.805881 244.086167 
L 162.407281 244.086167 
L 162.407281 242.622405 
L 164.661466 242.622405 
L 164.661466 241.158642 
L 166.8 241.158642 
L 166.8 235.303593 
L 168.834173 235.303593 
L 168.834173 230.912306 
L 179.312042 230.912306 
L 179.312042 227.984781 
L 187.678459 227.984781 
L 187.678459 220.665969 
L 191.30616 220.665969 
L 191.30616 214.81092 
L 194.643323 214.81092 
L 194.643323 208.95587 
L 196.728371 208.95587 
L 196.728371 207.492108 
L 207.431604 207.492108 
L 207.431604 204.564583 
L 213.970723 204.564583 
L 213.970723 203.100821 
L 217.821976 203.100821 
L 217.821976 200.173296 
L 219.621922 200.173296 
L 219.621922 198.709533 
L 220.780115 198.709533 
L 220.780115 194.318246 
L 221.347366 194.318246 
L 221.347366 192.854484 
L 226.631932 192.854484 
L 226.631932 191.390722 
L 228.094969 191.390722 
L 228.094969 189.926959 
L 233.058824 189.926959 
L 233.058824 186.999434 
L 234.726737 186.999434 
L 234.726737 182.608147 
L 238.996651 182.608147 
L 238.996651 179.680623 
L 243.866278 179.680623 
L 243.866278 170.898048 
L 245.476218 170.898048 
L 245.476218 169.434286 
L 245.790878 169.434286 
L 245.790878 163.579236 
L 247.329513 163.579236 
L 247.329513 160.651712 
L 249.10392 160.651712 
L 249.10392 157.724187 
L 249.963585 157.724187 
L 249.963585 154.796662 
L 250.246245 154.796662 
L 250.246245 153.3329 
L 251.90311 153.3329 
L 251.90311 150.405375 
L 254.52613 150.405375 
L 254.52613 147.47785 
L 255.530811 147.47785 
L 255.530811 138.695276 
L 256.024217 138.695276 
L 256.024217 135.767751 
L 256.268747 135.767751 
L 256.268747 134.303989 
L 257.706554 134.303989 
L 257.706554 132.840226 
L 259.096425 132.840226 
L 259.096425 129.912702 
L 260.220274 129.912702 
L 260.220274 126.985177 
L 262.8 126.985177 
L 262.8 125.521415 
L 263.42074 125.521415 
L 263.42074 122.59389 
L 263.625616 122.59389 
L 263.625616 119.666365 
L 264.032374 119.666365 
L 264.032374 116.73884 
L 266.008681 116.73884 
L 266.008681 115.275078 
L 267.151006 115.275078 
L 267.151006 112.347553 
L 268.987967 112.347553 
L 268.987967 107.956266 
L 269.523635 107.956266 
L 269.523635 106.492504 
L 270.4014 106.492504 
L 270.4014 105.028741 
L 273.577898 105.028741 
L 273.577898 103.564979 
L 274.532724 103.564979 
L 274.532724 102.101217 
L 274.846202 102.101217 
L 274.846202 97.709929 
L 277.71226 97.709929 
L 277.71226 96.246167 
L 279.145125 96.246167 
L 279.145125 93.318642 
L 279.843504 93.318642 
L 279.843504 90.391118 
L 280.530377 90.391118 
L 280.530377 85.99983 
L 281.339961 85.99983 
L 281.339961 81.608543 
L 282.265026 81.608543 
L 282.265026 80.144781 
L 282.525604 80.144781 
L 282.525604 77.217256 
L 282.784563 77.217256 
L 282.784563 75.753494 
L 284.800291 75.753494 
L 284.800291 74.289731 
L 285.045541 74.289731 
L 285.045541 72.825969 
L 285.289356 72.825969 
L 285.289356 71.362207 
L 285.531754 71.362207 
L 285.531754 68.434682 
L 285.892728 68.434682 
L 285.892728 65.507157 
L 286.369216 65.507157 
L 286.369216 64.043395 
L 287.766853 64.043395 
L 287.766853 58.188345 
L 288.673243 58.188345 
L 288.673243 56.724583 
L 290.750089 56.724583 
L 290.750089 55.260821 
L 292.626558 55.260821 
L 292.626558 52.333296 
L 293.633667 52.333296 
L 293.633667 50.869533 
L 294.61702 50.869533 
L 294.61702 49.405771 
L 297.616409 49.405771 
L 297.616409 45.014484 
L 308.464434 45.014484 
L 308.464434 42.086959 
L 310.637813 42.086959 
L 310.637813 40.623197 
L 311.812321 40.623197 
L 311.812321 37.695672 
L 312.004895 37.695672 
L 312.004895 36.23191 
L 320.96098 36.23191 
L 320.96098 34.768147 
L 358.8 34.768147 
L 358.8 34.768147 
" style="fill:none;stroke:#6495ed;stroke-linecap:square;stroke-width:1.5;"/>
   </g>
   <g id="line2d_68">
    <defs>
     <path d="M -0 6 
L 6 -6 
L -6 -6 
z
" id="m4384576924" style="stroke:#6495ed;stroke-linejoin:miter;stroke-width:1.5;"/>
    </defs>
    <g>
     <use style="fill:none;stroke:#6495ed;stroke-linejoin:miter;stroke-width:1.5;" x="123.030532" xlink:href="#m4384576924" y="271.897652"/>
     <use style="fill:none;stroke:#6495ed;stroke-linejoin:miter;stroke-width:1.5;" x="191.30616" xlink:href="#m4384576924" y="214.81092"/>
     <use style="fill:none;stroke:#6495ed;stroke-linejoin:miter;stroke-width:1.5;" x="256.024217" xlink:href="#m4384576924" y="138.695276"/>
     <use style="fill:none;stroke:#6495ed;stroke-linejoin:miter;stroke-width:1.5;" x="288.673243" xlink:href="#m4384576924" y="56.724583"/>
     <use style="fill:none;stroke:#6495ed;stroke-linejoin:miter;stroke-width:1.5;" x="320.96098" xlink:href="#m4384576924" y="34.768147"/>
     <use style="fill:none;stroke:#6495ed;stroke-linejoin:miter;stroke-width:1.5;" x="358.8" xlink:href="#m4384576924" y="34.768147"/>
    </g>
   </g>
   <g id="line2d_69"/>
   <g id="line2d_70">
    <defs>
     <path d="M 0 1.5 
C 0.397805 1.5 0.77937 1.341951 1.06066 1.06066 
C 1.341951 0.77937 1.5 0.397805 1.5 0 
C 1.5 -0.397805 1.341951 -0.77937 1.06066 -1.06066 
C 0.77937 -1.341951 0.397805 -1.5 0 -1.5 
C -0.397805 -1.5 -0.77937 -1.341951 -1.06066 -1.06066 
C -1.341951 -0.77937 -1.5 -0.397805 -1.5 0 
C -1.5 0.397805 -1.341951 0.77937 -1.06066 1.06066 
C -0.77937 1.341951 -0.397805 1.5 0 1.5 
z
" id="mfda8b3c554" style="stroke:#ff0000;"/>
    </defs>
    <g>
     <use style="fill:#ff0000;stroke:#ff0000;" x="343.450185" xlink:href="#mfda8b3c554" y="137.231514"/>
     <use style="fill:#ff0000;stroke:#ff0000;" x="343.450185" xlink:href="#mfda8b3c554" y="137.231514"/>
    </g>
   </g>
   <g id="line2d_71">
    <path d="M 41.90112 298.245375 
L 41.90112 277.752702 
L 70.8 277.752702 
L 70.8 268.970127 
L 99.69888 268.970127 
L 99.69888 255.796266 
L 116.60364 255.796266 
L 116.60364 252.868741 
L 123.030532 252.868741 
L 123.030532 247.013692 
L 128.597759 247.013692 
L 128.597759 241.158642 
L 133.508401 241.158642 
L 133.508401 238.231118 
L 137.90112 238.231118 
L 137.90112 227.984781 
L 151.929412 227.984781 
L 151.929412 225.057256 
L 157.496639 225.057256 
L 157.496639 222.129731 
L 162.407281 222.129731 
L 162.407281 219.202207 
L 164.661466 219.202207 
L 164.661466 217.738444 
L 168.834173 217.738444 
L 168.834173 211.883395 
L 172.626993 211.883395 
L 172.626993 210.419632 
L 174.4014 210.419632 
L 174.4014 208.95587 
L 182.291328 208.95587 
L 182.291328 206.028345 
L 183.704761 206.028345 
L 183.704761 204.564583 
L 186.395518 204.564583 
L 186.395518 203.100821 
L 193.560346 203.100821 
L 193.560346 200.173296 
L 198.714092 200.173296 
L 198.714092 195.782009 
L 199.672577 195.782009 
L 199.672577 192.854484 
L 206.637441 192.854484 
L 206.637441 184.07191 
L 211.190208 184.07191 
L 211.190208 179.680623 
L 218.430633 179.680623 
L 218.430633 178.21686 
L 219.030532 178.21686 
L 219.030532 175.289335 
L 219.621922 175.289335 
L 219.621922 173.825573 
L 225.62725 173.825573 
L 225.62725 172.361811 
L 233.058824 172.361811 
L 233.058824 170.898048 
L 246.720856 170.898048 
L 246.720856 167.970524 
L 256.511851 167.970524 
L 256.511851 166.506761 
L 272.765157 166.506761 
L 272.765157 165.042999 
L 273.416612 165.042999 
L 273.416612 160.651712 
L 275.466172 160.651712 
L 275.466172 159.187949 
L 284.429691 159.187949 
L 284.429691 156.260425 
L 288.673243 156.260425 
L 288.673243 154.796662 
L 298.511128 154.796662 
L 298.511128 153.3329 
L 303.90094 153.3329 
L 303.90094 150.405375 
L 307.902914 150.405375 
L 307.902914 148.941613 
L 311.163906 148.941613 
L 311.163906 147.47785 
L 311.554164 147.47785 
L 311.554164 146.014088 
L 312.450806 146.014088 
L 312.450806 143.086563 
L 319.112381 143.086563 
L 319.112381 141.622801 
L 328.717082 141.622801 
L 328.717082 140.159038 
L 339.899093 140.159038 
L 339.899093 138.695276 
L 343.450185 138.695276 
L 343.450185 137.231514 
L 358.8 137.231514 
" style="fill:none;stroke:#ff0000;stroke-linecap:square;stroke-width:1.5;"/>
   </g>
   <g id="line2d_72">
    <defs>
     <path d="M 0 -6 
L -5.196152 -3 
L -5.196152 3 
L -0 6 
L 5.196152 3 
L 5.196152 -3 
z
" id="mdec776c8c0" style="stroke:#ff0000;stroke-linejoin:miter;stroke-width:1.5;"/>
    </defs>
    <g>
     <use style="fill:none;stroke:#ff0000;stroke-linejoin:miter;stroke-width:1.5;" x="70.8" xlink:href="#mdec776c8c0" y="277.752702"/>
     <use style="fill:none;stroke:#ff0000;stroke-linejoin:miter;stroke-width:1.5;" x="137.90112" xlink:href="#mdec776c8c0" y="238.231118"/>
     <use style="fill:none;stroke:#ff0000;stroke-linejoin:miter;stroke-width:1.5;" x="199.672577" xlink:href="#mdec776c8c0" y="192.854484"/>
     <use style="fill:none;stroke:#ff0000;stroke-linejoin:miter;stroke-width:1.5;" x="256.511851" xlink:href="#mdec776c8c0" y="166.506761"/>
     <use style="fill:none;stroke:#ff0000;stroke-linejoin:miter;stroke-width:1.5;" x="319.112381" xlink:href="#mdec776c8c0" y="141.622801"/>
     <use style="fill:none;stroke:#ff0000;stroke-linejoin:miter;stroke-width:1.5;" x="358.8" xlink:href="#mdec776c8c0" y="137.231514"/>
    </g>
   </g>
   <g id="line2d_73"/>
   <g id="line2d_74">
    <path clip-path="url(#pd1365c70af)" d="M 262.8 166.506761 
" style="fill:none;stroke:#ff0000;stroke-linecap:square;stroke-width:1.5;"/>
    <defs>
     <path d="M -12 12 
L 12 -12 
M -12 -12 
L 12 12 
" id="m1ade1b47da" style="stroke:#ff0000;stroke-width:3;"/>
    </defs>
    <g clip-path="url(#pd1365c70af)">
     <use style="fill:#ff0000;stroke:#ff0000;stroke-width:3;" x="262.8" xlink:href="#m1ade1b47da" y="166.506761"/>
    </g>
   </g>
   <g id="line2d_75">
    <defs>
     <path d="M 0 1.5 
C 0.397805 1.5 0.77937 1.341951 1.06066 1.06066 
C 1.341951 0.77937 1.5 0.397805 1.5 0 
C 1.5 -0.397805 1.341951 -0.77937 1.06066 -1.06066 
C 0.77937 -1.341951 0.397805 -1.5 0 -1.5 
C -0.397805 -1.5 -0.77937 -1.341951 -1.06066 -1.06066 
C -1.341951 -0.77937 -1.5 -0.397805 -1.5 0 
C -1.5 0.397805 -1.341951 0.77937 -1.06066 1.06066 
C -0.77937 1.341951 -0.397805 1.5 0 1.5 
z
" id="m61c854fe79" style="stroke:#9acd32;"/>
    </defs>
    <g>
     <use style="fill:#9acd32;stroke:#9acd32;" x="285.531754" xlink:href="#m61c854fe79" y="34.768147"/>
     <use style="fill:#9acd32;stroke:#9acd32;" x="285.531754" xlink:href="#m61c854fe79" y="34.768147"/>
    </g>
   </g>
   <g id="line2d_76">
    <path d="M 41.90112 298.245375 
L 41.90112 282.143989 
L 87.704761 282.143989 
L 87.704761 270.43389 
L 99.69888 270.43389 
L 99.69888 254.332504 
L 109.002241 254.332504 
L 109.002241 251.404979 
L 116.60364 251.404979 
L 116.60364 232.376068 
L 128.597759 232.376068 
L 128.597759 230.912306 
L 133.508401 230.912306 
L 133.508401 227.984781 
L 137.90112 227.984781 
L 137.90112 225.057256 
L 141.874818 225.057256 
L 141.874818 223.593494 
L 151.929412 223.593494 
L 151.929412 216.274682 
L 164.661466 216.274682 
L 164.661466 214.81092 
L 166.8 214.81092 
L 166.8 211.883395 
L 179.312042 211.883395 
L 179.312042 210.419632 
L 180.828291 210.419632 
L 180.828291 208.95587 
L 183.704761 208.95587 
L 183.704761 207.492108 
L 190.131653 207.492108 
L 190.131653 204.564583 
L 191.30616 204.564583 
L 191.30616 201.637058 
L 192.448486 201.637058 
L 192.448486 200.173296 
L 198.714092 200.173296 
L 198.714092 197.245771 
L 199.672577 197.245771 
L 199.672577 194.318246 
L 206.637441 194.318246 
L 206.637441 191.390722 
L 207.431604 191.390722 
L 207.431604 186.999434 
L 208.210921 186.999434 
L 208.210921 185.535672 
L 210.465107 185.535672 
L 210.465107 184.07191 
L 211.190208 184.07191 
L 211.190208 178.21686 
L 211.902914 178.21686 
L 211.902914 173.825573 
L 212.60364 173.825573 
L 212.60364 167.970524 
L 215.294398 167.970524 
L 215.294398 166.506761 
L 215.940803 166.506761 
L 215.940803 165.042999 
L 220.20504 165.042999 
L 220.20504 163.579236 
L 220.780115 163.579236 
L 220.780115 160.651712 
L 223.00423 160.651712 
L 223.00423 159.187949 
L 224.073321 159.187949 
L 224.073321 156.260425 
L 225.62725 156.260425 
L 225.62725 151.869137 
L 227.125337 151.869137 
L 227.125337 148.941613 
L 228.094969 148.941613 
L 228.094969 143.086563 
L 229.042561 143.086563 
L 229.042561 141.622801 
L 230.424752 141.622801 
L 230.424752 138.695276 
L 232.199159 138.695276 
L 232.199159 135.767751 
L 232.631207 135.767751 
L 232.631207 132.840226 
L 233.90112 132.840226 
L 233.90112 131.376464 
L 234.726737 131.376464 
L 234.726737 126.985177 
L 236.721963 126.985177 
L 236.721963 124.057652 
L 237.874818 124.057652 
L 237.874818 122.59389 
L 239.363986 122.59389 
L 239.363986 121.130127 
L 242.869602 121.130127 
L 242.869602 119.666365 
L 244.839682 119.666365 
L 244.839682 116.73884 
L 245.159165 116.73884 
L 245.159165 115.275078 
L 245.476218 115.275078 
L 245.476218 112.347553 
L 247.026295 112.347553 
L 247.026295 107.956266 
L 249.10392 107.956266 
L 249.10392 103.564979 
L 249.392449 103.564979 
L 249.392449 97.709929 
L 251.082907 97.709929 
L 251.082907 96.246167 
L 253.496639 96.246167 
L 253.496639 94.782405 
L 254.014562 94.782405 
L 254.014562 91.85488 
L 254.27113 91.85488 
L 254.27113 90.391118 
L 254.52613 90.391118 
L 254.52613 87.463593 
L 255.778244 87.463593 
L 255.778244 85.99983 
L 256.268747 85.99983 
L 256.268747 83.072306 
L 256.511851 83.072306 
L 256.511851 78.681019 
L 256.753546 78.681019 
L 256.753546 75.753494 
L 258.175011 75.753494 
L 258.175011 72.825969 
L 261.957703 72.825969 
L 261.957703 71.362207 
L 262.380979 71.362207 
L 262.380979 68.434682 
L 263.007942 68.434682 
L 263.007942 65.507157 
L 265.032236 65.507157 
L 265.032236 64.043395 
L 265.229363 64.043395 
L 265.229363 62.579632 
L 265.815213 62.579632 
L 265.815213 61.11587 
L 267.895531 61.11587 
L 267.895531 59.652108 
L 268.987967 59.652108 
L 268.987967 58.188345 
L 269.876962 58.188345 
L 269.876962 56.724583 
L 271.090544 56.724583 
L 271.090544 55.260821 
L 272.928978 55.260821 
L 272.928978 53.797058 
L 274.375097 53.797058 
L 274.375097 49.405771 
L 276.828291 49.405771 
L 276.828291 47.942009 
L 277.566227 47.942009 
L 277.566227 45.014484 
L 278.002799 45.014484 
L 278.002799 43.550722 
L 280.119613 43.550722 
L 280.119613 42.086959 
L 281.206118 42.086959 
L 281.206118 40.623197 
L 284.923096 40.623197 
L 284.923096 37.695672 
L 285.531754 37.695672 
L 285.531754 34.768147 
L 358.8 34.768147 
L 358.8 34.768147 
" style="fill:none;stroke:#9acd32;stroke-linecap:square;stroke-width:1.5;"/>
   </g>
   <g id="line2d_77">
    <defs>
     <path d="M 0 -6 
L -6 6 
L 6 6 
z
" id="m0e896aeefd" style="stroke:#9acd32;stroke-linejoin:miter;stroke-width:1.5;"/>
    </defs>
    <g>
     <use style="fill:none;stroke:#9acd32;stroke-linejoin:miter;stroke-width:1.5;" x="109.002241" xlink:href="#m0e896aeefd" y="251.404979"/>
     <use style="fill:none;stroke:#9acd32;stroke-linejoin:miter;stroke-width:1.5;" x="199.672577" xlink:href="#m0e896aeefd" y="197.245771"/>
     <use style="fill:none;stroke:#9acd32;stroke-linejoin:miter;stroke-width:1.5;" x="232.199159" xlink:href="#m0e896aeefd" y="138.695276"/>
     <use style="fill:none;stroke:#9acd32;stroke-linejoin:miter;stroke-width:1.5;" x="269.876962" xlink:href="#m0e896aeefd" y="56.724583"/>
     <use style="fill:none;stroke:#9acd32;stroke-linejoin:miter;stroke-width:1.5;" x="285.531754" xlink:href="#m0e896aeefd" y="34.768147"/>
     <use style="fill:none;stroke:#9acd32;stroke-linejoin:miter;stroke-width:1.5;" x="358.8" xlink:href="#m0e896aeefd" y="34.768147"/>
    </g>
   </g>
   <g id="line2d_78"/>
   <g id="line2d_79">
    <path d="M 358.8 137.231514 
L 390.48 292.97583 
" style="fill:none;stroke:#ff0000;stroke-linecap:square;stroke-width:1.5;"/>
    <g>
     <use style="fill:none;stroke:#ff0000;stroke-linejoin:miter;stroke-width:1.5;" x="358.8" xlink:href="#mdec776c8c0" y="137.231514"/>
     <use style="fill:none;stroke:#ff0000;stroke-linejoin:miter;stroke-width:1.5;" x="390.48" xlink:href="#mdec776c8c0" y="292.97583"/>
    </g>
   </g>
   <g id="line2d_80">
    <path d="M 358.8 119.666365 
L 390.48 250.819474 
" style="fill:none;stroke:#ffa500;stroke-linecap:square;stroke-width:1.5;"/>
    <g>
     <use style="fill:none;stroke:#ffa500;stroke-linejoin:bevel;stroke-width:1.5;" x="358.8" xlink:href="#m8ac8771676" y="119.666365"/>
     <use style="fill:none;stroke:#ffa500;stroke-linejoin:bevel;stroke-width:1.5;" x="390.48" xlink:href="#m8ac8771676" y="250.819474"/>
    </g>
   </g>
   <g id="line2d_81">
    <path d="M 358.8 34.768147 
L 390.48 208.663118 
" style="fill:none;stroke:#6495ed;stroke-linecap:square;stroke-width:1.5;"/>
    <g>
     <use style="fill:none;stroke:#6495ed;stroke-linejoin:miter;stroke-width:1.5;" x="358.8" xlink:href="#m4384576924" y="34.768147"/>
     <use style="fill:none;stroke:#6495ed;stroke-linejoin:miter;stroke-width:1.5;" x="390.48" xlink:href="#m4384576924" y="208.663118"/>
    </g>
   </g>
   <g id="line2d_82">
    <path d="M 358.8 34.768147 
L 390.48 166.506761 
" style="fill:none;stroke:#ff00ff;stroke-linecap:square;stroke-width:1.5;"/>
    <g>
     <use style="fill:none;stroke:#ff00ff;stroke-linejoin:miter;stroke-width:1.5;" x="358.8" xlink:href="#m7ae7a5afe0" y="34.768147"/>
     <use style="fill:none;stroke:#ff00ff;stroke-linejoin:miter;stroke-width:1.5;" x="390.48" xlink:href="#m7ae7a5afe0" y="166.506761"/>
    </g>
   </g>
   <g id="line2d_83">
    <path d="M 358.8 34.768147 
L 390.48 124.350405 
" style="fill:none;stroke:#9acd32;stroke-linecap:square;stroke-width:1.5;"/>
    <g>
     <use style="fill:none;stroke:#9acd32;stroke-linejoin:miter;stroke-width:1.5;" x="358.8" xlink:href="#m0e896aeefd" y="34.768147"/>
     <use style="fill:none;stroke:#9acd32;stroke-linejoin:miter;stroke-width:1.5;" x="390.48" xlink:href="#m0e896aeefd" y="124.350405"/>
    </g>
   </g>
   <g id="line2d_84">
    <path d="M 358.8 34.768147 
L 390.48 82.194048 
" style="fill:none;stroke:#000080;stroke-linecap:square;stroke-width:1.5;"/>
    <g>
     <use style="fill:none;stroke:#000080;stroke-width:1.5;" x="358.8" xlink:href="#mf66883f5cd" y="34.768147"/>
     <use style="fill:none;stroke:#000080;stroke-width:1.5;" x="390.48" xlink:href="#mf66883f5cd" y="82.194048"/>
    </g>
   </g>
   <g id="line2d_85">
    <path d="M 358.8 298.245375 
L 358.8 34.768147 
" style="fill:none;stroke:#000000;stroke-linecap:square;stroke-width:1.5;"/>
   </g>
   <g id="patch_3">
    <path d="M 70.8 298.245375 
L 70.8 32.133375 
" style="fill:none;stroke:#000000;stroke-linecap:square;stroke-linejoin:miter;stroke-width:0.8;"/>
   </g>
   <g id="patch_4">
    <path d="M 427.92 298.245375 
L 427.92 32.133375 
" style="fill:none;stroke:#000000;stroke-linecap:square;stroke-linejoin:miter;stroke-width:0.8;"/>
   </g>
   <g id="patch_5">
    <path d="M 70.8 298.245375 
L 427.92 298.245375 
" style="fill:none;stroke:#000000;stroke-linecap:square;stroke-linejoin:miter;stroke-width:0.8;"/>
   </g>
   <g id="patch_6">
    <path d="M 70.8 32.133375 
L 427.92 32.133375 
" style="fill:none;stroke:#000000;stroke-linecap:square;stroke-linejoin:miter;stroke-width:0.8;"/>
   </g>
   <g id="text_13">
    <!-- SMAC-BBOB -->
    <defs>
     <path d="M 53.515625 70.515625 
L 53.515625 60.890625 
Q 47.90625 63.578125 42.921875 64.890625 
Q 37.9375 66.21875 33.296875 66.21875 
Q 25.25 66.21875 20.875 63.09375 
Q 16.5 59.96875 16.5 54.203125 
Q 16.5 49.359375 19.40625 46.890625 
Q 22.3125 44.4375 30.421875 42.921875 
L 36.375 41.703125 
Q 47.40625 39.59375 52.65625 34.296875 
Q 57.90625 29 57.90625 20.125 
Q 57.90625 9.515625 50.796875 4.046875 
Q 43.703125 -1.421875 29.984375 -1.421875 
Q 24.8125 -1.421875 18.96875 -0.25 
Q 13.140625 0.921875 6.890625 3.21875 
L 6.890625 13.375 
Q 12.890625 10.015625 18.65625 8.296875 
Q 24.421875 6.59375 29.984375 6.59375 
Q 38.421875 6.59375 43.015625 9.90625 
Q 47.609375 13.234375 47.609375 19.390625 
Q 47.609375 24.75 44.3125 27.78125 
Q 41.015625 30.8125 33.5 32.328125 
L 27.484375 33.5 
Q 16.453125 35.6875 11.515625 40.375 
Q 6.59375 45.0625 6.59375 53.421875 
Q 6.59375 63.09375 13.40625 68.65625 
Q 20.21875 74.21875 32.171875 74.21875 
Q 37.3125 74.21875 42.625 73.28125 
Q 47.953125 72.359375 53.515625 70.515625 
z
" id="DejaVuSans-53"/>
     <path d="M 9.8125 72.90625 
L 24.515625 72.90625 
L 43.109375 23.296875 
L 61.8125 72.90625 
L 76.515625 72.90625 
L 76.515625 0 
L 66.890625 0 
L 66.890625 64.015625 
L 48.09375 14.015625 
L 38.1875 14.015625 
L 19.390625 64.015625 
L 19.390625 0 
L 9.8125 0 
z
" id="DejaVuSans-4d"/>
     <path d="M 34.1875 63.1875 
L 20.796875 26.90625 
L 47.609375 26.90625 
z
M 28.609375 72.90625 
L 39.796875 72.90625 
L 67.578125 0 
L 57.328125 0 
L 50.6875 18.703125 
L 17.828125 18.703125 
L 11.1875 0 
L 0.78125 0 
z
" id="DejaVuSans-41"/>
     <path d="M 64.40625 67.28125 
L 64.40625 56.890625 
Q 59.421875 61.53125 53.78125 63.8125 
Q 48.140625 66.109375 41.796875 66.109375 
Q 29.296875 66.109375 22.65625 58.46875 
Q 16.015625 50.828125 16.015625 36.375 
Q 16.015625 21.96875 22.65625 14.328125 
Q 29.296875 6.6875 41.796875 6.6875 
Q 48.140625 6.6875 53.78125 8.984375 
Q 59.421875 11.28125 64.40625 15.921875 
L 64.40625 5.609375 
Q 59.234375 2.09375 53.4375 0.328125 
Q 47.65625 -1.421875 41.21875 -1.421875 
Q 24.65625 -1.421875 15.125 8.703125 
Q 5.609375 18.84375 5.609375 36.375 
Q 5.609375 53.953125 15.125 64.078125 
Q 24.65625 74.21875 41.21875 74.21875 
Q 47.75 74.21875 53.53125 72.484375 
Q 59.328125 70.75 64.40625 67.28125 
z
" id="DejaVuSans-43"/>
     <path d="M 19.671875 34.8125 
L 19.671875 8.109375 
L 35.5 8.109375 
Q 43.453125 8.109375 47.28125 11.40625 
Q 51.125 14.703125 51.125 21.484375 
Q 51.125 28.328125 47.28125 31.5625 
Q 43.453125 34.8125 35.5 34.8125 
z
M 19.671875 64.796875 
L 19.671875 42.828125 
L 34.28125 42.828125 
Q 41.5 42.828125 45.03125 45.53125 
Q 48.578125 48.25 48.578125 53.8125 
Q 48.578125 59.328125 45.03125 62.0625 
Q 41.5 64.796875 34.28125 64.796875 
z
M 9.8125 72.90625 
L 35.015625 72.90625 
Q 46.296875 72.90625 52.390625 68.21875 
Q 58.5 63.53125 58.5 54.890625 
Q 58.5 48.1875 55.375 44.234375 
Q 52.25 40.28125 46.1875 39.3125 
Q 53.46875 37.75 57.5 32.78125 
Q 61.53125 27.828125 61.53125 20.40625 
Q 61.53125 10.640625 54.890625 5.3125 
Q 48.25 0 35.984375 0 
L 9.8125 0 
z
" id="DejaVuSans-42"/>
     <path d="M 39.40625 66.21875 
Q 28.65625 66.21875 22.328125 58.203125 
Q 16.015625 50.203125 16.015625 36.375 
Q 16.015625 22.609375 22.328125 14.59375 
Q 28.65625 6.59375 39.40625 6.59375 
Q 50.140625 6.59375 56.421875 14.59375 
Q 62.703125 22.609375 62.703125 36.375 
Q 62.703125 50.203125 56.421875 58.203125 
Q 50.140625 66.21875 39.40625 66.21875 
z
M 39.40625 74.21875 
Q 54.734375 74.21875 63.90625 63.9375 
Q 73.09375 53.65625 73.09375 36.375 
Q 73.09375 19.140625 63.90625 8.859375 
Q 54.734375 -1.421875 39.40625 -1.421875 
Q 24.03125 -1.421875 14.8125 8.828125 
Q 5.609375 19.09375 5.609375 36.375 
Q 5.609375 53.65625 14.8125 63.9375 
Q 24.03125 74.21875 39.40625 74.21875 
z
" id="DejaVuSans-4f"/>
    </defs>
    <g transform="translate(396.24 296.838955)scale(0.14 -0.14)">
     <use xlink:href="#DejaVuSans-53"/>
     <use x="63.476562" xlink:href="#DejaVuSans-4d"/>
     <use x="149.755859" xlink:href="#DejaVuSans-41"/>
     <use x="218.148438" xlink:href="#DejaVuSans-43"/>
     <use x="287.972656" xlink:href="#DejaVuSans-2d"/>
     <use x="324.009766" xlink:href="#DejaVuSans-42"/>
     <use x="392.613281" xlink:href="#DejaVuSans-42"/>
     <use x="461.201172" xlink:href="#DejaVuSans-4f"/>
     <use x="539.912109" xlink:href="#DejaVuSans-42"/>
    </g>
   </g>
   <g id="text_14">
    <!-- RANDOMSEA -->
    <defs>
     <path d="M 44.390625 34.1875 
Q 47.5625 33.109375 50.5625 29.59375 
Q 53.5625 26.078125 56.59375 19.921875 
L 66.609375 0 
L 56 0 
L 46.6875 18.703125 
Q 43.0625 26.03125 39.671875 28.421875 
Q 36.28125 30.8125 30.421875 30.8125 
L 19.671875 30.8125 
L 19.671875 0 
L 9.8125 0 
L 9.8125 72.90625 
L 32.078125 72.90625 
Q 44.578125 72.90625 50.734375 67.671875 
Q 56.890625 62.453125 56.890625 51.90625 
Q 56.890625 45.015625 53.6875 40.46875 
Q 50.484375 35.9375 44.390625 34.1875 
z
M 19.671875 64.796875 
L 19.671875 38.921875 
L 32.078125 38.921875 
Q 39.203125 38.921875 42.84375 42.21875 
Q 46.484375 45.515625 46.484375 51.90625 
Q 46.484375 58.296875 42.84375 61.546875 
Q 39.203125 64.796875 32.078125 64.796875 
z
" id="DejaVuSans-52"/>
     <path d="M 9.8125 72.90625 
L 23.09375 72.90625 
L 55.421875 11.921875 
L 55.421875 72.90625 
L 64.984375 72.90625 
L 64.984375 0 
L 51.703125 0 
L 19.390625 60.984375 
L 19.390625 0 
L 9.8125 0 
z
" id="DejaVuSans-4e"/>
     <path d="M 19.671875 64.796875 
L 19.671875 8.109375 
L 31.59375 8.109375 
Q 46.6875 8.109375 53.6875 14.9375 
Q 60.6875 21.78125 60.6875 36.53125 
Q 60.6875 51.171875 53.6875 57.984375 
Q 46.6875 64.796875 31.59375 64.796875 
z
M 9.8125 72.90625 
L 30.078125 72.90625 
Q 51.265625 72.90625 61.171875 64.09375 
Q 71.09375 55.28125 71.09375 36.53125 
Q 71.09375 17.671875 61.125 8.828125 
Q 51.171875 0 30.078125 0 
L 9.8125 0 
z
" id="DejaVuSans-44"/>
     <path d="M 9.8125 72.90625 
L 55.90625 72.90625 
L 55.90625 64.59375 
L 19.671875 64.59375 
L 19.671875 43.015625 
L 54.390625 43.015625 
L 54.390625 34.71875 
L 19.671875 34.71875 
L 19.671875 8.296875 
L 56.78125 8.296875 
L 56.78125 0 
L 9.8125 0 
z
" id="DejaVuSans-45"/>
    </defs>
    <g transform="translate(396.24 254.682599)scale(0.14 -0.14)">
     <use xlink:href="#DejaVuSans-52"/>
     <use x="69.419922" xlink:href="#DejaVuSans-41"/>
     <use x="137.828125" xlink:href="#DejaVuSans-4e"/>
     <use x="212.632812" xlink:href="#DejaVuSans-44"/>
     <use x="289.634766" xlink:href="#DejaVuSans-4f"/>
     <use x="368.345703" xlink:href="#DejaVuSans-4d"/>
     <use x="454.625" xlink:href="#DejaVuSans-53"/>
     <use x="518.101562" xlink:href="#DejaVuSans-45"/>
     <use x="581.285156" xlink:href="#DejaVuSans-41"/>
    </g>
   </g>
   <g id="text_15">
    <!-- HCMA losh -->
    <defs>
     <path d="M 9.8125 72.90625 
L 19.671875 72.90625 
L 19.671875 43.015625 
L 55.515625 43.015625 
L 55.515625 72.90625 
L 65.375 72.90625 
L 65.375 0 
L 55.515625 0 
L 55.515625 34.71875 
L 19.671875 34.71875 
L 19.671875 0 
L 9.8125 0 
z
" id="DejaVuSans-48"/>
     <path d="M 54.890625 33.015625 
L 54.890625 0 
L 45.90625 0 
L 45.90625 32.71875 
Q 45.90625 40.484375 42.875 44.328125 
Q 39.84375 48.1875 33.796875 48.1875 
Q 26.515625 48.1875 22.3125 43.546875 
Q 18.109375 38.921875 18.109375 30.90625 
L 18.109375 0 
L 9.078125 0 
L 9.078125 75.984375 
L 18.109375 75.984375 
L 18.109375 46.1875 
Q 21.34375 51.125 25.703125 53.5625 
Q 30.078125 56 35.796875 56 
Q 45.21875 56 50.046875 50.171875 
Q 54.890625 44.34375 54.890625 33.015625 
z
" id="DejaVuSans-68"/>
    </defs>
    <g transform="translate(396.24 212.526243)scale(0.14 -0.14)">
     <use xlink:href="#DejaVuSans-48"/>
     <use x="75.195312" xlink:href="#DejaVuSans-43"/>
     <use x="145.019531" xlink:href="#DejaVuSans-4d"/>
     <use x="231.298828" xlink:href="#DejaVuSans-41"/>
     <use x="299.707031" xlink:href="#DejaVuSans-20"/>
     <use x="331.494141" xlink:href="#DejaVuSans-6c"/>
     <use x="359.277344" xlink:href="#DejaVuSans-6f"/>
     <use x="420.458984" xlink:href="#DejaVuSans-73"/>
     <use x="472.558594" xlink:href="#DejaVuSans-68"/>
    </g>
   </g>
   <g id="text_16">
    <!-- BIPOP-CMA -->
    <defs>
     <path d="M 9.8125 72.90625 
L 19.671875 72.90625 
L 19.671875 0 
L 9.8125 0 
z
" id="DejaVuSans-49"/>
    </defs>
    <g transform="translate(396.24 170.369886)scale(0.14 -0.14)">
     <use xlink:href="#DejaVuSans-42"/>
     <use x="68.603516" xlink:href="#DejaVuSans-49"/>
     <use x="98.095703" xlink:href="#DejaVuSans-50"/>
     <use x="158.398438" xlink:href="#DejaVuSans-4f"/>
     <use x="237.109375" xlink:href="#DejaVuSans-50"/>
     <use x="297.380859" xlink:href="#DejaVuSans-2d"/>
     <use x="333.464844" xlink:href="#DejaVuSans-43"/>
     <use x="403.289062" xlink:href="#DejaVuSans-4d"/>
     <use x="489.568359" xlink:href="#DejaVuSans-41"/>
    </g>
   </g>
   <g id="text_17">
    <!-- lmm-CMA-E -->
    <g transform="translate(396.24 128.21353)scale(0.14 -0.14)">
     <use xlink:href="#DejaVuSans-6c"/>
     <use x="27.783203" xlink:href="#DejaVuSans-6d"/>
     <use x="125.195312" xlink:href="#DejaVuSans-6d"/>
     <use x="222.607422" xlink:href="#DejaVuSans-2d"/>
     <use x="258.691406" xlink:href="#DejaVuSans-43"/>
     <use x="328.515625" xlink:href="#DejaVuSans-4d"/>
     <use x="414.794922" xlink:href="#DejaVuSans-41"/>
     <use x="483.171875" xlink:href="#DejaVuSans-2d"/>
     <use x="519.255859" xlink:href="#DejaVuSans-45"/>
    </g>
   </g>
   <g id="text_18">
    <!-- BFGS ros  -->
    <defs>
     <path d="M 9.8125 72.90625 
L 51.703125 72.90625 
L 51.703125 64.59375 
L 19.671875 64.59375 
L 19.671875 43.109375 
L 48.578125 43.109375 
L 48.578125 34.8125 
L 19.671875 34.8125 
L 19.671875 0 
L 9.8125 0 
z
" id="DejaVuSans-46"/>
     <path d="M 59.515625 10.40625 
L 59.515625 29.984375 
L 43.40625 29.984375 
L 43.40625 38.09375 
L 69.28125 38.09375 
L 69.28125 6.78125 
Q 63.578125 2.734375 56.6875 0.65625 
Q 49.8125 -1.421875 42 -1.421875 
Q 24.90625 -1.421875 15.25 8.5625 
Q 5.609375 18.5625 5.609375 36.375 
Q 5.609375 54.25 15.25 64.234375 
Q 24.90625 74.21875 42 74.21875 
Q 49.125 74.21875 55.546875 72.453125 
Q 61.96875 70.703125 67.390625 67.28125 
L 67.390625 56.78125 
Q 61.921875 61.421875 55.765625 63.765625 
Q 49.609375 66.109375 42.828125 66.109375 
Q 29.4375 66.109375 22.71875 58.640625 
Q 16.015625 51.171875 16.015625 36.375 
Q 16.015625 21.625 22.71875 14.15625 
Q 29.4375 6.6875 42.828125 6.6875 
Q 48.046875 6.6875 52.140625 7.59375 
Q 56.25 8.5 59.515625 10.40625 
z
" id="DejaVuSans-47"/>
    </defs>
    <g transform="translate(396.24 86.057173)scale(0.14 -0.14)">
     <use xlink:href="#DejaVuSans-42"/>
     <use x="68.603516" xlink:href="#DejaVuSans-46"/>
     <use x="126.123047" xlink:href="#DejaVuSans-47"/>
     <use x="203.613281" xlink:href="#DejaVuSans-53"/>
     <use x="267.089844" xlink:href="#DejaVuSans-20"/>
     <use x="298.876953" xlink:href="#DejaVuSans-72"/>
     <use x="339.958984" xlink:href="#DejaVuSans-6f"/>
     <use x="401.140625" xlink:href="#DejaVuSans-73"/>
     <use x="453.240234" xlink:href="#DejaVuSans-20"/>
    </g>
   </g>
   <g id="text_19">
    <!-- best 2009 -->
    <defs>
     <path d="M 48.6875 27.296875 
Q 48.6875 37.203125 44.609375 42.84375 
Q 40.53125 48.484375 33.40625 48.484375 
Q 26.265625 48.484375 22.1875 42.84375 
Q 18.109375 37.203125 18.109375 27.296875 
Q 18.109375 17.390625 22.1875 11.75 
Q 26.265625 6.109375 33.40625 6.109375 
Q 40.53125 6.109375 44.609375 11.75 
Q 48.6875 17.390625 48.6875 27.296875 
z
M 18.109375 46.390625 
Q 20.953125 51.265625 25.265625 53.625 
Q 29.59375 56 35.59375 56 
Q 45.5625 56 51.78125 48.09375 
Q 58.015625 40.1875 58.015625 27.296875 
Q 58.015625 14.40625 51.78125 6.484375 
Q 45.5625 -1.421875 35.59375 -1.421875 
Q 29.59375 -1.421875 25.265625 0.953125 
Q 20.953125 3.328125 18.109375 8.203125 
L 18.109375 0 
L 9.078125 0 
L 9.078125 75.984375 
L 18.109375 75.984375 
z
" id="DejaVuSans-62"/>
     <path d="M 10.984375 1.515625 
L 10.984375 10.5 
Q 14.703125 8.734375 18.5 7.8125 
Q 22.3125 6.890625 25.984375 6.890625 
Q 35.75 6.890625 40.890625 13.453125 
Q 46.046875 20.015625 46.78125 33.40625 
Q 43.953125 29.203125 39.59375 26.953125 
Q 35.25 24.703125 29.984375 24.703125 
Q 19.046875 24.703125 12.671875 31.3125 
Q 6.296875 37.9375 6.296875 49.421875 
Q 6.296875 60.640625 12.9375 67.421875 
Q 19.578125 74.21875 30.609375 74.21875 
Q 43.265625 74.21875 49.921875 64.515625 
Q 56.59375 54.828125 56.59375 36.375 
Q 56.59375 19.140625 48.40625 8.859375 
Q 40.234375 -1.421875 26.421875 -1.421875 
Q 22.703125 -1.421875 18.890625 -0.6875 
Q 15.09375 0.046875 10.984375 1.515625 
z
M 30.609375 32.421875 
Q 37.25 32.421875 41.125 36.953125 
Q 45.015625 41.5 45.015625 49.421875 
Q 45.015625 57.28125 41.125 61.84375 
Q 37.25 66.40625 30.609375 66.40625 
Q 23.96875 66.40625 20.09375 61.84375 
Q 16.21875 57.28125 16.21875 49.421875 
Q 16.21875 41.5 20.09375 36.953125 
Q 23.96875 32.421875 30.609375 32.421875 
z
" id="DejaVuSans-39"/>
    </defs>
    <g transform="translate(396.24 43.900817)scale(0.14 -0.14)">
     <use xlink:href="#DejaVuSans-62"/>
     <use x="63.476562" xlink:href="#DejaVuSans-65"/>
     <use x="125" xlink:href="#DejaVuSans-73"/>
     <use x="177.099609" xlink:href="#DejaVuSans-74"/>
     <use x="216.308594" xlink:href="#DejaVuSans-20"/>
     <use x="248.095703" xlink:href="#DejaVuSans-32"/>
     <use x="311.71875" xlink:href="#DejaVuSans-30"/>
     <use x="375.341797" xlink:href="#DejaVuSans-30"/>
     <use x="438.964844" xlink:href="#DejaVuSans-39"/>
    </g>
   </g>
   <g id="text_20">
    <!-- bbob - f6, 2-D -->
    <defs>
     <path d="M 11.71875 12.40625 
L 22.015625 12.40625 
L 22.015625 4 
L 14.015625 -11.625 
L 7.71875 -11.625 
L 11.71875 4 
z
" id="DejaVuSans-2c"/>
    </defs>
    <g transform="translate(74.3712 50.114612)scale(0.1666 -0.1666)">
     <use xlink:href="#DejaVuSans-62"/>
     <use x="63.476562" xlink:href="#DejaVuSans-62"/>
     <use x="126.953125" xlink:href="#DejaVuSans-6f"/>
     <use x="188.134766" xlink:href="#DejaVuSans-62"/>
     <use x="251.611328" xlink:href="#DejaVuSans-20"/>
     <use x="283.398438" xlink:href="#DejaVuSans-2d"/>
     <use x="319.482422" xlink:href="#DejaVuSans-20"/>
     <use x="351.269531" xlink:href="#DejaVuSans-66"/>
     <use x="386.474609" xlink:href="#DejaVuSans-36"/>
     <use x="450.097656" xlink:href="#DejaVuSans-2c"/>
     <use x="481.884766" xlink:href="#DejaVuSans-20"/>
     <use x="513.671875" xlink:href="#DejaVuSans-32"/>
     <use x="577.294922" xlink:href="#DejaVuSans-2d"/>
     <use x="613.378906" xlink:href="#DejaVuSans-44"/>
    </g>
    <!-- 31 target RLs/dim: 0.5..50 -->
    <defs>
     <path d="M 9.8125 72.90625 
L 19.671875 72.90625 
L 19.671875 8.296875 
L 55.171875 8.296875 
L 55.171875 0 
L 9.8125 0 
z
" id="DejaVuSans-4c"/>
     <path d="M 11.71875 12.40625 
L 22.015625 12.40625 
L 22.015625 0 
L 11.71875 0 
z
M 11.71875 51.703125 
L 22.015625 51.703125 
L 22.015625 39.3125 
L 11.71875 39.3125 
z
" id="DejaVuSans-3a"/>
     <path d="M 10.796875 72.90625 
L 49.515625 72.90625 
L 49.515625 64.59375 
L 19.828125 64.59375 
L 19.828125 46.734375 
Q 21.96875 47.46875 24.109375 47.828125 
Q 26.265625 48.1875 28.421875 48.1875 
Q 40.625 48.1875 47.75 41.5 
Q 54.890625 34.8125 54.890625 23.390625 
Q 54.890625 11.625 47.5625 5.09375 
Q 40.234375 -1.421875 26.90625 -1.421875 
Q 22.3125 -1.421875 17.546875 -0.640625 
Q 12.796875 0.140625 7.71875 1.703125 
L 7.71875 11.625 
Q 12.109375 9.234375 16.796875 8.0625 
Q 21.484375 6.890625 26.703125 6.890625 
Q 35.15625 6.890625 40.078125 11.328125 
Q 45.015625 15.765625 45.015625 23.390625 
Q 45.015625 31 40.078125 35.4375 
Q 35.15625 39.890625 26.703125 39.890625 
Q 22.75 39.890625 18.8125 39.015625 
Q 14.890625 38.140625 10.796875 36.28125 
z
" id="DejaVuSans-35"/>
    </defs>
    <g transform="translate(74.3712 68.770168)scale(0.1666 -0.1666)">
     <use xlink:href="#DejaVuSans-33"/>
     <use x="63.623047" xlink:href="#DejaVuSans-31"/>
     <use x="127.246094" xlink:href="#DejaVuSans-20"/>
     <use x="159.033203" xlink:href="#DejaVuSans-74"/>
     <use x="198.242188" xlink:href="#DejaVuSans-61"/>
     <use x="259.521484" xlink:href="#DejaVuSans-72"/>
     <use x="300.619141" xlink:href="#DejaVuSans-67"/>
     <use x="364.095703" xlink:href="#DejaVuSans-65"/>
     <use x="425.619141" xlink:href="#DejaVuSans-74"/>
     <use x="464.828125" xlink:href="#DejaVuSans-20"/>
     <use x="496.615234" xlink:href="#DejaVuSans-52"/>
     <use x="566.097656" xlink:href="#DejaVuSans-4c"/>
     <use x="621.810547" xlink:href="#DejaVuSans-73"/>
     <use x="673.910156" xlink:href="#DejaVuSans-2f"/>
     <use x="707.601562" xlink:href="#DejaVuSans-64"/>
     <use x="771.078125" xlink:href="#DejaVuSans-69"/>
     <use x="798.861328" xlink:href="#DejaVuSans-6d"/>
     <use x="896.273438" xlink:href="#DejaVuSans-3a"/>
     <use x="929.964844" xlink:href="#DejaVuSans-20"/>
     <use x="961.751953" xlink:href="#DejaVuSans-30"/>
     <use x="1025.375" xlink:href="#DejaVuSans-2e"/>
     <use x="1057.162109" xlink:href="#DejaVuSans-35"/>
     <use x="1120.785156" xlink:href="#DejaVuSans-2e"/>
     <use x="1152.572266" xlink:href="#DejaVuSans-2e"/>
     <use x="1184.359375" xlink:href="#DejaVuSans-35"/>
     <use x="1247.982422" xlink:href="#DejaVuSans-30"/>
    </g>
    <!--    from refalgs/best2009-bbob.tar.gz -->
    <defs>
     <path d="M 5.515625 54.6875 
L 48.1875 54.6875 
L 48.1875 46.484375 
L 14.40625 7.171875 
L 48.1875 7.171875 
L 48.1875 0 
L 4.296875 0 
L 4.296875 8.203125 
L 38.09375 47.515625 
L 5.515625 47.515625 
z
" id="DejaVuSans-7a"/>
    </defs>
    <g transform="translate(74.3712 87.425723)scale(0.1666 -0.1666)">
     <use xlink:href="#DejaVuSans-20"/>
     <use x="31.787109" xlink:href="#DejaVuSans-20"/>
     <use x="63.574219" xlink:href="#DejaVuSans-20"/>
     <use x="95.361328" xlink:href="#DejaVuSans-66"/>
     <use x="130.566406" xlink:href="#DejaVuSans-72"/>
     <use x="171.648438" xlink:href="#DejaVuSans-6f"/>
     <use x="232.830078" xlink:href="#DejaVuSans-6d"/>
     <use x="330.242188" xlink:href="#DejaVuSans-20"/>
     <use x="362.029297" xlink:href="#DejaVuSans-72"/>
     <use x="403.111328" xlink:href="#DejaVuSans-65"/>
     <use x="464.634766" xlink:href="#DejaVuSans-66"/>
     <use x="499.839844" xlink:href="#DejaVuSans-61"/>
     <use x="561.119141" xlink:href="#DejaVuSans-6c"/>
     <use x="588.902344" xlink:href="#DejaVuSans-67"/>
     <use x="652.378906" xlink:href="#DejaVuSans-73"/>
     <use x="704.478516" xlink:href="#DejaVuSans-2f"/>
     <use x="738.169922" xlink:href="#DejaVuSans-62"/>
     <use x="801.646484" xlink:href="#DejaVuSans-65"/>
     <use x="863.169922" xlink:href="#DejaVuSans-73"/>
     <use x="915.269531" xlink:href="#DejaVuSans-74"/>
     <use x="954.478516" xlink:href="#DejaVuSans-32"/>
     <use x="1018.101562" xlink:href="#DejaVuSans-30"/>
     <use x="1081.724609" xlink:href="#DejaVuSans-30"/>
     <use x="1145.347656" xlink:href="#DejaVuSans-39"/>
     <use x="1208.970703" xlink:href="#DejaVuSans-2d"/>
     <use x="1245.054688" xlink:href="#DejaVuSans-62"/>
     <use x="1308.53125" xlink:href="#DejaVuSans-62"/>
     <use x="1372.007812" xlink:href="#DejaVuSans-6f"/>
     <use x="1433.189453" xlink:href="#DejaVuSans-62"/>
     <use x="1496.666016" xlink:href="#DejaVuSans-2e"/>
     <use x="1528.453125" xlink:href="#DejaVuSans-74"/>
     <use x="1567.662109" xlink:href="#DejaVuSans-61"/>
     <use x="1628.941406" xlink:href="#DejaVuSans-72"/>
     <use x="1669.914062" xlink:href="#DejaVuSans-2e"/>
     <use x="1701.701172" xlink:href="#DejaVuSans-67"/>
     <use x="1765.177734" xlink:href="#DejaVuSans-7a"/>
    </g>
    <!-- 15 instances -->
    <g transform="translate(74.3712 106.081279)scale(0.1666 -0.1666)">
     <use xlink:href="#DejaVuSans-31"/>
     <use x="63.623047" xlink:href="#DejaVuSans-35"/>
     <use x="127.246094" xlink:href="#DejaVuSans-20"/>
     <use x="159.033203" xlink:href="#DejaVuSans-69"/>
     <use x="186.816406" xlink:href="#DejaVuSans-6e"/>
     <use x="250.195312" xlink:href="#DejaVuSans-73"/>
     <use x="302.294922" xlink:href="#DejaVuSans-74"/>
     <use x="341.503906" xlink:href="#DejaVuSans-61"/>
     <use x="402.783203" xlink:href="#DejaVuSans-6e"/>
     <use x="466.162109" xlink:href="#DejaVuSans-63"/>
     <use x="521.142578" xlink:href="#DejaVuSans-65"/>
     <use x="582.666016" xlink:href="#DejaVuSans-73"/>
    </g>
   </g>
   <g id="text_21">
    <!-- v2.0.480 -->
    <g style="fill:#808080;" transform="translate(227.31625 293.504568)scale(0.1 -0.1)">
     <use xlink:href="#DejaVuSans-76"/>
     <use x="59.179688" xlink:href="#DejaVuSans-32"/>
     <use x="122.802734" xlink:href="#DejaVuSans-2e"/>
     <use x="154.589844" xlink:href="#DejaVuSans-30"/>
     <use x="218.212891" xlink:href="#DejaVuSans-2e"/>
     <use x="250" xlink:href="#DejaVuSans-34"/>
     <use x="313.623047" xlink:href="#DejaVuSans-38"/>
     <use x="377.246094" xlink:href="#DejaVuSans-30"/>
    </g>
   </g>
   <g id="text_22">
    <!-- 6 Attractive sector -->
    <g transform="translate(137.859375 26.133375)scale(0.24 -0.24)">
     <use xlink:href="#DejaVuSans-36"/>
     <use x="63.623047" xlink:href="#DejaVuSans-20"/>
     <use x="95.410156" xlink:href="#DejaVuSans-41"/>
     <use x="163.802734" xlink:href="#DejaVuSans-74"/>
     <use x="203.011719" xlink:href="#DejaVuSans-74"/>
     <use x="242.220703" xlink:href="#DejaVuSans-72"/>
     <use x="283.333984" xlink:href="#DejaVuSans-61"/>
     <use x="344.613281" xlink:href="#DejaVuSans-63"/>
     <use x="399.59375" xlink:href="#DejaVuSans-74"/>
     <use x="438.802734" xlink:href="#DejaVuSans-69"/>
     <use x="466.585938" xlink:href="#DejaVuSans-76"/>
     <use x="525.765625" xlink:href="#DejaVuSans-65"/>
     <use x="587.289062" xlink:href="#DejaVuSans-20"/>
     <use x="619.076172" xlink:href="#DejaVuSans-73"/>
     <use x="671.175781" xlink:href="#DejaVuSans-65"/>
     <use x="732.699219" xlink:href="#DejaVuSans-63"/>
     <use x="787.679688" xlink:href="#DejaVuSans-74"/>
     <use x="826.888672" xlink:href="#DejaVuSans-6f"/>
     <use x="888.070312" xlink:href="#DejaVuSans-72"/>
    </g>
   </g>
  </g>
 </g>
 <defs>
  <clipPath id="pd1365c70af">
   <rect height="266.112" width="357.12" x="70.8" y="32.133375"/>
  </clipPath>
 </defs>
</svg>
