<?xml version="1.0" encoding="utf-8" standalone="no"?>
<!DOCTYPE svg PUBLIC "-//W3C//DTD SVG 1.1//EN"
  "http://www.w3.org/Graphics/SVG/1.1/DTD/svg11.dtd">
<!-- Created with matplotlib (http://matplotlib.org/) -->
<svg height="353pt" version="1.1" viewBox="0 0 561 353" width="561pt" xmlns="http://www.w3.org/2000/svg" xmlns:xlink="http://www.w3.org/1999/xlink">
 <defs>
  <style type="text/css">
*{stroke-linecap:butt;stroke-linejoin:round;}
  </style>
 </defs>
 <g id="figure_1">
  <g id="patch_1">
   <path d="M 0 353.22225 
L 561.699505 353.22225 
L 561.699505 0 
L 0 0 
z
" style="fill:#ffffff;"/>
  </g>
  <g id="axes_1">
   <g id="patch_2">
    <path d="M 138.09888 298.245375 
L 495.21888 298.245375 
L 495.21888 32.133375 
L 138.09888 32.133375 
z
" style="fill:#ffffff;"/>
   </g>
   <g id="line2d_1">
    <path d="M 153.590208 298.245375 
L 153.590208 280.680226 
L 169.031932 280.680226 
L 169.031932 263.115078 
L 177.126737 263.115078 
L 177.126737 245.549929 
L 182.489087 245.549929 
L 182.489087 227.984781 
L 187.239682 227.984781 
L 187.239682 210.419632 
L 193.758105 210.419632 
L 193.758105 192.854484 
L 201.723631 192.854484 
L 201.723631 175.289335 
L 214.835572 175.289335 
L 214.835572 157.724187 
L 225.57001 157.724187 
L 225.57001 140.159038 
L 235.533153 140.159038 
L 235.533153 122.59389 
L 242.389423 122.59389 
L 242.389423 105.028741 
L 251.280667 105.028741 
L 251.280667 87.463593 
L 259.859895 87.463593 
L 259.859895 69.898444 
L 263.412611 69.898444 
L 263.412611 52.333296 
L 264.230133 52.333296 
L 264.230133 34.768147 
L 426.09888 34.768147 
" style="fill:none;stroke:#f5deb3;stroke-linecap:square;stroke-width:6;"/>
   </g>
   <g id="line2d_2"/>
   <g id="line2d_3">
    <path d="M 426.09888 34.768147 
L 457.77888 40.037692 
" style="fill:none;stroke:#f5deb3;stroke-linecap:square;stroke-width:6;"/>
    <defs>
     <path d="M -0 7.778175 
L 7.778175 0 
L 0 -7.778175 
L -7.778175 -0 
z
" id="m04851ed031" style="stroke:#f5deb3;stroke-linejoin:miter;stroke-width:1.5;"/>
    </defs>
    <g>
     <use style="fill:#f5deb3;stroke:#f5deb3;stroke-linejoin:miter;stroke-width:1.5;" x="426.09888" xlink:href="#m04851ed031" y="34.768147"/>
     <use style="fill:#f5deb3;stroke:#f5deb3;stroke-linejoin:miter;stroke-width:1.5;" x="457.77888" xlink:href="#m04851ed031" y="40.037692"/>
    </g>
   </g>
   <g id="matplotlib.axis_1">
    <g id="xtick_1">
     <g id="line2d_4">
      <path clip-path="url(#p2c2658146e)" d="M 138.09888 298.245375 
L 138.09888 32.133375 
" style="fill:none;stroke:#b0b0b0;stroke-linecap:square;stroke-width:0.8;"/>
     </g>
     <g id="line2d_5">
      <defs>
       <path d="M 0 0 
L 0 3.5 
" id="mb19c37e33a" style="stroke:#000000;stroke-width:0.8;"/>
      </defs>
      <g>
       <use style="stroke:#000000;stroke-width:0.8;" x="138.09888" xlink:href="#mb19c37e33a" y="298.245375"/>
      </g>
     </g>
     <g id="text_1">
      <!-- 0 -->
      <defs>
       <path d="M 31.78125 66.40625 
Q 24.171875 66.40625 20.328125 58.90625 
Q 16.5 51.421875 16.5 36.375 
Q 16.5 21.390625 20.328125 13.890625 
Q 24.171875 6.390625 31.78125 6.390625 
Q 39.453125 6.390625 43.28125 13.890625 
Q 47.125 21.390625 47.125 36.375 
Q 47.125 51.421875 43.28125 58.90625 
Q 39.453125 66.40625 31.78125 66.40625 
z
M 31.78125 74.21875 
Q 44.046875 74.21875 50.515625 64.515625 
Q 56.984375 54.828125 56.984375 36.375 
Q 56.984375 17.96875 50.515625 8.265625 
Q 44.046875 -1.421875 31.78125 -1.421875 
Q 19.53125 -1.421875 13.0625 8.265625 
Q 6.59375 17.96875 6.59375 36.375 
Q 6.59375 54.828125 13.0625 64.515625 
Q 19.53125 74.21875 31.78125 74.21875 
z
" id="DejaVuSans-30"/>
      </defs>
      <g transform="translate(131.73638 320.44225)scale(0.2 -0.2)">
       <use xlink:href="#DejaVuSans-30"/>
      </g>
     </g>
    </g>
    <g id="xtick_2">
     <g id="line2d_6">
      <path clip-path="url(#p2c2658146e)" d="M 234.09888 298.245375 
L 234.09888 32.133375 
" style="fill:none;stroke:#b0b0b0;stroke-linecap:square;stroke-width:0.8;"/>
     </g>
     <g id="line2d_7">
      <g>
       <use style="stroke:#000000;stroke-width:0.8;" x="234.09888" xlink:href="#mb19c37e33a" y="298.245375"/>
      </g>
     </g>
     <g id="text_2">
      <!-- 1 -->
      <defs>
       <path d="M 12.40625 8.296875 
L 28.515625 8.296875 
L 28.515625 63.921875 
L 10.984375 60.40625 
L 10.984375 69.390625 
L 28.421875 72.90625 
L 38.28125 72.90625 
L 38.28125 8.296875 
L 54.390625 8.296875 
L 54.390625 0 
L 12.40625 0 
z
" id="DejaVuSans-31"/>
      </defs>
      <g transform="translate(227.73638 320.44225)scale(0.2 -0.2)">
       <use xlink:href="#DejaVuSans-31"/>
      </g>
     </g>
    </g>
    <g id="xtick_3">
     <g id="line2d_8">
      <path clip-path="url(#p2c2658146e)" d="M 330.09888 298.245375 
L 330.09888 32.133375 
" style="fill:none;stroke:#b0b0b0;stroke-linecap:square;stroke-width:0.8;"/>
     </g>
     <g id="line2d_9">
      <g>
       <use style="stroke:#000000;stroke-width:0.8;" x="330.09888" xlink:href="#mb19c37e33a" y="298.245375"/>
      </g>
     </g>
     <g id="text_3">
      <!-- 2 -->
      <defs>
       <path d="M 19.1875 8.296875 
L 53.609375 8.296875 
L 53.609375 0 
L 7.328125 0 
L 7.328125 8.296875 
Q 12.9375 14.109375 22.625 23.890625 
Q 32.328125 33.6875 34.8125 36.53125 
Q 39.546875 41.84375 41.421875 45.53125 
Q 43.3125 49.21875 43.3125 52.78125 
Q 43.3125 58.59375 39.234375 62.25 
Q 35.15625 65.921875 28.609375 65.921875 
Q 23.96875 65.921875 18.8125 64.3125 
Q 13.671875 62.703125 7.8125 59.421875 
L 7.8125 69.390625 
Q 13.765625 71.78125 18.9375 73 
Q 24.125 74.21875 28.421875 74.21875 
Q 39.75 74.21875 46.484375 68.546875 
Q 53.21875 62.890625 53.21875 53.421875 
Q 53.21875 48.921875 51.53125 44.890625 
Q 49.859375 40.875 45.40625 35.40625 
Q 44.1875 33.984375 37.640625 27.21875 
Q 31.109375 20.453125 19.1875 8.296875 
z
" id="DejaVuSans-32"/>
      </defs>
      <g transform="translate(323.73638 320.44225)scale(0.2 -0.2)">
       <use xlink:href="#DejaVuSans-32"/>
      </g>
     </g>
    </g>
    <g id="xtick_4">
     <g id="line2d_10">
      <path clip-path="url(#p2c2658146e)" d="M 426.09888 298.245375 
L 426.09888 32.133375 
" style="fill:none;stroke:#b0b0b0;stroke-linecap:square;stroke-width:0.8;"/>
     </g>
     <g id="line2d_11">
      <g>
       <use style="stroke:#000000;stroke-width:0.8;" x="426.09888" xlink:href="#mb19c37e33a" y="298.245375"/>
      </g>
     </g>
     <g id="text_4">
      <!-- 3 -->
      <defs>
       <path d="M 40.578125 39.3125 
Q 47.65625 37.796875 51.625 33 
Q 55.609375 28.21875 55.609375 21.1875 
Q 55.609375 10.40625 48.1875 4.484375 
Q 40.765625 -1.421875 27.09375 -1.421875 
Q 22.515625 -1.421875 17.65625 -0.515625 
Q 12.796875 0.390625 7.625 2.203125 
L 7.625 11.71875 
Q 11.71875 9.328125 16.59375 8.109375 
Q 21.484375 6.890625 26.8125 6.890625 
Q 36.078125 6.890625 40.9375 10.546875 
Q 45.796875 14.203125 45.796875 21.1875 
Q 45.796875 27.640625 41.28125 31.265625 
Q 36.765625 34.90625 28.71875 34.90625 
L 20.21875 34.90625 
L 20.21875 43.015625 
L 29.109375 43.015625 
Q 36.375 43.015625 40.234375 45.921875 
Q 44.09375 48.828125 44.09375 54.296875 
Q 44.09375 59.90625 40.109375 62.90625 
Q 36.140625 65.921875 28.71875 65.921875 
Q 24.65625 65.921875 20.015625 65.03125 
Q 15.375 64.15625 9.8125 62.3125 
L 9.8125 71.09375 
Q 15.4375 72.65625 20.34375 73.4375 
Q 25.25 74.21875 29.59375 74.21875 
Q 40.828125 74.21875 47.359375 69.109375 
Q 53.90625 64.015625 53.90625 55.328125 
Q 53.90625 49.265625 50.4375 45.09375 
Q 46.96875 40.921875 40.578125 39.3125 
z
" id="DejaVuSans-33"/>
      </defs>
      <g transform="translate(419.73638 320.44225)scale(0.2 -0.2)">
       <use xlink:href="#DejaVuSans-33"/>
      </g>
     </g>
    </g>
    <g id="xtick_5">
     <g id="line2d_12">
      <defs>
       <path d="M 0 0 
L 0 2 
" id="m5f4ab71c8f" style="stroke:#000000;stroke-width:0.6;"/>
      </defs>
      <g>
       <use style="stroke:#000000;stroke-width:0.6;" x="166.997759" xlink:href="#m5f4ab71c8f" y="298.245375"/>
      </g>
     </g>
    </g>
    <g id="xtick_6">
     <g id="line2d_13">
      <g>
       <use style="stroke:#000000;stroke-width:0.6;" x="183.90252" xlink:href="#m5f4ab71c8f" y="298.245375"/>
      </g>
     </g>
    </g>
    <g id="xtick_7">
     <g id="line2d_14">
      <g>
       <use style="stroke:#000000;stroke-width:0.6;" x="195.896639" xlink:href="#m5f4ab71c8f" y="298.245375"/>
      </g>
     </g>
    </g>
    <g id="xtick_8">
     <g id="line2d_15">
      <g>
       <use style="stroke:#000000;stroke-width:0.6;" x="205.2" xlink:href="#m5f4ab71c8f" y="298.245375"/>
      </g>
     </g>
    </g>
    <g id="xtick_9">
     <g id="line2d_16">
      <g>
       <use style="stroke:#000000;stroke-width:0.6;" x="212.8014" xlink:href="#m5f4ab71c8f" y="298.245375"/>
      </g>
     </g>
    </g>
    <g id="xtick_10">
     <g id="line2d_17">
      <g>
       <use style="stroke:#000000;stroke-width:0.6;" x="219.228291" xlink:href="#m5f4ab71c8f" y="298.245375"/>
      </g>
     </g>
    </g>
    <g id="xtick_11">
     <g id="line2d_18">
      <g>
       <use style="stroke:#000000;stroke-width:0.6;" x="224.795518" xlink:href="#m5f4ab71c8f" y="298.245375"/>
      </g>
     </g>
    </g>
    <g id="xtick_12">
     <g id="line2d_19">
      <g>
       <use style="stroke:#000000;stroke-width:0.6;" x="229.70616" xlink:href="#m5f4ab71c8f" y="298.245375"/>
      </g>
     </g>
    </g>
    <g id="xtick_13">
     <g id="line2d_20">
      <g>
       <use style="stroke:#000000;stroke-width:0.6;" x="262.997759" xlink:href="#m5f4ab71c8f" y="298.245375"/>
      </g>
     </g>
    </g>
    <g id="xtick_14">
     <g id="line2d_21">
      <g>
       <use style="stroke:#000000;stroke-width:0.6;" x="279.90252" xlink:href="#m5f4ab71c8f" y="298.245375"/>
      </g>
     </g>
    </g>
    <g id="xtick_15">
     <g id="line2d_22">
      <g>
       <use style="stroke:#000000;stroke-width:0.6;" x="291.896639" xlink:href="#m5f4ab71c8f" y="298.245375"/>
      </g>
     </g>
    </g>
    <g id="xtick_16">
     <g id="line2d_23">
      <g>
       <use style="stroke:#000000;stroke-width:0.6;" x="301.2" xlink:href="#m5f4ab71c8f" y="298.245375"/>
      </g>
     </g>
    </g>
    <g id="xtick_17">
     <g id="line2d_24">
      <g>
       <use style="stroke:#000000;stroke-width:0.6;" x="308.8014" xlink:href="#m5f4ab71c8f" y="298.245375"/>
      </g>
     </g>
    </g>
    <g id="xtick_18">
     <g id="line2d_25">
      <g>
       <use style="stroke:#000000;stroke-width:0.6;" x="315.228291" xlink:href="#m5f4ab71c8f" y="298.245375"/>
      </g>
     </g>
    </g>
    <g id="xtick_19">
     <g id="line2d_26">
      <g>
       <use style="stroke:#000000;stroke-width:0.6;" x="320.795518" xlink:href="#m5f4ab71c8f" y="298.245375"/>
      </g>
     </g>
    </g>
    <g id="xtick_20">
     <g id="line2d_27">
      <g>
       <use style="stroke:#000000;stroke-width:0.6;" x="325.70616" xlink:href="#m5f4ab71c8f" y="298.245375"/>
      </g>
     </g>
    </g>
    <g id="xtick_21">
     <g id="line2d_28">
      <g>
       <use style="stroke:#000000;stroke-width:0.6;" x="358.997759" xlink:href="#m5f4ab71c8f" y="298.245375"/>
      </g>
     </g>
    </g>
    <g id="xtick_22">
     <g id="line2d_29">
      <g>
       <use style="stroke:#000000;stroke-width:0.6;" x="375.90252" xlink:href="#m5f4ab71c8f" y="298.245375"/>
      </g>
     </g>
    </g>
    <g id="xtick_23">
     <g id="line2d_30">
      <g>
       <use style="stroke:#000000;stroke-width:0.6;" x="387.896639" xlink:href="#m5f4ab71c8f" y="298.245375"/>
      </g>
     </g>
    </g>
    <g id="xtick_24">
     <g id="line2d_31">
      <g>
       <use style="stroke:#000000;stroke-width:0.6;" x="397.2" xlink:href="#m5f4ab71c8f" y="298.245375"/>
      </g>
     </g>
    </g>
    <g id="xtick_25">
     <g id="line2d_32">
      <g>
       <use style="stroke:#000000;stroke-width:0.6;" x="404.8014" xlink:href="#m5f4ab71c8f" y="298.245375"/>
      </g>
     </g>
    </g>
    <g id="xtick_26">
     <g id="line2d_33">
      <g>
       <use style="stroke:#000000;stroke-width:0.6;" x="411.228291" xlink:href="#m5f4ab71c8f" y="298.245375"/>
      </g>
     </g>
    </g>
    <g id="xtick_27">
     <g id="line2d_34">
      <g>
       <use style="stroke:#000000;stroke-width:0.6;" x="416.795518" xlink:href="#m5f4ab71c8f" y="298.245375"/>
      </g>
     </g>
    </g>
    <g id="xtick_28">
     <g id="line2d_35">
      <g>
       <use style="stroke:#000000;stroke-width:0.6;" x="421.70616" xlink:href="#m5f4ab71c8f" y="298.245375"/>
      </g>
     </g>
    </g>
    <g id="xtick_29">
     <g id="line2d_36">
      <g>
       <use style="stroke:#000000;stroke-width:0.6;" x="454.997759" xlink:href="#m5f4ab71c8f" y="298.245375"/>
      </g>
     </g>
    </g>
    <g id="xtick_30">
     <g id="line2d_37">
      <g>
       <use style="stroke:#000000;stroke-width:0.6;" x="471.90252" xlink:href="#m5f4ab71c8f" y="298.245375"/>
      </g>
     </g>
    </g>
    <g id="xtick_31">
     <g id="line2d_38">
      <g>
       <use style="stroke:#000000;stroke-width:0.6;" x="483.896639" xlink:href="#m5f4ab71c8f" y="298.245375"/>
      </g>
     </g>
    </g>
    <g id="xtick_32">
     <g id="line2d_39">
      <g>
       <use style="stroke:#000000;stroke-width:0.6;" x="493.2" xlink:href="#m5f4ab71c8f" y="298.245375"/>
      </g>
     </g>
    </g>
    <g id="text_5">
     <!-- log10 of (# f-evals / dimension) -->
     <defs>
      <path d="M 9.421875 75.984375 
L 18.40625 75.984375 
L 18.40625 0 
L 9.421875 0 
z
" id="DejaVuSans-6c"/>
      <path d="M 30.609375 48.390625 
Q 23.390625 48.390625 19.1875 42.75 
Q 14.984375 37.109375 14.984375 27.296875 
Q 14.984375 17.484375 19.15625 11.84375 
Q 23.34375 6.203125 30.609375 6.203125 
Q 37.796875 6.203125 41.984375 11.859375 
Q 46.1875 17.53125 46.1875 27.296875 
Q 46.1875 37.015625 41.984375 42.703125 
Q 37.796875 48.390625 30.609375 48.390625 
z
M 30.609375 56 
Q 42.328125 56 49.015625 48.375 
Q 55.71875 40.765625 55.71875 27.296875 
Q 55.71875 13.875 49.015625 6.21875 
Q 42.328125 -1.421875 30.609375 -1.421875 
Q 18.84375 -1.421875 12.171875 6.21875 
Q 5.515625 13.875 5.515625 27.296875 
Q 5.515625 40.765625 12.171875 48.375 
Q 18.84375 56 30.609375 56 
z
" id="DejaVuSans-6f"/>
      <path d="M 45.40625 27.984375 
Q 45.40625 37.75 41.375 43.109375 
Q 37.359375 48.484375 30.078125 48.484375 
Q 22.859375 48.484375 18.828125 43.109375 
Q 14.796875 37.75 14.796875 27.984375 
Q 14.796875 18.265625 18.828125 12.890625 
Q 22.859375 7.515625 30.078125 7.515625 
Q 37.359375 7.515625 41.375 12.890625 
Q 45.40625 18.265625 45.40625 27.984375 
z
M 54.390625 6.78125 
Q 54.390625 -7.171875 48.1875 -13.984375 
Q 42 -20.796875 29.203125 -20.796875 
Q 24.46875 -20.796875 20.265625 -20.09375 
Q 16.0625 -19.390625 12.109375 -17.921875 
L 12.109375 -9.1875 
Q 16.0625 -11.328125 19.921875 -12.34375 
Q 23.78125 -13.375 27.78125 -13.375 
Q 36.625 -13.375 41.015625 -8.765625 
Q 45.40625 -4.15625 45.40625 5.171875 
L 45.40625 9.625 
Q 42.625 4.78125 38.28125 2.390625 
Q 33.9375 0 27.875 0 
Q 17.828125 0 11.671875 7.65625 
Q 5.515625 15.328125 5.515625 27.984375 
Q 5.515625 40.671875 11.671875 48.328125 
Q 17.828125 56 27.875 56 
Q 33.9375 56 38.28125 53.609375 
Q 42.625 51.21875 45.40625 46.390625 
L 45.40625 54.6875 
L 54.390625 54.6875 
z
" id="DejaVuSans-67"/>
      <path id="DejaVuSans-20"/>
      <path d="M 37.109375 75.984375 
L 37.109375 68.5 
L 28.515625 68.5 
Q 23.6875 68.5 21.796875 66.546875 
Q 19.921875 64.59375 19.921875 59.515625 
L 19.921875 54.6875 
L 34.71875 54.6875 
L 34.71875 47.703125 
L 19.921875 47.703125 
L 19.921875 0 
L 10.890625 0 
L 10.890625 47.703125 
L 2.296875 47.703125 
L 2.296875 54.6875 
L 10.890625 54.6875 
L 10.890625 58.5 
Q 10.890625 67.625 15.140625 71.796875 
Q 19.390625 75.984375 28.609375 75.984375 
z
" id="DejaVuSans-66"/>
      <path d="M 31 75.875 
Q 24.46875 64.65625 21.28125 53.65625 
Q 18.109375 42.671875 18.109375 31.390625 
Q 18.109375 20.125 21.3125 9.0625 
Q 24.515625 -2 31 -13.1875 
L 23.1875 -13.1875 
Q 15.875 -1.703125 12.234375 9.375 
Q 8.59375 20.453125 8.59375 31.390625 
Q 8.59375 42.28125 12.203125 53.3125 
Q 15.828125 64.359375 23.1875 75.875 
z
" id="DejaVuSans-28"/>
      <path d="M 51.125 44 
L 36.921875 44 
L 32.8125 27.6875 
L 47.125 27.6875 
z
M 43.796875 71.78125 
L 38.71875 51.515625 
L 52.984375 51.515625 
L 58.109375 71.78125 
L 65.921875 71.78125 
L 60.890625 51.515625 
L 76.125 51.515625 
L 76.125 44 
L 58.984375 44 
L 54.984375 27.6875 
L 70.515625 27.6875 
L 70.515625 20.21875 
L 53.078125 20.21875 
L 48 0 
L 40.1875 0 
L 45.21875 20.21875 
L 30.90625 20.21875 
L 25.875 0 
L 18.015625 0 
L 23.09375 20.21875 
L 7.71875 20.21875 
L 7.71875 27.6875 
L 24.90625 27.6875 
L 29 44 
L 13.28125 44 
L 13.28125 51.515625 
L 30.90625 51.515625 
L 35.890625 71.78125 
z
" id="DejaVuSans-23"/>
      <path d="M 4.890625 31.390625 
L 31.203125 31.390625 
L 31.203125 23.390625 
L 4.890625 23.390625 
z
" id="DejaVuSans-2d"/>
      <path d="M 56.203125 29.59375 
L 56.203125 25.203125 
L 14.890625 25.203125 
Q 15.484375 15.921875 20.484375 11.0625 
Q 25.484375 6.203125 34.421875 6.203125 
Q 39.59375 6.203125 44.453125 7.46875 
Q 49.3125 8.734375 54.109375 11.28125 
L 54.109375 2.78125 
Q 49.265625 0.734375 44.1875 -0.34375 
Q 39.109375 -1.421875 33.890625 -1.421875 
Q 20.796875 -1.421875 13.15625 6.1875 
Q 5.515625 13.8125 5.515625 26.8125 
Q 5.515625 40.234375 12.765625 48.109375 
Q 20.015625 56 32.328125 56 
Q 43.359375 56 49.78125 48.890625 
Q 56.203125 41.796875 56.203125 29.59375 
z
M 47.21875 32.234375 
Q 47.125 39.59375 43.09375 43.984375 
Q 39.0625 48.390625 32.421875 48.390625 
Q 24.90625 48.390625 20.390625 44.140625 
Q 15.875 39.890625 15.1875 32.171875 
z
" id="DejaVuSans-65"/>
      <path d="M 2.984375 54.6875 
L 12.5 54.6875 
L 29.59375 8.796875 
L 46.6875 54.6875 
L 56.203125 54.6875 
L 35.6875 0 
L 23.484375 0 
z
" id="DejaVuSans-76"/>
      <path d="M 34.28125 27.484375 
Q 23.390625 27.484375 19.1875 25 
Q 14.984375 22.515625 14.984375 16.5 
Q 14.984375 11.71875 18.140625 8.90625 
Q 21.296875 6.109375 26.703125 6.109375 
Q 34.1875 6.109375 38.703125 11.40625 
Q 43.21875 16.703125 43.21875 25.484375 
L 43.21875 27.484375 
z
M 52.203125 31.203125 
L 52.203125 0 
L 43.21875 0 
L 43.21875 8.296875 
Q 40.140625 3.328125 35.546875 0.953125 
Q 30.953125 -1.421875 24.3125 -1.421875 
Q 15.921875 -1.421875 10.953125 3.296875 
Q 6 8.015625 6 15.921875 
Q 6 25.140625 12.171875 29.828125 
Q 18.359375 34.515625 30.609375 34.515625 
L 43.21875 34.515625 
L 43.21875 35.40625 
Q 43.21875 41.609375 39.140625 45 
Q 35.0625 48.390625 27.6875 48.390625 
Q 23 48.390625 18.546875 47.265625 
Q 14.109375 46.140625 10.015625 43.890625 
L 10.015625 52.203125 
Q 14.9375 54.109375 19.578125 55.046875 
Q 24.21875 56 28.609375 56 
Q 40.484375 56 46.34375 49.84375 
Q 52.203125 43.703125 52.203125 31.203125 
z
" id="DejaVuSans-61"/>
      <path d="M 44.28125 53.078125 
L 44.28125 44.578125 
Q 40.484375 46.53125 36.375 47.5 
Q 32.28125 48.484375 27.875 48.484375 
Q 21.1875 48.484375 17.84375 46.4375 
Q 14.5 44.390625 14.5 40.28125 
Q 14.5 37.15625 16.890625 35.375 
Q 19.28125 33.59375 26.515625 31.984375 
L 29.59375 31.296875 
Q 39.15625 29.25 43.1875 25.515625 
Q 47.21875 21.78125 47.21875 15.09375 
Q 47.21875 7.46875 41.1875 3.015625 
Q 35.15625 -1.421875 24.609375 -1.421875 
Q 20.21875 -1.421875 15.453125 -0.5625 
Q 10.6875 0.296875 5.421875 2 
L 5.421875 11.28125 
Q 10.40625 8.6875 15.234375 7.390625 
Q 20.0625 6.109375 24.8125 6.109375 
Q 31.15625 6.109375 34.5625 8.28125 
Q 37.984375 10.453125 37.984375 14.40625 
Q 37.984375 18.0625 35.515625 20.015625 
Q 33.0625 21.96875 24.703125 23.78125 
L 21.578125 24.515625 
Q 13.234375 26.265625 9.515625 29.90625 
Q 5.8125 33.546875 5.8125 39.890625 
Q 5.8125 47.609375 11.28125 51.796875 
Q 16.75 56 26.8125 56 
Q 31.78125 56 36.171875 55.265625 
Q 40.578125 54.546875 44.28125 53.078125 
z
" id="DejaVuSans-73"/>
      <path d="M 25.390625 72.90625 
L 33.6875 72.90625 
L 8.296875 -9.28125 
L 0 -9.28125 
z
" id="DejaVuSans-2f"/>
      <path d="M 45.40625 46.390625 
L 45.40625 75.984375 
L 54.390625 75.984375 
L 54.390625 0 
L 45.40625 0 
L 45.40625 8.203125 
Q 42.578125 3.328125 38.25 0.953125 
Q 33.9375 -1.421875 27.875 -1.421875 
Q 17.96875 -1.421875 11.734375 6.484375 
Q 5.515625 14.40625 5.515625 27.296875 
Q 5.515625 40.1875 11.734375 48.09375 
Q 17.96875 56 27.875 56 
Q 33.9375 56 38.25 53.625 
Q 42.578125 51.265625 45.40625 46.390625 
z
M 14.796875 27.296875 
Q 14.796875 17.390625 18.875 11.75 
Q 22.953125 6.109375 30.078125 6.109375 
Q 37.203125 6.109375 41.296875 11.75 
Q 45.40625 17.390625 45.40625 27.296875 
Q 45.40625 37.203125 41.296875 42.84375 
Q 37.203125 48.484375 30.078125 48.484375 
Q 22.953125 48.484375 18.875 42.84375 
Q 14.796875 37.203125 14.796875 27.296875 
z
" id="DejaVuSans-64"/>
      <path d="M 9.421875 54.6875 
L 18.40625 54.6875 
L 18.40625 0 
L 9.421875 0 
z
M 9.421875 75.984375 
L 18.40625 75.984375 
L 18.40625 64.59375 
L 9.421875 64.59375 
z
" id="DejaVuSans-69"/>
      <path d="M 52 44.1875 
Q 55.375 50.25 60.0625 53.125 
Q 64.75 56 71.09375 56 
Q 79.640625 56 84.28125 50.015625 
Q 88.921875 44.046875 88.921875 33.015625 
L 88.921875 0 
L 79.890625 0 
L 79.890625 32.71875 
Q 79.890625 40.578125 77.09375 44.375 
Q 74.3125 48.1875 68.609375 48.1875 
Q 61.625 48.1875 57.5625 43.546875 
Q 53.515625 38.921875 53.515625 30.90625 
L 53.515625 0 
L 44.484375 0 
L 44.484375 32.71875 
Q 44.484375 40.625 41.703125 44.40625 
Q 38.921875 48.1875 33.109375 48.1875 
Q 26.21875 48.1875 22.15625 43.53125 
Q 18.109375 38.875 18.109375 30.90625 
L 18.109375 0 
L 9.078125 0 
L 9.078125 54.6875 
L 18.109375 54.6875 
L 18.109375 46.1875 
Q 21.1875 51.21875 25.484375 53.609375 
Q 29.78125 56 35.6875 56 
Q 41.65625 56 45.828125 52.96875 
Q 50 49.953125 52 44.1875 
z
" id="DejaVuSans-6d"/>
      <path d="M 54.890625 33.015625 
L 54.890625 0 
L 45.90625 0 
L 45.90625 32.71875 
Q 45.90625 40.484375 42.875 44.328125 
Q 39.84375 48.1875 33.796875 48.1875 
Q 26.515625 48.1875 22.3125 43.546875 
Q 18.109375 38.921875 18.109375 30.90625 
L 18.109375 0 
L 9.078125 0 
L 9.078125 54.6875 
L 18.109375 54.6875 
L 18.109375 46.1875 
Q 21.34375 51.125 25.703125 53.5625 
Q 30.078125 56 35.796875 56 
Q 45.21875 56 50.046875 50.171875 
Q 54.890625 44.34375 54.890625 33.015625 
z
" id="DejaVuSans-6e"/>
      <path d="M 8.015625 75.875 
L 15.828125 75.875 
Q 23.140625 64.359375 26.78125 53.3125 
Q 30.421875 42.28125 30.421875 31.390625 
Q 30.421875 20.453125 26.78125 9.375 
Q 23.140625 -1.703125 15.828125 -13.1875 
L 8.015625 -13.1875 
Q 14.5 -2 17.703125 9.0625 
Q 20.90625 20.125 20.90625 31.390625 
Q 20.90625 42.671875 17.703125 53.65625 
Q 14.5 64.65625 8.015625 75.875 
z
" id="DejaVuSans-29"/>
     </defs>
     <g transform="translate(174.314036 342.278812)scale(0.18 -0.18)">
      <use xlink:href="#DejaVuSans-6c"/>
      <use x="27.783203" xlink:href="#DejaVuSans-6f"/>
      <use x="88.964844" xlink:href="#DejaVuSans-67"/>
      <use x="152.441406" xlink:href="#DejaVuSans-31"/>
      <use x="216.064453" xlink:href="#DejaVuSans-30"/>
      <use x="279.6875" xlink:href="#DejaVuSans-20"/>
      <use x="311.474609" xlink:href="#DejaVuSans-6f"/>
      <use x="372.65625" xlink:href="#DejaVuSans-66"/>
      <use x="407.861328" xlink:href="#DejaVuSans-20"/>
      <use x="439.648438" xlink:href="#DejaVuSans-28"/>
      <use x="478.662109" xlink:href="#DejaVuSans-23"/>
      <use x="562.451172" xlink:href="#DejaVuSans-20"/>
      <use x="594.238281" xlink:href="#DejaVuSans-66"/>
      <use x="629.365234" xlink:href="#DejaVuSans-2d"/>
      <use x="665.449219" xlink:href="#DejaVuSans-65"/>
      <use x="726.972656" xlink:href="#DejaVuSans-76"/>
      <use x="786.152344" xlink:href="#DejaVuSans-61"/>
      <use x="847.431641" xlink:href="#DejaVuSans-6c"/>
      <use x="875.214844" xlink:href="#DejaVuSans-73"/>
      <use x="927.314453" xlink:href="#DejaVuSans-20"/>
      <use x="959.101562" xlink:href="#DejaVuSans-2f"/>
      <use x="992.792969" xlink:href="#DejaVuSans-20"/>
      <use x="1024.580078" xlink:href="#DejaVuSans-64"/>
      <use x="1088.056641" xlink:href="#DejaVuSans-69"/>
      <use x="1115.839844" xlink:href="#DejaVuSans-6d"/>
      <use x="1213.251953" xlink:href="#DejaVuSans-65"/>
      <use x="1274.775391" xlink:href="#DejaVuSans-6e"/>
      <use x="1338.154297" xlink:href="#DejaVuSans-73"/>
      <use x="1390.253906" xlink:href="#DejaVuSans-69"/>
      <use x="1418.037109" xlink:href="#DejaVuSans-6f"/>
      <use x="1479.21875" xlink:href="#DejaVuSans-6e"/>
      <use x="1542.597656" xlink:href="#DejaVuSans-29"/>
     </g>
    </g>
   </g>
   <g id="matplotlib.axis_2">
    <g id="ytick_1">
     <g id="line2d_40">
      <path clip-path="url(#p2c2658146e)" d="M 138.09888 298.245375 
L 495.21888 298.245375 
" style="fill:none;stroke:#b0b0b0;stroke-linecap:square;stroke-width:0.8;"/>
     </g>
     <g id="line2d_41">
      <defs>
       <path d="M 0 0 
L -3.5 0 
" id="md92ce9df08" style="stroke:#000000;stroke-width:0.8;"/>
      </defs>
      <g>
       <use style="stroke:#000000;stroke-width:0.8;" x="138.09888" xlink:href="#md92ce9df08" y="298.245375"/>
      </g>
     </g>
     <g id="text_6">
      <!-- 0.0 -->
      <defs>
       <path d="M 10.6875 12.40625 
L 21 12.40625 
L 21 0 
L 10.6875 0 
z
" id="DejaVuSans-2e"/>
      </defs>
      <g transform="translate(99.29263 305.843812)scale(0.2 -0.2)">
       <use xlink:href="#DejaVuSans-30"/>
       <use x="63.623047" xlink:href="#DejaVuSans-2e"/>
       <use x="95.410156" xlink:href="#DejaVuSans-30"/>
      </g>
     </g>
    </g>
    <g id="ytick_2">
     <g id="line2d_42">
      <path clip-path="url(#p2c2658146e)" d="M 138.09888 245.549929 
L 495.21888 245.549929 
" style="fill:none;stroke:#b0b0b0;stroke-linecap:square;stroke-width:0.8;"/>
     </g>
     <g id="line2d_43">
      <g>
       <use style="stroke:#000000;stroke-width:0.8;" x="138.09888" xlink:href="#md92ce9df08" y="245.549929"/>
      </g>
     </g>
     <g id="text_7">
      <!-- 0.2 -->
      <g transform="translate(99.29263 253.148367)scale(0.2 -0.2)">
       <use xlink:href="#DejaVuSans-30"/>
       <use x="63.623047" xlink:href="#DejaVuSans-2e"/>
       <use x="95.410156" xlink:href="#DejaVuSans-32"/>
      </g>
     </g>
    </g>
    <g id="ytick_3">
     <g id="line2d_44">
      <path clip-path="url(#p2c2658146e)" d="M 138.09888 192.854484 
L 495.21888 192.854484 
" style="fill:none;stroke:#b0b0b0;stroke-linecap:square;stroke-width:0.8;"/>
     </g>
     <g id="line2d_45">
      <g>
       <use style="stroke:#000000;stroke-width:0.8;" x="138.09888" xlink:href="#md92ce9df08" y="192.854484"/>
      </g>
     </g>
     <g id="text_8">
      <!-- 0.4 -->
      <defs>
       <path d="M 37.796875 64.3125 
L 12.890625 25.390625 
L 37.796875 25.390625 
z
M 35.203125 72.90625 
L 47.609375 72.90625 
L 47.609375 25.390625 
L 58.015625 25.390625 
L 58.015625 17.1875 
L 47.609375 17.1875 
L 47.609375 0 
L 37.796875 0 
L 37.796875 17.1875 
L 4.890625 17.1875 
L 4.890625 26.703125 
z
" id="DejaVuSans-34"/>
      </defs>
      <g transform="translate(99.29263 200.452921)scale(0.2 -0.2)">
       <use xlink:href="#DejaVuSans-30"/>
       <use x="63.623047" xlink:href="#DejaVuSans-2e"/>
       <use x="95.410156" xlink:href="#DejaVuSans-34"/>
      </g>
     </g>
    </g>
    <g id="ytick_4">
     <g id="line2d_46">
      <path clip-path="url(#p2c2658146e)" d="M 138.09888 140.159038 
L 495.21888 140.159038 
" style="fill:none;stroke:#b0b0b0;stroke-linecap:square;stroke-width:0.8;"/>
     </g>
     <g id="line2d_47">
      <g>
       <use style="stroke:#000000;stroke-width:0.8;" x="138.09888" xlink:href="#md92ce9df08" y="140.159038"/>
      </g>
     </g>
     <g id="text_9">
      <!-- 0.6 -->
      <defs>
       <path d="M 33.015625 40.375 
Q 26.375 40.375 22.484375 35.828125 
Q 18.609375 31.296875 18.609375 23.390625 
Q 18.609375 15.53125 22.484375 10.953125 
Q 26.375 6.390625 33.015625 6.390625 
Q 39.65625 6.390625 43.53125 10.953125 
Q 47.40625 15.53125 47.40625 23.390625 
Q 47.40625 31.296875 43.53125 35.828125 
Q 39.65625 40.375 33.015625 40.375 
z
M 52.59375 71.296875 
L 52.59375 62.3125 
Q 48.875 64.0625 45.09375 64.984375 
Q 41.3125 65.921875 37.59375 65.921875 
Q 27.828125 65.921875 22.671875 59.328125 
Q 17.53125 52.734375 16.796875 39.40625 
Q 19.671875 43.65625 24.015625 45.921875 
Q 28.375 48.1875 33.59375 48.1875 
Q 44.578125 48.1875 50.953125 41.515625 
Q 57.328125 34.859375 57.328125 23.390625 
Q 57.328125 12.15625 50.6875 5.359375 
Q 44.046875 -1.421875 33.015625 -1.421875 
Q 20.359375 -1.421875 13.671875 8.265625 
Q 6.984375 17.96875 6.984375 36.375 
Q 6.984375 53.65625 15.1875 63.9375 
Q 23.390625 74.21875 37.203125 74.21875 
Q 40.921875 74.21875 44.703125 73.484375 
Q 48.484375 72.75 52.59375 71.296875 
z
" id="DejaVuSans-36"/>
      </defs>
      <g transform="translate(99.29263 147.757476)scale(0.2 -0.2)">
       <use xlink:href="#DejaVuSans-30"/>
       <use x="63.623047" xlink:href="#DejaVuSans-2e"/>
       <use x="95.410156" xlink:href="#DejaVuSans-36"/>
      </g>
     </g>
    </g>
    <g id="ytick_5">
     <g id="line2d_48">
      <path clip-path="url(#p2c2658146e)" d="M 138.09888 87.463593 
L 495.21888 87.463593 
" style="fill:none;stroke:#b0b0b0;stroke-linecap:square;stroke-width:0.8;"/>
     </g>
     <g id="line2d_49">
      <g>
       <use style="stroke:#000000;stroke-width:0.8;" x="138.09888" xlink:href="#md92ce9df08" y="87.463593"/>
      </g>
     </g>
     <g id="text_10">
      <!-- 0.8 -->
      <defs>
       <path d="M 31.78125 34.625 
Q 24.75 34.625 20.71875 30.859375 
Q 16.703125 27.09375 16.703125 20.515625 
Q 16.703125 13.921875 20.71875 10.15625 
Q 24.75 6.390625 31.78125 6.390625 
Q 38.8125 6.390625 42.859375 10.171875 
Q 46.921875 13.96875 46.921875 20.515625 
Q 46.921875 27.09375 42.890625 30.859375 
Q 38.875 34.625 31.78125 34.625 
z
M 21.921875 38.8125 
Q 15.578125 40.375 12.03125 44.71875 
Q 8.5 49.078125 8.5 55.328125 
Q 8.5 64.0625 14.71875 69.140625 
Q 20.953125 74.21875 31.78125 74.21875 
Q 42.671875 74.21875 48.875 69.140625 
Q 55.078125 64.0625 55.078125 55.328125 
Q 55.078125 49.078125 51.53125 44.71875 
Q 48 40.375 41.703125 38.8125 
Q 48.828125 37.15625 52.796875 32.3125 
Q 56.78125 27.484375 56.78125 20.515625 
Q 56.78125 9.90625 50.3125 4.234375 
Q 43.84375 -1.421875 31.78125 -1.421875 
Q 19.734375 -1.421875 13.25 4.234375 
Q 6.78125 9.90625 6.78125 20.515625 
Q 6.78125 27.484375 10.78125 32.3125 
Q 14.796875 37.15625 21.921875 38.8125 
z
M 18.3125 54.390625 
Q 18.3125 48.734375 21.84375 45.5625 
Q 25.390625 42.390625 31.78125 42.390625 
Q 38.140625 42.390625 41.71875 45.5625 
Q 45.3125 48.734375 45.3125 54.390625 
Q 45.3125 60.0625 41.71875 63.234375 
Q 38.140625 66.40625 31.78125 66.40625 
Q 25.390625 66.40625 21.84375 63.234375 
Q 18.3125 60.0625 18.3125 54.390625 
z
" id="DejaVuSans-38"/>
      </defs>
      <g transform="translate(99.29263 95.06203)scale(0.2 -0.2)">
       <use xlink:href="#DejaVuSans-30"/>
       <use x="63.623047" xlink:href="#DejaVuSans-2e"/>
       <use x="95.410156" xlink:href="#DejaVuSans-38"/>
      </g>
     </g>
    </g>
    <g id="ytick_6">
     <g id="line2d_50">
      <path clip-path="url(#p2c2658146e)" d="M 138.09888 34.768147 
L 495.21888 34.768147 
" style="fill:none;stroke:#b0b0b0;stroke-linecap:square;stroke-width:0.8;"/>
     </g>
     <g id="line2d_51">
      <g>
       <use style="stroke:#000000;stroke-width:0.8;" x="138.09888" xlink:href="#md92ce9df08" y="34.768147"/>
      </g>
     </g>
     <g id="text_11">
      <!-- 1.0 -->
      <g transform="translate(99.29263 42.366585)scale(0.2 -0.2)">
       <use xlink:href="#DejaVuSans-31"/>
       <use x="63.623047" xlink:href="#DejaVuSans-2e"/>
       <use x="95.410156" xlink:href="#DejaVuSans-30"/>
      </g>
     </g>
    </g>
    <g id="text_12">
     <!-- Proportion of function+target pairs -->
     <defs>
      <path d="M 19.671875 64.796875 
L 19.671875 37.40625 
L 32.078125 37.40625 
Q 38.96875 37.40625 42.71875 40.96875 
Q 46.484375 44.53125 46.484375 51.125 
Q 46.484375 57.671875 42.71875 61.234375 
Q 38.96875 64.796875 32.078125 64.796875 
z
M 9.8125 72.90625 
L 32.078125 72.90625 
Q 44.34375 72.90625 50.609375 67.359375 
Q 56.890625 61.8125 56.890625 51.125 
Q 56.890625 40.328125 50.609375 34.8125 
Q 44.34375 29.296875 32.078125 29.296875 
L 19.671875 29.296875 
L 19.671875 0 
L 9.8125 0 
z
" id="DejaVuSans-50"/>
      <path d="M 41.109375 46.296875 
Q 39.59375 47.171875 37.8125 47.578125 
Q 36.03125 48 33.890625 48 
Q 26.265625 48 22.1875 43.046875 
Q 18.109375 38.09375 18.109375 28.8125 
L 18.109375 0 
L 9.078125 0 
L 9.078125 54.6875 
L 18.109375 54.6875 
L 18.109375 46.1875 
Q 20.953125 51.171875 25.484375 53.578125 
Q 30.03125 56 36.53125 56 
Q 37.453125 56 38.578125 55.875 
Q 39.703125 55.765625 41.0625 55.515625 
z
" id="DejaVuSans-72"/>
      <path d="M 18.109375 8.203125 
L 18.109375 -20.796875 
L 9.078125 -20.796875 
L 9.078125 54.6875 
L 18.109375 54.6875 
L 18.109375 46.390625 
Q 20.953125 51.265625 25.265625 53.625 
Q 29.59375 56 35.59375 56 
Q 45.5625 56 51.78125 48.09375 
Q 58.015625 40.1875 58.015625 27.296875 
Q 58.015625 14.40625 51.78125 6.484375 
Q 45.5625 -1.421875 35.59375 -1.421875 
Q 29.59375 -1.421875 25.265625 0.953125 
Q 20.953125 3.328125 18.109375 8.203125 
z
M 48.6875 27.296875 
Q 48.6875 37.203125 44.609375 42.84375 
Q 40.53125 48.484375 33.40625 48.484375 
Q 26.265625 48.484375 22.1875 42.84375 
Q 18.109375 37.203125 18.109375 27.296875 
Q 18.109375 17.390625 22.1875 11.75 
Q 26.265625 6.109375 33.40625 6.109375 
Q 40.53125 6.109375 44.609375 11.75 
Q 48.6875 17.390625 48.6875 27.296875 
z
" id="DejaVuSans-70"/>
      <path d="M 18.3125 70.21875 
L 18.3125 54.6875 
L 36.8125 54.6875 
L 36.8125 47.703125 
L 18.3125 47.703125 
L 18.3125 18.015625 
Q 18.3125 11.328125 20.140625 9.421875 
Q 21.96875 7.515625 27.59375 7.515625 
L 36.8125 7.515625 
L 36.8125 0 
L 27.59375 0 
Q 17.1875 0 13.234375 3.875 
Q 9.28125 7.765625 9.28125 18.015625 
L 9.28125 47.703125 
L 2.6875 47.703125 
L 2.6875 54.6875 
L 9.28125 54.6875 
L 9.28125 70.21875 
z
" id="DejaVuSans-74"/>
      <path d="M 8.5 21.578125 
L 8.5 54.6875 
L 17.484375 54.6875 
L 17.484375 21.921875 
Q 17.484375 14.15625 20.5 10.265625 
Q 23.53125 6.390625 29.59375 6.390625 
Q 36.859375 6.390625 41.078125 11.03125 
Q 45.3125 15.671875 45.3125 23.6875 
L 45.3125 54.6875 
L 54.296875 54.6875 
L 54.296875 0 
L 45.3125 0 
L 45.3125 8.40625 
Q 42.046875 3.421875 37.71875 1 
Q 33.40625 -1.421875 27.6875 -1.421875 
Q 18.265625 -1.421875 13.375 4.4375 
Q 8.5 10.296875 8.5 21.578125 
z
M 31.109375 56 
z
" id="DejaVuSans-75"/>
      <path d="M 48.78125 52.59375 
L 48.78125 44.1875 
Q 44.96875 46.296875 41.140625 47.34375 
Q 37.3125 48.390625 33.40625 48.390625 
Q 24.65625 48.390625 19.8125 42.84375 
Q 14.984375 37.3125 14.984375 27.296875 
Q 14.984375 17.28125 19.8125 11.734375 
Q 24.65625 6.203125 33.40625 6.203125 
Q 37.3125 6.203125 41.140625 7.25 
Q 44.96875 8.296875 48.78125 10.40625 
L 48.78125 2.09375 
Q 45.015625 0.34375 40.984375 -0.53125 
Q 36.96875 -1.421875 32.421875 -1.421875 
Q 20.0625 -1.421875 12.78125 6.34375 
Q 5.515625 14.109375 5.515625 27.296875 
Q 5.515625 40.671875 12.859375 48.328125 
Q 20.21875 56 33.015625 56 
Q 37.15625 56 41.109375 55.140625 
Q 45.0625 54.296875 48.78125 52.59375 
z
" id="DejaVuSans-63"/>
      <path d="M 46 62.703125 
L 46 35.5 
L 73.1875 35.5 
L 73.1875 27.203125 
L 46 27.203125 
L 46 0 
L 37.796875 0 
L 37.796875 27.203125 
L 10.59375 27.203125 
L 10.59375 35.5 
L 37.796875 35.5 
L 37.796875 62.703125 
z
" id="DejaVuSans-2b"/>
     </defs>
     <g transform="translate(91.549192 323.17875)rotate(-90)scale(0.18 -0.18)">
      <use xlink:href="#DejaVuSans-50"/>
      <use x="60.287109" xlink:href="#DejaVuSans-72"/>
      <use x="101.369141" xlink:href="#DejaVuSans-6f"/>
      <use x="162.550781" xlink:href="#DejaVuSans-70"/>
      <use x="226.027344" xlink:href="#DejaVuSans-6f"/>
      <use x="287.208984" xlink:href="#DejaVuSans-72"/>
      <use x="328.322266" xlink:href="#DejaVuSans-74"/>
      <use x="367.53125" xlink:href="#DejaVuSans-69"/>
      <use x="395.314453" xlink:href="#DejaVuSans-6f"/>
      <use x="456.496094" xlink:href="#DejaVuSans-6e"/>
      <use x="519.875" xlink:href="#DejaVuSans-20"/>
      <use x="551.662109" xlink:href="#DejaVuSans-6f"/>
      <use x="612.84375" xlink:href="#DejaVuSans-66"/>
      <use x="648.048828" xlink:href="#DejaVuSans-20"/>
      <use x="679.835938" xlink:href="#DejaVuSans-66"/>
      <use x="715.041016" xlink:href="#DejaVuSans-75"/>
      <use x="778.419922" xlink:href="#DejaVuSans-6e"/>
      <use x="841.798828" xlink:href="#DejaVuSans-63"/>
      <use x="896.779297" xlink:href="#DejaVuSans-74"/>
      <use x="935.988281" xlink:href="#DejaVuSans-69"/>
      <use x="963.771484" xlink:href="#DejaVuSans-6f"/>
      <use x="1024.953125" xlink:href="#DejaVuSans-6e"/>
      <use x="1088.332031" xlink:href="#DejaVuSans-2b"/>
      <use x="1172.121094" xlink:href="#DejaVuSans-74"/>
      <use x="1211.330078" xlink:href="#DejaVuSans-61"/>
      <use x="1272.609375" xlink:href="#DejaVuSans-72"/>
      <use x="1313.707031" xlink:href="#DejaVuSans-67"/>
      <use x="1377.183594" xlink:href="#DejaVuSans-65"/>
      <use x="1438.707031" xlink:href="#DejaVuSans-74"/>
      <use x="1477.916016" xlink:href="#DejaVuSans-20"/>
      <use x="1509.703125" xlink:href="#DejaVuSans-70"/>
      <use x="1573.179688" xlink:href="#DejaVuSans-61"/>
      <use x="1634.458984" xlink:href="#DejaVuSans-69"/>
      <use x="1662.242188" xlink:href="#DejaVuSans-72"/>
      <use x="1703.355469" xlink:href="#DejaVuSans-73"/>
     </g>
    </g>
   </g>
   <g id="line2d_52">
    <defs>
     <path d="M 0 1.5 
C 0.397805 1.5 0.77937 1.341951 1.06066 1.06066 
C 1.341951 0.77937 1.5 0.397805 1.5 0 
C 1.5 -0.397805 1.341951 -0.77937 1.06066 -1.06066 
C 0.77937 -1.341951 0.397805 -1.5 0 -1.5 
C -0.397805 -1.5 -0.77937 -1.341951 -1.06066 -1.06066 
C -1.341951 -0.77937 -1.5 -0.397805 -1.5 0 
C -1.5 0.397805 -1.341951 0.77937 -1.06066 1.06066 
C -0.77937 1.341951 -0.397805 1.5 0 1.5 
z
" id="m67b88c4bfb" style="stroke:#f5deb3;"/>
    </defs>
    <g>
     <use style="fill:#f5deb3;stroke:#f5deb3;" x="264.230133" xlink:href="#m67b88c4bfb" y="34.768147"/>
     <use style="fill:#f5deb3;stroke:#f5deb3;" x="264.230133" xlink:href="#m67b88c4bfb" y="34.768147"/>
    </g>
   </g>
   <g id="line2d_53">
    <g>
     <use style="fill:#f5deb3;stroke:#f5deb3;stroke-linejoin:miter;stroke-width:1.5;" x="182.489087" xlink:href="#m04851ed031" y="245.549929"/>
     <use style="fill:#f5deb3;stroke:#f5deb3;stroke-linejoin:miter;stroke-width:1.5;" x="225.57001" xlink:href="#m04851ed031" y="140.159038"/>
     <use style="fill:#f5deb3;stroke:#f5deb3;stroke-linejoin:miter;stroke-width:1.5;" x="263.412611" xlink:href="#m04851ed031" y="52.333296"/>
     <use style="fill:#f5deb3;stroke:#f5deb3;stroke-linejoin:miter;stroke-width:1.5;" x="264.230133" xlink:href="#m04851ed031" y="34.768147"/>
     <use style="fill:#f5deb3;stroke:#f5deb3;stroke-linejoin:miter;stroke-width:1.5;" x="426.09888" xlink:href="#m04851ed031" y="34.768147"/>
    </g>
   </g>
   <g id="line2d_54">
    <defs>
     <path d="M 0 1.5 
C 0.397805 1.5 0.77937 1.341951 1.06066 1.06066 
C 1.341951 0.77937 1.5 0.397805 1.5 0 
C 1.5 -0.397805 1.341951 -0.77937 1.06066 -1.06066 
C 0.77937 -1.341951 0.397805 -1.5 0 -1.5 
C -0.397805 -1.5 -0.77937 -1.341951 -1.06066 -1.06066 
C -1.341951 -0.77937 -1.5 -0.397805 -1.5 0 
C -1.5 0.397805 -1.341951 0.77937 -1.06066 1.06066 
C -0.77937 1.341951 -0.397805 1.5 0 1.5 
z
" id="mf9c574df04" style="stroke:#000080;"/>
    </defs>
    <g>
     <use style="fill:#000080;stroke:#000080;" x="406.490018" xlink:href="#mf9c574df04" y="34.768147"/>
     <use style="fill:#000080;stroke:#000080;" x="406.490018" xlink:href="#mf9c574df04" y="34.768147"/>
    </g>
   </g>
   <g id="line2d_55">
    <path d="M 13.2 298.245375 
L 13.2 296.48886 
L 186.593278 296.48886 
L 186.593278 294.732345 
L 198.424217 294.732345 
L 198.424217 277.167197 
L 207.629363 277.167197 
L 207.629363 270.141137 
L 215.165157 270.141137 
L 215.165157 263.115078 
L 227.077124 263.115078 
L 227.077124 261.358563 
L 240.286847 261.358563 
L 240.286847 257.845533 
L 247.224054 257.845533 
L 247.224054 256.089019 
L 253.16996 256.089019 
L 253.16996 249.062959 
L 258.372771 249.062959 
L 258.372771 247.306444 
L 260.749364 247.306444 
L 260.749364 236.767355 
L 267.160538 236.767355 
L 267.160538 224.471751 
L 270.945155 224.471751 
L 270.945155 219.202207 
L 272.715972 219.202207 
L 272.715972 210.419632 
L 274.414631 210.419632 
L 274.414631 206.906603 
L 276.046783 206.906603 
L 276.046783 205.150088 
L 282.002818 205.150088 
L 282.002818 198.124028 
L 283.367769 198.124028 
L 283.367769 194.610999 
L 284.689446 194.610999 
L 284.689446 191.097969 
L 285.970509 191.097969 
L 285.970509 189.341454 
L 287.21338 189.341454 
L 287.21338 187.584939 
L 288.42027 187.584939 
L 288.42027 185.828425 
L 289.593204 185.828425 
L 289.593204 184.07191 
L 291.844491 184.07191 
L 291.844491 180.55888 
L 296.012228 180.55888 
L 296.012228 177.04585 
L 296.992169 177.04585 
L 296.992169 175.289335 
L 297.949606 175.289335 
L 297.949606 173.532821 
L 299.800942 173.532821 
L 299.800942 171.776306 
L 301.573552 171.776306 
L 301.573552 170.019791 
L 302.432374 170.019791 
L 302.432374 159.480702 
L 303.273861 159.480702 
L 303.273861 155.967672 
L 306.479603 155.967672 
L 306.479603 154.211157 
L 307.243952 154.211157 
L 307.243952 152.454642 
L 307.99454 152.454642 
L 307.99454 150.698127 
L 308.731855 150.698127 
L 308.731855 147.185098 
L 309.456356 147.185098 
L 309.456356 145.428583 
L 311.55725 145.428583 
L 311.55725 141.915553 
L 312.234664 141.915553 
L 312.234664 140.159038 
L 312.901247 140.159038 
L 312.901247 138.402524 
L 314.203267 138.402524 
L 314.203267 134.889494 
L 314.83934 134.889494 
L 314.83934 133.132979 
L 315.465855 133.132979 
L 315.465855 131.376464 
L 316.691328 131.376464 
L 316.691328 129.619949 
L 317.290817 129.619949 
L 317.290817 124.350405 
L 319.606118 124.350405 
L 319.606118 120.837375 
L 322.8545 120.837375 
L 322.8545 119.08086 
L 323.372117 119.08086 
L 323.372117 117.324345 
L 324.887492 117.324345 
L 324.887492 112.054801 
L 325.38062 112.054801 
L 325.38062 110.298286 
L 325.867983 110.298286 
L 325.867983 105.028741 
L 327.762387 105.028741 
L 327.762387 103.272226 
L 331.73408 103.272226 
L 331.73408 101.515712 
L 332.978128 101.515712 
L 332.978128 98.002682 
L 334.581141 98.002682 
L 334.581141 90.976623 
L 336.875705 90.976623 
L 336.875705 89.220108 
L 344.349926 89.220108 
L 344.349926 87.463593 
L 345.575829 87.463593 
L 345.575829 85.707078 
L 348.20902 85.707078 
L 348.20902 82.194048 
L 348.491589 82.194048 
L 348.491589 80.437533 
L 349.327985 80.437533 
L 349.327985 75.167989 
L 350.685738 75.167989 
L 350.685738 73.411474 
L 351.479661 73.411474 
L 351.479661 71.654959 
L 353.52572 71.654959 
L 353.52572 69.898444 
L 391.870337 69.898444 
L 391.870337 66.385415 
L 393.336641 66.385415 
L 393.336641 62.872385 
L 395.76212 62.872385 
L 395.76212 57.60284 
L 401.11301 57.60284 
L 401.11301 55.846325 
L 401.272127 55.846325 
L 401.347684 48.820266 
L 402.816187 48.820266 
L 402.816187 47.063751 
L 402.983465 47.063751 
L 402.983465 45.307236 
L 403.3628 45.307236 
L 403.3628 43.550722 
L 403.663803 43.550722 
L 403.663803 40.037692 
L 403.813493 40.037692 
L 403.813493 36.524662 
L 406.490018 36.524662 
L 406.490018 34.768147 
L 426.09888 34.768147 
L 426.09888 34.768147 
" style="fill:none;stroke:#000080;stroke-linecap:square;stroke-width:1.5;"/>
   </g>
   <g id="line2d_56">
    <defs>
     <path d="M 0 6 
C 1.591219 6 3.117479 5.367802 4.242641 4.242641 
C 5.367802 3.117479 6 1.591219 6 0 
C 6 -1.591219 5.367802 -3.117479 4.242641 -4.242641 
C 3.117479 -5.367802 1.591219 -6 0 -6 
C -1.591219 -6 -3.117479 -5.367802 -4.242641 -4.242641 
C -5.367802 -3.117479 -6 -1.591219 -6 0 
C -6 1.591219 -5.367802 3.117479 -4.242641 4.242641 
C -3.117479 5.367802 -1.591219 6 0 6 
z
" id="mf37e1fe001" style="stroke:#000080;stroke-width:1.5;"/>
    </defs>
    <g>
     <use style="fill:none;stroke:#000080;stroke-width:1.5;" x="13.2" xlink:href="#mf37e1fe001" y="296.48886"/>
     <use style="fill:none;stroke:#000080;stroke-width:1.5;" x="207.629363" xlink:href="#mf37e1fe001" y="270.141137"/>
     <use style="fill:none;stroke:#000080;stroke-width:1.5;" x="283.367769" xlink:href="#mf37e1fe001" y="198.124028"/>
     <use style="fill:none;stroke:#000080;stroke-width:1.5;" x="311.55725" xlink:href="#mf37e1fe001" y="145.428583"/>
     <use style="fill:none;stroke:#000080;stroke-width:1.5;" x="353.52572" xlink:href="#mf37e1fe001" y="69.898444"/>
     <use style="fill:none;stroke:#000080;stroke-width:1.5;" x="406.490018" xlink:href="#mf37e1fe001" y="34.768147"/>
     <use style="fill:none;stroke:#000080;stroke-width:1.5;" x="426.09888" xlink:href="#mf37e1fe001" y="34.768147"/>
    </g>
   </g>
   <g id="line2d_57"/>
   <g id="line2d_58">
    <defs>
     <path d="M 0 1.5 
C 0.397805 1.5 0.77937 1.341951 1.06066 1.06066 
C 1.341951 0.77937 1.5 0.397805 1.5 0 
C 1.5 -0.397805 1.341951 -0.77937 1.06066 -1.06066 
C 0.77937 -1.341951 0.397805 -1.5 0 -1.5 
C -0.397805 -1.5 -0.77937 -1.341951 -1.06066 -1.06066 
C -1.341951 -0.77937 -1.5 -0.397805 -1.5 0 
C -1.5 0.397805 -1.341951 0.77937 -1.06066 1.06066 
C -0.77937 1.341951 -0.397805 1.5 0 1.5 
z
" id="m782a4955e8" style="stroke:#ff00ff;"/>
    </defs>
    <g>
     <use style="fill:#ff00ff;stroke:#ff00ff;" x="427.488819" xlink:href="#m782a4955e8" y="34.768147"/>
     <use style="fill:#ff00ff;stroke:#ff00ff;" x="427.488819" xlink:href="#m782a4955e8" y="34.768147"/>
    </g>
   </g>
   <g id="line2d_59">
    <path d="M 13.2 298.245375 
L 13.2 294.732345 
L 42.09888 294.732345 
L 42.09888 292.97583 
L 156.370723 292.97583 
L 156.370723 291.219316 
L 164.859225 291.219316 
L 164.859225 289.462801 
L 166.997759 289.462801 
L 166.997759 287.706286 
L 170.971457 287.706286 
L 170.971457 282.436741 
L 175.458824 282.436741 
L 175.458824 280.680226 
L 178.730483 280.680226 
L 178.730483 278.923712 
L 180.274818 278.923712 
L 180.274818 273.654167 
L 181.026051 273.654167 
L 181.026051 271.897652 
L 185.936693 271.897652 
L 185.936693 270.141137 
L 187.876218 270.141137 
L 187.876218 266.628108 
L 189.729513 266.628108 
L 189.729513 264.871593 
L 193.758105 264.871593 
L 193.758105 263.115078 
L 272.962916 263.115078 
L 272.962916 261.358563 
L 274.096368 261.358563 
L 274.096368 259.602048 
L 280.386114 259.602048 
L 280.386114 257.845533 
L 281.870462 257.845533 
L 281.870462 254.332504 
L 282.658371 254.332504 
L 282.658371 252.575989 
L 283.749686 252.575989 
L 283.749686 250.819474 
L 286.38893 250.819474 
L 286.38893 247.306444 
L 287.27165 247.306444 
L 287.27165 245.549929 
L 291.530226 245.549929 
L 291.530226 243.793415 
L 295.393848 243.793415 
L 295.393848 240.280385 
L 296.621569 240.280385 
L 296.621569 238.52387 
L 300.654447 238.52387 
L 300.654447 236.767355 
L 303.194447 236.767355 
L 303.194447 233.254325 
L 304.562811 233.254325 
L 304.562811 231.497811 
L 305.475817 231.497811 
L 305.475817 227.984781 
L 305.700978 227.984781 
L 305.700978 224.471751 
L 307.171758 224.471751 
L 307.171758 222.715236 
L 307.638802 222.715236 
L 307.638802 220.958722 
L 308.347269 220.958722 
L 308.347269 219.202207 
L 313.89693 219.202207 
L 313.89693 217.445692 
L 314.355596 217.445692 
L 314.355596 215.689177 
L 317.063455 215.689177 
L 317.063455 213.932662 
L 317.234092 213.932662 
L 317.234092 212.176147 
L 318.574616 212.176147 
L 318.574616 210.419632 
L 318.848548 210.419632 
L 318.848548 206.906603 
L 320.873618 206.906603 
L 320.873618 205.150088 
L 321.107044 205.150088 
L 321.107044 203.393573 
L 322.027892 203.393573 
L 322.027892 201.637058 
L 326.395305 201.637058 
L 326.395305 199.880543 
L 327.274493 199.880543 
L 327.363627 194.610999 
L 328.353466 194.610999 
L 328.353466 191.097969 
L 330.182181 191.097969 
L 330.182181 189.341454 
L 331.229935 189.341454 
L 331.229935 187.584939 
L 331.371711 187.584939 
L 331.432325 182.315395 
L 332.997579 182.315395 
L 332.997579 180.55888 
L 335.009522 180.55888 
L 335.009522 175.289335 
L 336.268872 175.289335 
L 336.268872 173.532821 
L 336.394532 173.532821 
L 336.394532 171.776306 
L 337.017215 171.776306 
L 337.123033 168.263276 
L 337.491295 168.263276 
L 337.561073 162.993731 
L 338.080717 162.993731 
L 338.080717 159.480702 
L 338.661923 159.480702 
L 338.661923 157.724187 
L 341.988637 157.724187 
L 341.988637 155.967672 
L 342.254244 155.967672 
L 342.254244 152.454642 
L 342.62636 152.454642 
L 342.62636 150.698127 
L 343.8283 150.698127 
L 343.8283 148.941613 
L 344.349926 148.941613 
L 344.349926 147.185098 
L 345.776687 147.185098 
L 345.776687 143.672068 
L 346.415824 143.672068 
L 346.415824 141.915553 
L 347.12853 141.915553 
L 347.12853 140.159038 
L 348.046688 140.159038 
L 348.046688 138.402524 
L 348.222519 138.402524 
L 348.222519 136.646009 
L 348.984837 136.646009 
L 348.984837 133.132979 
L 349.590037 133.132979 
L 349.590037 129.619949 
L 349.941214 129.619949 
L 349.941214 126.10692 
L 351.342124 126.10692 
L 351.342124 124.350405 
L 351.529562 124.350405 
L 351.529562 122.59389 
L 352.381084 122.59389 
L 352.381084 112.054801 
L 352.673235 112.054801 
L 352.673235 110.298286 
L 354.05714 110.298286 
L 354.05714 108.541771 
L 355.600621 108.541771 
L 355.600621 105.028741 
L 355.792414 105.028741 
L 355.792414 103.272226 
L 356.561933 103.272226 
L 356.561933 101.515712 
L 357.845878 101.515712 
L 357.845878 99.759197 
L 360.852867 99.759197 
L 360.852867 94.489652 
L 361.633107 94.489652 
L 361.633107 92.733137 
L 362.331714 92.733137 
L 362.331714 89.220108 
L 362.485383 89.220108 
L 362.485383 87.463593 
L 370.596539 87.463593 
L 370.596539 83.950563 
L 371.269767 83.950563 
L 371.269767 82.194048 
L 372.637099 82.194048 
L 372.637099 80.437533 
L 373.997393 80.437533 
L 373.997393 78.681019 
L 376.721324 78.681019 
L 376.721324 76.924504 
L 377.770918 76.924504 
L 377.770918 75.167989 
L 388.409414 75.167989 
L 388.409414 69.898444 
L 423.245483 69.898444 
L 423.245483 68.141929 
L 423.405898 68.141929 
L 423.405898 66.385415 
L 424.325198 66.385415 
L 424.405603 62.872385 
L 424.483686 62.872385 
L 424.483686 59.359355 
L 424.91913 59.359355 
L 424.994118 55.846325 
L 425.589216 55.846325 
L 425.665116 52.333296 
L 425.89618 52.333296 
L 425.89618 50.576781 
L 426.09888 50.576781 
L 426.09888 50.576781 
" style="fill:none;stroke:#ff00ff;stroke-linecap:square;stroke-width:1.5;"/>
   </g>
   <g id="line2d_60">
    <defs>
     <path d="M -0 8.485281 
L 5.091169 0 
L 0 -8.485281 
L -5.091169 -0 
z
" id="m9dab117f99" style="stroke:#ff00ff;stroke-linejoin:miter;stroke-width:1.5;"/>
    </defs>
    <g>
     <use style="fill:none;stroke:#ff00ff;stroke-linejoin:miter;stroke-width:1.5;" x="178.730483" xlink:href="#m9dab117f99" y="278.923712"/>
     <use style="fill:none;stroke:#ff00ff;stroke-linejoin:miter;stroke-width:1.5;" x="193.758105" xlink:href="#m9dab117f99" y="263.115078"/>
     <use style="fill:none;stroke:#ff00ff;stroke-linejoin:miter;stroke-width:1.5;" x="308.347269" xlink:href="#m9dab117f99" y="220.958722"/>
     <use style="fill:none;stroke:#ff00ff;stroke-linejoin:miter;stroke-width:1.5;" x="348.046688" xlink:href="#m9dab117f99" y="140.159038"/>
     <use style="fill:none;stroke:#ff00ff;stroke-linejoin:miter;stroke-width:1.5;" x="388.409414" xlink:href="#m9dab117f99" y="75.167989"/>
     <use style="fill:none;stroke:#ff00ff;stroke-linejoin:miter;stroke-width:1.5;" x="425.89618" xlink:href="#m9dab117f99" y="50.576781"/>
     <use style="fill:none;stroke:#ff00ff;stroke-linejoin:miter;stroke-width:1.5;" x="426.09888" xlink:href="#m9dab117f99" y="50.576781"/>
    </g>
   </g>
   <g id="line2d_61"/>
   <g id="line2d_62">
    <defs>
     <path d="M 0 1.5 
C 0.397805 1.5 0.77937 1.341951 1.06066 1.06066 
C 1.341951 0.77937 1.5 0.397805 1.5 0 
C 1.5 -0.397805 1.341951 -0.77937 1.06066 -1.06066 
C 0.77937 -1.341951 0.397805 -1.5 0 -1.5 
C -0.397805 -1.5 -0.77937 -1.341951 -1.06066 -1.06066 
C -1.341951 -0.77937 -1.5 -0.397805 -1.5 0 
C -1.5 0.397805 -1.341951 0.77937 -1.06066 1.06066 
C -0.77937 1.341951 -0.397805 1.5 0 1.5 
z
" id="m7909553401" style="stroke:#ffa500;"/>
    </defs>
    <g>
     <use style="fill:#ffa500;stroke:#ffa500;" x="470.506336" xlink:href="#m7909553401" y="259.602048"/>
     <use style="fill:#ffa500;stroke:#ffa500;" x="470.506336" xlink:href="#m7909553401" y="259.602048"/>
    </g>
   </g>
   <g id="line2d_63">
    <path d="M 13.2 298.245375 
L 13.2 296.48886 
L 131.323096 296.48886 
L 131.323096 292.97583 
L 133.70616 292.97583 
L 133.70616 291.219316 
L 161.430532 291.219316 
L 161.430532 285.949771 
L 171.908401 285.949771 
L 171.908401 284.193256 
L 183.201793 284.193256 
L 183.201793 280.680226 
L 211.745843 280.680226 
L 211.745843 277.167197 
L 213.147396 277.167197 
L 213.147396 273.654167 
L 218.019735 273.654167 
L 218.019735 271.897652 
L 231.296794 271.897652 
L 231.296794 270.141137 
L 241.351388 270.141137 
L 241.351388 264.871593 
L 243.734452 264.871593 
L 243.734452 263.115078 
L 426.09888 263.115078 
" style="fill:none;stroke:#ffa500;stroke-linecap:square;stroke-width:1.5;"/>
   </g>
   <g id="line2d_64">
    <defs>
     <path d="M 0 -6 
L -1.347084 -1.854102 
L -5.706339 -1.854102 
L -2.179628 0.708204 
L -3.526712 4.854102 
L -0 2.291796 
L 3.526712 4.854102 
L 2.179628 0.708204 
L 5.706339 -1.854102 
L 1.347084 -1.854102 
z
" id="me1792376f9" style="stroke:#ffa500;stroke-linejoin:bevel;stroke-width:1.5;"/>
    </defs>
    <g>
     <use style="fill:none;stroke:#ffa500;stroke-linejoin:bevel;stroke-width:1.5;" x="13.2" xlink:href="#me1792376f9" y="296.48886"/>
     <use style="fill:none;stroke:#ffa500;stroke-linejoin:bevel;stroke-width:1.5;" x="133.70616" xlink:href="#me1792376f9" y="291.219316"/>
     <use style="fill:none;stroke:#ffa500;stroke-linejoin:bevel;stroke-width:1.5;" x="218.019735" xlink:href="#me1792376f9" y="273.654167"/>
     <use style="fill:none;stroke:#ffa500;stroke-linejoin:bevel;stroke-width:1.5;" x="243.734452" xlink:href="#me1792376f9" y="264.871593"/>
     <use style="fill:none;stroke:#ffa500;stroke-linejoin:bevel;stroke-width:1.5;" x="243.734452" xlink:href="#me1792376f9" y="263.115078"/>
     <use style="fill:none;stroke:#ffa500;stroke-linejoin:bevel;stroke-width:1.5;" x="243.734452" xlink:href="#me1792376f9" y="263.115078"/>
     <use style="fill:none;stroke:#ffa500;stroke-linejoin:bevel;stroke-width:1.5;" x="426.09888" xlink:href="#me1792376f9" y="263.115078"/>
    </g>
   </g>
   <g id="line2d_65"/>
   <g id="line2d_66">
    <defs>
     <path d="M 0 1.5 
C 0.397805 1.5 0.77937 1.341951 1.06066 1.06066 
C 1.341951 0.77937 1.5 0.397805 1.5 0 
C 1.5 -0.397805 1.341951 -0.77937 1.06066 -1.06066 
C 0.77937 -1.341951 0.397805 -1.5 0 -1.5 
C -0.397805 -1.5 -0.77937 -1.341951 -1.06066 -1.06066 
C -1.341951 -0.77937 -1.5 -0.397805 -1.5 0 
C -1.5 0.397805 -1.341951 0.77937 -1.06066 1.06066 
C -0.77937 1.341951 -0.397805 1.5 0 1.5 
z
" id="m6bc3e9e3de" style="stroke:#6495ed;"/>
    </defs>
    <g>
     <use style="fill:#6495ed;stroke:#6495ed;" x="367.305386" xlink:href="#m6bc3e9e3de" y="34.768147"/>
     <use style="fill:#6495ed;stroke:#6495ed;" x="367.305386" xlink:href="#m6bc3e9e3de" y="34.768147"/>
    </g>
   </g>
   <g id="line2d_67">
    <path d="M 13.2 298.245375 
L 13.2 291.219316 
L 169.031932 291.219316 
L 169.031932 256.089019 
L 173.721394 256.089019 
L 173.721394 252.575989 
L 174.599159 252.575989 
L 174.599159 249.062959 
L 175.458824 249.062959 
L 175.458824 247.306444 
L 176.30112 247.306444 
L 176.30112 243.793415 
L 177.936321 243.793415 
L 177.936321 240.280385 
L 178.730483 240.280385 
L 178.730483 236.767355 
L 179.509801 236.767355 
L 179.509801 235.01084 
L 181.026051 235.01084 
L 181.026051 229.741296 
L 181.763986 229.741296 
L 181.763986 227.984781 
L 182.489087 227.984781 
L 182.489087 224.471751 
L 183.90252 224.471751 
L 183.90252 220.958722 
L 186.593278 220.958722 
L 186.593278 219.202207 
L 187.876218 219.202207 
L 187.876218 215.689177 
L 188.503181 215.689177 
L 188.503181 213.932662 
L 189.729513 213.932662 
L 189.729513 212.176147 
L 191.50392 212.176147 
L 191.50392 208.663118 
L 192.646245 208.663118 
L 192.646245 203.393573 
L 193.205881 203.393573 
L 193.205881 199.880543 
L 194.841082 199.880543 
L 194.841082 196.367514 
L 196.414562 196.367514 
L 196.414562 194.610999 
L 197.930811 194.610999 
L 197.930811 192.854484 
L 198.911851 192.854484 
L 198.911851 189.341454 
L 199.870337 189.341454 
L 199.870337 187.584939 
L 200.341441 187.584939 
L 200.341441 184.07191 
L 201.723631 184.07191 
L 201.723631 180.55888 
L 202.620274 180.55888 
L 202.620274 178.802365 
L 203.498038 178.802365 
L 203.498038 177.04585 
L 204.780979 177.04585 
L 204.780979 173.532821 
L 207.234173 173.532821 
L 207.234173 171.776306 
L 209.92493 171.776306 
L 209.92493 170.019791 
L 211.745843 170.019791 
L 211.745843 162.993731 
L 215.165157 162.993731 
L 215.165157 159.480702 
L 215.492157 159.480702 
L 215.492157 157.724187 
L 219.525035 157.724187 
L 219.525035 152.454642 
L 224.27108 152.454642 
L 224.27108 148.941613 
L 228.292728 148.941613 
L 228.292728 147.185098 
L 230.848486 147.185098 
L 230.848486 145.428583 
L 231.296794 145.428583 
L 231.296794 143.672068 
L 231.960346 143.672068 
L 231.960346 141.915553 
L 234.09888 141.915553 
L 234.09888 138.402524 
L 257.07163 138.402524 
L 257.07163 127.863434 
L 259.521391 127.863434 
L 259.521391 98.002682 
L 261.835162 98.002682 
L 261.835162 80.437533 
L 264.02725 80.437533 
L 264.02725 73.411474 
L 266.109818 73.411474 
L 266.109818 69.898444 
L 303.903784 69.898444 
L 303.903784 66.385415 
L 305.62606 66.385415 
L 305.62606 59.359355 
L 306.845327 59.359355 
L 306.845327 52.333296 
L 309.59294 52.333296 
L 309.59294 50.576781 
L 311.099448 50.576781 
L 311.099448 48.820266 
L 312.553414 48.820266 
L 312.553414 47.063751 
L 351.778175 47.063751 
L 351.778175 45.307236 
L 355.983328 45.307236 
L 355.983328 43.550722 
L 361.779619 43.550722 
L 361.779619 41.794207 
L 362.264305 41.794207 
L 362.264305 40.037692 
L 363.676132 40.037692 
L 363.676132 38.281177 
L 365.095775 38.281177 
L 365.095775 36.524662 
L 367.305386 36.524662 
L 367.305386 34.768147 
L 426.09888 34.768147 
" style="fill:none;stroke:#6495ed;stroke-linecap:square;stroke-width:1.5;"/>
   </g>
   <g id="line2d_68">
    <defs>
     <path d="M -0 6 
L 6 -6 
L -6 -6 
z
" id="m92a1c4e37d" style="stroke:#6495ed;stroke-linejoin:miter;stroke-width:1.5;"/>
    </defs>
    <g>
     <use style="fill:none;stroke:#6495ed;stroke-linejoin:miter;stroke-width:1.5;" x="13.2" xlink:href="#m92a1c4e37d" y="291.219316"/>
     <use style="fill:none;stroke:#6495ed;stroke-linejoin:miter;stroke-width:1.5;" x="189.729513" xlink:href="#m92a1c4e37d" y="212.176147"/>
     <use style="fill:none;stroke:#6495ed;stroke-linejoin:miter;stroke-width:1.5;" x="215.492157" xlink:href="#m92a1c4e37d" y="157.724187"/>
     <use style="fill:none;stroke:#6495ed;stroke-linejoin:miter;stroke-width:1.5;" x="261.835162" xlink:href="#m92a1c4e37d" y="98.002682"/>
     <use style="fill:none;stroke:#6495ed;stroke-linejoin:miter;stroke-width:1.5;" x="312.553414" xlink:href="#m92a1c4e37d" y="48.820266"/>
     <use style="fill:none;stroke:#6495ed;stroke-linejoin:miter;stroke-width:1.5;" x="367.305386" xlink:href="#m92a1c4e37d" y="34.768147"/>
     <use style="fill:none;stroke:#6495ed;stroke-linejoin:miter;stroke-width:1.5;" x="426.09888" xlink:href="#m92a1c4e37d" y="34.768147"/>
    </g>
   </g>
   <g id="line2d_69"/>
   <g id="line2d_70">
    <defs>
     <path d="M 0 1.5 
C 0.397805 1.5 0.77937 1.341951 1.06066 1.06066 
C 1.341951 0.77937 1.5 0.397805 1.5 0 
C 1.5 -0.397805 1.341951 -0.77937 1.06066 -1.06066 
C 0.77937 -1.341951 0.397805 -1.5 0 -1.5 
C -0.397805 -1.5 -0.77937 -1.341951 -1.06066 -1.06066 
C -1.341951 -0.77937 -1.5 -0.397805 -1.5 0 
C -1.5 0.397805 -1.341951 0.77937 -1.06066 1.06066 
C -0.77937 1.341951 -0.397805 1.5 0 1.5 
z
" id="m623748e765" style="stroke:#ff0000;"/>
    </defs>
    <g>
     <use style="fill:#ff0000;stroke:#ff0000;" x="484.660386" xlink:href="#m623748e765" y="108.541771"/>
     <use style="fill:#ff0000;stroke:#ff0000;" x="484.660386" xlink:href="#m623748e765" y="108.541771"/>
    </g>
   </g>
   <g id="line2d_71">
    <path d="M 13.2 298.245375 
L 13.2 294.732345 
L 80.30112 294.732345 
L 80.30112 292.97583 
L 109.2 292.97583 
L 109.2 291.219316 
L 120.138562 291.219316 
L 120.138562 289.462801 
L 140.133052 289.462801 
L 140.133052 282.436741 
L 142.072577 282.436741 
L 142.072577 278.923712 
L 143.925872 278.923712 
L 143.925872 277.167197 
L 147.402241 277.167197 
L 147.402241 275.410682 
L 149.037441 275.410682 
L 149.037441 270.141137 
L 153.590208 270.141137 
L 153.590208 266.628108 
L 160.221976 266.628108 
L 160.221976 263.115078 
L 210.662866 263.115078 
L 210.662866 261.358563 
L 219.525035 261.358563 
L 219.525035 257.845533 
L 222.656984 257.845533 
L 222.656984 256.089019 
L 233.256583 256.089019 
L 233.256583 254.332504 
L 234.71962 254.332504 
L 234.71962 252.575989 
L 236.724442 252.575989 
L 236.724442 250.819474 
L 247.224054 250.819474 
L 247.224054 249.062959 
L 250.724761 249.062959 
L 250.724761 247.306444 
L 266.302838 247.306444 
L 266.302838 245.549929 
L 268.000948 245.549929 
L 268.000948 242.0369 
L 269.98667 242.0369 
L 269.98667 240.280385 
L 273.289916 240.280385 
L 273.289916 238.52387 
L 285.970509 238.52387 
L 285.970509 236.767355 
L 286.448363 236.767355 
L 286.448363 235.01084 
L 300.696667 235.01084 
L 300.696667 233.254325 
L 301.573552 233.254325 
L 301.573552 231.497811 
L 303.747193 231.497811 
L 303.747193 229.741296 
L 306.369257 229.741296 
L 306.369257 227.984781 
L 307.171758 227.984781 
L 307.171758 226.228266 
L 307.495653 226.228266 
L 307.495653 222.715236 
L 311.719541 222.715236 
L 311.719541 220.958722 
L 312.711879 220.958722 
L 312.711879 219.202207 
L 314.416372 219.202207 
L 314.416372 217.445692 
L 317.262464 217.445692 
L 317.262464 215.689177 
L 317.516945 215.689177 
L 317.516945 213.932662 
L 318.076957 213.932662 
L 318.188062 210.419632 
L 318.464537 210.419632 
L 318.464537 208.663118 
L 319.926624 208.663118 
L 319.926624 206.906603 
L 323.052446 206.906603 
L 323.126434 201.637058 
L 323.372117 201.637058 
L 323.372117 199.880543 
L 327.474776 199.880543 
L 327.474776 196.367514 
L 327.62989 196.367514 
L 327.62989 194.610999 
L 328.850451 194.610999 
L 328.850451 192.854484 
L 332.9392 192.854484 
L 332.9392 191.097969 
L 344.894354 191.097969 
L 344.894354 189.341454 
L 346.33117 189.341454 
L 346.33117 187.584939 
L 350.888806 187.584939 
L 350.888806 185.828425 
L 351.204133 185.828425 
L 351.204133 184.07191 
L 353.179625 184.07191 
L 353.179625 182.315395 
L 353.585102 182.315395 
L 353.585102 180.55888 
L 354.709141 180.55888 
L 354.732239 175.289335 
L 357.781538 175.289335 
L 357.781538 173.532821 
L 358.378218 173.532821 
L 358.420513 170.019791 
L 358.631346 170.019791 
L 358.631346 168.263276 
L 363.657494 168.263276 
L 363.657494 166.506761 
L 365.427629 166.506761 
L 365.427629 164.750246 
L 369.565864 164.750246 
L 369.565864 162.993731 
L 370.327351 162.993731 
L 370.327351 161.237217 
L 370.87184 161.237217 
L 370.87184 159.480702 
L 371.300817 159.480702 
L 371.300817 155.967672 
L 373.778612 155.967672 
L 373.778612 154.211157 
L 375.721461 154.211157 
L 375.721461 152.454642 
L 385.088979 152.454642 
L 385.088979 150.698127 
L 385.807448 150.698127 
L 385.807448 148.941613 
L 387.588019 148.941613 
L 387.588019 147.185098 
L 396.050262 147.185098 
L 396.050262 145.428583 
L 396.953287 145.428583 
L 396.953287 143.672068 
L 408.929578 143.672068 
L 408.929578 141.915553 
L 410.047317 141.915553 
L 410.047317 138.402524 
L 416.727713 138.402524 
L 416.727713 134.889494 
L 420.021085 134.889494 
L 420.021085 133.132979 
L 424.585409 133.132979 
L 424.585409 131.376464 
L 426.09888 131.376464 
L 426.09888 131.376464 
" style="fill:none;stroke:#ff0000;stroke-linecap:square;stroke-width:1.5;"/>
   </g>
   <g id="line2d_72">
    <defs>
     <path d="M 0 -6 
L -5.196152 -3 
L -5.196152 3 
L -0 6 
L 5.196152 3 
L 5.196152 -3 
z
" id="m13d82fbfe1" style="stroke:#ff0000;stroke-linejoin:miter;stroke-width:1.5;"/>
    </defs>
    <g>
     <use style="fill:none;stroke:#ff0000;stroke-linejoin:miter;stroke-width:1.5;" x="80.30112" xlink:href="#m13d82fbfe1" y="294.732345"/>
     <use style="fill:none;stroke:#ff0000;stroke-linejoin:miter;stroke-width:1.5;" x="149.037441" xlink:href="#m13d82fbfe1" y="270.141137"/>
     <use style="fill:none;stroke:#ff0000;stroke-linejoin:miter;stroke-width:1.5;" x="250.724761" xlink:href="#m13d82fbfe1" y="249.062959"/>
     <use style="fill:none;stroke:#ff0000;stroke-linejoin:miter;stroke-width:1.5;" x="303.747193" xlink:href="#m13d82fbfe1" y="231.497811"/>
     <use style="fill:none;stroke:#ff0000;stroke-linejoin:miter;stroke-width:1.5;" x="358.378218" xlink:href="#m13d82fbfe1" y="173.532821"/>
     <use style="fill:none;stroke:#ff0000;stroke-linejoin:miter;stroke-width:1.5;" x="387.588019" xlink:href="#m13d82fbfe1" y="147.185098"/>
     <use style="fill:none;stroke:#ff0000;stroke-linejoin:miter;stroke-width:1.5;" x="426.09888" xlink:href="#m13d82fbfe1" y="131.376464"/>
    </g>
   </g>
   <g id="line2d_73"/>
   <g id="line2d_74">
    <path clip-path="url(#p2c2658146e)" d="M 330.09888 192.854484 
" style="fill:none;stroke:#ff0000;stroke-linecap:square;stroke-width:1.5;"/>
    <defs>
     <path d="M -12 12 
L 12 -12 
M -12 -12 
L 12 12 
" id="mcba093927a" style="stroke:#ff0000;stroke-width:3;"/>
    </defs>
    <g clip-path="url(#p2c2658146e)">
     <use style="fill:#ff0000;stroke:#ff0000;stroke-width:3;" x="330.09888" xlink:href="#mcba093927a" y="192.854484"/>
    </g>
   </g>
   <g id="line2d_75">
    <defs>
     <path d="M 0 1.5 
C 0.397805 1.5 0.77937 1.341951 1.06066 1.06066 
C 1.341951 0.77937 1.5 0.397805 1.5 0 
C 1.5 -0.397805 1.341951 -0.77937 1.06066 -1.06066 
C 0.77937 -1.341951 0.397805 -1.5 0 -1.5 
C -0.397805 -1.5 -0.77937 -1.341951 -1.06066 -1.06066 
C -1.341951 -0.77937 -1.5 -0.397805 -1.5 0 
C -1.5 0.397805 -1.341951 0.77937 -1.06066 1.06066 
C -0.77937 1.341951 -0.397805 1.5 0 1.5 
z
" id="m11e6797850" style="stroke:#9acd32;"/>
    </defs>
    <g>
     <use style="fill:#9acd32;stroke:#9acd32;" x="383.87288" xlink:href="#m11e6797850" y="34.768147"/>
     <use style="fill:#9acd32;stroke:#9acd32;" x="383.87288" xlink:href="#m11e6797850" y="34.768147"/>
    </g>
   </g>
   <g id="line2d_76">
    <path d="M 13.2 298.245375 
L 13.2 294.732345 
L 123.228291 294.732345 
L 123.228291 292.97583 
L 128.795518 292.97583 
L 128.795518 287.706286 
L 131.323096 287.706286 
L 131.323096 278.923712 
L 138.09888 278.923712 
L 138.09888 277.167197 
L 153.590208 277.167197 
L 153.590208 275.410682 
L 156.370723 275.410682 
L 156.370723 270.141137 
L 158.977338 270.141137 
L 158.977338 266.628108 
L 166.997759 266.628108 
L 166.997759 264.871593 
L 187.876218 264.871593 
L 187.876218 263.115078 
L 218.929421 263.115078 
L 218.929421 257.845533 
L 245.673977 257.845533 
L 245.673977 256.089019 
L 248.865107 256.089019 
L 248.865107 254.332504 
L 252.772256 254.332504 
L 252.772256 252.575989 
L 253.301689 252.575989 
L 253.301689 249.062959 
L 253.954164 249.062959 
L 253.954164 245.549929 
L 254.596584 245.549929 
L 254.596584 243.793415 
L 261.40423 243.793415 
L 261.40423 242.0369 
L 261.620253 242.0369 
L 261.620253 240.280385 
L 261.835162 240.280385 
L 261.835162 238.52387 
L 262.261685 238.52387 
L 262.261685 236.767355 
L 263.309284 236.767355 
L 263.309284 233.254325 
L 264.832923 233.254325 
L 264.832923 229.741296 
L 265.623322 229.741296 
L 265.623322 227.984781 
L 266.109818 227.984781 
L 266.20644 224.471751 
L 267.160538 224.471751 
L 267.160538 222.715236 
L 268.551955 222.715236 
L 268.551955 219.202207 
L 268.824752 219.202207 
L 268.824752 213.932662 
L 269.00563 213.932662 
L 269.00563 212.176147 
L 269.275483 212.176147 
L 269.275483 208.663118 
L 269.721394 208.663118 
L 269.721394 205.150088 
L 270.685927 205.150088 
L 270.685927 203.393573 
L 270.945155 203.393573 
L 270.945155 201.637058 
L 271.37365 201.637058 
L 271.458824 198.124028 
L 273.044907 198.124028 
L 273.044907 196.367514 
L 274.809074 196.367514 
L 274.809074 194.610999 
L 275.970494 194.610999 
L 275.970494 191.097969 
L 276.426151 191.097969 
L 276.501613 185.828425 
L 276.876883 185.828425 
L 276.876883 184.07191 
L 277.837066 184.07191 
L 277.837066 182.315395 
L 278.272878 182.315395 
L 278.272878 180.55888 
L 279.342884 180.55888 
L 279.342884 178.802365 
L 279.623641 178.802365 
L 279.623641 175.289335 
L 279.763314 175.289335 
L 279.763314 173.532821 
L 281.604482 173.532821 
L 281.604482 170.019791 
L 282.06884 170.019791 
L 282.06884 168.263276 
L 282.266278 168.263276 
L 282.266278 166.506761 
L 282.528082 166.506761 
L 282.528082 162.993731 
L 283.367769 162.993731 
L 283.367769 157.724187 
L 283.495464 157.724187 
L 283.495464 155.967672 
L 283.749686 155.967672 
L 283.813 152.454642 
L 284.065299 152.454642 
L 284.065299 148.941613 
L 284.440907 148.941613 
L 284.440907 147.185098 
L 285.304388 147.185098 
L 285.304388 145.428583 
L 286.920801 145.428583 
L 286.920801 143.672068 
L 287.21338 143.672068 
L 287.21338 141.915553 
L 288.136068 141.915553 
L 288.136068 140.159038 
L 288.249982 140.159038 
L 288.249982 138.402524 
L 289.593204 138.402524 
L 289.70321 134.889494 
L 290.465231 134.889494 
L 290.465231 131.376464 
L 291.477617 131.376464 
L 291.477617 129.619949 
L 292.466002 129.619949 
L 292.466002 127.863434 
L 292.773317 127.863434 
L 292.773317 126.10692 
L 292.976943 126.10692 
L 292.976943 124.350405 
L 293.381235 124.350405 
L 293.381235 122.59389 
L 293.781644 122.59389 
L 293.781644 120.837375 
L 294.619956 120.837375 
L 294.717481 113.811316 
L 295.680394 113.811316 
L 295.680394 110.298286 
L 295.870337 110.298286 
L 295.870337 106.785256 
L 296.48174 106.785256 
L 296.48174 105.028741 
L 296.76093 105.028741 
L 296.76093 101.515712 
L 298.263928 101.515712 
L 298.263928 99.759197 
L 298.397915 99.759197 
L 298.397915 98.002682 
L 299.411089 98.002682 
L 299.411089 96.246167 
L 304.176411 96.246167 
L 304.176411 94.489652 
L 304.678036 94.489652 
L 304.678036 90.976623 
L 306.221674 90.976623 
L 306.221674 89.220108 
L 306.369257 89.220108 
L 306.369257 85.707078 
L 311.55725 85.707078 
L 311.55725 83.950563 
L 313.027015 83.950563 
L 313.027015 82.194048 
L 314.019735 82.194048 
L 314.111602 78.681019 
L 314.718929 78.681019 
L 314.718929 76.924504 
L 319.174908 76.924504 
L 319.174908 75.167989 
L 320.40281 75.167989 
L 320.40281 71.654959 
L 322.605739 71.654959 
L 322.605739 69.898444 
L 371.269767 69.898444 
L 371.308576 66.385415 
L 371.702375 66.385415 
L 371.702375 64.6289 
L 372.168557 64.6289 
L 372.214131 59.359355 
L 373.085568 59.359355 
L 373.085568 57.60284 
L 373.793234 57.60284 
L 373.793234 55.846325 
L 374.646931 55.846325 
L 374.646931 54.089811 
L 374.789909 54.089811 
L 374.789909 50.576781 
L 376.53695 50.576781 
L 376.53695 48.820266 
L 376.775797 48.820266 
L 376.775797 45.307236 
L 380.341075 45.307236 
L 380.341075 38.281177 
L 383.815445 38.281177 
L 383.87288 34.768147 
L 426.09888 34.768147 
L 426.09888 34.768147 
" style="fill:none;stroke:#9acd32;stroke-linecap:square;stroke-width:1.5;"/>
   </g>
   <g id="line2d_77">
    <defs>
     <path d="M 0 -6 
L -6 6 
L 6 6 
z
" id="m8c87947ab8" style="stroke:#9acd32;stroke-linejoin:miter;stroke-width:1.5;"/>
    </defs>
    <g>
     <use style="fill:none;stroke:#9acd32;stroke-linejoin:miter;stroke-width:1.5;" x="156.370723" xlink:href="#m8c87947ab8" y="270.141137"/>
     <use style="fill:none;stroke:#9acd32;stroke-linejoin:miter;stroke-width:1.5;" x="253.954164" xlink:href="#m8c87947ab8" y="245.549929"/>
     <use style="fill:none;stroke:#9acd32;stroke-linejoin:miter;stroke-width:1.5;" x="279.342884" xlink:href="#m8c87947ab8" y="180.55888"/>
     <use style="fill:none;stroke:#9acd32;stroke-linejoin:miter;stroke-width:1.5;" x="298.263928" xlink:href="#m8c87947ab8" y="101.515712"/>
     <use style="fill:none;stroke:#9acd32;stroke-linejoin:miter;stroke-width:1.5;" x="322.605739" xlink:href="#m8c87947ab8" y="69.898444"/>
     <use style="fill:none;stroke:#9acd32;stroke-linejoin:miter;stroke-width:1.5;" x="383.87288" xlink:href="#m8c87947ab8" y="34.768147"/>
     <use style="fill:none;stroke:#9acd32;stroke-linejoin:miter;stroke-width:1.5;" x="426.09888" xlink:href="#m8c87947ab8" y="34.768147"/>
    </g>
   </g>
   <g id="line2d_78"/>
   <g id="line2d_79">
    <path d="M 426.09888 263.115078 
L 457.77888 292.97583 
" style="fill:none;stroke:#ffa500;stroke-linecap:square;stroke-width:1.5;"/>
    <g>
     <use style="fill:none;stroke:#ffa500;stroke-linejoin:bevel;stroke-width:1.5;" x="426.09888" xlink:href="#me1792376f9" y="263.115078"/>
     <use style="fill:none;stroke:#ffa500;stroke-linejoin:bevel;stroke-width:1.5;" x="457.77888" xlink:href="#me1792376f9" y="292.97583"/>
    </g>
   </g>
   <g id="line2d_80">
    <path d="M 426.09888 131.376464 
L 457.77888 250.819474 
" style="fill:none;stroke:#ff0000;stroke-linecap:square;stroke-width:1.5;"/>
    <g>
     <use style="fill:none;stroke:#ff0000;stroke-linejoin:miter;stroke-width:1.5;" x="426.09888" xlink:href="#m13d82fbfe1" y="131.376464"/>
     <use style="fill:none;stroke:#ff0000;stroke-linejoin:miter;stroke-width:1.5;" x="457.77888" xlink:href="#m13d82fbfe1" y="250.819474"/>
    </g>
   </g>
   <g id="line2d_81">
    <path d="M 426.09888 50.576781 
L 457.77888 208.663118 
" style="fill:none;stroke:#ff00ff;stroke-linecap:square;stroke-width:1.5;"/>
    <g>
     <use style="fill:none;stroke:#ff00ff;stroke-linejoin:miter;stroke-width:1.5;" x="426.09888" xlink:href="#m9dab117f99" y="50.576781"/>
     <use style="fill:none;stroke:#ff00ff;stroke-linejoin:miter;stroke-width:1.5;" x="457.77888" xlink:href="#m9dab117f99" y="208.663118"/>
    </g>
   </g>
   <g id="line2d_82">
    <path d="M 426.09888 34.768147 
L 457.77888 166.506761 
" style="fill:none;stroke:#000080;stroke-linecap:square;stroke-width:1.5;"/>
    <g>
     <use style="fill:none;stroke:#000080;stroke-width:1.5;" x="426.09888" xlink:href="#mf37e1fe001" y="34.768147"/>
     <use style="fill:none;stroke:#000080;stroke-width:1.5;" x="457.77888" xlink:href="#mf37e1fe001" y="166.506761"/>
    </g>
   </g>
   <g id="line2d_83">
    <path d="M 426.09888 34.768147 
L 457.77888 124.350405 
" style="fill:none;stroke:#9acd32;stroke-linecap:square;stroke-width:1.5;"/>
    <g>
     <use style="fill:none;stroke:#9acd32;stroke-linejoin:miter;stroke-width:1.5;" x="426.09888" xlink:href="#m8c87947ab8" y="34.768147"/>
     <use style="fill:none;stroke:#9acd32;stroke-linejoin:miter;stroke-width:1.5;" x="457.77888" xlink:href="#m8c87947ab8" y="124.350405"/>
    </g>
   </g>
   <g id="line2d_84">
    <path d="M 426.09888 34.768147 
L 457.77888 82.194048 
" style="fill:none;stroke:#6495ed;stroke-linecap:square;stroke-width:1.5;"/>
    <g>
     <use style="fill:none;stroke:#6495ed;stroke-linejoin:miter;stroke-width:1.5;" x="426.09888" xlink:href="#m92a1c4e37d" y="34.768147"/>
     <use style="fill:none;stroke:#6495ed;stroke-linejoin:miter;stroke-width:1.5;" x="457.77888" xlink:href="#m92a1c4e37d" y="82.194048"/>
    </g>
   </g>
   <g id="line2d_85">
    <path d="M 426.09888 298.245375 
L 426.09888 34.768147 
" style="fill:none;stroke:#000000;stroke-linecap:square;stroke-width:1.5;"/>
   </g>
   <g id="patch_3">
    <path d="M 138.09888 298.245375 
L 138.09888 32.133375 
" style="fill:none;stroke:#000000;stroke-linecap:square;stroke-linejoin:miter;stroke-width:0.8;"/>
   </g>
   <g id="patch_4">
    <path d="M 495.21888 298.245375 
L 495.21888 32.133375 
" style="fill:none;stroke:#000000;stroke-linecap:square;stroke-linejoin:miter;stroke-width:0.8;"/>
   </g>
   <g id="patch_5">
    <path d="M 138.09888 298.245375 
L 495.21888 298.245375 
" style="fill:none;stroke:#000000;stroke-linecap:square;stroke-linejoin:miter;stroke-width:0.8;"/>
   </g>
   <g id="patch_6">
    <path d="M 138.09888 32.133375 
L 495.21888 32.133375 
" style="fill:none;stroke:#000000;stroke-linecap:square;stroke-linejoin:miter;stroke-width:0.8;"/>
   </g>
   <g id="text_13">
    <!-- RANDOMSEA -->
    <defs>
     <path d="M 44.390625 34.1875 
Q 47.5625 33.109375 50.5625 29.59375 
Q 53.5625 26.078125 56.59375 19.921875 
L 66.609375 0 
L 56 0 
L 46.6875 18.703125 
Q 43.0625 26.03125 39.671875 28.421875 
Q 36.28125 30.8125 30.421875 30.8125 
L 19.671875 30.8125 
L 19.671875 0 
L 9.8125 0 
L 9.8125 72.90625 
L 32.078125 72.90625 
Q 44.578125 72.90625 50.734375 67.671875 
Q 56.890625 62.453125 56.890625 51.90625 
Q 56.890625 45.015625 53.6875 40.46875 
Q 50.484375 35.9375 44.390625 34.1875 
z
M 19.671875 64.796875 
L 19.671875 38.921875 
L 32.078125 38.921875 
Q 39.203125 38.921875 42.84375 42.21875 
Q 46.484375 45.515625 46.484375 51.90625 
Q 46.484375 58.296875 42.84375 61.546875 
Q 39.203125 64.796875 32.078125 64.796875 
z
" id="DejaVuSans-52"/>
     <path d="M 34.1875 63.1875 
L 20.796875 26.90625 
L 47.609375 26.90625 
z
M 28.609375 72.90625 
L 39.796875 72.90625 
L 67.578125 0 
L 57.328125 0 
L 50.6875 18.703125 
L 17.828125 18.703125 
L 11.1875 0 
L 0.78125 0 
z
" id="DejaVuSans-41"/>
     <path d="M 9.8125 72.90625 
L 23.09375 72.90625 
L 55.421875 11.921875 
L 55.421875 72.90625 
L 64.984375 72.90625 
L 64.984375 0 
L 51.703125 0 
L 19.390625 60.984375 
L 19.390625 0 
L 9.8125 0 
z
" id="DejaVuSans-4e"/>
     <path d="M 19.671875 64.796875 
L 19.671875 8.109375 
L 31.59375 8.109375 
Q 46.6875 8.109375 53.6875 14.9375 
Q 60.6875 21.78125 60.6875 36.53125 
Q 60.6875 51.171875 53.6875 57.984375 
Q 46.6875 64.796875 31.59375 64.796875 
z
M 9.8125 72.90625 
L 30.078125 72.90625 
Q 51.265625 72.90625 61.171875 64.09375 
Q 71.09375 55.28125 71.09375 36.53125 
Q 71.09375 17.671875 61.125 8.828125 
Q 51.171875 0 30.078125 0 
L 9.8125 0 
z
" id="DejaVuSans-44"/>
     <path d="M 39.40625 66.21875 
Q 28.65625 66.21875 22.328125 58.203125 
Q 16.015625 50.203125 16.015625 36.375 
Q 16.015625 22.609375 22.328125 14.59375 
Q 28.65625 6.59375 39.40625 6.59375 
Q 50.140625 6.59375 56.421875 14.59375 
Q 62.703125 22.609375 62.703125 36.375 
Q 62.703125 50.203125 56.421875 58.203125 
Q 50.140625 66.21875 39.40625 66.21875 
z
M 39.40625 74.21875 
Q 54.734375 74.21875 63.90625 63.9375 
Q 73.09375 53.65625 73.09375 36.375 
Q 73.09375 19.140625 63.90625 8.859375 
Q 54.734375 -1.421875 39.40625 -1.421875 
Q 24.03125 -1.421875 14.8125 8.828125 
Q 5.609375 19.09375 5.609375 36.375 
Q 5.609375 53.65625 14.8125 63.9375 
Q 24.03125 74.21875 39.40625 74.21875 
z
" id="DejaVuSans-4f"/>
     <path d="M 9.8125 72.90625 
L 24.515625 72.90625 
L 43.109375 23.296875 
L 61.8125 72.90625 
L 76.515625 72.90625 
L 76.515625 0 
L 66.890625 0 
L 66.890625 64.015625 
L 48.09375 14.015625 
L 38.1875 14.015625 
L 19.390625 64.015625 
L 19.390625 0 
L 9.8125 0 
z
" id="DejaVuSans-4d"/>
     <path d="M 53.515625 70.515625 
L 53.515625 60.890625 
Q 47.90625 63.578125 42.921875 64.890625 
Q 37.9375 66.21875 33.296875 66.21875 
Q 25.25 66.21875 20.875 63.09375 
Q 16.5 59.96875 16.5 54.203125 
Q 16.5 49.359375 19.40625 46.890625 
Q 22.3125 44.4375 30.421875 42.921875 
L 36.375 41.703125 
Q 47.40625 39.59375 52.65625 34.296875 
Q 57.90625 29 57.90625 20.125 
Q 57.90625 9.515625 50.796875 4.046875 
Q 43.703125 -1.421875 29.984375 -1.421875 
Q 24.8125 -1.421875 18.96875 -0.25 
Q 13.140625 0.921875 6.890625 3.21875 
L 6.890625 13.375 
Q 12.890625 10.015625 18.65625 8.296875 
Q 24.421875 6.59375 29.984375 6.59375 
Q 38.421875 6.59375 43.015625 9.90625 
Q 47.609375 13.234375 47.609375 19.390625 
Q 47.609375 24.75 44.3125 27.78125 
Q 41.015625 30.8125 33.5 32.328125 
L 27.484375 33.5 
Q 16.453125 35.6875 11.515625 40.375 
Q 6.59375 45.0625 6.59375 53.421875 
Q 6.59375 63.09375 13.40625 68.65625 
Q 20.21875 74.21875 32.171875 74.21875 
Q 37.3125 74.21875 42.625 73.28125 
Q 47.953125 72.359375 53.515625 70.515625 
z
" id="DejaVuSans-53"/>
     <path d="M 9.8125 72.90625 
L 55.90625 72.90625 
L 55.90625 64.59375 
L 19.671875 64.59375 
L 19.671875 43.015625 
L 54.390625 43.015625 
L 54.390625 34.71875 
L 19.671875 34.71875 
L 19.671875 8.296875 
L 56.78125 8.296875 
L 56.78125 0 
L 9.8125 0 
z
" id="DejaVuSans-45"/>
    </defs>
    <g transform="translate(463.53888 296.838955)scale(0.14 -0.14)">
     <use xlink:href="#DejaVuSans-52"/>
     <use x="69.419922" xlink:href="#DejaVuSans-41"/>
     <use x="137.828125" xlink:href="#DejaVuSans-4e"/>
     <use x="212.632812" xlink:href="#DejaVuSans-44"/>
     <use x="289.634766" xlink:href="#DejaVuSans-4f"/>
     <use x="368.345703" xlink:href="#DejaVuSans-4d"/>
     <use x="454.625" xlink:href="#DejaVuSans-53"/>
     <use x="518.101562" xlink:href="#DejaVuSans-45"/>
     <use x="581.285156" xlink:href="#DejaVuSans-41"/>
    </g>
   </g>
   <g id="text_14">
    <!-- SMAC-BBOB -->
    <defs>
     <path d="M 64.40625 67.28125 
L 64.40625 56.890625 
Q 59.421875 61.53125 53.78125 63.8125 
Q 48.140625 66.109375 41.796875 66.109375 
Q 29.296875 66.109375 22.65625 58.46875 
Q 16.015625 50.828125 16.015625 36.375 
Q 16.015625 21.96875 22.65625 14.328125 
Q 29.296875 6.6875 41.796875 6.6875 
Q 48.140625 6.6875 53.78125 8.984375 
Q 59.421875 11.28125 64.40625 15.921875 
L 64.40625 5.609375 
Q 59.234375 2.09375 53.4375 0.328125 
Q 47.65625 -1.421875 41.21875 -1.421875 
Q 24.65625 -1.421875 15.125 8.703125 
Q 5.609375 18.84375 5.609375 36.375 
Q 5.609375 53.953125 15.125 64.078125 
Q 24.65625 74.21875 41.21875 74.21875 
Q 47.75 74.21875 53.53125 72.484375 
Q 59.328125 70.75 64.40625 67.28125 
z
" id="DejaVuSans-43"/>
     <path d="M 19.671875 34.8125 
L 19.671875 8.109375 
L 35.5 8.109375 
Q 43.453125 8.109375 47.28125 11.40625 
Q 51.125 14.703125 51.125 21.484375 
Q 51.125 28.328125 47.28125 31.5625 
Q 43.453125 34.8125 35.5 34.8125 
z
M 19.671875 64.796875 
L 19.671875 42.828125 
L 34.28125 42.828125 
Q 41.5 42.828125 45.03125 45.53125 
Q 48.578125 48.25 48.578125 53.8125 
Q 48.578125 59.328125 45.03125 62.0625 
Q 41.5 64.796875 34.28125 64.796875 
z
M 9.8125 72.90625 
L 35.015625 72.90625 
Q 46.296875 72.90625 52.390625 68.21875 
Q 58.5 63.53125 58.5 54.890625 
Q 58.5 48.1875 55.375 44.234375 
Q 52.25 40.28125 46.1875 39.3125 
Q 53.46875 37.75 57.5 32.78125 
Q 61.53125 27.828125 61.53125 20.40625 
Q 61.53125 10.640625 54.890625 5.3125 
Q 48.25 0 35.984375 0 
L 9.8125 0 
z
" id="DejaVuSans-42"/>
    </defs>
    <g transform="translate(463.53888 254.682599)scale(0.14 -0.14)">
     <use xlink:href="#DejaVuSans-53"/>
     <use x="63.476562" xlink:href="#DejaVuSans-4d"/>
     <use x="149.755859" xlink:href="#DejaVuSans-41"/>
     <use x="218.148438" xlink:href="#DejaVuSans-43"/>
     <use x="287.972656" xlink:href="#DejaVuSans-2d"/>
     <use x="324.009766" xlink:href="#DejaVuSans-42"/>
     <use x="392.613281" xlink:href="#DejaVuSans-42"/>
     <use x="461.201172" xlink:href="#DejaVuSans-4f"/>
     <use x="539.912109" xlink:href="#DejaVuSans-42"/>
    </g>
   </g>
   <g id="text_15">
    <!-- BIPOP-CMA -->
    <defs>
     <path d="M 9.8125 72.90625 
L 19.671875 72.90625 
L 19.671875 0 
L 9.8125 0 
z
" id="DejaVuSans-49"/>
    </defs>
    <g transform="translate(463.53888 212.526243)scale(0.14 -0.14)">
     <use xlink:href="#DejaVuSans-42"/>
     <use x="68.603516" xlink:href="#DejaVuSans-49"/>
     <use x="98.095703" xlink:href="#DejaVuSans-50"/>
     <use x="158.398438" xlink:href="#DejaVuSans-4f"/>
     <use x="237.109375" xlink:href="#DejaVuSans-50"/>
     <use x="297.380859" xlink:href="#DejaVuSans-2d"/>
     <use x="333.464844" xlink:href="#DejaVuSans-43"/>
     <use x="403.289062" xlink:href="#DejaVuSans-4d"/>
     <use x="489.568359" xlink:href="#DejaVuSans-41"/>
    </g>
   </g>
   <g id="text_16">
    <!-- BFGS ros  -->
    <defs>
     <path d="M 9.8125 72.90625 
L 51.703125 72.90625 
L 51.703125 64.59375 
L 19.671875 64.59375 
L 19.671875 43.109375 
L 48.578125 43.109375 
L 48.578125 34.8125 
L 19.671875 34.8125 
L 19.671875 0 
L 9.8125 0 
z
" id="DejaVuSans-46"/>
     <path d="M 59.515625 10.40625 
L 59.515625 29.984375 
L 43.40625 29.984375 
L 43.40625 38.09375 
L 69.28125 38.09375 
L 69.28125 6.78125 
Q 63.578125 2.734375 56.6875 0.65625 
Q 49.8125 -1.421875 42 -1.421875 
Q 24.90625 -1.421875 15.25 8.5625 
Q 5.609375 18.5625 5.609375 36.375 
Q 5.609375 54.25 15.25 64.234375 
Q 24.90625 74.21875 42 74.21875 
Q 49.125 74.21875 55.546875 72.453125 
Q 61.96875 70.703125 67.390625 67.28125 
L 67.390625 56.78125 
Q 61.921875 61.421875 55.765625 63.765625 
Q 49.609375 66.109375 42.828125 66.109375 
Q 29.4375 66.109375 22.71875 58.640625 
Q 16.015625 51.171875 16.015625 36.375 
Q 16.015625 21.625 22.71875 14.15625 
Q 29.4375 6.6875 42.828125 6.6875 
Q 48.046875 6.6875 52.140625 7.59375 
Q 56.25 8.5 59.515625 10.40625 
z
" id="DejaVuSans-47"/>
    </defs>
    <g transform="translate(463.53888 170.369886)scale(0.14 -0.14)">
     <use xlink:href="#DejaVuSans-42"/>
     <use x="68.603516" xlink:href="#DejaVuSans-46"/>
     <use x="126.123047" xlink:href="#DejaVuSans-47"/>
     <use x="203.613281" xlink:href="#DejaVuSans-53"/>
     <use x="267.089844" xlink:href="#DejaVuSans-20"/>
     <use x="298.876953" xlink:href="#DejaVuSans-72"/>
     <use x="339.958984" xlink:href="#DejaVuSans-6f"/>
     <use x="401.140625" xlink:href="#DejaVuSans-73"/>
     <use x="453.240234" xlink:href="#DejaVuSans-20"/>
    </g>
   </g>
   <g id="text_17">
    <!-- lmm-CMA-E -->
    <g transform="translate(463.53888 128.21353)scale(0.14 -0.14)">
     <use xlink:href="#DejaVuSans-6c"/>
     <use x="27.783203" xlink:href="#DejaVuSans-6d"/>
     <use x="125.195312" xlink:href="#DejaVuSans-6d"/>
     <use x="222.607422" xlink:href="#DejaVuSans-2d"/>
     <use x="258.691406" xlink:href="#DejaVuSans-43"/>
     <use x="328.515625" xlink:href="#DejaVuSans-4d"/>
     <use x="414.794922" xlink:href="#DejaVuSans-41"/>
     <use x="483.171875" xlink:href="#DejaVuSans-2d"/>
     <use x="519.255859" xlink:href="#DejaVuSans-45"/>
    </g>
   </g>
   <g id="text_18">
    <!-- HCMA losh -->
    <defs>
     <path d="M 9.8125 72.90625 
L 19.671875 72.90625 
L 19.671875 43.015625 
L 55.515625 43.015625 
L 55.515625 72.90625 
L 65.375 72.90625 
L 65.375 0 
L 55.515625 0 
L 55.515625 34.71875 
L 19.671875 34.71875 
L 19.671875 0 
L 9.8125 0 
z
" id="DejaVuSans-48"/>
     <path d="M 54.890625 33.015625 
L 54.890625 0 
L 45.90625 0 
L 45.90625 32.71875 
Q 45.90625 40.484375 42.875 44.328125 
Q 39.84375 48.1875 33.796875 48.1875 
Q 26.515625 48.1875 22.3125 43.546875 
Q 18.109375 38.921875 18.109375 30.90625 
L 18.109375 0 
L 9.078125 0 
L 9.078125 75.984375 
L 18.109375 75.984375 
L 18.109375 46.1875 
Q 21.34375 51.125 25.703125 53.5625 
Q 30.078125 56 35.796875 56 
Q 45.21875 56 50.046875 50.171875 
Q 54.890625 44.34375 54.890625 33.015625 
z
" id="DejaVuSans-68"/>
    </defs>
    <g transform="translate(463.53888 86.057173)scale(0.14 -0.14)">
     <use xlink:href="#DejaVuSans-48"/>
     <use x="75.195312" xlink:href="#DejaVuSans-43"/>
     <use x="145.019531" xlink:href="#DejaVuSans-4d"/>
     <use x="231.298828" xlink:href="#DejaVuSans-41"/>
     <use x="299.707031" xlink:href="#DejaVuSans-20"/>
     <use x="331.494141" xlink:href="#DejaVuSans-6c"/>
     <use x="359.277344" xlink:href="#DejaVuSans-6f"/>
     <use x="420.458984" xlink:href="#DejaVuSans-73"/>
     <use x="472.558594" xlink:href="#DejaVuSans-68"/>
    </g>
   </g>
   <g id="text_19">
    <!-- best 2009 -->
    <defs>
     <path d="M 48.6875 27.296875 
Q 48.6875 37.203125 44.609375 42.84375 
Q 40.53125 48.484375 33.40625 48.484375 
Q 26.265625 48.484375 22.1875 42.84375 
Q 18.109375 37.203125 18.109375 27.296875 
Q 18.109375 17.390625 22.1875 11.75 
Q 26.265625 6.109375 33.40625 6.109375 
Q 40.53125 6.109375 44.609375 11.75 
Q 48.6875 17.390625 48.6875 27.296875 
z
M 18.109375 46.390625 
Q 20.953125 51.265625 25.265625 53.625 
Q 29.59375 56 35.59375 56 
Q 45.5625 56 51.78125 48.09375 
Q 58.015625 40.1875 58.015625 27.296875 
Q 58.015625 14.40625 51.78125 6.484375 
Q 45.5625 -1.421875 35.59375 -1.421875 
Q 29.59375 -1.421875 25.265625 0.953125 
Q 20.953125 3.328125 18.109375 8.203125 
L 18.109375 0 
L 9.078125 0 
L 9.078125 75.984375 
L 18.109375 75.984375 
z
" id="DejaVuSans-62"/>
     <path d="M 10.984375 1.515625 
L 10.984375 10.5 
Q 14.703125 8.734375 18.5 7.8125 
Q 22.3125 6.890625 25.984375 6.890625 
Q 35.75 6.890625 40.890625 13.453125 
Q 46.046875 20.015625 46.78125 33.40625 
Q 43.953125 29.203125 39.59375 26.953125 
Q 35.25 24.703125 29.984375 24.703125 
Q 19.046875 24.703125 12.671875 31.3125 
Q 6.296875 37.9375 6.296875 49.421875 
Q 6.296875 60.640625 12.9375 67.421875 
Q 19.578125 74.21875 30.609375 74.21875 
Q 43.265625 74.21875 49.921875 64.515625 
Q 56.59375 54.828125 56.59375 36.375 
Q 56.59375 19.140625 48.40625 8.859375 
Q 40.234375 -1.421875 26.421875 -1.421875 
Q 22.703125 -1.421875 18.890625 -0.6875 
Q 15.09375 0.046875 10.984375 1.515625 
z
M 30.609375 32.421875 
Q 37.25 32.421875 41.125 36.953125 
Q 45.015625 41.5 45.015625 49.421875 
Q 45.015625 57.28125 41.125 61.84375 
Q 37.25 66.40625 30.609375 66.40625 
Q 23.96875 66.40625 20.09375 61.84375 
Q 16.21875 57.28125 16.21875 49.421875 
Q 16.21875 41.5 20.09375 36.953125 
Q 23.96875 32.421875 30.609375 32.421875 
z
" id="DejaVuSans-39"/>
    </defs>
    <g transform="translate(463.53888 43.900817)scale(0.14 -0.14)">
     <use xlink:href="#DejaVuSans-62"/>
     <use x="63.476562" xlink:href="#DejaVuSans-65"/>
     <use x="125" xlink:href="#DejaVuSans-73"/>
     <use x="177.099609" xlink:href="#DejaVuSans-74"/>
     <use x="216.308594" xlink:href="#DejaVuSans-20"/>
     <use x="248.095703" xlink:href="#DejaVuSans-32"/>
     <use x="311.71875" xlink:href="#DejaVuSans-30"/>
     <use x="375.341797" xlink:href="#DejaVuSans-30"/>
     <use x="438.964844" xlink:href="#DejaVuSans-39"/>
    </g>
   </g>
   <g id="text_20">
    <!-- bbob - f2, 20-D -->
    <defs>
     <path d="M 11.71875 12.40625 
L 22.015625 12.40625 
L 22.015625 4 
L 14.015625 -11.625 
L 7.71875 -11.625 
L 11.71875 4 
z
" id="DejaVuSans-2c"/>
    </defs>
    <g transform="translate(141.67008 50.114612)scale(0.1666 -0.1666)">
     <use xlink:href="#DejaVuSans-62"/>
     <use x="63.476562" xlink:href="#DejaVuSans-62"/>
     <use x="126.953125" xlink:href="#DejaVuSans-6f"/>
     <use x="188.134766" xlink:href="#DejaVuSans-62"/>
     <use x="251.611328" xlink:href="#DejaVuSans-20"/>
     <use x="283.398438" xlink:href="#DejaVuSans-2d"/>
     <use x="319.482422" xlink:href="#DejaVuSans-20"/>
     <use x="351.269531" xlink:href="#DejaVuSans-66"/>
     <use x="386.474609" xlink:href="#DejaVuSans-32"/>
     <use x="450.097656" xlink:href="#DejaVuSans-2c"/>
     <use x="481.884766" xlink:href="#DejaVuSans-20"/>
     <use x="513.671875" xlink:href="#DejaVuSans-32"/>
     <use x="577.294922" xlink:href="#DejaVuSans-30"/>
     <use x="640.917969" xlink:href="#DejaVuSans-2d"/>
     <use x="677.001953" xlink:href="#DejaVuSans-44"/>
    </g>
    <!-- 31 target RLs/dim: 0.5..50 -->
    <defs>
     <path d="M 9.8125 72.90625 
L 19.671875 72.90625 
L 19.671875 8.296875 
L 55.171875 8.296875 
L 55.171875 0 
L 9.8125 0 
z
" id="DejaVuSans-4c"/>
     <path d="M 11.71875 12.40625 
L 22.015625 12.40625 
L 22.015625 0 
L 11.71875 0 
z
M 11.71875 51.703125 
L 22.015625 51.703125 
L 22.015625 39.3125 
L 11.71875 39.3125 
z
" id="DejaVuSans-3a"/>
     <path d="M 10.796875 72.90625 
L 49.515625 72.90625 
L 49.515625 64.59375 
L 19.828125 64.59375 
L 19.828125 46.734375 
Q 21.96875 47.46875 24.109375 47.828125 
Q 26.265625 48.1875 28.421875 48.1875 
Q 40.625 48.1875 47.75 41.5 
Q 54.890625 34.8125 54.890625 23.390625 
Q 54.890625 11.625 47.5625 5.09375 
Q 40.234375 -1.421875 26.90625 -1.421875 
Q 22.3125 -1.421875 17.546875 -0.640625 
Q 12.796875 0.140625 7.71875 1.703125 
L 7.71875 11.625 
Q 12.109375 9.234375 16.796875 8.0625 
Q 21.484375 6.890625 26.703125 6.890625 
Q 35.15625 6.890625 40.078125 11.328125 
Q 45.015625 15.765625 45.015625 23.390625 
Q 45.015625 31 40.078125 35.4375 
Q 35.15625 39.890625 26.703125 39.890625 
Q 22.75 39.890625 18.8125 39.015625 
Q 14.890625 38.140625 10.796875 36.28125 
z
" id="DejaVuSans-35"/>
    </defs>
    <g transform="translate(141.67008 68.770168)scale(0.1666 -0.1666)">
     <use xlink:href="#DejaVuSans-33"/>
     <use x="63.623047" xlink:href="#DejaVuSans-31"/>
     <use x="127.246094" xlink:href="#DejaVuSans-20"/>
     <use x="159.033203" xlink:href="#DejaVuSans-74"/>
     <use x="198.242188" xlink:href="#DejaVuSans-61"/>
     <use x="259.521484" xlink:href="#DejaVuSans-72"/>
     <use x="300.619141" xlink:href="#DejaVuSans-67"/>
     <use x="364.095703" xlink:href="#DejaVuSans-65"/>
     <use x="425.619141" xlink:href="#DejaVuSans-74"/>
     <use x="464.828125" xlink:href="#DejaVuSans-20"/>
     <use x="496.615234" xlink:href="#DejaVuSans-52"/>
     <use x="566.097656" xlink:href="#DejaVuSans-4c"/>
     <use x="621.810547" xlink:href="#DejaVuSans-73"/>
     <use x="673.910156" xlink:href="#DejaVuSans-2f"/>
     <use x="707.601562" xlink:href="#DejaVuSans-64"/>
     <use x="771.078125" xlink:href="#DejaVuSans-69"/>
     <use x="798.861328" xlink:href="#DejaVuSans-6d"/>
     <use x="896.273438" xlink:href="#DejaVuSans-3a"/>
     <use x="929.964844" xlink:href="#DejaVuSans-20"/>
     <use x="961.751953" xlink:href="#DejaVuSans-30"/>
     <use x="1025.375" xlink:href="#DejaVuSans-2e"/>
     <use x="1057.162109" xlink:href="#DejaVuSans-35"/>
     <use x="1120.785156" xlink:href="#DejaVuSans-2e"/>
     <use x="1152.572266" xlink:href="#DejaVuSans-2e"/>
     <use x="1184.359375" xlink:href="#DejaVuSans-35"/>
     <use x="1247.982422" xlink:href="#DejaVuSans-30"/>
    </g>
    <!--    from refalgs/best2009-bbob.tar.gz -->
    <defs>
     <path d="M 5.515625 54.6875 
L 48.1875 54.6875 
L 48.1875 46.484375 
L 14.40625 7.171875 
L 48.1875 7.171875 
L 48.1875 0 
L 4.296875 0 
L 4.296875 8.203125 
L 38.09375 47.515625 
L 5.515625 47.515625 
z
" id="DejaVuSans-7a"/>
    </defs>
    <g transform="translate(141.67008 87.425723)scale(0.1666 -0.1666)">
     <use xlink:href="#DejaVuSans-20"/>
     <use x="31.787109" xlink:href="#DejaVuSans-20"/>
     <use x="63.574219" xlink:href="#DejaVuSans-20"/>
     <use x="95.361328" xlink:href="#DejaVuSans-66"/>
     <use x="130.566406" xlink:href="#DejaVuSans-72"/>
     <use x="171.648438" xlink:href="#DejaVuSans-6f"/>
     <use x="232.830078" xlink:href="#DejaVuSans-6d"/>
     <use x="330.242188" xlink:href="#DejaVuSans-20"/>
     <use x="362.029297" xlink:href="#DejaVuSans-72"/>
     <use x="403.111328" xlink:href="#DejaVuSans-65"/>
     <use x="464.634766" xlink:href="#DejaVuSans-66"/>
     <use x="499.839844" xlink:href="#DejaVuSans-61"/>
     <use x="561.119141" xlink:href="#DejaVuSans-6c"/>
     <use x="588.902344" xlink:href="#DejaVuSans-67"/>
     <use x="652.378906" xlink:href="#DejaVuSans-73"/>
     <use x="704.478516" xlink:href="#DejaVuSans-2f"/>
     <use x="738.169922" xlink:href="#DejaVuSans-62"/>
     <use x="801.646484" xlink:href="#DejaVuSans-65"/>
     <use x="863.169922" xlink:href="#DejaVuSans-73"/>
     <use x="915.269531" xlink:href="#DejaVuSans-74"/>
     <use x="954.478516" xlink:href="#DejaVuSans-32"/>
     <use x="1018.101562" xlink:href="#DejaVuSans-30"/>
     <use x="1081.724609" xlink:href="#DejaVuSans-30"/>
     <use x="1145.347656" xlink:href="#DejaVuSans-39"/>
     <use x="1208.970703" xlink:href="#DejaVuSans-2d"/>
     <use x="1245.054688" xlink:href="#DejaVuSans-62"/>
     <use x="1308.53125" xlink:href="#DejaVuSans-62"/>
     <use x="1372.007812" xlink:href="#DejaVuSans-6f"/>
     <use x="1433.189453" xlink:href="#DejaVuSans-62"/>
     <use x="1496.666016" xlink:href="#DejaVuSans-2e"/>
     <use x="1528.453125" xlink:href="#DejaVuSans-74"/>
     <use x="1567.662109" xlink:href="#DejaVuSans-61"/>
     <use x="1628.941406" xlink:href="#DejaVuSans-72"/>
     <use x="1669.914062" xlink:href="#DejaVuSans-2e"/>
     <use x="1701.701172" xlink:href="#DejaVuSans-67"/>
     <use x="1765.177734" xlink:href="#DejaVuSans-7a"/>
    </g>
    <!-- 15 instances -->
    <g transform="translate(141.67008 106.081279)scale(0.1666 -0.1666)">
     <use xlink:href="#DejaVuSans-31"/>
     <use x="63.623047" xlink:href="#DejaVuSans-35"/>
     <use x="127.246094" xlink:href="#DejaVuSans-20"/>
     <use x="159.033203" xlink:href="#DejaVuSans-69"/>
     <use x="186.816406" xlink:href="#DejaVuSans-6e"/>
     <use x="250.195312" xlink:href="#DejaVuSans-73"/>
     <use x="302.294922" xlink:href="#DejaVuSans-74"/>
     <use x="341.503906" xlink:href="#DejaVuSans-61"/>
     <use x="402.783203" xlink:href="#DejaVuSans-6e"/>
     <use x="466.162109" xlink:href="#DejaVuSans-63"/>
     <use x="521.142578" xlink:href="#DejaVuSans-65"/>
     <use x="582.666016" xlink:href="#DejaVuSans-73"/>
    </g>
   </g>
   <g id="text_21">
    <!-- v2.0.480 -->
    <g style="fill:#808080;" transform="translate(294.61513 293.504568)scale(0.1 -0.1)">
     <use xlink:href="#DejaVuSans-76"/>
     <use x="59.179688" xlink:href="#DejaVuSans-32"/>
     <use x="122.802734" xlink:href="#DejaVuSans-2e"/>
     <use x="154.589844" xlink:href="#DejaVuSans-30"/>
     <use x="218.212891" xlink:href="#DejaVuSans-2e"/>
     <use x="250" xlink:href="#DejaVuSans-34"/>
     <use x="313.623047" xlink:href="#DejaVuSans-38"/>
     <use x="377.246094" xlink:href="#DejaVuSans-30"/>
    </g>
   </g>
   <g id="text_22">
    <!-- 2 Ellipsoid separable -->
    <g transform="translate(192.419505 26.133375)scale(0.24 -0.24)">
     <use xlink:href="#DejaVuSans-32"/>
     <use x="63.623047" xlink:href="#DejaVuSans-20"/>
     <use x="95.410156" xlink:href="#DejaVuSans-45"/>
     <use x="158.59375" xlink:href="#DejaVuSans-6c"/>
     <use x="186.376953" xlink:href="#DejaVuSans-6c"/>
     <use x="214.160156" xlink:href="#DejaVuSans-69"/>
     <use x="241.943359" xlink:href="#DejaVuSans-70"/>
     <use x="305.419922" xlink:href="#DejaVuSans-73"/>
     <use x="357.519531" xlink:href="#DejaVuSans-6f"/>
     <use x="418.701172" xlink:href="#DejaVuSans-69"/>
     <use x="446.484375" xlink:href="#DejaVuSans-64"/>
     <use x="509.960938" xlink:href="#DejaVuSans-20"/>
     <use x="541.748047" xlink:href="#DejaVuSans-73"/>
     <use x="593.847656" xlink:href="#DejaVuSans-65"/>
     <use x="655.371094" xlink:href="#DejaVuSans-70"/>
     <use x="718.847656" xlink:href="#DejaVuSans-61"/>
     <use x="780.126953" xlink:href="#DejaVuSans-72"/>
     <use x="821.240234" xlink:href="#DejaVuSans-61"/>
     <use x="882.519531" xlink:href="#DejaVuSans-62"/>
     <use x="945.996094" xlink:href="#DejaVuSans-6c"/>
     <use x="973.779297" xlink:href="#DejaVuSans-65"/>
    </g>
   </g>
  </g>
 </g>
 <defs>
  <clipPath id="p2c2658146e">
   <rect height="266.112" width="357.12" x="138.09888" y="32.133375"/>
  </clipPath>
 </defs>
</svg>
