<?xml version="1.0" encoding="utf-8" standalone="no"?>
<!DOCTYPE svg PUBLIC "-//W3C//DTD SVG 1.1//EN"
  "http://www.w3.org/Graphics/SVG/1.1/DTD/svg11.dtd">
<!-- Created with matplotlib (http://matplotlib.org/) -->
<svg height="353pt" version="1.1" viewBox="0 0 481 353" width="481pt" xmlns="http://www.w3.org/2000/svg" xmlns:xlink="http://www.w3.org/1999/xlink">
 <defs>
  <style type="text/css">
*{stroke-linecap:butt;stroke-linejoin:round;}
  </style>
 </defs>
 <g id="figure_1">
  <g id="patch_1">
   <path d="M 0 353.22225 
L 481.578281 353.22225 
L 481.578281 0 
L 0 0 
z
" style="fill:#ffffff;"/>
  </g>
  <g id="axes_1">
   <g id="patch_2">
    <path d="M 70.8 298.245375 
L 427.92 298.245375 
L 427.92 32.133375 
L 70.8 32.133375 
z
" style="fill:#ffffff;"/>
   </g>
   <g id="matplotlib.axis_1">
    <g id="xtick_1">
     <g id="line2d_1">
      <path clip-path="url(#pf200771d85)" d="M 70.8 298.245375 
L 70.8 32.133375 
" style="fill:none;stroke:#b0b0b0;stroke-linecap:square;stroke-width:0.8;"/>
     </g>
     <g id="line2d_2">
      <defs>
       <path d="M 0 0 
L 0 3.5 
" id="m342dc9d7b1" style="stroke:#000000;stroke-width:0.8;"/>
      </defs>
      <g>
       <use style="stroke:#000000;stroke-width:0.8;" x="70.8" xlink:href="#m342dc9d7b1" y="298.245375"/>
      </g>
     </g>
     <g id="text_1">
      <!-- 0 -->
      <defs>
       <path d="M 31.78125 66.40625 
Q 24.171875 66.40625 20.328125 58.90625 
Q 16.5 51.421875 16.5 36.375 
Q 16.5 21.390625 20.328125 13.890625 
Q 24.171875 6.390625 31.78125 6.390625 
Q 39.453125 6.390625 43.28125 13.890625 
Q 47.125 21.390625 47.125 36.375 
Q 47.125 51.421875 43.28125 58.90625 
Q 39.453125 66.40625 31.78125 66.40625 
z
M 31.78125 74.21875 
Q 44.046875 74.21875 50.515625 64.515625 
Q 56.984375 54.828125 56.984375 36.375 
Q 56.984375 17.96875 50.515625 8.265625 
Q 44.046875 -1.421875 31.78125 -1.421875 
Q 19.53125 -1.421875 13.0625 8.265625 
Q 6.59375 17.96875 6.59375 36.375 
Q 6.59375 54.828125 13.0625 64.515625 
Q 19.53125 74.21875 31.78125 74.21875 
z
" id="DejaVuSans-30"/>
      </defs>
      <g transform="translate(64.4375 320.44225)scale(0.2 -0.2)">
       <use xlink:href="#DejaVuSans-30"/>
      </g>
     </g>
    </g>
    <g id="xtick_2">
     <g id="line2d_3">
      <path clip-path="url(#pf200771d85)" d="M 153.085714 298.245375 
L 153.085714 32.133375 
" style="fill:none;stroke:#b0b0b0;stroke-linecap:square;stroke-width:0.8;"/>
     </g>
     <g id="line2d_4">
      <g>
       <use style="stroke:#000000;stroke-width:0.8;" x="153.085714" xlink:href="#m342dc9d7b1" y="298.245375"/>
      </g>
     </g>
     <g id="text_2">
      <!-- 2 -->
      <defs>
       <path d="M 19.1875 8.296875 
L 53.609375 8.296875 
L 53.609375 0 
L 7.328125 0 
L 7.328125 8.296875 
Q 12.9375 14.109375 22.625 23.890625 
Q 32.328125 33.6875 34.8125 36.53125 
Q 39.546875 41.84375 41.421875 45.53125 
Q 43.3125 49.21875 43.3125 52.78125 
Q 43.3125 58.59375 39.234375 62.25 
Q 35.15625 65.921875 28.609375 65.921875 
Q 23.96875 65.921875 18.8125 64.3125 
Q 13.671875 62.703125 7.8125 59.421875 
L 7.8125 69.390625 
Q 13.765625 71.78125 18.9375 73 
Q 24.125 74.21875 28.421875 74.21875 
Q 39.75 74.21875 46.484375 68.546875 
Q 53.21875 62.890625 53.21875 53.421875 
Q 53.21875 48.921875 51.53125 44.890625 
Q 49.859375 40.875 45.40625 35.40625 
Q 44.1875 33.984375 37.640625 27.21875 
Q 31.109375 20.453125 19.1875 8.296875 
z
" id="DejaVuSans-32"/>
      </defs>
      <g transform="translate(146.723214 320.44225)scale(0.2 -0.2)">
       <use xlink:href="#DejaVuSans-32"/>
      </g>
     </g>
    </g>
    <g id="xtick_3">
     <g id="line2d_5">
      <path clip-path="url(#pf200771d85)" d="M 235.371429 298.245375 
L 235.371429 32.133375 
" style="fill:none;stroke:#b0b0b0;stroke-linecap:square;stroke-width:0.8;"/>
     </g>
     <g id="line2d_6">
      <g>
       <use style="stroke:#000000;stroke-width:0.8;" x="235.371429" xlink:href="#m342dc9d7b1" y="298.245375"/>
      </g>
     </g>
     <g id="text_3">
      <!-- 4 -->
      <defs>
       <path d="M 37.796875 64.3125 
L 12.890625 25.390625 
L 37.796875 25.390625 
z
M 35.203125 72.90625 
L 47.609375 72.90625 
L 47.609375 25.390625 
L 58.015625 25.390625 
L 58.015625 17.1875 
L 47.609375 17.1875 
L 47.609375 0 
L 37.796875 0 
L 37.796875 17.1875 
L 4.890625 17.1875 
L 4.890625 26.703125 
z
" id="DejaVuSans-34"/>
      </defs>
      <g transform="translate(229.008929 320.44225)scale(0.2 -0.2)">
       <use xlink:href="#DejaVuSans-34"/>
      </g>
     </g>
    </g>
    <g id="xtick_4">
     <g id="line2d_7">
      <path clip-path="url(#pf200771d85)" d="M 317.657143 298.245375 
L 317.657143 32.133375 
" style="fill:none;stroke:#b0b0b0;stroke-linecap:square;stroke-width:0.8;"/>
     </g>
     <g id="line2d_8">
      <g>
       <use style="stroke:#000000;stroke-width:0.8;" x="317.657143" xlink:href="#m342dc9d7b1" y="298.245375"/>
      </g>
     </g>
     <g id="text_4">
      <!-- 6 -->
      <defs>
       <path d="M 33.015625 40.375 
Q 26.375 40.375 22.484375 35.828125 
Q 18.609375 31.296875 18.609375 23.390625 
Q 18.609375 15.53125 22.484375 10.953125 
Q 26.375 6.390625 33.015625 6.390625 
Q 39.65625 6.390625 43.53125 10.953125 
Q 47.40625 15.53125 47.40625 23.390625 
Q 47.40625 31.296875 43.53125 35.828125 
Q 39.65625 40.375 33.015625 40.375 
z
M 52.59375 71.296875 
L 52.59375 62.3125 
Q 48.875 64.0625 45.09375 64.984375 
Q 41.3125 65.921875 37.59375 65.921875 
Q 27.828125 65.921875 22.671875 59.328125 
Q 17.53125 52.734375 16.796875 39.40625 
Q 19.671875 43.65625 24.015625 45.921875 
Q 28.375 48.1875 33.59375 48.1875 
Q 44.578125 48.1875 50.953125 41.515625 
Q 57.328125 34.859375 57.328125 23.390625 
Q 57.328125 12.15625 50.6875 5.359375 
Q 44.046875 -1.421875 33.015625 -1.421875 
Q 20.359375 -1.421875 13.671875 8.265625 
Q 6.984375 17.96875 6.984375 36.375 
Q 6.984375 53.65625 15.1875 63.9375 
Q 23.390625 74.21875 37.203125 74.21875 
Q 40.921875 74.21875 44.703125 73.484375 
Q 48.484375 72.75 52.59375 71.296875 
z
" id="DejaVuSans-36"/>
      </defs>
      <g transform="translate(311.294643 320.44225)scale(0.2 -0.2)">
       <use xlink:href="#DejaVuSans-36"/>
      </g>
     </g>
    </g>
    <g id="xtick_5">
     <g id="line2d_9">
      <path clip-path="url(#pf200771d85)" d="M 399.942857 298.245375 
L 399.942857 32.133375 
" style="fill:none;stroke:#b0b0b0;stroke-linecap:square;stroke-width:0.8;"/>
     </g>
     <g id="line2d_10">
      <g>
       <use style="stroke:#000000;stroke-width:0.8;" x="399.942857" xlink:href="#m342dc9d7b1" y="298.245375"/>
      </g>
     </g>
     <g id="text_5">
      <!-- 8 -->
      <defs>
       <path d="M 31.78125 34.625 
Q 24.75 34.625 20.71875 30.859375 
Q 16.703125 27.09375 16.703125 20.515625 
Q 16.703125 13.921875 20.71875 10.15625 
Q 24.75 6.390625 31.78125 6.390625 
Q 38.8125 6.390625 42.859375 10.171875 
Q 46.921875 13.96875 46.921875 20.515625 
Q 46.921875 27.09375 42.890625 30.859375 
Q 38.875 34.625 31.78125 34.625 
z
M 21.921875 38.8125 
Q 15.578125 40.375 12.03125 44.71875 
Q 8.5 49.078125 8.5 55.328125 
Q 8.5 64.0625 14.71875 69.140625 
Q 20.953125 74.21875 31.78125 74.21875 
Q 42.671875 74.21875 48.875 69.140625 
Q 55.078125 64.0625 55.078125 55.328125 
Q 55.078125 49.078125 51.53125 44.71875 
Q 48 40.375 41.703125 38.8125 
Q 48.828125 37.15625 52.796875 32.3125 
Q 56.78125 27.484375 56.78125 20.515625 
Q 56.78125 9.90625 50.3125 4.234375 
Q 43.84375 -1.421875 31.78125 -1.421875 
Q 19.734375 -1.421875 13.25 4.234375 
Q 6.78125 9.90625 6.78125 20.515625 
Q 6.78125 27.484375 10.78125 32.3125 
Q 14.796875 37.15625 21.921875 38.8125 
z
M 18.3125 54.390625 
Q 18.3125 48.734375 21.84375 45.5625 
Q 25.390625 42.390625 31.78125 42.390625 
Q 38.140625 42.390625 41.71875 45.5625 
Q 45.3125 48.734375 45.3125 54.390625 
Q 45.3125 60.0625 41.71875 63.234375 
Q 38.140625 66.40625 31.78125 66.40625 
Q 25.390625 66.40625 21.84375 63.234375 
Q 18.3125 60.0625 18.3125 54.390625 
z
" id="DejaVuSans-38"/>
      </defs>
      <g transform="translate(393.580357 320.44225)scale(0.2 -0.2)">
       <use xlink:href="#DejaVuSans-38"/>
      </g>
     </g>
    </g>
    <g id="text_6">
     <!-- log10 of # (f+g)-evals / dimension -->
     <defs>
      <path d="M 9.421875 75.984375 
L 18.40625 75.984375 
L 18.40625 0 
L 9.421875 0 
z
" id="DejaVuSans-6c"/>
      <path d="M 30.609375 48.390625 
Q 23.390625 48.390625 19.1875 42.75 
Q 14.984375 37.109375 14.984375 27.296875 
Q 14.984375 17.484375 19.15625 11.84375 
Q 23.34375 6.203125 30.609375 6.203125 
Q 37.796875 6.203125 41.984375 11.859375 
Q 46.1875 17.53125 46.1875 27.296875 
Q 46.1875 37.015625 41.984375 42.703125 
Q 37.796875 48.390625 30.609375 48.390625 
z
M 30.609375 56 
Q 42.328125 56 49.015625 48.375 
Q 55.71875 40.765625 55.71875 27.296875 
Q 55.71875 13.875 49.015625 6.21875 
Q 42.328125 -1.421875 30.609375 -1.421875 
Q 18.84375 -1.421875 12.171875 6.21875 
Q 5.515625 13.875 5.515625 27.296875 
Q 5.515625 40.765625 12.171875 48.375 
Q 18.84375 56 30.609375 56 
z
" id="DejaVuSans-6f"/>
      <path d="M 45.40625 27.984375 
Q 45.40625 37.75 41.375 43.109375 
Q 37.359375 48.484375 30.078125 48.484375 
Q 22.859375 48.484375 18.828125 43.109375 
Q 14.796875 37.75 14.796875 27.984375 
Q 14.796875 18.265625 18.828125 12.890625 
Q 22.859375 7.515625 30.078125 7.515625 
Q 37.359375 7.515625 41.375 12.890625 
Q 45.40625 18.265625 45.40625 27.984375 
z
M 54.390625 6.78125 
Q 54.390625 -7.171875 48.1875 -13.984375 
Q 42 -20.796875 29.203125 -20.796875 
Q 24.46875 -20.796875 20.265625 -20.09375 
Q 16.0625 -19.390625 12.109375 -17.921875 
L 12.109375 -9.1875 
Q 16.0625 -11.328125 19.921875 -12.34375 
Q 23.78125 -13.375 27.78125 -13.375 
Q 36.625 -13.375 41.015625 -8.765625 
Q 45.40625 -4.15625 45.40625 5.171875 
L 45.40625 9.625 
Q 42.625 4.78125 38.28125 2.390625 
Q 33.9375 0 27.875 0 
Q 17.828125 0 11.671875 7.65625 
Q 5.515625 15.328125 5.515625 27.984375 
Q 5.515625 40.671875 11.671875 48.328125 
Q 17.828125 56 27.875 56 
Q 33.9375 56 38.28125 53.609375 
Q 42.625 51.21875 45.40625 46.390625 
L 45.40625 54.6875 
L 54.390625 54.6875 
z
" id="DejaVuSans-67"/>
      <path d="M 12.40625 8.296875 
L 28.515625 8.296875 
L 28.515625 63.921875 
L 10.984375 60.40625 
L 10.984375 69.390625 
L 28.421875 72.90625 
L 38.28125 72.90625 
L 38.28125 8.296875 
L 54.390625 8.296875 
L 54.390625 0 
L 12.40625 0 
z
" id="DejaVuSans-31"/>
      <path id="DejaVuSans-20"/>
      <path d="M 37.109375 75.984375 
L 37.109375 68.5 
L 28.515625 68.5 
Q 23.6875 68.5 21.796875 66.546875 
Q 19.921875 64.59375 19.921875 59.515625 
L 19.921875 54.6875 
L 34.71875 54.6875 
L 34.71875 47.703125 
L 19.921875 47.703125 
L 19.921875 0 
L 10.890625 0 
L 10.890625 47.703125 
L 2.296875 47.703125 
L 2.296875 54.6875 
L 10.890625 54.6875 
L 10.890625 58.5 
Q 10.890625 67.625 15.140625 71.796875 
Q 19.390625 75.984375 28.609375 75.984375 
z
" id="DejaVuSans-66"/>
      <path d="M 51.125 44 
L 36.921875 44 
L 32.8125 27.6875 
L 47.125 27.6875 
z
M 43.796875 71.78125 
L 38.71875 51.515625 
L 52.984375 51.515625 
L 58.109375 71.78125 
L 65.921875 71.78125 
L 60.890625 51.515625 
L 76.125 51.515625 
L 76.125 44 
L 58.984375 44 
L 54.984375 27.6875 
L 70.515625 27.6875 
L 70.515625 20.21875 
L 53.078125 20.21875 
L 48 0 
L 40.1875 0 
L 45.21875 20.21875 
L 30.90625 20.21875 
L 25.875 0 
L 18.015625 0 
L 23.09375 20.21875 
L 7.71875 20.21875 
L 7.71875 27.6875 
L 24.90625 27.6875 
L 29 44 
L 13.28125 44 
L 13.28125 51.515625 
L 30.90625 51.515625 
L 35.890625 71.78125 
z
" id="DejaVuSans-23"/>
      <path d="M 31 75.875 
Q 24.46875 64.65625 21.28125 53.65625 
Q 18.109375 42.671875 18.109375 31.390625 
Q 18.109375 20.125 21.3125 9.0625 
Q 24.515625 -2 31 -13.1875 
L 23.1875 -13.1875 
Q 15.875 -1.703125 12.234375 9.375 
Q 8.59375 20.453125 8.59375 31.390625 
Q 8.59375 42.28125 12.203125 53.3125 
Q 15.828125 64.359375 23.1875 75.875 
z
" id="DejaVuSans-28"/>
      <path d="M 46 62.703125 
L 46 35.5 
L 73.1875 35.5 
L 73.1875 27.203125 
L 46 27.203125 
L 46 0 
L 37.796875 0 
L 37.796875 27.203125 
L 10.59375 27.203125 
L 10.59375 35.5 
L 37.796875 35.5 
L 37.796875 62.703125 
z
" id="DejaVuSans-2b"/>
      <path d="M 8.015625 75.875 
L 15.828125 75.875 
Q 23.140625 64.359375 26.78125 53.3125 
Q 30.421875 42.28125 30.421875 31.390625 
Q 30.421875 20.453125 26.78125 9.375 
Q 23.140625 -1.703125 15.828125 -13.1875 
L 8.015625 -13.1875 
Q 14.5 -2 17.703125 9.0625 
Q 20.90625 20.125 20.90625 31.390625 
Q 20.90625 42.671875 17.703125 53.65625 
Q 14.5 64.65625 8.015625 75.875 
z
" id="DejaVuSans-29"/>
      <path d="M 4.890625 31.390625 
L 31.203125 31.390625 
L 31.203125 23.390625 
L 4.890625 23.390625 
z
" id="DejaVuSans-2d"/>
      <path d="M 56.203125 29.59375 
L 56.203125 25.203125 
L 14.890625 25.203125 
Q 15.484375 15.921875 20.484375 11.0625 
Q 25.484375 6.203125 34.421875 6.203125 
Q 39.59375 6.203125 44.453125 7.46875 
Q 49.3125 8.734375 54.109375 11.28125 
L 54.109375 2.78125 
Q 49.265625 0.734375 44.1875 -0.34375 
Q 39.109375 -1.421875 33.890625 -1.421875 
Q 20.796875 -1.421875 13.15625 6.1875 
Q 5.515625 13.8125 5.515625 26.8125 
Q 5.515625 40.234375 12.765625 48.109375 
Q 20.015625 56 32.328125 56 
Q 43.359375 56 49.78125 48.890625 
Q 56.203125 41.796875 56.203125 29.59375 
z
M 47.21875 32.234375 
Q 47.125 39.59375 43.09375 43.984375 
Q 39.0625 48.390625 32.421875 48.390625 
Q 24.90625 48.390625 20.390625 44.140625 
Q 15.875 39.890625 15.1875 32.171875 
z
" id="DejaVuSans-65"/>
      <path d="M 2.984375 54.6875 
L 12.5 54.6875 
L 29.59375 8.796875 
L 46.6875 54.6875 
L 56.203125 54.6875 
L 35.6875 0 
L 23.484375 0 
z
" id="DejaVuSans-76"/>
      <path d="M 34.28125 27.484375 
Q 23.390625 27.484375 19.1875 25 
Q 14.984375 22.515625 14.984375 16.5 
Q 14.984375 11.71875 18.140625 8.90625 
Q 21.296875 6.109375 26.703125 6.109375 
Q 34.1875 6.109375 38.703125 11.40625 
Q 43.21875 16.703125 43.21875 25.484375 
L 43.21875 27.484375 
z
M 52.203125 31.203125 
L 52.203125 0 
L 43.21875 0 
L 43.21875 8.296875 
Q 40.140625 3.328125 35.546875 0.953125 
Q 30.953125 -1.421875 24.3125 -1.421875 
Q 15.921875 -1.421875 10.953125 3.296875 
Q 6 8.015625 6 15.921875 
Q 6 25.140625 12.171875 29.828125 
Q 18.359375 34.515625 30.609375 34.515625 
L 43.21875 34.515625 
L 43.21875 35.40625 
Q 43.21875 41.609375 39.140625 45 
Q 35.0625 48.390625 27.6875 48.390625 
Q 23 48.390625 18.546875 47.265625 
Q 14.109375 46.140625 10.015625 43.890625 
L 10.015625 52.203125 
Q 14.9375 54.109375 19.578125 55.046875 
Q 24.21875 56 28.609375 56 
Q 40.484375 56 46.34375 49.84375 
Q 52.203125 43.703125 52.203125 31.203125 
z
" id="DejaVuSans-61"/>
      <path d="M 44.28125 53.078125 
L 44.28125 44.578125 
Q 40.484375 46.53125 36.375 47.5 
Q 32.28125 48.484375 27.875 48.484375 
Q 21.1875 48.484375 17.84375 46.4375 
Q 14.5 44.390625 14.5 40.28125 
Q 14.5 37.15625 16.890625 35.375 
Q 19.28125 33.59375 26.515625 31.984375 
L 29.59375 31.296875 
Q 39.15625 29.25 43.1875 25.515625 
Q 47.21875 21.78125 47.21875 15.09375 
Q 47.21875 7.46875 41.1875 3.015625 
Q 35.15625 -1.421875 24.609375 -1.421875 
Q 20.21875 -1.421875 15.453125 -0.5625 
Q 10.6875 0.296875 5.421875 2 
L 5.421875 11.28125 
Q 10.40625 8.6875 15.234375 7.390625 
Q 20.0625 6.109375 24.8125 6.109375 
Q 31.15625 6.109375 34.5625 8.28125 
Q 37.984375 10.453125 37.984375 14.40625 
Q 37.984375 18.0625 35.515625 20.015625 
Q 33.0625 21.96875 24.703125 23.78125 
L 21.578125 24.515625 
Q 13.234375 26.265625 9.515625 29.90625 
Q 5.8125 33.546875 5.8125 39.890625 
Q 5.8125 47.609375 11.28125 51.796875 
Q 16.75 56 26.8125 56 
Q 31.78125 56 36.171875 55.265625 
Q 40.578125 54.546875 44.28125 53.078125 
z
" id="DejaVuSans-73"/>
      <path d="M 25.390625 72.90625 
L 33.6875 72.90625 
L 8.296875 -9.28125 
L 0 -9.28125 
z
" id="DejaVuSans-2f"/>
      <path d="M 45.40625 46.390625 
L 45.40625 75.984375 
L 54.390625 75.984375 
L 54.390625 0 
L 45.40625 0 
L 45.40625 8.203125 
Q 42.578125 3.328125 38.25 0.953125 
Q 33.9375 -1.421875 27.875 -1.421875 
Q 17.96875 -1.421875 11.734375 6.484375 
Q 5.515625 14.40625 5.515625 27.296875 
Q 5.515625 40.1875 11.734375 48.09375 
Q 17.96875 56 27.875 56 
Q 33.9375 56 38.25 53.625 
Q 42.578125 51.265625 45.40625 46.390625 
z
M 14.796875 27.296875 
Q 14.796875 17.390625 18.875 11.75 
Q 22.953125 6.109375 30.078125 6.109375 
Q 37.203125 6.109375 41.296875 11.75 
Q 45.40625 17.390625 45.40625 27.296875 
Q 45.40625 37.203125 41.296875 42.84375 
Q 37.203125 48.484375 30.078125 48.484375 
Q 22.953125 48.484375 18.875 42.84375 
Q 14.796875 37.203125 14.796875 27.296875 
z
" id="DejaVuSans-64"/>
      <path d="M 9.421875 54.6875 
L 18.40625 54.6875 
L 18.40625 0 
L 9.421875 0 
z
M 9.421875 75.984375 
L 18.40625 75.984375 
L 18.40625 64.59375 
L 9.421875 64.59375 
z
" id="DejaVuSans-69"/>
      <path d="M 52 44.1875 
Q 55.375 50.25 60.0625 53.125 
Q 64.75 56 71.09375 56 
Q 79.640625 56 84.28125 50.015625 
Q 88.921875 44.046875 88.921875 33.015625 
L 88.921875 0 
L 79.890625 0 
L 79.890625 32.71875 
Q 79.890625 40.578125 77.09375 44.375 
Q 74.3125 48.1875 68.609375 48.1875 
Q 61.625 48.1875 57.5625 43.546875 
Q 53.515625 38.921875 53.515625 30.90625 
L 53.515625 0 
L 44.484375 0 
L 44.484375 32.71875 
Q 44.484375 40.625 41.703125 44.40625 
Q 38.921875 48.1875 33.109375 48.1875 
Q 26.21875 48.1875 22.15625 43.53125 
Q 18.109375 38.875 18.109375 30.90625 
L 18.109375 0 
L 9.078125 0 
L 9.078125 54.6875 
L 18.109375 54.6875 
L 18.109375 46.1875 
Q 21.1875 51.21875 25.484375 53.609375 
Q 29.78125 56 35.6875 56 
Q 41.65625 56 45.828125 52.96875 
Q 50 49.953125 52 44.1875 
z
" id="DejaVuSans-6d"/>
      <path d="M 54.890625 33.015625 
L 54.890625 0 
L 45.90625 0 
L 45.90625 32.71875 
Q 45.90625 40.484375 42.875 44.328125 
Q 39.84375 48.1875 33.796875 48.1875 
Q 26.515625 48.1875 22.3125 43.546875 
Q 18.109375 38.921875 18.109375 30.90625 
L 18.109375 0 
L 9.078125 0 
L 9.078125 54.6875 
L 18.109375 54.6875 
L 18.109375 46.1875 
Q 21.34375 51.125 25.703125 53.5625 
Q 30.078125 56 35.796875 56 
Q 45.21875 56 50.046875 50.171875 
Q 54.890625 44.34375 54.890625 33.015625 
z
" id="DejaVuSans-6e"/>
     </defs>
     <g transform="translate(93.752813 342.278812)scale(0.18 -0.18)">
      <use xlink:href="#DejaVuSans-6c"/>
      <use x="27.783203" xlink:href="#DejaVuSans-6f"/>
      <use x="88.964844" xlink:href="#DejaVuSans-67"/>
      <use x="152.441406" xlink:href="#DejaVuSans-31"/>
      <use x="216.064453" xlink:href="#DejaVuSans-30"/>
      <use x="279.6875" xlink:href="#DejaVuSans-20"/>
      <use x="311.474609" xlink:href="#DejaVuSans-6f"/>
      <use x="372.65625" xlink:href="#DejaVuSans-66"/>
      <use x="407.861328" xlink:href="#DejaVuSans-20"/>
      <use x="439.648438" xlink:href="#DejaVuSans-23"/>
      <use x="523.4375" xlink:href="#DejaVuSans-20"/>
      <use x="555.224609" xlink:href="#DejaVuSans-28"/>
      <use x="594.238281" xlink:href="#DejaVuSans-66"/>
      <use x="629.443359" xlink:href="#DejaVuSans-2b"/>
      <use x="713.232422" xlink:href="#DejaVuSans-67"/>
      <use x="776.708984" xlink:href="#DejaVuSans-29"/>
      <use x="815.722656" xlink:href="#DejaVuSans-2d"/>
      <use x="851.806641" xlink:href="#DejaVuSans-65"/>
      <use x="913.330078" xlink:href="#DejaVuSans-76"/>
      <use x="972.509766" xlink:href="#DejaVuSans-61"/>
      <use x="1033.789062" xlink:href="#DejaVuSans-6c"/>
      <use x="1061.572266" xlink:href="#DejaVuSans-73"/>
      <use x="1113.671875" xlink:href="#DejaVuSans-20"/>
      <use x="1145.458984" xlink:href="#DejaVuSans-2f"/>
      <use x="1179.150391" xlink:href="#DejaVuSans-20"/>
      <use x="1210.9375" xlink:href="#DejaVuSans-64"/>
      <use x="1274.414062" xlink:href="#DejaVuSans-69"/>
      <use x="1302.197266" xlink:href="#DejaVuSans-6d"/>
      <use x="1399.609375" xlink:href="#DejaVuSans-65"/>
      <use x="1461.132812" xlink:href="#DejaVuSans-6e"/>
      <use x="1524.511719" xlink:href="#DejaVuSans-73"/>
      <use x="1576.611328" xlink:href="#DejaVuSans-69"/>
      <use x="1604.394531" xlink:href="#DejaVuSans-6f"/>
      <use x="1665.576172" xlink:href="#DejaVuSans-6e"/>
     </g>
    </g>
   </g>
   <g id="matplotlib.axis_2">
    <g id="ytick_1">
     <g id="line2d_11">
      <path clip-path="url(#pf200771d85)" d="M 70.8 298.245375 
L 427.92 298.245375 
" style="fill:none;stroke:#b0b0b0;stroke-linecap:square;stroke-width:0.8;"/>
     </g>
     <g id="line2d_12">
      <defs>
       <path d="M 0 0 
L -3.5 0 
" id="mda7e31eb7f" style="stroke:#000000;stroke-width:0.8;"/>
      </defs>
      <g>
       <use style="stroke:#000000;stroke-width:0.8;" x="70.8" xlink:href="#mda7e31eb7f" y="298.245375"/>
      </g>
     </g>
     <g id="text_7">
      <!-- 0.0 -->
      <defs>
       <path d="M 10.6875 12.40625 
L 21 12.40625 
L 21 0 
L 10.6875 0 
z
" id="DejaVuSans-2e"/>
      </defs>
      <g transform="translate(31.99375 305.843812)scale(0.2 -0.2)">
       <use xlink:href="#DejaVuSans-30"/>
       <use x="63.623047" xlink:href="#DejaVuSans-2e"/>
       <use x="95.410156" xlink:href="#DejaVuSans-30"/>
      </g>
     </g>
    </g>
    <g id="ytick_2">
     <g id="line2d_13">
      <path clip-path="url(#pf200771d85)" d="M 70.8 245.549929 
L 427.92 245.549929 
" style="fill:none;stroke:#b0b0b0;stroke-linecap:square;stroke-width:0.8;"/>
     </g>
     <g id="line2d_14">
      <g>
       <use style="stroke:#000000;stroke-width:0.8;" x="70.8" xlink:href="#mda7e31eb7f" y="245.549929"/>
      </g>
     </g>
     <g id="text_8">
      <!-- 0.2 -->
      <g transform="translate(31.99375 253.148367)scale(0.2 -0.2)">
       <use xlink:href="#DejaVuSans-30"/>
       <use x="63.623047" xlink:href="#DejaVuSans-2e"/>
       <use x="95.410156" xlink:href="#DejaVuSans-32"/>
      </g>
     </g>
    </g>
    <g id="ytick_3">
     <g id="line2d_15">
      <path clip-path="url(#pf200771d85)" d="M 70.8 192.854484 
L 427.92 192.854484 
" style="fill:none;stroke:#b0b0b0;stroke-linecap:square;stroke-width:0.8;"/>
     </g>
     <g id="line2d_16">
      <g>
       <use style="stroke:#000000;stroke-width:0.8;" x="70.8" xlink:href="#mda7e31eb7f" y="192.854484"/>
      </g>
     </g>
     <g id="text_9">
      <!-- 0.4 -->
      <g transform="translate(31.99375 200.452921)scale(0.2 -0.2)">
       <use xlink:href="#DejaVuSans-30"/>
       <use x="63.623047" xlink:href="#DejaVuSans-2e"/>
       <use x="95.410156" xlink:href="#DejaVuSans-34"/>
      </g>
     </g>
    </g>
    <g id="ytick_4">
     <g id="line2d_17">
      <path clip-path="url(#pf200771d85)" d="M 70.8 140.159038 
L 427.92 140.159038 
" style="fill:none;stroke:#b0b0b0;stroke-linecap:square;stroke-width:0.8;"/>
     </g>
     <g id="line2d_18">
      <g>
       <use style="stroke:#000000;stroke-width:0.8;" x="70.8" xlink:href="#mda7e31eb7f" y="140.159038"/>
      </g>
     </g>
     <g id="text_10">
      <!-- 0.6 -->
      <g transform="translate(31.99375 147.757476)scale(0.2 -0.2)">
       <use xlink:href="#DejaVuSans-30"/>
       <use x="63.623047" xlink:href="#DejaVuSans-2e"/>
       <use x="95.410156" xlink:href="#DejaVuSans-36"/>
      </g>
     </g>
    </g>
    <g id="ytick_5">
     <g id="line2d_19">
      <path clip-path="url(#pf200771d85)" d="M 70.8 87.463593 
L 427.92 87.463593 
" style="fill:none;stroke:#b0b0b0;stroke-linecap:square;stroke-width:0.8;"/>
     </g>
     <g id="line2d_20">
      <g>
       <use style="stroke:#000000;stroke-width:0.8;" x="70.8" xlink:href="#mda7e31eb7f" y="87.463593"/>
      </g>
     </g>
     <g id="text_11">
      <!-- 0.8 -->
      <g transform="translate(31.99375 95.06203)scale(0.2 -0.2)">
       <use xlink:href="#DejaVuSans-30"/>
       <use x="63.623047" xlink:href="#DejaVuSans-2e"/>
       <use x="95.410156" xlink:href="#DejaVuSans-38"/>
      </g>
     </g>
    </g>
    <g id="ytick_6">
     <g id="line2d_21">
      <path clip-path="url(#pf200771d85)" d="M 70.8 34.768147 
L 427.92 34.768147 
" style="fill:none;stroke:#b0b0b0;stroke-linecap:square;stroke-width:0.8;"/>
     </g>
     <g id="line2d_22">
      <g>
       <use style="stroke:#000000;stroke-width:0.8;" x="70.8" xlink:href="#mda7e31eb7f" y="34.768147"/>
      </g>
     </g>
     <g id="text_12">
      <!-- 1.0 -->
      <g transform="translate(31.99375 42.366585)scale(0.2 -0.2)">
       <use xlink:href="#DejaVuSans-31"/>
       <use x="63.623047" xlink:href="#DejaVuSans-2e"/>
       <use x="95.410156" xlink:href="#DejaVuSans-30"/>
      </g>
     </g>
    </g>
    <g id="text_13">
     <!-- Proportion of function+target pairs -->
     <defs>
      <path d="M 19.671875 64.796875 
L 19.671875 37.40625 
L 32.078125 37.40625 
Q 38.96875 37.40625 42.71875 40.96875 
Q 46.484375 44.53125 46.484375 51.125 
Q 46.484375 57.671875 42.71875 61.234375 
Q 38.96875 64.796875 32.078125 64.796875 
z
M 9.8125 72.90625 
L 32.078125 72.90625 
Q 44.34375 72.90625 50.609375 67.359375 
Q 56.890625 61.8125 56.890625 51.125 
Q 56.890625 40.328125 50.609375 34.8125 
Q 44.34375 29.296875 32.078125 29.296875 
L 19.671875 29.296875 
L 19.671875 0 
L 9.8125 0 
z
" id="DejaVuSans-50"/>
      <path d="M 41.109375 46.296875 
Q 39.59375 47.171875 37.8125 47.578125 
Q 36.03125 48 33.890625 48 
Q 26.265625 48 22.1875 43.046875 
Q 18.109375 38.09375 18.109375 28.8125 
L 18.109375 0 
L 9.078125 0 
L 9.078125 54.6875 
L 18.109375 54.6875 
L 18.109375 46.1875 
Q 20.953125 51.171875 25.484375 53.578125 
Q 30.03125 56 36.53125 56 
Q 37.453125 56 38.578125 55.875 
Q 39.703125 55.765625 41.0625 55.515625 
z
" id="DejaVuSans-72"/>
      <path d="M 18.109375 8.203125 
L 18.109375 -20.796875 
L 9.078125 -20.796875 
L 9.078125 54.6875 
L 18.109375 54.6875 
L 18.109375 46.390625 
Q 20.953125 51.265625 25.265625 53.625 
Q 29.59375 56 35.59375 56 
Q 45.5625 56 51.78125 48.09375 
Q 58.015625 40.1875 58.015625 27.296875 
Q 58.015625 14.40625 51.78125 6.484375 
Q 45.5625 -1.421875 35.59375 -1.421875 
Q 29.59375 -1.421875 25.265625 0.953125 
Q 20.953125 3.328125 18.109375 8.203125 
z
M 48.6875 27.296875 
Q 48.6875 37.203125 44.609375 42.84375 
Q 40.53125 48.484375 33.40625 48.484375 
Q 26.265625 48.484375 22.1875 42.84375 
Q 18.109375 37.203125 18.109375 27.296875 
Q 18.109375 17.390625 22.1875 11.75 
Q 26.265625 6.109375 33.40625 6.109375 
Q 40.53125 6.109375 44.609375 11.75 
Q 48.6875 17.390625 48.6875 27.296875 
z
" id="DejaVuSans-70"/>
      <path d="M 18.3125 70.21875 
L 18.3125 54.6875 
L 36.8125 54.6875 
L 36.8125 47.703125 
L 18.3125 47.703125 
L 18.3125 18.015625 
Q 18.3125 11.328125 20.140625 9.421875 
Q 21.96875 7.515625 27.59375 7.515625 
L 36.8125 7.515625 
L 36.8125 0 
L 27.59375 0 
Q 17.1875 0 13.234375 3.875 
Q 9.28125 7.765625 9.28125 18.015625 
L 9.28125 47.703125 
L 2.6875 47.703125 
L 2.6875 54.6875 
L 9.28125 54.6875 
L 9.28125 70.21875 
z
" id="DejaVuSans-74"/>
      <path d="M 8.5 21.578125 
L 8.5 54.6875 
L 17.484375 54.6875 
L 17.484375 21.921875 
Q 17.484375 14.15625 20.5 10.265625 
Q 23.53125 6.390625 29.59375 6.390625 
Q 36.859375 6.390625 41.078125 11.03125 
Q 45.3125 15.671875 45.3125 23.6875 
L 45.3125 54.6875 
L 54.296875 54.6875 
L 54.296875 0 
L 45.3125 0 
L 45.3125 8.40625 
Q 42.046875 3.421875 37.71875 1 
Q 33.40625 -1.421875 27.6875 -1.421875 
Q 18.265625 -1.421875 13.375 4.4375 
Q 8.5 10.296875 8.5 21.578125 
z
M 31.109375 56 
z
" id="DejaVuSans-75"/>
      <path d="M 48.78125 52.59375 
L 48.78125 44.1875 
Q 44.96875 46.296875 41.140625 47.34375 
Q 37.3125 48.390625 33.40625 48.390625 
Q 24.65625 48.390625 19.8125 42.84375 
Q 14.984375 37.3125 14.984375 27.296875 
Q 14.984375 17.28125 19.8125 11.734375 
Q 24.65625 6.203125 33.40625 6.203125 
Q 37.3125 6.203125 41.140625 7.25 
Q 44.96875 8.296875 48.78125 10.40625 
L 48.78125 2.09375 
Q 45.015625 0.34375 40.984375 -0.53125 
Q 36.96875 -1.421875 32.421875 -1.421875 
Q 20.0625 -1.421875 12.78125 6.34375 
Q 5.515625 14.109375 5.515625 27.296875 
Q 5.515625 40.671875 12.859375 48.328125 
Q 20.21875 56 33.015625 56 
Q 37.15625 56 41.109375 55.140625 
Q 45.0625 54.296875 48.78125 52.59375 
z
" id="DejaVuSans-63"/>
     </defs>
     <g transform="translate(24.250312 323.17875)rotate(-90)scale(0.18 -0.18)">
      <use xlink:href="#DejaVuSans-50"/>
      <use x="60.287109" xlink:href="#DejaVuSans-72"/>
      <use x="101.369141" xlink:href="#DejaVuSans-6f"/>
      <use x="162.550781" xlink:href="#DejaVuSans-70"/>
      <use x="226.027344" xlink:href="#DejaVuSans-6f"/>
      <use x="287.208984" xlink:href="#DejaVuSans-72"/>
      <use x="328.322266" xlink:href="#DejaVuSans-74"/>
      <use x="367.53125" xlink:href="#DejaVuSans-69"/>
      <use x="395.314453" xlink:href="#DejaVuSans-6f"/>
      <use x="456.496094" xlink:href="#DejaVuSans-6e"/>
      <use x="519.875" xlink:href="#DejaVuSans-20"/>
      <use x="551.662109" xlink:href="#DejaVuSans-6f"/>
      <use x="612.84375" xlink:href="#DejaVuSans-66"/>
      <use x="648.048828" xlink:href="#DejaVuSans-20"/>
      <use x="679.835938" xlink:href="#DejaVuSans-66"/>
      <use x="715.041016" xlink:href="#DejaVuSans-75"/>
      <use x="778.419922" xlink:href="#DejaVuSans-6e"/>
      <use x="841.798828" xlink:href="#DejaVuSans-63"/>
      <use x="896.779297" xlink:href="#DejaVuSans-74"/>
      <use x="935.988281" xlink:href="#DejaVuSans-69"/>
      <use x="963.771484" xlink:href="#DejaVuSans-6f"/>
      <use x="1024.953125" xlink:href="#DejaVuSans-6e"/>
      <use x="1088.332031" xlink:href="#DejaVuSans-2b"/>
      <use x="1172.121094" xlink:href="#DejaVuSans-74"/>
      <use x="1211.330078" xlink:href="#DejaVuSans-61"/>
      <use x="1272.609375" xlink:href="#DejaVuSans-72"/>
      <use x="1313.707031" xlink:href="#DejaVuSans-67"/>
      <use x="1377.183594" xlink:href="#DejaVuSans-65"/>
      <use x="1438.707031" xlink:href="#DejaVuSans-74"/>
      <use x="1477.916016" xlink:href="#DejaVuSans-20"/>
      <use x="1509.703125" xlink:href="#DejaVuSans-70"/>
      <use x="1573.179688" xlink:href="#DejaVuSans-61"/>
      <use x="1634.458984" xlink:href="#DejaVuSans-69"/>
      <use x="1662.242188" xlink:href="#DejaVuSans-72"/>
      <use x="1703.355469" xlink:href="#DejaVuSans-73"/>
     </g>
    </g>
   </g>
   <g id="line2d_23">
    <defs>
     <path d="M 0 1.5 
C 0.397805 1.5 0.77937 1.341951 1.06066 1.06066 
C 1.341951 0.77937 1.5 0.397805 1.5 0 
C 1.5 -0.397805 1.341951 -0.77937 1.06066 -1.06066 
C 0.77937 -1.341951 0.397805 -1.5 0 -1.5 
C -0.397805 -1.5 -0.77937 -1.341951 -1.06066 -1.06066 
C -1.341951 -0.77937 -1.5 -0.397805 -1.5 0 
C -1.5 0.397805 -1.341951 0.77937 -1.06066 1.06066 
C -0.77937 1.341951 -0.397805 1.5 0 1.5 
z
" id="m2331d89b46" style="stroke:#000080;"/>
    </defs>
    <g>
     <use style="fill:#000080;stroke:#000080;" x="291.928854" xlink:href="#m2331d89b46" y="149.778048"/>
     <use style="fill:#000080;stroke:#000080;" x="291.928854" xlink:href="#m2331d89b46" y="149.778048"/>
    </g>
   </g>
   <g id="line2d_24">
    <path d="M 29.657143 298.245375 
L 29.657143 292.808543 
L 42.042377 292.808543 
L 42.042377 292.076662 
L 54.427611 292.076662 
L 54.427611 291.841415 
L 61.672509 291.841415 
L 61.672509 291.449335 
L 66.812845 291.449335 
L 66.812845 291.214088 
L 70.8 291.214088 
L 70.8 290.848147 
L 76.812125 290.769731 
L 76.812125 290.429929 
L 79.198079 290.429929 
L 79.198079 290.090127 
L 81.30264 290.090127 
L 81.30264 289.776464 
L 83.185234 289.776464 
L 83.185234 289.305969 
L 84.888247 289.305969 
L 84.888247 289.044583 
L 86.442977 289.044583 
L 86.442977 286.979632 
L 87.873189 286.979632 
L 87.873189 286.169335 
L 89.197359 286.169335 
L 89.197359 285.777256 
L 90.430132 285.777256 
L 90.430132 285.176068 
L 91.583313 285.176068 
L 91.583313 284.75785 
L 92.666561 284.75785 
L 92.666561 284.39191 
L 93.687874 284.39191 
L 93.687874 283.712306 
L 94.653954 283.712306 
L 94.653954 282.771316 
L 95.570468 282.771316 
L 95.570468 281.568939 
L 96.442257 281.568939 
L 96.442257 280.706365 
L 97.273482 280.706365 
L 97.273482 279.582405 
L 98.067751 279.582405 
L 98.067751 278.197058 
L 98.828211 278.197058 
L 98.828211 277.099236 
L 99.557623 277.099236 
L 99.557623 275.164979 
L 100.258423 275.164979 
L 100.258423 272.629533 
L 100.932772 272.629533 
L 100.932772 271.453296 
L 101.582593 271.453296 
L 101.582593 270.329335 
L 102.209609 270.329335 
L 102.209609 270.015672 
L 102.815366 270.015672 
L 102.815366 269.336068 
L 103.401258 269.336068 
L 103.401258 268.264385 
L 103.968548 268.264385 
L 103.968548 267.114286 
L 104.518379 267.114286 
L 104.518379 265.833494 
L 105.051795 265.833494 
L 105.051795 264.892504 
L 105.569748 264.892504 
L 105.569748 263.716266 
L 106.073108 263.716266 
L 106.073108 263.298048 
L 106.562676 263.298048 
L 106.562676 262.357058 
L 107.039188 262.357058 
L 107.039188 261.494484 
L 107.503321 261.494484 
L 107.503321 260.736464 
L 107.955702 260.736464 
L 107.955702 260.292108 
L 108.396913 260.292108 
L 108.396913 258.959038 
L 108.827491 258.959038 
L 108.827491 258.776068 
L 109.247936 258.776068 
L 109.247936 257.338444 
L 109.658716 257.338444 
L 109.658716 256.920226 
L 110.060263 256.920226 
L 110.060263 255.848543 
L 110.452985 255.848543 
L 110.452985 255.090524 
L 110.83726 255.090524 
L 110.83726 254.907553 
L 111.213445 254.907553 
L 111.213445 254.59389 
L 111.581873 254.59389 
L 111.581873 253.966563 
L 111.942857 253.966563 
L 111.942857 253.339236 
L 112.296693 253.339236 
L 112.296693 253.103989 
L 112.643657 253.103989 
L 112.643657 252.528939 
L 112.984013 252.528939 
L 112.984013 252.006167 
L 113.318006 252.006167 
L 113.318006 251.823197 
L 113.64587 251.823197 
L 113.64587 251.431118 
L 113.967827 251.431118 
L 113.967827 251.065177 
L 114.284085 251.065177 
L 114.284085 250.882207 
L 114.594843 250.882207 
L 114.594843 250.333296 
L 114.900288 250.333296 
L 114.900288 250.045771 
L 115.2006 250.045771 
L 115.2006 249.758246 
L 115.495947 249.758246 
L 115.495947 249.601415 
L 115.786492 249.601415 
L 115.786492 249.052504 
L 116.072388 249.052504 
L 116.072388 248.634286 
L 116.353782 248.634286 
L 116.353782 248.163791 
L 116.630812 248.163791 
L 116.630812 247.771712 
L 116.903613 247.771712 
L 116.903613 247.301217 
L 117.172312 247.301217 
L 117.172312 247.03983 
L 117.437029 247.03983 
L 117.437029 246.49092 
L 117.697882 246.49092 
L 117.697882 246.151118 
L 117.954982 246.151118 
L 117.954982 246.020425 
L 118.458343 245.91587 
L 118.458343 245.654484 
L 118.704803 245.654484 
L 118.704803 245.419236 
L 118.947911 245.419236 
L 118.947911 244.97488 
L 119.187755 244.97488 
L 119.187755 244.765771 
L 119.424422 244.765771 
L 119.424422 244.39983 
L 119.657995 244.39983 
L 119.657995 243.955474 
L 119.888555 243.955474 
L 119.888555 243.641811 
L 120.116177 243.641811 
L 120.116177 243.511118 
L 120.340936 243.511118 
L 120.340936 243.302009 
L 120.562903 243.302009 
L 120.562903 242.883791 
L 120.998733 242.779236 
L 120.998733 242.596266 
L 121.212725 242.596266 
L 121.212725 242.178048 
L 121.424184 242.178048 
L 121.424184 241.602999 
L 121.63317 241.602999 
L 121.63317 241.472306 
L 121.839741 241.472306 
L 121.839741 241.184781 
L 122.245852 241.184781 
L 122.245852 240.740425 
L 122.445497 240.740425 
L 122.445497 240.531316 
L 122.838219 240.4529 
L 122.838219 240.348345 
L 123.03139 240.348345 
L 123.03139 240.086959 
L 123.222494 240.086959 
L 123.222494 239.825573 
L 123.598679 239.799434 
L 123.598679 239.616464 
L 123.783843 239.616464 
L 123.783843 239.355078 
L 123.967107 239.355078 
L 123.967107 239.198246 
L 124.148511 239.198246 
L 124.148511 238.962999 
L 124.328091 238.962999 
L 124.328091 238.466365 
L 124.856251 238.440226 
L 124.856251 238.335672 
L 125.028891 238.335672 
L 125.028891 237.865177 
L 125.19988 237.865177 
L 125.19988 237.420821 
L 125.537024 237.342405 
L 125.537024 237.185573 
L 125.70324 237.185573 
L 125.70324 236.976464 
L 125.867924 236.976464 
L 125.867924 236.819632 
L 126.031105 236.819632 
L 126.031105 236.47983 
L 126.192808 236.47983 
L 126.192808 235.277454 
L 126.353061 235.277454 
L 126.353061 235.042207 
L 126.51189 235.042207 
L 126.51189 234.885375 
L 126.669319 234.885375 
L 126.669319 234.676266 
L 126.980077 234.623989 
L 126.980077 234.519434 
L 127.285522 234.519434 
L 127.285522 234.127355 
L 127.734118 234.075078 
L 127.734118 233.996662 
L 127.881181 233.996662 
L 127.881181 233.813692 
L 128.171726 233.709137 
L 128.171726 233.578444 
L 128.315246 233.578444 
L 128.315246 233.421613 
L 129.016046 233.317058 
L 129.016046 233.264781 
L 129.288847 233.264781 
L 129.288847 233.081811 
L 129.557546 233.029533 
L 129.557546 232.951118 
L 129.690395 232.951118 
L 129.690395 232.480623 
L 129.953166 232.428345 
L 129.953166 232.297652 
L 130.340216 232.245375 
L 130.403917 232.114682 
L 130.530642 232.062405 
L 130.593669 231.879434 
L 130.843577 231.77488 
L 130.843577 231.670325 
L 131.212004 231.644187 
L 131.212004 231.539632 
L 131.453469 231.461217 
L 131.513329 231.095276 
L 131.572989 231.095276 
L 131.63245 230.703197 
L 131.985122 230.598642 
L 132.043229 230.494088 
L 132.387963 230.389533 
L 132.444777 230.206563 
L 132.501411 230.206563 
L 132.501411 230.049731 
L 132.726171 229.945177 
L 132.781921 229.840623 
L 132.837499 229.840623 
L 132.948138 229.422405 
L 133.058096 229.343989 
L 133.167381 229.056464 
L 133.383967 229.004187 
L 133.383967 228.978048 
L 133.491283 228.742801 
L 133.704001 228.690524 
L 133.756788 228.167751 
L 134.018404 228.089335 
L 134.121988 227.801811 
L 134.173556 227.801811 
L 134.276246 227.409731 
L 134.479874 227.305177 
L 134.580824 227.069929 
L 134.631086 227.069929 
L 134.731187 226.703989 
L 134.929724 226.599434 
L 135.028171 226.390325 
L 135.271942 226.285771 
L 135.368527 225.632306 
L 135.464592 225.527751 
L 135.560144 224.848147 
L 135.607728 224.848147 
L 135.70252 224.429929 
L 135.796811 224.325375 
L 135.84377 224.116266 
L 135.983913 224.03785 
L 136.076735 223.67191 
L 136.122965 223.67191 
L 136.215069 222.992306 
L 136.397865 222.91389 
L 136.488566 222.600226 
L 136.578809 222.600226 
L 136.668599 222.15587 
L 136.802443 222.051316 
L 136.891119 221.371712 
L 136.979357 221.267157 
L 137.023313 221.03191 
L 137.110902 221.03191 
L 137.198064 220.169335 
L 137.241485 220.169335 
L 137.328014 219.69884 
L 137.371122 219.69884 
L 137.457026 218.679434 
L 137.54252 218.679434 
L 137.627606 217.921415 
L 137.669998 217.921415 
L 137.754481 216.954286 
L 137.796573 216.954286 
L 137.880461 216.431514 
L 138.005559 216.353098 
L 138.047065 216.065573 
L 138.129788 216.065573 
L 138.212129 215.35983 
L 138.294093 215.333692 
L 138.375683 214.915474 
L 138.416339 214.915474 
L 138.497373 214.288147 
L 138.537753 214.288147 
L 138.61824 213.948345 
L 138.698367 213.922207 
L 138.778135 213.29488 
L 138.936612 213.190325 
L 139.015326 212.327751 
L 139.093695 212.327751 
L 139.171722 211.857256 
L 139.24941 211.857256 
L 139.326761 211.386761 
L 139.365311 211.386761 
L 139.403779 211.099236 
L 139.480466 211.099236 
L 139.556826 210.916266 
L 139.63286 210.863989 
L 139.708573 210.419632 
L 139.783966 210.419632 
L 139.859042 209.975276 
L 139.933804 209.922999 
L 140.008255 209.583197 
L 140.229763 209.478642 
L 140.302993 209.191118 
L 140.375924 209.191118 
L 140.484766 208.668345 
L 140.664708 208.589929 
L 140.77181 208.067157 
L 140.807369 208.067157 
L 140.913621 207.727355 
L 141.019246 207.675078 
L 141.089317 206.342009 
L 141.159114 206.342009 
L 141.263302 205.819236 
L 141.366886 205.793098 
L 141.435609 205.662405 
L 141.504069 205.662405 
L 141.606271 205.401019 
L 141.640208 205.401019 
L 141.741636 204.773692 
L 141.775317 204.773692 
L 141.842491 204.43389 
L 141.976085 204.43389 
L 141.976085 204.120226 
L 142.108687 204.120226 
L 142.174622 203.911118 
L 142.240313 203.911118 
L 142.3384 203.388345 
L 142.500691 203.283791 
L 142.565197 202.996266 
L 142.629471 202.996266 
L 142.693514 202.473494 
L 142.757329 202.473494 
L 142.820917 201.872306 
L 142.947417 201.820028 
L 143.041708 201.454088 
L 143.259805 201.349533 
L 143.352466 200.696068 
L 143.505841 200.591514 
L 143.597239 200.408543 
L 143.627601 200.408543 
L 143.657911 200.225573 
L 143.778642 200.147157 
L 143.868658 199.990325 
L 143.928418 199.964187 
L 143.928418 199.650524 
L 144.047341 199.650524 
L 144.047341 199.310722 
L 144.165478 199.310722 
L 144.25357 199.049335 
L 144.282838 199.049335 
L 144.370356 198.840226 
L 144.486383 198.761811 
L 144.572912 198.57884 
L 144.687635 198.526563 
L 144.744722 198.39587 
L 145.027451 198.317454 
L 145.111405 198.186761 
L 145.250457 198.134484 
L 145.305776 197.533296 
L 145.44333 197.507157 
L 145.525356 197.298048 
L 145.688289 197.193494 
L 145.769201 196.618444 
L 145.956584 196.566167 
L 146.062784 196.383197 
L 146.273309 196.33092 
L 146.325555 196.069533 
L 146.635863 195.991118 
L 146.738113 195.834286 
L 146.940874 195.782009 
L 146.940874 195.703593 
L 147.166263 195.625177 
L 147.166263 195.520623 
L 147.462426 195.468345 
L 147.560066 195.363791 
L 147.681371 195.285375 
L 147.777825 194.605771 
L 147.825858 194.527355 
L 147.921538 193.87389 
L 148.064103 193.769335 
L 148.158519 193.664781 
L 148.275841 193.586365 
L 148.322555 193.455672 
L 148.415618 193.377256 
L 148.5082 193.29884 
L 148.623255 193.194286 
L 148.646178 193.037454 
L 148.896404 192.9329 
L 148.986533 192.828345 
L 149.120881 192.723791 
L 149.120881 192.697652 
L 149.408547 192.645375 
L 149.517966 192.410127 
L 149.605022 192.305573 
L 149.713248 192.096464 
L 149.84226 191.99191 
L 149.949064 191.756662 
L 150.01284 191.678246 
L 150.118632 191.573692 
L 150.24476 191.521415 
L 150.286606 191.286167 
L 150.781257 191.181613 
L 150.882607 190.946365 
L 150.943143 190.841811 
L 150.943143 190.815672 
L 151.262582 190.737256 
L 151.361246 190.345177 
L 151.420185 190.2929 
L 151.517985 189.926959 
L 151.615253 189.848543 
L 151.711995 189.587157 
L 151.769789 189.508741 
L 151.846559 189.404187 
L 152.281696 189.299632 
L 152.300377 189.142801 
L 152.412053 189.038246 
L 152.523035 188.750722 
L 152.706488 188.698444 
L 152.797513 188.541613 
L 153.032029 188.463197 
L 153.139238 188.175672 
L 153.334133 188.071118 
L 153.422024 187.914286 
L 153.683131 187.809731 
L 153.734897 187.705177 
L 153.923436 187.6529 
L 153.940477 187.522207 
L 154.177369 187.443791 
L 154.177369 187.365375 
L 154.460863 187.286959 
L 154.543395 187.07785 
L 154.73993 186.973296 
L 154.788728 186.89488 
L 154.966521 186.790325 
L 155.014705 186.71191 
L 155.332651 186.633494 
L 155.442609 186.398246 
L 155.536323 186.293692 
L 155.645039 186.13686 
L 155.768481 186.058444 
L 155.875797 185.980028 
L 156.012835 185.875474 
L 156.058282 185.823197 
L 156.238921 185.718642 
L 156.313652 185.326563 
L 156.521251 185.222009 
L 156.580124 185.117454 
L 156.813698 185.0129 
L 156.886068 184.882207 
L 157.144199 184.777652 
L 157.229421 184.620821 
L 157.328335 184.542405 
L 157.426705 184.411712 
L 157.677196 184.359434 
L 157.773669 184.124187 
L 157.896945 184.019632 
L 157.896945 183.993494 
L 158.140975 183.915078 
L 158.234983 183.784385 
L 158.328498 183.732108 
L 158.328498 183.627553 
L 158.619258 183.522999 
L 158.671619 183.470722 
L 159.199652 183.366167 
L 159.275633 183.209335 
L 159.625999 183.13092 
L 159.712528 182.921811 
L 159.823167 182.817256 
L 159.884338 182.712702 
L 160.138995 182.608147 
L 160.23506 182.529731 
L 160.567279 182.425177 
L 160.637672 182.216068 
L 160.904973 182.111514 
L 160.97405 182.006959 
L 161.450259 181.902405 
L 161.550674 181.719434 
L 161.760824 181.641019 
L 161.771817 181.510325 
L 162.355582 181.405771 
L 162.451048 181.275078 
L 162.70316 181.196662 
L 162.765636 181.092108 
L 163.095201 180.987553 
L 163.196956 180.778444 
L 163.418798 180.700028 
L 163.478825 180.621613 
L 163.756317 180.595474 
L 163.795609 180.360226 
L 164.270055 180.281811 
L 164.308234 180.203395 
L 164.545027 180.09884 
L 164.545027 180.072702 
L 164.797287 179.994286 
L 164.90827 179.680623 
L 165.128188 179.628345 
L 165.228086 179.497652 
L 165.4083 179.497652 
L 165.515563 179.183989 
L 165.87726 179.079434 
L 165.94699 179.027157 
L 166.257447 178.922603 
L 166.257447 178.896464 
L 166.393716 178.896464 
L 166.486801 178.582801 
L 166.903909 178.478246 
L 166.977966 178.373692 
L 167.399939 178.269137 
L 167.45599 178.138444 
L 167.717885 178.03389 
L 167.780801 177.903197 
L 167.913767 177.85092 
L 167.999279 177.667949 
L 168.306827 177.563395 
L 168.413231 177.45884 
L 168.579166 177.354286 
L 168.654085 177.223593 
L 169.002056 177.171316 
L 169.002056 177.0929 
L 169.472392 176.988345 
L 169.572095 176.831514 
L 170.05552 176.753098 
L 170.10384 176.596266 
L 170.424935 176.491712 
L 170.465514 176.413296 
L 170.633606 176.308741 
L 170.713732 176.15191 
L 171.361412 176.073494 
L 171.399921 175.942801 
L 171.8056 175.838246 
L 171.911828 175.75983 
L 172.548294 175.655276 
L 172.548294 175.629137 
L 173.07552 175.524583 
L 173.116335 175.472306 
L 173.428096 175.367751 
L 173.53082 175.237058 
L 173.779463 175.132504 
L 173.813102 175.054088 
L 173.996995 174.975672 
L 174.096509 174.871118 
L 174.542963 174.766563 
L 174.542963 174.740425 
L 174.978533 174.63587 
L 175.072741 174.531316 
L 175.300958 174.479038 
L 175.300958 174.400623 
L 175.814051 174.348345 
L 175.893998 174.217652 
L 176.210256 174.113098 
L 176.268936 174.060821 
L 176.71729 173.956266 
L 176.779076 173.773296 
L 177.298113 173.668741 
L 177.371701 173.564187 
L 177.717165 173.485771 
L 177.730666 173.407355 
L 178.362645 173.302801 
L 178.388679 173.250524 
L 178.664042 173.145969 
L 178.770463 173.041415 
L 178.98981 172.962999 
L 179.048408 172.858444 
L 179.632144 172.75389 
L 179.632144 172.675474 
L 179.773139 172.57092 
L 179.837226 172.492504 
L 180.473477 172.414088 
L 180.554319 172.257256 
L 180.821183 172.204979 
L 180.900471 172.074286 
L 181.310138 171.99587 
L 181.38729 171.891316 
L 181.886169 171.786761 
L 181.928899 171.734484 
L 182.042348 171.682207 
L 182.151569 171.263989 
L 182.46493 171.159434 
L 182.46493 171.05488 
L 182.938353 170.950325 
L 182.938353 170.924187 
L 183.402831 170.845771 
L 183.513834 170.767355 
L 183.995483 170.688939 
L 184.055576 170.453692 
L 184.306405 170.427553 
L 184.31263 170.29686 
L 184.63342 170.192306 
L 184.727936 170.11389 
L 185.10108 170.009335 
L 185.178341 169.904781 
L 185.571321 169.800226 
L 185.678324 169.643395 
L 186.215132 169.53884 
L 186.301661 169.434286 
L 186.640913 169.329731 
L 186.695472 169.225177 
L 186.987247 169.120623 
L 187.030071 169.068345 
L 187.447532 168.963791 
L 187.447532 168.937652 
L 187.727375 168.833098 
L 187.765898 168.676266 
L 188.383622 168.59785 
L 188.383622 168.545573 
L 188.698054 168.519434 
L 188.766105 168.310325 
L 189.038134 168.205771 
L 189.038134 168.179632 
L 189.453745 168.075078 
L 189.453745 168.048939 
L 190.127143 167.944385 
L 190.212357 167.865969 
L 190.458971 167.761415 
L 190.496442 167.682999 
L 191.240381 167.578444 
L 191.240381 167.552306 
L 191.690861 167.447751 
L 191.690861 167.421613 
L 192.391582 167.317058 
L 192.391582 167.29092 
L 192.920338 167.186365 
L 192.974089 167.055672 
L 193.249881 166.951118 
L 193.304532 166.89884 
L 194.065227 166.820425 
L 194.106653 166.71587 
L 195.004808 166.611316 
L 195.110567 166.5329 
L 195.776599 166.428345 
L 195.776599 166.402207 
L 196.705644 166.297652 
L 196.769306 166.245375 
L 197.872237 166.140821 
L 197.904266 166.088543 
L 198.838009 165.983989 
L 198.879377 165.931712 
L 200.365337 165.827157 
L 200.394464 165.696464 
L 201.449629 165.59191 
L 201.449629 165.565771 
L 202.859644 165.539632 
L 202.859644 165.382801 
L 203.80529 165.278246 
L 203.80529 165.19983 
L 204.632666 165.095276 
L 204.632666 165.069137 
L 205.424374 164.964583 
L 205.4406 164.912306 
L 206.354634 164.83389 
L 206.41978 164.703197 
L 207.485594 164.624781 
L 207.485594 164.572504 
L 208.63718 164.467949 
L 208.727894 164.415672 
L 209.820103 164.311118 
L 209.820103 164.25884 
L 210.476883 164.154286 
L 210.583799 163.422405 
L 210.623103 163.31785 
L 210.733407 163.056464 
L 210.764595 162.95191 
L 210.862766 162.481415 
L 210.954796 162.37686 
L 211.06447 162.089335 
L 211.149232 161.984781 
L 211.214268 161.854088 
L 211.36419 161.749533 
L 211.457086 161.697256 
L 211.728215 161.592702 
L 211.799202 161.462009 
L 212.080366 161.357454 
L 212.080366 161.331316 
L 212.41732 161.226761 
L 212.495915 161.148345 
L 212.913325 161.043791 
L 212.99415 160.991514 
L 213.384316 160.886959 
L 213.4886 160.782405 
L 213.823528 160.67785 
L 213.823528 160.651712 
L 214.582968 160.547157 
L 214.585828 160.49488 
L 215.331748 160.390325 
L 215.331748 160.364187 
L 216.403054 160.259632 
L 216.479341 160.207355 
L 217.418627 160.102801 
L 217.418627 160.076662 
L 222.126767 159.972108 
L 222.207577 159.893692 
L 222.80878 159.789137 
L 222.908119 159.135672 
L 222.933943 159.031118 
L 223.022965 158.508345 
L 223.275097 158.403791 
L 223.275097 158.377652 
L 223.63779 158.273098 
L 223.748739 158.220821 
L 224.270448 158.116266 
L 224.372921 158.011712 
L 226.253762 157.907157 
L 226.27399 157.85488 
L 227.619913 157.750325 
L 227.619913 157.724187 
L 228.763994 157.619632 
L 228.763994 157.593494 
L 230.049345 157.488939 
L 230.150863 156.835474 
L 230.4011 156.757058 
L 230.475751 156.678642 
L 232.157088 156.574088 
L 232.157088 156.547949 
L 233.794724 156.443395 
L 233.843254 156.391118 
L 235.179751 156.33884 
L 235.253288 155.763791 
L 235.88449 155.659236 
L 235.974892 155.606959 
L 238.065724 155.502405 
L 238.065724 155.476266 
L 239.157042 155.371712 
L 239.218233 154.927355 
L 239.808299 154.822801 
L 239.808299 154.796662 
L 241.787245 154.692108 
L 241.791362 154.63983 
L 242.415315 154.535276 
L 242.496087 154.064781 
L 245.16264 153.986365 
L 245.228321 153.724979 
L 247.546373 153.620425 
L 247.633935 153.254484 
L 249.675385 153.149929 
L 249.681242 153.045375 
L 251.526946 152.940821 
L 251.55651 152.75785 
L 253.230853 152.653296 
L 253.255564 152.444187 
L 254.793741 152.339632 
L 254.809281 152.182801 
L 256.234579 152.078246 
L 256.23658 151.973692 
L 257.557891 151.869137 
L 257.558149 151.81686 
L 258.78515 151.712306 
L 258.822461 151.607751 
L 259.929709 151.503197 
L 259.938612 151.398642 
L 262.990121 151.294088 
L 263.035046 151.137256 
L 265.622696 151.032702 
L 265.622696 151.006563 
L 267.023531 150.902009 
L 267.023531 150.87587 
L 267.758489 150.771316 
L 267.758489 150.745177 
L 269.267065 150.640623 
L 269.268164 150.588345 
L 270.54352 150.483791 
L 270.54352 150.457652 
L 272.310309 150.353098 
L 272.310309 150.300821 
L 274.752823 150.196266 
L 274.752823 150.170127 
L 275.379182 150.065573 
L 275.379182 150.039434 
L 277.607049 149.93488 
L 277.607049 149.908741 
L 291.928854 149.804187 
L 291.928854 149.778048 
L 358.8 149.778048 
L 358.8 149.778048 
" style="fill:none;stroke:#000080;stroke-linecap:square;stroke-width:1.5;"/>
   </g>
   <g id="line2d_25">
    <defs>
     <path d="M 0 6 
C 1.591219 6 3.117479 5.367802 4.242641 4.242641 
C 5.367802 3.117479 6 1.591219 6 0 
C 6 -1.591219 5.367802 -3.117479 4.242641 -4.242641 
C 3.117479 -5.367802 1.591219 -6 0 -6 
C -1.591219 -6 -3.117479 -5.367802 -4.242641 -4.242641 
C -5.367802 -3.117479 -6 -1.591219 -6 0 
C -6 1.591219 -5.367802 3.117479 -4.242641 4.242641 
C -3.117479 5.367802 -1.591219 6 0 6 
z
" id="m792a8feed3" style="stroke:#000080;stroke-width:1.5;"/>
    </defs>
    <g>
     <use style="fill:none;stroke:#000080;stroke-width:1.5;" x="99.557623" xlink:href="#m792a8feed3" y="275.164979"/>
     <use style="fill:none;stroke:#000080;stroke-width:1.5;" x="137.54252" xlink:href="#m792a8feed3" y="218.679434"/>
     <use style="fill:none;stroke:#000080;stroke-width:1.5;" x="170.336697" xlink:href="#m792a8feed3" y="176.491712"/>
     <use style="fill:none;stroke:#000080;stroke-width:1.5;" x="245.901049" xlink:href="#m792a8feed3" y="153.724979"/>
     <use style="fill:none;stroke:#000080;stroke-width:1.5;" x="291.928854" xlink:href="#m792a8feed3" y="149.778048"/>
     <use style="fill:none;stroke:#000080;stroke-width:1.5;" x="358.8" xlink:href="#m792a8feed3" y="149.778048"/>
    </g>
   </g>
   <g id="line2d_26"/>
   <g id="line2d_27">
    <path clip-path="url(#pf200771d85)" d="M 210.371496 164.180425 
" style="fill:none;stroke:#000080;stroke-linecap:square;stroke-width:1.5;"/>
    <defs>
     <path d="M -12 12 
L 12 -12 
M -12 -12 
L 12 12 
" id="mad24be7a94" style="stroke:#000080;stroke-width:3;"/>
    </defs>
    <g clip-path="url(#pf200771d85)">
     <use style="fill:#000080;stroke:#000080;stroke-width:3;" x="210.371496" xlink:href="#mad24be7a94" y="164.180425"/>
    </g>
   </g>
   <g id="line2d_28">
    <defs>
     <path d="M 0 1.5 
C 0.397805 1.5 0.77937 1.341951 1.06066 1.06066 
C 1.341951 0.77937 1.5 0.397805 1.5 0 
C 1.5 -0.397805 1.341951 -0.77937 1.06066 -1.06066 
C 0.77937 -1.341951 0.397805 -1.5 0 -1.5 
C -0.397805 -1.5 -0.77937 -1.341951 -1.06066 -1.06066 
C -1.341951 -0.77937 -1.5 -0.397805 -1.5 0 
C -1.5 0.397805 -1.341951 0.77937 -1.06066 1.06066 
C -0.77937 1.341951 -0.397805 1.5 0 1.5 
z
" id="mab81a2ff09" style="stroke:#ff00ff;"/>
    </defs>
    <g>
     <use style="fill:#ff00ff;stroke:#ff00ff;" x="276.709726" xlink:href="#mab81a2ff09" y="125.207751"/>
     <use style="fill:#ff00ff;stroke:#ff00ff;" x="276.709726" xlink:href="#mab81a2ff09" y="125.207751"/>
    </g>
   </g>
   <g id="line2d_29">
    <path d="M 29.657143 298.245375 
L 29.657143 292.965375 
L 42.042377 292.965375 
L 42.042377 292.181217 
L 54.427611 292.181217 
L 54.427611 292.024385 
L 61.672509 292.024385 
L 61.672509 291.762999 
L 66.812845 291.762999 
L 66.812845 291.37092 
L 70.8 291.37092 
L 70.8 290.97884 
L 74.057743 290.97884 
L 74.057743 290.822009 
L 76.812125 290.822009 
L 76.812125 290.403791 
L 79.198079 290.403791 
L 79.198079 289.959434 
L 81.30264 289.959434 
L 81.30264 289.724187 
L 83.185234 289.724187 
L 83.185234 289.462801 
L 84.888247 289.462801 
L 84.888247 289.27983 
L 86.442977 289.27983 
L 86.442977 286.378444 
L 87.873189 286.378444 
L 87.873189 285.463593 
L 89.197359 285.463593 
L 89.197359 284.679434 
L 90.430132 284.679434 
L 90.430132 284.339632 
L 91.583313 284.339632 
L 91.583313 284.025969 
L 92.666561 284.025969 
L 92.666561 283.81686 
L 93.687874 283.81686 
L 93.687874 283.267949 
L 94.653954 283.267949 
L 94.653954 282.614484 
L 95.570468 282.614484 
L 95.570468 281.255276 
L 96.442257 281.255276 
L 96.442257 279.765375 
L 97.273482 279.765375 
L 97.273482 277.517454 
L 98.067751 277.517454 
L 98.067751 274.433098 
L 98.828211 274.433098 
L 98.828211 271.401019 
L 99.557623 271.401019 
L 99.557623 267.924583 
L 100.258423 267.924583 
L 100.258423 263.768543 
L 100.932772 263.768543 
L 100.932772 261.964979 
L 101.582593 261.964979 
L 101.582593 259.743197 
L 102.209609 259.743197 
L 102.209609 258.253296 
L 102.815366 258.253296 
L 102.815366 256.606563 
L 103.401258 256.606563 
L 103.401258 255.142801 
L 103.968548 255.142801 
L 103.968548 253.574484 
L 104.518379 253.574484 
L 104.518379 253.286959 
L 105.051795 253.286959 
L 105.051795 252.293692 
L 105.569748 252.293692 
L 105.569748 251.326563 
L 106.073108 251.326563 
L 106.073108 250.594682 
L 106.562676 250.594682 
L 106.562676 250.176464 
L 107.039188 250.176464 
L 107.039188 249.549137 
L 107.503321 249.549137 
L 107.503321 249.13092 
L 107.955702 249.13092 
L 107.955702 248.686563 
L 108.396913 248.686563 
L 108.396913 248.189929 
L 108.827491 248.189929 
L 108.827491 247.928543 
L 109.247936 247.928543 
L 109.247936 247.222801 
L 109.658716 247.222801 
L 109.658716 246.595474 
L 110.060263 246.595474 
L 110.060263 245.680623 
L 110.452985 245.680623 
L 110.452985 245.131712 
L 110.83726 245.131712 
L 110.83726 244.844187 
L 111.213445 244.844187 
L 111.213445 244.39983 
L 111.581873 244.39983 
L 111.581873 244.007751 
L 111.942857 244.007751 
L 111.942857 243.511118 
L 112.296693 243.511118 
L 112.296693 243.145177 
L 112.643657 243.145177 
L 112.643657 242.700821 
L 112.984013 242.700821 
L 112.984013 242.387157 
L 113.318006 242.387157 
L 113.318006 241.968939 
L 113.64587 241.968939 
L 113.64587 241.237058 
L 113.967827 241.237058 
L 113.967827 240.714286 
L 114.284085 240.714286 
L 114.284085 240.426761 
L 114.594843 240.426761 
L 114.594843 240.008543 
L 114.900288 240.008543 
L 114.900288 239.721019 
L 115.2006 239.721019 
L 115.2006 239.355078 
L 115.495947 239.355078 
L 115.495947 239.015276 
L 115.786492 239.015276 
L 115.786492 238.884583 
L 116.072388 238.884583 
L 116.072388 238.414088 
L 116.353782 238.414088 
L 116.353782 238.126563 
L 116.903613 238.022009 
L 116.903613 237.629929 
L 117.172312 237.629929 
L 117.172312 237.159434 
L 117.437029 237.159434 
L 117.437029 236.898048 
L 117.697882 236.898048 
L 117.697882 236.270722 
L 118.208435 236.166167 
L 118.208435 236.035474 
L 118.458343 236.035474 
L 118.458343 235.486563 
L 118.704803 235.486563 
L 118.704803 235.042207 
L 118.947911 235.042207 
L 118.947911 234.493296 
L 119.187755 234.493296 
L 119.187755 234.258048 
L 119.424422 234.258048 
L 119.424422 234.022801 
L 119.657995 234.022801 
L 119.657995 233.761415 
L 119.888555 233.761415 
L 119.888555 233.578444 
L 120.116177 233.578444 
L 120.116177 233.343197 
L 120.562903 233.238642 
L 120.562903 232.637454 
L 120.782147 232.637454 
L 120.782147 232.297652 
L 120.998733 232.297652 
L 120.998733 232.088543 
L 121.212725 232.088543 
L 121.212725 231.382801 
L 121.424184 231.382801 
L 121.424184 230.938444 
L 121.63317 230.938444 
L 121.63317 230.572504 
L 121.839741 230.572504 
L 121.839741 230.389533 
L 122.04395 230.389533 
L 122.04395 230.206563 
L 122.245852 230.206563 
L 122.245852 229.971316 
L 122.445497 229.971316 
L 122.445497 229.709929 
L 122.838219 229.605375 
L 122.838219 229.526959 
L 123.03139 229.526959 
L 123.03139 229.370127 
L 123.411577 229.343989 
L 123.411577 229.108741 
L 123.598679 229.108741 
L 123.598679 228.847355 
L 123.783843 228.847355 
L 123.783843 228.324583 
L 123.967107 228.324583 
L 123.967107 228.115474 
L 124.148511 228.115474 
L 124.148511 227.592702 
L 124.681927 227.540425 
L 124.681927 227.383593 
L 124.856251 227.383593 
L 124.856251 227.122207 
L 125.028891 227.122207 
L 125.028891 226.102801 
L 125.369247 226.050524 
L 125.369247 225.632306 
L 125.537024 225.632306 
L 125.537024 225.423197 
L 125.70324 225.423197 
L 125.70324 225.292504 
L 126.031105 225.214088 
L 126.031105 224.900425 
L 126.192808 224.900425 
L 126.192808 224.482207 
L 126.51189 224.377652 
L 126.51189 224.325375 
L 126.669319 224.325375 
L 126.669319 223.959434 
L 126.825374 223.959434 
L 126.825374 223.462801 
L 127.285522 223.384385 
L 127.285522 223.27983 
L 127.436309 223.27983 
L 127.436309 222.757058 
L 127.734118 222.704781 
L 127.734118 222.286563 
L 128.027044 222.234286 
L 128.027044 221.554682 
L 128.171726 221.554682 
L 128.171726 221.084187 
L 128.739016 220.979632 
L 128.739016 220.901217 
L 129.016046 220.901217 
L 129.016046 220.587553 
L 129.152967 220.587553 
L 129.152967 220.117058 
L 129.690395 220.064781 
L 129.690395 219.672702 
L 129.822263 219.672702 
L 129.887835 219.071514 
L 130.018259 218.993098 
L 130.083117 218.75785 
L 130.212129 218.75785 
L 130.212129 218.627157 
L 130.340216 218.627157 
L 130.340216 218.39191 
L 130.593669 218.287355 
L 130.593669 218.182801 
L 131.02874 218.104385 
L 131.090037 217.581613 
L 131.212004 217.555474 
L 131.272677 217.163395 
L 131.333145 217.163395 
L 131.393408 216.928147 
L 131.453469 216.928147 
L 131.513329 216.483791 
L 131.63245 216.405375 
L 131.691714 216.248543 
L 131.750782 216.248543 
L 131.750782 216.11785 
L 131.868336 216.11785 
L 131.868336 215.987157 
L 132.158881 215.908741 
L 132.216427 215.830325 
L 132.273789 215.830325 
L 132.330967 215.464385 
L 132.557867 215.412108 
L 132.557867 215.17686 
L 132.781921 215.098444 
L 132.892904 214.523395 
L 132.948138 214.523395 
L 133.058096 213.896068 
L 133.167381 213.869929 
L 133.221774 213.321019 
L 133.330066 213.321019 
L 133.437706 213.007355 
L 133.597959 212.928939 
L 133.704001 212.35389 
L 133.861894 212.275474 
L 133.966387 211.987949 
L 134.121988 211.883395 
L 134.224975 211.256068 
L 134.37835 211.177652 
L 134.479874 210.707157 
L 134.631086 210.602603 
L 134.681207 210.262801 
L 134.781029 210.262801 
L 134.880296 209.400226 
L 134.979015 209.295672 
L 135.077192 208.799038 
L 135.223453 208.694484 
L 135.3203 208.145573 
L 135.416624 208.093296 
L 135.464592 207.622801 
L 135.655187 207.518246 
L 135.749727 206.760226 
L 135.84377 206.760226 
L 135.937321 205.740821 
L 135.983913 205.740821 
L 136.030384 205.270325 
L 136.122965 205.270325 
L 136.215069 204.747553 
L 136.306701 204.642999 
L 136.397865 203.989533 
L 136.443273 203.989533 
L 136.488566 203.153098 
L 136.623761 203.153098 
L 136.713325 202.578048 
L 136.75794 202.578048 
L 136.846836 201.454088 
L 136.935292 201.401811 
L 137.023313 200.068741 
L 137.110902 200.068741 
L 137.198064 199.284583 
L 137.284802 199.284583 
L 137.371122 198.448147 
L 137.457026 198.448147 
L 137.54252 197.010524 
L 137.627606 197.010524 
L 137.712289 196.304781 
L 137.754481 196.304781 
L 137.838566 195.494484 
L 137.880461 195.494484 
L 137.963957 194.762603 
L 138.047065 194.762603 
L 138.129788 193.952306 
L 138.212129 193.926167 
L 138.294093 192.671514 
L 138.375683 192.645375 
L 138.456902 191.887355 
L 138.497373 191.887355 
L 138.578042 191.181613 
L 138.61824 191.181613 
L 138.698367 190.214484 
L 138.778135 190.214484 
L 138.857549 189.325771 
L 138.936612 189.325771 
L 139.015326 188.933692 
L 139.093695 188.933692 
L 139.171722 188.437058 
L 139.24941 188.41092 
L 139.326761 187.966563 
L 139.403779 187.966563 
L 139.480466 187.417652 
L 139.518687 187.417652 
L 139.556826 187.156266 
L 139.63286 187.156266 
L 139.708573 186.71191 
L 139.783966 186.71191 
L 139.859042 186.293692 
L 139.933804 186.293692 
L 140.008255 185.875474 
L 140.082396 185.875474 
L 140.156232 185.352702 
L 140.229763 185.352702 
L 140.339496 184.908345 
L 140.375924 184.908345 
L 140.484766 184.463989 
L 140.5209 184.463989 
L 140.628864 184.150325 
L 140.664708 184.150325 
L 140.77181 183.784385 
L 140.807369 183.784385 
L 140.913621 183.444583 
L 141.054316 183.340028 
L 141.159114 182.843395 
L 141.22864 182.817256 
L 141.297897 182.608147 
L 141.366886 182.608147 
L 141.435609 182.294484 
L 141.504069 182.294484 
L 141.572268 182.006959 
L 141.707891 181.928543 
L 141.775317 181.353494 
L 141.842491 181.353494 
L 141.909413 180.961415 
L 142.009328 180.935276 
L 142.108687 180.412504 
L 142.207498 180.307949 
L 142.305764 180.255672 
L 142.370976 180.255672 
L 142.468351 179.942009 
L 142.565197 179.837454 
L 142.629471 179.471514 
L 142.693514 179.471514 
L 142.789151 178.373692 
L 142.884279 178.373692 
L 142.978903 177.641811 
L 143.073028 177.537256 
L 143.166661 177.249731 
L 143.197763 177.249731 
L 143.259805 176.779236 
L 143.321632 176.779236 
L 143.413974 175.942801 
L 143.475271 175.916662 
L 143.566825 175.132504 
L 143.657911 175.027949 
L 143.748536 174.844979 
L 143.838703 174.740425 
L 143.928418 174.583593 
L 144.047341 174.583593 
L 144.136017 173.799434 
L 144.19489 173.69488 
L 144.282838 173.459632 
L 144.399433 173.381217 
L 144.457447 173.093692 
L 144.744722 173.041415 
L 144.830011 172.597058 
L 144.886646 172.492504 
L 144.971262 172.126563 
L 145.111405 172.022009 
L 145.194966 171.786761 
L 145.250457 171.760623 
L 145.360925 171.05488 
L 145.498056 170.950325 
L 145.607008 170.845771 
L 145.796091 170.793494 
L 145.876517 170.140028 
L 146.115648 170.087751 
L 146.168356 169.957058 
L 146.351621 169.904781 
L 146.429591 169.225177 
L 146.481383 169.225177 
L 146.584518 168.205771 
L 146.712605 168.127355 
L 146.712605 167.944385 
L 146.991206 167.865969 
L 147.091449 167.317058 
L 147.166263 167.238642 
L 147.215966 166.689731 
L 147.339621 166.689731 
L 147.437933 166.219236 
L 147.608687 166.193098 
L 147.681371 165.356662 
L 147.777825 165.356662 
L 147.825858 165.147553 
L 148.20554 165.069137 
L 148.20554 165.01686 
L 148.392398 165.01686 
L 148.415618 164.729335 
L 148.805818 164.624781 
L 148.805818 164.598642 
L 149.008995 164.520226 
L 149.098559 164.07587 
L 149.342572 163.971316 
L 149.386582 163.605375 
L 149.561547 163.526959 
L 149.648391 163.265573 
L 149.734815 163.213296 
L 149.777871 162.742801 
L 149.927754 162.716662 
L 150.034049 162.533692 
L 150.07639 162.533692 
L 150.160774 162.298444 
L 150.411558 162.220028 
L 150.473708 162.089335 
L 150.943143 161.984781 
L 151.003475 161.906365 
L 151.439788 161.801811 
L 151.537481 161.697256 
L 151.673361 161.61884 
L 151.769789 161.2529 
L 152.187998 161.148345 
L 152.281696 161.096068 
L 152.72473 160.991514 
L 152.833793 160.913098 
L 152.978183 160.808543 
L 153.085714 160.730127 
L 153.174832 160.67785 
L 153.22809 160.547157 
L 153.40448 160.49488 
L 153.40448 160.128939 
L 153.820843 160.024385 
L 153.820843 159.684583 
L 154.227725 159.580028 
L 154.294647 159.318642 
L 154.41116 159.292504 
L 154.493922 158.717454 
L 154.576301 158.665177 
L 154.641933 158.534484 
L 154.853585 158.429929 
L 154.918207 158.377652 
L 155.062759 158.377652 
L 155.110684 157.750325 
L 155.222013 157.750325 
L 155.222013 157.488939 
L 155.660516 157.410524 
L 155.69143 156.992306 
L 155.952059 156.887751 
L 155.952059 156.835474 
L 156.14883 156.809335 
L 156.178911 156.182009 
L 156.491741 156.15587 
L 156.535987 155.842207 
L 156.900507 155.737652 
L 156.900507 155.554682 
L 157.229421 155.528543 
L 157.229421 155.136464 
L 157.635691 155.084187 
L 157.718606 154.63983 
L 157.773669 154.63983 
L 157.773669 154.352306 
L 158.775882 154.247751 
L 158.775882 154.221613 
L 159.638386 154.117058 
L 159.638386 154.012504 
L 159.84766 153.986365 
L 159.884338 153.568147 
L 161.08859 153.489731 
L 161.08859 153.437454 
L 161.95766 153.385177 
L 161.95766 153.149929 
L 163.217238 153.045375 
L 163.217238 152.993098 
L 164.048924 152.888543 
L 164.048924 152.836266 
L 164.788007 152.731712 
L 164.88982 152.287355 
L 166.44455 152.182801 
L 166.44455 152.156662 
L 166.912153 152.052108 
L 166.986175 151.869137 
L 167.772949 151.81686 
L 167.88257 151.686167 
L 168.571657 151.581613 
L 168.571657 151.555474 
L 169.089824 151.555474 
L 169.169902 151.163395 
L 170.411388 151.084979 
L 170.411388 151.032702 
L 170.938825 151.032702 
L 171.011046 150.300821 
L 171.076449 150.300821 
L 171.076449 149.987157 
L 172.177736 149.93488 
L 172.226774 149.568939 
L 174.00808 149.464385 
L 174.00808 149.438246 
L 176.268936 149.35983 
L 176.268936 149.307553 
L 178.279952 149.255276 
L 178.279952 149.150722 
L 179.805211 149.046167 
L 179.805211 148.99389 
L 180.477335 148.941613 
L 180.477335 148.758642 
L 181.21045 148.654088 
L 181.21045 148.627949 
L 181.38729 148.601811 
L 181.38729 148.23587 
L 184.008151 148.131316 
L 184.014482 148.0529 
L 185.210928 147.974484 
L 185.210928 147.869929 
L 188.015556 147.765375 
L 188.015556 147.713098 
L 191.064213 147.608543 
L 191.064213 147.582405 
L 192.274362 147.47785 
L 192.274362 147.425573 
L 196.094898 147.347157 
L 196.094898 147.268741 
L 197.994224 147.164187 
L 197.994224 147.138048 
L 199.109283 147.059632 
L 199.109283 147.007355 
L 201.129494 146.902801 
L 201.180424 146.850524 
L 202.436915 146.745969 
L 202.436915 146.641415 
L 203.216505 146.615276 
L 203.216505 146.327751 
L 204.902124 146.223197 
L 204.902124 146.17092 
L 205.4406 146.092504 
L 205.4406 146.040226 
L 206.875435 145.935672 
L 206.875435 145.883395 
L 209.413057 145.77884 
L 209.522715 145.700425 
L 209.935461 145.674286 
L 209.945844 145.177652 
L 210.470405 145.073098 
L 210.57879 140.551118 
L 210.60239 140.446563 
L 210.689367 139.740821 
L 210.750426 139.714682 
L 210.846559 138.669137 
L 210.939374 138.590722 
L 210.973005 138.407751 
L 211.851259 138.303197 
L 211.85992 138.25092 
L 213.652029 138.146365 
L 213.652029 138.120226 
L 214.461879 138.015672 
L 214.560649 137.963395 
L 215.601199 137.85884 
L 215.601199 137.832702 
L 216.751916 137.728147 
L 216.751916 137.702009 
L 218.83299 137.597454 
L 218.893755 137.519038 
L 220.702865 137.414484 
L 220.702865 137.388345 
L 222.320695 137.283791 
L 222.320695 137.257652 
L 222.79831 137.153098 
L 222.895193 134.434682 
L 222.913143 134.434682 
L 222.995841 133.51983 
L 223.05966 133.441415 
L 223.060016 133.362999 
L 224.502078 133.258444 
L 224.523077 133.206167 
L 226.486481 133.101613 
L 226.487069 133.049335 
L 228.503738 132.944781 
L 228.504 132.866365 
L 229.848215 132.761811 
L 229.854542 132.683395 
L 230.036826 132.57884 
L 230.140809 130.905969 
L 230.16139 130.827553 
L 230.16139 130.775276 
L 230.314994 130.670722 
L 230.314994 130.644583 
L 231.354991 130.540028 
L 231.354991 130.51389 
L 233.86679 130.409335 
L 233.86679 130.383197 
L 234.870049 130.278642 
L 234.880704 130.200226 
L 235.167646 130.095672 
L 235.261919 129.102405 
L 236.034046 128.99785 
L 236.037318 128.945573 
L 237.260275 128.841019 
L 237.260275 128.81488 
L 238.249793 128.710325 
L 238.252987 128.63191 
L 239.152705 128.579632 
L 239.225004 127.978444 
L 241.66115 127.87389 
L 241.66115 127.847751 
L 242.40905 127.743197 
L 242.48265 127.324979 
L 244.9968 127.220425 
L 245.088316 127.142009 
L 245.16078 127.037454 
L 245.198964 126.880623 
L 247.489059 126.776068 
L 247.587277 126.514682 
L 251.527742 126.410127 
L 251.545167 126.35785 
L 253.194514 126.253296 
L 253.259176 126.122603 
L 256.127808 126.018048 
L 256.127808 125.99191 
L 258.69722 125.887355 
L 258.69722 125.861217 
L 262.4872 125.756662 
L 262.4872 125.730524 
L 264.730097 125.625969 
L 264.730097 125.59983 
L 269.911273 125.495276 
L 269.911273 125.469137 
L 274.383133 125.364583 
L 274.383133 125.338444 
L 276.709726 125.23389 
L 276.709726 125.207751 
L 358.8 125.207751 
L 358.8 125.207751 
" style="fill:none;stroke:#ff00ff;stroke-linecap:square;stroke-width:1.5;"/>
   </g>
   <g id="line2d_30">
    <defs>
     <path d="M -0 8.485281 
L 5.091169 0 
L 0 -8.485281 
L -5.091169 -0 
z
" id="m71f7a5c8ec" style="stroke:#ff00ff;stroke-linejoin:miter;stroke-width:1.5;"/>
    </defs>
    <g>
     <use style="fill:none;stroke:#ff00ff;stroke-linejoin:miter;stroke-width:1.5;" x="107.955702" xlink:href="#m71f7a5c8ec" y="249.13092"/>
     <use style="fill:none;stroke:#ff00ff;stroke-linejoin:miter;stroke-width:1.5;" x="137.110902" xlink:href="#m71f7a5c8ec" y="200.068741"/>
     <use style="fill:none;stroke:#ff00ff;stroke-linejoin:miter;stroke-width:1.5;" x="192.818152" xlink:href="#m71f7a5c8ec" y="147.425573"/>
     <use style="fill:none;stroke:#ff00ff;stroke-linejoin:miter;stroke-width:1.5;" x="276.709726" xlink:href="#m71f7a5c8ec" y="125.23389"/>
     <use style="fill:none;stroke:#ff00ff;stroke-linejoin:miter;stroke-width:1.5;" x="276.709726" xlink:href="#m71f7a5c8ec" y="125.207751"/>
     <use style="fill:none;stroke:#ff00ff;stroke-linejoin:miter;stroke-width:1.5;" x="358.8" xlink:href="#m71f7a5c8ec" y="125.207751"/>
    </g>
   </g>
   <g id="line2d_31"/>
   <g id="line2d_32">
    <path clip-path="url(#pf200771d85)" d="M 210.371496 145.151514 
" style="fill:none;stroke:#ff00ff;stroke-linecap:square;stroke-width:1.5;"/>
    <defs>
     <path d="M -12 12 
L 12 -12 
M -12 -12 
L 12 12 
" id="m46d78566c6" style="stroke:#ff00ff;stroke-width:3;"/>
    </defs>
    <g clip-path="url(#pf200771d85)">
     <use style="fill:#ff00ff;stroke:#ff00ff;stroke-width:3;" x="210.371496" xlink:href="#m46d78566c6" y="145.151514"/>
    </g>
   </g>
   <g id="line2d_33">
    <path d="M 358.8 149.778048 
L 390.48 292.97583 
" style="fill:none;stroke:#000080;stroke-linecap:square;stroke-width:1.5;"/>
    <g>
     <use style="fill:none;stroke:#000080;stroke-width:1.5;" x="358.8" xlink:href="#m792a8feed3" y="149.778048"/>
     <use style="fill:none;stroke:#000080;stroke-width:1.5;" x="390.48" xlink:href="#m792a8feed3" y="292.97583"/>
    </g>
   </g>
   <g id="line2d_34">
    <path d="M 358.8 125.207751 
L 390.48 40.037692 
" style="fill:none;stroke:#ff00ff;stroke-linecap:square;stroke-width:1.5;"/>
    <g>
     <use style="fill:none;stroke:#ff00ff;stroke-linejoin:miter;stroke-width:1.5;" x="358.8" xlink:href="#m71f7a5c8ec" y="125.207751"/>
     <use style="fill:none;stroke:#ff00ff;stroke-linejoin:miter;stroke-width:1.5;" x="390.48" xlink:href="#m71f7a5c8ec" y="40.037692"/>
    </g>
   </g>
   <g id="line2d_35">
    <path d="M 358.8 298.245375 
L 358.8 34.768147 
" style="fill:none;stroke:#000000;stroke-linecap:square;stroke-width:1.5;"/>
   </g>
   <g id="patch_3">
    <path d="M 70.8 298.245375 
L 70.8 32.133375 
" style="fill:none;stroke:#000000;stroke-linecap:square;stroke-linejoin:miter;stroke-width:0.8;"/>
   </g>
   <g id="patch_4">
    <path d="M 427.92 298.245375 
L 427.92 32.133375 
" style="fill:none;stroke:#000000;stroke-linecap:square;stroke-linejoin:miter;stroke-width:0.8;"/>
   </g>
   <g id="patch_5">
    <path d="M 70.8 298.245375 
L 427.92 298.245375 
" style="fill:none;stroke:#000000;stroke-linecap:square;stroke-linejoin:miter;stroke-width:0.8;"/>
   </g>
   <g id="patch_6">
    <path d="M 70.8 32.133375 
L 427.92 32.133375 
" style="fill:none;stroke:#000000;stroke-linecap:square;stroke-linejoin:miter;stroke-width:0.8;"/>
   </g>
   <g id="text_14">
    <!-- cobyla 0.0 -->
    <defs>
     <path d="M 48.6875 27.296875 
Q 48.6875 37.203125 44.609375 42.84375 
Q 40.53125 48.484375 33.40625 48.484375 
Q 26.265625 48.484375 22.1875 42.84375 
Q 18.109375 37.203125 18.109375 27.296875 
Q 18.109375 17.390625 22.1875 11.75 
Q 26.265625 6.109375 33.40625 6.109375 
Q 40.53125 6.109375 44.609375 11.75 
Q 48.6875 17.390625 48.6875 27.296875 
z
M 18.109375 46.390625 
Q 20.953125 51.265625 25.265625 53.625 
Q 29.59375 56 35.59375 56 
Q 45.5625 56 51.78125 48.09375 
Q 58.015625 40.1875 58.015625 27.296875 
Q 58.015625 14.40625 51.78125 6.484375 
Q 45.5625 -1.421875 35.59375 -1.421875 
Q 29.59375 -1.421875 25.265625 0.953125 
Q 20.953125 3.328125 18.109375 8.203125 
L 18.109375 0 
L 9.078125 0 
L 9.078125 75.984375 
L 18.109375 75.984375 
z
" id="DejaVuSans-62"/>
     <path d="M 32.171875 -5.078125 
Q 28.375 -14.84375 24.75 -17.8125 
Q 21.140625 -20.796875 15.09375 -20.796875 
L 7.90625 -20.796875 
L 7.90625 -13.28125 
L 13.1875 -13.28125 
Q 16.890625 -13.28125 18.9375 -11.515625 
Q 21 -9.765625 23.484375 -3.21875 
L 25.09375 0.875 
L 2.984375 54.6875 
L 12.5 54.6875 
L 29.59375 11.921875 
L 46.6875 54.6875 
L 56.203125 54.6875 
z
" id="DejaVuSans-79"/>
    </defs>
    <g transform="translate(396.24 297.114893)scale(0.15 -0.15)">
     <use xlink:href="#DejaVuSans-63"/>
     <use x="54.980469" xlink:href="#DejaVuSans-6f"/>
     <use x="116.162109" xlink:href="#DejaVuSans-62"/>
     <use x="179.638672" xlink:href="#DejaVuSans-79"/>
     <use x="238.818359" xlink:href="#DejaVuSans-6c"/>
     <use x="266.601562" xlink:href="#DejaVuSans-61"/>
     <use x="327.880859" xlink:href="#DejaVuSans-20"/>
     <use x="359.667969" xlink:href="#DejaVuSans-30"/>
     <use x="423.291016" xlink:href="#DejaVuSans-2e"/>
     <use x="455.078125" xlink:href="#DejaVuSans-30"/>
    </g>
   </g>
   <g id="text_15">
    <!-- cobyla 1e- -->
    <g transform="translate(396.24 44.176754)scale(0.15 -0.15)">
     <use xlink:href="#DejaVuSans-63"/>
     <use x="54.980469" xlink:href="#DejaVuSans-6f"/>
     <use x="116.162109" xlink:href="#DejaVuSans-62"/>
     <use x="179.638672" xlink:href="#DejaVuSans-79"/>
     <use x="238.818359" xlink:href="#DejaVuSans-6c"/>
     <use x="266.601562" xlink:href="#DejaVuSans-61"/>
     <use x="327.880859" xlink:href="#DejaVuSans-20"/>
     <use x="359.667969" xlink:href="#DejaVuSans-31"/>
     <use x="423.291016" xlink:href="#DejaVuSans-65"/>
     <use x="484.814453" xlink:href="#DejaVuSans-2d"/>
    </g>
   </g>
   <g id="text_16">
    <!-- bbob-constrained - f1-f48, 10-D -->
    <defs>
     <path d="M 11.71875 12.40625 
L 22.015625 12.40625 
L 22.015625 4 
L 14.015625 -11.625 
L 7.71875 -11.625 
L 11.71875 4 
z
" id="DejaVuSans-2c"/>
     <path d="M 19.671875 64.796875 
L 19.671875 8.109375 
L 31.59375 8.109375 
Q 46.6875 8.109375 53.6875 14.9375 
Q 60.6875 21.78125 60.6875 36.53125 
Q 60.6875 51.171875 53.6875 57.984375 
Q 46.6875 64.796875 31.59375 64.796875 
z
M 9.8125 72.90625 
L 30.078125 72.90625 
Q 51.265625 72.90625 61.171875 64.09375 
Q 71.09375 55.28125 71.09375 36.53125 
Q 71.09375 17.671875 61.125 8.828125 
Q 51.171875 0 30.078125 0 
L 9.8125 0 
z
" id="DejaVuSans-44"/>
    </defs>
    <g transform="translate(74.3712 50.114612)scale(0.1666 -0.1666)">
     <use xlink:href="#DejaVuSans-62"/>
     <use x="63.476562" xlink:href="#DejaVuSans-62"/>
     <use x="126.953125" xlink:href="#DejaVuSans-6f"/>
     <use x="188.134766" xlink:href="#DejaVuSans-62"/>
     <use x="251.611328" xlink:href="#DejaVuSans-2d"/>
     <use x="287.695312" xlink:href="#DejaVuSans-63"/>
     <use x="342.675781" xlink:href="#DejaVuSans-6f"/>
     <use x="403.857422" xlink:href="#DejaVuSans-6e"/>
     <use x="467.236328" xlink:href="#DejaVuSans-73"/>
     <use x="519.335938" xlink:href="#DejaVuSans-74"/>
     <use x="558.544922" xlink:href="#DejaVuSans-72"/>
     <use x="599.658203" xlink:href="#DejaVuSans-61"/>
     <use x="660.9375" xlink:href="#DejaVuSans-69"/>
     <use x="688.720703" xlink:href="#DejaVuSans-6e"/>
     <use x="752.099609" xlink:href="#DejaVuSans-65"/>
     <use x="813.623047" xlink:href="#DejaVuSans-64"/>
     <use x="877.099609" xlink:href="#DejaVuSans-20"/>
     <use x="908.886719" xlink:href="#DejaVuSans-2d"/>
     <use x="944.970703" xlink:href="#DejaVuSans-20"/>
     <use x="976.757812" xlink:href="#DejaVuSans-66"/>
     <use x="1011.962891" xlink:href="#DejaVuSans-31"/>
     <use x="1075.585938" xlink:href="#DejaVuSans-2d"/>
     <use x="1111.669922" xlink:href="#DejaVuSans-66"/>
     <use x="1146.875" xlink:href="#DejaVuSans-34"/>
     <use x="1210.498047" xlink:href="#DejaVuSans-38"/>
     <use x="1274.121094" xlink:href="#DejaVuSans-2c"/>
     <use x="1305.908203" xlink:href="#DejaVuSans-20"/>
     <use x="1337.695312" xlink:href="#DejaVuSans-31"/>
     <use x="1401.318359" xlink:href="#DejaVuSans-30"/>
     <use x="1464.941406" xlink:href="#DejaVuSans-2d"/>
     <use x="1501.025391" xlink:href="#DejaVuSans-44"/>
    </g>
    <!-- 21 targets in 100..0.010 -->
    <g transform="translate(74.3712 68.770168)scale(0.1666 -0.1666)">
     <use xlink:href="#DejaVuSans-32"/>
     <use x="63.623047" xlink:href="#DejaVuSans-31"/>
     <use x="127.246094" xlink:href="#DejaVuSans-20"/>
     <use x="159.033203" xlink:href="#DejaVuSans-74"/>
     <use x="198.242188" xlink:href="#DejaVuSans-61"/>
     <use x="259.521484" xlink:href="#DejaVuSans-72"/>
     <use x="300.619141" xlink:href="#DejaVuSans-67"/>
     <use x="364.095703" xlink:href="#DejaVuSans-65"/>
     <use x="425.619141" xlink:href="#DejaVuSans-74"/>
     <use x="464.828125" xlink:href="#DejaVuSans-73"/>
     <use x="516.927734" xlink:href="#DejaVuSans-20"/>
     <use x="548.714844" xlink:href="#DejaVuSans-69"/>
     <use x="576.498047" xlink:href="#DejaVuSans-6e"/>
     <use x="639.876953" xlink:href="#DejaVuSans-20"/>
     <use x="671.664062" xlink:href="#DejaVuSans-31"/>
     <use x="735.287109" xlink:href="#DejaVuSans-30"/>
     <use x="798.910156" xlink:href="#DejaVuSans-30"/>
     <use x="862.533203" xlink:href="#DejaVuSans-2e"/>
     <use x="894.320312" xlink:href="#DejaVuSans-2e"/>
     <use x="926.107422" xlink:href="#DejaVuSans-30"/>
     <use x="989.730469" xlink:href="#DejaVuSans-2e"/>
     <use x="1021.517578" xlink:href="#DejaVuSans-30"/>
     <use x="1085.140625" xlink:href="#DejaVuSans-31"/>
     <use x="1148.763672" xlink:href="#DejaVuSans-30"/>
    </g>
    <!-- 15 instances -->
    <defs>
     <path d="M 10.796875 72.90625 
L 49.515625 72.90625 
L 49.515625 64.59375 
L 19.828125 64.59375 
L 19.828125 46.734375 
Q 21.96875 47.46875 24.109375 47.828125 
Q 26.265625 48.1875 28.421875 48.1875 
Q 40.625 48.1875 47.75 41.5 
Q 54.890625 34.8125 54.890625 23.390625 
Q 54.890625 11.625 47.5625 5.09375 
Q 40.234375 -1.421875 26.90625 -1.421875 
Q 22.3125 -1.421875 17.546875 -0.640625 
Q 12.796875 0.140625 7.71875 1.703125 
L 7.71875 11.625 
Q 12.109375 9.234375 16.796875 8.0625 
Q 21.484375 6.890625 26.703125 6.890625 
Q 35.15625 6.890625 40.078125 11.328125 
Q 45.015625 15.765625 45.015625 23.390625 
Q 45.015625 31 40.078125 35.4375 
Q 35.15625 39.890625 26.703125 39.890625 
Q 22.75 39.890625 18.8125 39.015625 
Q 14.890625 38.140625 10.796875 36.28125 
z
" id="DejaVuSans-35"/>
    </defs>
    <g transform="translate(74.3712 87.425723)scale(0.1666 -0.1666)">
     <use xlink:href="#DejaVuSans-31"/>
     <use x="63.623047" xlink:href="#DejaVuSans-35"/>
     <use x="127.246094" xlink:href="#DejaVuSans-20"/>
     <use x="159.033203" xlink:href="#DejaVuSans-69"/>
     <use x="186.816406" xlink:href="#DejaVuSans-6e"/>
     <use x="250.195312" xlink:href="#DejaVuSans-73"/>
     <use x="302.294922" xlink:href="#DejaVuSans-74"/>
     <use x="341.503906" xlink:href="#DejaVuSans-61"/>
     <use x="402.783203" xlink:href="#DejaVuSans-6e"/>
     <use x="466.162109" xlink:href="#DejaVuSans-63"/>
     <use x="521.142578" xlink:href="#DejaVuSans-65"/>
     <use x="582.666016" xlink:href="#DejaVuSans-73"/>
    </g>
   </g>
   <g id="text_17">
    <!-- v2.0.361 -->
    <defs>
     <path d="M 40.578125 39.3125 
Q 47.65625 37.796875 51.625 33 
Q 55.609375 28.21875 55.609375 21.1875 
Q 55.609375 10.40625 48.1875 4.484375 
Q 40.765625 -1.421875 27.09375 -1.421875 
Q 22.515625 -1.421875 17.65625 -0.515625 
Q 12.796875 0.390625 7.625 2.203125 
L 7.625 11.71875 
Q 11.71875 9.328125 16.59375 8.109375 
Q 21.484375 6.890625 26.8125 6.890625 
Q 36.078125 6.890625 40.9375 10.546875 
Q 45.796875 14.203125 45.796875 21.1875 
Q 45.796875 27.640625 41.28125 31.265625 
Q 36.765625 34.90625 28.71875 34.90625 
L 20.21875 34.90625 
L 20.21875 43.015625 
L 29.109375 43.015625 
Q 36.375 43.015625 40.234375 45.921875 
Q 44.09375 48.828125 44.09375 54.296875 
Q 44.09375 59.90625 40.109375 62.90625 
Q 36.140625 65.921875 28.71875 65.921875 
Q 24.65625 65.921875 20.015625 65.03125 
Q 15.375 64.15625 9.8125 62.3125 
L 9.8125 71.09375 
Q 15.4375 72.65625 20.34375 73.4375 
Q 25.25 74.21875 29.59375 74.21875 
Q 40.828125 74.21875 47.359375 69.109375 
Q 53.90625 64.015625 53.90625 55.328125 
Q 53.90625 49.265625 50.4375 45.09375 
Q 46.96875 40.921875 40.578125 39.3125 
z
" id="DejaVuSans-33"/>
    </defs>
    <g style="fill:#808080;" transform="translate(227.31625 293.504568)scale(0.1 -0.1)">
     <use xlink:href="#DejaVuSans-76"/>
     <use x="59.179688" xlink:href="#DejaVuSans-32"/>
     <use x="122.802734" xlink:href="#DejaVuSans-2e"/>
     <use x="154.589844" xlink:href="#DejaVuSans-30"/>
     <use x="218.212891" xlink:href="#DejaVuSans-2e"/>
     <use x="250" xlink:href="#DejaVuSans-33"/>
     <use x="313.623047" xlink:href="#DejaVuSans-36"/>
     <use x="377.246094" xlink:href="#DejaVuSans-31"/>
    </g>
   </g>
  </g>
 </g>
 <defs>
  <clipPath id="pf200771d85">
   <rect height="266.112" width="357.12" x="70.8" y="32.133375"/>
  </clipPath>
 </defs>
</svg>
